<?xml version="1.0" encoding="utf-8"?>
<!DOCTYPE svg PUBLIC "-//W3C//DTD SVG 1.1//EN" "http://www.w3.org/Graphics/SVG/1.1/DTD/svg11.dtd">
<svg width="47.6074218750005" height="43.41796875" xmlns="http://www.w3.org/2000/svg" xmlns:xlink="http://www.w3.org/1999/xlink" xmlns:xml="http://www.w3.org/XML/1998/namespace" version="1.1">
  <g>
    <g>
      <path style="fill:#FF0000;fill-opacity:1" d="M14.150390625,4.453125L12.0364370346069,4.72686767578125 10.2062978744507,5.548095703125 8.65997219085693,6.91680908203125 7.3974609375,8.8330078125 6.41693115234375,11.3186655044556 5.716552734375,14.3957538604736 5.29632568359375,18.0642719268799 5.15625,22.32421875 5.2935791015625,26.30859375 5.70556640625,29.736328125 6.3922119140625,32.607421875 7.353515625,34.921875 8.59130764007568,36.7034912109375 10.1074209213257,37.97607421875 11.9018545150757,38.7396240234375 13.974609375,38.994140625 16.0079956054688,38.7350463867188 17.772216796875,37.957763671875 19.2672729492188,36.6622924804688 20.4931640625,34.8486328125 21.4480571746826,32.4929809570313 22.1301250457764,29.571533203125 22.5393657684326,26.0842895507813 22.67578125,22.03125 22.5421123504639,17.8280658721924 22.1411113739014,14.2126483917236 21.4727764129639,11.1849985122681 20.537109375,8.7451171875 19.3359375,6.86737060546875 17.87109375,5.526123046875 16.142578125,4.72137451171875 14.150390625,4.453125z M14.4140625,0L16.9354248046875,0.2142333984375 19.19677734375,0.85693359375 21.1981201171875,1.9281005859375 22.939453125,3.427734375 24.4189434051514,5.3594970703125 25.6347637176514,7.72705078125 26.5869121551514,10.5303955078125 27.275390625,13.76953125 28.4912109375,12.861328125 29.7509765625,12.3193359375 30.966796875,12.0703125 32.080078125,12.01171875 34.6728515625,12.4658203125 36.2548828125,13.6962890625 37.03125,15.498046875 37.236328125,17.666015625 37.1484375,19.453125 36.9580078125,21.240234375 36.767578125,22.939453125 36.6796875,24.462890625 37.0458984375,26.3525390625 38.4375,27.0703125 40.634765625,26.484375 42.0556640625,24.990234375 42.8173828125,22.96875 43.037109375,20.80078125 42.48046875,17.6220703125 41.25,15.5859375 39.4921875,14.150390625 41.279296875,11.19140625 44.443359375,13.06640625 45.6005859375,14.326171875 46.611328125,16.0107421875 47.3291015625,18.134765625 47.607421875,20.7421875 47.4096641540527,23.00537109375 46.81640625,25.048828125 44.70703125,28.359375 41.7041015625,30.4833984375 38.232421875,31.23046875 35.1708984375,30.7177734375 33.3251953125,29.35546875 32.431640625,27.36328125 32.197265625,24.990234375 32.28515625,23.2177734375 32.4609375,21.474609375 32.63671875,19.8486328125 32.724609375,18.3984375 32.40234375,16.69921875 31.201171875,16.0546875 29.7802734375,16.4208984375 28.828125,17.34375 28.2421875,18.57421875 27.94921875,19.8486328125 27.8466796875,20.91796875 27.83203125,21.533203125 27.5537109375,26.865234375 26.6162109375,31.962890625 24.8876953125,36.4892578125 22.2216796875,40.1220703125 18.45703125,42.5390625 16.1279296875,43.1982421875 13.4765625,43.41796875 10.9716787338257,43.20556640625 8.7890625,42.568359375 5.2587890625,40.2392578125 2.7392578125,36.7529296875 1.1279296875,32.431640625 0.263671875,27.59765625 0,22.55859375 0.241699039936066,17.3291034698486 0.966796875,12.7734375 2.1533203125,8.89892578125 3.77929639816284,5.712890625 5.833740234375,3.22265625 8.3056640625,1.435546875 11.1730947494507,0.35888671875 14.4140625,0z" />
    </g>
  </g>
</svg>