<?xml version="1.0" encoding="utf-8"?>
<!DOCTYPE svg PUBLIC "-//W3C//DTD SVG 1.1//EN" "http://www.w3.org/Graphics/SVG/1.1/DTD/svg11.dtd">
<svg width="38.525390625" height="43.388671875" xmlns="http://www.w3.org/2000/svg" xmlns:xlink="http://www.w3.org/1999/xlink" xmlns:xml="http://www.w3.org/XML/1998/namespace" version="1.1">
  <g>
    <g>
      <path style="fill:#FF0000;fill-opacity:1" d="M25.48828125,0L28.6743144989014,0.263671875 31.376953125,1.0546875 33.621826171875,2.406005859375 35.4345703125,4.3505859375 36.81884765625,6.9140625 37.7783203125,10.1220703125 38.338623046875,14.0075702667236 38.525390625,18.603515625 38.525390625,42.71484375 33.603515625,42.71484375 33.603515625,18.22265625 33.486328125,14.7875995635986 33.134765625,11.865234375 32.530517578125,9.429931640625 31.6552734375,7.4560546875 30.4980449676514,5.943603515625 29.0478515625,4.892578125 27.2936992645264,4.27734375 25.224609375,4.072265625 22.25830078125,4.683837890625 19.86328125,6.5185546875 18.02490234375,9.532470703125 16.728515625,13.681640625 16.11328125,17.4169921875 15.5419921875,21.943359375 14.853515625,26.865234375 13.88671875,31.7578125 12.48046875,36.2548828125 10.4736328125,39.9609375 7.70507860183716,42.4658203125 5.9912109375,43.157958984375 4.01367235183716,43.388671875 0,42.7734375 0,38.14453125 1.58935558795929,38.78173828125 3.31054711341858,38.994140625 4.88159227371216,38.697509765625 6.19628953933716,37.8076171875 7.291259765625,36.419677734375 8.203125,34.62890625 9.55078125,30 10.4736328125,24.4482421875 11.2353515625,18.515625 12.099609375,12.7734375 13.857421875,7.2802734375 15.1867666244507,5.0830078125 16.7724609375,3.2666015625 18.61083984375,1.842041015625 20.6982421875,0.8203125 23.001708984375,0.205078125 25.48828125,0z" />
    </g>
  </g>
</svg>