<?xml version="1.0" encoding="utf-8"?>
<!DOCTYPE svg PUBLIC "-//W3C//DTD SVG 1.1//EN" "http://www.w3.org/Graphics/SVG/1.1/DTD/svg11.dtd">
<svg width="28.06640625" height="42.01171875" xmlns="http://www.w3.org/2000/svg" xmlns:xlink="http://www.w3.org/1999/xlink" xmlns:xml="http://www.w3.org/XML/1998/namespace" version="1.1">
  <g>
    <g>
      <path style="fill:#FF0000;fill-opacity:1" d="M14.501953125,0L17.208251953125,0.1904296875 19.7607421875,0.76171875 22.0788555145264,1.72119140625 24.08203125,3.076171875 25.7336406707764,4.830322265625 26.9970703125,6.9873046875 27.799072265625,9.55444431304932 28.06640625,12.5390625 27.861328125,15.087890625 27.3193359375,17.4169921875 26.572265625,19.453125 25.751953125,21.123046875 21.591796875,18.69140625 22.587890625,16.0986328125 22.91015625,12.7734375 22.3095703125,9.140625 20.595703125,6.5478515625 17.9296875,4.98046875 14.501953125,4.453125 12.205810546875,4.6875 10.2392578125,5.390625 7.2509765625,7.880859375 5.4931640625,11.4111328125 4.921875,15.46875 4.921875,42.01171875 0,42.01171875 0,15.234375 0.274658203125,11.8469257354736 1.0986328125,8.8330078125 2.40600562095642,6.221923828125 4.130859375,4.04296875 6.243896484375,2.310791015625 8.7158203125,1.0400390625 11.488037109375,0.260009765625 14.501953125,0z" />
    </g>
  </g>
</svg>