<?xml version="1.0" encoding="utf-8"?>
<!DOCTYPE svg PUBLIC "-//W3C//DTD SVG 1.1//EN" "http://www.w3.org/Graphics/SVG/1.1/DTD/svg11.dtd">
<svg width="53.759765625" height="42.71484375" xmlns="http://www.w3.org/2000/svg" xmlns:xlink="http://www.w3.org/1999/xlink" xmlns:xml="http://www.w3.org/XML/1998/namespace" version="1.1">
  <g>
    <g>
      <path style="fill:#FF0000;fill-opacity:1" d="M13.154296875,22.001953125L11.66015625,25.634765625 11.1328125,29.82421875 11.3818359375,32.87109375 12.2607421875,35.888671875 13.9599609375,38.1884765625 15.1721181869507,38.880615234375 16.669921875,39.111328125 18.69140625,38.4375 20.0244140625,36.708984375 20.7568359375,34.3798828125 20.9765625,31.875 20.33203125,27.7294921875 18.6181640625,24.755859375 16.1279296875,22.8662109375 13.154296875,22.001953125z M19.482421875,0L32.607421875,0 32.607421875,4.21875 28.505859375,4.21875 28.505859375,11.42578125 28.6157207489014,13.6596698760986 28.9453125,15.498046875 30.1318359375,18.1201171875 31.8603515625,19.51171875 33.896484375,19.921875 36.0498046875,19.51171875 38.115234375,18.4716796875 40.1806640625,17.1240234375 42.3193359375,15.7763671875 44.619140625,14.736328125 47.197265625,14.326171875 49.51171875,14.70703125 51.62109375,15.52734375 53.759765625,16.69921875 53.759765625,21.03515625 51.73828125,19.74609375 49.7021484375,18.8525390625 47.431640625,18.45703125 45.439453125,18.8671875 43.4619140625,19.9072265625 41.4111328125,21.2548828125 39.19921875,22.6025390625 36.7236328125,23.642578125 33.896484375,24.052734375 31.0986328125,23.6865234375 28.8720703125,22.705078125 27.158203125,21.3134765625 25.8984375,19.716796875 24.111328125,15.3515625 21.90673828125,15.5529804229736 19.8046875,16.1572265625 16.0546875,18.427734375 19.7607421875,19.8779296875 22.822265625,22.5 24.90234375,26.396484375 25.4736309051514,28.857421875 25.6640625,31.669921875 25.0634765625,36.1376953125 23.3056640625,39.638671875 20.44921875,41.9091796875 18.62548828125,42.513427734375 16.552734375,42.71484375 13.9526357650757,42.440185546875 11.77734375,41.6162109375 8.5693359375,38.759765625 6.767578125,34.8046875 6.21093797683716,30.41015625 6.533203125,26.3671875 7.470703125,22.79296875 4.80468702316284,24.31640625 2.6953125,26.54296875 0,24.111328125 1.75781226158142,21.9873046875 4.1162109375,20.2587890625 6.8994140625,18.9990234375 9.931640625,18.251953125 12.6232900619507,15.4687519073486 15.8935546875,13.388671875 19.595947265625,12.0336933135986 23.583984375,11.42578125 23.583984375,4.21875 19.482421875,4.21875 19.482421875,0z" />
    </g>
  </g>
</svg>