<?xml version="1.0" encoding="utf-8"?>
<!DOCTYPE svg PUBLIC "-//W3C//DTD SVG 1.1//EN" "http://www.w3.org/Graphics/SVG/1.1/DTD/svg11.dtd">
<svg width="37.7343750000001" height="43.41796875" xmlns="http://www.w3.org/2000/svg" xmlns:xlink="http://www.w3.org/1999/xlink" xmlns:xml="http://www.w3.org/XML/1998/namespace" version="1.1">
  <g>
    <g>
      <path style="fill:#FF0000;fill-opacity:1" d="M21.796875,0L28.11767578125,0.556640625 33.310546875,2.2265625 33.310546875,7.67578125 30.633544921875,6.265869140625 27.7294921875,5.2587890625 24.598388671875,4.654541015625 21.240234375,4.453125 17.724609375,4.793701171875 14.560546875,5.8154296875 11.7993154525757,7.430419921875 9.4921875,9.55078125 7.650146484375,12.1252460479736 6.2841796875,15.1025390625 5.43823194503784,18.3947772979736 5.15625,21.9140625 5.40527296066284,25.51025390625 6.15234375,28.798828125 7.408447265625,31.7138671875 9.1845703125,34.189453125 11.4843740463257,36.199951171875 14.3115234375,37.7197265625 17.677001953125,38.675537109375 21.591796875,38.994140625 23.5693359375,38.8623046875 25.9716796875,38.408203125 28.4619140625,37.5146484375 30.6884765625,36.03515625 32.2705078125,33.8671875 32.87109375,30.908203125 32.34375,28.1689453125 30.908203125,26.19140625 28.798828125,24.990234375 26.279296875,24.580078125 26.279296875,28.828125 22.060546875,28.828125 22.060546875,15.703125 26.279296875,15.703125 26.279296875,20.244140625 28.7109375,20.4345703125 31.2744140625,21.09375 33.720703125,22.3388671875 35.7861328125,24.287109375 37.20703125,27.0849609375 37.734375,30.849609375 37.529296875,33.1640625 36.9140625,35.185546875 34.7607421875,38.466796875 31.7138671875,40.810546875 28.1982421875,42.333984375 24.66796875,43.1689453125 21.5625,43.41796875 16.622314453125,43.0224609375 12.2900390625,41.8359375 8.587646484375,39.9462890625 5.537109375,37.44140625 3.14208960533142,34.361572265625 1.40624976158142,30.7470703125 0.351562291383743,26.685791015625 0,22.265625 0.402831763029099,17.6660175323486 1.61132740974426,13.41796875 3.54492163658142,9.61669921875 6.123046875,6.357421875 9.298095703125,3.695068359375 13.0224609375,1.6845703125 17.215576171875,0.421142578125 21.796875,0z" />
    </g>
  </g>
</svg>