<?xml version="1.0" encoding="utf-8"?>
<!DOCTYPE svg PUBLIC "-//W3C//DTD SVG 1.1//EN" "http://www.w3.org/Graphics/SVG/1.1/DTD/svg11.dtd">
<svg width="30.52734375" height="51.240234375" xmlns="http://www.w3.org/2000/svg" xmlns:xlink="http://www.w3.org/1999/xlink" xmlns:xml="http://www.w3.org/XML/1998/namespace" version="1.1">
  <g>
    <g>
      <path style="fill:#FF0000;fill-opacity:1" d="M9.9609375,0L9.9609375,8.876953125 17.51953125,8.876953125 17.51953125,12.978515625 9.9609375,12.978515625 9.9609375,29.00390625 10.3857421875,31.69921875 11.54296875,33.7353515625 13.2861328125,35.0244140625 15.498046875,35.478515625 17.607421875,35.0244140625 19.5849609375,33.7353515625 21.0498046875,31.69921875 21.62109375,29.00390625 21.62109375,27.861328125 17.51953125,27.861328125 17.51953125,23.642578125 30.52734375,23.642578125 30.52734375,27.861328125 26.42578125,27.861328125 26.42578125,37.6171875 25.927734375,42.0849609375 24.6240234375,45.439453125 22.79296875,47.8564453125 20.68359375,49.482421875 17.98828125,50.68359375 14.94140625,51.240234375 14.94140625,47.138671875 16.728515625,46.7724609375 18.3251953125,45.9814453125 19.921875,44.47265625 21.1376953125,42.0263671875 21.62109375,38.408203125 21.62109375,36.5625 18.6181640625,38.7158203125 16.812744140625,39.320068359375 14.765625,39.521484375 10.7958984375,38.8330078125 7.763671875,36.884765625 5.830078125,33.837890625 5.15625,29.853515625 5.15625,12.978515625 0,12.978515625 0,8.876953125 5.15625,8.876953125 5.15625,1.552734375 9.9609375,0z" />
    </g>
  </g>
</svg>