<?xml version="1.0" encoding="utf-8"?>
<!DOCTYPE svg PUBLIC "-//W3C//DTD SVG 1.1//EN" "http://www.w3.org/Graphics/SVG/1.1/DTD/svg11.dtd">
<svg width="23.73046875" height="42.71484375" xmlns="http://www.w3.org/2000/svg" xmlns:xlink="http://www.w3.org/1999/xlink" xmlns:xml="http://www.w3.org/XML/1998/namespace" version="1.1">
  <g>
    <g>
      <path style="fill:#FF0000;fill-opacity:1" d="M2.40234375,0L15.52734375,0 15.52734375,4.21875 11.42578125,4.21875 11.42578125,11.6015625 14.17236328125,12.3449726104736 16.611328125,13.5205078125 20.478515625,17.021484375 22.8955078125,21.8408203125 23.5217266082764,24.664306640625 23.73046875,27.71484375 23.4814434051514,30.838623046875 22.734375,33.7060546875 21.5222148895264,36.26220703125 19.8779296875,38.4521484375 17.81982421875,40.2392578125 15.3662109375,41.5869140625 12.557373046875,42.432861328125 9.43359375,42.71484375 6.9580078125,42.5830078125 4.4384765625,42.1875 2.0654296875,41.54296875 0.05859375,40.634765625 0.05859375,36.064453125 2.0068359375,37.1923828125 4.21875,38.0126953125 6.50390625,38.5107421875 8.61328125,38.671875 10.9570302963257,38.455810546875 13.0078125,37.8076171875 16.201171875,35.4345703125 18.1494140625,31.845703125 18.80859375,27.3046875 18.10546875,22.6904296875 16.0693359375,18.8818359375 12.7734375,16.3037109375 10.6787099838257,15.5896015167236 8.3203125,15.3515625 6.2548828125,15.498046875 4.04296875,15.9375 1.875,16.669921875 0,17.6953125 0,12.7734375 2.98828125,11.8505859375 6.50390625,11.3671875 6.50390625,4.21875 2.40234375,4.21875 2.40234375,0z" />
    </g>
  </g>
</svg>