<?xml version="1.0" encoding="utf-8"?>
<!DOCTYPE svg PUBLIC "-//W3C//DTD SVG 1.1//EN" "http://www.w3.org/Graphics/SVG/1.1/DTD/svg11.dtd">
<svg width="56.953125" height="43.41796875" xmlns="http://www.w3.org/2000/svg" xmlns:xlink="http://www.w3.org/1999/xlink" xmlns:xml="http://www.w3.org/XML/1998/namespace" version="1.1">
  <g>
    <g>
      <path style="fill:#FF0000;fill-opacity:1" d="M36.09375,0L40.7080078125,0.443115234375 44.82421875,1.7724609375 48.3984336853027,3.8525390625 51.38671875,6.5478515625 53.7670860290527,9.78515720367432 55.517578125,13.4912109375 56.5942344665527,17.5305194854736 56.953125,21.767578125 56.6711387634277,26.06689453125 55.8251953125,30.1171875 54.4006309509277,33.80126953125 52.3828125,37.001953125 49.7570762634277,39.6533203125 46.5087890625,41.689453125 42.623291015625,42.98583984375 38.0859375,43.41796875 34.991455078125,43.16162109375 32.1533203125,42.392578125 29.608154296875,41.162109375 27.392578125,39.521484375 24.9865703582764,41.162109375 22.2216796875,42.392578125 19.075927734375,43.16162109375 15.52734375,43.41796875 12.2644033432007,43.128662109375 9.2724609375,42.2607421875 6.61376953125,40.880126953125 4.35058641433716,39.052734375 2.515869140625,36.8115234375 1.14257836341858,34.189453125 0.285644561052322,31.25244140625 0,28.06640625 0.274658173322678,24.64599609375 1.09863257408142,21.533203125 2.427978515625,18.7866230010986 4.21875,16.46484375 6.45263671875,14.5898456573486 9.111328125,13.18359375 12.1582021713257,12.3046894073486 15.556640625,12.01171875 15.556640625,16.34765625 13.2861328125,16.5637226104736 11.220703125,17.2119140625 7.8515625,19.5849609375 5.68359375,23.1298828125 5.11230421066284,25.250244140625 4.92187452316284,27.5390625 5.595703125,31.962890625 7.6171875,35.6103515625 10.9716796875,38.0859375 13.143310546875,38.76708984375 15.64453125,38.994140625 18.299560546875,38.785400390625 20.6396484375,38.1591796875 24.462890625,35.80078125 23.0419921875,32.16796875 22.55859375,28.06640625 22.8332500457764,24.64599609375 23.6572265625,21.533203125 24.9902324676514,18.7866230010986 26.7919921875,16.46484375 29.036865234375,14.5898456573486 31.69921875,13.18359375 34.74609375,12.3046894073486 38.14453125,12.01171875 41.8359375,12.3779315948486 45.1171875,13.4765625 45.1171875,18.3984375 41.6455078125,16.6406269073486 37.96875,16.0546875 35.701904296875,16.2817401885986 33.6474609375,16.962890625 30.3369140625,19.4384765625 28.2275390625,23.0859375 27.48046875,27.5390625 28.154296875,31.962890625 30.17578125,35.6103515625 33.5302734375,38.0859375 35.701904296875,38.76708984375 38.203125,38.994140625 41.458740234375,38.66455078125 44.2529296875,37.67578125 46.5930137634277,36.123046875 48.486328125,34.1015625 49.9438438415527,31.658935546875 50.9765625,28.8427734375 51.5917930603027,25.740966796875 51.796875,22.44140625 51.5405235290527,18.856201171875 50.771484375,15.4833984375 49.5007286071777,12.4182147979736 47.7392578125,9.755859375 45.5017051696777,7.554931640625 42.802734375,5.8740234375 39.66064453125,4.808349609375 36.09375,4.453125 36.09375,0z" />
    </g>
  </g>
</svg>