<?xml version="1.0" encoding="utf-8"?>
<!DOCTYPE svg PUBLIC "-//W3C//DTD SVG 1.1//EN" "http://www.w3.org/Graphics/SVG/1.1/DTD/svg11.dtd">
<svg width="33.28125" height="42.71484375" xmlns="http://www.w3.org/2000/svg" xmlns:xlink="http://www.w3.org/1999/xlink" xmlns:xml="http://www.w3.org/XML/1998/namespace" version="1.1">
  <g>
    <g>
      <path style="fill:#FF0000;fill-opacity:1" d="M24.2578125,0L24.2578125,4.423828125 21.9177227020264,4.625244140625 19.5849609375,5.2294921875 15.1318359375,7.5439453125 11.19140625,11.2060546875 8.02734375,16.0400390625 5.91796875,21.8701171875 5.3466796875,25.111083984375 5.15625,28.53515625 5.7421875,32.0947265625 6.52587890625,33.74267578125 7.705078125,35.2001953125 9.31640625,36.434326171875 11.396484375,37.412109375 14.00390625,38.04931640625 17.197265625,38.26171875 24.2578125,38.26171875 24.2578125,31.11328125 20.15625,31.11328125 20.15625,26.89453125 33.28125,26.89453125 33.28125,31.11328125 29.1796875,31.11328125 29.1796875,42.71484375 17.197265625,42.71484375 13.070068359375,42.454833984375 9.5361328125,41.6748046875 6.5771484375,40.4296875 4.1748046875,38.7744140625 2.32543969154358,36.727294921875 1.025390625,34.306640625 0.256347835063934,31.56005859375 0,28.53515625 0.223388850688934,24.6533203125 0.8935546875,20.91796875 3.38378977775574,14.0771484375 7.2216796875,8.3056640625 12.158203125,3.8671875 14.94873046875,2.230224609375 17.9296875,1.0107421875 21.0498046875,0.252685546875 24.2578125,0z" />
    </g>
  </g>
</svg>