<?xml version="1.0" encoding="utf-8"?>
<!DOCTYPE svg PUBLIC "-//W3C//DTD SVG 1.1//EN" "http://www.w3.org/Graphics/SVG/1.1/DTD/svg11.dtd">
<svg width="38.61328125" height="43.681640625" xmlns="http://www.w3.org/2000/svg" xmlns:xlink="http://www.w3.org/1999/xlink" xmlns:xml="http://www.w3.org/XML/1998/namespace" version="1.1">
  <g>
    <g>
      <path style="fill:#FF0000;fill-opacity:1" d="M12.158203125,0L17.16796875,0 22.08984375,16.46484375 37.236328125,16.46484375 37.177734375,17.724609375 37.5146484375,21.2109375 38.61328125,24.462890625 34.16015625,26.279296875 33.0908203125,23.583984375 32.4609375,20.68359375 23.349609375,20.68359375 30.205078125,43.681640625 25.224609375,43.681640625 16.787109375,15.52734375 13.736572265625,17.3071308135986 11.2060546875,19.599609375 9.15527248382568,22.393798828125 7.5439453125,25.6787109375 6.346435546875,29.454345703125 5.537109375,33.720703125 5.07568359375,38.466796875 4.921875,43.681640625 0,43.681640625 0.252685576677322,37.08251953125 1.01074242591858,31.34765625 2.25952172279358,26.396484375 3.98437523841858,22.1484375 6.185302734375,18.5705585479736 8.8623046875,15.6298828125 11.993408203125,13.2531757354736 15.556640625,11.3671875 12.158203125,0z" />
    </g>
  </g>
</svg>