<?xml version="1.0" encoding="utf-8"?>
<!DOCTYPE svg PUBLIC "-//W3C//DTD SVG 1.1//EN" "http://www.w3.org/Graphics/SVG/1.1/DTD/svg11.dtd">
<svg width="34.1015625000002" height="46.2890625" xmlns="http://www.w3.org/2000/svg" xmlns:xlink="http://www.w3.org/1999/xlink" xmlns:xml="http://www.w3.org/XML/1998/namespace" version="1.1">
  <g>
    <g>
      <path style="fill:#FF0000;fill-opacity:1" d="M19.51171875,22.939453125L19.51171875,32.138671875 22.734375,32.138671875 25.7592754364014,31.849365234375 27.802734375,30.9814453125 28.96728515625,29.534912109375 29.35546875,27.509765625 28.9599609375,25.455322265625 27.7734375,24.0380859375 25.7446269989014,23.214111328125 22.822265625,22.939453125 19.51171875,22.939453125z M11.3671875,22.939453125L8.34228515625,23.228759765625 6.298828125,24.0966796875 5.13427686691284,25.543212890625 4.74609375,27.568359375 5.14160108566284,29.622802734375 6.328125,31.0400390625 8.35693359375,31.864013671875 11.279296875,32.138671875 14.58984375,32.138671875 14.58984375,22.939453125 11.3671875,22.939453125z M17.255859375,4.39453125L14.8974609375,4.647216796875 13.330078125,5.4052734375 12.4511709213257,6.602783203125 12.158203125,8.173828125 12.5390625,10.01953125 13.5205078125,11.2646484375 14.8681640625,12.1728515625 16.376953125,13.0078125 19.4091796875,12.1728515625 21.1962890625,11.0888671875 22.03125,9.78515625 22.236328125,8.3203125 21.9506816864014,6.62109375 21.09375,5.390625 19.56298828125,4.6435546875 17.255859375,4.39453125z M17.431640625,0L19.962158203125,0.157470703125 22.0458984375,0.6298828125 25.048828125,2.34375 26.6748046875,4.892578125 27.158203125,8.02734375 26.6638164520264,11.12548828125 25.1806640625,13.447265625 22.6794414520264,15.1025409698486 19.130859375,16.201171875 19.51171875,18.720703125 23.173828125,18.720703125 25.8123779296875,18.8525409698486 28.07373046875,19.2480487823486 29.9578857421875,19.9072284698486 31.46484375,20.830078125 33.4423828125,23.49609375 34.1015625,27.275390625 33.394775390625,31.23046875 31.2744140625,34.072265625 29.6676635742188,35.072021484375 27.674560546875,35.7861328125 25.2951049804688,36.214599609375 22.529296875,36.357421875 19.51171875,36.357421875 19.51171875,46.2890625 14.58984375,46.2890625 14.58984375,36.357421875 10.927734375,36.357421875 8.2891845703125,36.2255859375 6.02783155441284,35.830078125 4.14367628097534,35.1708984375 2.63671803474426,34.248046875 0.659179329872131,31.58203125 0,27.802734375 0.706786811351776,23.84765625 2.82714819908142,21.005859375 4.43389844894409,20.0061054229736 6.42700147628784,19.2919940948486 8.80645751953125,18.8635272979736 11.572265625,18.720703125 14.6484375,18.720703125 14.1064453125,17.34375 12.7294921875,16.2744140625 10.9423828125,15.1904296875 9.1552734375,13.740234375 7.7783203125,11.572265625 7.236328125,8.349609375 7.869873046875,4.779052734375 9.7705078125,2.15331983566284 12.952880859375,0.538330018520355 17.431640625,0z" />
    </g>
  </g>
</svg>