<?xml version="1.0" encoding="utf-8"?>
<!DOCTYPE svg PUBLIC "-//W3C//DTD SVG 1.1//EN" "http://www.w3.org/Graphics/SVG/1.1/DTD/svg11.dtd">
<svg width="46.5820312500001" height="43.681640625" xmlns="http://www.w3.org/2000/svg" xmlns:xlink="http://www.w3.org/1999/xlink" xmlns:xml="http://www.w3.org/XML/1998/namespace" version="1.1">
  <g>
    <g>
      <path style="fill:#FF0000;fill-opacity:1" d="M38.349609375,20.625L36.70166015625,20.80078125 35.625,21.328125 35.03173828125,22.1923828125 34.833984375,23.37890625 35.035400390625,24.627685546875 35.6396484375,25.5029296875 36.727294921875,26.019287109375 38.37890625,26.19140625 40.02685546875,26.015625 41.103515625,25.48828125 41.69677734375,24.6240234375 41.89453125,23.4375 41.693115234375,22.188720703125 41.0888671875,21.3134765625 40.001220703125,20.797119140625 38.349609375,20.625z M12.158203125,0L17.16796875,0 22.060546875,16.46484375 38.291015625,16.46484375 42.01904296875,16.8896503448486 44.58984375,18.1640625 46.0839805603027,20.29541015625 46.58203125,23.291015625 46.0839805603027,26.370849609375 44.58984375,28.5791015625 42.03369140625,29.908447265625 38.349609375,30.3515625 34.4970703125,29.853515625 31.9775390625,28.4765625 30.615234375,26.42578125 30.205078125,23.90625 30.3515625,22.32421875 30.87890625,20.68359375 23.3203125,20.68359375 30.205078125,43.681640625 25.224609375,43.681640625 16.787109375,15.52734375 13.736572265625,17.3071308135986 11.2060546875,19.599609375 9.15527248382568,22.393798828125 7.5439453125,25.6787109375 6.346435546875,29.454345703125 5.537109375,33.720703125 5.07568359375,38.466796875 4.921875,43.681640625 0,43.681640625 0.252685368061066,37.08251953125 1.0107421875,31.34765625 2.259521484375,26.396484375 3.984375,22.1484375 6.185302734375,18.5705585479736 8.8623046875,15.6298828125 11.993408203125,13.2531757354736 15.556640625,11.3671875 12.158203125,0z" />
    </g>
  </g>
</svg>