<?xml version="1.0" encoding="utf-8"?>
<!DOCTYPE svg PUBLIC "-//W3C//DTD SVG 1.1//EN" "http://www.w3.org/Graphics/SVG/1.1/DTD/svg11.dtd">
<svg width="40.5175781250001" height="44.94140625" xmlns="http://www.w3.org/2000/svg" xmlns:xlink="http://www.w3.org/1999/xlink" xmlns:xml="http://www.w3.org/XML/1998/namespace" version="1.1">
  <g>
    <g>
      <path style="fill:#FF0000;fill-opacity:1" d="M32.28515625,34.775390625L30.63720703125,34.951171875 29.560546875,35.478515625 28.96728515625,36.3427734375 28.76953125,37.529296875 28.970947265625,38.778076171875 29.5751953125,39.6533203125 30.662841796875,40.169677734375 32.314453125,40.341796875 33.96240234375,40.166015625 35.0390625,39.638671875 35.63232421875,38.7744140625 35.830078125,37.587890625 35.628662109375,36.339111328125 35.0244140625,35.4638671875 33.936767578125,34.947509765625 32.28515625,34.775390625z M19.51171875,13.125L19.51171875,22.32421875 22.734375,22.32421875 25.7592754364014,22.034912109375 27.802734375,21.1669921875 28.96728515625,19.7277851104736 29.35546875,17.724609375 28.9599609375,15.6481952667236 27.7734375,14.2236328125 25.7446269989014,13.3996601104736 22.822265625,13.125 19.51171875,13.125z M11.3671875,13.125L8.34228515625,13.4143085479736 6.298828125,14.2822265625 5.13427734375,15.7214374542236 4.74609375,17.724609375 5.1416015625,19.8010272979736 6.328125,21.2255859375 8.35693359375,22.049560546875 11.279296875,22.32421875 14.58984375,22.32421875 14.58984375,13.125 11.3671875,13.125z M14.58984375,0L19.51171875,0 19.51171875,8.90625 23.173828125,8.90625 28.055419921875,9.43359375 31.4501953125,11.015625 33.438720703125,13.6669931411743 34.1015625,17.40234375 33.394775390625,21.4013671875 31.2744140625,24.2578125 29.6676635742188,25.257568359375 27.674560546875,25.9716796875 25.2951049804688,26.400146484375 22.529296875,26.54296875 19.51171875,26.54296875 19.51171875,30.615234375 32.2265625,30.615234375 35.95458984375,31.0400390625 38.525390625,32.314453125 40.01953125,34.44580078125 40.517578125,37.44140625 40.01953125,40.521240234375 38.525390625,42.7294921875 35.96923828125,44.058837890625 32.28515625,44.501953125 28.4326171875,44.00390625 25.9130859375,42.626953125 24.55078125,40.576171875 24.140625,38.056640625 24.287109375,36.474609375 24.755859375,34.833984375 19.51171875,34.833984375 19.51171875,44.94140625 14.58984375,44.94140625 14.58984375,26.54296875 10.927734375,26.54296875 6.046142578125,26.015625 2.65136766433716,24.43359375 0.662841796875,21.7822265625 0,18.046875 0.70678699016571,14.0478525161743 2.8271484375,11.19140625 4.43389892578125,10.191650390625 6.427001953125,9.4775390625 8.80645751953125,9.049072265625 11.572265625,8.90625 14.58984375,8.90625 14.58984375,0z" />
    </g>
  </g>
</svg>