<?xml version="1.0" encoding="utf-8"?>
<!DOCTYPE svg PUBLIC "-//W3C//DTD SVG 1.1//EN" "http://www.w3.org/Graphics/SVG/1.1/DTD/svg11.dtd">
<svg width="34.1015625" height="47.607421875" xmlns="http://www.w3.org/2000/svg" xmlns:xlink="http://www.w3.org/1999/xlink" xmlns:xml="http://www.w3.org/XML/1998/namespace" version="1.1">
  <g>
    <g>
      <path style="fill:#FF0000;fill-opacity:1" d="M19.51171875,14.4140625L19.51171875,23.61328125 22.734375,23.61328125 25.7592754364014,23.323974609375 27.802734375,22.4560546875 28.96728515625,21.016845703125 29.35546875,19.013671875 28.9599609375,16.9372577667236 27.7734375,15.5126953125 25.7446269989014,14.6887226104736 22.822265625,14.4140625 19.51171875,14.4140625z M11.3671875,14.4140625L8.34228515625,14.7033710479736 6.298828125,15.5712890625 5.13427734375,17.0104999542236 4.74609375,19.013671875 5.1416015625,21.090087890625 6.328125,22.5146484375 8.35693359375,23.338623046875 11.279296875,23.61328125 14.58984375,23.61328125 14.58984375,14.4140625 11.3671875,14.4140625z M14.58984375,0L19.51171875,0 19.51171875,10.1953125 23.173828125,10.1953125 28.055419921875,10.7226581573486 31.4501953125,12.3046875 33.438720703125,14.9560565948486 34.1015625,18.69140625 33.394775390625,22.6904296875 31.2744140625,25.546875 29.6676635742188,26.546630859375 27.674560546875,27.2607421875 25.2951049804688,27.689208984375 22.529296875,27.83203125 19.51171875,27.83203125 19.51171875,37.79296875 30.703125,37.79296875 30.64453125,39.052734375 30.9814453125,42.5390625 32.080078125,45.791015625 27.626953125,47.607421875 26.5576171875,44.912109375 25.927734375,42.01171875 14.58984375,42.01171875 14.58984375,27.83203125 10.927734375,27.83203125 6.046142578125,27.3046875 2.65136742591858,25.72265625 0.66284191608429,23.0712890625 0,19.3359375 0.70678722858429,15.3369159698486 2.82714867591858,12.48046875 4.43389892578125,11.4807138442993 6.427001953125,10.7666034698486 8.80645751953125,10.3381357192993 11.572265625,10.1953125 14.58984375,10.1953125 14.58984375,0z" />
    </g>
  </g>
</svg>