<?xml version="1.0" encoding="utf-8"?>
<!DOCTYPE svg PUBLIC "-//W3C//DTD SVG 1.1//EN" "http://www.w3.org/Graphics/SVG/1.1/DTD/svg11.dtd">
<svg width="34.1015625000002" height="51.591796875" xmlns="http://www.w3.org/2000/svg" xmlns:xlink="http://www.w3.org/1999/xlink" xmlns:xml="http://www.w3.org/XML/1998/namespace" version="1.1">
  <g>
    <g>
      <path style="fill:#FF0000;fill-opacity:1" d="M19.51171875,19.39453125L19.51171875,28.59375 22.734375,28.59375 25.7592754364014,28.304443359375 27.802734375,27.4365234375 28.96728515625,25.9973163604736 29.35546875,23.994140625 28.9599609375,21.9177265167236 27.7734375,20.4931640625 25.7446269989014,19.669189453125 22.822265625,19.39453125 19.51171875,19.39453125z M11.3671875,19.39453125L8.34228515625,19.683837890625 6.298828125,20.5517578125 5.13427734375,21.9909687042236 4.74609375,23.994140625 5.1416015625,26.0705585479736 6.328125,27.4951171875 8.35693359375,28.319091796875 11.279296875,28.59375 14.58984375,28.59375 14.58984375,19.39453125 11.3671875,19.39453125z M4.775390625,0L5.8447265625,2.69531226158142 6.474609375,5.59570264816284 27.626953125,5.59570264816284 28.2568359375,2.69531226158142 29.326171875,0 33.779296875,1.81640636920929 32.6806640625,5.06835889816284 32.34375,8.5546875 32.40234375,9.814453125 19.51171875,9.814453125 19.51171875,15.17578125 23.173828125,15.17578125 28.055419921875,15.703125 31.4501953125,17.28515625 33.438720703125,19.9365234375 34.1015625,23.671875 33.394775390625,27.6708984375 31.2744140625,30.52734375 29.6676635742188,31.527099609375 27.674560546875,32.2412109375 25.2951049804688,32.669677734375 22.529296875,32.8125 19.51171875,32.8125 19.51171875,37.79296875 29.35546875,37.79296875 29.35546875,51.591796875 24.43359375,51.591796875 24.43359375,41.982421875 7.91015625,41.982421875 7.2802734375,44.8828125 6.2109375,47.578125 1.75781273841858,45.76171875 2.85644507408142,42.5244140625 3.19335865974426,39.052734375 3.13476586341858,37.79296875 14.58984375,37.79296875 14.58984375,32.8125 10.927734375,32.8125 6.046142578125,32.28515625 2.65136647224426,30.703125 0.662841439247131,28.0517578125 0,24.31640625 0.706786870956421,20.3173828125 2.82714867591858,17.4609375 4.43389892578125,16.461181640625 6.427001953125,15.7470703125 8.80645751953125,15.318603515625 11.572265625,15.17578125 14.58984375,15.17578125 14.58984375,9.814453125 1.69921851158142,9.814453125 1.75781273841858,8.5546875 1.42089819908142,5.06835889816284 0.322265386581421,1.81640636920929 4.775390625,0z" />
    </g>
  </g>
</svg>