<?xml version="1.0" encoding="utf-8"?>
<!DOCTYPE svg PUBLIC "-//W3C//DTD SVG 1.1//EN" "http://www.w3.org/Graphics/SVG/1.1/DTD/svg11.dtd">
<svg width="53.408203125" height="42.01171875" xmlns="http://www.w3.org/2000/svg" xmlns:xlink="http://www.w3.org/1999/xlink" xmlns:xml="http://www.w3.org/XML/1998/namespace" version="1.1">
  <g>
    <g>
      <path style="fill:#FF0000;fill-opacity:1" d="M18.6328125,0L23.5546875,0 23.5546875,19.013671875 37.8515625,19.013671875 38.466796875,23.994140625 52.03125,23.994140625 51.97265625,25.25390625 52.3095703125,28.740234375 53.408203125,31.9921875 48.955078125,33.80859375 47.8857421875,31.11328125 47.255859375,28.212890625 38.994140625,28.212890625 40.72265625,42.01171875 35.888671875,42.01171875 33.544921875,23.466796875 23.5546875,23.466796875 23.5546875,42.01171875 18.6328125,42.01171875 18.6328125,23.4375 15.574951171875,23.6572265625 13.0224609375,24.140625 10.9130849838257,24.949951171875 9.1845703125,26.1474609375 7.818603515625,27.755126953125 6.796875,29.794921875 6.064453125,32.3291015625 5.56640625,35.419921875 4.833984375,42.01171875 0,42.01171875 0.8203125,34.6875 1.58569324016571,30.450439453125 2.8271484375,27.0556640625 4.50805616378784,24.385986328125 6.591796875,22.32421875 9.0673828125,20.826416015625 11.923828125,19.8486328125 18.6328125,19.013671875 18.6328125,0z" />
    </g>
  </g>
</svg>