<?xml version="1.0" encoding="utf-8"?>
<!DOCTYPE svg PUBLIC "-//W3C//DTD SVG 1.1//EN" "http://www.w3.org/Graphics/SVG/1.1/DTD/svg11.dtd">
<svg width="34.1015625000002" height="51.416015625" xmlns="http://www.w3.org/2000/svg" xmlns:xlink="http://www.w3.org/1999/xlink" xmlns:xml="http://www.w3.org/XML/1998/namespace" version="1.1">
  <g>
    <g>
      <path style="fill:#FF0000;fill-opacity:1" d="M19.51171875,28.06640625L19.51171875,37.265625 22.734375,37.265625 25.7592754364014,36.976318359375 27.802734375,36.1083984375 28.96728515625,34.669189453125 29.35546875,32.666015625 28.9599609375,30.589599609375 27.7734375,29.1650390625 25.7446269989014,28.341064453125 22.822265625,28.06640625 19.51171875,28.06640625z M11.3671875,28.06640625L8.34228515625,28.355712890625 6.298828125,29.2236328125 5.13427734375,30.662841796875 4.74609375,32.666015625 5.1416015625,34.742431640625 6.328125,36.1669921875 8.35693359375,36.990966796875 11.279296875,37.265625 14.58984375,37.265625 14.58984375,28.06640625 11.3671875,28.06640625z M17.021484375,9.814453125L14.681396484375,10.067138671875 13.1689453125,10.8251953125 12.3449697494507,12.066650390625 12.0703125,13.76953125 12.3522939682007,15.531005859375 13.1982421875,16.7724609375 14.718017578125,17.508544921875 17.021484375,17.75390625 19.368896484375,17.5048828125 20.9033203125,16.7578125 21.7492656707764,15.52001953125 22.03125,13.798828125 21.7419414520264,12.01904296875 20.8740234375,10.78125 19.332275390625,10.05615234375 17.021484375,9.814453125z M4.775390625,0L5.8447265625,2.69531273841858 6.474609375,5.595703125 27.626953125,5.595703125 28.2568359375,2.69531273841858 29.326171875,0 33.779296875,1.81640589237213 32.6806640625,5.068359375 32.34375,8.5546875 32.40234375,9.814453125 25.751953125,9.814453125 26.6748046875,11.748046875 26.953125,14.00390625 26.4916973114014,17.05078125 25.107421875,19.39453125 22.7856426239014,21.0131855010986 19.51171875,21.884765625 19.51171875,23.84765625 23.173828125,23.84765625 28.055419921875,24.3750019073486 31.4501953125,25.95703125 33.438720703125,28.6083984375 34.1015625,32.34375 33.394775390625,36.3427734375 31.2744140625,39.19921875 29.6676635742188,40.198974609375 27.674560546875,40.9130859375 25.2951049804688,41.341552734375 22.529296875,41.484375 19.51171875,41.484375 19.51171875,51.416015625 14.58984375,51.416015625 14.58984375,41.484375 10.927734375,41.484375 6.04614210128784,40.95703125 2.65136694908142,39.375 0.662841498851776,36.7236328125 0,32.98828125 0.706786811351776,28.9892578125 2.82714819908142,26.1328125 4.43389892578125,25.1330585479736 6.427001953125,24.4189472198486 8.80645751953125,23.9904804229736 11.572265625,23.84765625 14.58984375,23.84765625 14.58984375,21.9140625 11.1474609375,21.0205078125 8.84765625,19.3798828125 7.55859375,17.109375 7.1484375,14.296875 7.4560546875,11.8505859375 8.466796875,9.814453125 1.69921803474426,9.814453125 1.75781226158142,8.5546875 1.42089819908142,5.068359375 0.322265386581421,1.81640589237213 4.775390625,0z" />
    </g>
  </g>
</svg>