<?xml version="1.0" encoding="utf-8"?>
<!DOCTYPE svg PUBLIC "-//W3C//DTD SVG 1.1//EN" "http://www.w3.org/Graphics/SVG/1.1/DTD/svg11.dtd">
<svg width="51.591796875" height="40.986328125" xmlns="http://www.w3.org/2000/svg" xmlns:xlink="http://www.w3.org/1999/xlink" xmlns:xml="http://www.w3.org/XML/1998/namespace" version="1.1">
  <g>
    <g>
      <path style="fill:#FF0000;fill-opacity:1" d="M35.390625,4.423828125L35.390625,16.875 46.640625,16.875 46.69921875,14.47265625 46.4758262634277,11.5209980010986 45.8056640625,9.228515625 44.7509727478027,7.49267578125 43.3740234375,6.2109375 39.78515625,4.8193359375 35.390625,4.423828125z M17.2265625,4.423828125L12.48046875,4.8486328125 10.3967275619507,5.416259765625 8.5986328125,6.38671875 7.119140625,7.818603515625 5.9912109375,9.7705078125 5.277099609375,12.3596210479736 5.0390625,15.703125 5.068359375,17.0361328125 5.185546875,18.45703125 17.2265625,18.45703125 17.2265625,4.423828125z M18.544921875,0L33.92578125,0 38.4375,0.1904296875 42.59765625,0.9375 46.2158203125,2.548828125 49.0576171875,5.3173828125 50.1159629821777,7.225341796875 50.91796875,9.521484375 51.4233360290527,12.2534198760986 51.591796875,15.46875 51.474609375,18.193359375 51.123046875,21.240234375 30.380859375,21.240234375 30.380859375,4.423828125 21.943359375,4.423828125 21.943359375,40.986328125 17.2265625,40.986328125 17.2265625,22.822265625 0.46875,22.822265625 0.117187976837158,19.51171875 0,16.552734375 0.179443299770355,13.1433124542236 0.717772960662842,10.2392578125 1.57470703125,7.79296875 2.70996141433716,5.7568359375 5.7275390625,2.783203125 9.5361328125,1.025390625 13.88671875,0.205078125 18.544921875,0z" />
    </g>
  </g>
</svg>