<?xml version="1.0" encoding="utf-8"?>
<!DOCTYPE svg PUBLIC "-//W3C//DTD SVG 1.1//EN" "http://www.w3.org/Graphics/SVG/1.1/DTD/svg11.dtd">
<svg width="34.1015625" height="47.607421875" xmlns="http://www.w3.org/2000/svg" xmlns:xlink="http://www.w3.org/1999/xlink" xmlns:xml="http://www.w3.org/XML/1998/namespace" version="1.1">
  <g>
    <g>
      <path style="fill:#FF0000;fill-opacity:1" d="M19.51171875,20.009765625L19.51171875,29.208984375 22.734375,29.208984375 25.7592754364014,28.919677734375 27.802734375,28.0517578125 28.96728515625,26.612548828125 29.35546875,24.609375 28.9599609375,22.5329608917236 27.7734375,21.1083984375 25.7446269989014,20.2844257354736 22.822265625,20.009765625 19.51171875,20.009765625z M11.3671875,20.009765625L8.34228515625,20.2990741729736 6.298828125,21.1669921875 5.13427734375,22.6062030792236 4.74609375,24.609375 5.1416015625,26.685791015625 6.328125,28.1103515625 8.35693359375,28.934326171875 11.279296875,29.208984375 14.58984375,29.208984375 14.58984375,20.009765625 11.3671875,20.009765625z M7.119140625,0L8.1884765625,2.6953125 8.818359375,5.595703125 19.51171875,5.595703125 19.51171875,15.791015625 23.173828125,15.791015625 28.055419921875,16.3183612823486 31.4501953125,17.900390625 33.438720703125,20.5517597198486 34.1015625,24.287109375 33.394775390625,28.2861328125 31.2744140625,31.142578125 29.6676635742188,32.142333984375 27.674560546875,32.8564453125 25.2951049804688,33.284912109375 22.529296875,33.427734375 19.51171875,33.427734375 19.51171875,47.607421875 14.58984375,47.607421875 14.58984375,33.427734375 10.927734375,33.427734375 6.046142578125,32.900390625 2.65136742591858,31.318359375 0.66284191608429,28.6669921875 0,24.931640625 0.70678722858429,20.9326190948486 2.82714867591858,18.076171875 4.43389892578125,17.0764179229736 6.427001953125,16.3623065948486 8.80645751953125,15.9338388442993 11.572265625,15.791015625 14.58984375,15.791015625 14.58984375,9.814453125 4.04296875,9.814453125 4.1015625,8.5546875 3.76464867591858,5.068359375 2.66601634025574,1.81640625 7.119140625,0z" />
    </g>
  </g>
</svg>