<?xml version="1.0" encoding="utf-8"?>
<!DOCTYPE svg PUBLIC "-//W3C//DTD SVG 1.1//EN" "http://www.w3.org/Graphics/SVG/1.1/DTD/svg11.dtd">
<svg width="56.3964843750001" height="51.591796875" xmlns="http://www.w3.org/2000/svg" xmlns:xlink="http://www.w3.org/1999/xlink" xmlns:xml="http://www.w3.org/XML/1998/namespace" version="1.1">
  <g>
    <g>
      <path style="fill:#FF0000;fill-opacity:1" d="M19.51171875,23.994140625L19.51171875,33.193359375 22.734375,33.193359375 25.7592754364014,32.904052734375 27.802734375,32.0361328125 28.96728515625,30.596923828125 29.35546875,28.59375 28.9599609375,26.5173358917236 27.7734375,25.0927734375 25.7446269989014,24.2688007354736 22.822265625,23.994140625 19.51171875,23.994140625z M11.3671875,23.994140625L8.34228515625,24.2834491729736 6.298828125,25.1513671875 5.13427734375,26.5905780792236 4.74609375,28.59375 5.1416015625,30.670166015625 6.328125,32.0947265625 8.35693359375,32.918701171875 11.279296875,33.193359375 14.58984375,33.193359375 14.58984375,23.994140625 11.3671875,23.994140625z M4.775390625,0L5.8447265625,2.69531273841858 6.474609375,5.595703125 27.626953125,5.595703125 28.2568359375,2.69531273841858 29.326171875,0 33.779296875,1.81640684604645 32.6806640625,5.06836032867432 32.34375,8.5546875 32.40234375,9.814453125 19.51171875,9.814453125 19.51171875,19.775390625 23.173828125,19.775390625 26.9567852020264,20.0610370635986 29.8681640625,20.91796875 31.981201171875,22.3535175323486 33.369140625,24.375 40.166015625,24.375 40.166015625,19.1015625 45.087890625,19.1015625 45.087890625,29.267578125 55.01953125,29.267578125 54.9609375,30.52734375 55.2978515625,34.013671875 56.396484375,37.265625 51.85546875,39.08203125 50.7861328125,36.38671875 50.15625,33.486328125 40.166015625,33.486328125 40.166015625,28.59375 34.1015625,28.59375 33.292236328125,32.4609375 31.1572265625,35.21484375 29.5687866210938,36.1761474609375 27.601318359375,36.86279296875 25.2548217773438,37.2747802734375 22.529296875,37.412109375 19.51171875,37.412109375 19.51171875,51.591796875 14.58984375,51.591796875 14.58984375,37.412109375 10.927734375,37.412109375 6.046142578125,36.884765625 2.6513671875,35.302734375 0.66284167766571,32.6513671875 0,28.916015625 0.706787109375,24.9169940948486 2.82714891433716,22.060546875 4.43389892578125,21.0607929229736 6.427001953125,20.3466815948486 8.80645751953125,19.9182147979736 11.572265625,19.775390625 14.58984375,19.775390625 14.58984375,9.814453125 1.69921827316284,9.814453125 1.7578125,8.5546875 1.4208984375,5.06836032867432 0.322265386581421,1.81640684604645 4.775390625,0z" />
    </g>
  </g>
</svg>