<?xml version="1.0" encoding="utf-8"?>
<!DOCTYPE svg PUBLIC "-//W3C//DTD SVG 1.1//EN" "http://www.w3.org/Graphics/SVG/1.1/DTD/svg11.dtd">
<svg width="43.59375" height="53.203125" xmlns="http://www.w3.org/2000/svg" xmlns:xlink="http://www.w3.org/1999/xlink" xmlns:xml="http://www.w3.org/XML/1998/namespace" version="1.1">
  <g>
    <g>
      <path style="fill:#FF0000;fill-opacity:1" d="M12.59765625,0L13.6669921875,2.6953125 14.296875,5.595703125 35.478515625,5.595703125 36.1083984375,2.6953125 37.177734375,0 41.630859375,1.81640672683716 40.5322265625,5.068359375 40.1953125,8.5546875 40.25390625,9.814453125 27.36328125,9.814453125 27.36328125,20.390625 42.216796875,20.390625 42.158203125,21.650390625 42.4951171875,25.13671875 43.59375,28.388671875 39.140625,30.205078125 38.0712890625,27.509765625 37.44140625,24.609375 27.333984375,24.609375 27.041015625,30.6005859375 26.015625,35.2294921875 23.876953125,38.6865234375 22.2766094207764,40.023193359375 20.2294921875,41.1328125 17.706298828125,42.037353515625 14.677734375,42.7587890625 11.0742177963257,43.319091796875 6.826171875,43.740234375 6.4892578125,46.845703125 5.9765625,49.2919921875 5.302734375,51.328125 4.45312547683716,53.203125 0,51.38671875 1.58203125,46.611328125 2.05078172683716,41.455078125 1.9921875,39.521484375 6.317138671875,39.2578125 9.9755859375,38.935546875 13.037109375,38.514404296875 15.5712890625,37.9541015625 17.611083984375,37.232666015625 19.189453125,36.328125 21.240234375,33.75 22.177734375,29.94140625 22.3608379364014,27.4951171875 22.44140625,24.609375 12.24609375,24.609375 11.6162109375,27.509765625 10.546875,30.205078125 6.09375,28.388671875 7.1923828125,25.13671875 7.529296875,21.650390625 7.470703125,20.390625 22.44140625,20.390625 22.44140625,9.814453125 9.521484375,9.814453125 9.580078125,8.5546875 9.2431640625,5.068359375 8.14453125,1.81640672683716 12.59765625,0z" />
    </g>
  </g>
</svg>