<?xml version="1.0" encoding="utf-8"?>
<!DOCTYPE svg PUBLIC "-//W3C//DTD SVG 1.1//EN" "http://www.w3.org/Graphics/SVG/1.1/DTD/svg11.dtd">
<svg width="54.0527343750001" height="51.591796875" xmlns="http://www.w3.org/2000/svg" xmlns:xlink="http://www.w3.org/1999/xlink" xmlns:xml="http://www.w3.org/XML/1998/namespace" version="1.1">
  <g>
    <g>
      <path style="fill:#FF0000;fill-opacity:1" d="M19.51171875,23.994140625L19.51171875,33.193359375 22.734375,33.193359375 25.7592754364014,32.904052734375 27.802734375,32.0361328125 28.96728515625,30.596923828125 29.35546875,28.59375 28.9599609375,26.5173358917236 27.7734375,25.0927734375 25.7446269989014,24.2688007354736 22.822265625,23.994140625 19.51171875,23.994140625z M11.3671875,23.994140625L8.34228515625,24.2834491729736 6.298828125,25.1513671875 5.13427734375,26.5905780792236 4.74609375,28.59375 5.1416015625,30.670166015625 6.328125,32.0947265625 8.35693359375,32.918701171875 11.279296875,33.193359375 14.58984375,33.193359375 14.58984375,23.994140625 11.3671875,23.994140625z M4.775390625,0L5.8447265625,2.6953125 6.474609375,5.59570360183716 27.626953125,5.59570360183716 28.2568359375,2.6953125 29.326171875,0 33.779296875,1.81640636920929 32.6806640625,5.06835985183716 32.34375,8.5546875 32.40234375,9.814453125 19.51171875,9.814453125 19.51171875,19.775390625 23.173828125,19.775390625 26.9567852020264,20.0610370635986 29.8681640625,20.91796875 31.981201171875,22.3535175323486 33.369140625,24.375 39.287109375,24.375 39.287109375,18.80859375 44.208984375,18.80859375 44.208984375,24.375 52.67578125,24.375 52.6171875,25.634765625 52.9541015625,29.12109375 54.052734375,32.373046875 49.599609375,34.189453125 48.5302734375,31.494140625 47.900390625,28.59375 34.1015625,28.59375 33.292236328125,32.4609375 31.1572265625,35.21484375 29.5687866210938,36.1761474609375 27.601318359375,36.86279296875 25.2548217773438,37.2747802734375 22.529296875,37.412109375 19.51171875,37.412109375 19.51171875,51.591796875 14.58984375,51.591796875 14.58984375,37.412109375 10.927734375,37.412109375 6.046142578125,36.884765625 2.6513671875,35.302734375 0.66284167766571,32.6513671875 0,28.916015625 0.70678699016571,24.9169940948486 2.8271484375,22.060546875 4.43389892578125,21.0607929229736 6.427001953125,20.3466815948486 8.80645751953125,19.9182147979736 11.572265625,19.775390625 14.58984375,19.775390625 14.58984375,9.814453125 1.69921827316284,9.814453125 1.7578125,8.5546875 1.42089796066284,5.06835985183716 0.322265625,1.81640636920929 4.775390625,0z" />
    </g>
  </g>
</svg>