<?xml version="1.0" encoding="utf-8"?>
<!DOCTYPE svg PUBLIC "-//W3C//DTD SVG 1.1//EN" "http://www.w3.org/Graphics/SVG/1.1/DTD/svg11.dtd">
<svg width="39.78515625" height="47.607421875" xmlns="http://www.w3.org/2000/svg" xmlns:xlink="http://www.w3.org/1999/xlink" xmlns:xml="http://www.w3.org/XML/1998/namespace" version="1.1">
  <g>
    <g>
      <path style="fill:#FF0000;fill-opacity:1" d="M4.716796875,0L9.638671875,0 9.638671875,9.931640625 18.3984375,9.931640625 15.439453125,14.5458984375 12.83203125,19.013671875 22.3828125,19.013671875 26.953125,37.79296875 38.408203125,37.79296875 38.349609375,39.052734375 38.6865234375,42.5390625 39.78515625,45.791015625 35.33203125,47.607421875 34.2626953125,44.912109375 33.6328125,42.01171875 23.056640625,42.01171875 18.486328125,23.3203125 10.60546875,23.3203125 8.558349609375,28.00048828125 6.9287109375,32.607421875 5.716552734375,37.24365234375 4.921875,42.01171875 0,42.01171875 1.48681664466858,34.617919921875 3.77929759025574,27.5537109375 6.81884765625,20.782470703125 10.546875,14.267578125 4.716796875,14.267578125 4.716796875,0z" />
    </g>
  </g>
</svg>