<?xml version="1.0" encoding="utf-8"?>
<!DOCTYPE svg PUBLIC "-//W3C//DTD SVG 1.1//EN" "http://www.w3.org/Graphics/SVG/1.1/DTD/svg11.dtd">
<svg width="42.12890625" height="42.71484375" xmlns="http://www.w3.org/2000/svg" xmlns:xlink="http://www.w3.org/1999/xlink" xmlns:xml="http://www.w3.org/XML/1998/namespace" version="1.1">
  <g>
    <g>
      <path style="fill:#FF0000;fill-opacity:1" d="M29.208984375,0L32.2311401367188,0.245361328125 34.852294921875,0.9814453125 37.0724487304688,2.208251953125 38.8916015625,3.92578125 40.3079223632813,6.1614990234375 41.319580078125,8.94287109375 41.9265747070313,12.2698974609375 42.12890625,16.142578125 42.12890625,42.71484375 37.20703125,42.71484375 37.20703125,16.46484375 37.0751953125,13.5543832778931 36.6796875,11.0632333755493 36.0205078125,8.99139404296875 35.09765625,7.3388671875 32.4609375,5.174560546875 28.76953125,4.453125 25.2062969207764,5.14892578125 22.6611328125,7.236328125 21.7703247070313,8.829345703125 21.134033203125,10.8251962661743 20.7522583007813,13.2238779067993 20.625,16.025390625 20.625,42.71484375 15.703125,42.71484375 15.703125,19.716796875 6.15234375,19.716796875 5.5224609375,22.6171875 4.453125,25.3125 0,23.49609375 1.0986328125,20.244140625 1.43554735183716,16.7578125 1.37695360183716,15.498046875 15.732421875,15.498046875 16.0464477539063,11.788330078125 16.754150390625,8.5986328125 17.8555297851563,5.928955078125 19.3505859375,3.779296875 21.2356548309326,2.1258544921875 23.5070781707764,0.94482421875 26.1648540496826,0.2362060546875 29.208984375,0z" />
    </g>
  </g>
</svg>