<?xml version="1.0" encoding="utf-8"?>
<!DOCTYPE svg PUBLIC "-//W3C//DTD SVG 1.1//EN" "http://www.w3.org/Graphics/SVG/1.1/DTD/svg11.dtd">
<svg width="28.916015625001" height="42.01171875" xmlns="http://www.w3.org/2000/svg" xmlns:xlink="http://www.w3.org/1999/xlink" xmlns:xml="http://www.w3.org/XML/1998/namespace" version="1.1">
  <g>
    <g>
      <path style="fill:#FF0000;fill-opacity:1" d="M22.67578125,0L27.5390625,0 27.48046875,1.318359375 27.8173828125,4.8046875 28.916015625,8.056640625 24.462890625,9.873046875 23.3935546875,7.20703125 22.763671875,4.3359375 20.7421875,4.3359375 16.77978515625,4.46044921875 13.447265625,4.833984375 10.7080068588257,5.52978515625 8.525390625,6.62109375 6.87744140625,8.13720703125 5.7421875,10.107421875 5.0830078125,12.5976581573486 4.86328125,15.673828125 5.0390625,19.189453125 18.662109375,19.189453125 18.662109375,42.01171875 13.740234375,42.01171875 13.740234375,23.49609375 0.498046636581421,23.49609375 0.131836175918579,20.2294921875 0,17.05078125 0.212402164936066,13.3081073760986 0.849609375,10.166015625 1.86767578125,7.562255859375 3.22265625,5.4345703125 4.892578125,3.746337890625 6.85546875,2.4609375 11.484375,0.8349609375 16.845703125,0.146484375 22.67578125,0z" />
    </g>
  </g>
</svg>