<?xml version="1.0" encoding="utf-8"?>
<!DOCTYPE svg PUBLIC "-//W3C//DTD SVG 1.1//EN" "http://www.w3.org/Graphics/SVG/1.1/DTD/svg11.dtd">
<svg width="50.595703125" height="42.01171875" xmlns="http://www.w3.org/2000/svg" xmlns:xlink="http://www.w3.org/1999/xlink" xmlns:xml="http://www.w3.org/XML/1998/namespace" version="1.1">
  <g>
    <g>
      <path style="fill:#FF0000;fill-opacity:1" d="M12.94921875,0L17.87109375,0 17.87109375,9.931640625 29.091796875,9.931640625 27.041015625,19.39453125 34.365234375,19.39453125 34.365234375,14.12109375 39.287109375,14.12109375 39.287109375,24.287109375 49.21875,24.287109375 49.16015625,25.546875 49.4970703125,29.033203125 50.595703125,32.28515625 46.0546875,34.1015625 44.9853515625,31.40625 44.35546875,28.505859375 34.365234375,28.505859375 34.365234375,23.61328125 26.103515625,23.61328125 22.119140625,42.01171875 17.197265625,42.01171875 23.232421875,14.267578125 12.94921875,14.267578125 12.94921875,9.43359375 6.15234375,9.43359375 5.5224609375,12.333984375 4.45312547683716,15.029296875 0,13.212890625 1.0986328125,9.9609375 1.435546875,6.474609375 1.376953125,5.21484375 12.94921875,5.21484375 12.94921875,0z" />
    </g>
  </g>
</svg>