<?xml version="1.0" encoding="utf-8"?>
<!DOCTYPE svg PUBLIC "-//W3C//DTD SVG 1.1//EN" "http://www.w3.org/Graphics/SVG/1.1/DTD/svg11.dtd">
<svg width="27.392578125" height="45.99609375" xmlns="http://www.w3.org/2000/svg" xmlns:xlink="http://www.w3.org/1999/xlink" xmlns:xml="http://www.w3.org/XML/1998/namespace" version="1.1">
  <g>
    <g>
      <path style="fill:#FF0000;fill-opacity:1" d="M0,0L4.92187452316284,0 4.92187452316284,13.9453125 6.74194240570068,11.868896484375 9.03808498382568,10.3857421875 11.8103017807007,9.495849609375 15.05859375,9.19921875 17.9434185028076,9.444580078125 20.4455547332764,10.1806640625 22.5650005340576,11.407470703125 24.3017578125,13.125 25.6539916992188,15.3607187271118 26.619873046875,18.1420917510986 27.1994018554688,21.4691181182861 27.392578125,25.341796875 27.392578125,45.99609375 22.470703125,45.99609375 22.470703125,25.6640625 22.3480205535889,22.7536029815674 21.9799785614014,20.2624530792236 21.3665752410889,18.1906147003174 20.5078125,16.5380859375 18.05419921875,14.3737802505493 14.619140625,13.65234375 11.6528310775757,14.1760263442993 9.43359375,15.7470703125 7.94677591323853,18.4460468292236 7.17773389816284,22.353515625 12.59765625,22.353515625 12.59765625,23.84765625 9.609375,28.564453125 8.0712890625,31.171875 7.19238233566284,33.28125 6.78222608566284,35.44921875 6.67968702316284,38.173828125 6.67968702316284,45.99609375 1.7578125,45.99609375 1.7578125,37.822265625 1.84570264816284,35.1708984375 2.22656154632568,32.9150390625 3.06152296066284,30.6884765625 4.48242139816284,28.095703125 7.08984327316284,23.84765625 2.19726514816284,23.84765625 2.69531154632568,19.74609375 3.60351514816284,16.435546875 0,16.435546875 0,0z" />
    </g>
  </g>
</svg>