<?xml version="1.0" encoding="utf-8"?>
<!DOCTYPE svg PUBLIC "-//W3C//DTD SVG 1.1//EN" "http://www.w3.org/Graphics/SVG/1.1/DTD/svg11.dtd">
<svg width="22.646484375" height="42.01171875" xmlns="http://www.w3.org/2000/svg" xmlns:xlink="http://www.w3.org/1999/xlink" xmlns:xml="http://www.w3.org/XML/1998/namespace" version="1.1">
  <g>
    <g>
      <path style="fill:#FF0000;fill-opacity:1" d="M11.25,32.431640625L10.078125,37.79296875 14.0625,37.79296875 15.860595703125,37.62451171875 17.0361328125,37.119140625 17.684326171875,36.2841796875 17.900390625,35.126953125 17.666015625,33.9111328125 16.962890625,33.076171875 15.71044921875,32.5927734375 13.828125,32.431640625 11.25,32.431640625z M0,0L4.92187452316284,0 4.92187452316284,9.931640625 16.142578125,9.931640625 12.158203125,28.212890625 13.916015625,28.212890625 17.8271484375,28.634033203125 20.537109375,29.8974609375 22.1191387176514,32.003173828125 22.646484375,34.951171875 22.0971660614014,38.04931640625 20.44921875,40.25390625 17.62939453125,41.572265625 13.564453125,42.01171875 4.24804639816284,42.01171875 10.283203125,14.267578125 0,14.267578125 0,0z" />
    </g>
  </g>
</svg>