<?xml version="1.0" encoding="utf-8"?>
<!DOCTYPE svg PUBLIC "-//W3C//DTD SVG 1.1//EN" "http://www.w3.org/Graphics/SVG/1.1/DTD/svg11.dtd">
<svg width="32.9882812500175" height="42.802734375" xmlns="http://www.w3.org/2000/svg" xmlns:xlink="http://www.w3.org/1999/xlink" xmlns:xml="http://www.w3.org/XML/1998/namespace" version="1.1">
  <g>
    <g>
      <path style="fill:#FF0000;fill-opacity:1" d="M10.576171875,4.189453125L8.13720607757568,4.464111328125 6.32812452316284,5.2880859375 5.20751905441284,6.793212890625 4.83398389816284,9.111328125 4.92187452316284,13.0078125 5.30273389816284,16.552734375 10.4296875,16.552734375 13.06640625,16.2377948760986 15,15.29296875 16.1865234375,13.6230487823486 16.58203125,11.1328125 16.58203125,9.580078125 16.1572265625,7.060546875 14.94140625,5.4052734375 13.037109375,4.482421875 10.576171875,4.189453125z M10.927734375,0L15.52734375,0.552978515625 18.779296875,2.2119140625 20.7128887176514,5.064697265625 21.357421875,9.19921875 21.357421875,11.54296875 20.6616191864014,15.6811542510986 18.57421875,18.544921875 15.05126953125,20.21484375 10.048828125,20.771484375 6.09374952316284,20.771484375 7.85156202316284,28.4765625 17.05078125,28.4765625 17.05078125,23.7890625 21.97265625,23.7890625 21.97265625,32.98828125 31.611328125,32.98828125 31.552734375,34.248046875 31.8896484375,37.734375 32.98828125,40.986328125 28.447265625,42.802734375 27.3779296875,40.107421875 26.748046875,37.20703125 17.05078125,37.20703125 17.05078125,32.6953125 8.7890625,32.6953125 11.044921875,42.685546875 6.12304639816284,42.685546875 0.908203125,19.453125 0.410155773162842,17.021484375 0.146483898162842,14.8828125 0.0292963981628418,12.5537109375 0,9.580078125 0.677489817142487,5.269775390625 2.70996046066284,2.2998046875 6.11938428878784,0.574951171875 10.927734375,0z" />
    </g>
  </g>
</svg>