<?xml version="1.0" encoding="utf-8"?>
<!DOCTYPE svg PUBLIC "-//W3C//DTD SVG 1.1//EN" "http://www.w3.org/Graphics/SVG/1.1/DTD/svg11.dtd">
<svg width="45.1171875" height="51.416015625" xmlns="http://www.w3.org/2000/svg" xmlns:xlink="http://www.w3.org/1999/xlink" xmlns:xml="http://www.w3.org/XML/1998/namespace" version="1.1">
  <g>
    <g>
      <path style="fill:#FF0000;fill-opacity:1" d="M19.1015625,12.919921875L16.66259765625,13.194580078125 14.853515625,14.0185546875 13.73291015625,15.523681640625 13.359375,17.841796875 13.41796875,21.4453125 13.740234375,24.697265625 18.955078125,24.697265625 21.5917949676514,24.3823261260986 23.525390625,23.4375 24.7119121551514,21.7675800323486 25.107421875,19.27734375 25.107421875,18.310546875 24.6826171875,15.791015625 23.466796875,14.1357421875 21.5625,13.212890625 19.1015625,12.919921875z M16.728515625,0L21.650390625,0 21.650390625,8.84765625 25.2795391082764,9.708251953125 27.8466796875,11.4697265625 29.373779296875,14.190673828125 29.8828125,17.9296875 29.8828125,19.6875 29.18701171875,23.8256855010986 27.099609375,26.689453125 23.5766582489014,28.359375 18.57421875,28.916015625 14.47265625,28.916015625 15.380859375,33.017578125 31.728515625,33.017578125 30.732421875,37.6171875 43.740234375,37.6171875 43.681640625,38.876953125 44.0185546875,42.36328125 45.1171875,45.615234375 40.6640625,47.431640625 39.5947265625,44.736328125 38.96484375,41.8359375 29.82421875,41.8359375 27.744140625,51.416015625 22.822265625,51.416015625 25.869140625,37.236328125 6.15234375,37.236328125 5.5224609375,40.13671875 4.45312547683716,42.83203125 0,41.015625 1.0986328125,37.763671875 1.43554711341858,34.27734375 1.37695288658142,33.017578125 10.517578125,33.017578125 9.43359375,28.18359375 8.935546875,25.751953125 8.671875,23.61328125 8.5546875,21.2841796875 8.525390625,18.310546875 9.034423828125,14.4873046875 10.5615234375,11.689453125 13.121337890625,9.85107421875 16.728515625,8.90625 16.728515625,0z" />
    </g>
  </g>
</svg>