<?xml version="1.0" encoding="utf-8"?>
<!DOCTYPE svg PUBLIC "-//W3C//DTD SVG 1.1//EN" "http://www.w3.org/Graphics/SVG/1.1/DTD/svg11.dtd">
<svg width="31.435546875" height="42.685546875" xmlns="http://www.w3.org/2000/svg" xmlns:xlink="http://www.w3.org/1999/xlink" xmlns:xml="http://www.w3.org/XML/1998/namespace" version="1.1">
  <g>
    <g>
      <path style="fill:#FF0000;fill-opacity:1" d="M23.203125,29.501953125L21.5551738739014,29.677734375 20.478515625,30.205078125 19.8852519989014,31.0693359375 19.6875,32.255859375 19.8889141082764,33.504638671875 20.4931640625,34.3798828125 21.5808086395264,34.896240234375 23.232421875,35.068359375 24.8803691864014,34.892578125 25.95703125,34.365234375 26.5502910614014,33.5009765625 26.748046875,32.314453125 26.5466289520264,31.065673828125 25.9423828125,30.1904296875 24.8547344207764,29.674072265625 23.203125,29.501953125z M10.576171875,4.189453125L8.13720607757568,4.464111328125 6.328125,5.2880859375 5.20751953125,6.793212890625 4.833984375,9.111328125 4.921875,13.0078125 5.302734375,16.552734375 10.4296875,16.552734375 13.06640625,16.2377948760986 15,15.29296875 16.1865234375,13.6230487823486 16.58203125,11.1328125 16.58203125,9.580078125 16.1572265625,7.060546875 14.94140625,5.4052734375 13.037109375,4.482421875 10.576171875,4.189453125z M10.927734375,0L15.52734375,0.552978515625 18.779296875,2.2119140625 20.7128887176514,5.064697265625 21.357421875,9.19921875 21.357421875,11.54296875 20.6616191864014,15.6811542510986 18.57421875,18.544921875 15.05126953125,20.21484375 10.048828125,20.771484375 6.09375,20.771484375 7.119140625,25.341796875 23.14453125,25.341796875 26.87255859375,25.7666015625 29.443359375,27.041015625 30.9375,29.17236328125 31.435546875,32.16796875 30.9375,35.247802734375 29.443359375,37.4560546875 26.88720703125,38.785400390625 23.203125,39.228515625 19.3505859375,38.73046875 16.8310546875,37.353515625 15.46875,35.302734375 15.05859375,32.783203125 15.205078125,31.201171875 15.732421875,29.560546875 8.0859375,29.560546875 11.044921875,42.685546875 6.123046875,42.685546875 0.908203125,19.453125 0.410155773162842,17.0361328125 0.146484375,14.8828125 0.029296875,12.5537109375 0,9.580078125 0.673828184604645,5.25146484375 2.69531297683716,2.28515625 6.10107421875,0.5712890625 10.927734375,0z" />
    </g>
  </g>
</svg>