<?xml version="1.0" encoding="utf-8"?>
<!DOCTYPE svg PUBLIC "-//W3C//DTD SVG 1.1//EN" "http://www.w3.org/Graphics/SVG/1.1/DTD/svg11.dtd">
<svg width="41.630859375" height="38.818359375" xmlns="http://www.w3.org/2000/svg" xmlns:xlink="http://www.w3.org/1999/xlink" xmlns:xml="http://www.w3.org/XML/1998/namespace" version="1.1">
  <g>
    <g>
      <path style="fill:#FF0000;fill-opacity:1" d="M33.3984375,19.98046875L31.75048828125,20.15625 30.673828125,20.68359375 30.08056640625,21.5478515625 29.8828125,22.734375 30.084228515625,23.983154296875 30.6884765625,24.8583984375 31.776123046875,25.374755859375 33.427734375,25.546875 35.07568359375,25.37109375 36.15234375,24.84375 36.74560546875,23.9794921875 36.943359375,22.79296875 36.741943359375,21.544189453125 36.1376953125,20.6689453125 35.050048828125,20.152587890625 33.3984375,19.98046875z M13.974609375,0L17.51220703125,0.43212890625 20.0390625,1.728515625 21.5551738739014,3.7646484375 22.060546875,6.416015625 21.9873046875,7.5732421875 21.767578125,8.7890625 20.244140625,15.8203125 33.33984375,15.8203125 37.06787109375,16.2451171875 39.638671875,17.51953125 41.1328125,19.65087890625 41.630859375,22.646484375 41.1328125,25.726318359375 39.638671875,27.9345703125 37.08251953125,29.263916015625 33.3984375,29.70703125 29.5458984375,29.208984375 27.0263671875,27.83203125 25.6640625,25.78125 25.25390625,23.26171875 25.400390625,21.6796875 25.869140625,20.0390625 19.306640625,20.0390625 15.234375,38.818359375 10.25390625,38.818359375 16.611328125,9.580078125 16.787109375,8.6572265625 16.845703125,7.705078125 16.622314453125,6.36474609375 15.9521484375,5.33203125 14.732666015625,4.6728515625 12.861328125,4.453125 9.6533203125,4.8779296875 6.2109375,5.91796875 5.6103515625,9.1845703125 4.453125,12.1875 0,10.37109375 1.0986328125,7.1630859375 1.43554711341858,3.984375 1.37695336341858,2.6953125 7.9833984375,0.7763671875 11.0705556869507,0.194091796875 13.974609375,0z" />
    </g>
  </g>
</svg>