<?xml version="1.0" encoding="utf-8"?>
<!DOCTYPE svg PUBLIC "-//W3C//DTD SVG 1.1//EN" "http://www.w3.org/Graphics/SVG/1.1/DTD/svg11.dtd">
<svg width="32.255859375" height="57.421875" xmlns="http://www.w3.org/2000/svg" xmlns:xlink="http://www.w3.org/1999/xlink" xmlns:xml="http://www.w3.org/XML/1998/namespace" version="1.1">
  <g>
    <g>
      <path style="fill:#FF0000;fill-opacity:1" d="M4.62890720367432,0L5.6982421875,2.6953125 6.328125,5.59570264816284 24.08203125,5.59570264816284 24.7119140625,2.6953125 25.78125,0 30.234375,1.81640589237213 29.1357421875,5.06835889816284 28.798828125,8.5546875 28.857421875,9.814453125 17.666015625,9.814453125 17.666015625,14.501953125 20.66162109375,15.1171875 22.79296875,16.435546875 24.0673809051514,18.37646484375 24.4921875,20.859375 24.4189453125,22.0166015625 24.19921875,23.232421875 18.896484375,47.607421875 30.87890625,47.607421875 30.8203125,48.8671875 31.1572265625,52.353515625 32.255859375,55.60546875 27.802734375,57.421875 26.7333984375,54.7265625 26.103515625,51.826171875 6.15234375,51.826171875 5.52246189117432,54.7265625 4.453125,57.421875 0,55.60546875 1.09863305091858,52.353515625 1.43554711341858,48.8671875 1.37695384025574,47.607421875 13.916015625,47.607421875 19.04296875,24.0234375 19.21875,23.1005859375 19.27734375,22.1484375 19.053955078125,20.8081073760986 18.3837890625,19.775390625 17.164306640625,19.1162109375 15.29296875,18.896484375 12.0849609375,19.3212890625 8.642578125,20.361328125 8.0419921875,23.6279296875 6.884765625,26.630859375 2.43164038658142,24.814453125 3.53027367591858,21.6064453125 3.86718773841858,18.427734375 3.80859446525574,17.138671875 8.408203125,15.7470703125 12.744140625,14.765625 12.744140625,9.814453125 1.55273461341858,9.814453125 1.611328125,8.5546875 1.2744140625,5.06835889816284 0.175781726837158,1.81640589237213 4.62890720367432,0z" />
    </g>
  </g>
</svg>