<?xml version="1.0" encoding="utf-8"?>
<!DOCTYPE svg PUBLIC "-//W3C//DTD SVG 1.1//EN" "http://www.w3.org/Graphics/SVG/1.1/DTD/svg11.dtd">
<svg width="35.8007812500004" height="45.99609375" xmlns="http://www.w3.org/2000/svg" xmlns:xlink="http://www.w3.org/1999/xlink" xmlns:xml="http://www.w3.org/XML/1998/namespace" version="1.1">
  <g>
    <g>
      <path style="fill:#FF0000;fill-opacity:1" d="M13.30078125,20.126953125L9.8291015625,20.302734375 5.888671875,20.80078125 5.1708984375,22.4267578125 4.921875,24.287109375 5.09765625,25.986328125 5.68359375,27.919921875 15.205078125,27.919921875 16.109619140625,26.0888671875 16.7138671875,24.697265625 17.16796875,22.763671875 16.92626953125,21.6101093292236 16.201171875,20.7861347198486 14.99267578125,20.2917499542236 13.30078125,20.126953125z M16.083984375,0L21.240234375,0 20.9802227020264,2.8857421875 20.3173828125,5.390625 18.10546875,9.4921875 15.087890625,12.685546875 11.748046875,15.3515625 10.95703125,15.908203125 10.25390625,16.376953125 10.283203125,16.46484375 12.7587890625,16.142578125 15.05859375,16.025390625 18.45703125,16.46484375 20.80078125,17.6513671875 22.1484375,19.423828125 22.587890625,21.62109375 22.5146484375,22.5732421875 22.2216796875,23.818359375 21.5771484375,25.5322265625 20.478515625,27.919921875 34.423828125,27.919921875 34.365234375,29.1796875 34.7021484375,32.7392578125 35.80078125,35.9765625 31.34765625,37.79296875 30.2783203125,35.09765625 29.6484375,32.197265625 18.33984375,32.197265625 11.484375,45.99609375 6.123046875,45.99609375 13.06640625,32.197265625 1.49414014816284,32.197265625 0.3515625,27.94921875 0,24.404296875 0.6591796875,20.244140625 2.4169921875,17.080078125 4.892578125,14.5751953125 7.734375,12.392578125 10.6201171875,10.1513671875 13.1982421875,7.55859375 15.1318359375,4.2919921875 16.083984375,0z" />
    </g>
  </g>
</svg>