<?xml version="1.0" encoding="utf-8"?>
<!DOCTYPE svg PUBLIC "-//W3C//DTD SVG 1.1//EN" "http://www.w3.org/Graphics/SVG/1.1/DTD/svg11.dtd">
<svg width="57.216796875" height="37.529296875" xmlns="http://www.w3.org/2000/svg" xmlns:xlink="http://www.w3.org/1999/xlink" xmlns:xml="http://www.w3.org/XML/1998/namespace" version="1.1">
  <g>
    <g>
      <path style="fill:#FF0000;fill-opacity:1" d="M45.673828125,27.94921875L45.673828125,29.4140625 45.6591796875,31.318359375 45.615234375,33.310546875 48.6328125,33.310546875 50.4309043884277,33.14208984375 51.6064453125,32.63671875 52.2546348571777,31.8017578125 52.470703125,30.64453125 52.2363243103027,29.4287109375 51.533203125,28.59375 50.2807579040527,28.1103515625 48.3984375,27.94921875 45.673828125,27.94921875z M25.810546875,0L25.810546875,4.306640625 30.736083984375,4.62890625 34.7900390625,5.537109375 38.0712890625,7.03857564926147 40.6787109375,9.140625 42.659912109375,11.8505878448486 44.0625,15.17578125 44.9780235290527,19.130859375 45.498046875,23.73046875 48.486328125,23.73046875 52.3974571228027,24.151611328125 55.107421875,25.4150390625 56.6894493103027,27.520751953125 57.216796875,30.46875 56.6674766540527,33.56689453125 55.01953125,35.771484375 52.1997032165527,37.08984375 48.134765625,37.529296875 40.60546875,37.529296875 40.7373046875,33.34716796875 40.78125,29.58984375 40.6201171875,24.202880859375 40.13671875,19.7607421875 39.23583984375,16.171875 37.822265625,13.3447265625 35.8447265625,11.2390155792236 33.251953125,9.814453125 29.94140625,8.97949409484863 25.810546875,8.642578125 25.810546875,37.529296875 20.888671875,37.529296875 20.888671875,4.62890625 15.9228515625,5.5517578125 11.89453125,7.4560546875 8.7890625,10.576171875 7.58056640625,12.6562519073486 6.591796875,15.146484375 5.82275390625,18.0615234375 5.2734375,21.416015625 4.94384765625,25.25390625 4.833984375,29.619140625 5.09765625,37.529296875 0.234375476837158,37.529296875 0.05859375,33.7939453125 0,30.322265625 0.208740234375,24.327392578125 0.8349609375,19.1748046875 1.85302698612213,14.78759765625 3.2373046875,11.0888671875 4.98046875,8.03833198547363 7.0751953125,5.595703125 9.49218654632568,3.68408203125 12.2021484375,2.2265625 18.486328125,0.5126953125 25.810546875,0z" />
    </g>
  </g>
</svg>