<?xml version="1.0" encoding="utf-8"?>
<!DOCTYPE svg PUBLIC "-//W3C//DTD SVG 1.1//EN" "http://www.w3.org/Graphics/SVG/1.1/DTD/svg11.dtd">
<svg width="39.0234375" height="46.611328125" xmlns="http://www.w3.org/2000/svg" xmlns:xlink="http://www.w3.org/1999/xlink" xmlns:xml="http://www.w3.org/XML/1998/namespace" version="1.1">
  <g>
    <g>
      <path style="fill:#FF0000;fill-opacity:1" d="M8.759765625,32.724609375L7.646484375,32.75390625 6.474609375,32.841796875 5.4052734375,35.4345703125 5.009765625,38.37890625 5.625,42.333984375 16.201171875,42.333984375 16.376953125,39.931640625 15.849609375,36.474609375 14.3408203125,34.2626953125 11.9384765625,33.076171875 8.759765625,32.724609375z M8.583984375,0L9.6533203125,2.6953125 10.283203125,5.595703125 32.87109375,5.595703125 33.5009765625,2.6953125 34.5703125,0 39.0234375,1.81640625 37.9248046875,5.068359375 37.587890625,8.5546875 37.646484375,9.814453125 24.9609375,9.814453125 23.2763671875,14.677734375 20.595703125,18.6767578125 17.28515625,22.1044921875 13.65234375,25.224609375 11.8505859375,26.748046875 10.1953125,28.271484375 14.7216796875,28.798828125 18.28125,30.5419921875 19.610595703125,32.010498046875 20.6103515625,33.92578125 21.2365703582764,36.357421875 21.4453125,39.375 21.4013671875,40.7958984375 21.298828125,42.333984375 24.1772441864014,42.227783203125 26.484375,41.9091796875 28.30078125,41.319580078125 29.70703125,40.400390625 30.736083984375,39.1259765625 31.4208984375,37.470703125 31.842041015625,35.36865234375 32.080078125,32.75390625 36.9140625,32.75390625 36.6796875,35.562744140625 36.2109375,37.9541015625 34.62890625,41.6748046875 32.2265625,44.1796875 29.0478515625,45.6884765625 25.166015625,46.4208984375 20.654296875,46.611328125 1.23046898841858,46.611328125 0.29296875,42.5830078125 0,39.052734375 0.216064423322678,36.199951171875 0.864257574081421,33.6767578125 3.14941430091858,29.35546875 6.38671875,25.72265625 10.107421875,22.412109375 13.2421875,19.6728515625 16.0693359375,16.81640625 18.3544921875,13.6083984375 19.86328125,9.814453125 5.5078125,9.814453125 5.56640625,8.5546875 5.2294921875,5.068359375 4.130859375,1.81640625 8.583984375,0z" />
    </g>
  </g>
</svg>