<?xml version="1.0" encoding="utf-8"?>
<!DOCTYPE svg PUBLIC "-//W3C//DTD SVG 1.1//EN" "http://www.w3.org/Graphics/SVG/1.1/DTD/svg11.dtd">
<svg width="63.251953125" height="43.125" xmlns="http://www.w3.org/2000/svg" xmlns:xlink="http://www.w3.org/1999/xlink" xmlns:xml="http://www.w3.org/XML/1998/namespace" version="1.1">
  <g>
    <g>
      <path style="fill:#FF0000;fill-opacity:1" d="M27.48046875,19.62890625L27.48046875,24.990234375 30.556640625,24.990234375 32.354736328125,24.82177734375 33.5302734375,24.31640625 34.178466796875,23.4814453125 34.39453125,22.32421875 34.16015625,21.1083984375 33.45703125,20.2734375 32.20458984375,19.7900390625 30.322265625,19.62890625 27.48046875,19.62890625z M4.833984375,19.62890625L4.7900390625,21.0791015625 4.775390625,22.587890625 4.775390625,23.7744140625 4.8046875,24.990234375 7.939453125,24.990234375 9.73754787445068,24.82177734375 10.9130859375,24.31640625 11.561279296875,23.4814453125 11.77734375,22.32421875 11.54296875,21.1083984375 10.83984375,20.2734375 9.58740139007568,19.7900390625 7.705078125,19.62890625 4.833984375,19.62890625z M27.48046875,0L27.48046875,4.306640625 32.10205078125,4.4970703125 36.064453125,5.009765625 39.429931640625,5.87768650054932 42.2607421875,7.1337890625 44.5935020446777,8.78540229797363 46.46484375,10.83984375 47.9296836853027,13.3337421417236 49.04296875,16.3037109375 49.8376426696777,19.764404296875 50.3466796875,23.73046875 50.6359825134277,28.23486328125 50.771484375,33.310546875 61.875,33.310546875 61.81640625,34.5703125 62.1533203125,38.056640625 63.251953125,41.30859375 58.798828125,43.125 57.7294921875,40.4296875 57.099609375,37.529296875 37.763671875,37.529296875 37.1337890625,40.4296875 36.064453125,43.125 31.611328125,41.30859375 32.7099609375,38.056640625 33.046875,34.5703125 32.98828125,33.310546875 45.849609375,33.310546875 45.7250938415527,28.6376953125 45.46875,24.580078125 45.0366172790527,21.090087890625 44.384765625,18.1201171875 43.4912109375,15.640869140625 42.333984375,13.623046875 39.0234375,10.751953125 36.796875,9.81811714172363 34.16015625,9.1845703125 31.0693359375,8.80737495422363 27.48046875,8.642578125 27.48046875,15.41015625 30.41015625,15.41015625 34.3212890625,15.831298828125 37.03125,17.0947265625 38.61328125,19.200439453125 39.140625,22.1484375 38.59130859375,25.24658203125 36.943359375,27.451171875 34.12353515625,28.76953125 30.05859375,29.208984375 22.55859375,29.208984375 22.55859375,4.62890625 18.56689453125,4.9658203125 15.205078125,5.56640625 12.41455078125,6.44897603988647 10.13671875,7.6318359375 8.33862209320068,9.11499214172363 6.9873046875,10.8984375 5.33203125,15.41015625 7.939453125,15.41015625 11.8505859375,15.831298828125 14.560546875,17.0947265625 16.142578125,19.200439453125 16.669921875,22.1484375 16.12060546875,25.24658203125 14.47265625,27.451171875 11.65283203125,28.76953125 7.587890625,29.208984375 0.087890625,29.208984375 0,25.3125 0.1318359375,20.15625 0.5859375,15.9228515625 1.42089796066284,12.4072265625 2.72460985183716,9.404296875 4.56298828125,6.74926900863647 6.796875,4.6435546875 9.40429592132568,3.013916015625 12.36328125,1.787109375 19.2919921875,0.3955078125 27.48046875,0z" />
    </g>
  </g>
</svg>