<?xml version="1.0" encoding="utf-8"?>
<!DOCTYPE svg PUBLIC "-//W3C//DTD SVG 1.1//EN" "http://www.w3.org/Graphics/SVG/1.1/DTD/svg11.dtd">
<svg width="23.671875" height="52.91015625" xmlns="http://www.w3.org/2000/svg" xmlns:xlink="http://www.w3.org/1999/xlink" xmlns:xml="http://www.w3.org/XML/1998/namespace" version="1.1">
  <g>
    <g>
      <path style="fill:#FF0000;fill-opacity:1" d="M0,48.69140625L23.671875,48.69140625 23.671875,52.91015625 0,52.91015625 0,48.69140625z M12.216796875,13.76953125L10.0341787338257,14.0185565948486 8.408203125,14.765625 7.3974609375,16.1279315948486 7.060546875,18.22265625 7.1484375,21.7529296875 7.529296875,24.9609375 12.12890625,24.9609375 14.501953125,24.678955078125 16.23046875,23.8330078125 17.28515625,22.327880859375 17.63671875,20.068359375 17.63671875,18.662109375 17.255859375,16.376953125 16.1572265625,14.8681640625 14.443359375,14.033203125 12.216796875,13.76953125z M12.568359375,9.580078125L16.929931640625,10.10009765625 19.9951171875,11.66015625 21.8078594207764,14.3481464385986 22.412109375,18.251953125 22.412109375,20.478515625 21.7712383270264,24.385986328125 19.8486328125,27.0849609375 16.600341796875,28.656005859375 11.982421875,29.1796875 8.3203125,29.1796875 11.42578125,42.890625 6.50390625,42.890625 3.13476610183716,27.861328125 2.666015625,25.576171875 2.3876953125,23.5693359375 2.25585985183716,21.38671875 2.22656297683716,18.57421875 2.867431640625,14.5202655792236 4.7900390625,11.7333984375 8.016357421875,10.118408203125 12.568359375,9.580078125z M0,0L23.671875,0 23.671875,4.21875 0,4.21875 0,0z" />
    </g>
  </g>
</svg>