<?xml version="1.0" encoding="utf-8"?>
<!DOCTYPE svg PUBLIC "-//W3C//DTD SVG 1.1//EN" "http://www.w3.org/Graphics/SVG/1.1/DTD/svg11.dtd">
<svg width="36.943359375" height="47.6953125" xmlns="http://www.w3.org/2000/svg" xmlns:xlink="http://www.w3.org/1999/xlink" xmlns:xml="http://www.w3.org/XML/1998/namespace" version="1.1">
  <g>
    <g>
      <path style="fill:#FF0000;fill-opacity:1" d="M7.998046875,28.0078125L4.921875,28.18359375 4.892578125,29.1064453125 4.892578125,30.029296875 4.9951171875,33.837890625 5.244140625,37.880859375 15.439453125,37.880859375 15.615234375,35.361328125 15.087890625,31.8310546875 13.5791015625,29.560546875 11.1767578125,28.359375 7.998046875,28.0078125z M27.01171875,4.39453125L24.6716289520264,4.647216796875 23.1591796875,5.4052734375 22.3352031707764,6.646728515625 22.060546875,8.349609375 22.3425273895264,10.1110849380493 23.1884765625,11.3525390625 24.7082500457764,12.0886249542236 27.01171875,12.333984375 29.359130859375,12.0849628448486 30.8935546875,11.337890625 31.739501953125,10.1000986099243 32.021484375,8.37890625 31.732177734375,6.59912109375 30.8642578125,5.361328125 29.322509765625,4.63623046875 27.01171875,4.39453125z M27.216796875,0L29.725341796875,0.15380859375 31.8017578125,0.615234375 34.8046875,2.3291015625 36.4453125,4.951171875 36.943359375,8.26171875 36.328125,11.8652362823486 34.482421875,14.53125 31.35498046875,16.1792011260986 26.89453125,16.728515625 24.3859844207764,16.5747089385986 22.3095703125,16.11328125 19.2919921875,14.3994140625 17.63671875,11.7919921875 17.138671875,8.49609375 17.40234375,6.03515625 12.421875,7.6611328125 10.4370107650757,9.052734375 8.759765625,10.9130859375 7.393798828125,13.2678241729736 6.3427734375,16.142578125 5.584716796875,19.60693359375 5.09765625,23.73046875 7.0751953125,23.5546875 8.96484375,23.49609375 13.6669921875,23.9794921875 15.673828125,24.656982421875 17.3876953125,25.72265625 18.779296875,27.213134765625 19.8193359375,29.1650390625 20.4675273895264,31.658935546875 20.68359375,34.775390625 20.6396484375,36.26953125 20.537109375,37.880859375 35.44921875,37.880859375 35.390625,39.140625 35.7275390625,42.626953125 36.826171875,45.87890625 32.373046875,47.6953125 31.3037109375,45 30.673828125,42.099609375 0.615234851837158,42.099609375 0.190430164337158,36.4599609375 0,31.0546875 0.16845703125,25.352783203125 0.673828125,20.4345703125 1.494140625,16.2341327667236 2.60742235183716,12.685546875 4.010009765625,9.74121189117432 5.6982421875,7.353515625 7.65380859375,5.45654296875 9.8583984375,3.984375 14.9560546875,2.138671875 20.888671875,1.34765625 23.6865215301514,0.3369140625 27.216796875,0z" />
    </g>
  </g>
</svg>