<?xml version="1.0" encoding="utf-8"?>
<!DOCTYPE svg PUBLIC "-//W3C//DTD SVG 1.1//EN" "http://www.w3.org/Graphics/SVG/1.1/DTD/svg11.dtd">
<svg width="24.5214843750001" height="42.685546875" xmlns="http://www.w3.org/2000/svg" xmlns:xlink="http://www.w3.org/1999/xlink" xmlns:xml="http://www.w3.org/XML/1998/namespace" version="1.1">
  <g>
    <g>
      <path style="fill:#FF0000;fill-opacity:1" d="M9.2578125,13.271484375L9.68261623382568,15.5310077667236 10.72265625,17.0361328125 12.3632802963257,17.8820819854736 14.58984375,18.1640625 16.783447265625,17.8857440948486 18.3837890625,17.05078125 19.376220703125,15.5493183135986 19.74609375,13.271484375 9.2578125,13.271484375z M14.4140625,4.189453125L12.1984853744507,4.478759765625 10.5908203125,5.3466796875 9.60571193695068,6.895751953125 9.2578125,9.228515625 19.74609375,9.228515625 19.346923828125,6.895751953125 18.3251953125,5.3466796875 16.680908203125,4.478759765625 14.4140625,4.189453125z M14.70703125,0L19.0283203125,0.552978515625 22.08984375,2.2119140625 23.9135723114014,5.064697265625 24.521484375,9.19921875 24.521484375,12.65625 24.228515625,15.87890625 23.3056640625,18.2373046875 21.6796875,20.185546875 19.27734375,22.177734375 16.669921875,24.228515625 13.65234375,26.865234375 10.5908203125,30.0732421875 7.880859375,33.80859375 5.9033203125,38.02734375 5.0390625,42.685546875 0,42.685546875 0.249023258686066,39.68994140625 0.99609375,36.796875 3.69140648841858,31.376953125 7.587890625,26.484375 12.216796875,22.177734375 8.814697265625,21.328125 6.4013671875,19.599609375 4.96215724945068,16.9116230010986 4.482421875,13.18359375 4.482421875,9.580078125 5.12329053878784,5.2880859375 7.0458984375,2.314453125 10.2429189682007,0.57861328125 14.70703125,0z" />
    </g>
  </g>
</svg>