<?xml version="1.0" encoding="utf-8"?>
<!DOCTYPE svg PUBLIC "-//W3C//DTD SVG 1.1//EN" "http://www.w3.org/Graphics/SVG/1.1/DTD/svg11.dtd">
<svg width="37.5" height="42.01171875" xmlns="http://www.w3.org/2000/svg" xmlns:xlink="http://www.w3.org/1999/xlink" xmlns:xml="http://www.w3.org/XML/1998/namespace" version="1.1">
  <g>
    <g>
      <path style="fill:#FF0000;fill-opacity:1" d="M1.37695288658142,0L36.123046875,0 36.064453125,1.259765625 36.4013671875,4.74609375 37.5,7.998046875 33.046875,9.814453125 31.9775390625,7.119140625 31.34765625,4.21875 21.26953125,4.21875 21.26953125,32.197265625 32.373046875,32.197265625 32.314453125,33.45703125 32.6513671875,36.943359375 33.75,40.1953125 29.296875,42.01171875 28.2275390625,39.31640625 27.59765625,36.416015625 10.01953125,36.416015625 9.3896484375,39.31640625 8.3203125,42.01171875 3.86718773841858,40.1953125 4.96581935882568,36.943359375 5.302734375,33.45703125 5.244140625,32.197265625 16.34765625,32.197265625 16.34765625,4.21875 6.15234375,4.21875 5.52245998382568,7.119140625 4.453125,9.814453125 0,7.998046875 1.09863233566284,4.74609375 1.435546875,1.259765625 1.37695288658142,0z" />
    </g>
  </g>
</svg>