<?xml version="1.0" encoding="utf-8"?>
<!DOCTYPE svg PUBLIC "-//W3C//DTD SVG 1.1//EN" "http://www.w3.org/Graphics/SVG/1.1/DTD/svg11.dtd">
<svg width="61.2890625" height="37.529296875" xmlns="http://www.w3.org/2000/svg" xmlns:xlink="http://www.w3.org/1999/xlink" xmlns:xml="http://www.w3.org/XML/1998/namespace" version="1.1">
  <g>
    <g>
      <path style="fill:#FF0000;fill-opacity:1" d="M4.775390625,27.94921875L4.775390625,28.7109375 4.86328125,33.310546875 7.998046875,33.310546875 9.79614162445068,33.14208984375 10.9716796875,32.63671875 11.619873046875,31.8017578125 11.8359375,30.64453125 11.6015625,29.4287109375 10.8984375,28.59375 9.64599514007568,28.1103515625 7.763671875,27.94921875 4.775390625,27.94921875z M49.5703125,19.62890625L50.09765625,24.990234375 52.705078125,24.990234375 54.5031700134277,24.82177734375 55.6787109375,24.31640625 56.3269004821777,23.4814453125 56.54296875,22.32421875 56.3085899353027,21.1083984375 55.60546875,20.2734375 54.3530235290527,19.7900390625 52.470703125,19.62890625 49.5703125,19.62890625z M27.12890625,19.62890625L27.12890625,24.990234375 30.205078125,24.990234375 32.003173828125,24.82177734375 33.1787109375,24.31640625 33.826904296875,23.4814453125 34.04296875,22.32421875 33.80859375,21.1083984375 33.10546875,20.2734375 31.85302734375,19.7900390625 29.970703125,19.62890625 27.12890625,19.62890625z M27.12890625,0L27.12890625,4.306640625 28.916015625,4.2041015625 30.615234375,4.16015625 34.251708984375,4.34326171875 37.4267578125,4.892578125 40.177001953125,5.79712009429932 42.5390625,7.0458984375 46.1865234375,10.576171875 48.544921875,15.41015625 52.55859375,15.41015625 56.4697227478027,15.831298828125 59.1796875,17.0947265625 60.76171875,19.200439453125 61.2890625,22.1484375 60.73974609375,25.24658203125 59.091796875,27.451171875 56.2719688415527,28.76953125 52.20703125,29.208984375 45.322265625,29.208984375 45.1501426696777,24.0966796875 44.6337890625,19.775390625 43.6816368103027,16.20849609375 42.2021484375,13.359375 40.1513671875,11.2023944854736 37.4853515625,9.7119140625 34.119873046875,8.84399604797363 29.970703125,8.5546875 27.12890625,8.642578125 27.12890625,15.41015625 30.05859375,15.41015625 33.9697265625,15.831298828125 36.6796875,17.0947265625 38.26171875,19.200439453125 38.7890625,22.1484375 38.23974609375,25.24658203125 36.591796875,27.451171875 33.77197265625,28.76953125 29.70703125,29.208984375 22.20703125,29.208984375 22.20703125,4.658203125 18.03955078125,5.152587890625 14.560546875,6.1669921875 11.700439453125,7.71240377426147 9.3896484375,9.7998046875 7.598876953125,12.4365253448486 6.298828125,15.6298828125 5.42724609375,19.390869140625 4.921875,23.73046875 7.880859375,23.73046875 11.7919921875,24.151611328125 14.501953125,25.4150390625 16.083984375,27.520751953125 16.611328125,30.46875 16.06201171875,33.56689453125 14.4140625,35.771484375 11.59423828125,37.08984375 7.529296875,37.529296875 0.234374523162842,37.529296875 0,29.853515625 0.168457090854645,24.31640625 0.673828601837158,19.482421875 1.534423828125,15.29296875 2.7685546875,11.689453125 4.3798828125,8.64990425109863 6.3720703125,6.15234375 8.76342678070068,4.141845703125 11.572265625,2.5634765625 14.80224609375,1.395263671875 18.45703125,0.615234375 22.5585918426514,0.16845703125 27.12890625,0z" />
    </g>
  </g>
</svg>