<?xml version="1.0" encoding="utf-8"?>
<!DOCTYPE svg PUBLIC "-//W3C//DTD SVG 1.1//EN" "http://www.w3.org/Graphics/SVG/1.1/DTD/svg11.dtd">
<svg width="23.7011718750001" height="43.76953125" xmlns="http://www.w3.org/2000/svg" xmlns:xlink="http://www.w3.org/1999/xlink" xmlns:xml="http://www.w3.org/XML/1998/namespace" version="1.1">
  <g>
    <g>
      <path style="fill:#FF0000;fill-opacity:1" d="M18.896484375,27.890625L11.66015625,28.88671875 8.73046875,29.534912109375 6.62109375,30.5419921875 5.34667921066284,32.186279296875 4.921875,34.74609375 5.31372022628784,36.741943359375 6.4892578125,38.3349609375 8.316650390625,39.378662109375 10.6640625,39.7265625 13.927001953125,39.100341796875 16.5673828125,37.2216796875 18.314208984375,34.383544921875 18.896484375,30.87890625 18.896484375,27.890625z M13.125,12.36328125L17.7520732879639,13.0627450942993 21.0571269989014,15.1611347198486 23.0401592254639,18.6584491729736 23.701171875,23.5546875 23.701171875,43.06640625 18.896484375,43.06640625 18.896484375,38.37890625 18.779296875,38.37890625 17.0269775390625,40.7373046875 14.90478515625,42.421875 12.4127197265625,43.4326171875 9.55078125,43.76953125 5.55541944503784,43.17626953125 2.53417944908142,41.396484375 0.633544683456421,38.63525390625 0,35.09765625 0.61889636516571,31.3330078125 2.47558569908142,28.447265625 5.570068359375,26.4404296875 9.90234375,25.3125 18.896484375,24.052734375 18.5101318359375,20.7073993682861 17.35107421875,18.3178730010986 15.4193115234375,16.8841571807861 12.71484375,16.40625 10.07080078125,16.6369647979736 7.55859375,17.3291034698486 5.17822265625,18.4826679229736 2.92968726158142,20.09765625 2.92968726158142,15.17578125 7.6904296875,13.0664081573486 13.125,12.36328125z M4.86328125,0L7.79296875,0 8.23974609375,1.9866943359375 9.228515625,3.40576171875 10.75927734375,4.2572021484375 12.83203125,4.541015625 14.681396484375,4.2333984375 16.2451171875,3.310546875 17.384033203125,1.86767578125 17.958984375,0 20.947265625,0 20.152587890625,2.991943359375 18.3544921875,5.3466796875 15.809326171875,6.873779296875 12.7734375,7.3828125 9.66064453125,6.87744140625 7.177734375,5.361328125 5.51513624191284,3.01025390625 4.86328125,0z" />
    </g>
  </g>
</svg>