<?xml version="1.0" encoding="utf-8"?>
<!DOCTYPE svg PUBLIC "-//W3C//DTD SVG 1.1//EN" "http://www.w3.org/Graphics/SVG/1.1/DTD/svg11.dtd">
<svg width="23.701171875" height="42.421875" xmlns="http://www.w3.org/2000/svg" xmlns:xlink="http://www.w3.org/1999/xlink" xmlns:xml="http://www.w3.org/XML/1998/namespace" version="1.1">
  <g>
    <g>
      <path style="fill:#FF0000;fill-opacity:1" d="M18.896484375,15.52734375L11.66015625,16.5234375 8.73046875,17.171630859375 6.62109375,18.1787109375 5.3466796875,19.822998046875 4.92187595367432,22.3828125 5.313720703125,24.378662109375 6.4892578125,25.9716796875 8.316650390625,27.015380859375 10.6640625,27.36328125 13.927001953125,26.737060546875 16.5673828125,24.8583984375 18.314208984375,22.020263671875 18.896484375,18.515625 18.896484375,15.52734375z M13.125,0L17.7520732879639,0.699463963508606 21.0571269989014,2.79785299301147 23.0401592254639,6.29516696929932 23.701171875,11.19140625 23.701171875,30.703125 22.265625,30.703125 20.343017578125,32.6605224609375 18.9697265625,34.40185546875 18.145751953125,35.9271240234375 17.87109375,37.236328125 18.369140625,38.7744140625 19.86328125,39.287109375 21.50390625,38.90625 21.50390625,42.041015625 19.1015625,42.421875 17.0947265625,42.12890625 15.52734375,41.25 14.5166015625,39.8583984375 14.1796875,38.02734375 14.4671630859375,36.229248046875 15.32958984375,34.4091796875 16.7669677734375,32.567138671875 18.779296875,30.703125 18.896484375,30.703125 18.896484375,26.015625 18.779296875,26.015625 17.0269775390625,28.3740234375 14.90478515625,30.05859375 12.4127197265625,31.0693359375 9.55078125,31.40625 5.555419921875,30.81298828125 2.53417992591858,29.033203125 0.633545160293579,26.27197265625 0,22.734375 0.61889660358429,18.9697265625 2.47558617591858,16.083984375 5.570068359375,14.0771484375 9.90234375,12.94921875 18.896484375,11.689453125 18.5101318359375,8.34411716461182 17.35107421875,5.95459127426147 15.4193115234375,4.52087497711182 12.71484375,4.04296875 10.07080078125,4.27368259429932 7.55859375,4.96582174301147 5.17822265625,6.11938571929932 2.92968773841858,7.734375 2.92968773841858,2.8125 7.6904296875,0.703126430511475 13.125,0z" />
    </g>
  </g>
</svg>