<?xml version="1.0" encoding="utf-8"?>
<!DOCTYPE svg PUBLIC "-//W3C//DTD SVG 1.1//EN" "http://www.w3.org/Graphics/SVG/1.1/DTD/svg11.dtd">
<svg width="27.65625" height="57.421875" xmlns="http://www.w3.org/2000/svg" xmlns:xlink="http://www.w3.org/1999/xlink" xmlns:xml="http://www.w3.org/XML/1998/namespace" version="1.1">
  <g>
    <g>
      <path style="fill:#FF0000;fill-opacity:1" d="M14.4140625,16.640625L12.2845449447632,16.8438739776611 10.4077138900757,17.4536151885986 8.78356838226318,18.4698505401611 7.412109375,19.892578125 5.54443359375,23.78173828125 4.921875,28.9453125 5.52978515625,33.43505859375 7.353515625,36.943359375 8.66454982757568,38.2635498046875 10.1660146713257,39.20654296875 11.8579092025757,39.7723388671875 13.740234375,39.9609375 17.42431640625,39.246826171875 20.33203125,37.1044921875 22.2216777801514,33.834228515625 22.8515625,29.736328125 22.8515625,25.3125 22.2509746551514,22.012939453125 20.44921875,19.2041015625 17.7392578125,17.2814960479736 14.4140625,16.640625z M13.740234375,12.59765625L16.5985107421875,12.9016122817993 19.05029296875,13.8134784698486 21.0955810546875,15.3332529067993 22.734375,17.4609375 22.8515625,17.4609375 22.8515625,13.30078125 27.65625,13.30078125 27.65625,40.8984375 27.4090576171875,44.7711181640625 26.6674785614014,48.12744140625 25.4315166473389,50.9674072265625 23.7011699676514,53.291015625 21.4764385223389,55.0982666015625 18.7573223114014,56.38916015625 15.5438222885132,57.1636962890625 11.8359375,57.421875 6.5771484375,56.89453125 2.10937452316284,55.3125 2.10937452316284,50.5078125 7.0751953125,52.6171875 11.77734375,53.3203125 16.6223125457764,52.584228515625 20.0830059051514,50.3759765625 22.1594219207764,46.695556640625 22.8515625,41.54296875 22.8515625,38.26171875 22.734375,38.26171875 20.8154296875,40.77392578125 18.45703125,42.568359375 15.6591796875,43.64501953125 12.421875,44.00390625 9.7723388671875,43.7521362304688 7.39013671875,42.996826171875 5.2752685546875,41.7379760742188 3.427734375,39.9755859375 1.9281005859375,37.7957153320313 0.85693359375,35.284423828125 0.2142333984375,32.4417114257813 0,29.267578125 0.22979736328125,25.6402587890625 0.919189512729645,22.40478515625 2.06817650794983,19.5611572265625 3.67675828933716,17.109375 5.68450927734375,15.1354990005493 8.031005859375,13.7255878448486 10.7162475585938,12.8796396255493 13.740234375,12.59765625z M15.849609375,0L19.453125,0 16.025390625,7.6171875 10.986328125,7.6171875 15.849609375,0z" />
    </g>
  </g>
</svg>