<?xml version="1.0" encoding="utf-8"?>
<!DOCTYPE svg PUBLIC "-//W3C//DTD SVG 1.1//EN" "http://www.w3.org/Graphics/SVG/1.1/DTD/svg11.dtd">
<svg width="26.162109375" height="42.099609375" xmlns="http://www.w3.org/2000/svg" xmlns:xlink="http://www.w3.org/1999/xlink" xmlns:xml="http://www.w3.org/XML/1998/namespace" version="1.1">
  <g>
    <g>
      <path style="fill:#FF0000;fill-opacity:1" d="M13.740234375,14.736328125L10.5981435775757,15.3442401885986 7.96875,17.16796875 6.0498046875,19.97314453125 5.0390625,23.525390625 21.240234375,23.525390625 20.7238750457764,19.82666015625 19.2333984375,17.05078125 16.871337890625,15.3149433135986 13.740234375,14.736328125z M13.828125,10.693359375L16.6058349609375,10.9313974380493 19.05029296875,11.6455097198486 21.1614990234375,12.8356943130493 22.939453125,14.501953125 24.3493633270264,16.5911865234375 25.3564434051514,19.05029296875 25.9606914520264,21.8792724609375 26.162109375,25.078125 26.162109375,27.59765625 4.98046970367432,27.59765625 5.712890625,32.0361328125 7.67578125,35.33203125 10.7373037338257,37.37548828125 14.765625,38.056640625 17.24853515625,37.847900390625 19.62890625,37.2216796875 21.90673828125,36.177978515625 24.08203125,34.716796875 24.08203125,39.228515625 19.48974609375,41.3818359375 13.623046875,42.099609375 10.6146240234375,41.8441772460938 7.94677734375,41.077880859375 5.6195068359375,39.8007202148438 3.63281273841858,38.0126953125 2.04345726966858,35.7614135742188 0.908203363418579,33.094482421875 0.227050915360451,30.0119018554688 0,26.513671875 0.248108044266701,23.1747436523438 0.992431879043579,20.159912109375 2.23297142982483,17.4691772460938 3.96972680091858,15.1025390625 6.07452392578125,13.1735239028931 8.419189453125,11.7956562042236 11.0037231445313,10.9689340591431 13.828125,10.693359375z M14.0625,0L15.172119140625,0.201416015625 16.0986328125,0.8056640625 16.724853515625,1.710205078125 16.93359375,2.8125 16.724853515625,3.92578125 16.0986328125,4.86328125 15.172119140625,5.50048828125 14.0625,5.712890625 12.967529296875,5.504150390625 12.0263671875,4.8779296875 11.3781728744507,3.944091796875 11.162109375,2.8125 11.3745107650757,1.728515625 12.01171875,0.8203125 12.94921875,0.205078125 14.0625,0z" />
    </g>
  </g>
</svg>