<?xml version="1.0" encoding="utf-8"?>
<!DOCTYPE svg PUBLIC "-//W3C//DTD SVG 1.1//EN" "http://www.w3.org/Graphics/SVG/1.1/DTD/svg11.dtd">
<svg width="33.80859375" height="55.546875" xmlns="http://www.w3.org/2000/svg" xmlns:xlink="http://www.w3.org/1999/xlink" xmlns:xml="http://www.w3.org/XML/1998/namespace" version="1.1">
  <g>
    <g>
      <path style="fill:#FF0000;fill-opacity:1" d="M4.921875,17.98828125L4.921875,51.09375 11.19140625,51.09375 15.0933828353882,50.8172607421875 18.5375957489014,49.98779296875 21.5240459442139,48.6053466796875 24.052734375,46.669921875 26.0650634765625,44.227294921875 27.50244140625,41.3232421875 28.3648681640625,37.957763671875 28.65234375,34.130859375 28.3840942382813,30.3474426269531 27.579345703125,27.0684814453125 26.2380981445313,24.2939758300781 24.3603515625,22.02392578125 21.9461059570313,20.2583312988281 18.995361328125,18.9971923828125 15.5081167221069,18.2405090332031 11.484375,17.98828125 4.921875,17.98828125z M0,13.53515625L11.6015625,13.53515625 16.8063354492188,13.8551330566406 21.317138671875,14.8150634765625 25.1339721679688,16.4149475097656 28.2568359375,18.65478515625 30.6857299804688,21.5345764160156 32.420654296875,25.0543212890625 33.4616088867188,29.2140197753906 33.80859375,34.013671875 33.4231567382813,38.6380004882813 32.266845703125,42.784423828125 30.3396606445313,46.4529418945313 27.6416015625,49.6435546875 24.2971782684326,52.2262573242188 20.4309062957764,54.071044921875 16.0427837371826,55.1779174804688 11.1328125,55.546875 0,55.546875 0,13.53515625z M6.2109375,0L9.580078125,0 14.384765625,6.708984375 19.189453125,0 22.67578125,0 16.40625,9.66796875 12.5390625,9.66796875 6.2109375,0z" />
    </g>
  </g>
</svg>