<?xml version="1.0" encoding="utf-8"?>
<!DOCTYPE svg PUBLIC "-//W3C//DTD SVG 1.1//EN" "http://www.w3.org/Graphics/SVG/1.1/DTD/svg11.dtd">
<svg width="31.259765625" height="53.61328125" xmlns="http://www.w3.org/2000/svg" xmlns:xlink="http://www.w3.org/1999/xlink" xmlns:xml="http://www.w3.org/XML/1998/namespace" version="1.1">
  <g>
    <g>
      <path style="fill:#FF0000;fill-opacity:1" d="M0,10.8984375L4.921875,10.8984375 4.921875,36.26953125 5.0921630859375,39.2976379394531 5.60302734375,41.9219970703125 6.4544677734375,44.1426086425781 7.646484375,45.95947265625 9.1790771484375,47.3725891113281 11.05224609375,48.3819580078125 13.2659912109375,48.9875793457031 15.8203125,49.189453125 18.2853698730469,48.9944458007813 20.4217510223389,48.409423828125 22.2294597625732,47.4343872070313 23.7084941864014,46.0693359375 24.8588542938232,44.3142700195313 25.6805400848389,42.169189453125 26.1735534667969,39.6340942382813 26.337890625,36.708984375 26.337890625,10.8984375 31.259765625,10.8984375 31.259765625,35.91796875 31.0102844238281,40.0653076171875 30.2618408203125,43.65966796875 29.0144348144531,46.7010498046875 27.26806640625,49.189453125 25.0227355957031,51.1248779296875 22.2784423828125,52.50732421875 19.0351867675781,53.3367919921875 15.29296875,53.61328125 11.7086791992188,53.3473205566406 8.602294921875,52.5494384765625 5.97381591796875,51.2196350097656 3.8232421875,49.35791015625 2.15057373046875,46.9642639160156 0.955810546875,44.0386962890625 0.23895263671875,40.5812072753906 0,36.591796875 0,10.8984375z M22.236328125,0L25.107421875,0 24.7558574676514,2.79419231414795 23.701171875,5.0244140625 22.0458965301514,6.485595703125 19.892578125,6.97265577316284 17.666015625,6.591796875 15.146484375,5.44921875 13.14697265625,4.50439739227295 11.66015625,4.189453125 10.5322256088257,4.39636468887329 9.72656154632568,5.01709270477295 9.24316310882568,6.05163812637329 9.08203125,7.50000047683716 6.328125,7.50000047683716 6.6796875,4.67651653289795 7.734375,2.47558617591858 9.41894435882568,1.05835247039795 11.66015625,0.58593738079071 13.70361328125,0.966799736022949 16.025390625,2.10937523841858 18.046875,3.07617473602295 19.775390625,3.3984375 20.8520488739014,3.18603730201721 21.6210918426514,2.54883098602295 22.0825176239014,1.48681855201721 22.236328125,0z" />
    </g>
  </g>
</svg>