<?xml version="1.0" encoding="utf-8"?>
<!DOCTYPE svg PUBLIC "-//W3C//DTD SVG 1.1//EN" "http://www.w3.org/Graphics/SVG/1.1/DTD/svg11.dtd">
<svg width="41.953125" height="45.41015625" xmlns="http://www.w3.org/2000/svg" xmlns:xlink="http://www.w3.org/1999/xlink" xmlns:xml="http://www.w3.org/XML/1998/namespace" version="1.1">
  <g>
    <g>
      <path style="fill:#FF0000;fill-opacity:1" d="M0,15.41015625L5.03906345367432,15.41015625 11.25,37.96875 11.66015625,40.6640625 11.89453125,40.6640625 12.421875,37.91015625 19.3359375,15.41015625 23.73046875,15.41015625 29.94140625,38.02734375 30.380859375,40.72265625 30.615234375,40.72265625 31.11328125,38.02734375 37.20703125,15.41015625 41.953125,15.41015625 32.958984375,45.41015625 27.978515625,45.41015625 21.796875,23.935546875 21.328125,21.15234375 21.2109375,21.15234375 20.595703125,23.876953125 13.88671875,45.41015625 9.08203125,45.41015625 0,15.41015625z M19.541015625,0L23.4375,0 29.765625,9.7265625 26.19140625,9.7265625 21.38671875,2.98828125 16.552734375,9.7265625 13.2421875,9.7265625 19.541015625,0z" />
    </g>
  </g>
</svg>