<?xml version="1.0" encoding="utf-8"?>
<!DOCTYPE svg PUBLIC "-//W3C//DTD SVG 1.1//EN" "http://www.w3.org/Graphics/SVG/1.1/DTD/svg11.dtd">
<svg width="39.7265625" height="49.775390625" xmlns="http://www.w3.org/2000/svg" xmlns:xlink="http://www.w3.org/1999/xlink" xmlns:xml="http://www.w3.org/XML/1998/namespace" version="1.1">
  <g>
    <g>
      <path style="fill:#FF0000;fill-opacity:1" d="M20.0390625,10.810546875L16.8841552734375,11.1090087890625 14.04052734375,12.00439453125 11.5081787109375,13.4967041015625 9.287109375,15.5859375 7.4798583984375,18.1604022979736 6.18896484375,21.1084003448486 5.41442823410034,24.4299335479736 5.15624952316284,28.125 5.40801954269409,31.8173217773438 6.163330078125,35.130615234375 7.42218017578125,38.0648803710938 9.1845703125,40.6201171875 11.3516235351563,42.6901245117188 13.824462890625,44.168701171875 16.6030883789063,45.0558471679688 19.6875,45.3515625 22.9614238739014,45.069580078125 25.8691387176514,44.2236328125 28.4106426239014,42.813720703125 30.5859375,40.83984375 32.3291015625,38.3587646484375 33.57421875,35.42724609375 34.3212890625,32.0452880859375 34.5703125,28.212890625 34.32861328125,24.2889423370361 33.603515625,20.8374042510986 32.39501953125,17.8582782745361 30.703125,15.3515625 28.5864238739014,13.3648681640625 26.1035137176514,11.94580078125 23.2543926239014,11.0943603515625 20.0390625,10.810546875z M20.390625,6.357421875L24.5297241210938,6.7236328125 28.245849609375,7.822265625 31.5390014648438,9.6533203125 34.4091796875,12.216796875 36.7355346679688,15.3717041015625 38.397216796875,18.97705078125 39.3942260742188,23.0328369140625 39.7265625,27.5390625 39.385986328125,32.4114990234375 38.3642578125,36.74560546875 36.661376953125,40.5413818359375 34.27734375,43.798828125 31.322021484375,46.41357421875 27.9052734375,48.28125 24.027099609375,49.40185546875 19.6875,49.775390625 15.4421997070313,49.4073486328125 11.641845703125,48.30322265625 8.28643798828125,46.4630126953125 5.3759765625,43.88671875 3.02398681640625,40.7208251953125 1.343994140625,37.11181640625 0.33599853515625,33.0596923828125 0,28.564453125 0.3424072265625,23.75244140625 1.36962890625,19.453125 3.0816650390625,15.66650390625 5.478515625,12.392578125 8.4649658203125,9.752197265625 11.94580078125,7.8662109375 15.9210205078125,6.734619140625 20.390625,6.357421875z M12.59765625,0L27.48046875,0 27.48046875,3.193359375 12.59765625,3.193359375 12.59765625,0z" />
    </g>
  </g>
</svg>