<?xml version="1.0" encoding="utf-8"?>
<!DOCTYPE svg PUBLIC "-//W3C//DTD SVG 1.1//EN" "http://www.w3.org/Graphics/SVG/1.1/DTD/svg11.dtd">
<svg width="24.90234375" height="39.580078125" xmlns="http://www.w3.org/2000/svg" xmlns:xlink="http://www.w3.org/1999/xlink" xmlns:xml="http://www.w3.org/XML/1998/namespace" version="1.1">
  <g>
    <g>
      <path style="fill:#FF0000;fill-opacity:1" d="M0,8.876953125L4.775390625,8.876953125 4.775390625,26.044921875 5.2294921875,30.19775390625 6.591796875,33.1640625 8.8623046875,34.94384765625 12.041015625,35.537109375 15.245361328125,34.888916015625 17.8271484375,32.9443359375 19.5300273895264,29.952392578125 20.09765625,26.162109375 20.09765625,8.876953125 24.90234375,8.876953125 24.90234375,38.876953125 20.09765625,38.876953125 20.09765625,34.130859375 19.98046875,34.130859375 18.28125,36.514892578125 16.171875,38.2177734375 13.65234375,39.239501953125 10.72265625,39.580078125 8.20953369140625,39.3804931640625 6.031494140625,38.78173828125 4.18853759765625,37.7838134765625 2.6806640625,36.38671875 1.50787353515625,34.5904541015625 0.670166015625,32.39501953125 0.16754150390625,29.8004150390625 0,26.806640625 0,8.876953125z M4.892578125,0L19.775390625,0 19.775390625,3.193359375 4.892578125,3.193359375 4.892578125,0z" />
    </g>
  </g>
</svg>