<?xml version="1.0" encoding="utf-8"?>
<!DOCTYPE svg PUBLIC "-//W3C//DTD SVG 1.1//EN" "http://www.w3.org/Graphics/SVG/1.1/DTD/svg11.dtd">
<svg width="28.330078125" height="59.53125" xmlns="http://www.w3.org/2000/svg" xmlns:xlink="http://www.w3.org/1999/xlink" xmlns:xml="http://www.w3.org/XML/1998/namespace" version="1.1">
  <g>
    <g>
      <path style="fill:#FF0000;fill-opacity:1" d="M0,15.41015625L5.33203172683716,15.41015625 13.447265625,38.49609375 13.6743154525757,39.287109375 14.0625,40.78125 14.23828125,40.78125 14.4580068588257,39.873046875 14.82421875,38.5546875 23.349609375,15.41015625 28.330078125,15.41015625 14.53125,50.21484375 12.498779296875,54.290771484375 10.0927734375,57.2021484375 7.31323289871216,58.948974609375 4.16015720367432,59.53125 1.02539098262787,59.150390625 1.02539098262787,54.84375 3.86718726158142,55.37109375 5.570068359375,55.10009765625 7.0458984375,54.287109375 8.294677734375,52.93212890625 9.31640625,51.03515625 11.71875,45.3515625 0,15.41015625z M12.685546875,0L16.58203125,0 22.91015625,9.7265625 19.3359375,9.7265625 14.53125,2.98828125 9.697265625,9.7265625 6.38671922683716,9.7265625 12.685546875,0z" />
    </g>
  </g>
</svg>