<?xml version="1.0" encoding="utf-8"?>
<!DOCTYPE svg PUBLIC "-//W3C//DTD SVG 1.1//EN" "http://www.w3.org/Graphics/SVG/1.1/DTD/svg11.dtd">
<svg width="56.220703125" height="38.90625" xmlns="http://www.w3.org/2000/svg" xmlns:xlink="http://www.w3.org/1999/xlink" xmlns:xml="http://www.w3.org/XML/1998/namespace" version="1.1">
  <g>
    <g>
      <path style="fill:#FF0000;fill-opacity:1" d="M19.921875,1.640625L16.8795776367188,1.885986328125 14.051513671875,2.6220703125 11.4376831054688,3.848876953125 9.0380859375,5.56640625 7.03216552734375,7.78564548492432 5.599365234375,10.5175800323486 4.73968505859375,13.7622079849243 4.45312547683716,17.51953125 4.808349609375,21.46728515625 5.8740234375,25.166015625 7.5439453125,28.509521484375 9.7119140625,31.3916015625 12.2753896713257,33.739013671875 15.1318359375,35.478515625 18.145751953125,36.55517578125 21.181640625,36.9140625 24.5214824676514,36.59912109375 28.564453125,35.654296875 29.033203125,32.0654296875 29.2822265625,27.4365234375 29.3518047332764,24.100341796875 29.4140625,19.39453125 29.4140625,13.88671875 29.3994121551514,11.3095102310181 29.3554668426514,9.17358589172363 29.2822246551514,7.47894382476807 29.1796875,6.2255859375 28.8354473114014,4.508056640625 28.271484375,3.486328125 27.0922832489014,2.76123046875 24.9609375,2.16796875 19.921875,1.640625z M20.712890625,0L23.349609375,0.146484375 27.802734375,0.29296875 30.5419921875,0.34423828125 34.013671875,0.380859375 43.681640625,0.322265625 47.1643028259277,0.29296875 49.9951133728027,0.263671875 52.1740684509277,0.234375 53.701171875,0.205078125 53.935546875,0.498046875 53.9062461853027,0.90087890625 53.818359375,1.69921875 53.7304649353027,2.49755859375 53.701171875,2.900390625 53.5693321228027,4.658203125 53.349609375,5.947265625 52.55859375,7.880859375 51.591796875,7.5 51.97265625,5.361328125 51.6723594665527,4.02099609375 50.771484375,3.046875 47.63671875,2.0361328125 45.439453125,1.871337890625 42.71484375,1.81640625 38.1005859375,1.9189453125 35.921630859375,2.076416015625 34.21875,2.34375 33.9752197265625,4.87976121902466 33.80126953125,7.85888767242432 33.6968994140625,11.2811288833618 33.662109375,15.146484375 33.662109375,18.076171875 36.796875,18.193359375 39.4281005859375,18.1906127929688 41.60888671875,18.182373046875 43.3392333984375,18.1686401367188 44.619140625,18.1494140625 46.5234336853027,18.050537109375 48.017578125,17.841796875 48.5064659118652,17.5506591796875 48.9770469665527,16.85302734375 49.4293174743652,15.7489013671875 49.86328125,14.23828125 50.830078125,14.23828125 50.7641563415527,18.33984375 50.7421875,21.09375 50.771484375,25.283203125 49.74609375,25.283203125 49.5703086853027,22.94677734375 49.04296875,21.4453125 47.9553184509277,20.555419921875 46.0986328125,20.0537109375 44.7518920898438,19.9191284179688 42.952880859375,19.822998046875 40.7015991210938,19.7653198242188 37.998046875,19.74609375 33.720703125,19.921875 33.5888671875,22.34619140625 33.544921875,26.044921875 33.577880859375,29.23828125 33.6767578125,31.962890625 33.841552734375,34.21875 34.072265625,36.005859375 37.060546875,36.59912109375 40.810546875,36.796875 44.11376953125,36.734619140625 46.7578125,36.5478515625 50.6396484375,35.5810546875 53.349609375,33.3984375 54.4116172790527,31.7138671875 55.3125,29.58984375 56.220703125,29.53125 55.458984375,33.837890625 53.701171875,38.408203125 53.2177696228027,38.404541015625 52.3535118103027,38.3935546875 51.1083946228027,38.375244140625 49.482421875,38.349609375 46.58935546875,38.3056640625 45.17578125,38.291015625 30.498046875,38.291015625 22.44140625,38.642578125 20.7733154296875,38.7579345703125 19.51904296875,38.84033203125 18.6785888671875,38.8897705078125 18.251953125,38.90625 14.94140625,38.5400390625 11.630859375,37.44140625 8.492431640625,35.68359375 5.69824171066284,33.33984375 3.34716773033142,30.4541015625 1.53808569908142,27.0703125 0.384521454572678,23.3349609375 0,19.39453125 0.681152284145355,14.3847675323486 2.72460889816284,9.7265625 5.958251953125,5.70922946929932 10.2099609375,2.6220703125 15.216064453125,0.655517578125 20.712890625,0z" />
    </g>
  </g>
</svg>