<?xml version="1.0" encoding="utf-8"?>
<!DOCTYPE svg PUBLIC "-//W3C//DTD SVG 1.1//EN" "http://www.w3.org/Graphics/SVG/1.1/DTD/svg11.dtd">
<svg width="17.51953125" height="39.521484375" xmlns="http://www.w3.org/2000/svg" xmlns:xlink="http://www.w3.org/1999/xlink" xmlns:xml="http://www.w3.org/XML/1998/namespace" version="1.1">
  <g>
    <g>
      <path style="fill:#FF0000;fill-opacity:1" d="M9.9609375,0L9.9609375,8.876953125 17.51953125,8.876953125 17.51953125,12.978515625 9.9609375,12.978515625 9.9609375,18.955078125 17.2265625,18.955078125 17.2265625,22.8515625 9.9609375,22.8515625 9.9609375,29.8828125 10.213623046875,32.46826171875 10.9716796875,34.189453125 12.3303213119507,35.15625 14.384765625,35.478515625 16.04736328125,35.2294921875 17.51953125,34.482421875 17.51953125,38.583984375 15.54931640625,39.287109375 13.037109375,39.521484375 9.5892333984375,38.97216796875 7.12646484375,37.32421875 5.6488037109375,34.57763671875 5.15625,30.732421875 5.15625,22.8515625 0.380859732627869,22.8515625 0.380859732627869,18.955078125 5.15625,18.955078125 5.15625,12.978515625 0,12.978515625 0,8.876953125 5.15625,8.876953125 5.15625,1.552734375 5.8154296875,1.32568359375 7.55859375,0.76171875 9.9609375,0z" />
    </g>
  </g>
</svg>