<?xml version="1.0" encoding="utf-8"?>
<!DOCTYPE svg PUBLIC "-//W3C//DTD SVG 1.1//EN" "http://www.w3.org/Graphics/SVG/1.1/DTD/svg11.dtd">
<svg width="39.7265625" height="54.0234375" xmlns="http://www.w3.org/2000/svg" xmlns:xlink="http://www.w3.org/1999/xlink" xmlns:xml="http://www.w3.org/XML/1998/namespace" version="1.1">
  <g>
    <g>
      <path style="fill:#FF0000;fill-opacity:1" d="M20.0390625,15.05859375L16.8841552734375,15.3570556640625 14.04052734375,16.25244140625 11.5081787109375,17.7447509765625 9.287109375,19.833984375 7.4798583984375,22.4084491729736 6.18896436691284,25.3564472198486 5.41442823410034,28.6779804229736 5.15625,32.373046875 5.40801954269409,36.0653686523438 6.16332960128784,39.378662109375 7.42218017578125,42.3129272460938 9.1845703125,44.8681640625 11.3516235351563,46.9381713867188 13.824462890625,48.416748046875 16.6030883789063,49.3038940429688 19.6875,49.599609375 22.9614238739014,49.317626953125 25.8691387176514,48.4716796875 28.4106426239014,47.061767578125 30.5859375,45.087890625 32.3291015625,42.6068115234375 33.57421875,39.67529296875 34.3212890625,36.2933349609375 34.5703125,32.4609375 34.32861328125,28.5369892120361 33.603515625,25.0854511260986 32.39501953125,22.1063251495361 30.703125,19.599609375 28.5864238739014,17.6129150390625 26.1035137176514,16.19384765625 23.2543926239014,15.3424072265625 20.0390625,15.05859375z M20.390625,10.60546875L24.5297241210938,10.9716796875 28.245849609375,12.0703125 31.5390014648438,13.9013671875 34.4091796875,16.46484375 36.7355346679688,19.6197509765625 38.397216796875,23.22509765625 39.3942260742188,27.2808837890625 39.7265625,31.787109375 39.385986328125,36.6595458984375 38.3642578125,40.99365234375 36.661376953125,44.7894287109375 34.27734375,48.046875 31.322021484375,50.66162109375 27.9052734375,52.529296875 24.027099609375,53.64990234375 19.6875,54.0234375 15.4421997070313,53.6553955078125 11.641845703125,52.55126953125 8.28643798828125,50.7110595703125 5.3759765625,48.134765625 3.02398657798767,44.9688720703125 1.34399390220642,41.35986328125 0.33599841594696,37.3077392578125 0,32.8125 0.34240710735321,28.00048828125 1.36962866783142,23.701171875 3.08166480064392,19.91455078125 5.478515625,16.640625 8.4649658203125,14.000244140625 11.94580078125,12.1142578125 15.9210205078125,10.982666015625 20.390625,10.60546875z M12.12890625,0L15.05859375,0 15.50537109375,1.98669648170471 16.494140625,3.40576457977295 18.02490234375,4.25720405578613 20.09765625,4.54101514816284 21.9470195770264,4.23340129852295 23.5107421875,3.31054735183716 24.6496562957764,1.86767864227295 25.224609375,0 28.212890625,0 27.4182109832764,2.99194622039795 25.6201171875,5.34668016433716 23.0749492645264,6.873779296875 20.0390625,7.38281297683716 16.92626953125,6.87744140625 14.443359375,5.361328125 12.7807607650757,3.01025676727295 12.12890625,0z" />
    </g>
  </g>
</svg>