<?xml version="1.0" encoding="utf-8"?>
<!DOCTYPE svg PUBLIC "-//W3C//DTD SVG 1.1//EN" "http://www.w3.org/Graphics/SVG/1.1/DTD/svg11.dtd">
<svg width="19.892578125" height="45.99609375" xmlns="http://www.w3.org/2000/svg" xmlns:xlink="http://www.w3.org/1999/xlink" xmlns:xml="http://www.w3.org/XML/1998/namespace" version="1.1">
  <g>
    <g>
      <path style="fill:#FF0000;fill-opacity:1" d="M11.54296875,14.58984375L15.234375,14.9267597198486 18.515625,15.9375 18.515625,20.80078125 14.9560546875,19.1748065948486 10.8984375,18.6328125 8.466796875,18.9404296875 6.6064453125,19.8046875 5.4052734375,21.1376953125 4.98046875,22.8515625 5.4052734375,24.814453125 6.650390625,26.220703125 8.642578125,27.333984375 11.30859375,28.41796875 14.8828125,29.9853515625 17.578125,31.8017578125 19.2919921875,34.130859375 19.892578125,37.265625 19.647216796875,39.345703125 18.9111328125,41.1328125 16.2890625,43.857421875 12.509765625,45.46875 8.02734375,45.99609375 3.7060546875,45.54931640625 0,44.208984375 0,39.052734375 4.12353515625,41.22802734375 8.642578125,41.953125 11.4111328125,41.689453125 13.388671875,40.8984375 14.5751953125,39.580078125 14.970703125,37.734375 14.4287109375,35.6982421875 12.9638671875,34.21875 10.7958984375,33.0615234375 8.115234375,31.9921875 4.6142578125,30.3955078125 2.09472680091858,28.5791015625 0.5712890625,26.279296875 0.05859375,23.26171875 0.300292998552322,21.2731952667236 1.02539086341858,19.5263671875 3.60351586341858,16.8017578125 7.2802734375,15.146484375 11.54296875,14.58984375z M13.0078125,0L17.87109375,0 10.1953125,9.609375 6.474609375,9.609375 13.0078125,0z" />
    </g>
  </g>
</svg>