<?xml version="1.0" encoding="utf-8"?>
<!DOCTYPE svg PUBLIC "-//W3C//DTD SVG 1.1//EN" "http://www.w3.org/Graphics/SVG/1.1/DTD/svg11.dtd">
<svg width="50.5371093750008" height="67.3828125" xmlns="http://www.w3.org/2000/svg" xmlns:xlink="http://www.w3.org/1999/xlink" xmlns:xml="http://www.w3.org/XML/1998/namespace" version="1.1">
  <g>
    <g>
      <path style="fill:#FF0000;fill-opacity:1" d="M26.572265625,41.77734375L26.572265625,43.41796875 34.1015625,43.41796875 34.1015625,41.77734375 26.572265625,41.77734375z M16.552734375,41.77734375L16.552734375,43.41796875 24.111328125,43.41796875 24.111328125,41.77734375 16.552734375,41.77734375z M26.572265625,37.880859375L26.572265625,39.462890625 34.1015625,39.462890625 34.1015625,37.880859375 26.572265625,37.880859375z M16.552734375,37.880859375L16.552734375,39.462890625 24.111328125,39.462890625 24.111328125,37.880859375 16.552734375,37.880859375z M14.12109375,35.537109375L36.533203125,35.537109375 36.533203125,45.791015625 26.572265625,45.791015625 26.572265625,47.431640625 39.19921875,47.431640625 39.19921875,56.30859375 38.8916015625,57.83203125 38.0712890625,58.681640625 36.85546875,59.0625 35.361328125,59.150390625 34.013671875,59.150390625 33.046875,56.689453125 36.15234375,56.689453125 36.650390625,56.4990234375 36.796875,55.986328125 36.796875,49.8046875 26.572265625,49.8046875 26.572265625,52.646484375 28.3154296875,52.5 30.05859375,52.294921875 29.091796875,51.2109375 31.171875,49.86328125 33.1201171875,52.3681640625 34.892578125,54.990234375 32.724609375,56.220703125 32.2265625,55.2392578125 31.640625,54.31640625 24.19921875,55.2392578125 16.728515625,55.576171875 15.849609375,53.232421875 19.98046875,53.0712890625 24.111328125,52.91015625 24.111328125,49.8046875 14.560546875,49.8046875 14.560546875,59.00390625 12.12890625,59.00390625 12.12890625,49.8046875 10.166015625,49.8046875 10.166015625,47.431640625 12.12890625,47.431640625 12.12890625,46.40625 14.560546875,46.40625 14.560546875,47.431640625 24.111328125,47.431640625 24.111328125,45.791015625 14.12109375,45.791015625 14.12109375,35.537109375z M30.439453125,28.681640625L32.8125,28.681640625 32.8125,31.083984375 40.37109375,31.083984375 40.37109375,33.427734375 32.8125,33.427734375 32.8125,35.068359375 30.439453125,35.068359375 30.439453125,33.427734375 25.72265625,33.427734375 25.72265625,31.083984375 30.439453125,31.083984375 30.439453125,28.681640625z M18.603515625,28.681640625L21.064453125,28.681640625 21.064453125,31.083984375 24.90234375,31.083984375 24.90234375,33.427734375 21.064453125,33.427734375 21.064453125,35.068359375 18.603515625,35.068359375 18.603515625,33.427734375 10.224609375,33.427734375 10.224609375,31.083984375 18.603515625,31.083984375 18.603515625,28.681640625z M22.236328125,14.208984375L24.19921875,15.029296875 23.02734375,17.5634765625 21.416015625,20.2880859375 19.5849609375,22.8662109375 17.724609375,24.931640625 16.083984375,23.525390625 19.5849609375,19.1455078125 22.236328125,14.208984375z M27.802734375,14.091796875L31.11328125,18.544921875 34.1015625,23.203125 34.3359375,23.5546875 32.578125,25.01953125 29.8828125,20.537109375 26.77734375,16.34765625 26.1328125,15.5273427963257 27.802734375,14.091796875z M24.9609375,6.70898485183716L25.927734375,8.7890625 26.71875,10.95703125 33.896484375,10.95703125 33.896484375,13.037109375 16.611328125,13.037109375 16.611328125,10.95703125 24.521484375,10.95703125 22.939453125,7.529296875 24.9609375,6.70898485183716z M8.408203125,4.21874952316284L6.767578125,4.5556640625 5.4345703125,5.46386766433716 4.541015625,6.796875 4.21875,8.4375 4.21875,58.974609375 4.541015625,60.615234375 5.4345703125,61.9482421875 6.767578125,62.841796875 8.408203125,63.1640625 42.099609375,63.1640625 43.740234375,62.841796875 45.0732421875,61.9482421875 45.9814453125,60.615234375 46.318359375,58.974609375 46.318359375,8.4375 45.9814453125,6.796875 45.0732421875,5.46386766433716 43.740234375,4.5556640625 42.099609375,4.21874952316284 8.408203125,4.21874952316284z M8.408203125,0L42.099609375,0 45.3955078125,0.659179925918579 48.076171875,2.46093702316284 49.8779296875,5.1416015625 50.537109375,8.4375 50.537109375,58.974609375 49.86328125,62.2265625 48.046875,64.892578125 45.3662109375,66.708984375 42.099609375,67.3828125 8.408203125,67.3828125 5.1416015625,66.7236328125 2.4609375,64.921875 0.6591796875,62.2412109375 0,58.974609375 0,8.4375 0.673828125,5.1708984375 2.490234375,2.49023413658142 5.15625,0.673828601837158 8.408203125,0z" />
    </g>
  </g>
</svg>