<?xml version="1.0" encoding="utf-8"?>
<!DOCTYPE svg PUBLIC "-//W3C//DTD SVG 1.1//EN" "http://www.w3.org/Graphics/SVG/1.1/DTD/svg11.dtd">
<svg width="50.5371093750008" height="67.3828125" xmlns="http://www.w3.org/2000/svg" xmlns:xlink="http://www.w3.org/1999/xlink" xmlns:xml="http://www.w3.org/XML/1998/namespace" version="1.1">
  <g>
    <g>
      <path style="fill:#FF0000;fill-opacity:1" d="M33.69140625,53.701171875L34.4384765625,54.0087890625 34.74609375,54.755859375 34.4384765625,55.5029296875 33.69140625,55.810546875 32.9443359375,55.5029296875 32.63671875,54.755859375 32.9443359375,54.0087890625 33.69140625,53.701171875z M30.52734375,50.537109375L31.2744140625,50.8447265625 31.58203125,51.591796875 31.2744140625,52.3388671875 30.52734375,52.646484375 29.7802734375,52.3388671875 29.47265625,51.591796875 29.7802734375,50.8447265625 30.52734375,50.537109375z M27.36328125,47.373046875L28.1103515625,47.6806640625 28.41796875,48.427734375 28.1103515625,49.1748046875 27.36328125,49.482421875 26.6162109375,49.1748046875 26.30859375,48.427734375 26.6162109375,47.6806640625 27.36328125,47.373046875z M25.25390625,40.60546875L25.25390625,48.427734375 25.8837890625,49.9072265625 27.36328125,50.537109375 28.1103515625,50.8447265625 28.41796875,51.591796875 29.033203125,53.0859375 30.52734375,53.701171875 31.2744140625,54.0087890625 31.58203125,54.755859375 32.2119140625,56.2353515625 33.69140625,56.865234375 35.1708984375,56.2353515625 35.80078125,54.755859375 35.80078125,46.201171875 32.816162109375,45.53466796875 30.0146484375,44.35546875 27.469482421875,42.7001953125 25.25390625,40.60546875z M25.25390625,27.36328125L23.7890625,27.9931640625 23.173828125,29.47265625 26.30859375,29.47265625 27.0556640625,29.7802734375 27.36328125,30.52734375 27.0556640625,31.2744140625 26.30859375,31.58203125 23.3203125,31.58203125 23.5107421875,32.63671875 23.7890625,33.69140625 28.41796875,33.69140625 29.1650390625,33.9990234375 29.47265625,34.74609375 29.1650390625,35.4931640625 28.41796875,35.80078125 24.580078125,35.80078125 25.810546875,37.91015625 32.63671875,37.91015625 33.3837890625,38.2177734375 33.69140625,38.96484375 33.3837890625,39.7119140625 32.63671875,40.01953125 27.59765625,40.01953125 31.376953125,42.71484375 35.80078125,44.0625 35.80078125,37.91015625 35.592041015625,35.804443359375 34.9658203125,33.8232421875 32.6953125,30.46875 29.3408203125,28.1982421875 27.359619140625,27.5720233917236 25.25390625,27.36328125z M20.009765625,14.736328125L20.7568359375,15.0439453125 21.064453125,15.791015625 20.7568359375,16.5380859375 20.009765625,16.845703125 19.2626953125,16.5380859375 18.955078125,15.791015625 19.2626953125,15.0439453125 20.009765625,14.736328125z M20.009765625,12.626953125L18.7939453125,12.8759765625 17.783203125,13.564453125 17.0947265625,14.5751953125 16.845703125,15.791015625 16.845703125,29.47265625 17.51953125,29.47265625 18.5302734375,29.6630859375 18.955078125,30.52734375 18.486328125,31.4208984375 17.4609375,31.58203125 16.845703125,31.58203125 16.845703125,33.69140625 17.51953125,33.69140625 18.5302734375,33.8818359375 18.955078125,34.74609375 18.7939453125,35.3466796875 18.3837890625,35.6689453125 17.841796875,35.7861328125 17.255859375,35.80078125 16.93359375,35.80078125 17.6513671875,38.0712890625 19.013671875,39.9609375 20.9033203125,41.3232421875 23.173828125,42.041015625 23.173828125,37.67578125 21.6064453125,33.720703125 21.064453125,29.47265625 21.4453125,27.7294921875 22.5,26.30859375 21.4453125,24.90234375 21.064453125,23.173828125 21.38671875,21.533203125 22.2802734375,20.2001953125 23.61328125,19.2919921875 25.25390625,18.955078125 24.638671875,17.4755859375 23.173828125,16.845703125 23.173828125,15.791015625 22.9248046875,14.5751953125 22.236328125,13.564453125 21.2255859375,12.8759765625 20.009765625,12.626953125z M24.228515625,6.328125L24.9462890625,6.650390625 25.25390625,7.3828125 25.01953125,8.056640625 24.4189453125,8.37890625 23.5986328125,8.583984375 22.6904296875,8.876953125 21.8408203125,9.4921875 21.181640625,10.6640625 22.705078125,11.279296875 23.9501953125,12.333984375 24.8291015625,13.7109375 25.25390625,15.29296875 26.3818359375,16.23046875 27.0263671875,17.28515625 27.3046875,18.4716796875 27.36328125,19.8046875 27.36328125,21.064453125 26.25,21.064453125 25.1220703125,21.123046875 24.140625,21.4013671875 23.4375,22.0458984375 23.173828125,23.173828125 23.7890625,24.6533203125 25.25390625,25.283203125 27.784423828125,25.5322284698486 30.1611328125,26.279296875 34.189453125,28.9892578125 36.9140625,33.0029296875 37.6611328125,35.379638671875 37.91015625,37.91015625 37.91015625,54.755859375 37.5732421875,56.396484375 36.6650390625,57.7294921875 35.33203125,58.6376953125 33.69140625,58.974609375 32.28515625,58.7255859375 31.0693359375,58.037109375 30.146484375,56.9970703125 29.58984375,55.693359375 27.5244140625,54.5947265625 26.42578125,52.529296875 25.1220703125,51.97265625 24.08203125,51.0498046875 23.408203125,49.833984375 23.173828125,48.427734375 23.173828125,44.150390625 22.1044921875,43.974609375 21.064453125,43.681640625 21.064453125,52.646484375 21.73828125,52.646484375 22.7490234375,52.8369140625 23.173828125,53.701171875 22.646484375,54.5947265625 21.50390625,54.78515625 20.9033203125,54.7705078125 20.390625,54.755859375 19.3359375,56.1767578125 18.955078125,57.919921875 18.6328125,58.65234375 17.900390625,58.974609375 17.16796875,58.65234375 16.845703125,57.919921875 17.197265625,55.869140625 16.58203125,56.513671875 15.791015625,56.865234375 15.05859375,56.54296875 14.736328125,55.810546875 15.2197265625,54.7705078125 16.3916015625,53.8330078125 17.7978515625,53.115234375 18.955078125,52.734375 18.955078125,42.626953125 18.28125,42.12890625 17.2265625,43.53515625 16.845703125,45.263671875 16.5380859375,46.0107421875 15.791015625,46.318359375 15.0439453125,46.0107421875 14.736328125,45.263671875 15.087890625,43.212890625 14.47265625,43.8720703125 13.681640625,44.208984375 12.9345703125,43.916015625 12.626953125,43.18359375 13.0810546875,42.216796875 14.150390625,41.2939453125 15.41015625,40.576171875 16.46484375,40.1953125 15.17578125,37.6025390625 14.736328125,34.74609375 14.736328125,15.791015625 15.05859375,13.9599609375 15.9521484375,12.4072265625 17.314453125,11.25 19.04296875,10.60546875 19.7021484375,8.90625 20.8740234375,7.5439453125 22.4267578125,6.650390625 24.228515625,6.328125z M8.408203125,4.21874952316284L6.767578125,4.5556640625 5.4345703125,5.46386766433716 4.541015625,6.796875 4.21875,8.4375 4.21875,58.974609375 4.541015625,60.615234375 5.4345703125,61.9482421875 6.767578125,62.841796875 8.408203125,63.1640625 42.099609375,63.1640625 43.740234375,62.841796875 45.0732421875,61.9482421875 45.9814453125,60.615234375 46.318359375,58.974609375 46.318359375,8.4375 45.9814453125,6.796875 45.0732421875,5.46386766433716 43.740234375,4.5556640625 42.099609375,4.21874952316284 8.408203125,4.21874952316284z M8.408203125,0L42.099609375,0 45.3955078125,0.659179925918579 48.076171875,2.46093702316284 49.8779296875,5.1416015625 50.537109375,8.4375 50.537109375,58.974609375 49.86328125,62.2265625 48.046875,64.892578125 45.3662109375,66.708984375 42.099609375,67.3828125 8.408203125,67.3828125 5.1416015625,66.7236328125 2.4609375,64.921875 0.6591796875,62.2412109375 0,58.974609375 0,8.4375 0.673828125,5.1708984375 2.490234375,2.49023413658142 5.15625,0.673828601837158 8.408203125,0z" />
    </g>
  </g>
</svg>