<?xml version="1.0" encoding="utf-8"?>
<!DOCTYPE svg PUBLIC "-//W3C//DTD SVG 1.1//EN" "http://www.w3.org/Graphics/SVG/1.1/DTD/svg11.dtd">
<svg width="50.5371093750008" height="67.3828125" xmlns="http://www.w3.org/2000/svg" xmlns:xlink="http://www.w3.org/1999/xlink" xmlns:xml="http://www.w3.org/XML/1998/namespace" version="1.1">
  <g>
    <g>
      <path style="fill:#FF0000;fill-opacity:1" d="M35.80078125,45.5859375L35.33203125,45.849609375 35.2734375,46.40625 35.0537109375,46.318359375 34.716796875,46.23046875 34.3359375,46.3623046875 34.189453125,46.728515625 34.3505859375,47.0947265625 34.716796875,47.34375 34.453125,47.5927734375 34.189453125,48.017578125 34.716796875,48.544921875 34.9951171875,48.45703125 35.2734375,48.28125 35.2734375,48.3984375 35.3466796875,48.92578125 35.80078125,49.16015625 36.26953125,48.896484375 36.328125,48.33984375 36.5625,48.427734375 36.884765625,48.544921875 37.2509765625,48.3984375 37.3828125,48.017578125 37.2216796875,47.6220703125 36.85546875,47.373046875 36.9140625,47.34375 36.97265625,47.314453125 37.2509765625,47.109375 37.3828125,46.7578125 36.85546875,46.23046875 36.591796875,46.318359375 36.328125,46.46484375 36.328125,46.34765625 36.2548828125,45.8203125 35.80078125,45.5859375z M37.91015625,41.07421875L38.6572265625,41.3818359375 38.96484375,42.12890625 38.642578125,42.8466796875 37.91015625,43.154296875 37.177734375,42.8466796875 36.85546875,42.12890625 37.1630859375,41.3818359375 37.91015625,41.07421875z M29.47265625,41.07421875L30.2197265625,41.3818359375 30.52734375,42.12890625 30.205078125,42.8466796875 29.47265625,43.154296875 28.740234375,42.8466796875 28.41796875,42.12890625 28.7255859375,41.3818359375 29.47265625,41.07421875z M22.119140625,39.287109375L21.650390625,39.55078125 21.591796875,40.107421875 21.3720703125,40.01953125 21.03515625,39.931640625 20.5078125,40.4296875 20.6689453125,40.7958984375 21.03515625,41.044921875 20.9765625,41.103515625 20.6396484375,41.30859375 20.5078125,41.689453125 21.03515625,42.216796875 21.3134765625,42.12890625 21.591796875,41.982421875 21.591796875,42.099609375 21.6796875,42.6123046875 22.119140625,42.83203125 22.587890625,42.568359375 22.646484375,41.982421875 22.9248046875,42.12890625 23.203125,42.216796875 23.5693359375,42.0703125 23.701171875,41.689453125 23.5693359375,41.30859375 23.232421875,41.103515625 23.49609375,40.869140625 23.701171875,40.4296875 23.203125,39.931640625 22.9248046875,40.01953125 22.646484375,40.166015625 22.646484375,40.048828125 22.5732421875,39.521484375 22.119140625,39.287109375z M32.63671875,35.068359375L32.16796875,35.33203125 32.109375,35.888671875 31.8896484375,35.80078125 31.552734375,35.712890625 31.025390625,36.2109375 31.1865234375,36.5771484375 31.552734375,36.826171875 31.2890625,37.0751953125 31.025390625,37.5 31.1865234375,37.8515625 31.552734375,37.998046875 31.8310546875,37.91015625 32.109375,37.763671875 32.109375,37.880859375 32.1826171875,38.408203125 32.63671875,38.642578125 33.10546875,38.37890625 33.1640625,37.822265625 33.3837890625,37.91015625 33.720703125,37.998046875 34.0869140625,37.8515625 34.248046875,37.5 34.0869140625,37.1337890625 33.720703125,36.884765625 33.984375,36.6357421875 34.248046875,36.2109375 33.720703125,35.712890625 33.4423828125,35.80078125 33.1640625,35.947265625 33.1640625,35.830078125 33.0908203125,35.302734375 32.63671875,35.068359375z M29.47265625,24.55078125L29.00390625,24.814453125 28.9453125,25.400390625 28.6669921875,25.25390625 28.388671875,25.166015625 28.0224609375,25.3125 27.890625,25.693359375 28.0224609375,26.07421875 28.359375,26.279296875 28.095703125,26.513671875 27.890625,26.953125 28.0224609375,27.333984375 28.388671875,27.48046875 28.6669921875,27.4072265625 28.9453125,27.24609375 28.9453125,27.36328125 29.033203125,27.8759765625 29.47265625,28.095703125 29.94140625,27.83203125 30,27.24609375 30.2783203125,27.4072265625 30.556640625,27.48046875 31.083984375,26.953125 30.9228515625,26.5869140625 30.556640625,26.337890625 30.615234375,26.279296875 30.9521484375,26.07421875 31.083984375,25.693359375 30.9521484375,25.3125 30.5859375,25.166015625 30.29296875,25.25390625 30,25.400390625 30,25.283203125 29.912109375,24.7705078125 29.47265625,24.55078125z M29.47265625,22.119140625L30.7470703125,22.529296875 31.5234375,23.61328125 33.0615234375,24.2431640625 33.69140625,25.78125 33.45703125,26.748046875 32.8125,27.509765625 32.900390625,28.154296875 32.2705078125,29.6923828125 30.732421875,30.3515625 29.47265625,29.912109375 28.212890625,30.3515625 27.01171875,29.970703125 26.220703125,29.00390625 22.55859375,29.912109375 29.4140625,34.482421875 30.5859375,34.130859375 31.376953125,33.046875 32.63671875,32.63671875 33.896484375,33.046875 34.6875,34.130859375 36.2109375,34.775390625 36.85546875,36.298828125 36.6064453125,37.265625 35.947265625,38.02734375 36.064453125,38.701171875 35.68359375,39.931640625 34.6875,40.72265625 35.5078125,43.18359375 35.771484375,43.18359375 37.0751953125,43.564453125 37.8515625,44.6484375 39.375,45.2783203125 40.01953125,46.787109375 39.7705078125,47.783203125 39.111328125,48.57421875 39.228515625,49.248046875 38.583984375,50.7568359375 37.060546875,51.38671875 35.80078125,50.9765625 34.541015625,51.38671875 32.98828125,50.771484375 32.373046875,49.21875 32.4609375,48.57421875 31.81640625,47.783203125 31.58203125,46.81640625 32.2265625,45.29296875 33.75,44.6484375 33.046875,42.626953125 32.431640625,40.576171875 31.34765625,40.869140625 29.82421875,40.2392578125 29.208984375,38.701171875 29.326171875,38.02734375 28.67431640625,37.33154296875 28.41796875,36.357421875 24.228515625,33.544921875 24.228515625,38.349609375 25.7080078125,39.0087890625 26.337890625,40.48828125 26.0888671875,41.4697265625 25.4296875,42.24609375 25.546875,42.919921875 24.90234375,44.443359375 23.37890625,45.087890625 22.119140625,44.6484375 20.859375,45.087890625 19.3212890625,44.443359375 18.69140625,42.890625 18.779296875,42.24609375 18.1201152801514,41.513671875 17.900390625,40.546875 18.5302734375,38.994140625 20.068359375,38.349609375 20.8447265625,37.265625 22.119140625,36.85546875 22.119140625,32.138671875 13.095703125,26.1328125 12.626953125,25.25390625 12.94921875,24.5361328125 13.681640625,24.228515625 14.3408203125,24.4921875 15.46875,25.166015625 16.845703125,26.0595703125 18.251953125,27.01171875 19.4384765625,27.8466796875 20.185546875,28.359375 20.5078125,28.271484375 20.009765625,27.36328125 20.33203125,26.630859375 21.064453125,26.30859375 21.796875,26.630859375 22.119140625,27.36328125 21.97265625,27.919921875 25.634765625,26.982421875 25.283203125,25.751953125 25.9130859375,24.2431640625 27.421875,23.61328125 28.212890625,22.529296875 29.47265625,22.119140625z M36.591796875,13.095703125L36.591796875,14.00390625 38.49609375,13.76953125 38.49609375,14.326171875 36.591796875,14.560546875 36.591796875,15.380859375 38.876953125,15.380859375 38.876953125,13.095703125 36.591796875,13.095703125z M37.03125,6.328125L38.26171875,6.650390625 38.115234375,7.73437452316284 40.458984375,7.44140625 40.458984375,8.115234375 37.939453125,8.408203125 37.822265625,9.19921875 40.048828125,8.96484375 40.048828125,9.287109375 37.705078125,9.755859375 37.5,10.37109375 41.572265625,9.755859375 42.0703125,10.751953125 39.052734375,11.07421875 41.4404296875,12.7001953125 44.208984375,13.3886709213257 44.208984375,13.916015625 43.18359375,14.2529296875 42.12890625,14.384765625 41.3671875,13.9599609375 40.2685546875,12.9931640625 39.1845703125,11.923828125 38.49609375,11.162109375 37.119140625,11.30859375 36.474609375,12.216796875 39.55078125,12.36328125 39.55078125,16.728515625 38.876953125,16.845703125 38.876953125,15.732421875 36.591796875,15.849609375 36.591796875,16.611328125 35.859375,16.494140625 35.859375,13.095703125 34.5556640625,14.1943359375 33.076171875,15.05859375 32.900390625,14.384765625 33.9404296875,13.7841796875 34.775390625,13.1103515625 35.4931640625,12.3193359375 36.2109375,11.3671875 34.072265625,11.66015625 34.189453125,10.869140625 36.591796875,10.48828125 36.826171875,9.873046875 35.537109375,10.13671875 35.654296875,9.345703125 36.943359375,9.287109375 37.03125,8.5546875 35.537109375,8.7890625 35.537109375,8.056640625 37.03125,7.85156297683716 37.03125,6.328125z M8.408203125,4.21874952316284L6.767578125,4.5556640625 5.4345703125,5.46386766433716 4.541015625,6.796875 4.21875,8.4375 4.21875,58.974609375 4.541015625,60.615234375 5.4345703125,61.9482421875 6.767578125,62.841796875 8.408203125,63.1640625 42.099609375,63.1640625 43.740234375,62.841796875 45.0732421875,61.9482421875 45.9814453125,60.615234375 46.318359375,58.974609375 46.318359375,8.4375 45.9814453125,6.796875 45.0732421875,5.46386766433716 43.740234375,4.5556640625 42.099609375,4.21874952316284 8.408203125,4.21874952316284z M8.408203125,0L42.099609375,0 45.3955078125,0.659179925918579 48.076171875,2.46093702316284 49.8779296875,5.1416015625 50.537109375,8.4375 50.537109375,58.974609375 49.86328125,62.2265625 48.046875,64.892578125 45.3662109375,66.708984375 42.099609375,67.3828125 8.408203125,67.3828125 5.1416015625,66.7236328125 2.4609375,64.921875 0.6591796875,62.2412109375 0,58.974609375 0,8.4375 0.673828125,5.1708984375 2.490234375,2.49023413658142 5.15625,0.673828601837158 8.408203125,0z" />
    </g>
  </g>
</svg>