<?xml version="1.0" encoding="utf-8"?>
<!DOCTYPE svg PUBLIC "-//W3C//DTD SVG 1.1//EN" "http://www.w3.org/Graphics/SVG/1.1/DTD/svg11.dtd">
<svg width="50.5371093750008" height="67.3828125" xmlns="http://www.w3.org/2000/svg" xmlns:xlink="http://www.w3.org/1999/xlink" xmlns:xml="http://www.w3.org/XML/1998/namespace" version="1.1">
  <g>
    <g>
      <path style="fill:#FF0000;fill-opacity:1" d="M34.74609375,48.427734375L35.4931640625,48.7353515625 35.80078125,49.482421875 35.4931640625,50.2294921875 34.74609375,50.537109375 33.9990234375,50.2294921875 33.69140625,49.482421875 33.9990234375,48.7353515625 34.74609375,48.427734375z M24.228515625,43.154296875L24.9462890625,43.4765625 25.25390625,44.208984375 24.9462890625,44.94140625 24.228515625,45.263671875 23.4814453125,44.9560546875 23.173828125,44.208984375 23.49609375,43.4765625 24.228515625,43.154296875z M24.228515625,41.07421875L23.0126953125,41.3232421875 22.001953125,41.982421875 21.3134765625,42.978515625 21.064453125,44.208984375 21.3134765625,45.4541015625 21.9873046875,46.4501953125 22.9833984375,47.1240234375 24.228515625,47.373046875 25.458984375,47.1240234375 26.455078125,46.435546875 27.1142578125,45.4248046875 27.36328125,44.208984375 27.1142578125,42.9931640625 26.4404296875,41.9970703125 25.4443359375,41.3232421875 24.228515625,41.07421875z M13.681640625,35.80078125L14.4287109375,36.1083984375 14.736328125,36.85546875 14.4287109375,37.6025390625 13.681640625,37.91015625 12.9345703125,37.6025390625 12.626953125,36.85546875 12.9345703125,36.1083984375 13.681640625,35.80078125z M36.85546875,33.69140625L37.6025390625,33.9990234375 37.91015625,34.74609375 37.6025390625,35.4931640625 36.85546875,35.80078125 36.1083984375,35.4931640625 35.80078125,34.74609375 36.1083984375,33.9990234375 36.85546875,33.69140625z M28.41796875,29.47265625L29.1650390625,29.7802734375 29.47265625,30.52734375 29.1650390625,31.2744140625 28.41796875,31.58203125 27.6708984375,31.2744140625 27.36328125,30.52734375 27.6708984375,29.7802734375 28.41796875,29.47265625z M20.009765625,21.064453125L20.7568359375,21.3720703125 21.064453125,22.119140625 20.7568359375,22.8662109375 20.009765625,23.173828125 19.2626953125,22.8662109375 18.955078125,22.119140625 19.2626953125,21.3720703125 20.009765625,21.064453125z M20.009765625,18.955078125L18.7646484375,19.2041015625 17.7685546875,19.8779296875 17.0947265625,20.888671875 16.845703125,22.119140625 17.0947265625,23.3349609375 17.783203125,24.345703125 18.7939453125,25.0341796875 20.009765625,25.283203125 21.2255859375,25.0341796875 22.236328125,24.345703125 22.9248046875,23.3349609375 23.173828125,22.119140625 22.9248046875,20.9033203125 22.236328125,19.892578125 21.2255859375,19.2041015625 20.009765625,18.955078125z M18.45703125,14.736328125L19.5556640625,15.1904296875 20.009765625,16.2890625 20.4638671875,15.1904296875 21.5625,14.736328125 22.67578125,15.1904296875 23.115234375,16.318359375 23.056640625,16.669921875 22.939453125,16.9921875 23.49609375,16.4794921875 24.2578125,16.2890625 25.37109375,16.7431640625 25.810546875,17.87109375 25.13671875,19.16015625 25.83984375,19.013671875 26.923828125,19.482421875 27.36328125,20.595703125 26.9384765625,21.6357421875 25.927734375,22.119140625 26.9384765625,22.6171875 27.36328125,23.642578125 26.923828125,24.7705078125 25.810546875,25.224609375 25.107421875,25.078125 25.6201171875,25.634765625 25.810546875,26.3671875 25.37109375,27.48046875 24.2578125,27.919921875 22.96875,27.3046875 23.115234375,27.919921875 22.55859375,29.12109375 26.54296875,37.060546875 26.865234375,37.3388671875 27.158203125,37.67578125 36.09375,28.740234375 36.826171875,28.447265625 37.5732421875,28.7548828125 37.880859375,29.501953125 37.587890625,30.234375 29.208984375,38.61328125 29.8095703125,39.1552734375 30.029296875,39.9609375 29.296875,41.279296875 30,41.103515625 31.1279296875,41.5576171875 31.58203125,42.685546875 31.1572265625,43.7255859375 30.146484375,44.208984375 31.1572265625,44.7216796875 31.58203125,45.76171875 31.1279296875,46.8896484375 30,47.34375 29.326171875,47.2265625 29.8388671875,47.7685546875 30.029296875,48.486328125 29.560546875,49.5703125 28.4765625,50.0390625 27.685546875,49.8486328125 27.12890625,49.27734375 27.333984375,50.009765625 26.8798828125,51.1376953125 25.751953125,51.591796875 24.7119140625,51.1669921875 24.228515625,50.15625 23.7890625,51.09375 22.880859375,51.5625 21.005859375,57.1875 20.6103515625,57.71484375 20.009765625,57.919921875 19.2626953125,57.6123046875 18.955078125,56.865234375 19.0869140625,56.25 19.4384765625,55.078125 19.921875,53.6279296875 20.419921875,52.1630859375 20.8447265625,50.947265625 21.123046875,50.21484375 21.09375,49.98046875 21.240234375,49.306640625 20.68359375,49.8486328125 19.951171875,50.0390625 18.8671875,49.5703125 18.3984375,48.486328125 18.57421875,47.7685546875 19.072265625,47.2265625 18.427734375,47.34375 17.2998046875,46.8896484375 16.845703125,45.76171875 17.255859375,44.7216796875 18.251953125,44.208984375 17.255859375,43.7255859375 16.845703125,42.685546875 17.2998046875,41.5576171875 18.427734375,41.103515625 18.75,41.162109375 19.072265625,41.279296875 18.57421875,40.72265625 18.3984375,39.9609375 18.8671875,38.876953125 19.951171875,38.408203125 20.6689453125,38.5986328125 21.2109375,39.111328125 21.09375,38.4375 21.5478515625,37.3095703125 22.67578125,36.85546875 23.7158203125,37.2802734375 24.228515625,38.291015625 24.462890625,37.587890625 19.892578125,28.4765625 19.3505859375,29.1943359375 18.486328125,29.47265625 17.373046875,29.033203125 16.904296875,27.94921875 17.05078125,27.275390625 15.76171875,27.919921875 14.6337890625,27.48046875 14.1796875,26.3671875 14.35546875,25.6494140625 14.853515625,25.107421875 14.208984375,25.224609375 13.0810546875,24.78515625 12.626953125,23.671875 13.037109375,22.6318359375 14.033203125,22.119140625 13.037109375,21.62109375 12.626953125,20.56640625 13.0810546875,19.4677734375 14.1796875,19.013671875 14.5458984375,19.04296875 14.8828125,19.189453125 14.3701171875,18.603515625 14.1796875,17.841796875 14.6337890625,16.7431640625 15.732421875,16.2890625 16.4794921875,16.494140625 17.05078125,17.021484375 16.9189453125,16.6845703125 16.904296875,16.2890625 17.3583984375,15.1904296875 18.45703125,14.736328125z M37.822265625,10.3125L38.935546875,10.810546875 38.935546875,11.484375 37.705078125,10.986328125 37.822265625,10.3125z M41.806640625,8.73046875L42.24609375,8.73046875 42.978515625,9.84375 41.015625,10.751953125 40.576171875,10.576171875 41.806640625,8.73046875z M39.345703125,6.328125L40.751953125,6.9140625 40.2685546875,8.466796875 40.166015625,10.107421875 40.2099609375,11.0595703125 40.3125,12.01171875 41.9677734375,13.974609375 44.208984375,15.1464853286743 44.208984375,15.498046875 43.2861328125,15.791015625 42.333984375,15.908203125 41.7333984375,15.4833984375 41.0009765625,14.4873046875 40.3271484375,13.3886709213257 39.90234375,12.626953125 39.2578125,13.7255859375 38.6279296875,14.501953125 37.8662109375,15.1611328125 36.796875,15.849609375 36.5625,15.205078125 37.4267578125,14.5166015625 38.3349609375,13.6669921875 39.052734375,12.7001953125 39.345703125,11.689453125 39.345703125,6.328125z M36.708984375,6.328125L37.763671875,7.55859375 37.55859375,7.91015625 36.357421875,8.3203125 36.357421875,9.84375 37.44140625,9.609375 37.44140625,10.37109375 36.357421875,10.60546875 36.357421875,11.484375 37.763671875,12.0703125 37.705078125,13.06640625 36.357421875,12.1875 36.005859375,16.7578125 35.595703125,16.845703125 35.595703125,12.0703125 34.16015625,13.41796875 32.607421875,14.619140625 32.607421875,13.828125 34.2333984375,12.421875 35.595703125,10.751953125 32.87109375,11.220703125 32.51953125,10.37109375 35.595703125,9.990234375 35.595703125,8.583984375 34.365234375,9.140625 34.16015625,8.49609375 36.708984375,6.328125z M8.408203125,4.21874952316284L6.767578125,4.5556640625 5.4345703125,5.46386766433716 4.541015625,6.796875 4.21875,8.4375 4.21875,58.974609375 4.541015625,60.615234375 5.4345703125,61.9482421875 6.767578125,62.841796875 8.408203125,63.1640625 42.099609375,63.1640625 43.740234375,62.841796875 45.0732421875,61.9482421875 45.9814453125,60.615234375 46.318359375,58.974609375 46.318359375,8.4375 45.9814453125,6.796875 45.0732421875,5.46386766433716 43.740234375,4.5556640625 42.099609375,4.21874952316284 8.408203125,4.21874952316284z M8.408203125,0L42.099609375,0 45.3955078125,0.659179925918579 48.076171875,2.46093702316284 49.8779296875,5.1416015625 50.537109375,8.4375 50.537109375,58.974609375 49.86328125,62.2265625 48.046875,64.892578125 45.3662109375,66.708984375 42.099609375,67.3828125 8.408203125,67.3828125 5.1416015625,66.7236328125 2.4609375,64.921875 0.6591796875,62.2412109375 0,58.974609375 0,8.4375 0.673828125,5.1708984375 2.490234375,2.49023413658142 5.15625,0.673828601837158 8.408203125,0z" />
    </g>
  </g>
</svg>