<?xml version="1.0" encoding="utf-8"?>
<!DOCTYPE svg PUBLIC "-//W3C//DTD SVG 1.1//EN" "http://www.w3.org/Graphics/SVG/1.1/DTD/svg11.dtd">
<svg width="50.5371093750008" height="67.3828125" xmlns="http://www.w3.org/2000/svg" xmlns:xlink="http://www.w3.org/1999/xlink" xmlns:xml="http://www.w3.org/XML/1998/namespace" version="1.1">
  <g>
    <g>
      <path style="fill:#FF0000;fill-opacity:1" d="M26.806640625,26.103515625L26.806640625,36.5625 37.55859375,36.5625 37.55859375,26.103515625 26.806640625,26.103515625z M13.18359375,26.103515625L13.18359375,36.5625 24.052734375,36.5625 24.052734375,26.103515625 13.18359375,26.103515625z M24.052734375,16.46484375L26.806640625,16.46484375 26.806640625,23.291015625 40.37109375,23.291015625 40.37109375,39.375 26.806640625,39.375 26.806640625,50.91796875 24.052734375,50.91796875 24.052734375,39.375 10.4296875,39.375 10.4296875,23.291015625 24.052734375,23.291015625 24.052734375,16.46484375z M8.408203125,4.21874952316284L6.767578125,4.5556640625 5.4345703125,5.46386766433716 4.541015625,6.796875 4.21875,8.4375 4.21875,58.974609375 4.541015625,60.615234375 5.4345703125,61.9482421875 6.767578125,62.841796875 8.408203125,63.1640625 42.099609375,63.1640625 43.740234375,62.841796875 45.0732421875,61.9482421875 45.9814453125,60.615234375 46.318359375,58.974609375 46.318359375,8.4375 45.9814453125,6.796875 45.0732421875,5.46386766433716 43.740234375,4.5556640625 42.099609375,4.21874952316284 8.408203125,4.21874952316284z M8.408203125,0L42.099609375,0 45.3955078125,0.659179925918579 48.076171875,2.46093702316284 49.8779296875,5.1416015625 50.537109375,8.4375 50.537109375,58.974609375 49.86328125,62.2265625 48.046875,64.892578125 45.3662109375,66.708984375 42.099609375,67.3828125 8.408203125,67.3828125 5.1416015625,66.7236328125 2.4609375,64.921875 0.6591796875,62.2412109375 0,58.974609375 0,8.4375 0.673828125,5.1708984375 2.490234375,2.49023413658142 5.15625,0.673828601837158 8.408203125,0z" />
    </g>
  </g>
</svg>