<?xml version="1.0" encoding="utf-8"?>
<!DOCTYPE svg PUBLIC "-//W3C//DTD SVG 1.1//EN" "http://www.w3.org/Graphics/SVG/1.1/DTD/svg11.dtd">
<svg width="67.3828125" height="67.3828125" xmlns="http://www.w3.org/2000/svg" xmlns:xlink="http://www.w3.org/1999/xlink" xmlns:xml="http://www.w3.org/XML/1998/namespace" version="1.1">
  <g>
    <g>
      <path style="fill:#FF0000;fill-opacity:1" d="M31.58203125,14.736328125L35.80078125,14.736328125 35.80078125,18.955078125 40.01953125,18.955078125 40.01953125,23.173828125 35.80078125,23.173828125 35.80078125,27.36328125 46.318359375,27.36328125 46.318359375,31.58203125 35.80078125,31.58203125 35.80078125,42.12890625 44.208984375,46.318359375 44.208984375,50.537109375 35.80078125,46.318359375 35.80078125,52.646484375 31.58203125,52.646484375 31.58203125,44.208984375 23.173828125,40.01953125 23.173828125,35.80078125 31.58203125,40.01953125 31.58203125,31.58203125 21.064453125,31.58203125 21.064453125,27.36328125 31.58203125,27.36328125 31.58203125,23.173828125 27.36328125,23.173828125 27.36328125,18.955078125 31.58203125,18.955078125 31.58203125,14.736328125z M4.21875,4.21874952316284L4.21875,63.1640625 63.1640625,63.1640625 63.1640625,4.21874952316284 4.21875,4.21874952316284z M0,0L67.3828125,0 67.3828125,67.3828125 0,67.3828125 0,0z" />
    </g>
  </g>
</svg>