<?xml version="1.0" encoding="utf-8"?>
<!DOCTYPE svg PUBLIC "-//W3C//DTD SVG 1.1//EN" "http://www.w3.org/Graphics/SVG/1.1/DTD/svg11.dtd">
<svg width="46.9921875" height="48.80859375" xmlns="http://www.w3.org/2000/svg" xmlns:xlink="http://www.w3.org/1999/xlink" xmlns:xml="http://www.w3.org/XML/1998/namespace" version="1.1">
  <g>
    <g>
      <path style="fill:#FF0000;fill-opacity:1" d="M23.466796875,0L23.583984375,0 29.00390625,5.15625 29.00390625,9.345703125 25.341796875,5.68359375 25.341796875,31.435546875 28.7182598114014,30.985107421875 31.640625,29.8681640625 34.105224609375,28.157958984375 36.1083984375,25.927734375 37.6611328125,23.228759765625 38.7744140625,20.1123046875 39.444580078125,16.6516132354736 39.66796875,12.919921875 39.66796875,10.078125 36.064453125,13.681640625 36.064453125,9.55078125 41.455078125,4.3359375 41.572265625,4.3359375 46.9921875,9.55078125 46.9921875,13.681640625 43.330078125,10.01953125 43.330078125,12.919921875 43.055419921875,17.4316425323486 42.2314453125,21.591796875 40.850830078125,25.316162109375 38.90625,28.5205078125 36.390380859375,31.160888671875 33.2958984375,33.193359375 29.615478515625,34.541015625 25.341796875,35.126953125 25.341796875,39.814453125 33.251953125,39.814453125 33.251953125,43.7109375 25.341796875,43.7109375 25.341796875,48.80859375 21.6796875,48.80859375 21.6796875,43.7109375 13.740234375,43.7109375 13.740234375,39.814453125 21.6796875,39.814453125 21.6796875,35.126953125 17.40234375,34.541015625 13.7109375,33.193359375 10.601806640625,31.160888671875 8.0712890625,28.5205078125 6.11572265625,25.316162109375 4.7314453125,21.591796875 3.90747094154358,17.4316425323486 3.63281273841858,12.919921875 3.63281273841858,10.048828125 0,13.681640625 0,9.55078125 5.39062595367432,4.3359375 5.5078125,4.3359375 10.927734375,9.55078125 10.927734375,13.681640625 7.265625,10.01953125 7.265625,12.919921875 7.481689453125,16.6516132354736 8.1298828125,20.1123046875 9.22119140625,23.228759765625 10.7666015625,25.927734375 12.7770986557007,28.157958984375 15.263671875,29.8681640625 18.22998046875,30.985107421875 21.6796875,31.435546875 21.6796875,5.7421875 18.076171875,9.345703125 18.076171875,5.185546875 23.466796875,0z" />
    </g>
  </g>
</svg>