<?xml version="1.0" encoding="utf-8"?>
<!DOCTYPE svg PUBLIC "-//W3C//DTD SVG 1.1//EN" "http://www.w3.org/Graphics/SVG/1.1/DTD/svg11.dtd">
<svg width="25.693359375" height="42.01171875" xmlns="http://www.w3.org/2000/svg" xmlns:xlink="http://www.w3.org/1999/xlink" xmlns:xml="http://www.w3.org/XML/1998/namespace" version="1.1">
  <g>
    <g>
      <path style="fill:#FF0000;fill-opacity:1" d="M4.921875,4.453125L4.921875,19.599609375 10.078125,19.599609375 14.58984375,19.0869140625 17.87109375,17.548828125 19.8706035614014,15.0878925323486 20.537109375,11.806640625 19.9218730926514,8.5894775390625 18.0761699676514,6.29150390625 14.9999990463257,4.9127197265625 10.693359375,4.453125 4.921875,4.453125z M0,0L11.54296875,0 14.70703125,0.194091796875 17.51953125,0.7763671875 19.9511699676514,1.728515625 21.97265625,3.0322265625 23.5729961395264,4.676513671875 24.7412109375,6.650390625 25.4553203582764,8.94287109375 25.693359375,11.54296875 25.3857402801514,14.5019550323486 24.462890625,17.05078125 23.0163555145264,19.19677734375 21.1376953125,20.947265625 18.8745098114014,22.30224609375 16.2744140625,23.26171875 13.436279296875,23.8330078125 10.458984375,24.0234375 4.921875,24.0234375 4.921875,37.55859375 24.9609375,37.55859375 24.9609375,42.01171875 0,42.01171875 0,0z" />
    </g>
  </g>
</svg>