<?xml version="1.0" encoding="utf-8"?>
<!DOCTYPE svg PUBLIC "-//W3C//DTD SVG 1.1//EN" "http://www.w3.org/Graphics/SVG/1.1/DTD/svg11.dtd">
<svg width="33.10546875" height="42.041015625" xmlns="http://www.w3.org/2000/svg" xmlns:xlink="http://www.w3.org/1999/xlink" xmlns:xml="http://www.w3.org/XML/1998/namespace" version="1.1">
  <g>
    <g>
      <path style="fill:#FF0000;fill-opacity:1" d="M14.677734375,4.482421875L14.677734375,17.255859375 18.076171875,17.255859375 22.496337890625,16.8457050323486 25.5615234375,15.615234375 27.3522930145264,13.5571308135986 27.94921875,10.6640625 27.3962383270264,7.840576171875 25.7373046875,5.9326171875 22.8698711395264,4.844970703125 18.69140625,4.482421875 14.677734375,4.482421875z M9.9609375,0L19.541015625,0 22.7023296356201,0.1702880859375 25.4479961395264,0.68115234375 27.7780132293701,1.5325927734375 29.6923828125,2.724609375 31.1856079101563,4.22607421875 32.252197265625,6.005859375 32.8921508789063,8.06396484375 33.10546875,10.400390625 32.838134765625,12.9675312042236 32.0361328125,15.2197265625 30.743408203125,17.1496601104736 29.00390625,18.75 26.8432598114014,20.013427734375 24.287109375,20.9326171875 18.1640625,21.6796875 14.677734375,21.6796875 14.677734375,29.12109375 19.189453125,24.66796875 23.994140625,24.66796875 15.1171875,33.017578125 15.1171875,33.193359375 24.990234375,42.041015625 19.98046875,42.041015625 14.677734375,37.177734375 14.677734375,42.041015625 9.9609375,42.041015625 9.9609375,37.177734375 4.71679639816284,42.041015625 0,42.041015625 9.55078125,33.251953125 9.55078125,33.10546875 0.0878910422325134,24.66796875 5.5078125,24.66796875 9.9609375,28.76953125 9.9609375,0z" />
    </g>
  </g>
</svg>