<?xml version="1.0" encoding="utf-8"?>
<!DOCTYPE svg PUBLIC "-//W3C//DTD SVG 1.1//EN" "http://www.w3.org/Graphics/SVG/1.1/DTD/svg11.dtd">
<svg width="67.3828125000009" height="67.3828125" xmlns="http://www.w3.org/2000/svg" xmlns:xlink="http://www.w3.org/1999/xlink" xmlns:xml="http://www.w3.org/XML/1998/namespace" version="1.1">
  <g>
    <g>
      <path style="fill:#FF0000;fill-opacity:1" d="M23.173828125,44.208984375L20.537109375,52.265625 19.951171875,53.2763671875 19.0283203125,54.0673828125 17.9150390625,54.580078125 16.7578125,54.755859375 15.146484375,54.43359375 13.828125,53.5546875 12.94921875,52.236328125 12.626953125,50.625 12.802734375,49.4677734375 13.3154296875,48.3544921875 14.1064453125,47.431640625 15.1171875,46.845703125 23.173828125,44.208984375z M31.083984375,36.298828125L16.40625,43.65234375 14.2236328125,44.794921875 12.333984375,46.142578125 11.015625,47.9443359375 10.517578125,50.478515625 11.015625,52.9541015625 12.3779296875,54.990234375 14.3994140625,56.3671875 16.875,56.865234375 19.423828125,56.3671875 21.240234375,55.048828125 22.587890625,53.1591796875 23.73046875,50.9765625 31.083984375,36.298828125z M46.318359375,27.36328125L46.845703125,28.9453125 48.427734375,29.47265625 46.845703125,30 46.318359375,31.58203125 45.791015625,30 44.208984375,29.47265625 45.791015625,28.9453125 46.318359375,27.36328125z M42.099609375,14.736328125L42.626953125,16.318359375 44.208984375,16.845703125 42.626953125,17.373046875 42.099609375,18.955078125 41.572265625,17.373046875 40.01953125,16.845703125 41.572265625,16.318359375 42.099609375,14.736328125z M55.810546875,10.517578125L56.54296875,10.8544921875 56.8359375,11.6015625 56.54296875,12.333984375 43.0078125,25.869140625 40.751953125,28.0517578125 38.4814453125,30.234375 36.2841796875,32.51953125 34.306640625,34.951171875 32.7099609375,37.44140625 31.34765625,40.078125 30.1025390625,42.7880859375 28.857421875,45.46875 42.421875,31.904296875 43.154296875,31.611328125 43.88671875,31.9189453125 44.208984375,32.63671875 43.916015625,33.3984375 25.8984375,51.416015625 24.9609375,53.291015625 23.876953125,55.1513671875 22.470703125,56.77734375 19.86328125,58.4033203125 16.845703125,58.974609375 13.564453125,58.3154296875 10.8984375,56.5283203125 9.0966796875,53.876953125 8.4375,50.595703125 9.0673828125,47.2998046875 10.95703125,44.560546875 12.5830078125,43.2861328125 14.384765625,42.275390625 15.966796875,41.484375 38.203125,19.248046875 38.935546875,18.955078125 39.6826171875,19.2626953125 39.990234375,20.009765625 39.697265625,20.7421875 21.9140625,38.525390625 24.169921875,37.3828125 26.455078125,36.240234375 28.7109375,35.1416015625 30.8203125,34.0576171875 32.8125,32.7978515625 34.74609375,31.142578125 55.048828125,10.83984375 55.810546875,10.517578125z M58.9453125,6.328125L59.47265625,7.91015625 61.0546875,8.4375 59.47265625,8.96484375 58.9453125,10.517578125 58.41796875,8.96484375 56.865234375,8.4375 58.41796875,7.91015625 58.9453125,6.328125z M46.201171875,4.21874952316284L44.619140625,4.86328077316284 7.91015625,41.572265625 6.33178615570068,43.494873046875 5.1708984375,45.6884765625 4.456787109375,48.065185546875 4.21875,50.537109375 4.464111328125,53.067626953125 5.2001953125,55.4443359375 7.8955078125,59.4580078125 11.9091796875,62.16796875 14.285888671875,62.9150390625 16.81640625,63.1640625 19.3249492645264,62.9296875 21.6943359375,62.2265625 23.873291015625,61.0693359375 25.810546875,59.47265625 58.30078125,26.982421875 58.9453125,25.400390625 58.30078125,23.818359375 56.71875,23.173828125 55.1220703125,23.8330078125 53.6572265625,25.283203125 52.20703125,26.7333984375 50.654296875,27.392578125 49.072265625,26.7333984375 48.427734375,25.13671875 49.072265625,23.5546875 62.080078125,10.576171875 62.89306640625,9.375 63.1640625,7.939453125 62.8857421875,6.5185546875 62.1240234375,5.33203172683716 60.9814453125,4.5263671875 59.560546875,4.21874952316284 58.06640625,4.46777296066284 56.806640625,5.302734375 53.642578125,8.4375 50.537109375,11.6015625 48.984375,13.154296875 47.314453125,14.560546875 46.46484375,14.736328125 44.8681640625,14.091796875 44.208984375,12.5097646713257 44.8681640625,10.83984375 46.318359375,9.4775390625 47.7685546875,8.115234375 48.427734375,6.4453125 47.783203125,4.86328077316284 46.201171875,4.21874952316284z M46.201171875,0L48.0908203125,0.278320550918579 49.7900390625,1.08398389816284 51.181640625,2.35839819908142 52.1484375,4.013671875 53.73046875,2.43164110183716 55.341796875,1.15722680091858 57.1875,0.307617664337158 59.443359375,0 62.5341796875,0.6298828125 65.0537109375,2.32910108566284 66.7529296875,4.84863233566284 67.3828125,7.939453125 66.7822265625,10.9716796875 65.068359375,13.53515625 62.16796875,16.46484375 59.23828125,19.365234375 60.87890625,20.361328125 62.138671875,21.7529296875 62.9443359375,23.4521484375 63.22265625,25.341796875 62.7392578125,27.802734375 61.34765625,29.8828125 28.798828125,62.431640625 26.246337890625,64.53369140625 23.3349609375,66.09375 20.1745586395264,67.060546875 16.875,67.3828125 12.4072265625,66.7822265625 8.37890625,65.0830078125 4.951171875,62.431640625 2.2998046875,59.00390625 0.6005859375,54.9755859375 0,50.5078125 0.322265267372131,47.208251953125 1.2890625,44.0478515625 2.84912109375,41.136474609375 4.951171875,38.583984375 41.630859375,1.87499988079071 43.7255859375,0.483398199081421 46.201171875,0z" />
    </g>
  </g>
</svg>