<?xml version="1.0" encoding="utf-8"?>
<!DOCTYPE svg PUBLIC "-//W3C//DTD SVG 1.1//EN" "http://www.w3.org/Graphics/SVG/1.1/DTD/svg11.dtd">
<svg width="40.1953125000002" height="43.447265625" xmlns="http://www.w3.org/2000/svg" xmlns:xlink="http://www.w3.org/1999/xlink" xmlns:xml="http://www.w3.org/XML/1998/namespace" version="1.1">
  <g>
    <g>
      <path style="fill:#FF0000;fill-opacity:1" d="M31.435546875,3.662109375L29.53125,4.04296875 27.9931640625,5.09765625 26.953125,6.708984375 26.572265625,8.759765625 26.953125,10.78125 27.9931640625,12.3486328125 29.560546875,13.359375 31.494140625,13.7109375 33.4423828125,13.3447265625 34.9951171875,12.333984375 36.03515625,10.78125 36.416015625,8.759765625 36.0205078125,6.73828125 34.9365234375,5.1123046875 33.33984375,4.04296875 31.435546875,3.662109375z M8.642578125,3.662109375L6.73828125,4.04296875 5.2001953125,5.09765625 4.16015625,6.708984375 3.77929615974426,8.759765625 4.16015625,10.78125 5.2001953125,12.3486328125 6.7529296875,13.359375 8.701171875,13.7109375 10.634765625,13.3447265625 12.216796875,12.333984375 13.271484375,10.78125 13.65234375,8.759765625 13.2421875,6.73828125 12.158203125,5.1123046875 10.5615234375,4.04296875 8.642578125,3.662109375z M8.701171875,0L12.0849609375,0.673828125 14.8681640625,2.51953125 16.7431640625,5.2880859375 17.431640625,8.759765625 16.728515625,12.216796875 14.82421875,14.9560546875 12.0263671875,16.7578125 8.642578125,17.40234375 7.412109375,17.2998046875 6.240234375,17.05078125 4.2626953125,21.4453125 3.60351538658142,26.484375 3.90380787849426,29.739990234375 4.8046875,32.5341796875 6.251220703125,34.881591796875 8.1884765625,36.796875 10.5798330307007,38.2763671875 13.388671875,39.31640625 16.56005859375,39.931640625 20.0390625,40.13671875 23.4997539520264,39.931640625 26.6748046875,39.31640625 29.498291015625,38.2763671875 31.904296875,36.796875 33.85986328125,34.881591796875 35.33203125,32.5341796875 36.2548828125,29.739990234375 36.5625,26.484375 35.8740234375,21.4453125 33.8671875,17.05078125 32.6513671875,17.2998046875 31.435546875,17.40234375 28.06640625,16.7578125 25.3125,14.9560546875 23.466796875,12.216796875 22.79296875,8.759765625 23.4814453125,5.2880859375 25.341796875,2.51953125 28.095703125,0.673828125 31.494140625,0 34.8779296875,0.673828125 37.646484375,2.51953125 39.5068359375,5.2880859375 40.1953125,8.759765625 39.971923828125,10.7812509536743 39.3017578125,12.626953125 36.884765625,15.52734375 39.3310546875,20.654296875 39.979248046875,23.48876953125 40.1953125,26.484375 39.814453125,30.3955078125 38.671875,33.80859375 36.85546875,36.71630859375 34.453125,39.111328125 31.5087890625,40.989990234375 28.06640625,42.3486328125 24.2138652801514,43.172607421875 20.0390625,43.447265625 15.87158203125,43.172607421875 12.041015625,42.3486328125 8.624267578125,40.989990234375 5.6982421875,39.111328125 3.31054663658142,36.71630859375 1.50878882408142,33.80859375 0.377197057008743,30.3955078125 0,26.484375 0.212402105331421,23.48876953125 0.849608898162842,20.654296875 3.22265648841858,15.52734375 0.864257335662842,12.626953125 0.216064214706421,10.7812509536743 0,8.759765625 0.688476324081421,5.2880859375 2.54882788658142,2.51953125 5.302734375,0.673828125 8.701171875,0z" />
    </g>
  </g>
</svg>