<?xml version="1.0" encoding="utf-8"?>
<!DOCTYPE svg PUBLIC "-//W3C//DTD SVG 1.1//EN" "http://www.w3.org/Graphics/SVG/1.1/DTD/svg11.dtd">
<svg width="67.3828125000004" height="67.3828125" xmlns="http://www.w3.org/2000/svg" xmlns:xlink="http://www.w3.org/1999/xlink" xmlns:xml="http://www.w3.org/XML/1998/namespace" version="1.1">
  <g>
    <g>
      <path style="fill:#FF0000;fill-opacity:1" d="M21.064453125,41.279296875L22.08984375,41.5576171875 22.8515625,42.3046875 23.5693359375,43.271484375 24.31640625,44.208984375 26.297607421875,46.0546875 28.5205078125,47.373046875 30.985107421875,48.1640625 33.69140625,48.427734375 36.3629150390625,48.1640625 38.81103515625,47.373046875 41.0357666015625,46.0546875 43.037109375,44.208984375 43.7841796875,43.271484375 44.501953125,42.3046875 45.263671875,41.5576171875 46.2890625,41.279296875 47.7978515625,41.8798828125 48.3984375,43.388671875 48.251953125,44.12109375 47.8857421875,44.8681640625 47.4169921875,45.5712890625 46.962890625,46.171875 44.2602500915527,48.922119140625 41.07421875,50.9619140625 37.5146484375,52.225341796875 33.69140625,52.646484375 29.853515625,52.225341796875 26.30859375,50.9619140625 23.1372051239014,48.922119140625 20.419921875,46.171875 19.951171875,45.5712890625 19.4677734375,44.8681640625 19.1015625,44.12109375 18.955078125,43.388671875 19.5849609375,41.9091796875 21.064453125,41.279296875z M48.427734375,33.69140625L50.888671875,34.189453125 52.8955078125,35.5517578125 54.2578125,37.55859375 54.755859375,40.01953125 54.3603515625,42.216796875 53.26171875,44.1064453125 51.591796875,45.498046875 49.482421875,46.23046875 50.2294921875,44.9267578125 50.5078125,43.447265625 50.185546875,41.77734375 49.2919921875,40.4150390625 47.9443359375,39.5068359375 46.2890625,39.169921875 44.970703125,39.3603515625 43.9599609375,39.8876953125 43.125,40.693359375 42.36328125,41.748046875 42.099609375,40.01953125 42.59765625,37.55859375 43.9599609375,35.5517578125 45.966796875,34.189453125 48.427734375,33.69140625z M18.955078125,33.69140625L21.416015625,34.189453125 23.408203125,35.5517578125 24.755859375,37.55859375 25.25390625,40.01953125 25.2099609375,40.9130859375 25.01953125,41.77734375 23.3935546875,39.9169921875 21.064453125,39.169921875 19.9365234375,39.3310546875 18.896484375,39.78515625 17.3876953125,41.30859375 16.845703125,43.359375 17.138671875,44.853515625 17.87109375,46.23046875 15.791015625,45.4833984375 14.12109375,44.0771484375 13.0224609375,42.2021484375 12.626953125,40.01953125 13.125,37.55859375 14.4873046875,35.5517578125 16.494140625,34.189453125 18.955078125,33.69140625z M44.208984375,25.283203125L46.318359375,25.283203125 48.779296875,25.78125 50.7861328125,27.12890625 52.1484375,29.12109375 52.646484375,31.58203125 50.537109375,31.58203125 49.9072265625,30.1025390625 48.427734375,29.47265625 42.099609375,29.47265625 40.634765625,30.1025390625 40.01953125,31.58203125 37.91015625,31.58203125 38.408203125,29.12109375 39.755859375,27.12890625 41.748046875,25.78125 44.208984375,25.283203125z M21.064453125,25.283203125L23.173828125,25.283203125 25.634765625,25.78125 27.626953125,27.12890625 28.974609375,29.12109375 29.47265625,31.58203125 27.36328125,31.58203125 26.7333984375,30.1025390625 25.25390625,29.47265625 18.955078125,29.47265625 17.4755859375,30.1025390625 16.845703125,31.58203125 14.736328125,31.58203125 15.234375,29.12109375 16.5966796875,27.12890625 18.603515625,25.78125 21.064453125,25.283203125z M42.099609375,14.736328125L46.0400390625,15.1611328125 49.921875,16.40625 53.4521484375,18.427734375 56.337890625,21.15234375 56.71875,21.796875 56.865234375,22.529296875 56.25,24.0380859375 54.755859375,24.66796875 53.8916015625,24.4775390625 53.173828125,23.935546875 50.7275390625,21.826171875 48.1640625,20.2587890625 45.3369140625,19.2919921875 42.099609375,18.955078125 40.634765625,18.3251953125 40.01953125,16.845703125 40.634765625,15.3662109375 42.099609375,14.736328125z M25.25390625,14.736328125L26.748046875,15.3515625 27.36328125,16.845703125 26.748046875,18.33984375 25.25390625,18.955078125 22.0166015625,19.2919921875 19.2041015625,20.2587890625 16.6552734375,21.826171875 14.208984375,23.935546875 13.4912109375,24.4775390625 12.626953125,24.66796875 11.1328125,24.0380859375 10.517578125,22.529296875 10.6640625,21.796875 11.044921875,21.15234375 13.9013671875,18.45703125 17.4462890625,16.435546875 21.3427734375,15.17578125 25.25390625,14.736328125z M33.69140625,4.21874952316284L29.696044921875,4.48242473602295 25.8544921875,5.2734375 22.2106914520264,6.54419231414795 18.80859375,8.2470703125 15.677490234375,10.3564453125 12.8466796875,12.8466796875 10.3564453125,15.677490234375 8.2470703125,18.80859375 6.54418849945068,22.210693359375 5.2734375,25.8544921875 4.482421875,29.6960468292236 4.21875,33.69140625 4.482421875,37.686767578125 5.2734375,41.5283203125 6.54418849945068,45.172119140625 8.2470703125,48.57421875 10.3564453125,51.705322265625 12.8466796875,54.5361328125 15.677490234375,57.0263671875 18.80859375,59.1357421875 22.2106914520264,60.838623046875 25.8544921875,62.109375 29.696044921875,62.900390625 33.69140625,63.1640625 37.686767578125,62.900390625 41.5283203125,62.109375 45.1721153259277,60.838623046875 48.57421875,59.1357421875 51.7053184509277,57.0263671875 54.5361328125,54.5361328125 57.0263671875,51.705322265625 59.1357421875,48.57421875 60.838623046875,45.172119140625 62.109375,41.5283203125 62.900390625,37.686767578125 63.1640625,33.69140625 62.900390625,29.6960468292236 62.109375,25.8544921875 60.838623046875,22.210693359375 59.1357421875,18.80859375 57.0263671875,15.677490234375 54.5361328125,12.8466796875 51.7053184509277,10.3564453125 48.57421875,8.2470703125 45.1721153259277,6.54419231414795 41.5283203125,5.2734375 37.686767578125,4.48242473602295 33.69140625,4.21874952316284z M33.69140625,0L38.26171875,0.300295770168304 42.65625,1.20117139816284 46.8200645446777,2.65137004852295 50.6982421875,4.59960889816284 54.2687950134277,7.0166015625 57.509765625,9.873046875 60.3662109375,13.114013671875 62.783203125,16.6845703125 64.7314453125,20.562744140625 66.181640625,24.7265625 67.08251953125,29.1210956573486 67.3828125,33.69140625 67.08251953125,38.26171875 66.181640625,42.65625 64.7314453125,46.820068359375 62.783203125,50.6982421875 60.3662109375,54.268798828125 57.509765625,57.509765625 54.2687950134277,60.3662109375 50.6982421875,62.783203125 46.8200645446777,64.7314453125 42.65625,66.181640625 38.26171875,67.08251953125 33.69140625,67.3828125 29.12109375,67.08251953125 24.7265625,66.181640625 20.5627422332764,64.7314453125 16.6845703125,62.783203125 13.114013671875,60.3662109375 9.873046875,57.509765625 7.01660060882568,54.268798828125 4.599609375,50.6982421875 2.6513671875,46.820068359375 1.201171875,42.65625 0.300292611122131,38.26171875 0,33.69140625 0.300292611122131,29.1210956573486 1.201171875,24.7265625 2.6513671875,20.562744140625 4.599609375,16.6845703125 7.01660060882568,13.114013671875 9.873046875,9.873046875 13.114013671875,7.0166015625 16.6845703125,4.59960889816284 20.5627422332764,2.65137004852295 24.7265625,1.20117139816284 29.12109375,0.300295770168304 33.69140625,0z" />
    </g>
  </g>
</svg>