<?xml version="1.0" encoding="utf-8"?>
<!DOCTYPE svg PUBLIC "-//W3C//DTD SVG 1.1//EN" "http://www.w3.org/Graphics/SVG/1.1/DTD/svg11.dtd">
<svg width="67.3828125" height="67.3828125" xmlns="http://www.w3.org/2000/svg" xmlns:xlink="http://www.w3.org/1999/xlink" xmlns:xml="http://www.w3.org/XML/1998/namespace" version="1.1">
  <g>
    <g>
      <path style="fill:#FF0000;fill-opacity:1" d="M44.208984375,25.283203125L46.318359375,31.58203125 52.646484375,31.58203125 47.607421875,35.419921875 49.833984375,42.099609375 44.208984375,37.91015625 38.61328125,42.099609375 40.83984375,35.361328125 35.80078125,31.58203125 42.099609375,31.58203125 44.208984375,25.283203125z M33.69140625,16.845703125L36.361083984375,17.054443359375 38.9208984375,17.6806640625 43.623046875,20.09765625 40.8325157165527,19.24072265625 37.91015625,18.955078125 34.954833984375,19.244384765625 32.1826171875,20.1123046875 29.67041015625,21.48193359375 27.4951171875,23.2763671875 25.70068359375,25.4516620635986 24.3310546875,27.9638671875 23.4631328582764,30.7360858917236 23.173828125,33.69140625 23.4631328582764,36.650390625 24.3310546875,39.43359375 25.697021484375,41.953125 27.48046875,44.12109375 29.6484375,45.904541015625 32.16796875,47.2705078125 34.951171875,48.138427734375 37.91015625,48.427734375 40.8325157165527,48.14208984375 43.623046875,47.28515625 38.9208984375,49.7021484375 36.361083984375,50.328369140625 33.69140625,50.537109375 30.3076171875,50.20751953125 27.12890625,49.21875 24.25048828125,47.65869140625 21.767578125,45.615234375 19.7241191864014,43.13232421875 18.1640625,40.25390625 17.1752910614014,37.0751953125 16.845703125,33.69140625 17.1752910614014,30.3076190948486 18.1640625,27.12890625 19.7241191864014,24.2504901885986 21.767578125,21.767578125 24.25048828125,19.72412109375 27.12890625,18.1640625 30.3076171875,17.17529296875 33.69140625,16.845703125z M4.21875,4.21874952316284L4.21875,63.1640625 63.1640625,63.1640625 63.1640625,4.21874952316284 4.21875,4.21874952316284z M0,0L67.3828125,0 67.3828125,67.3828125 0,67.3828125 0,0z" />
    </g>
  </g>
</svg>