<?xml version="1.0" encoding="utf-8"?>
<!DOCTYPE svg PUBLIC "-//W3C//DTD SVG 1.1//EN" "http://www.w3.org/Graphics/SVG/1.1/DTD/svg11.dtd">
<svg width="28.41796875" height="43.4765625" xmlns="http://www.w3.org/2000/svg" xmlns:xlink="http://www.w3.org/1999/xlink" xmlns:xml="http://www.w3.org/XML/1998/namespace" version="1.1">
  <g>
    <g>
      <path style="fill:#FF0000;fill-opacity:1" d="M21.97265625,1.875L18.8818359375,2.076416015625 16.0546875,2.6806640625 11.1767578125,4.9072265625 7.3388671875,8.232421875 4.57031202316284,12.3486328125 2.8857421875,16.962890625 2.314453125,21.767578125 2.8857421875,26.54296875 4.57031202316284,31.142578125 7.3388671875,35.2587890625 11.1767578125,38.583984375 16.0693359375,40.7958984375 18.900146484375,41.400146484375 21.97265625,41.6015625 18.66943359375,40.528564453125 15.791015625,38.8916015625 13.3447265625,36.78955078125 11.337890625,34.3212890625 9.77050685882568,31.5234375 8.642578125,28.4326171875 7.96142578125,25.147705078125 7.734375,21.767578125 7.96142578125,18.3654804229736 8.642578125,15.0732421875 9.77050685882568,11.9787616729736 11.337890625,9.169921875 13.3447265625,6.690673828125 15.791015625,4.5849609375 18.66943359375,2.947998046875 21.97265625,1.875z M22.03125,0L25.5322265625,0.2197265625 28.41796875,0.791015625 28.41796875,2.841796875 24.1076641082764,3.226318359375 20.3759765625,4.3798828125 17.222900390625,6.185302734375 14.6484375,8.525390625 12.6489248275757,11.3378915786743 11.220703125,14.560546875 10.3637685775757,18.0761737823486 10.078125,21.767578125 10.3637685775757,25.433349609375 11.220703125,28.9306640625 12.6489248275757,32.142333984375 14.6484375,34.951171875 17.222900390625,37.291259765625 20.3759765625,39.0966796875 24.1076641082764,40.250244140625 28.41796875,40.634765625 28.41796875,42.685546875 25.5322265625,43.2568359375 22.03125,43.4765625 17.4609375,43.077392578125 13.2421875,41.8798828125 9.473876953125,39.964599609375 6.2548828125,37.412109375 3.63281226158142,34.2626953125 1.65527391433716,30.556640625 0.413818418979645,26.3671875 0,21.767578125 0.7470703125,15.7177734375 2.900390625,10.4443359375 6.26953125,6.09375 10.693359375,2.8125 16.0107421875,0.732421875 22.03125,0z" />
    </g>
  </g>
</svg>