<?xml version="1.0" encoding="utf-8"?>
<!DOCTYPE svg PUBLIC "-//W3C//DTD SVG 1.1//EN" "http://www.w3.org/Graphics/SVG/1.1/DTD/svg11.dtd">
<svg width="21.9433593750019" height="42.24609375" xmlns="http://www.w3.org/2000/svg" xmlns:xlink="http://www.w3.org/1999/xlink" xmlns:xml="http://www.w3.org/XML/1998/namespace" version="1.1">
  <g>
    <g>
      <path style="fill:#FF0000;fill-opacity:1" d="M16.728515625,0L19.39453125,2.63671875 8.115234375,13.974609375 6.0205078125,16.1279296875 4.7607421875,17.6220703125 4.130859375,18.7646484375 3.95507836341858,19.8046875 4.1015625,20.80078125 4.7314453125,21.9140625 6.1083984375,23.5107421875 8.525390625,25.986328125 19.04296875,36.62109375 19.1015625,31.494140625 21.943359375,28.447265625 21.708984375,41.865234375 21.5625,42.01171875 8.26171875,42.24609375 11.337890625,39.404296875 16.2890625,39.345703125 5.830078125,28.798828125 3.10546851158142,25.95703125 1.30371117591858,23.701171875 0.307616710662842,21.767578125 0,19.833984375 0.263671398162842,17.958984375 1.17187476158142,16.11328125 2.90039038658142,13.974609375 5.595703125,11.162109375 16.728515625,0z" />
    </g>
  </g>
</svg>