<?xml version="1.0" encoding="utf-8"?>
<!DOCTYPE svg PUBLIC "-//W3C//DTD SVG 1.1//EN" "http://www.w3.org/Graphics/SVG/1.1/DTD/svg11.dtd">
<svg width="54.1406250000005" height="47.9882812500025" xmlns="http://www.w3.org/2000/svg" xmlns:xlink="http://www.w3.org/1999/xlink" xmlns:xml="http://www.w3.org/XML/1998/namespace" version="1.1">
  <g>
    <g>
      <path style="fill:#FF0000;fill-opacity:1" d="M10.3125,27.158203125L7.9833984375,29.0478515625 6.0791015625,31.640625 4.79003858566284,35.2294921875 4.306640625,40.078125 4.306640625,44.091796875 4.80468797683716,45.1904296875 6.005859375,45.64453125 48.22265625,45.64453125 49.3212890625,45.1904296875 49.775390625,44.091796875 49.775390625,41.8359375 49.7607421875,40.6201171875 49.7314453125,40.13671875 49.716796875,40.01953125 49.1748046875,35.2734375 47.8564453125,31.669921875 45.99609375,29.0185546875 43.798828125,27.158203125 43.121337890625,29.915771484375 41.9091796875,32.5048828125 40.2392578125,34.852294921875 38.1884765625,36.884765625 35.79345703125,38.565673828125 33.0908203125,39.8583984375 30.150146484375,40.682373046875 27.041015625,40.95703125 23.9575176239014,40.67138671875 21.03515625,39.814453125 18.343505859375,38.4814453125 15.9521484375,36.767578125 13.9013671875,34.716796875 12.2314453125,32.373046875 11.0119619369507,29.82421875 10.3125,27.158203125z M12.568359375,23.203125L12.48046875,24.052734375 12.7697744369507,26.978759765625 13.6376953125,29.7216796875 15,32.20458984375 16.7724609375,34.3505859375 18.91845703125,36.119384765625 21.4013671875,37.470703125 24.1369609832764,38.32763671875 27.041015625,38.61328125 29.945068359375,38.32763671875 32.6806640625,37.470703125 35.16357421875,36.119384765625 37.3095703125,34.3505859375 39.08203125,32.20458984375 40.4443359375,29.7216796875 41.312255859375,26.978759765625 41.6015625,24.052734375 41.5869140625,23.642578125 41.513671875,23.203125 45.64453125,25.5029296875 49.013671875,28.8720703125 51.2841796875,33.6181640625 51.9103965759277,36.602783203125 52.119140625,40.078125 52.119140625,44.091796875 51.8115234375,45.5859375 50.9765625,46.8310546875 49.74609375,47.6806640625 48.22265625,47.98828125 6.005859375,47.98828125 4.45312547683716,47.6806640625 3.16406297683716,46.845703125 2.28515625,45.615234375 1.96289014816284,44.091796875 1.96289014816284,40.078125 2.17529296875,36.51123046875 2.8125,33.486328125 3.81225538253784,30.93017578125 5.1123046875,28.76953125 8.4814453125,25.48828125 12.568359375,23.203125z M27.041015625,16.904296875L24.2431640625,17.4609375 21.9580078125,18.984375 20.419921875,21.2548828125 19.86328125,24.052734375 20.419921875,26.8505859375 21.9580078125,29.1357421875 24.2431640625,30.673828125 27.041015625,31.23046875 29.853515625,30.673828125 32.1533203125,29.1357421875 33.7060546875,26.8505859375 34.27734375,24.052734375 33.7060546875,21.2548828125 32.1533203125,18.984375 29.853515625,17.4609375 27.041015625,16.904296875z M27.041015625,14.560546875L30.76171875,15.3076171875 33.80859375,17.34375 35.859375,20.361328125 36.4306640625,22.1484375 36.62109375,24.052734375 36.4306640625,25.97900390625 35.859375,27.7734375 33.80859375,30.791015625 30.76171875,32.8271484375 27.041015625,33.57421875 23.3203125,32.8271484375 20.302734375,30.791015625 18.2666015625,27.7734375 17.51953125,24.052734375 18.2666015625,20.361328125 20.302734375,17.34375 23.3203125,15.3076171875 27.041015625,14.560546875z M27.041015625,2.34374952316284L22.1630859375,2.50488233566284 16.7431640625,3.13476514816284 11.4111328125,4.42382764816284 6.796875,6.54785108566284 4.976806640625,7.987060546875 3.5595703125,9.697265625 2.647705078125,11.71142578125 2.34375047683716,14.0625 2.34375047683716,15 2.548828125,15.52734375 3.04687452316284,15.732421875 12.392578125,15.732421875 15.029296875,12.24609375 18.45703125,9.5361328125 22.5,7.79296827316284 27.041015625,7.17773389816284 31.611328125,7.79296827316284 35.654296875,9.5361328125 39.052734375,12.24609375 41.66015625,15.732421875 51.123046875,15.732421875 51.6064453125,15.52734375 51.796875,15 51.796875,14.0625 51.3757286071777,11.52099609375 50.1123046875,9.228515625 48.0505332946777,7.22167921066284 45.234375,5.53710889816284 41.693115234375,4.18579053878784 37.4560546875,3.17871046066284 32.559814453125,2.55248975753784 27.041015625,2.34374952316284z M27.041015625,0L33.06884765625,0.249023079872131 38.4375,0.99609375 43.08837890625,2.20092725753784 46.962890625,3.82324171066284 50.0390586853027,5.84838819503784 52.294921875,8.26171875 53.6791954040527,11.015625 54.140625,14.0625 54.140625,15 53.90625,16.201171875 53.2470703125,17.1826171875 52.2802734375,17.841796875 51.123046875,18.076171875 40.224609375,18.076171875 38.0419921875,14.6337890625 35.009765625,11.923828125 31.2890625,10.1513671875 27.041015625,9.521484375 22.8369140625,10.1513671875 19.130859375,11.9091796875 16.083984375,14.619140625 13.857421875,18.076171875 3.04687452316284,18.076171875 1.87500047683716,17.841796875 0.893554925918579,17.1826171875 0.234375238418579,16.201171875 0,15 0,14.0625 0.33325183391571,11.24267578125 1.33300828933716,8.818359375 2.8857421875,6.76025342941284 4.87792921066284,5.03906202316284 9.931640625,2.50488233566284 15.7763671875,0.966796398162842 21.708984375,0.205077648162842 27.041015625,0z" />
    </g>
  </g>
</svg>