<?xml version="1.0" encoding="utf-8"?>
<!DOCTYPE svg PUBLIC "-//W3C//DTD SVG 1.1//EN" "http://www.w3.org/Graphics/SVG/1.1/DTD/svg11.dtd">
<svg width="39.755859375" height="44.501953125" xmlns="http://www.w3.org/2000/svg" xmlns:xlink="http://www.w3.org/1999/xlink" xmlns:xml="http://www.w3.org/XML/1998/namespace" version="1.1">
  <g>
    <g>
      <path style="fill:#FF0000;fill-opacity:1" d="M29.53125,4.16015625L30.146484375,4.16015625 34.306640625,7.587890625 37.3095703125,11.66015625 39.140625,16.23046875 39.755859375,21.123046875 39.1259765625,26.0888671875 37.236328125,30.849609375 34.130859375,35.1416015625 29.853515625,38.701171875 29.443359375,38.408203125 32.171630859375,34.515380859375 34.1455078125,30.2783203125 35.343017578125,25.836181640625 35.7421875,21.328125 35.419921875,16.7138671875 34.365234375,12.2900390625 32.4462890625,8.1005859375 29.53125,4.16015625z M9.609375,4.16015625L10.224609375,4.16015625 7.3095703125,8.1005859375 5.390625,12.2900390625 4.3359375,16.7138671875 4.013671875,21.328125 4.412841796875,25.836181640625 5.6103515625,30.2783203125 7.584228515625,34.515380859375 10.3125,38.408203125 9.90234375,38.701171875 5.625,35.1416015625 2.51953148841858,30.849609375 0.6298828125,26.0888671875 0,21.123046875 0.615234851837158,16.23046875 2.44628930091858,11.66015625 5.44921875,7.587890625 9.609375,4.16015625z M19.86328125,4.130859375L22.880859375,5.595703125 21.533203125,35.390625 24.2028789520264,31.3037109375 26.1181640625,26.66015625 27.2717266082764,21.52587890625 27.65625,15.966796875 27.2607421875,10.78125 26.279296875,5.419921875 26.923828125,5.419921875 28.6523418426514,8.997802734375 29.912109375,12.6416015625 30.68115234375,16.3000507354736 30.9375,19.921875 30.3515625,25.5029296875 28.6376953125,30.732421875 25.869140625,35.3759765625 22.08984375,39.19921875 26.103515625,41.689453125 30.732421875,43.53515625 30.46875,43.681640625 25.546875,43.0078125 21.26953125,41.396484375 21.15234375,43.564453125 19.86328125,44.501953125 18.6328125,43.564453125 18.515625,41.396484375 14.2236328125,43.0078125 9.287109375,43.681640625 9.0234375,43.53515625 13.65234375,41.689453125 17.6953125,39.19921875 13.9013671875,35.3759765625 11.1181640625,30.732421875 9.404296875,25.5029296875 8.818359375,19.921875 9.07470703125,16.3000507354736 9.84375,12.6416015625 11.1035146713257,8.997802734375 12.83203125,5.419921875 13.4765625,5.419921875 12.4951171875,10.78125 12.099609375,15.966796875 12.4841299057007,21.52587890625 13.6376953125,26.66015625 15.560302734375,31.3037109375 18.251953125,35.390625 16.875,5.595703125 19.86328125,4.130859375z M19.716796875,0L20.068359375,0 22.1630859375,1.46484375 24.345703125,1.9921875 25.927734375,1.69921875 25.927734375,3.310546875 25.0927734375,3.544921875 24.111328125,3.6328125 21.7822265625,3.1787109375 19.86328125,2.109375 17.9736328125,3.1787109375 15.64453125,3.6328125 14.6630859375,3.544921875 13.828125,3.310546875 13.828125,1.69921875 15.41015625,1.9921875 17.607421875,1.46484375 19.716796875,0z" />
    </g>
  </g>
</svg>