<?xml version="1.0" encoding="utf-8"?>
<!DOCTYPE svg PUBLIC "-//W3C//DTD SVG 1.1//EN" "http://www.w3.org/Graphics/SVG/1.1/DTD/svg11.dtd">
<svg width="50.15625" height="50.15625" xmlns="http://www.w3.org/2000/svg" xmlns:xlink="http://www.w3.org/1999/xlink" xmlns:xml="http://www.w3.org/XML/1998/namespace" version="1.1">
  <g>
    <g>
      <path style="fill:#FF0000;fill-opacity:1" d="M11.337890625,28.828125L10.95703125,28.88671875 10.01953125,29.4580078125 9.66796875,30.498046875 9.66796875,30.703125 9.697265625,30.87890625 10.5432119369507,33.46435546875 11.7919921875,35.830078125 15.2783203125,39.7119140625 19.833984375,42.2314453125 22.4194316864014,42.901611328125 25.13671875,43.125 27.828369140625,42.9052734375 30.3955078125,42.24609375 34.951171875,39.755859375 38.4521484375,35.91796875 39.700927734375,33.57421875 40.546875,30.99609375 40.60546875,30.556640625 40.25390625,29.5751953125 39.31640625,29.00390625 38.96484375,28.974609375 37.91015625,29.3115234375 37.294921875,30.234375 35.625,34.072265625 32.87109375,37.060546875 29.2822265625,39.0087890625 25.13671875,39.697265625 20.9765625,38.994140625 17.373046875,37.03125 14.619140625,33.9990234375 12.94921875,30.1171875 12.3779296875,29.1796875 11.337890625,28.828125z M36.884765625,14.970703125L35.69091796875,15.2050790786743 34.6875,15.908203125 34.00634765625,17.0288105010986 33.779296875,18.515625 33.779296875,19.541015625 33.837890625,20.5224609375 34.16015625,21.328125 34.541015625,21.064453125 35.2294921875,20.859375 36.0498046875,20.7275390625 36.884765625,20.68359375 37.705078125,20.7275390625 38.5107421875,20.859375 39.1552734375,21.064453125 39.521484375,21.328125 39.84375,20.625 39.90234375,19.8046875 39.90234375,18.515625 39.6826171875,17.0288105010986 39.0234375,15.908203125 38.04931640625,15.2050790786743 36.884765625,14.970703125z M13.271484375,14.970703125L12.095947265625,15.2050790786743 11.0888671875,15.908203125 10.3967275619507,17.0288105010986 10.166015625,18.515625 10.166015625,19.5703125 10.25390625,20.5224609375 10.634765625,21.328125 11.0009765625,21.064453125 11.6455078125,20.859375 12.451171875,20.7275390625 13.271484375,20.68359375 14.091796875,20.7275390625 14.912109375,20.859375 15.5712890625,21.064453125 15.9375,21.328125 16.259765625,20.6103515625 16.318359375,19.74609375 16.318359375,18.515625 16.0986328125,17.0288105010986 15.439453125,15.908203125 14.4580078125,15.2050790786743 13.271484375,14.970703125z M25.078125,0L28.472900390625,0.223388731479645 31.7431640625,0.893555164337158 37.734375,3.427734375 42.802734375,7.3681640625 46.728515625,12.451171875 49.2626953125,18.427734375 49.9328575134277,21.6870136260986 50.15625,25.078125 49.9328575134277,28.472900390625 49.2626953125,31.7431640625 46.728515625,37.734375 42.802734375,42.802734375 37.734375,46.728515625 31.7431640625,49.2626953125 28.472900390625,49.932861328125 25.078125,50.15625 21.6833477020264,49.932861328125 18.4130859375,49.2626953125 12.421875,46.728515625 7.353515625,42.802734375 3.427734375,37.734375 0.893555164337158,31.7431640625 0.223388731479645,28.472900390625 0,25.078125 0.223388731479645,21.6870136260986 0.893555164337158,18.427734375 3.427734375,12.451171875 7.353515625,7.3681640625 12.421875,3.427734375 18.4130859375,0.893555164337158 21.6833477020264,0.223388731479645 25.078125,0z" />
    </g>
  </g>
</svg>