<?xml version="1.0" encoding="utf-8"?>
<!DOCTYPE svg PUBLIC "-//W3C//DTD SVG 1.1//EN" "http://www.w3.org/Graphics/SVG/1.1/DTD/svg11.dtd">
<svg width="58.9453125" height="50.537109375" xmlns="http://www.w3.org/2000/svg" xmlns:xlink="http://www.w3.org/1999/xlink" xmlns:xml="http://www.w3.org/XML/1998/namespace" version="1.1">
  <g>
    <g>
      <path style="fill:#FF0000;fill-opacity:1" d="M14.8828125,4.21875L12.7478008270264,4.43115234375 10.7373046875,5.068359375 7.3388671875,7.3681640625 5.0390625,10.7666015625 4.40185499191284,12.777099609375 4.189453125,14.912109375 4.39453077316284,17.0031757354736 5.009765625,18.9990234375 7.32421875,22.44140625 29.47265625,44.58984375 51.62109375,22.44140625 53.9208984375,18.9990234375 54.525146484375,17.0031757354736 54.7265625,14.912109375 54.517822265625,12.755126953125 53.8916015625,10.7373046875 51.62109375,7.3388671875 48.2373046875,5.0537109375 46.2194786071777,4.427490234375 44.0625,4.21875 40.4150390625,4.8486328125 37.5146484375,6.50390625 34.98046875,8.818359375 32.4609375,11.42578125 29.47265625,14.384765625 26.484375,11.42578125 23.9501953125,8.818359375 21.416015625,6.50390625 18.515625,4.8486328125 14.8828125,4.21875z M14.8828125,0L19.072265625,0.5712890625 22.470703125,2.1240234375 25.4150390625,4.4091796875 28.271484375,7.20703125 29.47265625,8.4375 30.64453125,7.236328125 33.5009765625,4.423828125 36.4453125,2.1240234375 39.84375,0.5712890625 44.0625,0 47.0471153259277,0.29296875 49.8486328125,1.171875 52.386474609375,2.559814453125 54.580078125,4.3798828125 56.38916015625,6.58447265625 57.7734375,9.1259765625 58.65234375,11.927490234375 58.9453125,14.912109375 58.663330078125,17.8308124542236 57.8173828125,20.6103515625 56.444091796875,23.170166015625 54.580078125,25.4296875 29.47265625,50.537109375 4.365234375,25.4296875 2.50121998786926,23.170166015625 1.1279296875,20.6103515625 0.281982421875,17.8308124542236 0,14.912109375 0.29296875,11.927490234375 1.171875,9.1259765625 2.55615162849426,6.58447265625 4.365234375,4.3798828125 6.558837890625,2.559814453125 9.0966796875,1.171875 11.898193359375,0.29296875 14.8828125,0z" />
    </g>
  </g>
</svg>