<?xml version="1.0" encoding="utf-8"?>
<!DOCTYPE svg PUBLIC "-//W3C//DTD SVG 1.1//EN" "http://www.w3.org/Graphics/SVG/1.1/DTD/svg11.dtd">
<svg width="41.3671875" height="49.21875" xmlns="http://www.w3.org/2000/svg" xmlns:xlink="http://www.w3.org/1999/xlink" xmlns:xml="http://www.w3.org/XML/1998/namespace" version="1.1">
  <g>
    <g>
      <path style="fill:#FF0000;fill-opacity:1" d="M20.625,44.53125L16.7138671875,44.6044921875 12.4658203125,44.8095703125 8.3935546875,45.146484375 5.0390625,45.615234375 8.583984375,45.87890625 12.7880859375,46.0693359375 17.021484375,46.171875 20.68359375,46.201171875 24.2578125,46.171875 28.359375,46.0693359375 32.490234375,45.908203125 36.15234375,45.673828125 32.8857421875,45.234375 28.8427734375,44.8681640625 24.5654296875,44.619140625 20.625,44.53125z M20.625,39.66796875L16.7138671875,39.7412109375 12.4658203125,39.9462890625 8.3935546875,40.283203125 5.0390625,40.751953125 8.583984375,41.015625 12.7880859375,41.2060546875 17.021484375,41.30859375 20.68359375,41.337890625 24.2578125,41.30859375 28.359375,41.2060546875 32.490234375,41.044921875 36.15234375,40.810546875 32.8857421875,40.37109375 28.8427734375,40.0048828125 24.5654296875,39.755859375 20.625,39.66796875z M20.625,35.009765625L16.7138671875,35.0830078125 12.4658203125,35.2880859375 8.3935546875,35.625 5.0390625,36.09375 8.583984375,36.357421875 12.7880859375,36.5478515625 17.021484375,36.650390625 20.68359375,36.6796875 24.2578125,36.650390625 28.359375,36.5478515625 32.490234375,36.38671875 36.15234375,36.15234375 32.8857421875,35.712890625 28.8427734375,35.3466796875 24.5654296875,35.09765625 20.625,35.009765625z M33.369140625,15.673828125L35.0537109375,16.0107421875 36.26953125,16.9189453125 37.0166015625,18.251953125 37.265625,19.86328125 37.034912109375,22.0642108917236 36.3427734375,24.0380859375 33.92578125,27.2021484375 30.5126953125,29.208984375 26.6015625,29.912109375 25.751953125,29.912109375 24.990234375,29.853515625 25.48828125,26.572265625 26.30859375,23.3203125 27.4951171875,20.3466796875 29.0625,17.9150390625 31.0107421875,16.2744140625 33.369140625,15.673828125z M7.998046875,15.673828125L10.3564453125,16.2744140625 12.3046875,17.9150390625 13.8720703125,20.3466796875 15.05859375,23.3203125 15.87890625,26.572265625 16.376953125,29.853515625 15.615234375,29.912109375 14.765625,29.912109375 10.8544921875,29.208984375 7.44140625,27.2021484375 5.0244140625,24.0380859375 4.33227443695068,22.0642108917236 4.1015625,19.86328125 4.3505859375,18.251953125 5.09765625,16.9189453125 6.3134765625,16.0107421875 7.998046875,15.673828125z M33.369140625,13.798828125L31.717529296875,13.99658203125 30.2197265625,14.58984375 27.685546875,16.7138671875 25.7373046875,19.8046875 24.3310546875,23.5107421875 23.4228515625,27.4951171875 22.998046875,31.376953125 24.5947265625,31.6845703125 26.6015625,31.787109375 28.92333984375,31.578369140625 31.201171875,30.9521484375 35.21484375,28.564453125 38.056640625,24.814453125 38.8696250915527,22.4780292510986 39.140625,19.86328125 38.7744140625,17.51953125 37.67578125,15.5859375 35.859375,14.2822265625 33.369140625,13.798828125z M7.998046875,13.798828125L5.5078125,14.2822265625 3.69140625,15.5859375 2.5927734375,17.51953125 2.2265625,19.86328125 2.49755859375,22.4780292510986 3.310546875,24.814453125 6.15234375,28.564453125 10.166015625,30.9521484375 12.44384765625,31.578369140625 14.765625,31.787109375 16.7724609375,31.6845703125 18.369140625,31.376953125 17.9296875,27.4951171875 17.0361328125,23.5107421875 15.6298828125,19.8046875 13.681640625,16.7138671875 11.1474609375,14.58984375 9.649658203125,13.99658203125 7.998046875,13.798828125z M20.68359375,8.7890625L19.5556640625,11.1474609375 18.9111328125,13.4765625 18.6181640625,15.6884765625 18.544921875,17.666015625 18.779296875,20.9912109375 19.3359375,24.1552734375 19.9951171875,27.6416015625 20.56640625,31.93359375 20.68359375,31.93359375 20.68359375,8.7890625z M19.775390625,0L21.591796875,0 21.591796875,1.72851538658142 23.26171875,1.72851538658142 23.26171875,3.3984375 21.591796875,3.3984375 21.591796875,6.416015625 23.994140625,11.25 24.67529296875,14.0185546875 24.90234375,17.05078125 26.3671875,15.05859375 28.271484375,13.4033203125 30.5859375,12.275390625 33.28125,11.865234375 36.5185546875,12.4658203125 39.08203125,14.150390625 40.7666015625,16.7138671875 41.3671875,19.98046875 40.78125,23.7890625 39.169921875,27.2021484375 36.708984375,30 33.603515625,31.962890625 34.6875,32.0361328125 35.9326171875,32.1240234375 37.177734375,32.2119140625 38.291015625,32.28515625 38.291015625,47.98828125 29.4873046875,48.9111328125 20.625,49.21875 11.982421875,48.9111328125 3.076171875,47.98828125 3.076171875,32.28515625 4.189453125,32.2119140625 5.4345703125,32.1240234375 6.6650390625,32.0361328125 7.763671875,31.962890625 4.658203125,30 2.197265625,27.2021484375 0.5859375,23.7890625 0,19.98046875 0.6005859375,16.7138671875 2.28515625,14.150390625 4.8486328125,12.4658203125 8.0859375,11.865234375 10.78125,12.275390625 13.095703125,13.4033203125 15,15.05859375 16.46484375,17.05078125 16.6918926239014,14.0185546875 17.373046875,11.25 19.775390625,6.416015625 19.775390625,3.3984375 18.10546875,3.3984375 18.10546875,1.72851538658142 19.775390625,1.72851538658142 19.775390625,0z" />
    </g>
  </g>
</svg>