<?xml version="1.0" encoding="utf-8"?>
<!DOCTYPE svg PUBLIC "-//W3C//DTD SVG 1.1//EN" "http://www.w3.org/Graphics/SVG/1.1/DTD/svg11.dtd">
<svg width="67.3828125" height="67.3828125" xmlns="http://www.w3.org/2000/svg" xmlns:xlink="http://www.w3.org/1999/xlink" xmlns:xml="http://www.w3.org/XML/1998/namespace" version="1.1">
  <g>
    <g>
      <path style="fill:#FF0000;fill-opacity:1" d="M46.318359375,33.69140625L44.677734375,34.0283203125 43.3447265625,34.9365234375 42.4365234375,36.26953125 42.099609375,37.91015625 42.4365234375,39.55078125 43.3447265625,40.8837890625 44.677734375,41.7919921875 46.318359375,42.12890625 47.958984375,41.7919921875 49.2919921875,40.8837890625 50.2001953125,39.55078125 50.537109375,37.91015625 50.2001953125,36.26953125 49.2919921875,34.9365234375 47.958984375,34.0283203125 46.318359375,33.69140625z M46.318359375,29.47265625L49.6142578125,30.1318359375 52.294921875,31.93359375 54.0966796875,34.6142578125 54.755859375,37.91015625 54.0673828125,41.5283203125 52.060546875,44.619140625 48.2373046875,48.017578125 43.7109375,50.537109375 38.759765625,52.1044921875 33.69140625,52.646484375 28.502197265625,52.12646484375 23.6572265625,50.56640625 19.2370586395264,48.03955078125 15.322265625,44.619140625 18.369140625,41.71875 21.6174297332764,44.55322265625 25.3271484375,46.669921875 29.388427734375,47.98828125 33.69140625,48.427734375 38.818359375,47.783203125 43.623046875,45.87890625 41.30859375,44.6484375 39.5068359375,42.802734375 38.3349609375,40.5029296875 37.91015625,37.91015625 38.583984375,34.6728515625 40.400390625,31.9775390625 43.06640625,30.146484375 46.318359375,29.47265625z M21.064453125,25.283203125L19.423828125,25.60546875 18.0908203125,26.4990234375 17.1826171875,27.83203125 16.845703125,29.47265625 17.16796875,31.1279296875 18.0615234375,32.4755859375 19.4091796875,33.369140625 21.064453125,33.69140625 22.705078125,33.3544921875 24.0380859375,32.4462890625 24.931640625,31.11328125 25.25390625,29.47265625 24.931640625,27.83203125 24.0380859375,26.4990234375 22.705078125,25.60546875 21.064453125,25.283203125z M33.69140625,14.736328125L38.880615234375,15.25634765625 43.7255859375,16.81640625 48.1457481384277,19.34326171875 52.060546875,22.763671875 49.013671875,25.6640625 45.7653770446777,22.82958984375 42.0556640625,20.712890625 37.994384765625,19.39453125 33.69140625,18.955078125 28.564453125,19.599609375 23.759765625,21.50390625 26.07421875,22.734375 27.8759765625,24.580078125 29.0478515625,26.8798828125 29.47265625,29.47265625 28.798828125,32.724609375 26.982421875,35.4052734375 24.3017578125,37.236328125 21.064453125,37.91015625 17.7685546875,37.2509765625 15.087890625,35.44921875 13.2861328125,32.7685546875 12.626953125,29.47265625 13.3154296875,25.8544921875 15.322265625,22.763671875 19.1455078125,19.365234375 23.671875,16.845703125 28.623046875,15.2783203125 33.69140625,14.736328125z M4.21875,4.21874952316284L4.21875,63.1640625 63.1640625,63.1640625 63.1640625,4.21874952316284 4.21875,4.21874952316284z M0,0L67.3828125,0 67.3828125,67.3828125 0,67.3828125 0,0z" />
    </g>
  </g>
</svg>