<?xml version="1.0" encoding="utf-8"?>
<!DOCTYPE svg PUBLIC "-//W3C//DTD SVG 1.1//EN" "http://www.w3.org/Graphics/SVG/1.1/DTD/svg11.dtd">
<svg width="67.3828125" height="67.3828125" xmlns="http://www.w3.org/2000/svg" xmlns:xlink="http://www.w3.org/1999/xlink" xmlns:xml="http://www.w3.org/XML/1998/namespace" version="1.1">
  <g>
    <g>
      <path style="fill:#FF0000;fill-opacity:1" d="M27.36328125,20.537109375L27.36328125,44.736328125 33.69140625,44.208984375 40.01953125,44.736328125 40.01953125,20.537109375 33.69140625,21.064453125 27.36328125,20.537109375z M15.791015625,11.865234375L19.9951152801514,13.970947265625 24.404296875,15.5419921875 28.98193359375,16.519775390625 33.69140625,16.845703125 38.40087890625,16.519775390625 42.978515625,15.5419921875 47.3876914978027,13.970947265625 51.591796875,11.865234375 53.701171875,15.498046875 49.0869140625,17.841796875 44.208984375,19.5703125 44.208984375,45.703125 49.0869140625,47.431640625 53.701171875,49.775390625 51.591796875,53.408203125 47.3840293884277,51.30615234375 42.9638671875,49.74609375 38.382568359375,48.779296875 33.69140625,48.45703125 29.000244140625,48.779296875 24.4189453125,49.74609375 19.9987773895264,51.30615234375 15.791015625,53.408203125 13.681640625,49.775390625 18.2958984375,47.431640625 23.173828125,45.703125 23.173828125,19.5703125 18.2958984375,17.841796875 13.681640625,15.498046875 15.791015625,11.865234375z M4.21875,4.21874952316284L4.21875,63.1640625 63.1640625,63.1640625 63.1640625,4.21874952316284 4.21875,4.21874952316284z M0,0L67.3828125,0 67.3828125,67.3828125 0,67.3828125 0,0z" />
    </g>
  </g>
</svg>