<?xml version="1.0" encoding="utf-8"?>
<!DOCTYPE svg PUBLIC "-//W3C//DTD SVG 1.1//EN" "http://www.w3.org/Graphics/SVG/1.1/DTD/svg11.dtd">
<svg width="61.0546875" height="63.1640625" xmlns="http://www.w3.org/2000/svg" xmlns:xlink="http://www.w3.org/1999/xlink" xmlns:xml="http://www.w3.org/XML/1998/namespace" version="1.1">
  <g>
    <g>
      <path style="fill:#FF0000;fill-opacity:1" d="M20.244140625,42.099609375L13.9453125,54.7265625 23.173828125,54.7265625 23.173828125,50.33203125 22.412109375,49.51171875 22.119140625,48.427734375 22.4267578125,47.34375 23.173828125,46.494140625 23.173828125,42.099609375 20.244140625,42.099609375z M34.74609375,37.880859375L24.228515625,48.427734375 34.74609375,58.9453125 34.74609375,55.810546875 50.537109375,55.810546875 56.865234375,43.154296875 34.74609375,43.154296875 34.74609375,37.880859375z M51.796875,31.9921875L40.83984375,37.470703125 42.65625,41.044921875 56.337890625,41.044921875 51.796875,31.9921875z M21.064453125,23.14453125L6.328125,27.36328125 10.517578125,29.47265625 4.21875,42.099609375 10.517578125,54.7265625 11.572265625,54.7265625 21.064453125,35.80078125 25.25390625,37.880859375 21.064453125,23.14453125z M22.5,5.50781202316284L16.435546875,17.666015625 27.36328125,23.14453125 29.35546875,19.189453125 22.5,5.50781202316284z M24.228515625,4.189453125L33.69140625,23.14453125 29.47265625,25.25390625 44.208984375,31.58203125 48.427734375,14.736328125 44.208984375,16.845703125 37.91015625,4.189453125 24.228515625,4.189453125z M20.56640625,0L40.01953125,0 46.11328125,11.19140625 47.2412109375,10.6787109375 48.45703125,10.48828125 50.068359375,10.8251953125 51.4013671875,11.748046875 52.3095703125,13.095703125 52.646484375,14.70703125 52.5146484375,16.0546875 52.177734375,17.6513671875 51.73828125,19.306640625 51.298828125,20.771484375 51.2255859375,21.03515625 51.15234375,21.26953125 61.0546875,42.099609375 53.14453125,58.9453125 40.01953125,58.9453125 39.6826171875,60.6005859375 38.7744140625,61.9482421875 37.4267578125,62.841796875 35.771484375,63.1640625 34.16748046875,62.8564453125 32.8125,61.93359375 29.853515625,58.9453125 8.408203125,58.9453125 0,42.099609375 4.86328125,31.34765625 2.8564453125,29.794921875 2.109375,27.392578125 2.314453125,26.0192890167236 2.9296875,24.8291015625 5.15625,23.3203125 9.521484375,22.060546875 20.56640625,0z" />
    </g>
  </g>
</svg>