<?xml version="1.0" encoding="utf-8"?>
<!DOCTYPE svg PUBLIC "-//W3C//DTD SVG 1.1//EN" "http://www.w3.org/Graphics/SVG/1.1/DTD/svg11.dtd">
<svg width="29.8535156250063" height="42.59765625" xmlns="http://www.w3.org/2000/svg" xmlns:xlink="http://www.w3.org/1999/xlink" xmlns:xml="http://www.w3.org/XML/1998/namespace" version="1.1">
  <g>
    <g>
      <path style="fill:#FF0000;fill-opacity:1" d="M5.7421875,37.353515625L4.12353515625,37.569580078125 3.076171875,38.2177734375 2.255859375,40.546875 27.59765625,40.546875 26.77734375,38.2177734375 25.72998046875,37.569580078125 24.111328125,37.353515625 5.7421875,37.353515625z M8.96484375,33.955078125L8.28369140625,34.13818359375 8.056640625,34.6875 8.28369140625,35.19287109375 8.96484375,35.361328125 20.888671875,35.361328125 21.56982421875,35.19287109375 21.796875,34.6875 21.56982421875,34.13818359375 20.888671875,33.955078125 8.96484375,33.955078125z M13.4765625,20.5078125L13.4765625,21.943359375 12.94921875,27.3193359375 11.484375,31.962890625 18.369140625,31.962890625 16.904296875,27.3193359375 16.376953125,21.943359375 16.376953125,20.5078125 13.4765625,20.5078125z M12.421875,17.080078125L11.7187480926514,17.2631855010986 11.484375,17.8125 11.7187480926514,18.3398456573486 12.421875,18.515625 17.431640625,18.515625 18.134765625,18.3398456573486 18.369140625,17.8125 18.134765625,17.2631855010986 17.431640625,17.080078125 12.421875,17.080078125z M9.169921875,11.865234375L7.763671875,12.2900390625 7.294921875,13.4765625 7.763671875,14.677734375 9.169921875,15.1171875 20.68359375,15.1171875 22.08984375,14.677734375 22.55859375,13.4765625 22.08984375,12.2900390625 20.68359375,11.865234375 9.169921875,11.865234375z M14.736328125,1.845703125L12.94921875,2.16796875 11.5576171875,3.0908203125 10.6640625,4.51171875 10.341796875,6.328125 10.751953125,8.3349609375 11.89453125,9.873046875 17.958984375,9.873046875 19.1015625,8.3349609375 19.51171875,6.328125 19.189453125,4.51171875 18.2958984375,3.0908203125 16.904296875,2.16796875 15.1171875,1.845703125 14.736328125,1.845703125z M14.736328125,0L15.1171875,0 17.63671875,0.468749523162842 19.6728515625,1.7724609375 21.03515625,3.7646484375 21.533203125,6.328125 21.26953125,8.26171875 20.56640625,9.873046875 22.31689453125,10.2099609375 23.642578125,10.986328125 24.4775390625,12.1069345474243 24.755859375,13.4765625 24.49951171875,14.8974628448486 23.73046875,16.0546875 22.44873046875,16.8237323760986 20.654296875,17.080078125 20.478515625,17.080078125 20.56640625,17.4609375 20.595703125,17.841796875 20.0390625,19.4970703125 18.427734375,20.44921875 18.427734375,21.97265625 18.515625,24.287109375 18.8525390625,26.7333984375 19.5556640625,29.296875 20.771484375,31.962890625 20.947265625,31.962890625 22.32421875,32.197265625 23.2763671875,32.7978515625 23.8330078125,33.6474609375 24.0234375,34.658203125 23.876953125,35.361328125 24.08203125,35.361328125 26.744384765625,35.76416015625 28.5205078125,36.97265625 29.520263671875,38.9208984375 29.853515625,41.54296875 29.853515625,42.59765625 0,42.59765625 0,41.54296875 0.322265625,38.90625 1.3330078125,36.97265625 3.1201171875,35.771484375 5.771484375,35.361328125 5.9765625,35.361328125 5.830078125,34.658203125 6.0205078125,33.6474609375 6.5771484375,32.7978515625 7.529296875,32.197265625 8.90625,31.962890625 9.08203125,31.962890625 10.2978515625,29.296875 11.0009765625,26.7333984375 11.337890625,24.287109375 11.42578125,21.97265625 11.42578125,20.44921875 9.814453125,19.4970703125 9.2578125,17.841796875 9.287109375,17.4609375 9.375,17.080078125 9.19921875,17.080078125 7.40478515625,16.8237323760986 6.123046875,16.0546875 5.35400390625,14.8974628448486 5.09765625,13.4765625 5.3759765625,12.1069345474243 6.2109375,10.986328125 7.53662109375,10.2099609375 9.287109375,9.873046875 8.583984375,8.26171875 8.3203125,6.328125 8.818359375,3.7646484375 10.1806640625,1.7724609375 12.216796875,0.468749523162842 14.736328125,0z" />
    </g>
  </g>
</svg>