<?xml version="1.0" encoding="utf-8"?>
<!DOCTYPE svg PUBLIC "-//W3C//DTD SVG 1.1//EN" "http://www.w3.org/Graphics/SVG/1.1/DTD/svg11.dtd">
<svg width="41.3671875" height="49.21875" xmlns="http://www.w3.org/2000/svg" xmlns:xlink="http://www.w3.org/1999/xlink" xmlns:xml="http://www.w3.org/XML/1998/namespace" version="1.1">
  <g>
    <g>
      <path style="fill:#FF0000;fill-opacity:1" d="M5.185546875,43.18359375L5.185546875,46.083984375 12.7587890625,46.8310546875 20.654296875,47.080078125 24.5947265625,47.021484375 28.59375,46.8310546875 32.5048828125,46.5087890625 36.181640625,46.083984375 36.181640625,43.18359375 28.505859375,43.41796875 20.80078125,43.4765625 20.56640625,43.4765625 12.861328125,43.41796875 5.185546875,43.18359375z M20.56640625,38.84765625L12.861328125,38.876953125 5.185546875,39.052734375 5.185546875,41.6015625 12.861328125,41.7626953125 20.56640625,41.77734375 20.80078125,41.77734375 28.505859375,41.7626953125 36.181640625,41.6015625 36.181640625,39.052734375 28.505859375,38.876953125 20.80078125,38.84765625 20.56640625,38.84765625z M20.56640625,33.603515625L12.744140625,33.7060546875 5.185546875,34.013671875 5.185546875,37.44140625 12.861328125,37.2216796875 20.56640625,37.1484375 20.80078125,37.1484375 28.505859375,37.2216796875 36.181640625,37.44140625 36.181640625,34.013671875 28.4912109375,33.7060546875 20.56640625,33.603515625z M33.369140625,13.798828125L31.717529296875,13.99658203125 30.2197265625,14.58984375 27.685546875,16.7138671875 25.7373046875,19.8046875 24.3310546875,23.5107421875 23.4228515625,27.4951171875 22.998046875,31.376953125 24.5947265625,31.6845703125 26.6015625,31.787109375 28.92333984375,31.578369140625 31.201171875,30.9521484375 35.21484375,28.564453125 38.056640625,24.814453125 38.8696250915527,22.4780292510986 39.140625,19.86328125 38.7744140625,17.51953125 37.67578125,15.5859375 35.859375,14.2822265625 33.369140625,13.798828125z M7.998046875,13.798828125L5.5078125,14.2822265625 3.69140625,15.5859375 2.5927734375,17.51953125 2.2265625,19.86328125 2.49755859375,22.4780292510986 3.310546875,24.814453125 6.15234375,28.564453125 10.166015625,30.9521484375 12.44384765625,31.578369140625 14.765625,31.787109375 16.7724609375,31.6845703125 18.369140625,31.376953125 17.9296875,27.4951171875 17.0361328125,23.5107421875 15.6298828125,19.8046875 13.681640625,16.7138671875 11.1474609375,14.58984375 9.649658203125,13.99658203125 7.998046875,13.798828125z M20.68359375,8.7890625L19.5556640625,11.1474609375 18.9111328125,13.4765625 18.6181640625,15.6884765625 18.544921875,17.666015625 18.7939453125,20.9619140625 19.365234375,24.0673828125 20.0390625,27.509765625 20.625,31.787109375 20.7421875,31.787109375 21.3134765625,27.509765625 22.001953125,24.0673828125 22.5732421875,20.9619140625 22.822265625,17.666015625 22.7490234375,15.6884765625 22.44140625,13.4765625 21.796875,11.1474609375 20.68359375,8.7890625z M19.775390625,0L21.591796875,0 21.591796875,1.72851538658142 23.26171875,1.72851538658142 23.26171875,3.3984375 21.591796875,3.3984375 21.591796875,6.416015625 23.994140625,11.25 24.67529296875,14.0185546875 24.90234375,17.05078125 26.3671875,15.05859375 28.271484375,13.4033203125 30.5859375,12.275390625 33.28125,11.865234375 36.5185546875,12.4658203125 39.08203125,14.150390625 40.7666015625,16.7138671875 41.3671875,19.98046875 40.78125,23.7890625 39.169921875,27.2021484375 36.708984375,30 33.603515625,31.962890625 34.6875,32.0361328125 35.9326171875,32.1240234375 37.177734375,32.2119140625 38.291015625,32.28515625 38.291015625,47.98828125 29.4873046875,48.9111328125 20.625,49.21875 11.982421875,48.9111328125 3.076171875,47.98828125 3.076171875,32.28515625 4.189453125,32.2119140625 5.4345703125,32.1240234375 6.6650390625,32.0361328125 7.763671875,31.962890625 4.658203125,30 2.197265625,27.2021484375 0.5859375,23.7890625 0,19.98046875 0.6005859375,16.7138671875 2.28515625,14.150390625 4.8486328125,12.4658203125 8.0859375,11.865234375 10.78125,12.275390625 13.095703125,13.4033203125 15,15.05859375 16.46484375,17.05078125 16.6918926239014,14.0185546875 17.373046875,11.25 19.775390625,6.416015625 19.775390625,3.3984375 18.10546875,3.3984375 18.10546875,1.72851538658142 19.775390625,1.72851538658142 19.775390625,0z" />
    </g>
  </g>
</svg>