<?xml version="1.0" encoding="utf-8"?>
<!DOCTYPE svg PUBLIC "-//W3C//DTD SVG 1.1//EN" "http://www.w3.org/Graphics/SVG/1.1/DTD/svg11.dtd">
<svg width="67.3828125" height="67.3828125" xmlns="http://www.w3.org/2000/svg" xmlns:xlink="http://www.w3.org/1999/xlink" xmlns:xml="http://www.w3.org/XML/1998/namespace" version="1.1">
  <g>
    <g>
      <path style="fill:#FF0000;fill-opacity:1" d="M43.154296875,40.01953125L41.1181640625,40.4296875 39.4482421875,41.5576171875 38.3203125,43.2275390625 37.91015625,45.263671875 38.3203125,47.314453125 39.4482421875,48.9990234375 41.1181640625,50.126953125 43.154296875,50.537109375 45.205078125,50.126953125 46.8896484375,48.9990234375 48.017578125,47.3291015625 48.427734375,45.263671875 48.017578125,43.2275390625 46.8896484375,41.5576171875 45.205078125,40.4296875 43.154296875,40.01953125z M12.626953125,12.626953125L17.2998046875,13.3740234375 19.2883281707764,14.447021484375 21.064453125,16.171875 24.3310546875,13.564453125 26.326904296875,12.861328125 28.41796875,12.626953125 32.109375,13.3740234375 35.126953125,15.41015625 37.1630859375,18.427734375 37.91015625,22.119140625 37.91015625,37.412109375 40.400390625,36.2109375 43.154296875,35.80078125 46.845703125,36.5478515625 49.86328125,38.583984375 51.8994140625,41.5869140625 52.646484375,45.263671875 51.8994140625,48.955078125 49.86328125,51.97265625 46.845703125,54.0087890625 43.154296875,54.755859375 41.0632286071777,54.521484375 39.0673828125,53.818359375 35.80078125,51.2109375 34.013671875,52.9248046875 32.0361328125,54.0234375 29.8388671875,54.5947265625 27.36328125,54.755859375 27.36328125,50.537109375 28.41796875,50.537109375 30.46875,50.126953125 32.1533203125,48.9990234375 33.28125,47.3291015625 33.69140625,45.263671875 33.69140625,22.119140625 33.28125,20.068359375 32.1533203125,18.3837890625 30.46875,17.255859375 28.41796875,16.845703125 26.3818359375,17.255859375 24.7119140625,18.3837890625 23.583984375,20.068359375 23.173828125,22.119140625 23.173828125,46.318359375 18.955078125,46.318359375 18.955078125,22.119140625 18.544921875,20.068359375 17.4169921875,18.3837890625 15.732421875,17.255859375 13.681640625,16.845703125 12.626953125,16.845703125 12.626953125,12.626953125z M4.21875,4.21874952316284L4.21875,63.1640625 63.1640625,63.1640625 63.1640625,4.21874952316284 4.21875,4.21874952316284z M0,0L67.3828125,0 67.3828125,67.3828125 0,67.3828125 0,0z" />
    </g>
  </g>
</svg>