<?xml version="1.0" encoding="utf-8"?>
<!DOCTYPE svg PUBLIC "-//W3C//DTD SVG 1.1//EN" "http://www.w3.org/Graphics/SVG/1.1/DTD/svg11.dtd">
<svg width="50.5371093750015" height="67.3828125" xmlns="http://www.w3.org/2000/svg" xmlns:xlink="http://www.w3.org/1999/xlink" xmlns:xml="http://www.w3.org/XML/1998/namespace" version="1.1">
  <g>
    <g>
      <path style="fill:#FF0000;fill-opacity:1" d="M8.408203125,52.646484375L6.767578125,52.9833984375 5.4345703125,53.8916015625 4.541015625,55.224609375 4.21875,56.865234375 4.21875,63.1640625 25.25390625,63.1640625 25.25390625,52.646484375 8.408203125,52.646484375z M18.92578125,27.36328125L18.544921875,33.046875 17.5634765625,38.466796875 15.6884765625,43.6083984375 12.626953125,48.427734375 25.25390625,48.427734375 25.25390625,27.36328125 18.92578125,27.36328125z M16.845703125,21.064453125L15.3515625,21.6796875 14.736328125,23.173828125 15.3662109375,24.6533203125 16.845703125,25.283203125 25.25390625,25.283203125 25.25390625,21.064453125 16.845703125,21.064453125z M25.25390625,4.21874952316284L21.9873046875,4.892578125 19.306640625,6.70898485183716 17.5048828125,9.3896484375 16.845703125,12.65625 17.021484375,14.3994140625 17.578125,16.083984375 19.2993144989014,16.6552734375 21.064453125,16.845703125 24.345703125,16.1865234375 27.01171875,14.384765625 28.8134765625,11.7041015625 29.47265625,8.4375 29.2822265625,6.67969036102295 28.7109375,4.98046827316284 27.041015625,4.40918254852295 25.25390625,4.21874952316284z M25.25390625,0L27.7880859375,0.249026298522949 30.17578125,0.99609375 34.2041015625,3.70605516433716 36.9140625,7.71972703933716 37.6611328125,10.096435546875 37.91015625,12.626953125 37.646484375,15.2197265625 36.85546875,17.6953125 39.169921875,20.009765625 39.80712890625,21.533203125 40.01953125,23.173828125 39.7265625,25.078125 38.876953125,26.7626953125 37.55859375,28.1396484375 35.888671875,29.091796875 36.2255859375,33.193359375 36.97265625,37.1630859375 38.26171875,40.9716796875 40.25390625,44.560546875 43.41796875,46.2890625 45.5859375,49.189453125 47.63671875,50.5078125 49.189453125,52.294921875 50.185546875,54.462890625 50.537109375,56.865234375 50.537109375,67.3828125 0,67.3828125 0,56.865234375 0.3515625,54.462890625 1.34765625,52.294921875 2.900390625,50.4931640625 4.951171875,49.189453125 7.119140625,46.2890625 10.283203125,44.560546875 12.275390625,40.9716796875 13.564453125,37.1630859375 14.3115234375,33.193359375 14.6484375,29.091796875 12.9638671875,28.1396484375 11.66015625,26.7626953125 10.810546875,25.078125 10.517578125,23.173828125 10.72998046875,21.533203125 11.3671875,20.009765625 13.681640625,17.6953125 12.890625,15.2490234375 12.626953125,12.65625 12.8759765625,10.1220703125 13.623046875,7.73437452316284 16.3330078125,3.70605516433716 20.3466796875,0.99609375 22.7233867645264,0.249026298522949 25.25390625,0z" />
    </g>
  </g>
</svg>