<?xml version="1.0" encoding="utf-8"?>
<!DOCTYPE svg PUBLIC "-//W3C//DTD SVG 1.1//EN" "http://www.w3.org/Graphics/SVG/1.1/DTD/svg11.dtd">
<svg width="67.4121093750349" height="67.3828125" xmlns="http://www.w3.org/2000/svg" xmlns:xlink="http://www.w3.org/1999/xlink" xmlns:xml="http://www.w3.org/XML/1998/namespace" version="1.1">
  <g>
    <g>
      <path style="fill:#FF0000;fill-opacity:1" d="M33.720703125,52.646484375L31.2890625,53.1591796875 29.2822265625,54.5361328125 27.9052734375,56.54296875 27.392578125,58.974609375 21.09375,58.974609375 21.09375,63.1640625 46.34765625,63.1640625 46.34765625,58.974609375 40.048828125,58.974609375 39.5361328125,56.5576171875 38.1591796875,54.5361328125 36.1376953125,53.1591796875 33.720703125,52.646484375z M44.23828125,33.69140625L44.8681640625,37.763671875 46.69921875,41.103515625 49.6728515625,43.3740234375 51.5734825134277,44.000244140625 53.73046875,44.208984375 55.8837890625,44.000244140625 57.7734375,43.3740234375 60.732421875,41.103515625 62.5634765625,37.7490234375 63.193359375,33.69140625 44.23828125,33.69140625z M4.248046875,33.69140625L4.2041015625,34.1748046875 4.189453125,34.6875 4.9365234375,38.3056640625 6.9580078125,41.337890625 9.9462890625,43.4326171875 11.707763671875,44.014892578125 13.564453125,44.208984375 14.091796875,44.208984375 15.9375,44.007568359375 17.666015625,43.4033203125 20.5810546875,41.2646484375 22.5439453125,38.203125 23.26171875,34.62890625 23.2470703125,34.2333984375 23.203125,33.837890625 23.115234375,33.7939453125 22.5,33.7646484375 20.830078125,33.7353515625 19.4457988739014,33.724365234375 17.578125,33.720703125 15.186767578125,33.717041015625 12.2314453125,33.7060546875 8.616943359375,33.695068359375 4.248046875,33.69140625z M31.611328125,4.21874952316284L31.611328125,8.994140625 30.556640625,9.84375 28.9599609375,8.7158203125 27.01171875,8.43749904632568 16.69921875,8.43749904632568 15.5859375,6.94335889816284 13.857421875,6.32812404632568 12.564697265625,6.55151605606079 11.4990234375,7.22167873382568 10.784912109375,8.250732421875 10.546875,9.55078125 10.7666015625,10.6201162338257 11.337890625,11.54296875 6.298828125,31.58203125 8.49609375,31.58203125 13.2421875,12.59765625 13.4765625,12.626953125 13.7109375,12.626953125 13.9599609375,12.626953125 14.208984375,12.59765625 18.955078125,31.58203125 21.123046875,31.58203125 18.603515625,21.5625 16.11328125,11.54296875 16.435546875,11.0595703125 16.69921875,10.517578125 27.392578125,10.517578125 28.8720703125,11.1474609375 29.501953125,12.626953125 30.05859375,14.7216796875 31.58203125,16.259765625 31.5673828125,33.544921875 31.552734375,50.830078125 33.720703125,50.537109375 35.830078125,50.80078125 35.830078125,16.2890625 37.3681640625,14.736328125 37.939453125,12.626953125 38.5693359375,11.1474609375 40.048828125,10.517578125 50.7421875,10.517578125 50.9912109375,11.0595703125 51.328125,11.54296875 48.837890625,21.5625 46.318359375,31.58203125 48.486328125,31.58203125 53.232421875,12.59765625 53.4814453125,12.626953125 53.73046875,12.626953125 53.96484375,12.626953125 54.19921875,12.59765625 58.9453125,31.58203125 61.11328125,31.58203125 56.103515625,11.54296875 56.6455078125,10.6787109375 56.865234375,9.697265625 56.865234375,9.55078125 56.630859375,8.232421875 55.927734375,7.20703125 54.8730430603027,6.54785394668579 53.583984375,6.32812404632568 51.8408203125,6.92870998382568 50.7421875,8.43749904632568 45.732421875,8.4228515625 40.72265625,8.40820217132568 38.6279296875,8.6865234375 36.884765625,9.84375 35.830078125,8.994140625 35.830078125,4.21874952316284 31.611328125,4.21874952316284z M27.421875,0L40.048828125,0 40.048828125,4.21874952316284 42.158203125,4.24804639816284 44.296875,4.24804639816284 46.4208984375,4.2333984375 48.544921875,4.21874952316284 50.947265625,2.65136671066284 53.73046875,2.10937476158142 56.6015625,2.68066358566284 58.9453125,4.24804639816284 60.5126953125,6.59179639816284 61.083984375,9.46288967132568 60.615234375,12.099609375 64.951171875,29.47265625 67.412109375,29.47265625 67.412109375,33.69140625 67.3681640625,35.3759765625 67.2216796875,36.943359375 66.8994140625,38.4814453125 66.328125,40.078125 64.2333984375,43.5205078125 61.2890625,46.142578125 57.71484375,47.8271484375 53.73046875,48.427734375 50.9765586853027,48.160400390625 48.3984375,47.3583984375 46.0656700134277,46.09130859375 44.0478515625,44.4287109375 42.3852500915527,42.410888671875 41.1181640625,40.078125 40.316162109375,37.5 40.048828125,34.74609375 40.048828125,50.56640625 41.9677734375,52.4560546875 43.359375,54.755859375 50.56640625,54.755859375 50.56640625,67.3828125 16.875,67.3828125 16.875,54.755859375 24.08203125,54.755859375 25.458984375,52.4853515625 27.333984375,50.595703125 27.333984375,35.9765625 26.868896484375,38.543701171875 25.9423828125,40.9130859375 22.9541015625,44.853515625 18.75,47.4755859375 16.3037109375,48.189697265625 13.7109375,48.427734375 9.7265625,47.841796875 6.1376953125,46.1572265625 3.193359375,43.5205078125 1.11328125,40.078125 0.205078601837158,36.5185546875 0,32.87109375 0.0146489143371582,31.171875 0.029296875,29.47265625 2.490234375,29.47265625 6.826171875,12.099609375 6.357421875,9.46288967132568 6.9287109375,6.59179639816284 8.49609375,4.24804639816284 10.8251953125,2.68066358566284 13.7109375,2.10937476158142 16.494140625,2.65136671066284 18.8671875,4.21874952316284 20.9912109375,4.2333984375 23.115234375,4.24804639816284 25.2685546875,4.2333984375 27.392578125,4.21874952316284 27.4072265625,2.10937476158142 27.421875,0z" />
    </g>
  </g>
</svg>