<?xml version="1.0" encoding="utf-8"?>
<!DOCTYPE svg PUBLIC "-//W3C//DTD SVG 1.1//EN" "http://www.w3.org/Graphics/SVG/1.1/DTD/svg11.dtd">
<svg width="65.2734375" height="65.2734375" xmlns="http://www.w3.org/2000/svg" xmlns:xlink="http://www.w3.org/1999/xlink" xmlns:xml="http://www.w3.org/XML/1998/namespace" version="1.1">
  <g>
    <g>
      <path style="fill:#FF0000;fill-opacity:1" d="M41.484375,35.185546875L39.638671875,37.060546875 39.169921875,37.8076171875 38.6279296875,38.994140625 38.0712890625,40.2685546875 37.529296875,41.25 36.9140625,41.923828125 36.240234375,42.5390625 54.140625,60.439453125 55.60546875,61.0546875 57.099609375,60.439453125 60.439453125,57.099609375 61.0546875,55.634765625 60.439453125,54.140625 41.484375,35.185546875z M41.689453125,23.61328125L33.69140625,31.58203125 32.8125,32.109375 31.5673828125,32.63671875 30.322265625,33.1640625 29.47265625,33.69140625 9.052734375,54.140625 8.408203125,55.634765625 8.583984375,56.4111328125 9.052734375,57.099609375 9.8583984375,57.978515625 11.0888671875,59.2529296875 12.333984375,60.4248046875 13.18359375,60.9375 13.505859375,61.0400390625 13.857421875,61.0546875 15.3515625,60.439453125 25.60546875,50.244140625 35.80078125,40.01953125 36.3427734375,39.1552734375 36.826171875,37.939453125 37.32421875,36.708984375 37.91015625,35.80078125 45.87890625,27.802734375 41.689453125,23.61328125z M27.802734375,23.61328125L23.583984375,27.802734375 27.978515625,32.197265625 29.2236328125,31.318359375 30.703125,30.7177734375 32.138671875,30.0732421875 33.251953125,29.033203125 27.802734375,23.61328125z M46.318359375,4.21875L37.91015625,12.626953125 37.91015625,16.845703125 46.3330078125,25.25390625 54.755859375,33.69140625 56.513671875,31.9482421875 58.125,30.087890625 59.425048828125,27.9895038604736 60.3369140625,25.7373046875 61.0546875,20.888671875 60.64453125,17.4755859375 59.47265625,14.23828125 59.9267578125,13.828125 60.4541015625,13.330078125 60.87890625,12.7734375 61.0546875,12.2167959213257 60.76171875,11.455078125 60.087890625,10.72265625 59.091796875,9.7119140625 58.0517578125,8.8037109375 57.275390625,8.408203125 56.455078125,8.7451171875 55.83984375,9.404296875 55.751953125,9.3310546875 55.166015625,8.7744140625 53.583984375,7.236328125 52.2802696228027,5.95459270477295 50.537109375,4.21875 46.318359375,4.21875z M18.955078125,4.21875L13.681640625,9.462890625 13.0224609375,8.7890625 12.1875,8.4375 11.455078125,8.73046875 8.73046875,11.455078125 8.408203125,12.2167959213257 8.7744140625,13.037109375 9.462890625,13.681640625 4.21875,18.955078125 4.21875,23.173828125 12.626953125,31.58203125 16.845703125,31.58203125 31.58203125,16.845703125 31.58203125,12.626953125 23.173828125,4.21875 18.955078125,4.21875z M17.197265625,0L24.90234375,0 34.74609375,9.84375 44.58984375,0 52.265625,0 56.54296875,4.27734422683716 57.3046875,4.18945360183716 59.296875,4.62890672683716 60.99609375,5.7421875 63.720703125,8.466796875 64.8779296875,10.1953125 65.2734375,12.2167959213257 65.0537109375,13.7548828125 64.365234375,15.146484375 65.0390625,18.076171875 65.2734375,21.064453125 64.932861328125,24.7558612823486 63.9111328125,28.330078125 62.222900390625,31.63330078125 59.8828125,34.51171875 53.3203125,41.07421875 63.427734375,51.15234375 64.7900390625,53.203125 65.2734375,55.634765625 64.7900390625,58.0517578125 63.427734375,60.087890625 60.087890625,63.427734375 58.037109375,64.8046875 55.60546875,65.2734375 53.1884765625,64.7900390625 51.15234375,63.427734375 34.74609375,47.021484375 18.33984375,63.427734375 16.2890625,64.8046875 13.857421875,65.2734375 11.4404296875,64.7900390625 9.404296875,63.427734375 6.064453125,60.087890625 4.7021484375,58.0517578125 4.21875,55.634765625 4.6875,53.203125 6.064453125,51.15234375 21.416015625,35.80078125 10.8984375,35.80078125 0,24.90234375 0,17.197265625 4.248046875,12.94921875 4.21875,12.59765625 4.21875,12.24609375 4.5556640625,10.4150390625 5.4345703125,8.8330078125 6.6650390625,7.4267578125 8.02734375,6.15234375 8.466796875,5.7421875 10.3125,4.5556640625 12.48046875,4.21875 12.71484375,4.21875 12.94921875,4.27734422683716 17.197265625,0z" />
    </g>
  </g>
</svg>