<?xml version="1.0" encoding="utf-8"?>
<!DOCTYPE svg PUBLIC "-//W3C//DTD SVG 1.1//EN" "http://www.w3.org/Graphics/SVG/1.1/DTD/svg11.dtd">
<svg width="54.580078125" height="56.689453125" xmlns="http://www.w3.org/2000/svg" xmlns:xlink="http://www.w3.org/1999/xlink" xmlns:xml="http://www.w3.org/XML/1998/namespace" version="1.1">
  <g>
    <g>
      <path style="fill:#FF0000;fill-opacity:1" d="M27.3046875,5.947265625L7.32421875,25.8984375 5.0244140625,29.35546875 4.42016553878784,31.35498046875 4.21875,33.427734375 4.42748975753784,35.562744140625 5.0537109375,37.5732421875 7.32421875,40.9716796875 10.7080078125,43.2568359375 12.7185039520264,43.883056640625 14.853515625,44.091796875 17.7685546875,43.7109375 20.126953125,42.6708984375 22.1923828125,41.103515625 24.228515625,39.169921875 24.755859375,38.642578125 29.82421875,38.642578125 30.17578125,38.994140625 32.255859375,40.986328125 34.365234375,42.6123046875 36.7822265625,43.6962890625 39.755859375,44.091796875 41.8908653259277,43.883056640625 43.9013671875,43.2568359375 47.28515625,40.9716796875 49.5556640625,37.5732421875 50.1818809509277,35.562744140625 50.390625,33.427734375 50.1892051696777,31.35498046875 49.5849609375,29.35546875 47.28515625,25.8984375 27.3046875,5.947265625z M27.3046875,0L50.244140625,22.939453125 52.1044921875,25.198974609375 53.466796875,27.7587890625 54.3017578125,30.538330078125 54.580078125,33.45703125 54.290771484375,36.43798828125 53.4228515625,39.228515625 52.049560546875,41.75537109375 50.244140625,43.9453125 48.0541954040527,45.750732421875 45.52734375,47.1240234375 42.7368125915527,47.991943359375 39.755859375,48.28125 36.8957481384277,48.01025390625 34.1748046875,47.197265625 31.658935546875,45.87158203125 29.4140625,44.0625 29.4140625,46.171875 29.696044921875,48.599853515625 30.5419921875,50.8447265625 31.871337890625,52.855224609375 33.603515625,54.580078125 33.603515625,56.689453125 21.005859375,56.689453125 21.005859375,54.580078125 22.7197265625,52.8515625 24.052734375,50.830078125 24.90966796875,48.58154296875 25.1953125,46.171875 25.1953125,44.0625 22.950439453125,45.853271484375 20.4345703125,47.1826171875 17.7136211395264,48.006591796875 14.853515625,48.28125 11.868896484375,47.991943359375 9.0673828125,47.1240234375 6.533203125,45.750732421875 4.3505859375,43.9453125 2.55248951911926,41.75537109375 1.171875,39.228515625 0.29296875,36.43798828125 0,33.45703125 0.281982421875,30.538330078125 1.1279296875,27.7587890625 2.50121998786926,25.198974609375 4.365234375,22.939453125 27.3046875,0z" />
    </g>
  </g>
</svg>