<?xml version="1.0" encoding="utf-8"?>
<!DOCTYPE svg PUBLIC "-//W3C//DTD SVG 1.1//EN" "http://www.w3.org/Graphics/SVG/1.1/DTD/svg11.dtd">
<svg width="44.267578125" height="42.01171875" xmlns="http://www.w3.org/2000/svg" xmlns:xlink="http://www.w3.org/1999/xlink" xmlns:xml="http://www.w3.org/XML/1998/namespace" version="1.1">
  <g>
    <g>
      <path style="fill:#FF0000;fill-opacity:1" d="M18.662109375,26.07421875L22.08984375,36.533203125 25.48828125,26.07421875 18.662109375,26.07421875z M14.12109375,17.98828125L5.390625,24.345703125 16.201171875,24.345703125 14.12109375,17.98828125z M30.1171875,17.87109375L27.94921875,24.345703125 39.08203125,24.345703125 30.1171875,17.87109375z M22.1484375,12.12890625L15.615234375,16.904296875 18.076171875,24.345703125 26.07421875,24.345703125 28.564453125,16.7578125 22.1484375,12.12890625z M32.578125,4.51171875L32.51953125,4.599609375 23.5546875,11.19140625 29.091796875,15.146484375 32.578125,4.51171875z M11.572265625,4.51171875L15.087890625,15.234375 20.7421875,11.1328125 11.572265625,4.51171875z M8.0859375,0L22.08984375,10.078125 36.064453125,0 30.64453125,16.259765625 44.267578125,26.07421875 27.36328125,26.07421875 22.08984375,42.01171875 16.787109375,26.07421875 0,26.07421875 13.505859375,16.34765625 8.0859375,0z" />
    </g>
  </g>
</svg>