<?xml version="1.0" encoding="utf-8"?>
<!DOCTYPE svg PUBLIC "-//W3C//DTD SVG 1.1//EN" "http://www.w3.org/Graphics/SVG/1.1/DTD/svg11.dtd">
<svg width="52.8222656250001" height="52.763671875" xmlns="http://www.w3.org/2000/svg" xmlns:xlink="http://www.w3.org/1999/xlink" xmlns:xml="http://www.w3.org/XML/1998/namespace" version="1.1">
  <g>
    <g>
      <path style="fill:#FF0000;fill-opacity:1" d="M43.2421875,12.36328125L12.3046875,43.271484375 15.369873046875,45.413818359375 18.7646484375,47.0361328125 22.4523906707764,48.057861328125 26.396484375,48.3984375 30.28564453125,48.057861328125 33.984375,47.0361328125 37.40478515625,45.413818359375 40.458984375,43.271484375 28.037109375,30.849609375 30.8203125,28.06640625 43.30078125,40.4296875 45.4284629821777,37.401123046875 47.0654296875,33.9990234375 48.1091270446777,30.311279296875 48.45703125,26.42578125 48.1091270446777,22.5183124542236 47.0654296875,18.8232421875 45.4138145446777,15.413818359375 43.2421875,12.36328125z M26.396484375,4.39453125L22.4523906707764,4.73876953125 18.7646484375,5.771484375 15.369873046875,7.41943359375 12.3046875,9.609375 24.755859375,21.943359375 21.97265625,24.755859375 9.462890625,12.421875 7.386474609375,15.450439453125 5.7861328125,18.8525390625 4.764404296875,22.5402851104736 4.423828125,26.42578125 4.7607421875,30.32958984375 5.771484375,34.013671875 7.3681640625,37.40478515625 9.462890625,40.4296875 40.4296875,9.55078125 37.379150390625,7.386474609375 33.9697265625,5.7568359375 30.281982421875,4.735107421875 26.396484375,4.39453125z M26.396484375,0L29.94140625,0.241701900959015 33.369140625,0.966796875 39.66796875,3.64746069908142 45.029296875,7.7783203125 49.1748046875,13.154296875 51.85546875,19.4677734375 52.5805625915527,22.8845233917236 52.822265625,26.42578125 52.5805625915527,29.970703125 51.85546875,33.3984375 49.1748046875,39.697265625 45.029296875,45.0439453125 39.66796875,49.2041015625 36.62841796875,50.738525390625 33.369140625,51.85546875 29.94140625,52.53662109375 26.396484375,52.763671875 22.8369121551514,52.53662109375 19.423828125,51.85546875 16.17919921875,50.738525390625 13.125,49.2041015625 7.7490234375,45.0439453125 3.61816358566284,39.697265625 2.0947265625,36.654052734375 0.9521484375,33.3837890625 0.238036930561066,29.952392578125 0,26.42578125 0.241699039936066,22.8845233917236 0.966796875,19.4677734375 2.1240234375,16.212158203125 3.66210889816284,13.154296875 7.79296875,7.7783203125 13.1396484375,3.64746069908142 19.4384765625,0.966796875 22.8552227020264,0.241701900959015 26.396484375,0z" />
    </g>
  </g>
</svg>