<?xml version="1.0" encoding="utf-8"?>
<!DOCTYPE svg PUBLIC "-//W3C//DTD SVG 1.1//EN" "http://www.w3.org/Graphics/SVG/1.1/DTD/svg11.dtd">
<svg width="63.1640625" height="67.32421875" xmlns="http://www.w3.org/2000/svg" xmlns:xlink="http://www.w3.org/1999/xlink" xmlns:xml="http://www.w3.org/XML/1998/namespace" version="1.1">
  <g>
    <g>
      <path style="fill:#FF0000;fill-opacity:1" d="M46.318359375,33.6328125L46.318359375,63.10546875 50.537109375,63.10546875 50.537109375,33.6328125 46.318359375,33.6328125z M12.626953125,33.6328125L12.626953125,63.10546875 16.845703125,63.10546875 16.845703125,33.6328125 12.626953125,33.6328125z M33.69140625,18.896484375L46.318359375,18.896484375 46.318359375,27.3046875 33.69140625,27.3046875 33.69140625,18.896484375z M16.845703125,18.896484375L29.47265625,18.896484375 29.47265625,27.3046875 16.845703125,27.3046875 16.845703125,18.896484375z M8.642578125,15.99609375L10.13671875,18.10546875 11.30126953125,18.69873046875 12.626953125,18.896484375 12.626953125,27.3046875 6.32812547683716,27.3046875 6.32812547683716,31.5234375 56.865234375,31.5234375 56.865234375,27.3046875 50.537109375,27.3046875 50.537109375,18.896484375 51.8481407165527,18.69873046875 53.02734375,18.10546875 54.55078125,15.99609375 52.5952110290527,16.58935546875 50.537109375,16.787109375 12.626953125,16.787109375 10.576171875,16.58935546875 8.642578125,15.99609375z M4.21875047683716,6.26953077316284L4.21875047683716,6.416015625 4.87793016433716,9.55078125 6.66503953933716,12.1875 9.2724609375,14.00390625 12.392578125,14.677734375 50.537109375,14.677734375 53.818359375,14.0185546875 56.484375,12.216796875 58.2861328125,9.55078125 58.9453125,6.26953077316284 58.65234375,6.591796875 56.982421875,8.1884765625 54.990234375,9.4189453125 52.8076171875,10.1953125 50.537109375,10.458984375 12.626953125,10.458984375 10.21728515625,10.17333984375 7.96875047683716,9.31640625 5.947265625,7.9833984375 4.21875047683716,6.26953077316284z M3.07617235183716,0L4.59960985183716,0.468750476837158 5.90332078933716,1.62597608566284 7.16308641433716,3.13476538658142 8.5693359375,4.6435546875 10.3271484375,5.80078125 12.626953125,6.26953077316284 50.537109375,6.26953077316284 52.8369140625,5.80078125 54.5947265625,4.6435546875 56.0009765625,3.13476538658142 57.2607421875,1.62597608566284 58.564453125,0.468750476837158 60.087890625,0 61.2890625,0.249023675918579 62.255859375,0.908203125 62.9150390625,1.87499964237213 63.1640625,3.076171875 63.1640625,6.26953077316284 62.882080078125,8.90625 62.0361328125,11.42578125 60.684814453125,13.71826171875 58.88671875,15.673828125 58.43994140625,17.5634765625 57.568359375,19.306640625 54.755859375,21.97265625 54.755859375,23.115234375 61.0546875,23.115234375 61.0546875,35.7421875 54.755859375,35.7421875 54.755859375,67.32421875 42.099609375,67.32421875 42.099609375,35.7421875 21.064453125,35.7421875 21.064453125,67.32421875 8.408203125,67.32421875 8.408203125,35.7421875 2.10937547683716,35.7421875 2.10937547683716,23.115234375 8.408203125,23.115234375 8.408203125,21.97265625 5.59570360183716,19.306640625 4.72412109375,17.5634765625 4.27734422683716,15.673828125 2.47924852371216,13.71826171875 1.12793016433716,11.42578125 0.281982481479645,8.90625 0,6.26953077316284 0,3.076171875 0.219726622104645,1.86767864227295 0.878906726837158,0.878906488418579 1.86767625808716,0.219729453325272 3.07617235183716,0z" />
    </g>
  </g>
</svg>