<?xml version="1.0" encoding="utf-8"?>
<!DOCTYPE svg PUBLIC "-//W3C//DTD SVG 1.1//EN" "http://www.w3.org/Graphics/SVG/1.1/DTD/svg11.dtd">
<svg width="33.193359375" height="52.91015625" xmlns="http://www.w3.org/2000/svg" xmlns:xlink="http://www.w3.org/1999/xlink" xmlns:xml="http://www.w3.org/XML/1998/namespace" version="1.1">
  <g>
    <g>
      <path style="fill:#FF0000;fill-opacity:1" d="M22.880859375,0.0292971134185791L28.857421875,0.0292971134185791 28.857421875,10.341796875 28.623046875,13.10302734375 27.919921875,15.3515625 26.846923828125,17.1423358917236 25.5029296875,18.5302734375 22.177734375,20.2001953125 18.486328125,20.68359375 16.728515625,20.9619140625 15.3515625,21.7529296875 14.4287109375,23.02734375 14.091796875,24.697265625 14.4287109375,26.3818359375 15.3515625,27.65625 16.728515625,28.4619140625 18.486328125,28.740234375 22.177734375,29.208984375 25.5029296875,30.8642578125 26.846923828125,32.255859375 27.919921875,34.0576171875 28.623046875,36.317138671875 28.857421875,39.08203125 28.857421875,44.033203125 33.193359375,44.033203125 25.927734375,52.91015625 25.810546875,52.91015625 18.544921875,44.033203125 22.880859375,44.033203125 22.880859375,39.08203125 22.5439453125,37.3974609375 21.62109375,36.123046875 20.244140625,35.3173828125 18.486328125,35.0390625 14.794921875,34.5556640625 11.4697265625,32.900390625 10.125732421875,31.519775390625 9.052734375,29.7216796875 8.349609375,27.462158203125 8.115234375,24.697265625 8.349609375,21.9360370635986 9.052734375,19.6875 10.125732421875,17.8967304229736 11.4697265625,16.5087890625 14.794921875,14.8388671875 18.486328125,14.35546875 20.244140625,14.0771484375 21.62109375,13.2861328125 22.5439453125,12.01171875 22.880859375,10.341796875 22.880859375,0.0292971134185791z M7.265625,0L7.3828125,0 14.6484375,8.876953125 10.3125,8.876953125 10.3125,15.76171875 8.49609375,17.87109375 7.265625,20.6396484375 6.708984375,24.697265625 6.84814453125,27.044677734375 7.265625,28.9892578125 8.525390625,31.81640625 10.341796875,33.80859375 10.3125,52.55859375 4.3359375,52.55859375 4.3359375,8.876953125 0,8.876953125 7.265625,0z" />
    </g>
  </g>
</svg>