<?xml version="1.0" encoding="utf-8"?>
<!DOCTYPE svg PUBLIC "-//W3C//DTD SVG 1.1//EN" "http://www.w3.org/Graphics/SVG/1.1/DTD/svg11.dtd">
<svg width="44.091796875" height="50.91796875" xmlns="http://www.w3.org/2000/svg" xmlns:xlink="http://www.w3.org/1999/xlink" xmlns:xml="http://www.w3.org/XML/1998/namespace" version="1.1">
  <g>
    <g>
      <path style="fill:#FF0000;fill-opacity:1" d="M22.060546875,4.5703125L17.4938945770264,5.0390625 13.2861328125,6.4453125 9.554443359375,8.67919921875 6.416015625,11.630859375 9.580078125,14.1650390625 11.9970703125,17.4169921875 13.564453125,21.1962890625 14.12109375,25.4296875 13.564453125,29.6923828125 11.9970703125,33.5302734375 9.580078125,36.796875 6.416015625,39.31640625 9.554443359375,42.25341796875 13.2861328125,44.501953125 17.4938945770264,45.93017578125 22.060546875,46.40625 26.6162109375,45.908203125 30.8056640625,44.47265625 34.51171875,42.2314453125 37.646484375,39.31640625 34.5263671875,36.8115234375 32.080078125,33.5595703125 30.5126953125,29.7509765625 29.970703125,25.546875 29.970703125,25.4296875 30.5126953125,21.1962890625 32.080078125,17.4169921875 34.5263671875,14.1650390625 37.646484375,11.630859375 34.51171875,8.7158203125 30.8056640625,6.474609375 26.6162109375,5.0537109375 22.060546875,4.5703125z M22.03125,0L28.095703125,0.732421398162842 31.14990234375,1.680908203125 34.1015625,3.06152391433716 36.92138671875,4.881591796875 39.580078125,7.1484375 41.9970664978027,9.90966796875 44.091796875,13.212890625 39.7412109375,15.3662109375 36.6650390625,18.5302734375 34.8486328125,22.060546875 34.248046875,25.4296875 34.8486328125,28.828125 36.6650390625,32.373046875 39.7412109375,35.56640625 44.091796875,37.763671875 41.9970664978027,41.026611328125 39.580078125,43.7841796875 36.92138671875,46.06201171875 34.1015625,47.8857421875 31.14990234375,49.2626953125 28.095703125,50.2001953125 22.03125,50.91796875 15.9814453125,50.2001953125 12.9345703125,49.2626953125 9.9755859375,47.8857421875 7.14477443695068,46.06201171875 4.482421875,43.7841796875 2.07275390625,41.026611328125 0,37.763671875 4.3505859375,35.5810546875 7.412109375,32.4169921875 9.2138671875,28.88671875 9.814453125,25.546875 9.814453125,25.4296875 9.2138671875,22.060546875 7.412109375,18.5302734375 4.3505859375,15.3662109375 0,13.212890625 2.07275390625,9.90966796875 4.482421875,7.1484375 7.14477443695068,4.881591796875 9.9755859375,3.06152391433716 12.9345703125,1.680908203125 15.9814453125,0.732421398162842 22.03125,0z" />
    </g>
  </g>
</svg>