<?xml version="1.0" encoding="utf-8"?>
<!DOCTYPE svg PUBLIC "-//W3C//DTD SVG 1.1//EN" "http://www.w3.org/Graphics/SVG/1.1/DTD/svg11.dtd">
<svg width="34.013671875" height="22.79296875" xmlns="http://www.w3.org/2000/svg" xmlns:xlink="http://www.w3.org/1999/xlink" xmlns:xml="http://www.w3.org/XML/1998/namespace" version="1.1">
  <g>
    <g>
      <path style="fill:#FF0000;fill-opacity:1" d="M16.9921875,6.064453125L15.439453125,8.4521484375 14.8828125,11.396484375 15.439453125,14.35546875 16.9921875,16.7578125 18.57421875,14.35546875 19.130859375,11.396484375 18.57421875,8.4521484375 16.9921875,6.064453125z M22.470703125,3.80859375L20.478515625,4.04296875 22.3974609375,7.353515625 23.0859375,11.396484375 22.3974609375,15.4541015625 20.478515625,18.75 21.4453125,18.9404296875 22.470703125,18.984375 25.5322265625,18.3837890625 27.9345703125,16.7578125 29.501953125,14.35546875 30.05859375,11.396484375 29.501953125,8.4375 27.9345703125,6.03515625 25.5322265625,4.4091796875 22.470703125,3.80859375z M11.54296875,3.80859375L8.4814453125,4.4091796875 6.0791015625,6.03515625 4.51171875,8.4375 3.955078125,11.396484375 4.51171875,14.35546875 6.0791015625,16.7578125 8.4814453125,18.3837890625 11.54296875,18.984375 12.5390625,18.9404296875 13.505859375,18.75 11.6015625,15.4541015625 10.927734375,11.396484375 11.6015625,7.353515625 13.505859375,4.04296875 11.54296875,3.80859375z M11.54296875,0L14.3994140625,0.3369140625 16.9921875,1.2890625 19.599609375,0.3369140625 22.470703125,0 24.7741680145264,0.208741664886475 26.9384765625,0.8349609375 30.6005859375,3.1787109375 33.0908203125,6.7822265625 33.782958984375,8.983154296875 34.013671875,11.396484375 33.782958984375,13.809814453125 33.0908203125,16.0107421875 30.6005859375,19.6142578125 26.9384765625,21.9580078125 24.7741680145264,22.584228515625 22.470703125,22.79296875 19.60693359375,22.470703125 16.9921875,21.50390625 14.4140625,22.470703125 11.54296875,22.79296875 9.239501953125,22.584228515625 7.0751953125,21.9580078125 3.4130859375,19.6142578125 0.9228515625,16.0107421875 0.230712890625,13.809814453125 0,11.396484375 0.230712890625,8.983154296875 0.9228515625,6.7822265625 3.4130859375,3.1787109375 7.0751953125,0.8349609375 9.239501953125,0.208741664886475 11.54296875,0z" />
    </g>
  </g>
</svg>