<?xml version="1.0" encoding="utf-8"?>
<!DOCTYPE svg PUBLIC "-//W3C//DTD SVG 1.1//EN" "http://www.w3.org/Graphics/SVG/1.1/DTD/svg11.dtd">
<svg width="67.3828125000004" height="67.3828125" xmlns="http://www.w3.org/2000/svg" xmlns:xlink="http://www.w3.org/1999/xlink" xmlns:xml="http://www.w3.org/XML/1998/namespace" version="1.1">
  <g>
    <g>
      <path style="fill:#FF0000;fill-opacity:1" d="M41.044921875,42.12890625L42.2607421875,42.3779296875 43.271484375,43.037109375 43.9599609375,44.033203125 44.208984375,45.263671875 43.9599609375,46.5087890625 43.2861328125,47.5048828125 42.275390625,48.1787109375 41.044921875,48.427734375 39.7998046875,48.1787109375 38.818359375,47.490234375 38.1591796875,46.4794921875 37.91015625,45.263671875 38.1591796875,44.0478515625 38.8330078125,43.0517578125 39.8291015625,42.3779296875 41.044921875,42.12890625z M14.736328125,33.69140625L12.630615234375,33.900146484375 10.6494140625,34.5263671875 7.3095703125,36.7822265625 5.0537109375,40.1220703125 4.427490234375,42.103271484375 4.21875,44.208984375 4.21875,52.646484375 4.423828125,54.752197265625 5.0390625,56.7333984375 7.294921875,60.087890625 10.6494140625,62.34375 12.630615234375,62.958984375 14.736328125,63.1640625 52.646484375,63.1640625 54.7521934509277,62.955322265625 56.7333984375,62.3291015625 60.0732421875,60.0732421875 62.3291015625,56.7333984375 62.955322265625,54.752197265625 63.1640625,52.646484375 62.786865234375,49.716796875 61.6552734375,47.197265625 59.857177734375,45.08056640625 57.48046875,43.359375 43.359375,35.244140625 40.7373046875,34.0869140625 37.91015625,33.69140625 29.47265625,33.69140625 29.47265625,43.2421875 31.23046875,44.560546875 32.5634765625,46.318359375 33.3984375,48.369140625 33.69140625,50.537109375 33.017578125,53.7890625 31.201171875,56.455078125 28.5205078125,58.271484375 25.25390625,58.9453125 21.9873046875,58.2861328125 19.306640625,56.484375 17.5048828125,53.8037109375 16.845703125,50.537109375 17.138671875,48.369140625 17.9736328125,46.318359375 19.306640625,44.560546875 21.064453125,43.2421875 21.064453125,33.69140625 14.736328125,33.69140625z M29.47265625,9.111328125L29.47265625,24.580078125 46.904296875,18.837890625 48.0029296875,18.0908203125 48.427734375,16.845703125 48.0029296875,15.6005859375 46.904296875,14.853515625 29.47265625,9.111328125z M25.048828125,4.21874952316284L24.3310546875,4.423828125 23.73046875,4.9365234375 23.3203125,5.61035108566284 23.173828125,6.328125 23.173828125,56.484375 25.01953125,56.865234375 26.19140625,56.748046875 27.36328125,56.484375 27.36328125,6.328125 27.216796875,5.58105516433716 26.8212890625,4.9072265625 26.220703125,4.4091796875 25.48828125,4.21874952316284 25.048828125,4.21874952316284z M25.25390625,0L27.48046875,0.410156488418579 29.3701171875,1.53808617591858 30.7763671875,3.23730444908142 31.5234375,5.36132764816284 48.22265625,10.869140625 50.0390586853027,11.77001953125 51.4453125,13.125 52.3461875915527,14.84619140625 52.646484375,16.845703125 52.3315391540527,18.88916015625 51.38671875,20.625 49.9365196228027,21.97998046875 48.10546875,22.880859375 31.58203125,28.330078125 31.58203125,29.47265625 33.7646484375,29.443359375 35.947265625,29.4140625 40.9130859375,29.8681640625 43.2385215759277,30.5383319854736 45.556640625,31.640625 59.58984375,39.697265625 62.8271484375,42.0849609375 65.2880859375,45.1025390625 66.8408203125,48.6474609375 67.3828125,52.646484375 67.093505859375,55.601806640625 66.2255859375,58.3740234375 64.85595703125,60.88623046875 63.0615234375,63.0615234375 60.88623046875,64.85595703125 58.3740234375,66.2255859375 55.601806640625,67.093505859375 52.646484375,67.3828125 14.736328125,67.3828125 11.781005859375,67.093505859375 9.0087890625,66.2255859375 6.49658107757568,64.85595703125 4.3212890625,63.0615234375 2.52685546875,60.88623046875 1.1572265625,58.3740234375 0.289306282997131,55.601806640625 0,52.646484375 0,44.208984375 0.289306282997131,41.253662109375 1.1572265625,38.4814453125 2.52685546875,35.96923828125 4.3212890625,33.7939453125 6.49658107757568,31.99951171875 9.0087890625,30.6298828125 11.781005859375,29.7619647979736 14.736328125,29.47265625 18.955078125,29.47265625 18.955078125,6.328125 19.453125,3.8818359375 20.80078125,1.86035132408142 22.8076171875,0.498046875 25.25390625,0z" />
    </g>
  </g>
</svg>