<?xml version="1.0" encoding="utf-8"?>
<!DOCTYPE svg PUBLIC "-//W3C//DTD SVG 1.1//EN" "http://www.w3.org/Graphics/SVG/1.1/DTD/svg11.dtd">
<svg width="50.44921875" height="52.79296875" xmlns="http://www.w3.org/2000/svg" xmlns:xlink="http://www.w3.org/1999/xlink" xmlns:xml="http://www.w3.org/XML/1998/namespace" version="1.1">
  <g>
    <g>
      <path style="fill:#FF0000;fill-opacity:1" d="M30.322265625,37.177734375L40.78125,37.177734375 43.3740196228027,37.3681640625 45.46875,37.939453125 47.1240196228027,38.822021484375 48.3984375,39.9462890625 49.9658203125,42.802734375 50.44921875,46.025390625 50.44921875,52.08984375 44.384765625,52.08984375 44.384765625,46.025390625 43.7109375,43.974609375 42.275390625,42.83203125 40.166015625,42.24609375 30.322265625,42.24609375 30.322265625,37.177734375z M32.080078125,28.388671875L35.80078125,28.388671875 35.80078125,32.4609375 32.05078125,32.4609375 29.94140625,33.076171875 29.1650390625,33.6474609375 28.505859375,34.482421875 28.0224609375,35.6689453125 27.83203125,37.20703125 27.83203125,43.30078125 27.392578125,46.5966796875 25.8544921875,49.6435546875 24.5654277801514,50.888671875 22.8955078125,51.8994140625 20.8044414520264,52.569580078125 18.251953125,52.79296875 0,52.79296875 0,47.021484375 18.28125,47.021484375 20.361328125,46.46484375 21.796875,45.3369140625 22.44140625,43.30078125 22.44140625,37.20703125 22.91015625,33.9990234375 24.4775390625,31.1865234375 27.421875,29.1650390625 29.50927734375,28.582763671875 32.080078125,28.388671875z M14.00390625,24.521484375L20.21484375,24.521484375 20.21484375,28.623046875 14.00390625,28.623046875 11.865234375,29.208984375 10.4443359375,30.5126953125 9.94995021820068,31.578369140625 9.78515625,33.046875 10.4443359375,35.1416015625 11.865234375,36.416015625 14.00390625,37.1484375 20.21484375,37.1484375 20.21484375,42.216796875 14.00390625,42.216796875 11.429443359375,42.008056640625 9.3310546875,41.3818359375 7.66845607757568,40.4296875 6.4013671875,39.2431640625 4.86328125,36.298828125 4.39453125,33.046875 4.86328125,29.8681640625 6.4013671875,27.1728515625 7.66845607757568,26.099853515625 9.3310546875,25.25390625 11.429443359375,24.70458984375 14.00390625,24.521484375z M31.025390625,1.66992139816284L26.25,6.73828125 44.853515625,13.271484375 44.326171875,6.328125 31.025390625,1.66992139816284z M30.205078125,0L45.99609375,5.537109375 46.58203125,13.88671875 47.900390625,15.615234375 44.853515625,24.228515625 43.564453125,23.73046875 42.0703125,27.919921875 37.763671875,26.3671875 39.228515625,22.265625 25.048828125,17.28515625 23.583984375,21.4453125 19.306640625,19.892578125 20.771484375,15.76171875 19.423828125,15.263671875 22.3828125,6.6796875 24.521484375,6.123046875 30.205078125,0z" />
    </g>
  </g>
</svg>