<?xml version="1.0" encoding="utf-8"?>
<!DOCTYPE svg PUBLIC "-//W3C//DTD SVG 1.1//EN" "http://www.w3.org/Graphics/SVG/1.1/DTD/svg11.dtd">
<svg width="67.3828125000009" height="56.865234375" xmlns="http://www.w3.org/2000/svg" xmlns:xlink="http://www.w3.org/1999/xlink" xmlns:xml="http://www.w3.org/XML/1998/namespace" version="1.1">
  <g>
    <g>
      <path style="fill:#FF0000;fill-opacity:1" d="M52.646484375,44.23828125L48.017578125,46.69921875 46.787109375,47.8564453125 46.318359375,49.482421875 46.5673828125,50.7275390625 47.2412109375,51.7236328125 48.2373046875,52.3974609375 49.482421875,52.646484375 50.712890625,52.3974609375 51.7236328125,51.7236328125 52.3974609375,50.7275390625 52.646484375,49.482421875 52.646484375,44.23828125z M42.099609375,44.23828125L37.5,46.69921875 36.2548828125,47.841796875 35.80078125,49.482421875 36.0498046875,50.7275390625 36.7236328125,51.7236328125 37.7197265625,52.3974609375 38.96484375,52.646484375 40.1953125,52.3974609375 41.19140625,51.708984375 41.8505859375,50.6982421875 42.099609375,49.482421875 42.099609375,44.23828125z M21.064453125,44.23828125L16.435546875,46.69921875 15.205078125,47.8564453125 14.736328125,49.482421875 14.9853515625,50.7275390625 15.6591796875,51.7236328125 16.6552734375,52.3974609375 17.900390625,52.646484375 19.1162109375,52.3974609375 20.126953125,51.708984375 20.8154296875,50.6982421875 21.064453125,49.482421875 21.064453125,44.23828125z M10.517578125,44.23828125L8.2177734375,45.4833984375 5.888671875,46.69921875 4.6728515625,47.8564453125 4.21875,49.482421875 4.4677734375,50.7275390625 5.1416015625,51.7236328125 6.1376953125,52.3974609375 7.3828125,52.646484375 8.61328125,52.3974609375 9.609375,51.708984375 10.2685546875,50.6982421875 10.517578125,49.482421875 10.517578125,44.23828125z M46.58203125,37.91015625L45.908203125,38.26171875 44.677734375,39.43359375 44.208984375,41.07421875 44.4580078125,42.2900390625 45.146484375,43.30078125 46.1572265625,43.9892578125 47.373046875,44.23828125 48.603515625,43.9892578125 49.6142578125,43.3154296875 50.2880859375,42.3193359375 50.537109375,41.07421875 50.537109375,37.91015625 46.58203125,37.91015625z M15.76171875,37.5L14.326171875,38.26171875 13.095703125,39.43359375 12.626953125,41.07421875 12.8759765625,42.3193359375 13.5498046875,43.3154296875 14.5458984375,43.9892578125 15.791015625,44.23828125 17.021484375,43.9892578125 18.0322265625,43.3154296875 18.7060546875,42.3193359375 18.955078125,41.07421875 18.955078125,37.91015625 17.34375,37.822265625 15.76171875,37.5z M31.58203125,27.392578125L27.9052734375,34.74609375 24.228515625,42.12890625 30.52734375,42.12890625 25.25390625,52.646484375 42.099609375,35.80078125 33.69140625,35.80078125 37.91015625,27.392578125 31.58203125,27.392578125z M37.91015625,4.21875L35.364990234375,4.43115234375 32.9443359375,5.068359375 28.6669921875,7.4560546875 25.400390625,11.1181640625 24.25048828125,13.3483905792236 23.49609375,15.791015625 21.2915019989014,15.0219745635986 18.955078125,14.765625 16.8493633270264,14.9743671417236 14.8681640625,15.6005859375 11.513671875,17.8564453125 9.2578125,21.1962890625 8.642578125,23.177490234375 8.4375,25.283203125 8.642578125,27.4072265625 9.2578125,29.384765625 11.513671875,32.724609375 14.853515625,34.98046875 16.8310527801514,35.595703125 18.955078125,35.80078125 25.01953125,35.80078125 27.626953125,30.5126953125 30.29296875,25.283203125 41.30859375,25.283203125 37.08984375,33.69140625 47.197265625,33.69140625 45.087890625,35.80078125 54.755859375,35.80078125 58.0224609375,35.1416015625 60.703125,33.33984375 62.5048828125,30.6591796875 63.1640625,27.392578125 62.5048828125,24.1259765625 60.703125,21.4453125 58.0224609375,19.62890625 54.755859375,18.955078125 52.646484375,18.955078125 52.3571739196777,15.9997577667236 51.4892578125,13.2275390625 50.1196250915527,10.71533203125 48.3251953125,8.5400390625 46.1498985290527,6.74560546875 43.6376953125,5.3759765625 40.8654747009277,4.508056640625 37.91015625,4.21875z M37.91015625,0L41.1511192321777,0.274658203125 44.2529296875,1.0986328125 47.1423301696777,2.4169921875 49.74609375,4.1748046875 53.9501953125,8.876953125 55.4333457946777,11.7333993911743 56.396484375,14.853515625 58.656005859375,15.3698749542236 60.7470703125,16.2744140625 64.2333984375,19.0576171875 66.5478515625,22.880859375 67.174072265625,25.078125 67.3828125,27.392578125 67.18505859375,29.630126953125 66.591796875,31.7724609375 64.39453125,35.537109375 61.0693359375,38.3349609375 56.865234375,39.84375 56.865234375,49.482421875 56.279296875,52.353515625 54.697265625,54.697265625 52.353515625,56.279296875 49.482421875,56.865234375 46.611328125,56.279296875 44.208984375,54.638671875 41.8212890625,56.279296875 38.96484375,56.865234375 36.6943359375,56.4990234375 34.6875,55.4736328125 33.076171875,53.90625 31.9921875,51.884765625 27.01171875,56.865234375 17.900390625,56.865234375 15.029296875,56.279296875 12.626953125,54.638671875 10.2392578125,56.279296875 7.3828125,56.865234375 4.51171875,56.279296875 2.16796875,54.697265625 0.5859375,52.353515625 0,49.482421875 0.190429329872131,47.67333984375 0.76171875,46.171875 2.7392578125,43.8427734375 5.44921875,42.1142578125 8.4375,40.576171875 8.84765625,38.59130859375 9.78515625,36.796875 7.4267578125,34.453125 5.68359375,31.6845703125 4.599609375,28.5791015625 4.21875,25.283203125 4.508056640625,22.327880859375 5.3759765625,19.5556640625 6.74194240570068,17.0434589385986 8.525390625,14.8681640625 10.689697265625,13.0737323760986 13.1982421875,11.7041015625 15.970458984375,10.836181640625 18.92578125,10.546875 19.892578125,10.576171875 20.859375,10.6640625 23.8623046875,6.2841796875 27.8759765625,2.9150390625 32.6513671875,0.76171875 35.247802734375,0.1904296875 37.91015625,0z" />
    </g>
  </g>
</svg>