<?xml version="1.0" encoding="utf-8"?>
<!DOCTYPE svg PUBLIC "-//W3C//DTD SVG 1.1//EN" "http://www.w3.org/Graphics/SVG/1.1/DTD/svg11.dtd">
<svg width="60" height="57.48046875" xmlns="http://www.w3.org/2000/svg" xmlns:xlink="http://www.w3.org/1999/xlink" xmlns:xml="http://www.w3.org/XML/1998/namespace" version="1.1">
  <g>
    <g>
      <path style="fill:#FF0000;fill-opacity:1" d="M31.552734375,52.5L33.28125,54.2578125 30.087890625,57.48046875 28.330078125,55.72265625 31.552734375,52.5z M23.203125,51.064453125L24.9609375,52.79296875 21.416015625,56.337890625 19.658203125,54.609375 23.203125,51.064453125z M5.888671875,48.193359375L7.6171875,49.951171875 1.7578125,55.6640625 0,53.935546875 5.888671875,48.193359375z M46.787109375,47.51953125L48.515625,49.27734375 40.60546875,57.333984375 38.84765625,55.576171875 46.787109375,47.51953125z M58.271484375,46.5234375L60,48.28125 53.671875,54.66796875 51.9140625,52.91015625 58.271484375,46.5234375z M38.37890625,45.673828125L40.107421875,47.40234375 36.5625,50.947265625 34.833984375,49.21875 38.37890625,45.673828125z M21.62109375,42.59765625L23.349609375,44.326171875 13.18359375,54.4921875 11.455078125,52.763671875 21.62109375,42.59765625z M13.212890625,41.044921875L14.94140625,42.802734375 11.396484375,46.34765625 9.66796875,44.58984375 13.212890625,41.044921875z M53.61328125,40.693359375L55.341796875,42.421875 51.796875,45.966796875 50.068359375,44.23828125 53.61328125,40.693359375z M36.796875,37.470703125L38.5546875,39.19921875 28.359375,49.365234375 26.630859375,47.63671875 36.796875,37.470703125z M28.447265625,35.7421875L30.205078125,37.5 26.66015625,41.044921875 24.90234375,39.287109375 28.447265625,35.7421875z M11.66015625,32.63671875L13.41796875,34.39453125 3.251953125,44.560546875 1.494140625,42.802734375 11.66015625,32.63671875z M51.85546875,32.197265625L53.583984375,33.955078125 43.41796875,44.12109375 41.66015625,42.36328125 51.85546875,32.197265625z M3.544921875,30.791015625L5.302734375,32.51953125 1.7578125,36.064453125 0,34.3359375 3.544921875,30.791015625z M43.65234375,30.64453125L45.380859375,32.373046875 41.8359375,35.91796875 40.107421875,34.16015625 43.65234375,30.64453125z M58.2421875,25.6640625L60,27.392578125 56.513671875,30.9375 54.755859375,29.1796875 58.2421875,25.6640625z M29.8828125,24.462890625L31.611328125,26.220703125 18.369140625,39.375 16.611328125,37.646484375 29.8828125,24.462890625z M43.30078125,20.888671875L45.029296875,22.6171875 33.486328125,34.189453125 31.7578125,32.4609375 43.30078125,20.888671875z M25.83984375,18.515625L27.59765625,20.2734375 17.431640625,30.439453125 15.673828125,28.681640625 25.83984375,18.515625z M16.845703125,17.51953125L18.603515625,19.248046875 8.408203125,29.443359375 6.6796875,27.685546875 16.845703125,17.51953125z M57.099609375,17.16796875L58.857421875,18.896484375 48.662109375,29.091796875 46.93359375,27.333984375 57.099609375,17.16796875z M8.5546875,15.849609375L10.283203125,17.578125 1.728515625,26.19140625 0,24.462890625 8.5546875,15.849609375z M32.6953125,11.865234375L34.423828125,13.59375 30.87890625,17.138671875 29.150390625,15.41015625 32.6953125,11.865234375z M23.701171875,10.693359375L25.4296875,12.421875 21.884765625,15.966796875 20.15625,14.23828125 23.701171875,10.693359375z M47.109375,7.1484375L48.837890625,8.90625 35.15625,22.55859375 33.3984375,20.830078125 47.109375,7.1484375z M7.177734375,6.85546875L8.90625,8.61328125 1.7578125,15.673828125 0,13.916015625 7.177734375,6.85546875z M58.271484375,5.859375L60,7.587890625 48.779296875,18.75 47.05078125,17.021484375 58.271484375,5.859375z M22.001953125,2.373046875L23.759765625,4.1015625 13.59375,14.296875 11.8359375,12.5390625 22.001953125,2.373046875z M43.7109375,0.556640625L45.46875,2.314453125 37.060546875,10.751953125 35.302734375,8.994140625 43.7109375,0.556640625z M53.96484375,0.29296875L55.72265625,2.021484375 52.177734375,5.56640625 50.419921875,3.837890625 53.96484375,0.29296875z M34.1015625,0.205078125L35.859375,1.93359375 28.7109375,9.140625 26.982421875,7.3828125 34.1015625,0.205078125z M14.033203125,0L15.791015625,1.728515625 12.24609375,5.2734375 10.48828125,3.515625 14.033203125,0z" />
    </g>
  </g>
</svg>