<?xml version="1.0" encoding="utf-8"?>
<!DOCTYPE svg PUBLIC "-//W3C//DTD SVG 1.1//EN" "http://www.w3.org/Graphics/SVG/1.1/DTD/svg11.dtd">
<svg width="58.53515625" height="32.490234375" xmlns="http://www.w3.org/2000/svg" xmlns:xlink="http://www.w3.org/1999/xlink" xmlns:xml="http://www.w3.org/XML/1998/namespace" version="1.1">
  <g>
    <g>
      <path style="fill:#FF0000;fill-opacity:1" d="M49.8046875,21.943359375L51.796875,22.3681640625 53.3642578125,23.525390625 54.43359375,25.224609375 54.84375,27.216796875 54.43359375,29.208984375 53.3642578125,30.9228515625 51.796875,32.080078125 49.8046875,32.490234375 47.841796875,32.080078125 46.2451171875,30.9228515625 45.17578125,29.208984375 44.794921875,27.216796875 45.17578125,25.224609375 46.2451171875,23.525390625 47.841796875,22.3681640625 49.8046875,21.943359375z M13.212890625,21.943359375L15.1611328125,22.3681640625 16.7724609375,23.525390625 17.8564453125,25.224609375 18.251953125,27.216796875 17.8857421875,29.208984375 16.845703125,30.9228515625 15.2490234375,32.080078125 13.212890625,32.490234375 11.220703125,32.080078125 9.638671875,30.9228515625 8.5986328125,29.208984375 8.232421875,27.216796875 8.61328125,25.224609375 9.66796875,23.525390625 11.2646484375,22.3681640625 13.212890625,21.943359375z M45.703125,8.02734375L45.703125,14.47265625 53.61328125,14.47265625 51.123046875,8.02734375 45.703125,8.02734375z M0,0L42.421875,0 42.421875,6.62109375 50.009765625,6.62109375 51.2329063415527,6.95800924301147 51.97265625,7.96875 54.66796875,14.47265625 55.751953125,14.47265625 57.8393516540527,15.029296875 58.53515625,16.69921875 58.53515625,29.23828125 55.83984375,29.23828125 55.83984375,26.923828125 55.400390625,24.4921875 54.111328125,22.4560546875 52.177734375,21.03515625 49.8046875,20.5078125 47.1624755859375,21.053466796875 45.18310546875,22.6904296875 43.8665771484375,25.418701171875 43.212890625,29.23828125 19.365234375,29.23828125 19.365234375,26.923828125 18.896484375,24.4921875 17.607421875,22.4560546875 15.6884765625,21.03515625 13.30078125,20.5078125 10.8984375,21.03515625 8.994140625,22.470703125 7.7197265625,24.521484375 7.236328125,26.923828125 7.236328125,29.23828125 0,29.23828125 0,0z" />
    </g>
  </g>
</svg>