<?xml version="1.0" encoding="utf-8"?>
<!DOCTYPE svg PUBLIC "-//W3C//DTD SVG 1.1//EN" "http://www.w3.org/Graphics/SVG/1.1/DTD/svg11.dtd">
<svg width="27.3046875" height="42.71484375" xmlns="http://www.w3.org/2000/svg" xmlns:xlink="http://www.w3.org/1999/xlink" xmlns:xml="http://www.w3.org/XML/1998/namespace" version="1.1">
  <g>
    <g>
      <path style="fill:#FF0000;fill-opacity:1" d="M11.71875,0L15.615234375,0 15.17578125,9.9609375 21.9140625,2.63671875 24.66796875,5.390625 17.34375,12.12890625 27.3046875,11.689453125 27.3046875,15.5859375 17.34375,15.17578125 24.66796875,21.884765625 21.9140625,24.66796875 15.17578125,17.34375 15.673828125,27.3046875 15.673828125,32.28515625 22.1484375,32.28515625 22.1484375,36.181640625 15.673828125,36.181640625 15.673828125,42.71484375 11.77734375,42.71484375 11.77734375,36.181640625 5.15625,36.181640625 5.15625,32.28515625 11.77734375,32.28515625 11.77734375,27.3046875 12.12890625,17.34375 5.419921875,24.66796875 2.63671898841858,21.884765625 9.9609375,15.17578125 0,15.5859375 0,11.689453125 9.9609375,12.12890625 2.63671898841858,5.390625 5.419921875,2.63671875 12.12890625,9.9609375 11.71875,0z" />
    </g>
  </g>
</svg>