<?xml version="1.0" encoding="utf-8"?>
<!DOCTYPE svg PUBLIC "-//W3C//DTD SVG 1.1//EN" "http://www.w3.org/Graphics/SVG/1.1/DTD/svg11.dtd">
<svg width="36.2109375" height="43.59375" xmlns="http://www.w3.org/2000/svg" xmlns:xlink="http://www.w3.org/1999/xlink" xmlns:xml="http://www.w3.org/XML/1998/namespace" version="1.1">
  <g>
    <g>
      <path style="fill:#FF0000;fill-opacity:1" d="M0,1.58203125L5.478515625,1.58203125 17.109375,34.892578125 17.958984375,38.61328125 18.076171875,38.61328125 19.04296875,34.833984375 30.908203125,1.58203125 36.2109375,1.58203125 20.654296875,43.59375 15.234375,43.59375 0,1.58203125z M18.779296875,0L19.775390625,0.0439453125 20.712890625,0.17578125 21.4892578125,0.3662109375 22.03125,0.556640625 22.03125,3.1640625 20.537109375,2.3876953125 18.779296875,2.109375 16.9921875,2.63671875 16.34765625,3.984375 16.4794921875,4.7900390625 16.9189453125,5.4638671875 17.724609375,6.09375 18.955078125,6.796875 20.555419921875,7.774658203125 21.7236328125,8.7744140625 22.437744140625,9.891357421875 22.67578125,11.220703125 22.3974609375,12.802734375 21.474609375,14.1650390625 19.8046875,15.1171875 17.34375,15.46875 16.3330078125,15.3955078125 15.322265625,15.1904296875 14.4140625,14.8974609375 13.76953125,14.560546875 13.76953125,11.865234375 14.619140625,12.48046875 15.6005859375,12.9345703125 16.6259765625,13.2275390625 17.607421875,13.330078125 18.779296875,13.1689453125 19.5263671875,12.744140625 19.9072265625,12.1435546875 20.009765625,11.484375 19.833984375,10.6787109375 19.306640625,9.9609375 18.3984375,9.2578125 17.05078125,8.466796875 15.4541015625,7.470703125 14.4287109375,6.4453125 13.8720703125,5.3466796875 13.7109375,4.16015625 14.0771484375,2.490234375 15.1025390625,1.171875 16.69921875,0.307616710662842 18.779296875,0z" />
    </g>
  </g>
</svg>