<?xml version="1.0" encoding="utf-8"?>
<!DOCTYPE svg PUBLIC "-//W3C//DTD SVG 1.1//EN" "http://www.w3.org/Graphics/SVG/1.1/DTD/svg11.dtd">
<svg width="62.63671875" height="42.01171875" xmlns="http://www.w3.org/2000/svg" xmlns:xlink="http://www.w3.org/1999/xlink" xmlns:xml="http://www.w3.org/XML/1998/namespace" version="1.1">
  <g>
    <g>
      <path style="fill:#FF0000;fill-opacity:1" d="M44.12109375,4.453125L36.73828125,19.6875 44.12109375,19.6875 47.5341796875,19.130859375 50.244140625,17.5341796875 52.03125,15 52.67578125,11.6015625 52.1337852478027,8.602294921875 50.5078125,6.3427734375 47.8417930603027,4.925537109375 44.1796875,4.453125 44.12109375,4.453125z M7.763671875,4.453125L23.14453125,36.591796875 38.49609375,4.453125 7.763671875,4.453125z M0,0L46.2890625,0 46.259765625,0.029296875 50.9033203125,0.9521484375 54.5654296875,3.1201171875 56.9677734375,6.533203125 57.6159629821777,8.70849609375 57.83203125,11.19140625 57.1728515625,15.2197265625 55.2978515625,18.486328125 52.3681640625,20.9326171875 48.515625,22.5 48.515625,22.6171875 50.33203125,23.6865234375 51.826171875,25.107421875 53.2177734375,26.982421875 54.755859375,29.384765625 62.63671875,42.01171875 56.77734375,42.01171875 49.74609375,30.234375 47.8857421875,27.4365234375 46.025390625,25.546875 43.9599609375,24.4775390625 41.484375,24.140625 34.5703125,24.140625 25.927734375,42.01171875 20.361328125,42.01171875 0,0z" />
    </g>
  </g>
</svg>