<?xml version="1.0" encoding="utf-8"?>
<!DOCTYPE svg PUBLIC "-//W3C//DTD SVG 1.1//EN" "http://www.w3.org/Graphics/SVG/1.1/DTD/svg11.dtd">
<svg width="39.7265625" height="43.41796875" xmlns="http://www.w3.org/2000/svg" xmlns:xlink="http://www.w3.org/1999/xlink" xmlns:xml="http://www.w3.org/XML/1998/namespace" version="1.1">
  <g>
    <g>
      <path style="fill:#FF0000;fill-opacity:1" d="M22.353515625,24.052734375L22.353515625,38.818359375 26.9311504364014,37.3681640625 30.5859375,34.482421875 33.27392578125,29.94140625 34.482421875,24.052734375 22.353515625,24.052734375z M17.431640625,4.658203125L12.9638671875,6.1962890625 9.287109375,9.228515625 7.4798583984375,11.8029794692993 6.18896484375,14.7509784698486 5.4144287109375,18.0725116729736 5.15625047683716,21.767578125 5.4071044921875,25.4608154296875 6.15966796875,28.77685546875 7.4139404296875,31.7156982421875 9.169921875,34.27734375 10.927734375,36.01318359375 12.890625,37.353515625 15.05859375,38.29833984375 17.431640625,38.84765625 17.431640625,4.658203125z M22.353515625,4.599609375L22.353515625,19.62890625 34.482421875,19.62890625 33.31787109375,13.6157245635986 30.703125,8.994140625 28.9837627410889,7.32421875 27.0190410614014,6.03515625 24.8089580535889,5.126953125 22.353515625,4.599609375z M20.390625,0L24.5297241210938,0.3662109375 28.245849609375,1.46484375 31.5390014648438,3.2958984375 34.4091796875,5.859375 36.7355346679688,9.0142822265625 38.397216796875,12.6196298599243 39.3942260742188,16.6754150390625 39.7265625,21.181640625 39.385986328125,26.0540771484375 38.3642578125,30.38818359375 36.661376953125,34.1839599609375 34.27734375,37.44140625 31.322021484375,40.05615234375 27.9052734375,41.923828125 24.027099609375,43.04443359375 19.6875,43.41796875 15.4421997070313,43.0499267578125 11.641845703125,41.94580078125 8.28643798828125,40.1055908203125 5.3759765625,37.529296875 3.02398681640625,34.3634033203125 1.343994140625,30.75439453125 0.33599853515625,26.7022705078125 0,22.20703125 0.3424072265625,17.39501953125 1.36962890625,13.0957040786743 3.0816650390625,9.30908203125 5.478515625,6.03515625 8.4649658203125,3.394775390625 11.94580078125,1.5087890625 15.9210205078125,0.377197265625 20.390625,0z" />
    </g>
  </g>
</svg>