<?xml version="1.0" encoding="utf-8"?>
<!DOCTYPE svg PUBLIC "-//W3C//DTD SVG 1.1//EN" "http://www.w3.org/Graphics/SVG/1.1/DTD/svg11.dtd">
<svg width="27.5390625" height="42.71484375" xmlns="http://www.w3.org/2000/svg" xmlns:xlink="http://www.w3.org/1999/xlink" xmlns:xml="http://www.w3.org/XML/1998/namespace" version="1.1">
  <g>
    <g>
      <path style="fill:#FF0000;fill-opacity:1" d="M4.21875,30.791015625L4.833984375,33.076171875 6.8994140625,36.181640625 9.9609375,38.232421875 13.740234375,38.96484375 17.5341796875,38.232421875 20.6103515625,36.181640625 22.67578125,33.076171875 23.3203125,30.791015625 4.21875,30.791015625z M13.740234375,19.39453125L9.9609375,20.126953125 6.8994140625,22.177734375 4.833984375,25.283203125 4.21875,27.451171875 23.291015625,27.451171875 22.67578125,25.283203125 20.6103515625,22.177734375 17.5341796875,20.126953125 13.740234375,19.39453125z M11.865234375,0L15.76171875,0 15.76171875,6.533203125 22.294921875,6.533203125 22.294921875,10.458984375 15.76171875,10.458984375 15.76171875,15.791015625 18.14208984375,16.3732929229736 20.361328125,17.3583984375 24.0966796875,20.33203125 26.6162109375,24.3896484375 27.3083477020264,26.722412109375 27.5390625,29.1796875 27.2607402801514,31.88232421875 26.42578125,34.423828125 25.1184062957764,36.73095703125 23.4228515625,38.73046875 21.3793926239014,40.382080078125 19.0283203125,41.6455078125 16.453857421875,42.447509765625 13.740234375,42.71484375 11.0266103744507,42.447509765625 8.4521484375,41.6455078125 6.104736328125,40.382080078125 4.072265625,38.73046875 2.391357421875,36.73095703125 1.0986328125,34.423828125 0.274658203125,31.88232421875 0,29.1796875 0.230712890625,26.69677734375 0.9228515625,24.345703125 3.45703125,20.2734375 7.236328125,17.314453125 9.47753810882568,16.3476581573486 11.865234375,15.791015625 11.865234375,10.458984375 5.302734375,10.458984375 5.302734375,6.533203125 11.865234375,6.533203125 11.865234375,0z" />
    </g>
  </g>
</svg>