<?xml version="1.0" encoding="utf-8"?>
<!DOCTYPE svg PUBLIC "-//W3C//DTD SVG 1.1//EN" "http://www.w3.org/Graphics/SVG/1.1/DTD/svg11.dtd">
<svg width="29.765625" height="42.275390625" xmlns="http://www.w3.org/2000/svg" xmlns:xlink="http://www.w3.org/1999/xlink" xmlns:xml="http://www.w3.org/XML/1998/namespace" version="1.1">
  <g>
    <g>
      <path style="fill:#FF0000;fill-opacity:1" d="M21.650390625,29.501953125L19.8779296875,29.8681640625 18.4130859375,30.8642578125 17.4169921875,32.3291015625 17.05078125,34.1015625 17.40234375,35.9326171875 18.369140625,37.44140625 19.8046875,38.466796875 21.591796875,38.84765625 23.37890625,38.466796875 24.8583984375,37.4267578125 25.869140625,35.91796875 26.25,34.1015625 25.8837890625,32.2998046875 24.873046875,30.8349609375 23.3935546875,29.853515625 21.650390625,29.501953125z M8.115234375,29.501953125L6.3427734375,29.8681640625 4.8779296875,30.8642578125 3.88183617591858,32.3291015625 3.51562523841858,34.1015625 3.86718773841858,35.9326171875 4.833984375,37.44140625 6.26953125,38.466796875 8.056640625,38.84765625 9.84375,38.466796875 11.3232421875,37.4267578125 12.333984375,35.91796875 12.71484375,34.1015625 12.3486328125,32.2998046875 11.337890625,30.8349609375 9.8583984375,29.853515625 8.115234375,29.501953125z M12.71484375,0L17.05078125,0 17.05078125,9.521484375 25.72265625,9.521484375 25.72265625,12.392578125 17.05078125,12.392578125 17.05078125,16.728515625 25.72265625,16.728515625 25.72265625,19.62890625 17.05078125,19.62890625 17.05078125,27.48046875 18.45703125,26.71875 21.591796875,26.07421875 24.755859375,26.7041015625 27.36328125,28.4326171875 29.12109375,30.99609375 29.765625,34.1015625 29.1357421875,37.265625 27.4072265625,39.873046875 24.8291015625,41.630859375 21.650390625,42.275390625 18.4716796875,41.630859375 15.87890625,39.873046875 14.8828125,38.642578125 13.857421875,39.873046875 11.2939453125,41.630859375 8.115234375,42.275390625 4.9365234375,41.630859375 2.35839867591858,39.873046875 0.629883050918579,37.265625 0,34.1015625 0.629883050918579,30.966796875 2.35839867591858,28.41796875 4.921875,26.7041015625 8.056640625,26.07421875 11.220703125,26.71875 12.71484375,27.509765625 12.71484375,19.62890625 4.04296875,19.62890625 4.04296875,16.728515625 12.71484375,16.728515625 12.71484375,12.392578125 4.04296875,12.392578125 4.04296875,9.521484375 12.71484375,9.521484375 12.71484375,0z" />
    </g>
  </g>
</svg>