<?xml version="1.0" encoding="utf-8"?>
<!DOCTYPE svg PUBLIC "-//W3C//DTD SVG 1.1//EN" "http://www.w3.org/Graphics/SVG/1.1/DTD/svg11.dtd">
<svg width="25.8984375000078" height="42.01171875" xmlns="http://www.w3.org/2000/svg" xmlns:xlink="http://www.w3.org/1999/xlink" xmlns:xml="http://www.w3.org/XML/1998/namespace" version="1.1">
  <g>
    <g>
      <path style="fill:#FF0000;fill-opacity:1" d="M22.587890625,27.333984375L23.8623046875,27.5830078125 24.931640625,28.330078125 25.65673828125,29.39208984375 25.8984375,30.64453125 25.65673828125,31.89697265625 24.931640625,32.958984375 23.8623046875,33.68408203125 22.587890625,33.92578125 21.328125,33.662109375 20.302734375,32.958984375 19.599609375,31.9189453125 19.3359375,30.64453125 19.5703125,29.40673828125 20.2734375,28.330078125 21.33544921875,27.5830078125 22.587890625,27.333984375z M3.251953125,27.333984375L4.5263671875,27.5830078125 5.595703125,28.330078125 6.32080078125,29.39208984375 6.5625,30.64453125 6.32080078125,31.89697265625 5.595703125,32.958984375 4.5263671875,33.68408203125 3.251953125,33.92578125 1.9921875,33.662109375 0.966796875,32.958984375 0.263671875,31.9189453125 0,30.64453125 0.234374284744263,29.40673828125 0.9375,28.330078125 1.99951100349426,27.5830078125 3.251953125,27.333984375z M22.587890625,8.173828125L23.84765625,8.408203125 24.931640625,9.111328125 25.65673828125,10.1513681411743 25.8984375,11.396484375 25.65673828125,12.6489276885986 24.931640625,13.7109375 23.8623046875,14.4360370635986 22.587890625,14.677734375 21.328125,14.4140625 20.302734375,13.7109375 19.599609375,12.6708984375 19.3359375,11.396484375 19.599609375,10.13671875 20.302734375,9.111328125 21.328125,8.4228515625 22.587890625,8.173828125z M3.251953125,8.173828125L4.51171875,8.408203125 5.595703125,9.111328125 6.32080078125,10.1513681411743 6.5625,11.396484375 6.32080078125,12.6489276885986 5.595703125,13.7109375 4.5263671875,14.4360370635986 3.251953125,14.677734375 1.9921875,14.4140625 0.966796875,13.7109375 0.263671875,12.6708984375 0,11.396484375 0.263671875,10.13671875 0.966796875,9.111328125 1.9921875,8.4228515625 3.251953125,8.173828125z M6.5625,0L19.248046875,0 19.248046875,3.896484375 14.853515625,3.896484375 14.853515625,38.115234375 19.248046875,38.115234375 19.248046875,42.01171875 6.5625,42.01171875 6.5625,38.115234375 10.95703125,38.115234375 10.95703125,3.896484375 6.5625,3.896484375 6.5625,0z" />
    </g>
  </g>
</svg>