<?xml version="1.0" encoding="utf-8"?>
<!DOCTYPE svg PUBLIC "-//W3C//DTD SVG 1.1//EN" "http://www.w3.org/Graphics/SVG/1.1/DTD/svg11.dtd">
<svg width="39.7265625" height="43.41796875" xmlns="http://www.w3.org/2000/svg" xmlns:xlink="http://www.w3.org/1999/xlink" xmlns:xml="http://www.w3.org/XML/1998/namespace" version="1.1">
  <g>
    <g>
      <path style="fill:#FF0000;fill-opacity:1" d="M5.24414014816284,24.052734375L6.474609375,29.71435546875 9.169921875,34.27734375 10.927734375,36.01318359375 12.890625,37.353515625 15.05859375,38.29833984375 17.431640625,38.84765625 17.431640625,24.052734375 5.24414014816284,24.052734375z M17.431640625,4.658203125L12.9638671875,6.1962890625 9.287109375,9.228515625 7.7032470703125,11.4166269302368 6.49658203125,13.8793964385986 5.6671142578125,16.6168231964111 5.21484375,19.62890625 17.431640625,19.62890625 17.431640625,4.658203125z M22.353515625,4.599609375L22.353515625,38.818359375 26.9311504364014,37.3681640625 30.5859375,34.482421875 32.3291015625,32.0013427734375 33.57421875,29.06982421875 34.3212890625,25.6878662109375 34.5703125,21.85546875 34.32861328125,17.9315204620361 33.603515625,14.4799823760986 32.39501953125,11.5008554458618 30.703125,8.994140625 28.9837627410889,7.32421875 27.0190410614014,6.03515625 24.8089580535889,5.126953125 22.353515625,4.599609375z M20.390625,0L24.5297241210938,0.3662109375 28.245849609375,1.46484375 31.5390014648438,3.2958984375 34.4091796875,5.859375 36.7355346679688,9.0142822265625 38.397216796875,12.6196298599243 39.3942260742188,16.6754150390625 39.7265625,21.181640625 39.385986328125,26.0540771484375 38.3642578125,30.38818359375 36.661376953125,34.1839599609375 34.27734375,37.44140625 31.322021484375,40.05615234375 27.9052734375,41.923828125 24.027099609375,43.04443359375 19.6875,43.41796875 15.4421997070313,43.0499267578125 11.641845703125,41.94580078125 8.28643798828125,40.1055908203125 5.3759765625,37.529296875 3.02398681640625,34.3634033203125 1.343994140625,30.75439453125 0.33599853515625,26.7022705078125 0,22.20703125 0.3424072265625,17.39501953125 1.36962890625,13.0957040786743 3.0816650390625,9.30908203125 5.478515625,6.03515625 8.4649658203125,3.394775390625 11.94580078125,1.5087890625 15.9210205078125,0.377197265625 20.390625,0z" />
    </g>
  </g>
</svg>