<?xml version="1.0" encoding="utf-8"?>
<!DOCTYPE svg PUBLIC "-//W3C//DTD SVG 1.1//EN" "http://www.w3.org/Graphics/SVG/1.1/DTD/svg11.dtd">
<svg width="39.43359375" height="13.857421875" xmlns="http://www.w3.org/2000/svg" xmlns:xlink="http://www.w3.org/1999/xlink" xmlns:xml="http://www.w3.org/XML/1998/namespace" version="1.1">
  <g>
    <g>
      <path style="fill:#FF0000;fill-opacity:1" d="M13.88671875,0L10.810546875,3.046875 5.830078125,3.046875 6.97265625,4.130859375 9.1552734375,6.3134765625 10.751953125,7.763671875 12.0263671875,8.5693359375 13.212890625,8.818359375 14.4287109375,8.5986328125 15.6884765625,7.91015625 17.16796875,6.6943359375 19.04296875,4.921875 21.5478515625,2.7392578125 23.5693359375,1.3916015625 25.2978515625,0.7177734375 26.953125,0.52734375 28.6083984375,0.7470703125 30.3076171875,1.552734375 32.40234375,3.1787109375 35.244140625,5.830078125 39.43359375,9.9609375 36.6796875,12.71484375 33.076171875,9.111328125 30.908203125,6.9580078125 29.35546875,5.4931640625 28.1103515625,4.6728515625 26.89453125,4.423828125 25.7373046875,4.62890625 24.580078125,5.244140625 23.2470703125,6.298828125 21.62109375,7.8515625 18.9111328125,10.283203125 16.728515625,11.7626953125 14.853515625,12.509765625 13.095703125,12.71484375 11.4404296875,12.4951171875 9.7412109375,11.689453125 7.646484375,10.078125 4.8046875,7.44140625 3.017578125,5.712890625 3.076171875,10.810546875 0,13.857421875 0.263671875,0.3515625 0.380859375,0.234375 13.88671875,0z" />
    </g>
  </g>
</svg>