<?xml version="1.0" encoding="utf-8"?>
<!DOCTYPE svg PUBLIC "-//W3C//DTD SVG 1.1//EN" "http://www.w3.org/Graphics/SVG/1.1/DTD/svg11.dtd">
<svg width="39.755859375" height="28.564453125" xmlns="http://www.w3.org/2000/svg" xmlns:xlink="http://www.w3.org/1999/xlink" xmlns:xml="http://www.w3.org/XML/1998/namespace" version="1.1">
  <g>
    <g>
      <path style="fill:#FF0000;fill-opacity:1" d="M23.818359375,0L27.89794921875,0.325929164886475 31.2890625,1.3037109375 34.04296875,2.84179830551147 36.2109375,4.8486328125 37.825927734375,7.27294921875 38.9208984375,10.0634765625 39.547119140625,13.128662109375 39.755859375,16.376953125 39.755859375,19.62890625 35.859375,19.62890625 35.859375,16.494140625 35.302734375,11.42578125 34.541015625,9.2724609375 33.369140625,7.44140625 31.754150390625,5.95458984375 29.6630859375,4.833984375 27.037353515625,4.13086080551147 23.818359375,3.896484375 20.6469707489014,4.13086080551147 18.046875,4.833984375 15.95947265625,5.95458984375 14.326171875,7.44140625 13.125,9.2724609375 12.333984375,11.42578125 11.748046875,16.494140625 11.748046875,22.79296875 15.234375,19.21875 19.541015625,19.21875 9.814453125,28.564453125 9.697265625,28.564453125 0,19.21875 4.306640625,19.21875 7.8515625,22.8515625 7.8515625,16.376953125 8.06030178070068,13.128662109375 8.6865234375,10.0634765625 9.78515529632568,7.27294921875 11.4111328125,4.8486328125 13.590087890625,2.84179830551147 16.34765625,1.3037109375 19.73876953125,0.325929164886475 23.818359375,0z" />
    </g>
  </g>
</svg>