<?xml version="1.0" encoding="utf-8"?>
<!DOCTYPE svg PUBLIC "-//W3C//DTD SVG 1.1//EN" "http://www.w3.org/Graphics/SVG/1.1/DTD/svg11.dtd">
<svg width="31.0546875" height="42.48046875" xmlns="http://www.w3.org/2000/svg" xmlns:xlink="http://www.w3.org/1999/xlink" xmlns:xml="http://www.w3.org/XML/1998/namespace" version="1.1">
  <g>
    <g>
      <path style="fill:#FF0000;fill-opacity:1" d="M13.06640625,21.474609375L17.98828125,21.474609375 17.98828125,42.48046875 13.06640625,42.48046875 13.06640625,21.474609375z M28.76953125,0L31.0546875,4.072265625 27.65625,6.09375 25.5029296875,8.173828125 24.375,10.3564453125 24.052734375,12.71484375 24.375,15.322265625 25.1806640625,17.6953125 26.220703125,19.775390625 27.275390625,21.50390625 23.49609375,24.228515625 22.2509765625,22.3388671875 20.888671875,19.599609375 19.7900390625,16.3330078125 19.3359375,12.83203125 19.925537109375,8.829345703125 21.6943359375,5.4345703125 24.6423320770264,2.530517578125 28.76953125,0z M2.28515625,0L6.412353515625,2.530517578125 9.3603515625,5.4345703125 11.1291494369507,8.829345703125 11.71875,12.83203125 11.2646484375,16.3330078125 10.166015625,19.599609375 8.8037109375,22.3388671875 7.55859375,24.228515625 3.779296875,21.50390625 4.833984375,19.775390625 5.8740234375,17.6953125 6.6796875,15.322265625 7.001953125,12.71484375 6.6796875,10.3564453125 5.55175733566284,8.173828125 3.3984375,6.09375 0,4.072265625 2.28515625,0z" />
    </g>
  </g>
</svg>