<?xml version="1.0" encoding="utf-8"?>
<!DOCTYPE svg PUBLIC "-//W3C//DTD SVG 1.1//EN" "http://www.w3.org/Graphics/SVG/1.1/DTD/svg11.dtd">
<svg width="36.0058593750008" height="42.01171875" xmlns="http://www.w3.org/2000/svg" xmlns:xlink="http://www.w3.org/1999/xlink" xmlns:xml="http://www.w3.org/XML/1998/namespace" version="1.1">
  <g>
    <g>
      <path style="fill:#FF0000;fill-opacity:1" d="M22.001953125,17.05078125L20.1416015625,19.1748046875 17.607421875,21.357421875 19.951171875,23.3349609375 21.73828125,25.3125 24.2138671875,23.115234375 27.1875,21.03515625 24.3896484375,19.1015625 22.001953125,17.05078125z M15.205078125,0L20.361328125,0 20.5810546875,3.7060546875 21.416015625,7.236328125 23.115234375,10.6640625 25.9423828125,14.033203125 30.1611328125,17.3876953125 32.860107421875,19.075927734375 36.005859375,20.771484375 36.005859375,21.240234375 32.860107421875,22.9541015625 30.1611328125,24.638671875 25.9423828125,27.978515625 23.115234375,31.34765625 21.416015625,34.775390625 20.5810546875,38.3056640625 20.361328125,42.01171875 15.205078125,42.01171875 15.43212890625,38.349609375 16.11328125,34.86328125 17.32177734375,31.54541015625 19.130859375,28.388671875 17.6953125,26.77734375 15.908203125,25.283203125 13.6962890625,24.169921875 11.015625,23.73046875 7.9541015625,24.2578125 6.03515625,25.693359375 5.0390625,27.802734375 4.74609375,30.3515625 4.9658203125,32.7685546875 5.625,35.2734375 1.14257764816284,36.533203125 0.322265625,33.28125 0,29.765625 0.6591796875,25.1513671875 1.585693359375,23.096923828125 3.04687547683716,21.357421875 1.61132764816284,19.62890625 0.673828601837158,17.5927734375 0.1611328125,15.3369140625 0,12.94921875 0.322265625,9.43359375 1.14257764816284,6.181640625 5.625,7.44140625 4.9658203125,9.93164157867432 4.74609375,12.36328125 5.068359375,15.0732421875 6.09375,17.16796875 7.8955078125,18.515625 10.546875,18.984375 13.4619140625,18.5302734375 15.8935546875,17.373046875 17.8564453125,15.791015625 19.365234375,14.033203125 17.4169921875,10.8068857192993 16.142578125,7.3974609375 15.439453125,3.797607421875 15.205078125,0z" />
    </g>
  </g>
</svg>