<?xml version="1.0" encoding="utf-8"?>
<!DOCTYPE svg PUBLIC "-//W3C//DTD SVG 1.1//EN" "http://www.w3.org/Graphics/SVG/1.1/DTD/svg11.dtd">
<svg width="19.3359375" height="43.330078125" xmlns="http://www.w3.org/2000/svg" xmlns:xlink="http://www.w3.org/1999/xlink" xmlns:xml="http://www.w3.org/XML/1998/namespace" version="1.1">
  <g>
    <g>
      <path style="fill:#FF0000;fill-opacity:1" d="M9.66796875,10.8984375L7.353515625,13.9892578125 5.9912109375,16.8603515625 5.33203125,19.4384765625 5.15625,21.708984375 5.33203125,23.9794921875 5.9912109375,26.5576171875 7.353515625,29.3994140625 9.66796875,32.4609375 11.982421875,29.3994140625 13.3447265625,26.5576171875 14.00390625,23.9794921875 14.1796875,21.708984375 14.00390625,19.4384765625 13.3447265625,16.8603515625 11.982421875,13.9892578125 9.66796875,10.8984375z M1.81640625,0L6.064453125,2.2705078125 9.66796875,4.6875 13.2568359375,2.2705078125 17.51953125,0 19.3359375,3.486328125 15.9228515625,5.6103515625 13.06640625,7.705078125 15.9521484375,11.2353515625 17.8857421875,14.8095703125 18.984375,18.3251953125 19.3359375,21.708984375 18.984375,25.078125 17.8857421875,28.5791015625 15.9521484375,32.138671875 13.06640625,35.654296875 15.908203125,37.734375 19.3359375,39.84375 17.51953125,43.330078125 13.2568359375,41.07421875 9.66796875,38.642578125 6.064453125,41.07421875 1.81640625,43.330078125 0,39.84375 3.4130859375,37.734375 6.240234375,35.654296875 3.3544921875,32.138671875 1.4208984375,28.5791015625 0.336913585662842,25.078125 0,21.708984375 0.336913585662842,18.3251953125 1.4208984375,14.8095703125 3.3544921875,11.2353515625 6.240234375,7.705078125 3.4130859375,5.625 0,3.486328125 1.81640625,0z" />
    </g>
  </g>
</svg>