<?xml version="1.0" encoding="utf-8"?>
<!DOCTYPE svg PUBLIC "-//W3C//DTD SVG 1.1//EN" "http://www.w3.org/Graphics/SVG/1.1/DTD/svg11.dtd">
<svg width="67.3828125000007" height="67.3828125" xmlns="http://www.w3.org/2000/svg" xmlns:xlink="http://www.w3.org/1999/xlink" xmlns:xml="http://www.w3.org/XML/1998/namespace" version="1.1">
  <g>
    <g>
      <path style="fill:#FF0000;fill-opacity:1" d="M42.099609375,31.58203125L54.7265625,31.58203125 56.220703125,32.197265625 56.8359375,33.69140625 56.220703125,35.185546875 54.7265625,35.80078125 42.099609375,35.80078125 40.6201171875,35.1708984375 39.990234375,33.69140625 40.6201171875,32.2119140625 42.099609375,31.58203125z M12.626953125,31.58203125L25.25390625,31.58203125 26.748046875,32.197265625 27.36328125,33.69140625 26.748046875,35.185546875 25.25390625,35.80078125 12.626953125,35.80078125 11.1328125,35.185546875 10.517578125,33.69140625 11.1328125,32.197265625 12.626953125,31.58203125z M33.69140625,10.517578125L35.1708984375,11.1474609375 35.80078125,12.626953125 35.80078125,25.283203125 35.1708984375,26.748046875 33.69140625,27.36328125 32.2119140625,26.748046875 31.58203125,25.283203125 31.58203125,12.626953125 32.2119140625,11.1474609375 33.69140625,10.517578125z M26.162109375,4.21874952316284L23.3056640625,4.8046875 20.9619140625,6.4013671875 19.365234375,8.7451171875 18.779296875,11.6015625 19.3505859375,14.4140625 20.947265625,16.787109375 27.421875,23.232421875 28.037109375,24.169921875 28.2421875,25.283203125 28.0078125,26.42578125 27.36328125,27.36328125 26.4111328125,28.0078125 25.25390625,28.2421875 24.1113262176514,28.0224628448486 23.14453125,27.36328125 16.845703125,21.064453125 14.384765625,19.423828125 11.484375,18.837890625 8.6279296875,19.4091796875 6.3134765625,20.9765625 4.7607421875,23.3056640625 4.189453125,26.162109375 4.74609375,28.9306640625 5.9619140625,30.87890625 7.177734375,32.3291015625 7.73437404632568,33.6328125 7.177734375,34.9365234375 5.9619140625,36.3720703125 4.74609375,38.291015625 4.189453125,41.07421875 4.7900390625,43.9599609375 6.4013671875,46.3037109375 8.7744140625,47.8857421875 11.66015625,48.45703125 14.47265625,47.900390625 16.845703125,46.318359375 23.642578125,39.521484375 25.3271484375,38.3349609375 27.36328125,37.91015625 29.00390625,38.232421875 30.3369140625,39.1259765625 31.2451171875,40.458984375 31.58203125,42.099609375 31.58203125,48.427734375 31.962890625,52.0751953125 33.10546875,55.60546875 34.9951171875,58.76953125 37.6171875,61.318359375 38.5107421875,61.875 39.7119140625,62.4755859375 40.927734375,62.958984375 41.89453125,63.1640625 43.53515625,62.6220703125 44.208984375,61.0546875 43.76953125,59.7802734375 42.626953125,59.033203125 41.2060546875,58.4765625 39.873046875,57.744140625 38.0712890625,55.8984375 36.796875,53.5693359375 36.0498046875,50.9912109375 35.80078125,48.427734375 35.80078125,42.12890625 36.123046875,40.48828125 37.0166015625,39.1552734375 38.349609375,38.2470703125 39.990234375,37.91015625 42.041015625,38.3349609375 43.740234375,39.521484375 50.537109375,46.318359375 52.8955078125,47.900390625 55.72265625,48.45703125 58.59375,47.87109375 60.9521484375,46.2890625 62.5634765625,43.9453125 63.1640625,41.07421875 62.607421875,38.3203125 61.3916015625,36.4013671875 60.1904296875,34.951171875 59.6484375,33.6328125 60.1904296875,32.314453125 61.3916015625,30.849609375 62.607421875,28.916015625 63.1640625,26.162109375 62.578125,23.3056640625 60.99609375,20.9765625 58.6669921875,19.39453125 55.810546875,18.80859375 52.9541015625,19.3798828125 50.56640625,20.9765625 44.150390625,27.421875 43.212890625,28.037109375 42.099609375,28.2421875 40.95703125,28.0078125 40.01953125,27.36328125 39.375,26.42578125 39.140625,25.283203125 39.35302734375,24.1259784698486 39.990234375,23.173828125 46.318359375,16.845703125 47.900390625,14.47265625 48.45703125,11.66015625 47.87109375,8.7744140625 46.2890625,6.4013671875 43.9306640625,4.8046875 41.044921875,4.21874952316284 39.1552734375,4.48242139816284 37.646484375,5.126953125 36.4306640625,5.97656202316284 35.419921875,6.826171875 34.51171875,7.47070360183716 33.603515625,7.73437452316284 32.7099609375,7.47070360183716 31.8310546875,6.826171875 30.8349609375,5.97656202316284 29.6337890625,5.126953125 28.1103515625,4.48242139816284 26.162109375,4.21874952316284z M26.162109375,0L30.1171875,0.703124523162842 33.603515625,2.72460889816284 37.08984375,0.703124523162842 41.044921875,0 43.3776817321777,0.227053672075272 45.5712890625,0.908203363418579 49.27734375,3.3984375 51.767578125,7.10449171066284 52.4487266540527,9.298095703125 52.67578125,11.6308584213257 52.119140625,15.17578125 55.78125,14.58984375 58.1103515625,14.81689453125 60.29296875,15.498046875 63.984375,17.9736328125 66.474609375,21.650390625 67.15576171875,23.8330097198486 67.3828125,26.162109375 66.6796875,30.1318359375 64.658203125,33.6328125 66.6796875,37.119140625 67.3828125,41.07421875 67.152099609375,43.4033203125 66.4599609375,45.5859375 63.955078125,49.27734375 60.2490234375,51.767578125 58.055419921875,52.44873046875 55.72265625,52.67578125 53.4594688415527,52.459716796875 51.298828125,51.8115234375 49.3066368103027,50.753173828125 47.548828125,49.306640625 40.751953125,42.509765625 40.4443359375,42.24609375 40.048828125,42.12890625 40.048828125,48.427734375 39.990234375,48.544921875 40.1806640625,50.537109375 40.810546875,52.3388671875 41.9384765625,53.8330078125 43.65234375,54.931640625 45.5859375,55.9423828125 47.0947265625,57.1875 48.076171875,58.828125 48.427734375,61.025390625 47.9296875,63.5009765625 46.58203125,65.5224609375 44.5751953125,66.884765625 42.099609375,67.3828125 40.576171875,67.20703125 37.591552734375,66.148681640625 34.9658203125,64.5556640625 30.8203125,60.146484375 29.326171875,57.476806640625 28.2421875,54.5654296875 27.5830078125,51.514892578125 27.36328125,48.427734375 27.36328125,42.099609375 26.9384765625,42.2314453125 26.6015625,42.509765625 19.8046875,49.306640625 18.0322246551514,50.753173828125 16.0546875,51.8115234375 13.916015625,52.459716796875 11.66015625,52.67578125 9.327392578125,52.44873046875 7.1337890625,51.767578125 3.427734375,49.27734375 0.9228515625,45.5859375 0.230712532997131,43.39599609375 0,41.044921875 0.688477516174316,37.119140625 2.6953125,33.6328125 0.688477516174316,30.1318359375 0,26.19140625 0.223388314247131,23.8659687042236 0.8935546875,21.6943359375 3.3544921875,18.0322265625 7.0166015625,15.556640625 9.188232421875,14.87548828125 11.513671875,14.6484365463257 13.3740234375,14.7802734375 15.17578125,15.205078125 14.58984375,11.6015625 14.81689453125,9.2724609375 15.498046875,7.08984422683716 17.9736328125,3.3984375 21.650390625,0.908203363418579 23.8330078125,0.227053672075272 26.162109375,0z" />
    </g>
  </g>
</svg>