<?xml version="1.0" encoding="utf-8"?>
<!DOCTYPE svg PUBLIC "-//W3C//DTD SVG 1.1//EN" "http://www.w3.org/Graphics/SVG/1.1/DTD/svg11.dtd">
<svg width="56.8652343750015" height="67.3828125" xmlns="http://www.w3.org/2000/svg" xmlns:xlink="http://www.w3.org/1999/xlink" xmlns:xml="http://www.w3.org/XML/1998/namespace" version="1.1">
  <g>
    <g>
      <path style="fill:#FF0000;fill-opacity:1" d="M27.890625,35.80078125L27.36328125,35.830078125 27.36328125,58.974609375 26.7333984375,60.439453125 25.25390625,61.0546875 23.7890625,60.439453125 23.173828125,58.974609375 23.173828125,58.30078125 22.9833984375,57.2900390625 22.119140625,56.865234375 21.5478515625,56.9970703125 21.2255859375,57.3486328125 21.09375,57.8466796875 21.064453125,58.388671875 21.064453125,58.974609375 21.4013671875,60.5859375 22.3095703125,61.9189453125 23.642578125,62.8271484375 25.25390625,63.1640625 26.865234375,62.8271484375 28.212890625,61.9189453125 29.1357421875,60.5859375 29.47265625,58.974609375 29.47265625,35.830078125 28.9453125,35.80078125 28.41796875,35.80078125 27.890625,35.80078125z M34.27734375,17.28515625L36.58447265625,21.35009765625 38.349609375,25.517578125 39.5068359375,29.8828144073486 39.990234375,34.541015625 42.0556640625,33.896484375 44.208984375,33.69140625 47.5634765625,34.2041015625 50.537109375,35.80078125 49.7900390625,30.2197265625 47.578125,25.01953125 45.615234375,24.1552734375 44.00390625,22.8076171875 42.83203125,21.064453125 42.1875,19.013671875 41.513671875,18.515625 38.96484375,18.955078125 36.4599609375,18.5302734375 34.27734375,17.28515625z M22.587890625,17.28515625L20.390625,18.515625 17.900390625,18.955078125 15.3515625,18.515625 14.6484375,19.013671875 14.0185546875,21.064453125 12.861328125,22.8076171875 11.25,24.1552734375 9.287109375,25.01953125 7.0751953125,30.2197265625 6.328125,35.80078125 9.287109375,34.2041015625 12.626953125,33.69140625 14.794921875,33.896484375 16.875,34.541015625 17.373046875,30 18.5009765625,25.5029296875 20.244140625,21.2109375 22.587890625,17.28515625z M28.41796875,12.626953125L27.5244140625,13.095703125 27.36328125,14.12109375 27.36328125,14.736328125 23.7451171875,19.306640625 21.1083984375,24.4482421875 19.4970703125,30 18.955078125,35.80078125 23.5400390625,34.16015625 28.41796875,33.69140625 33.2958984375,34.1748046875 37.91015625,35.80078125 37.3681640625,30 35.7568359375,24.4482421875 33.10546875,19.306640625 29.47265625,14.736328125 29.47265625,14.0625 29.296875,13.06640625 28.41796875,12.626953125z M49.482421875,10.517578125L46.787109375,15.908203125 46.318359375,17.900390625 46.5673828125,19.1162109375 47.255859375,20.126953125 48.2666015625,20.8154296875 49.482421875,21.064453125 50.712890625,20.8154296875 51.7236328125,20.1416015625 52.3974609375,19.1455078125 52.646484375,17.900390625 52.177734375,15.908203125 49.482421875,10.517578125z M7.353515625,10.517578125L4.6875,15.908203125 4.21875,17.900390625 4.4677734375,19.1162109375 5.1416015625,20.126953125 6.1376953125,20.8154296875 7.353515625,21.064453125 8.583984375,20.8154296875 9.5947265625,20.1416015625 10.2685546875,19.1455078125 10.517578125,17.900390625 10.4150390625,16.875 10.048828125,15.908203125 7.353515625,10.517578125z M38.96484375,4.21874952316284L36.26953125,9.580078125 35.9326171875,10.4296875 35.80078125,11.337890625 36.009521484375,12.6416015625 36.6357421875,13.740234375 37.635498046875,14.4873046875 38.96484375,14.736328125 40.2099609375,14.4873046875 41.2060546875,13.8134765625 41.865234375,12.8173828125 42.099609375,11.572265625 41.9970703125,10.546875 41.66015625,9.580078125 38.96484375,4.21874952316284z M17.900390625,4.21874952316284L15.205078125,9.580078125 14.736328125,11.572265625 14.9853515625,12.8173828125 15.6591796875,13.8134765625 16.6552734375,14.4873046875 17.900390625,14.736328125 19.130859375,14.4873046875 20.1416015625,13.8134765625 20.8154296875,12.8173828125 21.064453125,11.572265625 20.595703125,9.580078125 17.900390625,4.21874952316284z M17.900390625,0L20.126953125,0.644531488418579 21.6796875,2.34374952316284 24.345703125,7.70507860183716 25.048828125,9.66796875 26.6162109375,8.7451171875 28.41796875,8.4375 30.234375,8.7451171875 31.81640625,9.66796875 32.0947265625,8.671875 32.490234375,7.70507860183716 35.185546875,2.34374952316284 36.73828125,0.615234375 38.96484375,0 41.1767578125,0.6298828125 42.71484375,2.34374952316284 45.41015625,7.70507860183716 45.76171875,8.525390625 47.3291015625,6.9140625 49.482421875,6.328125 51.6943359375,6.9580078125 53.26171875,8.642578125 55.927734375,14.033203125 56.6162109375,15.908203125 56.865234375,17.900390625 56.5283203125,20.068359375 55.576171875,22.0458984375 54.111328125,23.671875 52.20703125,24.755859375 53.3349609375,27.3193359375 54.1259765625,30.1171875 54.5947265625,33.0029296875 54.755859375,35.80078125 54.4189453125,37.44140625 53.5107421875,38.7744140625 52.177734375,39.6826171875 50.537109375,40.01953125 48.984375,39.697265625 47.6806640625,38.9794921875 46.2158203125,38.2470703125 44.208984375,37.91015625 42.216796875,38.2470703125 40.7666015625,38.9794921875 39.4482421875,39.697265625 37.91015625,40.01953125 36.826171875,39.8583984375 35.771484375,39.4775390625 34.7314453125,39.0234375 33.69140625,38.642578125 33.69140625,58.974609375 33.017578125,62.2265625 31.1865234375,64.892578125 28.4912109375,66.708984375 25.25390625,67.3828125 22.001953125,66.708984375 19.3359375,64.892578125 17.51953125,62.2265625 16.845703125,58.974609375 16.845703125,58.30078125 17.2119140625,56.103515625 18.2666015625,54.31640625 19.921875,53.1005859375 22.119140625,52.646484375 23.173828125,52.763671875 23.173828125,38.642578125 22.1337890625,39.0234375 21.09375,39.4775390625 20.0390625,39.8583984375 18.955078125,40.01953125 17.40234375,39.697265625 16.0986328125,38.9794921875 14.6337890625,38.2470703125 12.626953125,37.91015625 10.634765625,38.2470703125 9.1845703125,38.9794921875 7.8662109375,39.697265625 6.328125,40.01953125 4.6875,39.6826171875 3.35449123382568,38.7744140625 2.4462890625,37.44140625 2.109375,35.80078125 2.2705078125,32.98828125 2.7392578125,30.1171875 3.5302734375,27.3193359375 4.658203125,24.755859375 2.75390625,23.671875 1.2890625,22.0458984375 0.336913585662842,20.068359375 0,17.900390625 0.227050423622131,15.9375 0.908203125,14.033203125 3.60351657867432,8.642578125 5.15625,6.9580078125 7.353515625,6.328125 9.521484375,6.9140625 11.07421875,8.525390625 12.4365234375,5.59570264816284 13.916015625,2.72460889816284 14.12109375,2.34374952316284 15.6884765625,0.6298828125 17.900390625,0z" />
    </g>
  </g>
</svg>