<?xml version="1.0" encoding="utf-8"?>
<!DOCTYPE svg PUBLIC "-//W3C//DTD SVG 1.1//EN" "http://www.w3.org/Graphics/SVG/1.1/DTD/svg11.dtd">
<svg width="58.9453125" height="67.3828125" xmlns="http://www.w3.org/2000/svg" xmlns:xlink="http://www.w3.org/1999/xlink" xmlns:xml="http://www.w3.org/XML/1998/namespace" version="1.1">
  <g>
    <g>
      <path style="fill:#FF0000;fill-opacity:1" d="M29.47265625,48.427734375L30.966796875,49.04296875 31.58203125,50.537109375 30.966796875,52.03125 29.47265625,52.646484375 27.9931640625,52.0166015625 27.36328125,50.537109375 27.9931640625,49.0576171875 29.47265625,48.427734375z M29.47265625,40.01953125L30.966796875,40.634765625 31.58203125,42.12890625 30.9521484375,43.59375 29.47265625,44.208984375 27.9931640625,43.59375 27.36328125,42.12890625 27.9931640625,40.6494140625 29.47265625,40.01953125z M18.955078125,33.69140625L16.278076171875,36.383056640625 14.2822265625,39.4775390625 13.040771484375,42.930908203125 12.626953125,46.69921875 12.9638671875,49.903564453125 13.974609375,52.9541015625 15.552978515625,55.751953125 17.5927734375,58.1982421875 20.0390605926514,60.238037109375 22.8369140625,61.81640625 25.887451171875,62.8271484375 29.091796875,63.1640625 29.853515625,63.1640625 33.057861328125,62.8271484375 36.1083984375,61.81640625 38.90625,60.238037109375 41.3525390625,58.1982421875 43.3923301696777,55.751953125 44.970703125,52.9541015625 45.9814414978027,49.903564453125 46.318359375,46.69921875 46.318359375,46.083984375 45.849609375,42.5244140625 44.5458984375,39.19921875 42.5537109375,36.2255859375 40.01953125,33.69140625 25.25390625,33.69140625 25.25390625,40.01953125 21.064453125,40.01953125 21.064453125,33.69140625 18.955078125,33.69140625z M48.427734375,27.36328125L48.427734375,30.087890625 43.916015625,34.599609375 45.234375,36.26953125 49.921875,31.58203125 52.646484375,31.58203125 52.646484375,29.47265625 50.537109375,29.47265625 50.537109375,27.36328125 48.427734375,27.36328125z M8.408203125,27.36328125L8.408203125,29.47265625 6.32812547683716,29.47265625 6.32812547683716,31.58203125 9.052734375,31.58203125 13.740234375,36.26953125 14.3701171875,35.419921875 15.029296875,34.599609375 10.517578125,30.087890625 10.517578125,27.36328125 8.408203125,27.36328125z M29.47265625,23.173828125L30.498046875,23.4228515625 31.845703125,24.0234375 33.1787109375,24.7265625 34.21875,25.283203125 33.1640625,25.83984375 31.8310546875,26.5283203125 30.498046875,27.1142578125 29.47265625,27.36328125 27.9931640625,26.748046875 27.36328125,25.283203125 27.9931640625,23.8037109375 29.47265625,23.173828125z M48.427734375,21.064453125L46.93359375,21.6796875 46.318359375,23.173828125 46.9482421875,24.6533203125 48.427734375,25.283203125 49.9072265625,24.6533203125 50.537109375,23.173828125 49.9365234375,21.6650390625 48.427734375,21.064453125z M10.517578125,21.064453125L9.0380859375,21.6943359375 8.408203125,23.173828125 9.0380859375,24.6533203125 10.517578125,25.283203125 11.9970703125,24.6533203125 12.626953125,23.173828125 12.01171875,21.6796875 10.517578125,21.064453125z M17.6953125,18.955078125L17.0654296875,21.03515625 16.845703125,23.173828125 17.3583984375,26.513671875 18.955078125,29.47265625 40.01953125,29.47265625 41.6015625,26.513671875 42.099609375,23.173828125 41.8945274353027,21.005859375 41.279296875,18.955078125 35.9765625,18.955078125 37.3681640625,19.6142578125 37.91015625,21.064453125 37.91015625,23.173828125 37.2802734375,24.6533203125 35.80078125,25.283203125 34.3212890625,24.6533203125 33.69140625,23.173828125 33.69140625,21.064453125 34.2333984375,19.6142578125 35.625,18.955078125 23.349609375,18.955078125 24.7119140625,19.6435546875 25.25390625,21.064453125 25.25390625,23.173828125 24.638671875,24.6533203125 23.173828125,25.283203125 21.6943359375,24.6533203125 21.064453125,23.173828125 21.064453125,21.064453125 21.6064453125,19.6142578125 22.998046875,18.955078125 17.6953125,18.955078125z M46.318359375,14.736328125L44.8388671875,15.3662109375 44.208984375,16.845703125 44.8388671875,18.3251953125 46.318359375,18.955078125 47.7978515625,18.3251953125 48.427734375,16.845703125 47.8125,15.3515625 46.318359375,14.736328125z M16.845703125,14.736328125L16.845703125,16.845703125 42.099609375,16.845703125 42.099609375,14.736328125 16.845703125,14.736328125z M12.626953125,14.736328125L11.1474609375,15.3662109375 10.517578125,16.845703125 11.1474609375,18.3251953125 12.626953125,18.955078125 14.12109375,18.33984375 14.736328125,16.845703125 14.12109375,15.3515625 12.626953125,14.736328125z M52.646484375,12.626953125L51.1669921875,13.2568359375 50.537109375,14.736328125 51.15234375,16.23046875 52.646484375,16.845703125 54.140625,16.23046875 54.755859375,14.736328125 54.140625,13.2421875 52.646484375,12.626953125z M6.32812547683716,12.626953125L4.83398485183716,13.2421875 4.21875047683716,14.736328125 4.83398485183716,16.23046875 6.32812547683716,16.845703125 7.79296922683716,16.2158203125 8.408203125,14.736328125 7.79296922683716,13.2568359375 6.32812547683716,12.626953125z M44.208984375,8.4375L42.7294921875,9.052734375 42.099609375,10.517578125 42.71484375,12.01171875 44.208984375,12.626953125 45.703125,12.01171875 46.318359375,10.517578125 45.6884765625,9.052734375 44.208984375,8.4375z M14.736328125,8.4375L13.2568359375,9.052734375 12.626953125,10.517578125 13.2421875,12.01171875 14.736328125,12.626953125 16.2451171875,12.0263671875 16.845703125,10.517578125 16.2158203125,9.052734375 14.736328125,8.4375z M21.064453125,4.21874952316284L21.064453125,12.626953125 37.91015625,12.626953125 37.91015625,4.21874952316284 21.064453125,4.21874952316284z M16.845703125,0L42.099609375,0 42.099609375,4.57031297683716 44.208984375,4.21874952316284 46.259765625,4.5556640625 48.0322265625,5.5078125 49.423828125,6.98730421066284 50.302734375,8.876953125 52.646484375,8.4375 55.107421875,8.935546875 57.099609375,10.283203125 58.447265625,12.275390625 58.9453125,14.736328125 58.6083984375,16.7724609375 57.65625,18.5595703125 56.19140625,19.951171875 54.31640625,20.830078125 54.6826171875,22.4853515625 54.755859375,24.140625 54.755859375,25.283203125 56.865234375,25.283203125 56.865234375,35.80078125 51.650390625,35.80078125 48.896484375,38.5546875 50.1123046875,42.3486328125 50.537109375,46.318359375 49.7900390625,51.9140625 47.666015625,56.953125 44.3701171875,61.2158203125 40.107421875,64.51171875 35.068359375,66.6357421875 29.47265625,67.3828125 25.242919921875,66.968994140625 21.2841796875,65.7275390625 17.6989727020264,63.768310546875 14.58984375,61.201171875 12.022705078125,58.092041015625 10.0634765625,54.5068359375 8.822021484375,50.548095703125 8.408203125,46.318359375 8.84765625,42.3486328125 10.048828125,38.5546875 7.29492235183716,35.80078125 2.10937547683716,35.80078125 2.10937547683716,25.283203125 4.21875047683716,25.283203125 4.21875047683716,24.169921875 4.27734422683716,22.4853515625 4.65820360183716,20.830078125 2.76855516433716,19.98046875 1.28906297683716,18.57421875 0.336915016174316,16.7724609375 0,14.736328125 0.498046875,12.275390625 1.86035203933716,10.283203125 3.86718797683716,8.935546875 6.32812547683716,8.4375 8.642578125,8.876953125 9.4921875,6.98730421066284 10.8984375,5.5078125 12.7001953125,4.5556640625 14.736328125,4.21874952316284 16.845703125,4.57031297683716 16.845703125,0z" />
    </g>
  </g>
</svg>