<?xml version="1.0" encoding="utf-8"?>
<!DOCTYPE svg PUBLIC "-//W3C//DTD SVG 1.1//EN" "http://www.w3.org/Graphics/SVG/1.1/DTD/svg11.dtd">
<svg width="67.3828125" height="67.3828125" xmlns="http://www.w3.org/2000/svg" xmlns:xlink="http://www.w3.org/1999/xlink" xmlns:xml="http://www.w3.org/XML/1998/namespace" version="1.1">
  <g>
    <g>
      <path style="fill:#FF0000;fill-opacity:1" d="M37.96875,40.95703125L35.80078125,41.8359375 35.80078125,48.28125 39.3310546875,47.314453125 42.509765625,45.498046875 37.96875,40.95703125z M29.4140625,40.95703125L24.873046875,45.498046875 28.0517578125,47.314453125 31.58203125,48.28125 31.58203125,41.8359375 29.4140625,40.95703125z M41.8359375,35.80078125L40.95703125,37.96875 45.498046875,42.509765625 47.314453125,39.3310546875 48.28125,35.80078125 41.8359375,35.80078125z M19.1015625,35.80078125L20.068359375,39.3310546875 21.884765625,42.509765625 26.42578125,37.96875 25.546875,35.80078125 19.1015625,35.80078125z M33.69140625,29.47265625L32.05078125,29.8095703125 30.7177734375,30.7177734375 29.8095703125,32.05078125 29.47265625,33.69140625 29.8095703125,35.33203125 30.7177734375,36.6650390625 32.05078125,37.5732421875 33.69140625,37.91015625 35.33203125,37.5732421875 36.6650390625,36.6650390625 37.5732421875,35.33203125 37.91015625,33.69140625 37.5732421875,32.05078125 36.6650390625,30.7177734375 35.33203125,29.8095703125 33.69140625,29.47265625z M45.498046875,24.873046875L40.95703125,29.4140625 41.8359375,31.58203125 48.28125,31.58203125 47.314453125,28.0517578125 45.498046875,24.873046875z M21.884765625,24.873046875L20.068359375,28.0517578125 19.1015625,31.58203125 25.546875,31.58203125 26.42578125,29.4140625 21.884765625,24.873046875z M35.80078125,19.1015625L35.80078125,25.546875 37.96875,26.42578125 42.509765625,21.884765625 39.3310546875,20.068359375 35.80078125,19.1015625z M31.58203125,19.1015625L28.0517578125,20.068359375 24.873046875,21.884765625 29.4140625,26.42578125 31.58203125,25.546875 31.58203125,19.1015625z M33.69140625,10.517578125L34.8193359375,10.810546875 35.4638671875,11.572265625 35.7421875,12.626953125 35.80078125,13.76953125 35.80078125,14.853515625 40.95703125,16.1865234375 45.52734375,18.896484375 46.142578125,18.2373046875 46.8017578125,17.5634765625 47.5341796875,17.05078125 48.427734375,16.845703125 49.921875,17.4609375 50.537109375,18.955078125 50.33203125,19.8486328125 49.8193359375,20.5810546875 49.1455078125,21.240234375 48.486328125,21.85546875 51.1962890625,26.42578125 52.529296875,31.58203125 53.1298828125,31.5673828125 53.73046875,31.552734375 54.8583984375,31.6259765625 55.869140625,31.9189453125 56.5869140625,32.5634765625 56.865234375,33.69140625 56.572265625,34.8193359375 55.810546875,35.4638671875 54.755859375,35.7421875 53.61328125,35.80078125 52.529296875,35.80078125 51.1962890625,40.95703125 48.486328125,45.52734375 49.1455078125,46.1572265625 49.8193359375,46.8017578125 50.33203125,47.5341796875 50.537109375,48.427734375 49.921875,49.921875 48.427734375,50.537109375 47.5341796875,50.3466796875 46.787109375,49.8486328125 46.1279296875,49.1748046875 45.52734375,48.486328125 40.95703125,51.1962890625 35.80078125,52.529296875 35.8154296875,53.14453125 35.830078125,53.759765625 35.7568359375,54.90234375 35.4638671875,55.8984375 34.8193359375,56.6015625 33.69140625,56.865234375 32.548828125,56.5869140625 31.9189453125,55.83984375 31.640625,54.814453125 31.58203125,53.671875 31.58203125,52.529296875 26.42578125,51.1962890625 21.85546875,48.486328125 21.2548828125,49.16015625 20.595703125,49.8193359375 19.833984375,50.33203125 18.955078125,50.537109375 17.4609375,49.921875 16.845703125,48.427734375 17.05078125,47.548828125 17.5634765625,46.787109375 18.22265625,46.1279296875 18.896484375,45.52734375 16.1865234375,40.95703125 14.853515625,35.80078125 14.23828125,35.8154296875 13.623046875,35.830078125 12.48046875,35.7568359375 11.484375,35.4638671875 10.78125,34.8193359375 10.517578125,33.69140625 10.7958984375,32.548828125 11.54296875,31.9189453125 12.568359375,31.640625 13.7109375,31.58203125 14.853515625,31.58203125 16.1865234375,26.42578125 18.896484375,21.85546875 18.2080078125,21.2548828125 17.5341796875,20.595703125 17.0361328125,19.8486328125 16.845703125,18.955078125 17.4609375,17.4609375 18.955078125,16.845703125 19.8486328125,17.05078125 20.5810546875,17.5634765625 21.2255859375,18.2373046875 21.85546875,18.896484375 26.42578125,16.1865234375 31.58203125,14.853515625 31.5673828125,14.2529296875 31.552734375,13.65234375 31.6259765625,12.5244140625 31.9189453125,11.513671875 32.5634765625,10.7958984375 33.69140625,10.517578125z M4.21875,4.21874952316284L4.21875,63.1640625 63.1640625,63.1640625 63.1640625,4.21874952316284 4.21875,4.21874952316284z M0,0L67.3828125,0 67.3828125,67.3828125 0,67.3828125 0,0z" />
    </g>
  </g>
</svg>