<?xml version="1.0" encoding="utf-8"?>
<!DOCTYPE svg PUBLIC "-//W3C//DTD SVG 1.1//EN" "http://www.w3.org/Graphics/SVG/1.1/DTD/svg11.dtd">
<svg width="67.3828125000014" height="67.3828125" xmlns="http://www.w3.org/2000/svg" xmlns:xlink="http://www.w3.org/1999/xlink" xmlns:xml="http://www.w3.org/XML/1998/namespace" version="1.1">
  <g>
    <g>
      <path style="fill:#FF0000;fill-opacity:1" d="M43.857421875,52.1484375L39.1552734375,54.0380859375 34.130859375,54.755859375 41.6015625,63.1640625 43.857421875,52.1484375z M23.525390625,52.1484375L25.78125,63.1640625 33.251953125,54.755859375 28.2275390625,54.0380859375 23.525390625,52.1484375z M51.708984375,44.58984375L48.5888671875,48.5888671875 44.58984375,51.708984375 55.283203125,55.283203125 51.708984375,44.58984375z M15.673828125,44.58984375L12.099609375,55.283203125 22.79296875,51.708984375 18.7939453125,48.5888671875 15.673828125,44.58984375z M54.755859375,34.130859375L54.0380859375,39.1552734375 52.1484375,43.857421875 63.1640625,41.6015625 54.755859375,34.130859375z M12.626953125,34.130859375L4.21875,41.6015625 15.234375,43.857421875 13.3447265625,39.1552734375 12.626953125,34.130859375z M52.1484375,23.525390625L54.0380859375,28.2275390625 54.755859375,33.251953125 63.1640625,25.78125 52.1484375,23.525390625z M15.234375,23.525390625L4.21875,25.78125 12.626953125,33.251953125 13.3447265625,28.2275390625 15.234375,23.525390625z M33.69140625,14.736328125L28.65234375,15.41015625 24.1259765625,17.3291015625 20.302734375,20.302734375 17.3291015625,24.1259765625 15.41015625,28.65234375 14.736328125,33.69140625 15.41015625,38.73046875 17.3291015625,43.2568359375 20.302734375,47.080078125 24.1259765625,50.0537109375 28.65234375,51.97265625 33.69140625,52.646484375 38.73046875,51.97265625 43.2568359375,50.0537109375 47.080078125,47.080078125 50.0537109375,43.2421875 51.97265625,38.7158203125 52.646484375,33.662109375 51.97265625,28.6376953125 50.0537109375,24.1259765625 47.080078125,20.2880859375 43.2568359375,17.314453125 38.73046875,15.41015625 33.69140625,14.736328125z M55.283203125,12.099609375L44.58984375,15.673828125 48.5888671875,18.7939453125 51.708984375,22.79296875 55.283203125,12.099609375z M12.099609375,12.099609375L15.673828125,22.79296875 18.7939453125,18.7939453125 22.79296875,15.673828125 12.099609375,12.099609375z M41.6015625,4.21874952316284L34.130859375,12.626953125 39.1552734375,13.3447265625 43.857421875,15.234375 41.6015625,4.21874952316284z M25.78125,4.21874952316284L23.525390625,15.234375 28.2275390625,13.3447265625 33.251953125,12.626953125 25.78125,4.21874952316284z M25.83984375,0L27.5830078125,0.380859375 29.00390625,1.43554735183716 33.69140625,6.73828077316284 38.37890625,1.43554735183716 39.7998046875,0.380859375 41.54296875,0 42.9931640625,0.2490234375 44.2529296875,0.952147960662842 45.2197265625,2.03613305091858 45.76171875,3.3984375 47.16796875,10.341796875 53.876953125,8.115234375 55.25390625,7.88085889816284 56.89453125,8.2177734375 58.2421875,9.140625 59.1650390625,10.48828125 59.501953125,12.1289072036743 59.267578125,13.505859375 57.041015625,20.21484375 63.984375,21.62109375 65.343017578125,22.15576171875 66.4306640625,23.115234375 67.144775390625,24.3823261260986 67.3828125,25.83984375 67.001953125,27.5830078125 65.947265625,29.00390625 60.64453125,33.69140625 65.947265625,38.37890625 67.001953125,39.7998046875 67.3828125,41.54296875 67.144775390625,43.00048828125 66.4306640625,44.267578125 65.343017578125,45.22705078125 63.984375,45.76171875 57.041015625,47.16796875 59.267578125,53.876953125 59.501953125,55.25390625 59.1650390625,56.89453125 58.2421875,58.2421875 56.89453125,59.1650390625 55.25390625,59.501953125 53.876953125,59.267578125 47.16796875,57.041015625 45.76171875,63.984375 45.2197265625,65.361328125 44.2529296875,66.4306640625 42.9931640625,67.1337890625 41.54296875,67.3828125 39.7998046875,67.001953125 38.37890625,65.947265625 33.69140625,60.64453125 29.00390625,65.947265625 27.5830078125,67.001953125 25.83984375,67.3828125 24.38232421875,67.144775390625 23.115234375,66.4306640625 22.1557598114014,65.343017578125 21.62109375,63.984375 20.21484375,57.041015625 13.505859375,59.267578125 12.12890625,59.501953125 10.48828125,59.1650390625 9.140625,58.2421875 8.2177734375,56.89453125 7.880859375,55.25390625 8.115234375,53.876953125 10.341796875,47.16796875 3.3984375,45.76171875 2.039794921875,45.22705078125 0.9521484375,44.267578125 0.238036751747131,43.00048828125 0,41.54296875 0.380859375,39.7998046875 1.435546875,38.37890625 6.73828125,33.69140625 1.435546875,29.00390625 0.380859375,27.5830078125 0,25.83984375 0.238036751747131,24.3823261260986 0.9521484375,23.115234375 2.039794921875,22.15576171875 3.3984375,21.62109375 10.341796875,20.21484375 8.115234375,13.505859375 7.880859375,12.1289072036743 8.2177734375,10.48828125 9.140625,9.140625 10.48828125,8.2177734375 12.12890625,7.88085889816284 13.505859375,8.115234375 20.21484375,10.341796875 21.62109375,3.3984375 22.1557598114014,2.03979778289795 23.115234375,0.952147960662842 24.38232421875,0.238039910793304 25.83984375,0z" />
    </g>
  </g>
</svg>