<?xml version="1.0" encoding="utf-8"?>
<!DOCTYPE svg PUBLIC "-//W3C//DTD SVG 1.1//EN" "http://www.w3.org/Graphics/SVG/1.1/DTD/svg11.dtd">
<svg width="54.7558593750007" height="54.7265625" xmlns="http://www.w3.org/2000/svg" xmlns:xlink="http://www.w3.org/1999/xlink" xmlns:xml="http://www.w3.org/XML/1998/namespace" version="1.1">
  <g>
    <g>
      <path style="fill:#FF0000;fill-opacity:1" d="M21.064453125,25.25390625L24.3310546875,25.927734375 27.01171875,27.744140625 28.8134765625,30.4248046875 29.47265625,33.69140625 28.8134765625,36.9580078125 27.01171875,39.638671875 24.3310546875,41.4404296875 21.064453125,42.099609375 17.7978515625,41.4404296875 15.1171875,39.638671875 13.30078125,36.9580078125 12.626953125,33.69140625 13.2861328125,30.3955078125 15.087890625,27.71484375 17.7685546875,25.9130859375 21.064453125,25.25390625z M29.47265625,4.189453125L29.47265625,10.517578125 38.90625,10.517578125 30,19.423828125 25.7080078125,17.490234375 21.064453125,16.845703125 17.6843242645264,17.1789569854736 14.5166015625,18.1787109375 11.649169921875,19.7497577667236 9.169921875,21.796875 7.12280178070068,24.2761249542236 5.5517578125,27.1435546875 4.552001953125,30.311279296875 4.21875,33.69140625 4.552001953125,37.071533203125 5.5517578125,40.2392578125 7.12280178070068,43.106689453125 9.169921875,45.5859375 11.649169921875,47.633056640625 14.5166015625,49.2041015625 17.6843242645264,50.203857421875 21.064453125,50.537109375 24.444580078125,50.203857421875 27.6123046875,49.2041015625 30.479736328125,47.633056640625 32.958984375,45.5859375 35.006103515625,43.106689453125 36.5771484375,40.2392578125 37.576904296875,37.071533203125 37.91015625,33.69140625 37.2509765625,29.033203125 35.33203125,24.7265625 44.208984375,15.8203125 44.208984375,25.25390625 50.537109375,25.25390625 50.537109375,4.189453125 29.47265625,4.189453125z M25.25390625,0L54.755859375,0 54.755859375,29.47265625 41.689453125,29.47265625 42.01171875,31.5673828125 42.099609375,33.69140625 41.3525390625,39.2724609375 39.228515625,44.296875 35.9326171875,48.5595703125 31.669921875,51.85546875 26.6455078125,53.9794921875 21.064453125,54.7265625 16.8347148895264,54.312744140625 12.8759765625,53.0712890625 9.290771484375,51.11572265625 6.181640625,48.5595703125 3.614501953125,45.46142578125 1.6552734375,41.8798828125 0.413818180561066,37.921142578125 0,33.69140625 0.7470703125,28.095703125 2.87109375,23.056640625 6.1669921875,18.7939453125 10.4296875,15.498046875 15.46875,13.3740234375 21.064453125,12.626953125 25.25390625,13.037109375 25.25390625,0z" />
    </g>
  </g>
</svg>