<?xml version="1.0" encoding="utf-8"?>
<!DOCTYPE svg PUBLIC "-//W3C//DTD SVG 1.1//EN" "http://www.w3.org/Graphics/SVG/1.1/DTD/svg11.dtd">
<svg width="28.41796875" height="43.4765625" xmlns="http://www.w3.org/2000/svg" xmlns:xlink="http://www.w3.org/1999/xlink" xmlns:xml="http://www.w3.org/XML/1998/namespace" version="1.1">
  <g>
    <g>
      <path style="fill:#FF0000;fill-opacity:1" d="M6.4453125,1.875L9.74853420257568,2.947998046875 12.626953125,4.5849609375 15.0732421875,6.690673828125 17.080078125,9.169921875 18.6474609375,11.9787616729736 19.775390625,15.0732421875 20.45654296875,18.3654804229736 20.68359375,21.767578125 20.45654296875,25.147705078125 19.775390625,28.4326171875 18.6474609375,31.5234375 17.080078125,34.3212890625 15.0732421875,36.78955078125 12.626953125,38.8916015625 9.74853420257568,40.528564453125 6.4453125,41.6015625 9.51782131195068,41.400146484375 12.3486328125,40.7958984375 17.2412109375,38.583984375 21.0791015625,35.2587890625 23.84765625,31.142578125 25.5322265625,26.54296875 26.103515625,21.767578125 25.5322265625,16.962890625 23.84765625,12.3486328125 21.0791015625,8.232421875 17.2412109375,4.9072265625 12.3486328125,2.6806640625 9.51782131195068,2.076416015625 6.4453125,1.875z M6.38671875,0L12.4072265625,0.732421875 17.724609375,2.8125 22.1484375,6.09375 25.517578125,10.4443359375 27.6708984375,15.7177734375 28.41796875,21.767578125 28.0041484832764,26.3671875 26.7626953125,30.556640625 24.7851543426514,34.2626953125 22.1630859375,37.412109375 18.944091796875,39.964599609375 15.17578125,41.8798828125 10.9570302963257,43.077392578125 6.38671875,43.4765625 2.8857421875,43.2568359375 0,42.685546875 0,40.634765625 4.310302734375,40.250244140625 8.0419921875,39.0966796875 11.1950674057007,37.291259765625 13.76953125,34.951171875 15.76904296875,32.142333984375 17.197265625,28.9306640625 18.05419921875,25.433349609375 18.33984375,21.767578125 18.05419921875,18.0761737823486 17.197265625,14.560546875 15.76904296875,11.3378915786743 13.76953125,8.525390625 11.1950674057007,6.185302734375 8.0419921875,4.3798828125 4.310302734375,3.226318359375 0,2.841796875 0,0.791015625 2.8857421875,0.2197265625 6.38671875,0z" />
    </g>
  </g>
</svg>