<?xml version="1.0" encoding="utf-8"?>
<!DOCTYPE svg PUBLIC "-//W3C//DTD SVG 1.1//EN" "http://www.w3.org/Graphics/SVG/1.1/DTD/svg11.dtd">
<svg width="67.3828125000011" height="67.3828125" xmlns="http://www.w3.org/2000/svg" xmlns:xlink="http://www.w3.org/1999/xlink" xmlns:xml="http://www.w3.org/XML/1998/namespace" version="1.1">
  <g>
    <g>
      <path style="fill:#FF0000;fill-opacity:1" d="M52.236328125,46.787109375L51.3940391540527,48.599853515625 50.15625,50.1708984375 48.5961875915527,51.412353515625 46.787109375,52.236328125 48.017578125,55.517578125 48.427734375,58.974609375 48.7646484375,60.615234375 49.6728515625,61.9482421875 51.005859375,62.841796875 52.646484375,63.1640625 54.31640625,62.8271484375 55.6494140625,61.904296875 56.54296875,60.52734375 56.865234375,58.857421875 55.1806640625,58.1982421875 53.84765625,57.0263671875 52.96875,55.48828125 52.646484375,53.701171875 52.9541015625,52.9541015625 53.701171875,52.646484375 54.4482421875,52.9541015625 54.755859375,53.701171875 55.0048828125,54.9462890625 55.6787109375,55.9423828125 56.6748046875,56.6162109375 57.919921875,56.865234375 58.359375,56.953125 58.9453125,56.865234375 60.5859375,56.5283203125 61.9189453125,55.6201171875 62.8271484375,54.287109375 63.1640625,52.646484375 62.8271484375,51.005859375 61.9189453125,49.6728515625 60.5859375,48.7646484375 58.9453125,48.427734375 55.48828125,48.017578125 52.236328125,46.787109375z M15.146484375,46.787109375L11.865234375,48.017578125 8.408203125,48.427734375 6.767578125,48.7646484375 5.4345703125,49.6728515625 4.541015625,51.005859375 4.21875,52.646484375 4.5556640625,54.31640625 5.478515625,55.6494140625 6.85546875,56.54296875 8.525390625,56.865234375 9.1845703125,55.1806640625 10.3564453125,53.84765625 11.89453125,52.96875 13.681640625,52.646484375 14.4287109375,52.9541015625 14.736328125,53.701171875 14.4287109375,54.4482421875 13.681640625,54.755859375 12.4365234375,55.0048828125 11.4404296875,55.6787109375 10.7666015625,56.689453125 10.517578125,57.919921875 10.4296875,58.359375 10.517578125,58.974609375 10.8544921875,60.615234375 11.7626953125,61.9482421875 13.095703125,62.841796875 14.736328125,63.1640625 16.376953125,62.841796875 17.7099609375,61.9482421875 18.6181640625,60.615234375 18.955078125,58.974609375 19.365234375,55.517578125 20.595703125,52.236328125 18.7866191864014,51.412353515625 17.2265625,50.1708984375 15.98876953125,48.599853515625 15.146484375,46.787109375z M33.69140625,35.80078125L34.4384765625,36.1962890625 34.892578125,36.943359375 37.646484375,42.158203125 37.8369140625,42.626953125 37.91015625,43.095703125 37.5439453125,43.9306640625 36.650390625,44.208984375 30.76171875,44.208984375 29.853515625,43.9306640625 29.47265625,43.06640625 29.5458984375,42.59765625 29.736328125,42.12890625 32.490234375,36.97265625 32.9443359375,36.2109375 33.69140625,35.80078125z M43.154296875,25.283203125L45.205078125,25.693359375 46.8896484375,26.806640625 48.017578125,28.4765625 48.427734375,30.52734375 48.427734375,32.63671875 48.017578125,34.6728515625 46.904296875,36.3427734375 45.2490234375,37.4853515625 43.212890625,37.91015625 41.1328125,37.5 39.4482421875,36.3720703125 38.3203125,34.7021484375 37.91015625,32.63671875 37.91015625,30.52734375 38.3203125,28.4912109375 39.4482421875,26.8212890625 41.1181640625,25.693359375 43.154296875,25.283203125z M24.228515625,25.283203125L26.2646484375,25.693359375 27.9345703125,26.8212890625 29.0625,28.4912109375 29.47265625,30.52734375 29.47265625,32.63671875 29.0625,34.6728515625 27.9345703125,36.3427734375 26.2646484375,37.4853515625 24.228515625,37.91015625 22.177734375,37.5 20.4931640625,36.3720703125 19.365234375,34.6875 18.955078125,32.63671875 18.955078125,30.52734375 19.365234375,28.4765625 20.4931640625,26.806640625 22.177734375,25.693359375 24.228515625,25.283203125z M33.69140625,10.517578125L28.0517578125,11.1474609375 22.529296875,13.0517578125 17.724609375,16.2451171875 15.76904296875,18.328857421875 14.23828125,20.7421875 13.30078125,22.9541015625 12.83203125,24.9755859375 12.65625,27.041015625 12.626953125,29.35546875 12.626953125,29.853515625 12.9052734375,32.431640625 13.59375,34.453125 14.5166015625,36.1376953125 15.4833984375,37.705078125 16.3037109375,39.3896484375 16.81640625,41.42578125 16.875,41.9677734375 16.875,42.5390625 16.8603515625,43.388671875 16.845703125,44.23828125 17.3291015625,46.6259765625 18.6328125,48.6181640625 20.56640625,50.009765625 22.96875,50.537109375 25.25390625,50.537109375 25.25390625,53.525390625 25.634765625,54.404296875 26.513671875,54.755859375 28.2421875,54.755859375 29.1064453125,54.3896484375 29.47265625,53.525390625 29.47265625,50.537109375 31.58203125,50.537109375 31.58203125,53.525390625 31.9482421875,54.3896484375 32.8125,54.755859375 34.5703125,54.755859375 35.4345703125,54.3896484375 35.80078125,53.525390625 35.80078125,50.537109375 37.91015625,50.537109375 37.91015625,53.525390625 38.2763671875,54.3896484375 39.140625,54.755859375 40.869140625,54.755859375 41.7333984375,54.3896484375 42.099609375,53.525390625 42.099609375,50.537109375 42.861328125,50.5517578125 43.623046875,50.56640625 44.6337890625,50.537109375 45.64453125,50.390625 47.51953125,49.6435546875 48.9990234375,48.33984375 50.0244140625,46.6552734375 50.5078125,44.70703125 50.5517578125,44.1650390625 50.56640625,43.59375 50.5517578125,42.861328125 50.537109375,42.12890625 50.7861328125,40.2978515625 51.416015625,38.6865234375 52.2802734375,37.1484375 53.232421875,35.595703125 54.0966796875,33.7646484375 54.55078125,31.9921875 54.7265625,30.205078125 54.755859375,28.330078125 54.755859375,27.216796875 54.228515625,23.5107421875 52.7783203125,20.1708984375 50.56640625,17.2412109375 47.75390625,14.794921875 44.5422325134277,12.886962890625 41.0595703125,11.5576171875 37.408447265625,10.777587890625 33.69140625,10.517578125z M52.646484375,4.21874952316284L51.005859375,4.5556640625 49.6728515625,5.46386766433716 48.7646484375,6.796875 48.427734375,8.4375 47.900390625,12.36328125 51.826171875,15.5126953125 54.84375,19.541015625 58.9453125,18.955078125 60.5859375,18.6181640625 61.9189453125,17.7099609375 62.8271484375,16.376953125 63.1640625,14.736328125 62.8271484375,13.06640625 61.904296875,11.7333984375 60.52734375,10.83984375 58.857421875,10.517578125 58.1982421875,12.2021484375 57.0263671875,13.53515625 55.48828125,14.4140625 53.701171875,14.736328125 52.9541015625,14.4287109375 52.646484375,13.681640625 52.9541015625,12.9345703125 53.701171875,12.626953125 54.9169921875,12.3779296875 55.927734375,11.689453125 56.6162109375,10.6787109375 56.865234375,9.462890625 56.953125,9.0234375 56.865234375,8.4375 56.5283203125,6.796875 55.6201171875,5.46386766433716 54.287109375,4.5556640625 52.646484375,4.21874952316284z M14.736328125,4.21874952316284L13.06640625,4.5556640625 11.7333984375,5.47851514816284 10.83984375,6.85546827316284 10.517578125,8.525390625 12.2021484375,9.1845703125 13.53515625,10.3564453125 14.4140625,11.89453125 14.736328125,13.681640625 14.4287109375,14.4287109375 13.681640625,14.736328125 12.9345703125,14.4287109375 12.626953125,13.681640625 12.3779296875,12.4658203125 11.689453125,11.455078125 10.6787109375,10.7666015625 9.462890625,10.517578125 9.0234375,10.4296875 8.408203125,10.517578125 6.767578125,10.8544921875 5.4345703125,11.7626953125 4.541015625,13.095703125 4.21875,14.736328125 4.541015625,16.376953125 5.4345703125,17.7099609375 6.767578125,18.6181640625 8.408203125,18.955078125 12.5390625,19.541015625 15.556640625,15.498046875 19.482421875,12.36328125 18.955078125,8.4375 18.6181640625,6.796875 17.7099609375,5.46386766433716 16.376953125,4.5556640625 14.736328125,4.21874952316284z M14.736328125,0L17.9443359375,0.644531488418579 20.595703125,2.40234375 22.4267578125,5.009765625 23.14453125,8.203125 28.330078125,6.796875 33.69140625,6.328125 39.0380859375,6.796875 44.208984375,8.203125 44.9267578125,5.009765625 46.7578125,2.40234375 49.423828125,0.644531488418579 52.646484375,0 55.458984375,0.483398199081421 57.890625,1.83105421066284 59.7509765625,3.896484375 60.849609375,6.533203125 63.486328125,7.63183546066284 65.5517578125,9.4921875 66.8994140625,11.923828125 67.3828125,14.736328125 66.6796875,18.193359375 64.7607421875,20.8447265625 61.93359375,22.55859375 58.505859375,23.173828125 58.88671875,26.19140625 58.9453125,29.208984375 58.9453125,29.853515625 58.3447265625,34.2919921875 56.455078125,38.349609375 56.3671875,38.49609375 55.8251953125,39.3310546875 55.3125,40.25390625 54.9169921875,41.2060546875 54.755859375,42.12890625 54.755859375,43.330078125 56.78466796875,43.9892578125 58.9453125,44.208984375 62.2412109375,44.8681640625 64.921875,46.669921875 66.7236328125,49.3505859375 67.3828125,52.646484375 66.8994140625,55.4443359375 65.5517578125,57.8759765625 63.486328125,59.7509765625 60.849609375,60.849609375 59.7509765625,63.486328125 57.890625,65.5517578125 55.458984375,66.8994140625 52.646484375,67.3828125 49.3798828125,66.7236328125 46.69921875,64.921875 44.8828125,62.2412109375 44.208984375,58.974609375 44.208984375,58.41796875 44.150390625,57.861328125 43.1103515625,58.4912109375 42.0849609375,58.828125 41.044921875,58.9599609375 39.931640625,58.974609375 39.140625,58.974609375 37.96875,58.828125 36.85546875,58.447265625 35.4052734375,58.88671875 33.955078125,58.974609375 32.8125,58.974609375 31.640625,58.828125 30.52734375,58.447265625 29.0771484375,58.88671875 27.626953125,58.974609375 26.513671875,58.974609375 24.78515625,58.6962890625 23.232421875,57.861328125 23.173828125,58.41796875 23.173828125,58.974609375 22.5,62.2412109375 20.68359375,64.921875 18.0029296875,66.7236328125 14.736328125,67.3828125 11.9384765625,66.8994140625 9.5068359375,65.5517578125 7.6318359375,63.486328125 6.533203125,60.849609375 3.896484375,59.7509765625 1.8310546875,57.890625 0.4833984375,55.458984375 0,52.646484375 0.6591796875,49.3798828125 2.4609375,46.69921875 5.1416015625,44.8828125 8.408203125,44.208984375 10.576171875,43.9892578125 12.626953125,43.330078125 12.626953125,42.12890625 12.4658203125,41.1474609375 12.041015625,40.1513671875 11.484375,39.2138671875 10.927734375,38.37890625 9.4775390625,35.68359375 8.73046875,33.017578125 8.4521484375,30.2490234375 8.408203125,27.216796875 8.525390625,25.1806640625 8.876953125,23.173828125 5.419921875,22.5732421875 2.607421875,20.859375 0.703125,18.193359375 0,14.736328125 0.4833984375,11.923828125 1.8310546875,9.4921875 3.896484375,7.63183546066284 6.533203125,6.533203125 7.6318359375,3.896484375 9.4921875,1.83105421066284 11.923828125,0.483398199081421 14.736328125,0z" />
    </g>
  </g>
</svg>