<?xml version="1.0" encoding="utf-8"?>
<!DOCTYPE svg PUBLIC "-//W3C//DTD SVG 1.1//EN" "http://www.w3.org/Graphics/SVG/1.1/DTD/svg11.dtd">
<svg width="67.44140625" height="56.8359375" xmlns="http://www.w3.org/2000/svg" xmlns:xlink="http://www.w3.org/1999/xlink" xmlns:xml="http://www.w3.org/XML/1998/namespace" version="1.1">
  <g>
    <g>
      <path style="fill:#FF0000;fill-opacity:1" d="M6.35742235183716,44.208984375L6.35742235183716,48.427734375 6.67968893051147,50.068359375 7.57324266433716,51.4013671875 8.90625,52.3095703125 10.546875,52.646484375 56.89453125,52.646484375 58.53515625,52.3095703125 59.8681640625,51.4013671875 60.76171875,50.068359375 61.083984375,48.427734375 61.083984375,44.208984375 6.35742235183716,44.208984375z M37.939453125,33.69140625L42.12890625,33.69140625 42.12890625,37.880859375 37.939453125,37.880859375 37.939453125,33.69140625z M31.611328125,33.69140625L35.830078125,33.69140625 35.830078125,37.880859375 31.611328125,37.880859375 31.611328125,33.69140625z M25.283203125,33.69140625L29.501953125,33.69140625 29.501953125,37.880859375 25.283203125,37.880859375 25.283203125,33.69140625z M37.939453125,27.36328125L42.12890625,27.36328125 42.12890625,31.58203125 37.939453125,31.58203125 37.939453125,27.36328125z M31.611328125,27.36328125L35.830078125,27.36328125 35.830078125,31.58203125 31.611328125,31.58203125 31.611328125,27.36328125z M25.283203125,27.36328125L29.501953125,27.36328125 29.501953125,31.58203125 25.283203125,31.58203125 25.283203125,27.36328125z M37.939453125,21.03515625L42.12890625,21.03515625 42.12890625,25.25390625 37.939453125,25.25390625 37.939453125,21.03515625z M31.611328125,21.03515625L35.830078125,21.03515625 35.830078125,25.25390625 31.611328125,25.25390625 31.611328125,21.03515625z M25.283203125,21.03515625L29.501953125,21.03515625 29.501953125,25.25390625 25.283203125,25.25390625 25.283203125,21.03515625z M54.78515625,10.517578125L52.5439453125,10.8251953125 50.478515625,11.7041015625 48.720703125,13.095703125 47.373046875,14.912109375 63.193359375,18.8671875 62.51953125,15.615234375 60.703125,12.9638671875 58.0224609375,11.1767578125 54.78515625,10.517578125z M25.283203125,10.517578125L25.283203125,16.845703125 21.09375,16.845703125 4.24804735183716,21.03515625 5.24414110183716,25.01953125 18.193359375,21.767578125 7.50000047683716,40.107421875 6.65039110183716,42.099609375 60.791015625,42.099609375 59.94140625,40.107421875 49.248046875,21.767578125 62.197265625,25.01953125 63.193359375,21.03515625 46.34765625,16.845703125 42.12890625,16.845703125 42.12890625,10.517578125 37.939453125,10.517578125 37.939453125,16.845703125 29.501953125,16.845703125 29.501953125,10.517578125 25.283203125,10.517578125z M12.65625,10.517578125L9.404296875,11.1767578125 6.73828172683716,12.9638671875 4.92187643051147,15.615234375 4.24804735183716,18.8671875 20.068359375,14.912109375 18.720703125,13.095703125 16.962890625,11.7041015625 14.8974609375,10.8251953125 12.65625,10.517578125z M18.984375,4.18945217132568L15.655517578125,4.5556640625 12.5244140625,5.654296875 9.722900390625,7.4267578125 7.38281393051147,9.814453125 9.931640625,8.77441501617432 12.65625,8.408203125 15.52734375,8.818359375 18.1494140625,9.9755859375 20.361328125,11.77734375 22.03125,14.150390625 22.587890625,13.6083984375 23.203125,13.18359375 23.203125,8.4375 31.58203125,8.4375 31.58203125,12.626953125 35.859375,12.626953125 35.859375,8.4375 44.208984375,8.4375 44.208984375,13.18359375 44.853515625,13.6083984375 45.380859375,14.150390625 47.1020469665527,11.766357421875 49.27734375,9.9462890625 51.8554649353027,8.792724609375 54.78515625,8.408203125 57.509765625,8.77441501617432 60.05859375,9.814453125 57.718505859375,7.4267578125 54.9169921875,5.654296875 51.7858848571777,4.5556640625 48.45703125,4.18945217132568 18.984375,4.18945217132568z M18.984375,0L48.45703125,0 53.49609375,0.673827648162842 58.0224609375,2.59277367591858 61.845703125,5.56640625 64.8193359375,9.3896484375 66.73828125,13.916015625 67.412109375,18.955078125 67.4267578125,19.8486328125 67.44140625,20.7421875 67.1923828125,22.5732421875 66.708984375,24.404296875 65.2734375,30.1171875 57.919921875,28.271484375 63.57421875,37.96875 64.4677734375,39.7998046875 64.9951171875,41.5869140625 65.2587890625,43.447265625 65.33203125,45.46875 65.3173828125,46.93359375 65.302734375,48.427734375 64.6435546875,51.6943359375 62.841796875,54.375 60.1611328125,56.1767578125 56.89453125,56.8359375 10.546875,56.8359375 7.28027391433716,56.1767578125 4.59960985183716,54.375 2.79785203933716,51.6943359375 2.13867235183716,48.427734375 2.12402391433716,46.9482421875 2.10937452316284,45.46875 2.18261766433716,43.4619140625 2.44628953933716,41.6015625 2.97363328933716,39.7998046875 3.86718702316284,37.96875 9.521484375,28.271484375 2.16796922683716,30.1171875 1.36230516433716,26.748046875 0.498047828674316,23.408203125 0.234375476837158,22.4853515625 0.0292973518371582,21.5625 0,21.15234375 0,20.712890625 0.0146493911743164,19.8193359375 0.0292973518371582,18.955078125 0.703124523162842,13.916015625 2.62207078933716,9.3896484375 5.59570360183716,5.56640625 9.4189453125,2.59277367591858 13.9453125,0.673827648162842 18.984375,0z" />
    </g>
  </g>
</svg>