<?xml version="1.0" encoding="utf-8"?>
<!DOCTYPE svg PUBLIC "-//W3C//DTD SVG 1.1//EN" "http://www.w3.org/Graphics/SVG/1.1/DTD/svg11.dtd">
<svg width="67.3828125" height="67.3828125" xmlns="http://www.w3.org/2000/svg" xmlns:xlink="http://www.w3.org/1999/xlink" xmlns:xml="http://www.w3.org/XML/1998/namespace" version="1.1">
  <g>
    <g>
      <path style="fill:#FF0000;fill-opacity:1" d="M33.69140625,43.18359375L32.2412109375,43.798828125 30.791015625,44.384765625 31.201171875,45.9521484375 31.845703125,47.607421875 32.6953125,49.16015625 33.69140625,50.419921875 34.7021484375,49.130859375 35.5078125,47.5927734375 36.123046875,45.966796875 36.591796875,44.384765625 35.1416015625,43.798828125 33.69140625,43.18359375z M44.4140625,36.533203125L43.1689453125,37.5 41.89453125,38.4375 41.748046875,39.90234375 41.54296875,41.3671875 41.5283203125,41.4697265625 41.513671875,41.572265625 43.8720703125,42.099609375 46.2890625,42.3046875 47.255859375,42.2607421875 48.1640625,42.041015625 47.6513671875,40.634765625 46.6552734375,39.111328125 45.46875,37.6611328125 44.4140625,36.533203125z M22.96875,36.533203125L21.9140625,37.6611328125 20.7275390625,39.111328125 19.7314453125,40.634765625 19.21875,42.041015625 20.126953125,42.2607421875 21.09375,42.3046875 23.5107421875,42.099609375 25.869140625,41.572265625 25.8544921875,41.4697265625 25.83984375,41.3671875 25.634765625,39.90234375 25.48828125,38.4375 24.2138671875,37.5 22.96875,36.533203125z M33.69140625,31.58203125L35.185546875,32.197265625 35.80078125,33.69140625 35.185546875,35.185546875 33.69140625,35.80078125 32.197265625,35.185546875 31.58203125,33.69140625 32.197265625,32.197265625 33.69140625,31.58203125z M33.69140625,28.88671875L31.5966796875,30.05859375 29.53125,31.2890625 29.4873046875,32.490234375 29.47265625,33.69140625 29.4873046875,34.892578125 29.53125,36.09375 31.5966796875,37.3388671875 33.69140625,38.49609375 35.7861328125,37.3388671875 37.8515625,36.09375 37.8955078125,34.892578125 37.91015625,33.69140625 37.8955078125,32.490234375 37.8515625,31.2890625 35.7861328125,30.05859375 33.69140625,28.88671875z M46.2890625,25.078125L43.8720703125,25.283203125 41.513671875,25.810546875 41.5283203125,25.9130859375 41.54296875,26.015625 41.748046875,27.48046875 41.89453125,28.9453125 43.1689453125,29.8828125 44.4140625,30.849609375 45.46875,29.7216796875 46.6552734375,28.271484375 47.6513671875,26.748046875 48.1640625,25.341796875 47.255859375,25.1220703125 46.2890625,25.078125z M21.09375,25.078125L20.126953125,25.1220703125 19.21875,25.341796875 19.7314453125,26.748046875 20.7275390625,28.271484375 21.9140625,29.7216796875 22.96875,30.849609375 24.2138671875,29.8828125 25.48828125,28.9453125 25.634765625,27.48046875 25.83984375,26.015625 25.8544921875,25.9130859375 25.869140625,25.810546875 23.5107421875,25.283203125 21.09375,25.078125z M33.69140625,16.962890625L32.6806640625,18.251953125 31.8603515625,19.775390625 31.23046875,21.4013671875 30.791015625,22.998046875 32.255859375,23.5986328125 33.69140625,24.228515625 35.126953125,23.5986328125 36.591796875,22.998046875 35.5078125,19.8046875 33.69140625,16.962890625z M33.69140625,12.626953125L35.478515625,13.0810546875 37.001953125,14.296875 38.2763671875,16.025390625 39.287109375,18.0029296875 40.0634765625,19.98046875 40.60546875,21.708984375 43.41796875,21.1083984375 46.2890625,20.888671875 48.3984375,21.0791015625 50.3759765625,21.73828125 51.8408203125,23.02734375 52.412109375,25.107421875 51.943359375,27.451171875 50.7568359375,29.7802734375 49.189453125,31.904296875 47.548828125,33.69140625 49.189453125,35.478515625 50.7568359375,37.6025390625 51.943359375,39.931640625 52.412109375,42.275390625 51.8408203125,44.35546875 50.3759765625,45.64453125 48.3984375,46.3037109375 46.2890625,46.494140625 43.41796875,46.2744140625 40.60546875,45.673828125 40.0634765625,47.40234375 39.287109375,49.3798828125 38.2763671875,51.357421875 37.001953125,53.0859375 35.478515625,54.3017578125 33.69140625,54.755859375 31.904296875,54.3017578125 30.380859375,53.0859375 29.1064453125,51.357421875 28.0810546875,49.3798828125 27.3046875,47.40234375 26.77734375,45.673828125 23.96484375,46.2744140625 21.09375,46.494140625 18.9697265625,46.318359375 16.9775390625,45.673828125 15.5126953125,44.3994140625 14.94140625,42.3046875 15.41015625,39.9609375 16.611328125,37.6171875 18.193359375,35.4638671875 19.833984375,33.69140625 18.193359375,31.9189453125 16.611328125,29.765625 15.41015625,27.421875 14.94140625,25.078125 15.5126953125,22.998046875 16.9775390625,21.708984375 18.9697265625,21.064453125 21.09375,20.888671875 23.96484375,21.1083984375 26.77734375,21.708984375 27.3046875,19.98046875 28.0810546875,18.0029296875 29.1064453125,16.025390625 30.380859375,14.296875 31.904296875,13.0810546875 33.69140625,12.626953125z M4.21875,4.21874952316284L4.21875,63.1640625 63.1640625,63.1640625 63.1640625,4.21874952316284 4.21875,4.21874952316284z M0,0L67.3828125,0 67.3828125,67.3828125 0,67.3828125 0,0z" />
    </g>
  </g>
</svg>