<?xml version="1.0" encoding="utf-8"?>
<!DOCTYPE svg PUBLIC "-//W3C//DTD SVG 1.1//EN" "http://www.w3.org/Graphics/SVG/1.1/DTD/svg11.dtd">
<svg width="31.0546875" height="45.76171875" xmlns="http://www.w3.org/2000/svg" xmlns:xlink="http://www.w3.org/1999/xlink" xmlns:xml="http://www.w3.org/XML/1998/namespace" version="1.1">
  <g>
    <g>
      <path style="fill:#FF0000;fill-opacity:1" d="M16.875,11.513671875L16.875,19.98046875 18.896484375,18.3984375 19.62890625,15.76171875 18.896484375,13.0810546875 16.875,11.513671875z M14.1796875,11.513671875L12.158203125,13.0810546875 11.42578125,15.76171875 12.158203125,18.3984375 14.1796875,19.98046875 14.1796875,11.513671875z M14.1796875,5.91796875L14.7509765625,6.1083984375 15.52734375,6.181640625 16.3037109375,6.1083984375 16.875,5.91796875 16.875,8.96484375 19.599609375,10.166015625 20.33203125,8.4521484375 21.2548828125,7.1337890625 22.2216796875,6.298828125 23.0859375,6.005859375 26.77734375,6.1669921875 31.0546875,6.4453125 31.0546875,7.763671875 25.751953125,7.412109375 30.41015625,8.671875 29.912109375,9.873046875 25.01953125,8.3203125 28.974609375,10.576171875 27.978515625,11.455078125 24.140625,9.169921875 26.923828125,11.8359375 25.60546875,12.333984375 23.02734375,9.66796875 24.375,12.421875 23.02734375,12.421875 21.533203125,10.01953125 21.005859375,11.66015625 21.9140625,13.5498046875 22.236328125,15.76171875 21.8408203125,18.1787109375 20.7275390625,20.2001953125 19.0283203125,21.6943359375 16.875,22.529296875 16.875,44.4140625 16.4794921875,45.4248046875 15.52734375,45.76171875 14.5751953125,45.4248046875 14.1796875,44.4140625 14.1796875,22.529296875 12.0263671875,21.6943359375 10.3271484375,20.2001953125 9.2138671875,18.1787109375 8.818359375,15.76171875 9.140625,13.5498046875 10.048828125,11.66015625 9.521484375,10.01953125 8.02734375,12.421875 6.6796875,12.421875 8.02734375,9.66796875 5.44921875,12.333984375 4.130859375,11.8359375 6.9140625,9.169921875 3.07617163658142,11.455078125 2.080078125,10.576171875 6.03515625,8.3203125 1.14257788658142,9.873046875 0.644531011581421,8.671875 5.302734375,7.412109375 0,7.763671875 0,6.4453125 4.27734375,6.1669921875 7.96875,6.005859375 8.8330078125,6.298828125 9.7998046875,7.1337890625 10.72265625,8.4521484375 11.455078125,10.166015625 14.1796875,8.96484375 14.1796875,5.91796875z M15.52734375,0L16.607666015625,0.201416015625 17.5048828125,0.8056640625 18.109130859375,1.702880859375 18.310546875,2.783203125 18.109130859375,3.863525390625 17.5048828125,4.7607421875 16.607666015625,5.364990234375 15.52734375,5.56640625 14.443359375,5.364990234375 13.53515625,4.7607421875 12.9199209213257,3.863525390625 12.71484375,2.783203125 12.9199209213257,1.702880859375 13.53515625,0.8056640625 14.443359375,0.201416015625 15.52734375,0z" />
    </g>
  </g>
</svg>