<?xml version="1.0" encoding="utf-8"?>
<!DOCTYPE svg PUBLIC "-//W3C//DTD SVG 1.1//EN" "http://www.w3.org/Graphics/SVG/1.1/DTD/svg11.dtd">
<svg width="47.255859375" height="48.486328125" xmlns="http://www.w3.org/2000/svg" xmlns:xlink="http://www.w3.org/1999/xlink" xmlns:xml="http://www.w3.org/XML/1998/namespace" version="1.1">
  <g>
    <g>
      <path style="fill:#FF0000;fill-opacity:1" d="M42.216796875,24.609375L45.41015625,30.087890625 46.787109375,33.1640625 47.255859375,36.09375 46.787109375,38.701171875 45.380859375,40.7958984375 43.037109375,42.2021484375 39.7265625,42.71484375 23.90625,42.71484375 23.96484375,48.486328125 23.818359375,48.486328125 18.134765625,40.693359375 23.818359375,32.98828125 23.96484375,32.98828125 23.96484375,38.701171875 39.7265625,38.701171875 41.319580078125,38.514404296875 42.4072265625,37.9541015625 43.033447265625,37.086181640625 43.2421875,35.9765625 42.890625,34.0283203125 41.630859375,31.46484375 38.7890625,26.689453125 42.216796875,24.609375z M23.701171875,14.970703125L25.9716796875,15.3076171875 27.5537109375,16.2451171875 28.4912109375,17.6513671875 28.798828125,19.39453125 28.5607891082764,21.163330078125 27.8466796875,22.6611328125 25.400390625,24.84375 23.466796875,26.103515625 22.734375,27.509765625 28.65234375,27.509765625 28.65234375,30.498046875 18.544921875,30.498046875 18.544921875,29.70703125 18.75,27.7001953125 19.4384765625,25.9716796875 20.6982421875,24.4482421875 22.587890625,23.056640625 23.7158203125,22.3388671875 24.5361328125,21.6357421875 25.0341796875,20.8447265625 25.1953125,19.833984375 25.1220703125,19.2041015625 24.8291015625,18.57421875 24.19921875,18.10546875 23.0859375,17.9296875 20.9912109375,18.427734375 19.248046875,19.453125 19.248046875,16.376953125 21.298828125,15.3076171875 23.701171875,14.970703125z M13.88671875,13.916015625L17.63671875,22.646484375 17.578125,22.734375 12.744140625,19.86328125 4.86328125,33.45703125 4.26269626617432,34.7314453125 4.072265625,35.771484375 4.324951171875,37.12646484375 5.0830078125,38.02734375 6.397705078125,38.53271484375 8.3203125,38.701171875 15.76171875,38.701171875 15.76171875,42.71484375 8.3203125,42.71484375 5.009765625,42.3193359375 2.37304759025574,41.1181640625 0.6298828125,39.052734375 0,36.03515625 0.336914539337158,33.8525390625 1.43554663658142,31.40625 9.287109375,17.783203125 4.18945407867432,14.970703125 4.27734375,14.794921875 13.88671875,13.916015625z M23.96484375,0L25.986328125,0.3076171875 27.685546875,1.23046875 29.1796875,2.783203125 30.64453125,4.98046875 38.291015625,17.900390625 43.30078125,14.8828125 43.388671875,15.029296875 39.521484375,23.90625 30.1171875,22.998046875 30.05859375,22.8515625 34.892578125,19.98046875 27.216796875,7.03125 26.3891582489014,5.760498046875 25.6640625,4.8779296875 23.935546875,4.189453125 22.08984375,4.86328125 21.3061504364014,5.7275390625 20.478515625,6.97265625 16.728515625,13.30078125 13.330078125,11.220703125 17.080078125,4.951171875 18.5595703125,2.75390625 20.068359375,1.201171875 21.796875,0.29296875 23.96484375,0z" />
    </g>
  </g>
</svg>