<?xml version="1.0" encoding="utf-8"?>
<!DOCTYPE svg PUBLIC "-//W3C//DTD SVG 1.1//EN" "http://www.w3.org/Graphics/SVG/1.1/DTD/svg11.dtd">
<svg width="48.69140625" height="61.787109375" xmlns="http://www.w3.org/2000/svg" xmlns:xlink="http://www.w3.org/1999/xlink" xmlns:xml="http://www.w3.org/XML/1998/namespace" version="1.1">
  <g>
    <g>
      <path style="fill:#FF0000;fill-opacity:1" d="M11.015625,26.162109375L8.9208984375,27.4658203125 7.2802734375,29.326171875 6.2255859375,31.640625 5.859375,34.306640625 6.533203125,37.8662109375 8.3935546875,40.6787109375 11.1767578125,42.5390625 14.619140625,43.212890625 17.2998046875,42.8173828125 19.6435546875,41.7041015625 21.5185546875,39.9755859375 22.822265625,37.734375 18.603515625,36.328125 15.1025390625,33.779296875 12.509765625,30.322265625 11.015625,26.162109375z M15.791015625,24.609375L16.669921875,27.8759765625 18.5009765625,30.52734375 21.09375,32.3876953125 24.2578125,33.28125 23.37890625,30.029296875 21.5478515625,27.392578125 18.955078125,25.5322265625 15.791015625,24.609375z M25.400390625,14.6484375L22.763671875,15.0439453125 20.4345703125,16.171875 18.544921875,17.9150390625 17.255859375,20.15625 21.4453125,21.591796875 24.9462890625,24.1259765625 27.5390625,27.568359375 29.033203125,31.69921875 31.142578125,30.3662109375 32.783203125,28.5205078125 33.837890625,26.220703125 34.21875,23.5546875 33.5302734375,19.9951171875 31.640625,17.1826171875 28.8427734375,15.322265625 25.400390625,14.6484375z M31.81640625,0L47.783203125,0.263671875 48.3984375,0.87890625 48.69140625,16.845703125 43.857421875,12.01171875 43.88671875,8.73046875 37.353515625,15.263671875 39.345703125,19.1455078125 40.078125,23.5546875 39.862060546875,26.011962890625 39.2138671875,28.3447265625 36.85546875,32.4609375 33.310546875,35.6103515625 28.88671875,37.5 27.36328125,41.3818359375 24.8291015625,44.6044921875 21.4892578125,47.0068359375 17.51953125,48.427734375 17.51953125,50.9765625 24.052734375,50.9765625 24.052734375,56.66015625 17.51953125,56.66015625 17.51953125,61.787109375 11.865234375,61.787109375 11.865234375,56.66015625 5.302734375,56.66015625 5.302734375,50.9765625 11.865234375,50.9765625 11.865234375,48.45703125 9.43359375,47.786865234375 7.177734375,46.7138671875 3.41308617591858,43.564453125 0.908202886581421,39.31640625 0.227050885558128,36.87744140625 0,34.306640625 0.216064617037773,31.86767578125 0.864258050918579,29.53125 3.22265696525574,25.400390625 6.7529296875,22.236328125 11.162109375,20.33203125 13.0810546875,15.87890625 16.2890625,12.333984375 20.4931640625,9.990234375 22.8845195770264,9.35302734375 25.400390625,9.140625 29.501953125,9.7412109375 33.251953125,11.396484375 39.84375,4.8046875 38.203125,4.833984375 36.650390625,4.833984375 31.81640625,0z" />
    </g>
  </g>
</svg>