<?xml version="1.0" encoding="utf-8"?>
<!DOCTYPE svg PUBLIC "-//W3C//DTD SVG 1.1//EN" "http://www.w3.org/Graphics/SVG/1.1/DTD/svg11.dtd">
<svg width="64.072265625" height="64.1015625" xmlns="http://www.w3.org/2000/svg" xmlns:xlink="http://www.w3.org/1999/xlink" xmlns:xml="http://www.w3.org/XML/1998/namespace" version="1.1">
  <g>
    <g>
      <path style="fill:#FF0000;fill-opacity:1" d="M32.05078125,25.72265625L34.51171875,26.220703125 36.50390625,27.5830078125 37.8515625,29.58984375 38.349609375,32.05078125 37.8515625,34.51171875 36.50390625,36.5185546875 34.51171875,37.880859375 32.05078125,38.37890625 29.58984375,37.880859375 27.5830078125,36.5185546875 26.220703125,34.51171875 25.72265625,32.05078125 26.220703125,29.58984375 27.5830078125,27.5830078125 29.58984375,26.220703125 32.05078125,25.72265625z M32.05078125,17.314453125L29.095458984375,17.603759765625 26.3232421875,18.4716796875 23.81103515625,19.84130859375 21.6357421875,21.6357421875 19.8376445770264,23.8110370635986 18.45703125,26.3232421875 17.5781230926514,29.0954608917236 17.28515625,32.05078125 17.5744609832764,35.009765625 18.4423828125,37.79296875 19.8120098114014,40.3125 21.6064453125,42.48046875 23.785400390625,44.263916015625 26.30859375,45.6298828125 29.091796875,46.497802734375 32.05078125,46.787109375 35.006103515625,46.497802734375 37.7783203125,45.6298828125 40.29052734375,44.26025390625 42.4658203125,42.4658203125 44.2602500915527,40.29052734375 45.6298828125,37.7783203125 46.4977989196777,35.006103515625 46.787109375,32.05078125 46.4977989196777,29.0954608917236 45.6298828125,26.3232421875 44.2602500915527,23.8110370635986 42.4658203125,21.6357421875 40.29052734375,19.84130859375 37.7783203125,18.4716796875 35.006103515625,17.603759765625 32.05078125,17.314453125z M32.05078125,15.205078125L35.41259765625,15.538330078125 38.583984375,16.5380859375 41.4623985290527,18.109130859375 43.9453125,20.15625 45.9924278259277,22.6391620635986 47.5634765625,25.517578125 48.5632286071777,28.6889667510986 48.896484375,32.05078125 48.5632286071777,35.430908203125 47.5634765625,38.5986328125 45.9924278259277,41.466064453125 43.9453125,43.9453125 41.4623985290527,45.992431640625 38.583984375,47.5634765625 35.41259765625,48.563232421875 32.05078125,48.896484375 28.6669921875,48.56689453125 25.48828125,47.578125 22.6098613739014,46.01806640625 20.126953125,43.974609375 18.0834941864014,41.49169921875 16.5234375,38.61328125 15.53466796875,35.4345703125 15.205078125,32.05078125 15.53466796875,28.6669940948486 16.5234375,25.48828125 18.0834941864014,22.6098651885986 20.126953125,20.126953125 22.6098613739014,18.08349609375 25.48828125,16.5234375 28.6669921875,15.53466796875 32.05078125,15.205078125z M25.72265625,4.6875L17.28515625,6.796875 17.28515625,13.095703125 13.095703125,17.314453125 6.76757764816284,17.314453125 4.65820264816284,25.72265625 8.876953125,29.94140625 8.876953125,34.16015625 4.65820264816284,38.37890625 6.76757764816284,46.787109375 13.095703125,46.787109375 17.28515625,51.005859375 17.28515625,57.333984375 25.72265625,59.4140625 29.94140625,55.224609375 34.130859375,55.224609375 38.349609375,59.4140625 46.787109375,57.333984375 46.787109375,51.005859375 50.9765625,46.787109375 57.3046875,46.787109375 59.4140625,38.37890625 55.1953125,34.16015625 55.1953125,29.94140625 59.4140625,25.72265625 57.3046875,17.314453125 50.9765625,17.314453125 46.787109375,13.095703125 46.787109375,6.796875 38.349609375,4.6875 34.130859375,8.876953125 29.94140625,8.876953125 25.72265625,4.6875z M27.01171875,0L31.669921875,4.6875 32.40234375,4.6875 37.060546875,0 50.9765625,3.486328125 50.9765625,11.3671875 52.734375,13.095703125 60.5859375,13.095703125 64.072265625,27.041015625 59.4140625,31.69921875 59.4140625,32.40234375 64.072265625,37.08984375 60.5859375,51.005859375 52.734375,51.005859375 50.9765625,52.734375 50.9765625,60.615234375 37.060546875,64.1015625 32.40234375,59.4140625 31.669921875,59.4140625 27.01171875,64.1015625 13.095703125,60.615234375 13.095703125,52.734375 11.337890625,51.005859375 3.48632764816284,51.005859375 0,37.08984375 4.65820264816284,32.40234375 4.65820264816284,31.69921875 0,27.041015625 3.48632764816284,13.095703125 11.337890625,13.095703125 13.095703125,11.3671875 13.095703125,3.486328125 27.01171875,0z" />
    </g>
  </g>
</svg>