<?xml version="1.0" encoding="utf-8"?>
<!DOCTYPE svg PUBLIC "-//W3C//DTD SVG 1.1//EN" "http://www.w3.org/Graphics/SVG/1.1/DTD/svg11.dtd">
<svg width="58.9453125" height="58.9453125" xmlns="http://www.w3.org/2000/svg" xmlns:xlink="http://www.w3.org/1999/xlink" xmlns:xml="http://www.w3.org/XML/1998/namespace" version="1.1">
  <g>
    <g>
      <path style="fill:#FF0000;fill-opacity:1" d="M29.47265625,0L32.427978515625,0.289309501647949 35.2001953125,1.15722644329071 37.7123985290527,2.52685832977295 39.8876953125,4.3212890625 41.6821250915527,6.49658203125 43.0517578125,9.0087890625 43.9196739196777,11.781005859375 44.208984375,14.736328125 43.8427696228027,18.017578125 42.744140625,21.123046875 44.296875,21.03515625 47.2265586853027,21.3317890167236 49.98046875,22.2216796875 52.47802734375,23.6169452667236 54.638671875,25.4296875 56.422119140625,27.615966796875 57.7880859375,30.1318359375 58.656005859375,32.889404296875 58.9453125,35.80078125 58.656005859375,38.756103515625 57.7880859375,41.5283203125 56.41845703125,44.04052734375 54.6240234375,46.2158203125 52.44873046875,48.01025390625 49.9365234375,49.3798828125 47.1643028259277,50.247802734375 44.208984375,50.537109375 40.4296875,50.0390625 36.943359375,48.6181640625 33.9404296875,46.376953125 31.58203125,43.388671875 31.5673828125,44.8974609375 31.552734375,46.40625 31.69921875,49.4970703125 32.314453125,52.1923828125 33.603515625,54.609375 35.80078125,56.8359375 35.80078125,58.9453125 23.14453125,58.9453125 23.14453125,56.8359375 25.3271484375,54.609375 26.630859375,52.265625 27.24609375,49.62890625 27.392578125,46.552734375 27.3779296875,44.970703125 27.36328125,43.388671875 25.0048828125,46.376953125 22.001953125,48.6181640625 18.515625,50.0390625 14.736328125,50.537109375 11.77734375,50.247802734375 8.994140625,49.3798828125 6.474609375,48.013916015625 4.306640625,46.23046875 2.52319264411926,44.0625 1.1572265625,41.54296875 0.289306640625,38.759765625 0,35.80078125 0.289306640625,32.845458984375 1.1572265625,30.0732421875 2.52685475349426,27.56103515625 4.3212890625,25.3857421875 6.49658203125,23.5913105010986 9.0087890625,22.2216796875 11.781005859375,21.3537616729736 14.736328125,21.064453125 15.64453125,21.064453125 15.908203125,21.064453125 16.171875,21.123046875 15.087890625,18.017578125 14.736328125,14.736328125 15.0256328582764,11.781005859375 15.8935546875,9.0087890625 17.2631816864014,6.49658203125 19.0576171875,4.3212890625 21.23291015625,2.52685832977295 23.7451171875,1.15722644329071 26.517333984375,0.289309501647949 29.47265625,0z" />
    </g>
  </g>
</svg>