<?xml version="1.0" encoding="utf-8"?>
<!DOCTYPE svg PUBLIC "-//W3C//DTD SVG 1.1//EN" "http://www.w3.org/Graphics/SVG/1.1/DTD/svg11.dtd">
<svg width="47.9882812500021" height="44.6484375" xmlns="http://www.w3.org/2000/svg" xmlns:xlink="http://www.w3.org/1999/xlink" xmlns:xml="http://www.w3.org/XML/1998/namespace" version="1.1">
  <g>
    <g>
      <path style="fill:#FF0000;fill-opacity:1" d="M23.935546875,39.9609375L20.0244140625,40.0341796875 15.7763671875,40.2392578125 11.7041015625,40.576171875 8.349609375,41.044921875 11.89453125,41.30859375 16.0986328125,41.4990234375 20.33203125,41.6015625 23.994140625,41.630859375 27.568359375,41.6015625 31.669921875,41.4990234375 35.80078125,41.337890625 39.462890625,41.103515625 36.1962890625,40.6640625 32.1533203125,40.2978515625 27.8759765625,40.048828125 23.935546875,39.9609375z M23.935546875,35.09765625L20.0244140625,35.1708984375 15.7763671875,35.3759765625 11.7041015625,35.712890625 8.349609375,36.181640625 11.89453125,36.4453125 16.0986328125,36.6357421875 20.33203125,36.73828125 23.994140625,36.767578125 27.568359375,36.73828125 31.669921875,36.6357421875 35.80078125,36.474609375 39.462890625,36.240234375 36.1962890625,35.80078125 32.1533203125,35.4345703125 27.8759765625,35.185546875 23.935546875,35.09765625z M23.935546875,30.439453125L20.0244140625,30.5126953125 15.7763671875,30.7177734375 11.7041015625,31.0546875 8.349609375,31.5234375 11.89453125,31.787109375 16.0986328125,31.9775390625 20.33203125,32.080078125 23.994140625,32.109375 27.568359375,32.080078125 31.669921875,31.9775390625 35.80078125,31.81640625 39.462890625,31.58203125 36.1962890625,31.142578125 32.1533203125,30.7763671875 27.8759765625,30.52734375 23.935546875,30.439453125z M41.3671875,18.193359375L35.7421875,27.509765625 36.7236328125,27.5390625 37.880859375,27.568359375 41.3671875,18.193359375z M6.62109375,18.193359375L8.349609375,27.65625 9.140625,27.6123046875 10.224609375,27.568359375 6.62109375,18.193359375z M14.443359375,14.00390625L13.212890625,27.421875 14.6044921875,27.3486328125 16.083984375,27.3046875 14.443359375,14.00390625z M33.45703125,13.974609375L29.033203125,27.216796875 29.736328125,27.2314453125 30.556640625,27.2607421875 31.3330078125,27.2900390625 31.93359375,27.3046875 33.45703125,13.974609375z M23.994140625,10.37109375L20.21484375,27.216796875 22.1484375,27.1728515625 23.994140625,27.158203125 23.994140625,10.37109375z M43.916015625,7.587890625L42.7734375,8.056640625 42.3046875,9.19921875 42.7734375,10.341796875 43.916015625,10.810546875 45.05859375,10.341796875 45.52734375,9.19921875 45.05859375,8.056640625 43.916015625,7.587890625z M3.33984375,7.587890625L2.197265625,8.056640625 1.728515625,9.19921875 2.197265625,10.341796875 3.33984375,10.810546875 4.482421875,10.341796875 4.951171875,9.19921875 4.482421875,8.056640625 3.33984375,7.587890625z M34.04296875,3.427734375L32.900390625,3.896484375 32.431640625,5.0390625 32.900390625,6.181640625 34.04296875,6.650390625 35.185546875,6.181640625 35.654296875,5.0390625 35.185546875,3.896484375 34.04296875,3.427734375z M13.154296875,3.427734375L12.01171875,3.896484375 11.54296875,5.0390625 12.01171875,6.181640625 13.154296875,6.650390625 14.296875,6.181640625 14.765625,5.0390625 14.296875,3.896484375 13.154296875,3.427734375z M23.642578125,1.494140625L22.5,1.962890625 22.03125,3.10546875 22.5,4.248046875 23.642578125,4.716796875 24.78515625,4.248046875 25.25390625,3.10546875 24.78515625,1.962890625 23.642578125,1.494140625z M23.935546875,0L25.283203125,0.234375 26.484375,0.9228515625 27.3486328125,2.080078125 27.685546875,3.69140625 26.953125,6.005859375 25.1953125,7.177734375 28.53515625,21.943359375 33.1640625,9.052734375 31.376953125,7.7783203125 30.703125,5.625 31.0400390625,4.013671875 31.9189453125,2.841796875 33.1201171875,2.138671875 34.453125,1.904296875 35.80078125,2.138671875 37.001953125,2.841796875 37.8515625,4.013671875 38.173828125,5.625 37.9541015625,6.884765625 37.32421875,7.9833984375 36.328125,8.8037109375 35.009765625,9.228515625 36.240234375,22.5 42.421875,13.037109375 41.07421875,11.7041015625 40.576171875,9.78515625 40.9130859375,8.1884765625 41.77734375,7.03125 42.978515625,6.328125 44.326171875,6.09375 45.6591796875,6.328125 46.8310546875,7.03125 47.666015625,8.1884765625 47.98828125,9.78515625 47.7392578125,11.1474609375 47.021484375,12.3193359375 45.87890625,13.125 44.35546875,13.41796875 43.857421875,13.41796875 41.42578125,29.4140625 41.42578125,43.505859375 32.6513671875,44.3701171875 23.935546875,44.6484375 15.17578125,44.3701171875 6.50390625,43.505859375 6.50390625,29.4140625 4.130859375,13.41796875 3.6328125,13.41796875 2.109375,13.125 0.966796875,12.3193359375 0.2490234375,11.1474609375 0,9.78515625 0.322265625,8.1884765625 1.1572265625,7.03125 2.3291015625,6.328125 3.662109375,6.09375 5.009765625,6.328125 6.2109375,7.03125 7.0751953125,8.1884765625 7.412109375,9.78515625 6.9140625,11.7041015625 5.56640625,13.037109375 11.748046875,22.5 12.978515625,9.228515625 11.66015625,8.8037109375 10.6640625,7.9833984375 10.0341796875,6.884765625 9.814453125,5.625 10.13671875,4.013671875 10.986328125,2.841796875 12.1875,2.138671875 13.53515625,1.904296875 14.853515625,2.138671875 16.0693359375,2.841796875 16.9482421875,4.013671875 17.28515625,5.625 16.611328125,7.7783203125 14.82421875,9.052734375 19.453125,21.943359375 22.79296875,7.177734375 21.03515625,6.005859375 20.302734375,3.69140625 20.625,2.0947265625 21.4599609375,0.9375 22.6171875,0.234375 23.935546875,0z" />
    </g>
  </g>
</svg>