<?xml version="1.0" encoding="utf-8"?>
<!DOCTYPE svg PUBLIC "-//W3C//DTD SVG 1.1//EN" "http://www.w3.org/Graphics/SVG/1.1/DTD/svg11.dtd">
<svg width="36.9140625" height="55.8984375" xmlns="http://www.w3.org/2000/svg" xmlns:xlink="http://www.w3.org/1999/xlink" xmlns:xml="http://www.w3.org/XML/1998/namespace" version="1.1">
  <g>
    <g>
      <path style="fill:#FF0000;fill-opacity:1" d="M21.416015625,43.359375L21.298828125,43.4765625 23.701171875,45.1025390625 26.54296875,46.0400390625 29.5751953125,46.4794921875 32.51953125,46.58203125 33.3984375,46.58203125 34.248046875,46.552734375 32.6953125,45.1171875 30.205078125,44.8974609375 27.041015625,44.677734375 23.876953125,44.23828125 21.416015625,43.359375z M15.498046875,43.359375L13.037109375,44.23828125 9.873046875,44.677734375 6.708984375,44.8974609375 4.21875,45.1171875 2.666015625,46.552734375 3.515625,46.58203125 4.39453125,46.58203125 7.3388671875,46.4794921875 10.37109375,46.0400390625 13.212890625,45.1025390625 15.615234375,43.4765625 15.498046875,43.359375z M14.70703125,32.958984375L13.18359375,33.2373046875 11.8359375,33.6328125 10.634765625,38.5546875 12.3046875,38.291015625 14.0625,38.115234375 14.70703125,32.958984375z M8.73046875,16.435546875L8.1298828125,18.7060546875 7.939453125,21.064453125 8.214111328125,23.9135761260986 9.0380859375,26.54296875 10.330810546875,28.90869140625 12.01171875,30.966796875 14.912109375,30.439453125 12.3193359375,28.062744140625 10.400390625,25.2099609375 9.2138671875,21.7785663604736 8.818359375,17.666015625 8.818359375,17.0947265625 8.876953125,16.435546875 8.73046875,16.435546875z M17.4609375,10.078125L17.4609375,15.17578125 12.65625,15.17578125 12.65625,17.080078125 17.4609375,17.080078125 17.4609375,28.359375 19.453125,28.359375 19.453125,17.080078125 24.2578125,17.080078125 24.2578125,15.17578125 19.453125,15.17578125 19.453125,10.078125 17.4609375,10.078125z M17.109375,1.43554711341858L15.791015625,2.66601586341858 15.29296875,4.39453125 15.439453125,5.302734375 15.908203125,6.12304639816284 17.314453125,5.24414110183716 16.8310546875,4.26269483566284 16.669921875,3.10546875 17.109375,1.43554711341858z M18.45703125,0L20.2880859375,0.351562261581421 21.73828125,1.31835913658142 22.705078125,2.7685546875 23.056640625,4.5703125 22.3828125,6.826171875 25.8837890625,9.66796875 28.7109375,12.890625 30.6005859375,16.6552734375 31.2890625,21.09375 30.8935546875,24.6240234375 29.8828125,27.6123046875 28.4912109375,30.0732421875 26.953125,32.05078125 29.12109375,39.84375 25.751953125,41.30859375 21.5625,42.099609375 24.2138671875,42.861328125 27.158203125,43.212890625 30.2490234375,43.41796875 33.310546875,43.681640625 36.9140625,47.080078125 36.298828125,49.9951171875 34.892578125,52.5 32.8271484375,54.5068359375 30.234375,55.8984375 26.30859375,51.708984375 27.4951171875,51.15234375 28.76953125,50.390625 29.8681640625,49.365234375 30.52734375,48.017578125 26.748046875,47.607421875 23.642578125,46.6845703125 20.9765625,45 18.515625,42.24609375 18.3984375,42.24609375 15.9375,45 13.271484375,46.6845703125 10.166015625,47.607421875 6.38671875,48.017578125 7.0458984375,49.365234375 8.14453125,50.390625 9.4189453125,51.15234375 10.60546875,51.708984375 6.6796875,55.8984375 4.0869140625,54.5068359375 2.021484375,52.5 0.615234375,49.9951171875 0,47.080078125 3.603515625,43.681640625 6.6650390625,43.41796875 9.755859375,43.212890625 12.7001953125,42.861328125 15.3515625,42.099609375 11.162109375,41.30859375 7.79296875,39.84375 9.9609375,32.05078125 8.4228515625,30.0732421875 7.03125,27.6123046875 6.0205078125,24.6240234375 5.625,21.09375 6.3134765625,16.6552734375 8.203125,12.890625 11.0302734375,9.66796875 14.53125,6.826171875 13.857421875,4.5703125 14.208984375,2.7685546875 15.17578125,1.31835913658142 16.6259765625,0.351562261581421 18.45703125,0z" />
    </g>
  </g>
</svg>