<?xml version="1.0" encoding="utf-8"?>
<!DOCTYPE svg PUBLIC "-//W3C//DTD SVG 1.1//EN" "http://www.w3.org/Graphics/SVG/1.1/DTD/svg11.dtd">
<svg width="67.3828125" height="67.3828125" xmlns="http://www.w3.org/2000/svg" xmlns:xlink="http://www.w3.org/1999/xlink" xmlns:xml="http://www.w3.org/XML/1998/namespace" version="1.1">
  <g>
    <g>
      <path style="fill:#FF0000;fill-opacity:1" d="M23.173828125,37.91015625L21.5185546875,38.2470703125 20.1708984375,39.1552734375 19.27734375,40.48828125 18.955078125,42.12890625 19.2919921875,43.76953125 20.2001953125,45.1025390625 21.533203125,45.99609375 23.173828125,46.318359375 24.814453125,45.99609375 26.1474609375,45.1025390625 27.041015625,43.76953125 27.36328125,42.12890625 27.041015625,40.48828125 26.1474609375,39.1552734375 24.814453125,38.2470703125 23.173828125,37.91015625z M33.69140625,12.626953125L36.221923828125,12.8759765625 38.5986328125,13.623046875 42.6123046875,16.34765625 45.322265625,20.3759765625 46.0693321228027,22.752685546875 46.318359375,25.283203125 46.11328125,28.5205078125 45.46875,31.4501953125 44.35546875,34.2333984375 42.7734375,37.03125 41.513671875,39.2578125 40.6640625,41.455078125 40.1806640625,43.76953125 40.01953125,46.318359375 40.341796875,47.958984375 41.2353515625,49.2919921875 42.568359375,50.2001953125 44.208984375,50.537109375 45.849609375,50.21484375 47.1826171875,49.3212890625 48.0908203125,47.9736328125 48.427734375,46.318359375 52.646484375,46.318359375 51.9873046875,49.6142578125 50.185546875,52.294921875 47.5048828125,54.0966796875 44.208984375,54.755859375 40.95703125,54.08203125 38.291015625,52.2509765625 36.474609375,49.5703125 35.80078125,46.318359375 36.005859375,43.0810546875 36.650390625,40.166015625 37.7490234375,37.3974609375 39.345703125,34.5703125 40.576171875,32.3583984375 41.4404296875,30.1318359375 41.9384765625,27.802734375 42.099609375,25.283203125 41.42578125,22.0458984375 39.609375,19.3505859375 36.9287109375,17.51953125 33.69140625,16.845703125 30.3955078125,17.5048828125 27.71484375,19.306640625 25.9130859375,21.9873046875 25.25390625,25.283203125 25.72265625,28.388671875 26.89453125,30.8349609375 28.41796875,33.046875 29.94140625,35.4052734375 31.11328125,38.3056640625 31.58203125,42.12890625 30.9228515625,45.3955078125 29.12109375,48.076171875 26.4404296875,49.8779296875 23.173828125,50.537109375 19.921875,49.86328125 17.2412109375,48.046875 15.41015625,45.380859375 14.736328125,42.12890625 15.3955078125,38.8330078125 17.197265625,36.15234375 19.8779296875,34.3505859375 23.173828125,33.69140625 23.408203125,33.69140625 23.642578125,33.720703125 21.6943359375,29.70703125 21.064453125,25.283203125 21.3134746551514,22.752685546875 22.060546875,20.3759765625 24.7705078125,16.34765625 28.7841796875,13.623046875 31.160888671875,12.8759765625 33.69140625,12.626953125z M4.21875,4.21874952316284L4.21875,63.1640625 63.1640625,63.1640625 63.1640625,4.21874952316284 4.21875,4.21874952316284z M0,0L67.3828125,0 67.3828125,67.3828125 0,67.3828125 0,0z" />
    </g>
  </g>
</svg>