<?xml version="1.0" encoding="utf-8"?>
<!DOCTYPE svg PUBLIC "-//W3C//DTD SVG 1.1//EN" "http://www.w3.org/Graphics/SVG/1.1/DTD/svg11.dtd">
<svg width="66.6796875" height="67.3828125" xmlns="http://www.w3.org/2000/svg" xmlns:xlink="http://www.w3.org/1999/xlink" xmlns:xml="http://www.w3.org/XML/1998/namespace" version="1.1">
  <g>
    <g>
      <path style="fill:#FF0000;fill-opacity:1" d="M33.33984375,8.4375L34.98046875,8.759765625 36.3134765625,9.6533203125 37.2216796875,10.986328125 37.55859375,12.626953125 37.2216796875,14.2675790786743 36.3134765625,15.6005859375 34.98046875,16.5087890625 33.33984375,16.845703125 31.69921875,16.5087890625 30.3662109375,15.6005859375 29.4580078125,14.2675790786743 29.12109375,12.626953125 29.4580078125,10.986328125 30.3662109375,9.6533203125 31.69921875,8.759765625 33.33984375,8.4375z M33.33984375,4.21874952316284L30.087890625,4.892578125 27.4072265625,6.70898485183716 25.576171875,9.3896484375 24.90234375,12.626953125 25.37109375,15.380859375 26.6748046875,17.783203125 28.6669921875,19.658203125 31.23046875,20.80078125 31.23046875,25.283203125 22.822265625,25.283203125 22.822265625,29.47265625 31.23046875,29.47265625 31.23046875,58.828125 28.20556640625,58.172607421875 25.400390625,56.9677734375 22.8845195770264,55.2978515625 20.7275390625,53.2470703125 18.9624004364014,50.85205078125 17.6220703125,48.1494140625 16.7761211395264,45.216064453125 16.494140625,42.12890625 16.494140625,40.869140625 19.833984375,44.208984375 22.822265625,41.25 14.384765625,32.8125 5.9765625,41.25 8.935546875,44.208984375 12.275390625,40.869140625 12.275390625,42.12890625 12.689208984375,46.358642578125 13.9306640625,50.3173828125 15.889892578125,53.89892578125 18.45703125,56.9970703125 21.5661602020264,59.55322265625 25.1513671875,61.5087890625 29.110107421875,62.750244140625 33.33984375,63.1640625 38.935546875,62.4169921875 43.9599609375,60.29296875 48.22265625,56.9970703125 51.5185546875,52.734375 53.642578125,47.7099609375 54.2138633728027,44.974365234375 54.404296875,42.12890625 54.404296875,40.869140625 57.744140625,44.208984375 60.703125,41.25 52.294921875,32.8125 43.857421875,41.25 46.845703125,44.208984375 50.185546875,40.869140625 50.185546875,42.12890625 49.9035606384277,45.216064453125 49.0576171875,48.1494140625 47.7172813415527,50.85205078125 45.9521484375,53.2470703125 43.7951622009277,55.2978515625 41.279296875,56.9677734375 38.47412109375,58.172607421875 35.44921875,58.828125 35.44921875,29.47265625 43.857421875,29.47265625 43.857421875,25.283203125 35.44921875,25.283203125 35.44921875,20.80078125 38.0126953125,19.6728515625 40.0048828125,17.8125 41.2939453125,15.3955078125 41.748046875,12.626953125 41.0888671875,9.3603515625 39.287109375,6.6796875 36.6064453125,4.8779296875 33.33984375,4.21874952316284z M33.33984375,0L35.870361328125,0.249026298522949 38.2470703125,0.99609375 42.2607421875,3.70605516433716 44.970703125,7.71972703933716 45.7177696228027,10.096435546875 45.966796875,12.626953125 45.7617149353027,14.945068359375 45.146484375,17.1533203125 44.1357383728027,19.207763671875 42.744140625,21.064453125 48.076171875,21.064453125 48.076171875,31.083984375 52.294921875,26.865234375 66.6796875,41.25 57.744140625,50.185546875 57.392578125,49.833984375 55.8544921875,53.583984375 53.759765625,56.982421875 51.1889610290527,59.97802734375 48.22265625,62.51953125 44.8974571228027,64.573974609375 41.25,66.1083984375 37.3681640625,67.064208984375 33.33984375,67.3828125 29.3115234375,67.064208984375 25.4296875,66.1083984375 21.7822246551514,64.573974609375 18.45703125,62.51953125 15.49072265625,59.97802734375 12.919921875,56.982421875 10.8251953125,53.583984375 9.287109375,49.833984375 8.935546875,50.185546875 0,41.25 14.384765625,26.865234375 18.603515625,31.083984375 18.603515625,21.064453125 23.935546875,21.064453125 22.5439434051514,19.207763671875 21.533203125,17.1533203125 20.9179668426514,14.945068359375 20.712890625,12.626953125 20.9619121551514,10.096435546875 21.708984375,7.71972703933716 24.4189453125,3.70605516433716 28.4326171875,0.99609375 30.809326171875,0.249026298522949 33.33984375,0z" />
    </g>
  </g>
</svg>