<?xml version="1.0" encoding="utf-8"?>
<!DOCTYPE svg PUBLIC "-//W3C//DTD SVG 1.1//EN" "http://www.w3.org/Graphics/SVG/1.1/DTD/svg11.dtd">
<svg width="67.3828125" height="67.3828125" xmlns="http://www.w3.org/2000/svg" xmlns:xlink="http://www.w3.org/1999/xlink" xmlns:xml="http://www.w3.org/XML/1998/namespace" version="1.1">
  <g>
    <g>
      <path style="fill:#FF0000;fill-opacity:1" d="M10.517578125,16.845703125L12.308349609375,17.0361328125 13.9892578125,17.607421875 16.845703125,19.74609375 19.7021484375,17.607421875 21.3830547332764,17.0361328125 23.173828125,16.845703125 24.9609375,17.0361328125 26.630859375,17.607421875 29.47265625,19.74609375 32.3291015625,17.607421875 34.010009765625,17.0361328125 35.80078125,16.845703125 39.0380859375,17.51953125 41.71875,19.3505859375 43.53515625,22.0458984375 44.208984375,25.283203125 44.208984375,42.12890625 44.5458984375,43.76953125 45.4541015625,45.1025390625 46.787109375,45.99609375 48.427734375,46.318359375 51.767578125,46.318359375 47.98828125,42.5390625 50.9765625,39.580078125 59.82421875,48.427734375 50.9765625,57.3046875 47.98828125,54.31640625 51.767578125,50.537109375 48.427734375,50.537109375 45.1611328125,49.8779296875 42.48046875,48.076171875 40.6787109375,45.3955078125 40.01953125,42.12890625 40.01953125,25.283203125 39.6826171875,23.642578125 38.7744140625,22.3095703125 37.44140625,21.4013671875 35.80078125,21.064453125 34.16015625,21.4013671875 32.8271484375,22.3095703125 31.9189453125,23.642578125 31.58203125,25.283203125 31.58203125,46.318359375 27.36328125,46.318359375 27.36328125,25.283203125 27.041015625,23.642578125 26.1474609375,22.3095703125 24.814453125,21.4013671875 23.173828125,21.064453125 21.5185546875,21.4013671875 20.1708984375,22.3095703125 19.27734375,23.642578125 18.955078125,25.283203125 18.955078125,46.318359375 14.736328125,46.318359375 14.736328125,25.283203125 14.3994140625,23.642578125 13.4912109375,22.3095703125 12.158203125,21.4013671875 10.517578125,21.064453125 10.517578125,16.845703125z M4.21875,4.21874952316284L4.21875,63.1640625 63.1640625,63.1640625 63.1640625,4.21874952316284 4.21875,4.21874952316284z M0,0L67.3828125,0 67.3828125,67.3828125 0,67.3828125 0,0z" />
    </g>
  </g>
</svg>