<?xml version="1.0" encoding="utf-8"?>
<!DOCTYPE svg PUBLIC "-//W3C//DTD SVG 1.1//EN" "http://www.w3.org/Graphics/SVG/1.1/DTD/svg11.dtd">
<svg width="34.62890625" height="48.486328125" xmlns="http://www.w3.org/2000/svg" xmlns:xlink="http://www.w3.org/1999/xlink" xmlns:xml="http://www.w3.org/XML/1998/namespace" version="1.1">
  <g>
    <g>
      <path style="fill:#FF0000;fill-opacity:1" d="M10.78125,0L34.62890625,5.7421875 34.62890625,39.287109375 34.0576171875,42.802734375 32.4609375,45.732421875 30,47.7392578125 26.8359375,48.486328125 24.2724590301514,48.10546875 22.3828125,46.962890625 21.2182598114014,45.1611328125 20.830078125,42.802734375 21.50390625,39.7412109375 23.3349609375,37.2802734375 26.015625,35.6396484375 29.23828125,35.0390625 31.611328125,35.361328125 31.611328125,9.521484375 13.798828125,5.244140625 13.798828125,33.544921875 13.2275390625,37.060546875 11.630859375,39.990234375 9.169921875,41.9970703125 6.005859375,42.744140625 3.4423828125,42.36328125 1.55273485183716,41.220703125 0.388183653354645,39.4189453125 0,37.060546875 0.673828125,33.9990234375 2.50488233566284,31.5380859375 5.185546875,29.8974609375 8.408203125,29.296875 10.78125,29.619140625 10.78125,0z" />
    </g>
  </g>
</svg>