<?xml version="1.0" encoding="utf-8"?>
<!DOCTYPE svg PUBLIC "-//W3C//DTD SVG 1.1//EN" "http://www.w3.org/Graphics/SVG/1.1/DTD/svg11.dtd">
<svg width="36.9140625" height="55.8984375" xmlns="http://www.w3.org/2000/svg" xmlns:xlink="http://www.w3.org/1999/xlink" xmlns:xml="http://www.w3.org/XML/1998/namespace" version="1.1">
  <g>
    <g>
      <path style="fill:#FF0000;fill-opacity:1" d="M35.15625,48.017578125L32.197265625,48.10546875 31.2451171875,49.921875 30.087890625,51.15234375 28.7109375,52.08984375 30.498046875,53.90625 32.373046875,52.8076171875 33.720703125,51.4453125 35.15625,48.017578125z M1.7578125,48.017578125L3.193359375,51.4453125 4.54101514816284,52.8076171875 6.416015625,53.90625 8.203125,52.08984375 6.26953125,50.654296875 4.716796875,48.10546875 3.03955006599426,48.08349609375 1.7578125,48.017578125z M21.416015625,43.359375L21.298828125,43.4765625 23.701171875,45.1025390625 26.54296875,46.0400390625 29.5751953125,46.4794921875 32.51953125,46.58203125 33.3984375,46.58203125 34.248046875,46.552734375 32.6953125,45.1171875 30.205078125,44.8974609375 27.041015625,44.677734375 23.876953125,44.23828125 21.416015625,43.359375z M15.498046875,43.359375L13.037109375,44.23828125 9.873046875,44.677734375 6.708984375,44.8974609375 4.21875,45.1171875 2.666015625,46.552734375 3.515625,46.58203125 4.39453125,46.58203125 7.3388671875,46.4794921875 10.37109375,46.0400390625 13.212890625,45.1025390625 15.615234375,43.4765625 15.498046875,43.359375z M18.45703125,38.203125L15.6042461395264,38.26904296875 13.2568359375,38.466796875 11.451416015625,38.73046875 10.224609375,38.994140625 10.8984375,39.462890625 12.71484375,39.9462890625 15.3369140625,40.3271484375 18.45703125,40.48828125 21.5625,40.3271484375 24.19921875,39.9462890625 26.015625,39.462890625 26.689453125,38.994140625 25.462646484375,38.73046875 23.6572265625,38.466796875 21.309814453125,38.26904296875 18.45703125,38.203125z M11.77734375,32.431640625L10.634765625,37.08984375 12.4658203125,36.796875 14.5166015625,36.6064453125 16.5673828125,36.4892578125 18.45703125,36.4453125 20.3466796875,36.4892578125 22.3974609375,36.6064453125 24.43359375,36.796875 26.279296875,37.08984375 25.13671875,32.431640625 11.77734375,32.431640625z M17.4609375,10.078125L19.453125,10.078125 19.453125,15.17578125 24.2578125,15.17578125 24.2578125,17.080078125 19.453125,17.080078125 19.453125,28.359375 17.4609375,28.359375 17.4609375,17.080078125 12.65625,17.080078125 12.65625,15.17578125 17.4609375,15.17578125 17.4609375,10.078125z M18.45703125,1.93359398841858L17.4462871551514,2.12768840789795 16.640625,2.70996046066284 15.9375,4.5703125 16.376953125,6.22558641433716 17.40234375,7.265625 14.9523906707764,8.935546875 12.9345703125,10.60546875 10.01953125,13.974609375 8.4228515625,17.431640625 7.939453125,21.064453125 8.1591796875,23.8037109375 8.8330078125,26.220703125 9.9609375,28.4033203125 11.54296875,30.439453125 25.37109375,30.439453125 26.953125,28.4033203125 28.0810546875,26.220703125 28.7548828125,23.8037109375 28.974609375,21.064453125 28.4912109375,17.431640625 26.89453125,13.974609375 23.9794921875,10.60546875 21.961669921875,8.935546875 19.51171875,7.265625 20.537109375,6.22558641433716 20.9765625,4.5703125 20.2734375,2.70996046066284 19.4677715301514,2.12768840789795 18.45703125,1.93359398841858z M18.45703125,0L20.2880859375,0.351562261581421 21.73828125,1.31835913658142 22.705078125,2.7685546875 23.056640625,4.5703125 22.3828125,6.826171875 25.8837890625,9.66796875 28.7109375,12.890625 30.6005859375,16.6552734375 31.2890625,21.09375 30.8935546875,24.6240234375 29.8828125,27.6123046875 28.4912109375,30.0732421875 26.953125,32.05078125 29.12109375,39.84375 25.751953125,41.30859375 21.5625,42.099609375 24.2138671875,42.861328125 27.158203125,43.212890625 30.2490234375,43.41796875 33.310546875,43.681640625 36.9140625,47.080078125 36.298828125,49.9951171875 34.892578125,52.5 32.8271484375,54.5068359375 30.234375,55.8984375 26.30859375,51.708984375 27.4951171875,51.15234375 28.76953125,50.390625 29.8681640625,49.365234375 30.52734375,48.017578125 26.748046875,47.607421875 23.642578125,46.6845703125 20.9765625,45 18.515625,42.24609375 18.3984375,42.24609375 15.9375,45 13.271484375,46.6845703125 10.166015625,47.607421875 6.38671875,48.017578125 7.0458984375,49.365234375 8.14453125,50.390625 9.4189453125,51.15234375 10.60546875,51.708984375 6.6796875,55.8984375 4.0869140625,54.5068359375 2.021484375,52.5 0.615234375,49.9951171875 0,47.080078125 3.603515625,43.681640625 6.6650390625,43.41796875 9.755859375,43.212890625 12.7001953125,42.861328125 15.3515625,42.099609375 11.162109375,41.30859375 7.79296875,39.84375 9.9609375,32.05078125 8.4228515625,30.0732421875 7.03125,27.6123046875 6.0205078125,24.6240234375 5.625,21.09375 6.3134765625,16.6552734375 8.203125,12.890625 11.0302734375,9.66796875 14.53125,6.826171875 13.857421875,4.5703125 14.208984375,2.7685546875 15.17578125,1.31835913658142 16.6259765625,0.351562261581421 18.45703125,0z" />
    </g>
  </g>
</svg>