<?xml version="1.0" encoding="utf-8"?>
<!DOCTYPE svg PUBLIC "-//W3C//DTD SVG 1.1//EN" "http://www.w3.org/Graphics/SVG/1.1/DTD/svg11.dtd">
<svg width="47.255859375" height="48.486328125" xmlns="http://www.w3.org/2000/svg" xmlns:xlink="http://www.w3.org/1999/xlink" xmlns:xml="http://www.w3.org/XML/1998/namespace" version="1.1">
  <g>
    <g>
      <path style="fill:#FF0000;fill-opacity:1" d="M42.216796875,24.609375L45.41015625,30.087890625 46.787109375,33.1640625 47.255859375,36.09375 46.787109375,38.701171875 45.380859375,40.7958984375 43.037109375,42.2021484375 39.7265625,42.71484375 23.90625,42.71484375 23.96484375,48.486328125 23.818359375,48.486328125 18.134765625,40.693359375 23.818359375,32.98828125 23.96484375,32.98828125 23.96484375,38.701171875 39.7265625,38.701171875 41.319580078125,38.514404296875 42.4072265625,37.9541015625 43.033447265625,37.086181640625 43.2421875,35.9765625 42.890625,34.0283203125 41.630859375,31.46484375 38.7890625,26.689453125 42.216796875,24.609375z M24.169921875,23.3203125L22.763671875,23.935546875 22.265625,25.48828125 22.79296875,27.24609375 24.169921875,27.978515625 25.48828125,27.3193359375 25.986328125,25.634765625 25.5322246551514,23.89892578125 24.169921875,23.3203125z M25.546875,15.029296875L27.1801738739014,15.1318378448486 28.388671875,15.439453125 28.388671875,18.57421875 27.0556640625,17.98828125 25.751953125,17.783203125 24.3896465301514,18.0615253448486 23.291015625,18.896484375 22.5439434051514,20.21484375 22.236328125,21.943359375 23.5546875,20.9326171875 25.224609375,20.625 26.9824199676514,20.950927734375 28.330078125,21.9287109375 29.18701171875,23.455810546875 29.47265625,25.4296875 29.033203125,27.5537109375 27.8759765625,29.23828125 26.19140625,30.3515625 24.169921875,30.76171875 21.8481426239014,30.296630859375 20.09765625,28.9013671875 18.9990234375,26.671142578125 18.6328125,23.701171875 19.04296875,20.4638671875 20.3173828125,17.6953125 22.4853515625,15.76171875 25.546875,15.029296875z M13.88671875,13.916015625L17.63671875,22.646484375 17.578125,22.734375 12.744140625,19.86328125 4.86328125,33.45703125 4.26269626617432,34.7314453125 4.072265625,35.771484375 4.324951171875,37.12646484375 5.0830078125,38.02734375 6.397705078125,38.53271484375 8.3203125,38.701171875 15.76171875,38.701171875 15.76171875,42.71484375 8.3203125,42.71484375 5.009765625,42.3193359375 2.37304759025574,41.1181640625 0.6298828125,39.052734375 0,36.03515625 0.336914539337158,33.8525390625 1.43554663658142,31.40625 9.287109375,17.783203125 4.18945407867432,14.970703125 4.27734375,14.794921875 13.88671875,13.916015625z M23.96484375,0L25.986328125,0.3076171875 27.685546875,1.23046875 29.1796875,2.783203125 30.64453125,4.98046875 38.291015625,17.900390625 43.30078125,14.8828125 43.388671875,15.029296875 39.521484375,23.90625 30.1171875,22.998046875 30.05859375,22.8515625 34.892578125,19.98046875 27.216796875,7.03125 26.3891582489014,5.760498046875 25.6640625,4.8779296875 23.935546875,4.189453125 22.08984375,4.86328125 21.3061504364014,5.7275390625 20.478515625,6.97265625 16.728515625,13.30078125 13.330078125,11.220703125 17.080078125,4.951171875 18.5595703125,2.75390625 20.068359375,1.201171875 21.796875,0.29296875 23.96484375,0z" />
    </g>
  </g>
</svg>