<?xml version="1.0" encoding="utf-8"?>
<!DOCTYPE svg PUBLIC "-//W3C//DTD SVG 1.1//EN" "http://www.w3.org/Graphics/SVG/1.1/DTD/svg11.dtd">
<svg width="29.2968750000003" height="48.57421875" xmlns="http://www.w3.org/2000/svg" xmlns:xlink="http://www.w3.org/1999/xlink" xmlns:xml="http://www.w3.org/XML/1998/namespace" version="1.1">
  <g>
    <g>
      <path style="fill:#FF0000;fill-opacity:1" d="M14.619140625,25.25390625L11.1767578125,25.927734375 8.3935546875,27.7880859375 6.533203125,30.6005859375 5.859375,34.16015625 6.533203125,37.7197265625 8.3935546875,40.5322265625 11.1767578125,42.392578125 14.619140625,43.06640625 18.0615234375,42.392578125 20.859375,40.5322265625 22.7490234375,37.7197265625 23.4375,34.16015625 22.7490234375,30.6005859375 20.859375,27.7880859375 18.0615234375,25.927734375 14.619140625,25.25390625z M14.619140625,0L26.513671875,11.513671875 19.6875,11.513671875 17.40234375,9.169921875 17.40234375,13.505859375 25.166015625,13.505859375 25.166015625,18.6328125 17.40234375,18.6328125 17.40234375,20.009765625 19.815673828125,20.6835956573486 22.0751953125,21.767578125 25.8544921875,24.931640625 28.3740234375,29.1650390625 29.0661602020264,31.593017578125 29.296875,34.16015625 29.0002422332764,37.034912109375 28.1103515625,39.7412109375 26.7187480926514,42.198486328125 24.9169921875,44.326171875 22.7453594207764,46.083984375 20.244140625,47.431640625 17.5048828125,48.28857421875 14.619140625,48.57421875 11.7333974838257,48.28857421875 8.994140625,47.431640625 6.49658155441284,46.083984375 4.3359375,44.326171875 2.54882788658142,42.198486328125 1.17187452316284,39.7412109375 0.292968451976776,37.034912109375 0,34.16015625 0.227050498127937,31.58935546875 0.908202648162842,29.150390625 3.41308617591858,24.90234375 7.177734375,21.7529296875 9.43359375,20.6799335479736 11.865234375,20.009765625 11.865234375,18.6328125 4.04296875,18.6328125 4.04296875,13.505859375 11.865234375,13.505859375 11.865234375,9.19921875 10.634765625,10.400390625 9.521484375,11.513671875 2.63671851158142,11.513671875 14.619140625,0z" />
    </g>
  </g>
</svg>