<?xml version="1.0" encoding="utf-8"?>
<!DOCTYPE svg PUBLIC "-//W3C//DTD SVG 1.1//EN" "http://www.w3.org/Graphics/SVG/1.1/DTD/svg11.dtd">
<svg width="46.3183593750011" height="67.3828125" xmlns="http://www.w3.org/2000/svg" xmlns:xlink="http://www.w3.org/1999/xlink" xmlns:xml="http://www.w3.org/XML/1998/namespace" version="1.1">
  <g>
    <g>
      <path style="fill:#FF0000;fill-opacity:1" d="M12.626953125,50.537109375L11.1181640625,51.1376953125 10.517578125,52.646484375 10.517578125,63.1640625 14.736328125,63.1640625 14.736328125,52.44140625 14.5458984375,51.708984375 14.0478515625,51.09375 13.3740234375,50.68359375 12.626953125,50.537109375z M37.91015625,48.779296875L37.91015625,63.1640625 42.099609375,63.1640625 42.099609375,54.755859375 41.7919921875,52.8369140625 40.9423828125,51.123046875 39.6240234375,49.7314453125 37.91015625,48.779296875z M29.47265625,48.779296875L27.7587890625,49.7314453125 26.42578125,51.1083984375 25.5615234375,52.822265625 25.25390625,54.755859375 25.25390625,63.1640625 29.47265625,63.1640625 29.47265625,48.779296875z M33.69140625,37.91015625L32.9443359375,38.056640625 32.2705078125,38.4521484375 31.7724609375,39.052734375 31.58203125,39.78515625 31.58203125,52.8515625 31.7724609375,53.5986328125 32.2705078125,54.19921875 32.9443359375,54.609375 33.69140625,54.755859375 35.1708984375,54.1259765625 35.80078125,52.646484375 35.80078125,40.01953125 35.185546875,38.525390625 33.69140625,37.91015625z M16.845703125,36.15234375L16.845703125,56.484375 18.5815410614014,55.557861328125 19.921875,54.1845703125 20.7788066864014,52.474365234375 21.064453125,50.537109375 21.064453125,42.12890625 20.7568359375,40.1953125 19.892578125,38.4814453125 18.5595703125,37.1044921875 16.845703125,36.15234375z M8.408203125,36.15234375L6.6943359375,37.1044921875 5.361328125,38.4814453125 4.51171875,40.1953125 4.21875,42.12890625 4.21875,50.537109375 4.500732421875,52.474365234375 5.3466796875,54.1845703125 6.67602443695068,55.557861328125 8.408203125,56.484375 8.408203125,36.15234375z M12.3046875,25.283203125L11.630859375,25.48828125 11.0595703125,26.0009765625 10.6640625,26.6748046875 10.517578125,27.36328125 10.517578125,40.01953125 11.1474609375,41.4990234375 12.626953125,42.12890625 13.3447265625,41.9677734375 14.0185546875,41.54296875 14.53125,40.927734375 14.736328125,40.224609375 14.736328125,27.158203125 14.5751953125,26.5283203125 14.150390625,25.9130859375 13.564453125,25.458984375 12.94921875,25.283203125 12.3046875,25.283203125z M37.91015625,23.525390625L37.91015625,43.857421875 39.642333984375,42.930908203125 40.9716796875,41.5576171875 41.8176231384277,39.847412109375 42.099609375,37.91015625 42.099609375,29.47265625 41.7919921875,27.5537109375 40.9423828125,25.8544921875 39.6240234375,24.4775390625 37.91015625,23.525390625z M29.47265625,23.525390625L27.7587890625,24.4775390625 26.42578125,25.83984375 25.5615234375,27.5390625 25.25390625,29.47265625 25.25390625,37.91015625 25.53955078125,39.847412109375 26.396484375,41.5576171875 27.73681640625,42.930908203125 29.47265625,43.857421875 29.47265625,23.525390625z M33.69140625,12.626953125L32.9443359375,12.7734375 32.2705078125,13.18359375 31.7724609375,13.798828125 31.58203125,14.53125 31.58203125,27.59765625 31.7724609375,28.3447265625 32.2705078125,28.9306640625 32.9443359375,29.326171875 33.69140625,29.47265625 35.185546875,28.857421875 35.80078125,27.36328125 35.80078125,14.736328125 35.1708984375,13.2568359375 33.69140625,12.626953125z M16.845703125,10.8984375L16.845703125,31.23046875 18.5595703125,30.2783203125 19.892578125,28.916015625 20.7568359375,27.2314453125 21.064453125,25.283203125 21.064453125,16.845703125 20.7568359375,14.912109375 19.892578125,13.212890625 18.5595703125,11.8505859375 16.845703125,10.8984375z M8.408203125,10.8984375L6.6943359375,11.8505859375 5.361328125,13.212890625 4.51171875,14.912109375 4.21875,16.845703125 4.21875,25.283203125 4.51171875,27.2314453125 5.361328125,28.916015625 6.6943359375,30.2783203125 8.408203125,31.23046875 8.408203125,10.8984375z M37.91015625,4.21874952316284L37.91015625,18.603515625 39.6240234375,17.6513671875 40.9423828125,16.259765625 41.7919921875,14.5458984375 42.099609375,12.626953125 42.099609375,4.21874952316284 37.91015625,4.21874952316284z M25.25390625,4.21874952316284L25.25390625,12.626953125 25.5615234375,14.5751953125 26.42578125,16.2744140625 27.7587890625,17.6513671875 29.47265625,18.603515625 29.47265625,4.21874952316284 25.25390625,4.21874952316284z M10.517578125,4.21874952316284L10.517578125,14.736328125 11.1474609375,16.2158203125 12.626953125,16.845703125 13.359375,16.69921875 14.0478515625,16.2890625 14.5458984375,15.6884765625 14.736328125,14.970703125 14.736328125,4.21874952316284 10.517578125,4.21874952316284z M6.328125,0L46.318359375,0 46.318359375,12.626953125 46.0436973571777,15.069580078125 45.2197265625,17.3583984375 43.8903770446777,19.390869140625 42.099609375,21.064453125 43.8903770446777,22.738037109375 45.2197265625,24.7705078125 46.0436973571777,27.0520038604736 46.318359375,29.47265625 46.318359375,37.91015625 46.0436973571777,40.330810546875 45.2197265625,42.6123046875 43.8903770446777,44.644775390625 42.099609375,46.318359375 43.8903770446777,47.991943359375 45.2197265625,50.0244140625 46.0436973571777,52.313232421875 46.318359375,54.755859375 46.318359375,67.3828125 6.328125,67.3828125 6.328125,60.17578125 3.75,58.564453125 1.7431640625,56.2939453125 0.454102039337158,53.5546875 0,50.537109375 0,42.12890625 0.278319954872131,39.70458984375 1.11328125,37.412109375 2.4462890625,35.36865234375 4.21875,33.69140625 2.4462890625,32.017822265625 1.11328125,29.9853515625 0.278319954872131,27.7038593292236 0,25.283203125 0,16.845703125 0.454102039337158,13.828125 1.7431640625,11.0888671875 3.75,8.818359375 6.328125,7.20703125 6.328125,0z" />
    </g>
  </g>
</svg>