<?xml version="1.0" encoding="utf-8"?>
<!DOCTYPE svg PUBLIC "-//W3C//DTD SVG 1.1//EN" "http://www.w3.org/Graphics/SVG/1.1/DTD/svg11.dtd">
<svg width="48.984375" height="22.67578125" xmlns="http://www.w3.org/2000/svg" xmlns:xlink="http://www.w3.org/1999/xlink" xmlns:xml="http://www.w3.org/XML/1998/namespace" version="1.1">
  <g>
    <g>
      <path style="fill:#FF0000;fill-opacity:1" d="M36.005859375,14.443359375L34.86328125,14.58984375 34.86328125,19.951171875 36.005859375,19.833984375 36.005859375,14.443359375z M38.84765625,14.12109375L36.767578125,14.384765625 36.767578125,19.775390625 37.763671875,19.6875 38.84765625,19.541015625 38.84765625,14.12109375z M9.462890625,14.0625L9.462890625,19.39453125 10.4296875,19.599609375 11.396484375,19.716796875 11.396484375,14.35546875 9.462890625,14.0625z M42.451171875,13.41796875L40.927734375,13.76953125 39.521484375,14.00390625 39.521484375,19.453125 40.95703125,19.130859375 42.451171875,18.720703125 42.451171875,13.41796875z M6.123046875,13.30078125L6.123046875,18.6328125 7.470703125,19.04296875 8.818359375,19.306640625 8.818359375,13.9453125 7.5,13.681640625 6.123046875,13.30078125z M46.58203125,11.484375L43.154296875,13.212890625 43.154296875,18.45703125 43.9453125,18.134765625 45.2270469665527,17.398681640625 46.025390625,16.5380859375 46.58203125,14.501953125 46.58203125,11.484375z M2.40234375,11.42578125L2.40234375,14.384765625 2.900390625,16.40625 3.6181640625,17.2412109375 4.775390625,17.98828125 5.537109375,18.369140625 5.537109375,13.06640625 3.80859375,12.333984375 2.40234375,11.42578125z M25.341796875,6.09375L27.4658203125,6.38671875 28.092041015625,6.71630859375 28.30078125,7.119140625 28.092041015625,7.47802734375 27.4658203125,7.79296875 25.341796875,8.0859375 23.173828125,7.79296875 22.5366191864014,7.47802734375 22.32421875,7.119140625 22.5366191864014,6.71630859375 23.173828125,6.38671875 25.341796875,6.09375z M25.341796875,5.21484375L23.6279277801514,5.35400390625 22.294921875,5.771484375 21.4379863739014,6.38671875 21.15234375,7.119140625 21.4379863739014,7.82958984375 22.294921875,8.4375 23.6279277801514,8.85498046875 25.341796875,8.994140625 28.330078125,8.4375 29.18701171875,7.82958984375 29.47265625,7.119140625 29.18701171875,6.38671875 28.330078125,5.771484375 25.341796875,5.21484375z M24.4921875,2.75390625L29.022216796875,2.8564453125 33.1201171875,3.1640625 36.7236328125,3.636474609375 39.7705078125,4.2333984375 42.2241172790527,4.92919921875 44.0478515625,5.6982421875 45.1794395446777,6.507568359375 45.556640625,7.32421875 45.1794395446777,8.118896484375 44.0478515625,8.9208984375 42.2241172790527,9.686279296875 39.7705078125,10.37109375 36.7236328125,10.953369140625 33.1201171875,11.4111328125 29.022216796875,11.707763671875 24.4921875,11.806640625 19.9658184051514,11.7041015625 15.87890625,11.396484375 12.286376953125,10.927734375 9.2431640625,10.341796875 6.78955078125,9.656982421875 4.9658203125,8.8916015625 3.834228515625,8.082275390625 3.45703125,7.265625 3.834228515625,6.470947265625 4.9658203125,5.6689453125 6.78955078125,4.903564453125 9.2431640625,4.21875 12.286376953125,3.6328125 15.87890625,3.1640625 19.9658184051514,2.8564453125 24.4921875,2.75390625z M24.4921875,1.728515625L16.0693359375,2.0654296875 12.275390625,2.486572265625 8.9501953125,3.076171875 6.170654296875,3.84521484375 4.013671875,4.8046875 2.62939429283142,5.947265625 2.16796875,7.265625 2.62939429283142,8.602294921875 4.013671875,9.7412109375 6.170654296875,10.693359375 8.9501953125,11.4697265625 12.275390625,12.0703125 16.0693359375,12.4951171875 24.4921875,12.83203125 32.9150390625,12.4951171875 36.708984375,12.0703125 40.0341796875,11.4697265625 42.8137168884277,10.693359375 44.970703125,9.7412109375 46.3549766540527,8.602294921875 46.81640625,7.265625 46.3549766540527,5.947265625 44.970703125,4.8046875 42.8137168884277,3.84521484375 40.0341796875,3.076171875 36.708984375,2.486572265625 32.9150390625,2.0654296875 24.4921875,1.728515625z M24.4921875,0L29.659423828125,0.091552734375 34.3798828125,0.3662109375 38.565673828125,0.853271484375 42.12890625,1.58203125 45.0183067321777,2.567138671875 47.1826171875,3.8232421875 48.5339317321777,5.379638671875 48.984375,7.265625 48.984375,14.853515625 48.6218223571777,16.761474609375 47.5341796875,18.3837890625 45.6921348571777,19.7314453125 43.06640625,20.8154296875 39.649658203125,21.64306640625 35.4345703125,22.2216796875 30.391845703125,22.562255859375 24.4921875,22.67578125 18.592529296875,22.562255859375 13.5498046875,22.2216796875 9.33471584320068,21.639404296875 5.91796875,20.80078125 3.292236328125,19.705810546875 1.45019578933716,18.3544921875 0.362548887729645,16.732177734375 0,14.82421875 0,7.265625 0.450439453125,5.379638671875 1.8017578125,3.8232421875 3.966064453125,2.567138671875 6.85546875,1.58203125 10.418701171875,0.853271484375 14.6044921875,0.3662109375 19.3249492645264,0.091552734375 24.4921875,0z" />
    </g>
  </g>
</svg>