<?xml version="1.0" encoding="utf-8"?>
<!DOCTYPE svg PUBLIC "-//W3C//DTD SVG 1.1//EN" "http://www.w3.org/Graphics/SVG/1.1/DTD/svg11.dtd">
<svg width="23.37890625" height="42.71484375" xmlns="http://www.w3.org/2000/svg" xmlns:xlink="http://www.w3.org/1999/xlink" xmlns:xml="http://www.w3.org/XML/1998/namespace" version="1.1">
  <g>
    <g>
      <path style="fill:#FF0000;fill-opacity:1" d="M9.580078125,0L12.293701171875,0.267333984375 14.8681640625,1.0693359375 17.2192363739014,2.332763671875 19.2626953125,3.984375 20.9582500457764,5.987548828125 22.265625,8.3056640625 23.1005840301514,10.8581552505493 23.37890625,13.564453125 23.1481914520264,16.0217304229736 22.4560546875,18.3544921875 19.9365234375,22.412109375 16.201171875,25.3857421875 13.9892578125,26.363525390625 11.630859375,26.923828125 11.630859375,32.28515625 18.10546875,32.28515625 18.10546875,36.181640625 11.630859375,36.181640625 11.630859375,42.71484375 7.734375,42.71484375 7.734375,36.181640625 1.11328125,36.181640625 1.11328125,32.28515625 7.734375,32.28515625 7.734375,23.3203125 9.580078125,23.3203125 13.3740234375,22.5732421875 16.46484375,20.5078125 18.544921875,17.4169921875 19.1162090301514,15.5676288604736 19.306640625,13.564453125 19.1162090301514,11.5319843292236 18.544921875,9.6533203125 16.46484375,6.5478515625 13.3740234375,4.51171875 9.580078125,3.779296875 7.43408107757568,3.97705078125 5.56640625,4.5703125 2.431640625,6.708984375 0,3.955078125 2.08740234375,2.30712890625 4.365234375,1.0546875 6.85546779632568,0.263671875 9.580078125,0z" />
    </g>
  </g>
</svg>