<?xml version="1.0" encoding="utf-8"?>
<!DOCTYPE svg PUBLIC "-//W3C//DTD SVG 1.1//EN" "http://www.w3.org/Graphics/SVG/1.1/DTD/svg11.dtd">
<svg width="58.9746093750005" height="58.974609375" xmlns="http://www.w3.org/2000/svg" xmlns:xlink="http://www.w3.org/1999/xlink" xmlns:xml="http://www.w3.org/XML/1998/namespace" version="1.1">
  <g>
    <g>
      <path style="fill:#FF0000;fill-opacity:1" d="M4.775390625,31.11328125L4.3359375,31.9921875 5.09033107757568,36.104736328125 6.474609375,39.9462890625 8.426513671875,43.45458984375 10.8837890625,46.5673828125 13.80615234375,49.25537109375 17.1533203125,51.4892578125 20.8630352020264,53.199462890625 24.873046875,54.31640625 24.2578125,53.232421875 24.638671875,52.236328125 25.60546875,51.826171875 26.1328125,51.9287109375 26.71875,52.177734375 27.275390625,52.4853515625 27.744140625,52.734375 27.5537109375,51.15234375 27.24609375,49.599609375 24.140625,48.984375 23.3642578125,48.515625 23.056640625,47.63671875 23.4521484375,46.6845703125 24.404296875,46.2890625 25.3857421875,46.435546875 26.3671875,46.669921875 25.78125,45.1904296875 25.078125,43.76953125 23.3935546875,43.88671875 21.708984375,43.9453125 20.830078125,43.5498046875 20.44921875,42.685546875 20.7568359375,41.7333984375 21.50390625,41.30859375 22.470703125,41.19140625 23.4375,41.162109375 22.4853515625,39.873046875 21.4453125,38.671875 20.7568359375,38.90625 19.7314453125,39.2724609375 18.69140625,39.609375 17.98828125,39.755859375 17.0361328125,39.3603515625 16.640625,38.408203125 16.904296875,37.6171875 17.548828125,37.1337890625 18.3837890625,36.826171875 19.189453125,36.591796875 17.9150390625,35.6396484375 16.611328125,34.716796875 15.8935546875,35.2294921875 14.9560546875,35.888671875 14.00390625,36.4599609375 13.2421875,36.708984375 12.2607421875,36.3134765625 11.865234375,35.33203125 12.0849609375,34.6435546875 12.6123046875,34.0869140625 13.2861328125,33.6328125 13.916015625,33.251953125 12.451171875,32.6513671875 10.95703125,32.138671875 8.818359375,34.51171875 7.822265625,34.98046875 6.8408203125,34.5849609375 6.4453125,33.603515625 6.6064453125,33.017578125 7.001953125,32.431640625 7.5,31.8896484375 7.939453125,31.435546875 6.3720703125,31.2451171875 4.775390625,31.11328125z M34.072265625,4.62890577316284L34.6875,5.71289110183716 34.306640625,6.70898485183716 33.33984375,7.119140625 32.841796875,7.0166015625 32.2412109375,6.75292921066284 31.6552734375,6.4453125 31.201171875,6.2109375 31.728515625,9.345703125 34.833984375,9.9609375 35.6103515625,10.4443359375 35.91796875,11.30859375 35.5078125,12.2607421875 34.541015625,12.65625 33.57421875,12.509765625 32.607421875,12.275390625 33.1787109375,13.76953125 33.896484375,15.17578125 35.5517578125,15.05859375 37.20703125,15 38.1591796875,15.4248046875 38.49609375,16.435546875 38.1591796875,17.2705078125 37.3388671875,17.666015625 36.357421875,17.783203125 35.5078125,17.783203125 36.474609375,19.072265625 37.5,20.2734375 38.2470703125,20.009765625 39.2578125,19.6435546875 40.25390625,19.3212890625 40.95703125,19.189453125 41.923828125,19.5849609375 42.3046875,20.537109375 42.041015625,21.3427734375 41.396484375,21.8408203125 40.5615234375,22.1484375 39.755859375,22.3828125 40.8984375,23.26171875 42.0703125,24.052734375 42.36328125,24.228515625 43.0810546875,23.7158203125 44.0185546875,23.056640625 44.970703125,22.4853515625 45.732421875,22.236328125 46.7138671875,22.6318359375 47.109375,23.61328125 46.8896484375,24.31640625 46.34765625,24.8583984375 45.673828125,25.3125 45.029296875,25.693359375 46.5087890625,26.3232421875 48.017578125,26.8359375 50.126953125,24.43359375 51.15234375,23.96484375 52.1044921875,24.375 52.5,25.341796875 52.3388671875,25.95703125 51.9580078125,26.5283203125 51.474609375,27.0556640625 51.03515625,27.509765625 52.6171875,27.7294921875 54.19921875,27.83203125 54.609375,26.953125 53.8732872009277,22.8808612823486 52.4853515625,19.04296875 50.5224571228027,15.5126953125 48.0615234375,12.36328125 45.1354942321777,9.642333984375 41.77734375,7.3974609375 38.06396484375,5.701904296875 34.072265625,4.62890577316284z M25.60546875,4.51171827316284L20.185546875,5.9912109375 15.2783203125,8.583984375 11.044921875,12.1875 7.67578125,16.69921875 5.390625,21.826171875 4.306640625,27.392578125 4.833984375,28.41796875 6.8115234375,28.5498046875 8.759765625,28.828125 8.4814453125,27.744140625 8.3203125,26.630859375 8.7158203125,25.6787109375 9.66796875,25.283203125 10.546875,25.5908203125 11.015625,26.3671875 11.66015625,29.53125 13.5205078125,30.1904296875 15.3515625,30.966796875 15.380859375,29.970703125 15.498046875,28.916015625 15.9375,28.0810546875 16.904296875,27.744140625 17.8125,28.154296875 18.193359375,29.091796875 17.98828125,32.373046875 19.4677734375,33.3984375 20.888671875,34.482421875 21.2109375,34.716796875 21.4453125,33.8818359375 21.767578125,32.9736328125 22.2802734375,32.255859375 23.0859375,31.962890625 24.0380859375,32.34375 24.43359375,33.310546875 24.3017578125,34.013671875 23.9794921875,35.0244140625 23.61328125,36.0498046875 23.349609375,36.796875 24.6533203125,38.3056640625 25.869140625,39.873046875 26.2646484375,39.19921875 26.7333984375,38.466796875 27.3046875,37.880859375 28.037109375,37.646484375 29.00390625,38.0419921875 29.4140625,38.994140625 29.1650390625,39.755859375 28.59375,40.7373046875 27.9345703125,41.7041015625 27.421875,42.421875 28.30078125,44.208984375 29.033203125,46.0546875 29.5166015625,45.5712890625 30.1025390625,45.029296875 30.732421875,44.58984375 31.376953125,44.4140625 32.34375,44.8095703125 32.75390625,45.76171875 32.28515625,46.787109375 29.8828125,48.92578125 30.263671875,50.8740234375 30.46875,52.8515625 30.9814453125,52.55859375 31.6259765625,52.2216796875 32.2705078125,51.943359375 32.8125,51.826171875 33.7939453125,52.2216796875 34.189453125,53.203125 33.955078125,53.9501953125 33.33984375,54.43359375 37.269287109375,53.521728515625 40.9130859375,52.0166015625 44.2712364196777,49.947509765625 47.34375,47.34375 49.4091796875,45.029296875 51.15234375,42.48046875 53.5400390625,37.236328125 54.66796875,31.552734375 54.140625,30.52734375 52.177734375,30.41015625 50.21484375,30.1171875 50.478515625,31.23046875 50.625,32.314453125 50.2294921875,33.2666015625 49.27734375,33.662109375 48.427734375,33.369140625 47.958984375,32.578125 47.28515625,29.4140625 43.59375,28.0078125 43.564453125,28.9013671875 43.4619140625,29.9560546875 43.0810546875,30.8349609375 42.24609375,31.201171875 41.25,30.87890625 40.78125,29.970703125 40.83984375,28.2568359375 40.95703125,26.54296875 39.31640625,25.458984375 37.763671875,24.228515625 37.5146484375,25.0634765625 37.1923828125,25.986328125 36.6796875,26.71875 35.859375,27.01171875 34.9072265625,26.6162109375 34.51171875,25.6640625 34.6435546875,24.9462890625 34.9658203125,23.935546875 35.33203125,22.91015625 35.595703125,22.1484375 34.2919921875,20.654296875 33.10546875,19.072265625 32.7099609375,19.74609375 32.2119140625,20.478515625 31.611328125,21.0791015625 30.87890625,21.328125 29.9267578125,20.91796875 29.53125,19.951171875 29.7802734375,19.189453125 30.3662109375,18.2080078125 31.0400390625,17.2412109375 31.552734375,16.5234375 29.94140625,12.890625 29.4287109375,13.3740234375 28.8427734375,13.916015625 28.212890625,14.35546875 27.568359375,14.53125 26.6015625,14.1357421875 26.220703125,13.154296875 26.689453125,12.158203125 29.091796875,10.01953125 28.681640625,8.0712890625 28.4765625,6.09375 27.94921875,6.38671922683716 27.333984375,6.72363328933716 26.689453125,7.001953125 26.1328125,7.119140625 25.166015625,6.72363328933716 24.755859375,5.74218702316284 24.990234375,4.9951171875 25.60546875,4.51171827316284z M29.47265625,0L33.468017578125,0.263674795627594 37.3095703125,1.05468797683716 40.9533653259277,2.32544231414795 44.35546875,4.0283203125 47.4902305603027,6.141357421875 50.33203125,8.642578125 52.8332481384277,11.484375 54.9462890625,14.619140625 56.649169921875,18.021240234375 57.919921875,21.6650390625 58.7109375,25.5065937042236 58.974609375,29.501953125 58.7109375,33.497314453125 57.919921875,37.3388671875 56.649169921875,40.97900390625 54.9462890625,44.3701171875 52.8332481384277,47.493896484375 50.33203125,50.33203125 47.4902305603027,52.833251953125 44.35546875,54.9462890625 40.9533653259277,56.649169921875 37.3095703125,57.919921875 33.468017578125,58.7109375 29.47265625,58.974609375 25.477294921875,58.7109375 21.6357421875,57.919921875 17.9956035614014,56.649169921875 14.6044921875,54.9462890625 11.480712890625,52.833251953125 8.642578125,50.33203125 6.14135646820068,47.493896484375 4.0283203125,44.3701171875 2.325439453125,40.97900390625 1.0546875,37.3388671875 0.263671517372131,33.497314453125 0,29.501953125 0.263671517372131,25.5065937042236 1.0546875,21.6650390625 2.325439453125,18.021240234375 4.0283203125,14.619140625 6.14135646820068,11.484375 8.642578125,8.642578125 11.480712890625,6.141357421875 14.6044921875,4.0283203125 17.9956035614014,2.32544231414795 21.6357421875,1.05468797683716 25.477294921875,0.263674795627594 29.47265625,0z" />
    </g>
  </g>
</svg>