<?xml version="1.0" encoding="utf-8"?>
<!DOCTYPE svg PUBLIC "-//W3C//DTD SVG 1.1//EN" "http://www.w3.org/Graphics/SVG/1.1/DTD/svg11.dtd">
<svg width="23.0859375" height="22.79296875" xmlns="http://www.w3.org/2000/svg" xmlns:xlink="http://www.w3.org/1999/xlink" xmlns:xml="http://www.w3.org/XML/1998/namespace" version="1.1">
  <g>
    <g>
      <path style="fill:#FF0000;fill-opacity:1" d="M11.54296875,3.80859375L8.4814453125,4.4091796875 6.0791015625,6.03515625 4.51171875,8.4375 3.955078125,11.396484375 4.51171875,14.35546875 6.0791015625,16.7578125 8.4814453125,18.3837890625 11.54296875,18.984375 14.6044921875,18.3837890625 17.0068359375,16.7578125 18.57421875,14.35546875 19.130859375,11.396484375 18.57421875,8.4375 17.0068359375,6.03515625 14.6044921875,4.4091796875 11.54296875,3.80859375z M11.54296875,0L13.846435546875,0.208741664886475 16.0107421875,0.8349609375 19.6728515625,3.1787109375 22.1630859375,6.7822265625 22.8552227020264,8.983154296875 23.0859375,11.396484375 22.8552227020264,13.809814453125 22.1630859375,16.0107421875 19.6728515625,19.6142578125 16.0107421875,21.9580078125 13.846435546875,22.584228515625 11.54296875,22.79296875 9.239501953125,22.584228515625 7.0751953125,21.9580078125 3.4130859375,19.6142578125 0.9228515625,16.0107421875 0.230712890625,13.809814453125 0,11.396484375 0.230712890625,8.983154296875 0.9228515625,6.7822265625 3.4130859375,3.1787109375 7.0751953125,0.8349609375 9.239501953125,0.208741664886475 11.54296875,0z" />
    </g>
  </g>
</svg>