<?xml version="1.0" encoding="utf-8"?>
<!DOCTYPE svg PUBLIC "-//W3C//DTD SVG 1.1//EN" "http://www.w3.org/Graphics/SVG/1.1/DTD/svg11.dtd">
<svg width="57.568359375" height="51.03515625" xmlns="http://www.w3.org/2000/svg" xmlns:xlink="http://www.w3.org/1999/xlink" xmlns:xml="http://www.w3.org/XML/1998/namespace" version="1.1">
  <g>
    <g>
      <path style="fill:#FF0000;fill-opacity:1" d="M34.86328125,30.849609375L20.419921875,47.490234375 49.21875,47.490234375 34.86328125,30.849609375z M34.86328125,24.697265625L57.568359375,51.03515625 11.953125,51.03515625 34.86328125,24.697265625z M6.796875,1.34765672683716L3.86718702316284,8.0859375 24.580078125,8.0859375 21.62109375,1.34765672683716 6.796875,1.34765672683716z M5.44921827316284,0L22.939453125,0 26.455078125,8.0859375 28.359375,9.2578125 28.359375,18.896484375 26.89453125,18.896484375 26.89453125,23.466796875 22.08984375,23.466796875 22.08984375,18.896484375 6.298828125,18.896484375 6.298828125,23.466796875 1.5234375,23.466796875 1.5234375,18.896484375 0,18.896484375 0,9.2578125 1.93359351158142,8.0859375 5.44921827316284,0z" />
    </g>
  </g>
</svg>