<?xml version="1.0" encoding="utf-8"?>
<!DOCTYPE svg PUBLIC "-//W3C//DTD SVG 1.1//EN" "http://www.w3.org/Graphics/SVG/1.1/DTD/svg11.dtd">
<svg width="19.248046875" height="42.71484375" xmlns="http://www.w3.org/2000/svg" xmlns:xlink="http://www.w3.org/1999/xlink" xmlns:xml="http://www.w3.org/XML/1998/namespace" version="1.1">
  <g>
    <g>
      <path style="fill:#FF0000;fill-opacity:1" d="M14.033203125,0L16.259765625,0.1171875 18.10546875,0.46875 18.10546875,1.787109375 15.340576171875,2.032470703125 12.9638671875,2.7685546875 9.345703125,5.4052734375 7.1923828125,9.2431640625 6.474609375,13.857421875 7.1923828125,18.4130859375 9.345703125,22.2509765625 12.9638671875,24.8876953125 15.340576171875,25.623779296875 18.10546875,25.869140625 18.10546875,27.12890625 16.259765625,27.48046875 14.033203125,27.59765625 12.7734375,27.59765625 12.7734375,32.28515625 19.248046875,32.28515625 19.248046875,36.181640625 12.7734375,36.181640625 12.7734375,42.71484375 8.876953125,42.71484375 8.876953125,36.181640625 2.255859375,36.181640625 2.255859375,32.28515625 8.876953125,32.28515625 8.876953125,26.748046875 5.21484375,24.8291015625 2.4169921875,21.9580078125 0.629883289337158,18.251953125 0,13.857421875 0.263671875,10.9130868911743 1.0546875,8.232421875 2.31445288658142,5.863037109375 3.984375,3.8525390625 6.03515625,2.2265625 8.4375,1.0107421875 11.12548828125,0.252685546875 14.033203125,0z" />
    </g>
  </g>
</svg>