<?xml version="1.0" encoding="utf-8"?>
<!DOCTYPE svg PUBLIC "-//W3C//DTD SVG 1.1//EN" "http://www.w3.org/Graphics/SVG/1.1/DTD/svg11.dtd">
<svg width="50.361328125" height="50.33203125" xmlns="http://www.w3.org/2000/svg" xmlns:xlink="http://www.w3.org/1999/xlink" xmlns:xml="http://www.w3.org/XML/1998/namespace" version="1.1">
  <g>
    <g>
      <path style="fill:#FF0000;fill-opacity:1" d="M5.595703125,9.697265625L3.2244873046875,13.223876953125 1.53076171875,16.9775390625 0.5145263671875,20.958251953125 0.17578125,25.166015625 0.399169921875,28.546142578125 1.0693359375,31.7724609375 3.57421875,37.734375 7.5,42.83203125 12.59765625,46.728515625 18.57421875,49.2626953125 21.8188457489014,49.954833984375 25.166015625,50.185546875 29.42138671875,49.8468017578125 33.427734375,48.83056640625 37.18505859375,47.1368408203125 40.693359375,44.765625 5.595703125,9.697265625z M25.166015625,0.205077886581421L20.9710693359375,0.538329839706421 16.99951171875,1.53808569908142 13.2513427734375,3.20434546470642 9.7265625,5.537109375 44.794921875,40.634765625 47.1276817321777,37.130126953125 48.7939414978027,33.3837890625 49.7936973571777,29.395751953125 50.126953125,25.166015625 49.9035606384277,21.8151874542236 49.2333984375,18.5595703125 46.69921875,12.568359375 42.7880859375,7.529296875 37.734375,3.61816334724426 34.8486328125,2.15698194503784 31.7578125,1.08398365974426 28.51318359375,0.424804389476776 25.166015625,0.205077886581421z M0,0L50.361328125,0 50.361328125,50.33203125 0,50.33203125 0,0z" />
    </g>
  </g>
</svg>