<?xml version="1.0" encoding="utf-8"?>
<!DOCTYPE svg PUBLIC "-//W3C//DTD SVG 1.1//EN" "http://www.w3.org/Graphics/SVG/1.1/DTD/svg11.dtd">
<svg width="54.755859375" height="67.3828125" xmlns="http://www.w3.org/2000/svg" xmlns:xlink="http://www.w3.org/1999/xlink" xmlns:xml="http://www.w3.org/XML/1998/namespace" version="1.1">
  <g>
    <g>
      <path style="fill:#FF0000;fill-opacity:1" d="M27.36328125,48.427734375L28.857421875,49.04296875 29.47265625,50.537109375 28.857421875,52.03125 27.36328125,52.646484375 25.8837890625,52.0166015625 25.25390625,50.537109375 25.8837890625,49.0576171875 27.36328125,48.427734375z M27.36328125,40.01953125L28.857421875,40.634765625 29.47265625,42.12890625 28.8427734375,43.59375 27.36328125,44.208984375 25.8837890625,43.59375 25.25390625,42.12890625 25.8837890625,40.6494140625 27.36328125,40.01953125z M16.845703125,33.69140625L14.2822265625,36.240234375 12.2900390625,39.2578125 10.986328125,42.626953125 10.517578125,46.201171875 10.5322265625,46.5966796875 10.576171875,46.9921875 10.83984375,49.658203125 11.54296875,52.1484375 13.9892578125,56.5283203125 17.5927734375,60.0146484375 22.0166015625,62.3291015625 24.444580078125,62.955322265625 26.953125,63.1640625 27.744140625,63.1640625 31.9482421875,62.5634765625 35.8447265625,60.87890625 39.2138671875,58.271484375 41.865234375,54.9462890625 43.59375,51.09375 44.208984375,46.875 43.8171348571777,42.9931640625 42.6416015625,39.55078125 40.6750450134277,36.474609375 37.91015625,33.69140625 23.173828125,33.69140625 23.173828125,40.01953125 18.955078125,40.01953125 18.955078125,33.69140625 16.845703125,33.69140625z M46.318359375,27.36328125L46.318359375,30.087890625 41.8359375,34.599609375 42.4951171875,35.419921875 43.125,36.26953125 47.8125,31.58203125 50.537109375,31.58203125 50.537109375,29.47265625 48.427734375,29.47265625 48.427734375,27.36328125 46.318359375,27.36328125z M6.328125,27.36328125L6.328125,29.47265625 4.21875,29.47265625 4.21875,31.58203125 6.943359375,31.58203125 11.630859375,36.26953125 12.2607421875,35.419921875 12.919921875,34.599609375 8.408203125,30.087890625 8.408203125,27.36328125 6.328125,27.36328125z M27.36328125,23.173828125L28.388671875,23.4228515625 29.736328125,24.0234375 31.0693359375,24.7265625 32.109375,25.283203125 31.0546875,25.83984375 29.7216796875,26.5283203125 28.388671875,27.1142578125 27.36328125,27.36328125 25.8837890625,26.748046875 25.25390625,25.283203125 25.8837890625,23.8037109375 27.36328125,23.173828125z M15.5859375,18.955078125L14.9560546875,21.03515625 14.736328125,23.173828125 15.263671875,26.513671875 16.845703125,29.47265625 37.91015625,29.47265625 39.4921875,26.513671875 40.01953125,23.173828125 39.7998046875,21.03515625 39.169921875,18.955078125 33.8671875,18.955078125 35.2587890625,19.6142578125 35.80078125,21.064453125 35.80078125,23.173828125 35.1708984375,24.6533203125 33.69140625,25.283203125 32.2119140625,24.6533203125 31.58203125,23.173828125 31.58203125,21.064453125 32.1240234375,19.6142578125 33.515625,18.955078125 21.240234375,18.955078125 22.6025390625,19.6435546875 23.173828125,21.064453125 23.173828125,23.173828125 22.5439453125,24.6533203125 21.064453125,25.283203125 19.5849609375,24.6533203125 18.955078125,23.173828125 18.955078125,21.064453125 19.4970703125,19.6142578125 20.888671875,18.955078125 15.5859375,18.955078125z M14.736328125,14.736328125L14.736328125,16.845703125 40.01953125,16.845703125 40.01953125,14.736328125 14.736328125,14.736328125z M18.955078125,4.21874952316284L18.955078125,12.626953125 35.80078125,12.626953125 35.80078125,4.21874952316284 18.955078125,4.21874952316284z M14.736328125,0L40.01953125,0 40.01953125,10.517578125 44.208984375,10.517578125 44.208984375,23.173828125 52.646484375,23.173828125 52.646484375,25.283203125 54.755859375,25.283203125 54.755859375,35.80078125 49.5703125,35.80078125 46.787109375,38.5546875 48.0029296875,42.3486328125 48.427734375,46.318359375 47.6806640625,51.9140625 45.556640625,56.953125 42.2607421875,61.2158203125 37.998046875,64.51171875 32.958984375,66.6357421875 27.36328125,67.3828125 23.1335430145264,66.968994140625 19.1748046875,65.7275390625 15.59326171875,63.768310546875 12.4951171875,61.201171875 9.93896484375,58.092041015625 7.9833984375,54.5068359375 6.74194240570068,50.548095703125 6.328125,46.318359375 6.7529296875,42.3486328125 7.939453125,38.5546875 5.185546875,35.80078125 0,35.80078125 0,25.283203125 2.109375,25.283203125 2.109375,23.173828125 10.517578125,23.173828125 10.517578125,10.517578125 14.736328125,10.517578125 14.736328125,0z" />
    </g>
  </g>
</svg>