<?xml version="1.0" encoding="utf-8"?>
<!DOCTYPE svg PUBLIC "-//W3C//DTD SVG 1.1//EN" "http://www.w3.org/Graphics/SVG/1.1/DTD/svg11.dtd">
<svg width="42.01171875" height="41.953125" xmlns="http://www.w3.org/2000/svg" xmlns:xlink="http://www.w3.org/1999/xlink" xmlns:xml="http://www.w3.org/XML/1998/namespace" version="1.1">
  <g>
    <g>
      <path style="fill:#FF0000;fill-opacity:1" d="M38.37890625,29.0625L42.01171875,29.0625 42.01171875,31.142578125 41.46240234375,35.67626953125 39.814453125,38.90625 38.29833984375,40.2392578125 36.357421875,41.19140625 33.99169921875,41.7626953125 31.201171875,41.953125 29.150390625,41.953125 29.150390625,38.3203125 31.201171875,38.3203125 34.59228515625,37.939453125 36.796875,36.796875 37.9833984375,34.62158203125 38.37890625,31.142578125 38.37890625,29.0625z M0,29.0625L3.6328125,29.0625 3.6328125,31.142578125 4.0283203125,34.62158203125 5.21484375,36.796875 7.41943359375,37.939453125 10.810546875,38.3203125 12.861328125,38.3203125 12.861328125,41.953125 10.810546875,41.953125 8.02001953125,41.7626953125 5.654296875,41.19140625 3.71337890625,40.2392578125 2.197265625,38.90625 0.54931640625,35.67626953125 0,31.142578125 0,29.0625z M29.150390625,0L31.201171875,0 33.99169921875,0.1904296875 36.357421875,0.76171875 38.29833984375,1.7138671875 39.814453125,3.046875 41.46240234375,6.29150390625 42.01171875,10.810546875 42.01171875,12.890625 38.37890625,12.890625 38.37890625,10.810546875 37.9833984375,7.34619140625 36.796875,5.15625 34.59228515625,4.013671875 31.201171875,3.6328125 29.150390625,3.6328125 29.150390625,0z M10.810546875,0L12.861328125,0 12.861328125,3.6328125 10.810546875,3.6328125 7.41943359375,4.013671875 5.21484375,5.15625 4.0283203125,7.34619140625 3.6328125,10.810546875 3.6328125,12.890625 0,12.890625 0,10.810546875 0.54931640625,6.29150390625 2.197265625,3.046875 3.71337890625,1.7138671875 5.654296875,0.76171875 8.02001953125,0.1904296875 10.810546875,0z" />
    </g>
  </g>
</svg>