<?xml version="1.0" encoding="utf-8"?>
<!DOCTYPE svg PUBLIC "-//W3C//DTD SVG 1.1//EN" "http://www.w3.org/Graphics/SVG/1.1/DTD/svg11.dtd">
<svg width="67.3828125" height="67.3828125" xmlns="http://www.w3.org/2000/svg" xmlns:xlink="http://www.w3.org/1999/xlink" xmlns:xml="http://www.w3.org/XML/1998/namespace" version="1.1">
  <g>
    <g>
      <path style="fill:#FF0000;fill-opacity:1" d="M8.4375,52.646484375L14.736328125,58.974609375 17.080078125,58.388671875 18.955078125,56.865234375 20.830078125,58.388671875 23.173828125,58.974609375 25.5029296875,58.388671875 27.36328125,56.865234375 29.23828125,58.388671875 31.58203125,58.974609375 33.92578125,58.388671875 35.80078125,56.865234375 37.67578125,58.388671875 40.01953125,58.974609375 42.3486328125,58.388671875 44.208984375,56.865234375 46.083984375,58.388671875 48.427734375,58.974609375 50.771484375,58.388671875 52.646484375,56.865234375 54.521484375,58.388671875 56.865234375,58.974609375 59.1943359375,58.388671875 61.0546875,56.865234375 61.0546875,52.646484375 8.4375,52.646484375z M4.21875,46.318359375L4.21875,50.537109375 63.1640625,50.537109375 63.1640625,46.318359375 4.21875,46.318359375z M25.25390625,14.736328125L12.626953125,40.01953125 11.953125,40.01953125 10.9423828125,40.2099609375 10.517578125,41.07421875 10.8251953125,41.8212890625 11.572265625,42.12890625 25.25390625,42.12890625 25.25390625,14.736328125z M31.58203125,10.517578125L31.58203125,42.12890625 47.373046875,42.12890625 48.1201171875,41.8212890625 48.427734375,41.07421875 47.958984375,40.1806640625 46.93359375,40.01953125 46.318359375,40.01953125 31.58203125,10.517578125z M28.41796875,4.21874952316284L27.685546875,4.541015625 27.36328125,5.2734375 27.36328125,44.23828125 29.47265625,44.23828125 29.47265625,5.09765577316284 29.1064453125,4.46777296066284 28.41796875,4.21874952316284z M28.41796875,0L30.46875,0.424805164337158 32.1533203125,1.58203077316284 33.28125,3.28125 33.69140625,5.33203172683716 49.072265625,36.064453125 50.5224609375,36.8408203125 51.650390625,38.0126953125 52.3828125,39.462890625 52.646484375,41.07421875 52.529296875,42.12890625 67.3828125,42.12890625 67.3828125,67.3828125 0,67.3828125 0,42.12890625 6.416015625,42.12890625 6.328125,41.07421875 6.591796875,39.462890625 7.32421875,38.0126953125 8.4521484375,36.8408203125 9.90234375,36.064453125 23.173828125,9.55078125 23.14453125,8.0126953125 23.115234375,6.4453125 23.115234375,5.91796875 23.14453125,4.98046827316284 23.291015625,4.10156202316284 24.0087890625,2.47558546066284 25.166015625,1.17187523841858 26.66015625,0.307617664337158 28.41796875,0z" />
    </g>
  </g>
</svg>