<?xml version="1.0" encoding="utf-8"?>
<!DOCTYPE svg PUBLIC "-//W3C//DTD SVG 1.1//EN" "http://www.w3.org/Graphics/SVG/1.1/DTD/svg11.dtd">
<svg width="67.3828125000027" height="67.3828125" xmlns="http://www.w3.org/2000/svg" xmlns:xlink="http://www.w3.org/1999/xlink" xmlns:xml="http://www.w3.org/XML/1998/namespace" version="1.1">
  <g>
    <g>
      <path style="fill:#FF0000;fill-opacity:1" d="M14.736328125,44.23828125L13.00048828125,45.948486328125 11.66015625,47.9736328125 10.80322265625,50.233154296875 10.517578125,52.646484375 10.810546875,54.169921875 11.6162109375,55.458984375 12.8173828125,56.3818359375 14.296875,56.8359375 13.1103515625,56.103515625 12.626953125,54.78515625 13.212890625,52.44140625 14.736328125,50.56640625 16.259765625,52.44140625 16.845703125,54.78515625 16.376953125,56.1181640625 15.17578125,56.8359375 16.6552734375,56.3818359375 17.8564453125,55.458984375 18.662109375,54.169921875 18.955078125,52.646484375 18.6694316864014,50.233154296875 17.8125,47.9736328125 16.4721660614014,45.948486328125 14.736328125,44.23828125z M55.810546875,42.099609375L55.4296875,42.1728515625 55.107421875,42.36328125 56.25,44.619140625 56.630859375,43.9453125 56.865234375,43.18359375 56.5576171875,42.4365234375 55.810546875,42.099609375z M5.2734375,42.099609375L4.5263671875,42.4365234375 4.21875,43.18359375 4.39453125,43.857421875 4.8193359375,44.7216796875 5.302734375,45.615234375 5.654296875,46.318359375 8.02734375,46.318359375 6.2109375,42.685546875 5.8154296875,42.275390625 5.2734375,42.099609375z M58.681640625,36.064453125L57.509765625,37.412109375 55.810546875,37.91015625 54.755859375,37.734375 54.755859375,40.1953125 55.810546875,40.01953125 57.041015625,40.2685546875 58.0517578125,40.9423828125 58.7255859375,41.953125 58.974609375,43.18359375 58.8134765625,44.1796875 58.4033203125,45.1611328125 57.890625,46.0986328125 57.421875,46.9921875 58.154296875,48.427734375 20.302734375,48.427734375 20.859375,50.5078125 21.064453125,52.646484375 20.8740215301514,54.27978515625 20.302734375,55.6640625 18.193359375,57.94921875 20.478515625,59.0625 21.064453125,60 20.7568359375,60.7470703125 20.009765625,61.0546875 19.1162109375,60.7763671875 17.783203125,60.146484375 16.435546875,59.443359375 15.46875,58.916015625 15.1025390625,58.9599609375 14.736328125,58.974609375 14.3701171875,58.9599609375 14.00390625,58.916015625 13.037109375,59.4140625 11.689453125,60.1318359375 10.37109375,60.7763671875 9.4921875,61.0546875 8.73046875,60.76171875 8.408203125,60.029296875 8.583984375,59.4873046875 8.994140625,59.0625 11.279296875,57.94921875 9.1552734375,55.6640625 8.4375,52.646484375 8.6279296875,50.5078125 9.169921875,48.427734375 4.21875,48.427734375 4.21875,63.1640625 63.1640625,63.1640625 63.1640625,37.734375 62.109375,37.91015625 60.41015625,37.412109375 58.974609375,36.328125 58.681640625,36.064453125z M4.21875,31.58203125L4.21875,40.1953125 5.2734375,40.01953125 6.884765625,40.458984375 11.337890625,31.58203125 4.21875,31.58203125z M44.208984375,25.283203125L33.69140625,46.318359375 40.01953125,46.318359375 42.12890625,37.8955078125 44.208984375,29.47265625 46.34765625,37.880859375 48.427734375,46.318359375 54.755859375,46.318359375 52.6025390625,41.865234375 50.33203125,37.470703125 47.28515625,31.3623046875 44.208984375,25.283203125z M16.845703125,25.283203125L12.59765625,33.779296875 8.349609375,42.275390625 9.375,44.1943359375 10.283203125,46.171875 12.275390625,43.623046875 14.736328125,41.484375 17.2265625,43.681640625 19.306640625,46.318359375 31.34765625,46.318359375 41.865234375,25.283203125 16.845703125,25.283203125z M52.646484375,10.517578125L52.177734375,10.6494140625 51.796875,10.986328125 51.15234375,11.8505859375 50.0830078125,13.3154296875 48.80859375,15.0732421875 47.5927734375,16.8017578125 46.6845703125,18.2080078125 46.318359375,18.955078125 46.5234375,19.5556640625 47.05078125,19.951171875 45.205078125,22.529296875 46.318359375,24.755859375 48.662109375,29.47265625 51.03515625,34.189453125 52.646484375,31.58203125 54.755859375,35.009765625 55.1806640625,35.56640625 55.810546875,35.80078125 56.54296875,35.478515625 56.865234375,34.74609375 56.865234375,31.9921875 61.46484375,35.56640625 62.109375,35.80078125 62.841796875,35.5078125 63.1640625,34.8046875 62.8271484375,33.9111328125 62.0361328125,32.6953125 61.1279296875,31.46484375 60.41015625,30.52734375 61.201171875,31.2158203125 62.109375,31.58203125 62.8857421875,31.259765625 63.1640625,30.46875 63.10546875,30.17578125 62.98828125,29.912109375 61.3623046875,27.5830078125 59.6484375,25.283203125 60.615234375,25.078125 61.0546875,24.228515625 60.6884765625,23.3349609375 59.8388671875,22.0751953125 58.9013671875,20.8154296875 58.2421875,19.951171875 58.76953125,19.5556640625 58.974609375,18.955078125 58.6083984375,18.2080078125 57.7001953125,16.8017578125 56.484375,15.0732421875 55.2099609375,13.3154296875 54.140625,11.8505859375 53.49609375,10.986328125 53.115234375,10.6494140625 52.646484375,10.517578125z M33.69140625,10.517578125L31.23046875,11.015625 29.2236328125,12.3779296875 27.861328125,14.384765625 27.36328125,16.845703125 27.861328125,19.306640625 29.2236328125,21.3134765625 31.23046875,22.67578125 33.69140625,23.173828125 35.625,22.8662109375 37.3388671875,22.001953125 38.7158203125,20.654296875 39.638671875,18.92578125 37.294921875,18.3251953125 35.4052734375,16.962890625 34.1455078125,15.0146484375 33.69140625,12.626953125 33.69140625,10.517578125z M14.736328125,4.21874952316284L13.88671875,4.6875 8.642578125,12.01171875 8.4375,12.626953125 8.6279296875,13.2275390625 9.140625,13.623046875 6.533203125,17.28515625 6.328125,17.900390625 6.7529296875,18.7646484375 7.73437404632568,18.955078125 4.39453125,23.61328125 4.21875,24.19921875 4.5263671875,24.9609375 5.2734375,25.283203125 6.181640625,24.8876953125 6.97265625,24.228515625 4.423828125,27.802734375 4.21875,28.41796875 4.5263671875,29.1650390625 5.2734375,29.47265625 5.625,29.443359375 5.91796875,29.267578125 10.517578125,25.6640625 10.517578125,28.41796875 10.8251953125,29.1650390625 11.572265625,29.47265625 12.2021484375,29.2529296875 12.626953125,28.7109375 14.1650390625,25.9716796875 15.556640625,23.173828125 24.755859375,23.173828125 21.73828125,18.955078125 22.734375,18.7646484375 23.173828125,17.900390625 22.79296875,17.05078125 21.9140625,15.7470703125 20.947265625,14.4580078125 20.33203125,13.623046875 20.859375,13.2275390625 21.064453125,12.626953125 20.830078125,12.01171875 15.5859375,4.6875 14.736328125,4.21874952316284z M14.736328125,0L17.1826171875,0.600585699081421 19.04296875,2.28515625 24.2578125,9.580078125 24.66796875,10.2392578125 24.990234375,10.95703125 26.678466796875,9.005126953125 28.7548828125,7.5439453125 31.124267578125,6.63208293914795 33.69140625,6.328125 37.91015625,6.328125 37.91015625,12.626953125 38.466796875,14.0625 39.873046875,14.70703125 43.798828125,14.94140625 48.369140625,8.5546875 50.244140625,6.9287109375 52.646484375,6.328125 55.0634765625,6.943359375 56.953125,8.583984375 62.16796875,15.87890625 62.9150390625,17.34375 63.1640625,18.955078125 63.1640625,19.2626953125 63.134765625,19.5703125 63.33984375,19.833984375 64.7021484375,21.8408203125 65.2734375,24.228515625 65.09765625,25.634765625 65.888671875,26.748046875 67.3828125,27.01171875 67.3828125,67.3828125 0,67.3828125 0,27.333984375 0.1171875,27.333984375 0.2490234375,26.806640625 0.439453601837158,26.30859375 0,24.19921875 0.190429210662842,22.763671875 0.703125,21.5478515625 1.435546875,20.4345703125 2.28515625,19.306640625 2.109375,17.900390625 2.2998046875,16.5673828125 2.783203125,15.41015625 3.45703220367432,14.3408203125 4.248046875,13.2421875 4.2041015625,12.9052734375 4.189453125,12.568359375 4.482421875,10.9423828125 5.2734375,9.4921875 10.458984375,2.22656226158142 12.333984375,0.600585699081421 14.736328125,0z" />
    </g>
  </g>
</svg>