<?xml version="1.0" encoding="utf-8"?>
<!DOCTYPE svg PUBLIC "-//W3C//DTD SVG 1.1//EN" "http://www.w3.org/Graphics/SVG/1.1/DTD/svg11.dtd">
<svg width="67.3828125000058" height="50.537109375" xmlns="http://www.w3.org/2000/svg" xmlns:xlink="http://www.w3.org/1999/xlink" xmlns:xml="http://www.w3.org/XML/1998/namespace" version="1.1">
  <g>
    <g>
      <path style="fill:#FF0000;fill-opacity:1" d="M37.91015625,14.736328125L35.35400390625,14.94140625 32.958984375,15.556640625 28.7841796875,17.87109375 25.5908203125,21.4453125 23.583984375,26.015625 23.49609375,26.30859375 21.2915019989014,25.5395526885986 18.955078125,25.283203125 16.8493633270264,25.4882831573486 14.8681640625,26.103515625 11.513671875,28.359375 9.2431640625,31.69921875 8.616943359375,33.6767578125 8.408203125,35.80078125 8.616943359375,37.9248046875 9.2431640625,39.90234375 11.513671875,43.2421875 14.8681640625,45.498046875 16.8493633270264,46.11328125 18.955078125,46.318359375 54.755859375,46.318359375 58.0224609375,45.6591796875 60.703125,43.857421875 62.5048828125,41.1767578125 63.1640625,37.91015625 62.5048828125,34.6142578125 60.703125,31.93359375 58.037109375,30.1318359375 54.755859375,29.47265625 52.646484375,29.47265625 52.3571739196777,26.5173358917236 51.4892578125,23.7451171875 50.1196250915527,21.23291015625 48.3251953125,19.0576171875 46.1498985290527,17.26318359375 43.6376953125,15.8935546875 40.8654747009277,15.025634765625 37.91015625,14.736328125z M23.26171875,14.736328125L19.951171875,15.3955078125 17.2412109375,17.197265625 15.41015625,19.8779296875 14.736328125,23.173828125 14.736328125,23.525390625 14.765625,23.876953125 16.845703125,23.3349609375 18.984375,23.14453125 22.119140625,23.5546875 24.3896484375,19.423828125 27.71484375,16.083984375 25.5908203125,15.087890625 23.26171875,14.736328125z M18.662109375,6.328125L17.28515625,12.978515625 10.83984375,10.83984375 12.978515625,17.28515625 6.328125,18.662109375 11.396484375,23.173828125 6.328125,27.685546875 8.84765625,28.18359375 10.6201171875,26.2939453125 12.744140625,24.78515625 12.65625,23.994140625 12.626953125,23.203125 12.835693359375,21.075439453125 13.4619140625,19.0869140625 15.7177734375,15.732421875 19.0576171875,13.4619140625 21.0461406707764,12.835693359375 23.173828125,12.626953125 26.5576171875,13.1982421875 29.58984375,14.82421875 32.1240234375,13.65234375 34.8046875,12.919921875 35.5078125,10.83984375 29.033203125,12.978515625 27.685546875,6.328125 23.173828125,11.396484375 18.662109375,6.328125z M17.197265625,0L18.369140625,0.102538824081421 19.365234375,0.76171875 23.173828125,5.06835985183716 26.982421875,0.76171875 27.6123046875,0.263671875 28.359375,0 30.1025390625,0.380859375 31.0546875,1.87499988079071 32.2265625,7.5 33.544921875,7.03125 35.390625,6.38671875 37.20703125,5.8154296875 38.408203125,5.56640625 40.078125,6.2548828125 40.78125,7.91015625 40.5029296875,9.3017578125 39.990234375,10.634765625 42.9272422790527,11.2060546875 45.703125,12.216796875 50.5517578125,15.380859375 54.2138671875,19.86328125 55.5139122009277,22.5146484375 56.396484375,25.37109375 58.656005859375,25.8874530792236 60.7470703125,26.7919921875 64.2333984375,29.560546875 66.5478515625,33.369140625 67.174072265625,35.56640625 67.3828125,37.880859375 67.119140625,40.48095703125 66.328125,42.890625 63.486328125,46.904296875 59.326171875,49.5703125 56.8798828125,50.29541015625 54.287109375,50.537109375 19.39453125,50.537109375 16.373291015625,50.2587890625 13.5205078125,49.423828125 10.927734375,48.094482421875 8.6865234375,46.3330078125 6.83349514007568,44.176025390625 5.4052734375,41.66015625 4.493408203125,38.84765625 4.189453125,35.80078125 4.8046875,31.669921875 1.875,31.0546875 1.23046875,30.8203125 0.6298828125,30.380859375 0.175781726837158,29.794921875 0,29.12109375 0.0878901481628418,27.9638671875 0.76171875,26.982421875 5.068359375,23.173828125 0.76171875,19.365234375 0.263671875,18.720703125 0,17.98828125 0.380859375,16.23046875 1.875,15.263671875 7.470703125,14.12109375 7.001953125,12.7880859375 6.357421875,10.927734375 5.7861328125,9.0966796875 5.537109375,7.88085889816284 5.7275390625,6.98730421066284 6.2548828125,6.2548828125 7.0166015625,5.7568359375 7.91015625,5.56640625 9.1259765625,5.8154296875 10.95703125,6.38671875 12.802734375,7.03125 14.12109375,7.5 15.263671875,1.87499988079071 15.498046875,1.2451171875 15.9375,0.6298828125 16.5234375,0.175781726837158 17.197265625,0z" />
    </g>
  </g>
</svg>