<?xml version="1.0" encoding="utf-8"?>
<!DOCTYPE svg PUBLIC "-//W3C//DTD SVG 1.1//EN" "http://www.w3.org/Graphics/SVG/1.1/DTD/svg11.dtd">
<svg width="44.267578125" height="42.01171875" xmlns="http://www.w3.org/2000/svg" xmlns:xlink="http://www.w3.org/1999/xlink" xmlns:xml="http://www.w3.org/XML/1998/namespace" version="1.1">
  <g>
    <g>
      <path style="fill:#FF0000;fill-opacity:1" d="M28.037109375,25.576171875L28.59375,27.216796875 8.203125,42.01171875 13.359375,26.513671875 14.94140625,27.568359375 11.689453125,37.5 11.748046875,37.412109375 28.037109375,25.576171875z M26.396484375,18.310546875L28.271484375,18.310546875 36.181640625,42.01171875 22.822265625,32.40234375 24.19921875,31.34765625 32.6953125,37.5 26.396484375,18.310546875z M19.51171875,15.9375L44.267578125,15.9375 31.376953125,25.224609375 30.8203125,23.525390625 38.876953125,17.666015625 18.92578125,17.666015625 19.51171875,15.9375z M0,15.9375L16.142578125,15.9375 15.5859375,17.666015625 5.185546875,17.666015625 21.4453125,29.384765625 20.126953125,30.380859375 0,15.9375z M22.177734375,0L27.24609375,15.263671875 25.400390625,15.263671875 22.177734375,5.478515625 15.966796875,24.43359375 14.4140625,23.349609375 22.177734375,0z" />
    </g>
  </g>
</svg>