<?xml version="1.0" encoding="utf-8"?>
<!DOCTYPE svg PUBLIC "-//W3C//DTD SVG 1.1//EN" "http://www.w3.org/Graphics/SVG/1.1/DTD/svg11.dtd">
<svg width="43.857421875" height="44.53125" xmlns="http://www.w3.org/2000/svg" xmlns:xlink="http://www.w3.org/1999/xlink" xmlns:xml="http://www.w3.org/XML/1998/namespace" version="1.1">
  <g>
    <g>
      <path style="fill:#FF0000;fill-opacity:1" d="M41.455078125,4.8046875L43.18359375,5.478515625 43.857421875,7.1484375 43.487548828125,8.28735542297363 42.3779296875,9.3017578125 40.579833984375,10.2795429229736 38.14453125,11.30859375 40.279541015625,12.191162109375 41.9384765625,13.6083984375 43.004150390625,15.399169921875 43.359375,17.40234375 43.157958984375,19.2910766601563 42.5537109375,21.002197265625 41.546630859375,22.5357055664063 40.13671875,23.8916015625 36.5698204040527,25.792236328125 32.314453125,26.42578125 28.125,25.927734375 25.7373046875,28.8418579101563 22.91015625,31.842041015625 19.6435546875,34.9282836914063 15.9375,38.1005859375 12.1728515625,40.9140014648438 8.73046875,42.923583984375 5.61035108566284,44.1293334960938 2.81249952316284,44.53125 0.761718273162842,43.88671875 0.190429627895355,43.1396484375 0,42.1875 0.216064393520355,41.158447265625 0.864257335662842,40.3564453125 2.02514600753784,39.693603515625 3.77929639816284,39.08203125 8.4814453125,37.06787109375 13.505859375,33.837890625 18.46435546875,29.61181640625 22.96875,24.609375 21.9360332489014,23.5986328125 21.591796875,22.20703125 21.8957500457764,20.877685546875 22.8076171875,19.8779296875 24.129638671875,19.251708984375 25.6640625,19.04296875 28.1103515625,19.716796875 28.992919921875,20.419921875 29.443359375,21.181640625 32.51953125,21.5625 34.7241172790527,21.3079833984375 36.2988243103027,20.54443359375 37.2436485290527,19.2718505859375 37.55859375,17.490234375 37.2015342712402,16.087646484375 36.1303672790527,14.9267578125 34.3450889587402,14.007568359375 31.845703125,13.330078125 30.2197265625,12.568359375 29.677734375,11.044921875 30.29296875,9.37500190734863 32.138671875,8.525390625 33.4387168884277,8.17383003234863 35.2880859375,7.470703125 37.1813926696777,6.62109518051147 38.61328125,5.830078125 40.14404296875,5.06103658676147 41.455078125,4.8046875z M32.197265625,0L33.3801231384277,0.19775390625 34.2919921875,0.791015625 34.8742637634277,1.7138671875 35.068359375,2.900390625 34.8339805603027,4.03930807113647 34.130859375,5.0537109375 33.1347618103027,5.76782369613647 32.021484375,6.005859375 30.81298828125,5.81543111801147 29.8828125,5.244140625 29.28955078125,4.36523580551147 29.091796875,3.251953125 29.337158203125,2.13134837150574 30.0732421875,1.0546875 31.0949687957764,0.263671875 32.197265625,0z" />
    </g>
  </g>
</svg>