<?xml version="1.0" encoding="utf-8"?>
<!DOCTYPE svg PUBLIC "-//W3C//DTD SVG 1.1//EN" "http://www.w3.org/Graphics/SVG/1.1/DTD/svg11.dtd">
<svg width="29.9414062500002" height="25.95703125" xmlns="http://www.w3.org/2000/svg" xmlns:xlink="http://www.w3.org/1999/xlink" xmlns:xml="http://www.w3.org/XML/1998/namespace" version="1.1">
  <g>
    <g>
      <path style="fill:#FF0000;fill-opacity:1" d="M27.36328125,0L29.23828125,0.615234375 29.94140625,2.34375 29.6383666992188,4.09149169921875 28.729248046875,6.170654296875 27.2140502929688,8.58123779296875 25.0927734375,11.3232421875 19.76806640625,16.787109375 13.4912109375,21.5478515625 10.2877807617188,23.4768676757813 7.430419921875,24.854736328125 4.91912841796875,25.6814575195313 2.75390625,25.95703125 0.76171875,25.25390625 0.190429508686066,24.49951171875 0,23.642578125 0.329589754343033,21.85546875 1.318359375,19.541015625 3.25195264816284,14.560546875 3.896484375,9.697265625 3.193359375,6.181640625 2.6953125,3.955078125 3.3837890625,2.1240234375 5.390625,1.376953125 7.09533643722534,1.84570419788361 8.31298732757568,3.25195455551147 9.04357814788818,5.59570407867432 9.287109375,8.876953125 8.56933498382568,15.15380859375 6.416015625,20.15625 11.4990234375,17.10205078125 16.611328125,12.802734375 21.0644512176514,7.72705078125 24.169921875,2.34375 25.4956035614014,0.585938930511475 27.36328125,0z" />
    </g>
  </g>
</svg>