<?xml version="1.0" encoding="utf-8"?>
<!DOCTYPE svg PUBLIC "-//W3C//DTD SVG 1.1//EN" "http://www.w3.org/Graphics/SVG/1.1/DTD/svg11.dtd">
<svg width="24.375" height="34.921875" xmlns="http://www.w3.org/2000/svg" xmlns:xlink="http://www.w3.org/1999/xlink" xmlns:xml="http://www.w3.org/XML/1998/namespace" version="1.1">
  <g>
    <g>
      <path style="fill:#FF0000;fill-opacity:1" d="M16.40625,22.060546875L14.490966796875,22.3150634765625 12.7294921875,23.07861328125 11.121826171875,24.3511962890625 9.66796875,26.1328125 12.0410146713257,27.1875 14.70703125,27.5390625 16.937255859375,27.337646484375 18.6474609375,26.7333984375 19.735107421875,25.792236328125 20.09765625,24.580078125 19.866943359375,23.477783203125 19.1748046875,22.6904296875 18.021240234375,22.218017578125 16.40625,22.060546875z M15.5859375,0L19.306640625,0.366212368011475 22.55859375,1.46484375 22.55859375,6.38671875 19.1015625,4.62890768051147 15.41015625,4.04296875 13.2138051986694,4.24896335601807 11.2243642807007,4.86694478988647 9.44183254241943,5.89691257476807 7.8662109375,7.3388671875 5.657958984375,11.151123046875 4.921875,15.99609375 5.4345703125,20.15625 6.97265625,23.49609375 9.08569240570068,21.18896484375 11.3818349838257,19.541015625 13.8610830307007,18.55224609375 16.5234375,18.22265625 19.66552734375,18.665771484375 22.177734375,19.9951171875 23.8256816864014,21.998291015625 24.375,24.462890625 23.6865215301514,27.198486328125 21.62109375,29.4287109375 18.427734375,30.911865234375 14.35546875,31.40625 10.8837881088257,31.0546875 7.734375,30 6.73828125,34.921875 2.63671875,34.921875 3.28125,31.1572265625 4.453125,27.71484375 2.5048828125,25.426025390625 1.11328125,22.7783203125 0.2783203125,19.771728515625 0,16.40625 0.2655029296875,12.8823852539063 1.06201171875,9.722900390625 2.3895263671875,6.92779541015625 4.248046875,4.4970703125 6.5496826171875,2.52960300445557 9.20654296875,1.12426900863647 12.2186279296875,0.281067967414856 15.5859375,0z" />
    </g>
  </g>
</svg>