<?xml version="1.0" encoding="utf-8"?>
<!DOCTYPE svg PUBLIC "-//W3C//DTD SVG 1.1//EN" "http://www.w3.org/Graphics/SVG/1.1/DTD/svg11.dtd">
<svg width="22.5" height="31.40625" xmlns="http://www.w3.org/2000/svg" xmlns:xlink="http://www.w3.org/1999/xlink" xmlns:xml="http://www.w3.org/XML/1998/namespace" version="1.1">
  <g>
    <g>
      <path style="fill:#FF0000;fill-opacity:1" d="M8.14453125,0L11.1996459960938,0.260926365852356 13.948974609375,1.04370260238647 16.3925170898438,2.34832859039307 18.5302734375,4.1748046875 20.2670269012451,6.42059326171875 21.5075664520264,8.983154296875 22.2518901824951,11.8624877929688 22.5,15.05859375 22.2427349090576,18.592529296875 21.4709453582764,21.7529296875 20.1846294403076,24.539794921875 18.3837890625,26.953125 16.1489868164063,28.9013671875 13.560791015625,30.29296875 10.6192016601563,31.1279296875 7.32421875,31.40625 3.45703125,30.98876953125 0.05859375,29.736328125 0.05859375,24.90234375 3.66210889816284,26.748046875 7.44140625,27.36328125 9.57916164398193,27.161865234375 11.5100088119507,26.5576171875 13.2339468002319,25.550537109375 14.7509765625,24.140625 16.871337890625,20.3759765625 17.578125,15.52734375 16.885986328125,10.7958984375 14.8095703125,7.1484375 13.3071889877319,5.78979587554932 11.5686025619507,4.81933736801147 9.59381008148193,4.23706150054932 7.3828125,4.04296875 3.61816358566284,4.65820455551147 0,6.50390625 0,1.962890625 3.79394483566284,0.490724086761475 8.14453125,0z" />
    </g>
  </g>
</svg>