<?xml version="1.0" encoding="utf-8"?>
<!DOCTYPE svg PUBLIC "-//W3C//DTD SVG 1.1//EN" "http://www.w3.org/Graphics/SVG/1.1/DTD/svg11.dtd">
<svg width="27.36328125" height="31.40625" xmlns="http://www.w3.org/2000/svg" xmlns:xlink="http://www.w3.org/1999/xlink" xmlns:xml="http://www.w3.org/XML/1998/namespace" version="1.1">
  <g>
    <g>
      <path style="fill:#FF0000;fill-opacity:1" d="M12.0703125,4.04296875L9.345703125,4.35058736801147 7.265625,5.2734375 5.947265625,6.69433736801147 5.5078125,8.49609375 6.005859375,10.400390625 7.5,11.89453125 9.87304592132568,12.861328125 13.0078125,13.18359375 15.46875,13.18359375 15.46875,17.34375 12.94921875,17.34375 9.437255859375,17.655029296875 6.9287109375,18.5888671875 5.423583984375,20.145263671875 4.921875,22.32421875 5.394287109375,24.400634765625 6.8115234375,26.0009765625 9.056396484375,27.022705078125 12.01171875,27.36328125 14.3133544921875,27.1710205078125 16.35498046875,26.59423828125 18.1365966796875,25.6329345703125 19.658203125,24.287109375 21.7456035614014,20.57373046875 22.44140625,15.5859375 21.7419414520264,10.755615234375 19.6435546875,7.1044921875 18.1210327148438,5.76507663726807 16.351318359375,4.80835103988647 14.3344116210938,4.23431491851807 12.0703125,4.04296875z M12.3046875,0L15.60791015625,0.258179783821106 18.544921875,1.03271627426147 21.11572265625,2.32360935211182 23.3203125,4.130859375 25.0891094207764,6.3848876953125 26.3525371551514,9.01611328125 27.1105937957764,12.0245361328125 27.36328125,15.41015625 27.1005229949951,18.8259887695313 26.3122539520264,21.895751953125 24.9984722137451,24.6194458007813 23.1591796875,26.9970703125 20.8749389648438,28.9260864257813 18.226318359375,30.303955078125 15.2133178710938,31.1306762695313 11.8359375,31.40625 6.8408203125,30.82763671875 3.10546875,29.091796875 1.746826171875,27.8265380859375 0.7763671875,26.34521484375 0.194091796875,24.6478271484375 0,22.734375 0.3863525390625,19.9951171875 1.54541015625,17.8125 3.4771728515625,16.1865234375 6.181640625,15.1171875 6.181640625,15 3.7591552734375,13.90869140625 2.02880859375,12.421875 0.99060046672821,10.53955078125 0.64453125,8.26171875 0.84320056438446,6.50390720367432 1.43920886516571,4.92187643051147 2.43255615234375,3.51562595367432 3.8232421875,2.28515625 7.532958984375,0.571290493011475 12.3046875,0z" />
    </g>
  </g>
</svg>