<?xml version="1.0" encoding="utf-8"?>
<!DOCTYPE svg PUBLIC "-//W3C//DTD SVG 1.1//EN" "http://www.w3.org/Graphics/SVG/1.1/DTD/svg11.dtd">
<svg width="21.26953125" height="59.1796875" xmlns="http://www.w3.org/2000/svg" xmlns:xlink="http://www.w3.org/1999/xlink" xmlns:xml="http://www.w3.org/XML/1998/namespace" version="1.1">
  <g>
    <g>
      <path style="fill:#FF0000;fill-opacity:1" d="M17.8125,0L19.7900390625,0.1318359375 21.26953125,0.52734375 21.26953125,4.86328125 19.7314453125,4.27001953125 18.046875,4.072265625 15.867919921875,4.4805908203125 14.3115234375,5.70556640625 13.377685546875,7.7471923828125 13.06640625,10.60546875 13.06640625,48.837890625 12.388916015625,53.096923828125 10.3564453125,56.3818359375 7.276611328125,58.480224609375 3.45703148841858,59.1796875 1.47949206829071,59.04052734375 0,58.623046875 0,54.31640625 1.53808581829071,54.8876953125 3.22265601158142,55.078125 5.42724561691284,54.6697998046875 7.001953125,53.44482421875 7.94677734375,51.4031982421875 8.26171875,48.544921875 8.26171875,10.37109375 8.935546875,6.07177734375 10.9570302963257,2.783203125 14.0185546875,0.69580078125 17.8125,0z" />
    </g>
  </g>
</svg>