<?xml version="1.0" encoding="utf-8"?>
<!DOCTYPE svg PUBLIC "-//W3C//DTD SVG 1.1//EN" "http://www.w3.org/Graphics/SVG/1.1/DTD/svg11.dtd">
<svg width="15.64453125" height="44.6484375" xmlns="http://www.w3.org/2000/svg" xmlns:xlink="http://www.w3.org/1999/xlink" xmlns:xml="http://www.w3.org/XML/1998/namespace" version="1.1">
  <g>
    <g>
      <path style="fill:#FF0000;fill-opacity:1" d="M12.7734375,0L14.4287109375,0.102540493011475 15.64453125,0.41015625 15.64453125,5.390625 14.1064453125,4.66552877426147 12.01171875,4.423828125 9.188232421875,5.14892721176147 6.87011766433716,7.32421875 5.32104539871216,10.751953125 4.80468797683716,15.234375 4.80468797683716,34.6875 5.09765672683716,37.2509765625 5.97656297683716,39.08203125 7.44140672683716,40.1806640625 9.4921875,40.546875 11.19140625,40.3564453125 12.7734375,39.78515625 12.7734375,43.828125 10.87646484375,44.443359375 8.935546875,44.6484375 5.12695360183716,44.007568359375 2.31445360183716,42.0849609375 0.578613698482513,38.997802734375 0,34.86328125 0,0.52734375 4.80468797683716,0.52734375 4.80468797683716,6.708984375 4.92187547683716,6.708984375 6.21826219558716,3.89282369613647 8.056640625,1.7724609375 10.29052734375,0.443116664886475 12.7734375,0z" />
    </g>
  </g>
</svg>