<?xml version="1.0" encoding="utf-8"?>
<!DOCTYPE svg PUBLIC "-//W3C//DTD SVG 1.1//EN" "http://www.w3.org/Graphics/SVG/1.1/DTD/svg11.dtd">
<svg width="35.654296875" height="58.857421875" xmlns="http://www.w3.org/2000/svg" xmlns:xlink="http://www.w3.org/1999/xlink" xmlns:xml="http://www.w3.org/XML/1998/namespace" version="1.1">
  <g>
    <g>
      <path style="fill:#FF0000;fill-opacity:1" d="M14.35546875,18.3984375L12.2515859603882,18.6016864776611 10.3930654525757,19.2114276885986 8.77990627288818,20.2276630401611 7.412109375,21.650390625 5.54443359375,25.52490234375 4.921875,30.64453125 5.533447265625,35.306396484375 7.3681640625,38.8037109375 10.1696767807007,40.989990234375 13.681640625,41.71875 17.373046875,41.00830078125 20.302734375,38.876953125 22.2143535614014,35.6396484375 22.8515625,31.611328125 22.8515625,27.0703125 22.2399883270264,23.734130859375 20.4052734375,20.9326171875 17.669677734375,19.0319843292236 14.35546875,18.3984375z M32.16796875,0L35.654296875,0.52734375 35.654296875,4.86328125 34.05029296875,4.27001953125 32.4609375,4.072265625 30.35888671875,4.4512939453125 28.857421875,5.58837890625 27.95654296875,7.4835205078125 27.65625,10.13671875 27.65625,58.857421875 22.8515625,58.857421875 22.8515625,39.9609375 22.734375,39.9609375 20.888671875,42.498779296875 18.57421875,44.3115234375 15.791015625,45.399169921875 12.5390625,45.76171875 9.8382568359375,45.5108642578125 7.41943359375,44.75830078125 5.2825927734375,43.5040283203125 3.427734375,41.748046875 1.9281005859375,39.5562744140625 0.85693359375,36.99462890625 0.2142333984375,34.0631103515625 0,30.76171875 0.23345947265625,27.2021484375 0.933837831020355,24.0234375 2.10113501548767,21.2255859375 3.73535108566284,18.80859375 5.76141357421875,16.8603534698486 8.104248046875,15.4687519073486 10.7638549804688,14.6337900161743 13.740234375,14.35546875 16.6204833984375,14.6594247817993 19.07958984375,15.5712909698486 21.1175537109375,17.0910663604736 22.734375,19.21875 22.8515625,19.21875 22.8515625,9.84375 23.5107402801514,5.811767578125 25.48828125,2.6806640625 28.4765625,0.670166015625 32.16796875,0z" />
    </g>
  </g>
</svg>