<?xml version="1.0" encoding="utf-8"?>
<!DOCTYPE svg PUBLIC "-//W3C//DTD SVG 1.1//EN" "http://www.w3.org/Graphics/SVG/1.1/DTD/svg11.dtd">
<svg width="20.947265625" height="45.05859375" xmlns="http://www.w3.org/2000/svg" xmlns:xlink="http://www.w3.org/1999/xlink" xmlns:xml="http://www.w3.org/XML/1998/namespace" version="1.1">
  <g>
    <g>
      <path style="fill:#FF0000;fill-opacity:1" d="M12.65625,0L16.89697265625,0.4541015625 20.947265625,1.81640625 20.947265625,6.357421875 16.89697265625,4.6435546875 12.65625,4.072265625 9.4482421875,4.51171875 6.97265625,5.830078125 5.390625,7.80029296875 4.86328077316284,10.1953125 5.595703125,13.505859375 6.97997999191284,15.6152362823486 9.66796875,18.603515625 12.3010244369507,21.595458984375 13.9306640625,24.1259765625 14.7766103744507,26.729736328125 15.05859375,29.94140625 20.21484375,29.94140625 20.21484375,34.013671875 15.05859375,34.013671875 15.05859375,45.05859375 10.25390625,45.05859375 10.25390625,34.013671875 4.45312452316284,34.013671875 4.45312452316284,29.94140625 10.25390625,29.94140625 10.015869140625,27.626953125 9.3017578125,25.60546875 7.972412109375,23.59130859375 5.888671875,21.298828125 2.918701171875,18.0578632354736 1.15722644329071,15.4248046875 0.289306610822678,12.9821786880493 0,10.3125 0.2197265625,8.21685791015625 0.878906190395355,6.295166015625 1.97753894329071,4.54742431640625 3.51562476158142,2.9736328125 7.55859375,0.743408203125 12.65625,0z" />
    </g>
  </g>
</svg>