<?xml version="1.0" encoding="utf-8"?>
<!DOCTYPE svg PUBLIC "-//W3C//DTD SVG 1.1//EN" "http://www.w3.org/Graphics/SVG/1.1/DTD/svg11.dtd">
<svg width="22.5585937500001" height="44.4140625" xmlns="http://www.w3.org/2000/svg" xmlns:xlink="http://www.w3.org/1999/xlink" xmlns:xml="http://www.w3.org/XML/1998/namespace" version="1.1">
  <g>
    <g>
      <path style="fill:#FF0000;fill-opacity:1" d="M6.533203125,16.69921875L4.86328125,17.2412128448486 4.306640625,18.8671875 4.5611572265625,19.969482421875 5.32470703125,20.7568359375 6.5972900390625,21.229248046875 8.37890625,21.38671875 10.25390625,21.38671875 9.898681640625,19.5556659698486 9.0673828125,18.046875 7.89916896820068,17.0361347198486 6.533203125,16.69921875z M10.25390625,0L15.05859375,0 15.05859375,21.38671875 22.55859375,21.38671875 22.55859375,25.458984375 15.05859375,25.458984375 15.05859375,44.4140625 10.25390625,44.4140625 10.25390625,25.458984375 8.3203125,25.458984375 4.7900390625,25.0341796875 2.16796827316284,23.759765625 0.541991949081421,21.73095703125 0,19.04296875 0.428466618061066,16.7358417510986 1.7138671875,14.794921875 3.651123046875,13.4765644073486 6.03515625,13.037109375 8.349609375,13.4692401885986 10.25390625,14.765625 10.25390625,0z" />
    </g>
  </g>
</svg>