<?xml version="1.0" encoding="utf-8"?>
<!DOCTYPE svg PUBLIC "-//W3C//DTD SVG 1.1//EN" "http://www.w3.org/Graphics/SVG/1.1/DTD/svg11.dtd">
<svg width="31.728515625" height="44.677734375" xmlns="http://www.w3.org/2000/svg" xmlns:xlink="http://www.w3.org/1999/xlink" xmlns:xml="http://www.w3.org/XML/1998/namespace" version="1.1">
  <g>
    <g>
      <path style="fill:#FF0000;fill-opacity:1" d="M4.013671875,0L7.34619140625,0.556641697883606 9.7265625,2.22656393051147 11.15478515625,5.00976657867432 11.630859375,8.90625 11.630859375,17.98828125 12.059326171875,22.08984375 13.3447265625,25.01953125 15.487060546875,26.77734375 18.486328125,27.36328125 21.77490234375,26.678466796875 24.4921875,24.6240234375 26.3159160614014,21.522216796875 26.923828125,17.6953125 26.923828125,0.703125 31.728515625,0.703125 31.728515625,44.677734375 26.923828125,44.677734375 26.923828125,25.72265625 26.806640625,25.72265625 24.89501953125,28.209228515625 22.6171875,29.9853515625 19.97314453125,31.051025390625 16.962890625,31.40625 14.5870971679688,31.2153625488281 12.528076171875,30.6427001953125 10.7858276367188,29.6882629394531 9.3603515625,28.35205078125 8.25164794921875,26.6340637207031 7.459716796875,24.5343017578125 6.98455810546875,22.0527648925781 6.826171875,19.189453125 6.826171875,9.228515625 6.591796875,6.95983982086182 5.888671875,5.33935689926147 4.716796875,4.36706638336182 3.076171875,4.04296875 1.48681616783142,4.26269674301147 0,4.921875 0,0.8203125 2.02880835533142,0.205079555511475 4.013671875,0z" />
    </g>
  </g>
</svg>