<?xml version="1.0" encoding="utf-8"?>
<!DOCTYPE svg PUBLIC "-//W3C//DTD SVG 1.1//EN" "http://www.w3.org/Graphics/SVG/1.1/DTD/svg11.dtd">
<svg width="41.220703125" height="39.580078125" xmlns="http://www.w3.org/2000/svg" xmlns:xlink="http://www.w3.org/1999/xlink" xmlns:xml="http://www.w3.org/XML/1998/namespace" version="1.1">
  <g>
    <g>
      <path style="fill:#FF0000;fill-opacity:1" d="M33.427734375,30.234375L31.893310546875,30.4559326171875 30.1025390625,31.12060546875 28.055419921875,32.2283935546875 25.751953125,33.779296875 28.4179668426514,35.2294921875 31.494140625,35.712890625 33.71337890625,35.50048828125 35.44921875,34.86328125 36.56982421875,33.9111328125 36.943359375,32.75390625 36.7236328125,31.651611328125 36.064453125,30.8642578125 34.9658203125,30.391845703125 33.427734375,30.234375z M9.9609375,0L9.9609375,8.876953125 17.51953125,8.876953125 17.51953125,12.978515625 9.9609375,12.978515625 9.9609375,29.82421875 10.2301025390625,32.3236083984375 11.03759765625,34.10888671875 12.3834228515625,35.1800537109375 14.267578125,35.537109375 16.640625,35.0537109375 19.423828125,33.603515625 17.490234375,29.4140625 16.845703125,24.580078125 17.1112060546875,21.0562133789063 17.90771484375,17.896728515625 19.2352294921875,15.1016235351563 21.09375,12.6708984375 23.3972148895264,10.7034311294556 26.0595684051514,9.29809761047363 29.0808086395264,8.45489597320557 32.4609375,8.173828125 36.17431640625,8.54004096984863 39.404296875,9.638671875 39.404296875,14.560546875 35.95458984375,12.8027362823486 32.28515625,12.216796875 30.0759868621826,12.4227914810181 28.0773906707764,13.0407733917236 26.2893657684326,14.0707406997681 24.7119140625,15.5126953125 22.503662109375,19.324951171875 21.767578125,24.169921875 22.177734375,27.71484375 23.408203125,30.791015625 26.34521484375,28.868408203125 29.00390625,27.4951171875 31.38427734375,26.671142578125 33.486328125,26.396484375 36.595458984375,26.84326171875 39.0673828125,28.18359375 40.682373046875,30.1904296875 41.220703125,32.63671875 40.528564453125,35.390625 38.4521484375,37.6171875 35.240478515625,39.08935546875 31.142578125,39.580078125 28.5241680145264,39.385986328125 26.1181621551514,38.8037109375 23.9245586395264,37.833251953125 21.943359375,36.474609375 19.639892578125,37.833251953125 17.4169921875,38.8037109375 15.274658203125,39.385986328125 13.212890625,39.580078125 9.6881103515625,38.9996337890625 7.17041015625,37.25830078125 5.6597900390625,34.3560791015625 5.15625,30.29296875 5.15625,12.978515625 0,12.978515625 0,8.876953125 5.15625,8.876953125 5.15625,1.552734375 9.9609375,0z" />
    </g>
  </g>
</svg>