<?xml version="1.0" encoding="utf-8"?>
<!DOCTYPE svg PUBLIC "-//W3C//DTD SVG 1.1//EN" "http://www.w3.org/Graphics/SVG/1.1/DTD/svg11.dtd">
<svg width="37.32421875" height="46.11328125" xmlns="http://www.w3.org/2000/svg" xmlns:xlink="http://www.w3.org/1999/xlink" xmlns:xml="http://www.w3.org/XML/1998/namespace" version="1.1">
  <g>
    <g>
      <path style="fill:#FF0000;fill-opacity:1" d="M10.37109375,0L14.6923828125,0.64453125 18.515625,2.548828125 21.2548828125,5.6689453125 22.0349102020264,7.672119140625 22.294921875,9.9609375 21.9653301239014,12.6123056411743 20.9765625,15.05859375 19.453125,17.2668476104736 17.51953125,19.2041015625 12.71484375,22.20703125 7.353515625,23.935546875 7.353515625,24.375 12.099609375,26.044921875 17.1240234375,28.359375 21.97265625,31.34765625 26.19140625,35.0390625 26.3671875,35.0390625 26.3671875,1.25976610183716 37.32421875,1.25976610183716 37.32421875,5.56640625 31.171875,5.56640625 31.171875,46.11328125 28.30078125,46.11328125 27.1362285614014,43.7841796875 25.576171875,41.54296875 21.5771484375,37.412109375 16.787109375,33.8232421875 11.7041015625,30.87890625 6.826171875,28.681640625 2.66601514816284,27.333984375 2.66601514816284,20.625 5.8154296875,20.009765625 9.1552734375,18.896484375 12.3486328125,17.314453125 15.0439453125,15.2783203125 16.904296875,12.802734375 17.607421875,9.873046875 17.0068359375,7.32421875 15.4248046875,5.537109375 13.212890625,4.482421875 10.72265625,4.130859375 8.115234375,4.5263671875 5.947265625,5.68359375 6.09375,5.9765625 7.5146484375,6.240234375 8.9794921875,7.0751953125 10.1220703125,8.5400390625 10.576171875,10.6640625 10.166015625,12.744140625 9.08203125,14.3408203125 7.529296875,15.3662109375 5.68359375,15.732421875 3.9111328125,15.439453125 2.05078125,14.3994140625 0.585937261581421,12.36328125 0,9.111328125 0.2197265625,6.925048828125 0.87890625,5.0537109375 3.2080078125,2.2119140625 6.5185546875,0.541992664337158 10.37109375,0z" />
    </g>
  </g>
</svg>