<?xml version="1.0" encoding="utf-8"?>
<!DOCTYPE svg PUBLIC "-//W3C//DTD SVG 1.1//EN" "http://www.w3.org/Graphics/SVG/1.1/DTD/svg11.dtd">
<svg width="52.7636718750001" height="63.017578125" xmlns="http://www.w3.org/2000/svg" xmlns:xlink="http://www.w3.org/1999/xlink" xmlns:xml="http://www.w3.org/XML/1998/namespace" version="1.1">
  <g>
    <g>
      <path style="fill:#FF0000;fill-opacity:1" d="M16.904296875,0L21.708984375,0 21.96533203125,2.22290325164795 22.55859375,3.9111328125 24.404296875,6.0498046875 26.7333984375,6.94335985183716 29.0625,7.119140625 32.34375,6.9287109375 35.3759765625,6.48925733566284 38.3056640625,6.0498046875 41.279296875,5.859375 43.99658203125,6.06811809539795 46.34765625,6.6943359375 49.9365234375,9.0966796875 52.060546875,12.890625 52.763671875,17.900390625 52.5695762634277,20.540771484375 51.9873046875,23.0712890625 51.0095176696777,25.426025390625 49.62890625,27.5390625 47.8527793884277,29.3847675323486 45.6884765625,30.9375 43.128662109375,32.1240234375 40.166015625,32.87109375 40.166015625,63.017578125 37.20703125,63.017578125 35.91796875,60.5859375 33.779296875,58.2861328125 30.908203125,56.572265625 27.451171875,55.8984375 23.8916015625,56.396484375 19.951171875,57.4951171875 15.7177734375,58.59375 11.30859375,59.091796875 8.785400390625,58.897705078125 6.5478515625,58.3154296875 3.00293016433716,56.2060546875 0.776366949081421,53.115234375 0.194091722369194,51.3134765625 0,49.423828125 0.424804449081421,46.552734375 1.78710961341858,43.65234375 1.96289038658142,43.65234375 5.59570360183716,46.46484375 5.59570360183716,46.640625 4.9951171875,48.134765625 4.8046875,49.453125 5.478515625,51.6064453125 7.20703125,53.0712890625 9.5361328125,53.9208984375 12.041015625,54.19921875 15.732421875,53.701171875 19.51171875,52.6025390625 23.49609375,51.50390625 27.7734375,51.005859375 29.8681640625,51.1669921875 31.69921875,51.6796875 33.427734375,52.587890625 35.21484375,53.935546875 35.361328125,53.935546875 35.361328125,21.09375 32.325439453125,21.70166015625 29.3115234375,22.705078125 23.90625,25.72265625 21.73095703125,27.66357421875 20.009765625,29.853515625 18.88916015625,32.255859375 18.515625,34.833984375 18.80859375,37.1630859375 19.6875,39.638671875 20.009765625,39.580078125 20.2734375,38.1591796875 21.0791015625,36.767578125 22.4560546875,35.712890625 24.43359375,35.302734375 26.3671875,35.68359375 27.861328125,36.6943359375 28.8134765625,38.14453125 29.150390625,39.84375 28.8720703125,41.484375 27.890625,43.1982421875 26.0009765625,44.560546875 22.998046875,45.1171875 20.96923828125,44.91943359375 19.16015625,44.326171875 16.2744140625,42.1728515625 14.4580078125,39.0380859375 13.828125,35.2734375 14.0588369369507,32.860107421875 14.7509765625,30.4833984375 17.2998046875,26.015625 21.1376953125,22.119140625 25.9130859375,19.04296875 31.2744140625,17.021484375 36.884765625,16.2890625 38.525390625,16.3623046875 40.166015625,16.58203125 40.166015625,28.447265625 43.4912109375,26.953125 46.0107421875,24.5654296875 47.5927734375,21.4453125 48.134765625,17.75390625 47.8125,15.0439453125 46.6845703125,12.7294921875 44.5166015625,11.103515625 41.07421875,10.48828125 38.4521484375,10.6787109375 35.5517578125,11.1181640625 32.4462890625,11.5576171875 29.23828125,11.748046875 26.0412578582764,11.4990262985229 23.4228515625,10.751953125 21.32080078125,9.59472942352295 19.6728515625,8.115234375 18.44970703125,6.35742473602295 17.6220703125,4.365234375 16.904296875,0z" />
    </g>
  </g>
</svg>