<?xml version="1.0" encoding="utf-8"?>
<!DOCTYPE svg PUBLIC "-//W3C//DTD SVG 1.1//EN" "http://www.w3.org/Graphics/SVG/1.1/DTD/svg11.dtd">
<svg width="40.1660156250012" height="46.728515625" xmlns="http://www.w3.org/2000/svg" xmlns:xlink="http://www.w3.org/1999/xlink" xmlns:xml="http://www.w3.org/XML/1998/namespace" version="1.1">
  <g>
    <g>
      <path style="fill:#FF0000;fill-opacity:1" d="M36.884765625,0L38.525390625,0.0732421875 40.166015625,0.29296875 40.166015625,46.728515625 37.20703125,46.728515625 35.91796875,44.296875 33.779296875,41.9970703125 30.908203125,40.283203125 27.451171875,39.609375 23.8916015625,40.107421875 19.951171875,41.2060546875 15.7177734375,42.3046875 11.30859375,42.802734375 8.785400390625,42.608642578125 6.54785108566284,42.0263671875 3.00292921066284,39.9169921875 0.776366591453552,36.826171875 0.194091409444809,35.0244140625 0,33.134765625 0.424804329872131,30.263671875 1.78710877895355,27.36328125 1.96289050579071,27.36328125 5.59570217132568,30.17578125 5.59570217132568,30.3515625 4.99511671066284,31.845703125 4.80468702316284,33.1640625 5.47851514816284,35.3173828125 7.20703077316284,36.7822265625 9.5361328125,37.6318359375 12.041015625,37.91015625 15.732421875,37.412109375 19.51171875,36.3134765625 23.49609375,35.21484375 27.7734375,34.716796875 29.8681640625,34.8779296875 31.69921875,35.390625 33.427734375,36.298828125 35.21484375,37.646484375 35.361328125,37.646484375 35.361328125,4.8046875 32.325439453125,5.41259765625 29.3115234375,6.416015625 23.90625,9.43359375 21.73095703125,11.3745126724243 20.009765625,13.564453125 18.88916015625,15.9667987823486 18.515625,18.544921875 18.80859375,20.8740234375 19.6875,23.349609375 20.009765625,23.291015625 20.2734375,21.8701171875 21.0791015625,20.478515625 22.4560546875,19.423828125 24.43359375,19.013671875 26.3671875,19.39453125 27.861328125,20.4052734375 28.8134765625,21.85546875 29.150390625,23.5546875 28.8720703125,25.1953125 27.890625,26.9091796875 26.0009765625,28.271484375 22.998046875,28.828125 20.96923828125,28.63037109375 19.16015625,28.037109375 16.2744140625,25.8837890625 14.4580078125,22.7490234375 13.828125,18.984375 14.0588369369507,16.5710468292236 14.7509765625,14.1943359375 17.2998046875,9.7265625 21.1376953125,5.830078125 25.9130859375,2.75390625 31.2744140625,0.732421875 36.884765625,0z" />
    </g>
  </g>
</svg>