<?xml version="1.0" encoding="utf-8"?>
<!DOCTYPE svg PUBLIC "-//W3C//DTD SVG 1.1//EN" "http://www.w3.org/Graphics/SVG/1.1/DTD/svg11.dtd">
<svg width="52.587890625" height="64.189453125" xmlns="http://www.w3.org/2000/svg" xmlns:xlink="http://www.w3.org/1999/xlink" xmlns:xml="http://www.w3.org/XML/1998/namespace" version="1.1">
  <g>
    <g>
      <path style="fill:#FF0000;fill-opacity:1" d="M6.44531154632568,0L11.25,0 11.50634765625,2.22290325164795 12.099609375,3.91113328933716 13.9453125,6.0498046875 16.2744140625,6.94335889816284 18.603515625,7.11914014816284 22.646484375,6.9287109375 27.2900390625,6.4892578125 31.875,6.0498046875 35.771484375,5.859375 38.624267578125,6.08276653289795 40.9716796875,6.7529296875 42.8759765625,7.78930950164795 44.3994140625,9.111328125 46.40625,12.451171875 47.314453125,16.2890625 52.587890625,16.2890625 52.587890625,20.595703125 12.71484375,20.595703125 14.0185546875,21.767578125 15.29296875,23.26171875 17.87109375,22.998046875 20.650634765625,23.228759765625 23.0712890625,23.9208984375 26.89453125,26.4111328125 29.3994140625,30.029296875 30.615234375,34.3359375 33.8818359375,31.4501953125 37.412109375,28.9892578125 40.8984375,27.1142578125 44.033203125,25.986328125 48.22265625,29.23828125 45.6298828125,32.98828125 43.3447265625,37.20703125 41.7041015625,41.7333984375 41.07421875,46.376953125 41.312255859375,50.343017578125 42.0263671875,54.1552734375 43.216552734375,57.681884765625 44.8828125,60.791015625 41.71875,64.189453125 39.3896484375,60.556640625 37.705078125,56.2353515625 36.6796875,51.4453125 36.328125,46.435546875 36.85546875,42.4365234375 38.203125,38.5693359375 40.01953125,34.9365234375 41.953125,31.640625 38.642578125,33.6328125 35.4345703125,36.26953125 32.4462890625,39.287109375 29.794921875,42.421875 28.037109375,46.025390625 25.4296875,48.955078125 21.9873046875,50.9326171875 17.783203125,51.650390625 15.3735332489014,51.390380859375 12.94921875,50.6103515625 10.5615234375,49.259033203125 8.26171875,47.28515625 11.484375,44.0625 12.9931640625,45.3955078125 14.53125,46.2890625 17.578125,46.962890625 19.449462890625,46.7138671875 21.1376953125,45.966796875 23.8623046875,43.3740234375 25.60546875,39.7998046875 26.220703125,35.859375 25.810546875,32.8857421875 24.521484375,30.3662109375 22.265625,28.59375 18.955078125,27.861328125 18.69140625,28.271484375 19.4677734375,29.853515625 19.716796875,31.5234375 19.306640625,33.662109375 18.1494140625,35.478515625 16.3623046875,36.73828125 14.033203125,37.20703125 11.5283203125,36.6796875 9.7412109375,35.2880859375 8.6572265625,33.310546875 8.291015625,30.99609375 8.93554592132568,27.8466796875 10.869140625,25.1953125 9.7998046875,23.994140625 8.525390625,22.705078125 7.16308546066284,21.50390625 5.859375,20.595703125 0,20.595703125 0,16.2890625 42.509765625,16.2890625 41.5283203125,13.4326171875 39.9462890625,11.6455078125 38.0419921875,10.7373046875 36.064453125,10.48828125 32.021484375,10.6787109375 27.3779296875,11.1181640625 22.79296875,11.5576171875 18.896484375,11.748046875 15.6701641082764,11.5026884078979 13.0224609375,10.7666015625 10.8984375,9.62402629852295 9.2431640625,8.1591796875 8.01635646820068,6.40869426727295 7.177734375,4.40917921066284 6.44531154632568,0z" />
    </g>
  </g>
</svg>