<?xml version="1.0" encoding="utf-8"?>
<!DOCTYPE svg PUBLIC "-//W3C//DTD SVG 1.1//EN" "http://www.w3.org/Graphics/SVG/1.1/DTD/svg11.dtd">
<svg width="45.76171875" height="44.619140625" xmlns="http://www.w3.org/2000/svg" xmlns:xlink="http://www.w3.org/1999/xlink" xmlns:xml="http://www.w3.org/XML/1998/namespace" version="1.1">
  <g>
    <g>
      <path style="fill:#FF0000;fill-opacity:1" d="M24.638671875,0L26.1804180145264,0.238037109375 27.6416015625,0.9521484375 30.3369140625,3.3984375 32.7392578125,6.767578125 34.86328125,10.48828125 34.86328125,0.9375 45.76171875,0.9375 45.76171875,5.244140625 39.66796875,5.244140625 39.66796875,44.619140625 34.86328125,44.619140625 34.86328125,20.56640625 31.81640625,14.560546875 28.857421875,9.580078125 27.4621562957764,7.6611328125 26.1474609375,6.181640625 24.9426250457764,5.23681640625 23.876953125,4.921875 22.5146484375,5.3466796875 21.03515625,6.38671875 19.62890625,7.6611328125 18.515625,8.7890625 21.7822265625,11.220703125 24.55078125,13.7548828125 26.4697265625,16.4208984375 27.1875,19.248046875 26.71875,21.533203125 25.4443359375,23.4521484375 23.583984375,24.78515625 21.38671875,25.283203125 19.8046875,25.0634765625 18.0322265625,24.3310546875 16.3330078125,22.9541015625 15,20.771484375 14.82421875,20.771484375 13.4326171875,22.9541015625 11.748046875,24.3310546875 10.01953125,25.0634765625 8.49609375,25.283203125 6.35742139816284,24.8291015625 4.482421875,23.5546875 3.16406226158142,21.6064453125 2.66601538658142,19.130859375 2.8857421875,17.4243183135986 3.544921875,15.87890625 5.69824171066284,13.18359375 8.408203125,10.8837890625 10.986328125,8.84765625 9.7265625,7.880859375 7.8369140625,6.6796875 5.49316358566284,5.6689453125 2.87109351158142,5.244140625 0,5.244140625 0,0.9375 2.81249976158142,0.9375 6.1083984375,1.376953125 9.1259765625,2.5341796875 11.923828125,4.1748046875 14.58984375,6.03515625 16.8017578125,4.072265625 19.3359375,2.109375 22.001953125,0.6005859375 24.638671875,0z" />
    </g>
  </g>
</svg>