<?xml version="1.0" encoding="utf-8"?>
<!DOCTYPE svg PUBLIC "-//W3C//DTD SVG 1.1//EN" "http://www.w3.org/Graphics/SVG/1.1/DTD/svg11.dtd">
<svg width="45.322265625" height="43.681640625" xmlns="http://www.w3.org/2000/svg" xmlns:xlink="http://www.w3.org/1999/xlink" xmlns:xml="http://www.w3.org/XML/1998/namespace" version="1.1">
  <g>
    <g>
      <path style="fill:#FF0000;fill-opacity:1" d="M0,0L45.322265625,0 45.322265625,4.306640625 39.169921875,4.306640625 39.169921875,43.681640625 34.365234375,43.681640625 34.365234375,17.578125 32.197265625,15.673828125 29.47265625,15 26.8359375,15.5859375 24.345703125,17.373046875 25.048828125,18.33984375 25.634765625,19.482421875 22.1484375,21.6796875 21.97265625,21.6796875 20.56640625,18.6694355010986 18.80859375,16.611328125 16.80908203125,15.4248065948486 14.677734375,15.029296875 11.865234375,15.6591796875 9.7705078125,17.3291015625 8.466796875,19.716796875 8.02734375,22.5 8.2763671875,24.66796875 9.0234375,26.6015625 9.345703125,26.54296875 9.638671875,24.9755859375 10.5322265625,23.4375 12.0556640625,22.2802734375 14.23828125,21.826171875 16.3623046875,22.236328125 18.0029296875,23.3349609375 19.0576171875,24.931640625 19.423828125,26.806640625 19.1162109375,28.6376953125 18.046875,30.5419921875 15.9521484375,32.0361328125 12.568359375,32.63671875 10.3564453125,32.42431640625 8.466796875,31.787109375 5.61035108566284,29.53125 3.94042944908142,26.279296875 3.39843726158142,22.44140625 3.5888671875,20.15625 4.16015625,17.9296875 6.37207078933716,14.0478515625 9.873046875,11.337890625 12.06298828125,10.56884765625 14.53125,10.3125 16.67724609375,10.535888671875 18.662109375,11.2060546875 22.060546875,13.681640625 22.236328125,13.681640625 23.778076171875,12.1582040786743 25.5908203125,11.103515625 27.5720195770264,10.48828125 29.619140625,10.283203125 32.0947265625,10.58349609375 34.365234375,11.484375 34.365234375,4.306640625 0,4.306640625 0,0z" />
    </g>
  </g>
</svg>