<?xml version="1.0" encoding="utf-8"?>
<!DOCTYPE svg PUBLIC "-//W3C//DTD SVG 1.1//EN" "http://www.w3.org/Graphics/SVG/1.1/DTD/svg11.dtd">
<svg width="45.64453125" height="43.681640625" xmlns="http://www.w3.org/2000/svg" xmlns:xlink="http://www.w3.org/1999/xlink" xmlns:xml="http://www.w3.org/XML/1998/namespace" version="1.1">
  <g>
    <g>
      <path style="fill:#FF0000;fill-opacity:1" d="M9.814453125,4.306640625L14.7509765625,6.7236328125 18.369140625,9.9169921875 20.9033203125,13.59375 22.6171875,17.4609375 25.3271484375,15.1025390625 26.8103008270264,14.4104022979736 28.41796875,14.1796875 30.0952129364014,14.3884296417236 31.728515625,15.0146484375 34.6875,16.9921875 34.6875,4.306640625 9.814453125,4.306640625z M0,0L45.64453125,0 45.64453125,4.306640625 39.4921875,4.306640625 39.4921875,43.681640625 34.6875,43.681640625 34.6875,23.96484375 33.22265625,22.177734375 31.6845703125,20.625 30.1904296875,19.5263671875 28.857421875,19.1015625 27.7478008270264,19.3652362823486 26.6455078125,20.15625 24.3896484375,22.8076171875 21.9873046875,26.25 19.3212890625,29.6923828125 16.2890625,32.34375 14.6118154525757,33.134765625 12.802734375,33.3984375 11.15478515625,33.2080078125 9.7265625,32.63671875 7.44140625,30.732421875 5.859375,28.271484375 4.921875,25.83984375 8.5546875,23.291015625 9.6826171875,25.770263671875 10.78125,27.4072265625 11.865234375,28.319091796875 12.94921875,28.623046875 14.5166015625,28.0810546875 16.0693359375,26.630859375 17.6220703125,24.55078125 19.21875,22.119140625 18.358154296875,18.9001483917236 17.0654296875,16.1572265625 15.450439453125,13.8610858917236 13.623046875,11.982421875 9.55078125,9.3896484375 5.56640625,8.14453125 5.56640625,4.306640625 0,4.306640625 0,0z" />
    </g>
  </g>
</svg>