<?xml version="1.0" encoding="utf-8"?>
<!DOCTYPE svg PUBLIC "-//W3C//DTD SVG 1.1//EN" "http://www.w3.org/Graphics/SVG/1.1/DTD/svg11.dtd">
<svg width="48.0175781250003" height="44.853515625" xmlns="http://www.w3.org/2000/svg" xmlns:xlink="http://www.w3.org/1999/xlink" xmlns:xml="http://www.w3.org/XML/1998/namespace" version="1.1">
  <g>
    <g>
      <path style="fill:#FF0000;fill-opacity:1" d="M25.400390625,13.681640625L22.529296875,14.35546875 18.984375,15.64453125 15.17578125,17.2998046875 11.5283203125,19.04296875 8.466796875,20.654296875 6.416015625,21.884765625 6.416015625,22.529296875 11.0888671875,24.3896484375 16.11328125,26.89453125 20.9912109375,30.029296875 25.224609375,33.779296875 25.400390625,33.779296875 25.400390625,13.681640625z M16.2890625,0L16.669921875,0 19.376220703125,2.186279296875 21.4013671875,4.5263671875 22.7893047332764,6.903076171875 23.583984375,9.19921875 25.400390625,8.84765625 25.400390625,0 30.205078125,0 30.205078125,26.689453125 33.6328125,29.4287109375 36.884765625,32.607421875 37.060546875,32.607421875 37.060546875,0 48.017578125,0 48.017578125,4.306640625 41.865234375,4.306640625 41.865234375,43.681640625 38.994140625,43.681640625 37.467041015625,40.616455078125 35.4052734375,37.6904296875 30.205078125,32.431640625 30.205078125,44.853515625 27.333984375,44.853515625 26.1291484832764,42.410888671875 24.5068359375,40.0634765625 20.361328125,35.7421875 15.4541015625,32.0068359375 10.341796875,28.974609375 5.56640625,26.77734375 1.728515625,25.48828125 1.728515625,19.189453125 5.302734375,16.9775390625 9.638671875,14.619140625 14.4287109375,12.36328125 19.39453125,10.4296875 18.7353515625,8.49609375 17.40234375,6.73828125 15.76171875,8.5400390625 13.505859375,10.048828125 10.7666015625,11.07421875 7.67578125,11.455078125 4.86328125,11.07421875 2.40234327316284,9.9462890625 0.659180164337158,8.0712890625 0,5.478515625 0.380859375,3.369140625 1.3916015625,1.7724609375 2.8857421875,0.7470703125 4.716796875,0.380858898162842 6.62109375,0.7763671875 8.1298828125,1.8310546875 9.1259765625,3.33984375 9.4921875,5.126953125 9.140625,6.85546875 9.228515625,7.03125 11.42578125,6.6650390625 13.330078125,5.4638671875 14.94140625,3.28125 16.2890625,0z" />
    </g>
  </g>
</svg>