<?xml version="1.0" encoding="utf-8"?>
<!DOCTYPE svg PUBLIC "-//W3C//DTD SVG 1.1//EN" "http://www.w3.org/Graphics/SVG/1.1/DTD/svg11.dtd">
<svg width="46.083984375" height="45.0878906250011" xmlns="http://www.w3.org/2000/svg" xmlns:xlink="http://www.w3.org/1999/xlink" xmlns:xml="http://www.w3.org/XML/1998/namespace" version="1.1">
  <g>
    <g>
      <path style="fill:#FF0000;fill-opacity:1" d="M16.58203125,4.98046827316284L12.7294921875,5.50781202316284 9.375,6.92871046066284 6.6650390625,8.994140625 4.71679639816284,11.455078125 6.8408203125,10.9130859375 9.0234375,10.693359375 11.9677734375,11.30859375 13.9306640625,12.9345703125 15.087890625,15.2490234375 15.5859375,17.9296875 18.0322265625,15.791015625 20.771484375,13.857421875 23.7451171875,12.3046875 26.865234375,11.30859375 24.609375,8.61328125 22.32421875,6.63574171066284 19.7314453125,5.40527296066284 16.58203125,4.98046827316284z M16.46484375,0L18.922119140625,0.197753489017487 21.1962890625,0.791015148162842 25.2392578125,2.85644483566284 28.623046875,5.75683546066284 31.3623046875,9.0673828125 33.486328125,12.36328125 35.009765625,15.205078125 35.126953125,15.17578125 35.126953125,1.40625 46.083984375,1.40625 46.083984375,5.71289014816284 39.931640625,5.71289014816284 39.931640625,45.087890625 35.126953125,45.087890625 35.126953125,25.810546875 34.1162109375,23.37890625 32.7978515625,20.6396484375 31.259765625,17.87109375 29.619140625,15.3515625 25.95703125,16.2158203125 22.5439453125,18.076171875 19.4970703125,20.5224609375 16.9482421875,23.115234375 15.029296875,25.458984375 13.88671875,27.12890625 10.634765625,24.580078125 11.337890625,23.115234375 11.6455078125,22.0166015625 11.748046875,20.771484375 11.4990234375,18.75 10.7080078125,16.8896484375 9.287109375,15.52734375 7.1484375,15 6.1669921875,15.05859375 4.9072265625,15.263671875 3.6181640625,15.64453125 2.548828125,16.259765625 0,12.59765625 0.8642578125,9.4189453125 2.76855421066284,6.44531202316284 5.5078125,3.85253858566284 8.8330078125,1.81640577316284 12.5537109375,0.483397960662842 16.46484375,0z" />
    </g>
  </g>
</svg>