<?xml version="1.0" encoding="utf-8"?>
<!DOCTYPE svg PUBLIC "-//W3C//DTD SVG 1.1//EN" "http://www.w3.org/Graphics/SVG/1.1/DTD/svg11.dtd">
<svg width="37.294921875" height="45.52734375" xmlns="http://www.w3.org/2000/svg" xmlns:xlink="http://www.w3.org/1999/xlink" xmlns:xml="http://www.w3.org/XML/1998/namespace" version="1.1">
  <g>
    <g>
      <path style="fill:#FF0000;fill-opacity:1" d="M21.533203125,0L24.2321758270264,0.260009765625 26.5869140625,1.0400390625 30.234375,3.8232421875 32.4462890625,7.8369140625 33.193359375,12.5390625 32.75390625,16.2890625 31.40625,19.921875 33.9111328125,22.236328125 35.7568359375,25.1513671875 36.8994140625,28.4326171875 37.294921875,31.845703125 37.049560546875,34.51171875 36.3134765625,37.060546875 35.123291015625,39.39697265625 33.515625,41.42578125 31.505126953125,43.1103515625 29.1064453125,44.4140625 26.3561992645264,45.2490234375 23.291015625,45.52734375 20.657958984375,45.32958984375 18.2080078125,44.736328125 13.8134765625,42.59765625 10.0634765625,39.4189453125 6.9287109375,35.5224609375 4.3798828125,31.2451171875 2.40234375,26.8798828125 0.952148199081421,22.763671875 0,19.21875 3.57421875,16.69921875 3.720703125,16.69921875 5.302734375,21.8408203125 7.177734375,26.54296875 9.305419921875,30.706787109375 11.6455078125,34.2333984375 14.183349609375,37.086181640625 16.904296875,39.228515625 19.78271484375,40.56884765625 22.79296875,41.015625 24.9902324676514,40.821533203125 26.953125,40.2392578125 30.1025390625,38.14453125 32.109375,35.09765625 32.8125,31.46484375 32.5927734375,29.3115234375 31.9775390625,27.2607421875 31.0107421875,25.4443359375 29.736328125,24.0234375 28.6376953125,26.2353515625 26.8212890625,27.9052734375 24.5947265625,28.974609375 22.265625,29.35546875 20.6689453125,29.091796875 19.2333984375,28.2861328125 18.193359375,26.8798828125 17.783203125,24.814453125 18.01025390625,23.155517578125 18.69140625,21.8115234375 20.9912109375,19.921875 24.0234375,18.92578125 27.12890625,18.603515625 28.2861328125,16.0693359375 28.564453125,13.2421875 28.06640625,9.9462890625 26.630859375,7.119140625 24.3310546875,5.1416015625 21.240234375,4.39453125 19.21875,4.5849609375 17.255859375,5.1708984375 15.498046875,6.181640625 14.091796875,7.6171875 14.267578125,7.939453125 14.619140625,7.91015625 15,7.91015625 16.8896484375,8.3056640625 18.515625,9.404296875 19.6435546875,11.044921875 20.068359375,13.06640625 19.6875,15 18.6181640625,16.6552734375 16.962890625,17.7978515625 14.82421875,18.22265625 12.4072265625,17.724609375 10.3564453125,16.3037109375 8.9208984375,14.0771484375 8.37890625,11.19140625 8.646240234375,9.01611328125 9.4482421875,6.943359375 12.3193359375,3.3837890625 16.5087890625,0.9228515625 18.958740234375,0.230712890625 21.533203125,0z" />
    </g>
  </g>
</svg>