<?xml version="1.0" encoding="utf-8"?>
<!DOCTYPE svg PUBLIC "-//W3C//DTD SVG 1.1//EN" "http://www.w3.org/Graphics/SVG/1.1/DTD/svg11.dtd">
<svg width="31.2597656250008" height="40.517578125" xmlns="http://www.w3.org/2000/svg" xmlns:xlink="http://www.w3.org/1999/xlink" xmlns:xml="http://www.w3.org/XML/1998/namespace" version="1.1">
  <g>
    <g>
      <path style="fill:#FF0000;fill-opacity:1" d="M8.4375,0L12.9345703125,0.7177734375 17.548828125,2.75390625 15.3515625,6.9140625 13.828125,6.1083984375 12.1142578125,5.390625 10.25390625,4.86328125 8.3203125,4.658203125 6.8994140625,4.8779296875 5.7421875,5.625 4.951171875,7.0458984375 4.658203125,9.287109375 4.86328125,11.5283203125 5.478515625,13.740234375 7.705078125,18.0322265625 11.0009765625,22.0751953125 15.0146484375,25.7958984375 19.3798828125,29.150390625 23.7744140625,32.05078125 27.861328125,34.4091796875 31.259765625,36.15234375 29.560546875,40.517578125 25.869140625,38.7158203125 21.38671875,36.3427734375 16.5087890625,33.3837890625 11.630859375,29.8388671875 7.1337890625,25.7080078125 3.42773413658142,20.9765625 0.922851800918579,15.64453125 0.230712562799454,12.7587900161743 0,9.7265625 0.164794474840164,7.3095703125 0.659178972244263,5.2734375 2.46093726158142,2.255859375 5.1416015625,0.5419921875 8.4375,0z" />
    </g>
  </g>
</svg>