<?xml version="1.0" encoding="utf-8"?>
<!DOCTYPE svg PUBLIC "-//W3C//DTD SVG 1.1//EN" "http://www.w3.org/Graphics/SVG/1.1/DTD/svg11.dtd">
<svg width="39.404296875" height="54.169921875" xmlns="http://www.w3.org/2000/svg" xmlns:xlink="http://www.w3.org/1999/xlink" xmlns:xml="http://www.w3.org/XML/1998/namespace" version="1.1">
  <g>
    <g>
      <path style="fill:#FF0000;fill-opacity:1" d="M18.076171875,46.728515625L19.541015625,47.021484375 20.712890625,47.8125 21.50390625,48.984375 21.796875,50.44921875 21.50390625,51.9140625 20.712890625,53.0859375 19.541015625,53.876953125 18.076171875,54.169921875 16.611328125,53.876953125 15.439453125,53.0859375 14.6484375,51.9140625 14.35546875,50.44921875 14.6484375,48.984375 15.439453125,47.8125 16.611328125,47.021484375 18.076171875,46.728515625z M0,0L39.404296875,0 39.404296875,4.306640625 11.8359375,4.306640625 11.8359375,27.48046875 12.2314453125,31.552734375 13.2568359375,34.716796875 14.6484375,37.0458984375 16.142578125,38.61328125 17.490234375,39.5068359375 18.427734375,39.78515625 21.1669921875,39.2724609375 23.9501953125,37.8076171875 26.5576171875,35.5078125 28.7255859375,32.51953125 30.205078125,28.974609375 30.76171875,24.990234375 30.4833984375,22.0751953125 29.58984375,19.21875 29.267578125,19.27734375 29.00390625,20.6689453125 28.1982421875,22.060546875 26.8212890625,23.1298828125 24.84375,23.5546875 22.91015625,23.1884765625 21.416015625,22.1923828125 20.4638671875,20.7275390625 20.126953125,18.984375 20.390625,17.34375 21.357421875,15.6298828125 23.2763671875,14.2822265625 26.396484375,13.740234375 28.6450176239014,13.9746112823486 30.52734375,14.677734375 33.2958984375,17.138671875 34.8486328125,20.5810546875 35.33203125,24.462890625 34.7607421875,29.1943359375 33.1201171875,33.7939453125 30.498046875,37.939453125 26.982421875,41.30859375 22.67578125,43.564453125 20.25146484375,44.1796875 17.666015625,44.384765625 16.3037109375,44.0771484375 14.1796875,43.0078125 11.7333984375,41.0009765625 9.4189453125,37.8662109375 7.705078125,33.4130859375 7.19970703125,30.648193359375 7.03125047683716,27.48046875 7.03125047683716,4.306640625 0,4.306640625 0,0z" />
    </g>
  </g>
</svg>