<?xml version="1.0" encoding="utf-8"?>
<!DOCTYPE svg PUBLIC "-//W3C//DTD SVG 1.1//EN" "http://www.w3.org/Graphics/SVG/1.1/DTD/svg11.dtd">
<svg width="49.98046875" height="54.169921875" xmlns="http://www.w3.org/2000/svg" xmlns:xlink="http://www.w3.org/1999/xlink" xmlns:xml="http://www.w3.org/XML/1998/namespace" version="1.1">
  <g>
    <g>
      <path style="fill:#FF0000;fill-opacity:1" d="M27.890625,46.728515625L29.35546875,47.021484375 30.52734375,47.8125 31.318359375,48.984375 31.611328125,50.44921875 31.318359375,51.9140625 30.52734375,53.0859375 29.35546875,53.876953125 27.890625,54.169921875 26.42578125,53.876953125 25.25390625,53.0859375 24.462890625,51.9140625 24.169921875,50.44921875 24.462890625,48.984375 25.25390625,47.8125 26.42578125,47.021484375 27.890625,46.728515625z M0,0L49.98046875,0 49.98046875,4.306640625 26.279296875,4.306640625 26.279296875,16.083984375 26.2939453125,18.45703125 26.4111328125,20.2587890625 26.71875,21.4013671875 27.333984375,21.796875 30.3369140625,21.2548828125 33.2080078125,19.599609375 36.0498046875,16.7724609375 38.96484375,12.685546875 39.375,12.685546875 42.1875,15.8349609375 44.1796875,19.482421875 45.3515625,23.4228515625 45.732421875,27.48046875 45.49072265625,30.6591796875 44.765625,33.75 43.53515625,36.624755859375 41.77734375,39.1552734375 39.481201171875,41.282958984375 36.6357421875,42.94921875 33.226318359375,44.02587890625 29.23828125,44.384765625 25.206298828125,44.022216796875 21.6650390625,42.9345703125 18.56689453125,41.224365234375 15.8642578125,38.994140625 13.5241689682007,36.287841796875 11.513671875,33.1494140625 8.3203125,25.986328125 5.97656154632568,18.1201171875 4.189453125,10.13671875 7.55859375,7.529296875 7.734375,7.529296875 9.6826171875,15.3662109375 12.0263671875,22.8515625 14.9560546875,29.5166015625 16.69921875,32.40234375 18.6767578125,34.8779296875 20.906982421875,36.903076171875 23.408203125,38.4375 26.2060527801514,39.404296875 29.326171875,39.7265625 32.11669921875,39.45556640625 34.51171875,38.642578125 38.1591796875,35.7861328125 40.3271484375,31.728515625 41.044921875,27.0703125 40.6640625,23.6279296875 39.521484375,20.390625 37.3974609375,22.7490234375 34.833984375,24.66796875 31.9189453125,25.95703125 28.76953125,26.42578125 25.3564453125,25.7373046875 23.1005859375,23.935546875 21.85546875,21.4599609375 21.474609375,18.720703125 21.474609375,4.306640625 0,4.306640625 0,0z" />
    </g>
  </g>
</svg>