<?xml version="1.0" encoding="utf-8"?>
<!DOCTYPE svg PUBLIC "-//W3C//DTD SVG 1.1//EN" "http://www.w3.org/Graphics/SVG/1.1/DTD/svg11.dtd">
<svg width="30.146484375" height="40.458984375" xmlns="http://www.w3.org/2000/svg" xmlns:xlink="http://www.w3.org/1999/xlink" xmlns:xml="http://www.w3.org/XML/1998/namespace" version="1.1">
  <g>
    <g>
      <path style="fill:#FF0000;fill-opacity:1" d="M15.234375,20.595703125L11.25,21.7236328125 7.8955078125,23.2177734375 5.56640625,25.4296875 4.9072265625,26.90185546875 4.6875,28.681640625 4.925537109375,30.41748046875 5.6396484375,31.93359375 8.1591796875,34.306640625 11.7041015625,35.7568359375 15.703125,36.240234375 19.365234375,35.80078125 22.529296875,34.482421875 24.7412109375,32.255859375 25.3674297332764,30.791015625 25.576171875,29.091796875 25.3601055145264,27.35595703125 24.7119140625,25.8984375 22.4267578125,23.61328125 19.130859375,21.943359375 15.234375,20.595703125z M14.970703125,4.482421875L11.7333984375,4.7900390625 8.9501953125,5.712890625 6.9873046875,7.2802734375 6.240234375,9.521484375 6.4453125,10.9606943130493 7.060546875,12.1728515625 9.2578125,14.0625 12.4365234375,15.4541015625 16.201171875,16.640625 19.365234375,15.5859375 21.9580078125,14.1943359375 23.701171875,12.2607421875 24.345703125,9.580078125 24.1406230926514,8.397216796875 23.525390625,7.3681640625 21.38671875,5.771484375 18.3837890625,4.8046875 14.970703125,4.482421875z M15.5859375,0L20.5517578125,0.5859375 24.8583984375,2.373046875 27.890625,5.390625 28.74755859375,7.36083984375 29.033203125,9.638671875 28.505859375,12.919921875 27.041015625,15.380859375 24.8291015625,17.197265625 22.08984375,18.544921875 22.08984375,18.720703125 25.224609375,20.302734375 27.7880859375,22.3974609375 29.5166015625,25.224609375 30.146484375,28.974609375 29.820556640625,31.66259765625 28.8427734375,33.984375 27.330322265625,35.950927734375 25.400390625,37.5732421875 20.5224609375,39.7412109375 14.94140625,40.458984375 9.4482421875,39.7412109375 4.658203125,37.6025390625 2.75756788253784,35.99853515625 1.27441358566284,34.0283203125 0.318603456020355,31.688232421875 0,28.974609375 0.732421875,25.0048828125 2.7099609375,22.1484375 5.595703125,20.126953125 9.08203125,18.69140625 9.08203125,18.515625 6.1376953125,17.1240234375 3.75,15.3076171875 2.138671875,12.919921875 1.552734375,9.78515625 1.856689453125,7.525634765625 2.7685546875,5.5517578125 4.1748046875,3.870849609375 5.9619140625,2.490234375 10.458984375,0.6298828125 15.5859375,0z" />
    </g>
  </g>
</svg>