<?xml version="1.0" encoding="utf-8"?>
<!DOCTYPE svg PUBLIC "-//W3C//DTD SVG 1.1//EN" "http://www.w3.org/Graphics/SVG/1.1/DTD/svg11.dtd">
<svg width="36.9140625" height="42.65625" xmlns="http://www.w3.org/2000/svg" xmlns:xlink="http://www.w3.org/1999/xlink" xmlns:xml="http://www.w3.org/XML/1998/namespace" version="1.1">
  <g>
    <g>
      <path style="fill:#FF0000;fill-opacity:1" d="M17.63671875,6.826171875L12.4072265625,11.484375 8.291015625,16.34765625 6.7529296875,18.8195819854736 5.595703125,21.3134765625 4.87060546875,23.807373046875 4.62890625,26.279296875 4.86328125,28.685302734375 5.56640625,30.9228515625 6.7236328125,32.933349609375 8.3203125,34.658203125 10.3527822494507,36.068115234375 12.8173828125,37.1337890625 15.706787109375,37.803955078125 19.013671875,38.02734375 20.9765625,37.939453125 19.1455078125,36.0791015625 17.6953125,33.92578125 16.7431640625,31.640625 16.40625,29.35546875 17.05078125,26.0302734375 18.80859375,22.9833984375 21.4306640625,20.185546875 24.66796875,17.578125 21.826171875,16.083984375 19.5849609375,13.974609375 18.10546875,11.2939453125 17.578125,8.056640625 17.578125,7.44140625 17.63671875,6.826171875z M19.3359375,0L23.701171875,2.255859375 23.701171875,2.431640625 22.67578125,4.8486328125 22.32421875,7.20703125 22.8515625,9.814453125 24.287109375,11.923828125 26.396484375,13.3447265625 28.974609375,13.857421875 30.2490234375,13.6962890625 31.46484375,13.212890625 32.548828125,12.568359375 36.9140625,14.765625 36.9140625,14.94140625 33.6181640625,17.0947265625 30.146484375,19.2626953125 26.8359375,21.5185546875 24.0380859375,23.935546875 22.1044921875,26.6015625 21.38671875,29.619140625 21.8408203125,31.69921875 23.0859375,33.6181640625 24.9609375,35.0390625 27.3046875,35.595703125 30.849609375,39.345703125 30.849609375,39.521484375 27.61962890625,40.95703125 24.4921875,41.923828125 18.57421875,42.65625 13.41796875,42.0556640625 8.9208984375,40.37109375 5.2001953125,37.79296875 2.3876953125,34.482421875 0.615234375,30.615234375 0,26.396484375 0.31494140625,23.294677734375 1.259765625,19.9658203125 2.81616163253784,16.5087909698486 4.9658203125,13.0224609375 7.701416015625,9.55810546875 11.015625,6.1669921875 14.8974609375,2.947998046875 19.3359375,0z" />
    </g>
  </g>
</svg>