<?xml version="1.0" encoding="utf-8"?>
<!DOCTYPE svg PUBLIC "-//W3C//DTD SVG 1.1//EN" "http://www.w3.org/Graphics/SVG/1.1/DTD/svg11.dtd">
<svg width="35.33203125" height="42.71484375" xmlns="http://www.w3.org/2000/svg" xmlns:xlink="http://www.w3.org/1999/xlink" xmlns:xml="http://www.w3.org/XML/1998/namespace" version="1.1">
  <g>
    <g>
      <path style="fill:#FF0000;fill-opacity:1" d="M4.92187547683716,4.453125L4.92187547683716,19.6875 11.6015625,19.6875 15.0146484375,19.130859375 17.724609375,17.5341796875 19.51171875,15 20.15625,11.6015625 19.6142559051514,8.602294921875 17.98828125,6.3427734375 15.322265625,4.925537109375 11.66015625,4.453125 4.92187547683716,4.453125z M0,0L12.5390625,0 17.6220703125,0.6884765625 21.6650390625,2.783203125 24.345703125,6.2841796875 25.0707988739014,8.558349609375 25.3125,11.19140625 24.5947265625,15.1611328125 22.7490234375,18.28125 20.21484375,20.5517578125 17.431640625,21.943359375 20.4345703125,22.6025390625 22.6318359375,24.3603515625 23.9794921875,26.9091796875 24.43359375,29.970703125 24.43359375,35.21484375 24.521484375,35.830078125 24.90234375,36.796875 25.7666015625,37.6904296875 27.3046875,38.0859375 28.9453125,37.646484375 29.82421875,36.6796875 30.205078125,35.2734375 35.33203125,35.2734375 34.306640625,38.994140625 33.33984375,40.37109375 31.9189453125,41.5576171875 29.94140625,42.392578125 27.3046875,42.71484375 24.6533203125,42.392578125 22.646484375,41.5576171875 21.2255859375,40.37109375 20.2734375,38.994140625 19.5849590301514,37.25830078125 19.27734375,35.2734375 19.27734375,30.234375 18.720703125,27.48046875 17.197265625,25.5908203125 14.94140625,24.4921875 12.1875,24.140625 4.92187547683716,24.140625 4.92187547683716,42.01171875 0,42.01171875 0,0z" />
    </g>
  </g>
</svg>