<?xml version="1.0" encoding="utf-8"?>
<!DOCTYPE svg PUBLIC "-//W3C//DTD SVG 1.1//EN" "http://www.w3.org/Graphics/SVG/1.1/DTD/svg11.dtd">
<svg width="22.353515625" height="42.71484375" xmlns="http://www.w3.org/2000/svg" xmlns:xlink="http://www.w3.org/1999/xlink" xmlns:xml="http://www.w3.org/XML/1998/namespace" version="1.1">
  <g>
    <g>
      <path style="fill:#FF0000;fill-opacity:1" d="M6.97265625,0L10.6906127929688,0.2764892578125 13.875732421875,1.10595703125 16.5280151367188,2.4884033203125 18.6474609375,4.423828125 20.2688579559326,6.91223192214966 21.4270000457764,9.95361423492432 22.1218852996826,13.5479745864868 22.353515625,17.6953125 22.353515625,42.71484375 17.431640625,42.71484375 17.431640625,23.203125 16.5087890625,23.6865234375 15.5126953125,24.140625 14.5166015625,24.462890625 13.59375,24.580078125 11.8212890625,24.0966796875 10.25390625,23.0419921875 8.935546875,21.9873046875 7.91015625,21.50390625 6.181640625,21.97265625 4.21874904632568,22.96875 4.21874904632568,27.36328125 0,27.36328125 0,14.23828125 4.21874904632568,14.23828125 4.21874904632568,18.6328125 6.15234375,17.7685546875 8.173828125,17.373046875 9.7412109375,17.8564453125 11.1181640625,18.9111328125 12.421875,19.9658203125 13.828125,20.44921875 15.64453125,19.9951171875 17.431640625,18.984375 17.431640625,16.904296875 17.28515625,13.9791879653931 16.845703125,11.4440927505493 16.11328125,9.29901123046875 15.087890625,7.5439453125 13.7347412109375,6.17889404296875 12.01904296875,5.203857421875 9.9407958984375,4.61883544921875 7.5,4.423828125 4.62890625,4.6435546875 2.25585913658142,5.126953125 0,5.80078125 0,0.849609375 1.93359351158142,0.439453125 4.13085842132568,0.146484375 6.97265625,0z" />
    </g>
  </g>
</svg>