<?xml version="1.0" encoding="utf-8"?>
<!DOCTYPE svg PUBLIC "-//W3C//DTD SVG 1.1//EN" "http://www.w3.org/Graphics/SVG/1.1/DTD/svg11.dtd">
<svg width="43.125" height="43.41796875" xmlns="http://www.w3.org/2000/svg" xmlns:xlink="http://www.w3.org/1999/xlink" xmlns:xml="http://www.w3.org/XML/1998/namespace" version="1.1">
  <g>
    <g>
      <path style="fill:#FF0000;fill-opacity:1" d="M33.1640625,24.873046875L31.4794921875,26.1474609375 29.9853515625,27.9345703125 28.916015625,30.322265625 28.505859375,33.3984375 28.8720703125,35.771484375 29.8681640625,37.822265625 31.3623046875,39.2724609375 33.22265625,39.814453125 35.33203125,39.31640625 36.85546875,37.9248046875 37.79296875,35.8154296875 38.115234375,33.193359375 37.7490234375,30.7177734375 36.7236328125,28.53515625 35.15625,26.6015625 33.1640625,24.873046875z M9.9609375,24.873046875L7.96875,26.60888671875 6.38671875,28.53515625 5.35400342941284,30.71044921875 5.009765625,33.193359375 5.33203172683716,35.8154296875 6.26953125,37.9248046875 7.79296875,39.31640625 9.90234375,39.814453125 11.748046875,39.2724609375 13.2421875,37.822265625 14.2529296875,35.771484375 14.619140625,33.3984375 14.208984375,30.322265625 13.1396484375,27.9345703125 11.6455078125,26.1474609375 9.9609375,24.873046875z M21.5625,4.072265625L19.892578125,4.3359375 18.57421875,5.09765625 17.6953125,6.3134765625 17.373046875,7.91015625 17.65869140625,9.375 18.515625,10.72265625 19.8486328125,11.9970722198486 21.5625,13.2421875 24.5947265625,10.72265625 25.4626445770264,9.375 25.751953125,7.91015625 25.4296875,6.3134765625 24.55078125,5.09765625 23.232421875,4.3359375 21.5625,4.072265625z M21.5625,0L25.166015625,0.5712890625 28.0517578125,2.197265625 29.970703125,4.7314453125 30.673828125,8.02734375 30.322265625,10.2978515625 29.3408203125,12.3046875 27.8173828125,14.091796875 25.869140625,15.703125 29.3115234375,17.5927734375 33.1201171875,19.7900390625 36.8408203125,22.3828125 40.0341796875,25.4296875 42.275390625,29.00390625 42.91259765625,31.01806640625 43.125,33.193359375 42.451171875,37.265625 40.517578125,40.5029296875 37.44140625,42.6416015625 35.5078125,43.223876953125 33.33984375,43.41796875 29.8828125,42.7734375 26.7919921875,40.869140625 24.580078125,37.7490234375 23.9428691864014,35.745849609375 23.73046875,33.45703125 24.228515625,29.6337890625 25.5322265625,26.5576171875 27.3486328125,24.1845703125 29.35546875,22.44140625 25.458984375,20.361328125 21.5625,18.33984375 17.63671875,20.361328125 13.740234375,22.44140625 15.7470703125,24.1845703125 17.5634765625,26.5576171875 18.8818359375,29.6337890625 19.39453125,33.45703125 19.18212890625,35.745849609375 18.544921875,37.7490234375 16.3330078125,40.869140625 13.2421875,42.7734375 9.78515625,43.41796875 7.6171875,43.223876953125 5.68359375,42.6416015625 2.60742235183716,40.5029296875 0.673828482627869,37.265625 0,33.193359375 0.197753936052322,31.029052734375 0.79101550579071,29.0478515625 2.900390625,25.546875 5.9619140625,22.55859375 9.6240234375,19.9951171875 13.505859375,17.75390625 17.255859375,15.703125 15.3076171875,14.091796875 13.7841796875,12.3046875 12.802734375,10.2978515625 12.451171875,8.02734375 13.154296875,4.7314453125 15.0732421875,2.197265625 17.958984375,0.5712890625 21.5625,0z" />
    </g>
  </g>
</svg>