<?xml version="1.0" encoding="utf-8"?>
<!DOCTYPE svg PUBLIC "-//W3C//DTD SVG 1.1//EN" "http://www.w3.org/Graphics/SVG/1.1/DTD/svg11.dtd">
<svg width="26.7187500000001" height="43.41796875" xmlns="http://www.w3.org/2000/svg" xmlns:xlink="http://www.w3.org/1999/xlink" xmlns:xml="http://www.w3.org/XML/1998/namespace" version="1.1">
  <g>
    <g>
      <path style="fill:#FF0000;fill-opacity:1" d="M13.65234375,20.5078125L10.2832021713257,21.1376953125 7.6171875,23.02734375 5.88134765625,25.77392578125 5.302734375,28.974609375 5.877685546875,32.96630859375 7.6025390625,36.328125 8.84673976898193,37.6611328125 10.2795400619507,38.61328125 11.9009389877319,39.1845703125 13.7109375,39.375 16.9921875,38.712158203125 19.5703125,36.7236328125 21.2402324676514,33.717041015625 21.796875,30 21.2622051239014,26.0302734375 19.658203125,23.02734375 17.08740234375,21.1376953125 13.65234375,20.5078125z M17.16796875,0L21.1083965301514,0.30029296875 24.140625,1.201171875 24.140625,5.7421875 20.8007793426514,4.48974609375 17.28515625,4.072265625 14.6273803710938,4.383544921875 12.249755859375,5.3173828125 10.1522827148438,6.873779296875 8.3349609375,9.052734375 6.86737060546875,11.7535409927368 5.819091796875,14.8754901885986 5.19012451171875,18.4185810089111 4.98046875,22.3828125 5.09765625,22.3828125 6.796875,19.7808856964111 8.96484375,17.9223651885986 11.6015625,16.8072528839111 14.70703125,16.435546875 17.3199462890625,16.6561908721924 19.65087890625,17.3181171417236 21.6998291015625,18.4213275909424 23.466796875,19.9658203125 24.8895244598389,21.8801879882813 25.9057598114014,24.093017578125 26.5155010223389,26.6043090820313 26.71875,29.4140625 26.4862041473389,32.3629760742188 25.7885723114014,35.028076171875 24.6258525848389,37.4093627929688 22.998046875,39.5068359375 21.0113525390625,41.2179565429688 18.77197265625,42.440185546875 16.2799072265625,43.1735229492188 13.53515625,43.41796875 10.5413818359375,43.10302734375 7.88818359375,42.158203125 5.5755615234375,40.58349609375 3.60351538658142,38.37890625 2.02697730064392,35.6048583984375 0.900878608226776,32.32177734375 0.225219488143921,28.5296630859375 0,24.228515625 0.294799566268921,18.9843769073486 1.17919898033142,14.2968769073486 2.65319800376892,10.1660165786743 4.716796875,6.591796875 7.26379346847534,3.7078857421875 10.1879873275757,1.64794921875 13.4893789291382,0.4119873046875 17.16796875,0z" />
    </g>
  </g>
</svg>