<?xml version="1.0" encoding="utf-8"?>
<!DOCTYPE svg PUBLIC "-//W3C//DTD SVG 1.1//EN" "http://www.w3.org/Graphics/SVG/1.1/DTD/svg11.dtd">
<svg width="37.294921875" height="42.568359375" xmlns="http://www.w3.org/2000/svg" xmlns:xlink="http://www.w3.org/1999/xlink" xmlns:xml="http://www.w3.org/XML/1998/namespace" version="1.1">
  <g>
    <g>
      <path style="fill:#FF0000;fill-opacity:1" d="M28.330078125,28.798828125L26.7224102020264,29.110107421875 25.4150390625,30.0439453125 24.5471172332764,31.600341796875 24.2578125,33.779296875 24.5654296875,35.9619140625 25.4296875,37.55859375 26.7333984375,38.525390625 28.330078125,38.84765625 29.912109375,38.525390625 31.201171875,37.55859375 32.0654296875,35.9619140625 32.373046875,33.779296875 32.0654296875,31.58203125 31.201171875,30.029296875 29.912109375,29.1064453125 28.330078125,28.798828125z M19.306640625,0L32.431640625,0 32.431640625,4.21875 28.330078125,4.21875 28.330078125,9.462890625 30.6005840301514,10.0158700942993 32.490234375,10.9130859375 35.2587890625,13.6083984375 36.8115234375,17.2998046875 37.294921875,21.708984375 37.294921875,33.779296875 36.591796875,37.2802734375 34.658203125,40.0634765625 31.8017578125,41.9091796875 28.330078125,42.568359375 24.8876953125,41.9091796875 22.119140625,40.0634765625 20.2880859375,37.2802734375 19.62890625,33.779296875 20.2587890625,30.3369140625 22.0458984375,27.568359375 24.7998046875,25.7373046875 28.330078125,25.078125 30.4541015625,25.3125 32.373046875,25.95703125 32.373046875,21.328125 32.05078125,17.9736328125 30.9375,15.4541015625 28.8134765625,13.8720703125 25.458984375,13.330078125 22.1484375,14.00390625 19.5849609375,15.7763671875 17.724609375,18.251953125 16.46484375,21.03515625 9.08203125,42.01171875 3.95507788658142,42.01171875 0,31.376953125 4.54101514816284,31.376953125 6.38671779632568,37.03125 12.24609375,19.86328125 13.7548828125,16.4501953125 16.0400390625,13.30078125 19.21875,10.8251953125 23.408203125,9.43359375 23.408203125,4.21875 19.306640625,4.21875 19.306640625,0z" />
    </g>
  </g>
</svg>