<?xml version="1.0" encoding="utf-8"?>
<!DOCTYPE svg PUBLIC "-//W3C//DTD SVG 1.1//EN" "http://www.w3.org/Graphics/SVG/1.1/DTD/svg11.dtd">
<svg width="33.515625" height="47.109375" xmlns="http://www.w3.org/2000/svg" xmlns:xlink="http://www.w3.org/1999/xlink" xmlns:xml="http://www.w3.org/XML/1998/namespace" version="1.1">
  <g>
    <g>
      <path style="fill:#FF0000;fill-opacity:1" d="M20.15625,4.453125L17.373046875,5.0390625 14.82421875,6.8115234375 12.94921875,9.78515625 12.216796875,13.974609375 12.216796875,37.79296875 15.791015625,38.671875 19.833984375,38.994140625 23.408203125,38.5546875 26.1767578125,37.177734375 27.9638671875,34.775390625 28.59375,31.259765625 27.8631572723389,27.6580810546875 25.6713848114014,25.08544921875 22.0184307098389,23.5418701171875 16.904296875,23.02734375 14.00390625,23.02734375 14.00390625,18.955078125 16.728515625,18.955078125 21.2786846160889,18.4716796875 24.5288066864014,17.021484375 26.4788799285889,14.6044921875 27.12890625,11.220703125 26.6015625,8.14453125 25.1513671875,6.03515625 22.9541015625,4.833984375 20.15625,4.453125z M20.390625,0L24.8876953125,0.6591796875 28.59375,2.5927734375 31.11328125,5.7275390625 31.81640625,7.730712890625 32.05078125,10.01953125 31.5234375,13.7951669692993 29.94140625,16.8310565948486 27.3046875,19.1271991729736 23.61328125,20.68359375 23.61328125,20.80078125 27.5390625,21.73828125 30.6884765625,23.84765625 32.7685546875,26.9384765625 33.515625,30.8203125 33.251953125,33.739013671875 32.4609375,36.2841796875 31.20849609375,38.448486328125 29.560546875,40.224609375 27.5390605926514,41.612548828125 25.166015625,42.6123046875 22.50732421875,43.216552734375 19.62890625,43.41796875 15.732421875,43.18359375 12.216796875,42.5390625 12.216796875,47.109375 7.29492235183716,47.109375 7.29492235183716,40.869140625 4.17480516433716,39.31640625 1.87500023841858,37.8515625 0,36.357421875 2.43164086341858,32.197265625 3.69140672683716,33.28125 5.21484422683716,34.4091796875 7.29492235183716,35.68359375 7.29492235183716,13.06640625 7.56591796875,10.0817880630493 8.37890625,7.4560546875 9.642333984375,5.20751953125 11.2646484375,3.3544921875 13.2092275619507,1.900634765625 15.439453125,0.849609375 17.86376953125,0.21240234375 20.390625,0z" />
    </g>
  </g>
</svg>