<?xml version="1.0" encoding="utf-8"?>
<!DOCTYPE svg PUBLIC "-//W3C//DTD SVG 1.1//EN" "http://www.w3.org/Graphics/SVG/1.1/DTD/svg11.dtd">
<svg width="47.578125" height="43.41796875" xmlns="http://www.w3.org/2000/svg" xmlns:xlink="http://www.w3.org/1999/xlink" xmlns:xml="http://www.w3.org/XML/1998/namespace" version="1.1">
  <g>
    <g>
      <path style="fill:#FF0000;fill-opacity:1" d="M19.189453125,0L22.7783203125,0.3662109375 25.7958984375,1.318359375 28.2568359375,2.666015625 30.205078125,4.21875 31.99951171875,6.18896484375 33.3984375,8.408203125 35.09765625,5.244140625 39.638671875,5.244140625 41.66015625,9.9609375 43.7109375,5.244140625 47.578125,5.244140625 43.88671875,13.212890625 39.404296875,13.212890625 37.20703125,8.291015625 35.0390625,13.212890625 30.703125,13.212890625 28.330078125,8.818359375 26.7919921875,7.20703125 24.7998046875,5.80078125 22.2802734375,4.8046875 19.189453125,4.423828125 15.8935546875,4.749755859375 13.037109375,5.7275390625 10.6237783432007,7.283935546875 8.6572265625,9.345703125 7.130126953125,11.8872089385986 6.03515625,14.8828125 5.3759765625,18.2519550323486 5.15625,21.9140625 5.416259765625,25.51025390625 6.1962890625,28.798828125 7.4853515625,31.7138671875 9.2724609375,34.189453125 11.5539541244507,36.199951171875 14.326171875,37.7197265625 17.578125,38.675537109375 21.298828125,38.994140625 23.818359375,38.7744140625 26.337890625,38.203125 28.681640625,37.3974609375 30.703125,36.4453125 30.703125,31.11328125 26.6015625,31.11328125 26.6015625,26.89453125 39.7265625,26.89453125 39.7265625,31.11328125 35.625,31.11328125 35.625,39.052734375 32.314453125,40.8837890625 28.53515625,42.24609375 24.5654296875,43.1103515625 20.68359375,43.41796875 16.146240234375,43.0224609375 12.0849609375,41.8359375 8.54736328125,39.9462890625 5.5810546875,37.44140625 3.2080078125,34.361572265625 1.4501953125,30.7470703125 0.362548828125,26.685791015625 0,22.265625 0.30029296875,17.3913593292236 1.201171875,13.0224609375 2.70263671875,9.210205078125 4.80468797683716,6.005859375 7.50732421875,3.4423828125 10.810546875,1.552734375 14.70703125,0.38818359375 19.189453125,0z" />
    </g>
  </g>
</svg>