<?xml version="1.0" encoding="utf-8"?>
<!DOCTYPE svg PUBLIC "-//W3C//DTD SVG 1.1//EN" "http://www.w3.org/Graphics/SVG/1.1/DTD/svg11.dtd">
<svg width="55.693359375" height="43.41796875" xmlns="http://www.w3.org/2000/svg" xmlns:xlink="http://www.w3.org/1999/xlink" xmlns:xml="http://www.w3.org/XML/1998/namespace" version="1.1">
  <g>
    <g>
      <path style="fill:#FF0000;fill-opacity:1" d="M35.478515625,0L39.83642578125,0.41015625 43.76953125,1.640625 47.2228965759277,3.585205078125 50.1416015625,6.1376953125 52.4926719665527,9.246826171875 54.2431640625,12.861328125 55.3308067321777,16.8750019073486 55.693359375,21.181640625 55.4223594665527,25.78125 54.609375,30.029296875 53.2324180603027,33.826904296875 51.26953125,37.0751953125 48.6987266540527,39.7265625 45.498046875,41.7333984375 41.6455078125,42.996826171875 37.119140625,43.41796875 32.3583984375,42.7001953125 28.88671875,41.1328125 26.015625,38.84765625 22.8515625,41.1328125 19.0869140625,42.7001953125 14.0625,43.41796875 10.9716787338257,43.154296875 8.203125,42.36328125 5.789794921875,41.092529296875 3.7646484375,39.3896484375 2.149658203125,37.276611328125 0.966796875,34.775390625 0.24169921875,31.92626953125 0,28.76953125 0.366210460662842,25.5322265625 1.50878953933716,22.2216796875 3.4716796875,19.013671875 6.298828125,16.11328125 9.7265625,19.482421875 7.532958984375,21.5625 6.0498046875,23.876953125 5.20385694503784,26.41845703125 4.921875,29.1796875 5.654296875,33.2080078125 7.6904296875,36.298828125 10.78125,38.291015625 14.677734375,38.994140625 18.57421875,38.3349609375 21.4453125,36.85546875 23.7890625,34.6875 23.7890625,24.43359375 22.265625,23.3935546875 21.09375,22.91015625 19.921875,23.349609375 18.544921875,24.31640625 16.875,25.72265625 14.4140625,22.79296875 16.93359375,20.830078125 19.1162109375,19.453125 21.09375,18.837890625 22.32421875,19.2626953125 23.8037109375,20.185546875 25.2099609375,21.1083984375 26.25,21.533203125 27.36328125,21.1083984375 28.76953125,20.185546875 30.205078125,19.2626953125 31.40625,18.837890625 32.5927734375,19.27734375 34.04296875,20.244140625 35.44921875,21.2109375 36.5625,21.650390625 37.7197265625,21.2109375 39.111328125,20.244140625 40.78125,18.837890625 43.2421875,21.767578125 40.751953125,23.759765625 39.66796875,24.4921875 38.5546875,25.1220703125 37.4853515625,25.5615234375 36.5625,25.72265625 35.3173828125,25.283203125 33.80859375,24.3310546875 32.3876953125,23.37890625 31.40625,22.939453125 30.3076171875,23.4521484375 28.7109375,24.55078125 28.7109375,34.6875 30.673828125,36.85546875 33.310546875,38.3349609375 37.236328125,38.994140625 40.6640625,38.671875 43.505859375,37.705078125 45.8056602478027,36.163330078125 47.607421875,34.1162109375 48.9440879821777,31.607666015625 49.8486328125,28.681640625 50.537109375,21.85546875 50.2917442321777,18.2922382354736 49.5556640625,14.9853515625 48.3325157165527,12.0153827667236 46.6259765625,9.462890625 44.443359375,7.371826171875 41.7919921875,5.7861328125 38.682861328125,4.786376953125 35.126953125,4.453125 32.0068359375,4.775390625 29.4140625,5.6396484375 27.3046875,6.8701171875 25.634765625,8.26171875 22.91015625,12.041015625 18.515625,9.9609375 19.91455078125,7.32421875 21.884765625,4.98046875 24.1259765625,3.1494140625 27.0703125,1.552734375 30.8349609375,0.4248046875 35.478515625,0z" />
    </g>
  </g>
</svg>