<?xml version="1.0" encoding="utf-8"?>
<!DOCTYPE svg PUBLIC "-//W3C//DTD SVG 1.1//EN" "http://www.w3.org/Graphics/SVG/1.1/DTD/svg11.dtd">
<svg width="41.19140625" height="43.447265625" xmlns="http://www.w3.org/2000/svg" xmlns:xlink="http://www.w3.org/1999/xlink" xmlns:xml="http://www.w3.org/XML/1998/namespace" version="1.1">
  <g>
    <g>
      <path style="fill:#FF0000;fill-opacity:1" d="M20.625,18.3984375L21.8994140625,18.662109375 22.9541015625,19.3798828125 23.671875,20.4345703125 23.935546875,21.708984375 23.671875,22.9833984375 22.9541015625,24.0234375 21.8994140625,24.7265625 20.625,24.990234375 19.365234375,24.7265625 18.33984375,24.0234375 17.63671875,22.9833984375 17.373046875,21.708984375 17.63671875,20.4345703125 18.33984375,19.3798828125 19.365234375,18.662109375 20.625,18.3984375z M20.56640625,1.7578125L17.083740234375,2.17529296875 14.0185546875,3.427734375 11.3854970932007,5.3759765625 9.19921875,7.880859375 7.474365234375,10.8691415786743 6.2255859375,14.267578125 5.467529296875,17.9370136260986 5.21484422683716,21.73828125 5.47119140625,26.06689453125 6.240234375,29.970703125 7.5,33.39111328125 9.228515625,36.26953125 11.4184560775757,38.57666015625 14.0625,40.283203125 17.138671875,41.337890625 20.625,41.689453125 24.0856914520264,41.337890625 27.1435546875,40.283203125 29.776611328125,38.57666015625 31.962890625,36.26953125 33.69140625,33.39111328125 34.951171875,29.970703125 35.72021484375,26.06689453125 35.9765625,21.73828125 35.723876953125,17.9370136260986 34.9658203125,14.267578125 33.717041015625,10.8691415786743 31.9921875,7.880859375 29.80224609375,5.3759765625 27.158203125,3.427734375 24.0747051239014,2.17529296875 20.56640625,1.7578125z M20.625,0L25.2978496551514,0.3955078125 29.4140625,1.58203125 32.947998046875,3.486328125 35.8740234375,6.03515625 38.177490234375,9.188232421875 39.84375,12.9052734375 40.8544921875,17.1130390167236 41.19140625,21.73828125 40.850830078125,26.341552734375 39.8291015625,30.5419921875 38.148193359375,34.259033203125 35.830078125,37.412109375 32.89306640625,39.9609375 29.35546875,41.865234375 25.2392559051514,43.0517578125 20.56640625,43.447265625 15.919189453125,43.0517578125 11.8212890625,41.865234375 8.294677734375,39.9609375 5.361328125,37.412109375 3.043212890625,34.259033203125 1.36230421066284,30.5419921875 0.340576112270355,26.341552734375 0,21.73828125 0.336914002895355,17.1130390167236 1.34765577316284,12.9052734375 3.013916015625,9.188232421875 5.3173828125,6.03515625 8.2470703125,3.486328125 11.7919921875,1.58203125 15.926513671875,0.3955078125 20.625,0z" />
    </g>
  </g>
</svg>