<?xml version="1.0" encoding="utf-8"?>
<!DOCTYPE svg PUBLIC "-//W3C//DTD SVG 1.1//EN" "http://www.w3.org/Graphics/SVG/1.1/DTD/svg11.dtd">
<svg width="36.240234375" height="46.904296875" xmlns="http://www.w3.org/2000/svg" xmlns:xlink="http://www.w3.org/1999/xlink" xmlns:xml="http://www.w3.org/XML/1998/namespace" version="1.1">
  <g>
    <g>
      <path style="fill:#FF0000;fill-opacity:1" d="M1.435546875,0L4.16015625,1.435546875 7.32421875,2.431640625 11.455078125,2.87109375 13.9892578125,2.7392578125 16.5087890625,2.4169921875 19.2919921875,1.9921875 22.6025390625,1.5673828125 26.7333984375,1.2451171875 31.962890625,1.11328125 31.962890625,2.28515625 6.328125,40.517578125 9.5947265625,40.37109375 13.388671875,40.0634765625 17.1826171875,39.755859375 20.5078125,39.609375 23.9758281707764,39.774169921875 27.0556640625,40.2685546875 29.7326641082764,40.953369140625 31.9921875,41.689453125 36.240234375,43.76953125 33.80859375,46.904296875 30.05859375,44.150390625 28.1103515625,43.125 25.83984375,42.2314453125 23.291015625,41.6015625 20.5078125,41.3671875 18.1201171875,41.4990234375 15.9375,41.8212890625 13.4912109375,42.24609375 10.3125,42.6708984375 5.96191453933716,42.9931640625 3.218994140625,43.092041015625 0,43.125 0,41.748046875 25.751953125,3.720703125 22.470703125,3.8671875 18.6328125,4.1748046875 14.7802734375,4.482421875 11.455078125,4.62890625 8.448486328125,4.544677734375 5.99121046066284,4.2919921875 4.017333984375,3.936767578125 2.46093773841858,3.544921875 0,2.431640625 1.435546875,0z" />
    </g>
  </g>
</svg>