<?xml version="1.0" encoding="utf-8"?>
<!DOCTYPE svg PUBLIC "-//W3C//DTD SVG 1.1//EN" "http://www.w3.org/Graphics/SVG/1.1/DTD/svg11.dtd">
<svg width="34.365234375" height="43.447265625" xmlns="http://www.w3.org/2000/svg" xmlns:xlink="http://www.w3.org/1999/xlink" xmlns:xml="http://www.w3.org/XML/1998/namespace" version="1.1">
  <g>
    <g>
      <path style="fill:#FF0000;fill-opacity:1" d="M19.423828125,0L25.4150390625,0.615234375 30.146484375,1.962890625 34.365234375,3.92578125 34.365234375,9.462890625 29.560546875,9.462890625 29.560546875,4.833984375 27.4951171875,3.662109375 25.0927734375,2.6806640625 22.3974609375,2.0068359375 19.39453125,1.7578125 16.0693359375,2.113037109375 13.18359375,3.1787109375 10.7409658432007,4.8779296875 8.7451171875,7.1337890625 7.196044921875,9.91333103179932 6.09375,13.18359375 5.4345703125,16.8603534698486 5.21484375,20.859375 34.365234375,20.859375 34.365234375,22.587890625 31.93359375,25.576171875 31.083984375,25.576171875 28.388671875,22.587890625 5.21484375,22.587890625 5.4345703125,26.605224609375 6.09375,30.2783203125 7.196044921875,33.53759765625 8.7451171875,36.3134765625 10.7409658432007,38.5693359375 13.18359375,40.2685546875 16.0693359375,41.334228515625 19.39453125,41.689453125 22.3974609375,41.4404296875 25.0927734375,40.7666015625 27.4951171875,39.78515625 29.560546875,38.61328125 29.560546875,33.984375 34.365234375,33.984375 34.365234375,39.521484375 30.146484375,41.484375 25.4150390625,42.8466796875 19.423828125,43.447265625 14.89013671875,43.0517578125 10.95703125,41.865234375 7.620849609375,39.9609375 4.8779296875,37.412109375 2.73925805091858,34.259033203125 1.21582078933716,30.5419921875 0.303955316543579,26.341552734375 0,21.73828125 0.311279535293579,17.1130390167236 1.24511766433716,12.9052734375 2.78686547279358,9.188232421875 4.921875,6.03515625 7.65380859375,3.486328125 10.986328125,1.58203125 14.912109375,0.3955078125 19.423828125,0z" />
    </g>
  </g>
</svg>