<?xml version="1.0" encoding="utf-8"?>
<!DOCTYPE svg PUBLIC "-//W3C//DTD SVG 1.1//EN" "http://www.w3.org/Graphics/SVG/1.1/DTD/svg11.dtd">
<svg width="42.421875" height="64.013671875" xmlns="http://www.w3.org/2000/svg" xmlns:xlink="http://www.w3.org/1999/xlink" xmlns:xml="http://www.w3.org/XML/1998/namespace" version="1.1">
  <g>
    <g>
      <path style="fill:#FF0000;fill-opacity:1" d="M15.8203125,0L23.671875,0 23.671875,44.82421875 26.7187480926514,44.2236328125 29.4140625,43.18359375 31.739501953125,41.619873046875 33.6767578125,39.4482421875 35.21484375,36.62841796875 36.3427734375,33.1201171875 37.034912109375,28.839111328125 37.265625,23.701171875 36.884765625,18.3544921875 36.03515625,13.9453125 34.833984375,9.873046875 39.55078125,8.203125 40.986328125,12.48046875 41.495361328125,14.6923828125 41.9677734375,17.28515625 42.421875,23.408203125 42.099609375,29.044189453125 41.1328125,33.7646484375 39.561767578125,37.650146484375 37.4267578125,40.78125 34.74609375,43.194580078125 31.5380859375,44.9267578125 27.8356914520264,46.051025390625 23.671875,46.640625 23.671875,55.224609375 20.5078125,64.013671875 18.75,64.013671875 18.75,46.640625 14.58251953125,46.051025390625 10.869140625,44.9267578125 7.650146484375,43.194580078125 4.9658203125,40.78125 2.83447289466858,37.650146484375 1.27441430091858,33.7646484375 0.318603724241257,29.044189453125 0,23.408203125 0.439453601837158,17.28515625 0.90820324420929,14.6923828125 1.43554759025574,12.48046875 2.87109398841858,8.203125 7.587890625,9.873046875 6.357421875,13.9453125 5.5224609375,18.3544921875 5.15625,23.701171875 5.386962890625,28.839111328125 6.0791015625,33.1201171875 7.20703125,36.62841796875 8.7451171875,39.4482421875 10.6823720932007,41.619873046875 13.0078125,43.18359375 15.703125,44.2236328125 18.75,44.82421875 18.75,1.75781226158142 15.8203125,1.75781226158142 15.8203125,0z" />
    </g>
  </g>
</svg>