<?xml version="1.0" encoding="utf-8"?>
<!DOCTYPE svg PUBLIC "-//W3C//DTD SVG 1.1//EN" "http://www.w3.org/Graphics/SVG/1.1/DTD/svg11.dtd">
<svg width="40.60546875" height="30.966796875" xmlns="http://www.w3.org/2000/svg" xmlns:xlink="http://www.w3.org/1999/xlink" xmlns:xml="http://www.w3.org/XML/1998/namespace" version="1.1">
  <g>
    <g>
      <path style="fill:#FF0000;fill-opacity:1" d="M15.5859375,23.466796875L18.45703125,23.466796875 18.61083984375,24.9664306640625 19.072265625,26.03759765625 19.84130859375,26.6802978515625 20.91796875,26.89453125 22.6245098114014,26.56494140625 24.638671875,25.576171875 26.953125,24.43359375 29.033203125,24.052734375 31.2744140625,24.55078125 32.9443359375,25.95703125 33.9990234375,28.1396484375 34.365234375,30.966796875 31.611328125,30.966796875 31.4501953125,29.5184326171875 30.966796875,28.48388671875 30.1611328125,27.8631591796875 29.033203125,27.65625 27.56103515625,27.97119140625 25.546875,28.916015625 23.02734375,30.0439453125 20.80078125,30.41015625 18.6474609375,29.8974609375 17.0068359375,28.4619140625 15.9521484375,26.2646484375 15.5859375,23.466796875z M15.5859375,15.3515625L18.45703125,15.3515625 18.61083984375,16.8511962890625 19.072265625,17.92236328125 19.84130859375,18.5650634765625 20.91796875,18.779296875 22.6171875,18.45703125 24.638671875,17.4609375 26.982421875,16.34033203125 29.033203125,15.966796875 31.2744140625,16.4501953125 32.9443359375,17.841796875 33.9990234375,20.009765625 34.365234375,22.8515625 31.611328125,22.8515625 31.4501953125,21.416015625 30.966796875,20.390625 30.1611328125,19.775390625 29.033203125,19.5703125 27.5537109375,19.86328125 25.546875,20.830078125 23.02734375,21.9580078125 20.80078125,22.32421875 18.6474609375,21.8115234375 17.0068359375,20.3759765625 15.9521484375,18.1787109375 15.5859375,15.3515625z M9.345703125,0L9.345703125,4.3359375 5.7421875,7.8515625 40.60546875,7.8515625 40.60546875,11.77734375 5.80078125,11.77734375 9.345703125,15.234375 9.345703125,19.5703125 0,9.84375 0,9.7265625 9.345703125,0z" />
    </g>
  </g>
</svg>