<?xml version="1.0" encoding="utf-8"?>
<!DOCTYPE svg PUBLIC "-//W3C//DTD SVG 1.1//EN" "http://www.w3.org/Graphics/SVG/1.1/DTD/svg11.dtd">
<svg width="31.845703125" height="47.0650328301095" xmlns="http://www.w3.org/2000/svg" xmlns:xlink="http://www.w3.org/1999/xlink" xmlns:xml="http://www.w3.org/XML/1998/namespace" version="1.1">
  <g>
    <g>
      <path style="fill:#FF0000;fill-opacity:1" d="M19.2626953125,0.0142526626586914L22.294921875,0.380463600158691 24.990234375,1.81601047515869 26.982421875,4.23300266265869 27.8173828125,7.10409641265869 27.392578125,10.5904245376587 25.78125,15.8931589126587 27.861328125,14.7212839126587 31.845703125,16.0689392089844 22.32421875,20.6099548339844 22.1484375,20.5513610839844 17.109375,10.8247995376587 21.03515625,12.2896432876587 22.03125,14.7212839126587 23.671875,9.47714328765869 23.9208984375,7.48495578765869 23.466796875,5.96151828765869 22.5439453125,4.84823703765869 21.2109375,4.13046360015869 19.6875,3.89608860015869 18.134765625,4.32089328765869 16.81640625,5.44882297515869 15.87890625,7.36776828765869 3.92578125,47.0650329589844 0,47.0650329589844 12.421875,5.93222141265869 14.0185546875,2.78280735015869 16.318359375,0.834565162658691 19.2626953125,0.0142526626586914z" />
    </g>
  </g>
</svg>