<?xml version="1.0" encoding="utf-8"?>
<!DOCTYPE svg PUBLIC "-//W3C//DTD SVG 1.1//EN" "http://www.w3.org/Graphics/SVG/1.1/DTD/svg11.dtd">
<svg width="43.359375" height="43.359375" xmlns="http://www.w3.org/2000/svg" xmlns:xlink="http://www.w3.org/1999/xlink" xmlns:xml="http://www.w3.org/XML/1998/namespace" version="1.1">
  <g>
    <g>
      <path style="fill:#FF0000;fill-opacity:1" d="M26.015625,0L29.4735717773438,0.31768798828125 32.669677734375,1.270751953125 35.6039428710938,2.85919189453125 38.2763671875,5.0830078125 40.5001792907715,7.75543260574341 42.0886192321777,10.6896982192993 43.0416831970215,13.8858041763306 43.359375,17.34375 43.359375,32.51953125 39.0234375,32.51953125 39.0234375,17.34375 38.785400390625,14.7473154067993 38.0712890625,12.3486337661743 36.881103515625,10.147705078125 35.21484375,8.14453125 33.211669921875,6.478271484375 31.0107421875,5.2880859375 28.612060546875,4.573974609375 26.015625,4.3359375 23.4191875457764,4.573974609375 21.0205059051514,5.2880859375 18.8195781707764,6.478271484375 16.81640625,8.14453125 15.150146484375,10.147705078125 13.9599609375,12.3486337661743 13.245849609375,14.7473154067993 13.0078125,17.34375 13.0078125,32.51953125 21.6796875,32.51953125 10.83984375,43.359375 0,32.51953125 8.671875,32.51953125 8.671875,17.34375 8.98956203460693,13.8739023208618 9.94262599945068,10.6713876724243 11.5310659408569,7.73620653152466 13.7548828125,5.068359375 16.4273071289063,2.8509521484375 19.361572265625,1.26708984375 22.5576782226563,0.3167724609375 26.015625,0z" />
    </g>
  </g>
</svg>