<?xml version="1.0" encoding="utf-8"?>
<!DOCTYPE svg PUBLIC "-//W3C//DTD SVG 1.1//EN" "http://www.w3.org/Graphics/SVG/1.1/DTD/svg11.dtd">
<svg width="36.62109375" height="31.9921875" xmlns="http://www.w3.org/2000/svg" xmlns:xlink="http://www.w3.org/1999/xlink" xmlns:xml="http://www.w3.org/XML/1998/namespace" version="1.1">
  <g>
    <g>
      <path style="fill:#FF0000;fill-opacity:1" d="M1.904296875,21.5625L4.248046875,26.19140625 1.904296875,30.732421875 13.18359375,30.732421875 14.3499755859375,30.5328369140625 15.18310546875,29.93408203125 15.6829833984375,28.9361572265625 15.849609375,27.5390625 15.849609375,21.5625 1.904296875,21.5625z M21.6796875,1.611328125L10.693359375,9.814453125 17.109375,9.814453125 17.109375,28.623046875 25.224609375,19.775390625 26.015625,18.5595703125 26.279296875,17.314453125 26.279296875,9.814453125 32.63671875,9.814453125 21.73828125,1.611328125 21.6796875,1.611328125z M21.6796875,0L36.62109375,11.1328125 27.5390625,11.1328125 27.5390625,17.314453125 27.158203125,19.1162109375 26.015625,20.712890625 16.787109375,30.732421875 15.32958984375,31.67724609375 13.18359375,31.9921875 0,31.9921875 2.9296875,26.19140625 0,20.302734375 15.849609375,20.302734375 15.849609375,11.1328125 6.73828125,11.1328125 21.6796875,0z" />
    </g>
  </g>
</svg>