<?xml version="1.0" encoding="utf-8"?>
<!DOCTYPE svg PUBLIC "-//W3C//DTD SVG 1.1//EN" "http://www.w3.org/Graphics/SVG/1.1/DTD/svg11.dtd">
<svg width="42.802734375" height="56.396484375" xmlns="http://www.w3.org/2000/svg" xmlns:xlink="http://www.w3.org/1999/xlink" xmlns:xml="http://www.w3.org/XML/1998/namespace" version="1.1">
  <g>
    <g>
      <path style="fill:#FF0000;fill-opacity:1" d="M21.38671875,0L24.287109375,0.252685546875 27.0703125,1.0107421875 29.710693359375,2.2265625 32.1826171875,3.8525390625 36.5185546875,8.26171875 39.873046875,13.974609375 42.041015625,20.712890625 42.6123008728027,24.3896484375 42.802734375,28.212890625 42.6123008728027,32.0361328125 42.041015625,35.712890625 39.873046875,42.451171875 36.5185546875,48.1494140625 32.1826171875,52.5439453125 29.710693359375,54.169921875 27.0703125,55.3857421875 24.287109375,56.143798828125 21.38671875,56.396484375 18.4863262176514,56.143798828125 15.703125,55.3857421875 13.06640625,54.169921875 10.60546875,52.5439453125 6.26953125,48.1494140625 2.9150390625,42.451171875 0.76171875,35.712890625 0.1904296875,32.0361328125 0,28.212890625 0.1904296875,24.3896484375 0.76171875,20.712890625 2.9150390625,13.974609375 6.26953125,8.26171875 10.60546875,3.8525390625 13.06640625,2.2265625 15.703125,1.0107421875 18.4863262176514,0.252685546875 21.38671875,0z" />
    </g>
  </g>
</svg>