<?xml version="1.0" encoding="utf-8"?>
<!DOCTYPE svg PUBLIC "-//W3C//DTD SVG 1.1//EN" "http://www.w3.org/Graphics/SVG/1.1/DTD/svg11.dtd">
<svg width="40.60546875" height="22.8515625" xmlns="http://www.w3.org/2000/svg" xmlns:xlink="http://www.w3.org/1999/xlink" xmlns:xml="http://www.w3.org/XML/1998/namespace" version="1.1">
  <g>
    <g>
      <path style="fill:#FF0000;fill-opacity:1" d="M9.345703125,3.28125L9.345703125,7.6171875 5.7421875,11.1328125 40.60546875,11.1328125 40.60546875,15.05859375 5.80078125,15.05859375 9.345703125,18.515625 9.345703125,22.8515625 0,13.125 0,13.0078125 9.345703125,3.28125z M31.611328125,0L34.365234375,0 33.9990234375,2.7978515625 32.9443359375,4.98046875 31.2744140625,6.38671875 29.033203125,6.884765625 26.982421875,6.51123046875 24.638671875,5.390625 22.6171875,4.39453125 20.91796875,4.072265625 19.84130859375,4.28649997711182 19.072265625,4.92920064926147 18.61083984375,6.00036716461182 18.45703125,7.5 15.5859375,7.5 15.9521484375,4.6875 17.0068359375,2.4755859375 18.6474609375,1.0400390625 20.80078125,0.52734375 23.02734375,0.8935546875 25.546875,2.021484375 27.5537109375,2.98828125 29.033203125,3.28125 30.1611328125,3.07617282867432 30.966796875,2.46093893051147 31.4501953125,1.43554794788361 31.611328125,0z" />
    </g>
  </g>
</svg>