<?xml version="1.0" encoding="utf-8"?>
<!DOCTYPE svg PUBLIC "-//W3C//DTD SVG 1.1//EN" "http://www.w3.org/Graphics/SVG/1.1/DTD/svg11.dtd">
<svg width="43.447265625" height="26.77734375" xmlns="http://www.w3.org/2000/svg" xmlns:xlink="http://www.w3.org/1999/xlink" xmlns:xml="http://www.w3.org/XML/1998/namespace" version="1.1">
  <g>
    <g>
      <path style="fill:#FF0000;fill-opacity:1" d="M21.73828125,3.6328125L18.079833984375,3.82324361801147 14.6630859375,4.39453125 11.5795888900757,5.29907369613647 8.9208984375,6.4892578125 6.73095703125,7.93579244613647 5.0537109375,9.609375 3.98803663253784,11.455078125 3.63281202316284,13.41796875 3.98803663253784,15.377197265625 5.0537109375,17.2119140625 6.734619140625,18.870849609375 8.935546875,20.302734375 11.6052236557007,21.48193359375 14.6923828125,22.3828125 18.101806640625,22.9541015625 21.73828125,23.14453125 25.3747539520264,22.9541015625 28.7841796875,22.3828125 31.86767578125,21.48193359375 34.5263671875,20.302734375 36.71630859375,18.870849609375 38.3935546875,17.2119140625 39.459228515625,15.377197265625 39.814453125,13.41796875 39.459228515625,11.455078125 38.3935546875,9.609375 36.71630859375,7.93579244613647 34.5263671875,6.4892578125 31.86767578125,5.29907369613647 28.7841796875,4.39453125 25.3747539520264,3.82324361801147 21.73828125,3.6328125z M21.73828125,0L27.509765625,0.439453125 32.7099609375,1.6845703125 37.1044921875,3.6767578125 40.48828125,6.3427734375 42.6708984375,9.609375 43.253173828125,11.455078125 43.447265625,13.41796875 43.0224609375,16.318359375 41.748046875,18.92578125 39.737548828125,21.207275390625 37.1044921875,23.1298828125 33.907470703125,24.67529296875 30.205078125,25.8251953125 26.1108379364014,26.539306640625 21.73828125,26.77734375 17.384033203125,26.539306640625 13.2861328125,25.8251953125 9.57275295257568,24.671630859375 6.3720703125,23.115234375 3.73535108566284,21.181640625 1.7138671875,18.896484375 0.428466796875,16.29638671875 0,13.41796875 0.428466796875,10.535888671875 1.7138671875,7.9248046875 3.73535108566284,5.62866353988647 6.3720703125,3.69140625 9.57275295257568,2.13134837150574 13.2861328125,0.966796875 17.384033203125,0.24169921875 21.73828125,0z" />
    </g>
  </g>
</svg>