<?xml version="1.0" encoding="utf-8"?>
<!DOCTYPE svg PUBLIC "-//W3C//DTD SVG 1.1//EN" "http://www.w3.org/Graphics/SVG/1.1/DTD/svg11.dtd">
<svg width="26.162109375" height="44.82421875" xmlns="http://www.w3.org/2000/svg" xmlns:xlink="http://www.w3.org/1999/xlink" xmlns:xml="http://www.w3.org/XML/1998/namespace" version="1.1">
  <g>
    <g>
      <path style="fill:#FF0000;fill-opacity:1" d="M10.8984375,0L13.5205078125,0.322265625 16.259765625,1.23046875 18.8671875,2.6513671875 21.064453125,4.5263671875 22.5732421875,6.7822265625 23.14453125,9.345703125 22.950439453125,11.0595703125 22.3681640625,12.451171875 20.2734375,14.501953125 17.2265625,15.849609375 13.59375,16.81640625 11.5869140625,17.4462890625 9.931640625,18.28125 23.583984375,18.28125 23.583984375,22.177734375 6.59179639816284,22.177734375 5.7275390625,25.283203125 5.478515625,28.88671875 5.8740234375,33.076171875 7.23632764816284,36.8994140625 9.873046875,39.697265625 11.7626943588257,40.51025390625 14.091796875,40.78125 17.3876953125,40.25390625 19.833984375,38.759765625 21.357421875,36.4306640625 21.884765625,33.3984375 26.162109375,33.3984375 25.9497051239014,35.811767578125 25.3125,38.0126953125 22.8662109375,41.630859375 18.984375,43.9892578125 16.56005859375,44.615478515625 13.857421875,44.82421875 10.689697265625,44.4873046875 7.9833984375,43.4765625 5.72021436691284,41.91650390625 3.8818359375,39.931640625 2.464599609375,37.5732421875 1.46484363079071,34.892578125 0.87158191204071,32.01416015625 0.673828125,29.0625 0.89355456829071,25.3857421875 1.61132800579071,22.177734375 0,22.177734375 0,18.28125 3.6328125,18.28125 5.26611328125,16.5234375 7.29492139816284,15.05859375 9.74853515625,13.87939453125 12.65625,12.978515625 14.794921875,12.3779296875 16.611328125,11.6162109375 17.87109375,10.6494140625 18.33984375,9.404296875 17.5927734375,7.3388671875 15.7470703125,5.6103515625 13.41796875,4.423828125 11.220703125,3.984375 9.17724609375,4.49707174301147 8.49609375,6.03515625 8.73779296875,7.294921875 9.462890625,8.671875 5.009765625,8.671875 4.3505859375,7.1923828125 4.130859375,5.625 4.6875,3.193359375 6.16699171066284,1.435546875 8.3203125,0.3662109375 10.8984375,0z" />
    </g>
  </g>
</svg>