<?xml version="1.0" encoding="utf-8"?>
<!DOCTYPE svg PUBLIC "-//W3C//DTD SVG 1.1//EN" "http://www.w3.org/Graphics/SVG/1.1/DTD/svg11.dtd">
<svg width="34.482421875" height="56.8359375" xmlns="http://www.w3.org/2000/svg" xmlns:xlink="http://www.w3.org/1999/xlink" xmlns:xml="http://www.w3.org/XML/1998/namespace" version="1.1">
  <g>
    <g>
      <path style="fill:#FF0000;fill-opacity:1" d="M16.142578125,0L19.5703125,0.4248046875 22.998046875,1.640625 26.1474609375,3.5595703125 28.740234375,6.064453125 30.498046875,9.0673828125 31.142578125,12.48046875 30.5859375,15.2197265625 29.091796875,17.51953125 26.9091796875,19.27734375 24.287109375,20.361328125 17.109375,22.20703125 15.5712890625,22.763671875 14.1796875,23.37890625 32.28515625,23.37890625 32.28515625,27.802734375 8.818359375,27.802734375 7.1337890625,31.7138671875 6.65038967132568,36.328125 7.35351514816284,42.7734375 8.26171875,45.52734375 9.580078125,47.87109375 11.319580078125,49.775390625 13.4912109375,51.2109375 16.124267578125,52.11181640625 19.248046875,52.412109375 23.3349609375,51.796875 26.572265625,49.9658203125 28.76953125,46.93359375 29.677734375,42.71484375 34.482421875,42.71484375 34.05029296875,45.76171875 33.22265625,48.515625 31.973876953125,50.9326171875 30.2783203125,52.96875 28.1359844207764,54.605712890625 25.546875,55.8251953125 22.49267578125,56.583251953125 18.955078125,56.8359375 15.556640625,56.597900390625 12.626953125,55.8837890625 7.98339796066284,53.349609375 4.77539014816284,49.6875 2.79785084724426,45.3369140625 1.78710913658142,40.751953125 1.49414038658142,36.38671875 1.90429615974426,31.9921875 3.16406202316284,27.802734375 0,27.802734375 0,23.37890625 5.947265625,23.37890625 9.0673828125,20.654296875 13.125,18.779296875 16.1572265625,17.87109375 19.599609375,16.93359375 22.393798828125,16.0729999542236 24.3896484375,15.0732421875 25.5871562957764,13.8903827667236 25.986328125,12.48046875 25.7556133270264,10.8618173599243 25.0634765625,9.345703125 22.734375,6.796875 19.62890625,5.0830078125 16.376953125,4.453125 14.3774404525757,4.65087890625 12.9492177963257,5.244140625 12.0922842025757,6.23291015625 11.806640625,7.6171875 12.392578125,10.078125 7.58789014816284,10.078125 6.94335842132568,7.20703125 7.13745021820068,5.48583984375 7.71972608566284,4.013671875 9.7705078125,1.7724609375 12.7001953125,0.439453125 16.142578125,0z" />
    </g>
  </g>
</svg>