<?xml version="1.0" encoding="utf-8"?>
<!DOCTYPE svg PUBLIC "-//W3C//DTD SVG 1.1//EN" "http://www.w3.org/Graphics/SVG/1.1/DTD/svg11.dtd">
<svg width="33.57421875" height="67.529296875" xmlns="http://www.w3.org/2000/svg" xmlns:xlink="http://www.w3.org/1999/xlink" xmlns:xml="http://www.w3.org/XML/1998/namespace" version="1.1">
  <g>
    <g>
      <path style="fill:#FF0000;fill-opacity:1" d="M16.611328125,4.453125L16.611328125,18.1640625 17.958984375,18.1640625 22.452392578125,17.7392578125 25.7373046875,16.46484375 27.7478008270264,14.2529296875 28.41796875,11.015625 27.8063945770264,8.0712890625 25.9716796875,6.03515625 22.8991680145264,4.84863567352295 18.57421875,4.453125 16.611328125,4.453125z M11.689453125,0L19.423828125,0 25.13671875,0.703124642372131 29.619140625,2.76855492591858 31.285400390625,4.29199504852295 32.5341796875,6.13769483566284 33.314208984375,8.302001953125 33.57421875,10.78125 33.277587890625,13.487548828125 32.3876953125,15.8642578125 30.985107421875,17.896728515625 29.150390625,19.5703125 24.31640625,21.8408203125 21.4306640625,22.4230976104736 18.33984375,22.6171875 16.611328125,22.6171875 16.611328125,32.4609375 18.69140625,28.9453125 20.0390625,26.9384765625 21.62109375,25.1953125 23.61328125,23.9794921875 26.1328125,23.525390625 27.0703125,23.5546875 27.802734375,23.642578125 28.447265625,23.73046875 28.447265625,27.978515625 27.919921875,27.861328125 27.3486328125,27.7734375 26.66015625,27.744140625 25.6787109375,27.8759765625 24.66796875,28.359375 23.5546875,29.3408203125 22.294921875,30.966796875 17.021484375,38.90625 26.923828125,53.73046875 21.328125,53.73046875 16.611328125,45.9375 16.611328125,67.529296875 11.689453125,67.529296875 11.689453125,45.52734375 9.873046875,48.45703125 8.49609375,50.4638671875 6.87011671066284,52.20703125 4.84863328933716,53.4228515625 2.31445360183716,53.876953125 0.615234434604645,53.7890625 0,53.671875 0,49.423828125 0.527344167232513,49.541015625 1.08398485183716,49.62890625 1.787109375,49.658203125 2.73925733566284,49.541015625 3.75,49.072265625 4.86328125,48.0908203125 6.15234422683716,46.435546875 11.30859375,39.0234375 1.52343773841858,23.73046875 7.11914014816284,23.73046875 11.689453125,31.81640625 11.689453125,0z" />
    </g>
  </g>
</svg>