<?xml version="1.0" encoding="utf-8"?>
<!DOCTYPE svg PUBLIC "-//W3C//DTD SVG 1.1//EN" "http://www.w3.org/Graphics/SVG/1.1/DTD/svg11.dtd">
<svg width="45.5859375" height="58.037109375" xmlns="http://www.w3.org/2000/svg" xmlns:xlink="http://www.w3.org/1999/xlink" xmlns:xml="http://www.w3.org/XML/1998/namespace" version="1.1">
  <g>
    <g>
      <path style="fill:#FF0000;fill-opacity:1" d="M20.0390625,19.072265625L16.640625,19.420166015625 13.65234375,20.4638671875 11.092529296875,22.100830078125 8.9794921875,24.228515625 7.32055711746216,26.7919940948486 6.12304735183716,29.736328125 5.39794969558716,32.96630859375 5.15625095367432,36.38671875 5.38696336746216,39.759521484375 6.07910203933716,42.9638671875 7.22900438308716,45.897216796875 8.8330078125,48.45703125 10.887451171875,50.584716796875 13.388671875,52.2216796875 16.32568359375,53.265380859375 19.6875,53.61328125 23.2214336395264,53.291015625 26.2646484375,52.32421875 28.824462890625,50.782470703125 30.908203125,48.7353515625 32.51953125,46.226806640625 33.662109375,43.30078125 34.34326171875,40.02685546875 34.5703125,36.474609375 34.35791015625,32.911376953125 33.720703125,29.6044921875 32.640380859375,26.6345233917236 31.0986328125,24.08203125 29.080810546875,21.990966796875 26.572265625,20.4052734375 23.5620098114014,19.405517578125 20.0390625,19.072265625z M26.484375,0L29.7216796875,0.5712890625 33.0908203125,1.8310546875 36.2109375,3.0908203125 38.73046875,3.662109375 39.9609375,3.36914014816284 40.810546875,2.57812547683716 41.2939453125,1.42089796066284 41.455078125,0 45.5859375,1.40624952316284 45.1025390625,4.130859375 43.740234375,6.12304735183716 41.630859375,7.35351514816284 38.876953125,7.763671875 35.5224609375,7.177734375 32.490234375,5.88867235183716 29.619140625,4.599609375 26.77734375,4.013671875 25.60546875,4.2041015625 24.462890625,4.8193359375 23.5986328125,5.91796875 23.26171875,7.55859375 23.4558086395264,9.32373046875 24.0380859375,10.869140625 26.0302734375,13.5205078125 28.740234375,15.8203125 31.640625,18.046875 35.0830078125,21.3427734375 37.6318359375,25.517578125 39.19921875,30.3955078125 39.7265625,35.80078125 39.400634765625,40.400390625 38.4228515625,44.6484375 36.807861328125,48.446044921875 34.5703125,51.6943359375 31.724853515625,54.345703125 28.2861328125,56.3525390625 24.2687969207764,57.615966796875 19.6875,58.037109375 15.303955078125,57.63427734375 11.4111328125,56.42578125 8.0419921875,54.503173828125 5.22949266433716,51.9580078125 2.99194383621216,48.848876953125 1.34765625,45.234375 0.336914420127869,41.19873046875 0,36.826171875 0.333252370357513,32.20458984375 1.33300828933716,27.94921875 2.98095750808716,24.1552734375 5.25878953933716,20.91796875 8.155517578125,18.28125 11.66015625,16.2890625 15.7470703125,15.03662109375 20.390625,14.619140625 20.7861328125,14.619140625 21.181640625,14.6484375 19.072265625,11.4404296875 18.47900390625,9.613037109375 18.28125,7.55859375 18.4716796875,5.57007122039795 19.04296875,3.94042921066284 21.005859375,1.611328125 23.6572265625,0.3662109375 26.484375,0z" />
    </g>
  </g>
</svg>