<?xml version="1.0" encoding="utf-8"?>
<!DOCTYPE svg PUBLIC "-//W3C//DTD SVG 1.1//EN" "http://www.w3.org/Graphics/SVG/1.1/DTD/svg11.dtd">
<svg width="49.51171875" height="42.24609375" xmlns="http://www.w3.org/2000/svg" xmlns:xlink="http://www.w3.org/1999/xlink" xmlns:xml="http://www.w3.org/XML/1998/namespace" version="1.1">
  <g>
    <g>
      <path style="fill:#FF0000;fill-opacity:1" d="M17.16796875,0L19.453125,0.3662109375 21.4599609375,1.46484375 23.3203125,3.2958984375 25.1953125,5.830078125 49.51171875,42.24609375 43.53515625,42.24609375 21.357421875,8.7890625 19.921875,6.6796875 18.75,5.2587890625 17.6513671875,4.4677734375 16.40625,4.21875 15.52734375,4.306640625 14.8828125,4.482421875 14.35546875,4.74609375 14.35546875,0.498046875 15.05859375,0.263671875 15.9228515625,0.087890625 17.16796875,0z M2.8125,0L5.09765577316284,0.3662109375 7.10449171066284,1.46484375 8.96484375,3.2958984375 10.83984375,5.830078125 35.15625,42.24609375 29.1796875,42.24609375 7.00195264816284,8.7890625 5.56640672683716,6.6796875 4.39453125,5.2587890625 3.2958984375,4.4677734375 2.05078125,4.21875 1.17187464237213,4.306640625 0.52734375,4.482421875 0,4.74609375 0,0.498046875 0.703124761581421,0.263671875 1.56738257408142,0.087890625 2.8125,0z" />
    </g>
  </g>
</svg>