<?xml version="1.0" encoding="utf-8"?>
<!DOCTYPE svg PUBLIC "-//W3C//DTD SVG 1.1//EN" "http://www.w3.org/Graphics/SVG/1.1/DTD/svg11.dtd">
<svg width="17.63671875" height="31.40625" xmlns="http://www.w3.org/2000/svg" xmlns:xlink="http://www.w3.org/1999/xlink" xmlns:xml="http://www.w3.org/XML/1998/namespace" version="1.1">
  <g>
    <g>
      <path style="fill:#FF0000;fill-opacity:1" d="M15.05859375,0L16.1572265625,0.0732421875 16.962890625,0.234375 17.63671875,0.46875 17.63671875,4.51171875 16.875,4.27734375 16.0400390625,4.1162109375 15.05859375,4.04296875 12.65625,4.5703125 10.400390625,5.8154296875 8.7158203125,7.265625 8.056640625,8.408203125 8.6572265625,9.755859375 10.13671875,11.8505859375 12.0703125,14.384765625 14.00390625,17.0654296875 15.4833984375,19.62890625 16.083984375,21.796875 15.52734375,23.9208984375 14.0185546875,26.0888671875 11.7919921875,28.125 9.0380859375,29.82421875 5.9765625,30.9814453125 2.841796875,31.40625 1.71386742591858,31.318359375 0.8203125,31.11328125 0,30.791015625 0,26.513671875 0.76171875,26.953125 1.6259765625,27.2314453125 2.783203125,27.36328125 4.423828125,27.1142578125 6.2548828125,26.4404296875 8.0712890625,25.48828125 9.6533203125,24.3896484375 10.751953125,23.26171875 11.162109375,22.265625 10.5615234375,20.7861328125 9.08203125,18.7939453125 7.1484375,16.435546875 5.21484375,13.8720703125 3.7353515625,11.2646484375 3.134765625,8.759765625 3.7060546875,6.591796875 5.2294921875,4.541015625 7.412109375,2.7392578125 9.9609375,1.3037109375 12.59765625,0.3515625 15.05859375,0z" />
    </g>
  </g>
</svg>