<?xml version="1.0" encoding="utf-8"?>
<!DOCTYPE svg PUBLIC "-//W3C//DTD SVG 1.1//EN" "http://www.w3.org/Graphics/SVG/1.1/DTD/svg11.dtd">
<svg width="32.021484375" height="67.529296875" xmlns="http://www.w3.org/2000/svg" xmlns:xlink="http://www.w3.org/1999/xlink" xmlns:xml="http://www.w3.org/XML/1998/namespace" version="1.1">
  <g>
    <g>
      <path style="fill:#FF0000;fill-opacity:1" d="M15.05859375,4.453125L15.05859375,18.1640625 16.40625,18.1640625 20.8996562957764,17.7392578125 24.1845703125,16.46484375 26.1950664520264,14.2529296875 26.865234375,11.015625 26.2536602020264,8.0712890625 24.4189453125,6.03515625 21.3464336395264,4.84863567352295 17.021484375,4.453125 15.05859375,4.453125z M10.13671875,0L17.87109375,0 23.583984375,0.703124642372131 28.06640625,2.76855492591858 29.732666015625,4.29199504852295 30.9814453125,6.13769483566284 31.761474609375,8.302001953125 32.021484375,10.78125 31.724853515625,13.487548828125 30.8349609375,15.8642578125 29.432373046875,17.896728515625 27.59765625,19.5703125 22.763671875,21.8408203125 19.8779277801514,22.4230976104736 16.787109375,22.6171875 15.05859375,22.6171875 15.05859375,23.73046875 24.90234375,23.73046875 24.90234375,53.73046875 20.09765625,53.73046875 20.09765625,27.83203125 15.05859375,27.83203125 15.05859375,67.529296875 10.13671875,67.529296875 10.13671875,27.83203125 4.80468702316284,27.83203125 4.80468702316284,53.73046875 0,53.73046875 0,23.73046875 10.13671875,23.73046875 10.13671875,0z" />
    </g>
  </g>
</svg>