<?xml version="1.0" encoding="utf-8"?>
<!DOCTYPE svg PUBLIC "-//W3C//DTD SVG 1.1//EN" "http://www.w3.org/Graphics/SVG/1.1/DTD/svg11.dtd">
<svg width="26.42578125" height="43.154296875" xmlns="http://www.w3.org/2000/svg" xmlns:xlink="http://www.w3.org/1999/xlink" xmlns:xml="http://www.w3.org/XML/1998/namespace" version="1.1">
  <g>
    <g>
      <path style="fill:#FF0000;fill-opacity:1" d="M11.484375,0L18.017578125,2.724609375 14.267578125,11.748046875 18.603515625,12.4365234375 21.826171875,14.208984375 24.0673828125,16.81640625 25.4736328125,19.98046875 26.2060546875,23.4228515625 26.42578125,26.865234375 26.2060527801514,30.179443359375 25.546875,33.2666015625 24.4482402801514,36.046142578125 22.91015625,38.4375 20.9252910614014,40.400390625 18.486328125,41.89453125 15.6005859375,42.83935546875 12.275390625,43.154296875 9.39834594726563,42.9501342773438 6.9049072265625,42.337646484375 4.79507446289063,41.3168334960938 3.06884765625,39.8876953125 1.72622680664063,38.0502319335938 0.7672119140625,35.804443359375 0.191802978515625,33.1503295898438 0,30.087890625 0,16.552734375 4.775390625,16.552734375 4.775390625,29.677734375 5.2642822265625,33.804931640625 6.73095703125,36.7529296875 9.1754150390625,38.521728515625 12.59765625,39.111328125 14.893798828125,38.8623046875 16.8017578125,38.115234375 19.5703125,35.44921875 21.09375,31.5966796875 21.5625,27.041015625 21.0388164520264,22.203369140625 19.4677734375,18.6474609375 16.878662109375,16.4611835479736 13.30078125,15.732421875 11.044921875,15.8642578125 9.2578125,16.142578125 7.6171875,16.552734375 7.6171875,16.083984375 12.24609375,5.33203125 9.7265625,4.248046875 11.484375,0z" />
    </g>
  </g>
</svg>