<?xml version="1.0" encoding="utf-8"?>
<!DOCTYPE svg PUBLIC "-//W3C//DTD SVG 1.1//EN" "http://www.w3.org/Graphics/SVG/1.1/DTD/svg11.dtd">
<svg width="41.8359375" height="43.798828125" xmlns="http://www.w3.org/2000/svg" xmlns:xlink="http://www.w3.org/1999/xlink" xmlns:xml="http://www.w3.org/XML/1998/namespace" version="1.1">
  <g>
    <g>
      <path style="fill:#FF0000;fill-opacity:1" d="M29.150390625,37.470703125L28.02978515625,37.84423828125 27.65625,38.96484375 28.02978515625,40.0634765625 29.150390625,40.4296875 30.2490234375,40.0634765625 30.615234375,38.96484375 30.2490234375,37.84423828125 29.150390625,37.470703125z M12.65625,37.470703125L11.5576171875,37.84423828125 11.19140625,38.96484375 11.5576171875,40.0634765625 12.65625,40.4296875 13.77685546875,40.0634765625 14.150390625,38.96484375 13.77685546875,37.84423828125 12.65625,37.470703125z M5.478515625,36.4453125L5.478515625,37.646484375 11.30859375,37.646484375 12.65625,37.060546875 14.00390625,37.646484375 27.802734375,37.646484375 29.150390625,37.060546875 30.498046875,37.646484375 36.328125,37.646484375 36.328125,36.4453125 5.478515625,36.4453125z M12.685546875,34.3359375L12.685546875,35.44921875 29.12109375,35.44921875 29.12109375,34.3359375 12.685546875,34.3359375z M30.263671875,32.109375L30.263671875,35.44921875 34.951171875,35.44921875 34.951171875,32.109375 30.263671875,32.109375z M12.685546875,32.109375L12.685546875,33.22265625 29.12109375,33.22265625 29.12109375,32.109375 12.685546875,32.109375z M6.85546875,32.109375L6.85546875,35.44921875 11.54296875,35.44921875 11.54296875,32.109375 6.85546875,32.109375z M36.181640625,12.919921875L39.580078125,12.919921875 39.580078125,21.6796875 36.181640625,24.697265625 36.181640625,23.7890625 38.642578125,21.6796875 37.265625,21.6796875 37.265625,13.359375 36.181640625,13.359375 36.181640625,12.919921875z M21.85546875,12.919921875L21.85546875,21.6796875 34.8046875,21.6796875 34.8046875,12.919921875 21.85546875,12.919921875z M7.001953125,12.919921875L7.001953125,21.6796875 19.951171875,21.6796875 19.951171875,12.919921875 7.001953125,12.919921875z M2.2265625,12.919921875L5.625,12.919921875 5.625,13.359375 4.5703125,13.359375 4.5703125,21.6796875 3.193359375,21.6796875 5.625,23.7890625 5.625,24.697265625 2.2265625,21.6796875 2.2265625,12.919921875z M7.8515625,10.60546875L33.92578125,10.60546875 35.15625,11.2353515625 35.80078125,12.568359375 35.80078125,36.064453125 36.650390625,36.064453125 36.650390625,37.880859375 35.80078125,37.880859375 35.80078125,39.169921875 34.39453125,39.169921875 34.39453125,43.798828125 29.12109375,43.798828125 29.12109375,40.751953125 27.8759765625,40.341796875 27.3046875,39.169921875 14.47265625,39.169921875 13.92333984375,40.341796875 12.685546875,40.751953125 12.685546875,43.798828125 7.412109375,43.798828125 7.412109375,39.169921875 6.005859375,39.169921875 6.005859375,37.880859375 5.15625,37.880859375 5.15625,36.064453125 6.005859375,36.064453125 5.9765625,12.568359375 6.6796875,11.220703125 7.8515625,10.60546875z M26.630859375,9.43359375L29.150390625,9.43359375 26.630859375,10.13671875 26.630859375,9.43359375z M15.673828125,9.43359375L26.1328125,9.43359375 26.1328125,10.13671875 15.673828125,10.13671875 15.673828125,9.43359375z M12.65625,9.43359375L15.205078125,9.43359375 15.205078125,10.13671875 12.65625,9.43359375z M41.8359375,9.0234375L41.8359375,10.078125 34.775390625,9.580078125 41.8359375,9.0234375z M0,9.0234375L7.03125,9.580078125 0,10.078125 0,9.0234375z M15.673828125,7.998046875L26.1328125,7.998046875 26.1328125,9.0234375 15.673828125,9.0234375 15.673828125,7.998046875z M31.0546875,7.119140625L33.046875,7.119140625 33.662109375,10.1953125 30.64453125,10.1953125 31.0546875,7.119140625z M8.759765625,7.119140625L10.751953125,7.119140625 11.162109375,10.1953125 8.14453125,10.1953125 8.759765625,7.119140625z M12.65625,4.775390625L15.205078125,4.775390625 15.205078125,6.09375 26.630859375,6.09375 26.630859375,4.775390625 29.150390625,4.775390625 29.150390625,9.0234375 26.630859375,9.0234375 26.630859375,7.587890625 15.205078125,7.587890625 15.205078125,9.0234375 12.65625,9.0234375 12.65625,4.775390625z M40.810546875,3.662109375L41.337890625,4.5703125 35.009765625,7.67578125 40.810546875,3.662109375z M0.99609375,3.662109375L6.826171875,7.67578125 0.46875,4.5703125 0.99609375,3.662109375z M36.591796875,0.380859375L37.5,0.908203125 33.544921875,5.7421875 36.591796875,0.380859375z M5.244140625,0.380859375L8.26171875,5.7421875 4.3359375,0.908203125 5.244140625,0.380859375z M30.52734375,0L31.58203125,0 31.083984375,5.68359375 30.52734375,0z M10.25390625,0L11.30859375,0 10.751953125,5.68359375 10.25390625,0z" />
    </g>
  </g>
</svg>