<?xml version="1.0" encoding="utf-8"?>
<!DOCTYPE svg PUBLIC "-//W3C//DTD SVG 1.1//EN" "http://www.w3.org/Graphics/SVG/1.1/DTD/svg11.dtd">
<svg width="67.3828125000019" height="65.2734375" xmlns="http://www.w3.org/2000/svg" xmlns:xlink="http://www.w3.org/1999/xlink" xmlns:xml="http://www.w3.org/XML/1998/namespace" version="1.1">
  <g>
    <g>
      <path style="fill:#FF0000;fill-opacity:1" d="M37.79296875,52.646484375L39.0087890625,55.224609375 40.25390625,57.802734375 41.0302734375,58.623046875 42.099609375,58.9453125 43.5791015625,58.330078125 44.208984375,56.865234375 44.208984375,52.646484375 37.79296875,52.646484375z M14.6484375,52.646484375L17.109375,57.802734375 17.8564453125,58.6376953125 18.955078125,58.9453125 20.4345703125,58.330078125 21.064453125,56.865234375 21.064453125,52.646484375 14.6484375,52.646484375z M42.099609375,31.58203125L44.560546875,31.58203125 42.65625,37.91015625 42.099609375,37.91015625 42.099609375,31.58203125z M33.69140625,31.58203125L40.01953125,31.58203125 40.01953125,37.91015625 33.69140625,37.91015625 33.69140625,31.58203125z M25.25390625,31.58203125L31.58203125,31.58203125 31.58203125,37.91015625 25.25390625,37.91015625 25.25390625,31.58203125z M16.845703125,31.58203125L23.173828125,31.58203125 23.173828125,37.91015625 16.845703125,37.91015625 16.845703125,31.58203125z M12.3046875,31.58203125L14.736328125,31.58203125 14.736328125,37.91015625 14.208984375,37.91015625 12.3046875,31.58203125z M42.099609375,21.064453125L47.6953125,21.064453125 45.791015625,27.421875 42.099609375,27.421875 42.099609375,21.064453125z M33.69140625,21.064453125L40.01953125,21.064453125 40.01953125,27.421875 33.69140625,27.421875 33.69140625,21.064453125z M25.25390625,21.064453125L31.58203125,21.064453125 31.58203125,27.421875 25.25390625,27.421875 25.25390625,21.064453125z M16.845703125,21.064453125L23.173828125,21.064453125 23.173828125,27.421875 16.845703125,27.421875 16.845703125,21.064453125z M9.140625,21.064453125L14.736328125,21.064453125 14.736328125,27.421875 11.044921875,27.421875 9.140625,21.064453125z M58.9453125,6.32812404632568L57.9345703125,6.56249904632568 56.7626953125,7.11914014816284 55.634765625,7.8076171875 54.755859375,8.43749904632568 51.2109375,12.1875 48.955078125,16.845703125 6.328125,16.845703125 4.8486328125,17.4609375 4.21875,18.92578125 4.295654296875,19.508056640625 4.5263671875,20.4931640625 5.302734375,23.291015625 6.3427734375,26.7626953125 7.44140625,30.3369140625 8.3935546875,33.4130859375 9.0234375,35.390625 9.7705078125,38.02734375 10.60546875,40.60546875 11.3671875,41.7041015625 12.626953125,42.099609375 42.685546875,42.099609375 44.794921875,46.318359375 10.517578125,46.318359375 8.876953125,46.6552734375 7.5439453125,47.5634765625 6.650390625,48.896484375 6.328125,50.537109375 48.193359375,50.537109375 49.7021484375,49.921875 50.33203125,48.427734375 50.0830078125,47.548828125 49.453125,46.1279296875 48.6181640625,44.4140625 47.724609375,42.65625 46.93359375,41.1181640625 46.40625,40.078125 52.587890625,19.423828125 53.6572265625,16.5234375 55.0927734375,14.0771484375 57.041015625,12.041015625 59.6484375,10.400390625 60.6884765625,9.638671875 61.0546875,8.408203125 60.4248046875,6.94335842132568 58.9453125,6.32812404632568z M58.9453125,0L62.1826171875,0.673827528953552 64.8779296875,2.490234375 66.708984375,5.17089748382568 67.3828125,8.408203125 66.73828125,11.6162109375 64.9658203125,14.3115234375 62.3583984375,16.171875 59.208984375,16.875 58.8134765625,16.8603496551514 58.41796875,16.81640625 57.7880859375,17.3876953125 57.216796875,18.7060546875 56.7626953125,20.1416015625 56.513671875,21.03515625 50.91796875,39.697265625 53.84765625,45.615234375 54.521484375,48.427734375 54.19921875,50.3759765625 53.3056640625,52.1337890625 51.943359375,53.5400390625 50.185546875,54.43359375 50.537109375,56.865234375 49.86328125,60.1171875 48.0322265625,62.783203125 45.3369140625,64.599609375 42.099609375,65.2734375 38.8330078125,64.6142578125 36.15234375,62.8125 34.3505859375,60.1318359375 33.69140625,56.865234375 33.955078125,54.755859375 27.099609375,54.755859375 27.36328125,56.865234375 26.7041015625,60.1318359375 24.90234375,62.8125 22.2216796875,64.6142578125 18.955078125,65.2734375 15.703125,64.599609375 13.0224609375,62.783203125 11.19140625,60.1171875 10.517578125,56.865234375 10.78125,54.755859375 2.109375,54.755859375 2.109375,50.537109375 2.4462890625,48.1494140625 3.427734375,45.99609375 4.98046875,44.208984375 7.001953125,42.890625 6.767578125,42.3779296875 6.591796875,41.8359375 0.263671875,20.771484375 0,18.955078125 0.498046875,16.5087890625 1.8603515625,14.4873046875 3.8818359375,13.125 6.328125,12.626953125 46.11328125,12.626953125 48.1787071228027,9.22119140625 50.80078125,6.26953125 51.97265625,3.7646484375 53.8330078125,1.77246105670929 56.220703125,0.468749761581421 58.9453125,0z" />
    </g>
  </g>
</svg>