<?xml version="1.0" encoding="utf-8"?>
<!DOCTYPE svg PUBLIC "-//W3C//DTD SVG 1.1//EN" "http://www.w3.org/Graphics/SVG/1.1/DTD/svg11.dtd">
<svg width="67.3828125000008" height="63.1640625" xmlns="http://www.w3.org/2000/svg" xmlns:xlink="http://www.w3.org/1999/xlink" xmlns:xml="http://www.w3.org/XML/1998/namespace" version="1.1">
  <g>
    <g>
      <path style="fill:#FF0000;fill-opacity:1" d="M31.58203125,46.318359375L31.58203125,48.427734375 29.94140625,48.7646484375 28.6083984375,49.6728515625 27.7001953125,51.005859375 27.36328125,52.646484375 35.80078125,52.646484375 35.80078125,46.318359375 31.58203125,46.318359375z M42.36328125,40.341796875L40.4296875,44.208984375 42.65625,44.208984375 43.7109375,42.12890625 42.36328125,40.341796875z M51.591796875,35.80078125L49.4824180603027,35.9912109375 47.431640625,36.5625 48.75,38.3203125 50.1416015625,37.998046875 51.591796875,37.880859375 55.283203125,38.6279296875 58.2861328125,40.6640625 60.3076171875,43.681640625 61.0546875,47.373046875 60.3076171875,51.0498046875 58.271484375,54.052734375 55.2685546875,56.0888671875 51.591796875,56.8359375 48.7060546875,56.3818359375 46.142578125,55.0927734375 44.0625,53.1005859375 42.65625,50.537109375 40.4296875,50.537109375 42.041015625,53.9501953125 44.6044921875,56.6015625 47.87109375,58.330078125 51.591796875,58.9453125 53.9208946228027,58.71826171875 56.103515625,58.037109375 59.7802734375,55.5615234375 62.255859375,51.884765625 62.93701171875,49.7021484375 63.1640625,47.373046875 62.93701171875,45.0439453125 62.255859375,42.861328125 59.7802734375,39.1845703125 56.103515625,36.708984375 53.9208946228027,36.02783203125 51.591796875,35.80078125z M15.791015625,35.80078125L13.4619140625,36.02783203125 11.279296875,36.708984375 7.6025390625,39.1845703125 5.126953125,42.861328125 4.44580078125,45.0439453125 4.21875,47.373046875 4.44580078125,49.7021484375 5.126953125,51.884765625 7.6025390625,55.5615234375 11.279296875,58.037109375 13.4619140625,58.71826171875 15.791015625,58.9453125 18.5449199676514,58.623046875 21.123046875,57.65625 23.4008769989014,56.103515625 25.25390625,54.0234375 25.25390625,53.583984375 25.3271484375,51.97265625 25.6201171875,50.5224609375 26.25,49.189453125 27.36328125,47.9296875 27.36328125,47.40234375 27.0556640625,44.703369140625 26.1328125,42.1728515625 24.6533203125,39.920654296875 22.67578125,38.056640625 21.884765625,40.107421875 23.3496074676514,41.59423828125 24.404296875,43.359375 25.04150390625,45.31494140625 25.25390625,47.373046875 24.5068359375,51.0498046875 22.470703125,54.052734375 19.4677734375,56.0888671875 15.791015625,56.8359375 12.1142578125,56.0888671875 9.111328125,54.052734375 7.0751953125,51.0498046875 6.328125,47.373046875 6.51855373382568,45.4248046875 7.08984375,43.623046875 9.1552734375,40.6201171875 12.216796875,38.61328125 15.966796875,37.880859375 16.7578125,35.830078125 16.494140625,35.80078125 16.259765625,35.80078125 15.791015625,35.80078125z M42.861328125,33.955078125L41.337890625,35.44921875 45.380859375,40.9130859375 49.482421875,46.318359375 37.91015625,46.318359375 37.91015625,48.427734375 51.591796875,48.427734375 52.3388671875,48.1201171875 52.646484375,47.373046875 52.6171875,47.1533203125 52.529296875,46.93359375 51.2109375,44.970703125 49.716796875,43.095703125 42.861328125,33.955078125z M32.109375,32.98828125L31.58203125,34.62890625 31.58203125,44.208984375 35.80078125,44.208984375 35.80078125,37.880859375 36.416015625,37.294921875 32.109375,32.98828125z M20.595703125,31.58203125L20.3393535614014,32.237548828125 19.921875,33.3251953125 18.779296875,36.3427734375 17.4169921875,39.931640625 16.0986328125,43.4033203125 15.1171875,46.0986328125 14.83154296875,46.959228515625 14.736328125,47.34375 15.0439453125,48.10546875 15.791015625,48.427734375 16.259765625,48.310546875 16.640625,47.98828125 16.904296875,47.3583984375 17.51953125,45.7470703125 18.3984375,43.447265625 19.4091796875,40.7958984375 20.4345703125,38.0859375 21.357421875,35.625 22.060546875,33.720703125 22.412109375,32.6953125 29.47265625,42.099609375 29.47265625,38.583984375 24.228515625,31.58203125 20.595703125,31.58203125z M13.564453125,31.40625L15.2783203125,32.98828125 17.548828125,33.662109375 18.310546875,31.669921875 17.87109375,31.58203125 17.197265625,31.552734375 16.142578125,31.58203125 15.3515625,31.611328125 14.4287109375,31.58203125 13.564453125,31.40625z M28.916015625,29.47265625L27.509765625,30.9375 25.60546875,31.58203125 30.52734375,31.58203125 32.548828125,29.47265625 28.916015625,29.47265625z M23.173828125,23.14453125L23.173828125,25.25390625 14.736328125,25.25390625 13.2421875,25.869140625 12.626953125,27.36328125 13.2421875,28.857421875 14.736328125,29.47265625 25.283203125,29.47265625 26.748046875,28.8427734375 27.36328125,27.36328125 27.36328125,23.14453125 23.173828125,23.14453125z M44.619140625,20.390625L33.57421875,31.435546875 35.6982421875,33.6767578125 37.939453125,35.830078125 41.572265625,32.255859375 43.53515625,30.439453125 45.41015625,28.53515625 46.1279296875,27.099609375 46.318359375,25.48828125 46.2890625,24.0087890625 46.083984375,22.7197265625 45.5712890625,21.5478515625 44.619140625,20.390625z M25.25390625,14.736328125L23.7890625,15.3662109375 23.173828125,16.845703125 23.173828125,21.03515625 29.47265625,21.03515625 29.47265625,23.14453125 35.7421875,26.279296875 37.529296875,24.4921875 29.47265625,20.44921875 29.47265625,18.10546875 39.111328125,22.939453125 42.94921875,19.072265625 39.854736328125,17.193603515625 36.5478515625,15.8349609375 33.072509765625,15.010986328125 29.47265625,14.736328125 25.25390625,14.736328125z M16.845703125,12.626953125L16.845703125,18.837890625 19.3505859375,17.5634765625 20.830078125,15.1757822036743 18.6328125,12.978515625 18.8671875,12.626953125 16.845703125,12.626953125z M10.517578125,12.626953125L10.517578125,13.681640625 10.83984375,15.46875 11.71875,17.0068359375 13.0517578125,18.1787109375 14.736328125,18.837890625 14.736328125,12.626953125 10.517578125,12.626953125z M14.736328125,6.298828125L16.845703125,6.298828125 18.33984375,6.9140625 18.955078125,8.408203125 12.626953125,8.408203125 13.2421875,6.9140625 14.736328125,6.298828125z M14.736328125,4.189453125L12.275390625,4.6875 10.2685546875,6.0498046875 8.90625,8.056640625 8.408203125,10.517578125 23.173828125,10.517578125 22.67578125,8.056640625 21.3134765625,6.0498046875 19.306640625,4.6875 16.845703125,4.189453125 14.736328125,4.189453125z M14.736328125,0L16.845703125,0 18.9514141082764,0.208743363618851 20.9326171875,0.834961652755737 24.2724609375,3.09082102775574 26.5283203125,6.4306640625 27.154541015625,8.411865234375 27.36328125,10.517578125 29.47265625,10.517578125 34.0576171875,10.887451171875 38.4375,11.9970703125 42.5683555603027,13.831787109375 46.40625,16.376953125 48.1310997009277,17.977294921875 49.4384765625,19.7900390625 50.2624473571777,21.8518085479736 50.537109375,24.19921875 50.537109375,25.517578125 49.892578125,29.0625 47.87109375,32.021484375 51.591796875,31.58203125 54.7521934509277,31.893310546875 57.7294921875,32.8271484375 60.428466796875,34.295654296875 62.75390625,36.2109375 64.669189453125,38.536376953125 66.1376953125,41.2353515625 67.071533203125,44.212646484375 67.3828125,47.373046875 67.071533203125,50.533447265625 66.1376953125,53.5107421875 64.669189453125,56.209716796875 62.75390625,58.53515625 60.428466796875,60.450439453125 57.7294921875,61.9189453125 54.7521934509277,62.852783203125 51.591796875,63.1640625 47.9296875,62.7392578125 44.5166015625,61.494140625 41.4697265625,59.501953125 38.935546875,56.8359375 28.41796875,56.8359375 25.8984375,59.501953125 22.8515625,61.4794921875 19.423828125,62.724609375 15.791015625,63.1640625 12.630615234375,62.852783203125 9.6533203125,61.9189453125 6.95434474945068,60.450439453125 4.62890625,58.53515625 2.713623046875,56.209716796875 1.2451171875,53.5107421875 0.311278939247131,50.533447265625 0,47.373046875 0.673828125,42.8173828125 2.5927734375,38.701171875 5.59570217132568,35.302734375 9.521484375,32.87109375 8.61328125,30.1611328125 8.408203125,27.333984375 8.60595703125,25.7666034698486 9.19921875,24.345703125 11.07421875,21.884765625 9.290771484375,20.5773944854736 7.8662109375,18.8818359375 6.87377834320068,16.900634765625 6.38671875,14.736328125 4.21875,14.736328125 4.21875,10.517578125 4.427490234375,8.411865234375 5.0537109375,6.4306640625 7.3095703125,3.09082102775574 10.6494140625,0.834961652755737 12.630615234375,0.208743363618851 14.736328125,0z" />
    </g>
  </g>
</svg>