<?xml version="1.0" encoding="utf-8"?>
<!DOCTYPE svg PUBLIC "-//W3C//DTD SVG 1.1//EN" "http://www.w3.org/Graphics/SVG/1.1/DTD/svg11.dtd">
<svg width="67.3828125" height="67.3828125" xmlns="http://www.w3.org/2000/svg" xmlns:xlink="http://www.w3.org/1999/xlink" xmlns:xml="http://www.w3.org/XML/1998/namespace" version="1.1">
  <g>
    <g>
      <path style="fill:#FF0000;fill-opacity:1" d="M31.58203125,50.537109375L31.58203125,52.646484375 29.94140625,52.9833984375 28.6083984375,53.8916015625 27.7001953125,55.224609375 27.36328125,56.865234375 35.80078125,56.865234375 35.80078125,50.537109375 31.58203125,50.537109375z M42.36328125,44.560546875L40.4296875,48.427734375 42.65625,48.427734375 43.7109375,46.34765625 42.36328125,44.560546875z M51.591796875,40.01953125L49.4824180603027,40.2099609375 47.431640625,40.78125 48.75,42.5390625 51.591796875,42.12890625 55.283203125,42.8759765625 58.2861328125,44.8974609375 60.3076171875,47.900390625 61.0546875,51.591796875 60.3076171875,55.283203125 58.2861328125,58.2861328125 55.283203125,60.3076171875 51.591796875,61.0546875 48.7060546875,60.6005859375 46.142578125,59.3115234375 44.0625,57.3193359375 42.65625,54.755859375 40.4296875,54.755859375 42.041015625,58.1689453125 44.6044921875,60.8203125 47.87109375,62.548828125 51.591796875,63.1640625 53.9208946228027,62.93701171875 56.103515625,62.255859375 59.7802734375,59.7802734375 62.255859375,56.103515625 62.93701171875,53.9208984375 63.1640625,51.591796875 62.93701171875,49.2626953125 62.255859375,47.080078125 59.7802734375,43.4033203125 56.103515625,40.927734375 53.9208946228027,40.24658203125 51.591796875,40.01953125z M15.791015625,40.01953125L13.4619140625,40.24658203125 11.279296875,40.927734375 7.6025390625,43.4033203125 5.126953125,47.080078125 4.44580078125,49.2626953125 4.21875,51.591796875 4.44580078125,53.9208984375 5.126953125,56.103515625 7.6025390625,59.7802734375 11.279296875,62.255859375 13.4619140625,62.93701171875 15.791015625,63.1640625 18.5449199676514,62.841796875 21.123046875,61.875 23.4008769989014,60.322265625 25.25390625,58.2421875 25.25390625,57.861328125 25.3271484375,56.2353515625 25.6201171875,54.755859375 26.2646484375,53.408203125 27.36328125,52.1484375 27.36328125,51.62109375 27.0556640625,48.922119140625 26.1328125,46.3916015625 24.6533203125,44.139404296875 22.67578125,42.275390625 21.884765625,44.326171875 24.3603515625,47.5927734375 25.030517578125,49.537353515625 25.25390625,51.591796875 24.5068359375,55.283203125 22.4853515625,58.2861328125 19.482421875,60.3076171875 15.791015625,61.0546875 12.099609375,60.3076171875 9.0966796875,58.2861328125 7.0751953125,55.283203125 6.328125,51.591796875 6.51855373382568,49.6435546875 7.08984375,47.841796875 9.1552734375,44.8388671875 12.216796875,42.8466796875 15.966796875,42.12890625 16.7578125,40.048828125 16.494140625,40.01953125 16.259765625,40.01953125 15.791015625,40.01953125z M42.861328125,38.173828125L41.337890625,39.66796875 45.41015625,45.1171875 49.482421875,50.537109375 37.91015625,50.537109375 37.91015625,52.646484375 51.591796875,52.646484375 52.32421875,52.3388671875 52.646484375,51.62109375 52.529296875,51.15234375 51.2255859375,49.2333984375 49.74609375,47.373046875 42.861328125,38.173828125z M32.109375,37.20703125L31.728515625,37.96875 31.58203125,38.7890625 31.58203125,48.427734375 35.80078125,48.427734375 35.80078125,42.12890625 36.416015625,41.513671875 32.109375,37.20703125z M20.595703125,35.80078125L20.3393535614014,36.456298828125 19.921875,37.5439453125 18.779296875,40.5615234375 17.4169921875,44.150390625 16.0986328125,47.6220703125 15.1171875,50.3173828125 14.83154296875,51.177978515625 14.736328125,51.5625 15.0439453125,52.32421875 15.791015625,52.646484375 16.2890625,52.529296875 16.669921875,52.177734375 16.8127422332764,51.873779296875 17.1240234375,51.0791015625 18.1201171875,48.486328125 19.4091796875,45.0732421875 20.712890625,41.54296875 21.796875,38.5986328125 22.1850566864014,37.540283203125 22.412109375,36.9140625 29.47265625,46.318359375 29.47265625,42.802734375 24.228515625,35.80078125 20.595703125,35.80078125z M28.916015625,33.69140625L27.509765625,35.15625 25.60546875,35.80078125 30.52734375,35.80078125 32.548828125,33.69140625 28.916015625,33.69140625z M23.173828125,27.36328125L23.173828125,29.47265625 14.736328125,29.47265625 13.2568359375,30.1025390625 12.626953125,31.58203125 13.2421875,33.076171875 14.736328125,33.69140625 25.25390625,33.69140625 26.748046875,33.076171875 27.36328125,31.58203125 27.36328125,27.36328125 23.173828125,27.36328125z M10.517578125,25.283203125L9.287109375,25.693359375 8.5546875,26.77734375 7.236328125,29.47265625 8.408203125,29.47265625 8.408203125,31.58203125 10.517578125,29.47265625 10.8984375,29.853515625 11.77001953125,28.6230487823486 13.037109375,27.744140625 12.626953125,26.865234375 12.1435546875,26.07421875 11.484375,25.5029296875 10.517578125,25.283203125z M44.619140625,24.609375L33.57421875,35.68359375 37.939453125,40.048828125 38.5400390625,39.4775390625 39.9462890625,38.115234375 41.748046875,36.357421875 43.564453125,34.5703125 45.0146484375,33.1201171875 45.673828125,32.40234375 46.171875,30.9814453125 46.318359375,29.47265625 46.0400390625,26.8212890625 45.5456504821777,25.6750507354736 44.619140625,24.609375z M25.25390625,18.955078125L23.7890625,19.5849609375 23.173828125,21.064453125 23.173828125,25.283203125 29.47265625,25.283203125 29.47265625,27.36328125 35.7421875,30.498046875 37.529296875,28.7109375 29.47265625,24.697265625 29.47265625,22.32421875 39.111328125,27.158203125 42.94921875,23.291015625 40.01953125,21.533203125 36.8115234375,20.1708984375 33.4423828125,19.27734375 30.029296875,18.955078125 25.25390625,18.955078125z M16.845703125,16.845703125L16.845703125,23.056640625 19.3505859375,21.7822265625 20.830078125,19.39453125 18.6328125,17.197265625 18.8671875,16.845703125 16.845703125,16.845703125z M10.517578125,16.845703125L10.517578125,17.900390625 10.83984375,19.6875 11.71875,21.2255859375 13.0517578125,22.3974609375 14.736328125,23.056640625 14.736328125,16.845703125 10.517578125,16.845703125z M14.736328125,10.517578125L16.845703125,10.517578125 18.3251953125,11.1474609375 18.955078125,12.626953125 12.626953125,12.626953125 13.2568359375,11.1474609375 14.736328125,10.517578125z M14.736328125,8.4375L12.275390625,8.935546875 10.2685546875,10.283203125 8.90625,12.275390625 8.408203125,14.736328125 23.173828125,14.736328125 22.67578125,12.275390625 21.3134765625,10.283203125 19.306640625,8.935546875 16.845703125,8.4375 14.736328125,8.4375z M42.099609375,4.21874952316284L40.7080078125,4.541015625 39.609375,5.44921922683716 34.51171875,12.626953125 37.91015625,12.626953125 37.91015625,16.845703125 42.099609375,12.626953125 46.318359375,16.845703125 46.318359375,12.626953125 49.716796875,12.626953125 44.58984375,5.44921922683716 43.505859375,4.541015625 42.099609375,4.21874952316284z M42.099609375,0L43.7548828125,0.190429210662842 45.3515625,0.7470703125 46.7724609375,1.65527355670929 47.9296875,2.87109351158142 67.3828125,30.234375 67.3828125,67.3828125 0,67.3828125 0,34.833984375 4.658203125,25.166015625 5.6982421875,23.3642578125 7.265625,22.001953125 6.38671875,18.955078125 4.21875,18.955078125 4.21875,14.736328125 4.427490234375,12.630615234375 5.0537109375,10.6494140625 7.3095703125,7.3095703125 10.6494140625,5.0537109375 12.630615234375,4.42749309539795 14.736328125,4.21874952316284 16.845703125,4.21874952316284 18.9514141082764,4.42749309539795 20.9326171875,5.0537109375 24.2724609375,7.3095703125 26.5283203125,10.6494140625 27.154541015625,12.630615234375 27.36328125,14.736328125 27.861328125,14.736328125 36.181640625,3.017578125 38.7744140625,0.805664539337158 40.404052734375,0.201418936252594 42.099609375,0z" />
    </g>
  </g>
</svg>