<?xml version="1.0" encoding="utf-8"?>
<!DOCTYPE svg PUBLIC "-//W3C//DTD SVG 1.1//EN" "http://www.w3.org/Graphics/SVG/1.1/DTD/svg11.dtd">
<svg width="67.3828125" height="42.12890625" xmlns="http://www.w3.org/2000/svg" xmlns:xlink="http://www.w3.org/1999/xlink" xmlns:xml="http://www.w3.org/XML/1998/namespace" version="1.1">
  <g>
    <g>
      <path style="fill:#FF0000;fill-opacity:1" d="M58.9453125,21.064453125L58.9453125,26.923828125 60.087890625,26.2353515625 61.0546875,25.283203125 61.0546875,23.173828125 60.4248046875,21.6943359375 58.9453125,21.064453125z M42.099609375,14.765625L43.59375,15.380859375 44.208984375,16.875 43.5791015625,18.33984375 42.099609375,18.955078125 40.634765625,18.33984375 40.01953125,16.875 40.634765625,15.3955078125 42.099609375,14.765625z M33.69140625,14.765625L35.185546875,15.380859375 35.80078125,16.875 35.1708984375,18.33984375 33.69140625,18.955078125 32.2119140625,18.33984375 31.58203125,16.875 32.197265625,15.380859375 33.69140625,14.765625z M6.328125,14.765625L8.408203125,18.955078125 18.955078125,18.955078125 21.064453125,23.173828125 10.517578125,23.173828125 12.626953125,27.392578125 13.65234375,27.392578125 15.2490234375,27.333984375 16.5966796875,27.0556640625 17.7978515625,26.4111328125 18.955078125,25.283203125 20.830078125,26.806640625 23.173828125,27.392578125 25.5029296875,26.806640625 27.36328125,25.283203125 29.23828125,26.806640625 31.58203125,27.392578125 33.92578125,26.806640625 35.80078125,25.283203125 37.67578125,26.806640625 40.01953125,27.392578125 42.3486328125,26.806640625 44.208984375,25.283203125 46.083984375,26.806640625 48.427734375,27.392578125 50.771484375,26.806640625 52.646484375,25.283203125 54.521484375,26.806640625 56.865234375,27.392578125 56.865234375,23.173828125 31.58203125,23.173828125 29.47265625,18.955078125 25.25390625,18.955078125 23.173828125,14.765625 6.328125,14.765625z M35.80078125,8.4375L40.01953125,8.4375 40.01953125,12.65625 35.80078125,12.65625 35.80078125,8.4375z M34.74609375,4.248046875L33.984375,4.541015625 32.197265625,6.328125 27.36328125,6.328125 25.25390625,8.4375 33.69140625,8.4375 33.69140625,12.65625 24.462890625,12.65625 26.572265625,16.875 30.791015625,16.875 31.81640625,18.9697265625 32.87109375,21.064453125 53.701171875,21.064453125 52.646484375,18.955078125 52.646484375,16.875 58.9453125,13.7109375 52.646484375,10.546875 50.537109375,10.546875 50.537109375,18.955078125 48.427734375,18.955078125 48.427734375,12.65625 42.099609375,12.65625 42.099609375,8.4375 44.208984375,8.4375 44.208984375,6.328125 35.185546875,6.328125 35.595703125,5.859375 35.771484375,5.302734375 35.4638671875,4.5703125 34.74609375,4.248046875z M34.74609375,0L37.1044921875,0.556640625 38.96484375,2.109375 48.427734375,2.109375 48.427734375,6.328125 53.642578125,6.328125 60.5126953125,9.7705078125 67.3828125,13.212890625 67.3828125,14.208984375 61.23046875,17.28515625 63.5009765625,18.7646484375 64.921875,21.064453125 67.3828125,21.064453125 67.3828125,42.12890625 0,42.12890625 0,21.064453125 4.775390625,21.064453125 3.5888671875,18.896484375 2.548828125,16.640625 0,11.54296875 0,10.546875 13.0078125,10.546875 15.087890625,8.4375 19.306640625,8.4375 25.634765625,2.109375 30.46875,2.109375 32.373046875,0.5712890625 34.74609375,0z" />
    </g>
  </g>
</svg>