<?xml version="1.0" encoding="utf-8"?>
<!DOCTYPE svg PUBLIC "-//W3C//DTD SVG 1.1//EN" "http://www.w3.org/Graphics/SVG/1.1/DTD/svg11.dtd">
<svg width="67.3828125000013" height="67.3828125" xmlns="http://www.w3.org/2000/svg" xmlns:xlink="http://www.w3.org/1999/xlink" xmlns:xml="http://www.w3.org/XML/1998/namespace" version="1.1">
  <g>
    <g>
      <path style="fill:#FF0000;fill-opacity:1" d="M29.47265625,58.974609375L29.47265625,63.1640625 63.1640625,63.1640625 63.1640625,58.974609375 29.47265625,58.974609375z M58.18359375,50.537109375L57.13623046875,52.7490234375 55.634765625,54.755859375 63.1640625,54.755859375 63.1640625,50.537109375 58.18359375,50.537109375z M41.513671875,50.537109375L43.6083984375,52.1044921875 46.171875,52.646484375 48.779296875,52.08984375 50.947265625,50.537109375 41.513671875,50.537109375z M29.47265625,50.537109375L29.47265625,54.755859375 36.826171875,54.755859375 35.4345703125,52.763671875 34.39453125,50.537109375 29.47265625,50.537109375z M58.974609375,42.12890625L58.9892578125,43.1982421875 59.00390625,44.736328125 58.9892578125,45.76171875 58.9453125,46.318359375 63.1640625,46.318359375 63.1640625,42.12890625 58.974609375,42.12890625z M40.01953125,42.12890625L40.01953125,46.318359375 52.646484375,46.318359375 52.646484375,42.12890625 40.01953125,42.12890625z M29.47265625,42.12890625L29.47265625,46.318359375 33.69140625,46.318359375 33.69140625,42.12890625 29.47265625,42.12890625z M36.85546875,40.01953125L36.1083984375,40.3271484375 35.80078125,41.07421875 35.80078125,46.318359375 35.99853515625,48.446044921875 36.591796875,50.4345703125 38.7744140625,53.7744140625 42.0703125,56.0302734375 44.0478477478027,56.656494140625 46.171875,56.865234375 48.3068809509277,56.65283203125 50.3173828125,56.015625 53.7158203125,53.7158203125 56.015625,50.3173828125 56.65283203125,48.306884765625 56.865234375,46.171875 56.865234375,41.07421875 56.5576171875,40.3271484375 55.810546875,40.01953125 54.9462890625,40.458984375 54.755859375,41.455078125 54.755859375,46.318359375 54.08203125,49.6142578125 52.236328125,52.294921875 49.51171875,54.0966796875 46.171875,54.755859375 42.890625,54.0966796875 40.2685546875,52.294921875 38.5400390625,49.6142578125 37.91015625,46.318359375 37.91015625,41.455078125 37.7197265625,40.458984375 36.85546875,40.01953125z M62.021484375,26.6015625L61.259765625,26.89453125 52.646484375,35.80078125 49.306640625,31.435546875 48.45703125,31.0546875 47.607421875,31.435546875 44.208984375,35.419921875 44.208984375,35.80078125 52.646484375,35.80078125 63.1640625,35.80078125 63.1640625,27.71484375 62.841796875,26.9091796875 62.021484375,26.6015625z M4.21875,18.955078125L4.21875,63.1640625 27.36328125,63.1640625 27.36328125,35.80078125 42.099609375,35.80078125 42.099609375,18.955078125 35.80078125,18.955078125 35.80078125,24.228515625 35.5517578125,25.4443359375 34.86328125,26.4404296875 33.8525390625,27.1142578125 32.63671875,27.36328125 31.4208984375,27.1142578125 30.41015625,26.4404296875 29.7216796875,25.4443359375 29.47265625,24.228515625 29.47265625,18.955078125 16.845703125,18.955078125 16.845703125,24.228515625 16.5966796875,25.4443359375 15.908203125,26.4404296875 14.8974609375,27.1142578125 13.681640625,27.36328125 12.4658203125,27.1142578125 11.455078125,26.4404296875 10.7666015625,25.4443359375 10.517578125,24.228515625 10.517578125,18.955078125 4.21875,18.955078125z M41.07421875,12.65625L40.3125,12.94921875 36.416015625,16.845703125 42.099609375,16.845703125 42.099609375,13.681640625 41.7919921875,12.9638671875 41.07421875,12.65625z M5.2734375,10.546875L4.541015625,10.8544921875 4.21875,11.572265625 4.21875,16.845703125 10.517578125,16.845703125 10.517578125,15.234375 6.03515625,10.8984375 5.2734375,10.546875z M20.009765625,10.517578125L19.189453125,10.8984375 16.9921875,13.505859375 16.8896484375,14.208984375 16.845703125,14.912109375 16.845703125,16.845703125 25.83984375,16.845703125 20.80078125,10.8984375 20.009765625,10.517578125z M23.3203125,4.21874952316284L21.1853008270264,4.43115520477295 19.1748046875,5.06835985183716 15.7763671875,7.36816358566284 13.4765625,10.7666015625 12.83935546875,12.777099609375 12.626953125,14.912109375 12.626953125,24.228515625 12.94921875,24.9609375 13.681640625,25.283203125 14.4140625,24.9609375 14.736328125,24.228515625 14.736328125,14.912109375 15.41015625,11.5869140625 17.255859375,8.84765625 19.9951171875,7.001953125 23.3203125,6.328125 26.630859375,6.98730421066284 29.2529296875,8.8037109375 30.966796875,11.513671875 31.58203125,14.82421875 31.58203125,24.228515625 31.904296875,24.9609375 32.63671875,25.283203125 33.369140625,24.9609375 33.69140625,24.228515625 33.69140625,14.82421875 33.49365234375,12.69287109375 32.900390625,10.693359375 30.732421875,7.32421875 27.451171875,5.0537109375 25.46630859375,4.42749309539795 23.3203125,4.21874952316284z M23.3203125,0L27.919921875,0.732421636581421 31.9189453125,2.783203125 35.0830078125,5.97656202316284 37.177734375,10.13671875 37.939453125,9.43359375 38.935546875,8.8916015625 40.0048828125,8.5546875 41.044921875,8.4375 43.095703125,8.84765625 44.7802734375,9.9609375 45.908203125,11.6308584213257 46.318359375,13.681640625 46.318359375,27.275390625 48.45703125,26.8359375 50.9033203125,27.421875 52.822265625,29.033203125 58.388671875,23.818359375 60.087890625,22.763671875 62.05078125,22.3828125 64.130859375,22.79296875 65.830078125,23.935546875 66.97265625,25.634765625 67.3828125,27.71484375 67.3828125,67.3828125 0,67.3828125 0,11.572265625 0.410156726837158,9.5361328125 1.5380859375,7.86621046066284 3.22265625,6.73828077316284 5.2734375,6.328125 6.650390625,6.50390625 7.79296875,6.98730421066284 8.7890625,7.71972703933716 9.78515625,8.642578125 12.1142578125,5.08300828933716 15.3076171875,2.35839819908142 19.1162109375,0.615234375 23.3203125,0z" />
    </g>
  </g>
</svg>