<?xml version="1.0" encoding="utf-8"?>
<!DOCTYPE svg PUBLIC "-//W3C//DTD SVG 1.1//EN" "http://www.w3.org/Graphics/SVG/1.1/DTD/svg11.dtd">
<svg width="31.5820312500034" height="67.3828125" xmlns="http://www.w3.org/2000/svg" xmlns:xlink="http://www.w3.org/1999/xlink" xmlns:xml="http://www.w3.org/XML/1998/namespace" version="1.1">
  <g>
    <g>
      <path style="fill:#FF0000;fill-opacity:1" d="M23.173828125,42.12890625L25.283203125,42.12890625 25.283203125,44.23828125 23.173828125,44.23828125 23.173828125,42.12890625z M18.955078125,42.12890625L21.064453125,42.12890625 21.064453125,44.23828125 18.955078125,44.23828125 18.955078125,42.12890625z M23.173828125,37.91015625L25.283203125,37.91015625 25.283203125,40.01953125 23.173828125,40.01953125 23.173828125,37.91015625z M18.955078125,37.91015625L21.064453125,37.91015625 21.064453125,40.01953125 18.955078125,40.01953125 18.955078125,37.91015625z M23.173828125,33.69140625L25.283203125,33.69140625 25.283203125,35.80078125 23.173828125,35.80078125 23.173828125,33.69140625z M18.955078125,33.69140625L21.064453125,33.69140625 21.064453125,35.80078125 18.955078125,35.80078125 18.955078125,33.69140625z M14.736328125,31.58203125L16.845703125,31.58203125 16.845703125,42.12890625 14.736328125,42.12890625 14.736328125,31.58203125z M4.27734327316284,14.736328125L5.17089700698853,17.8271484375 7.00195264816284,20.390625 9.5654296875,22.2216796875 12.65625,23.115234375 12.65625,58.974609375 8.43749809265137,58.974609375 8.43749809265137,61.0546875 6.32812452316284,61.0546875 6.32812452316284,63.1640625 21.064453125,63.1640625 21.064453125,61.0546875 18.955078125,61.0546875 18.955078125,58.974609375 14.736328125,58.974609375 14.736328125,44.23828125 16.845703125,44.23828125 16.845703125,46.318359375 27.392578125,46.318359375 27.392578125,31.58203125 16.93359375,31.58203125 16.93359375,29.47265625 27.392578125,29.47265625 27.392578125,27.36328125 16.845703125,27.36328125 16.845703125,29.47265625 14.736328125,29.47265625 14.736328125,23.115234375 17.8271484375,22.2216796875 20.390625,20.390625 22.2216796875,17.8271484375 23.115234375,14.736328125 4.27734327316284,14.736328125z M13.681640625,4.21874952316284L10.25390625,4.86328077316284 7.38281202316284,6.6357421875 5.30273389816284,9.3017578125 4.27734327316284,12.626953125 23.115234375,12.626953125 22.08984375,9.3017578125 19.9951171875,6.6357421875 17.0947265625,4.86328077316284 13.681640625,4.21874952316284z M13.681640625,0L16.4355449676514,0.270998895168304 19.013671875,1.08398389816284 21.3464336395264,2.36206340789795 23.3642578125,4.0283203125 25.030517578125,6.04614543914795 26.30859375,8.37890625 27.12158203125,10.95703125 27.392578125,13.7109375 27.139892578125,16.318359375 26.3818359375,18.80859375 25.162353515625,21.11572265625 23.525390625,23.173828125 31.58203125,23.173828125 31.58203125,50.537109375 18.955078125,50.537109375 18.955078125,54.755859375 23.14453125,54.755859375 23.14453125,56.865234375 25.25390625,56.865234375 25.25390625,67.3828125 2.10937452316284,67.3828125 2.10937452316284,56.865234375 4.21874952316284,56.865234375 4.21874952316284,54.755859375 8.408203125,54.755859375 8.408203125,26.279296875 4.95117139816284,24.1845703125 2.29980421066284,21.240234375 0.600585460662842,17.666015625 0,13.681640625 0.270995318889618,10.94970703125 1.08398389816284,8.37890625 2.36206007003784,6.04614543914795 4.02831983566284,4.0283203125 6.04614162445068,2.36206340789795 8.37890625,1.08398389816284 10.94970703125,0.270998895168304 13.681640625,0z" />
    </g>
  </g>
</svg>