<?xml version="1.0" encoding="utf-8"?>
<!DOCTYPE svg PUBLIC "-//W3C//DTD SVG 1.1//EN" "http://www.w3.org/Graphics/SVG/1.1/DTD/svg11.dtd">
<svg width="63.1640625000009" height="67.3828125" xmlns="http://www.w3.org/2000/svg" xmlns:xlink="http://www.w3.org/1999/xlink" xmlns:xml="http://www.w3.org/XML/1998/namespace" version="1.1">
  <g>
    <g>
      <path style="fill:#FF0000;fill-opacity:1" d="M10.517578125,11.220703125L10.517578125,43.505859375 58.9453125,27.36328125 10.517578125,11.220703125z M7.38281154632568,4.21874952316284L6.1376953125,4.46777296066284 5.1416015625,5.1416015625 4.4677734375,6.15234375 4.21875,7.3828125 4.8046875,9.2138671875 6.328125,10.341796875 6.328125,63.1640625 8.408203125,63.1640625 8.408203125,10.341796875 9.931640625,9.2138671875 10.517578125,7.3828125 10.2685546875,6.1669921875 9.5947265625,5.15625 8.5986328125,4.46777296066284 7.38281154632568,4.21874952316284z M7.353515625,0L10.224609375,0.585937261581421 12.5830078125,2.18261766433716 14.1650390625,4.541015625 14.736328125,7.3828125 14.736328125,7.7783203125 14.70703125,8.173828125 60.29296875,23.37890625 62.3876953125,24.90234375 62.969970703125,26.0668964385986 63.1640625,27.392578125 62.969970703125,28.7146015167236 62.3876953125,29.8681640625 60.29296875,31.376953125 12.626953125,47.255859375 12.626953125,67.3828125 2.109375,67.3828125 2.109375,12.5097646713257 0.5419921875,10.1513671875 0,7.35351610183716 0.5712890625,4.45312547683716 2.1240234375,2.1240234375 4.453125,0.571288585662842 7.353515625,0z" />
    </g>
  </g>
</svg>