<?xml version="1.0" encoding="utf-8"?>
<!DOCTYPE svg PUBLIC "-//W3C//DTD SVG 1.1//EN" "http://www.w3.org/Graphics/SVG/1.1/DTD/svg11.dtd">
<svg width="67.3828125" height="61.0546875" xmlns="http://www.w3.org/2000/svg" xmlns:xlink="http://www.w3.org/1999/xlink" xmlns:xml="http://www.w3.org/XML/1998/namespace" version="1.1">
  <g>
    <g>
      <path style="fill:#FF0000;fill-opacity:1" d="M40.01953125,27.36328125L51.591796875,38.96484375 63.1640625,50.537109375 63.1640625,27.36328125 40.01953125,27.36328125z M35.80078125,27.36328125L63.1640625,54.7265625 63.1640625,52.646484375 50.5224609375,40.01953125 37.91015625,27.36328125 35.80078125,27.36328125z M29.47265625,27.36328125L4.21875,52.646484375 4.21875,54.7265625 31.58203125,27.36328125 29.47265625,27.36328125z M4.21875,27.36328125L4.21875,50.537109375 15.791015625,38.96484375 27.36328125,27.36328125 21.064453125,27.36328125 21.064453125,31.58203125 18.955078125,31.58203125 18.955078125,27.36328125 10.517578125,27.36328125 10.517578125,31.58203125 8.408203125,31.58203125 8.408203125,27.36328125 4.21875,27.36328125z M18.955078125,21.03515625L21.064453125,21.03515625 21.064453125,23.14453125 18.955078125,23.14453125 18.955078125,21.03515625z M8.408203125,21.03515625L16.845703125,21.03515625 16.845703125,23.14453125 8.408203125,23.14453125 8.408203125,21.03515625z M25.25390625,16.845703125L25.25390625,25.25390625 29.47265625,25.25390625 29.47265625,16.845703125 25.25390625,16.845703125z M18.955078125,16.845703125L21.064453125,16.845703125 21.064453125,18.955078125 18.955078125,18.955078125 18.955078125,16.845703125z M8.408203125,16.845703125L16.845703125,16.845703125 16.845703125,18.955078125 8.408203125,18.955078125 8.408203125,16.845703125z M58.9453125,14.736328125L58.9453125,21.03515625 56.865234375,21.03515625 54.755859375,18.955078125 54.755859375,16.845703125 48.427734375,16.845703125 48.427734375,23.14453125 40.01953125,23.14453125 37.91015625,25.25390625 63.1640625,25.25390625 63.1640625,21.03515625 61.0546875,18.955078125 61.0546875,14.736328125 58.9453125,14.736328125z M6.328125,14.736328125L6.328125,25.25390625 23.173828125,25.25390625 23.173828125,14.736328125 6.328125,14.736328125z M33.69140625,4.189453125L29.0625,4.775390625 24.7705078125,6.4599609375 20.9912109375,9.111328125 17.9296875,12.626953125 25.25390625,12.626953125 25.25390625,14.736328125 31.58203125,14.736328125 31.58203125,23.14453125 37.03125,23.14453125 39.140625,21.03515625 46.318359375,21.03515625 46.318359375,14.736328125 50.68359375,14.736328125 47.6806640625,10.37109375 43.681640625,7.0458984375 38.935546875,4.9365234375 33.69140625,4.189453125z M33.69140625,0L39.404296875,0.717772960662842 44.6923828125,2.79785180091858 49.3212890625,6.1083984375 53.02734375,10.517578125 65.2734375,10.517578125 65.2734375,17.197265625 67.3828125,19.306640625 67.3828125,61.0546875 0,61.0546875 0,14.736328125 2.109375,14.736328125 2.109375,10.517578125 14.296875,10.517578125 18.0322265625,6.09375 22.646484375,2.78320336341858 27.9345703125,0.717772960662842 33.69140625,0z" />
    </g>
  </g>
</svg>