<?xml version="1.0" encoding="utf-8"?>
<!DOCTYPE svg PUBLIC "-//W3C//DTD SVG 1.1//EN" "http://www.w3.org/Graphics/SVG/1.1/DTD/svg11.dtd">
<svg width="67.3828125000015" height="67.3828125" xmlns="http://www.w3.org/2000/svg" xmlns:xlink="http://www.w3.org/1999/xlink" xmlns:xml="http://www.w3.org/XML/1998/namespace" version="1.1">
  <g>
    <g>
      <path style="fill:#FF0000;fill-opacity:1" d="M14.736328125,46.318359375L13.974609375,46.494140625 13.30078125,46.904296875 13.2568359375,46.93359375 12.94921875,47.138671875 12.1435546875,47.6953125 10.5908203125,48.779296875 8.02734375,50.56640625 4.21875,53.232421875 4.21875,63.1640625 63.1640625,63.1640625 63.1640625,51.767578125 62.0361328125,52.6318359375 60.6591796875,53.61328125 59.2236328125,54.4189453125 57.919921875,54.755859375 56.6748046875,54.5068359375 55.6787109375,53.8330078125 55.0048828125,52.8369140625 54.755859375,51.591796875 54.755859375,48.427734375 54.140625,46.93359375 52.646484375,46.318359375 51.8408203125,46.5234375 51.123046875,46.962890625 40.83984375,54.140625 39.9462890625,54.5654296875 38.96484375,54.755859375 37.7197265625,54.5068359375 36.7236328125,53.8330078125 36.0498046875,52.8369140625 35.80078125,51.591796875 35.80078125,48.427734375 35.185546875,46.93359375 33.69140625,46.318359375 32.9296875,46.494140625 32.255859375,46.904296875 31.494140625,47.2119140625 30.46875,47.9443359375 29.4580078125,48.7646484375 28.76953125,49.3359375 27.685546875,50.361328125 26.66015625,51.3720703125 25.5029296875,52.1923828125 24.052734375,52.6171875 23.1298828125,53.2763671875 22.1337890625,53.9794921875 21.09375,54.5361328125 20.009765625,54.755859375 18.7646484375,54.5068359375 17.7685546875,53.8330078125 17.0947265625,52.8369140625 16.845703125,51.591796875 16.845703125,48.427734375 16.23046875,46.93359375 14.736328125,46.318359375z M40.4296875,33.69140625L37.998046875,36.123046875 38.7158203125,36.8994140625 38.96484375,37.91015625 38.96484375,41.07421875 39.2138671875,42.2900390625 39.8876953125,43.2861328125 40.8837890625,43.9599609375 42.099609375,44.208984375 43.095703125,44.0185546875 44.00390625,43.59375 54.287109375,36.4453125 55.01953125,35.9765625 55.810546875,35.80078125 57.2900390625,36.4306640625 57.919921875,37.91015625 57.890625,38.9501953125 57.861328125,39.990234375 57.9345703125,41.3818359375 58.359375,42.71484375 61.0546875,40.01953125 61.0546875,33.69140625 40.4296875,33.69140625z M8.408203125,33.69140625L8.9501953125,37.2802734375 10.458984375,40.576171875 16.5234375,36.357421875 17.1533203125,35.9619140625 17.900390625,35.80078125 19.0283203125,36.0791015625 19.6875,36.796875 19.9951171875,37.8076171875 20.068359375,38.96484375 20.0390625,39.9609375 20.009765625,40.869140625 23.759765625,37.08984375 25.5322265625,36.005859375 27.48046875,35.771484375 28.2568359375,35.7861328125 29.0625,35.80078125 31.171875,33.69140625 8.408203125,33.69140625z M39.84375,27.978515625L29.94140625,37.91015625 26.923828125,37.91015625 25.25390625,38.583984375 20.7421875,43.095703125 20.126953125,43.681640625 19.541015625,44.3115234375 19.1162109375,45.0146484375 18.955078125,45.849609375 19.248046875,46.9189453125 19.9658203125,47.958984375 20.8740234375,48.896484375 21.767578125,49.6875 21.97265625,49.86328125 22.763671875,50.361328125 23.671875,50.537109375 24.3896484375,50.4052734375 25.048828125,50.068359375 25.60546875,49.5849609375 26.6455078125,48.57421875 27.919921875,47.2998046875 29.208984375,45.99609375 30.29296875,44.8974609375 30.908203125,44.23828125 31.58203125,42.568359375 31.58203125,39.55078125 33.3984375,37.8076171875 35.15625,36.005859375 42.158203125,28.974609375 39.84375,27.978515625z M47.255859375,21.064453125L46.7138671875,21.2109375 46.259765625,21.591796875 47.197265625,22.3095703125 47.900390625,23.232421875 48.28125,22.79296875 48.427734375,22.236328125 48.0908203125,21.4013671875 47.255859375,21.064453125z M25.3125,18.427734375L23.73046875,20.5517578125 23.173828125,23.173828125 23.173828125,29.47265625 35.361328125,29.47265625 35.80078125,29.0625 35.80078125,26.25 27.83203125,22.822265625 25.9716796875,21.298828125 25.283203125,19.013671875 25.283203125,18.720703125 25.3125,18.427734375z M29.501953125,16.845703125L28.0078125,17.4462890625 27.36328125,18.92578125 27.6708984375,20.0244140625 28.505859375,20.80078125 30.3515625,21.6943359375 32.28515625,22.44140625 36.03515625,24.052734375 39.814453125,25.6640625 41.5869140625,26.455078125 43.388671875,27.216796875 43.798828125,27.333984375 44.208984375,27.392578125 45.6884765625,26.77734375 46.318359375,25.3125 46.025390625,24.169921875 45.263671875,23.4375 44.2529296875,22.9541015625 43.18359375,22.529296875 37.998046875,20.302734375 37.3681640625,20.009765625 35.9326171875,19.365234375 34.04296875,18.544921875 32.080078125,17.724609375 30.439453125,17.0947265625 29.501953125,16.845703125z M42.01171875,8.4375L37.6171875,8.701171875 35.478515625,10.83984375 34.74609375,10.517578125 34.013671875,10.83984375 33.69140625,11.572265625 33.984375,12.333984375 32.2756156921387,14.0717067718506 34.0576171875,16.0546875 35.394287109375,16.64794921875 36.85546875,16.845703125 38.8916015625,16.435546875 40.5615234375,15.3076171875 41.689453125,13.623046875 42.099609375,11.572265625 42.099609375,9.462890625 42.01171875,8.4375z M36.85546875,0L40.5322265625,0.7470703125 43.53515625,2.783203125 45.5712890625,5.7861328125 46.318359375,9.462890625 46.259765625,11.923828125 45.9375,14.12109375 45.146484375,16.171875 43.65234375,18.1640625 45.3515625,17.16796875 47.28515625,16.845703125 49.3798828125,17.2705078125 51.0791015625,18.427734375 52.2216796875,20.1416015625 52.646484375,22.236328125 52.4121055603027,23.8330097198486 51.708984375,25.283203125 61.0546875,25.283203125 63.515625,25.78125 65.5224609375,27.12890625 66.884765625,29.12109375 67.3828125,31.58203125 66.826171875,34.16015625 65.2734375,36.298828125 65.2734375,40.01953125 67.3828125,40.01953125 67.3828125,67.3828125 0,67.3828125 0,40.01953125 3.8671875,40.01953125 4.072265625,39.90234375 4.4677734375,39.6240234375 4.8779296875,39.3310546875 5.126953125,39.140625 4.6875,37.705078125 2.7978515625,36.826171875 1.31836032867432,35.4345703125 0.3515625,33.6474609375 0,31.58203125 0.498046875,29.12109375 1.8603515625,27.12890625 3.8671875,25.78125 6.328125,25.283203125 18.955078125,25.283203125 18.955078125,23.173828125 19.599609375,19.5849609375 21.38671875,16.4794921875 24.0966796875,14.1357421875 27.509765625,12.83203125 27.3779296875,11.5869140625 27.36328125,10.3125 27.36328125,9.462890625 28.1103515625,5.7861328125 30.146484375,2.783203125 33.1640625,0.7470703125 36.85546875,0z" />
    </g>
  </g>
</svg>