<?xml version="1.0" encoding="utf-8"?>
<!DOCTYPE svg PUBLIC "-//W3C//DTD SVG 1.1//EN" "http://www.w3.org/Graphics/SVG/1.1/DTD/svg11.dtd">
<svg width="67.3828125" height="67.3828125" xmlns="http://www.w3.org/2000/svg" xmlns:xlink="http://www.w3.org/1999/xlink" xmlns:xml="http://www.w3.org/XML/1998/namespace" version="1.1">
  <g>
    <g>
      <path style="fill:#FF0000;fill-opacity:1" d="M4.21875,61.0546875L4.21875,63.1640625 63.1640625,63.1640625 63.1640625,61.0546875 4.21875,61.0546875z M48.427734375,37.91015625L48.427734375,58.974609375 50.537109375,58.974609375 50.537109375,46.318359375 51.1669921875,44.8388671875 52.646484375,44.208984375 52.9248046875,43.154296875 53.701171875,42.392578125 54.462890625,43.1689453125 54.755859375,44.208984375 56.2353515625,44.8388671875 56.865234375,46.318359375 56.865234375,58.974609375 61.0546875,58.974609375 61.0546875,37.91015625 48.427734375,37.91015625z M6.328125,37.91015625L6.328125,58.974609375 10.517578125,58.974609375 10.517578125,46.318359375 11.1474609375,44.8388671875 12.626953125,44.208984375 12.919921875,43.1689453125 13.681640625,42.392578125 14.4580078125,43.154296875 14.736328125,44.208984375 16.2158203125,44.8388671875 16.845703125,46.318359375 16.845703125,58.974609375 18.955078125,58.974609375 18.955078125,37.91015625 6.328125,37.91015625z M21.064453125,33.69140625L21.064453125,58.974609375 25.25390625,58.974609375 25.25390625,46.318359375 26.748046875,45.703125 27.36328125,44.208984375 27.9931640625,42.744140625 29.47265625,42.12890625 30.087890625,40.634765625 31.58203125,40.01953125 32.63671875,40.01953125 32.9150390625,38.9501953125 33.69140625,38.173828125 34.4677734375,38.9501953125 34.74609375,40.01953125 35.80078125,40.01953125 37.294921875,40.634765625 37.91015625,42.12890625 39.3896484375,42.744140625 40.01953125,44.208984375 40.634765625,45.6884765625 42.099609375,46.318359375 42.099609375,58.974609375 46.318359375,58.974609375 46.318359375,33.69140625 21.064453125,33.69140625z M50.537109375,25.283203125L49.3212890625,25.986328125 48.28125,26.923828125 48.3984375,28.6669921875 48.427734375,30.41015625 48.427734375,31.58203125 50.537109375,31.58203125 50.537109375,33.69140625 48.427734375,33.69140625 48.427734375,35.80078125 61.0546875,35.80078125 61.0546875,31.93359375 60.772705078125,29.8791522979736 59.9267578125,27.9931640625 58.597412109375,26.4147968292236 56.865234375,25.283203125 50.537109375,25.283203125z M10.517578125,25.283203125L8.785400390625,26.4147968292236 7.4560546875,27.9931640625 6.61010646820068,29.8791522979736 6.328125,31.93359375 6.328125,35.80078125 18.955078125,35.80078125 18.955078125,33.69140625 16.845703125,33.69140625 16.845703125,31.58203125 18.955078125,31.58203125 18.955078125,30.41015625 18.9697265625,28.6669921875 19.1015625,26.923828125 18.046875,26.0009765625 16.845703125,25.283203125 10.517578125,25.283203125z M30.52734375,16.845703125L30.1025390625,16.9482421875 29.443359375,17.1826171875 28.7841796875,17.4462890625 28.359375,17.63671875 25.576171875,19.39453125 23.3935546875,21.7529296875 21.884765625,24.5947265625 21.123046875,27.802734375 21.064453125,28.5791015625 21.064453125,29.35546875 21.064453125,31.58203125 46.318359375,31.58203125 46.318359375,29.091796875 45.849609375,25.6640625 44.501953125,22.5439453125 42.36328125,19.892578125 39.521484375,17.87109375 38.96484375,17.607421875 38.173828125,17.2705078125 37.3828125,16.9775390625 36.85546875,16.845703125 30.52734375,16.845703125z M53.701171875,12.626953125L52.5732421875,13.0810546875 52.119140625,14.208984375 52.3974609375,15.1318359375 53.173828125,15.703125 52.763671875,17.5048828125 51.85546875,18.6767578125 50.947265625,19.7021484375 50.537109375,21.064453125 50.830078125,22.2216796875 51.591796875,23.173828125 55.810546875,23.173828125 56.572265625,22.2216796875 56.865234375,21.064453125 56.455078125,19.716796875 55.546875,18.6767578125 54.638671875,17.490234375 54.228515625,15.703125 55.0048828125,15.1318359375 55.283203125,14.208984375 54.8291015625,13.0810546875 53.701171875,12.626953125z M13.681640625,12.626953125L12.5537109375,13.0810546875 12.099609375,14.208984375 12.3779296875,15.1318359375 13.154296875,15.703125 12.744140625,17.51953125 11.8359375,18.69140625 10.927734375,19.7021484375 10.517578125,21.064453125 10.810546875,22.2216796875 11.572265625,23.173828125 15.791015625,23.173828125 16.552734375,22.2216796875 16.845703125,21.064453125 16.435546875,19.716796875 15.52734375,18.662109375 14.619140625,17.4755859375 14.208984375,15.703125 14.9853515625,15.1318359375 15.263671875,14.208984375 14.8095703125,13.0810546875 13.681640625,12.626953125z M33.69140625,4.21874952316284L32.5634765625,4.6728515625 32.109375,5.80078125 32.40234375,6.70898485183716 33.1640625,7.265625 32.75390625,9.08203125 31.845703125,10.25390625 30.9375,11.2646484375 30.52734375,12.626953125 30.8056640625,13.7841796875 31.58203125,14.736328125 35.80078125,14.736328125 36.5625,13.7841796875 36.85546875,12.626953125 36.4453125,11.279296875 35.537109375,10.2392578125 34.62890625,9.08203125 34.21875,7.3828125 34.21875,7.265625 34.98046875,6.70898485183716 35.2734375,5.80078125 34.8193359375,4.6728515625 33.69140625,4.21874952316284z M33.69140625,0L35.947265625,0.454101085662842 37.79296875,1.69921827316284 39.0380859375,3.54492211341858 39.4921875,5.80078125 39.3896484375,6.84082078933716 39.111328125,7.85156297683716 40.546875,10.048828125 41.07421875,12.626953125 41.044921875,13.2568359375 40.95703125,13.88671875 44.150390625,15.849609375 46.81640625,18.515625 47.431640625,17.34375 48.28125,16.2890625 47.900390625,14.208984375 48.3544921875,11.953125 49.599609375,10.1220703125 51.4453125,8.8916015625 53.701171875,8.4375 55.95703125,8.8916015625 57.7880859375,10.1220703125 59.0185546875,11.953125 59.47265625,14.208984375 59.384765625,15.263671875 59.091796875,16.2890625 60.5419921875,18.486328125 61.0546875,21.064453125 60.849609375,22.734375 60.87890625,22.8515625 62.662353515625,24.6093769073486 64.0283203125,26.71875 64.918212890625,29.0771503448486 65.2734375,31.58203125 67.3828125,31.58203125 67.3828125,42.12890625 65.2734375,42.12890625 65.2734375,56.865234375 67.3828125,56.865234375 67.3828125,67.3828125 0,67.3828125 0,56.865234375 2.109375,56.865234375 2.109375,42.12890625 0,42.12890625 0,31.58203125 2.109375,31.58203125 2.464599609375,29.0771503448486 3.3544921875,26.71875 4.72045803070068,24.6093769073486 6.50390625,22.8515625 6.533203125,22.734375 6.298828125,21.064453125 6.826171875,18.4716796875 8.291015625,16.2890625 7.880859375,14.208984375 8.3349609375,11.953125 9.580078125,10.1220703125 11.42578125,8.8916015625 13.681640625,8.4375 15.9375,8.8916015625 17.783203125,10.1220703125 19.0283203125,11.953125 19.482421875,14.208984375 19.1015625,16.2890625 20.56640625,18.515625 23.232421875,15.849609375 26.42578125,13.88671875 26.337890625,13.2568359375 26.30859375,12.626953125 26.8212890625,10.048828125 28.271484375,7.85156297683716 27.9931640625,6.84082078933716 27.890625,5.80078125 28.3447265625,3.54492211341858 29.58984375,1.69921827316284 31.435546875,0.454101085662842 33.69140625,0z" />
    </g>
  </g>
</svg>