<?xml version="1.0" encoding="utf-8"?>
<!DOCTYPE svg PUBLIC "-//W3C//DTD SVG 1.1//EN" "http://www.w3.org/Graphics/SVG/1.1/DTD/svg11.dtd">
<svg width="58.9453125" height="58.9453125" xmlns="http://www.w3.org/2000/svg" xmlns:xlink="http://www.w3.org/1999/xlink" xmlns:xml="http://www.w3.org/XML/1998/namespace" version="1.1">
  <g>
    <g>
      <path style="fill:#FF0000;fill-opacity:1" d="M38.96484375,28.681640625L36.9140625,30.87890625 36.1000137329102,33.1117324829102 36.6796875,33.69140625 41.455078125,33.69140625 38.96484375,28.681640625z M43.154296875,27.36328125L41.9970703125,27.48046875 40.83984375,27.7734375 41.2646484375,28.6083984375 41.9384765625,29.8974609375 42.71484375,31.4208984375 43.447265625,32.9150390625 43.9892578125,34.1015625 44.208984375,34.74609375 43.88671875,35.478515625 43.154296875,35.80078125 38.7890625,35.80078125 44.7669944763184,41.7787170410156 46.025390625,41.5283203125 48.369140625,39.9609375 49.951171875,37.6171875 50.537109375,34.74609375 49.951171875,31.875 48.369140625,29.53125 46.025390625,27.94921875 43.154296875,27.36328125z M15.791015625,27.36328125L12.919921875,27.94921875 10.576171875,29.53125 8.994140625,31.875 8.408203125,34.74609375 8.994140625,37.6171875 10.576171875,39.9609375 12.919921875,41.5283203125 15.791015625,42.099609375 18.662109375,41.5283203125 21.005859375,39.9609375 22.5732421875,37.6171875 23.14453125,34.74609375 22.8515625,32.6953125 22.001953125,30.8349609375 20.68359375,29.267578125 18.955078125,28.095703125 18.955078125,28.447265625 18.9111328125,30.46875 18.6328125,32.3291015625 17.900390625,34.0283203125 16.46484375,35.537109375 16.142578125,35.7275390625 15.791015625,35.80078125 15.0439453125,35.4931640625 14.736328125,34.74609375 15.05859375,34.04296875 15.7763671875,33.2080078125 16.5087890625,32.080078125 16.845703125,30.52734375 16.845703125,27.48046875 16.318359375,27.392578125 15.791015625,27.36328125z M35.361328125,21.474609375L32.6309814453125,29.6427021026611 34.5144920349121,31.5262107849121 35.1123046875,29.765625 38.02734375,26.806640625 35.361328125,21.474609375z M24.052734375,21.064453125L30.9635848999023,27.975305557251 33.28125,21.064453125 24.052734375,21.064453125z M10.1953125,13.18359375L7.613525390625,16.798095703125 5.7275390625,20.7861328125 4.57397413253784,25.0451679229736 4.189453125,29.47265625 4.41650342941284,32.89306640625 5.09765625,36.181640625 7.646484375,42.216796875 11.6015625,47.34375 16.728515625,51.298828125 22.763671875,53.84765625 26.05224609375,54.52880859375 29.47265625,54.755859375 33.900146484375,54.371337890625 38.1591796875,53.2177734375 42.1472129821777,51.331787109375 45.76171875,48.75 40.7729225158691,43.7612037658691 39.7265625,43.564453125 36.85546875,41.7919921875 34.7900390625,39.1259765625 34.2015075683594,37.1897850036621 33.1996726989746,36.1879539489746 32.3583984375,37.32421875 30.52734375,37.91015625 29.3115234375,37.6611328125 28.30078125,36.97265625 27.6123046875,35.9619140625 27.36328125,34.74609375 27.7001953125,33.3251953125 28.623046875,32.2265625 18.955078125,22.529296875 18.955078125,25.83984375 21.5185546875,27.2314453125 23.5107421875,29.296875 24.7998046875,31.8603515625 25.25390625,34.74609375 24.5068359375,38.4228515625 22.470703125,41.42578125 19.4677734375,43.4619140625 15.791015625,44.208984375 12.099609375,43.4619140625 9.08203125,41.42578125 7.0458984375,38.4228515625 6.298828125,34.74609375 7.0458984375,31.0546875 9.08203125,28.037109375 12.099609375,26.0009765625 15.791015625,25.25390625 16.318359375,25.2978515625 16.845703125,25.37109375 16.845703125,19.833984375 14.0492630004883,17.0375442504883 13.4912109375,17.2265625 12.861328125,17.87109375 12.626953125,18.955078125 13.2568359375,20.4345703125 14.736328125,21.064453125 14.736328125,23.14453125 13.095703125,22.822265625 11.7626953125,21.9287109375 10.8544921875,20.595703125 10.517578125,18.955078125 10.8544921875,17.314453125 11.7626953125,15.9814453125 12.4945430755615,15.4828243255615 10.1953125,13.18359375z M29.47265625,4.21875L25.030517578125,4.599609375 20.7861328125,5.7421875 16.8127422332764,7.6171875 13.18359375,10.1953125 18.2502937316895,15.2620134353638 18.369140625,15.3076171875 18.4170303344727,15.4287490844727 21.943359375,18.955078125 33.69140625,18.955078125 33.69140625,16.845703125 30.52734375,16.845703125 29.7802734375,16.5380859375 29.47265625,15.791015625 29.7802734375,15.0439453125 30.52734375,14.736328125 36.85546875,14.736328125 37.5732421875,15.05859375 37.880859375,15.791015625 37.4267578125,16.669921875 36.38671875,16.845703125 35.80078125,16.845703125 35.80078125,17.63671875 39.90234375,25.869140625 41.484375,25.4150390625 43.154296875,25.25390625 46.845703125,26.0009765625 49.86328125,28.037109375 51.8994140625,31.0546875 52.646484375,34.74609375 51.8994140625,38.4228515625 49.86328125,41.42578125 46.845703125,43.4619140625 46.5167655944824,43.5284843444824 48.75,45.76171875 51.3281211853027,42.132568359375 53.203125,38.1591796875 54.345703125,33.914794921875 54.7265625,29.47265625 54.49951171875,26.0522480010986 53.818359375,22.763671875 51.26953125,16.728515625 47.3291015625,11.6162109375 42.216796875,7.67578125 36.181640625,5.12695360183716 32.89306640625,4.44580078125 29.47265625,4.21875z M29.47265625,0L33.468017578125,0.263674736022949 37.3095703125,1.0546875 40.9497032165527,2.32544231414795 44.3408203125,4.0283203125 47.4645957946777,6.141357421875 50.302734375,8.642578125 52.803955078125,11.480712890625 54.9169921875,14.6044921875 56.619873046875,17.99560546875 57.890625,21.6357421875 58.681640625,25.4772968292236 58.9453125,29.47265625 58.681640625,33.468017578125 57.890625,37.3095703125 56.619873046875,40.94970703125 54.9169921875,44.3408203125 52.803955078125,47.464599609375 50.302734375,50.302734375 47.4645957946777,52.803955078125 44.3408203125,54.9169921875 40.9497032165527,56.619873046875 37.3095703125,57.890625 33.468017578125,58.681640625 29.47265625,58.9453125 25.477294921875,58.681640625 21.6357421875,57.890625 17.9956035614014,56.619873046875 14.6044921875,54.9169921875 11.480712890625,52.803955078125 8.642578125,50.302734375 6.141357421875,47.464599609375 4.0283203125,44.3408203125 2.32543873786926,40.94970703125 1.0546875,37.3095703125 0.263671875,33.468017578125 0,29.47265625 0.263671875,25.4772968292236 1.0546875,21.6357421875 2.32543873786926,17.99560546875 4.0283203125,14.6044921875 6.141357421875,11.480712890625 8.642578125,8.642578125 11.480712890625,6.141357421875 14.6044921875,4.0283203125 17.9956035614014,2.32544231414795 21.6357421875,1.0546875 25.477294921875,0.263674736022949 29.47265625,0z" />
    </g>
  </g>
</svg>