<?xml version="1.0" encoding="utf-8"?>
<!DOCTYPE svg PUBLIC "-//W3C//DTD SVG 1.1//EN" "http://www.w3.org/Graphics/SVG/1.1/DTD/svg11.dtd">
<svg width="67.3828125000013" height="65.2734375" xmlns="http://www.w3.org/2000/svg" xmlns:xlink="http://www.w3.org/1999/xlink" xmlns:xml="http://www.w3.org/XML/1998/namespace" version="1.1">
  <g>
    <g>
      <path style="fill:#FF0000;fill-opacity:1" d="M33.720703125,37.55859375L31.083984375,40.224609375 28.564453125,42.392578125 25.5029296875,44.35546875 22.177734375,45.7763671875 18.896484375,46.318359375 11.689453125,46.318359375 9.4921875,45.6591796875 7.7490234375,44.208984375 6.3720703125,42.7587890625 5.2734375,42.099609375 4.5263671875,42.4072265625 4.21875,43.154296875 4.21875,50.537109375 4.423828125,52.642822265625 5.0390625,54.6240234375 7.294921875,57.978515625 10.6494140625,60.234375 12.630615234375,60.849609375 14.736328125,61.0546875 17.5048828125,60.9814453125 19.9365234375,60.5859375 22.177734375,59.6337890625 24.375,57.890625 39.2578125,43.125 33.720703125,37.55859375z M18.955078125,33.69140625L16.845703125,35.80078125 31.962890625,35.80078125 29.853515625,33.69140625 18.955078125,33.69140625z M57.919921875,4.21874952316284L57.3046875,4.4091796875 56.3818359375,4.86328077316284 55.4296875,5.3759765625 54.755859375,5.74218702316284 54.755859375,9.34570217132568 54.3603515625,12.392578125 53.3056640625,15.5419921875 51.796875,18.5302734375 50.0390625,21.064453125 31.58203125,21.064453125 30.3515625,22.294921875 31.23046875,23.173828125 48.134765625,23.173828125 39.66796875,31.611328125 45.234375,37.177734375 59.1796875,23.37890625 60.889892578125,21.302490234375 62.1533203125,18.9404296875 62.933349609375,16.380615234375 63.193359375,13.7109375 62.841796875,11.044921875 61.8896484375,8.7890625 60.498046875,6.75292921066284 58.798828125,4.71679639816284 58.740234375,4.62890625 58.4033203125,4.32128858566284 57.919921875,4.21874952316284z M8.4375,4.21874952316284L6.8994140625,4.86328077316284 6.328125,6.44531154632568 6.50390625,7.177734375 6.943359375,7.79296875 25.8984375,26.748046875 33.9697265625,34.9072265625 42.12890625,42.978515625 42.12890625,48.427734375 42.4365196228027,50.0537109375 43.359375,51.416015625 51.767578125,59.82421875 53.1372032165527,60.76904296875 54.7265625,61.083984375 56.6015625,60.615234375 48.427734375,46.318359375 62.724609375,54.4921875 63.0615234375,53.6279296875 63.1640625,52.705078125 62.841796875,51.0498046875 61.93359375,49.658203125 53.525390625,41.25 52.1630821228027,40.3271484375 50.537109375,40.01953125 45.087890625,40.01953125 33.134765625,28.1396484375 21.240234375,16.201171875 13.30078125,8.232421875 11.6162109375,6.5185546875 9.90234375,4.83398389816284 9.228515625,4.3798828125 8.4375,4.21874952316284z M8.408203125,0L10.83984375,0.468749761581421 12.890625,1.84570288658142 28.857421875,17.8125 29.619140625,17.05078125 32.080078125,14.6630859375 34.62890625,12.36328125 37.3388671875,10.25390625 40.25390625,8.46679592132568 55.341796875,0.673827528953552 56.5869140625,0.175780653953552 57.919921875,0 60.205078125,0.556640088558197 62.05078125,2.05078053474426 63.92578125,4.27734375 65.537109375,6.72363233566284 66.708984375,9.375 67.32421875,12.216796875 67.3681640625,12.9638662338257 67.3828125,13.7109375 67.0458984375,17.208251953125 66.03515625,20.5517578125 64.38720703125,23.6315937042236 62.138671875,26.337890625 52.412109375,36.005859375 54.5947265625,36.8408203125 56.484375,38.26171875 64.921875,46.69921875 66.7529296875,49.4384765625 67.3828125,52.646484375 66.7529296875,55.8544921875 64.921875,58.59375 60.703125,62.8125 57.978515625,64.62890625 54.755859375,65.2734375 51.5185546875,64.658203125 48.779296875,62.8125 40.37109375,54.375 38.9208984375,52.4560546875 38.0859375,50.21484375 27.333984375,60.87890625 25.048828125,62.764892578125 22.529296875,64.1455078125 19.7900371551514,64.991455078125 16.845703125,65.2734375 14.736328125,65.2734375 11.781005859375,64.984130859375 9.0087890625,64.1162109375 6.49658107757568,62.74658203125 4.3212890625,60.9521484375 2.52685546875,58.77685546875 1.1572265625,56.2646484375 0.289306282997131,53.492431640625 0,50.537109375 0,43.154296875 0.410156726837158,41.1181640625 1.5380859375,39.4482421875 3.22265625,38.3203125 5.2734375,37.91015625 6.68701076507568,38.1005859375 7.998046875,38.671875 19.921875,26.748046875 3.955078125,10.78125 2.5927734375,8.7451171875 2.109375,6.32812404632568 2.607421875,3.8671875 3.955078125,1.86035132408142 5.947265625,0.498046875 8.408203125,0z" />
    </g>
  </g>
</svg>