<?xml version="1.0" encoding="utf-8"?>
<!DOCTYPE svg PUBLIC "-//W3C//DTD SVG 1.1//EN" "http://www.w3.org/Graphics/SVG/1.1/DTD/svg11.dtd">
<svg width="13.18359375" height="38.759765625" xmlns="http://www.w3.org/2000/svg" xmlns:xlink="http://www.w3.org/1999/xlink" xmlns:xml="http://www.w3.org/XML/1998/namespace" version="1.1">
  <g>
    <g>
      <path style="fill:#FF0000;fill-opacity:1" d="M4.306640625,6.767578125L8.994140625,6.767578125 10.8270263671875,7.01110935211182 12.13623046875,7.74170064926147 12.9217529296875,8.95935153961182 13.18359375,10.6640625 13.18359375,17.373046875 12.86865234375,18.58154296875 11.923828125,18.984375 10.97900390625,18.58154296875 10.6640625,17.373046875 10.6640625,10.6640625 10.078125,10.6640625 10.078125,17.900390625 13.18359375,25.927734375 10.078125,25.927734375 10.078125,37.1484375 9.68994140625,38.35693359375 8.525390625,38.759765625 7.38281106948853,38.35693359375 7.001953125,37.1484375 7.001953125,25.927734375 6.2109375,25.927734375 6.2109375,37.1484375 5.83007669448853,38.35693359375 4.6875,38.759765625 3.54492044448853,38.35693359375 3.1640625,37.1484375 3.1640625,25.927734375 0,25.927734375 3.1640625,17.900390625 3.1640625,10.6640625 2.578125,10.6640625 2.578125,17.373046875 2.27050638198853,18.58154296875 1.34765625,18.984375 0.40283203125,18.58154296875 0.087890625,17.373046875 0.087890625,10.6640625 0.3515625,8.95935153961182 1.142578125,7.74170064926147 2.4609375,7.01110935211182 4.306640625,6.767578125z M12.5390625,4.453125L12.5390625,5.33203125 11.77734375,5.21484375 11.77734375,4.5703125 12.5390625,4.453125z M0.673828125,4.453125L1.435546875,4.5703125 1.435546875,5.21484375 0.673828125,5.33203125 0.673828125,4.453125z M10.60546875,3.69140625L11.953125,3.69140625 11.484375,4.5703125 11.484375,5.21484375 11.923828125,6.064453125 10.634765625,6.064453125 11.07421875,5.21484375 11.07421875,4.5703125 10.60546875,3.69140625z M1.259765625,3.69140625L2.607421875,3.69140625 2.138671875,4.5703125 2.138671875,5.21484375 2.578125,6.064453125 1.2890625,6.064453125 1.69921875,5.21484375 1.69921875,4.5703125 1.259765625,3.69140625z M6.591796875,0L7.60253763198853,0.234375 8.466796875,0.9375 9.06005859375,1.91162109375 9.2578125,2.958984375 9.64599609375,4.13818359375 10.810546875,4.5703125 10.810546875,5.21484375 9.7265625,5.00244235992432 9.111328125,4.423828125 8.20312404632568,5.96191549301147 6.591796875,6.474609375 4.98046731948853,5.96191549301147 4.072265625,4.423828125 3.47167825698853,5.00244235992432 2.373046875,5.21484375 2.373046875,4.5703125 3.53759622573853,4.13818359375 3.92578125,2.958984375 4.12719583511353,1.91162109375 4.7314453125,0.9375 5.59936380386353,0.234375 6.591796875,0z" />
    </g>
  </g>
</svg>