<?xml version="1.0" encoding="utf-8"?>
<!DOCTYPE svg PUBLIC "-//W3C//DTD SVG 1.1//EN" "http://www.w3.org/Graphics/SVG/1.1/DTD/svg11.dtd">
<svg width="68.7890625" height="68.818359375" xmlns="http://www.w3.org/2000/svg" xmlns:xlink="http://www.w3.org/1999/xlink" xmlns:xml="http://www.w3.org/XML/1998/namespace" version="1.1">
  <g>
    <g>
      <path style="fill:#FF0000;fill-opacity:1" d="M25.4296875,51.26953125L19.541015625,54.19921875 18.8671875,54.404296875 18.603515625,54.697265625 18.603515625,56.54296875 24.931640625,62.841796875 29.12109375,58.65234375 25.4296875,51.26953125z M23.73046875,43.9453125L23.0859375,44.23828125 14.736328125,52.646484375 14.384765625,53.408203125 14.677734375,54.111328125 15.380859375,54.404296875 15.9521484375,54.2724609375 16.40625,53.935546875 21.240234375,49.04296875 22.998046875,47.3291015625 24.7265625,45.5859375 24.931640625,45.087890625 24.55078125,44.296875 23.73046875,43.9453125z M10.166015625,39.697265625L5.97656202316284,43.916015625 12.275390625,50.21484375 14.12109375,50.21484375 14.4140625,49.951171875 14.619140625,49.27734375 17.548828125,43.388671875 10.166015625,39.697265625z M38.96484375,22.8515625L41.66015625,23.4375 43.8720703125,24.9462890625 45.380859375,27.158203125 45.966796875,29.853515625 44.560546875,31.259765625 37.55859375,24.2578125 38.96484375,22.8515625z M52.294921875,14.4140625L51.298828125,14.677734375 54.140625,17.51953125 54.31640625,17.080078125 54.404296875,16.640625 53.8330078125,15.05859375 52.294921875,14.4140625z M18.603515625,6.00585985183716L16.5234375,8.14453125 22.119140625,19.365234375 23.4521484375,22.20703125 24.931640625,24.9609375 25.2978515625,25.400390625 26.0302734375,26.162109375 26.953125,27.0849609375 27.890625,27.9931640625 28.6669921875,28.740234375 29.12109375,29.150390625 28.095703125,30.1318359375 26.9091796875,31.23046875 25.78125,32.34375 24.931640625,33.369140625 24.5654296875,34.013671875 24.2578125,34.658203125 21.5771484375,40.078125 18.8671875,45.498046875 19.951171875,44.3701171875 21.123046875,43.1689453125 22.4267578125,42.2021484375 23.876953125,41.806640625 25.0927734375,42.0556640625 26.0888671875,42.7294921875 26.7626953125,43.7255859375 27.01171875,44.94140625 26.6162109375,46.3916015625 25.6494140625,47.6953125 24.4482421875,48.8671875 23.3203125,49.951171875 33.046875,45.087890625 34.2626953125,44.5458984375 35.44921875,43.916015625 37.646484375,41.89453125 39.66796875,39.697265625 40.078125,40.1513671875 40.8251953125,40.9423828125 41.7333984375,41.89453125 42.65625,42.8173828125 43.41796875,43.5498046875 43.857421875,43.916015625 46.6259765625,45.3955078125 49.482421875,46.728515625 60.703125,52.32421875 62.8125,50.21484375 45.966796875,33.369140625 56.513671875,22.8515625 45.966796875,12.3046875 35.44921875,22.8515625 18.603515625,6.00585985183716z M18.544921875,0L27.0263671875,8.408203125 35.44921875,16.904296875 44.23828125,8.115234375 49.833984375,8.115234375 51.943359375,10.224609375 54.5654296875,10.6787109375 56.6748046875,11.9677734375 58.0810546875,13.9746084213257 58.59375,16.58203125 58.59375,16.875 60.703125,18.984375 60.703125,24.580078125 51.943359375,33.369140625 60.3369140625,41.8212890625 68.7890625,50.21484375 59.443359375,59.560546875 49.365234375,54.4775390625 39.2578125,49.482421875 37.412109375,47.63671875 35.888671875,48.33984375 34.39453125,49.1015625 32.2412109375,50.15625 30.146484375,51.26953125 34.248046875,59.47265625 29.5751953125,64.130859375 24.931640625,68.818359375 14.70703125,58.59375 13.06640625,58.0810546875 11.71875,57.099609375 10.7373046875,55.751953125 10.224609375,54.111328125 0,43.916015625 9.345703125,34.5703125 17.548828125,38.671875 18.5888671875,36.533203125 19.658203125,34.39453125 20.390625,32.87109375 21.2109375,31.40625 20.244140625,30.498046875 19.3359375,29.560546875 19.04296875,28.9453125 14.208984375,19.1455078125 9.2578125,9.375 13.9306640625,4.7021484375 18.544921875,0z" />
    </g>
  </g>
</svg>