<?xml version="1.0" encoding="utf-8"?>
<!DOCTYPE svg PUBLIC "-//W3C//DTD SVG 1.1//EN" "http://www.w3.org/Graphics/SVG/1.1/DTD/svg11.dtd">
<svg width="67.3828125" height="67.3828125" xmlns="http://www.w3.org/2000/svg" xmlns:xlink="http://www.w3.org/1999/xlink" xmlns:xml="http://www.w3.org/XML/1998/namespace" version="1.1">
  <g>
    <g>
      <path style="fill:#FF0000;fill-opacity:1" d="M27.36328125,21.064453125L37.91015625,21.064453125 39.1845703125,21.4892578125 39.931640625,22.587890625 40.13671875,23.1994647979736 40.458984375,24.2138671875 41.30859375,27.0556640625 42.2900390625,30.4833984375 43.2275390625,33.8525390625 43.9306640625,36.533203125 44.1394004821777,37.4267578125 44.208984375,37.880859375 43.59375,39.375 42.099609375,40.01953125 40.8544921875,39.5947265625 40.078125,38.49609375 37.91015625,30.8203125 37.91015625,54.755859375 37.2802734375,56.2353515625 35.80078125,56.865234375 34.3212890625,56.2353515625 33.69140625,54.755859375 33.69140625,41.07421875 33.3837890625,40.3271484375 32.63671875,40.01953125 31.8896484375,40.3271484375 31.58203125,41.07421875 31.58203125,54.755859375 30.9521484375,56.2353515625 29.47265625,56.865234375 27.9931640625,56.2353515625 27.36328125,54.755859375 27.36328125,30.8203125 25.1953125,38.49609375 24.4189453125,39.5947265625 23.173828125,40.01953125 21.6796875,39.375 21.064453125,37.880859375 21.1340312957764,37.4267578125 21.3427734375,36.533203125 22.0458984375,33.8525390625 22.9833984375,30.4833984375 23.96484375,27.0556640625 24.814453125,24.2138671875 25.13671875,23.1994647979736 25.341796875,22.587890625 26.0888671875,21.4892578125 27.36328125,21.064453125z M32.63671875,10.517578125L34.27734375,10.8544921875 35.6103515625,11.7626953125 36.5185546875,13.095703125 36.85546875,14.736328125 36.5185546875,16.376953125 35.6103515625,17.7099609375 34.27734375,18.6181640625 32.63671875,18.955078125 30.99609375,18.6181640625 29.6630859375,17.7099609375 28.7548828125,16.376953125 28.41796875,14.736328125 28.7548828125,13.095703125 29.6630859375,11.7626953125 30.99609375,10.8544921875 32.63671875,10.517578125z M4.21875,4.21874952316284L4.21875,63.1640625 63.1640625,63.1640625 63.1640625,4.21874952316284 4.21875,4.21874952316284z M0,0L67.3828125,0 67.3828125,67.3828125 0,67.3828125 0,0z" />
    </g>
  </g>
</svg>