<?xml version="1.0" encoding="utf-8"?>
<!DOCTYPE svg PUBLIC "-//W3C//DTD SVG 1.1//EN" "http://www.w3.org/Graphics/SVG/1.1/DTD/svg11.dtd">
<svg width="67.3828125" height="42.099609375" xmlns="http://www.w3.org/2000/svg" xmlns:xlink="http://www.w3.org/1999/xlink" xmlns:xml="http://www.w3.org/XML/1998/namespace" version="1.1">
  <g>
    <g>
      <path style="fill:#FF0000;fill-opacity:1" d="M61.0546875,18.92578125L61.0546875,26.89453125 62.197265625,26.2060546875 63.1640625,25.25390625 63.1640625,21.03515625 62.5341796875,19.5556640625 61.0546875,18.92578125z M10.517578125,14.736328125L21.064453125,25.25390625 21.9873046875,26.1181640625 22.9248046875,26.7919921875 23.9794921875,27.216796875 25.25390625,27.36328125 27.59765625,26.77734375 29.47265625,25.25390625 31.34765625,26.77734375 33.69140625,27.36328125 36.03515625,26.77734375 37.91015625,25.25390625 39.7705078125,26.77734375 42.099609375,27.36328125 44.443359375,26.77734375 46.318359375,25.25390625 48.193359375,26.77734375 50.537109375,27.36328125 52.880859375,26.77734375 54.755859375,25.25390625 56.6162109375,26.77734375 58.9453125,27.36328125 58.9453125,21.03515625 23.173828125,21.03515625 18.955078125,16.845703125 56.865234375,16.845703125 54.755859375,14.736328125 10.517578125,14.736328125z M25.25390625,6.298828125L18.955078125,12.626953125 37.91015625,12.626953125 25.25390625,6.298828125z M50.537109375,4.189453125L50.537109375,12.626953125 52.646484375,12.626953125 52.646484375,10.517578125 58.9453125,7.353515625 52.646484375,4.189453125 50.537109375,4.189453125z M46.318359375,0L53.642578125,0 60.5126953125,3.427734375 67.3828125,6.85546875 67.3828125,7.8515625 62.8857421875,10.1220703125 58.359375,12.36328125 60.703125,14.736328125 63.2958984375,15.1904296875 65.419921875,16.46484375 66.85546875,18.45703125 67.3828125,21.03515625 67.3828125,42.099609375 0,42.099609375 0,21.03515625 10.8984375,21.03515625 0,10.166015625 0,8.408203125 17.197265625,8.408203125 20.8447265625,4.8046875 24.43359375,1.171875 31.6552734375,4.8046875 38.90625,8.408203125 46.318359375,8.408203125 46.318359375,0z" />
    </g>
  </g>
</svg>