<?xml version="1.0" encoding="utf-8"?>
<!DOCTYPE svg PUBLIC "-//W3C//DTD SVG 1.1//EN" "http://www.w3.org/Graphics/SVG/1.1/DTD/svg11.dtd">
<svg width="67.3828125" height="67.3828125" xmlns="http://www.w3.org/2000/svg" xmlns:xlink="http://www.w3.org/1999/xlink" xmlns:xml="http://www.w3.org/XML/1998/namespace" version="1.1">
  <g>
    <g>
      <path style="fill:#FF0000;fill-opacity:1" d="M17.900390625,47.373046875L18.6474609375,47.6806640625 18.955078125,48.427734375 23.173828125,48.427734375 23.4814453125,47.6806640625 24.228515625,47.373046875 24.9462890625,47.6953125 25.25390625,48.427734375 29.47265625,48.427734375 29.7802734375,47.6806640625 30.52734375,47.373046875 31.2744140625,47.6806640625 31.58203125,48.427734375 35.80078125,48.427734375 36.1083984375,47.6806640625 36.85546875,47.373046875 37.6025390625,47.6806640625 37.91015625,48.427734375 42.099609375,48.427734375 42.421875,47.6953125 43.154296875,47.373046875 43.9013671875,47.6806640625 44.208984375,48.427734375 48.427734375,48.427734375 48.7353515625,47.6806640625 49.482421875,47.373046875 50.2294921875,47.6806640625 50.537109375,48.427734375 54.755859375,48.427734375 54.755859375,50.537109375 12.626953125,50.537109375 12.626953125,48.427734375 16.845703125,48.427734375 17.1533203125,47.6806640625 17.900390625,47.373046875z M46.318359375,23.173828125L48.427734375,23.173828125 49.921875,23.7890625 50.537109375,25.283203125 50.537109375,40.01953125 49.9072265625,41.4990234375 48.427734375,42.12890625 46.318359375,42.12890625 46.318359375,23.173828125z M18.955078125,23.173828125L21.064453125,23.173828125 21.064453125,42.12890625 18.955078125,42.12890625 17.4755859375,41.4990234375 16.845703125,40.01953125 16.845703125,25.283203125 17.4609375,23.7890625 18.955078125,23.173828125z M29.47265625,18.955078125L29.47265625,23.173828125 37.91015625,23.173828125 37.91015625,18.955078125 29.47265625,18.955078125z M29.47265625,16.845703125L37.91015625,16.845703125 39.3896484375,17.4755859375 40.01953125,18.955078125 40.01953125,23.173828125 42.099609375,23.173828125 42.099609375,42.12890625 25.25390625,42.12890625 25.25390625,23.173828125 27.36328125,23.173828125 27.36328125,18.955078125 27.9931640625,17.4755859375 29.47265625,16.845703125z M4.21875,4.21874952316284L4.21875,63.1640625 63.1640625,63.1640625 63.1640625,4.21874952316284 4.21875,4.21874952316284z M0,0L67.3828125,0 67.3828125,67.3828125 0,67.3828125 0,0z" />
    </g>
  </g>
</svg>