<?xml version="1.0" encoding="utf-8"?>
<!DOCTYPE svg PUBLIC "-//W3C//DTD SVG 1.1//EN" "http://www.w3.org/Graphics/SVG/1.1/DTD/svg11.dtd">
<svg width="67.3828125000015" height="54.755859375" xmlns="http://www.w3.org/2000/svg" xmlns:xlink="http://www.w3.org/1999/xlink" xmlns:xml="http://www.w3.org/XML/1998/namespace" version="1.1">
  <g>
    <g>
      <path style="fill:#FF0000;fill-opacity:1" d="M49.541015625,45.322265625L50.009765625,45.46875 49.7607421875,45.41015625 49.541015625,45.322265625z M23.701171875,36.85546875L21.826171875,37.6025390625 21.2548809051514,38.441162109375 21.064453125,39.462890625 21.2548809051514,40.48828125 21.826171875,41.337890625 22.6757793426514,41.9091796875 23.701171875,42.099609375 24.722900390625,41.9091796875 25.5615234375,41.337890625 26.30859375,39.462890625 26.1181640625,38.45947265625 25.546875,37.6171875 24.70458984375,37.0458984375 23.701171875,36.85546875z M46.93359375,29.150390625L49.189453125,35.947265625 61.025390625,39.873046875 61.0693359375,39.4775390625 61.083984375,39.08203125 61.0546875,38.466796875 60.966796875,37.8515625 51.826171875,34.8046875 53.349609375,33.28125 60.146484375,35.537109375 58.4326171875,33.4716796875 56.103515625,32.16796875 46.93359375,29.150390625z M10.517578125,11.513671875L10.517578125,23.0859375 11.19140625,23.291015625 31.58203125,30.087890625 31.58203125,24.111328125 21.240234375,20.712890625 16.640625,13.06640625 10.517578125,11.513671875z M33.69140625,8.408203125L33.69140625,32.98828125 10.517578125,25.283203125 10.517578125,28.359375 15.7177734375,31.46484375 20.888671875,34.599609375 23.3349609375,36.1083984375 25.810546875,37.529296875 26.923828125,37.998046875 28.06640625,38.349609375 34.365234375,40.341796875 41.953125,42.83203125 49.541015625,45.322265625 49.248046875,45.2783203125 48.955078125,45.263671875 47.9479942321777,45.457763671875 47.0947265625,46.0400390625 46.5124473571777,46.893310546875 46.318359375,47.900390625 46.5087852478027,48.92578125 47.080078125,49.775390625 47.9296836853027,50.3466796875 48.955078125,50.537109375 49.9621543884277,50.343017578125 50.8154296875,49.7607421875 51.3977012634277,48.907470703125 51.591796875,47.900390625 51.15234375,46.4208984375 50.009765625,45.46875 50.7275390625,45.7177734375 51.474609375,45.9375 52.6025390625,46.2158203125 53.73046875,46.318359375 55.8251953125,46.0107421875 57.7587890625,45.1171875 59.35546875,43.7255859375 60.439453125,41.89453125 53.994140625,39.7119140625 47.51953125,37.6171875 42.94921875,23.7744140625 38.291015625,9.9609375 36.005859375,9.169921875 33.69140625,8.408203125z M47.958984375,4.921875L45.5859375,5.390625 43.65234375,6.6796875 42.3486328125,8.61328125 41.865234375,10.986328125 40.8984375,11.07421875 44.912109375,23.14453125 57.099609375,23.14453125 59.4580078125,22.6611328125 61.376953125,21.357421875 62.6806640625,19.4384765625 63.1640625,17.080078125 62.6806640625,14.7216796875 61.376953125,12.7880859375 59.4580078125,11.4697265625 57.099609375,10.986328125 55.517578125,11.2060546875 54.052734375,11.8359375 53.96484375,11.77734375 54.0234375,11.3232421875 54.0234375,10.869140625 53.5400390625,8.5546875 52.2216796875,6.6650390625 50.2880859375,5.390625 47.958984375,4.921875z M12.626953125,4.21875L10.986328125,4.541015625 9.6533203125,5.4345703125 8.7451171875,6.767578125 8.408203125,8.408203125 6.767578125,8.7451171875 5.4345703125,9.6533203125 4.541015625,10.986328125 4.21875,12.626953125 4.541015625,14.267578125 5.4345703125,15.6005859375 6.767578125,16.5087890625 8.408203125,16.845703125 8.408203125,8.818359375 13.2275390625,10.048828125 18.017578125,11.2207040786743 19.4970703125,13.7841796875 21.03515625,16.2890625 22.5732421875,14.7216796875 23.173828125,12.626953125 22.8369140625,10.986328125 21.9287109375,9.6533203125 20.595703125,8.7451171875 18.955078125,8.408203125 17.87109375,8.5693359375 16.845703125,8.994140625 16.845703125,8.291015625 16.494140625,6.6943359375 15.556640625,5.4052734375 14.208984375,4.541015625 12.626953125,4.21875z M12.626953125,0L14.8388671875,0.292968034744263 16.8603515625,1.14257824420929 18.603515625,2.49023413658142 19.951171875,4.27734375 22.8955078125,5.185546875 25.2392578125,7.0458984375 26.7919921875,9.609375 27.36328125,12.626953125 26.923828125,15.322265625 25.634765625,17.724609375 29.47265625,18.984375 29.47265625,2.57812452316284 39.08203125,5.771484375 40.751953125,3.66210961341858 42.861328125,2.06542921066284 45.29296875,1.05468690395355 47.958984375,0.703124523162842 50.9033203125,1.1279296875 53.5546875,2.34374952316284 55.7666015625,4.2626953125 57.36328125,6.767578125 59.381103515625,7.020263671875 61.2744140625,7.6611328125 64.4677734375,9.8876953125 66.6064453125,13.1396484375 67.188720703125,15.054931640625 67.3828125,17.080078125 67.181396484375,19.130859375 66.5771484375,21.064453125 64.365234375,24.345703125 61.083984375,26.5576171875 59.150390625,27.161865234375 57.099609375,27.36328125 54.9609375,27.36328125 56.19140625,27.7587890625 57.421875,28.18359375 60.6298828125,29.8681640625 63.1201171875,32.373046875 64.716796875,35.5078125 65.2734375,39.08203125 65.0830078125,41.209716796875 64.51171875,43.1982421875 62.40234375,46.611328125 59.23828125,49.1015625 55.283203125,50.44921875 54.2578125,52.20703125 52.7783203125,53.5693359375 50.9765625,54.4482421875 48.955078125,54.755859375 46.318359375,54.228515625 44.150390625,52.7783203125 42.6708984375,50.6396484375 42.12890625,48.017578125 42.12890625,47.607421875 29.326171875,43.330078125 26.89453125,45.52734375 25.34912109375,46.12060546875 23.701171875,46.318359375 21.03515625,45.7763671875 18.8525390625,44.3115234375 17.3876953125,42.12890625 16.845703125,39.462890625 17.2265625,37.3828125 6.328125,30.703125 6.328125,20.771484375 3.779296875,19.6435546875 1.7724609375,17.783203125 0.468749523162842,15.380859375 0,12.626953125 0.3515625,10.224609375 1.34765625,8.0419921875 2.900390625,6.240234375 4.951171875,4.95117092132568 6.240234375,2.900390625 8.0419921875,1.34765601158142 10.224609375,0.351562261581421 12.626953125,0z" />
    </g>
  </g>
</svg>