<?xml version="1.0" encoding="utf-8"?>
<!DOCTYPE svg PUBLIC "-//W3C//DTD SVG 1.1//EN" "http://www.w3.org/Graphics/SVG/1.1/DTD/svg11.dtd">
<svg width="58.9453125" height="58.9453125" xmlns="http://www.w3.org/2000/svg" xmlns:xlink="http://www.w3.org/1999/xlink" xmlns:xml="http://www.w3.org/XML/1998/namespace" version="1.1">
  <g>
    <g>
      <path style="fill:#FF0000;fill-opacity:1" d="M28.41796875,14.736328125L29.6337890625,14.9853515625 30.64453125,15.673828125 31.3330078125,16.6845703125 31.58203125,17.900390625 31.3330078125,19.1162109375 30.64453125,20.126953125 29.6337890625,20.8154296875 28.41796875,21.064453125 27.2021484375,20.8154296875 26.19140625,20.126953125 25.5029296875,19.1162109375 25.25390625,17.900390625 25.5029296875,16.6845703125 26.19140625,15.673828125 27.2021484375,14.9853515625 28.41796875,14.736328125z M10.1953125,13.18359375L7.613525390625,16.798095703125 5.7275390625,20.7861328125 4.57397413253784,25.0451679229736 4.189453125,29.47265625 4.41650342941284,32.89306640625 5.09765625,36.181640625 7.646484375,42.216796875 11.6015625,47.34375 16.728515625,51.298828125 22.763671875,53.84765625 26.05224609375,54.52880859375 29.47265625,54.755859375 33.900146484375,54.371337890625 38.1591796875,53.2177734375 42.1472129821777,51.331787109375 45.76171875,48.75 34.4122123718262,37.4004936218262 34.951171875,39.3603515625 35.5224609375,41.6455078125 35.771484375,43.18359375 35.4638671875,43.9013671875 34.74609375,44.208984375 34.1015625,43.9892578125 33.720703125,43.41796875 31.787109375,35.771484375 31.2744140625,35.0390625 30.41015625,34.775390625 29.501953125,35.126953125 27.36328125,37.265625 27.36328125,43.154296875 27.0556640625,43.9013671875 26.30859375,44.208984375 25.5615234375,43.9013671875 25.25390625,43.154296875 25.25390625,36.85546875 25.576171875,36.09375 28.095703125,33.57421875 27.2702102661133,30.2584915161133 25.3950653076172,28.3833446502686 24.609375,29.94140625 23.96484375,30.498046875 23.115234375,30.791015625 21.9580078125,31.142578125 20.8154296875,31.4501953125 19.98046875,31.58203125 19.2626953125,31.2744140625 18.955078125,30.556640625 19.1748046875,29.8974609375 19.716796875,29.501953125 22.939453125,28.59375 23.828125,26.81640625 10.1953125,13.18359375z M29.47265625,4.21875L25.030517578125,4.599609375 20.7861328125,5.7421875 16.8127422332764,7.6171875 13.18359375,10.1953125 26.2004203796387,23.2121391296387 26.30859375,23.14453125 31.58203125,23.14453125 31.9775390625,23.232421875 32.314453125,23.466796875 34.2626953125,25.341796875 35.478515625,26.7626953125 36.4013671875,28.2861328125 37.470703125,30.439453125 37.79296875,31.11328125 37.91015625,31.58203125 37.587890625,32.3291015625 36.826171875,32.63671875 35.888671875,32.05078125 34.9072265625,30 33.8671875,27.978515625 32.6806640625,26.7041015625 31.40625,25.546875 32.36328125,29.375 48.75,45.76171875 51.3281211853027,42.132568359375 53.203125,38.1591796875 54.345703125,33.914794921875 54.7265625,29.47265625 54.49951171875,26.0522480010986 53.818359375,22.763671875 51.26953125,16.728515625 47.3291015625,11.6162109375 42.216796875,7.67578125 36.181640625,5.12695360183716 32.89306640625,4.44580078125 29.47265625,4.21875z M29.47265625,0L33.468017578125,0.263674736022949 37.3095703125,1.0546875 40.9497032165527,2.32544231414795 44.3408203125,4.0283203125 47.4645957946777,6.141357421875 50.302734375,8.642578125 52.803955078125,11.480712890625 54.9169921875,14.6044921875 56.619873046875,17.99560546875 57.890625,21.6357421875 58.681640625,25.4772968292236 58.9453125,29.47265625 58.681640625,33.468017578125 57.890625,37.3095703125 56.619873046875,40.94970703125 54.9169921875,44.3408203125 52.803955078125,47.464599609375 50.302734375,50.302734375 47.4645957946777,52.803955078125 44.3408203125,54.9169921875 40.9497032165527,56.619873046875 37.3095703125,57.890625 33.468017578125,58.681640625 29.47265625,58.9453125 25.477294921875,58.681640625 21.6357421875,57.890625 17.9956035614014,56.619873046875 14.6044921875,54.9169921875 11.480712890625,52.803955078125 8.642578125,50.302734375 6.141357421875,47.464599609375 4.0283203125,44.3408203125 2.32543873786926,40.94970703125 1.0546875,37.3095703125 0.263671875,33.468017578125 0,29.47265625 0.263671875,25.4772968292236 1.0546875,21.6357421875 2.32543873786926,17.99560546875 4.0283203125,14.6044921875 6.141357421875,11.480712890625 8.642578125,8.642578125 11.480712890625,6.141357421875 14.6044921875,4.0283203125 17.9956035614014,2.32544231414795 21.6357421875,1.0546875 25.477294921875,0.263674736022949 29.47265625,0z" />
    </g>
  </g>
</svg>