<?xml version="1.0" encoding="utf-8"?>
<!DOCTYPE svg PUBLIC "-//W3C//DTD SVG 1.1//EN" "http://www.w3.org/Graphics/SVG/1.1/DTD/svg11.dtd">
<svg width="67.382812500001" height="42.12890625" xmlns="http://www.w3.org/2000/svg" xmlns:xlink="http://www.w3.org/1999/xlink" xmlns:xml="http://www.w3.org/XML/1998/namespace" version="1.1">
  <g>
    <g>
      <path style="fill:#FF0000;fill-opacity:1" d="M52.646484375,33.69140625L51.15234375,34.306640625 50.537109375,35.80078125 51.15234375,37.294921875 52.646484375,37.91015625 54.140625,37.294921875 54.755859375,35.80078125 54.140625,34.306640625 52.646484375,33.69140625z M16.845703125,33.69140625L15.3515625,34.306640625 14.736328125,35.80078125 15.3515625,37.294921875 16.845703125,37.91015625 18.33984375,37.294921875 18.955078125,35.80078125 18.33984375,34.306640625 16.845703125,33.69140625z M33.69140625,10.517578125L46.318359375,10.517578125 46.318359375,21.064453125 33.69140625,21.064453125 33.69140625,10.517578125z M23.173828125,8.408203125L22.119140625,10.517578125 31.58203125,10.517578125 31.58203125,21.064453125 21.064453125,21.064453125 21.064453125,23.173828125 18.955078125,23.173828125 18.955078125,21.064453125 17.900390625,21.0498046875 16.845703125,21.03515625 6.328125,21.03515625 4.833984375,21.6650390625 4.21875,23.173828125 6.328125,23.173828125 6.328125,27.36328125 4.21875,27.36328125 4.21875,29.47265625 10.517578125,29.47265625 10.517578125,30.263671875 9.43359375,31.8896484375 8.73046875,33.69140625 10.8984375,33.69140625 11.8212890625,31.9775390625 13.212890625,30.64453125 14.9267578125,29.7802734375 16.845703125,29.47265625 18.7646484375,29.7802734375 20.478515625,30.64453125 21.8701171875,31.9775390625 22.79296875,33.69140625 24.9609375,33.69140625 24.111328125,31.58203125 45.380859375,31.58203125 44.853515625,32.607421875 44.501953125,33.69140625 46.669921875,33.69140625 47.6220703125,31.9775390625 48.9990234375,30.64453125 50.6982421875,29.7802734375 52.646484375,29.47265625 54.5654296875,29.7802734375 56.279296875,30.64453125 57.6708984375,31.9775390625 58.59375,33.69140625 60.76171875,33.69140625 60.0732421875,31.8603515625 58.9453125,30.263671875 58.9453125,29.47265625 63.1640625,29.47265625 63.1640625,27.36328125 61.0546875,27.36328125 61.0546875,23.173828125 63.1640625,23.173828125 63.1640625,22.96875 62.9736328125,22.236328125 62.4755859375,21.62109375 61.8017578125,21.2109375 61.0546875,21.064453125 48.427734375,21.064453125 48.427734375,10.517578125 49.482421875,10.517578125 48.427734375,8.408203125 23.173828125,8.408203125z M28.41796875,4.21875L27.36328125,5.2734375 27.36328125,6.328125 33.69140625,6.328125 33.69140625,5.2734375 32.63671875,4.21875 28.41796875,4.21875z M26.689453125,0L34.39453125,0 37.91015625,3.515625 37.91015625,4.21875 51.03515625,4.21875 54.2138671875,10.517578125 57.36328125,16.845703125 61.0546875,16.845703125 63.515625,17.34375 65.5224609375,18.7060546875 66.884765625,20.712890625 67.3828125,23.173828125 67.3828125,37.91015625 58.59375,37.91015625 57.6416015625,39.6240234375 56.279296875,40.95703125 54.580078125,41.8212890625 52.646484375,42.12890625 50.6982421875,41.8212890625 48.9990234375,40.95703125 47.6220703125,39.6240234375 46.669921875,37.91015625 22.79296875,37.91015625 21.8408203125,39.6240234375 20.478515625,40.95703125 18.779296875,41.8212890625 16.845703125,42.12890625 14.908447265625,41.84326171875 13.1982421875,40.986328125 11.824951171875,39.64599609375 10.8984375,37.91015625 0,37.91015625 0,23.173828125 0.498046875,20.712890625 1.8603515625,18.7060546875 3.8671875,17.34375 6.328125,16.845703125 14.23828125,16.845703125 17.3876953125,10.517578125 20.56640625,4.21875 23.173828125,4.21875 23.173828125,3.515625 26.689453125,0z" />
    </g>
  </g>
</svg>