<?xml version="1.0" encoding="utf-8"?>
<!DOCTYPE svg PUBLIC "-//W3C//DTD SVG 1.1//EN" "http://www.w3.org/Graphics/SVG/1.1/DTD/svg11.dtd">
<svg width="67.382812500001" height="42.12890625" xmlns="http://www.w3.org/2000/svg" xmlns:xlink="http://www.w3.org/1999/xlink" xmlns:xml="http://www.w3.org/XML/1998/namespace" version="1.1">
  <g>
    <g>
      <path style="fill:#FF0000;fill-opacity:1" d="M48.427734375,33.69140625L46.93359375,34.306640625 46.318359375,35.80078125 46.93359375,37.294921875 48.427734375,37.91015625 49.921875,37.294921875 50.537109375,35.80078125 49.921875,34.306640625 48.427734375,33.69140625z M16.845703125,33.69140625L15.3515625,34.306640625 14.736328125,35.80078125 15.3515625,37.294921875 16.845703125,37.91015625 18.33984375,37.294921875 18.955078125,35.80078125 18.33984375,34.306640625 16.845703125,33.69140625z M61.0546875,16.845703125L61.0546875,29.501953125 62.109375,29.501953125 62.841796875,29.1796875 63.1640625,28.447265625 63.1640625,17.900390625 62.8564453125,17.1533203125 62.109375,16.845703125 61.0546875,16.845703125z M44.208984375,6.328125L56.865234375,6.328125 56.865234375,16.845703125 44.208984375,16.845703125 44.208984375,6.328125z M31.58203125,6.328125L42.099609375,6.328125 42.099609375,16.845703125 31.58203125,16.845703125 31.58203125,6.328125z M22.587890625,4.21875L21.0791015625,4.833984375 20.361328125,6.328125 29.47265625,6.328125 29.47265625,16.845703125 21.064453125,16.845703125 21.064453125,18.955078125 18.955078125,18.955078125 18.955078125,16.845703125 6.328125,16.845703125 5.2001953125,17.1240234375 4.5556640625,17.841796875 4.27734375,18.837890625 4.21875,19.951171875 4.21875,21.064453125 6.328125,21.064453125 6.328125,25.283203125 4.21875,25.283203125 4.21875,33.69140625 10.8984375,33.69140625 11.824951171875,31.959228515625 13.1982421875,30.6298828125 14.908447265625,29.783935546875 16.845703125,29.501953125 18.779296875,29.8095703125 20.478515625,30.6591796875 21.8408203125,31.9775390625 22.79296875,33.69140625 42.48046875,33.69140625 43.4069786071777,31.959228515625 44.7802734375,30.6298828125 46.4904747009277,29.783935546875 48.427734375,29.501953125 50.361328125,29.8095703125 52.060546875,30.6591796875 53.4228515625,31.9775390625 54.375,33.69140625 58.9453125,33.69140625 58.9453125,25.283203125 56.865234375,25.283203125 56.865234375,21.064453125 58.9453125,21.064453125 58.9453125,6.328125 58.330078125,4.8486328125 56.865234375,4.21875 22.587890625,4.21875z M22.587890625,0L56.865234375,0 59.296875,0.5126953125 61.3037109375,1.8896484375 62.666015625,3.9111328125 63.1640625,6.328125 63.1640625,12.744140625 64.8486328125,13.4033203125 66.181640625,14.5751953125 67.060546875,16.1279296875 67.3828125,17.900390625 67.3828125,28.447265625 67.060546875,30.234375 66.181640625,31.7724609375 64.8486328125,32.9443359375 63.1640625,33.603515625 63.1640625,37.91015625 54.375,37.91015625 53.4228515625,39.6240234375 52.060546875,40.95703125 50.361328125,41.8212890625 48.427734375,42.12890625 46.4904747009277,41.84326171875 44.7802734375,40.986328125 43.4069786071777,39.64599609375 42.48046875,37.91015625 22.79296875,37.91015625 21.8408203125,39.6240234375 20.478515625,40.95703125 18.779296875,41.8212890625 16.845703125,42.12890625 14.908447265625,41.84326171875 13.1982421875,40.986328125 11.824951171875,39.64599609375 10.8984375,37.91015625 0,37.91015625 0,18.955078125 0.498046875,16.494140625 1.8603515625,14.501953125 3.8671875,13.154296875 6.328125,12.65625 13.798828125,12.65625 16.58203125,4.3359375 17.5048828125,2.578125 18.896484375,1.2158203125 20.625,0.322265625 22.587890625,0z" />
    </g>
  </g>
</svg>