<?xml version="1.0" encoding="utf-8"?>
<!DOCTYPE svg PUBLIC "-//W3C//DTD SVG 1.1//EN" "http://www.w3.org/Graphics/SVG/1.1/DTD/svg11.dtd">
<svg width="67.3828125" height="65.2734375" xmlns="http://www.w3.org/2000/svg" xmlns:xlink="http://www.w3.org/1999/xlink" xmlns:xml="http://www.w3.org/XML/1998/namespace" version="1.1">
  <g>
    <g>
      <path style="fill:#FF0000;fill-opacity:1" d="M20.009765625,43.154296875L4.21875,58.9453125 4.21875,61.0546875 8.408203125,61.0546875 10.546875,58.9453125 56.806640625,58.9453125 58.916015625,61.0546875 63.134765625,61.0546875 63.134765625,58.9453125 47.373046875,43.18359375 42.099609375,48.427734375 41.044921875,49.51171875 39.90234375,50.5078125 48.3984375,50.5078125 52.587890625,54.7265625 14.765625,54.7265625 18.955078125,50.5078125 27.451171875,50.5078125 26.30859375,49.51171875 25.25390625,48.427734375 20.009765625,43.154296875z M42.099609375,31.58203125L43.59375,32.197265625 44.208984375,33.69140625 43.59375,35.185546875 42.099609375,35.80078125 40.6201171875,35.1708984375 39.990234375,33.69140625 40.6201171875,32.2119140625 42.099609375,31.58203125z M35.80078125,31.58203125L37.880859375,31.58203125 37.880859375,35.80078125 35.80078125,35.80078125 35.80078125,31.58203125z M29.47265625,31.58203125L31.58203125,31.58203125 31.58203125,35.80078125 29.47265625,35.80078125 29.47265625,31.58203125z M25.25390625,31.58203125L26.748046875,32.197265625 27.36328125,33.69140625 26.748046875,35.185546875 25.25390625,35.80078125 23.7890625,35.1708984375 23.173828125,33.69140625 23.7890625,32.2119140625 25.25390625,31.58203125z M35.771484375,14.736328125L44.1796875,14.736328125 44.1796875,16.845703125 42.4584922790527,18.58154296875 40.458984375,19.921875 38.2177734375,20.7788105010986 35.771484375,21.064453125 35.771484375,14.736328125z M23.14453125,14.736328125L31.552734375,14.736328125 31.552734375,21.064453125 29.1064453125,20.7788105010986 26.865234375,19.921875 24.86572265625,18.58154296875 23.14453125,16.845703125 23.14453125,14.736328125z M29.47265625,4.21874952316284L26.942138671875,4.46777582168579 24.5654296875,5.21484327316284 20.5517578125,7.9248046875 17.841796875,11.9384765625 17.0947246551514,14.315185546875 16.845703125,16.845703125 16.845703125,27.861328125 17.0361328125,30.0732421875 17.548828125,32.2265625 18.5156230926514,34.779052734375 19.892578125,37.1044921875 23.6279296875,40.8984375 28.359375,43.3447265625 30.9814453125,43.992919921875 33.69140625,44.208984375 37.0751953125,43.87939453125 40.25390625,42.890625 43.1323204040527,41.33056640625 45.615234375,39.287109375 47.6586875915527,36.80419921875 49.21875,33.92578125 50.2075157165527,30.7470703125 50.537109375,27.36328125 50.537109375,16.845703125 50.2880821228027,14.315185546875 49.541015625,11.9384765625 46.8310546875,7.9248046875 42.8173828125,5.21484327316284 40.4406700134277,4.46777582168579 37.91015625,4.21874952316284 29.47265625,4.21874952316284z M29.47265625,0L37.91015625,0 41.2719688415527,0.333254516124725 44.443359375,1.33300745487213 47.3217735290527,2.90405511856079 49.8046875,4.95117139816284 51.8518028259277,7.43408203125 53.4228515625,10.3125 54.4226036071777,13.48388671875 54.755859375,16.845703125 54.755859375,37.91015625 54.345703125,40.5908203125 53.203125,43.037109375 60.234375,50.1708984375 67.3828125,57.216796875 67.3828125,65.2734375 57.1875,65.2734375 55.078125,63.1640625 12.275390625,63.1640625 10.166015625,65.2734375 0,65.2734375 0,57.216796875 14.1796875,43.037109375 13.037109375,40.5908203125 12.626953125,37.91015625 12.626953125,16.845703125 12.960205078125,13.48388671875 13.9599609375,10.3125 15.531005859375,7.43408203125 17.578125,4.95117139816284 20.0573711395264,2.90405511856079 22.9248046875,1.33300745487213 26.092529296875,0.333254516124725 29.47265625,0z" />
    </g>
  </g>
</svg>