<?xml version="1.0" encoding="utf-8"?>
<!DOCTYPE svg PUBLIC "-//W3C//DTD SVG 1.1//EN" "http://www.w3.org/Graphics/SVG/1.1/DTD/svg11.dtd">
<svg width="67.3828125000007" height="67.3828125" xmlns="http://www.w3.org/2000/svg" xmlns:xlink="http://www.w3.org/1999/xlink" xmlns:xml="http://www.w3.org/XML/1998/namespace" version="1.1">
  <g>
    <g>
      <path style="fill:#FF0000;fill-opacity:1" d="M18.427734375,55.224609375L16.0986328125,58.330078125 15.472412109375,60.08056640625 15.263671875,62.109375 15.2783203125,62.63671875 15.322265625,63.1640625 18.603515625,62.4609375 21.50390625,60.732421875 20.7568359375,60.0146484375 20.1123046875,59.296875 19.658203125,58.4765625 19.482421875,57.48046875 19.658203125,56.455078125 18.427734375,55.224609375z M25.869140625,53.173828125L25.3125,53.349609375 25.01953125,53.6279296875 24.375,54.2431640625 23.5546875,55.048828125 22.734375,55.869140625 22.08984375,56.5283203125 21.796875,56.8359375 21.591796875,57.36328125 21.73828125,57.94921875 22.1630859375,58.505859375 22.822265625,59.150390625 23.5107421875,59.7802734375 24.0234375,60.263671875 24.697265625,60.52734375 25.166015625,60.41015625 25.4443359375,60.146484375 26.1181640625,59.501953125 26.9677734375,58.6669921875 27.8173828125,57.8173828125 28.4765625,57.1435546875 28.76953125,56.8359375 28.9453125,56.279296875 28.8720703125,55.9716796875 28.740234375,55.693359375 28.1103515625,55.0341796875 27.3046875,54.19921875 26.4990234375,53.4814453125 25.869140625,53.173828125z M13.271484375,50.068359375L11.517333984375,51.602783203125 9.6533203125,52.7490234375 7.59887599945068,53.463134765625 5.2734375,53.701171875 4.8046875,53.6865234375 4.248046875,53.642578125 5.2294921875,57.2021484375 7.2802734375,60.1025390625 10.1806640625,62.1533203125 13.740234375,63.134765625 13.740234375,62.783203125 13.6962890625,62.3291015625 13.681640625,61.962890625 13.919677734375,59.72900390625 14.6337890625,57.71484375 15.780029296875,55.86181640625 17.314453125,54.111328125 13.271484375,50.068359375z M6.650390625,45.87890625L4.921875,48.779296875 4.21875,52.060546875 4.74609375,52.1044921875 5.2734375,52.119140625 7.30224514007568,51.910400390625 9.052734375,51.2841796875 12.158203125,48.955078125 10.927734375,47.75390625 9.9609375,47.900390625 8.935546875,47.724609375 8.115234375,47.2705078125 7.3828125,46.6259765625 6.650390625,45.87890625z M14.8828125,44.23828125L12.65625,46.46484375 20.91796875,54.7265625 23.14453125,52.5 20.0390625,49.39453125 20.771484375,48.80859375 21.064453125,47.900390625 20.6103515625,46.7724609375 19.482421875,46.318359375 18.57421875,46.5966796875 17.98828125,47.34375 14.8828125,44.23828125z M11.103515625,38.4375L10.2392578125,38.935546875 9.0087890625,40.0634765625 7.8369140625,41.279296875 7.119140625,42.041015625 6.85546875,42.685546875 7.03125,43.271484375 7.3974609375,43.65234375 8.1591796875,44.4140625 8.9501953125,45.17578125 9.375,45.5859375 9.9609375,45.8203125 10.517578125,45.615234375 10.810546875,45.3369140625 11.455078125,44.7216796875 12.24609375,43.9306640625 13.037109375,43.125 13.6669921875,42.48046875 13.974609375,42.158203125 14.208984375,41.513671875 14.033203125,40.95703125 13.6083984375,40.48828125 12.9345703125,39.814453125 12.2314453125,39.140625 11.71875,38.671875 11.103515625,38.4375z M50.0390625,23.61328125L23.642578125,50.009765625 24.84375,51.240234375 25.869140625,51.064453125 27.59765625,51.6357421875 28.974609375,52.91015625 29.150390625,53.115234375 33.2373046875,49.0576171875 37.294921875,45 53.14453125,29.150390625 52.939453125,28.974609375 51.6650390625,27.59765625 51.09375,25.869140625 51.26953125,24.84375 50.0390625,23.61328125z M57.451171875,21.5625L56.77734375,21.85546875 56.25,22.3828125 55.7080078125,22.9248046875 54.7412109375,23.876953125 53.8037109375,24.8291015625 53.3203125,25.37109375 53.203125,25.83984375 53.37890625,26.396484375 53.759765625,26.7919921875 54.5361328125,27.568359375 55.3271484375,28.3447265625 55.751953125,28.740234375 56.30859375,28.916015625 56.953125,28.65234375 60.380859375,25.224609375 60.5126953125,24.9755859375 60.556640625,24.66796875 60.29296875,24.0234375 58.095703125,21.826171875 57.451171875,21.5625z M44.23828125,19.1015625L19.1015625,44.23828125 19.27734375,44.2236328125 19.453125,44.208984375 20.888671875,44.4873046875 22.0751953125,45.263671875 22.880859375,46.435546875 23.173828125,47.900390625 23.1591796875,48.0908203125 23.14453125,48.28125 48.28125,23.14453125 48.10546875,23.1591796875 47.9296875,23.173828125 46.494140625,22.880859375 45.3076171875,22.08984375 44.501953125,20.91796875 44.208984375,19.482421875 44.2236328125,19.2919921875 44.23828125,19.1015625z M62.080078125,15.263671875L60.076904296875,15.46875 58.3447265625,16.083984375 55.25390625,18.3984375 56.455078125,19.62890625 57.48046875,19.453125 58.4765625,19.62890625 59.296875,20.09765625 60.0146484375,20.7421875 60.732421875,21.474609375 62.4609375,18.5888671875 63.134765625,15.322265625 62.607421875,15.2783203125 62.080078125,15.263671875z M38.232421875,14.23828125L14.267578125,38.203125 15.0146484375,38.935546875 15.673828125,39.66796875 16.142578125,40.5029296875 16.318359375,41.513671875 16.142578125,42.5390625 17.373046875,43.740234375 43.76953125,17.34375 42.5390625,16.142578125 41.572265625,16.2890625 40.5322265625,16.11328125 39.697265625,15.64453125 38.96484375,14.9853515625 38.232421875,14.23828125z M46.494140625,12.626953125L44.267578125,14.853515625 47.40234375,17.98828125 46.611328125,18.5595703125 46.318359375,19.482421875 46.787109375,20.6103515625 47.900390625,21.064453125 48.8232421875,20.771484375 49.39453125,19.98046875 50.91796875,21.5771484375 52.529296875,23.115234375 54.755859375,20.888671875 46.494140625,12.626953125z M42.685546875,6.826171875L42.158203125,7.001953125 41.54296875,7.60253953933716 40.341796875,8.7890625 39.169921875,9.9755859375 38.61328125,10.546875 38.466796875,11.07421875 38.671875,11.689453125 39.0087890625,12.0556640625 39.697265625,12.744140625 40.4443359375,13.4765625 40.95703125,13.974609375 41.2646484375,14.150390625 41.54296875,14.1796875 42.216796875,13.916015625 42.5537109375,13.5791015625 43.212890625,12.9345703125 44.00390625,12.158203125 44.7802734375,11.3671875 45.41015625,10.72265625 45.703125,10.37109375 45.791015625,10.166015625 45.8203125,9.931640625 45.64453125,9.345703125 45,8.73046875 44.208984375,7.8955078125 43.388671875,7.1484375 42.685546875,6.826171875z M53.642578125,4.248046875L53.6865234375,4.81933641433716 53.701171875,5.36132764816284 53.4667930603027,7.6025390625 52.763671875,9.638671875 51.6284141540527,11.50634765625 50.09765625,13.2421875 54.140625,17.28515625 55.8911094665527,15.75439453125 57.744140625,14.619140625 59.78759765625,13.916015625 62.109375,13.681640625 62.578125,13.6962890625 63.134765625,13.740234375 62.1533203125,10.1806640625 60.1025390625,7.2802734375 57.2021484375,5.22949171066284 53.642578125,4.248046875z M52.060546875,4.248046875L48.7939453125,4.921875 45.908203125,6.62109375 46.6552734375,7.33886766433716 47.2998046875,8.056640625 47.75390625,8.876953125 47.9296875,9.90234375 47.75390625,10.927734375 48.984375,12.1289072036743 51.298828125,9.0380859375 51.9140586853027,7.283935546875 52.119140625,5.2734375 52.1044921875,4.775390625 52.060546875,4.248046875z M52.646484375,0L55.601806640625,0.289309531450272 58.3740234375,1.15722680091858 60.88623046875,2.52319622039795 63.0615234375,4.306640625 64.85595703125,6.47095012664795 66.2255859375,8.9794921875 67.093505859375,11.759033203125 67.3828125,14.736328125 66.6796875,19.2626953125 64.599609375,23.349609375 64.775390625,24.66796875 64.3798828125,26.6162109375 63.28125,28.271484375 59.912109375,31.640625 58.26416015625,32.76123046875 56.30859375,33.134765625 55.1953125,33.017578125 33.046875,55.166015625 33.1640625,56.279296875 32.783203125,58.2421875 31.669921875,59.912109375 28.30078125,63.251953125 26.6455078125,64.3505859375 24.697265625,64.74609375 23.37890625,64.5703125 19.2919921875,66.6796875 14.736328125,67.3828125 11.77734375,67.093505859375 8.994140625,66.2255859375 6.47460842132568,64.859619140625 4.306640625,63.076171875 2.523193359375,60.911865234375 1.1572265625,58.4033203125 0.289306282997131,55.631103515625 0,52.67578125 0.7177734375,48.134765625 2.8125,44.00390625 2.63671875,42.685546875 3.0322265625,40.72265625 4.130859375,39.052734375 7.470703125,35.712890625 9.1552734375,34.6435546875 11.1328125,34.27734375 12.158203125,34.365234375 34.365234375,12.1875 34.248046875,11.07421875 34.62890625,9.111328125 35.7421875,7.44140625 39.08203125,4.10156202316284 40.751953125,3.0322265625 42.71484375,2.66601586341858 43.974609375,2.81250047683716 48.0908203125,0.717773199081421 52.646484375,0z" />
    </g>
  </g>
</svg>