<?xml version="1.0" encoding="utf-8"?>
<!DOCTYPE svg PUBLIC "-//W3C//DTD SVG 1.1//EN" "http://www.w3.org/Graphics/SVG/1.1/DTD/svg11.dtd">
<svg width="67.3828125" height="67.3828125" xmlns="http://www.w3.org/2000/svg" xmlns:xlink="http://www.w3.org/1999/xlink" xmlns:xml="http://www.w3.org/XML/1998/namespace" version="1.1">
  <g>
    <g>
      <path style="fill:#FF0000;fill-opacity:1" d="M12.802734375,53.0859375L11.044921875,54.84375 10.78125,54.78515625 10.517578125,54.755859375 9.0380859375,55.3857421875 8.408203125,56.865234375 9.0380859375,58.3447265625 10.517578125,58.974609375 11.9970703125,58.3447265625 12.626953125,56.865234375 12.59765625,56.6015625 12.5390625,56.337890625 14.296875,54.580078125 12.802734375,53.0859375z M48.955078125,50.44921875L52.67578125,54.19921875 48.427734375,58.447265625 44.70703125,54.7265625 48.955078125,50.44921875z M43.740234375,45.234375L47.4609375,48.984375 43.212890625,53.232421875 39.462890625,49.482421875 43.740234375,45.234375z M54.7265625,44.70703125L58.447265625,48.427734375 54.169921875,52.705078125 50.44921875,48.984375 54.7265625,44.70703125z M49.482421875,39.462890625L53.232421875,43.212890625 48.955078125,47.490234375 45.205078125,43.740234375 49.482421875,39.462890625z M49.482421875,36.50390625L36.50390625,49.482421875 48.427734375,61.435546875 61.435546875,48.427734375 49.482421875,36.50390625z M25.869140625,28.857421875L19.6875,35.0390625 19.365234375,35.80078125 19.6875,36.533203125 24.140625,40.986328125 23.3642578125,41.7919921875 22.55859375,42.59765625 19.013671875,40.6787109375 15.029296875,40.01953125 12.623291015625,40.250244140625 10.3271484375,40.9423828125 8.206787109375,42.073974609375 6.328125,43.623046875 23.759765625,61.0546875 25.308837890625,59.176025390625 26.4404296875,57.0556640625 27.132568359375,54.759521484375 27.36328125,52.353515625 26.7041015625,48.369140625 24.78515625,44.82421875 25.5908203125,44.0185546875 26.396484375,43.2421875 30.849609375,47.6953125 31.58203125,48.017578125 32.34375,47.6953125 38.525390625,41.513671875 25.869140625,28.857421875z M18.427734375,19.921875L22.1484375,23.642578125 17.900390625,27.919921875 14.150390625,24.169921875 18.427734375,19.921875z M39.990234375,15.1464853286743L39.6826171875,15.205078125 39.404296875,15.3515625 38.9208984375,15.791015625 38.0712890625,16.640625 37.2216796875,17.5048828125 36.73828125,17.98828125 28.857421875,25.869140625 30,27.041015625 35.7275390625,32.8271484375 41.513671875,38.525390625 51.9140625,28.125 52.236328125,27.36328125 52.1484375,26.9677734375 51.9140625,26.630859375 51.767578125,26.4697265625 51.591796875,26.30859375 44.384765625,19.1015625 42.59765625,17.2412109375 40.751953125,15.46875 40.4150390625,15.234375 39.990234375,15.1464853286743z M13.18359375,14.70703125L16.93359375,18.427734375 12.65625,22.67578125 8.935546875,18.955078125 13.18359375,14.70703125z M24.169921875,14.150390625L27.919921875,17.900390625 23.642578125,22.177734375 19.892578125,18.427734375 24.169921875,14.150390625z M45.263671875,12.890625L43.7548828125,13.2861328125 42.5390625,14.296875 53.0859375,24.84375 54.0966796875,23.61328125 54.4921875,22.08984375 54.287109375,20.9619140625 53.701171875,20.009765625 47.490234375,13.828125 46.46484375,13.1396474838257 45.263671875,12.890625z M18.955078125,8.935546875L22.67578125,12.685546875 18.427734375,16.93359375 14.677734375,13.212890625 18.955078125,8.935546875z M52.646484375,7.20703125L51.15234375,7.822265625 48.427734375,10.517578125 48.427734375,11.8359375 48.7060546875,12.0703125 48.984375,12.333984375 55.048828125,18.3984375 55.3125,18.6767578125 55.546875,18.955078125 56.865234375,18.955078125 59.560546875,16.23046875 60.17578125,14.736328125 59.560546875,13.2421875 54.140625,7.822265625 52.646484375,7.20703125z M18.955078125,5.947265625L5.947265625,18.955078125 17.900390625,30.87890625 30.87890625,17.900390625 24.9609375,11.9091796875 18.955078125,5.947265625z M18.955078125,0L33.8671875,14.912109375 35.1708984375,13.53515625 36.5478515625,12.2607421875 38.0859375,11.3232421875 39.931640625,10.95703125 41.89453125,9.4921875 44.23828125,8.759765625 47.607421875,5.390625 49.921875,3.83789014816284 52.646484375,3.31054711341858 55.37109375,3.85253858566284 57.685546875,5.390625 61.9921875,9.697265625 63.5302734375,12.01171875 64.072265625,14.736328125 63.544921875,17.4609375 61.9921875,19.775390625 58.623046875,23.14453125 57.890625,25.48828125 56.42578125,27.451171875 56.0302734375,29.296875 55.107421875,30.8349609375 53.84765625,32.197265625 52.470703125,33.515625 67.3828125,48.427734375 48.427734375,67.3828125 33.076171875,52.001953125 31.58203125,52.20703125 31.58203125,52.32421875 31.270751953125,55.565185546875 30.3369140625,58.6669921875 28.817138671875,61.527099609375 26.748046875,64.04296875 23.759765625,67.03125 16.259765625,59.53125 15.2490234375,61.0400390625 13.9013671875,62.1826171875 12.2900390625,62.9150390625 10.517578125,63.1640625 8.0419921875,62.6806640625 6.03515625,61.34765625 4.7021484375,59.3408203125 4.21875,56.865234375 4.4677734375,55.0927734375 5.2001953125,53.4814453125 6.3427734375,52.1337890625 7.8515625,51.123046875 0.3515625,43.623046875 3.33984375,40.634765625 5.88134670257568,38.54736328125 8.759765625,37.03125 11.88720703125,36.1083984375 15.17578125,35.80078125 15.380859375,34.3359375 0,18.955078125 18.955078125,0z" />
    </g>
  </g>
</svg>