<?xml version="1.0" encoding="utf-8"?>
<!DOCTYPE svg PUBLIC "-//W3C//DTD SVG 1.1//EN" "http://www.w3.org/Graphics/SVG/1.1/DTD/svg11.dtd">
<svg width="67.3828125000006" height="56.865234375" xmlns="http://www.w3.org/2000/svg" xmlns:xlink="http://www.w3.org/1999/xlink" xmlns:xml="http://www.w3.org/XML/1998/namespace" version="1.1">
  <g>
    <g>
      <path style="fill:#FF0000;fill-opacity:1" d="M29.47265625,42.12890625L29.47265625,44.23828125 9.7265625,44.23828125 8.61328125,44.5458984375 7.8515625,45.41015625 6.328125,48.45703125 4.8486328125,49.072265625 4.21875,50.537109375 4.21875,52.646484375 63.1640625,52.646484375 63.1640625,50.537109375 62.5341796875,49.072265625 61.0546875,48.45703125 59.53125,45.41015625 58.76953125,44.5458984375 57.65625,44.23828125 37.91015625,44.23828125 37.91015625,42.12890625 29.47265625,42.12890625z M8.408203125,35.80078125L8.408203125,40.01953125 58.9453125,40.01953125 58.9453125,35.80078125 8.408203125,35.80078125z M31.58203125,10.546875L31.58203125,12.65625 29.47265625,12.65625 28.857421875,14.1357421875 27.36328125,14.765625 23.983154296875,15.0988788604736 20.8154296875,16.0986328125 17.9479961395264,17.6696796417236 15.46875,19.716796875 13.421630859375,22.196044921875 11.8505859375,25.0634765625 10.850830078125,28.231201171875 10.517578125,31.611328125 10.517578125,33.69140625 56.865234375,33.69140625 56.865234375,31.611328125 56.531982421875,28.231201171875 55.5322265625,25.0634765625 53.9611778259277,22.196044921875 51.9140625,19.716796875 49.4348106384277,17.6696796417236 46.5673828125,16.0986328125 43.3996543884277,15.0988788604736 40.01953125,14.765625 38.525390625,14.1357421875 37.91015625,12.65625 35.80078125,12.65625 35.80078125,10.546875 31.58203125,10.546875z M29.47265625,4.21875L27.9931640625,4.8486328125 27.36328125,6.328125 27.9931640625,7.8076171875 29.47265625,8.4375 37.91015625,8.4375 39.3896484375,7.8076171875 40.01953125,6.328125 39.3896484375,4.8486328125 37.91015625,4.21875 29.47265625,4.21875z M29.47265625,0L37.91015625,0 40.37109375,0.498046875 42.36328125,1.8603515625 43.7109375,3.8671875 44.208984375,6.328125 43.76953125,8.6865234375 42.48046875,10.693359375 47.5341796875,11.9384765625 52.0166015625,14.296875 55.751953125,17.6220703125 58.59375,21.73828125 60.41015625,26.455078125 61.0546875,31.611328125 63.1640625,31.611328125 63.1640625,43.2421875 64.04296875,44.970703125 66.4892578125,47.2998046875 67.159423828125,48.848876953125 67.3828125,50.537109375 67.3828125,56.865234375 0,56.865234375 0,50.537109375 0.223388314247131,48.848876953125 0.8935546875,47.2998046875 3.33984375,44.970703125 4.21875,43.2421875 4.21875,31.611328125 6.328125,31.611328125 6.97265625,26.455078125 8.7890625,21.73828125 11.630859375,17.6220703125 15.3662109375,14.296875 19.8486328125,11.9384765625 24.90234375,10.693359375 23.61328125,8.6865234375 23.173828125,6.328125 23.671875,3.8671875 25.01953125,1.8603515625 27.01171875,0.498046875 29.47265625,0z" />
    </g>
  </g>
</svg>