<?xml version="1.0" encoding="utf-8"?>
<!DOCTYPE svg PUBLIC "-//W3C//DTD SVG 1.1//EN" "http://www.w3.org/Graphics/SVG/1.1/DTD/svg11.dtd">
<svg width="50.5371093750003" height="66.533203125" xmlns="http://www.w3.org/2000/svg" xmlns:xlink="http://www.w3.org/1999/xlink" xmlns:xml="http://www.w3.org/XML/1998/namespace" version="1.1">
  <g>
    <g>
      <path style="fill:#FF0000;fill-opacity:1" d="M27.3046875,10.60546875L23.173828125,14.736328125 27.36328125,18.955078125 23.173828125,23.173828125 27.36328125,27.36328125 23.173828125,31.58203125 27.36328125,35.80078125 23.173828125,40.01953125 27.36328125,44.208984375 23.173828125,48.427734375 26.25,51.533203125 31.962890625,44.47265625 34.3212890625,40.60546875 36.298828125,36.5625 37.880859375,32.354736328125 39.052734375,27.9931640625 39.77783203125,23.514404296875 40.01953125,18.955078125 40.01953125,15.498046875 37.12646484375,13.604736328125 34.013671875,12.1435546875 30.72509765625,11.136474609375 27.3046875,10.60546875z M24.4921875,8.4375L29.351806640625,8.79638671875 33.8525390625,9.873046875 38.074951171875,11.748046875 42.099609375,14.501953125 42.099609375,20.21484375 41.9970703125,22.4267578125 41.748046875,24.638671875 40.9570274353027,29.0405292510986 39.755859375,33.33984375 36.240234375,41.4990234375 31.3623046875,48.92578125 25.25390625,55.458984375 21.5002422332764,51.771240234375 18.1494140625,47.6806640625 15.238037109375,43.253173828125 12.802734375,38.5546875 10.865478515625,33.629150390625 9.4482421875,28.5205078125 8.580322265625,23.302001953125 8.291015625,18.046875 8.3349609375,16.259765625 8.4375,14.501953125 11.982421875,11.9970703125 15.9521484375,10.078125 20.1708984375,8.8623046875 24.4921875,8.4375z M25.25390625,4.21875047683716L19.4677734375,4.77539014816284 13.9306640625,6.4013671875 8.7890625,9.0380859375 4.21875,12.6269521713257 4.21875,18.955078125 4.59228515625,25.1477069854736 5.712890625,31.1279296875 7.52197170257568,36.866455078125 9.9609375,42.333984375 12.996826171875,47.51220703125 16.5966796875,52.3828125 20.7019023895264,56.9091796875 25.25390625,61.0546875 29.8095703125,56.9091796875 33.92578125,52.3828125 37.53662109375,47.51220703125 40.576171875,42.333984375 43.0151329040527,36.866455078125 44.82421875,31.1279296875 45.9448204040527,25.1477069854736 46.318359375,18.955078125 46.318359375,12.6269521713257 41.748046875,9.0087890625 36.6064453125,6.3720703125 31.0546875,4.7607421875 25.25390625,4.21875047683716z M25.25390625,0L32.40966796875,0.703127801418304 38.994140625,2.81249952316284 45.0292930603027,6.22558879852295 50.537109375,10.83984375 50.537109375,18.955078125 50.0830039978027,26.2243671417236 48.720703125,33.0908203125 46.5270957946777,39.569091796875 43.5791015625,45.673828125 39.920654296875,51.412353515625 35.595703125,56.7919921875 30.68115234375,61.827392578125 25.25390625,66.533203125 19.8303203582764,61.805419921875 14.9267578125,56.7626953125 10.61279296875,51.38671875 6.9580078125,45.6591796875 4.010009765625,39.5654296875 1.81640625,33.0908203125 0.454101383686066,26.2243671417236 0,18.955078125 0,10.83984375 5.50048732757568,6.22558879852295 11.513671875,2.81249952316284 18.0834941864014,0.703127801418304 25.25390625,0z" />
    </g>
  </g>
</svg>