<?xml version="1.0" encoding="utf-8"?>
<!DOCTYPE svg PUBLIC "-//W3C//DTD SVG 1.1//EN" "http://www.w3.org/Graphics/SVG/1.1/DTD/svg11.dtd">
<svg width="43.41796875" height="42.744140625" xmlns="http://www.w3.org/2000/svg" xmlns:xlink="http://www.w3.org/1999/xlink" xmlns:xml="http://www.w3.org/XML/1998/namespace" version="1.1">
  <g>
    <g>
      <path style="fill:#FF0000;fill-opacity:1" d="M19.248046875,0L24.169921875,0 24.169921875,8.37890625 29.296875,1.259765625 33.310546875,4.072265625 29.736328125,9.08203125 32.8564453125,9.95727634429932 35.595703125,11.1767578125 37.943115234375,12.7441425323486 39.8876953125,14.6630859375 41.41845703125,16.9372577667236 42.5244140625,19.5703125 43.194580078125,22.56591796875 43.41796875,25.927734375 42.919921875,31.259765625 41.42578125,35.6396484375 38.9208984375,39.375 35.361328125,42.744140625 32.373046875,38.61328125 34.8046875,36.1376953125 36.650390625,33.2373046875 37.8369140625,29.853515625 38.26171875,25.927734375 37.994384765625,22.71240234375 37.1923828125,19.98046875 35.86669921875,17.7099628448486 34.0283203125,15.87890625 31.6845703125,14.4799823760986 28.8427734375,13.505859375 25.5139141082764,12.9345722198486 21.708984375,12.744140625 17.904052734375,12.9345722198486 14.5751953125,13.505859375 11.7333974838257,14.4799823760986 9.3896484375,15.87890625 7.55126953125,17.7099628448486 6.2255859375,19.98046875 5.423583984375,22.71240234375 5.15625,25.927734375 5.595703125,29.82421875 6.826171875,33.1640625 8.6865234375,36.064453125 11.044921875,38.61328125 8.056640625,42.744140625 4.716796875,39.5947265625 2.1826171875,35.830078125 0.571288824081421,31.3330078125 0,25.927734375 0.31494140625,21.947021484375 1.259765625,18.5009765625 2.816162109375,15.5749530792236 4.96582078933716,13.154296875 7.69775390625,11.2316913604736 11.0009765625,9.7998046875 14.857177734375,8.851318359375 19.248046875,8.37890625 19.248046875,0z" />
    </g>
  </g>
</svg>