<?xml version="1.0" encoding="utf-8"?>
<!DOCTYPE svg PUBLIC "-//W3C//DTD SVG 1.1//EN" "http://www.w3.org/Graphics/SVG/1.1/DTD/svg11.dtd">
<svg width="26.07421875" height="43.154296875" xmlns="http://www.w3.org/2000/svg" xmlns:xlink="http://www.w3.org/1999/xlink" xmlns:xml="http://www.w3.org/XML/1998/namespace" version="1.1">
  <g>
    <g>
      <path style="fill:#FF0000;fill-opacity:1" d="M6.03515625,0L7.03125,1.083984375 7.8369140625,1.962890625 8.5400390625,2.75390625 9.2578125,3.57421875 7.734375,5.0390625 6.4453125,6.6796875 5.5517578125,8.5546875 5.21484375,10.693359375 5.54443311691284,12.6379413604736 6.533203125,14.5458984375 8.07861328125,16.4758319854736 10.078125,18.486328125 11.5869140625,14.677734375 13.271484375,11.25 15.4248046875,8.37890625 18.33984375,6.2109375 21.8115234375,4.9365234375 25.048828125,4.423828125 25.37109375,5.859375 25.634765625,7.0166015625 25.8544921875,8.056640625 26.07421875,9.111328125 24.8291015625,9.3310546875 23.583984375,9.609375 22.2216796875,10.0634765625 20.625,10.810546875 18.4423828125,12.6708984375 16.81640625,15.3515625 15.4541015625,18.57421875 14.12109375,22.08984375 16.417236328125,24.60205078125 18.1494140625,27.158203125 19.237060546875,29.7802734375 19.599609375,32.490234375 19.0576171875,35.537109375 17.666015625,38.4228515625 15.732421875,41.015625 13.564453125,43.154296875 12.5537109375,42.0703125 11.7626953125,41.19140625 11.0595703125,40.400390625 10.341796875,39.580078125 11.865234375,38.115234375 13.154296875,36.474609375 14.0478515625,34.599609375 14.384765625,32.4609375 13.88671875,30.1318359375 12.48046875,27.802734375 10.2978515625,25.4150390625 7.5,22.91015625 4.42016553878784,19.97314453125 2.0361328125,16.962890625 0.509033203125,13.8647480010986 0,10.6640625 0.5419921875,7.6318359375 1.93359327316284,4.7314453125 3.8671875,2.138671875 6.03515625,0z" />
    </g>
  </g>
</svg>