<?xml version="1.0" encoding="utf-8"?>
<!DOCTYPE svg PUBLIC "-//W3C//DTD SVG 1.1//EN" "http://www.w3.org/Graphics/SVG/1.1/DTD/svg11.dtd">
<svg width="25.8105468750012" height="42.919921875" xmlns="http://www.w3.org/2000/svg" xmlns:xlink="http://www.w3.org/1999/xlink" xmlns:xml="http://www.w3.org/XML/1998/namespace" version="1.1">
  <g>
    <g>
      <path style="fill:#FF0000;fill-opacity:1" d="M12.509765625,0L15.706787109375,0.3076171875 18.4423828125,1.23046875 20.7311992645264,2.662353515625 22.587890625,4.4970703125 24.0161113739014,6.683349609375 25.01953125,9.169921875 25.6127910614014,11.8579120635986 25.810546875,14.6484375 25.5871562957764,17.4462909698486 24.9169921875,19.921875 22.67578125,24.111328125 19.74609375,27.5244140625 16.81640625,30.46875 14.5751953125,33.28125 13.905029296875,34.7314453125 13.681640625,36.26953125 13.76953125,38.203125 14.00390625,40.1220703125 14.3115234375,41.7919921875 14.6484375,42.919921875 9.931640625,42.919921875 9.66796875,41.8212890625 9.462890625,40.1806640625 9.31640625,38.232421875 9.2578125,36.181640625 9.47753810882568,34.119873046875 10.13671875,32.2705078125 12.333984375,28.9892578125 15.17578125,25.95703125 18.017578125,22.79296875 20.21484375,19.1455078125 20.8740215301514,17.0324726104736 21.09375,14.6484375 20.4345703125,10.01953125 18.6181640625,6.708984375 15.8935546875,4.7314453125 12.509765625,4.072265625 9.931640625,4.4970703125 7.3974609375,5.8740234375 5.478515625,8.3349609375 4.9072265625,10.008544921875 4.716796875,12.01171875 5.09765625,14.912109375 6.298828125,17.5927734375 8.37890625,20.15625 11.396484375,22.67578125 7.880859375,26.07421875 4.189453125,22.6904296875 1.75781273841858,19.189453125 0.410156011581421,15.673828125 0,12.1875 0.281981974840164,9.0087890625 1.12792897224426,6.38671875 2.42065405845642,4.273681640625 4.04296875,2.6220703125 5.943603515625,1.40625 8.0712890625,0.6005859375 12.509765625,0z" />
    </g>
  </g>
</svg>