<?xml version="1.0" encoding="utf-8"?>
<!DOCTYPE svg PUBLIC "-//W3C//DTD SVG 1.1//EN" "http://www.w3.org/Graphics/SVG/1.1/DTD/svg11.dtd">
<svg width="17.75390625" height="42.01171875" xmlns="http://www.w3.org/2000/svg" xmlns:xlink="http://www.w3.org/1999/xlink" xmlns:xml="http://www.w3.org/XML/1998/namespace" version="1.1">
  <g>
    <g>
      <path style="fill:#FF0000;fill-opacity:1" d="M4.92187452316284,23.232421875L4.92187452316284,37.119140625 8.291015625,36.09375 10.6787109375,34.4091796875 12.1142578125,32.40234375 12.59765625,30.380859375 12.1142578125,28.212890625 10.6640625,26.103515625 8.26171875,24.345703125 4.92187452316284,23.232421875z M4.92187452316284,4.892578125L4.92187452316284,18.779296875 8.232421875,17.7099609375 10.634765625,15.9375 12.099609375,13.8134765625 12.59765625,11.630859375 12.0556640625,9.6240234375 10.517578125,7.6025390625 8.1005859375,5.91796875 4.92187452316284,4.892578125z M0,0L5.62499952316284,0.556640625 10.1220703125,2.0361328125 13.53515625,4.16015625 15.908203125,6.650390625 17.2998046875,9.228515625 17.75390625,11.630859375 17.1826171875,14.4580078125 15.556640625,17.1240234375 13.0078125,19.3798828125 9.638671875,21.005859375 13.0224609375,22.55859375 15.5859375,24.7998046875 17.197265625,27.4951171875 17.75390625,30.380859375 17.314453125,32.783203125 15.9521484375,35.361328125 13.6083984375,37.8515625 10.2099609375,39.9755859375 5.68359327316284,41.455078125 0,42.01171875 0,0z" />
    </g>
  </g>
</svg>