<?xml version="1.0" encoding="utf-8"?>
<!DOCTYPE svg PUBLIC "-//W3C//DTD SVG 1.1//EN" "http://www.w3.org/Graphics/SVG/1.1/DTD/svg11.dtd">
<svg width="25.8105468750012" height="42.919921875" xmlns="http://www.w3.org/2000/svg" xmlns:xlink="http://www.w3.org/1999/xlink" xmlns:xml="http://www.w3.org/XML/1998/namespace" version="1.1">
  <g>
    <g>
      <path style="fill:#FF0000;fill-opacity:1" d="M9.931640625,0L14.6484375,0 14.3115234375,1.1279296875 14.00390625,2.7978515625 13.76953125,4.7314453125 13.681640625,6.650390625 13.905029296875,8.1884765625 14.5751953125,9.638671875 16.81640625,12.451171875 19.74609375,15.3955078125 22.67578125,18.80859375 24.9169921875,22.998046875 25.5871562957764,25.4736328125 25.810546875,28.271484375 25.6127910614014,31.06201171875 25.01953125,33.75 24.0161113739014,36.236572265625 22.587890625,38.4228515625 20.7311992645264,40.257568359375 18.4423828125,41.689453125 15.706787109375,42.6123046875 12.509765625,42.919921875 8.0712890625,42.3193359375 5.943603515625,41.513671875 4.04296875,40.2978515625 2.42065405845642,38.64990234375 1.12792897224426,36.5478515625 0.281981974840164,33.929443359375 0,30.732421875 0.410156011581421,27.2607421875 1.75781273841858,23.73046875 4.189453125,20.2294921875 7.880859375,16.845703125 11.396484375,20.244140625 8.3642578125,22.79296875 6.298828125,25.341796875 5.1123046875,28.0078125 4.716796875,30.908203125 4.9072265625,32.9150390625 5.478515625,34.599609375 7.3974609375,37.060546875 9.931640625,38.4228515625 12.509765625,38.84765625 15.8935546875,38.1884765625 18.6181640625,36.2109375 20.4345703125,32.900390625 21.09375,28.271484375 20.8740215301514,25.887451171875 20.21484375,23.7744140625 18.017578125,20.126953125 15.17578125,16.962890625 12.333984375,13.9306640625 10.13671875,10.6494140625 9.47753810882568,8.800048828125 9.2578125,6.73828125 9.31640625,4.7021484375 9.462890625,2.7392578125 9.66796875,1.0986328125 9.931640625,0z" />
    </g>
  </g>
</svg>