<?xml version="1.0" encoding="utf-8"?>
<!DOCTYPE svg PUBLIC "-//W3C//DTD SVG 1.1//EN" "http://www.w3.org/Graphics/SVG/1.1/DTD/svg11.dtd">
<svg width="54.375" height="54.08203125" xmlns="http://www.w3.org/2000/svg" xmlns:xlink="http://www.w3.org/1999/xlink" xmlns:xml="http://www.w3.org/XML/1998/namespace" version="1.1">
  <g>
    <g>
      <path style="fill:#FF0000;fill-opacity:1" d="M35.302734375,20.595703125L32.3876953125,21.0205078125 30.0146484375,22.0166015625 28.271484375,23.173828125 27.24609375,24.08203125 29.00390625,26.7919921875 30.46875,29.58984375 33.955078125,25.25390625 36.474609375,20.595703125 35.302734375,20.595703125z M16.435546875,20.537109375L12.275390625,22.2216796875 8.61328125,24.5947265625 6.02050733566284,27.8466796875 5.28442335128784,29.857177734375 5.03906202316284,32.16796875 5.58105516433716,35.1123046875 7.1337890625,37.3388671875 9.55078125,38.7451171875 12.685546875,39.228515625 17.0068359375,38.701171875 20.80078125,37.2802734375 24.1552734375,35.2001953125 27.158203125,32.724609375 25.0341796875,28.388671875 22.6904296875,25.078125 19.892578125,22.5439453125 16.435546875,20.537109375z M21.240234375,3.837890625L18.22265625,4.3359375 15.9375,5.7275390625 14.4873046875,7.8369140625 13.974609375,10.458984375 14.2272939682007,12.4292011260986 14.9853515625,14.12109375 17.490234375,16.5234375 20.9326171875,15.1904296875 23.876953125,13.5205078125 25.9423828125,11.337890625 26.5246562957764,10.0048828125 26.71875,8.466796875 26.279296875,6.5185546875 25.0927734375,5.0537109375 23.349609375,4.1455078125 21.240234375,3.837890625z M21.50390625,0L25.517578125,0.6005859375 28.6376953125,2.255859375 30.6591796875,4.74609375 31.376953125,7.880859375 30.673828125,11.7041015625 28.6376953125,14.58984375 25.4150390625,16.845703125 21.15234375,18.779296875 23.5400390625,20.302734375 25.576171875,22.1484375 27.01171875,20.6982421875 29.4287109375,18.8232421875 32.6513671875,17.2119140625 36.50390625,16.5234375 46.171875,16.5234375 47.8564453125,16.3037109375 49.2041015625,15.5859375 50.09765625,14.23828125 50.419921875,12.099609375 50.21484375,10.8251953125 49.7021484375,9.755859375 49.013671875,8.8623046875 48.28125,8.115234375 51.533203125,5.44921875 53.583984375,8.3203125 54.1772422790527,10.0927734375 54.375,12.12890625 53.7158203125,15.6884765625 51.8701171875,18.33984375 49.013671875,20.009765625 45.3515625,20.595703125 41.044921875,20.595703125 37.1630859375,27.509765625 32.16796875,33.515625 33.544921875,36.416015625 35.4638671875,39.8583984375 37.9541015625,43.359375 41.044921875,46.4501953125 44.7802734375,48.6474609375 46.9079551696777,49.273681640625 49.21875,49.482421875 51.4013671875,49.2919921875 53.583984375,48.75 52.587890625,53.49609375 50.390625,53.9208984375 48.22265625,54.08203125 45.655517578125,53.865966796875 43.2861328125,53.2177734375 39.140625,50.9619140625 35.7275390625,47.7978515625 32.98828125,44.1943359375 30.87890625,40.6494140625 29.35546875,37.67578125 29.0625,37.060546875 28.76953125,36.533203125 25.576171875,39.0966796875 21.826171875,41.2939453125 17.4755859375,42.8173828125 12.451171875,43.388671875 9.58740234375,43.179931640625 7.08984375,42.5537109375 3.19335889816284,40.25390625 1.80541968345642,38.6572265625 0.805663824081421,36.796875 0.201415985822678,34.716796875 0,32.4609375 0.234374970197678,29.8974609375 0.937499761581421,27.59765625 2.06542944908142,25.5322265625 3.57421875,23.671875 7.6318359375,20.537109375 12.83203125,18.076171875 11.5869140625,16.7724609375 10.458984375,15.029296875 9.638671875,12.9345703125 9.31640625,10.546875 9.561767578125,8.214111328125 10.2978515625,6.1376953125 12.94921875,2.8271484375 16.8310546875,0.732421875 21.50390625,0z" />
    </g>
  </g>
</svg>