<?xml version="1.0" encoding="utf-8"?>
<!DOCTYPE svg PUBLIC "-//W3C//DTD SVG 1.1//EN" "http://www.w3.org/Graphics/SVG/1.1/DTD/svg11.dtd">
<svg width="58.564453125" height="31.81640625" xmlns="http://www.w3.org/2000/svg" xmlns:xlink="http://www.w3.org/1999/xlink" xmlns:xml="http://www.w3.org/XML/1998/namespace" version="1.1">
  <g>
    <g>
      <path style="fill:#FF0000;fill-opacity:1" d="M49.599609375,2.666015625L44.644775390625,3.39294528961182 40.9716796875,5.57373189926147 38.580322265625,9.20837497711182 37.470703125,14.296875 39.5782470703125,13.5406494140625 41.59423828125,12.09228515625 43.5186767578125,9.9517822265625 45.3515625,7.119140625 45.849609375,6.26953125 47.5634727478027,3.99170064926147 49.599609375,2.666015625z M17.841796875,0L18.80859375,0 18.80859375,2.900390625 14.55322265625,3.88549947738647 11.279296875,6.1962890625 9.19189453125,9.613037109375 8.49609375,13.916015625 8.7158203125,16.1746215820313 9.375,18.262939453125 10.4736328125,20.1809692382813 12.01171875,21.9287109375 13.861083984375,23.3834838867188 15.8935546875,24.422607421875 18.109130859375,25.0460815429688 20.5078125,25.25390625 25.0488262176514,24.521484375 29.0625,22.32421875 30.703125,20.80810546875 31.875,19.189453125 32.578125,17.46826171875 32.8125,15.64453125 32.523193359375,13.99658203125 31.6552734375,12.626953125 30.3625469207764,11.7041015625 28.798828125,11.396484375 27.3083477020264,11.627197265625 26.2353515625,12.3193359375 25.5871562957764,13.480224609375 25.37109375,15.1171875 26.015625,17.8125 23.37890625,19.013671875 22.060546875,15.1904296875 21.62109375,12.041015625 22.181396484375,8.829345703125 23.8623046875,6.1083984375 26.3342266082764,4.25171041488647 29.267578125,3.6328125 31.201171875,3.88183736801147 32.958984375,4.62890625 34.541015625,5.88134908676147 35.947265625,7.646484375 38.140869140625,4.03564596176147 41.3232421875,1.69921875 43.3987426757813,0.955811619758606 45.948486328125,0.424806118011475 48.9724731445313,0.106202244758606 52.470703125,0 58.564453125,0 58.564453125,2.900390625 57.0959434509277,3.11279439926147 56.0302734375,3.75 55.1843223571777,4.98779439926147 54.375,7.001953125 53.90625,8.466796875 52.9888877868652,10.689697265625 51.8188438415527,12.4951171875 50.3961143493652,13.883056640625 48.720703125,14.853515625 51.7199668884277,15.860595703125 54.0380859375,17.5927734375 55.5212364196777,19.881591796875 56.015625,22.55859375 55.8270225524902,24.4784545898438 55.2612266540527,26.224365234375 54.3182334899902,27.7963256835938 52.998046875,29.1943359375 49.5776329040527,31.160888671875 45.3515625,31.81640625 42.0355224609375,31.439208984375 39.11865234375,30.3076171875 36.6009521484375,28.421630859375 34.482421875,25.78125 36.73828125,23.876953125 39.26513671875,25.87646484375 41.865234375,26.54296875 43.87939453125,26.187744140625 45.5859375,25.1220703125 46.75048828125,23.565673828125 47.138671875,21.73828125 46.834716796875,20.20751953125 45.9228515625,18.896484375 44.600830078125,17.99560546875 43.06640625,17.6953125 41.4385986328125,17.9571533203125 39.51416015625,18.74267578125 37.2930908203125,20.0518798828125 34.775390625,21.884765625 32.98828125,23.291015625 28.6871318817139,26.290283203125 24.4848613739014,28.4326171875 20.3814678192139,29.718017578125 16.376953125,30.146484375 13.0801391601563,29.864501953125 10.045166015625,29.0185546875 7.27203369140625,27.608642578125 4.7607421875,25.634765625 2.67791748046875,23.2562255859375 1.190185546875,20.63232421875 0.29754638671875,17.7630615234375 0,14.6484375 0.3076171875,11.524658203125 1.23046875,8.7158203125 2.76855492591858,6.221923828125 4.92187547683716,4.04296875 7.5750732421875,2.27417087554932 10.61279296875,1.01074361801147 14.0350341796875,0.252686619758606 17.841796875,0z" />
    </g>
  </g>
</svg>