<?xml version="1.0" encoding="utf-8"?>
<!DOCTYPE svg PUBLIC "-//W3C//DTD SVG 1.1//EN" "http://www.w3.org/Graphics/SVG/1.1/DTD/svg11.dtd">
<svg width="58.564453125" height="31.81640625" xmlns="http://www.w3.org/2000/svg" xmlns:xlink="http://www.w3.org/1999/xlink" xmlns:xml="http://www.w3.org/XML/1998/namespace" version="1.1">
  <g>
    <g>
      <path style="fill:#FF0000;fill-opacity:1" d="M8.96484375,2.666015625L11.0009765625,3.99170064926147 12.71484375,6.26953125 13.212890625,7.119140625 15.0457763671875,9.9517822265625 16.97021484375,12.09228515625 18.9862060546875,13.5406494140625 21.09375,14.296875 19.984130859375,9.20837497711182 17.5927734375,5.57373189926147 13.919677734375,3.39294528961182 8.96484375,2.666015625z M0,0L6.09375,0 9.59197902679443,0.106202244758606 12.6159658432007,0.424806118011475 15.1657094955444,0.955811619758606 17.2412109375,1.69921875 20.423583984375,4.03564596176147 22.6171875,7.646484375 24.0234355926514,5.88134908676147 25.60546875,4.62890625 27.3632793426514,3.88183736801147 29.296875,3.6328125 32.230224609375,4.25171041488647 34.7021484375,6.1083984375 36.383056640625,8.829345703125 36.943359375,12.041015625 36.50390625,15.1904296875 35.185546875,19.013671875 32.548828125,17.8125 33.193359375,15.1171875 32.977294921875,13.480224609375 32.3291015625,12.3193359375 31.256103515625,11.627197265625 29.765625,11.396484375 28.2019023895264,11.7041015625 26.9091796875,12.626953125 26.0412578582764,13.99658203125 25.751953125,15.64453125 25.9863262176514,17.46826171875 26.6894512176514,19.189453125 27.8613262176514,20.80810546875 29.501953125,22.32421875 33.515625,24.521484375 38.056640625,25.25390625 40.455322265625,25.0460815429688 42.6708984375,24.422607421875 44.703369140625,23.3834838867188 46.552734375,21.9287109375 48.0908164978027,20.1809692382813 49.1894493103027,18.262939453125 49.8486289978027,16.1746215820313 50.068359375,13.916015625 49.3725547790527,9.613037109375 47.28515625,6.1962890625 44.01123046875,3.88549947738647 39.755859375,2.900390625 39.755859375,0 40.72265625,0 44.5294151306152,0.252686619758606 47.9516563415527,1.01074361801147 50.9893760681152,2.27417087554932 53.642578125,4.04296875 55.7958946228027,6.221923828125 57.3339805603027,8.7158203125 58.2568321228027,11.524658203125 58.564453125,14.6484375 58.266902923584,17.7630615234375 57.3742637634277,20.63232421875 55.886531829834,23.2562255859375 53.8037109375,25.634765625 51.2924156188965,27.608642578125 48.5192832946777,29.0185546875 45.4843101501465,29.864501953125 42.1875,30.146484375 38.1829833984375,29.718017578125 34.07958984375,28.4326171875 29.8773193359375,26.290283203125 25.576171875,23.291015625 23.7890625,21.884765625 21.2713623046875,20.0518798828125 19.05029296875,18.74267578125 17.1258544921875,17.9571533203125 15.498046875,17.6953125 13.9636220932007,17.99560546875 12.6416015625,18.896484375 11.7297353744507,20.20751953125 11.42578125,21.73828125 11.8139638900757,23.565673828125 12.978515625,25.1220703125 14.6850576400757,26.187744140625 16.69921875,26.54296875 19.29931640625,25.87646484375 21.826171875,23.876953125 24.08203125,25.78125 21.9635009765625,28.421630859375 19.44580078125,30.3076171875 16.5289306640625,31.439208984375 13.212890625,31.81640625 8.98681640625,31.160888671875 5.56640577316284,29.1943359375 4.2462158203125,27.7963256835938 3.30322241783142,26.224365234375 2.7374267578125,24.4784545898438 2.548828125,22.55859375 3.04321265220642,19.881591796875 4.5263671875,17.5927734375 6.844482421875,15.860595703125 9.84375,14.853515625 8.1683349609375,13.883056640625 6.74560546875,12.4951171875 5.5755615234375,10.689697265625 4.65820360183716,8.466796875 4.189453125,7.001953125 3.380126953125,4.98779439926147 2.53417944908142,3.75 1.46850574016571,3.11279439926147 0,2.900390625 0,0z" />
    </g>
  </g>
</svg>