<?xml version="1.0" encoding="utf-8"?>
<!DOCTYPE svg PUBLIC "-//W3C//DTD SVG 1.1//EN" "http://www.w3.org/Graphics/SVG/1.1/DTD/svg11.dtd">
<svg width="56.748046875" height="31.81640625" xmlns="http://www.w3.org/2000/svg" xmlns:xlink="http://www.w3.org/1999/xlink" xmlns:xml="http://www.w3.org/XML/1998/namespace" version="1.1">
  <g>
    <g>
      <path style="fill:#FF0000;fill-opacity:1" d="M7.265625,11.455078125L4.96582078933716,12.0263671875 4.383544921875,12.747802734375 4.18945360183716,13.76953125 4.6728515625,15.0146484375 6.123046875,15.439453125 7.005615234375,15.24169921875 8.1298828125,14.6484375 9.495849609375,13.65966796875 11.103515625,12.275390625 9.10400390625,11.66015625 7.265625,11.455078125z M29.82421875,0L33.680419921875,0.651856899261475 36.9287109375,2.607421875 39.136962890625,5.48584127426147 39.873046875,8.90625 39.481201171875,11.00830078125 38.3056640625,12.802734375 36.595458984375,14.033203125 34.599609375,14.443359375 33.0615234375,14.1650390625 31.669921875,13.330078125 30.4248046875,11.9384765625 29.326171875,9.990234375 31.494140625,10.458984375 33.240966796875,10.20263671875 34.7314453125,9.43359375 35.753173828125,8.3056640625 36.09375,6.97265625 35.4345703125,5.09765625 33.427734375,4.482421875 31.7083740234375,4.95666599273682 29.42138671875,6.37939596176147 26.5667724609375,8.75061130523682 23.14453125,12.0703125 21.03515625,14.23828125 24.5489482879639,15.7891845703125 27.8540019989014,16.89697265625 30.9503154754639,17.5616455078125 33.837890625,17.783203125 36.6293334960938,17.589111328125 39.173583984375,17.0068359375 41.4706420898438,16.036376953125 43.5205078125,14.677734375 45.2059898376465,13.026123046875 46.4099082946777,11.1767578125 47.1322593688965,9.129638671875 47.373046875,6.884765625 46.9848594665527,4.32861471176147 45.8203125,2.2265625 50.3173789978027,2.69897603988647 53.7890625,4.1162109375 56.0082969665527,6.33178853988647 56.748046875,9.19921875 56.402889251709,11.6217041015625 55.3674278259277,13.87939453125 53.641658782959,15.9722900390625 51.2255859375,17.900390625 48.3389282226563,19.515380859375 45.201416015625,20.6689453125 41.8130493164063,21.361083984375 38.173828125,21.591796875 32.63671875,21.064453125 26.923828125,19.482421875 28.41796875,20.947265625 31.4739990234375,23.6517333984375 34.19677734375,25.58349609375 36.5863037109375,26.7425537109375 38.642578125,27.12890625 40.693359375,26.5576171875 41.3671875,24.84375 40.8984375,23.37890625 43.3850059509277,23.9520263671875 45.1611289978027,24.90966796875 46.2268028259277,26.2518310546875 46.58203125,27.978515625 46.2377891540527,29.6484375 45.205078125,30.849609375 43.4765625,31.57470703125 41.044921875,31.81640625 37.767333984375,31.2762451171875 34.2333984375,29.65576171875 30.443115234375,26.9549560546875 26.396484375,23.173828125 24.931640625,21.650390625 21.70166015625,18.5302734375 18.80859375,16.201171875 15.93017578125,18.6749267578125 13.154296875,20.44189453125 10.48095703125,21.5020751953125 7.91015625,21.85546875 4.79736280441284,21.339111328125 2.25585961341858,19.7900390625 0.56396484375,17.457275390625 0,14.58984375 0.476074159145355,12.158203125 1.90429663658142,10.13671875 4.02099609375,8.7744140625 6.5625,8.3203125 9.74853515625,8.73779296875 13.388671875,9.990234375 15.322265625,7.998046875 19.1400127410889,4.49890232086182 22.8295879364014,1.99951314926147 26.3909893035889,0.499879002571106 29.82421875,0z" />
    </g>
  </g>
</svg>