<?xml version="1.0" encoding="utf-8"?>
<!DOCTYPE svg PUBLIC "-//W3C//DTD SVG 1.1//EN" "http://www.w3.org/Graphics/SVG/1.1/DTD/svg11.dtd">
<svg width="56.4843750000001" height="46.025390625" xmlns="http://www.w3.org/2000/svg" xmlns:xlink="http://www.w3.org/1999/xlink" xmlns:xml="http://www.w3.org/XML/1998/namespace" version="1.1">
  <g>
    <g>
      <path style="fill:#FF0000;fill-opacity:1" d="M35.654296875,19.04296875L40.166015625,22.353515625 41.8359375,24.169921875 43.2861328125,26.3525390625 44.3115234375,28.916015625 44.70703125,31.845703125 44.4580078125,34.53369140625 43.7109375,36.9140625 42.5244140625,38.968505859375 40.95703125,40.6787109375 36.7822265625,43.0224609375 34.259033203125,43.626708984375 31.5234375,43.828125 27.392578125,43.5205078125 23.6279296875,42.71484375 20.2880859375,41.5576171875 17.40234375,40.224609375 11.8359375,36.62109375 14.70703125,34.365234375 19.365234375,36.62109375 21.80419921875,37.43408203125 24.66796875,38.173828125 31.435546875,38.876953125 35.2587890625,38.2177734375 37.939453125,36.5185546875 39.521484375,34.21875 40.048828125,31.7578125 39.6826171875,29.70703125 38.7158203125,27.83203125 37.3388671875,26.1767578125 35.771484375,24.755859375 31.5234375,22.001953125 35.654296875,19.04296875z M19.541015625,4.951171875L15.1318359375,5.56640625 11.572265625,7.2509765625 8.818359375,9.7412109375 6.884765625,12.7587890625 5.74218702316284,16.0693359375 5.361328125,19.39453125 5.5810546875,23.583984375 6.064453125,27.275390625 6.796875,30.87890625 13.65234375,24.7265625 17.080078125,21.85546875 20.9912109375,18.720703125 25.2978515625,15.4541015625 29.912109375,12.1875 30.76171875,11.6162109375 31.611328125,11.07421875 29.970703125,9.1259765625 27.4658203125,7.1337890625 24.0234375,5.5810546875 19.541015625,4.951171875z M19.453125,0L23.4375,0.46875 26.8359375,1.69921875 29.6337890625,3.427734375 31.875,5.419921875 33.57421875,7.3974609375 34.74609375,9.111328125 41.7626953125,5.2587890625 47.75390625,2.40234375 53.525390625,0 56.484375,5.33203125 48.57421875,8.291015625 44.9853515625,9.814453125 41.1474609375,11.5869140625 37.265625,13.5791015625 33.544921875,15.76171875 28.6486797332764,18.9587421417236 24.3896484375,21.8701171875 20.687255859375,24.525146484375 17.4609375,26.953125 14.666748046875,29.161376953125 12.2607421875,31.1572265625 8.3203125,34.599609375 8.7158203125,35.8447265625 9.2578125,37.265625 9.7265625,38.876953125 9.931640625,40.693359375 9.638671875,42.568359375 8.7158203125,44.2822265625 7.1044921875,45.5419921875 4.775390625,46.025390625 2.73925733566284,45.5712890625 1.23046875,44.35546875 0.307617425918579,42.5537109375 0,40.37109375 0.5859375,37.646484375 1.875,35.390625 3.75,33.28125 2.37304735183716,28.974609375 1.42089867591858,24.580078125 0.99609375,19.482421875 1.40625,14.912109375 2.6953125,10.4296875 5.009765625,6.357421875 8.49609375,3.046875 13.271484375,0.8203125 16.17919921875,0.205078125 19.453125,0z" />
    </g>
  </g>
</svg>