<?xml version="1.0" encoding="utf-8"?>
<!DOCTYPE svg PUBLIC "-//W3C//DTD SVG 1.1//EN" "http://www.w3.org/Graphics/SVG/1.1/DTD/svg11.dtd">
<svg width="52.4707031250003" height="31.435546875" xmlns="http://www.w3.org/2000/svg" xmlns:xlink="http://www.w3.org/1999/xlink" xmlns:xml="http://www.w3.org/XML/1998/namespace" version="1.1">
  <g>
    <g>
      <path style="fill:#FF0000;fill-opacity:1" d="M46.201171875,13.916015625L45.0769004821777,14.14306640625 43.9892578125,14.82421875 41.806640625,17.197265625 44.384765625,17.4609375 45.9997520446777,17.325439453125 47.2119140625,16.9189453125 47.9699668884277,16.307373046875 48.22265625,15.556640625 47.7392578125,14.3994140625 46.201171875,13.916015625z M16.34765625,0L18.519287109375,0.190431118011475 20.5810546875,0.76171875 24.43359375,2.783203125 27.9931640625,5.6689453125 31.3330078125,9.0380859375 34.51171875,12.509765625 37.6171875,15.673828125 37.67578125,15.703125 39.5654296875,13.6083984375 41.630859375,11.89453125 43.9306640625,10.7373046875 46.552734375,10.3125 48.92578125,10.6640625 50.80078125,11.689453125 52.03125,13.3154296875 52.470703125,15.46875 51.73828125,17.8564453125 49.8486328125,19.599609375 47.255859375,20.6689453125 44.384765625,21.03515625 41.8798828125,20.8447265625 39.580078125,20.33203125 36.7822265625,24.1845703125 33.4423828125,27.7734375 29.35546875,30.41015625 26.9677715301514,31.17919921875 24.31640625,31.435546875 20.5810546875,30.8203125 17.7392578125,29.150390625 15.9228515625,26.6748046875 15.29296875,23.61328125 15.6298828125,21.181640625 16.5380859375,19.365234375 17.841796875,18.0908203125 19.365234375,17.2705078125 20.91796875,16.845703125 22.32421875,16.728515625 23.3203125,16.7724609375 24.111328125,16.875 24.84375,16.9921875 24.84375,21.03515625 24.4921875,21.005859375 24.111328125,20.9619140625 23.642578125,20.947265625 22.646484375,21.09375 21.5185546875,21.5625 20.595703125,22.4267578125 20.21484375,23.7890625 20.5297832489014,25.39306640625 21.474609375,26.513671875 22.9467754364014,27.1728515625 24.84375,27.392578125 26.4880352020264,27.198486328125 28.0224609375,26.6162109375 30.791015625,24.5947265625 33.2373046875,21.796875 35.419921875,18.720703125 31.4794921875,16.7138671875 27.333984375,14.7216796875 22.67578125,13.1982421875 17.16796875,12.59765625 12.4951171875,13.2421875 8.5986328125,15.0732421875 5.91796875,17.9296875 5.1708984375,19.6875 4.921875,21.62109375 5.1708984375,23.2763671875 5.830078125,24.5361328125 6.7529296875,25.458984375 7.822265625,26.103515625 10.72265625,26.8359375 10.72265625,30.87890625 7.87353515625,30.47607421875 5.361328125,29.619140625 3.3837890625,28.447265625 1.669921875,26.7333984375 0.4541015625,24.3603515625 0,21.2109375 0.322265475988388,18.446044921875 1.28906202316284,15.9521484375 2.81249952316284,13.765869140625 4.8046875,11.923828125 7.218017578125,10.447998046875 10.0048828125,9.3603515625 13.077392578125,8.690185546875 16.34765625,8.466796875 19.88525390625,8.6572265625 23.056640625,9.228515625 28.623046875,11.103515625 25.6787109375,8.3935546875 22.8076171875,6.1669921875 19.98046875,4.6728515625 17.16796875,4.130859375 15.4833984375,4.306640625 14.443359375,4.74609375 13.916015625,5.302734375 13.76953125,5.859375 13.798828125,6.328125 13.88671875,6.73828125 14.00390625,7.1484375 9.697265625,8.115234375 9.404296875,7.353515625 9.2138671875,6.4306640625 9.140625,5.15625 9.609375,3.1640625 10.986328125,1.5234375 13.2421875,0.41015625 16.34765625,0z" />
    </g>
  </g>
</svg>