<?xml version="1.0" encoding="utf-8"?>
<!DOCTYPE svg PUBLIC "-//W3C//DTD SVG 1.1//EN" "http://www.w3.org/Graphics/SVG/1.1/DTD/svg11.dtd">
<svg width="23.7890625" height="56.953125" xmlns="http://www.w3.org/2000/svg" xmlns:xlink="http://www.w3.org/1999/xlink" xmlns:xml="http://www.w3.org/XML/1998/namespace" version="1.1">
  <g>
    <g>
      <path style="fill:#FF0000;fill-opacity:1" d="M12.94921875,37.998046875L12.24609375,38.14453125 12.3046855926514,38.671875 12.421875,39.66796875 12.5390625,41.19140625 12.3999004364014,43.01513671875 11.982421875,45.322265625 13.2348613739014,42.07763671875 13.65234375,39.7265625 13.65234375,38.203125 12.94921875,37.998046875z M11.630859375,33.251953125L11.630859375,34.423828125 12.12890625,34.423828125 12.12890625,33.251953125 11.630859375,33.251953125z M11.982421875,23.0859375L13.76953125,23.49609375 13.76953125,36.09375 11.8359375,35.830078125 10.107421875,35.947265625 10.107421875,23.49609375 11.982421875,23.0859375z M11.982421875,22.646484375L9.66796875,23.203125 9.66796875,36.474609375 11.806640625,36.240234375 12.7734355926514,36.3427734375 14.208984375,36.650390625 14.208984375,23.203125 11.982421875,22.646484375z M11.71875,20.361328125L13.1469707489014,20.5297870635986 15.029296875,21.03515625 15.09521484375,22.06787109375 15.1171875,22.529296875 15.1171875,36.708984375 14.4140625,41.923828125 12.36328125,48.251953125 12.71484375,48.837890625 12.099609375,48.837890625 12.099609375,56.953125 11.748046875,56.953125 11.748046875,48.837890625 11.19140625,48.837890625 11.455078125,48.251953125 9.41161918640137,42.041015625 8.73046875,36.708984375 8.73046875,22.529296875 8.73046684265137,22.03125 8.7890625,20.947265625 11.71875,20.361328125z M11.77734375,17.98828125L13.4545888900757,18.1787128448486 15.263671875,18.75 14.4140625,20.21484375 12.9638652801514,19.9072284698486 12.1875,19.8046875 9.609375,20.21484375 8.701171875,18.75 10.3491191864014,18.1787128448486 11.77734375,17.98828125z M9.931640625,4.51171875L8.56933403015137,8.14453125 8.115234375,11.953125 8.583984375,17.724609375 9.638671875,17.4609375 9.15527153015137,13.9526376724243 8.994140625,11.162109375 9.22851371765137,8.04931640625 9.931640625,4.51171875z M13.740234375,4.27734375L14.619140625,8.9794921875 14.912109375,12.421875 14.384765625,17.314453125 15.439453125,17.578125 15.908203125,11.806640625 15.3662109375,7.74169921875 13.740234375,4.27734375z M11.748046875,3.8671875L11.5429677963257,9.1278076171875 11.3964824676514,13.0737314224243 11.3085927963257,15.7049570083618 11.279296875,17.021484375 12.65625,17.021484375 12.4291973114014,10.15869140625 11.748046875,3.8671875z M10.72265625,2.548828125L9.77783012390137,7.80029296875 9.462890625,12.24609375 9.61669731140137,14.7729501724243 10.078125,17.724609375 8.291015625,18.22265625 7.85156106948853,14.9853525161743 7.705078125,12.3046875 8.4375,7.177734375 9.30175590515137,5.185546875 10.72265625,2.548828125z M12.94921875,2.43164110183716L14.53125,4.9072265625 15.46875,6.826171875 16.083984375,9.111328125 16.2890625,11.806640625 15.732421875,18.076171875 13.9453125,17.578125 14.384765625,14.7875986099243 14.53125,12.568359375 14.432373046875,10.8251953125 14.1357421875,8.5546875 13.641357421875,5.7568359375 12.94921875,2.43164110183716z M2.51953125,1.494140625L0.91552734375,2.07275390625 0.380859375,3.80859375 0.633544921875,4.9072265625 1.3916015625,5.859375 2.449951171875,6.5185546875 3.603515625,6.73828125 5.24963283538818,6.4471435546875 6.61376810073853,5.57373046875 7.69592189788818,4.1180419921875 8.49609375,2.08007764816284 7.35717678070068,3.54125952720642 6.31347513198853,4.5849609375 5.36498928070068,5.211181640625 4.51171875,5.419921875 3.10546875,5.15625 2.63671875,4.365234375 3.046875,3.4423828125 3.45703125,2.490234375 3.22265625,1.7431640625 2.51953125,1.494140625z M11.630859375,1.376953125L12.7734355926514,8.671875 13.154296875,17.431640625 10.83984375,17.431640625 10.9332265853882,14.40673828125 11.0961894989014,10.72265625 11.3287343978882,6.37939453125 11.630859375,1.376953125z M21.26953125,1.2890625L20.56640625,1.5380859375 20.33203125,2.28515672683716 20.7568359375,3.22265625 21.181640625,4.16015625 20.70556640625,4.951171875 19.27734375,5.21484375 18.4368896484375,5.006103515625 17.49755859375,4.3798828125 16.4593505859375,3.33618140220642 15.322265625,1.87499952316284 16.38427734375,3.93310546875 16.9921875,4.951171875 18.33251953125,6.02783203125 20.068359375,6.38671875 21.240234375,6.1962890625 22.294921875,5.625 23.1298828125,4.70947265625 23.408203125,3.603515625 22.87353515625,1.86767578125 21.26953125,1.2890625z M9.31640625,0.234375L8.51806449890137,3.05419921875 7.705078125,4.892578125 5.97656106948853,6.5625 3.603515625,7.119140625 2.310791015625,6.873779296875 1.1279296875,6.1376953125 0.281982421875,5.072021484375 0,3.837890625 0.6005859375,1.81640625 2.40234375,1.142578125 3.47900390625,1.4794921875 3.837890625,2.490234375 3.427734375,3.5009765625 3.017578125,4.365234375 3.39111328125,4.87060546875 4.51171875,5.0390625 5.33935546875,4.73876953125 6.416015625,3.837890625 7.74169921875,2.33642578125 9.31640625,0.234375z M14.47265625,0L16.04736328125,2.1148681640625 17.373046875,3.62548828125 18.44970703125,4.5318603515625 19.27734375,4.833984375 20.419921875,4.66552734375 20.80078125,4.16015625 20.3759765625,3.2958984375 19.951171875,2.28515672683716 20.31005859375,1.25244152545929 21.38671875,0.908203601837158 23.1884765625,1.58935546875 23.7890625,3.6328125 23.5107421875,4.866943359375 22.67578125,5.9326171875 21.49658203125,6.668701171875 20.185546875,6.9140625 17.83447265625,6.35009765625 16.11328125,4.658203125 15.29296875,2.83447265625 14.47265625,0z" />
    </g>
  </g>
</svg>