<?xml version="1.0" encoding="utf-8"?>
<!DOCTYPE svg PUBLIC "-//W3C//DTD SVG 1.1//EN" "http://www.w3.org/Graphics/SVG/1.1/DTD/svg11.dtd">
<svg width="54.814453125" height="31.728515625" xmlns="http://www.w3.org/2000/svg" xmlns:xlink="http://www.w3.org/1999/xlink" xmlns:xml="http://www.w3.org/XML/1998/namespace" version="1.1">
  <g>
    <g>
      <path style="fill:#FF0000;fill-opacity:1" d="M7.470703125,1.5234375L5.419921875,1.640625 3.51562452316284,1.962890625 8.1884765625,3.9404296875 12.71484375,6.6943359375 16.7724609375,10.1513671875 20.0390625,14.23828125 20.0390625,11.162109375 19.4970703125,7.96875 18.017578125,5.4931640625 15.849609375,3.662109375 13.212890625,2.431640625 10.341796875,1.7431640625 7.470703125,1.5234375z M5.68359375,0L10.048828125,0.2490234375 14.47265625,1.2158203125 18.4130859375,3.2080078125 20.042724609375,4.67651510238647 21.328125,6.533203125 22.4414043426514,5.23681783676147 23.7890625,4.3359375 27.451171875,3.6328125 30.6005859375,4.3798828125 33.10546875,6.4599609375 34.7900390625,9.66796875 35.5078125,13.798828125 33.33984375,13.798828125 32.63671875,10.8984375 31.259765625,8.7158203125 29.47265625,7.353515625 27.568359375,6.884765625 25.9020977020264,7.22534275054932 24.7119121551514,8.24707221984863 23.9978008270264,9.94995212554932 23.759765625,12.333984375 24.4482421875,16.0986328125 26.3232421875,19.306640625 29.0771484375,21.9140625 32.3876953125,23.84765625 35.9326171875,25.048828125 39.404296875,25.458984375 43.65234375,24.7412109375 46.9775390625,22.705078125 49.130859375,19.4970703125 49.7021446228027,17.493896484375 49.892578125,15.263671875 49.6911582946777,13.055419921875 49.0869140625,11.0009765625 46.845703125,7.5732421875 43.4326171875,5.302734375 41.363525390625,4.68750143051147 39.111328125,4.482421875 39.111328125,0.439453125 42.403564453125,0.717774868011475 45.4248046875,1.552734375 48.1091270446777,2.89306783676147 50.390625,4.6875 52.2436485290527,6.90307760238647 53.642578125,9.5068359375 54.5214805603027,12.447509765625 54.814453125,15.673828125 54.5361289978027,18.662109375 53.701171875,21.357421875 52.3754844665527,23.719482421875 50.625,25.7080078125 48.4863243103027,27.308349609375 45.99609375,28.505859375 43.22021484375,29.2529296875 40.224609375,29.501953125 36.68701171875,29.212646484375 33.515625,28.3447265625 28.06640625,25.4443359375 23.525390625,21.6796875 19.541015625,17.9150390625 15.7763671875,15.0146484375 13.875732421875,14.146728515625 11.89453125,13.857421875 9.814453125,14.1796875 8.1298828125,15.205078125 7.001953125,16.9921875 6.591796875,19.599609375 7.1337890625,23.3642578125 8.642578125,26.162109375 10.9423828125,27.9052734375 13.857421875,28.505859375 16.201171875,27.9931640625 17.900390625,26.77734375 21.005859375,29.208984375 19.716796875,30.29296875 18.017578125,31.083984375 13.974609375,31.728515625 11.5869131088257,31.519775390625 9.345703125,30.8935546875 5.5517578125,28.4765625 2.98828125,24.6240234375 2.28515625,22.203369140625 2.05078125,19.482421875 2.244873046875,17.2705078125 2.82714891433716,15.439453125 4.81933641433716,12.7880859375 7.5146484375,11.3232421875 10.4296875,10.869140625 7.1923828125,7.8662109375 3.955078125,5.859375 0.439453363418579,4.39453125 0,0.380859375 1.81640672683716,0.205078125 3.6474609375,0.0732421875 5.68359375,0z" />
    </g>
  </g>
</svg>