<?xml version="1.0" encoding="utf-8"?>
<!DOCTYPE svg PUBLIC "-//W3C//DTD SVG 1.1//EN" "http://www.w3.org/Graphics/SVG/1.1/DTD/svg11.dtd">
<svg width="56.748046875" height="31.81640625" xmlns="http://www.w3.org/2000/svg" xmlns:xlink="http://www.w3.org/1999/xlink" xmlns:xml="http://www.w3.org/XML/1998/namespace" version="1.1">
  <g>
    <g>
      <path style="fill:#FF0000;fill-opacity:1" d="M50.625,16.376953125L49.7424278259277,16.57470703125 48.6181602478027,17.16796875 47.2521934509277,18.15673828125 45.64453125,19.541015625 47.6440391540527,20.15625 49.482421875,20.361328125 50.8373985290527,20.218505859375 51.796875,19.7900390625 52.3681602478027,19.075927734375 52.55859375,18.076171875 52.0751953125,16.8017578125 50.625,16.376953125z M15.703125,0L18.980712890625,0.540162205696106 22.5146484375,2.16064596176147 26.304931640625,4.86145114898682 30.3515625,8.642578125 31.81640625,10.166015625 35.0390625,13.2861328125 37.91015625,15.615234375 40.8013916015625,13.1414794921875 43.58642578125,11.37451171875 46.2652587890625,10.3143310546875 48.837890625,9.9609375 51.9506797790527,10.48095703125 54.4921875,12.041015625 56.1840782165527,14.384765625 56.748046875,17.255859375 56.2719688415527,19.66552734375 54.84375,21.6796875 52.7270469665527,23.0419921875 50.185546875,23.49609375 46.9995079040527,23.07861328125 43.359375,21.826171875 41.42578125,23.818359375 37.5970458984375,27.3175048828125 33.90380859375,29.81689453125 30.3460693359375,31.3165283203125 26.923828125,31.81640625 23.0493144989014,31.168212890625 19.8046875,29.2236328125 17.607421875,26.348876953125 16.875,22.91015625 17.266845703125,20.826416015625 18.4423828125,19.0283203125 20.152587890625,17.786865234375 22.1484375,17.373046875 23.6755352020264,17.6513671875 25.0634746551514,18.486328125 26.3122539520264,19.8779296875 27.421875,21.826171875 25.25390625,21.38671875 23.5070781707764,21.64306640625 22.0166015625,22.412109375 20.994873046875,23.53271484375 20.654296875,24.84375 21.328125,26.7041015625 23.3203125,27.333984375 25.0396709442139,26.8597412109375 27.3266582489014,25.43701171875 30.1812725067139,23.0657958984375 33.603515625,19.74609375 35.712890625,17.578125 32.1990966796875,16.0272216796875 28.89404296875,14.91943359375 25.7977294921875,14.2547607421875 22.91015625,14.033203125 20.1187133789063,14.227294921875 17.574462890625,14.8095703125 15.2774047851563,15.780029296875 13.2275390625,17.138671875 11.5420532226563,18.7921142578125 10.338134765625,20.64697265625 9.61578369140625,22.7032470703125 9.375,24.9609375 9.76318359375,27.509765625 10.927734375,29.58984375 6.4306640625,29.12109375 2.958984375,27.71484375 0.739746034145355,25.51025390625 0,22.646484375 0.345153748989105,20.211181640625 1.38061511516571,17.9443359375 3.10638403892517,15.845947265625 5.52246046066284,13.916015625 8.40728664398193,12.301025390625 11.5393056869507,11.1474609375 14.9185171127319,10.455322265625 18.544921875,10.224609375 24.0747051239014,10.751953125 29.82421875,12.333984375 28.330078125,10.8984375 25.2630615234375,8.19397068023682 22.53662109375,6.26220846176147 20.1507568359375,5.10315036773682 18.10546875,4.716796875 16.0693359375,5.2734375 15.380859375,6.97265625 15.8203125,8.466796875 13.3465576171875,7.88269138336182 11.57958984375,6.92138814926147 10.5194091796875,5.58288669586182 10.166015625,3.8671875 10.513916015625,2.17529439926147 11.5576171875,0.966796875 13.2897939682007,0.241700649261475 15.703125,0z" />
    </g>
  </g>
</svg>