<?xml version="1.0" encoding="utf-8"?>
<!DOCTYPE svg PUBLIC "-//W3C//DTD SVG 1.1//EN" "http://www.w3.org/Graphics/SVG/1.1/DTD/svg11.dtd">
<svg width="26.71875" height="43.505859375" xmlns="http://www.w3.org/2000/svg" xmlns:xlink="http://www.w3.org/1999/xlink" xmlns:xml="http://www.w3.org/XML/1998/namespace" version="1.1">
  <g>
    <g>
      <path style="fill:#FF0000;fill-opacity:1" d="M13.564453125,9.345703125L10.8251953125,10.9423828125 7.998046875,13.564453125 11.220703125,16.845703125 9.84375,18.720703125 6.5625,15.41015625 5.537109375,18.2666015625 5.185546875,20.830078125 5.64697170257568,24.42626953125 7.03125,27.1875 10.341796875,22.91015625 11.71875,24.345703125 7.998046875,29.033203125 10.7666015625,31.36962890625 13.154296875,32.75390625 13.1396484375,32.40234375 13.125,32.05078125 13.6212158203125,28.23486328125 15.10986328125,25.048828125 17.5909423828125,22.49267578125 21.064453125,20.56640625 18.134765625,19.27734375 15.6005859375,17.255859375 13.828125,14.6923828125 13.154296875,11.806640625 13.2421875,10.546875 13.564453125,9.345703125z M26.220703125,0L26.71875,2.34375 23.9245586395264,2.99560546875 21.5771484375,3.779296875 19.6435527801514,4.7021484375 18.0908203125,5.771484375 16.0986328125,8.3642578125 15.46875,11.572265625 16.1407470703125,14.3023691177368 18.15673828125,16.6333026885986 21.5167236328125,18.5650653839111 26.220703125,20.09765625 26.220703125,21.943359375 21.529541015625,23.038330078125 18.1787109375,25.1513671875 16.168212890625,28.282470703125 15.498046875,32.431640625 16.19384765625,35.115966796875 18.28125,37.4853515625 21.7822246551514,39.539794921875 26.71875,41.279296875 26.220703125,43.505859375 22.0861797332764,42.220458984375 18.5888671875,40.4736328125 15.743408203125,38.258056640625 13.564453125,35.56640625 10.04150390625,33.53759765625 6.5625,30.908203125 1.376953125,37.001953125 0,35.09765625 5.185546875,29.033203125 3.4716796875,25.3125 2.841796875,21.416015625 3.4716796875,17.5195331573486 5.185546875,13.564453125 0,7.91015625 1.376953125,6.064453125 6.5625,11.689453125 9.7705078125,8.994140625 14.1796875,6.474609375 16.4703350067139,4.1912841796875 19.2407207489014,2.35107421875 22.4908428192139,0.9539794921875 26.220703125,0z" />
    </g>
  </g>
</svg>