<?xml version="1.0" encoding="utf-8"?>
<!DOCTYPE svg PUBLIC "-//W3C//DTD SVG 1.1//EN" "http://www.w3.org/Graphics/SVG/1.1/DTD/svg11.dtd">
<svg width="29.267578125" height="44.82421875" xmlns="http://www.w3.org/2000/svg" xmlns:xlink="http://www.w3.org/1999/xlink" xmlns:xml="http://www.w3.org/XML/1998/namespace" version="1.1">
  <g>
    <g>
      <path style="fill:#FF0000;fill-opacity:1" d="M8.173828125,21.416015625L8.173828125,27.3046875 8.48876857757568,31.57470703125 9.43359375,35.419921875 12.24609375,34.3505859375 14.3994140625,32.87109375 15.7763671875,30.9375 16.259765625,28.505859375 15.673828125,25.8837890625 14.033203125,23.8623046875 11.484375,22.3974609375 8.173828125,21.416015625z M8.173828125,11.1328125L8.173828125,19.04296875 12.568359375,20.33203125 15.8349609375,22.3388671875 17.8857421875,25.0927734375 18.603515625,28.623046875 18.0688457489014,31.768798828125 16.46484375,34.2919921875 13.87939453125,36.229248046875 10.400390625,37.6171875 11.748046875,39.635009765625 13.388671875,41.1767578125 15.322265625,42.154541015625 17.548828125,42.48046875 19.6582012176514,42.176513671875 21.533203125,41.2646484375 23.1481914520264,39.832763671875 24.4775390625,37.96875 26.2939453125,33.134765625 26.923828125,27.3046875 26.923828125,11.1328125 8.173828125,11.1328125z M5.830078125,0L8.173828125,0 8.173828125,8.7890625 26.923828125,8.7890625 26.923828125,0 29.267578125,0 29.267578125,27.3046875 29.073486328125,30.87158203125 28.4912109375,34.189453125 27.535400390625,37.174072265625 26.220703125,39.7412109375 24.5544414520264,41.8505859375 22.5439453125,43.4619140625 20.2038555145264,44.483642578125 17.548828125,44.82421875 14.512939453125,44.37744140625 11.9091796875,43.037109375 9.744873046875,40.927734375 8.02734375,38.173828125 4.2333984375,38.6572265625 0,38.818359375 0,36.474609375 7.119140625,35.947265625 6.15234375,31.85302734375 5.830078125,27.3046875 5.830078125,21.005859375 3.0029296875,20.771484375 0,20.68359375 0,18.33984375 3.0322265625,18.427734375 5.830078125,18.662109375 5.830078125,0z" />
    </g>
  </g>
</svg>