<?xml version="1.0" encoding="utf-8"?>
<!DOCTYPE svg PUBLIC "-//W3C//DTD SVG 1.1//EN" "http://www.w3.org/Graphics/SVG/1.1/DTD/svg11.dtd">
<svg width="30.791015625" height="46.435546875" xmlns="http://www.w3.org/2000/svg" xmlns:xlink="http://www.w3.org/1999/xlink" xmlns:xml="http://www.w3.org/XML/1998/namespace" version="1.1">
  <g>
    <g>
      <path style="fill:#FF0000;fill-opacity:1" d="M18.427734375,0L19.013671875,0 30.791015625,6.943359375 29.6484375,8.96484375 20.771484375,3.779296875 20.771484375,46.435546875 20.185546875,46.435546875 7.734375,38.935546875 8.90625,37.03125 18.427734375,42.744140625 18.427734375,21.03515625 7.96875,21.03515625 9.6221923828125,22.613525390625 10.80322265625,24.2724609375 11.5118408203125,26.011962890625 11.748046875,27.83203125 11.0302734375,31.04736328125 8.876953125,33.486328125 7.2454833984375,34.4146728515625 5.22216796875,35.14892578125 2.8070068359375,35.6890869140625 0,36.03515625 0,33.69140625 3.544921875,33.046875 6.5478515625,31.9482421875 8.6279296875,30.2197265625 9.21020412445068,29.073486328125 9.404296875,27.71484375 8.9794921875,25.6787109375 7.763671875,23.642578125 5.830078125,21.8994140625 3.28125,20.7421875 3.28125,18.984375 5.599365234375,17.8637714385986 7.3974609375,16.494140625 8.55102443695068,14.8168964385986 8.935546875,12.7734375 8.4375,10.25390625 6.8701171875,8.3203125 4.1015625,6.943359375 0,6.03515625 0.468750476837158,3.69140625 5.244140625,4.764404296875 8.61328125,6.6357421875 10.61279296875,9.320068359375 11.279296875,12.83203125 11.0009765625,14.8388671875 10.2685546875,16.4501953125 9.2138671875,17.724609375 7.96875,18.69140625 18.427734375,18.69140625 18.427734375,0z" />
    </g>
  </g>
</svg>