<?xml version="1.0" encoding="utf-8"?>
<!DOCTYPE svg PUBLIC "-//W3C//DTD SVG 1.1//EN" "http://www.w3.org/Graphics/SVG/1.1/DTD/svg11.dtd">
<svg width="30.41015625" height="44.82421875" xmlns="http://www.w3.org/2000/svg" xmlns:xlink="http://www.w3.org/1999/xlink" xmlns:xml="http://www.w3.org/XML/1998/namespace" version="1.1">
  <g>
    <g>
      <path style="fill:#FF0000;fill-opacity:1" d="M0,29.736328125L2.34375,29.736328125 2.79785132408142,32.845458984375 3.28125,35.4931640625 3.819580078125,37.694091796875 4.4384765625,39.462890625 5.159912109375,40.810546875 6.005859375,41.748046875 8.203125,42.48046875 10.283203125,41.77734375 11.173095703125,40.865478515625 11.9677734375,39.5361328125 12.66357421875,37.7783203125 13.2568359375,35.5810546875 13.751220703125,32.911376953125 14.150390625,29.736328125 16.376953125,29.736328125 16.7578125,32.728271484375 17.197265625,35.3173828125 17.728271484375,37.50732421875 18.3837890625,39.3017578125 19.1857891082764,40.697021484375 20.15625,41.689453125 21.3281230926514,42.28271484375 22.734375,42.48046875 23.8366680145264,42.216796875 24.7998046875,41.42578125 26.337890625,38.5986328125 27.4072265625,34.5263671875 28.06640625,29.736328125 30.41015625,29.736328125 29.501953125,35.7861328125 28.861083984375,38.3642578125 28.0517578125,40.5615234375 27.041015625,42.3486328125 25.7958984375,43.6962890625 24.2761211395264,44.542236328125 22.44140625,44.82421875 19.9951152801514,44.35546875 17.98828125,42.94921875 16.376953125,40.49560546875 15.1171875,36.884765625 13.9599609375,40.48828125 12.3193359375,42.94921875 10.3271484375,44.3701171875 8.115234375,44.82421875 6.478271484375,44.6337890625 5.0830078125,44.0625 3.892822265625,43.0517578125 2.87109375,41.54296875 1.99951136112213,39.503173828125 1.259765625,36.8994140625 0.60791015625,33.665771484375 0,29.736328125z M24.4921875,0L26.8359375,0 26.8359375,25.634765625 24.4921875,25.634765625 24.4921875,13.41796875 6.26953125,13.41796875 6.26953125,25.634765625 3.92578125,25.634765625 3.92578125,0.029296875 6.26953125,0.029296875 6.26953125,11.07421875 24.4921875,11.07421875 24.4921875,0z" />
    </g>
  </g>
</svg>