<?xml version="1.0" encoding="utf-8"?>
<!DOCTYPE svg PUBLIC "-//W3C//DTD SVG 1.1//EN" "http://www.w3.org/Graphics/SVG/1.1/DTD/svg11.dtd">
<svg width="24.84375" height="51.2109375" xmlns="http://www.w3.org/2000/svg" xmlns:xlink="http://www.w3.org/1999/xlink" xmlns:xml="http://www.w3.org/XML/1998/namespace" version="1.1">
  <g>
    <g>
      <path style="fill:#FF0000;fill-opacity:1" d="M6.15234375,17.841796875L17.28515625,17.841796875 17.28515625,20.185546875 12.890625,20.185546875 12.890625,31.904296875 17.28515625,31.904296875 17.28515625,34.248046875 6.15234375,34.248046875 6.15234375,31.904296875 10.546875,31.904296875 10.546875,20.185546875 6.15234375,20.185546875 6.15234375,17.841796875z M14.1796875,6.38671875L18.57421875,7.1044921875 20.3942852020264,8.016357421875 21.9287109375,9.31640625 23.1628398895264,11.019287109375 24.08203125,13.1396484375 24.6533203125,15.692138671875 24.84375,18.69140625 24.84375,41.54296875 24.598388671875,43.553466796875 23.8623046875,44.9560546875 22.6721172332764,45.780029296875 21.064453125,46.0546875 20.302734375,46.025390625 19.62890625,45.8935546875 18.7939453125,45.5859375 17.578125,45.05859375 5.654296875,39.755859375 5.654296875,51.2109375 3.310546875,51.2109375 3.310546875,36.328125 3.896484375,36.328125 18.310546875,42.861328125 19.5263671875,43.359375 20.595703125,43.59375 22.0166015625,43.0224609375 22.3498516082764,42.242431640625 22.5,41.044921875 22.5,18.69140625 22.03125,14.7216796875 20.5517578125,11.5576171875 17.9736328125,9.4775390625 14.1796875,8.73046875 10.60546875,9.228515625 7.412109375,10.7666015625 4.482421875,13.4033203125 1.69921875,17.197265625 0,15.8203125 2.7392578125,11.8798828125 6.03515625,8.9208984375 9.8583984375,7.04589891433716 14.1796875,6.38671875z M12.12890625,0L15.9887676239014,0.659182548522949 19.833984375,2.63671875 18.955078125,4.62890625 15.5419921875,2.87109351158142 12.12890625,2.34375 8.935546875,2.87109351158142 5.771484375,4.62890625 4.892578125,2.63671875 8.57666015625,0.659182548522949 12.12890625,0z" />
    </g>
  </g>
</svg>