<?xml version="1.0" encoding="utf-8"?>
<!DOCTYPE svg PUBLIC "-//W3C//DTD SVG 1.1//EN" "http://www.w3.org/Graphics/SVG/1.1/DTD/svg11.dtd">
<svg width="31.4062500000013" height="44.82421875" xmlns="http://www.w3.org/2000/svg" xmlns:xlink="http://www.w3.org/1999/xlink" xmlns:xml="http://www.w3.org/XML/1998/namespace" version="1.1">
  <g>
    <g>
      <path style="fill:#FF0000;fill-opacity:1" d="M5.94726514816284,4.04296875L4.29199171066284,4.4970703125 3.17871046066284,5.6982421875 2.54882764816284,7.412109375 2.34374952316284,9.404296875 2.54882764816284,11.396484375 3.17871046066284,13.1103515625 4.29199171066284,14.3115234375 5.94726514816284,14.765625 7.60253858566284,14.3115234375 8.7158203125,13.1103515625 9.345703125,11.4111328125 9.55078125,9.43359375 9.345703125,7.4267578125 8.7158203125,5.6982421875 7.60253858566284,4.4970703125 5.94726514816284,4.04296875z M5.94726514816284,1.69921875L8.525390625,2.3583984375 10.3857421875,4.1015625 11.513671875,6.5771484375 11.89453125,9.43359375 11.513671875,12.24609375 10.3857421875,14.70703125 8.525390625,16.4501953125 5.94726514816284,17.109375 3.36914014816284,16.4501953125 1.50878858566284,14.7216796875 0.380859375,12.2607421875 0,9.404296875 0.380859375,6.5478515625 1.50878858566284,4.0869140625 3.36914014816284,2.3583984375 5.94726514816284,1.69921875z M15.205078125,0L15.791015625,0 31.40625,9.228515625 30.234375,11.337890625 17.548828125,3.603515625 17.548828125,21.4453125 29.853515625,21.4453125 29.853515625,23.7890625 17.548828125,23.7890625 17.548828125,32.021484375 29.853515625,32.021484375 29.853515625,34.365234375 17.548828125,34.365234375 17.548828125,44.82421875 15.205078125,44.82421875 15.205078125,34.365234375 2.90039014816284,34.365234375 2.90039014816284,32.021484375 15.205078125,32.021484375 15.205078125,23.7890625 2.90039014816284,23.7890625 2.90039014816284,21.4453125 15.205078125,21.4453125 15.205078125,0z" />
    </g>
  </g>
</svg>