<?xml version="1.0" encoding="utf-8"?>
<!DOCTYPE svg PUBLIC "-//W3C//DTD SVG 1.1//EN" "http://www.w3.org/Graphics/SVG/1.1/DTD/svg11.dtd">
<svg width="28.6230468750017" height="52.822265625" xmlns="http://www.w3.org/2000/svg" xmlns:xlink="http://www.w3.org/1999/xlink" xmlns:xml="http://www.w3.org/XML/1998/namespace" version="1.1">
  <g>
    <g>
      <path style="fill:#FF0000;fill-opacity:1" d="M1.875,28.740234375L4.21875,28.740234375 4.21875,45.146484375 1.875,45.146484375 1.875,28.740234375z M6.474609375,8.73046875L4.482421875,9.140625 3.2080078125,10.2099609375 2.5341796875,11.71875 2.34375,13.41796875 2.724609375,15.322265625 3.9404296875,17.080078125 6.1083984375,18.369140625 9.345703125,18.8671875 10.48828125,18.80859375 11.748046875,18.515625 11.6162109375,15.2783203125 10.95703125,12.1142578125 9.375,9.697265625 8.12255764007568,8.97216796875 6.474609375,8.73046875z M22.119140625,5.888671875L24.43359375,6.38671922683716 22.91015625,11.42578125 20.33203125,15.5419921875 17.2265625,18.5888671875 14.091796875,20.419921875 14.091796875,28.65234375 24.140625,28.65234375 24.140625,30.99609375 14.091796875,30.99609375 14.091796875,36.4453125 24.140625,36.4453125 24.140625,38.7890625 14.091796875,38.7890625 14.091796875,42.861328125 14.432373046875,46.26708984375 15.4541015625,48.6328125 17.164306640625,50.01708984375 19.5703125,50.478515625 21.8408203125,49.9951171875 23.759765625,48.603515625 25.37109375,46.40625 26.748046875,43.53515625 28.623046875,44.970703125 26.75537109375,48.33251953125 24.66796875,50.80078125 22.2949199676514,52.31689453125 19.5703125,52.822265625 15.9228515625,52.20703125 13.505859375,50.361328125 12.158203125,47.255859375 11.748046875,42.861328125 11.748046875,20.9765625 10.83984375,21.181640625 9.931640625,21.240234375 9.345703125,21.2255859375 8.759765625,21.2109375 5.009765625,20.654296875 2.255859375,19.072265625 0.5712890625,16.611328125 0,13.41796875 0.3076171875,11.162109375 1.3623046875,8.876953125 3.3544921875,7.1044921875 6.474609375,6.38671922683716 9.4482421875,6.8994140625 11.54296875,8.2763671875 12.890625,10.283203125 13.65234375,12.6708984375 14.00390625,15.1904296875 14.091796875,17.607421875 16.142578125,16.376953125 18.515625,13.9453125 20.68359375,10.4150390625 22.119140625,5.888671875z M14.0625,0L17.9223613739014,0.659182548522949 21.767578125,2.63671875 20.888671875,4.62890672683716 17.4755859375,2.87109351158142 14.0625,2.34374976158142 10.869140625,2.87109351158142 7.705078125,4.62890672683716 6.826171875,2.63671875 10.51025390625,0.659182548522949 14.0625,0z" />
    </g>
  </g>
</svg>