<?xml version="1.0" encoding="utf-8"?>
<!DOCTYPE svg PUBLIC "-//W3C//DTD SVG 1.1//EN" "http://www.w3.org/Graphics/SVG/1.1/DTD/svg11.dtd">
<svg width="29.0039062500006" height="46.435546875" xmlns="http://www.w3.org/2000/svg" xmlns:xlink="http://www.w3.org/1999/xlink" xmlns:xml="http://www.w3.org/XML/1998/namespace" version="1.1">
  <g>
    <g>
      <path style="fill:#FF0000;fill-opacity:1" d="M14.501953125,30.908203125L9.375,31.46484375 5.56640625,32.9296875 3.1787109375,35.0390625 2.552490234375,36.2548828125 2.34375,37.5 2.552490234375,38.763427734375 3.1787109375,39.9755859375 5.56640625,42.0703125 9.375,43.53515625 14.501953125,44.091796875 19.6142578125,43.53515625 23.4375,42.0556640625 25.8251953125,39.9609375 26.451416015625,38.76708984375 26.66015625,37.529296875 26.451416015625,36.2841796875 25.8251953125,35.068359375 23.4375,32.9443359375 19.6142578125,31.46484375 14.501953125,30.908203125z M14.501953125,2.34375L9.375,2.900390625 5.56640625,4.365234375 3.1787109375,6.474609375 2.552490234375,7.6904296875 2.34375,8.935546875 2.552490234375,10.198974609375 3.1787109375,11.4111328125 5.56640625,13.505859375 9.375,14.970703125 14.501953125,15.52734375 19.6142578125,14.970703125 23.4375,13.4912109375 25.8251953125,11.396484375 26.451416015625,10.20263671875 26.66015625,8.96484375 26.451416015625,7.7197265625 25.8251953125,6.50390625 23.4375,4.3798828125 19.6142578125,2.900390625 14.501953125,2.34375z M14.501953125,0L20.537109375,0.703124523162842 23.0273418426514,1.53076171875 25.107421875,2.607421875 26.766357421875,3.91845703125 27.9931640625,5.44921875 28.751220703125,7.1484375 29.00390625,8.96484375 28.773193359375,10.71533203125 28.0810546875,12.333984375 26.956787109375,13.7951679229736 25.4296875,15.0732421875 21.2255859375,16.9921875 15.673828125,17.841796875 15.673828125,22.060546875 27.392578125,22.060546875 27.392578125,24.404296875 15.673828125,24.404296875 15.673828125,28.59375 21.2255859375,29.47265625 25.4296875,31.40625 26.956787109375,32.698974609375 28.0810546875,34.1748046875 28.773193359375,35.797119140625 29.00390625,37.529296875 28.751220703125,39.342041015625 27.9931640625,41.0302734375 26.766357421875,42.550048828125 25.107421875,43.857421875 23.0273418426514,44.930419921875 20.537109375,45.7470703125 14.501953125,46.435546875 8.466796875,45.7470703125 5.9765625,44.9267578125 3.896484375,43.8427734375 2.23754858970642,42.5244140625 1.01074171066284,41.0009765625 0.252685129642487,39.312744140625 0,37.5 0.230712592601776,35.767822265625 0.922852039337158,34.1455078125 2.047119140625,32.669677734375 3.57421875,31.376953125 7.763671875,29.443359375 13.330078125,28.59375 13.330078125,24.404296875 1.611328125,24.404296875 1.611328125,22.060546875 13.330078125,22.060546875 13.330078125,17.841796875 7.763671875,16.9921875 3.57421875,15.0732421875 2.047119140625,13.7915058135986 0.922852039337158,12.3193359375 0.230712592601776,10.689697265625 0,8.935546875 0.252685129642487,7.122802734375 1.01074171066284,5.4345703125 2.23754858970642,3.9111328125 3.896484375,2.5927734375 5.9765625,1.5087890625 8.466796875,0.688476085662842 14.501953125,0z" />
    </g>
  </g>
</svg>