<?xml version="1.0" encoding="utf-8"?>
<!DOCTYPE svg PUBLIC "-//W3C//DTD SVG 1.1//EN" "http://www.w3.org/Graphics/SVG/1.1/DTD/svg11.dtd">
<svg width="29.677734375" height="51.2109375" xmlns="http://www.w3.org/2000/svg" xmlns:xlink="http://www.w3.org/1999/xlink" xmlns:xml="http://www.w3.org/XML/1998/namespace" version="1.1">
  <g>
    <g>
      <path style="fill:#FF0000;fill-opacity:1" d="M13.4765625,39.4921875L15.8203125,39.4921875 15.8203125,51.2109375 13.4765625,51.2109375 13.4765625,39.4921875z M6.240234375,10.341796875L14.82421875,24.0234375 23.408203125,10.341796875 6.240234375,10.341796875z M2.05078125,7.998046875L27.59765625,7.998046875 16.904296875,25.01953125 29.677734375,25.01953125 29.677734375,27.36328125 16.904296875,27.36328125 29.384765625,47.255859375 27.5390625,48.6328125 14.82421875,28.359375 2.10937452316284,48.6328125 0.263671875,47.255859375 12.71484375,27.36328125 0,27.36328125 0,25.01953125 12.71484375,25.01953125 2.05078125,7.998046875z M14.384765625,0L18.2446269989014,0.659182548522949 22.08984375,2.63671875 21.2109375,4.62890625 17.7978515625,2.87109351158142 14.384765625,2.34375 11.19140625,2.87109351158142 8.02734375,4.62890625 7.1484375,2.63671875 10.83251953125,0.659182548522949 14.384765625,0z" />
    </g>
  </g>
</svg>