<?xml version="1.0" encoding="utf-8"?>
<!DOCTYPE svg PUBLIC "-//W3C//DTD SVG 1.1//EN" "http://www.w3.org/Graphics/SVG/1.1/DTD/svg11.dtd">
<svg width="30.703125" height="52.822265625" xmlns="http://www.w3.org/2000/svg" xmlns:xlink="http://www.w3.org/1999/xlink" xmlns:xml="http://www.w3.org/XML/1998/namespace" version="1.1">
  <g>
    <g>
      <path style="fill:#FF0000;fill-opacity:1" d="M29.736328125,6.38671922683716L30.703125,8.73046875 26.1181640625,12.216796875 22.32421875,16.3623046875 19.51171875,21.0205078125 17.87109375,26.044921875 25.634765625,32.783203125 25.634765625,20.537109375 27.978515625,20.537109375 27.978515625,37.412109375 27.392578125,37.412109375 17.548828125,28.916015625 17.548828125,29.560546875 17.794189453125,32.611083984375 18.5302734375,35.6103515625 19.7021465301514,38.51806640625 21.2548828125,41.2939453125 25.4150390625,46.34765625 30.703125,50.478515625 29.736328125,52.822265625 23.818359375,48.10546875 19.2333984375,42.421875 17.530517578125,39.345703125 16.259765625,36.15234375 15.46875,32.900390625 15.205078125,29.6484375 15.380859375,27.01171875 8.876953125,21.38671875 8.876953125,52.822265625 8.291015625,52.822265625 0,44.853515625 1.37695264816284,42.978515625 6.533203125,48.1640625 6.533203125,16.904296875 7.177734375,16.69921875 15.908203125,24.31640625 17.8564453125,19.2333984375 20.9033203125,14.4140625 24.90234375,10.0634765625 29.736328125,6.38671922683716z M15.703125,0L19.5629863739014,0.659182548522949 23.408203125,2.63671875 22.529296875,4.62890672683716 19.1162109375,2.87109351158142 15.703125,2.34374976158142 12.509765625,2.87109351158142 9.345703125,4.62890672683716 8.466796875,2.63671875 12.15087890625,0.659182548522949 15.703125,0z" />
    </g>
  </g>
</svg>