<?xml version="1.0" encoding="utf-8"?>
<!DOCTYPE svg PUBLIC "-//W3C//DTD SVG 1.1//EN" "http://www.w3.org/Graphics/SVG/1.1/DTD/svg11.dtd">
<svg width="30.0292968750006" height="44.82421875" xmlns="http://www.w3.org/2000/svg" xmlns:xlink="http://www.w3.org/1999/xlink" xmlns:xml="http://www.w3.org/XML/1998/namespace" version="1.1">
  <g>
    <g>
      <path style="fill:#FF0000;fill-opacity:1" d="M13.916015625,2.34375L11.224365234375,2.55615234375 8.8916015625,3.193359375 5.2734375,5.4345703125 3.076171875,8.583984375 2.34375,12.158203125 3.076171875,15.7470703125 5.2734375,18.896484375 8.8916015625,21.123046875 11.224365234375,21.76025390625 13.916015625,21.97265625 16.58935546875,21.76025390625 18.92578125,21.123046875 22.55859375,18.8818359375 24.755859375,15.7470703125 25.48828125,12.1875 24.755859375,8.5986328125 22.55859375,5.4345703125 18.92578125,3.193359375 16.58935546875,2.55615234375 13.916015625,2.34375z M13.916015625,0L17.069091796875,0.2490234375 19.8486328125,0.99609375 22.2363262176514,2.16064453125 24.2138671875,3.662109375 25.77392578125,5.467529296875 26.9091796875,7.5439453125 27.601318359375,9.810791015625 27.83203125,12.1875 27.61962890625,14.4726581573486 26.982421875,16.640625 25.938720703125,18.6364765167236 24.5068359375,20.4052734375 22.6904277801514,21.903076171875 20.4931640625,23.0859375 17.9333477020264,23.89892578125 15.029296875,24.287109375 15.029296875,30.439453125 29.0625,30.439453125 29.0625,32.783203125 15.029296875,32.783203125 15.029296875,39.43359375 15.252685546875,40.810546875 15.8056640625,41.77734375 16.717529296875,42.36328125 18.017578125,42.59765625 30.029296875,42.59765625 30.029296875,44.82421875 17.490234375,44.82421875 15.421142578125,44.4580078125 13.9306640625,43.447265625 13.018798828125,41.7919921875 12.685546875,39.4921875 12.685546875,24.287109375 9.788818359375,23.8916015625 7.2509765625,23.056640625 3.28125,20.361328125 1.86401343345642,18.5998554229736 0.8349609375,16.5966796875 0.208739876747131,14.4250507354736 0,12.158203125 0.230712532997131,9.78515625 0.9228515625,7.529296875 2.05810546875,5.4638671875 3.6181640625,3.662109375 5.595703125,2.16064453125 7.9833984375,0.99609375 10.762939453125,0.2490234375 13.916015625,0z" />
    </g>
  </g>
</svg>