<?xml version="1.0" encoding="utf-8"?>
<!DOCTYPE svg PUBLIC "-//W3C//DTD SVG 1.1//EN" "http://www.w3.org/Graphics/SVG/1.1/DTD/svg11.dtd">
<svg width="28.9453125" height="51.2109375" xmlns="http://www.w3.org/2000/svg" xmlns:xlink="http://www.w3.org/1999/xlink" xmlns:xml="http://www.w3.org/XML/1998/namespace" version="1.1">
  <g>
    <g>
      <path style="fill:#FF0000;fill-opacity:1" d="M13.30078125,7.998046875L15.64453125,7.998046875 15.64453125,27.041015625 27.3046875,15.205078125 28.916015625,16.904296875 16.11328125,29.912109375 28.9453125,42.919921875 27.333984375,44.619140625 15.64453125,32.75390625 15.64453125,51.2109375 13.30078125,51.2109375 13.30078125,32.75390625 1.611328125,44.619140625 0,42.919921875 12.83203125,29.912109375 0.0292973518371582,16.904296875 1.64062547683716,15.205078125 13.30078125,27.041015625 13.30078125,7.998046875z M14.23828125,0L18.0981426239014,0.659182548522949 21.943359375,2.63671875 21.064453125,4.62890625 17.6513671875,2.87109351158142 14.23828125,2.34375 11.044921875,2.87109351158142 7.88085985183716,4.62890625 7.00195360183716,2.63671875 10.68603515625,0.659182548522949 14.23828125,0z" />
    </g>
  </g>
</svg>