<?xml version="1.0" encoding="utf-8"?>
<!DOCTYPE svg PUBLIC "-//W3C//DTD SVG 1.1//EN" "http://www.w3.org/Graphics/SVG/1.1/DTD/svg11.dtd">
<svg width="30.41015625" height="52.822265625" xmlns="http://www.w3.org/2000/svg" xmlns:xlink="http://www.w3.org/1999/xlink" xmlns:xml="http://www.w3.org/XML/1998/namespace" version="1.1">
  <g>
    <g>
      <path style="fill:#FF0000;fill-opacity:1" d="M21.5625,32.8125L23.90625,32.8125 23.90625,41.6015625 21.5625,41.6015625 21.5625,32.8125z M7.03125047683716,32.8125L9.375,32.8125 9.375,41.6015625 7.03125047683716,41.6015625 7.03125047683716,32.8125z M16.494140625,19.716796875L16.494140625,28.330078125 20.478515625,27.3779296875 23.2470703125,25.4150390625 24.931640625,22.7490234375 25.6640625,19.716796875 16.494140625,19.716796875z M4.98046922683716,19.716796875L5.71289110183716,22.7783203125 7.39746141433716,25.4443359375 10.166015625,27.392578125 14.150390625,28.330078125 14.150390625,19.716796875 4.98046922683716,19.716796875z M16.494140625,8.7890625L16.494140625,17.373046875 25.6640625,17.373046875 24.931640625,14.326171875 23.232421875,11.6748046875 20.4638671875,9.7265625 16.494140625,8.7890625z M14.150390625,8.759765625L10.166015625,9.7119140625 7.39746141433716,11.66015625 5.71289110183716,14.3115234375 4.98046922683716,17.373046875 14.150390625,17.373046875 14.150390625,8.759765625z M15.322265625,6.38671922683716L18.431396484375,6.6357421875 21.0791015625,7.3828125 23.2800273895264,8.54736328125 25.048828125,10.048828125 26.396484375,11.854248046875 27.333984375,13.9306640625 28.06640625,18.57421875 27.392578125,22.998046875 25.3125,26.7626953125 23.7084941864014,28.26416015625 21.708984375,29.4580078125 19.3066387176514,30.281982421875 16.494140625,30.673828125 16.46484375,38.671875 17.2998046875,43.8427734375 18.5009765625,47.5341796875 20.244140625,49.74609375 22.734375,50.478515625 23.8366680145264,50.21484375 24.7998046875,49.423828125 26.337890625,46.5966796875 27.4072265625,42.5244140625 28.06640625,37.734375 30.41015625,37.734375 29.501953125,43.7841796875 28.861083984375,46.3623046875 28.0517578125,48.5595703125 27.041015625,50.3466796875 25.7958984375,51.6943359375 24.2761211395264,52.540283203125 22.44140625,52.822265625 19.9951152801514,52.353515625 17.98828125,50.947265625 16.376953125,48.49365234375 15.1171875,44.8828125 13.9599609375,48.486328125 12.3193359375,50.947265625 10.3271484375,52.3681640625 8.115234375,52.822265625 6.47827196121216,52.6318359375 5.08300828933716,52.060546875 3.89282274246216,51.0498046875 2.87109422683716,49.541015625 1.99951183795929,47.501220703125 1.25976610183716,44.8974609375 0.607910573482513,41.663818359375 0,37.734375 2.34375047683716,37.734375 2.79785180091858,40.843505859375 3.28125047683716,43.4912109375 3.81958055496216,45.692138671875 4.43847703933716,47.4609375 5.15991258621216,48.80859375 6.00585985183716,49.74609375 8.203125,50.478515625 10.283203125,49.775390625 11.173095703125,48.863525390625 11.9677734375,47.5341796875 12.66357421875,45.7763671875 13.2568359375,43.5791015625 13.751220703125,40.909423828125 14.150390625,37.734375 14.150390625,30.673828125 11.319580078125,30.2783203125 8.9208984375,29.443359375 6.93237257003784,28.2421875 5.33203172683716,26.748046875 3.25195360183716,22.9833984375 2.57812547683716,18.544921875 3.31054735183716,13.916015625 4.24804735183716,11.8505859375 5.59570360183716,10.048828125 7.36450147628784,8.54736328125 9.5654296875,7.3828125 12.213134765625,6.6357421875 15.322265625,6.38671922683716z M14.970703125,0L18.8305644989014,0.659182548522949 22.67578125,2.63671875 21.796875,4.62890672683716 18.3837890625,2.87109351158142 14.970703125,2.34374976158142 11.77734375,2.87109351158142 8.61328125,4.62890672683716 7.73437547683716,2.63671875 11.41845703125,0.659182548522949 14.970703125,0z" />
    </g>
  </g>
</svg>