<?xml version="1.0" encoding="utf-8"?>
<!DOCTYPE svg PUBLIC "-//W3C//DTD SVG 1.1//EN" "http://www.w3.org/Graphics/SVG/1.1/DTD/svg11.dtd">
<svg width="25.9570312500016" height="44.82421875" xmlns="http://www.w3.org/2000/svg" xmlns:xlink="http://www.w3.org/1999/xlink" xmlns:xml="http://www.w3.org/XML/1998/namespace" version="1.1">
  <g>
    <g>
      <path style="fill:#FF0000;fill-opacity:1" d="M0,0L2.34375,0 2.34375,28.18359375 2.5048828125,33.8818359375 3.310546875,38.408203125 4.1162109375,40.107421875 5.244140625,41.396484375 6.77490139007568,42.20947265625 8.7890625,42.48046875 10.78125,42.20947265625 12.3046875,41.396484375 13.436279296875,40.107421875 14.2529296875,38.408203125 15.0732421875,33.8818359375 15.234375,28.18359375 15.234375,0 17.578125,0 17.578125,17.080078125 23.61328125,17.080078125 23.61328125,4.39453125 25.95703125,4.39453125 25.95703125,38.818359375 23.61328125,38.818359375 23.61328125,19.423828125 17.578125,19.423828125 17.578125,28.18359375 17.255859375,34.9365234375 16.7761211395264,37.781982421875 15.9814453125,40.1953125 14.8388671875,42.147216796875 13.3154296875,43.6083984375 11.326904296875,44.520263671875 8.7890625,44.82421875 6.26953029632568,44.520263671875 4.27734375,43.6083984375 2.742919921875,42.147216796875 1.5966796875,40.1953125 0.802001953125,37.781982421875 0.322265625,34.9365234375 0,28.18359375 0,0z" />
    </g>
  </g>
</svg>