<?xml version="1.0" encoding="utf-8"?>
<!DOCTYPE svg PUBLIC "-//W3C//DTD SVG 1.1//EN" "http://www.w3.org/Graphics/SVG/1.1/DTD/svg11.dtd">
<svg width="30.41015625" height="46.611328125" xmlns="http://www.w3.org/2000/svg" xmlns:xlink="http://www.w3.org/1999/xlink" xmlns:xml="http://www.w3.org/XML/1998/namespace" version="1.1">
  <g>
    <g>
      <path style="fill:#FF0000;fill-opacity:1" d="M5.859375,22.998046875L7.119140625,26.0302734375 9.0380859375,28.505859375 11.6748046875,30.1611328125 15.1171875,30.76171875 18.544921875,30.146484375 21.1669921875,28.4765625 23.0712890625,26.015625 24.345703125,22.998046875 5.859375,22.998046875z M5.33203125,12.451171875L5.0830078125,14.501953125 5.009765625,16.552734375 5.0830078125,18.603515625 5.33203125,20.654296875 24.873046875,20.654296875 25.224609375,16.58203125 24.873046875,12.451171875 5.33203125,12.451171875z M15.1171875,2.34375L11.6748046875,2.958984375 9.0380859375,4.62890625 7.119140625,7.08984375 5.859375,10.107421875 24.345703125,10.107421875 23.0712890625,7.08984375 21.1669921875,4.62890625 18.544921875,2.958984375 15.1171875,2.34375z M15.1171875,0L18.21533203125,0.35888671875 20.830078125,1.435546875 22.9833965301514,3.094482421875 24.697265625,5.2001953125 25.9899883270264,7.694091796875 26.8798828125,10.517578125 27.568359375,16.58203125 26.953125,22.32421875 25.01953125,27.421875 23.5070781707764,29.512939453125 21.6064453125,31.2158203125 19.2956523895264,32.427978515625 16.552734375,33.046875 17.373046875,37.9541015625 18.5595703125,41.455078125 20.2880859375,43.564453125 22.734375,44.267578125 23.8366680145264,44.00390625 24.7998046875,43.212890625 26.337890625,40.3857421875 27.4072265625,36.3134765625 28.06640625,31.5234375 30.41015625,31.5234375 29.501953125,37.5732421875 28.861083984375,40.1513671875 28.0517578125,42.3486328125 27.041015625,44.1357421875 25.7958984375,45.4833984375 24.2761211395264,46.329345703125 22.44140625,46.611328125 19.9951152801514,46.142578125 17.98828125,44.736328125 16.376953125,42.28271484375 15.1171875,38.671875 13.9599609375,42.275390625 12.3193359375,44.736328125 10.3271484375,46.1572265625 8.115234375,46.611328125 6.478271484375,46.4208984375 5.0830078125,45.849609375 3.892822265625,44.8388671875 2.87109375,43.330078125 1.99951136112213,41.290283203125 1.259765625,38.6865234375 0.60791015625,35.452880859375 0,31.5234375 2.34374952316284,31.5234375 2.79785132408142,34.632568359375 3.28125,37.2802734375 3.819580078125,39.481201171875 4.4384765625,41.25 5.159912109375,42.59765625 6.005859375,43.53515625 8.203125,44.267578125 10.1513671875,43.6376953125 11.77734375,41.66015625 12.462158203125,40.118408203125 13.0517578125,38.1884765625 13.553466796875,35.848388671875 13.974609375,33.076171875 11.15478515625,32.5048828125 8.7890625,31.318359375 6.844482421875,29.622802734375 5.2880859375,27.5244140625 3.2958984375,22.3681640625 2.666015625,16.552734375 2.9736328125,12.4658203125 3.9111328125,8.5986328125 5.537109375,5.185546875 7.91015625,2.4609375 11.0888671875,0.6591796875 15.1171875,0z" />
    </g>
  </g>
</svg>