<?xml version="1.0" encoding="utf-8"?>
<!DOCTYPE svg PUBLIC "-//W3C//DTD SVG 1.1//EN" "http://www.w3.org/Graphics/SVG/1.1/DTD/svg11.dtd">
<svg width="31.34765625" height="52.822265625" xmlns="http://www.w3.org/2000/svg" xmlns:xlink="http://www.w3.org/1999/xlink" xmlns:xml="http://www.w3.org/XML/1998/namespace" version="1.1">
  <g>
    <g>
      <path style="fill:#FF0000;fill-opacity:1" d="M22.96875,34.658203125L25.3125,34.658203125 25.3125,46.376953125 22.96875,46.376953125 22.96875,34.658203125z M5.419921875,14.1796875L7.763671875,14.1796875 7.763671875,22.529296875 13.18359375,22.529296875 13.18359375,24.873046875 7.763671875,24.873046875 7.763671875,33.22265625 5.419921875,33.22265625 5.419921875,24.873046875 0,24.873046875 0,22.529296875 5.419921875,22.529296875 5.419921875,14.1796875z M22.96875,11.806640625L25.3125,11.806640625 25.3125,23.525390625 22.96875,23.525390625 22.96875,11.806640625z M15.29296875,7.998046875L17.63671875,7.998046875 17.63671875,27.919921875 31.34765625,27.919921875 31.34765625,30.263671875 17.63671875,30.263671875 17.63671875,52.822265625 17.05078125,52.822265625 4.3359375,44.560546875 5.771484375,42.685546875 15.29296875,49.04296875 15.29296875,7.998046875z M14.765625,0L18.6254863739014,0.659182548522949 22.470703125,2.63671875 21.591796875,4.62890672683716 18.1787109375,2.87109351158142 14.765625,2.34374976158142 11.572265625,2.87109351158142 8.408203125,4.62890672683716 7.529296875,2.63671875 11.21337890625,0.659182548522949 14.765625,0z" />
    </g>
  </g>
</svg>