<?xml version="1.0" encoding="utf-8"?>
<!DOCTYPE svg PUBLIC "-//W3C//DTD SVG 1.1//EN" "http://www.w3.org/Graphics/SVG/1.1/DTD/svg11.dtd">
<svg width="24.84375" height="43.212890625" xmlns="http://www.w3.org/2000/svg" xmlns:xlink="http://www.w3.org/1999/xlink" xmlns:xml="http://www.w3.org/XML/1998/namespace" version="1.1">
  <g>
    <g>
      <path style="fill:#FF0000;fill-opacity:1" d="M13.88671875,8.408203125L10.517578125,8.876953125 7.529296875,10.283203125 8.5107421875,12.3522968292236 9.697265625,13.9892578125 11.1328125,15.0549335479736 12.861328125,15.41015625 14.70703125,14.9853515625 16.2451171875,13.7841796875 17.4755859375,11.923828125 18.45703125,9.55078125 16.3916015625,8.701171875 13.88671875,8.408203125z M3.28125,0L5.5078125,0 6.005859375,4.130859375 6.796875,7.998046875 10.13671875,6.5625 13.88671875,6.064453125 16.6772441864014,6.328125 19.130859375,7.119140625 19.775390625,3.6474609375 20.21484375,0 22.44140625,0 21.8701171875,4.2919921875 21.03515625,8.3203125 22.6281719207764,10.037841796875 23.8330078125,12.2607421875 24.591064453125,15.0256366729736 24.84375,18.369140625 24.84375,33.544921875 24.598388671875,35.555419921875 23.8623046875,36.9580078125 22.6721172332764,37.781982421875 21.064453125,38.056640625 20.302734375,38.02734375 19.62890625,37.8955078125 18.7939453125,37.587890625 17.578125,37.060546875 3.896484375,30.87890625 3.896484375,43.212890625 1.552734375,43.212890625 1.552734375,27.451171875 2.138671875,27.451171875 18.310546875,34.86328125 19.5263671875,35.361328125 20.595703125,35.595703125 22.0166015625,35.0244140625 22.3498516082764,34.244384765625 22.5,33.046875 22.5,18.369140625 21.943359375,14.208984375 20.185546875,10.986328125 18.9111328125,13.7548828125 17.28515625,15.8935546875 15.2783203125,17.2705078125 12.861328125,17.75390625 10.53955078125,17.3400897979736 8.61328125,16.0986328125 7.03857326507568,14.1687030792236 5.771484375,11.689453125 3.720703125,13.974609375 1.69921875,16.875 0,15.498046875 2.28515625,12.0703125 4.951171875,9.31640625 3.92578125,4.8486328125 3.28125,0z" />
    </g>
  </g>
</svg>