<?xml version="1.0" encoding="utf-8"?>
<!DOCTYPE svg PUBLIC "-//W3C//DTD SVG 1.1//EN" "http://www.w3.org/Graphics/SVG/1.1/DTD/svg11.dtd">
<svg width="28.271484375" height="52.822265625" xmlns="http://www.w3.org/2000/svg" xmlns:xlink="http://www.w3.org/1999/xlink" xmlns:xml="http://www.w3.org/XML/1998/namespace" version="1.1">
  <g>
    <g>
      <path style="fill:#FF0000;fill-opacity:1" d="M3.837890625,39.638671875L5.0390625,43.8720703125 7.2509765625,47.314453125 10.3271484375,49.62890625 12.147216796875,50.26611328125 14.12109375,50.478515625 16.094970703125,50.26611328125 17.9150390625,49.62890625 21.005859375,47.314453125 23.232421875,43.8720703125 24.43359375,39.638671875 26.89453125,40.224609375 26.0073852539063,43.1771850585938 24.927978515625,45.736083984375 23.6563110351563,47.9013061523438 22.1923828125,49.6728515625 20.5178813934326,51.0507202148438 18.6145000457764,52.034912109375 16.4822368621826,52.6254272460938 14.12109375,52.822265625 11.7608642578125,52.62451171875 9.63134765625,52.03125 7.73254346847534,51.04248046875 6.064453125,49.658203125 4.60693359375,47.882080078125 3.33984375,45.7177734375 2.26318359375,43.165283203125 1.376953125,40.224609375 3.837890625,39.638671875z M0,7.412109375L0.5859375,7.412109375 25.927734375,21.38671875 25.927734375,7.998046875 28.271484375,7.998046875 28.271484375,24.990234375 27.685546875,24.990234375 15.322265625,18.33984375 15.322265625,43.4765625 12.978515625,43.4765625 12.978515625,17.080078125 2.34375,11.337890625 2.34375,24.404296875 0,24.404296875 0,7.412109375z M13.916015625,0L17.7758769989014,0.659182548522949 21.62109375,2.63671875 20.7421875,4.62890672683716 17.3291015625,2.87109351158142 13.916015625,2.34374976158142 10.72265625,2.87109351158142 7.55859375,4.62890672683716 6.6796875,2.63671875 10.36376953125,0.659182548522949 13.916015625,0z" />
    </g>
  </g>
</svg>