<?xml version="1.0" encoding="utf-8"?>
<!DOCTYPE svg PUBLIC "-//W3C//DTD SVG 1.1//EN" "http://www.w3.org/Graphics/SVG/1.1/DTD/svg11.dtd">
<svg width="27.24609375" height="51.2109375" xmlns="http://www.w3.org/2000/svg" xmlns:xlink="http://www.w3.org/1999/xlink" xmlns:xml="http://www.w3.org/XML/1998/namespace" version="1.1">
  <g>
    <g>
      <path style="fill:#FF0000;fill-opacity:1" d="M12.451171875,7.998046875L14.794921875,7.998046875 14.794921875,17.2265625 24.90234375,17.2265625 24.90234375,8.876953125 27.24609375,8.876953125 27.24609375,27.1875 24.90234375,27.1875 24.90234375,19.5703125 14.794921875,19.5703125 14.794921875,35.830078125 25.78125,35.830078125 25.78125,38.173828125 14.794921875,38.173828125 14.794921875,48.8671875 25.78125,48.8671875 25.78125,51.2109375 1.46484327316284,51.2109375 1.46484327316284,48.8671875 12.451171875,48.8671875 12.451171875,38.173828125 1.46484327316284,38.173828125 1.46484327316284,35.830078125 12.451171875,35.830078125 12.451171875,19.5703125 2.34374952316284,19.5703125 2.34374952316284,27.1875 0,27.1875 0,8.876953125 2.34374952316284,8.876953125 2.34374952316284,17.2265625 12.451171875,17.2265625 12.451171875,7.998046875z M13.41796875,0L17.2778301239014,0.659182548522949 21.123046875,2.63671875 20.244140625,4.62890625 16.8310546875,2.87109351158142 13.41796875,2.34375 10.224609375,2.87109351158142 7.06054639816284,4.62890625 6.18164014816284,2.63671875 9.86572170257568,0.659182548522949 13.41796875,0z" />
    </g>
  </g>
</svg>