<?xml version="1.0" encoding="utf-8"?>
<!DOCTYPE svg PUBLIC "-//W3C//DTD SVG 1.1//EN" "http://www.w3.org/Graphics/SVG/1.1/DTD/svg11.dtd">
<svg width="31.728515625" height="52.822265625" xmlns="http://www.w3.org/2000/svg" xmlns:xlink="http://www.w3.org/1999/xlink" xmlns:xml="http://www.w3.org/XML/1998/namespace" version="1.1">
  <g>
    <g>
      <path style="fill:#FF0000;fill-opacity:1" d="M3.66210985183716,12.24609375L6.00585985183716,12.24609375 6.00585985183716,19.716796875 9.66796875,19.716796875 9.66796875,22.060546875 6.00585985183716,22.060546875 6.00585985183716,29.53125 3.66210985183716,29.53125 3.66210985183716,22.060546875 0,22.060546875 0,19.716796875 3.66210985183716,19.716796875 3.66210985183716,12.24609375z M21.03515625,6.38671922683716L21.62109375,6.38671922683716 31.728515625,14.560546875 30.29296875,16.40625 23.37890625,10.83984375 23.37890625,51.2109375 21.03515625,51.2109375 21.03515625,19.8046875 13.623046875,14.00390625 13.623046875,52.822265625 13.037109375,52.822265625 1.81640672683716,43.974609375 3.19335985183716,42.099609375 11.279296875,48.45703125 11.279296875,9.638671875 11.865234375,9.638671875 21.03515625,16.9921875 21.03515625,6.38671922683716z M15.41015625,0L19.2700176239014,0.659182548522949 23.115234375,2.63671875 22.236328125,4.62890672683716 18.8232421875,2.87109351158142 15.41015625,2.34374976158142 12.216796875,2.87109351158142 9.052734375,4.62890672683716 8.173828125,2.63671875 11.85791015625,0.659182548522949 15.41015625,0z" />
    </g>
  </g>
</svg>