<?xml version="1.0" encoding="utf-8"?>
<!DOCTYPE svg PUBLIC "-//W3C//DTD SVG 1.1//EN" "http://www.w3.org/Graphics/SVG/1.1/DTD/svg11.dtd">
<svg width="29.58984375" height="46.435546875" xmlns="http://www.w3.org/2000/svg" xmlns:xlink="http://www.w3.org/1999/xlink" xmlns:xml="http://www.w3.org/XML/1998/namespace" version="1.1">
  <g>
    <g>
      <path style="fill:#FF0000;fill-opacity:1" d="M23.583984375,0L26.3232421875,0.3662109375 29.58984375,1.376953125 29.091796875,3.720703125 26.044921875,2.68798828125 23.642578125,2.34375 22.060546875,2.724609375 21.005859375,3.779296875 20.4052734375,5.390625 20.21484375,7.412109375 19.833984375,17.05078125 26.66015625,17.05078125 26.66015625,19.39453125 19.74609375,19.39453125 19.423828125,27.451171875 26.66015625,27.451171875 26.66015625,29.794921875 19.3359375,29.794921875 19.3359375,30.17578125 19.0026836395264,34.51904296875 18.4716796875,38.056640625 17.7172832489014,40.872802734375 16.7138671875,43.0517578125 15.465087890625,44.637451171875 13.974609375,45.673828125 12.2314453125,46.2451171875 10.224609375,46.435546875 8.115234375,46.2451171875 6.29882860183716,45.673828125 4.76440477371216,44.637451171875 3.50097703933716,43.0517578125 2.49389696121216,40.872802734375 1.72851610183716,38.056640625 1.19384777545929,34.51904296875 0.878906726837158,30.17578125 0,1.611328125 2.34375047683716,1.611328125 3.22265672683716,30.17578125 3.51196336746216,34.039306640625 3.96972703933716,37.1337890625 4.59228563308716,39.55078125 5.37597703933716,41.3818359375 6.32080078125,42.681884765625 7.42675828933716,43.505859375 10.107421875,44.091796875 12.890625,43.505859375 14.000244140625,42.681884765625 14.9267578125,41.3818359375 15.677490234375,39.55078125 16.259765625,37.1337890625 16.69189453125,34.039306640625 16.9921875,30.17578125 16.9921875,29.794921875 9.66796875,29.794921875 9.66796875,27.451171875 17.080078125,27.451171875 17.40234375,19.39453125 9.66796875,19.39453125 9.66796875,17.05078125 17.490234375,17.05078125 17.87109375,7.412109375 18.2116680145264,4.141845703125 19.2333984375,1.8310546875 21.0021953582764,0.457763671875 23.583984375,0z" />
    </g>
  </g>
</svg>