<?xml version="1.0" encoding="utf-8"?>
<!DOCTYPE svg PUBLIC "-//W3C//DTD SVG 1.1//EN" "http://www.w3.org/Graphics/SVG/1.1/DTD/svg11.dtd">
<svg width="26.30859375" height="43.212890625" xmlns="http://www.w3.org/2000/svg" xmlns:xlink="http://www.w3.org/1999/xlink" xmlns:xml="http://www.w3.org/XML/1998/namespace" version="1.1">
  <g>
    <g>
      <path style="fill:#FF0000;fill-opacity:1" d="M1.845703125,18.427734375L4.189453125,18.427734375 4.189453125,27.216796875 1.845703125,27.216796875 1.845703125,18.427734375z M23.96484375,0L26.30859375,0 26.30859375,11.1328125 25.72265625,11.1328125 15.99609375,6.09375 15.99609375,43.212890625 13.65234375,43.212890625 13.65234375,29.677734375 10.83984375,32.51953125 7.4560546875,34.7314453125 3.8671875,36.328125 0.468749523162842,37.294921875 0,34.833984375 3.15032911300659,33.8076782226563 5.89233303070068,32.662353515625 8.22601222991943,31.3980102539063 10.1513671875,30.0146484375 11.6592407226563,28.4939575195313 12.740478515625,26.817626953125 13.3950805664063,24.9856567382813 13.623046875,22.998046875 13.4078979492188,21.0095233917236 12.762451171875,19.1748065948486 11.6867065429688,17.4938983917236 10.1806640625,15.966796875 8.25347805023193,14.5770273208618 5.91430568695068,13.3081073760986 3.16314649581909,12.1600351333618 0,11.1328125 0.468749523162842,8.671875 3.8671875,9.6533203125 7.4560546875,11.2353515625 10.83984375,13.447265625 13.65234375,16.2890625 13.65234375,2.490234375 14.23828125,2.490234375 23.96484375,7.587890625 23.96484375,0z" />
    </g>
  </g>
</svg>