<?xml version="1.0" encoding="utf-8"?>
<!DOCTYPE svg PUBLIC "-//W3C//DTD SVG 1.1//EN" "http://www.w3.org/Graphics/SVG/1.1/DTD/svg11.dtd">
<svg width="26.4257812500012" height="52.822265625" xmlns="http://www.w3.org/2000/svg" xmlns:xlink="http://www.w3.org/1999/xlink" xmlns:xml="http://www.w3.org/XML/1998/namespace" version="1.1">
  <g>
    <g>
      <path style="fill:#FF0000;fill-opacity:1" d="M6.767578125,8.73046875L4.7900390625,9.0380859375 3.4130859375,9.84375 2.607421875,11.0009765625 2.34375,12.36328125 2.666015625,14.208984375 3.57421875,15.5859375 4.9365234375,16.435546875 6.650390625,16.728515625 10.107421875,16.0986328125 13.505859375,14.208984375 12.4658203125,12.333984375 11.0009765625,10.5615234375 9.0966796875,9.2431640625 6.767578125,8.73046875z M6.767578125,6.38671922683716L9.404296875,6.85546875 11.8212890625,8.1591796875 13.857421875,10.166015625 15.380859375,12.71484375 16.81640625,11.396484375 18.2958984375,9.9755859375 19.7900390625,8.37890625 21.26953125,6.50390625 23.203125,7.939453125 21.4892578125,10.1220703125 19.833984375,11.9677734375 18.193359375,13.5791015625 16.552734375,15.05859375 17.0947265625,17.3876953125 17.4609375,20.068359375 17.6806640625,22.79296875 17.75390625,25.283203125 26.42578125,25.283203125 26.42578125,27.626953125 17.75390625,27.626953125 17.75390625,33.28125 26.42578125,33.28125 26.42578125,35.625 17.75390625,35.625 17.75390625,39.814453125 17.6358013153076,42.8494262695313 17.2814922332764,45.479736328125 16.6909770965576,47.7053833007813 15.8642578125,49.5263671875 14.7885131835938,50.9463500976563 13.450927734375,51.968994140625 11.8515014648438,52.5942993164063 9.990234375,52.822265625 7.85888576507568,52.379150390625 5.5078125,51.1669921875 2.95166015625,49.163818359375 0.205078601837158,46.34765625 1.58203125,44.501953125 4.22607421875,47.171630859375 6.533203125,49.0283203125 8.5107421875,50.115966796875 10.166015625,50.478515625 12.48779296875,49.716796875 14.12109375,47.724609375 15.087890625,44.443359375 15.41015625,39.814453125 15.41015625,35.625 3.92578125,35.625 3.92578125,33.28125 15.41015625,33.28125 15.41015625,27.626953125 3.92578125,27.626953125 3.92578125,25.283203125 15.41015625,25.283203125 15.3369140625,23.056640625 15.1318359375,20.6689453125 14.8095703125,18.4130859375 14.4140625,16.552734375 10.48828125,18.5009765625 6.416015625,19.130859375 3.6181640625,18.57421875 1.611328125,17.197265625 0.402831673622131,15.09521484375 0,12.36328125 0.439453125,10.2099609375 1.728515625,8.291015625 3.8525390625,6.91406297683716 6.767578125,6.38671922683716z M13.154296875,0L17.0141582489014,0.659182548522949 20.859375,2.63671875 19.98046875,4.62890672683716 16.5673828125,2.87109351158142 13.154296875,2.34374976158142 9.9609375,2.87109351158142 6.796875,4.62890672683716 5.91796875,2.63671875 9.60205078125,0.659182548522949 13.154296875,0z" />
    </g>
  </g>
</svg>