<?xml version="1.0" encoding="utf-8"?>
<!DOCTYPE svg PUBLIC "-//W3C//DTD SVG 1.1//EN" "http://www.w3.org/Graphics/SVG/1.1/DTD/svg11.dtd">
<svg width="25.3417968750032" height="53.3203125" xmlns="http://www.w3.org/2000/svg" xmlns:xlink="http://www.w3.org/1999/xlink" xmlns:xml="http://www.w3.org/XML/1998/namespace" version="1.1">
  <g>
    <g>
      <path style="fill:#FF0000;fill-opacity:1" d="M9.521484375,35.0390625L6.51855421066284,35.4931640625 4.26269483566284,36.8115234375 2.84179639816284,38.8916015625 2.34374952316284,41.6015625 2.81616163253784,44.461669921875 4.23339796066284,46.5966796875 6.50024318695068,47.926025390625 9.521484375,48.369140625 12.3046875,47.904052734375 14.794921875,46.5087890625 17.0141582489014,44.263916015625 18.984375,41.25 17.0141582489014,38.587646484375 14.794921875,36.6357421875 12.3046875,35.438232421875 9.521484375,35.0390625z M9.08203125,11.54296875L6.38671827316284,12.01171875 4.26269483566284,13.3447265625 2.85644483566284,15.41015625 2.34374952316284,18.10546875 2.79418897628784,20.6835956573486 4.14550733566284,22.55859375 6.29516506195068,23.7524433135986 9.140625,24.287109375 11.78466796875,23.8659687042236 14.208984375,22.6025409698486 16.41357421875,20.4968280792236 18.3984375,17.548828125 16.3696269989014,14.9853515625 14.150390625,13.095703125 11.72607421875,11.93115234375 9.08203125,11.54296875z M22.529296875,6.44531202316284L24.873046875,6.94335985183716 23.1591796875,12.6123046875 21.03515625,17.548828125 23.1665019989014,23.2763690948486 23.876953125,30.029296875 23.2763671875,35.7421875 21.5625,41.25 23.67919921875,46.45751953125 25.341796875,52.822265625 22.998046875,53.3203125 21.8408184051514,48.1201171875 20.302734375,43.7109375 18.0688457489014,46.728515625 15.5859375,48.92578125 12.744140625,50.26611328125 9.43359375,50.712890625 5.41992139816284,50.068359375 2.46093702316284,48.22265625 0.629882335662842,45.3076171875 0,41.42578125 0.659179210662842,37.7490234375 2.57812452316284,35.009765625 5.62499952316284,33.2958984375 9.697265625,32.6953125 12.674560546875,33.076171875 15.3955078125,34.21875 17.8601055145264,36.1083984375 20.068359375,38.73046875 21.181640625,34.599609375 21.533203125,29.912109375 21.064453125,24.609375 19.658203125,19.951171875 17.3345947265625,22.8735370635986 14.81689453125,24.9609394073486 12.1051025390625,26.2133808135986 9.19921875,26.630859375 5.36132764816284,26.044921875 2.47558546066284,24.3603515625 0.644530773162842,21.6650390625 0,18.046875 0.673827648162842,14.4580078125 2.54882764816284,11.66015625 5.40527296066284,9.84375 9.0234375,9.19921875 11.94580078125,9.58740234375 14.677734375,10.751953125 17.2265605926514,12.6416015625 19.599609375,15.205078125 21.1376953125,11.2060546875 22.529296875,6.44531202316284z M12.333984375,0L16.1938457489014,0.659182548522949 20.0390625,2.63671851158142 19.16015625,4.62890577316284 15.7470703125,2.87109351158142 12.333984375,2.34374976158142 9.140625,2.87109351158142 5.97656202316284,4.62890577316284 5.09765577316284,2.63671851158142 8.78173732757568,0.659182548522949 12.333984375,0z" />
    </g>
  </g>
</svg>