<?xml version="1.0" encoding="utf-8"?>
<!DOCTYPE svg PUBLIC "-//W3C//DTD SVG 1.1//EN" "http://www.w3.org/Graphics/SVG/1.1/DTD/svg11.dtd">
<svg width="30.46875" height="43.212890625" xmlns="http://www.w3.org/2000/svg" xmlns:xlink="http://www.w3.org/1999/xlink" xmlns:xml="http://www.w3.org/XML/1998/namespace" version="1.1">
  <g>
    <g>
      <path style="fill:#FF0000;fill-opacity:1" d="M14.0625,22.412109375L16.40625,22.412109375 16.40625,31.640625 27.392578125,31.640625 27.392578125,33.984375 16.40625,33.984375 16.40625,43.212890625 14.0625,43.212890625 14.0625,33.984375 3.076171875,33.984375 3.076171875,31.640625 14.0625,31.640625 14.0625,22.412109375z M0,0L2.34375,0 2.99926733970642,4.486083984375 3.9697265625,8.1005859375 5.2294921875,10.9460458755493 6.7529296875,13.125 8.52905178070068,14.6887226104736 10.546875,15.6884765625 15.234375,16.40625 17.55615234375,16.1755390167236 19.775390625,15.4833984375 21.8298320770264,14.2968769073486 23.6572265625,12.5830078125 25.2355937957764,10.3198251724243 26.54296875,7.4853515625 27.5244140625,4.053955078125 28.125,0 30.46875,0 29.8681640625,4.302978515625 28.828125,8.0712890625 27.388916015625,11.2902841567993 25.5908203125,13.9453125 23.4484844207764,16.0290546417236 20.9765625,17.5341796875 18.22265625,18.4460468292236 15.234375,18.75 12.18017578125,18.5009784698486 9.462890625,17.75390625 7.07153224945068,16.4501972198486 4.9951171875,14.53125 3.24462866783142,11.9677743911743 1.8310546875,8.73046875 0.750732421875,4.7607421875 0,0z" />
    </g>
  </g>
</svg>