<?xml version="1.0" encoding="utf-8"?>
<!DOCTYPE svg PUBLIC "-//W3C//DTD SVG 1.1//EN" "http://www.w3.org/Graphics/SVG/1.1/DTD/svg11.dtd">
<svg width="31.962890625" height="46.435546875" xmlns="http://www.w3.org/2000/svg" xmlns:xlink="http://www.w3.org/1999/xlink" xmlns:xml="http://www.w3.org/XML/1998/namespace" version="1.1">
  <g>
    <g>
      <path style="fill:#FF0000;fill-opacity:1" d="M21.826171875,27.744140625L20.5224609375,28.212890625 19.6435546875,29.3994140625 19.16015625,30.9814453125 19.013671875,32.607421875 19.16015625,34.2333984375 19.6435546875,35.8154296875 20.5224609375,37.001953125 21.826171875,37.470703125 23.1298828125,37.001953125 24.0087890625,35.80078125 24.4921875,34.21875 24.638671875,32.607421875 24.4921875,30.9814453125 24.0087890625,29.3994140625 23.1298828125,28.212890625 21.826171875,27.744140625z M21.826171875,25.400390625L24.08203125,26.07421875 25.634765625,27.802734375 26.54296875,30.1318359375 26.8359375,32.607421875 26.54296875,35.068359375 25.634765625,37.3828125 24.08203125,39.111328125 21.826171875,39.78515625 19.5703125,39.111328125 18.017578125,37.3974609375 17.109375,35.0830078125 16.81640625,32.607421875 17.109375,30.1318359375 18.017578125,27.802734375 19.5703125,26.07421875 21.826171875,25.400390625z M12.59765625,0L13.18359375,0 27.451171875,8.408203125 26.30859375,10.4296875 14.94140625,3.779296875 14.94140625,17.40234375 18.046875,17.7941913604736 20.7421875,18.4423828125 25.078125,20.361328125 28.1689453125,22.9248046875 30.205078125,25.8984375 31.40625,29.0478515625 31.962890625,32.109375 29.6484375,32.109375 29.150390625,29.58984375 28.037109375,26.9091796875 26.162109375,24.345703125 23.4228515625,22.1484375 19.7314453125,20.5810546875 14.94140625,19.892578125 14.94140625,46.435546875 14.35546875,46.435546875 0,37.79296875 1.171875,35.888671875 12.59765625,42.744140625 12.59765625,0z" />
    </g>
  </g>
</svg>