<?xml version="1.0" encoding="utf-8"?>
<!DOCTYPE svg PUBLIC "-//W3C//DTD SVG 1.1//EN" "http://www.w3.org/Graphics/SVG/1.1/DTD/svg11.dtd">
<svg width="27.861328125" height="51.2109375" xmlns="http://www.w3.org/2000/svg" xmlns:xlink="http://www.w3.org/1999/xlink" xmlns:xml="http://www.w3.org/XML/1998/namespace" version="1.1">
  <g>
    <g>
      <path style="fill:#FF0000;fill-opacity:1" d="M25.517578125,7.998046875L27.861328125,7.998046875 27.861328125,20.5078125 27.275390625,20.5078125 23.173828125,16.904296875 23.173828125,50.33203125 20.830078125,50.33203125 20.830078125,30.966796875 7.08984375,30.966796875 7.08984375,47.373046875 6.50390625,47.373046875 2.34375,43.59375 2.34375,51.2109375 0,51.2109375 0,39.404296875 0.5859375,39.404296875 4.74609375,42.685546875 4.74609375,8.876953125 7.08984375,8.876953125 7.08984375,28.623046875 20.830078125,28.623046875 20.830078125,12.216796875 21.416015625,12.216796875 25.517578125,15.99609375 25.517578125,7.998046875z M13.681640625,0L17.5415019989014,0.659182548522949 21.38671875,2.63671875 20.5078125,4.62890625 17.0947265625,2.87109351158142 13.681640625,2.34375 10.48828125,2.87109351158142 7.32421875,4.62890625 6.4453125,2.63671875 10.12939453125,0.659182548522949 13.681640625,0z" />
    </g>
  </g>
</svg>