<?xml version="1.0" encoding="utf-8"?>
<!DOCTYPE svg PUBLIC "-//W3C//DTD SVG 1.1//EN" "http://www.w3.org/Graphics/SVG/1.1/DTD/svg11.dtd">
<svg width="28.3593750000005" height="46.435546875" xmlns="http://www.w3.org/2000/svg" xmlns:xlink="http://www.w3.org/1999/xlink" xmlns:xml="http://www.w3.org/XML/1998/namespace" version="1.1">
  <g>
    <g>
      <path style="fill:#FF0000;fill-opacity:1" d="M9.90234375,33.955078125L18.69140625,33.955078125 18.69140625,36.298828125 9.90234375,36.298828125 9.90234375,33.955078125z M9.7265625,10.546875L11.319580078125,10.8544921875 12.5830078125,11.77734375 14.296875,14.8828125 15.0146484375,13.154296875 15.99609375,11.77734375 17.2705078125,10.869140625 18.8671875,10.546875 20.625,10.95703125 21.9287109375,12.158203125 22.8369140625,14.0771484375 23.4375,16.611328125 21.4453125,17.109375 20.9655742645264,15.2636728286743 20.3759746551514,13.9453144073486 19.6765117645264,13.1542978286743 18.8671875,12.890625 17.8894023895264,13.1469745635986 17.1240234375,13.916015625 16.5380859375,15.1318378448486 16.0986328125,16.728515625 15.6005859375,20.91796875 15.46875,26.07421875 15.46875,27.626953125 21.62109375,27.626953125 21.62109375,29.970703125 6.97265625,29.970703125 6.97265625,27.626953125 13.125,27.626953125 13.125,26.07421875 12.9931640625,20.91796875 12.4951171875,16.728515625 12.0556640625,15.1318378448486 11.4697265625,13.916015625 10.704345703125,13.1469745635986 9.7265625,12.890625 8.90624904632568,13.1542978286743 8.20312404632568,13.9453144073486 7.61718702316284,15.2636728286743 7.1484375,17.109375 5.15625,16.611328125 5.767822265625,14.0771503448486 6.6650390625,12.158203125 7.95043849945068,10.94970703125 9.7265625,10.546875z M14.1796875,2.34375L11.337890625,2.750244140625 8.90625,3.9697265625 6.87377834320068,5.892333984375 5.2294921875,8.408203125 3.96240234375,11.473388671875 3.0615234375,15.0439453125 2.34375,23.26171875 3.0615234375,31.46484375 3.96240234375,35.020751953125 5.2294921875,38.0712890625 6.87377834320068,40.572509765625 8.90625,42.48046875 11.337890625,43.68896484375 14.1796875,44.091796875 17.003173828125,43.68896484375 19.4384765625,42.48046875 21.4819316864014,40.572509765625 23.1298828125,38.0712890625 24.3969707489014,35.020751953125 25.2978515625,31.46484375 26.015625,23.26171875 25.2978515625,15.0439453125 24.3969707489014,11.473388671875 23.1298828125,8.408203125 21.4819316864014,5.892333984375 19.4384765625,3.9697265625 17.003173828125,2.750244140625 14.1796875,2.34375z M14.1796875,0L17.362060546875,0.3955078125 20.1708984375,1.58203125 22.5915508270264,3.515625 24.609375,6.15234375 26.21337890625,9.473876953125 27.392578125,13.4619140625 28.11767578125,18.0725116729736 28.359375,23.26171875 28.121337890625,28.46923828125 27.4072265625,33.076171875 26.239013671875,37.0458984375 24.638671875,40.341796875 22.6171855926514,42.952880859375 20.185546875,44.8681640625 17.36572265625,46.043701171875 14.1796875,46.435546875 10.99365234375,46.043701171875 8.173828125,44.8681640625 5.7421875,42.952880859375 3.720703125,40.341796875 2.12036108970642,37.0458984375 0.9521484375,33.076171875 0.238036751747131,28.46923828125 0,23.26171875 0.238036751747131,18.0725116729736 0.9521484375,13.4619140625 2.12402319908142,9.473876953125 3.7353515625,6.15234375 5.767822265625,3.515625 8.203125,1.58203125 11.015625,0.3955078125 14.1796875,0z" />
    </g>
  </g>
</svg>