<?xml version="1.0" encoding="utf-8"?>
<!DOCTYPE svg PUBLIC "-//W3C//DTD SVG 1.1//EN" "http://www.w3.org/Graphics/SVG/1.1/DTD/svg11.dtd">
<svg width="30.5859375" height="46.435546875" xmlns="http://www.w3.org/2000/svg" xmlns:xlink="http://www.w3.org/1999/xlink" xmlns:xml="http://www.w3.org/XML/1998/namespace" version="1.1">
  <g>
    <g>
      <path style="fill:#FF0000;fill-opacity:1" d="M24.873046875,19.599609375L13.564453125,29.267578125 13.564453125,33.720703125 15.703125,33.720703125 20.6689453125,33.046875 24.19921875,31.2158203125 26.2939453125,28.4912109375 26.982421875,25.107421875 26.455078125,22.119140625 24.873046875,19.599609375z M13.564453125,16.435546875L13.564453125,26.484375 23.0859375,18.1640625 19.8779296875,16.8896484375 15.703125,16.435546875 13.564453125,16.435546875z M11.220703125,0L11.8359375,0 24.90234375,7.44140625 23.818359375,9.55078125 13.59375,3.984375 13.59375,14.091796875 15.703125,14.091796875 20.9765625,14.7216796875 24.990234375,16.494140625 28.9453125,13.037109375 30.5859375,14.70703125 26.71875,18.017578125 28.681640625,21.2109375 29.326171875,25.107421875 29.1064453125,27.432861328125 28.447265625,29.5458984375 27.359619140625,31.41357421875 25.8544921875,33.0029296875 23.9318828582764,34.2919921875 21.591796875,35.2587890625 18.8452129364014,35.863037109375 15.703125,36.064453125 13.564453125,36.064453125 13.564453125,46.435546875 12.978515625,46.435546875 0,38.583984375 1.46484375,36.474609375 11.220703125,42.451171875 11.220703125,0z" />
    </g>
  </g>
</svg>