<?xml version="1.0" encoding="utf-8"?>
<!DOCTYPE svg PUBLIC "-//W3C//DTD SVG 1.1//EN" "http://www.w3.org/Graphics/SVG/1.1/DTD/svg11.dtd">
<svg width="30.966796875" height="52.822265625" xmlns="http://www.w3.org/2000/svg" xmlns:xlink="http://www.w3.org/1999/xlink" xmlns:xml="http://www.w3.org/XML/1998/namespace" version="1.1">
  <g>
    <g>
      <path style="fill:#FF0000;fill-opacity:1" d="M28.623046875,30.52734375L8.642578125,34.130859375 9.7119140625,40.693359375 10.6054677963257,43.480224609375 11.7333984375,45.8642578125 13.092041015625,47.80517578125 14.677734375,49.2626953125 16.494140625,50.174560546875 18.544921875,50.478515625 20.8117656707764,50.09765625 22.8076171875,48.955078125 24.5214824676514,47.142333984375 25.9423828125,44.7509765625 27.066650390625,41.82861328125 27.890625,38.4228515625 28.623046875,30.52734375z M18.544921875,8.73046875L16.20849609375,9.136962890625 14.1796875,10.3564453125 12.454833984375,12.279052734375 11.0302734375,14.794921875 9.91332912445068,17.860107421875 9.111328125,21.4306640625 8.466796875,29.6484375 8.466796875,30.732421875 8.49609375,31.7578125 28.59375,28.212890625 27.802734375,20.5224609375 26.96044921875,17.197265625 25.83984375,14.3408203125 24.4372539520264,12.000732421875 22.7490234375,10.224609375 20.7824687957764,9.10400390625 18.544921875,8.73046875z M18.544921875,6.38671922683716L21.2255840301514,6.7822265625 23.642578125,7.96875 25.7629375457764,9.90234375 27.5537109375,12.5390625 28.99658203125,15.860595703125 30.0732421875,19.8486328125 30.743408203125,24.4592304229736 30.966796875,29.6484375 30.7470703125,34.85595703125 30.087890625,39.462890625 29.022216796875,43.4326171875 27.5830078125,46.728515625 25.7885723114014,49.339599609375 23.6572265625,51.2548828125 21.2292461395264,52.430419921875 18.544921875,52.822265625 16.1572265625,52.518310546875 13.974609375,51.6064453125 12.01904296875,50.108642578125 10.3125,48.046875 8.86962795257568,45.439453125 7.705078125,42.3046875 6.8408203125,38.66455078125 6.298828125,34.541015625 0,35.68359375 0,15.029296875 2.34375047683716,15.029296875 2.34375047683716,32.841796875 6.15234375,32.16796875 6.123046875,30.9375 6.123046875,29.6484375 6.346435546875,24.4592304229736 7.0166015625,19.8486328125 8.09326076507568,15.860595703125 9.5361328125,12.5390625 11.326904296875,9.90234375 13.447265625,7.96875 15.8642578125,6.7822265625 18.544921875,6.38671922683716z M15.146484375,0L19.0063457489014,0.659182548522949 22.8515625,2.63671875 21.97265625,4.62890672683716 18.5595703125,2.87109351158142 15.146484375,2.34374976158142 11.953125,2.87109351158142 8.7890625,4.62890672683716 7.91015625,2.63671875 11.59423828125,0.659182548522949 15.146484375,0z" />
    </g>
  </g>
</svg>