<?xml version="1.0" encoding="utf-8"?>
<!DOCTYPE svg PUBLIC "-//W3C//DTD SVG 1.1//EN" "http://www.w3.org/Graphics/SVG/1.1/DTD/svg11.dtd">
<svg width="29.150390625" height="52.822265625" xmlns="http://www.w3.org/2000/svg" xmlns:xlink="http://www.w3.org/1999/xlink" xmlns:xml="http://www.w3.org/XML/1998/namespace" version="1.1">
  <g>
    <g>
      <path style="fill:#FF0000;fill-opacity:1" d="M8.203125,33.45703125L10.546875,33.45703125 10.546875,42.24609375 8.203125,42.24609375 8.203125,33.45703125z M2.34375,28.18359375L2.34375,35.302734375 2.5927734375,41.1328125 3.603515625,45.966796875 4.51904296875,47.830810546875 5.7421875,49.2626953125 7.33886623382568,50.174560546875 9.375,50.478515625 11.392822265625,50.174560546875 12.9931640625,49.2626953125 14.2236328125,47.830810546875 15.1318359375,45.966796875 16.142578125,41.1328125 16.40625,35.302734375 16.40625,28.18359375 2.34375,28.18359375z M8.203125,11.77734375L10.546875,11.77734375 10.546875,20.56640625 8.203125,20.56640625 8.203125,11.77734375z M0,7.998046875L2.34375,7.998046875 2.34375,25.83984375 16.40625,25.83984375 16.40625,7.998046875 18.75,7.998046875 18.75,25.83984375 21.8994140625,25.0048828125 24.462890625,23.4375 26.1767578125,21.328125 26.806640625,18.837890625 26.396484375,16.79443359375 25.166015625,14.94140625 23.2250957489014,13.2275390625 20.68359375,11.6015625 22.060546875,9.462890625 25.0891094207764,11.572265625 27.3193359375,13.798828125 28.692626953125,16.201171875 29.150390625,18.837890625 28.7255859375,21.474609375 27.5244140625,23.7451171875 25.6787109375,25.60546875 23.3203125,27.01171875 25.6787109375,28.4326171875 27.5244140625,30.3076171875 28.7255859375,32.578125 29.150390625,35.185546875 28.692626953125,37.822265625 27.3193359375,40.224609375 25.0891094207764,42.451171875 22.060546875,44.560546875 20.68359375,42.421875 23.2250957489014,40.7958984375 25.166015625,39.08203125 26.396484375,37.22900390625 26.806640625,35.185546875 26.1767578125,32.7099609375 24.462890625,30.6005859375 21.8994140625,29.0478515625 18.75,28.212890625 18.75,35.302734375 18.33984375,42.1875 17.7685546875,45.172119140625 16.875,47.7392578125 15.6298828125,49.8486328125 14.00390625,51.4599609375 11.9384765625,52.481689453125 9.375,52.822265625 6.83349514007568,52.481689453125 4.775390625,51.4599609375 3.1494140625,49.8486328125 1.904296875,47.7392578125 1.00707960128784,45.172119140625 0.424804210662842,42.1875 0,35.302734375 0,7.998046875z M14.4140625,0L18.2739238739014,0.659182548522949 22.119140625,2.63671875 21.240234375,4.62890672683716 17.8271484375,2.87109351158142 14.4140625,2.34374976158142 11.220703125,2.87109351158142 8.056640625,4.62890672683716 7.177734375,2.63671875 10.86181640625,0.659182548522949 14.4140625,0z" />
    </g>
  </g>
</svg>