<?xml version="1.0" encoding="utf-8"?>
<!DOCTYPE svg PUBLIC "-//W3C//DTD SVG 1.1//EN" "http://www.w3.org/Graphics/SVG/1.1/DTD/svg11.dtd">
<svg width="26.044921875" height="51.2109375" xmlns="http://www.w3.org/2000/svg" xmlns:xlink="http://www.w3.org/1999/xlink" xmlns:xml="http://www.w3.org/XML/1998/namespace" version="1.1">
  <g>
    <g>
      <path style="fill:#FF0000;fill-opacity:1" d="M11.865234375,26.89453125L14.208984375,26.89453125 14.208984375,37.880859375 25.1953125,37.880859375 25.1953125,40.224609375 14.208984375,40.224609375 14.208984375,51.2109375 11.865234375,51.2109375 11.865234375,40.224609375 0.878905773162842,40.224609375 0.878905773162842,37.880859375 11.865234375,37.880859375 11.865234375,26.89453125z M2.19726514816284,6.357421875L13.0078125,15.556640625 23.818359375,6.357421875 25.166015625,8.203125 14.677734375,16.962890625 26.044921875,26.6015625 24.90234375,28.271484375 13.037109375,18.369140625 1.14257764816284,28.271484375 0,26.6015625 11.337890625,16.962890625 0.878905773162842,8.203125 2.19726514816284,6.357421875z M12.802734375,0L16.6625957489014,0.659182548522949 20.5078125,2.63671875 19.62890625,4.62890625 16.2158203125,2.87109351158142 12.802734375,2.34375 9.609375,2.87109351158142 6.44531202316284,4.62890625 5.56640577316284,2.63671875 9.25048732757568,0.659182548522949 12.802734375,0z" />
    </g>
  </g>
</svg>