<?xml version="1.0" encoding="utf-8"?>
<!DOCTYPE svg PUBLIC "-//W3C//DTD SVG 1.1//EN" "http://www.w3.org/Graphics/SVG/1.1/DTD/svg11.dtd">
<svg width="28.271484375" height="52.822265625" xmlns="http://www.w3.org/2000/svg" xmlns:xlink="http://www.w3.org/1999/xlink" xmlns:xml="http://www.w3.org/XML/1998/namespace" version="1.1">
  <g>
    <g>
      <path style="fill:#FF0000;fill-opacity:1" d="M2.8125,41.54296875L5.15625,41.54296875 5.15625,50.33203125 2.8125,50.33203125 2.8125,41.54296875z M21.181640625,29.150390625L23.525390625,29.150390625 23.525390625,40.869140625 21.181640625,40.869140625 21.181640625,29.150390625z M2.8125,27.333984375L5.15625,27.333984375 5.15625,36.123046875 2.8125,36.123046875 2.8125,27.333984375z M0,7.412109375L0.5859375,7.412109375 25.927734375,21.38671875 25.927734375,7.998046875 28.271484375,7.998046875 28.271484375,24.990234375 27.685546875,24.990234375 14.736328125,18.017578125 14.736328125,42.861328125 15.0732421875,46.494140625 16.0986328125,48.837890625 17.8125,50.09765625 20.21484375,50.478515625 21.9726543426514,50.211181640625 23.49609375,49.4091796875 24.8290996551514,48.123779296875 26.015625,46.40625 27.7734375,47.783203125 26.143798828125,49.969482421875 24.3603515625,51.5478515625 22.3937969207764,52.503662109375 20.21484375,52.822265625 16.5673828125,52.20703125 14.150390625,50.361328125 12.802734375,47.255859375 12.392578125,42.861328125 12.392578125,16.7578125 2.34375,11.337890625 2.34375,24.404296875 0,24.404296875 0,7.412109375z M13.88671875,0L17.7465801239014,0.659182548522949 21.591796875,2.63671875 20.712890625,4.62890672683716 17.2998046875,2.87109351158142 13.88671875,2.34374976158142 10.693359375,2.87109351158142 7.529296875,4.62890672683716 6.650390625,2.63671875 10.33447265625,0.659182548522949 13.88671875,0z" />
    </g>
  </g>
</svg>