<?xml version="1.0" encoding="utf-8"?>
<!DOCTYPE svg PUBLIC "-//W3C//DTD SVG 1.1//EN" "http://www.w3.org/Graphics/SVG/1.1/DTD/svg11.dtd">
<svg width="28.5937500000023" height="44.82421875" xmlns="http://www.w3.org/2000/svg" xmlns:xlink="http://www.w3.org/1999/xlink" xmlns:xml="http://www.w3.org/XML/1998/namespace" version="1.1">
  <g>
    <g>
      <path style="fill:#FF0000;fill-opacity:1" d="M19.716796875,20.80078125L22.060546875,20.80078125 22.060546875,29.58984375 19.716796875,29.58984375 19.716796875,20.80078125z M6.533203125,20.80078125L8.876953125,20.80078125 8.876953125,29.58984375 6.533203125,29.58984375 6.533203125,20.80078125z M0,0L2.34375,0 2.398681640625,3.922119140625 2.5634765625,7.2509765625 2.87841796875,10.008544921875 3.3837890625,12.216796875 4.097900390625,13.8940448760986 5.0390625,15.05859375 6.24023342132568,15.7397480010986 7.734375,15.966796875 9.19921779632568,15.7507343292236 10.37109375,15.1025390625 11.2939453125,13.9782733917236 12.01171875,12.333984375 12.53173828125,10.147705078125 12.861328125,7.3974609375 13.04443359375,4.031982421875 13.125,0 15.46875,0 15.523681640625,3.922119140625 15.6884765625,7.2509765625 16.00341796875,10.008544921875 16.5087890625,12.216796875 17.222900390625,13.8940448760986 18.1640625,15.05859375 19.3652324676514,15.7397480010986 20.859375,15.966796875 22.3535137176514,15.7397480010986 23.5546875,15.05859375 24.4958477020264,13.8940448760986 25.2099609375,12.216796875 25.71533203125,10.008544921875 26.0302734375,7.2509765625 26.195068359375,3.922119140625 26.25,0 28.59375,0 28.538818359375,3.9404296875 28.3740234375,7.5 28.011474609375,10.6274423599243 27.36328125,13.271484375 26.385498046875,15.4028339385986 25.0341796875,16.9921875 23.2214336395264,17.9809589385986 20.859375,18.310546875 19.0832500457764,18.0981464385986 17.6220703125,17.4609375 15.46875,15.05859375 15.46875,27.36328125 15.531005859375,31.087646484375 15.7177734375,34.2333984375 16.0546875,36.83349609375 16.5673828125,38.9208984375 17.27783203125,40.51025390625 18.2080078125,41.6162109375 19.3908672332764,42.264404296875 20.859375,42.48046875 22.3535137176514,42.25341796875 23.5546875,41.572265625 24.4958477020264,40.40771484375 25.2099609375,38.73046875 25.71533203125,36.522216796875 26.0302734375,33.7646484375 26.195068359375,30.435791015625 26.25,26.513671875 28.59375,26.513671875 28.538818359375,30.4541015625 28.3740234375,34.013671875 28.011474609375,37.14111328125 27.36328125,39.78515625 26.385498046875,41.91650390625 25.0341796875,43.505859375 23.2214336395264,44.49462890625 20.859375,44.82421875 18.427734375,44.3701171875 16.58203125,43.0810546875 15.2197265625,41.07421875 14.267578125,38.4375 13.330078125,41.07421875 11.982421875,43.0810546875 10.13671875,44.3701171875 7.734375,44.82421875 5.372314453125,44.49462890625 3.5595703125,43.505859375 2.20825171470642,41.91650390625 1.23046875,39.78515625 0.582275032997131,37.14111328125 0.2197265625,34.013671875 0.0549312829971313,30.4541015625 0,26.513671875 2.34375,26.513671875 2.398681640625,30.435791015625 2.5634765625,33.7646484375 2.87841796875,36.522216796875 3.3837890625,38.73046875 4.097900390625,40.40771484375 5.0390625,41.572265625 6.24023342132568,42.25341796875 7.734375,42.48046875 9.19921779632568,42.264404296875 10.37109375,41.6162109375 11.2939453125,40.491943359375 12.01171875,38.84765625 12.53173828125,36.661376953125 12.861328125,33.9111328125 13.04443359375,30.545654296875 13.125,26.513671875 13.125,14.970703125 10.9716796875,17.431640625 9.510498046875,18.0908222198486 7.734375,18.310546875 5.372314453125,17.9809589385986 3.5595703125,16.9921875 2.20825171470642,15.4028339385986 1.23046875,13.271484375 0.582275032997131,10.6274423599243 0.2197265625,7.5 0.0549312829971313,3.9404296875 0,0z" />
    </g>
  </g>
</svg>