<?xml version="1.0" encoding="utf-8"?>
<!DOCTYPE svg PUBLIC "-//W3C//DTD SVG 1.1//EN" "http://www.w3.org/Graphics/SVG/1.1/DTD/svg11.dtd">
<svg width="24.84375" height="51.2109375" xmlns="http://www.w3.org/2000/svg" xmlns:xlink="http://www.w3.org/1999/xlink" xmlns:xml="http://www.w3.org/XML/1998/namespace" version="1.1">
  <g>
    <g>
      <path style="fill:#FF0000;fill-opacity:1" d="M11.865234375,37.55859375L7.83691358566284,37.935791015625 4.833984375,39.0673828125 2.96630859375,40.916748046875 2.34375,43.447265625 2.98828125,45.908203125 4.8486328125,47.5927734375 7.8369140625,48.5595703125 11.865234375,48.8671875 22.5,48.8671875 22.5,37.55859375 11.865234375,37.55859375z M11.865234375,23.994140625L7.83691358566284,24.3713397979736 4.833984375,25.5029296875 2.96630859375,27.3522968292236 2.34375,29.8828125 2.5341796875,31.32568359375 3.10546875,32.490234375 5.15625,34.1162109375 8.1884765625,34.9658203125 11.865234375,35.21484375 22.5,35.21484375 22.5,23.994140625 11.865234375,23.994140625z M11.865234375,10.341796875L7.83691358566284,10.718994140625 4.833984375,11.8505859375 2.96630859375,13.699951171875 2.34375,16.23046875 2.95166015625,18.658447265625 4.775390625,20.3173828125 7.76367139816284,21.2878437042236 11.865234375,21.650390625 22.5,21.650390625 22.5,10.341796875 11.865234375,10.341796875z M11.865234375,7.998046875L24.84375,7.998046875 24.84375,51.2109375 11.865234375,51.2109375 8.88427734375,51.053466796875 6.38671875,50.5810546875 4.33959865570068,49.837646484375 2.7099609375,48.8671875 1.483154296875,47.68798828125 0.64453125,46.318359375 0,43.212890625 0.281982421875,41.15478515625 1.1279296875,39.2578125 2.603759765625,37.6318359375 4.775390625,36.38671875 2.603759765625,35.174560546875 1.1279296875,33.5888671875 0.281982421875,31.717529296875 0,29.6484375 0.281982421875,27.59033203125 1.1279296875,25.693359375 2.603759765625,24.0673847198486 4.775390625,22.822265625 2.603759765625,21.5808124542236 1.1279296875,19.9658203125 0.281982421875,18.072509765625 0,15.99609375 0.64453125,12.890625 1.483154296875,11.52099609375 2.7099609375,10.341796875 4.33959865570068,9.371337890625 6.38671875,8.6279296875 8.88427734375,8.155517578125 11.865234375,7.998046875z M12.1875,0L16.0473613739014,0.659182548522949 19.892578125,2.63671875 19.013671875,4.62890625 15.6005859375,2.87109351158142 12.1875,2.34375 8.994140625,2.87109351158142 5.830078125,4.62890625 4.951171875,2.63671875 8.63525390625,0.659182548522949 12.1875,0z" />
    </g>
  </g>
</svg>