<?xml version="1.0" encoding="utf-8"?>
<!DOCTYPE svg PUBLIC "-//W3C//DTD SVG 1.1//EN" "http://www.w3.org/Graphics/SVG/1.1/DTD/svg11.dtd">
<svg width="28.271484375" height="52.822265625" xmlns="http://www.w3.org/2000/svg" xmlns:xlink="http://www.w3.org/1999/xlink" xmlns:xml="http://www.w3.org/XML/1998/namespace" version="1.1">
  <g>
    <g>
      <path style="fill:#FF0000;fill-opacity:1" d="M15.322265625,30.673828125L15.322265625,50.361328125 16.80908203125,49.7314453125 18.046875,48.603515625 19.0576152801514,47.032470703125 19.86328125,45.0732421875 20.91796875,40.078125 21.38671875,33.92578125 15.322265625,30.673828125z M6.884765625,26.1328125L6.85546875,27.861328125 6.85546875,29.58984375 7.1044921875,37.2802734375 7.45971584320068,40.6640625 8.02734375,43.6376953125 8.82934474945068,46.153564453125 9.8876953125,48.1640625 11.253662109375,49.59228515625 12.978515625,50.361328125 12.978515625,29.4140625 6.884765625,26.1328125z M15.322265625,8.876953125L15.322265625,27.861328125 21.416015625,31.23046875 21.4306640625,30.41015625 21.4453125,29.58984375 21.1962890625,21.9287109375 20.8374004364014,18.548583984375 20.2587890625,15.5859375 19.4457988739014,13.0810546875 18.3837890625,11.07421875 17.025146484375,9.64599609375 15.322265625,8.876953125z M12.978515625,8.876953125L11.590576171875,9.437255859375 10.4150390625,10.4150390625 8.642578125,13.4912109375 7.55859375,17.87109375 7.001953125,23.291015625 12.978515625,26.572265625 12.978515625,8.876953125z M14.150390625,6.38671922683716L16.541748046875,6.71630859375 18.5595703125,7.70507860183716 20.2258281707764,9.39697265625 21.5625,11.8359375 22.5732402801514,15.0439453125 23.26171875,19.04296875 23.6572246551514,23.8769550323486 23.7890625,29.58984375 23.7744140625,31.083984375 23.759765625,32.51953125 25.927734375,33.720703125 25.927734375,20.33203125 28.271484375,20.33203125 28.271484375,37.32421875 27.685546875,37.32421875 23.642578125,35.15625 23.3056621551514,39.48486328125 22.763671875,43.154296875 21.9909648895264,46.197509765625 20.9619140625,48.6474609375 19.6728496551514,50.51513671875 18.1201171875,51.8115234375 16.285400390625,52.569580078125 14.150390625,52.822265625 11.74072265625,52.49267578125 9.7265625,51.50390625 8.07128810882568,49.808349609375 6.73828125,47.3583984375 5.7275390625,44.139404296875 5.0390625,40.13671875 4.6435546875,35.302734375 4.51171875,29.58984375 4.599609375,24.90234375 2.34375,23.671875 2.34375,36.73828125 0,36.73828125 0,19.74609375 0.5859375,19.74609375 4.74609375,22.060546875 5.1416015625,18.22265625 5.7421875,14.970703125 6.55883693695068,12.275390625 7.6025390625,10.107421875 8.87329006195068,8.4521484375 10.37109375,7.294921875 12.12158203125,6.61376953125 14.150390625,6.38671922683716z M13.88671875,0L17.7465801239014,0.659182548522949 21.591796875,2.63671875 20.712890625,4.62890672683716 17.2998046875,2.87109351158142 13.88671875,2.34374976158142 10.693359375,2.87109351158142 7.529296875,4.62890672683716 6.650390625,2.63671875 10.33447265625,0.659182548522949 13.88671875,0z" />
    </g>
  </g>
</svg>