<?xml version="1.0" encoding="utf-8"?>
<!DOCTYPE svg PUBLIC "-//W3C//DTD SVG 1.1//EN" "http://www.w3.org/Graphics/SVG/1.1/DTD/svg11.dtd">
<svg width="27.568359375" height="51.2109375" xmlns="http://www.w3.org/2000/svg" xmlns:xlink="http://www.w3.org/1999/xlink" xmlns:xml="http://www.w3.org/XML/1998/namespace" version="1.1">
  <g>
    <g>
      <path style="fill:#FF0000;fill-opacity:1" d="M14.70703125,17.9296875L14.70703125,31.69921875 18.7426738739014,31.102294921875 21.533203125,29.7216796875 23.1591777801514,27.608642578125 23.701171875,24.814453125 23.1591777801514,22.0202655792236 21.533203125,19.9072265625 18.7426738739014,18.526611328125 14.70703125,17.9296875z M12.36328125,17.9296875L8.37890625,18.544921875 5.625,19.921875 4.02099609375,22.0239276885986 3.486328125,24.814453125 4.02099609375,27.60498046875 5.625,29.70703125 8.37890625,31.07666015625 12.36328125,31.669921875 12.36328125,17.9296875z M12.36328125,6.38671875L12.94921875,6.38671875 27.36328125,13.18359375 26.484375,15.498046875 14.70703125,9.78515625 14.70703125,15.615234375 19.6398906707764,16.38427734375 23.1884765625,18.22265625 25.330810546875,21.0571308135986 26.044921875,24.814453125 25.330810546875,28.6083984375 23.1884765625,31.435546875 19.6398906707764,33.251953125 14.70703125,34.013671875 14.70703125,36.884765625 16.76513671875,37.291259765625 18.779296875,38.1591796875 22.4853515625,41.103515625 25.517578125,45.5126953125 27.568359375,51.2109375 25.224609375,51.2109375 23.525390625,46.552734375 20.9912109375,42.9345703125 17.9443359375,40.458984375 14.70703125,39.2578125 14.70703125,51.2109375 12.36328125,51.2109375 12.36328125,39.2578125 9.1552734375,40.4443359375 6.2548828125,42.9052734375 3.92578125,46.5380859375 2.40234375,51.2109375 0,51.2109375 1.8896484375,45.6005859375 4.775390625,41.2646484375 8.3642578125,38.349609375 10.338134765625,37.4560546875 12.36328125,36.943359375 12.36328125,34.013671875 7.49999904632568,33.24462890625 3.984375,31.40625 1.85302710533142,28.57177734375 1.142578125,24.814453125 1.85302710533142,21.0388202667236 3.984375,18.2080078125 7.49999904632568,16.380615234375 12.36328125,15.615234375 12.36328125,6.38671875z M13.59375,0L17.4536113739014,0.659182548522949 21.298828125,2.63671875 20.419921875,4.62890625 17.0068359375,2.87109351158142 13.59375,2.34375 10.400390625,2.87109351158142 7.236328125,4.62890625 6.357421875,2.63671875 10.04150390625,0.659182548522949 13.59375,0z" />
    </g>
  </g>
</svg>