<?xml version="1.0" encoding="utf-8"?>
<!DOCTYPE svg PUBLIC "-//W3C//DTD SVG 1.1//EN" "http://www.w3.org/Graphics/SVG/1.1/DTD/svg11.dtd">
<svg width="30.99609375" height="52.822265625" xmlns="http://www.w3.org/2000/svg" xmlns:xlink="http://www.w3.org/1999/xlink" xmlns:xml="http://www.w3.org/XML/1998/namespace" version="1.1">
  <g>
    <g>
      <path style="fill:#FF0000;fill-opacity:1" d="M6.533203125,12.216796875L6.9140625,12.216796875 15.41015625,18.720703125 14.033203125,20.595703125 8.876953125,16.2890625 8.876953125,39.66796875 8.3203125,39.66796875 0,33.1640625 1.376953125,31.2890625 6.533203125,35.595703125 6.533203125,12.216796875z M17.9296875,6.38671922683716L18.57421875,6.38671922683716 30.99609375,13.916015625 29.53125,16.11328125 20.33203125,10.37109375 20.33203125,20.0390625 30.99609375,26.66015625 29.53125,28.857421875 20.302734375,23.0859375 20.302734375,32.783203125 30.99609375,39.404296875 29.53125,41.6015625 20.33203125,35.859375 20.302734375,52.822265625 19.6875,52.822265625 7.265625,45.29296875 8.73046875,43.095703125 17.9296875,48.837890625 17.9296875,6.38671922683716z M15.234375,0L19.0942363739014,0.659182548522949 22.939453125,2.63671875 22.060546875,4.62890672683716 18.6474609375,2.87109351158142 15.234375,2.34374976158142 12.041015625,2.87109351158142 8.876953125,4.62890672683716 7.998046875,2.63671875 11.68212890625,0.659182548522949 15.234375,0z" />
    </g>
  </g>
</svg>