<?xml version="1.0" encoding="utf-8"?>
<!DOCTYPE svg PUBLIC "-//W3C//DTD SVG 1.1//EN" "http://www.w3.org/Graphics/SVG/1.1/DTD/svg11.dtd">
<svg width="22.001953125" height="46.435546875" xmlns="http://www.w3.org/2000/svg" xmlns:xlink="http://www.w3.org/1999/xlink" xmlns:xml="http://www.w3.org/XML/1998/namespace" version="1.1">
  <g>
    <g>
      <path style="fill:#FF0000;fill-opacity:1" d="M16.0546875,15.791015625L14.9047832489014,15.9851093292236 14.033203125,16.5673828125 12.94921875,18.4716796875 12.5244140625,20.888671875 12.451171875,23.203125 12.5244140625,25.517578125 12.94921875,27.9345703125 14.033203125,29.8388671875 14.9047832489014,30.421142578125 16.0546875,30.615234375 17.2045879364014,30.421142578125 18.076171875,29.8388671875 19.16015625,27.9345703125 19.5849609375,25.5322265625 19.658203125,23.232421875 19.5849609375,20.91796875 19.16015625,18.486328125 18.076171875,16.5673828125 17.2045879364014,15.9851093292236 16.0546875,15.791015625z M16.0546875,13.447265625L17.6843242645264,13.6523456573486 18.9990234375,14.267578125 20.8154296875,16.4501953125 21.73828125,19.5703125 22.001953125,23.232421875 21.73828125,26.865234375 20.8154296875,29.970703125 18.9990234375,32.138671875 17.6843242645264,32.75390625 16.0546875,32.958984375 14.425048828125,32.757568359375 13.1103515625,32.1533203125 11.2939453125,29.9853515625 10.37109375,26.865234375 10.107421875,23.203125 10.37109375,19.541015625 11.2939453125,16.4208984375 13.1103515625,14.2529296875 14.425048828125,13.6486835479736 16.0546875,13.447265625z M21.064453125,0L21.97265625,2.51953125 17.7758769989014,4.1162109375 13.974609375,6.09375 10.623779296875,8.389892578125 7.7783203125,10.9423828125 5.47851467132568,13.7329111099243 3.7646484375,16.7431640625 2.698974609375,19.9182147979736 2.34375,23.203125 2.698974609375,26.49169921875 3.7646484375,29.677734375 5.47851467132568,32.698974609375 7.7783203125,35.4931640625 10.623779296875,38.045654296875 13.974609375,40.341796875 17.7758769989014,42.3193359375 21.97265625,43.916015625 21.064453125,46.435546875 16.5600566864014,44.6337890625 12.48046875,42.451171875 8.88427734375,39.927978515625 5.830078125,37.1044921875 3.36181569099426,33.9990234375 1.5234375,30.6298828125 0.380859375,27.030029296875 0,23.232421875 0.380859375,19.4348163604736 1.5234375,15.8349609375 3.36181569099426,12.4658212661743 5.830078125,9.3603515625 8.88427734375,6.536865234375 12.48046875,4.013671875 16.5600566864014,1.82373046875 21.064453125,0z" />
    </g>
  </g>
</svg>