<?xml version="1.0" encoding="utf-8"?>
<!DOCTYPE svg PUBLIC "-//W3C//DTD SVG 1.1//EN" "http://www.w3.org/Graphics/SVG/1.1/DTD/svg11.dtd">
<svg width="28.271484375" height="43.212890625" xmlns="http://www.w3.org/2000/svg" xmlns:xlink="http://www.w3.org/1999/xlink" xmlns:xml="http://www.w3.org/XML/1998/namespace" version="1.1">
  <g>
    <g>
      <path style="fill:#FF0000;fill-opacity:1" d="M4.74609422683716,40.869140625L23.349609375,40.869140625 23.349609375,43.212890625 4.74609422683716,43.212890625 4.74609422683716,40.869140625z M4.74609422683716,30.908203125L23.349609375,30.908203125 23.349609375,33.251953125 4.74609422683716,33.251953125 4.74609422683716,30.908203125z M0,11.71875L0.585937976837158,11.71875 25.927734375,25.693359375 25.927734375,12.3046875 28.271484375,12.3046875 28.271484375,29.296875 27.685546875,29.296875 2.34375047683716,15.64453125 2.34375047683716,28.7109375 0,28.7109375 0,11.71875z M6.00585985183716,0L6.59179735183716,0 20.537109375,8.291015625 20.537109375,0 22.880859375,0 22.880859375,12.01171875 22.265625,12.01171875 8.349609375,3.720703125 8.349609375,12.01171875 6.00585985183716,12.01171875 6.00585985183716,0z" />
    </g>
  </g>
</svg>