<?xml version="1.0" encoding="utf-8"?>
<!DOCTYPE svg PUBLIC "-//W3C//DTD SVG 1.1//EN" "http://www.w3.org/Graphics/SVG/1.1/DTD/svg11.dtd">
<svg width="27.216796875" height="43.212890625" xmlns="http://www.w3.org/2000/svg" xmlns:xlink="http://www.w3.org/1999/xlink" xmlns:xml="http://www.w3.org/XML/1998/namespace" version="1.1">
  <g>
    <g>
      <path style="fill:#FF0000;fill-opacity:1" d="M24.873046875,14.12109375L19.1455078125,14.9267578125 14.619140625,16.640625 11.279296875,19.130859375 9.111328125,22.265625 16.9921875,22.265625 16.9921875,24.609375 8.3203125,24.609375 8.02734375,27.392578125 8.701171875,31.494140625 16.9921875,31.494140625 16.9921875,33.837890625 9.814453125,33.837890625 12.183837890625,36.507568359375 15.4833984375,38.5986328125 19.7131328582764,40.008544921875 24.873046875,40.634765625 24.873046875,14.12109375z M24.873046875,0L27.216796875,0 27.216796875,43.212890625 23.3166484832764,43.048095703125 19.8193359375,42.5537109375 16.7138671875,41.751708984375 13.9892578125,40.6640625 11.65283203125,39.30908203125 9.7119140625,37.705078125 6.97265625,33.837890625 0,33.837890625 0,31.494140625 6.123046875,31.494140625 5.68359375,27.7734375 5.9765625,24.609375 0,24.609375 0,22.265625 6.591796875,22.265625 8.96484375,18.10546875 12.802734375,14.8388671875 18.10546875,12.5830078125 24.873046875,11.484375 24.873046875,0z" />
    </g>
  </g>
</svg>