<?xml version="1.0" encoding="utf-8"?>
<!DOCTYPE svg PUBLIC "-//W3C//DTD SVG 1.1//EN" "http://www.w3.org/Graphics/SVG/1.1/DTD/svg11.dtd">
<svg width="30.8203125" height="46.435546875" xmlns="http://www.w3.org/2000/svg" xmlns:xlink="http://www.w3.org/1999/xlink" xmlns:xml="http://www.w3.org/XML/1998/namespace" version="1.1">
  <g>
    <g>
      <path style="fill:#FF0000;fill-opacity:1" d="M1.142578125,21.73828125L10.25390625,26.865234375 9.111328125,28.88671875 0,23.759765625 1.142578125,21.73828125z M1.142578125,12.861328125L10.25390625,17.98828125 9.111328125,20.009765625 0,14.8828125 1.142578125,12.861328125z M1.99218702316284,3.984375L11.103515625,9.111328125 9.9609375,11.1328125 0.849609375,6.005859375 1.99218702316284,3.984375z M15.966796875,0L16.552734375,0 30.8203125,8.408203125 29.677734375,10.4296875 18.310546875,3.779296875 18.310546875,19.248046875 21.884765625,20.1123046875 23.6132793426514,21.0131855010986 25.166015625,22.3388671875 26.495361328125,24.122314453125 27.5537109375,26.396484375 28.245849609375,29.23828125 28.4765625,32.724609375 26.279296875,32.724609375 25.6201171875,28.5791015625 24.1845703125,25.25390625 21.796875,22.9248046875 18.310546875,21.796875 18.310546875,46.435546875 17.724609375,46.435546875 3.369140625,37.79296875 4.541015625,35.888671875 15.966796875,42.744140625 15.966796875,0z" />
    </g>
  </g>
</svg>