<?xml version="1.0" encoding="utf-8"?>
<!DOCTYPE svg PUBLIC "-//W3C//DTD SVG 1.1//EN" "http://www.w3.org/Graphics/SVG/1.1/DTD/svg11.dtd">
<svg width="28.271484375" height="44.82421875" xmlns="http://www.w3.org/2000/svg" xmlns:xlink="http://www.w3.org/1999/xlink" xmlns:xml="http://www.w3.org/XML/1998/namespace" version="1.1">
  <g>
    <g>
      <path style="fill:#FF0000;fill-opacity:1" d="M24.345703125,27.12890625L26.689453125,27.12890625 26.689453125,40.8984375 24.345703125,40.8984375 24.345703125,27.12890625z M14.6484375,2.34375L11.9677734375,2.52685546875 9.66796875,3.076171875 6.15234375,5.0537109375 4.0576171875,7.9541015625 3.369140625,11.42578125 4.0576171875,14.8974609375 6.15234375,17.7978515625 9.66796875,19.775390625 11.9677734375,20.3247089385986 14.6484375,20.5078125 19.6142578125,19.775390625 23.14453125,17.783203125 25.2392578125,14.8974609375 25.927734375,11.455078125 25.2392578125,7.9833984375 23.14453125,5.0830078125 19.6142578125,3.0908203125 14.6484375,2.34375z M14.6484375,0L17.79052734375,0.2197265625 20.537109375,0.87890625 22.8771953582764,1.922607421875 24.7998046875,3.2958984375 26.304931640625,4.97314453125 27.392578125,6.9287109375 28.0517578125,9.107666015625 28.271484375,11.455078125 28.07373046875,13.6926288604736 27.48046875,15.7763671875 26.495361328125,17.6623554229736 25.1220703125,19.306640625 23.3642559051514,20.679931640625 21.2255859375,21.7529296875 18.7097148895264,22.481689453125 15.8203125,22.822265625 15.8203125,44.82421875 13.4765625,44.82421875 13.4765625,38.7890625 0,38.7890625 0,36.4453125 13.4765625,36.4453125 13.4765625,29.677734375 0,29.677734375 0,27.333984375 13.4765625,27.333984375 13.4765625,22.822265625 8.0712890625,21.7236328125 5.9326171875,20.6506366729736 4.1748046875,19.27734375 2.801513671875,17.6330585479736 1.81640625,15.7470703125 1.22314417362213,13.6633319854736 1.025390625,11.42578125 1.24511682987213,9.08203125 1.904296875,6.9140625 2.991943359375,4.969482421875 4.4970703125,3.2958984375 6.41967678070068,1.922607421875 8.759765625,0.87890625 11.50634765625,0.2197265625 14.6484375,0z" />
    </g>
  </g>
</svg>