<?xml version="1.0" encoding="utf-8"?>
<!DOCTYPE svg PUBLIC "-//W3C//DTD SVG 1.1//EN" "http://www.w3.org/Graphics/SVG/1.1/DTD/svg11.dtd">
<svg width="28.798828125" height="44.82421875" xmlns="http://www.w3.org/2000/svg" xmlns:xlink="http://www.w3.org/1999/xlink" xmlns:xml="http://www.w3.org/XML/1998/namespace" version="1.1">
  <g>
    <g>
      <path style="fill:#FF0000;fill-opacity:1" d="M15.5859375,14.033203125L15.5859375,25.25390625 19.5227031707764,24.627685546875 22.3095703125,23.5107421875 23.9685039520264,21.859130859375 24.521484375,19.62890625 23.9685039520264,17.4023456573486 22.3095703125,15.76171875 19.5227031707764,14.6557636260986 15.5859375,14.033203125z M13.2421875,0L13.828125,0 26.1328125,7.03125 25.01953125,8.994140625 15.5859375,3.603515625 15.5859375,11.689453125 18.7976055145264,12.132568359375 21.3427734375,12.8173828125 23.3093242645264,13.6999530792236 24.78515625,14.736328125 25.814208984375,15.8898944854736 26.4404296875,17.1240234375 26.865234375,19.62890625 26.4404296875,22.1484375 25.814208984375,23.3935546875 24.78515625,24.55078125 23.3093242645264,25.5908203125 21.3427734375,26.484375 18.7976055145264,27.1728515625 15.5859375,27.59765625 15.5859375,30.791015625 19.74609375,31.9189453125 23.6279296875,34.4677734375 26.7919921875,38.466796875 28.798828125,43.9453125 26.396484375,43.9453125 24.7412109375,39.43359375 22.1337890625,36.1669921875 18.955078125,34.0869140625 15.5859375,33.1640625 15.5859375,44.82421875 13.2421875,44.82421875 13.2421875,33.134765625 9.8583984375,34.0869140625 6.6650390625,36.1669921875 4.0576171875,39.43359375 2.40234375,43.9453125 0,43.9453125 0.823974251747131,41.0009765625 2.0068359375,38.4375 5.1708984375,34.4384765625 9.0673828125,31.904296875 13.2421875,30.791015625 13.2421875,27.71484375 12.392578125,27.744140625 11.54296875,27.744140625 2.40234375,27.744140625 2.40234375,25.400390625 11.572265625,25.400390625 12.392578125,25.400390625 13.2421875,25.37109375 13.2421875,20.80078125 2.40234375,20.80078125 2.40234375,18.45703125 13.2421875,18.45703125 13.2421875,13.88671875 12.4072265625,13.8720703125 11.572265625,13.857421875 2.40234375,13.857421875 2.40234375,11.513671875 11.572265625,11.513671875 12.421875,11.5283203125 13.2421875,11.54296875 13.2421875,0z" />
    </g>
  </g>
</svg>