<?xml version="1.0" encoding="utf-8"?>
<!DOCTYPE svg PUBLIC "-//W3C//DTD SVG 1.1//EN" "http://www.w3.org/Graphics/SVG/1.1/DTD/svg11.dtd">
<svg width="29.619140625" height="46.435546875" xmlns="http://www.w3.org/2000/svg" xmlns:xlink="http://www.w3.org/1999/xlink" xmlns:xml="http://www.w3.org/XML/1998/namespace" version="1.1">
  <g>
    <g>
      <path style="fill:#FF0000;fill-opacity:1" d="M10.517578125,2.34375L8.433837890625,2.74658203125 6.69433641433716,3.955078125 5.27710008621216,5.86669921875 4.16015672683716,8.37890625 3.32885789871216,11.4404296875 2.76855516433716,15 2.34375047683716,23.203125 2.76855516433716,31.40625 3.32885789871216,34.969482421875 4.16015672683716,38.0419921875 5.27710008621216,40.565185546875 6.69433641433716,42.48046875 8.433837890625,43.68896484375 10.517578125,44.091796875 12.601318359375,43.68896484375 14.3408203125,42.48046875 15.758056640625,40.565185546875 16.875,38.0419921875 17.706298828125,34.969482421875 18.2666015625,31.40625 18.69140625,23.203125 18.2666015625,15 17.706298828125,11.4404296875 16.875,8.37890625 15.758056640625,5.86669921875 14.3408203125,3.955078125 12.601318359375,2.74658203125 10.517578125,2.34375z M10.517578125,0L13.494873046875,0.5126953125 15.9814453125,2.05078125 17.9772930145264,4.7021484375 19.482421875,8.5546875 29.619140625,8.5546875 29.619140625,10.8984375 20.0390625,10.8984375 20.7421855926514,15.9082050323486 21.03515625,22.03125 29.619140625,22.03125 29.619140625,24.375 21.03515625,24.375 20.7421855926514,30.498046875 20.0390625,35.5078125 29.619140625,35.5078125 29.619140625,37.8515625 19.482421875,37.8515625 17.9809551239014,41.72607421875 15.99609375,44.384765625 13.51318359375,45.9228515625 10.517578125,46.435546875 8.0712890625,46.10595703125 5.94726610183716,45.1171875 4.14550828933716,43.421630859375 2.66601610183716,40.9716796875 1.50878918170929,37.752685546875 0.673828601837158,33.75 0.168457448482513,28.916015625 0,23.203125 0.168457448482513,17.4902362823486 0.673828601837158,12.65625 1.50878918170929,8.6572265625 2.66601610183716,5.44921875 4.14550828933716,3.01025390625 5.94726610183716,1.318359375 8.0712890625,0.32958984375 10.517578125,0z" />
    </g>
  </g>
</svg>