<?xml version="1.0" encoding="utf-8"?>
<!DOCTYPE svg PUBLIC "-//W3C//DTD SVG 1.1//EN" "http://www.w3.org/Graphics/SVG/1.1/DTD/svg11.dtd">
<svg width="29.033203125" height="52.822265625" xmlns="http://www.w3.org/2000/svg" xmlns:xlink="http://www.w3.org/1999/xlink" xmlns:xml="http://www.w3.org/XML/1998/namespace" version="1.1">
  <g>
    <g>
      <path style="fill:#FF0000;fill-opacity:1" d="M27.568359375,17.373046875L28.9453125,19.21875 26.8249492645264,20.9271259307861 25.1220684051514,22.9760761260986 23.8366680145264,25.3656024932861 22.96875,28.095703125 29.033203125,28.095703125 29.033203125,30.439453125 22.96875,30.439453125 23.5070781707764,33.248291015625 24.6826152801514,35.9033203125 26.4953594207764,38.404541015625 28.9453125,40.751953125 27.568359375,42.626953125 24.7357158660889,39.832763671875 22.6245098114014,36.8701171875 21.2347393035889,33.739013671875 20.56640625,30.439453125 17.724609375,30.439453125 17.724609375,28.095703125 20.56640625,28.095703125 21.6522197723389,24.6459980010986 23.1811504364014,21.7089862823486 25.1531963348389,19.2846698760986 27.568359375,17.373046875z M28.06640625,6.38671922683716L29.033203125,8.73046875 23.7451171875,12.8759765625 19.5849609375,17.8857421875 18.0322265625,20.6359882354736 16.8603515625,23.525390625 16.124267578125,26.5136737823486 15.87890625,29.560546875 16.124267578125,32.611083984375 16.8603515625,35.6103515625 18.0322265625,38.51806640625 19.5849609375,41.2939453125 23.7451171875,46.34765625 29.033203125,50.478515625 28.06640625,52.822265625 22.1484375,48.10546875 17.5634765625,42.421875 15.860595703125,39.345703125 14.58984375,36.15234375 13.798828125,32.900390625 13.53515625,29.6484375 13.6083984375,27.919921875 13.828125,26.162109375 8.876953125,21.796875 8.876953125,52.822265625 8.291015625,52.822265625 0,44.853515625 1.37695360183716,42.978515625 6.533203125,48.1640625 6.533203125,17.080078125 7.119140625,17.080078125 14.384765625,23.73046875 16.3916015625,18.80859375 19.423828125,14.150390625 23.3642578125,9.9609375 28.06640625,6.38671922683716z M14.267578125,0L18.1274394989014,0.659182548522949 21.97265625,2.63671875 21.09375,4.62890672683716 17.6806640625,2.87109351158142 14.267578125,2.34374976158142 11.07421875,2.87109351158142 7.91015625,4.62890672683716 7.03125,2.63671875 10.71533203125,0.659182548522949 14.267578125,0z" />
    </g>
  </g>
</svg>