<?xml version="1.0" encoding="utf-8"?>
<!DOCTYPE svg PUBLIC "-//W3C//DTD SVG 1.1//EN" "http://www.w3.org/Graphics/SVG/1.1/DTD/svg11.dtd">
<svg width="29.443359375" height="52.822265625" xmlns="http://www.w3.org/2000/svg" xmlns:xlink="http://www.w3.org/1999/xlink" xmlns:xml="http://www.w3.org/XML/1998/namespace" version="1.1">
  <g>
    <g>
      <path style="fill:#FF0000;fill-opacity:1" d="M3.63281297683716,18.984375L3.63281297683716,32.431640625 3.94043016433716,38.15185546875 4.86328172683716,42.71484375 9.609375,34.1015625 11.6015625,35.419921875 6.00585985183716,45.556640625 7.562255859375,47.783203125 9.4775390625,49.306640625 11.759033203125,50.185546875 14.4140625,50.478515625 17.21923828125,50.145263671875 19.599609375,49.1455078125 21.5624980926514,47.427978515625 23.115234375,44.94140625 17.841796875,35.419921875 19.833984375,34.1015625 25.166015625,41.953125 25.0341796875,37.6611328125 25.166015625,32.431640625 25.166015625,18.984375 3.63281297683716,18.984375z M1.28906297683716,7.998046875L3.63281297683716,7.998046875 3.63281297683716,16.640625 25.166015625,16.640625 25.166015625,7.998046875 27.509765625,7.998046875 27.509765625,32.431640625 27.0703125,39.375 25.751953125,44.853515625 29.443359375,51.50390625 27.48046875,52.822265625 24.521484375,47.490234375 22.6647930145264,49.8779296875 20.3759765625,51.533203125 17.633056640625,52.5 14.4140625,52.822265625 11.34521484375,52.529296875 8.701171875,51.650390625 6.46728467941284,50.15625 4.62890672683716,48.017578125 1.96289110183716,52.822265625 0,51.50390625 3.31054735183716,45.52734375 2.42614793777466,42.8961181640625 1.79443383216858,39.83642578125 1.41540551185608,36.3482666015625 1.28906297683716,32.431640625 1.28906297683716,7.998046875z M14.384765625,0L18.2446269989014,0.659182548522949 22.08984375,2.63671875 21.2109375,4.62890672683716 17.7978515625,2.87109351158142 14.384765625,2.34374976158142 11.19140625,2.87109351158142 8.02734375,4.62890672683716 7.14843797683716,2.63671875 10.83251953125,0.659182548522949 14.384765625,0z" />
    </g>
  </g>
</svg>