<?xml version="1.0" encoding="utf-8"?>
<!DOCTYPE svg PUBLIC "-//W3C//DTD SVG 1.1//EN" "http://www.w3.org/Graphics/SVG/1.1/DTD/svg11.dtd">
<svg width="29.4140625" height="44.82421875" xmlns="http://www.w3.org/2000/svg" xmlns:xlink="http://www.w3.org/1999/xlink" xmlns:xml="http://www.w3.org/XML/1998/namespace" version="1.1">
  <g>
    <g>
      <path style="fill:#FF0000;fill-opacity:1" d="M12.71484375,0L14.952392578125,0.2490234375 16.8017578125,0.99609375 19.482421875,3.57421875 20.947265625,7.0751953125 21.38671875,10.83984375 21.38671875,24.66796875 23.3642578125,23.6572265625 24.8583984375,21.943359375 25.9130859375,19.74609375 26.6015625,17.255859375 26.9677734375,14.677734375 27.0703125,12.24609375 29.4140625,12.24609375 28.9599609375,17.2119140625 27.5390625,21.73828125 25.048828125,25.224609375 23.3715801239014,26.396484375 21.38671875,27.041015625 21.38671875,35.15625 21.1413555145264,37.166748046875 20.4052734375,38.5693359375 19.2150859832764,39.393310546875 17.607421875,39.66796875 15.556640625,39.345703125 12.919921875,38.26171875 5.419921875,34.39453125 5.419921875,44.82421875 3.076171875,44.82421875 3.076171875,30.8203125 3.662109375,30.8203125 14.853515625,36.474609375 16.083984375,36.9580078125 17.138671875,37.20703125 18.5595703125,36.6357421875 18.8928203582764,35.855712890625 19.04296875,34.658203125 19.04296875,27.158203125 16.871337890625,26.634521484375 15.0439453125,25.5322265625 12.3486328125,22.060546875 10.8251953125,17.4169921875 10.341796875,12.24609375 12.685546875,12.24609375 12.9638671875,16.1572265625 13.9599609375,20.0830078125 15.908203125,23.2177734375 17.30712890625,24.261474609375 19.04296875,24.78515625 19.04296875,10.83984375 18.7060546875,7.8955078125 17.6220703125,5.15625 15.6591796875,3.134765625 14.315185546875,2.54150390625 12.71484375,2.34375 10.4443359375,2.7685546875 7.67578125,4.1162109375 4.6728515625,6.4892578125 1.69921875,10.01953125 0,8.642578125 3.22265625,4.62890625 6.6650390625,1.962890625 9.9462890625,0.46875 12.71484375,0z" />
    </g>
  </g>
</svg>