<?xml version="1.0" encoding="utf-8"?>
<!DOCTYPE svg PUBLIC "-//W3C//DTD SVG 1.1//EN" "http://www.w3.org/Graphics/SVG/1.1/DTD/svg11.dtd">
<svg width="26.89453125" height="46.435546875" xmlns="http://www.w3.org/2000/svg" xmlns:xlink="http://www.w3.org/1999/xlink" xmlns:xml="http://www.w3.org/XML/1998/namespace" version="1.1">
  <g>
    <g>
      <path style="fill:#FF0000;fill-opacity:1" d="M17.783203125,11.25L16.109619140625,14.0039081573486 14.9560546875,16.93359375 14.285888671875,20.0097675323486 14.0625,23.203125 14.2822265625,26.414794921875 14.94140625,29.4873046875 16.06201171875,32.406005859375 17.666015625,35.15625 18.4423828125,29.3115234375 18.69140625,22.236328125 18.486328125,16.318359375 17.783203125,11.25z M10.517578125,2.34375L8.433837890625,2.7099609375 6.69433641433716,3.80859375 5.277099609375,5.562744140625 4.16015672683716,7.8955078125 3.32885789871216,10.777587890625 2.76855516433716,14.1796875 2.34375047683716,22.236328125 2.44995164871216,27.04833984375 2.76855516433716,31.34765625 3.32885789871216,35.086669921875 4.16015672683716,38.2177734375 5.277099609375,40.718994140625 6.69433641433716,42.568359375 8.433837890625,43.7109375 10.517578125,44.091796875 12.64892578125,43.6962890625 14.4140625,42.509765625 15.84228515625,40.576171875 16.962890625,37.939453125 14.64111328125,34.683837890625 13.0078125,31.1279296875 12.041015625,27.301025390625 11.71875,23.232421875 12.041015625,19.1088886260986 13.0078125,15.234375 14.65576171875,11.63818359375 17.021484375,8.349609375 15.90087890625,5.82275390625 14.47265625,3.92578125 12.69287109375,2.7392578125 10.517578125,2.34375z M10.517578125,0L13.238525390625,0.369873046875 15.5419921875,1.4794921875 17.4426250457764,3.438720703125 18.955078125,6.357421875 22.2802715301514,3.7939453125 26.220703125,1.611328125 26.89453125,4.04296875 22.939453125,6.298828125 19.775390625,8.935546875 20.3173809051514,11.6455078125 20.712890625,14.736328125 20.9545879364014,18.2519550323486 21.03515625,22.236328125 20.9362773895264,26.707763671875 20.6396465301514,30.7177734375 20.1452617645264,34.266357421875 19.453125,37.353515625 22.763671875,40.25390625 26.89453125,42.626953125 26.220703125,44.82421875 22.1044921875,42.4951171875 18.69140625,39.755859375 17.2027587890625,42.67822265625 15.34423828125,44.765625 13.1158447265625,46.01806640625 10.517578125,46.435546875 8.082275390625,46.0638427734375 5.96191358566284,44.94873046875 4.156494140625,43.0902099609375 2.66601610183716,40.48828125 1.49963402748108,37.1173095703125 0.666503965854645,32.95166015625 0.1666259765625,27.9913330078125 0,22.236328125 0.168457090854645,16.5600605010986 0.673828601837158,11.8359375 1.50878953933716,7.994384765625 2.66601610183716,4.9658203125 4.14550828933716,2.706298828125 5.94726610183716,1.171875 8.0712890625,0.29296875 10.517578125,0z" />
    </g>
  </g>
</svg>