<?xml version="1.0" encoding="utf-8"?>
<!DOCTYPE svg PUBLIC "-//W3C//DTD SVG 1.1//EN" "http://www.w3.org/Graphics/SVG/1.1/DTD/svg11.dtd">
<svg width="32.05078125" height="52.177734375" xmlns="http://www.w3.org/2000/svg" xmlns:xlink="http://www.w3.org/1999/xlink" xmlns:xml="http://www.w3.org/XML/1998/namespace" version="1.1">
  <g>
    <g>
      <path style="fill:#FF0000;fill-opacity:1" d="M12.1875,21.50390625L8.876953125,29.47265625 12.1875,36.50390625 12.1875,21.50390625z M14.53125,20.712890625L14.53125,38.37890625 19.248046875,29.47265625 14.53125,20.712890625z M29.70703125,14.677734375L21.884765625,29.47265625 29.70703125,44.326171875 29.70703125,14.677734375z M30.76171875,7.998046875L32.05078125,7.998046875 32.05078125,51.2109375 30.76171875,51.2109375 20.537109375,31.9921875 9.755859375,52.177734375 7.91015625,50.859375 12.7734375,41.66015625 12.65625,41.66015625 7.5,31.81640625 1.376953125,44.94140625 0,43.505859375 6.533203125,29.47265625 0.498047351837158,15.849609375 2.34374952316284,14.94140625 7.5,27.12890625 11.689453125,17.783203125 12.94921875,17.783203125 8.3203125,9.169921875 10.48828125,8.26171875 20.537109375,27.099609375 30.76171875,7.998046875z M15.849609375,0L19.7094707489014,0.659182548522949 23.5546875,2.63671898841858 22.67578125,4.62890672683716 19.2626953125,2.87109375 15.849609375,2.34374976158142 12.65625,2.87109375 9.4921875,4.62890672683716 8.61328125,2.63671898841858 12.29736328125,0.659182548522949 15.849609375,0z" />
    </g>
  </g>
</svg>