<?xml version="1.0" encoding="utf-8"?>
<!DOCTYPE svg PUBLIC "-//W3C//DTD SVG 1.1//EN" "http://www.w3.org/Graphics/SVG/1.1/DTD/svg11.dtd">
<svg width="27.568359375" height="51.2109375" xmlns="http://www.w3.org/2000/svg" xmlns:xlink="http://www.w3.org/1999/xlink" xmlns:xml="http://www.w3.org/XML/1998/namespace" version="1.1">
  <g>
    <g>
      <path style="fill:#FF0000;fill-opacity:1" d="M12.36328125,7.998046875L14.70703125,7.998046875 14.70703125,20.830078125 17.9443359375,19.6435546875 20.9912109375,17.1826171875 23.525390625,13.5498046875 25.224609375,8.876953125 27.568359375,8.876953125 25.517578125,14.5751953125 22.4853515625,18.9990234375 20.7019023895264,20.6652851104736 18.779296875,21.943359375 16.76513671875,22.8076190948486 14.70703125,23.232421875 14.70703125,28.388671875 25.693359375,28.388671875 25.693359375,30.732421875 14.70703125,30.732421875 14.70703125,36.005859375 16.76513671875,36.412353515625 18.779296875,37.2802734375 22.4853515625,40.224609375 25.517578125,44.6337890625 27.568359375,50.33203125 25.224609375,50.33203125 23.525390625,45.673828125 20.9912109375,42.0556640625 17.9443359375,39.580078125 14.70703125,38.37890625 14.70703125,51.2109375 12.36328125,51.2109375 12.36328125,38.37890625 9.1552734375,39.5654296875 6.2548828125,42.0263671875 3.92578125,45.6591796875 2.40234375,50.33203125 0,50.33203125 1.8896484375,44.7216796875 4.775390625,40.3857421875 8.3642578125,37.470703125 10.338134765625,36.5771484375 12.36328125,36.064453125 12.36328125,30.732421875 1.376953125,30.732421875 1.376953125,28.388671875 12.36328125,28.388671875 12.36328125,23.14453125 10.338134765625,22.6501483917236 8.3642578125,21.7529296875 4.775390625,18.837890625 1.8896484375,14.5166015625 0,8.876953125 2.40234375,8.876953125 3.92578125,13.5498046875 6.2548828125,17.1826171875 9.1552734375,19.6435546875 12.36328125,20.830078125 12.36328125,7.998046875z M13.53515625,0L17.3950176239014,0.659182548522949 21.240234375,2.63671875 20.361328125,4.62890625 16.9482421875,2.87109351158142 13.53515625,2.34375 10.341796875,2.87109351158142 7.177734375,4.62890625 6.298828125,2.63671875 9.98291015625,0.659182548522949 13.53515625,0z" />
    </g>
  </g>
</svg>