<?xml version="1.0" encoding="utf-8"?>
<!DOCTYPE svg PUBLIC "-//W3C//DTD SVG 1.1//EN" "http://www.w3.org/Graphics/SVG/1.1/DTD/svg11.dtd">
<svg width="28.3593750000005" height="46.435546875" xmlns="http://www.w3.org/2000/svg" xmlns:xlink="http://www.w3.org/1999/xlink" xmlns:xml="http://www.w3.org/XML/1998/namespace" version="1.1">
  <g>
    <g>
      <path style="fill:#FF0000;fill-opacity:1" d="M2.34375,24.19921875L3.1494140625,32.0654296875 4.075927734375,35.467529296875 5.361328125,38.37890625 7.00927639007568,40.75927734375 9.0234375,42.568359375 11.4111328125,43.7109375 14.1796875,44.091796875 16.92626953125,43.7109375 19.306640625,42.568359375 21.3207988739014,40.75927734375 22.96875,38.37890625 24.2541484832764,35.467529296875 25.1806640625,32.0654296875 26.015625,24.19921875 2.34375,24.19921875z M14.1796875,2.34375L11.458740234375,2.71728515625 9.0966796875,3.837890625 7.09350490570068,5.614013671875 5.44921875,7.9541015625 4.16015625,10.814208984375 3.22265625,14.150390625 2.34375,21.85546875 25.986328125,21.85546875 25.107421875,14.150390625 24.1699199676514,10.814208984375 22.880859375,7.9541015625 21.2402324676514,5.614013671875 19.248046875,3.837890625 16.89697265625,2.71728515625 14.1796875,2.34375z M14.1796875,0L17.362060546875,0.3955078125 20.1708984375,1.58203125 22.5915508270264,3.515625 24.609375,6.15234375 26.21337890625,9.473876953125 27.392578125,13.4619140625 28.11767578125,18.0725116729736 28.359375,23.26171875 28.121337890625,28.46923828125 27.4072265625,33.076171875 26.239013671875,37.0458984375 24.638671875,40.341796875 22.6171855926514,42.952880859375 20.185546875,44.8681640625 17.36572265625,46.043701171875 14.1796875,46.435546875 10.99365234375,46.043701171875 8.173828125,44.8681640625 5.7421875,42.952880859375 3.720703125,40.341796875 2.12036108970642,37.0458984375 0.9521484375,33.076171875 0.238036751747131,28.46923828125 0,23.26171875 0.238036751747131,18.0725116729736 0.9521484375,13.4619140625 2.12402319908142,9.473876953125 3.7353515625,6.15234375 5.767822265625,3.515625 8.203125,1.58203125 11.015625,0.3955078125 14.1796875,0z" />
    </g>
  </g>
</svg>