<?xml version="1.0" encoding="utf-8"?>
<!DOCTYPE svg PUBLIC "-//W3C//DTD SVG 1.1//EN" "http://www.w3.org/Graphics/SVG/1.1/DTD/svg11.dtd">
<svg width="28.9453125" height="44.82421875" xmlns="http://www.w3.org/2000/svg" xmlns:xlink="http://www.w3.org/1999/xlink" xmlns:xml="http://www.w3.org/XML/1998/namespace" version="1.1">
  <g>
    <g>
      <path style="fill:#FF0000;fill-opacity:1" d="M14.619140625,26.66015625L11.513671875,27.24609375 9.4189453125,28.88671875 8.2470703125,31.3916015625 7.880859375,34.5703125 8.232421875,37.7197265625 9.375,40.224609375 11.455078125,41.8798828125 14.619140625,42.48046875 17.4462890625,41.89453125 19.5556640625,40.2685546875 20.888671875,37.7783203125 21.357421875,34.5703125 20.9033203125,31.3916015625 19.5703125,28.88671875 17.4462890625,27.24609375 14.619140625,26.66015625z M14.619140625,24.31640625L18.45703125,25.01953125 21.3134765625,27.041015625 23.0859375,30.263671875 23.701171875,34.5703125 23.0859375,38.90625 21.298828125,42.12890625 18.427734375,44.1357421875 14.560546875,44.82421875 10.7080078125,44.1357421875 7.880859375,42.12890625 6.1376953125,38.90625 5.537109375,34.5703125 6.123046875,30.267333984375 7.880859375,27.0263671875 10.7373046875,24.993896484375 14.619140625,24.31640625z M16.5234375,0L18.8671875,0 18.8671875,9.9609375 19.04296875,13.0517578125 19.658203125,15.673828125 20.8447265625,17.490234375 22.734375,18.1640625 24.6533203125,17.490234375 25.83984375,15.673828125 26.4404296875,13.0517578125 26.6015625,9.9609375 26.6015625,0 28.9453125,0 28.9453125,9.9609375 28.681640625,13.916015625 27.7294921875,17.28515625 25.8251953125,19.62890625 24.4445781707764,20.2880859375 22.734375,20.5078125 21.0278301239014,20.2880859375 19.658203125,19.62890625 17.75390625,17.28515625 16.787109375,13.916015625 16.5234375,9.9609375 16.5234375,0z M0,0L2.34375,0 2.34375,9.9609375 2.51953125,13.0517578125 3.134765625,15.673828125 4.3212890625,17.490234375 6.2109375,18.1640625 8.1298828125,17.490234375 9.31640625,15.673828125 9.9169921875,13.0517578125 10.078125,9.9609375 10.078125,0 12.421875,0 12.421875,9.9609375 12.158203125,13.916015625 11.2060546875,17.28515625 9.3017578125,19.62890625 7.92114162445068,20.2880859375 6.2109375,20.5078125 4.50439453125,20.2880859375 3.134765625,19.62890625 1.23046875,17.28515625 0.263671875,13.916015625 0,9.9609375 0,0z" />
    </g>
  </g>
</svg>