<?xml version="1.0" encoding="utf-8"?>
<!DOCTYPE svg PUBLIC "-//W3C//DTD SVG 1.1//EN" "http://www.w3.org/Graphics/SVG/1.1/DTD/svg11.dtd">
<svg width="26.220703125" height="43.212890625" xmlns="http://www.w3.org/2000/svg" xmlns:xlink="http://www.w3.org/1999/xlink" xmlns:xml="http://www.w3.org/XML/1998/namespace" version="1.1">
  <g>
    <g>
      <path style="fill:#FF0000;fill-opacity:1" d="M20.44921875,15.439453125L22.79296875,15.439453125 22.79296875,27.158203125 20.44921875,27.158203125 20.44921875,15.439453125z M23.876953125,0L26.220703125,0 26.220703125,13.037109375 25.634765625,13.037109375 11.8359375,7.6171875 11.8359375,34.98046875 25.634765625,29.560546875 26.220703125,29.560546875 26.220703125,43.212890625 23.876953125,43.212890625 23.876953125,32.63671875 10.078125,38.26171875 9.4921875,38.26171875 9.4921875,15.3515625 6.77490139007568,16.7358417510986 4.658203125,19.072265625 3.17138671875,22.36083984375 2.34375,26.6015625 0,26.6015625 0.908202946186066,21.4892578125 2.8125,17.51953125 5.68359279632568,14.6923847198486 9.4921875,13.0078125 9.4921875,4.3359375 10.078125,4.3359375 23.876953125,9.9609375 23.876953125,0z" />
    </g>
  </g>
</svg>