<?xml version="1.0" encoding="utf-8"?>
<!DOCTYPE svg PUBLIC "-//W3C//DTD SVG 1.1//EN" "http://www.w3.org/Graphics/SVG/1.1/DTD/svg11.dtd">
<svg width="29.0039062500006" height="43.212890625" xmlns="http://www.w3.org/2000/svg" xmlns:xlink="http://www.w3.org/1999/xlink" xmlns:xml="http://www.w3.org/XML/1998/namespace" version="1.1">
  <g>
    <g>
      <path style="fill:#FF0000;fill-opacity:1" d="M15.673828125,26.8359375L15.673828125,38.232421875 20.2880859375,37.6904296875 23.7451171875,36.4892578125 25.9130859375,34.74609375 26.66015625,32.548828125 25.9130859375,30.3369140625 23.7451171875,28.5791015625 20.2880859375,27.3779296875 15.673828125,26.8359375z M13.330078125,26.8359375L8.6865234375,27.36328125 5.244140625,28.5498046875 3.0908203125,30.3076171875 2.34375,32.51953125 3.0908203125,34.7314453125 5.244140625,36.4892578125 8.6865234375,37.6904296875 13.330078125,38.232421875 13.330078125,26.8359375z M25.048828125,18.603515625L27.392578125,18.603515625 27.392578125,24.462890625 25.048828125,24.462890625 25.048828125,18.603515625z M1.611328125,18.603515625L3.955078125,18.603515625 3.955078125,24.462890625 1.611328125,24.462890625 1.611328125,18.603515625z M15.673828125,4.86328125L15.673828125,16.259765625 20.2880859375,15.7177734375 23.7451171875,14.5166015625 25.9130859375,12.7734375 26.66015625,10.576171875 25.9130859375,8.3642578125 23.7451171875,6.6064453125 20.2880859375,5.4052734375 15.673828125,4.86328125z M13.330078125,4.86328125L8.6865234375,5.390625 5.244140625,6.5771484375 3.0908203125,8.3349609375 2.34375,10.546875 3.0908203125,12.7587890625 5.244140625,14.5166015625 8.6865234375,15.7177734375 13.330078125,16.259765625 13.330078125,4.86328125z M13.330078125,0L15.673828125,0 15.673828125,2.51953125 21.2255859375,3.2080078125 25.4296875,4.8486328125 26.956787109375,5.9912109375 28.0810546875,7.3388671875 28.773193359375,8.873291015625 29.00390625,10.576171875 28.773193359375,12.2973651885986 28.0810546875,13.828125 26.956787109375,15.1611347198486 25.4296875,16.2890625 21.2255859375,17.9150390625 15.673828125,18.603515625 15.673828125,24.4921875 21.2255859375,25.1806640625 25.4296875,26.8212890625 26.956787109375,27.9638671875 28.0810546875,29.3115234375 28.773193359375,30.845947265625 29.00390625,32.548828125 28.773193359375,34.27001953125 28.0810546875,35.80078125 26.956787109375,37.1337890625 25.4296875,38.26171875 21.2255859375,39.8876953125 15.673828125,40.576171875 15.673828125,43.212890625 13.330078125,43.212890625 13.330078125,40.576171875 7.763671875,39.8876953125 3.57421875,38.2470703125 2.047119140625,37.108154296875 0.922852039337158,35.771484375 0.230712592601776,34.24072265625 0,32.51953125 0.230712592601776,30.8203125 0.922852039337158,29.296875 2.047119140625,27.960205078125 3.57421875,26.8212890625 7.763671875,25.1806640625 13.330078125,24.4921875 13.330078125,18.603515625 7.763671875,17.9150390625 3.57421875,16.2744140625 2.047119140625,15.1354999542236 0.922852039337158,13.798828125 0.230712592601776,12.2680683135986 0,10.546875 0.230712592601776,8.84765625 0.922852039337158,7.32421875 2.047119140625,5.987548828125 3.57421875,4.8486328125 7.763671875,3.2080078125 13.330078125,2.51953125 13.330078125,0z" />
    </g>
  </g>
</svg>