<?xml version="1.0" encoding="utf-8"?>
<!DOCTYPE svg PUBLIC "-//W3C//DTD SVG 1.1//EN" "http://www.w3.org/Graphics/SVG/1.1/DTD/svg11.dtd">
<svg width="27.685546875" height="51.2109375" xmlns="http://www.w3.org/2000/svg" xmlns:xlink="http://www.w3.org/1999/xlink" xmlns:xml="http://www.w3.org/XML/1998/namespace" version="1.1">
  <g>
    <g>
      <path style="fill:#FF0000;fill-opacity:1" d="M18.779296875,42.421875L21.123046875,42.421875 21.123046875,51.2109375 18.779296875,51.2109375 18.779296875,42.421875z M4.62890625,42.421875L6.97265625,42.421875 6.97265625,51.2109375 4.62890625,51.2109375 4.62890625,42.421875z M0,21.181640625L16.875,21.181640625 21.4306640625,21.8701171875 24.8291015625,23.5693359375 26.953125,26.1328125 27.685546875,29.4140625 26.9384765625,32.6806640625 24.7998046875,35.2294921875 21.4013671875,36.9140625 16.875,37.587890625 0,37.587890625 0,35.244140625 16.875,35.244140625 20.44921875,34.716796875 23.115234375,33.4716796875 24.7705078125,31.640625 25.341796875,29.35546875 24.755859375,27.0849609375 23.0712890625,25.283203125 20.4052734375,24.052734375 16.875,23.525390625 0,23.525390625 0,21.181640625z M18.779296875,7.998046875L21.123046875,7.998046875 21.123046875,16.787109375 18.779296875,16.787109375 18.779296875,7.998046875z M4.62890625,7.998046875L6.97265625,7.998046875 6.97265625,16.787109375 4.62890625,16.787109375 4.62890625,7.998046875z M13.623046875,0L17.4829082489014,0.659182548522949 21.328125,2.63671875 20.44921875,4.62890625 17.0361328125,2.87109351158142 13.623046875,2.34375 10.4296875,2.87109351158142 7.265625,4.62890625 6.38671875,2.63671875 10.07080078125,0.659182548522949 13.623046875,0z" />
    </g>
  </g>
</svg>