<?xml version="1.0" encoding="utf-8"?>
<!DOCTYPE svg PUBLIC "-//W3C//DTD SVG 1.1//EN" "http://www.w3.org/Graphics/SVG/1.1/DTD/svg11.dtd">
<svg width="31.171875" height="52.822265625" xmlns="http://www.w3.org/2000/svg" xmlns:xlink="http://www.w3.org/1999/xlink" xmlns:xml="http://www.w3.org/XML/1998/namespace" version="1.1">
  <g>
    <g>
      <path style="fill:#FF0000;fill-opacity:1" d="M23.203125,17.490234375L25.546875,17.490234375 25.546875,33.896484375 23.203125,33.896484375 23.203125,17.490234375z M5.625,17.490234375L7.96875,17.490234375 7.96875,33.896484375 5.625,33.896484375 5.625,17.490234375z M14.4140625,7.998046875L16.7578125,7.998046875 16.7578125,50.44921875 20.6982421875,49.5263671875 24.2724609375,47.3583984375 27.0849609375,43.8427734375 28.76953125,38.90625 31.171875,38.90625 30.443115234375,41.78466796875 29.3115234375,44.443359375 25.95703125,48.8525390625 23.7853984832764,50.511474609375 21.3134765625,51.767578125 18.570556640625,52.55859375 15.5859375,52.822265625 12.601318359375,52.55859375 9.8583984375,51.767578125 7.38647365570068,50.5078125 5.21484375,48.837890625 1.8603515625,44.4287109375 0.728759765625,41.781005859375 0,38.90625 2.40234422683716,38.90625 4.0576171875,43.8427734375 6.8701171875,47.3583984375 10.4443359375,49.5263671875 14.4140625,50.44921875 14.4140625,7.998046875z M15.263671875,0L19.1235332489014,0.659182548522949 22.96875,2.63671875 22.08984375,4.62890672683716 18.6767578125,2.87109351158142 15.263671875,2.34374976158142 12.0703125,2.87109351158142 8.90625,4.62890672683716 8.02734375,2.63671875 11.71142578125,0.659182548522949 15.263671875,0z" />
    </g>
  </g>
</svg>