<?xml version="1.0" encoding="utf-8"?>
<!DOCTYPE svg PUBLIC "-//W3C//DTD SVG 1.1//EN" "http://www.w3.org/Graphics/SVG/1.1/DTD/svg11.dtd">
<svg width="30.41015625" height="46.435546875" xmlns="http://www.w3.org/2000/svg" xmlns:xlink="http://www.w3.org/1999/xlink" xmlns:xml="http://www.w3.org/XML/1998/namespace" version="1.1">
  <g>
    <g>
      <path style="fill:#FF0000;fill-opacity:1" d="M21.5625,26.42578125L23.90625,26.42578125 23.90625,35.21484375 21.5625,35.21484375 21.5625,26.42578125z M7.03125,26.42578125L9.375,26.42578125 9.375,35.21484375 7.03125,35.21484375 7.03125,26.42578125z M16.494140625,13.330078125L16.494140625,21.943359375 20.478515625,20.9912109375 23.2470703125,19.0283203125 24.931640625,16.3623046875 25.6640625,13.330078125 16.494140625,13.330078125z M4.98046875,13.330078125L5.712890625,16.3916015625 7.3974609375,19.0576171875 10.166015625,21.005859375 14.150390625,21.943359375 14.150390625,13.330078125 4.98046875,13.330078125z M16.494140625,2.40234375L16.494140625,10.986328125 25.6640625,10.986328125 24.931640625,7.939453125 23.232421875,5.2880859375 20.4638671875,3.33984375 16.494140625,2.40234375z M14.150390625,2.373046875L10.166015625,3.3251953125 7.3974609375,5.2734375 5.712890625,7.9248046875 4.98046875,10.986328125 14.150390625,10.986328125 14.150390625,2.373046875z M15.322265625,0L18.431396484375,0.2490234375 21.0791015625,0.99609375 23.2800273895264,2.16064453125 25.048828125,3.662109375 26.396484375,5.467529296875 27.333984375,7.5439453125 28.06640625,12.1875 27.392578125,16.611328125 25.3125,20.3759765625 23.7084941864014,21.87744140625 21.708984375,23.0712890625 19.3066387176514,23.895263671875 16.494140625,24.287109375 16.46484375,32.28515625 17.2998046875,37.4560546875 18.5009765625,41.1474609375 20.244140625,43.359375 22.734375,44.091796875 23.8366680145264,43.828125 24.7998046875,43.037109375 26.337890625,40.2099609375 27.4072265625,36.1376953125 28.06640625,31.34765625 30.41015625,31.34765625 29.501953125,37.3974609375 28.861083984375,39.9755859375 28.0517578125,42.1728515625 27.041015625,43.9599609375 25.7958984375,45.3076171875 24.2761211395264,46.153564453125 22.44140625,46.435546875 19.9951152801514,45.966796875 17.98828125,44.560546875 16.376953125,42.10693359375 15.1171875,38.49609375 13.9599609375,42.099609375 12.3193359375,44.560546875 10.3271484375,45.9814453125 8.115234375,46.435546875 6.478271484375,46.2451171875 5.0830078125,45.673828125 3.892822265625,44.6630859375 2.87109375,43.154296875 1.99951136112213,41.114501953125 1.259765625,38.5107421875 0.60791015625,35.277099609375 0,31.34765625 2.34375,31.34765625 2.79785132408142,34.456787109375 3.28125,37.1044921875 3.819580078125,39.305419921875 4.4384765625,41.07421875 5.159912109375,42.421875 6.005859375,43.359375 8.203125,44.091796875 10.283203125,43.388671875 11.173095703125,42.476806640625 11.9677734375,41.1474609375 12.66357421875,39.3896484375 13.2568359375,37.1923828125 13.751220703125,34.522705078125 14.150390625,31.34765625 14.150390625,24.287109375 11.319580078125,23.8916015625 8.9208984375,23.056640625 6.93237209320068,21.85546875 5.33203125,20.361328125 3.251953125,16.5966796875 2.578125,12.158203125 3.310546875,7.529296875 4.248046875,5.4638671875 5.595703125,3.662109375 7.36450099945068,2.16064453125 9.5654296875,0.99609375 12.213134765625,0.2490234375 15.322265625,0z" />
    </g>
  </g>
</svg>