<?xml version="1.0" encoding="utf-8"?>
<!DOCTYPE svg PUBLIC "-//W3C//DTD SVG 1.1//EN" "http://www.w3.org/Graphics/SVG/1.1/DTD/svg11.dtd">
<svg width="28.916015625" height="51.2109375" xmlns="http://www.w3.org/2000/svg" xmlns:xlink="http://www.w3.org/1999/xlink" xmlns:xml="http://www.w3.org/XML/1998/namespace" version="1.1">
  <g>
    <g>
      <path style="fill:#FF0000;fill-opacity:1" d="M26.572265625,30.556640625L16.904296875,35.947265625 26.572265625,41.279296875 26.572265625,30.556640625z M24.55078125,7.998046875L26.89453125,7.998046875 26.89453125,21.416015625 26.30859375,21.416015625 15.732421875,14.619140625 15.732421875,33.92578125 28.41796875,26.8359375 28.916015625,26.8359375 28.916015625,45.205078125 28.41796875,45.205078125 15.732421875,37.939453125 15.732421875,51.2109375 13.388671875,51.2109375 13.388671875,37.939453125 0.966797351837158,44.765625 0,42.71484375 12.041015625,36.005859375 0,29.1796875 1.25976610183716,27.216796875 13.388671875,33.92578125 13.388671875,10.810546875 13.974609375,10.810546875 24.55078125,17.63671875 24.55078125,7.998046875z M14.150390625,0L18.0102519989014,0.659182548522949 21.85546875,2.63671875 20.9765625,4.62890625 17.5634765625,2.87109351158142 14.150390625,2.34375 10.95703125,2.87109351158142 7.79296922683716,4.62890625 6.91406297683716,2.63671875 10.59814453125,0.659182548522949 14.150390625,0z" />
    </g>
  </g>
</svg>