<?xml version="1.0" encoding="utf-8"?>
<!DOCTYPE svg PUBLIC "-//W3C//DTD SVG 1.1//EN" "http://www.w3.org/Graphics/SVG/1.1/DTD/svg11.dtd">
<svg width="27.861328125" height="51.2109375" xmlns="http://www.w3.org/2000/svg" xmlns:xlink="http://www.w3.org/1999/xlink" xmlns:xml="http://www.w3.org/XML/1998/namespace" version="1.1">
  <g>
    <g>
      <path style="fill:#FF0000;fill-opacity:1" d="M12.7734375,35.537109375L15.1171875,35.537109375 15.1171875,47.255859375 12.7734375,47.255859375 12.7734375,35.537109375z M12.7734375,12.099609375L15.1171875,12.099609375 15.1171875,23.818359375 12.7734375,23.818359375 12.7734375,12.099609375z M25.517578125,7.998046875L27.861328125,7.998046875 27.861328125,20.5078125 27.275390625,20.5078125 23.173828125,16.904296875 23.173828125,50.33203125 20.830078125,50.33203125 20.830078125,30.966796875 7.08984375,30.966796875 7.08984375,47.373046875 6.50390625,47.373046875 2.34375,43.59375 2.34375,51.2109375 0,51.2109375 0,39.404296875 0.5859375,39.404296875 4.74609375,42.685546875 4.74609375,8.876953125 7.08984375,8.876953125 7.08984375,28.623046875 20.830078125,28.623046875 20.830078125,12.216796875 21.416015625,12.216796875 25.517578125,15.99609375 25.517578125,7.998046875z M13.7109375,0L17.5707988739014,0.659182548522949 21.416015625,2.63671875 20.537109375,4.62890625 17.1240234375,2.87109351158142 13.7109375,2.34375 10.517578125,2.87109351158142 7.353515625,4.62890625 6.474609375,2.63671875 10.15869140625,0.659182548522949 13.7109375,0z" />
    </g>
  </g>
</svg>