<?xml version="1.0" encoding="utf-8"?>
<!DOCTYPE svg PUBLIC "-//W3C//DTD SVG 1.1//EN" "http://www.w3.org/Graphics/SVG/1.1/DTD/svg11.dtd">
<svg width="29.970703125" height="51.2109375" xmlns="http://www.w3.org/2000/svg" xmlns:xlink="http://www.w3.org/1999/xlink" xmlns:xml="http://www.w3.org/XML/1998/namespace" version="1.1">
  <g>
    <g>
      <path style="fill:#FF0000;fill-opacity:1" d="M13.798828125,45.3515625L16.142578125,45.3515625 16.142578125,51.2109375 13.798828125,51.2109375 13.798828125,45.3515625z M4.599609375,30.8203125L6.2255859375,33.8671875 8.49609375,36.38671875 11.4111328125,38.115234375 15,38.759765625 18.57421875,38.115234375 21.4892578125,36.38671875 23.759765625,33.8671875 25.400390625,30.8203125 4.599609375,30.8203125z M3.80859375,19.1015625L3.3251953125,21.50390625 3.1640625,23.7890625 3.3251953125,26.07421875 3.80859375,28.4765625 26.19140625,28.4765625 26.6748046875,26.07421875 26.8359375,23.7890625 26.6748046875,21.50390625 26.19140625,19.1015625 3.80859375,19.1015625z M15,8.73046875L11.4111328125,9.3896484375 8.49609375,11.1474609375 6.2255859375,13.6962890625 4.599609375,16.7578125 25.400390625,16.7578125 23.759765625,13.6962890625 21.4892578125,11.1474609375 18.57421875,9.3896484375 15,8.73046875z M15,6.38671875L18.18603515625,6.749267578125 21.005859375,7.8369140625 23.4374980926514,9.532470703125 25.458984375,11.71875 27.059326171875,14.329833984375 28.2275390625,17.2998046875 28.941650390625,20.5188007354736 29.1796875,23.876953125 28.6083984375,28.9453125 26.9384765625,33.5009765625 24.2431640625,37.2509765625 20.595703125,39.873046875 23.6572265625,41.4697265625 26.3818359375,43.8427734375 28.564453125,47.0654296875 29.970703125,51.2109375 27.568359375,51.2109375 26.806640625,48.621826171875 25.634765625,46.4794921875 22.4853515625,43.3740234375 18.7353515625,41.66015625 14.970703125,41.1328125 11.2060546875,41.66015625 7.4560546875,43.3740234375 4.3212890625,46.494140625 3.160400390625,48.64013671875 2.40234327316284,51.2109375 0,51.2109375 1.39160108566284,47.0654296875 3.5595703125,43.828125 6.2841796875,41.4404296875 9.345703125,39.84375 5.6982421875,37.20703125 3.017578125,33.45703125 1.37695360183716,28.8720703125 0.820312023162842,23.7890625 1.05834913253784,20.4528827667236 1.7724609375,17.2412109375 2.94067358970642,14.27490234375 4.541015625,11.6748046875 6.5625,9.503173828125 8.994140625,7.822265625 11.81396484375,6.74560546875 15,6.38671875z M14.765625,0L18.6254863739014,0.659182548522949 22.470703125,2.63671875 21.591796875,4.62890625 18.1787109375,2.87109351158142 14.765625,2.34375 11.572265625,2.87109351158142 8.408203125,4.62890625 7.529296875,2.63671875 11.21337890625,0.659182548522949 14.765625,0z" />
    </g>
  </g>
</svg>