<?xml version="1.0" encoding="utf-8"?>
<!DOCTYPE svg PUBLIC "-//W3C//DTD SVG 1.1//EN" "http://www.w3.org/Graphics/SVG/1.1/DTD/svg11.dtd">
<svg width="29.53125" height="46.40625" xmlns="http://www.w3.org/2000/svg" xmlns:xlink="http://www.w3.org/1999/xlink" xmlns:xml="http://www.w3.org/XML/1998/namespace" version="1.1">
  <g>
    <g>
      <path style="fill:#FF0000;fill-opacity:1" d="M2.34374952316284,34.833984375L5.06469678878784,38.880615234375 8.0712890625,41.7626953125 11.3195791244507,43.487548828125 14.765625,44.0625 18.2116680145264,43.487548828125 21.4599609375,41.7626953125 24.4665508270264,38.880615234375 27.1875,34.833984375 29.53125,35.80078125 26.268310546875,40.49560546875 22.7490234375,43.798828125 18.9294414520264,45.75439453125 14.765625,46.40625 10.5871572494507,45.75439453125 6.78222608566284,43.798828125 3.27758741378784,40.49560546875 0,35.80078125 2.34374952316284,34.833984375z M13.59375,9.4921875L15.9375,9.4921875 15.9375,22.44140625 26.54296875,28.271484375 26.54296875,14.8828125 28.88671875,14.8828125 28.88671875,31.875 28.30078125,31.875 15.9375,25.224609375 15.9375,36.884765625 13.59375,36.884765625 13.59375,23.96484375 2.95898389816284,18.22265625 2.95898389816284,31.2890625 0.615233421325684,31.2890625 0.615233421325684,14.296875 1.201171875,14.296875 13.59375,21.15234375 13.59375,9.4921875z M14.765625,0L18.9294414520264,0.65185546875 22.7490234375,2.607421875 26.268310546875,5.91064453125 29.53125,10.60546875 27.1875,11.572265625 24.4665508270264,7.525634765625 21.4599609375,4.6435546875 18.2116680145264,2.918701171875 14.765625,2.34375 11.3195791244507,2.918701171875 8.0712890625,4.6435546875 5.06469678878784,7.525634765625 2.34374952316284,11.572265625 0,10.60546875 3.26293897628784,5.91064453125 6.78222608566284,2.607421875 10.6018056869507,0.65185546875 14.765625,0z" />
    </g>
  </g>
</svg>