<?xml version="1.0" encoding="utf-8"?>
<!DOCTYPE svg PUBLIC "-//W3C//DTD SVG 1.1//EN" "http://www.w3.org/Graphics/SVG/1.1/DTD/svg11.dtd">
<svg width="26.8359375000006" height="44.82421875" xmlns="http://www.w3.org/2000/svg" xmlns:xlink="http://www.w3.org/1999/xlink" xmlns:xml="http://www.w3.org/XML/1998/namespace" version="1.1">
  <g>
    <g>
      <path style="fill:#FF0000;fill-opacity:1" d="M11.572265625,5.654296875L9.722900390625,6.4013671875 7.9833984375,7.646484375 6.40502834320068,9.342041015625 5.0390625,11.4404296875 3.0615234375,16.7138671875 2.34375,23.115234375 2.49664306640625,27.09228515625 2.955322265625,30.615234375 3.71978759765625,33.68408203125 4.7900390625,36.298828125 6.13128614425659,38.455810546875 7.70873928070068,40.1513671875 9.52239894866943,41.385498046875 11.572265625,42.158203125 11.572265625,5.654296875z M22.6171875,0L24.9609375,0 24.9609375,13.037109375 23.525390625,13.037109375 21.5478496551514,9.8583984375 19.306640625,7.529296875 16.7724590301514,6.05712890625 13.916015625,5.44921875 13.916015625,21.533203125 24.9609375,21.533203125 24.9609375,23.876953125 13.916015625,23.876953125 13.916015625,42.48046875 14.296875,42.48046875 17.6696758270264,41.75537109375 20.4638671875,39.931640625 22.7600078582764,37.060546875 24.638671875,33.193359375 26.8359375,34.16015625 24.68994140625,38.734130859375 21.943359375,42.0849609375 18.5668926239014,44.139404296875 14.53125,44.82421875 11.1474609375,44.47998046875 8.203125,43.447265625 5.70190334320068,41.75537109375 3.6474609375,39.43359375 2.047119140625,36.485595703125 0.908203125,32.9150390625 0.227050423622131,28.751220703125 0,24.0234375 0.230712532997131,19.47509765625 0.9228515625,15.380859375 2.054443359375,11.7956552505493 3.603515625,8.7744140625 5.55541896820068,6.35009765625 7.8955078125,4.5556640625 10.609130859375,3.446044921875 13.681640625,3.076171875 16.14990234375,3.372802734375 18.45703125,4.2626953125 20.6103496551514,5.650634765625 22.6171875,7.44140625 22.6171875,0z" />
    </g>
  </g>
</svg>