<?xml version="1.0" encoding="utf-8"?>
<!DOCTYPE svg PUBLIC "-//W3C//DTD SVG 1.1//EN" "http://www.w3.org/Graphics/SVG/1.1/DTD/svg11.dtd">
<svg width="29.53125" height="44.82421875" xmlns="http://www.w3.org/2000/svg" xmlns:xlink="http://www.w3.org/1999/xlink" xmlns:xml="http://www.w3.org/XML/1998/namespace" version="1.1">
  <g>
    <g>
      <path style="fill:#FF0000;fill-opacity:1" d="M25.546875,35.009765625L27.890625,35.009765625 27.890625,43.798828125 25.546875,43.798828125 25.546875,35.009765625z M0,35.009765625L2.34375,35.009765625 2.34375,43.798828125 0,43.798828125 0,35.009765625z M18.837890625,21.005859375L16.10595703125,21.390380859375 13.76953125,22.1337890625 10.224609375,24.521484375 8.14453125,27.890625 7.470703125,31.93359375 8.18115139007568,36.1083984375 10.3125,39.2578125 13.86474609375,41.3232421875 18.837890625,42.24609375 18.837890625,21.005859375z M25.546875,17.109375L27.890625,17.109375 27.890625,25.8984375 25.546875,25.8984375 25.546875,17.109375z M0,17.109375L2.34375,17.109375 2.34375,25.8984375 0,25.8984375 0,17.109375z M18.837890625,0L19.423828125,0 29.53125,8.173828125 28.154296875,10.01953125 21.181640625,4.27734375 21.181640625,44.82421875 17.35107421875,44.593505859375 14.0625,43.9013671875 11.304931640625,42.7880859375 9.0673828125,41.2939453125 7.33886623382568,39.43359375 6.1083984375,37.2216796875 5.372314453125,34.705810546875 5.126953125,31.93359375 5.335693359375,29.46533203125 5.9619140625,27.099609375 7.01660060882568,24.90234375 8.5107421875,22.939453125 10.43701171875,21.251220703125 12.7880859375,19.8779296875 15.582275390625,18.8928241729736 18.837890625,18.369140625 18.837890625,0z" />
    </g>
  </g>
</svg>