<?xml version="1.0" encoding="utf-8"?>
<!DOCTYPE svg PUBLIC "-//W3C//DTD SVG 1.1//EN" "http://www.w3.org/Graphics/SVG/1.1/DTD/svg11.dtd">
<svg width="28.88671875" height="43.212890625" xmlns="http://www.w3.org/2000/svg" xmlns:xlink="http://www.w3.org/1999/xlink" xmlns:xml="http://www.w3.org/XML/1998/namespace" version="1.1">
  <g>
    <g>
      <path style="fill:#FF0000;fill-opacity:1" d="M7.001953125,10.25390625L8.37890625,12.099609375 5.91796875,14.1943359375 4.013671875,16.7431640625 2.783203125,19.4677734375 2.34375,22.08984375 2.7685546875,25.048828125 3.9697265625,28.125 5.859375,31.0693359375 8.37890625,33.6328125 7.001953125,35.5078125 4.1162109375,32.5341796875 1.904296875,29.1796875 0.498046398162842,25.6494140625 0,22.1484375 0.6298828125,18.3984375 2.25585889816284,15.087890625 4.4970703125,12.333984375 7.001953125,10.25390625z M26.54296875,0L28.88671875,0 28.88671875,16.201171875 28.30078125,16.201171875 19.453125,7.8515625 19.453125,43.212890625 17.109375,43.212890625 17.109375,22.939453125 7.03125,22.939453125 7.03125,20.595703125 17.109375,20.595703125 17.109375,2.783203125 17.6953125,2.783203125 26.54296875,11.484375 26.54296875,0z" />
    </g>
  </g>
</svg>