<?xml version="1.0" encoding="utf-8"?>
<!DOCTYPE svg PUBLIC "-//W3C//DTD SVG 1.1//EN" "http://www.w3.org/Graphics/SVG/1.1/DTD/svg11.dtd">
<svg width="28.3593750000005" height="52.822265625" xmlns="http://www.w3.org/2000/svg" xmlns:xlink="http://www.w3.org/1999/xlink" xmlns:xml="http://www.w3.org/XML/1998/namespace" version="1.1">
  <g>
    <g>
      <path style="fill:#FF0000;fill-opacity:1" d="M12.685546875,16.23046875L13.06640625,16.23046875 21.5625,22.734375 20.185546875,24.609375 15.029296875,20.302734375 15.029296875,43.681640625 14.47265625,43.681640625 6.15234375,37.177734375 7.529296875,35.302734375 12.685546875,39.609375 12.685546875,16.23046875z M14.1796875,8.73046875L11.337890625,9.136962890625 8.90625,10.3564453125 6.87377834320068,12.279052734375 5.2294921875,14.794921875 3.96240234375,17.860107421875 3.0615234375,21.4306640625 2.34375,29.6484375 3.0615234375,37.8515625 3.96240234375,41.407470703125 5.2294921875,44.4580078125 6.87377834320068,46.959228515625 8.90625,48.8671875 11.337890625,50.07568359375 14.1796875,50.478515625 17.003173828125,50.07568359375 19.4384765625,48.8671875 21.4819316864014,46.959228515625 23.1298828125,44.4580078125 24.3969707489014,41.407470703125 25.2978515625,37.8515625 26.015625,29.6484375 25.2978515625,21.4306640625 24.3969707489014,17.860107421875 23.1298828125,14.794921875 21.4819316864014,12.279052734375 19.4384765625,10.3564453125 17.003173828125,9.136962890625 14.1796875,8.73046875z M14.1796875,6.38671922683716L17.362060546875,6.7822265625 20.1708984375,7.96875 22.5915508270264,9.90234375 24.609375,12.5390625 26.21337890625,15.860595703125 27.392578125,19.8486328125 28.11767578125,24.4592304229736 28.359375,29.6484375 28.121337890625,34.85595703125 27.4072265625,39.462890625 26.239013671875,43.4326171875 24.638671875,46.728515625 22.6171855926514,49.339599609375 20.185546875,51.2548828125 17.36572265625,52.430419921875 14.1796875,52.822265625 10.99365234375,52.430419921875 8.173828125,51.2548828125 5.7421875,49.339599609375 3.720703125,46.728515625 2.12036108970642,43.4326171875 0.952147960662842,39.462890625 0.238036692142487,34.85595703125 0,29.6484375 0.238036692142487,24.4592304229736 0.952147960662842,19.8486328125 2.12402319908142,15.860595703125 3.7353515625,12.5390625 5.767822265625,9.90234375 8.203125,7.96875 11.015625,6.7822265625 14.1796875,6.38671922683716z M13.9453125,0L17.8051738739014,0.659182548522949 21.650390625,2.63671875 20.771484375,4.62890672683716 17.3583984375,2.87109351158142 13.9453125,2.34374976158142 10.751953125,2.87109351158142 7.587890625,4.62890672683716 6.708984375,2.63671875 10.39306640625,0.659182548522949 13.9453125,0z" />
    </g>
  </g>
</svg>