<?xml version="1.0" encoding="utf-8"?>
<!DOCTYPE svg PUBLIC "-//W3C//DTD SVG 1.1//EN" "http://www.w3.org/Graphics/SVG/1.1/DTD/svg11.dtd">
<svg width="31.845703125" height="51.2109375" xmlns="http://www.w3.org/2000/svg" xmlns:xlink="http://www.w3.org/1999/xlink" xmlns:xml="http://www.w3.org/XML/1998/namespace" version="1.1">
  <g>
    <g>
      <path style="fill:#FF0000;fill-opacity:1" d="M28.125,27.7734375L30.46875,27.7734375 30.46875,39.4921875 28.125,39.4921875 28.125,27.7734375z M19.189453125,24.462890625L15.2114868164063,24.8391742706299 11.773681640625,25.5578632354736 8.87603759765625,26.6189594268799 6.51855516433716,28.0224609375 4.69207811355591,29.7372436523438 3.38745164871216,31.732177734375 2.60467576980591,34.0072631835938 2.34375047683716,36.5625 2.61016893386841,39.1900634765625 3.40942430496216,41.50634765625 4.74151659011841,43.5113525390625 6.60644578933716,45.205078125 8.99139404296875,46.5728759765625 11.883544921875,47.60009765625 15.2828979492188,48.2867431640625 19.189453125,48.6328125 19.189453125,24.462890625z M6.56250047683716,8.84765625L8.90625,8.84765625 8.90625,20.56640625 6.56250047683716,20.56640625 6.56250047683716,8.84765625z M19.189453125,6.38671875L19.775390625,6.38671875 31.845703125,14.384765625 30.87890625,16.728515625 21.533203125,10.6640625 21.533203125,51.2109375 16.461181640625,50.96923828125 12.0849609375,50.244140625 8.389892578125,49.0576171875 5.36132860183716,47.431640625 3.00659227371216,45.384521484375 1.33300828933716,42.9345703125 0.333252370357513,40.111083984375 0,36.943359375 0.300293236970901,33.72802734375 1.20117235183716,30.87890625 2.70263719558716,28.39599609375 4.80468797683716,26.279296875 7.5054931640625,24.5507831573486 10.80322265625,23.2324237823486 14.6978759765625,22.3242206573486 19.189453125,21.826171875 19.189453125,6.38671875z M14.4140625,0L18.2739238739014,0.659182548522949 22.119140625,2.63671875 21.240234375,4.62890625 17.8271484375,2.87109351158142 14.4140625,2.34375 11.220703125,2.87109351158142 8.056640625,4.62890625 7.17773485183716,2.63671875 10.86181640625,0.659182548522949 14.4140625,0z" />
    </g>
  </g>
</svg>