<?xml version="1.0" encoding="utf-8"?>
<!DOCTYPE svg PUBLIC "-//W3C//DTD SVG 1.1//EN" "http://www.w3.org/Graphics/SVG/1.1/DTD/svg11.dtd">
<svg width="25.751953125" height="52.822265625" xmlns="http://www.w3.org/2000/svg" xmlns:xlink="http://www.w3.org/1999/xlink" xmlns:xml="http://www.w3.org/XML/1998/namespace" version="1.1">
  <g>
    <g>
      <path style="fill:#FF0000;fill-opacity:1" d="M23.408203125,7.998046875L25.751953125,7.998046875 25.751953125,52.822265625 25.166015625,52.822265625 5.91796827316284,45.234375 7.03124952316284,42.83203125 23.408203125,49.365234375 23.408203125,7.998046875z M8.935546875,7.998046875L11.279296875,7.998046875 11.279296875,17.021484375 18.544921875,10.341796875 20.15625,12.041015625 11.806640625,19.716796875 20.15625,27.36328125 18.544921875,29.0625 11.279296875,22.3828125 11.279296875,32.490234375 18.544921875,32.490234375 18.544921875,34.833984375 11.279296875,34.833984375 11.279296875,41.044921875 8.935546875,41.044921875 8.935546875,34.833984375 1.61132764816284,34.833984375 1.61132764816284,32.490234375 8.935546875,32.490234375 8.935546875,22.353515625 1.61132764816284,29.0625 0,27.36328125 8.349609375,19.716796875 0,12.041015625 1.61132764816284,10.341796875 8.935546875,17.080078125 8.935546875,7.998046875z M12.626953125,0L16.4868144989014,0.659182548522949 20.33203125,2.63671875 19.453125,4.62890672683716 16.0400390625,2.87109351158142 12.626953125,2.34374976158142 9.43359375,2.87109351158142 6.26953077316284,4.62890672683716 5.39062452316284,2.63671875 9.07470607757568,0.659182548522949 12.626953125,0z" />
    </g>
  </g>
</svg>