<?xml version="1.0" encoding="utf-8"?>
<!DOCTYPE svg PUBLIC "-//W3C//DTD SVG 1.1//EN" "http://www.w3.org/Graphics/SVG/1.1/DTD/svg11.dtd">
<svg width="28.623046875" height="43.212890625" xmlns="http://www.w3.org/2000/svg" xmlns:xlink="http://www.w3.org/1999/xlink" xmlns:xml="http://www.w3.org/XML/1998/namespace" version="1.1">
  <g>
    <g>
      <path style="fill:#FF0000;fill-opacity:1" d="M20.15625,25.400390625L16.8896484375,25.711669921875 14.00390625,26.2353515625 11.517333984375,26.96044921875 9.4482421875,27.8759765625 7.80761623382568,28.974609375 6.6064453125,30.2490234375 5.870361328125,31.680908203125 5.625,33.251953125 5.8740234375,35.06103515625 6.62109375,36.62109375 7.83325099945068,37.935791015625 9.4775390625,39.0087890625 11.546630859375,39.847412109375 14.033203125,40.458984375 20.15625,40.986328125 20.15625,25.400390625z M20.15625,9.31640625L16.8814086914063,9.54803466796875 14.000244140625,9.949951171875 11.5127563476563,10.5221557617188 9.4189453125,11.2646484375 7.75909423828125,12.1792612075806 6.573486328125,13.2678241729736 5.86212158203125,14.5303354263306 5.625,15.966796875 5.8740234375,17.5854511260986 6.62109375,18.984375 7.83691310882568,20.1708984375 9.4921875,21.15234375 11.572265625,21.932373046875 14.0625,22.5146484375 20.15625,23.056640625 20.15625,9.31640625z M0,0L28.623046875,0 28.623046875,2.34375 22.5,2.34375 22.5,43.212890625 17.95166015625,43.077392578125 14.033203125,42.6708984375 10.733642578125,41.9677734375 8.0419921875,40.9423828125 5.95458984375,39.576416015625 4.4677734375,37.8515625 3.577880859375,35.73486328125 3.28125,33.193359375 3.84521484375,30.25634765625 5.537109375,27.83203125 8.32031154632568,25.8984375 12.158203125,24.43359375 8.3056640625,23.0712890625 5.5224609375,21.328125 3.837890625,19.013671875 3.28125,15.966796875 3.5467529296875,14.0780649185181 4.34326171875,12.3962411880493 5.6707763671875,10.9213256835938 7.529296875,9.6533203125 9.9114990234375,8.61419677734375 12.81005859375,7.825927734375 16.2249755859375,7.28851318359375 20.15625,7.001953125 20.15625,2.34375 0,2.34375 0,0z" />
    </g>
  </g>
</svg>