<?xml version="1.0" encoding="utf-8"?>
<!DOCTYPE svg PUBLIC "-//W3C//DTD SVG 1.1//EN" "http://www.w3.org/Graphics/SVG/1.1/DTD/svg11.dtd">
<svg width="28.3593750000005" height="46.435546875" xmlns="http://www.w3.org/2000/svg" xmlns:xlink="http://www.w3.org/1999/xlink" xmlns:xml="http://www.w3.org/XML/1998/namespace" version="1.1">
  <g>
    <g>
      <path style="fill:#FF0000;fill-opacity:1" d="M3.3984375,33.076171875L4.98046875,37.587890625 7.294921875,41.0595703125 10.3564453125,43.30078125 12.169189453125,43.89404296875 14.1796875,44.091796875 16.190185546875,43.89404296875 18.0029296875,43.30078125 21.0498046875,41.0595703125 23.349609375,37.587890625 24.931640625,33.076171875 3.3984375,33.076171875z M2.87109375,16.0546875L2.4609375,19.541015625 2.34375,23.26171875 2.4755859375,27.1435546875 2.900390625,30.732421875 25.4296875,30.732421875 25.8837890625,27.1435546875 26.015625,23.26171875 25.48828125,16.0546875 2.87109375,16.0546875z M14.1796875,2.34375L12.139892578125,2.548828125 10.2978515625,3.1640625 7.20703125,5.478515625 4.892578125,9.0673828125 3.33984375,13.7109375 25.01953125,13.7109375 23.4375,9.0673828125 21.123046875,5.478515625 18.046875,3.1640625 16.2158203125,2.548828125 14.1796875,2.34375z M14.1796875,0L17.362060546875,0.3955078125 20.1708984375,1.58203125 22.5915508270264,3.515625 24.609375,6.15234375 26.21337890625,9.473876953125 27.392578125,13.4619140625 28.11767578125,18.0725116729736 28.359375,23.26171875 28.121337890625,28.46923828125 27.4072265625,33.076171875 26.239013671875,37.0458984375 24.638671875,40.341796875 22.6171855926514,42.952880859375 20.185546875,44.8681640625 17.36572265625,46.043701171875 14.1796875,46.435546875 10.99365234375,46.043701171875 8.173828125,44.8681640625 5.7421875,42.952880859375 3.720703125,40.341796875 2.12036108970642,37.0458984375 0.9521484375,33.076171875 0.238036751747131,28.46923828125 0,23.26171875 0.238036751747131,18.0725116729736 0.9521484375,13.4619140625 2.12402319908142,9.473876953125 3.7353515625,6.15234375 5.767822265625,3.515625 8.203125,1.58203125 11.015625,0.3955078125 14.1796875,0z" />
    </g>
  </g>
</svg>