<?xml version="1.0" encoding="utf-8"?>
<!DOCTYPE svg PUBLIC "-//W3C//DTD SVG 1.1//EN" "http://www.w3.org/Graphics/SVG/1.1/DTD/svg11.dtd">
<svg width="30.234375" height="51.2109375" xmlns="http://www.w3.org/2000/svg" xmlns:xlink="http://www.w3.org/1999/xlink" xmlns:xml="http://www.w3.org/XML/1998/namespace" version="1.1">
  <g>
    <g>
      <path style="fill:#FF0000;fill-opacity:1" d="M3.046875,48.8671875L27.36328125,48.8671875 27.36328125,51.2109375 3.046875,51.2109375 3.046875,48.8671875z M3.046875,36.240234375L27.36328125,36.240234375 27.36328125,38.583984375 3.046875,38.583984375 3.046875,36.240234375z M0,7.998046875L2.314453125,7.998046875 2.92236304283142,12.037353515625 3.80859375,15.5419921875 4.951171875,18.52294921875 6.328125,20.9912109375 7.93579006195068,22.9467792510986 9.7705078125,24.3896484375 11.810302734375,25.3381366729736 14.033203125,25.810546875 14.033203125,7.998046875 16.376953125,7.998046875 16.376953125,25.78125 18.511962890625,25.2099628448486 20.5224609375,24.08203125 22.3718242645264,22.4523944854736 24.0234375,20.3759765625 25.4516582489014,17.86376953125 26.630859375,14.9267578125 28.095703125,7.998046875 30.234375,7.998046875 29.64111328125,12.0849609375 28.623046875,15.908203125 27.216796875,19.361572265625 25.458984375,22.3388671875 23.3569316864014,24.7851581573486 20.91796875,26.6455078125 18.18603515625,27.821044921875 15.205078125,28.212890625 12.15087890625,27.8759765625 9.43359375,26.865234375 7.04589748382568,25.2063007354736 4.98046875,22.9248046875 3.24096655845642,20.042724609375 1.83105421066284,16.58203125 0.750732362270355,12.56103515625 0,7.998046875z M14.970703125,0L18.8305644989014,0.659182548522949 22.67578125,2.63671875 21.796875,4.62890625 18.3837890625,2.87109351158142 14.970703125,2.34375 11.77734375,2.87109351158142 8.61328125,4.62890625 7.734375,2.63671875 11.41845703125,0.659182548522949 14.970703125,0z" />
    </g>
  </g>
</svg>