<?xml version="1.0" encoding="utf-8"?>
<!DOCTYPE svg PUBLIC "-//W3C//DTD SVG 1.1//EN" "http://www.w3.org/Graphics/SVG/1.1/DTD/svg11.dtd">
<svg width="30.9375" height="52.822265625" xmlns="http://www.w3.org/2000/svg" xmlns:xlink="http://www.w3.org/1999/xlink" xmlns:xml="http://www.w3.org/XML/1998/namespace" version="1.1">
  <g>
    <g>
      <path style="fill:#FF0000;fill-opacity:1" d="M5.21484422683716,13.798828125L12.158203125,18.837890625 11.19140625,20.68359375 7.00195360183716,17.373046875 7.00195360183716,39.111328125 6.53320360183716,39.580078125 0,35.185546875 0.87890625,33.33984375 4.65820360183716,35.68359375 4.65820360183716,14.0625 5.21484422683716,13.798828125z M14.0625,6.38671922683716L14.6484375,6.38671922683716 25.6640625,12.685546875 24.521484375,14.70703125 16.40625,10.166015625 16.40625,28.125 20.625,28.125 20.625,20.302734375 22.96875,20.302734375 22.96875,28.125 28.59375,28.125 28.59375,20.2734375 30.9375,20.2734375 30.9375,38.291015625 28.59375,38.291015625 28.59375,30.46875 22.96875,30.46875 22.96875,38.291015625 20.625,38.291015625 20.625,30.46875 16.40625,30.46875 16.40625,52.822265625 15.8203125,52.822265625 5.06835985183716,46.2890625 6.24023485183716,44.384765625 14.0625,49.130859375 14.0625,6.38671922683716z M15.029296875,0L18.8891582489014,0.659182548522949 22.734375,2.63671875 21.85546875,4.62890672683716 18.4423828125,2.87109351158142 15.029296875,2.34374976158142 11.8359375,2.87109351158142 8.671875,4.62890672683716 7.79296922683716,2.63671875 11.47705078125,0.659182548522949 15.029296875,0z" />
    </g>
  </g>
</svg>