<?xml version="1.0" encoding="utf-8"?>
<!DOCTYPE svg PUBLIC "-//W3C//DTD SVG 1.1//EN" "http://www.w3.org/Graphics/SVG/1.1/DTD/svg11.dtd">
<svg width="27.36328125" height="51.2109375" xmlns="http://www.w3.org/2000/svg" xmlns:xlink="http://www.w3.org/1999/xlink" xmlns:xml="http://www.w3.org/XML/1998/namespace" version="1.1">
  <g>
    <g>
      <path style="fill:#FF0000;fill-opacity:1" d="M25.01953125,33.046875L27.36328125,33.046875 27.36328125,41.8359375 25.01953125,41.8359375 25.01953125,33.046875z M18.3984375,33.046875L20.7421875,33.046875 20.7421875,41.8359375 18.3984375,41.8359375 18.3984375,33.046875z M25.01953125,17.373046875L27.36328125,17.373046875 27.36328125,26.162109375 25.01953125,26.162109375 25.01953125,17.373046875z M18.3984375,17.373046875L20.7421875,17.373046875 20.7421875,26.162109375 18.3984375,26.162109375 18.3984375,17.373046875z M0.029296875,7.998046875L2.666015625,7.998046875 9.345703125,25.927734375 15.966796875,7.998046875 18.603515625,7.998046875 10.6640625,29.47265625 18.779296875,51.2109375 16.142578125,51.2109375 9.345703125,33.017578125 2.63671875,51.2109375 0,51.2109375 8.02734375,29.47265625 0.029296875,7.998046875z M13.388671875,0L17.2485332489014,0.659182548522949 21.09375,2.63671875 20.21484375,4.62890625 16.8017578125,2.87109351158142 13.388671875,2.34375 10.1953125,2.87109351158142 7.03125,4.62890625 6.15234375,2.63671875 9.83642578125,0.659182548522949 13.388671875,0z" />
    </g>
  </g>
</svg>