<?xml version="1.0" encoding="utf-8"?>
<!DOCTYPE svg PUBLIC "-//W3C//DTD SVG 1.1//EN" "http://www.w3.org/Graphics/SVG/1.1/DTD/svg11.dtd">
<svg width="30.029296875" height="43.212890625" xmlns="http://www.w3.org/2000/svg" xmlns:xlink="http://www.w3.org/1999/xlink" xmlns:xml="http://www.w3.org/XML/1998/namespace" version="1.1">
  <g>
    <g>
      <path style="fill:#FF0000;fill-opacity:1" d="M22.998046875,13.564453125L8.466796875,22.5 22.998046875,32.109375 22.998046875,13.564453125z M27.685546875,0L30.029296875,0 30.029296875,12.509765625 29.443359375,12.509765625 25.341796875,8.90625 25.341796875,42.333984375 22.998046875,42.333984375 22.998046875,34.892578125 7.08984375,24.375 7.08984375,39.375 6.50390625,39.375 2.34375,35.595703125 2.34375,43.212890625 0,43.212890625 0,31.40625 0.5859375,31.40625 4.74609375,34.6875 4.74609375,0.87890625 7.08984375,0.87890625 7.08984375,20.595703125 22.998046875,10.8984375 22.998046875,4.21875 23.583984375,4.21875 27.685546875,7.998046875 27.685546875,0z" />
    </g>
  </g>
</svg>