<?xml version="1.0" encoding="utf-8"?>
<!DOCTYPE svg PUBLIC "-//W3C//DTD SVG 1.1//EN" "http://www.w3.org/Graphics/SVG/1.1/DTD/svg11.dtd">
<svg width="29.208984375" height="46.435546875" xmlns="http://www.w3.org/2000/svg" xmlns:xlink="http://www.w3.org/1999/xlink" xmlns:xml="http://www.w3.org/XML/1998/namespace" version="1.1">
  <g>
    <g>
      <path style="fill:#FF0000;fill-opacity:1" d="M10.517578125,2.34375L8.43383693695068,2.7099609375 6.6943359375,3.80859375 5.277099609375,5.562744140625 4.16015625,7.8955078125 3.328857421875,10.777587890625 2.7685546875,14.1796875 2.34375,22.236328125 2.449951171875,27.04833984375 2.7685546875,31.34765625 3.328857421875,35.086669921875 4.16015625,38.2177734375 5.277099609375,40.718994140625 6.6943359375,42.568359375 8.43383693695068,43.7109375 10.517578125,44.091796875 12.601318359375,43.7109375 14.3408203125,42.568359375 15.758056640625,40.718994140625 16.875,38.2177734375 17.706298828125,35.086669921875 18.2666015625,31.34765625 18.5852031707764,27.04833984375 18.69140625,22.236328125 18.2666015625,14.1796875 17.706298828125,10.777587890625 16.875,7.8955078125 15.758056640625,5.562744140625 14.3408203125,3.80859375 12.601318359375,2.7099609375 10.517578125,2.34375z M10.517578125,0L12.626953125,0.21240234375 14.501953125,0.849609375 16.142578125,1.959228515625 17.548828125,3.5888671875 18.7170391082764,5.760498046875 19.6435546875,8.49609375 20.3356914520264,11.8432626724243 20.80078125,15.849609375 25.4296875,15.849609375 26.46240234375,15.4467792510986 26.865234375,14.4140625 26.865234375,4.5703125 29.208984375,4.5703125 29.208984375,14.4140625 28.98193359375,16.0766620635986 28.30078125,17.255859375 27.12890625,17.9589862823486 25.4296875,18.193359375 20.947265625,18.193359375 21.03515625,22.236328125 20.8154277801514,28.71826171875 20.15625,34.16015625 25.4296875,34.16015625 26.46240234375,33.75732421875 26.865234375,32.724609375 26.865234375,22.880859375 29.208984375,22.880859375 29.208984375,32.724609375 28.98193359375,34.38720703125 28.30078125,35.56640625 27.12890625,36.26953125 25.4296875,36.50390625 19.6875,36.50390625 18.1933574676514,40.9130859375 16.171875,44.00390625 13.61572265625,45.82763671875 10.517578125,46.435546875 8.082275390625,46.0638427734375 5.9619140625,44.94873046875 4.156494140625,43.0902099609375 2.666015625,40.48828125 1.4996337890625,37.1173095703125 0.66650390625,32.95166015625 0.1666259765625,27.9913330078125 0,22.236328125 0.16845703125,16.5600605010986 0.673828125,11.8359375 1.50878870487213,7.994384765625 2.666015625,4.9658203125 4.1455078125,2.706298828125 5.947265625,1.171875 8.07128810882568,0.29296875 10.517578125,0z" />
    </g>
  </g>
</svg>