<?xml version="1.0" encoding="utf-8"?>
<!DOCTYPE svg PUBLIC "-//W3C//DTD SVG 1.1//EN" "http://www.w3.org/Graphics/SVG/1.1/DTD/svg11.dtd">
<svg width="29.208984375" height="52.822265625" xmlns="http://www.w3.org/2000/svg" xmlns:xlink="http://www.w3.org/1999/xlink" xmlns:xml="http://www.w3.org/XML/1998/namespace" version="1.1">
  <g>
    <g>
      <path style="fill:#FF0000;fill-opacity:1" d="M14.208984375,39.990234375L14.677734375,39.990234375 21.2109375,44.1796875 20.244140625,46.025390625 16.552734375,43.7109375 16.552734375,52.822265625 16.083984375,52.822265625 9.375,48.369140625 10.400390625,46.2890625 14.208984375,48.80859375 14.208984375,39.990234375z M14.58984375,23.84765625L12.3486328125,25.1220703125 10.5615234375,26.513671875 9.3896484375,28.037109375 8.96484375,29.70703125 9.3896484375,31.3916015625 10.5615234375,32.9443359375 12.3486328125,34.3505859375 14.58984375,35.625 16.845703125,34.3505859375 18.6328125,32.9443359375 19.8193359375,31.3916015625 20.244140625,29.70703125 19.8193359375,28.037109375 18.6328125,26.513671875 16.845703125,25.1220703125 14.58984375,23.84765625z M0.498046398162842,16.69921875L3.8525390625,17.63671875 7.4560546875,18.7060546875 11.103515625,19.951171875 14.58984375,21.38671875 18.0908203125,19.951171875 21.7529296875,18.7060546875 25.3564453125,17.63671875 28.7109375,16.69921875 29.208984375,19.04296875 26.66015625,19.716796875 23.642578125,20.5517578125 20.4052734375,21.5478515625 17.16796875,22.705078125 19.365234375,24.1845703125 21.0791015625,25.83984375 22.1923828125,27.685546875 22.587890625,29.736328125 22.1923828125,31.787109375 21.09375,33.6328125 19.39453125,35.2880859375 17.197265625,36.767578125 20.419921875,37.9248046875 23.642578125,38.9208984375 26.66015625,39.7412109375 29.208984375,40.400390625 28.7109375,42.744140625 25.3564453125,41.806640625 21.7529296875,40.7373046875 18.0908203125,39.5068359375 14.58984375,38.0859375 11.103515625,39.5068359375 7.4560546875,40.7373046875 3.8525390625,41.806640625 0.498046398162842,42.744140625 0,40.400390625 2.5341796875,39.7412109375 5.537109375,38.9208984375 8.759765625,37.9248046875 11.982421875,36.767578125 9.7998046875,35.2880859375 8.115234375,33.6328125 7.0166015625,31.787109375 6.62109375,29.736328125 6.99462795257568,27.696533203125 8.115234375,25.8544921875 9.84375,24.1955585479736 12.041015625,22.705078125 8.8037109375,21.5478515625 5.56640625,20.5517578125 2.548828125,19.716796875 0,19.04296875 0.498046398162842,16.69921875z M14.208984375,6.38671922683716L14.677734375,6.38671922683716 21.2109375,10.576171875 20.244140625,12.421875 16.552734375,10.107421875 16.552734375,19.21875 16.083984375,19.21875 9.375,14.765625 10.400390625,12.685546875 14.208984375,15.205078125 14.208984375,6.38671922683716z M14.384765625,0L18.2446269989014,0.659182548522949 22.08984375,2.63671875 21.2109375,4.62890672683716 17.7978515625,2.87109351158142 14.384765625,2.34374976158142 11.19140625,2.87109351158142 8.02734375,4.62890672683716 7.1484375,2.63671875 10.83251953125,0.659182548522949 14.384765625,0z" />
    </g>
  </g>
</svg>