<?xml version="1.0" encoding="utf-8"?>
<!DOCTYPE svg PUBLIC "-//W3C//DTD SVG 1.1//EN" "http://www.w3.org/Graphics/SVG/1.1/DTD/svg11.dtd">
<svg width="28.3593750000005" height="46.435546875" xmlns="http://www.w3.org/2000/svg" xmlns:xlink="http://www.w3.org/1999/xlink" xmlns:xml="http://www.w3.org/XML/1998/namespace" version="1.1">
  <g>
    <g>
      <path style="fill:#FF0000;fill-opacity:1" d="M14.47265625,9.43359375L16.900634765625,9.796142578125 18.6767578125,10.8837890625 19.7863750457764,12.6599130630493 20.21484375,15.087890625 19.9401836395264,17.2814960479736 19.1162109375,19.2333984375 17.6770000457764,20.987548828125 15.556640625,22.587890625 18.1201171875,23.642578125 19.8779296875,25.3857421875 20.8740234375,27.5830078125 21.181640625,30.029296875 20.56640625,32.6806640625 18.9404296875,34.775390625 16.611328125,36.1376953125 13.88671875,36.62109375 12.099609375,36.474609375 10.400390625,36.005859375 8.642578125,35.15625 6.6796875,33.8671875 8.056640625,31.93359375 11.08154296875,33.69140625 13.88671875,34.27734375 16.0107421875,33.9404296875 17.5634765625,33.017578125 18.515625,31.6552734375 18.837890625,30.029296875 18.3251934051514,27.681884765625 16.787109375,25.9130859375 14.15771484375,24.700927734375 10.37109375,24.0234375 10.37109375,22.08984375 13.798828125,20.6835956573486 16.11328125,19.04296875 17.4316387176514,17.1752948760986 17.87109375,15.087890625 17.6623516082764,13.7402362823486 17.0361328125,12.685546875 15.963134765625,12.00439453125 14.4140625,11.77734375 12.923583984375,11.9970703125 11.3818359375,12.65625 9.766845703125,13.8208026885986 8.056640625,15.556640625 6.6796875,13.7109375 8.49975490570068,11.802978515625 10.3857421875,10.4736328125 12.366943359375,9.693603515625 14.47265625,9.43359375z M14.1796875,2.34375L11.337890625,2.750244140625 8.90625,3.9697265625 6.87377834320068,5.892333984375 5.2294921875,8.408203125 3.96240234375,11.473388671875 3.0615234375,15.0439453125 2.34375,23.26171875 3.0615234375,31.46484375 3.96240234375,35.020751953125 5.2294921875,38.0712890625 6.87377834320068,40.572509765625 8.90625,42.48046875 11.337890625,43.68896484375 14.1796875,44.091796875 17.003173828125,43.68896484375 19.4384765625,42.48046875 21.4819316864014,40.572509765625 23.1298828125,38.0712890625 24.3969707489014,35.020751953125 25.2978515625,31.46484375 26.015625,23.26171875 25.2978515625,15.0439453125 24.3969707489014,11.473388671875 23.1298828125,8.408203125 21.4819316864014,5.892333984375 19.4384765625,3.9697265625 17.003173828125,2.750244140625 14.1796875,2.34375z M14.1796875,0L17.362060546875,0.3955078125 20.1708984375,1.58203125 22.5915508270264,3.515625 24.609375,6.15234375 26.21337890625,9.473876953125 27.392578125,13.4619140625 28.11767578125,18.0725116729736 28.359375,23.26171875 28.121337890625,28.46923828125 27.4072265625,33.076171875 26.239013671875,37.0458984375 24.638671875,40.341796875 22.6171855926514,42.952880859375 20.185546875,44.8681640625 17.36572265625,46.043701171875 14.1796875,46.435546875 10.99365234375,46.043701171875 8.173828125,44.8681640625 5.7421875,42.952880859375 3.720703125,40.341796875 2.12036108970642,37.0458984375 0.9521484375,33.076171875 0.238036751747131,28.46923828125 0,23.26171875 0.238036751747131,18.0725116729736 0.9521484375,13.4619140625 2.12402319908142,9.473876953125 3.7353515625,6.15234375 5.767822265625,3.515625 8.203125,1.58203125 11.015625,0.3955078125 14.1796875,0z" />
    </g>
  </g>
</svg>