<?xml version="1.0" encoding="utf-8"?>
<!DOCTYPE svg PUBLIC "-//W3C//DTD SVG 1.1//EN" "http://www.w3.org/Graphics/SVG/1.1/DTD/svg11.dtd">
<svg width="34.16015625" height="46.435546875" xmlns="http://www.w3.org/2000/svg" xmlns:xlink="http://www.w3.org/1999/xlink" xmlns:xml="http://www.w3.org/XML/1998/namespace" version="1.1">
  <g>
    <g>
      <path style="fill:#FF0000;fill-opacity:1" d="M0,36.650390625L2.34374976158142,36.650390625 3.02856421470642,39.906005859375 4.2041015625,42.2314453125 5.870361328125,43.626708984375 8.02734375,44.091796875 9.86755275726318,43.626708984375 11.4038076400757,42.2314453125 12.6361074447632,39.906005859375 13.564453125,36.650390625 15.908203125,36.650390625 14.70703125,40.821533203125 12.978515625,43.9013671875 10.7153310775757,45.802001953125 7.91015625,46.435546875 5.093994140625,45.831298828125 2.79785180091858,44.0185546875 1.08032238483429,40.968017578125 0,36.650390625z M25.8984375,17.6953125L28.2421875,17.6953125 28.2421875,36.005859375 25.8984375,36.005859375 25.8984375,17.6953125z M18.134765625,0L18.720703125,0 34.16015625,9.169921875 33.134765625,11.484375 20.478515625,3.984375 20.478515625,44.82421875 18.134765625,44.82421875 18.134765625,12.685546875 8.876953125,5.7421875 8.876953125,21.240234375 14.53125,21.240234375 14.53125,23.583984375 8.876953125,23.583984375 8.876953125,38.0859375 6.533203125,38.0859375 6.533203125,23.583984375 1.37695336341858,23.583984375 1.37695336341858,21.240234375 6.533203125,21.240234375 6.533203125,1.611328125 7.03125,1.611328125 18.134765625,9.90234375 18.134765625,0z" />
    </g>
  </g>
</svg>