<?xml version="1.0" encoding="utf-8"?>
<!DOCTYPE svg PUBLIC "-//W3C//DTD SVG 1.1//EN" "http://www.w3.org/Graphics/SVG/1.1/DTD/svg11.dtd">
<svg width="24.84375" height="51.2109375" xmlns="http://www.w3.org/2000/svg" xmlns:xlink="http://www.w3.org/1999/xlink" xmlns:xml="http://www.w3.org/XML/1998/namespace" version="1.1">
  <g>
    <g>
      <path style="fill:#FF0000;fill-opacity:1" d="M22.5,19.1015625L17.5744609832764,20.7275409698486 14.0478515625,23.14453125 11.927490234375,26.2060565948486 11.220703125,29.765625 11.9677734375,33.2666015625 14.1357421875,36.26953125 17.666015625,38.6279296875 22.5,40.224609375 22.5,19.1015625z M22.5,7.998046875L24.84375,7.998046875 24.84375,51.2109375 22.5,51.2109375 22.5,42.451171875 7.8515625,49.86328125 6.533203125,47.958984375 18.80859375,41.748046875 16.2451171875,40.8984375 13.65234375,39.4482421875 11.4697265625,37.4853515625 10.13671875,35.126953125 8.8623046875,37.3974609375 6.8994140625,39.7705078125 4.4384765625,42.0849609375 1.640625,44.1796875 0,42.0703125 3.955078125,38.9501953125 6.7236328125,35.7275390625 8.349609375,32.578125 8.876953125,29.6484375 8.3349609375,26.7333984375 6.6943359375,23.583984375 3.92578125,20.361328125 0,17.255859375 1.640625,15.146484375 4.4384765625,17.2412109375 6.8994140625,19.5556640625 8.8623046875,21.9287109375 10.13671875,24.19921875 11.4697265625,21.8408203125 13.65234375,19.8779296875 16.2451171875,18.427734375 18.80859375,17.578125 6.533203125,11.3671875 7.8515625,9.462890625 22.5,16.875 22.5,7.998046875z M12.158203125,0L16.0180644989014,0.659182548522949 19.86328125,2.63671875 18.984375,4.62890625 15.5712890625,2.87109351158142 12.158203125,2.34375 8.96484375,2.87109351158142 5.80078125,4.62890625 4.921875,2.63671875 8.60595703125,0.659182548522949 12.158203125,0z" />
    </g>
  </g>
</svg>