<?xml version="1.0" encoding="utf-8"?>
<!DOCTYPE svg PUBLIC "-//W3C//DTD SVG 1.1//EN" "http://www.w3.org/Graphics/SVG/1.1/DTD/svg11.dtd">
<svg width="28.0078125" height="51.2109375" xmlns="http://www.w3.org/2000/svg" xmlns:xlink="http://www.w3.org/1999/xlink" xmlns:xml="http://www.w3.org/XML/1998/namespace" version="1.1">
  <g>
    <g>
      <path style="fill:#FF0000;fill-opacity:1" d="M19.541015625,13.916015625L12.1875,29.560546875 19.541015625,45.263671875 19.541015625,13.916015625z M2.109375,7.998046875L10.869140625,26.748046875 19.6875,7.998046875 21.884765625,7.998046875 21.884765625,13.06640625 24.2724590301514,11.162109375 27.509765625,9.66796875 28.0078125,12.01171875 25.30517578125,13.099365234375 23.408203125,14.6630859375 22.2875957489014,16.622314453125 21.9140625,18.896484375 22.2875957489014,21.1926288604736 23.408203125,23.1591796875 25.30517578125,24.7229022979736 28.0078125,25.810546875 27.509765625,28.154296875 24.2431640625,26.6455078125 21.884765625,24.78515625 21.884765625,34.248046875 24.2724590301514,32.34375 27.509765625,30.849609375 28.0078125,33.193359375 25.30517578125,34.281005859375 23.408203125,35.8447265625 22.2875957489014,37.803955078125 21.9140625,40.078125 22.2875957489014,42.374267578125 23.408203125,44.3408203125 25.30517578125,45.904541015625 28.0078125,46.9921875 27.509765625,49.3359375 24.2431640625,47.8271484375 21.884765625,45.966796875 21.884765625,51.2109375 19.6875,51.2109375 10.869140625,32.40234375 2.05078125,51.2109375 0,50.0390625 9.55078125,29.58984375 0.05859375,9.169921875 2.109375,7.998046875z M14.12109375,0L17.9809551239014,0.659182548522949 21.826171875,2.63671875 20.947265625,4.62890625 17.5341796875,2.87109351158142 14.12109375,2.34375 10.927734375,2.87109351158142 7.763671875,4.62890625 6.884765625,2.63671875 10.56884765625,0.659182548522949 14.12109375,0z" />
    </g>
  </g>
</svg>