<?xml version="1.0" encoding="utf-8"?>
<!DOCTYPE svg PUBLIC "-//W3C//DTD SVG 1.1//EN" "http://www.w3.org/Graphics/SVG/1.1/DTD/svg11.dtd">
<svg width="22.79296875" height="43.212890625" xmlns="http://www.w3.org/2000/svg" xmlns:xlink="http://www.w3.org/1999/xlink" xmlns:xml="http://www.w3.org/XML/1998/namespace" version="1.1">
  <g>
    <g>
      <path style="fill:#FF0000;fill-opacity:1" d="M20.44921875,32.080078125L22.79296875,32.080078125 22.79296875,40.869140625 20.44921875,40.869140625 20.44921875,32.080078125z M9.228515625,32.080078125L11.572265625,32.080078125 11.572265625,40.869140625 9.228515625,40.869140625 9.228515625,32.080078125z M20.44921875,17.75390625L22.79296875,17.75390625 22.79296875,26.54296875 20.44921875,26.54296875 20.44921875,17.75390625z M9.228515625,17.75390625L11.572265625,17.75390625 11.572265625,26.54296875 9.228515625,26.54296875 9.228515625,17.75390625z M18.720703125,0L21.064453125,0 21.064453125,13.564453125 20.478515625,13.564453125 2.34375,5.595703125 2.34375,43.212890625 0,43.212890625 0,2.2265625 0.5859375,2.2265625 18.720703125,10.224609375 18.720703125,0z" />
    </g>
  </g>
</svg>