<?xml version="1.0" encoding="utf-8"?>
<!DOCTYPE svg PUBLIC "-//W3C//DTD SVG 1.1//EN" "http://www.w3.org/Graphics/SVG/1.1/DTD/svg11.dtd">
<svg width="26.2207031250006" height="51.2109375" xmlns="http://www.w3.org/2000/svg" xmlns:xlink="http://www.w3.org/1999/xlink" xmlns:xml="http://www.w3.org/XML/1998/namespace" version="1.1">
  <g>
    <g>
      <path style="fill:#FF0000;fill-opacity:1" d="M23.0859375,42.421875L25.4296875,42.421875 25.4296875,51.2109375 23.0859375,51.2109375 23.0859375,42.421875z M11.953125,42.421875L14.296875,42.421875 14.296875,51.2109375 11.953125,51.2109375 11.953125,42.421875z M0.8203125,42.421875L3.1640625,42.421875 3.1640625,51.2109375 0.8203125,51.2109375 0.8203125,42.421875z M14.296875,20.654296875L14.296875,37.001953125 16.402587890625,36.58447265625 18.2666015625,35.7421875 19.8742656707764,34.449462890625 21.2109375,32.6806640625 22.2766094207764,30.428466796875 23.0712890625,27.685546875 23.5949687957764,24.4335956573486 23.84765625,20.654296875 14.296875,20.654296875z M2.373046875,20.654296875L2.625732421875,24.4335956573486 3.1494140625,27.685546875 3.94775390625,30.428466796875 5.0244140625,32.6806640625 6.36840724945068,34.449462890625 7.96875,35.7421875 9.8291015625,36.58447265625 11.953125,37.001953125 11.953125,20.654296875 2.373046875,20.654296875z M11.953125,7.998046875L14.296875,7.998046875 14.296875,18.310546875 23.876953125,18.310546875 23.876953125,8.056640625 26.220703125,8.056640625 26.220703125,19.013671875 26.019287109375,23.9318866729736 25.4150390625,28.1396484375 24.400634765625,31.6552734375 22.96875,34.4970703125 21.1230449676514,36.676025390625 18.8671875,38.203125 16.201171875,39.10400390625 13.125,39.404296875 10.02685546875,39.10400390625 7.353515625,38.203125 5.10131740570068,36.676025390625 3.2666015625,34.4970703125 1.842041015625,31.6552734375 0.8203125,28.1396484375 0.205077767372131,23.9318866729736 0,19.013671875 0,8.056640625 2.34375,8.056640625 2.34375,18.310546875 11.953125,18.310546875 11.953125,7.998046875z M12.744140625,0L16.60400390625,0.659182548522949 20.44921875,2.63671875 19.5703125,4.62890625 16.1572265625,2.87109351158142 12.744140625,2.34375 9.55078125,2.87109351158142 6.38671875,4.62890625 5.5078125,2.63671875 9.19189453125,0.659182548522949 12.744140625,0z" />
    </g>
  </g>
</svg>