<?xml version="1.0" encoding="utf-8"?>
<!DOCTYPE svg PUBLIC "-//W3C//DTD SVG 1.1//EN" "http://www.w3.org/Graphics/SVG/1.1/DTD/svg11.dtd">
<svg width="29.501953125" height="44.82421875" xmlns="http://www.w3.org/2000/svg" xmlns:xlink="http://www.w3.org/1999/xlink" xmlns:xml="http://www.w3.org/XML/1998/namespace" version="1.1">
  <g>
    <g>
      <path style="fill:#FF0000;fill-opacity:1" d="M9.873046875,26.07421875L7.74536037445068,26.846923828125 6.0498046875,27.7587890625 3.75,29.94140625 2.63671875,32.5341796875 2.34375,35.44921875 2.9736328125,38.232421875 4.6435546875,40.3564453125 7.0458984375,41.7919921875 9.873046875,42.48046875 9.873046875,26.07421875z M9.873046875,7.734375L7.0458984375,8.4228515625 4.6435546875,9.8583984375 2.9736328125,11.9970703125 2.34375,14.765625 2.63671875,17.6806640625 3.75,20.2734375 6.0498046875,22.4560546875 7.74536037445068,23.367919921875 9.873046875,24.140625 9.873046875,7.734375z M19.716796875,0L20.302734375,0 29.501953125,6.796875 28.125,8.73046875 22.060546875,4.248046875 22.060546875,44.82421875 19.716796875,44.82421875 19.716796875,11.484375 12.216796875,5.859375 12.216796875,44.82421875 7.1044921875,44.208984375 3.251953125,42.4072265625 0.8349609375,39.462890625 0.208740234375,37.58056640625 0,35.44921875 0.38818359375,31.966552734375 1.552734375,29.1943359375 3.5302734375,26.971435546875 6.357421875,25.13671875 3.5302734375,23.3203125 1.552734375,21.064453125 0.380859375,18.251953125 0,14.765625 0.673828125,11.1328125 2.6220703125,8.349609375 5.7275390625,6.4599609375 9.873046875,5.5078125 9.873046875,1.611328125 10.458984375,1.611328125 19.716796875,8.525390625 19.716796875,0z" />
    </g>
  </g>
</svg>