<?xml version="1.0" encoding="utf-8"?>
<!DOCTYPE svg PUBLIC "-//W3C//DTD SVG 1.1//EN" "http://www.w3.org/Graphics/SVG/1.1/DTD/svg11.dtd">
<svg width="29.1796875" height="51.2109375" xmlns="http://www.w3.org/2000/svg" xmlns:xlink="http://www.w3.org/1999/xlink" xmlns:xml="http://www.w3.org/XML/1998/namespace" version="1.1">
  <g>
    <g>
      <path style="fill:#FF0000;fill-opacity:1" d="M26.8359375,25.72265625L29.1796875,25.72265625 29.1796875,43.505859375 26.8359375,43.505859375 26.8359375,25.72265625z M26.8359375,6.38671875L29.1796875,6.38671875 29.1796875,19.130859375 28.59375,19.130859375 18.8671875,14.091796875 18.8671875,51.2109375 16.5234375,51.2109375 16.5234375,26.513671875 8.5546875,20.7421875 8.5546875,44.12109375 7.96875,44.12109375 0,37.470703125 1.376953125,35.625 6.2109375,39.580078125 6.2109375,16.69921875 6.796875,16.69921875 16.5234375,23.73046875 16.5234375,10.48828125 17.109375,10.48828125 26.8359375,15.5859375 26.8359375,6.38671875z M14.326171875,0L18.1860332489014,0.659182548522949 22.03125,2.63671875 21.15234375,4.62890625 17.7392578125,2.87109351158142 14.326171875,2.34375 11.1328125,2.87109351158142 7.96875,4.62890625 7.08984375,2.63671875 10.77392578125,0.659182548522949 14.326171875,0z" />
    </g>
  </g>
</svg>