<?xml version="1.0" encoding="utf-8"?>
<!DOCTYPE svg PUBLIC "-//W3C//DTD SVG 1.1//EN" "http://www.w3.org/Graphics/SVG/1.1/DTD/svg11.dtd">
<svg width="30.46875" height="44.82421875" xmlns="http://www.w3.org/2000/svg" xmlns:xlink="http://www.w3.org/1999/xlink" xmlns:xml="http://www.w3.org/XML/1998/namespace" version="1.1">
  <g>
    <g>
      <path style="fill:#FF0000;fill-opacity:1" d="M1.55273389816284,15.732421875L10.986328125,20.478515625 9.9609375,22.55859375 0.527343273162842,17.8125 1.55273389816284,15.732421875z M1.55273389816284,8.671875L10.986328125,13.41796875 9.9609375,15.732421875 0.527343273162842,10.751953125 1.55273389816284,8.671875z M1.55273389816284,1.611328125L10.986328125,6.357421875 9.9609375,8.671875 0.527343273162842,3.69140625 1.55273389816284,1.611328125z M14.0625,0L14.6484375,0 29.736328125,8.876953125 28.564453125,10.986328125 16.40625,3.603515625 16.40625,26.1328125 19.1857891082764,26.630859375 21.7236328125,27.65625 23.9904766082764,29.1943359375 25.95703125,31.23046875 27.608642578125,33.746337890625 28.9306640625,36.7236328125 29.893798828125,40.133056640625 30.46875,43.9453125 28.125,43.9453125 27.5537109375,40.40771484375 26.66015625,37.353515625 25.4809551239014,34.76806640625 24.052734375,32.63671875 22.4011211395264,30.9521484375 20.5517578125,29.70703125 18.541259765625,28.88671875 16.40625,28.4765625 16.40625,44.82421875 14.0625,44.82421875 14.0625,28.4765625 9.7998046875,29.443359375 7.96508646011353,30.50537109375 6.35742139816284,32.05078125 4.98046827316284,34.1162109375 3.83789014816284,36.73828125 2.95165944099426,39.990234375 2.34374952316284,43.9453125 0,43.9453125 0.706786692142487,39.671630859375 1.71386671066284,36.0498046875 3.02123951911926,33.03955078125 4.62890577316284,30.6005859375 6.53686475753784,28.71826171875 8.7451171875,27.3779296875 11.2536611557007,26.531982421875 14.0625,26.1328125 14.0625,0z" />
    </g>
  </g>
</svg>