<?xml version="1.0" encoding="utf-8"?>
<!DOCTYPE svg PUBLIC "-//W3C//DTD SVG 1.1//EN" "http://www.w3.org/Graphics/SVG/1.1/DTD/svg11.dtd">
<svg width="31.0546875" height="44.82421875" xmlns="http://www.w3.org/2000/svg" xmlns:xlink="http://www.w3.org/1999/xlink" xmlns:xml="http://www.w3.org/XML/1998/namespace" version="1.1">
  <g>
    <g>
      <path style="fill:#FF0000;fill-opacity:1" d="M1.84570264816284,3.3984375L4.61425733566284,6.331787109375 6.47460889816284,9.0380859375 7.53662014007568,11.539306640625 7.91015577316284,13.857421875 7.52929592132568,15.9594745635986 6.38671827316284,18.33984375 4.37255811691284,21.02783203125 1.37695264816284,24.052734375 0,22.119140625 2.58178663253784,19.4238300323486 4.29199171066284,17.138671875 5.24780225753784,15.2783222198486 5.56640577316284,13.857421875 5.24414014816284,11.66748046875 4.27734327316284,9.55078125 2.66601490974426,7.44140625 0.410155773162842,5.2734375 1.84570264816284,3.3984375z M16.845703125,0.5859375L17.34375,2.9296875 15.087890625,3.775634765625 13.4765625,4.9365234375 12.509765625,6.412353515625 12.1875,8.203125 12.5244140625,9.58740234375 13.53515625,10.810546875 15.263671875,11.87255859375 17.75390625,12.7734375 17.75390625,14.619140625 15.245361328125,15.3991718292236 13.5205078125,16.5087890625 12.520751953125,17.9626483917236 12.1875,19.775390625 12.535400390625,21.6156005859375 13.5791015625,23.09326171875 15.318603515625,24.2083740234375 17.75390625,24.9609375 17.75390625,27.275390625 14.26025390625,26.165771484375 11.806640625,24.5361328125 10.3491191864014,22.386474609375 9.84375,19.716796875 10.0671367645264,17.8967304229736 10.7373046875,16.3037109375 11.890869140625,14.9230976104736 13.564453125,13.740234375 11.890869140625,12.5354013442993 10.7373046875,11.1474609375 10.0671367645264,9.554443359375 9.84375,7.734375 10.2813711166382,5.44189453125 11.5942373275757,3.486328125 13.7823486328125,1.86767578125 16.845703125,0.5859375z M20.244140625,0L20.830078125,0 31.0546875,6.62109375 29.677734375,8.466796875 22.587890625,3.779296875 22.587890625,37.6171875 22.001953125,37.6171875 6.32812452316284,31.611328125 6.32812452316284,44.82421875 3.98437452316284,44.82421875 3.98437452316284,28.505859375 4.57031202316284,28.505859375 20.244140625,34.423828125 20.244140625,0z" />
    </g>
  </g>
</svg>