<?xml version="1.0" encoding="utf-8"?>
<!DOCTYPE svg PUBLIC "-//W3C//DTD SVG 1.1//EN" "http://www.w3.org/Graphics/SVG/1.1/DTD/svg11.dtd">
<svg width="28.271484375" height="46.435546875" xmlns="http://www.w3.org/2000/svg" xmlns:xlink="http://www.w3.org/1999/xlink" xmlns:xml="http://www.w3.org/XML/1998/namespace" version="1.1">
  <g>
    <g>
      <path style="fill:#FF0000;fill-opacity:1" d="M12.978515625,39.111328125L15.322265625,39.111328125 15.322265625,46.435546875 12.978515625,46.435546875 12.978515625,39.111328125z M20.44921875,33.3984375L22.79296875,33.3984375 22.79296875,40.72265625 20.44921875,40.72265625 20.44921875,33.3984375z M5.5078125,33.3984375L7.8515625,33.3984375 7.8515625,40.72265625 5.5078125,40.72265625 5.5078125,33.3984375z M0,13.740234375L0.585937976837158,13.740234375 25.927734375,27.71484375 25.927734375,14.326171875 28.271484375,14.326171875 28.271484375,31.318359375 27.685546875,31.318359375 2.34375,17.666015625 2.34375,30.732421875 0,30.732421875 0,13.740234375z M20.44921875,5.712890625L22.79296875,5.712890625 22.79296875,13.037109375 20.44921875,13.037109375 20.44921875,5.712890625z M5.5078125,5.712890625L7.8515625,5.712890625 7.8515625,13.037109375 5.5078125,13.037109375 5.5078125,5.712890625z M12.978515625,0L15.322265625,0 15.322265625,7.32421875 12.978515625,7.32421875 12.978515625,0z" />
    </g>
  </g>
</svg>