<?xml version="1.0" encoding="utf-8"?>
<!DOCTYPE svg PUBLIC "-//W3C//DTD SVG 1.1//EN" "http://www.w3.org/Graphics/SVG/1.1/DTD/svg11.dtd">
<svg width="29.94140625" height="52.822265625" xmlns="http://www.w3.org/2000/svg" xmlns:xlink="http://www.w3.org/1999/xlink" xmlns:xml="http://www.w3.org/XML/1998/namespace" version="1.1">
  <g>
    <g>
      <path style="fill:#FF0000;fill-opacity:1" d="M21.5625,34.658203125L23.90625,34.658203125 23.90625,46.376953125 21.5625,46.376953125 21.5625,34.658203125z M21.5625,11.806640625L23.90625,11.806640625 23.90625,23.525390625 21.5625,23.525390625 21.5625,11.806640625z M10.95703125,7.998046875L13.30078125,7.998046875 13.30078125,27.919921875 29.94140625,27.919921875 29.94140625,30.263671875 13.30078125,30.263671875 13.30078125,52.822265625 12.71484375,52.822265625 0,44.560546875 1.43554639816284,42.685546875 10.95703125,49.04296875 10.95703125,7.998046875z M14.82421875,0L18.6840801239014,0.659182548522949 22.529296875,2.63671875 21.650390625,4.62890672683716 18.2373046875,2.87109351158142 14.82421875,2.34374976158142 11.630859375,2.87109351158142 8.466796875,4.62890672683716 7.587890625,2.63671875 11.27197265625,0.659182548522949 14.82421875,0z" />
    </g>
  </g>
</svg>