<?xml version="1.0" encoding="utf-8"?>
<!DOCTYPE svg PUBLIC "-//W3C//DTD SVG 1.1//EN" "http://www.w3.org/Graphics/SVG/1.1/DTD/svg11.dtd">
<svg width="26.66015625" height="46.435546875" xmlns="http://www.w3.org/2000/svg" xmlns:xlink="http://www.w3.org/1999/xlink" xmlns:xml="http://www.w3.org/XML/1998/namespace" version="1.1">
  <g>
    <g>
      <path style="fill:#FF0000;fill-opacity:1" d="M0,6.005859375L2.34375,6.005859375 2.34375,27.451171875 0,27.451171875 0,6.005859375z M15.791015625,0L18.134765625,0 18.134765625,8.115234375 26.66015625,8.115234375 26.66015625,10.458984375 18.134765625,10.458984375 18.134765625,21.15234375 26.66015625,21.15234375 26.66015625,23.49609375 18.134765625,23.49609375 18.134765625,46.435546875 17.548828125,46.435546875 1.5234375,38.203125 2.6953125,36.09375 15.791015625,42.83203125 15.791015625,23.49609375 7.1484375,23.49609375 7.1484375,21.15234375 15.791015625,21.15234375 15.791015625,10.458984375 7.1484375,10.458984375 7.1484375,8.115234375 15.791015625,8.115234375 15.791015625,0z" />
    </g>
  </g>
</svg>