<?xml version="1.0" encoding="utf-8"?>
<!DOCTYPE svg PUBLIC "-//W3C//DTD SVG 1.1//EN" "http://www.w3.org/Graphics/SVG/1.1/DTD/svg11.dtd">
<svg width="24.84375" height="44.82421875" xmlns="http://www.w3.org/2000/svg" xmlns:xlink="http://www.w3.org/1999/xlink" xmlns:xml="http://www.w3.org/XML/1998/namespace" version="1.1">
  <g>
    <g>
      <path style="fill:#FF0000;fill-opacity:1" d="M12.685546875,7.20703125L11.0302734375,7.6611328125 9.9169921875,8.8623046875 9.287109375,10.576171875 9.08203125,12.568359375 9.287109375,14.560546875 9.9169921875,16.2744140625 11.0302734375,17.4755859375 12.685546875,17.9296875 14.3408203125,17.4755859375 15.4541015625,16.2744140625 16.083984375,14.5751953125 16.2890625,12.59765625 16.083984375,10.5908203125 15.4541015625,8.8623046875 14.3408203125,7.6611328125 12.685546875,7.20703125z M12.685546875,4.86328125L15.263671875,5.5224609375 17.1240234375,7.265625 18.251953125,9.7412109375 18.6328125,12.59765625 18.251953125,15.41015625 17.1240234375,17.87109375 15.263671875,19.6142578125 12.685546875,20.2734375 10.107421875,19.6142578125 8.2470703125,17.8857421875 7.119140625,15.4248046875 6.73828125,12.568359375 7.119140625,9.7119140625 8.2470703125,7.2509765625 10.107421875,5.5224609375 12.685546875,4.86328125z M22.5,1.611328125L24.84375,1.611328125 24.84375,38.73046875 24.2578125,39.0234375 8.466796875,31.11328125 8.466796875,44.82421875 6.123046875,44.82421875 6.123046875,28.0078125 6.708984375,27.71484375 22.5,35.771484375 22.5,1.611328125z M7.998046875,0L8.96484375,2.34375 5.8447265625,4.3505859375 3.7939453125,6.6357421875 2.6806640625,9.2138671875 2.34375,12.0703125 2.87109375,15.52734375 4.658203125,18.544921875 2.98828125,20.302734375 1.607666015625,18.4753437042236 0.6884765625,16.5087890625 0,12.0703125 0.439453125,8.466796875 1.8310546875,5.2734375 4.306640625,2.4609375 7.998046875,0z" />
    </g>
  </g>
</svg>