<?xml version="1.0" encoding="utf-8"?>
<!DOCTYPE svg PUBLIC "-//W3C//DTD SVG 1.1//EN" "http://www.w3.org/Graphics/SVG/1.1/DTD/svg11.dtd">
<svg width="25.400390625" height="43.212890625" xmlns="http://www.w3.org/2000/svg" xmlns:xlink="http://www.w3.org/1999/xlink" xmlns:xml="http://www.w3.org/XML/1998/namespace" version="1.1">
  <g>
    <g>
      <path style="fill:#FF0000;fill-opacity:1" d="M10.25390625,24.375L10.25390625,31.40625 17.373046875,31.40625 17.373046875,24.375 10.25390625,24.375z M2.34374952316284,24.375L2.34374952316284,31.40625 7.91015577316284,31.40625 7.91015577316284,24.375 2.34374952316284,24.375z M20.56640625,0L22.91015625,0 22.91015625,13.41796875 22.32421875,13.41796875 2.34374952316284,5.44921875 2.34374952316284,22.03125 7.91015577316284,22.03125 7.91015577316284,15.234375 10.25390625,15.234375 10.25390625,22.03125 17.373046875,22.03125 17.373046875,15.234375 19.716796875,15.234375 19.716796875,22.03125 25.400390625,22.03125 25.400390625,24.375 19.716796875,24.375 19.716796875,31.40625 25.400390625,31.40625 25.400390625,33.75 19.716796875,33.75 19.716796875,40.576171875 17.373046875,40.576171875 17.373046875,33.75 10.25390625,33.75 10.25390625,40.576171875 7.91015577316284,40.576171875 7.91015577316284,33.75 2.34374952316284,33.75 2.34374952316284,43.212890625 0,43.212890625 0,2.2265625 0.585937023162842,2.2265625 20.56640625,10.224609375 20.56640625,0z" />
    </g>
  </g>
</svg>