<?xml version="1.0" encoding="utf-8"?>
<!DOCTYPE svg PUBLIC "-//W3C//DTD SVG 1.1//EN" "http://www.w3.org/Graphics/SVG/1.1/DTD/svg11.dtd">
<svg width="28.0078125" height="46.435546875" xmlns="http://www.w3.org/2000/svg" xmlns:xlink="http://www.w3.org/1999/xlink" xmlns:xml="http://www.w3.org/XML/1998/namespace" version="1.1">
  <g>
    <g>
      <path style="fill:#FF0000;fill-opacity:1" d="M17.490234375,2.34375L15.948486328125,2.55615234375 14.6044921875,3.193359375 12.421875,5.5810546875 10.8544921875,9.2724609375 9.873046875,14.033203125 16.9921875,14.033203125 16.9921875,16.376953125 9.580078125,16.376953125 9.31640625,23.203125 9.345703125,25.7080078125 9.43359375,28.095703125 16.9921875,28.095703125 16.9921875,30.439453125 9.638671875,30.439453125 10.5322265625,35.9765625 12.0849609375,40.2978515625 13.135986328125,41.898193359375 14.384765625,43.095703125 15.8349609375,43.8427734375 17.490234375,44.091796875 19.5739727020264,43.68896484375 21.3134765625,42.48046875 22.7307109832764,40.565185546875 23.84765625,38.0419921875 24.678955078125,34.969482421875 25.2392578125,31.40625 25.6640625,23.203125 25.2392578125,15 24.678955078125,11.4404296875 23.84765625,8.37890625 22.7307109832764,5.86669921875 21.3134765625,3.955078125 19.5739727020264,2.74658203125 17.490234375,2.34375z M17.490234375,0L19.9182109832764,0.32958984375 22.0458984375,1.318359375 23.8586406707764,3.01025390625 25.341796875,5.44921875 26.4990234375,8.6572265625 27.333984375,12.65625 27.83935546875,17.4902362823486 28.0078125,23.203125 27.83935546875,28.916015625 27.333984375,33.75 26.4990234375,37.752685546875 25.341796875,40.9716796875 23.8586406707764,43.421630859375 22.0458984375,45.1171875 19.9182109832764,46.10595703125 17.490234375,46.435546875 15.428466796875,46.204833984375 13.5791015625,45.5126953125 11.949462890625,44.33349609375 10.546875,42.6416015625 9.371337890625,40.42236328125 8.4228515625,37.6611328125 7.70873928070068,34.339599609375 7.236328125,30.439453125 0,30.439453125 0,28.095703125 7.08984375,28.095703125 7.001953125,25.7373046875 6.97265625,23.203125 7.03125,19.6435546875 7.20703125,16.376953125 0,16.376953125 0,14.033203125 7.44140625,14.033203125 7.98705959320068,10.601806640625 8.7451171875,7.6904296875 9.708251953125,5.2734375 10.869140625,3.3251953125 12.227783203125,1.83837890625 13.7841796875,0.805663585662842 15.538330078125,0.201415956020355 17.490234375,0z" />
    </g>
  </g>
</svg>