<?xml version="1.0" encoding="utf-8"?>
<!DOCTYPE svg PUBLIC "-//W3C//DTD SVG 1.1//EN" "http://www.w3.org/Graphics/SVG/1.1/DTD/svg11.dtd">
<svg width="23.232421875" height="44.970703125" xmlns="http://www.w3.org/2000/svg" xmlns:xlink="http://www.w3.org/1999/xlink" xmlns:xml="http://www.w3.org/XML/1998/namespace" version="1.1">
  <g>
    <g>
      <path style="fill:#FF0000;fill-opacity:1" d="M13.0078125,7.55859375L15.3515625,7.55859375 15.3515625,23.96484375 13.0078125,23.96484375 13.0078125,7.55859375z M20.888671875,0.146484375L23.232421875,0.146484375 23.232421875,44.970703125 22.646484375,44.970703125 4.248046875,36.943359375 5.126953125,34.62890625 20.888671875,41.513671875 20.888671875,0.146484375z M6.708984375,0L7.412109375,2.2265625 4.951171875,3.33984375 3.3984375,4.892578125 2.578125,6.650390625 2.34375,8.3203125 2.8271484375,10.1513671875 4.21875,12.12890625 6.4453125,13.740234375 9.462890625,14.443359375 9.462890625,16.11328125 6.1962890625,16.845703125 3.984375,18.4130859375 2.7392578125,20.419921875 2.34375,22.470703125 2.6513671875,24.31640625 3.6474609375,26.0888671875 5.390625,27.568359375 7.939453125,28.505859375 7.060546875,30.615234375 3.8818359375,29.2822265625 1.6845703125,27.3193359375 0.41015625,24.9609375 0,22.470703125 0.296630859375,20.0830078125 1.1865234375,18.134765625 4.306640625,15.322265625 1.1865234375,12.48046875 0.296630859375,10.5322265625 0,8.14453125 0.4248046875,5.6982421875 1.6845703125,3.3544921875 3.779296875,1.376953125 6.708984375,0z" />
    </g>
  </g>
</svg>