<?xml version="1.0" encoding="utf-8"?>
<!DOCTYPE svg PUBLIC "-//W3C//DTD SVG 1.1//EN" "http://www.w3.org/Graphics/SVG/1.1/DTD/svg11.dtd">
<svg width="28.3593750000005" height="46.435546875" xmlns="http://www.w3.org/2000/svg" xmlns:xlink="http://www.w3.org/1999/xlink" xmlns:xml="http://www.w3.org/XML/1998/namespace" version="1.1">
  <g>
    <g>
      <path style="fill:#FF0000;fill-opacity:1" d="M14.1796875,2.34375L11.337890625,2.750244140625 8.90625,3.9697265625 6.87377834320068,5.892333984375 5.2294921875,8.408203125 3.96240234375,11.473388671875 3.0615234375,15.0439453125 2.34375,23.26171875 2.98828125,31.0986328125 3.80126953125,34.5263671875 4.951171875,37.5146484375 6.44164943695068,40.01953125 8.2763671875,41.9970703125 10.462646484375,43.363037109375 13.0078125,44.033203125 13.0078125,29.296875 15.3515625,29.296875 15.3515625,44.033203125 17.8967266082764,43.363037109375 20.0830078125,41.9970703125 21.9177227020264,40.01953125 23.408203125,37.5146484375 24.5581035614014,34.5263671875 25.37109375,31.0986328125 26.015625,23.26171875 25.2978515625,15.0439453125 24.3969707489014,11.473388671875 23.1298828125,8.408203125 21.4819316864014,5.892333984375 19.4384765625,3.9697265625 17.003173828125,2.750244140625 14.1796875,2.34375z M14.1796875,0L17.362060546875,0.3955078125 20.1708984375,1.58203125 22.5915508270264,3.515625 24.609375,6.15234375 26.21337890625,9.473876953125 27.392578125,13.4619140625 28.11767578125,18.0725116729736 28.359375,23.26171875 28.121337890625,28.46923828125 27.4072265625,33.076171875 26.239013671875,37.0458984375 24.638671875,40.341796875 22.6171855926514,42.952880859375 20.185546875,44.8681640625 17.36572265625,46.043701171875 14.1796875,46.435546875 10.99365234375,46.043701171875 8.173828125,44.8681640625 5.7421875,42.952880859375 3.720703125,40.341796875 2.12036108970642,37.0458984375 0.9521484375,33.076171875 0.238036751747131,28.46923828125 0,23.26171875 0.238036751747131,18.0725116729736 0.9521484375,13.4619140625 2.12402319908142,9.473876953125 3.7353515625,6.15234375 5.767822265625,3.515625 8.203125,1.58203125 11.015625,0.3955078125 14.1796875,0z" />
    </g>
  </g>
</svg>