<?xml version="1.0" encoding="utf-8"?>
<!DOCTYPE svg PUBLIC "-//W3C//DTD SVG 1.1//EN" "http://www.w3.org/Graphics/SVG/1.1/DTD/svg11.dtd">
<svg width="26.30859375" height="51.2109375" xmlns="http://www.w3.org/2000/svg" xmlns:xlink="http://www.w3.org/1999/xlink" xmlns:xml="http://www.w3.org/XML/1998/namespace" version="1.1">
  <g>
    <g>
      <path style="fill:#FF0000;fill-opacity:1" d="M1.84570360183716,26.42578125L4.18945360183716,26.42578125 4.18945360183716,35.21484375 1.84570360183716,35.21484375 1.84570360183716,26.42578125z M23.96484375,7.998046875L26.30859375,7.998046875 26.30859375,19.130859375 25.72265625,19.130859375 15.99609375,14.091796875 15.99609375,51.2109375 13.65234375,51.2109375 13.65234375,37.67578125 10.83984375,40.517578125 7.45605516433716,42.7294921875 3.86718797683716,44.326171875 0.468750476837158,45.29296875 0,42.83203125 3.15032935142517,41.8057250976563 5.89233350753784,40.660400390625 8.22601318359375,39.3960571289063 10.1513671875,38.0126953125 11.6592407226563,36.4920043945313 12.740478515625,34.815673828125 13.3950805664063,32.9837036132813 13.623046875,30.99609375 13.4078979492188,29.0075702667236 12.762451171875,27.1728534698486 11.6867065429688,25.4919452667236 10.1806640625,23.96484375 8.25347900390625,22.5750751495361 5.91430616378784,21.3061542510986 3.16314673423767,20.1580829620361 0,19.130859375 0.468750476837158,16.669921875 3.86718797683716,17.6513671875 7.45605516433716,19.2333984375 10.83984375,21.4453125 13.65234375,24.287109375 13.65234375,10.48828125 14.23828125,10.48828125 23.96484375,15.5859375 23.96484375,7.998046875z M12.890625,0L16.7504863739014,0.659182548522949 20.595703125,2.63671875 19.716796875,4.62890625 16.3037109375,2.87109351158142 12.890625,2.34375 9.697265625,2.87109351158142 6.53320360183716,4.62890625 5.65429735183716,2.63671875 9.33837890625,0.659182548522949 12.890625,0z" />
    </g>
  </g>
</svg>