<?xml version="1.0" encoding="utf-8"?>
<!DOCTYPE svg PUBLIC "-//W3C//DTD SVG 1.1//EN" "http://www.w3.org/Graphics/SVG/1.1/DTD/svg11.dtd">
<svg width="26.2207031250006" height="52.822265625" xmlns="http://www.w3.org/2000/svg" xmlns:xlink="http://www.w3.org/1999/xlink" xmlns:xml="http://www.w3.org/XML/1998/namespace" version="1.1">
  <g>
    <g>
      <path style="fill:#FF0000;fill-opacity:1" d="M0,7.998046875L2.34375,7.998046875 2.34375,32.431640625 2.49755859375,36.617431640625 2.958984375,40.2099609375 3.724365234375,43.231201171875 4.7900390625,45.703125 6.15234279632568,47.640380859375 7.8076171875,49.0576171875 9.744873046875,49.976806640625 11.953125,50.419921875 11.953125,7.998046875 14.296875,7.998046875 14.296875,50.419921875 16.5014629364014,49.976806640625 18.427734375,49.0576171875 20.0720195770264,47.640380859375 21.4306640625,45.703125 22.4963359832764,43.231201171875 23.26171875,40.2099609375 23.7231426239014,36.617431640625 23.876953125,32.431640625 23.876953125,7.998046875 26.220703125,7.998046875 26.220703125,32.431640625 26.019287109375,37.349853515625 25.4150390625,41.5576171875 24.400634765625,45.0732421875 22.96875,47.9150390625 21.1230449676514,50.093994140625 18.8671875,51.62109375 16.201171875,52.52197265625 13.125,52.822265625 10.02685546875,52.52197265625 7.353515625,51.62109375 5.10131740570068,50.093994140625 3.2666015625,47.9150390625 1.842041015625,45.0732421875 0.8203125,41.5576171875 0.205077767372131,37.349853515625 0,32.431640625 0,7.998046875z M12.890625,0L16.7504863739014,0.659182548522949 20.595703125,2.63671875 19.716796875,4.62890672683716 16.3037109375,2.87109351158142 12.890625,2.34374976158142 9.697265625,2.87109351158142 6.533203125,4.62890672683716 5.654296875,2.63671875 9.33837890625,0.659182548522949 12.890625,0z" />
    </g>
  </g>
</svg>