<?xml version="1.0" encoding="utf-8"?>
<!DOCTYPE svg PUBLIC "-//W3C//DTD SVG 1.1//EN" "http://www.w3.org/Graphics/SVG/1.1/DTD/svg11.dtd">
<svg width="34.21875" height="46.435546875" xmlns="http://www.w3.org/2000/svg" xmlns:xlink="http://www.w3.org/1999/xlink" xmlns:xml="http://www.w3.org/XML/1998/namespace" version="1.1">
  <g>
    <g>
      <path style="fill:#FF0000;fill-opacity:1" d="M7.03125,24.43359375L7.8076171875,32.2119140625 8.638916015625,35.562744140625 9.755859375,38.4375 11.1621084213257,40.792236328125 12.861328125,42.5830078125 14.84619140625,43.714599609375 17.109375,44.091796875 19.368896484375,43.714599609375 21.3427734375,42.5830078125 23.0346660614014,40.792236328125 24.4482421875,38.4375 25.5725078582764,35.562744140625 26.396484375,32.2119140625 27.158203125,24.43359375 7.03125,24.43359375z M17.109375,2.34375L14.84619140625,2.720947265625 12.861328125,3.8525390625 11.1621084213257,5.650634765625 9.755859375,8.02734375 8.638916015625,10.927734375 7.8076171875,14.296875 7.03125,22.08984375 27.158203125,22.08984375 26.396484375,14.296875 25.5725078582764,10.927734375 24.4482421875,8.02734375 23.0346660614014,5.650634765625 21.3427734375,3.8525390625 19.368896484375,2.720947265625 17.109375,2.34375z M17.109375,0L19.713134765625,0.37353515625 22.0751953125,1.494140625 24.1625957489014,3.3251953125 25.9423828125,5.830078125 27.3925762176514,8.98681640625 28.4912109375,12.7734375 29.205322265625,17.1533222198486 29.501953125,22.08984375 34.21875,22.08984375 34.21875,24.43359375 29.53125,24.43359375 29.234619140625,29.388427734375 28.5205078125,33.7646484375 27.4218730926514,37.532958984375 25.9716796875,40.6640625 24.1882305145264,43.143310546875 22.08984375,44.9560546875 19.716796875,46.065673828125 17.109375,46.435546875 14.501953125,46.065673828125 12.12890625,44.9560546875 10.0305166244507,43.143310546875 8.2470703125,40.6640625 6.796875,37.532958984375 5.6982421875,33.7646484375 4.984130859375,29.388427734375 4.6875,24.43359375 0,24.43359375 0,22.08984375 4.6875,22.08984375 5.006103515625,17.1533222198486 5.7275390625,12.7734375 6.826171875,8.98681640625 8.2763671875,5.830078125 10.0561513900757,3.3251953125 12.1435546875,1.494140625 14.505615234375,0.37353515625 17.109375,0z" />
    </g>
  </g>
</svg>