<?xml version="1.0" encoding="utf-8"?>
<!DOCTYPE svg PUBLIC "-//W3C//DTD SVG 1.1//EN" "http://www.w3.org/Graphics/SVG/1.1/DTD/svg11.dtd">
<svg width="33.896484375" height="44.82421875" xmlns="http://www.w3.org/2000/svg" xmlns:xlink="http://www.w3.org/1999/xlink" xmlns:xml="http://www.w3.org/XML/1998/namespace" version="1.1">
  <g>
    <g>
      <path style="fill:#FF0000;fill-opacity:1" d="M13.359375,24.43359375L11.7041015625,24.8876953125 10.5908203125,26.0888671875 9.9609375,27.802734375 9.755859375,29.794921875 9.9609375,31.787109375 10.5908203125,33.5009765625 11.7041015625,34.7021484375 13.359375,35.15625 15.0146484375,34.7021484375 16.1279296875,33.5009765625 16.7578125,31.8017578125 16.962890625,29.82421875 16.7578125,27.8173828125 16.1279296875,26.0888671875 15.0146484375,24.8876953125 13.359375,24.43359375z M13.359375,22.08984375L15.9375,22.7490234375 17.7978515625,24.4921875 18.92578125,26.9677734375 19.306640625,29.82421875 18.92578125,32.63671875 17.7978515625,35.09765625 15.9375,36.8408203125 13.359375,37.5 10.78125,36.8408203125 8.9208984375,35.1123046875 7.79296875,32.6513671875 7.412109375,29.794921875 7.79296875,26.9384765625 8.9208984375,24.4775390625 10.78125,22.7490234375 13.359375,22.08984375z M21.240234375,16.904296875L17.1826171875,17.3181171417236 13.505859375,18.1494140625 10.2722158432007,19.3579120635986 7.5439453125,20.9033203125 5.3466796875,22.760009765625 3.70605492591858,24.90234375 2.68432641029358,27.2900390625 2.34375023841858,29.8828125 2.69531273841858,32.523193359375 3.75000023841858,34.8779296875 5.430908203125,36.932373046875 7.6611328125,38.671875 10.4077138900757,40.08544921875 13.6376953125,41.162109375 21.240234375,42.24609375 21.240234375,16.904296875z M21.240234375,0L21.826171875,0 33.896484375,7.998046875 32.9296875,10.341796875 23.583984375,4.27734375 23.583984375,44.82421875 18.431396484375,44.56787109375 13.8134765625,43.798828125 9.78149318695068,42.557373046875 6.38671875,40.8837890625 3.665771484375,38.792724609375 1.65527415275574,36.298828125 0.413818538188934,33.4423828125 0,30.263671875 0.380859553813934,27.01171875 1.52343821525574,24.052734375 3.36181640625,21.42333984375 5.830078125,19.16015625 8.89526271820068,17.2851581573486 12.5244140625,15.8203125 16.658935546875,14.8022480010986 21.240234375,14.267578125 21.240234375,0z" />
    </g>
  </g>
</svg>