<?xml version="1.0" encoding="utf-8"?>
<!DOCTYPE svg PUBLIC "-//W3C//DTD SVG 1.1//EN" "http://www.w3.org/Graphics/SVG/1.1/DTD/svg11.dtd">
<svg width="30.41015625" height="46.435546875" xmlns="http://www.w3.org/2000/svg" xmlns:xlink="http://www.w3.org/1999/xlink" xmlns:xml="http://www.w3.org/XML/1998/namespace" version="1.1">
  <g>
    <g>
      <path style="fill:#FF0000;fill-opacity:1" d="M14.150390625,7.763671875L16.494140625,7.763671875 16.494140625,16.552734375 14.150390625,16.552734375 14.150390625,7.763671875z M15.322265625,2.34375L12.630615234375,2.55615234375 10.2978515625,3.193359375 6.6796875,5.4345703125 4.482421875,8.583984375 3.75,12.158203125 4.482421875,15.7470703125 6.6796875,18.896484375 10.2978515625,21.123046875 12.630615234375,21.76025390625 15.322265625,21.97265625 17.99560546875,21.76025390625 20.33203125,21.123046875 23.96484375,18.8818359375 26.162109375,15.7470703125 26.89453125,12.1875 26.162109375,8.5986328125 23.96484375,5.4345703125 20.33203125,3.193359375 17.99560546875,2.55615234375 15.322265625,2.34375z M15.322265625,0L18.475341796875,0.2490234375 21.2548828125,0.99609375 23.6425762176514,2.16064453125 25.6201171875,3.662109375 27.18017578125,5.467529296875 28.3154296875,7.5439453125 29.007568359375,9.810791015625 29.23828125,12.1875 29.029541015625,14.4506855010986 28.4033203125,16.611328125 27.37060546875,18.6071796417236 25.9423828125,20.3759765625 21.943359375,23.0712890625 19.3945293426514,23.895263671875 16.494140625,24.287109375 16.494140625,32.34375 16.875,35.1123046875 17.314453125,37.5 18.5009765625,41.162109375 20.244140625,43.359375 22.734375,44.091796875 23.8366680145264,43.828125 24.7998046875,43.037109375 26.337890625,40.2099609375 27.4072265625,36.1376953125 28.06640625,31.34765625 30.41015625,31.34765625 29.501953125,37.3974609375 28.861083984375,39.9755859375 28.0517578125,42.1728515625 27.041015625,43.9599609375 25.7958984375,45.3076171875 24.2761211395264,46.153564453125 22.44140625,46.435546875 19.9951152801514,45.966796875 17.98828125,44.560546875 16.376953125,42.10693359375 15.1171875,38.49609375 13.9599609375,42.099609375 12.3193359375,44.560546875 10.3271484375,45.9814453125 8.115234375,46.435546875 6.478271484375,46.2451171875 5.0830078125,45.673828125 3.892822265625,44.6630859375 2.87109375,43.154296875 1.99951136112213,41.114501953125 1.259765625,38.5107421875 0.60791015625,35.277099609375 0,31.34765625 2.34375,31.34765625 2.79785132408142,34.456787109375 3.28125,37.1044921875 3.819580078125,39.305419921875 4.4384765625,41.07421875 5.159912109375,42.421875 6.005859375,43.359375 8.203125,44.091796875 10.283203125,43.388671875 11.173095703125,42.476806640625 11.9677734375,41.1474609375 12.66357421875,39.3896484375 13.2568359375,37.1923828125 13.751220703125,34.522705078125 14.150390625,31.34765625 14.150390625,24.287109375 11.25,23.8916015625 8.701171875,23.056640625 4.7021484375,20.361328125 3.27392578125,18.5998554229736 2.2412109375,16.5966796875 1.61498987674713,14.4250507354736 1.40625,12.158203125 1.63696253299713,9.78515625 2.3291015625,7.529296875 3.46435546875,5.4638671875 5.0244140625,3.662109375 7.00195217132568,2.16064453125 9.3896484375,0.99609375 12.169189453125,0.2490234375 15.322265625,0z" />
    </g>
  </g>
</svg>