<?xml version="1.0" encoding="utf-8"?>
<!DOCTYPE svg PUBLIC "-//W3C//DTD SVG 1.1//EN" "http://www.w3.org/Graphics/SVG/1.1/DTD/svg11.dtd">
<svg width="31.1132812500011" height="44.82421875" xmlns="http://www.w3.org/2000/svg" xmlns:xlink="http://www.w3.org/1999/xlink" xmlns:xml="http://www.w3.org/XML/1998/namespace" version="1.1">
  <g>
    <g>
      <path style="fill:#FF0000;fill-opacity:1" d="M17.40234375,14.765625L17.40234375,17.109375 15.2490234375,17.5634765625 13.6376953125,18.3984375 12.6123046875,19.5263671875 12.24609375,20.80078125 12.568359375,22.1044921875 13.5498046875,23.2763671875 15.1611328125,24.2138671875 17.40234375,24.814453125 17.40234375,27.158203125 14.12109375,26.279296875 11.77734375,24.814453125 10.37109375,22.939453125 9.90234375,20.80078125 10.4150390625,18.6767578125 11.89453125,16.81640625 14.2529296875,15.4541015625 17.40234375,14.765625z M7.49999952316284,7.5L7.49999952316284,9.84375 5.34667921066284,10.2978515625 3.73535108566284,11.1328125 2.70996046066284,12.2607421875 2.34374952316284,13.53515625 2.66601514816284,14.8388671875 3.64746046066284,16.0107421875 5.25878858566284,16.9482421875 7.49999952316284,17.548828125 7.49999952316284,19.892578125 4.21874952316284,19.013671875 1.87499952316284,17.548828125 0.468749523162842,15.673828125 0,13.53515625 0.512694835662842,11.4111328125 1.99218702316284,9.55078125 4.35058546066284,8.1884765625 7.49999952316284,7.5z M17.40234375,0.556640625L17.40234375,2.900390625 15.2490234375,3.3544921875 13.6376953125,4.189453125 12.6123046875,5.3173828125 12.24609375,6.591796875 12.568359375,7.8955078125 13.5498046875,9.0673828125 15.1611328125,10.0048828125 17.40234375,10.60546875 17.40234375,12.94921875 14.12109375,12.0703125 11.77734375,10.60546875 10.37109375,8.73046875 9.90234375,6.591796875 10.4150390625,4.4677734375 11.89453125,2.607421875 14.2529296875,1.2451171875 17.40234375,0.556640625z M20.302734375,0L20.888671875,0 31.11328125,6.62109375 29.736328125,8.466796875 22.646484375,3.779296875 22.646484375,37.6171875 22.060546875,37.6171875 6.38671827316284,31.611328125 6.38671827316284,44.82421875 4.04296827316284,44.82421875 4.04296827316284,28.505859375 4.62890577316284,28.505859375 20.302734375,34.423828125 20.302734375,0z" />
    </g>
  </g>
</svg>