<?xml version="1.0" encoding="utf-8"?>
<!DOCTYPE svg PUBLIC "-//W3C//DTD SVG 1.1//EN" "http://www.w3.org/Graphics/SVG/1.1/DTD/svg11.dtd">
<svg width="27.6562500000007" height="52.822265625" xmlns="http://www.w3.org/2000/svg" xmlns:xlink="http://www.w3.org/1999/xlink" xmlns:xml="http://www.w3.org/XML/1998/namespace" version="1.1">
  <g>
    <g>
      <path style="fill:#FF0000;fill-opacity:1" d="M12.12890625,23.7890625L14.47265625,23.7890625 14.47265625,34.3359375 12.12890625,34.3359375 12.12890625,23.7890625z M12.1875,15.498046875L12.65625,17.900390625 10.1513671875,18.753662109375 8.02734375,19.9072265625 4.8193359375,22.79296875 2.9443359375,26.044921875 2.34375,29.12109375 2.98828125,32.6513671875 4.921875,36.03515625 8.14453125,38.8037109375 12.65625,40.517578125 12.65625,42.861328125 9.642333984375,42.161865234375 7.0458984375,41.0009765625 4.86328125,39.4775390625 3.0908203125,37.6904296875 1.72485327720642,35.69091796875 0.76171875,33.5302734375 0.190429329872131,31.307373046875 0,29.12109375 0.194091498851776,27.18017578125 0.776367664337158,25.166015625 1.74316394329071,23.1591815948486 3.0908203125,21.240234375 6.9140625,17.8564453125 12.1875,15.498046875z M10.693359375,6.38671922683716L17.40234375,10.400390625 20.2990703582764,12.923583984375 22.7783203125,15.7470703125 24.80712890625,18.8525390625 26.3525390625,22.2216796875 27.330322265625,25.8215351104736 27.65625,29.619140625 27.330322265625,33.416748046875 26.3525390625,37.0166015625 24.80712890625,40.3857421875 22.7783203125,43.4912109375 20.2990703582764,46.314697265625 17.40234375,48.837890625 14.17236328125,51.0205078125 10.693359375,52.822265625 9.78515625,50.595703125 12.95654296875,48.988037109375 15.908203125,46.9775390625 18.5595684051514,44.6337890625 20.830078125,42.0263671875 22.6904277801514,39.17724609375 24.111328125,36.1083984375 25.0122051239014,32.889404296875 25.3125,29.58984375 25.0122051239014,26.2939472198486 24.111328125,23.0859375 22.6904277801514,20.028076171875 20.830078125,17.1826171875 18.5595684051514,14.5751953125 15.908203125,12.2314453125 12.95654296875,10.220947265625 9.78515625,8.61328125 10.693359375,6.38671922683716z M13.564453125,0L17.4243144989014,0.659182548522949 21.26953125,2.63671875 20.390625,4.62890672683716 16.9775390625,2.87109351158142 13.564453125,2.34374976158142 10.37109375,2.87109351158142 7.20703125,4.62890672683716 6.328125,2.63671875 10.01220703125,0.659182548522949 13.564453125,0z" />
    </g>
  </g>
</svg>