<?xml version="1.0" encoding="utf-8"?>
<!DOCTYPE svg PUBLIC "-//W3C//DTD SVG 1.1//EN" "http://www.w3.org/Graphics/SVG/1.1/DTD/svg11.dtd">
<svg width="29.47265625" height="52.822265625" xmlns="http://www.w3.org/2000/svg" xmlns:xlink="http://www.w3.org/1999/xlink" xmlns:xml="http://www.w3.org/XML/1998/namespace" version="1.1">
  <g>
    <g>
      <path style="fill:#FF0000;fill-opacity:1" d="M22.5,33.896484375L24.84375,33.896484375 24.84375,45.615234375 22.5,45.615234375 22.5,33.896484375z M5.947265625,15.5859375L4.79736328125,15.780029296875 3.92578125,16.3623046875 2.841796875,18.2666015625 2.4169921875,20.68359375 2.34375,22.998046875 2.4169921875,25.3125 2.841796875,27.7294921875 3.92578125,29.6337890625 4.79736328125,30.216064453125 5.947265625,30.41015625 7.09716701507568,30.216064453125 7.96875,29.6337890625 9.052734375,27.7294921875 9.4775390625,25.3271484375 9.55078125,23.02734375 9.4775390625,20.712890625 9.052734375,18.28125 7.96875,16.3623046875 7.09716701507568,15.780029296875 5.947265625,15.5859375z M5.947265625,13.2421875L7.57690334320068,13.447265625 8.8916015625,14.0625 10.7080078125,16.2451171875 11.630859375,19.365234375 11.89453125,23.02734375 11.630859375,26.66015625 10.7080078125,29.765625 8.8916015625,31.93359375 7.57690334320068,32.548828125 5.947265625,32.75390625 4.317626953125,32.552490234375 3.0029296875,31.9482421875 1.1865234375,29.7802734375 0.263671875,26.66015625 0,22.998046875 0.263671875,19.3359375 1.1865234375,16.2158203125 3.0029296875,14.0478515625 4.317626953125,13.443603515625 5.947265625,13.2421875z M22.5,11.630859375L24.84375,11.630859375 24.84375,23.349609375 22.5,23.349609375 22.5,11.630859375z M15.05859375,7.998046875L17.40234375,7.998046875 17.40234375,27.451171875 29.47265625,27.451171875 29.47265625,29.794921875 17.40234375,29.794921875 17.40234375,52.822265625 16.81640625,52.822265625 3.779296875,45.205078125 4.951171875,43.095703125 15.05859375,49.21875 15.05859375,7.998046875z M14.47265625,0L18.3325176239014,0.659182548522949 22.177734375,2.63671875 21.298828125,4.62890672683716 17.8857421875,2.87109351158142 14.47265625,2.34374976158142 11.279296875,2.87109351158142 8.115234375,4.62890672683716 7.236328125,2.63671875 10.92041015625,0.659182548522949 14.47265625,0z" />
    </g>
  </g>
</svg>