<?xml version="1.0" encoding="utf-8"?>
<!DOCTYPE svg PUBLIC "-//W3C//DTD SVG 1.1//EN" "http://www.w3.org/Graphics/SVG/1.1/DTD/svg11.dtd">
<svg width="30.46875" height="51.943359375" xmlns="http://www.w3.org/2000/svg" xmlns:xlink="http://www.w3.org/1999/xlink" xmlns:xml="http://www.w3.org/XML/1998/namespace" version="1.1">
  <g>
    <g>
      <path style="fill:#FF0000;fill-opacity:1" d="M25.3125,33.75L25.72265625,35.9033203125 25.8984375,37.939453125 25.7519512176514,40.711669921875 25.3125,43.0517578125 24.5361309051514,45.03662109375 23.37890625,46.7431640625 21.8225078582764,48.22265625 19.8486328125,49.5263671875 17.413330078125,50.738525390625 14.47265625,51.943359375 13.7109375,49.716796875 18.1494140625,47.724609375 21.2109375,45.6298828125 22.9833984375,42.7734375 23.4118633270264,40.869140625 23.5546875,38.49609375 23.4228515625,36.4306640625 23.056640625,34.21875 25.3125,33.75z M0,7.998046875L2.34375,7.998046875 2.95165991783142,11.956787109375 3.837890625,15.2197265625 4.98046875,17.852783203125 6.357421875,19.921875 7.96508693695068,21.4672870635986 9.7998046875,22.529296875 14.0625,23.49609375 14.0625,7.998046875 16.40625,7.998046875 16.40625,23.466796875 18.541259765625,23.0566425323486 20.5517578125,22.236328125 22.4011211395264,20.9912128448486 24.052734375,19.306640625 25.4809551239014,17.17529296875 26.66015625,14.58984375 27.5537109375,11.53564453125 28.125,7.998046875 30.46875,7.998046875 29.893798828125,11.82861328125 28.9306640625,15.234375 27.608642578125,18.20068359375 25.95703125,20.712890625 23.9904766082764,22.7526874542236 21.7236328125,24.3017578125 19.1857891082764,25.3381366729736 16.40625,25.83984375 16.40625,45.05859375 15.849609375,45.3515625 4.62890625,39.287109375 4.62890625,51.2109375 2.31445360183716,51.2109375 2.31445360183716,35.80078125 2.783203125,35.5078125 14.0625,41.630859375 14.0625,25.83984375 11.253662109375,25.4370136260986 8.7451171875,24.580078125 6.536865234375,23.2287616729736 4.62890625,21.3427734375 3.02123999595642,18.90380859375 1.7138671875,15.8935546875 0.706787109375,12.271728515625 0,7.998046875z M14.94140625,0L18.8012676239014,0.659182548522949 22.646484375,2.63671851158142 21.767578125,4.62890672683716 18.3544921875,2.87109375 14.94140625,2.34375023841858 11.748046875,2.87109375 8.583984375,4.62890672683716 7.705078125,2.63671851158142 11.38916015625,0.659182548522949 14.94140625,0z" />
    </g>
  </g>
</svg>