<?xml version="1.0" encoding="utf-8"?>
<!DOCTYPE svg PUBLIC "-//W3C//DTD SVG 1.1//EN" "http://www.w3.org/Graphics/SVG/1.1/DTD/svg11.dtd">
<svg width="34.16015625" height="44.82421875" xmlns="http://www.w3.org/2000/svg" xmlns:xlink="http://www.w3.org/1999/xlink" xmlns:xml="http://www.w3.org/XML/1998/namespace" version="1.1">
  <g>
    <g>
      <path style="fill:#FF0000;fill-opacity:1" d="M11.044921875,19.248046875L13.388671875,19.248046875 13.974609375,21.5478515625 14.5751953125,23.173828125 15.5126953125,24.140625 17.080078125,24.462890625 18.6474609375,24.140625 19.5703125,23.173828125 20.15625,21.5478515625 20.7421875,19.248046875 23.0859375,19.248046875 22.2802734375,22.412109375 21.1376953125,24.78515625 19.4677734375,26.279296875 17.05078125,26.806640625 14.6337890625,26.279296875 12.978515625,24.78515625 11.8505859375,22.412109375 11.044921875,19.248046875z M11.044921875,5.09765625L13.388671875,5.09765625 13.974609375,7.3974609375 14.5751953125,9.0234375 15.5126953125,9.990234375 17.080078125,10.3125 18.6474609375,9.990234375 19.5703125,9.0234375 20.15625,7.3974609375 20.7421875,5.09765625 23.0859375,5.09765625 22.2802734375,8.26171875 21.1376953125,10.634765625 19.4677734375,12.12890625 17.05078125,12.65625 14.6337890625,12.12890625 12.978515625,10.634765625 11.8505859375,8.26171875 11.044921875,5.09765625z M6.826171875,0L9.169921875,0 9.169921875,29.0625 9.5654296875,34.6142578125 10.8837890625,38.84765625 11.9531240463257,40.400390625 13.3154296875,41.54296875 15.010986328125,42.24609375 17.080078125,42.48046875 19.130859375,42.24609375 20.830078125,41.54296875 22.2033672332764,40.400390625 23.2763671875,38.84765625 24.5947265625,34.6142578125 24.990234375,29.0625 24.990234375,0 27.333984375,0 27.333984375,10.576171875 29.82421875,6.9873046875 32.783203125,4.306640625 34.16015625,6.15234375 31.2890625,8.90625 29.150390625,12.1142578125 27.8173828125,15.439453125 27.36328125,18.515625 27.8173828125,21.591796875 29.150390625,24.931640625 31.2890625,28.154296875 34.16015625,30.908203125 32.783203125,32.75390625 29.82421875,30.087890625 27.333984375,26.484375 27.333984375,29.0625 27.1948223114014,32.559814453125 26.77734375,35.6689453125 26.0559062957764,38.3642578125 25.0048828125,40.6201171875 23.6059551239014,42.418212890625 21.8408203125,43.740234375 19.676513671875,44.55322265625 17.080078125,44.82421875 14.505615234375,44.55322265625 12.3486328125,43.740234375 10.5798330307007,42.418212890625 9.169921875,40.6201171875 8.10791015625,38.3642578125 7.3828125,35.6689453125 6.96533203125,32.559814453125 6.826171875,29.0625 6.826171875,26.484375 4.3212890625,30.087890625 1.37695384025574,32.75390625 0,30.908203125 2.87109398841858,28.154296875 5.009765625,24.931640625 6.3427734375,21.591796875 6.796875,18.515625 6.3427734375,15.439453125 5.009765625,12.1142578125 2.87109398841858,8.90625 0,6.15234375 1.37695384025574,4.306640625 4.3212890625,6.9873046875 6.826171875,10.576171875 6.826171875,0z" />
    </g>
  </g>
</svg>