<?xml version="1.0" encoding="utf-8"?>
<!DOCTYPE svg PUBLIC "-//W3C//DTD SVG 1.1//EN" "http://www.w3.org/Graphics/SVG/1.1/DTD/svg11.dtd">
<svg width="30.4687500000005" height="44.82421875" xmlns="http://www.w3.org/2000/svg" xmlns:xlink="http://www.w3.org/1999/xlink" xmlns:xml="http://www.w3.org/XML/1998/namespace" version="1.1">
  <g>
    <g>
      <path style="fill:#FF0000;fill-opacity:1" d="M19.189453125,23.203125L21.533203125,23.203125 21.533203125,30.234375 19.189453125,30.234375 19.189453125,23.203125z M8.935546875,23.203125L11.279296875,23.203125 11.279296875,30.234375 8.935546875,30.234375 8.935546875,23.203125z M19.921875,16.845703125L18.427734375,18.92578125 16.40625,19.951171875 16.40625,28.857421875 16.4712524414063,32.0919799804688 16.666259765625,34.881591796875 16.9912719726563,37.2262573242188 17.4462890625,39.1259765625 18.0532836914063,40.5935668945313 18.834228515625,41.641845703125 19.7891235351563,42.2708129882813 20.91796875,42.48046875 21.8215923309326,42.2708129882813 22.5695781707764,41.641845703125 23.1619243621826,40.5935668945313 23.5986328125,39.1259765625 23.9126567840576,37.2262573242188 24.1369609832764,34.881591796875 24.2715435028076,32.0919799804688 24.31640625,28.857421875 24.31640625,20.068359375 21.73828125,19.21875 20.7275371551514,18.2299823760986 19.921875,16.845703125z M10.546875,16.845703125L9.72289848327637,18.2299823760986 8.7158203125,19.21875 6.15234327316284,20.068359375 6.15234327316284,28.857421875 6.19262647628784,32.091064453125 6.31347608566284,34.8779296875 6.53320264816284,37.2216796875 6.87011671066284,39.1259765625 7.32787990570068,40.59814453125 7.91015577316284,41.6455078125 8.64257621765137,42.271728515625 9.55078125,42.48046875 10.6384267807007,42.286376953125 11.5576171875,41.7041015625 12.322998046875,40.7080078125 12.94921875,39.2724609375 13.4326171875,37.386474609375 13.76953125,35.0390625 13.974609375,32.20458984375 14.0625,28.857421875 14.0625,19.951171875 12.01171875,18.92578125 10.546875,16.845703125z M0,0L2.34374952316284,0 2.34374952316284,9.814453125 2.60742139816284,13.388671875 3.33984327316284,15.849609375 4.45312452316284,17.2705078125 5.85937452316284,17.724609375 7.32421827316284,17.1533203125 8.4228515625,15.5419921875 9.1259765625,13.037109375 9.375,9.814453125 9.375,0 11.71875,0 11.71875,9.814453125 11.982421875,13.388671875 12.71484375,15.849609375 13.828125,17.2705078125 15.234375,17.724609375 16.58203125,17.2998046875 17.7099609375,15.9375 18.4716796875,13.4912109375 18.75,9.814453125 18.75,0 21.09375,0 21.09375,9.814453125 21.357421875,13.388671875 22.08984375,15.849609375 23.203125,17.2705078125 24.609375,17.724609375 25.9716796875,17.314453125 27.0849609375,16.025390625 27.8466796875,13.798828125 28.125,10.60546875 28.125,9.814453125 28.125,0 30.46875,0 30.46875,9.814453125 30.2197265625,13.5827655792236 29.47265625,16.4501953125 28.271484375,18.4606952667236 26.66015625,19.658203125 26.66015625,28.857421875 26.4697265625,35.1123046875 26.1730937957764,37.8369140625 25.6640625,40.1806640625 24.9206523895264,42.10693359375 23.9208984375,43.5791015625 22.6061992645264,44.512939453125 20.91796875,44.82421875 18.603515625,44.3701171875 17.021484375,43.0810546875 15.9521484375,41.07421875 15.205078125,38.4375 14.47265625,41.07421875 13.41796875,43.0810546875 11.8359375,44.3701171875 9.55078125,44.82421875 7.86254739761353,44.512939453125 6.54785108566284,43.5791015625 5.54809522628784,42.10693359375 4.80468702316284,40.1806640625 4.29565382003784,37.8369140625 3.99902296066284,35.1123046875 3.80859327316284,28.857421875 3.80859327316284,19.658203125 2.17895412445068,18.4606952667236 0.981444835662842,16.4501953125 0.245360910892487,13.5827655792236 0,9.814453125 0,0z" />
    </g>
  </g>
</svg>