<?xml version="1.0" encoding="utf-8"?>
<!DOCTYPE svg PUBLIC "-//W3C//DTD SVG 1.1//EN" "http://www.w3.org/Graphics/SVG/1.1/DTD/svg11.dtd">
<svg width="28.9453125" height="52.822265625" xmlns="http://www.w3.org/2000/svg" xmlns:xlink="http://www.w3.org/1999/xlink" xmlns:xml="http://www.w3.org/XML/1998/namespace" version="1.1">
  <g>
    <g>
      <path style="fill:#FF0000;fill-opacity:1" d="M27.48046875,17.373046875L28.857421875,19.21875 26.396484375,21.3134765625 24.4921875,23.8623046875 23.26171875,26.5869140625 22.822265625,29.208984375 23.2470703125,32.16796875 24.4482421875,35.244140625 26.337890625,38.1884765625 28.857421875,40.751953125 27.48046875,42.626953125 24.5947265625,39.6533203125 22.3828125,36.298828125 20.9765625,32.7685546875 20.478515625,29.267578125 21.1083984375,25.517578125 22.734375,22.20703125 24.9755859375,19.453125 27.48046875,17.373046875z M27.978515625,6.38671922683716L28.9453125,8.73046875 23.6572265625,12.8759765625 19.4970703125,17.8857421875 17.9443359375,20.6359882354736 16.7724609375,23.525390625 16.036376953125,26.5136737823486 15.791015625,29.560546875 16.036376953125,32.611083984375 16.7724609375,35.6103515625 17.9443359375,38.51806640625 19.4970703125,41.2939453125 23.6572265625,46.34765625 28.9453125,50.478515625 27.978515625,52.822265625 22.060546875,48.10546875 17.4755859375,42.421875 15.772705078125,39.345703125 14.501953125,36.15234375 13.7109375,32.900390625 13.447265625,29.6484375 13.5205078125,27.94921875 13.740234375,26.25 8.876953125,21.38671875 8.876953125,52.822265625 8.291015625,52.822265625 0,44.853515625 1.37695360183716,42.978515625 6.533203125,48.1640625 6.533203125,17.197265625 7.001953125,16.93359375 14.326171875,23.671875 16.34765625,18.7646484375 19.3798828125,14.12109375 23.291015625,9.931640625 27.978515625,6.38671922683716z M14.267578125,0L18.1274394989014,0.659182548522949 21.97265625,2.63671875 21.09375,4.62890672683716 17.6806640625,2.87109351158142 14.267578125,2.34374976158142 11.07421875,2.87109351158142 7.91015625,4.62890672683716 7.03125,2.63671875 10.71533203125,0.659182548522949 14.267578125,0z" />
    </g>
  </g>
</svg>