<?xml version="1.0" encoding="utf-8"?>
<!DOCTYPE svg PUBLIC "-//W3C//DTD SVG 1.1//EN" "http://www.w3.org/Graphics/SVG/1.1/DTD/svg11.dtd">
<svg width="33.3398437500002" height="52.822265625" xmlns="http://www.w3.org/2000/svg" xmlns:xlink="http://www.w3.org/1999/xlink" xmlns:xml="http://www.w3.org/XML/1998/namespace" version="1.1">
  <g>
    <g>
      <path style="fill:#FF0000;fill-opacity:1" d="M27.392578125,22.236328125L26.2426738739014,22.4304218292236 25.37109375,23.0126953125 24.287109375,24.9169921875 23.8623046875,27.333984375 23.7890625,29.6484375 23.8623046875,31.962890625 24.287109375,34.3798828125 25.37109375,36.2841796875 26.2426738739014,36.866455078125 27.392578125,37.060546875 28.54248046875,36.866455078125 29.4140625,36.2841796875 30.498046875,34.3798828125 30.9228515625,31.9775390625 30.99609375,29.677734375 30.9228515625,27.36328125 30.498046875,24.931640625 29.4140625,23.0126953125 28.54248046875,22.4304218292236 27.392578125,22.236328125z M9.345703125,8.73046875L7.74169921875,9.04541015625 6.38671875,9.990234375 5.25146484375,11.50634765625 4.306640625,13.53515625 9.990234375,19.1015625 8.349609375,20.80078125 3.544921875,16.11328125 2.6220703125,22.2509765625 2.34374952316284,29.58984375 2.40600538253784,33.643798828125 2.5927734375,37.2509765625 2.92602491378784,40.433349609375 3.427734375,43.212890625 8.349609375,38.37890625 9.990234375,40.078125 4.16015625,45.8203125 5.1123046875,47.830810546875 6.26953125,49.2919921875 7.66845703125,50.181884765625 9.345703125,50.478515625 11.0778799057007,50.15625 12.5244140625,49.189453125 13.7109375,47.60009765625 14.6630859375,45.41015625 15.38818359375,42.626953125 15.8935546875,39.2578125 16.204833984375,35.3173828125 16.34765625,30.8203125 8.49609375,30.8203125 8.49609375,28.4765625 16.34765625,28.4765625 15.8935546875,20.68359375 15.38818359375,17.314453125 14.6630859375,14.4140625 13.7109375,12.037353515625 12.5244140625,10.2392578125 11.0778799057007,9.107666015625 9.345703125,8.73046875z M9.345703125,6.38671922683716L11.4221181869507,6.70166015625 13.2568359375,7.646484375 14.835205078125,9.261474609375 16.142578125,11.5869140625 17.1826171875,14.644775390625 17.958984375,18.45703125 18.45703125,23.0566425323486 18.662109375,28.4765625 21.4453125,28.4765625 21.826171875,25.1953125 22.822265625,22.4560546875 24.609375,20.5810546875 27.392578125,19.892578125 29.022216796875,20.0976581573486 30.3369140625,20.712890625 32.1533203125,22.8955078125 33.076171875,26.015625 33.33984375,29.677734375 33.076171875,33.310546875 32.1533203125,36.416015625 30.3369140625,38.583984375 29.022216796875,39.19921875 27.392578125,39.404296875 24.609375,38.7158203125 22.822265625,36.8408203125 21.826171875,34.1015625 21.4453125,30.8203125 18.69140625,30.8203125 18.486328125,36.23291015625 17.98828125,40.810546875 17.208251953125,44.59716796875 16.1572265625,47.63671875 14.8388671875,49.951171875 13.2568359375,51.5625 11.4221181869507,52.50732421875 9.345703125,52.822265625 7.196044921875,52.49267578125 5.3173828125,51.50390625 3.71337842941284,49.808349609375 2.38769483566284,47.3583984375 1.34765625,44.139404296875 0.6005859375,40.13671875 0.150146394968033,35.302734375 0,29.58984375 0.153808504343033,23.8769550323486 0.615234375,19.04296875 1.373291015625,15.0439453125 2.4169921875,11.8359375 3.74267554283142,9.39697265625 5.3466796875,7.70507860183716 7.218017578125,6.71630859375 9.345703125,6.38671922683716z M16.552734375,0L20.4125957489014,0.659182548522949 24.2578125,2.63671875 23.37890625,4.62890672683716 19.9658203125,2.87109351158142 16.552734375,2.34374976158142 13.359375,2.87109351158142 10.1953125,4.62890672683716 9.31640625,2.63671875 13.00048828125,0.659182548522949 16.552734375,0z" />
    </g>
  </g>
</svg>