<?xml version="1.0" encoding="utf-8"?>
<!DOCTYPE svg PUBLIC "-//W3C//DTD SVG 1.1//EN" "http://www.w3.org/Graphics/SVG/1.1/DTD/svg11.dtd">
<svg width="28.740234375" height="44.53125" xmlns="http://www.w3.org/2000/svg" xmlns:xlink="http://www.w3.org/1999/xlink" xmlns:xml="http://www.w3.org/XML/1998/namespace" version="1.1">
  <g>
    <g>
      <path style="fill:#FF0000;fill-opacity:1" d="M18.33984375,23.14453125L19.1162109375,28.9892578125 20.830078125,34.541015625 22.529296875,28.9892578125 23.291015625,23.14453125 18.33984375,23.14453125z M5.419921875,23.14453125L6.1962890625,28.9892578125 7.91015625,34.541015625 9.609375,28.9892578125 10.37109375,23.14453125 5.419921875,23.14453125z M20.830078125,9.990234375L19.16015625,15.263671875 18.369140625,20.80078125 23.26171875,20.80078125 22.470703125,15.263671875 20.830078125,9.990234375z M7.91015625,9.990234375L6.240234375,15.263671875 5.44921875,20.80078125 10.341796875,20.80078125 9.55078125,15.263671875 7.91015625,9.990234375z M4.365234375,0L7.91015625,4.5703125 11.455078125,0 12.890625,1.93359375 11.0009765625,4.1748046875 9.2578125,7.060546875 11.6455078125,13.6376953125 12.685546875,20.80078125 16.025390625,20.80078125 17.0947265625,13.6376953125 19.482421875,7.060546875 17.724609375,4.1748046875 15.849609375,1.93359375 17.28515625,0 20.830078125,4.5703125 24.375,0 25.810546875,1.93359375 23.9208984375,4.1748046875 22.177734375,7.060546875 24.5654296875,13.6376953125 25.60546875,20.80078125 28.740234375,20.80078125 28.740234375,23.14453125 25.634765625,23.14453125 25.3417949676514,26.920166015625 24.638671875,30.6298828125 22.177734375,37.5 23.9208984375,40.37109375 25.810546875,42.59765625 24.375,44.53125 22.5219707489014,42.4365234375 20.830078125,39.9609375 19.1381816864014,42.4365234375 17.28515625,44.53125 15.849609375,42.59765625 17.724609375,40.37109375 19.482421875,37.5 17.0068359375,30.6298828125 16.307373046875,26.920166015625 15.99609375,23.14453125 12.71484375,23.14453125 12.421875,26.920166015625 11.71875,30.6298828125 9.2578125,37.5 11.0009765625,40.37109375 12.890625,42.59765625 11.455078125,44.53125 9.60205078125,42.4365234375 7.91015625,39.9609375 6.21826076507568,42.4365234375 4.365234375,44.53125 2.9296875,42.59765625 4.8046875,40.37109375 6.5625,37.5 4.0869140625,30.6298828125 3.387451171875,26.920166015625 3.076171875,23.14453125 0,23.14453125 0,20.80078125 3.10546875,20.80078125 4.1748046875,13.6376953125 6.5625,7.060546875 4.8046875,4.1748046875 2.9296875,1.93359375 4.365234375,0z" />
    </g>
  </g>
</svg>