<?xml version="1.0" encoding="utf-8"?>
<!DOCTYPE svg PUBLIC "-//W3C//DTD SVG 1.1//EN" "http://www.w3.org/Graphics/SVG/1.1/DTD/svg11.dtd">
<svg width="27.861328125" height="52.822265625" xmlns="http://www.w3.org/2000/svg" xmlns:xlink="http://www.w3.org/1999/xlink" xmlns:xml="http://www.w3.org/XML/1998/namespace" version="1.1">
  <g>
    <g>
      <path style="fill:#FF0000;fill-opacity:1" d="M8.466796875,7.998046875L10.810546875,7.998046875 10.810546875,34.013671875 16.93359375,34.013671875 16.93359375,8.876953125 19.27734375,8.876953125 19.27734375,34.013671875 20.244140625,34.013671875 22.5695781707764,33.724365234375 24.2138671875,32.8564453125 25.191650390625,31.461181640625 25.517578125,29.58984375 25.517578125,8.876953125 27.861328125,8.876953125 27.861328125,29.58984375 27.28271484375,32.5048828125 25.83984375,34.62890625 23.5034160614014,35.92529296875 20.244140625,36.357421875 19.27734375,36.357421875 19.27734375,50.33203125 16.93359375,50.33203125 16.93359375,36.357421875 10.810546875,36.357421875 10.810546875,52.822265625 10.3125,52.822265625 0,44.0625 1.37695360183716,42.158203125 8.466796875,48.28125 8.466796875,7.998046875z M13.037109375,0L16.8969707489014,0.659182548522949 20.7421875,2.63671875 19.86328125,4.62890672683716 16.4501953125,2.87109351158142 13.037109375,2.34374976158142 9.84375,2.87109351158142 6.67968797683716,4.62890672683716 5.80078172683716,2.63671875 9.48486328125,0.659182548522949 13.037109375,0z" />
    </g>
  </g>
</svg>