<?xml version="1.0" encoding="utf-8"?>
<!DOCTYPE svg PUBLIC "-//W3C//DTD SVG 1.1//EN" "http://www.w3.org/Graphics/SVG/1.1/DTD/svg11.dtd">
<svg width="29.912109375" height="46.435546875" xmlns="http://www.w3.org/2000/svg" xmlns:xlink="http://www.w3.org/1999/xlink" xmlns:xml="http://www.w3.org/XML/1998/namespace" version="1.1">
  <g>
    <g>
      <path style="fill:#FF0000;fill-opacity:1" d="M14.70703125,32.783203125L12.0556640625,33.094482421875 9.609375,34.0283203125 7.41210794448853,35.533447265625 5.50781202316284,37.55859375 7.17407131195068,40.279541015625 9.2431640625,42.3486328125 11.744384765625,43.656005859375 14.70703125,44.091796875 17.698974609375,43.64501953125 20.2294921875,42.3046875 22.3205547332764,40.1806640625 23.994140625,37.3828125 21.9836406707764,35.416259765625 19.7021484375,33.9697265625 17.244873046875,33.079833984375 14.70703125,32.783203125z M13.53515625,18.80859375L15.87890625,18.80859375 15.87890625,27.59765625 13.53515625,27.59765625 13.53515625,18.80859375z M4.54101514816284,11.337890625L3.28124952316284,16.8896484375 2.87109327316284,23.26171875 3.26660108566284,29.6337890625 4.51171827316284,35.15625 6.67236232757568,33.138427734375 9.111328125,31.6552734375 11.79931640625,30.743408203125 14.70703125,30.439453125 17.552490234375,30.736083984375 20.2294921875,31.6259765625 22.7014141082764,33.065185546875 24.931640625,35.009765625 26.1474609375,29.53125 26.54296875,23.26171875 26.1474609375,16.962890625 24.90234375,11.455078125 22.6940898895264,13.3959980010986 20.2294921875,14.82421875 17.552490234375,15.7031269073486 14.70703125,15.99609375 11.802978515625,15.6958026885986 9.1259765625,14.794921875 6.69799709320068,13.3300800323486 4.54101514816284,11.337890625z M14.70703125,2.34375L11.748046875,2.779541015625 9.2578125,4.0869140625 7.19238185882568,6.163330078125 5.50781202316284,8.90625 7.41210794448853,10.927734375 9.609375,12.421875 12.0556640625,13.3447284698486 14.70703125,13.65234375 17.2412109375,13.3593769073486 19.6875,12.48046875 21.9580059051514,11.044921875 23.96484375,9.08203125 22.2949199676514,6.280517578125 20.21484375,4.1455078125 17.6953125,2.794189453125 14.70703125,2.34375z M14.70703125,0L18.0468730926514,0.439453125 20.9765625,1.7578125 23.4814434051514,3.9111328125 25.546875,6.85546875 26.7333984375,4.4091796875 27.568359375,1.611328125 29.912109375,1.611328125 28.59375,5.7568359375 26.66015625,9.287109375 28.30078125,15.556640625 28.88671875,23.26171875 28.330078125,30.966796875 26.689453125,37.20703125 28.59375,40.7080078125 29.912109375,44.82421875 27.568359375,44.82421875 25.576171875,39.638671875 23.5070781707764,42.57568359375 20.9912109375,44.70703125 18.0505352020264,46.00341796875 14.70703125,46.435546875 11.422119140625,46.025390625 8.5400390625,44.794921875 6.06811475753784,42.76611328125 4.01367139816284,39.9609375 2.40234327316284,44.82421875 0,44.82421875 1.12792921066284,40.869140625 2.81249952316284,37.470703125 1.11328077316284,31.1279296875 0.673827290534973,27.396240234375 0.527343273162842,23.26171875 1.12792921066284,15.3955078125 2.84179639816284,9.0234375 1.14257764816284,5.595703125 0,1.611328125 2.40234327316284,1.611328125 4.04296827316284,6.533203125 6.07543897628784,3.720703125 8.5400390625,1.669921875 11.422119140625,0.41748046875 14.70703125,0z" />
    </g>
  </g>
</svg>