<?xml version="1.0" encoding="utf-8"?>
<!DOCTYPE svg PUBLIC "-//W3C//DTD SVG 1.1//EN" "http://www.w3.org/Graphics/SVG/1.1/DTD/svg11.dtd">
<svg width="23.96484375" height="44.82421875" xmlns="http://www.w3.org/2000/svg" xmlns:xlink="http://www.w3.org/1999/xlink" xmlns:xml="http://www.w3.org/XML/1998/namespace" version="1.1">
  <g>
    <g>
      <path style="fill:#FF0000;fill-opacity:1" d="M7.734375,5.56640625L5.1416015625,6.15234375 3.486328125,7.9248046875 2.607421875,10.9130859375 2.34375,15.146484375 2.607421875,19.3798828125 3.486328125,22.3681640625 5.126953125,24.140625 7.705078125,24.7265625 10.283203125,24.140625 11.923828125,22.3681640625 12.802734375,19.3798828125 13.06640625,15.146484375 12.802734375,10.9130859375 11.923828125,7.9248046875 10.283203125,6.15234375 7.734375,5.56640625z M7.734375,3.22265625L9.638671875,3.42041015625 11.25,4.013671875 13.6376953125,6.328125 14.9853515625,10.078125 15.41015625,15.146484375 14.9853515625,20.21484375 13.623046875,23.96484375 11.220703125,26.279296875 9.609375,26.87255859375 7.705078125,27.0703125 5.78246974945068,26.87255859375 4.1748046875,26.279296875 1.787109375,23.96484375 0.4248046875,20.21484375 0,15.146484375 0.439453125,10.078125 1.8017578125,6.328125 4.189453125,4.013671875 5.80810451507568,3.42041015625 7.734375,3.22265625z M21.62109375,0L23.96484375,0 23.96484375,44.82421875 23.37890625,44.82421875 5.56640625,34.541015625 6.73828125,32.431640625 21.62109375,41.220703125 21.62109375,0z" />
    </g>
  </g>
</svg>