<?xml version="1.0" encoding="utf-8"?>
<!DOCTYPE svg PUBLIC "-//W3C//DTD SVG 1.1//EN" "http://www.w3.org/Graphics/SVG/1.1/DTD/svg11.dtd">
<svg width="26.5136718750002" height="44.82421875" xmlns="http://www.w3.org/2000/svg" xmlns:xlink="http://www.w3.org/1999/xlink" xmlns:xml="http://www.w3.org/XML/1998/namespace" version="1.1">
  <g>
    <g>
      <path style="fill:#FF0000;fill-opacity:1" d="M12.421875,28.681640625L7.90283155441284,29.12841796875 4.775390625,30.46875 2.95166015625,32.64404296875 2.34375,35.595703125 2.95166015625,38.525390625 4.775390625,40.693359375 7.90283155441284,42.03369140625 12.421875,42.48046875 16.9665508270264,42.03369140625 20.1123046875,40.693359375 21.9470195770264,38.525390625 22.55859375,35.595703125 21.9470195770264,32.662353515625 20.1123046875,30.4833984375 16.9665508270264,29.132080078125 12.421875,28.681640625z M24.169921875,0L26.513671875,0 26.513671875,10.4296875 25.927734375,10.4296875 13.59375,4.74609375 13.59375,13.4765625 23.5546875,13.4765625 23.5546875,15.8203125 13.59375,15.8203125 13.59375,20.33203125 23.5546875,20.33203125 23.5546875,22.67578125 13.59375,22.67578125 13.59375,26.396484375 18.5229473114014,27.16552734375 22.060546875,29.00390625 24.19189453125,31.83837890625 24.90234375,35.595703125 24.7055053710938,37.6931762695313 24.114990234375,39.532470703125 23.1307983398438,41.1135864257813 21.7529296875,42.4365234375 19.9887065887451,43.4811401367188 17.8454570770264,44.227294921875 15.3231801986694,44.6749877929688 12.421875,44.82421875 9.53430080413818,44.6749877929688 7.02392482757568,44.227294921875 4.89074659347534,43.4811401367188 3.134765625,42.4365234375 1.76330554485321,41.1135864257813 0.783691227436066,39.532470703125 0.195922642946243,37.6931762695313 0,35.595703125 0.710449039936066,31.820068359375 2.841796875,28.9892578125 6.36474514007568,27.161865234375 11.25,26.396484375 11.25,22.67578125 1.2890625,22.67578125 1.2890625,20.33203125 11.25,20.33203125 11.25,15.8203125 1.2890625,15.8203125 1.2890625,13.4765625 11.25,13.4765625 11.25,1.259765625 11.8359375,1.259765625 24.169921875,7.177734375 24.169921875,0z" />
    </g>
  </g>
</svg>