<?xml version="1.0" encoding="utf-8"?>
<!DOCTYPE svg PUBLIC "-//W3C//DTD SVG 1.1//EN" "http://www.w3.org/Graphics/SVG/1.1/DTD/svg11.dtd">
<svg width="30.46875" height="44.82421875" xmlns="http://www.w3.org/2000/svg" xmlns:xlink="http://www.w3.org/1999/xlink" xmlns:xml="http://www.w3.org/XML/1998/namespace" version="1.1">
  <g>
    <g>
      <path style="fill:#FF0000;fill-opacity:1" d="M14.0625,36.03515625L16.40625,36.03515625 16.40625,44.82421875 14.0625,44.82421875 14.0625,36.03515625z M14.0625,0L14.6484375,0 30.263671875,9.228515625 29.208984375,11.044921875 16.40625,3.603515625 16.40625,16.171875 27.5390625,16.171875 27.5390625,18.515625 16.40625,18.515625 16.40625,26.1328125 19.1857891082764,26.630859375 21.7236328125,27.65625 23.9904766082764,29.1943359375 25.95703125,31.23046875 27.608642578125,33.746337890625 28.9306640625,36.7236328125 29.893798828125,40.133056640625 30.46875,43.9453125 28.125,43.9453125 27.5244140625,40.1806640625 26.54296875,36.97265625 25.2355937957764,34.29931640625 23.6572265625,32.138671875 21.8298320770264,30.4833984375 19.775390625,29.326171875 17.55615234375,28.64501953125 15.234375,28.41796875 10.546875,29.12109375 8.52905178070068,30.091552734375 6.75292921066284,31.5966796875 5.22949171066284,33.6767578125 3.96972608566284,36.3720703125 2.99926686286926,39.766845703125 2.34374952316284,43.9453125 0,43.9453125 0.706786692142487,39.671630859375 1.71386671066284,36.0498046875 3.02123951911926,33.03955078125 4.62890577316284,30.6005859375 6.53686475753784,28.71826171875 8.7451171875,27.3779296875 11.2536611557007,26.531982421875 14.0625,26.1328125 14.0625,18.515625 2.92968702316284,18.515625 2.92968702316284,16.171875 14.0625,16.171875 14.0625,0z" />
    </g>
  </g>
</svg>