<?xml version="1.0" encoding="utf-8"?>
<!DOCTYPE svg PUBLIC "-//W3C//DTD SVG 1.1//EN" "http://www.w3.org/Graphics/SVG/1.1/DTD/svg11.dtd">
<svg width="30.703125" height="46.435546875" xmlns="http://www.w3.org/2000/svg" xmlns:xlink="http://www.w3.org/1999/xlink" xmlns:xml="http://www.w3.org/XML/1998/namespace" version="1.1">
  <g>
    <g>
      <path style="fill:#FF0000;fill-opacity:1" d="M29.736328125,0L30.703125,2.34375 26.1181640625,5.830078125 22.32421875,9.9755859375 19.51171875,14.6337890625 17.87109375,19.658203125 25.634765625,26.396484375 25.634765625,14.150390625 27.978515625,14.150390625 27.978515625,31.025390625 27.392578125,31.025390625 17.548828125,22.529296875 17.548828125,23.173828125 17.794189453125,26.224365234375 18.5302734375,29.2236328125 19.7021465301514,32.13134765625 21.2548828125,34.9072265625 25.4150390625,39.9609375 30.703125,44.091796875 29.736328125,46.435546875 23.818359375,41.71875 19.2333984375,36.03515625 17.530517578125,32.958984375 16.259765625,29.765625 15.46875,26.513671875 15.205078125,23.26171875 15.380859375,20.625 8.876953125,15 8.876953125,46.435546875 8.291015625,46.435546875 0,38.466796875 1.376953125,36.591796875 6.533203125,41.77734375 6.533203125,10.517578125 7.177734375,10.3125 15.908203125,17.9296875 17.8564453125,12.8466796875 20.9033203125,8.02734375 24.90234375,3.6767578125 29.736328125,0z" />
    </g>
  </g>
</svg>