<?xml version="1.0" encoding="utf-8"?>
<!DOCTYPE svg PUBLIC "-//W3C//DTD SVG 1.1//EN" "http://www.w3.org/Graphics/SVG/1.1/DTD/svg11.dtd">
<svg width="28.271484375" height="43.88671875" xmlns="http://www.w3.org/2000/svg" xmlns:xlink="http://www.w3.org/1999/xlink" xmlns:xml="http://www.w3.org/XML/1998/namespace" version="1.1">
  <g>
    <g>
      <path style="fill:#FF0000;fill-opacity:1" d="M0,0L0.5859375,0 25.927734375,13.974609375 25.927734375,0.585937023162842 28.271484375,0.585937023162842 28.271484375,17.578125 27.685546875,17.578125 15.322265625,10.927734375 15.322265625,29.560546875 24.931640625,21.38671875 26.279296875,23.232421875 15.791015625,31.9921875 27.158203125,41.630859375 26.015625,43.30078125 15.322265625,34.39453125 15.322265625,43.88671875 12.978515625,43.88671875 12.978515625,34.39453125 2.255859375,43.30078125 1.11328125,41.630859375 12.451171875,31.9921875 1.9921875,23.232421875 3.310546875,21.38671875 12.978515625,29.619140625 12.978515625,9.66796875 2.34375,3.92578125 2.34375,16.9921875 0,16.9921875 0,0z" />
    </g>
  </g>
</svg>