<?xml version="1.0" encoding="utf-8"?>
<!DOCTYPE svg PUBLIC "-//W3C//DTD SVG 1.1//EN" "http://www.w3.org/Graphics/SVG/1.1/DTD/svg11.dtd">
<svg width="28.4765625" height="46.435546875" xmlns="http://www.w3.org/2000/svg" xmlns:xlink="http://www.w3.org/1999/xlink" xmlns:xml="http://www.w3.org/XML/1998/namespace" version="1.1">
  <g>
    <g>
      <path style="fill:#FF0000;fill-opacity:1" d="M3.046875,32.51953125L5.44921875,32.51953125 6.83349514007568,37.5 8.759765625,41.1328125 11.30126953125,43.35205078125 14.53125,44.091796875 17.7209453582764,43.35205078125 20.4345703125,41.1328125 22.6061992645264,37.5 24.169921875,32.51953125 26.513671875,32.51953125 25.6475811004639,35.679931640625 24.6020488739014,38.4521484375 23.3770732879639,40.836181640625 21.97265625,42.83203125 20.3869609832764,44.4085693359375 18.6181621551514,45.53466796875 16.6662578582764,46.2103271484375 14.53125,46.435546875 12.42919921875,46.2103271484375 10.517578125,45.53466796875 8.79638671875,44.4085693359375 7.265625,42.83203125 5.92529296875,40.836181640625 4.775390625,38.4521484375 3.81591796875,35.679931640625 3.046875,32.51953125z M13.06640625,27.7734375L15.41015625,27.7734375 15.41015625,36.5625 13.06640625,36.5625 13.06640625,27.7734375z M7.67578125,0L10.078125,0.629883289337158 11.923828125,2.373046875 13.2861328125,4.98046875 14.23828125,8.173828125 15.1904296875,4.98046875 16.552734375,2.373046875 18.3837890625,0.629883289337158 20.80078125,0 22.4661235809326,0.20416259765625 23.9172344207764,0.816650390625 25.1541118621826,1.83746337890625 26.1767578125,3.2666015625 27.0071411132813,5.10589599609375 27.667236328125,7.357177734375 28.1570434570313,10.0204467773438 28.4765625,13.095703125 26.1328125,13.095703125 25.535888671875,8.32763671875 24.3896484375,4.98046875 22.7819805145264,3.0029296875 20.80078125,2.34375 19.7900371551514,2.552490234375 18.92578125,3.1787109375 17.5341796875,5.4345703125 16.552734375,8.6865234375 15.9228515625,12.4951171875 15.556640625,16.4794921875 15.41015625,20.21484375 15.41015625,23.0859375 13.06640625,23.0859375 13.06640625,20.21484375 12.919921875,16.4794921875 12.5537109375,12.4951171875 11.923828125,8.6865234375 10.9423828125,5.4345703125 9.55078125,3.1787109375 8.68652248382568,2.552490234375 7.67578125,2.34375 5.694580078125,3.0029296875 4.0869140625,4.98046875 2.940673828125,8.32763671875 2.34375,13.095703125 0,13.095703125 0.319518774747849,10.0204467773438 0.809325814247131,7.357177734375 1.46942114830017,5.10589599609375 2.2998046875,3.2666015625 3.32244873046875,1.83746337890625 4.559326171875,0.816650390625 6.01043701171875,0.20416259765625 7.67578125,0z" />
    </g>
  </g>
</svg>