<?xml version="1.0" encoding="utf-8"?>
<!DOCTYPE svg PUBLIC "-//W3C//DTD SVG 1.1//EN" "http://www.w3.org/Graphics/SVG/1.1/DTD/svg11.dtd">
<svg width="32.2265625" height="52.822265625" xmlns="http://www.w3.org/2000/svg" xmlns:xlink="http://www.w3.org/1999/xlink" xmlns:xml="http://www.w3.org/XML/1998/namespace" version="1.1">
  <g>
    <g>
      <path style="fill:#FF0000;fill-opacity:1" d="M2.34375,30.8203125L2.53051710128784,35.159912109375 2.9150390625,39.0380859375 3.52294898033142,42.4072265625 4.3798828125,45.2197265625 5.4931640625,47.4609375 6.8701171875,49.1162109375 8.53637599945068,50.137939453125 10.517578125,50.478515625 12.498779296875,50.137939453125 14.1650390625,49.1162109375 15.538330078125,47.4609375 16.640625,45.2197265625 17.486572265625,42.4072265625 18.0908203125,39.0380859375 18.475341796875,35.159912109375 18.662109375,30.8203125 2.34375,30.8203125z M29.8828125,18.10546875L32.2265625,18.10546875 32.2265625,41.103515625 29.8828125,41.103515625 29.8828125,18.10546875z M23.26171875,18.10546875L25.60546875,18.10546875 25.60546875,41.103515625 23.26171875,41.103515625 23.26171875,18.10546875z M10.517578125,8.73046875L8.43749904632568,9.093017578125 6.708984375,10.1806640625 5.302734375,11.920166015625 4.189453125,14.23828125 3.35449171066284,17.10205078125 2.783203125,20.478515625 2.34375,28.4765625 18.69140625,28.4765625 18.251953125,20.478515625 17.6806640625,17.10205078125 16.845703125,14.23828125 15.732421875,11.920166015625 14.326171875,10.1806640625 12.59765625,9.093017578125 10.517578125,8.73046875z M10.517578125,6.38671922683716L12.945556640625,6.6796875 15.0732421875,7.55859375 16.885986328125,9.093017578125 18.369140625,11.3525390625 19.5263652801514,14.381103515625 20.361328125,18.22265625 20.8666973114014,22.9467792510986 21.03515625,28.623046875 20.8685283660889,34.3780517578125 20.3686504364014,39.33837890625 19.5355205535889,43.5040283203125 18.369140625,46.875 16.878662109375,49.4769287109375 15.0732421875,51.33544921875 12.952880859375,52.4505615234375 10.517578125,52.822265625 8.082275390625,52.4505615234375 5.9619140625,51.33544921875 4.156494140625,49.4769287109375 2.66601514816284,46.875 1.49963355064392,43.5040283203125 0.666503846645355,39.33837890625 0.1666259765625,34.3780517578125 0,28.623046875 0.16845703125,22.9467792510986 0.673828125,18.22265625 1.5087890625,14.381103515625 2.66601514816284,11.3525390625 4.1455078125,9.093017578125 5.947265625,7.55859375 8.07128810882568,6.6796875 10.517578125,6.38671922683716z M15.8203125,0L19.6801738739014,0.659182548522949 23.525390625,2.63671875 22.646484375,4.62890672683716 19.2333984375,2.87109351158142 15.8203125,2.34374976158142 12.626953125,2.87109351158142 9.462890625,4.62890672683716 8.583984375,2.63671875 12.26806640625,0.659182548522949 15.8203125,0z" />
    </g>
  </g>
</svg>