<?xml version="1.0" encoding="utf-8"?>
<!DOCTYPE svg PUBLIC "-//W3C//DTD SVG 1.1//EN" "http://www.w3.org/Graphics/SVG/1.1/DTD/svg11.dtd">
<svg width="30" height="47.40234375" xmlns="http://www.w3.org/2000/svg" xmlns:xlink="http://www.w3.org/1999/xlink" xmlns:xml="http://www.w3.org/XML/1998/namespace" version="1.1">
  <g>
    <g>
      <path style="fill:#FF0000;fill-opacity:1" d="M13.623046875,29.677734375L15.966796875,29.677734375 15.966796875,38.466796875 13.623046875,38.466796875 13.623046875,29.677734375z M15,18.955078125L13.553466796875,22.5146484375 11.8505859375,24.990234375 9.891357421875,26.4404296875 7.67578125,26.923828125 7.001953125,26.77734375 7.19970655441284,31.1334228515625 7.61718654632568,34.88525390625 8.25439357757568,38.0328369140625 9.111328125,40.576171875 10.191650390625,42.5372314453125 11.4990234375,43.93798828125 13.033447265625,44.7784423828125 14.794921875,45.05859375 16.640625,44.78759765625 18.251953125,43.974609375 19.6215801239014,42.601318359375 20.7421875,40.6494140625 21.6210918426514,38.104248046875 22.265625,34.951171875 22.6757793426514,31.171875 22.8515625,26.748046875 22.353515625,26.8359375 21.826171875,26.865234375 19.3579082489014,26.3671875 17.40234375,24.873046875 15.9521484375,22.3974609375 15,18.955078125z M12.919921875,0L14.794921875,0.966796875 12.158203125,6.298828125 20.625,3.955078125 20.625,4.365234375 15.87890625,13.30078125 16.7962646484375,18.1768798828125 18.02490234375,21.67236328125 19.5648193359375,23.7872314453125 21.416015625,24.521484375 22.6016216278076,24.3209838867188 23.6682109832764,23.719482421875 24.6157817840576,22.7169799804688 25.4443359375,21.3134765625 26.1593627929688,19.4943256378174 26.766357421875,17.2448749542236 27.2653198242188,14.5651254653931 27.65625,11.455078125 30,11.455078125 29.329833984375,16.3311767578125 28.3154296875,20.29541015625 26.956787109375,23.3477783203125 25.25390625,25.48828125 25.0671367645264,30.787353515625 24.5654296875,35.3173828125 23.7451152801514,39.0966796875 22.6025390625,42.1435546875 21.1376934051514,44.476318359375 19.3505859375,46.11328125 17.237548828125,47.080078125 14.794921875,47.40234375 12.484130859375,47.083740234375 10.4736328125,46.1279296875 8.75976467132568,44.512939453125 7.3388671875,42.216796875 6.214599609375,39.23583984375 5.390625,35.56640625 4.87060546875,31.1865234375 4.658203125,26.07421875 3.1805419921875,24.3621826171875 1.91162085533142,21.42333984375 0.851440250873566,17.2576904296875 0,11.865234375 2.314453125,11.865234375 2.7264404296875,14.83154296875 3.20068359375,17.40234375 3.7371826171875,19.57763671875 4.3359375,21.357421875 4.9969482421875,22.74169921875 5.72021484375,23.73046875 6.5057373046875,24.32373046875 7.353515625,24.521484375 9.6624755859375,23.7908935546875 11.46240234375,21.59912109375 12.7532958984375,17.9461669921875 13.53515625,12.83203125 16.376953125,7.67578125 8.37890625,9.521484375 12.919921875,0z" />
    </g>
  </g>
</svg>