<?xml version="1.0" encoding="utf-8"?>
<!DOCTYPE svg PUBLIC "-//W3C//DTD SVG 1.1//EN" "http://www.w3.org/Graphics/SVG/1.1/DTD/svg11.dtd">
<svg width="30.46875" height="43.9453125" xmlns="http://www.w3.org/2000/svg" xmlns:xlink="http://www.w3.org/1999/xlink" xmlns:xml="http://www.w3.org/XML/1998/namespace" version="1.1">
  <g>
    <g>
      <path style="fill:#FF0000;fill-opacity:1" d="M25.3125,25.751953125L25.72265625,27.9052734375 25.8984375,29.94140625 25.7519512176514,32.713623046875 25.3125,35.0537109375 24.5361309051514,37.03857421875 23.37890625,38.7451171875 21.8225078582764,40.224609375 19.8486328125,41.5283203125 17.413330078125,42.740478515625 14.47265625,43.9453125 13.7109375,41.71875 18.1494140625,39.7265625 21.2109375,37.6318359375 22.9833984375,34.775390625 23.4118633270264,32.87109375 23.5546875,30.498046875 23.4228515625,28.4326171875 23.056640625,26.220703125 25.3125,25.751953125z M0,0L2.34375,0 2.95165991783142,3.958740234375 3.837890625,7.2216796875 4.98046875,9.854736328125 6.357421875,11.923828125 7.96508693695068,13.4692401885986 9.7998046875,14.53125 14.0625,15.498046875 14.0625,0 16.40625,0 16.40625,15.46875 18.541259765625,15.0585956573486 20.5517578125,14.23828125 22.4011211395264,12.9931659698486 24.052734375,11.30859375 25.4809551239014,9.17724609375 26.66015625,6.591796875 27.5537109375,3.53759765625 28.125,0 30.46875,0 29.893798828125,3.83056640625 28.9306640625,7.236328125 27.608642578125,10.20263671875 25.95703125,12.71484375 23.9904766082764,14.7546405792236 21.7236328125,16.3037109375 19.1857891082764,17.3400897979736 16.40625,17.841796875 16.40625,37.060546875 15.849609375,37.353515625 4.62890625,31.2890625 4.62890625,43.212890625 2.314453125,43.212890625 2.314453125,27.802734375 2.783203125,27.509765625 14.0625,33.6328125 14.0625,17.841796875 11.253662109375,17.4389667510986 8.7451171875,16.58203125 6.536865234375,15.2307147979736 4.62890625,13.3447265625 3.021240234375,10.9057626724243 1.71386766433716,7.8955078125 0.706787168979645,4.273681640625 0,0z" />
    </g>
  </g>
</svg>