<?xml version="1.0" encoding="utf-8"?>
<!DOCTYPE svg PUBLIC "-//W3C//DTD SVG 1.1//EN" "http://www.w3.org/Graphics/SVG/1.1/DTD/svg11.dtd">
<svg width="29.208984375" height="46.435546875" xmlns="http://www.w3.org/2000/svg" xmlns:xlink="http://www.w3.org/1999/xlink" xmlns:xml="http://www.w3.org/XML/1998/namespace" version="1.1">
  <g>
    <g>
      <path style="fill:#FF0000;fill-opacity:1" d="M2.666015625,25.927734375L2.431640625,29.091796875 2.34375,32.138671875 2.578125,36.6357421875 3.3837890625,40.4443359375 4.921875,43.095703125 6.0205078125,43.8427734375 7.3828125,44.091796875 8.63159084320068,43.861083984375 9.7412109375,43.1689453125 11.5869140625,40.8251953125 12.94921875,37.67578125 13.857421875,34.306640625 15.322265625,34.306640625 16.402587890625,38.551025390625 17.9443359375,41.6162109375 19.8742656707764,43.472900390625 22.119140625,44.091796875 23.1518535614014,43.868408203125 24.08203125,43.1982421875 25.5908203125,40.7080078125 26.572265625,36.8701171875 26.923828125,31.904296875 26.66015625,25.927734375 2.666015625,25.927734375z M4.39453125,16.259765625L3.5595703125,19.892578125 2.958984375,23.583984375 26.42578125,23.583984375 25.8984375,19.892578125 25.166015625,16.259765625 4.39453125,16.259765625z M14.619140625,2.34375L13.05908203125,2.567138671875 11.6015625,3.2373046875 9.0087890625,5.68359375 6.826171875,9.345703125 5.068359375,13.916015625 24.55078125,13.916015625 22.880859375,9.375 20.68359375,5.6982421875 17.9443359375,3.2373046875 16.358642578125,2.567138671875 14.619140625,2.34375z M14.619140625,0L17.73193359375,0.604248046875 20.56640625,2.4169921875 23.0676250457764,5.31005859375 25.1806640625,9.1552734375 26.883544921875,13.8903818130493 28.154296875,19.453125 28.9453125,25.72265625 29.208984375,32.578125 28.76953125,38.173828125 27.4072265625,42.5537109375 26.3671875,44.183349609375 25.0927734375,45.41015625 23.5803203582764,46.17919921875 21.826171875,46.435546875 19.5190410614014,45.977783203125 17.578125,44.6044921875 15.9521484375,42.301025390625 14.58984375,39.052734375 13.5498046875,42.0263671875 11.982421875,44.3701171875 9.931640625,45.8935546875 7.44140625,46.435546875 5.36865234375,46.171875 3.720703125,45.380859375 2.43530249595642,44.12109375 1.4501953125,42.451171875 0.3076171875,38.056640625 0,32.578125 0.1611328125,27.919921875 0.703125,22.705078125 1.669921875,17.28515625 3.10546875,12.041015625 5.068359375,7.32421875 7.6025390625,3.5009765625 10.7666015625,0.9375 12.601318359375,0.234375 14.619140625,0z" />
    </g>
  </g>
</svg>