<?xml version="1.0" encoding="utf-8"?>
<!DOCTYPE svg PUBLIC "-//W3C//DTD SVG 1.1//EN" "http://www.w3.org/Graphics/SVG/1.1/DTD/svg11.dtd">
<svg width="31.81640625" height="46.435546875" xmlns="http://www.w3.org/2000/svg" xmlns:xlink="http://www.w3.org/1999/xlink" xmlns:xml="http://www.w3.org/XML/1998/namespace" version="1.1">
  <g>
    <g>
      <path style="fill:#FF0000;fill-opacity:1" d="M13.095703125,23.291015625L15.439453125,23.291015625 15.439453125,32.080078125 13.095703125,32.080078125 13.095703125,23.291015625z M5.361328125,8.525390625L4.248046875,9.0087890625 3.4423828125,10.2978515625 2.8857421875,12.099609375 2.54882764816284,14.1064453125 2.38769483566284,16.0693359375 2.34375047683716,17.6953125 2.38769483566284,19.3212890625 2.54882764816284,21.2841796875 2.8857421875,23.291015625 3.4423828125,25.0927734375 4.248046875,26.3818359375 5.361328125,26.865234375 6.474609375,26.3818359375 7.2802734375,25.107421875 7.8369140625,23.3056640625 8.173828125,21.2841796875 8.3349609375,19.3359375 8.37890625,17.724609375 8.3349609375,16.0986328125 8.173828125,14.12109375 7.8369140625,12.099609375 7.2802734375,10.2978515625 6.474609375,9.0087890625 5.361328125,8.525390625z M13.095703125,3.369140625L15.439453125,3.369140625 15.439453125,12.158203125 13.095703125,12.158203125 13.095703125,3.369140625z M19.453125,0L20.0390625,0 31.81640625,6.943359375 30.673828125,8.96484375 21.796875,3.779296875 21.796875,46.435546875 21.2109375,46.435546875 8.759765625,38.935546875 9.931640625,37.03125 19.453125,42.744140625 19.453125,18.896484375 10.693359375,18.896484375 10.2978515625,22.91015625 9.31640625,26.19140625 7.6904296875,28.4033203125 6.617431640625,29.007568359375 5.361328125,29.208984375 4.00634765625,28.978271484375 2.87109375,28.2861328125 1.21581983566284,25.7958984375 0.29296875,22.1337890625 0,17.6953125 0.29296875,13.2568359375 1.21581983566284,9.5947265625 2.87109375,7.1044921875 4.00634765625,6.412353515625 5.361328125,6.181640625 6.617431640625,6.38671875 7.6904296875,7.001953125 9.31640625,9.228515625 10.2978515625,12.5244140625 10.693359375,16.552734375 19.453125,16.552734375 19.453125,0z" />
    </g>
  </g>
</svg>