<?xml version="1.0" encoding="utf-8"?>
<!DOCTYPE svg PUBLIC "-//W3C//DTD SVG 1.1//EN" "http://www.w3.org/Graphics/SVG/1.1/DTD/svg11.dtd">
<svg width="26.5136718750002" height="52.822265625" xmlns="http://www.w3.org/2000/svg" xmlns:xlink="http://www.w3.org/1999/xlink" xmlns:xml="http://www.w3.org/XML/1998/namespace" version="1.1">
  <g>
    <g>
      <path style="fill:#FF0000;fill-opacity:1" d="M12.421875,36.6796875L7.90283155441284,37.12646484375 4.775390625,38.466796875 2.95166015625,40.64208984375 2.34375,43.59375 2.95166015625,46.5234375 4.775390625,48.69140625 7.90283155441284,50.03173828125 12.421875,50.478515625 16.9665508270264,50.03173828125 20.1123046875,48.69140625 21.9470195770264,46.5234375 22.55859375,43.59375 21.9470195770264,40.660400390625 20.1123046875,38.4814453125 16.9665508270264,37.130126953125 12.421875,36.6796875z M24.169921875,7.998046875L26.513671875,7.998046875 26.513671875,18.427734375 25.927734375,18.427734375 13.59375,12.744140625 13.59375,21.474609375 23.5546875,21.474609375 23.5546875,23.818359375 13.59375,23.818359375 13.59375,28.330078125 23.5546875,28.330078125 23.5546875,30.673828125 13.59375,30.673828125 13.59375,34.39453125 18.5229473114014,35.16357421875 22.060546875,37.001953125 24.19189453125,39.83642578125 24.90234375,43.59375 24.7055053710938,45.6912231445313 24.114990234375,47.530517578125 23.1307983398438,49.1116333007813 21.7529296875,50.4345703125 19.9887065887451,51.4791870117188 17.8454570770264,52.225341796875 15.3231801986694,52.6730346679688 12.421875,52.822265625 9.53430080413818,52.6730346679688 7.02392482757568,52.225341796875 4.89074659347534,51.4791870117188 3.134765625,50.4345703125 1.76330554485321,49.1116333007813 0.783691227436066,47.530517578125 0.195922642946243,45.6912231445313 0,43.59375 0.710449039936066,39.818115234375 2.841796875,36.9873046875 6.36474514007568,35.159912109375 11.25,34.39453125 11.25,30.673828125 1.2890625,30.673828125 1.2890625,28.330078125 11.25,28.330078125 11.25,23.818359375 1.2890625,23.818359375 1.2890625,21.474609375 11.25,21.474609375 11.25,9.2578125 11.8359375,9.2578125 24.169921875,15.17578125 24.169921875,7.998046875z M13.06640625,0L16.9262676239014,0.659182548522949 20.771484375,2.63671875 19.892578125,4.62890672683716 16.4794921875,2.87109351158142 13.06640625,2.34374976158142 9.873046875,2.87109351158142 6.708984375,4.62890672683716 5.830078125,2.63671875 9.51416015625,0.659182548522949 13.06640625,0z" />
    </g>
  </g>
</svg>