<?xml version="1.0" encoding="utf-8"?>
<!DOCTYPE svg PUBLIC "-//W3C//DTD SVG 1.1//EN" "http://www.w3.org/Graphics/SVG/1.1/DTD/svg11.dtd">
<svg width="23.056640625" height="46.435546875" xmlns="http://www.w3.org/2000/svg" xmlns:xlink="http://www.w3.org/1999/xlink" xmlns:xml="http://www.w3.org/XML/1998/namespace" version="1.1">
  <g>
    <g>
      <path style="fill:#FF0000;fill-opacity:1" d="M10.693359375,24.375L7.9541015625,25.0048828125 5.6689453125,25.8837890625 4.1162109375,27.216796875 3.544921875,29.1796875 3.97338795661926,30.849609375 5.2587890625,32.28515625 7.47436475753784,33.50830078125 10.693359375,34.541015625 10.693359375,24.375z M13.037109375,12.568359375L13.037109375,21.38671875 15.703125,20.7421875 17.9296875,19.8486328125 19.453125,18.515625 20.009765625,16.552734375 19.5739727020264,15.0292978286743 18.2665996551514,13.8574237823486 16.0876445770264,13.0371103286743 13.037109375,12.568359375z M10.693359375,0L11.279296875,0 23.056640625,6.943359375 21.9140625,8.96484375 13.037109375,3.779296875 13.037109375,10.25390625 16.9848613739014,10.95703125 19.921875,12.24609375 21.7456035614014,14.1137714385986 22.353515625,16.552734375 22.1520977020264,18.3178730010986 21.5478515625,19.74609375 19.4384765625,21.8115234375 16.46484375,23.0859375 13.037109375,23.90625 13.037109375,46.435546875 12.451171875,46.435546875 0,38.935546875 1.171875,37.03125 10.693359375,42.744140625 10.693359375,36.884765625 6.43066358566284,35.4638671875 3.486328125,33.720703125 1.7724609375,31.64794921875 1.201171875,29.23828125 1.40625,27.476806640625 2.021484375,26.0595703125 4.1748046875,23.994140625 7.20703125,22.6904296875 10.693359375,21.85546875 10.693359375,0z" />
    </g>
  </g>
</svg>