<?xml version="1.0" encoding="utf-8"?>
<!DOCTYPE svg PUBLIC "-//W3C//DTD SVG 1.1//EN" "http://www.w3.org/Graphics/SVG/1.1/DTD/svg11.dtd">
<svg width="27.2753906250006" height="44.82421875" xmlns="http://www.w3.org/2000/svg" xmlns:xlink="http://www.w3.org/1999/xlink" xmlns:xml="http://www.w3.org/XML/1998/namespace" version="1.1">
  <g>
    <g>
      <path style="fill:#FF0000;fill-opacity:1" d="M17.607421875,2.34375L15.560302734375,2.65869140625 13.9306640625,3.603515625 12.659912109375,5.0830078125 11.689453125,7.001953125 10.576171875,11.9384765625 10.283203125,17.8125 10.283203125,20.0390625 24.931640625,20.0390625 24.931640625,17.8125 24.6240234375,11.9384765625 23.5107421875,7.001953125 22.5476055145264,5.0830078125 21.26953125,3.603515625 19.6362285614014,2.65869140625 17.607421875,2.34375z M17.607421875,0L20.1818828582764,0.3515625 22.2802734375,1.40625 23.9538555145264,3.065185546875 25.25390625,5.2294921875 26.202392578125,7.8515625 26.8212890625,10.8837890625 27.275390625,17.8125 27.275390625,44.82421875 24.931640625,44.82421875 24.931640625,22.3828125 10.283203125,22.3828125 10.283203125,44.82421875 7.939453125,44.82421875 7.939453125,22.3828125 3.779296875,22.3828125 2.74658203125,22.78564453125 2.34375,23.818359375 2.34375,43.9453125 0,43.9453125 0,23.818359375 0.230712532997131,22.15576171875 0.9228515625,20.9765625 2.098388671875,20.2734394073486 3.779296875,20.0390625 7.939453125,20.0390625 7.939453125,17.8125 8.408203125,10.8837890625 9.0380859375,7.8515625 9.990234375,5.2294921875 11.290283203125,3.065185546875 12.9638671875,1.40625 15.054931640625,0.3515625 17.607421875,0z" />
    </g>
  </g>
</svg>