<?xml version="1.0" encoding="utf-8"?>
<!DOCTYPE svg PUBLIC "-//W3C//DTD SVG 1.1//EN" "http://www.w3.org/Graphics/SVG/1.1/DTD/svg11.dtd">
<svg width="29.12109375" height="43.212890625" xmlns="http://www.w3.org/2000/svg" xmlns:xlink="http://www.w3.org/1999/xlink" xmlns:xml="http://www.w3.org/XML/1998/namespace" version="1.1">
  <g>
    <g>
      <path style="fill:#FF0000;fill-opacity:1" d="M25.283203125,12.333984375L27.626953125,12.333984375 27.626953125,24.052734375 25.283203125,24.052734375 25.283203125,12.333984375z M1.46484375,12.333984375L3.80859375,12.333984375 3.80859375,24.052734375 1.46484375,24.052734375 1.46484375,12.333984375z M15.556640625,2.34375L15.556640625,14.443359375 23.14453125,2.34375 15.556640625,2.34375z M5.9765625,2.34375L13.212890625,13.88671875 13.212890625,2.34375 5.9765625,2.34375z M1.787109375,0L27.333984375,0 15.908203125,18.193359375 29.12109375,39.2578125 27.275390625,40.634765625 15.556640625,21.943359375 15.556640625,43.212890625 13.212890625,43.212890625 13.212890625,22.529296875 1.845703125,40.634765625 0,39.2578125 13.18359375,18.193359375 1.787109375,0z" />
    </g>
  </g>
</svg>