<?xml version="1.0" encoding="utf-8"?>
<!DOCTYPE svg PUBLIC "-//W3C//DTD SVG 1.1//EN" "http://www.w3.org/Graphics/SVG/1.1/DTD/svg11.dtd">
<svg width="24.08203125" height="52.822265625" xmlns="http://www.w3.org/2000/svg" xmlns:xlink="http://www.w3.org/1999/xlink" xmlns:xml="http://www.w3.org/XML/1998/namespace" version="1.1">
  <g>
    <g>
      <path style="fill:#FF0000;fill-opacity:1" d="M21.73828125,7.998046875L24.08203125,7.998046875 24.08203125,52.822265625 23.49609375,52.822265625 2.40234375,43.916015625 3.45703125,41.513671875 21.73828125,49.21875 21.73828125,7.998046875z M7.236328125,7.998046875L9.580078125,7.998046875 9.580078125,22.412109375 14.53125,26.484375 14.53125,14.970703125 16.875,14.970703125 16.875,31.083984375 16.259765625,31.083984375 9.580078125,25.546875 9.580078125,39.287109375 7.236328125,39.287109375 7.236328125,23.61328125 2.34375,19.5703125 2.34375,31.083984375 0,31.083984375 0,14.970703125 0.5859375,14.970703125 7.236328125,20.478515625 7.236328125,7.998046875z M11.77734375,0L15.6372051239014,0.659182548522949 19.482421875,2.63671875 18.603515625,4.62890672683716 15.1904296875,2.87109351158142 11.77734375,2.34374976158142 8.583984375,2.87109351158142 5.419921875,4.62890672683716 4.541015625,2.63671875 8.22509765625,0.659182548522949 11.77734375,0z" />
    </g>
  </g>
</svg>