<?xml version="1.0" encoding="utf-8"?>
<!DOCTYPE svg PUBLIC "-//W3C//DTD SVG 1.1//EN" "http://www.w3.org/Graphics/SVG/1.1/DTD/svg11.dtd">
<svg width="30.3515625" height="43.212890625" xmlns="http://www.w3.org/2000/svg" xmlns:xlink="http://www.w3.org/1999/xlink" xmlns:xml="http://www.w3.org/XML/1998/namespace" version="1.1">
  <g>
    <g>
      <path style="fill:#FF0000;fill-opacity:1" d="M1.201171875,15.791015625L3.544921875,15.791015625 3.544921875,27.509765625 1.201171875,27.509765625 1.201171875,15.791015625z M21.62109375,6.6796875L13.798828125,21.474609375 21.62109375,36.328125 21.62109375,6.6796875z M2.16796827316284,0L12.451171875,19.1015625 22.67578125,0 23.96484375,0 23.96484375,20.478515625 28.0078125,20.478515625 28.0078125,8.759765625 30.3515625,8.759765625 30.3515625,34.541015625 28.0078125,34.541015625 28.0078125,22.822265625 23.96484375,22.822265625 23.96484375,43.212890625 22.67578125,43.212890625 12.451171875,23.994140625 2.16796827316284,43.212890625 0.322265625,41.89453125 11.162109375,21.474609375 0,0.908203125 2.16796827316284,0z" />
    </g>
  </g>
</svg>