<?xml version="1.0" encoding="utf-8"?>
<!DOCTYPE svg PUBLIC "-//W3C//DTD SVG 1.1//EN" "http://www.w3.org/Graphics/SVG/1.1/DTD/svg11.dtd">
<svg width="26.89453125" height="43.212890625" xmlns="http://www.w3.org/2000/svg" xmlns:xlink="http://www.w3.org/1999/xlink" xmlns:xml="http://www.w3.org/XML/1998/namespace" version="1.1">
  <g>
    <g>
      <path style="fill:#FF0000;fill-opacity:1" d="M14.619140625,17.607421875L14.619140625,25.60546875 18.3544921875,25.224609375 20.9326171875,24.375 22.4267578125,23.14453125 22.91015625,21.591796875 22.4157695770264,20.050048828125 20.9326171875,18.8232421875 18.3654766082764,17.9846210479736 14.619140625,17.607421875z M12.275390625,17.607421875L8.5107421875,17.9809589385986 5.94726610183716,18.80859375 4.47509813308716,20.03173828125 3.98437547683716,21.591796875 4.47509813308716,23.155517578125 5.94726610183716,24.3896484375 8.5107421875,25.228271484375 12.275390625,25.60546875 12.275390625,17.607421875z M12.275390625,0L14.619140625,0 14.619140625,10.693359375 17.7685546875,9.931640625 20.6689453125,8.14453125 23.02734375,5.185546875 24.55078125,0.87890625 26.89453125,0.87890625 26.312255859375,3.577880859375 25.3271484375,5.9326171875 22.470703125,9.638671875 18.7646484375,12.01171875 14.619140625,13.037109375 14.619140625,15.263671875 19.2333984375,15.87890625 22.55859375,17.255859375 24.580078125,19.21875 25.25390625,21.591796875 24.580078125,23.994140625 22.55859375,25.95703125 19.2333984375,27.333984375 14.619140625,27.94921875 14.619140625,30.17578125 18.7646484375,31.201171875 22.470703125,33.57421875 25.3271484375,37.2802734375 26.312255859375,39.635009765625 26.89453125,42.333984375 24.55078125,42.333984375 23.02734375,38.0419921875 20.6689453125,35.068359375 17.7685546875,33.28125 14.619140625,32.51953125 14.619140625,43.212890625 12.275390625,43.212890625 12.275390625,32.51953125 9.0966796875,33.28125 6.19628953933716,35.068359375 3.85253953933716,38.02734375 2.34375047683716,42.333984375 0,42.333984375 0.578613340854645,39.635009765625 1.55273485183716,37.2802734375 4.40918016433716,33.57421875 8.1298828125,31.201171875 12.275390625,30.17578125 12.275390625,27.94921875 7.66113328933716,27.333984375 4.33593797683716,25.95703125 2.31445360183716,23.994140625 1.64062547683716,21.591796875 2.31445360183716,19.21875 4.33593797683716,17.255859375 7.66113328933716,15.87890625 12.275390625,15.263671875 12.275390625,13.037109375 8.1298828125,12.01171875 4.40918016433716,9.6533203125 1.55273485183716,5.947265625 0.578613340854645,3.58154296875 0,0.87890625 2.34375047683716,0.87890625 3.85253953933716,5.185546875 6.19628953933716,8.14453125 9.0966796875,9.931640625 12.275390625,10.693359375 12.275390625,0z" />
    </g>
  </g>
</svg>