<?xml version="1.0" encoding="utf-8"?>
<!DOCTYPE svg PUBLIC "-//W3C//DTD SVG 1.1//EN" "http://www.w3.org/Graphics/SVG/1.1/DTD/svg11.dtd">
<svg width="29.384765625" height="44.82421875" xmlns="http://www.w3.org/2000/svg" xmlns:xlink="http://www.w3.org/1999/xlink" xmlns:xml="http://www.w3.org/XML/1998/namespace" version="1.1">
  <g>
    <g>
      <path style="fill:#FF0000;fill-opacity:1" d="M5.947265625,28.2421875L4.2919921875,28.6962890625 3.1787109375,29.8974609375 2.548828125,31.611328125 2.34375,33.603515625 2.548828125,35.595703125 3.1787109375,37.3095703125 4.2919921875,38.5107421875 5.947265625,38.96484375 7.6025390625,38.5107421875 8.7158203125,37.3095703125 9.345703125,35.6103515625 9.55078125,33.6328125 9.345703125,31.6259765625 8.7158203125,29.8974609375 7.6025390625,28.6962890625 5.947265625,28.2421875z M5.947265625,6.943359375L4.2919921875,7.3974609375 3.1787109375,8.5986328125 2.548828125,10.3125 2.34375,12.3046875 2.548828125,14.296875 3.1787109375,16.0107421875 4.2919921875,17.2119140625 5.947265625,17.666015625 7.6025390625,17.2119140625 8.7158203125,16.0107421875 9.345703125,14.3115234375 9.55078125,12.333984375 9.345703125,10.3271484375 8.7158203125,8.5986328125 7.6025390625,7.3974609375 5.947265625,6.943359375z M17.9296875,0L18.515625,0 29.384765625,9.111328125 28.0078125,10.95703125 20.2734375,4.365234375 20.2734375,44.82421875 17.9296875,44.82421875 17.9296875,34.775390625 11.8359375,34.775390625 11.25,37.2509765625 10.0634765625,39.3310546875 8.291015625,40.7666015625 5.947265625,41.30859375 3.369140625,40.6494140625 1.5087890625,38.9208984375 0.380859375,36.4599609375 0,33.603515625 0.380859375,30.7470703125 1.5087890625,28.2861328125 3.369140625,26.5576171875 5.947265625,25.8984375 8.291015625,26.4404296875 10.0634765625,27.8759765625 11.25,29.9560546875 11.8359375,32.431640625 17.9296875,32.431640625 17.9296875,13.4765625 11.8359375,13.4765625 11.25,15.9521484375 10.0634765625,18.0322265625 8.291015625,19.4677734375 5.947265625,20.009765625 3.369140625,19.3505859375 1.5087890625,17.6220703125 0.380859375,15.1611328125 0,12.3046875 0.380859375,9.4482421875 1.5087890625,6.9873046875 3.369140625,5.2587890625 5.947265625,4.599609375 8.291015625,5.1416015625 10.0634765625,6.5771484375 11.25,8.6572265625 11.8359375,11.1328125 17.9296875,11.1328125 17.9296875,0z" />
    </g>
  </g>
</svg>