<?xml version="1.0" encoding="utf-8"?>
<!DOCTYPE svg PUBLIC "-//W3C//DTD SVG 1.1//EN" "http://www.w3.org/Graphics/SVG/1.1/DTD/svg11.dtd">
<svg width="27.65625" height="44.82421875" xmlns="http://www.w3.org/2000/svg" xmlns:xlink="http://www.w3.org/1999/xlink" xmlns:xml="http://www.w3.org/XML/1998/namespace" version="1.1">
  <g>
    <g>
      <path style="fill:#FF0000;fill-opacity:1" d="M16.845703125,9.404296875L13.392333984375,10.2337646484375 10.4150390625,11.25732421875 7.91381788253784,12.4749755859375 5.888671875,13.88671875 4.324951171875,15.4962167739868 3.2080078125,17.3071308135986 2.537841796875,19.3194599151611 2.314453125,21.533203125 2.64129638671875,23.9474487304688 3.387451171875,26.092529296875 4.55291748046875,27.9684448242188 6.1376953125,29.5751953125 8.15277099609375,30.9109497070313 10.609130859375,31.973876953125 13.5067749023438,32.7639770507813 16.845703125,33.28125 16.845703125,9.404296875z M25.3125,6.591796875L27.65625,6.591796875 27.65625,36.591796875 25.3125,36.591796875 25.3125,6.591796875z M16.845703125,0L19.189453125,0 19.189453125,44.82421875 16.845703125,44.82421875 16.845703125,36.123046875 12.9936218261719,35.3164672851563 9.6405029296875,34.215087890625 6.78634643554688,32.8189086914063 4.43115234375,31.1279296875 2.5749204158783,29.1421508789063 1.21765112876892,26.861572265625 0.359344333410263,24.2861938476563 0,21.416015625 0.301666110754013,18.7051391601563 1.11877417564392,16.256103515625 2.45132422447205,14.0689096450806 4.29931640625,12.1435556411743 6.66275024414063,10.4800424575806 9.5416259765625,9.078369140625 12.9359436035156,7.93853759765625 16.845703125,7.060546875 16.845703125,0z" />
    </g>
  </g>
</svg>