<?xml version="1.0" encoding="utf-8"?>
<!DOCTYPE svg PUBLIC "-//W3C//DTD SVG 1.1//EN" "http://www.w3.org/Graphics/SVG/1.1/DTD/svg11.dtd">
<svg width="28.3593750000005" height="46.435546875" xmlns="http://www.w3.org/2000/svg" xmlns:xlink="http://www.w3.org/1999/xlink" xmlns:xml="http://www.w3.org/XML/1998/namespace" version="1.1">
  <g>
    <g>
      <path style="fill:#FF0000;fill-opacity:1" d="M14.1796875,17.900390625L12.5244140625,18.3544921875 11.4111328125,19.5556640625 10.78125,21.26953125 10.576171875,23.26171875 10.78125,25.25390625 11.4111328125,26.9677734375 12.5244140625,28.1689453125 14.1796875,28.623046875 15.8349609375,28.1689453125 16.9482421875,26.9677734375 17.578125,25.2685546875 17.783203125,23.291015625 17.578125,21.2841796875 16.9482421875,19.5556640625 15.8349609375,18.3544921875 14.1796875,17.900390625z M14.1796875,15.556640625L16.7578125,16.2158203125 18.6181640625,17.958984375 19.74609375,20.4345703125 20.126953125,23.291015625 19.74609375,26.103515625 18.6181640625,28.564453125 16.7578125,30.3076171875 14.1796875,30.966796875 11.6015625,30.3076171875 9.7412109375,28.5791015625 8.61328125,26.1181640625 8.232421875,23.26171875 8.61328125,20.4052734375 9.7412109375,17.9443359375 11.6015625,16.2158203125 14.1796875,15.556640625z M14.1796875,2.34375L11.337890625,2.750244140625 8.90625,3.9697265625 6.87377834320068,5.892333984375 5.2294921875,8.408203125 3.96240234375,11.473388671875 3.0615234375,15.0439453125 2.34375,23.26171875 3.0615234375,31.46484375 3.96240234375,35.020751953125 5.2294921875,38.0712890625 6.87377834320068,40.572509765625 8.90625,42.48046875 11.337890625,43.68896484375 14.1796875,44.091796875 17.003173828125,43.68896484375 19.4384765625,42.48046875 21.4819316864014,40.572509765625 23.1298828125,38.0712890625 24.3969707489014,35.020751953125 25.2978515625,31.46484375 26.015625,23.26171875 25.2978515625,15.0439453125 24.3969707489014,11.473388671875 23.1298828125,8.408203125 21.4819316864014,5.892333984375 19.4384765625,3.9697265625 17.003173828125,2.750244140625 14.1796875,2.34375z M14.1796875,0L17.362060546875,0.3955078125 20.1708984375,1.58203125 22.5915508270264,3.515625 24.609375,6.15234375 26.21337890625,9.473876953125 27.392578125,13.4619140625 28.11767578125,18.0725116729736 28.359375,23.26171875 28.121337890625,28.46923828125 27.4072265625,33.076171875 26.239013671875,37.0458984375 24.638671875,40.341796875 22.6171855926514,42.952880859375 20.185546875,44.8681640625 17.36572265625,46.043701171875 14.1796875,46.435546875 10.99365234375,46.043701171875 8.173828125,44.8681640625 5.7421875,42.952880859375 3.720703125,40.341796875 2.12036108970642,37.0458984375 0.9521484375,33.076171875 0.238036751747131,28.46923828125 0,23.26171875 0.238036751747131,18.0725116729736 0.9521484375,13.4619140625 2.12402319908142,9.473876953125 3.7353515625,6.15234375 5.767822265625,3.515625 8.203125,1.58203125 11.015625,0.3955078125 14.1796875,0z" />
    </g>
  </g>
</svg>