<?xml version="1.0" encoding="utf-8"?>
<!DOCTYPE svg PUBLIC "-//W3C//DTD SVG 1.1//EN" "http://www.w3.org/Graphics/SVG/1.1/DTD/svg11.dtd">
<svg width="30" height="43.212890625" xmlns="http://www.w3.org/2000/svg" xmlns:xlink="http://www.w3.org/1999/xlink" xmlns:xml="http://www.w3.org/XML/1998/namespace" version="1.1">
  <g>
    <g>
      <path style="fill:#FF0000;fill-opacity:1" d="M15.380859375,34.423828125L17.724609375,34.423828125 17.724609375,43.212890625 15.380859375,43.212890625 15.380859375,34.423828125z M24.755859375,5.419921875L27.099609375,5.419921875 27.099609375,14.208984375 24.755859375,14.208984375 24.755859375,5.419921875z M6.005859375,5.419921875L8.349609375,5.419921875 8.349609375,14.208984375 6.005859375,14.208984375 6.005859375,5.419921875z M15.380859375,0L17.724609375,0 17.724609375,28.154296875 19.8156719207764,28.582763671875 21.8701171875,29.3994140625 23.8146953582764,30.604248046875 25.576171875,32.197265625 28.4326171875,36.5185546875 29.417724609375,39.239501953125 30,42.333984375 27.65625,42.333984375 26.9677734375,39.393310546875 25.95703125,36.8994140625 24.7009258270264,34.837646484375 23.2763671875,33.193359375 21.7053203582764,31.9482421875 20.009765625,31.083984375 16.552734375,30.41015625 13.0810546875,31.083984375 11.392822265625,31.9482421875 9.814453125,33.193359375 8.38256740570068,34.833984375 7.1337890625,36.884765625 6.134033203125,39.375 5.44921875,42.333984375 3.10546875,42.333984375 4.3798828125,37.1484375 6.6943359375,33.10546875 9.755859375,30.234375 13.271484375,28.564453125 2.34375,22.91015625 2.34375,36.26953125 0,36.26953125 0,19.27734375 0.5859375,19.27734375 15.380859375,27.24609375 15.380859375,0z" />
    </g>
  </g>
</svg>