<?xml version="1.0" encoding="utf-8"?>
<!DOCTYPE svg PUBLIC "-//W3C//DTD SVG 1.1//EN" "http://www.w3.org/Graphics/SVG/1.1/DTD/svg11.dtd">
<svg width="23.37890625" height="51.2109375" xmlns="http://www.w3.org/2000/svg" xmlns:xlink="http://www.w3.org/1999/xlink" xmlns:xml="http://www.w3.org/XML/1998/namespace" version="1.1">
  <g>
    <g>
      <path style="fill:#FF0000;fill-opacity:1" d="M16.81640625,25.634765625L19.16015625,25.634765625 19.16015625,34.423828125 16.81640625,34.423828125 16.81640625,25.634765625z M21.064453125,14.12109375L13.06640625,30 21.064453125,44.765625 21.064453125,14.12109375z M2.34375,14.0625L2.34375,45.17578125 10.6640625,30 2.34375,14.0625z M0,7.998046875L1.640625,7.998046875 11.66015625,26.982421875 21.73828125,7.998046875 23.37890625,7.998046875 23.37890625,51.2109375 21.62109375,51.2109375 11.689453125,32.724609375 1.7578125,51.2109375 0,51.2109375 0,7.998046875z M11.455078125,0L15.3149394989014,0.659182548522949 19.16015625,2.63671875 18.28125,4.62890625 14.8681640625,2.87109351158142 11.455078125,2.34375 8.26171875,2.87109351158142 5.09765625,4.62890625 4.21875,2.63671875 7.90283155441284,0.659182548522949 11.455078125,0z" />
    </g>
  </g>
</svg>