<?xml version="1.0" encoding="utf-8"?>
<!DOCTYPE svg PUBLIC "-//W3C//DTD SVG 1.1//EN" "http://www.w3.org/Graphics/SVG/1.1/DTD/svg11.dtd">
<svg width="28.271484375" height="46.435546875" xmlns="http://www.w3.org/2000/svg" xmlns:xlink="http://www.w3.org/1999/xlink" xmlns:xml="http://www.w3.org/XML/1998/namespace" version="1.1">
  <g>
    <g>
      <path style="fill:#FF0000;fill-opacity:1" d="M12.978515625,0L13.564453125,0 25.341796875,6.943359375 24.19921875,8.96484375 15.322265625,3.779296875 15.322265625,18.22265625 25.927734375,24.052734375 25.927734375,10.6640625 28.271484375,10.6640625 28.271484375,27.65625 27.685546875,27.65625 15.322265625,21.005859375 15.322265625,29.736328125 24.404296875,29.736328125 24.404296875,32.080078125 15.322265625,32.080078125 15.322265625,46.435546875 14.736328125,46.435546875 2.28515625,38.935546875 3.45703125,37.03125 12.978515625,42.744140625 12.978515625,32.080078125 3.896484375,32.080078125 3.896484375,29.736328125 12.978515625,29.736328125 12.978515625,19.74609375 2.34375,14.00390625 2.34375,27.0703125 0,27.0703125 0,10.078125 0.585937976837158,10.078125 12.978515625,16.93359375 12.978515625,0z" />
    </g>
  </g>
</svg>