<?xml version="1.0" encoding="utf-8"?>
<!DOCTYPE svg PUBLIC "-//W3C//DTD SVG 1.1//EN" "http://www.w3.org/Graphics/SVG/1.1/DTD/svg11.dtd">
<svg width="28.505859375" height="51.2109375" xmlns="http://www.w3.org/2000/svg" xmlns:xlink="http://www.w3.org/1999/xlink" xmlns:xml="http://www.w3.org/XML/1998/namespace" version="1.1">
  <g>
    <g>
      <path style="fill:#FF0000;fill-opacity:1" d="M12.3046875,6.38671875L12.890625,6.38671875 28.505859375,15.615234375 27.333984375,17.724609375 14.6484375,9.990234375 14.6484375,21.9140625 26.953125,21.9140625 26.953125,24.2578125 14.6484375,24.2578125 14.6484375,30.41015625 26.953125,30.41015625 26.953125,32.75390625 14.6484375,32.75390625 14.6484375,38.90625 26.953125,38.90625 26.953125,41.25 14.6484375,41.25 14.6484375,51.2109375 12.3046875,51.2109375 12.3046875,41.25 0,41.25 0,38.90625 12.3046875,38.90625 12.3046875,32.75390625 0,32.75390625 0,30.41015625 12.3046875,30.41015625 12.3046875,24.2578125 0,24.2578125 0,21.9140625 12.3046875,21.9140625 12.3046875,6.38671875z M14.033203125,0L17.8930644989014,0.659182548522949 21.73828125,2.63671875 20.859375,4.62890625 17.4462890625,2.87109351158142 14.033203125,2.34375 10.83984375,2.87109351158142 7.67578125,4.62890625 6.796875,2.63671875 10.48095703125,0.659182548522949 14.033203125,0z" />
    </g>
  </g>
</svg>