<?xml version="1.0" encoding="utf-8"?>
<!DOCTYPE svg PUBLIC "-//W3C//DTD SVG 1.1//EN" "http://www.w3.org/Graphics/SVG/1.1/DTD/svg11.dtd">
<svg width="32.783203125001" height="51.2109375" xmlns="http://www.w3.org/2000/svg" xmlns:xlink="http://www.w3.org/1999/xlink" xmlns:xml="http://www.w3.org/XML/1998/namespace" version="1.1">
  <g>
    <g>
      <path style="fill:#FF0000;fill-opacity:1" d="M10.37109375,25.48828125L10.37109375,39.08203125 13.06640625,38.3056640625 14.8095703125,36.7822265625 15.76171875,34.7021484375 16.0546875,32.314453125 15.76171875,29.9267578125 14.8095703125,27.8466796875 13.06640625,26.2939453125 10.37109375,25.48828125z M8.02734375,25.48828125L5.31738233566284,26.279296875 3.55956983566284,27.8173828125 2.6220703125,29.8974609375 2.34375,32.314453125 2.6220703125,34.716796875 3.55956983566284,36.7822265625 5.31738233566284,38.3056640625 8.02734375,39.08203125 8.02734375,25.48828125z M22.08984375,6.38671875L22.67578125,6.38671875 32.783203125,14.560546875 31.34765625,16.40625 24.43359375,10.83984375 24.43359375,51.2109375 22.08984375,51.2109375 22.08984375,18.251953125 10.37109375,12.0703125 10.37109375,23.14453125 13.857421875,24.169921875 16.3623046875,26.25 17.8857421875,29.0771484375 18.3984375,32.314453125 17.8857421875,35.5517578125 16.3623046875,38.349609375 13.857421875,40.400390625 10.37109375,41.42578125 10.37109375,51.2109375 8.02734375,51.2109375 8.02734375,41.42578125 4.52636671066284,40.400390625 2.00683546066284,38.3349609375 0.498046398162842,35.537109375 0,32.314453125 0.498046398162842,29.0478515625 2.00683546066284,26.2353515625 4.52636671066284,24.169921875 8.02734375,23.14453125 8.02734375,8.466796875 8.61328125,8.466796875 22.08984375,15.556640625 22.08984375,6.38671875z M15.703125,0L19.5629863739014,0.659182548522949 23.408203125,2.63671875 22.529296875,4.62890625 19.1162109375,2.87109351158142 15.703125,2.34375 12.509765625,2.87109351158142 9.345703125,4.62890625 8.466796875,2.63671875 12.1508779525757,0.659182548522949 15.703125,0z" />
    </g>
  </g>
</svg>