<?xml version="1.0" encoding="utf-8"?>
<!DOCTYPE svg PUBLIC "-//W3C//DTD SVG 1.1//EN" "http://www.w3.org/Graphics/SVG/1.1/DTD/svg11.dtd">
<svg width="30.146484375" height="43.212890625" xmlns="http://www.w3.org/2000/svg" xmlns:xlink="http://www.w3.org/1999/xlink" xmlns:xml="http://www.w3.org/XML/1998/namespace" version="1.1">
  <g>
    <g>
      <path style="fill:#FF0000;fill-opacity:1" d="M12.71484375,10.458984375L8.525390625,12.12890625 5.244140625,14.5458984375 3.10546875,17.7099609375 2.53417944908142,19.566650390625 2.34375,21.591796875 3.076171875,25.4150390625 5.1123046875,28.53515625 8.232421875,30.9375 12.24609375,32.607421875 12.216796875,32.2265625 12.216796875,31.81640625 12.83203125,28.2275390625 14.6923828125,25.078125 17.8125,22.5439453125 22.177734375,20.80078125 17.900390625,19.3505859375 14.9560546875,17.05078125 13.2568359375,14.12109375 12.71484375,10.72265625 12.71484375,10.458984375z M29.560546875,0L30.146484375,2.34375 26.71875,2.486572265625 23.701171875,2.9150390625 21.1120586395264,3.6181640625 18.9697265625,4.5849609375 17.281494140625,5.804443359375 16.0546875,7.265625 15.3076171875,8.9501953125 15.05859375,10.83984375 15.263671875,12.5756855010986 15.87890625,14.208984375 16.900634765625,15.6958026885986 18.3251953125,16.9921875 20.1525859832764,18.0725116729736 22.3828125,18.9111328125 25.0122051239014,19.449462890625 28.037109375,19.62890625 28.037109375,21.97265625 23.408203125,22.6611328125 19.0576171875,24.6240234375 15.8203125,27.7001953125 14.87548828125,29.608154296875 14.560546875,31.728515625 14.82421875,33.80126953125 15.615234375,35.625 16.907958984375,37.188720703125 18.6767578125,38.4814453125 20.9033184051514,39.503173828125 23.5693359375,40.25390625 26.656494140625,40.71533203125 30.146484375,40.869140625 29.794921875,43.212890625 26.2976055145264,43.0819702148438 23.1884746551514,42.689208984375 20.4675273895264,42.0346069335938 18.134765625,41.1181640625 16.190185546875,39.9563598632813 14.6337890625,38.565673828125 13.465576171875,36.9461059570313 12.685546875,35.09765625 7.236328125,32.98828125 5.0537109375,31.563720703125 3.251953125,29.9267578125 1.83837854862213,28.092041015625 0.8203125,26.07421875 0.205078125,23.89892578125 0,21.591796875 0.21240234375,19.2553730010986 0.849609375,17.05078125 1.90429651737213,15.0073261260986 3.369140625,13.154296875 5.233154296875,11.5063486099243 7.4853515625,10.078125 13.095703125,7.998046875 13.88671875,6.17431640625 15.087890625,4.5703125 18.603515625,2.0654296875 23.4814453125,0.52734375 29.560546875,0z" />
    </g>
  </g>
</svg>