<?xml version="1.0" encoding="utf-8"?>
<!DOCTYPE svg PUBLIC "-//W3C//DTD SVG 1.1//EN" "http://www.w3.org/Graphics/SVG/1.1/DTD/svg11.dtd">
<svg width="26.25" height="44.82421875" xmlns="http://www.w3.org/2000/svg" xmlns:xlink="http://www.w3.org/1999/xlink" xmlns:xml="http://www.w3.org/XML/1998/namespace" version="1.1">
  <g>
    <g>
      <path style="fill:#FF0000;fill-opacity:1" d="M0,1.611328125L2.34375,1.611328125 2.34375,12.59765625 7.55859375,12.59765625 7.55859375,1.611328125 9.90234375,1.611328125 9.90234375,25.927734375 7.55859375,25.927734375 7.55859375,14.94140625 2.34375,14.94140625 2.34375,25.927734375 0,25.927734375 0,1.611328125z M19.306640625,0L22.1337890625,0.41015625 24.3310546875,1.962890625 25.147705078125,3.3251953125 25.751953125,5.126953125 26.12548828125,7.44873046875 26.25,10.37109375 26.25,36.328125 26.004638671875,38.338623046875 25.2685546875,39.7412109375 24.0783672332764,40.565185546875 22.470703125,40.83984375 21.708984375,40.810546875 21.03515625,40.6787109375 20.2001953125,40.37109375 18.984375,39.84375 11.66015625,35.712890625 11.66015625,44.82421875 9.31640625,44.82421875 9.31640625,32.28515625 9.90234375,32.28515625 19.716796875,37.646484375 20.947265625,38.1298828125 22.001953125,38.37890625 23.4228515625,37.8076171875 23.7561016082764,37.027587890625 23.90625,35.830078125 23.90625,10.37109375 23.6865234375,6.708984375 22.939453125,4.21875 21.533203125,2.7978515625 19.306640625,2.34375 17.314453125,2.7685546875 15.6005859375,3.8671875 14.208984375,5.3759765625 13.154296875,7.060546875 11.455078125,5.68359375 12.7294921875,3.544921875 14.560546875,1.728515625 16.787109375,0.46875 19.306640625,0z" />
    </g>
  </g>
</svg>