<?xml version="1.0" encoding="utf-8"?>
<!DOCTYPE svg PUBLIC "-//W3C//DTD SVG 1.1//EN" "http://www.w3.org/Graphics/SVG/1.1/DTD/svg11.dtd">
<svg width="27.8320312500006" height="46.435546875" xmlns="http://www.w3.org/2000/svg" xmlns:xlink="http://www.w3.org/1999/xlink" xmlns:xml="http://www.w3.org/XML/1998/namespace" version="1.1">
  <g>
    <g>
      <path style="fill:#FF0000;fill-opacity:1" d="M12.744140625,24.7265625L5.7421875,30.556640625 8.7744140625,32.34375 12.744140625,33.193359375 12.744140625,24.7265625z M15.087890625,24.697265625L15.087890625,33.193359375 19.0576171875,32.34375 22.119140625,30.52734375 15.087890625,24.697265625z M22.44140625,16.58203125L15.5859375,22.32421875 23.525390625,29.0625 24.990234375,26.3671875 25.48828125,23.4375 25.2978515625,21.602783203125 24.7265625,19.7900390625 23.7744121551514,18.0871601104736 22.44140625,16.58203125z M5.361328125,16.58203125L3.10546875,19.775390625 2.5341796875,21.5771484375 2.34375,23.408203125 2.8271484375,26.3671875 4.306640625,29.091796875 12.24609375,22.32421875 5.361328125,16.58203125z M15.087890625,13.65234375L15.087890625,19.921875 20.595703125,15.234375 18.10546875,14.1796875 15.087890625,13.65234375z M12.744140625,13.623046875L9.7119140625,14.150390625 7.20703125,15.234375 12.744140625,19.921875 12.744140625,13.623046875z M12.744140625,0L13.330078125,0 27.59765625,8.408203125 26.455078125,10.4296875 15.087890625,3.779296875 15.087890625,11.30859375 17.9882793426514,11.7041015625 20.537109375,12.5390625 24.5361328125,15.234375 25.96435546875,16.9958515167236 26.9970703125,18.9990234375 27.623291015625,21.170654296875 27.83203125,23.4375 27.623291015625,25.70068359375 26.9970703125,27.861328125 25.96435546875,29.857177734375 24.5361328125,31.6259765625 20.537109375,34.3212890625 17.9882793426514,35.145263671875 15.087890625,35.537109375 15.087890625,46.435546875 14.501953125,46.435546875 0.146484375,37.79296875 1.318359375,35.888671875 12.744140625,42.744140625 12.744140625,35.537109375 9.84375,35.1416015625 7.294921875,34.306640625 3.2958984375,31.611328125 1.86767554283142,29.849853515625 0.8349609375,27.8466796875 0.208739876747131,25.675048828125 0,23.408203125 0.208739876747131,21.14501953125 0.8349609375,18.984375 1.86767554283142,16.9885272979736 3.2958984375,15.2197265625 7.294921875,12.5244140625 9.84375,11.700439453125 12.744140625,11.30859375 12.744140625,0z" />
    </g>
  </g>
</svg>