<?xml version="1.0" encoding="utf-8"?>
<!DOCTYPE svg PUBLIC "-//W3C//DTD SVG 1.1//EN" "http://www.w3.org/Graphics/SVG/1.1/DTD/svg11.dtd">
<svg width="26.5136718750008" height="44.82421875" xmlns="http://www.w3.org/2000/svg" xmlns:xlink="http://www.w3.org/1999/xlink" xmlns:xml="http://www.w3.org/XML/1998/namespace" version="1.1">
  <g>
    <g>
      <path style="fill:#FF0000;fill-opacity:1" d="M22.6171875,0L24.9609375,0 24.9609375,22.79296875 22.6171875,22.79296875 21.8115234375,20.6396484375 19.86328125,18.4716796875 17.138671875,16.787109375 14.00390625,16.11328125 11.942138671875,16.3037128448486 9.9169921875,16.875 6.298828125,19.1455078125 3.6181640625,22.91015625 2.772216796875,25.341796875 2.373046875,28.125 22.1484375,28.125 22.1484375,30.46875 2.373046875,30.46875 2.772216796875,32.999267578125 3.5595703125,35.3173828125 6.09375,39.111328125 9.6826171875,41.5869140625 11.781005859375,42.257080078125 14.00390625,42.48046875 17.05078125,42.01171875 19.86328125,40.6201171875 22.2802734375,38.291015625 24.169921875,35.0390625 26.513671875,36.005859375 24.1552734375,39.83642578125 21.357421875,42.59765625 18.0102519989014,44.267578125 14.00390625,44.82421875 10.799560546875,44.5166015625 7.9833984375,43.59375 5.57372951507568,42.1435546875 3.5888671875,40.25390625 2.032470703125,37.965087890625 0.908203125,35.3173828125 0.227050423622131,32.398681640625 0,29.296875 0.615234375,24.2431640625 2.2705078125,20.2734375 4.7021484375,17.314453125 7.646484375,15.29296875 10.83984375,14.1357421875 14.00390625,13.76953125 16.494140625,14.1064453125 18.8525390625,15 20.947265625,16.3037109375 22.6171875,17.841796875 22.6171875,0z M8.525390625,0L10.869140625,0 10.869140625,5.2734375 18.33984375,5.2734375 18.33984375,7.6171875 10.869140625,7.6171875 10.869140625,12.59765625 8.525390625,12.59765625 8.525390625,7.6171875 1.0546875,7.6171875 1.0546875,5.2734375 8.525390625,5.2734375 8.525390625,0z" />
    </g>
  </g>
</svg>