<?xml version="1.0" encoding="utf-8"?>
<!DOCTYPE svg PUBLIC "-//W3C//DTD SVG 1.1//EN" "http://www.w3.org/Graphics/SVG/1.1/DTD/svg11.dtd">
<svg width="29.970703125" height="52.734375" xmlns="http://www.w3.org/2000/svg" xmlns:xlink="http://www.w3.org/1999/xlink" xmlns:xml="http://www.w3.org/XML/1998/namespace" version="1.1">
  <g>
    <g>
      <path style="fill:#FF0000;fill-opacity:1" d="M0,15.17578125L2.314453125,15.17578125 3.0615234375,18.607177734375 4.072265625,21.4599609375 5.335693359375,23.7817401885986 6.8408203125,25.6201171875 8.57299709320068,26.993408203125 10.517578125,27.919921875 14.94140625,28.623046875 17.1240234375,28.4326171875 19.21875,27.861328125 21.1743144989014,26.8798847198486 22.939453125,25.458984375 24.4958477020264,23.5949726104736 25.8251953125,21.2841796875 26.876220703125,18.489990234375 27.59765625,15.17578125 29.970703125,15.17578125 29.271240234375,18.61083984375 28.2275390625,21.650390625 26.87255859375,24.2834491729736 25.2392578125,26.4990234375 23.3312969207764,28.282470703125 21.15234375,29.619140625 18.7353496551514,30.50537109375 16.11328125,30.9375 16.11328125,34.62890625 16.3330078125,40.8544921875 16.64794921875,43.546142578125 17.1533203125,45.849609375 17.867431640625,47.735595703125 18.80859375,49.1748046875 20.0097637176514,50.086669921875 21.50390625,50.390625 22.9797344207764,50.16357421875 24.1259765625,49.482421875 25.634765625,46.962890625 26.396484375,43.1396484375 26.77734375,38.3203125 29.12109375,38.3203125 28.681640625,43.798828125 27.6123046875,48.3837890625 26.671142578125,50.16357421875 25.400390625,51.5478515625 23.7084941864014,52.437744140625 21.50390625,52.734375 19.072265625,52.1923828125 17.2265625,50.712890625 15.8642578125,48.5009765625 14.912109375,45.76171875 13.974609375,48.5009765625 12.626953125,50.712890625 10.78125,52.1923828125 8.37890625,52.734375 6.17431640625,52.437744140625 4.482421875,51.5478515625 3.211669921875,50.16357421875 2.2705078125,48.3837890625 1.20117235183716,43.798828125 0.76171875,38.3203125 3.10546875,38.3203125 3.515625,43.1396484375 4.3505859375,46.962890625 5.8740234375,49.482421875 6.97631740570068,50.16357421875 8.37890625,50.390625 9.84741115570068,50.086669921875 11.0302734375,49.1748046875 11.964111328125,47.735595703125 12.685546875,45.849609375 13.20556640625,43.546142578125 13.53515625,40.8544921875 13.76953125,34.62890625 13.76953125,30.9375 11.1181640625,30.5859375 8.73046875,29.82421875 6.61010646820068,28.623046875 4.7607421875,26.953125 3.175048828125,24.7961444854736 1.845703125,22.1337890625 0.783691048622131,18.936767578125 0,15.17578125z M13.76953125,7.998046875L16.11328125,7.998046875 16.11328125,14.8828125 22.998046875,14.8828125 22.998046875,17.2265625 16.11328125,17.2265625 16.11328125,24.111328125 13.76953125,24.111328125 13.76953125,17.2265625 6.884765625,17.2265625 6.884765625,14.8828125 13.76953125,14.8828125 13.76953125,7.998046875z M14.736328125,0L18.5961894989014,0.659182548522949 22.44140625,2.63671851158142 21.5625,4.62890625 18.1494140625,2.87109398841858 14.736328125,2.34374976158142 11.54296875,2.87109398841858 8.37890625,4.62890625 7.5,2.63671851158142 11.18408203125,0.659182548522949 14.736328125,0z" />
    </g>
  </g>
</svg>