<?xml version="1.0" encoding="utf-8"?>
<!DOCTYPE svg PUBLIC "-//W3C//DTD SVG 1.1//EN" "http://www.w3.org/Graphics/SVG/1.1/DTD/svg11.dtd">
<svg width="26.8359375000006" height="44.82421875" xmlns="http://www.w3.org/2000/svg" xmlns:xlink="http://www.w3.org/1999/xlink" xmlns:xml="http://www.w3.org/XML/1998/namespace" version="1.1">
  <g>
    <g>
      <path style="fill:#FF0000;fill-opacity:1" d="M22.6171875,0L24.9609375,0 24.9609375,13.037109375 23.525390625,13.037109375 21.4416484832764,9.70458984375 19.0576171875,7.32421875 16.343994140625,5.89599609375 13.271484375,5.419921875 11.21337890625,5.731201171875 9.2578125,6.6650390625 7.45971584320068,8.148193359375 5.8740234375,10.107421875 4.530029296875,12.5134296417236 3.45703125,15.3369140625 2.71728515625,18.5046405792236 2.373046875,21.943359375 19.248046875,21.943359375 19.248046875,24.287109375 2.34375,24.287109375 2.6513671875,28.546142578125 3.33984375,32.2412109375 4.383544921875,35.36865234375 5.7568359375,37.9248046875 7.44872951507568,39.913330078125 9.4482421875,41.337890625 11.737060546875,42.19482421875 14.296875,42.48046875 17.6696758270264,41.75537109375 20.4638671875,39.931640625 22.7600078582764,37.060546875 24.638671875,33.193359375 26.8359375,34.16015625 24.68994140625,38.734130859375 21.943359375,42.0849609375 18.5668926239014,44.139404296875 14.53125,44.82421875 11.1474609375,44.47998046875 8.203125,43.447265625 5.70190334320068,41.75537109375 3.6474609375,39.43359375 2.047119140625,36.485595703125 0.908203125,32.9150390625 0.227050423622131,28.751220703125 0,24.0234375 0.230712532997131,19.47509765625 0.9228515625,15.380859375 2.054443359375,11.7956552505493 3.603515625,8.7744140625 5.55541896820068,6.35009765625 7.8955078125,4.5556640625 10.609130859375,3.446044921875 13.681640625,3.076171875 16.14990234375,3.372802734375 18.45703125,4.2626953125 20.6103496551514,5.650634765625 22.6171875,7.44140625 22.6171875,0z" />
    </g>
  </g>
</svg>