<?xml version="1.0" encoding="utf-8"?>
<!DOCTYPE svg PUBLIC "-//W3C//DTD SVG 1.1//EN" "http://www.w3.org/Graphics/SVG/1.1/DTD/svg11.dtd">
<svg width="28.505859375" height="44.82421875" xmlns="http://www.w3.org/2000/svg" xmlns:xlink="http://www.w3.org/1999/xlink" xmlns:xml="http://www.w3.org/XML/1998/namespace" version="1.1">
  <g>
    <g>
      <path style="fill:#FF0000;fill-opacity:1" d="M12.3046875,0L12.890625,0 28.505859375,9.228515625 27.333984375,11.337890625 14.6484375,3.603515625 14.6484375,15.52734375 26.953125,15.52734375 26.953125,17.87109375 14.6484375,17.87109375 14.6484375,24.0234375 26.953125,24.0234375 26.953125,26.3671875 14.6484375,26.3671875 14.6484375,32.51953125 26.953125,32.51953125 26.953125,34.86328125 14.6484375,34.86328125 14.6484375,44.82421875 12.3046875,44.82421875 12.3046875,34.86328125 0,34.86328125 0,32.51953125 12.3046875,32.51953125 12.3046875,26.3671875 0,26.3671875 0,24.0234375 12.3046875,24.0234375 12.3046875,17.87109375 0,17.87109375 0,15.52734375 12.3046875,15.52734375 12.3046875,0z" />
    </g>
  </g>
</svg>