<?xml version="1.0" encoding="utf-8"?>
<!DOCTYPE svg PUBLIC "-//W3C//DTD SVG 1.1//EN" "http://www.w3.org/Graphics/SVG/1.1/DTD/svg11.dtd">
<svg width="32.314453125" height="52.822265625" xmlns="http://www.w3.org/2000/svg" xmlns:xlink="http://www.w3.org/1999/xlink" xmlns:xml="http://www.w3.org/XML/1998/namespace" version="1.1">
  <g>
    <g>
      <path style="fill:#FF0000;fill-opacity:1" d="M0,7.998046875L10.25390625,7.998046875 10.25390625,10.341796875 6.328125,10.341796875 7.03857421875,14.59716796875 7.939453125,18.046875 9.01611232757568,20.7861347198486 10.25390625,22.91015625 11.6491689682007,24.4555683135986 13.1982421875,25.458984375 16.669921875,26.19140625 18.310546875,25.9716815948486 19.833984375,25.3125 21.2292461395264,24.1735858917236 22.4853515625,22.5146484375 23.5949687957764,20.3247089385986 24.55078125,17.5927734375 25.3491191864014,14.278564453125 25.986328125,10.341796875 22.060546875,10.341796875 22.060546875,7.998046875 32.314453125,7.998046875 32.314453125,10.341796875 28.330078125,10.341796875 27.8137187957764,14.36279296875 27.0263671875,17.87109375 26.0009746551514,20.8740253448486 24.7705078125,23.37890625 23.3386211395264,25.3894062042236 21.708984375,26.9091796875 19.9072265625,27.930908203125 17.958984375,28.447265625 17.958984375,34.658203125 28.9453125,34.658203125 28.9453125,37.001953125 17.958984375,37.001953125 17.958984375,44.619140625 17.537841796875,48.09814453125 16.2744140625,50.68359375 14.146728515625,52.28759765625 11.1328125,52.822265625 7.998046875,52.265625 5.6689453125,50.712890625 3.86718726158142,48.33984375 2.37304663658142,45.322265625 4.453125,44.033203125 5.3173828125,46.0986328125 6.6064453125,48.193359375 8.4814453125,49.8193359375 11.1328125,50.478515625 12.94921875,50.126953125 14.35546875,49.04296875 15.2783203125,47.2119140625 15.615234375,44.619140625 15.615234375,37.001953125 4.62890625,37.001953125 4.62890625,34.658203125 15.615234375,34.658203125 15.615234375,28.505859375 13.406982421875,28.08837890625 11.4111328125,27.24609375 9.62402248382568,25.9167499542236 8.0419921875,24.0380859375 6.676025390625,21.5808124542236 5.537109375,18.515625 4.62890625,14.78759765625 3.95507788658142,10.341796875 0,10.341796875 0,7.998046875z M16.5234375,0L20.3832988739014,0.659182548522949 24.228515625,2.63671875 23.349609375,4.62890672683716 19.9365234375,2.87109351158142 16.5234375,2.34374976158142 13.330078125,2.87109351158142 10.166015625,4.62890672683716 9.287109375,2.63671875 12.97119140625,0.659182548522949 16.5234375,0z" />
    </g>
  </g>
</svg>