<?xml version="1.0" encoding="utf-8"?>
<!DOCTYPE svg PUBLIC "-//W3C//DTD SVG 1.1//EN" "http://www.w3.org/Graphics/SVG/1.1/DTD/svg11.dtd">
<svg width="28.271484375" height="51.2109375" xmlns="http://www.w3.org/2000/svg" xmlns:xlink="http://www.w3.org/1999/xlink" xmlns:xml="http://www.w3.org/XML/1998/namespace" version="1.1">
  <g>
    <g>
      <path style="fill:#FF0000;fill-opacity:1" d="M12.978515625,7.998046875L15.322265625,7.998046875 15.322265625,28.41796875 25.927734375,35.7421875 25.927734375,18.837890625 28.271484375,18.837890625 28.271484375,39.345703125 27.685546875,39.345703125 15.322265625,30.966796875 15.322265625,51.2109375 12.978515625,51.2109375 12.978515625,29.384765625 2.34375,22.177734375 2.34375,38.759765625 0,38.759765625 0,18.251953125 0.5859375,18.251953125 12.978515625,26.806640625 12.978515625,7.998046875z M14.00390625,0L17.8637676239014,0.659182548522949 21.708984375,2.63671875 20.830078125,4.62890625 17.4169921875,2.87109351158142 14.00390625,2.34375 10.810546875,2.87109351158142 7.646484375,4.62890625 6.767578125,2.63671875 10.45166015625,0.659182548522949 14.00390625,0z" />
    </g>
  </g>
</svg>