<?xml version="1.0" encoding="utf-8"?>
<!DOCTYPE svg PUBLIC "-//W3C//DTD SVG 1.1//EN" "http://www.w3.org/Graphics/SVG/1.1/DTD/svg11.dtd">
<svg width="31.142578125" height="52.822265625" xmlns="http://www.w3.org/2000/svg" xmlns:xlink="http://www.w3.org/1999/xlink" xmlns:xml="http://www.w3.org/XML/1998/namespace" version="1.1">
  <g>
    <g>
      <path style="fill:#FF0000;fill-opacity:1" d="M2.34374952316284,21.9140625L2.43164110183716,24.4482421875 2.841796875,26.8359375 3.837890625,28.623046875 5.654296875,29.326171875 7.4560546875,28.623046875 8.4521484375,26.8359375 8.876953125,24.4482421875 8.96484375,21.9140625 2.34374952316284,21.9140625z M5.654296875,12.158203125L3.837890625,12.861328125 2.841796875,14.6484375 2.43164110183716,17.0361328125 2.34374952316284,19.5703125 8.96484375,19.5703125 8.876953125,17.0361328125 8.4521484375,14.6484375 7.4560546875,12.861328125 5.654296875,12.158203125z M5.654296875,9.814453125L7.27294826507568,10.045166015625 8.5546875,10.7373046875 10.283203125,13.18359375 11.103515625,16.6845703125 11.30859375,20.771484375 11.103515625,24.84375 10.283203125,28.3154296875 8.5546875,30.7470703125 7.27294826507568,31.439208984375 5.654296875,31.669921875 4.03564453125,31.44287109375 2.75390625,30.76171875 1.02539014816284,28.330078125 0.205078125,24.8291015625 0,20.7421875 0.205078125,16.6552734375 1.02539014816284,13.154296875 2.75390625,10.72265625 4.03564453125,10.04150390625 5.654296875,9.814453125z M16.2890625,6.38671922683716L16.875,6.38671922683716 31.142578125,14.794921875 30,16.81640625 18.6328125,10.166015625 18.6328125,25.634765625 22.20703125,26.4990234375 23.9355449676514,27.3999042510986 25.48828125,28.7255859375 26.817626953125,30.509033203125 27.8759765625,32.783203125 28.568115234375,35.625 28.798828125,39.111328125 26.6015625,39.111328125 25.9423828125,34.9658203125 24.5068359375,31.640625 22.119140625,29.3115234375 18.6328125,28.18359375 18.6328125,52.822265625 18.046875,52.822265625 3.69140625,44.1796875 4.86328125,42.275390625 16.2890625,49.130859375 16.2890625,6.38671922683716z M15.380859375,0L19.2407207489014,0.659182548522949 23.0859375,2.63671875 22.20703125,4.62890672683716 18.7939453125,2.87109351158142 15.380859375,2.34374976158142 12.1875,2.87109351158142 9.0234375,4.62890672683716 8.14453125,2.63671875 11.82861328125,0.659182548522949 15.380859375,0z" />
    </g>
  </g>
</svg>