<?xml version="1.0" encoding="utf-8"?>
<!DOCTYPE svg PUBLIC "-//W3C//DTD SVG 1.1//EN" "http://www.w3.org/Graphics/SVG/1.1/DTD/svg11.dtd">
<svg width="30.322265625" height="52.822265625" xmlns="http://www.w3.org/2000/svg" xmlns:xlink="http://www.w3.org/1999/xlink" xmlns:xml="http://www.w3.org/XML/1998/namespace" version="1.1">
  <g>
    <g>
      <path style="fill:#FF0000;fill-opacity:1" d="M6.53320360183716,6.38671922683716L8.8916015625,6.87011766433716 10.60546875,8.2763671875 11.748046875,10.5615234375 12.421875,13.7109375 13.623046875,23.232421875 13.83544921875,24.5141620635986 14.12109375,25.37109375 15.17578125,26.015625 16.2158203125,25.37109375 16.475830078125,24.5141620635986 16.69921875,23.232421875 17.900390625,13.7109375 18.570556640625,10.579833984375 19.7021484375,8.2763671875 21.4050273895264,6.859130859375 23.7890625,6.38671922683716 25.83984375,6.87011766433716 27.626953125,8.203125 29.12109375,10.25390625 30.322265625,12.890625 27.978515625,12.890625 27.00439453125,10.997314453125 25.95703125,9.7119140625 24.8217754364014,8.975830078125 23.583984375,8.73046875 22.3022441864014,9.056396484375 21.26953125,10.0341796875 20.5004863739014,11.693115234375 20.009765625,14.0625 18.75,23.408203125 18.3544921875,25.48828125 17.841796875,26.89453125 17.16796875,27.7587890625 16.34765625,28.212890625 16.34765625,32.109375 27.333984375,32.109375 27.333984375,34.453125 16.34765625,34.453125 16.34765625,44.23828125 16.25244140625,46.4501953125 15.966796875,48.28125 14.8388671875,50.9326171875 12.978515625,52.3828125 10.400390625,52.822265625 8.9208984375,52.6171875 7.70507860183716,52.001953125 5.91796922683716,50.009765625 4.80468797683716,47.578125 4.13085985183716,45.46875 6.53320360183716,44.765625 7.37548780441284,47.274169921875 8.26171875,49.0576171875 9.25048828125,50.123291015625 10.400390625,50.478515625 11.7041015625,50.2587890625 12.861328125,49.365234375 13.681640625,47.4755859375 13.92333984375,46.058349609375 14.00390625,44.23828125 14.00390625,34.453125 3.01757860183716,34.453125 3.01757860183716,32.109375 14.00390625,32.109375 14.00390625,28.212890625 13.1689453125,27.7587890625 12.4951171875,26.8798828125 11.9677734375,25.458984375 11.572265625,23.408203125 10.3125,14.0625 9.814453125,11.729736328125 9.052734375,10.0634765625 8.02734375,9.063720703125 6.73828172683716,8.73046875 5.50048875808716,8.975830078125 4.36523485183716,9.7119140625 3.31787157058716,10.997314453125 2.34375047683716,12.890625 0,12.890625 1.20117235183716,10.25390625 2.69531297683716,8.203125 4.46777391433716,6.87011766433716 6.53320360183716,6.38671922683716z M14.94140625,0L18.8012676239014,0.659182548522949 22.646484375,2.63671875 21.767578125,4.62890672683716 18.3544921875,2.87109351158142 14.94140625,2.34374976158142 11.748046875,2.87109351158142 8.583984375,4.62890672683716 7.70507860183716,2.63671875 11.38916015625,0.659182548522949 14.94140625,0z" />
    </g>
  </g>
</svg>