<?xml version="1.0" encoding="utf-8"?>
<!DOCTYPE svg PUBLIC "-//W3C//DTD SVG 1.1//EN" "http://www.w3.org/Graphics/SVG/1.1/DTD/svg11.dtd">
<svg width="27.48046875" height="51.2109375" xmlns="http://www.w3.org/2000/svg" xmlns:xlink="http://www.w3.org/1999/xlink" xmlns:xml="http://www.w3.org/XML/1998/namespace" version="1.1">
  <g>
    <g>
      <path style="fill:#FF0000;fill-opacity:1" d="M24.345703125,7.998046875L26.689453125,7.998046875 26.689453125,22.6171875 26.279296875,22.6171875 15,16.025390625 15,27.978515625 27.48046875,27.978515625 27.48046875,30.322265625 15,30.322265625 15,38.7890625 27.48046875,38.7890625 27.48046875,41.1328125 15,41.1328125 15,51.2109375 12.65625,51.2109375 12.65625,41.1328125 0,41.1328125 0,38.7890625 12.65625,38.7890625 12.65625,30.322265625 0,30.322265625 0,27.978515625 12.65625,27.978515625 12.65625,11.806640625 24.345703125,18.837890625 24.345703125,7.998046875z M13.564453125,0L17.4243144989014,0.659182548522949 21.26953125,2.63671875 20.390625,4.62890625 16.9775390625,2.87109351158142 13.564453125,2.34375 10.37109375,2.87109351158142 7.20703172683716,4.62890625 6.32812547683716,2.63671875 10.01220703125,0.659182548522949 13.564453125,0z" />
    </g>
  </g>
</svg>