<?xml version="1.0" encoding="utf-8"?>
<!DOCTYPE svg PUBLIC "-//W3C//DTD SVG 1.1//EN" "http://www.w3.org/Graphics/SVG/1.1/DTD/svg11.dtd">
<svg width="28.59375" height="46.435546875" xmlns="http://www.w3.org/2000/svg" xmlns:xlink="http://www.w3.org/1999/xlink" xmlns:xml="http://www.w3.org/XML/1998/namespace" version="1.1">
  <g>
    <g>
      <path style="fill:#FF0000;fill-opacity:1" d="M22.646484375,2.34375L20.8740234375,2.98828125 19.775390625,4.599609375 19.2041015625,6.708984375 19.04296875,8.876953125 19.2041015625,11.044921875 19.775390625,13.154296875 20.8740234375,14.765625 22.646484375,15.41015625 24.4189453125,14.7802734375 25.517578125,13.18359375 26.0888671875,11.07421875 26.25,8.90625 26.0888671875,6.7236328125 25.517578125,4.599609375 24.4189453125,2.98828125 22.646484375,2.34375z M22.646484375,0L25.224609375,0.673827648162842 27.0849609375,2.548828125 28.212890625,5.3759765625 28.59375,8.90625 28.212890625,12.4072265625 27.0849609375,15.2197265625 25.224609375,17.080078125 22.646484375,17.75390625 20.068359375,17.080078125 18.2080078125,15.2197265625 17.080078125,12.4072265625 16.69921875,8.876953125 16.787109375,6.97265625 14.208984375,5.7861328125 11.3671875,5.361328125 7.998046875,5.7568359375 5.302734375,7.03125 3.515625,9.287109375 2.87109375,12.59765625 3.5888671875,15.556640625 5.6103515625,18.2373046875 8.7451171875,20.6396484375 12.7734375,22.763671875 16.93359375,24.9462890625 20.2880859375,27.421875 22.5146484375,30.3955078125 23.1188945770264,32.120361328125 23.3203125,34.04296875 23.0566387176514,36.492919921875 22.265625,38.6865234375 19.5263671875,42.1875 15.76171875,44.3994140625 13.6962890625,44.981689453125 11.66015625,45.17578125 8.97582912445068,44.930419921875 6.5478515625,44.1943359375 4.346923828125,43.011474609375 2.34375,41.42578125 2.34375,46.435546875 0,46.435546875 0,31.640625 2.34375,31.640625 2.34375,38.02734375 4.6142578125,40.0927734375 6.97265625,41.6015625 9.345703125,42.5244140625 11.66015625,42.83203125 15.234375,42.2021484375 18.2080078125,40.4150390625 20.244140625,37.646484375 20.8154277801514,35.93994140625 21.005859375,34.04296875 20.2587890625,31.4501953125 18.2373046875,29.00390625 15.29296875,26.8212890625 11.748046875,25.01953125 7.5,22.9248046875 3.92578125,20.3759765625 1.4501953125,17.0361328125 0.758056282997131,14.9816913604736 0.52734375,12.59765625 0.725097298622131,10.576171875 1.318359375,8.73046875 3.544921875,5.6982421875 7.001953125,3.720703125 11.513671875,3.017578125 14.52392578125,3.4130859375 17.28515625,4.599609375 18.1054668426514,2.706298828125 19.27734375,1.2451171875 20.7934551239014,0.311279296875 22.646484375,0z" />
    </g>
  </g>
</svg>