<?xml version="1.0" encoding="utf-8"?>
<!DOCTYPE svg PUBLIC "-//W3C//DTD SVG 1.1//EN" "http://www.w3.org/Graphics/SVG/1.1/DTD/svg11.dtd">
<svg width="28.3593750000009" height="44.82421875" xmlns="http://www.w3.org/2000/svg" xmlns:xlink="http://www.w3.org/1999/xlink" xmlns:xml="http://www.w3.org/XML/1998/namespace" version="1.1">
  <g>
    <g>
      <path style="fill:#FF0000;fill-opacity:1" d="M2.373046875,29.560546875L3.33984375,34.0869140625 5.595703125,38.2470703125 9.19921875,41.2939453125 11.513671875,42.183837890625 14.1796875,42.48046875 16.842041015625,42.183837890625 19.1455078125,41.2939453125 22.734375,38.2470703125 24.990234375,34.0869140625 25.95703125,29.560546875 2.373046875,29.560546875z M14.1796875,14.208984375L11.513671875,14.5092792510986 9.19921875,15.41015625 5.595703125,18.486328125 3.33984375,22.67578125 2.373046875,27.216796875 25.95703125,27.216796875 24.990234375,22.67578125 22.734375,18.486328125 19.1455078125,15.41015625 16.842041015625,14.5092792510986 14.1796875,14.208984375z M13.0078125,0L15.3515625,0 15.3515625,8.7890625 13.0078125,8.7890625 13.0078125,0z M0.64453125,0L3.046875,0 4.74609375,5.009765625 7.3974609375,8.73046875 10.6494140625,11.044921875 12.403564453125,11.6381855010986 14.1796875,11.8359375 15.904541015625,11.6381855010986 17.6806640625,11.044921875 21.09375,8.73046875 23.9794921875,5.009765625 25.869140625,0 28.212890625,0 26.7919921875,4.3798828125 24.755859375,7.998046875 22.2509765625,10.8251953125 19.39453125,12.83203125 23.203125,15.2490234375 26.015625,18.837890625 27.7587890625,23.349609375 28.359375,28.4765625 28.121337890625,31.768798828125 27.4072265625,34.8486328125 26.2353515625,37.6318359375 24.6240234375,40.0341796875 22.5915508270264,42.015380859375 20.15625,43.53515625 17.34375,44.501953125 14.1796875,44.82421875 10.99365234375,44.501953125 8.173828125,43.53515625 5.7421875,42.01171875 3.720703125,40.01953125 2.12036108970642,37.598876953125 0.9521484375,34.7900390625 0.238036751747131,31.688232421875 0,28.388671875 0.6005859375,23.26171875 2.34375,18.7646484375 5.1708984375,15.205078125 9.0234375,12.83203125 6.2548828125,10.8251953125 3.8525390625,7.9833984375 1.93359375,4.3505859375 0.64453125,0z" />
    </g>
  </g>
</svg>