<?xml version="1.0" encoding="utf-8"?>
<!DOCTYPE svg PUBLIC "-//W3C//DTD SVG 1.1//EN" "http://www.w3.org/Graphics/SVG/1.1/DTD/svg11.dtd">
<svg width="24.638671875" height="43.212890625" xmlns="http://www.w3.org/2000/svg" xmlns:xlink="http://www.w3.org/1999/xlink" xmlns:xml="http://www.w3.org/XML/1998/namespace" version="1.1">
  <g>
    <g>
      <path style="fill:#FF0000;fill-opacity:1" d="M22.294921875,33.544921875L24.638671875,33.544921875 24.638671875,42.333984375 22.294921875,42.333984375 22.294921875,33.544921875z M22.294921875,17.2265625L24.638671875,17.2265625 24.638671875,26.015625 22.294921875,26.015625 22.294921875,17.2265625z M15.5859375,8.935546875L10.25390625,21.62109375 15.5859375,34.306640625 15.5859375,8.935546875z M2.34375,8.935546875L2.34375,34.306640625 7.67578125,21.62109375 2.34375,8.935546875z M22.294921875,0.87890625L24.638671875,0.87890625 24.638671875,9.66796875 22.294921875,9.66796875 22.294921875,0.87890625z M0,0L1.171875,0 8.96484375,18.544921875 16.7578125,0 17.9296875,0 17.9296875,43.212890625 16.7578125,43.212890625 8.96484375,24.66796875 1.171875,43.212890625 0,43.212890625 0,0z" />
    </g>
  </g>
</svg>