<?xml version="1.0" encoding="utf-8"?>
<!DOCTYPE svg PUBLIC "-//W3C//DTD SVG 1.1//EN" "http://www.w3.org/Graphics/SVG/1.1/DTD/svg11.dtd">
<svg width="28.3593750000008" height="52.822265625" xmlns="http://www.w3.org/2000/svg" xmlns:xlink="http://www.w3.org/1999/xlink" xmlns:xml="http://www.w3.org/XML/1998/namespace" version="1.1">
  <g>
    <g>
      <path style="fill:#FF0000;fill-opacity:1" d="M14.1796875,8.73046875L11.337890625,9.136962890625 8.90625,10.3564453125 6.87377834320068,12.279052734375 5.2294921875,14.794921875 3.96240234375,17.860107421875 3.0615234375,21.4306640625 2.34375,29.6484375 2.7978515625,36.298828125 4.1748046875,42.01171875 6.4892578125,46.494140625 8.00903224945068,48.1787109375 9.78515625,49.423828125 9.78515625,35.68359375 12.12890625,35.68359375 12.12890625,50.2734375 14.1796875,50.478515625 15.2197265625,50.4345703125 16.23046875,50.2734375 16.23046875,35.68359375 18.57421875,35.68359375 18.57421875,49.423828125 20.3320293426514,48.1787109375 21.85546875,46.494140625 24.1845703125,42.01171875 25.5615234375,36.298828125 26.015625,29.6484375 25.2978515625,21.4306640625 24.3969707489014,17.860107421875 23.1298828125,14.794921875 21.4819316864014,12.279052734375 19.4384765625,10.3564453125 17.003173828125,9.136962890625 14.1796875,8.73046875z M14.1796875,6.38671922683716L17.362060546875,6.7822265625 20.1708984375,7.96875 22.5915508270264,9.90234375 24.609375,12.5390625 26.21337890625,15.860595703125 27.392578125,19.8486328125 28.11767578125,24.4592304229736 28.359375,29.6484375 28.1982421875,33.984375 27.71484375,37.91015625 26.920166015625,41.4111328125 25.8251953125,44.47265625 24.4335918426514,47.080078125 22.7490234375,49.21875 20.9399394989014,50.811767578125 19.1748046875,51.7822265625 16.376953125,52.6318359375 14.1796875,52.822265625 11.982421875,52.6318359375 9.1845703125,51.7822265625 7.41943264007568,50.811767578125 5.6103515625,49.21875 3.92578125,47.080078125 2.5341796875,44.47265625 1.43920874595642,41.4111328125 0.644530773162842,37.91015625 0.161132395267487,33.984375 0,29.6484375 0.238036692142487,24.4592304229736 0.952147960662842,19.8486328125 2.12402319908142,15.860595703125 3.7353515625,12.5390625 5.767822265625,9.90234375 8.203125,7.96875 11.015625,6.7822265625 14.1796875,6.38671922683716z M13.857421875,0L17.7172832489014,0.659182548522949 21.5625,2.63671875 20.68359375,4.62890672683716 17.2705078125,2.87109351158142 13.857421875,2.34374976158142 10.6640625,2.87109351158142 7.5,4.62890672683716 6.62109375,2.63671875 10.30517578125,0.659182548522949 13.857421875,0z" />
    </g>
  </g>
</svg>