<?xml version="1.0" encoding="utf-8"?>
<!DOCTYPE svg PUBLIC "-//W3C//DTD SVG 1.1//EN" "http://www.w3.org/Graphics/SVG/1.1/DTD/svg11.dtd">
<svg width="29.4140625" height="43.212890625" xmlns="http://www.w3.org/2000/svg" xmlns:xlink="http://www.w3.org/1999/xlink" xmlns:xml="http://www.w3.org/XML/1998/namespace" version="1.1">
  <g>
    <g>
      <path style="fill:#FF0000;fill-opacity:1" d="M27.0703125,0L29.4140625,0 29.4140625,14.58984375 28.828125,14.58984375 22.353515625,8.466796875 22.353515625,43.212890625 20.009765625,43.212890625 20.009765625,10.546875 9.7265625,4.072265625 9.7265625,12.83203125 12.3046875,13.7255859375 14.2529296875,15.4248046875 15.64453125,17.6806640625 16.5380859375,20.244140625 17.021484375,22.880859375 17.16796875,25.341796875 14.853515625,25.341796875 14.6044921875,22.236328125 13.7548828125,19.1455078125 12.1728515625,16.6259765625 9.7265625,15.234375 9.7265625,29.82421875 12.3046875,30.7177734375 14.2529296875,32.4169921875 15.64453125,34.6728515625 16.5380859375,37.236328125 17.021484375,39.873046875 17.16796875,42.333984375 14.853515625,42.333984375 14.6044921875,39.228515625 13.7548828125,36.1376953125 12.1728515625,33.6181640625 9.7265625,32.2265625 9.7265625,43.212890625 7.38281297683716,43.212890625 7.38281297683716,32.2265625 4.95117235183716,33.6181640625 3.39843797683716,36.1376953125 2.56347703933716,39.228515625 2.31445360183716,42.333984375 0,42.333984375 0.336914539337158,38.5546875 1.50879001617432,34.6728515625 3.77929735183716,31.494140625 5.39794969558716,30.40283203125 7.38281297683716,29.82421875 7.38281297683716,15.234375 4.95117235183716,16.6259765625 3.39843797683716,19.1455078125 2.56347703933716,22.236328125 2.31445360183716,25.341796875 0,25.341796875 0.336914539337158,21.5625 1.50879001617432,17.6806640625 3.77929735183716,14.501953125 5.39794969558716,13.4106464385986 7.38281297683716,12.83203125 7.38281297683716,0.46875 7.96875047683716,0.46875 20.009765625,7.8515625 20.009765625,3.69140625 20.595703125,3.69140625 27.0703125,9.931640625 27.0703125,0z" />
    </g>
  </g>
</svg>