<?xml version="1.0" encoding="utf-8"?>
<!DOCTYPE svg PUBLIC "-//W3C//DTD SVG 1.1//EN" "http://www.w3.org/Graphics/SVG/1.1/DTD/svg11.dtd">
<svg width="32.958984375" height="52.822265625" xmlns="http://www.w3.org/2000/svg" xmlns:xlink="http://www.w3.org/1999/xlink" xmlns:xml="http://www.w3.org/XML/1998/namespace" version="1.1">
  <g>
    <g>
      <path style="fill:#FF0000;fill-opacity:1" d="M18.3984375,37.353515625L19.742431640625,37.56591796875 20.9033203125,38.203125 22.67578125,40.546875 23.73046875,44.0771484375 24.08203125,48.486328125 24.08203125,51.2109375 21.767578125,51.2109375 21.767578125,48.486328125 21.5551738739014,44.659423828125 20.91796875,41.9091796875 19.8632793426514,40.250244140625 18.3984375,39.697265625 16.94091796875,40.250244140625 15.908203125,41.9091796875 15.29296875,44.659423828125 15.087890625,48.486328125 15.087890625,51.2109375 12.7734375,51.2109375 12.7734375,48.486328125 13.1103515625,44.0771484375 14.150390625,40.546875 15.908203125,38.203125 17.05810546875,37.56591796875 18.3984375,37.353515625z M16.728515625,8.876953125L19.072265625,8.876953125 19.072265625,20.595703125 16.728515625,20.595703125 16.728515625,8.876953125z M31.5234375,7.119140625L32.958984375,9.052734375 31.519775390625,10.67138671875 30.1318359375,12.71484375 27.744140625,17.6806640625 26.103515625,23.408203125 25.48828125,29.384765625 26.103515625,35.361328125 27.744140625,41.0888671875 30.1318359375,46.0546875 31.519775390625,48.09814453125 32.958984375,49.716796875 31.5234375,51.650390625 28.2275390625,47.490234375 25.6201171875,42.3046875 23.876953125,36.4599609375 23.14453125,30.263671875 10.810546875,30.263671875 10.810546875,52.822265625 10.3125,52.822265625 0,44.0625 1.37695360183716,42.158203125 8.466796875,48.28125 8.466796875,7.998046875 10.810546875,7.998046875 10.810546875,27.919921875 23.173828125,27.919921875 23.9794921875,21.9140625 25.7373046875,16.2158203125 28.30078125,11.1767578125 31.5234375,7.119140625z M16.259765625,0L20.1196269989014,0.659182548522949 23.96484375,2.63671875 23.0859375,4.62890672683716 19.6728515625,2.87109351158142 16.259765625,2.34374976158142 13.06640625,2.87109351158142 9.90234375,4.62890672683716 9.0234375,2.63671875 12.70751953125,0.659182548522949 16.259765625,0z" />
    </g>
  </g>
</svg>