<?xml version="1.0" encoding="utf-8"?>
<!DOCTYPE svg PUBLIC "-//W3C//DTD SVG 1.1//EN" "http://www.w3.org/Graphics/SVG/1.1/DTD/svg11.dtd">
<svg width="20.68359375" height="42.01171875" xmlns="http://www.w3.org/2000/svg" xmlns:xlink="http://www.w3.org/1999/xlink" xmlns:xml="http://www.w3.org/XML/1998/namespace" version="1.1">
  <g>
    <g>
      <path style="fill:#FF0000;fill-opacity:1" d="M10.048828125,17.138671875L11.2060546875,17.3876953125 12.1435546875,18.046875 12.7734375,18.9990234375 13.0078125,20.126953125 12.79541015625,21.287841796875 12.158203125,22.2509765625 11.2060546875,22.899169921875 10.048828125,23.115234375 8.89892482757568,22.899169921875 7.96875,22.2509765625 7.35351467132568,21.287841796875 7.1484375,20.126953125 7.3681640625,18.9990234375 7.96875,18.046875 8.8916015625,17.3876953125 10.048828125,17.138671875z M4.921875,9.580078125L4.921875,30.673828125 9.525146484375,29.249267578125 12.8466796875,26.9677734375 14.857177734375,23.902587890625 15.52734375,20.126953125 14.857177734375,16.3769550323486 12.8466796875,13.330078125 9.525146484375,11.0449237823486 4.921875,9.580078125z M0,0L4.921875,0 4.921875,5.15625 8.58032131195068,5.892333984375 11.7626953125,6.9873046875 14.46533203125,8.419189453125 16.6845703125,10.166015625 18.4204082489014,12.2241230010986 19.6728515625,14.58984375 20.4309062957764,17.2338886260986 20.68359375,20.126953125 20.4309062957764,23.038330078125 19.6728515625,25.6787109375 18.4204082489014,28.037109375 16.6845703125,30.1025390625 14.46533203125,31.856689453125 11.7626953125,33.28125 8.58032131195068,34.365234375 4.921875,35.09765625 4.921875,42.01171875 0,42.01171875 0,0z" />
    </g>
  </g>
</svg>