<?xml version="1.0" encoding="utf-8"?>
<!DOCTYPE svg PUBLIC "-//W3C//DTD SVG 1.1//EN" "http://www.w3.org/Graphics/SVG/1.1/DTD/svg11.dtd">
<svg width="26.89453125" height="42.01171875" xmlns="http://www.w3.org/2000/svg" xmlns:xlink="http://www.w3.org/1999/xlink" xmlns:xml="http://www.w3.org/XML/1998/namespace" version="1.1">
  <g>
    <g>
      <path style="fill:#FF0000;fill-opacity:1" d="M21.97265625,6.26953125L20.5078125,8.3642578125 18.8671875,10.48828125 16.171875,13.7109375 18.837890625,16.904296875 20.5078125,19.0576171875 21.97265625,21.15234375 22.265625,21.15234375 22.0458984375,19.072265625 21.97265625,16.904296875 21.97265625,10.48828125 22.0458984375,8.3642578125 22.265625,6.26953125 21.97265625,6.26953125z M4.62890625,6.09375L4.8486328125,8.2763671875 4.921875,10.48828125 4.921875,16.904296875 4.8486328125,19.1015625 4.62890625,21.240234375 4.921875,21.240234375 6.4453125,19.0869140625 8.14453125,16.904296875 10.810546875,13.7109375 8.14453125,10.48828125 6.4453125,8.2763671875 4.892578125,6.09375 4.62890625,6.09375z M0,0L4.775390625,0 13.505859375,10.48828125 22.236328125,0 26.89453125,0 26.89453125,42.01171875 21.97265625,42.01171875 21.97265625,27.099609375 13.505859375,16.904296875 4.921875,27.099609375 4.921875,42.01171875 0,42.01171875 0,0z" />
    </g>
  </g>
</svg>