<?xml version="1.0" encoding="utf-8"?>
<!DOCTYPE svg PUBLIC "-//W3C//DTD SVG 1.1//EN" "http://www.w3.org/Graphics/SVG/1.1/DTD/svg11.dtd">
<svg width="22.587890625" height="44.736328125" xmlns="http://www.w3.org/2000/svg" xmlns:xlink="http://www.w3.org/1999/xlink" xmlns:xml="http://www.w3.org/XML/1998/namespace" version="1.1">
  <g>
    <g>
      <path style="fill:#FF0000;fill-opacity:1" d="M11.279296875,4.013671875L9.85473537445068,4.27001953125 8.5107421875,5.0390625 7.291259765625,6.357421875 6.240234375,8.26171875 5.3759765625,10.77392578125 4.716796875,13.916015625 4.29931640625,17.7319355010986 4.16015625,22.265625 4.29931640625,26.806640625 4.716796875,30.64453125 5.3759765625,33.819580078125 6.240234375,36.3720703125 7.291259765625,38.31298828125 8.5107421875,39.6533203125 9.85473537445068,40.433349609375 11.279296875,40.693359375 12.703857421875,40.433349609375 14.0478515625,39.6533203125 15.267333984375,38.31298828125 16.318359375,36.3720703125 17.186279296875,33.819580078125 17.8564453125,30.64453125 18.284912109375,26.806640625 18.427734375,22.265625 18.284912109375,17.7319355010986 17.8564453125,13.916015625 17.186279296875,10.77392578125 16.318359375,8.26171875 15.267333984375,6.357421875 14.0478515625,5.0390625 12.703857421875,4.27001953125 11.279296875,4.013671875z M11.279296875,0L13.780517578125,0.3369140625 16.0107421875,1.34765625 17.947998046875,3.046875 19.5703125,5.44921875 20.8630352020264,8.56201171875 21.8115234375,12.392578125 22.3937969207764,16.9555683135986 22.587890625,22.265625 22.3937969207764,27.586669921875 21.8115234375,32.1826171875 20.8630352020264,36.053466796875 19.5703125,39.19921875 17.947998046875,41.630859375 16.0107421875,43.359375 13.780517578125,44.39208984375 11.279296875,44.736328125 8.78173732757568,44.39208984375 6.5625,43.359375 4.63623046875,41.630859375 3.01757788658142,39.19921875 1.72485375404358,36.053466796875 0.776367425918579,32.1826171875 0.194091826677322,27.586669921875 0,22.265625 0.194091826677322,16.9555683135986 0.776367425918579,12.392578125 1.72485375404358,8.56201171875 3.01757788658142,5.44921875 4.63623046875,3.046875 6.5625,1.34765625 8.78173732757568,0.3369140625 11.279296875,0z" />
    </g>
  </g>
</svg>