<?xml version="1.0" encoding="utf-8"?>
<!DOCTYPE svg PUBLIC "-//W3C//DTD SVG 1.1//EN" "http://www.w3.org/Graphics/SVG/1.1/DTD/svg11.dtd">
<svg width="26.7773437500001" height="44.47265625" xmlns="http://www.w3.org/2000/svg" xmlns:xlink="http://www.w3.org/1999/xlink" xmlns:xml="http://www.w3.org/XML/1998/namespace" version="1.1">
  <g>
    <g>
      <path style="fill:#FF0000;fill-opacity:1" d="M20.91796875,3.28125L19.072265625,4.013671875 18.5009765625,4.84130859375 18.310546875,5.859375 18.504638671875,6.884765625 19.0869140625,7.734375 19.947509765625,8.3056640625 20.9765625,8.49609375 22.822265625,7.7490234375 23.5546875,5.888671875 23.3349609375,4.7900390625 22.7490234375,3.9697265625 21.8994140625,3.45703125 20.91796875,3.28125z M20.68359375,0L23.14453125,0.46875 25.0634765625,1.7578125 26.3232421875,3.69140625 26.77734375,6.09375 26.337890625,8.4375 25.13671875,10.2392578125 23.37890625,11.396484375 21.298828125,11.806640625 18.75,11.1474609375 16.875,9.169921875 16.728515625,9.228515625 16.2890625,11.8359375 16.171875,14.853515625 16.4501953125,20.361328125 17.2265625,26.1328125 18.3984375,31.8896484375 19.892578125,37.3828125 19.833984375,37.529296875 16.259765625,38.3203125 15.35888671875,36.529541015625 14.0625,35.2001953125 12.4658193588257,34.376220703125 10.6640625,34.1015625 9.4189453125,34.248046875 8.349609375,34.62890625 8.199462890625,37.188720703125 7.9248046875,39.3017578125 7.0166015625,42.333984375 5.6396484375,43.974609375 3.77929663658142,44.47265625 2.20825171470642,44.176025390625 1.01074171066284,43.2861328125 0.252685308456421,41.846923828125 0,39.90234375 0.300292760133743,37.576904296875 1.20117163658142,35.4052734375 2.60742163658142,33.497314453125 4.423828125,31.962890625 4.248046875,24.7705078125 3.69140601158142,16.81640625 2.73925757408142,8.671875 1.37695240974426,0.849609375 5.390625,0.1171875 6.2548828125,4.7314453125 6.97265625,9.931640625 7.5439453125,15.41015625 7.96875,20.8740234375 8.2470703125,26.015625 8.37890625,30.498046875 9.0966796875,30.41015625 9.78515625,30.380859375 12.3046875,30.732421875 14.296875,31.640625 14.47265625,31.58203125 13.623046875,26.89453125 12.9638671875,22.1923828125 12.5390625,17.7978515625 12.392578125,14.033203125 12.978515625,8.14453125 13.68896484375,5.738525390625 14.6484375,3.7353515625 15.84228515625,2.142333984375 17.255859375,0.966796875 18.87451171875,0.24169921875 20.68359375,0z" />
    </g>
  </g>
</svg>