<?xml version="1.0" encoding="utf-8"?>
<!DOCTYPE svg PUBLIC "-//W3C//DTD SVG 1.1//EN" "http://www.w3.org/Graphics/SVG/1.1/DTD/svg11.dtd">
<svg width="27.36328125" height="44.501953125" xmlns="http://www.w3.org/2000/svg" xmlns:xlink="http://www.w3.org/1999/xlink" xmlns:xml="http://www.w3.org/XML/1998/namespace" version="1.1">
  <g>
    <g>
      <path style="fill:#FF0000;fill-opacity:1" d="M19.951171875,33.046875L18.77197265625,33.30322265625 17.8125,34.072265625 17.17529296875,35.28076171875 16.962890625,36.85546875 17.197265625,38.4521484375 17.8271484375,39.66796875 18.75,40.4443359375 19.86328125,40.72265625 21.123046875,40.3564453125 22.060546875,39.3896484375 22.6318359375,38.056640625 22.822265625,36.591796875 22.6171855926514,35.1416015625 22.001953125,34.013671875 21.0791015625,33.28857421875 19.951171875,33.046875z M15.87890625,3.837890625L14.05517578125,4.141845703125 12.451171875,5.0537109375 11.1328115463257,6.632080078125 10.166015625,8.935546875 13.857421875,8.935546875 16.142578125,8.6865234375 17.6806640625,8.0419921875 18.5595703125,7.119140625 18.837890625,6.03515625 18.1201171875,4.4677734375 17.200927734375,3.995361328125 15.87890625,3.837890625z M15.5859375,0L18.5888671875,0.4541015625 20.80078125,1.728515625 22.177734375,3.6474609375 22.646484375,6.064453125 22.08984375,8.6865234375 20.4345703125,10.7373046875 17.7099609375,12.0849609375 13.9453125,12.568359375 9.521484375,12.568359375 9.4775390625,13.212890625 9.462890625,14.47265625 9.462890625,16.962890625 9.462890625,18.8525409698486 9.462890625,21.298828125 9.609375,21.357421875 11.0815420150757,19.7039813995361 12.7441396713257,18.5229511260986 14.5971670150757,17.8143329620361 16.640625,17.578125 18.56689453125,17.7832050323486 20.478515625,18.3984375 22.2912578582764,19.4531269073486 23.9208984375,20.9765625 25.3124980926514,22.987060546875 26.4111328125,25.5029296875 27.1252422332764,28.553466796875 27.36328125,32.16796875 26.8359375,37.265625 25.341796875,41.162109375 22.9833984375,43.6376953125 21.514892578125,44.285888671875 19.892578125,44.501953125 17.2412109375,43.9013671875 15.146484375,42.275390625 13.7841796875,39.84375 13.30078125,36.826171875 13.798828125,33.80859375 15.1318359375,31.5087890625 17.05078125,30.0439453125 19.3359375,29.53125 21.708984375,30.087890625 23.408203125,31.611328125 23.5546875,31.552734375 22.8955078125,27.0263671875 21.416015625,23.9208984375 19.3212890625,22.119140625 16.81640625,21.533203125 14.0478515625,22.2216796875 11.7626953125,24.2724609375 10.2099609375,27.685546875 9.638671875,32.4609375 9.638671875,43.798828125 5.537109375,43.798828125 5.53710889816284,38.529052734375 5.537109375,33.9111328125 5.53710889816284,29.89013671875 5.537109375,26.4111328125 5.53710889816284,23.448486328125 5.537109375,20.9765625 5.55175828933716,17.2412109375 5.56640577316284,14.8681640625 5.56640577316284,13.53515625 5.5810546875,12.8759765625 5.595703125,12.568359375 0,12.568359375 0,8.935546875 6.064453125,8.935546875 7.412109375,4.98046875 9.521484375,2.197265625 12.2827138900757,0.54931640625 15.5859375,0z" />
    </g>
  </g>
</svg>