<?xml version="1.0" encoding="utf-8"?>
<!DOCTYPE svg PUBLIC "-//W3C//DTD SVG 1.1//EN" "http://www.w3.org/Graphics/SVG/1.1/DTD/svg11.dtd">
<svg width="19.27734375" height="43.681640625" xmlns="http://www.w3.org/2000/svg" xmlns:xlink="http://www.w3.org/1999/xlink" xmlns:xml="http://www.w3.org/XML/1998/namespace" version="1.1">
  <g>
    <g>
      <path style="fill:#FF0000;fill-opacity:1" d="M13.037109375,3.720703125L11.6455078125,4.0283203125 10.48828125,4.9951171875 9.697265625,6.6650390625 9.404296875,9.052734375 9.404296875,10.8984375 9.521484375,11.015625 12.286376953125,9.840087890625 14.1357421875,8.6572265625 15.179443359375,7.423095703125 15.52734375,6.09375 14.853515625,4.39453125 13.037109375,3.720703125z M12.71484375,0L15.4541015625,0.4833984375 17.51953125,1.8017578125 18.8232421875,3.779296875 19.27734375,6.240234375 18.8671875,8.525390625 17.63671875,10.517578125 15.47607421875,12.2827167510986 12.275390625,13.88671875 11.015625,14.384765625 9.404296875,14.970703125 9.404296875,43.681640625 5.302734375,43.681640625 5.302734375,16.435546875 1.34765648841858,17.841796875 0,14.384765625 0.0292966365814209,14.208984375 2.62207007408142,13.388671875 5.302734375,12.509765625 5.302734375,9.052734375 5.830078125,5.2001953125 7.32421875,2.3583984375 9.66796875,0.6005859375 12.71484375,0z" />
    </g>
  </g>
</svg>