<?xml version="1.0" encoding="utf-8"?>
<!DOCTYPE svg PUBLIC "-//W3C//DTD SVG 1.1//EN" "http://www.w3.org/Graphics/SVG/1.1/DTD/svg11.dtd">
<svg width="24.345703125" height="43.76953125" xmlns="http://www.w3.org/2000/svg" xmlns:xlink="http://www.w3.org/1999/xlink" xmlns:xml="http://www.w3.org/XML/1998/namespace" version="1.1">
  <g>
    <g>
      <path style="fill:#FF0000;fill-opacity:1" d="M6.9140625,29.6484375L5.5810546875,29.970703125 4.6142578125,30.791015625 4.0283203125,31.904296875 3.83789086341858,33.134765625 3.99902367591858,34.2626953125 4.5263671875,35.361328125 5.44921875,36.181640625 6.796875,36.50390625 8.023681640625,36.26220703125 8.9501953125,35.537109375 9.53246974945068,34.4384765625 9.7265625,33.076171875 9.55078125,31.8017578125 9.0234375,30.703125 8.14453125,29.94140625 6.9140625,29.6484375z M0.146484613418579,0L20.478515625,0 20.859375,0.556640625 19.119873046875,4.031982421875 17.7099609375,6.8994140625 16.5966796875,9.246826171875 15.7470703125,11.162109375 14.736328125,13.8427734375 14.443359375,15.439453125 14.8681640625,16.6918964385986 16.142578125,17.109375 17.16796875,16.962890625 18.5009765625,16.4208984375 20.126953125,15.3515625 22.03125,13.59375 24.345703125,14.53125 23.8916015625,17.7099609375 23.37890625,21.4892578125 22.8515625,25.458984375 22.3388671875,29.2236328125 21.8701171875,32.3876953125 21.50390625,34.51171875 20.0830078125,38.525390625 17.75390625,41.42578125 14.736328125,43.18359375 11.220703125,43.76953125 9.0234375,43.560791015625 6.943359375,42.9345703125 3.36914086341858,40.6494140625 0.908203363418579,37.2509765625 0.227050989866257,35.225830078125 0,33.046875 0.512695789337158,30.0146484375 1.91894602775574,27.7001953125 4.0283203125,26.2353515625 6.62109375,25.72265625 9.2578125,26.2353515625 11.42578125,27.6708984375 12.9052734375,29.8974609375 13.447265625,32.75390625 13.095703125,35.068359375 12.099609375,37.03125 10.5322265625,38.525390625 8.466796875,39.43359375 8.4375,39.609375 10.634765625,39.990234375 12.9638671875,39.6240234375 14.9560546875,38.4521484375 16.5087890625,36.4013671875 17.548828125,33.3984375 17.9736328125,31.0107421875 18.515625,27.5390625 19.1015625,23.5693359375 19.62890625,19.6875 19.482421875,19.62890625 17.7099609375,20.5224609375 15.791015625,20.830078125 13.798828125,20.5078125 12.1435546875,19.51171875 11.015625,17.8271484375 10.60546875,15.439453125 10.7373046875,14.091796875 11.30859375,12.1142578125 12.5830078125,8.9208984375 13.560791015625,6.697998046875 14.82421875,3.92578125 4.04296875,3.92578125 4.04296875,9.287109375 3.92578101158142,9.404296875 0.146484613418579,9.404296875 0.146484613418579,0z" />
    </g>
  </g>
</svg>