<?xml version="1.0" encoding="utf-8"?>
<!DOCTYPE svg PUBLIC "-//W3C//DTD SVG 1.1//EN" "http://www.w3.org/Graphics/SVG/1.1/DTD/svg11.dtd">
<svg width="25.634765625" height="44.794921875" xmlns="http://www.w3.org/2000/svg" xmlns:xlink="http://www.w3.org/1999/xlink" xmlns:xml="http://www.w3.org/XML/1998/namespace" version="1.1">
  <g>
    <g>
      <path style="fill:#FF0000;fill-opacity:1" d="M8.02734375,30.703125L6.5478515625,31.0400390625 5.478515625,31.904296875 4.8193359375,33.10546875 4.59961032867432,34.453125 4.86328125,35.830078125 5.56640625,36.8994140625 6.6064453125,37.6025390625 7.880859375,37.8515625 9.21386623382568,37.584228515625 10.224609375,36.7822265625 10.8618154525757,35.599365234375 11.07421875,34.189453125 10.8837890625,32.8564453125 10.3125,31.7431640625 9.3603515625,30.9814453125 8.02734375,30.703125z M6.416015625,3.6328125L5.386962890625,3.8232421875 4.5263671875,4.39453125 3.944091796875,5.25146484375 3.75000023841858,6.298828125 4.4970703125,8.115234375 6.357421875,8.7890625 7.470703125,8.5986328125 8.349609375,8.02734375 8.92089748382568,7.1923828125 9.111328125,6.2109375 8.8916015625,5.185546875 8.3056640625,4.365234375 7.4560546875,3.8232421875 6.416015625,3.6328125z M6.26953125,0L9.0234375,0.556640625 11.4111328125,2.1240234375 13.095703125,4.5556640625 13.740234375,7.734375 13.6376953125,9.052734375 13.2861328125,10.8251953125 12.6123046875,13.447265625 12.1325674057007,15.1977558135986 11.54296875,17.34375 11.689453125,17.40234375 14.208984375,15.146484375 16.552734375,13.095703125 18.955078125,11.044921875 21.416015625,12.802734375 20.56640625,15.615234375 19.7607421875,18.2373046875 18.92578125,20.80078125 21.591796875,21.6064453125 23.73046875,23.5546875 25.13671875,26.4990234375 25.634765625,30.29296875 25.4040508270264,33.035888671875 24.7119140625,35.6982421875 23.5913066864014,38.170166015625 22.0751953125,40.341796875 20.189208984375,42.161865234375 17.958984375,43.5791015625 15.41748046875,44.490966796875 12.59765625,44.794921875 10.1916494369507,44.578857421875 7.9541015625,43.9306640625 4.2041015625,41.6162109375 1.68457055091858,38.2763671875 0.992431640625,36.339111328125 0.76171875,34.306640625 1.31835913658142,31.3330078125 2.84179711341858,28.9892578125 5.09765625,27.4658203125 7.8515625,26.923828125 10.546875,27.4365234375 12.7587890625,28.8720703125 14.2529296875,31.0546875 14.794921875,33.80859375 14.3994140625,36.1376953125 13.3154296875,38.0859375 11.66015625,39.521484375 9.55078125,40.341796875 9.4921875,40.517578125 10.7666015625,40.7958984375 12.3046875,40.927734375 14.1796875,40.71533203125 15.9375,40.078125 18.8818359375,37.734375 20.8447265625,34.2333984375 21.5625,29.8828125 21.3317852020264,27.451171875 20.6396484375,25.60546875 19.595947265625,24.44091796875 18.310546875,24.052734375 17.5927734375,24.1552734375 16.81640625,24.4921875 14.765625,22.8515625 17.080078125,16.875 16.93359375,16.787109375 14.970703125,18.5302734375 12.744140625,20.537109375 10.166015625,22.8515625 6.884765625,20.80078125 7.884521484375,17.4609394073486 8.6572265625,14.765625 9.23217678070068,12.6416034698486 9.638671875,11.015625 9.4921875,10.927734375 7.91015625,11.8798828125 5.9765625,12.216796875 3.72070336341858,11.7919921875 1.81640648841858,10.5908203125 0.498047113418579,8.7158203125 0,6.298828125 0.46875,3.8671875 1.77246117591858,1.8603515625 3.76464867591858,0.498046875 6.26953125,0z" />
    </g>
  </g>
</svg>