<?xml version="1.0" encoding="utf-8"?>
<!DOCTYPE svg PUBLIC "-//W3C//DTD SVG 1.1//EN" "http://www.w3.org/Graphics/SVG/1.1/DTD/svg11.dtd">
<svg width="23.7304687500003" height="43.798828125" xmlns="http://www.w3.org/2000/svg" xmlns:xlink="http://www.w3.org/1999/xlink" xmlns:xml="http://www.w3.org/XML/1998/namespace" version="1.1">
  <g>
    <g>
      <path style="fill:#FF0000;fill-opacity:1" d="M6.474609375,11.982421875L4.6142578125,12.71484375 3.86718726158142,14.53125 4.5703125,16.40625 5.39794874191284,17.0214862823486 6.474609375,17.2265625 8.232421875,16.5234375 8.935546875,14.58984375 8.2470703125,12.6708984375 6.474609375,11.982421875z M11.3671875,0L13.619384765625,0.223388671875 15.7470703125,0.8935546875 19.365234375,3.427734375 21.8115234375,7.3974609375 22.4816875457764,9.862060546875 22.705078125,12.59765625 22.3095703125,16.1865234375 21.123046875,19.7607421875 19.16015625,23.61328125 16.4208984375,28.037109375 12.9052734375,33.3251953125 8.61328125,39.755859375 23.73046875,39.755859375 23.73046875,43.798828125 1.87500023841858,43.798828125 1.171875,42.890625 3.92944264411926,38.697509765625 6.4599609375,34.9658203125 10.810546875,28.681640625 14.208984375,23.671875 16.6552734375,19.541015625 18.134765625,15.908203125 18.6328125,12.392578125 18.046875,8.8037109375 16.435546875,6.1669921875 14.033203125,4.5263671875 11.07421875,3.955078125 8.4228515625,4.4091796875 6.328125,5.6103515625 4.8046875,7.3388671875 3.86718726158142,9.404296875 3.98437428474426,9.521484375 5.2734375,8.9208984375 6.826171875,8.701171875 9.0087890625,9.111328125 10.83984375,10.2978515625 12.1142578125,12.1875 12.59765625,14.70703125 12.1875,17.0654296875 11.015625,18.984375 9.1552734375,20.2880859375 6.6796875,20.771484375 3.98437428474426,20.2001953125 1.87500023841858,18.5595703125 0.498046875,15.9521484375 0,12.48046875 0.208740055561066,10.023193359375 0.8349609375,7.6904296875 3.17871022224426,3.7060546875 6.767578125,0.99609375 8.95751953125,0.2490234375 11.3671875,0z" />
    </g>
  </g>
</svg>