<?xml version="1.0" encoding="utf-8"?>
<!DOCTYPE svg PUBLIC "-//W3C//DTD SVG 1.1//EN" "http://www.w3.org/Graphics/SVG/1.1/DTD/svg11.dtd">
<svg width="23.1152343750009" height="45.29296875" xmlns="http://www.w3.org/2000/svg" xmlns:xlink="http://www.w3.org/1999/xlink" xmlns:xml="http://www.w3.org/XML/1998/namespace" version="1.1">
  <g>
    <g>
      <path style="fill:#FF0000;fill-opacity:1" d="M7.8515625,23.02734375L6.474609375,23.408203125 5.4931640625,24.3896484375 4.892578125,25.7373046875 4.6875,27.1875 4.9951171875,28.828125 5.7861328125,30.0146484375 6.8701171875,30.7470703125 8.02734375,30.99609375 9.1845703125,30.703125 10.1220703125,29.8681640625 10.751953125,28.59375 10.986328125,26.982421875 10.7373046875,25.3125 10.048828125,24.0673828125 9.0380859375,23.291015625 7.8515625,23.02734375z M1.66992163658142,0L5.419921875,1.14257764816284 5.5078125,1.2890625 5.33203125,1.7578125 5.0830078125,2.578125 4.8486328125,3.603515625 4.74609375,4.6875 5.108642578125,6.463623046875 6.1962890625,7.8076171875 7.935791015625,8.653564453125 10.25390625,8.935546875 13.0078125,8.5546875 15.6591796875,7.3095703125 18.28125,5.0537109375 20.9765625,1.669921875 23.115234375,1.669921875 23.115234375,29.853515625 22.9284648895264,33.387451171875 22.3681640625,36.4892578125 21.4562969207764,39.140625 20.21484375,41.3232421875 18.6474609375,43.037109375 16.7578125,44.2822265625 14.56787109375,45.040283203125 12.099609375,45.29296875 7.763671875,44.5458984375 5.70556640625,43.568115234375 3.86718726158142,42.12890625 2.30346655845642,40.213623046875 1.06933569908142,37.8076171875 0.267333686351776,34.866943359375 0,31.34765625 0.571288824081421,26.3818359375 2.19726538658142,22.55859375 4.7314453125,20.1123046875 6.287841796875,19.4641132354736 7.998046875,19.248046875 10.7080078125,19.833984375 12.802734375,21.474609375 14.1650390625,23.9501953125 14.6484375,27.041015625 14.1796875,30.087890625 12.9052734375,32.4462890625 11.0302734375,33.9697265625 8.7890625,34.51171875 6.2109375,33.92578125 3.98437476158142,32.2265625 3.83789086341858,32.314453125 4.5849609375,36.357421875 6.2255859375,39.169921875 8.583984375,40.810546875 11.455078125,41.337890625 14.6337890625,40.623779296875 17.021484375,38.4814453125 18.515625,34.896240234375 19.013671875,29.853515625 19.013671875,9.609375 18.8671875,9.55078125 14.8974609375,12.099609375 12.696533203125,12.8027362823486 10.341796875,13.037109375 6.6650390625,12.421875 3.60351538658142,10.693359375 1.50878882408142,7.9833984375 0.926513433456421,6.295166015625 0.732421636581421,4.423828125 0.981445550918579,2.16796875 1.66992163658142,0z" />
    </g>
  </g>
</svg>