<?xml version="1.0" encoding="utf-8"?>
<!DOCTYPE svg PUBLIC "-//W3C//DTD SVG 1.1//EN" "http://www.w3.org/Graphics/SVG/1.1/DTD/svg11.dtd">
<svg width="29.5312500000001" height="31.40625" xmlns="http://www.w3.org/2000/svg" xmlns:xlink="http://www.w3.org/1999/xlink" xmlns:xml="http://www.w3.org/XML/1998/namespace" version="1.1">
  <g>
    <g>
      <path style="fill:#FF0000;fill-opacity:1" d="M14.970703125,20.771484375L13.6669921875,21.0205078125 12.626953125,21.7236328125 11.9384765625,22.7783203125 11.689453125,24.08203125 11.8945302963257,25.517578125 12.5097646713257,26.54296875 13.5351552963257,27.158203125 14.970703125,27.36328125 16.3330078125,27.1142578125 17.4169921875,26.42578125 18.1201171875,25.3857421875 18.369140625,24.08203125 18.131103515625,22.77099609375 17.4169921875,21.708984375 16.329345703125,21.005859375 14.970703125,20.771484375z M14.94140625,4.04296875L12.762451171875,4.24438619613647 10.7958984375,4.8486328125 7.6318359375,7.1923828125 5.625,10.927734375 4.921875,15.87890625 5.20385694503784,19.031982421875 6.0498046875,21.7529296875 7.408447265625,23.990478515625 9.228515625,25.693359375 9.052734375,24.19921875 9.5068359375,21.8115234375 10.78125,19.98046875 12.7294921875,18.80859375 15.17578125,18.3984375 17.548828125,18.8232421875 19.423828125,19.9951171875 20.6689453125,21.767578125 21.123046875,24.0234375 20.91796875,25.48828125 22.5146465301514,23.800048828125 23.671875,21.6064453125 24.3749980926514,18.922119140625 24.609375,15.76171875 23.9868144989014,10.762939453125 22.119140625,7.0751953125 20.7366943359375,5.74859714508057 19.07958984375,4.80102682113647 17.1478271484375,4.23248386383057 14.94140625,4.04296875z M15.29296875,0L18.47900390625,0.267335414886475 21.298828125,1.0693359375 23.7341289520264,2.37671041488647 25.7666015625,4.16015625 27.3815898895264,6.39770650863647 28.564453125,9.0673828125 29.28955078125,12.139892578125 29.53125,15.5859375 29.267578125,18.973388671875 28.4765625,22.0458984375 27.2021465301514,24.752197265625 25.48828125,27.041015625 23.3459453582764,28.88671875 20.7861328125,30.263671875 17.852783203125,31.12060546875 14.58984375,31.40625 11.4331045150757,31.131591796875 8.583984375,30.3076171875 6.08642578125,28.978271484375 3.98437476158142,27.1875 2.29614233970642,24.964599609375 1.04003882408142,22.3388671875 0.260009557008743,19.354248046875 0,16.0546875 0.267333745956421,12.476806640625 1.06933546066284,9.3017578125 2.36938452720642,6.55517721176147 4.130859375,4.2626953125 6.331787109375,2.43896627426147 8.9501953125,1.0986328125 11.9494619369507,0.274659633636475 15.29296875,0z" />
    </g>
  </g>
</svg>