<?xml version="1.0" encoding="utf-8"?>
<!DOCTYPE svg PUBLIC "-//W3C//DTD SVG 1.1//EN" "http://www.w3.org/Graphics/SVG/1.1/DTD/svg11.dtd">
<svg width="62.63671875" height="42.71484375" xmlns="http://www.w3.org/2000/svg" xmlns:xlink="http://www.w3.org/1999/xlink" xmlns:xml="http://www.w3.org/XML/1998/namespace" version="1.1">
  <g>
    <g>
      <path style="fill:#FF0000;fill-opacity:1" d="M55.693359375,0L58.4435997009277,0.443115234375 60.5419921875,1.7724609375 61.9519004821777,3.988037109375 62.63671875,7.08984375 58.125,7.08984375 57.3413047790527,4.91455078125 55.693359375,4.189453125 54.5361328125,4.51171875 53.6279296875,5.4345703125 52.8955078125,6.9287109375 52.236328125,8.96484375 42.685546875,42.71484375 36.9140625,42.71484375 28.271484375,12.01171875 27.8173828125,9.9609375 27.59765625,7.734375 27.48046875,7.734375 26.71875,11.953125 18.017578125,42.71484375 12.3046875,42.71484375 0,0.703125 5.419921875,0.703125 14.35546875,32.9296875 15.05859375,37.1484375 15.205078125,37.1484375 15.498046875,35.33203125 16.11328125,32.9296875 25.400390625,0.703125 30.1171875,0.703125 39.0234375,33.1640625 39.7265625,37.08984375 39.84375,37.08984375 40.11474609375,35.302734375 40.634765625,33.046875 47.2265625,8.0859375 48.486328125,4.51171875 50.2294921875,1.9921875 52.587890625,0.498046875 55.693359375,0z" />
    </g>
  </g>
</svg>