<?xml version="1.0" encoding="utf-8"?>
<!DOCTYPE svg PUBLIC "-//W3C//DTD SVG 1.1//EN" "http://www.w3.org/Graphics/SVG/1.1/DTD/svg11.dtd">
<svg width="25.458984375" height="53.4375" xmlns="http://www.w3.org/2000/svg" xmlns:xlink="http://www.w3.org/1999/xlink" xmlns:xml="http://www.w3.org/XML/1998/namespace" version="1.1">
  <g>
    <g>
      <path style="fill:#FF0000;fill-opacity:1" d="M14.6484375,0L17.5323467254639,0.0933837890625 20.0024394989014,0.37353515625 22.0587139129639,0.8404541015625 23.701171875,1.494140625 23.701171875,7.03125 19.453125,5.09765625 14.150390625,4.453125 10.9130859375,4.7900390625 8.056640625,5.888671875 6.005859375,7.8515625 5.41259765625,9.1845703125 5.21484375,10.78125 5.8154296875,13.564453125 7.587890625,15.703125 10.4443359375,17.578125 14.326171875,19.5703125 18.603515625,21.9140625 22.1484375,24.638671875 24.5654296875,27.9638671875 25.2355937957764,29.915771484375 25.458984375,32.109375 25.1770000457764,34.82666015625 24.3310546875,37.119140625 23.0053691864014,39.019775390625 21.2841796875,40.5615234375 16.845703125,42.59765625 11.54296875,43.388671875 12.5244140625,44.47265625 13.271484375,45.732421875 14.35546875,47.2265625 15.7470703125,48.2958984375 17.314453125,48.9404296875 18.896484375,49.16015625 21.4453125,48.8671875 23.96484375,47.958984375 23.96484375,52.294921875 21.6064453125,53.1591796875 18.6328125,53.4375 15.7763671875,53.1298828125 13.1689453125,52.1923828125 10.986328125,50.625 9.404296875,48.427734375 6.95068359375,45.00732421875 3.3984375,42.421875 1.4794921875,41.77734375 0,41.015625 0,35.21484375 2.38769483566284,36.796875 5.3173828125,37.9833984375 8.408203125,38.73046875 11.279296875,38.994140625 15.263671875,38.580322265625 18.076171875,37.3388671875 19.74609375,35.299072265625 20.302734375,32.490234375 19.7314453125,29.7216796875 17.9443359375,27.5537109375 14.8828125,25.5322265625 10.48828125,23.203125 6.38671875,20.9326171875 3.076171875,18.427734375 0.8642578125,15.3076171875 0.260009557008743,13.4143085479736 0.0585935115814209,11.220703125 0.373534977436066,8.5400390625 1.31835889816284,6.240234375 2.77587842941284,4.310302734375 4.62890625,2.7392578125 9.3017578125,0.673828125 14.6484375,0z" />
    </g>
  </g>
</svg>