<?xml version="1.0" encoding="utf-8"?>
<!DOCTYPE svg PUBLIC "-//W3C//DTD SVG 1.1//EN" "http://www.w3.org/Graphics/SVG/1.1/DTD/svg11.dtd">
<svg width="36.09375" height="43.41796875" xmlns="http://www.w3.org/2000/svg" xmlns:xlink="http://www.w3.org/1999/xlink" xmlns:xml="http://www.w3.org/XML/1998/namespace" version="1.1">
  <g>
    <g>
      <path style="fill:#FF0000;fill-opacity:1" d="M17.783203125,4.453125L14.384765625,5.0244140625 12.498779296875,5.789794921875 10.6494140625,6.943359375 8.89160060882568,8.5107421875 7.2802734375,10.517578125 5.921630859375,13.0078144073486 4.921875,16.025390625 4.921875,27.509765625 5.775146484375,30.47607421875 7.0458984375,32.9296875 8.60961818695068,34.91455078125 10.341796875,36.474609375 12.1875,37.6318359375 14.091796875,38.408203125 17.578125,38.994140625 20.2258281707764,38.70849609375 22.7197265625,37.8515625 24.9902324676514,36.4453125 26.9677734375,34.51171875 28.6083984375,32.069091796875 29.8681640625,29.1357421875 30.670166015625,25.726318359375 30.9375,21.85546875 30.703125,18.0175800323486 30,14.58984375 28.86474609375,11.6088876724243 27.333984375,9.111328125 25.4333477020264,7.119140625 23.1884765625,5.654296875 20.6286602020264,4.75341796875 17.783203125,4.453125z M18.22265625,0L21.9653301239014,0.38818359375 25.400390625,1.552734375 28.45458984375,3.431396484375 31.0546875,5.9619140625 33.167724609375,9.11865234375 34.7607421875,12.8759765625 35.760498046875,17.1716327667236 36.09375,21.943359375 35.716552734375,26.649169921875 34.5849609375,30.8642578125 32.808837890625,34.541015625 30.498046875,37.6318359375 27.70751953125,40.103759765625 24.4921875,41.923828125 20.9692363739014,43.04443359375 17.255859375,43.41796875 13.505859375,42.919921875 10.107421875,41.5576171875 7.20703125,39.5654296875 4.921875,37.177734375 4.921875,42.71484375 0,42.71484375 0,0.703125 4.921875,0.703125 4.921875,7.705078125 7.705078125,4.0576171875 11.162109375,1.6845703125 14.82421875,0.3955078125 18.22265625,0z" />
    </g>
  </g>
</svg>