<?xml version="1.0" encoding="utf-8"?>
<!DOCTYPE svg PUBLIC "-//W3C//DTD SVG 1.1//EN" "http://www.w3.org/Graphics/SVG/1.1/DTD/svg11.dtd">
<svg width="49.39453125" height="33.046875" xmlns="http://www.w3.org/2000/svg" xmlns:xlink="http://www.w3.org/1999/xlink" xmlns:xml="http://www.w3.org/XML/1998/namespace" version="1.1">
  <g>
    <g>
      <path style="fill:#FF0000;fill-opacity:1" d="M25.83984375,25.48828125L24.2724609375,25.8837890625 23.583984375,27.12890625 24.1845703125,28.388671875 25.83984375,28.828125 25.83984375,25.48828125z M42.275390625,0L43.095703125,0 47.666015625,2.34375 48.369140625,2.490234375 48.8671875,2.431640625 49.39453125,3.310546875 46.611328125,5.712890625 46.025390625,5.44921875 45,4.86328125 43.564453125,4.248046875 41.77734375,3.955078125 41.1328125,4.0576171875 40.458984375,4.3359375 39.228515625,5.2734375 39.31640625,5.419921875 40.78125,5.2734375 42.733154296875,5.489501953125 44.1357421875,6.1376953125 45.0549278259277,7.078857421875 45.556640625,8.173828125 45.556640625,33.046875 40.869140625,33.046875 39.5947265625,31.2158203125 38.203125,29.6923828125 36.416015625,28.2421875 34.453125,26.982421875 33.017578125,26.25 30.498046875,25.48828125 30.498046875,31.611328125 30.17578125,32.5634765625 29.091796875,33.046875 26.30859375,33.046875 23.7780742645264,32.713623046875 21.6943359375,31.7138671875 20.299072265625,29.967041015625 19.833984375,27.392578125 20.537109375,24.3310546875 22.2216796875,22.412109375 24.2578125,21.4306640625 25.78125,21.09375 25.78125,7.6171875 25.4443359375,5.947265625 24.521484375,4.775390625 23.232421875,4.0869140625 21.591796875,3.8671875 20.2935791015625,4.0960693359375 18.91845703125,4.78271484375 17.4664306640625,5.9271240234375 15.9375,7.529296875 14.630126953125,5.9271240234375 13.1396484375,4.78271484375 11.466064453125,4.0960693359375 9.609375,3.8671875 8.056640625,3.9697265625 6.4306640625,4.4384765625 5.15625,5.390625 4.658203125,6.796875 5.04638671875,7.98339939117432 6.2109375,9.7265625 7.1484375,10.8984375 7.1484375,29.0625 7.5,29.736328125 8.37890625,29.94140625 9.6240234375,29.384765625 10.107421875,28.0078125 9.7119140625,26.6748046875 8.84765625,26.19140625 8.0126953125,25.751953125 7.646484375,24.580078125 8.2763671875,23.0859375 10.107421875,22.470703125 11.3854970932007,22.708740234375 12.2900390625,23.4228515625 13.0078125,26.07421875 12.71484375,28.4619140625 12.22412109375,29.703369140625 11.337890625,30.9375 10.1879873275757,31.94091796875 8.84765625,32.548828125 6.357421875,32.958984375 4.423828125,32.958984375 3.046875,32.34375 2.40234375,30.8203125 2.40234375,10.986328125 1.435546875,9.78515625 0.673828125,8.642578125 0.175781726837158,7.353515625 0,5.625 0.24169921875,4.07958984375 0.966796875,2.841796875 3.2666015625,1.142578125 5.9912109375,0.29296875 8.203125,0.05859375 13.14697265625,0.63720703125 16.611328125,2.373046875 19.41650390625,0.63720703125 22.55859375,0.05859375 24.31640625,0.146484375 26.6748046875,0.791015625 28.077392578125,1.549072265625 29.326171875,2.7099609375 30.205078125,4.185791015625 30.498046875,5.888671875 30.498046875,21.240234375 33.9111328125,22.3681640625 36.943359375,23.8623046875 39.580078125,25.458984375 40.4296875,26.05224609375 40.869140625,26.3671875 40.869140625,9.990234375 40.1220703125,8.37890625 38.349609375,7.880859375 37.20703125,8.14453125 36.650390625,8.408203125 35.009765625,5.712890625 42.275390625,0z" />
    </g>
  </g>
</svg>