<?xml version="1.0" encoding="utf-8"?>
<!DOCTYPE svg PUBLIC "-//W3C//DTD SVG 1.1//EN" "http://www.w3.org/Graphics/SVG/1.1/DTD/svg11.dtd">
<svg width="31.640625" height="50.390625" xmlns="http://www.w3.org/2000/svg" xmlns:xlink="http://www.w3.org/1999/xlink" xmlns:xml="http://www.w3.org/XML/1998/namespace" version="1.1">
  <g>
    <g>
      <path style="fill:#FF0000;fill-opacity:1" d="M12.83203125,0L16.40625,0.48339855670929 18.1933574676514,1.34399700164795 20.68359375,2.958984375 22.8002910614014,4.61059856414795 23.994140625,5.6396484375 25.1806640625,6.73828125 26.484375,7.119140625 27.802734375,6.62841796875 28.828125,5.15625 29.45068359375,4.25537395477295 30.322265625,3.95507764816284 31.1572265625,4.3798828125 31.640625,5.712890625 31.171875,7.44140577316284 29.853515625,8.8037109375 28.095703125,9.7265625 25.869140625,10.048828125 23.96484375,9.5947265625 22.3681640625,8.466796875 20.6396484375,6.826171875 18.310546875,5.009765625 15.76171875,3.57421851158142 14.53125,3.28857707977295 12.83203125,3.193359375 10.13671875,3.45703125 7.6025390625,4.482421875 6.39037990570068,5.4345703125 5.419921875,6.76757860183716 7.1337890625,6.474609375 8.408203125,6.416015625 10.9716796875,6.81152391433716 13.7109375,8.0859375 15.8056640625,10.1953125 16.962890625,12.83203125 25.83984375,12.83203125 27.8173828125,13.1689453125 29.4873046875,14.2236328125 30.5859375,15.99609375 30.9375,18.515625 30.9375,24.287109375 30.4833984375,26.6162109375 29.0478515625,28.4033203125 26.71875,29.70703125 23.90625,30.498046875 6.26953125,34.482421875 4.8046875,35.1708984375 4.3359375,36.298828125 4.3359375,39.814453125 5.0390625,41.54296875 6.796875,42.041015625 17.080078125,42.041015625 20.2734375,41.7333984375 22.0642070770264,41.048583984375 23.8037109375,39.609375 25.21728515625,37.9833984375 26.0302734375,36.73828125 26.54296875,34.833984375 26.54296875,33.8671875 27.802734375,32.900390625 29.82421875,32.900390625 30.9375,33.779296875 30.9375,49.599609375 29.82421875,50.390625 27.275390625,50.390625 26.54296875,49.658203125 26.54296875,41.337890625 25.4736328125,42.6416015625 23.7451171875,44.091796875 21.09375,45.2490234375 17.2265625,45.732421875 3.603515625,45.732421875 1.77978515625,45.52001953125 0.703125,44.8828125 0,42.5390625 0,34.98046875 0.498046875,33.0322265625 1.9482421875,31.7138671875 3.343505859375,31.168212890625 5.625,30.673828125 20.390625,27.3046875 22.96875,26.7663593292236 24.4921875,26.2646484375 25.8837890625,25.1806640625 26.4111328125,23.9501953125 26.54296875,22.587890625 26.54296875,19.189453125 26.28662109375,18.035888671875 25.517578125,17.2119140625 24.23583984375,16.717529296875 22.44140625,16.552734375 8.203125,16.552734375 6.51122999191284,16.66259765625 5.30273342132568,16.9921875 4.57763624191284,17.54150390625 4.3359375,18.310546875 4.3359375,24.990234375 4.6728515625,25.72265625 5.302734375,25.927734375 6.2109375,25.5029296875 6.533203125,24.638671875 6.2548828125,24.3896484375 5.6396484375,24.1845703125 5.0244140625,23.61328125 4.74609375,22.265625 4.91454982757568,21.090087890625 5.419921875,20.3759765625 6.884765625,19.892578125 8.3203125,20.4931640625 8.96484375,22.44140625 8.594970703125,24.8840351104736 7.4853515625,26.6455078125 5.88500881195068,27.7111835479736 4.04296875,28.06640625 2.197265625,28.06640625 0.6884765625,27.4072265625 0.1025390625,25.810546875 0,23.73046875 0,17.490234375 0.19775390625,16.09130859375 0.791015625,14.82421875 2.75390625,13.330078125 5.478515625,12.83203125 12.48046875,12.83203125 11.5869140625,11.0888671875 10.3125,10.048828125 8.6865234375,9.5654296875 6.767578125,9.43359375 5.56640625,9.5068359375 4.775390625,9.66796875 4.1455078125,9.8583984375 3.33984375,10.048828125 1.376953125,10.048828125 1.376953125,8.466796875 1.61865234375,7.001953125 2.34375,5.419921875 4.8486328125,2.57812523841858 8.4521484375,0.688476324081421 12.83203125,0z" />
    </g>
  </g>
</svg>