<?xml version="1.0" encoding="utf-8"?>
<!DOCTYPE svg PUBLIC "-//W3C//DTD SVG 1.1//EN" "http://www.w3.org/Graphics/SVG/1.1/DTD/svg11.dtd">
<svg width="42.626953125" height="32.958984375" xmlns="http://www.w3.org/2000/svg" xmlns:xlink="http://www.w3.org/1999/xlink" xmlns:xml="http://www.w3.org/XML/1998/namespace" version="1.1">
  <g>
    <g>
      <path style="fill:#FF0000;fill-opacity:1" d="M12.3046875,0L14.326171875,0 23.701171875,4.8046875 30.849609375,0 32.34375,0 39.462890625,3.837890625 40.6640625,4.04296875 42.0703125,3.779296875 42.626953125,4.98046875 39.521484375,8.232421875 38.642578125,8.232421875 29.23828125,3.8671875 22.91015625,7.998046875 20.09765625,7.998046875 10.8984375,3.427734375 3.076171875,7.177734375 3.076171875,7.6171875 8.7890625,12.275390625 8.7890625,27.94921875 21.005859375,22.5 34.072265625,28.125 34.072265625,17.05078125 33.486328125,16.4208984375 32.841796875,16.259765625 31.58203125,16.81640625 31.083984375,18.193359375 31.4794921875,19.5263671875 32.3291015625,20.009765625 33.1787109375,20.4638671875 33.57421875,21.6796875 32.9150390625,23.14453125 31.083984375,23.73046875 29.864501953125,23.521728515625 28.9599609375,22.8955078125 28.399658203125,21.785888671875 28.212890625,20.126953125 28.505859375,17.7392578125 28.9892578125,16.505126953125 29.853515625,15.29296875 31.025390625,14.2675800323486 32.373046875,13.65234375 34.86328125,13.2421875 36.796875,13.2421875 38.173828125,13.857421875 38.818359375,15.380859375 38.818359375,32.958984375 35.0390625,32.958984375 21.005859375,27.24609375 7.822265625,32.958984375 4.1015625,32.958984375 4.1015625,13.681640625 0,10.1953125 0,6.5625 12.3046875,0z" />
    </g>
  </g>
</svg>