<?xml version="1.0" encoding="utf-8"?>
<!DOCTYPE svg PUBLIC "-//W3C//DTD SVG 1.1//EN" "http://www.w3.org/Graphics/SVG/1.1/DTD/svg11.dtd">
<svg width="43.388671875" height="32.958984375" xmlns="http://www.w3.org/2000/svg" xmlns:xlink="http://www.w3.org/1999/xlink" xmlns:xml="http://www.w3.org/XML/1998/namespace" version="1.1">
  <g>
    <g>
      <path style="fill:#FF0000;fill-opacity:1" d="M10.546875,0L12.568359375,0 21.943359375,4.8046875 29.091796875,0 30.5859375,0 37.705078125,3.837890625 38.90625,4.04296875 40.3125,3.779296875 40.869140625,4.98046875 37.763671875,8.232421875 36.884765625,8.232421875 27.48046875,3.8671875 21.15234375,7.998046875 18.33984375,7.998046875 9.140625,3.427734375 4.1015625,6.03515625 4.1015625,6.474609375 14.58984375,10.869140625 29.35546875,10.869140625 31.640625,11.103515625 34.39453125,11.9970703125 36.708984375,13.798828125 37.43408203125,15.1171894073486 37.67578125,16.787109375 37.67578125,22.5 38.5546875,22.587890625 40.37109375,22.32421875 41.4111328125,21.73828125 42.1142578125,21.123046875 42.802734375,20.830078125 43.2421836853027,21.0205078125 43.388671875,21.591796875 43.18359375,22.7490234375 42.71484375,23.583984375 42.12890625,24.19921875 41.5576171875,24.638671875 40.8984375,24.9609375 39.7998046875,25.2685546875 38.408203125,25.400390625 37.67578125,25.37109375 37.67578125,32.958984375 32.9296875,32.958984375 32.9296875,24.9609375 31.1865234375,24.55078125 29.384765625,23.759765625 27.9638671875,22.55859375 27.392578125,20.830078125 27.9638671875,19.5849609375 29.53125,19.072265625 31.142578125,19.4677734375 32.05078125,20.2880859375 32.5341796875,20.9765625 32.9296875,21.5625 32.9296875,18.369140625 32.4462890625,16.58203125 31.23046875,15.4541015625 29.619140625,14.853515625 27.94921875,14.677734375 11.6015625,14.677734375 9.9755859375,14.8974609375 8.4814453125,15.5859375 7.3828125,16.7578125 6.943359375,18.427734375 6.943359375,27.12890625 9.55078125,24.84375 11.19140625,23.49609375 12.3486328125,22.68310546875 14.58984375,21.181640625 16.505126953125,20.21484375 17.7978515625,19.775390625 19.21875,19.599609375 20.2587871551514,19.808349609375 20.859375,20.3759765625 21.240234375,21.796875 20.6396484375,23.6279296875 19.39453125,24.2578125 18.5302734375,23.9208984375 17.607421875,23.583984375 16.5966796875,23.792724609375 15.205078125,24.4189453125 13.82080078125,25.184326171875 12.83203125,25.810546875 11.3525390625,26.865234375 9.66796875,28.037109375 8.30566310882568,29.205322265625 7.55859375,30.0146484375 7.03125,31.34765625 6.943359375,32.490234375 6.943359375,32.958984375 2.255859375,32.958984375 2.255859375,16.69921875 2.530517578125,15.0402851104736 3.3544921875,13.4619140625 4.749755859375,12.1618671417236 6.73828125,11.337890625 0,8.4375 0,6.123046875 10.546875,0z" />
    </g>
  </g>
</svg>