<?xml version="1.0" encoding="utf-8"?>
<!DOCTYPE svg PUBLIC "-//W3C//DTD SVG 1.1//EN" "http://www.w3.org/Graphics/SVG/1.1/DTD/svg11.dtd">
<svg width="46.904296875" height="32.958984375" xmlns="http://www.w3.org/2000/svg" xmlns:xlink="http://www.w3.org/1999/xlink" xmlns:xml="http://www.w3.org/XML/1998/namespace" version="1.1">
  <g>
    <g>
      <path style="fill:#FF0000;fill-opacity:1" d="M7.265625,0L8.0859375,0 12.65625,2.34375 13.359375,2.4609375 13.857421875,2.431640625 14.384765625,3.310546875 11.6015625,5.712890625 11.015625,5.44921875 9.990234375,4.86328125 8.5546875,4.248046875 6.767578125,3.955078125 6.123046875,4.1015625 5.390625,4.541015625 4.189453125,5.654296875 4.27734375,5.80078125 5.771484375,5.712890625 7.75634670257568,6.23291015625 9.55078125,7.79296875 10.89111328125,8.58398628234863 13.095703125,8.84765625 16.34765625,8.84765625 18.8525390625,9.08203125 21.005859375,9.84375 22.7197265625,11.1767578125 23.8330078125,12.8759765625 24.169921875,14.677734375 24.169921875,25.458984375 24.66796875,27.24609375 25.8984375,28.3740234375 27.509765625,28.974609375 29.1796875,29.150390625 33.720703125,29.150390625 35.2294921875,28.9453125 36.73828125,28.30078125 37.91015625,27.2314453125 38.37890625,25.6640625 38.37890625,9.990234375 37.6318359375,8.37890625 35.859375,7.880859375 35.1416015625,8.056640625 34.423828125,8.232421875 33.69140625,7.646484375 32.51953125,5.712890625 39.78515625,0 40.60546875,0 45.17578125,2.34375 45.87890625,2.4609375 46.376953125,2.431640625 46.904296875,3.310546875 44.12109375,5.712890625 43.53515625,5.44921875 42.509765625,4.86328125 41.07421875,4.248046875 39.287109375,3.955078125 38.6279296875,4.0576171875 37.939453125,4.3359375 36.73828125,5.2734375 36.826171875,5.419921875 38.291015625,5.2734375 40.242919921875,5.489501953125 41.6455078125,6.1376953125 42.5646934509277,7.078857421875 43.06640625,8.173828125 43.06640625,27.12890625 42.8759727478027,28.3740234375 42.3046875,29.47265625 40.576171875,31.201171875 38.701171875,32.2998046875 37.3095703125,32.783203125 36.2548828125,32.9150390625 35.244140625,32.958984375 27.7734375,32.958984375 25.48828125,32.724609375 22.734375,31.8310546875 20.419921875,30.029296875 19.6948223114014,28.7109375 19.453125,27.041015625 19.453125,16.40625 19.013671875,14.736328125 17.9150390625,13.564453125 16.4208984375,12.8759765625 14.794921875,12.65625 9.84375,12.65625 8.173828125,12.83203125 6.5771484375,13.4326171875 5.3759765625,14.560546875 4.892578125,16.34765625 4.892578125,29.150390625 5.44921875,29.7802734375 6.123046875,29.94140625 7.3388671875,29.384765625 7.822265625,28.0078125 7.4267578125,26.6748046875 6.5771484375,26.19140625 5.7421875,25.751953125 5.361328125,24.580078125 6.005859375,23.0859375 7.822265625,22.470703125 9.210205078125,22.672119140625 10.0927734375,23.2763671875 10.565185546875,24.378662109375 10.72265625,26.07421875 10.4443359375,28.4619140625 9.957275390625,29.703369140625 9.052734375,30.9375 7.90649318695068,31.94091796875 6.5771484375,32.548828125 4.1015625,32.958984375 2.16796875,32.958984375 0.7763671875,32.34375 0.146484375,30.8203125 0.146484375,14.765625 0.644531726837158,12.5537109375 1.93359375,10.927734375 3.69140625,9.8291015625 5.595703125,9.19921875 4.6435546875,8.5400390625 3.33984375,8.3203125 2.63671875,8.3642578125 1.81640625,8.408203125 1.22314417362213,8.21777439117432 0.791015625,7.646484375 0,5.712890625 7.265625,0z" />
    </g>
  </g>
</svg>