<?xml version="1.0" encoding="utf-8"?>
<!DOCTYPE svg PUBLIC "-//W3C//DTD SVG 1.1//EN" "http://www.w3.org/Graphics/SVG/1.1/DTD/svg11.dtd">
<svg width="47.05078125" height="47.4609375" xmlns="http://www.w3.org/2000/svg" xmlns:xlink="http://www.w3.org/1999/xlink" xmlns:xml="http://www.w3.org/XML/1998/namespace" version="1.1">
  <g>
    <g>
      <path style="fill:#FF0000;fill-opacity:1" d="M7.23632764816284,0L8.0859375,0 12.65625,2.34375 13.359375,2.4609375 13.828125,2.431640625 14.35546875,3.310546875 11.6015625,5.712890625 11.0009765625,5.44921875 9.9609375,4.86328125 8.5400390625,4.248046875 6.76757764816284,3.955078125 6.06445264816284,4.04296875 5.39062452316284,4.306640625 4.21874952316284,5.2734375 4.30664014816284,5.419921875 5.74218702316284,5.2734375 7.71240091323853,5.489501953125 9.111328125,6.1376953125 10.0268535614014,7.078857421875 10.546875,8.173828125 10.546875,25.458984375 11.0302734375,27.24609375 12.2314453125,28.3740234375 13.828125,28.974609375 15.498046875,29.150390625 27.451171875,29.150390625 29.0771484375,28.9306640625 30.5712890625,28.2421875 31.669921875,27.0703125 32.109375,25.400390625 32.109375,9.990234375 31.3623046875,8.37890625 29.619140625,7.880859375 28.88671875,8.056640625 28.154296875,8.232421875 27.509765625,7.646484375 26.279296875,5.712890625 33.515625,0 34.365234375,0 38.935546875,2.34375 39.638671875,2.4609375 40.107421875,2.431640625 40.634765625,3.310546875 37.880859375,5.712890625 37.2802734375,5.44921875 36.240234375,4.86328125 34.8193359375,4.248046875 33.046875,3.955078125 32.34375,4.0576171875 31.669921875,4.3359375 30.498046875,5.2734375 30.5859375,5.419921875 32.021484375,5.2734375 33.99169921875,5.489501953125 35.390625,6.1376953125 36.30615234375,7.078857421875 36.826171875,8.173828125 36.826171875,37.177734375 37.03125,38.5986328125 37.6171875,39.638671875 38.5546875,40.517578125 39.90234375,41.220703125 41.42578125,41.5869140625 42.509765625,41.66015625 43.8427734375,41.5283203125 45.05859375,41.1181640625 45.9521484375,40.6640625 46.611328125,40.48828125 47.05078125,40.927734375 46.669921875,42.392578125 45.5126953125,44.00390625 44.326171875,44.7216796875 43.1689453125,44.9560546875 42.275390625,45 40.7373046875,44.8681640625 39.0673828125,44.5166015625 37.44140625,44.033203125 36.064453125,43.4765625 35.5224609375,44.58984375 34.2626953125,45.9228515625 32.63671875,46.9189453125 31.171875,47.3583984375 30.05859375,47.4609375 28.857421875,47.3583984375 27.1728515625,46.904296875 24.345703125,45.8056640625 20.478515625,44.091796875 18.96240234375,43.377685546875 18.046875,42.9345703125 16.494140625,42.3193359375 14.443359375,42.01171875 11.2939453125,42.568359375 8.7158203125,43.88671875 6.82617139816284,45.263671875 5.74218702316284,45.87890625 5.47851514816284,45.322265625 5.74218702316284,44.0185546875 6.45996046066284,42.4951171875 7.69042921066284,40.869140625 9.31640625,39.462890625 12.0703125,38.232421875 14.53125,37.91015625 16.318359375,38.056640625 17.900390625,38.466796875 19.9951171875,39.287109375 21.4782695770264,39.98291015625 23.37890625,40.95703125 26.220703125,42.3193359375 28.916015625,43.06640625 30.2783203125,42.8466796875 31.23046875,42.0556640625 31.875,40.4736328125 32.109375,37.8515625 32.109375,32.490234375 29.4873046875,32.8857421875 28.037109375,32.958984375 14.091796875,32.958984375 11.806640625,32.724609375 9.0673828125,31.8310546875 6.76757764816284,30.029296875 6.04247999191284,28.7109375 5.80078077316284,27.041015625 5.80078077316284,9.990234375 5.63598585128784,9.03076362609863 5.08300733566284,8.37890625 3.33984327316284,7.880859375 2.607421875,8.056640625 1.87499952316284,8.232421875 1.23046827316284,7.646484375 0.732421398162842,6.9140625 0.468749523162842,6.4453125 0,5.712890625 7.23632764816284,0z" />
    </g>
  </g>
</svg>