<?xml version="1.0" encoding="utf-8"?>
<!DOCTYPE svg PUBLIC "-//W3C//DTD SVG 1.1//EN" "http://www.w3.org/Graphics/SVG/1.1/DTD/svg11.dtd">
<svg width="33.955078125007" height="37.55859375" xmlns="http://www.w3.org/2000/svg" xmlns:xlink="http://www.w3.org/1999/xlink" xmlns:xml="http://www.w3.org/XML/1998/namespace" version="1.1">
  <g>
    <g>
      <path style="fill:#FF0000;fill-opacity:1" d="M30.849609375,20.068359375L32.87109375,20.068359375 33.955078125,20.947265625 33.955078125,36.767578125 32.87109375,37.55859375 30.322265625,37.55859375 29.560546875,36.826171875 29.560546875,21.03515625 30.849609375,20.068359375z M5.478515625,0L25.751953125,0 28.0224609375,0.52734375 29.6337890625,1.7431640625 30.498046875,3.3251953125 30.849609375,5.44921875 30.849609375,11.455078125 30.2783203125,13.740234375 28.740234375,15.5126953125 26.6015625,16.81640625 23.818359375,17.724609375 6.26953125,21.62109375 4.892578125,22.236328125 4.3359375,23.49609375 4.3359375,26.982421875 5.0390625,28.7109375 6.796875,29.208984375 13.857421875,29.208984375 17.431640625,28.65234375 19.2077617645264,27.843017578125 20.7275390625,26.5283203125 21.8847637176514,25.089111328125 22.5732421875,23.90625 23.02734375,22.001953125 23.02734375,21.03515625 24.287109375,20.068359375 26.30859375,20.068359375 27.421875,20.947265625 27.421875,36.767578125 26.30859375,37.55859375 23.759765625,37.55859375 23.02734375,36.826171875 23.02734375,28.505859375 21.9580078125,29.8095703125 20.2294921875,31.259765625 17.578125,32.4169921875 13.7109375,32.900390625 3.603515625,32.900390625 1.77978491783142,32.68798828125 0.703125,32.05078125 0,29.70703125 0,22.1484375 0.498046875,20.2001953125 1.9482421875,18.955078125 4.21875,18.10546875 7.32421875,17.373046875 22.67578125,13.974609375 24.755859375,13.212890625 25.869140625,12.275390625 26.3525390625,11.1181640625 26.455078125,9.7265625 26.455078125,6.357421875 26.19873046875,5.203857421875 25.4296875,4.3798828125 24.14794921875,3.885498046875 22.353515625,3.720703125 8.232421875,3.720703125 6.5277099609375,3.83056640625 5.31005859375,4.16015625 4.5794677734375,4.70947265625 4.3359375,5.478515625 4.3359375,12.158203125 4.5849609375,12.890625 5.33203125,13.095703125 6.240234375,12.6708984375 6.5625,11.806640625 6.2841796875,11.5576171875 5.6689453125,11.3525390625 5.0537109375,10.78125 4.775390625,9.43359375 4.951171875,8.25805759429932 5.478515625,7.5439453125 6.9140625,7.060546875 8.408203125,7.6611328125 8.994140625,9.609375 8.62426662445068,12.0520038604736 7.5146484375,13.8134765625 5.91430568695068,14.8791522979736 4.072265625,15.234375 2.2265625,15.234375 0.7470703125,14.6337890625 0.0732417106628418,13.4765625 0,12.36328125 0,4.951171875 0.219726204872131,3.45703125 0.87890625,2.021484375 2.77587890625,0.50537109375 5.478515625,0z" />
    </g>
  </g>
</svg>