<?xml version="1.0" encoding="utf-8"?>
<!DOCTYPE svg PUBLIC "-//W3C//DTD SVG 1.1//EN" "http://www.w3.org/Graphics/SVG/1.1/DTD/svg11.dtd">
<svg width="38.2031250000013" height="41.07421875" xmlns="http://www.w3.org/2000/svg" xmlns:xlink="http://www.w3.org/1999/xlink" xmlns:xml="http://www.w3.org/XML/1998/namespace" version="1.1">
  <g>
    <g>
      <path style="fill:#FF0000;fill-opacity:1" d="M2.78320288658142,0L4.50073194503784,0.278323173522949 5.9619140625,1.11328125 6.961669921875,2.42431640625 7.294921875,4.130859375 7.294921875,35.009765625 7.6025390625,36.328125 8.525390625,36.767578125 9.62402248382568,36.610107421875 11.513671875,36.1376953125 15.4248046875,35.185546875 18.5009765625,34.7607421875 21.064453125,34.658203125 24.462890625,34.9072265625 27.5830078125,35.419921875 30.05859375,35.91796875 31.69921875,36.15234375 32.6806640625,36.064453125 33.1640625,35.80078125 33.3984375,34.716796875 33.3984375,14.443359375 33.046875,13.271484375 32.080078125,12.919921875 30.498046875,13.359375 23.61328125,16.0546875 16.962890625,12.861328125 16.23046875,13.4765625 16.23046875,27.24609375 16.5380859375,27.744140625 17.314453125,27.94921875 18.662109375,27.5244140625 19.072265625,26.8359375 18.955078125,26.5576171875 18.427734375,26.484375 17.55615234375,26.282958984375 16.93359375,25.6787109375 16.435546875,23.818359375 17.05078125,22.0166015625 18.6328125,21.357421875 19.625244140625,21.5515155792236 20.3759765625,22.1337890625 21.005859375,24.2578125 20.6103515625,26.5869140625 19.51171875,28.5205078125 17.7978515625,29.8388671875 15.556640625,30.322265625 14.43603515625,30.29296875 13.7109375,30.205078125 12.7001953125,29.8681640625 11.865234375,29.296875 11.513671875,28.4765625 11.513671875,11.162109375 17.021484375,8.291015625 24.2578125,11.77734375 32.490234375,8.291015625 38.203125,11.07421875 38.203125,37.96875 37.8515625,39.2431640625 36.9287109375,40.224609375 35.6103515625,40.8544921875 33.955078125,41.07421875 31.845703125,40.927734375 30.263671875,40.546875 28.388671875,40.01953125 25.751953125,39.43359375 23.0712890625,38.994140625 21.064453125,38.84765625 19.4970703125,38.8623046875 17.2412109375,39.0234375 15,39.43359375 12.978515625,39.990234375 11.1328125,40.5322265625 9.9169921875,40.83984375 8.96484375,41.015625 7.91015625,41.07421875 5.36865186691284,40.81787109375 3.72070288658142,40.048828125 2.81982398033142,38.75244140625 2.51953053474426,36.9140625 2.51953053474426,6.15234375 2.42065382003784,4.9365234375 2.12402272224426,4.1015625 1.25976538658142,3.134765625 0.3955078125,2.51953125 0,1.5234375 0.556640625,0.366211175918579 1.39160132408142,0.0915556252002716 2.78320288658142,0z" />
    </g>
  </g>
</svg>