<?xml version="1.0" encoding="utf-8"?>
<!DOCTYPE svg PUBLIC "-//W3C//DTD SVG 1.1//EN" "http://www.w3.org/Graphics/SVG/1.1/DTD/svg11.dtd">
<svg width="27.4511718750009" height="33.046875" xmlns="http://www.w3.org/2000/svg" xmlns:xlink="http://www.w3.org/1999/xlink" xmlns:xml="http://www.w3.org/XML/1998/namespace" version="1.1">
  <g>
    <g>
      <path style="fill:#FF0000;fill-opacity:1" d="M11.71875,3.75L9.3603515625,3.8818359375 7.55859375,4.365234375 6.123046875,5.185546875 5.068359375,6.591796875 4.599609375,8.701171875 4.599609375,23.7890625 4.951171875,25.5908203125 5.8154296875,27.0849609375 7.0751953125,28.1982421875 8.6572265625,28.9453125 10.83984375,29.23828125 16.640625,29.23828125 19.1125469207764,28.9013671875 21.1376953125,27.890625 22.4890117645264,26.19140625 22.939453125,23.7890625 22.939453125,9.19921875 22.412109375,6.7529296875 21.005859375,5.0537109375 18.9111328125,4.072265625 16.376953125,3.75 11.71875,3.75z M10.400390625,0L17.34375,0 21.0498046875,0.46875 24.2724609375,1.9189453125 26.572265625,4.4677734375 27.2314453125,6.192626953125 27.451171875,8.232421875 27.451171875,24.580078125 26.7919921875,28.5205078125 24.8876953125,31.1572265625 21.8115234375,32.607421875 17.666015625,33.046875 8.466796875,33.046875 5.15625,32.5048828125 3.394775390625,31.607666015625 1.6845703125,30 0.421142220497131,27.75146484375 0,24.931640625 0,7.705078125 0.5419921875,4.86328125 1.9921875,2.6806640625 4.0576171875,1.1865234375 6.85546875,0.3076171875 10.400390625,0z" />
    </g>
  </g>
</svg>