<?xml version="1.0" encoding="utf-8"?>
<!DOCTYPE svg PUBLIC "-//W3C//DTD SVG 1.1//EN" "http://www.w3.org/Graphics/SVG/1.1/DTD/svg11.dtd">
<svg width="31.3769531250107" height="42.36328125" xmlns="http://www.w3.org/2000/svg" xmlns:xlink="http://www.w3.org/1999/xlink" xmlns:xml="http://www.w3.org/XML/1998/namespace" version="1.1">
  <g>
    <g>
      <path style="fill:#FF0000;fill-opacity:1" d="M29.35546875,0L30.791015625,0.5712890625 31.376953125,2.08007788658142 31.0400390625,3.2666015625 30.3369140625,3.92578125 29.6337890625,4.99511671066284 29.381103515625,5.965576171875 29.296875,7.44140625 29.296875,15.64453125 28.7548828125,16.845703125 27.3046875,17.138671875 25.814208984375,17.113037109375 25.1513671875,17.0361328125 24.638671875,16.6845703125 24.0234375,16.0693359375 23.02734375,15.17578125 22.177734375,14.53125 21.2109375,13.9453125 19.9951171875,13.564453125 18.017578125,13.447265625 9.638671875,13.447265625 6.98730421066284,13.9599609375 5.47851514816284,15.322265625 4.95117139816284,17.138671875 5.17822217941284,18.7060565948486 5.85937452316284,19.716796875 7.11181545257568,20.2661151885986 9.052734375,20.44921875 22.705078125,20.44921875 23.9208984375,21.005859375 24.287109375,22.587890625 23.935546875,24.2431640625 23.4887676239014,24.9133319854736 22.8515625,25.13671875 9.052734375,25.13671875 7.51464796066284,25.4736328125 6.21093702316284,26.484375 5.30273389816284,27.94921875 4.95117139816284,29.326171875 4.95117139816284,33.22265625 5.41992139816284,35.7421875 6.11205959320068,36.7529296875 7.25097608566284,37.67578125 8.81469535827637,38.3349609375 10.78125,38.5546875 18.984375,38.5546875 20.9033203125,38.4228515625 22.91015625,37.8515625 24.2578125,36.591796875 24.7265625,34.62890625 24.7265625,32.080078125 24.3310546875,30.087890625 23.6975078582764,29.5166015625 22.587890625,29.326171875 21.03515625,29.736328125 20.4418926239014,30.263671875 20.244140625,31.025390625 20.771484375,31.318359375 21.9140625,31.5966796875 23.056640625,32.34375 23.4521465301514,33.0908203125 23.583984375,34.27734375 22.91015625,36.240234375 22.0385723114014,36.85546875 20.771484375,37.060546875 19.2041015625,36.7236328125 18.1494140625,35.8154296875 17.548828125,34.541015625 17.34375,33.046875 17.724609375,30.439453125 18.8671875,28.41796875 20.9179668426514,27.12158203125 24.0234375,26.689453125 25.8837890625,26.9091796875 27.568359375,27.626953125 28.8134765625,28.916015625 29.296875,30.849609375 29.296875,36.62109375 29.1796875,37.8662109375 28.6083984375,39.140625 27.216796875,40.576171875 25.0634765625,41.6748046875 22.529296875,42.216796875 20.0390625,42.36328125 8.994140625,42.36328125 6.10839796066284,42.041015625 3.69140577316284,41.0595703125 1.74316358566284,39.3896484375 0.4541015625,36.9287109375 0,33.544921875 0,28.095703125 0.3515625,26.6162109375 1.27441358566284,25.13671875 2.54882764816284,23.8916015625 3.98437452316284,23.02734375 2.08007764816284,22.1630859375 0.849609375,20.6396484375 0.1904296875,18.80859375 0,17.021484375 0.52734375,14.1796875 1.90429639816284,12.041015625 3.89648389816284,10.5908203125 6.50390577316284,9.66796875 8.17382717132568,9.404296875 10.25390625,9.31640625 18.310546875,9.31640625 20.185546875,9.5654296875 22.001953125,10.1806640625 23.583984375,10.986328125 24.7265625,11.865234375 24.7265625,5.06835889816284 25.0048828125,2.578125 25.83984375,1.0107421875 26.9970703125,0.2197265625 27.886962890625,0.0549345016479492 29.35546875,0z" />
    </g>
  </g>
</svg>