<?xml version="1.0" encoding="utf-8"?>
<!DOCTYPE svg PUBLIC "-//W3C//DTD SVG 1.1//EN" "http://www.w3.org/Graphics/SVG/1.1/DTD/svg11.dtd">
<svg width="32.2265625000021" height="42.333984375" xmlns="http://www.w3.org/2000/svg" xmlns:xlink="http://www.w3.org/1999/xlink" xmlns:xml="http://www.w3.org/XML/1998/namespace" version="1.1">
  <g>
    <g>
      <path style="fill:#FF0000;fill-opacity:1" d="M29.53125,0L30.8935546875,0.351565390825272 31.34765625,1.40625023841858 31.34765625,4.306640625 31.23046875,5.6396484375 30.79833984375,6.771240234375 29.736328125,8.203125 27.7734375,9.64599609375 24.638671875,10.810546875 10.78125,14.47265625 8.115234375,15.380859375 6.298828125,16.8310546875 5.2587890625,19.3798828125 5.006103515625,21.2292499542236 4.921875,23.583984375 4.921875,32.490234375 5.20751953125,34.8193359375 6.064453125,36.357421875 7.50732326507568,37.236328125 9.55078125,37.587890625 12.041015625,37.587890625 17.1240234375,37.4267578125 19.6838359832764,37.174072265625 22.646484375,36.796875 19.658203125,35.2734375 17.40234375,32.9736328125 16.11328125,30.29296875 15.673828125,27.3046875 16.142578125,24.19921875 17.724609375,21.2255859375 20.4931640625,19.0283203125 22.3498516082764,18.4021015167236 24.609375,18.193359375 27.22412109375,18.6035175323486 29.326171875,19.833984375 30.791015625,21.4672870635986 31.494140625,23.0859375 31.73583984375,24.4921894073486 31.81640625,25.48828125 31.7431640625,27.008056640625 31.5234375,28.1103515625 30.703125,29.70703125 29.267578125,30.849609375 27.392578125,31.2890625 26.25,31.07666015625 25.283203125,30.439453125 24.6240215301514,29.501953125 24.404296875,28.388671875 24.6057109832764,27.147216796875 25.2099609375,26.0595703125 26.085205078125,25.3015155792236 27.099609375,25.048828125 27.626953125,25.0927734375 28.125,25.13671875 28.388671875,24.66796875 28.154296875,23.6059589385986 27.451171875,22.763671875 25.283203125,22.03125 22.79296875,22.6171875 21.3720703125,24.0380859375 20.7275390625,25.7666015625 20.56640625,27.861328125 20.8300762176514,29.61181640625 21.62109375,31.46484375 24.287109375,34.5703125 27.7587890625,36.5185546875 31.2890625,37.265625 31.9921875,38.1298828125 32.2265625,39.55078125 31.787109375,41.103515625 30.673828125,42.333984375 27.3046875,41.6455078125 23.876953125,41.279296875 7.44140625,42.158203125 4.833984375,41.7333984375 2.841796875,40.6787109375 1.42089891433716,39.2724609375 0.424805164337158,37.5146484375 0.106200873851776,35.987548828125 0,33.369140625 0,23.203125 0.2490234375,19.658203125 0.7763671875,17.1533203125 1.5380859375,15.322265625 2.75390625,13.5791015625 4.4091796875,12.158203125 6.416015625,11.2060546875 7.99072170257568,10.740966796875 10.546875,10.078125 20.888671875,7.44140625 23.1005840301514,6.80419921875 24.462890625,6.298828125 26.0595703125,5.21484327316284 26.71875,3.427734375 26.71875,1.75781226158142 27.0703125,0.4833984375 27.861328125,0.120852470397949 29.53125,0z" />
    </g>
  </g>
</svg>