<?xml version="1.0" encoding="utf-8"?>
<!DOCTYPE svg PUBLIC "-//W3C//DTD SVG 1.1//EN" "http://www.w3.org/Graphics/SVG/1.1/DTD/svg11.dtd">
<svg width="37.32421875" height="57.36328125" xmlns="http://www.w3.org/2000/svg" xmlns:xlink="http://www.w3.org/1999/xlink" xmlns:xml="http://www.w3.org/XML/1998/namespace" version="1.1">
  <g>
    <g>
      <path style="fill:#FF0000;fill-opacity:1" d="M18.662109375,15.3515625L23.3056621551514,15.765380859375 27.216796875,17.0068359375 30.435791015625,18.958740234375 33.0029296875,21.50390625 34.94384765625,24.583740234375 36.2841796875,28.1396484375 37.064208984375,32.047119140625 37.32421875,36.181640625 37.32421875,57.36328125 32.40234375,57.36328125 32.40234375,36.181640625 31.669921875,30.0146484375 30.71044921875,27.2790546417236 29.296875,24.90234375 27.4108867645264,22.935791015625 25.0341796875,21.4306640625 22.1301250457764,20.474853515625 18.662109375,20.15625 15.150146484375,20.474853515625 12.2314453125,21.4306640625 9.85839748382568,22.935791015625 7.9833984375,24.90234375 6.58447265625,27.2790546417236 5.6396484375,30.0146484375 4.921875,36.181640625 4.921875,57.36328125 0,57.36328125 0,36.181640625 0.260009795427322,32.047119140625 1.04003930091858,28.1396484375 2.38037109375,24.583740234375 4.3212890625,21.50390625 6.888427734375,18.958740234375 10.107421875,17.0068359375 14.0185546875,15.765380859375 18.662109375,15.3515625z M18.69140625,2.9296875L17.4169921875,3.19335961341858 16.376953125,3.89648413658142 15.673828125,4.9365234375 15.41015625,6.2109375 15.673828125,7.48535203933716 16.376953125,8.525390625 17.4169921875,9.228515625 18.69140625,9.4921875 19.9658203125,9.228515625 21.005859375,8.525390625 21.708984375,7.48535203933716 21.97265625,6.2109375 21.708984375,4.9365234375 21.005859375,3.89648413658142 19.9658203125,3.19335961341858 18.69140625,2.9296875z M18.662109375,0L21.0498046875,0.4833984375 23.0419921875,1.80175828933716 24.404296875,3.74999976158142 24.90234375,6.12304735183716 24.404296875,8.525390625 23.0419921875,10.5322265625 21.0498046875,11.9091796875 18.662109375,12.421875 16.2744140625,11.9091796875 14.3115234375,10.5322265625 12.978515625,8.525390625 12.48046875,6.12304735183716 12.978515625,3.74999976158142 14.3115234375,1.80175828933716 16.2744140625,0.4833984375 18.662109375,0z" />
    </g>
  </g>
</svg>