<?xml version="1.0" encoding="utf-8"?>
<!DOCTYPE svg PUBLIC "-//W3C//DTD SVG 1.1//EN" "http://www.w3.org/Graphics/SVG/1.1/DTD/svg11.dtd">
<svg width="42.8906250000005" height="54.43359375" xmlns="http://www.w3.org/2000/svg" xmlns:xlink="http://www.w3.org/1999/xlink" xmlns:xml="http://www.w3.org/XML/1998/namespace" version="1.1">
  <g>
    <g>
      <path style="fill:#FF0000;fill-opacity:1" d="M5.68359375,20.009765625L5.68359375,46.845703125 32.900390625,33.427734375 5.68359375,20.009765625z M0.878906011581421,12.421875L42.890625,33.134765625 42.890625,33.720703125 0.878906011581421,54.43359375 0.878906011581421,12.421875z M21.884765625,8.61328125L23.1591796875,8.876953125 24.19921875,9.580078125 24.90234375,10.6201171875 25.166015625,11.89453125 24.90234375,13.1689453125 24.19921875,14.208984375 23.1591796875,14.912109375 21.884765625,15.17578125 20.6103515625,14.912109375 19.5703125,14.208984375 18.8671875,13.1689453125 18.603515625,11.89453125 18.8671875,10.6201171875 19.5703125,9.580078125 20.6103515625,8.876953125 21.884765625,8.61328125z M3.28124928474426,0L4.55566310882568,0.263672113418579 5.59570217132568,0.966797113418579 6.298828125,2.00683617591858 6.5625,3.28125023841858 6.298828125,4.55566453933716 5.59570217132568,5.59570360183716 4.55566310882568,6.29882764816284 3.28124928474426,6.5625 2.00683522224426,6.29882764816284 0.966797113418579,5.59570360183716 0.263671875,4.55566453933716 0,3.28125023841858 0.263671875,2.00683617591858 0.966797113418579,0.966797113418579 2.00683522224426,0.263672113418579 3.28124928474426,0z" />
    </g>
  </g>
</svg>