<?xml version="1.0" encoding="utf-8"?>
<!DOCTYPE svg PUBLIC "-//W3C//DTD SVG 1.1//EN" "http://www.w3.org/Graphics/SVG/1.1/DTD/svg11.dtd">
<svg width="37.3242187500001" height="42.01171875" xmlns="http://www.w3.org/2000/svg" xmlns:xlink="http://www.w3.org/1999/xlink" xmlns:xml="http://www.w3.org/XML/1998/namespace" version="1.1">
  <g>
    <g>
      <path style="fill:#FF0000;fill-opacity:1" d="M18.662109375,0L23.3056621551514,0.413818359375 27.216796875,1.6552734375 30.435791015625,3.607177734375 33.0029296875,6.15234375 34.94384765625,9.23217868804932 36.2841796875,12.7880859375 37.064208984375,16.6955585479736 37.32421875,20.830078125 37.32421875,42.01171875 32.40234375,42.01171875 32.40234375,20.830078125 31.669921875,14.6630859375 30.71044921875,11.9274921417236 29.296875,9.55078125 27.4108867645264,7.584228515625 25.0341796875,6.0791015625 22.1301250457764,5.123291015625 18.662109375,4.8046875 15.150146484375,5.123291015625 12.2314453125,6.0791015625 9.85839748382568,7.584228515625 7.9833984375,9.55078125 6.58447265625,11.9274921417236 5.6396484375,14.6630859375 4.921875,20.830078125 4.921875,42.01171875 0,42.01171875 0,20.830078125 0.260009557008743,16.6955585479736 1.04003882408142,12.7880859375 2.38037085533142,9.23217868804932 4.32128810882568,6.15234375 6.888427734375,3.607177734375 10.107421875,1.6552734375 14.0185546875,0.413818359375 18.662109375,0z" />
    </g>
  </g>
</svg>