<?xml version="1.0" encoding="utf-8"?>
<!DOCTYPE svg PUBLIC "-//W3C//DTD SVG 1.1//EN" "http://www.w3.org/Graphics/SVG/1.1/DTD/svg11.dtd">
<svg width="29.296875" height="21.005859375" xmlns="http://www.w3.org/2000/svg" xmlns:xlink="http://www.w3.org/1999/xlink" xmlns:xml="http://www.w3.org/XML/1998/namespace" version="1.1">
  <g>
    <g>
      <path style="fill:#FF0000;fill-opacity:1" d="M0,0L3.6328125,0 3.6328125,11.630859375 3.8671875,14.0625 4.6435546875,15.966796875 6.064453125,17.197265625 8.232421875,17.63671875 10.400390625,17.2119140625 11.8212890625,16.0107421875 12.59765625,14.12109375 12.83203125,11.630859375 12.83203125,0 16.46484375,0 16.46484375,11.630859375 16.7138671875,14.12109375 17.5048828125,16.0107421875 18.92578125,17.2119140625 21.064453125,17.63671875 23.232421875,17.2119140625 24.6533203125,16.0107421875 25.4296875,14.12109375 25.6640625,11.630859375 25.6640625,0 29.296875,0 29.296875,11.630859375 28.7255859375,15.46875 27.0849609375,18.427734375 24.4921875,20.33203125 21.064453125,21.005859375 19.075927734375,20.80810546875 17.3291015625,20.21484375 14.6484375,17.958984375 11.953125,20.21484375 10.2172842025757,20.80810546875 8.232421875,21.005859375 4.8046875,20.33203125 2.2119140625,18.427734375 0.5712890625,15.46875 0,11.630859375 0,0z" />
    </g>
  </g>
</svg>