<?xml version="1.0" encoding="utf-8"?>
<!DOCTYPE svg PUBLIC "-//W3C//DTD SVG 1.1//EN" "http://www.w3.org/Graphics/SVG/1.1/DTD/svg11.dtd">
<svg width="42.01171875" height="42.01171875" xmlns="http://www.w3.org/2000/svg" xmlns:xlink="http://www.w3.org/1999/xlink" xmlns:xml="http://www.w3.org/XML/1998/namespace" version="1.1">
  <g>
    <g>
      <path style="fill:#FF0000;fill-opacity:1" d="M0,0L21.181640625,0 25.3161602020264,0.3076171875 29.2236328125,1.23046875 32.779541015625,2.7978515625 35.859375,5.0390625 38.404541015625,7.965087890625 40.3564453125,11.5869140625 41.597900390625,15.9265155792236 42.01171875,21.005859375 41.597900390625,26.0595703125 40.3564453125,30.380859375 38.404541015625,33.99169921875 35.859375,36.9140625 32.779541015625,39.16259765625 29.2236328125,40.751953125 25.3161602020264,41.69677734375 21.181640625,42.01171875 0,42.01171875 0,37.08984375 21.181640625,37.08984375 24.3493633270264,36.859130859375 27.3486328125,36.1669921875 30.084228515625,34.98779296875 32.4609375,33.2958984375 34.427490234375,31.072998046875 35.9326171875,28.30078125 36.888427734375,24.95361328125 37.20703125,21.005859375 36.888427734375,17.1057147979736 35.9326171875,13.7841796875 34.427490234375,11.0156269073486 32.4609375,8.7744140625 30.084228515625,7.056884765625 27.3486328125,5.859375 24.3493633270264,5.15625 21.181640625,4.921875 0,4.921875 0,0z" />
    </g>
  </g>
</svg>