<?xml version="1.0" encoding="utf-8"?>
<!DOCTYPE svg PUBLIC "-//W3C//DTD SVG 1.1//EN" "http://www.w3.org/Graphics/SVG/1.1/DTD/svg11.dtd">
<svg width="25.927734375" height="57.36328125" xmlns="http://www.w3.org/2000/svg" xmlns:xlink="http://www.w3.org/1999/xlink" xmlns:xml="http://www.w3.org/XML/1998/namespace" version="1.1">
  <g>
    <g>
      <path style="fill:#FF0000;fill-opacity:1" d="M12.94921875,15.3515625L15.5419921875,15.60791015625 17.98828125,16.376953125 22.119140625,19.16015625 24.90234375,23.291015625 25.6713848114014,25.7373046875 25.927734375,28.330078125 25.927734375,30.99609375 21.005859375,30.99609375 21.005859375,28.330078125 20.390625,25.1220703125 18.69140625,22.5732421875 16.142578125,20.888671875 13.0078125,20.2734375 9.873046875,20.888671875 7.3095703125,22.5732421875 5.56640625,25.1220703125 4.921875,28.330078125 4.921875,57.36328125 0,57.36328125 0,28.330078125 0.252685487270355,25.7373046875 1.01074171066284,23.291015625 3.77929639816284,19.16015625 7.8955078125,16.376953125 10.3381338119507,15.60791015625 12.94921875,15.3515625z M12.94921875,2.9296875L11.6748046875,3.19335961341858 10.634765625,3.89648413658142 9.931640625,4.9365234375 9.66796875,6.2109375 9.931640625,7.48535203933716 10.634765625,8.525390625 11.6748046875,9.228515625 12.94921875,9.4921875 14.2236328125,9.228515625 15.263671875,8.525390625 15.966796875,7.48535203933716 16.23046875,6.2109375 15.966796875,4.9365234375 15.263671875,3.89648413658142 14.2236328125,3.19335961341858 12.94921875,2.9296875z M12.919921875,0L15.3076171875,0.4833984375 17.2998046875,1.80175828933716 18.662109375,3.74999976158142 19.16015625,6.12304735183716 18.662109375,8.525390625 17.2998046875,10.5322265625 15.3076171875,11.9091796875 12.919921875,12.421875 10.5322265625,11.9091796875 8.5693359375,10.5322265625 7.236328125,8.525390625 6.73828125,6.12304735183716 7.236328125,3.74999976158142 8.5693359375,1.80175828933716 10.5322265625,0.4833984375 12.919921875,0z" />
    </g>
  </g>
</svg>