<?xml version="1.0" encoding="utf-8"?>
<!DOCTYPE svg PUBLIC "-//W3C//DTD SVG 1.1//EN" "http://www.w3.org/Graphics/SVG/1.1/DTD/svg11.dtd">
<svg width="35.4199218750003" height="42.01171875" xmlns="http://www.w3.org/2000/svg" xmlns:xlink="http://www.w3.org/1999/xlink" xmlns:xml="http://www.w3.org/XML/1998/namespace" version="1.1">
  <g>
    <g>
      <path style="fill:#FF0000;fill-opacity:1" d="M3.28124952316284,17.724609375L4.55566358566284,17.98828125 5.59570360183716,18.69140625 6.29882764816284,19.7314453125 6.5625,21.005859375 6.29882764816284,22.2802734375 5.59570360183716,23.3203125 4.55566358566284,24.0234375 3.28124952316284,24.287109375 2.00683569908142,24.0234375 0.966796696186066,23.3203125 0.263671636581421,22.2802734375 0,21.005859375 0.263671636581421,19.7314453125 0.966796696186066,18.69140625 2.00683569908142,17.98828125 3.28124952316284,17.724609375z M22.44140625,0L25.0341777801514,0.25634765625 27.48046875,1.025390625 31.611328125,3.80859375 34.39453125,7.939453125 35.16357421875,10.3857431411743 35.419921875,12.978515625 35.419921875,15.64453125 30.498046875,15.64453125 30.498046875,12.978515625 29.8828125,9.7705078125 28.18359375,7.2216796875 25.634765625,5.537109375 22.5,4.921875 19.365234375,5.537109375 16.8017578125,7.2216796875 15.05859375,9.7705078125 14.4140625,12.978515625 14.4140625,42.01171875 9.4921875,42.01171875 9.4921875,12.978515625 9.744873046875,10.3857431411743 10.5029296875,7.939453125 13.271484375,3.80859375 17.3876953125,1.025390625 19.830322265625,0.25634765625 22.44140625,0z" />
    </g>
  </g>
</svg>