<?xml version="1.0" encoding="utf-8"?>
<!DOCTYPE svg PUBLIC "-//W3C//DTD SVG 1.1//EN" "http://www.w3.org/Graphics/SVG/1.1/DTD/svg11.dtd">
<svg width="25.927734375" height="42.01171875" xmlns="http://www.w3.org/2000/svg" xmlns:xlink="http://www.w3.org/1999/xlink" xmlns:xml="http://www.w3.org/XML/1998/namespace" version="1.1">
  <g>
    <g>
      <path style="fill:#FF0000;fill-opacity:1" d="M12.919921875,4.921875L9.78515625,5.537109375 7.236328125,7.2216796875 5.537109375,9.7705078125 4.921875,12.978515625 5.537109375,16.142578125 7.236328125,18.69140625 9.78515625,20.390625 12.919921875,21.005859375 21.005859375,21.005859375 21.005859375,12.978515625 20.361328125,9.7705078125 18.6181640625,7.2216796875 16.0546875,5.537109375 12.919921875,4.921875z M12.978515625,0L15.567626953125,0.25634765625 18.0029296875,1.025390625 22.119140625,3.80859375 24.90234375,7.939453125 25.6713848114014,10.3857431411743 25.927734375,12.978515625 25.927734375,42.01171875 21.005859375,42.01171875 21.005859375,25.927734375 12.978515625,25.927734375 10.3674306869507,25.675048828125 7.9248046875,24.9169921875 3.80859375,22.1484375 1.025390625,18.0322265625 0.25634765625,15.5896015167236 0,12.978515625 0.25634765625,10.3857431411743 1.025390625,7.939453125 3.80859375,3.80859375 7.9248046875,1.025390625 10.3674306869507,0.25634765625 12.978515625,0z" />
    </g>
  </g>
</svg>