<?xml version="1.0" encoding="utf-8"?>
<!DOCTYPE svg PUBLIC "-//W3C//DTD SVG 1.1//EN" "http://www.w3.org/Graphics/SVG/1.1/DTD/svg11.dtd">
<svg width="12.94921875" height="21.005859375" xmlns="http://www.w3.org/2000/svg" xmlns:xlink="http://www.w3.org/1999/xlink" xmlns:xml="http://www.w3.org/XML/1998/namespace" version="1.1">
  <g>
    <g>
      <path style="fill:#FF0000;fill-opacity:1" d="M3.6328125,11.689453125L3.6328125,14.53125 3.7646484375,15.498046875 4.2333984375,16.4208984375 5.1123046875,17.109375 6.50390625,17.373046875 7.6318359375,17.138671875 8.525390625,16.5087890625 9.111328125,15.6005859375 9.31640625,14.53125 9.111328125,13.4619140625 8.525390625,12.5537109375 7.6318359375,11.923828125 6.50390625,11.689453125 3.6328125,11.689453125z M0,0L3.6328125,0 3.6328125,8.056640625 6.474609375,8.056640625 8.994140625,8.5693359375 11.044921875,9.9609375 12.4365234375,12.01171875 12.94921875,14.53125 12.4365234375,17.05078125 11.044921875,19.1015625 8.994140625,20.4931640625 6.474609375,21.005859375 3.955078125,20.4931640625 1.904296875,19.1015625 0.5126953125,17.05078125 0,14.53125 0,0z" />
    </g>
  </g>
</svg>