<?xml version="1.0" encoding="utf-8"?>
<!DOCTYPE svg PUBLIC "-//W3C//DTD SVG 1.1//EN" "http://www.w3.org/Graphics/SVG/1.1/DTD/svg11.dtd">
<svg width="46.81640625" height="42.01171875" xmlns="http://www.w3.org/2000/svg" xmlns:xlink="http://www.w3.org/1999/xlink" xmlns:xml="http://www.w3.org/XML/1998/namespace" version="1.1">
  <g>
    <g>
      <path style="fill:#FF0000;fill-opacity:1" d="M3.28125,17.724609375L4.55566453933716,17.98828125 5.595703125,18.69140625 6.298828125,19.7314453125 6.5625,21.005859375 6.298828125,22.2802734375 5.595703125,23.3203125 4.55566453933716,24.0234375 3.28125,24.287109375 2.0068359375,24.0234375 0.966797113418579,23.3203125 0.26367199420929,22.2802734375 0,21.005859375 0.26367199420929,19.7314453125 0.966797113418579,18.69140625 2.0068359375,17.98828125 3.28125,17.724609375z M9.4921875,0L14.4140625,0 14.4140625,21.181640625 15.146484375,27.3486328125 16.10595703125,30.084228515625 17.51953125,32.4609375 19.405517578125,34.427490234375 21.7822265625,35.9326171875 24.6862773895264,36.888427734375 28.154296875,37.20703125 31.666259765625,36.888427734375 34.5849609375,35.9326171875 36.9580078125,34.427490234375 38.8330078125,32.4609375 40.23193359375,30.084228515625 41.1767578125,27.3486328125 41.89453125,21.181640625 41.89453125,0 46.81640625,0 46.81640625,21.181640625 46.556396484375,25.316162109375 45.7763671875,29.2236328125 44.43603515625,32.779541015625 42.4951171875,35.859375 39.927978515625,38.404541015625 36.708984375,40.3564453125 32.7978515625,41.597900390625 28.154296875,42.01171875 23.5107421875,41.597900390625 19.599609375,40.3564453125 16.380615234375,38.404541015625 13.8134765625,35.859375 11.87255859375,32.779541015625 10.5322265625,29.2236328125 9.752197265625,25.316162109375 9.4921875,21.181640625 9.4921875,0z" />
    </g>
  </g>
</svg>