<?xml version="1.0" encoding="utf-8"?>
<!DOCTYPE svg PUBLIC "-//W3C//DTD SVG 1.1//EN" "http://www.w3.org/Graphics/SVG/1.1/DTD/svg11.dtd">
<svg width="46.81640625" height="54.43359375" xmlns="http://www.w3.org/2000/svg" xmlns:xlink="http://www.w3.org/1999/xlink" xmlns:xml="http://www.w3.org/XML/1998/namespace" version="1.1">
  <g>
    <g>
      <path style="fill:#FF0000;fill-opacity:1" d="M3.28125023841858,30.146484375L4.55566453933716,30.41015625 5.59570360183716,31.11328125 6.29882860183716,32.1533203125 6.56250095367432,33.427734375 6.29882860183716,34.7021484375 5.59570360183716,35.7421875 4.55566453933716,36.4453125 3.28125023841858,36.708984375 2.00683617591858,36.4453125 0.96679699420929,35.7421875 0.263671964406967,34.7021484375 0,33.427734375 0.263671964406967,32.1533203125 0.96679699420929,31.11328125 2.00683617591858,30.41015625 3.28125023841858,30.146484375z M28.154296875,12.421875L32.7978515625,12.835693359375 36.708984375,14.0771484375 39.927978515625,16.029052734375 42.4951171875,18.57421875 44.43603515625,21.654052734375 45.7763671875,25.2099609375 46.556396484375,29.1174335479736 46.81640625,33.251953125 46.81640625,54.43359375 41.89453125,54.43359375 41.89453125,33.251953125 41.162109375,27.0849609375 40.20263671875,24.3493671417236 38.7890625,21.97265625 36.903076171875,20.006103515625 34.5263671875,18.5009765625 31.622314453125,17.545166015625 28.154296875,17.2265625 24.6423320770264,17.545166015625 21.7236328125,18.5009765625 19.3505859375,20.006103515625 17.4755859375,21.97265625 16.07666015625,24.3493671417236 15.1318359375,27.0849609375 14.4140625,33.251953125 14.4140625,54.43359375 9.4921875,54.43359375 9.4921875,33.251953125 9.752197265625,29.1174335479736 10.5322265625,25.2099609375 11.87255859375,21.654052734375 13.8134765625,18.57421875 16.380615234375,16.029052734375 19.599609375,14.0771484375 23.5107421875,12.835693359375 28.154296875,12.421875z M28.154296875,0L29.4287109375,0.263672113418579 30.46875,0.966797113418579 31.171875,2.00683617591858 31.435546875,3.28125023841858 31.171875,4.55566453933716 30.46875,5.59570360183716 29.4287109375,6.29882764816284 28.154296875,6.5625 26.8798828125,6.29882764816284 25.83984375,5.59570360183716 25.13671875,4.55566453933716 24.873046875,3.28125023841858 25.13671875,2.00683617591858 25.83984375,0.966797113418579 26.8798828125,0.263672113418579 28.154296875,0z" />
    </g>
  </g>
</svg>