<?xml version="1.0" encoding="utf-8"?>
<!DOCTYPE svg PUBLIC "-//W3C//DTD SVG 1.1//EN" "http://www.w3.org/Graphics/SVG/1.1/DTD/svg11.dtd">
<svg width="51.50390625" height="25.927734375" xmlns="http://www.w3.org/2000/svg" xmlns:xlink="http://www.w3.org/1999/xlink" xmlns:xml="http://www.w3.org/XML/1998/namespace" version="1.1">
  <g>
    <g>
      <path style="fill:#FF0000;fill-opacity:1" d="M21.005859375,4.921875L21.005859375,13.0078125 21.62109375,16.142578125 23.3203125,18.69140625 25.869140625,20.390625 29.033203125,21.005859375 32.2412109375,20.390625 34.7900390625,18.69140625 36.474609375,16.142578125 37.08984375,13.0078125 36.474609375,9.873046875 34.7900390625,7.3095703125 32.2412109375,5.56640625 29.033203125,4.921875 21.005859375,4.921875z M48.22265625,1.640625L49.4970703125,1.904296875 50.537109375,2.607421875 51.240234375,3.6474609375 51.50390625,4.921875 51.240234375,6.1962890625 50.537109375,7.236328125 49.4970703125,7.939453125 48.22265625,8.203125 46.9482421875,7.939453125 45.908203125,7.236328125 45.205078125,6.1962890625 44.94140625,4.921875 45.205078125,3.6474609375 45.908203125,2.607421875 46.9482421875,1.904296875 48.22265625,1.640625z M0,0L29.033203125,0 31.6259765625,0.256349086761475 34.072265625,1.025390625 38.203125,3.80859375 40.986328125,7.9248046875 41.75537109375,10.360107421875 42.01171875,12.94921875 41.75537109375,15.560302734375 40.986328125,18.0029296875 38.203125,22.119140625 34.072265625,24.90234375 31.6259765625,25.67138671875 29.033203125,25.927734375 26.4221172332764,25.67138671875 23.9794921875,24.90234375 19.86328125,22.119140625 17.0947265625,18.0029296875 16.336669921875,15.560302734375 16.083984375,12.94921875 16.083984375,4.921875 0,4.921875 0,0z" />
    </g>
  </g>
</svg>