<?xml version="1.0" encoding="utf-8"?>
<!DOCTYPE svg PUBLIC "-//W3C//DTD SVG 1.1//EN" "http://www.w3.org/Graphics/SVG/1.1/DTD/svg11.dtd">
<svg width="12.94921875" height="21.005859375" xmlns="http://www.w3.org/2000/svg" xmlns:xlink="http://www.w3.org/1999/xlink" xmlns:xml="http://www.w3.org/XML/1998/namespace" version="1.1">
  <g>
    <g>
      <path style="fill:#FF0000;fill-opacity:1" d="M4.98046875,15.5859375L4.04296875,15.966796875 3.6328125,16.93359375 4.0283203125,17.8857421875 4.98046875,18.251953125 5.9033203125,17.87109375 6.298828125,16.93359375 5.9033203125,15.9814453125 4.98046875,15.5859375z M9.31640625,0L12.94921875,0 12.94921875,10.576171875 10.546875,10.576171875 8.935546875,10.6640625 7.353515625,11.0009765625 5.947265625,11.6748046875 4.833984375,12.7734375 6.4599609375,13.095703125 7.822265625,13.974609375 8.759765625,15.263671875 9.111328125,16.81640625 8.7890625,18.4130859375 7.8662109375,19.74609375 6.416015625,20.6689453125 4.541015625,21.005859375 2.783203125,20.6689453125 1.34765625,19.6728515625 0.3662109375,18.076171875 0,15.9375 0.556640625,12.890625 2.255859375,10.107421875 5.15625,7.998046875 9.31640625,6.943359375 9.31640625,0z" />
    </g>
  </g>
</svg>