<?xml version="1.0" encoding="utf-8"?>
<!DOCTYPE svg PUBLIC "-//W3C//DTD SVG 1.1//EN" "http://www.w3.org/Graphics/SVG/1.1/DTD/svg11.dtd">
<svg width="51.50390625" height="38.349609375" xmlns="http://www.w3.org/2000/svg" xmlns:xlink="http://www.w3.org/1999/xlink" xmlns:xml="http://www.w3.org/XML/1998/namespace" version="1.1">
  <g>
    <g>
      <path style="fill:#FF0000;fill-opacity:1" d="M48.22265625,14.0625L49.4970703125,14.326171875 50.537109375,15.029296875 51.240234375,16.0693359375 51.50390625,17.34375 51.240234375,18.6181640625 50.537109375,19.658203125 49.4970703125,20.361328125 48.22265625,20.625 46.9482421875,20.361328125 45.908203125,19.658203125 45.205078125,18.6181640625 44.94140625,17.34375 45.205078125,16.0693359375 45.908203125,15.029296875 46.9482421875,14.326171875 48.22265625,14.0625z M12.978515625,12.421875L42.01171875,12.421875 42.01171875,17.34375 12.978515625,17.34375 9.7705078125,17.98828125 7.2216796875,19.7314453125 5.537109375,22.294921875 4.921875,25.4296875 5.537109375,28.564453125 7.2216796875,31.11328125 9.7705078125,32.8125 12.978515625,33.427734375 15.64453125,33.427734375 15.64453125,38.349609375 12.978515625,38.349609375 10.3674306869507,38.09326171875 7.9248046875,37.32421875 3.80859375,34.541015625 1.02539110183716,30.4248046875 0.256347715854645,27.982177734375 0,25.37109375 0.256347715854645,22.781982421875 1.02539110183716,20.3466796875 3.80859375,16.23046875 7.9248046875,13.447265625 10.3674306869507,12.6782245635986 12.978515625,12.421875z M12.94921875,0L14.2236328125,0.263671875 15.263671875,0.966796875 15.966796875,2.0068359375 16.23046875,3.28125 15.966796875,4.5556640625 15.263671875,5.595703125 14.2236328125,6.298828125 12.94921875,6.5625 11.6748046875,6.298828125 10.634765625,5.595703125 9.931640625,4.5556640625 9.66796875,3.28125 9.931640625,2.0068359375 10.634765625,0.966796875 11.6748046875,0.263671875 12.94921875,0z" />
    </g>
  </g>
</svg>