<?xml version="1.0" encoding="utf-8"?>
<!DOCTYPE svg PUBLIC "-//W3C//DTD SVG 1.1//EN" "http://www.w3.org/Graphics/SVG/1.1/DTD/svg11.dtd">
<svg width="51.50390625" height="38.349609375" xmlns="http://www.w3.org/2000/svg" xmlns:xlink="http://www.w3.org/1999/xlink" xmlns:xml="http://www.w3.org/XML/1998/namespace" version="1.1">
  <g>
    <g>
      <path style="fill:#FF0000;fill-opacity:1" d="M48.22265625,14.0625L49.4970703125,14.326171875 50.537109375,15.029296875 51.240234375,16.0693359375 51.50390625,17.34375 51.240234375,18.6181640625 50.537109375,19.658203125 49.4970703125,20.361328125 48.22265625,20.625 46.9482421875,20.361328125 45.908203125,19.658203125 45.205078125,18.6181640625 44.94140625,17.34375 45.205078125,16.0693359375 45.908203125,15.029296875 46.9482421875,14.326171875 48.22265625,14.0625z M26.3671875,12.421875L29.033203125,12.421875 31.6259765625,12.6782245635986 34.072265625,13.447265625 38.203125,16.23046875 40.986328125,20.361328125 41.75537109375,22.8076171875 42.01171875,25.400390625 41.75537109375,28.011474609375 40.986328125,30.4541015625 38.203125,34.5703125 34.072265625,37.3388671875 31.6259765625,38.096923828125 29.033203125,38.349609375 0,38.349609375 0,33.427734375 29.033203125,33.427734375 32.2412109375,32.783203125 34.7900390625,31.0400390625 36.474609375,28.4765625 37.08984375,25.341796875 36.474609375,22.20703125 34.7900390625,19.658203125 32.2412109375,17.958984375 29.033203125,17.34375 26.3671875,17.34375 26.3671875,12.421875z M29.033203125,0L30.3076171875,0.263671875 31.34765625,0.966796875 32.05078125,2.0068359375 32.314453125,3.28125 32.05078125,4.5556640625 31.34765625,5.595703125 30.3076171875,6.298828125 29.033203125,6.5625 27.7587890625,6.298828125 26.71875,5.595703125 26.015625,4.5556640625 25.751953125,3.28125 26.015625,2.0068359375 26.71875,0.966796875 27.7587890625,0.263671875 29.033203125,0z" />
    </g>
  </g>
</svg>