<?xml version="1.0" encoding="utf-8"?>
<!DOCTYPE svg PUBLIC "-//W3C//DTD SVG 1.1//EN" "http://www.w3.org/Graphics/SVG/1.1/DTD/svg11.dtd">
<svg width="32.958984375" height="54.43359375" xmlns="http://www.w3.org/2000/svg" xmlns:xlink="http://www.w3.org/1999/xlink" xmlns:xml="http://www.w3.org/XML/1998/namespace" version="1.1">
  <g>
    <g>
      <path style="fill:#FF0000;fill-opacity:1" d="M29.677734375,30.146484375L30.9521484375,30.41015625 31.9921875,31.11328125 32.6953125,32.1533203125 32.958984375,33.427734375 32.6953125,34.7021484375 31.9921875,35.7421875 30.9521484375,36.4453125 29.677734375,36.708984375 28.4033203125,36.4453125 27.36328125,35.7421875 26.66015625,34.7021484375 26.396484375,33.427734375 26.66015625,32.1533203125 27.36328125,31.11328125 28.4033203125,30.41015625 29.677734375,30.146484375z M18.544921875,12.421875L23.466796875,12.421875 23.466796875,17.40234375 23.1921367645264,21.3134765625 22.3681640625,25.01953125 20.9765605926514,28.4179706573486 18.9990234375,31.40625 16.4208984375,33.9404296875 13.2275390625,35.9765625 9.40063285827637,37.412109375 4.92187452316284,38.14453125 4.92187452316284,54.43359375 0,54.43359375 0,33.427734375 2.46093702316284,33.427734375 6.36108350753784,33.109130859375 9.6826171875,32.1533203125 12.4511709213257,30.648193359375 14.6923828125,28.681640625 16.409912109375,26.3049335479736 17.607421875,23.5693359375 18.310546875,20.570068359375 18.544921875,17.40234375 18.544921875,12.421875z M21.005859375,0L22.2802734375,0.263672113418579 23.3203125,0.966797113418579 24.0234375,2.00683617591858 24.287109375,3.28125023841858 24.0234375,4.55566453933716 23.3203125,5.59570360183716 22.2802734375,6.29882764816284 21.005859375,6.5625 19.7314453125,6.29882764816284 18.69140625,5.59570360183716 17.98828125,4.55566453933716 17.724609375,3.28125023841858 17.98828125,2.00683617591858 18.69140625,0.966797113418579 19.7314453125,0.263672113418579 21.005859375,0z" />
    </g>
  </g>
</svg>