<?xml version="1.0" encoding="utf-8"?>
<!DOCTYPE svg PUBLIC "-//W3C//DTD SVG 1.1//EN" "http://www.w3.org/Graphics/SVG/1.1/DTD/svg11.dtd">
<svg width="42.01171875" height="38.349609375" xmlns="http://www.w3.org/2000/svg" xmlns:xlink="http://www.w3.org/1999/xlink" xmlns:xml="http://www.w3.org/XML/1998/namespace" version="1.1">
  <g>
    <g>
      <path style="fill:#FF0000;fill-opacity:1" d="M12.978515625,12.421875L15.64453125,12.421875 15.64453125,17.34375 12.978515625,17.34375 9.7705078125,17.958984375 7.2216796875,19.658203125 5.537109375,22.20703125 4.921875,25.341796875 5.537109375,28.4765625 7.2216796875,31.0400390625 9.7705078125,32.783203125 12.978515625,33.427734375 42.01171875,33.427734375 42.01171875,38.349609375 12.978515625,38.349609375 10.3674306869507,38.096923828125 7.9248046875,37.3388671875 3.80859375,34.5703125 1.025390625,30.4541015625 0.25634765625,28.011474609375 0,25.400390625 0.25634765625,22.8076171875 1.025390625,20.361328125 3.80859375,16.23046875 7.9248046875,13.447265625 10.3674306869507,12.6782245635986 12.978515625,12.421875z M12.94921875,0L14.2236328125,0.263671875 15.263671875,0.966796875 15.966796875,2.0068359375 16.23046875,3.28125 15.966796875,4.5556640625 15.263671875,5.595703125 14.2236328125,6.298828125 12.94921875,6.5625 11.6748046875,6.298828125 10.634765625,5.595703125 9.931640625,4.5556640625 9.66796875,3.28125 9.931640625,2.0068359375 10.634765625,0.966796875 11.6748046875,0.263671875 12.94921875,0z" />
    </g>
  </g>
</svg>