<?xml version="1.0" encoding="utf-8"?>
<!DOCTYPE svg PUBLIC "-//W3C//DTD SVG 1.1//EN" "http://www.w3.org/Graphics/SVG/1.1/DTD/svg11.dtd">
<svg width="42.01171875" height="41.279296875" xmlns="http://www.w3.org/2000/svg" xmlns:xlink="http://www.w3.org/1999/xlink" xmlns:xml="http://www.w3.org/XML/1998/namespace" version="1.1">
  <g>
    <g>
      <path style="fill:#FF0000;fill-opacity:1" d="M12.978515625,15.3515625L42.01171875,15.3515625 42.01171875,20.2734375 12.978515625,20.2734375 9.7705078125,20.91796875 7.2216796875,22.6611328125 5.537109375,25.224609375 4.921875,28.359375 5.537109375,31.494140625 7.2216796875,34.04296875 9.7705078125,35.7421875 12.978515625,36.357421875 15.64453125,36.357421875 15.64453125,41.279296875 12.978515625,41.279296875 10.3674306869507,41.02294921875 7.9248046875,40.25390625 3.80859375,37.470703125 1.025390625,33.3544921875 0.25634765625,30.911865234375 0,28.30078125 0.25634765625,25.711669921875 1.025390625,23.2763671875 3.80859375,19.16015625 7.9248046875,16.376953125 10.3674306869507,15.6079120635986 12.978515625,15.3515625z M12.94921875,2.9296875L11.6748046875,3.193359375 10.634765625,3.896484375 9.931640625,4.9365234375 9.66796875,6.2109375 9.931640625,7.4853515625 10.634765625,8.525390625 11.6748046875,9.228515625 12.94921875,9.4921875 14.2236328125,9.228515625 15.263671875,8.525390625 15.966796875,7.4853515625 16.23046875,6.2109375 15.966796875,4.9365234375 15.263671875,3.896484375 14.2236328125,3.193359375 12.94921875,2.9296875z M12.919921875,0L15.3076171875,0.4833984375 17.2998046875,1.8017578125 18.662109375,3.75 19.16015625,6.123046875 18.662109375,8.525390625 17.2998046875,10.5322265625 15.3076171875,11.9091796875 12.919921875,12.421875 10.5322265625,11.9091796875 8.5693359375,10.5322265625 7.236328125,8.525390625 6.73828125,6.123046875 7.236328125,3.75 8.5693359375,1.8017578125 10.5322265625,0.4833984375 12.919921875,0z" />
    </g>
  </g>
</svg>