<?xml version="1.0" encoding="utf-8"?>
<!DOCTYPE svg PUBLIC "-//W3C//DTD SVG 1.1//EN" "http://www.w3.org/Graphics/SVG/1.1/DTD/svg11.dtd">
<svg width="51.50390625" height="25.927734375" xmlns="http://www.w3.org/2000/svg" xmlns:xlink="http://www.w3.org/1999/xlink" xmlns:xml="http://www.w3.org/XML/1998/namespace" version="1.1">
  <g>
    <g>
      <path style="fill:#FF0000;fill-opacity:1" d="M48.22265625,1.640625L49.4970703125,1.904296875 50.537109375,2.607421875 51.240234375,3.6474609375 51.50390625,4.921875 51.240234375,6.1962890625 50.537109375,7.236328125 49.4970703125,7.939453125 48.22265625,8.203125 46.9482421875,7.939453125 45.908203125,7.236328125 45.205078125,6.1962890625 44.94140625,4.921875 45.205078125,3.6474609375 45.908203125,2.607421875 46.9482421875,1.904296875 48.22265625,1.640625z M12.978515625,0L42.01171875,0 42.01171875,4.921875 12.978515625,4.921875 9.7705078125,5.56640625 7.2216796875,7.3095703125 5.537109375,9.873046875 4.921875,13.0078125 5.537109375,16.142578125 7.2216796875,18.69140625 9.7705078125,20.390625 12.978515625,21.005859375 15.64453125,21.005859375 15.64453125,25.927734375 12.978515625,25.927734375 10.3674306869507,25.67138671875 7.9248046875,24.90234375 3.80859375,22.119140625 1.02539110183716,18.0029296875 0.256347715854645,15.560302734375 0,12.94921875 0.256347715854645,10.360107421875 1.02539110183716,7.9248046875 3.80859375,3.80859375 7.9248046875,1.025390625 10.3674306869507,0.256349086761475 12.978515625,0z" />
    </g>
  </g>
</svg>