<?xml version="1.0" encoding="utf-8"?>
<!DOCTYPE svg PUBLIC "-//W3C//DTD SVG 1.1//EN" "http://www.w3.org/Graphics/SVG/1.1/DTD/svg11.dtd">
<svg width="29.033203125" height="54.43359375" xmlns="http://www.w3.org/2000/svg" xmlns:xlink="http://www.w3.org/1999/xlink" xmlns:xml="http://www.w3.org/XML/1998/namespace" version="1.1">
  <g>
    <g>
      <path style="fill:#FF0000;fill-opacity:1" d="M14.443359375,12.421875L29.033203125,12.421875 29.033203125,17.34375 14.443359375,17.34375 10.3125,18.017578125 7.32421875,19.9365234375 5.5224609375,22.91015625 4.92187452316284,26.748046875 5.5224609375,30.6005859375 7.32421875,33.5888671875 10.3125,35.5224609375 14.443359375,36.2109375 29.033203125,36.2109375 29.033203125,54.43359375 24.111328125,54.43359375 24.111328125,41.1328125 14.443359375,41.1328125 11.2719717025757,40.87646484375 8.4375,40.107421875 5.96923828125,38.86962890625 3.896484375,37.20703125 2.237548828125,35.137939453125 1.0107421875,32.6806640625 0.252685546875,29.8864765167236 0,26.806640625 0.252685546875,23.8659687042236 1.0107421875,21.1376953125 2.2412109375,18.687744140625 3.91113233566284,16.58203125 5.994873046875,14.853515625 8.466796875,13.53515625 11.2939443588257,12.7001953125 14.443359375,12.421875z M16.083984375,0L17.3583984375,0.263672113418579 18.3984375,0.966797113418579 19.1015625,2.00683617591858 19.365234375,3.28125023841858 19.1015625,4.55566453933716 18.3984375,5.59570360183716 17.3583984375,6.29882764816284 16.083984375,6.5625 14.8095703125,6.29882764816284 13.76953125,5.59570360183716 13.06640625,4.55566453933716 12.802734375,3.28125023841858 13.06640625,2.00683617591858 13.76953125,0.966797113418579 14.8095703125,0.263672113418579 16.083984375,0z" />
    </g>
  </g>
</svg>