<?xml version="1.0" encoding="utf-8"?>
<!DOCTYPE svg PUBLIC "-//W3C//DTD SVG 1.1//EN" "http://www.w3.org/Graphics/SVG/1.1/DTD/svg11.dtd">
<svg width="49.39453125" height="42.01171875" xmlns="http://www.w3.org/2000/svg" xmlns:xlink="http://www.w3.org/1999/xlink" xmlns:xml="http://www.w3.org/XML/1998/namespace" version="1.1">
  <g>
    <g>
      <path style="fill:#FF0000;fill-opacity:1" d="M3.28125023841858,17.724609375L4.5556640625,17.98828125 5.595703125,18.69140625 6.298828125,19.7314453125 6.56250047683716,21.005859375 6.298828125,22.2802734375 5.595703125,23.3203125 4.5556640625,24.0234375 3.28125023841858,24.287109375 2.00683569908142,24.0234375 0.966797113418579,23.3203125 0.263671576976776,22.2802734375 0,21.005859375 0.263671576976776,19.7314453125 0.966797113418579,18.69140625 2.00683569908142,17.98828125 3.28125023841858,17.724609375z M38.173828125,0L40.697021484375,0.25634765625 42.9345703125,1.025390625 46.46484375,3.80859375 48.6474609375,7.939453125 49.39453125,12.978515625 44.47265625,12.978515625 44.12109375,9.7705078125 43.0224609375,7.2216796875 41.0888671875,5.537109375 38.232421875,4.921875 35.3759765625,5.537109375 33.4130859375,7.2216796875 32.2705078125,9.7705078125 31.904296875,12.978515625 31.904296875,29.033203125 31.1572265625,34.0869140625 28.9892578125,38.203125 25.4736328125,40.986328125 23.236083984375,41.75537109375 20.712890625,42.01171875 18.17138671875,41.75537109375 15.9375,40.986328125 12.421875,38.203125 10.2392578125,34.0869140625 9.4921875,29.033203125 14.4140625,29.033203125 14.765625,32.2412109375 15.8642578125,34.7900390625 17.7978515625,36.474609375 20.654296875,37.08984375 23.5107421875,36.474609375 25.4736328125,34.7900390625 26.6162109375,32.2412109375 26.982421875,29.033203125 26.982421875,12.978515625 27.7294921875,7.939453125 29.8974609375,3.80859375 33.3984375,1.025390625 35.63232421875,0.25634765625 38.173828125,0z" />
    </g>
  </g>
</svg>