<?xml version="1.0" encoding="utf-8"?>
<!DOCTYPE svg PUBLIC "-//W3C//DTD SVG 1.1//EN" "http://www.w3.org/Graphics/SVG/1.1/DTD/svg11.dtd">
<svg width="32.9589843750011" height="54.43359375" xmlns="http://www.w3.org/2000/svg" xmlns:xlink="http://www.w3.org/1999/xlink" xmlns:xml="http://www.w3.org/XML/1998/namespace" version="1.1">
  <g>
    <g>
      <path style="fill:#FF0000;fill-opacity:1" d="M3.28124952316284,30.146484375L4.55566358566284,30.41015625 5.59570264816284,31.11328125 6.29882764816284,32.1533203125 6.56249952316284,33.427734375 6.29882764816284,34.7021484375 5.59570264816284,35.7421875 4.55566358566284,36.4453125 3.28124952316284,36.708984375 2.00683546066284,36.4453125 0.966796278953552,35.7421875 0.263671219348907,34.7021484375 0,33.427734375 0.263671219348907,32.1533203125 0.966796278953552,31.11328125 2.00683546066284,30.41015625 3.28124952316284,30.146484375z M9.4921875,12.421875L14.4140625,12.421875 14.4140625,28.623046875 32.958984375,28.623046875 32.958984375,28.916015625 15.87890625,54.43359375 11.953125,51.650390625 24.0234375,33.427734375 9.4921875,33.427734375 9.4921875,12.421875z M11.953125,0L13.2275390625,0.263672113418579 14.267578125,0.966797113418579 14.970703125,2.00683617591858 15.234375,3.28125023841858 14.970703125,4.55566453933716 14.267578125,5.59570360183716 13.2275390625,6.29882764816284 11.953125,6.5625 10.6787109375,6.29882764816284 9.638671875,5.59570360183716 8.935546875,4.55566453933716 8.671875,3.28125023841858 8.935546875,2.00683617591858 9.638671875,0.966797113418579 10.6787109375,0.263672113418579 11.953125,0z" />
    </g>
  </g>
</svg>