<?xml version="1.0" encoding="utf-8"?>
<!DOCTYPE svg PUBLIC "-//W3C//DTD SVG 1.1//EN" "http://www.w3.org/Graphics/SVG/1.1/DTD/svg11.dtd">
<svg width="38.61328125" height="42.01171875" xmlns="http://www.w3.org/2000/svg" xmlns:xlink="http://www.w3.org/1999/xlink" xmlns:xml="http://www.w3.org/XML/1998/namespace" version="1.1">
  <g>
    <g>
      <path style="fill:#FF0000;fill-opacity:1" d="M25.693359375,4.921875L22.55859375,5.537109375 19.9951171875,7.2216796875 18.251953125,9.7705078125 17.607421875,12.978515625 17.607421875,21.005859375 25.693359375,21.005859375 28.828125,20.390625 31.376953125,18.69140625 33.076171875,16.142578125 33.69140625,12.978515625 33.076171875,9.7705078125 31.376953125,7.2216796875 28.828125,5.537109375 25.693359375,4.921875z M25.634765625,0L28.2275390625,0.25634765625 30.673828125,1.025390625 34.8046875,3.80859375 37.587890625,7.939453125 38.35693359375,10.3857431411743 38.61328125,12.978515625 38.35693359375,15.5896015167236 37.587890625,18.0322265625 34.8046875,22.1484375 30.673828125,24.9169921875 28.2275390625,25.675048828125 25.634765625,25.927734375 17.607421875,25.927734375 17.607421875,42.01171875 12.685546875,42.01171875 0,29.384765625 3.48632788658142,25.927734375 12.685546875,35.068359375 12.685546875,12.978515625 12.9382314682007,10.3857431411743 13.6962890625,7.939453125 16.46484375,3.80859375 20.5810546875,1.025390625 23.0236797332764,0.25634765625 25.634765625,0z" />
    </g>
  </g>
</svg>