<?xml version="1.0" encoding="utf-8"?>
<!DOCTYPE svg PUBLIC "-//W3C//DTD SVG 1.1//EN" "http://www.w3.org/Graphics/SVG/1.1/DTD/svg11.dtd">
<svg width="49.39453125" height="54.43359375" xmlns="http://www.w3.org/2000/svg" xmlns:xlink="http://www.w3.org/1999/xlink" xmlns:xml="http://www.w3.org/XML/1998/namespace" version="1.1">
  <g>
    <g>
      <path style="fill:#FF0000;fill-opacity:1" d="M3.28125023841858,30.146484375L4.55566453933716,30.41015625 5.59570360183716,31.11328125 6.29882764816284,32.1533203125 6.5625,33.427734375 6.29882764816284,34.7021484375 5.59570360183716,35.7421875 4.55566453933716,36.4453125 3.28125023841858,36.708984375 2.00683617591858,36.4453125 0.966797113418579,35.7421875 0.26367199420929,34.7021484375 0,33.427734375 0.26367199420929,32.1533203125 0.966797113418579,31.11328125 2.00683617591858,30.41015625 3.28125023841858,30.146484375z M38.173828125,12.421875L40.697021484375,12.67822265625 42.9345703125,13.447265625 46.46484375,16.23046875 48.6474609375,20.361328125 49.39453125,25.400390625 44.47265625,25.400390625 44.12109375,22.1923828125 43.0224609375,19.6435546875 41.0888671875,17.958984375 38.232421875,17.34375 35.3759765625,17.958984375 33.4130859375,19.6435546875 32.2705078125,22.1923828125 31.904296875,25.400390625 31.904296875,41.455078125 31.1572265625,46.5087890625 28.9892578125,50.625 25.4736328125,53.408203125 23.236083984375,54.17724609375 20.712890625,54.43359375 18.17138671875,54.17724609375 15.9375,53.408203125 12.421875,50.625 10.2392578125,46.5087890625 9.4921875,41.455078125 14.4140625,41.455078125 14.765625,44.6630859375 15.8642578125,47.2119140625 17.7978515625,48.896484375 20.654296875,49.51171875 23.5107421875,48.896484375 25.4736328125,47.2119140625 26.6162109375,44.6630859375 26.982421875,41.455078125 26.982421875,25.400390625 27.7294921875,20.361328125 29.8974609375,16.23046875 33.3984375,13.447265625 35.63232421875,12.67822265625 38.173828125,12.421875z M38.173828125,0L39.4482421875,0.263672113418579 40.48828125,0.966797113418579 41.19140625,2.00683617591858 41.455078125,3.28125023841858 41.19140625,4.55566453933716 40.48828125,5.59570360183716 39.4482421875,6.29882764816284 38.173828125,6.5625 36.8994140625,6.29882764816284 35.859375,5.59570360183716 35.15625,4.55566453933716 34.892578125,3.28125023841858 35.15625,2.00683617591858 35.859375,0.966797113418579 36.8994140625,0.263672113418579 38.173828125,0z" />
    </g>
  </g>
</svg>