<?xml version="1.0" encoding="utf-8"?>
<!DOCTYPE svg PUBLIC "-//W3C//DTD SVG 1.1//EN" "http://www.w3.org/Graphics/SVG/1.1/DTD/svg11.dtd">
<svg width="37.3242187500001" height="42.01171875" xmlns="http://www.w3.org/2000/svg" xmlns:xlink="http://www.w3.org/1999/xlink" xmlns:xml="http://www.w3.org/XML/1998/namespace" version="1.1">
  <g>
    <g>
      <path style="fill:#FF0000;fill-opacity:1" d="M11.8359375,4.921875L9.2431640625,5.419921875 7.03125,6.826171875 5.4931640625,9.0087890625 4.921875,11.806640625 4.921875,18.662109375 11.8359375,18.662109375 14.326171875,18.134765625 16.5234375,16.6845703125 18.076171875,14.5166015625 18.662109375,11.806640625 18.076171875,9.0087890625 16.5380859375,6.826171875 14.35546875,5.419921875 11.8359375,4.921875z M11.77734375,0L14.0478515625,0.22705078125 16.23046875,0.908203125 19.9951171875,3.3984375 22.6025390625,7.1484375 23.3386211395264,9.39697360992432 23.583984375,11.806640625 23.3386211395264,14.2565937042236 22.6025390625,16.5087890625 19.9951171875,20.2294921875 16.23046875,22.6904296875 14.0478515625,23.360595703125 11.77734375,23.583984375 5.03906154632568,23.583984375 6.2109375,28.9306640625 8.6572265625,33.251953125 10.4663076400757,34.89990234375 12.7001953125,36.15234375 15.413818359375,36.943359375 18.662109375,37.20703125 22.2216777801514,36.888427734375 25.166015625,35.9326171875 27.5463848114014,34.427490234375 29.4140625,32.4609375 30.794677734375,30.084228515625 31.7138671875,27.3486328125 32.40234375,21.181640625 32.40234375,0 37.32421875,0 37.32421875,21.181640625 37.064208984375,25.316162109375 36.2841796875,29.2236328125 34.94384765625,32.779541015625 33.0029296875,35.859375 30.435791015625,38.404541015625 27.216796875,40.3564453125 23.3056621551514,41.597900390625 18.662109375,42.01171875 13.99658203125,41.597900390625 10.078125,40.3564453125 6.859130859375,38.404541015625 4.2919921875,35.859375 2.35473608970642,32.779541015625 1.025390625,29.2236328125 0.256347477436066,25.316162109375 0,21.181640625 0,11.806640625 0.245361119508743,9.40063571929932 0.981445074081421,7.1630859375 3.60351538658142,3.4130859375 7.3681640625,0.908203125 9.53246974945068,0.22705078125 11.77734375,0z" />
    </g>
  </g>
</svg>