<?xml version="1.0" encoding="utf-8"?>
<!DOCTYPE svg PUBLIC "-//W3C//DTD SVG 1.1//EN" "http://www.w3.org/Graphics/SVG/1.1/DTD/svg11.dtd">
<svg width="42.01171875" height="42.01171875" xmlns="http://www.w3.org/2000/svg" xmlns:xlink="http://www.w3.org/1999/xlink" xmlns:xml="http://www.w3.org/XML/1998/namespace" version="1.1">
  <g>
    <g>
      <path style="fill:#FF0000;fill-opacity:1" d="M21.005859375,18.544921875L42.01171875,18.544921875 42.01171875,23.466796875 21.005859375,23.466796875 21.005859375,18.544921875z M20.830078125,0L42.01171875,0 42.01171875,4.921875 20.830078125,4.921875 17.662353515625,5.152587890625 14.6630859375,5.8447265625 11.9274892807007,7.027587890625 9.55078125,8.73046875 7.584228515625,10.9606952667236 6.0791015625,13.7255859375 5.123291015625,17.0617694854736 4.8046875,21.005859375 5.123291015625,24.906005859375 6.0791015625,28.2275390625 7.584228515625,30.99609375 9.55078125,33.2373046875 11.9274892807007,34.954833984375 14.6630859375,36.15234375 17.662353515625,36.85546875 20.830078125,37.08984375 42.01171875,37.08984375 42.01171875,42.01171875 20.830078125,42.01171875 16.695556640625,41.7041015625 12.7880859375,40.78125 9.232177734375,39.2138671875 6.15234375,36.97265625 3.60717725753784,34.046630859375 1.6552734375,30.4248046875 0.413818359375,26.085205078125 0,21.005859375 0.413818359375,15.9704608917236 1.6552734375,11.6455078125 3.60717725753784,8.023681640625 6.15234375,5.09765625 9.232177734375,2.84912109375 12.7880859375,1.259765625 16.695556640625,0.31494140625 20.830078125,0z" />
    </g>
  </g>
</svg>