<?xml version="1.0" encoding="utf-8"?>
<!DOCTYPE svg PUBLIC "-//W3C//DTD SVG 1.1//EN" "http://www.w3.org/Graphics/SVG/1.1/DTD/svg11.dtd">
<svg width="32.9589843750011" height="54.43359375" xmlns="http://www.w3.org/2000/svg" xmlns:xlink="http://www.w3.org/1999/xlink" xmlns:xml="http://www.w3.org/XML/1998/namespace" version="1.1">
  <g>
    <g>
      <path style="fill:#FF0000;fill-opacity:1" d="M3.28124952316284,30.146484375L4.55566358566284,30.41015625 5.59570264816284,31.11328125 6.29882764816284,32.1533203125 6.56249952316284,33.427734375 6.29882764816284,34.7021484375 5.59570264816284,35.7421875 4.55566358566284,36.4453125 3.28124952316284,36.708984375 2.00683546066284,36.4453125 0.966796278953552,35.7421875 0.263671219348907,34.7021484375 0,33.427734375 0.263671219348907,32.1533203125 0.966796278953552,31.11328125 2.00683546066284,30.41015625 3.28124952316284,30.146484375z M15.87890625,12.421875L32.958984375,37.939453125 32.958984375,38.232421875 14.4140625,38.232421875 14.4140625,54.43359375 9.4921875,54.43359375 9.4921875,33.427734375 24.0234375,33.427734375 11.953125,15.205078125 15.87890625,12.421875z M13.916015625,0L15.1904296875,0.263672113418579 16.23046875,0.966797113418579 16.93359375,2.00683617591858 17.197265625,3.28125023841858 16.93359375,4.55566453933716 16.23046875,5.59570360183716 15.1904296875,6.29882764816284 13.916015625,6.5625 12.6416015625,6.29882764816284 11.6015625,5.59570360183716 10.8984375,4.55566453933716 10.634765625,3.28125023841858 10.8984375,2.00683617591858 11.6015625,0.966797113418579 12.6416015625,0.263672113418579 13.916015625,0z" />
    </g>
  </g>
</svg>