<?xml version="1.0" encoding="utf-8"?>
<!DOCTYPE svg PUBLIC "-//W3C//DTD SVG 1.1//EN" "http://www.w3.org/Graphics/SVG/1.1/DTD/svg11.dtd">
<svg width="42.0117187500001" height="54.43359375" xmlns="http://www.w3.org/2000/svg" xmlns:xlink="http://www.w3.org/1999/xlink" xmlns:xml="http://www.w3.org/XML/1998/namespace" version="1.1">
  <g>
    <g>
      <path style="fill:#FF0000;fill-opacity:1" d="M11.806640625,17.34375L9.0087890625,17.9150390625 6.826171875,19.453125 5.419921875,21.6650390625 4.92187404632568,24.2578125 5.419921875,26.77734375 6.826171875,28.9599609375 9.0087890625,30.498046875 11.806640625,31.083984375 14.501953125,30.498046875 16.6845703125,28.9453125 18.134765625,26.748046875 18.662109375,24.2578125 18.662109375,17.34375 11.806640625,17.34375z M11.806640625,12.421875L21.181640625,12.421875 25.3161602020264,12.7294921875 29.2236328125,13.65234375 32.779541015625,15.2197265625 35.859375,17.4609375 38.404541015625,20.386962890625 40.3564453125,24.0087890625 41.597900390625,28.3483905792236 42.01171875,33.427734375 41.597900390625,38.4814453125 40.3564453125,42.802734375 38.404541015625,46.41357421875 35.859375,49.3359375 32.779541015625,51.58447265625 29.2236328125,53.173828125 25.3161602020264,54.11865234375 21.181640625,54.43359375 0,54.43359375 0,49.51171875 21.181640625,49.51171875 24.3493633270264,49.281005859375 27.3486328125,48.5888671875 30.084228515625,47.40966796875 32.4609375,45.7177734375 34.427490234375,43.494873046875 35.9326171875,40.72265625 36.888427734375,37.37548828125 37.20703125,33.427734375 36.943359375,29.8608417510986 36.15234375,26.77734375 34.89990234375,24.1552753448486 33.251953125,21.97265625 31.2451171875,20.22216796875 28.916015625,18.896484375 26.3378887176514,17.98095703125 23.583984375,17.4609375 23.583984375,24.19921875 23.3605937957764,26.4697284698486 22.6904296875,28.65234375 20.2294921875,32.4169921875 16.5087890625,35.0244140625 14.256591796875,35.760498046875 11.806640625,36.005859375 9.37866115570068,35.760498046875 7.1337890625,35.0244140625 3.39843726158142,32.4169921875 0.908202886581421,28.65234375 0.227050572633743,26.4697284698486 0,24.19921875 0.227050572633743,21.954345703125 0.908202886581421,19.7900390625 3.41308522224426,16.025390625 7.1630859375,13.4033203125 9.40063381195068,12.667236328125 11.806640625,12.421875z M21.005859375,0L22.2802734375,0.263672113418579 23.3203125,0.966797113418579 24.0234375,2.00683617591858 24.287109375,3.28125023841858 24.0234375,4.55566453933716 23.3203125,5.59570360183716 22.2802734375,6.29882764816284 21.005859375,6.5625 19.7314453125,6.29882764816284 18.69140625,5.59570360183716 17.98828125,4.55566453933716 17.724609375,3.28125023841858 17.98828125,2.00683617591858 18.69140625,0.966797113418579 19.7314453125,0.263672113418579 21.005859375,0z" />
    </g>
  </g>
</svg>