<?xml version="1.0" encoding="utf-8"?>
<!DOCTYPE svg PUBLIC "-//W3C//DTD SVG 1.1//EN" "http://www.w3.org/Graphics/SVG/1.1/DTD/svg11.dtd">
<svg width="35.9765625" height="42.01171875" xmlns="http://www.w3.org/2000/svg" xmlns:xlink="http://www.w3.org/1999/xlink" xmlns:xml="http://www.w3.org/XML/1998/namespace" version="1.1">
  <g>
    <g>
      <path style="fill:#FF0000;fill-opacity:1" d="M9.990234375,4.716796875L7.9541015625,5.1123046875 6.2841796875,6.2109375 5.15625,7.8662109375 4.74609375,9.9609375 5.15625,12.0263671875 6.2841796875,13.681640625 7.9541015625,14.7802734375 9.990234375,15.17578125 12.01171875,14.7802734375 13.65234375,13.681640625 14.7509765625,12.01171875 15.146484375,9.931640625 14.7509765625,7.8662109375 13.65234375,6.2109375 12.01171875,5.1123046875 9.990234375,4.716796875z M9.9609375,0L11.9531240463257,0.194091796875 13.828125,0.7763671875 16.9921875,2.900390625 19.1162109375,6.064453125 19.698486328125,7.939453125 19.892578125,9.931640625 19.698486328125,11.9458026885986 19.1162109375,13.828125 16.9921875,16.9921875 13.828125,19.130859375 11.9531240463257,19.72412109375 9.9609375,19.921875 9.4482421875,19.921875 8.935546875,19.892578125 14.970703125,32.021484375 30.76171875,0 35.9765625,0 15.263671875,42.01171875 14.677734375,42.01171875 0.849609613418579,14.033203125 0.212402552366257,12.0703144073486 0,9.931640625 0.194092005491257,7.939453125 0.776367425918579,6.064453125 2.91503930091858,2.900390625 6.0791015625,0.7763671875 7.950439453125,0.194091796875 9.9609375,0z" />
    </g>
  </g>
</svg>