<?xml version="1.0" encoding="utf-8"?>
<!DOCTYPE svg PUBLIC "-//W3C//DTD SVG 1.1//EN" "http://www.w3.org/Graphics/SVG/1.1/DTD/svg11.dtd">
<svg width="29.033203125" height="42.01171875" xmlns="http://www.w3.org/2000/svg" xmlns:xlink="http://www.w3.org/1999/xlink" xmlns:xml="http://www.w3.org/XML/1998/namespace" version="1.1">
  <g>
    <g>
      <path style="fill:#FF0000;fill-opacity:1" d="M14.443359375,0L29.033203125,0 29.033203125,4.921875 14.443359375,4.921875 10.3125,5.595703125 7.32421875,7.5146484375 5.5224609375,10.48828125 4.92187547683716,14.326171875 5.5224609375,18.1787109375 7.32421875,21.1669921875 10.3125,23.1005859375 14.443359375,23.7890625 29.033203125,23.7890625 29.033203125,42.01171875 24.111328125,42.01171875 24.111328125,28.7109375 14.443359375,28.7109375 11.2719717025757,28.45458984375 8.4375,27.685546875 5.96923828125,26.44775390625 3.89648485183716,24.78515625 2.237548828125,22.716064453125 1.0107421875,20.2587890625 0.252685546875,17.4646015167236 0,14.384765625 0.252685546875,11.4440937042236 1.0107421875,8.7158203125 2.2412109375,6.265869140625 3.9111328125,4.16015625 5.994873046875,2.431640625 8.466796875,1.11328125 11.2939443588257,0.2783203125 14.443359375,0z" />
    </g>
  </g>
</svg>