<?xml version="1.0" encoding="utf-8"?>
<!DOCTYPE svg PUBLIC "-//W3C//DTD SVG 1.1//EN" "http://www.w3.org/Graphics/SVG/1.1/DTD/svg11.dtd">
<svg width="37.3242187500001" height="42.01171875" xmlns="http://www.w3.org/2000/svg" xmlns:xlink="http://www.w3.org/1999/xlink" xmlns:xml="http://www.w3.org/XML/1998/namespace" version="1.1">
  <g>
    <g>
      <path style="fill:#FF0000;fill-opacity:1" d="M18.662109375,21.005859375L20.643310546875,21.2109375 22.4853515625,21.826171875 25.546875,24.0673828125 27.568359375,27.4072265625 28.30078125,31.494140625 28.30078125,42.01171875 23.4375,42.01171875 23.4375,31.494140625 23.173828125,29.326171875 22.3388671875,27.5244140625 20.859375,26.279296875 18.662109375,25.810546875 16.4794921875,26.279296875 15.0146484375,27.5244140625 14.1796875,29.326171875 13.916015625,31.494140625 13.916015625,42.01171875 9.052734375,42.01171875 9.052734375,31.494140625 9.78515625,27.4072265625 11.806640625,24.0673828125 14.853515625,21.826171875 16.6845703125,21.2109375 18.662109375,21.005859375z M18.662109375,0L23.3056621551514,0.413818359375 27.216796875,1.6552734375 30.435791015625,3.607177734375 33.0029296875,6.15234375 34.94384765625,9.23217868804932 36.2841796875,12.7880859375 37.064208984375,16.6955585479736 37.32421875,20.830078125 37.32421875,42.01171875 32.40234375,42.01171875 32.40234375,20.830078125 31.6845703125,14.6630859375 30.73974609375,11.9274921417236 29.3408203125,9.55078125 27.4658184051514,7.584228515625 25.0927734375,6.0791015625 22.1740703582764,5.123291015625 18.662109375,4.8046875 15.194091796875,5.123291015625 12.2900390625,6.0791015625 9.91332912445068,7.584228515625 8.02734375,9.55078125 6.61376953125,11.9274921417236 5.654296875,14.6630859375 4.921875,20.830078125 4.921875,42.01171875 0,42.01171875 0,20.830078125 0.260009557008743,16.6955585479736 1.04003882408142,12.7880859375 2.38037085533142,9.23217868804932 4.32128810882568,6.15234375 6.888427734375,3.607177734375 10.107421875,1.6552734375 14.0185546875,0.413818359375 18.662109375,0z" />
    </g>
  </g>
</svg>