<?xml version="1.0" encoding="utf-8"?>
<!DOCTYPE svg PUBLIC "-//W3C//DTD SVG 1.1//EN" "http://www.w3.org/Graphics/SVG/1.1/DTD/svg11.dtd">
<svg width="42.0117187500001" height="54.43359375" xmlns="http://www.w3.org/2000/svg" xmlns:xlink="http://www.w3.org/1999/xlink" xmlns:xml="http://www.w3.org/XML/1998/namespace" version="1.1">
  <g>
    <g>
      <path style="fill:#FF0000;fill-opacity:1" d="M29.384765625,15.8203125L42.01171875,28.505859375 42.01171875,33.427734375 12.978515625,33.427734375 9.7705078125,34.072265625 7.2216796875,35.8154296875 5.537109375,38.37890625 4.92187404632568,41.513671875 5.537109375,44.6484375 7.2216796875,47.197265625 9.7705078125,48.896484375 12.978515625,49.51171875 15.64453125,49.51171875 15.64453125,54.43359375 12.978515625,54.43359375 10.3674306869507,54.17724609375 7.9248046875,53.408203125 3.80859351158142,50.625 1.02539014816284,46.5087890625 0.256347417831421,44.066162109375 0,41.455078125 0.256347417831421,38.865966796875 1.02539014816284,36.4306640625 3.80859351158142,32.314453125 7.9248046875,29.53125 10.3674306869507,28.7622089385986 12.978515625,28.505859375 35.068359375,28.505859375 25.927734375,19.306640625 29.384765625,15.8203125z M27.65625,0L28.9306640625,0.263672113418579 29.970703125,0.966797113418579 30.673828125,2.00683617591858 30.9375,3.28125023841858 30.673828125,4.55566453933716 29.970703125,5.59570360183716 28.9306640625,6.29882764816284 27.65625,6.5625 26.3818359375,6.29882764816284 25.341796875,5.59570360183716 24.638671875,4.55566453933716 24.375,3.28125023841858 24.638671875,2.00683617591858 25.341796875,0.966797113418579 26.3818359375,0.263672113418579 27.65625,0z" />
    </g>
  </g>
</svg>