<?xml version="1.0" encoding="utf-8"?>
<!DOCTYPE svg PUBLIC "-//W3C//DTD SVG 1.1//EN" "http://www.w3.org/Graphics/SVG/1.1/DTD/svg11.dtd">
<svg width="44.1796875" height="42.01171875" xmlns="http://www.w3.org/2000/svg" xmlns:xlink="http://www.w3.org/1999/xlink" xmlns:xml="http://www.w3.org/XML/1998/namespace" version="1.1">
  <g>
    <g>
      <path style="fill:#FF0000;fill-opacity:1" d="M6.474609375,3.6328125L5.4052734375,3.837890625 4.49707078933716,4.423828125 3.8671875,5.3173828125 3.63281297683716,6.4453125 3.89648485183716,7.8369140625 4.5849609375,8.7158203125 5.5078125,9.1845703125 6.474609375,9.31640625 9.31640625,9.31640625 9.31640625,6.4453125 9.08203125,5.3173828125 8.4521484375,4.423828125 7.5439453125,3.837890625 6.474609375,3.6328125z M39.2578125,0L44.1796875,0 44.1796875,29.033203125 43.92333984375,31.644287109375 43.154296875,34.0869140625 40.37109375,38.203125 36.2548828125,40.986328125 33.819580078125,41.75537109375 31.23046875,42.01171875 28.619384765625,41.75537109375 26.1767578125,40.986328125 22.060546875,38.203125 19.27734375,34.0869140625 18.50830078125,31.644287109375 18.251953125,29.033203125 18.251953125,26.3671875 23.173828125,26.3671875 23.173828125,29.033203125 23.7890625,32.2412109375 25.48828125,34.7900390625 28.037109375,36.474609375 31.171875,37.08984375 34.306640625,36.474609375 36.8701171875,34.7900390625 38.61328125,32.2412109375 39.2578125,29.033203125 39.2578125,0z M6.474609375,0L8.994140625,0.5126953125 11.044921875,1.904296875 12.4365234375,3.955078125 12.94921875,6.474609375 12.94921875,9.31640625 18.251953125,9.31640625 18.251953125,14.53125 18.3837890625,15.498046875 18.8525390625,16.4208984375 19.7314453125,17.109375 21.123046875,17.373046875 22.2509765625,17.138671875 23.14453125,16.5087890625 23.73046875,15.6005859375 23.935546875,14.53125 27.568359375,14.53125 27.0556640625,17.05078125 25.6640625,19.1015625 23.61328125,20.4931640625 21.09375,21.005859375 18.57421875,20.4931640625 16.5234375,19.1015625 15.1318359375,17.05078125 14.619140625,14.53125 14.619140625,12.94921875 6.474609375,12.94921875 3.95507764816284,12.4365234375 1.90429639816284,11.044921875 0.512695074081421,8.994140625 0,6.474609375 0.512695074081421,3.955078125 1.90429639816284,1.904296875 3.95507764816284,0.5126953125 6.474609375,0z" />
    </g>
  </g>
</svg>