<?xml version="1.0" encoding="utf-8"?>
<!DOCTYPE svg PUBLIC "-//W3C//DTD SVG 1.1//EN" "http://www.w3.org/Graphics/SVG/1.1/DTD/svg11.dtd">
<svg width="28.857421875" height="42.01171875" xmlns="http://www.w3.org/2000/svg" xmlns:xlink="http://www.w3.org/1999/xlink" xmlns:xml="http://www.w3.org/XML/1998/namespace" version="1.1">
  <g>
    <g>
      <path style="fill:#FF0000;fill-opacity:1" d="M23.935546875,0L28.857421875,0 28.857421875,42.01171875 23.935546875,42.01171875 23.935546875,5.478515625 21.005859375,7.529296875 21.005859375,15.322265625 20.80078125,17.4279804229736 20.185546875,19.4091796875 17.9443359375,22.7490234375 14.6044921875,24.990234375 12.623291015625,25.60546875 10.517578125,25.810546875 8.3935546875,25.60546875 6.416015625,24.990234375 3.07617211341858,22.7490234375 0.820312976837158,19.4091796875 0.205078363418579,17.4279804229736 0,15.322265625 0,4.8046875 4.86328125,4.8046875 4.86328125,15.322265625 5.2001953125,17.490234375 6.240234375,19.2919921875 8.0126953125,20.537109375 10.517578125,21.005859375 13.0078125,20.537109375 14.765625,19.2919921875 15.8056640625,17.490234375 16.142578125,15.322265625 16.142578125,4.8046875 23.935546875,0z" />
    </g>
  </g>
</svg>