<?xml version="1.0" encoding="utf-8"?>
<!DOCTYPE svg PUBLIC "-//W3C//DTD SVG 1.1//EN" "http://www.w3.org/Graphics/SVG/1.1/DTD/svg11.dtd">
<svg width="45" height="54.43359375" xmlns="http://www.w3.org/2000/svg" xmlns:xlink="http://www.w3.org/1999/xlink" xmlns:xml="http://www.w3.org/XML/1998/namespace" version="1.1">
  <g>
    <g>
      <path style="fill:#FF0000;fill-opacity:1" d="M6.474609375,16.0546875L5.4052734375,16.259765625 4.4970703125,16.845703125 3.86718726158142,17.7392578125 3.63281226158142,18.8671875 3.89648413658142,20.2587890625 4.5849609375,21.1376953125 5.5078125,21.6064453125 6.474609375,21.73828125 9.31640625,21.73828125 9.31640625,18.8671875 9.08203125,17.7392578125 8.4521484375,16.845703125 7.5439453125,16.259765625 6.474609375,16.0546875z M39.2578125,12.421875L44.1796875,12.421875 44.1796875,41.455078125 43.92333984375,44.066162109375 43.154296875,46.5087890625 40.37109375,50.625 36.2548828125,53.408203125 33.819580078125,54.17724609375 31.23046875,54.43359375 28.619384765625,54.17724609375 26.1767578125,53.408203125 22.060546875,50.625 19.27734375,46.5087890625 18.50830078125,44.066162109375 18.251953125,41.455078125 18.251953125,38.7890625 23.173828125,38.7890625 23.173828125,41.455078125 23.7890625,44.6630859375 25.48828125,47.2119140625 28.037109375,48.896484375 31.171875,49.51171875 34.306640625,48.896484375 36.8701171875,47.2119140625 38.61328125,44.6630859375 39.2578125,41.455078125 39.2578125,12.421875z M6.474609375,12.421875L8.994140625,12.9345703125 11.044921875,14.326171875 12.4365234375,16.376953125 12.94921875,18.896484375 12.94921875,21.73828125 18.251953125,21.73828125 18.251953125,26.953125 18.3837890625,27.919921875 18.8525390625,28.8427734375 19.7314453125,29.53125 21.123046875,29.794921875 22.2509765625,29.560546875 23.14453125,28.9306640625 23.73046875,28.0224609375 23.935546875,26.953125 27.568359375,26.953125 27.0556640625,29.47265625 25.6640625,31.5234375 23.61328125,32.9150390625 21.09375,33.427734375 18.57421875,32.9150390625 16.5234375,31.5234375 15.1318359375,29.47265625 14.619140625,26.953125 14.619140625,25.37109375 6.474609375,25.37109375 3.95507836341858,24.8583984375 1.90429711341858,23.466796875 0.512695789337158,21.416015625 0,18.896484375 0.512695789337158,16.376953125 1.90429711341858,14.326171875 3.95507836341858,12.9345703125 6.474609375,12.421875z M41.71875,0L42.9931640625,0.263672113418579 44.033203125,0.966797113418579 44.736328125,2.00683617591858 45,3.28125023841858 44.736328125,4.55566453933716 44.033203125,5.59570360183716 42.9931640625,6.29882764816284 41.71875,6.5625 40.4443359375,6.29882764816284 39.404296875,5.59570360183716 38.701171875,4.55566453933716 38.4375,3.28125023841858 38.701171875,2.00683617591858 39.404296875,0.966797113418579 40.4443359375,0.263672113418579 41.71875,0z" />
    </g>
  </g>
</svg>