<?xml version="1.0" encoding="utf-8"?>
<!DOCTYPE svg PUBLIC "-//W3C//DTD SVG 1.1//EN" "http://www.w3.org/Graphics/SVG/1.1/DTD/svg11.dtd">
<svg width="27.59765625" height="42.01171875" xmlns="http://www.w3.org/2000/svg" xmlns:xlink="http://www.w3.org/1999/xlink" xmlns:xml="http://www.w3.org/XML/1998/namespace" version="1.1">
  <g>
    <g>
      <path style="fill:#FF0000;fill-opacity:1" d="M18.076171875,0L18.076171875,4.921875 14.53857421875,5.244140625 11.42578125,5.91796875 8.994140625,6.85546875 6.8701171875,8.2470703125 5.3759765625,10.1953125 4.8046875,12.7734375 5.44921875,15.1904296875 7.1484375,16.8310546875 9.55078125,17.8564453125 12.3193359375,18.3837890625 15.1025390625,18.5888671875 17.548828125,18.6328125 27.59765625,18.6328125 27.59765625,23.5546875 17.548828125,23.5546875 15.1025390625,23.583984375 12.3193359375,23.7890625 9.55078125,24.31640625 7.1484375,25.3125 5.44921875,26.953125 4.8046875,29.384765625 5.5078125,32.28515625 7.3828125,34.365234375 10.048828125,35.7568359375 13.125,36.591796875 16.259765625,36.9873046875 19.04296875,37.08984375 21.6357421875,36.9580078125 24.43359375,36.6796875 27.59765625,36.240234375 27.59765625,41.337890625 24.31640625,41.689453125 21.50390625,41.923828125 19.04296875,42.01171875 14.959716796875,41.8212890625 11.2646484375,41.25 8.0126953125,40.29052734375 5.2587890625,38.935546875 3.03588891029358,37.174072265625 1.37695336341858,34.9951171875 0.344238489866257,32.398681640625 0,29.384765625 0.3955078125,26.3525390625 1.49414086341858,24.1259765625 3.17871165275574,22.4560546875 5.33203125,21.09375 3.17871165275574,19.7314453125 1.49414086341858,18.046875 0.3955078125,15.8056640625 0,12.7734375 0.194092005491257,10.5175790786743 0.776367425918579,8.5546875 2.82714867591858,5.4052734375 5.712890625,3.1494140625 9.0234375,1.611328125 13.27880859375,0.50537109375 18.076171875,0z" />
    </g>
  </g>
</svg>