<?xml version="1.0" encoding="utf-8"?>
<!DOCTYPE svg PUBLIC "-//W3C//DTD SVG 1.1//EN" "http://www.w3.org/Graphics/SVG/1.1/DTD/svg11.dtd">
<svg width="39.5214843750004" height="42.01171875" xmlns="http://www.w3.org/2000/svg" xmlns:xlink="http://www.w3.org/1999/xlink" xmlns:xml="http://www.w3.org/XML/1998/namespace" version="1.1">
  <g>
    <g>
      <path style="fill:#FF0000;fill-opacity:1" d="M19.6875,0L24.0087871551514,0.369873046875 27.890625,1.4794921875 31.285400390625,3.262939453125 34.1455078125,5.654296875 36.43798828125,8.616943359375 38.1298828125,12.1142578125 39.173583984375,16.0803241729736 39.521484375,20.44921875 39.2138671875,24.609375 38.3935546875,28.095703125 37.2216796875,30.966796875 35.888671875,33.251953125 34.18212890625,35.38330078125 32.28515625,37.08984375 39.521484375,37.08984375 39.521484375,42.01171875 26.66015625,42.01171875 26.66015625,37.08984375 28.7109375,35.36865234375 30.52734375,33.251953125 31.9482421875,30.99609375 33.193359375,28.1689453125 34.0869140625,24.7119140625 34.423828125,20.625 34.171142578125,17.3730487823486 33.4130859375,14.35546875 32.186279296875,11.6491718292236 30.52734375,9.3310546875 28.443603515625,7.437744140625 25.9423828125,6.005859375 23.0676250457764,5.10498046875 19.86328125,4.8046875 16.629638671875,5.101318359375 13.7255859375,5.9912109375 11.1914052963257,7.408447265625 9.0673828125,9.287109375 7.371826171875,11.5942401885986 6.123046875,14.296875 5.35400390625,17.3217792510986 5.09765625,20.595703125 5.4345703125,24.6826171875 6.3134765625,28.1396484375 7.55859375,30.9814453125 8.994140625,33.251953125 10.8178701400757,35.38330078125 12.890625,37.08984375 12.890625,42.01171875 0,42.01171875 0,37.08984375 7.265625,37.08984375 5.34667921066284,35.38330078125 3.63281226158142,33.251953125 2.29980444908142,30.966796875 1.12792944908142,28.095703125 0.3076171875,24.609375 0,20.478515625 0.351562350988388,16.1535663604736 1.40625023841858,12.2021484375 3.10180640220642,8.701171875 5.3759765625,5.7275390625 8.206787109375,3.31787109375 11.572265625,1.5087890625 15.41748046875,0.377197265625 19.6875,0z" />
    </g>
  </g>
</svg>