<?xml version="1.0" encoding="utf-8"?>
<!DOCTYPE svg PUBLIC "-//W3C//DTD SVG 1.1//EN" "http://www.w3.org/Graphics/SVG/1.1/DTD/svg11.dtd">
<svg width="42.01171875" height="32.548828125" xmlns="http://www.w3.org/2000/svg" xmlns:xlink="http://www.w3.org/1999/xlink" xmlns:xml="http://www.w3.org/XML/1998/namespace" version="1.1">
  <g>
    <g>
      <path style="fill:#FF0000;fill-opacity:1" d="M0,0L4.8046875,0 4.8046875,3.515625 18.22265625,3.515625 18.22265625,18.10546875 18.9111328125,22.236328125 20.8447265625,25.224609375 23.8330078125,27.0263671875 27.685546875,27.626953125 31.5234375,27.0263671875 34.4970703125,25.224609375 36.416015625,22.236328125 37.08984375,18.10546875 37.08984375,3.515625 42.01171875,3.515625 42.01171875,18.10546875 41.7333984375,21.2548828125 40.8984375,24.08203125 39.580078125,26.553955078125 37.8515625,28.6376953125 35.745849609375,30.3076171875 33.2958984375,31.5380859375 30.567626953125,32.296142578125 27.626953125,32.548828125 24.5471172332764,32.296142578125 21.7529296875,31.5380859375 19.295654296875,30.311279296875 17.2265625,28.65234375 15.56396484375,26.57958984375 14.326171875,24.111328125 13.55712890625,21.27685546875 13.30078125,18.10546875 13.30078125,8.4375 4.8046875,8.4375 4.8046875,12.216796875 0,12.216796875 0,0z" />
    </g>
  </g>
</svg>