<?xml version="1.0" encoding="utf-8"?>
<!DOCTYPE svg PUBLIC "-//W3C//DTD SVG 1.1//EN" "http://www.w3.org/Graphics/SVG/1.1/DTD/svg11.dtd">
<svg width="42.01171875" height="29.033203125" xmlns="http://www.w3.org/2000/svg" xmlns:xlink="http://www.w3.org/1999/xlink" xmlns:xml="http://www.w3.org/XML/1998/namespace" version="1.1">
  <g>
    <g>
      <path style="fill:#FF0000;fill-opacity:1" d="M14.384765625,0L17.464599609375,0.252686977386475 20.2587890625,1.0107421875 22.7160625457764,2.23755025863647 24.78515625,3.896484375 26.4477519989014,5.96923828125 27.685546875,8.4375 28.4545879364014,11.27197265625 28.7109375,14.443359375 28.7109375,24.111328125 42.01171875,24.111328125 42.01171875,29.033203125 23.7890625,29.033203125 23.7890625,14.443359375 23.1005859375,10.3125 21.1669921875,7.32421875 18.1787109375,5.5224609375 14.326171875,4.921875 10.48828125,5.5224609375 7.5146484375,7.32421875 5.595703125,10.3125 4.921875,14.443359375 4.921875,29.033203125 0,29.033203125 0,14.443359375 0.2783203125,11.2939453125 1.11328125,8.466796875 2.431640625,5.994873046875 4.16015625,3.9111328125 6.265869140625,2.24121236801147 8.7158203125,1.0107421875 11.4440908432007,0.252686977386475 14.384765625,0z" />
    </g>
  </g>
</svg>