<?xml version="1.0" encoding="utf-8"?>
<!DOCTYPE svg PUBLIC "-//W3C//DTD SVG 1.1//EN" "http://www.w3.org/Graphics/SVG/1.1/DTD/svg11.dtd">
<svg width="58.18359375" height="45.791015625" xmlns="http://www.w3.org/2000/svg" xmlns:xlink="http://www.w3.org/1999/xlink" xmlns:xml="http://www.w3.org/XML/1998/namespace" version="1.1">
  <g>
    <g>
      <path style="fill:#FF0000;fill-opacity:1" d="M22.294921875,0L25.458984375,0.3955078125 27.9931640625,1.494140625 29.9853515625,3.1787109375 31.494140625,5.33203125 33.0029296875,3.1787109375 34.9951171875,1.494140625 37.529296875,0.3955078125 40.693359375,0 43.780517578125,0.3955078125 46.5966796875,1.58203125 49.0869102478027,3.5302734375 51.1962890625,6.2109375 52.9028282165527,9.61670017242432 54.1845703125,13.740234375 54.9865684509277,18.55224609375 55.25390625,24.0234375 55.1843223571777,28.04443359375 54.9755859375,31.552734375 54.6789512634277,34.56298828125 54.345703125,37.08984375 58.18359375,37.08984375 58.18359375,42.01171875 48.544921875,42.01171875 49.0136680603027,39.8876953125 49.423828125,37.3828125 49.7387657165527,34.830322265625 50.0390625,31.7431640625 50.2587852478027,28.135986328125 50.33203125,24.0234375 49.7607421875,16.669921875 49.0356407165527,13.3959980010986 48.0029296875,10.546875 46.6589317321777,8.18115234375 45,6.357421875 43.0078125,5.19287109375 40.6640625,4.8046875 37.96875,5.44921875 36.1083984375,7.1337890625 34.9365234375,9.521484375 34.2919921875,12.2900390625 34.013671875,15.087890625 33.955078125,17.548828125 33.955078125,42.01171875 29.033203125,42.01171875 29.033203125,17.548828125 28.9892578125,15.1025390625 28.7548828125,12.3193359375 28.154296875,9.55078125 26.9970703125,7.1484375 25.1220703125,5.44921875 22.32421875,4.8046875 19.98046875,5.19287109375 17.98828125,6.357421875 16.329345703125,8.18115234375 14.9853515625,10.546875 13.95263671875,13.3959980010986 13.2275390625,16.669921875 12.65625,24.0234375 12.7258291244507,28.135986328125 12.9345703125,31.7431640625 13.223876953125,34.830322265625 13.53515625,37.3828125 13.95263671875,39.8876953125 14.443359375,42.01171875 4.8046875,42.01171875 4.8046875,45.791015625 0,45.791015625 0,33.57421875 4.8046875,33.57421875 4.8046875,37.08984375 8.642578125,37.08984375 8.32763671875,34.56298828125 8.02734375,31.552734375 7.8076171875,28.04443359375 7.734375,24.0234375 8.001708984375,18.55224609375 8.8037109375,13.740234375 10.0854482650757,9.61670017242432 11.7919921875,6.2109375 13.9013671875,3.5302734375 16.3916015625,1.58203125 19.207763671875,0.3955078125 22.294921875,0z" />
    </g>
  </g>
</svg>