<?xml version="1.0" encoding="utf-8"?>
<!DOCTYPE svg PUBLIC "-//W3C//DTD SVG 1.1//EN" "http://www.w3.org/Graphics/SVG/1.1/DTD/svg11.dtd">
<svg width="32.40234375" height="42.01171875" xmlns="http://www.w3.org/2000/svg" xmlns:xlink="http://www.w3.org/1999/xlink" xmlns:xml="http://www.w3.org/XML/1998/namespace" version="1.1">
  <g>
    <g>
      <path style="fill:#FF0000;fill-opacity:1" d="M12.12890625,4.921875L10.927734375,4.951171875 9.755859375,5.0390625 9.755859375,37.001953125 12.041015625,37.08984375 15.7470703125,36.6796875 19.3359375,35.4052734375 22.5732421875,33.2373046875 25.1953125,30.146484375 26.953125,26.07421875 27.59765625,21.005859375 27.2497539520264,17.1057147979736 26.2060546875,13.7841796875 24.6057109832764,11.0156269073486 22.587890625,8.7744140625 20.2294921875,7.056884765625 17.607421875,5.859375 14.86083984375,5.15625 12.12890625,4.921875z M12.12890625,0L15.8935546875,0.3076171875 19.5703125,1.23046875 23.0090312957764,2.794189453125 26.0595703125,5.0244140625 28.6376953125,7.939453125 30.6591796875,11.5576171875 31.966552734375,15.8972187042236 32.40234375,20.9765625 31.966552734375,26.077880859375 30.6591796875,30.4248046875 28.6376953125,34.046630859375 26.0595703125,36.97265625 23.0090312957764,39.2138671875 19.5703125,40.78125 15.8935546875,41.7041015625 12.12890625,42.01171875 8.7451171875,41.865234375 5.7275390625,41.4697265625 2.88574171066284,40.869140625 0,40.107421875 0,35.009765625 2.1533203125,35.5810546875 4.833984375,36.240234375 4.833984375,5.80078125 2.1533203125,6.4453125 0,7.001953125 0,1.904296875 2.88574171066284,1.142578125 5.7275390625,0.5419921875 8.7451171875,0.146484375 12.12890625,0z" />
    </g>
  </g>
</svg>