<?xml version="1.0" encoding="utf-8"?>
<!DOCTYPE svg PUBLIC "-//W3C//DTD SVG 1.1//EN" "http://www.w3.org/Graphics/SVG/1.1/DTD/svg11.dtd">
<svg width="73.0078125" height="54.43359375" xmlns="http://www.w3.org/2000/svg" xmlns:xlink="http://www.w3.org/1999/xlink" xmlns:xml="http://www.w3.org/XML/1998/namespace" version="1.1">
  <g>
    <g>
      <path style="fill:#FF0000;fill-opacity:1" d="M23.056640625,16.0546875L21.9873046875,16.259765625 21.0791015625,16.845703125 20.44921875,17.7392578125 20.21484375,18.8671875 20.478515625,20.2587890625 21.1669921875,21.1376953125 22.08984375,21.6064453125 23.056640625,21.73828125 25.8984375,21.73828125 25.8984375,18.8671875 25.6640625,17.7392578125 25.0341796875,16.845703125 24.1259765625,16.259765625 23.056640625,16.0546875z M6.474609375,16.0546875L5.40527248382568,16.259765625 4.4970703125,16.845703125 3.8671875,17.7392578125 3.63281202316284,18.8671875 3.896484375,20.2587890625 4.58496046066284,21.1376953125 5.50781154632568,21.6064453125 6.474609375,21.73828125 9.31640625,21.73828125 9.31640625,18.8671875 9.08203125,17.7392578125 8.4521484375,16.845703125 7.5439453125,16.259765625 6.474609375,16.0546875z M47.080078125,12.421875L52.001953125,12.421875 52.001953125,41.455078125 52.646484375,44.6630859375 54.3896484375,47.2119140625 56.953125,48.896484375 60.087890625,49.51171875 63.22265625,48.896484375 65.771484375,47.2119140625 67.470703125,44.6630859375 68.0859375,41.455078125 68.0859375,38.7890625 73.0078125,38.7890625 73.0078125,41.455078125 72.75146484375,44.066162109375 71.982421875,46.5087890625 69.19921875,50.625 65.068359375,53.408203125 62.6220703125,54.17724609375 60.029296875,54.43359375 57.4182090759277,54.17724609375 54.9755859375,53.408203125 50.859375,50.625 48.0908203125,46.5087890625 47.3327598571777,44.066162109375 47.080078125,41.455078125 47.080078125,12.421875z M6.474609375,12.421875L8.994140625,12.9345703125 11.044921875,14.326171875 12.4365224838257,16.376953125 12.9492197036743,18.896484375 12.9492197036743,21.73828125 17.2265625,21.73828125 16.58203125,18.896484375 17.0947265625,16.376953125 18.486328125,14.326171875 20.537109375,12.9345703125 23.056640625,12.421875 25.576171875,12.9345703125 27.626953125,14.326171875 29.0185546875,16.376953125 29.53125,18.896484375 29.53125,21.73828125 34.833984375,21.73828125 34.833984375,26.953125 34.9658203125,27.919921875 35.4345703125,28.8427734375 36.3134765625,29.53125 37.705078125,29.794921875 38.8330078125,29.560546875 39.7265625,28.9306640625 40.3125,28.0224609375 40.517578125,26.953125 44.150390625,26.953125 43.6376953125,29.47265625 42.24609375,31.5234375 40.1953125,32.9150390625 37.67578125,33.427734375 35.15625,32.9150390625 33.10546875,31.5234375 31.7138671875,29.47265625 31.201171875,26.953125 31.201171875,25.37109375 6.474609375,25.37109375 3.95507764816284,24.8583984375 1.904296875,23.466796875 0.512695074081421,21.416015625 0,18.896484375 0.512695074081421,16.376953125 1.904296875,14.326171875 3.95507764816284,12.9345703125 6.474609375,12.421875z M49.423828125,0L50.6982421875,0.263672351837158 51.73828125,0.966797113418579 52.44140625,2.0068359375 52.705078125,3.28125023841858 52.44140625,4.55566453933716 51.73828125,5.595703125 50.6982421875,6.298828125 49.423828125,6.56250047683716 48.1494140625,6.298828125 47.109375,5.595703125 46.40625,4.55566453933716 46.142578125,3.28125023841858 46.40625,2.0068359375 47.109375,0.966797113418579 48.1494140625,0.263672351837158 49.423828125,0z" />
    </g>
  </g>
</svg>