<?xml version="1.0" encoding="utf-8"?>
<!DOCTYPE svg PUBLIC "-//W3C//DTD SVG 1.1//EN" "http://www.w3.org/Graphics/SVG/1.1/DTD/svg11.dtd">
<svg width="42.01171875" height="42.01171875" xmlns="http://www.w3.org/2000/svg" xmlns:xlink="http://www.w3.org/1999/xlink" xmlns:xml="http://www.w3.org/XML/1998/namespace" version="1.1">
  <g>
    <g>
      <path style="fill:#FF0000;fill-opacity:1" d="M19.16015625,14.912109375L23.96484375,14.912109375 23.96484375,27.12890625 19.16015625,27.12890625 19.16015625,14.912109375z M0,13.271484375L3.6328125,13.271484375 3.6328125,19.3359375 13.974609375,19.3359375 13.974609375,22.96875 3.6328125,22.96875 3.6328125,29.00390625 0,29.00390625 0,13.271484375z M0,0L4.8046875,0 5.244140625,1.494140625 6.2841796875,2.5048828125 8.3203125,2.958984375 10.341796875,2.7392578125 12.275390625,2.197265625 14.23828125,1.4794921875 16.34765625,0.76171875 18.7353515625,0.2197265625 21.533203125,0 25.8581523895264,0.399169921875 29.8095703125,1.5966796875 33.310546875,3.497314453125 36.2841796875,6.005859375 38.69384765625,9.07837009429932 40.5029296875,12.6708984375 41.634521484375,16.6809101104736 42.01171875,21.005859375 41.634521484375,25.3271484375 40.5029296875,29.326171875 38.69384765625,32.90771484375 36.2841796875,35.9765625 33.310546875,38.48876953125 29.8095703125,40.400390625 25.8581523895264,41.60888671875 21.533203125,42.01171875 18.7353515625,41.7919921875 16.34765625,41.25 14.23828125,40.5322265625 12.275390625,39.814453125 10.341796875,39.2724609375 8.3203125,39.052734375 6.2841796875,39.521484375 5.244140625,40.546875 4.8046875,42.01171875 0,42.01171875 0.314941227436066,39.89501953125 1.025390625,37.998046875 2.00683546066284,36.533203125 3.486328125,35.244140625 5.537109375,34.3359375 8.26171875,33.984375 11.455078125,34.4384765625 14.3701171875,35.44921875 17.5341796875,36.4599609375 21.416015625,36.9140625 24.6899394989014,36.610107421875 27.71484375,35.6982421875 30.41748046875,34.25537109375 32.724609375,32.3583984375 34.603271484375,30.032958984375 36.0205078125,27.3046875 36.910400390625,24.25048828125 37.20703125,20.947265625 36.910400390625,17.6733417510986 36.0205078125,14.6484375 34.603271484375,11.9421405792236 32.724609375,9.6240234375 30.41748046875,7.730712890625 27.71484375,6.298828125 24.6899394989014,5.39794921875 21.416015625,5.09765625 17.5341796875,5.5517578125 14.3701171875,6.5625 11.455078125,7.5732421875 8.26171875,8.02734375 5.537109375,7.6904296875 3.486328125,6.7822265625 2.00683546066284,5.4931640625 1.025390625,4.013671875 0.314941227436066,2.13134765625 0,0z" />
    </g>
  </g>
</svg>