<?xml version="1.0" encoding="utf-8"?>
<!DOCTYPE svg PUBLIC "-//W3C//DTD SVG 1.1//EN" "http://www.w3.org/Graphics/SVG/1.1/DTD/svg11.dtd">
<svg width="36.62109375" height="42.01171875" xmlns="http://www.w3.org/2000/svg" xmlns:xlink="http://www.w3.org/1999/xlink" xmlns:xml="http://www.w3.org/XML/1998/namespace" version="1.1">
  <g>
    <g>
      <path style="fill:#FF0000;fill-opacity:1" d="M33.33984375,17.724609375L34.6142578125,17.98828125 35.654296875,18.69140625 36.357421875,19.7314453125 36.62109375,21.005859375 36.357421875,22.2802734375 35.654296875,23.3203125 34.6142578125,24.0234375 33.33984375,24.287109375 32.0654296875,24.0234375 31.025390625,23.3203125 30.322265625,22.2802734375 30.05859375,21.005859375 30.322265625,19.7314453125 31.025390625,18.69140625 32.0654296875,17.98828125 33.33984375,17.724609375z M10.048828125,0L27.12890625,25.517578125 27.12890625,25.810546875 8.583984375,25.810546875 8.583984375,29.443359375 19.658203125,29.443359375 19.658203125,34.248046875 8.583984375,34.248046875 8.583984375,42.01171875 3.66210985183716,42.01171875 3.66210985183716,34.248046875 0,34.248046875 0,29.443359375 3.66210985183716,29.443359375 3.66210985183716,21.005859375 18.193359375,21.005859375 6.123046875,2.783203125 10.048828125,0z" />
    </g>
  </g>
</svg>