<?xml version="1.0" encoding="utf-8"?>
<!DOCTYPE svg PUBLIC "-//W3C//DTD SVG 1.1//EN" "http://www.w3.org/Graphics/SVG/1.1/DTD/svg11.dtd">
<svg width="42.01171875" height="42.01171875" xmlns="http://www.w3.org/2000/svg" xmlns:xlink="http://www.w3.org/1999/xlink" xmlns:xml="http://www.w3.org/XML/1998/namespace" version="1.1">
  <g>
    <g>
      <path style="fill:#FF0000;fill-opacity:1" d="M20.478515625,0L23.2763671875,0.2197265625 25.6640625,0.76171875 27.7734375,1.4794921875 29.736328125,2.197265625 31.669921875,2.7392578125 33.69140625,2.958984375 35.7275390625,2.5048828125 36.767578125,1.494140625 37.20703125,0 42.01171875,0 41.69677734375,2.13134765625 40.986328125,4.013671875 40.0048828125,5.4931640625 38.525390625,6.7822265625 36.474609375,7.6904296875 33.75,8.02734375 30.556640625,7.5732421875 27.6416015625,6.5625 24.4775390625,5.5517578125 20.595703125,5.09765625 17.32177734375,5.39794921875 14.296875,6.298828125 11.5942373275757,7.730712890625 9.287109375,9.6240234375 7.408447265625,11.9421405792236 5.9912109375,14.6484375 5.101318359375,17.6733417510986 4.8046875,20.947265625 5.101318359375,24.25048828125 5.9912109375,27.3046875 7.408447265625,30.032958984375 9.287109375,32.3583984375 11.5942373275757,34.25537109375 14.296875,35.6982421875 17.32177734375,36.610107421875 20.595703125,36.9140625 24.4775390625,36.4599609375 27.6416015625,35.44921875 30.556640625,34.4384765625 33.75,33.984375 36.474609375,34.3359375 38.525390625,35.244140625 40.0048828125,36.533203125 40.986328125,37.998046875 41.69677734375,39.89501953125 42.01171875,42.01171875 37.20703125,42.01171875 36.767578125,40.546875 35.7275390625,39.521484375 33.69140625,39.052734375 31.669921875,39.2724609375 29.736328125,39.814453125 27.7734375,40.5322265625 25.6640625,41.25 23.2763671875,41.7919921875 20.478515625,42.01171875 16.153564453125,41.60888671875 12.2021484375,40.400390625 8.701171875,38.48876953125 5.7275390625,35.9765625 3.31787109375,32.90771484375 1.5087890625,29.326171875 0.377197265625,25.3271484375 0,21.005859375 0.377197265625,16.6809101104736 1.5087890625,12.6708984375 3.31787109375,9.07837009429932 5.7275390625,6.005859375 8.701171875,3.497314453125 12.2021484375,1.5966796875 16.153564453125,0.399169921875 20.478515625,0z" />
    </g>
  </g>
</svg>