<?xml version="1.0" encoding="utf-8"?>
<!DOCTYPE svg PUBLIC "-//W3C//DTD SVG 1.1//EN" "http://www.w3.org/Graphics/SVG/1.1/DTD/svg11.dtd">
<svg width="47.51953125" height="42.01171875" xmlns="http://www.w3.org/2000/svg" xmlns:xlink="http://www.w3.org/1999/xlink" xmlns:xml="http://www.w3.org/XML/1998/namespace" version="1.1">
  <g>
    <g>
      <path style="fill:#FF0000;fill-opacity:1" d="M12.861328125,0L16.5673828125,0.52734375 19.6728515625,1.93359375 22.1044921875,3.92578125 23.759765625,6.2109375 25.4443359375,3.92578125 27.890625,1.93359375 31.0107421875,0.52734375 34.716796875,0 37.30224609375,0.216064453125 39.7265625,0.8642578125 41.91650390625,2.0068359375 43.798828125,3.7060546875 45.3442344665527,5.987548828125 46.5234375,8.876953125 47.2705039978027,12.4292011260986 47.51953125,16.69921875 47.05078125,21.328125 46.0400390625,25.8837890625 45.029296875,30.1025390625 44.560546875,33.69140625 45.0146484375,35.7275390625 46.025390625,36.767578125 47.51953125,37.20703125 47.51953125,42.01171875 45.3881797790527,41.69677734375 43.505859375,40.986328125 42.0263671875,40.0048828125 40.7373046875,38.525390625 39.8291015625,36.474609375 39.4921875,33.75 39.9755859375,29.94140625 41.044921875,25.6787109375 42.1142578125,21.181640625 42.59765625,16.69921875 42.158203125,11.6455078125 40.7666015625,7.91015625 38.3056640625,5.595703125 36.646728515625,5.00244140625 34.6875,4.8046875 31.5087890625,5.44921875 29.2236328125,7.1484375 27.685546875,9.55078125 26.77734375,12.3193359375 26.337890625,15.1025390625 26.220703125,17.548828125 26.220703125,42.01171875 21.298828125,42.01171875 21.298828125,17.548828125 21.181640625,15.1025390625 20.7421875,12.3193359375 19.8486328125,9.55078125 18.33984375,7.1484375 16.0693359375,5.44921875 12.890625,4.8046875 10.9313955307007,5.00244140625 9.2724609375,5.595703125 6.796875,7.91015625 5.3759765625,11.6455078125 4.92187452316284,16.69921875 5.4052734375,21.181640625 6.474609375,25.6787109375 7.5439453125,29.94140625 8.02734375,33.75 7.67578125,36.474609375 6.767578125,38.525390625 5.478515625,40.0048828125 4.013671875,40.986328125 2.11669921875,41.69677734375 0,42.01171875 0,37.20703125 1.46484375,36.767578125 2.49023389816284,35.7275390625 2.958984375,33.69140625 2.49023389816284,30.1025390625 1.47949171066284,25.8837890625 0.468749761581421,21.328125 0,16.69921875 0.252685546875,12.4292011260986 1.0107421875,8.876953125 2.200927734375,5.987548828125 3.75000047683716,3.7060546875 5.63232421875,2.0068359375 7.822265625,0.8642578125 10.2539052963257,0.216064453125 12.861328125,0z" />
    </g>
  </g>
</svg>