<?xml version="1.0" encoding="utf-8"?>
<!DOCTYPE svg PUBLIC "-//W3C//DTD SVG 1.1//EN" "http://www.w3.org/Graphics/SVG/1.1/DTD/svg11.dtd">
<svg width="56.484375" height="46.025390625" xmlns="http://www.w3.org/2000/svg" xmlns:xlink="http://www.w3.org/1999/xlink" xmlns:xml="http://www.w3.org/XML/1998/namespace" version="1.1">
  <g>
    <g>
      <path style="fill:#FF0000;fill-opacity:1" d="M49.6875,15.146484375L42.83203125,21.298828125 39.3896484375,24.1845703125 35.4638671875,27.333984375 31.1572265625,30.6005859375 26.572265625,33.837890625 25.72265625,34.4091796875 24.873046875,34.951171875 26.513671875,36.8994140625 29.0185546875,38.8916015625 32.4609375,40.4443359375 36.943359375,41.07421875 41.337890625,40.458984375 44.912109375,38.7744140625 47.666015625,36.2841796875 49.599609375,33.2666015625 50.7421875,29.9560546875 51.123046875,26.630859375 50.888671875,22.44140625 50.390625,18.75 49.6875,15.146484375z M24.9609375,2.197265625L29.0771484375,2.5048828125 32.841796875,3.3251953125 36.1962890625,4.482421875 39.08203125,5.80078125 44.6484375,9.404296875 41.77734375,11.66015625 37.08984375,9.404296875 34.658203125,8.59131050109863 31.81640625,7.8515625 25.048828125,7.1484375 21.2255859375,7.8076171875 18.544921875,9.5068359375 16.962890625,11.806640625 16.435546875,14.267578125 16.8017578125,16.318359375 17.75390625,18.193359375 19.1162109375,19.8486328125 20.68359375,21.26953125 24.9609375,24.0234375 20.830078125,26.982421875 16.2890625,23.671875 14.6337890625,21.85546875 13.18359375,19.6728515625 12.158203125,17.109375 11.77734375,14.1796875 12.0263662338257,11.4917011260986 12.7734375,9.111328125 13.9599609375,7.05688619613647 15.52734375,5.3466796875 19.7021484375,3.0029296875 22.225341796875,2.398681640625 24.9609375,2.197265625z M51.708984375,0L53.7451171875,0.4541015625 55.25390625,1.669921875 56.1767578125,3.4716796875 56.484375,5.654296875 55.8984375,8.37890625 54.609375,10.634765625 52.734375,12.744140625 54.111328125,17.05078125 54.609375,19.130859375 55.048828125,21.4599609375 55.37109375,23.96484375 55.48828125,26.54296875 55.0927734375,31.11328125 53.7890625,35.595703125 51.4599609375,39.66796875 47.98828125,42.978515625 43.212890625,45.205078125 40.30517578125,45.8203125 37.03125,46.025390625 33.0322265625,45.556640625 29.6484375,44.326171875 26.8359375,42.59765625 24.5947265625,40.60546875 22.91015625,38.61328125 21.73828125,36.9140625 14.7216796875,40.7666015625 8.73046875,43.623046875 2.95898485183716,46.025390625 0,40.693359375 7.91015625,37.734375 11.4990234375,36.2109375 15.3369140625,34.4384765625 19.21875,32.4462890625 22.939453125,30.263671875 27.8356914520264,27.066650390625 32.0947265625,24.1552734375 35.797119140625,21.500244140625 39.0234375,19.072265625 41.817626953125,16.864013671875 44.2236328125,14.8681640625 48.1640625,11.42578125 47.75390625,10.1953125 47.2265625,8.759765625 46.7578125,7.1484375 46.552734375,5.33203125 46.845703125,3.4716796875 47.7685546875,1.7431640625 49.3798828125,0.4833984375 51.708984375,0z" />
    </g>
  </g>
</svg>