<?xml version="1.0" encoding="utf-8"?>
<!DOCTYPE svg PUBLIC "-//W3C//DTD SVG 1.1//EN" "http://www.w3.org/Graphics/SVG/1.1/DTD/svg11.dtd">
<svg width="58.53515625" height="31.81640625" xmlns="http://www.w3.org/2000/svg" xmlns:xlink="http://www.w3.org/1999/xlink" xmlns:xml="http://www.w3.org/XML/1998/namespace" version="1.1">
  <g>
    <g>
      <path style="fill:#FF0000;fill-opacity:1" d="M21.064453125,17.548828125L18.9697265625,18.30322265625 16.962890625,19.74609375 15.0439453125,21.87744140625 13.212890625,24.697265625 12.71484375,25.546875 11.0009765625,27.83935546875 8.96484375,29.150390625 13.9068603515625,28.42529296875 17.57080078125,26.25 19.9566650390625,22.62451171875 21.064453125,17.548828125z M13.18359375,0L16.5106201171875,0.377198338508606 19.43115234375,1.50879049301147 21.9451904296875,3.39477634429932 24.052734375,6.03515625 21.826171875,7.939453125 19.28466796875,5.96191549301147 16.69921875,5.302734375 14.6850576400757,5.65429830551147 12.978515625,6.708984375 11.8139638900757,8.25439453125 11.42578125,10.078125 11.7260732650757,11.630859375 12.626953125,12.94921875 13.9453115463257,13.85009765625 15.498046875,14.150390625 17.1258544921875,13.88671875 19.05029296875,13.095703125 21.2713623046875,11.77734375 23.7890625,9.931640625 25.546875,8.525390625 29.849853515625,5.52612400054932 34.0576171875,3.38379049301147 38.170166015625,2.09838962554932 42.1875,1.669921875 45.471492767334,1.95190536975861 48.4973106384277,2.79785299301147 51.264949798584,4.20776462554932 53.7744140625,6.181640625 55.857234954834,8.5601806640625 57.3449668884277,11.18408203125 58.237606048584,14.0533447265625 58.53515625,17.16796875 58.2275352478027,20.3036499023438 57.3046836853027,23.118896484375 55.7665977478027,25.6137084960938 53.61328125,27.7880859375 50.9600791931152,29.5504760742188 47.9223594665527,30.809326171875 44.5001182556152,31.5646362304688 40.693359375,31.81640625 39.755859375,31.81640625 39.755859375,28.916015625 44.01123046875,27.94921875 47.28515625,25.634765625 49.3725547790527,22.20703125 50.068359375,17.900390625 49.8486289978027,15.6417846679688 49.1894493103027,13.553466796875 48.0908164978027,11.6354370117188 46.552734375,9.8876953125 44.7015380859375,8.43292331695557 42.66357421875,7.39380025863647 40.4388427734375,6.77032566070557 38.02734375,6.5625 33.486328125,7.29858541488647 29.47265625,9.5068359375 27.8320293426514,11.0293579101563 26.6601543426514,12.652587890625 25.9570293426514,14.3765258789063 25.72265625,16.201171875 26.0156230926514,17.845458984375 26.89453125,19.2041015625 28.1982402801514,20.115966796875 29.765625,20.419921875 31.25244140625,20.185546875 32.314453125,19.482421875 32.95166015625,18.31787109375 33.1640625,16.69921875 32.51953125,14.033203125 35.15625,12.802734375 36.49658203125,16.63330078125 36.943359375,19.8046875 36.383056640625,23.0126953125 34.7021484375,25.72265625 32.230224609375,27.568359375 29.296875,28.18359375 27.3815898895264,27.9345703125 25.6201171875,27.1875 24.0197734832764,25.9423828125 22.587890625,24.19921875 20.39794921875,27.7880859375 17.2265625,30.1171875 15.1574697494507,30.860595703125 12.6123037338257,31.3916015625 9.59106349945068,31.710205078125 6.09375,31.81640625 0,31.81640625 0,28.916015625 1.446533203125,28.70361328125 2.50488305091858,28.06640625 3.350830078125,26.82861328125 4.16015625,24.814453125 4.62890625,23.349609375 5.5572509765625,21.126708984375 6.73095703125,19.3212890625 8.1500244140625,17.933349609375 9.814453125,16.962890625 6.83349609375,15.977783203125 4.51171875,14.2529296875 3.01757788658142,11.956787109375 2.51953148841858,9.2578125 2.7081298828125,7.33795261383057 3.27392578125,5.59204244613647 4.2169189453125,4.02008152008057 5.537109375,2.6220703125 8.95751953125,0.655519008636475 13.18359375,0z" />
    </g>
  </g>
</svg>