<?xml version="1.0" encoding="utf-8"?>
<!DOCTYPE svg PUBLIC "-//W3C//DTD SVG 1.1//EN" "http://www.w3.org/Graphics/SVG/1.1/DTD/svg11.dtd">
<svg width="52.4707031250003" height="31.435546875" xmlns="http://www.w3.org/2000/svg" xmlns:xlink="http://www.w3.org/1999/xlink" xmlns:xml="http://www.w3.org/XML/1998/namespace" version="1.1">
  <g>
    <g>
      <path style="fill:#FF0000;fill-opacity:1" d="M6.26953125,13.916015625L4.7314453125,14.3994140625 4.248046875,15.556640625 4.500732421875,16.307373046875 5.2587890625,16.9189453125 6.470947265625,17.325439453125 8.0859375,17.4609375 10.6640625,17.197265625 8.4814453125,14.82421875 7.393798828125,14.14306640625 6.26953125,13.916015625z M36.123046875,0L39.228515625,0.41015625 41.484375,1.5234375 42.861328125,3.1640625 43.330078125,5.15625 43.2421875,6.4306640625 43.037109375,7.353515625 42.7734375,8.115234375 38.466796875,7.1484375 38.583984375,6.73828125 38.671875,6.328125 38.701171875,5.859375 38.5546875,5.302734375 38.02734375,4.74609375 36.9873046875,4.306640625 35.302734375,4.130859375 32.490234375,4.6728515625 29.6630859375,6.1669921875 26.7919921875,8.3935546875 23.84765625,11.103515625 29.4140625,9.228515625 32.58544921875,8.6572265625 36.123046875,8.466796875 39.393310546875,8.690185546875 42.4658203125,9.3603515625 45.2526817321777,10.447998046875 47.666015625,11.923828125 49.6581993103027,13.765869140625 51.181640625,15.9521484375 52.1484336853027,18.446044921875 52.470703125,21.2109375 52.001953125,24.3603515625 50.7861328125,26.7333984375 49.072265625,28.447265625 47.109375,29.619140625 44.5825157165527,30.47607421875 41.748046875,30.87890625 41.748046875,26.8359375 44.6484375,26.103515625 45.703125,25.458984375 46.640625,24.5361328125 47.2998046875,23.2763671875 47.548828125,21.62109375 47.2998008728027,19.6875 46.552734375,17.9296875 43.8720703125,15.0732421875 39.9755859375,13.2421875 35.302734375,12.59765625 29.794921875,13.1982421875 25.13671875,14.7216796875 20.9912109375,16.7138671875 17.05078125,18.720703125 19.2333984375,21.796875 21.6796875,24.5947265625 24.4482421875,26.6162109375 25.9826641082764,27.198486328125 27.626953125,27.392578125 29.52392578125,27.1728515625 30.99609375,26.513671875 31.94091796875,25.39306640625 32.255859375,23.7890625 31.875,22.4267578125 30.9521484375,21.5625 29.82421875,21.09375 28.828125,20.947265625 28.3447265625,20.9619140625 27.978515625,21.005859375 27.626953125,21.03515625 27.626953125,16.9921875 28.359375,16.875 29.1357421875,16.7724609375 30.146484375,16.728515625 31.552734375,16.845703125 33.10546875,17.2705078125 34.62890625,18.0908203125 35.9326171875,19.365234375 36.8408203125,21.1669921875 37.177734375,23.61328125 36.5478515625,26.6748046875 34.7314453125,29.150390625 31.875,30.8203125 28.154296875,31.435546875 25.5029277801514,31.17919921875 23.115234375,30.41015625 19.0283203125,27.7734375 15.6884765625,24.1845703125 12.890625,20.33203125 10.5908203125,20.8447265625 8.0859375,21.03515625 5.21484375,20.6689453125 2.6220703125,19.599609375 0.732421398162842,17.8564453125 0,15.46875 0.439453125,13.3154296875 1.669921875,11.689453125 3.54492139816284,10.6640625 5.91796875,10.3125 8.5400390625,10.7373046875 10.83984375,11.89453125 12.9052734375,13.6083984375 14.794921875,15.703125 14.853515625,15.673828125 17.9443359375,12.509765625 21.1376953125,9.0380859375 24.4775390625,5.6689453125 28.037109375,2.783203125 31.8896484375,0.76171875 33.951416015625,0.190431118011475 36.123046875,0z" />
    </g>
  </g>
</svg>