<?xml version="1.0" encoding="utf-8"?>
<!DOCTYPE svg PUBLIC "-//W3C//DTD SVG 1.1//EN" "http://www.w3.org/Graphics/SVG/1.1/DTD/svg11.dtd">
<svg width="56.953125" height="23.7890625" xmlns="http://www.w3.org/2000/svg" xmlns:xlink="http://www.w3.org/1999/xlink" xmlns:xml="http://www.w3.org/XML/1998/namespace" version="1.1">
  <g>
    <g>
      <path style="fill:#FF0000;fill-opacity:1" d="M55.107421875,15.29296875L53.0273399353027,16.3623046875 52.001953125,16.9921875 50.9252891540527,18.3251953125 50.56640625,20.0390625 50.7568321228027,21.21826171875 51.328125,22.294921875 52.2582969665527,23.1298828125 53.349609375,23.408203125 55.0854454040527,22.87353515625 55.6640625,21.26953125 55.4150352478027,20.56640625 54.66796875,20.33203125 53.7451171875,20.7421875 52.79296875,21.15234375 52.0019493103027,20.68359375 51.73828125,19.27734375 51.9488487243652,18.424072265625 52.5805625915527,17.4755859375 53.6334190368652,16.431884765625 55.107421875,15.29296875z M56.953125,14.443359375L54.8510704040527,16.0308837890625 53.3496055603027,17.36572265625 52.4487266540527,18.4478759765625 52.1484375,19.27734375 52.3095664978027,20.39794921875 52.79296875,20.771484375 53.6572265625,20.3466796875 54.66796875,19.921875 55.7006797790527,20.2880859375 56.044921875,21.38671875 55.3710899353027,23.1884765625 53.349609375,23.7890625 52.0935020446777,23.507080078125 51.0205078125,22.6611328125 50.2844200134277,21.478271484375 50.0390625,20.185546875 50.6030235290527,17.8125 52.294921875,16.083984375 54.1186485290527,15.263671875 56.953125,14.443359375z M52.67578125,13.740234375L47.9956016540527,14.619140625 44.560546875,14.912109375 39.638671875,14.35546875 39.375,15.41015625 45.146484375,15.908203125 49.2260704040527,15.3662109375 52.67578125,13.740234375z M54.55078125,12.94921875L52.0605430603027,14.5166015625 50.15625,15.46875 47.8491172790527,16.083984375 45.146484375,16.2890625 38.90625,15.732421875 39.375,13.916015625 42.16552734375,14.35546875 44.384765625,14.501953125 46.1297569274902,14.4049072265625 48.4057579040527,14.11376953125 51.2127647399902,13.6285400390625 54.55078125,12.94921875z M11.630859375,11.953125L14.87548828125,13.20556640625 17.2265625,13.623046875 18.75,13.623046875 18.955078125,12.919921875 18.837890625,12.24609375 18.2958984375,12.29736328125 17.314453125,12.392578125 15.791015625,12.509765625 13.9453115463257,12.37060546875 11.630859375,11.953125z M22.587890625,11.630859375L22.587890625,12.12890625 23.701171875,12.12890625 23.701171875,11.630859375 22.587890625,11.630859375z M39.873046875,11.25L39.873046875,12.65625 46.7797813415527,12.42919921875 53.0859375,11.748046875 47.8216552734375,11.5301513671875 43.86474609375,11.37451171875 41.2152099609375,11.2811279296875 39.873046875,11.25z M39.55078125,10.83984375L42.564697265625,10.931396484375 46.2451171875,11.0888671875 50.592041015625,11.312255859375 55.60546875,11.6015625 48.2958946228027,12.76611328125 39.55078125,13.154296875 39.55078125,10.83984375z M21.005859375,10.078125L33.45703125,10.078125 33.8671875,11.953125 33.45703125,13.740234375 20.859375,13.740234375 21.15234375,11.806640625 21.005859375,10.078125z M20.5078125,9.638671875L20.712890625,11.806640625 20.61767578125,12.75146484375 20.33203125,14.1796875 33.75,14.1796875 34.306640625,11.953125 33.75,9.638671875 20.5078125,9.638671875z M20.244140625,8.701171875L34.453125,8.701171875 34.9365234375,8.70849609375 36.03515625,8.7890625 36.591796875,11.689453125 36.4306640625,13.13232421875 35.947265625,15 34.89990234375,15.06591796875 34.453125,15.087890625 20.244140625,15.087890625 15.03662109375,14.39208984375 8.73046875,12.36328125 8.14453125,12.685546875 8.14453125,12.099609375 0,12.099609375 0,11.71875 8.14453125,11.71875 8.14453125,11.19140625 8.73046875,11.455078125 14.91943359375,9.3896484375 20.244140625,8.701171875z M38.203125,8.671875L38.7744140625,10.31982421875 38.96484375,11.748046875 38.7744140625,13.42529296875 38.203125,15.234375 36.73828125,14.384765625 37.06787109375,12.94189453125 37.177734375,12.1875 36.73828125,9.580078125 38.203125,8.671875z M45,8.0859375L39.228515625,8.583984375 39.521484375,9.609375 43.0224609375,9.1259765625 45.791015625,8.96484375 48.9257774353027,9.20654296875 52.470703125,9.931640625 48.8159141540527,8.54736328125 45,8.0859375z M44.677734375,7.705078125L49.775390625,8.4375 51.7822227478027,9.27978515625 54.404296875,10.693359375 49.1528282165527,9.7705078125 44.70703125,9.462890625 42.18017578125,9.609375 39.228515625,10.048828125 38.759765625,8.26171875 41.9970703125,7.84423828125 44.677734375,7.705078125z M53.173828125,0.380859375L52.0532188415527,0.629884243011475 51.09375,1.376953125 50.4345664978027,2.42431783676147 50.21484375,3.57421875 50.5059776306152,5.2203369140625 51.3793907165527,6.58447265625 52.8350791931152,7.6666259765625 54.873046875,8.466796875 53.4118614196777,7.32788181304932 52.3681602478027,6.28418111801147 51.7419395446777,5.33569431304932 51.533203125,4.482421875 51.7968711853027,3.07617330551147 52.587890625,2.607421875 53.5400390625,3.0322265625 54.462890625,3.45703125 55.2099571228027,3.22265768051147 55.458984375,2.51953125 54.8876914978027,0.915528774261475 53.173828125,0.380859375z M53.115234375,0L55.1586875915527,0.600587368011475 55.83984375,2.40234375 55.4956016540527,3.47900533676147 54.462890625,3.837890625 53.4521484375,3.4130859375 52.587890625,2.98828125 52.0825157165527,3.36181783676147 51.9140625,4.482421875 52.2161827087402,5.32287693023682 53.1225547790527,6.40869283676147 54.6331748962402,7.73986911773682 56.748046875,9.31640625 53.9135704040527,8.5107421875 52.08984375,7.67578125 50.3979454040527,5.94726705551147 49.833984375,3.57421875 50.0793418884277,2.28515768051147 50.8154296875,1.11328125 51.8810997009277,0.278321743011475 53.115234375,0z" />
    </g>
  </g>
</svg>