<?xml version="1.0" encoding="utf-8"?>
<!DOCTYPE svg PUBLIC "-//W3C//DTD SVG 1.1//EN" "http://www.w3.org/Graphics/SVG/1.1/DTD/svg11.dtd">
<svg width="46.0253906250011" height="56.484375" xmlns="http://www.w3.org/2000/svg" xmlns:xlink="http://www.w3.org/1999/xlink" xmlns:xml="http://www.w3.org/XML/1998/namespace" version="1.1">
  <g>
    <g>
      <path style="fill:#FF0000;fill-opacity:1" d="M11.07421875,24.873046875L9.1259765625,26.513671875 7.1337890625,29.0185546875 5.5810546875,32.4609375 4.951171875,36.943359375 5.56640625,41.3525390625 7.2509765625,44.912109375 9.7412109375,47.666015625 12.7587890625,49.599609375 16.0546875,50.7421875 19.39453125,51.123046875 23.583984375,50.9033203125 27.275390625,50.419921875 30.87890625,49.6875 24.7265625,42.83203125 21.8408203125,39.404296875 18.69140625,35.4931640625 15.4248046875,31.1865234375 12.1875,26.572265625 11.6162109375,25.72265625 11.07421875,24.873046875z M31.845703125,11.77734375L34.53369140625,12.0263671875 36.9140625,12.7734375 38.968505859375,13.9599628448486 40.6787109375,15.52734375 43.0224609375,19.7021484375 43.6267051696777,22.225341796875 43.828125,24.9609375 43.5205078125,29.091796875 42.7001953125,32.8564453125 41.54296875,36.1962890625 40.224609375,39.08203125 36.62109375,44.6484375 34.365234375,41.77734375 36.62109375,37.119140625 37.43408203125,34.683837890625 38.173828125,31.8310546875 38.876953125,25.048828125 38.2177734375,21.2255859375 36.5185546875,18.544921875 34.21875,16.962890625 31.7578125,16.435546875 29.70703125,16.8017578125 27.83203125,17.7685546875 26.1767578125,19.1455078125 24.755859375,20.712890625 22.001953125,24.9609375 19.04296875,20.830078125 22.353515625,16.318359375 24.169921875,14.6484375 26.3525390625,13.1982421875 28.916015625,12.1728515625 31.845703125,11.77734375z M5.33203125,0L8.291015625,7.91015625 9.814453125,11.4990234375 11.5869140625,15.3369140625 13.5791015625,19.21875 15.76171875,22.939453125 18.9587383270264,27.835693359375 21.8701171875,32.0947265625 24.525146484375,35.797119140625 26.953125,39.0234375 29.161376953125,41.817626953125 31.1572265625,44.2236328125 34.599609375,48.1640625 35.830078125,47.7685546875 37.265625,47.2265625 38.876953125,46.7578125 40.693359375,46.552734375 42.5537109375,46.845703125 44.2822265625,47.7685546875 45.5419921875,49.3798828125 46.025390625,51.708984375 45.5712890625,53.7451171875 44.35546875,55.25390625 42.5537109375,56.1767578125 40.37109375,56.484375 37.646484375,55.8984375 35.390625,54.609375 33.28125,52.734375 28.974609375,54.111328125 24.5654296875,55.0634765625 19.482421875,55.48828125 14.912109375,55.0927734375 10.4296875,53.8037109375 6.357421875,51.474609375 3.046875,47.98828125 0.8203125,43.212890625 0.205077767372131,40.30517578125 0,37.03125 0.46875,33.046875 1.69921875,29.6484375 3.427734375,26.8505859375 5.419921875,24.609375 7.3974609375,22.91015625 9.111328125,21.73828125 5.2587890625,14.7216796875 2.40234375,8.73046875 0,2.958984375 5.33203125,0z" />
    </g>
  </g>
</svg>