<?xml version="1.0" encoding="utf-8"?>
<!DOCTYPE svg PUBLIC "-//W3C//DTD SVG 1.1//EN" "http://www.w3.org/Graphics/SVG/1.1/DTD/svg11.dtd">
<svg width="26.513671875" height="46.9921875" xmlns="http://www.w3.org/2000/svg" xmlns:xlink="http://www.w3.org/1999/xlink" xmlns:xml="http://www.w3.org/XML/1998/namespace" version="1.1">
  <g>
    <g>
      <path style="fill:#FF0000;fill-opacity:1" d="M6.50390625,39.755859375L15.17578125,39.755859375 15.17578125,46.9921875 6.50390625,46.9921875 6.50390625,39.755859375z M15.3515625,7.79296875L13.30078125,23.466796875 15.0823974609375,21.3592548370361 16.35498046875,19.1674823760986 17.1185302734375,16.8914813995361 17.373046875,14.53125 16.86767578125,11.044921875 15.3515625,7.79296875z M7.236328125,0L15.908203125,0 15.908203125,3.017578125 20.5480937957764,4.3212890625 23.8623027801514,6.328125 25.8508281707764,9.0380859375 26.513671875,12.451171875 26.2280254364014,14.4818124771118 25.3710918426514,16.4135761260986 23.9428691864014,18.2464618682861 21.943359375,19.98046875 19.3359375,22.001953125 17.98828125,23.056640625 15.85693359375,26.07421875 15.146484375,30.498046875 15.17578125,34.189453125 15.17578125,34.716796875 6.50390625,34.716796875 6.50390625,34.27734375 7.20703125,30.38818359375 9.31640625,27.158203125 7.236328125,8.759765625 7.236328125,5.9765625 5.58471632003784,6.829833984375 4.7314453125,7.6904296875 4.32495069503784,9.232177734375 4.013671875,12.12890625 3.98437547683716,12.65625 0,12.65625 0,4.599609375 3.62548828125,3.6181640625 7.236328125,3.017578125 7.236328125,0z" />
    </g>
  </g>
</svg>