<?xml version="1.0" encoding="utf-8"?>
<!DOCTYPE svg PUBLIC "-//W3C//DTD SVG 1.1//EN" "http://www.w3.org/Graphics/SVG/1.1/DTD/svg11.dtd">
<svg width="52.4707031250003" height="31.435546875" xmlns="http://www.w3.org/2000/svg" xmlns:xlink="http://www.w3.org/1999/xlink" xmlns:xml="http://www.w3.org/XML/1998/namespace" version="1.1">
  <g>
    <g>
      <path style="fill:#FF0000;fill-opacity:1" d="M8.0859375,13.974609375L6.470947265625,14.110107421875 5.2587890625,14.5166015625 4.500732421875,15.128173828125 4.248046875,15.87890625 4.7314453125,17.0361328125 6.26953125,17.51953125 7.393798828125,17.29248046875 8.4814453125,16.611328125 10.6640625,14.23828125 8.0859375,13.974609375z M28.154296875,0L31.875,0.615234375 34.7314453125,2.28515625 36.5478515625,4.7607421875 37.177734375,7.822265625 36.4306640625,11.25 34.6142578125,13.359375 32.3291015625,14.4140625 30.146484375,14.70703125 29.1357421875,14.677734375 28.359375,14.58984375 27.626953125,14.443359375 27.626953125,10.400390625 27.978515625,10.458984375 28.3447265625,10.48828125 28.828125,10.48828125 29.82421875,10.3564453125 30.9521484375,9.8876953125 31.875,9.0087890625 32.255859375,7.646484375 31.94091796875,6.04248189926147 30.99609375,4.921875 29.52392578125,4.26269674301147 27.626953125,4.04296875 25.9826641082764,4.23706197738647 24.4482421875,4.8193359375 21.6796875,6.8408203125 19.2333984375,9.638671875 17.05078125,12.71484375 20.9912109375,14.7216796875 25.13671875,16.7138671875 29.794921875,18.2373046875 35.302734375,18.837890625 39.9755859375,18.193359375 43.8720703125,16.3623046875 46.552734375,13.505859375 47.2998008728027,11.748046875 47.548828125,9.814453125 47.2998046875,8.1591796875 46.640625,6.8994140625 45.703125,5.9765625 44.6484375,5.33203125 41.748046875,4.599609375 41.748046875,0.556640625 44.5825157165527,0.981446743011475 47.109375,1.845703125 49.072265625,3.017578125 50.7861328125,4.7314453125 52.001953125,7.08984375 52.470703125,10.224609375 52.1484336853027,12.989501953125 51.181640625,15.4833984375 49.6581993103027,17.669677734375 47.666015625,19.51171875 45.2526817321777,20.987548828125 42.4658203125,22.0751953125 39.393310546875,22.745361328125 36.123046875,22.96875 32.58544921875,22.7783203125 29.4140625,22.20703125 23.84765625,20.33203125 26.7919921875,23.056640625 29.6630859375,25.2685546875 32.490234375,26.7626953125 35.302734375,27.3046875 36.9873046875,27.12890625 38.02734375,26.689453125 38.5546875,26.1328125 38.701171875,25.576171875 38.671875,25.107421875 38.583984375,24.697265625 38.466796875,24.287109375 42.7734375,23.3203125 43.037109375,24.08203125 43.2421875,25.01953125 43.330078125,26.279296875 42.861328125,28.271484375 41.484375,29.912109375 39.228515625,31.025390625 36.123046875,31.435546875 33.951416015625,31.2451171875 31.8896484375,30.673828125 28.037109375,28.65234375 24.4775390625,25.7666015625 21.1376953125,22.3974609375 17.9443359375,18.92578125 14.853515625,15.76171875 14.794921875,15.732421875 12.9052734375,17.8271484375 10.83984375,19.541015625 8.5400390625,20.6982421875 5.91796875,21.123046875 3.54492139816284,20.771484375 1.669921875,19.74609375 0.439453125,18.1201171875 0,15.966796875 0.732421398162842,13.5791015625 2.6220703125,11.8359375 5.21484375,10.7666015625 8.0859375,10.400390625 10.5908203125,10.5908203125 12.890625,11.103515625 15.6884765625,7.2509765625 19.0283203125,3.662109375 23.115234375,1.025390625 25.5029277801514,0.256349086761475 28.154296875,0z" />
    </g>
  </g>
</svg>