<?xml version="1.0" encoding="utf-8"?>
<!DOCTYPE svg PUBLIC "-//W3C//DTD SVG 1.1//EN" "http://www.w3.org/Graphics/SVG/1.1/DTD/svg11.dtd">
<svg width="26.572265625" height="46.9921875" xmlns="http://www.w3.org/2000/svg" xmlns:xlink="http://www.w3.org/1999/xlink" xmlns:xml="http://www.w3.org/XML/1998/namespace" version="1.1">
  <g>
    <g>
      <path style="fill:#FF0000;fill-opacity:1" d="M6.50390625,39.755859375L15.17578125,39.755859375 15.17578125,46.9921875 6.50390625,46.9921875 6.50390625,39.755859375z M14.267578125,9.2578125L13.681640625,21.240234375 15.194091796875,19.1345233917236 16.2744140625,17.2412128448486 16.922607421875,15.5603036880493 17.138671875,14.091796875 16.4208984375,11.30126953125 14.267578125,9.2578125z M5.771484375,0L14.443359375,0 14.443359375,2.724609375 17.2860717773438,3.2501220703125 19.7497539520264,3.97705078125 21.8344097137451,4.9053955078125 23.5400371551514,6.03515625 24.8666362762451,7.3663330078125 25.8142070770264,8.89892578125 26.3827514648438,10.6329345703125 26.572265625,12.568359375 26.2701396942139,14.6868906021118 25.3637676239014,16.8530292510986 23.8531475067139,19.0667743682861 21.73828125,21.328125 19.775390625,23.173828125 17.4609375,25.59814453125 16.083984375,27.59765625 15.40283203125,29.67041015625 15.17578125,32.314453125 15.17578125,34.716796875 6.50390625,34.716796875 6.50390625,33.92578125 7.1484375,29.970703125 5.68359375,8.96484375 0,11.07421875 0,4.39453125 5.771484375,3.07617235183716 5.771484375,0z" />
    </g>
  </g>
</svg>