<?xml version="1.0" encoding="utf-8"?>
<!DOCTYPE svg PUBLIC "-//W3C//DTD SVG 1.1//EN" "http://www.w3.org/Graphics/SVG/1.1/DTD/svg11.dtd">
<svg width="27.48046875" height="20.947265625" xmlns="http://www.w3.org/2000/svg" xmlns:xlink="http://www.w3.org/1999/xlink" xmlns:xml="http://www.w3.org/XML/1998/namespace" version="1.1">
  <g>
    <g>
      <path style="fill:#FF0000;fill-opacity:1" d="M15.908203125,0L27.48046875,0 27.48046875,8.3203125 27.3092632293701,11.2628173828125 26.7956523895264,13.7915048599243 25.9396343231201,15.9063730239868 24.7412109375,17.607421875 23.1619243621826,18.9367694854736 21.1633281707764,19.9365253448486 18.7454204559326,20.6066913604736 15.908203125,20.947265625 15.908203125,17.34375 17.8985595703125,16.9830341339111 19.38720703125,15.9008808135986 20.3741455078125,14.0972909927368 20.859375,11.572265625 15.908203125,11.572265625 15.908203125,0z M0,0L11.572265625,0 11.572265625,8.3203125 11.4019765853882,11.2628173828125 10.8911123275757,13.7915048599243 10.0396718978882,15.9063730239868 8.84765625,17.607421875 7.27294921875,18.9367694854736 5.2734375,19.9365253448486 2.84912085533142,20.6066913604736 0,20.947265625 0,17.34375 1.99218726158142,16.9830341339111 3.48632764816284,15.9008808135986 4.48242139816284,14.0972909927368 4.98046875,11.572265625 0,11.572265625 0,0z" />
    </g>
  </g>
</svg>