<?xml version="1.0" encoding="utf-8"?>
<!DOCTYPE svg PUBLIC "-//W3C//DTD SVG 1.1//EN" "http://www.w3.org/Graphics/SVG/1.1/DTD/svg11.dtd">
<svg width="60.05859375" height="23.701171875" xmlns="http://www.w3.org/2000/svg" xmlns:xlink="http://www.w3.org/1999/xlink" xmlns:xml="http://www.w3.org/XML/1998/namespace" version="1.1">
  <g>
    <g>
      <path style="fill:#FF0000;fill-opacity:1" d="M43.681640625,16.611328125L46.611328125,19.130859375 42.802734375,23.701171875 39.873046875,21.2109375 43.681640625,16.611328125z M16.142578125,16.611328125L19.072265625,19.130859375 15.263671875,23.701171875 12.333984375,21.2109375 16.142578125,16.611328125z M16.2890625,0L18.7353515625,0.615234375 20.830078125,2.2265625 22.6318359375,4.51171875 24.228515625,7.1337890625 25.693359375,9.755859375 27.099609375,12.041015625 28.5205078125,13.65234375 30.029296875,14.267578125 31.0546875,14.00390625 32.021484375,13.212890625 33.896484375,10.576171875 35.830078125,7.1337890625 37.998046875,3.69140625 40.5908203125,1.0546875 42.095947265625,0.263671875 43.76953125,0 45.15380859375,0.260009765625 46.611328125,1.0400390625 49.6435546875,3.779296875 52.67578125,7.67578125 55.5322265625,12.2021484375 58.0517578125,16.8017578125 60.05859375,20.947265625 56.30859375,23.701171875 54.345703125,19.5703125 52.08984375,15.322265625 49.716796875,11.3525390625 47.40234375,8.02734375 45.322265625,5.7421875 44.4287109375,5.10498046875 43.681640625,4.892578125 42.36328125,5.5078125 41.07421875,7.119140625 39.755859375,9.404296875 38.3349609375,12.0263671875 36.7236328125,14.6484375 34.8486328125,16.93359375 32.6513671875,18.544921875 30.029296875,19.16015625 28.2568340301514,18.896484375 26.689453125,18.10546875 24.0087890625,15.46875 21.796875,12.0263671875 19.9072265625,8.583984375 18.1494140625,5.947265625 17.274169921875,5.15625 16.376953125,4.892578125 15.6298828125,5.10498046875 14.736328125,5.7421875 12.65625,8.02734375 10.341796875,11.3525390625 7.96875,15.322265625 5.712890625,19.5703125 3.75,23.701171875 0,20.947265625 2.00683569908142,16.8017578125 4.5263671875,12.2021484375 7.3828125,7.67578125 10.4150390625,3.779296875 13.447265625,1.0400390625 14.90478515625,0.260009765625 16.2890625,0z" />
    </g>
  </g>
</svg>