<?xml version="1.0" encoding="utf-8"?>
<!DOCTYPE svg PUBLIC "-//W3C//DTD SVG 1.1//EN" "http://www.w3.org/Graphics/SVG/1.1/DTD/svg11.dtd">
<svg width="29.53125" height="31.40625" xmlns="http://www.w3.org/2000/svg" xmlns:xlink="http://www.w3.org/1999/xlink" xmlns:xml="http://www.w3.org/XML/1998/namespace" version="1.1">
  <g>
    <g>
      <path style="fill:#FF0000;fill-opacity:1" d="M14.94140625,4.04296875L12.7478017807007,4.23980808258057 10.7958974838257,4.83032369613647 9.08569240570068,5.81451511383057 7.6171875,7.1923828125 5.59570264816284,10.938720703125 4.921875,15.87890625 5.60302686691284,20.64697265625 7.646484375,24.287109375 9.12414455413818,25.6329345703125 10.8325185775757,26.59423828125 12.7716054916382,27.1710205078125 14.94140625,27.36328125 17.1359252929688,27.1746826171875 19.061279296875,26.60888671875 20.7174682617188,25.6658935546875 22.1044921875,24.345703125 23.9831523895264,20.69091796875 24.609375,15.76171875 23.9831523895264,10.78125 22.1044921875,7.08984375 20.7174682617188,5.75683689117432 19.061279296875,4.80468893051147 17.1359252929688,4.23339939117432 14.94140625,4.04296875z M15.29296875,0L18.4634380340576,0.258179783821106 21.2658672332764,1.03271627426147 23.7002544403076,2.32360935211182 25.7666015625,4.130859375 27.4136352539063,6.3958740234375 28.590087890625,9.06005859375 29.2959594726563,12.1234130859375 29.53125,15.5859375 29.2776489257813,18.9962768554688 28.516845703125,22.049560546875 27.2488403320313,24.7457885742188 25.4736328125,27.0849609375 23.2717876434326,28.9755249023438 20.7238750457764,30.325927734375 17.8298931121826,31.1361694335938 14.58984375,31.40625 11.4321899414063,31.1434936523438 8.609619140625,30.355224609375 6.12213134765625,29.0414428710938 3.96972632408142,27.2021484375 2.23297095298767,24.9288940429688 0.992431402206421,22.313232421875 0.248107776045799,19.3551635742188 0,16.0546875 0.25817859172821,12.4822998046875 1.03271460533142,9.32373046875 2.32360816001892,6.5789794921875 4.130859375,4.248046875 6.3775634765625,2.38952732086182 8.98681640625,1.06201314926147 11.9586181640625,0.265504002571106 15.29296875,0z" />
    </g>
  </g>
</svg>