<?xml version="1.0" encoding="utf-8"?>
<!DOCTYPE svg PUBLIC "-//W3C//DTD SVG 1.1//EN" "http://www.w3.org/Graphics/SVG/1.1/DTD/svg11.dtd">
<svg width="28.18359375" height="27.65625" xmlns="http://www.w3.org/2000/svg" xmlns:xlink="http://www.w3.org/1999/xlink" xmlns:xml="http://www.w3.org/XML/1998/namespace" version="1.1">
  <g>
    <g>
      <path style="fill:#FF0000;fill-opacity:1" d="M9.4921875,0L28.18359375,0 28.18359375,4.27734375 21.4018249511719,4.27734375 20.9418296813965,7.562255859375 20.5707550048828,11.3232421875 20.3257942199707,14.915771484375 20.244140625,17.6953125 20.5030632019043,19.976806640625 21.2798309326172,21.5478515625 22.4503898620605,22.459716796875 23.8906860351563,22.763671875 25.072172164917,22.55859375 26.0494995117188,21.943359375 26.7496471405029,20.92529296875 27.099609375,19.51171875 28.18359375,19.51171875 27.3632793426514,23.2763671875 25.95703125,25.78125 24.1552715301514,27.1875 22.1484375,27.65625 20.152587890625,27.147216796875 18.5009765625,25.6201171875 17.8536987304688,24.3502807617188 17.391357421875,22.576904296875 17.1139526367188,20.2999877929688 17.021484375,17.51953125 17.34375,11.54296875 17.5799560546875,9.078369140625 17.79052734375,7.0458984375 17.9754638671875,5.445556640625 18.134765625,4.27734375 11.25732421875,4.27734375 10.6095886230469,13.212890625 10.2067852020264,16.5142822265625 9.76421356201172,19.41650390625 9.28187370300293,21.9195556640625 8.759765625,24.0234375 8.0126953125,25.86181640625 6.943359375,27.158203125 5.56640625,27.65625 3.6767578125,26.9384765625 2.9296875,25.224609375 3.22265625,23.701171875 3.71337890625,22.87353515625 4.833984375,21.26953125 6.328125,18.427734375 6.83349609375,16.435546875 7.294921875,13.505859375 7.371826171875,12.6873779296875 7.5146484375,10.87646484375 7.723388671875,8.0731201171875 7.998046875,4.27734375 7.1484375,4.27734375 5.28808546066284,4.482421875 3.80859375,5.09765625 2.4755859375,6.33544921875 1.05468726158142,8.408203125 0,8.408203125 1.06201159954071,5.29541015625 2.37304663658142,2.98828125 3.78662109375,1.42456197738647 5.15625,0.5419921875 6.9140625,0.135499477386475 9.4921875,0z" />
    </g>
  </g>
</svg>