<?xml version="1.0" encoding="utf-8"?>
<!DOCTYPE svg PUBLIC "-//W3C//DTD SVG 1.1//EN" "http://www.w3.org/Graphics/SVG/1.1/DTD/svg11.dtd">
<svg width="23.7011718750001" height="53.701171875" xmlns="http://www.w3.org/2000/svg" xmlns:xlink="http://www.w3.org/1999/xlink" xmlns:xml="http://www.w3.org/XML/1998/namespace" version="1.1">
  <g>
    <g>
      <path style="fill:#FF0000;fill-opacity:1" d="M2.60742115974426,0L20.361328125,0 20.361328125,4.013671875 15.1171875,5.299072265625 11.044921875,7.3388671875 9.5196533203125,8.60687255859375 8.43017578125,9.993896484375 7.7764892578125,11.4999389648438 7.55859375,13.125 7.880859375,15.0439472198486 8.84765625,16.640625 10.3161611557007,17.8637714385986 12.1435546875,18.662109375 15.46875,19.248046875 16.34033203125,19.2260761260986 17.607421875,19.16015625 19.892578125,19.072265625 19.892578125,23.466796875 16.58203125,23.37890625 12.0153799057007,23.968505859375 8.2763671875,25.7373046875 6.82159423828125,27.0162963867188 5.78247022628784,28.494873046875 5.15899610519409,30.1730346679688 4.951171875,32.05078125 5.47119092941284,34.940185546875 7.03124952316284,37.1923828125 9.63134765625,38.807373046875 13.271484375,39.78515625 15.9896850585938,40.3225708007813 18.255615234375,40.997314453125 20.0692749023438,41.8093872070313 21.4306640625,42.7587890625 23.1335430145264,45.150146484375 23.701171875,48.251953125 23.1884746551514,51.15234375 21.650390625,53.701171875 16.40625,53.701171875 18.53759765625,51.37939453125 19.248046875,48.984375 18.907470703125,47.420654296875 17.8857421875,46.1865234375 16.9931030273438,45.6820678710938 15.677490234375,45.238037109375 13.9389038085938,44.8544311523438 11.77734375,44.53125 6.77123975753784,43.194580078125 3.06152367591858,40.6494140625 1.72210693359375,38.9547729492188 0.76538074016571,37.020263671875 0.191345080733299,34.8458862304688 0,32.431640625 0.596923589706421,28.77685546875 2.38769507408142,25.546875 5.27709913253784,22.880859375 9.169921875,20.91796875 6.39770460128784,19.8010272979736 4.3505859375,18.1494140625 3.08715796470642,16.0583515167236 2.66601490974426,13.623046875 3.36914038658142,10.51025390625 5.478515625,7.734375 8.7890625,5.4931640625 13.095703125,3.984375 13.095703125,3.779296875 8.924560546875,3.8433837890625 5.7861328125,3.88916015625 3.68041944503784,3.9166259765625 2.60742115974426,3.92578125 2.60742115974426,0z" />
    </g>
  </g>
</svg>