<?xml version="1.0" encoding="utf-8"?>
<!DOCTYPE svg PUBLIC "-//W3C//DTD SVG 1.1//EN" "http://www.w3.org/Graphics/SVG/1.1/DTD/svg11.dtd">
<svg width="29.82421875" height="46.201171875" xmlns="http://www.w3.org/2000/svg" xmlns:xlink="http://www.w3.org/1999/xlink" xmlns:xml="http://www.w3.org/XML/1998/namespace" version="1.1">
  <g>
    <g>
      <path style="fill:#FF0000;fill-opacity:1" d="M2.78320264816284,15.234375L5.86303663253784,15.7763690948486 7.8369140625,17.40234375 8.902587890625,20.2368183135986 9.2578125,24.404296875 9.2578125,31.93359375 9.7503662109375,36.3043212890625 11.22802734375,39.42626953125 13.6907958984375,41.2994384765625 17.138671875,41.923828125 20.445556640625,41.275634765625 22.9248046875,39.3310546875 24.4738750457764,36.207275390625 24.990234375,32.021484375 24.7210674285889,27.7001953125 23.9135723114014,23.49609375 22.5677471160889,19.4091796875 20.68359375,15.439453125 26.044921875,15.439453125 27.6983623504639,19.2095947265625 28.8793926239014,23.19580078125 29.5880107879639,27.3980712890625 29.82421875,31.81640625 29.6118144989014,34.9676513671875 28.9746074676514,37.77099609375 27.9125957489014,40.2264404296875 26.42578125,42.333984375 24.5709228515625,44.02587890625 22.40478515625,45.234375 19.9273681640625,45.95947265625 17.138671875,46.201171875 14.2684936523438,45.985107421875 11.751708984375,45.3369140625 9.58831787109375,44.256591796875 7.7783203125,42.744140625 6.34918212890625,40.8251953125 5.328369140625,38.525390625 4.71588134765625,35.8447265625 4.51171922683716,32.783203125 4.51171922683716,24.609375 4.361572265625,22.298583984375 3.91113257408142,20.6982421875 3.05053663253784,19.7644062042236 1.66992139816284,19.453125 0,19.658203125 0,15.615234375 2.78320264816284,15.234375z M23.056640625,3.837890625L24.1918926239014,4.046630859375 25.13671875,4.6728515625 25.7739238739014,5.599365234375 25.986328125,6.708984375 25.7739238739014,7.8369140625 25.13671875,8.759765625 24.1992168426514,9.375 23.0859375,9.580078125 21.998291015625,9.375 21.0791015625,8.759765625 20.452880859375,7.8369140625 20.244140625,6.708984375 20.452880859375,5.5810546875 21.0791015625,4.658203125 21.990966796875,4.04296875 23.056640625,3.837890625z M8.876953125,3.837890625L9.993896484375,4.046630859375 10.9423828125,4.6728515625 11.5905752182007,5.599365234375 11.806640625,6.708984375 11.5942373275757,7.8369140625 10.95703125,8.759765625 10.01220703125,9.375 8.876953125,9.580078125 7.78564453125,9.375 6.85546875,8.759765625 6.21826124191284,7.8369140625 6.00585985183716,6.708984375 6.21826124191284,5.5810546875 6.85546875,4.658203125 7.78564453125,4.04296875 8.876953125,3.837890625z M15.99609375,0L20.888671875,0 15.76171875,10.634765625 13.037109375,10.634765625 15.99609375,0z" />
    </g>
  </g>
</svg>