<?xml version="1.0" encoding="utf-8"?>
<!DOCTYPE svg PUBLIC "-//W3C//DTD SVG 1.1//EN" "http://www.w3.org/Graphics/SVG/1.1/DTD/svg11.dtd">
<svg width="23.73046875" height="39.990234375" xmlns="http://www.w3.org/2000/svg" xmlns:xlink="http://www.w3.org/1999/xlink" xmlns:xml="http://www.w3.org/XML/1998/namespace" version="1.1">
  <g>
    <g>
      <path style="fill:#FF0000;fill-opacity:1" d="M15.791015625,0L19.3212890625,0.380860805511475 22.470703125,1.5234375 22.470703125,6.416015625 19.02099609375,4.68017721176147 15.3515625,4.1015625 13.2064809799194,4.34143161773682 11.2536611557007,5.06103658676147 9.49310207366943,6.26037693023682 7.9248046875,7.939453125 5.716552734375,12.2607421875 4.98046875,17.548828125 5.654296875,21.2109375 7.6171875,23.8037109375 9.7705078125,25.078125 10.6631460189819,25.330810546875 12.4768056869507,25.8251953125 15.2114858627319,26.561279296875 18.8671875,27.5390625 20.9948711395264,28.6578369140625 22.5146465301514,30.19775390625 23.4265117645264,32.1588134765625 23.73046875,34.541015625 23.2177715301514,37.44140625 21.6796875,39.990234375 16.376953125,39.990234375 18.5302734375,37.67578125 19.248046875,35.185546875 18.797607421875,33.416748046875 17.4462890625,32.2119140625 15.128173828125,31.395263671875 11.77734375,30.791015625 6.7529296875,29.3994140625 3.046875,26.689453125 1.7138671875,24.8895263671875 0.76171875,22.85888671875 0.1904296875,20.5975341796875 0,18.10546875 0.27740478515625,14.2071533203125 1.109619140625,10.71533203125 2.49664306640625,7.6300048828125 4.4384765625,4.951171875 6.81243896484375,2.78503513336182 9.495849609375,1.23779439926147 12.4887084960938,0.309449315071106 15.791015625,0z" />
    </g>
  </g>
</svg>