<?xml version="1.0" encoding="utf-8"?>
<!DOCTYPE svg PUBLIC "-//W3C//DTD SVG 1.1//EN" "http://www.w3.org/Graphics/SVG/1.1/DTD/svg11.dtd">
<svg width="28.623046875" height="44.091796875" xmlns="http://www.w3.org/2000/svg" xmlns:xlink="http://www.w3.org/1999/xlink" xmlns:xml="http://www.w3.org/XML/1998/namespace" version="1.1">
  <g>
    <g>
      <path style="fill:#FF0000;fill-opacity:1" d="M0,0L4.775390625,0 4.775390625,18.28125 5.255126953125,21.52587890625 6.6943359375,24.111328125 8.92455959320068,25.80322265625 11.77734375,26.3671875 14.81689453125,25.72265625 17.138671875,23.7890625 18.61083984375,20.830078125 19.1015625,17.109375 19.1015625,0 23.876953125,0 23.876953125,21.123046875 24.1003398895264,23.250732421875 24.7705059051514,24.7705078125 25.8874492645264,25.682373046875 27.451171875,25.986328125 28.623046875,25.83984375 28.623046875,29.853515625 25.83984375,30.234375 23.6206035614014,29.912109375 21.943359375,28.9453125 20.7275371551514,27.2900390625 19.892578125,24.90234375 19.716796875,24.90234375 18.2244873046875,27.440185546875 16.32568359375,29.2529296875 14.0203857421875,30.340576171875 11.30859375,30.703125 9.2047119140625,30.47607421875 7.43408203125,29.794921875 5.9967041015625,28.65966796875 4.892578125,27.0703125 4.775390625,27.0703125 4.775390625,44.091796875 0,44.091796875 0,0z" />
    </g>
  </g>
</svg>