<?xml version="1.0" encoding="utf-8"?>
<!DOCTYPE svg PUBLIC "-//W3C//DTD SVG 1.1//EN" "http://www.w3.org/Graphics/SVG/1.1/DTD/svg11.dtd">
<svg width="29.8828125" height="42.71484375" xmlns="http://www.w3.org/2000/svg" xmlns:xlink="http://www.w3.org/1999/xlink" xmlns:xml="http://www.w3.org/XML/1998/namespace" version="1.1">
  <g>
    <g>
      <path style="fill:#FF0000;fill-opacity:1" d="M9.7265625,0L13.447265625,0.703125 13.447265625,5.09765625 11.6821279525757,4.5263671875 9.9609375,4.3359375 7.75634765625,4.896240234375 6.181640625,6.5771484375 5.23681640625,9.378662109375 4.92187547683716,13.30078125 5.54077100753784,17.2998065948486 7.3974609375,20.390625 10.338134765625,22.3681640625 14.208984375,23.02734375 16.8365478515625,22.822265625 19.50439453125,22.20703125 22.2125244140625,21.181640625 24.9609375,19.74609375 24.9609375,0.703125 29.8828125,0.703125 29.8828125,42.71484375 24.9609375,42.71484375 24.9609375,24.111328125 22.1942138671875,25.5853271484375 19.40185546875,26.63818359375 16.5838623046875,27.2698974609375 13.740234375,27.48046875 10.7757568359375,27.2406005859375 8.12255859375,26.52099609375 5.7806396484375,25.3216552734375 3.75000047683716,23.642578125 2.10937523841858,21.5679931640625 0.937500059604645,19.18212890625 0.234375,16.4849853515625 0,13.4765625 0.659179627895355,8.001708984375 2.63671827316284,3.7060546875 4.06860303878784,2.08465576171875 5.7275390625,0.926513671875 7.613525390625,0.23162841796875 9.7265625,0z" />
    </g>
  </g>
</svg>