<?xml version="1.0" encoding="utf-8"?>
<!DOCTYPE svg PUBLIC "-//W3C//DTD SVG 1.1//EN" "http://www.w3.org/Graphics/SVG/1.1/DTD/svg11.dtd">
<svg width="31.34765625" height="43.41796875" xmlns="http://www.w3.org/2000/svg" xmlns:xlink="http://www.w3.org/1999/xlink" xmlns:xml="http://www.w3.org/XML/1998/namespace" version="1.1">
  <g>
    <g>
      <path style="fill:#FF0000;fill-opacity:1" d="M11.54296875,18.662109375L12.652587890625,18.8635272979736 13.5791015625,19.4677734375 14.205322265625,20.372314453125 14.4140625,21.474609375 14.205322265625,22.587890625 13.5791015625,23.525390625 12.652587890625,24.16259765625 11.54296875,24.375 10.4479970932007,24.166259765625 9.5068359375,23.5400390625 8.858642578125,22.606201171875 8.642578125,21.474609375 8.85498046875,20.390625 9.4921875,19.482421875 10.4296865463257,18.8671894073486 11.54296875,18.662109375z M9.90234375,0L14.3572998046875,0.38818359375 18.40576171875,1.552734375 22.0477294921875,3.49365234375 25.283203125,6.2109375 27.9364013671875,9.55810546875 29.83154296875,13.3886728286743 30.9686279296875,17.70263671875 31.34765625,22.5 31.0107421875,26.9622802734375 30,30.97412109375 28.3154296875,34.5355224609375 25.95703125,37.646484375 23.038330078125,40.1715087890625 19.6728515625,41.97509765625 15.860595703125,43.0572509765625 11.6015625,43.41796875 5.22949171066284,42.802734375 0,40.95703125 0,36.181640625 5.05371046066284,38.291015625 10.95703125,38.994140625 14.2062377929688,38.7094116210938 17.127685546875,37.855224609375 19.7213745117188,36.4315795898438 21.9873046875,34.4384765625 23.8265972137451,31.9656372070313 25.1403789520264,29.102783203125 25.9286479949951,25.8499145507813 26.19140625,22.20703125 25.9103374481201,18.3673114776611 25.0671367645264,14.9340839385986 23.6618022918701,11.9073495864868 21.6943359375,9.287109375 19.2745971679688,7.1722412109375 16.512451171875,5.66162109375 13.4078979492188,4.7552490234375 9.9609375,4.453125 4.74609327316284,5.0830078125 0,6.97265625 0,1.728515625 4.43847608566284,0.43212890625 9.90234375,0z" />
    </g>
  </g>
</svg>