<?xml version="1.0" encoding="utf-8"?>
<!DOCTYPE svg PUBLIC "-//W3C//DTD SVG 1.1//EN" "http://www.w3.org/Graphics/SVG/1.1/DTD/svg11.dtd">
<svg width="32.98828125" height="43.41796875" xmlns="http://www.w3.org/2000/svg" xmlns:xlink="http://www.w3.org/1999/xlink" xmlns:xml="http://www.w3.org/XML/1998/namespace" version="1.1">
  <g>
    <g>
      <path style="fill:#FF0000;fill-opacity:1" d="M14.6484375,0L17.3904418945313,0.234375 20.020751953125,0.9375 22.5393676757813,2.109375 24.9462890625,3.75 27.0034770965576,5.701904296875 28.4728984832764,7.8076171875 29.3545513153076,10.067138671875 29.6484375,12.48046875 29.4360332489014,14.4140644073486 28.798828125,16.11328125 27.7441387176514,17.5817890167236 26.279296875,18.8232421875 24.6533184051514,19.757080078125 23.115234375,20.302734375 11.484375,23.14453125 8.7158203125,24.371337890625 6.73828125,26.0009765625 5.5517578125,28.033447265625 5.15625047683716,30.46875 5.8154296875,33.878173828125 7.79296875,36.6064453125 10.9423818588257,38.397216796875 15.1171875,38.994140625 17.7996826171875,38.8009643554688 20.22216796875,38.221435546875 22.3846435546875,37.2555541992188 24.287109375,35.9033203125 25.8599834442139,34.2141723632813 27.0336894989014,32.237548828125 27.8082256317139,29.9734497070313 28.18359375,27.421875 32.98828125,27.421875 32.3922729492188,30.94482421875 31.278076171875,34.072265625 29.6456909179688,36.80419921875 27.4951171875,39.140625 24.8959331512451,41.011962890625 21.9177227020264,42.3486328125 18.5604839324951,43.150634765625 14.82421875,43.41796875 11.5878295898438,43.1863403320313 8.704833984375,42.491455078125 6.17523193359375,41.3333129882813 3.99902296066284,39.7119140625 2.24945044517517,37.7481079101563 0.999755799770355,35.562744140625 0.24993896484375,33.1558227539063 0,30.52734375 0.380859375,27.249755859375 1.5234375,24.4482421875 3.3251953125,22.188720703125 5.68359375,20.537109375 7.44873046875,19.8065185546875 10.107421875,18.96240234375 13.65966796875,18.0047607421875 18.10546875,16.93359375 20.8996562957764,16.1279315948486 22.8955059051514,15.1171894073486 24.0930156707764,13.9013681411743 24.4921875,12.48046875 24.3017559051514,10.968017578125 23.7304668426514,9.5361328125 22.7783184051514,8.184814453125 21.4453125,6.9140625 18.28125,5.068359375 14.8828125,4.453125 12.8832998275757,4.65087890625 11.4550771713257,5.244140625 10.5981435775757,6.23291015625 10.3125,7.6171875 10.8984375,10.078125 6.09375,10.078125 5.44921875,7.20703125 6.060791015625,4.383544921875 7.8955078125,2.0654296875 10.8068838119507,0.516357421875 14.6484375,0z" />
    </g>
  </g>
</svg>