<?xml version="1.0" encoding="utf-8"?>
<!DOCTYPE svg PUBLIC "-//W3C//DTD SVG 1.1//EN" "http://www.w3.org/Graphics/SVG/1.1/DTD/svg11.dtd">
<svg width="27.59765625" height="44.82421875" xmlns="http://www.w3.org/2000/svg" xmlns:xlink="http://www.w3.org/1999/xlink" xmlns:xml="http://www.w3.org/XML/1998/namespace" version="1.1">
  <g>
    <g>
      <path style="fill:#FF0000;fill-opacity:1" d="M13.53515625,4.04296875L11.5466299057007,4.23248386383057 9.79980373382568,4.80102682113647 8.29467678070068,5.74859714508057 7.03125,7.0751953125 5.3173828125,10.660400390625 4.74609375,15.3515625 4.74609375,23.14453125 6.185302734375,24.788818359375 8.2763671875,26.1474609375 10.740966796875,27.059326171875 13.30078125,27.36328125 17.3767070770264,26.619873046875 20.2880840301514,24.3896484375 22.0349102020264,20.672607421875 22.6171875,15.46875 22.0056133270264,10.81787109375 20.1708984375,7.177734375 18.8388061523438,5.80627536773682 17.288818359375,4.82666158676147 15.5209350585938,4.23889255523682 13.53515625,4.04296875z M13.740234375,0L16.7559795379639,0.265504002571106 19.4457988739014,1.06201314926147 21.8096904754639,2.38952732086182 23.84765625,4.248046875 25.48828125,6.5277099609375 26.66015625,9.11865234375 27.36328125,12.0208740234375 27.59765625,15.234375 27.37060546875,18.834228515625 26.689453125,22.0166015625 25.55419921875,24.781494140625 23.96484375,27.12890625 21.9708232879639,29.000244140625 19.6215801239014,30.3369140625 16.9171123504639,31.138916015625 13.857421875,31.40625 11.1749258041382,31.182861328125 8.78173732757568,30.5126953125 6.67785596847534,29.395751953125 4.86328125,27.83203125 4.74609375,27.83203125 5.3759765625,31.7431640625 6.73828125,34.921875 8.80004787445068,37.34619140625 11.5283203125,38.994140625 15.281982421875,39.96826171875 20.419921875,40.37109375 23.5473613739014,40.4736328125 25.8984375,40.6640625 25.8984375,44.82421875 23.5620098114014,44.6337890625 20.302734375,44.53125 16.9500732421875,44.3865966796875 13.98193359375,44.06982421875 11.3983154296875,43.5809326171875 9.19921875,42.919921875 5.540771484375,40.72998046875 2.5927734375,37.1484375 1.45843505859375,34.654541015625 0.648193359375,31.4501953125 0.16204833984375,27.535400390625 0,22.91015625 0,15.29296875 0.223388671875,11.9110107421875 0.8935546875,8.91357421875 2.010498046875,6.3006591796875 3.57421875,4.072265625 5.5499267578125,2.29065036773682 7.90283203125,1.01806783676147 10.6329345703125,0.254517674446106 13.740234375,0z" />
    </g>
  </g>
</svg>