<?xml version="1.0" encoding="utf-8"?>
<!DOCTYPE svg PUBLIC "-//W3C//DTD SVG 1.1//EN" "http://www.w3.org/Graphics/SVG/1.1/DTD/svg11.dtd">
<svg width="22.3828125" height="30" xmlns="http://www.w3.org/2000/svg" xmlns:xlink="http://www.w3.org/1999/xlink" xmlns:xml="http://www.w3.org/XML/1998/namespace" version="1.1">
  <g>
    <g>
      <path style="fill:#FF0000;fill-opacity:1" d="M16.2890625,0L22.08984375,0 22.08984375,4.1015625 16.201171875,4.1015625 11.8780517578125,4.62890720367432 8.57666015625,6.21093893051147 6.2969970703125,8.84765720367432 5.0390625,12.5390625 20.947265625,12.5390625 20.947265625,16.640625 4.86328125,16.640625 5.8685302734375,20.69091796875 8.09326171875,23.583984375 11.5374755859375,25.31982421875 16.201171875,25.8984375 22.3828125,25.8984375 22.3828125,30 15.732421875,30 12.2772216796875,29.7573852539063 9.20654296875,29.029541015625 6.5203857421875,27.8164672851563 4.21875,26.1181640625 2.373046875,24.0042114257813 1.0546875,21.544189453125 0.263671875,18.7380981445313 0,15.5859375 0.27557373046875,12.2067260742188 1.102294921875,9.188232421875 2.48016357421875,6.53045654296875 4.4091796875,4.2333984375 6.80511474609375,2.38128757476807 9.583740234375,1.05835103988647 12.7450561523438,0.264588475227356 16.2890625,0z" />
    </g>
  </g>
</svg>