<?xml version="1.0" encoding="utf-8"?>
<!DOCTYPE svg PUBLIC "-//W3C//DTD SVG 1.1//EN" "http://www.w3.org/Graphics/SVG/1.1/DTD/svg11.dtd">
<svg width="22.3828125" height="30" xmlns="http://www.w3.org/2000/svg" xmlns:xlink="http://www.w3.org/1999/xlink" xmlns:xml="http://www.w3.org/XML/1998/namespace" version="1.1">
  <g>
    <g>
      <path style="fill:#FF0000;fill-opacity:1" d="M0.29296875,0L6.6796875,0 10.1220703125,0.242615818977356 13.18359375,0.970460414886475 15.8642578125,2.18353366851807 18.1640625,3.8818359375 20.0097637176514,5.99578857421875 21.3281230926514,8.455810546875 22.1191387176514,11.2619018554688 22.3828125,14.4140625 22.1081523895264,17.80517578125 21.2841777801514,20.830078125 19.9108867645264,23.48876953125 17.98828125,25.78125 15.5987548828125,27.626953125 12.82470703125,28.9453125 9.6661376953125,29.736328125 6.123046875,30 0,30 0,25.8984375 6.181640625,25.8984375 10.7208251953125,25.31982421875 14.11376953125,23.583984375 16.3604736328125,20.69091796875 17.4609375,16.640625 1.46484375,16.640625 1.46484375,12.5390625 17.4609375,12.5390625 16.2945556640625,8.84765720367432 14.02587890625,6.21093893051147 10.6549072265625,4.62890720367432 6.181640625,4.1015625 0.29296875,4.1015625 0.29296875,0z" />
    </g>
  </g>
</svg>