<?xml version="1.0" encoding="utf-8"?>
<!DOCTYPE svg PUBLIC "-//W3C//DTD SVG 1.1//EN" "http://www.w3.org/Graphics/SVG/1.1/DTD/svg11.dtd">
<svg width="31.81640625" height="39.990234375" xmlns="http://www.w3.org/2000/svg" xmlns:xlink="http://www.w3.org/1999/xlink" xmlns:xml="http://www.w3.org/XML/1998/namespace" version="1.1">
  <g>
    <g>
      <path style="fill:#FF0000;fill-opacity:1" d="M15.380859375,3.427734375L13.564453125,3.4423828125 12.216796875,3.486328125 12.216796875,19.98046875 14.736328125,19.98046875 17.36572265625,19.771728515625 19.39453125,19.1455078125 20.8996562957764,18.065185546875 21.9580078125,16.494140625 22.5842266082764,14.3627948760986 22.79296875,11.6015625 22.3681621551514,7.92480564117432 21.09375,5.390625 18.81591796875,3.91845703125 15.380859375,3.427734375z M0,0L17.021484375,0 20.4949932098389,0.16571044921875 23.5034160614014,0.662841796875 26.0467510223389,1.49139404296875 28.125,2.6513671875 29.739990234375,4.15557861328125 30.8935546875,6.016845703125 31.585693359375,8.23516845703125 31.81640625,10.810546875 31.38427734375,14.4506855010986 30.087890625,17.578125 27.97119140625,20.101318359375 25.078125,21.9287109375 21.3867168426514,23.038330078125 16.875,23.408203125 14.28955078125,23.37890625 12.216796875,23.291015625 12.216796875,32.666015625 12.2753896713257,34.57763671875 12.451171875,35.80078125 13.3447265625,37.20703125 14.278564453125,37.68310546875 15.76171875,38.056640625 15.76171875,39.990234375 0,39.990234375 0,38.056640625 1.32934594154358,37.6171875 2.15332055091858,37.119140625 2.92968773841858,35.7275390625 3.08349609375,34.522705078125 3.13476586341858,32.63671875 3.13476586341858,7.3828125 3.087158203125,5.496826171875 2.94433617591858,4.2919921875 2.16796898841858,2.900390625 1.33300805091858,2.39501953125 0,1.93359375 0,0z" />
    </g>
  </g>
</svg>