<?xml version="1.0" encoding="utf-8"?>
<!DOCTYPE svg PUBLIC "-//W3C//DTD SVG 1.1//EN" "http://www.w3.org/Graphics/SVG/1.1/DTD/svg11.dtd">
<svg width="33.45703125" height="42.12890625" xmlns="http://www.w3.org/2000/svg" xmlns:xlink="http://www.w3.org/1999/xlink" xmlns:xml="http://www.w3.org/XML/1998/namespace" version="1.1">
  <g>
    <g>
      <path style="fill:#FF0000;fill-opacity:1" d="M22.91015625,4.306640625L20.958251953125,4.77905416488647 18.9697265625,6.1962890625 17.164306640625,8.236083984375 15.76171875,10.576171875 14.6118154525757,13.5791015625 13.564453125,17.607421875 13.330078125,18.69140625 12.861328125,22.939453125 13.0407705307007,24.77783203125 13.5791015625,26.015625 14.5422353744507,26.71875 15.99609375,26.953125 18.662109375,26.2939453125 19.830322265625,25.426025390625 20.9326171875,24.140625 21.9873046875,22.430419921875 23.0126953125,20.2880859375 23.9538555145264,17.698974609375 24.755859375,14.6484375 25.48828125,8.5546875 25.3308086395264,6.668701171875 24.8583984375,5.3466796875 24.0563945770264,4.56665182113647 22.91015625,4.306640625z M9.990234375,0L12.1765127182007,0.340577602386475 13.8720703125,1.3623046875 14.959716796875,2.94067525863647 15.322265625,4.951171875 15.146484375,6.357421875 15.439453125,6.591796875 18.0908203125,3.62548971176147 20.654296875,1.58203125 23.37158203125,0.395509243011475 26.484375,0 29.4250469207764,0.600587368011475 31.6259765625,2.40234375 32.999267578125,5.33935689926147 33.45703125,9.345703125 33.17138671875,13.2861328125 32.314453125,17.197265625 30.9228515625,20.826416015625 29.033203125,23.9208984375 26.6198711395264,26.44775390625 23.6572265625,28.3740234375 20.211181640625,29.593505859375 16.34765625,30 13.7841787338257,29.77294921875 11.30859375,29.091796875 10.1953125,34.306640625 9.814453125,36.3134765625 9.697265625,37.646484375 10.3564453125,39.462890625 11.253662109375,39.92431640625 12.626953125,40.1953125 12.3046875,42.12890625 0.11718761920929,42.12890625 7.529296875,9.169921875 7.85888671875,7.46337890625 7.96875,6.26953125 7.646484375,4.775390625 6.533203125,4.248046875 5.58837842941284,4.45312643051147 4.5703125,5.068359375 3.42773413658142,6.08642578125 2.109375,7.5 0,5.390625 2.76489233970642,2.84912252426147 5.2001953125,1.201171875 7.532958984375,0.300294399261475 9.990234375,0z" />
    </g>
  </g>
</svg>