<?xml version="1.0" encoding="utf-8"?>
<!DOCTYPE svg PUBLIC "-//W3C//DTD SVG 1.1//EN" "http://www.w3.org/Graphics/SVG/1.1/DTD/svg11.dtd">
<svg width="36.181640625" height="40.458984375" xmlns="http://www.w3.org/2000/svg" xmlns:xlink="http://www.w3.org/1999/xlink" xmlns:xml="http://www.w3.org/XML/1998/namespace" version="1.1">
  <g>
    <g>
      <path style="fill:#FF0000;fill-opacity:1" d="M0,0L15.380859375,0 15.380859375,1.93359375 14.08447265625,2.376708984375 13.2421875,2.8857421875 12.421875,4.3798828125 12.2680654525757,5.606689453125 12.216796875,7.3828125 12.216796875,26.71875 12.3669424057007,29.86083984375 12.8173828125,32.373046875 13.65234375,34.32861328125 14.9560546875,35.80078125 16.805419921875,36.7236328125 19.27734375,37.03125 21.8847637176514,36.73095703125 23.73046875,35.830078125 24.9792461395264,34.390869140625 25.7958984375,32.4755859375 26.2463359832764,29.791259765625 26.396484375,26.044921875 26.396484375,7.353515625 26.3488750457764,5.489501953125 26.2060546875,4.2919921875 25.458984375,2.900390625 24.6386699676514,2.39501953125 23.291015625,1.93359375 23.291015625,0 36.181640625,0 36.181640625,1.93359375 34.8779296875,2.373046875 34.072265625,2.87109375 33.2958984375,4.2626953125 33.131103515625,5.467529296875 33.076171875,7.353515625 33.076171875,25.6640625 32.838134765625,29.80224609375 32.1240234375,33.017578125 30.9375,35.489501953125 29.2822265625,37.3974609375 27.2021465301514,38.79638671875 24.7412109375,39.7412109375 21.8225078582764,40.279541015625 18.369140625,40.458984375 14.53125,40.242919921875 11.337890625,39.5947265625 8.734130859375,38.5107421875 6.6650390625,36.9873046875 5.09765625,35.057373046875 3.99902296066284,32.75390625 3.350830078125,29.90478515625 3.134765625,26.337890625 3.134765625,7.3828125 3.087158203125,5.496826171875 2.9443359375,4.2919921875 2.16796922683716,2.900390625 1.3330078125,2.39501953125 0,1.93359375 0,0z" />
    </g>
  </g>
</svg>