<?xml version="1.0" encoding="utf-8"?>
<!DOCTYPE svg PUBLIC "-//W3C//DTD SVG 1.1//EN" "http://www.w3.org/Graphics/SVG/1.1/DTD/svg11.dtd">
<svg width="19.365234375" height="35.712890625" xmlns="http://www.w3.org/2000/svg" xmlns:xlink="http://www.w3.org/1999/xlink" xmlns:xml="http://www.w3.org/XML/1998/namespace" version="1.1">
  <g>
    <g>
      <path style="fill:#FF0000;fill-opacity:1" d="M8.02734375,0L12.0703125,0 10.458984375,7.236328125 19.365234375,7.236328125 18.720703125,10.1953125 9.814453125,10.1953125 7.20703125,21.5625 6.58447265625,24.407958984375 6.240234375,26.3232421875 6.03515625,28.65234375 6.2237548828125,30.24169921875 6.78955078125,31.376953125 7.7325439453125,32.05810546875 9.052734375,32.28515625 10.3820791244507,32.039794921875 11.7919921875,31.3037109375 13.377685546875,29.974365234375 15.234375,27.94921875 16.93359375,29.70703125 14.432373046875,32.38037109375 12.0263671875,34.248046875 9.61303615570068,35.3466796875 7.08984375,35.712890625 4.4110107421875,35.3265380859375 2.49755859375,34.16748046875 1.3494873046875,32.2357177734375 0.966796875,29.53125 1.46484327316284,25.400390625 4.921875,10.1953125 0,10.1953125 0.439453125,8.173828125 1.959228515625,8.09326362609863 3.0615234375,7.91015625 4.5556640625,7.265625 5.654296875,6.09375 6.62109375,4.1455078125 7.20703125,2.51586985588074 8.02734375,0z" />
    </g>
  </g>
</svg>