<?xml version="1.0" encoding="utf-8"?>
<!DOCTYPE svg PUBLIC "-//W3C//DTD SVG 1.1//EN" "http://www.w3.org/Graphics/SVG/1.1/DTD/svg11.dtd">
<svg width="24.19921875" height="52.587890625" xmlns="http://www.w3.org/2000/svg" xmlns:xlink="http://www.w3.org/1999/xlink" xmlns:xml="http://www.w3.org/XML/1998/namespace" version="1.1">
  <g>
    <g>
      <path style="fill:#FF0000;fill-opacity:1" d="M19.8046875,11.220703125L21.474609375,11.220703125 15.380859375,39.990234375 14.27490234375,44.007568359375 12.83203125,47.1533203125 10.97900390625,49.5263671875 8.642578125,51.2255859375 5.8154296875,52.247314453125 2.49023413658142,52.587890625 0,52.294921875 0.673828125,49.716796875 1.53808617591858,49.892578125 2.900390625,49.951171875 5.2880859375,49.5263671875 7.119140625,48.1201171875 7.935791015625,46.944580078125 8.6865234375,45.380859375 9.378662109375,43.36669921875 10.01953125,40.83984375 14.765625,19.74609375 15.27099609375,17.1533203125 15.439453125,15.3515625 15.281982421875,14.2456073760986 14.8095703125,13.564453125 13.875732421875,13.1982440948486 12.333984375,13.037109375 12.65625,11.484375 19.8046875,11.220703125z M19.013671875,0L24.19921875,0 22.8515625,5.68359375 17.666015625,5.68359375 19.013671875,0z" />
    </g>
  </g>
</svg>