<?xml version="1.0" encoding="utf-8"?>
<!DOCTYPE svg PUBLIC "-//W3C//DTD SVG 1.1//EN" "http://www.w3.org/Graphics/SVG/1.1/DTD/svg11.dtd">
<svg width="49.306640625" height="40.95703125" xmlns="http://www.w3.org/2000/svg" xmlns:xlink="http://www.w3.org/1999/xlink" xmlns:xml="http://www.w3.org/XML/1998/namespace" version="1.1">
  <g>
    <g>
      <path style="fill:#FF0000;fill-opacity:1" d="M18.046875,0L20.5078125,0.3076171875 22.4267578125,1.4501953125 23.243408203125,2.4755859375 23.96484375,3.8818359375 24.6020488739014,5.701904296875 25.166015625,7.96875 25.6860332489014,10.8325214385986 26.19140625,14.443359375 26.484375,14.443359375 28.212890625,11.572265625 29.9752807617188,8.675537109375 31.688232421875,6.2255859375 33.3517456054688,4.222412109375 34.9658203125,2.666015625 38.221435546875,0.66650390625 41.630859375,0 43.956298828125,0.274658203125 45.8935546875,1.0986328125 47.618408203125,2.633056640625 49.306640625,5.0390625 44.94140625,6.9140625 43.8720703125,4.98046875 42.83203125,3.6328125 41.78466796875,2.841796875 40.693359375,2.578125 39.1552734375,2.87109375 37.763671875,3.9990234375 36.9140625,5.042724609375 35.888671875,6.50390625 34.39453125,8.79638767242432 32.138671875,12.333984375 27.041015625,20.21484375 27.5738506317139,23.15185546875 28.0590801239014,25.693359375 28.4967021942139,27.83935546875 28.88671875,29.58984375 29.8168926239014,33.01025390625 30.732421875,35.302734375 31.4208965301514,36.361083984375 32.138671875,37.0166015625 33.69140625,37.470703125 35.057373046875,37.276611328125 36.3427734375,36.6943359375 37.855224609375,35.504150390625 39.90234375,33.486328125 41.630859375,35.09765625 38.78173828125,37.899169921875 36.328125,39.6826171875 34.02099609375,40.638427734375 31.611328125,40.95703125 28.4326171875,40.3125 27.3010234832764,39.466552734375 26.337890625,38.2177734375 25.4956035614014,36.419677734375 24.7265625,33.92578125 24.0234375,30.53466796875 23.37890625,26.044921875 23.0859375,26.044921875 22.15576171875,27.689208984375 20.888671875,29.8095703125 19.5703125,31.915283203125 18.486328125,33.515625 15.5712890625,37.119140625 12.8466796875,39.3603515625 10.2685546875,40.546875 7.67578172683716,40.927734375 5.350341796875,40.653076171875 3.41308617591858,39.8291015625 1.688232421875,38.294677734375 0,35.888671875 4.36523485183716,34.013671875 5.4345703125,35.947265625 6.474609375,37.294921875 7.52197217941284,38.0859375 8.61328125,38.349609375 10.1513671875,38.056640625 11.54296875,36.9287109375 12.3925771713257,35.885009765625 13.41796875,34.423828125 14.9121084213257,32.13134765625 17.16796875,28.59375 19.9951171875,24.13330078125 22.5,20.302734375 21.573486328125,15.3771991729736 20.7861328125,11.6162109375 20.07568359375,8.80004978179932 19.3798828125,6.708984375 18.658447265625,5.225830078125 17.87109375,4.2333984375 15.966796875,3.486328125 14.6008291244507,3.680419921875 13.3154296875,4.2626953125 11.8029775619507,5.452880859375 9.755859375,7.470703125 8.02734375,5.859375 10.8544921875,3.076171875 13.30078125,1.2890625 15.615234375,0.322265625 18.046875,0z" />
    </g>
  </g>
</svg>