<?xml version="1.0" encoding="utf-8"?>
<!DOCTYPE svg PUBLIC "-//W3C//DTD SVG 1.1//EN" "http://www.w3.org/Graphics/SVG/1.1/DTD/svg11.dtd">
<svg width="28.330078125" height="39.990234375" xmlns="http://www.w3.org/2000/svg" xmlns:xlink="http://www.w3.org/1999/xlink" xmlns:xml="http://www.w3.org/XML/1998/namespace" version="1.1">
  <g>
    <g>
      <path style="fill:#FF0000;fill-opacity:1" d="M0,0L28.330078125,0 28.330078125,9.31640625 24.31640625,9.31640625 23.4228496551514,6.983642578125 22.67578125,5.5517578125 21.064453125,3.9990234375 19.79736328125,3.570556640625 17.87109375,3.427734375 12.216796875,3.427734375 12.216796875,18.33984375 15.966796875,18.33984375 18.0908203125,17.9150390625 19.3212890625,16.494140625 19.764404296875,15.2929706573486 20.126953125,13.681640625 23.4375,13.681640625 23.4375,26.455078125 20.126953125,26.455078125 19.73876953125,24.818115234375 19.27734375,23.5986328125 18.046875,22.177734375 15.966796875,21.767578125 12.216796875,21.767578125 12.216796875,32.63671875 12.2753896713257,34.573974609375 12.451171875,35.8154296875 13.3740234375,37.2509765625 14.315185546875,37.723388671875 15.76171875,38.056640625 15.76171875,39.990234375 0,39.990234375 0,38.056640625 1.30737280845642,37.635498046875 2.12402319908142,37.1337890625 2.91503882408142,35.7275390625 3.07983350753784,34.515380859375 3.13476538658142,32.607421875 3.13476538658142,7.3828125 3.08715772628784,5.496826171875 2.94433569908142,4.2919921875 2.16796851158142,2.900390625 1.33300757408142,2.39501953125 0,1.93359375 0,0z" />
    </g>
  </g>
</svg>