<?xml version="1.0" encoding="utf-8"?>
<!DOCTYPE svg PUBLIC "-//W3C//DTD SVG 1.1//EN" "http://www.w3.org/Graphics/SVG/1.1/DTD/svg11.dtd">
<svg width="26.5429687500003" height="41.103515625" xmlns="http://www.w3.org/2000/svg" xmlns:xlink="http://www.w3.org/1999/xlink" xmlns:xml="http://www.w3.org/XML/1998/namespace" version="1.1">
  <g>
    <g>
      <path style="fill:#FF0000;fill-opacity:1" d="M15.64453125,2.314453125L12.81005859375,2.91870260238647 10.283203125,4.7314453125 8.162841796875,7.569580078125 6.5478515625,11.25 5.526123046875,15.34423828125 5.185546875,19.423828125 5.394287109375,22.086181640625 6.0205078125,23.9794921875 7.137451171875,25.111083984375 8.818359375,25.48828125 10.6640625,25.0927734375 12.6123046875,23.818359375 14.6044921875,21.6796875 16.40625,19.1455078125 17.9296875,16.1279296875 19.130859375,11.923828125 19.39453125,10.6640625 19.833984375,6.6796875 19.59228515625,4.70581197738647 18.8671875,3.3544921875 17.578125,2.57446432113647 15.64453125,2.314453125z M15.1171875,0L18.57421875,0.4248046875 21.97265625,1.93359375 24.66796875,0 26.54296875,0.46875 19.04296875,33.779296875 18.66943359375,35.7275390625 18.544921875,37.119140625 19.2041015625,38.9501953125 20.181884765625,39.400634765625 21.796875,39.66796875 21.533203125,41.103515625 12.392578125,41.103515625 17.431640625,21.884765625 17.021484375,21.708984375 14.476318359375,24.8291015625 11.8798828125,27.099609375 9.29077053070068,28.48388671875 6.767578125,28.9453125 3.90746998786926,28.33740234375 1.77246069908142,26.513671875 0.443114846944809,23.59130859375 0,19.6875 0.494384378194809,14.747314453125 1.97753882408142,10.0048828125 4.32495069503784,5.85205078125 7.412109375,2.6806640625 11.0668935775757,0.670167446136475 15.1171875,0z" />
    </g>
  </g>
</svg>