<?xml version="1.0" encoding="utf-8"?>
<!DOCTYPE svg PUBLIC "-//W3C//DTD SVG 1.1//EN" "http://www.w3.org/Graphics/SVG/1.1/DTD/svg11.dtd">
<svg width="36.09375" height="39.990234375" xmlns="http://www.w3.org/2000/svg" xmlns:xlink="http://www.w3.org/1999/xlink" xmlns:xml="http://www.w3.org/XML/1998/namespace" version="1.1">
  <g>
    <g>
      <path style="fill:#FF0000;fill-opacity:1" d="M0,0L15.615234375,0 15.615234375,1.93359375 13.9233388900757,2.63671875 13.359375,4.16015625 13.7255859375,5.9765625 14.912109375,8.7890625 19.86328125,19.8046875 25.224609375,9.052734375 26.3232421875,6.3720703125 26.630859375,4.248046875 26.0302734375,2.5927734375 24.345703125,1.93359375 24.345703125,0 36.09375,0 36.09375,1.93359375 34.7900390625,2.4169921875 33.662109375,3.3837890625 32.197265625,5.361328125 31.28173828125,6.87744140625 30.234375,8.7890625 21.826171875,24.609375 21.826171875,32.63671875 21.884765625,34.573974609375 22.060546875,35.8154296875 22.9833984375,37.2509765625 23.9245586395264,37.723388671875 25.37109375,38.056640625 25.37109375,39.990234375 9.19921875,39.990234375 9.19921875,38.056640625 11.1181640625,37.529296875 12.1875,36.591796875 12.6416015625,35.0244140625 12.744140625,32.63671875 12.744140625,24.609375 4.8046875,7.8515625 3.47168016433716,5.1708984375 2.2998046875,3.28125 1.25976550579071,2.28515625 0,1.93359375 0,0z" />
    </g>
  </g>
</svg>