<?xml version="1.0" encoding="utf-8"?>
<!DOCTYPE svg PUBLIC "-//W3C//DTD SVG 1.1//EN" "http://www.w3.org/Graphics/SVG/1.1/DTD/svg11.dtd">
<svg width="26.806640625" height="28.505859375" xmlns="http://www.w3.org/2000/svg" xmlns:xlink="http://www.w3.org/1999/xlink" xmlns:xml="http://www.w3.org/XML/1998/namespace" version="1.1">
  <g>
    <g>
      <path style="fill:#FF0000;fill-opacity:1" d="M8.525390625,0L10.177001953125,0.303956508636475 11.4404296875,1.2158203125 12.2424306869507,2.61840963363647 12.509765625,4.39453125 11.953125,7.412109375 12.333984375,7.55859375 15.150146484375,4.18213033676147 17.8564453125,1.845703125 20.526123046875,0.483399868011475 23.232421875,0.029296875 26.806640625,0.3515625 25.400390625,6.9140625 22.3828125,6.9140625 21.884765625,5.009765625 21.123046875,4.072265625 20.009765625,3.80859375 18.907470703125,4.03564596176147 17.7099609375,4.716796875 16.387939453125,5.88134765625 14.912109375,7.55859375 12.4365234375,11.279296875 11.5905752182007,13.30810546875 10.8984375,15.8203125 8.115234375,28.505859375 3.04687523841858,28.505859375 7.294921875,9.931640625 7.6318359375,8.37158203125 7.822265625,7.20703125 7.939453125,5.595703125 7.55859375,3.896484375 6.357421875,3.369140625 4.4384765625,4.1162109375 3.240966796875,5.167236328125 1.66992211341858,6.826171875 0,5.185546875 2.4755859375,2.77954244613647 4.51171875,1.1865234375 6.42333936691284,0.296632289886475 8.525390625,0z" />
    </g>
  </g>
</svg>