<?xml version="1.0" encoding="utf-8"?>
<!DOCTYPE svg PUBLIC "-//W3C//DTD SVG 1.1//EN" "http://www.w3.org/Graphics/SVG/1.1/DTD/svg11.dtd">
<svg width="31.259765625" height="42.12890625" xmlns="http://www.w3.org/2000/svg" xmlns:xlink="http://www.w3.org/1999/xlink" xmlns:xml="http://www.w3.org/XML/1998/namespace" version="1.1">
  <g>
    <g>
      <path style="fill:#FF0000;fill-opacity:1" d="M17.109375,4.599609375L14.5458984375,5.2734375 12.509765625,7.1923828125 11.9165029525757,8.514404296875 11.71875,9.990234375 11.71875,19.921875 12.0300283432007,23.052978515625 12.9638671875,25.2392578125 14.549560546875,26.524658203125 16.81640625,26.953125 19.193115234375,26.246337890625 20.9326171875,24.1259765625 21.9982891082764,20.694580078125 22.353515625,16.0546875 22.2738628387451,13.3282470703125 22.0349102020264,10.97900390625 21.6366558074951,9.0069580078125 21.0791015625,7.412109375 19.449462890625,5.30273580551147 17.109375,4.599609375z M20.830078125,0L23.2745342254639,0.229798436164856 25.3930644989014,0.919190883636475 27.1856670379639,2.06817722320557 28.65234375,3.6767578125 29.7930908203125,5.74310302734375 30.60791015625,8.265380859375 31.0968017578125,11.2435913085938 31.259765625,14.677734375 31.0446166992188,18.262939453125 30.399169921875,21.3720703125 29.3234252929688,24.005126953125 27.8173828125,26.162109375 25.8901958465576,27.8411865234375 23.5510234832764,29.04052734375 20.7998638153076,29.7601318359375 17.63671875,30 14.6484375,29.8095703125 11.71875,29.23828125 11.71875,34.775390625 11.7773427963257,36.650390625 11.953125,37.880859375 12.7880859375,39.31640625 13.619384765625,39.7998046875 14.912109375,40.1953125 14.912109375,42.12890625 0.322265386581421,42.12890625 0.322265386581421,40.1953125 1.49047839641571,39.76318359375 2.2412109375,39.287109375 3.017578125,37.8955078125 3.193359375,36.668701171875 3.251953125,34.775390625 3.251953125,9.140625 3.2373046875,7.19970703125 3.193359375,5.888671875 2.8564453125,4.2333984375 1.9921875,3.1640625 1.20117163658142,2.78320455551147 0,2.4609375 0,0.46875 8.115234375,0.234375 11.71875,0.234375 11.279296875,4.482421875 11.630859375,4.5703125 14.066162109375,2.47924947738647 16.3330078125,1.0693359375 18.548583984375,0.267335414886475 20.830078125,0z" />
    </g>
  </g>
</svg>