<?xml version="1.0" encoding="utf-8"?>
<!DOCTYPE svg PUBLIC "-//W3C//DTD SVG 1.1//EN" "http://www.w3.org/Graphics/SVG/1.1/DTD/svg11.dtd">
<svg width="34.39453125" height="41.953125" xmlns="http://www.w3.org/2000/svg" xmlns:xlink="http://www.w3.org/1999/xlink" xmlns:xml="http://www.w3.org/XML/1998/namespace" version="1.1">
  <g>
    <g>
      <path style="fill:#FF0000;fill-opacity:1" d="M8.14453125,0L11.77734375,0 11.77734375,24.697265625 12.744140625,24.697265625 14.35546875,24.4921875 15.5712890625,23.8330078125 17.51953125,22.1923828125 19.51171875,20.0830078125 20.419921875,18.4716796875 20.654296875,17.138671875 20.01708984375,15.5346698760986 18.10546875,14.765625 18.10546875,12.890625 32.75390625,12.890625 32.75390625,14.765625 30.1904296875,15.8203125 28.3923320770264,17.1826190948486 25.78125,19.51171875 21.533203125,23.466796875 29.091796875,34.658203125 30.5419921875,36.76025390625 31.552734375,38.0859375 32.9296875,39.4189453125 34.39453125,40.01953125 34.39453125,41.953125 20.068359375,41.953125 20.068359375,40.01953125 21.05712890625,39.54345703125 21.38671875,38.642578125 20.8740234375,36.8408203125 20.115966796875,35.511474609375 18.8671875,33.603515625 16.611328125,30.205078125 15.380859375,28.5498046875 14.4580078125,27.7734375 13.18359375,27.509765625 11.77734375,27.509765625 11.77734375,33.486328125 11.8212881088257,35.83740234375 11.953125,37.32421875 12.6708984375,39.0087890625 13.4509267807007,39.576416015625 14.70703125,40.01953125 14.70703125,41.953125 0.351562738418579,41.953125 0.351562738418579,40.01953125 1.61132824420929,39.580078125 2.40234351158142,39.0234375 3.13476586341858,37.3681640625 3.26660180091858,35.877685546875 3.31054711341858,33.486328125 3.31054711341858,10.634765625 3.28857445716858,7.94677734375 3.22265648841858,6.15234375 2.85644555091858,4.1162109375 2.03613305091858,3.0322265625 1.256103515625,2.662353515625 0,2.34375 0,0.41015625 8.14453125,0z" />
    </g>
  </g>
</svg>