<?xml version="1.0" encoding="utf-8"?>
<!DOCTYPE svg PUBLIC "-//W3C//DTD SVG 1.1//EN" "http://www.w3.org/Graphics/SVG/1.1/DTD/svg11.dtd">
<svg width="31.2304687500001" height="42.421875" xmlns="http://www.w3.org/2000/svg" xmlns:xlink="http://www.w3.org/1999/xlink" xmlns:xml="http://www.w3.org/XML/1998/namespace" version="1.1">
  <g>
    <g>
      <path style="fill:#FF0000;fill-opacity:1" d="M14.6484375,15.46875L12.227783203125,16.1828632354736 10.4150390625,18.3251953125 9.28344631195068,21.763916015625 8.90625,26.3671875 9.22119045257568,31.40625 10.166015625,34.98046875 11.7773427963257,37.11181640625 14.091796875,37.822265625 16.5966796875,37.1923828125 18.69140625,35.2587890625 19.32861328125,33.856201171875 19.541015625,32.255859375 19.541015625,22.5 19.24072265625,19.38720703125 18.33984375,17.197265625 16.81640625,15.9008808135986 14.6484375,15.46875z M24.345703125,0L28.0078125,0 28.0078125,33.3984375 28.0261211395264,35.32470703125 28.0810546875,36.650390625 28.41796875,38.291015625 29.267578125,39.3017578125 30.05126953125,39.671630859375 31.23046875,39.990234375 31.23046875,41.953125 23.26171875,42.216796875 19.716796875,42.216796875 19.98046875,37.998046875 19.541015625,37.96875 17.376708984375,39.862060546875 15.1025390625,41.2646484375 12.821044921875,42.132568359375 10.634765625,42.421875 8.13629150390625,42.1929931640625 5.972900390625,41.50634765625 4.14459228515625,40.3619384765625 2.6513671875,38.759765625 1.49139404296875,36.697998046875 0.66284167766571,34.1748046875 0.165710344910622,31.190185546875 0,27.744140625 0.40283191204071,23.155517578125 1.61132860183716,19.3505859375 3.61450171470642,16.3513202667236 6.4013671875,14.1796875 9.90600490570068,12.8613300323486 14.0625,12.421875 16.5966796875,12.5830078125 19.541015625,13.212890625 19.541015625,10.546875 19.51904296875,7.869873046875 19.453125,6.1083984375 19.0869140625,4.1162109375 18.251953125,3.046875 17.46826171875,2.68798828125 16.23046875,2.373046875 16.23046875,0.41015625 24.345703125,0z" />
    </g>
  </g>
</svg>