<?xml version="1.0" encoding="utf-8"?>
<!DOCTYPE svg PUBLIC "-//W3C//DTD SVG 1.1//EN" "http://www.w3.org/Graphics/SVG/1.1/DTD/svg11.dtd">
<svg width="34.306640625" height="40.458984375" xmlns="http://www.w3.org/2000/svg" xmlns:xlink="http://www.w3.org/1999/xlink" xmlns:xml="http://www.w3.org/XML/1998/namespace" version="1.1">
  <g>
    <g>
      <path style="fill:#FF0000;fill-opacity:1" d="M0.322265386581421,0L12.451171875,0 12.12890625,1.435546875 10.1220703125,2.197265625 9.111328125,3.9111328125 8.818359375,6.85546875 8.84033203125,7.73437595367432 8.90625,9.4921875 9.7265625,30.9375 9.7265625,33.28125 10.01953125,33.28125 22.705078125,10.400390625 24.375,6.9287109375 24.931640625,4.365234375 24.1992168426514,2.40234375 22.001953125,1.435546875 22.32421875,0 34.306640625,0 33.984375,1.435546875 32.4755859375,2.0361328125 30.8642578125,3.6474609375 29.725341796875,5.299072265625 28.095703125,7.998046875 9.345703125,40.458984375 5.44921875,40.458984375 3.486328125,7.79296875 3.06152296066284,4.5263671875 2.0947265625,2.40234375 1.24145495891571,1.77978515625 0,1.435546875 0.322265386581421,0z" />
    </g>
  </g>
</svg>