<?xml version="1.0" encoding="utf-8"?>
<!DOCTYPE svg PUBLIC "-//W3C//DTD SVG 1.1//EN" "http://www.w3.org/Graphics/SVG/1.1/DTD/svg11.dtd">
<svg width="39.375" height="39.990234375" xmlns="http://www.w3.org/2000/svg" xmlns:xlink="http://www.w3.org/1999/xlink" xmlns:xml="http://www.w3.org/XML/1998/namespace" version="1.1">
  <g>
    <g>
      <path style="fill:#FF0000;fill-opacity:1" d="M21.62109375,3.427734375L19.365234375,3.486328125 12.12890625,36.416015625 14.296875,36.533203125 17.816162109375,36.15966796875 20.8154296875,35.0390625 23.4008769989014,33.153076171875 25.6787109375,30.4833984375 27.5756816864014,27.0849609375 29.0185546875,23.0126953125 29.9304180145264,18.592529296875 30.234375,14.150390625 30.0659160614014,11.3745136260986 29.560546875,9.08203125 28.7585430145264,7.22900390625 27.7001953125,5.771484375 24.9462890625,3.9697265625 21.62109375,3.427734375z M8.056640625,0L19.921875,0 24.2724590301514,0.1318359375 27.65625,0.52734375 32.4755859375,2.138671875 34.427490234375,3.33984375 35.91796875,4.658203125 37.357177734375,6.573486328125 38.4521484375,8.9208984375 39.144287109375,11.7077655792236 39.375,14.94140625 39.1552734375,18.75732421875 38.49609375,22.412109375 37.408447265625,25.850830078125 35.9033203125,29.0185546875 34.02099609375,31.83837890625 31.8017578125,34.2333984375 29.4103984832764,36.17431640625 27.01171875,37.6318359375 21.591796875,39.4189453125 18.2958984375,39.847412109375 14.443359375,39.990234375 0,39.990234375 0.41015625,38.056640625 1.86035144329071,37.412109375 2.87109375,36.416015625 3.64013671875,34.74609375 4.36523389816284,32.080078125 9.697265625,7.91015625 10.078125,4.482421875 9.5068359375,2.6806640625 7.646484375,1.93359375 8.056640625,0z" />
    </g>
  </g>
</svg>