<?xml version="1.0" encoding="utf-8"?>
<!DOCTYPE svg PUBLIC "-//W3C//DTD SVG 1.1//EN" "http://www.w3.org/Graphics/SVG/1.1/DTD/svg11.dtd">
<svg width="39.66796875" height="40.927734375" xmlns="http://www.w3.org/2000/svg" xmlns:xlink="http://www.w3.org/1999/xlink" xmlns:xml="http://www.w3.org/XML/1998/namespace" version="1.1">
  <g>
    <g>
      <path style="fill:#FF0000;fill-opacity:1" d="M10.4296875,0L13.0444326400757,0.41748046875 14.970703125,1.669921875 16.23779296875,3.8232421875 16.875,6.943359375 17.11669921875,11.0595722198486 17.197265625,16.201171875 17.1533203125,20.55908203125 17.021484375,25.48828125 16.5234375,35.185546875 16.81640625,35.185546875 21.551513671875,29.736328125 25.7958984375,24.287109375 29.3151836395264,19.119873046875 31.875,14.5166015625 33.43505859375,10.5578632354736 33.955078125,7.32421875 33.80126953125,5.69091796875 33.33984375,4.482421875 32.52685546875,3.7353515625 31.318359375,3.486328125 29.296875,3.9990234375 28.0151348114014,4.808349609375 26.279296875,6.2109375 24.55078125,4.599609375 26.9567852020264,2.486572265625 29.1943359375,1.0693359375 31.387939453125,0.267333984375 33.662109375,0 36.2896728515625,0.3717041015625 38.16650390625,1.48681640625 39.2926025390625,3.3453369140625 39.66796875,5.947265625 39.3035888671875,8.43841648101807 38.21044921875,11.4587421417236 36.3885498046875,15.0082406997681 33.837890625,19.0869140625 30.5987529754639,23.6288452148438 26.7114238739014,28.568115234375 22.1759014129639,33.9047241210938 16.9921875,39.638671875 12.919921875,40.927734375 11.71875,40.927734375 11.8084716796875,36.1395263671875 11.87255859375,31.97021484375 11.9110107421875,28.4197998046875 11.923828125,25.48828125 11.883544921875,20.028076171875 11.7626953125,15.7177734375 11.583251953125,12.2351093292236 11.3671875,9.2578125 11.08154296875,6.93603515625 10.693359375,5.419921875 9.6533203125,3.896484375 8.14453125,3.486328125 6.60278224945068,3.74267578125 5.02441358566284,4.51171875 3.40209913253784,5.76416015625 1.72851526737213,7.470703125 0,5.859375 2.88940382003784,3.057861328125 5.3466796875,1.2744140625 7.73803663253784,0.318603515625 10.4296875,0z" />
    </g>
  </g>
</svg>