<?xml version="1.0" encoding="utf-8"?>
<!DOCTYPE svg PUBLIC "-//W3C//DTD SVG 1.1//EN" "http://www.w3.org/Graphics/SVG/1.1/DTD/svg11.dtd">
<svg width="41.865234375" height="53.056640625" xmlns="http://www.w3.org/2000/svg" xmlns:xlink="http://www.w3.org/1999/xlink" xmlns:xml="http://www.w3.org/XML/1998/namespace" version="1.1">
  <g>
    <g>
      <path style="fill:#FF0000;fill-opacity:1" d="M41.044921875,0L41.865234375,1.728515625 40.1806640625,6.99462985992432 38.818359375,12.7734375 33.720703125,37.6171875 32.6513671875,41.605224609375 31.201171875,44.8974609375 29.3847637176514,47.574462890625 27.216796875,49.716796875 24.8657207489014,51.30615234375 22.5,52.32421875 17.900390625,53.056640625 14.5166006088257,52.55859375 11.455078125,51.064453125 8.8330078125,48.6328125 6.76757764816284,45.322265625 11.220703125,42.890625 13.0004873275757,46.175537109375 14.94140625,48.4716796875 17.109375,49.822998046875 19.5703125,50.2734375 22.364501953125,49.7314453125 24.5361328125,48.10546875 26.2390117645264,45.263671875 27.626953125,41.07421875 28.18359375,38.84765625 29.2163066864014,34.79736328125 30.029296875,31.904296875 29.765625,31.875 27.4035625457764,34.105224609375 24.7119140625,35.7568359375 21.763916015625,36.778564453125 18.6328125,37.119140625 15.19775390625,36.43798828125 12.626953125,34.39453125 11.02294921875,31.16455078125 10.48828125,26.923828125 11.015625,20.419921875 11.832275390625,16.53076171875 13.2275390625,12.0703125 14.9670400619507,7.73437595367432 16.81640625,4.21875 16.7578125,3.92578125 12.4841299057007,4.03564453125 9.3896484375,4.365234375 7.236328125,4.95849609375 5.7861328125,5.859375 4.962158203125,7.1484375 4.6875,8.90625 4.94384765625,10.5615253448486 5.71289014816284,12.5390625 1.20117175579071,14.296875 0.278320819139481,12.3193359375 0,10.283203125 0.73242175579071,7.79296875 1.89331078529358,6.24755859375 3.61816453933716,4.658203125 7.7490234375,2.0361328125 12.275390625,0.703125 14.4360342025757,0.52734375 17.51953125,0.46875 20.859375,0.46875 21.6796875,2.197265625 20.74951171875,4.50439453125 19.775390625,7.265625 17.958984375,13.359375 17.24853515625,16.160888671875 16.7578125,18.3544921875 16.1572265625,22.5146484375 15.9375,26.66015625 16.259765625,29.578857421875 17.2265625,31.7724609375 18.78662109375,33.145751953125 20.888671875,33.603515625 24.287109375,32.8857421875 27.4365234375,30.76171875 29.794921875,28.0224609375 30.99609375,24.990234375 34.921875,6.4453125 35.654296875,3.369140625 36.4453125,0.9375 41.044921875,0z" />
    </g>
  </g>
</svg>