<?xml version="1.0" encoding="utf-8"?>
<!DOCTYPE svg PUBLIC "-//W3C//DTD SVG 1.1//EN" "http://www.w3.org/Graphics/SVG/1.1/DTD/svg11.dtd">
<svg width="26.71875" height="30" xmlns="http://www.w3.org/2000/svg" xmlns:xlink="http://www.w3.org/1999/xlink" xmlns:xml="http://www.w3.org/XML/1998/namespace" version="1.1">
  <g>
    <g>
      <path style="fill:#FF0000;fill-opacity:1" d="M17.138671875,0L21.9873046875,0.3662109375 26.71875,1.34765625 25.1953125,8.349609375 21.474609375,8.349609375 20.994873046875,5.98388671875 20.0830078125,4.3359375 18.709716796875,3.36914205551147 16.845703125,3.046875 15.076904296875,3.29956197738647 13.6962890625,4.0576171875 12.8063955307007,5.24780416488647 12.509765625,6.796875 12.7587881088257,8.22509765625 13.505859375,9.462890625 14.970703125,10.751953125 17.373046875,12.333984375 20.0390625,14.208984375 21.826171875,16.142578125 22.8369121551514,18.27392578125 23.173828125,20.7421875 22.7746562957764,23.5107421875 21.5771484375,25.83984375 19.6875,27.67822265625 17.2119140625,28.974609375 14.249267578125,29.74365234375 10.8984375,30 5.33203125,29.6484375 0,28.59375 1.640625,21.328125 5.361328125,21.328125 5.77514600753784,23.67919921875 6.7236328125,25.458984375 8.265380859375,26.57958984375 10.458984375,26.953125 12.5097646713257,26.671142578125 14.033203125,25.8251953125 14.97802734375,24.466552734375 15.29296875,22.646484375 14.8828125,20.56640625 13.53515625,18.9111328125 12.3046865463257,17.984619140625 10.48828125,16.81640625 7.957763671875,15.025634765625 6.2255859375,13.1689453125 5.22582960128784,11.165771484375 4.892578125,8.935546875 5.09399366378784,6.90673923492432 5.69824171066284,5.12695455551147 6.70532178878784,3.59619235992432 8.115234375,2.314453125 11.9824209213257,0.578614711761475 17.138671875,0z" />
    </g>
  </g>
</svg>