<?xml version="1.0" encoding="utf-8"?>
<!DOCTYPE svg PUBLIC "-//W3C//DTD SVG 1.1//EN" "http://www.w3.org/Graphics/SVG/1.1/DTD/svg11.dtd">
<svg width="29.6484375000003" height="42.36328125" xmlns="http://www.w3.org/2000/svg" xmlns:xlink="http://www.w3.org/1999/xlink" xmlns:xml="http://www.w3.org/XML/1998/namespace" version="1.1">
  <g>
    <g>
      <path style="fill:#FF0000;fill-opacity:1" d="M15.64453125,15.703125L12.81005859375,16.3073749542236 10.283203125,18.1201171875 8.162841796875,20.958251953125 6.5478515625,24.638671875 5.526123046875,28.73291015625 5.185546875,32.8125 5.394287109375,35.474853515625 6.0205078125,37.3681640625 7.137451171875,38.499755859375 8.818359375,38.876953125 10.6640625,38.4814453125 12.6123046875,37.20703125 14.6044921875,35.068359375 16.40625,32.5341796875 17.9296875,29.5166015625 19.130859375,25.3125 19.39453125,24.052734375 19.833984375,20.068359375 19.59228515625,18.0944843292236 18.8671875,16.7431640625 17.578125,15.9631366729736 15.64453125,15.703125z M27.919921875,0L29.6484375,0 22.353515625,32.431640625 21.8701152801514,34.951171875 21.708984375,36.767578125 22.08984375,38.466796875 23.291015625,38.994140625 25.166015625,38.2763671875 26.3671855926514,37.232666015625 27.978515625,35.537109375 29.6484375,37.177734375 27.1655254364014,39.60205078125 25.107421875,41.19140625 23.1884746551514,42.0703125 21.123046875,42.36328125 19.48974609375,42.06298828125 18.22265625,41.162109375 17.40966796875,39.76318359375 17.138671875,37.96875 17.8125,34.541015625 17.431640625,34.423828125 14.6923828125,37.97607421875 12.099609375,40.4296875 9.50683498382568,41.85791015625 6.767578125,42.333984375 3.90746998786926,41.72607421875 1.77246069908142,39.90234375 0.443114846944809,36.97998046875 0,33.076171875 0.494384378194809,28.135986328125 1.97753882408142,23.3935546875 4.32495069503784,19.24072265625 7.412109375,16.0693359375 11.0668935775757,14.0588397979736 15.1171875,13.388671875 18.4130859375,13.7548828125 21.50390625,15.029296875 23.02734375,8.26171875 23.4375,6.123046875 23.61328125,4.072265625 23.291015625,2.7392578125 22.3681640625,2.080078125 21.5295391082764,1.904296875 20.21484375,1.787109375 20.56640625,0.263671875 27.919921875,0z" />
    </g>
  </g>
</svg>