<?xml version="1.0" encoding="utf-8"?>
<!DOCTYPE svg PUBLIC "-//W3C//DTD SVG 1.1//EN" "http://www.w3.org/Graphics/SVG/1.1/DTD/svg11.dtd">
<svg width="27.5390625" height="28.0078125" xmlns="http://www.w3.org/2000/svg" xmlns:xlink="http://www.w3.org/1999/xlink" xmlns:xml="http://www.w3.org/XML/1998/namespace" version="1.1">
  <g>
    <g>
      <path style="fill:#FF0000;fill-opacity:1" d="M6.15234375,0L26.982421875,0 27.5390625,1.46484375 13.564453125,17.51953125 9.76318359375,21.826171875 6.50390625,25.4296875 6.6796875,25.634765625 13.30078125,25.634765625 14.853515625,25.587158203125 15.99609375,25.4443359375 17.63671875,24.7265625 19.0869140625,23.1298828125 19.925537109375,21.756591796875 20.947265625,19.775390625 23.5546875,19.775390625 21.767578125,28.0078125 0.556640803813934,28.0078125 0,26.572265625 16.025390625,8.115234375 18.9697265625,4.78271484375 21.005859375,2.578125 20.830078125,2.373046875 13.974609375,2.373046875 12.6562490463257,2.42431783676147 11.748046875,2.578125 10.341796875,3.2958984375 8.8330078125,4.8193359375 7.979736328125,6.046142578125 7.03125,7.705078125 4.423828125,7.705078125 6.15234375,0z" />
    </g>
  </g>
</svg>