<?xml version="1.0" encoding="utf-8"?>
<!DOCTYPE svg PUBLIC "-//W3C//DTD SVG 1.1//EN" "http://www.w3.org/Graphics/SVG/1.1/DTD/svg11.dtd">
<svg width="41.30859375" height="40.634765625" xmlns="http://www.w3.org/2000/svg" xmlns:xlink="http://www.w3.org/1999/xlink" xmlns:xml="http://www.w3.org/XML/1998/namespace" version="1.1">
  <g>
    <g>
      <path style="fill:#FF0000;fill-opacity:1" d="M24.43359375,3.251953125L20.771484375,20.068359375 25.72265625,20.68359375 28.9746074676514,20.357666015625 31.58203125,19.3798828125 33.55224609375,17.84912109375 34.892578125,15.8642578125 35.66162109375,13.4875507354736 35.91796875,10.78125 35.291748046875,7.44140720367432 33.4130859375,5.09765625 31.9711284637451,4.2901611328125 30.1501445770264,3.71337890625 27.9501323699951,3.3673095703125 25.37109375,3.251953125 24.43359375,3.251953125z M22.79296875,0L25.458984375,0 30.93017578125,0.303955078125 34.98046875,1.2158203125 37.85888671875,2.669677734375 39.814453125,4.599609375 40.93505859375,6.99462890625 41.30859375,9.84375 40.711669921875,13.6743183135986 38.9208984375,17.138671875 36.09375,20.03173828125 32.3876953125,22.1484375 27.8137187957764,23.44482421875 22.3828125,23.876953125 20.009765625,23.7890625 18.720703125,29.912109375 17.5634765625,33.75 15.849609375,36.6650390625 13.154296875,38.935546875 10.0927734375,40.283203125 7.119140625,40.634765625 5.009765625,40.323486328125 3.13476538658142,39.3896484375 1.47216796875,37.818603515625 0,35.595703125 3.98437523841858,33.310546875 5.19287109375,35.423583984375 6.357421875,36.8994140625 7.55859327316284,37.767333984375 8.876953125,38.056640625 10.283203125,37.7783203125 11.5576171875,36.6796875 12.5537109375,34.365234375 13.0480947494507,32.40966796875 13.681640625,29.53125 17.373046875,11.689453125 18.7646484375,6.943359375 19.617919921875,5.0537109375 20.5078125,3.603515625 20.44921875,3.310546875 16.497802734375,3.43505859375 13.4326171875,3.80859375 11.1474609375,4.464111328125 9.5361328125,5.4345703125 8.580322265625,6.771240234375 8.26171875,8.525390625 8.51806640625,10.2465839385986 9.287109375,12.24609375 4.775390625,14.00390625 3.85253882408142,12.0263671875 3.57421898841858,9.990234375 3.76464819908142,8.72314643859863 4.3359375,7.44140625 5.57373046875,5.83740234375 7.41210985183716,4.189453125 11.77734375,1.5673828125 16.845703125,0.263671875 19.38720703125,0.06591796875 22.79296875,0z" />
    </g>
  </g>
</svg>