<?xml version="1.0" encoding="utf-8"?>
<!DOCTYPE svg PUBLIC "-//W3C//DTD SVG 1.1//EN" "http://www.w3.org/Graphics/SVG/1.1/DTD/svg11.dtd">
<svg width="49.423828125" height="29.53125" xmlns="http://www.w3.org/2000/svg" xmlns:xlink="http://www.w3.org/1999/xlink" xmlns:xml="http://www.w3.org/XML/1998/namespace" version="1.1">
  <g>
    <g>
      <path style="fill:#FF0000;fill-opacity:1" d="M20.80078125,0L23.6499004364014,0.318604946136475 25.810546875,1.2744140625 27.3779277801514,2.83813619613647 28.447265625,4.98046875 31.212158203125,2.63672018051147 33.5888671875,1.11328125 35.819091796875,0.278321743011475 38.14453125,0 40.286865234375,0.153810024261475 42.0263671875,0.615234375 44.560546875,2.51953125 46.0107421875,5.7421875 46.3513145446777,7.8662109375 46.46484375,10.37109375 46.46484375,21.064453125 46.5087852478027,23.41552734375 46.640625,24.90234375 47.373046875,26.5869140625 48.1640586853027,27.154541015625 49.423828125,27.59765625 49.423828125,29.53125 35.302734375,29.53125 35.302734375,27.59765625 36.416015625,27.2021484375 37.119140625,26.66015625 37.8076171875,24.9609375 37.950439453125,23.4521484375 37.998046875,21.09375 37.998046875,13.2421875 37.9541015625,10.850830078125 37.822265625,8.9501953125 37.1484375,6.357421875 35.9619140625,5.009765625 34.16015625,4.599609375 32.75390625,4.833984375 31.4501953125,5.5517578125 30.322265625,6.533203125 29.5751953125,7.646484375 29.1943359375,9.0234375 29.1174297332764,10.02685546875 29.091796875,11.513671875 29.091796875,21.064453125 29.1284160614014,23.309326171875 29.23828125,24.8291015625 29.94140625,26.6162109375 30.6884765625,27.176513671875 31.81640625,27.59765625 31.81640625,29.53125 17.87109375,29.53125 17.87109375,27.59765625 19.010009765625,27.2021484375 19.7314453125,26.66015625 20.419921875,24.9755859375 20.5517578125,23.470458984375 20.595703125,21.09375 20.595703125,13.2421875 20.5224609375,9.9755859375 20.2734375,7.822265625 19.7900390625,6.38671875 19.0869140625,5.390625 18.1494140625,4.8046875 16.787109375,4.599609375 14.5166015625,5.2734375 12.5244140625,7.1484375 11.9201650619507,8.3935546875 11.71875,9.7265625 11.71875,21.064453125 11.7590322494507,23.404541015625 11.8798828125,24.9169921875 12.568359375,26.6455078125 13.29345703125,27.198486328125 14.4140625,27.59765625 14.4140625,29.53125 0.380859375,29.53125 0.380859375,27.59765625 1.57104480266571,27.158203125 2.3291015625,26.6015625 3.0615234375,24.931640625 3.204345703125,23.44482421875 3.251953125,21.09375 3.251953125,9.052734375 3.233642578125,7.166748046875 3.1787109375,5.8447265625 2.8271484375,4.1748046875 1.9775390625,3.1494140625 1.19750964641571,2.77954244613647 0,2.4609375 0,0.46875 8.02734375,0.234375 11.71875,0.234375 11.279296875,4.453125 11.630859375,4.541015625 14.1650390625,2.41699361801147 16.435546875,1.025390625 18.59619140625,0.256349086761475 20.80078125,0z" />
    </g>
  </g>
</svg>