<?xml version="1.0" encoding="utf-8"?>
<!DOCTYPE svg PUBLIC "-//W3C//DTD SVG 1.1//EN" "http://www.w3.org/Graphics/SVG/1.1/DTD/svg11.dtd">
<svg width="61.962890625" height="40.927734375" xmlns="http://www.w3.org/2000/svg" xmlns:xlink="http://www.w3.org/1999/xlink" xmlns:xml="http://www.w3.org/XML/1998/namespace" version="1.1">
  <g>
    <g>
      <path style="fill:#FF0000;fill-opacity:1" d="M10.4296875,0L12.9089345932007,0.3662109375 14.7802734375,1.46484375 16.06201171875,3.33984375 16.7724609375,6.03515625 16.9583129882813,7.82959032058716 17.091064453125,10.1074228286743 17.1707153320313,12.8686532974243 17.197265625,16.11328125 17.02880859375,25.10009765625 16.5234375,35.185546875 16.81640625,35.185546875 22.14111328125,29.0478515625 26.572265625,23.291015625 29.9597148895264,18.2080078125 32.1533203125,14.091796875 33.350830078125,10.7519550323486 33.75,7.998046875 33.548583984375,6.024169921875 32.9443359375,4.6142578125 31.915283203125,3.768310546875 30.439453125,3.486328125 28.8977031707764,3.74267578125 27.3193359375,4.51171875 25.6970195770264,5.76416015625 24.0234375,7.470703125 22.294921875,5.859375 25.1843242645264,3.021240234375 27.6416015625,1.2451171875 30.0329570770264,0.311279296875 32.724609375,0 35.203857421875,0.3662109375 37.0751953125,1.46484375 38.35693359375,3.33984375 39.0673828125,6.03515625 39.2532348632813,7.82959032058716 39.385986328125,10.1074228286743 39.4656372070313,12.8686532974243 39.4921875,16.11328125 39.32373046875,25.10009765625 38.818359375,35.185546875 39.111328125,35.185546875 43.846435546875,29.736328125 48.0908203125,24.287109375 51.6101036071777,19.119873046875 54.169921875,14.5166015625 55.7299766540527,10.5578632354736 56.25,7.32421875 56.0961875915527,5.69091796875 55.634765625,4.482421875 54.8217735290527,3.7353515625 53.61328125,3.486328125 51.591796875,3.9990234375 50.3100547790527,4.808349609375 48.57421875,6.2109375 46.845703125,4.599609375 49.3798789978027,2.39501953125 51.591796875,0.99609375 53.7084922790527,0.2490234375 55.95703125,0 58.5845909118652,0.3717041015625 60.4614219665527,1.48681640625 61.5875205993652,3.3453369140625 61.962890625,5.947265625 61.5985069274902,8.43841648101807 60.5053672790527,11.4587421417236 58.6834678649902,15.0082406997681 56.1328125,19.0869140625 52.8936729431152,23.6288452148438 49.0063438415527,28.568115234375 44.4708213806152,33.9047241210938 39.287109375,39.638671875 35.361328125,40.927734375 34.16015625,40.927734375 34.365234375,35.11962890625 34.51171875,29.82421875 34.599609375,25.04150390625 34.62890625,20.771484375 34.62890625,18.779296875 34.599609375,16.93359375 34.248046875,16.93359375 31.40625,21.800537109375 27.685546875,27.0849609375 22.93212890625,32.969970703125 16.9921875,39.638671875 12.919921875,40.927734375 11.71875,40.927734375 11.8084716796875,36.207275390625 11.87255859375,32.0654296875 11.9110107421875,28.502197265625 11.923828125,25.517578125 11.88720703125,20.277099609375 11.77734375,16.0400390625 11.60888671875,12.5244159698486 11.396484375,9.4482421875 11.107177734375,7.020263671875 10.7080078125,5.44921875 9.6533203125,3.896484375 8.14453125,3.486328125 6.60278272628784,3.74267578125 5.0244140625,4.51171875 3.40209937095642,5.76416015625 1.72851598262787,7.470703125 0,5.859375 2.20458984375,3.643798828125 3.95507860183716,2.1533203125 7.00195264816284,0.5126953125 10.4296875,0z" />
    </g>
  </g>
</svg>