<?xml version="1.0" encoding="utf-8"?>
<!DOCTYPE svg PUBLIC "-//W3C//DTD SVG 1.1//EN" "http://www.w3.org/Graphics/SVG/1.1/DTD/svg11.dtd">
<svg width="44.384765625" height="42.890625" xmlns="http://www.w3.org/2000/svg" xmlns:xlink="http://www.w3.org/1999/xlink" xmlns:xml="http://www.w3.org/XML/1998/namespace" version="1.1">
  <g>
    <g>
      <path style="fill:#FF0000;fill-opacity:1" d="M25.37109375,2.34375L24.521484375,2.548828125 23.525390625,3.45703125 22.921142578125,4.43115234375 22.2216796875,5.947265625 21.4306640625,8.0712890625 20.5517578125,10.869140625 19.573974609375,14.2968769073486 18.486328125,18.310546875 18.779296875,18.310546875 22.459716796875,14.4506855010986 24.9462890625,11.015625 26.3635234832764,7.79296875 26.8359375,4.5703125 26.4697265625,2.958984375 25.37109375,2.34375z M27.275390625,0L28.9929180145264,0.267333984375 30.2197265625,1.0693359375 30.9558086395264,2.332763671875 31.201171875,3.984375 30.5859375,7.44140625 29.7802715301514,9.1552734375 28.59375,10.95703125 26.9238262176514,12.9931659698486 24.66796875,15.41015625 21.58447265625,18.4423847198486 17.431640625,22.32421875 16.483154296875,26.3031005859375 15.8056631088257,29.68505859375 15.3991689682007,32.4700927734375 15.263671875,34.658203125 15.5712890625,36.796875 16.69921875,38.0419921875 19.04296875,38.525390625 21.595458984375,38.14453125 23.8037109375,37.001953125 25.6054668426514,35.1708984375 26.9384765625,32.724609375 27.7624492645264,29.7802734375 28.037109375,26.455078125 26.8505859375,25.4150390625 26.1474609375,24.3017578125 25.634765625,22.6904296875 25.4296875,20.21484375 28.0957012176514,17.3217792510986 30.9375,15.146484375 31.798095703125,15.5456562042236 32.3876953125,16.7431640625 32.728271484375,18.9074726104736 32.841796875,22.20703125 35.595703125,21.73828125 37.705078125,20.80078125 39.9609375,19.072265625 41.28662109375,17.7612323760986 42.802734375,16.0546875 44.384765625,17.490234375 42.249755859375,20.06103515625 40.2978515625,22.1484375 38.455810546875,23.785400390625 36.650390625,25.0048828125 32.490234375,26.30859375 31.4501953125,30.22705078125 29.384765625,34.189453125 26.5612773895264,37.767333984375 23.2470703125,40.5322265625 19.683837890625,42.301025390625 16.11328125,42.890625 13.6596670150757,42.476806640625 11.865234375,41.2353515625 10.7666015625,39.195556640625 10.400390625,36.38671875 10.6787109375,32.87109375 11.513671875,28.4765625 11.923828125,26.748046875 11.71875,26.748046875 6.42333984375,31.611328125 1.49414038658142,35.888671875 0,34.04296875 6.14501953125,28.85009765625 12.861328125,22.822265625 14.58984375,15.205078125 15.882568359375,10.8178720474243 17.6513671875,7.03125 19.78271484375,3.973388671875 22.1630859375,1.7724609375 24.6936016082764,0.443115234375 27.275390625,0z" />
    </g>
  </g>
</svg>