<?xml version="1.0" encoding="utf-8"?>
<!DOCTYPE svg PUBLIC "-//W3C//DTD SVG 1.1//EN" "http://www.w3.org/Graphics/SVG/1.1/DTD/svg11.dtd">
<svg width="26.630859375" height="51.328125" xmlns="http://www.w3.org/2000/svg" xmlns:xlink="http://www.w3.org/1999/xlink" xmlns:xml="http://www.w3.org/XML/1998/namespace" version="1.1">
  <g>
    <g>
      <path style="fill:#FF0000;fill-opacity:1" d="M14.912109375,0L26.630859375,0 26.30859375,1.435546875 24.7119140625,1.962890625 23.8330078125,2.841796875 23.0419921875,4.6728515625 22.591552734375,6.309814453125 22.03125,8.73046875 15.439453125,38.73046875 14.30419921875,42.835693359375 12.890625,46.0107421875 11.107177734375,48.369140625 8.8623046875,50.0244140625 6.10473585128784,51.002197265625 2.78320217132568,51.328125 0,51.03515625 0.761717796325684,48.22265625 1.62597608566284,48.3984375 2.98828029632568,48.45703125 5.47119092941284,47.918701171875 7.35351467132568,46.3037109375 8.79638576507568,43.546142578125 9.9609375,39.580078125 16.81640625,8.701171875 17.2998027801514,6.07177734375 17.4609375,3.984375 17.2888164520264,2.816162109375 16.7724609375,2.0654296875 15.882568359375,1.636962890625 14.58984375,1.435546875 14.912109375,0z" />
    </g>
  </g>
</svg>