<?xml version="1.0" encoding="utf-8"?>
<!DOCTYPE svg PUBLIC "-//W3C//DTD SVG 1.1//EN" "http://www.w3.org/Graphics/SVG/1.1/DTD/svg11.dtd">
<svg width="54.228515625" height="30" xmlns="http://www.w3.org/2000/svg" xmlns:xlink="http://www.w3.org/1999/xlink" xmlns:xml="http://www.w3.org/XML/1998/namespace" version="1.1">
  <g>
    <g>
      <path style="fill:#FF0000;fill-opacity:1" d="M9.990234375,0L12.1765127182007,0.340577602386475 13.8720703125,1.3623046875 14.959716796875,2.94067525863647 15.322265625,4.951171875 15.146484375,6.357421875 15.498046875,6.533203125 18.123779296875,3.61084127426147 20.6689453125,1.58203125 23.375244140625,0.395509243011475 26.484375,0 29.1027812957764,0.402833461761475 31.0986328125,1.611328125 32.384033203125,3.53027486801147 32.87109375,6.064453125 35.313720703125,3.36547994613647 37.7783203125,1.4794921875 40.418701171875,0.369874477386475 43.388671875,0 46.029052734375,0.417481899261475 48.0322265625,1.669921875 49.2956504821777,3.66943502426147 49.716796875,6.328125 49.5703125,8.466796875 49.130859375,10.869140625 46.7578125,20.302734375 46.34765625,22.20703125 46.259765625,23.73046875 46.640625,25.3125 47.724609375,25.751953125 48.6254844665527,25.550537109375 49.62890625,24.9462890625 50.7788047790527,23.931884765625 52.119140625,22.5 54.228515625,24.609375 51.5075645446777,27.1142578125 49.0869140625,28.76953125 46.702880859375,29.6923828125 44.091796875,30 41.46240234375,29.62646484375 39.609375,28.505859375 38.5107421875,26.6162109375 38.14453125,23.935546875 38.349609375,21.5771484375 38.935546875,18.69140625 40.283203125,13.59375 41.1181640625,9.9462890625 41.392822265625,8.243408203125 41.484375,6.97265625 40.95703125,4.95117330551147 39.375,4.27734375 37.97607421875,4.68017721176147 36.298828125,5.888671875 33.2958984375,9.4189453125 32.244873046875,11.649169921875 31.46484375,14.501953125 28.2421875,29.53125 19.8046875,29.53125 24.08203125,10.8984375 24.521484375,8.6865234375 24.638671875,7.177734375 24.5068340301514,5.863037109375 24.111328125,4.9658203125 22.44140625,4.27734375 20.972900390625,4.69482564926147 19.2626953125,5.947265625 16.3037109375,9.462890625 15.289306640625,11.6455078125 14.501953125,14.501953125 11.220703125,29.53125 2.81250047683716,29.53125 7.529296875,9.169921875 7.85888671875,7.49267578125 7.96875,6.26953125 7.646484375,4.775390625 6.53320264816284,4.248046875 5.58837842941284,4.45312643051147 4.57031202316284,5.068359375 3.42773413658142,6.08642578125 2.10937476158142,7.5 0,5.390625 2.764892578125,2.84912252426147 5.2001953125,1.201171875 7.532958984375,0.300294399261475 9.990234375,0z" />
    </g>
  </g>
</svg>