<?xml version="1.0" encoding="utf-8"?>
<!DOCTYPE svg PUBLIC "-//W3C//DTD SVG 1.1//EN" "http://www.w3.org/Graphics/SVG/1.1/DTD/svg11.dtd">
<svg width="15.380859375" height="39.990234375" xmlns="http://www.w3.org/2000/svg" xmlns:xlink="http://www.w3.org/1999/xlink" xmlns:xml="http://www.w3.org/XML/1998/namespace" version="1.1">
  <g>
    <g>
      <path style="fill:#FF0000;fill-opacity:1" d="M0,0L15.380859375,0 15.380859375,1.93359375 14.08447265625,2.376708984375 13.2421875,2.8857421875 12.421875,4.3798828125 12.2680654525757,5.606689453125 12.216796875,7.3828125 12.216796875,32.63671875 12.2680654525757,34.500732421875 12.421875,35.6982421875 13.2275390625,37.1044921875 14.066162109375,37.613525390625 15.380859375,38.056640625 15.380859375,39.990234375 0,39.990234375 0,38.056640625 1.32934582233429,37.6171875 2.15332007408142,37.119140625 2.92968821525574,35.7275390625 3.08349609375,34.522705078125 3.13476634025574,32.63671875 3.13476634025574,7.353515625 3.087158203125,5.489501953125 2.94433665275574,4.2919921875 2.18261694908142,2.900390625 1.35131847858429,2.39501953125 0,1.93359375 0,0z" />
    </g>
  </g>
</svg>