<?xml version="1.0" encoding="utf-8"?>
<!DOCTYPE svg PUBLIC "-//W3C//DTD SVG 1.1//EN" "http://www.w3.org/Graphics/SVG/1.1/DTD/svg11.dtd">
<svg width="34.74609375" height="48.779296875" xmlns="http://www.w3.org/2000/svg" xmlns:xlink="http://www.w3.org/1999/xlink" xmlns:xml="http://www.w3.org/XML/1998/namespace" version="1.1">
  <g>
    <g>
      <path style="fill:#FF0000;fill-opacity:1" d="M29.443359375,0L33.955078125,0 34.74609375,1.728515625 33.9990234375,3.6181640625 33.570556640625,5.152587890625 33.076171875,7.3828125 27.568359375,33.1640625 26.4477519989014,37.24365234375 24.9609375,40.576171875 21.591796875,44.765625 19.37255859375,46.4794921875 17.2265625,47.63671875 14.3041982650757,48.49365234375 11.044921875,48.779296875 7.96875,48.4716796875 5.24414110183716,47.548828125 2.99560546875,46.1279296875 1.34765648841858,44.326171875 0.3369140625,42.25341796875 0,40.01953125 0.424805015325546,36.9873046875 1.8603515625,34.072265625 4.4970703125,31.0986328125 6.62475538253784,29.351806640625 9.755859375,27.0703125 11.220703125,29.0625 8.26904296875,31.688232421875 6.38671875,33.9990234375 5.3759765625,36.280517578125 5.0390625,38.818359375 5.306396484375,40.968017578125 6.10839891433716,42.7880859375 7.30590772628784,44.2236328125 8.759765625,45.2197265625 10.37109375,45.802001953125 12.041015625,45.99609375 14.4103994369507,45.743408203125 16.4208984375,44.9853515625 18.134765625,43.626708984375 19.6142578125,41.572265625 20.855712890625,38.73046875 21.85546875,35.009765625 26.865234375,11.689453125 27.4768047332764,9.16992378234863 28.1396484375,7.060546875 29.912109375,3.75 29.853515625,3.45703125 25.5871562957764,3.52294921875 22.4560546875,3.720703125 20.2001953125,4.05029296875 18.5595703125,4.51171875 16.6259765625,5.947265625 16.025390625,8.4375 16.28173828125,10.0927753448486 17.05078125,12.0703125 12.5390625,13.828125 11.6162109375,11.8505859375 11.337890625,9.814453125 11.8798828125,7.646484375 12.6159658432007,6.474609375 13.740234375,5.244140625 17.4609375,2.4609375 21.38671875,0.703125 25.1953125,0.087890625 26.9311504364014,0.02197265625 29.443359375,0z" />
    </g>
  </g>
</svg>