<?xml version="1.0" encoding="utf-8"?>
<!DOCTYPE svg PUBLIC "-//W3C//DTD SVG 1.1//EN" "http://www.w3.org/Graphics/SVG/1.1/DTD/svg11.dtd">
<svg width="30.05859375" height="40.01953125" xmlns="http://www.w3.org/2000/svg" xmlns:xlink="http://www.w3.org/1999/xlink" xmlns:xml="http://www.w3.org/XML/1998/namespace" version="1.1">
  <g>
    <g>
      <path style="fill:#FF0000;fill-opacity:1" d="M8.3203125,20.7421875L8.3203125,36.85546875 14.443359375,36.85546875 18.837890625,36.62109375 22.4853515625,35.56640625 23.8915996551514,34.552001953125 24.9755859375,33.1494140625 25.6677227020264,31.278076171875 25.8984375,28.857421875 25.4443359375,25.6787109375 23.818359375,23.1005859375 22.4340801239014,22.119140625 20.625,21.3720703125 18.3251953125,20.899658203125 15.46875,20.7421875 8.3203125,20.7421875z M8.3203125,3.1640625L8.3203125,17.578125 15.76171875,17.578125 19.453125,17.138671875 22.3828125,15.791015625 24.31640625,13.4765625 25.01953125,10.13671875 24.8327617645264,8.21777439117432 24.2724609375,6.6796875 22.1337890625,4.5556640625 18.779296875,3.4716796875 14.384765625,3.1640625 8.3203125,3.1640625z M0,0L15.556640625,0 20.7861328125,0.4248046875 25.1220703125,1.9482421875 26.7883281707764,3.248291015625 28.06640625,4.951171875 28.8793926239014,7.119140625 29.150390625,9.814453125 28.7329082489014,12.9162616729736 27.48046875,15.4833984375 25.3930644989014,17.449951171875 22.470703125,18.75 22.470703125,18.955078125 25.6640625,20.15625 28.0517578125,22.353515625 29.5458984375,25.3564453125 30.05859375,28.9453125 29.443359375,33.10546875 27.7587890625,36.09375 25.224609375,38.1005859375 22.060546875,39.3017578125 18.5009765625,39.873046875 14.765625,40.01953125 0,40.01953125 0,36.85546875 4.39453125,36.85546875 4.39453125,3.1640625 0,3.1640625 0,0z" />
    </g>
  </g>
</svg>