<?xml version="1.0" encoding="utf-8"?>
<!DOCTYPE svg PUBLIC "-//W3C//DTD SVG 1.1//EN" "http://www.w3.org/Graphics/SVG/1.1/DTD/svg11.dtd">
<svg width="26.71875" height="40.458984375" xmlns="http://www.w3.org/2000/svg" xmlns:xlink="http://www.w3.org/1999/xlink" xmlns:xml="http://www.w3.org/XML/1998/namespace" version="1.1">
  <g>
    <g>
      <path style="fill:#FF0000;fill-opacity:1" d="M1.494140625,0L24.990234375,0 24.990234375,6.9140625 9.404296875,6.9140625 9.404296875,16.025390625 11.8798828125,15.6958026885986 14.853515625,15.5859375 17.5451641082764,15.7763681411743 19.9072246551514,16.3476581573486 21.9396953582764,17.2998065948486 23.642578125,18.6328125 24.9884033203125,20.3228759765625 25.94970703125,22.34619140625 26.5264892578125,24.7027587890625 26.71875,27.392578125 26.279296875,31.25244140625 24.9609375,34.51171875 22.8405742645264,37.1044921875 19.9951171875,38.96484375 16.505126953125,40.08544921875 12.451171875,40.458984375 6.1376953125,40.0341796875 0,38.525390625 1.81640625,32.783203125 4.50439453125,33.665771484375 6.708984375,34.2041015625 10.693359375,34.5703125 13.9013671875,34.141845703125 16.201171875,32.8564453125 17.58544921875,30.750732421875 18.046875,27.861328125 17.5634765625,25.1806640625 16.11328125,23.173828125 13.8427734375,21.92138671875 10.8984375,21.50390625 8.2470703125,21.7236328125 6.005859375,22.20703125 1.494140625,19.921875 1.494140625,0z" />
    </g>
  </g>
</svg>