<?xml version="1.0" encoding="utf-8"?>
<!DOCTYPE svg PUBLIC "-//W3C//DTD SVG 1.1//EN" "http://www.w3.org/Graphics/SVG/1.1/DTD/svg11.dtd">
<svg width="40.224609375" height="40.458984375" xmlns="http://www.w3.org/2000/svg" xmlns:xlink="http://www.w3.org/1999/xlink" xmlns:xml="http://www.w3.org/XML/1998/namespace" version="1.1">
  <g>
    <g>
      <path style="fill:#FF0000;fill-opacity:1" d="M26.455078125,0L29.6585083007813,0.1959228515625 32.442626953125,0.78369140625 34.8074340820313,1.7633056640625 36.7529296875,3.134765625 38.2717895507813,4.89990234375 39.356689453125,7.060546875 40.0076293945313,9.61669921875 40.224609375,12.568359375 39.521484375,17.691650390625 37.412109375,22.7490234375 35.7916259765625,25.2969360351563 33.74267578125,27.916259765625 31.2652587890625,30.6069946289063 28.359375,33.369140625 28.125,34.16015625 30.64453125,34.16015625 32.4755859375,33.9697265625 33.837890625,33.2080078125 34.5263671875,32.347412109375 35.361328125,30.908203125 39.228515625,30.908203125 35.625,40.458984375 20.302734375,40.458984375 21.298828125,35.771484375 24.2614727020264,31.929931640625 26.8212890625,27.7294921875 28.8500957489014,23.3935546875 30.2197265625,19.1455078125 30.9997539520264,15.0769062042236 31.259765625,11.279296875 30.9191875457764,7.86254978179932 29.8974609375,5.4052734375 28.1872539520264,3.922119140625 25.78125,3.427734375 23.173828125,3.9697265625 20.5224609375,5.7861328125 19.24072265625,7.261962890625 18.0615234375,9.140625 16.142578125,13.828125 15.05859375,18.8671875 14.765625,23.818359375 15.0732412338257,30.1904296875 15.99609375,35.771484375 14.970703125,40.458984375 0,40.458984375 1.318359375,30.908203125 4.658203125,30.908203125 4.830322265625,32.30712890625 5.1123046875,33.1640625 6.064453125,33.955078125 7.705078125,34.16015625 11.015625,34.16015625 11.25,33.369140625 9.254150390625,30.18310546875 7.7783203125,26.66015625 6.86645412445068,22.939453125 6.5625,19.16015625 7.18139553070068,14.1137714385986 9.0380859375,9.462890625 12.030029296875,5.496826171875 16.0546875,2.5048828125 20.92529296875,0.626220703125 26.455078125,0z" />
    </g>
  </g>
</svg>