<?xml version="1.0" encoding="utf-8"?>
<!DOCTYPE svg PUBLIC "-//W3C//DTD SVG 1.1//EN" "http://www.w3.org/Graphics/SVG/1.1/DTD/svg11.dtd">
<svg width="33.251953125" height="39.990234375" xmlns="http://www.w3.org/2000/svg" xmlns:xlink="http://www.w3.org/1999/xlink" xmlns:xml="http://www.w3.org/XML/1998/namespace" version="1.1">
  <g>
    <g>
      <path style="fill:#FF0000;fill-opacity:1" d="M8.5546875,5.888671875L8.5546875,34.1015625 11.806640625,34.1015625 16.083984375,33.74267578125 19.189453125,32.666015625 21.4270000457764,30.794677734375 23.1005859375,28.0517578125 24.1442852020264,24.385986328125 24.4921875,19.74609375 24.2028789520264,15.4064960479736 23.3349609375,11.9384765625 21.8298320770264,9.28711128234863 19.62890625,7.3974609375 16.57470703125,6.265869140625 12.509765625,5.888671875 8.5546875,5.888671875z M0,0L11.71875,0 17.508544921875,0.296630859375 21.9873046875,1.1865234375 25.458984375,2.640380859375 28.2275390625,4.62890625 30.3662109375,7.19238376617432 31.9482421875,10.37109375 32.926025390625,14.3042011260986 33.251953125,19.130859375 32.77587890625,24.99755859375 31.34765625,29.70703125 29.14306640625,33.37646484375 26.337890625,36.123046875 23.0895977020264,38.03466796875 19.5556640625,39.19921875 15.208740234375,39.79248046875 9.521484375,39.990234375 0,39.990234375 0,0z" />
    </g>
  </g>
</svg>