<?xml version="1.0" encoding="utf-8"?>
<!DOCTYPE svg PUBLIC "-//W3C//DTD SVG 1.1//EN" "http://www.w3.org/Graphics/SVG/1.1/DTD/svg11.dtd">
<svg width="33.6328125" height="30.29296875" xmlns="http://www.w3.org/2000/svg" xmlns:xlink="http://www.w3.org/1999/xlink" xmlns:xml="http://www.w3.org/XML/1998/namespace" version="1.1">
  <g>
    <g>
      <path style="fill:#FF0000;fill-opacity:1" d="M14.384765625,5.5078125L12.2021484375,6.0498046875 10.2978515625,7.763671875 8.9501953125,10.810546875 8.565673828125,12.8759765625 8.4375,15.322265625 8.507080078125,17.74658203125 8.7158203125,19.74609375 9.521484375,22.6318359375 10.7958984375,24.19921875 12.48046875,24.66796875 14.94140625,24.2578125 16.904296875,22.880859375 18.544921875,20.302734375 19.2919921875,18.49365234375 20.009765625,16.2890625 19.5703125,13.3740234375 19.130859375,11.015625 18.6474609375,9.14794921875 18.076171875,7.705078125 16.58203125,5.9912109375 14.384765625,5.5078125z M14.0625,0L17.6220703125,0.4833984375 20.33203125,1.8896484375 22.353515625,4.189453125 23.876953125,7.32421875 24.228515625,7.32421875 25.2685546875,3.9990234375 26.015625,0.76171875 33.6328125,0.76171875 32.109375,4.1748046875 30.5712890625,7.4853515625 28.8134765625,11.1474609375 26.630859375,15.5859375 27.59765625,19.21875 28.53515625,22.03125 29.677734375,23.84765625 31.259765625,24.4921875 32.255859375,24.4921875 32.373046875,29.912109375 29.8681640625,30.2197265625 27.099609375,30.29296875 24.8034648895264,29.86083984375 23.0712890625,28.564453125 21.8518047332764,26.42578125 21.09375,23.466796875 20.80078125,23.466796875 18.7060546875,26.6455078125 16.4501953125,28.7548828125 13.916015625,29.9267578125 10.95703125,30.29296875 8.5400390625,30.03662109375 6.38671875,29.267578125 4.51538038253784,28.040771484375 2.9443359375,26.4111328125 0.76171875,22.03125 0.1904296875,19.3505859375 0,16.40625 0.270996063947678,12.879638671875 1.08398413658142,9.6826171875 2.369384765625,6.8701171875 4.0576171875,4.4970703125 6.11572265625,2.58911275863647 8.5107421875,1.171875 11.1804189682007,0.292970180511475 14.0625,0z" />
    </g>
  </g>
</svg>