<?xml version="1.0" encoding="utf-8"?>
<!DOCTYPE svg PUBLIC "-//W3C//DTD SVG 1.1//EN" "http://www.w3.org/Graphics/SVG/1.1/DTD/svg11.dtd">
<svg width="24.228515625" height="30.41015625" xmlns="http://www.w3.org/2000/svg" xmlns:xlink="http://www.w3.org/1999/xlink" xmlns:xml="http://www.w3.org/XML/1998/namespace" version="1.1">
  <g>
    <g>
      <path style="fill:#FF0000;fill-opacity:1" d="M7.1484375,0L9.638671875,1.48315572738647 11.3671875,2.8857421875 13.330078125,5.771484375 15.3369140625,3.134765625 17.061767578125,1.70654439926147 19.62890625,0 24.228515625,4.1015625 20.390625,7.470703125 17.431640625,4.658203125 16.0546875,5.93994140625 15.087890625,7.3828125 14.5166006088257,9.03076171875 14.326171875,10.927734375 14.326171875,13.0078125 19.013671875,13.0078125 19.013671875,15.41015625 14.326171875,15.41015625 14.326171875,18.486328125 14.6777334213257,21.30615234375 15.732421875,23.49609375 17.3291015625,24.90234375 19.306640625,25.37109375 21.3134765625,24.9462890625 22.880859375,23.7890625 23.61328125,25.751953125 22.060546875,26.865234375 19.2919921875,28.87939453125 17.431640625,30.41015625 15.16845703125,29.21630859375 13.359375,27.861328125 10.60546875,24.2578125 8.1298828125,27.568359375 4.5703125,30.41015625 0,26.396484375 3.31054711341858,22.998046875 6.533203125,25.83984375 8.8330078125,22.4560546875 9.459228515625,20.474853515625 9.66796875,18.486328125 9.66796875,15.41015625 5.0390625,15.41015625 5.0390625,13.0078125 9.66796875,13.0078125 9.66796875,12.861328125 9.3310546875,9.554443359375 8.3203125,7.0751953125 6.76757764816284,5.52612447738647 4.8046875,5.009765625 3.33251953125,5.33935689926147 1.435546875,6.328125 0.96679699420929,4.74609375 3.955078125,2.578125 5.5224609375,1.376953125 7.1484375,0z" />
    </g>
  </g>
</svg>