<?xml version="1.0" encoding="utf-8"?>
<!DOCTYPE svg PUBLIC "-//W3C//DTD SVG 1.1//EN" "http://www.w3.org/Graphics/SVG/1.1/DTD/svg11.dtd">
<svg width="29.5312500000001" height="40.927734375" xmlns="http://www.w3.org/2000/svg" xmlns:xlink="http://www.w3.org/1999/xlink" xmlns:xml="http://www.w3.org/XML/1998/namespace" version="1.1">
  <g>
    <g>
      <path style="fill:#FF0000;fill-opacity:1" d="M14.736328125,5.859375L11.9421377182007,6.36474609375 9.8876953125,7.880859375 8.624267578125,10.2978534698486 8.203125,13.505859375 8.587646484375,16.380615234375 9.7412109375,18.4423828125 11.6418447494507,19.683837890625 14.267578125,20.09765625 16.2158203125,19.921875 17.9736328125,19.365234375 19.5849609375,18.4423828125 20.5810546875,17.5634765625 20.9765625,16.7431640625 21.123046875,15.3515625 20.7128887176514,11.2719745635986 19.482421875,8.291015625 17.4755859375,6.46728515625 14.736328125,5.859375z M15.52734375,0L18.7142925262451,0.2728271484375 21.5075664520264,1.09130859375 23.9071636199951,2.4554443359375 25.9130859375,4.365234375 27.4960327148438,6.78405809402466 28.626708984375,9.67529392242432 29.3051147460938,13.0389413833618 29.53125,16.875 29.1851806640625,22.0742797851563 28.14697265625,26.656494140625 26.4166259765625,30.6216430664063 23.994140625,33.9697265625 20.888671875,36.6842651367188 17.109375,38.748779296875 12.65625,40.1632690429688 7.529296875,40.927734375 6.123046875,34.658203125 9.3585205078125,34.2791748046875 12.15087890625,33.64013671875 14.5001220703125,32.7410888671875 16.40625,31.58203125 19.18212890625,28.33740234375 20.771484375,23.759765625 20.478515625,23.642578125 16.5380859375,25.4150390625 14.051513671875,25.887451171875 10.8984375,26.044921875 7.708740234375,25.6494140625 4.9951171875,24.462890625 2.823486328125,22.569580078125 1.259765625,20.0537109375 0.314941227436066,17.010498046875 0,13.53515625 0.472411930561066,9.79248237609863 1.8896484375,6.474609375 4.185791015625,3.724365234375 7.294921875,1.6845703125 11.1108388900757,0.421142578125 15.52734375,0z" />
    </g>
  </g>
</svg>