<?xml version="1.0" encoding="utf-8"?>
<!DOCTYPE svg PUBLIC "-//W3C//DTD SVG 1.1//EN" "http://www.w3.org/Graphics/SVG/1.1/DTD/svg11.dtd">
<svg width="45.41015625" height="30.087890625" xmlns="http://www.w3.org/2000/svg" xmlns:xlink="http://www.w3.org/1999/xlink" xmlns:xml="http://www.w3.org/XML/1998/namespace" version="1.1">
  <g>
    <g>
      <path style="fill:#FF0000;fill-opacity:1" d="M20.09765625,0L22.67578125,0 21.793212890625,2.40600728988647 20.7275390625,5.8154296875 18.5009765625,13.9013671875 17.62939453125,17.40234375 17.1533203125,19.5556640625 16.875,21.796875 17.2998046875,23.291015625 18.57421875,23.7890625 19.892578125,23.49609375 21.9140625,21.943359375 23.7451171875,19.84130859375 25.83984375,16.93359375 27.1838359832764,14.61181640625 28.4619140625,11.748046875 29.8278789520264,8.00537109375 31.435546875,3.046875 37.55859375,0.087890625 40.13671875,0.087890625 39.03076171875,3.13110494613647 37.822265625,6.7529296875 35.654296875,14.1357421875 34.89990234375,17.171630859375 34.453125,19.3359375 34.16015625,22.3828125 34.4970703125,23.81103515625 35.5078125,24.287109375 36.881103515625,23.97216796875 38.4228515625,23.02734375 40.426025390625,21.2841796875 43.18359375,18.57421875 45.41015625,20.654296875 41.165771484375,25.037841796875 37.6904296875,27.9345703125 34.720458984375,29.549560546875 31.9921875,30.087890625 29.7582988739014,29.82421875 28.154296875,29.033203125 27.1874980926514,27.6416015625 26.865234375,25.576171875 27.1655254364014,22.56591796875 28.06640625,19.04296875 27.568359375,19.04296875 24.0856914520264,23.7744140625 20.5517578125,27.24609375 17.113037109375,29.37744140625 13.916015625,30.087890625 11.85791015625,29.74365234375 10.3125,28.7109375 9.345703125,27.06298828125 9.0234375,24.873046875 9.12139892578125,23.470458984375 9.415283203125,21.5771484375 9.90509033203125,19.193115234375 10.5908203125,16.318359375 11.3442983627319,13.4161376953125 12.0373525619507,10.94970703125 12.6699819564819,8.9190673828125 13.2421875,7.32421875 12.94921875,7.265625 10.535888671875,9.6240234375 7.6904296875,12.5390625 2.25585913658142,18.45703125 0,16.259765625 2.545166015625,13.5177612304688 4.7900390625,11.151123046875 6.734619140625,9.15985107421875 8.37890625,7.5439453125 11.16943359375,4.94751119613647 13.564453125,2.87109375 20.09765625,0z" />
    </g>
  </g>
</svg>