<?xml version="1.0" encoding="utf-8"?>
<!DOCTYPE svg PUBLIC "-//W3C//DTD SVG 1.1//EN" "http://www.w3.org/Graphics/SVG/1.1/DTD/svg11.dtd">
<svg width="49.04296875" height="40.546875" xmlns="http://www.w3.org/2000/svg" xmlns:xlink="http://www.w3.org/1999/xlink" xmlns:xml="http://www.w3.org/XML/1998/namespace" version="1.1">
  <g>
    <g>
      <path style="fill:#FF0000;fill-opacity:1" d="M28.388671875,3.896484375L24.90234375,19.716796875 29.326171875,20.126953125 31.5087890625,19.87060546875 33.544921875,19.1015625 35.291748046875,17.81982421875 36.6064453125,16.025390625 37.430419921875,13.7768573760986 37.705078125,11.1328125 37.159423828125,8.04931735992432 35.5224609375,5.771484375 32.852783203125,4.365234375 29.208984375,3.896484375 28.388671875,3.896484375z M23.056640625,0L28.798828125,0 32.783203125,0.16204833984375 36.2109375,0.648193359375 39.08203125,1.45843505859375 41.396484375,2.5927734375 43.1781005859375,4.05670166015625 44.45068359375,5.855712890625 45.2142333984375,7.98980712890625 45.46875,10.458984375 45.142822265625,13.0773944854736 44.1650390625,15.6005859375 42.550048828125,17.95166015625 40.3125,20.0537109375 37.5732421875,21.778564453125 34.453125,22.998046875 36.708984375,28.6376953125 37.650146484375,30.780029296875 38.3056640625,32.197265625 39.287109375,33.955078125 40.2099609375,35.068359375 41.0888671875,35.6103515625 41.923828125,35.7421875 43.8720703125,35.0537109375 45.076904296875,34.039306640625 46.669921875,32.373046875 49.04296875,34.8046875 46.409912109375,37.408447265625 43.8427734375,39.1845703125 41.231689453125,40.206298828125 38.466796875,40.546875 35.244140625,40.1513671875 32.900390625,38.9794921875 31.1865234375,37.0751953125 29.8388671875,34.39453125 29.1064434051514,32.4755859375 28.1689453125,29.82421875 26.396484375,24.052734375 23.935546875,24.052734375 23.291015625,27.24609375 22.08984375,31.51611328125 20.419921875,34.775390625 18.2666015625,37.218017578125 15.615234375,39.0380859375 12.5170888900757,40.169677734375 9.0234375,40.546875 6.31713819503784,40.20263671875 3.94042992591858,39.169921875 1.849365234375,37.470703125 0,35.126953125 5.537109375,32.021484375 6.50756788253784,34.189453125 7.66113233566284,35.771484375 8.865966796875,36.73828125 9.990234375,37.060546875 11.3232421875,36.826171875 12.2607421875,36.03515625 13.1396484375,34.2626953125 13.5681142807007,32.852783203125 14.00390625,31.0546875 16.93359375,17.16796875 17.999267578125,12.6599140167236 19.0869140625,9.2138671875 20.321044921875,6.529541015625 21.826171875,4.306640625 21.650390625,3.984375 18.30322265625,4.0869140625 15.703125,4.39453125 13.7658681869507,4.9365234375 12.4072265625,5.7421875 11.605224609375,6.86279296875 11.337890625,8.349609375 11.69677734375,10.4077167510986 12.7734375,12.5390625 5.88867139816284,15.380859375 5.09765625,13.7805194854736 4.65820264816284,12.6708984375 4.39453125,10.72265625 4.716796875,9.140625 5.8740234375,7.0458984375 7.939453125,4.7607421875 10.986328125,2.5927734375 14.3994140625,0.9814453125 17.87109375,0.2197265625 20.10498046875,0.054931640625 23.056640625,0z" />
    </g>
  </g>
</svg>