<?xml version="1.0" encoding="utf-8"?>
<!DOCTYPE svg PUBLIC "-//W3C//DTD SVG 1.1//EN" "http://www.w3.org/Graphics/SVG/1.1/DTD/svg11.dtd">
<svg width="28.857421875" height="42.48046875" xmlns="http://www.w3.org/2000/svg" xmlns:xlink="http://www.w3.org/1999/xlink" xmlns:xml="http://www.w3.org/XML/1998/namespace" version="1.1">
  <g>
    <g>
      <path style="fill:#FF0000;fill-opacity:1" d="M13.798828125,18.720703125L11.6198720932007,20.8740234375 10.0634765625,23.525390625 9.129638671875,26.630859375 8.818359375,30.146484375 9.19921875,34.090576171875 10.341796875,37.0166015625 12.1508779525757,38.829345703125 14.53125,39.43359375 16.8310546875,38.865966796875 18.57421875,37.1630859375 19.6728515625,34.398193359375 20.0390625,30.64453125 19.669189453125,27.359619140625 18.5595703125,24.4189453125 16.629638671875,21.610107421875 13.798828125,18.720703125z M14.765625,0L21.064453125,0.6884765625 26.71875,2.724609375 26.71875,8.96484375 22.8515625,8.96484375 21.1193828582764,6.265869140625 19.3798828125,4.4384765625 17.530517578125,3.394775390625 15.46875,3.046875 14.0771484375,3.262939453125 12.94921875,3.9111328125 12.2021474838257,4.852294921875 11.953125,5.947265625 12.158203125,7.470703125 12.9638671875,8.7744140625 14.8095703125,10.5908203125 16.380615234375,11.9348163604736 18.603515625,13.76953125 22.1557598114014,16.7797870635986 24.7265625,19.306640625 26.5429668426514,21.61376953125 27.83203125,23.96484375 28.6010723114014,26.4697265625 28.857421875,29.23828125 28.3886699676514,33.046875 26.982421875,36.328125 24.7448711395264,38.983154296875 21.7822265625,40.9130859375 18.218994140625,42.088623046875 14.1796875,42.48046875 10.2978506088257,42.095947265625 6.85546875,40.9423828125 3.984375,39.085693359375 1.81640648841858,36.591796875 0.454101771116257,33.603515625 0,30.263671875 0.322265833616257,27.052001953125 1.28906273841858,24.2138671875 2.80883812904358,21.734619140625 4.7900390625,19.599609375 7.276611328125,17.6806659698486 10.3125,15.849609375 7.481689453125,13.2385272979736 5.7275390625,11.1474609375 4.815673828125,9.188232421875 4.51171875,6.97265625 4.771728515625,5.152587890625 5.5517578125,3.5009765625 6.9140625,2.083740234375 8.9208984375,0.966796875 11.5466299057007,0.24169921875 14.765625,0z" />
    </g>
  </g>
</svg>