<?xml version="1.0" encoding="utf-8"?>
<!DOCTYPE svg PUBLIC "-//W3C//DTD SVG 1.1//EN" "http://www.w3.org/Graphics/SVG/1.1/DTD/svg11.dtd">
<svg width="49.16015625" height="29.794921875" xmlns="http://www.w3.org/2000/svg" xmlns:xlink="http://www.w3.org/1999/xlink" xmlns:xml="http://www.w3.org/XML/1998/namespace" version="1.1">
  <g>
    <g>
      <path style="fill:#FF0000;fill-opacity:1" d="M13.857421875,5.44921875L12.744140625,9.9169921875 12.275390625,14.47265625 12.5427236557007,18.74267578125 13.3447265625,21.826171875 14.681396484375,23.69384765625 16.552734375,24.31640625 18.218994140625,23.82568359375 19.4677734375,22.353515625 20.247802734375,19.9365234375 20.5078125,16.611328125 20.5078125,10.95703125 28.65234375,10.95703125 28.681640625,16.669921875 28.9453105926514,19.969482421875 29.736328125,22.3681640625 30.98876953125,23.829345703125 32.63671875,24.31640625 34.50439453125,23.701171875 35.830078125,21.85546875 36.62109375,18.7939453125 36.884765625,14.53125 36.50390625,9.9462890625 35.44921875,5.44921875 13.857421875,5.44921875z M0,0L49.16015625,0 49.16015625,5.44921875 43.76953125,5.44921875 45.205078125,10.5615234375 45.703125,16.025390625 45.5099487304688,19.2526245117188 44.930419921875,22.049560546875 43.9645385742188,24.4161987304688 42.6123046875,26.3525390625 40.8975219726563,27.8585815429688 38.843994140625,28.934326171875 36.4517211914063,29.5797729492188 33.720703125,29.794921875 30.6298828125,29.5166015625 28.095703125,28.681640625 26.0815410614014,27.29736328125 24.55078125,25.37109375 24.345703125,25.37109375 22.8845195770264,27.29736328125 20.9033203125,28.681640625 18.424072265625,29.5166015625 15.46875,29.794921875 12.6654052734375,29.578857421875 10.23193359375,28.9306640625 8.1683349609375,27.850341796875 6.47460889816284,26.337890625 5.1544189453125,24.3951416015625 4.21142578125,22.02392578125 3.6456298828125,19.2242431640625 3.45703125,15.99609375 3.9697265625,10.5322265625 5.419921875,5.44921875 0,5.44921875 0,0z" />
    </g>
  </g>
</svg>