<?xml version="1.0" encoding="utf-8"?>
<!DOCTYPE svg PUBLIC "-//W3C//DTD SVG 1.1//EN" "http://www.w3.org/Graphics/SVG/1.1/DTD/svg11.dtd">
<svg width="26.07421875" height="40.458984375" xmlns="http://www.w3.org/2000/svg" xmlns:xlink="http://www.w3.org/1999/xlink" xmlns:xml="http://www.w3.org/XML/1998/namespace" version="1.1">
  <g>
    <g>
      <path style="fill:#FF0000;fill-opacity:1" d="M14.4140625,0L16.611328125,0 16.5939331054688,0.45501708984375 16.571044921875,1.292724609375 16.5426635742188,2.51312255859375 16.5087890625,4.1162109375 16.453857421875,7.43774509429932 16.435546875,10.224609375 16.435546875,31.494140625 16.5380859375,33.211669921875 16.845703125,34.3798828125 18.1494140625,35.771484375 19.2553691864014,36.199951171875 20.7861328125,36.4892578125 22.9797344207764,36.654052734375 26.07421875,36.708984375 26.07421875,40.458984375 1.494140625,40.458984375 1.494140625,36.708984375 4.25537109375,36.624755859375 6.26953125,36.4892578125 7.71972560882568,36.2841796875 8.7890625,35.9912109375 10.13671875,35.15625 10.869140625,33.8525390625 11.1328125,31.494140625 11.1328125,9.9609375 10.810546875,8.5400390625 9.697265625,8.02734375 8.49975490570068,8.26171875 6.8994140625,8.96484375 4.771728515625,10.1953144073486 1.9921875,12.01171875 0,8.5546875 14.4140625,0z" />
    </g>
  </g>
</svg>