<?xml version="1.0" encoding="utf-8"?>
<!DOCTYPE svg PUBLIC "-//W3C//DTD SVG 1.1//EN" "http://www.w3.org/Graphics/SVG/1.1/DTD/svg11.dtd">
<svg width="35.68359375" height="31.201171875" xmlns="http://www.w3.org/2000/svg" xmlns:xlink="http://www.w3.org/1999/xlink" xmlns:xml="http://www.w3.org/XML/1998/namespace" version="1.1">
  <g>
    <g>
      <path style="fill:#FF0000;fill-opacity:1" d="M10.25390625,0L11.8359365463257,1.07666158676147 13.0078125,2.548828125 13.7695302963257,4.52636861801147 14.12109375,7.119140625 19.46044921875,4.28466939926147 25.927734375,0 27.3083477020264,1.30737447738647 29.2236328125,2.6513671875 31.292724609375,3.81225728988647 33.134765625,4.5703125 33.134765625,6.38671875 31.2890625,6.796875 30.3662109375,7.8369140625 30.1574687957764,8.763427734375 30.087890625,10.166015625 30.087890625,20.09765625 30.2124004364014,22.46337890625 30.5859375,24.052734375 31.2524394989014,24.95361328125 32.255859375,25.25390625 33.6474609375,24.990234375 34.921875,24.404296875 35.68359375,26.484375 34.5721435546875,26.9989013671875 32.64404296875,27.95654296875 29.8992919921875,29.3572998046875 26.337890625,31.201171875 24.8474102020264,30.234375 23.7744140625,29.267578125 22.5439453125,26.982421875 22.269287109375,25.4296875 22.177734375,23.408203125 22.177734375,10.107421875 21.4306640625,8.5546875 19.951171875,7.822265625 19.2626953125,7.998046875 18.519287109375,8.32763671875 17.255859375,8.96484375 14.208984375,10.517578125 14.208984375,29.82421875 6.298828125,29.82421875 6.298828125,11.279296875 5.7275390625,8.3642578125 5.028076171875,7.540283203125 4.072265625,7.265625 2.79052710533142,7.59521484375 0.93750011920929,8.583984375 0,6.240234375 2.003173828125,5.26794528961182 4.3798828125,3.90381002426147 7.130126953125,2.14782810211182 10.25390625,0z" />
    </g>
  </g>
</svg>