<?xml version="1.0" encoding="utf-8"?>
<!DOCTYPE svg PUBLIC "-//W3C//DTD SVG 1.1//EN" "http://www.w3.org/Graphics/SVG/1.1/DTD/svg11.dtd">
<svg width="25.37109375" height="51.85546875" xmlns="http://www.w3.org/2000/svg" xmlns:xlink="http://www.w3.org/1999/xlink" xmlns:xml="http://www.w3.org/XML/1998/namespace" version="1.1">
  <g>
    <g>
      <path style="fill:#FF0000;fill-opacity:1" d="M14.384765625,0L14.384765625,2.080078125 11.6931142807007,2.889404296875 9.8876953125,4.2041015625 8.865966796875,6.265869140625 8.525390625,9.31640625 8.525390625,15.615234375 13.9306640625,13.359375 16.461181640625,12.0849628448486 18.33984375,10.95703125 20.167236328125,12.3962421417236 21.4306640625,13.5498046875 23.1005859375,15.703125 24.287109375,18.3984375 24.7338848114014,20.145263671875 25.078125,22.2802734375 25.2978496551514,24.891357421875 25.37109375,28.06640625 25.1705913543701,31.7239379882813 24.5690898895264,35.167236328125 23.5665874481201,38.3963012695313 22.1630859375,41.4111328125 20.3512573242188,44.2446899414063 18.123779296875,46.929931640625 15.4806518554688,49.4668579101563 12.421875,51.85546875 10.458984375,49.98046875 13.0664052963257,48.0029296875 15.205078125,45.99609375 16.9189453125,43.919677734375 18.251953125,41.7333984375 19.921875,36.7529296875 20.3173828125,33.702392578125 20.44921875,30.029296875 20.3567504882813,26.7343139648438 20.079345703125,23.909912109375 19.6170043945313,21.5560913085938 18.9697265625,19.6728515625 18.1210327148438,18.2308959960938 17.054443359375,17.200927734375 15.7699584960938,16.5829467773438 14.267578125,16.376953125 11.8798828125,16.8310546875 8.525390625,18.22265625 8.525390625,34.775390625 9.3603515625,35.5517578125 10.096435546875,36.112060546875 11.396484375,37.060546875 13.623046875,36.09375 14.619140625,37.5 13.30078125,38.3203125 10.5322265625,40.0048828125 8.876953125,41.337890625 5.61767578125,38.5400390625 1.69921839237213,37.177734375 1.69921839237213,35.68359375 3.42773389816284,34.62890625 3.8232421875,33.603515625 3.95507764816284,32.16796875 3.95507764816284,12.01171875 3.85253858566284,9.1552734375 3.51562452316284,7.1923828125 2.95898485183716,5.859375 2.197265625,4.98046875 1.25976550579071,4.3359375 0,3.6328125 0,1.69921875 2.18261671066284,2.3876953125 4.39453172683716,2.6953125 7.2216796875,2.2998046875 9.78515625,1.40625 11.7077627182007,0.65185546875 12.8466796875,0.263671875 14.384765625,0z" />
    </g>
  </g>
</svg>