<?xml version="1.0" encoding="utf-8"?>
<!DOCTYPE svg PUBLIC "-//W3C//DTD SVG 1.1//EN" "http://www.w3.org/Graphics/SVG/1.1/DTD/svg11.dtd">
<svg width="42.36328125" height="29.82421875" xmlns="http://www.w3.org/2000/svg" xmlns:xlink="http://www.w3.org/1999/xlink" xmlns:xml="http://www.w3.org/XML/1998/namespace" version="1.1">
  <g>
    <g>
      <path style="fill:#FF0000;fill-opacity:1" d="M16.9921875,0L19.3212871551514,0.225220799446106 21.2695293426514,0.900880336761475 22.8369121551514,2.02697849273682 24.0234375,3.603515625 26.436767578125,2.02697849273682 28.8427734375,0.900880336761475 31.241455078125,0.225220799446106 33.6328125,0 36.796875,0.3369140625 38.96484375,1.23046875 40.5322265625,2.724609375 41.6162109375,4.6728515625 42.1728515625,7.1630859375 42.315673828125,8.895263671875 42.36328125,11.1328125 42.36328125,29.82421875 34.21875,29.82421875 34.21875,13.271484375 34.134521484375,10.36376953125 33.8818359375,8.5546875 32.724609375,6.6650390625 30.615234375,6.03515625 28.7548828125,6.38671875 26.7919921875,7.7490234375 25.546875,9.814453125 25.25390625,12.65625 25.25390625,29.82421875 17.109375,29.82421875 17.109375,13.271484375 17.025146484375,10.36376953125 16.7724609375,8.5546875 15.615234375,6.6650390625 13.505859375,6.03515625 11.6455078125,6.38671875 9.6826171875,7.7490234375 8.4375,9.814453125 8.14453125,12.65625 8.14453125,29.82421875 0,29.82421875 0,0.46875 4.892578125,0.263671875 7.880859375,0.263671875 7.880859375,2.9296875 8.173828125,2.9296875 10.594482421875,1.55639791488647 12.7587890625,0.6591796875 16.9921875,0z" />
    </g>
  </g>
</svg>