<?xml version="1.0" encoding="utf-8"?>
<!DOCTYPE svg PUBLIC "-//W3C//DTD SVG 1.1//EN" "http://www.w3.org/Graphics/SVG/1.1/DTD/svg11.dtd">
<svg width="60.380859375" height="40.927734375" xmlns="http://www.w3.org/2000/svg" xmlns:xlink="http://www.w3.org/1999/xlink" xmlns:xml="http://www.w3.org/XML/1998/namespace" version="1.1">
  <g>
    <g>
      <path style="fill:#FF0000;fill-opacity:1" d="M51.357421875,0L54.0563926696777,0.3369140625 56.4111328125,1.34765625 58.4948692321777,3.03955078125 60.380859375,5.419921875 54.84375,8.525390625 53.8732872009277,6.357421875 52.7197265625,4.775390625 51.5148887634277,3.80859375 50.390625,3.486328125 49.04296875,3.720703125 48.0615234375,4.5849609375 47.1533203125,6.5185546875 46.376953125,9.4921875 42.451171875,27.861328125 41.7041015625,31.79443359375 41.455078125,34.27734375 41.7919921875,35.7861328125 43.0078125,36.328125 43.941650390625,36.10107421875 45.2197265625,35.419921875 46.746826171875,34.27734375 48.427734375,32.666015625 50.68359375,35.185546875 47.79052734375,37.825927734375 45.029296875,39.5947265625 42.19482421875,40.594482421875 39.08203125,40.927734375 36.46728515625,40.491943359375 34.482421875,39.1845703125 33.22998046875,37.137451171875 32.8125,34.482421875 32.882080078125,33.30322265625 33.0908203125,31.640625 33.720703125,28.30078125 35.302734375,21.73828125 24.55078125,21.73828125 23.291015625,27.626953125 22.108154296875,31.754150390625 20.4931640625,34.9951171875 18.387451171875,37.4853515625 15.732421875,39.3603515625 12.5903310775757,40.535888671875 9.0234375,40.927734375 6.31713819503784,40.58349609375 3.94042921066284,39.55078125 1.84936511516571,37.8515625 0,35.5078125 5.537109375,32.40234375 6.50756788253784,34.5703125 7.6611328125,36.15234375 8.865966796875,37.119140625 9.990234375,37.44140625 11.3232421875,37.20703125 12.2607421875,36.416015625 13.1396484375,34.6435546875 13.5681142807007,33.233642578125 14.00390625,31.435546875 16.93359375,17.548828125 17.947998046875,13.2641620635986 18.9990234375,9.84375 20.233154296875,7.08251953125 21.796875,4.775390625 21.62109375,4.453125 18.153076171875,4.552001953125 15.5419921875,4.8486328125 13.6523427963257,5.372314453125 12.3486328125,6.15234375 11.590576171875,7.2509765625 11.337890625,8.73046875 11.69677734375,10.7885761260986 12.7734375,12.919921875 5.88867235183716,15.76171875 5.09765625,14.1613788604736 4.65820360183716,13.0517578125 4.39453125,11.103515625 4.716796875,9.521484375 5.8740234375,7.4267578125 7.93945360183716,5.1416015625 10.95703125,2.98828125 14.35546875,1.3916015625 17.724609375,0.6591796875 19.92919921875,0.516357421875 23.02734375,0.46875 27.94921875,0.46875 29.150390625,2.607421875 28.2275390625,5.3173828125 27.7478008270264,7.203369140625 27.158203125,9.84375 25.517578125,17.28515625 36.240234375,17.28515625 37.08984375,13.30078125 38.294677734375,9.09668064117432 39.9169921875,5.859375 42.022705078125,3.40576171875 44.677734375,1.552734375 47.8125,0.38818359375 51.357421875,0z" />
    </g>
  </g>
</svg>