<?xml version="1.0" encoding="utf-8"?>
<!DOCTYPE svg PUBLIC "-//W3C//DTD SVG 1.1//EN" "http://www.w3.org/Graphics/SVG/1.1/DTD/svg11.dtd">
<svg width="32.16796875" height="42.5390625" xmlns="http://www.w3.org/2000/svg" xmlns:xlink="http://www.w3.org/1999/xlink" xmlns:xml="http://www.w3.org/XML/1998/namespace" version="1.1">
  <g>
    <g>
      <path style="fill:#FF0000;fill-opacity:1" d="M10.517578125,0L12.5903310775757,0.2197265625 14.53125,0.87890625 16.318359375,2.039794921875 17.9296875,3.7646484375 19.361572265625,6.082763671875 20.6103515625,9.0234375 21.668701171875,12.6562519073486 22.529296875,17.05078125 23.3093242645264,21.6650390625 24.0673828125,25.6640625 24.8876934051514,29.0478515625 25.8544921875,31.81640625 26.9934062957764,33.9697265625 28.330078125,35.5078125 29.9414043426514,36.4306640625 31.904296875,36.73828125 32.16796875,36.73828125 31.962890625,42.1875 29.7509765625,42.4365234375 27.041015625,42.5390625 25.1220684051514,42.308349609375 23.525390625,41.6162109375 22.177734375,40.3564453125 21.005859375,38.4228515625 19.97314453125,35.775146484375 19.04296875,32.373046875 18.14208984375,28.1103515625 17.197265625,22.880859375 17.021484375,22.880859375 9.78515625,42.0703125 0,42.0703125 1.91894555091858,37.8955078125 3.8671875,33.8671875 5.9619140625,29.70703125 8.3203125,25.1220703125 11.044921875,19.86328125 14.23828125,13.65234375 13.6230459213257,11.3635272979736 13.0078125,9.6533203125 11.6748046875,7.55859375 10.0927734375,6.73828125 8.14453125,6.591796875 7.5146484375,6.62109375 6.15234327316284,6.767578125 6.005859375,0.5859375 6.8994140625,0.3515625 8.056640625,0.1611328125 9.3017578125,0.0439453125 10.517578125,0z" />
    </g>
  </g>
</svg>