<?xml version="1.0" encoding="utf-8"?>
<!DOCTYPE svg PUBLIC "-//W3C//DTD SVG 1.1//EN" "http://www.w3.org/Graphics/SVG/1.1/DTD/svg11.dtd">
<svg width="41.71875" height="39.990234375" xmlns="http://www.w3.org/2000/svg" xmlns:xlink="http://www.w3.org/1999/xlink" xmlns:xml="http://www.w3.org/XML/1998/namespace" version="1.1">
  <g>
    <g>
      <path style="fill:#FF0000;fill-opacity:1" d="M8.73046875,0L23.642578125,0 23.203125,1.93359375 21.3720703125,2.7099609375 20.80078125,4.423828125 21.123046875,6.5185546875 22.119140625,9.43359375 23.96484375,14.296875 27.890625,9.43359375 29.4799785614014,7.379150390625 30.498046875,5.9033203125 31.23046875,3.92578125 30.732421875,2.5048828125 29.091796875,1.93359375 29.53125,0 41.71875,0 41.279296875,1.962890625 39.873046875,2.51953125 39.041748046875,3.1494140625 37.9541015625,4.16015625 36.339111328125,5.88134765625 33.92578125,8.642578125 25.517578125,18.3984375 30.703125,31.904296875 31.812744140625,34.552001953125 32.7978515625,36.3427734375 33.870849609375,37.452392578125 35.244140625,38.056640625 34.833984375,39.990234375 19.892578125,39.990234375 20.302734375,38.056640625 22.03857421875,37.412109375 22.6171875,35.947265625 22.353515625,33.80859375 21.591796875,31.40625 18.984375,24.521484375 12.919921875,31.7578125 11.77001953125,33.20068359375 11.015625,34.306640625 10.458984375,36.15234375 11.0009765625,37.50732421875 12.626953125,38.056640625 12.216796875,39.990234375 0,39.990234375 0.41015613079071,38.056640625 2.79785180091858,36.708984375 4.515380859375,34.9951171875 7.294921875,31.904296875 17.40234375,20.478515625 12.919921875,8.642578125 11.7919921875,5.91796875 10.5908203125,3.5888671875 9.5361328125,2.431640625 8.291015625,1.93359375 8.73046875,0z" />
    </g>
  </g>
</svg>