<?xml version="1.0" encoding="utf-8"?>
<!DOCTYPE svg PUBLIC "-//W3C//DTD SVG 1.1//EN" "http://www.w3.org/Graphics/SVG/1.1/DTD/svg11.dtd">
<svg width="42.275390625" height="30.05859375" xmlns="http://www.w3.org/2000/svg" xmlns:xlink="http://www.w3.org/1999/xlink" xmlns:xml="http://www.w3.org/XML/1998/namespace" version="1.1">
  <g>
    <g>
      <path style="fill:#FF0000;fill-opacity:1" d="M34.072265625,0L37.734375,3.29956197738647 40.283203125,6.7529296875 41.77734375,10.426025390625 42.275390625,14.384765625 41.79931640625,18.424072265625 40.37109375,22.2216796875 38.1005859375,25.499267578125 35.09765625,27.978515625 31.5234375,29.53857421875 27.5390625,30.05859375 25.0488262176514,29.747314453125 22.91015625,28.8134765625 21.20361328125,27.286376953125 20.009765625,25.1953125 19.74609375,25.1953125 18.0706787109375,27.322998046875 15.94482421875,28.8427734375 13.3685302734375,29.754638671875 10.341796875,30.05859375 7.554931640625,29.739990234375 5.05371046066284,28.7841796875 2.947998046875,27.24609375 1.34765672683716,25.1806640625 0.336914122104645,22.686767578125 0,19.86328125 0.46142578125,16.16455078125 1.845703125,12.509765625 4.10888624191284,8.97216796875 7.20703125,5.625 10.9790029525757,2.60742330551147 15.263671875,0.05859375 17.16796875,2.51953125 13.612060546875,6.287841796875 10.7958984375,10.9716796875 8.961181640625,16.036376953125 8.349609375,20.947265625 8.5400390625,23.646240234375 9.111328125,25.5322265625 10.0854482650757,26.641845703125 11.484375,27.01171875 13.2257080078125,26.5008544921875 14.72900390625,24.96826171875 15.9942626953125,22.4139404296875 17.021484375,18.837890625 19.189453125,9.08203125 27.48046875,9.08203125 25.37109375,18.251953125 24.8217754364014,21.15234375 24.638671875,23.466796875 24.7924785614014,25.118408203125 25.25390625,26.2060546875 26.0522441864014,26.810302734375 27.216796875,27.01171875 28.9599609375,26.50634765625 30.615234375,24.990234375 32.061767578125,22.598876953125 33.1787109375,19.4677734375 33.892822265625,15.889892578125 34.130859375,12.158203125 33.45703125,6.474609375 32.6806640625,4.16015768051147 31.69921875,2.255859375 34.072265625,0z" />
    </g>
  </g>
</svg>