<?xml version="1.0" encoding="utf-8"?>
<!DOCTYPE svg PUBLIC "-//W3C//DTD SVG 1.1//EN" "http://www.w3.org/Graphics/SVG/1.1/DTD/svg11.dtd">
<svg width="23.7890625" height="40.927734375" xmlns="http://www.w3.org/2000/svg" xmlns:xlink="http://www.w3.org/1999/xlink" xmlns:xml="http://www.w3.org/XML/1998/namespace" version="1.1">
  <g>
    <g>
      <path style="fill:#FF0000;fill-opacity:1" d="M13.505859375,0L17.6953125,0.234375 19.88525390625,0.6005859375 22.470703125,1.23046875 21.533203125,5.654296875 17.0068359375,4.4677734375 13.154296875,4.130859375 9.697265625,4.62890625 7.5,5.91796875 6.3427734375,7.7197265625 6.005859375,9.755859375 6.7529296875,12.8759765625 7.705078125,14.1394062042236 9.0673828125,15.322265625 10.9973134994507,16.5380859375 13.65234375,17.900390625 16.40625,19.2919921875 18.515625,20.537109375 21.474609375,22.998046875 23.2177734375,25.95703125 23.7890625,29.58984375 23.4448223114014,32.77587890625 22.412109375,35.537109375 20.6689453125,37.803955078125 18.193359375,39.5068359375 15.029296875,40.572509765625 11.220703125,40.927734375 5.36865186691284,40.4150390625 0,38.876953125 1.31835889816284,34.599609375 5.9912109375,36.181640625 11.279296875,36.796875 14.34814453125,36.383056640625 16.640625,35.1416015625 18.06884765625,33.167724609375 18.544921875,30.556640625 17.7978515625,27.216796875 16.8310546875,25.89111328125 15.4248046875,24.66796875 13.341064453125,23.40087890625 10.341796875,21.943359375 5.99121046066284,19.581298828125 3.01757788658142,16.9482421875 1.30371057987213,13.9123554229736 0.732421875,10.341796875 1.11694300174713,7.412109375 2.27050757408142,4.833984375 4.14184522628784,2.728271484375 6.6796875,1.2158203125 9.82177639007568,0.303955078125 13.505859375,0z" />
    </g>
  </g>
</svg>