<?xml version="1.0" encoding="utf-8"?>
<!DOCTYPE svg PUBLIC "-//W3C//DTD SVG 1.1//EN" "http://www.w3.org/Graphics/SVG/1.1/DTD/svg11.dtd">
<svg width="30.17578125" height="42.392578125" xmlns="http://www.w3.org/2000/svg" xmlns:xlink="http://www.w3.org/1999/xlink" xmlns:xml="http://www.w3.org/XML/1998/namespace" version="1.1">
  <g>
    <g>
      <path style="fill:#FF0000;fill-opacity:1" d="M17.16796875,0L19.16015625,0.263671875 20.625,1.0546875 21.650390625,2.413330078125 22.32421875,4.3798828125 22.69775390625,7.174072265625 22.822265625,11.015625 22.8076171875,12.7734394073486 22.763671875,15.17578125 22.646484375,19.8046875 22.470703125,25.693359375 22.412109375,30.17578125 22.445068359375,32.889404296875 22.5439453125,34.9365234375 22.716064453125,36.441650390625 22.96875,37.529296875 23.701171875,38.7158203125 24.78515625,39.0234375 26.4111328125,38.5107421875 27.3742656707764,37.789306640625 28.53515625,36.650390625 30.17578125,38.291015625 28.2824687957764,40.01220703125 26.4111328125,41.30859375 24.6569805145264,42.12158203125 23.115234375,42.392578125 21.64306640625,42.22412109375 20.56640625,41.71875 19.808349609375,40.8251953125 19.2919921875,39.4921875 18.995361328125,37.5732421875 18.896484375,34.921875 18.9349365234375,32.5103759765625 19.05029296875,29.43603515625 19.2425537109375,25.6988525390625 19.51171875,21.298828125 19.21875,21.298828125 15.0933837890625,27.421875 11.50634765625,32.900390625 8.4576416015625,37.734375 5.947265625,41.923828125 0,41.923828125 0.292969167232513,40.48828125 2.98828148841858,37.0751953125 4.482421875,35.064697265625 6.26953125,32.578125 19.39453125,13.9453125 19.31396484375,11.1987323760986 19.130859375,8.935546875 18.8525390625,7.122802734375 18.486328125,5.7275390625 17.40234375,3.984375 15.556640625,3.427734375 13.59375,3.984375 12.3706045150757,4.833984375 10.693359375,6.26953125 9.169921875,4.5703125 11.6345205307007,2.332763671875 13.6376953125,0.9521484375 15.406494140625,0.238037109375 17.16796875,0z" />
    </g>
  </g>
</svg>