<?xml version="1.0" encoding="utf-8"?>
<!DOCTYPE svg PUBLIC "-//W3C//DTD SVG 1.1//EN" "http://www.w3.org/Graphics/SVG/1.1/DTD/svg11.dtd">
<svg width="34.62890625" height="39.990234375" xmlns="http://www.w3.org/2000/svg" xmlns:xlink="http://www.w3.org/1999/xlink" xmlns:xml="http://www.w3.org/XML/1998/namespace" version="1.1">
  <g>
    <g>
      <path style="fill:#FF0000;fill-opacity:1" d="M16.025390625,5.888671875L13.0078125,19.658203125 15.908203125,19.658203125 18.3837890625,19.51904296875 20.361328125,19.1015625 23.3203125,17.34375 25.2099609375,14.384765625 25.869140625,10.927734375 25.5615234375,8.73046875 24.7998046875,7.3974609375 23.642578125,6.5478515625 21.97265625,6.0498046875 20.79345703125,5.928955078125 19.189453125,5.888671875 16.025390625,5.888671875z M8.7890625,0L19.833984375,0 22.8405742645264,0.05859375 25.1220703125,0.234375 28.2421875,0.908203125 30.64453125,2.080078125 32.7392578125,3.9111328125 34.130859375,6.591796875 34.62890625,10.166015625 34.12353515625,14.6008319854736 32.607421875,18.2958984375 30.164794921875,21.280517578125 26.8798828125,23.583984375 22.5476055145264,25.05615234375 16.962890625,25.546875 11.71875,25.546875 8.5546875,39.990234375 0,39.990234375 8.7890625,0z" />
    </g>
  </g>
</svg>