<?xml version="1.0" encoding="utf-8"?>
<!DOCTYPE svg PUBLIC "-//W3C//DTD SVG 1.1//EN" "http://www.w3.org/Graphics/SVG/1.1/DTD/svg11.dtd">
<svg width="31.845703125" height="29.794921875" xmlns="http://www.w3.org/2000/svg" xmlns:xlink="http://www.w3.org/1999/xlink" xmlns:xml="http://www.w3.org/XML/1998/namespace" version="1.1">
  <g>
    <g>
      <path style="fill:#FF0000;fill-opacity:1" d="M17.75390625,0L21.9689922332764,0.626222133636475 25.0048828125,2.5048828125 26.8395977020264,5.54809713363647 27.451171875,9.66796875 27.451171875,26.630859375 31.845703125,26.630859375 31.845703125,29.794921875 18.69140625,29.794921875 18.69140625,26.630859375 23.466796875,26.630859375 23.466796875,11.484375 23.1591796875,7.880859375 22.119140625,5.302734375 20.185546875,3.7646484375 17.197265625,3.251953125 14.1796875,3.837890625 11.5869140625,5.419921875 9.5947265625,7.734375 8.349609375,10.48828125 8.349609375,26.630859375 13.388671875,26.630859375 13.388671875,29.794921875 0.0292971134185791,29.794921875 0.0292971134185791,26.630859375 4.365234375,26.630859375 4.365234375,3.369140625 0,3.369140625 0,0.205078125 8.3203125,0.205078125 8.3203125,5.009765625 8.466796875,5.009765625 10.3857412338257,2.90039205551147 12.626953125,1.318359375 15.10986328125,0.329591274261475 17.75390625,0z" />
    </g>
  </g>
</svg>