<?xml version="1.0" encoding="utf-8"?>
<!DOCTYPE svg PUBLIC "-//W3C//DTD SVG 1.1//EN" "http://www.w3.org/Graphics/SVG/1.1/DTD/svg11.dtd">
<svg width="45.6738281250001" height="43.564453125" xmlns="http://www.w3.org/2000/svg" xmlns:xlink="http://www.w3.org/1999/xlink" xmlns:xml="http://www.w3.org/XML/1998/namespace" version="1.1">
  <g>
    <g>
      <path style="fill:#FF0000;fill-opacity:1" d="M27.919921875,6.09375L25.458984375,6.5625 22.705078125,7.734375 23.0419921875,10.25390625 23.173828125,13.447265625 23.173828125,19.716796875 27.6049785614014,18.482666015625 30.703125,16.7724609375 32.52685546875,14.5349140167236 33.134765625,11.71875 32.40234375,8.8623046875 30.46875,6.826171875 27.919921875,6.09375z M32.28515625,0L33.3984375,0.6591796875 35.09765625,1.259765625 38.0419921875,2.42431640625 40.1953125,4.16015625 41.513671875,6.38671875 41.953125,9.0234375 41.748046875,11.0595722198486 41.1328125,12.7734375 40.045166015625,14.3042011260986 38.4228515625,15.791015625 35.980224609375,17.4096698760986 32.431640625,19.3359375 34.62158203125,20.364990234375 36.26953125,21.6357421875 37.445068359375,23.203125 38.2177734375,25.1220703125 38.646240234375,27.557373046875 38.7890625,30.673828125 39.0380859375,33.3837890625 39.697265625,35.0244140625 40.60546875,35.8154296875 41.8359375,36.064453125 43.0810546875,35.712890625 44.326171875,34.833984375 45.673828125,37.119140625 43.60107421875,38.45947265625 40.37109375,40.4296875 37.265625,42.3486328125 35.625,43.41796875 33.885498046875,42.322998046875 32.6513671875,41.3818359375 30.9814453125,39.287109375 30.37353515625,37.81494140625 29.9267578125,35.859375 29.6520977020264,33.28857421875 29.560546875,29.970703125 29.3408184051514,26.806640625 28.681640625,24.462890625 27.5976543426514,23.0126953125 26.103515625,22.529296875 24.755859375,22.7783203125 23.173828125,23.525390625 23.1372051239014,26.671142578125 23.02734375,28.9013671875 22.587890625,31.728515625 21.8115234375,33.5888671875 20.2587890625,35.5224609375 17.8857421875,37.6171875 15.029296875,39.55078125 12.1875,41.3671875 9.19921875,43.564453125 4.365234375,38.90625 1.90429663658142,40.72265625 0.380859136581421,38.583984375 8.583984375,32.373046875 13.212890625,37.32421875 14.1796875,36.27685546875 14.501953125,34.365234375 14.501953125,11.220703125 14.4287109375,8.814697265625 14.208984375,6.9287109375 13.037109375,4.3212890625 11.9604482650757,3.585205078125 10.48828125,3.33984375 8.935546875,3.614501953125 7.6171875,4.4384765625 6.71630859375,5.679931640625 6.416015625,7.20703125 7.119140625,9.6240234375 9.19921875,12.451171875 10.48828125,14.208984375 11.5283203125,16.2451171875 11.953125,18.6328125 11.3928213119507,21.529541015625 9.7119140625,24.0087890625 6.961669921875,26.048583984375 3.19335889816284,27.626953125 2.25585889816284,25.546875 3.7646484375,24.7265625 4.71679639816284,23.90625 5.390625,22.001953125 4.74609422683716,19.9072265625 3.91113257408142,18.687744140625 2.6953125,17.16796875 1.39160180091858,15.3662109375 0.395507574081421,13.2568359375 0,10.72265625 0.391845643520355,7.96875 1.5673828125,5.44921875 3.45703125,3.2958984375 5.9912109375,1.640625 9.049072265625,0.5859375 12.509765625,0.234375 15.5914306640625,0.5218505859375 18.15673828125,1.38427734375 20.2056884765625,2.8216552734375 21.73828125,4.833984375 25.352783203125,3.3453369140625 28.3154296875,2.04345703125 30.626220703125,0.9283447265625 32.28515625,0z" />
    </g>
  </g>
</svg>