<?xml version="1.0" encoding="utf-8"?>
<!DOCTYPE svg PUBLIC "-//W3C//DTD SVG 1.1//EN" "http://www.w3.org/Graphics/SVG/1.1/DTD/svg11.dtd">
<svg width="27.83203125" height="41.1328125" xmlns="http://www.w3.org/2000/svg" xmlns:xlink="http://www.w3.org/1999/xlink" xmlns:xml="http://www.w3.org/XML/1998/namespace" version="1.1">
  <g>
    <g>
      <path style="fill:#FF0000;fill-opacity:1" d="M7.529296875,0L9.1845703125,0.263673305511475 10.458984375,1.0546875 11.2719717025757,2.28515768051147 11.54296875,3.8671875 10.83984375,7.763671875 11.103515625,7.880859375 13.6083984375,4.716796875 16.1865234375,2.2412109375 18.9697265625,0.6005859375 22.060546875,0 24.5214824676514,0.399171352386475 26.337890625,1.5966796875 27.4584941864014,3.53393697738647 27.83203125,6.15234375 27.6635723114014,8.26171875 27.158203125,11.015625 20.5078125,41.1328125 15.703125,41.1328125 22.119140625,12.041015625 22.5439453125,9.5361328125 22.734375,7.265625 22.55126953125,5.504150390625 22.001953125,4.3212890625 21.0791015625,3.65112447738647 19.775390625,3.427734375 18.09814453125,3.87085103988647 16.171875,5.2001953125 14.1979970932007,7.21435546875 12.3779296875,9.7119140625 10.960693359375,12.286376953125 10.1953125,14.53125 7.177734375,28.4765625 2.10937547683716,28.4765625 6.5625,8.7890625 6.8408203125,7.1630859375 6.97265625,5.478515625 6.6064453125,3.9111328125 5.390625,3.369140625 3.75000023841858,3.896484375 2.75390625,4.62158346176147 1.64062523841858,5.7421875 0,4.1015625 2.376708984375,2.03247213363647 4.1748046875,0.8056640625 5.76782178878784,0.201417446136475 7.529296875,0z" />
    </g>
  </g>
</svg>