<?xml version="1.0" encoding="utf-8"?>
<!DOCTYPE svg PUBLIC "-//W3C//DTD SVG 1.1//EN" "http://www.w3.org/Graphics/SVG/1.1/DTD/svg11.dtd">
<svg width="28.18359375" height="39.990234375" xmlns="http://www.w3.org/2000/svg" xmlns:xlink="http://www.w3.org/1999/xlink" xmlns:xml="http://www.w3.org/XML/1998/namespace" version="1.1">
  <g>
    <g>
      <path style="fill:#FF0000;fill-opacity:1" d="M8.5546875,5.888671875L8.5546875,19.658203125 11.806640625,19.658203125 15.311279296875,19.2333984375 17.6806640625,17.958984375 19.0319805145264,15.76171875 19.482421875,12.568359375 19.0576152801514,9.64599800109863 17.783203125,7.55859375 15.62255859375,6.30615234375 12.5390625,5.888671875 8.5546875,5.888671875z M0,0L13.623046875,0 17.0535259246826,0.1812744140625 20.0207500457764,0.72509765625 22.5247173309326,1.6314697265625 24.5654296875,2.900390625 26.1483764648438,4.541015625 27.279052734375,6.5625 27.9574584960938,8.96484375 28.18359375,11.748046875 27.4365234375,16.9482421875 25.37109375,20.8447265625 22.1923828125,23.49609375 17.98828125,25.048828125 15.35888671875,25.42236328125 12.158203125,25.546875 8.5546875,25.546875 8.5546875,39.990234375 0,39.990234375 0,0z" />
    </g>
  </g>
</svg>