<?xml version="1.0" encoding="utf-8"?>
<!DOCTYPE svg PUBLIC "-//W3C//DTD SVG 1.1//EN" "http://www.w3.org/Graphics/SVG/1.1/DTD/svg11.dtd">
<svg width="26.77734375" height="42.568359375" xmlns="http://www.w3.org/2000/svg" xmlns:xlink="http://www.w3.org/1999/xlink" xmlns:xml="http://www.w3.org/XML/1998/namespace" version="1.1">
  <g>
    <g>
      <path style="fill:#FF0000;fill-opacity:1" d="M15.498046875,16.40625L12.872314453125,16.9445819854736 10.4443359375,18.5595703125 8.331298828125,21.251220703125 6.650390625,25.01953125 5.5517578125,29.30419921875 5.185546875,33.544921875 5.328369140625,35.892333984375 5.7568359375,37.6611328125 6.419677734375,38.909912109375 7.265625,39.697265625 9.609375,40.25390625 12.542724609375,39.620361328125 15.0146484375,37.7197265625 17.091064453125,34.54833984375 18.837890625,30.1025390625 20.0244140625,25.557861328125 20.419921875,22.08984375 20.115966796875,19.51171875 19.2041015625,17.75390625 17.669677734375,16.7431659698486 15.498046875,16.40625z M17.021484375,0L19.3139629364014,0.20782470703125 21.2988262176514,0.831298828125 22.9760723114014,1.87042236328125 24.345703125,3.3251953125 25.4095439910889,5.20111083984375 26.1694316864014,7.503662109375 26.6253643035889,10.2328491210938 26.77734375,13.388671875 26.6601543426514,16.3073749542236 26.30859375,19.7314453125 24.7265625,27.392578125 23.5253887176514,31.07666015625 22.1484375,34.16015625 20.60302734375,36.70166015625 18.896484375,38.759765625 16.973876953125,40.37109375 14.7802734375,41.572265625 12.301025390625,42.3193359375 9.521484375,42.568359375 5.584716796875,41.9091796875 2.56347680091858,39.931640625 0.64086925983429,36.6796875 0,32.197265625 0.483398467302322,27.685546875 1.93359398841858,23.349609375 4.22607421875,19.537353515625 7.236328125,16.5966796875 10.7666006088257,14.7180194854736 14.619140625,14.091796875 18.310546875,14.5751953125 19.98046875,15.2893085479736 21.826171875,16.46484375 21.884765625,15.732421875 21.97265625,13.30078125 21.8811016082764,10.7217407226563 21.6064434051514,8.521728515625 21.1486797332764,6.70074462890625 20.5078125,5.2587890625 18.6328125,3.380126953125 15.9375,2.75390625 13.875732421875,3.006591796875 11.9677734375,3.7646484375 10.1550283432007,5.050048828125 8.37890625,6.884765625 6.26953125,6.884765625 6.26953125,4.453125 8.74145412445068,2.772216796875 10.5908203125,1.6552734375 13.6669921875,0.41015625 17.021484375,0z" />
    </g>
  </g>
</svg>