<?xml version="1.0" encoding="utf-8"?>
<!DOCTYPE svg PUBLIC "-//W3C//DTD SVG 1.1//EN" "http://www.w3.org/Graphics/SVG/1.1/DTD/svg11.dtd">
<svg width="28.65234375" height="30.1171875" xmlns="http://www.w3.org/2000/svg" xmlns:xlink="http://www.w3.org/1999/xlink" xmlns:xml="http://www.w3.org/XML/1998/namespace" version="1.1">
  <g>
    <g>
      <path style="fill:#FF0000;fill-opacity:1" d="M6.181640625,0L8.466796875,0 8.466796875,12.5390625 11.1328125,9.7705078125 14.0625,6.4892578125 16.9189453125,3.4130859375 19.39453125,1.2890625 21.26953125,0.380859375 23.525390625,0.1171875 25.3564453125,0.1904296875 27.099609375,0.41015625 27.041015625,6.09375 24.1259765625,7.001953125 21.5625,8.3349609375 19.130859375,10.0927734375 16.640625,12.3046875 22.5,21.767578125 23.5693359375,23.02734375 24.8583984375,23.7744140625 26.30859375,24.169921875 27.861328125,24.31640625 28.65234375,24.31640625 28.154296875,29.765625 25.869140625,30.0146484375 23.408203125,30.1171875 20.4052734375,29.736328125 18.0908203125,28.5498046875 16.171875,26.4990234375 14.35546875,23.525390625 10.634765625,16.640625 8.466796875,18.251953125 8.466796875,29.6484375 0,29.6484375 0,0.380859375 6.181640625,0z" />
    </g>
  </g>
</svg>