<?xml version="1.0" encoding="utf-8"?>
<!DOCTYPE svg PUBLIC "-//W3C//DTD SVG 1.1//EN" "http://www.w3.org/Graphics/SVG/1.1/DTD/svg11.dtd">
<svg width="28.65234375" height="42.392578125" xmlns="http://www.w3.org/2000/svg" xmlns:xlink="http://www.w3.org/1999/xlink" xmlns:xml="http://www.w3.org/XML/1998/namespace" version="1.1">
  <g>
    <g>
      <path style="fill:#FF0000;fill-opacity:1" d="M18.6328125,16.171875L15.6298828125,16.6552734375 13.095703125,18.076171875 11.015625,19.9072265625 9.5947265625,21.9580078125 9.049072265625,23.360595703125 8.5546875,25.25390625 7.3828125,30.556640625 6.9873046875,32.6220703125 6.85546875,34.482421875 7.21435546875,36.243896484375 8.291015625,37.5439453125 10.0048828125,38.345947265625 12.275390625,38.61328125 15.30029296875,38.0712890625 17.98828125,36.4453125 20.23681640625,33.8525390625 21.943359375,30.41015625 23.0200176239014,26.46240234375 23.37890625,22.353515625 23.0822734832764,19.658203125 22.1923828125,17.724609375 20.709228515625,16.5600605010986 18.6328125,16.171875z M12.333984375,0L14.12109375,0 10.634765625,15.791015625 10.8984375,15.8203125 13.5791015625,14.0734882354736 15.9375,12.9345703125 18.18603515625,12.3083515167236 20.537109375,12.099609375 23.9318828582764,12.7404804229736 26.4990234375,14.6630859375 28.1140117645264,17.6843280792236 28.65234375,21.62109375 28.1469707489014,27.147216796875 26.630859375,32.1826171875 24.1992168426514,36.45263671875 20.947265625,39.6826171875 17.05078125,41.715087890625 12.685546875,42.392578125 8.84765625,42.0263671875 7.08251953125,41.466064453125 5.185546875,40.517578125 4.892578125,40.517578125 4.306640625,41.923828125 0,41.923828125 9.140625,0.263671875 12.333984375,0z" />
    </g>
  </g>
</svg>