<?xml version="1.0" encoding="utf-8"?>
<!DOCTYPE svg PUBLIC "-//W3C//DTD SVG 1.1//EN" "http://www.w3.org/Graphics/SVG/1.1/DTD/svg11.dtd">
<svg width="31.93359375" height="42.392578125" xmlns="http://www.w3.org/2000/svg" xmlns:xlink="http://www.w3.org/1999/xlink" xmlns:xml="http://www.w3.org/XML/1998/namespace" version="1.1">
  <g>
    <g>
      <path style="fill:#FF0000;fill-opacity:1" d="M19.072265625,18.134765625L17.490234375,18.3544921875 15.8203125,19.0576171875 14.267578125,20.15625 13.1689453125,21.4013671875 12.451171875,22.8515625 12.1215810775757,23.96484375 11.71875,25.6640625 10.576171875,30.849609375 10.283203125,33.33984375 10.5505361557007,34.881591796875 11.3525390625,35.9912109375 12.6379384994507,36.661376953125 14.35546875,36.884765625 16.787109375,36.43798828125 18.92578125,35.09765625 20.7275390625,32.904052734375 22.1484375,29.8974609375 23.0712871551514,26.583251953125 23.37890625,23.466796875 23.1115703582764,21.060791015625 22.3095703125,19.4091796875 20.965576171875,18.453369140625 19.072265625,18.134765625z M14.1796875,0L17.34375,0 14.091796875,14.853515625 14.35546875,14.853515625 16.343994140625,13.8757343292236 17.7978515625,13.2275390625 20.419921875,12.421875 23.349609375,12.099609375 26.9311504364014,12.7771015167236 29.6484375,14.8095703125 31.3623046875,18.0578632354736 31.93359375,22.3828125 31.461181640625,27.425537109375 30.0439453125,32.2412109375 27.6928691864014,36.448974609375 24.4189453125,39.66796875 20.511474609375,41.71142578125 16.259765625,42.392578125 12.01171875,42.0263671875 8.291015625,40.751953125 7.998046875,40.751953125 7.55859375,41.923828125 0,41.923828125 9.140625,0.29296875 14.1796875,0z" />
    </g>
  </g>
</svg>