<?xml version="1.0" encoding="utf-8"?>
<!DOCTYPE svg PUBLIC "-//W3C//DTD SVG 1.1//EN" "http://www.w3.org/Graphics/SVG/1.1/DTD/svg11.dtd">
<svg width="26.5429687500001" height="30" xmlns="http://www.w3.org/2000/svg" xmlns:xlink="http://www.w3.org/1999/xlink" xmlns:xml="http://www.w3.org/XML/1998/namespace" version="1.1">
  <g>
    <g>
      <path style="fill:#FF0000;fill-opacity:1" d="M11.923828125,2.197265625L8.133544921875,3.81958150863647 5.3759765625,6.4599609375 3.69506788253784,10.089111328125 3.134765625,14.677734375 3.31970191001892,17.7401733398438 3.87451124191284,20.394287109375 4.79919385910034,22.6400756835938 6.09375,24.4775390625 7.76916456222534,25.9066772460938 9.83642482757568,26.927490234375 12.2955312728882,27.5399780273438 15.146484375,27.744140625 15.322265625,27.451171875 12.0117177963257,25.850830078125 9.697265625,23.2177734375 8.3349609375,19.537353515625 7.880859375,14.794921875 8.1298828125,10.323486328125 8.876953125,6.8115234375 10.1733388900757,4.20044088363647 12.0703125,2.431640625 11.923828125,2.197265625z M16.11328125,0L20.830078125,0.3076171875 26.07421875,1.40625 26.07421875,8.02734375 21.62109375,8.02734375 20.8923320770264,5.64697408676147 19.9365234375,4.013671875 18.658447265625,3.06884908676147 16.962890625,2.75390625 14.315185546875,3.49365377426147 12.4658203125,5.712890625 11.3781728744507,9.375 11.015625,14.443359375 11.4587392807007,19.229736328125 12.7880859375,22.6904296875 14.945068359375,24.788818359375 17.87109375,25.48828125 21.4013671875,24.755859375 22.9650859832764,23.79638671875 24.638671875,22.3828125 26.54296875,24.755859375 23.7780742645264,27.022705078125 20.7568359375,28.6669921875 17.545166015625,29.666748046875 14.208984375,30 9.91332912445068,29.5458984375 6.3427734375,28.18359375 3.54492139816284,26.0009765625 1.5673828125,23.0859375 0.391845524311066,19.5263671875 0,15.41015625 0.265502840280533,11.8936157226563 1.06201159954071,8.814697265625 2.3895263671875,6.17340087890625 4.248046875,3.9697265625 6.5826416015625,2.23297214508057 9.33837890625,0.992433071136475 12.5152587890625,0.248108983039856 16.11328125,0z" />
    </g>
  </g>
</svg>