<?xml version="1.0" encoding="utf-8"?>
<!DOCTYPE svg PUBLIC "-//W3C//DTD SVG 1.1//EN" "http://www.w3.org/Graphics/SVG/1.1/DTD/svg11.dtd">
<svg width="24.404296875" height="40.458984375" xmlns="http://www.w3.org/2000/svg" xmlns:xlink="http://www.w3.org/1999/xlink" xmlns:xml="http://www.w3.org/XML/1998/namespace" version="1.1">
  <g>
    <g>
      <path style="fill:#FF0000;fill-opacity:1" d="M1.5234375,0L22.67578125,0 22.67578125,4.86328125 6.38671875,4.86328125 6.38671875,16.904296875 9.4482421875,16.3330078125 12.509765625,16.171875 15.87890625,16.505126953125 18.779296875,17.5048828125 21.1486797332764,19.171142578125 22.9248046875,21.50390625 24.0344219207764,24.4482421875 24.404296875,27.94921875 23.9978008270264,31.58203125 22.7783203125,34.6875 20.8264141082764,37.18505859375 18.22265625,38.994140625 15.08056640625,40.0927734375 11.513671875,40.458984375 5.6689453125,39.990234375 0,38.37890625 1.318359375,34.04296875 4.130859375,35.152587890625 6.533203125,35.8447265625 11.220703125,36.328125 14.586181640625,35.80078125 17.0068359375,34.21875 18.468017578125,31.60400390625 18.955078125,27.978515625 18.673095703125,25.609130859375 17.8271484375,23.6572265625 16.5234375,22.152099609375 14.8681640625,21.123046875 12.967529296875,20.52978515625 10.927734375,20.33203125 8.232421875,20.5224609375 6.7529296875,20.826416015625 4.892578125,21.357421875 1.5234375,19.51171875 1.5234375,0z" />
    </g>
  </g>
</svg>