<?xml version="1.0" encoding="utf-8"?>
<!DOCTYPE svg PUBLIC "-//W3C//DTD SVG 1.1//EN" "http://www.w3.org/Graphics/SVG/1.1/DTD/svg11.dtd">
<svg width="24.7265625" height="40.927734375" xmlns="http://www.w3.org/2000/svg" xmlns:xlink="http://www.w3.org/1999/xlink" xmlns:xml="http://www.w3.org/XML/1998/namespace" version="1.1">
  <g>
    <g>
      <path style="fill:#FF0000;fill-opacity:1" d="M13.037109375,0L17.2705078125,0.498046875 20.7421875,2.080078125 23.1005859375,4.892578125 23.7487773895264,6.81884765625 23.96484375,9.140625 23.5180644989014,12.2241230010986 22.177734375,14.912109375 19.9072265625,17.23388671875 16.669921875,19.21875 16.669921875,19.541015625 20.167236328125,20.943603515625 22.6904296875,23.1005859375 24.2175273895264,25.924072265625 24.7265625,29.326171875 24.3566875457764,32.5048828125 23.2470703125,35.302734375 21.3830547332764,37.635498046875 18.75,39.4189453125 15.41015625,40.550537109375 11.42578125,40.927734375 5.595703125,40.400390625 0,38.759765625 1.34765625,34.3359375 4.486083984375,35.595703125 7.0458984375,36.328125 11.689453125,36.796875 14.827880859375,36.32080078125 17.2705078125,34.892578125 18.841552734375,32.62939453125 19.365234375,29.6484375 18.69140625,26.40380859375 16.669921875,23.994140625 13.388671875,22.5 8.935546875,22.001953125 6.005859375,22.001953125 6.005859375,18.10546875 11.407470703125,17.222900390625 15.3662109375,15.4541015625 16.7825317382813,14.2556772232056 17.794189453125,12.8723163604736 18.4011840820313,11.3040170669556 18.603515625,9.55078125 18.175048828125,7.298583984375 16.8896484375,5.5810546875 14.849853515625,4.493408203125 12.158203125,4.130859375 7.8662109375,4.7607421875 5.386962890625,5.672607421875 2.373046875,7.1484375 0.703124761581421,3.193359375 4.222412109375,1.7138671875 7.2802734375,0.732421875 13.037109375,0z" />
    </g>
  </g>
</svg>