<?xml version="1.0" encoding="utf-8"?>
<!DOCTYPE svg PUBLIC "-//W3C//DTD SVG 1.1//EN" "http://www.w3.org/Graphics/SVG/1.1/DTD/svg11.dtd">
<svg width="37.412109375" height="54.66796875" xmlns="http://www.w3.org/2000/svg" xmlns:xlink="http://www.w3.org/1999/xlink" xmlns:xml="http://www.w3.org/XML/1998/namespace" version="1.1">
  <g>
    <g>
      <path style="fill:#FF0000;fill-opacity:1" d="M24.521484375,5.537109375L21.62109375,6.09375 19.39453125,7.8955078125 17.6953125,11.1181640625 16.9921875,13.3117694854736 16.34765625,15.9375 12.802734375,32.63671875 12.685546875,33.310546875 12.65625,33.955078125 13.1689453125,35.8740234375 14.4140625,36.9873046875 15.966796875,37.5 17.373046875,37.6171875 20.654296875,36.9140625 23.1298828125,34.9951171875 24.6826171875,32.16796875 25.224609375,28.7109375 24.8510723114014,25.9423828125 23.73046875,24.0234375 21.92138671875,22.90283203125 19.482421875,22.529296875 18.80859375,22.529296875 19.86328125,17.548828125 20.537109375,17.548828125 23.9538555145264,17.0324726104736 26.4697265625,15.4833984375 28.0187969207764,13.0480976104736 28.53515625,9.873046875 28.1982421875,7.705078125 27.2900390625,6.3720703125 26.0009765625,5.712890625 24.521484375,5.537109375z M26.396484375,0L30.8349609375,0.5126953125 34.3212890625,2.0361328125 36.591796875,4.5703125 37.20703125,6.21826171875 37.412109375,8.115234375 36.7236328125,12.216796875 34.775390625,15.3955078125 31.728515625,17.841796875 27.71484375,19.74609375 27.685546875,19.98046875 30.6005859375,21.357421875 32.578125,23.3203125 33.7060546875,25.72265625 34.072265625,28.41796875 33.7939453125,31.48681640625 32.958984375,34.248046875 31.60400390625,36.6650390625 29.765625,38.701171875 27.4658184051514,40.33447265625 24.7265625,41.54296875 21.58447265625,42.2900390625 18.076171875,42.5390625 14.2822265625,42.3046875 10.95703125,41.337890625 8.115234375,54.66796875 0,54.66796875 7.70507860183716,18.369140625 8.865966796875,13.9196796417236 10.3564453125,10.1220703125 12.1801748275757,6.9580078125 14.3408203125,4.4091796875 16.83837890625,2.457275390625 19.6728515625,1.083984375 22.855224609375,0.27099609375 26.396484375,0z" />
    </g>
  </g>
</svg>