<?xml version="1.0" encoding="utf-8"?>
<!DOCTYPE svg PUBLIC "-//W3C//DTD SVG 1.1//EN" "http://www.w3.org/Graphics/SVG/1.1/DTD/svg11.dtd">
<svg width="37.265625" height="52.412109375" xmlns="http://www.w3.org/2000/svg" xmlns:xlink="http://www.w3.org/1999/xlink" xmlns:xml="http://www.w3.org/XML/1998/namespace" version="1.1">
  <g>
    <g>
      <path style="fill:#FF0000;fill-opacity:1" d="M10.60546875,0L13.634033203125,0.318603515625 16.2744140625,1.2744140625 18.416748046875,2.816162109375 19.951171875,4.892578125 21.002197265625,2.841796875 22.6318359375,1.318359375 24.7448711395264,0.37353515625 27.24609375,0.05859375 29.981689453125,0.333251953125 32.1533203125,1.1572265625 33.84521484375,2.5634765625 35.1416015625,4.5849609375 36.09375,7.342529296875 36.7529296875,10.95703125 36.9772338867188,13.1927499771118 37.137451171875,15.8569355010986 37.2335815429688,18.9495868682861 37.265625,22.470703125 37.1484375,26.60888671875 36.796875,30.17578125 35.390625,35.9912109375 33.017578125,40.83984375 29.8828125,44.6484375 28.1249980926514,46.25244140625 25.60546875,48.310546875 20.244140625,52.412109375 18.02490234375,50.555419921875 16.23046875,49.4384765625 12.802734375,48.69140625 10.1953125,49.3798828125 7.6171875,51.474609375 6.09375,49.951171875 8.463134765625,47.4462890625 10.7666015625,45.791015625 13.1945791244507,44.8681640625 15.9375,44.560546875 17.6971435546875,44.754638671875 19.40185546875,45.3369140625 21.0516357421875,46.307373046875 22.646484375,47.666015625 24.5141582489014,46.314697265625 25.8984375,45.1318359375 28.0224609375,42.4658203125 28.9416484832764,40.60546875 29.736328125,38.1591796875 30.384521484375,34.95849609375 30.8642578125,30.8349609375 31.160888671875,25.587158203125 31.259765625,19.013671875 31.16455078125,13.5241718292236 30.87890625,9.4189453125 30.325927734375,6.4013671875 29.4287109375,4.1748046875 28.1066875457764,2.801513671875 26.279296875,2.34375 24.1003398895264,2.90771484375 22.5439453125,4.599609375 21.610107421875,7.50732421875 21.298828125,11.71875 21.298828125,16.2890625 21.1962890625,19.442138671875 20.888671875,21.8115234375 19.6142578125,25.3564453125 18.5302734375,26.978759765625 17.0068359375,28.7109375 14.842529296875,30.6884765625 11.8359375,33.046875 14.443359375,34.8046875 17.87109375,37.177734375 18.8671875,36.416015625 20.9033203125,34.87060546875 22.1484375,34.04296875 23.408203125,35.712890625 21.8994140625,36.734619140625 20.009765625,38.2763671875 15.966796875,42.158203125 12.509765625,39.345703125 9.111328125,37.470703125 7.12646484375,36.80419921875 4.62890625,36.26953125 4.62890625,34.541015625 7.371826171875,33.22998046875 9.5654296875,31.875 11.2792959213257,30.487060546875 12.5830078125,29.0771484375 14.267578125,26.0302734375 15.1025390625,22.3828125 15.289306640625,19.86328125 15.3515625,16.34765625 15.3515625,10.576171875 14.959716796875,7.247314453125 13.7841796875,4.6435546875 11.9201650619507,2.962646484375 9.462890625,2.40234375 6.5185546875,3.134765625 4.423828125,4.98046875 3.69140672683716,7.236328125 4.04296875,9.19921875 4.62158203125,10.1000995635986 5.654296875,11.103515625 7.412109375,12.685546875 8.5693359375,13.9306640625 9.55078125,15.380859375 10.1220703125,16.8896484375 10.3125,18.486328125 9.814453125,20.9619140625 9.11865234375,22.261962890625 8.02734375,23.5546875 6.5478515625,24.73388671875 4.68750047683716,25.693359375 3.69140672683716,23.84765625 5.71289110183716,22.646484375 6.35009765625,21.83349609375 6.5625,21.03515625 6.38671875,19.7607421875 5.83007764816284,18.6328125 5.0537109375,17.6953125 4.41284132003784,17.1167011260986 3.28124952316284,16.142578125 2.01415991783142,14.9707050323486 1.20117211341858,13.974609375 0.307616949081421,12.0703125 0,9.78515625 0.351562470197678,7.313232421875 1.40624976158142,4.9365234375 3.0615234375,2.86376953125 5.21484422683716,1.3037109375 7.763671875,0.325927734375 10.60546875,0z" />
    </g>
  </g>
</svg>