<?xml version="1.0" encoding="utf-8"?>
<!DOCTYPE svg PUBLIC "-//W3C//DTD SVG 1.1//EN" "http://www.w3.org/Graphics/SVG/1.1/DTD/svg11.dtd">
<svg width="33.33984375" height="30.1171875" xmlns="http://www.w3.org/2000/svg" xmlns:xlink="http://www.w3.org/1999/xlink" xmlns:xml="http://www.w3.org/XML/1998/namespace" version="1.1">
  <g>
    <g>
      <path style="fill:#FF0000;fill-opacity:1" d="M12.48046875,0L14.736328125,0 12.0703125,12.802734375 14.1796875,11.0302734375 16.5234375,8.8916015625 18.955078125,6.62109375 21.357421875,4.4384765625 23.5546875,2.578125 25.400390625,1.2890625 27.48046875,0.380859375 29.794921875,0.1171875 31.6259765625,0.1904296875 33.33984375,0.41015625 32.2265625,6.09375 29.091796875,6.9873046875 26.162109375,8.2763671875 23.291015625,10.0048828125 20.302734375,12.216796875 24.169921875,21.767578125 24.931640625,23.02734375 25.9423828125,23.7744140625 27.2021484375,24.169921875 28.681640625,24.31640625 29.47265625,24.31640625 28.359375,29.765625 25.8984375,30.0146484375 23.291015625,30.1171875 20.361328125,29.736328125 18.2958984375,28.5498046875 16.81640625,26.4990234375 15.64453125,23.525390625 13.388671875,16.552734375 10.869140625,18.1640625 8.466796875,29.6484375 0,29.6484375 6.2109375,0.380859375 12.48046875,0z" />
    </g>
  </g>
</svg>