<?xml version="1.0" encoding="utf-8"?>
<!DOCTYPE svg PUBLIC "-//W3C//DTD SVG 1.1//EN" "http://www.w3.org/Graphics/SVG/1.1/DTD/svg11.dtd">
<svg width="27.1875" height="40.927734375" xmlns="http://www.w3.org/2000/svg" xmlns:xlink="http://www.w3.org/1999/xlink" xmlns:xml="http://www.w3.org/XML/1998/namespace" version="1.1">
  <g>
    <g>
      <path style="fill:#FF0000;fill-opacity:1" d="M13.59375,21.6796875L10.0231924057007,22.159423828125 7.4560546875,23.5986328125 5.906982421875,25.931396484375 5.390625,29.091796875 5.9326171875,32.43896484375 7.55859375,34.921875 10.1879873275757,36.4599609375 13.740234375,36.97265625 16.10595703125,36.756591796875 18.10546875,36.1083984375 19.7021465301514,35.035400390625 20.859375,33.544921875 21.5624980926514,31.69921875 21.796875,29.560546875 21.2365703582764,26.268310546875 19.5556640625,23.7744140625 16.944580078125,22.203369140625 13.59375,21.6796875z M13.740234375,3.955078125L10.2832021713257,4.38720703125 7.763671875,5.68359375 6.2255859375,7.77832126617432 5.712890625,10.60546875 6.23291015625,13.6633319854736 7.79296875,15.9228515625 10.3344717025757,17.318115234375 13.798828125,17.783203125 17.18994140625,17.3291015625 19.62890625,15.966796875 21.1010723114014,13.7915058135986 21.591796875,10.8984375 21.0754375457764,7.97973728179932 19.5263671875,5.7861328125 17.047119140625,4.412841796875 13.740234375,3.955078125z M14.033203125,0L19.5593242645264,0.66650390625 23.5986328125,2.666015625 25.0405864715576,4.12353515625 26.0705547332764,5.830078125 26.6885356903076,7.78564453125 26.89453125,9.990234375 26.5612773895264,13.0297870635986 25.5615234375,15.52734375 23.8439922332764,17.5927734375 21.357421875,19.3359375 21.416015625,19.716796875 23.9135723114014,21.416015625 25.72265625,23.525390625 26.8212871551514,26.162109375 27.1875,29.443359375 26.7663555145264,32.666015625 25.5029296875,35.478515625 23.4484844207764,37.789306640625 20.654296875,39.5068359375 17.2265625,40.572509765625 13.271484375,40.927734375 9.53613185882568,40.601806640625 6.298828125,39.6240234375 3.64379858970642,38.02001953125 1.6552734375,35.8154296875 0.413818359375,33.087158203125 0,29.912109375 0.34423828125,26.971435546875 1.376953125,24.4189453125 3.17871069908142,22.181396484375 5.830078125,20.185546875 5.859375,19.8046875 3.47534155845642,18.131103515625 1.7724609375,16.0400390625 0.750732481479645,13.4948749542236 0.410156726837158,10.458984375 0.842285215854645,7.598876953125 2.138671875,5.0537109375 4.22607421875,2.9296875 7.03125,1.3330078125 10.3637685775757,0.333251953125 14.033203125,0z" />
    </g>
  </g>
</svg>