<?xml version="1.0" encoding="utf-8"?>
<!DOCTYPE svg PUBLIC "-//W3C//DTD SVG 1.1//EN" "http://www.w3.org/Graphics/SVG/1.1/DTD/svg11.dtd">
<svg width="26.337890625" height="40.927734375" xmlns="http://www.w3.org/2000/svg" xmlns:xlink="http://www.w3.org/1999/xlink" xmlns:xml="http://www.w3.org/XML/1998/namespace" version="1.1">
  <g>
    <g>
      <path style="fill:#FF0000;fill-opacity:1" d="M13.828125,0L18.9990234375,0.2490234375 24.521484375,1.259765625 22.880859375,7.3828125 18.837890625,6.298828125 14.53125,5.888671875 12.1911611557007,6.15966796875 10.5029296875,6.97265625 9.481201171875,8.29101657867432 9.140625,10.078125 9.7119140625,12.2607421875 11.513671875,14.1796875 13.2275390625,15.2856464385986 15.908203125,16.728515625 18.71337890625,18.21533203125 20.859375,19.51171875 23.8916015625,22.060546875 25.72265625,25.13671875 26.337890625,29.23828125 25.9606914520264,32.486572265625 24.8291015625,35.3173828125 22.9211406707764,37.657470703125 20.21484375,39.43359375 16.7431640625,40.55419921875 12.5390625,40.927734375 6.123046875,40.5029296875 0,39.228515625 1.64062571525574,33.10546875 6.474609375,34.5263671875 11.396484375,35.0390625 14.091796875,34.720458984375 16.025390625,33.7646484375 17.18994140625,32.215576171875 17.578125,30.1171875 16.962890625,27.7587890625 15.1025390625,25.7958984375 13.546142578125,24.788818359375 11.3671875,23.61328125 7.613525390625,21.5625 4.8486328125,19.6875 2.86743187904358,17.8125 1.46484375,15.76171875 0.629883050918579,13.4106464385986 0.351562976837158,10.634765625 0.736084222793579,7.69409275054932 1.88964867591858,5.0830078125 3.804931640625,2.918701171875 6.474609375,1.318359375 9.83642578125,0.32958984375 13.828125,0z" />
    </g>
  </g>
</svg>