<?xml version="1.0" encoding="utf-8"?>
<!DOCTYPE svg PUBLIC "-//W3C//DTD SVG 1.1//EN" "http://www.w3.org/Graphics/SVG/1.1/DTD/svg11.dtd">
<svg width="33.6328125000001" height="51.5625" xmlns="http://www.w3.org/2000/svg" xmlns:xlink="http://www.w3.org/1999/xlink" xmlns:xml="http://www.w3.org/XML/1998/namespace" version="1.1">
  <g>
    <g>
      <path style="fill:#FF0000;fill-opacity:1" d="M20.9765625,4.189453125L18.797607421875,4.390869140625 16.7724609375,4.9951171875 14.864501953125,6.0205078125 13.037109375,7.4853515625 11.3159170150757,9.42993354797363 9.7265625,11.89453125 7.177734375,18.0908203125 6.331787109375,21.298828125 5.8447265625,23.9794921875 5.537109375,28.798828125 5.994873046875,32.2119140625 7.3681640625,34.716796875 9.63500881195068,36.2548828125 12.7734375,36.767578125 14.908447265625,36.5652465820313 16.9189453125,35.958251953125 18.804931640625,34.9465942382813 20.56640625,33.5302734375 23.6315898895264,29.578857421875 26.0302734375,24.19921875 27.5793437957764,18.22998046875 28.095703125,12.509765625 27.6562480926514,8.90625095367432 26.337890625,6.298828125 24.1186504364014,4.716796875 20.9765625,4.189453125z M21.09375,0L23.9849834442139,0.20965576171875 26.5063457489014,0.838623046875 28.6578350067139,1.88690185546875 30.439453125,3.3544921875 31.8365478515625,5.21575975418091 32.83447265625,7.44506931304932 33.4332275390625,10.0424203872681 33.6328125,13.0078125 33.372802734375,17.142333984375 32.5927734375,21.5771484375 31.2744140625,25.986328125 29.3994140625,30.0439453125 27.0007305145264,33.621826171875 24.111328125,36.591796875 20.8081035614014,38.85498046875 17.16796875,40.3125 17.958984375,42.216796875 18.724365234375,43.934326171875 19.4384765625,45.2197265625 20.9765625,46.787109375 23.3203125,47.28515625 25.6201171875,46.8896484375 26.8835430145264,46.300048828125 28.53515625,45.322265625 30.263671875,48.22265625 25.83984375,50.654296875 23.5839824676514,51.33544921875 21.4453125,51.5625 19.383544921875,51.39404296875 17.7099609375,50.888671875 15.146484375,48.8232421875 14.01123046875,47.032470703125 12.7734375,44.443359375 11.220703125,40.869140625 6.375732421875,39.77783203125 2.85644578933716,37.20703125 0.714111328125,33.2080078125 0,27.83203125 0.369872868061066,22.998046875 1.4794921875,17.87109375 3.31420850753784,12.8869647979736 5.859375,8.4814453125 9.0234375,4.8486328125 12.71484375,2.1826171875 16.787109375,0.545654296875 21.09375,0z" />
    </g>
  </g>
</svg>