<?xml version="1.0" encoding="utf-8"?>
<!DOCTYPE svg PUBLIC "-//W3C//DTD SVG 1.1//EN" "http://www.w3.org/Graphics/SVG/1.1/DTD/svg11.dtd">
<svg width="38.349609375" height="29.82421875" xmlns="http://www.w3.org/2000/svg" xmlns:xlink="http://www.w3.org/1999/xlink" xmlns:xml="http://www.w3.org/XML/1998/namespace" version="1.1">
  <g>
    <g>
      <path style="fill:#FF0000;fill-opacity:1" d="M13.740234375,0L16.278076171875,0.281983852386475 18.2666015625,1.1279296875 19.7497539520264,2.55249166488647 20.771484375,4.5703125 23.0712871551514,2.58911275863647 25.341796875,1.1572265625 27.7001953125,0.289308071136475 30.263671875,0 33.33984375,0.3662109375 35.5517578125,1.494140625 37.1484375,3.544921875 38.0859375,6.6357421875 38.28369140625,8.660888671875 38.349609375,11.1328125 38.349609375,29.82421875 33.45703125,29.82421875 33.45703125,12.685546875 33.424072265625,10.458984375 33.3251953125,8.818359375 32.7978515625,6.5625 31.875,5.1416015625 30.6005859375,4.3505859375 28.798828125,4.072265625 26.5576171875,4.599609375 24.521484375,5.9326171875 22.96875,7.6171875 21.9580078125,9.755859375 21.62109375,12.685546875 21.62109375,29.82421875 16.728515625,29.82421875 16.728515625,12.685546875 16.695556640625,10.458984375 16.5966796875,8.818359375 16.0693359375,6.5625 15.146484375,5.1416015625 13.8720703125,4.3505859375 12.0703125,4.072265625 9.8291015625,4.599609375 7.79296875,5.9326171875 6.240234375,7.6171875 5.2294921875,9.755859375 4.892578125,12.685546875 4.892578125,29.82421875 0,29.82421875 0,0.46875 3.28125,0.234375 4.775390625,0.234375 4.775390625,3.779296875 5.068359375,3.779296875 7.28759670257568,2.06176900863647 9.375,0.8935546875 11.47705078125,0.223390102386475 13.740234375,0z" />
    </g>
  </g>
</svg>