<?xml version="1.0" encoding="utf-8"?>
<!DOCTYPE svg PUBLIC "-//W3C//DTD SVG 1.1//EN" "http://www.w3.org/Graphics/SVG/1.1/DTD/svg11.dtd">
<svg width="29.384765625" height="42.01171875" xmlns="http://www.w3.org/2000/svg" xmlns:xlink="http://www.w3.org/1999/xlink" xmlns:xml="http://www.w3.org/XML/1998/namespace" version="1.1">
  <g>
    <g>
      <path style="fill:#FF0000;fill-opacity:1" d="M0,0L8.14453125,0 8.14453125,17.87109375 8.37158107757568,20.625 9.052734375,22.44140625 10.1953115463257,23.4521484375 11.806640625,23.7890625 13.798828125,23.4375 15.6005859375,22.3681640625 16.904296875,20.537109375 17.40234375,17.900390625 17.40234375,0 25.546875,0 25.546875,20.419921875 25.78125,22.3974609375 26.455078125,23.4814453125 27.48046875,23.935546875 28.76953125,24.0234375 29.267578125,24.0234375 29.384765625,29.091796875 27.8466796875,29.443359375 26.3818359375,29.677734375 25.166015625,29.794921875 24.345703125,29.82421875 21.8994140625,29.47265625 20.21484375,28.59375 19.1162109375,27.4365234375 18.45703125,26.25 18.1640625,26.25 16.875,27.7587890625 15.3076171875,28.8720703125 13.5791015625,29.5751953125 11.806640625,29.82421875 9.345703125,29.35546875 7.470703125,28.06640625 7.1484375,28.18359375 7.2216796875,30.0439453125 7.412109375,32.2705078125 7.646484375,34.5703125 7.880859375,36.650390625 8.0712890625,38.203125 8.14453125,38.935546875 8.14453125,42.01171875 0,42.01171875 0,0z" />
    </g>
  </g>
</svg>