<?xml version="1.0" encoding="utf-8"?>
<!DOCTYPE svg PUBLIC "-//W3C//DTD SVG 1.1//EN" "http://www.w3.org/Graphics/SVG/1.1/DTD/svg11.dtd">
<svg width="36.2109375" height="41.953125" xmlns="http://www.w3.org/2000/svg" xmlns:xlink="http://www.w3.org/1999/xlink" xmlns:xml="http://www.w3.org/XML/1998/namespace" version="1.1">
  <g>
    <g>
      <path style="fill:#FF0000;fill-opacity:1" d="M24.0234375,15L20.771484375,15.732421875 20.771484375,16.025390625 23.0859375,16.8896484375 24.43359375,18.4716796875 25.0927734375,20.9033203125 25.2136211395264,22.584228515625 25.25390625,24.66796875 25.25390625,39.375 29.794921875,39.375 29.794921875,23.671875 29.7473125457764,21.40869140625 29.6044921875,19.775390625 28.76953125,17.3583984375 26.982421875,15.6298828125 24.0234375,15z M11.42578125,2.490234375L6.884765625,2.63671875 6.884765625,39.375 11.42578125,39.375 11.42578125,2.490234375z M10.576171875,0L14.53125,0 14.53125,16.845703125 14.8828125,16.93359375 17.54150390625,14.7766132354736 19.833984375,13.4033203125 21.96533203125,12.6672382354736 24.140625,12.421875 27.861328125,12.94921875 30.3662109375,14.384765625 31.93359375,16.552734375 32.7099609375,19.3798828125 32.852783203125,21.302490234375 32.900390625,23.935546875 32.900390625,34.21875 32.92236328125,35.980224609375 32.98828125,37.2216796875 33.369140625,38.8037109375 34.248046875,39.7998046875 35.03173828125,40.177001953125 36.2109375,40.517578125 36.2109375,41.953125 19.658203125,41.953125 19.658203125,40.517578125 21.1669921875,39.814453125 21.9140625,38.4375 22.08984375,37.21435546875 22.1484375,35.361328125 22.1484375,24.228515625 22.08251953125,22.122802734375 21.884765625,20.5517578125 20.9033203125,18.544921875 18.80859375,17.841796875 17.2265625,18.22265625 15.8056640625,19.27734375 14.853515625,20.7275390625 14.53125,22.67578125 14.53125,35.625 14.586181640625,37.144775390625 14.7509765625,38.2470703125 15.4833984375,39.66796875 17.05078125,40.517578125 17.05078125,41.953125 0.468749642372131,41.953125 0.468749642372131,40.517578125 1.89697241783142,40.074462890625 2.783203125,39.5068359375 3.5888671875,37.880859375 3.731689453125,36.416015625 3.779296875,34.013671875 3.779296875,9.111328125 3.74267578125,6.73828125 3.63281202316284,5.126953125 3.1201171875,3.3251953125 2.1533203125,2.4609375 1.31469702720642,2.17529296875 0,1.904296875 0,0.41015625 10.576171875,0z" />
    </g>
  </g>
</svg>