<?xml version="1.0" encoding="utf-8"?>
<!DOCTYPE svg PUBLIC "-//W3C//DTD SVG 1.1//EN" "http://www.w3.org/Graphics/SVG/1.1/DTD/svg11.dtd">
<svg width="28.740234375" height="28.974609375" xmlns="http://www.w3.org/2000/svg" xmlns:xlink="http://www.w3.org/1999/xlink" xmlns:xml="http://www.w3.org/XML/1998/namespace" version="1.1">
  <g>
    <g>
      <path style="fill:#FF0000;fill-opacity:1" d="M26.337890625,0L27.7294902801514,0.0878920555114746 28.740234375,0.3515625 27.48046875,5.9765625 25.224609375,5.9765625 24.9169921875,5.009765625 23.994140625,4.62890625 22.5146484375,5.15625 21.5039043426514,5.877685546875 20.2001953125,6.9873046875 18.394775390625,8.675537109375 15.87890625,11.1328125 19.1015625,21.826171875 19.735107421875,23.616943359375 20.3466796875,24.7705078125 21.068115234375,25.396728515625 22.03125,25.60546875 23.6279296875,25.0341796875 24.6423320770264,24.188232421875 26.015625,22.79296875 27.71484375,24.375 25.6091289520264,26.43310546875 23.6279296875,27.861328125 21.7126445770264,28.6962890625 19.8046875,28.974609375 17.98095703125,28.65966796875 16.552734375,27.71484375 15.41748046875,26.05224609375 14.47265625,23.583984375 11.8359375,14.296875 9.74853420257568,15.6591796875 7.646484375,16.640625 5.09765625,28.505859375 0,28.505859375 4.599609375,7.939453125 4.97314405441284,5.95458984375 5.09765625,4.453125 4.93652296066284,3.29589986801147 4.453125,2.578125 3.51562452316284,2.19726705551147 1.9921875,2.05078125 2.314453125,0.498046875 9.43359375,0.234375 11.19140625,0.234375 8.14453125,13.974609375 9.84008693695068,12.989501953125 12.0556640625,11.2060546875 14.637451171875,8.800048828125 17.431640625,5.947265625 19.669189453125,3.65112447738647 21.2841796875,2.1533203125 23.7744140625,0.52734375 26.337890625,0z" />
    </g>
  </g>
</svg>