<?xml version="1.0" encoding="utf-8"?>
<!DOCTYPE svg PUBLIC "-//W3C//DTD SVG 1.1//EN" "http://www.w3.org/Graphics/SVG/1.1/DTD/svg11.dtd">
<svg width="47.9296875" height="39.990234375" xmlns="http://www.w3.org/2000/svg" xmlns:xlink="http://www.w3.org/1999/xlink" xmlns:xml="http://www.w3.org/XML/1998/namespace" version="1.1">
  <g>
    <g>
      <path style="fill:#FF0000;fill-opacity:1" d="M0,0L12.216796875,0 12.216796875,13.06640625 12.3925771713257,16.153564453125 12.919921875,18.3251953125 13.8464345932007,19.86328125 15.2197265625,21.0498046875 17.098388671875,21.859130859375 19.541015625,22.265625 19.541015625,7.353515625 19.493408203125,5.489501953125 19.3505859375,4.2919921875 18.5888671875,2.900390625 17.757568359375,2.39501953125 16.40625,1.93359375 16.40625,0 31.552734375,0 31.552734375,1.93359375 30.2563457489014,2.376708984375 29.4140625,2.8857421875 28.59375,4.3798828125 28.4399394989014,5.606689453125 28.388671875,7.3828125 28.388671875,22.265625 30.8349609375,21.859130859375 32.724609375,21.0498046875 34.105224609375,19.859619140625 35.0244140625,18.310546875 35.540771484375,16.13525390625 35.712890625,13.06640625 35.712890625,0 47.9296875,0 47.9296875,1.93359375 46.834716796875,2.2998046875 46.1279296875,2.63671875 45.3515625,3.4130859375 44.9560546875,4.6435546875 44.857177734375,5.716552734375 44.82421875,7.3828125 44.82421875,11.513671875 44.747314453125,14.0405292510986 44.5166015625,16.0546875 43.5498046875,19.1015625 41.748046875,21.5478515625 40.4150390625,22.650146484375 38.701171875,23.642578125 34.189453125,25.078125 28.388671875,25.693359375 28.388671875,32.63671875 28.4399394989014,34.500732421875 28.59375,35.6982421875 29.3994140625,37.1044921875 30.2380352020264,37.613525390625 31.552734375,38.056640625 31.552734375,39.990234375 16.40625,39.990234375 16.40625,38.056640625 17.735595703125,37.6171875 18.5595703125,37.119140625 19.3359375,35.7275390625 19.48974609375,34.522705078125 19.541015625,32.63671875 19.541015625,25.693359375 14.560546875,25.2392578125 10.576171875,24.228515625 7.93212890625,22.94677734375 5.91796875,21.26953125 4.595947265625,19.486083984375 3.7353515625,17.4755859375 3.262939453125,14.9230976104736 3.10546875,11.513671875 3.10546875,7.3828125 3.072509765625,5.7861328125 2.9736328125,4.6875 2.54882836341858,3.369140625 1.75781226158142,2.607421875 1.0693359375,2.29248046875 0,1.93359375 0,0z" />
    </g>
  </g>
</svg>