<?xml version="1.0" encoding="utf-8"?>
<!DOCTYPE svg PUBLIC "-//W3C//DTD SVG 1.1//EN" "http://www.w3.org/Graphics/SVG/1.1/DTD/svg11.dtd">
<svg width="29.6777343750001" height="30" xmlns="http://www.w3.org/2000/svg" xmlns:xlink="http://www.w3.org/1999/xlink" xmlns:xml="http://www.w3.org/XML/1998/namespace" version="1.1">
  <g>
    <g>
      <path style="fill:#FF0000;fill-opacity:1" d="M15.52734375,3.017578125L13.604736328125,3.54492330551147 12.2900390625,5.126953125 11.4660634994507,7.880859375 11.015625,11.923828125 18.779296875,11.923828125 18.7216186523438,9.61029052734375 18.577880859375,7.679443359375 18.3480834960938,6.13128662109375 18.0322265625,4.9658203125 17.047119140625,3.50464010238647 15.52734375,3.017578125z M11.923828125,2.197265625L8.133544921875,3.81958150863647 5.3759765625,6.4599609375 3.69506788253784,10.089111328125 3.134765625,14.677734375 3.32427954673767,17.742919921875 3.89282178878784,20.4052734375 4.84039258956909,22.664794921875 6.1669921875,24.521484375 7.87261915206909,25.9698486328125 9.95727443695068,27.00439453125 12.4209585189819,27.6251220703125 15.263671875,27.83203125 15.439453125,27.5390625 12.132568359375,25.9405517578125 9.7705078125,23.28369140625 8.353271484375,19.5684814453125 7.880859375,14.794921875 8.1298828125,10.323486328125 8.876953125,6.8115234375 10.1733388900757,4.20044088363647 12.0703125,2.431640625 11.923828125,2.197265625z M18.92578125,2.109375L18.779296875,2.34375 20.123291015625,3.85620260238647 21.1083984375,6.1083984375 21.7126445770264,9.034423828125 21.9140625,12.568359375 26.513671875,12.568359375 26.0192852020264,8.587646484375 24.5361328125,5.4345703125 22.1447734832764,3.23364400863647 18.92578125,2.109375z M15.41015625,0L19.193115234375,0.245362758636475 22.2802734375,0.9814453125 24.7302227020264,2.17529439926147 26.6015625,3.7939453125 27.9711894989014,5.833740234375 28.916015625,8.291015625 29.47265625,11.3232421875 29.677734375,15.087890625 10.95703125,15.087890625 11.4569091796875,19.727783203125 12.89794921875,23.0419921875 15.2801513671875,25.030517578125 18.603515625,25.693359375 20.7421875,25.455322265625 22.763671875,24.7412109375 24.7631816864014,23.485107421875 26.8359375,21.62109375 29.033203125,23.935546875 26.1877422332764,26.524658203125 22.8076171875,28.4326171875 19.002685546875,29.608154296875 14.8828125,30 11.4898681640625,29.7637939453125 8.51806640625,29.05517578125 5.9674072265625,27.8741455078125 3.837890625,26.220703125 2.1588134765625,24.1131591796875 0.95947253704071,21.56982421875 0.239868059754372,18.5906982421875 0,15.17578125 0.450439274311066,10.8251953125 1.8017578125,7.08984375 4.02465772628784,4.06128072738647 7.08984375,1.8310546875 10.9130849838257,0.457765102386475 15.41015625,0z" />
    </g>
  </g>
</svg>