<?xml version="1.0" encoding="utf-8"?>
<!DOCTYPE svg PUBLIC "-//W3C//DTD SVG 1.1//EN" "http://www.w3.org/Graphics/SVG/1.1/DTD/svg11.dtd">
<svg width="32.98828125" height="39.990234375" xmlns="http://www.w3.org/2000/svg" xmlns:xlink="http://www.w3.org/1999/xlink" xmlns:xml="http://www.w3.org/XML/1998/namespace" version="1.1">
  <g>
    <g>
      <path style="fill:#FF0000;fill-opacity:1" d="M14.384765625,9.78515625L5.15625,24.404296875 5.15625,24.90234375 14.53125,24.90234375 14.53125,17.9296875 14.56787109375,13.1103534698486 14.677734375,9.78515625 14.384765625,9.78515625z M19.04296875,2.578125L17.783203125,4.482421875 17.783203125,37.412109375 22.587890625,37.412109375 22.587890625,2.578125 19.04296875,2.578125z M17.080078125,0L25.83984375,0 25.83984375,24.90234375 26.89453125,24.90234375 28.4692363739014,24.73388671875 29.501953125,24.228515625 30.1904296875,23.26904296875 30.732421875,21.73828125 32.98828125,21.73828125 32.63671875,28.212890625 25.83984375,28.212890625 25.83984375,32.666015625 25.8947734832764,34.698486328125 26.0595703125,36.0498046875 26.9384765625,37.587890625 27.8503398895264,38.09326171875 29.267578125,38.5546875 29.267578125,39.990234375 11.103515625,39.990234375 11.103515625,38.5546875 12.5170888900757,38.115234375 13.41796875,37.6171875 14.296875,36.064453125 14.47265625,34.7021484375 14.53125,32.666015625 14.53125,28.212890625 0,28.212890625 0,25.576171875 17.080078125,0z" />
    </g>
  </g>
</svg>