<?xml version="1.0" encoding="utf-8"?>
<!DOCTYPE svg PUBLIC "-//W3C//DTD SVG 1.1//EN" "http://www.w3.org/Graphics/SVG/1.1/DTD/svg11.dtd">
<svg width="50.859375" height="29.53125" xmlns="http://www.w3.org/2000/svg" xmlns:xlink="http://www.w3.org/1999/xlink" xmlns:xml="http://www.w3.org/XML/1998/namespace" version="1.1">
  <g>
    <g>
      <path style="fill:#FF0000;fill-opacity:1" d="M18.515625,5.44921875L15.882568359375,8.704833984375 13.9599609375,12.4365234375 12.7844228744507,16.490478515625 12.392578125,20.712890625 12.5866689682007,23.2470703125 13.1689453125,25.048828125 14.1467275619507,26.12548828125 15.52734375,26.484375 17.2686767578125,25.9735107421875 18.77197265625,24.44091796875 20.0372314453125,21.8865966796875 21.064453125,18.310546875 22.734375,10.72265625 31.025390625,10.72265625 29.4140625,17.724609375 28.8647441864014,20.625 28.681640625,22.939453125 28.8354473114014,24.591064453125 29.296875,25.6787109375 30.0952129364014,26.282958984375 31.259765625,26.484375 32.991943359375,26.019287109375 34.6142578125,24.6240234375 36.02783203125,22.4267578125 37.1337890625,19.5556640625 37.847900390625,16.343994140625 38.0859375,13.125 37.7783203125,8.935546875 36.9140625,5.44921875 18.515625,5.44921875z M11.6015625,0L50.859375,0 49.599609375,5.44921875 42.216796875,5.44921875 43.95263671875,7.752685546875 45.17578125,10.0927734375 45.90087890625,12.513427734375 46.142578125,15.05859375 45.655517578125,18.69140625 44.1943359375,22.20703125 41.90185546875,25.283203125 38.9208984375,27.59765625 35.423583984375,29.0478515625 31.58203125,29.53125 29.0917949676514,29.219970703125 26.953125,28.2861328125 25.2465801239014,26.759033203125 24.052734375,24.66796875 23.7890625,24.66796875 22.1136474609375,26.795654296875 19.98779296875,28.3154296875 17.4114990234375,29.227294921875 14.384765625,29.53125 11.6162099838257,29.21630859375 9.111328125,28.271484375 6.99462890625,26.759033203125 5.390625,24.7412109375 4.3798828125,22.327880859375 4.04296875,19.62890625 4.5648193359375,15.743408203125 6.13037109375,12.0849609375 8.7396240234375,8.653564453125 12.392578125,5.44921875 9.2578125,5.44921875 6.7529296875,5.712890625 4.80468702316284,6.6357421875 3.7353515625,7.496337890625 2.4609375,8.759765625 0,6.5625 2.21557593345642,4.03564596176147 3.9990234375,2.314453125 5.58471632003784,1.20117330551147 7.20703125,0.498046875 9.1259765625,0.124513149261475 11.6015625,0z" />
    </g>
  </g>
</svg>