<?xml version="1.0" encoding="utf-8"?>
<!DOCTYPE svg PUBLIC "-//W3C//DTD SVG 1.1//EN" "http://www.w3.org/Graphics/SVG/1.1/DTD/svg11.dtd">
<svg width="48.427734375" height="41.982421875" xmlns="http://www.w3.org/2000/svg" xmlns:xlink="http://www.w3.org/1999/xlink" xmlns:xml="http://www.w3.org/XML/1998/namespace" version="1.1">
  <g>
    <g>
      <path style="fill:#FF0000;fill-opacity:1" d="M11.30859375,3.837890625L9.9462890625,5.595703125 9.462890625,7.705078125 10.0927734375,10.1513671875 11.89453125,12.3046875 13.4838857650757,13.7402362823486 14.560546875,14.765625 15.9375,16.5087890625 16.8310546875,18.5595703125 17.16796875,21.123046875 16.962890625,23.404541015625 16.34765625,25.2685546875 15.16845703125,27.117919921875 13.271484375,29.35546875 16.34033203125,30.3515625 19.21875,32.34375 20.888671875,33.80859375 22.3681640625,35.0537109375 23.759765625,35.9619140625 25.2978515625,36.6357421875 26.9091796875,37.03125 28.681640625,37.1484375 32.8125,36.50390625 31.307373046875,34.81201171875 30.1904296875,33.779296875 28.4765625,33.076171875 27.3486328125,33.3251953125 26.337890625,34.189453125 24.55078125,32.34375 26.7187480926514,30.347900390625 28.7109375,28.9306640625 30.54931640625,28.084716796875 32.255859375,27.802734375 33.7646484375,28.040771484375 35.244140625,28.7548828125 36.78955078125,29.981689453125 38.49609375,31.7578125 40.01220703125,27.82470703125 40.517578125,22.880859375 40.103759765625,18.497314453125 38.8623046875,14.7802734375 36.881103515625,11.8103046417236 34.248046875,9.66796875 31.0693359375,8.37158203125 27.451171875,7.939453125 25.166015625,8.0859375 22.646484375,8.49609375 17.578125,9.08203125 15.5126953125,8.73779392242432 13.7109375,7.705078125 12.2753896713257,6.0498046875 11.30859375,3.837890625z M11.630859375,0L12.65625,0.7763671875 13.6962890625,1.142578125 15.205078125,1.2890625 16.611328125,1.2158203125 17.6953125,1.058349609375 19.716796875,0.732421875 22.3974609375,0.3515625 25.78125,0.17578125 31.63330078125,0.750732421875 36.591796875,2.4755859375 40.56884765625,5.291748046875 43.4765625,9.140625 45.25634765625,13.8208026885986 45.849609375,19.130859375 45.509033203125,23.26171875 44.4873046875,27.216796875 42.835693359375,30.87890625 40.60546875,34.130859375 42.42919921875,35.6689453125 43.857421875,36.181640625 45.29296875,35.6689453125 46.5234375,34.16015625 48.427734375,35.80078125 46.23046875,38.45947265625 44.091796875,40.341796875 42.041015625,41.46240234375 40.107421875,41.8359375 37.587890625,41.19140625 36.30615234375,40.3271484375 34.921875,39.0234375 29.5458984375,41.24267578125 23.671875,41.982421875 20.6103515625,41.7333984375 17.841796875,41.015625 15.05859375,39.7265625 11.8359375,37.587890625 9.3310546875,36.09375 7.08984375,35.56640625 5.57373046875,35.782470703125 4.248046875,36.4306640625 3.11279296875,37.510986328125 2.16796898841858,39.0234375 0,37.67578125 1.827392578125,34.354248046875 4.1455078125,31.7724609375 6.837158203125,30.010986328125 9.78515625,29.150390625 10.83984375,27.4951171875 11.25,25.95703125 11.044921875,24.5947265625 10.400390625,23.2763671875 9.462890625,22.0751953125 8.69384765625,21.280517578125 7.3828125,19.98046875 5.2294921875,17.5927734375 3.98437452316284,15.2490234375 3.515625,12.421875 3.988037109375,9.41894626617432 5.4052734375,6.4453125 7.906494140625,3.3544921875 11.630859375,0z" />
    </g>
  </g>
</svg>