<?xml version="1.0" encoding="utf-8"?>
<!DOCTYPE svg PUBLIC "-//W3C//DTD SVG 1.1//EN" "http://www.w3.org/Graphics/SVG/1.1/DTD/svg11.dtd">
<svg width="43.125" height="43.06640625" xmlns="http://www.w3.org/2000/svg" xmlns:xlink="http://www.w3.org/1999/xlink" xmlns:xml="http://www.w3.org/XML/1998/namespace" version="1.1">
  <g>
    <g>
      <path style="fill:#FF0000;fill-opacity:1" d="M23.61328125,21.26953125L22.8076171875,24.609375 20.5810546875,27.6416015625 18.636474609375,29.315185546875 15.76171875,31.376953125 19.4970703125,32.9736328125 23.14453125,35.595703125 26.07421875,37.529296875 29.35546875,38.14453125 31.53076171875,37.705078125 33.251953125,36.38671875 34.37255859375,34.32861328125 34.74609375,31.669921875 34.44580078125,28.95263671875 33.544921875,26.484375 32.010498046875,24.371337890625 29.8095703125,22.7197265625 26.9934062957764,21.646728515625 23.61328125,21.26953125z M28.095703125,5.947265625L25.7080078125,6.357421875 23.14453125,7.5 23.4814453125,10.01953125 23.61328125,13.212890625 23.61328125,18.544921875 27.7844219207764,17.4279804229736 30.6884765625,15.8935546875 32.391357421875,13.7951679229736 32.958984375,10.986328125 32.618408203125,8.983154296875 31.5966796875,7.3681640625 30.040283203125,6.302490234375 28.095703125,5.947265625z M12.83203125,0L15.904541015625,0.28564453125 18.5009765625,1.142578125 20.599365234375,2.578125 22.177734375,4.599609375 25.733642578125,3.1805419921875 28.5791015625,1.94091796875 30.714111328125,0.8807373046875 32.138671875,0 33.3251953125,0.6884765625 34.951171875,1.259765625 37.855224609375,2.43896484375 39.9462890625,4.04296875 41.209716796875,6.08642578125 41.630859375,8.583984375 41.099853515625,11.6491718292236 39.5068359375,14.1064453125 36.756591796875,16.1975116729736 32.75390625,18.1640625 35.877685546875,18.8671875 38.5107421875,20.0390625 40.579833984375,21.566162109375 42.01171875,23.3349609375 42.8466796875,25.257568359375 43.125,27.24609375 42.4658203125,31.241455078125 40.48828125,35.0244140625 37.357177734375,38.32763671875 33.2373046875,40.8837890625 28.4362773895264,42.520751953125 23.26171875,43.06640625 20.5078125,42.8466796875 17.9736328125,42.1728515625 15.556640625,41.0302734375 14.0771484375,40.074462890625 11.982421875,38.583984375 9.375,37.03125 6.943359375,36.50390625 5.67260694503784,36.70166015625 4.43847703933716,37.294921875 2.19726586341858,39.521484375 0,38.056640625 1.76513671875,35.694580078125 3.42773485183716,33.8818359375 7.119140625,31.46484375 9.31640625,30.8056640625 11.748046875,30.5859375 12.7734375,30.615234375 14.0625,28.4765625 14.7216796875,25.3271484375 14.864501953125,22.994384765625 14.912109375,19.775390625 14.912109375,10.986328125 14.8388671875,8.624267578125 14.619140625,6.7529296875 13.41796875,4.1162109375 12.3120107650757,3.358154296875 10.810546875,3.10546875 9.2578125,3.380126953125 7.939453125,4.2041015625 7.03857421875,5.445556640625 6.73828125,6.97265625 6.943359375,8.291015625 7.734375,9.8583984375 9.4921875,12.158203125 11.54296875,15.263671875 12.275390625,18.3984375 11.7150869369507,21.295166015625 10.0341796875,23.7744140625 7.283935546875,25.814208984375 3.515625,27.392578125 2.578125,25.3125 4.08691358566284,24.4921875 5.0390625,23.671875 5.712890625,21.767578125 5.068359375,19.6728515625 4.23339796066284,18.453369140625 3.017578125,16.93359375 1.71386694908142,15.1318359375 0.717773199081421,13.0224609375 0.32226574420929,10.48828125 0.714111328125,7.734375 1.8896484375,5.21484375 3.779296875,3.0615234375 6.3134765625,1.40625 9.371337890625,0.3515625 12.83203125,0z" />
    </g>
  </g>
</svg>