<?xml version="1.0" encoding="utf-8"?>
<!DOCTYPE svg PUBLIC "-//W3C//DTD SVG 1.1//EN" "http://www.w3.org/Graphics/SVG/1.1/DTD/svg11.dtd">
<svg width="27.509765625" height="40.458984375" xmlns="http://www.w3.org/2000/svg" xmlns:xlink="http://www.w3.org/1999/xlink" xmlns:xml="http://www.w3.org/XML/1998/namespace" version="1.1">
  <g>
    <g>
      <path style="fill:#FF0000;fill-opacity:1" d="M14.47265625,0L18.3837890625,0.289306640625 21.50390625,1.1572265625 23.8513164520264,2.51953125 25.4443359375,4.2919921875 26.3561992645264,6.434326171875 26.66015625,8.90625 26.4440898895264,11.1401386260986 25.7958984375,13.212890625 24.6166973114014,15.3442401885986 22.8076171875,17.75390625 19.9548320770264,20.85205078125 15.64453125,25.048828125 13.941650390625,26.744384765625 11.9384765625,28.9013671875 10.0085439682007,31.116943359375 8.525390625,32.98828125 8.525390625,33.28125 18.92578125,33.28125 20.5883769989014,33.211669921875 21.767578125,33.0029296875 23.2470703125,32.0361328125 24.140625,29.970703125 27.509765625,29.970703125 26.8359375,40.458984375 0,40.458984375 0,38.525390625 1.4227294921875,35.745849609375 3.43505859375,32.5927734375 6.0369873046875,29.066162109375 9.228515625,25.166015625 12.015380859375,21.77490234375 14.0478515625,19.04296875 15.494384765625,16.70654296875 16.5234375,14.501953125 17.138671875,12.3266620635986 17.34375,10.078125 16.98486328125,7.203369140625 15.908203125,5.0244140625 14.208984375,3.651123046875 11.982421875,3.193359375 9.8089599609375,3.6236572265625 8.06396484375,4.91455078125 6.7474365234375,7.0660400390625 5.859375,10.078125 0.5859375,10.078125 0.5859375,3.1640625 4.89990234375,1.56005859375 8.291015625,0.615234375 14.47265625,0z" />
    </g>
  </g>
</svg>