<?xml version="1.0" encoding="utf-8"?>
<!DOCTYPE svg PUBLIC "-//W3C//DTD SVG 1.1//EN" "http://www.w3.org/Graphics/SVG/1.1/DTD/svg11.dtd">
<svg width="36.943359375" height="41.953125" xmlns="http://www.w3.org/2000/svg" xmlns:xlink="http://www.w3.org/1999/xlink" xmlns:xml="http://www.w3.org/XML/1998/namespace" version="1.1">
  <g>
    <g>
      <path style="fill:#FF0000;fill-opacity:1" d="M22.060546875,23.876953125L19.21875,26.30859375 26.484375,39.375 30.9375,39.375 22.060546875,23.876953125z M11.42578125,2.490234375L6.884765625,2.63671875 6.884765625,39.375 11.42578125,39.375 11.42578125,2.490234375z M10.576171875,0L14.53125,0 14.53125,24.697265625 15.64453125,24.697265625 17.5341796875,24.2431640625 19.716796875,22.646484375 22.0751953125,20.3173828125 23.6572265625,18.2080078125 24.140625,16.40625 23.49609375,14.8828125 21.62109375,14.326171875 21.62109375,12.890625 34.74609375,12.890625 34.74609375,14.326171875 33.123779296875,14.7290058135986 31.4208984375,15.5859375 28.30078125,18.251953125 24.66796875,22.44140625 31.875,34.6875 33.486328125,37.276611328125 34.74609375,38.9501953125 35.83740234375,39.949951171875 36.943359375,40.517578125 36.943359375,41.953125 20.68359375,41.953125 20.68359375,40.517578125 21.6943359375,39.990234375 22.08984375,38.935546875 21.73828125,37.119140625 21.23291015625,35.96923828125 20.419921875,34.39453125 18.193359375,30.380859375 16.5966796875,28.2275390625 14.912109375,27.509765625 14.53125,27.509765625 14.53125,35.009765625 14.58251953125,36.976318359375 14.736328125,38.2470703125 15.52734375,39.7119140625 16.3037109375,40.184326171875 17.4609375,40.517578125 17.4609375,41.953125 0.468750238418579,41.953125 0.468750238418579,40.517578125 1.937255859375,40.037841796875 2.8271484375,39.4775390625 3.603515625,37.763671875 3.7353515625,36.42333984375 3.77929639816284,34.62890625 3.77929639816284,9.111328125 3.74267578125,6.73828125 3.6328125,5.126953125 3.12011766433716,3.3251953125 2.15332007408142,2.4609375 1.31469702720642,2.17529296875 0,1.904296875 0,0.41015625 10.576171875,0z" />
    </g>
  </g>
</svg>