<?xml version="1.0" encoding="utf-8"?>
<!DOCTYPE svg PUBLIC "-//W3C//DTD SVG 1.1//EN" "http://www.w3.org/Graphics/SVG/1.1/DTD/svg11.dtd">
<svg width="29.501953125" height="42.421875" xmlns="http://www.w3.org/2000/svg" xmlns:xlink="http://www.w3.org/1999/xlink" xmlns:xml="http://www.w3.org/XML/1998/namespace" version="1.1">
  <g>
    <g>
      <path style="fill:#FF0000;fill-opacity:1" d="M13.447265625,15.46875L11.396484375,15.7067890167236 9.580078125,16.4208984375 6.6943359375,18.9990234375 4.8779296875,22.79296875 4.248046875,27.421875 4.833984375,32.138671875 6.4892578125,35.8154296875 9.0380859375,38.2177734375 10.6018056869507,38.865966796875 12.333984375,39.08203125 15.205078125,38.6279296875 17.607421875,37.412109375 19.5263671875,35.68359375 20.91796875,33.720703125 21.767578125,31.7578125 22.060546875,30.05859375 22.060546875,23.056640625 21.4453125,20.419921875 19.7021484375,17.9736328125 16.9921875,16.171875 13.447265625,15.46875z M18.427734375,0L26.044921875,0 26.044921875,38.7890625 29.501953125,38.7890625 29.501953125,41.953125 21.796875,41.953125 21.796875,37.822265625 21.5625,37.79296875 19.493408203125,39.873046875 17.1533203125,41.30859375 14.586181640625,42.1435546875 11.8359375,42.421875 9.10766506195068,42.139892578125 6.7236328125,41.2939453125 4.691162109375,39.957275390625 3.017578125,38.203125 0.761718273162842,33.5595703125 0.190429627895355,30.772705078125 0,27.7734375 0.2490234375,24.415283203125 0.99609375,21.3720703125 2.18994092941284,18.695068359375 3.779296875,16.435546875 5.723876953125,14.6154804229736 7.9833984375,13.2568359375 10.5139150619507,12.4108905792236 13.271484375,12.12890625 16.2451171875,12.3486328125 18.5302734375,12.9638671875 20.3759765625,13.9306640625 22.060546875,15.17578125 22.060546875,2.98828125 18.427734375,2.98828125 18.427734375,0z" />
    </g>
  </g>
</svg>