<?xml version="1.0" encoding="utf-8"?>
<!DOCTYPE svg PUBLIC "-//W3C//DTD SVG 1.1//EN" "http://www.w3.org/Graphics/SVG/1.1/DTD/svg11.dtd">
<svg width="27.626953125" height="40.01953125" xmlns="http://www.w3.org/2000/svg" xmlns:xlink="http://www.w3.org/1999/xlink" xmlns:xml="http://www.w3.org/XML/1998/namespace" version="1.1">
  <g>
    <g>
      <path style="fill:#FF0000;fill-opacity:1" d="M8.3203125,3.1640625L8.3203125,19.306640625 12.802734375,19.306640625 17.548828125,18.69140625 20.888671875,16.9775390625 22.8515625,14.384765625 23.49609375,11.1328125 23.3056621551514,9.05639839172363 22.734375,7.3388671875 20.5810546875,4.8779296875 17.2412109375,3.5595703125 12.94921875,3.1640625 8.3203125,3.1640625z M0,0L13.53515625,0 18.7939453125,0.52734375 23.291015625,2.3291015625 25.0598125457764,3.812255859375 26.4404296875,5.712890625 27.330322265625,8.08593845367432 27.626953125,10.986328125 26.953125,15.087890625 25.13671875,18.1201171875 22.5146484375,20.2294921875 19.423828125,21.5625 16.1865234375,22.265625 13.154296875,22.470703125 8.3203125,22.470703125 8.3203125,36.85546875 15.99609375,36.85546875 15.99609375,40.01953125 0,40.01953125 0,36.85546875 4.39453172683716,36.85546875 4.39453172683716,3.1640625 0,3.1640625 0,0z" />
    </g>
  </g>
</svg>