<?xml version="1.0" encoding="utf-8"?>
<!DOCTYPE svg PUBLIC "-//W3C//DTD SVG 1.1//EN" "http://www.w3.org/Graphics/SVG/1.1/DTD/svg11.dtd">
<svg width="29.443359375" height="39.990234375" xmlns="http://www.w3.org/2000/svg" xmlns:xlink="http://www.w3.org/1999/xlink" xmlns:xml="http://www.w3.org/XML/1998/namespace" version="1.1">
  <g>
    <g>
      <path style="fill:#FF0000;fill-opacity:1" d="M5.18554639816284,4.130859375L5.18554639816284,35.859375 9.0234375,35.859375 14.0478515625,35.452880859375 17.6953125,34.2333984375 20.3210430145264,32.120361328125 22.2802734375,29.033203125 23.4997539520264,24.9169921875 23.90625,19.716796875 23.6682109832764,15.5456562042236 22.9541015625,12.1142578125 21.7932109832764,9.38965034484863 20.21484375,7.3388671875 18.2519512176514,5.86669921875 15.9375,4.8779296875 13.16162109375,4.317626953125 9.814453125,4.130859375 5.18554639816284,4.130859375z M0,0L9.08203125,0 14.52392578125,0.289306640625 18.720703125,1.1572265625 21.9799785614014,2.58544921875 24.609375,4.5556640625 26.66015625,7.115478515625 28.18359375,10.3125 29.12841796875,14.2749042510986 29.443359375,19.130859375 28.99658203125,25.11474609375 27.65625,29.82421875 25.61279296875,33.4423828125 23.056640625,36.15234375 20.0939922332764,38.0419921875 16.8310546875,39.19921875 12.828369140625,39.79248046875 7.64648389816284,39.990234375 0,39.990234375 0,0z" />
    </g>
  </g>
</svg>