<?xml version="1.0" encoding="utf-8"?>
<!DOCTYPE svg PUBLIC "-//W3C//DTD SVG 1.1//EN" "http://www.w3.org/Graphics/SVG/1.1/DTD/svg11.dtd">
<svg width="36.6503906250003" height="51.6796875" xmlns="http://www.w3.org/2000/svg" xmlns:xlink="http://www.w3.org/1999/xlink" xmlns:xml="http://www.w3.org/XML/1998/namespace" version="1.1">
  <g>
    <g>
      <path style="fill:#FF0000;fill-opacity:1" d="M21.97265625,5.888671875L19.259033203125,6.331787109375 16.7431640625,7.6611328125 14.47265625,9.81445503234863 12.4951171875,12.7294921875 10.8691396713257,16.2561054229736 9.6533203125,20.244140625 8.895263671875,24.20654296875 8.642578125,27.65625 8.994140625,30.9228515625 10.048828125,33.22265625 11.8286123275757,34.5849609375 14.35546875,35.0390625 17.96630859375,34.29931640625 21.181640625,32.080078125 23.9245586395264,28.458251953125 26.1181640625,23.5107421875 27.5573711395264,18.094482421875 28.037109375,13.06640625 27.6672344207764,9.86206245422363 26.5576171875,7.6318359375 24.6716289520264,6.324462890625 21.97265625,5.888671875z M22.587890625,0L25.8480834960938,0.21881103515625 28.685302734375,0.875244140625 31.0995483398438,1.96929931640625 33.0908203125,3.5009765625 34.6481323242188,5.46112108230591 35.760498046875,7.84057712554932 36.4279174804688,10.6393442153931 36.650390625,13.857421875 36.126708984375,19.866943359375 34.5556640625,25.8251953125 32.054443359375,31.175537109375 28.740234375,35.361328125 24.7045879364014,38.37890625 20.0390625,40.224609375 20.859375,42.24609375 21.591796875,43.7109375 22.5439453125,44.9267578125 23.6572265625,45.5419921875 25.166015625,45.703125 27.3779296875,45.322265625 29.8828125,44.150390625 32.255859375,48.69140625 29.736328125,50.01708984375 27.216796875,50.947265625 22.294921875,51.6796875 20.050048828125,51.529541015625 18.2373046875,51.0791015625 16.70654296875,50.240478515625 15.3076171875,48.92578125 14.029541015625,47.04345703125 12.861328125,44.501953125 11.396484375,40.72265625 6.456298828125,39.400634765625 2.88574242591858,36.7236328125 0.721435308456421,32.662353515625 0,27.1875 0.373534768819809,22.283935546875 1.49414038658142,17.3583984375 3.33251905441284,12.6709003448486 5.859375,8.4814453125 9.078369140625,4.95849609375 12.9931640625,2.2705078125 17.523193359375,0.567626953125 22.587890625,0z" />
    </g>
  </g>
</svg>