<?xml version="1.0" encoding="utf-8"?>
<!DOCTYPE svg PUBLIC "-//W3C//DTD SVG 1.1//EN" "http://www.w3.org/Graphics/SVG/1.1/DTD/svg11.dtd">
<svg width="40.166015625" height="39.990234375" xmlns="http://www.w3.org/2000/svg" xmlns:xlink="http://www.w3.org/1999/xlink" xmlns:xml="http://www.w3.org/XML/1998/namespace" version="1.1">
  <g>
    <g>
      <path style="fill:#FF0000;fill-opacity:1" d="M0,0L12.626953125,0 20.0390625,22.705078125 20.419921875,22.705078125 28.505859375,0 40.166015625,0 40.166015625,39.990234375 31.611328125,39.990234375 31.611328125,20.859375 31.728515625,15.43212890625 32.080078125,8.701171875 31.787109375,8.701171875 31.314697265625,10.4223642349243 30.6005859375,12.6562519073486 29.644775390625,15.4028329849243 28.447265625,18.662109375 22.294921875,35.302734375 17.255859375,35.302734375 11.1328125,17.51953125 9.4482421875,12.3193359375 8.72680568695068,9.93530464172363 8.291015625,8.37890625 7.998046875,8.37890625 8.14086818695068,11.0302753448486 8.2763671875,14.4140625 8.408203125,21.357421875 8.408203125,39.990234375 0,39.990234375 0,0z" />
    </g>
  </g>
</svg>