<?xml version="1.0" encoding="utf-8"?>
<!DOCTYPE svg PUBLIC "-//W3C//DTD SVG 1.1//EN" "http://www.w3.org/Graphics/SVG/1.1/DTD/svg11.dtd">
<svg width="30.087890625" height="41.923828125" xmlns="http://www.w3.org/2000/svg" xmlns:xlink="http://www.w3.org/1999/xlink" xmlns:xml="http://www.w3.org/XML/1998/namespace" version="1.1">
  <g>
    <g>
      <path style="fill:#FF0000;fill-opacity:1" d="M13.916015625,0L17.34375,0 14.091796875,14.853515625 14.384765625,14.853515625 16.834716796875,13.6120624542236 19.0869140625,12.7587890625 23.3203125,12.099609375 26.1621074676514,12.5207538604736 28.30078125,13.7841796875 29.6411113739014,15.7653827667236 30.087890625,18.33984375 29.853515625,21.5185546875 29.23828125,24.814453125 25.546875,41.923828125 17.40234375,41.923828125 21.03515625,25.37109375 21.4453125,23.2763671875 21.6796875,21.005859375 21.09375,18.9111328125 20.3173828125,18.328857421875 19.16015625,18.134765625 16.9921875,18.4716796875 14.6630859375,19.775390625 12.8759765625,21.796875 12.3449697494507,23.06396484375 11.89453125,24.755859375 8.14453125,41.923828125 0,41.923828125 9.140625,0.29296875 13.916015625,0z" />
    </g>
  </g>
</svg>