<?xml version="1.0" encoding="utf-8"?>
<!DOCTYPE svg PUBLIC "-//W3C//DTD SVG 1.1//EN" "http://www.w3.org/Graphics/SVG/1.1/DTD/svg11.dtd">
<svg width="30.8203125000001" height="30" xmlns="http://www.w3.org/2000/svg" xmlns:xlink="http://www.w3.org/1999/xlink" xmlns:xml="http://www.w3.org/XML/1998/namespace" version="1.1">
  <g>
    <g>
      <path style="fill:#FF0000;fill-opacity:1" d="M15.41015625,3.046875L13.370361328125,3.74267721176147 11.9970703125,5.830078125 11.5420522689819,7.41943359375 11.2170400619507,9.404296875 11.0220327377319,11.78466796875 10.95703125,14.560546875 11.0266103744507,17.48291015625 11.2353506088257,20.009765625 11.5832509994507,22.14111328125 12.0703125,23.876953125 12.7001953125,25.2227783203125 13.4765625,26.18408203125 14.3994140625,26.7608642578125 15.46875,26.953125 17.427978515625,26.2646484375 18.7939453125,24.19921875 19.2617797851563,22.628173828125 19.595947265625,20.6689453125 19.7964477539063,18.321533203125 19.86328125,15.5859375 19.7927856445313,12.6470947265625 19.581298828125,10.10009765625 19.2288208007813,7.9449462890625 18.7353515625,6.181640625 18.1045532226563,4.81018161773682 17.340087890625,3.83056783676147 16.4419555664063,3.24279880523682 15.41015625,3.046875z M19.21875,2.34375L19.04296875,2.607421875 20.7476787567139,4.47876071929932 21.9653301239014,7.19238424301147 22.6959209442139,10.7482919692993 22.939453125,15.146484375 22.7050762176514,19.6435546875 22.001953125,23.115234375 20.7568340301514,25.6787109375 18.896484375,27.451171875 19.04296875,27.685546875 22.7600078582764,26.1181640625 25.4736328125,23.525390625 27.1325664520264,19.9072265625 27.685546875,15.263671875 27.1728496551514,10.2978515625 25.634765625,6.533203125 23.0053691864014,3.90381002426147 19.21875,2.34375z M11.748046875,2.314453125L7.979736328125,3.91113376617432 5.2880859375,6.50390768051147 3.67309546470642,10.0927743911743 3.134765625,14.677734375 3.64379835128784,19.661865234375 5.1708984375,23.4228515625 7.789306640625,26.041259765625 11.572265625,27.59765625 11.748046875,27.333984375 10.05615234375,25.484619140625 8.84765625,22.7783203125 8.12255859375,19.215087890625 7.880859375,14.794921875 8.111572265625,10.341796875 8.8037109375,6.884765625 10.0378408432007,4.32129049301147 11.89453125,2.548828125 11.748046875,2.314453125z M15.615234375,0L19.1610698699951,0.232545018196106 22.2399883270264,0.930177211761475 24.8519878387451,2.09289646148682 26.9970703125,3.720703125 28.6697387695313,5.804443359375 29.864501953125,8.3349609375 30.5813598632813,11.312255859375 30.8203125,14.736328125 30.567626953125,18.248291015625 29.8095703125,21.3134765625 28.546142578125,23.931884765625 26.77734375,26.103515625 24.5306377410889,27.8082275390625 21.8334941864014,29.02587890625 18.6859111785889,29.7564697265625 15.087890625,30 11.605224609375,29.765625 8.5693359375,29.0625 5.980224609375,27.890625 3.837890625,26.25 2.1588134765625,24.1534423828125 0.95947253704071,21.61376953125 0.239868059754372,18.6309814453125 0,15.205078125 0.505370914936066,10.48095703125 2.021484375,6.62109375 4.412841796875,3.65112447738647 7.5439453125,1.5966796875 11.3122549057007,0.399171352386475 15.615234375,0z" />
    </g>
  </g>
</svg>