<?xml version="1.0" encoding="utf-8"?>
<!DOCTYPE svg PUBLIC "-//W3C//DTD SVG 1.1//EN" "http://www.w3.org/Graphics/SVG/1.1/DTD/svg11.dtd">
<svg width="24.7558593750009" height="30.8203125" xmlns="http://www.w3.org/2000/svg" xmlns:xlink="http://www.w3.org/1999/xlink" xmlns:xml="http://www.w3.org/XML/1998/namespace" version="1.1">
  <g>
    <g>
      <path style="fill:#FF0000;fill-opacity:1" d="M9.2578125,4.658203125L6.796875,6.9580078125 6.02783203125,8.56201171875 5.478515625,10.5908203125 5.14892578125,13.143310546875 5.0390625,16.318359375 5.372314453125,20.33935546875 6.3720703125,23.26171875 7.899169921875,25.04150390625 9.814453125,25.634765625 10.8984365463257,25.458984375 12.392578125,24.931640625 15.41015625,23.349609375 15.41015625,7.91015625 14.549560546875,7.20703125 13.1982421875,6.38671875 9.2578125,4.658203125z M10.986328125,0L16.6259765625,3.10546875 19.610595703125,4.21875143051147 22.265625,4.86328125 22.265625,6.38671875 21.3354473114014,6.767578125 20.654296875,7.6171875 20.09765625,10.400390625 20.09765625,21.943359375 20.23681640625,23.712158203125 20.654296875,24.9755859375 21.4086894989014,25.733642578125 22.55859375,25.986328125 23.5693359375,25.751953125 24.755859375,25.107421875 24.755859375,27.333984375 21.5332012176514,29.09912109375 18.896484375,30.8203125 17.142333984375,29.50927734375 16.0986328125,28.388671875 15.41015625,26.1328125 13.0508413314819,27.23876953125 11.1291494369507,28.154296875 9.64507961273193,28.87939453125 8.5986328125,29.4140625 7.210693359375,30.1904296875 6.357421875,30.76171875 4.03564405441284,29.09912109375 2.40234351158142,27.392578125 0.556640625,23.3056640625 0.139159798622131,20.628662109375 0,17.314453125 0.208739846944809,13.172607421875 0.834960699081421,10.0634765625 1.88232398033142,7.705078125 3.35449194908142,5.8154296875 5.28442335128784,4.17846822738647 7.705078125,2.578125 9.6533203125,1.2890625 10.986328125,0z" />
    </g>
  </g>
</svg>