<?xml version="1.0" encoding="utf-8"?>
<!DOCTYPE svg PUBLIC "-//W3C//DTD SVG 1.1//EN" "http://www.w3.org/Graphics/SVG/1.1/DTD/svg11.dtd">
<svg width="33.2812500000003" height="43.2421875" xmlns="http://www.w3.org/2000/svg" xmlns:xlink="http://www.w3.org/1999/xlink" xmlns:xml="http://www.w3.org/XML/1998/namespace" version="1.1">
  <g>
    <g>
      <path style="fill:#FF0000;fill-opacity:1" d="M24.287109375,5.244140625L21.9140625,6.328125 20.33203125,5.537109375 18.662109375,5.33203125 16.6259765625,5.68725728988647 14.443359375,6.7529296875 12.2094717025757,8.51806640625 10.01953125,10.9716796875 8.067626953125,13.87939453125 6.5478515625,17.0068359375 5.57006740570068,20.013427734375 5.244140625,22.55859375 5.43090724945068,24.312744140625 5.9912109375,25.5322265625 6.939697265625,26.246337890625 8.291015625,26.484375 10.5615224838257,25.986328125 12.978515625,24.4921875 15.234375,22.32421875 17.607421875,19.3359375 19.3780517578125,16.761474609375 20.73486328125,14.5458984375 21.6778564453125,12.689208984375 22.20703125,11.19140625 24.287109375,5.244140625z M29.443359375,0L30.732421875,0 29.56787109375,3.26294088363647 28.18359375,7.4853515625 26.8359355926514,11.8505859375 25.78125,15.5419921875 23.96484375,22.998046875 23.2461528778076,26.2362670898438 22.6428203582764,29.036865234375 22.1548442840576,31.3998413085938 21.7822265625,33.3251953125 21.273193359375,36.199951171875 21.005859375,37.998046875 21.357421875,38.14453125 24.814453125,36.15234375 27.6416015625,33.7939453125 29.3408203125,31.2890625 29.8828125,28.65234375 29.443359375,26.630859375 27.919921875,24.55078125 28.037109375,23.73046875 30.791015625,21.767578125 32.666015625,24.7265625 33.28125,27.7734375 32.8564453125,30.4248046875 31.4794921875,33.0029296875 30.3369140625,34.34326171875 28.8134765625,35.7568359375 26.8981914520264,37.232666015625 24.580078125,38.759765625 21.26953125,40.78125 16.171875,43.2421875 14.94140625,43.2421875 15.02197265625,42.3779296875 15.263671875,40.8984375 15.732421875,38.57666015625 16.34765625,35.80078125 17.109375,32.57080078125 18.017578125,28.88671875 18.9752197265625,25.15869140625 19.76806640625,22.177734375 20.3961181640625,19.94384765625 20.859375,18.45703125 20.44921875,18.486328125 18.4249877929688,21.4480590820313 16.453857421875,24.005126953125 14.5358276367188,26.1575317382813 12.6708984375,27.9052734375 10.8187866210938,29.2575073242188 8.939208984375,30.223388671875 7.03216552734375,30.8029174804688 5.09765625,30.99609375 3.46801733970642,30.765380859375 2.15332007408142,30.0732421875 0.498046875,27.7880859375 0,24.931640625 0.512695074081421,20.7275390625 2.05078053474426,16.611328125 4.44213771820068,12.744140625 7.5146484375,9.287109375 10.9753408432007,6.36108541488647 14.53125,4.0869140625 17.841796875,2.62573385238647 20.56640625,2.138671875 22.5878887176514,2.29248189926147 24.0234375,2.75390625 26.4477519989014,1.69922018051147 29.443359375,0z" />
    </g>
  </g>
</svg>