<?xml version="1.0" encoding="utf-8"?>
<!DOCTYPE svg PUBLIC "-//W3C//DTD SVG 1.1//EN" "http://www.w3.org/Graphics/SVG/1.1/DTD/svg11.dtd">
<svg width="33.6035156250016" height="40.458984375" xmlns="http://www.w3.org/2000/svg" xmlns:xlink="http://www.w3.org/1999/xlink" xmlns:xml="http://www.w3.org/XML/1998/namespace" version="1.1">
  <g>
    <g>
      <path style="fill:#FF0000;fill-opacity:1" d="M6.2109375,0L11.396484375,0 6.2109375,23.466796875 5.70556640625,25.93505859375 5.419921875,27.71484375 5.244140625,30.46875 5.6524658203125,33.0322265625 6.87744140625,34.86328125 8.9190673828125,35.9619140625 11.77734375,36.328125 14.12109375,36.134033203125 16.171875,35.5517578125 17.9296875,34.581298828125 19.39453125,33.22265625 21.62109375,29.3994140625 22.5146465301514,26.729736328125 23.37890625,23.26171875 28.505859375,0 33.603515625,0 28.125,24.931640625 26.6271953582764,30.120849609375 24.7119140625,33.9697265625 22.2802715301514,36.767578125 19.2333984375,38.8037109375 15.582275390625,40.045166015625 11.337890625,40.458984375 6.49658203125,39.818115234375 2.92968678474426,37.8955078125 0.732421517372131,34.808349609375 0,30.673828125 0.322265386581421,27.041015625 1.14257788658142,22.880859375 6.2109375,0z" />
    </g>
  </g>
</svg>