<?xml version="1.0" encoding="utf-8"?>
<!DOCTYPE svg PUBLIC "-//W3C//DTD SVG 1.1//EN" "http://www.w3.org/Graphics/SVG/1.1/DTD/svg11.dtd">
<svg width="16.552734375" height="52.880859375" xmlns="http://www.w3.org/2000/svg" xmlns:xlink="http://www.w3.org/1999/xlink" xmlns:xml="http://www.w3.org/XML/1998/namespace" version="1.1">
  <g>
    <g>
      <path style="fill:#FF0000;fill-opacity:1" d="M14.47265625,0L16.435546875,0 16.552734375,1.259765625 16.285400390625,3.45703125 15.4833984375,5.126953125 14.2199697494507,6.181640625 12.568359375,6.533203125 10.986328125,6.240234375 9.609375,5.44921875 8.5107421875,4.7314453125 7.529296875,4.453125 6.533203125,4.951171875 6.181640625,6.240234375 6.46728467941284,8.6865234375 7.32421875,10.751953125 8.66455078125,12.3889179229736 10.400390625,13.5498046875 12.4438467025757,14.2419452667236 14.70703125,14.47265625 15.615234375,14.47265625 15.615234375,17.109375 10.13671875,17.109375 10.13671875,21.50390625 10.023193359375,28.5498046875 9.6826171875,36.73828125 9.100341796875,45.15380859375 8.26171875,52.880859375 6.03515625,52.880859375 5.77423095703125,47.4288940429688 5.54809522628784,42.396240234375 5.35675001144409,37.7828979492188 5.20019483566284,33.5888671875 5.07842969894409,29.8141479492188 4.99145460128784,26.458740234375 4.93927001953125,23.5226440429688 4.921875,21.005859375 4.921875,17.109375 0,17.109375 0,14.53125 2.2412109375,14.091796875 3.5302734375,12.9638671875 3.848876953125,11.9787616729736 3.95507860183716,10.517578125 3.91113328933716,9.609375 3.841552734375,8.92822265625 3.720703125,7.763671875 3.54492235183716,6.38671875 3.45703077316284,5.126953125 3.779296875,3.204345703125 4.74609375,1.7138671875 6.17431592941284,0.758056640625 7.880859375,0.439453125 9.580078125,0.7470703125 11.015625,1.494140625 12.1728515625,2.1240234375 13.212890625,2.40234375 14.2236328125,1.9482421875 14.53125,0.732421875 14.47265625,0z" />
    </g>
  </g>
</svg>