<?xml version="1.0" encoding="utf-8"?>
<!DOCTYPE svg PUBLIC "-//W3C//DTD SVG 1.1//EN" "http://www.w3.org/Graphics/SVG/1.1/DTD/svg11.dtd">
<svg width="25.6640625000003" height="40.927734375" xmlns="http://www.w3.org/2000/svg" xmlns:xlink="http://www.w3.org/1999/xlink" xmlns:xml="http://www.w3.org/XML/1998/namespace" version="1.1">
  <g>
    <g>
      <path style="fill:#FF0000;fill-opacity:1" d="M12.83203125,4.1015625L11.0906972885132,4.34417724609375 9.58740139007568,5.072021484375 8.32214260101318,6.28509521484375 7.294921875,7.9833984375 6.500244140625,10.1889047622681 5.9326171875,12.9235858917236 5.592041015625,16.1874408721924 5.478515625,19.98046875 5.592041015625,24.052734375 5.9326171875,27.5390625 6.500244140625,30.439453125 7.294921875,32.75390625 8.33129787445068,34.522705078125 9.62402248382568,35.7861328125 11.1730947494507,36.544189453125 12.978515625,36.796875 14.6795654296875,36.5615844726563 16.14990234375,35.855712890625 17.3895263671875,34.6792602539063 18.3984375,33.0322265625 19.1802978515625,30.8779907226563 19.73876953125,28.179931640625 20.0738525390625,24.9380493164063 20.185546875,21.15234375 20.072021484375,17.1441669464111 19.7314453125,13.6743183135986 19.163818359375,10.7427988052368 18.369140625,8.349609375 17.3419189453125,6.4910888671875 16.07666015625,5.16357421875 14.5733642578125,4.3670654296875 12.83203125,4.1015625z M13.154296875,0L16.1041259765625,0.31036376953125 18.65478515625,1.241455078125 20.8062744140625,2.79327392578125 22.55859375,4.9658203125 23.9172344207764,7.76275682449341 24.8876934051514,11.1877450942993 25.4699687957764,15.2407846450806 25.6640625,19.921875 25.4544048309326,24.7915649414063 24.8254375457764,29.029541015625 23.7771587371826,32.6358032226563 22.3095703125,35.6103515625 20.4391479492188,37.9367065429688 18.182373046875,39.598388671875 15.5392456054688,40.5953979492188 12.509765625,40.927734375 9.54803466796875,40.616455078125 6.990966796875,39.6826171875 4.83856201171875,38.126220703125 3.09082007408142,35.947265625 1.73858618736267,33.134765625 0.772704780101776,29.677734375 0.193176031112671,25.576171875 0,20.830078125 0.417480230331421,14.3627948760986 1.66992211341858,9.08203125 3.65478491783142,5.01708984375 6.26953125,2.197265625 9.45556545257568,0.54931640625 13.154296875,0z" />
    </g>
  </g>
</svg>