<?xml version="1.0" encoding="utf-8"?>
<!DOCTYPE svg PUBLIC "-//W3C//DTD SVG 1.1//EN" "http://www.w3.org/Graphics/SVG/1.1/DTD/svg11.dtd">
<svg width="41.982421875" height="43.2421875" xmlns="http://www.w3.org/2000/svg" xmlns:xlink="http://www.w3.org/1999/xlink" xmlns:xml="http://www.w3.org/XML/1998/namespace" version="1.1">
  <g>
    <g>
      <path style="fill:#FF0000;fill-opacity:1" d="M18.837890625,11.19140625L14.58984375,13.06640625 11.5576171875,15.908203125 9.7265625,19.599609375 9.111328125,24.0234375 9.44091701507568,26.766357421875 10.4296875,28.8427734375 12.1215810775757,30.311279296875 14.560546875,31.23046875 18.837890625,11.19140625z M27.392578125,11.1328125L23.14453125,31.171875 27.3413066864014,29.296875 30.380859375,26.54296875 32.2265625,22.8515625 32.841796875,18.1640625 32.501220703125,15.6152353286743 31.4794921875,13.5937519073486 29.776611328125,12.0996103286743 27.392578125,11.1328125z M21.2109375,0L29.765625,0 28.681640625,5.0390625 31.7633056640625,5.49591064453125 34.44580078125,6.251220703125 36.7291259765625,7.30499267578125 38.61328125,8.6572265625 40.0872802734375,10.3189096450806 41.14013671875,12.3010272979736 41.7718505859375,14.6035776138306 41.982421875,17.2265625 41.612548828125,21.536865234375 40.5029296875,25.3271484375 38.72314453125,28.60107421875 36.3427734375,31.3623046875 33.40576171875,33.614501953125 29.9560546875,35.361328125 26.0705547332764,36.59912109375 21.826171875,37.32421875 20.56640625,43.2421875 12.01171875,43.2421875 13.2421875,37.44140625 7.6611328125,36.298828125 3.50097680091858,33.955078125 1.99218773841858,32.28515625 0.893554925918579,30.263671875 0.223388701677322,27.861328125 0,25.048828125 0.380859404802322,20.7275390625 1.52343773841858,16.904296875 3.33618140220642,13.5974140167236 5.7275390625,10.8251953125 8.6572265625,8.59130859375 12.0849609375,6.8994140625 15.926513671875,5.760498046875 20.09765625,5.185546875 21.2109375,0z" />
    </g>
  </g>
</svg>