<?xml version="1.0" encoding="utf-8"?>
<!DOCTYPE svg PUBLIC "-//W3C//DTD SVG 1.1//EN" "http://www.w3.org/Graphics/SVG/1.1/DTD/svg11.dtd">
<svg width="44.4140625" height="28.9453125" xmlns="http://www.w3.org/2000/svg" xmlns:xlink="http://www.w3.org/1999/xlink" xmlns:xml="http://www.w3.org/XML/1998/namespace" version="1.1">
  <g>
    <g>
      <path style="fill:#FF0000;fill-opacity:1" d="M19.8046875,0L20.80078125,0 18.33984375,7.1484375 16.640625,12.83203125 15.6518545150757,17.2998046875 15.322265625,20.80078125 15.5383291244507,22.39013671875 16.1865234375,23.583984375 17.274169921875,24.3310546875 18.80859375,24.580078125 21.4892578125,24.1259765625 23.7890625,22.763671875 25.6420879364014,20.599365234375 26.982421875,17.7392578125 27.7954082489014,14.432373046875 28.06640625,10.927734375 27.0794658660889,10.008544921875 26.3745098114014,8.6572265625 25.9515361785889,6.873779296875 25.810546875,4.658203125 27.0190410614014,3.22265768051147 28.65234375,1.669921875 30.1831035614014,0.461427211761475 31.083984375,0.05859375 31.875,0.457765102386475 32.431640625,1.6552734375 32.76123046875,3.81225728988647 32.87109375,7.08984375 35.390625,6.708984375 37.6318359375,5.771484375 39.7412109375,4.248046875 41.019287109375,2.96631002426147 42.83203125,0.9375 44.4140625,2.373046875 41.085205078125,6.27685546875 38.1298828125,8.90625 35.343017578125,10.4736328125 32.51953125,11.19140625 31.35498046875,15.5712890625 29.208984375,19.8046875 26.3415508270264,23.54736328125 23.0126953125,26.455078125 19.552001953125,28.32275390625 16.2890625,28.9453125 13.7109365463257,28.505859375 11.89453125,27.1875 10.81787109375,24.99755859375 10.458984375,21.943359375 10.718994140625,18.81591796875 11.4990234375,14.8828125 12.7478017807007,10.400390625 14.4140625,5.625 14.0625,5.537109375 11.429443359375,7.8955078125 8.2177734375,10.986328125 1.69921910762787,17.75390625 0,15.791015625 4.281005859375,11.4202880859375 8.1005859375,7.71240234375 11.458740234375,4.6673583984375 14.35546875,2.28515625 19.8046875,0z" />
    </g>
  </g>
</svg>