<?xml version="1.0" encoding="utf-8"?>
<!DOCTYPE svg PUBLIC "-//W3C//DTD SVG 1.1//EN" "http://www.w3.org/Graphics/SVG/1.1/DTD/svg11.dtd">
<svg width="21.796875" height="37.1484375" xmlns="http://www.w3.org/2000/svg" xmlns:xlink="http://www.w3.org/1999/xlink" xmlns:xml="http://www.w3.org/XML/1998/namespace" version="1.1">
  <g>
    <g>
      <path style="fill:#FF0000;fill-opacity:1" d="M8.759765625,0L11.923828125,0 11.923828125,7.32421875 20.126953125,7.32421875 20.126953125,12.83203125 11.923828125,12.83203125 11.923828125,25.95703125 12.041015625,28.388671875 12.509765625,29.8681640625 13.4326171875,30.8349609375 14.970703125,31.171875 16.904296875,30.8056640625 19.04296875,29.58984375 21.796875,33.837890625 19.398193359375,35.36865234375 17.2412109375,36.38671875 15.040283203125,36.9580078125 12.509765625,37.1484375 9.971923828125,36.89208984375 7.8076171875,36.123046875 6.06811428070068,34.82666015625 4.8046875,32.98828125 4.03564453125,30.5126953125 3.77929663658142,27.3046875 3.77929663658142,12.83203125 0,12.83203125 0,7.32421875 3.77929663658142,7.32421875 3.77929663658142,0.29296875 8.759765625,0z" />
    </g>
  </g>
</svg>