<?xml version="1.0" encoding="utf-8"?>
<!DOCTYPE svg PUBLIC "-//W3C//DTD SVG 1.1//EN" "http://www.w3.org/Graphics/SVG/1.1/DTD/svg11.dtd">
<svg width="38.2617187500002" height="40.927734375" xmlns="http://www.w3.org/2000/svg" xmlns:xlink="http://www.w3.org/1999/xlink" xmlns:xml="http://www.w3.org/XML/1998/namespace" version="1.1">
  <g>
    <g>
      <path style="fill:#FF0000;fill-opacity:1" d="M27.216796875,24.580078125L27.216796875,36.09375 32.138671875,37.587890625 32.138671875,24.580078125 27.216796875,24.580078125z M14.208984375,3.662109375L11.7636098861694,4.4989013671875 9.61303615570068,5.72021484375 7.75726270675659,7.3260498046875 6.1962890625,9.31640625 4.07592678070068,14.2675800323486 3.36913990974426,20.390625 3.96972584724426,26.685791015625 5.77148389816284,31.6259765625 8.7744140625,35.211181640625 12.978515625,37.44140625 13.154296875,37.08984375 11.0998525619507,34.00634765625 9.6826171875,30.322265625 8.858642578125,25.8837890625 8.583984375,20.537109375 8.95751953125,15.2087421417236 10.078125,10.5908203125 11.8945302963257,6.800537109375 14.35546875,3.955078125 14.208984375,3.662109375z M21.357421875,0L27.3779296875,0.4541015625 33.427734375,1.81640625 33.427734375,10.810546875 30.17578125,10.810546875 29.036865234375,7.58056640625 27.3193359375,5.2734375 24.9792461395264,3.88916015625 21.97265625,3.427734375 19.222412109375,3.87451171875 16.8310546875,5.21484375 14.853515625,7.525634765625 13.3447265625,10.8837890625 12.3889150619507,15.2746601104736 12.0703125,20.68359375 12.1875,24.6011352539063 12.5390625,28.004150390625 13.125,30.8926391601563 13.9453125,33.2666015625 14.996337890625,35.1187133789063 16.2744140625,36.441650390625 17.779541015625,37.2354125976563 19.51171875,37.5 21.5698223114014,37.181396484375 22.939453125,36.2255859375 23.7084941864014,34.515380859375 23.96484375,31.93359375 23.96484375,29.47265625 23.9282207489014,27.5830078125 23.818359375,26.30859375 23.349609375,24.8583984375 22.5439453125,24.0966796875 21.8591289520264,23.792724609375 20.771484375,23.4375 20.771484375,21.97265625 38.26171875,21.97265625 38.26171875,23.4375 37.03125,23.90625 36.26953125,24.43359375 35.5517578125,25.9130859375 35.361328125,28.505859375 35.361328125,40.13671875 31.58203125,40.751953125 26.3671875,39.0234375 22.6538066864014,40.45166015625 18.369140625,40.927734375 12.978515625,40.345458984375 8.408203125,38.5986328125 4.75707960128784,35.7275390625 2.12402319908142,31.7724609375 0.531005561351776,26.781005859375 0,20.80078125 0.615234017372131,14.5605487823486 2.46093678474426,9.375 5.51513624191284,5.291748046875 9.755859375,2.3583984375 15.0732421875,0.589599609375 21.357421875,0z" />
    </g>
  </g>
</svg>