<?xml version="1.0" encoding="utf-8"?>
<!DOCTYPE svg PUBLIC "-//W3C//DTD SVG 1.1//EN" "http://www.w3.org/Graphics/SVG/1.1/DTD/svg11.dtd">
<svg width="27.451171875" height="40.458984375" xmlns="http://www.w3.org/2000/svg" xmlns:xlink="http://www.w3.org/1999/xlink" xmlns:xml="http://www.w3.org/XML/1998/namespace" version="1.1">
  <g>
    <g>
      <path style="fill:#FF0000;fill-opacity:1" d="M15.41015625,0L18.7646484375,0.29296875 21.62109375,1.171875 23.9172344207764,2.603759765625 25.5908203125,4.5556640625 26.6125469207764,6.888427734375 26.953125,9.462890625 26.25,14.1943359375 25.3161602020264,16.2817401885986 23.9208984375,18.4716796875 21.7492656707764,21.126708984375 18.486328125,24.609375 15.84228515625,27.286376953125 13.828125,29.3994140625 10.986328125,32.841796875 10.986328125,33.134765625 27.451171875,33.134765625 27.451171875,40.458984375 0,40.458984375 0,37.001953125 1.66992211341858,33.973388671875 4.16015625,30.3955078125 10.37109375,23.14453125 12.681884765625,20.70556640625 14.2822265625,18.955078125 16.435546875,16.2158203125 17.8271484375,13.6083984375 18.310546875,10.95703125 17.9150390625,8.85864353179932 16.728515625,7.2509765625 14.81689453125,6.229248046875 12.24609375,5.888671875 8.291015625,6.4599609375 5.9326171875,7.254638671875 3.07617211341858,8.49609375 0.849609613418579,3.046875 4.38720703125,1.7138671875 7.734375,0.76171875 11.279296875,0.1904296875 15.41015625,0z" />
    </g>
  </g>
</svg>