<?xml version="1.0" encoding="utf-8"?>
<!DOCTYPE svg PUBLIC "-//W3C//DTD SVG 1.1//EN" "http://www.w3.org/Graphics/SVG/1.1/DTD/svg11.dtd">
<svg width="31.142578125" height="42.216796875" xmlns="http://www.w3.org/2000/svg" xmlns:xlink="http://www.w3.org/1999/xlink" xmlns:xml="http://www.w3.org/XML/1998/namespace" version="1.1">
  <g>
    <g>
      <path style="fill:#FF0000;fill-opacity:1" d="M24.111328125,2.98828125L22.562255859375,3.44970703125 21.3134765625,4.833984375 20.277099609375,7.1923828125 19.365234375,10.576171875 17.34375,19.86328125 21.339111328125,16.8713397979736 24.0673828125,13.6376953125 25.6384258270264,10.0524911880493 26.162109375,6.005859375 26.0339336395264,4.6856689453125 25.6494121551514,3.74267578125 25.0085430145264,3.1768798828125 24.111328125,2.98828125z M23.818359375,0L26.9311504364014,0.450439453125 29.23828125,1.8017578125 30.6665019989014,3.951416015625 31.142578125,6.796875 30.7800273895264,9.87670993804932 29.6923828125,12.7880859375 27.8320293426514,15.5786151885986 25.1513671875,18.2958984375 21.412353515625,21.090087890625 16.376953125,24.111328125 14.619140625,32.080078125 14.1357412338257,34.5703125 13.974609375,36.181640625 14.326171875,37.412109375 15.205078125,37.79296875 16.336669921875,37.525634765625 17.5048828125,36.7236328125 18.907470703125,35.145263671875 20.7421875,32.548828125 23.466796875,34.5703125 21.39404296875,37.24365234375 19.62890625,39.111328125 16.1279296875,41.396484375 14.1320791244507,42.01171875 11.923828125,42.216796875 9.276123046875,41.868896484375 7.3681640625,40.8251953125 6.21459913253784,39.078369140625 5.830078125,36.62109375 6.474609375,31.2890625 7.265625,27.71484375 1.02539038658142,30.46875 0,26.953125 4.4091796875,25.2685546875 6.522216796875,24.364013671875 8.14453125,23.61328125 10.60546875,12.802734375 11.4514150619507,9.85565185546875 12.5537099838257,7.283935546875 13.9123525619507,5.08758544921875 15.52734375,3.2666015625 17.3529052734375,1.83746337890625 19.34326171875,0.816650390625 21.4984130859375,0.20416259765625 23.818359375,0z" />
    </g>
  </g>
</svg>