<?xml version="1.0" encoding="utf-8"?>
<!DOCTYPE svg PUBLIC "-//W3C//DTD SVG 1.1//EN" "http://www.w3.org/Graphics/SVG/1.1/DTD/svg11.dtd">
<svg width="27.392578125" height="42.392578125" xmlns="http://www.w3.org/2000/svg" xmlns:xlink="http://www.w3.org/1999/xlink" xmlns:xml="http://www.w3.org/XML/1998/namespace" version="1.1">
  <g>
    <g>
      <path style="fill:#FF0000;fill-opacity:1" d="M13.88671875,6.03515625L11.455078125,6.4453125 9.6533203125,8.0126953125 8.99780178070068,9.393310546875 8.525390625,11.220703125 8.23974514007568,13.5791015625 8.14453125,16.552734375 8.14453125,20.2734375 8.671875,22.763671875 9.9609375,24.111328125 11.5576171875,24.66796875 13.0078125,24.78515625 15.516357421875,24.195556640625 17.3583984375,22.4267578125 18.489990234375,19.412841796875 18.8671875,15.087890625 18.775634765625,12.579345703125 18.5009765625,10.5615234375 18.0615234375,8.983154296875 17.4755859375,7.79296875 15.8935546875,6.416015625 13.88671875,6.03515625z M13.9453125,0L17.10205078125,0.245362758636475 19.833984375,0.9814453125 22.1447734832764,2.18994283676147 24.0380859375,3.8525390625 25.5102519989014,5.95825338363647 26.5576171875,8.49609375 27.1838359832764,11.44775390625 27.392578125,14.794921875 27.1948223114014,18.076171875 26.6015625,21.064453125 25.5944805145264,23.704833984375 24.1552734375,25.9423828125 22.2802715301514,27.75146484375 19.9658203125,29.1064453125 17.193603515625,29.952392578125 13.9453125,30.234375 10.927734375,30.0146484375 8.14453125,29.35546875 8.14453125,42.392578125 0,42.392578125 0,16.552734375 0.238037109375,12.652587890625 0.9521484375,9.2724609375 2.11669874191284,6.419677734375 3.7060546875,4.1015625 5.70556640625,2.30713033676147 8.1005859375,1.025390625 10.858154296875,0.256349086761475 13.9453125,0z" />
    </g>
  </g>
</svg>