<?xml version="1.0" encoding="utf-8"?>
<!DOCTYPE svg PUBLIC "-//W3C//DTD SVG 1.1//EN" "http://www.w3.org/Graphics/SVG/1.1/DTD/svg11.dtd">
<svg width="60.7031250000001" height="42.861328125" xmlns="http://www.w3.org/2000/svg" xmlns:xlink="http://www.w3.org/1999/xlink" xmlns:xml="http://www.w3.org/XML/1998/namespace" version="1.1">
  <g>
    <g>
      <path style="fill:#FF0000;fill-opacity:1" d="M45.498046875,4.5703125L43.916015625,4.801025390625 42.744140625,5.4931640625 41.455078125,7.8515625 41.1328125,11.396484375 41.1328125,19.013671875 40.704345703125,23.023681640625 39.4189453125,26.4990234375 37.174072265625,29.798583984375 33.8671875,33.28125 34.892578125,33.251953125 37.7197265625,33.603515625 40.3857421875,34.6142578125 43.564453125,36.533203125 45.8935546875,37.822265625 47.900390625,38.26171875 49.7900352478027,37.91748046875 51.298828125,36.884765625 52.2875938415527,35.28076171875 52.6171875,33.22265625 52.353515625,31.4794921875 51.6357421875,30.0146484375 50.6982421875,28.798828125 49.39453125,27.421875 47.9443359375,25.869140625 47.05078125,24.609375 46.3916015625,23.0859375 46.142578125,21.26953125 46.58935546875,18.541259765625 47.9296875,16.3330078125 50.1342735290527,14.6521015167236 53.173828125,13.505859375 51.5295372009277,13.0407733917236 50.2294921875,12.1142578125 49.3835411071777,10.8654804229736 49.1015625,9.43359375 48.8781700134277,7.196044921875 48.2080078125,5.6982421875 47.0837364196777,4.852294921875 45.498046875,4.5703125z M28.59375,4.5703125L27.0593242645264,4.786376953125 25.9130859375,5.4345703125 24.609375,7.705078125 24.3457012176514,9.33105564117432 24.2578125,11.396484375 24.2578125,19.013671875 24.0637187957764,21.800537109375 23.4814453125,24.2431640625 22.5073223114014,26.4404296875 21.1376953125,28.4912109375 19.259033203125,30.552978515625 16.7578125,32.783203125 18.57421875,34.189453125 20.16357421875,35.48583984375 21.474609375,36.38671875 23.7890625,37.08984375 25.8325176239014,36.8701171875 27.509765625,36.2109375 28.9086894989014,35.03173828125 30.1171875,33.251953125 31.10595703125,30.732421875 31.845703125,27.333984375 32.30712890625,23.0126953125 32.4609375,17.724609375 32.3583984375,13.1323261260986 32.05078125,9.7265625 31.5380859375,7.32421875 30.8203125,5.7421875 29.8535137176514,4.86328125 28.59375,4.5703125z M11.923828125,0L15.2490234375,0.369873046875 18.134765625,1.4794921875 20.4345703125,3.240966796875 22.001953125,5.56640625 23.5034160614014,3.4515380859375 25.5468730926514,1.94091796875 28.1323223114014,1.0345458984375 31.259765625,0.732421875 34.4677734375,1.259765625 36.85546875,2.7978515625 38.583984375,5.56640625 40.10009765625,3.515625 42.24609375,1.9921875 44.93408203125,1.04736328125 48.076171875,0.732421875 50.9106407165527,0.977783203125 53.26171875,1.7138671875 55.1074180603027,2.911376953125 56.42578125,4.541015625 57.2167930603027,6.50390625 57.48046875,8.701171875 57.48046875,9.638671875 57.6818809509277,10.8911151885986 58.2861328125,11.8359375 59.2565879821777,12.4292011260986 60.556640625,12.626953125 60.703125,12.626953125 60.703125,15.087890625 58.681640625,15.1171875 56.6491661071777,15.3515644073486 55.1806640625,15.99609375 54.2907676696777,17.0141620635986 53.994140625,18.369140625 54.7119140625,20.44921875 55.6237754821777,21.5185546875 56.923828125,22.79296875 58.330078125,24.3896484375 59.3994140625,26.337890625 59.82421875,28.857421875 59.5605430603027,31.065673828125 58.76953125,33.4130859375 57.4365196228027,35.771484375 55.546875,38.0126953125 53.1188926696777,39.98291015625 50.1708984375,41.5283203125 46.7980918884277,42.528076171875 43.095703125,42.861328125 38.90625,42.1875 35.44921875,40.400390625 34.00634765625,39.41162109375 33.017578125,38.7890625 31.6552734375,38.1591796875 30.41015625,37.96875 29.384765625,38.14453125 28.359375,38.671875 27.5610332489014,39.2431640625 26.220703125,40.25390625 23.1884765625,41.923828125 19.482421875,42.5390625 17.0361328125,42.0556640625 14.82421875,40.8837890625 12.802734375,39.43359375 9.6240234375,37.1484375 8.309326171875,36.533203125 7.08984375,36.328125 4.8486328125,36.9580078125 2.607421875,38.90625 0.673827886581421,37.1484375 3.262939453125,34.310302734375 5.93261766433716,32.2998046875 8.668212890625,31.102294921875 11.455078125,30.703125 14.267578125,31.2890625 15.322265625,28.2861328125 15.52001953125,26.260986328125 15.5859375,23.49609375 15.5859375,15.087890625 15.465087890625,10.5834970474243 15.1025390625,7.55859375 14.45068359375,5.555419921875 13.4619140625,4.1162109375 12.0593252182007,3.248291015625 10.166015625,2.958984375 8.5546875,3.21533203125 7.236328125,3.984375 6.357421875,5.16357421875 6.06445360183716,6.650390625 6.25488328933716,8.1884765625 6.8115234375,9.4775390625 7.6318359375,10.5908203125 8.280029296875,11.2609882354736 9.31640625,12.24609375 10.5651845932007,13.4838886260986 11.3818359375,14.501953125 12.275390625,16.3916015625 12.568359375,18.57421875 12.0959463119507,21.08642578125 10.6787109375,23.408203125 8.375244140625,25.4736328125 5.244140625,27.216796875 4.04296875,25.048828125 5.97656202316284,23.7744140625 6.6796875,22.20703125 6.12304735183716,20.44921875 4.5703125,18.69140625 2.794189453125,16.9519062042236 1.62597680091858,15.5419921875 0.38085949420929,13.0078125 0,10.341796875 0.37353515625,7.510986328125 1.49414086341858,4.9951171875 3.2958984375,2.896728515625 5.71289014816284,1.318359375 8.6279296875,0.32958984375 11.923828125,0z" />
    </g>
  </g>
</svg>