<?xml version="1.0" encoding="utf-8"?>
<!DOCTYPE svg PUBLIC "-//W3C//DTD SVG 1.1//EN" "http://www.w3.org/Graphics/SVG/1.1/DTD/svg11.dtd">
<svg width="18.046875" height="43.65234375" xmlns="http://www.w3.org/2000/svg" xmlns:xlink="http://www.w3.org/1999/xlink" xmlns:xml="http://www.w3.org/XML/1998/namespace" version="1.1">
  <g>
    <g>
      <path style="fill:#FF0000;fill-opacity:1" d="M8.37890625,12.65625L11.7626953125,15.8642578125 13.7951650619507,17.2009296417236 15.76171875,18.134765625 15.791015625,19.833984375 13.5717763900757,21.3427734375 12.83203125,24.228515625 12.83203125,34.3359375 13.3447265625,36.1669921875 14.677734375,36.884765625 15.8203125,36.5625 16.9921875,35.771484375 18.046875,37.96875 9.697265625,43.65234375 7.5439453125,42.12890625 6.064453125,40.546875 5.20751953125,38.73046875 4.921875,36.50390625 4.921875,23.7890625 4.793701171875,22.24365234375 4.4091796875,21.123046875 3.790283203125,20.44189453125 2.958984375,20.21484375 1.94824206829071,20.478515625 0.93749988079071,21.064453125 0,18.896484375 4.3798828125,16.0400390625 8.37890625,12.65625z M8.26171875,0L11.8359375,0.732421875 12.9345693588257,1.53076171875 13.30078125,2.4609375 13.0627431869507,3.34716796875 12.3486328125,4.541015625 10.8654775619507,6.35009765625 8.3203125,9.08203125 5.804443359375,6.463623046875 4.2919921875,4.6435546875 3.533935546875,3.372802734375 3.28125047683716,2.40234375 3.680419921875,1.4794921875 4.8779296875,0.703125 8.26171875,0z" />
    </g>
  </g>
</svg>