<?xml version="1.0" encoding="utf-8"?>
<!DOCTYPE svg PUBLIC "-//W3C//DTD SVG 1.1//EN" "http://www.w3.org/Graphics/SVG/1.1/DTD/svg11.dtd">
<svg width="26.7773437500001" height="40.927734375" xmlns="http://www.w3.org/2000/svg" xmlns:xlink="http://www.w3.org/1999/xlink" xmlns:xml="http://www.w3.org/XML/1998/namespace" version="1.1">
  <g>
    <g>
      <path style="fill:#FF0000;fill-opacity:1" d="M13.359375,4.1015625L9.88769435882568,4.698486328125 7.32421875,6.4892578125 5.74218702316284,9.34936618804932 5.21484375,13.154296875 5.69457960128784,16.5673828125 7.1337890625,19.013671875 9.510498046875,20.48583984375 12.802734375,20.9765625 15.263671875,20.7568359375 17.490234375,20.0830078125 19.482421875,18.9990234375 20.6982421875,17.958984375 21.181640625,16.9775390625 21.357421875,15.3515625 20.8483867645264,10.5395526885986 19.3212890625,7.001953125 16.812744140625,4.82666015625 13.359375,4.1015625z M13.76953125,0L16.7230224609375,0.2728271484375 19.31396484375,1.09130859375 21.5423583984375,2.4554443359375 23.408203125,4.365234375 24.8822002410889,6.78405809402466 25.9350566864014,9.67529392242432 26.5667705535889,13.0389413833618 26.77734375,16.875 26.4504985809326,21.9085693359375 25.4699687957764,26.40380859375 23.8357524871826,30.3607177734375 21.5478515625,33.779296875 18.6502075195313,36.588134765625 15.186767578125,38.7158203125 11.1575317382813,40.162353515625 6.5625,40.927734375 5.91796875,36.708984375 9.122314453125,36.221923828125 11.9384765625,35.4052734375 14.351806640625,34.244384765625 16.34765625,32.724609375 19.27734375,28.6376953125 20.31005859375,25.843505859375 21.123046875,22.236328125 20.830078125,22.119140625 16.171875,24.43359375 13.740234375,25.02685546875 11.07421875,25.224609375 7.811279296875,24.832763671875 5.0537109375,23.6572265625 2.85644507408142,21.796875 1.2744140625,19.3505859375 0.318603336811066,16.409912109375 0,13.06640625 0.410156041383743,9.52514743804932 1.64062476158142,6.3427734375 3.658447265625,3.673095703125 6.4306640625,1.669921875 9.84008693695068,0.41748046875 13.76953125,0z" />
    </g>
  </g>
</svg>