<?xml version="1.0" encoding="utf-8"?>
<!DOCTYPE svg PUBLIC "-//W3C//DTD SVG 1.1//EN" "http://www.w3.org/Graphics/SVG/1.1/DTD/svg11.dtd">
<svg width="30.99609375" height="30.05859375" xmlns="http://www.w3.org/2000/svg" xmlns:xlink="http://www.w3.org/1999/xlink" xmlns:xml="http://www.w3.org/XML/1998/namespace" version="1.1">
  <g>
    <g>
      <path style="fill:#FF0000;fill-opacity:1" d="M0,0L8.291015625,0 8.291015625,18.310546875 8.5986328125,21.97265625 9.638671875,24.6240234375 11.572265625,26.25 14.560546875,26.806640625 17.578125,26.1767578125 20.1708984375,24.5068359375 22.1630859375,22.119140625 23.408203125,19.306640625 23.408203125,3.1640625 18.603515625,3.1640625 18.603515625,0 27.392578125,0 27.392578125,26.42578125 30.99609375,26.42578125 30.99609375,29.58984375 23.291015625,29.58984375 23.291015625,24.78515625 23.115234375,24.78515625 21.2512187957764,26.9091796875 19.1162109375,28.59375 16.688232421875,29.6923828125 13.9453125,30.05859375 9.7705078125,29.3701171875 6.7529296875,27.4072265625 4.921875,24.287109375 4.306640625,20.126953125 4.306640625,3.1640625 0,3.1640625 0,0z" />
    </g>
  </g>
</svg>