<?xml version="1.0" encoding="utf-8"?>
<!DOCTYPE svg PUBLIC "-//W3C//DTD SVG 1.1//EN" "http://www.w3.org/Graphics/SVG/1.1/DTD/svg11.dtd">
<svg width="28.30078125" height="30.29296875" xmlns="http://www.w3.org/2000/svg" xmlns:xlink="http://www.w3.org/1999/xlink" xmlns:xml="http://www.w3.org/XML/1998/namespace" version="1.1">
  <g>
    <g>
      <path style="fill:#FF0000;fill-opacity:1" d="M18.310546875,0L23.7890625,0.3955078125 28.30078125,1.640625 25.60546875,7.08984375 22.7783203125,5.91796875 19.51171875,5.5078125 16.06201171875,5.91797018051147 13.388671875,7.1484375 11.3745107650757,9.22119140625 9.90234375,12.158203125 23.642578125,12.158203125 22.587890625,17.138671875 8.759765625,17.138671875 8.642578125,18.2373046875 8.61328125,19.248046875 8.961181640625,21.71630859375 10.0048828125,23.3203125 11.7150869369507,24.19921875 14.0625,24.4921875 17.3291015625,24.1259765625 20.68359375,22.763671875 22.96875,27.451171875 19.9951171875,28.7548828125 17.109375,29.6337890625 14.2236328125,30.1318359375 11.220703125,30.29296875 6.357421875,29.637451171875 2.84179711341858,27.6708984375 0.710449457168579,24.451904296875 0,20.0390625 0.311279505491257,16.007080078125 1.24511742591858,12.2314453125 2.76855492591858,8.814697265625 4.8486328125,5.859375 7.467041015625,3.42407369613647 10.60546875,1.5673828125 14.23095703125,0.391847133636475 18.310546875,0z" />
    </g>
  </g>
</svg>