<?xml version="1.0" encoding="utf-8"?>
<!DOCTYPE svg PUBLIC "-//W3C//DTD SVG 1.1//EN" "http://www.w3.org/Graphics/SVG/1.1/DTD/svg11.dtd">
<svg width="40.60546875" height="30.29296875" xmlns="http://www.w3.org/2000/svg" xmlns:xlink="http://www.w3.org/1999/xlink" xmlns:xml="http://www.w3.org/XML/1998/namespace" version="1.1">
  <g>
    <g>
      <path style="fill:#FF0000;fill-opacity:1" d="M16.259765625,5.21484375L15.054931640625,5.416259765625 13.4912109375,6.0205078125 11.5539541244507,7.012939453125 9.228515625,8.37890625 9.228515625,20.654296875 9.3310546875,21.9873046875 9.66796875,22.529296875 11.455078125,23.583984375 13.4619140625,24.7119140625 14.794921875,25.048828125 16.640625,24.3603515625 18.544921875,22.91015625 19.4970703125,21.2255859375 19.683837890625,20.086669921875 19.74609375,18.515625 19.74609375,9.580078125 19.522705078125,7.6611328125 18.8525390625,6.298828125 17.757568359375,5.48583984375 16.259765625,5.21484375z M31.259765625,5.0390625L30.333251953125,5.185546875 28.9599609375,5.625 27.0227031707764,6.39404296875 24.404296875,7.529296875 24.404296875,20.009765625 24.6020488739014,21.05712890625 25.1953125,21.9140625 28.828125,24.1845703125 30.44677734375,24.854736328125 31.669921875,25.078125 33.424072265625,24.36767578125 34.7021484375,22.236328125 35.482177734375,18.6767578125 35.7421875,13.681640625 35.47119140625,9.818115234375 34.658203125,7.1337890625 33.2666015625,5.562744140625 31.259765625,5.0390625z M19.306640625,0L20.972900390625,1.03271627426147 21.9287109375,1.669921875 22.96875,2.5927734375 23.701171875,3.6328125 24.228515625,4.98046875 30.263671875,2.4169921875 32.8271484375,1.07299947738647 34.365234375,0 37.122802734375,1.99585103988647 39.0673828125,4.8193359375 40.220947265625,8.624267578125 40.60546875,13.564453125 40.272216796875,17.816162109375 39.2724609375,21.2548828125 37.467041015625,24.049072265625 34.716796875,26.3671875 32.720947265625,27.685546875 31.4208984375,28.65234375 29.8828125,30.29296875 27.8576641082764,28.857421875 24.9462890625,27.24609375 22.071533203125,25.9716796875 20.15625,25.546875 19.266357421875,25.777587890625 17.8271484375,26.4697265625 14.6484375,28.4912109375 13.4472646713257,29.490966796875 12.7734375,30.29296875 9.744873046875,28.165283203125 6.9873046875,26.6455078125 4.559326171875,25.733642578125 2.51953125,25.4296875 2.28515601158142,25.4296875 2.28515601158142,23.84765625 4.130859375,22.587890625 4.54833936691284,21.42333984375 4.6875,19.74609375 4.6875,9.697265625 4.53735303878784,7.664794921875 4.08691453933716,6.0791015625 3.350830078125,5.05737447738647 2.34375023841858,4.716796875 0,5.44921875 0,3.544921875 3.046875,1.60400533676147 4.98046875,0.29296875 6.7822265625,1.18286275863647 8.02734375,2.3291015625 8.81103515625,3.85620260238647 9.228515625,5.888671875 11.455078125,4.62890625 14.14306640625,3.18603610992432 16.34765625,1.93359518051147 18.06884765625,0.871583104133606 19.306640625,0z" />
    </g>
  </g>
</svg>