<?xml version="1.0" encoding="utf-8"?>
<!DOCTYPE svg PUBLIC "-//W3C//DTD SVG 1.1//EN" "http://www.w3.org/Graphics/SVG/1.1/DTD/svg11.dtd">
<svg width="34.013671875" height="28.9453125" xmlns="http://www.w3.org/2000/svg" xmlns:xlink="http://www.w3.org/1999/xlink" xmlns:xml="http://www.w3.org/XML/1998/namespace" version="1.1">
  <g>
    <g>
      <path style="fill:#FF0000;fill-opacity:1" d="M11.07421875,0L12.4200429916382,0.245362401008606 13.3813467025757,0.981446743011475 13.9581289291382,2.20825290679932 14.150390625,3.92578125 13.9599609375,6.064453125 13.6560049057007,7.6025390625 13.125,9.814453125 12.3925771713257,12.568359375 11.484375,15.732421875 24.052734375,7.20703125 25.8911113739014,3.54492330551147 27.94921875,0.46875 32.607421875,0.46875 34.013671875,2.34375 32.911376953125,4.0338134765625 31.1572265625,6.05712890625 28.751220703125,8.4136962890625 25.693359375,11.103515625 24.1845703125,17.16796875 23.690185546875,20.01708984375 23.525390625,22.236328125 23.646240234375,23.631591796875 24.0087890625,24.5947265625 25.546875,25.341796875 26.8212890625,24.990234375 27.6379375457764,24.36767578125 28.828125,23.203125 30.46875,24.84375 27.59765625,27.3046875 25.283203125,28.564453125 22.705078125,28.9453125 21.35009765625,28.707275390625 20.390625,27.9931640625 19.8193359375,26.802978515625 19.62890625,25.13671875 19.7900390625,23.0712890625 20.09033203125,21.529541015625 20.6689453125,19.1015625 22.412109375,12.890625 9.78515625,21.591796875 7.82958984375,25.51025390625 5.830078125,28.4765625 1.20117175579071,28.4765625 0,26.455078125 1.2322998046875,24.6844482421875 2.99560546875,22.62451171875 5.2899169921875,20.2752685546875 8.115234375,17.63671875 8.785400390625,15.252685546875 9.5068359375,12.2021484375 10.067138671875,9.166259765625 10.25390625,6.826171875 10.12939453125,5.39794921875 9.755859375,4.39453125 9.11865234375,3.80127096176147 8.203125,3.603515625 6.708984375,4.1015625 4.921875,5.7421875 3.28125023841858,4.1015625 6.2255859375,1.611328125 8.5546875,0.3515625 11.07421875,0z" />
    </g>
  </g>
</svg>