<?xml version="1.0" encoding="utf-8"?>
<!DOCTYPE svg PUBLIC "-//W3C//DTD SVG 1.1//EN" "http://www.w3.org/Graphics/SVG/1.1/DTD/svg11.dtd">
<svg width="42.12890625" height="42.890625" xmlns="http://www.w3.org/2000/svg" xmlns:xlink="http://www.w3.org/1999/xlink" xmlns:xml="http://www.w3.org/XML/1998/namespace" version="1.1">
  <g>
    <g>
      <path style="fill:#FF0000;fill-opacity:1" d="M28.388671875,3.1640625L26.5978984832764,3.4130859375 25.0341796875,4.16015625 22.822265625,6.796875 22.2509765625,8.49609375 22.060546875,10.3125 22.060546875,19.482421875 21.6064453125,23.349609375 20.244140625,26.806640625 18.02490234375,29.90478515625 15,32.6953125 17.16796875,33.8671875 19.072265625,35.33203125 21.03515625,36.97265625 22.44140625,37.9833984375 24.1552734375,38.90625 25.8544921875,39.43359375 27.5390625,39.580078125 29.5971660614014,39.334716796875 31.611328125,38.5986328125 33.3984375,37.481689453125 34.775390625,36.09375 35.654296875,34.56298828125 35.947265625,33.017578125 35.2587890625,30.087890625 33.1640625,27.3046875 31.0986328125,24.375 30.380859375,21.005859375 30.81298828125,18.372802734375 32.109375,16.1572265625 34.21875,14.4470233917236 37.08984375,13.330078125 35.357666015625,12.7185077667236 34.1455078125,11.5869140625 33.431396484375,9.83276462554932 33.193359375,7.353515625 32.867431640625,5.584716796875 31.8896484375,4.2626953125 30.362548828125,3.438720703125 28.388671875,3.1640625z M10.751953125,0L14.110107421875,0.3515625 16.9189453125,1.40625 19.134521484375,3.1494140625 20.712890625,5.56640625 22.196044921875,3.519287109375 24.1845703125,2.0068359375 26.5978984832764,1.072998046875 29.35546875,0.76171875 31.9482421875,0.95947265625 34.27734375,1.552734375 36.2109375,2.5048828125 37.6171875,3.779296875 38.47412109375,5.32470703125 38.759765625,7.08984375 38.759765625,9.462890625 38.983154296875,10.8032245635986 39.6533203125,11.8359375 40.675048828125,12.4951190948486 41.953125,12.71484375 42.12890625,12.71484375 42.12890625,14.94140625 40.01953125,14.970703125 37.880859375,15.2307147979736 36.15234375,15.9521484375 35.009765625,17.0764179229736 34.62890625,18.544921875 34.822998046875,19.6435546875 35.4052734375,20.712890625 37.67578125,23.232421875 39.140625,24.9609375 40.25390625,27.01171875 40.693359375,29.53125 40.14404296875,32.830810546875 38.49609375,35.9912109375 35.892333984375,38.785400390625 32.4755859375,40.986328125 28.5607891082764,42.41455078125 24.462890625,42.890625 21.9580078125,42.777099609375 19.951171875,42.4365234375 16.787109375,41.07421875 15.29296875,39.9755859375 13.623046875,38.49609375 12.0080556869507,37.115478515625 10.5029296875,36.1376953125 9.063720703125,35.555419921875 7.646484375,35.361328125 6.5625,35.58837890625 5.361328125,36.26953125 4.02099609375,37.412109375 2.51953077316284,39.0234375 0.849609136581421,37.44140625 3.16772437095642,34.98046875 5.72753858566284,33.10546875 8.345947265625,31.9189453125 10.83984375,31.5234375 11.8359375,31.611328125 12.890625,31.81640625 14.31884765625,30.384521484375 15.263671875,29.1357421875 16.3330078125,26.455078125 16.69921875,22.91015625 16.669921875,21.796875 16.669921875,15.556640625 16.5582275390625,12.2863779067993 16.22314453125,9.50683689117432 15.6646728515625,7.21801805496216 14.8828125,5.419921875 13.8610830307007,4.061279296875 12.5830068588257,3.0908203125 11.0485830307007,2.508544921875 9.2578125,2.314453125 7.869873046875,2.515869140625 6.5771484375,3.1201171875 4.658203125,5.0830078125 3.984375,7.32421875 4.1748046875,9.0087890625 4.7021484375,10.3271484375 5.537109375,11.42578125 7.1484375,12.744140625 9.3603515625,14.619140625 10.8544921875,16.6845703125 11.455078125,19.248046875 11.0595693588257,21.925048828125 9.873046875,24.3310546875 8.00537109375,26.260986328125 5.56640625,27.509765625 4.86328077316284,25.60546875 7.0751953125,24.2578125 7.657470703125,23.48876953125 7.8515625,22.587890625 7.6025390625,21.064453125 6.708984375,19.775390625 4.6875,18.076171875 2.34375,16.1169452667236 0.937499761581421,14.4580078125 0.23437488079071,12.8723163604736 0,11.1328125 0.3515625,8.5107421875 1.40625023841858,5.859375 3.076171875,3.460693359375 5.2734375,1.5966796875 7.87353515625,0.399169921875 10.751953125,0z" />
    </g>
  </g>
</svg>