<?xml version="1.0" encoding="utf-8"?>
<!DOCTYPE svg PUBLIC "-//W3C//DTD SVG 1.1//EN" "http://www.w3.org/Graphics/SVG/1.1/DTD/svg11.dtd">
<svg width="44.384765625" height="30.615234375" xmlns="http://www.w3.org/2000/svg" xmlns:xlink="http://www.w3.org/1999/xlink" xmlns:xml="http://www.w3.org/XML/1998/namespace" version="1.1">
  <g>
    <g>
      <path style="fill:#FF0000;fill-opacity:1" d="M20.654296875,0L22.763671875,0 21.474609375,3.958740234375 20.390625,7.4560546875 19.51171875,10.491943359375 18.837890625,13.06640625 19.21875,13.06640625 22.965087890625,7.75634765625 26.4111328125,3.837890625 27.9922466278076,2.42797946929932 29.4396953582764,1.42089986801147 30.7534770965576,0.816651463508606 31.93359375,0.615234375 33.1787109375,0.7470703125 34.1455078125,1.1865234375 35.33203125,2.314453125 36.474609375,3.33984375 37.705078125,3.69140625 39.5068359375,3.1494140625 40.587158203125,2.23755025863647 42.333984375,0.5859375 44.384765625,2.431640625 41.4990234375,5.745849609375 39.521484375,7.8955078125 38.10791015625,9.224853515625 36.9140625,10.078125 34.833984375,10.693359375 32.98828125,10.2978515625 31.376953125,8.90625 30.234375,7.6318359375 29.619140625,7.1923828125 28.798828125,7.03125 27.626953125,7.32421875 25.5322265625,8.8916015625 24.2724590301514,10.242919921875 22.8662109375,12.041015625 20.654296875,15.46875 19.54833984375,17.81982421875 18.3984375,20.830078125 17.4609375,23.57666015625 16.171875,27.65625 10.048828125,30.615234375 7.646484375,30.615234375 9.7412109375,22.91748046875 11.513671875,15.99609375 12.2259511947632,13.037109375 12.7514638900757,10.693359375 13.0902090072632,8.96484375 13.2421875,7.8515625 12.94921875,7.79296875 10.609130859375,10.059814453125 7.6318359375,13.1103515625 4.639892578125,16.300048828125 2.25585961341858,18.984375 0,16.787109375 7.1044921875,9.3896484375 14.208984375,2.87109375 20.654296875,0z" />
    </g>
  </g>
</svg>