<?xml version="1.0" encoding="utf-8"?>
<!DOCTYPE svg PUBLIC "-//W3C//DTD SVG 1.1//EN" "http://www.w3.org/Graphics/SVG/1.1/DTD/svg11.dtd">
<svg width="24.43359375" height="36.884765625" xmlns="http://www.w3.org/2000/svg" xmlns:xlink="http://www.w3.org/1999/xlink" xmlns:xml="http://www.w3.org/XML/1998/namespace" version="1.1">
  <g>
    <g>
      <path style="fill:#FF0000;fill-opacity:1" d="M8.759765625,2.51953125L8.349609375,5.41259908676147 7.470703125,7.998046875 7.470703125,25.25390625 7.554931640625,27.6708984375 7.8076171875,29.53125 9.0380859375,32.255859375 11.25,33.9111328125 14.1796875,34.423828125 14.677734375,34.423828125 16.171875,34.306640625 16.171875,34.013671875 13.8134765625,32.5927734375 12.392578125,30.1025390625 12.0849599838257,28.260498046875 11.982421875,25.810546875 11.982421875,2.51953125 8.759765625,2.51953125z M5.91796875,0L15.087890625,0 15.087890625,7.353515625 23.4375,7.353515625 23.4375,10.60546875 15.087890625,10.60546875 15.087890625,24.228515625 15.12451171875,26.630859375 15.234375,28.388671875 15.76171875,30.5859375 16.875,31.81640625 18.544921875,32.28515625 20.1416015625,32.138671875 21.3720703125,31.640625 22.734375,30.64453125 24.43359375,32.900390625 22.05322265625,34.588623046875 19.482421875,35.8447265625 16.82373046875,36.624755859375 14.1796875,36.884765625 10.0048828125,36.240234375 8.26171875,35.390625 6.7529296875,34.130859375 5.58105421066284,32.559814453125 4.8486328125,30.7763671875 4.464111328125,28.590087890625 4.3359375,25.810546875 4.3359375,10.60546875 0,10.60546875 0,8.994140625 2.72460889816284,8.2470703125 4.365234375,6.8408203125 4.94750928878784,5.75317525863647 5.4052734375,4.27734375 5.73120069503784,2.373046875 5.91796875,0z" />
    </g>
  </g>
</svg>