<?xml version="1.0" encoding="utf-8"?>
<!DOCTYPE svg PUBLIC "-//W3C//DTD SVG 1.1//EN" "http://www.w3.org/Graphics/SVG/1.1/DTD/svg11.dtd">
<svg width="27.83203125" height="39.990234375" xmlns="http://www.w3.org/2000/svg" xmlns:xlink="http://www.w3.org/1999/xlink" xmlns:xml="http://www.w3.org/XML/1998/namespace" version="1.1">
  <g>
    <g>
      <path style="fill:#FF0000;fill-opacity:1" d="M0,28.41796875L3.98437476158142,28.41796875 4.44213771820068,30.391845703125 4.9951171875,31.6845703125 6.650390625,33.017578125 7.93212890625,33.30322265625 9.66796875,33.3984375 18.1640625,33.3984375 20.2880859375,33.2373046875 21.6357421875,32.8125 22.4853515625,32.16796875 23.056640625,31.2744140625 23.37890625,30.4248046875 23.5400371551514,29.754638671875 23.84765625,28.41796875 27.83203125,28.41796875 27.158203125,39.990234375 0.673827886581421,39.990234375 0,28.41796875z M5.888671875,13.59375L9.43359375,13.59375 9.78515529632568,14.8718280792236 10.13671875,15.6591796875 10.95703125,16.3623046875 11.6601552963257,16.483154296875 12.83203125,16.5234375 14.94140625,16.5234375 16.138916015625,16.483154296875 16.8603515625,16.3623046875 17.6953125,15.673828125 18.03955078125,14.8901386260986 18.369140625,13.59375 21.9140625,13.59375 21.9140625,25.283203125 18.369140625,25.283203125 18.02490234375,24.056396484375 17.6953125,23.3056640625 16.8603515625,22.6025390625 16.124267578125,22.459716796875 14.94140625,22.412109375 12.83203125,22.412109375 11.7004384994507,22.452392578125 11.0009765625,22.5732421875 10.166015625,23.2470703125 9.80712795257568,24.012451171875 9.43359375,25.283203125 5.888671875,25.283203125 5.888671875,13.59375z M0.3515625,0L27.48046875,0 27.48046875,10.517578125 23.49609375,10.517578125 22.9724102020264,8.84765815734863 22.4560546875,7.822265625 21.1083984375,6.85546875 19.932861328125,6.65771484375 18.076171875,6.591796875 9.7265625,6.591796875 8.345947265625,6.62109375 7.3681640625,6.708984375 6.0791015625,7.1630859375 5.15625,8.2177734375 4.74609327316284,9.15161323547363 4.3359375,10.517578125 0.3515625,10.517578125 0.3515625,0z" />
    </g>
  </g>
</svg>