<?xml version="1.0" encoding="utf-8"?>
<!DOCTYPE svg PUBLIC "-//W3C//DTD SVG 1.1//EN" "http://www.w3.org/Graphics/SVG/1.1/DTD/svg11.dtd">
<svg width="38.73046875" height="53.671875" xmlns="http://www.w3.org/2000/svg" xmlns:xlink="http://www.w3.org/1999/xlink" xmlns:xml="http://www.w3.org/XML/1998/namespace" version="1.1">
  <g>
    <g>
      <path style="fill:#FF0000;fill-opacity:1" d="M24.140625,0L28.76953125,0 20.21484375,38.818359375 24.0783672332764,38.060302734375 27.4072265625,36.3134765625 30.1245098114014,33.65478515625 32.1533203125,30.1611328125 33.416748046875,26.004638671875 33.837890625,21.357421875 33.56689453125,17.92236328125 32.75390625,14.53125 33.10546875,13.06640625 38.291015625,13.06640625 38.73046875,18.046875 38.14453125,24.30908203125 36.38671875,29.970703125 33.544921875,34.73876953125 29.70703125,38.3203125 25.0268535614014,40.60546875 19.658203125,41.484375 16.962890625,53.671875 12.333984375,53.671875 15.029296875,41.396484375 10.235595703125,40.4315185546875 6.81152391433716,38.56201171875 4.75708055496216,35.7879638671875 4.07226657867432,32.109375 4.31396532058716,29.47265625 5.03906297683716,25.95703125 5.94726610183716,22.32421875 6.49658203125,19.81201171875 6.67968797683716,18.134765625 6.2548828125,16.46484375 5.03906297683716,15.966796875 3.2958984375,16.5380859375 1.61132860183716,17.98828125 0,16.376953125 2.05444359779358,14.6044940948486 3.82324242591858,13.447265625 5.452880859375,12.8100605010986 7.08984470367432,12.59765625 9.034423828125,12.9272480010986 10.4736328125,13.916015625 11.3635244369507,15.5273456573486 11.66015625,17.724609375 11.4770498275757,19.7900390625 10.927734375,22.470703125 9.84375,26.806640625 9.287109375,29.6484375 9.0234375,32.373046875 9.44091796875,35.086669921875 10.693359375,37.0166015625 12.7587881088257,38.250732421875 15.615234375,38.876953125 24.140625,0z" />
    </g>
  </g>
</svg>