<?xml version="1.0" encoding="utf-8"?>
<!DOCTYPE svg PUBLIC "-//W3C//DTD SVG 1.1//EN" "http://www.w3.org/Graphics/SVG/1.1/DTD/svg11.dtd">
<svg width="29.12109375" height="29.53125" xmlns="http://www.w3.org/2000/svg" xmlns:xlink="http://www.w3.org/1999/xlink" xmlns:xml="http://www.w3.org/XML/1998/namespace" version="1.1">
  <g>
    <g>
      <path style="fill:#FF0000;fill-opacity:1" d="M11.6015625,0L29.12109375,0 27.861328125,5.44921875 18.779296875,5.44921875 15.498046875,19.453125 15.08056640625,21.591796875 14.94140625,23.26171875 15.322265625,24.84375 16.40625,25.283203125 17.431640625,25.067138671875 18.515625,24.4189453125 19.7900390625,23.258056640625 21.38671875,21.50390625 23.49609375,23.61328125 20.9912109375,26.18408203125 18.45703125,28.037109375 15.791015625,29.15771484375 12.890625,29.53125 10.27587890625,29.150390625 8.466796875,28.0078125 7.412109375,26.09619140625 7.060546875,23.408203125 7.2216796875,21.39404296875 7.705078125,18.80859375 7.91015625,17.9296875 8.624267578125,15.08056640625 9.5361328125,11.748046875 10.521240234375,8.44482421875 11.455078125,5.68359375 11.30859375,5.44921875 9.228515625,5.44921875 6.7236328125,5.712890625 4.8046875,6.62109375 3.75,7.47802734375 2.4609375,8.759765625 0,6.5625 2.21557593345642,4.03564596176147 3.9990234375,2.314453125 5.58471632003784,1.20117330551147 7.20703125,0.498046875 9.1259765625,0.124513149261475 11.6015625,0z" />
    </g>
  </g>
</svg>