<?xml version="1.0" encoding="utf-8"?>
<!DOCTYPE svg PUBLIC "-//W3C//DTD SVG 1.1//EN" "http://www.w3.org/Graphics/SVG/1.1/DTD/svg11.dtd">
<svg width="34.716796875" height="42.392578125" xmlns="http://www.w3.org/2000/svg" xmlns:xlink="http://www.w3.org/1999/xlink" xmlns:xml="http://www.w3.org/XML/1998/namespace" version="1.1">
  <g>
    <g>
      <path style="fill:#FF0000;fill-opacity:1" d="M21.85546875,6.03515625L20.2734375,6.2548828125 18.603515625,6.9580078125 17.05078125,8.056640625 15.9521484375,9.3017578125 15.234375,10.751953125 14.9047842025757,11.865234375 14.501953125,13.564453125 13.359375,18.75 13.06640625,21.240234375 13.3337392807007,22.781982421875 14.1357421875,23.8916015625 15.421142578125,24.561767578125 17.138671875,24.78515625 19.5703125,24.33837890625 21.708984375,22.998046875 23.5107402801514,20.804443359375 24.931640625,17.7978515625 25.8544902801514,14.483642578125 26.162109375,11.3671875 25.8947734832764,8.961181640625 25.0927734375,7.3095703125 23.7487773895264,6.353759765625 21.85546875,6.03515625z M25.986328125,0L29.6777324676514,0.670167446136475 32.431640625,2.6806640625 34.1455078125,5.90698385238647 34.716796875,10.224609375 34.420166015625,14.410400390625 33.5302734375,18.3544921875 32.091064453125,21.8994140625 30.146484375,24.8876953125 27.8063945770264,27.257080078125 25.1806640625,28.9453125 22.144775390625,29.9560546875 18.57421875,30.29296875 14.8095703125,30 11.044921875,29.00390625 8.14453125,42.392578125 0,42.392578125 9.228515625,0.46875 14.091796875,0.263671875 17.138671875,0.263671875 16.552734375,2.9296875 16.81640625,2.9296875 19.658203125,1.50146627426147 21.97265625,0.615234375 25.986328125,0z" />
    </g>
  </g>
</svg>