<?xml version="1.0" encoding="utf-8"?>
<!DOCTYPE svg PUBLIC "-//W3C//DTD SVG 1.1//EN" "http://www.w3.org/Graphics/SVG/1.1/DTD/svg11.dtd">
<svg width="23.408203125" height="42.0703125" xmlns="http://www.w3.org/2000/svg" xmlns:xlink="http://www.w3.org/1999/xlink" xmlns:xml="http://www.w3.org/XML/1998/namespace" version="1.1">
  <g>
    <g>
      <path style="fill:#FF0000;fill-opacity:1" d="M13.06640625,2.841796875L10.0634765625,4.3212890625 8.0712890625,6.4453125 6.9873046875,9.3896484375 6.756591796875,11.4733905792236 6.6796875,14.296875 6.6796875,39.4921875 11.220703125,39.4921875 11.220703125,11.71875 11.2646474838257,9.283447265625 11.396484375,7.4853515625 12.01171875,4.951171875 13.271484375,3.076171875 13.06640625,2.841796875z M17.98828125,0L23.408203125,0.556640625 23.408203125,5.80078125 20.244140625,5.80078125 19.5263671875,3.92578125 18.6767578125,2.9736328125 17.490234375,2.6953125 16.351318359375,2.9150390625 15.5126953125,3.57421875 14.5751953125,5.9619140625 14.388427734375,7.701416015625 14.326171875,9.90234375 14.326171875,13.0078125 19.98046875,13.0078125 19.98046875,16.259765625 14.326171875,16.259765625 14.326171875,35.15625 14.37744140625,36.796875 14.53125,38.02734375 15.3369140625,39.6533203125 16.182861328125,40.198974609375 17.51953125,40.634765625 17.51953125,42.0703125 0.263671398162842,42.0703125 0.263671398162842,40.634765625 1.61498987674713,40.18798828125 2.44628882408142,39.7265625 3.29589819908142,38.349609375 3.50463843345642,37.11181640625 3.57421851158142,35.21484375 3.57421851158142,16.259765625 0,16.259765625 0,14.6484375 1.39526343345642,14.3957538604736 2.29980444908142,14.0478515625 3.23730397224426,13.0224609375 3.48998999595642,12.1252460479736 3.69140601158142,10.693359375 4.13085889816284,8.3001708984375 4.98046779632568,6.18896484375 6.24023389816284,4.3597412109375 7.91015625,2.8125 12.3046875,0.703125 17.98828125,0z" />
    </g>
  </g>
</svg>