<?xml version="1.0" encoding="utf-8"?>
<!DOCTYPE svg PUBLIC "-//W3C//DTD SVG 1.1//EN" "http://www.w3.org/Graphics/SVG/1.1/DTD/svg11.dtd">
<svg width="28.65234375" height="42.392578125" xmlns="http://www.w3.org/2000/svg" xmlns:xlink="http://www.w3.org/1999/xlink" xmlns:xml="http://www.w3.org/XML/1998/namespace" version="1.1">
  <g>
    <g>
      <path style="fill:#FF0000;fill-opacity:1" d="M16.611328125,3.75L14.677734375,3.95141744613647 12.978515625,4.5556640625 10.048828125,6.8408203125 7.6171875,10.4296875 5.9033203125,15.0439453125 5.2734375,20.0390625 5.570068359375,22.7435302734375 6.4599609375,24.67529296875 7.943115234375,25.8343505859375 10.01953125,26.220703125 12.8466796875,25.78125 15.322265625,24.43359375 17.5341796875,22.529296875 19.013671875,20.4345703125 19.541015625,19.046630859375 20.068359375,17.080078125 21.240234375,11.8359375 21.6650390625,9.7119140625 21.796875,7.91015625 21.4416484832764,6.14501953125 20.3759765625,4.833984375 18.724365234375,4.02099752426147 16.611328125,3.75z M16.81640625,0L20.4638671875,0.439453125 23.466796875,1.875 23.759765625,1.875 24.345703125,0.46875 28.65234375,0.46875 19.423828125,42.392578125 14.501953125,42.392578125 18.076171875,26.54296875 17.8125,26.513671875 15.054931640625,28.32275390625 12.7001953125,29.47265625 10.5285634994507,30.087890625 8.3203125,30.29296875 4.86328125,29.6337890625 2.22656273841858,27.65625 0.556640863418579,24.5361328125 0,20.44921875 0.230713069438934,16.988525390625 0.9228515625,13.6376953125 3.44238305091858,7.763671875 5.152587890625,5.40161275863647 7.08984375,3.4716796875 9.21386623382568,1.96655416488647 11.484375,0.87890625 13.9892578125,0.219727993011475 16.81640625,0z" />
    </g>
  </g>
</svg>