<?xml version="1.0" encoding="utf-8"?>
<!DOCTYPE svg PUBLIC "-//W3C//DTD SVG 1.1//EN" "http://www.w3.org/Graphics/SVG/1.1/DTD/svg11.dtd">
<svg width="22.67578125" height="53.291015625" xmlns="http://www.w3.org/2000/svg" xmlns:xlink="http://www.w3.org/1999/xlink" xmlns:xml="http://www.w3.org/XML/1998/namespace" version="1.1">
  <g>
    <g>
      <path style="fill:#FF0000;fill-opacity:1" d="M2.05078101158142,0L22.67578125,0 22.67578125,2.314453125 19.91455078125,5.31463670730591 17.548828125,8.01635837554932 15.57861328125,10.4196176528931 14.00390625,12.5244140625 11.6381826400757,16.3256855010986 10.048828125,19.9072265625 9.14794921875,23.441162109375 8.84765625,27.099609375 9.00146484375,29.36279296875 9.462890625,31.11328125 10.2685537338257,32.457275390625 11.455078125,33.5009765625 13.10302734375,34.288330078125 15.29296875,34.86328125 18.548583984375,35.819091796875 20.8154296875,37.2216796875 22.1447734832764,39.151611328125 22.587890625,41.689453125 22.1630859375,44.5166015625 20.8740234375,46.93359375 19.79736328125,48.226318359375 18.2958984375,49.7607421875 16.365966796875,51.470947265625 14.00390625,53.291015625 11.513671875,50.361328125 13.5205078125,48.629150390625 14.970703125,47.0654296875 15.849609375,45.531005859375 16.142578125,43.88671875 15.875244140625,42.685546875 15.0732421875,41.77734375 13.626708984375,41.08154296875 11.42578125,40.517578125 6.650390625,39.052734375 4.6875,37.979736328125 3.13476538658142,36.7529296875 1.90063500404358,35.21484375 0.893554925918579,33.2080078125 0.223388701677322,30.794677734375 0,28.037109375 0.384521514177322,24.30908203125 1.53808617591858,20.68359375 3.40576171875,17.127685546875 5.9326171875,13.6083984375 9.232177734375,9.93530464172363 13.41796875,5.91796875 13.41796875,5.56640625 2.05078101158142,5.56640625 2.05078101158142,0z" />
    </g>
  </g>
</svg>