<?xml version="1.0" encoding="utf-8"?>
<!DOCTYPE svg PUBLIC "-//W3C//DTD SVG 1.1//EN" "http://www.w3.org/Graphics/SVG/1.1/DTD/svg11.dtd">
<svg width="32.490234375" height="40.810546875" xmlns="http://www.w3.org/2000/svg" xmlns:xlink="http://www.w3.org/1999/xlink" xmlns:xml="http://www.w3.org/XML/1998/namespace" version="1.1">
  <g>
    <g>
      <path style="fill:#FF0000;fill-opacity:1" d="M0,0L8.466796875,0 8.466796875,16.435546875 8.55834865570068,19.78271484375 8.8330078125,21.9140625 9.31640529632568,23.243408203125 10.0341796875,24.1845703125 12.451171875,24.931640625 13.71826171875,24.73388671875 14.94140625,24.140625 16.845703125,22.1484375 17.548828125,19.892578125 17.548828125,0 26.015625,0 26.015625,20.712890625 26.1328105926514,22.584228515625 26.484375,23.8623046875 27.15087890625,24.598388671875 28.212890625,24.84375 29.443359375,24.5654296875 30.791015625,23.701171875 32.490234375,26.19140625 30.384521484375,27.744140625 28.4033203125,28.76953125 26.451416015625,29.3408203125 24.43359375,29.53125 22.1411113739014,29.24560546875 20.361328125,28.388671875 19.0722637176514,26.90185546875 18.251953125,24.7265625 17.958984375,24.7265625 16.2103271484375,26.6619873046875 14.33349609375,28.04443359375 12.3284912109375,28.8739013671875 10.1953125,29.150390625 7.86620998382568,28.77685546875 5.9765625,27.65625 5.7421875,27.83203125 6.54052734375,32.84912109375 7.587890625,37.001953125 7.587890625,38.90625 4.74609375,40.810546875 0,40.810546875 0,0z" />
    </g>
  </g>
</svg>