<?xml version="1.0" encoding="utf-8"?>
<!DOCTYPE svg PUBLIC "-//W3C//DTD SVG 1.1//EN" "http://www.w3.org/Graphics/SVG/1.1/DTD/svg11.dtd">
<svg width="32.5488281250002" height="42.5390625" xmlns="http://www.w3.org/2000/svg" xmlns:xlink="http://www.w3.org/1999/xlink" xmlns:xml="http://www.w3.org/XML/1998/namespace" version="1.1">
  <g>
    <g>
      <path style="fill:#FF0000;fill-opacity:1" d="M16.5234375,18.779296875L13.4912109375,21.2548828125 11.0888671875,24.2578125 9.5068359375,27.685546875 8.935546875,31.435546875 9.228515625,34.0576171875 10.0927734375,35.7861328125 11.4990234375,36.73828125 13.41796875,37.03125 15.2783203125,36.83349609375 16.81640625,36.240234375 19.0283203125,34.1455078125 20.2294921875,31.1572265625 20.595703125,27.685546875 20.350341796875,25.396728515625 19.6142578125,23.2177734375 18.350830078125,21.046142578125 16.5234375,18.779296875z M21.591796875,0L24.9169921875,0.1904296875 27.919921875,0.6591796875 30.498046875,1.259765625 32.548828125,1.845703125 30.29296875,7.177734375 28.564453125,6.62109375 26.5283203125,6.0791015625 24.345703125,5.6689453125 22.1484375,5.5078125 20.09765625,5.6982421875 18.720703125,6.1962890625 17.9443359375,6.9140625 17.6953125,7.763671875 17.98828125,8.876953125 18.92578125,10.224609375 20.56640625,12.01171875 22.96875,14.384765625 25.9130859375,17.5634765625 27.978515625,20.5517578125 29.1943359375,23.5400390625 29.58984375,26.66015625 29.219970703125,30.41748046875 28.1103515625,33.662109375 26.3928203582764,36.397705078125 24.19921875,38.6279296875 21.5808086395264,40.352783203125 18.5888671875,41.572265625 15.362548828125,42.29736328125 12.041015625,42.5390625 6.97265625,41.865234375 3.19335913658142,39.84375 0.820312261581421,36.474609375 0.205077916383743,34.28466796875 0,31.7578125 0.281982213258743,29.23095703125 1.12792944908142,26.806640625 4.072265625,22.32421875 8.1884765625,18.3837890625 12.861328125,15.087890625 11.337890625,13.388671875 10.283203125,11.8798828125 9.6826171875,10.4443359375 9.4921875,8.96484375 10.1953125,5.859375 11.0925283432007,4.346923828125 12.3779296875,2.9736328125 14.058837890625,1.787109375 16.142578125,0.8349609375 18.6474609375,0.208740234375 21.591796875,0z" />
    </g>
  </g>
</svg>