<?xml version="1.0" encoding="utf-8"?>
<!DOCTYPE svg PUBLIC "-//W3C//DTD SVG 1.1//EN" "http://www.w3.org/Graphics/SVG/1.1/DTD/svg11.dtd">
<svg width="37.55859375" height="29.53125" xmlns="http://www.w3.org/2000/svg" xmlns:xlink="http://www.w3.org/1999/xlink" xmlns:xml="http://www.w3.org/XML/1998/namespace" version="1.1">
  <g>
    <g>
      <path style="fill:#FF0000;fill-opacity:1" d="M11.07421875,0L37.55859375,0 37.55859375,5.44921875 30.908203125,5.44921875 30.908203125,20.771484375 31.1865234375,23.3056640625 31.904296875,24.521484375 33.10546875,24.84375 34.3359375,24.5654296875 35.68359375,23.701171875 37.3828125,26.19140625 35.45654296875,27.6708984375 33.486328125,28.7109375 31.53076171875,29.326171875 29.6484375,29.53125 26.5429668426514,29.080810546875 24.43359375,27.7294921875 23.22509765625,25.374755859375 22.822265625,21.9140625 22.822265625,5.44921875 15.849609375,5.44921875 15.849609375,29.0625 6.943359375,29.0625 6.943359375,27.216796875 7.8369140625,22.55859375 8.525390625,17.490234375 8.96484375,12.4365234375 9.111328125,7.822265625 9.111328125,5.44921875 8.4375,5.44921875 5.7568359375,6.0791015625 4.478759765625,7.034912109375 2.90039086341858,8.642578125 0,6.123046875 1.60034167766571,4.21508932113647 2.94433569908142,2.8271484375 5.2587890625,1.11328125 7.6171875,0.263671875 9.111328125,0.0659193992614746 11.07421875,0z" />
    </g>
  </g>
</svg>