<?xml version="1.0" encoding="utf-8"?>
<!DOCTYPE svg PUBLIC "-//W3C//DTD SVG 1.1//EN" "http://www.w3.org/Graphics/SVG/1.1/DTD/svg11.dtd">
<svg width="46.904296875" height="29.82421875" xmlns="http://www.w3.org/2000/svg" xmlns:xlink="http://www.w3.org/1999/xlink" xmlns:xml="http://www.w3.org/XML/1998/namespace" version="1.1">
  <g>
    <g>
      <path style="fill:#FF0000;fill-opacity:1" d="M23.26171875,0L25.3454570770264,0.252686977386475 27.0849609375,1.0107421875 28.4143047332764,2.25219869613647 29.267578125,3.955078125 32.0361328125,2.25219869613647 34.658203125,1.0107421875 37.2802734375,0.252686977386475 40.048828125,0 42.974853515625,0.413819789886475 45.1318359375,1.6552734375 46.4611778259277,3.62915182113647 46.904296875,6.240234375 46.669921875,9.4189453125 46.0546875,12.71484375 42.36328125,29.82421875 34.21875,29.82421875 37.8515625,13.271484375 38.26171875,11.1767578125 38.49609375,8.90625 37.939453125,6.796875 37.22900390625,6.2255859375 36.2109375,6.03515625 33.9697265625,6.4013671875 32.021484375,7.470703125 30.5712890625,8.818359375 29.6923828125,10.3564453125 29.00390625,12.65625 25.25390625,29.82421875 17.109375,29.82421875 20.7421875,13.271484375 21.15234375,11.1767578125 21.38671875,8.90625 20.830078125,6.796875 20.11962890625,6.2255859375 19.1015625,6.03515625 16.8603515625,6.4013671875 14.912109375,7.470703125 13.4619140625,8.818359375 12.5830078125,10.3564453125 11.89453125,12.65625 8.14453125,29.82421875 0,29.82421875 6.4453125,0.46875 11.3671875,0.263671875 14.35546875,0.263671875 13.76953125,2.9296875 14.0625,2.9296875 16.834716796875,1.50146627426147 19.1162109375,0.615234375 23.26171875,0z" />
    </g>
  </g>
</svg>