<?xml version="1.0" encoding="utf-8"?>
<!DOCTYPE svg PUBLIC "-//W3C//DTD SVG 1.1//EN" "http://www.w3.org/Graphics/SVG/1.1/DTD/svg11.dtd">
<svg width="60.703125" height="40.927734375" xmlns="http://www.w3.org/2000/svg" xmlns:xlink="http://www.w3.org/1999/xlink" xmlns:xml="http://www.w3.org/XML/1998/namespace" version="1.1">
  <g>
    <g>
      <path style="fill:#FF0000;fill-opacity:1" d="M21.09375,0L24.43359375,0.439453125 26.953125,1.728515625 28.0957012176514,2.772216796875 29.23828125,4.2041015625 30.3881816864014,6.177978515625 31.552734375,8.84765625 34.658203125,18.1640625 37.412109375,28.857421875 37.79296875,28.857421875 37.957763671875,27.301025390625 38.2177734375,25.3271484375 38.660888671875,22.701416015625 39.375,19.189453125 41.25,10.37109375 42.71484375,5.8740234375 44.94140625,2.63671875 47.8857421875,0.68115234375 51.50390625,0.029296875 54.2797813415527,0.347900390625 56.630859375,1.3037109375 58.7182579040527,2.977294921875 60.703125,5.44921875 55.166015625,8.5546875 54.2285118103027,6.441650390625 53.115234375,4.8486328125 51.9287071228027,3.848876953125 50.771484375,3.515625 48.8525390625,4.0869140625 47.6806640625,5.91796875 47.178955078125,7.5439453125 46.640625,9.90234375 40.78125,37.763671875 34.306640625,40.927734375 32.373046875,40.927734375 30.0292949676514,31.820068359375 27.8027324676514,23.8330078125 25.6933574676514,16.966552734375 23.701171875,11.220703125 23.291015625,11.279296875 22.69775390625,14.8681659698486 21.85546875,19.130859375 19.541015625,30.1171875 18.3251953125,34.2333984375 16.3330078125,37.705078125 13.3740234375,40.0634765625 11.458740234375,40.711669921875 9.19921875,40.927734375 5.4931640625,40.3125 2.65136766433716,38.642578125 1.365966796875,37.33154296875 0,35.5078125 5.53710985183716,32.40234375 6.47460889816284,34.515380859375 7.587890625,36.1083984375 8.7890625,37.108154296875 9.990234375,37.44140625 11.7626953125,36.943359375 12.919921875,35.2734375 13.4106435775757,33.8525390625 13.88671875,31.93359375 17.109375,16.7578125 17.969970703125,13.0700702667236 18.7939453125,10.2099609375 19.625244140625,7.96508884429932 20.5078125,6.123046875 19.130859375,5.21484375 17.578125,4.921875 15.673828125,5.2294921875 13.7548828125,6.3427734375 11.220703125,8.61328125 8.84765625,6.298828125 11.151123046875,4.10888671875 13.0810546875,2.51953125 16.640625,0.615234375 18.662109375,0.15380859375 21.09375,0z" />
    </g>
  </g>
</svg>