<?xml version="1.0" encoding="utf-8"?>
<!DOCTYPE svg PUBLIC "-//W3C//DTD SVG 1.1//EN" "http://www.w3.org/Graphics/SVG/1.1/DTD/svg11.dtd">
<svg width="43.564453125" height="44.619140625" xmlns="http://www.w3.org/2000/svg" xmlns:xlink="http://www.w3.org/1999/xlink" xmlns:xml="http://www.w3.org/XML/1998/namespace" version="1.1">
  <g>
    <g>
      <path style="fill:#FF0000;fill-opacity:1" d="M26.572265625,3.1640625L25.95703125,3.2666015625 25.25390625,3.75 24.4482421875,4.892578125 23.49609375,6.97265625 22.353515625,10.25390625 21.71630859375,12.4218769073486 21.03515625,15 21.240234375,15.17578125 24.1186504364014,12.0666522979736 26.1328125,9.3017578125 27.3193340301514,6.881103515625 27.71484375,4.8046875 27.392578125,3.603515625 26.572265625,3.1640625z M27.568359375,0L29.6264629364014,0.274658203125 31.11328125,1.0986328125 32.01416015625,2.435302734375 32.314453125,4.248046875 31.8896484375,6.708984375 31.2670879364014,8.023681640625 30.2490234375,9.5654296875 28.7145977020264,11.4294452667236 26.54296875,13.7109375 23.6059551239014,16.5307636260986 19.775390625,20.009765625 19.28466796875,22.00927734375 18.3984375,25.3125 18.75,25.3125 20.870361328125,22.3526000976563 22.8955078125,19.801025390625 24.825439453125,17.6577758789063 26.66015625,15.9228515625 28.4289531707764,14.5834360122681 30.1611309051514,13.6267108917236 31.8566875457764,13.0526742935181 33.515625,12.861328125 35.64697265625,13.2312030792236 37.353515625,14.3408203125 38.47412109375,16.0290546417236 38.84765625,18.134765625 38.287353515625,21.324462890625 36.6064453125,24.1552734375 33.804931640625,26.839599609375 29.8828125,29.58984375 29.53125,34.423828125 29.6813945770264,36.3336181640625 30.1318340301514,37.69775390625 30.8825664520264,38.5162353515625 31.93359375,38.7890625 33.570556640625,38.345947265625 35.5517578125,37.0166015625 38.067626953125,34.588623046875 41.30859375,30.849609375 43.564453125,33.046875 40.08544921875,36.943359375 37.265625,39.78515625 34.808349609375,41.8359375 32.4169921875,43.359375 30.0549297332764,44.30419921875 27.685546875,44.619140625 25.0927715301514,44.12109375 23.291015625,42.626953125 22.236328125,40.12939453125 21.884765625,36.62109375 22.0166015625,33.9697265625 22.294921875,31.435546875 23.84765625,30 27.3083477020264,28.04443359375 29.8974609375,25.986328125 31.512451171875,23.7890625 32.05078125,21.416015625 31.3330078125,19.6142578125 29.443359375,18.955078125 27.59765625,19.4091796875 25.400390625,20.9765625 22.8076171875,23.9208984375 20.5078125,27.3193359375 19.5556640625,29.176025390625 18.515625,31.611328125 17.2705078125,35.04638671875 15.703125,39.90234375 9.287109375,42.861328125 7.00195264816284,42.861328125 7.928466796875,39.6368408203125 8.9501953125,35.82275390625 10.067138671875,31.4190673828125 11.279296875,26.42578125 10.986328125,26.279296875 7.177734375,29.91943359375 2.138671875,34.453125 0,31.81640625 6.56982421875,26.44775390625 12.392578125,21.416015625 14.0625,14.091796875 15.0366201400757,10.7519540786743 16.318359375,7.880859375 17.84912109375,5.4638671875 19.5703125,3.486328125 21.448974609375,1.951904296875 23.4521484375,0.8642578125 25.5139141082764,0.216064453125 27.568359375,0z" />
    </g>
  </g>
</svg>