<?xml version="1.0" encoding="utf-8"?>
<!DOCTYPE svg PUBLIC "-//W3C//DTD SVG 1.1//EN" "http://www.w3.org/Graphics/SVG/1.1/DTD/svg11.dtd">
<svg width="46.5234375" height="41.982421875" xmlns="http://www.w3.org/2000/svg" xmlns:xlink="http://www.w3.org/1999/xlink" xmlns:xml="http://www.w3.org/XML/1998/namespace" version="1.1">
  <g>
    <g>
      <path style="fill:#FF0000;fill-opacity:1" d="M11.103515625,3.310546875L9.825439453125,4.5849609375 8.9794921875,5.830078125 8.349609375,8.408203125 8.8916015625,10.9716796875 10.1953125,13.125 11.77734375,15 13.3740234375,17.0068359375 14.6630859375,19.3212890625 15.17578125,22.060546875 14.9468994140625,24.29443359375 14.26025390625,26.513671875 13.1158447265625,28.71826171875 11.513671875,30.908203125 14.1357421875,31.8310546875 17.05078125,33.69140625 19.9951171875,35.7275390625 22.294921875,36.9140625 24.873046875,37.67578125 27.919921875,37.96875 30.75439453125,37.646484375 33.33984375,36.6796875 31.640625,34.654541015625 30.52734375,33.5595703125 28.76953125,32.9296875 27.5170879364014,33.3544921875 25.986328125,34.62890625 24.638671875,33.10546875 26.4257793426514,31.417236328125 27.978515625,30.2783203125 29.4506816864014,29.630126953125 30.99609375,29.4140625 32.4462890625,29.62646484375 33.80859375,30.263671875 35.2880859375,31.48681640625 37.08984375,33.45703125 38.616943359375,30.985107421875 39.7412109375,28.1396484375 40.433349609375,25.074462890625 40.6640625,21.943359375 40.220947265625,17.45361328125 38.8916015625,13.53515625 36.712646484375,10.3015155792236 33.720703125,7.8662109375 30.0146484375,6.339111328125 25.693359375,5.830078125 22.587890625,6.0205078125 20.185546875,6.4453125 18.52294921875,6.796875 17.578125,6.97265625 16.2890625,7.060546875 14.1357421875,6.73828125 12.59765625,5.7275390625 11.8872060775757,4.779052734375 11.103515625,3.310546875z M11.25,0L12.685546875,1.171875 14.384765625,1.5234375 16.5380859375,1.318359375 18.984375,0.849609375 24.228515625,0.17578125 29.820556640625,0.76904296875 34.7021484375,2.548828125 38.72314453125,5.474853515625 41.7333984375,9.5068359375 43.612060546875,14.5202655792236 44.23828125,20.390625 43.890380859375,24.635009765625 42.8466796875,28.5791015625 41.114501953125,32.171630859375 38.701171875,35.361328125 39.814453125,36.580810546875 40.751953125,37.3681640625 42.392578125,37.939453125 43.828125,37.4267578125 45.05859375,35.91796875 46.5234375,37.236328125 45.069580078125,39.129638671875 43.5205078125,40.5322265625 41.942138671875,41.400146484375 40.400390625,41.689453125 37.4560546875,40.9423828125 36.185302734375,39.979248046875 34.86328125,38.583984375 32.17529296875,40.052490234375 29.326171875,41.1181640625 26.4477519989014,41.766357421875 23.671875,41.982421875 20.3173828125,41.66015625 17.4462890625,40.78125 14.82421875,39.404296875 11.6015625,37.119140625 9.0087890625,35.4345703125 6.767578125,34.86328125 5.3466796875,35.123291015625 4.04296875,35.9033203125 2.8564453125,37.203369140625 1.78710913658142,39.0234375 0,37.763671875 1.57653796672821,34.84130859375 3.55224609375,32.6953125 5.9271240234375,31.32568359375 8.701171875,30.732421875 10.4296875,28.1103515625 11.044921875,25.78125 10.78125,24.0966796875 9.78515625,22.177734375 7.67578125,19.51171875 6.0498046875,17.4462890625 4.79003858566284,15.0732421875 4.27734422683716,12.216796875 4.6875,8.91723728179932 5.91796875,5.8740234375 8.0712890625,2.947998046875 11.25,0z" />
    </g>
  </g>
</svg>