<?xml version="1.0" encoding="utf-8"?>
<!DOCTYPE svg PUBLIC "-//W3C//DTD SVG 1.1//EN" "http://www.w3.org/Graphics/SVG/1.1/DTD/svg11.dtd">
<svg width="44.384765625" height="40.458984375" xmlns="http://www.w3.org/2000/svg" xmlns:xlink="http://www.w3.org/1999/xlink" xmlns:xml="http://www.w3.org/XML/1998/namespace" version="1.1">
  <g>
    <g>
      <path style="fill:#FF0000;fill-opacity:1" d="M23.02734375,0L44.384765625,0 41.6015625,9.873046875 37.822265625,9.873046875 37.68310546875,7.66479587554932 37.44140625,6.1376953125 36.5771484375,4.4970703125 34.86328125,4.04296875 28.330078125,4.04296875 25.341796875,17.607421875 38.671875,17.4609375 37.91015625,20.15625 32.578125,22.470703125 24.375,22.1484375 23.291015625,27.158203125 22.09716796875,31.259765625 20.5078125,34.482421875 18.431396484375,36.968994140625 15.7763671875,38.8623046875 12.6159658432007,40.059814453125 9.0234375,40.458984375 6.31713819503784,40.11474609375 3.94042992591858,39.08203125 1.849365234375,37.3828125 0,35.0390625 5.537109375,31.93359375 6.50756788253784,34.1015625 7.6611328125,35.68359375 8.865966796875,36.650390625 9.990234375,36.97265625 11.3232421875,36.73828125 12.2607421875,35.947265625 13.1396484375,34.1748046875 13.5681142807007,32.764892578125 14.00390625,30.966796875 16.93359375,17.080078125 17.947998046875,12.7954120635986 18.9990234375,9.375 20.233154296875,6.61376953125 21.796875,4.306640625 21.62109375,3.984375 18.153076171875,4.083251953125 15.5419921875,4.3798828125 13.6523427963257,4.903564453125 12.3486328125,5.68359375 11.590576171875,6.7822265625 11.337890625,8.26171875 11.69677734375,10.3198261260986 12.7734375,12.451171875 5.888671875,15.29296875 5.09765625,13.6926288604736 4.65820264816284,12.5830078125 4.39453125,10.634765625 4.716796875,9.052734375 5.8740234375,6.9580078125 7.939453125,4.6728515625 10.95703125,2.51953125 14.35546875,0.9228515625 17.724609375,0.1904296875 19.92919921875,0.047607421875 23.02734375,0z" />
    </g>
  </g>
</svg>