<?xml version="1.0" encoding="utf-8"?>
<!DOCTYPE svg PUBLIC "-//W3C//DTD SVG 1.1//EN" "http://www.w3.org/Graphics/SVG/1.1/DTD/svg11.dtd">
<svg width="31.5234375" height="42.5390625" xmlns="http://www.w3.org/2000/svg" xmlns:xlink="http://www.w3.org/1999/xlink" xmlns:xml="http://www.w3.org/XML/1998/namespace" version="1.1">
  <g>
    <g>
      <path style="fill:#FF0000;fill-opacity:1" d="M17.021484375,18.45703125L14.3994140625,19.1162109375 12.2900390625,20.859375 10.6787109375,23.3203125 9.55078125,26.1474609375 8.8916015625,28.9892578125 8.671875,31.494140625 8.84765625,33.6767578125 9.462890625,35.4345703125 10.6640625,36.6064453125 12.626953125,37.03125 14.94140625,36.4599609375 17.021484375,34.9072265625 18.779296875,32.6220703125 20.126953125,29.8388671875 20.9912109375,26.806640625 21.298828125,23.7890625 21.064453125,21.6357421875 20.33203125,19.951171875 19.013671875,18.8525390625 17.021484375,18.45703125z M20.15625,0L22.6831035614014,0.194091796875 24.931640625,0.7763671875 26.8798809051514,1.761474609375 28.505859375,3.1640625 29.798583984375,4.98779296875 30.7470703125,7.236328125 31.329345703125,9.91699314117432 31.5234375,13.037109375 31.2158203125,17.6806659698486 30.29296875,23.056640625 29.1943359375,27.249755859375 27.7734375,31.0400390625 26.0229473114014,34.368896484375 23.935546875,37.177734375 21.5039043426514,39.44091796875 18.720703125,41.1328125 15.5859375,42.1875 12.099609375,42.5390625 6.85546875,41.7919921875 3.07617211341858,39.6533203125 0.7763671875,36.3134765625 0.194091796875,34.244384765625 0,31.93359375 0.344238311052322,28.037109375 1.37695336341858,24.4921875 2.99926781654358,21.368408203125 5.1123046875,18.7353515625 7.67578125,16.6149921417236 10.6494140625,15.029296875 13.934326171875,14.0405292510986 17.431640625,13.7109375 19.013671875,13.76953125 20.4052734375,13.974609375 21.708984375,14.35546875 23.056640625,14.912109375 23.4375,14.677734375 23.6865234375,13.095703125 23.759765625,11.689453125 23.3203125,8.9794921875 22.1484375,7.20703125 20.44921875,6.240234375 18.427734375,5.947265625 16.0546875,6.0791015625 13.740234375,6.357421875 14.4140625,0.41015625 15.615234375,0.2490234375 17.2265625,0.1171875 18.8671875,0.029296875 20.15625,0z" />
    </g>
  </g>
</svg>