<?xml version="1.0" encoding="utf-8"?>
<!DOCTYPE svg PUBLIC "-//W3C//DTD SVG 1.1//EN" "http://www.w3.org/Graphics/SVG/1.1/DTD/svg11.dtd">
<svg width="32.197265625" height="39.990234375" xmlns="http://www.w3.org/2000/svg" xmlns:xlink="http://www.w3.org/1999/xlink" xmlns:xml="http://www.w3.org/XML/1998/namespace" version="1.1">
  <g>
    <g>
      <path style="fill:#FF0000;fill-opacity:1" d="M9.2578125,21.38671875L6.09375,35.859375 11.71875,35.859375 14.47265625,35.7119750976563 16.845703125,35.269775390625 18.837890625,34.5327758789063 20.44921875,33.5009765625 22.5805644989014,30.655517578125 23.291015625,26.8359375 22.998046875,24.78515625 22.119140625,23.2470703125 20.6689453125,22.1923828125 18.6328125,21.5771484375 17.26318359375,21.434326171875 15.498046875,21.38671875 9.2578125,21.38671875z M13.06640625,4.130859375L10.13671875,17.34375 16.318359375,17.34375 18.9569091796875,17.18994140625 21.18896484375,16.728515625 23.0145263671875,15.95947265625 24.43359375,14.8828125 26.2573223114014,12.1435565948486 26.865234375,8.84765625 26.3525390625,6.6064453125 24.8583984375,5.1416015625 22.587890625,4.3505859375 21.08642578125,4.185791015625 19.16015625,4.130859375 13.06640625,4.130859375z M8.7890625,0L20.771484375,0 23.4970073699951,0.13092041015625 25.8435039520264,0.523681640625 27.8109722137451,1.17828369140625 29.3994140625,2.0947265625 31.497802734375,4.713134765625 32.197265625,8.37890625 31.688232421875,12.1032733917236 30.1611328125,15.1318359375 27.6379375457764,17.603759765625 24.140625,19.658203125 24.08203125,19.921875 26.0687236785889,21.3446044921875 27.4877910614014,23.00537109375 28.3392314910889,24.9041748046875 28.623046875,27.041015625 28.1103515625,30.8203125 26.66015625,33.955078125 24.1259765625,36.5771484375 20.68359375,38.583984375 16.376953125,39.66796875 13.4619140625,39.90966796875 9.638671875,39.990234375 0,39.990234375 8.7890625,0z" />
    </g>
  </g>
</svg>