<?xml version="1.0" encoding="utf-8"?>
<!DOCTYPE svg PUBLIC "-//W3C//DTD SVG 1.1//EN" "http://www.w3.org/Graphics/SVG/1.1/DTD/svg11.dtd">
<svg width="30.908203125" height="40.01953125" xmlns="http://www.w3.org/2000/svg" xmlns:xlink="http://www.w3.org/1999/xlink" xmlns:xml="http://www.w3.org/XML/1998/namespace" version="1.1">
  <g>
    <g>
      <path style="fill:#FF0000;fill-opacity:1" d="M8.3203125,3.1640625L8.3203125,36.85546875 11.396484375,36.85546875 15.340576171875,36.588134765625 18.6181640625,35.7861328125 21.27685546875,34.442138671875 23.3642578125,32.548828125 24.9133281707764,30.098876953125 25.95703125,27.0849609375 26.5502910614014,23.499755859375 26.748046875,19.3359375 26.4733867645264,15.5236835479736 25.6494140625,12.2314453125 24.3200664520264,9.45190620422363 22.529296875,7.177734375 20.306396484375,5.41259765625 17.6806640625,4.16015625 14.696044921875,3.4130859375 11.396484375,3.1640625 8.3203125,3.1640625z M0,0L12.099609375,0 16.435546875,0.3515625 20.7568359375,1.5380859375 24.697265625,3.80859375 27.9345703125,7.3974609375 29.1760234832764,9.75219917297363 30.1171875,12.509765625 30.71044921875,15.7104511260986 30.908203125,19.39453125 30.560302734375,24.77783203125 29.5166015625,29.208984375 27.8503398895264,32.77587890625 25.634765625,35.56640625 22.8991680145264,37.62451171875 19.6728515625,38.994140625 16.029052734375,39.76318359375 12.041015625,40.01953125 0,40.01953125 0,36.85546875 4.39453172683716,36.85546875 4.39453172683716,3.1640625 0,3.1640625 0,0z" />
    </g>
  </g>
</svg>