<?xml version="1.0" encoding="utf-8"?>
<!DOCTYPE svg PUBLIC "-//W3C//DTD SVG 1.1//EN" "http://www.w3.org/Graphics/SVG/1.1/DTD/svg11.dtd">
<svg width="33.544921875" height="41.865234375" xmlns="http://www.w3.org/2000/svg" xmlns:xlink="http://www.w3.org/1999/xlink" xmlns:xml="http://www.w3.org/XML/1998/namespace" version="1.1">
  <g>
    <g>
      <path style="fill:#FF0000;fill-opacity:1" d="M5.71289110183716,2.578125L13.857421875,26.484375 17.16796875,26.484375 18.076171875,24.345703125 10.458984375,2.578125 5.71289110183716,2.578125z M0,0L17.197265625,0 17.197265625,1.435546875 15.17578125,2.2265625 14.53125,3.80859375 14.7363271713257,5.4931640625 15.3515625,7.67578125 19.74609375,20.361328125 24.287109375,9.169921875 25.166015625,6.6357421875 25.48828125,4.482421875 24.7412109375,2.40234375 22.646484375,1.435546875 22.646484375,0 33.544921875,0 33.544921875,1.46484375 32.2265625,2.0654296875 31.2451171875,3.0029296875 30.087890625,4.9072265625 29.3188457489014,6.485595703125 28.359375,8.61328125 18.80859375,30.380859375 16.951904296875,34.21875 15.1904296875,37.119140625 13.4069814682007,39.232177734375 11.484375,40.7080078125 9.3017578125,41.575927734375 6.73828172683716,41.865234375 2.63671898841858,41.30859375 2.63671898841858,35.185546875 5.44921922683716,35.185546875 5.863037109375,36.32080078125 6.45996141433716,37.03125 8.37890625,37.529296875 10.5615234375,36.85546875 11.6894521713257,35.877685546875 12.9345703125,34.2919921875 14.2785634994507,32.039794921875 15.703125,29.0625 11.630859375,29.0625 3.86718773841858,6.5625 3.1494140625,4.62890768051147 2.57812547683716,3.3984375 1.4794921875,2.0654296875 0,1.435546875 0,0z" />
    </g>
  </g>
</svg>