<?xml version="1.0" encoding="utf-8"?>
<!DOCTYPE svg PUBLIC "-//W3C//DTD SVG 1.1//EN" "http://www.w3.org/Graphics/SVG/1.1/DTD/svg11.dtd">
<svg width="33.6328125" height="41.279296875" xmlns="http://www.w3.org/2000/svg" xmlns:xlink="http://www.w3.org/1999/xlink" xmlns:xml="http://www.w3.org/XML/1998/namespace" version="1.1">
  <g>
    <g>
      <path style="fill:#FF0000;fill-opacity:1" d="M8.7890625,0L10.953369140625,0.241700649261475 12.7587890625,0.966796875 14.2309560775757,2.18994283676147 15.3955078125,3.92578125 16.3403301239014,6.59912109375 17.1533203125,10.634765625 17.823486328125,15.732421875 18.33984375,21.591796875 18.6328125,21.591796875 22.12646484375,11.68212890625 25.166015625,0.46875 33.6328125,0.46875 33.6328125,2.578125 32.6046752929688,4.18396091461182 31.2780742645264,6.39404439926147 29.6530132293701,9.20837497711182 27.7294921875,12.626953125 19.365234375,28.18359375 19.8046875,32.314453125 19.951171875,34.98046875 19.92919921875,37.41943359375 19.86328125,38.583984375 16.025390625,41.279296875 10.6640625,41.279296875 10.6640625,39.43359375 11.18408203125,34.5556640625 12.744140625,29.6484375 11.337890625,21.1669921875 10.48095703125,17.032470703125 9.609375,13.505859375 8.81103515625,10.711669921875 8.173828125,8.7744140625 7.1044921875,6.3720703125 6.0498046875,5.0830078125 4.71679639816284,4.6875 3.16406202316284,4.9951171875 1.69921827316284,5.830078125 0,3.33984375 2.0361328125,1.9482421875 3.89648389816284,0.9375 6.0791015625,0.2490234375 8.7890625,0z" />
    </g>
  </g>
</svg>