<?xml version="1.0" encoding="utf-8"?>
<!DOCTYPE svg PUBLIC "-//W3C//DTD SVG 1.1//EN" "http://www.w3.org/Graphics/SVG/1.1/DTD/svg11.dtd">
<svg width="44.0917968750001" height="42.861328125" xmlns="http://www.w3.org/2000/svg" xmlns:xlink="http://www.w3.org/1999/xlink" xmlns:xml="http://www.w3.org/XML/1998/namespace" version="1.1">
  <g>
    <g>
      <path style="fill:#FF0000;fill-opacity:1" d="M28.59375,4.5703125L26.2939453125,5.1123046875 24.8583984375,6.591796875 24.1259765625,8.7744140625 23.935546875,11.396484375 23.935546875,19.013671875 23.7377910614014,21.492919921875 23.14453125,23.7158203125 20.859375,27.626953125 19.07958984375,29.53125 16.728515625,31.611328125 18.1201171875,32.28515625 19.6142578125,33.310546875 20.782470703125,34.2333984375 22.6171875,35.712890625 24.6240234375,37.1630859375 26.7919921875,38.1884765625 29.208984375,38.583984375 31.160888671875,38.38623046875 32.8564453125,37.79296875 34.229736328125,36.87744140625 35.21484375,35.712890625 35.80810546875,34.37255859375 36.005859375,32.9296875 35.8154296875,31.435546875 35.2734375,30.1318359375 34.4970703125,29.00390625 33.878173828125,28.32275390625 32.87109375,27.275390625 31.7431640625,26.09619140625 30.99609375,25.1953125 30.0732421875,23.4375 29.70703125,21.26953125 30.1428203582764,18.541259765625 31.4501953125,16.3330078125 33.621826171875,14.6521015167236 36.650390625,13.505859375 35.006103515625,13.0407733917236 33.7060546875,12.1142578125 32.860107421875,10.8654804229736 32.578125,9.43359375 32.325439453125,7.36083984375 31.5673828125,5.830078125 30.318603515625,4.88525390625 28.59375,4.5703125z M11.923828125,0L15.172119140625,0.362548828125 17.9443359375,1.4501953125 20.152587890625,3.204345703125 21.708984375,5.56640625 23.2434062957764,3.460693359375 25.3857421875,1.9482421875 28.0773906707764,1.036376953125 31.259765625,0.732421875 34.15283203125,0.98876953125 36.5625,1.7578125 38.455810546875,2.984619140625 39.7998046875,4.6142578125 40.601806640625,6.551513671875 40.869140625,8.701171875 40.869140625,9.638671875 41.070556640625,10.8911151885986 41.6748046875,11.8359375 42.645263671875,12.4292011260986 43.9453125,12.626953125 44.091796875,12.626953125 44.091796875,15.087890625 42.0703125,15.1171875 40.037841796875,15.3515644073486 38.5693359375,15.99609375 37.679443359375,17.0141620635986 37.3828125,18.369140625 38.0712890625,20.390625 38.975830078125,21.4013671875 40.3125,22.6171875 41.71875,24.08203125 42.7880859375,25.8837890625 43.212890625,28.2421875 42.97119140625,30.238037109375 42.24609375,32.3583984375 41.077880859375,34.51171875 39.5068359375,36.6064453125 35.4931640625,40.078125 30.9375,42.1728515625 26.279296875,42.861328125 22.8259258270264,42.593994140625 19.5556640625,41.7919921875 16.307373046875,40.426025390625 12.919921875,38.466796875 9.7705078125,36.8408203125 7.236328125,36.26953125 4.599609375,36.9287109375 2.34375023841858,38.90625 0.410156607627869,37.1484375 3.131103515625,34.163818359375 5.90331983566284,32.0068359375 8.697509765625,30.699462890625 11.484375,30.263671875 13.388671875,30.52734375 14.58984375,28.6376953125 15.1318359375,26.30859375 15.230712890625,24.55810546875 15.263671875,21.943359375 15.263671875,15.087890625 15.17578125,11.1694355010986 14.912109375,8.37890625 14.23095703125,5.89599609375 13.18359375,4.248046875 11.7187490463257,3.3251953125 9.78515625,3.017578125 8.349609375,3.27392578125 7.1484375,4.04296875 6.33544874191284,5.20751953125 6.064453125,6.650390625 6.2548828125,8.1884765625 6.8115234375,9.4775390625 7.6318359375,10.5908203125 8.280029296875,11.2609882354736 9.31640625,12.24609375 10.5651845932007,13.4838886260986 11.3818359375,14.501953125 12.275390625,16.3916015625 12.568359375,18.57421875 12.0959463119507,21.08642578125 10.6787109375,23.408203125 8.375244140625,25.4736328125 5.244140625,27.216796875 4.04296875,25.048828125 5.9765625,23.7744140625 6.6796875,22.20703125 6.123046875,20.44921875 4.5703125,18.69140625 2.794189453125,16.9519062042236 1.62597680091858,15.5419921875 0.38085949420929,13.0078125 0,10.341796875 0.373535096645355,7.510986328125 1.494140625,4.9951171875 3.2958984375,2.896728515625 5.71289014816284,1.318359375 8.6279296875,0.32958984375 11.923828125,0z" />
    </g>
  </g>
</svg>