<?xml version="1.0" encoding="utf-8"?>
<!DOCTYPE svg PUBLIC "-//W3C//DTD SVG 1.1//EN" "http://www.w3.org/Graphics/SVG/1.1/DTD/svg11.dtd">
<svg width="31.904296875" height="30" xmlns="http://www.w3.org/2000/svg" xmlns:xlink="http://www.w3.org/1999/xlink" xmlns:xml="http://www.w3.org/XML/1998/namespace" version="1.1">
  <g>
    <g>
      <path style="fill:#FF0000;fill-opacity:1" d="M8.02734375,0L10.24658203125,0.238038539886475 11.982421875,0.9521484375 13.2861318588257,2.11670064926147 14.208984375,3.7060546875 14.7582998275757,5.88501119613647 14.94140625,8.818359375 14.94140625,18.779296875 15.0769033432007,21.3720703125 15.4833984375,23.115234375 17.109375,25.078125 19.62890625,25.72265625 22.41943359375,25.103759765625 24.345703125,23.2470703125 25.4663066864014,20.159912109375 25.83984375,15.849609375 25.5615215301514,12.608642578125 24.7265625,9.0966796875 23.43017578125,5.65796041488647 21.767578125,2.63671875 21.767578125,0.46875 29.794921875,0.46875 31.3623046875,6.2841796875 31.904296875,13.06640625 31.4904766082764,17.76123046875 30.2490234375,21.943359375 28.2238750457764,25.404052734375 25.458984375,27.9345703125 22.03125,29.483642578125 18.017578125,30 13.828125,29.4873046875 10.6201171875,28.0078125 8.349609375,25.6787109375 6.97265625,22.4267578125 6.62109375,20.306396484375 6.50390625,17.724609375 6.50390625,8.935546875 6.383056640625,7.012939453125 6.0205078125,5.6982421875 5.343017578125,4.94018697738647 4.27734375,4.6875 3.02490234375,4.97314596176147 1.669921875,5.830078125 0,3.33984375 1.95190417766571,1.87866318225861 3.9404296875,0.834962368011475 5.965576171875,0.208741307258606 8.02734375,0z" />
    </g>
  </g>
</svg>