<?xml version="1.0" encoding="utf-8"?>
<!DOCTYPE svg PUBLIC "-//W3C//DTD SVG 1.1//EN" "http://www.w3.org/Graphics/SVG/1.1/DTD/svg11.dtd">
<svg width="16.40625" height="41.8359375" xmlns="http://www.w3.org/2000/svg" xmlns:xlink="http://www.w3.org/1999/xlink" xmlns:xml="http://www.w3.org/XML/1998/namespace" version="1.1">
  <g>
    <g>
      <path style="fill:#FF0000;fill-opacity:1" d="M15.76171875,0L16.40625,0 16.40625,2.109375 14.8095703125,2.38037109375 13.59375,3.017578125 12.7148427963257,4.046630859375 12.12890625,5.4931640625 11.7993154525757,7.459716796875 11.689453125,10.048828125 11.689453125,32.373046875 12.158203125,34.21875 13.623046875,34.892578125 15.17578125,34.482421875 16.083984375,36.591796875 11.4990234375,39.4775390625 9.517822265625,40.850830078125 8.232421875,41.8359375 4.71679639816284,39.11865234375 0.96679675579071,37.646484375 0.96679675579071,35.68359375 2.288818359375,35.247802734375 3.1494140625,34.3505859375 3.621826171875,32.874755859375 3.77929735183716,30.703125 3.77929735183716,11.77734375 3.57421875,8.70849704742432 2.95898389816284,6.474609375 1.80908191204071,4.88525390625 0,3.75 0.84960925579071,1.93359375 4.248046875,2.666015625 7.55859375,2.3291015625 10.810546875,1.318359375 13.59375,0.322265625 15.76171875,0z" />
    </g>
  </g>
</svg>