<?xml version="1.0" encoding="utf-8"?>
<!DOCTYPE svg PUBLIC "-//W3C//DTD SVG 1.1//EN" "http://www.w3.org/Graphics/SVG/1.1/DTD/svg11.dtd">
<svg width="50.390625" height="31.201171875" xmlns="http://www.w3.org/2000/svg" xmlns:xlink="http://www.w3.org/1999/xlink" xmlns:xml="http://www.w3.org/XML/1998/namespace" version="1.1">
  <g>
    <g>
      <path style="fill:#FF0000;fill-opacity:1" d="M10.25390625,0L11.8542470932007,1.06201314926147 13.0224609375,2.490234375 13.7731924057007,4.39453268051147 14.12109375,6.884765625 18.5888671875,4.541015625 21.544189453125,2.64404439926147 25.341796875,0 27.0227031707764,1.11328268051147 28.2568359375,2.578125 29.0515117645264,4.47509908676147 29.4140625,6.884765625 33.8818359375,4.541015625 36.837158203125,2.64404439926147 40.634765625,0 42.015380859375,1.30737447738647 43.9306640625,2.6513671875 45.999755859375,3.81225728988647 47.841796875,4.5703125 47.841796875,6.38671875 45.99609375,6.796875 45.0732421875,7.8369140625 44.864501953125,8.763427734375 44.794921875,10.166015625 44.794921875,20.09765625 44.91943359375,22.46337890625 45.29296875,24.052734375 45.95947265625,24.95361328125 46.962890625,25.25390625 48.3544921875,24.990234375 49.62890625,24.404296875 50.390625,26.484375 49.1363487243652,27.0758056640625 47.1606407165527,28.05908203125 44.4634971618652,29.4342041015625 41.044921875,31.201171875 39.554443359375,30.234375 38.4814453125,29.267578125 37.2509765625,26.982421875 36.976318359375,25.4296875 36.884765625,23.408203125 36.884765625,10.166015625 36.1376953125,8.61328125 34.658203125,7.880859375 33.6328125,8.173828125 32.27783203125,8.8330078125 29.501953125,10.224609375 29.501953125,29.82421875 21.591796875,29.82421875 21.591796875,10.166015625 20.8447265625,8.61328125 19.365234375,7.880859375 18.33984375,8.173828125 16.98486328125,8.8330078125 14.208984375,10.224609375 14.208984375,29.82421875 6.298828125,29.82421875 6.298828125,11.279296875 5.7275390625,8.3642578125 5.028076171875,7.540283203125 4.07226610183716,7.265625 2.79052734375,7.59521484375 0.9375,8.583984375 0,6.240234375 2.003173828125,5.26794528961182 4.3798828125,3.90381002426147 7.130126953125,2.14782810211182 10.25390625,0z" />
    </g>
  </g>
</svg>