<?xml version="1.0" encoding="utf-8"?>
<!DOCTYPE svg PUBLIC "-//W3C//DTD SVG 1.1//EN" "http://www.w3.org/Graphics/SVG/1.1/DTD/svg11.dtd">
<svg width="44.82421875" height="29.58984375" xmlns="http://www.w3.org/2000/svg" xmlns:xlink="http://www.w3.org/1999/xlink" xmlns:xml="http://www.w3.org/XML/1998/namespace" version="1.1">
  <g>
    <g>
      <path style="fill:#FF0000;fill-opacity:1" d="M19.98046875,0L20.9765625,0 18.515625,8.34228515625 16.5234375,15.380859375 16.93359375,15.41015625 19.2961120605469,11.9494638442993 21.5496807098389,8.95019626617432 23.6943035125732,6.41235494613647 25.7299785614014,4.33593893051147 27.6567058563232,2.72094869613647 29.4744853973389,1.56738388538361 31.1833190917969,0.875244736671448 32.783203125,0.64453125 34.4384765625,0.911866664886475 35.654296875,1.7138671875 36.4013671875,3.02124166488647 36.650390625,4.8046875 36.5625,5.9033203125 36.298828125,7.3828125 36.053466796875,8.4228515625 35.6689453125,9.873046875 35.145263671875,11.7333984375 34.482421875,14.00390625 33.7957763671875,16.3311767578125 33.25927734375,18.18603515625 32.8729248046875,19.5684814453125 32.63671875,20.478515625 32.314453125,22.529296875 32.7685546875,23.9794921875 34.072265625,24.4921875 35.8154296875,24.287109375 37.412109375,23.525390625 39.6533203125,21.767578125 41.231689453125,20.2880859375 43.2421875,18.251953125 44.82421875,19.6875 42.01171875,22.587890625 39.2578125,25.2978515625 36.8115234375,27.36328125 34.658203125,28.740234375 32.9443359375,29.3994140625 31.40625,29.58984375 29.6484355926514,29.31884765625 28.359375,28.505859375 27.5683574676514,27.23876953125 27.3046875,25.60546875 27.4731426239014,23.92822265625 27.978515625,21.533203125 28.7841777801514,18.53759765625 29.853515625,15.05859375 30.6115703582764,12.6416015625 31.1865234375,10.60546875 31.5490703582764,8.97216796875 31.669921875,7.763671875 31.201171875,6.1962890625 29.70703125,5.68359375 27.9382305145264,6.031494140625 26.1474609375,7.0751953125 24.1992168426514,8.909912109375 21.9580078125,11.630859375 17.7685546875,18.4423828125 16.014404296875,22.474365234375 14.35546875,27.275390625 9.84375,29.58984375 8.701171875,29.58984375 11.9311513900757,17.1826171875 14.4140625,6.2109375 14.00390625,6.15234375 11.282958984375,8.60595703125 7.9248046875,11.865234375 4.530029296875,15.31494140625 1.69921863079071,18.33984375 0,16.376953125 5.71289110183716,10.60546875 9.814453125,6.6796875 14.853515625,2.373046875 19.98046875,0z" />
    </g>
  </g>
</svg>