<?xml version="1.0" encoding="utf-8"?>
<!DOCTYPE svg PUBLIC "-//W3C//DTD SVG 1.1//EN" "http://www.w3.org/Graphics/SVG/1.1/DTD/svg11.dtd">
<svg width="34.482421875" height="40.01953125" xmlns="http://www.w3.org/2000/svg" xmlns:xlink="http://www.w3.org/1999/xlink" xmlns:xml="http://www.w3.org/XML/1998/namespace" version="1.1">
  <g>
    <g>
      <path style="fill:#FF0000;fill-opacity:1" d="M0,0L10.078125,0 10.078125,3.1640625 7.44140625,3.1640625 16.9921875,16.962890625 26.337890625,3.1640625 23.583984375,3.1640625 23.583984375,0 33.22265625,0 33.22265625,3.1640625 30.498046875,3.1640625 19.1015625,19.6875 31.259765625,36.85546875 34.482421875,36.85546875 34.482421875,40.01953125 22.79296875,40.01953125 22.79296875,36.85546875 26.8359375,36.85546875 16.904296875,22.880859375 7.1484375,36.85546875 10.927734375,36.85546875 10.927734375,40.01953125 0,40.01953125 0,36.85546875 2.90039038658142,36.85546875 14.736328125,19.8046875 2.95898413658142,3.1640625 0,3.1640625 0,0z" />
    </g>
  </g>
</svg>