<?xml version="1.0" encoding="utf-8"?>
<!DOCTYPE svg PUBLIC "-//W3C//DTD SVG 1.1//EN" "http://www.w3.org/Graphics/SVG/1.1/DTD/svg11.dtd">
<svg width="42.24609375" height="29.794921875" xmlns="http://www.w3.org/2000/svg" xmlns:xlink="http://www.w3.org/1999/xlink" xmlns:xml="http://www.w3.org/XML/1998/namespace" version="1.1">
  <g>
    <g>
      <path style="fill:#FF0000;fill-opacity:1" d="M3.720703125,0L12.24609375,0 10.8544921875,3.22265625 9.7705078125,6.8701171875 9.0673828125,10.693359375 8.818359375,14.47265625 9.085693359375,18.74267578125 9.8876953125,21.826171875 11.2243642807007,23.69384765625 13.095703125,24.31640625 14.761962890625,23.82568359375 16.0107421875,22.353515625 16.790771484375,19.9365234375 17.05078125,16.611328125 17.05078125,9.140625 25.1953125,9.140625 25.224609375,16.669921875 25.4882793426514,19.969482421875 26.279296875,22.3681640625 27.5317363739014,23.829345703125 29.1796875,24.31640625 31.04736328125,23.701171875 32.373046875,21.85546875 33.1640625,18.7939453125 33.427734375,14.53125 33.22265625,10.7373046875 32.607421875,6.8994140625 31.552734375,3.2373046875 30,0 38.525390625,0 40.166015625,3.193359375 41.3232421875,7.1484375 42.01171875,11.5283203125 42.24609375,16.025390625 42.0529174804688,19.2526245117188 41.473388671875,22.049560546875 40.5075073242188,24.4161987304688 39.1552734375,26.3525390625 37.4404907226563,27.8585815429688 35.386962890625,28.934326171875 32.9946899414063,29.5797729492188 30.263671875,29.794921875 27.1728496551514,29.5166015625 24.638671875,28.681640625 22.6245098114014,27.29736328125 21.09375,25.37109375 20.888671875,25.37109375 19.427490234375,27.29736328125 17.4462890625,28.681640625 14.967041015625,29.5166015625 12.01171875,29.794921875 9.2083740234375,29.578857421875 6.77490234375,28.9306640625 4.7113037109375,27.850341796875 3.017578125,26.337890625 1.6973876953125,24.3951416015625 0.75439453125,22.02392578125 0.1885986328125,19.2242431640625 0,15.99609375 0.219726800918579,11.5576171875 0.893554925918579,7.236328125 2.05078125,3.2958984375 3.720703125,0z" />
    </g>
  </g>
</svg>