<?xml version="1.0" encoding="utf-8"?>
<!DOCTYPE svg PUBLIC "-//W3C//DTD SVG 1.1//EN" "http://www.w3.org/Graphics/SVG/1.1/DTD/svg11.dtd">
<svg width="29.296875" height="42.919921875" xmlns="http://www.w3.org/2000/svg" xmlns:xlink="http://www.w3.org/1999/xlink" xmlns:xml="http://www.w3.org/XML/1998/namespace" version="1.1">
  <g>
    <g>
      <path style="fill:#FF0000;fill-opacity:1" d="M16.34765625,3.45703125L14.06982421875,3.72070455551147 12.158203125,4.51171875 9.31640625,7.20703125 7.6904296875,10.8251953125 7.177734375,14.6484375 7.177734375,17.2265625 7.67578125,21.181640625 9.228515625,24.2431640625 11.953125,26.2353515625 15.966796875,26.953125 17.8564453125,26.737060546875 19.599609375,26.0888671875 22.470703125,23.61328125 24.345703125,19.7314453125 25.01953125,14.6484375 24.375,10.1953125 22.587890625,6.650390625 19.8486328125,4.306640625 18.175048828125,3.66943502426147 16.34765625,3.45703125z M16.93359375,0L19.4091796875,0.260011196136475 21.73828125,1.0400390625 23.8513164520264,2.30346822738647 25.6787109375,4.013671875 27.1838359832764,6.15234375 28.330078125,8.701171875 29.0551738739014,11.62353515625 29.296875,14.8828125 29.0002422332764,18.4130859375 28.1103515625,21.50390625 26.7333965301514,24.14794921875 24.9755859375,26.337890625 22.8955059051514,28.05908203125 20.5517578125,29.296875 18.057861328125,30.0439453125 15.52734375,30.29296875 13.154296875,30.029296875 10.927734375,29.296875 8.9794921875,28.154296875 7.44140625,26.66015625 7.119140625,26.66015625 7.119140625,39.755859375 13.359375,39.755859375 13.359375,42.919921875 0,42.919921875 0,39.755859375 3.48632860183716,39.755859375 3.48632860183716,3.3984375 0,3.3984375 0,0.234375 7.177734375,0.234375 7.177734375,5.0390625 7.3828125,5.0390625 9.39697265625,2.87109518051147 11.572265625,1.2890625 14.04052734375,0.322267055511475 16.93359375,0z" />
    </g>
  </g>
</svg>