<?xml version="1.0" encoding="utf-8"?>
<!DOCTYPE svg PUBLIC "-//W3C//DTD SVG 1.1//EN" "http://www.w3.org/Graphics/SVG/1.1/DTD/svg11.dtd">
<svg width="34.21875" height="41.484375" xmlns="http://www.w3.org/2000/svg" xmlns:xlink="http://www.w3.org/1999/xlink" xmlns:xml="http://www.w3.org/XML/1998/namespace" version="1.1">
  <g>
    <g>
      <path style="fill:#FF0000;fill-opacity:1" d="M20.7421875,3.046875L19.27001953125,3.460693359375 18.134765625,4.7021484375 17.40966796875,6.712646484375 17.16796875,9.43359375 17.413330078125,12.1069355010986 18.1494140625,14.208984375 19.35791015625,15.8203144073486 21.0205078125,17.021484375 25.458984375,18.33984375 25.3134136199951,14.6722421646118 25.0524883270264,11.5209980010986 24.6762065887451,8.88610935211182 24.1845703125,6.767578125 23.5574340820313,5.1397705078125 22.774658203125,3.97705078125 21.8362426757813,3.2794189453125 20.7421875,3.046875z M20.625,0L23.6920146942139,0.31585693359375 26.3891582489014,1.263427734375 28.7164287567139,2.84271240234375 30.673828125,5.0537109375 32.2247314453125,7.86712694168091 33.33251953125,11.2536630630493 33.9971923828125,15.2133188247681 34.21875,19.74609375 33.80859375,25.2392578125 32.40234375,30.8642578125 31.3146953582764,33.4130859375 30.0439453125,35.5810546875 27.041015625,38.8037109375 23.4228515625,40.7666015625 18.8671875,41.484375 15.90087890625,41.33056640625 13.330078125,40.869140625 11.1767578125,40.081787109375 9.462890625,38.9501953125 8.1591796875,37.4853515625 7.23632860183716,35.6982421875 6.68701124191284,33.497314453125 6.50390625,30.791015625 6.50390625,28.125 6.38305616378784,26.202392578125 6.0205078125,24.8876953125 5.343017578125,24.129638671875 4.27734375,23.876953125 3.02490210533142,24.16259765625 1.669921875,25.01953125 0,22.529296875 1.95190417766571,21.068115234375 3.9404296875,20.0244140625 5.965576171875,19.398193359375 8.02734375,19.189453125 10.24658203125,19.427490234375 11.982421875,20.1416015625 13.2861318588257,21.30615234375 14.208984375,22.8955078125 14.7582998275757,25.074462890625 14.94140625,28.0078125 14.94140625,33.134765625 15.2050771713257,35.460205078125 15.99609375,37.1044921875 17.38037109375,38.082275390625 19.423828125,38.408203125 21.37939453125,37.979736328125 22.91015625,36.6943359375 24.0490703582764,34.486083984375 24.8291015625,31.2890625 25.2795391082764,26.982421875 25.4296875,21.4453125 21.6677856445313,21.0443115234375 18.380126953125,20.31005859375 15.5667114257813,19.2425537109375 13.2275390625,17.841796875 11.3882446289063,16.1352558135986 10.074462890625,14.1503925323486 9.28619384765625,11.8872079849243 9.0234375,9.345703125 9.400634765625,6.529541015625 10.5322265625,4.1748046875 12.3156728744507,2.325439453125 14.6484375,1.025390625 17.4462890625,0.25634765625 20.625,0z" />
    </g>
  </g>
</svg>