<?xml version="1.0" encoding="utf-8"?>
<!DOCTYPE svg PUBLIC "-//W3C//DTD SVG 1.1//EN" "http://www.w3.org/Graphics/SVG/1.1/DTD/svg11.dtd">
<svg width="28.916015625" height="40.927734375" xmlns="http://www.w3.org/2000/svg" xmlns:xlink="http://www.w3.org/1999/xlink" xmlns:xml="http://www.w3.org/XML/1998/namespace" version="1.1">
  <g>
    <g>
      <path style="fill:#FF0000;fill-opacity:1" d="M14.443359375,3.28125L12.5830078125,3.739013671875 11.162109375,5.1123046875 10.1293935775757,7.39013671875 9.43359375,10.5615234375 9.03808498382568,14.7253437042236 8.90625,19.98046875 9.04907131195068,25.7666015625 9.4775390625,30.234375 10.2136220932007,33.541259765625 11.279296875,35.8447265625 12.71484375,37.196044921875 14.560546875,37.646484375 16.5087890625,37.1044921875 18.0029296875,35.4052734375 18.614501953125,34.0576171875 19.130859375,32.3291015625 19.53369140625,30.17578125 19.8046875,27.5537109375 20.009765625,21.181640625 19.910888671875,16.3549823760986 19.6142578125,12.36328125 19.134521484375,9.19921970367432 18.486328125,6.85546875 17.68798828125,5.2001953125 16.7578125,4.1015625 15.68115234375,3.486328125 14.443359375,3.28125z M14.619140625,0L17.9937725067139,0.30670166015625 20.9106426239014,1.226806640625 23.3697490692139,2.76031494140625 25.37109375,4.9072265625 26.9219970703125,7.68585252761841 28.02978515625,11.1145029067993 28.6944580078125,15.1931772232056 28.916015625,19.921875 28.6807250976563,24.7915649414063 27.974853515625,29.029541015625 26.7984008789063,32.6358032226563 25.1513671875,35.6103515625 23.0483989715576,37.9367065429688 20.5041484832764,39.598388671875 17.5186138153076,40.5953979492188 14.091796875,40.927734375 10.7235717773438,40.6155395507813 7.825927734375,39.678955078125 5.39886474609375,38.1179809570313 3.44238305091858,35.9326171875 1.93634057044983,33.1155395507813 0.86059582233429,29.659423828125 0.215148955583572,25.5642700195313 0,20.830078125 0.239868208765984,16.0610980987549 0.959472835063934,11.8908710479736 2.15881395339966,8.31939792633057 3.83789134025574,5.3466796875 5.95092821121216,3.00750732421875 8.4521484375,1.336669921875 11.341552734375,0.33416748046875 14.619140625,0z" />
    </g>
  </g>
</svg>