<?xml version="1.0" encoding="utf-8"?>
<!DOCTYPE svg PUBLIC "-//W3C//DTD SVG 1.1//EN" "http://www.w3.org/Graphics/SVG/1.1/DTD/svg11.dtd">
<svg width="24.814453125" height="40.458984375" xmlns="http://www.w3.org/2000/svg" xmlns:xlink="http://www.w3.org/1999/xlink" xmlns:xml="http://www.w3.org/XML/1998/namespace" version="1.1">
  <g>
    <g>
      <path style="fill:#FF0000;fill-opacity:1" d="M13.330078125,0L16.578369140625,0.2783203125 19.2919921875,1.11328125 21.4489727020264,2.490234375 23.02734375,4.39453125 23.9941387176514,6.74560546875 24.31640625,9.462890625 23.5986328125,14.00390625 22.6171855926514,16.0620136260986 21.1083984375,18.310546875 18.775634765625,21.1083984375 15.322265625,24.814453125 11.9714345932007,28.4033203125 9.5361328125,31.201171875 7.781982421875,33.4716796875 6.474609375,35.478515625 6.474609375,35.771484375 24.814453125,35.771484375 24.814453125,40.458984375 0,40.458984375 0,38.173828125 1.64062523841858,34.705810546875 3.75000023841858,31.3330078125 6.39404296875,27.908935546875 9.638671875,24.287109375 13.212890625,20.44921875 15.6005859375,17.7099609375 17.5634765625,14.9853515625 18.5888671875,12.6416015625 18.896484375,10.107421875 18.460693359375,7.63916015625 17.1533203125,5.7421875 15.076904296875,4.53369140625 12.333984375,4.130859375 8.1884765625,4.7021484375 5.723876953125,5.577392578125 2.51953196525574,7.060546875 0.878906488418579,3.1640625 7.1044921875,0.8203125 10.1623525619507,0.205078125 13.330078125,0z" />
    </g>
  </g>
</svg>