<?xml version="1.0" encoding="utf-8"?>
<!DOCTYPE svg PUBLIC "-//W3C//DTD SVG 1.1//EN" "http://www.w3.org/Graphics/SVG/1.1/DTD/svg11.dtd">
<svg width="32.021484375" height="28.4765625" xmlns="http://www.w3.org/2000/svg" xmlns:xlink="http://www.w3.org/1999/xlink" xmlns:xml="http://www.w3.org/XML/1998/namespace" version="1.1">
  <g>
    <g>
      <path style="fill:#FF0000;fill-opacity:1" d="M18.193359375,3.955078125L14.47265625,4.581298828125 11.162109375,6.2255859375 8.404541015625,8.748779296875 6.3427734375,12.01171875 5.05737257003784,15.84228515625 4.62890625,20.068359375 4.81567335128784,22.130126953125 5.3759765625,23.7451171875 6.214599609375,24.920654296875 7.236328125,25.6640625 9.638671875,26.19140625 12.3999013900757,25.7080078125 14.765625,24.2578125 16.724853515625,21.81884765625 18.2666015625,18.369140625 19.266357421875,14.47265625 19.599609375,10.693359375 19.248046875,7.001953125 18.193359375,3.955078125z M22.705078125,0L32.021484375,0 31.142578125,3.8671875 21.5625,3.8671875 21.50390625,4.1015625 22.9394512176514,6.10107421875 23.90625,8.115234375 24.638671875,12.5390625 24.1699199676514,16.746826171875 22.763671875,20.6396484375 20.51513671875,23.953857421875 17.51953125,26.42578125 13.9306640625,27.9638671875 9.90234375,28.4765625 5.643310546875,27.828369140625 2.5341796875,25.8837890625 0.633544921875,22.752685546875 0,18.544921875 0.245361328125,15.377197265625 0.9814453125,12.3779296875 2.197265625,9.580078125 3.8818359375,7.0166015625 5.928955078125,4.801025390625 8.232421875,3.046875 10.8984365463257,1.71386861801147 14.033203125,0.76171875 17.8857421875,0.190431118011475 22.705078125,0z" />
    </g>
  </g>
</svg>