<?xml version="1.0" encoding="utf-8"?>
<!DOCTYPE svg PUBLIC "-//W3C//DTD SVG 1.1//EN" "http://www.w3.org/Graphics/SVG/1.1/DTD/svg11.dtd">
<svg width="34.775390625" height="39.990234375" xmlns="http://www.w3.org/2000/svg" xmlns:xlink="http://www.w3.org/1999/xlink" xmlns:xml="http://www.w3.org/XML/1998/namespace" version="1.1">
  <g>
    <g>
      <path style="fill:#FF0000;fill-opacity:1" d="M16.025390625,5.888671875L13.2421875,18.544921875 15.908203125,18.544921875 18.33251953125,18.460693359375 20.15625,18.2080078125 22.96875,16.9189453125 24.1479473114014,15.7727069854736 25.107421875,14.23828125 25.7446269989014,12.4292011260986 25.95703125,10.458984375 25.6201171875,8.349609375 24.6533203125,6.9873046875 23.02734375,6.1669921875 21.81884765625,5.958251953125 20.185546875,5.888671875 16.025390625,5.888671875z M8.7890625,0L21.2109375,0 24.8290996551514,0.146484375 27.65625,0.5859375 29.87548828125,1.34033203125 31.669921875,2.431640625 33.046875,3.826904296875 34.013671875,5.4931640625 34.5849609375,7.45239353179932 34.775390625,9.7265625 34.24072265625,13.7805194854736 32.63671875,17.1533203125 29.77294921875,19.991455078125 25.458984375,22.44140625 25.400390625,22.67578125 27.3486328125,25.3564453125 28.1872539520264,27.374267578125 29.033203125,30 31.93359375,39.990234375 23.14453125,39.990234375 19.98046875,28.974609375 19.04296875,26.455078125 17.7978515625,24.931640625 15.615234375,24.43359375 11.953125,24.43359375 8.5546875,39.990234375 0,39.990234375 8.7890625,0z" />
    </g>
  </g>
</svg>