<?xml version="1.0" encoding="utf-8"?>
<!DOCTYPE svg PUBLIC "-//W3C//DTD SVG 1.1//EN" "http://www.w3.org/Graphics/SVG/1.1/DTD/svg11.dtd">
<svg width="24.814453125" height="42.392578125" xmlns="http://www.w3.org/2000/svg" xmlns:xlink="http://www.w3.org/1999/xlink" xmlns:xml="http://www.w3.org/XML/1998/namespace" version="1.1">
  <g>
    <g>
      <path style="fill:#FF0000;fill-opacity:1" d="M12.626953125,16.171875L10.42236328125,16.5234394073486 8.4375,17.578125 6.822509765625,19.03564453125 5.7275390625,20.595703125 5.101318359375,22.37548828125 4.892578125,24.4921875 4.892578125,30.99609375 5.07568359375,33.47900390625 5.625,35.302734375 6.56982421875,36.650390625 7.939453125,37.705078125 9.69726467132568,38.38623046875 11.806640625,38.61328125 15.05859375,37.906494140625 17.431640625,35.7861328125 18.8818340301514,32.281494140625 19.365234375,27.421875 18.9331035614014,22.5732421875 17.63671875,19.04296875 15.52001953125,16.8896503448486 12.626953125,16.171875z M3.134765625,0L4.921875,0 4.921875,15.76171875 5.21484375,15.791015625 7.47802639007568,14.0661640167236 9.580078125,12.9345703125 11.71875,12.3083515167236 14.091796875,12.099609375 16.5335063934326,12.3349008560181 18.6730937957764,13.0407733917236 20.5105571746826,14.2172250747681 22.0458984375,15.8642578125 23.2571392059326,17.9544067382813 24.1223125457764,20.460205078125 24.6414165496826,23.3816528320313 24.814453125,26.71875 24.4372539520264,31.424560546875 23.3056640625,35.3466796875 21.4672832489014,38.433837890625 18.9697265625,40.634765625 15.897216796875,41.953125 12.333984375,42.392578125 8.3056640625,41.8505859375 4.892578125,40.13671875 4.599609375,40.13671875 4.306640625,41.923828125 0,41.923828125 0,0.263671875 3.134765625,0z" />
    </g>
  </g>
</svg>