<?xml version="1.0" encoding="utf-8"?>
<!DOCTYPE svg PUBLIC "-//W3C//DTD SVG 1.1//EN" "http://www.w3.org/Graphics/SVG/1.1/DTD/svg11.dtd">
<svg width="22.412109375" height="43.41796875" xmlns="http://www.w3.org/2000/svg" xmlns:xlink="http://www.w3.org/1999/xlink" xmlns:xml="http://www.w3.org/XML/1998/namespace" version="1.1">
  <g>
    <g>
      <path style="fill:#FF0000;fill-opacity:1" d="M10.3125,0L14.739990234375,0.706787109375 18.1201171875,2.8271484375 20.262451171875,6.119384765625 20.9765625,10.341796875 20.577392578125,13.7072772979736 19.3798828125,16.4794921875 17.406005859375,18.665771484375 14.677734375,20.2734375 14.677734375,20.5078125 17.9150390625,21.68701171875 20.361328125,23.935546875 21.8994121551514,27.04833984375 22.412109375,30.8203125 22.1850566864014,33.5467529296875 21.5039043426514,35.98388671875 20.3686504364014,38.1317138671875 18.779296875,39.990234375 16.81640625,41.4898681640625 14.560546875,42.56103515625 12.01171875,43.2037353515625 9.169921875,43.41796875 4.5849609375,42.9345703125 2.28881859779358,42.249755859375 0,41.162109375 0,36.416015625 2.23754906654358,37.65380859375 4.5556640625,38.4375 9.111328125,38.994140625 12.484130859375,38.448486328125 15.1025390625,36.8115234375 16.783447265625,34.222412109375 17.34375,30.8203125 16.776123046875,27.520751953125 15.0732421875,25.1220703125 12.293701171875,23.660888671875 8.49609375,23.173828125 5.185546875,23.173828125 5.185546875,18.720703125 7.822265625,18.720703125 11.1584463119507,18.167724609375 13.7255859375,16.5087890625 15.362548828125,13.8830585479736 15.908203125,10.4296875 15.531005859375,7.847900390625 14.3994140625,5.9619140625 12.550048828125,4.808349609375 10.01953125,4.423828125 5.7568359375,5.0830078125 1.61132836341858,7.1484375 1.61132836341858,2.40234375 5.9619140625,0.5712890625 10.3125,0z" />
    </g>
  </g>
</svg>