<?xml version="1.0" encoding="utf-8"?>
<!DOCTYPE svg PUBLIC "-//W3C//DTD SVG 1.1//EN" "http://www.w3.org/Graphics/SVG/1.1/DTD/svg11.dtd">
<svg width="35.09765625" height="42.01171875" xmlns="http://www.w3.org/2000/svg" xmlns:xlink="http://www.w3.org/1999/xlink" xmlns:xml="http://www.w3.org/XML/1998/namespace" version="1.1">
  <g>
    <g>
      <path style="fill:#FF0000;fill-opacity:1" d="M25.13671875,11.30859375L9.90234375,16.494140625 9.90234375,19.6875 16.58203125,19.6875 20.013427734375,19.134521484375 22.7490234375,17.4755859375 24.5397930145264,14.9011249542236 25.13671875,11.6015625 25.13671875,11.30859375z M9.90234375,4.453125L9.90234375,11.982421875 23.818359375,7.265625 22.598876953125,6.053466796875 20.9912109375,5.1708984375 16.640625,4.453125 9.90234375,4.453125z M4.98046875,0L17.51953125,0 21.170654296875,0.340576171875 24.3896484375,1.3623046875 27.0300273895264,3.079833984375 28.9453125,5.5078125 34.453125,3.6328125 34.453125,8.14453125 30.205078125,9.580078125 30.29296875,11.19140625 29.6813945770264,15.0988788604736 27.8466796875,18.3837890625 24.9060039520264,20.899658203125 20.9765625,22.5 20.9765625,22.6171875 23.4814453125,24.228515625 24.1378765106201,24.92431640625 24.9792461395264,26.015625 26.0055522918701,27.50244140625 27.216796875,29.384765625 35.09765625,42.01171875 29.23828125,42.01171875 22.20703125,30.234375 20.196533203125,27.257080078125 18.3251953125,25.4150390625 16.329345703125,24.459228515625 13.9453125,24.140625 9.90234375,24.140625 9.90234375,42.01171875 4.98046875,42.01171875 4.98046875,18.1640625 0,19.86328125 0,15.3515625 4.98046875,13.65234375 4.98046875,0z" />
    </g>
  </g>
</svg>