<?xml version="1.0" encoding="utf-8"?>
<!DOCTYPE svg PUBLIC "-//W3C//DTD SVG 1.1//EN" "http://www.w3.org/Graphics/SVG/1.1/DTD/svg11.dtd">
<svg width="25.37109375" height="31.40625" xmlns="http://www.w3.org/2000/svg" xmlns:xlink="http://www.w3.org/1999/xlink" xmlns:xml="http://www.w3.org/XML/1998/namespace" version="1.1">
  <g>
    <g>
      <path style="fill:#FF0000;fill-opacity:1" d="M18.3984375,0L22.08984375,0.366212368011475 25.37109375,1.46484375 25.37109375,6.38671875 21.8994140625,4.62890768051147 18.22265625,4.04296875 14.5239248275757,4.67285299301147 11.455078125,6.5625 9.20654296875,9.43359375 7.96875,13.0078125 17.05078125,13.0078125 17.05078125,17.080078125 7.763671875,17.080078125 8.64990234375,21.38671875 10.78125,24.638671875 13.9453115463257,26.68212890625 17.9296875,27.36328125 21.7236328125,26.71142578125 25.3125,24.755859375 25.3125,29.326171875 21.5185546875,30.88623046875 17.109375,31.40625 14.1348266601563,31.1599731445313 11.451416015625,30.421142578125 9.05914306640625,29.1897583007813 6.9580078125,27.4658203125 5.23223876953125,25.3390502929688 3.966064453125,22.899169921875 3.15948486328125,20.1461791992188 2.8125,17.080078125 0,17.080078125 0,13.0078125 3.04687476158142,13.0078125 3.69781470298767,10.2447509765625 4.742431640625,7.75634765625 6.18072509765625,5.5426025390625 8.0126953125,3.603515625 10.1834096908569,2.02697849273682 12.6379384994507,0.900880336761475 15.3762807846069,0.225220799446106 18.3984375,0z" />
    </g>
  </g>
</svg>