<?xml version="1.0" encoding="utf-8"?>
<!DOCTYPE svg PUBLIC "-//W3C//DTD SVG 1.1//EN" "http://www.w3.org/Graphics/SVG/1.1/DTD/svg11.dtd">
<svg width="34.74609375" height="36.240234375" xmlns="http://www.w3.org/2000/svg" xmlns:xlink="http://www.w3.org/1999/xlink" xmlns:xml="http://www.w3.org/XML/1998/namespace" version="1.1">
  <g>
    <g>
      <path style="fill:#FF0000;fill-opacity:1" d="M14.765625,0L17.0938091278076,0.197754979133606 19.1271953582764,0.791017055511475 20.8657817840576,1.77978622913361 22.3095703125,3.1640625 24.2541484832764,7.04589986801147 24.90234375,12.36328125 24.90234375,26.66015625 27.333984375,26.66015625 29.970703125,21.15234375 34.130859375,21.15234375 31.494140625,26.66015625 34.74609375,26.66015625 34.74609375,30.703125 29.560546875,30.703125 26.953125,36.240234375 22.79296875,36.240234375 25.400390625,30.703125 20.09765625,30.703125 20.09765625,13.59375 19.6618633270264,9.41528415679932 18.3544902801514,6.43066549301147 16.1755352020264,4.63989353179932 13.125,4.04296875 9.85107326507568,4.71679830551147 7.177734375,6.73828125 5.39794921875,9.7998046875 4.8046875,13.59375 4.8046875,30.703125 0,30.703125 0,0.703125 4.8046875,0.703125 4.8046875,5.68359375 4.921875,5.68359375 6.81152296066284,3.19702243804932 9.08203029632568,1.42089986801147 11.7333974838257,0.355225682258606 14.765625,0z" />
    </g>
  </g>
</svg>