<?xml version="1.0" encoding="utf-8"?>
<!DOCTYPE svg PUBLIC "-//W3C//DTD SVG 1.1//EN" "http://www.w3.org/Graphics/SVG/1.1/DTD/svg11.dtd">
<svg width="36.884765625" height="31.40625" xmlns="http://www.w3.org/2000/svg" xmlns:xlink="http://www.w3.org/1999/xlink" xmlns:xml="http://www.w3.org/XML/1998/namespace" version="1.1">
  <g>
    <g>
      <path style="fill:#FF0000;fill-opacity:1" d="M14.94140625,4.04296875L12.7358999252319,4.24896335601807 10.7775869369507,4.86694478988647 9.06646633148193,5.89691257476807 7.6025390625,7.3388671875 5.592041015625,11.121826171875 4.921875,15.87890625 5.60302734375,20.518798828125 7.646484375,24.1845703125 9.12414455413818,25.5752563476563 10.8325185775757,26.568603515625 12.7716054916382,27.1646118164063 14.94140625,27.36328125 17.1597290039063,27.1737670898438 19.097900390625,26.605224609375 20.7559204101563,25.6576538085938 22.1337890625,24.3310546875 23.9904766082764,20.672607421875 24.609375,15.76171875 23.9941387176514,10.799560546875 22.1484375,7.1044921875 20.775146484375,5.76507663726807 19.1162109375,4.80835103988647 17.171630859375,4.23431491851807 14.94140625,4.04296875z M30.029296875,3.515625L28.2568359375,4.1162109375 26.923828125,5.625 28.6376953125,9.2724609375 29.443359375,13.65234375 30.93017578125,12.725830078125 32.05078125,11.4111328125 32.75390625,9.774169921875 32.98828125,7.880859375 32.7978515625,6.16333150863647 32.2265625,4.7607421875 31.29638671875,3.82690572738647 30.029296875,3.515625z M15.29296875,0L18.028564453125,0.190430760383606 20.4931640625,0.761720180511475 22.686767578125,1.71386826038361 24.609375,3.046875 27.0263671875,0.8349609375 28.5314922332764,0.208741664886475 30.205078125,0 32.98095703125,0.516358852386475 35.09765625,2.0654296875 36.43798828125,4.50073385238647 36.884765625,7.67578125 36.36474609375,11.00830078125 34.8046875,13.916015625 32.431640625,16.09130859375 29.47265625,17.2265625 28.9407329559326,20.335693359375 27.9895000457764,23.1005859375 26.6189556121826,25.521240234375 24.8291015625,27.59765625 22.6895141601563,29.263916015625 20.269775390625,30.4541015625 17.5698852539063,31.168212890625 14.58984375,31.40625 11.4321899414063,31.138916015625 8.609619140625,30.3369140625 6.12213134765625,29.000244140625 3.9697265625,27.12890625 2.23297119140625,24.832763671875 0.992431640625,22.2216796875 0.24810791015625,19.295654296875 0,16.0546875 0.25909423828125,12.5656127929688 1.036376953125,9.451904296875 2.33184814453125,6.71356201171875 4.1455078125,4.3505859375 6.39678955078125,2.44720554351807 9.005126953125,1.08764791488647 11.9705200195313,0.271912693977356 15.29296875,0z" />
    </g>
  </g>
</svg>