<?xml version="1.0" encoding="utf-8"?>
<!DOCTYPE svg PUBLIC "-//W3C//DTD SVG 1.1//EN" "http://www.w3.org/Graphics/SVG/1.1/DTD/svg11.dtd">
<svg width="27.333984375" height="43.388671875" xmlns="http://www.w3.org/2000/svg" xmlns:xlink="http://www.w3.org/1999/xlink" xmlns:xml="http://www.w3.org/XML/1998/namespace" version="1.1">
  <g>
    <g>
      <path style="fill:#FF0000;fill-opacity:1" d="M15.322265625,0L19.12353515625,0.1318359375 21.9140625,0.52734375 26.513671875,2.05078125 26.513671875,7.03125 23.9904766082764,5.830078125 21.2841796875,5.0390625 15.908203125,4.453125 8.642578125,9.462890625 21.26953125,18.33984375 21.26953125,22.44140625 20.3759765625,22.3095703125 19.27734375,22.236328125 18.1640625,22.177734375 17.255859375,22.177734375 14.3792724609375,22.3178100585938 11.90185546875,22.738037109375 9.8236083984375,23.4384155273438 8.14453125,24.4189453125 5.92529296875,27.235107421875 5.185546875,31.201171875 5.379638671875,32.9443359375 5.9619140625,34.482421875 6.932373046875,35.8154296875 8.291015625,36.943359375 11.8798828125,38.4814453125 16.435546875,38.994140625 21.8701152801514,38.3203125 27.333984375,36.298828125 27.333984375,41.162109375 22.0166015625,42.8759765625 16.435546875,43.388671875 12.83935546875,43.187255859375 9.638671875,42.5830078125 6.83349609375,41.575927734375 4.423828125,40.166015625 2.48840308189392,38.3990478515625 1.10595679283142,36.32080078125 0.27648913860321,33.9312744140625 0,31.23046875 0.25543200969696,28.494873046875 1.02172827720642,26.0888671875 2.29888892173767,24.012451171875 4.0869140625,22.265625 6.32171630859375,20.877685546875 8.939208984375,19.8779296875 11.9393920898438,19.266357421875 15.322265625,19.04296875 15.322265625,18.92578125 2.46093726158142,10.400390625 2.46093726158142,9.052734375 15.322265625,0z" />
    </g>
  </g>
</svg>