<?xml version="1.0" encoding="utf-8"?>
<!DOCTYPE svg PUBLIC "-//W3C//DTD SVG 1.1//EN" "http://www.w3.org/Graphics/SVG/1.1/DTD/svg11.dtd">
<svg width="34.21875" height="42.01171875" xmlns="http://www.w3.org/2000/svg" xmlns:xlink="http://www.w3.org/1999/xlink" xmlns:xml="http://www.w3.org/XML/1998/namespace" version="1.1">
  <g>
    <g>
      <path style="fill:#FF0000;fill-opacity:1" d="M9.90234375,21.328125L9.90234375,27.48046875 13.916015625,26.103515625 11.1328125,22.79296875 10.01953125,21.328125 9.90234375,21.328125z M4.98046875,0L9.90234375,0 9.90234375,19.74609375 10.01953125,19.74609375 10.5029296875,19.072265625 11.1328125,18.310546875 26.8359375,0 32.958984375,0 14.94140625,20.15625 18.720703125,24.462890625 33.57421875,19.3359375 33.57421875,23.73046875 21.6796875,27.83203125 34.21875,42.01171875 27.36328125,42.01171875 16.787109375,29.501953125 9.90234375,31.875 9.90234375,42.01171875 4.98046875,42.01171875 4.98046875,33.57421875 0,35.2734375 0,30.87890625 4.98046875,29.1796875 4.98046875,0z" />
    </g>
  </g>
</svg>