<?xml version="1.0" encoding="utf-8"?>
<!DOCTYPE svg PUBLIC "-//W3C//DTD SVG 1.1//EN" "http://www.w3.org/Graphics/SVG/1.1/DTD/svg11.dtd">
<svg width="27.1582031250001" height="44.150390625" xmlns="http://www.w3.org/2000/svg" xmlns:xlink="http://www.w3.org/1999/xlink" xmlns:xml="http://www.w3.org/XML/1998/namespace" version="1.1">
  <g>
    <g>
      <path style="fill:#FF0000;fill-opacity:1" d="M14.560546875,0L18.56689453125,0.131837368011475 21.5625,0.52734375 26.337890625,2.05078125 26.337890625,6.591796875 23.8146953582764,5.39062643051147 21.1083984375,4.599609375 15.732421875,4.013671875 8.701171875,9.580078125 21.09375,18.33984375 21.09375,22.44140625 20.2001953125,22.3095703125 19.1015625,22.236328125 17.98828125,22.177734375 17.080078125,22.177734375 11.9824209213257,22.796630859375 8.115234375,24.6533203125 6.69250440597534,26.0128784179688 5.67626905441284,27.615966796875 5.06652784347534,29.4625854492188 4.86328077316284,31.552734375 5.07110548019409,33.3782958984375 5.69457960128784,35.01708984375 6.73370313644409,36.4691162109375 8.1884765625,37.734375 11.8688955307007,39.4921875 16.259765625,40.078125 18.9990234375,39.8876953125 21.708984375,39.31640625 27.158203125,37.20703125 27.158203125,41.77734375 24.2724590301514,42.89794921875 21.650390625,43.623046875 16.259765625,44.150390625 12.7880859375,43.9425659179688 9.66796875,43.319091796875 6.89941358566284,42.2799682617188 4.48242139816284,40.8251953125 2.52136182785034,39.0005493164063 1.12060511112213,36.851806640625 0.280151158571243,34.3789672851563 0,31.58203125 0.261840611696243,28.8491821289063 1.04736292362213,26.422119140625 2.35656690597534,24.3008422851563 4.18945264816284,22.4853515625 6.45812940597534,21.0269165039063 9.07470703125,19.976806640625 12.0391845703125,19.3350219726563 15.3515625,19.1015625 15.3515625,18.955078125 2.87109375,10.4296875 2.87109375,9.08203125 14.560546875,0z" />
    </g>
  </g>
</svg>