<?xml version="1.0" encoding="utf-8"?>
<!DOCTYPE svg PUBLIC "-//W3C//DTD SVG 1.1//EN" "http://www.w3.org/Graphics/SVG/1.1/DTD/svg11.dtd">
<svg width="42.041015625" height="42.71484375" xmlns="http://www.w3.org/2000/svg" xmlns:xlink="http://www.w3.org/1999/xlink" xmlns:xml="http://www.w3.org/XML/1998/namespace" version="1.1">
  <g>
    <g>
      <path style="fill:#FF0000;fill-opacity:1" d="M22.353515625,4.453125L19.2105102539063,4.75250244140625 16.373291015625,5.650634765625 13.8418579101563,7.14752197265625 11.6162109375,9.2431640625 9.80255126953125,11.8002328872681 8.507080078125,14.6813983917236 7.72979736328125,17.8866596221924 7.470703125,21.416015625 7.72064208984375,24.942626953125 8.470458984375,28.1396484375 9.72015380859375,31.007080078125 11.4697265625,33.544921875 13.6276245117188,35.621337890625 16.102294921875,37.1044921875 18.8937377929688,37.994384765625 22.001953125,38.291015625 25.2401714324951,38.009033203125 28.1286602020264,37.1630859375 30.6674175262451,35.753173828125 32.8564453125,33.779296875 34.6188354492188,31.3201904296875 35.877685546875,28.45458984375 36.6329956054688,25.1824951171875 36.884765625,21.50390625 36.646728515625,17.7337665557861 35.9326171875,14.3920917510986 34.742431640625,11.4788827896118 33.076171875,8.994140625 30.9777812957764,7.0074462890625 28.4912090301514,5.58837890625 25.6164531707764,4.7369384765625 22.353515625,4.453125z M0,0L22.705078125,0 26.7965698242188,0.36895751953125 30.487060546875,1.475830078125 33.7765502929688,3.32061767578125 36.6650390625,5.9033203125 39.0170288085938,9.04998779296875 40.697021484375,12.5866708755493 41.7050170898438,16.5133666992188 42.041015625,20.830078125 41.700439453125,25.5130004882813 40.6787109375,29.718017578125 38.975830078125,33.4451293945313 36.591796875,36.6943359375 33.636474609375,39.3283081054688 30.2197265625,41.209716796875 26.341552734375,42.3385620117188 22.001953125,42.71484375 17.816162109375,42.3513793945313 14.0478515625,41.260986328125 10.697021484375,39.4436645507813 7.763671875,36.8994140625 5.379638671875,33.7783813476563 3.6767578125,30.230712890625 2.655029296875,26.2564086914063 2.314453125,21.85546875 2.87475609779358,15.8203144073486 4.55566453933716,10.8984375 7.086181640625,7.1044921875 10.1953125,4.453125 0,4.453125 0,0z" />
    </g>
  </g>
</svg>