<?xml version="1.0" encoding="utf-8"?>
<!DOCTYPE svg PUBLIC "-//W3C//DTD SVG 1.1//EN" "http://www.w3.org/Graphics/SVG/1.1/DTD/svg11.dtd">
<svg width="20.888671875" height="44.677734375" xmlns="http://www.w3.org/2000/svg" xmlns:xlink="http://www.w3.org/1999/xlink" xmlns:xml="http://www.w3.org/XML/1998/namespace" version="1.1">
  <g>
    <g>
      <path style="fill:#FF0000;fill-opacity:1" d="M8.5546875,0L13.1249990463257,0.673829555511475 16.58203125,2.6953125 18.75732421875,5.93261861801147 19.482421875,10.25390625 19.06494140625,13.00048828125 17.8125,15.791015625 15.966796875,18.2080078125 13.76953125,19.833984375 13.76953125,19.98046875 17.003173828125,21.632080078125 19.2041015625,24.0087890625 20.467529296875,27.000732421875 20.888671875,30.498046875 20.6094360351563,33.3810424804688 19.771728515625,36.024169921875 18.3755493164063,38.4274291992188 16.4208984375,40.5908203125 14.0652456283569,42.3788452148438 11.4660634994507,43.656005859375 8.62335109710693,44.4223022460938 5.53710889816284,44.677734375 2.8125,44.560546875 0.0878903269767761,44.1796875 0.0878903269767761,39.7265625 2.6953125,40.4150390625 5.53710889816284,40.6640625 9.61669921875,39.942626953125 13.0078125,37.7783203125 14.3408203125,36.2411499023438 15.29296875,34.515380859375 15.8642578125,32.6010131835938 16.0546875,30.498046875 15.4833984375,26.956787109375 13.76953125,24.4775390625 12.4291982650757,23.6251831054688 10.6933584213257,23.016357421875 8.56201076507568,22.6510620117188 6.03515625,22.529296875 3.984375,22.529296875 3.984375,18.515625 6.38671875,18.515625 9.613037109375,17.92236328125 12.2607421875,16.142578125 14.0295400619507,13.48388671875 14.619140625,10.25390625 14.2053213119507,7.62451171875 12.9638671875,5.654296875 10.9826650619507,4.42382955551147 8.349609375,4.013671875 4.1748046875,4.6142578125 0,6.474609375 0,2.021484375 4.27734327316284,0.46875 8.5546875,0z" />
    </g>
  </g>
</svg>