<?xml version="1.0" encoding="utf-8"?>
<!DOCTYPE svg PUBLIC "-//W3C//DTD SVG 1.1//EN" "http://www.w3.org/Graphics/SVG/1.1/DTD/svg11.dtd">
<svg width="29.8828125" height="35.56640625" xmlns="http://www.w3.org/2000/svg" xmlns:xlink="http://www.w3.org/1999/xlink" xmlns:xml="http://www.w3.org/XML/1998/namespace" version="1.1">
  <g>
    <g>
      <path style="fill:#FF0000;fill-opacity:1" d="M4.8046875,3.837890625L4.8046875,13.828125 8.3203125,13.828125 11.2939453125,13.480224609375 13.53515625,12.4365234375 14.94140625,10.733642578125 15.41015625,8.408203125 15.032958984375,6.390380859375 13.9013671875,4.9658203125 11.927490234375,4.11987447738647 9.0234375,3.837890625 4.8046875,3.837890625z M0,0L9.08203125,0 11.8853759765625,0.127259373664856 14.26025390625,0.509034633636475 16.2066650390625,1.14532577991486 17.724609375,2.0361328125 19.6801738739014,4.64721822738647 20.33203125,8.408203125 19.8046855926514,11.048583984375 18.22265625,13.4033203125 15.88623046875,15.150146484375 13.095703125,15.966796875 13.095703125,16.0546875 14.8681640625,17.2119140625 15.823974609375,18.446044921875 16.962890625,20.361328125 20.0390625,25.986328125 22.470703125,25.986328125 24.78515625,21.09375 28.9453125,21.09375 26.630859375,25.986328125 29.8828125,25.986328125 29.8828125,30.029296875 24.697265625,30.029296875 22.08984375,35.56640625 17.9296875,35.56640625 20.537109375,30.029296875 16.845703125,30.029296875 12.392578125,21.73828125 11.1474609375,19.7021484375 10.107421875,18.515625 8.83300685882568,17.9443359375 6.884765625,17.75390625 4.8046875,17.75390625 4.8046875,30.029296875 0,30.029296875 0,0z" />
    </g>
  </g>
</svg>