<?xml version="1.0" encoding="utf-8"?>
<!DOCTYPE svg PUBLIC "-//W3C//DTD SVG 1.1//EN" "http://www.w3.org/Graphics/SVG/1.1/DTD/svg11.dtd">
<svg width="37.8222656250002" height="54.404296875" xmlns="http://www.w3.org/2000/svg" xmlns:xlink="http://www.w3.org/1999/xlink" xmlns:xml="http://www.w3.org/XML/1998/namespace" version="1.1">
  <g>
    <g>
      <path style="fill:#FF0000;fill-opacity:1" d="M22.880859375,17.783203125L18.6474609375,18.4130859375 15.029296875,20.126953125 15.029296875,32.16796875 15.6591796875,35.6396484375 17.431640625,38.466796875 20.1416015625,40.37109375 23.583984375,41.07421875 25.6640605926514,40.858154296875 27.509765625,40.2099609375 29.1064453125,39.151611328125 30.439453125,37.705078125 32.2705078125,33.7353515625 32.900390625,28.447265625 32.40234375,24.4775390625 30.732421875,21.064453125 27.6416015625,18.6767578125 25.4919414520264,18.0065937042236 22.880859375,17.783203125z M10.224609375,0L15.029296875,0 15.029296875,15.9375 19.4091796875,14.3115234375 24.404296875,13.7109375 27.2644023895264,13.9746112823486 29.8681640625,14.765625 32.164306640625,16.0437030792236 34.1015625,17.7685546875 35.665283203125,19.9145526885986 36.8408203125,22.4560546875 37.576904296875,25.345458984375 37.822265625,28.53515625 37.587890625,32.091064453125 36.884765625,35.3173828125 35.738525390625,38.155517578125 34.1748046875,40.546875 32.2119140625,42.47314453125 29.8681640625,43.916015625 27.1691875457764,44.81689453125 24.140625,45.1171875 21.3372802734375,44.80224609375 18.90380859375,43.857421875 16.8402099609375,42.28271484375 15.146484375,40.078125 15.029296875,40.078125 15.029296875,44.4140625 10.224609375,44.4140625 10.224609375,24.84375 7.8515625,28.8720703125 6.2109375,33.134765625 5.244140625,37.2802734375 4.921875,40.95703125 5.438232421875,45.28564453125 6.9873046875,48.427734375 9.64965724945068,50.33935546875 13.505859375,50.9765625 17.0947265625,50.5517578125 19.98046875,49.39453125 21.328125,51.650390625 19.98046875,52.67578125 17.98828125,53.5546875 15.64453125,54.169921875 13.271484375,54.404296875 9.89501857757568,54.1552734375 7.08984375,53.408203125 4.8046875,52.218017578125 2.98828125,50.6396484375 1.6259765625,48.69140625 0.703125,46.3916015625 0,40.95703125 0.6298828125,35.91796875 2.5341796875,30.1611328125 5.7275390625,24.3603515625 10.224609375,19.21875 10.224609375,0z" />
    </g>
  </g>
</svg>