<?xml version="1.0" encoding="utf-8"?>
<!DOCTYPE svg PUBLIC "-//W3C//DTD SVG 1.1//EN" "http://www.w3.org/Graphics/SVG/1.1/DTD/svg11.dtd">
<svg width="37.5" height="49.951171875" xmlns="http://www.w3.org/2000/svg" xmlns:xlink="http://www.w3.org/1999/xlink" xmlns:xml="http://www.w3.org/XML/1998/namespace" version="1.1">
  <g>
    <g>
      <path style="fill:#FF0000;fill-opacity:1" d="M14.35546875,17.75390625L12.2634878158569,17.9562397003174 10.4113759994507,18.5632343292236 8.79913234710693,19.5748920440674 7.4267578125,20.9912109375 5.548095703125,24.832763671875 4.921875,29.8828125 5.518798828125,34.522705078125 7.3095703125,38.0712890625 8.61236476898193,39.3850708007813 10.1330556869507,40.323486328125 11.8716421127319,40.8865356445313 13.828125,41.07421875 17.4462890625,40.34912109375 20.33203125,38.173828125 22.2216777801514,34.892578125 22.8515625,30.849609375 22.8515625,26.42578125 22.2436504364014,23.03466796875 20.419921875,20.244140625 17.68798828125,18.3764667510986 14.35546875,17.75390625z M22.8515625,0L27.65625,0 27.65625,40.37109375 30.087890625,40.37109375 32.6953125,34.921875 36.85546875,34.921875 34.248046875,40.37109375 37.5,40.37109375 37.5,44.4140625 32.314453125,44.4140625 29.70703125,49.951171875 25.546875,49.951171875 28.154296875,44.4140625 22.8515625,44.4140625 22.8515625,39.31640625 22.734375,39.31640625 20.83740234375,41.854248046875 18.486328125,43.6669921875 15.68115234375,44.754638671875 12.421875,45.1171875 9.74853515625,44.8672485351563 7.353515625,44.117431640625 5.23681640625,42.8677368164063 3.39843702316284,41.1181640625 1.91162085533142,38.9309692382813 0.849609315395355,36.368408203125 0.21240234375,33.4304809570313 0,30.1171875 0.23345947265625,26.605224609375 0.933837890625,23.4521484375 2.10113525390625,20.657958984375 3.7353515625,18.22265625 5.76141357421875,16.2487812042236 8.104248046875,14.8388690948486 10.7638549804688,13.9929208755493 13.740234375,13.7109375 16.6204833984375,14.0148935317993 19.07958984375,14.9267597198486 21.1175537109375,16.4465351104736 22.734375,18.57421875 22.8515625,18.57421875 22.8515625,0z" />
    </g>
  </g>
</svg>