<?xml version="1.0" encoding="utf-8"?>
<!DOCTYPE svg PUBLIC "-//W3C//DTD SVG 1.1//EN" "http://www.w3.org/Graphics/SVG/1.1/DTD/svg11.dtd">
<svg width="36.5625" height="31.40625" xmlns="http://www.w3.org/2000/svg" xmlns:xlink="http://www.w3.org/1999/xlink" xmlns:xml="http://www.w3.org/XML/1998/namespace" version="1.1">
  <g>
    <g>
      <path style="fill:#FF0000;fill-opacity:1" d="M23.701171875,15.41015625L23.701171875,22.470703125 23.818359375,22.470703125 24.43359375,19.658203125 25.400390625,16.845703125 25.927734375,15.41015625 23.701171875,15.41015625z M18.28125,15.41015625L14.6978750228882,15.5181884765625 11.7407217025757,15.84228515625 9.40978908538818,16.3824462890625 7.705078125,17.138671875 5.61767578125,19.31396484375 4.92187547683716,22.3828125 5.32470703125,24.378662109375 6.533203125,25.9716796875 8.37158203125,27.015380859375 10.6640625,27.36328125 14.0185546875,26.744384765625 16.640625,24.8876953125 18.33251953125,21.983642578125 18.896484375,18.22265625 18.896484375,15.41015625 18.28125,15.41015625z M13.125,0L17.7520732879639,0.699463963508606 21.0571269989014,2.79785299301147 23.0401592254639,6.29516696929932 23.701171875,11.19140625 23.701171875,11.572265625 27.392578125,11.572265625 31.494140625,0.703125 36.5625,0.703125 31.904296875,11.572265625 35.390625,11.572265625 35.390625,15.41015625 30.263671875,15.41015625 23.73046875,30.703125 18.896484375,30.703125 18.896484375,26.015625 18.779296875,26.015625 17.0379638671875,28.3740234375 14.91943359375,30.05859375 12.4237060546875,31.0693359375 9.55078125,31.40625 5.555419921875,30.816650390625 2.5341796875,29.0478515625 0.633544921875,26.290283203125 0,22.734375 0.27191162109375,20.1242065429688 1.087646484375,17.860107421875 2.44720482826233,15.9420776367188 4.35058641433716,14.3701171875 6.89117431640625,13.1460571289063 10.162353515625,12.271728515625 14.1641235351563,11.7471313476563 18.896484375,11.572265625 18.511962890625,8.232421875 17.3583984375,5.888671875 15.428466796875,4.50439596176147 12.71484375,4.04296875 10.059814453125,4.27368259429932 7.5439453125,4.96582174301147 5.167236328125,6.11938571929932 2.9296875,7.734375 2.9296875,2.8125 7.6904296875,0.703126430511475 13.125,0z" />
    </g>
  </g>
</svg>