<?xml version="1.0" encoding="utf-8"?>
<!DOCTYPE svg PUBLIC "-//W3C//DTD SVG 1.1//EN" "http://www.w3.org/Graphics/SVG/1.1/DTD/svg11.dtd">
<svg width="22.55859375" height="41.30859375" xmlns="http://www.w3.org/2000/svg" xmlns:xlink="http://www.w3.org/1999/xlink" xmlns:xml="http://www.w3.org/XML/1998/namespace" version="1.1">
  <g>
    <g>
      <path style="fill:#FF0000;fill-opacity:1" d="M15.5859375,0L19.306640625,0.366212368011475 22.55859375,1.46484375 22.55859375,6.38671875 19.1015625,4.62890768051147 15.41015625,4.04296875 13.2138051986694,4.24896335601807 11.2243642807007,4.86694478988647 9.44183254241943,5.89691257476807 7.8662109375,7.3388671875 5.657958984375,11.151123046875 4.921875,15.99609375 5.614013671875,20.712890625 7.6904296875,24.31640625 9.19280910491943,25.6494140625 10.9313955307007,26.6015625 12.9061880111694,27.1728515625 15.1171875,27.36328125 18.92578125,26.71142578125 22.5,24.755859375 22.5,29.150390625 22.5,29.326171875 22.5,32.63671875 21.9433574676514,36.229248046875 20.2734375,38.9794921875 17.67333984375,40.726318359375 14.326171875,41.30859375 11.044921875,40.634765625 11.044921875,36.328125 12.6269521713257,37.00927734375 14.326171875,37.236328125 15.941162109375,36.9488525390625 17.0947265625,36.08642578125 17.786865234375,34.6490478515625 18.017578125,32.63671875 18.017578125,30.9688835144043 14.296875,31.40625 11.2435913085938,31.1453247070313 8.499755859375,30.362548828125 6.06536865234375,29.0579223632813 3.94042992591858,27.2314453125 2.21649193763733,24.9893188476563 0.985107660293579,22.437744140625 0.246276989579201,19.5767211914063 0,16.40625 0.26550304889679,12.8823852539063 1.06201195716858,9.722900390625 2.38952660560608,6.92779541015625 4.248046875,4.4970703125 6.5496826171875,2.52960300445557 9.20654296875,1.12426900863647 12.2186279296875,0.281067967414856 15.5859375,0z" />
    </g>
  </g>
</svg>