<?xml version="1.0" encoding="utf-8"?>
<!DOCTYPE svg PUBLIC "-//W3C//DTD SVG 1.1//EN" "http://www.w3.org/Graphics/SVG/1.1/DTD/svg11.dtd">
<svg width="29.677734375" height="42.744140625" xmlns="http://www.w3.org/2000/svg" xmlns:xlink="http://www.w3.org/1999/xlink" xmlns:xml="http://www.w3.org/XML/1998/namespace" version="1.1">
  <g>
    <g>
      <path style="fill:#FF0000;fill-opacity:1" d="M15.52734375,0L18.4295654296875,0.21148681640625 21.04248046875,0.845947265625 23.3660888671875,1.90338134765625 25.400390625,3.3837890625 27.0538311004639,5.21759033203125 28.2348613739014,7.335205078125 28.9434795379639,9.73663330078125 29.1796875,12.421875 28.9260845184326,14.8159799575806 28.1652812957764,17.0764179229736 26.8972759246826,19.2031879425049 25.1220703125,21.1962890625 20.599365234375,24.407958984375 15.146484375,26.337890625 29.677734375,42.744140625 23.49609375,42.744140625 8.37890625,25.517578125 8.37890625,23.701171875 12.0574951171875,23.02001953125 15.24169921875,22.119140625 17.9315185546875,20.99853515625 20.126953125,19.658203125 21.8316631317139,18.1182880401611 23.0493144989014,16.3989276885986 23.7799053192139,14.5001230239868 24.0234375,12.421875 23.4338359832764,9.173583984375 21.6650390625,6.6357421875 18.929443359375,4.998779296875 15.439453125,4.453125 11.6491689682007,5.020751953125 8.6572265625,6.7236328125 6.44897413253784,9.473876953125 5.009765625,13.18359375 0,13.18359375 0.719604432582855,10.272216796875 1.82373046875,7.6904296875 3.3123779296875,5.438232421875 5.185546875,3.515625 7.3809814453125,1.9775390625 9.83642578125,0.87890625 12.5518798828125,0.2197265625 15.52734375,0z" />
    </g>
  </g>
</svg>