<?xml version="1.0" encoding="utf-8"?>
<!DOCTYPE svg PUBLIC "-//W3C//DTD SVG 1.1//EN" "http://www.w3.org/Graphics/SVG/1.1/DTD/svg11.dtd">
<svg width="19.6875000000003" height="32.578125" xmlns="http://www.w3.org/2000/svg" xmlns:xlink="http://www.w3.org/1999/xlink" xmlns:xml="http://www.w3.org/XML/1998/namespace" version="1.1">
  <g>
    <g>
      <path style="fill:#FF0000;fill-opacity:1" d="M11.220703125,0L15.2783203125,0.278321027755737 18.076171875,1.11328125 18.076171875,5.947265625 14.912109375,4.49707174301147 10.986328125,4.013671875 8.426513671875,4.29931783676147 6.4306640625,5.15625 5.14526319503784,6.46728658676147 4.716796875,8.115234375 5.15258741378784,10.133056640625 6.4599609375,11.6748046875 8.70849609375,13.10302734375 11.9677734375,14.7802734375 15.28564453125,16.64794921875 17.7099609375,18.6474609375 19.193115234375,20.950927734375 19.6875,23.73046875 19.4906616210938,25.6256103515625 18.900146484375,27.32666015625 17.9159545898438,28.8336181640625 16.5380859375,30.146484375 12.821044921875,31.97021484375 7.96875,32.578125 3.54492163658142,31.9921875 1.45019507408142,31.3916015625 0.087890625,30.76171875 0.087890625,25.72265625 1.80541968345642,26.82861328125 3.96972632408142,27.744140625 6.302490234375,28.359375 8.525390625,28.564453125 11.4331045150757,28.2568359375 13.41796875,27.333984375 14.560546875,25.9130859375 14.94140625,24.111328125 14.527587890625,22.254638671875 13.2861328125,20.7861328125 11.0449209213257,19.3359375 7.6318359375,17.5341796875 4.17846632003784,15.52001953125 1.81640601158142,13.4326171875 0.454101175069809,11.070556640625 0,8.232421875 0.196838140487671,6.47552585601807 0.787353217601776,4.89624166488647 1.77154517173767,3.49456882476807 3.14941382408142,2.2705078125 6.741943359375,0.567627668380737 11.220703125,0z" />
    </g>
  </g>
</svg>