<?xml version="1.0" encoding="utf-8"?>
<!DOCTYPE svg PUBLIC "-//W3C//DTD SVG 1.1//EN" "http://www.w3.org/Graphics/SVG/1.1/DTD/svg11.dtd">
<svg width="38.056640625" height="42.01171875" xmlns="http://www.w3.org/2000/svg" xmlns:xlink="http://www.w3.org/1999/xlink" xmlns:xml="http://www.w3.org/XML/1998/namespace" version="1.1">
  <g>
    <g>
      <path style="fill:#FF0000;fill-opacity:1" d="M17.28515625,4.453125L17.28515625,21.6796875 22.44140625,21.6796875 26.9531230926514,21.10107421875 30.234375,19.365234375 32.23388671875,16.5600605010986 32.900390625,12.7734375 32.28515625,9.13330078125 30.439453125,6.533203125 27.36328125,4.97314453125 23.056640625,4.453125 17.28515625,4.453125z M12.36328125,0L23.90625,0 27.073974609375,0.20782470703125 29.8681640625,0.831298828125 32.288818359375,1.87042236328125 34.3359375,3.3251953125 35.9637451171875,5.14801025390625 37.12646484375,7.291259765625 37.8240966796875,9.75494384765625 38.056640625,12.5390625 37.80029296875,15.3799438476563 37.03125,17.955322265625 35.74951171875,20.2651977539063 33.955078125,22.3095703125 31.72119140625,23.9822387695313 29.12109375,25.177001953125 26.15478515625,25.8938598632813 22.822265625,26.1328125 17.28515625,26.1328125 17.28515625,42.01171875 12.36328125,42.01171875 12.36328125,26.1328125 9.66796875,26.1328125 7.562255859375,26.4697265625 5.9912109375,27.48046875 5.013427734375,29.0625 4.68749952316284,31.11328125 5.2734375,34.21875 0.64453113079071,34.21875 0,30.64453125 0.73974609375,27.015380859375 2.95898461341858,24.1552734375 6.30615234375,22.298583984375 10.4296875,21.6796875 12.36328125,21.6796875 12.36328125,0z" />
    </g>
  </g>
</svg>