<?xml version="1.0" encoding="utf-8"?>
<!DOCTYPE svg PUBLIC "-//W3C//DTD SVG 1.1//EN" "http://www.w3.org/Graphics/SVG/1.1/DTD/svg11.dtd">
<svg width="31.40625" height="42.71484375" xmlns="http://www.w3.org/2000/svg" xmlns:xlink="http://www.w3.org/1999/xlink" xmlns:xml="http://www.w3.org/XML/1998/namespace" version="1.1">
  <g>
    <g>
      <path style="fill:#FF0000;fill-opacity:1" d="M1.72851586341858,0L6.650390625,0 6.650390625,11.54296875 7.3681640625,14.47265625 9.375,16.5673828125 12.4658203125,17.8271484375 16.435546875,18.251953125 16.435546875,22.32421875 11.4843740463257,22.82958984375 7.998046875,24.345703125 5.9326171875,26.87255859375 5.244140625,30.41015625 5.947265625,33.720703125 7.8955078125,36.2841796875 10.8251953125,37.939453125 14.47265625,38.525390625 18.5302734375,37.9541015625 21.7822265625,36.4453125 24.375,34.306640625 26.484375,31.81640625 26.484375,0 31.40625,0 31.40625,42.01171875 26.484375,42.01171875 26.484375,37.91015625 23.9941387176514,39.884033203125 21.09375,41.4111328125 17.80517578125,42.388916015625 14.150390625,42.71484375 11.1291494369507,42.484130859375 8.3935546875,41.7919921875 3.92578148841858,39.19921875 2.26318383216858,37.3681640625 1.025390625,35.21484375 0.256347835063934,32.783203125 0,30.1171875 0.659179925918579,26.3525390625 2.54882836341858,23.291015625 5.5224609375,21.123046875 9.43359375,20.0390625 9.43359375,19.921875 6.181640625,18.680419921875 3.75000023841858,16.9482421875 2.23388695716858,14.6154804229736 1.72851586341858,11.572265625 1.72851586341858,0z" />
    </g>
  </g>
</svg>