<?xml version="1.0" encoding="utf-8"?>
<!DOCTYPE svg PUBLIC "-//W3C//DTD SVG 1.1//EN" "http://www.w3.org/Graphics/SVG/1.1/DTD/svg11.dtd">
<svg width="35.419921875" height="52.91015625" xmlns="http://www.w3.org/2000/svg" xmlns:xlink="http://www.w3.org/1999/xlink" xmlns:xml="http://www.w3.org/XML/1998/namespace" version="1.1">
  <g>
    <g>
      <path style="fill:#FF0000;fill-opacity:1" d="M9.9609375,0L9.9609375,8.876953125 33.69140625,8.876953125 33.69140625,10.37109375 22.177734375,26.279296875 27.6782207489014,27.747802734375 31.875,30.5126953125 33.4259033203125,32.3336791992188 34.53369140625,34.383544921875 35.1983642578125,36.6622924804688 35.419921875,39.169921875 35.1168823242188,42.0510864257813 34.207763671875,44.659423828125 32.6925659179688,46.9949340820313 30.5712890625,49.0576171875 28.0105571746826,50.7431030273438 25.1770000457764,51.947021484375 22.0706157684326,52.6693725585938 18.69140625,52.91015625 13.564453125,52.31689453125 8.84765625,50.537109375 8.84765625,45.791015625 11.297607421875,47.1240234375 13.7841796875,48.076171875 16.307373046875,48.6474609375 18.8671875,48.837890625 23.4521465301514,48.18603515625 27.1875,46.23046875 28.6358623504639,44.8187255859375 29.6704082489014,43.19091796875 30.2911357879639,41.3470458984375 30.498046875,39.287109375 30.2975444793701,37.1539306640625 29.6960430145264,35.29541015625 28.6935405731201,33.7115478515625 27.2900390625,32.40234375 23.3532695770264,30.64453125 17.958984375,30.05859375 15.556640625,30.05859375 15.556640625,28.564453125 26.806640625,12.978515625 9.9609375,12.978515625 9.9609375,29.8828125 10.21728515625,32.46826171875 10.986328125,34.189453125 12.3486318588257,35.15625 14.384765625,35.478515625 16.09130859375,35.2294921875 17.51953125,34.482421875 17.51953125,38.583984375 15.53466796875,39.287109375 13.037109375,39.521484375 9.5892333984375,38.97216796875 7.12646436691284,37.32421875 5.64880275726318,34.57763671875 5.15624904632568,30.732421875 5.15624904632568,12.978515625 0,12.978515625 0,8.876953125 5.15624904632568,8.876953125 5.15624904632568,1.552734375 9.9609375,0z" />
    </g>
  </g>
</svg>