<?xml version="1.0" encoding="utf-8"?>
<!DOCTYPE svg PUBLIC "-//W3C//DTD SVG 1.1//EN" "http://www.w3.org/Graphics/SVG/1.1/DTD/svg11.dtd">
<svg width="20.4199218750001" height="43.30078125" xmlns="http://www.w3.org/2000/svg" xmlns:xlink="http://www.w3.org/1999/xlink" xmlns:xml="http://www.w3.org/XML/1998/namespace" version="1.1">
  <g>
    <g>
      <path style="fill:#FF0000;fill-opacity:1" d="M7.705078125,34.86328125L5.4638671875,35.33203125 4.716796875,36.533203125 4.91455078125,37.294921875 5.5078125,37.822265625 7.470703125,38.232421875 9.8876953125,37.8369140625 11.953125,36.50390625 9.9169921875,35.2880859375 7.705078125,34.86328125z M14.58984375,0L19.51171875,0 19.51171875,26.953125 19.1748046875,31.669921875 17.900390625,36.03515625 19.3798828125,38.6865234375 20.419921875,41.748046875 16.171875,43.30078125 15.556640625,41.6162109375 14.82421875,40.048828125 13.1030263900757,41.319580078125 11.220703125,42.1435546875 7.08984375,42.744140625 4.2333984375,42.3193359375 1.99218726158142,41.103515625 0.527343571186066,39.1845703125 0,36.650390625 0.600585758686066,34.013671875 2.2265625,32.0361328125 4.6435546875,30.8056640625 7.587890625,30.380859375 10.9497060775757,30.87158203125 14.0625,32.34375 14.4580068588257,29.83154296875 14.58984375,26.865234375 14.58984375,0z" />
    </g>
  </g>
</svg>