<?xml version="1.0" encoding="utf-8"?>
<!DOCTYPE svg PUBLIC "-//W3C//DTD SVG 1.1//EN" "http://www.w3.org/Graphics/SVG/1.1/DTD/svg11.dtd">
<svg width="31.58203125" height="54.375" xmlns="http://www.w3.org/2000/svg" xmlns:xlink="http://www.w3.org/1999/xlink" xmlns:xml="http://www.w3.org/XML/1998/namespace" version="1.1">
  <g>
    <g>
      <path style="fill:#FF0000;fill-opacity:1" d="M0,0L4.92187452316284,0 4.92187452316284,18.427734375 26.66015625,18.427734375 26.66015625,0 31.58203125,0 31.58203125,40.166015625 31.4163208007813,43.5617065429688 30.919189453125,46.483154296875 30.0906372070313,48.9303588867188 28.9306640625,50.9033203125 27.4356079101563,52.4221801757813 25.601806640625,53.507080078125 23.4292602539063,54.1580200195313 20.91796875,54.375 18.8012676239014,54.14794921875 16.904296875,53.466796875 16.904296875,48.6328125 19.0942363739014,49.599609375 21.03515625,49.921875 23.4777812957764,49.43115234375 25.2392578125,47.958984375 26.304931640625,45.4833984375 26.66015625,41.982421875 26.66015625,22.8515625 4.92187452316284,22.8515625 4.92187452316284,42.01171875 0,42.01171875 0,0z" />
    </g>
  </g>
</svg>