<?xml version="1.0" encoding="utf-8"?>
<!DOCTYPE svg PUBLIC "-//W3C//DTD SVG 1.1//EN" "http://www.w3.org/Graphics/SVG/1.1/DTD/svg11.dtd">
<svg width="42.71484375" height="44.501953125" xmlns="http://www.w3.org/2000/svg" xmlns:xlink="http://www.w3.org/1999/xlink" xmlns:xml="http://www.w3.org/XML/1998/namespace" version="1.1">
  <g>
    <g>
      <path style="fill:#FF0000;fill-opacity:1" d="M14.296875,4.04296875L12.2424306869507,4.24438571929932 10.4150381088257,4.84863424301147 8.81469631195068,5.85571384429932 7.44140625,7.265625 5.5517578125,11.1328125 4.921875,16.2890625 5.5224609375,20.89599609375 7.32421875,24.404296875 10.1000967025757,26.62353515625 13.623046875,27.36328125 17.413330078125,26.63818359375 20.3466796875,24.462890625 22.2253398895264,21.1962890625 22.8515625,17.197265625 22.8515625,12.83203125 22.2399883270264,9.407958984375 20.4052734375,6.5771484375 17.655029296875,4.67651510238647 14.296875,4.04296875z M13.828125,0L16.69189453125,0.303956151008606 19.130859375,1.21582174301147 21.14501953125,2.73559665679932 22.734375,4.86328125 22.8515625,4.86328125 22.8515625,0.703125 27.65625,0.703125 27.65625,25.13671875 32.197265625,19.306640625 34.7900390625,15.802001953125 36.708984375,12.8466796875 37.8955078125,10.469970703125 38.291015625,8.701171875 37.877197265625,6.67236471176147 36.6357421875,5.21484375 34.449462890625,4.33593893051147 31.201171875,4.04296875 31.23046875,0 36.2548828125,0.527345180511475 39.84375,2.109375 41.9970703125,4.73144674301147 42.71484375,8.37890625 42.41455078125,10.3857421875 41.513671875,12.65625 40.1220703125,15.1025390625 38.349609375,17.63671875 36.064453125,20.595703125 27.65625,31.318359375 27.65625,44.501953125 22.8515625,44.501953125 22.8515625,37.470703125 18.193359375,43.41796875 13.359375,43.41796875 22.8515625,31.259765625 22.8515625,25.546875 22.734375,25.546875 20.91796875,28.1103515625 18.603515625,29.94140625 15.791015625,31.0400390625 12.48046875,31.40625 9.781494140625,31.1544799804688 7.3681640625,30.399169921875 5.240478515625,29.1403198242188 3.39843702316284,27.3779296875 1.91162085533142,25.1815795898438 0.849609315395355,22.620849609375 0.21240234375,19.6957397460938 0,16.40625 0.23345947265625,12.8704833984375 0.933837890625,9.70458984375 2.10113525390625,6.9085693359375 3.7353515625,4.482421875 5.76690673828125,2.52136325836182 8.126220703125,1.12060689926147 10.8132934570313,0.280152440071106 13.828125,0z" />
    </g>
  </g>
</svg>