<?xml version="1.0" encoding="utf-8"?>
<!DOCTYPE svg PUBLIC "-//W3C//DTD SVG 1.1//EN" "http://www.w3.org/Graphics/SVG/1.1/DTD/svg11.dtd">
<svg width="27.890625" height="17.05078125" xmlns="http://www.w3.org/2000/svg" xmlns:xlink="http://www.w3.org/1999/xlink" xmlns:xml="http://www.w3.org/XML/1998/namespace" version="1.1">
  <g>
    <g>
      <path style="fill:#FF0000;fill-opacity:1" d="M8.4375,3.134765625L6.514892578125,3.489990234375 5.0244140625,4.5556640625 4.068603515625,6.25854635238647 3.75,8.525390625 4.072265625,10.7922382354736 5.0390625,12.4951171875 6.533203125,13.560791015625 8.4375,13.916015625 10.3601064682007,13.560791015625 11.8505859375,12.4951171875 12.8063955307007,10.7922382354736 13.125,8.525390625 12.8063955307007,6.24023580551147 11.8505859375,4.541015625 10.3601064682007,3.486328125 8.4375,3.134765625z M20.712890625,2.900390625L19.15283203125,3.15307641029358 17.98828125,3.91113352775574 17.21923828125,5.17456150054932 16.845703125,6.943359375 24.287109375,6.943359375 24.0417461395264,5.17456150054932 23.3642559051514,3.91113352775574 22.2546367645264,3.15307641029358 20.712890625,2.900390625z M8.61328125,0L11.9970703125,0.64453125 13.5534658432007,1.5673828125 14.912109375,3.046875 15.029296875,3.046875 16.1865234375,1.67724609375 17.607421875,0.732421875 20.771484375,0 23.7304668426514,0.53466796875 25.986328125,2.138671875 27.4145488739014,4.64355564117432 27.890625,7.880859375 27.890625,9.84375 16.845703125,9.84375 17.266845703125,11.6766357421875 18.2080078125,12.98583984375 19.669189453125,13.7713623046875 21.650390625,14.033203125 24.2285137176514,13.64501953125 26.630859375,12.48046875 26.630859375,15.732421875 24.1699199676514,16.72119140625 21.005859375,17.05078125 17.6953125,16.435546875 16.20849609375,15.53466796875 14.912109375,14.0625 14.794921875,14.0625 12.0263671875,16.259765625 10.2575674057007,16.85302734375 8.26171875,17.05078125 4.90356397628784,16.475830078125 2.2705078125,14.7509765625 0.567626893520355,12.088623046875 0,8.701171875 0.585937440395355,5.17822360992432 2.34375,2.40234375 5.08300733566284,0.6005859375 8.61328125,0z" />
    </g>
  </g>
</svg>