<?xml version="1.0" encoding="utf-8"?>
<!DOCTYPE svg PUBLIC "-//W3C//DTD SVG 1.1//EN" "http://www.w3.org/Graphics/SVG/1.1/DTD/svg11.dtd">
<svg width="25.693359375" height="42.01171875" xmlns="http://www.w3.org/2000/svg" xmlns:xlink="http://www.w3.org/1999/xlink" xmlns:xml="http://www.w3.org/XML/1998/namespace" version="1.1">
  <g>
    <g>
      <path style="fill:#FF0000;fill-opacity:1" d="M15,4.453125L10.693359375,4.97314453125 7.6171875,6.533203125 5.77148485183716,9.13330078125 5.15625095367432,12.7734375 5.82275390625,16.5600605010986 7.822265625,19.365234375 11.1035146713257,21.10107421875 15.615234375,21.6796875 20.771484375,21.6796875 20.771484375,4.453125 15,4.453125z M14.150390625,0L25.693359375,0 25.693359375,42.01171875 20.771484375,42.01171875 20.771484375,26.1328125 15.234375,26.1328125 11.90185546875,25.8938598632813 8.935546875,25.177001953125 6.33544921875,23.9822387695313 4.1015625,22.3095703125 2.30712914466858,20.2651977539063 1.02539086341858,17.955322265625 0.25634777545929,15.3799438476563 0,12.5390625 0.233459606766701,9.70733642578125 0.933838129043579,7.218017578125 2.10113549232483,5.07110595703125 3.73535180091858,3.2666015625 5.78704833984375,1.83746337890625 8.206787109375,0.816650390625 10.9945678710938,0.20416259765625 14.150390625,0z" />
    </g>
  </g>
</svg>