<?xml version="1.0" encoding="utf-8"?>
<!DOCTYPE svg PUBLIC "-//W3C//DTD SVG 1.1//EN" "http://www.w3.org/Graphics/SVG/1.1/DTD/svg11.dtd">
<svg width="40.693359375" height="39.169921875" xmlns="http://www.w3.org/2000/svg" xmlns:xlink="http://www.w3.org/1999/xlink" xmlns:xml="http://www.w3.org/XML/1998/namespace" version="1.1">
  <g>
    <g>
      <path style="fill:#FF0000;fill-opacity:1" d="M36.796875,19.599609375L40.693359375,19.599609375 40.693359375,39.169921875 36.796875,39.169921875 36.796875,19.599609375z M27.24609375,19.599609375L36.62109375,29.326171875 36.62109375,29.443359375 27.24609375,39.169921875 27.24609375,34.86328125 30.791015625,31.376953125 0.05859375,31.376953125 0.05859375,27.48046875 30.849609375,27.48046875 27.24609375,23.935546875 27.24609375,19.599609375z M13.447265625,0L13.447265625,4.306640625 9.78515625,7.8515625 40.634765625,7.8515625 40.634765625,11.748046875 9.84375,11.748046875 13.447265625,15.234375 13.447265625,19.541015625 4.1015625,9.84375 4.1015625,9.697265625 13.447265625,0z M0,0L3.92578125,0 3.92578125,19.541015625 0,19.541015625 0,0z" />
    </g>
  </g>
</svg>