<?xml version="1.0" encoding="utf-8"?>
<!DOCTYPE svg PUBLIC "-//W3C//DTD SVG 1.1//EN" "http://www.w3.org/Graphics/SVG/1.1/DTD/svg11.dtd">
<svg width="42.94921875" height="26.953125" xmlns="http://www.w3.org/2000/svg" xmlns:xlink="http://www.w3.org/1999/xlink" xmlns:xml="http://www.w3.org/XML/1998/namespace" version="1.1">
  <g>
    <g>
      <path style="fill:#FF0000;fill-opacity:1" d="M25.1953125,10.3125L21.826171875,16.640625 36.03515625,16.640625 39.111328125,13.505859375 39.111328125,13.388671875 36.03515625,10.3125 25.1953125,10.3125z M6.826171875,10.3125L3.837890625,13.388671875 3.837890625,13.505859375 6.884765625,16.640625 17.63671875,16.640625 20.9765625,10.3125 6.826171875,10.3125z M12.7734375,0L12.7734375,4.3359375 10.6640625,6.416015625 23.0859375,6.416015625 24.580078125,3.662109375 28.798828125,3.662109375 27.275390625,6.416015625 32.197265625,6.416015625 30.17578125,4.3359375 30.17578125,0 42.94921875,13.388671875 42.94921875,13.505859375 30.17578125,26.953125 30.17578125,22.6171875 32.197265625,20.537109375 19.775390625,20.537109375 18.33984375,23.232421875 14.150390625,23.232421875 15.5859375,20.537109375 10.6640625,20.537109375 12.7734375,22.6171875 12.7734375,26.953125 0,13.505859375 0,13.388671875 12.7734375,0z" />
    </g>
  </g>
</svg>