<?xml version="1.0" encoding="utf-8"?>
<!DOCTYPE svg PUBLIC "-//W3C//DTD SVG 1.1//EN" "http://www.w3.org/Graphics/SVG/1.1/DTD/svg11.dtd">
<svg width="42.94921875" height="19.5703125" xmlns="http://www.w3.org/2000/svg" xmlns:xlink="http://www.w3.org/1999/xlink" xmlns:xml="http://www.w3.org/XML/1998/namespace" version="1.1">
  <g>
    <g>
      <path style="fill:#FF0000;fill-opacity:1" d="M9.345703125,0L9.345703125,4.3359375 5.68359375,7.8515625 11.279296875,7.8515625 12.3193359375,9.990234375 13.06640625,11.3525390625 13.681640625,12.0849609375 14.326171875,12.3046875 14.9267578125,12.099609375 15.52734375,11.4404296875 16.2451171875,10.2099609375 17.197265625,8.291015625 18.369140625,6.1376953125 19.3798828125,4.833984375 20.3466796875,4.189453125 21.416015625,4.013671875 22.5732421875,4.2041015625 23.5693359375,4.8779296875 24.5654296875,6.2255859375 25.72265625,8.408203125 26.7333984375,10.37109375 27.4365234375,11.5576171875 28.0078125,12.1435546875 28.59375,12.3046875 29.24560546875,12.037353515625 29.912109375,11.2353515625 30.6884765625,9.854736328125 31.669921875,7.8515625 37.177734375,7.8515625 33.57421875,4.3359375 33.57421875,0 42.94921875,9.7265625 42.94921875,9.84375 33.57421875,19.5703125 33.57421875,15.234375 37.119140625,11.77734375 32.98828125,11.77734375 31.7724609375,13.9453125 30.6298828125,15.3076171875 29.5751953125,16.0107421875 28.59375,16.201171875 27.333984375,15.99609375 26.1767578125,15.234375 25.0048828125,13.740234375 23.671875,11.337890625 22.9541015625,9.814453125 22.412109375,8.7451171875 21.943359375,8.115234375 21.416015625,7.91015625 20.8703594207764,8.148193359375 20.3466796875,8.8623046875 19.7277812957764,10.052490234375 18.896484375,11.71875 17.607421875,13.9013671875 16.3916015625,15.2783203125 15.205078125,15.99609375 14.033203125,16.201171875 12.978515625,16.0107421875 11.9677734375,15.3076171875 10.8837890625,13.9453125 9.580078125,11.77734375 5.7421875,11.77734375 9.345703125,15.234375 9.345703125,19.5703125 0,9.84375 0,9.7265625 9.345703125,0z" />
    </g>
  </g>
</svg>