<?xml version="1.0" encoding="utf-8"?>
<!DOCTYPE svg PUBLIC "-//W3C//DTD SVG 1.1//EN" "http://www.w3.org/Graphics/SVG/1.1/DTD/svg11.dtd">
<svg width="40.634765625001" height="23.583984375" xmlns="http://www.w3.org/2000/svg" xmlns:xlink="http://www.w3.org/1999/xlink" xmlns:xml="http://www.w3.org/XML/1998/namespace" version="1.1">
  <g>
    <g>
      <path style="fill:#FF0000;fill-opacity:1" d="M8.115234375,3.896484375L6.29150295257568,4.14550924301147 4.98046875,4.892578125 4.189453125,6.11572408676147 3.92578125,7.79296875 4.19677734375,9.510498046875 5.009765625,10.7958984375 6.38671779632568,11.597900390625 8.349609375,11.865234375 12.5390625,11.865234375 12.5390625,8.466796875 12.249755859375,6.39404439926147 11.3818359375,4.98046875 9.986572265625,4.16748189926147 8.115234375,3.896484375z M8.115234375,0L11.4990234375,0.5419921875 14.1357421875,2.1533203125 15.849609375,4.7900390625 16.46484375,8.408203125 16.46484375,11.865234375 34.86328125,11.865234375 31.259765625,8.349609375 31.259765625,4.013671875 40.634765625,13.740234375 40.634765625,13.857421875 31.259765625,23.583984375 31.259765625,19.248046875 34.8046875,15.791015625 16.46484375,15.791015625 16.46484375,23.583984375 12.5390625,23.583984375 12.5390625,15.791015625 8.115234375,15.791015625 4.599609375,15.17578125 2.05078125,13.4912109375 0.5126953125,10.95703125 0,7.79296875 0.5126953125,4.62890625 2.05078125,2.16796875 4.599609375,0.5712890625 8.115234375,0z" />
    </g>
  </g>
</svg>