<?xml version="1.0" encoding="utf-8"?>
<!DOCTYPE svg PUBLIC "-//W3C//DTD SVG 1.1//EN" "http://www.w3.org/Graphics/SVG/1.1/DTD/svg11.dtd">
<svg width="34.39453125" height="29.501953125" xmlns="http://www.w3.org/2000/svg" xmlns:xlink="http://www.w3.org/1999/xlink" xmlns:xml="http://www.w3.org/XML/1998/namespace" version="1.1">
  <g>
    <g>
      <path style="fill:#FF0000;fill-opacity:1" d="M18.896484375,4.248046875L20.079345703125,4.44580078125 20.9912109375,5.0390625 21.573486328125,5.9619140625 21.767578125,7.1484375 21.533203125,8.287353515625 20.830078125,9.3017578125 19.833984375,10.015869140625 18.720703125,10.25390625 17.51220703125,10.0634765625 16.58203125,9.4921875 15.98876953125,8.61328125 15.791015625,7.5 16.036376953125,6.37939453125 16.7724609375,5.302734375 17.794189453125,4.51171875 18.896484375,4.248046875z M32.28515625,0L33.8232421875,0.6591796875 34.39453125,2.28515625 34.0383911132813,4.21417236328125 32.969970703125,6.544189453125 31.1892700195313,9.27520751953125 28.6962890625,12.4072265625 22.364501953125,18.709716796875 14.765625,24.287109375 10.9442138671875,26.568603515625 7.71240234375,28.1982421875 5.0701904296875,29.176025390625 3.01757788658142,29.501953125 0.834960699081421,28.8134765625 0.208740383386612,28.026123046875 0,27.041015625 0.194091945886612,25.902099609375 0.776366949081421,25.0634765625 1.812744140625,24.407958984375 3.369140625,23.818359375 11.737060546875,20.284423828125 19.0869140625,15.3076171875 22.2830200195313,12.3751831054688 25.030517578125,9.276123046875 27.3294067382813,6.01043701171875 29.1796875,2.578125 30.41015625,0.6298828125 32.28515625,0z" />
    </g>
  </g>
</svg>