<?xml version="1.0" encoding="utf-8"?>
<!DOCTYPE svg PUBLIC "-//W3C//DTD SVG 1.1//EN" "http://www.w3.org/Graphics/SVG/1.1/DTD/svg11.dtd">
<svg width="38.935546875" height="42.919921875" xmlns="http://www.w3.org/2000/svg" xmlns:xlink="http://www.w3.org/1999/xlink" xmlns:xml="http://www.w3.org/XML/1998/namespace" version="1.1">
  <g>
    <g>
      <path style="fill:#FF0000;fill-opacity:1" d="M27.94921875,32.578125L29.132080078125,32.77587890625 30.0439453125,33.369140625 30.626220703125,34.2919921875 30.8203125,35.478515625 30.5859375,36.617431640625 29.8828125,37.6318359375 28.88671875,38.345947265625 27.7734375,38.583984375 26.56494140625,38.3935546875 25.634765625,37.822265625 25.04150390625,36.943359375 24.84375,35.830078125 25.089111328125,34.70947265625 25.8251953125,33.6328125 26.846923828125,32.841796875 27.94921875,32.578125z M36.474609375,0L38.0859375,0.6884765625 38.759765625,2.34375 38.49609375,3.19152927398682 37.705078125,4.09423971176147 36.38671875,5.05188083648682 34.541015625,6.064453125 36.463623046875,6.895751953125 37.8369140625,7.8955078125 38.660888671875,9.063720703125 38.935546875,10.400390625 38.411865234375,12.381591796875 36.8408203125,14.0478515625 34.200439453125,15.494384765625 30.46875,16.81640625 32.0068359375,18.10546875 32.51953125,19.86328125 32.1844482421875,21.4736938476563 31.17919921875,23.375244140625 29.5037841796875,25.5679321289063 27.158203125,28.0517578125 21.177978515625,33.197021484375 13.9599609375,38.115234375 10.3390502929688,40.21728515625 7.313232421875,41.71875 4.88250732421875,42.61962890625 3.046875,42.919921875 0.8349609375,42.2021484375 0.208740234375,41.378173828125 0,40.341796875 0.659179747104645,38.56201171875 2.63671922683716,37.44140625 6.807861328125,35.9500122070313 10.9130859375,34.024658203125 14.952392578125,31.6653442382813 18.92578125,28.8720703125 22.3736572265625,26.0751342773438 24.83642578125,23.704833984375 26.3140869140625,21.7611694335938 26.806640625,20.244140625 26.279296875,18.9990234375 24.697265625,18.193359375 23.00537109375,17.34375 22.44140625,16.142578125 22.6318359375,15.15380859375 23.203125,14.4140625 24.41162109375,13.82080078125 26.513671875,13.271484375 29.1668701171875,12.60498046875 31.06201171875,11.89453125 32.1990966796875,11.14013671875 32.578125,10.341796875 32.340087890625,9.920654296875 31.6259765625,9.4189453125 28.974609375,8.408203125 27.6123046875,7.6611328125 27.158203125,6.298828125 27.685546875,4.91455221176147 29.267578125,3.92578125 31.7724609375,2.607421875 33.116455078125,1.75781393051147 34.072265625,1.025390625 35.2734375,0.256349086761475 36.474609375,0z" />
    </g>
  </g>
</svg>