<?xml version="1.0" encoding="utf-8"?>
<!DOCTYPE svg PUBLIC "-//W3C//DTD SVG 1.1//EN" "http://www.w3.org/Graphics/SVG/1.1/DTD/svg11.dtd">
<svg width="36.03515625" height="49.306640625" xmlns="http://www.w3.org/2000/svg" xmlns:xlink="http://www.w3.org/1999/xlink" xmlns:xml="http://www.w3.org/XML/1998/namespace" version="1.1">
  <g>
    <g>
      <path style="fill:#FF0000;fill-opacity:1" d="M27.36328125,19.921875L25.6072998046875,20.1837158203125 23.70849609375,20.96923828125 21.6668701171875,22.2784423828125 19.482421875,24.111328125 22.1337890625,26.9384765625 23.726806640625,27.784423828125 25.1953125,28.06640625 27.2058086395264,27.740478515625 28.7255859375,26.7626953125 29.6813945770264,25.220947265625 30,23.203125 29.2822265625,20.830078125 28.4436016082764,20.14892578125 27.36328125,19.921875z M28.18359375,14.8828125L31.190185546875,15.4394550323486 33.5888671875,17.109375 35.159912109375,19.6142578125 35.68359375,22.67578125 34.951171875,26.77001953125 32.75390625,30.146484375 31.1444072723389,31.4666748046875 29.2456035614014,32.40966796875 27.0574932098389,32.9754638671875 24.580078125,33.1640625 22.25830078125,32.7685546875 19.86328125,31.58203125 17.607421875,29.736328125 15.703125,27.36328125 13.9727783203125,28.974609375 12.73681640625,30.3515625 11.9952392578125,31.494140625 11.748046875,32.40234375 12.4658203125,33.310546875 13.604736328125,33.93310546875 15.5859375,34.86328125 18.109130859375,36.112060546875 19.8193359375,37.3388671875 20.797119140625,38.646240234375 21.123046875,40.13671875 20.7394409179688,41.5896606445313 19.588623046875,43.077392578125 17.6705932617188,44.5999145507813 14.9853515625,46.1572265625 12.0053100585938,47.5350952148438 9.202880859375,48.519287109375 6.57806396484375,49.1098022460938 4.130859375,49.306640625 2.3876953125,49.12353515625 1.08398413658142,48.57421875 0.270996063947678,47.70263671875 0,46.552734375 0.254516631364822,45.43212890625 1.01806640625,44.58984375 2.2906494140625,44.02587890625 4.072265625,43.740234375 7.349853515625,43.289794921875 10.5615234375,42.4072265625 11.9522094726563,41.8789672851563 12.945556640625,41.392822265625 13.5415649414063,40.9487915039063 13.740234375,40.546875 13.2568359375,39.8876953125 12.520751953125,39.525146484375 11.279296875,38.994140625 8.177490234375,37.554931640625 6.3720703125,36.2841796875 5.504150390625,34.896240234375 5.21484375,33.10546875 5.72662353515625,30.9649658203125 7.261962890625,28.41064453125 9.82086181640625,25.4425048828125 13.4033203125,22.060546875 17.3977661132813,18.9202899932861 21.192626953125,16.6772480010986 24.7879028320313,15.3314218521118 28.18359375,14.8828125z M33.1640625,7.6171875L34.346923828125,7.81494283676147 35.2587890625,8.408203125 35.841064453125,9.33105659484863 36.03515625,10.517578125 35.80078125,11.6564960479736 35.09765625,12.6708984375 34.1015625,13.3850116729736 32.98828125,13.623046875 31.776123046875,13.4326190948486 30.8349609375,12.861328125 30.2307109832764,11.9824237823486 30.029296875,10.869140625 30.2783184051514,9.74853706359863 31.025390625,8.671875 32.05810546875,7.88086080551147 33.1640625,7.6171875z M21.15234375,7.6171875L22.3388671875,7.81494283676147 23.26171875,8.408203125 23.85498046875,9.33105659484863 24.052734375,10.517578125 23.814697265625,11.6564960479736 23.1005859375,12.6708984375 22.093505859375,13.3850116729736 20.9765625,13.623046875 19.76806640625,13.4326190948486 18.837890625,12.861328125 18.24462890625,11.9824237823486 18.046875,10.869140625 18.292236328125,9.74853706359863 19.0283203125,8.671875 20.050048828125,7.88086080551147 21.15234375,7.6171875z M27.83203125,0L28.9965801239014,0.19775390625 29.912109375,0.791015625 30.5053691864014,1.70654296875 30.703125,2.87109375 30.4650859832764,4.013671875 29.7509765625,5.0390625 28.7438945770264,5.76416015625 27.626953125,6.005859375 26.41845703125,5.8154296875 25.48828125,5.244140625 24.89501953125,4.365234375 24.697265625,3.251953125 24.9462890625,2.13134765625 25.693359375,1.0546875 26.72607421875,0.263671875 27.83203125,0z" />
    </g>
  </g>
</svg>