<?xml version="1.0" encoding="utf-8"?>
<!DOCTYPE svg PUBLIC "-//W3C//DTD SVG 1.1//EN" "http://www.w3.org/Graphics/SVG/1.1/DTD/svg11.dtd">
<svg width="35.888671875" height="29.501953125" xmlns="http://www.w3.org/2000/svg" xmlns:xlink="http://www.w3.org/1999/xlink" xmlns:xml="http://www.w3.org/XML/1998/namespace" version="1.1">
  <g>
    <g>
      <path style="fill:#FF0000;fill-opacity:1" d="M32.958984375,0L35.09765625,0.703125 35.69091796875,1.494140625 35.888671875,2.4609375 35.6817626953125,3.658447265625 35.06103515625,4.5556640625 34.0264892578125,5.152587890625 32.578125,5.44921875 28.3190898895264,6.148681640625 23.6279296875,7.6025390625 21.4810180664063,8.46588134765625 19.947509765625,9.224853515625 19.0274047851563,9.87945556640625 18.720703125,10.4296875 19.0283203125,10.927734375 19.779052734375,11.27197265625 21.416015625,11.89453125 23.5528564453125,12.7487182617188 25.27587890625,13.582763671875 26.5850830078125,14.3966674804688 27.48046875,15.1904296875 28.5131816864014,16.761474609375 28.857421875,18.33984375 28.5031108856201,20.6167602539063 27.4401836395264,22.701416015625 25.6686382293701,24.5938110351563 23.1884765625,26.2939453125 20.1992797851563,27.6974487304688 16.900634765625,28.699951171875 13.2925415039063,29.3014526367188 9.375,29.501953125 5.712890625,29.1943359375 2.69531273841858,28.271484375 0.673828184604645,26.90185546875 0,25.25390625 0.67382800579071,23.4375 1.45751953125,22.8662109375 2.46093773841858,22.67578125 3.33251953125,22.78564453125 4.658203125,23.115234375 8.0126953125,23.8623046875 11.220703125,24.111328125 15.853271484375,23.756103515625 19.7314453125,22.6904296875 21.2631225585938,21.9314575195313 22.357177734375,21.075439453125 23.0136108398438,20.1223754882813 23.232421875,19.072265625 22.88818359375,18.262939453125 21.85546875,17.4755859375 20.0244140625,16.585693359375 17.28515625,15.46875 15.311279296875,14.50927734375 13.9013671875,13.330078125 13.055419921875,11.93115234375 12.7734375,10.3125 13.38134765625,8.389892578125 15.205078125,6.6064453125 16.6433715820313,5.7037353515625 18.526611328125,4.70947265625 20.8547973632813,3.6236572265625 23.6279296875,2.4462890625 28.9562969207764,0.611573696136475 32.958984375,0z" />
    </g>
  </g>
</svg>