<?xml version="1.0" encoding="utf-8"?>
<!DOCTYPE svg PUBLIC "-//W3C//DTD SVG 1.1//EN" "http://www.w3.org/Graphics/SVG/1.1/DTD/svg11.dtd">
<svg width="52.763671875" height="31.962890625" xmlns="http://www.w3.org/2000/svg" xmlns:xlink="http://www.w3.org/1999/xlink" xmlns:xml="http://www.w3.org/XML/1998/namespace" version="1.1">
  <g>
    <g>
      <path style="fill:#FF0000;fill-opacity:1" d="M50.0390625,0L52.0825157165527,0.644532680511475 52.763671875,2.578125 52.550350189209,3.7664794921875 51.9103965759277,5.13427734375 50.843807220459,6.6815185546875 49.3505859375,8.408203125 47.6687622070313,9.99755859375 46.036376953125,11.1328125 44.4534301757813,11.81396484375 42.919921875,12.041015625 40.37109375,11.337890625 39.19189453125,10.37109375 37.880859375,8.876953125 35.1416015625,11.14013671875 30.966796875,12.421875 23.63525390625,19.661865234375 15,26.0302734375 10.7720947265625,28.6257934570313 7.37548828125,30.479736328125 4.8101806640625,31.5921020507813 3.076171875,31.962890625 0.8349609375,31.259765625 0.208740413188934,30.439453125 0,29.384765625 0.659179866313934,27.6123046875 2.63671875,26.513671875 5.1416015625,25.6265258789063 7.939453125,24.342041015625 11.0302734375,22.6602172851563 14.4140625,20.5810546875 20.76416015625,15.977783203125 25.693359375,11.279296875 23.6279296875,9.462890625 22.939453125,7.177734375 23.148193359375,5.9765625 23.7744140625,4.833984375 24.847412109375,3.9990234375 26.396484375,3.720703125 27.8979473114014,4.05029296875 29.1796875,5.0390625 30.2270488739014,5.89599609375 31.376953125,6.181640625 33.046875,5.8447265625 34.0283203125,5.277099609375 35.2734375,4.248046875 37.06787109375,2.95166158676147 38.642578125,2.51953125 40.0048828125,2.87109375 40.799560546875,3.52294921875 41.865234375,4.775390625 43.388671875,6.591796875 45.27099609375,5.13427734375 46.875,2.75390625 48.4130859375,0.688477993011475 50.0390625,0z" />
    </g>
  </g>
</svg>