<?xml version="1.0" encoding="utf-8"?>
<!DOCTYPE svg PUBLIC "-//W3C//DTD SVG 1.1//EN" "http://www.w3.org/Graphics/SVG/1.1/DTD/svg11.dtd">
<svg width="35.68359375" height="43.212890625" xmlns="http://www.w3.org/2000/svg" xmlns:xlink="http://www.w3.org/1999/xlink" xmlns:xml="http://www.w3.org/XML/1998/namespace" version="1.1">
  <g>
    <g>
      <path style="fill:#FF0000;fill-opacity:1" d="M27.36328125,13.828125L25.6072998046875,14.0899658203125 23.70849609375,14.87548828125 21.6668701171875,16.1846923828125 19.482421875,18.017578125 22.1337890625,20.8447265625 23.726806640625,21.690673828125 25.1953125,21.97265625 27.2058086395264,21.646728515625 28.7255859375,20.6689453125 29.6813945770264,19.127197265625 30,17.109375 29.2822265625,14.736328125 28.4436016082764,14.05517578125 27.36328125,13.828125z M28.18359375,8.7890625L31.190185546875,9.34570503234863 33.5888671875,11.015625 35.159912109375,13.5205078125 35.68359375,16.58203125 34.951171875,20.67626953125 32.75390625,24.052734375 31.1444072723389,25.3729248046875 29.2456035614014,26.31591796875 27.0574932098389,26.8817138671875 24.580078125,27.0703125 22.25830078125,26.6748046875 19.86328125,25.48828125 17.607421875,23.642578125 15.703125,21.26953125 13.9727783203125,22.880859375 12.73681640625,24.2578125 11.9952392578125,25.400390625 11.748046875,26.30859375 12.4658203125,27.216796875 13.604736328125,27.83935546875 15.5859375,28.76953125 18.109130859375,30.018310546875 19.8193359375,31.2451171875 20.797119140625,32.552490234375 21.123046875,34.04296875 20.7394409179688,35.4959106445313 19.588623046875,36.983642578125 17.6705932617188,38.5061645507813 14.9853515625,40.0634765625 12.0053100585938,41.4413452148438 9.202880859375,42.425537109375 6.57806396484375,43.0160522460938 4.13085985183716,43.212890625 2.38769555091858,43.02978515625 1.08398461341858,42.48046875 0.270996302366257,41.60888671875 0,40.458984375 0.254516750574112,39.33837890625 1.01806664466858,38.49609375 2.29064989089966,37.93212890625 4.07226610183716,37.646484375 7.349853515625,37.196044921875 10.5615243911743,36.3134765625 11.9522094726563,35.7852172851563 12.945556640625,35.299072265625 13.5415649414063,34.8550415039063 13.740234375,34.453125 13.2568359375,33.7939453125 12.520751953125,33.431396484375 11.279296875,32.900390625 8.177490234375,31.461181640625 6.3720703125,30.1904296875 5.504150390625,28.802490234375 5.21484375,27.01171875 5.72662353515625,24.8712158203125 7.261962890625,22.31689453125 9.82086181640625,19.3487548828125 13.4033203125,15.966796875 17.3977661132813,12.8265390396118 21.192626953125,10.5834980010986 24.7879028320313,9.23767185211182 28.18359375,8.7890625z M27.83203125,0L29.0148906707764,0.19775390625 29.9267578125,0.791015625 30.5090312957764,1.71386861801147 30.703125,2.900390625 30.4687480926514,4.03930807113647 29.765625,5.0537109375 28.7695293426514,5.76782369613647 27.65625,6.005859375 26.44775390625,5.81543111801147 25.517578125,5.244140625 24.92431640625,4.36523580551147 24.7265625,3.251953125 24.971923828125,2.13134908676147 25.7080078125,1.0546875 26.729736328125,0.263671875 27.83203125,0z" />
    </g>
  </g>
</svg>