<?xml version="1.0" encoding="utf-8"?>
<!DOCTYPE svg PUBLIC "-//W3C//DTD SVG 1.1//EN" "http://www.w3.org/Graphics/SVG/1.1/DTD/svg11.dtd">
<svg width="35.68359375" height="34.423828125" xmlns="http://www.w3.org/2000/svg" xmlns:xlink="http://www.w3.org/1999/xlink" xmlns:xml="http://www.w3.org/XML/1998/namespace" version="1.1">
  <g>
    <g>
      <path style="fill:#FF0000;fill-opacity:1" d="M28.7109375,21.708984375L29.8937969207764,21.90673828125 30.8056640625,22.5 31.3879375457764,23.4228515625 31.58203125,24.609375 31.3476543426514,25.748291015625 30.64453125,26.7626953125 29.6484355926514,27.476806640625 28.53515625,27.71484375 27.3266582489014,27.5244140625 26.396484375,26.953125 25.80322265625,26.07421875 25.60546875,24.9609375 25.850830078125,23.84033203125 26.5869140625,22.763671875 27.6086406707764,21.97265625 28.7109375,21.708984375z M27.36328125,5.0390625L25.6072998046875,5.3009033203125 23.70849609375,6.08642578125 21.6668701171875,7.3956298828125 19.482421875,9.228515625 22.1337890625,12.0556640625 23.726806640625,12.901611328125 25.1953125,13.18359375 27.2058086395264,12.857666015625 28.7255859375,11.8798828125 29.6813945770264,10.338134765625 30,8.3203125 29.2822265625,5.947265625 28.4436016082764,5.26611328125 27.36328125,5.0390625z M28.18359375,0L31.190185546875,0.556642055511475 33.5888671875,2.2265625 35.159912109375,4.7314453125 35.68359375,7.79296875 34.951171875,11.88720703125 32.75390625,15.263671875 31.1444072723389,16.5838623046875 29.2456035614014,17.52685546875 27.0574932098389,18.0926513671875 24.580078125,18.28125 22.25830078125,17.8857421875 19.86328125,16.69921875 17.607421875,14.853515625 15.703125,12.48046875 13.9727783203125,14.091796875 12.73681640625,15.46875 11.9952392578125,16.611328125 11.748046875,17.51953125 12.4658203125,18.427734375 13.604736328125,19.05029296875 15.5859375,19.98046875 18.109130859375,21.229248046875 19.8193359375,22.4560546875 20.797119140625,23.763427734375 21.123046875,25.25390625 20.7394409179688,26.7068481445313 19.588623046875,28.194580078125 17.6705932617188,29.7171020507813 14.9853515625,31.2744140625 12.0053100585938,32.6522827148438 9.202880859375,33.636474609375 6.57806396484375,34.2269897460938 4.130859375,34.423828125 2.3876953125,34.24072265625 1.08398449420929,33.69140625 0.27099609375,32.81982421875 0,31.669921875 0.254516631364822,30.54931640625 1.01806640625,29.70703125 2.2906494140625,29.14306640625 4.072265625,28.857421875 7.349853515625,28.406982421875 10.5615234375,27.5244140625 11.9522094726563,26.9961547851563 12.945556640625,26.510009765625 13.5415649414063,26.0659790039063 13.740234375,25.6640625 13.2568359375,25.0048828125 12.520751953125,24.642333984375 11.279296875,24.111328125 8.177490234375,22.672119140625 6.3720703125,21.4013671875 5.504150390625,20.013427734375 5.21484375,18.22265625 5.72662353515625,16.0821533203125 7.261962890625,13.52783203125 9.82086181640625,10.5596923828125 13.4033203125,7.177734375 17.3977661132813,4.03747653961182 21.192626953125,1.79443502426147 24.7879028320313,0.448609471321106 28.18359375,0z" />
    </g>
  </g>
</svg>