<?xml version="1.0" encoding="utf-8"?>
<!DOCTYPE svg PUBLIC "-//W3C//DTD SVG 1.1//EN" "http://www.w3.org/Graphics/SVG/1.1/DTD/svg11.dtd">
<svg width="44.208984375" height="29.501953125" xmlns="http://www.w3.org/2000/svg" xmlns:xlink="http://www.w3.org/1999/xlink" xmlns:xml="http://www.w3.org/XML/1998/namespace" version="1.1">
  <g>
    <g>
      <path style="fill:#FF0000;fill-opacity:1" d="M23.02734375,0L24.697265625,0.285645961761475 26.07421875,1.142578125 26.9970703125,2.4609375 27.3046875,4.130859375 31.63330078125,3.0908203125 36.357421875,1.142578125 38.43017578125,0.285645961761475 39.90234375,0 41.685791015625,0.549317836761475 43.0517578125,2.197265625 43.919677734375,4.65087890625 44.208984375,7.6171875 43.582763671875,12.835693359375 41.7041015625,17.7685546875 40.4196166992188,19.8641967773438 39.071044921875,21.361083984375 37.6583862304688,22.2592163085938 36.181640625,22.55859375 33.9990234375,21.9140625 33.372802734375,21.181640625 33.1640625,20.2734375 33.7353515625,18.52294921875 35.44921875,16.494140625 36.81884765625,14.81689453125 37.939453125,12.5390625 38.6865234375,10.0341796875 38.935546875,7.67578125 38.525390625,5.33203125 32.8271484375,7.75634765625 26.396484375,9.404296875 21.58447265625,16.04736328125 16.171875,21.4453125 13.494873046875,23.6370849609375 11.1767578125,25.43701171875 9.217529296875,26.8450927734375 7.6171875,27.861328125 5.009765625,29.091796875 2.87109375,29.501953125 0.791015625,28.828125 0.197754085063934,28.04443359375 0,27.041015625 0.747070550918579,25.224609375 2.98828148841858,23.759765625 7.8369140625,21.1669921875 12.65625,17.607421875 17.17529296875,13.22021484375 21.123046875,8.14453125 19.27734375,6.45263671875 18.662109375,4.189453125 18.973388671875,2.603759765625 19.9072265625,1.2451171875 21.309814453125,0.311280727386475 23.02734375,0z" />
    </g>
  </g>
</svg>