<?xml version="1.0" encoding="utf-8"?>
<!DOCTYPE svg PUBLIC "-//W3C//DTD SVG 1.1//EN" "http://www.w3.org/Graphics/SVG/1.1/DTD/svg11.dtd">
<svg width="43.857421875" height="39.7265625" xmlns="http://www.w3.org/2000/svg" xmlns:xlink="http://www.w3.org/1999/xlink" xmlns:xml="http://www.w3.org/XML/1998/namespace" version="1.1">
  <g>
    <g>
      <path style="fill:#FF0000;fill-opacity:1" d="M41.455078125,0L43.18359375,0.673828125 43.857421875,2.34375 43.487548828125,3.48266744613647 42.3779296875,4.4970703125 40.579833984375,5.47485494613647 38.14453125,6.50390625 40.279541015625,7.386474609375 41.9384765625,8.8037109375 43.004150390625,10.594482421875 43.359375,12.59765625 43.157958984375,14.4863891601563 42.5537109375,16.197509765625 41.546630859375,17.7310180664063 40.13671875,19.0869140625 36.56982421875,20.987548828125 32.314453125,21.62109375 28.125,21.123046875 25.7373046875,24.0371704101563 22.91015625,27.037353515625 19.6435546875,30.1235961914063 15.9375,33.2958984375 12.1728515625,36.1093139648438 8.73046875,38.118896484375 5.6103515625,39.3246459960938 2.81249952316284,39.7265625 0.761718273162842,39.08203125 0.190429985523224,38.3349609375 0,37.3828125 0.216064870357513,36.353759765625 0.864258289337158,35.5517578125 2.025146484375,34.888916015625 3.779296875,34.27734375 8.4814453125,32.26318359375 13.505859375,29.033203125 18.46435546875,24.80712890625 22.96875,19.8046875 21.93603515625,18.7939453125 21.591796875,17.40234375 21.895751953125,16.072998046875 22.8076171875,15.0732421875 24.129638671875,14.447021484375 25.6640625,14.23828125 28.1103515625,14.912109375 28.992919921875,15.615234375 29.443359375,16.376953125 32.51953125,16.7578125 34.72412109375,16.5032958984375 36.298828125,15.73974609375 37.24365234375,14.4671630859375 37.55859375,12.685546875 37.2015380859375,11.282958984375 36.13037109375,10.1220703125 34.3450927734375,9.202880859375 31.845703125,8.525390625 30.2197265625,7.763671875 29.677734375,6.240234375 30.29296875,4.57031393051147 32.138671875,3.720703125 33.438720703125,3.36914205551147 35.2880859375,2.666015625 37.181396484375,1.81640768051147 38.61328125,1.025390625 40.14404296875,0.256349086761475 41.455078125,0z" />
    </g>
  </g>
</svg>