<?xml version="1.0" encoding="utf-8"?>
<!DOCTYPE svg PUBLIC "-//W3C//DTD SVG 1.1//EN" "http://www.w3.org/Graphics/SVG/1.1/DTD/svg11.dtd">
<svg width="22.32421875" height="30.52734375" xmlns="http://www.w3.org/2000/svg" xmlns:xlink="http://www.w3.org/1999/xlink" xmlns:xml="http://www.w3.org/XML/1998/namespace" version="1.1">
  <g>
    <g>
      <path style="fill:#FF0000;fill-opacity:1" d="M19.921875,0L20.789794921875,0.205079555511475 21.5771484375,0.8203125 22.32421875,2.578125 21.903076171875,3.717041015625 20.6396484375,4.7900390625 19.5346069335938,5.40985107421875 17.904052734375,6.229248046875 15.7479858398438,7.24822998046875 13.06640625,8.466796875 16.5673828125,9.49951171875 18.984375,10.546875 20.390625,11.79931640625 20.859375,13.447265625 20.6277465820313,14.5504760742188 19.932861328125,15.633544921875 18.7747192382813,16.6964721679688 17.1533203125,17.7392578125 15.0924673080444,18.8186645507813 12.6159658432007,19.991455078125 9.72381496429443,21.2576293945313 6.416015625,22.6171875 6.78131103515625,23.023681640625 7.584228515625,23.4228515625 8.82476806640625,23.814697265625 10.5029296875,24.19921875 18.837890625,25.1953125 20.401611328125,25.4296875 21.4013671875,25.95703125 21.939697265625,26.8212890625 22.119140625,28.06640625 21.90673828125,29.14306640625 21.26953125,29.912109375 20.20751953125,30.37353515625 18.720703125,30.52734375 12.1325674057007,29.945068359375 5.9619140625,28.1982421875 3.35357666015625,27.0016479492188 1.490478515625,25.740966796875 0.372619599103928,24.4161987304688 0,23.02734375 0.329589813947678,21.5185546875 1.318359375,20.15625 2.96630859375,18.9404296875 5.2734375,17.87109375 9.027099609375,16.387939453125 11.7333984375,15.1025390625 13.3703603744507,14.095458984375 13.916015625,13.447265625 13.5296621322632,13.08837890625 12.3706045150757,12.59765625 10.4388418197632,11.97509765625 7.734375,11.220703125 6.3134765625,10.3564453125 5.7421875,8.876953125 6.416015625,6.9580078125 7.734375,5.855712890625 10.341796875,4.3359375 16.083984375,1.318359375 18.25927734375,0.329591274261475 19.921875,0z" />
    </g>
  </g>
</svg>