<?xml version="1.0" encoding="utf-8"?>
<!DOCTYPE svg PUBLIC "-//W3C//DTD SVG 1.1//EN" "http://www.w3.org/Graphics/SVG/1.1/DTD/svg11.dtd">
<svg width="54.7558593750019" height="67.353515625" xmlns="http://www.w3.org/2000/svg" xmlns:xlink="http://www.w3.org/1999/xlink" xmlns:xml="http://www.w3.org/XML/1998/namespace" version="1.1">
  <g>
    <g>
      <path style="fill:#FF0000;fill-opacity:1" d="M18.28125,42.099609375L15.465087890625,42.374267578125 12.8173828125,43.1982421875 10.4150390625,44.498291015625 8.3349609375,46.201171875 6.62109279632568,48.270263671875 5.31738233566284,50.6689453125 4.49340772628784,53.316650390625 4.21874952316284,56.1328125 4.21874952316284,63.134765625 50.537109375,63.134765625 50.537109375,56.1328125 50.2624473571777,53.316650390625 49.4384765625,50.6689453125 48.1347618103027,48.270263671875 46.4208984375,46.201171875 44.3408164978027,44.498291015625 41.9384765625,43.1982421875 39.290771484375,42.374267578125 36.474609375,42.099609375 31.7578125,42.099609375 33.134765625,42.744140625 33.69140625,44.1796875 33.45703125,45.1171875 29.23828125,53.5546875 28.4619140625,54.404296875 27.36328125,54.7265625 26.2646484375,54.404296875 25.48828125,53.5546875 21.298828125,45.1171875 21.064453125,44.1796875 21.6064453125,42.744140625 22.998046875,42.099609375 18.28125,42.099609375z M27.36328125,31.552734375L28.857421875,32.16796875 29.47265625,33.662109375 28.857421875,35.15625 27.36328125,35.771484375 25.8837890625,35.1416015625 25.25390625,33.662109375 25.8837890625,32.1826171875 27.36328125,31.552734375z M25.25390625,27.333984375L29.47265625,27.333984375 28.857421875,28.828125 27.36328125,29.443359375 25.8837890625,28.8134765625 25.25390625,27.333984375z M33.69140625,21.03515625L35.185546875,21.650390625 35.80078125,23.14453125 35.80078125,25.25390625 35.1708984375,26.71875 33.69140625,27.333984375 32.2119140625,26.71875 31.58203125,25.25390625 31.58203125,23.14453125 32.197265625,21.650390625 33.69140625,21.03515625z M21.064453125,21.03515625L22.5439453125,21.6650390625 23.173828125,23.14453125 23.173828125,25.25390625 22.5439453125,26.71875 21.064453125,27.333984375 19.5849609375,26.71875 18.955078125,25.25390625 18.955078125,23.14453125 19.5703125,21.650390625 21.064453125,21.03515625z M29.47265625,12.59765625L29.47265625,18.92578125 27.0703125,18.6767578125 24.638671875,17.9150390625 22.5,16.6259765625 20.9765625,14.765625 19.7497539520264,17.373046875 17.8857421875,19.3359375 15.479736328125,20.5810546875 12.626953125,21.03515625 12.626953125,25.1953125 12.916259765625,28.1542987823486 13.7841796875,30.9375 15.150146484375,33.460693359375 16.93359375,35.6396484375 19.1015605926514,37.437744140625 21.62109375,38.818359375 24.404296875,39.697265625 27.36328125,39.990234375 30.318603515625,39.697265625 33.0908203125,38.818359375 35.60302734375,37.437744140625 37.7783203125,35.6396484375 39.57275390625,33.460693359375 40.9423828125,30.9375 41.8102989196777,28.1542987823486 42.099609375,25.1953125 42.099609375,21.03515625 38.232421875,20.3759765625 34.658203125,18.57421875 31.640625,15.8935546875 29.47265625,12.59765625z M27.392578125,0L30.52734375,0.205081015825272 33.544921875,0.820312738418579 39.08203125,3.14941382408142 43.76953125,6.7822265625 47.3876953125,11.4697265625 49.7314453125,16.9921875 50.3576622009277,20.009765625 50.56640625,23.14453125 50.56640625,44.501953125 52.3535118103027,47.113037109375 53.671875,49.9658203125 54.4848594665527,52.994384765625 54.755859375,56.1328125 54.755859375,67.353515625 0,67.353515625 0,56.1328125 0.274657428264618,52.987060546875 1.09863233566284,49.9365234375 2.42797803878784,47.069091796875 4.21874952316284,44.47265625 4.21874952316284,23.14453125 4.42748975753784,20.009765625 5.05371046066284,16.9921875 7.39746046066284,11.4697265625 11.015625,6.7822265625 15.703125,3.14941382408142 21.240234375,0.820312738418579 24.2578125,0.205081015825272 27.392578125,0z" />
    </g>
  </g>
</svg>