<?xml version="1.0" encoding="utf-8"?>
<!DOCTYPE svg PUBLIC "-//W3C//DTD SVG 1.1//EN" "http://www.w3.org/Graphics/SVG/1.1/DTD/svg11.dtd">
<svg width="67.3828125000027" height="67.3828125" xmlns="http://www.w3.org/2000/svg" xmlns:xlink="http://www.w3.org/1999/xlink" xmlns:xml="http://www.w3.org/XML/1998/namespace" version="1.1">
  <g>
    <g>
      <path style="fill:#FF0000;fill-opacity:1" d="M33.69140625,48.427734375L36.09375,48.75 38.37890625,49.6728515625 40.341796875,51.1376953125 41.806640625,53.0859375 42.0263671875,53.61328125 42.099609375,54.169921875 41.484375,55.6494140625 40.01953125,56.279296875 39.0673828125,56.015625 38.3056640625,55.341796875 37.55859375,54.462890625 36.6650390625,53.583984375 35.4345703125,52.91015625 33.69140625,52.646484375 31.9482421875,52.91015625 30.7177734375,53.583984375 29.82421875,54.462890625 29.091796875,55.341796875 28.3447265625,56.015625 27.392578125,56.279296875 25.8837890625,55.6494140625 25.25390625,54.140625 25.3271484375,53.5986328125 25.546875,53.0859375 26.9970703125,51.1376953125 28.974609375,49.6728515625 31.2744140625,48.75 33.69140625,48.427734375z M14.736328125,35.80078125L18.369140625,42.158203125 19.27734375,43.6669921875 20.1416015625,45.1904296875 20.7861328125,46.8017578125 21.03515625,48.544921875 20.537109375,50.9765625 19.1748046875,52.9541015625 17.16796875,54.2724609375 14.736328125,54.755859375 12.275390625,54.287109375 10.2685546875,52.9833984375 8.90625,51.005859375 8.408203125,48.544921875 8.701171875,46.6552734375 9.4921875,44.94140625 14.736328125,35.80078125z M37.91015625,29.47265625L40.01953125,29.47265625 40.4296875,31.5380859375 41.54296875,33.2080078125 43.1982421875,34.3359375 45.263671875,34.74609375 47.314453125,34.3359375 48.9990234375,33.2080078125 50.126953125,31.5380859375 50.537109375,29.47265625 52.646484375,29.47265625 52.646484375,30.52734375 52.060546875,33.3984375 50.478515625,35.7421875 48.134765625,37.32421875 45.263671875,37.91015625 42.392578125,37.32421875 40.048828125,35.7421875 38.4814453125,33.3984375 37.91015625,30.52734375 37.91015625,29.47265625z M14.736328125,29.47265625L16.845703125,29.47265625 17.255859375,31.5380859375 18.3837890625,33.2080078125 20.0537109375,34.3359375 22.119140625,34.74609375 24.169921875,34.3359375 25.83984375,33.2080078125 26.953125,31.5380859375 27.36328125,29.47265625 29.47265625,29.47265625 29.47265625,30.52734375 28.9013671875,33.3984375 27.333984375,35.7421875 24.990234375,37.32421875 22.119140625,37.91015625 19.248046875,37.32421875 16.904296875,35.7421875 15.322265625,33.3984375 14.736328125,30.52734375 14.736328125,29.47265625z M44.208984375,18.955078125L46.845703125,19.3798828125 49.599609375,20.478515625 52.1337890625,22.0166015625 54.140625,23.7890625 54.609375,24.462890625 54.755859375,25.283203125 54.1259765625,26.748046875 52.646484375,27.36328125 51.8408203125,27.2021484375 51.15234375,26.748046875 50.888671875,26.54296875 49.306640625,25.283203125 47.87109375,24.31640625 46.2744140625,23.6279296875 44.208984375,23.173828125 42.71484375,22.529296875 42.12890625,21.03515625 42.744140625,19.5703125 44.208984375,18.955078125z M23.173828125,18.955078125L24.638671875,19.5849609375 25.25390625,21.064453125 24.66796875,22.5439453125 23.173828125,23.173828125 21.064453125,23.6572265625 19.4091796875,24.3896484375 17.8857421875,25.400390625 16.23046875,26.748046875 15.5419921875,27.2021484375 14.736328125,27.36328125 13.2568359375,26.748046875 12.626953125,25.283203125 12.7734375,24.462890625 13.2421875,23.7890625 15.2490234375,22.0166015625 17.783203125,20.4638671875 20.5224609375,19.365234375 23.173828125,18.955078125z M12.626953125,0L14.3408203125,0.263671875 15.9375,0.937500476837158 28.53515625,8.4375 38.84765625,8.4375 51.591796875,0.849609136581421 53.1298828125,0.219726324081421 54.755859375,0 57.216796875,0.498046875 59.208984375,1.86035132408142 60.556640625,3.86718726158142 61.0546875,6.328125 61.0546875,29.47265625 62.109375,29.47265625 64.16015625,29.8828125 65.8447265625,31.0107421875 66.97265625,32.6953125 67.3828125,34.74609375 67.177734375,36.1083984375 66.650390625,37.3828125 59.208984375,51.4453125 57.7001953125,54.140625 55.927734375,56.689453125 51.357421875,61.23046875 46.0400390625,64.5849609375 40.107421875,66.6650390625 33.69140625,67.3828125 30.362548828125,67.1923828125 27.1142578125,66.62109375 20.9912109375,64.4091796875 15.52734375,60.8349609375 10.95703125,56.015625 12.79541015625,56.65283203125 14.736328125,56.865234375 16.8383769989014,56.60888671875 18.80859375,55.83984375 21.6943359375,59.2236328125 25.3564453125,61.494140625 29.53125,62.7685546875 33.955078125,63.1640625 37.188720703125,62.918701171875 40.2685546875,62.1826171875 43.0920372009277,60.977783203125 45.556640625,59.326171875 47.6074180603027,57.2314453125 49.189453125,54.697265625 50.2001914978027,51.7529296875 50.537109375,48.427734375 49.8779296875,45.146484375 48.076171875,42.48046875 45.3955078125,40.6787109375 42.099609375,40.01953125 40.01953125,40.01953125 35.185546875,45.703125 34.51171875,46.171875 33.69140625,46.318359375 32.87109375,46.171875 32.197265625,45.703125 27.36328125,40.01953125 25.25390625,40.01953125 23.9208984375,40.1220703125 22.7490234375,40.4150390625 21.62109375,40.8837890625 20.44921875,41.513671875 19.39453125,39.697265625 22.1923828125,38.37890625 25.25390625,37.91015625 42.099609375,37.91015625 44.2053184509277,38.118896484375 46.1865234375,38.7451171875 49.541015625,41.0009765625 51.8115234375,44.3408203125 52.4377403259277,46.322021484375 52.646484375,48.427734375 52.236328125,52.265625 50.947265625,55.927734375 53.4228515625,52.8662109375 55.458984375,49.482421875 62.98828125,35.302734375 63.1201171875,35.0390625 63.1640625,34.74609375 62.8564453125,33.9990234375 62.109375,33.69140625 56.865234375,33.69140625 56.865234375,20.625 46.875,14.58984375 46.4794921875,14.2236328125 46.318359375,13.681640625 46.4501953125,13.154296875 46.875,12.7734375 56.865234375,6.767578125 56.3818359375,4.98046827316284 55.7336387634277,4.40918254852295 54.755859375,4.21874952316284 54.1552734375,4.33593797683716 53.583984375,4.57031297683716 40.01953125,12.626953125 40.01953125,23.173828125 39.3896484375,24.6533203125 37.91015625,25.283203125 36.4306640625,24.6533203125 35.80078125,23.173828125 35.80078125,12.626953125 31.58203125,12.626953125 31.58203125,23.173828125 30.9521484375,24.6533203125 29.47265625,25.283203125 27.9931640625,24.6533203125 27.36328125,23.173828125 27.36328125,12.626953125 13.76953125,4.57031297683716 13.2275390625,4.32128953933716 12.626953125,4.21874952316284 11.630859375,4.40918254852295 10.986328125,4.98046827316284 10.517578125,6.767578125 20.5078125,12.7734375 20.9326171875,13.154296875 21.064453125,13.681640625 20.9033203125,14.2236328125 20.5078125,14.58984375 10.517578125,20.625 10.517578125,33.69140625 5.2734375,33.69140625 4.5263671875,33.9990234375 4.21875,34.74609375 4.482421875,35.5078125 5.1416015625,36.884765625 6.03515625,38.5986328125 6.9873046875,40.341796875 7.8076171875,41.8212890625 8.3203125,42.744140625 7.587890625,44.033203125 7.0166015625,45.2197265625 6.591796875,46.4794921875 6.328125,47.958984375 0.703125,37.32421875 0.190429210662842,36.0791015625 0,34.74609375 0.410156726837158,32.6953125 1.5380859375,31.0107421875 3.20800685882568,29.8828125 5.2734375,29.47265625 6.328125,29.47265625 6.328125,6.328125 6.826171875,3.86718726158142 8.173828125,1.86035132408142 10.166015625,0.498046875 12.626953125,0z" />
    </g>
  </g>
</svg>