<?xml version="1.0" encoding="utf-8"?>
<!DOCTYPE svg PUBLIC "-//W3C//DTD SVG 1.1//EN" "http://www.w3.org/Graphics/SVG/1.1/DTD/svg11.dtd">
<svg width="67.3828125000022" height="67.3828125" xmlns="http://www.w3.org/2000/svg" xmlns:xlink="http://www.w3.org/1999/xlink" xmlns:xml="http://www.w3.org/XML/1998/namespace" version="1.1">
  <g>
    <g>
      <path style="fill:#FF0000;fill-opacity:1" d="M33.69140625,51.591796875L31.900634765625,51.80419921875 30.2197265625,52.44140625 27.568359375,54.873046875 30.46875,56.337890625 33.69140625,56.865234375 36.9140625,56.337890625 39.814453125,54.873046875 37.1630859375,52.44140625 35.482177734375,51.80419921875 33.69140625,51.591796875z M16.904296875,47.63671875L17.4572734832764,50.80810546875 18.5888671875,53.759765625 20.2185039520264,56.4111328125 22.265625,58.681640625 24.68994140625,60.5419921875 27.451171875,61.962890625 30.47607421875,62.86376953125 33.69140625,63.1640625 36.888427734375,62.86376953125 39.9169921875,61.962890625 42.6928672790527,60.5419921875 45.1318359375,58.681640625 47.1899375915527,56.4111328125 48.8232421875,53.759765625 49.9475059509277,50.80810546875 50.478515625,47.63671875 52.412109375,49.27734375 51.064453125,53.8916015625 48.603515625,58.0078125 52.2216796875,54.5068359375 55.048828125,50.33203125 56.89453125,50.537109375 60,49.921875 59.1796875,51.4453125 57.6708984375,54.1552734375 55.8984375,56.689453125 51.3720703125,61.23046875 46.025390625,64.5849609375 40.0634765625,66.6650390625 33.69140625,67.3828125 27.3046875,66.6650390625 21.3134765625,64.5849609375 15.9521484375,61.2158203125 11.42578125,56.66015625 9.638671875,54.0673828125 8.115234375,51.328125 7.3828125,49.921875 10.517578125,50.537109375 12.333984375,50.33203125 15.1611328125,54.5068359375 18.779296875,58.0078125 16.3037109375,53.8916015625 14.970703125,49.27734375 16.904296875,47.63671875z M21.064453125,46.318359375L46.318359375,46.318359375 46.0693321228027,48.8525390625 45.322265625,51.240234375 42.6123046875,55.2685546875 38.5986328125,57.978515625 36.221923828125,58.7255859375 33.69140625,58.974609375 31.160888671875,58.7255859375 28.7841796875,57.978515625 24.7705078125,55.2685546875 22.060546875,51.240234375 21.3134746551514,48.8525390625 21.064453125,46.318359375z M25.25390625,33.69140625L42.099609375,33.69140625 45.4248046875,34.2333984375 48.427734375,35.80078125 48.427734375,38.642578125 46.58203125,37.0166015625 44.619140625,36.181640625 42.451171875,35.859375 40.01953125,35.80078125 35.185546875,41.513671875 34.51171875,41.9677734375 33.69140625,42.12890625 32.87109375,41.9677734375 32.197265625,41.513671875 27.36328125,35.80078125 25.25390625,35.80078125 21.796875,36.5478515625 18.955078125,38.642578125 18.955078125,35.80078125 21.9287109375,34.21875 25.25390625,33.69140625z M50.537109375,31.58203125L56.865234375,34.951171875 59.1943359375,36.1962890625 61.201171875,37.587890625 62.6220703125,39.4482421875 63.1640625,42.099609375 62.666015625,44.5751953125 61.318359375,46.58203125 59.3115234375,47.9296875 56.8359375,48.427734375 54.4921875,47.958984375 52.470703125,46.669921875 51.064453125,44.7509765625 50.537109375,42.392578125 50.537109375,31.58203125z M16.845703125,31.58203125L16.845703125,42.12890625 16.4794921875,44.23828125 15.46875,46.0546875 13.9306640625,47.4462890625 11.982421875,48.251953125 10.48828125,48.427734375 8.056640625,47.9296875 6.064453125,46.5673828125 4.71679592132568,44.560546875 4.21875,42.12890625 4.7607421875,39.4775390625 6.181640625,37.6171875 8.1884765625,36.2109375 10.517578125,34.951171875 16.845703125,31.58203125z M44.208984375,25.283203125L46.318359375,25.283203125 48.779296875,25.78125 50.7861328125,27.12890625 52.1484375,29.12109375 52.646484375,31.58203125 50.537109375,31.58203125 49.9072265625,30.1025390625 48.427734375,29.47265625 42.099609375,29.47265625 40.634765625,30.1025390625 40.01953125,31.58203125 37.91015625,31.58203125 38.408203125,29.12109375 39.755859375,27.12890625 41.748046875,25.78125 44.208984375,25.283203125z M21.064453125,25.283203125L23.173828125,25.283203125 25.634765625,25.78125 27.626953125,27.12890625 28.974609375,29.12109375 29.47265625,31.58203125 27.36328125,31.58203125 26.7333984375,30.1025390625 25.25390625,29.47265625 18.955078125,29.47265625 17.4755859375,30.1025390625 16.845703125,31.58203125 14.736328125,31.58203125 15.234375,29.12109375 16.5966796875,27.12890625 18.603515625,25.78125 21.064453125,25.283203125z M12.626953125,0L14.3408203125,0.2490234375 15.9375,0.937500476837158 28.53515625,8.4375 38.84765625,8.4375 51.591796875,0.849609136581421 53.115234375,0.219726324081421 54.755859375,0 57.216796875,0.498046875 59.208984375,1.86035132408142 60.556640625,3.86718726158142 61.0546875,6.328125 61.0546875,29.47265625 62.109375,29.47265625 64.16015625,29.8828125 65.8447265625,31.0107421875 66.97265625,32.6953125 67.3828125,34.74609375 67.1484375,36.240234375 66.5625,37.67578125 65.8154296875,39.052734375 65.09765625,40.341796875 63.896484375,37.470703125 62.0361328125,35.4931640625 59.6337890625,33.9990234375 56.865234375,32.578125 56.865234375,20.625 46.875,14.58984375 46.4501953125,14.208984375 46.318359375,13.681640625 46.46484375,13.154296875 46.875,12.7734375 56.865234375,6.767578125 56.865234375,6.328125 56.2353515625,4.84863233566284 54.755859375,4.21874952316284 54.1552734375,4.33593797683716 53.583984375,4.57031297683716 40.01953125,12.626953125 40.01953125,21.064453125 39.3896484375,22.5439453125 37.91015625,23.173828125 36.416015625,22.55859375 35.80078125,21.064453125 35.80078125,12.626953125 31.58203125,12.626953125 31.58203125,21.064453125 30.966796875,22.55859375 29.47265625,23.173828125 27.9931640625,22.5439453125 27.36328125,21.064453125 27.36328125,12.626953125 13.76953125,4.57031297683716 13.1982421875,4.33593797683716 12.626953125,4.21874952316284 11.649169921875,4.41284465789795 11.0009765625,4.9951171875 10.517578125,6.767578125 20.5078125,12.7734375 20.91796875,13.154296875 21.064453125,13.681640625 20.9326171875,14.208984375 20.5078125,14.58984375 10.517578125,20.625 10.517578125,32.578125 7.763671875,33.9990234375 5.3466796875,35.4931640625 3.45703220367432,37.470703125 2.28515625,40.341796875 1.5673828125,39.052734375 0.8203125,37.6611328125 0.234375,36.2109375 0,34.74609375 0.410156726837158,32.6953125 1.5380859375,31.0107421875 3.20800685882568,29.8828125 5.2734375,29.47265625 6.328125,29.47265625 6.328125,6.328125 6.826171875,3.86718726158142 8.173828125,1.86035132408142 10.166015625,0.498046875 12.626953125,0z" />
    </g>
  </g>
</svg>