<?xml version="1.0" encoding="utf-8"?>
<!DOCTYPE svg PUBLIC "-//W3C//DTD SVG 1.1//EN" "http://www.w3.org/Graphics/SVG/1.1/DTD/svg11.dtd">
<svg width="67.3828125000004" height="67.3828125" xmlns="http://www.w3.org/2000/svg" xmlns:xlink="http://www.w3.org/1999/xlink" xmlns:xml="http://www.w3.org/XML/1998/namespace" version="1.1">
  <g>
    <g>
      <path style="fill:#FF0000;fill-opacity:1" d="M33.6328125,44.208984375L36.7236328125,44.53125 39.6826171875,45.4833984375 42.3779296875,47.0361328125 44.677734375,49.130859375 45.234375,50.5078125 45.05859375,51.328125 44.58984375,52.001953125 43.916015625,52.470703125 43.125,52.646484375 42.24609375,52.4560546875 41.54296875,51.943359375 37.9833984375,49.3505859375 35.980224609375,48.658447265625 33.69140625,48.427734375 30.205078125,49.013671875 27.12890625,50.712890625 26.3525390625,48.69140625 25.3125,46.81640625 29.2822265625,44.8681640625 33.6328125,44.208984375z M18.955078125,40.01953125L23.642578125,48.1640625 24.287109375,49.27734375 24.7998046875,50.33203125 25.13671875,51.4306640625 25.25390625,52.705078125 24.755859375,55.166015625 23.408203125,57.158203125 21.416015625,58.4912109375 18.984375,58.974609375 16.494140625,58.505859375 14.47265625,57.2021484375 13.125,55.2392578125 12.626953125,52.763671875 12.8759765625,50.9619140625 13.59375,49.306640625 18.955078125,40.01953125z M45.263671875,29.47265625L46.494140625,29.7216796875 47.5048828125,30.3955078125 48.1787109375,31.40625 48.427734375,32.63671875 48.427734375,36.85546875 48.1787109375,38.0712890625 47.490234375,39.08203125 46.4794921875,39.7705078125 45.263671875,40.01953125 44.0478515625,39.7705078125 43.037109375,39.08203125 42.3486328125,38.0712890625 42.099609375,36.85546875 42.099609375,32.63671875 42.3486328125,31.4208984375 43.037109375,30.41015625 44.0478515625,29.7216796875 45.263671875,29.47265625z M22.119140625,29.47265625L23.349609375,29.7216796875 24.345703125,30.41015625 25.0048828125,31.4208984375 25.25390625,32.63671875 25.25390625,36.85546875 25.0048828125,38.0712890625 24.3310546875,39.08203125 23.3349609375,39.7705078125 22.119140625,40.01953125 20.9033203125,39.7705078125 19.892578125,39.08203125 19.2041015625,38.0712890625 18.955078125,36.85546875 18.955078125,32.63671875 19.2041015625,31.40625 19.8779296875,30.3955078125 20.8740234375,29.7216796875 22.119140625,29.47265625z M40.01953125,18.955078125L43.974609375,19.3798828125 47.8271484375,20.625 51.3134765625,22.646484375 54.228515625,25.37109375 54.755859375,26.748046875 54.580078125,27.568359375 54.111328125,28.2421875 53.4375,28.7109375 52.646484375,28.88671875 51.767578125,28.6962890625 51.064453125,28.154296875 48.6584434509277,26.0485858917236 46.0693359375,24.4775390625 43.2165489196777,23.4997577667236 40.01953125,23.173828125 38.5400390625,22.5439453125 37.91015625,21.064453125 38.525390625,19.5703125 40.01953125,18.955078125z M27.36328125,18.955078125L28.857421875,19.5703125 29.47265625,21.064453125 28.8427734375,22.5439453125 27.36328125,23.173828125 24.166259765625,23.4997577667236 21.3134765625,24.4775390625 18.7243633270264,26.0485858917236 16.318359375,28.154296875 15.615234375,28.6962890625 14.736328125,28.88671875 13.9453125,28.7109375 13.271484375,28.2421875 12.802734375,27.568359375 12.626953125,26.748046875 13.154296875,25.37109375 16.0546875,22.646484375 19.5556640625,20.625 23.3935546875,19.3798828125 27.36328125,18.955078125z M33.69140625,4.21874952316284L29.696044921875,4.48242473602295 25.8544921875,5.2734375 22.2106914520264,6.54419231414795 18.80859375,8.2470703125 15.677490234375,10.3564453125 12.8466796875,12.8466796875 10.3564453125,15.677490234375 8.2470703125,18.80859375 6.54418849945068,22.210693359375 5.2734375,25.8544921875 4.482421875,29.6960468292236 4.21875,33.69140625 4.62158203125,38.63525390625 5.830078125,43.388671875 7.82226467132568,47.86376953125 10.576171875,51.97265625 10.5322265625,52.412109375 10.517578125,52.8515625 11.19140625,56.0888671875 13.037109375,58.7109375 15.732421875,60.4541015625 18.984375,61.083984375 21.708984375,60.64453125 27.568359375,62.548828125 33.69140625,63.1640625 37.686767578125,62.900390625 41.5283203125,62.109375 45.1721153259277,60.838623046875 48.57421875,59.1357421875 51.7053184509277,57.0263671875 54.5361328125,54.5361328125 57.0263671875,51.705322265625 59.1357421875,48.57421875 60.838623046875,45.172119140625 62.109375,41.5283203125 62.900390625,37.686767578125 63.1640625,33.69140625 62.900390625,29.6960468292236 62.109375,25.8544921875 60.838623046875,22.210693359375 59.1357421875,18.80859375 57.0263671875,15.677490234375 54.5361328125,12.8466796875 51.7053184509277,10.3564453125 48.57421875,8.2470703125 45.1721153259277,6.54419231414795 41.5283203125,5.2734375 37.686767578125,4.48242473602295 33.69140625,4.21874952316284z M33.69140625,0L38.23974609375,0.300295770168304 42.626953125,1.20117139816284 46.7944297790527,2.65137004852295 50.68359375,4.59960889816284 54.2651329040527,7.0166015625 57.509765625,9.873046875 60.3662109375,13.11767578125 62.783203125,16.69921875 64.7314453125,20.58837890625 66.181640625,24.755859375 67.08251953125,29.1430683135986 67.3828125,33.69140625 67.08251953125,38.258056640625 66.181640625,42.6416015625 64.7314453125,46.798095703125 62.783203125,50.68359375 60.3662109375,54.26513671875 57.509765625,57.509765625 54.2651329040527,60.3662109375 50.68359375,62.783203125 46.7944297790527,64.7314453125 42.626953125,66.181640625 38.23974609375,67.08251953125 33.69140625,67.3828125 29.124755859375,67.08251953125 24.7412109375,66.181640625 20.5847148895264,64.7314453125 16.69921875,62.783203125 13.11767578125,60.3662109375 9.873046875,57.509765625 7.01660060882568,54.26513671875 4.599609375,50.68359375 2.6513671875,46.79443359375 1.201171875,42.626953125 0.300292611122131,38.23974609375 0,33.69140625 0.300292611122131,29.1430683135986 1.201171875,24.755859375 2.6513671875,20.58837890625 4.599609375,16.69921875 7.01660060882568,13.11767578125 9.873046875,9.873046875 13.11767578125,7.0166015625 16.69921875,4.59960889816284 20.5847148895264,2.65137004852295 24.7412109375,1.20117139816284 29.124755859375,0.300295770168304 33.69140625,0z" />
    </g>
  </g>
</svg>