<?xml version="1.0" encoding="utf-8"?>
<!DOCTYPE svg PUBLIC "-//W3C//DTD SVG 1.1//EN" "http://www.w3.org/Graphics/SVG/1.1/DTD/svg11.dtd">
<svg width="67.382812500001" height="67.3828125" xmlns="http://www.w3.org/2000/svg" xmlns:xlink="http://www.w3.org/1999/xlink" xmlns:xml="http://www.w3.org/XML/1998/namespace" version="1.1">
  <g>
    <g>
      <path style="fill:#FF0000;fill-opacity:1" d="M33.69140625,52.646484375L32.332763671875,52.862548828125 31.1279296875,53.5107421875 29.619140625,55.78125 31.58203125,56.6015625 33.69140625,56.865234375 35.80078125,56.6015625 37.763671875,55.78125 36.2548828125,53.5107421875 35.050048828125,52.862548828125 33.69140625,52.646484375z M23.173828125,48.427734375L44.208984375,48.427734375 44.0002403259277,50.533447265625 43.3740234375,52.5146484375 41.1181640625,55.869140625 37.7783203125,58.1396484375 35.797119140625,58.765869140625 33.69140625,58.974609375 31.585693359375,58.765869140625 29.6044921875,58.1396484375 26.2646484375,55.869140625 24.0087890625,52.5146484375 23.3825664520264,50.533447265625 23.173828125,48.427734375z M37.91015625,37.91015625L39.3896484375,38.5400390625 40.01953125,40.01953125 39.3896484375,41.4990234375 37.91015625,42.12890625 36.4306640625,41.4990234375 35.80078125,40.01953125 36.416015625,38.525390625 37.91015625,37.91015625z M29.47265625,37.91015625L30.966796875,38.525390625 31.58203125,40.01953125 30.9521484375,41.4990234375 29.47265625,42.12890625 27.9931640625,41.4990234375 27.36328125,40.01953125 27.978515625,38.525390625 29.47265625,37.91015625z M43.154296875,25.283203125L44.3701171875,25.5322265625 45.380859375,26.19140625 46.0693359375,27.1875 46.318359375,28.41796875 46.318359375,32.63671875 46.0693359375,33.8818359375 45.3955078125,34.8779296875 44.384765625,35.5517578125 43.154296875,35.80078125 41.9091796875,35.5517578125 40.927734375,34.86328125 40.2685546875,33.8525390625 40.01953125,32.63671875 40.01953125,28.41796875 40.2685546875,27.2021484375 40.9423828125,26.2060546875 41.9384765625,25.5322265625 43.154296875,25.283203125z M24.228515625,25.283203125L25.4443359375,25.5322265625 26.4404296875,26.2060546875 27.1142578125,27.2021484375 27.36328125,28.41796875 27.36328125,32.63671875 27.1142578125,33.8525390625 26.455078125,34.86328125 25.458984375,35.5517578125 24.228515625,35.80078125 22.9833984375,35.5517578125 21.9873046875,34.8779296875 21.3134765625,33.8818359375 21.064453125,32.63671875 21.064453125,28.41796875 21.3134765625,27.1875 22.001953125,26.19140625 23.0126953125,25.5322265625 24.228515625,25.283203125z M24.228515625,21.064453125L20.537109375,21.8115234375 17.51953125,23.84765625 15.4833984375,26.8505859375 14.736328125,30.52734375 15.29296875,33.7060546875 16.7578125,36.2841796875 18.7939453125,38.5400390625 21.064453125,40.751953125 21.064453125,57.041015625 23.818359375,59.619140625 26.7041015625,61.552734375 29.9267578125,62.75390625 33.69140625,63.1640625 37.4560546875,62.75390625 40.6787109375,61.552734375 43.564453125,59.619140625 46.318359375,57.041015625 46.318359375,40.751953125 48.5888671875,38.5400390625 50.625,36.2841796875 52.08984375,33.7060546875 52.646484375,30.52734375 51.8994140625,26.8505859375 49.86328125,23.84765625 46.845703125,21.8115234375 43.154296875,21.064453125 40.1953125,21.5185546875 37.822265625,22.7490234375 35.7568359375,24.521484375 33.69140625,26.6015625 31.611328125,24.5361328125 29.53125,22.763671875 27.1728515625,21.533203125 24.228515625,21.064453125z M60,16.845703125L58.7548828125,17.0947265625 57.7734375,17.783203125 57.1142578125,18.7939453125 56.865234375,20.009765625 56.865234375,33.22265625 55.3125,35.3466796875 54.755859375,37.91015625 54.755859375,44.208984375 63.1640625,44.208984375 63.1640625,20.009765625 62.9150390625,18.779296875 62.2412109375,17.7685546875 61.23046875,17.0947265625 60,16.845703125z M7.3828125,16.845703125L6.1376953125,17.0947265625 5.1416015625,17.7685546875 4.4677734375,18.779296875 4.21875,20.009765625 4.21875,44.208984375 12.626953125,44.208984375 12.626953125,37.91015625 12.0703125,35.3466796875 10.517578125,33.22265625 10.517578125,20.009765625 10.2685546875,18.7939453125 9.609375,17.783203125 8.61328125,17.0947265625 7.3828125,16.845703125z M33.69140625,0L37.24365234375,0.230715781450272 40.693359375,0.922851800918579 44.0002403259277,2.04345989227295 47.1240234375,3.55957055091858 52.705078125,7.71972703933716 57.12890625,13.2421875 60,12.626953125 62.87109375,13.212890625 65.21484375,14.794921875 66.796875,17.138671875 67.3828125,20.009765625 67.3828125,61.0546875 66.884765625,63.515625 65.5224609375,65.5224609375 63.515625,66.884765625 61.0546875,67.3828125 52.646484375,67.3828125 50.6103515625,67.03125 48.80859375,66.064453125 47.40234375,64.5849609375 46.552734375,62.6953125 43.6852989196777,64.70947265625 40.5322265625,66.181640625 37.174072265625,67.08251953125 33.69140625,67.3828125 30.208740234375,67.086181640625 26.8505859375,66.1962890625 23.697509765625,64.735107421875 20.830078125,62.724609375 19.951171875,64.599609375 18.5595703125,66.064453125 16.7724609375,67.03125 14.736328125,67.3828125 6.328125,67.3828125 3.8671875,66.884765625 1.8603515625,65.5224609375 0.498046875,63.515625 0,61.0546875 0,20.009765625 0.5859375,17.138671875 2.16796875,14.794921875 4.51171875,13.212890625 7.3828125,12.626953125 10.25390625,13.2421875 14.677734375,7.71972703933716 20.2587890625,3.55957055091858 23.3825664520264,2.04345989227295 26.689453125,0.922851800918579 30.13916015625,0.230715781450272 33.69140625,0z" />
    </g>
  </g>
</svg>