<?xml version="1.0" encoding="utf-8"?>
<!DOCTYPE svg PUBLIC "-//W3C//DTD SVG 1.1//EN" "http://www.w3.org/Graphics/SVG/1.1/DTD/svg11.dtd">
<svg width="67.3535156250023" height="67.3828125" xmlns="http://www.w3.org/2000/svg" xmlns:xlink="http://www.w3.org/1999/xlink" xmlns:xml="http://www.w3.org/XML/1998/namespace" version="1.1">
  <g>
    <g>
      <path style="fill:#FF0000;fill-opacity:1" d="M29.47265625,33.69140625L37.91015625,33.69140625 37.5732421875,35.3466796875 36.6650390625,36.6943359375 35.33203125,37.587890625 33.69140625,37.91015625 32.05078125,37.5732421875 30.7177734375,36.6650390625 29.8095703125,35.33203125 29.47265625,33.69140625z M31.611328125,29.47265625L35.80078125,29.47265625 35.185546875,30.966796875 33.69140625,31.58203125 32.2265625,30.9521484375 31.611328125,29.47265625z M40.01953125,23.173828125L41.513671875,23.7890625 42.12890625,25.283203125 42.12890625,27.36328125 41.513671875,28.857421875 40.01953125,29.47265625 38.525390625,28.857421875 37.91015625,27.36328125 37.91015625,25.283203125 38.525390625,23.7890625 40.01953125,23.173828125z M27.392578125,23.173828125L28.8720703125,23.8037109375 29.501953125,25.283203125 29.501953125,27.36328125 28.8720703125,28.8427734375 27.392578125,29.47265625 25.8984375,28.857421875 25.283203125,27.36328125 25.283203125,25.283203125 25.8984375,23.7890625 27.392578125,23.173828125z M35.80078125,14.736328125L35.80078125,21.064453125 33.2666015625,20.8740234375 30.908203125,20.21484375 28.88671875,18.92578125 27.36328125,16.875 26.0888671875,19.365234375 24.140625,21.3427734375 21.708984375,22.6611328125 18.955078125,23.14453125 18.955078125,27.333984375 19.2443828582764,30.2929706573486 20.1123046875,33.076171875 21.4782695770264,35.599365234375 23.26171875,37.7783203125 25.4296875,39.576416015625 27.94921875,40.95703125 30.732421875,41.8359375 33.69140625,42.12890625 36.650390625,41.8359375 39.43359375,40.95703125 41.9567832946777,39.576416015625 44.1357421875,37.7783203125 45.9301719665527,35.599365234375 47.2998046875,33.076171875 48.1677207946777,30.2929706573486 48.45703125,27.333984375 48.45703125,23.173828125 44.6044921875,22.5 41.0009765625,20.68359375 37.96875,18.0029296875 35.80078125,14.736328125z M13.740234375,12.65625L4.716796875,29.4140625 4.3505859375,30.46875 4.248046875,31.552734375 4.541015625,33.251953125 14.765625,63.1640625 52.646484375,63.1640625 62.87109375,33.251953125 63.1640625,31.552734375 63.0615234375,30.46875 62.6953125,29.4140625 53.671875,12.65625 45.205078125,12.65625 46.4501953125,15.1025390625 48.046875,18.3251953125 49.7314453125,21.943359375 51.240234375,25.5615234375 52.3388671875,28.7841796875 52.763671875,31.23046875 52.5,32.6953125 51.85546875,34.5703125 51.09375,36.4453125 50.44921875,37.91015625 49.0576171875,40.4443359375 47.2705078125,42.4365234375 45,43.740234375 42.12890625,44.208984375 38.0859375,44.208984375 39.4482421875,44.8974609375 40.01953125,46.318359375 39.7412109375,47.2705078125 39.0234375,48.8818359375 38.056640625,50.859375 37.03125,52.8662109375 36.1376953125,54.580078125 35.56640625,55.6640625 34.8046875,56.54296875 33.69140625,56.865234375 32.5927734375,56.54296875 31.81640625,55.693359375 27.626953125,47.255859375 27.392578125,46.318359375 27.94921875,44.8828125 29.326171875,44.208984375 25.283203125,44.208984375 22.3974609375,43.740234375 20.1123046875,42.4365234375 18.3251953125,40.4443359375 16.93359375,37.91015625 16.3037109375,36.474609375 15.52734375,34.5703125 14.8828125,32.666015625 14.619140625,31.23046875 15.0439453125,28.798828125 16.142578125,25.5615234375 17.6513671875,21.9287109375 19.3359375,18.2958984375 20.9326171875,15.0732421875 22.177734375,12.65625 13.740234375,12.65625z M37.91015625,4.21874952316284L36.416015625,4.83398485183716 35.80078125,6.328125 36.0791015625,7.4560546875 36.796875,8.1005859375 37.79296875,8.37890625 38.935546875,8.4375 40.01953125,8.4375 42.3779296875,8.90625 44.091796875,10.576171875 52.529296875,10.576171875 51.09375,8.3935546875 49.130859375,6.34277391433716 46.8017578125,4.81933641433716 44.267578125,4.21874952316284 37.91015625,4.21874952316284z M23.115234375,4.21874952316284L20.5810546875,4.81933641433716 18.2666015625,6.34277391433716 16.318359375,8.3935546875 14.8828125,10.576171875 23.3203125,10.576171875 24.19921875,9.375 25.517578125,8.73046875 27.041015625,8.4814453125 28.505859375,8.4375 29.619140625,8.37890625 30.615234375,8.1005859375 31.3330078125,7.4560546875 31.611328125,6.328125 30.9814453125,4.84863233566284 29.501953125,4.21874952316284 23.115234375,4.21874952316284z M23.115234375,0L29.47265625,0 31.7431640625,0.424805164337158 33.69140625,1.61132788658142 35.6396484375,0.424805164337158 37.880859375,0 44.267578125,0 46.875,0.395508050918579 49.365234375,1.45019483566284 51.62109375,2.95898389816284 53.5546875,4.74609375 54.2431640625,5.5224609375 54.84375,6.35742139816284 57.509765625,11.103515625 60.087890625,15.908203125 63.28125,21.708984375 66.4453125,27.5390625 67.1337890625,29.4873046875 67.353515625,31.552734375 66.826171875,34.6875 55.634765625,67.3828125 11.748046875,67.3828125 0.52734375,34.62890625 0,31.5234375 0.2197265625,29.5458984375 0.849609375,27.65625 11.162109375,8.5546875 13.2861328125,5.4052734375 16.083984375,2.66601586341858 19.4091796875,0.732421636581421 23.115234375,0z" />
    </g>
  </g>
</svg>