<?xml version="1.0" encoding="utf-8"?>
<!DOCTYPE svg PUBLIC "-//W3C//DTD SVG 1.1//EN" "http://www.w3.org/Graphics/SVG/1.1/DTD/svg11.dtd">
<svg width="67.3828125000004" height="67.3828125" xmlns="http://www.w3.org/2000/svg" xmlns:xlink="http://www.w3.org/1999/xlink" xmlns:xml="http://www.w3.org/XML/1998/namespace" version="1.1">
  <g>
    <g>
      <path style="fill:#FF0000;fill-opacity:1" d="M33.69140625,46.34765625L36.7236328125,46.5673828125 39.7998046875,47.2119140625 42.744140625,48.28125 45.380859375,49.8046875 46.0839805603027,50.56640625 46.318359375,51.5625 45.6884765625,53.056640625 44.208984375,53.671875 43.037109375,53.3203125 38.5693359375,51.240234375 33.69140625,50.537109375 31.142578125,50.712890625 28.8134765625,51.240234375 26.5869140625,52.119140625 24.345703125,53.3203125 23.7890625,53.5693359375 23.173828125,53.671875 21.6796875,53.056640625 21.064453125,51.5625 21.2988262176514,50.56640625 22.001953125,49.8046875 24.638671875,48.28125 27.5830078125,47.2119140625 30.6591796875,46.5673828125 33.69140625,46.34765625z M44.208984375,31.58203125L46.318359375,31.58203125 48.779296875,32.080078125 50.7861328125,33.4423828125 52.1484375,35.44921875 52.646484375,37.91015625 50.537109375,37.91015625 49.921875,36.416015625 48.427734375,35.80078125 42.099609375,35.80078125 40.6201171875,36.4306640625 40.01953125,37.91015625 37.91015625,37.91015625 38.408203125,35.44921875 39.755859375,33.4423828125 41.748046875,32.080078125 44.208984375,31.58203125z M21.064453125,31.58203125L23.173828125,31.58203125 25.634765625,32.080078125 27.626953125,33.4423828125 28.974609375,35.44921875 29.47265625,37.91015625 27.36328125,37.91015625 26.748046875,36.416015625 25.25390625,35.80078125 18.955078125,35.80078125 17.4609375,36.416015625 16.845703125,37.91015625 14.736328125,37.91015625 15.234375,35.44921875 16.5966796875,33.4423828125 18.603515625,32.080078125 21.064453125,31.58203125z M10.458984375,8.4375L11.689453125,10.60546875 12.94921875,12.744140625 15.76171875,17.63671875 16.4501953125,19.2626953125 16.69921875,21.03515625 16.2158203125,23.466796875 14.8828125,25.4150390625 12.890625,26.71875 10.458984375,27.1875 8.0419921875,26.71875 6.064453125,25.4296875 4.71679592132568,23.49609375 4.21875,21.064453125 4.39453125,19.482421875 4.951171875,17.98828125 7.0751953125,14.2529296875 9.228515625,10.546875 10.458984375,8.4375z M33.69140625,0L38.23974609375,0.300295770168304 42.626953125,1.20117139816284 46.7944297790527,2.65137004852295 50.68359375,4.59960889816284 54.2651329040527,7.0166015625 57.509765625,9.873046875 60.3662109375,13.11767578125 62.783203125,16.69921875 64.7314453125,20.58837890625 66.181640625,24.755859375 67.08251953125,29.1430683135986 67.3828125,33.69140625 67.08251953125,38.258056640625 66.181640625,42.6416015625 64.7314453125,46.798095703125 62.783203125,50.68359375 60.3662109375,54.26513671875 57.509765625,57.509765625 54.2651329040527,60.3662109375 50.68359375,62.783203125 46.7944297790527,64.7314453125 42.626953125,66.181640625 38.23974609375,67.08251953125 33.69140625,67.3828125 29.124755859375,67.08251953125 24.7412109375,66.181640625 20.5847148895264,64.7314453125 16.69921875,62.783203125 13.11767578125,60.3662109375 9.873046875,57.509765625 7.01660060882568,54.26513671875 4.599609375,50.68359375 2.6513671875,46.79443359375 1.201171875,42.626953125 0.300292611122131,38.23974609375 0,33.69140625 0.534667789936066,27.6855487823486 2.138671875,21.85546875 3.0029296875,24.8291015625 4.921875,27.24609375 4.21875,33.69140625 4.482421875,37.686767578125 5.2734375,41.5283203125 6.54418849945068,45.172119140625 8.2470703125,48.57421875 10.3564453125,51.705322265625 12.8466796875,54.5361328125 15.677490234375,57.0263671875 18.80859375,59.1357421875 22.2106914520264,60.838623046875 25.8544921875,62.109375 29.696044921875,62.900390625 33.69140625,63.1640625 37.686767578125,62.900390625 41.5283203125,62.109375 45.1721153259277,60.838623046875 48.57421875,59.1357421875 51.7053184509277,57.0263671875 54.5361328125,54.5361328125 57.0263671875,51.705322265625 59.1357421875,48.57421875 60.838623046875,45.172119140625 62.109375,41.5283203125 62.900390625,37.686767578125 63.1640625,33.69140625 62.900390625,29.6960468292236 62.109375,25.8544921875 60.838623046875,22.210693359375 59.1357421875,18.80859375 57.0263671875,15.677490234375 54.5361328125,12.8466796875 51.7053184509277,10.3564453125 48.57421875,8.2470703125 45.1721153259277,6.54419231414795 41.5283203125,5.2734375 37.686767578125,4.48242473602295 33.69140625,4.21874952316284 28.487548828125,4.66919231414795 23.4814453125,6.0205078125 18.7902812957764,8.236083984375 14.53125,11.279296875 12.392578125,7.58789110183716 17.1606426239014,4.31396770477295 22.3828125,1.93359410762787 27.9345703125,0.483401358127594 33.69140625,0z" />
    </g>
  </g>
</svg>