<?xml version="1.0" encoding="utf-8"?>
<!DOCTYPE svg PUBLIC "-//W3C//DTD SVG 1.1//EN" "http://www.w3.org/Graphics/SVG/1.1/DTD/svg11.dtd">
<svg width="67.3828125000007" height="63.1640625" xmlns="http://www.w3.org/2000/svg" xmlns:xlink="http://www.w3.org/1999/xlink" xmlns:xml="http://www.w3.org/XML/1998/namespace" version="1.1">
  <g>
    <g>
      <path style="fill:#FF0000;fill-opacity:1" d="M50.537109375,50.5078125L39.228515625,54.90234375 38.2763671875,55.6787109375 37.91015625,56.8359375 38.525390625,58.330078125 40.01953125,58.9453125 50.537109375,58.9453125 50.537109375,50.5078125z M16.845703125,50.5078125L16.845703125,58.9453125 27.36328125,58.9453125 28.857421875,58.330078125 29.47265625,56.8359375 29.1064453125,55.6787109375 28.154296875,54.90234375 16.845703125,50.5078125z M31.58203125,46.318359375L35.80078125,46.318359375 35.185546875,47.8125 33.69140625,48.427734375 32.197265625,47.8125 31.58203125,46.318359375z M40.01953125,39.990234375L41.4990234375,40.6201171875 42.12890625,42.099609375 42.12890625,44.208984375 41.4990234375,45.6884765625 40.01953125,46.318359375 38.525390625,45.703125 37.91015625,44.208984375 37.91015625,42.099609375 38.5400390625,40.6201171875 40.01953125,39.990234375z M27.36328125,39.990234375L28.8427734375,40.6201171875 29.47265625,42.099609375 29.47265625,44.208984375 28.857421875,45.703125 27.36328125,46.318359375 25.8984375,45.6884765625 25.283203125,44.208984375 25.283203125,42.099609375 25.8984375,40.6201171875 27.36328125,39.990234375z M29.47265625,25.25390625L26.19140625,25.9130859375 23.525390625,27.71484375 21.7236328125,30.3955078125 21.064453125,33.69140625 21.064453125,37.91015625 18.955078125,37.91015625 19.2443828582764,40.865478515625 20.1123046875,43.6376953125 21.4819316864014,46.14990234375 23.2763671875,48.3251953125 25.45166015625,50.11962890625 27.9638671875,51.4892578125 30.736083984375,52.357177734375 33.69140625,52.646484375 36.646728515625,52.357177734375 39.4189453125,51.4892578125 41.9311485290527,50.11962890625 44.1064453125,48.3251953125 45.9008750915527,46.14990234375 47.2705078125,43.6376953125 48.1384239196777,40.865478515625 48.427734375,37.91015625 46.318359375,37.91015625 46.318359375,33.69140625 37.91015625,33.69140625 34.6142578125,33.0322265625 31.93359375,31.23046875 30.1318359375,28.5498046875 29.47265625,25.25390625z M45.029296875,6.298828125L44.384765625,6.48925876617432 44.00390625,7.03125 43.7109375,7.79296875 43.2421875,9.0966796875 42.71484375,10.6640625 42.216796875,12.2021484375 41.8359375,13.447265625 41.689453125,14.12109375 41.9970703125,14.8388671875 42.71484375,15.146484375 43.388671875,15 44.6484375,14.619140625 46.2158203125,14.12109375 47.7978515625,13.59375 49.1015625,13.125 49.833984375,12.83203125 50.537109375,11.8359375 50.21484375,11.103515625 45.76171875,6.62109470367432 45.029296875,6.298828125z M22.353515625,6.298828125L21.62109375,6.62109470367432 17.16796875,11.103515625 16.93359375,11.42578125 16.845703125,11.806640625 17.0361328125,12.451171875 17.548828125,12.83203125 18.310546875,13.125 19.6142578125,13.59375 21.181640625,14.1357421875 22.734375,14.6337890625 23.994140625,15 24.66796875,15.146484375 25.3857421875,14.8388671875 25.693359375,14.12109375 25.546875,13.447265625 25.166015625,12.2021484375 24.66796875,10.6640625 24.140625,9.0966796875 23.671875,7.79296875 23.37890625,7.03125 22.998046875,6.48925876617432 22.353515625,6.298828125z M30.52734375,4.21875095367432L29.7802734375,4.51171875 29.47265625,5.24414157867432 29.677734375,5.9033203125 30.205078125,7.10449314117432 30.9228515625,8.5693359375 31.6845703125,10.048828125 32.34375,11.30859375 32.75390625,12.099609375 33.1201171875,12.5390615463257 33.69140625,12.685546875 34.2626953125,12.5390615463257 34.62890625,12.099609375 35.0390625,11.30859375 35.6982421875,10.048828125 36.4599609375,8.5693359375 37.177734375,7.10449314117432 37.705078125,5.9033203125 37.91015625,5.24414157867432 37.6025390625,4.51171875 36.85546875,4.21875095367432 30.52734375,4.21875095367432z M30.52734375,0L36.85546875,0 38.41552734375,0.219729602336884 39.814453125,0.87890625 41.71875,3.28125 43.2421875,2.3876953125 45,2.08007860183716 47.0068359375,2.49023413658142 48.720703125,3.63281226158142 53.203125,8.115234375 54.3676719665527,9.82177734375 54.755859375,11.8359375 54.5141563415527,13.48388671875 53.7890625,14.912109375 51.15234375,16.81640625 48.251953125,17.7978515625 45.3515625,18.779296875 48.6621055603027,22.0385761260986 50.91796875,25.78125 52.2143516540527,29.970703125 52.646484375,34.5703125 54.3603515625,35.5078125 55.869140625,36.767578125 64.306640625,45.205078125 66.591796875,48.6181640625 67.18505859375,50.584716796875 67.3828125,52.646484375 67.177734375,54.7705078125 66.5625,56.748046875 64.306640625,60.087890625 60.966796875,62.34375 58.9892578125,62.958984375 56.865234375,63.1640625 10.517578125,63.1640625 8.3935546875,62.958984375 6.416015625,62.34375 3.076171875,60.087890625 0.8203125,56.748046875 0.205077767372131,54.7705078125 0,52.646484375 0.197753548622131,50.584716796875 0.791015625,48.6181640625 3.076171875,45.205078125 11.513671875,36.767578125 14.736328125,34.5703125 15.16845703125,29.952392578125 16.46484375,25.7666015625 18.7280254364014,22.0349140167236 22.060546875,18.779296875 19.1455078125,17.7978515625 16.23046875,16.81640625 13.59375,14.8974609375 12.86865234375,13.458251953125 12.626953125,11.806640625 13.037109375,9.814453125 14.1796875,8.115234375 18.662109375,3.63281226158142 20.3759765625,2.49023413658142 22.3828125,2.08007860183716 24.140625,2.3876953125 25.6640625,3.28125 27.5830078125,0.87890625 28.970947265625,0.219729602336884 30.52734375,0z" />
    </g>
  </g>
</svg>