<?xml version="1.0" encoding="utf-8"?>
<!DOCTYPE svg PUBLIC "-//W3C//DTD SVG 1.1//EN" "http://www.w3.org/Graphics/SVG/1.1/DTD/svg11.dtd">
<svg width="67.3828125000004" height="67.3828125" xmlns="http://www.w3.org/2000/svg" xmlns:xlink="http://www.w3.org/1999/xlink" xmlns:xml="http://www.w3.org/XML/1998/namespace" version="1.1">
  <g>
    <g>
      <path style="fill:#FF0000;fill-opacity:1" d="M33.69140625,42.12890625L36.15234375,42.626953125 38.1591796875,43.974609375 39.521484375,45.966796875 40.01953125,48.427734375 39.521484375,50.888671875 38.1591796875,52.8955078125 36.15234375,54.2578125 33.69140625,54.755859375 31.23046875,54.2578125 29.2236328125,52.8955078125 27.861328125,50.888671875 27.36328125,48.427734375 27.861328125,45.966796875 29.2236328125,43.974609375 31.23046875,42.626953125 33.69140625,42.12890625z M45.263671875,29.47265625L46.4794921875,29.7216796875 47.490234375,30.41015625 48.1787109375,31.4208984375 48.427734375,32.63671875 48.427734375,36.85546875 48.1787109375,38.0712890625 47.490234375,39.08203125 46.4794921875,39.7705078125 45.263671875,40.01953125 44.0478515625,39.7705078125 43.0517578125,39.08203125 42.3779296875,38.0712890625 42.12890625,36.85546875 42.12890625,32.63671875 42.3779296875,31.4208984375 43.0517578125,30.41015625 44.0478515625,29.7216796875 45.263671875,29.47265625z M22.119140625,29.47265625L23.3349609375,29.7216796875 24.345703125,30.41015625 25.0341796875,31.4208984375 25.283203125,32.63671875 25.283203125,36.85546875 25.0341796875,38.0712890625 24.345703125,39.08203125 23.3349609375,39.7705078125 22.119140625,40.01953125 20.9033203125,39.7705078125 19.892578125,39.08203125 19.2041015625,38.0712890625 18.955078125,36.85546875 18.955078125,32.63671875 19.2041015625,31.4208984375 19.892578125,30.41015625 20.9033203125,29.7216796875 22.119140625,29.47265625z M40.01953125,16.845703125L43.88671875,17.28515625 47.841796875,18.544921875 51.4453125,20.56640625 54.228515625,23.26171875 54.609375,23.90625 54.755859375,24.638671875 54.140625,26.1474609375 52.646484375,26.77734375 51.7822265625,26.5869140625 51.064453125,26.044921875 48.5302734375,23.9501953125 46.0693359375,22.3828125 43.3447265625,21.4013671875 40.01953125,21.064453125 38.525390625,20.44921875 37.91015625,18.955078125 38.525390625,17.4609375 40.01953125,16.845703125z M27.36328125,16.845703125L28.857421875,17.4609375 29.47265625,18.955078125 28.857421875,20.44921875 27.36328125,21.064453125 24.0380859375,21.4013671875 21.3134765625,22.3828125 18.8525390625,23.9501953125 16.318359375,26.044921875 15.6005859375,26.5869140625 14.736328125,26.77734375 13.2421875,26.162109375 12.626953125,24.66796875 12.7734375,23.9208984375 13.154296875,23.26171875 15.9228515625,20.5810546875 19.541015625,18.5595703125 23.5107421875,17.28515625 27.36328125,16.845703125z M33.69140625,4.21874952316284L29.696044921875,4.48242473602295 25.8544921875,5.2734375 22.2106914520264,6.54419231414795 18.80859375,8.2470703125 15.677490234375,10.3564453125 12.8466796875,12.8466796875 10.3564453125,15.677490234375 8.2470703125,18.80859375 6.54418849945068,22.210693359375 5.2734375,25.8544921875 4.482421875,29.6960468292236 4.21875,33.69140625 4.482421875,37.686767578125 5.2734375,41.5283203125 6.54418849945068,45.172119140625 8.2470703125,48.57421875 10.3564453125,51.705322265625 12.8466796875,54.5361328125 15.677490234375,57.0263671875 18.80859375,59.1357421875 22.2106914520264,60.838623046875 25.8544921875,62.109375 29.696044921875,62.900390625 33.69140625,63.1640625 37.686767578125,62.900390625 41.5283203125,62.109375 45.1721153259277,60.838623046875 48.57421875,59.1357421875 51.7053184509277,57.0263671875 54.5361328125,54.5361328125 57.0263671875,51.705322265625 59.1357421875,48.57421875 60.838623046875,45.172119140625 62.109375,41.5283203125 62.900390625,37.686767578125 63.1640625,33.69140625 62.900390625,29.6960468292236 62.109375,25.8544921875 60.838623046875,22.210693359375 59.1357421875,18.80859375 57.0263671875,15.677490234375 54.5361328125,12.8466796875 51.7053184509277,10.3564453125 48.57421875,8.2470703125 45.1721153259277,6.54419231414795 41.5283203125,5.2734375 37.686767578125,4.48242473602295 33.69140625,4.21874952316284z M33.69140625,0L38.26171875,0.300295770168304 42.65625,1.20117139816284 46.8200645446777,2.65137004852295 50.6982421875,4.59960889816284 54.2687950134277,7.0166015625 57.509765625,9.873046875 60.3662109375,13.114013671875 62.783203125,16.6845703125 64.7314453125,20.562744140625 66.181640625,24.7265625 67.08251953125,29.1210956573486 67.3828125,33.69140625 67.08251953125,38.26171875 66.181640625,42.65625 64.7314453125,46.820068359375 62.783203125,50.6982421875 60.3662109375,54.268798828125 57.509765625,57.509765625 54.2687950134277,60.3662109375 50.6982421875,62.783203125 46.8200645446777,64.7314453125 42.65625,66.181640625 38.26171875,67.08251953125 33.69140625,67.3828125 29.12109375,67.08251953125 24.7265625,66.181640625 20.5627422332764,64.7314453125 16.6845703125,62.783203125 13.114013671875,60.3662109375 9.873046875,57.509765625 7.01660060882568,54.268798828125 4.599609375,50.6982421875 2.6513671875,46.820068359375 1.201171875,42.65625 0.300292611122131,38.26171875 0,33.69140625 0.300292611122131,29.1210956573486 1.201171875,24.7265625 2.6513671875,20.562744140625 4.599609375,16.6845703125 7.01660060882568,13.114013671875 9.873046875,9.873046875 13.114013671875,7.0166015625 16.6845703125,4.59960889816284 20.5627422332764,2.65137004852295 24.7265625,1.20117139816284 29.12109375,0.300295770168304 33.69140625,0z" />
    </g>
  </g>
</svg>