<?xml version="1.0" encoding="utf-8"?>
<!DOCTYPE svg PUBLIC "-//W3C//DTD SVG 1.1//EN" "http://www.w3.org/Graphics/SVG/1.1/DTD/svg11.dtd">
<svg width="67.3828125000004" height="67.3828125" xmlns="http://www.w3.org/2000/svg" xmlns:xlink="http://www.w3.org/1999/xlink" xmlns:xml="http://www.w3.org/XML/1998/namespace" version="1.1">
  <g>
    <g>
      <path style="fill:#FF0000;fill-opacity:1" d="M33.69140625,50.537109375L30.263671875,51.2548828125 27.451171875,53.349609375 30.498046875,54.404296875 33.69140625,54.755859375 36.884765625,54.404296875 39.931640625,53.349609375 37.119140625,51.2548828125 33.69140625,50.537109375z M19.1015625,42.12890625L20.361328125,46.318359375 46.9921875,46.318359375 48.28125,42.12890625 19.1015625,42.12890625z M16.845703125,40.01953125L50.537109375,40.01953125 50.2038536071777,43.399658203125 49.2041015625,46.5673828125 47.6330528259277,49.434814453125 45.5859375,51.9140625 43.1066856384277,53.961181640625 40.2392578125,55.5322265625 37.071533203125,56.531982421875 33.69140625,56.865234375 30.311279296875,56.531982421875 27.1435546875,55.5322265625 24.276123046875,53.961181640625 21.796875,51.9140625 19.7497539520264,49.434814453125 18.1787109375,46.5673828125 17.1789531707764,43.399658203125 16.845703125,40.01953125z M45.263671875,23.173828125L48.134765625,23.7451171875 50.478515625,25.3125 52.060546875,27.65625 52.646484375,30.52734375 52.646484375,31.58203125 50.537109375,31.58203125 50.126953125,29.53125 48.9990234375,27.8466796875 47.314453125,26.71875 45.263671875,26.30859375 43.1982421875,26.71875 41.54296875,27.8466796875 40.4296875,29.53125 40.01953125,31.58203125 37.91015625,31.58203125 37.91015625,30.52734375 38.4814453125,27.65625 40.048828125,25.3125 42.3779296875,23.7451171875 45.263671875,23.173828125z M22.119140625,23.173828125L24.990234375,23.7451171875 27.333984375,25.3125 28.9013671875,27.65625 29.47265625,30.52734375 29.47265625,31.58203125 27.36328125,31.58203125 26.953125,29.53125 25.83984375,27.8466796875 24.169921875,26.71875 22.119140625,26.30859375 20.0537109375,26.71875 18.3837890625,27.8466796875 17.255859375,29.53125 16.845703125,31.58203125 14.736328125,31.58203125 14.736328125,30.52734375 15.322265625,27.65625 16.904296875,25.3125 19.248046875,23.7451171875 22.119140625,23.173828125z M33.69140625,4.21874952316284L29.696044921875,4.48242473602295 25.8544921875,5.2734375 22.2106914520264,6.54419231414795 18.80859375,8.2470703125 15.677490234375,10.3564453125 12.8466796875,12.8466796875 10.3564453125,15.677490234375 8.2470703125,18.80859375 6.54418849945068,22.210693359375 5.2734375,25.8544921875 4.482421875,29.6960468292236 4.21875,33.69140625 4.482421875,37.686767578125 5.2734375,41.5283203125 6.54418849945068,45.172119140625 8.2470703125,48.57421875 10.3564453125,51.705322265625 12.8466796875,54.5361328125 15.677490234375,57.0263671875 18.80859375,59.1357421875 22.2106914520264,60.838623046875 25.8544921875,62.109375 29.696044921875,62.900390625 33.69140625,63.1640625 37.686767578125,62.900390625 41.5283203125,62.109375 45.1721153259277,60.838623046875 48.57421875,59.1357421875 51.7053184509277,57.0263671875 54.5361328125,54.5361328125 57.0263671875,51.705322265625 59.1357421875,48.57421875 60.838623046875,45.172119140625 62.109375,41.5283203125 62.900390625,37.686767578125 63.1640625,33.69140625 62.900390625,29.6960468292236 62.109375,25.8544921875 60.838623046875,22.210693359375 59.1357421875,18.80859375 57.0263671875,15.677490234375 54.5361328125,12.8466796875 51.7053184509277,10.3564453125 48.57421875,8.2470703125 45.1721153259277,6.54419231414795 41.5283203125,5.2734375 37.686767578125,4.48242473602295 33.69140625,4.21874952316284z M33.69140625,0L38.26171875,0.300295770168304 42.65625,1.20117139816284 46.8200645446777,2.65137004852295 50.6982421875,4.59960889816284 54.2687950134277,7.0166015625 57.509765625,9.873046875 60.3662109375,13.114013671875 62.783203125,16.6845703125 64.7314453125,20.562744140625 66.181640625,24.7265625 67.08251953125,29.1210956573486 67.3828125,33.69140625 67.08251953125,38.26171875 66.181640625,42.65625 64.7314453125,46.820068359375 62.783203125,50.6982421875 60.3662109375,54.268798828125 57.509765625,57.509765625 54.2687950134277,60.3662109375 50.6982421875,62.783203125 46.8200645446777,64.7314453125 42.65625,66.181640625 38.26171875,67.08251953125 33.69140625,67.3828125 29.12109375,67.08251953125 24.7265625,66.181640625 20.5627422332764,64.7314453125 16.6845703125,62.783203125 13.114013671875,60.3662109375 9.873046875,57.509765625 7.01660060882568,54.268798828125 4.599609375,50.6982421875 2.6513671875,46.820068359375 1.201171875,42.65625 0.300292611122131,38.26171875 0,33.69140625 0.300292611122131,29.1210956573486 1.201171875,24.7265625 2.6513671875,20.562744140625 4.599609375,16.6845703125 7.01660060882568,13.114013671875 9.873046875,9.873046875 13.114013671875,7.0166015625 16.6845703125,4.59960889816284 20.5627422332764,2.65137004852295 24.7265625,1.20117139816284 29.12109375,0.300295770168304 33.69140625,0z" />
    </g>
  </g>
</svg>