<?xml version="1.0" encoding="utf-8"?>
<!DOCTYPE svg PUBLIC "-//W3C//DTD SVG 1.1//EN" "http://www.w3.org/Graphics/SVG/1.1/DTD/svg11.dtd">
<svg width="29.53125" height="31.40625" xmlns="http://www.w3.org/2000/svg" xmlns:xlink="http://www.w3.org/1999/xlink" xmlns:xml="http://www.w3.org/XML/1998/namespace" version="1.1">
  <g>
    <g>
      <path style="fill:#FF0000;fill-opacity:1" d="M5.0390625,17.4609375L5.91796875,21.591796875 7.96875,24.7265625 11.0302724838257,26.7041015625 14.94140625,27.36328125 18.9257793426514,26.744384765625 21.8554668426514,24.8876953125 23.7304668426514,21.793212890625 24.55078125,17.4609375 5.0390625,17.4609375z M14.94140625,4.04296875L11.1950674057007,4.65088033676147 8.2177734375,6.474609375 6.141357421875,9.41162109375 5.09765625,13.359375 24.4921875,13.359375 23.5656719207764,9.28344821929932 21.6650371551514,6.37207174301147 18.7902812957764,4.62524509429932 14.94140625,4.04296875z M15.29296875,0L18.4634380340576,0.258179783821106 21.2658672332764,1.03271627426147 23.7002544403076,2.32360935211182 25.7666015625,4.130859375 27.4136352539063,6.3958740234375 28.590087890625,9.06005859375 29.2959594726563,12.1234130859375 29.53125,15.5859375 29.2776489257813,18.9962768554688 28.516845703125,22.049560546875 27.2488403320313,24.7457885742188 25.4736328125,27.0849609375 23.2717876434326,28.9755249023438 20.7238750457764,30.325927734375 17.8298931121826,31.1361694335938 14.58984375,31.40625 11.4321899414063,31.1434936523438 8.609619140625,30.355224609375 6.12213134765625,29.0414428710938 3.96972632408142,27.2021484375 2.23297095298767,24.9288940429688 0.992431402206421,22.313232421875 0.248107776045799,19.3551635742188 0,16.0546875 0.25817859172821,12.4822998046875 1.03271460533142,9.32373046875 2.32360816001892,6.5789794921875 4.130859375,4.248046875 6.3775634765625,2.38952732086182 8.98681640625,1.06201314926147 11.9586181640625,0.265504002571106 15.29296875,0z" />
    </g>
  </g>
</svg>