<?xml version="1.0" encoding="utf-8"?>
<!DOCTYPE svg PUBLIC "-//W3C//DTD SVG 1.1//EN" "http://www.w3.org/Graphics/SVG/1.1/DTD/svg11.dtd">
<svg width="30.1171875" height="33.720703125" xmlns="http://www.w3.org/2000/svg" xmlns:xlink="http://www.w3.org/1999/xlink" xmlns:xml="http://www.w3.org/XML/1998/namespace" version="1.1">
  <g>
    <g>
      <path style="fill:#FF0000;fill-opacity:1" d="M22.412109375,20.80078125L20.2899169921875,21.119384765625 18.43505859375,22.0751953125 16.8475341796875,23.668212890625 15.52734375,25.8984375 20.56640625,25.8984375 22.9119853973389,25.733642578125 24.5874004364014,25.2392578125 25.5926494598389,24.415283203125 25.927734375,23.26171875 25.7080059051514,22.18505859375 25.0488262176514,21.416015625 23.9501934051514,20.95458984375 22.412109375,20.80078125z M1.66992199420929,0L24.814453125,0 24.814453125,1.376953125 7.060546875,25.8984375 11.279296875,25.8984375 13.3593740463257,22.174072265625 16.025390625,19.3798828125 19.12353515625,17.633056640625 22.5,17.05078125 25.6127910614014,17.490234375 28.037109375,18.80859375 29.5971660614014,20.80078125 30.1171875,23.26171875 29.4873027801514,26.044921875 27.59765625,28.18359375 24.5654277801514,29.5458984375 20.5078125,30 14.208984375,30 13.681640625,33.720703125 9.521484375,33.720703125 10.01953125,30 0,30 0,28.505859375 17.75390625,4.1015625 1.66992199420929,4.1015625 1.66992199420929,0z" />
    </g>
  </g>
</svg>