<?xml version="1.0" encoding="utf-8"?>
<!DOCTYPE svg PUBLIC "-//W3C//DTD SVG 1.1//EN" "http://www.w3.org/Graphics/SVG/1.1/DTD/svg11.dtd">
<svg width="41.806640625" height="59.1796875" xmlns="http://www.w3.org/2000/svg" xmlns:xlink="http://www.w3.org/1999/xlink" xmlns:xml="http://www.w3.org/XML/1998/namespace" version="1.1">
  <g>
    <g>
      <path style="fill:#FF0000;fill-opacity:1" d="M15.146484375,0L17.255859375,0.161132872104645 18.955078125,0.644531726837158 18.955078125,4.98046875 17.2119140625,4.29931640625 15.380859375,4.072265625 12.9840087890625,4.508056640625 11.27197265625,5.8154296875 10.2447509765625,7.994384765625 9.90234375,11.044921875 9.90234375,15.05859375 21.708984375,15.05859375 21.708984375,20.0390625 21.826171875,20.0390625 23.7158184051514,17.5524921417236 25.9863262176514,15.7763690948486 28.6376934051514,14.7106943130493 31.669921875,14.35546875 33.9862060546875,14.5532236099243 36.01318359375,15.1464862823486 37.7508544921875,16.1352558135986 39.19921875,17.51953125 41.15478515625,21.4013690948486 41.806640625,26.71875 41.806640625,45.17578125 41.6326904296875,48.3627319335938 41.11083984375,51.156005859375 40.2410888671875,53.5556030273438 39.0234375,55.5615234375 37.4871826171875,57.1444702148438 35.66162109375,58.275146484375 33.5467529296875,58.9535522460938 31.142578125,59.1796875 29.0844707489014,58.9892578125 27.36328125,58.41796875 27.36328125,53.935546875 29.2016582489014,54.79248046875 31.142578125,55.078125 33.7188720703125,54.495849609375 35.55908203125,52.7490234375 36.6632080078125,49.837646484375 37.03125,45.76171875 37.03125,27.94921875 36.5972900390625,23.7707538604736 35.29541015625,20.7861347198486 33.1256103515625,18.9953632354736 30.087890625,18.3984375 26.7700176239014,19.0759296417236 24.08203125,21.1083984375 22.30224609375,24.173583984375 21.708984375,27.94921875 21.708984375,45.05859375 16.93359375,45.05859375 16.93359375,19.16015625 9.90234375,19.16015625 9.90234375,45.05859375 5.126953125,45.05859375 5.126953125,19.16015625 0,19.16015625 0,15.05859375 5.126953125,15.05859375 5.126953125,10.78125 5.826416015625,6.357421875 7.9248046875,2.9296875 11.1291494369507,0.732421875 15.146484375,0z" />
    </g>
  </g>
</svg>