<?xml version="1.0" encoding="utf-8"?>
<!DOCTYPE svg PUBLIC "-//W3C//DTD SVG 1.1//EN" "http://www.w3.org/Graphics/SVG/1.1/DTD/svg11.dtd">
<svg width="27.890625" height="42.59765625" xmlns="http://www.w3.org/2000/svg" xmlns:xlink="http://www.w3.org/1999/xlink" xmlns:xml="http://www.w3.org/XML/1998/namespace" version="1.1">
  <g>
    <g>
      <path style="fill:#FF0000;fill-opacity:1" d="M13.76953125,29.53125L12.3632802963257,33.1201171875 11.89453125,35.7421875 12.3632802963257,37.91748046875 13.76953125,38.642578125 15.19775390625,37.91748046875 15.673828125,35.7421875 15.19775390625,33.251953125 13.76953125,29.53125z M0,0L5.21484375,0 13.828125,20.56640625 22.67578125,0 27.890625,0 16.40625,25.3125 17.40234375,27.3046875 19.4677734375,32.197265625 20.15625,35.859375 19.7021484375,38.514404296875 18.33984375,40.6787109375 16.25244140625,42.117919921875 13.623046875,42.59765625 11.09619140625,42.117919921875 9.08203125,40.6787109375 7.763671875,38.514404296875 7.32421875,35.859375 7.503662109375,34.3359375 8.0419921875,32.40234375 8.939208984375,30.05859375 10.1953125,27.3046875 11.19140625,25.3125 0,0z" />
    </g>
  </g>
</svg>