<?xml version="1.0" encoding="utf-8"?>
<!DOCTYPE svg PUBLIC "-//W3C//DTD SVG 1.1//EN" "http://www.w3.org/Graphics/SVG/1.1/DTD/svg11.dtd">
<svg width="26.8359375" height="31.40625" xmlns="http://www.w3.org/2000/svg" xmlns:xlink="http://www.w3.org/1999/xlink" xmlns:xml="http://www.w3.org/XML/1998/namespace" version="1.1">
  <g>
    <g>
      <path style="fill:#FF0000;fill-opacity:1" d="M13.447265625,13.125L11.513671875,17.8125 10.869140625,22.32421875 11.0302734375,24.52880859375 11.513671875,26.103515625 12.3193359375,27.04833984375 13.447265625,27.36328125 14.5751953125,27.04833984375 15.380859375,26.103515625 15.8642578125,24.52880859375 16.025390625,22.32421875 15.380859375,17.8857421875 13.447265625,13.125z M4.04296875,0L6.3665771484375,0.377198338508606 8.70849609375,1.50879049301147 11.0687255859375,3.39477634429932 13.447265625,6.03515625 15.8514404296875,3.39477634429932 18.22998046875,1.50879049301147 20.5828857421875,0.377198338508606 22.91015625,0 24.9462871551514,0.234376430511475 26.8359375,0.9375 26.8359375,5.390625 24.9243144989014,4.37988424301147 23.291015625,4.04296875 21.5625,4.39270114898682 19.8046875,5.44189596176147 18.017578125,7.19055271148682 16.201171875,9.638671875 18.1109619140625,13.0718994140625 19.47509765625,16.36962890625 20.2935791015625,19.5318603515625 20.56640625,22.55859375 20.079345703125,26.15478515625 18.6181640625,28.974609375 16.307373046875,30.79833984375 13.271484375,31.40625 10.37109375,30.8056640625 8.173828125,29.00390625 6.78955030441284,26.220703125 6.328125,22.67578125 6.595458984375,19.5538330078125 7.3974609375,16.34033203125 8.734130859375,13.0352783203125 10.60546875,9.638671875 8.7286376953125,7.19055271148682 6.90673828125,5.44189596176147 5.1397705078125,4.39270114898682 3.42773461341858,4.04296875 1.64794921875,4.36523580551147 0,5.33203125 0,0.9375 1.9482421875,0.234376430511475 4.04296875,0z" />
    </g>
  </g>
</svg>