<?xml version="1.0" encoding="utf-8"?>
<!DOCTYPE svg PUBLIC "-//W3C//DTD SVG 1.1//EN" "http://www.w3.org/Graphics/SVG/1.1/DTD/svg11.dtd">
<svg width="21.474609375" height="30" xmlns="http://www.w3.org/2000/svg" xmlns:xlink="http://www.w3.org/1999/xlink" xmlns:xml="http://www.w3.org/XML/1998/namespace" version="1.1">
  <g>
    <g>
      <path style="fill:#FF0000;fill-opacity:1" d="M4.8046875,4.1015625L4.8046875,13.564453125 9.31640625,13.564453125 11.93115234375,13.2568359375 13.798828125,12.333984375 14.91943359375,10.7958984375 15.29296875,8.642578125 14.93408203125,6.65588474273682 13.857421875,5.23681783676147 12.06298828125,4.38537693023682 9.55078125,4.1015625 4.8046875,4.1015625z M0,0L9.90234375,0 14.197998046875,0.556642055511475 17.4169921875,2.2265625 19.4274883270264,4.86328268051147 20.09765625,8.3203125 19.6691875457764,11.2042236328125 18.3837871551514,13.46923828125 16.2414531707764,15.1153564453125 13.2421875,16.142578125 13.2421875,16.259765625 15.4833984375,17.89306640625 17.34375,20.859375 21.474609375,30 16.083984375,30 12.65625,21.9140625 11.641845703125,20.042724609375 10.4150390625,18.7060546875 8.975830078125,17.904052734375 7.32421875,17.63671875 4.8046875,17.63671875 4.8046875,30 0,30 0,0z" />
    </g>
  </g>
</svg>