<?xml version="1.0" encoding="utf-8"?>
<!DOCTYPE svg PUBLIC "-//W3C//DTD SVG 1.1//EN" "http://www.w3.org/Graphics/SVG/1.1/DTD/svg11.dtd">
<svg width="22.5" height="44.736328125" xmlns="http://www.w3.org/2000/svg" xmlns:xlink="http://www.w3.org/1999/xlink" xmlns:xml="http://www.w3.org/XML/1998/namespace" version="1.1">
  <g>
    <g>
      <path style="fill:#FF0000;fill-opacity:1" d="M14.94140625,0L18.80859375,0.476075649261475 22.5,1.904296875 22.5,6.708984375 18.7646484375,4.70947408676147 14.94140625,4.04296875 12.6068115234375,4.33319139480591 10.58349609375,5.20385837554932 8.8714599609375,6.65496969223022 7.47070264816284,8.68652534484863 6.38122510910034,11.2985239028931 5.60302639007568,14.4909677505493 5.13610744476318,18.2638549804688 4.98046779632568,22.6171875 5.13152980804443,26.8606567382813 5.58471584320068,30.538330078125 6.34002637863159,33.6502075195313 7.39746046066284,36.1962890625 8.75701904296875,38.1765747070313 10.418701171875,39.591064453125 12.3825073242188,40.4397583007813 14.6484375,40.72265625 18.662109375,39.9755859375 22.5,37.734375 22.5,42.216796875 18.45703125,44.1064453125 14.0625,44.736328125 10.86181640625,44.3893432617188 8.056640625,43.348388671875 5.64697217941284,41.6134643554688 3.63281178474426,39.1845703125 2.04345655441284,36.0891723632813 0.908202886581421,32.354736328125 0.227050632238388,27.9812622070313 0,22.96875 0.240783557295799,17.6925659179688 0.963134527206421,13.084716796875 2.16705298423767,9.14520263671875 3.85253882408142,5.8740234375 5.99029541015625,3.30413913726807 8.551025390625,1.46850728988647 11.5347290039063,0.367127537727356 14.94140625,0z" />
    </g>
  </g>
</svg>