<?xml version="1.0" encoding="utf-8"?>
<!DOCTYPE svg PUBLIC "-//W3C//DTD SVG 1.1//EN" "http://www.w3.org/Graphics/SVG/1.1/DTD/svg11.dtd">
<svg width="42.59765625" height="44.82421875" xmlns="http://www.w3.org/2000/svg" xmlns:xlink="http://www.w3.org/1999/xlink" xmlns:xml="http://www.w3.org/XML/1998/namespace" version="1.1">
  <g>
    <g>
      <path style="fill:#FF0000;fill-opacity:1" d="M14.23828125,0L17.11669921875,0.428468227386475 19.599609375,1.7138671875 21.5258769989014,3.69506978988647 22.734375,6.2109375 24.609375,3.49365329742432 26.89453125,1.55273580551147 29.58984375,0.388184666633606 32.6953125,0 35.0161743164063,0.190888077020645 37.027587890625,0.763550877571106 38.7295532226563,1.71798837184906 40.1220703125,3.05420064926147 41.2051391601563,4.77218770980835 41.978759765625,6.87194919586182 42.4429321289063,9.35348606109619 42.59765625,12.216796875 42.59765625,30.8203125 42.4227905273438,33.995361328125 41.898193359375,36.7822265625 41.0238647460938,39.180908203125 39.7998046875,41.19140625 38.2589721679688,42.78076171875 36.434326171875,43.916015625 34.3258666992188,44.59716796875 31.93359375,44.82421875 29.8681640625,44.6337890625 28.125,44.0625 28.125,39.580078125 29.9853515625,40.43701171875 31.93359375,40.72265625 34.4970703125,40.140380859375 36.328125,38.3935546875 37.4267578125,35.482177734375 37.79296875,31.40625 37.79296875,13.4765625 37.408447265625,9.1845703125 36.2548828125,6.26953125 34.193115234375,4.59961080551147 31.083984375,4.04296875 28.238525390625,4.74609518051147 25.8544921875,6.85546875 24.2395000457764,9.9462890625 23.701171875,13.59375 23.701171875,30.703125 18.896484375,30.703125 18.896484375,12.890625 18.4698486328125,9.01977634429932 17.18994140625,6.25488424301147 15.0567626953125,4.59594821929932 12.0703125,4.04296875 9.18456935882568,4.70581197738647 6.85546875,6.6943359375 5.3173828125,9.744873046875 4.8046875,13.59375 4.8046875,30.703125 0,30.703125 0,0.703125 4.8046875,0.703125 4.8046875,5.44921875 4.921875,5.44921875 6.70165967941284,3.06518650054932 8.84765529632568,1.36230611801147 11.3598623275757,0.340577244758606 14.23828125,0z" />
    </g>
  </g>
</svg>