<?xml version="1.0" encoding="utf-8"?>
<!DOCTYPE svg PUBLIC "-//W3C//DTD SVG 1.1//EN" "http://www.w3.org/Graphics/SVG/1.1/DTD/svg11.dtd">
<svg width="24.90234375" height="43.798828125" xmlns="http://www.w3.org/2000/svg" xmlns:xlink="http://www.w3.org/1999/xlink" xmlns:xml="http://www.w3.org/XML/1998/namespace" version="1.1">
  <g>
    <g>
      <path style="fill:#FF0000;fill-opacity:1" d="M0,0L4.775390625,0 4.775390625,17.28515625 5.2056884765625,21.38671875 6.49658203125,24.31640625 8.6480712890625,26.07421875 11.66015625,26.66015625 14.94873046875,25.975341796875 17.666015625,23.9208984375 19.4897441864014,20.819091796875 20.09765625,16.9921875 20.09765625,0 24.90234375,0 24.90234375,43.798828125 20.09765625,43.798828125 20.09765625,25.01953125 19.98046875,25.01953125 18.043212890625,27.506103515625 15.7470703125,29.2822265625 13.092041015625,30.347900390625 10.078125,30.703125 7.716064453125,30.5122375488281 5.6689453125,29.9395751953125 3.936767578125,28.9851379394531 2.51953125,27.64892578125 1.417236328125,25.9309387207031 0.6298828125,23.8311767578125 0.157470703125,21.3496398925781 0,18.486328125 0,0z" />
    </g>
  </g>
</svg>