<?xml version="1.0" encoding="utf-8"?>
<!DOCTYPE svg PUBLIC "-//W3C//DTD SVG 1.1//EN" "http://www.w3.org/Graphics/SVG/1.1/DTD/svg11.dtd">
<svg width="31.46484375" height="45.76171875" xmlns="http://www.w3.org/2000/svg" xmlns:xlink="http://www.w3.org/1999/xlink" xmlns:xml="http://www.w3.org/XML/1998/namespace" version="1.1">
  <g>
    <g>
      <path style="fill:#FF0000;fill-opacity:1" d="M15.732421875,19.5703125L16.988525390625,19.8120136260986 18.0615234375,20.537109375 18.797607421875,21.59912109375 19.04296875,22.8515625 18.797607421875,24.107666015625 18.0615234375,25.1806640625 16.988525390625,25.916748046875 15.732421875,26.162109375 14.46533203125,25.92041015625 13.41796875,25.1953125 12.7148427963257,24.1259765625 12.48046875,22.8515625 12.7148427963257,21.59912109375 13.41796875,20.537109375 14.46533203125,19.8120136260986 15.732421875,19.5703125z M15.732421875,4.072265625L13.2522573471069,4.37713623046875 11.0852041244507,5.291748046875 9.23126125335693,6.81610107421875 7.6904296875,8.9501953125 6.47918701171875,11.6555786132813 5.61401319503784,14.8937997817993 5.09490919113159,18.6648559570313 4.921875,22.96875 5.09078931808472,27.36328125 5.59753370285034,31.171875 6.44210767745972,34.39453125 7.62451124191284,37.03125 9.14474487304688,39.08203125 11.0028076171875,40.546875 13.1986999511719,41.42578125 15.732421875,41.71875 18.2125854492188,41.414794921875 20.379638671875,40.5029296875 22.2335815429688,38.983154296875 23.7744140625,36.85546875 24.9856548309326,34.156494140625 25.8508281707764,30.9228515625 26.3699321746826,27.154541015625 26.54296875,22.8515625 26.3740539550781,18.4501647949219 25.8673076629639,14.6356201171875 25.0227336883545,11.4079284667969 23.8403301239014,8.76708984375 22.3200969696045,6.71310424804688 20.4620342254639,5.2459716796875 18.2661437988281,4.36569213867188 15.732421875,4.072265625z M15.908203125,0L19.4650249481201,0.3607177734375 22.5769023895264,1.44287109375 25.2438335418701,3.2464599609375 27.4658203125,5.771484375 29.2153930664063,8.9886474609375 30.465087890625,12.8686532974243 31.2149047851563,17.4114990234375 31.46484375,22.6171875 31.2066650390625,27.8750610351563 30.43212890625,32.486572265625 29.1412353515625,36.4517211914063 27.333984375,39.7705078125 25.0506572723389,42.3916625976563 22.3315410614014,44.263916015625 19.1766338348389,45.3872680664063 15.5859375,45.76171875 12.0281982421875,45.399169921875 8.91357421875,44.3115234375 6.24206495285034,42.498779296875 4.01367092132568,39.9609375 2.25768995285034,36.73828125 1.00341773033142,32.87109375 0.250854343175888,28.359375 0,23.203125 0.25909411907196,17.955322265625 1.03637671470642,13.3447275161743 2.33184790611267,9.371337890625 4.1455078125,6.03515625 6.43524169921875,3.394775390625 9.158935546875,1.5087890625 12.3165893554688,0.377197265625 15.908203125,0z" />
    </g>
  </g>
</svg>