<?xml version="1.0" encoding="utf-8"?>
<!DOCTYPE svg PUBLIC "-//W3C//DTD SVG 1.1//EN" "http://www.w3.org/Graphics/SVG/1.1/DTD/svg11.dtd">
<svg width="24.6679687500003" height="59.1796875" xmlns="http://www.w3.org/2000/svg" xmlns:xlink="http://www.w3.org/1999/xlink" xmlns:xml="http://www.w3.org/XML/1998/namespace" version="1.1">
  <g>
    <g>
      <path style="fill:#FF0000;fill-opacity:1" d="M9.521484375,49.3359375L7.29125928878784,49.541015625 5.69824171066284,50.15625 4.74243116378784,51.181640625 4.42382717132568,52.6171875 5.14892530441284,54.5947265625 7.32421827316284,55.25390625 9.1534423828125,54.89501953125 10.48095703125,53.818359375 11.3067626953125,52.02392578125 11.630859375,49.51171875 9.521484375,49.3359375z M21.15234375,0L23.14453125,0.1318359375 24.66796875,0.52734375 24.66796875,4.86328125 23.115234375,4.27001953125 21.38671875,4.072265625 19.207763671875,4.4805908203125 17.6513671875,5.70556640625 16.717529296875,7.7471923828125 16.40625,10.60546875 16.40625,46.875 19.9365215301514,48.45703125 23.37890625,50.625 23.37890625,55.48828125 19.7607402801514,52.822265625 16.0546875,50.91796875 15.106201171875,54.312744140625 13.1982421875,56.9384765625 10.455322265625,58.619384765625 7.00195264816284,59.1796875 4.20410108566284,58.736572265625 1.96289038658142,57.4072265625 0.490722268819809,55.396728515625 0,52.91015625 0.659179329872131,49.984130859375 2.63671875,47.5927734375 5.67626905441284,45.999755859375 9.521484375,45.46875 11.630859375,45.5859375 11.630859375,10.37109375 12.3046865463257,6.1083984375 14.326171875,2.8125 17.38037109375,0.703125 21.15234375,0z" />
    </g>
  </g>
</svg>