<?xml version="1.0" encoding="utf-8"?>
<!DOCTYPE svg PUBLIC "-//W3C//DTD SVG 1.1//EN" "http://www.w3.org/Graphics/SVG/1.1/DTD/svg11.dtd">
<svg width="38.26171875" height="44.384765625" xmlns="http://www.w3.org/2000/svg" xmlns:xlink="http://www.w3.org/1999/xlink" xmlns:xml="http://www.w3.org/XML/1998/namespace" version="1.1">
  <g>
    <g>
      <path style="fill:#FF0000;fill-opacity:1" d="M11.8359375,16.171875L11.8359375,27.48046875 12.2607421875,32.4609375 13.447265625,36.3427734375 15.2490234375,38.876953125 16.343994140625,39.55810546875 17.548828125,39.78515625 19.9951171875,39.052734375 22.6611328125,37.060546875 25.2392578125,34.0869140625 27.4365234375,30.41015625 28.9599609375,26.30859375 29.53125,22.08984375 29.23828125,21.5625 27.94921875,21.650390625 26.865234375,21.6796875 22.8662109375,21.298828125 18.92578125,20.21484375 15.1904296875,18.486328125 11.8359375,16.171875z M0,0L38.26171875,0 38.26171875,4.306640625 11.8359375,4.306640625 11.8359375,9.31640625 15.4541015625,12.83203125 19.51171875,15.146484375 24.3603515625,16.4208984375 30.380859375,16.81640625 32.28515625,17.63671875 33.427734375,18.80859375 33.9990234375,20.302734375 34.16015625,22.08984375 33.5888671875,26.6015625 31.9482421875,31.5380859375 29.296875,36.328125 25.7080078125,40.4296875 21.2841796875,43.30078125 18.775634765625,44.11376953125 16.083984375,44.384765625 14.8388671875,44.0771484375 13.0078125,43.0078125 10.9423828125,41.0009765625 9.0087890625,37.8662109375 7.587890625,33.4130859375 7.17040967941284,30.648193359375 7.03124952316284,27.48046875 7.03124952316284,4.306640625 0,4.306640625 0,0z" />
    </g>
  </g>
</svg>