<?xml version="1.0" encoding="utf-8"?>
<!DOCTYPE svg PUBLIC "-//W3C//DTD SVG 1.1//EN" "http://www.w3.org/Graphics/SVG/1.1/DTD/svg11.dtd">
<svg width="40.25390625" height="59.94140625" xmlns="http://www.w3.org/2000/svg" xmlns:xlink="http://www.w3.org/1999/xlink" xmlns:xml="http://www.w3.org/XML/1998/namespace" version="1.1">
  <g>
    <g>
      <path style="fill:#FF0000;fill-opacity:1" d="M25.283203125,27.83203125L25.0451641082764,30.9411640167236 24.3896484375,33.7060546875 22.177734375,38.291015625 19.1748046875,41.71875 15.908203125,44.12109375 12.9052734375,45.6005859375 10.693359375,46.259765625 11.7041015625,50.1416015625 13.88671875,52.96875 16.81640625,54.697265625 20.09765625,55.283203125 22.130126953125,55.0634765625 24.1259765625,54.404296875 27.626953125,51.8994140625 30.087890625,47.9736328125 30.7910137176514,45.545654296875 31.025390625,42.861328125 30.7763671875,39.8583984375 29.8974609375,36.3427734375 28.18359375,32.3291015625 25.458984375,27.83203125 25.283203125,27.83203125z M21.064453125,0L20.9765625,4.072265625 19.423828125,4.40185832977295 18.28125,5.09765577316284 17.578125,6.15234661102295 17.34375,7.55859375 17.7978515625,9.8291015625 18.955078125,12.041015625 20.478515625,14.00390625 22.060546875,15.556640625 40.25390625,15.556640625 40.25390625,19.86328125 25.72265625,19.86328125 29.6923828125,25.6787109375 32.9443359375,31.4794921875 35.1416015625,37.2216796875 35.745849609375,40.059814453125 35.947265625,42.861328125 35.302734375,47.578125 33.5302734375,51.708984375 30.8642578125,55.13671875 27.5244140625,57.7294921875 23.73046875,59.3701171875 19.74609375,59.94140625 17.2412109375,59.70703125 14.82421875,59.00390625 12.59033203125,57.850341796875 10.634765625,56.2646484375 8.997802734375,54.254150390625 7.71972608566284,51.826171875 6.89575147628784,48.99169921875 6.62109375,45.76171875 6.79687452316284,42.94921875 10.1220703125,42.0556640625 13.359375,40.25390625 16.259765625,37.6171875 18.6181640625,34.2333984375 20.2001953125,30.205078125 20.771484375,25.634765625 20.595703125,22.8369140625 19.921875,19.86328125 0,19.86328125 0,15.556640625 17.080078125,15.556640625 15.6591796875,13.564453125 14.384765625,11.4404296875 13.4765625,9.1552734375 13.125,6.6796875 13.505859375,4.27734422683716 14.8095703125,2.18261671066284 17.255859375,0.673828601837158 18.9697265625,0.212405264377594 21.064453125,0z" />
    </g>
  </g>
</svg>