<?xml version="1.0" encoding="utf-8"?>
<!DOCTYPE svg PUBLIC "-//W3C//DTD SVG 1.1//EN" "http://www.w3.org/Graphics/SVG/1.1/DTD/svg11.dtd">
<svg width="32.548828125" height="46.93359375" xmlns="http://www.w3.org/2000/svg" xmlns:xlink="http://www.w3.org/1999/xlink" xmlns:xml="http://www.w3.org/XML/1998/namespace" version="1.1">
  <g>
    <g>
      <path style="fill:#FF0000;fill-opacity:1" d="M21.591796875,15.76171875L18.8671875,16.435546875 15.703125,17.724609375 12.4072265625,19.3798828125 9.2724609375,21.123046875 6.591796875,22.734375 4.6875,23.96484375 4.6875,24.609375 9.03442287445068,26.473388671875 13.3447265625,28.9599609375 17.508544921875,32.083740234375 21.416015625,35.859375 21.591796875,35.859375 21.591796875,15.76171875z M9.462890625,0L12.1142578125,0.46875 13.9892578125,1.6845703125 15.1171875,3.3544921875 15.498046875,5.185546875 15.1318359375,6.9287109375 14.1357421875,8.3203125 12.65625,9.2578125 10.83984375,9.609375 9.0380859375,9.228515625 7.79296875,8.3056640625 7.03125,7.1484375 6.73828125,6.03515625 6.416015625,5.830078125 5.0830078125,7.5439453125 4.6875,9.462890625 5.0390625,11.30859375 5.9912109375,13.0224609375 7.412109375,14.501953125 9.169921875,15.615234375 15.234375,12.7294921875 21.591796875,10.927734375 21.591796875,2.080078125 32.548828125,2.080078125 32.548828125,6.38671875 26.396484375,6.38671875 26.396484375,46.93359375 23.525390625,46.93359375 20.9619140625,42.3193359375 17.3583984375,38.0712890625 13.06640625,34.3505859375 8.4814453125,31.2744140625 3.99902296066284,28.9599609375 0,27.568359375 0,21.26953125 2.53418016433716,19.599609375 5.361328125,17.8125 3.515625,16.318359375 1.9775390625,14.4873046875 0.9375,12.216796875 0.556640625,9.404296875 1.2890625,5.5517578125 3.251953125,2.578125 6.09375,0.673828601837158 9.462890625,0z" />
    </g>
  </g>
</svg>