<?xml version="1.0" encoding="utf-8"?>
<!DOCTYPE svg PUBLIC "-//W3C//DTD SVG 1.1//EN" "http://www.w3.org/Graphics/SVG/1.1/DTD/svg11.dtd">
<svg width="39.4921875000003" height="44.94140625" xmlns="http://www.w3.org/2000/svg" xmlns:xlink="http://www.w3.org/1999/xlink" xmlns:xml="http://www.w3.org/XML/1998/namespace" version="1.1">
  <g>
    <g>
      <path style="fill:#FF0000;fill-opacity:1" d="M19.013671875,0L19.39453125,0 21.3720703125,1.7578125 22.8076171875,3.779296875 23.671875,5.947265625 23.96484375,8.115234375 23.4375,11.5576171875 21.9580078125,14.82421875 19.6875,17.7392578125 16.7578125,20.1416015625 13.3154296875,21.8701171875 9.521484375,22.763671875 9.521484375,23.203125 14.267578125,24.873046875 19.2919921875,27.1875 24.140625,30.17578125 28.359375,33.8671875 28.53515625,33.8671875 28.53515625,0.087890625 39.4921875,0.087890625 39.4921875,4.39453125 33.33984375,4.39453125 33.33984375,44.94140625 30.46875,44.94140625 29.30419921875,42.6123046875 27.744140625,40.37109375 23.7451171875,36.240234375 18.955078125,32.6513671875 13.8720703125,29.70703125 8.994140625,27.509765625 4.83398342132568,26.162109375 4.83398342132568,19.453125 7.8515625,18.6474609375 11.044921875,17.40234375 14.0771484375,15.76171875 16.640625,13.7841796875 18.4130859375,11.513671875 19.072265625,9.0234375 18.80859375,7.470703125 17.0068359375,9.2724609375 14.3701171875,10.7958984375 11.2353515625,11.8505859375 7.91015625,12.24609375 4.9072265625,11.9091796875 2.38769459724426,10.8251953125 0.644530773162842,8.8916015625 0,5.9765625 0.3955078125,3.9404296875 1.46484351158142,2.28515625 3.04687476158142,1.1865234375 4.98046875,0.791015625 6.97265625,1.1865234375 8.583984375,2.255859375 9.6533203125,3.8232421875 10.048828125,5.712890625 9.9609375,6.6796875 9.66796875,7.529296875 9.9609375,7.822265625 12.509765625,7.0458984375 15.1025390625,5.6103515625 17.373046875,3.310546875 19.013671875,0z" />
    </g>
  </g>
</svg>