<?xml version="1.0" encoding="utf-8"?>
<!DOCTYPE svg PUBLIC "-//W3C//DTD SVG 1.1//EN" "http://www.w3.org/Graphics/SVG/1.1/DTD/svg11.dtd">
<svg width="59.501953125" height="49.98046875" xmlns="http://www.w3.org/2000/svg" xmlns:xlink="http://www.w3.org/1999/xlink" xmlns:xml="http://www.w3.org/XML/1998/namespace" version="1.1">
  <g>
    <g>
      <path style="fill:#FF0000;fill-opacity:1" d="M0,0L59.501953125,0 59.501953125,4.306640625 38.4375,4.306640625 40.078125,7.529296875 42.685546875,9.7119140625 45.7763671875,11.0595703125 48.896484375,11.77734375 51.591796875,12.0556640625 53.408203125,12.099609375 56.396484375,15.3515625 54.3456993103027,19.48974609375 52.8808555603027,23.583984375 52.0019493103027,27.63427734375 51.708984375,31.640625 51.9580039978027,35.372314453125 52.705078125,39.0673828125 53.9501914978027,42.784423828125 55.693359375,46.58203125 52.529296875,49.98046875 50.0463829040527,45.853271484375 48.28125,41.3232421875 47.2265625,36.536865234375 46.875,31.640625 47.109375,27.5830078125 47.8125,23.61328125 48.984375,19.8046875 50.625,16.23046875 47.4755859375,15.908203125 44.0625,15.1025390625 40.6640625,13.6669921875 37.55859375,11.4697265625 35.0390625,8.3935546875 33.427734375,4.306640625 30.3515625,4.306640625 27.216796875,6.943359375 24.873046875,10.0927734375 23.3935546875,13.4912109375 22.880859375,16.875 23.14453125,19.1162109375 23.9501953125,20.91796875 25.2978515625,22.1337890625 27.158203125,22.587890625 29.4580078125,22.1044921875 31.6259765625,20.8740234375 33.57421875,19.2333984375 35.185546875,17.5048828125 36.3427734375,16.025390625 36.943359375,15.1171875 37.353515625,15.1171875 40.0048828125,17.6806640625 41.9384765625,20.9619140625 43.1103515625,24.6826171875 43.505859375,28.564453125 43.238525390625,31.67724609375 42.4365234375,34.62890625 41.129150390625,37.32421875 39.345703125,39.66796875 37.100830078125,41.612548828125 34.4091796875,43.1103515625 31.300048828125,44.066162109375 27.802734375,44.384765625 24.19921875,44.04052734375 21.005859375,43.0078125 18.175048828125,41.370849609375 15.6591796875,39.2138671875 13.4436025619507,36.580810546875 11.513671875,33.515625 8.349609375,26.42578125 5.91796875,18.45703125 3.98437523841858,10.13671875 7.35351514816284,7.529296875 7.529296875,7.529296875 9.697265625,15.849609375 12.1875,23.466796875 15.1318359375,30.029296875 16.812744140625,32.808837890625 18.662109375,35.1708984375 20.69091796875,37.086181640625 22.91015625,38.525390625 25.3344707489014,39.42626953125 27.978515625,39.7265625 32.1533203125,38.9794921875 35.68359375,36.8408203125 38.115234375,33.4716796875 38.79638671875,31.380615234375 39.0234375,29.0625 38.6572265625,25.927734375 37.5,22.705078125 35.093994140625,25.067138671875 32.5634765625,26.6455078125 30.0109844207764,27.535400390625 27.5390625,27.83203125 25.6018047332764,27.615966796875 23.8330078125,26.9677734375 20.91796875,24.580078125 18.9990234375,20.9619140625 18.310546875,16.435546875 18.636474609375,13.1066913604736 19.6142578125,9.9169921875 21.177978515625,6.954345703125 23.26171875,4.306640625 0,4.306640625 0,0z" />
    </g>
  </g>
</svg>