<?xml version="1.0" encoding="utf-8"?>
<!DOCTYPE svg PUBLIC "-//W3C//DTD SVG 1.1//EN" "http://www.w3.org/Graphics/SVG/1.1/DTD/svg11.dtd">
<svg width="36.0937500000002" height="45.263671875" xmlns="http://www.w3.org/2000/svg" xmlns:xlink="http://www.w3.org/1999/xlink" xmlns:xml="http://www.w3.org/XML/1998/namespace" version="1.1">
  <g>
    <g>
      <path style="fill:#FF0000;fill-opacity:1" d="M12.71484375,0L15.0146484375,0.230712890625 17.05078125,0.9228515625 20.4345703125,3.33984375 23.02734375,6.708984375 24.9609375,10.458984375 25.13671875,10.458984375 25.13671875,1.58203172683716 36.09375,1.58203172683716 36.09375,5.888671875 29.94140625,5.888671875 29.94140625,45.263671875 25.13671875,45.263671875 25.13671875,21.796875 22.6171875,15.029296875 21.2988262176514,12.103271484375 19.86328125,9.5947265625 18.277587890625,7.5439453125 16.5087890625,5.9912109375 14.512939453125,5.013427734375 12.24609375,4.6875 10.4626455307007,4.88525390625 8.9208984375,5.478515625 6.5478515625,7.55859375 5.1123046875,10.4736328125 4.62890625,13.740234375 5.0390625,16.2890625 6.2109375,17.666015625 6.533203125,17.607421875 6.796875,16.1865234375 7.6025390625,14.794921875 8.9794921875,13.740234375 10.95703125,13.330078125 12.890625,13.7109375 14.384765625,14.7216796875 15.3369140625,16.171875 15.673828125,17.87109375 15.3955078125,19.5263671875 14.4140625,21.2548828125 12.5244140625,22.6025390625 9.521484375,23.14453125 5.9619140625,22.5 2.91503834724426,20.56640625 0.791015386581421,17.34375 0.197753697633743,15.2417011260986 0,12.802734375 0.278320103883743,9.898681640625 1.11328101158142,7.3388671875 2.39868140220642,5.1416015625 4.02831935882568,3.3251953125 5.947265625,1.893310546875 8.1005859375,0.849609851837158 10.3894033432007,0.212402403354645 12.71484375,0z" />
    </g>
  </g>
</svg>