<?xml version="1.0" encoding="utf-8"?>
<!DOCTYPE svg PUBLIC "-//W3C//DTD SVG 1.1//EN" "http://www.w3.org/Graphics/SVG/1.1/DTD/svg11.dtd">
<svg width="40.60546875" height="44.853515625" xmlns="http://www.w3.org/2000/svg" xmlns:xlink="http://www.w3.org/1999/xlink" xmlns:xml="http://www.w3.org/XML/1998/namespace" version="1.1">
  <g>
    <g>
      <path style="fill:#FF0000;fill-opacity:1" d="M22.763671875,17.8125L19.8486328125,19.1748046875 16.9482421875,20.68359375 14.443359375,22.1044921875 12.71484375,23.203125 12.71484375,23.84765625 17.0654296875,25.5029296875 21.3720703125,27.5537109375 25.5322265625,30.234375 29.443359375,33.779296875 29.619140625,33.779296875 29.619140625,25.078125 26.3671875,21.4013671875 22.763671875,17.8125z M10.166015625,4.306640625L12.843017578125,5.32470703125 15.5419921875,6.73828125 20.771484375,10.2978515625 25.5615234375,14.3115234375 29.619140625,18.134765625 29.619140625,4.306640625 10.166015625,4.306640625z M0,0L40.60546875,0 40.60546875,4.306640625 34.423828125,4.306640625 34.423828125,44.853515625 31.552734375,44.853515625 28.9892578125,40.341796875 25.3857421875,36.3427734375 21.09375,32.9296875 16.5087890625,30.1611328125 12.0263671875,28.095703125 8.02734375,26.806640625 8.02734375,20.5078125 12.802734375,17.5927734375 18.80859375,14.501953125 12.451171875,10.5322265625 9.07470703125,9.093017578125 5.56640625,8.14453125 5.56640625,4.306640625 0,4.306640625 0,0z" />
    </g>
  </g>
</svg>