<?xml version="1.0" encoding="utf-8"?>
<!DOCTYPE svg PUBLIC "-//W3C//DTD SVG 1.1//EN" "http://www.w3.org/Graphics/SVG/1.1/DTD/svg11.dtd">
<svg width="38.37890625" height="60.791015625" xmlns="http://www.w3.org/2000/svg" xmlns:xlink="http://www.w3.org/1999/xlink" xmlns:xml="http://www.w3.org/XML/1998/namespace" version="1.1">
  <g>
    <g>
      <path style="fill:#FF0000;fill-opacity:1" d="M0,0L4.8046875,0 5.159912109375,1.97387981414795 5.69824171066284,3.5595703125 7.25097608566284,5.771484375 9.3310546875,6.8994140625 11.77734375,7.20703125 14.384765625,7.00195264816284 17.0654296875,6.53320360183716 19.7021484375,6.06445360183716 22.177734375,5.859375 25.0122051239014,6.07178020477295 27.36328125,6.708984375 29.2822246551514,7.70508098602295 30.8203125,8.994140625 32.87109375,12.3193359375 33.837890625,16.2890625 37.529296875,16.2890625 37.529296875,20.595703125 18.57421875,20.595703125 18.80859375,21.240234375 19.130859375,22.265625 19.453125,23.349609375 19.6875,24.140625 24.580078125,24.990234375 28.7255859375,27.041015625 31.611328125,30.1318359375 32.42431640625,32.017822265625 32.6953125,34.072265625 32.4462890625,36.064453125 31.69921875,37.880859375 29.0771484375,40.9716796875 25.3857421875,43.3154296875 21.2109375,44.8828125 21.2109375,45.05859375 26.2646484375,47.3291015625 30.966796875,50.244140625 35.0830078125,53.7451171875 38.37890625,57.71484375 35.33203125,60.791015625 32.8125,57.802734375 29.091796875,54.55078125 24.345703125,51.3427734375 18.7353515625,48.486328125 12.421875,46.2890625 5.56640625,45.05859375 6.03515625,40.224609375 7.2216796875,40.341796875 8.5986328125,40.5322265625 10.0341796875,40.78125 11.3671875,41.044921875 12.4951171875,41.162109375 13.798828125,41.220703125 16.7431640625,41.0302734375 19.86328125,40.458984375 22.8369140625,39.5068359375 25.3564453125,38.14453125 27.1142578125,36.357421875 27.7734375,34.16015625 27.1142578125,31.9775390625 25.4443359375,30.3955078125 23.2470703125,29.443359375 21.03515625,29.12109375 20.830078125,29.12109375 20.595703125,29.150390625 19.306640625,31.58203125 17.4169921875,33.3544921875 15.2490234375,34.4384765625 13.125,34.8046875 11.4111328125,34.482421875 10.166015625,33.603515625 9.4189453125,32.3291015625 9.169921875,30.8203125 9.638671875,28.740234375 10.8984375,26.9970703125 12.7294921875,25.6494140625 14.912109375,24.755859375 14.6337890625,23.8916015625 14.2236328125,22.6904296875 13.7841796875,21.4892578125 13.388671875,20.595703125 0,20.595703125 0,16.2890625 29.033203125,16.2890625 27.9931640625,13.330078125 26.3818359375,11.5576171875 24.345703125,10.7080078125 22.060546875,10.48828125 19.6435546875,10.6787109375 17.5048828125,11.1181640625 15.2197265625,11.5576171875 12.36328125,11.748046875 9.232177734375,11.5100126266479 6.63574171066284,10.7958984375 4.5263671875,9.67895793914795 2.8564453125,8.232421875 1.60400390625,6.49292278289795 0.747070014476776,4.4970703125 0,0z" />
    </g>
  </g>
</svg>