<?xml version="1.0" encoding="utf-8"?>
<!DOCTYPE svg PUBLIC "-//W3C//DTD SVG 1.1//EN" "http://www.w3.org/Graphics/SVG/1.1/DTD/svg11.dtd">
<svg width="56.71875" height="44.853515625" xmlns="http://www.w3.org/2000/svg" xmlns:xlink="http://www.w3.org/1999/xlink" xmlns:xml="http://www.w3.org/XML/1998/namespace" version="1.1">
  <g>
    <g>
      <path style="fill:#FF0000;fill-opacity:1" d="M0,0L56.71875,0 56.71875,4.306640625 9.814453125,4.306640625 14.35546875,6.2109375 18.80859375,9.228515625 22.6025390625,12.9931640625 24.085693359375,15.0476093292236 25.166015625,17.138671875 21.85546875,18.45703125 18.22265625,20.15625 14.94140625,21.85546875 13.6376943588257,22.6025390625 12.71484375,23.203125 12.71484375,23.84765625 17.0654296875,25.5029296875 21.3720703125,27.5537109375 25.5322265625,30.234375 29.443359375,33.779296875 29.619140625,33.779296875 29.619140625,8.701171875 34.423828125,8.701171875 38.89892578125,8.924560546875 42.7734375,9.5947265625 46.051025390625,10.675048828125 48.7353515625,12.12890625 50.8264122009277,13.9379901885986 52.32421875,16.083984375 53.2250938415527,18.5375995635986 53.525390625,21.26953125 52.9248046875,24.5947265625 51.1083984375,27.5537109375 48.076171875,29.677734375 46.10595703125,30.29296875 43.828125,30.498046875 40.8251953125,29.9560546875 38.9501953125,28.59375 37.9833984375,26.865234375 37.705078125,25.1953125 38.0419921875,23.5107421875 38.994140625,22.0751953125 40.4736328125,21.064453125 42.392578125,20.68359375 44.3994140625,21.1083984375 45.7763671875,22.1630859375 46.58203125,23.5546875 46.845703125,24.9609375 47.16796875,25.01953125 47.8271484375,24.31640625 48.3544921875,23.37890625 48.7060546875,22.353515625 48.837890625,21.328125 48.59619140625,19.4604511260986 47.87109375,17.841796875 46.6845703125,16.4758319854736 45.05859375,15.3662109375 43.004150390625,14.5056171417236 40.5322265625,13.88671875 34.423828125,13.388671875 34.423828125,44.853515625 31.552734375,44.853515625 28.9892578125,40.341796875 25.3857421875,36.3427734375 21.09375,32.9296875 16.5087890625,30.1611328125 12.0263671875,28.095703125 8.02734375,26.806640625 8.02734375,20.5078125 12.6708984375,17.63671875 18.076171875,14.853515625 15.05859375,12.099609375 11.630859375,10.1806640625 8.3056640625,8.935546875 5.56640625,8.14453125 5.56640625,4.306640625 0,4.306640625 0,0z" />
    </g>
  </g>
</svg>