<?xml version="1.0" encoding="utf-8"?>
<!DOCTYPE svg PUBLIC "-//W3C//DTD SVG 1.1//EN" "http://www.w3.org/Graphics/SVG/1.1/DTD/svg11.dtd">
<svg width="30.263671875" height="31.58203125" xmlns="http://www.w3.org/2000/svg" xmlns:xlink="http://www.w3.org/1999/xlink" xmlns:xml="http://www.w3.org/XML/1998/namespace" version="1.1">
  <g>
    <g>
      <path style="fill:#FF0000;fill-opacity:1" d="M15.498046875,4.8046875L13.011474609375,5.05005025863647 10.8251953125,5.7861328125 7.4267578125,8.37890625 5.361328125,12.0556640625 4.658203125,16.318359375 5.3466796875,20.419921875 7.3095703125,23.7451171875 10.4150390625,25.986328125 12.352294921875,26.6015625 14.501953125,26.806640625 16.812744140625,26.575927734375 18.9404296875,25.8837890625 22.44140625,23.3935546875 24.7412109375,19.7314453125 25.3674297332764,17.567138671875 25.576171875,15.263671875 24.931640625,11.3525390625 23.0126953125,8.0126953125 19.86328125,5.68359375 17.83447265625,5.02441549301147 15.498046875,4.8046875z M15.8203125,0L19.017333984375,0.3076171875 21.8701171875,1.23046875 24.3493633270264,2.67333984375 26.42578125,4.541015625 28.077392578125,6.78589010238647 29.2822265625,9.3603515625 30.018310546875,12.1691913604736 30.263671875,15.1171875 29.945068359375,18.486328125 28.9892578125,21.62109375 27.48779296875,24.437255859375 25.5322265625,26.8505859375 23.1591777801514,28.824462890625 20.4052734375,30.322265625 17.362060546875,31.26708984375 14.12109375,31.58203125 10.938720703125,31.263427734375 8.1298828125,30.3076171875 5.712890625,28.82080078125 3.7060546875,26.9091796875 2.11669874191284,24.620361328125 0.9521484375,22.001953125 0.238037109375,19.16748046875 0,16.23046875 0.303955078125,12.894287109375 1.2158203125,9.7998046875 2.65869092941284,7.02758932113647 4.5556640625,4.658203125 6.8701171875,2.720947265625 9.5654296875,1.2451171875 12.572021484375,0.311279296875 15.8203125,0z" />
    </g>
  </g>
</svg>