<?xml version="1.0" encoding="utf-8"?>
<!DOCTYPE svg PUBLIC "-//W3C//DTD SVG 1.1//EN" "http://www.w3.org/Graphics/SVG/1.1/DTD/svg11.dtd">
<svg width="41.71875" height="43.388671875" xmlns="http://www.w3.org/2000/svg" xmlns:xlink="http://www.w3.org/1999/xlink" xmlns:xml="http://www.w3.org/XML/1998/namespace" version="1.1">
  <g>
    <g>
      <path style="fill:#FF0000;fill-opacity:1" d="M18.515625,22.060546875L13.974609375,22.5732421875 9.90234375,23.935546875 9.90234375,26.484375 10.0524892807007,29.64111328125 10.5029296875,32.255859375 11.1547842025757,34.376220703125 11.9091796875,36.0498046875 12.725830078125,37.298583984375 13.564453125,38.14453125 14.912109375,38.7890625 17.054443359375,38.499755859375 19.0869140625,37.6318359375 20.9362773895264,36.265869140625 22.529296875,34.482421875 24.8583984375,29.82421875 25.5065898895264,27.07763671875 25.72265625,24.169921875 25.517578125,23.876953125 22.1630859375,22.5 18.515625,22.060546875z M4.48242282867432,0L5.88134765625,0.1904296875 7.03125,0.76171875 8.701171875,2.75390625 9.6240234375,5.537109375 9.90234375,8.671875 9.90234375,18.8671875 13.7841796875,17.6806640625 18.134765625,17.28515625 22.3388671875,17.724609375 26.103515625,19.04296875 27.48046875,18.3544921875 28.857421875,17.98828125 30.3515625,17.841796875 32.080078125,17.8125 34.013671875,17.666015625 35.5224609375,17.138671875 36.5185546875,16.0986328125 36.884765625,14.384765625 36.8115234375,13.5498046875 36.5625,12.626953125 36.5625,12.451171875 40.37109375,9.580078125 40.546875,9.580078125 41.42578125,11.9165048599243 41.71875,14.296875 41.0888671875,17.63671875 39.2724609375,20.2587890625 36.357421875,21.9873046875 32.431640625,22.6171875 30.234375,22.79296875 30.64453125,24.755859375 30.2197265625,28.1103515625 28.9306640625,32.109375 26.7333984375,36.2109375 23.5693359375,39.8291015625 19.3798828125,42.4072265625 16.893310546875,43.143310546875 14.150390625,43.388671875 12.9052734375,43.0810546875 11.07421875,42.01171875 9.0087890625,40.0048828125 7.0751953125,36.8701171875 5.654296875,32.4169921875 5.23681640625,29.652099609375 5.09765625,26.484375 5.09765625,9.375 5.0830078125,8.1884765625 5.068359375,6.97265625 4.892578125,6.943359375 3.28125023841858,7.44140625 2.08007788658142,7.177734375 1.02539086341858,6.474609375 0.278320550918579,5.4345703125 0,4.130859375 0.278320550918579,2.75390625 1.12792992591858,1.40625 2.53417992591858,0.3955078125 4.48242282867432,0z" />
    </g>
  </g>
</svg>