<?xml version="1.0" encoding="utf-8"?>
<!DOCTYPE svg PUBLIC "-//W3C//DTD SVG 1.1//EN" "http://www.w3.org/Graphics/SVG/1.1/DTD/svg11.dtd">
<svg width="38.173828125" height="28.095703125" xmlns="http://www.w3.org/2000/svg" xmlns:xlink="http://www.w3.org/1999/xlink" xmlns:xml="http://www.w3.org/XML/1998/namespace" version="1.1">
  <g>
    <g>
      <path style="fill:#FF0000;fill-opacity:1" d="M33.984375,0L38.173828125,2.080078125 36.5771484375,5.537109375 34.39453125,9.580078125 31.6552734375,13.88671875 28.3740234375,18.134765625 24.5947265625,22.001953125 20.33203125,25.166015625 15.6005859375,27.3046875 13.077392578125,27.89794921875 10.458984375,28.095703125 7.8662109375,27.890625 5.3759765625,27.2607421875 2.81250047683716,26.2353515625 0,24.84375 2.6953125,20.595703125 4.5703125,21.5625 6.2109375,21.9140625 8.0859375,21.474609375 9.697265625,20.302734375 10.8251953125,18.6181640625 11.25,16.640625 10.8544921875,14.912109375 9.814453125,13.623046875 8.3203125,12.8173828125 6.5625,12.5390625 3.92578125,13.18359375 0.556640625,10.83984375 2.010498046875,9.627685546875 3.5595703125,8.8037109375 6.796875,8.173828125 10.01953125,8.7744140625 12.7880859375,10.4443359375 14.736328125,13.0078125 15.46875,16.259765625 15.2783203125,18.046875 14.70703125,19.8779296875 13.7255859375,21.5478515625 12.333984375,22.8515625 12.421875,22.998046875 15.443115234375,22.08984375 18.3544921875,20.537109375 21.1669902801514,18.387451171875 23.8916015625,15.6884765625 26.5319805145264,12.4658203125 29.091796875,8.7451171875 31.57470703125,4.57397603988647 33.984375,0z" />
    </g>
  </g>
</svg>