<?xml version="1.0" encoding="utf-8"?>
<!DOCTYPE svg PUBLIC "-//W3C//DTD SVG 1.1//EN" "http://www.w3.org/Graphics/SVG/1.1/DTD/svg11.dtd">
<svg width="63.427734375" height="65.771484375" xmlns="http://www.w3.org/2000/svg" xmlns:xlink="http://www.w3.org/1999/xlink" xmlns:xml="http://www.w3.org/XML/1998/namespace" version="1.1">
  <g>
    <g>
      <path style="fill:#FF0000;fill-opacity:1" d="M26.455078125,45.703125L22.5585918426514,51.13037109375 19.482421875,55.927734375 24.0893535614014,52.8369140625 29.70703125,48.662109375 26.455078125,45.703125z M17.34375,37.79296875L13.53515625,43.06640625 10.3125,48.046875 15.263671875,44.7509765625 20.68359375,40.6640625 17.34375,37.79296875z M33.896484375,36.357421875L31.376953125,39.462890625 29.033203125,42.421875 32.4609375,46.435546875 38.994140625,40.927734375 33.896484375,36.357421875z M24.78515625,28.447265625L21.181640625,32.87109375 24.78515625,37.3828125 25.4296875,36.84814453125 26.513671875,35.91796875 28.037109375,34.59228515625 30,32.87109375 24.78515625,28.447265625z M41.630859375,27.1875L36.826171875,32.87109375 41.630859375,38.583984375 44.4506797790527,36.11572265625 47.98828125,32.87109375 41.630859375,27.1875z M32.4609375,19.306640625L29.033203125,23.408203125 33.896484375,29.443359375 38.994140625,24.90234375 32.4609375,19.306640625z M10.3125,17.6953125L13.447265625,22.5878925323486 17.34375,28.0078125 20.68359375,25.13671875 15.439453125,21.1376972198486 10.3125,17.6953125z M19.482421875,9.84375L22.7636699676514,14.9560546875 26.455078125,20.0390625 29.70703125,17.109375 24.1040019989014,12.9052734375 19.482421875,9.84375z M27.5390625,0L30.99609375,5.63232421875 35.390625,11.865234375 43.974609375,3.83789038658142 45.05859375,4.921875 37.060546875,14.0332021713257 42.890625,21.298828125 53.14453125,11.689453125 54.228515625,12.7734375 44.765625,23.583984375 50.625,30.46875 62.34375,19.5703125 63.427734375,20.625 52.734375,32.87109375 57.69287109375,38.5986328125 63.427734375,45.1171875 62.34375,46.201171875 50.625,35.33203125 44.765625,42.1875 48.0267295837402,45.926513671875 50.6909141540527,48.9697265625 52.7581748962402,51.317138671875 54.228515625,52.96875 53.14453125,54.052734375 42.890625,44.443359375 37.060546875,51.708984375 45.05859375,60.849609375 43.974609375,61.904296875 35.390625,53.876953125 30.966796875,60.146484375 27.5390625,65.771484375 23.8403301239014,61.0107421875 18.896484375,56.923828125 18.33984375,57.890625 14.6484375,53.10791015625 9.7265625,49.072265625 9.169921875,50.0390625 5.25146436691284,45.06591796875 0,40.869140625 5.26611280441284,37.46337890625 11.396484375,32.87109375 5.48583936691284,28.4619140625 0,24.90234375 5.23681592941284,20.712890625 9.169921875,15.703125 9.7265625,16.669921875 14.6484375,12.63427734375 18.33984375,7.8515625 18.896484375,8.818359375 23.8256816864014,4.78271484375 27.5390625,0z" />
    </g>
  </g>
</svg>