<?xml version="1.0" encoding="utf-8"?>
<!DOCTYPE svg PUBLIC "-//W3C//DTD SVG 1.1//EN" "http://www.w3.org/Graphics/SVG/1.1/DTD/svg11.dtd">
<svg width="50.09765625" height="56.982421875" xmlns="http://www.w3.org/2000/svg" xmlns:xlink="http://www.w3.org/1999/xlink" xmlns:xml="http://www.w3.org/XML/1998/namespace" version="1.1">
  <g>
    <g>
      <path style="fill:#FF0000;fill-opacity:1" d="M14.326171875,24.84375L16.0107421875,25.272216796875 19.130859375,25.7958984375 20.2922058105469,25.9572601318359 21.8572998046875,26.1557006835938 23.8261413574219,26.3912200927734 26.19873046875,26.663818359375 28.9750671386719,26.9734954833984 32.1551513671875,27.3202514648438 35.7389831542969,27.7040863037109 39.7265625,28.125 39.7265625,28.798828125 30.87890625,29.765625 26.6125469207764,30.2041625976563 23.1005840301514,30.582275390625 20.3430156707764,30.8999633789063 18.33984375,31.1572265625 15.71044921875,31.585693359375 14.326171875,31.962890625 14.70703125,28.18359375 14.326171875,24.84375z M23.994140625,7.79296875L18.1329345703125,14.9487314224243 13.52783203125,20.7714862823486 10.1788330078125,25.2612323760986 8.0859375,28.41796875 10.2374267578125,31.6827392578125 13.61572265625,36.23291015625 18.2208251953125,42.0684814453125 24.052734375,49.189453125 26.2838745117188,47.6321411132813 28.875732421875,45.655517578125 31.8283081054688,43.2595825195313 35.1416015625,40.4443359375 41.9201622009277,34.427490234375 48.28125,28.4765625 41.8322715759277,22.4633808135986 34.9072265625,16.376953125 31.5390014648438,13.5443115234375 28.597412109375,11.16943359375 26.0824584960938,9.2523193359375 23.994140625,7.79296875z M28.447265625,0L29.0213012695313,1.22772216796875 30.010986328125,2.889404296875 31.4163208007813,4.98504638671875 33.2373046875,7.5146484375 35.5838012695313,10.6045532226563 38.565673828125,14.3811044692993 42.1829223632813,18.8442993164063 46.435546875,23.994140625 50.09765625,28.4765625 46.435546875,32.958984375 42.1234130859375,38.2058715820313 38.47412109375,42.725830078125 35.4876708984375,46.5188598632813 33.1640625,49.5849609375 31.3751220703125,52.0742797851563 29.99267578125,54.136962890625 29.0167236328125,55.7730102539063 28.447265625,56.982421875 25.1806640625,53.54736328125 21.357421875,50.80078125 22.060546875,50.390625 15.296630859375,44.329833984375 9.0087890625,39.0380859375 6.17706298828125,36.7977905273438 3.73168969154358,34.984130859375 1.67266857624054,33.5971069335938 0,32.63671875 2.79785180091858,30.7763671875 5.39062547683716,28.41796875 2.95898485183716,26.24267578125 0,24.228515625 1.54220592975616,23.3688354492188 3.42956566810608,22.1228046417236 5.66207885742188,20.4904193878174 8.23974609375,18.4716815948486 11.1625671386719,16.0665912628174 14.4305419921875,13.2751474380493 18.0436706542969,10.0973520278931 22.001953125,6.533203125 21.357421875,6.181640625 25.13671875,3.49365234375 28.447265625,0z" />
    </g>
  </g>
</svg>