<?xml version="1.0" encoding="utf-8"?>
<!DOCTYPE svg PUBLIC "-//W3C//DTD SVG 1.1//EN" "http://www.w3.org/Graphics/SVG/1.1/DTD/svg11.dtd">
<svg width="37.734375" height="52.6171875" xmlns="http://www.w3.org/2000/svg" xmlns:xlink="http://www.w3.org/1999/xlink" xmlns:xml="http://www.w3.org/XML/1998/namespace" version="1.1">
  <g>
    <g>
      <path style="fill:#FF0000;fill-opacity:1" d="M7.79296875,0L13.330078125,7.371826171875 18.57421875,13.6083984375 23.7524394989014,19.0393085479736 29.091796875,23.994140625 27.32666015625,11.5502939224243 24.78515625,0.175780773162842 31.083984375,0.87890625 37.734375,0.175780773162842 35.2349853515625,11.187744140625 33.44970703125,23.3349609375 32.3785400390625,36.617431640625 32.021484375,51.03515625 30.46875,51.03515625 30.22705078125,39.0673828125 29.501953125,28.18359375 23.8384990692139,33.446044921875 18.3325176239014,39.2724609375 12.9840078353882,45.662841796875 7.79296875,52.6171875 6.08642482757568,49.658203125 4.306640625,47.16796875 0,43.06640625 8.51806640625,39.13330078125 15.732421875,35.244140625 22.2949199676514,31.0693359375 28.857421875,26.279296875 22.7014141082764,21.71630859375 16.3037109375,17.63671875 12.8402709960938,15.6903085708618 8.968505859375,13.6889667510986 4.68841505050659,11.6326913833618 0,9.521484375 4.3359375,5.361328125 7.79296875,0z" />
    </g>
  </g>
</svg>