<?xml version="1.0" encoding="utf-8"?>
<!DOCTYPE svg PUBLIC "-//W3C//DTD SVG 1.1//EN" "http://www.w3.org/Graphics/SVG/1.1/DTD/svg11.dtd">
<svg width="50.5371093750008" height="67.3828125" xmlns="http://www.w3.org/2000/svg" xmlns:xlink="http://www.w3.org/1999/xlink" xmlns:xml="http://www.w3.org/XML/1998/namespace" version="1.1">
  <g>
    <g>
      <path style="fill:#FF0000;fill-opacity:1" d="M35.80078125,48.427734375L35.80078125,56.865234375 40.01953125,56.865234375 40.01953125,48.427734375 35.80078125,48.427734375z M10.517578125,48.427734375L10.517578125,56.865234375 14.736328125,56.865234375 14.736328125,48.427734375 10.517578125,48.427734375z M35.80078125,37.91015625L35.80078125,46.318359375 40.01953125,46.318359375 40.01953125,37.91015625 35.80078125,37.91015625z M10.517578125,37.91015625L10.517578125,46.318359375 14.736328125,46.318359375 14.736328125,37.91015625 10.517578125,37.91015625z M31.58203125,35.80078125L44.208984375,35.80078125 44.208984375,37.91015625 42.099609375,37.91015625 42.099609375,56.865234375 44.208984375,56.865234375 44.208984375,58.974609375 31.58203125,58.974609375 31.58203125,56.865234375 33.69140625,56.865234375 33.69140625,37.91015625 31.58203125,37.91015625 31.58203125,35.80078125z M6.328125,35.80078125L18.955078125,35.80078125 18.955078125,37.91015625 16.845703125,37.91015625 16.845703125,56.865234375 18.955078125,56.865234375 18.955078125,58.974609375 6.328125,58.974609375 6.328125,56.865234375 8.408203125,56.865234375 8.408203125,37.91015625 6.328125,37.91015625 6.328125,35.80078125z M35.80078125,21.064453125L35.80078125,29.47265625 40.01953125,29.47265625 40.01953125,21.064453125 35.80078125,21.064453125z M10.517578125,21.064453125L10.517578125,29.47265625 14.736328125,29.47265625 14.736328125,21.064453125 10.517578125,21.064453125z M35.80078125,10.517578125L35.80078125,18.955078125 40.01953125,18.955078125 40.01953125,10.517578125 35.80078125,10.517578125z M10.517578125,10.517578125L10.517578125,18.955078125 14.736328125,18.955078125 14.736328125,10.517578125 10.517578125,10.517578125z M31.58203125,8.4375L44.208984375,8.4375 44.208984375,10.517578125 42.099609375,10.517578125 42.099609375,29.47265625 44.208984375,29.47265625 44.208984375,31.58203125 31.58203125,31.58203125 31.58203125,29.47265625 33.69140625,29.47265625 33.69140625,10.517578125 31.58203125,10.517578125 31.58203125,8.4375z M6.328125,8.4375L18.955078125,8.4375 18.955078125,10.517578125 16.845703125,10.517578125 16.845703125,29.47265625 18.955078125,29.47265625 18.955078125,31.58203125 6.328125,31.58203125 6.328125,29.47265625 8.408203125,29.47265625 8.408203125,10.517578125 6.328125,10.517578125 6.328125,8.4375z M8.408203125,4.21874952316284L6.767578125,4.5556640625 5.4345703125,5.46386766433716 4.541015625,6.796875 4.21875,8.4375 4.21875,58.974609375 4.541015625,60.615234375 5.4345703125,61.9482421875 6.767578125,62.841796875 8.408203125,63.1640625 42.099609375,63.1640625 43.740234375,62.841796875 45.0732421875,61.9482421875 45.9814453125,60.615234375 46.318359375,58.974609375 46.318359375,8.4375 45.9814453125,6.796875 45.0732421875,5.46386766433716 43.740234375,4.5556640625 42.099609375,4.21874952316284 8.408203125,4.21874952316284z M8.408203125,0L42.099609375,0 45.3955078125,0.659179925918579 48.076171875,2.46093702316284 49.8779296875,5.1416015625 50.537109375,8.4375 50.537109375,58.974609375 49.86328125,62.2265625 48.046875,64.892578125 45.3662109375,66.708984375 42.099609375,67.3828125 8.408203125,67.3828125 5.1416015625,66.7236328125 2.4609375,64.921875 0.6591796875,62.2412109375 0,58.974609375 0,8.4375 0.673828125,5.1708984375 2.490234375,2.49023413658142 5.15625,0.673828601837158 8.408203125,0z" />
    </g>
  </g>
</svg>