<?xml version="1.0" encoding="utf-8"?>
<!DOCTYPE svg PUBLIC "-//W3C//DTD SVG 1.1//EN" "http://www.w3.org/Graphics/SVG/1.1/DTD/svg11.dtd">
<svg width="18.720703125" height="30.29296875" xmlns="http://www.w3.org/2000/svg" xmlns:xlink="http://www.w3.org/1999/xlink" xmlns:xml="http://www.w3.org/XML/1998/namespace" version="1.1">
  <g>
    <g>
      <path style="fill:#FF0000;fill-opacity:1" d="M13.681640625,2.783203125L12.7880859375,2.958984375 12.0556640625,3.4423828125 11.572265625,4.16015625 11.396484375,5.0390625 12.0703125,6.650390625 13.681640625,7.32421875 14.560546875,7.1484375 15.2783203125,6.6650390625 15.76171875,5.9326171875 15.9375,5.0390625 15.2783203125,3.4423828125 13.681640625,2.783203125z M13.65234375,0L15.6591796875,0.380859375 17.2705078125,1.4501953125 18.33984375,3.0615234375 18.720703125,5.068359375 18.720703125,30.29296875 14.23828125,30.29296875 0,16.7578125 0,11.42578125 14.326171875,25.078125 14.326171875,10.078125 13.9892578125,10.107421875 13.65234375,10.107421875 11.6455078125,9.7265625 10.048828125,8.671875 8.994140625,7.0751953125 8.61328125,5.068359375 8.994140625,3.0615234375 10.048828125,1.4501953125 11.6455078125,0.380859375 13.65234375,0z" />
    </g>
  </g>
</svg>