<?xml version="1.0" encoding="utf-8"?>
<!DOCTYPE svg PUBLIC "-//W3C//DTD SVG 1.1//EN" "http://www.w3.org/Graphics/SVG/1.1/DTD/svg11.dtd">
<svg width="26.8359375" height="30.52734375" xmlns="http://www.w3.org/2000/svg" xmlns:xlink="http://www.w3.org/1999/xlink" xmlns:xml="http://www.w3.org/XML/1998/namespace" version="1.1">
  <g>
    <g>
      <path style="fill:#FF0000;fill-opacity:1" d="M13.41796875,0L16.77978515625,0.223390102386475 19.599609375,0.8935546875 21.9140605926514,1.95922994613647 23.759765625,3.369140625 25.1513652801514,5.10498189926147 26.103515625,7.1484375 26.8359375,11.982421875 26.8359375,30.52734375 22.44140625,30.52734375 22.44140625,12.275390625 21.8884258270264,8.697509765625 20.2294921875,6.0498046875 17.427978515625,4.41284322738647 13.447265625,3.8671875 9.7265625,4.4091796875 6.9873046875,5.80078125 5.2001953125,7.705078125 4.365234375,9.78515625 11.484375,9.78515625 11.484375,13.2421875 8.73779296875,14.117431640625 6.767578125,15.5126953125 5.5810546875,17.420654296875 5.185546875,19.833984375 5.185546875,30.52734375 0.791015386581421,30.52734375 0.791015386581421,19.541015625 1.16088843345642,17.2412109375 2.27050757408142,15.439453125 4.06127882003784,14.08447265625 6.474609375,13.125 0,13.125 0,9.90234375 1.45019507408142,6.0205078125 4.16015625,2.87109375 8.14453125,0.76171875 10.6201162338257,0.190431118011475 13.41796875,0z" />
    </g>
  </g>
</svg>