<?xml version="1.0" encoding="utf-8"?>
<!DOCTYPE svg PUBLIC "-//W3C//DTD SVG 1.1//EN" "http://www.w3.org/Graphics/SVG/1.1/DTD/svg11.dtd">
<svg width="30.05859375" height="36.474609375" xmlns="http://www.w3.org/2000/svg" xmlns:xlink="http://www.w3.org/1999/xlink" xmlns:xml="http://www.w3.org/XML/1998/namespace" version="1.1">
  <g>
    <g>
      <path style="fill:#FF0000;fill-opacity:1" d="M17.490234375,22.96875L16.2744140625,23.466796875 15.76171875,24.66796875 16.259765625,25.8837890625 17.490234375,26.3671875 18.69140625,25.8837890625 19.189453125,24.66796875 18.69140625,23.4521484375 17.490234375,22.96875z M0,0L4.3359375,0 4.3359375,28.18359375 4.639892578125,30.069580078125 5.5517578125,31.4501953125 6.990966796875,32.296142578125 8.876953125,32.578125 21.181640625,32.578125 23.0603008270264,32.296142578125 24.4775390625,31.4501953125 25.3674297332764,30.069580078125 25.6640625,28.18359375 25.6640625,19.775390625 25.5322265625,18.1787109375 25.1220703125,16.875 24.375,15.99609375 23.232421875,15.673828125 22.2509746551514,15.897216796875 21.416015625,16.5673828125 20.8447246551514,17.625732421875 20.654296875,19.013671875 16.962890625,19.013671875 16.2451171875,16.5673828125 15.435791015625,15.897216796875 14.443359375,15.673828125 13.2421875,16.083984375 12.568359375,17.16796875 12.2607421875,18.69140625 12.1875,20.419921875 12.275390625,21.8994140625 12.5537109375,23.37890625 13.0517578125,24.6240234375 13.76953125,25.400390625 13.6962890625,25.0634765625 13.681640625,24.638671875 13.974609375,23.1298828125 14.765625,21.9287109375 15.9521484375,21.1376953125 17.4609375,20.859375 18.9697265625,21.1376953125 20.1708984375,21.9287109375 20.9765625,23.1298828125 21.26953125,24.638671875 20.9399394989014,26.44775390625 19.951171875,27.71484375 18.43505859375,28.4619140625 16.5234375,28.7109375 13.3740234375,28.1982421875 10.927734375,26.6455078125 9.345703125,24.052734375 8.7890625,20.419921875 9.0234375,17.2265625 9.90234375,14.53125 11.6455078125,12.6708984375 14.443359375,11.982421875 16.142578125,12.2607421875 17.40234375,13.0224609375 18.28125,14.1064453125 18.80859375,15.380859375 18.8671875,15.380859375 19.39453125,14.091796875 20.3759765625,13.0078125 21.796875,12.2607421875 23.642578125,11.982421875 26.2353515625,12.4658203125 28.271484375,13.9453125 29.58984375,16.4208984375 30.05859375,19.921875 30.05859375,28.447265625 29.6484375,31.318359375 28.271484375,33.896484375 25.7080078125,35.7568359375 23.9172344207764,36.295166015625 21.73828125,36.474609375 8.3203125,36.474609375 6.141357421875,36.295166015625 4.3505859375,35.7568359375 1.787109375,33.896484375 0.41015625,31.318359375 0,28.447265625 0,0z" />
    </g>
  </g>
</svg>