<?xml version="1.0" encoding="utf-8"?>
<!DOCTYPE svg PUBLIC "-//W3C//DTD SVG 1.1//EN" "http://www.w3.org/Graphics/SVG/1.1/DTD/svg11.dtd">
<svg width="22.03125" height="55.693359375" xmlns="http://www.w3.org/2000/svg" xmlns:xlink="http://www.w3.org/1999/xlink" xmlns:xml="http://www.w3.org/XML/1998/namespace" version="1.1">
  <g>
    <g>
      <path style="fill:#FF0000;fill-opacity:1" d="M16.962890625,48.369140625L16.083984375,48.544921875 15.3662109375,49.0283203125 14.8828125,49.7607421875 14.70703125,50.654296875 15.3662109375,52.2509765625 16.962890625,52.91015625 17.8564453125,52.734375 18.5888671875,52.2509765625 19.072265625,51.533203125 19.248046875,50.654296875 18.57421875,49.04296875 16.962890625,48.369140625z M9.375,0L11.7041015625,0.0878911018371582 14.033203125,0.292968988418579 16.2158203125,0.498046875 18.076171875,0.585937023162842 20.302734375,0.4833984375 21.6796875,0.292968988418579 21.6796875,4.27734375 20.3173828125,4.52636766433716 18.134765625,4.62890625 16.318359375,4.51171875 14.033203125,4.2626953125 11.6455078125,4.013671875 9.521484375,3.89648413658142 6.97265625,4.21875 5.31738233566284,5.15625 4.4091796875,6.6943359375 4.13085889816284,8.818359375 6.03515625,8.291015625 8.3203125,8.02734375 11.8798828125,8.5107421875 14.3701171875,10.0634765625 15.8349609375,12.83203125 16.197509765625,14.7216796875 16.318359375,16.9921875 16.318359375,45.64453125 16.6552734375,45.6005859375 16.9921875,45.5859375 18.9990234375,45.966796875 20.595703125,47.021484375 21.650390625,48.6181640625 22.03125,50.625 21.650390625,52.6318359375 20.595703125,54.2431640625 18.9990234375,55.3125 16.9921875,55.693359375 14.9853515625,55.3125 13.3740234375,54.2431640625 12.3046875,52.6318359375 11.923828125,50.625 11.923828125,16.9921875 11.6455068588257,14.622802734375 10.810546875,13.0810546875 9.38232421875,12.235107421875 7.32421875,11.953125 5.595703125,12.0849609375 3.69140577316284,12.4365234375 1.78710901737213,12.9345703125 0,13.505859375 0,9.84375 0.157470762729645,7.35351848602295 0.629882574081421,5.27343702316284 2.46093797683716,2.22656202316284 5.4052734375,0.527343988418579 9.375,0z" />
    </g>
  </g>
</svg>