<?xml version="1.0" encoding="utf-8"?>
<!DOCTYPE svg PUBLIC "-//W3C//DTD SVG 1.1//EN" "http://www.w3.org/Graphics/SVG/1.1/DTD/svg11.dtd">
<svg width="22.822265625" height="30.29296875" xmlns="http://www.w3.org/2000/svg" xmlns:xlink="http://www.w3.org/1999/xlink" xmlns:xml="http://www.w3.org/XML/1998/namespace" version="1.1">
  <g>
    <g>
      <path style="fill:#FF0000;fill-opacity:1" d="M5.0390625,2.783203125L3.4423828125,3.4423828125 2.783203125,5.0390625 2.958984375,5.9326171875 3.4423828125,6.6650390625 4.16015625,7.1484375 5.0390625,7.32421875 6.650390625,6.650390625 7.32421875,5.0390625 7.1484375,4.16015625 6.6650390625,3.4423828125 5.9326171875,2.958984375 5.0390625,2.783203125z M5.068359375,0L7.0751953125,0.380859375 8.671875,1.4501953125 9.7265625,3.0615234375 10.107421875,5.068359375 9.7265625,7.0751953125 8.671875,8.671875 7.0751953125,9.7265625 5.068359375,10.107421875 4.7314453125,10.107421875 4.39453125,10.078125 4.921875,12.1875 6.2109375,13.59375 7.79296875,14.4287109375 9.228515625,14.82421875 9.228515625,17.197265625 7.79296875,17.5927734375 6.2109375,18.3984375 4.921875,19.74609375 4.39453125,21.767578125 4.39453125,26.3671875 14.53125,26.3671875 16.190185546875,26.077880859375 17.4169921875,25.2099609375 18.175048828125,23.822021484375 18.427734375,21.97265625 18.427734375,0.29296875 22.822265625,0.29296875 22.822265625,22.265625 22.4560546875,25.13671875 21.1669921875,27.71484375 18.7060546875,29.5751953125 16.959228515625,30.113525390625 14.794921875,30.29296875 0,30.29296875 0,21.708984375 0.380859375,19.3505859375 1.376953125,17.6953125 2.75390625,16.6259765625 4.248046875,16.025390625 2.75390625,15.41015625 1.376953125,14.326171875 0.380859375,12.6708984375 0,10.3125 0,5.068359375 0.380859375,3.0615234375 1.4501953125,1.4501953125 3.0615234375,0.380859375 5.068359375,0z" />
    </g>
  </g>
</svg>