<?xml version="1.0" encoding="utf-8"?>
<!DOCTYPE svg PUBLIC "-//W3C//DTD SVG 1.1//EN" "http://www.w3.org/Graphics/SVG/1.1/DTD/svg11.dtd">
<svg width="23.759765625" height="30.52734375" xmlns="http://www.w3.org/2000/svg" xmlns:xlink="http://www.w3.org/1999/xlink" xmlns:xml="http://www.w3.org/XML/1998/namespace" version="1.1">
  <g>
    <g>
      <path style="fill:#FF0000;fill-opacity:1" d="M8.525390625,0L11.19140625,0.087890625 14.2822265625,0.29296875 17.2705078125,0.498046875 19.599609375,0.5859375 20.56640625,0.556640625 21.650390625,0.4833984375 22.6171875,0.3955078125 23.232421875,0.29296875 23.232421875,4.39453125 22.5732421875,4.5263671875 21.591796875,4.5849609375 20.5224609375,4.6142578125 19.599609375,4.62890625 17.34375,4.51171875 14.384765625,4.2626953125 11.3525390625,4.013671875 8.876953125,3.896484375 6.4013671875,4.4384765625 5.0537109375,5.771484375 4.482421875,7.44140625 4.365234375,8.994140625 5.712890625,8.7158203125 7.55859375,8.4814453125 9.5654296875,8.3056640625 11.42578125,8.232421875 14.53857421875,8.3642578125 17.138671875,8.759765625 19.266357421875,9.44091796875 20.9619140625,10.4296875 22.2363262176514,11.729736328125 23.1005859375,13.3447265625 23.759765625,17.607421875 23.759765625,22.5 23.3935546875,25.37109375 22.1044921875,27.94921875 19.6435546875,29.8095703125 17.896728515625,30.347900390625 15.732421875,30.52734375 0.380859613418579,30.52734375 0.380859613418579,16.7578125 4.775390625,16.7578125 4.775390625,26.6015625 15.322265625,26.6015625 16.99951171875,26.312255859375 18.28125,25.4443359375 19.09423828125,24.056396484375 19.365234375,22.20703125 19.365234375,17.666015625 18.9697265625,15.1025390625 17.6220703125,13.4326171875 15.1171875,12.5390625 13.36669921875,12.34130859375 11.220703125,12.275390625 7.9833984375,12.392578125 4.833984375,12.6708984375 2.08007836341858,13.037109375 0,13.41796875 0,9.78515625 0.3515625,5.91796875 1.65527367591858,2.8125 4.2626953125,0.7470703125 6.156005859375,0.186769008636475 8.525390625,0z" />
    </g>
  </g>
</svg>