<?xml version="1.0" encoding="utf-8"?>
<!DOCTYPE svg PUBLIC "-//W3C//DTD SVG 1.1//EN" "http://www.w3.org/Graphics/SVG/1.1/DTD/svg11.dtd">
<svg width="27.451171875" height="32.98828125" xmlns="http://www.w3.org/2000/svg" xmlns:xlink="http://www.w3.org/1999/xlink" xmlns:xml="http://www.w3.org/XML/1998/namespace" version="1.1">
  <g>
    <g>
      <path style="fill:#FF0000;fill-opacity:1" d="M14.58984375,17.021484375L13.6962890625,17.197265625 12.9638671875,17.6806640625 12.48046875,18.3984375 12.3046875,19.27734375 12.978515625,20.888671875 14.58984375,21.5625 15.46875,21.38671875 16.1865234375,20.9033203125 16.669921875,20.1708984375 16.845703125,19.27734375 16.1865234375,17.6806640625 14.58984375,17.021484375z M22.734375,0L27.451171875,0 26.2280254364014,3.17138814926147 24.375,5.947265625 26.6162109375,9.55078125 27.36328125,14.443359375 27.36328125,32.98828125 22.96875,32.98828125 22.96875,14.736328125 22.4853515625,11.5283203125 20.859375,8.818359375 19.0283203125,10.078125 17.05078125,11.279296875 12.861328125,11.279296875 13.9599609375,10.5322265625 15.3076171875,9.521484375 16.7578125,8.3349609375 18.134765625,7.08984375 16.11328125,6.5478515625 13.623046875,6.357421875 11.2719717025757,6.52588033676147 9.31640625,7.03125 6.4599609375,8.7451171875 4.8779296875,11.07421875 4.39453125,13.59375 4.7900390625,16.9189453125 5.537109375,19.8046875 7.03125,17.666015625 8.876953125,15.8642578125 11.19140625,14.619140625 14.0625,14.150390625 16.259765625,14.4873046875 18.0322265625,15.4833984375 19.2041015625,17.109375 19.62890625,19.306640625 19.248046875,21.3134765625 18.1787109375,22.91015625 16.5673828125,23.96484375 14.560546875,24.345703125 12.5537109375,23.96484375 10.95703125,22.91015625 9.90234375,21.3134765625 9.521484375,19.306640625 9.580078125,18.896484375 8.583984375,19.921875 7.587890625,21.4599609375 6.8115234375,23.49609375 6.50390625,26.044921875 6.50390625,32.98828125 2.109375,32.98828125 2.109375,24.9609375 1.7431640625,22.294921875 1.02539038658142,19.7314453125 0.322265625,16.9482421875 0,13.59375 0.238037109375,11.0302734375 0.9521484375,8.7890625 2.109375,6.87744283676147 3.6767578125,5.302734375 7.96875,3.1787109375 13.623046875,2.4609375 17.666015625,2.78320455551147 21.064453125,3.75 22.1484375,1.81640625 22.734375,0z" />
    </g>
  </g>
</svg>