<?xml version="1.0" encoding="utf-8"?>
<!DOCTYPE svg PUBLIC "-//W3C//DTD SVG 1.1//EN" "http://www.w3.org/Graphics/SVG/1.1/DTD/svg11.dtd">
<svg width="21.50390625" height="55.693359375" xmlns="http://www.w3.org/2000/svg" xmlns:xlink="http://www.w3.org/1999/xlink" xmlns:xml="http://www.w3.org/XML/1998/namespace" version="1.1">
  <g>
    <g>
      <path style="fill:#FF0000;fill-opacity:1" d="M16.083984375,48.369140625L15.205078125,48.544921875 14.4873046875,49.0283203125 14.00390625,49.7607421875 13.828125,50.654296875 14.4873046875,52.2509765625 16.083984375,52.91015625 16.9775390625,52.734375 17.7099609375,52.2509765625 18.193359375,51.533203125 18.369140625,50.654296875 17.6953125,49.04296875 16.083984375,48.369140625z M5.390625,8.642578125L4.51171922683716,8.818359375 3.7939453125,9.3017578125 3.310546875,10.0341796875 3.13476610183716,10.927734375 3.7939453125,12.5244140625 5.390625,13.18359375 6.2841796875,13.0078125 7.0166015625,12.5244140625 7.5,11.806640625 7.67578125,10.927734375 7.001953125,9.31640625 5.390625,8.642578125z M10.634765625,0L15.234375,0.585937023162842 18.4716796875,2.22656202316284 20.4931640625,4.7314453125 21.50390625,7.91015625 18.93310546875,9.254150390625 17.021484375,11.4697265625 15.8349609375,14.483642578125 15.439453125,18.22265625 15.439453125,45.64453125 15.7763671875,45.6005859375 16.11328125,45.5859375 18.1201171875,45.966796875 19.716796875,47.021484375 20.771484375,48.6181640625 21.15234375,50.625 20.771484375,52.6318359375 19.716796875,54.2431640625 18.1201171875,55.3125 16.11328125,55.693359375 14.1064453125,55.3125 12.4951171875,54.2431640625 11.42578125,52.6318359375 11.044921875,50.625 11.044921875,18.1640625 11.4257802963257,14.4580078125 12.568359375,11.54296875 14.46533203125,9.3603515625 17.109375,7.85156202316284 16.6552734375,6.43066453933716 15.556640625,5.06835889816284 13.5791015625,4.05761766433716 10.48828125,3.66210913658142 6.767578125,4.2626953125 5.36132764816284,4.99145793914795 4.423828125,5.97656202316284 4.8779296875,5.888671875 5.419921875,5.859375 7.4267578125,6.240234375 9.0234375,7.294921875 10.078125,8.8916015625 10.458984375,10.8984375 10.078125,12.9052734375 9.0234375,14.5166015625 7.4267578125,15.5859375 5.419921875,15.966796875 3.046875,15.46875 1.34765601158142,14.1064453125 0.336914420127869,12.041015625 0,9.43359375 0.541992545127869,6.181640625 2.3291015625,3.13476610183716 3.77197265625,1.88232707977295 5.6103515625,0.878906011581421 7.884521484375,0.219729393720627 10.634765625,0z" />
    </g>
  </g>
</svg>