<?xml version="1.0" encoding="utf-8"?>
<!DOCTYPE svg PUBLIC "-//W3C//DTD SVG 1.1//EN" "http://www.w3.org/Graphics/SVG/1.1/DTD/svg11.dtd">
<svg width="48.662109375" height="30.99609375" xmlns="http://www.w3.org/2000/svg" xmlns:xlink="http://www.w3.org/1999/xlink" xmlns:xml="http://www.w3.org/XML/1998/namespace" version="1.1">
  <g>
    <g>
      <path style="fill:#FF0000;fill-opacity:1" d="M5.68359375,23.671875L4.8046875,23.84765625 4.0869140625,24.3310546875 3.60351610183716,25.0634765625 3.42773389816284,25.95703125 4.0869140625,27.5537109375 5.68359375,28.212890625 6.5771484375,28.037109375 7.3095703125,27.5537109375 7.79296875,26.8359375 7.96875,25.95703125 7.294921875,24.345703125 5.68359375,23.671875z M41.42578125,22.67578125L41.42578125,26.044921875 41.923828125,27.6123046875 43.095703125,28.06640625 44.23828125,27.59765625 44.736328125,26.015625 44.501953125,24.7998046875 43.828125,23.7890625 42.7880859375,23.056640625 41.42578125,22.67578125z M12.83203125,0L16.19384765625,0.223390102386475 18.955078125,0.8935546875 21.1743144989014,1.95922994613647 22.91015625,3.369140625 24.1882305145264,5.10498189926147 25.0341796875,7.1484375 25.6640625,11.982421875 25.6640625,25.3125 28.1396484375,23.2177734375 31.083984375,21.6064453125 34.16015625,20.4931640625 37.03125,19.86328125 37.03125,0.52734375 41.42578125,0.52734375 41.42578125,19.74609375 44.1796875,20.33203125 46.494140625,21.591796875 48.076171875,23.49609375 48.662109375,26.015625 48.3178672790527,28.048095703125 47.28515625,29.6337890625 45.5493125915527,30.655517578125 43.095703125,30.99609375 40.2392578125,30.6005859375 38.3642578125,29.4873046875 37.3388671875,27.7294921875 37.03125,25.37109375 37.03125,22.79296875 34.0869140625,23.7890625 30.849609375,25.576171875 27.861328125,27.9052734375 25.6640625,30.52734375 21.26953125,30.52734375 21.26953125,12.275390625 20.8154296875,8.701171875 19.3505859375,6.064453125 16.7431640625,4.423828125 12.861328125,3.8671875 9.2578125,4.4091796875 6.708984375,5.80078125 5.1123046875,7.705078125 4.36523389816284,9.78515625 11.337890625,9.78515625 11.337890625,13.2421875 8.59130859375,14.117431640625 6.62109375,15.5126953125 5.4345703125,17.420654296875 5.0390625,19.833984375 5.0390625,20.91796875 5.3759765625,20.888671875 5.712890625,20.888671875 7.7197265625,21.26953125 9.31640625,22.32421875 10.37109375,23.9208984375 10.751953125,25.927734375 10.37109375,27.9345703125 9.31640625,29.5458984375 7.7197265625,30.615234375 5.712890625,30.99609375 3.7060546875,30.615234375 2.0947265625,29.5458984375 1.025390625,27.9345703125 0.64453125,25.927734375 0.64453125,19.541015625 1.0107421875,17.2412109375 2.10937547683716,15.439453125 3.88916015625,14.08447265625 6.298828125,13.125 0,13.125 0,9.90234375 1.3623046875,6.0205078125 3.8818359375,2.87109375 7.67578125,0.76171875 10.0781240463257,0.190431118011475 12.83203125,0z" />
    </g>
  </g>
</svg>