<?xml version="1.0" encoding="utf-8"?>
<!DOCTYPE svg PUBLIC "-//W3C//DTD SVG 1.1//EN" "http://www.w3.org/Graphics/SVG/1.1/DTD/svg11.dtd">
<svg width="23.232421875" height="30.99609375" xmlns="http://www.w3.org/2000/svg" xmlns:xlink="http://www.w3.org/1999/xlink" xmlns:xml="http://www.w3.org/XML/1998/namespace" version="1.1">
  <g>
    <g>
      <path style="fill:#FF0000;fill-opacity:1" d="M15.205078125,23.671875L13.59375,24.345703125 12.919921875,25.95703125 13.095703125,26.8359375 13.5791015625,27.5537109375 14.3115234375,28.037109375 15.205078125,28.212890625 16.8017578125,27.5537109375 17.4609375,25.95703125 17.28515625,25.0634765625 16.8017578125,24.3310546875 16.083984375,23.84765625 15.205078125,23.671875z M8.232421875,0L10.6787109375,0.087890625 13.271484375,0.29296875 15.7470703125,0.498046875 17.841796875,0.5859375 19.072265625,0.556640625 20.7568359375,0.4833984375 22.3388671875,0.3955078125 23.232421875,0.29296875 23.232421875,4.39453125 22.294921875,4.5263671875 20.712890625,4.5849609375 19.04296875,4.6142578125 17.841796875,4.62890625 15.8203125,4.51171875 13.3740234375,4.2626953125 10.83984375,4.013671875 8.583984375,3.896484375 7.1923828125,4.02465963363647 6.181640625,4.4091796875 4.98046875,5.6689453125 4.5556640625,7.2509765625 4.51171875,8.759765625 7.0458984375,8.3642578125 9.9609375,8.232421875 14.6044921875,8.759765625 17.8125,10.4296875 19.658203125,13.3447265625 20.244140625,17.607421875 20.244140625,25.927734375 19.86328125,27.9345703125 18.7939453125,29.5458984375 17.1826171875,30.615234375 15.17578125,30.99609375 13.1689453125,30.615234375 11.572265625,29.5458984375 10.517578125,27.9345703125 10.13671875,25.927734375 10.517578125,23.9208984375 11.572265625,22.32421875 13.1689453125,21.26953125 15.17578125,20.888671875 15.5126953125,20.888671875 15.849609375,20.91796875 15.849609375,17.666015625 15.46875,15.087890625 14.2529296875,13.3740234375 12.099609375,12.421875 8.876953125,12.12890625 6.7236328125,12.216796875 4.3212890625,12.4658203125 1.97753953933716,12.83203125 0,13.271484375 0,9.78515625 0.307617545127869,5.91796875 1.50878930091858,2.8125 4.013671875,0.7470703125 5.8740234375,0.186769008636475 8.232421875,0z" />
    </g>
  </g>
</svg>