<?xml version="1.0" encoding="utf-8"?>
<!DOCTYPE svg PUBLIC "-//W3C//DTD SVG 1.1//EN" "http://www.w3.org/Graphics/SVG/1.1/DTD/svg11.dtd">
<svg width="28.857421875" height="24.7265625" xmlns="http://www.w3.org/2000/svg" xmlns:xlink="http://www.w3.org/1999/xlink" xmlns:xml="http://www.w3.org/XML/1998/namespace" version="1.1">
  <g>
    <g>
      <path style="fill:#FF0000;fill-opacity:1" d="M14.384765625,3.75L10.400390625,4.2919921875 7.265625,5.9033203125 5.2001953125,8.583984375 4.453125,12.36328125 5.2001953125,16.1572265625 7.265625,18.8525390625 10.400390625,20.4638671875 14.384765625,21.005859375 18.427734375,20.4638671875 21.6064453125,18.8525390625 23.671875,16.1572265625 24.404296875,12.36328125 23.671875,8.583984375 21.6064453125,5.9033203125 18.427734375,4.2919921875 14.384765625,3.75z M14.384765625,0L17.35107421875,0.208741664886475 20.09765625,0.8349609375 24.6826171875,3.251953125 26.4221172332764,5.013427734375 27.744140625,7.1337890625 28.5790996551514,9.591064453125 28.857421875,12.36328125 28.5790996551514,15.113525390625 27.744140625,17.5634765625 26.4221172332764,19.683837890625 24.6826171875,21.4453125 20.09765625,23.876953125 17.35107421875,24.51416015625 14.384765625,24.7265625 11.4624013900757,24.51416015625 8.73046875,23.876953125 4.16015625,21.4453125 2.431640625,19.683837890625 1.11328101158142,17.5634765625 0.278320282697678,15.113525390625 0,12.36328125 0.278320282697678,9.591064453125 1.11328101158142,7.1337890625 2.431640625,5.013427734375 4.16015625,3.251953125 8.73046875,0.8349609375 11.4624013900757,0.208741664886475 14.384765625,0z" />
    </g>
  </g>
</svg>