<?xml version="1.0" encoding="utf-8"?>
<!DOCTYPE svg PUBLIC "-//W3C//DTD SVG 1.1//EN" "http://www.w3.org/Graphics/SVG/1.1/DTD/svg11.dtd">
<svg width="24.345703125" height="55.693359375" xmlns="http://www.w3.org/2000/svg" xmlns:xlink="http://www.w3.org/1999/xlink" xmlns:xml="http://www.w3.org/XML/1998/namespace" version="1.1">
  <g>
    <g>
      <path style="fill:#FF0000;fill-opacity:1" d="M19.27734375,48.369140625L18.3984375,48.544921875 17.6806640625,49.0283203125 17.197265625,49.7607421875 17.021484375,50.654296875 17.6806640625,52.2509765625 19.27734375,52.91015625 20.1708984375,52.734375 20.9033203125,52.2509765625 21.38671875,51.533203125 21.5625,50.654296875 20.888671875,49.04296875 19.27734375,48.369140625z M0,0L3.515625,0 4.1455078125,1.58203101158142 4.541015625,3.515625 5.53710889816284,10.400390625 5.8154296875,12.12890625 6.0791015625,13.125 6.3720703125,13.5791015625 6.70898389816284,13.681640625 7.001953125,13.564453125 7.294921875,13.095703125 7.57324266433716,12.099609375 7.85156202316284,10.400390625 8.37890625,6.357421875 8.96484375,3.64746046066284 10.0048828125,1.6552734375 11.6015625,0.424804449081421 13.857421875,0 16.065673828125,0.413821220397949 17.5341796875,1.6552734375 18.358154296875,3.65845012664795 18.6328125,6.357421875 18.6328125,45.615234375 18.9697265625,45.5859375 19.306640625,45.5859375 21.3134765625,45.966796875 22.91015625,47.021484375 23.96484375,48.6181640625 24.345703125,50.625 23.96484375,52.6318359375 22.91015625,54.2431640625 21.3134765625,55.3125 19.306640625,55.693359375 17.2998046875,55.3125 15.6884765625,54.2431640625 14.619140625,52.6318359375 14.23828125,50.625 14.23828125,7.119140625 14.1943349838257,5.47119426727295 14.0625,4.21875 13.7475576400757,3.42773723602295 13.154296875,3.16406202316284 12.557373046875,3.42773723602295 12.1728515625,4.21875 11.905517578125,5.47119426727295 11.66015625,7.119140625 11.19140625,10.60546875 10.7080078125,13.1689453125 9.873046875,15.146484375 8.583984375,16.40625 6.70898389816284,16.845703125 4.79003953933716,16.3916015625 3.5009765625,15.1318359375 2.68066453933716,13.1689453125 2.19726610183716,10.60546875 1.25976586341858,3.45703101158142 0.761718988418579,1.47949242591858 0,0z" />
    </g>
  </g>
</svg>