<?xml version="1.0" encoding="utf-8"?>
<!DOCTYPE svg PUBLIC "-//W3C//DTD SVG 1.1//EN" "http://www.w3.org/Graphics/SVG/1.1/DTD/svg11.dtd">
<svg width="27.0703125" height="27.041015625" xmlns="http://www.w3.org/2000/svg" xmlns:xlink="http://www.w3.org/1999/xlink" xmlns:xml="http://www.w3.org/XML/1998/namespace" version="1.1">
  <g>
    <g>
      <path style="fill:#FF0000;fill-opacity:1" d="M13.564453125,9.111328125L15.263671875,9.4482421875 16.6552734375,10.3857421875 17.607421875,11.77734375 17.958984375,13.4765625 17.607421875,15.205078125 16.6552734375,16.6259765625 15.263671875,17.578125 13.564453125,17.9296875 11.8359375,17.578125 10.4150390625,16.6259765625 9.462890625,15.205078125 9.111328125,13.4765625 9.462890625,11.77734375 10.4150390625,10.3857421875 11.8359375,9.4482421875 13.564453125,9.111328125z M13.564453125,3.515625L11.5246572494507,3.709716796875 9.6240234375,4.2919921875 6.4453125,6.416015625 4.3212890625,9.580078125 3.73901319503784,11.46240234375 3.544921875,13.4765625 3.73901319503784,15.494384765625 4.3212890625,17.3876953125 6.4453125,20.5810546875 9.6240234375,22.734375 11.5246572494507,23.32763671875 13.564453125,23.525390625 15.57861328125,23.32763671875 17.4609375,22.734375 20.625,20.5810546875 22.7490234375,17.3876953125 23.3312969207764,15.494384765625 23.525390625,13.4765625 23.3312969207764,11.46240234375 22.7490234375,9.580078125 20.625,6.416015625 17.4609375,4.2919921875 15.57861328125,3.709716796875 13.564453125,3.515625z M13.564453125,0L16.26708984375,0.263673305511475 18.80859375,1.0546875 21.112060546875,2.30346822738647 23.1005859375,3.9404296875 24.7412090301514,5.928955078125 26.0009765625,8.232421875 26.8029766082764,10.77392578125 27.0703125,13.4765625 26.8029766082764,16.204833984375 26.0009765625,18.7646484375 24.7412090301514,21.0791015625 23.1005859375,23.0712890625 21.112060546875,24.7119140625 18.80859375,25.9716796875 16.26708984375,26.773681640625 13.564453125,27.041015625 10.8361806869507,26.773681640625 8.2763671875,25.9716796875 5.9619140625,24.7119140625 3.9697265625,23.0712890625 2.3291015625,21.0791015625 1.06933569908142,18.7646484375 0.267333954572678,16.204833984375 0,13.4765625 0.267333954572678,10.77392578125 1.06933569908142,8.232421875 2.3291015625,5.928955078125 3.9697265625,3.9404296875 5.9619140625,2.30346822738647 8.2763671875,1.0546875 10.8361806869507,0.263673305511475 13.564453125,0z" />
    </g>
  </g>
</svg>