<?xml version="1.0" encoding="utf-8"?>
<!DOCTYPE svg PUBLIC "-//W3C//DTD SVG 1.1//EN" "http://www.w3.org/Graphics/SVG/1.1/DTD/svg11.dtd">
<svg width="39.7265625000001" height="43.41796875" xmlns="http://www.w3.org/2000/svg" xmlns:xlink="http://www.w3.org/1999/xlink" xmlns:xml="http://www.w3.org/XML/1998/namespace" version="1.1">
  <g>
    <g>
      <path style="fill:#FF0000;fill-opacity:1" d="M5.21484375,23.935546875L6.45263576507568,29.65576171875 9.169921875,34.27734375 11.3433837890625,36.3409423828125 13.82080078125,37.81494140625 16.6021728515625,38.6993408203125 19.6875,38.994140625 22.96142578125,38.712158203125 25.869140625,37.8662109375 28.41064453125,36.456298828125 30.5859375,34.482421875 32.1258544921875,32.362060546875 33.28857421875,29.8974609375 34.0740966796875,27.088623046875 34.482421875,23.935546875 5.21484375,23.935546875z M20.0390625,4.453125L16.8841552734375,4.7515869140625 14.04052734375,5.64697265625 11.5081787109375,7.1392822265625 9.287109375,9.228515625 6.51855373382568,13.8134784698486 5.244140625,19.482421875 34.482421875,19.482421875 33.28857421875,13.5498065948486 30.703125,8.994140625 28.58642578125,7.0074462890625 26.103515625,5.58837890625 23.25439453125,4.7369384765625 20.0390625,4.453125z M20.390625,0L24.5297241210938,0.3662109375 28.245849609375,1.46484375 31.5390014648438,3.2958984375 34.4091796875,5.859375 36.7355346679688,9.0142822265625 38.397216796875,12.6196298599243 39.3942260742188,16.6754150390625 39.7265625,21.181640625 39.385986328125,26.0540771484375 38.3642578125,30.38818359375 36.661376953125,34.1839599609375 34.27734375,37.44140625 31.322021484375,40.05615234375 27.9052734375,41.923828125 24.027099609375,43.04443359375 19.6875,43.41796875 15.4421997070313,43.0499267578125 11.641845703125,41.94580078125 8.28643798828125,40.1055908203125 5.3759765625,37.529296875 3.02398681640625,34.3634033203125 1.34399390220642,30.75439453125 0.335998326539993,26.7022705078125 0,22.20703125 0.342407017946243,17.39501953125 1.36962866783142,13.0957040786743 3.0816650390625,9.30908203125 5.478515625,6.03515625 8.4649658203125,3.394775390625 11.94580078125,1.5087890625 15.9210205078125,0.377197265625 20.390625,0z" />
    </g>
  </g>
</svg>