<?xml version="1.0" encoding="utf-8"?>
<!DOCTYPE svg PUBLIC "-//W3C//DTD SVG 1.1//EN" "http://www.w3.org/Graphics/SVG/1.1/DTD/svg11.dtd">
<svg width="24.492187500001" height="42.685546875" xmlns="http://www.w3.org/2000/svg" xmlns:xlink="http://www.w3.org/1999/xlink" xmlns:xml="http://www.w3.org/XML/1998/namespace" version="1.1">
  <g>
    <g>
      <path style="fill:#FF0000;fill-opacity:1" d="M2.34374976158142,0L7.705078125,0 11.1767578125,3.57421875 14.58984375,7.3095703125 17.7978515625,11.42578125 20.625,16.142578125 23.37890625,22.6611328125 24.2138652801514,26.004638671875 24.4921875,29.384765625 24.1772441864014,32.20458984375 23.232421875,35.09765625 21.5405254364014,37.91015625 18.984375,40.48828125 16.7578125,41.7626953125 14.0478515625,42.4658203125 11.572265625,42.685546875 8.349609375,42.3486328125 5.888671875,41.42578125 3.83789086341858,39.9609375 2.22656273841858,38.291015625 0.659179449081421,35.9326171875 0,32.666015625 0.498046636581421,29.619140625 1.37695336341858,27.6416015625 2.28515601158142,26.25 3.28124976158142,25.2099609375 4.39453125,24.2578125 6.4892578125,25.0048828125 8.583984375,25.751953125 6.533203125,27.71484375 4.9951171875,30.0146484375 4.453125,32.314453125 4.7314453125,33.74267578125 5.56640625,35.15625 7.4853515625,36.6650390625 10.1806640625,37.705078125 12.744140625,38.02734375 14.61181640625,37.7490234375 16.23046875,36.9140625 18.5888671875,34.248046875 19.8193359375,31.3037109375 20.185546875,28.681640625 19.7607421875,25.2099609375 18.7939453125,22.1484375 17.63671875,19.39453125 15.758056640625,15.7617206573486 13.8720703125,12.65625 10.0634765625,7.6171875 6.2109375,3.6328125 2.34374976158142,0z" />
    </g>
  </g>
</svg>