<?xml version="1.0" encoding="utf-8"?>
<!DOCTYPE svg PUBLIC "-//W3C//DTD SVG 1.1//EN" "http://www.w3.org/Graphics/SVG/1.1/DTD/svg11.dtd">
<svg width="19.2187500000001" height="42.71484375" xmlns="http://www.w3.org/2000/svg" xmlns:xlink="http://www.w3.org/1999/xlink" xmlns:xml="http://www.w3.org/XML/1998/namespace" version="1.1">
  <g>
    <g>
      <path style="fill:#FF0000;fill-opacity:1" d="M14.296875,22.8515625L10.60546875,23.5400390625 7.6025390625,25.2392578125 5.5810546875,27.7294921875 4.833984375,30.76171875 5.5810546875,33.7939453125 7.6025390625,36.298828125 10.60546875,38.0126953125 14.296875,38.671875 14.296875,22.8515625z M14.296875,0L19.21875,0 19.21875,42.216796875 14.4140625,42.71484375 11.297607421875,42.5143432617188 8.5107421875,41.912841796875 6.05346632003784,40.9103393554688 3.92578125,39.5068359375 2.20825171470642,37.7737426757813 0.981444954872131,35.782470703125 0.245361059904099,33.5330200195313 0,31.025390625 0.254516333341599,28.2989501953125 1.01806604862213,25.89111328125 2.29064917564392,23.8018798828125 4.072265625,22.03125 8.54736328125,19.7021484375 14.296875,18.80859375 14.296875,0z" />
    </g>
  </g>
</svg>