<?xml version="1.0" encoding="utf-8"?>
<!DOCTYPE svg PUBLIC "-//W3C//DTD SVG 1.1//EN" "http://www.w3.org/Graphics/SVG/1.1/DTD/svg11.dtd">
<svg width="39.7265625000004" height="43.41796875" xmlns="http://www.w3.org/2000/svg" xmlns:xlink="http://www.w3.org/1999/xlink" xmlns:xml="http://www.w3.org/XML/1998/namespace" version="1.1">
  <g>
    <g>
      <path style="fill:#FF0000;fill-opacity:1" d="M22.32421875,23.935546875L22.32421875,38.818359375 24.99755859375,38.19580078125 27.333984375,37.1484375 31.025390625,33.9404296875 33.3984375,29.443359375 34.482421875,23.935546875 22.32421875,23.935546875z M5.244140625,23.935546875L6.4013671875,29.2822265625 8.818359375,33.80859375 12.4951171875,37.119140625 14.798583984375,38.21044921875 17.40234375,38.84765625 17.40234375,23.935546875 5.244140625,23.935546875z M17.40234375,4.6875L14.827880859375,5.350341796875 12.5537109375,6.4599609375 8.8916015625,9.755859375 6.4453125,14.208984375 5.2734375,19.482421875 17.40234375,19.482421875 17.40234375,4.6875z M22.32421875,4.599609375L22.32421875,19.482421875 34.482421875,19.482421875 33.4130859375,13.9599609375 31.083984375,9.43359375 27.4072265625,6.2109375 25.045166015625,5.17822265625 22.32421875,4.599609375z M20.390625,0L24.715576171875,0.41015625 28.5498046875,1.640625 31.8603515625,3.585205078125 34.6142578125,6.1376953125 36.800537109375,9.246826171875 38.408203125,12.861328125 39.39697265625,16.8750019073486 39.7265625,21.181640625 39.400634765625,25.78125 38.4228515625,30.029296875 36.807861328125,33.826904296875 34.5703125,37.0751953125 31.724853515625,39.7265625 28.2861328125,41.7333984375 24.268798828125,42.996826171875 19.6875,43.41796875 15.303955078125,43.01513671875 11.4111328125,41.806640625 8.04199123382568,39.884033203125 5.2294921875,37.3388671875 2.991943359375,34.229736328125 1.34765625,30.615234375 0.336913704872131,26.57958984375 0,22.20703125 0.333251595497131,17.5854511260986 1.3330078125,13.330078125 2.98095703125,9.5361328125 5.2587890625,6.298828125 8.15551662445068,3.662109375 11.66015625,1.669921875 15.7470703125,0.41748046875 20.390625,0z" />
    </g>
  </g>
</svg>