<?xml version="1.0" encoding="utf-8"?>
<!DOCTYPE svg PUBLIC "-//W3C//DTD SVG 1.1//EN" "http://www.w3.org/Graphics/SVG/1.1/DTD/svg11.dtd">
<svg width="29.5312500000001" height="31.58203125" xmlns="http://www.w3.org/2000/svg" xmlns:xlink="http://www.w3.org/1999/xlink" xmlns:xml="http://www.w3.org/XML/1998/namespace" version="1.1">
  <g>
    <g>
      <path style="fill:#FF0000;fill-opacity:1" d="M14.765625,18.57421875L8.26171875,25.107421875 11.2353515625,26.93115234375 14.94140625,27.5390625 18.5815410614014,26.9677734375 21.416015625,25.25390625 14.765625,18.57421875z M6.064453125,9.697265625L5.20751953125,12.6123046875 4.921875,15.966796875 5.19287109375,19.18212890625 6.005859375,21.9140625 12.0703125,15.791015625 6.064453125,9.697265625z M23.583984375,9.638671875L17.51953125,15.791015625 23.61328125,21.943359375 24.3603496551514,19.1748046875 24.609375,15.849609375 24.3530254364014,12.5097675323486 23.583984375,9.638671875z M14.94140625,4.04296875L11.24267578125,4.65087985992432 8.291015625,6.474609375 14.765625,13.037109375 21.38671875,6.328125 18.5595684051514,4.61425876617432 14.94140625,4.04296875z M15.29296875,0L18.4634380340576,0.2581787109375 21.2658672332764,1.03271484375 23.7002544403076,2.3236083984375 25.7666015625,4.130859375 27.4136352539063,6.40136814117432 28.590087890625,9.08203315734863 29.2959594726563,12.1728525161743 29.53125,15.673828125 29.2776489257813,19.1226196289063 28.516845703125,22.203369140625 27.2488403320313,24.9160766601563 25.4736328125,27.2607421875 23.2717876434326,29.1513061523438 20.7238750457764,30.501708984375 17.8298931121826,31.3119506835938 14.58984375,31.58203125 11.4321899414063,31.3192749023438 8.609619140625,30.531005859375 6.12213087081909,29.2172241210938 3.9697265625,27.3779296875 2.23297095298767,25.0991821289063 0.992431282997131,22.467041015625 0.248107641935349,19.4815063476563 0,16.142578125 0.258178442716599,12.5317392349243 1.03271448612213,9.34570503234863 2.32360816001892,6.58447360992432 4.130859375,4.248046875 6.37756299972534,2.3895263671875 8.98681640625,1.06201171875 11.9586181640625,0.2655029296875 15.29296875,0z" />
    </g>
  </g>
</svg>