<?xml version="1.0" encoding="utf-8"?>
<!DOCTYPE svg PUBLIC "-//W3C//DTD SVG 1.1//EN" "http://www.w3.org/Graphics/SVG/1.1/DTD/svg11.dtd">
<svg width="29.5312500000087" height="42.01171875" xmlns="http://www.w3.org/2000/svg" xmlns:xlink="http://www.w3.org/1999/xlink" xmlns:xml="http://www.w3.org/XML/1998/namespace" version="1.1">
  <g>
    <g>
      <path style="fill:#FF0000;fill-opacity:1" d="M2.548828125,0L8.73046875,0 10.9716796875,2.783203125 12.48046875,5.0537109375 13.330078125,7.2216796875 13.59375,9.66796875 13.06640625,11.923828125 11.806640625,14.4287109375 10.3125,16.7431640625 9.08203125,18.427734375 24.609375,18.427734375 24.609375,0 29.53125,0 29.53125,42.01171875 24.609375,42.01171875 24.609375,22.8515625 6.09375,22.8515625 5.244140625,25.0341796875 4.98046875,27.7734375 5.595703125,31.5966796875 7.2216796875,35.1123046875 9.5361328125,38.5107421875 12.216796875,42.01171875 6.943359375,42.01171875 4.1455078125,38.408203125 2.2119140625,35.7275390625 0.99609375,33.662109375 0.3369140625,31.875 0.05859375,30.029296875 0,27.7734375 0.05859375,26.044921875 0.424804210662842,24.1259765625 1.40625,21.85546875 3.310546875,19.072265625 4.9951171875,16.9775390625 6.7236328125,14.619140625 8.0712890625,12.12890625 8.61328125,9.66796875 8.1005859375,7.001953125 6.7529296875,4.7900390625 4.8193359375,2.5927734375 2.548828125,0z" />
    </g>
  </g>
</svg>