<?xml version="1.0" encoding="utf-8"?>
<!DOCTYPE svg PUBLIC "-//W3C//DTD SVG 1.1//EN" "http://www.w3.org/Graphics/SVG/1.1/DTD/svg11.dtd">
<svg width="30.380859375" height="42.71484375" xmlns="http://www.w3.org/2000/svg" xmlns:xlink="http://www.w3.org/1999/xlink" xmlns:xml="http://www.w3.org/XML/1998/namespace" version="1.1">
  <g>
    <g>
      <path style="fill:#FF0000;fill-opacity:1" d="M18.22265625,4.306640625L18.22265625,19.599609375 21.1083984375,18.5595703125 23.408203125,16.8310546875 24.931640625,14.5751953125 25.48828125,11.953125 24.931640625,9.345703125 23.408203125,7.1044921875 21.1083984375,5.3759765625 18.22265625,4.306640625z M13.30078125,4.306640625L10.400390625,5.3759765625 8.115234375,7.1044921875 6.6064453125,9.345703125 6.064453125,11.953125 6.6064453125,14.5751953125 8.115234375,16.8310546875 10.400390625,18.5595703125 13.30078125,19.599609375 13.30078125,4.306640625z M16.318359375,0L19.4476299285889,0.1959228515625 22.2143535614014,0.78369140625 24.6185283660889,1.7633056640625 26.66015625,3.134765625 28.2879638671875,4.85595703125 29.45068359375,6.884765625 30.1483154296875,9.22119140625 30.380859375,11.865234375 30.1300048828125,14.4561777114868 29.37744140625,16.7797870635986 28.1231689453125,18.8360614776611 26.3671875,20.625 22.7343730926514,22.734375 18.22265625,23.7890625 18.22265625,32.490234375 4.921875,32.490234375 4.921875,42.71484375 0,42.71484375 0,28.06640625 13.30078125,28.06640625 13.30078125,23.7890625 8.7890625,22.78564453125 5.15625,20.712890625 3.438720703125,18.9733905792236 2.21191382408142,16.9775409698486 1.47582983970642,14.7253427505493 1.23046875,12.216796875 1.48498511314392,9.4903564453125 2.24853491783142,7.08251953125 3.5211181640625,4.9932861328125 5.302734375,3.22265625 7.51831007003784,1.812744140625 10.0927734375,0.8056640625 13.026123046875,0.201416015625 16.318359375,0z" />
    </g>
  </g>
</svg>