<?xml version="1.0" encoding="utf-8"?>
<!DOCTYPE svg PUBLIC "-//W3C//DTD SVG 1.1//EN" "http://www.w3.org/Graphics/SVG/1.1/DTD/svg11.dtd">
<svg width="20.537109375" height="42.71484375" xmlns="http://www.w3.org/2000/svg" xmlns:xlink="http://www.w3.org/1999/xlink" xmlns:xml="http://www.w3.org/XML/1998/namespace" version="1.1">
  <g>
    <g>
      <path style="fill:#FF0000;fill-opacity:1" d="M10.25390625,26.572265625L7.89550828933716,27.01171875 6.03515672683716,28.2421875 4.80468797683716,30.1171875 4.36523485183716,32.4609375 4.80468797683716,34.8193359375 6.03515672683716,36.6650390625 7.89550828933716,37.880859375 10.25390625,38.3203125 12.59765625,37.880859375 14.4580078125,36.6650390625 15.673828125,34.8193359375 16.11328125,32.4609375 15.673828125,30.1171875 14.4580078125,28.2421875 12.59765625,27.01171875 10.25390625,26.572265625z M7.79296922683716,0L12.71484375,0 12.71484375,22.470703125 15.8203125,23.818359375 18.310546875,26.07421875 19.951171875,29.0185546875 20.537109375,32.4609375 20.3356914520264,34.530029296875 19.7314453125,36.4599609375 17.5341796875,39.7119140625 14.267578125,41.9091796875 12.32666015625,42.513427734375 10.25390625,42.71484375 8.184814453125,42.513427734375 6.25488328933716,41.9091796875 3.00293016433716,39.7119140625 0.805664539337158,36.4599609375 0.201416075229645,34.530029296875 0,32.4609375 0.585937976837158,29.0185546875 2.21191453933716,26.07421875 4.68750047683716,23.818359375 7.79296922683716,22.470703125 7.79296922683716,0z" />
    </g>
  </g>
</svg>