<?xml version="1.0" encoding="utf-8"?>
<!DOCTYPE svg PUBLIC "-//W3C//DTD SVG 1.1//EN" "http://www.w3.org/Graphics/SVG/1.1/DTD/svg11.dtd">
<svg width="43.4179687500007" height="43.41796875" xmlns="http://www.w3.org/2000/svg" xmlns:xlink="http://www.w3.org/1999/xlink" xmlns:xml="http://www.w3.org/XML/1998/namespace" version="1.1">
  <g>
    <g>
      <path style="fill:#FF0000;fill-opacity:1" d="M21.767578125,30.64453125L20.0024394989014,30.9814453125 18.515625,31.9921875 17.5048828125,33.47900390625 17.16796875,35.244140625 17.49755859375,37.064208984375 18.486328125,38.5986328125 19.9511699676514,39.642333984375 21.708984375,39.990234375 21.943359375,39.990234375 23.5839824676514,39.5947265625 24.990234375,38.583984375 26.02294921875,37.0458984375 26.3671875,35.244140625 26.0302734375,33.460693359375 25.01953125,31.9775390625 23.5327129364014,30.977783203125 21.767578125,30.64453125z M28.53515625,26.19140625L27.509765625,27.421875 26.162109375,28.505859375 27.48046875,29.560546875 29.2822265625,32.1533203125 29.8828125,35.244140625 29.326171875,38.291015625 32.11669921875,36.65771484375 34.5703125,34.5703125 36.62841796875,32.08740234375 38.232421875,29.267578125 35.302734375,29.794921875 32.1826171875,29.20166015625 29.560546875,27.421875 28.53515625,26.19140625z M14.94140625,26.1328125L13.88671875,27.421875 11.2646484375,29.20166015625 8.14453125,29.794921875 5.15625,29.267578125 6.79321193695068,32.11669921875 8.8916015625,34.62890625 11.392822265625,36.73095703125 14.23828125,38.349609375 13.65234375,35.244140625 14.23828125,32.138671875 15.99609375,29.560546875 17.28515625,28.4765625 16.025390625,27.421875 14.94140625,26.1328125z M35.302734375,17.021484375L33.53759765625,17.3584003448486 32.05078125,18.369140625 31.0400390625,19.85595703125 30.703125,21.62109375 31.03271484375,23.441162109375 32.021484375,24.9755859375 33.486328125,26.019287109375 35.244140625,26.3671875 37.0166015625,26.015625 38.525390625,24.9609375 39.49951171875,23.56201171875 39.90234375,21.943359375 39.90234375,21.62109375 39.90234375,21.4453125 39.90234375,21.328125 39.5068359375,19.72412109375 38.5546875,18.369140625 37.06787109375,17.3584003448486 35.302734375,17.021484375z M21.767578125,17.021484375L20.0024394989014,17.3584003448486 18.515625,18.369140625 17.5048828125,19.85595703125 17.16796875,21.62109375 17.49755859375,23.441162109375 18.486328125,24.9755859375 19.9511699676514,26.019287109375 21.708984375,26.3671875 23.4814434051514,26.015625 24.990234375,24.9609375 26.02294921875,23.4228515625 26.3671875,21.62109375 26.0302734375,19.837646484375 25.01953125,18.3544921875 23.5327129364014,17.3547382354736 21.767578125,17.021484375z M8.14453125,17.021484375L6.37939357757568,17.3584003448486 4.892578125,18.369140625 3.8818359375,19.85595703125 3.544921875,21.62109375 3.87451171875,23.441162109375 4.86328125,24.9755859375 6.32812404632568,26.019287109375 8.0859375,26.3671875 9.8583984375,26.015625 11.3671875,24.9609375 12.39990234375,23.4228515625 12.744140625,21.62109375 12.4072265625,19.837646484375 11.396484375,18.3544921875 9.90966796875,17.3547382354736 8.14453125,17.021484375z M29.35546875,5.09765625L29.8828125,8.02734375 29.28955078125,11.1767587661743 27.509765625,13.828125 26.19140625,14.912109375 27.48046875,15.9375 28.505859375,17.138671875 29.53125,15.9375 32.13134765625,14.1796894073486 35.244140625,13.59375 38.291015625,14.150390625 36.705322265625,11.3085947036743 34.6435546875,8.818359375 32.171630859375,6.73095703125 29.35546875,5.09765625z M14.1796875,5.068359375L11.334228515625,6.683349609375 8.8330078125,8.7744140625 6.74194240570068,11.2756357192993 5.126953125,14.12109375 8.0859375,13.59375 11.22802734375,14.1796894073486 13.857421875,15.9375 14.94140625,17.2265625 15.99609375,15.9375 17.28515625,14.8828125 16.025390625,13.828125 14.24560546875,11.1767587661743 13.65234375,8.02734375 14.1796875,5.068359375z M21.5625,3.427734375L19.9072246551514,3.80859375 18.515625,4.775390625 17.5048828125,6.26220703125 17.16796875,8.02734375 17.49755859375,9.847412109375 18.486328125,11.3818359375 19.9511699676514,12.4255390167236 21.708984375,12.7734375 23.4814434051514,12.4218769073486 24.990234375,11.3671875 26.02294921875,9.8291015625 26.3671875,8.02734375 26.0302734375,6.24755859375 25.01953125,4.775390625 23.7231426239014,3.85986328125 22.236328125,3.45703125 21.97265625,3.4423828125 21.708984375,3.427734375 21.5625,3.427734375z M21.357421875,0L21.708984375,0 24.64599609375,0.194091796875 27.48046875,0.7763671875 32.6806640625,2.958984375 37.0751953125,6.3427734375 40.458984375,10.7373046875 42.626953125,15.9375 43.41796875,21.62109375 43.41796875,21.97265625 42.626953125,27.509765625 40.458984375,32.6806640625 37.0751953125,37.0751953125 32.6806640625,40.458984375 27.48046875,42.6416015625 24.64599609375,43.223876953125 21.708984375,43.41796875 18.7536602020264,43.223876953125 15.9228515625,42.6416015625 10.7373046875,40.458984375 6.3427734375,37.0751953125 2.958984375,32.6806640625 0.7763671875,27.48046875 0.194091439247131,24.64599609375 0,21.708984375 0.194091439247131,18.77197265625 0.7763671875,15.9375 2.958984375,10.7373046875 6.3427734375,6.3427734375 10.7373046875,2.958984375 15.9375,0.791015625 21.357421875,0z" />
    </g>
  </g>
</svg>