<?xml version="1.0" encoding="utf-8"?>
<!DOCTYPE svg PUBLIC "-//W3C//DTD SVG 1.1//EN" "http://www.w3.org/Graphics/SVG/1.1/DTD/svg11.dtd">
<svg width="29.8828125" height="42.71484375" xmlns="http://www.w3.org/2000/svg" xmlns:xlink="http://www.w3.org/1999/xlink" xmlns:xml="http://www.w3.org/XML/1998/namespace" version="1.1">
  <g>
    <g>
      <path style="fill:#FF0000;fill-opacity:1" d="M11.3671875,0L14.974365234375,0.362548828125 18.0615234375,1.4501953125 20.6762676239014,3.1494140625 22.8662109375,5.3466796875 24.6679668426514,7.9833984375 26.1181640625,11.0009765625 28.154296875,17.724609375 29.3994140625,24.5947265625 29.761962890625,28.465576171875 29.8828125,33.310546875 29.67041015625,37.58056640625 29.033203125,42.71484375 24.228515625,42.71484375 25.0048828125,37.1044921875 25.458984375,31.171875 25.3564434051514,28.39599609375 25.048828125,25.166015625 24.4628887176514,21.474609375 23.525390625,17.314453125 22.1630859375,12.978515625 19.9365234375,8.8330078125 16.494140625,5.7275390625 14.2236328125,4.815673828125 11.513671875,4.51171875 10.0671377182007,4.73876953125 8.7158203125,5.419921875 6.4453125,7.6025390625 4.951171875,10.283203125 4.423828125,12.65625 4.98046875,14.970703125 1.23046875,17.28515625 0.439452648162842,15.234375 0.197753667831421,13.9526386260986 0,12.216796875 0.109863072633743,10.7739267349243 0.205077886581421,9.90234375 0.908203125,7.7490234375 2.28515625,5.5224609375 4.1748046875,3.427734375 6.4306640625,1.669921875 8.876953125,0.4541015625 11.3671875,0z" />
    </g>
  </g>
</svg>