<?xml version="1.0" encoding="utf-8"?>
<!DOCTYPE svg PUBLIC "-//W3C//DTD SVG 1.1//EN" "http://www.w3.org/Graphics/SVG/1.1/DTD/svg11.dtd">
<svg width="25.9570312500001" height="42.01171875" xmlns="http://www.w3.org/2000/svg" xmlns:xlink="http://www.w3.org/1999/xlink" xmlns:xml="http://www.w3.org/XML/1998/namespace" version="1.1">
  <g>
    <g>
      <path style="fill:#FF0000;fill-opacity:1" d="M22.20703125,0L25.95703125,0 25.95703125,4.453125 22.32421875,4.453125 18.3004760742188,4.70535278320313 14.813232421875,5.4620361328125 11.8624877929688,6.72317504882813 9.4482421875,8.48876953125 7.57049560546875,10.7588195800781 6.229248046875,13.5333251953125 5.42449951171875,16.8122863769531 5.15625,20.595703125 5.4437255859375,24.422607421875 6.30615234375,27.7880859375 7.7435302734375,30.692138671875 9.755859375,33.134765625 12.2845458984375,35.0701904296875 15.27099609375,36.45263671875 18.7152099609375,37.2821044921875 22.6171875,37.55859375 25.95703125,37.55859375 25.95703125,42.01171875 22.67578125,42.01171875 17.7658081054688,41.6427612304688 13.377685546875,40.535888671875 9.51141357421875,38.6911010742188 6.1669921875,36.1083984375 3.46893310546875,32.9177856445313 1.54174780845642,29.249267578125 0.385436803102493,25.1028442382813 0,20.478515625 0.346984714269638,15.6788635253906 1.38793921470642,11.5191650390625 3.12286353111267,7.99942016601563 5.5517578125,5.11962890625 8.67462158203125,2.87979125976563 12.491455078125,1.2799072265625 17.0022583007813,0.319976806640625 22.20703125,0z" />
    </g>
  </g>
</svg>