<?xml version="1.0" encoding="utf-8"?>
<!DOCTYPE svg PUBLIC "-//W3C//DTD SVG 1.1//EN" "http://www.w3.org/Graphics/SVG/1.1/DTD/svg11.dtd">
<svg width="24.9023437500001" height="42.01171875" xmlns="http://www.w3.org/2000/svg" xmlns:xlink="http://www.w3.org/1999/xlink" xmlns:xml="http://www.w3.org/XML/1998/namespace" version="1.1">
  <g>
    <g>
      <path style="fill:#FF0000;fill-opacity:1" d="M17.63671875,0L24.90234375,0 24.90234375,4.39453125 17.490234375,4.39453125 16.0107421875,4.6875 14.794921875,5.5078125 13.974609375,6.7236328125 13.681640625,8.203125 13.974609375,9.6826171875 14.794921875,10.8984375 16.0107421875,11.71875 17.490234375,12.01171875 24.90234375,12.01171875 24.90234375,42.01171875 20.09765625,42.01171875 20.09765625,33.544921875 19.4970684051514,29.68505859375 17.6953125,26.6015625 15.0146484375,24.55810546875 11.77734375,23.876953125 8.726806640625,24.462890625 6.5478515625,26.220703125 5.240478515625,29.150390625 4.8046875,33.251953125 4.8046875,42.01171875 0,42.01171875 0,32.05078125 0.158386096358299,29.1874694824219 0.633544743061066,26.7059326171875 1.42547583580017,24.6061706542969 2.53417944908142,22.88818359375 3.95965552330017,21.5519714355469 5.701904296875,20.5975341796875 7.76092529296875,20.0248718261719 10.13671875,19.833984375 13.14697265625,20.189208984375 15.791015625,21.2548828125 18.06884765625,23.031005859375 19.98046875,25.517578125 20.09765625,25.517578125 20.09765625,16.40625 17.63671875,16.40625 14.443359375,15.76171875 11.8359375,14.00390625 10.078125,11.396484375 9.43359375,8.203125 10.078125,5.009765625 11.8359375,2.40234375 14.443359375,0.64453125 17.63671875,0z" />
    </g>
  </g>
</svg>