<?xml version="1.0" encoding="utf-8"?>
<!DOCTYPE svg PUBLIC "-//W3C//DTD SVG 1.1//EN" "http://www.w3.org/Graphics/SVG/1.1/DTD/svg11.dtd">
<svg width="29.1503906250001" height="42.71484375" xmlns="http://www.w3.org/2000/svg" xmlns:xlink="http://www.w3.org/1999/xlink" xmlns:xml="http://www.w3.org/XML/1998/namespace" version="1.1">
  <g>
    <g>
      <path style="fill:#FF0000;fill-opacity:1" d="M21.73828125,30.673828125L20.7568359375,30.87890625 19.9658203125,31.435546875 19.423828125,32.255859375 19.21875,33.251953125 19.21875,38.203125 21.09375,37.55859375 22.705078125,36.5625 23.8330078125,35.1708984375 24.2578125,33.33984375 23.5107421875,31.435546875 22.6940898895264,30.8642578125 21.73828125,30.673828125z M12.0703125,0L16.9921875,0 16.9921875,22.8515625 14.53125,22.8515625 10.751953125,23.466796875 7.67578125,25.166015625 5.595703125,27.685546875 5.0244140625,29.17236328125 4.833984375,30.76171875 5.5810546875,33.7939453125 7.6025390625,36.298828125 10.60546875,38.0126953125 14.296875,38.671875 14.296875,33.251953125 14.8828125,30.52734375 16.46484375,28.30078125 18.80859375,26.806640625 21.708984375,26.25 24.5947265625,26.806640625 26.9677734375,28.30078125 28.564453125,30.52734375 29.150390625,33.251953125 29.150390625,33.515625 28.87939453125,35.7659912109375 28.154296875,37.68310546875 26.97509765625,39.2669677734375 25.341796875,40.517578125 23.2415752410889,41.4788818359375 20.7202129364014,42.16552734375 17.7777080535889,42.5775146484375 14.4140625,42.71484375 11.297607421875,42.5143432617188 8.5107421875,41.912841796875 6.05346632003784,40.9103393554688 3.92578125,39.5068359375 2.20825171470642,37.7737426757813 0.981444954872131,35.782470703125 0.245361059904099,33.5330200195313 0,31.025390625 0.254516333341599,28.2989501953125 1.01806604862213,25.89111328125 2.29064917564392,23.8018798828125 4.072265625,22.03125 7.63915920257568,20.009765625 12.0703125,18.984375 12.0703125,0z" />
    </g>
  </g>
</svg>