<?xml version="1.0" encoding="utf-8"?>
<!DOCTYPE svg PUBLIC "-//W3C//DTD SVG 1.1//EN" "http://www.w3.org/Graphics/SVG/1.1/DTD/svg11.dtd">
<svg width="54.43359375" height="52.32421875" xmlns="http://www.w3.org/2000/svg" xmlns:xlink="http://www.w3.org/1999/xlink" xmlns:xml="http://www.w3.org/XML/1998/namespace" version="1.1">
  <g>
    <g>
      <path style="fill:#FF0000;fill-opacity:1" d="M44.82421875,4.5703125L43.2046508789063,4.77539110183716 41.802978515625,5.39062547683716 40.6192016601563,6.41601610183716 39.6533203125,7.85156297683716 38.9035034179688,9.7027587890625 38.367919921875,11.97509765625 38.0465698242188,14.6685791015625 37.939453125,17.783203125 37.939453125,18.134765625 40.887451171875,17.691650390625 43.3447265625,17.1240234375 45.347900390625,16.39892578125 46.93359375,15.4833984375 48.9404296875,13.0517578125 49.5703125,9.638671875 49.2736778259277,7.503662109375 48.3837890625,5.90332078933716 46.9006309509277,4.90356492996216 44.82421875,4.5703125z M9.609375,4.5703125L7.532958984375,4.90356492996216 6.0498046875,5.90332078933716 5.15991163253784,7.503662109375 4.86328125,9.638671875 5.478515625,13.0517578125 6.287841796875,14.3701171875 7.4853515625,15.4833984375 9.08203125,16.39892578125 11.0888671875,17.1240234375 13.546142578125,17.691650390625 16.494140625,18.134765625 16.494140625,17.783203125 16.3870239257813,14.6685791015625 16.065673828125,11.97509765625 15.5300903320313,9.7027587890625 14.7802734375,7.85156297683716 13.8143911361694,6.41601610183716 12.6306142807007,5.39062547683716 11.2289419174194,4.77539110183716 9.609375,4.5703125z M9.609375,0L12.3765563964844,0.274201810359955 14.7747802734375,1.09680414199829 16.8040466308594,2.46780681610107 18.46435546875,4.38721036911011 19.7557067871094,6.85501384735107 20.6781005859375,9.87121868133545 21.2315368652344,13.4358224868774 21.416015625,17.548828125 21.416015625,18.544921875 24.2724609375,18.6474609375 27.24609375,18.69140625 30.1611328125,18.6474609375 33.017578125,18.544921875 33.017578125,17.548828125 33.2020568847656,13.4358224868774 33.7554931640625,9.87121868133545 34.6778869628906,6.85501384735107 35.96923828125,4.38721036911011 37.6295471191406,2.46780681610107 39.6588134765625,1.09680414199829 42.0570373535156,0.274201810359955 44.82421875,0 48.69140625,0.717773973941803 51.7236328125,2.70996117591858 53.7158203125,5.75683641433716 54.43359375,9.638671875 54.1918907165527,12.308349609375 53.466796875,14.6337890625 52.2473106384277,16.636962890625 50.5224609375,18.33984375 48.2739219665527,19.7607421875 45.4833984375,20.91796875 42.147216796875,21.8261737823486 38.26171875,22.5 39.444580078125,28.670654296875 41.4990234375,35.2880859375 44.425048828125,42.352294921875 48.22265625,49.86328125 44.00390625,52.32421875 39.8876953125,44.205322265625 36.73828125,36.6064453125 34.5556640625,29.527587890625 33.33984375,22.96875 27.1875,23.14453125 21.09375,22.96875 19.8779296875,29.527587890625 17.6953125,36.6064453125 14.5458984375,44.205322265625 10.4296875,52.32421875 6.2109375,49.86328125 10.008544921875,42.3541259765625 12.9345703125,35.29541015625 14.989013671875,28.6871337890625 16.171875,22.529296875 12.2680654525757,21.8591327667236 8.935546875,20.9619140625 6.156005859375,19.81201171875 3.91113233566284,18.3837890625 2.186279296875,16.669921875 0.966797113418579,14.6630859375 0.241699203848839,12.330322265625 0,9.638671875 0.703125,5.75683641433716 2.6806640625,2.70996117591858 5.72753858566284,0.717773973941803 9.609375,0z" />
    </g>
  </g>
</svg>