<?xml version="1.0" encoding="utf-8"?>
<!DOCTYPE svg PUBLIC "-//W3C//DTD SVG 1.1//EN" "http://www.w3.org/Graphics/SVG/1.1/DTD/svg11.dtd">
<svg width="27.5390625000002" height="51.591796875" xmlns="http://www.w3.org/2000/svg" xmlns:xlink="http://www.w3.org/1999/xlink" xmlns:xml="http://www.w3.org/XML/1998/namespace" version="1.1">
  <g>
    <g>
      <path style="fill:#FF0000;fill-opacity:1" d="M14.501953125,28.30078125L12.4218740463257,28.516845703125 10.576171875,29.1650390625 7.646484375,31.3623046875 5.80078125,34.3359375 5.15625,37.529296875 5.8447265625,41.6748046875 7.763671875,44.70703125 10.72265625,46.5673828125 14.53125,47.197265625 22.6171875,47.197265625 22.6171875,28.30078125 14.501953125,28.30078125z M15.966796875,0L19.127197265625,0.260012656450272 22.1044921875,1.04003930091858 24.8400859832764,2.40600872039795 27.275390625,4.423828125 23.96484375,7.880859375 20.15625,5.46386766433716 18.09814453125,4.815673828125 15.849609375,4.599609375 13.656005859375,4.8046875 11.7041015625,5.419921875 8.61328125,7.55859375 6.6943359375,10.517578125 6.03515625,13.798828125 6.6943359375,18.0029296875 8.6865234375,21.181640625 12.01171875,23.203125 16.69921875,23.90625 27.5390625,23.90625 27.5390625,51.591796875 14.23828125,51.591796875 11.1401357650757,51.357421875 8.349609375,50.654296875 5.90698194503784,49.515380859375 3.85253882408142,47.9736328125 2.20825171470642,46.04736328125 0.99609375,43.7548828125 0.249023258686066,41.129150390625 0,38.203125 0.571288824081421,34.27734375 2.12402272224426,30.8935546875 4.39453125,28.154296875 7.1484375,26.1328125 4.6728515625,24.0234375 2.68066382408142,21.298828125 1.36230421066284,18.046875 0.878906011581421,14.296875 1.18652296066284,11.129150390625 2.10937476158142,8.3056640625 3.55224609375,5.855712890625 5.419921875,3.80859375 7.664794921875,2.17895793914795 10.2392578125,0.98144543170929 13.040771484375,0.24536420404911 15.966796875,0z" />
    </g>
  </g>
</svg>