<?xml version="1.0" encoding="utf-8"?>
<!DOCTYPE svg PUBLIC "-//W3C//DTD SVG 1.1//EN" "http://www.w3.org/Graphics/SVG/1.1/DTD/svg11.dtd">
<svg width="37.382812500001" height="50.91796875" xmlns="http://www.w3.org/2000/svg" xmlns:xlink="http://www.w3.org/1999/xlink" xmlns:xml="http://www.w3.org/XML/1998/namespace" version="1.1">
  <g>
    <g>
      <path style="fill:#FF0000;fill-opacity:1" d="M31.0546875,22.67578125L29.9560546875,22.8955078125 29.0625,23.4814453125 28.4619140625,24.3603515625 28.2421875,25.4296875 28.4472637176514,26.5136737823486 29.0625,27.421875 29.970703125,28.037109375 31.0546875,28.2421875 32.1240234375,28.0224609375 33.0029296875,27.421875 33.5888671875,26.5283203125 33.80859375,25.4296875 33.5888671875,24.3603515625 33.0029296875,23.4814453125 32.1240234375,22.8955078125 31.0546875,22.67578125z M6.38671827316284,22.67578125L5.28808546066284,22.8955078125 4.39453077316284,23.4814453125 3.7939453125,24.3603515625 3.57421779632568,25.4296875 3.77929639816284,26.5136737823486 4.39453077316284,27.421875 5.30273342132568,28.037109375 6.38671827316284,28.2421875 7.45605421066284,28.0224609375 8.3349609375,27.421875 8.9208984375,26.5283203125 9.140625,25.4296875 8.9208984375,24.3603515625 8.3349609375,23.4814453125 7.45605421066284,22.8955078125 6.38671827316284,22.67578125z M31.0546875,19.248046875L33.5595703125,19.7314453125 35.56640625,21.064453125 36.8994140625,23.0419921875 37.3828125,25.458984375 36.9140625,27.8173828125 35.595703125,29.8095703125 33.5888671875,31.171875 31.0546875,31.669921875 28.5498046875,31.171875 26.5283203125,29.8388671875 25.166015625,27.8759765625 24.66796875,25.458984375 25.1806640625,23.0126953125 26.5576171875,21.0498046875 28.5791015625,19.7314453125 31.0546875,19.248046875z M6.38671827316284,19.248046875L8.8916015625,19.7314453125 10.8984375,21.064453125 12.2314453125,23.0419921875 12.71484375,25.458984375 12.24609375,27.8173828125 10.927734375,29.8095703125 8.9208984375,31.171875 6.38671827316284,31.669921875 3.8818359375,31.171875 1.86035144329071,29.8388671875 0.498046278953552,27.8759765625 0,25.458984375 0.51269519329071,23.0126953125 1.88964784145355,21.0498046875 3.91113185882568,19.7314453125 6.38671827316284,19.248046875z M2.87109375,0L34.51171875,0 34.51171875,4.39453125 21.15234375,4.39453125 21.15234375,8.7890625 34.51171875,8.7890625 34.51171875,13.18359375 21.15234375,13.18359375 21.15234375,37.734375 34.51171875,37.734375 34.51171875,42.12890625 21.15234375,42.12890625 21.15234375,46.5234375 34.51171875,46.5234375 34.51171875,50.91796875 2.87109375,50.91796875 2.87109375,46.5234375 16.23046875,46.5234375 16.23046875,42.12890625 2.87109375,42.12890625 2.87109375,37.734375 16.23046875,37.734375 16.23046875,13.18359375 2.87109375,13.18359375 2.87109375,8.7890625 16.23046875,8.7890625 16.23046875,4.39453125 2.87109375,4.39453125 2.87109375,0z" />
    </g>
  </g>
</svg>