<?xml version="1.0" encoding="utf-8"?>
<!DOCTYPE svg PUBLIC "-//W3C//DTD SVG 1.1//EN" "http://www.w3.org/Graphics/SVG/1.1/DTD/svg11.dtd">
<svg width="39.9609375" height="50.91796875" xmlns="http://www.w3.org/2000/svg" xmlns:xlink="http://www.w3.org/1999/xlink" xmlns:xml="http://www.w3.org/XML/1998/namespace" version="1.1">
  <g>
    <g>
      <path style="fill:#FF0000;fill-opacity:1" d="M24.43359375,16.318359375L24.43359375,24.0234375 27.861328125,24.0234375 30.087890625,23.96484375 32.4169921875,23.5693359375 34.2626953125,22.4853515625 35.009765625,20.361328125 34.3505859375,18.18603515625 32.373046875,16.9921875 31.204833984375,16.7431640625 29.5751953125,16.5234375 27.3596172332764,16.36962890625 24.43359375,16.318359375z M24.43359375,4.39453125L24.43359375,12.12890625 27.3596172332764,12.073974609375 29.5751953125,11.9091796875 31.204833984375,11.678466796875 32.373046875,11.42578125 34.3505859375,10.23193359375 35.009765625,8.056640625 34.2626953125,5.9326171875 32.4169921875,4.8486328125 30.087890625,4.45312547683716 27.861328125,4.39453125 24.43359375,4.39453125z M14.47265625,4.39453125L14.47265625,46.5234375 19.51171875,46.5234375 19.51171875,4.39453125 14.47265625,4.39453125z M9.55078125,0L27.48046875,0 30.3369140625,0.102538734674454 33.193359375,0.49804699420929 35.80078125,1.3037109375 37.9541015625,2.6513671875 39.4189453125,4.6728515625 39.9609375,7.470703125 39.66796875,9.7412109375 38.6865234375,11.572265625 36.8994140625,13.037109375 34.189453125,14.208984375 36.8994140625,15.41015625 38.6865234375,16.875 39.66796875,18.69140625 39.9609375,20.947265625 39.4189453125,23.7451171875 37.9541015625,25.7666015625 35.80078125,27.1142578125 33.193359375,27.919921875 30.3369140625,28.3154296875 27.48046875,28.41796875 24.43359375,28.41796875 24.43359375,46.5234375 33.984375,46.5234375 33.984375,50.91796875 0,50.91796875 0,46.5234375 9.55078125,46.5234375 9.55078125,0z" />
    </g>
  </g>
</svg>