<?xml version="1.0" encoding="utf-8"?>
<!DOCTYPE svg PUBLIC "-//W3C//DTD SVG 1.1//EN" "http://www.w3.org/Graphics/SVG/1.1/DTD/svg11.dtd">
<svg width="29.9414062500002" height="53.818359375" xmlns="http://www.w3.org/2000/svg" xmlns:xlink="http://www.w3.org/1999/xlink" xmlns:xml="http://www.w3.org/XML/1998/namespace" version="1.1">
  <g>
    <g>
      <path style="fill:#FF0000;fill-opacity:1" d="M14.970703125,35.888671875L16.23046875,36.1376953125 17.255859375,36.826171875 17.9443359375,37.8515625 18.193359375,39.111328125 17.9443359375,40.37109375 17.255859375,41.396484375 16.23046875,42.0849609375 14.970703125,42.333984375 13.7109375,42.0849609375 12.685546875,41.396484375 11.9970703125,40.37109375 11.748046875,39.111328125 11.9970703125,37.8515625 12.685546875,36.826171875 13.7109375,36.1376953125 14.970703125,35.888671875z M14.970703125,11.162109375L16.23046875,11.4111328125 17.255859375,12.099609375 17.9443359375,13.125 18.193359375,14.384765625 17.9443359375,15.64453125 17.255859375,16.669921875 16.23046875,17.3583984375 14.970703125,17.607421875 13.7109375,17.3583984375 12.685546875,16.669921875 11.9970703125,15.64453125 11.748046875,14.384765625 11.9970703125,13.125 12.685546875,12.099609375 13.7109375,11.4111328125 14.970703125,11.162109375z M23.5546875,0L28.4765625,0 28.4765625,15 23.5546875,15 23.5546875,6.416015625 19.74609375,5.6396484375 15.849609375,5.361328125 11.8359375,5.7568359375 8.4228515625,7.1630859375 6.0498046875,9.9169921875 5.37963771820068,11.905517578125 5.15625,14.384765625 5.42358303070068,16.527099609375 6.2255859375,18.3251953125 9.0380859375,21.1669921875 13.0078125,23.3349609375 17.548828125,25.2685546875 22.08984375,27.421875 26.0595703125,30.205078125 28.8720703125,34.04296875 29.674072265625,36.49658203125 29.94140625,39.404296875 29.62646484375,42.843017578125 28.681640625,45.7177734375 27.2131328582764,48.072509765625 25.3271484375,49.951171875 23.0749492645264,51.368408203125 20.5078125,52.3388671875 14.8828125,53.0859375 9.755859375,52.646484375 4.92187404632568,51.4453125 4.92187404632568,53.818359375 0,53.818359375 0,38.583984375 4.92187404632568,38.583984375 4.92187404632568,46.201171875 9.8291015625,47.8271484375 15.1171875,48.45703125 18.80859375,47.958984375 21.8994140625,46.376953125 24.0087890625,43.623046875 24.5910625457764,41.77734375 24.78515625,39.580078125 24.0966796875,36.2548828125 22.20703125,33.7353515625 19.423828125,31.787109375 16.0546875,30.17578125 12.392578125,28.681640625 8.73046875,27.041015625 5.361328125,25.0048828125 2.57812476158142,22.3681640625 0.688475847244263,18.8671875 0,14.267578125 0.322265446186066,10.968017578125 1.2890625,8.1591796875 2.79785132408142,5.82275390625 4.74609375,3.94042944908142 7.08251953125,2.50488567352295 9.755859375,1.50878882408142 12.6708974838257,0.926516473293304 15.732421875,0.732421636581421 19.7314453125,1.01074206829071 23.5546875,1.69921898841858 23.5546875,0z" />
    </g>
  </g>
</svg>