<?xml version="1.0" encoding="utf-8"?>
<!DOCTYPE svg PUBLIC "-//W3C//DTD SVG 1.1//EN" "http://www.w3.org/Graphics/SVG/1.1/DTD/svg11.dtd">
<svg width="42.59765625" height="42.12890625" xmlns="http://www.w3.org/2000/svg" xmlns:xlink="http://www.w3.org/1999/xlink" xmlns:xml="http://www.w3.org/XML/1998/namespace" version="1.1">
  <g>
    <g>
      <path style="fill:#FF0000;fill-opacity:1" d="M27.7734375,27.12890625L24.8364238739014,29.17236328125 21.298828125,29.853515625 17.83447265625,29.1796875 14.8828125,27.158203125 8.3203125,31.259765625 10.9863271713257,34.03564453125 14.00390625,35.9765625 17.42431640625,37.119140625 21.298828125,37.5 25.2209453582764,37.119140625 28.6669921875,35.9765625 31.688232421875,34.03564453125 34.3359375,31.259765625 27.7734375,27.12890625z M21.298828125,16.46484375L19.5263671875,16.8310546875 18.076171875,17.8271484375 17.109375,19.2919921875 16.7578125,21.064453125 17.109375,22.8369140625 18.076171875,24.3017578125 19.5263671875,25.2978515625 21.298828125,25.6640625 23.0712890625,25.2978515625 24.521484375,24.3017578125 25.48828125,22.8369140625 25.83984375,21.064453125 25.48828125,19.2919921875 24.521484375,17.8271484375 23.0712890625,16.8310546875 21.298828125,16.46484375z M23.525390625,4.62890625L23.525390625,12.5390625 26.2353515625,13.7255859375 28.388671875,15.64453125 29.8095703125,18.1494140625 30.322265625,21.064453125 30,23.49609375 36.416015625,27.392578125 37.31689453125,24.3017578125 37.6171875,21.064453125 37.353515625,18.0578632354736 36.5625,15.1904296875 35.302734375,12.5390625 33.6328125,10.1806640625 29.1796875,6.50390625 26.4770488739014,5.302734375 23.525390625,4.62890625z M19.072265625,4.62890625L16.116943359375,5.302734375 13.4033203125,6.50390625 8.9501953125,10.1806640625 7.291259765625,12.5390625 6.03515625,15.1904296875 5.24414014816284,18.0578632354736 4.98046875,21.064453125 5.29540967941284,24.3310546875 6.240234375,27.392578125 12.626953125,23.5546875 12.275390625,21.064453125 12.802734375,18.0908203125 14.23828125,15.5859375 16.3916015625,13.681640625 19.072265625,12.5390625 19.072265625,4.62890625z M21.298828125,0L25.7665996551514,0.406494081020355 29.853515625,1.62597608566284 33.486328125,3.555908203125 36.591796875,6.09375 39.11865234375,9.188232421875 41.015625,12.7880859375 42.2021484375,16.7834491729736 42.59765625,21.064453125 42.2021484375,25.345458984375 41.015625,29.3408203125 39.11865234375,32.940673828125 36.591796875,36.03515625 33.486328125,38.572998046875 29.853515625,40.5029296875 25.7665996551514,41.722412109375 21.298828125,42.12890625 16.8310546875,41.722412109375 12.744140625,40.5029296875 9.111328125,38.572998046875 6.005859375,36.03515625 3.47900390625,32.940673828125 1.58203101158142,29.3408203125 0.395507782697678,25.345458984375 0,21.064453125 0.395507782697678,16.7834491729736 1.58203101158142,12.7880859375 3.47900390625,9.188232421875 6.005859375,6.09375 9.111328125,3.555908203125 12.744140625,1.62597608566284 16.8310546875,0.406494081020355 21.298828125,0z" />
    </g>
  </g>
</svg>