<?xml version="1.0" encoding="utf-8"?>
<!DOCTYPE svg PUBLIC "-//W3C//DTD SVG 1.1//EN" "http://www.w3.org/Graphics/SVG/1.1/DTD/svg11.dtd">
<svg width="53.37890625" height="52.32421875" xmlns="http://www.w3.org/2000/svg" xmlns:xlink="http://www.w3.org/1999/xlink" xmlns:xml="http://www.w3.org/XML/1998/namespace" version="1.1">
  <g>
    <g>
      <path style="fill:#FF0000;fill-opacity:1" d="M26.689453125,36.15234375L24.43359375,36.62109375 22.587890625,37.8955078125 21.3427734375,39.7705078125 20.888671875,42.041015625 21.3427734375,44.3408203125 22.5732421875,46.201171875 24.404296875,47.4609375 26.689453125,47.9296875 28.9453125,47.4609375 30.791015625,46.1865234375 32.0361328125,44.3115234375 32.490234375,42.041015625 32.0361328125,39.7705078125 30.791015625,37.8955078125 28.9453125,36.62109375 26.689453125,36.15234375z M42.94921875,4.39453220367432L40.693359375,4.86328172683716 38.84765625,6.13769578933716 37.6025390625,8.01269626617432 37.1484375,10.283203125 37.6025390625,12.5830078125 38.8330078125,14.443359375 40.6640625,15.703125 42.94921875,16.171875 45.205078125,15.703125 47.05078125,14.4287109375 48.2958984375,12.5537109375 48.75,10.283203125 48.2958984375,8.01269626617432 47.05078125,6.13769578933716 45.205078125,4.86328172683716 42.94921875,4.39453220367432z M10.4296875,4.39453220367432L8.173828125,4.86328172683716 6.328125,6.13769578933716 5.08300733566284,8.01269626617432 4.62890625,10.283203125 5.08300733566284,12.5830078125 6.3134765625,14.443359375 8.14453125,15.703125 10.4296875,16.171875 12.685546875,15.703125 14.53125,14.4287109375 15.7763671875,12.5537109375 16.23046875,10.283203125 15.7763671875,8.01269626617432 14.53125,6.13769578933716 12.685546875,4.86328172683716 10.4296875,4.39453220367432z M10.4296875,0L14.0478515625,0.615235090255737 17.080078125,2.32910180091858 19.3359375,4.90722703933716 20.625,8.0859375 32.75390625,8.0859375 33.984375,4.96582078933716 36.181640625,2.38769555091858 39.2138671875,0.644531607627869 42.94921875,0 45.09521484375,0.205081313848495 47.080078125,0.820312738418579 50.390625,3.03222703933716 52.587890625,6.29882860183716 53.1811485290527,8.232421875 53.37890625,10.283203125 53.1811485290527,12.333984375 52.587890625,14.267578125 50.390625,17.5341796875 47.080078125,19.74609375 45.09521484375,20.3613300323486 42.94921875,20.56640625 39.6240234375,19.9951171875 36.5771484375,18.369140625 34.1748046875,15.8203125 32.75390625,12.48046875 29.150390625,12.48046875 29.150390625,32.05078125 32.373046875,33.3984375 34.892578125,35.654296875 36.533203125,38.61328125 37.119140625,42.041015625 36.92138671875,44.091796875 36.328125,46.025390625 34.130859375,49.2919921875 30.8203125,51.50390625 28.8354473114014,52.119140625 26.689453125,52.32421875 22.91015625,51.591796875 19.5556640625,49.51171875 17.16796875,46.259765625 16.48681640625,44.2529296875 16.259765625,42.041015625 16.81640625,38.7158203125 18.4130859375,35.7568359375 20.9326171875,33.4423828125 24.228515625,32.05078125 24.228515625,12.48046875 20.625,12.48046875 19.3359375,15.6884765625 17.080078125,18.251953125 14.0478515625,19.951171875 10.4296875,20.56640625 6.650390625,19.833984375 3.2958984375,17.75390625 0.908202886581421,14.501953125 0.227050706744194,12.4951171875 0,10.283203125 0.747070074081421,6.43066453933716 2.85644483566284,3.14941453933716 6.15234422683716,0.864258170127869 8.1884765625,0.216067641973495 10.4296875,0z" />
    </g>
  </g>
</svg>