<?xml version="1.0" encoding="utf-8"?>
<!DOCTYPE svg PUBLIC "-//W3C//DTD SVG 1.1//EN" "http://www.w3.org/Graphics/SVG/1.1/DTD/svg11.dtd">
<svg width="41.806640625" height="52.32421875" xmlns="http://www.w3.org/2000/svg" xmlns:xlink="http://www.w3.org/1999/xlink" xmlns:xml="http://www.w3.org/XML/1998/namespace" version="1.1">
  <g>
    <g>
      <path style="fill:#FF0000;fill-opacity:1" d="M15.17578125,40.458984375L15.7470703125,43.65234375 16.93359375,45.908203125 18.662109375,47.24853515625 20.859375,47.6953125 23.0786113739014,47.23388671875 24.814453125,45.849609375 26.0082988739014,43.5791015625 26.6015625,40.458984375 15.17578125,40.458984375z M20.947265625,27.94921875L18.8671875,28.5791015625 17.2119140625,30.3076171875 16.0107421875,32.8857421875 15.29296875,36.064453125 26.513671875,36.064453125 25.7958984375,32.8564453125 24.609375,30.2783203125 22.96875,28.564453125 20.947265625,27.94921875z M34.39453125,22.79296875L35.654296875,23.0419921875 36.6796875,23.73046875 37.3681640625,24.755859375 37.6171875,26.015625 37.3681640625,27.275390625 36.6796875,28.30078125 35.654296875,28.9892578125 34.39453125,29.23828125 33.134765625,28.9892578125 32.109375,28.30078125 31.4208984375,27.275390625 31.171875,26.015625 31.4208984375,24.755859375 32.109375,23.73046875 33.134765625,23.0419921875 34.39453125,22.79296875z M7.412109375,22.79296875L8.671875,23.0419921875 9.697265625,23.73046875 10.3857421875,24.755859375 10.634765625,26.015625 10.3857421875,27.275390625 9.697265625,28.30078125 8.671875,28.9892578125 7.412109375,29.23828125 6.15234375,28.9892578125 5.12695264816284,28.30078125 4.4384765625,27.275390625 4.189453125,26.015625 4.4384765625,24.755859375 5.12695264816284,23.73046875 6.15234375,23.0419921875 7.412109375,22.79296875z M15.234375,16.142578125L15.908203125,19.332275390625 17.109375,21.6357421875 18.779296875,23.0310077667236 20.859375,23.49609375 22.9467754364014,23.0200214385986 24.638671875,21.591796875 25.8618144989014,19.27734375 26.54296875,16.142578125 15.234375,16.142578125z M20.859375,4.62890577316284L18.544921875,5.1416015625 16.845703125,6.591796875 15.732421875,8.84765625 15.17578125,11.748046875 26.6015625,11.748046875 26.0229473114014,8.82568359375 24.873046875,6.5625 23.1518535614014,5.1123046875 20.859375,4.62890577316284z M20.888671875,0L23.2434062957764,0.205081015825272 25.3271484375,0.820312738418579 28.65234375,3.16406273841858 30.8203125,6.8701171875 31.787109375,11.748046875 36.884765625,11.748046875 36.884765625,7.32421875 41.806640625,7.32421875 41.806640625,20.625 36.884765625,20.625 36.884765625,16.142578125 31.669921875,16.142578125 31.06201171875,19.068603515625 30,21.6943359375 28.4619121551514,23.9392108917236 26.42578125,25.72265625 28.5791015625,27.59765625 30.1318359375,30.05859375 31.142578125,32.9443359375 31.69921875,36.064453125 36.884765625,36.064453125 36.884765625,31.640625 41.806640625,31.640625 41.806640625,44.94140625 36.884765625,44.94140625 36.884765625,40.458984375 31.787109375,40.458984375 30.849609375,45.494384765625 28.681640625,49.2333984375 27.1527080535889,50.5856323242188 25.3491191864014,51.551513671875 23.2708721160889,52.1310424804688 20.91796875,52.32421875 18.55224609375,52.1328735351563 16.46484375,51.558837890625 14.65576171875,50.6021118164063 13.125,49.2626953125 10.9497060775757,45.531005859375 9.990234375,40.458984375 4.921875,40.458984375 4.921875,44.94140625 0,44.94140625 0,31.640625 4.921875,31.640625 4.921875,36.064453125 10.078125,36.064453125 10.634765625,32.9443359375 11.66015625,30.05859375 13.2275390625,27.59765625 15.380859375,25.72265625 13.32275390625,23.9392108917236 11.77734375,21.6943359375 10.7153310775757,19.068603515625 10.107421875,16.142578125 4.921875,16.142578125 4.921875,20.625 0,20.625 0,7.32421875 4.921875,7.32421875 4.921875,11.748046875 10.01953125,11.748046875 11.0009765625,6.8115234375 13.18359375,3.12011694908142 16.494140625,0.80566394329071 18.5595703125,0.201418861746788 20.888671875,0z" />
    </g>
  </g>
</svg>