<?xml version="1.0" encoding="utf-8"?>
<!DOCTYPE svg PUBLIC "-//W3C//DTD SVG 1.1//EN" "http://www.w3.org/Graphics/SVG/1.1/DTD/svg11.dtd">
<svg width="32.16796875" height="50.91796875" xmlns="http://www.w3.org/2000/svg" xmlns:xlink="http://www.w3.org/1999/xlink" xmlns:xml="http://www.w3.org/XML/1998/namespace" version="1.1">
  <g>
    <g>
      <path style="fill:#FF0000;fill-opacity:1" d="M26.689453125,17.197265625L27.94921875,17.4462890625 28.974609375,18.134765625 29.6630859375,19.16015625 29.912109375,20.419921875 29.6630859375,21.6796875 28.974609375,22.705078125 27.94921875,23.3935546875 26.689453125,23.642578125 25.4296875,23.3935546875 24.404296875,22.705078125 23.7158203125,21.6796875 23.466796875,20.419921875 23.7158203125,19.16015625 24.404296875,18.134765625 25.4296875,17.4462890625 26.689453125,17.197265625z M5.478515625,17.197265625L6.73828172683716,17.4462890625 7.76367235183716,18.134765625 8.4521484375,19.16015625 8.701171875,20.419921875 8.4521484375,21.6796875 7.76367235183716,22.705078125 6.73828172683716,23.3935546875 5.478515625,23.642578125 4.21875095367432,23.3935546875 3.19335985183716,22.705078125 2.50488328933716,21.6796875 2.25585985183716,20.419921875 2.50488328933716,19.16015625 3.19335985183716,18.134765625 4.21875095367432,17.4462890625 5.478515625,17.197265625z M0,0L32.16796875,0 32.16796875,4.39453125 18.544921875,4.39453125 18.544921875,50.91796875 13.623046875,50.91796875 13.623046875,4.39453125 0,4.39453125 0,0z" />
    </g>
  </g>
</svg>