<?xml version="1.0" encoding="utf-8"?>
<!DOCTYPE svg PUBLIC "-//W3C//DTD SVG 1.1//EN" "http://www.w3.org/Graphics/SVG/1.1/DTD/svg11.dtd">
<svg width="52.939453125" height="50.91796875" xmlns="http://www.w3.org/2000/svg" xmlns:xlink="http://www.w3.org/1999/xlink" xmlns:xml="http://www.w3.org/XML/1998/namespace" version="1.1">
  <g>
    <g>
      <path style="fill:#FF0000;fill-opacity:1" d="M42.509765625,32.138671875L43.76953125,32.3876953125 44.794921875,33.076171875 45.4833984375,34.1015625 45.732421875,35.361328125 45.4833984375,36.62109375 44.794921875,37.646484375 43.76953125,38.3349609375 42.509765625,38.583984375 41.25,38.3349609375 40.224609375,37.646484375 39.5361328125,36.62109375 39.287109375,35.361328125 39.5361328125,34.1015625 40.224609375,33.076171875 41.25,32.3876953125 42.509765625,32.138671875z M10.4296875,32.138671875L11.689453125,32.3876953125 12.71484375,33.076171875 13.4033203125,34.1015625 13.65234375,35.361328125 13.4033203125,36.62109375 12.71484375,37.646484375 11.689453125,38.3349609375 10.4296875,38.583984375 9.169921875,38.3349609375 8.14453125,37.646484375 7.4560546875,36.62109375 7.20703125,35.361328125 7.4560546875,34.1015625 8.14453125,33.076171875 9.169921875,32.3876953125 10.4296875,32.138671875z M24.0234375,0L28.9453125,0 28.9453125,22.8515625 30.289306640625,21.8518085479736 31.2744140625,20.2001953125 31.878662109375,17.896728515625 32.080078125,14.94140625 36.9140625,14.94140625 37.236328125,18.837890625 38.232421875,21.4013671875 39.9609375,22.8076171875 42.509765625,23.232421875 45.47607421875,22.5659198760986 47.28515625,20.56640625 47.8344688415527,18.33984375 48.017578125,14.94140625 52.939453125,14.94140625 52.7856407165527,18.0230731964111 52.3242149353027,20.6762714385986 51.5551719665527,22.9010028839111 50.478515625,24.697265625 49.0759239196777,26.08154296875 47.3290977478027,27.0703125 45.2380332946777,27.66357421875 42.802734375,27.861328125 40.29052734375,27.568359375 38.0859375,26.689453125 36.2548828125,25.3344745635986 34.86328125,23.61328125 32.3876953125,26.1328125 28.9453125,27.48046875 28.9453125,50.91796875 24.0234375,50.91796875 24.0234375,27.509765625 20.537109375,26.1474609375 18.076171875,23.61328125 16.6845703125,25.3344745635986 14.853515625,26.689453125 12.6489248275757,27.568359375 10.13671875,27.861328125 7.701416015625,27.66357421875 5.6103515625,27.0703125 3.86352515220642,26.08154296875 2.4609375,24.697265625 1.38427734375,22.9010028839111 0.615234315395355,20.6762714385986 0.153808549046516,18.0230731964111 0,14.94140625 4.921875,14.94140625 5.10497999191284,18.3837890625 5.654296875,20.56640625 7.43408203125,22.5659198760986 10.4296875,23.232421875 13.0078125,22.79296875 14.736328125,21.357421875 15.7177734375,18.779296875 16.025390625,14.94140625 20.859375,14.94140625 21.060791015625,17.918701171875 21.6650390625,20.2294921875 22.6574687957764,21.8737812042236 24.0234375,22.8515625 24.0234375,0z" />
    </g>
  </g>
</svg>