<?xml version="1.0" encoding="utf-8"?>
<!DOCTYPE svg PUBLIC "-//W3C//DTD SVG 1.1//EN" "http://www.w3.org/Graphics/SVG/1.1/DTD/svg11.dtd">
<svg width="42.7734375" height="52.32421875" xmlns="http://www.w3.org/2000/svg" xmlns:xlink="http://www.w3.org/1999/xlink" xmlns:xml="http://www.w3.org/XML/1998/namespace" version="1.1">
  <g>
    <g>
      <path style="fill:#FF0000;fill-opacity:1" d="M32.255859375,11.3671875L33.515625,11.6162109375 34.541015625,12.3046875 35.2294921875,13.330078125 35.478515625,14.58984375 35.2294921875,15.849609375 34.541015625,16.875 33.515625,17.5634765625 32.255859375,17.8125 30.99609375,17.5634765625 29.970703125,16.875 29.2822265625,15.849609375 29.033203125,14.58984375 29.2822265625,13.330078125 29.970703125,12.3046875 30.99609375,11.6162109375 32.255859375,11.3671875z M34.3359375,1.40625023841858L36.86279296875,1.72851848602295 39.052734375,2.69531273841858 40.99365234375,4.34326171875 42.7734375,6.708984375 38.671875,9.19921875 37.6318359375,7.796630859375 36.50390625,6.8115234375 35.29541015625,6.229248046875 34.013671875,6.03515625 31.79443359375,6.6064453125 29.47265625,8.3203125 23.7890625,13.857421875 41.19140625,31.435546875 20.595703125,52.32421875 0,31.435546875 25.986328125,5.5078125 28.3447265625,3.51562476158142 30.5126953125,2.25585913658142 32.5048828125,1.59667980670929 34.3359375,1.40625023841858z M19.5703125,0L20.830078125,0.249023377895355 21.85546875,0.937499642372131 22.5439453125,1.96289074420929 22.79296875,3.22265648841858 22.5439453125,4.48242235183716 21.85546875,5.5078125 20.830078125,6.19628858566284 19.5703125,6.44531202316284 18.310546875,6.19628858566284 17.28515625,5.5078125 16.5966796875,4.48242235183716 16.34765625,3.22265648841858 16.5966796875,1.96289074420929 17.28515625,0.937499642372131 18.310546875,0.249023377895355 19.5703125,0z" />
    </g>
  </g>
</svg>