<?xml version="1.0" encoding="utf-8"?>
<!DOCTYPE svg PUBLIC "-//W3C//DTD SVG 1.1//EN" "http://www.w3.org/Graphics/SVG/1.1/DTD/svg11.dtd">
<svg width="39.375" height="50.91796875" xmlns="http://www.w3.org/2000/svg" xmlns:xlink="http://www.w3.org/1999/xlink" xmlns:xml="http://www.w3.org/XML/1998/namespace" version="1.1">
  <g>
    <g>
      <path style="fill:#FF0000;fill-opacity:1" d="M35.859375,41.484375L37.119140625,41.7333984375 38.14453125,42.421875 38.8330078125,43.447265625 39.08203125,44.70703125 38.8330078125,45.966796875 38.14453125,46.9921875 37.119140625,47.6806640625 35.859375,47.9296875 34.599609375,47.6806640625 33.57421875,46.9921875 32.8857421875,45.966796875 32.63671875,44.70703125 32.8857421875,43.447265625 33.57421875,42.421875 34.599609375,41.7333984375 35.859375,41.484375z M3.51562452316284,41.484375L4.775390625,41.7333984375 5.80078125,42.421875 6.4892578125,43.447265625 6.73828125,44.70703125 6.4892578125,45.966796875 5.80078125,46.9921875 4.775390625,47.6806640625 3.51562452316284,47.9296875 2.25585889816284,47.6806640625 1.23046875,46.9921875 0.541992425918579,45.966796875 0.29296875,44.70703125 0.541992425918579,43.447265625 1.23046875,42.421875 2.25585889816284,41.7333984375 3.51562452316284,41.484375z M17.2265625,36.85546875L22.1484375,36.85546875 22.1484375,50.91796875 17.2265625,50.91796875 17.2265625,36.85546875z M34.453125,0L39.375,0 39.375,14.0625 34.453125,14.0625 34.453125,0z M0,0L4.921875,0 4.921875,14.0625 0,14.0625 0,0z" />
    </g>
  </g>
</svg>