<?xml version="1.0" encoding="utf-8"?>
<!DOCTYPE svg PUBLIC "-//W3C//DTD SVG 1.1//EN" "http://www.w3.org/Graphics/SVG/1.1/DTD/svg11.dtd">
<svg width="40.8398437500001" height="52.32421875" xmlns="http://www.w3.org/2000/svg" xmlns:xlink="http://www.w3.org/1999/xlink" xmlns:xml="http://www.w3.org/XML/1998/namespace" version="1.1">
  <g>
    <g>
      <path style="fill:#FF0000;fill-opacity:1" d="M14.1796875,23.818359375L10.576171875,24.1845703125 7.6904296875,25.25390625 5.7861328125,26.9384765625 5.09765625,29.150390625 5.7861328125,31.40625 7.6904296875,33.0908203125 10.576171875,34.1455078125 14.1796875,34.51171875 17.999267578125,34.15283203125 21.2548828125,33.076171875 23.9245586395264,31.38427734375 25.986328125,29.1796875 23.9135723114014,26.8981952667236 21.2109375,25.2099609375 17.9443359375,24.1662616729736 14.1796875,23.818359375z M30.41015625,4.39453125L28.154296875,4.86328125 26.30859375,6.13769483566284 25.0634765625,8.0126953125 24.609375,10.283203125 25.0634765625,12.5537109375 26.30859375,14.4287109375 28.154296875,15.703125 30.41015625,16.171875 32.6953125,15.703125 34.5263671875,14.443359375 35.7568359375,12.5830078125 36.2109375,10.283203125 35.7568359375,8.0126953125 34.51171875,6.13769483566284 32.666015625,4.86328125 30.41015625,4.39453125z M30.41015625,0L32.6513671875,0.216067314147949 34.6875,0.864257752895355 37.9833984375,3.14941382408142 40.0927734375,6.4306640625 40.83984375,10.283203125 40.224609375,13.76953125 38.583984375,16.6552734375 36.1962890625,18.8232421875 33.310546875,20.15625 33.310546875,22.265625 32.8564453125,25.927734375 31.494140625,29.47265625 32.7392578125,33.076171875 33.1640625,36.9140625 32.962646484375,39.151611328125 32.3583984375,41.4697265625 31.300048828125,43.773193359375 29.736328125,45.966796875 27.6306133270264,47.991943359375 24.9462890625,49.7900390625 21.6394023895264,51.265869140625 17.666015625,52.32421875 16.494140625,48.017578125 21.50390625,46.318359375 25.13671875,43.59375 27.36328125,40.2685546875 27.9345684051514,38.507080078125 28.125,36.767578125 27.919921875,34.130859375 25.2062969207764,36.141357421875 21.9873046875,37.7197265625 18.248291015625,38.741455078125 13.974609375,39.08203125 8.525390625,38.3642578125 4.08691310882568,36.357421875 2.39501929283142,34.9365234375 1.09863257408142,33.251953125 0.274657994508743,31.34033203125 0,29.23828125 0.278320103883743,27.1325702667236 1.11328101158142,25.2099609375 2.42797827720642,23.5034198760986 4.1455078125,22.0458984375 8.6279296875,19.98046875 14.091796875,19.248046875 18.28857421875,19.60693359375 22.03125,20.68359375 25.2905254364014,22.3754901885986 28.037109375,24.580078125 28.388671875,21.4453125 28.388671875,20.390625 25.0048828125,19.1162109375 22.353515625,16.8603515625 20.6103515625,13.8427734375 19.98046875,10.283203125 20.17822265625,8.232421875 20.771484375,6.29882860183716 22.96875,3.03222703933716 26.279296875,0.820312738418579 28.2641582489014,0.205081015825272 30.41015625,0z" />
    </g>
  </g>
</svg>