<?xml version="1.0" encoding="utf-8"?>
<!DOCTYPE svg PUBLIC "-//W3C//DTD SVG 1.1//EN" "http://www.w3.org/Graphics/SVG/1.1/DTD/svg11.dtd">
<svg width="37.529296875" height="52.32421875" xmlns="http://www.w3.org/2000/svg" xmlns:xlink="http://www.w3.org/1999/xlink" xmlns:xml="http://www.w3.org/XML/1998/namespace" version="1.1">
  <g>
    <g>
      <path style="fill:#FF0000;fill-opacity:1" d="M3.22265648841858,45.17578125L4.482421875,45.4248046875 5.5078125,46.11328125 6.1962890625,47.138671875 6.4453125,48.3984375 6.1962890625,49.658203125 5.5078125,50.68359375 4.482421875,51.3720703125 3.22265648841858,51.62109375 1.96289086341858,51.3720703125 0.937500476837158,50.68359375 0.2490234375,49.658203125 0,48.3984375 0.2490234375,47.138671875 0.937500476837158,46.11328125 1.96289086341858,45.4248046875 3.22265648841858,45.17578125z M3.22265648841858,22.939453125L4.482421875,23.1884765625 5.5078125,23.876953125 6.1962890625,24.90234375 6.4453125,26.162109375 6.1962890625,27.421875 5.5078125,28.447265625 4.482421875,29.1357421875 3.22265648841858,29.384765625 1.96289086341858,29.1357421875 0.937500476837158,28.447265625 0.2490234375,27.421875 0,26.162109375 0.2490234375,24.90234375 0.937500476837158,23.876953125 1.96289086341858,23.1884765625 3.22265648841858,22.939453125z M3.22265648841858,0.70312511920929L4.482421875,0.952148497104645 5.5078125,1.64062476158142 6.1962890625,2.66601586341858 6.4453125,3.92578148841858 6.1962890625,5.18554639816284 5.5078125,6.2109375 4.482421875,6.8994140625 3.22265648841858,7.1484375 1.96289086341858,6.8994140625 0.937500476837158,6.2109375 0.2490234375,5.18554639816284 0,3.92578148841858 0.2490234375,2.66601586341858 0.937500476837158,1.64062476158142 1.96289086341858,0.952148497104645 3.22265648841858,0.70312511920929z M37.529296875,0L37.529296875,4.51171922683716 31.69921875,5.40527391433716 26.5869140625,7.6318359375 22.32421875,11.0302734375 19.072265625,15.380859375 17.0068359375,20.478515625 16.2890625,26.162109375 16.9921875,31.669921875 18.9990234375,36.7822265625 22.1923828125,41.220703125 26.4404296875,44.7216796875 31.5966796875,47.021484375 34.478759765625,47.63671875 37.529296875,47.841796875 37.529296875,52.32421875 33.81591796875,52.093505859375 30.29296875,51.4013671875 26.9897441864014,50.284423828125 23.935546875,48.779296875 18.6328125,44.6923828125 14.58984375,39.404296875 13.114013671875,36.38671875 12.0263671875,33.134765625 11.3562002182007,29.69970703125 11.1328125,26.1328125 11.3635244369507,22.6721210479736 12.0556640625,19.3212890625 13.172607421875,16.12060546875 14.677734375,13.1103515625 18.779296875,7.79296875 24.111328125,3.64746141433716 27.1582012176514,2.10205364227295 30.439453125,0.952148497104645 33.9111328125,0.238039970397949 37.529296875,0z" />
    </g>
  </g>
</svg>