<?xml version="1.0" encoding="utf-8"?>
<!DOCTYPE svg PUBLIC "-//W3C//DTD SVG 1.1//EN" "http://www.w3.org/Graphics/SVG/1.1/DTD/svg11.dtd">
<svg width="61.728515625" height="52.32421875" xmlns="http://www.w3.org/2000/svg" xmlns:xlink="http://www.w3.org/1999/xlink" xmlns:xml="http://www.w3.org/XML/1998/namespace" version="1.1">
  <g>
    <g>
      <path style="fill:#FF0000;fill-opacity:1" d="M26.982421875,0L29.208984375,4.248046875 8.115234375,14.70703125 8.115234375,14.912109375 27.568359375,23.935546875 49.892578125,23.935546875 32.51953125,16.0546875 32.51953125,13.828125 59.501953125,0 61.728515625,4.248046875 40.634765625,14.70703125 40.634765625,14.912109375 61.728515625,24.697265625 61.728515625,27.626953125 40.634765625,37.412109375 40.634765625,37.6171875 61.728515625,48.076171875 59.501953125,52.32421875 32.51953125,38.49609375 32.51953125,36.26953125 49.892578125,28.388671875 27.568359375,28.388671875 8.115234375,37.412109375 8.115234375,37.6171875 29.208984375,48.076171875 26.982421875,52.32421875 0,38.49609375 0,36.26953125 21.884765625,26.337890625 21.884765625,25.986328125 0,16.0546875 0,13.828125 26.982421875,0z" />
    </g>
  </g>
</svg>