<?xml version="1.0" encoding="utf-8"?>
<!DOCTYPE svg PUBLIC "-//W3C//DTD SVG 1.1//EN" "http://www.w3.org/Graphics/SVG/1.1/DTD/svg11.dtd">
<svg width="40.1953125" height="51.62109375" xmlns="http://www.w3.org/2000/svg" xmlns:xlink="http://www.w3.org/1999/xlink" xmlns:xml="http://www.w3.org/XML/1998/namespace" version="1.1">
  <g>
    <g>
      <path style="fill:#FF0000;fill-opacity:1" d="M25.546875,27.978515625L21.85546875,28.7255859375 18.8525390625,30.7763671875 16.845703125,33.80859375 16.11328125,37.5 16.845703125,41.19140625 18.8525390625,44.208984375 21.85546875,46.2451171875 25.546875,46.9921875 29.23828125,46.2451171875 32.255859375,44.208984375 34.2919921875,41.19140625 35.0390625,37.5 34.2919921875,33.80859375 32.255859375,30.7763671875 29.23828125,28.7255859375 25.546875,27.978515625z M3.54492235183716,0L26.71875,0 26.71875,2.34374952316284 23.3349609375,8.0419921875 20.33203125,14.2822265625 17.9443359375,20.80078125 16.40625,27.3046875 17.98828125,25.9716796875 20.1416015625,24.697265625 22.822265625,23.73046875 26.015625,23.349609375 28.7915019989014,23.6132831573486 31.435546875,24.404296875 33.856201171875,25.6604022979736 35.9619140625,27.3193359375 37.708740234375,29.34814453125 39.052734375,31.7138671875 39.90966796875,34.361572265625 40.1953125,37.236328125 39.906005859375,40.12939453125 39.0380859375,42.83203125 37.672119140625,45.2783203125 35.888671875,47.40234375 33.731689453125,49.156494140625 31.2451171875,50.4931640625 28.5021953582764,51.339111328125 25.576171875,51.62109375 22.650146484375,51.35009765625 19.9072265625,50.537109375 17.420654296875,49.2041015625 15.263671875,47.373046875 13.4802236557007,45.047607421875 12.1142578125,42.2314453125 11.2463369369507,38.946533203125 10.95703125,35.21484375 11.1914052963257,30.450439453125 11.89453125,25.5908203125 13.0810537338257,20.6213397979736 14.765625,15.52734375 0,15.52734375 0,11.1328125 16.58203125,11.1328125 18.22265625,7.79296875 20.068359375,4.39453077316284 3.54492235183716,4.39453077316284 3.54492235183716,0z" />
    </g>
  </g>
</svg>