<?xml version="1.0" encoding="utf-8"?>
<!DOCTYPE svg PUBLIC "-//W3C//DTD SVG 1.1//EN" "http://www.w3.org/Graphics/SVG/1.1/DTD/svg11.dtd">
<svg width="35.947265625" height="51.62109375" xmlns="http://www.w3.org/2000/svg" xmlns:xlink="http://www.w3.org/1999/xlink" xmlns:xml="http://www.w3.org/XML/1998/namespace" version="1.1">
  <g>
    <g>
      <path style="fill:#FF0000;fill-opacity:1" d="M17.9296875,27.978515625L14.23828125,28.7255859375 11.2353515625,30.7763671875 9.228515625,33.80859375 8.49609375,37.5 9.228515625,41.19140625 11.2353515625,44.208984375 14.23828125,46.2451171875 17.9296875,46.9921875 21.62109375,46.2451171875 24.638671875,44.208984375 26.6748046875,41.19140625 27.421875,37.5 26.6748046875,33.80859375 24.638671875,30.7763671875 21.62109375,28.7255859375 17.9296875,27.978515625z M17.958984375,23.349609375L20.885009765625,23.6132831573486 23.6279296875,24.404296875 26.1145000457764,25.6604022979736 28.271484375,27.3193359375 30.054931640625,29.34814453125 31.4208984375,31.7138671875 32.288818359375,34.361572265625 32.578125,37.236328125 32.288818359375,40.12939453125 31.4208984375,42.83203125 30.054931640625,45.2783203125 28.271484375,47.40234375 26.1145000457764,49.156494140625 23.6279296875,50.4931640625 20.885009765625,51.339111328125 17.958984375,51.62109375 15.032958984375,51.339111328125 12.2900390625,50.4931640625 9.80346584320068,49.156494140625 7.646484375,47.40234375 5.863037109375,45.2783203125 4.4970703125,42.83203125 3.62915015220642,40.12939453125 3.33984351158142,37.236328125 3.62915015220642,34.361572265625 4.4970703125,31.7138671875 5.863037109375,29.34814453125 7.646484375,27.3193359375 9.80346584320068,25.6604022979736 12.2900390625,24.404296875 15.032958984375,23.6132831573486 17.958984375,23.349609375z M0,0L4.921875,0 4.921875,5.09765672683716 5.185546875,8.818359375 6.005859375,11.66015625 7.44140625,13.4765625 9.521484375,14.12109375 12.36328125,13.564453125 14.208984375,11.923828125 15.2197265625,9.2138671875 15.52734375,5.419921875 15.52734375,0 20.44921875,0 20.44921875,5.33203172683716 20.7421875,9.345703125 21.73828125,12.0703125 23.5986328125,13.623046875 26.484375,14.12109375 28.5205078125,13.4765625 29.94140625,11.66015625 30.76171875,8.818359375 31.025390625,5.09765672683716 31.025390625,0 35.947265625,0 35.947265625,5.0390625 35.537109375,10.0927734375 34.4091796875,13.76953125 32.7685546875,16.259765625 30.8056640625,17.783203125 28.6962890625,18.544921875 26.630859375,18.75 23.642578125,18.2080078125 21.123046875,16.7431640625 19.2041015625,14.6044921875 18.017578125,12.041015625 16.875,14.3701171875 14.94140625,16.5234375 12.3779296875,18.1201171875 9.345703125,18.75 5.9033203125,18.134765625 4.31396484375,17.318115234375 2.91503882408142,16.0986328125 1.73584008216858,14.443359375 0.805664300918579,12.3193359375 0.201416224241257,9.678955078125 0,6.474609375 0,0z" />
    </g>
  </g>
</svg>