<?xml version="1.0" encoding="utf-8"?>
<!DOCTYPE svg PUBLIC "-//W3C//DTD SVG 1.1//EN" "http://www.w3.org/Graphics/SVG/1.1/DTD/svg11.dtd">
<svg width="49.6875000000021" height="50.91796875" xmlns="http://www.w3.org/2000/svg" xmlns:xlink="http://www.w3.org/1999/xlink" xmlns:xml="http://www.w3.org/XML/1998/namespace" version="1.1">
  <g>
    <g>
      <path style="fill:#FF0000;fill-opacity:1" d="M46.46484375,22.236328125L47.724609375,22.4853515625 48.75,23.173828125 49.4384765625,24.19921875 49.6875,25.458984375 49.4384765625,26.71875 48.75,27.744140625 47.724609375,28.4326171875 46.46484375,28.681640625 45.205078125,28.4326171875 44.1796875,27.744140625 43.4912109375,26.71875 43.2421875,25.458984375 43.4912109375,24.19921875 44.1796875,23.173828125 45.205078125,22.4853515625 46.46484375,22.236328125z M3.22265577316284,22.236328125L4.48242139816284,22.4853515625 5.50781202316284,23.173828125 6.1962890625,24.19921875 6.44531202316284,25.458984375 6.1962890625,26.71875 5.50781202316284,27.744140625 4.48242139816284,28.4326171875 3.22265577316284,28.681640625 1.96289002895355,28.4326171875 0.93749988079071,27.744140625 0.24902355670929,26.71875 0,25.458984375 0.24902355670929,24.19921875 0.93749988079071,23.173828125 1.96289002895355,22.4853515625 3.22265577316284,22.236328125z M24.84375,8.0859375L14.6484375,25.458984375 24.84375,42.83203125 35.0390625,25.458984375 24.84375,8.0859375z M24.111328125,0L25.576171875,0 40.78125,25.458984375 25.576171875,50.91796875 24.111328125,50.91796875 8.90625,25.458984375 24.111328125,0z" />
    </g>
  </g>
</svg>