<?xml version="1.0" encoding="utf-8"?>
<!DOCTYPE svg PUBLIC "-//W3C//DTD SVG 1.1//EN" "http://www.w3.org/Graphics/SVG/1.1/DTD/svg11.dtd">
<svg width="40.4296875" height="42.01171875" xmlns="http://www.w3.org/2000/svg" xmlns:xlink="http://www.w3.org/1999/xlink" xmlns:xml="http://www.w3.org/XML/1998/namespace" version="1.1">
  <g>
    <g>
      <path style="fill:#FF0000;fill-opacity:1" d="M25.13671875,29.912109375L26.396484375,30.1611328125 27.421875,30.849609375 28.1103515625,31.875 28.359375,33.134765625 28.1103515625,34.39453125 27.421875,35.419921875 26.396484375,36.1083984375 25.13671875,36.357421875 23.876953125,36.1083984375 22.8515625,35.419921875 22.1630859375,34.39453125 21.9140625,33.134765625 22.1630859375,31.875 22.8515625,30.849609375 23.876953125,30.1611328125 25.13671875,29.912109375z M37.20703125,17.783203125L38.466796875,18.0322265625 39.4921875,18.720703125 40.1806640625,19.74609375 40.4296875,21.005859375 40.1806640625,22.265625 39.4921875,23.291015625 38.466796875,23.9794921875 37.20703125,24.228515625 35.947265625,23.9794921875 34.921875,23.291015625 34.2333984375,22.265625 33.984375,21.005859375 34.2333984375,19.74609375 34.921875,18.720703125 35.947265625,18.0322265625 37.20703125,17.783203125z M25.13671875,5.654296875L26.396484375,5.9033203125 27.421875,6.591796875 28.1103515625,7.6171875 28.359375,8.876953125 28.1103515625,10.13671875 27.421875,11.162109375 26.396484375,11.8505859375 25.13671875,12.099609375 23.876953125,11.8505859375 22.8515625,11.162109375 22.1630859375,10.13671875 21.9140625,8.876953125 22.1630859375,7.6171875 22.8515625,6.591796875 23.876953125,5.9033203125 25.13671875,5.654296875z M0,0L4.921875,0 4.921875,14.326171875 29.53125,14.326171875 29.53125,18.720703125 4.921875,18.720703125 4.921875,23.291015625 29.53125,23.291015625 29.53125,27.685546875 4.921875,27.685546875 4.921875,42.01171875 0,42.01171875 0,0z" />
    </g>
  </g>
</svg>