<?xml version="1.0" encoding="utf-8"?>
<!DOCTYPE svg PUBLIC "-//W3C//DTD SVG 1.1//EN" "http://www.w3.org/Graphics/SVG/1.1/DTD/svg11.dtd">
<svg width="58.76953125" height="52.294921875" xmlns="http://www.w3.org/2000/svg" xmlns:xlink="http://www.w3.org/1999/xlink" xmlns:xml="http://www.w3.org/XML/1998/namespace" version="1.1">
  <g>
    <g>
      <path style="fill:#FF0000;fill-opacity:1" d="M55.751953125,35.830078125L58.76953125,38.935546875 45.99609375,52.294921875 42.978515625,49.189453125 55.751953125,35.830078125z M3.017578125,35.830078125L15.791015625,49.189453125 12.7734375,52.294921875 0,38.935546875 3.017578125,35.830078125z M29.384765625,15.41015625L15.849609375,36.5625 42.919921875,36.5625 29.384765625,15.41015625z M18.837890625,7.03124904632568L39.931640625,7.03124904632568 39.931640625,11.42578125 32.05078125,11.42578125 46.669921875,34.5703125 50.478515625,30.5859375 53.583984375,33.75 40.810546875,47.109375 37.705078125,43.9453125 40.546875,40.95703125 18.193359375,40.95703125 21.064453125,43.9453125 17.958984375,47.109375 5.18554639816284,33.75 8.291015625,30.5859375 12.0703125,34.541015625 26.689453125,11.42578125 18.837890625,11.42578125 18.837890625,7.03124904632568z M18.837890625,0L39.931640625,0 39.931640625,4.39453125 18.837890625,4.39453125 18.837890625,0z" />
    </g>
  </g>
</svg>