<?xml version="1.0" encoding="utf-8"?>
<!DOCTYPE svg PUBLIC "-//W3C//DTD SVG 1.1//EN" "http://www.w3.org/Graphics/SVG/1.1/DTD/svg11.dtd">
<svg width="50.625" height="50.91796875" xmlns="http://www.w3.org/2000/svg" xmlns:xlink="http://www.w3.org/1999/xlink" xmlns:xml="http://www.w3.org/XML/1998/namespace" version="1.1">
  <g>
    <g>
      <path style="fill:#FF0000;fill-opacity:1" d="M25.3125,15.673828125L22.8552227020264,17.87841796875 21.1083984375,20.80078125 20.064697265625,24.4409198760986 19.716796875,28.798828125 20.1416015625,32.28515625 21.3134765625,34.9951171875 23.0859375,36.7529296875 25.3125,37.3828125 27.5390625,36.7529296875 29.3115234375,34.9951171875 30.4833984375,32.28515625 30.908203125,28.798828125 30.560302734375,24.4409198760986 29.5166015625,20.80078125 27.769775390625,17.87841796875 25.3125,15.673828125z M0,0L4.92187547683716,0 4.92187547683716,11.455078125 7.481689453125,10.169677734375 10.1220703125,9.3603515625 15.5859375,8.7890625 20.5078125,9.3896484375 25.3125,10.927734375 30.1025390625,9.3896484375 35.21484375,8.7890625 38.02734375,8.9794921875 40.83984375,9.521484375 43.4619140625,10.3564453125 45.703125,11.42578125 45.703125,0 50.625,0 50.625,50.91796875 45.703125,50.91796875 45.703125,16.728515625 43.80615234375,15.3076171875 41.455078125,14.208984375 38.5693359375,13.505859375 35.068359375,13.271484375 32.6806640625,13.4326171875 30.234375,13.916015625 32.7392578125,16.768798828125 34.5703125,20.2294921875 35.69091796875,24.2248554229736 36.064453125,28.681640625 35.3173828125,34.0869140625 33.1787109375,38.291015625 31.636962890625,39.854736328125 29.794921875,41.0302734375 27.6782207489014,41.766357421875 25.3125,42.01171875 22.9248027801514,41.766357421875 20.80078125,41.0302734375 18.96240234375,39.854736328125 17.431640625,38.291015625 15.3076171875,34.0869140625 14.560546875,28.681640625 14.937744140625,24.2614765167236 16.0693359375,20.2587890625 17.911376953125,16.776123046875 20.419921875,13.916015625 15.05859375,13.2421875 9.5654296875,13.9892578125 7.09350633621216,15.040283203125 4.92187547683716,16.69921875 4.92187547683716,50.91796875 0,50.91796875 0,0z" />
    </g>
  </g>
</svg>