<?xml version="1.0" encoding="utf-8"?>
<!DOCTYPE svg PUBLIC "-//W3C//DTD SVG 1.1//EN" "http://www.w3.org/Graphics/SVG/1.1/DTD/svg11.dtd">
<svg width="41.923828125" height="52.32421875" xmlns="http://www.w3.org/2000/svg" xmlns:xlink="http://www.w3.org/1999/xlink" xmlns:xml="http://www.w3.org/XML/1998/namespace" version="1.1">
  <g>
    <g>
      <path style="fill:#FF0000;fill-opacity:1" d="M13.06640625,45.17578125L14.326171875,45.4248046875 15.3515625,46.11328125 16.0400390625,47.138671875 16.2890625,48.3984375 16.0400390625,49.658203125 15.3515625,50.68359375 14.326171875,51.3720703125 13.06640625,51.62109375 11.806640625,51.3720703125 10.78125,50.68359375 10.0927734375,49.658203125 9.84375,48.3984375 10.0927734375,47.138671875 10.78125,46.11328125 11.806640625,45.4248046875 13.06640625,45.17578125z M13.06640625,0.70312511920929L14.326171875,0.952148497104645 15.3515625,1.64062476158142 16.0400390625,2.66601586341858 16.2890625,3.92578148841858 16.0400390625,5.18554639816284 15.3515625,6.2109375 14.326171875,6.8994140625 13.06640625,7.1484375 11.806640625,6.8994140625 10.78125,6.2109375 10.0927734375,5.18554639816284 9.84375,3.92578148841858 10.0927734375,2.66601586341858 10.78125,1.64062476158142 11.806640625,0.952148497104645 13.06640625,0.70312511920929z M0,0.70312511920929L4.921875,0.70312511920929 4.921875,51.62109375 0,51.62109375 0,0.70312511920929z M41.923828125,0L41.923828125,4.51171922683716 36.09375,5.40527391433716 30.9814453125,7.6318359375 26.71875,11.0302734375 23.466796875,15.380859375 21.4013671875,20.478515625 20.68359375,26.162109375 21.38671875,31.669921875 23.3935546875,36.7822265625 26.5869140625,41.220703125 30.8349609375,44.7216796875 35.9912109375,47.021484375 38.873291015625,47.63671875 41.923828125,47.841796875 41.923828125,52.32421875 38.21044921875,52.093505859375 34.6875,51.4013671875 31.38427734375,50.284423828125 28.330078125,48.779296875 23.02734375,44.6923828125 18.984375,39.404296875 17.508544921875,36.38671875 16.4208984375,33.134765625 15.750732421875,29.69970703125 15.52734375,26.1328125 15.758056640625,22.6721210479736 16.4501953125,19.3212890625 17.567138671875,16.12060546875 19.072265625,13.1103515625 23.173828125,7.79296875 28.505859375,3.64746141433716 31.552734375,2.10205364227295 34.833984375,0.952148497104645 38.3056640625,0.238039970397949 41.923828125,0z" />
    </g>
  </g>
</svg>