<?xml version="1.0" encoding="utf-8"?>
<!DOCTYPE svg PUBLIC "-//W3C//DTD SVG 1.1//EN" "http://www.w3.org/Graphics/SVG/1.1/DTD/svg11.dtd">
<svg width="61.5234375" height="42.12890625" xmlns="http://www.w3.org/2000/svg" xmlns:xlink="http://www.w3.org/1999/xlink" xmlns:xml="http://www.w3.org/XML/1998/namespace" version="1.1">
  <g>
    <g>
      <path style="fill:#FF0000;fill-opacity:1" d="M30.76171875,31.552734375L25.48828125,32.783203125 20.009765625,33.28125 22.22900390625,35.0537109375 24.78515625,36.38671875 27.6196269989014,37.2216796875 30.673828125,37.5 33.731689453125,37.2216796875 36.5771484375,36.38671875 39.158935546875,35.0537109375 41.42578125,33.28125 40.517578125,33.28125 35.302734375,32.783203125 30.76171875,31.552734375z M30.76171875,16.875L29.3444805145264,17.1716327667236 28.2568359375,18.0615234375 27.5646953582764,19.4787616729736 27.333984375,21.357421875 27.568359375,23.3056640625 28.2568359375,25.0634765625 29.3408203125,26.5283203125 30.76171875,27.626953125 32.171630859375,26.561279296875 33.2373046875,25.0634765625 33.907470703125,23.280029296875 34.130859375,21.357421875 33.907470703125,19.4787616729736 33.2373046875,18.0615234375 32.171630859375,17.1716327667236 30.76171875,16.875z M30.673828125,4.62890625L26.396484375,5.21484375 22.587890625,6.8701171875 19.39453125,9.4482421875 16.93359375,12.7880859375 15.3515625,16.728515625 14.794921875,21.123046875 15.2783203125,25.1953125 16.640625,28.88671875 18.1494140625,29.00390625 19.62890625,29.033203125 22.44140625,28.8427734375 24.9609375,28.53515625 23.0712890625,25.2099609375 22.44140625,21.064453125 23.0712890625,17.6220703125 24.7998046875,14.8388671875 27.421875,12.9638671875 30.76171875,12.275390625 34.0869140625,12.9638671875 36.7236328125,14.8388671875 38.4521484375,17.6220703125 39.08203125,21.064453125 38.4521484375,25.2099609375 36.5625,28.53515625 38.935546875,28.857421875 41.6015625,29.0625 42.890625,29.033203125 44.736328125,28.857421875 46.0986328125,25.1806640625 46.58203125,21.123046875 46.2744102478027,17.8015155792236 45.3515625,14.6923828125 43.89404296875,11.8798828125 41.982421875,9.4482421875 39.649658203125,7.445068359375 36.9287109375,5.91796875 33.907470703125,4.951171875 30.673828125,4.62890625z M30.673828125,0L36.26953125,0.747070789337158 41.30859375,2.87109375 45.5712890625,6.1669921875 48.8671875,10.4296875 50.9912109375,15.46875 51.73828125,21.064453125 51.4892578125,24.3017578125 50.771484375,27.36328125 52.734375,26.3525390625 54.462890625,25.0341796875 55.8251953125,23.3349609375 56.689453125,21.181640625 61.5234375,21.181640625 60.9191856384277,23.40087890625 59.9267578125,25.37109375 56.982421875,28.59375 53.02734375,30.9228515625 48.3984375,32.431640625 45.087890625,36.416015625 40.9130859375,39.4775390625 36.0498046875,41.4404296875 30.673828125,42.12890625 25.3271484375,41.4404296875 20.4931640625,39.5068359375 16.3330078125,36.50390625 13.037109375,32.578125 8.4814453125,31.1279296875 4.6142578125,28.798828125 1.71386694908142,25.5029296875 0,21.181640625 4.80468797683716,21.181640625 5.85937452316284,23.287353515625 7.20703125,24.9755859375 10.546875,27.333984375 9.84375,24.2431640625 9.609375,21.064453125 10.3564453125,15.46875 12.48046875,10.4296875 15.7763671875,6.1669921875 20.0390625,2.87109375 25.078125,0.747070789337158 30.673828125,0z" />
    </g>
  </g>
</svg>