<?xml version="1.0" encoding="utf-8"?>
<!DOCTYPE svg PUBLIC "-//W3C//DTD SVG 1.1//EN" "http://www.w3.org/Graphics/SVG/1.1/DTD/svg11.dtd">
<svg width="52.939453125" height="50.91796875" xmlns="http://www.w3.org/2000/svg" xmlns:xlink="http://www.w3.org/1999/xlink" xmlns:xml="http://www.w3.org/XML/1998/namespace" version="1.1">
  <g>
    <g>
      <path style="fill:#FF0000;fill-opacity:1" d="M26.484375,29.384765625L27.744140625,29.6337890625 28.76953125,30.322265625 29.4580078125,31.34765625 29.70703125,32.607421875 29.4580078125,33.8671875 28.76953125,34.892578125 27.744140625,35.5810546875 26.484375,35.830078125 25.224609375,35.5810546875 24.19921875,34.892578125 23.5107421875,33.8671875 23.26171875,32.607421875 23.5107421875,31.34765625 24.19921875,30.322265625 25.224609375,29.6337890625 26.484375,29.384765625z M0,0L4.921875,0 4.95483350753784,3.03588819503784 5.05371141433716,5.58105421066284 5.23315382003784,7.635498046875 5.5078125,9.19921875 6.181640625,11.40380859375 7.08984375,12.919921875 8.32763671875,13.798828125 9.990234375,14.091796875 12.5756826400757,13.53515625 14.296875,11.865234375 15.263671875,9.1552734375 15.5859375,5.47851514816284 15.5859375,0 20.5078125,0 20.5078125,5.47851514816284 20.8447265625,9.0966796875 21.8994140625,11.806640625 23.7451171875,13.505859375 26.484375,14.091796875 29.1943359375,13.4912109375 31.0400390625,11.77734375 32.0947265625,9.0673828125 32.431640625,5.47851514816284 32.431640625,0 37.353515625,0 37.353515625,5.47851514816284 37.6904296875,9.4921875 38.701171875,12.158203125 40.4296875,13.6376953125 42.94921875,14.091796875 44.58984375,13.798828125 45.8203125,12.919921875 46.7358360290527,11.40380859375 47.431640625,9.19921875 47.7026329040527,7.6171875 47.87109375,5.56640577316284 47.9663047790527,3.03222608566284 48.017578125,0 52.939453125,0 52.8076133728027,4.64721632003784 52.412109375,8.5693359375 51.7236289978027,11.802978515625 50.712890625,14.384765625 49.3652305603027,16.336669921875 47.666015625,17.6806640625 45.5859336853027,18.460693359375 43.095703125,18.720703125 39.9755859375,18.1201171875 37.353515625,16.494140625 37.353515625,46.5234375 41.455078125,46.5234375 41.455078125,50.91796875 28.330078125,50.91796875 28.330078125,46.5234375 32.431640625,46.5234375 32.431640625,16.69921875 31.171875,17.4755859375 29.70703125,18.1201171875 28.125,18.5595703125 26.484375,18.720703125 23.232421875,18.1201171875 20.5078125,16.69921875 20.5078125,46.5234375 24.609375,46.5234375 24.609375,50.91796875 11.484375,50.91796875 11.484375,46.5234375 15.5859375,46.5234375 15.5859375,16.494140625 12.7880859375,18.1201171875 9.4921875,18.720703125 7.012939453125,18.460693359375 4.9658203125,17.6806640625 3.31787109375,16.336669921875 2.0361328125,14.384765625 1.09497046470642,11.802978515625 0.468749761581421,8.5693359375 0.117187470197678,4.64721632003784 0,0z" />
    </g>
  </g>
</svg>