<?xml version="1.0" encoding="utf-8"?>
<!DOCTYPE svg PUBLIC "-//W3C//DTD SVG 1.1//EN" "http://www.w3.org/Graphics/SVG/1.1/DTD/svg11.dtd">
<svg width="54.55078125" height="52.265625" xmlns="http://www.w3.org/2000/svg" xmlns:xlink="http://www.w3.org/1999/xlink" xmlns:xml="http://www.w3.org/XML/1998/namespace" version="1.1">
  <g>
    <g>
      <path style="fill:#FF0000;fill-opacity:1" d="M38.935546875,31.259765625L37.4267578125,31.3623046875 35.947265625,31.58203125 36.298828125,34.951171875 37.236328125,37.1044921875 38.5986328125,38.2470703125 40.224609375,38.583984375 41.795654296875,38.323974609375 42.9345703125,37.5439453125 43.626708984375,36.346435546875 43.857421875,34.833984375 43.54248046875,33.343505859375 42.59765625,32.2119140625 41.05224609375,31.497802734375 38.935546875,31.259765625z M0,0L4.921875,0 5.211181640625,3.614501953125 6.0791015625,6.1962890625 7.613525390625,7.745361328125 9.90234375,8.26171875 12.48046875,7.7197265625 14.12109375,6.12304735183716 15.029296875,3.53027319908142 15.439453125,0 20.5078125,0 20.888671875,3.53027319908142 21.8115234375,6.12304735183716 23.4521484375,7.7197265625 26.015625,8.26171875 28.2861328125,7.8955078125 29.853515625,6.60644578933716 30.7470703125,4.08691453933716 30.955810546875,2.26684856414795 31.025390625,0 35.947265625,0 35.947265625,27.0703125 37.3681640625,26.9384765625 38.935546875,26.865234375 43.06640625,27.4658203125 46.1572265625,29.12109375 48.10546875,31.640625 48.779296875,34.833984375 48.2373046875,38.0712890625 46.8017578125,40.4736328125 44.7216796875,42.099609375 42.24609375,42.978515625 42.24609375,43.125 42.5537109375,44.70703125 43.41796875,45.99609375 44.70703125,46.8603515625 46.2890625,47.16796875 47.6953125,46.904296875 48.896484375,46.201171875 49.775390625,45.146484375 50.2734375,43.828125 54.55078125,45.05859375 53.4521484375,47.666015625 51.5771484375,49.74609375 49.130859375,51.123046875 46.2890625,51.62109375 42.978515625,51.123046875 40.1806640625,49.5703125 38.2470703125,46.845703125 37.5,42.802734375 34.8779296875,41.630859375 32.8271484375,39.609375 31.494140625,36.7236328125 31.025390625,32.958984375 26.9091796875,35.361328125 23.3935546875,38.3203125 20.3759765625,41.630859375 17.783203125,45.05859375 21.85546875,49.013671875 18.544921875,52.265625 6.38671875,40.166015625 9.66796875,36.884765625 14.296875,41.572265625 17.4755859375,37.646484375 21.3134765625,33.8525390625 25.8251953125,30.556640625 31.025390625,28.125 31.025390625,25.1953125 28.4912109375,26.4990234375 25.6640625,26.953125 23.056640625,26.5869140625 20.8447265625,25.517578125 19.130859375,23.7890625 18.017578125,21.416015625 16.875,23.5546875 15,25.3125 12.5830078125,26.513671875 9.84375,26.953125 6.123046875,26.337890625 4.44213819503784,25.5212421417236 2.9736328125,24.3017578125 1.75048828125,22.6464862823486 0.805663824081421,20.5224609375 0.201415985822678,17.882080078125 0,14.677734375 0,14.0625 4.921875,14.0625 5.211181640625,17.677001953125 6.0791015625,20.2587890625 7.613525390625,21.8078632354736 9.90234375,22.32421875 12.48046875,21.7822265625 14.12109375,20.185546875 15.029296875,17.5927734375 15.439453125,14.0625 20.5078125,14.0625 20.888671875,17.5927734375 21.8115234375,20.185546875 23.4521484375,21.7822265625 26.015625,22.32421875 28.2861328125,21.9580078125 29.853515625,20.6689453125 30.7470703125,18.1494140625 30.955810546875,16.329345703125 31.025390625,14.0625 31.025390625,11.1328125 28.4912109375,12.4365234375 25.6640625,12.890625 23.056640625,12.5244140625 20.8447265625,11.455078125 19.130859375,9.7265625 18.017578125,7.35351514816284 16.875,9.4921875 15,11.25 12.5830078125,12.451171875 9.84375,12.890625 6.123046875,12.275390625 4.44213819503784,11.458740234375 2.9736328125,10.2392578125 1.75048828125,8.583984375 0.805663824081421,6.4599609375 0.201415985822678,3.819580078125 0,0.615234434604645 0,0z" />
    </g>
  </g>
</svg>