<?xml version="1.0" encoding="utf-8"?>
<!DOCTYPE svg PUBLIC "-//W3C//DTD SVG 1.1//EN" "http://www.w3.org/Graphics/SVG/1.1/DTD/svg11.dtd">
<svg width="27.36328125" height="50.91796875" xmlns="http://www.w3.org/2000/svg" xmlns:xlink="http://www.w3.org/1999/xlink" xmlns:xml="http://www.w3.org/XML/1998/namespace" version="1.1">
  <g>
    <g>
      <path style="fill:#FF0000;fill-opacity:1" d="M24.140625,22.236328125L25.400390625,22.4853515625 26.42578125,23.173828125 27.1142578125,24.19921875 27.36328125,25.458984375 27.1142578125,26.71875 26.42578125,27.744140625 25.400390625,28.4326171875 24.140625,28.681640625 22.880859375,28.4326171875 21.85546875,27.744140625 21.1669921875,26.71875 20.91796875,25.458984375 21.1669921875,24.19921875 21.85546875,23.173828125 22.880859375,22.4853515625 24.140625,22.236328125z M3.22265672683716,22.236328125L4.48242235183716,22.4853515625 5.50781297683716,23.173828125 6.1962890625,24.19921875 6.44531297683716,25.458984375 6.1962890625,26.71875 5.50781297683716,27.744140625 4.48242235183716,28.4326171875 3.22265672683716,28.681640625 1.96289098262787,28.4326171875 0.937500596046448,27.744140625 0.24902355670929,26.71875 0,25.458984375 0.24902355670929,24.19921875 0.937500596046448,23.173828125 1.96289098262787,22.4853515625 3.22265672683716,22.236328125z M11.07421875,0L15.99609375,0 15.99609375,50.91796875 11.07421875,50.91796875 11.07421875,0z" />
    </g>
  </g>
</svg>