<?xml version="1.0" encoding="utf-8"?>
<!DOCTYPE svg PUBLIC "-//W3C//DTD SVG 1.1//EN" "http://www.w3.org/Graphics/SVG/1.1/DTD/svg11.dtd">
<svg width="62.958984375" height="50.91796875" xmlns="http://www.w3.org/2000/svg" xmlns:xlink="http://www.w3.org/1999/xlink" xmlns:xml="http://www.w3.org/XML/1998/namespace" version="1.1">
  <g>
    <g>
      <path style="fill:#FF0000;fill-opacity:1" d="M41.572265625,35.244140625L42.83203125,35.4931640625 43.857421875,36.181640625 44.5458984375,37.20703125 44.794921875,38.466796875 44.5458984375,39.7265625 43.857421875,40.751953125 42.83203125,41.4404296875 41.572265625,41.689453125 40.3125,41.4404296875 39.287109375,40.751953125 38.5986328125,39.7265625 38.349609375,38.466796875 38.5986328125,37.20703125 39.287109375,36.181640625 40.3125,35.4931640625 41.572265625,35.244140625z M21.38671875,35.244140625L22.646484375,35.4931640625 23.671875,36.181640625 24.3603515625,37.20703125 24.609375,38.466796875 24.3603515625,39.7265625 23.671875,40.751953125 22.646484375,41.4404296875 21.38671875,41.689453125 20.126953125,41.4404296875 19.1015625,40.751953125 18.4130859375,39.7265625 18.1640625,38.466796875 18.4130859375,37.20703125 19.1015625,36.181640625 20.126953125,35.4931640625 21.38671875,35.244140625z M41.572265625,10.048828125L42.83203125,10.2978515625 43.857421875,10.986328125 44.5458984375,12.01171875 44.794921875,13.271484375 44.5458984375,14.53125 43.857421875,15.556640625 42.83203125,16.2451171875 41.572265625,16.494140625 40.3125,16.2451171875 39.287109375,15.556640625 38.5986328125,14.53125 38.349609375,13.271484375 38.5986328125,12.01171875 39.287109375,10.986328125 40.3125,10.2978515625 41.572265625,10.048828125z M21.38671875,10.048828125L22.646484375,10.2978515625 23.671875,10.986328125 24.3603515625,12.01171875 24.609375,13.271484375 24.3603515625,14.53125 23.671875,15.556640625 22.646484375,16.2451171875 21.38671875,16.494140625 20.126953125,16.2451171875 19.1015625,15.556640625 18.4130859375,14.53125 18.1640625,13.271484375 18.4130859375,12.01171875 19.1015625,10.986328125 20.126953125,10.2978515625 21.38671875,10.048828125z M0,0L4.921875,0 4.921875,23.935546875 5.811767578125,25.2301044464111 7.1630859375,26.1547870635986 8.975830078125,26.7095966339111 11.25,26.89453125 14.35546875,26.42578125 16.7724609375,25.1513671875 18.33984375,23.26171875 18.896484375,20.947265625 23.876953125,20.947265625 24.4482421875,23.2177734375 26.0302734375,25.107421875 28.447265625,26.4111328125 31.5234375,26.89453125 34.5849609375,26.4111328125 36.97265625,25.1220703125 38.525390625,23.232421875 39.08203125,20.947265625 44.0625,20.947265625 44.619140625,23.26171875 46.1865234375,25.1513671875 48.603515625,26.42578125 51.708984375,26.89453125 53.9831504821777,26.7095966339111 55.7958946228027,26.1547870635986 57.1472129821777,25.2301044464111 58.037109375,23.935546875 58.037109375,0 62.958984375,0 62.958984375,50.91796875 58.037109375,50.91796875 58.037109375,29.677734375 55.25390625,31.0693359375 51.708984375,31.5234375 48.4716796875,31.1279296875 45.498046875,30.0732421875 43.095703125,28.564453125 41.572265625,26.77734375 40.048828125,28.5498046875 37.6611328125,30.0732421875 34.7021484375,31.1279296875 31.435546875,31.5234375 28.125,31.1279296875 25.1806640625,30.0732421875 22.8515625,28.5498046875 21.38671875,26.77734375 19.8486328125,28.564453125 17.4462890625,30.0732421875 14.47265625,31.1279296875 11.25,31.5234375 7.705078125,31.0400390625 4.921875,29.677734375 4.921875,50.91796875 0,50.91796875 0,0z" />
    </g>
  </g>
</svg>