<?xml version="1.0" encoding="utf-8"?>
<!DOCTYPE svg PUBLIC "-//W3C//DTD SVG 1.1//EN" "http://www.w3.org/Graphics/SVG/1.1/DTD/svg11.dtd">
<svg width="40.5468750000003" height="51.62109375" xmlns="http://www.w3.org/2000/svg" xmlns:xlink="http://www.w3.org/1999/xlink" xmlns:xml="http://www.w3.org/XML/1998/namespace" version="1.1">
  <g>
    <g>
      <path style="fill:#FF0000;fill-opacity:1" d="M8.349609375,4.248046875L6.9287109375,4.5263671875 5.771484375,5.28808546066284 4.9951171875,6.4013671875 4.71679735183716,7.73437547683716 4.9951171875,9.111328125 5.771484375,10.2392578125 6.9287109375,11.0009765625 8.349609375,11.279296875 9.7412109375,11.0009765625 10.8837890625,10.2392578125 11.6455078125,9.111328125 11.923828125,7.73437547683716 11.6455078125,6.37206983566284 10.8837890625,5.2734375 9.7412109375,4.5263671875 8.349609375,4.248046875z M8.876953125,0L11.9091796875,0.61523449420929 14.3115234375,2.28515625 15.87890625,4.7607421875 16.435546875,7.76367139816284 15.9375,10.751953125 14.4873046875,13.212890625 12.1142578125,14.8828125 8.84765625,15.498046875 7.001953125,15.2490234375 4.98046827316284,14.326171875 6.328125,16.3916015625 8.1298828125,17.8857421875 10.546875,18.7939453125 13.76953125,19.1015625 16.171875,18.779296875 18.8232421875,17.8125 21.4013671875,16.2451171875 23.6279296875,14.091796875 25.1953125,11.3671875 25.78125,8.115234375 25.78125,0.70312488079071 30.703125,0.70312488079071 30.703125,47.2265625 40.546875,47.2265625 40.546875,51.62109375 15.9375,51.62109375 15.9375,47.2265625 25.78125,47.2265625 25.78125,18.1640625 23.5400390625,20.2587890625 20.537109375,22.03125 16.904296875,23.26171875 12.744140625,23.73046875 10.140380859375,23.4960956573486 7.7197265625,22.79296875 3.6767578125,20.1708984375 0.981444954872131,16.1279296875 0.245361149311066,13.656005859375 0,10.95703125 0.49804699420929,7.060546875 2.080078125,3.5302734375 4.83398485183716,0.981445074081421 6.6796875,0.245364159345627 8.876953125,0z" />
    </g>
  </g>
</svg>