<?xml version="1.0" encoding="utf-8"?>
<!DOCTYPE svg PUBLIC "-//W3C//DTD SVG 1.1//EN" "http://www.w3.org/Graphics/SVG/1.1/DTD/svg11.dtd">
<svg width="41.982421875" height="52.1484375" xmlns="http://www.w3.org/2000/svg" xmlns:xlink="http://www.w3.org/1999/xlink" xmlns:xml="http://www.w3.org/XML/1998/namespace" version="1.1">
  <g>
    <g>
      <path style="fill:#FF0000;fill-opacity:1" d="M38.759765625,30.146484375L40.01953125,30.3955078125 41.044921875,31.083984375 41.7333984375,32.109375 41.982421875,33.369140625 41.7333984375,34.62890625 41.044921875,35.654296875 40.01953125,36.3427734375 38.759765625,36.591796875 37.5,36.3427734375 36.474609375,35.654296875 35.7861328125,34.62890625 35.537109375,33.369140625 35.7861328125,32.109375 36.474609375,31.083984375 37.5,30.3955078125 38.759765625,30.146484375z M18.017578125,30.146484375L19.27734375,30.3955078125 20.302734375,31.083984375 20.9912109375,32.109375 21.240234375,33.369140625 20.9912109375,34.62890625 20.302734375,35.654296875 19.27734375,36.3427734375 18.017578125,36.591796875 16.7578125,36.3427734375 15.732421875,35.654296875 15.0439453125,34.62890625 14.794921875,33.369140625 15.0439453125,32.109375 15.732421875,31.083984375 16.7578125,30.3955078125 18.017578125,30.146484375z M15.380859375,0L16.904296875,4.3359375 13.927001953125,5.21484375 11.4404296875,6.26953077316284 9.41162109375,7.459716796875 7.8076171875,8.7451171875 6.6064453125,10.107421875 5.7861328125,11.5283203125 5.15624952316284,14.35546875 5.771484375,17.51953125 7.44140625,19.6728515625 9.90234375,20.9033203125 12.861328125,21.298828125 16.8310546875,20.7568359375 20.6689453125,19.248046875 23.8623046875,16.962890625 25.927734375,14.0625 25.927734375,1.23046910762787 30.849609375,1.23046910762787 30.849609375,47.75390625 40.693359375,47.75390625 40.693359375,52.1484375 16.083984375,52.1484375 16.083984375,47.75390625 25.927734375,47.75390625 25.927734375,20.830078125 23.1005859375,22.9833984375 19.8779296875,24.5947265625 16.40625,25.5908203125 12.861328125,25.927734375 8.0126953125,25.2099609375 3.896484375,23.0419921875 2.29248046875,21.3977069854736 1.05468761920929,19.365234375 0.263671934604645,16.9482421875 0,14.150390625 0.263671934604645,11.978759765625 1.05468761920929,9.7998046875 2.340087890625,7.68310546875 4.08691453933716,5.6982421875 6.2841796875,3.88550090789795 8.9208984375,2.28515672683716 15.380859375,0z" />
    </g>
  </g>
</svg>