<?xml version="1.0" encoding="utf-8"?>
<!DOCTYPE svg PUBLIC "-//W3C//DTD SVG 1.1//EN" "http://www.w3.org/Graphics/SVG/1.1/DTD/svg11.dtd">
<svg width="39.7265625" height="43.41796875" xmlns="http://www.w3.org/2000/svg" xmlns:xlink="http://www.w3.org/1999/xlink" xmlns:xml="http://www.w3.org/XML/1998/namespace" version="1.1">
  <g>
    <g>
      <path style="fill:#FF0000;fill-opacity:1" d="M20.0390625,4.453125L16.640625,4.801025390625 13.65234375,5.8447265625 11.0925283432007,7.481689453125 8.9794921875,9.609375 7.320556640625,12.1728534698486 6.123046875,15.1171875 5.39794921875,18.3471698760986 5.15625047683716,21.767578125 5.386962890625,25.140380859375 6.0791015625,28.3447265625 7.22900390625,31.278076171875 8.8330078125,33.837890625 10.8874502182007,35.965576171875 13.388671875,37.6025390625 16.32568359375,38.646240234375 19.6875,38.994140625 23.2214336395264,38.671875 26.2646484375,37.705078125 28.824462890625,36.163330078125 30.908203125,34.1162109375 32.51953125,31.607666015625 33.662109375,28.681640625 34.34326171875,25.40771484375 34.5703125,21.85546875 34.35791015625,18.2922382354736 33.720703125,14.9853515625 32.640380859375,12.0153827667236 31.0986328125,9.462890625 29.080810546875,7.371826171875 26.572265625,5.7861328125 23.5620098114014,4.786376953125 20.0390625,4.453125z M20.390625,0L24.7155742645264,0.41015625 28.5498046875,1.640625 31.8603515625,3.585205078125 34.6142578125,6.1376953125 36.800537109375,9.246826171875 38.408203125,12.861328125 39.39697265625,16.8750019073486 39.7265625,21.181640625 39.400634765625,25.78125 38.4228515625,30.029296875 36.807861328125,33.826904296875 34.5703125,37.0751953125 31.724853515625,39.7265625 28.2861328125,41.7333984375 24.2687969207764,42.996826171875 19.6875,43.41796875 15.303955078125,43.01513671875 11.4111328125,41.806640625 8.0419921875,39.884033203125 5.2294921875,37.3388671875 2.991943359375,34.229736328125 1.34765625,30.615234375 0.3369140625,26.57958984375 0,22.20703125 0.333251953125,17.5854511260986 1.3330078125,13.330078125 2.98095703125,9.5361328125 5.2587890625,6.298828125 8.155517578125,3.662109375 11.66015625,1.669921875 15.7470703125,0.41748046875 20.390625,0z" />
    </g>
  </g>
</svg>