<?xml version="1.0" encoding="utf-8"?>
<!DOCTYPE svg PUBLIC "-//W3C//DTD SVG 1.1//EN" "http://www.w3.org/Graphics/SVG/1.1/DTD/svg11.dtd">
<svg width="28.3886718750004" height="43.41796875" xmlns="http://www.w3.org/2000/svg" xmlns:xlink="http://www.w3.org/1999/xlink" xmlns:xml="http://www.w3.org/XML/1998/namespace" version="1.1">
  <g>
    <g>
      <path style="fill:#FF0000;fill-opacity:1" d="M24.580078125,0L24.580078125,4.453125 19.266357421875,4.82666015625 14.9853515625,5.947265625 11.6162099838257,7.752685546875 9.0380859375,10.1806640625 7.188720703125,13.2055683135986 6.005859375,16.8017578125 5.36865186691284,20.906982421875 5.15625,25.458984375 5.7861328125,31.0986328125 6.558837890625,33.4130859375 7.6171875,35.3466796875 8.953857421875,36.888427734375 10.5615234375,38.02734375 12.4182119369507,38.73046875 14.501953125,38.96484375 16.56005859375,38.759765625 18.33984375,38.14453125 21.064453125,35.91796875 22.6904296875,32.63671875 23.232421875,28.681640625 22.6904296875,24.404296875 21.03515625,20.947265625 18.193359375,18.6474609375 16.3037109375,18.0212421417236 14.091796875,17.8125 13.4912109375,17.8271484375 12.978515625,17.87109375 12.48046875,17.9296875 12.24609375,13.65234375 13.06640625,13.505859375 13.9892578125,13.4033203125 15.17578125,13.359375 18.1640625,13.6486835479736 20.80078125,14.5166015625 23.0676250457764,15.8862323760986 24.9462890625,17.6806640625 26.4294414520264,19.86328125 27.509765625,22.3974609375 28.1689434051514,25.198974609375 28.388671875,28.18359375 28.1542949676514,31.34033203125 27.451171875,34.248046875 26.3012676239014,36.844482421875 24.7265625,39.0673828125 22.7343730926514,40.8837890625 20.33203125,42.2607421875 17.54150390625,43.128662109375 14.384765625,43.41796875 9.78515625,42.71484375 6.123046875,40.751953125 3.36914038658142,37.763671875 1.46484303474426,33.9990234375 0.351562023162842,29.6923828125 0,25.078125 0.369872838258743,19.449462890625 1.47949194908142,14.4580078125 3.34716773033142,10.1513681411743 5.9912109375,6.5771484375 9.422607421875,3.75 13.65234375,1.6845703125 18.69873046875,0.421142578125 24.580078125,0z" />
    </g>
  </g>
</svg>