<?xml version="1.0" encoding="utf-8"?>
<!DOCTYPE svg PUBLIC "-//W3C//DTD SVG 1.1//EN" "http://www.w3.org/Graphics/SVG/1.1/DTD/svg11.dtd">
<svg width="39.7265625" height="43.41796875" xmlns="http://www.w3.org/2000/svg" xmlns:xlink="http://www.w3.org/1999/xlink" xmlns:xml="http://www.w3.org/XML/1998/namespace" version="1.1">
  <g>
    <g>
      <path style="fill:#FF0000;fill-opacity:1" d="M17.40234375,4.6875L14.58984375,5.445556640625 12.12890625,6.7236328125 8.291015625,10.546875 6.9287109375,12.9821796417236 5.947265625,15.7177734375 5.35400390625,18.6730976104736 5.15625047683716,21.767578125 5.350341796875,24.86572265625 5.9326171875,27.83203125 6.8994140625,30.582275390625 8.2470703125,33.0322265625 9.97558498382568,35.1416015625 12.0849609375,36.8701171875 14.564208984375,38.133544921875 17.40234375,38.84765625 17.40234375,4.6875z M22.32421875,4.599609375L22.32421875,38.818359375 25.2282695770264,38.126220703125 27.7294921875,36.9287109375 29.835205078125,35.28076171875 31.552734375,33.2373046875 32.882080078125,30.831298828125 33.8232421875,28.095703125 34.5703125,21.85546875 33.8525390625,15.498046875 32.940673828125,12.7075214385986 31.640625,10.25390625 29.94140625,8.170166015625 27.83203125,6.4892578125 25.2978496551514,5.277099609375 22.32421875,4.599609375z M20.390625,0L24.7155742645264,0.41015625 28.5498046875,1.640625 31.8603515625,3.585205078125 34.6142578125,6.1376953125 36.800537109375,9.246826171875 38.408203125,12.861328125 39.39697265625,16.8750019073486 39.7265625,21.181640625 39.400634765625,25.78125 38.4228515625,30.029296875 36.807861328125,33.826904296875 34.5703125,37.0751953125 31.724853515625,39.7265625 28.2861328125,41.7333984375 24.2687969207764,42.996826171875 19.6875,43.41796875 15.303955078125,43.01513671875 11.4111328125,41.806640625 8.0419921875,39.884033203125 5.2294921875,37.3388671875 2.991943359375,34.229736328125 1.34765625,30.615234375 0.3369140625,26.57958984375 0,22.20703125 0.333251953125,17.5854511260986 1.3330078125,13.330078125 2.98095703125,9.5361328125 5.2587890625,6.298828125 8.155517578125,3.662109375 11.66015625,1.669921875 15.7470703125,0.41748046875 20.390625,0z" />
    </g>
  </g>
</svg>