<?xml version="1.0" encoding="utf-8"?>
<!DOCTYPE svg PUBLIC "-//W3C//DTD SVG 1.1//EN" "http://www.w3.org/Graphics/SVG/1.1/DTD/svg11.dtd">
<svg width="40.810546875" height="44.82421875" xmlns="http://www.w3.org/2000/svg" xmlns:xlink="http://www.w3.org/1999/xlink" xmlns:xml="http://www.w3.org/XML/1998/namespace" version="1.1">
  <g>
    <g>
      <path style="fill:#FF0000;fill-opacity:1" d="M11.71875,42.65625L10.751953125,43.18359375 9.697265625,43.65234375 10.869140625,43.388671875 12.01171875,43.125 11.71875,42.65625z M13.2421875,39.755859375L12.5830078125,40.48828125 12.333984375,41.8359375 13.2421875,43.2421875 14.1064453125,43.4619140625 15.087890625,43.505859375 16.318359375,43.41796875 17.314453125,43.330078125 19.24072265625,43.18359375 21.5625,42.919921875 26.484375,42.59765625 29.3005352020264,42.762451171875 31.4794921875,43.2568359375 33.570556640625,43.751220703125 36.123046875,43.916015625 33.837890625,43.30078125 32.2412109375,42.7294921875 31.611328125,42.12890625 30.732421875,41.513671875 30,41.748046875 29.091796875,41.982421875 27.626953125,41.8359375 26.103515625,41.513671875 24.4482421875,41.220703125 22.529296875,41.07421875 22.177734375,41.07421875 21.38671875,41.162109375 19.716796875,41.3671875 16.7578125,41.806640625 16.259765625,41.89453125 15.732421875,41.982421875 15.322265625,41.865234375 14.326171875,40.78125 13.2421875,39.755859375z M29.35546875,32.87109375L28.0480937957764,33.0441284179688 26.2353496551514,33.563232421875 23.9172344207764,34.4284057617188 21.09375,35.6396484375 18.3489990234375,36.9039916992188 16.26708984375,37.928466796875 14.8480224609375,38.7130737304688 14.091796875,39.2578125 15.05859375,40.078125 15.87890625,41.015625 19.4091796875,40.400390625 22.939453125,40.107421875 24.5068359375,40.25390625 26.279296875,40.546875 27.919921875,40.869140625 29.0625,41.015625 29.8095703125,40.810546875 30.46875,40.60546875 31.0986328125,39.2724609375 31.2890625,38.0859375 31.201171875,36.97265625 30.99609375,35.654296875 30.849609375,34.365234375 30.791015625,32.958984375 30.322265625,32.900390625 29.35546875,32.87109375z M16.2890625,26.77734375L15.234375,28.76953125 16.435546875,32.1240234375 16.81640625,35.21484375 16.81640625,35.91796875 16.7578125,36.591796875 19.541015625,35.419921875 22.998046875,33.896484375 20.980224609375,31.387939453125 19.1455078125,29.3115234375 17.559814453125,27.747802734375 16.2890625,26.77734375z M14.58984375,25.927734375L13.4912109375,26.4697265625 13.06640625,27.626953125 13.154296875,27.9345703125 13.271484375,28.154296875 15,37.5 15.76171875,37.03125 15.849609375,36.181640625 15.849609375,35.302734375 15.4833984375,32.3291015625 14.296875,29.033203125 14.296875,28.53515625 15.46875,26.337890625 15.029296875,26.1328125 14.58984375,25.927734375z M34.248046875,17.021484375L33.74267578125,17.4243183135986 33.33984375,18.28125 32.87109375,20.859375 36.474609375,21.85546875 35.361328125,19.423828125 34.248046875,17.021484375z M2.51953125,13.828125L2.640380859375,18.6108417510986 2.70996046066284,23.935546875 2.72827124595642,26.3909912109375 2.7392578125,28.16162109375 2.74291968345642,29.2474365234375 2.73925733566284,29.6484375 2.647705078125,29.97802734375 2.40234375,30.732421875 2.021484375,31.611328125 1.30371081829071,33.8232421875 0.99609363079071,36.50390625 1.53808581829071,39.9462890625 2.90039014816284,43.30078125 4.33593797683716,40.0927734375 4.86328172683716,37.177734375 4.71679735183716,35.390625 4.21875047683716,33.33984375 2.90039014816284,29.619140625 3.043212890625,26.978759765625 3.23730421066284,22.9248046875 3.460693359375,18.4680194854736 3.69140672683716,14.619140625 3.13476514816284,14.3115234375 2.51953125,13.828125z M24.78515625,5.0390625L25.4736328125,5.2587890625 26.044921875,5.625 24.78515625,5.947265625 24.3603515625,5.830078125 24.2578125,5.44921875 24.78515625,5.0390625z M24.140625,4.365234375L24.052734375,4.86328125 23.96484375,5.33203125 23.818359375,5.80078125 23.26171875,7.119140625 23.8916015625,7.7197265625 24.052734375,8.759765625 24.052734375,9.111328125 24.7705078125,9.2724609375 25.400390625,9.31640625 25.869140625,9.31640625 26.337890625,9.521484375 26.5942363739014,10.02685546875 26.953125,11.1328125 26.630859375,11.748046875 24.5214824676514,12.4475107192993 22.880859375,13.1982421875 20.2734375,15.234375 18.076171875,17.9296875 16.494140625,20.09765625 15.791015625,20.15625 11.5283203125,17.34375 6.884765625,14.4140625 6.09375,13.9453125 5.25878858566284,13.3959980010986 4.98046922683716,13.037109375 4.74609422683716,12.5390625 4.65820360183716,13.125 4.21875047683716,13.53515625 3.42773389816284,13.271484375 2.98828077316284,13.0078125 2.98828077316284,13.06640625 3.54492139816284,13.505859375 4.21875047683716,13.857421875 4.92187547683716,13.828125 5.859375,14.1357421875 7.20703125,15.05859375 8.818359375,16.259765625 12.12890625,18.837890625 15.673828125,21.2109375 17.40966796875,20.6103515625 19.39453125,18.92578125 22.880859375,15.17578125 23.671875,15.52734375 24.43359375,20.6103515625 24.7558574676514,22.489013671875 24.90234375,23.291015625 25.166015625,24.404296875 25.4736328125,25.5615234375 25.576171875,26.1328125 25.576171875,26.279296875 25.1586894989014,29.17236328125 24.19921875,33.33984375 25.546875,32.841796875 27.978515625,32.197265625 30.76171875,32.021484375 30.9375,28.828125 31.318359375,25.6640625 31.640625,22.91015625 29.23828125,21.6796875 28.2092266082764,21.38671875 27.1142578125,20.68359375 26.2536602020264,19.8266620635986 25.927734375,19.072265625 26.015625,18.8232421875 26.279296875,18.486328125 25.869140625,18.33984375 25.576171875,17.8125 25.634765625,16.962890625 26.015625,16.494140625 27.0703125,16.728515625 28.1982421875,17.373046875 29.00390625,18.251953125 30.146484375,19.921875 30.234375,20.009765625 30.9375,20.33203125 31.962890625,20.625 32.16796875,19.21875 32.9443359375,17.0654296875 34.51171875,15.99609375 34.98046875,16.318359375 36.3427734375,19.4091796875 37.79296875,22.470703125 37.177734375,23.056640625 34.6875,22.3095703125 32.197265625,21.650390625 30.908203125,21.26953125 29.8791484832764,20.74951171875 29.3701171875,20.361328125 28.681640625,19.423828125 28.53515625,19.16015625 28.271484375,18.75 27.36328125,17.87109375 26.513671875,17.490234375 26.513671875,17.87109375 26.982421875,18.134765625 27.421875,18.427734375 27.9345703125,18.9111328125 28.125,19.453125 28.0810546875,19.6142578125 27.890625,19.716796875 27.275390625,19.541015625 28.271484375,20.3466796875 29.619140625,20.888671875 32.431640625,22.236328125 36.15234375,23.6865234375 39.7265625,24.990234375 39.84375,24.873046875 39.90234375,24.755859375 39.635009765625,23.404541015625 38.8330078125,20.8740234375 36.50390625,14.8828125 34.5703125,13.2751483917236 33.10546875,12.3779296875 30.732421875,11.748046875 30.263671875,11.19140625 30.263671875,10.13671875 29.4140625,9.521484375 28.59375,8.84765625 28.41796875,8.349609375 28.41796875,7.470703125 28.59375,6.5625 28.88671875,5.91796875 29.12109375,5.5078125 29.35546875,5.09765625 29.296875,4.833984375 29.1796875,4.658203125 29.00390625,4.5703125 28.6083984375,4.775390625 28.359375,5.244140625 27.744140625,5.595703125 24.140625,4.365234375z M2.431640625,0.99609375L2.4609375,7.96875 2.490234375,11.77734375 2.66601514816284,11.806640625 3.23730421066284,12.1142578125 3.80859422683716,12.509765625 4.30664110183716,0.99609375 2.431640625,0.99609375z M27.861328125,0.9375L26.3635234832764,1.065673828125 25.2685546875,1.4501953125 24.5471172332764,2.200927734375 24.169921875,3.427734375 27.65625,4.599609375 28.2568359375,3.955078125 29.12109375,3.662109375 29.9560546875,4.072265625 30.29296875,5.009765625 29.7802734375,6.240234375 29.4616680145264,7.02392578125 29.35546875,8.203125 30.673828125,9.228515625 32.0947265625,7.3388671875 32.63671875,5.15625 32.29248046875,3.475341796875 31.259765625,2.1240234375 29.7216777801514,1.234130859375 27.861328125,0.9375z M27.685546875,0L29.923095703125,0.3515625 31.8310546875,1.40625 33.138427734375,3.0322265625 33.57421875,5.09765625 32.8857421875,7.763671875 31.23046875,10.048828125 31.23046875,10.83984375 33.6767578125,11.6162109375 35.830078125,13.0078125 36.6796875,13.7109375 37.353515625,14.501953125 37.82958984375,15.6152362823486 38.7890625,18.193359375 40.810546875,24.638671875 40.5908203125,25.5322265625 39.78515625,25.927734375 38.7158203125,25.6494140625 36.85546875,24.931640625 34.658203125,24.052734375 32.548828125,23.26171875 31.9775390625,27.83203125 31.728515625,32.40234375 31.728515625,32.98828125 31.9775390625,35.478515625 32.2265625,37.822265625 32.080078125,39.228515625 31.5234375,40.693359375 32.51953125,41.8359375 33.662109375,42.216796875 34.8046875,42.568359375 36.240234375,42.978515625 37.79296875,44.208984375 37.32421875,44.82421875 33.53759765625,44.666748046875 31.142578125,44.1943359375 29.1577129364014,43.721923828125 26.6015625,43.564453125 24.6166973114014,43.65234375 21.533203125,43.916015625 19.9072265625,44.0753173828125 18.662109375,44.20166015625 17.7978515625,44.2950439453125 17.314453125,44.35546875 14.53125,44.35546875 13.4619140625,44.2822265625 12.71484375,43.974609375 8.84765625,44.677734375 8.3203125,44.7802734375 7.734375,44.82421875 6.884765625,44.4140625 7.03125,43.59375 7.529296875,43.41796875 9.5068359375,42.7001953125 11.3671875,41.748046875 11.396484375,41.3671875 11.71875,39.9169921875 12.890625,38.84765625 13.564453125,38.466796875 14.1796875,38.056640625 13.2861328125,33.6181640625 12.8649892807007,31.256103515625 12.392578125,28.4765625 12.158203125,27.568359375 12.861328125,25.810546875 13.6010732650757,25.17333984375 14.4140625,24.9609375 15.523681640625,25.3271484375 17.3291015625,26.42578125 18.4909057617188,27.3468017578125 19.822998046875,28.64501953125 21.3253784179688,30.3204345703125 22.998046875,32.373046875 23.408203125,32.900390625 24.2138671875,29.47265625 24.638671875,26.015625 23.5546875,21.3427734375 22.880859375,16.58203125 21.6064453125,17.9370136260986 19.716796875,19.892578125 17.5927734375,21.58447265625 15.615234375,22.1484375 14.36279296875,21.65771484375 12.3046875,20.185546875 10.42236328125,18.6840839385986 9.697265625,18.10546875 7.470703125,16.40625 5.12695360183716,14.794921875 4.62890672683716,14.794921875 4.21875047683716,22.20703125 3.83789110183716,29.619140625 4.87426710128784,32.354736328125 5.4638671875,34.2919921875 5.830078125,37.001953125 5.4052734375,39.8291015625 4.67651319503784,41.707763671875 3.33984327316284,44.501953125 2.490234375,44.58984375 1.17187511920929,41.66748046875 0.439453125,39.580078125 0,36.4453125 0.322265625,33.8818359375 0.864257872104645,32.091064453125 1.84570300579071,29.619140625 1.64062488079071,18.544921875 1.5911865234375,16.2158222198486 1.56005859375,14.6191425323486 1.5472412109375,13.7548837661743 1.55273425579071,13.623046875 1.37695300579071,4.365234375 1.34765613079071,0.615234375 1.78710925579071,0.05859375 4.77539110183716,0.05859375 5.2734375,0.52734375 4.80468797683716,11.455078125 5.888671875,12.71484375 10.72265625,15.7470703125 16.025390625,19.189453125 17.08740234375,17.8234882354736 19.04296875,15.3076171875 21.96533203125,12.6745615005493 25.927734375,10.95703125 25.6640625,10.166015625 25.01953125,10.166015625 23.61328125,9.9609375 23.14453125,9.0234375 23.14453125,8.583984375 23.02734375,8.02734375 22.705078125,7.96875 22.265625,7.412109375 22.7490234375,5.947265625 23.26171875,3.6767578125 23.8916015625,1.4501953125 25.2978515625,0.3515625 26.2976055145264,0.087890625 27.685546875,0z" />
    </g>
  </g>
</svg>