<?xml version="1.0" encoding="utf-8"?>
<!DOCTYPE svg PUBLIC "-//W3C//DTD SVG 1.1//EN" "http://www.w3.org/Graphics/SVG/1.1/DTD/svg11.dtd">
<svg width="30.3222656250004" height="45.3515625" xmlns="http://www.w3.org/2000/svg" xmlns:xlink="http://www.w3.org/1999/xlink" xmlns:xml="http://www.w3.org/XML/1998/namespace" version="1.1">
  <g>
    <g>
      <path style="fill:#FF0000;fill-opacity:1" d="M18.662109375,33.046875L19.21875,36.4892578125 19.892578125,39.931640625 20.0390625,40.693359375 20.126953125,41.6015625 19.903564453125,42.39990234375 19.2333984375,43.037109375 17.2265625,44.0625 16.23046875,44.47265625 16.875,44.296875 18.45703125,43.9453125 19.04296875,43.88671875 19.7900390625,43.9892578125 20.5078125,44.384765625 20.771484375,44.35546875 20.91796875,44.208984375 21.064453125,43.88671875 20.947265625,43.4912109375 20.537109375,43.037109375 20.419921875,41.6748046875 20.390625,40.3125 20.419921875,38.84765625 20.44921875,36.4453125 20.390625,34.7314453125 20.15625,33.046875 18.662109375,33.046875z M14.23828125,33.046875L13.916015625,34.7314453125 13.857421875,36.4453125 13.857421875,38.056640625 13.681640625,40.458984375 12.7734375,42.861328125 12.0703125,43.212890625 10.986328125,43.65234375 9.84375,44.091796875 8.96484375,44.443359375 11.07421875,43.974609375 11.54296875,43.916015625 12.1142578125,44.1943359375 12.7734375,44.384765625 13.2421875,44.1650390625 13.388671875,43.330078125 13.4564199447632,42.9876708984375 13.6596670150757,42.19482421875 13.9984121322632,40.9515380859375 14.47265625,39.2578125 15.3369140625,35.7861328125 15.76171875,33.046875 14.23828125,33.046875z M19.365234375,22.67578125L17.7685546875,22.8515625 15.76171875,23.0859375 14.443359375,32.109375 20.09765625,32.109375 20.302734375,30.1171875 20.390625,27.744140625 20.1708984375,24.8876953125 19.365234375,22.67578125z M1.02539038658142,18.45703125L1.72851514816284,18.7646484375 2.02148389816284,19.482421875 1.72851514816284,20.185546875 1.02539038658142,20.478515625 0.307616591453552,20.185546875 0,19.482421875 0.307616591453552,18.7646484375 1.02539038658142,18.45703125z M1.02539038658142,14.94140625L1.72851514816284,15.2490234375 2.02148389816284,15.966796875 1.72851514816284,16.669921875 1.02539038658142,16.962890625 0.307616591453552,16.669921875 0,15.966796875 0.307616591453552,15.2490234375 1.02539038658142,14.94140625z M1.611328125,11.42578125L2.31445288658142,11.7333984375 2.60742163658142,12.451171875 2.31445288658142,13.154296875 1.611328125,13.447265625 0.893554449081421,13.154296875 0.585937023162842,12.451171875 0.893554449081421,11.7333984375 1.611328125,11.42578125z M3.07617211341858,7.998046875L3.77929663658142,8.3056640625 4.072265625,9.0234375 3.77929663658142,9.7265625 3.07617211341858,10.01953125 2.35839819908142,9.7265625 2.05078077316284,9.0234375 2.35839819908142,8.3056640625 3.07617211341858,7.998046875z M15.732421875,7.177734375L16.2890625,7.529296875 15.556640625,7.880859375 15.380859375,7.67578125 15.46875,7.3681640625 15.732421875,7.177734375z M4.951171875,4.833984375L5.654296875,5.1416015625 5.947265625,5.859375 5.654296875,6.5625 4.951171875,6.85546875 4.2333984375,6.5625 3.92578101158142,5.859375 4.2333984375,5.1416015625 4.951171875,4.833984375z M18.10546875,4.658203125L16.69921875,4.9365234375 15.615234375,5.7421875 17.080078125,6.3134765625 17.8125,7.470703125 18.5009765625,7.7197265625 18.779296875,8.3203125 18.486328125,9.1259765625 17.841796875,9.638671875 18.486328125,10.634765625 19.072265625,11.1328125 20.390625,9.0966796875 20.888671875,7.1484375 20.68359375,6.104736328125 20.068359375,5.3173828125 18.10546875,4.658203125z M28.59375,3.92578125L28.4765625,3.955078125 28.505859375,4.189453125 29.0625,4.599609375 29.0625,5.859375 28.623046875,5.712890625 28.53515625,5.7421875 29.0625,6.328125 29.35546875,6.85546875 29.296875,7.412109375 29.1796875,8.14453125 28.88671875,9.287109375 28.2275390625,11.6162109375 27.4987773895264,12.6379404067993 25.986328125,12.978515625 24.6240234375,12.9052734375 23.349609375,12.83203125 22.5,12.890625 21.73828125,13.125 21.298828125,13.18359375 18.9404296875,12.1142578125 17.889404296875,11.341552734375 16.81640625,9.638671875 17.05078125,8.96484375 17.548828125,8.759765625 17.841796875,8.466796875 17.666015625,8.349609375 17.490234375,8.37890625 17.34375,8.466796875 17.080078125,8.115234375 16.81640625,7.79296875 16.845703125,7.470703125 16.40625,6.9873046875 15.29296875,6.62109375 14.8974609375,7.6318359375 14.443359375,8.525390625 14.6484375,8.61328125 14.8828125,8.994140625 14.8828125,10.166015625 15.9228515625,10.4443359375 16.549072265625,10.887451171875 16.7578125,11.77734375 16.58203125,11.982421875 16.40625,12.24609375 14.827880859375,12.8503427505493 13.4912109375,14.0185546875 12.3193349838257,15.7104511260986 11.2353515625,17.8857421875 10.43701171875,19.7460956573486 10.1220703125,20.4931640625 9.63134765625,20.8227558135986 8.3056640625,21.4306640625 4.365234375,23.5546875 3.74999976158142,23.466796875 3.06152367591858,23.5693359375 2.37304663658142,23.935546875 3.10546898841858,23.7890625 3.60351538658142,23.96484375 3.22265553474426,24.345703125 2.51953101158142,24.521484375 2.02148389816284,24.43359375 1.99218702316284,24.755859375 2.63671851158142,24.90234375 3.54492163658142,24.5947265625 4.27734375,23.96484375 4.482421875,23.671875 5.830078125,23.056640625 9.052734375,21.474609375 10.400390625,20.830078125 11.4221181869507,19.6215839385986 12.4951171875,17.8125 13.5607900619507,15.9887714385986 14.560546875,14.736328125 15.3515625,15.087890625 15.673828125,17.7099609375 15.99609375,20.33203125 15.966796875,21.2255859375 15.87890625,22.119140625 19.130859375,21.767578125 19.248046875,19.482421875 19.6728515625,17.2119140625 20.6982421875,15.1904296875 22.6171875,14.0771484375 24.931640625,13.857421875 27.24609375,13.4619140625 28.2055644989014,12.8796396255493 28.681640625,11.923828125 29.150390625,9.66796875 29.326171875,8.7890625 29.53125,7.353515625 29.443359375,5.126953125 29.2236328125,4.4384765625 28.59375,3.92578125z M28.2421875,3.310546875L29.4287109375,3.8232421875 29.9340801239014,4.53369140625 30.1904296875,5.6396484375 30.2893047332764,6.741943359375 30.322265625,7.44140625 30.087890625,9.052734375 29.82421875,10.576171875 29.677734375,11.689453125 28.564453125,13.828125 27.3303203582764,14.4213886260986 25.4443359375,14.677734375 23.5327129364014,14.8535175323486 22.2216796875,15.205078125 21.32080078125,15.9631366729736 20.6396484375,17.3583984375 20.211181640625,19.3835468292236 20.068359375,22.03125 21.064453125,24.7119140625 21.328125,27.861328125 21.280517578125,29.81689453125 21.1376953125,31.2890625 21.15234375,33.3251953125 21.30615234375,34.383544921875 21.357421875,35.947265625 21.357421875,37.880859375 21.298828125,40.13671875 21.328125,41.42578125 21.4453125,42.71484375 21.8115234375,43.271484375 21.943359375,43.916015625 21.62109375,44.8681640625 20.654296875,45.322265625 19.951171875,45.087890625 19.306640625,44.853515625 19.04296875,44.853515625 16.142578125,45.322265625 15.3515625,45.1025390625 15.029296875,44.53125 15.17578125,44.091796875 15.5859375,43.8720703125 16.0546875,43.681640625 17.6953125,42.94921875 19.130859375,41.865234375 18.92578125,39.6533203125 18.486328125,37.44140625 17.98828125,35.244140625 17.724609375,33.046875 16.69921875,33.046875 15.3515625,39.3017578125 14.58251953125,42.139892578125 14.326171875,43.65234375 13.9306640625,44.8388671875 12.7734375,45.3515625 12.041015625,45.2197265625 11.396484375,44.853515625 9.7998046875,45.087890625 8.232421875,45.322265625 7.4853515625,45.1611328125 7.119140625,44.560546875 7.265625,44.12109375 8.49609375,43.681640625 9.755859375,43.30078125 10.9716796875,42.83203125 12.12890625,42.158203125 12.7880859375,40.3271484375 12.94921875,38.37890625 12.94921875,36.03515625 13.125,33.6181640625 13.2751455307007,32.977294921875 13.3740234375,32.724609375 13.4518423080444,32.384033203125 13.6120595932007,31.4208984375 13.8546743392944,29.835205078125 14.1796875,27.626953125 14.853515625,22.79296875 13.30078125,22.79296875 13.30078125,21.09375 14.912109375,22.177734375 15.029296875,21.328125 15.05859375,20.478515625 14.8388671875,18.33984375 14.501953125,16.259765625 13.65234375,17.578125 12.890625,18.955078125 11.6162109375,20.947265625 10.4296875,21.9140625 9.55078125,22.294921875 4.98046875,24.345703125 3.92578101158142,25.341796875 2.51953101158142,25.751953125 1.63696265220642,25.59814453125 1.15722632408142,25.13671875 0.761718511581421,24.287109375 1.435546875,23.671875 1.552734375,23.73046875 1.640625,23.7890625 2.34374976158142,23.02734375 3.57421851158142,22.79296875 4.013671875,22.822265625 4.27734375,22.822265625 6.5625,21.357421875 9.31640625,19.951171875 9.4921875,19.5703125 9.638671875,19.189453125 11.1584463119507,15.8789081573486 12.6123046875,13.623046875 14.110107421875,12.20947265625 15.76171875,11.42578125 15.5126953125,11.2060546875 15.1171875,11.103515625 14.70703125,11.044921875 14.091796875,10.7373046875 13.88671875,9.814453125 13.88671875,9.404296875 13.447265625,8.84765625 13.9306640625,7.529296875 14.4140625,6.2109375 14.47265625,5.888671875 15.9228515625,4.27734375 18.046875,3.75 19.493408203125,3.984375 20.7275390625,4.6875 21.573486328125,5.7568359375 21.85546875,7.08984375 21.3427734375,9.2578125 19.98046875,11.513671875 20.625,11.7919921875 21.474609375,12.216796875 23.61328125,11.8359375 24.169921875,11.865234375 25.693359375,12.0703125 26.1328125,12.12890625 26.9604473114014,11.898193359375 27.392578125,11.2060546875 28.095703125,8.876953125 28.388671875,7.880859375 28.59375,6.9140625 28.1396484375,6.240234375 27.685546875,5.56640625 27.978515625,5.0390625 28.447265625,5.21484375 28.447265625,4.833984375 27.890625,4.51171875 27.626953125,4.04296875 27.8466796875,3.515625 28.2421875,3.310546875z M25.048828125,2.05078125L25.751953125,2.3583984375 26.044921875,3.076171875 25.751953125,3.779296875 25.048828125,4.072265625 24.3310546875,3.779296875 24.0234375,3.076171875 24.3310546875,2.3583984375 25.048828125,2.05078125z M7.294921875,2.05078125L7.998046875,2.3583984375 8.291015625,3.076171875 7.998046875,3.779296875 7.294921875,4.072265625 6.5771484375,3.779296875 6.26953125,3.076171875 6.5771484375,2.3583984375 7.294921875,2.05078125z M21.533203125,0.585937976837158L22.236328125,0.893554210662842 22.529296875,1.611328125 22.236328125,2.314453125 21.533203125,2.607421875 20.8154296875,2.314453125 20.5078125,1.611328125 20.8154296875,0.893554210662842 21.533203125,0.585937976837158z M10.576171875,0.585937976837158L11.279296875,0.893554210662842 11.572265625,1.611328125 11.279296875,2.314453125 10.576171875,2.607421875 9.8583984375,2.314453125 9.55078125,1.611328125 9.8583984375,0.893554210662842 10.576171875,0.585937976837158z M17.9296875,0.17578125L18.6328125,0.4833984375 18.92578125,1.201171875 18.6328125,1.904296875 17.9296875,2.197265625 17.2119140625,1.904296875 16.904296875,1.201171875 17.2119140625,0.4833984375 17.9296875,0.17578125z M14.23828125,0L14.94140625,0.3076171875 15.234375,1.025390625 14.94140625,1.728515625 14.23828125,2.021484375 13.5205078125,1.728515625 13.212890625,1.025390625 13.5205078125,0.3076171875 14.23828125,0z" />
    </g>
  </g>
</svg>