<?xml version="1.0" encoding="utf-8"?>
<!DOCTYPE svg PUBLIC "-//W3C//DTD SVG 1.1//EN" "http://www.w3.org/Graphics/SVG/1.1/DTD/svg11.dtd">
<svg width="32.2558593750001" height="44.94140625" xmlns="http://www.w3.org/2000/svg" xmlns:xlink="http://www.w3.org/1999/xlink" xmlns:xml="http://www.w3.org/XML/1998/namespace" version="1.1">
  <g>
    <g>
      <path style="fill:#FF0000;fill-opacity:1" d="M17.490234375,30.703125L17.666015625,31.904296875 17.9296875,33.076171875 18.57421875,35.888671875 19.16015625,38.73046875 19.3359375,39.84375 19.453125,41.19140625 19.0869140625,42.4072265625 17.9736328125,43.0810546875 16.893310546875,43.494873046875 15.146484375,44.00390625 17.1240234375,43.7548828125 18.955078125,43.505859375 19.6435546875,43.740234375 20.33203125,43.974609375 20.44921875,43.9453125 20.537109375,43.798828125 20.2880859375,42.94921875 19.98046875,42.158203125 19.921875,41.89453125 19.716796875,38.173828125 19.130859375,30.703125 17.490234375,30.703125z M12.421875,30.703125L12.333984375,31.40625 11.3671875,37.734375 10.810546875,40.83984375 10.4736318588257,42.01904296875 9.990234375,42.685546875 8.95751953125,43.16162109375 6.97265625,43.76953125 5.9765625,44.00390625 6.2109375,44.00390625 7.8515625,43.76953125 9.55078125,43.53515625 10.458984375,43.76953125 11.1328125,44.00390625 11.3671875,43.974609375 11.572265625,43.828125 11.396484375,42.919921875 11.30859375,42.36328125 11.279296875,42.099609375 11.279296875,41.953125 11.396484375,40.751953125 11.572265625,39.609375 12.099609375,37.3828125 12.71484375,35.15625 13.271484375,32.958984375 13.681640625,30.703125 12.421875,30.703125z M18.33984375,20.44921875L13.681640625,21.240234375 13.5205068588257,22.877197265625 13.154296875,25.6201171875 12.7734365463257,28.304443359375 12.568359375,29.765625 19.04296875,29.794921875 18.75,25.927734375 18.33984375,20.44921875z M13.359375,5.478515625L13.974609375,5.888671875 13.359375,6.123046875 12.890625,5.771484375 13.359375,5.478515625z M15.5859375,2.314453125L13.5498046875,2.7978515625 12.71484375,4.04296875 14.12109375,4.21875 15.498046875,4.453125 15.966796875,4.072265625 16.7138671875,4.4091796875 16.962890625,5.185546875 16.7724609375,5.9912109375 16.23046875,6.62109375 16.4208984375,7.998046875 17.197265625,9.052734375 18.5595703125,7.1484375 18.984375,5.2734375 18.75732421875,4.061279296875 18.076171875,3.1201171875 16.99951171875,2.515869140625 15.5859375,2.314453125z M0.996093392372131,1.14257860183716L0.93749988079071,1.201171875 1.12147271633148,1.67752933502197 0.996093392372131,1.14257860183716z M31.40625,1.0546875L30.966796875,2.255859375 30.146484375,3.1640625 29.794921875,2.87109375 29.677734375,1.728515625 29.677734375,1.34765625 29.4873046875,1.6259765625 29.443359375,2.16796875 29.677734375,3.076171875 29.82421875,3.515625 29.0844707489014,5.386962890625 28.212890625,7.6611328125 27.4291973114014,9.730224609375 26.953125,10.986328125 26.630859375,11.30859375 24.0673828125,11.513671875 21.50390625,11.630859375 19.65087890625,11.54296875 18.310546875,11.279296875 17.42431640625,10.77392578125 16.93359375,9.9609375 15.673828125,8.642578125 15.29296875,6.416015625 15.5859375,5.888671875 15.9375,5.595703125 16.025390625,5.21484375 15.99609375,5.09765625 15.8642578125,5.21484375 15.732421875,5.390625 14.150390625,5.185546875 12.59765625,4.98046875 12.392578125,5.859375 12.158203125,6.50390625 12.59765625,6.884765625 12.7734375,7.67578125 14.033203125,7.8662109375 14.619140625,8.876953125 14.677734375,9.140625 14.677734375,9.404296875 14.12109375,10.72265625 12.685546875,11.54296875 12.333984375,11.66015625 11.89453125,11.806640625 11.4990234375,11.7333984375 11.1328125,11.66015625 10.37109375,11.66015625 5.65429639816284,11.30859375 5.2734375,11.07421875 3.2373046875,5.7861328125 2.63305640220642,3.922119140625 2.431640625,2.9296875 2.373046875,2.197265625 2.314453125,1.81640625 2.197265625,1.376953125 2.02148389816284,1.23046875 1.78710901737213,1.14257860183716 2.02148389816284,1.81640625 2.109375,2.63671875 1.87499988079071,2.75390625 1.31680905818939,2.18331146240234 1.75781261920929,3.3251953125 2.35107398033142,3.834228515625 2.49023389816284,3.984375 2.54882860183716,4.1015625 2.750244140625,5.04638671875 3.2373046875,7.353515625 4.105224609375,9.9755859375 5.44921875,11.865234375 8.818359375,12.4658203125 12.275390625,12.744140625 12.509765625,12.978515625 12.7734375,13.212890625 13.330078125,16.6845703125 13.7109375,20.185546875 13.7109375,20.2734375 18.28125,19.482421875 18.22265625,18.486328125 18.22265625,17.490234375 18.369140625,15.146484375 18.984375,12.978515625 19.16015625,12.861328125 19.365234375,12.744140625 23.056640625,12.4658203125 26.748046875,11.865234375 27.9785137176514,10.118408203125 28.857421875,7.6904296875 29.4433574676514,5.408935546875 29.794921875,4.1015625 30.732421875,3.134765625 31.32568359375,2.2705078125 31.5234375,1.318359375 31.5234375,1.11328125 31.40625,1.0546875z M0.820312142372131,0L1.58203113079071,0.205077648162842 1.66992199420929,0.64453125 2.314453125,0.380859375 3.12011671066284,1.7138671875 3.251953125,3.33984375 4.599609375,6.884765625 6.005859375,10.400390625 8.349609375,10.576171875 10.37109375,10.72265625 11.015625,10.72265625 11.8359375,10.83984375 12.8466796875,10.3857421875 13.740234375,9.78515625 13.740234375,9.19921875 13.59375,8.701171875 13.06640625,8.61328125 12.5390625,8.61328125 12.24609375,8.49609375 11.689453125,7.353515625 11.630859375,7.353515625 11.19140625,6.796875 11.4111328125,5.9033203125 11.630859375,4.951171875 11.630859375,4.3359375 12.0117177963257,3.134765625 12.861328125,2.16796875 14.1064443588257,1.53076171875 15.673828125,1.318359375 17.340087890625,1.600341796875 18.7060546875,2.4462890625 19.617919921875,3.724365234375 19.921875,5.302734375 19.5849609375,7.20703125 18.980712890625,8.31298828125 17.841796875,9.755859375 18.544921875,10.37109375 19.482421875,10.5908203125 20.888671875,10.6640625 21.50390625,10.6640625 23.84765625,10.5908203125 26.19140625,10.400390625 27.5390625,6.884765625 28.916015625,3.3984375 28.7255859375,2.8125 28.65234375,2.080078125 28.9013671875,0.9375 29.794921875,0.41015625 30.029296875,0.64453125 30.29296875,0.87890625 30.234375,1.845703125 30.556640625,1.11328125 30.76171875,0.322265625 31.494140625,0.0292973518371582 31.787109375,0.234375 32.05078125,0.498046875 32.255859375,0.87890625 32.255859375,1.171875 31.7431640625,2.958984375 30.46875,4.423828125 30.1611309051514,5.76416015625 29.765625,7.6171875 28.30078125,11.42578125 27.94921875,11.953125 27.12890625,12.7734375 26.4550762176514,12.9418964385986 25.3125,13.095703125 23.49609375,13.330078125 21.6064453125,13.5791015625 19.6875,13.681640625 19.248046875,15.380859375 19.130859375,17.373046875 19.248046875,19.892578125 19.39453125,21.97265625 19.951171875,29.4140625 20.56640625,36.884765625 20.628662109375,38.111572265625 20.6982421875,39.7998046875 20.804443359375,41.378173828125 20.9765625,42.275390625 21.181640625,42.744140625 21.357421875,43.2275390625 21.474609375,43.76953125 21.1962890625,44.5751953125 20.478515625,44.94140625 19.5263671875,44.6923828125 18.603515625,44.443359375 15.263671875,44.912109375 14.208984375,44.6923828125 13.681640625,43.857421875 13.828125,43.59375 13.974609375,43.330078125 14.542236328125,43.1689453125 15.8935546875,42.802734375 17.406005859375,42.275390625 18.45703125,41.630859375 17.958984375,37.44140625 17.021484375,33.310546875 16.7578125,32.021484375 16.552734375,30.703125 14.619140625,30.703125 14.249267578125,32.735595703125 13.3740234375,36.1376953125 12.5280752182007,39.576416015625 12.24609375,41.71875 12.24609375,42.392578125 12.4072265625,43.1103515625 12.509765625,43.828125 12.0703125,44.6337890625 11.103515625,44.94140625 10.1953125,44.70703125 9.228515625,44.47265625 8.0126953125,44.6337890625 6.796875,44.853515625 6.328125,44.912109375 5.25878858566284,44.6630859375 4.74609375,43.76953125 5.185546875,43.212890625 6.26953172683716,42.978515625 7.44140625,42.71484375 8.84765625,42.2900390625 9.7265625,41.630859375 9.873046875,40.869140625 9.90234375,40.60546875 10.546875,36.884765625 12.0703125,27.216796875 12.744140625,21.26953125 12.568359375,21.298828125 12.392578125,21.328125 12.1875,21.357421875 11.66015625,21.474609375 10.8984375,20.830078125 11.630859375,20.15625 12.7734375,20.537109375 12.7734375,20.390625 12.6855459213257,19.3286151885986 12.421875,17.314453125 12.1142568588257,15.1611347198486 11.89453125,13.681640625 10.224609375,13.564453125 6.62109375,13.095703125 5.185546875,12.802734375 4.248046875,12.0703125 3.665771484375,11.19873046875 3.0908203125,9.814453125 2.25585889816284,6.73828125 1.87499988079071,4.51171875 0.454101324081421,3.046875 0,1.083984375 0.14648425579071,0.64453125 0.498047113418579,0.322265625 0.820312142372131,0z" />
    </g>
  </g>
</svg>