<?xml version="1.0" encoding="utf-8"?>
<!DOCTYPE svg PUBLIC "-//W3C//DTD SVG 1.1//EN" "http://www.w3.org/Graphics/SVG/1.1/DTD/svg11.dtd">
<svg width="26.0742187500001" height="46.93359375" xmlns="http://www.w3.org/2000/svg" xmlns:xlink="http://www.w3.org/1999/xlink" xmlns:xml="http://www.w3.org/XML/1998/namespace" version="1.1">
  <g>
    <g>
      <path style="fill:#FF0000;fill-opacity:1" d="M15.87890625,22.412109375L14.46533203125,23.31298828125 13.505859375,24.7265625 12.8979482650757,26.978759765625 12.5390625,30.3955078125 12.4337759017944,32.1835327148438 12.3522939682007,33.548583984375 12.2946157455444,34.4906616210938 12.2607421875,35.009765625 11.9787588119507,35.5810546875 11.220703125,36.064453125 10.693359375,35.830078125 10.1989736557007,34.82666015625 8.9501953125,32.34375 6.939697265625,29.677734375 4.16015625,28.125 3.33984375,28.388671875 3.22265625,28.59375 2.51953125,30.2197265625 2.255859375,31.93359375 2.51953101158142,33.75732421875 3.31054639816284,36.123046875 4.1015625,38.50341796875 4.365234375,40.37109375 4.072265625,42.71484375 3.515625,43.568115234375 2.431640625,44.1943359375 1.39160144329071,44.901123046875 0.966796517372131,45.99609375 21.6796875,45.99609375 21.214599609375,44.93408203125 20.1708984375,44.033203125 19.141845703125,43.39599609375 18.720703125,43.125 18.57421875,42.861328125 18.427734375,42.59765625 19.5263671875,36.767578125 20.009765625,31.142578125 20.009765625,30.29296875 19.921875,28.681640625 19.74609375,26.689453125 19.423828125,22.998046875 18.896484375,22.55859375 18.22265625,22.412109375 18.22265625,28.037109375 17.958984375,28.271484375 17.724609375,28.505859375 16.318359375,28.505859375 15.87890625,27.94921875 15.87890625,22.412109375z M12.333984375,14.208984375L12.8832998275757,14.34814453125 13.828125,14.765625 12.333984375,15.3515625 11.89453125,14.765625 12.333984375,14.208984375z M17.958984375,13.9453125L18.662109375,16.171875 18.0322265625,18.4130859375 17.18994140625,19.4311542510986 15.9228515625,20.2880859375 14.813232421875,21.1193866729736 14.443359375,22.060546875 16.318359375,21.4453125 16.552734375,21.6796875 16.81640625,21.9140625 16.81640625,27.568359375 17.28515625,27.568359375 17.28515625,22.001953125 17.724609375,21.4453125 19.16015625,21.6650390625 20.2734375,22.55859375 20.5078125,25.048828125 20.7421875,27.568359375 21.650390625,27.568359375 21.6275024414063,27.1994018554688 21.558837890625,26.151123046875 21.4443969726563,24.4235229492188 21.2841796875,22.0166015625 20.269775390625,17.2521991729736 17.958984375,13.9453125z M13.974609375,13.388671875L15.3076171875,13.59375 16.376953125,14.208984375 17.080078125,15.0073261260986 17.314453125,15.76171875 17.0654296875,16.8127460479736 16.318359375,17.6806640625 13.857421875,18.80859375 13.857421875,18.33984375 14.970703125,17.8125 15.9521484375,16.9775390625 16.376953125,15.76171875 16.142578125,15.146484375 15.703125,14.94140625 14.4580078125,15.3076171875 13.212890625,15.966796875 12.685546875,18.486328125 12.041015625,16.11328125 11.77734375,15.99609375 11.6015625,15.8203125 11.89453125,15.498046875 12.0263671875,15.6005859375 12.392578125,15.64453125 13.3740234375,15.3369140625 14.443359375,14.765625 13.681640625,14.384765625 13.0224609375,14.1064453125 12.451171875,13.974609375 12.0703125,14.1943359375 11.748046875,14.53125 11.572265625,14.23828125 12.24609375,13.65234375 12.9125967025757,13.45458984375 13.974609375,13.388671875z M13.916015625,12.94921875L11.982421875,13.30078125 11.044921875,14.091796875 10.8984375,14.443359375 10.869140625,14.443359375 10.224609375,15.029296875 9.404296875,15.791015625 10.3125,15.9521484375 11.1328125,16.318359375 11.337890625,16.69921875 11.7041006088257,17.9040546417236 12.509765625,19.1748046875 13.3447256088257,20.2624530792236 13.798828125,20.91796875 14.47265625,20.21484375 15.3515625,19.5703125 16.2890625,18.955078125 17.40234375,17.7685546875 17.75390625,16.34765625 17.4755859375,15.0073261260986 16.640625,13.916015625 15.40283203125,13.19091796875 13.916015625,12.94921875z M5.56640577316284,8.759765625L7.935791015625,10.447998046875 11.1767578125,11.5283203125 14.864501953125,11.93115234375 18.57421875,11.5869140625 21.943359375,10.535888671875 24.609375,8.818359375 19.9365234375,10.25390625 14.853515625,10.869140625 12.0629873275757,10.653076171875 9.2578125,10.0048828125 6.9287109375,9.261474609375 5.56640577316284,8.759765625z M15.087890625,0.937500476837158L13.3850088119507,1.256103515625 11.8505859375,2.2119140625 10.762939453125,3.577880859375 10.400390625,5.126953125 10.872802734375,7.232666015625 12.2900390625,8.9208984375 14.21630859375,9.854736328125 16.2158203125,9.697265625 17.940673828125,8.642578125 19.04296875,6.884765625 19.3359375,5.21484375 19.02099609375,3.6328125 18.076171875,2.28515625 16.69921875,1.3330078125 15.087890625,0.937500476837158z M15.087890625,0L17.135009765625,0.531005859375 18.8232421875,1.7724609375 19.954833984375,3.468017578125 20.33203125,5.361328125 19.775390625,7.7197265625 18.28125,9.638671875 22.5732421875,8.5107421875 24.2175273895264,7.928466796875 25.25390625,7.734375 25.986328125,7.96875 26.07421875,8.26171875 25.4663066864014,9.3603515625 23.642578125,10.72265625 20.91796875,11.96044921875 17.607421875,12.685546875 19.573974609375,14.2785654067993 20.9619140625,16.7138671875 21.851806640625,19.8449726104736 22.32421875,23.525390625 22.646484375,28.037109375 22.3828125,28.271484375 22.1484375,28.505859375 20.830078125,28.505859375 20.91796875,29.7802734375 20.947265625,31.0546875 20.478515625,36.7822265625 19.423828125,42.451171875 20.654296875,43.2421875 22.1044921875,44.6337890625 22.646484375,46.46484375 22.3828125,46.69921875 22.1484375,46.93359375 0.43945300579071,46.93359375 0,46.376953125 0.585937142372131,44.47265625 1.47216784954071,43.64501953125 2.958984375,42.802734375 3.427734375,40.48828125 3.1640625,38.59130859375 2.373046875,36.181640625 1.58203113079071,33.75732421875 1.31835901737213,31.81640625 2.021484375,28.88671875 2.79052710533142,27.65625 3.69140625,27.24609375 5.51147413253784,27.601318359375 7.2216796875,28.6669921875 8.09967041015625,29.5889282226563 9.078369140625,30.933837890625 10.1577758789063,32.7017211914063 11.337890625,34.892578125 11.3562002182007,34.4467163085938 11.4111318588257,33.402099609375 11.5026845932007,31.7587280273438 11.630859375,29.5166015625 11.8670644760132,27.1847534179688 12.2827138900757,25.272216796875 12.8778066635132,23.7789916992188 13.65234375,22.705078125 13.1396474838257,21.5222187042236 12.0703125,20.0830078125 10.9863271713257,18.5266132354736 10.4296875,16.9921875 9.7119140625,16.7578125 8.935546875,16.69921875 8.49609375,16.318359375 8.9208984375,14.8681640625 9.990234375,14.033203125 10.6201171875,13.125 11.513671875,12.509765625 9.056396484375,11.84326171875 6.7236328125,10.78125 4.969482421875,9.5361328125 4.248046875,8.3203125 4.365234375,7.91015625 5.00976610183716,7.705078125 5.859375,7.8369140625 6.767578125,8.115234375 8.14453125,8.642578125 9.8291015625,9.140625 11.513671875,9.55078125 9.990234375,7.5732421875 9.43359375,5.09765625 9.876708984375,3.1787109375 11.2060546875,1.5234375 13.0627431869507,0.380859375 15.087890625,0z" />
    </g>
  </g>
</svg>