<?xml version="1.0" encoding="utf-8"?>
<!DOCTYPE svg PUBLIC "-//W3C//DTD SVG 1.1//EN" "http://www.w3.org/Graphics/SVG/1.1/DTD/svg11.dtd">
<svg width="35.419921875" height="44.970703125" xmlns="http://www.w3.org/2000/svg" xmlns:xlink="http://www.w3.org/1999/xlink" xmlns:xml="http://www.w3.org/XML/1998/namespace" version="1.1">
  <g>
    <g>
      <path style="fill:#FF0000;fill-opacity:1" d="M10.869140625,28.828125L10.576171875,29.208984375 9.58740234375,31.256103515625 8.7890625,34.5263671875 8.1591796875,37.752685546875 7.67578125,39.66796875 7.20703125,41.07421875 6.04248046875,42.91259765625 4.189453125,43.681640625 2.40234375,43.87939453125 1.43554675579071,44.00390625 1.66992223262787,44.033203125 2.9296875,43.9013671875 4.306640625,43.76953125 4.62890672683716,43.76953125 5.61035108566284,43.9013671875 6.796875,44.033203125 7.08984375,44.00390625 7.44140625,43.88671875 7.1484375,42.802734375 7.1484375,42.333984375 7.31781005859375,41.9622802734375 7.708740234375,41.11083984375 8.32122802734375,39.7796630859375 9.1552734375,37.96875 10.6457509994507,34.13818359375 11.337890625,30.849609375 11.279296875,30.732421875 10.986328125,29.7509765625 10.869140625,28.828125z M13.53515625,27.0703125L12.451171875,27.421875 11.953125,28.125 11.806640625,28.828125 11.9311513900757,29.71435546875 12.3046875,31.083984375 13.4765625,33.984375 14.677734375,36.4453125 15.6884765625,38.9501953125 16.11328125,41.3671875 16.11328125,41.66015625 15.758056640625,42.65625 14.6923828125,43.359375 12.01171875,44.00390625 12.3046875,44.00390625 12.8063955307007,43.98193359375 13.7255859375,43.916015625 15.41015625,43.828125 16.1572265625,43.857421875 16.93359375,43.974609375 17.021484375,43.88671875 16.728515625,43.271484375 16.5234375,42.65625 15.673828125,37.03125 15.245361328125,34.5703125 14.8388671875,32.51953125 14.2529296875,29.2822265625 13.53515625,27.0703125z M29.912109375,12.626953125L29.384765625,13.740234375 31.5380859375,16.3330078125 33.45703125,19.130859375 33.515625,19.5703125 33.0322265625,21.26953125 32.6953125,23.115234375 32.40234375,24.9609375 32.05078125,26.689453125 31.7578125,26.982421875 30.7177734375,27.9052734375 30.263671875,29.82421875 30.703125,29.82421875 30.9375,28.4619140625 31.2158203125,27.857666015625 31.58203125,27.65625 31.9775390625,27.890625 32.314453125,28.4765625 32.34375,26.396484375 33.336181640625,24.283447265625 33.9697265625,22.5732421875 34.482421875,20.0390625 34.185791015625,18.9147968292236 33.2958984375,16.9482421875 31.856689453125,14.6740741729736 29.912109375,12.626953125z M19.51171875,12.041015625L17.874755859375,12.9748554229736 16.0693359375,14.3115234375 14.45068359375,15.6188983917236 13.3740234375,16.46484375 11.923828125,17.080078125 11.3525390625,17.0361328125 10.6640625,16.9921875 7.67578125,17.255859375 4.6875,17.431640625 4.02831983566284,16.9482421875 2.666015625,16.58203125 0.93749988079071,16.904296875 0.93749988079071,17.255859375 2.666015625,16.962890625 3.89648389816284,17.40234375 2.78320264816284,18.017578125 3.1640625,17.9296875 4.453125,17.6953125 4.83398485183716,17.63671875 7.4560546875,17.8125 10.576171875,17.98828125 11.162109375,18.017578125 11.8359375,18.046875 13.2604970932007,17.7905292510986 15.0146484375,17.021484375 17.164306640625,15.5419940948486 19.775390625,13.154296875 19.62890625,12.59765625 19.51171875,12.041015625z M21.15234375,3.955078125L22.20703125,4.306640625 21.123046875,4.6875 20.771484375,4.306640625 21.15234375,3.955078125z M20.5078125,3.076171875L20.009765625,3.955078125 19.541015625,4.8046875 19.8046875,4.8046875 20.0390625,5.0390625 20.302734375,5.2734375 20.2734375,5.6982421875 20.244140625,6.2109375 20.625,7.03125 21.20361328125,7.119140625 22.177734375,7.1484375 22.646484375,7.470703125 22.96875,9.2578125 22.3828125,10.72265625 21.591796875,11.2353515625 20.390625,11.71875 20.56640625,12.392578125 21.298828125,15.41015625 21.763916015625,17.3876972198486 21.9873046875,18.33984375 22.064208984375,18.9990253448486 22.08984375,20.09765625 21.8408203125,22.236328125 21.2109375,24.31640625 20.888671875,24.638671875 17.6953125,25.693359375 14.47265625,26.77734375 14.53125,26.89453125 15.1171875,28.857421875 17.87109375,28.740234375 20.654296875,28.7109375 23.408203125,28.6669921875 26.162109375,28.447265625 26.953125,26.3525390625 27.158203125,24.140625 27.158203125,19.98046875 27.5244140625,16.6552734375 28.740234375,12.890625 28.916015625,12.48046875 29.12109375,12.0703125 27.978515625,11.484375 25.6494140625,10.5615234375 24.7375469207764,9.840087890625 24.43359375,8.466796875 24.4921875,7.763671875 23.7890625,6.650390625 23.203125,5.5078125 23.203125,5.0390625 23.818359375,3.837890625 23.701171875,3.69140625 23.61328125,3.80859375 23.583984375,3.984375 23.3935546875,4.072265625 23.203125,4.16015625 22.96875,4.27734375 21.5625,3.57421875 20.5078125,3.076171875z M23.4375,0.9375L21.9140625,1.23046875 20.859375,2.2265625 21.884765625,2.6953125 22.91015625,3.193359375 23.701171875,2.63671875 24.4482421875,2.958984375 24.755859375,3.720703125 24.66796875,4.16015625 24.140625,5.361328125 25.1953125,7.060546875 26.7919921875,6.1669921875 27.509765625,4.423828125 27.2387676239014,3.017578125 26.42578125,1.904296875 25.1367168426514,1.17919921875 23.4375,0.9375z M23.642578125,0L25.5578594207764,0.303955078125 27.0849609375,1.2158203125 28.0847148895264,2.596435546875 28.41796875,4.306640625 28.2238750457764,5.570068359375 27.6416015625,6.6064453125 25.400390625,7.998046875 25.341796875,8.291015625 25.341796875,8.583984375 25.6201171875,9.375 26.455078125,9.84375 27.24609375,10.166015625 28.65234375,10.810546875 29.7143535614014,11.334228515625 30.205078125,11.6162109375 30.618896484375,12.008056640625 31.4501953125,12.861328125 33.33984375,15.2197265625 34.8046875,18.017578125 35.185546875,18.92578125 35.419921875,19.921875 35.419921875,20.185546875 34.716796875,23.49609375 33.046875,26.66015625 33.046875,27.48046875 32.87109375,29.0771484375 32.255859375,29.82421875 32.109375,29.82421875 31.611328125,29.6484375 31.640625,30.29296875 31.376953125,30.52734375 31.142578125,30.76171875 29.736328125,30.76171875 29.296875,30.205078125 29.4799785614014,28.670654296875 29.853515625,27.5244140625 31.2890625,26.162109375 31.673583984375,24.737548828125 31.9482421875,22.8076171875 32.208251953125,20.885009765625 32.548828125,19.482421875 30.87890625,16.9921875 29.00390625,14.70703125 28.2421875,17.900390625 28.1323223114014,19.0649433135986 28.095703125,19.62890625 28.095703125,20.185546875 28.125,20.68359375 28.125,23.49609375 27.9052734375,26.3818359375 26.8359375,29.1796875 26.572265625,29.35546875 23.7451171875,29.5751953125 20.888671875,29.619140625 18.046875,29.6484375 15.205078125,29.794921875 15.7177734375,32.2119140625 16.138916015625,34.420166015625 16.728515625,37.91015625 17.431640625,42.421875 17.75390625,43.125 18.017578125,43.857421875 17.6806640625,44.5751953125 16.962890625,44.94140625 16.201171875,44.82421875 15.205078125,44.70703125 13.5791015625,44.8095703125 11.513671875,44.94140625 10.4736328125,44.82421875 9.990234375,44.091796875 10.455322265625,43.392333984375 11.8505859375,43.1103515625 13.6047353744507,42.762451171875 15.146484375,41.865234375 15.205078125,41.54296875 15.205078125,41.25 14.7802734375,39.169921875 13.9453125,37.265625 12.861328125,34.951171875 11.953125,32.724609375 11.1584463119507,35.496826171875 9.8291015625,38.7158203125 9.11956787109375,40.2474975585938 8.587646484375,41.400146484375 8.23333740234375,42.1737670898438 8.056640625,42.568359375 8.349609375,43.798828125 7.939453125,44.6923828125 6.85546875,44.970703125 6.064453125,44.94140625 4.921875,44.765625 3.80859375,44.736328125 2.98828125,44.853515625 1.78710949420929,44.94140625 0.527343511581421,44.5458984375 0.26367175579071,43.857421875 0.87890636920929,43.1982421875 2.109375,42.94921875 3.90380859375,42.689208984375 4.775390625,42.4951171875 5.56640625,41.9677734375 5.98388624191284,41.396484375 6.474609375,40.4150390625 6.983642578125,38.865966796875 7.4560546875,36.591796875 7.921142578125,34.1455078125 8.408203125,32.080078125 8.935546875,30.40283203125 9.521484375,29.12109375 10.283203125,28.06640625 11.0888671875,27.216796875 12.099609375,26.54296875 12.802734375,26.30859375 13.53515625,26.07421875 20.390625,23.7890625 20.91796875,22.001953125 21.15234375,20.009765625 21.09375,19.2333984375 20.91796875,18.1640625 20.0390625,14.208984375 17.574462890625,16.4172382354736 15.3369140625,17.8857421875 13.4216299057007,18.7097187042236 11.923828125,18.984375 11.19140625,18.955078125 10.576171875,18.92578125 4.775390625,18.486328125 3.72070360183716,18.7646484375 2.51953125,18.896484375 1.72851598262787,18.7939453125 1.08398449420929,18.427734375 0.996094107627869,17.9296875 0.585937857627869,18.017578125 0,17.4609375 0,16.669921875 0.146484613418579,16.40625 0.29296863079071,16.142578125 1.43554675579071,15.791015625 2.724609375,15.64453125 3.984375,15.8642578125 4.951171875,16.611328125 6.4306640625,16.4868183135986 8.408203125,16.2890625 10.2172842025757,16.1132831573486 11.19140625,16.0546875 11.689453125,16.0546875 12.1875,16.11328125 13.6560049057007,15.0842304229736 15.9521484375,13.2861328125 18.40576171875,11.572265625 20.3466796875,10.7958984375 21.610107421875,10.242919921875 22.03125,9.19921875 21.85546875,8.0859375 20.57373046875,7.9833984375 19.833984375,7.67578125 19.482421875,6.9873046875 19.365234375,5.7421875 18.8671875,5.7421875 18.427734375,5.185546875 19.1455078125,3.4716796875 20.1123046875,1.7724609375 21.357421875,0.5419921875 23.642578125,0z" />
    </g>
  </g>
</svg>