<?xml version="1.0" encoding="utf-8"?>
<!DOCTYPE svg PUBLIC "-//W3C//DTD SVG 1.1//EN" "http://www.w3.org/Graphics/SVG/1.1/DTD/svg11.dtd">
<svg width="12.275390625" height="45.029296875" xmlns="http://www.w3.org/2000/svg" xmlns:xlink="http://www.w3.org/1999/xlink" xmlns:xml="http://www.w3.org/XML/1998/namespace" version="1.1">
  <g>
    <g>
      <path style="fill:#FF0000;fill-opacity:1" d="M8.173828125,10.546875L5.9765625,11.279296875 5.478515625,15.41015625 5.302734375,17.109375 5.126953125,18.779296875 5.0390625,20.302734375 4.98046779632568,21.474609375 5.19287014007568,24.971923828125 5.83007717132568,29.4287109375 6.46728467941284,33.878173828125 6.6796875,37.353515625 6.4892578125,39.90234375 6.31713771820068,40.92041015625 6.18163967132568,41.396484375 5.58105373382568,42.158203125 4.1455078125,43.2421875 2.02148413658142,44.091796875 8.7890625,44.091796875 9.0380859375,43.974609375 9.140625,43.65234375 8.994140625,42.59765625 8.701171875,41.54296875 8.37890625,40.3857421875 8.232421875,39.0234375 8.514404296875,36.10107421875 9.3603515625,31.904296875 10.206298828125,27.5830078125 10.48828125,24.287109375 10.1806640625,21.38671875 9.404296875,19.189453125 9.375,18.486328125 9.375,16.93359375 9.345703125,14.619140625 9.1552734375,12.71484375 8.4375,10.95703125 8.173828125,10.546875z M4.24804592132568,4.833984375L5.0390625,5.244140625 4.27734375,5.654296875 3.98437476158142,5.21484375 4.24804592132568,4.833984375z M3.45703101158142,3.955078125L3.07617163658142,5.09765625 2.72460913658142,5.6689453125 2.431640625,6.298828125 3.00292944908142,7.001953125 3.16406273841858,7.998046875 3.23730444908142,8.2763671875 3.39843678474426,8.49609375 4.5703125,8.84765625 5.12695217132568,9.404296875 5.7421875,10.37109375 7.6171875,9.755859375 7.236328125,8.9501953125 7.060546875,8.14453125 7.1923828125,6.8701171875 7.470703125,5.947265625 7.763671875,5.478515625 7.91015625,4.951171875 7.6171875,4.5703125 7.412109375,4.775390625 6.767578125,5.21484375 3.45703101158142,3.955078125z M7.6904296875,1.0546875L5.99487209320068,1.01806640625 4.6875,1.552734375 4.11620998382568,2.197265625 3.72070288658142,3.076171875 6.591796875,4.16015625 7.001953125,3.7646484375 7.587890625,3.6328125 8.4814453125,3.955078125 8.876953125,4.833984375 8.701171875,5.6689453125 8.3203125,6.38671875 8.1298828125,7.1630859375 7.998046875,7.998046875 8.1591796875,8.73046875 8.701171875,9.66796875 9.140625,10.341796875 9.9169921875,12.01171875 10.25390625,14.033203125 10.283203125,14.6484375 10.4736328125,14.9853515625 10.78125,15.17578125 11.1474609375,14.794921875 11.30859375,13.798828125 11.30859375,7.939453125 11.0925283432007,4.921875 10.4443359375,2.900390625 9.32373046875,1.67724609375 7.6904296875,1.0546875z M6.9140625,0L9.25048828125,0.487060546875 10.927734375,1.9482421875 11.9384756088257,4.478759765625 12.275390625,8.173828125 12.275390625,13.359375 11.9091796875,15.380859375 11.4660634994507,15.9521503448486 10.869140625,16.142578125 10.283203125,15.966796875 10.283203125,18.8671875 11.103515625,21.650390625 11.337890625,24.404296875 11.0668935775757,27.7001953125 10.25390625,31.845703125 9.44091796875,35.91796875 9.169921875,38.994140625 9.31640625,40.4443359375 9.638671875,41.6015625 9.931640625,42.65625 10.078125,43.65234375 9.7412109375,44.6484375 8.7890625,45.029296875 0.761718511581421,45.029296875 0.468749523162842,44.912109375 0,44.443359375 0.14648425579071,43.65234375 2.34374976158142,43.0224609375 4.2333984375,42.0703125 5.2587890625,41.1474609375 5.43456935882568,40.546875 5.58105373382568,39.4775390625 5.712890625,37.03125 5.50048732757568,33.544921875 4.86328125,29.0625 4.22607421875,24.63134765625 4.013671875,21.298828125 4.3505859375,16.1279296875 5.0390625,11.015625 4.2626953125,9.7998046875 3.51562428474426,9.404296875 2.49023413658142,11.2939453125 0.791015386581421,12.333984375 0.439452767372131,11.865234375 0.791015386581421,11.396484375 1.87499976158142,10.6494140625 2.60742163658142,9.052734375 2.40234327316284,8.583984375 2.28515577316284,8.056640625 2.22656226158142,7.353515625 1.728515625,6.97265625 1.58203125,6.708984375 1.43554639816284,6.4453125 1.728515625,5.5517578125 2.22656226158142,4.74609375 2.4609375,4.04296875 3.29223608970642,1.907958984375 4.2041015625,0.7177734375 5.35766506195068,0.179443359375 6.9140625,0z" />
    </g>
  </g>
</svg>