<?xml version="1.0" encoding="utf-8"?>
<!DOCTYPE svg PUBLIC "-//W3C//DTD SVG 1.1//EN" "http://www.w3.org/Graphics/SVG/1.1/DTD/svg11.dtd">
<svg width="26.455078125" height="44.47265625" xmlns="http://www.w3.org/2000/svg" xmlns:xlink="http://www.w3.org/1999/xlink" xmlns:xml="http://www.w3.org/XML/1998/namespace" version="1.1">
  <g>
    <g>
      <path style="fill:#FF0000;fill-opacity:1" d="M2.2265625,43.037109375L1.84570276737213,43.53515625 12.158203125,43.53515625 12.158203125,43.037109375 2.2265625,43.037109375z M12.275390625,17.87109375L11.015625,20.478515625 10.693359375,23.701171875 10.7666015625,24.375 10.83984375,25.048828125 10.546875,26.8212890625 10.166015625,28.447265625 9.755859375,30.05859375 9.43359375,31.728515625 9.55078125,33.017578125 9.638671875,34.130859375 9.66796875,35.09765625 9.5654296875,38.5986328125 9.43359375,42.099609375 12.275390625,42.099609375 12.275390625,17.87109375z M6.591796875,11.42578125L7.03125,11.572265625 6.4453125,11.982421875 6.328125,11.748046875 6.591796875,11.42578125z M11.484375,10.72265625L10.78125,12.65625 10.01953125,14.560546875 11.103515625,15.0439453125 12.275390625,15.205078125 12.275390625,11.396484375 12.0776357650757,10.96435546875 11.484375,10.72265625z M8.173828125,10.517578125L8.0126953125,10.6494140625 7.822265625,10.95703125 7.587890625,11.103515625 6.123046875,11.103515625 5.8740234375,11.8505859375 5.68359375,12.1875 5.654296875,12.421875 5.9619140625,12.5830078125 6.15234375,13.06640625 7.119140625,13.798828125 7.55859375,15.17578125 7.294921875,15.41015625 7.060546875,15.64453125 6.50390625,15.64453125 5.2734375,16.2451171875 5.27343702316284,16.9006366729736 5.80078125,17.783203125 6.39404296875,19.4750995635986 6.591796875,22.55859375 6.591796875,23.525390625 6.650390625,24.6533203125 6.826171875,26.279296875 7.294921875,30.29296875 7.5,32.197265625 7.8515625,35.80078125 8.02734375,38.935546875 8.02734375,39.66796875 7.7783203125,40.64208984375 7.03125,41.396484375 4.775390625,42.099609375 8.49609375,42.099609375 8.671875,37.55859375 8.73046875,34.62890625 8.5546875,32.2998046875 8.631591796875,30.78369140625 9.2138671875,28.1982421875 9.803466796875,25.78125 9.90234375,24.7705078125 9.79248046875,24.180908203125 9.755859375,23.02734375 10.2392578125,19.74609375 11.806640625,16.904296875 11.923828125,16.81640625 12.0703125,16.69921875 12.275390625,16.611328125 12.275390625,16.11328125 10.5908203125,15.87890625 9.140625,15.05859375 9.052734375,14.47265625 8.73046875,14.033203125 8.056640625,13.271484375 7.529296875,12.158203125 7.705078125,11.6015625 8.1005859375,11.3671875 8.232421875,10.95703125 8.232421875,10.6640625 8.173828125,10.517578125z M6.2109375,9.0234375L6.2109375,10.3125 7.32421875,10.3125 8.26171875,9.755859375 8.8037109375,10.048828125 9.0234375,10.751953125 8.876953125,11.396484375 8.408203125,11.982421875 8.408203125,12.12890625 8.7451171875,12.8466796875 9.404296875,13.564453125 10.283203125,11.279296875 11.1328125,9.0234375 6.2109375,9.0234375z M20.478515625,8.115234375L19.7607421875,8.4521484375 19.2041015625,9.0673828125 19.075927734375,9.7705078125 18.779296875,11.3232421875 17.900390625,15.17578125 17.607421875,15.498046875 16.552734375,15.673828125 15.41015625,15.732421875 14.23828125,15.8203125 13.125,16.083984375 13.125,16.494140625 15.6005859375,16.0400390625 18.10546875,15.76171875 18.662109375,13.4765625 18.6328125,13.4765625 19.130859375,11.1181640625 19.453125,10.184326171875 20.009765625,9.873046875 20.654296875,9.90234375 21.123046875,9.7265625 21.533203125,9.4921875 21.474609375,9.345703125 21.328125,9.404296875 20.537109375,9.6533203125 19.833984375,9.7265625 19.599609375,9.755859375 19.39453125,9.228515625 19.86328125,8.701171875 20.595703125,8.26171875 20.537109375,8.115234375 20.478515625,8.115234375z M21.650390625,6.5625L24.375,14.853515625 24.4921875,14.82421875 24.78515625,14.765625 25.048828125,14.794921875 25.166015625,14.5751953125 25.400390625,14.443359375 21.650390625,6.5625z M13.095703125,0.937500476837158L12.3046875,1.2744140625 11.77734375,2.109375 9.19921875,8.0859375 11.484375,8.0859375 12.59765625,4.98046875 13.7109375,1.875 13.6083984375,1.2451171875 13.095703125,0.937500476837158z M10.517578125,0.937500476837158L10.224609375,1.025390625 9.931640625,1.23046875 9.609375,1.494140625 8.408203125,3.955078125 7.3828125,6.123046875 6.41601514816284,8.0859375 8.173828125,8.0859375 10.927734375,1.728515625 10.9716796875,1.5673828125 11.015625,1.318359375 10.927734375,1.05468797683716 10.517578125,0.937500476837158z M10.751953125,0L11.806640625,0.439453125 12.94921875,0 14.1943359375,0.52734375 14.6484375,1.81640625 14.619140625,2.109375 11.748046875,10.01953125 12.7807607650757,10.45166015625 13.125,11.396484375 13.125,15.17578125 14.150390625,15.029296875 15.205078125,15.029296875 16.1865234375,14.9853515625 17.109375,14.794921875 17.63671875,12.65625 18.10546875,10.517578125 18.310546875,9.287109375 19.2919921875,8.0126953125 20.771484375,7.6171875 21.005859375,7.8515625 21.26953125,8.0859375 20.6103515625,8.90625 19.921875,9.19921875 20.0390625,9.19921875 20.9326171875,9.0087890625 21.62109375,8.583984375 19.892578125,3.251953125 16.552734375,11.396484375 15.5859375,11.396484375 19.833984375,1.494140625 26.455078125,15.17578125 26.044921875,14.970703125 25.517578125,15.64453125 24.755859375,15.3515625 24.08203125,16.142578125 22.060546875,9.931640625 21.357421875,10.341796875 20.56640625,10.517578125 20.2587890625,10.4736328125 20.009765625,10.37109375 19.51171875,13.330078125 18.8671875,16.2890625 18.3984375,16.611328125 15.7470703125,16.8896484375 13.125,17.40234375 13.125,44.47265625 0,44.47265625 1.90429675579071,42.099609375 3.10546875,42.099609375 3.892822265625,41.6015625 5.0830078125,41.279296875 6.280517578125,40.86181640625 7.08984375,40.078125 6.943359375,36.181640625 6.591796875,32.28515625 6.123046875,28.4765625 5.654296875,24.169921875 4.37255811691284,23.92822265625 1.93359386920929,23.671875 1.69921886920929,23.61328125 1.46484386920929,23.203125 1.69921886920929,22.734375 2.40234327316284,23.203125 2.8125,23.203125 3.80859375,23.2470703125 4.365234375,23.291015625 5.0537109375,23.173828125 5.68359375,22.79296875 5.68359375,21.181640625 5.62500047683716,20.44921875 4.9365234375,18.134765625 4.365234375,16.552734375 4.90722608566284,15.322265625 6.591796875,14.736328125 6.005859375,13.76953125 5.62500047683716,13.76953125 4.7021484375,15.41015625 4.031982421875,16.0253925323486 3.51562452316284,16.23046875 3.310546875,16.142578125 3.544921875,15.703125 3.60351610183716,15.703125 3.779296875,15.76171875 4.82665967941284,14.6337909698486 5.21484375,13.359375 5.1708984375,12.9931640625 4.83398485183716,12.685546875 4.716796875,12.568359375 4.8046875,11.982421875 5.126953125,11.513671875 5.244140625,10.83984375 5.2734375,10.1953125 5.2734375,8.3203125 7.03125,4.658203125 8.818359375,0.99609375 9.609375,0.2783203125 10.751953125,0z" />
    </g>
  </g>
</svg>