<?xml version="1.0" encoding="utf-8"?>
<!DOCTYPE svg PUBLIC "-//W3C//DTD SVG 1.1//EN" "http://www.w3.org/Graphics/SVG/1.1/DTD/svg11.dtd">
<svg width="30.673828125" height="44.4140625" xmlns="http://www.w3.org/2000/svg" xmlns:xlink="http://www.w3.org/1999/xlink" xmlns:xml="http://www.w3.org/XML/1998/namespace" version="1.1">
  <g>
    <g>
      <path style="fill:#FF0000;fill-opacity:1" d="M19.833984375,14.1796875L18.7646484375,14.4287109375 18.15673828125,15.0256366729736 17.0654296875,16.318359375 16.021728515625,18.5229511260986 15.556640625,21.85546875 15.1171875,29.765625 14.6484375,30.3662109375 13.916015625,30.5859375 13.1652822494507,30.3515625 12.6123046875,29.6484375 11.54296875,27.509765625 10.72265625,25.927734375 9.2138671875,23.701171875 7.294921875,22.08984375 6.85546875,21.85546875 5.93261766433716,21.4453125 5.15624952316284,21.26953125 3.8671875,22.1923828125 3.33984375,23.818359375 3.5009765625,25.30517578125 3.984375,27.71484375 4.57763624191284,30.2783203125 5.068359375,32.2265625 5.5078125,35.5078125 5.21484422683716,38.5400390625 4.83032178878784,39.6533203125 4.2626953125,40.2685546875 2.47558546066284,41.4111328125 1.54907214641571,42.315673828125 1.02539050579071,43.4765625 26.89453125,43.4765625 26.3269023895264,42.1142578125 25.0927734375,40.8984375 23.8586406707764,39.99755859375 23.291015625,39.580078125 23.14453125,39.140625 24.2138671875,32.51953125 24.697265625,25.60546875 24.4921875,20.126953125 24.08203125,15.234375 23.3056640625,14.47265625 22.20703125,14.1796875 22.20703125,20.80078125 21.943359375,21.03515625 21.708984375,21.26953125 20.2734375,21.26953125 19.833984375,20.712890625 19.833984375,14.1796875z M15.322265625,5.830078125L16.0546875,6.15234375 15.205078125,6.73828125 15,6.328125 15.322265625,5.830078125z M21.2109375,5.009765625L20.826416015625,7.423095703125 19.9072265625,9.9755859375 18.929443359375,12.1911630630493 18.369140625,13.59375 19.1748046875,13.3154296875 20.2734375,13.2421875 20.5078125,13.4765625 20.771484375,13.7109375 20.771484375,20.33203125 21.26953125,20.33203125 21.26953125,13.798828125 21.708984375,13.2421875 23.642578125,13.59375 24.990234375,14.970703125 25.458984375,20.33203125 26.8359375,20.33203125 26.66015625,18.837890625 25.869140625,13.5791015625 24.2724609375,8.6572265625 22.9284648895264,6.566162109375 21.2109375,5.009765625z M17.2265625,3.837890625L14.677734375,5.006103515625 13.18359375,6.0498046875 11.3818359375,7.3828125 10.6237783432007,8.02734375 10.01953125,9.2578125 11.3818359375,9.84375 12.890625,9.9609375 15.087890625,9.9609375 17.109375,10.3125 17.841796875,10.7666015625 18.1640625,11.42578125 19.5703125,8.115234375 20.302734375,4.482421875 19.0869140625,4.0283203125 17.8125,3.837890625 17.2265625,3.837890625z M4.24804735183716,0L5.20751905441284,0.81298828125 5.9765625,1.083984375 6.6796875,0.7763671875 7.3974609375,0.545654296875 8.49609375,0.46875 10.37109375,0.8203125 11.396484375,0.966796875 11.982421875,1.0546875 13.1030263900757,0.908203125 14.6484375,0.46875 16.494140625,1.2451171875 17.607421875,2.138671875 19.2333984375,0.88623046875 20.771484375,0.46875 22.1484375,1.083984375 23.173828125,1.2890625 23.759765625,1.142578125 24.609375,0.87890625 25.5322265625,0.6005859375 26.455078125,0.46875 28.0517578125,0.7177734375 29.35546875,0.966796875 30.673828125,0.498046875 29.7839336395264,1.234130859375 28.8720703125,1.5673828125 26.455078125,1.69921875 24.55078125,2.0947265625 23.14453125,2.490234375 22.15576171875,2.29248046875 20.771484375,1.69921875 19.453125,2.0068359375 18.486328125,2.9296875 18.92578125,3.017578125 19.365234375,3.134765625 22.5476055145264,4.932861328125 24.8291015625,7.7490234375 26.3232402801514,11.2902841567993 27.1435546875,15.263671875 27.5573711395264,18.7060565948486 27.83203125,20.654296875 27.36328125,21.26953125 25.517578125,21.26953125 25.60546875,22.9248046875 25.634765625,24.580078125 25.1806640625,31.8310546875 24.111328125,39.0234375 24.7631816864014,39.521484375 26.1328125,40.546875 27.4291973114014,42.041015625 27.861328125,43.9453125 27.59765625,44.1796875 27.36328125,44.4140625 0.43945324420929,44.4140625 0,43.857421875 0.80566394329071,41.71875 2.490234375,40.1953125 3.8671875,39.375 4.40917921066284,37.5439453125 4.5703125,35.68359375 4.50256299972534,34.7882080078125 4.29931592941284,33.50830078125 3.96057105064392,31.8438720703125 3.486328125,29.794921875 3.0120849609375,27.747802734375 2.67333960533142,26.0888671875 2.47009253501892,24.818115234375 2.40234375,23.935546875 2.6220703125,22.796630859375 3.28125047683716,21.6064453125 4.21142578125,20.694580078125 5.24414110183716,20.390625 6.52587890625,20.67626953125 8.0859375,21.533203125 9.5654296875,22.686767578125 10.60546875,23.8623046875 11.0961904525757,24.6560668945313 11.7480459213257,25.850830078125 12.5610342025757,27.4465942382813 13.53515625,29.443359375 13.7109375,29.53125 13.88671875,29.6484375 14.12109375,29.619140625 14.619140625,21.767578125 14.8974609375,19.4091815948486 15.380859375,17.490234375 16.09130859375,15.9887714385986 17.05078125,14.8828125 17.2265625,13.740234375 17.34375,12.3046875 17.1533203125,11.396484375 16.376953125,11.0595703125 14.736328125,10.869140625 12.94921875,10.869140625 11.806640625,12.7734375 11.54296875,12.919921875 11.337890625,12.275390625 11.689453125,10.810546875 10.693359375,10.5615234375 9.2578125,9.90234375 9.111328125,9.638671875 8.96484375,9.375 9.4482421875,8.13720703125 9.9609375,7.353515625 11.044921875,6.50390625 12.0703125,5.7275390625 12.7368154525757,5.1708984375 13.798828125,4.4677734375 16.728515625,3.017578125 14.6484375,1.69921875 11.982421875,2.255859375 11.2939453125,2.1826171875 10.576171875,1.9921875 9.66796875,1.7578125 8.49609375,1.5234375 7.939453125,1.552734375 6.650390625,1.69921875 6.21093797683716,1.728515625 5.23681640625,1.29638671875 4.24804735183716,0z" />
    </g>
  </g>
</svg>