<?xml version="1.0" encoding="utf-8"?>
<!DOCTYPE svg PUBLIC "-//W3C//DTD SVG 1.1//EN" "http://www.w3.org/Graphics/SVG/1.1/DTD/svg11.dtd">
<svg width="31.11328125" height="44.443359375" xmlns="http://www.w3.org/2000/svg" xmlns:xlink="http://www.w3.org/1999/xlink" xmlns:xml="http://www.w3.org/XML/1998/namespace" version="1.1">
  <g>
    <g>
      <path style="fill:#FF0000;fill-opacity:1" d="M17.900390625,32.138671875L18.45703125,35.5810546875 19.130859375,39.0234375 19.27734375,39.78515625 19.365234375,40.693359375 19.127197265625,41.517333984375 18.4130859375,42.1728515625 16.46484375,43.154296875 15.46875,43.564453125 16.11328125,43.388671875 17.6953125,43.037109375 18.28125,42.978515625 19.0283203125,43.0810546875 19.74609375,43.4765625 20.009765625,43.447265625 20.15625,43.30078125 20.302734375,42.978515625 20.185546875,42.5830078125 19.775390625,42.12890625 19.658203125,40.7666015625 19.62890625,39.404296875 19.658203125,37.939453125 19.6875,35.537109375 19.62890625,33.8232421875 19.39453125,32.138671875 17.900390625,32.138671875z M13.4765625,32.138671875L13.154296875,33.8232421875 13.095703125,35.537109375 13.095703125,37.1484375 12.919921875,39.55078125 12.01171875,41.953125 11.30859375,42.3046875 10.224609375,42.744140625 9.08203125,43.18359375 8.203125,43.53515625 10.3125,43.06640625 10.78125,43.0078125 11.3525390625,43.2861328125 12.01171875,43.4765625 12.48046875,43.2568359375 12.626953125,42.421875 12.6947011947632,42.0794677734375 12.8979482650757,41.28662109375 13.2366933822632,40.0433349609375 13.7109375,38.349609375 14.5751953125,34.8779296875 15,32.138671875 13.4765625,32.138671875z M18.603515625,21.767578125L17.0068359375,21.943359375 15,22.177734375 13.681640625,31.201171875 19.3359375,31.201171875 19.541015625,29.208984375 19.62890625,26.8359375 19.4091796875,23.9794921875 18.603515625,21.767578125z M14.970703125,6.26953125L15.52734375,6.62109375 14.794921875,6.97265625 14.619140625,6.767578125 14.70703125,6.4599609375 14.970703125,6.26953125z M17.34375,3.75L15.9375,4.0283203125 14.853515625,4.833984375 16.318359375,5.4052734375 17.05078125,6.5625 17.7392578125,6.8115234375 18.017578125,7.412109375 17.724609375,8.2177734375 17.080078125,8.73046875 17.724609375,9.7265625 18.310546875,10.224609375 19.62890625,8.1884765625 20.126953125,6.240234375 19.921875,5.196533203125 19.306640625,4.4091796875 17.34375,3.75z M27.919921875,3.017578125L27.861328125,3.046875 27.890625,3.544921875 28.30078125,3.779296875 28.30078125,4.951171875 27.94921875,4.74609375 28.388671875,5.390625 28.59375,5.947265625 28.53515625,6.50390625 28.41796875,7.236328125 28.125,8.37890625 27.4658203125,10.7080078125 26.7370586395264,11.7297372817993 25.224609375,12.0703125 23.8623046875,11.9970703125 22.587890625,11.923828125 21.73828125,11.982421875 20.9765625,12.216796875 20.537109375,12.275390625 18.1787109375,11.2060546875 17.127685546875,10.433349609375 16.0546875,8.73046875 16.2890625,8.056640625 16.787109375,7.8515625 17.080078125,7.55859375 16.904296875,7.44140625 16.728515625,7.470703125 16.58203125,7.55859375 16.318359375,7.20703125 16.0546875,6.884765625 16.083984375,6.5625 15.64453125,6.0791015625 14.53125,5.712890625 14.1357421875,6.7236328125 13.681640625,7.6171875 13.88671875,7.705078125 14.12109375,8.0859375 14.12109375,9.2578125 15.1611328125,9.5361328125 15.787353515625,9.979248046875 15.99609375,10.869140625 15.8203125,11.07421875 15.64453125,11.337890625 14.0661611557007,11.9421396255493 12.7294921875,13.1103515625 11.5576162338257,14.8022480010986 10.4736328125,16.9775390625 9.67529296875,18.8378925323486 9.3603515625,19.5849609375 8.86962890625,19.9145526885986 7.5439453125,20.5224609375 3.60351538658142,22.646484375 2.98828053474426,22.55859375 2.29980421066284,22.6611328125 1.61132788658142,23.02734375 2.34374976158142,22.880859375 2.84179663658142,23.056640625 2.4609375,23.4375 1.7578125,23.61328125 1.259765625,23.525390625 1.23046875,23.84765625 1.87499976158142,23.994140625 2.78320288658142,23.6865234375 3.51562476158142,23.056640625 3.72070240974426,22.763671875 5.068359375,22.1484375 8.291015625,20.56640625 9.638671875,19.921875 10.6603994369507,18.7133808135986 11.7333984375,16.904296875 12.7990713119507,15.0805683135986 13.798828125,13.828125 14.58984375,14.1796875 14.912109375,16.8017578125 15.234375,19.423828125 15.205078125,20.3173828125 15.1171875,21.2109375 18.369140625,20.859375 18.486328125,18.57421875 18.9111328125,16.3037109375 19.9365234375,14.2822265625 21.85546875,13.1689453125 24.169921875,12.94921875 26.484375,12.5537109375 27.4438457489014,11.9714365005493 27.919921875,11.015625 28.388671875,8.759765625 28.564453125,7.880859375 28.76953125,6.4453125 28.681640625,4.21875 28.447265625,3.544921875 27.919921875,3.017578125z M21.6796875,0L26.865234375,2.98828125 27.48046875,2.40234375 28.740234375,2.9736328125 29.47265625,4.599609375 31.11328125,5.5078125 30.703125,6.240234375 29.501953125,5.595703125 29.560546875,6.064453125 29.560546875,6.533203125 29.326171875,8.14453125 29.0625,9.66796875 28.916015625,10.78125 28.88671875,10.78125 27.802734375,12.919921875 26.5686016082764,13.5131855010986 24.6826171875,13.76953125 22.77099609375,13.9453144073486 21.4599609375,14.296875 20.55908203125,15.0549335479736 19.8779296875,16.4501953125 19.449462890625,18.4753437042236 19.306640625,21.123046875 20.302734375,23.8037109375 20.56640625,26.953125 20.518798828125,28.90869140625 20.3759765625,30.380859375 20.390625,32.4169921875 20.54443359375,33.475341796875 20.595703125,35.0390625 20.595703125,36.97265625 20.537109375,39.228515625 20.56640625,40.517578125 20.68359375,41.806640625 21.0498046875,42.36328125 21.181640625,43.0078125 20.859375,43.9599609375 19.892578125,44.4140625 19.189453125,44.1796875 18.544921875,43.9453125 18.28125,43.9453125 15.380859375,44.4140625 14.58984375,44.1943359375 14.267578125,43.623046875 14.4140625,43.18359375 14.82421875,42.9638671875 15.29296875,42.7734375 16.93359375,42.041015625 18.369140625,40.95703125 18.1640625,38.7451171875 17.724609375,36.533203125 17.2265625,34.3359375 16.962890625,32.138671875 15.9375,32.138671875 14.58984375,38.3935546875 13.8207998275757,41.231689453125 13.564453125,42.744140625 13.1689453125,43.9306640625 12.01171875,44.443359375 11.279296875,44.3115234375 10.634765625,43.9453125 9.0380859375,44.1796875 7.470703125,44.4140625 6.7236328125,44.2529296875 6.357421875,43.65234375 6.50390625,43.212890625 7.734375,42.7734375 8.994140625,42.392578125 10.2099609375,41.923828125 11.3671875,41.25 12.0263671875,39.4189453125 12.1875,37.470703125 12.1875,35.126953125 12.36328125,32.7099609375 12.5134267807007,32.069091796875 12.6123046875,31.81640625 12.6901235580444,31.475830078125 12.8503408432007,30.5126953125 13.0929555892944,28.927001953125 13.41796875,26.71875 14.091796875,21.884765625 12.5390625,21.884765625 12.5390625,20.185546875 14.150390625,21.26953125 14.267578125,20.419921875 14.296875,19.5703125 14.0771484375,17.431640625 13.740234375,15.3515625 12.890625,16.669921875 12.12890625,18.046875 10.8544921875,20.0390625 9.66796875,21.005859375 8.7890625,21.38671875 4.21874904632568,23.4375 3.16406226158142,24.43359375 1.7578125,24.84375 0.875243902206421,24.68994140625 0.395507574081421,24.228515625 0,23.37890625 0.673827886581421,22.763671875 0.791015148162842,22.822265625 0.878906011581421,22.880859375 1.58203077316284,22.119140625 2.81249976158142,21.884765625 3.25195240974426,21.9140625 3.51562476158142,21.9140625 5.80078125,20.44921875 8.5546875,19.04296875 8.73046875,18.662109375 8.876953125,18.28125 10.396728515625,14.9707050323486 11.8505859375,12.71484375 13.3483877182007,11.30126953125 15,10.517578125 14.7509765625,10.2978515625 14.35546875,10.1953125 13.9453125,10.13671875 13.330078125,9.8291015625 13.125,8.90625 13.125,8.49609375 12.685546875,7.939453125 13.1689453125,6.62109375 13.65234375,5.302734375 13.7109375,4.98046875 15.1611328125,3.369140625 17.28515625,2.841796875 18.731689453125,3.076171875 19.9658203125,3.779296875 20.811767578125,4.8486328125 21.09375,6.181640625 20.5810546875,8.349609375 19.21875,10.60546875 19.86328125,10.8837890625 20.712890625,11.30859375 22.8515625,10.927734375 23.408203125,10.95703125 24.931640625,11.162109375 25.37109375,11.220703125 26.1987285614014,10.989990234375 26.630859375,10.2978515625 27.333984375,7.96875 27.626953125,6.97265625 27.83203125,6.005859375 27.3779296875,5.33203125 26.923828125,4.658203125 27.24609375,4.365234375 21.2109375,0.87890625 21.6796875,0z" />
    </g>
  </g>
</svg>