<?xml version="1.0" encoding="utf-8"?>
<!DOCTYPE svg PUBLIC "-//W3C//DTD SVG 1.1//EN" "http://www.w3.org/Graphics/SVG/1.1/DTD/svg11.dtd">
<svg width="36.5625000000001" height="44.912109375" xmlns="http://www.w3.org/2000/svg" xmlns:xlink="http://www.w3.org/1999/xlink" xmlns:xml="http://www.w3.org/XML/1998/namespace" version="1.1">
  <g>
    <g>
      <path style="fill:#FF0000;fill-opacity:1" d="M20.009765625,36.884765625L18.80859375,37.705078125 17.48291015625,38.1884765625 15.146484375,38.759765625 13.974609375,39.0234375 9.521484375,40.400390625 5.9912109375,42.1435546875 4.80102491378784,42.813720703125 4.013671875,43.037109375 3.369140625,42.821044921875 2.724609375,42.1728515625 1.90429699420929,40.458984375 1.21582043170929,41.4990234375 0.90820300579071,42.94921875 1.56738293170929,43.8720703125 2.783203125,44.00390625 6.7822265625,43.271484375 9.744873046875,42.16552734375 13.916015625,40.3125 16.7578125,39.0234375 19.658203125,37.8515625 20.09765625,37.91015625 20.595703125,38.84765625 20.68359375,39.990234375 20.7421875,40.8544921875 20.80078125,41.982421875 20.6982421875,43.1103515625 20.33203125,43.974609375 20.8154296875,43.564453125 21.123046875,42.59765625 21.005859375,41.953125 20.9765625,41.30859375 21.181640625,39.697265625 21.73828125,38.173828125 21.4892578125,37.1923828125 20.994873046875,36.961669921875 20.009765625,36.884765625z M20.390625,29.912109375L19.4558715820313,30.1162719726563 18.145751953125,30.494384765625 16.4602661132813,31.0464477539063 14.3994140625,31.7724609375 9.847412109375,34.017333984375 5.185546875,37.5 2.724609375,39.66796875 3.134765625,41.0888671875 4.16015672683716,42.0703125 5.8447265625,41.0888671875 7.353515625,40.3125 8.583984375,39.697265625 9.85107421875,39.20654296875 11.66015625,38.671875 15.087890625,37.8515625 16.259765625,37.6171875 17.87109375,37.119140625 18.984375,36.50390625 19.248046875,36.298828125 20.2587890625,35.0537109375 20.859375,32.8125 20.712890625,31.4208984375 20.390625,29.912109375z M31.201171875,23.73046875L30.99609375,24.375 30.8203125,25.048828125 30.9375,26.7919921875 30.966796875,28.53515625 30.8935546875,31.40625 30.732421875,34.248046875 30.673828125,35.068359375 30.46875,35.44921875 29.9926738739014,36.016845703125 29.501953125,37.0166015625 29.00390625,39.0234375 29.033203125,39.375 29.560546875,37.646484375 29.853515625,36.826171875 30.29296875,36.181640625 30.76171875,36.09375 30.908203125,36.298828125 31.025390625,34.86328125 30.99609375,34.3359375 31.435546875,30.4833984375 31.875,26.806640625 31.875,26.30859375 31.8017578125,25.6201171875 31.669921875,24.814453125 31.435546875,23.84765625 31.201171875,23.73046875z M34.013671875,19.27734375L33.4716796875,19.5080585479736 33.017578125,20.2001953125 32.314453125,22.060546875 31.93359375,23.203125 33.9404296875,21.73828125 34.676513671875,20.88134765625 34.921875,20.126953125 34.6435546875,19.51171875 34.013671875,19.27734375z M9.9609375,6.123046875L10.283203125,6.240234375 10.869140625,6.650390625 9.873046875,7.1484375 9.609375,6.767578125 9.609375,6.650390625 9.9609375,6.123046875z M14.82421875,5.0390625L14.150390625,5.4345703125 13.59375,6.005859375 13.271484375,5.9765625 12.802734375,5.947265625 11.9384765625,5.2880859375 10.83984375,5.15625 10.048828125,5.2001953125 9.31640625,5.244140625 8.73046875,6.5185546875 8.115234375,7.763671875 8.6279296875,8.4521484375 8.818359375,9.31640625 8.7890625,9.873046875 9.0673828125,10.3857421875 9.84375,10.48828125 10.341796875,10.517578125 10.810546875,10.517578125 12.3486328125,11.1328125 12.7734375,12.59765625 12.685546875,13.30078125 12.48046875,14.35546875 12.275390625,15.4833984375 12.1875,16.376953125 12.685546875,20.2880859375 13.212890625,24.31640625 13.095703125,25.2685546875 12.978515625,26.572265625 13.1396484375,28.857421875 13.53515625,31.083984375 16.7138671875,29.970703125 20.21484375,28.974609375 19.599609375,25.5029296875 19.3359375,21.97265625 19.3359375,21.474609375 19.559326171875,20.2331562042236 20.2294921875,18.6181640625 20.943603515625,17.1606464385986 21.298828125,16.3916015625 21.884765625,15.966796875 22.9833984375,16.435546875 24.66796875,17.87109375 26.044921875,19.5703125 27.568359375,21.73828125 29.1796875,23.84765625 29.23828125,24.287109375 28.53515625,26.806640625 27.94921875,29.033203125 27.3413066864014,31.50146484375 27.099609375,32.9296875 26.89453125,34.189453125 25.576171875,37.03125 25.2685546875,37.822265625 25.107421875,38.671875 25.166015625,39.111328125 25.546875,38.3203125 25.78125,37.470703125 26.07421875,36.6357421875 26.630859375,35.9765625 27.099609375,36.2109375 27.099609375,35.830078125 26.982421875,35.478515625 28.6376953125,29.2822265625 30.380859375,23.115234375 26.5283203125,17.6513671875 22.8515625,12.685546875 21.6357421875,12.36328125 20.33203125,12.275390625 18.1640625,12.275390625 17.6953125,12.24609375 16.904296875,12.158203125 15.5126953125,11.4404296875 15.05859375,10.107421875 15.029296875,8.525390625 15.0732421875,7.7490234375 15.205078125,7.1484375 15.41015625,6.767578125 15.5712890625,6.357421875 15.64453125,5.859375 15.615234375,5.68359375 15.3515625,5.244140625 14.82421875,5.0390625z M21.62109375,1.201171875L20.654296875,1.69921875 19.51171875,3.193359375 19.599609375,3.310546875 21.38671875,2.314453125 22.001953125,1.8310546875 22.20703125,1.552734375 21.9873046875,1.2744140625 21.62109375,1.201171875z M12.94921875,0.908203125L11.4514150619507,1.094970703125 10.4150390625,1.6552734375 9.766845703125,2.691650390625 9.43359375,4.306640625 10.13671875,4.248046875 10.83984375,4.248046875 12.24609375,4.4091796875 13.212890625,5.009765625 13.9306640625,4.39453125 14.82421875,4.130859375 16.0693359375,4.6435546875 16.552734375,5.91796875 16.259765625,7.2509765625 16.0400390625,7.987060546875 15.966796875,9.228515625 16.0546875,10.48828125 16.318359375,11.044921875 16.435546875,11.103515625 16.58203125,11.1328125 18.10546875,11.279296875 19.775390625,11.337890625 19.74609375,9.638671875 19.6142578125,6.73828125 19.1015625,4.51171875 18.80859375,3.837890625 17.772216796875,2.427978515625 16.2451171875,1.5380859375 12.94921875,0.908203125z M13.18359375,0L16.6552734375,0.5712890625 19.072265625,2.4609375 20.2294921875,1.0546875 21.796875,0.52734375 22.67578125,0.8349609375 23.115234375,1.669921875 22.9138164520264,2.127685546875 22.3095703125,2.6806640625 20.5078125,3.603515625 22.55859375,7.177734375 21.62109375,7.177734375 19.892578125,3.984375 20.39794921875,5.848388671875 20.625,8.1591796875 20.6982421875,10.228271484375 20.7421875,11.3671875 22.2949199676514,11.517333984375 23.26171875,11.8505859375 24.0161113739014,12.5500497817993 24.931640625,13.798828125 25.341796875,14.443359375 28.271484375,18.45703125 31.083984375,22.5 31.461181640625,21.536865234375 32.0654296875,19.9951171875 32.867431640625,18.6218280792236 33.837890625,18.1640625 35.2587890625,18.8671875 35.859375,20.09765625 35.859375,20.2734375 35.2294921875,21.7236328125 33.779296875,23.056640625 34.75341796875,23.759765625 35.56640625,25.048828125 36.181640625,26.87255859375 36.5625,29.1796875 35.625,29.1796875 35.44921875,27.7734375 34.833984375,25.5615234375 33.544921875,23.876953125 34.072265625,24.66796875 34.189453125,25.517578125 34.189453125,29.208984375 33.251953125,29.208984375 33.251953125,25.693359375 33.076171875,24.755859375 32.578125,24.31640625 32.75390625,25.6201171875 32.783203125,26.806640625 32.666015625,28.7548828125 32.40234375,30.732421875 32.080078125,32.6953125 31.9189453125,34.1162109375 31.845703125,35.56640625 31.58203125,37.529296875 31.23779296875,38.14453125 30.732421875,38.349609375 30.439453125,38.232421875 30.29296875,38.056640625 29.94140625,39.5947265625 29.5971660614014,40.352783203125 29.033203125,40.60546875 28.3740234375,40.13671875 28.06640625,39.228515625 28.5791015625,36.7529296875 29.1320781707764,35.533447265625 29.765625,34.833984375 29.94140625,31.7578125 30.029296875,28.681640625 30.029296875,27.71484375 28.916015625,31.6845703125 27.978515625,35.361328125 28.06640625,36.09375 28.095703125,36.708984375 28.0078125,37.5146484375 27.65625,38.173828125 27.24609375,38.349609375 26.9970703125,38.349609375 26.748046875,38.26171875 26.630859375,38.0859375 26.0888671875,39.404296875 25.13671875,40.1953125 24.697265625,40.078125 24.19921875,38.671875 24.8583984375,36.1376953125 26.015625,33.896484375 27.01171875,29.0185546875 28.30078125,24.228515625 27.4584941864014,23.0859375 25.810546875,20.712890625 23.8549785614014,18.2812519073486 22.08984375,16.962890625 21.2109375,18.955078125 20.302734375,20.91796875 20.48583984375,24.82177734375 21.03515625,28.154296875 21.58447265625,30.78369140625 21.767578125,32.578125 21.5478515625,34.27734375 20.771484375,35.9765625 22.2216796875,36.6650390625 22.67578125,38.232421875 22.294921875,39.404296875 21.9140625,41.30859375 21.9873046875,42.0703125 22.060546875,42.568359375 21.5625,44.1650390625 20.2734375,44.8828125 18.3984375,44.8828125 17.958984375,44.326171875 18.22265625,43.4326171875 18.80859375,43.212890625 19.189453125,43.2421875 19.541015625,43.330078125 19.74609375,43.154296875 19.833984375,42.94921875 19.8046875,40.8984375 19.599609375,38.876953125 18.3599853515625,39.375 16.66259765625,40.107421875 14.5074462890625,41.07421875 11.89453125,42.275390625 6.796875,44.2529296875 2.87109375,44.912109375 1.41357409954071,44.78759765625 0.55664050579071,44.4140625 0,43.0078125 0.65551745891571,40.693359375 2.6220703125,38.4375 7.55859375,34.423828125 12.65625,31.435546875 12.1875,29.0478515625 11.982421875,26.572265625 12.0556640625,25.283203125 12.275390625,24.111328125 11.953125,21.50390625 11.6015625,18.92578125 11.3818359375,17.4609375 11.25,15.8203125 11.572265625,14.2822265625 11.8359375,12.685546875 11.748046875,11.9677734375 11.25,11.54296875 10.751953125,11.455078125 10.25390625,11.396484375 9.873046875,11.3671875 9.404296875,12.333984375 8.90625,13.271484375 7.939453125,13.271484375 8.173828125,12.83203125 8.935546875,11.25 8.0712890625,10.6640625 7.8662109375,9.4189453125 7.529296875,8.525390625 7.08984375,7.96875 7.412109375,7.08984375 8.203125,5.5078125 8.6279296875,3.3544921875 8.961181640625,2.0654296875 9.814453125,0.981445789337158 11.2133779525757,0.245361387729645 13.18359375,0z" />
    </g>
  </g>
</svg>