<?xml version="1.0" encoding="utf-8"?>
<!DOCTYPE svg PUBLIC "-//W3C//DTD SVG 1.1//EN" "http://www.w3.org/Graphics/SVG/1.1/DTD/svg11.dtd">
<svg width="22.20703125" height="44.4140625" xmlns="http://www.w3.org/2000/svg" xmlns:xlink="http://www.w3.org/1999/xlink" xmlns:xml="http://www.w3.org/XML/1998/namespace" version="1.1">
  <g>
    <g>
      <path style="fill:#FF0000;fill-opacity:1" d="M9.90234375,16.376953125L10.869140625,17.021484375 10.107421875,17.138671875 9.609375,16.845703125 9.66796875,16.552734375 9.90234375,16.376953125z M9.90234375,15.615234375L9.375,16.7138671875 8.671875,17.724609375 9.0966796875,18.046875 9.287109375,18.57421875 9.1552734375,18.896484375 9.0234375,19.130859375 9.169921875,19.423828125 10.7299795150757,19.6728534698486 11.8359375,20.419921875 12.4951162338257,21.61376953125 12.71484375,23.203125 12.5830078125,24.111328125 12.24609375,25.634765625 11.748046875,27.5390625 11.3305654525757,29.14306640625 10.78125,31.142578125 9.66796875,35.009765625 8.90625,35.21484375 7.353515625,33.427734375 6.00585889816284,31.8603515625 4.833984375,30.41015625 4.453125,29.8828125 3.66210985183716,29.1357421875 2.841796875,28.828125 2.05078101158142,29.1796875 1.845703125,30.029296875 2.16796851158142,31.845703125 2.841796875,34.482421875 3.5009765625,37.265625 3.80859375,39.580078125 3.5302734375,40.645751953125 2.69531297683716,41.6748046875 1.05468726158142,43.4765625 15.380859375,43.4765625 15.0732421875,42.9052734375 15,42.216796875 15.05859375,41.572265625 15.8203125,35.859375 16.494140625,30.703125 14.150390625,30.703125 13.7109375,30.322265625 13.5498046875,26.279296875 13.447265625,21.62109375 13.5058584213257,19.6289081573486 13.681640625,18.3984375 13.916015625,17.40234375 13.88671875,16.8603515625 13.798828125,16.552734375 13.681640625,16.69921875 13.623046875,16.845703125 13.41796875,16.904296875 13.2275390625,16.93359375 13.06640625,16.9921875 11.5283203125,16.142578125 9.90234375,15.615234375z M13.330078125,13.0078125L11.4111328125,13.447265625 10.1953125,14.736328125 11.7041015625,15.2197265625 13.125,15.966796875 13.857421875,15.556640625 14.619140625,16.11328125 14.912109375,17.255859375 14.8388671875,17.7685546875 14.619140625,18.193359375 14.3994140625,20.2587890625 14.326171875,22.529296875 14.443359375,26.30859375 14.619140625,29.765625 17.98828125,29.765625 17.98828125,26.54296875 17.874755859375,22.4267578125 17.5341796875,19.39453125 17.003173828125,17.1203632354736 16.318359375,15.2783203125 15.56396484375,13.9782733917236 14.82421875,13.330078125 13.330078125,13.0078125z M10.60546875,11.337890625L10.83984375,11.923828125 11.07421875,12.48046875 12.0849609375,12.1435546875 13.212890625,12.041015625 14.3408203125,12.1728515625 15.3515625,12.48046875 15.849609375,11.337890625 10.60546875,11.337890625z M13.212890625,2.841796875L11.8872060775757,3.057861328125 10.78125,3.7060546875 10.0341796875,4.713134765625 9.78515625,6.005859375 10.030517578125,7.423095703125 10.7666015625,8.4521484375 11.8908681869507,9.078369140625 13.30078125,9.287109375 14.59716796875,9.063720703125 15.673828125,8.3935546875 16.39892578125,7.357177734375 16.640625,6.03515625 16.39892578125,4.66552734375 15.673828125,3.662109375 14.5751953125,3.046875 13.212890625,2.841796875z M4.716796875,0L6.45263671875,0.556640625 7.79296875,1.34765625 8.75244140625,2.4462890625 9.345703125,3.92578125 10.9130859375,2.4609375 13.212890625,1.904296875 15.6591796875,2.490234375 17.109375,4.013671875 17.76123046875,2.42431640625 18.720703125,1.34765625 20.14892578125,0.6005859375 22.20703125,0 20.416259765625,1.322021484375 19.2041015625,2.4169921875 18.328857421875,3.665771484375 17.548828125,5.44921875 17.578125,5.771484375 17.578125,6.09375 16.8310546875,8.4228515625 15.1171875,9.9609375 15.1171875,10.400390625 16.494140625,10.400390625 16.962890625,11.015625 16.11328125,13.154296875 17.39501953125,15.3039569854736 18.251953125,18.0615234375 18.533935546875,19.9703979492188 18.7353515625,22.635498046875 18.856201171875,26.0568237304688 18.896484375,30.234375 18.6328125,30.46875 18.3984375,30.703125 17.431640625,30.703125 16.142578125,40.3125 15.908203125,42.216796875 16.025390625,42.7734375 17.40234375,43.65234375 17.197265625,44.033203125 16.9921875,44.4140625 0.439453125,44.4140625 0.146484136581421,44.296875 0,43.76953125 0.395507574081421,42.7587890625 1.28906273841858,41.748046875 2.25585961341858,40.83984375 2.841796875,40.01953125 2.603759765625,37.532958984375 1.88964819908142,34.5263671875 1.175537109375,31.710205078125 0.9375,29.794921875 1.56738305091858,28.388671875 2.8125,27.919921875 4.12353515625,28.319091796875 5.361328125,29.5166015625 6.89208984375,31.439208984375 9.08203125,34.013671875 9.931640625,30.966796875 10.83984375,27.65625 11.513671875,25.01953125 11.7553701400757,23.96484375 11.8359375,23.4375 11.6674795150757,22.027587890625 11.162109375,21.0791015625 9.31640625,20.361328125 8.4375,20.07568359375 8.14453125,19.21875 8.232421875,18.544921875 8.056640625,18.486328125 7.8515625,18.3984375 7.6171875,17.724609375 8.4375,16.435546875 8.994140625,15.380859375 9.140625,14.6337890625 9.580078125,14.00390625 10.3125,13.125 9.521484375,11.103515625 9.697265625,10.751953125 9.90234375,10.400390625 11.337890625,10.400390625 11.337890625,10.01953125 9.5068359375,8.3349609375 8.84765625,5.9765625 8.84765625,5.361328125 8.023681640625,3.475341796875 7.1923828125,2.1533203125 6.156005859375,1.094970703125 4.716796875,0z" />
    </g>
  </g>
</svg>