<?xml version="1.0" encoding="utf-8"?>
<!DOCTYPE svg PUBLIC "-//W3C//DTD SVG 1.1//EN" "http://www.w3.org/Graphics/SVG/1.1/DTD/svg11.dtd">
<svg width="35.712890625" height="45.029296875" xmlns="http://www.w3.org/2000/svg" xmlns:xlink="http://www.w3.org/1999/xlink" xmlns:xml="http://www.w3.org/XML/1998/namespace" version="1.1">
  <g>
    <g>
      <path style="fill:#FF0000;fill-opacity:1" d="M10.576171875,20.21484375L10.78125,20.33203125 10.927734375,20.390625 11.30859375,20.888671875 11.1328125,21.767578125 11.2646484375,22.6318359375 11.54296875,23.466796875 12.3486328125,22.67578125 13.505859375,22.353515625 12.5244140625,21.1962890625 11.220703125,20.21484375 10.576171875,20.21484375z M31.669921875,16.259765625L31.640625,16.728515625 31.640625,17.197265625 31.7431640625,19.5263671875 31.904296875,21.826171875 33.6328125,21.826171875 31.669921875,16.259765625z M28.447265625,14.296875L26.5576171875,16.201171875 25.5834941864014,17.2229022979736 24.7412109375,19.1162109375 23.84765625,24.111328125 23.701171875,27.890625 23.583984375,29.267578125 23.02734375,31.46484375 21.62109375,32.724609375 21.2109375,32.63671875 20.390625,31.8896484375 19.63623046875,30.882568359375 18.603515625,29.23828125 17.28515625,27.01171875 16.153564453125,25.228271484375 15.2197265625,24.0966796875 14.432373046875,23.492431640625 13.740234375,23.291015625 12.8137197494507,23.529052734375 12.1435546875,24.2431640625 11.7370595932007,25.411376953125 11.6015625,27.01171875 11.9531240463257,29.915771484375 13.0078125,33.6474609375 14.0624990463257,37.298583984375 14.4140625,39.9609375 14.2236328125,40.7080078125 13.8207998275757,41.121826171875 12.9931640625,42.099609375 12.2131338119507,43.16162109375 11.953125,43.828125 12.12890625,44.0478515625 12.451171875,44.091796875 34.833984375,44.091796875 34.346923828125,43.0517578125 32.8857421875,41.982421875 31.424560546875,40.70068359375 30.9375,39.0234375 31.142578125,34.8193359375 31.34765625,30.380859375 31.26708984375,26.7919921875 31.025390625,22.822265625 30.78369140625,19.3359394073486 30.703125,17.197265625 30.703125,16.7578125 30.732421875,16.083984375 30.791015625,15.322265625 30.87890625,14.6484375 28.447265625,14.296875z M6.00586032867432,11.89453125L1.75781297683716,24.140625 2.24121141433716,24.375 2.54882836341858,24.755859375 2.81249976158142,24.66796875 3.13476586341858,24.638671875 3.51562523841858,24.638671875 6.00586032867432,11.89453125z M23.759765625,6.591796875L24.84375,7.119140625 23.759765625,7.646484375 23.37890625,7.119140625 23.759765625,6.591796875z M28.53515625,5.244140625L28.3154296875,5.361328125 28.095703125,5.859375 27.83203125,6.064453125 27.626953125,6.181640625 22.91015625,5.771484375 22.412109375,7.265625 21.826171875,8.701171875 22.2802734375,9.2138671875 22.470703125,9.931640625 22.6171875,10.72265625 22.8515625,11.42578125 24.140625,11.484375 25.1770000457764,12.15087890625 25.8251953125,13.037109375 26.279296875,15.263671875 26.806640625,14.7802734375 27.65625,13.7109375 27.509765625,12.978515625 27.392578125,11.572265625 27.421875,10.60546875 27.5537109375,8.5546875 27.890625,7.177734375 28.564453125,6.5771484375 28.828125,5.80078125 28.7841796875,5.419921875 28.53515625,5.244140625z M28.330078125,0.9375L26.4587383270264,1.22314453125 24.8291015625,2.080078125 23.6535625457764,3.34716796875 23.14453125,4.86328125 27.36328125,5.21484375 27.94921875,4.5263671875 28.7841796875,4.3359375 29.5751953125,4.775390625 29.794921875,5.654296875 29.47265625,6.97265625 28.564453125,7.880859375 28.53515625,8.14453125 28.447265625,8.90625 28.359375,9.9609375 28.30078125,11.162109375 28.3740234375,12.392578125 28.59375,13.388671875 31.34765625,13.76953125 32.6220703125,12.8906269073486 33.57421875,11.54296875 34.16748046875,9.79248046875 34.365234375,7.705078125 33.929443359375,4.918212890625 32.6220703125,2.7685546875 30.677490234375,1.395263671875 28.330078125,0.9375z M28.388671875,0L31.16455078125,0.556640625 33.3984375,2.2265625 34.87060546875,4.76806640625 35.361328125,7.939453125 35.1416015625,10.0048828125 34.482421875,11.865234375 33.42041015625,13.3959980010986 31.9921875,14.47265625 34.74609375,22.1484375 34.27734375,22.763671875 31.93359375,22.763671875 32.16796875,26.630859375 32.28515625,30.52734375 32.080078125,34.9951171875 31.875,38.935546875 32.354736328125,40.3564453125 33.7939453125,41.513671875 35.233154296875,42.7880859375 35.712890625,44.560546875 35.44921875,44.794921875 35.21484375,45.029296875 12.451171875,45.029296875 11.4697265625,44.736328125 11.044921875,43.857421875 11.3159170150757,42.835693359375 12.12890625,41.7041015625 13.0004873275757,40.718994140625 13.447265625,40.13671875 13.0993642807007,37.28759765625 12.0556640625,33.603515625 11.0119619369507,29.90478515625 10.6640625,27.01171875 10.986328125,24.609375 10.4296875,23.1005859375 10.1953125,21.826171875 10.283203125,21.09375 9.755859375,20.6689453125 9.55078125,20.09765625 9.873046875,19.482421875 10.107421875,19.365234375 10.3125,19.27734375 7.646484375,7.44140625 4.248046875,26.8359375 3.9990234375,26.02294921875 3.25195336341858,25.751953125 2.37304735183716,25.8984375 1.91894543170929,25.30517578125 1.37695360183716,25.107421875 0.739746272563934,25.30517578125 0,25.8984375 7.55859375,5.09765625 8.0859375,5.09765625 8.232421875,5.859375 8.7890625,5.302734375 9.755859375,5.09765625 10.7958984375,5.654296875 11.162109375,6.97265625 10.5908203125,6.8994140625 10.400390625,6.6796875 10.2392578125,6.1962890625 9.638671875,5.888671875 8.8037109375,6.240234375 8.49609375,6.97265625 11.19140625,19.27734375 11.30859375,19.27734375 11.6015625,19.365234375 12.48046875,19.951171875 13.1103506088257,20.5297870635986 14.00390625,21.5625 14.8095703125,22.529296875 15.17578125,22.91015625 15.5859375,23.203125 15.99609375,23.61328125 17.274169921875,25.352783203125 18.7646484375,27.8759765625 20.262451171875,30.296630859375 21.5625,31.728515625 22.412109375,30.41015625 22.734375,28.359375 22.79296875,27.3046875 22.8103618621826,26.9613647460938 22.8625469207764,26.077880859375 22.9495220184326,24.6542358398438 23.0712890625,22.6904296875 23.7707500457764,18.7756366729736 25.3125,15.966796875 25.2026348114014,14.3042011260986 24.873046875,13.30078125 23.642578125,12.392578125 22.44140625,15.17578125 20.80078125,15.17578125 22.3828125,12.333984375 21.97265625,11.748046875 21.796875,10.927734375 21.650390625,10.107421875 21.357421875,9.521484375 21.2109375,9.462890625 21.005859375,9.2578125 20.712890625,8.90625 21.2109375,7.822265625 21.767578125,6.328125 22.20703125,4.8046875 22.3828125,4.16015625 21.826171875,4.3212890625 21.123046875,4.365234375 20.654296875,3.720703125 21.298828125,1.46484375 20.21484375,1.81640625 19.892578125,1.0546875 20.830078125,0.46875 21.5625,0.615234375 22.119140625,1.0546875 21.8408203125,2.255859375 21.650390625,3.046875 21.796875,3.22265625 22.2509765625,3.1201171875 22.705078125,2.9296875 23.7158184051514,1.702880859375 25.107421875,0.776366710662842 26.7187480926514,0.194091737270355 28.388671875,0z" />
    </g>
  </g>
</svg>