<?xml version="1.0" encoding="utf-8"?>
<!DOCTYPE svg PUBLIC "-//W3C//DTD SVG 1.1//EN" "http://www.w3.org/Graphics/SVG/1.1/DTD/svg11.dtd">
<svg width="35.537109375" height="44.82421875" xmlns="http://www.w3.org/2000/svg" xmlns:xlink="http://www.w3.org/1999/xlink" xmlns:xml="http://www.w3.org/XML/1998/namespace" version="1.1">
  <g>
    <g>
      <path style="fill:#FF0000;fill-opacity:1" d="M6.240234375,42.744140625L4.51171875,43.59375 6.38671875,43.095703125 6.240234375,42.744140625z M7.5,40.107421875L7.20703125,40.751953125 7.1484375,42.099609375 7.20703125,42.275390625 7.3095703125,42.59765625 7.5,43.125 8.291015625,43.330078125 9.2578125,43.388671875 10.1953125,43.3740234375 11.162109375,43.330078125 13.06640625,43.2421875 16.9775390625,42.94921875 21.591796875,42.744140625 25.4296875,43.30078125 27.12890625,43.6669921875 29.326171875,43.857421875 25.869140625,42.685546875 25.341796875,42.421875 24.990234375,42.0703125 24.7265625,41.7333984375 24.521484375,41.484375 23.7744140625,41.77734375 23.3203125,41.9384765625 23.0126953125,41.9970703125 22.705078125,42.01171875 21.591796875,41.9091796875 20.361328125,41.66015625 19.1015625,41.3671875 17.87109375,41.1181640625 16.728515625,41.015625 15.955810546875,41.063232421875 14.6337890625,41.2060546875 12.6892080307007,41.488037109375 10.048828125,41.953125 9.521484375,41.71875 8.6865234375,40.869140625 7.5,40.107421875z M24.052734375,33.369140625L20.745849609375,34.178466796875 17.0361328125,35.4931640625 12.9528799057007,37.313232421875 8.525390625,39.638671875 9.0087890625,39.9169921875 9.4775390625,40.2978515625 9.873046875,40.6787109375 10.13671875,40.986328125 13.154296875,40.4150390625 16.728515625,40.078125 18.1787109375,40.1953125 19.62890625,40.458984375 21.73828125,40.8837890625 23.203125,41.015625 24.2578125,40.576171875 24.7412109375,39.1552734375 24.873046875,37.705078125 24.8291015625,36.7822265625 24.7265625,35.419921875 24.5947265625,34.130859375 24.55078125,33.3984375 24.052734375,33.369140625z M10.576171875,27.861328125L9.990234375,28.740234375 9.4921875,29.677734375 9.95361328125,30.6298828125 10.458984375,31.962890625 10.986328125,35.009765625 10.9716796875,36.0498046875 10.927734375,36.73828125 10.869140625,37.236328125 11.865234375,36.767578125 12.7587890625,36.357421875 13.59375,36.005859375 16.34765625,34.8046875 15.46875,33.6474609375 13.9453125,31.58203125 12.1948232650757,29.39208984375 10.576171875,27.861328125z M8.876953125,26.8359375L7.8515625,27.48046875 7.587890625,28.76953125 7.734375,30.2783203125 8.056640625,32.2265625 8.5546875,34.599609375 8.935546875,36.4453125 9.287109375,38.0859375 9.755859375,37.79296875 10.01953125,37.6171875 10.0634765625,36.6064453125 10.078125,35.947265625 10.0927734375,35.5224609375 10.107421875,35.21484375 9.7265625,32.7392578125 8.5546875,29.912109375 8.5546875,29.443359375 9.0673828125,28.3740234375 9.755859375,27.3046875 8.876953125,26.8359375z M23.4375,23.0859375L18.427734375,33.896484375 21.4453125,32.841796875 24.55078125,32.4609375 24.814453125,28.18359375 25.458984375,23.90625 24.4921875,23.5546875 23.4375,23.0859375z M22.20703125,19.775390625L22.20703125,19.951171875 22.8076171875,20.419921875 23.37890625,21.005859375 23.583984375,20.56640625 23.056640625,20.068359375 22.20703125,19.775390625z M27.626953125,18.3984375L27.099609375,18.896484375 26.748046875,19.6875 26.6015625,21.03515625 26.6015625,21.97265625 31.0546875,23.203125 29.2822265625,20.8447265625 27.626953125,18.3984375z M3.04687523841858,17.28515625L2.84179711341858,17.87109375 1.84570360183716,17.373046875 1.28906297683716,17.314453125 1.90429735183716,17.958984375 2.57812523841858,18.369140625 3.72070336341858,18.80859375 3.04687523841858,17.28515625z M1.43554735183716,15.322265625L1.31835985183716,15.380859375 1.28906297683716,15.439453125 2.22656297683716,16.34765625 2.34375047683716,16.11328125 1.93359422683716,15.703125 1.64062547683716,15.439453125 1.43554735183716,15.322265625z M27.36328125,14.58984375L24.609375,20.537109375 24.931640625,21.0791015625 25.3125,21.708984375 25.634765625,21.767578125 25.8837871551514,19.6142597198486 26.337890625,18.369140625 27.861328125,17.40234375 28.330078125,17.724609375 29.1650371551514,19.1381855010986 30.439453125,20.80078125 31.7138671875,22.47802734375 32.548828125,23.876953125 31.93359375,24.462890625 29.0185546875,23.5546875 26.103515625,22.763671875 24.84375,22.44140625 24.228515625,21.4453125 23.994140625,21.884765625 24.0234375,22.412109375 24.462890625,22.587890625 24.814453125,22.7197265625 25.107421875,22.79296875 26.0229473114014,23.09326171875 27.94921875,23.935546875 30.78369140625,24.9755859375 34.423828125,25.869140625 34.51171875,25.810546875 33.75,23.876953125 32.314453125,21.240234375 30.79833984375,18.4423847198486 29.82421875,16.259765625 28.798828125,15.46875 27.36328125,14.58984375z M18.603515625,6.884765625L19.833984375,7.470703125 18.45703125,7.79296875 18.017578125,7.5 18.603515625,6.884765625z M17.900390625,6.240234375L17.8125,7.060546875 17.021484375,8.994140625 17.607421875,9.3310546875 17.87109375,9.9609375 17.87109375,11.044921875 17.9296875,11.25 18.5009765625,11.1328125 19.16015625,11.015625 20.0830078125,11.396484375 20.56640625,12.333984375 20.7421875,13.0078125 20.2734375,13.623046875 18.046875,14.033203125 16.46484375,14.912109375 15.52734375,15.8203125 14.00390625,17.578125 13.037109375,18.7353515625 11.982421875,20.009765625 10.78125,21.474609375 10.224609375,21.62109375 8.37890625,20.859375 6.7529296875,20.21484375 5.2734375,19.658203125 6.97265625,20.7421875 8.8037109375,21.796875 10.25390625,22.265625 11.4916982650757,21.99462890625 12.744140625,21.181640625 13.974609375,19.98046875 15.1171875,18.603515625 16.69921875,16.58203125 17.490234375,16.93359375 17.98828125,20.2294921875 18.57421875,23.525390625 18.7353515625,24.3896484375 19.013671875,25.400390625 19.2626953125,26.30859375 19.365234375,26.8359375 19.306640625,28.4326171875 19.130859375,29.970703125 22.44140625,22.734375 21.9140625,22.236328125 21.650390625,21.38671875 21.7236328125,21.0791015625 21.97265625,20.830078125 21.5625,20.654296875 21.26953125,20.21484375 21.26953125,19.3359375 21.4599609375,19.1015625 21.708984375,18.80859375 23.173828125,19.16015625 23.818359375,19.716796875 26.54296875,14.0625 26.220703125,13.828125 25.693359375,13.7255859375 25.13671875,13.65234375 24.521484375,13.623046875 24.052734375,13.06640625 24.052734375,11.923828125 22.353515625,10.6640625 22.20703125,10.224609375 22.30224609375,8.876953125 22.587890625,8.056640625 23.14453125,6.943359375 23.0712890625,6.708984375 22.8515625,6.591796875 22.412109375,6.826171875 22.08984375,7.294921875 21.591796875,7.44140625 17.900390625,6.240234375z M21.416015625,3.193359375L19.072265625,3.7060546875 18.2958984375,4.354248046875 17.958984375,5.2734375 21.5625,6.4453125 22.03125,5.9619140625 22.880859375,5.68359375 23.7451171875,6.0498046875 24.08203125,7.060546875 23.96484375,7.353515625 23.291015625,8.701171875 23.173828125,9.375 23.14453125,10.048828125 24.462890625,11.015625 24.814453125,10.546875 25.693359375,8.876953125 26.044921875,6.884765625 25.7336406707764,5.379638671875 24.7998046875,4.2041015625 23.3312969207764,3.446044921875 21.416015625,3.193359375z M9.140625,0.99609375L8.232421875,2.75390625 6.4453125,5.4931640625 4.3359375,7.236328125 5.33203125,10.4296875 8.935546875,9.4921875 8.8916015625,9.169921875 8.876953125,8.818359375 8.876953125,8.173828125 9.2724609375,4.8046875 10.283203125,1.552734375 9.140625,0.99609375z M9.228515625,0L10.5322265625,0.673828125 11.1328125,0.966796875 11.30859375,1.494140625 10.2099609375,4.7314453125 9.78515625,8.14453125 9.814453125,8.671875 9.84375,9.2578125 9.931640625,9.84375 9.580078125,10.3125 8.994140625,10.4736328125 7.939453125,10.72265625 7.2509765625,10.8984375 6.533203125,11.07421875 5.9033203125,11.2353515625 5.44921875,11.337890625 3.51562523841858,15.966796875 3.83789086341858,16.728515625 4.1748046875,17.5048828125 4.599609375,18.427734375 6.2841796875,19.0576171875 8.14453125,19.775390625 10.25390625,20.625 13.681640625,16.494140625 15.7177734375,14.35546875 17.197265625,13.359375 18.3984375,12.94921875 19.6875,12.71484375 19.4970703125,12.216796875 19.1015625,11.953125 18.45703125,12.041015625 17.783203125,12.12890625 17.197265625,11.923828125 16.93359375,11.162109375 16.962890625,10.341796875 16.875,9.9609375 16.494140625,9.84375 16.0546875,9.287109375 16.494140625,7.734375 17.05078125,5.625 17.3876953125,4.0576171875 18.3251953125,3.0322265625 19.716796875,2.4609375 21.4453125,2.28515625 23.6755352020264,2.574462890625 25.4443359375,3.4423828125 26.5978984832764,4.888916015625 26.982421875,6.9140625 26.4404296875,9.5947265625 25.01953125,11.89453125 25.01953125,12.685546875 26.19140625,12.83203125 26.953125,13.18359375 28.037109375,10.78125 28.9306640625,9.55078125 30.205078125,9.111328125 31.2890625,9.3017578125 32.431640625,9.873046875 33.310546875,10.71533203125 33.603515625,11.77734375 33.22265625,13.154296875 32.255859375,15.029296875 31.40625,14.560546875 32.34375,12.65625 32.548828125,11.865234375 32.35107421875,11.103515625 31.7578125,10.576171875 30.41015625,10.13671875 29.7216796875,10.3271484375 29.12109375,10.927734375 27.7734375,13.7109375 28.4033184051514,14.2895526885986 29.47265625,14.912109375 30.498046875,15.5932636260986 30.9375,16.2890625 31.376953125,17.4462890625 32.490234375,19.599609375 33.7939453125,22.001953125 34.833984375,23.994140625 35.33203125,24.931640625 35.537109375,25.78125 35.1123046875,26.54296875 34.3359375,26.8359375 31.962890625,26.25 30.46875,25.83984375 28.88671875,25.3125 27.4218730926514,24.755859375 26.3671875,24.2578125 26.1181640625,25.869140625 25.927734375,27.626953125 25.751953125,29.58984375 25.517578125,33.28125 25.517578125,33.837890625 25.6494140625,35.9619140625 25.78125,37.880859375 25.6640625,39.3017578125 25.1953125,40.78125 25.576171875,41.1328125 25.869140625,41.6015625 27.59765625,42.3193359375 29.384765625,42.919921875 30.4248046875,43.2861328125 31.142578125,44.1796875 30.673828125,44.794921875 27.6855449676514,44.6630859375 25.576171875,44.267578125 23.96484375,43.8427734375 22.412109375,43.681640625 19.9658203125,43.6962890625 18.1494140625,43.7548828125 16.5966796875,43.857421875 14.94140625,44.00390625 11.4990234375,44.23828125 8.291015625,44.326171875 7.001953125,43.916015625 5.8447265625,44.1650390625 5.09765625,44.3408203125 4.599609375,44.4580078125 4.189453125,44.560546875 2.69531273841858,44.82421875 1.86035203933716,44.619140625 1.58203172683716,44.091796875 1.78710985183716,43.564453125 2.31445360183716,43.388671875 4.3359375,42.65625 6.15234375,41.71875 6.123046875,40.95703125 6.357421875,40.0341796875 7.060546875,39.375 8.4375,38.49609375 8.115234375,37.03125 7.763671875,35.361328125 7.44873046875,33.6767578125 7.20703125,32.373046875 6.8701171875,30.6005859375 6.6796875,29.619140625 6.591796875,29.033203125 7.060546875,26.982421875 7.71240234375,26.21337890625 8.671875,25.95703125 9.8876953125,26.27197265625 11.30859375,27.216796875 12.8832998275757,28.740234375 14.443359375,30.732421875 15.849609375,32.666015625 16.904296875,34.013671875 17.28515625,33.1494140625 17.578125,32.548828125 18.22265625,30.0732421875 18.486328125,27.65625 18.1640625,25.78125 17.958984375,25.0048828125 17.6953125,23.84765625 17.4609375,22.6171875 17.16796875,20.947265625 16.8896484375,19.2919921875 16.69921875,18.10546875 14.6337890625,20.5810546875 12.94921875,22.1484375 11.5356435775757,22.939453125 10.224609375,23.203125 9.140625,23.00537109375 7.939453125,22.412109375 5.8154296875,21.123046875 4.51171875,20.302734375 3.66210961341858,19.74609375 2.19726610183716,19.21875 1.40625047683716,21.181640625 0,20.712890625 1.11328172683716,18.45703125 0.7763671875,17.8125 0.46874988079071,17.021484375 0.908203125,16.46484375 1.34765672683716,16.58203125 0.615234375,15.849609375 0.46874988079071,15.41015625 0.842285394668579,14.7729511260986 1.31835985183716,14.560546875 1.89697277545929,14.7509784698486 2.69531273841858,15.322265625 4.541015625,11.103515625 3.31054711341858,7.08984375 3.60351586341858,6.5625 5.7861328125,4.8046875 7.6171875,1.962890625 8.5546875,0.146484375 9.228515625,0z" />
    </g>
  </g>
</svg>