<?xml version="1.0" encoding="utf-8"?>
<!DOCTYPE svg PUBLIC "-//W3C//DTD SVG 1.1//EN" "http://www.w3.org/Graphics/SVG/1.1/DTD/svg11.dtd">
<svg width="25.60546875" height="44.765625" xmlns="http://www.w3.org/2000/svg" xmlns:xlink="http://www.w3.org/1999/xlink" xmlns:xml="http://www.w3.org/XML/1998/namespace" version="1.1">
  <g>
    <g>
      <path style="fill:#FF0000;fill-opacity:1" d="M11.982421875,17.900390625L12.59765625,18.369140625 12.01171875,18.603515625 11.71875,18.193359375 11.982421875,17.900390625z M15.908203125,17.021484375L15.498046875,17.314453125 15.087890625,17.490234375 11.3671875,17.490234375 11.30859375,17.9296875 10.9130859375,18.9990234375 10.517578125,19.8046875 11.30859375,20.595703125 11.572265625,21.73828125 12.6159658432007,21.807861328125 13.2275390625,22.0166015625 13.5241689682007,22.489013671875 13.623046875,23.349609375 13.564453125,24.052734375 13.41796875,24.990234375 12.978515625,27.0703125 12.1728515625,32.1826171875 11.806640625,37.32421875 11.54296875,37.55859375 11.30859375,37.79296875 7.55859375,38.26171875 5.64331007003784,38.64990234375 4.1748046875,38.876953125 2.0068359375,39.7265625 1.27807629108429,40.78125 0.93749988079071,42.5390625 1.21582043170929,43.2568359375 2.061767578125,43.634033203125 4.04296875,43.798828125 4.98046922683716,43.828125 8.038330078125,43.6083984375 12.0556640625,42.94921875 15.919189453125,42.2900390625 18.515625,42.0703125 19.013671875,42.275390625 19.716796875,42.744140625 20.625,43.2568359375 21.85546875,43.59375 21.181640625,43.2421875 20.419921875,42.802734375 19.6728515625,42.36328125 19.04296875,41.923828125 18.896484375,41.484375 18.8525390625,41.044921875 18.6328125,40.693359375 18.3984375,40.634765625 17.958984375,40.078125 18.33984375,34.4970703125 18.427734375,28.916015625 18.427734375,26.8359375 18.134765625,25.3125 17.021484375,24.609375 16.611328125,25.986328125 16.5234375,27.509765625 16.5234375,28.828125 16.259765625,29.0625 16.025390625,29.296875 15.087890625,29.296875 14.6484375,28.740234375 14.6905517578125,24.5169086456299 14.81689453125,21.4270038604736 15.0274658203125,19.4705219268799 15.322265625,18.6474609375 15.99609375,17.4609375 15.966796875,17.2265625 15.908203125,17.021484375z M14.94140625,14.208984375L12.71484375,14.8681640625 11.8872060775757,15.6188983917236 11.513671875,16.552734375 14.912109375,16.552734375 15.87890625,16.083984375 16.5673828125,16.376953125 16.904296875,17.255859375 16.669921875,18.369140625 16.025390625,19.130859375 15.673828125,23.4228515625 15.5859375,27.71484375 15.64453125,26.71875 15.732421875,25.72265625 15.985107421875,24.700927734375 16.3330078125,24.0966796875 17.40234375,23.701171875 18.7646484375,24.404296875 19.215087890625,25.3564453125 19.365234375,26.923828125 19.365234375,28.359375 19.892578125,28.359375 20.068359375,26.8212890625 20.126953125,25.224609375 19.78271484375,21.32080078125 18.75,17.6953125 17.99560546875,16.1700458526611 17.109375,15.0805683135986 16.09130859375,14.4268808364868 14.94140625,14.208984375z M17.724609375,11.162109375L16.81640625,12.4072265625 15.498046875,12.919921875 16.318359375,12.83203125 17.109375,12.71484375 17.958984375,12.509765625 17.724609375,11.162109375z M12.392578125,10.95703125L12.099609375,12.65625 12.8466796875,12.7294921875 13.564453125,12.83203125 14.384765625,12.890625 13.1396484375,12.275390625 12.392578125,10.95703125z M15.1171875,8.4375L13.8134765625,8.8916015625 13.271484375,10.283203125 13.798828125,11.572265625 15.1171875,12.01171875 16.3623046875,11.5869140625 16.93359375,10.283203125 16.3623046875,8.90625 15.1171875,8.4375z M11.89453125,0.9375L11.2939453125,0.9814453125 11.015625,1.2890625 11.30859375,1.494140625 11.953125,1.40625 12.6525869369507,1.614990234375 13.1689453125,2.2412109375 13.59375,4.16015625 13.59375,4.3359375 13.271484375,6.181640625 12.83203125,8.583984375 13.8427734375,7.7783203125 15.1171875,7.5 16.2744140625,7.763671875 17.28515625,8.525390625 16.669921875,4.74609375 16.58203125,4.1015625 16.552734375,3.837890625 17.109375,2.0654296875 18.6328125,1.40625 19.189453125,1.46484375 19.365234375,1.318359375 19.130859375,1.025390625 18.486328125,0.9375 16.5966796875,1.5673828125 15.46875,3.22265625 14.736328125,3.22265625 13.5205078125,1.5234375 11.89453125,0.9375z M11.806640625,0L13.89404296875,0.59326171875 15.1171875,2.373046875 16.45751953125,0.59326171875 18.896484375,0 19.951171875,0.47607421875 20.302734375,1.904296875 19.27734375,2.431640625 18.486328125,2.34375 17.7392578125,2.81982421875 17.490234375,4.248046875 18.896484375,11.8359375 19.0576171875,12.4731464385986 19.541015625,12.685546875 20.771484375,12.275390625 21.767578125,12.71484375 23.14453125,12.275390625 24.43359375,12.71484375 24.462890625,12.71484375 24.8803691864014,12.3706073760986 25.01953125,11.337890625 25.60546875,12.685546875 25.3198223114014,13.2128925323486 24.462890625,13.388671875 23.876953125,13.330078125 23.14453125,13.2421875 21.97265625,13.7109375 20.302734375,13.2421875 18.75732421875,13.5278339385986 16.81640625,13.681640625 18.515625,15.3076190948486 19.86328125,18.134765625 20.7421875,21.64306640625 21.03515625,25.3125 20.9619140625,27.2314453125 20.7421875,28.974609375 20.2734375,29.296875 19.365234375,29.296875 19.27734375,34.5703125 18.92578125,39.78515625 19.62890625,40.4296875 19.833984375,41.3671875 21.240234375,42.3193359375 22.79296875,43.037109375 22.939453125,43.388671875 23.056640625,43.76953125 22.587890625,44.23828125 22.177734375,44.4140625 20.3173828125,44.0478515625 18.720703125,43.0078125 15.897216796875,43.2275390625 11.9384765625,43.88671875 7.921142578125,44.5458984375 4.921875,44.765625 2.36572265625,44.64111328125 0.90820324420929,44.267578125 0.227050885558128,43.5498046875 0,42.392578125 0.219726696610451,40.916748046875 0.878906607627869,39.5947265625 2.1826171875,38.551025390625 4.33593702316284,37.91015625 5.56640625,37.705078125 8.203125,37.2216796875 10.8984375,36.85546875 11.513671875,30.205078125 12.744140625,23.642578125 12.48046875,22.705078125 12.099609375,22.67578125 11.5978994369507,23.719482421875 11.0888671875,24.3310546875 10.107421875,24.7265625 9.404296875,24.5361328125 9.228515625,24.228515625 9.43359375,24.111328125 10.576171875,23.8330078125 11.162109375,22.705078125 10.6201171875,21.6064453125 9.814453125,20.56640625 9.66796875,20.302734375 9.521484375,20.0390625 9.9462890625,18.896484375 10.37109375,17.63671875 10.341796875,17.431640625 11.0302734375,15.3369140625 12.861328125,13.681640625 11.1328125,13.5205078125 9.931640625,13.2421875 8.49609375,13.59375 7.08984375,13.2421875 6.09375,13.388671875 5.25878858566284,13.1396503448486 4.98046922683716,12.392578125 5.18554639816284,11.337890625 5.56640577316284,12.3706073760986 6.005859375,12.71484375 6.03515577316284,12.71484375 7.55859375,12.275390625 8.49609375,12.7734375 9.43359375,12.275390625 10.341796875,12.5390625 11.337890625,11.8359375 12.744140625,4.248046875 12.5024404525757,2.81982421875 11.77734375,2.34375 11.396484375,2.3876953125 11.044921875,2.431640625 10.341796875,1.9482421875 10.107421875,0.966796875 10.5322265625,0.24169921875 11.806640625,0z" />
    </g>
  </g>
</svg>