<?xml version="1.0" encoding="utf-8"?>
<!DOCTYPE svg PUBLIC "-//W3C//DTD SVG 1.1//EN" "http://www.w3.org/Graphics/SVG/1.1/DTD/svg11.dtd">
<svg width="26.455078125" height="44.47265625" xmlns="http://www.w3.org/2000/svg" xmlns:xlink="http://www.w3.org/1999/xlink" xmlns:xml="http://www.w3.org/XML/1998/namespace" version="1.1">
  <g>
    <g>
      <path style="fill:#FF0000;fill-opacity:1" d="M19.365234375,31.23046875L19.951171875,35.09765625 20.625,38.96484375 20.771484375,39.84375 20.859375,40.83984375 20.4638671875,41.9091796875 19.423828125,42.5390625 18.75,42.802734375 20.361328125,42.65625 20.7421875,42.7294921875 21.123046875,43.06640625 21.328125,43.06640625 21.50390625,43.037109375 21.62109375,42.890625 21.328125,41.5283203125 21.1083984375,40.301513671875 21.03515625,38.642578125 21.064453125,36.767578125 21.123046875,35.33203125 21.123046875,34.39453125 21.0791015625,32.7978515625 20.888671875,31.23046875 19.365234375,31.23046875z M17.841796875,31.23046875L17.1533203125,33.9111328125 16.2890625,36.50390625 15.380859375,39.111328125 14.820556640625,40.95703125 14.5458984375,42.216796875 14.267578125,43.53515625 15.9375,43.53515625 16.376953125,42.7001953125 17.109375,42.421875 18.5888671875,41.982421875 19.86328125,41.19140625 19.65087890625,38.89892578125 19.130859375,36.123046875 18.6181640625,33.39111328125 18.427734375,31.23046875 17.841796875,31.23046875z M15.439453125,31.23046875L14.853515625,33.4716796875 14.560546875,35.80078125 14.384765625,37.177734375 14.0771474838257,39.14794921875 13.7402334213257,40.60546875 13.3740224838257,41.55029296875 12.978515625,41.982421875 11.923828125,42.392578125 11.162109375,42.65625 10.634765625,42.861328125 11.953125,42.802734375 12.1875,42.861328125 12.392578125,42.94921875 12.685546875,43.037109375 13.18359375,43.06640625 13.5498046875,42.48046875 13.88671875,41.220703125 14.091796875,40.283203125 14.53125,38.70849609375 15.380859375,36.26953125 16.93359375,31.23046875 15.439453125,31.23046875z M13.06640625,26.279296875L12.451171875,28.2861328125 11.923828125,30.29296875 20.80078125,30.29296875 21.0791015625,28.30078125 21.26953125,26.279296875 13.06640625,26.279296875z M9.84375,24.7265625L8.935546875,25.166015625 8.1298828125,25.5029296875 7.32421875,25.576171875 6.123046875,25.576171875 6.123046875,26.044921875 7.32421875,26.044921875 8.1298828125,26.1181640625 8.935546875,26.42578125 9.84375,26.89453125 10.37109375,26.3671875 10.8984375,25.810546875 10.37109375,25.283203125 9.84375,24.7265625z M20.09765625,19.1015625L15.908203125,21.2109375 14.70703125,23.1884765625 13.59375,25.341796875 21.26953125,25.341796875 21.2109375,23.7890625 20.859375,21.1962890625 20.09765625,19.1015625z M21.533203125,13.828125L20.9326171875,16.0400390625 20.771484375,18.369140625 21.85546875,21.6796875 22.177734375,25.166015625 22.67578125,24.43359375 22.763671875,21.943359375 23.115234375,19.482421875 22.177734375,16.7138671875 21.533203125,13.828125z M3.72070360183716,13.2421875L3.7060546875,14.0551776885986 3.662109375,15.380859375 3.22265625,29.47265625 2.84179639816284,43.53515625 7.44140625,43.53515625 7.529296875,42.802734375 8.04931640625,42.56103515625 9.08203125,42.36328125 10.5615234375,41.98974609375 12.421875,41.220703125 13.0517578125,39.609375 13.447265625,37.32421875 13.59375,36.064453125 13.623046875,35.712890625 13.9306640625,33.45703125 14.47265625,31.23046875 11.30859375,31.23046875 10.869140625,30.673828125 11.42578125,28.4765625 12.0703125,26.279296875 11.689453125,26.279296875 11.015625,27.01171875 10.3125,27.744140625 10.048828125,27.802734375 9.755859375,27.890625 7.91015625,26.982421875 5.62500047683716,26.982421875 5.18554639816284,26.42578125 5.18554639816284,25.1953125 5.62500047683716,24.638671875 7.91015625,24.638671875 9.755859375,23.73046875 10.048828125,23.818359375 10.3125,23.876953125 11.015625,24.609375 11.689453125,25.341796875 12.5390625,25.341796875 14.2236328125,22.1630859375 14.857177734375,21.068115234375 15.029296875,20.7421875 14.619140625,19.3505859375 14.443359375,17.900390625 14.6484375,16.552734375 14.296875,13.76953125 12.2607421875,15.4833984375 9.697265625,17.4609375 9.2578125,17.51953125 6.005859375,15.1611328125 4.51171875,13.9123554229736 3.72070360183716,13.2421875z M2.4609375,10.546875L2.666015625,10.927734375 2.51953077316284,11.66015625 2.783203125,12.01171875 2.84179639816284,10.83984375 2.4609375,10.546875z M15.849609375,4.04296875L16.083984375,4.1015625 16.5234375,4.306640625 15.87890625,4.599609375 15.64453125,4.306640625 15.849609375,4.04296875z M15.52734375,3.134765625L15.41015625,3.57421875 14.8681640625,4.5556640625 14.267578125,5.419921875 14.6484375,5.7421875 14.6484375,7.03125 15.3515625,7.1484375 15.615234375,7.1484375 16.7431640625,7.5439453125 17.080078125,8.466796875 16.69921875,9.4775390625 15.7763671875,9.90234375 15.1904296875,10.048828125 15.029296875,10.283203125 9.814453125,15.46875 9.55078125,15.52734375 9.2578125,15.615234375 5.771484375,13.330078125 4.658203125,12.626953125 4.51171922683716,12.451171875 4.27734422683716,12.1875 3.779296875,11.484375 3.75,12.0703125 4.266357421875,12.5280771255493 5.69824171066284,13.7841796875 9.404296875,16.5234375 11.89453125,14.6484375 14.150390625,12.626953125 14.4140625,12.509765625 15.1171875,12.802734375 15.5859375,16.58203125 15.4833984375,17.109375 15.380859375,17.63671875 15.498046875,18.955078125 15.849609375,20.21484375 16.512451171875,19.8889179229736 17.6220703125,19.3212890625 19.833984375,18.193359375 20.1708984375,15.029296875 21.328125,12.12890625 22.177734375,12.216796875 22.6776103973389,14.5788583755493 23.0932598114014,16.3916034698486 23.4246807098389,17.6550312042236 23.671875,18.369140625 24.08203125,19.541015625 23.96484375,20.33203125 23.7890625,21.181640625 23.5693359375,22.8955078125 23.466796875,24.638671875 22.763671875,25.693359375 23.115234375,25.60546875 23.115234375,25.78125 22.470703125,26.630859375 22.998046875,27.01171875 23.671875,26.015625 23.671875,24.638671875 24.375,22.08984375 24.66796875,19.599609375 24.287109375,16.46484375 23.525390625,13.359375 22.8076171875,11.044921875 21.844482421875,10.08544921875 19.8046875,9.4921875 19.365234375,8.935546875 19.365234375,8.818359375 18.310546875,7.763671875 17.548828125,6.4453125 17.607421875,6.240234375 17.783203125,5.771484375 18.28125,5.537109375 18.515625,5.126953125 18.076171875,5.244140625 17.8125,4.98046875 17.490234375,4.6875 17.51953125,4.453125 17.288818359375,3.984375 16.5966796875,3.57421875 15.867919921875,3.27392578125 15.52734375,3.134765625z M18.662109375,0.937500476837158L16.9775390625,1.259765625 15.732421875,2.2265625 16.142578125,2.406005859375 17.138671875,2.8271484375 18.10546875,3.446044921875 18.427734375,4.21875 18.544921875,4.21875 18.75,4.189453125 19.3212890625,4.482421875 19.51171875,5.15625 19.2333984375,5.9033203125 18.603515625,6.4453125 19.775390625,7.96875 21.0205078125,6.0205078125 21.591796875,3.603515625 21.39404296875,2.464599609375 20.80078125,1.6259765625 18.662109375,0.937500476837158z M18.720703125,0L20.313720703125,0.245361328125 21.5185546875,0.9814453125 22.276611328125,2.142333984375 22.529296875,3.662109375 21.8994140625,6.3720703125 20.419921875,8.642578125 22.5,9.3603515625 23.642578125,10.576171875 24.0747051239014,11.69677734375 24.55078125,13.65234375 25.224609375,16.904296875 25.546875,19.921875 25.3271484375,22.1923828125 24.55078125,24.7265625 24.55078125,25.341796875 26.455078125,25.341796875 26.455078125,26.279296875 24.345703125,26.279296875 24.0234375,26.8798828125 23.525390625,27.744140625 23.115234375,27.919921875 22.08984375,27.5390625 21.8701171875,29.12109375 21.73828125,30.732421875 21.943359375,32.2705078125 21.97265625,33.80859375 21.85546875,38.84765625 21.943359375,40.5615234375 22.236328125,41.748046875 22.5,42.509765625 22.55859375,43.06640625 22.55859375,43.53515625 23.14453125,43.53515625 23.14453125,44.47265625 0,44.47265625 0,43.53515625 1.90429675579071,43.53515625 2.34375,27.0703125 2.63671875,17.138671875 2.783203125,12.919921875 2.021484375,12.2607421875 1.78710925579071,11.513671875 1.81640636920929,11.220703125 1.90429675579071,10.927734375 1.75781238079071,10.6640625 1.90429675579071,10.25390625 2.05078125,10.107421875 2.34375,9.990234375 2.87109375,9.990234375 2.98828125,7.1484375 3.92578125,7.1484375 3.80859375,10.107421875 4.16015625,10.751953125 4.423828125,11.220703125 4.599609375,11.54296875 7.001953125,13.037109375 9.375,14.58984375 14.8828125,9.140625 15.205078125,9.0234375 15.615234375,8.935546875 15.966796875,8.84765625 16.11328125,8.583984375 15.8349609375,8.0712890625 15.17578125,7.96875 13.9892578125,7.734375 13.7109375,6.6796875 13.7109375,6.2109375 13.681640625,6.2109375 13.2421875,5.654296875 13.9453125,4.248046875 14.6484375,2.51953125 14.70703125,2.197265625 15.2783203125,1.300048828125 16.23046875,0.6005859375 18.720703125,0z" />
    </g>
  </g>
</svg>