<?xml version="1.0" encoding="utf-8"?>
<!DOCTYPE svg PUBLIC "-//W3C//DTD SVG 1.1//EN" "http://www.w3.org/Graphics/SVG/1.1/DTD/svg11.dtd">
<svg width="24.08203125" height="44.765625" xmlns="http://www.w3.org/2000/svg" xmlns:xlink="http://www.w3.org/1999/xlink" xmlns:xml="http://www.w3.org/XML/1998/namespace" version="1.1">
  <g>
    <g>
      <path style="fill:#FF0000;fill-opacity:1" d="M19.365234375,18.779296875L19.365234375,24.462890625 18.8671875,24.931640625 17.4609375,24.931640625 17.021484375,24.375 17.021484375,18.80859375 16.241455078125,19.0246601104736 15.3662109375,19.6728515625 14.549560546875,20.892333984375 13.9453125,22.822265625 13.5534658432007,25.338134765625 13.3740234375,28.3154296875 13.2604970932007,30.889892578125 13.06640625,32.197265625 12.01171875,32.87109375 11.1474609375,32.4462890625 10.634765625,31.552734375 9.697265625,29.47265625 7.529296875,26.2646484375 6.181640625,25.286865234375 4.71679735183716,24.9609375 3.36914110183716,25.7080078125 2.8125,27.36328125 2.8765869140625,27.8274536132813 3.06884765625,28.692626953125 3.3892822265625,29.9588012695313 3.837890625,31.6259765625 4.60693311691284,35.006103515625 4.86328125,37.67578125 4.6142578125,39.697265625 4.2041015625,40.7080078125 3.28125,41.42578125 2.57812452316284,41.89453125 1.52343773841858,42.890625 1.08398413658142,43.828125 23.115234375,43.828125 22.44140625,42.4365234375 20.947265625,41.07421875 19.98046875,40.400390625 19.833984375,39.9609375 20.947265625,33.45703125 21.38671875,26.572265625 21.240234375,24.169921875 21.09375,22.412109375 20.80078125,19.39453125 20.2880859375,18.984375 19.365234375,18.779296875z M18.8671875,11.455078125L18.3251953125,13.1982421875 17.578125,14.853515625 16.7578125,16.494140625 15.966796875,18.134765625 16.5966796875,17.958984375 17.4609375,17.841796875 17.958984375,18.310546875 17.958984375,23.994140625 18.427734375,23.994140625 18.427734375,18.369140625 18.6328125,18.10546875 18.80859375,17.900390625 20.830078125,18.3251953125 21.73828125,19.248046875 22.177734375,23.994140625 23.056640625,23.994140625 22.9760723114014,23.5189819335938 22.7929668426514,22.386474609375 22.5073223114014,20.5966186523438 22.119140625,18.1494140625 21.5863037109375,15.6491098403931 20.86669921875,13.6999521255493 19.9603271484375,12.3019409179688 18.8671875,11.455078125z M12.626953125,11.162109375L13.7109375,11.689453125 12.626953125,12.24609375 12.275390625,11.689453125 12.626953125,11.162109375z M15.1171875,3.427734375L15.1171875,7.265625 15.5859375,6.533203125 15.9375,5.947265625 15.4833984375,4.7021484375 15.1171875,3.427734375z M17.98828125,1.669921875L17.490234375,4.27734375 17.080078125,5.863037109375 16.142578125,7.5732421875 15.00732421875,9.071044921875 14.00390625,10.01953125 12.5976552963257,10.6640625 10.25390625,11.25 7.79296875,11.748046875 5.654296875,12.48046875 5.7421875,13.0517578125 5.947265625,13.623046875 6.826171875,13.740234375 8.291015625,13.76953125 11.5942373275757,13.9892597198486 13.53515625,14.6484375 14.59716796875,15.7543964385986 15.263671875,17.314453125 16.776123046875,14.1943378448486 17.6806640625,11.865234375 18.28125,7.470703125 18.1640625,4.5703125 17.98828125,1.669921875z M18.10546875,0L18.896484375,0.3515625 19.27734375,7.587890625 19.2041015625,8.935546875 19.013671875,10.517578125 20.4794311523438,11.4321899414063 21.654052734375,12.9748544692993 22.5375366210938,15.1455698013306 23.1298828125,17.9443359375 23.5244731903076,20.6863403320313 23.8146953582764,22.686767578125 24.0005474090576,23.9456176757813 24.08203125,24.462890625 23.818359375,24.697265625 23.583984375,24.931640625 22.265625,24.931640625 22.294921875,25.8544921875 22.32421875,27.216796875 21.884765625,33.57421875 20.830078125,39.84375 21.97265625,40.72265625 23.525390625,42.3779296875 24.08203125,44.296875 23.818359375,44.53125 23.583984375,44.765625 0.43945300579071,44.765625 0,44.208984375 0.791015625,42.3779296875 2.22656226158142,40.986328125 3.3984375,40.1953125 3.896484375,37.265625 3.6474609375,34.837646484375 2.900390625,31.5966796875 2.15332007408142,28.670654296875 1.904296875,27.1875 2.11303687095642,25.843505859375 2.7392578125,24.8583984375 3.636474609375,24.254150390625 4.658203125,24.052734375 6.48193359375,24.459228515625 8.203125,25.6787109375 9.9169921875,28.011474609375 11.71875,31.7578125 11.982421875,31.904296875 12.275390625,31.787109375 12.48046875,27.5390625 12.451171875,27.5390625 13.0517578125,22.5146484375 13.6706533432007,20.4895038604736 14.619140625,19.072265625 14.3518056869507,17.4096698760986 13.9599609375,16.34765625 12.5537109375,15.146484375 11.3928213119507,14.8168964385986 9.814453125,14.70703125 8.525390625,14.677734375 7.08984375,14.619140625 5.62499952316284,14.53125 5.41992235183716,14.4140625 5.244140625,14.296875 4.86328125,13.30078125 4.71679735183716,12.275390625 4.86328125,12.01171875 5.009765625,11.748046875 7.294921875,10.927734375 9.697265625,10.4296875 12.0263671875,9.814453125 14.1796875,8.642578125 14.1870107650757,5.91796875 14.208984375,3.896484375 14.208984375,1.46484375 14.2163076400757,0.7470703125 14.23828125,0.41015625 15.1171875,0.263671875 15.8203125,2.431640625 16.435546875,4.62890625 16.640625,3.75 16.7138671875,3.28125 16.93359375,2.109375 17.373046875,0.8203125 18.10546875,0z" />
    </g>
  </g>
</svg>