<?xml version="1.0" encoding="utf-8"?>
<!DOCTYPE svg PUBLIC "-//W3C//DTD SVG 1.1//EN" "http://www.w3.org/Graphics/SVG/1.1/DTD/svg11.dtd">
<svg width="25.283203125" height="44.912109375" xmlns="http://www.w3.org/2000/svg" xmlns:xlink="http://www.w3.org/1999/xlink" xmlns:xml="http://www.w3.org/XML/1998/namespace" version="1.1">
  <g>
    <g>
      <path style="fill:#FF0000;fill-opacity:1" d="M20.009765625,24.462890625L19.365234375,24.755859375 18.984375,25.3125 19.423828125,25.4443359375 19.833984375,25.83984375 20.15625,25.3125 20.068359375,24.755859375 20.419921875,24.521484375 20.302734375,24.4921875 20.009765625,24.462890625z M4.423828125,20.390625L3.75,20.5224609375 3.22265625,20.9765625 2.90039014816284,24.66796875 2.73925828933716,26.66015625 2.666015625,28.271484375 2.63671875,29.12109375 3.1201171875,34.74609375 4.21875,40.576171875 4.1015625,40.83984375 3.92578125,41.103515625 3.504638671875,41.356201171875 2.4755859375,41.9970703125 1.431884765625,42.908935546875 0.966796636581421,43.974609375 21.6796875,43.974609375 21.2548828125,42.879638671875 20.21484375,42.1728515625 19.130859375,41.546630859375 18.57421875,40.693359375 18.28125,38.349609375 18.544921875,36.43798828125 19.3359375,34.04296875 20.126953125,31.69189453125 20.390625,29.912109375 20.126953125,28.1982421875 19.423828125,26.572265625 19.306640625,26.3671875 18.486328125,26.103515625 15.706787109375,27.65625 13.6962890625,30.322265625 12.4475088119507,32.80517578125 11.953125,33.80859375 11.42578125,34.04296875 10.667724609375,33.5595703125 10.3857421875,32.98828125 10.3518676757813,32.4691772460938 10.294189453125,31.527099609375 10.2127075195313,30.1620483398438 10.107421875,28.3740234375 9.74853515625,24.957275390625 9.140625,22.705078125 8.18115234375,21.29150390625 6.767578125,20.390625 6.767578125,25.927734375 6.328125,26.484375 4.921875,26.484375 4.6875,26.25 4.423828125,26.015625 4.423828125,20.390625z M23.525390625,15.908203125L22.6025390625,16.3916015625 22.294921875,17.724609375 22.3828125,18.984375 22.5,19.453125 22.998046875,19.16015625 23.4375,18.837890625 24.0380859375,18.076171875 24.345703125,16.875 24.08203125,16.1865234375 23.525390625,15.908203125z M10.3125,12.1875L10.751953125,12.744140625 10.3125,13.330078125 8.818359375,12.744140625 9.76318359375,12.32666015625 10.3125,12.1875z M4.6875,11.923828125L2.376708984375,15.2307147979736 1.36230492591858,19.9951171875 1.20208752155304,22.4020385742188 1.087646484375,24.129638671875 1.01898205280304,25.1779174804688 0.996093988418579,25.546875 1.90429711341858,25.546875 2.16796851158142,23.02734375 2.37304663658142,20.537109375 3.486328125,19.6435546875 4.921875,19.423828125 5.36132860183716,19.98046875 5.36132860183716,25.546875 5.830078125,25.546875 5.830078125,19.892578125 6.09375,19.658203125 6.328125,19.423828125 8.203125,20.0390625 7.833251953125,19.0979022979736 6.7236328125,18.2666015625 5.45654249191284,17.4096698760986 4.6142578125,16.3916015625 3.984375,14.150390625 4.6875,11.923828125z M8.671875,11.3671875L9.73388671875,11.43310546875 10.400390625,11.630859375 11.07421875,12.216796875 10.8984375,12.509765625 10.6640625,12.275390625 10.458984375,12.099609375 10.1953125,11.953125 9.6240234375,12.0849609375 8.96484375,12.36328125 8.203125,12.744140625 9.2431640625,13.30078125 10.25390625,13.623046875 10.5615234375,13.59375 10.751953125,13.4765625 11.044921875,13.798828125 10.9423828125,13.916015625 10.60546875,14.091796875 9.9609375,16.46484375 9.43359375,13.9453125 8.1884765625,13.2861328125 6.943359375,12.919921875 6.50390625,13.125 6.26953125,13.740234375 6.6943359375,14.9560546875 7.67578125,15.791015625 8.7890625,16.318359375 8.7890625,16.787109375 6.328125,15.673828125 5.58105421066284,14.8095722198486 5.33203125,13.740234375 5.56640577316284,12.9858417510986 6.26953125,12.1875 7.3388671875,11.572265625 8.671875,11.3671875z M8.73046875,10.927734375L7.24365234375,11.16943359375 6.005859375,11.89453125 5.17089796066284,12.9858417510986 4.892578125,14.326171875 5.244140625,15.7470703125 6.357421875,16.93359375 7.294921875,17.548828125 8.173828125,18.193359375 8.84765625,18.896484375 9.3017578125,18.2409687042236 10.13671875,17.1533203125 10.9423818588257,15.8825702667236 11.30859375,14.677734375 11.513671875,14.296875 12.333984375,13.9306640625 13.2421875,13.76953125 12.421875,13.0078125 11.77734375,12.421875 11.6015625,12.0703125 10.6640625,11.279296875 8.73046875,10.927734375z M7.822265625,0.9375L6.134033203125,1.26708984375 4.64355421066284,2.255859375 3.599853515625,3.71337890625 3.25195264816284,5.44921875 3.599853515625,7.18505859375 4.64355421066284,8.642578125 6.134033203125,9.63134765625 7.822265625,9.9609375 9.51416015625,9.61669921875 10.95703125,8.583984375 11.9457998275757,7.11181640625 12.275390625,5.44921875 11.9457998275757,3.78662109375 10.95703125,2.314453125 9.51416015625,1.28173828125 7.822265625,0.9375z M7.8515625,0L9.931640625,0.391845703125 11.66015625,1.5673828125 12.8247060775757,3.321533203125 13.212890625,5.44921875 12.4658203125,8.3203125 10.458984375,10.25390625 11.806640625,10.8544921875 12.65625,12.01171875 13.7255859375,12.8466796875 14.150390625,14.296875 13.7109375,14.677734375 12.9345703125,14.736328125 12.216796875,14.970703125 11.6601552963257,16.5051288604736 10.576171875,18.0615234375 9.5068359375,19.5007343292236 8.994140625,20.68359375 9.76867580413818,21.7584228515625 10.3637685775757,23.25439453125 10.7794179916382,25.1715087890625 11.015625,27.509765625 11.1437978744507,29.7564697265625 11.2353506088257,31.39892578125 11.2902822494507,32.4371337890625 11.30859375,32.87109375 12.4108877182007,30.802001953125 13.4033193588257,29.1357421875 14.2858877182007,27.872314453125 15.05859375,27.01171875 16.552734375,25.8984375 18.1640625,25.1953125 18.75,24.287109375 19.5703125,23.818359375 19.892578125,23.818359375 21.533203125,20.80078125 19.8046875,20.361328125 20.2734375,19.39453125 21.73828125,20.185546875 21.416015625,19.013671875 21.240234375,17.666015625 21.8994140625,15.703125 23.49609375,15.087890625 24.7705078125,15.64453125 25.283203125,17.05078125 24.55078125,18.984375 22.529296875,20.419921875 24.052734375,20.830078125 23.583984375,21.767578125 22.265625,21.005859375 21.03515625,23.7890625 21.533203125,24.462890625 20.771484375,24.931640625 20.888671875,25.458984375 20.56640625,25.8984375 20.2734375,26.337890625 21.09375,28.1103515625 21.328125,29.794921875 21.064453125,31.669921875 20.2734375,34.072265625 19.482421875,36.50390625 19.21875,38.466796875 19.6875,40.78125 21.17431640625,41.62353515625 22.060546875,42.451171875 22.646484375,44.35546875 22.20703125,44.912109375 0.49804699420929,44.912109375 0.263671517372131,44.677734375 0,44.443359375 0.468750238418579,42.6708984375 1.3916015625,41.693115234375 3.22265625,40.4296875 2.16796851158142,34.7607421875 1.69921898841858,29.033203125 1.72851586341858,27.7587890625 1.81640601158142,26.484375 0.49804699420929,26.484375 0.263671517372131,26.25 0,26.015625 0.292968988418579,21.181640625 0.791015625,17.3584003448486 1.7578125,14.267578125 3.30322265625,11.9458017349243 5.53710985183716,10.4296875 3.22265625,8.466796875 2.54150390625,7.05322265625 2.314453125,5.44921875 2.73193359375,3.33984375 3.984375,1.58203125 5.78613233566284,0.3955078125 7.8515625,0z" />
    </g>
  </g>
</svg>