<?xml version="1.0" encoding="utf-8"?>
<!DOCTYPE svg PUBLIC "-//W3C//DTD SVG 1.1//EN" "http://www.w3.org/Graphics/SVG/1.1/DTD/svg11.dtd">
<svg width="28.388671875" height="45" xmlns="http://www.w3.org/2000/svg" xmlns:xlink="http://www.w3.org/1999/xlink" xmlns:xml="http://www.w3.org/XML/1998/namespace" version="1.1">
  <g>
    <g>
      <path style="fill:#FF0000;fill-opacity:1" d="M22.32421875,31.69921875L22.584228515625,33.900146484375 23.0712890625,36.7529296875 23.5217266082764,39.437255859375 23.671875,41.1328125 23.2580547332764,42.366943359375 22.0166015625,43.1982421875 20.709228515625,43.707275390625 20.09765625,43.974609375 21.474609375,43.7255859375 22.646484375,43.564453125 23.4228515625,43.6669921875 24.31640625,44.00390625 24.6533203125,43.7841796875 24.7265625,43.359375 24.2578125,42.65625 24.052734375,40.78125 23.994140625,38.90625 23.994140625,35.15625 23.9501953125,33.427734375 23.7890625,31.69921875 22.32421875,31.69921875z M17.431640625,31.69921875L17.080078125,33.603515625 16.9921875,35.56640625 16.9921875,37.03125 16.7724609375,39.8291015625 16.0546875,42.24609375 15.87890625,42.48046875 14.267578125,43.212890625 11.689453125,43.974609375 12.24609375,43.88671875 13.212890625,43.740234375 14.150390625,43.59375 14.736328125,43.53515625 15.146484375,43.7109375 15.4833984375,43.9306640625 15.9375,44.033203125 16.435546875,43.65234375 16.58203125,43.0078125 16.669921875,42.0703125 17.8564453125,36.6943359375 18.526611328125,33.958740234375 18.92578125,31.69921875 17.431640625,31.69921875z M24.990234375,26.748046875L24.990234375,27.12890625 25.166015625,27.01171875 25.3125,26.89453125 25.166015625,26.8359375 24.990234375,26.748046875z M22.998046875,20.419921875L18.955078125,20.830078125 17.63671875,30.76171875 23.759765625,30.76171875 23.96484375,28.6962890625 24.052734375,26.337890625 23.818359375,23.1005859375 22.998046875,20.419921875z M24.521484375,14.208984375L23.876953125,16.9775390625 23.73046875,19.833984375 24.66796875,22.6171875 24.990234375,25.751953125 25.3271484375,25.25390625 25.6640625,24.873046875 25.8837871551514,23.653564453125 26.015625,22.0458984375 26.103515625,18.955078125 25.927734375,18.1787109375 25.693359375,17.431640625 24.521484375,14.208984375z M2.8125,11.484375L2.724609375,12.421875 2.958984375,12.3193359375 3.076171875,12.099609375 2.9736328125,11.6748046875 2.8125,11.484375z M0.966796875,6.4453125L1.11328101158142,9.19921875 2.13867211341858,9.697265625 0.966796875,6.4453125z M18.92578125,3.955078125L19.482421875,4.306640625 18.720703125,4.6875 18.57421875,4.51171875 18.603515625,4.306640625 18.92578125,3.955078125z M18.486328125,3.10546875L18.1494140625,4.248046875 17.666015625,5.361328125 17.87109375,5.537109375 18.076171875,5.7421875 18.076171875,6.9140625 19.5263671875,7.5146484375 20.009765625,8.4375 20.009765625,8.73046875 19.951171875,9.0234375 19.775390625,9.228515625 19.599609375,9.4921875 17.618408203125,10.264892578125 15.4248046875,11.9384765625 13.4216299057007,13.5754413604736 12.01171875,14.23828125 11.513671875,14.12109375 9.931640625,13.65234375 9.43359375,13.53515625 8.671875,13.359375 6.474609375,12.802734375 5.68359375,12.626953125 5.2587890625,12.4951171875 5.009765625,12.3046875 4.775390625,12.041015625 4.21875,11.630859375 3.544921875,11.396484375 3.720703125,11.7041015625 3.75,12.12890625 3.515625,12.626953125 2.900390625,12.890625 3.45703125,12.83203125 4.1015625,12.71484375 4.833984375,12.509765625 5.68359375,12.802734375 8.8037109375,14.0625 10.5065908432007,14.5459003448486 11.77734375,14.70703125 12.158203125,14.70703125 15.05859375,13.8134765625 17.75390625,12.01171875 18.544921875,12.36328125 19.130859375,18.57421875 19.130859375,19.21875 19.072265625,19.86328125 22.79296875,19.51171875 23.0859375,15.9375 24.2578125,12.568359375 25.107421875,12.65625 25.546875,14.208984375 26.162109375,15.732421875 26.7919921875,17.548828125 27.099609375,19.423828125 27.099609375,20.068359375 27.0483379364014,21.295166015625 26.89453125,23.0419921875 26.6271953582764,24.60205078125 26.2353515625,25.2685546875 25.60546875,26.162109375 25.95703125,26.30859375 26.044921875,26.015625 26.162109375,25.78125 26.3671875,25.576171875 26.3671875,26.103515625 26.162109375,26.6162109375 25.6640625,27.216796875 26.162109375,27.451171875 26.3671875,26.982421875 26.6162109375,26.337890625 26.8359375,25.341796875 26.953125,24.580078125 27.0703125,23.408203125 27.3779296875,21.09375 27.451171875,19.16015625 26.9677734375,15.322265625 26.0302734375,11.54296875 24.9865703582764,10.1953125 22.763671875,9.4921875 22.32421875,8.935546875 22.32421875,8.818359375 21.240234375,7.763671875 20.478515625,6.4453125 20.712890625,5.771484375 21.15234375,5.595703125 21.4453125,5.2734375 21.328125,5.15625 21.005859375,5.244140625 20.7421875,4.98046875 20.419921875,4.6875 20.478515625,4.3359375 20.419921875,4.21875 19.716796875,3.6181640625 18.955078125,3.28125 18.486328125,3.10546875z M21.767578125,0.9375L20.0390625,1.259765625 18.75,2.16796875 20.6103515625,3.076171875 21.38671875,4.306640625 21.50390625,4.306640625 21.708984375,4.27734375 22.2802734375,4.5556640625 22.44140625,5.15625 22.1630859375,5.9033203125 21.533203125,6.4453125 22.03125,7.265625 22.705078125,7.96875 23.994140625,6.03515625 24.55078125,3.720703125 23.876953125,1.69921875 23.0126934051514,1.1279296875 21.767578125,0.9375z M21.62109375,0L23.1665019989014,0.22705078125 24.404296875,0.908203125 25.2172832489014,2.01416015625 25.48828125,3.515625 24.8583984375,6.240234375 23.349609375,8.642578125 25.8984375,9.6533203125 26.8688945770264,11.165771484375 27.6708984375,14.091796875 28.2092266082764,17.1752948760986 28.388671875,19.16015625 28.154296875,22.0458984375 27.9785137176514,23.280029296875 27.919921875,23.671875 27.890625,23.90625 27.71484375,25.048828125 27.275390625,26.7919921875 26.484375,28.2421875 26.07421875,28.41796875 24.9609375,27.978515625 24.8071269989014,29.974365234375 24.697265625,30.8056640625 24.6716289520264,31.248779296875 24.7705078125,32.080078125 24.8913555145264,33.3251953125 24.931640625,35.009765625 24.90234375,36.4453125 24.873046875,37.67578125 24.873046875,38.818359375 24.9169921875,40.576171875 25.078125,42.333984375 25.6640625,43.59375 25.3125,44.5166015625 24.375,44.94140625 23.7744140625,44.7802734375 23.14453125,44.47265625 19.453125,44.94140625 19.013671875,44.560546875 18.92578125,44.2529296875 18.896484375,44.091796875 18.955078125,43.76953125 19.39453125,43.341064453125 20.478515625,42.8759765625 22.79296875,41.484375 22.6245098114014,39.287109375 22.119140625,36.5625 21.59912109375,33.8525390625 21.38671875,31.69921875 19.892578125,31.69921875 19.482421875,33.92578125 19.32861328125,34.65087890625 19.04296875,35.830078125 18.193359375,39.169921875 17.98828125,40.048828125 17.8125,40.927734375 17.7392578125,41.510009765625 17.51953125,43.0224609375 16.9921875,44.505615234375 15.99609375,45 15.263671875,44.853515625 14.58984375,44.47265625 12.978515625,44.677734375 11.396484375,44.8828125 10.224609375,44.677734375 9.990234375,44.00390625 10.107421875,43.76953125 10.341796875,43.65234375 10.83984375,43.447265625 13.1689453125,42.83203125 15.322265625,41.77734375 15.908203125,39.755859375 16.083984375,37.412109375 16.083984375,35.068359375 16.1865234375,33.0615234375 16.640625,31.142578125 17.373046875,25.8984375 18.076171875,20.625 17.6953125,20.68359375 17.314453125,20.712890625 16.3330078125,20.5078125 15.9375,19.98046875 16.171875,19.5410175323486 16.875,19.39453125 17.5634765625,19.5703125 18.1640625,19.951171875 18.251953125,19.04296875 18.251953125,17.6953125 17.98828125,15.5126953125 17.666015625,13.359375 14.736328125,14.94140625 11.6015625,15.5859375 8.4375,14.94140625 4.8046875,13.30078125 2.958984375,13.59375 2.13867211341858,13.4033203125 1.90429663658142,12.685546875 1.94824194908142,12.1728515625 2.13867211341858,11.1328125 1.96289086341858,10.634765625 1.90429663658142,10.4296875 0.439453125,9.755859375 0,1.69921875 0.673827886581421,3.544921875 3.22265625,10.6640625 3.28125,10.6640625 4.5703125,11.044921875 5.595703125,11.953125 8.7744140625,12.5244140625 11.923828125,13.271484375 13.5131826400757,12.3815927505493 15.3515625,10.8837890625 17.26318359375,9.415283203125 19.072265625,8.61328125 19.1015625,8.466796875 19.1015625,8.349609375 18.28125,7.8515625 17.28515625,7.5 17.138671875,7.060546875 17.138671875,6.2109375 17.080078125,6.2109375 16.640625,5.654296875 17.1240234375,4.1162109375 17.607421875,2.51953125 17.666015625,2.197265625 19.2333984375,0.556640625 21.62109375,0z" />
    </g>
  </g>
</svg>