<?xml version="1.0" encoding="utf-8"?>
<!DOCTYPE svg PUBLIC "-//W3C//DTD SVG 1.1//EN" "http://www.w3.org/Graphics/SVG/1.1/DTD/svg11.dtd">
<svg width="20.4492187500011" height="44.970703125" xmlns="http://www.w3.org/2000/svg" xmlns:xlink="http://www.w3.org/1999/xlink" xmlns:xml="http://www.w3.org/XML/1998/namespace" version="1.1">
  <g>
    <g>
      <path style="fill:#FF0000;fill-opacity:1" d="M12.568359375,31.669921875L13.125,35.4931640625 13.798828125,39.31640625 14.00390625,40.78125 14.033203125,41.1328125 13.5681142807007,42.330322265625 12.1728515625,43.2275390625 10.740966796875,43.802490234375 10.166015625,44.033203125 11.6015625,43.7255859375 12.890625,43.53515625 13.6669921875,43.6376953125 14.560546875,43.974609375 14.8974609375,43.76953125 14.970703125,43.330078125 14.853515625,43.06640625 14.58984375,42.890625 14.443359375,42.626953125 14.1943359375,40.1513671875 14.150390625,37.646484375 14.150390625,33.251953125 14.150390625,32.4462890625 14.0625,31.669921875 12.568359375,31.669921875z M7.67578125,31.669921875L7.353515625,33.69140625 7.3095703125,35.11962890625 7.294921875,37.001953125 7.1484375,39.66796875 6.38671875,42.216796875 6.2109375,42.451171875 5.5078125,42.83203125 4.51171875,43.212890625 3.369140625,43.59375 2.16796827316284,43.9453125 2.6953125,43.828125 4.423828125,43.564453125 4.98046875,43.505859375 5.5078125,43.76953125 6.09375,43.974609375 6.646728515625,43.63037109375 6.8994140625,42.59765625 7.529296875,39.140625 8.14453125,36.650390625 8.7158203125,34.1748046875 9.169921875,31.669921875 7.67578125,31.669921875z M13.2421875,20.390625L10.869140625,20.625 9.19921875,20.80078125 7.880859375,30.732421875 14.033203125,30.732421875 14.2236328125,28.740234375 14.296875,26.396484375 14.0625,23.0712890625 13.2421875,20.390625z M13.271484375,3.6328125L13.59375,3.984375 13.623046875,4.189453125 13.4765625,4.365234375 12.71484375,3.984375 13.271484375,3.6328125z M10.72265625,0.9375L8.671875,1.611328125 7.939453125,3.57421875 8.37890625,5.4345703125 9.462890625,6.97265625 10.166015625,7.734375 10.166015625,8.994140625 9.990234375,9.19921875 9.814453125,9.462890625 9.228515625,9.66796875 8.73046875,9.873046875 8.291015625,10.078125 6.650390625,11.8505859375 5.537109375,14.94140625 4.98046875,17.021484375 3.900146484375,20.126953125 2.4169921875,22.587890625 1.15356433391571,24.5068359375 0.73242175579071,25.986328125 0.73242175579071,26.30859375 0.76171863079071,26.513671875 0.93749988079071,26.54296875 1.11328136920929,25.5908203125 1.46484339237213,24.84375 1.96289026737213,25.810546875 2.05078125,25.576171875 1.78710949420929,24.19921875 3.64746046066284,21.6357421875 5.36132764816284,18.486328125 6.03515577316284,16.34765625 6.8115234375,14.150390625 7.8515625,12.333984375 8.7890625,12.333984375 9.08203125,15.52734375 9.375,18.57421875 9.375,19.189453125 9.31640625,19.833984375 13.037109375,19.482421875 13.388671875,15.64453125 13.7988271713257,13.9453144073486 14.326171875,12.71484375 15,12.5390625 16.1279296875,13.4838886260986 17.109375,15.205078125 17.81982421875,16.9628925323486 18.134765625,18.017578125 18.251953125,18.75 18.33984375,19.4677734375 18.369140625,19.98046875 18.45703125,23.9794921875 18.6474609375,25.513916015625 19.04296875,26.630859375 19.482421875,26.337890625 19.1162109375,25.7958984375 18.896484375,24.90234375 19.21875,25.01953125 19.51171875,25.3125 19.541015625,25.283203125 19.62890625,25.224609375 19.365234375,24.6533203125 18.837890625,24.287109375 18.8671875,22.91015625 18.8671875,21.181640625 18.80859375,18.720703125 17.9296875,14.9267578125 16.11328125,11.2939453125 14.82421875,10.081787109375 13.0078125,9.462890625 12.568359375,9.08203125 12.5390625,8.759765625 12.509765625,8.466796875 12.7258291244507,7.562255859375 13.3740234375,7.1337890625 14.4140625,6.884765625 14.4140625,5.80078125 14.82421875,5.2734375 14.70703125,4.98046875 14.501953125,4.599609375 13.974609375,3.046875 13.857421875,2.4609375 13.76953125,2.109375 12.4951171875,1.2158203125 10.72265625,0.9375z M11.015625,0L13.4033203125,0.52734375 14.853515625,2.255859375 15.0146484375,3.251953125 15.3515625,4.072265625 15.703125,4.86328125 15.849609375,5.712890625 15.5859375,5.947265625 15.3515625,6.181640625 15.3515625,7.119140625 15.146484375,7.5 14.2236328125,7.8515625 13.388671875,8.232421875 13.388671875,8.37890625 13.41796875,8.583984375 15.509033203125,9.510498046875 17.3291015625,11.7626953125 18.746337890625,14.7546405792236 19.62890625,17.900390625 19.6875,18.515625 19.716796875,19.248046875 19.6875,20.91796875 19.62890625,22.32421875 19.716796875,23.96484375 20.0830078125,24.5654296875 20.44921875,25.166015625 20.15625,25.576171875 19.775390625,25.693359375 20.2734375,26.396484375 19.423828125,27.36328125 18.92578125,27.48046875 18.779296875,27.392578125 18.662109375,27.3046875 18.515625,27.24609375 17.9296875,25.5322265625 17.666015625,23.02734375 17.666015625,22.08984375 17.57080078125,20.1452655792236 17.40234375,18.7060546875 16.4208984375,15.7470703125 15.662841796875,14.3151874542236 14.94140625,13.564453125 14.2236328125,16.4794921875 13.974609375,19.775390625 14.970703125,22.880859375 15.234375,26.455078125 15.05859375,29.8681640625 14.952392578125,31.131591796875 14.9853515625,31.669921875 15.062255859375,32.3291015625 15.087890625,33.955078125 15.05859375,36.2109375 15.05859375,37.734375 15.1171875,40.01953125 15.3515625,42.3046875 15.908203125,43.505859375 15.6005859375,44.3701171875 14.619140625,44.912109375 14.00390625,44.736328125 13.388671875,44.443359375 9.697265625,44.912109375 9.2578125,44.53125 9.169921875,44.2236328125 9.140625,44.0625 9.19921875,43.740234375 9.66064453125,43.26416015625 10.869140625,42.7734375 12.2021474838257,42.19482421875 13.037109375,41.455078125 12.8686513900757,39.2578125 12.36328125,36.533203125 11.8432607650757,33.8232421875 11.630859375,31.669921875 10.13671875,31.669921875 9.9609375,32.6953125 9.6826171875,34.1015625 9.345703125,35.625 8.5546875,38.759765625 7.79296875,42.8173828125 7.24365234375,44.432373046875 6.24023389816284,44.970703125 5.5078125,44.82421875 4.833984375,44.443359375 3.22265625,44.6484375 1.66992175579071,44.853515625 0.46875,44.6484375 0.234375,43.974609375 0.351562142372131,43.740234375 1.33666980266571,43.388671875 2.8271484375,42.978515625 5.56640577316284,41.748046875 6.2109375,39.6240234375 6.357421875,37.3828125 6.328125,36.5625 6.328125,35.0390625 6.4306640625,33.0322265625 6.884765625,31.11328125 7.32421875,27.978515625 7.79296875,24.521484375 7.994384765625,23.12255859375 8.2470703125,21.328125 8.455810546875,19.5483417510986 8.525390625,18.193359375 8.3349609375,15.8642578125 8.056640625,13.9453125 7.353515625,15.2783203125 6.85546875,16.787109375 6.38671875,18.45703125 4.74609375,21.6796875 2.578125,24.55078125 2.66601610183716,25.13671875 2.724609375,25.6640625 2.75390625,26.220703125 2.431640625,26.54296875 2.13867139816284,26.54296875 2.05078125,26.30859375 1.90429651737213,26.19140625 1.69921839237213,26.103515625 1.58203136920929,26.54296875 1.55273449420929,27.1875 0.585937142372131,27.421875 0.234375,27.333984375 0.117187142372131,26.806640625 0.029296875,26.2646484375 0,25.634765625 0.26367175579071,24.404296875 1.05468714237213,22.998046875 2.7099609375,20.4345703125 3.7353515625,17.900390625 4.2333984375,16.1755390167236 4.8779296875,13.9306640625 5.65795850753784,11.810302734375 6.5625,10.458984375 8.2763671875,9.19921875 9.111328125,8.61328125 9.111328125,8.02734375 7.646484375,5.9765625 6.97265625,3.603515625 7.247314453125,2.054443359375 8.0712890625,0.922852039337158 9.356689453125,0.230712950229645 11.015625,0z" />
    </g>
  </g>
</svg>