<?xml version="1.0" encoding="utf-8"?>
<!DOCTYPE svg PUBLIC "-//W3C//DTD SVG 1.1//EN" "http://www.w3.org/Graphics/SVG/1.1/DTD/svg11.dtd">
<svg width="29.58984375" height="44.8828125" xmlns="http://www.w3.org/2000/svg" xmlns:xlink="http://www.w3.org/1999/xlink" xmlns:xml="http://www.w3.org/XML/1998/namespace" version="1.1">
  <g>
    <g>
      <path style="fill:#FF0000;fill-opacity:1" d="M8.3203125,40.6640625L8.199462890625,42.1435546875 7.83691358566284,43.0078125 6.97631788253784,43.54248046875 5.36132764816284,44.033203125 9.052734375,43.9453125 9.052734375,43.798828125 8.7890625,42.83203125 8.642578125,41.865234375 8.671875,41.25 8.73046875,40.6640625 8.3203125,40.6640625z M6.29882764816284,40.6640625L6.07910060882568,41.4697265625 6.005859375,42.275390625 6.1669921875,42.6416015625 6.32812452316284,43.037109375 7.23632764816284,42.421875 7.38281202316284,41.54296875 7.38281202316284,40.6640625 6.29882764816284,40.6640625z M4.98046875,40.6640625L4.70947170257568,42.099609375 4.072265625,43.125 1.78710925579071,44.091796875 3.77929639816284,43.974609375 3.80859327316284,43.857421875 3.98437404632568,43.623046875 4.71679639816284,43.4765625 5.27343702316284,43.4765625 5.41992139816284,43.18359375 5.03906202316284,42.01171875 5.12695264816284,41.337890625 5.33203029632568,40.6640625 4.98046875,40.6640625z M8.5546875,27.421875L7.40478467941284,29.326171875 6.47460842132568,31.7578125 5.71288967132568,35.09765625 5.06835889816284,39.7265625 8.7890625,39.7265625 8.84765625,38.26171875 8.818359375,37.265625 9.01611328125,34.05029296875 9.609375,32.197265625 10.56884765625,31.23779296875 11.865234375,30.703125 16.34765625,30.703125 16.34765625,27.861328125 13.41796875,27.685546875 8.5546875,27.421875z M19.3359375,26.3671875L18.779296875,29.0625 19.16015625,30.732421875 19.423828125,31.9921875 19.541015625,32.75390625 19.423828125,33.544921875 19.306640625,34.306640625 19.541015625,34.74609375 20.9326171875,35.6689453125 22.96875,37.412109375 23.02734375,37.265625 22.6538066864014,36.5771484375 21.533203125,35.625 20.36865234375,34.423828125 19.86328125,32.98828125 19.3359375,26.3671875z M28.154296875,24.580078125L24.873046875,25.751953125 24.9609375,26.220703125 24.990234375,26.806640625 24.6862773895264,28.27880859375 23.7744140625,29.53125 20.595703125,31.11328125 20.595703125,32.4609375 21.0791015625,34.0283203125 22.6611328125,35.6689453125 23.4851055145264,36.485595703125 23.759765625,37.32421875 23.5986328125,37.96875 23.056640625,38.26171875 22.646484375,38.14453125 22.119140625,37.6171875 20.643310546875,36.35009765625 19.4970703125,35.654296875 18.760986328125,35.11962890625 18.515625,34.3359375 18.6328125,33.6181640625 18.75,32.841796875 18.6474609375,31.8603515625 18.310546875,30.8203125 17.841796875,32.7978515625 17.607421875,34.921875 17.900390625,35.859375 18.779296875,36.884765625 19.248046875,37.353515625 19.599609375,37.7783203125 19.74609375,38.232421875 19.6435546875,38.7158203125 19.423828125,38.935546875 18.984375,39.052734375 18.251953125,38.525390625 17.607421875,38.056640625 17.05078125,37.705078125 15.8349609375,37.0751953125 15.087890625,36.15234375 15.146484375,35.859375 15.263671875,35.56640625 15.439453125,35.2734375 15.5859375,34.62890625 16.11328125,32.255859375 16.259765625,31.640625 13.037109375,31.640625 13.037109375,43.9453125 25.810546875,43.9453125 25.810546875,33.1640625 26.25,32.607421875 28.154296875,32.607421875 28.154296875,24.580078125z M7.44140577316284,23.642578125L7.44140577316284,24.814453125 7.83691358566284,25.7373046875 8.525390625,26.484375 12.275390625,26.66015625 16.435546875,26.89453125 16.81640625,25.2392578125 17.4609375,23.642578125 7.44140577316284,23.642578125z M18.515625,23.61328125L17.6513671875,25.2685546875 17.109375,27.421875 17.109375,31.142578125 16.025390625,36.09375 16.4208984375,36.50390625 17.197265625,36.943359375 17.98828125,37.5 18.896484375,38.14453125 18.310546875,37.32421875 17.63671875,36.650390625 17.0947265625,35.947265625 16.875,35.009765625 16.875,34.658203125 16.904296875,34.51171875 16.9921875,33.720703125 17.2265625,32.314453125 17.51953125,30.556640625 17.87109375,28.65234375 18.837890625,23.671875 18.515625,23.61328125z M13.828125,21.123046875L12.7734375,21.796875 13.59375,21.767578125 15.8056640625,21.62109375 17.2265625,21.26953125 17.51953125,21.123046875 13.828125,21.123046875z M11.630859375,21.123046875L11.19140625,21.357421875 11.396484375,21.767578125 12.421875,21.123046875 11.630859375,21.123046875z M10.01953125,19.013671875L10.751953125,20.68359375 11.279296875,20.478515625 10.01953125,19.013671875z M23.4375,18.662109375L21.5771484375,20.7421875 19.39453125,22.880859375 19.8193359375,23.203125 20.009765625,23.759765625 20.0390625,23.96484375 20.126953125,24.7265625 20.537109375,30.1171875 22.998046875,28.8134765625 23.7670879364014,27.725830078125 24.0234375,26.484375 23.994140625,26.07421875 23.90625,25.60546875 23.701171875,23.5546875 23.5546875,21.26953125 23.4375,18.662109375z M3.33984327316284,17.87109375L2.68066310882568,19.7900390625 2.34374952316284,21.708984375 2.63671827316284,22.55859375 3.07617092132568,24.0234375 3.63281154632568,25.72265625 4.189453125,27.333984375 4.13085889816284,27.626953125 3.98437404632568,28.125 3.74999904632568,28.828125 3.92578077316284,29.501953125 4.24804639816284,28.330078125 4.86328125,29.619140625 5.27343702316284,29.47265625 2.57812452316284,21.884765625 2.54882764816284,21.591796875 2.6513671875,20.8154296875 2.90039014816284,19.86328125 3.22265577316284,18.896484375 3.515625,18.076171875 3.33984327316284,17.87109375z M9.7265625,17.021484375L9.7265625,17.783203125 12.01171875,20.44921875 17.9296875,20.44921875 18.251953125,20.068359375 12.24609375,20.068359375 11.279296875,18.896484375 9.7265625,17.021484375z M19.248046875,16.69921875L19.51171875,18.92578125 21.26953125,16.69921875 19.248046875,16.69921875z M17.138671875,15.8203125L14.912109375,19.39453125 18.662109375,19.39453125 18.310546875,16.5234375 17.138671875,15.8203125z M16.376953125,13.76953125L13.30078125,19.39453125 13.828125,19.39453125 16.81640625,14.70703125 16.376953125,13.76953125z M4.45312452316284,9.55078125L3.14941358566284,10.0634765625 2.54882764816284,11.279296875 2.73925733566284,12.1472177505493 3.31054639816284,12.8759765625 5.12695264816284,13.740234375 5.27343702316284,14.560546875 4.24804639816284,15.5712890625 3.69140577316284,16.875 4.45312452316284,17.666015625 4.51171827316284,17.75390625 4.76074123382568,18.1274433135986 5.33203029632568,19.072265625 6.76757764816284,21.73828125 7.08984327316284,21.767578125 7.26562452316284,21.767578125 7.06054639816284,21.62109375 7.35351514816284,20.80078125 8.4521484375,21.0791015625 9.404296875,21.708984375 10.37109375,21.708984375 8.84765625,18.193359375 8.642578125,17.109375 8.671875,16.494140625 8.73046875,15.849609375 8.4375,15.46875 7.79296827316284,14.6923828125 6.67968702316284,14.091796875 6.09374952316284,14.1796875 5.97656202316284,13.828125 6.005859375,13.76953125 5.91796827316284,13.41796875 6.35742092132568,13.037109375 6.70898389816284,12.5390625 6.41601514816284,12.24609375 6.26953077316284,11.8359375 6.65039014816284,11.162109375 5.63964796066284,10.0927734375 4.45312452316284,9.55078125z M18.369140625,4.16015625L19.189453125,4.716796875 18.45703125,5.0390625 18.134765625,4.541015625 18.369140625,4.16015625z M17.9296875,3.3984375L17.431640625,4.5703125 16.875,5.654296875 17.109375,5.68359375 17.28515625,5.68359375 17.75390625,6.298828125 17.6513671875,6.9580078125 17.607421875,7.646484375 18.076171875,7.8515625 18.544921875,7.8515625 19.6728515625,8.173828125 20.079345703125,8.6865234375 20.21484375,9.580078125 20.09765625,11.015625 19.775390625,11.337890625 18.22265625,11.806640625 16.93359375,12.83203125 17.8271484375,14.912109375 18.69140625,15.615234375 22.119140625,15.615234375 22.587890625,15.029296875 23.02734375,14.4140625 23.818359375,14.94140625 21.4013671875,18.1201171875 19.1015625,21.064453125 17.5048828125,22.119140625 14.8828125,22.470703125 9.404296875,22.470703125 7.96874952316284,21.50390625 8.583984375,22.294921875 7.64648389816284,22.3828125 7.47070264816284,22.8515625 17.98828125,22.8515625 20.599365234375,20.438232421875 23.1005859375,17.5341796875 25.0012187957764,14.6887226104736 25.810546875,12.451171875 24.462890625,11.71875 21.943359375,11.396484375 20.80078125,11.30859375 20.712890625,11.162109375 20.56640625,11.015625 20.68359375,9.228515625 21.1669921875,7.32421875 22.294921875,5.8740234375 22.939453125,5.009765625 22.8515625,4.5263671875 22.529296875,4.306640625 22.5,4.365234375 22.470703125,4.39453125 21.85546875,4.6875 20.625,4.27734375 19.39453125,3.8671875 17.9296875,3.3984375z M20.9765625,0.908203125L19.43115234375,1.318359375 18.369140625,2.548828125 21.796875,3.662109375 22.44140625,3.28125 23.37890625,3.80859375 23.876953125,5.185546875 23.7451171875,5.7861328125 23.408203125,6.2109375 22.91015625,6.62109375 22.0751953125,7.67578125 21.763916015625,8.6865234375 21.5625,10.4296875 22.236328125,10.458984375 24.2907695770264,10.682373046875 25.5908203125,11.0595703125 26.77734375,12.421875 26.1767578125,14.4580078125 24.84375,16.552734375 28.623046875,16.552734375 28.4765625,14.82421875 28.359375,13.095703125 27.978515625,8.7744140625 26.8212890625,4.7900390625 25.6970195770264,3.0322265625 24.169921875,1.8310546875 22.50732421875,1.138916015625 20.9765625,0.908203125z M21.064453125,0L22.6318359375,0.216064453125 24.462890625,0.8642578125 26.2463359832764,2.18994140625 27.6708984375,4.4384765625 28.6633281707764,7.430419921875 29.150390625,10.986328125 29.443359375,15 29.58984375,17.021484375 29.326171875,17.255859375 29.091796875,17.490234375 24.375,17.490234375 24.43359375,21.123046875 24.7265625,24.755859375 26.6015625,23.9501953125 28.59375,23.642578125 28.828125,23.876953125 29.091796875,24.111328125 29.091796875,33.076171875 28.828125,33.310546875 28.59375,33.544921875 26.748046875,33.544921875 26.748046875,44.4140625 26.484375,44.6484375 26.25,44.8828125 12.5390625,44.8828125 12.099609375,44.326171875 12.099609375,31.69921875 10.517578125,32.548828125 9.84375,34.39453125 9.7265625,39.4921875 9.66796875,40.828857421875 9.609375,41.6162109375 9.755859375,42.7880859375 9.9609375,43.9453125 9.7119140625,44.619140625 8.759765625,44.8828125 0.732421517372131,44.8828125 0.146483898162842,44.677734375 0,44.23828125 0.589599251747131,43.57177734375 2.00683546066284,43.330078125 3.43139600753784,42.623291015625 4.04296827316284,40.5615234375 4.36889600753784,37.474365234375 4.93652248382568,33.69140625 5.97289943695068,29.94140625 7.70507764816284,26.953125 6.76757764816284,25.634765625 6.52587842941284,24.70458984375 6.44531202316284,23.26171875 5.33203029632568,20.8447265625 4.16015577316284,18.955078125 3.6767578125,20.771484375 3.55590772628784,21.500244140625 3.515625,21.8115234375 3.62548780441284,22.261962890625 3.955078125,23.408203125 4.89257717132568,26.25 5.53710889816284,27.978515625 5.94726514816284,29.765625 5.771484375,29.970703125 5.59570264816284,30.234375 5.30273389816284,30.29296875 4.98046875,30.380859375 4.45312452316284,30.146484375 4.33593702316284,29.94140625 4.189453125,30.087890625 4.04296827316284,30.234375 3.38378858566284,29.7802734375 3.1640625,28.65234375 3.23730373382568,28.0224609375 3.42773389816284,27.392578125 2.021484375,23.8037109375 1.53808557987213,22.320556640625 1.37695252895355,21.533203125 1.52343714237213,20.4638671875 1.90429675579071,19.16015625 2.69531202316284,16.81640625 3.19335842132568,15.52734375 3.98437404632568,14.384765625 2.32910108566284,13.1689453125 1.66992175579071,11.19140625 1.92993116378784,10.18798828125 2.59277296066284,9.345703125 3.49731397628784,8.7744140625 4.48242139816284,8.583984375 5.888671875,9.0673828125 6.70898389816284,9.803466796875 7.76367139816284,11.044921875 7.49999952316284,11.806640625 7.38281202316284,11.865234375 7.61718702316284,12.1875 7.70507764816284,12.59765625 7.38281202316284,13.212890625 8.0859375,13.681640625 8.818359375,14.443359375 12.509765625,19.072265625 15.99609375,12.392578125 16.025390625,12.392578125 17.5048828125,11.1767578125 19.248046875,10.458984375 19.3359375,10.0048828125 19.365234375,9.55078125 19.248046875,8.994140625 17.724609375,8.73046875 16.93359375,8.349609375 16.669921875,7.3828125 16.7578125,6.62109375 16.0986328125,6.4892578125 15.76171875,5.947265625 15.94482421875,5.460205078125 16.494140625,4.3505859375 17.75390625,1.904296875 19.16015625,0.439453125 21.064453125,0z" />
    </g>
  </g>
</svg>