<?xml version="1.0" encoding="utf-8"?>
<!DOCTYPE svg PUBLIC "-//W3C//DTD SVG 1.1//EN" "http://www.w3.org/Graphics/SVG/1.1/DTD/svg11.dtd">
<svg width="21.298828125" height="44.82421875" xmlns="http://www.w3.org/2000/svg" xmlns:xlink="http://www.w3.org/1999/xlink" xmlns:xml="http://www.w3.org/XML/1998/namespace" version="1.1">
  <g>
    <g>
      <path style="fill:#FF0000;fill-opacity:1" d="M16.58203125,23.466796875L16.259765625,23.5693359375 16.11328125,23.90625 16.11328125,27.83203125 16.025390625,28.125 15.17578125,28.798828125 14.208984375,29.091796875 13.5498046875,28.8720703125 12.890625,27.94921875 12.890625,24.90234375 12.5390625,26.07421875 11.865234375,28.7109375 11.5466299057007,30.054931640625 11.0595703125,32.3876953125 10.382080078125,34.508056640625 9.4921875,35.21484375 8.609619140625,34.62890625 7.1923828125,32.87109375 5.76049757003784,30.823974609375 4.83398389816284,29.3701171875 4.06494140625,28.502197265625 3.10546875,28.212890625 2.21191382408142,28.505859375 1.95922827720642,28.9892578125 1.87499976158142,29.853515625 2.12036108970642,32.325439453125 2.8564453125,34.9951171875 3.592529296875,37.774658203125 3.83789014816284,40.576171875 3.47167921066284,41.3671875 2.63671875,42.1875 1.66992163658142,43.037109375 0.99609375,43.88671875 16.259765625,43.88671875 15.7763671875,42.9931640625 15.615234375,41.89453125 15.6637573242188,41.3992309570313 15.809326171875,40.352783203125 16.0519409179688,38.7551879882813 16.3916015625,36.6064453125 17.061767578125,32.479248046875 17.51953125,29.794921875 17.1826171875,29.091796875 17.080078125,28.41796875 17.080078125,23.96484375 16.9775390625,23.642578125 16.58203125,23.466796875z M10.95703125,15.17578125L11.89453125,15.76171875 10.72265625,16.083984375 10.400390625,15.849609375 10.95703125,15.17578125z M18.779296875,14.8828125L19.833984375,18.720703125 20.244140625,18.544921875 19.599609375,16.845703125 19.1162109375,15.615234375 18.779296875,14.8828125z M10.341796875,14.208984375L10.3125,14.4140625 10.283203125,14.58984375 10.1513671875,15.0732421875 9.78515625,15.732421875 9.140625,16.552734375 9.697265625,16.8017578125 9.90234375,17.40234375 9.8291015625,17.7392578125 9.755859375,18.046875 9.78515625,18.33984375 9.814453125,18.45703125 11.7919921875,19.1015625 13.06640625,20.5078125 13.5314931869507,18.4423847198486 14.1064453125,17.2265625 14.736328125,16.0546875 14.6337890625,15.76171875 14.35546875,15.615234375 14.0625,15.76171875 13.974609375,15.908203125 13.4765625,15.9375 11.953125,14.8388671875 10.341796875,14.208984375z M19.013671875,11.923828125L18.193359375,13.037109375 19.306640625,12.1875 19.013671875,11.923828125z M13.271484375,11.748046875L11.6748046875,12.1875 10.458984375,13.330078125 12.1728515625,13.9453125 13.76953125,14.912109375 14.443359375,14.70703125 15.263671875,15.087890625 15.5859375,15.99609375 14.970703125,17.3876953125 14.43603515625,18.2519550323486 14.0625,19.5263671875 13.76953125,22.763671875 13.76953125,27.744140625 13.88671875,27.9931640625 14.23828125,28.154296875 14.70703125,28.0078125 15.17578125,27.626953125 15.17578125,23.96484375 15.6298828125,22.8369140625 16.552734375,22.5 17.5634765625,22.8662109375 17.98828125,23.876953125 17.98828125,28.30078125 18.017578125,28.505859375 18.1494140625,28.974609375 18.57421875,29.208984375 18.80859375,29.0625 18.955078125,28.857421875 18.955078125,19.39453125 18.251953125,16.611328125 17.578125,13.88671875 17.2265625,13.505859375 16.1865234375,12.24609375 15.274658203125,11.87255859375 13.271484375,11.748046875z M17.34375,0.87890625L16.190185546875,1.34765625 15.5419921875,2.75390625 15.194091796875,4.39453125 14.94140625,5.56640625 14.296875,8.671875 15.17578125,8.3349609375 16.171875,8.26171875 16.611328125,2.6953125 16.845703125,2.51953125 17.05078125,2.314453125 17.75390625,2.05078125 17.9296875,1.376953125 17.724609375,1.0400390625 17.34375,0.87890625z M17.28515625,0L18.4716796875,0.498046875 18.896484375,1.58203125 18.5595703125,2.5927734375 17.51953125,3.22265625 17.255859375,6.2841796875 17.05078125,8.90625 16.435546875,9.169921875 15.8203125,9.169921875 15.1904296875,9.287109375 14.6484375,9.638671875 14.35546875,10.810546875 16.201171875,11.1474609375 17.607421875,12.421875 18.544921875,11.044921875 19.3359375,10.986328125 20.2734375,11.953125 20.15625,12.626953125 18.69140625,13.65234375 19.647216796875,14.8571796417236 20.4638671875,16.5380859375 21.046142578125,18.0358905792236 21.298828125,18.69140625 20.9765625,19.306640625 19.892578125,19.658203125 19.892578125,28.76953125 19.453125,29.765625 18.427734375,30.146484375 17.490234375,35.830078125 17.33642578125,36.73095703125 16.9921875,38.84765625 16.66259765625,40.95703125 16.552734375,41.8359375 16.73583984375,42.89794921875 17.28515625,43.447265625 18.017578125,44.35546875 17.8271484375,44.5166015625 17.666015625,44.677734375 17.51953125,44.82421875 0.49804675579071,44.82421875 0.29296875,44.70703125 0.1171875,44.58984375 0,44.12109375 0.333251953125,43.150634765625 1.3330078125,41.9970703125 2.391357421875,40.982666015625 2.900390625,40.4296875 2.666015625,37.965087890625 1.96289038658142,35.2001953125 1.259765625,32.413330078125 1.025390625,29.8828125 1.47949194908142,28.0224609375 2.13500952720642,27.528076171875 3.193359375,27.36328125 4.46044874191284,27.71484375 5.50781297683716,28.76953125 7.3388671875,31.58203125 9.462890625,34.21875 10.059814453125,32.713623046875 10.5615234375,30.2490234375 11.3415517807007,26.773681640625 12.7734375,22.236328125 12.2863759994507,20.9619140625 11.6455078125,20.068359375 9.4921875,19.306640625 9.287109375,19.189453125 9.111328125,19.072265625 8.876953125,18.5595703125 8.7890625,17.958984375 8.90625,17.4609375 8.73046875,17.431640625 8.525390625,17.431640625 8.0859375,16.875 8.7451171875,15.703125 9.3603515625,14.8095703125 9.462890625,13.65234375 9.744873046875,12.6306161880493 10.5908203125,11.7333984375 11.7370595932007,11.092529296875 12.919921875,10.83984375 14.70703125,2.2265625 15.6298828125,0.64453125 17.28515625,0z" />
    </g>
  </g>
</svg>