<?xml version="1.0" encoding="utf-8"?>
<!DOCTYPE svg PUBLIC "-//W3C//DTD SVG 1.1//EN" "http://www.w3.org/Graphics/SVG/1.1/DTD/svg11.dtd">
<svg width="39.873046875" height="41.015625" xmlns="http://www.w3.org/2000/svg" xmlns:xlink="http://www.w3.org/1999/xlink" xmlns:xml="http://www.w3.org/XML/1998/namespace" version="1.1">
  <g>
    <g>
      <path style="fill:#FF0000;fill-opacity:1" d="M37.177734375,32.98828125L35.6689453125,33.870849609375 33.251953125,34.6435546875 30.662841796875,35.291748046875 28.6376953125,35.80078125 26.5759258270264,36.5478515625 23.876953125,37.91015625 22.32421875,38.759765625 21.26953125,39.140625 20.57373046875,38.935546875 19.951171875,38.3203125 19.130859375,36.533203125 18.4130859375,37.6318359375 18.076171875,39.0234375 18.4423828125,39.8291015625 19.306640625,40.078125 19.951171875,40.107421875 23.9318828582764,39.42626953125 28.9013671875,37.3828125 33.621826171875,35.16357421875 36.85546875,33.955078125 37.294921875,34.013671875 37.705078125,34.892578125 37.8515625,36.474609375 37.939453125,38.14453125 37.8515625,39.2431640625 37.44140625,40.078125 38.02734375,39.6826171875 38.408203125,38.701171875 38.3203125,38.056640625 38.26171875,37.44140625 38.935546875,34.27734375 38.6865234375,33.2958984375 38.184814453125,33.065185546875 37.177734375,32.98828125z M37.67578125,26.07421875L35.2532958984375,26.8350219726563 33.37646484375,27.418212890625 32.0452880859375,27.8237915039063 31.259765625,28.0517578125 28.7548828125,29.1064453125 25.6494140625,31.0400390625 22.3828125,33.603515625 19.921875,35.771484375 20.33203125,37.1923828125 21.357421875,38.173828125 26.54296875,35.44921875 29.630126953125,34.4677734375 33.6181640625,33.57421875 35.5599975585938,32.9443359375 36.947021484375,31.904296875 37.7792358398438,30.4541015625 38.056640625,28.59375 37.9541015625,27.3486328125 37.67578125,26.07421875z M1.14257788658142,24.375L3.63281273841858,29.94140625 9.052734375,29.94140625 9.228515625,29.619140625 9.638671875,28.857421875 12.12890625,24.375 1.14257788658142,24.375z M23.203125,6.09375L24.375,6.591796875 23.203125,7.1484375 22.822265625,6.591796875 23.203125,6.09375z M26.513671875,5.068359375L26.162109375,5.302734375 25.986328125,5.537109375 25.6640625,5.7421875 22.08984375,5.15625 21.5771484375,6.9287109375 20.830078125,8.203125 21.9287109375,8.61328125 22.44140625,9.697265625 22.3681640625,10.13671875 22.294921875,10.576171875 22.6611328125,10.869140625 23.3203125,10.927734375 24.345703125,10.8984375 24.78515625,10.869140625 25.01953125,10.869140625 25.5944805145264,11.0632343292236 26.2646484375,11.6455078125 26.982421875,13.095703125 26.6601543426514,13.9563007354736 25.693359375,14.9560546875 23.73046875,17.607421875 23.408203125,18.369140625 22.18505859375,19.888916015625 20.625,22.3974609375 19.248046875,24.774169921875 18.57421875,25.8984375 14.4287109375,27.94921875 10.224609375,29.853515625 9.84375,30.556640625 9.375,30.87890625 5.68359375,30.87890625 5.77148342132568,31.025390625 6.03515625,31.11328125 9.521484375,31.11328125 11.4367666244507,30.201416015625 14.3115234375,29.0478515625 17.244873046875,27.930908203125 19.3359375,27.12890625 25.283203125,19.21875 25.693359375,19.189453125 26.07421875,19.16015625 28.1616191864014,21.434326171875 29.560546875,23.3935546875 30.4248046875,25.235595703125 30.908203125,27.158203125 37.353515625,25.1953125 36.11572265625,21.05712890625 34.453125,17.138671875 30.146484375,9.7265625 28.857421875,9.111328125 27.2021484375,8.0712890625 26.54296875,6.767578125 26.748046875,6.0791015625 27.216796875,5.44921875 26.9091796875,5.2294921875 26.513671875,5.068359375z M26.689453125,0.966796875L23.7890625,1.611328125 22.8515605926514,2.58544921875 22.20703125,4.21875 25.458984375,4.74609375 26.484375,4.16015625 27.59765625,4.599609375 28.18359375,5.419921875 27.8466796875,6.0791015625 27.509765625,6.708984375 27.8393535614014,7.43408203125 28.828125,8.0859375 29.8388652801514,8.55468845367432 30.234375,8.73046875 30.732421875,7.2802734375 30.908203125,5.537109375 30.699462890625,3.702392578125 30.0732421875,2.2412109375 28.8098125457764,1.285400390625 26.689453125,0.966796875z M26.865234375,0L29.0917949676514,0.34423828125 30.615234375,1.376953125 31.494140625,3.046875 31.787109375,5.302734375 31.6259765625,7.353515625 31.0546875,9.228515625 33.544921875,13.447265625 35.7568359375,17.74658203125 37.470703125,22.3828125 38.111572265625,24.5709228515625 38.5693359375,26.33056640625 38.843994140625,27.6617431640625 38.935546875,28.564453125 38.7451171875,30.380859375 37.998046875,32.080078125 38.96484375,32.354736328125 39.521484375,32.9443359375 39.873046875,34.1015625 39.873046875,34.306640625 39.84375,34.541015625 39.345703125,36.005859375 39.111328125,37.5 39.1845703125,38.1005859375 39.2578125,38.671875 38.6865234375,40.3271484375 37.470703125,40.986328125 35.595703125,40.986328125 35.15625,40.4296875 35.4052734375,39.580078125 36.064453125,39.345703125 36.73828125,39.43359375 36.9287109375,39.2138671875 37.03125,38.671875 37.001953125,36.8115234375 36.796875,34.951171875 35.4327392578125,35.438232421875 33.68408203125,36.1669921875 31.5509033203125,37.137451171875 29.033203125,38.349609375 24.0600566864014,40.34912109375 19.98046875,41.015625 17.958984375,40.576171875 17.3876953125,39.96826171875 17.197265625,39.0234375 17.77587890625,36.873779296875 19.51171875,34.8193359375 24.375,30.8349609375 29.970703125,27.48046875 29.5898418426514,25.68603515625 28.798828125,23.935546875 27.5390605926514,22.12646484375 25.751953125,20.15625 24.8034648895264,21.42333984375 23.1884765625,23.583984375 21.419677734375,25.9423828125 20.009765625,27.802734375 17.958984375,28.623046875 13.30078125,30.41015625 11.07421875,31.318359375 10.078125,31.845703125 9.31640625,32.021484375 8.525390625,32.05078125 6.09374904632568,32.05078125 5.1416015625,31.7138671875 4.6875,30.87890625 3.31054663658142,30.87890625 2.92968726158142,30.64453125 0,24.140625 0.175781011581421,23.7890625 0.380858898162842,23.4375 12.890625,23.4375 13.095703125,23.818359375 13.30078125,24.19921875 10.8984375,28.505859375 11.7114248275757,28.150634765625 13.388671875,27.3779296875 15.1025390625,26.575927734375 16.025390625,26.1328125 17.98828125,25.166015625 18.955078125,23.349609375 20.390625,20.8447265625 21.650390625,19.072265625 23.2470703125,16.611328125 24.462890625,14.82421875 25.1953125,14.150390625 25.78125,13.5205078125 26.015625,12.890625 25.5322265625,12.2900390625 24.90234375,11.806640625 22.998046875,11.806640625 21.826171875,11.4990234375 21.416015625,10.458984375 21.4453125,9.9755859375 21.474609375,9.43359375 20.9619140625,9.1552734375 20.2734375,9.111328125 19.833984375,8.5546875 20.5078125,7.0166015625 21.01318359375,6.016845703125 21.181640625,4.51171875 21.650390625,2.933349609375 22.119140625,1.8896484375 22.7966289520264,1.168212890625 23.8916015625,0.556640625 26.865234375,0z" />
    </g>
  </g>
</svg>