<?xml version="1.0" encoding="utf-8"?>
<!DOCTYPE svg PUBLIC "-//W3C//DTD SVG 1.1//EN" "http://www.w3.org/Graphics/SVG/1.1/DTD/svg11.dtd">
<svg width="22.2070312500003" height="45.146484375" xmlns="http://www.w3.org/2000/svg" xmlns:xlink="http://www.w3.org/1999/xlink" xmlns:xml="http://www.w3.org/XML/1998/namespace" version="1.1">
  <g>
    <g>
      <path style="fill:#FF0000;fill-opacity:1" d="M4.51171875,27.041015625L4.248046875,27.099609375 4.13085842132568,27.12890625 4.42382717132568,27.3046875 4.39453125,27.71484375 4.62890625,28.095703125 4.951171875,27.890625 5.36132717132568,27.7734375 5.1123046875,27.421875 4.8046875,27.12890625 4.658203125,27.0703125 4.51171875,27.041015625z M1.5234375,19.8046875L1.02539014816284,20.0537109375 0.791015386581421,20.625 1.02539014816284,21.5771484375 1.93359327316284,22.55859375 2.37304663658142,22.79296875 2.4609375,22.3828125 2.51953125,21.9140625 2.54882740974426,21.357421875 2.29247999191284,20.1928730010986 1.5234375,19.8046875z M18.4130878448486,16.9995136260986L18.544921875,17.28515625 18.80859375,18.69140625 18.1640625,20.859375 16.376953125,22.177734375 15.49072265625,22.94677734375 15.1171875,24.375 14.912109375,24.755859375 14.3774404525757,25.2960205078125 13.9746084213257,26.27197265625 13.7036123275757,27.6837158203125 13.564453125,29.53125 13.5003652572632,31.351318359375 13.4545888900757,32.6806640625 13.4271230697632,33.519287109375 13.41796875,33.8671875 13.271484375,35.1416015625 12.7734375,35.9765625 12.1875,35.947265625 11.1694326400757,34.62890625 10.107421875,32.666015625 9.01611328125,30.732421875 7.91015625,29.501953125 6.86279249191284,28.8427734375 5.947265625,28.623046875 5.244140625,28.88671875 5.09765625,29.384765625 4.4677734375,30.5712890625 4.27734375,31.7578125 4.5263671875,33.365478515625 5.2734375,35.4931640625 6.02050685882568,37.686767578125 6.26953125,39.4921875 6.2109375,40.166015625 5.70556545257568,41.854248046875 4.716796875,42.7001953125 3.75732398033142,43.289794921875 3.33984351158142,44.208984375 21.240234375,44.208984375 20.9619140625,43.428955078125 20.126953125,42.7294921875 19.21875,42.169189453125 18.720703125,41.806640625 18.427734375,41.279296875 19.51171875,36.357421875 20.009765625,31.318359375 19.833984375,28.7109375 20.2734375,28.154296875 21.240234375,28.154296875 21.005859375,24.66796875 20.244140625,19.74609375 18.4130878448486,16.9995136260986z M13.740234375,16.34765625L14.3041982650757,16.5820331573486 15.1171875,17.28515625 13.828125,17.958984375 13.4545888900757,17.7465839385986 13.330078125,17.109375 13.4326162338257,16.5380878448486 13.740234375,16.34765625z M13.681640625,15.849609375L12.3193359375,16.0693359375 11.806640625,16.787109375 11.6015625,17.16796875 10.8984375,17.6513671875 10.3125,18.22265625 12.0666494369507,18.5375995635986 12.7001953125,19.013671875 13.564453125,20.830078125 14.12109375,21.650390625 14.619140625,22.5 14.794921875,22.236328125 15,21.97265625 15.4833984375,21.5771484375 16.0546875,21.26953125 16.611328125,21.005859375 17.5048828125,20.1708984375 17.87109375,18.779296875 17.6513671875,17.6989765167236 16.9921875,16.7431640625 15.99609375,16.0729999542236 14.765625,15.849609375 13.681640625,15.849609375z M16.494140625,11.6015625L15.41015625,12.0556640625 15.05859375,13.0078125 15.4248046875,14.00390625 16.46484375,14.443359375 17.548828125,14.1064453125 17.958984375,13.095703125 17.5634765625,12.0263671875 16.494140625,11.6015625z M15.46875,0.908203125L14.736328125,1.21582078933716 14.1796875,1.875 13.212890625,14.033203125 13.388671875,14.5166015625 13.798828125,14.8828125 14.208984375,14.853515625 15,14.853515625 14.3408203125,13.9892578125 14.12109375,12.919921875 14.7509765625,11.3232421875 16.494140625,10.6640625 18.2666015625,11.3525390625 18.955078125,13.037109375 18.57421875,14.326171875 17.4609375,15.234375 17.900390625,15.380859375 18.369140625,15.1171875 19.1162109375,14.5166015625 19.365234375,13.88671875 19.365234375,1.845703125 18.8525390625,1.23046875 18.10546875,0.9375 17.4755859375,1.27441358566284 16.904296875,1.9921875 16.0546875,1.787109375 15.8642578125,1.24511766433716 15.46875,0.908203125z M15.52734375,0L16.1572265625,0.175780773162842 16.669921875,0.791015148162842 18.22265625,0.05859375 19.10888671875,0.28564453125 19.892578125,0.966796875 20.126953125,1.2890625 20.302734375,1.69921875 20.302734375,13.974609375 19.86328125,15.087890625 18.8671875,15.87890625 19.072265625,16.025390625 19.248046875,16.201171875 20.888671875,18.69140625 21.45263671875,20.8081073760986 21.85546875,24.169921875 21.9140625,25.048828125 22.20703125,28.623046875 21.943359375,28.857421875 21.708984375,29.091796875 20.830078125,29.091796875 20.91796875,30.1904296875 20.947265625,31.259765625 20.478515625,36.26953125 19.423828125,41.162109375 19.991455078125,41.54296875 20.9912109375,42.216796875 21.903076171875,43.2421875 22.20703125,44.677734375 21.943359375,44.912109375 21.708984375,45.146484375 2.81250023841858,45.146484375 2.37304663658142,44.58984375 3.09082007408142,42.685546875 4.833984375,41.484375 5.33203125,39.375 5.08666896820068,37.66845703125 4.3505859375,35.478515625 3.61450171470642,33.2958984375 3.36914038658142,31.611328125 3.57421851158142,30.2490234375 4.365234375,28.798828125 4.10156154632568,28.359375 3.75000023841858,27.919921875 3.83789038658142,27.451171875 3.19335865974426,27.041015625 3.60351538658142,26.455078125 2.57812428474426,24.140625 1.43554663658142,24.78515625 1.05468702316284,23.96484375 2.34374976158142,23.61328125 0.5859375,22.3828125 0,20.771484375 0.439452767372131,19.5556640625 1.5234375,19.072265625 2.88574194908142,19.6142578125 3.42773413658142,21.26953125 3.29589867591858,22.44140625 3.01757788658142,23.408203125 4.248046875,22.763671875 4.658203125,23.583984375 3.19335865974426,23.96484375 4.599609375,26.513671875 4.833984375,26.513671875 5.5517578125,26.9384765625 6.064453125,27.7734375 7.1337890625,27.97119140625 8.232421875,28.564453125 10.13671875,30.8203125 10.810546875,32.080078125 11.54296875,33.3544921875 12.36328125,34.658203125 12.568359375,32.314453125 12.5390625,31.69921875 12.6196279525757,29.110107421875 12.861328125,26.9677734375 13.3520498275757,25.308837890625 14.1796875,24.169921875 13.8647451400757,23.060302734375 13.154296875,21.9580078125 11.89453125,19.51171875 10.8984375,19.2333984375 9.90234375,19.16015625 9.609375,19.04296875 9.31640625,18.3984375 9.78515625,17.431640625 10.8984375,16.5234375 11.4697265625,15.498046875 12.59765625,15 12.36328125,14.560546875 12.275390625,14.091796875 13.2421875,1.611328125 14.326171875,0.468749523162842 15.52734375,0z" />
    </g>
  </g>
</svg>