<?xml version="1.0" encoding="utf-8"?>
<!DOCTYPE svg PUBLIC "-//W3C//DTD SVG 1.1//EN" "http://www.w3.org/Graphics/SVG/1.1/DTD/svg11.dtd">
<svg width="30.5273437500001" height="44.794921875" xmlns="http://www.w3.org/2000/svg" xmlns:xlink="http://www.w3.org/1999/xlink" xmlns:xml="http://www.w3.org/XML/1998/namespace" version="1.1">
  <g>
    <g>
      <path style="fill:#FF0000;fill-opacity:1" d="M25.4296875,20.68359375L26.806640625,25.078125 27.5537090301514,26.982421875 27.802734375,27.83203125 27.685546875,28.59375 27.568359375,29.443359375 27.71484375,33.896484375 27.626953125,34.072265625 27.421875,34.365234375 26.6162109375,34.599609375 25.95703125,35.068359375 26.044921875,35.302734375 26.6455078125,34.9658203125 27.1875,34.716796875 27.509765625,34.8486328125 27.59765625,35.09765625 27.48046875,35.478515625 27.1875,36.064453125 26.865234375,36.650390625 26.66015625,37.060546875 26.71875,37.236328125 27.099609375,36.650390625 27.6708984375,35.595703125 27.978515625,34.716796875 27.94921875,34.013671875 27.978515625,33.80859375 28.271484375,30.849609375 28.330078125,27.861328125 28.30078125,27.5390625 28.06640625,26.455078125 27.3046875,23.642578125 26.513671875,20.68359375 25.4296875,20.68359375z M24.0234375,4.98046875L25.283203125,6.474609375 26.484375,8.056640625 27.1875,7.08984375 24.0234375,4.98046875z M13.53515625,4.86328125L14.6484375,5.56640625 13.359375,6.26953125 13.0078125,5.771484375 13.53515625,4.86328125z M12.744140625,3.779296875L12.59765625,4.482421875 11.9677734375,5.9912109375 11.3671875,7.44140625 11.77734375,7.44140625 12.24609375,7.763671875 12.71484375,9.43359375 13.9453125,9.66796875 15.234375,9.84375 15.498046875,9.990234375 16.1572265625,11.044921875 16.5234375,12.1875 16.32568359375,12.8833026885986 15.732421875,13.447265625 14.608154296875,13.9709491729736 12.8173828125,14.5458984375 10.9863271713257,15.2709980010986 9.7412109375,16.2451171875 8.902587890625,17.5927753448486 8.291015625,19.4384765625 7.587890625,23.642578125 7.298583984375,25.323486328125 6.8408203125,26.1474609375 6.48834180831909,26.5640258789063 5.97289991378784,27.418212890625 5.29449462890625,28.7100219726563 4.45312547683716,30.439453125 4.248046875,30.791015625 3.603515625,31.9921875 3.369140625,32.431640625 2.080078125,33.3984375 1.28906214237213,34.1162109375 0.87890636920929,34.98046875 1.72851574420929,34.0869140625 2.66601610183716,33.28125 2.8125,34.51171875 3.45703125,32.724609375 4.951171875,30.17578125 5.66894483566284,28.99658203125 7.001953125,26.806640625 8.38623046875,24.1259765625 9.2578125,21.474609375 9.609375,19.951171875 10.0927734375,18.3874530792236 10.6640625,17.3291015625 12.24609375,16.435546875 12.392578125,16.875 12.5390625,17.28515625 11.5869140625,18.017578125 11.3671875,18.837890625 11.6015625,19.541015625 12.1875,20.2734375 12.919921875,21.064453125 12.890625,21.064453125 14.2529296875,23.4375 14.6484375,25.8984375 14.443359375,26.66015625 13.9453125,27.48046875 13.359375,28.30078125 11.953125,31.1279296875 11.337890625,34.833984375 11.1328125,35.21484375 8.818359375,36.357421875 5.390625,38.5986328125 3.33984327316284,41.484375 4.2041015625,43.037109375 4.88891553878784,43.63037109375 5.625,43.828125 21.9140625,43.828125 23.8623046875,43.5791015625 25.458984375,43.330078125 27.1142578125,43.59375 28.798828125,43.857421875 29.0625,43.828125 29.296875,43.76953125 28.4912109375,43.41796875 27.216796875,42.94921875 25.83984375,42.509765625 24.4775390625,42.0263671875 23.291015625,41.337890625 23.14453125,41.07421875 23.0859375,40.693359375 22.734375,40.2099609375 21.708984375,40.048828125 21.50390625,39.697265625 21.328125,39.345703125 22.0166015625,36.884765625 22.20703125,34.423828125 22.20703125,34.013671875 22.177734375,33.28125 21.943359375,29.53125 21.26953125,20.68359375 19.8046875,20.68359375 19.365234375,20.302734375 18.427734375,8.466796875 18.57421875,8.02734375 19.189453125,7.3095703125 19.51171875,6.328125 19.3212890625,5.771484375 18.8671875,5.361328125 18.6328125,5.712890625 18.3984375,6.181640625 17.63671875,6.38671875 15.6005859375,4.7900390625 12.744140625,3.779296875z M16.69921875,1.2890625L15.10986328125,1.38427734375 14.033203125,1.669921875 13.037109375,2.900390625 15.5859375,3.7353515625 17.783203125,5.185546875 18.27392578125,4.59228515625 18.984375,4.39453125 20.0390625,5.1123046875 20.478515625,6.5625 20.185546875,7.646484375 19.39453125,8.583984375 20.2734375,19.74609375 26.77734375,19.74609375 25.1806640625,12.2900390625 22.822265625,5.009765625 22.265625,4.365234375 21.123046875,2.93701171875 19.86328125,1.9921875 16.69921875,1.2890625z M25.927734375,1.11328125L23.84765625,3.486328125 26.279296875,1.669921875 25.927734375,1.11328125z M25.6640625,0L26.3671875,0.0585932731628418 26.8359375,0.791016101837158 27.3046875,1.494140625 27.24609375,1.845703125 27.1875,2.16796875 24.4921875,4.16015625 26.30859375,5.361328125 28.125,6.591796875 28.154296875,6.9140625 28.2421875,7.265625 27.5390625,8.173828125 26.8359375,9.140625 26.455078125,9.08203125 26.044921875,9.08203125 25.37109375,8.115234375 24.66796875,7.20703125 26.4697265625,13.5791015625 27.802734375,20.068359375 27.451171875,20.5078125 27.8796367645264,22.218017578125 28.5205078125,24.4775390625 29.0808086395264,26.568603515625 29.267578125,27.7734375 29.208984375,30.8349609375 28.828125,33.896484375 28.916015625,34.51171875 28.6669902801514,35.665283203125 27.919921875,36.9580078125 27.1508769989014,38.009033203125 26.8359375,38.4375 26.572265625,38.49609375 26.279296875,38.583984375 25.72265625,38.2177734375 25.576171875,37.705078125 25.7958984375,36.826171875 26.337890625,35.80078125 25.78125,36.181640625 25.048828125,35.888671875 25.01953125,35.625 25.634765625,34.3359375 26.923828125,33.57421875 26.748046875,31.669921875 26.630859375,29.765625 26.8359375,27.802734375 25.48828125,24.287109375 24.4921875,20.68359375 22.236328125,20.68359375 23.14453125,34.27734375 22.9833984375,36.708984375 22.412109375,39.169921875 23.5107421875,39.66796875 24.052734375,40.72265625 25.5139141082764,41.3525390625 27.6708984375,42.12890625 29.6374492645264,42.95654296875 30.52734375,43.740234375 30.46875,44.1796875 29.6923828125,44.6630859375 28.828125,44.794921875 28.095703125,44.70703125 26.220703125,44.35546875 25.341796875,44.267578125 23.994140625,44.5166015625 23.1372051239014,44.703369140625 21.85546875,44.765625 5.41992139816284,44.765625 4.43115234375,44.461669921875 3.45703125,43.6669921875 2.70263648033142,42.601318359375 2.373046875,41.484375 3.12011694908142,39.510498046875 5.361328125,37.3974609375 8.115234375,35.592041015625 10.400390625,34.541015625 10.682373046875,32.2412109375 11.3525390625,30.087890625 13.7109375,26.162109375 13.3557119369507,23.63525390625 12.2900390625,21.796875 11.1584463119507,20.5078125 10.60546875,19.62890625 10.30517578125,21.2255859375 9.755859375,23.203125 8.72314453125,25.6640625 6.97265625,28.7109375 5.7421875,30.703125 4.50439453125,32.625732421875 3.779296875,33.9404296875 2.9296875,35.595703125 2.080078125,35.21484375 2.080078125,34.775390625 1.58203113079071,35.56640625 1.08398401737213,36.298828125 0.67382824420929,36.474609375 0.351562261581421,36.357421875 0,35.244140625 0.197753772139549,34.244384765625 0.791015267372131,33.2958984375 2.9296875,31.69921875 4.423828125,28.2861328125 6.38671875,25.166015625 6.85546875,22.03125 7.8369140625,17.8857421875 8.492431640625,16.3952655792236 9.19921875,15.3515625 10.18798828125,14.5971698760986 11.689453125,13.974609375 13.4765625,13.388671875 15,12.8173828125 15.615234375,12.216796875 15.3515625,11.396484375 14.853515625,10.72265625 12.216796875,10.25390625 11.982421875,10.048828125 11.42578125,8.37890625 10.83984375,8.37890625 10.400390625,7.822265625 10.9716796875,5.9326171875 11.5136709213257,4.852294921875 11.9970703125,3.28125 12.6086416244507,1.77978515625 13.53515625,0.908202648162842 14.86083984375,0.490722596645355 16.669921875,0.3515625 20.0830078125,1.0693359375 21.544189453125,2.003173828125 22.734375,3.369140625 25.6640625,0z" />
    </g>
  </g>
</svg>