<?xml version="1.0" encoding="utf-8"?>
<!DOCTYPE svg PUBLIC "-//W3C//DTD SVG 1.1//EN" "http://www.w3.org/Graphics/SVG/1.1/DTD/svg11.dtd">
<svg width="37.412109375" height="43.564453125" xmlns="http://www.w3.org/2000/svg" xmlns:xlink="http://www.w3.org/1999/xlink" xmlns:xml="http://www.w3.org/XML/1998/namespace" version="1.1">
  <g>
    <g>
      <path style="fill:#FF0000;fill-opacity:1" d="M22.03125,35.537109375L22.03125,42.12890625 28.623046875,42.12890625 28.623046875,35.537109375 22.03125,35.537109375z M15.205078125,28.7109375L15.205078125,42.12890625 21.09375,42.12890625 21.09375,34.599609375 28.623046875,34.599609375 28.623046875,28.7109375 15.205078125,28.7109375z M27.3046875,25.72265625L26.982421875,26.7626953125 26.513671875,27.7734375 27.3046875,27.7734375 27.3046875,25.72265625z M13.125,25.72265625L12.5170888900757,26.627197265625 11.982421875,28.1689453125 11.4550771713257,30.4541015625 10.869140625,33.5888671875 10.198974609375,36.7529296875 9.4189453125,39.1259765625 8.6279296875,40.72998046875 7.9248046875,41.5869140625 6.749267578125,42.022705078125 4.541015625,42.36328125 3.369140625,42.509765625 3.369140625,42.5390625 3.7060546875,42.626953125 4.130859375,42.65625 5.4931640625,42.509765625 6.9140625,42.36328125 7.939453125,42.4951171875 8.935546875,42.626953125 9.3603515625,42.5830078125 9.55078125,42.275390625 9.462890625,41.8212890625 9.2578125,41.396484375 9.2578125,40.927734375 10.72265625,37.734375 12.2497549057007,34.013671875 13.3154296875,30.5859375 13.6853017807007,27.7294921875 13.125,25.72265625z M29.501953125,12.890625L28.30078125,13.9453125 27.744140625,16.34765625 30.3515625,16.9775390625 32.958984375,17.6953125 31.1572265625,15.3369140625 29.501953125,12.890625z M19.04296875,10.634765625L15.146484375,13.330078125 14.47265625,14.00390625 13.212890625,15.05859375 11.89453125,15.64453125 10.6494140625,15.1318359375 9.5654296875,14.5825214385986 7.9248046875,13.9599609375 4.658203125,12.626953125 4.36523485183716,12.275390625 3.8525390625,11.3232421875 2.87109422683716,10.72265625 2.841796875,10.95703125 2.958984375,10.986328125 3.310546875,11.337890625 3.28125,11.89453125 2.87109422683716,12.041015625 2.607421875,11.923828125 2.2998046875,11.806640625 1.93359410762787,11.689453125 1.78710949420929,11.689453125 1.64062511920929,11.865234375 2.2998046875,12.3193359375 3.134765625,12.509765625 3.95507764816284,12.59765625 4.59960985183716,12.802734375 7.822265625,14.6484375 9.43359375,15.5712890625 11.07421875,16.46484375 11.42578125,16.494140625 13.1396474838257,16.2158222198486 14.94140625,15.380859375 16.95556640625,13.9160175323486 19.306640625,11.748046875 19.04296875,10.634765625z M1.49414074420929,10.458984375L1.43554675579071,10.576171875 1.66992175579071,10.60546875 1.93359410762787,10.693359375 1.96289074420929,10.48828125 1.72851574420929,10.458984375 1.49414074420929,10.458984375z M29.033203125,9.0234375L26.337890625,14.912109375 26.6015625,15.29296875 26.865234375,15.703125 27.2460918426514,14.0661640167236 27.861328125,12.9052734375 28.6962871551514,12.1911640167236 29.736328125,11.89453125 30.205078125,12.216796875 31.0400390625,13.6157245635986 32.314453125,15.29296875 33.5888671875,16.9702167510986 34.423828125,18.369140625 33.80859375,18.955078125 31.1718730926514,18.1192035675049 29.2089824676514,17.5158710479736 27.9199199676514,17.1450824737549 27.3046875,17.0068359375 26.6711406707764,16.6552753448486 25.8837890625,15.6884765625 25.0012187957764,14.6960468292236 24.08203125,14.267578125 24.08203125,14.4140625 25.13671875,15.322265625 25.869140625,16.34765625 25.810546875,16.46484375 25.2978515625,16.3037109375 24.66796875,15.908203125 24.55078125,15.9375 25.8837890625,16.9775390625 26.8615703582764,17.3693866729736 28.88671875,18.22265625 32.0068359375,19.306640625 36.26953125,20.390625 36.474609375,20.2734375 36.298828125,19.6875 35.947265625,18.955078125 35.595703125,18.28125 35.33203125,17.8125 33.4130859375,14.326171875 31.69921875,10.751953125 30.41015625,9.8583984375 29.033203125,9.0234375z M27.421875,8.4375L26.455078125,8.7158203125 25.8984375,9.08203125 26.337890625,10.986328125 24.111328125,11.54296875 23.642578125,9.78515625 23.056640625,9.9609375 22.1484375,9.287109375 21.0791015625,9.873046875 19.921875,10.3125 20.947265625,14.619140625 21.4013671875,16.58203125 21.62109375,18.837890625 21.3427734375,20.9033203125 20.7421875,22.91015625 20.419921875,23.232421875 14.12109375,25.3125 14.619140625,27.01171875 14.619140625,27.421875 15.380859375,27.440185546875 16.787109375,27.4951171875 18.2080078125,27.550048828125 19.013671875,27.568359375 20.712890625,27.59765625 23.2177734375,27.5390625 25.693359375,27.333984375 26.4697265625,25.2099609375 26.66015625,22.939453125 26.66015625,18.193359375 25.986328125,17.958984375 24.2724609375,16.93359375 23.525390625,15.8203125 23.583984375,15.5859375 23.84765625,15.322265625 23.525390625,15.205078125 23.408203125,15.029296875 23.14453125,14.6484375 23.14453125,13.857421875 23.583984375,13.30078125 24.7998046875,13.4912109375 25.6640625,14.12109375 28.212890625,8.583984375 27.890625,8.49609375 27.421875,8.4375z M20.595703125,3.662109375L21.064453125,3.984375 20.595703125,4.27734375 20.44921875,3.984375 20.595703125,3.662109375z M20.390625,3.33984375L20.1708984375,4.1162109375 19.775390625,4.892578125 19.951171875,4.98046875 20.15625,5.361328125 20.15625,6.15234375 21.903076171875,6.8408203125 22.5146484375,7.6171875 22.734375,8.5546875 23.4375,9.08203125 22.79296875,6.5625 22.412109375,5.09765625 22.55859375,4.658203125 22.705078125,4.365234375 22.734375,4.072265625 22.6904296875,3.837890625 22.5,3.662109375 22.265625,3.720703125 22.03125,3.837890625 21.2109375,3.57421875 20.390625,3.33984375z M22.763671875,1.34765625L21.5478515625,1.611328125 20.625,2.431640625 21.357421875,2.63671875 22.119140625,2.87109375 22.587890625,2.724609375 23.3349609375,3.1494140625 23.583984375,4.013671875 23.5107421875,4.5556640625 23.291015625,5.068359375 23.61328125,6.357421875 24.08203125,8.115234375 24.697265625,10.546875 25.458984375,10.37109375 25.01953125,8.701171875 25.341796875,8.232421875 26.513671875,7.646484375 26.2756328582764,5.313720703125 25.5615234375,3.2958984375 24.3859844207764,1.878662109375 22.763671875,1.34765625z M18.92578125,0L19.5263671875,0.087890625 19.775390625,0.322265625 19.482421875,1.5673828125 19.189453125,2.16796875 19.306640625,2.255859375 19.453125,2.255859375 19.658203125,2.197265625 20.9033203125,0.849609375 22.763671875,0.380859375 24.6240215301514,0.85693359375 26.044921875,2.28515625 26.9897441864014,4.541015625 27.421875,7.5 27.83203125,7.529296875 28.623046875,7.734375 29.560546875,5.68359375 30.087890625,5.80078125 30.9375,5.5078125 31.34765625,4.599609375 30.966796875,3.69140625 30.1171875,3.369140625 29.2822265625,3.7353515625 28.916015625,4.716796875 28.06640625,4.541015625 28.6962890625,3.017578125 30.17578125,2.431640625 31.6259765625,3.0029296875 32.28515625,4.541015625 31.611328125,6.0791015625 30.17578125,6.650390625 29.47265625,8.14453125 30.234375,8.671875 31.0546875,9.111328125 32.20458984375,9.884033203125 32.724609375,10.6201171875 33.134765625,11.689453125 35.2734375,15.673828125 36.064453125,17.197265625 36.943359375,19.04296875 37.294921875,19.86328125 37.412109375,20.2734375 37.060546875,21.005859375 36.328125,21.328125 31.728515625,20.15625 27.59765625,18.57421875 27.509765625,19.39453125 27.48046875,20.21484375 27.509765625,21.357421875 27.5390625,22.32421875 27.5390625,23.671875 28.06640625,22.763671875 29.091796875,22.44140625 30.380859375,23.1298828125 30.6884765625,24.158935546875 30.791015625,25.869140625 30.791015625,28.271484375 30.8203125,29.736328125 30.966796875,31.23046875 29.912109375,31.23046875 29.912109375,23.37890625 28.271484375,23.37890625 28.271484375,27.7734375 28.623046875,27.7734375 28.623046875,23.73046875 29.560546875,23.73046875 29.560546875,43.06640625 14.267578125,43.06640625 14.267578125,30.17578125 13.18359375,34.0576171875 11.455078125,38.349609375 10.1953125,41.162109375 10.4296875,41.77734375 10.517578125,42.421875 10.0048828125,43.330078125 8.818359375,43.564453125 7.236328125,43.3740234375 5.5078125,43.3447265625 3.779296875,43.505859375 2.87109422683716,43.2861328125 2.373046875,42.509765625 2.6806640625,41.9091796875 3.48632764816284,41.66015625 4.27734422683716,41.572265625 6.375732421875,41.24267578125 7.5732421875,40.6640625 8.272705078125,39.6533203125 8.876953125,38.02734375 9.444580078125,35.716552734375 10.0341796875,32.6513671875 10.6530752182007,29.549560546875 11.30859375,27.12890625 12.0849599838257,25.48095703125 13.06640625,24.697265625 13.06640625,24.66796875 19.921875,22.3828125 20.44921875,20.6103515625 20.68359375,18.75 20.478515625,16.669921875 19.5703125,12.802734375 16.728515625,15.2783222198486 14.53125,16.669921875 12.8613271713257,17.3071308135986 11.6015625,17.51953125 10.751953125,17.34375 10.0909423828125,17.0416278839111 8.78173828125,16.3110370635986 6.8243408203125,15.1519784927368 4.21875,13.564453125 3.544921875,13.41796875 2.724609375,13.18359375 0.93750011920929,43.06640625 0,43.06640625 1.81640613079071,12.802734375 1.15722668170929,12.3193359375 0.908203482627869,11.748046875 0.996094107627869,11.42578125 1.11328113079071,11.3671875 0.73242175579071,11.279296875 0.527343988418579,10.927734375 0.351562857627869,10.576171875 0.79101574420929,9.7265625 0.96679675579071,9.609375 1.17187511920929,9.4921875 2.021484375,9.580078125 2.31445360183716,4.658203125 3.25195264816284,4.658203125 2.92968702316284,9.814453125 4.306640625,10.634765625 5.15625,11.953125 6.85546875,12.626953125 8.583984375,13.212890625 10.2978515625,13.8427734375 11.89453125,14.677734375 12.8430166244507,14.1943378448486 13.9306640625,13.212890625 16.728515625,10.869140625 18.2666015625,9.949951171875 19.599609375,9.4189453125 21.6796875,8.466796875 21.62109375,7.9248046875 21.357421875,7.44140625 20.888671875,7.265625 20.390625,7.1484375 19.453125,8.408203125 18.92578125,8.408203125 19.51171875,6.943359375 19.365234375,6.6796875 19.21875,6.416015625 19.21875,5.654296875 18.955078125,5.537109375 18.80859375,4.74609375 19.0576171875,4.365234375 19.27734375,3.984375 19.39453125,3.662109375 19.453125,3.45703125 19.482421875,2.87109375 18.92578125,3.017578125 18.603515625,2.7685546875 18.515625,2.314453125 19.16015625,0.46875 18.45703125,0.732421875 18.28125,0.6005859375 18.22265625,0.322265625 18.92578125,0z" />
    </g>
  </g>
</svg>