<?xml version="1.0" encoding="utf-8"?>
<!DOCTYPE svg PUBLIC "-//W3C//DTD SVG 1.1//EN" "http://www.w3.org/Graphics/SVG/1.1/DTD/svg11.dtd">
<svg width="45.029296875" height="44.443359375" xmlns="http://www.w3.org/2000/svg" xmlns:xlink="http://www.w3.org/1999/xlink" xmlns:xml="http://www.w3.org/XML/1998/namespace" version="1.1">
  <g>
    <g>
      <path style="fill:#FF0000;fill-opacity:1" d="M13.330078125,38.26171875L11.103515625,43.0078125 15.498046875,43.0078125 13.330078125,38.26171875z M18.22265625,2.37304735183716L18.984375,2.87109422683716 18.134765625,3.63281297683716 17.900390625,3.04687547683716 18.22265625,2.37304735183716z M19.6875,0.966797351837158L17.4755859375,1.31835985183716 15.3515625,2.25585985183716 14.5166015625,2.92968797683716 13.681640625,3.57421922683716 16.083984375,4.07226610183716 18.017578125,5.03906297683716 18.7939453125,5.78613328933716 19.013671875,6.44531297683716 18.45703125,7.48535203933716 17.1826171875,8.408203125 15.7763671875,9.287109375 14.853515625,10.166015625 14.677734375,10.810546875 15,11.953125 15.5859375,12.978515625 16.11328125,13.59375 17.4462890625,16.083984375 19.365234375,18.1640625 21.591796875,19.9951171875 23.818359375,21.73828125 24.84375,22.646484375 25.751953125,23.49609375 27.041015625,24.609375 28.2421875,25.283203125 29.23828125,24.7265625 30.2490234375,24.31640625 31.435546875,24.140625 32.9736328125,24.287109375 34.453125,24.609375 35.4345703125,24.84375 36.240234375,25.166015625 37.55859375,26.162109375 38.935546875,26.89453125 40.6787109375,27.3046875 42.48046875,27.451171875 42.8759765625,27.2314453125 43.212890625,26.923828125 42.8173828125,26.3818359375 42.2900390625,25.78125 41.7041015625,25.224609375 41.19140625,24.78515625 40.693359375,24.404296875 35.244140625,23.02734375 30.41015625,21.474609375 26.66015625,20.0537109375 23.4375,18.4423828125 21.181640625,16.58203125 20.54443359375,15.5493183135986 20.33203125,14.443359375 20.4931640625,13.4912109375 20.859375,12.568359375 21.123046875,12.0849609375 21.416015625,11.6015625 22.236328125,12.099609375 21.826171875,12.802734375 21.5625,13.5498046875 21.4453125,14.443359375 22.177734375,16.11328125 24.1552734375,17.7099609375 27.0703125,19.2041015625 30.615234375,20.56640625 35.09765625,21.97265625 39.521484375,23.203125 36.1669921875,20.1416015625 32.63671875,17.255859375 29.912109375,15.322265625 27.041015625,13.59375 25.2392578125,12.685546875 23.408203125,11.89453125 21.8994140625,11.4111328125 20.361328125,11.1328125 19.5703125,11.0009765625 18.80859375,10.83984375 18.369140625,10.72265625 17.9296875,10.60546875 17.24853515625,10.17333984375 17.021484375,9.638671875 17.373046875,8.7890625 18.193359375,7.95410203933716 19.1455078125,7.25097703933716 19.921875,6.79687547683716 20.5224609375,6.51855516433716 21.15234375,6.24023485183716 21.8994140625,5.85937547683716 22.67578125,5.39062547683716 23.8623046875,4.37988328933716 24.31640625,3.04687547683716 24.3017578125,2.76855516433716 24.2578125,2.49023485183716 21.97265625,1.47949266433716 19.6875,0.966797351837158z M19.51171875,0L20.947265625,0.175781726837158 22.44140625,0.703125476837158 24.0673828125,1.45019578933716 25.7373046875,2.19726610183716 27.36328125,2.75390672683716 29.7216796875,3.33984422683716 31.8896484375,3.83789110183716 34.0576171875,4.29199266433716 36.4453125,4.74609422683716 36.4453125,4.86328172683716 33.75,4.71679735183716 30.7763671875,4.33593797683716 27.8173828125,3.80859422683716 25.166015625,3.22265672683716 26.6748046875,3.98437547683716 28.4033203125,4.74609422683716 30.1904296875,5.47851610183716 31.93359375,6.15234422683716 35.947265625,7.58789110183716 35.947265625,7.70507860183716 31.962890625,6.73828172683716 28.388671875,5.62500047683716 24.990234375,4.18945360183716 24.0966796875,5.27343797683716 22.91015625,6.19628953933716 21.6064453125,6.95800828933716 20.361328125,7.58789110183716 19.6728515625,7.93945360183716 18.9697265625,8.3935546875 18.369140625,8.9501953125 18.017578125,9.609375 18.779296875,9.9462890625 19.62890625,10.107421875 20.5078125,10.1953125 21.328125,10.3125 25.634765625,11.8359375 29.9853515625,14.3701171875 34.1162109375,17.314453125 38.0126953125,20.5517578125 41.689453125,23.994140625 42.744140625,24.1552734375 43.828125,24.345703125 45.029296875,24.580078125 42.744140625,24.990234375 43.1689453125,25.4736328125 43.6376953125,25.9716796875 44.0185546875,26.4697265625 44.1796875,26.89453125 44.033203125,27.3486328125 43.681640625,27.7587890625 43.2568359375,28.0810546875 42.861328125,28.30078125 42.36328125,28.359375 41.748046875,28.359375 38.6865234375,27.7294921875 35.7421875,25.95703125 33.7939453125,25.3857421875 31.552734375,25.048828125 30.5859375,25.1953125 29.6484375,25.634765625 28.88671875,26.3525390625 28.447265625,27.3046875 28.359375,28.18359375 28.359375,28.5498046875 28.388671875,28.916015625 28.41796875,29.326171875 22.353515625,27.3046875 19.9365234375,26.513671875 17.63671875,25.7373046875 15.673828125,25.078125 14.296875,24.609375 17.28515625,26.044921875 19.39453125,27.12890625 21.6796875,28.7841796875 23.232421875,30.732421875 21.15234375,29.208984375 18.837890625,27.8173828125 16.4208984375,26.5869140625 14.033203125,25.546875 14.033203125,36.38671875 17.080078125,43.0078125 23.232421875,43.0078125 23.232421875,39.7265625 24.638671875,39.7265625 24.638671875,44.443359375 1.49414038658142,44.443359375 1.49414038658142,39.7265625 2.9296875,39.7265625 2.9296875,43.0078125 9.521484375,43.0078125 12.59765625,36.416015625 12.59765625,25.60546875 10.2685546875,26.103515625 8.056640625,27.0556640625 5.9326171875,28.3447265625 3.8671875,29.794921875 5.48950147628784,27.864990234375 7.5439453125,26.3525390625 12.71484375,24.375 12.1875,24.345703125 11.66015625,24.345703125 8.61328125,24.55078125 6.005859375,25.0634765625 3.7939453125,25.751953125 1.962890625,26.484375 5.009765625,24.7998046875 7.9833984375,23.8330078125 10.78125,23.408203125 13.271484375,23.3203125 16.7138671875,24.4189453125 20.3466796875,25.634765625 23.9794921875,26.8505859375 27.421875,27.978515625 26.8212890625,26.279296875 25.7080078125,24.7412109375 24.404296875,23.4521484375 23.232421875,22.470703125 21.0791015625,20.8154296875 18.896484375,19.013671875 16.9189453125,16.93359375 15.380859375,14.4140625 15.17578125,15.2490234375 15.1171875,15.99609375 15.2783203125,17.490234375 15.673828125,18.92578125 14.6337890625,17.0068359375 14.35546875,15.556640625 14.94140625,13.7109375 14.4140625,12.861328125 14.00390625,11.982421875 13.828125,11.337890625 13.76953125,10.78125 14.2236328125,9.4189453125 15.3369140625,8.4521484375 16.728515625,7.61718797683716 18.046875,6.62109422683716 17.490234375,5.75683641433716 16.3330078125,5.06835985183716 15.029296875,4.61425828933716 14.033203125,4.42382860183716 12.24609375,4.33593797683716 9.0234375,4.59960985183716 5.595703125,5.28808641433716 2.49023413658142,6.22558641433716 0.26367175579071,7.23632860183716 0.205078363418579,7.20703172683716 0.1171875,7.14843797683716 0,7.03125047683716 0.322265863418579,6.43066453933716 1.11328125,5.84472703933716 2.09472632408142,5.33203172683716 2.98828172683716,4.98046922683716 5.18554735183716,4.39453172683716 7.7197265625,3.86718797683716 10.2978515625,3.48632860183716 12.59765625,3.33984422683716 14.337158203125,1.87866258621216 16.0400390625,0.834961414337158 17.750244140625,0.208740651607513 19.51171875,0z" />
    </g>
  </g>
</svg>