<?xml version="1.0" encoding="utf-8"?>
<!DOCTYPE svg PUBLIC "-//W3C//DTD SVG 1.1//EN" "http://www.w3.org/Graphics/SVG/1.1/DTD/svg11.dtd">
<svg width="39.580078125" height="44.58984375" xmlns="http://www.w3.org/2000/svg" xmlns:xlink="http://www.w3.org/1999/xlink" xmlns:xml="http://www.w3.org/XML/1998/namespace" version="1.1">
  <g>
    <g>
      <path style="fill:#FF0000;fill-opacity:1" d="M17.8125,32.138671875L18.69140625,34.1748046875 18.984375,36.005859375 18.896484375,37.0751953125 18.6181640625,38.1298828125 18.134765625,39.31640625 17.431640625,40.810546875 16.083984375,43.623046875 19.21875,43.623046875 19.405517578125,43.157958984375 19.7900390625,42.1728515625 21.09375,39.052734375 22.4853515625,35.6689453125 23.056640625,32.958984375 20.2587890625,32.6806640625 17.8125,32.138671875z M13.359375,30.673828125L13.65234375,31.0400390625 13.916015625,31.5234375 13.3740234375,34.7607421875 11.865234375,38.671875 10.3125,42.1435546875 9.8583984375,43.194580078125 9.66796875,43.623046875 14.853515625,43.623046875 16.259765625,40.78125 17.05078125,39.1259765625 17.490234375,38.173828125 17.724609375,37.2509765625 17.8125,36.26953125 17.373046875,34.072265625 16.376953125,31.93359375 15.6005859375,31.7431640625 14.70703125,31.376953125 13.88671875,30.9814453125 13.359375,30.673828125z M23.994140625,30.29296875L24.19921875,31.3623046875 24.287109375,32.373046875 23.8623046875,34.9658203125 22.67578125,37.939453125 21.943359375,39.638671875 21.2841796875,41.2646484375 20.7275390625,42.65625 20.33203125,43.623046875 25.224609375,43.623046875 28.095703125,37.734375 28.2861328125,37.0166015625 28.359375,36.181640625 28.1103515625,34.62890625 27.333984375,32.9296875 26.513671875,31.34765625 25.634765625,31.0546875 24.814453125,30.7177734375 23.994140625,30.29296875z M5.126953125,5.33203125L5.712890625,5.859375 4.95117139816284,6.38671875 4.775390625,6.09375 4.86328125,5.6103515625 5.126953125,5.33203125z M10.517578125,4.3359375L10.810546875,4.62890625 11.279296875,5.09765625 11.4697265625,5.4345703125 11.7333984375,6.2255859375 12.12890625,7.646484375 12.71484375,9.873046875 13.59375,10.78125 13.3447265625,8.5546875 12.94921875,6.9287109375 12.3779296875,5.7421875 11.6015625,4.833984375 11.044921875,4.5849609375 10.517578125,4.3359375z M15.52734375,3.427734375L16.083984375,3.955078125 15.322265625,4.51171875 15.17578125,4.248046875 15.263671875,3.69140625 15.52734375,3.427734375z M6.357421875,3.22265625L5.17089891433716,3.45703125 3.80859375,4.3359375 2.958984375,5.0537109375 2.51953172683716,5.44921875 1.99218785762787,5.859375 2.75390625,6.3720703125 3.3984375,7.236328125 3.69140625,7.763671875 4.306640625,9.6533203125 4.62890577316284,11.953125 4.74609422683716,13.30078125 8.26171875,20.947265625 9.931640625,24.55078125 11.8359375,28.388671875 12.4218740463257,29.1064453125 13.41796875,29.794921875 15.3515625,30.64453125 17.6953125,31.34765625 20.185546875,31.81640625 22.587890625,31.9921875 21.650390625,28.4765625 20.9033203125,26.89453125 19.951171875,25.048828125 18.28125,21.62109375 17.548828125,20.009765625 16.640625,18.046875 16.2890625,17.34375 15.498046875,17.7685546875 14.208984375,18.779296875 14.560546875,20.21484375 14.912109375,21.97265625 14.912109375,22.265625 14.560546875,23.3056640625 13.564453125,23.759765625 12.12890625,22.822265625 10.1806640625,21.181640625 9.19921875,19.189453125 8.408203125,16.787109375 8.1591796875,15.6298828125 8.056640625,14.443359375 8.14453125,14.1796875 8.203125,14.00390625 9.0234375,13.388671875 10.869140625,12.94921875 10.869140625,13.88671875 8.994140625,14.560546875 9.55078125,17.578125 10.01953125,18.9697265625 10.3125,19.62890625 10.4150390625,19.921875 10.8251953125,20.44921875 11.66015625,21.2548828125 13.06640625,22.353515625 13.76953125,22.79296875 13.828125,22.7197265625 13.88671875,22.67578125 14.00390625,22.236328125 13.974609375,21.73828125 13.681640625,20.56640625 13.359375,19.365234375 13.271484375,18.69140625 13.41796875,18.251953125 14.00390625,17.724609375 15.234375,16.904296875 15.87890625,16.494140625 15.29296875,15.322265625 14.8974609375,14.5166015625 14.677734375,14.0625 14.5166015625,13.6962890625 14.267578125,13.212890625 13.828125,12.3046875 12.5024404525757,11.0888671875 11.865234375,10.25390625 11.54296875,9.375 11.19140625,8.203125 10.810546875,6.708984375 10.6201171875,6.09375 10.48828125,5.654296875 8.5400390625,3.9404296875 6.357421875,3.22265625z M16.640625,0.9375L15.59326171875,1.1279296875 14.501953125,1.69921875 11.89453125,3.955078125 12.5903310775757,4.43115234375 13.330078125,5.44921875 13.9306640625,6.8115234375 14.267578125,8.349609375 14.53125,10.8984375 14.912109375,12.421875 15.234375,13.0517578125 15.8056640625,14.2236328125 16.376953125,15.41015625 16.728515625,16.11328125 17.6220703125,17.958984375 18.33984375,19.482421875 18.955078125,20.7861328125 19.541015625,21.97265625 20.888671875,24.697265625 21.4306640625,25.7958984375 21.767578125,26.484375 22.060546875,27.0556640625 22.44140625,27.802734375 23.291015625,28.828125 24.638671875,29.58984375 26.279296875,30.146484375 28.037109375,30.556640625 32.51953125,31.025390625 35.5078125,30.7763671875 38.4375,30.029296875 38.61328125,29.23828125 38.37890625,28.359375 37.5,27.65625 36.5625,26.982421875 35.8154296875,26.07421875 35.126953125,25.0048828125 34.365234375,23.759765625 33.427734375,22.32421875 32.080078125,20.185546875 31.11328125,18.603515625 29.96337890625,17.2119159698486 27.861328125,15.380859375 26.1767578125,16.40625 25.224609375,17.021484375 24.697265625,17.373046875 25.13671875,18.69140625 25.4296875,19.9951171875 25.576171875,21.005859375 25.2832012176514,22.18505859375 24.404296875,22.79296875 23.759765625,22.734375 23.203125,22.32421875 22.67578125,21.9140625 22.0751953125,21.38671875 21.38671875,20.712890625 20.625,19.8486328125 20.15625,19.21875 19.365234375,17.4609375 18.837890625,15.6591796875 18.544921875,14.150390625 18.45703125,13.30078125 18.486328125,13.0224609375 18.603515625,12.568359375 19.4384765625,11.89453125 20.2734375,11.572265625 20.7275390625,11.5576171875 21.26953125,11.513671875 21.26953125,12.451171875 20.5078125,12.451171875 19.951171875,12.65625 19.39453125,13.095703125 19.4091796875,13.7255859375 19.482421875,14.296875 19.62890625,14.94140625 19.86328125,15.791015625 20.2880859375,17.0068359375 20.68359375,18.134765625 21.708984375,19.541015625 22.587890625,20.5517578125 23.37890625,21.2841796875 24.169921875,21.85546875 24.4921875,21.5771484375 24.580078125,20.91796875 24.43359375,19.599609375 24.169921875,18.57421875 23.73046875,17.40234375 23.7890625,16.845703125 25.13671875,15.9375 26.2646484375,15.205078125 27.216796875,14.6484375 26.3671875,13.095703125 25.7958965301514,12.2241220474243 24.66796875,10.83984375 23.4814434051514,9.55078125 22.734375,8.90625 22.03125,7.79296875 21.5478515625,5.9912109375 21.2255859375,4.86328125 21.0205078125,4.1748046875 20.888671875,3.720703125 19.921875,2.6806640625 18.896484375,1.787109375 17.8125,1.171875 16.640625,0.9375z M16.58203125,0L18.1787109375,0.322265625 19.74609375,1.2890625 20.98388671875,2.3876953125 21.650390625,3.1640625 22.02392578125,4.013671875 22.44140625,5.390625 22.822265625,6.85546875 22.9833984375,7.5 23.115234375,7.939453125 26.0156230926514,10.9716796875 28.271484375,14.501953125 30.615234375,16.5087890625 32.578125,19.189453125 33.75,21.064453125 35.771484375,24.169921875 36.533203125,25.29052734375 37.001953125,26.015625 37.5439453125,26.56494140625 38.466796875,27.216796875 39.3017578125,28.06640625 39.580078125,29.208984375 39.27978515625,30.46142578125 38.37890625,31.11328125 35.830078125,31.728515625 32.6953125,31.9921875 30.2197265625,31.8310546875 27.7734375,31.435546875 28.3740234375,32.5048828125 28.916015625,33.57421875 29.296875,34.775390625 29.443359375,36.240234375 29.3994140625,37.177734375 29.296875,37.529296875 26.484375,43.623046875 29.326171875,43.623046875 30.263671875,44.58984375 1.43554675579071,44.58984375 2.40234375,43.623046875 8.525390625,43.623046875 9.3896484375,41.630859375 10.72265625,38.701171875 11.982421875,35.56640625 12.451171875,32.8125 12.2314453125,31.23046875 11.7041015625,29.912109375 11.044921875,28.740234375 10.4296875,27.59765625 7.412109375,21.2109375 5.8795166015625,17.9809589385986 4.76806640625,15.6152362823486 4.0777587890625,14.1137704849243 3.80859375,13.4765625 3.720703125,12.83203125 3.7060546875,12.4072265625 3.662109375,12.0703125 3.486328125,10.60546875 2.92968702316284,8.349609375 1.69921863079071,6.73828125 1.43554675579071,6.650390625 0.84960925579071,6.38671875 0,6.03515625 0,5.68359375 1.66992223262787,4.98046875 4.013671875,2.98095703125 6.416015625,2.314453125 8.14453125,2.6806640625 9.931640625,3.779296875 11.572265625,3.076171875 12.9785146713257,1.702880859375 14.208984375,0.7470703125 16.58203125,0z" />
    </g>
  </g>
</svg>