<?xml version="1.0" encoding="utf-8"?>
<!DOCTYPE svg PUBLIC "-//W3C//DTD SVG 1.1//EN" "http://www.w3.org/Graphics/SVG/1.1/DTD/svg11.dtd">
<svg width="44.150390625" height="34.921875" xmlns="http://www.w3.org/2000/svg" xmlns:xlink="http://www.w3.org/1999/xlink" xmlns:xml="http://www.w3.org/XML/1998/namespace" version="1.1">
  <g>
    <g>
      <path style="fill:#FF0000;fill-opacity:1" d="M16.58203125,26.8359375L14.033203125,33.017578125 14.6923828125,33.6474609375 15.966796875,33.955078125 16.8896484375,33.6474609375 17.900390625,33.45703125 19.62890625,33.3984375 20.15625,32.3291015625 20.80078125,31.025390625 21.5625,29.443359375 20.947265625,28.65234375 20.947265625,29.736328125 20.302734375,30.146484375 19.27734375,29.765625 18.515625,29.4580078125 17.958984375,29.12109375 17.548828125,28.623046875 16.58203125,26.8359375z M5.00976514816284,2.138671875L2.87109375,2.724609375 5.0390625,3.046875 4.98046875,2.8564453125 4.95117235183716,2.578125 4.9658203125,2.2705078125 5.00976514816284,2.138671875z M8.408203125,1.376953125L9.052734375,1.787109375 8.26171875,2.16796875 7.998046875,1.787109375 8.408203125,1.376953125z M9.1845703125,0.9375L8.935546875,0.966796875 7.79296875,1.142578125 6.796875,1.494140625 6.357421875,1.787109375 5.91796875,2.6953125 6.09375,3.193359375 8.9208984375,4.16015625 11.8359375,4.599609375 12.5390625,4.5556640625 13.330078125,4.453125 13.4912109375,4.5263671875 13.740234375,4.62890625 14.267578125,5.244140625 14.9560546875,6.3134765625 15.146484375,7.1484375 14.6484375,8.056640625 13.271484375,8.466796875 12.421875,8.3642578125 11.630859375,8.203125 10.8984375,8.0859375 10.5029296875,8.0859375 10.107421875,8.056640625 7.6171875,8.4375 6.6943359375,9.05273628234863 6.38671922683716,10.078125 6.76025390625,11.71142578125 7.880859375,13.916015625 9.7119140625,16.6259765625 12.275390625,19.833984375 14.75830078125,22.93212890625 16.46484375,25.4296875 16.5673828125,25.6787109375 17.255859375,26.1328125 17.8564453125,27.24609375 18.45703125,28.388671875 20.009765625,29.00390625 20.009765625,26.396484375 20.947265625,25.810546875 20.947265625,26.3671875 21.87744140625,28.271484375 24.08203125,30.05859375 25.48828125,28.330078125 26.9970703125,27.2607421875 28.6083984375,26.7041015625 30.322265625,26.54296875 33.77197265625,27.041015625 37.8515625,28.53515625 39.78515625,29.4140625 41.19140625,30.05859375 42.0849609375,30.46875 42.48046875,30.64453125 43.212890625,30.146484375 42.9345703125,29.033203125 42.099609375,28.271484375 40.78857421875,27.50244140625 38.96484375,26.30859375 37.20703125,25.107421875 35.9619140625,24.2431640625 34.74609375,23.349609375 34.248046875,23.349609375 33.720703125,23.3203125 32.6953125,23.26171875 29.150390625,22.998046875 27.216796875,22.763671875 25.48828125,22.5 22.822265625,22.03125 21.181640625,21.650390625 19.62890625,21.181640625 17.4609375,20.44921875 14.94140625,19.3359375 12.8466796875,18.251953125 11.07421875,17.109375 9.7998046875,16.2158203125 9.228515625,15.76171875 9.814453125,15.029296875 13.3154287338257,17.39501953125 16.494140625,19.04296875 19.599609375,20.21484375 22.8076171875,21.09375 26.2646484375,21.7236328125 30.087890625,22.119140625 32.021484375,22.2509765625 32.900390625,22.294921875 33.310546875,22.294921875 29.5220928192139,19.59228515625 26.3012676239014,17.431640625 23.6480693817139,15.81298828125 21.5625,14.736328125 18.57421875,13.505859375 16.787109375,12.94921875 15.380859375,12.6123046875 13.53515625,12.041015625 12.65625,11.71875 11.3525390625,10.986328125 10.8984375,9.873046875 11.5283203125,9.0087890625 13.0078125,8.73046875 13.8720703125,8.8037109375 15.05859375,8.876953125 15.5712890625,8.701171875 15.8203125,7.91015625 15.17578125,5.80078125 14.56787109375,4.92920064926147 14.033203125,4.599609375 13.5205068588257,4.31396627426147 12.919921875,3.515625 11.3818359375,1.7138671875 10.440673828125,1.131591796875 9.404296875,0.9375 9.1845703125,0.9375z M9.19921875,0L10.6201162338257,0.238037109375 11.89453125,0.9521484375 14.12109375,3.57421875 15.05859375,4.15283346176147 15.9375,5.302734375 16.552734375,6.65039205551147 16.7578125,7.939453125 16.2451171875,9.375 14.912109375,9.84375 14.150390625,9.755859375 13.41796875,9.609375 13.037109375,9.5654296875 12.685546875,9.55078125 11.953125,9.66796875 11.8359375,9.873046875 12.0373525619507,10.3271493911743 12.6416006088257,10.7519550323486 13.6486806869507,11.1474618911743 15.05859375,11.513671875 18.24462890625,12.4072265625 21.416015625,13.681640625 24.4775390625,15.234375 27.36328125,16.9921875 30.64453125,19.248046875 34.892578125,22.32421875 35.419921875,22.32421875 37.4560546875,22.4560546875 39.3603515625,22.8955078125 41.220703125,23.7158203125 43.125,25.01953125 42.5390625,25.751953125 40.400390625,24.30908203125 38.61328125,23.61328125 37.939453125,23.49609375 36.357421875,23.37890625 37.060546875,23.876953125 37.79296875,24.375 41.19140625,26.689453125 42.1728515625,27.3046875 43.125,27.919921875 43.82080078125,28.6669921875 44.150390625,29.794921875 44.150390625,30 43.7841796875,31.11328125 42.744140625,31.552734375 41.54296875,31.259765625 37.587890625,29.47265625 33.515625,27.9638671875 30.3515625,27.509765625 27.333984375,28.154296875 25.9643535614014,29.18701171875 24.66796875,30.9375 24.2578125,31.025390625 24.111328125,31.083984375 23.1591796875,30.615234375 22.265625,30.029296875 20.68359375,33.427734375 21.4453125,33.896484375 22.119140625,33.984375 22.880859375,33.92578125 23.759765625,33.8671875 24.8583984375,34.130859375 25.72265625,34.921875 24.8583984375,34.5703125 24.0234375,34.482421875 23.49609375,34.5263671875 23.02734375,34.6142578125 22.5146484375,34.7021484375 21.85546875,34.74609375 20.7421875,34.51171875 20.009765625,33.984375 18.33984375,34.16015625 18.837890625,34.423828125 19.21875,34.658203125 19.541015625,34.921875 18.603515625,34.7021484375 17.607421875,34.5703125 15.76171875,34.423828125 15.17578125,34.74609375 14.82421875,34.921875 15.146484375,34.423828125 14.1357421875,34.1015625 13.505859375,33.6328125 12.1875,34.3798828125 10.751953125,34.5703125 8.9794921875,34.4384765625 7.265625,34.306640625 6.064453125,34.423828125 4.80468702316284,34.892578125 6.38671922683716,34.013671875 8.818359375,33.779296875 11.3671875,33.5302734375 13.095703125,32.8125 15.87890625,26.220703125 14.981689453125,24.891357421875 13.6376953125,23.0712890625 9.873046875,18.369140625 7.9632568359375,15.8587646484375 6.59912109375,13.63037109375 5.7806396484375,11.6839599609375 5.5078125,10.01953125 5.76415967941284,8.74511909484863 6.533203125,7.91015625 7.7490234375,7.41943502426147 9.345703125,7.177734375 10.5908203125,7.1923828125 11.4990234375,7.265625 12.1875,7.412109375 12.802734375,7.646484375 13.8574209213257,7.50732564926147 14.208984375,7.08984375 13.9013671875,6.328125 13.18359375,5.419921875 12.01171875,5.5078125 10.2978515625,5.3759765625 8.876953125,5.09765625 7.705078125,4.775390625 6.50390625,4.3798828125 5.595703125,3.955078125 2.79785203933716,3.515625 0,3.310546875 0,2.724609375 2.314453125,2.1533203125 4.5703125,1.40625 5.77148485183716,0.9228515625 7.060546875,0.439453125 9.19921875,0z" />
    </g>
  </g>
</svg>