<?xml version="1.0" encoding="utf-8"?>
<!DOCTYPE svg PUBLIC "-//W3C//DTD SVG 1.1//EN" "http://www.w3.org/Graphics/SVG/1.1/DTD/svg11.dtd">
<svg width="44.619140625" height="45.029296875" xmlns="http://www.w3.org/2000/svg" xmlns:xlink="http://www.w3.org/1999/xlink" xmlns:xml="http://www.w3.org/XML/1998/namespace" version="1.1">
  <g>
    <g>
      <path style="fill:#FF0000;fill-opacity:1" d="M19.62890625,31.171875L19.306640625,32.51953125 18.7353515625,34.3505859375 17.98828125,36.474609375 17.16796875,38.671875 14.970703125,44.12109375 22.412109375,44.12109375 24.4921875,36.97265625 24.580078125,35.09765625 19.62890625,31.171875z M30.3515625,30.05859375L31.23046875,30.322265625 31.9921875,30.5859375 32.6953125,30.849609375 34.453125,31.611328125 37.8076171875,32.666015625 41.162109375,33.046875 42.301025390625,33.006591796875 43.0224609375,32.8857421875 43.65234375,32.490234375 42.48046875,31.6259765625 41.162109375,31.0546875 38.73046875,30.908203125 36.181640625,30.703125 33.427734375,30.4248046875 30.3515625,30.05859375z M17.138671875,29.23828125L18.251953125,32.98828125 18.837890625,30.615234375 17.138671875,29.23828125z M11.484375,2.2265625L12.0703125,2.724609375 11.54296875,3.134765625 11.162109375,2.6953125 11.484375,2.2265625z M12.48046875,0.9375L10.5029296875,1.50878858566284 9.169921875,3.193359375 10.166015625,3.75 10.25390625,3.75 10.400390625,3.720703125 10.986328125,3.8818359375 11.5283203125,4.306640625 11.923828125,4.892578125 12.0703125,5.5078125 11.923828125,6.09375 11.6015625,6.6796875 11.103515625,7.470703125 10.341796875,8.5400390625 8.994140625,10.458984375 7.8076171875,12.7001953125 7.265625,14.794921875 7.4560546875,16.5673828125 8.0419921875,18.515625 9.1845703125,20.712890625 11.07421875,23.203125 13.0664052963257,25.08544921875 15.9375,27.275390625 17.1240234375,28.1396484375 18.5009765625,29.1650390625 19.951171875,30.2783203125 21.357421875,31.376953125 24.66796875,33.955078125 24.66796875,33.3984375 24.6533203125,32.9150390625 24.638671875,32.51953125 24.521484375,31.259765625 26.2939453125,30.1025390625 28.359375,29.794921875 28.798828125,29.794921875 27.158203125,29.501953125 25.6787109375,29.208984375 22.96875,28.564453125 20.03173828125,27.73681640625 17.958984375,26.953125 16.142578125,26.1328125 12.9638671875,23.84765625 12.0520009994507,22.3974609375 11.748046875,20.859375 11.9677734375,19.2919921875 12.568359375,17.900390625 13.359375,18.427734375 13.06640625,19.189453125 12.685546875,20.654296875 13.3154287338257,22.65380859375 15.205078125,24.55078125 16.7138671875,25.4608154296875 18.662109375,26.31591796875 21.0498046875,27.1160888671875 23.876953125,27.861328125 29.794921875,29.0478515625 35.185546875,29.677734375 36.1962890625,29.7802734375 37.20703125,29.8828125 40.6640625,30.05859375 36.650390625,28.4326171875 32.314453125,25.634765625 29.677734375,23.759765625 26.041259765625,21.4544696807861 22.4267578125,19.6362323760986 18.834228515625,18.3050556182861 15.263671875,17.4609375 12.1874990463257,16.7285175323486 10.048828125,15.703125 8.79638671875,14.3774433135986 8.37890625,12.744140625 8.5986328125,11.8359375 9.2138671875,10.7080078125 10.1513671875,9.4482421875 11.30859375,8.173828125 13.76953125,5.32470703125 14.94140625,2.8125 13.9892578125,1.376953125 12.48046875,0.9375z M12.509765625,0L13.9196767807007,0.223388671875 14.9853515625,0.8935546875 15.655517578125,1.856689453125 15.87890625,2.958984375 15.6884765625,3.8671875 15.17578125,4.921875 14.765625,5.56640625 13.5498046875,7.119140625 11.572265625,9.228515625 9.83642578125,11.31591796875 9.2578125,12.890625 9.345703125,13.623046875 11.3818349838257,15.3515644073486 14.501953125,16.376953125 18.20068359375,17.1899433135986 21.9140625,18.3984375 26.2646484375,20.537109375 31.728515625,24.052734375 34.453125,25.95703125 39.0234375,28.5498046875 41.30859375,29.315185546875 43.59375,29.6484375 44.00390625,29.560546875 43.916015625,30.087890625 43.798828125,30.5859375 42.802734375,30.76171875 44.12109375,31.6259765625 44.560546875,32.16796875 44.619140625,32.373046875 44.00390625,33.427734375 42.7734375,33.8671875 41.865234375,33.984375 41.5283203125,33.984375 41.1328125,34.013671875 37.2802734375,33.59619140625 33.80859375,32.34375 30.79833984375,31.09130859375 28.388671875,30.673828125 27.4365234375,30.7470703125 26.71875,30.9375 26.103515625,31.2158203125 25.517578125,31.5234375 25.576171875,32.724609375 25.5615234375,33.544921875 25.517578125,34.98046875 25.458984375,36.97265625 23.5546875,43.564453125 24.43359375,45.029296875 23.4375,44.296875 23.0859375,45 2.431640625,45 4.6875,44.12109375 13.9453125,44.12109375 17.783203125,34.482421875 16.083984375,28.447265625 12.2167959213257,25.52490234375 9.345703125,22.55859375 7.412109375,19.4091815948486 6.357421875,15.9375 4.62890625,16.8310546875 3.39843773841858,17.7685546875 2.4462890625,18.955078125 1.58203125,20.56640625 1.46484375,20.537109375 2.05810499191284,18.5485858917236 3.07617163658142,17.0361328125 4.4970703125,15.8605976104736 6.29882717132568,14.8828125 7.03125,12.392578125 8.5546875,9.580078125 10.17333984375,7.177734375 11.103515625,5.595703125 10.751953125,4.775390625 9.84375,4.453125 9.609375,4.482421875 0.1171875,8.90625 0,8.701171875 0.922851085662842,8.1298828125 2.37304639816284,7.236328125 4.0869140625,6.181640625 5.7861328125,5.126953125 7.236328125,4.2333984375 8.14453125,3.6328125 8.6865234375,1.93359375 9.755859375,0.87890625 11.0595693588257,0.2197265625 12.509765625,0z" />
    </g>
  </g>
</svg>