<?xml version="1.0" encoding="utf-8"?>
<!DOCTYPE svg PUBLIC "-//W3C//DTD SVG 1.1//EN" "http://www.w3.org/Graphics/SVG/1.1/DTD/svg11.dtd">
<svg width="37.353515625" height="38.4375" xmlns="http://www.w3.org/2000/svg" xmlns:xlink="http://www.w3.org/1999/xlink" xmlns:xml="http://www.w3.org/XML/1998/namespace" version="1.1">
  <g>
    <g>
      <path style="fill:#FF0000;fill-opacity:1" d="M32.28515625,25.546875L32.9443359375,28.30078125 33.57421875,31.0546875 34.013671875,32.548828125 35.068359375,35.44921875 35.67626953125,36.6064453125 36.328125,37.3828125 36.38671875,37.001953125 36.38671875,36.62109375 35.518798828125,34.0576171875 34.7900390625,31.962890625 34.200439453125,30.3369140625 33.75,29.1796875 33.017578125,27.3046875 32.28515625,25.546875z M6.9140625,22.646484375L4.189453125,34.453125 3.134765625,36.5625 2.900390625,36.85546875 2.607421875,37.03125 2.28515648841858,37.177734375 1.69921898841858,37.177734375 1.08398461341858,36.943359375 0.937499761581421,37.470703125 3.046875,37.470703125 3.39843797683716,36.97265625 3.69140625,36.4453125 4.130859375,35.2734375 4.423828125,34.4970703125 4.8046875,33.57421875 5.244140625,32.6953125 5.712890625,32.05078125 6.064453125,29.82421875 6.826171875,26.9091796875 8.37890625,24.19921875 7.67578125,23.291015625 6.9140625,22.646484375z M22.55859375,20.625L21.123046875,29.296875 20.56640625,31.40625 20.15625,32.958984375 19.921875,33.837890625 19.658203125,34.4970703125 19.2041015625,35.5224609375 18.7060546875,36.5478515625 18.33984375,37.20703125 17.783203125,37.236328125 16.201171875,37.060546875 16.0546875,37.470703125 18.720703125,37.470703125 19.16015625,36.73828125 19.306640625,36.38671875 19.482421875,36.005859375 20.0244140625,34.51171875 20.7275390625,32.63671875 21.4599609375,30.791015625 22.1484375,29.384765625 22.060546875,28.564453125 22.3828125,26.923828125 23.115234375,25.3125 23.90625,23.876953125 24.31640625,23.14453125 24.4921875,22.822265625 23.994140625,21.85546875 23.408203125,21.123046875 22.55859375,20.625z M8.5546875,2.16796875L7.880859375,4.6875 8.203125,5.09765625 8.5546875,5.5078125 8.5546875,2.16796875z M6.416015625,1.611328125L6.2109375,3.4716796875 6.09375,5.33203125 6.181640625,5.947265625 6.38671922683716,6.533203125 6.50390625,6.9873046875 6.5625,7.44140625 6.37207078933716,8.2470703125 5.56640625,9.697265625 4.892578125,10.72265625 4.453125,11.5283203125 4.0869140625,12.451171875 3.8232421875,13.388671875 3.720703125,14.208984375 3.98437547683716,16.201171875 4.716796875,18.251953125 5.71289014816284,20.13427734375 6.884765625,21.50390625 7.763671875,22.1044921875 9.052734375,23.466796875 9.345703125,23.935546875 10.1806640625,27.2021484375 10.7080078125,30.380859375 11.0009765625,33.5595703125 11.1328125,36.826171875 10.693359375,37.177734375 10.37109375,37.119140625 10.01953125,37.060546875 9.609375,37.03125 9.462890625,37.470703125 11.396484375,37.470703125 11.4111328125,36.09375 11.455078125,34.658203125 11.4990234375,33.310546875 11.513671875,32.16796875 11.513671875,31.2890625 11.42578125,29.267578125 11.220703125,27.392578125 10.7958984375,25.25390625 9.931640625,22.44140625 10.37109375,21.884765625 12.2827138900757,21.80419921875 13.681640625,21.5625 15.52734375,20.712890625 16.5380859375,20.2294921875 18.10546875,19.833984375 21.15234375,19.482421875 22.5439453125,19.6728515625 23.525390625,20.1416015625 24.2138671875,20.7275390625 24.697265625,21.240234375 25.224609375,22.1484375 25.810546875,23.4375 27.041015625,25.546875 29.208984375,28.564453125 29.5751953125,28.9892578125 30.0439453125,29.6044921875 30.439453125,30.2490234375 30.615234375,30.732421875 30.615234375,31.640625 30.9375,34.39453125 30.9375,34.892578125 30.87890625,35.9326171875 30.673828125,37.001953125 30.029296875,37.177734375 29.12109375,36.884765625 28.857421875,37.470703125 31.318359375,37.470703125 31.435546875,36.357421875 31.40625,35.33203125 31.318359375,33.720703125 31.23046875,31.58203125 31.2451171875,31.1865234375 31.2890625,30.87890625 31.1572265625,30.4248046875 31.025390625,30.0439453125 30.703125,29.619140625 30,29.033203125 29.53125,28.2421875 28.828125,26.572265625 27.8173828125,22.44140625 27.451171875,18.1640625 25.3857421875,16.5234375 22.646484375,15.9375 20.830078125,16.201171875 18.6181640625,16.8017578125 16.5234375,17.40234375 15.087890625,17.666015625 13.7109375,17.578125 11.513671875,17.28515625 9.2724609375,16.81640625 7.763671875,16.23046875 6.85546875,15.6298828125 6.416015625,15.17578125 6.2255859375,14.7216796875 6.15234375,13.974609375 6.41235303878784,12.2241230010986 7.1923828125,10.95703125 8.602294921875,10.1733417510986 10.751953125,9.873046875 11.19140625,9.8876953125 11.7041015625,9.931640625 12.48046875,9.990234375 13.7109375,10.01953125 14.5166015625,9.9755859375 15.322265625,9.873046875 15.556640625,9.19921875 12.8466796875,8.61328125 10.166015625,7.880859375 9.0087890625,7.2216796875 7.96875,6.26953125 7.177734375,5.126953125 6.767578125,3.8671875 6.6796875,3.369140625 6.5625,2.607421875 6.416015625,1.611328125z M6.35742139816284,0L7.0166015625,0.849609375 7.254638671875,1.70654296875 7.470703125,2.98828125 7.96875,1.4501953125 8.466796875,0.234375 9.404296875,0.380859375 9.404296875,6.328125 10.8544912338257,7.16308736801147 12.861328125,7.67578125 14.794921875,8.01269721984863 16.142578125,8.4375 16.494140625,8.876953125 16.083984375,10.400390625 15.37353515625,10.7739276885986 14.00390625,10.95703125 13.0810546875,10.95703125 12.0703125,10.927734375 10.927734375,10.8984375 9.462890625,11.015625 8.232421875,11.4404296875 7.3828125,12.3193359375 7.060546875,13.798828125 7.1484375,14.53125 7.412109375,14.8828125 10.5322265625,16.201171875 12.7404775619507,16.552734375 15.52734375,16.669921875 16.40625,16.40625 18.603515625,15.8203125 21.0791015625,15.234375 22.79296875,15.029296875 24.7558574676514,15.3277587890625 26.6015605926514,16.22314453125 28.3300762176514,17.7154541015625 29.94140625,19.8046875 32.8271484375,24.85107421875 35.21484375,30.322265625 36.1505126953125,32.8692626953125 36.81884765625,34.79736328125 37.2198486328125,36.1065673828125 37.353515625,36.796875 37.353515625,37.03125 37.001953125,38.02734375 36.416015625,38.4375 35.804443359375,38.184814453125 35.0830078125,37.4267578125 33.75,34.658203125 33.33984375,33.427734375 33.046875,32.3876953125 32.6513671875,30.7177734375 32.16796875,28.6083984375 31.611328125,26.25 30.966796875,23.98681640625 30.205078125,22.119140625 28.30078125,19.306640625 28.59375,21.591796875 29.091796875,24.0673828125 29.765625,26.484375 30.556640625,28.564453125 31.0693359375,28.9892578125 31.40625,29.384765625 32.109375,30.849609375 32.109375,33.837890625 32.197265625,34.51171875 32.28515625,35.0390625 32.314453125,35.44921875 32.2412109375,37.060546875 32.080078125,38.0859375 31.611328125,38.408203125 28.330078125,38.408203125 27.890625,37.8515625 28.2421875,36.533203125 29.150390625,36.09375 29.8828125,36.26953125 29.970703125,34.62890625 29.8828125,32.9736328125 29.765625,30.556640625 29.443359375,30.146484375 27.0849609375,27.1435546875 25.048828125,23.935546875 23.935546875,25.810546875 23.2543926239014,27.20947265625 23.02734375,28.4765625 23.115234375,29.296875 23.0712890625,29.560546875 23.056640625,29.736328125 22.060546875,31.5673828125 21.064453125,34.04296875 20.126953125,36.4892578125 19.27734375,38.232421875 19.0283203125,38.3349609375 18.8671875,38.408203125 15.556640625,38.408203125 15.1171875,37.8515625 15.1171875,37.587890625 15.46875,36.4892578125 16.318359375,36.15234375 16.9921875,36.2548828125 17.8125,36.474609375 18.80859375,34.7314453125 19.541015625,32.197265625 19.716796875,31.376953125 19.951171875,30.380859375 20.21484375,29.150390625 21.650390625,20.44921875 18.1201171875,20.74951171875 15.791015625,21.650390625 13.7548828125,22.529296875 11.044921875,22.822265625 11.7041006088257,25.02685546875 12.099609375,26.8359375 12.3193359375,28.828125 12.392578125,31.69921875 12.392578125,32.373046875 12.3779296875,33.2958984375 12.333984375,34.892578125 12.2900390625,36.62109375 12.275390625,37.939453125 11.77734375,38.408203125 8.935546875,38.408203125 8.49609375,37.8515625 8.642578125,36.9580078125 9.111328125,36.181640625 9.404296875,36.064453125 9.8876953125,36.15234375 10.37109375,36.357421875 9.9462890625,30.7470703125 8.759765625,25.224609375 7.71240234375,27.1142578125 7.08984375,29.560546875 6.7236328125,31.67724609375 6.4453125,32.63671875 5.77148485183716,33.6328125 4.833984375,35.771484375 3.69140625,38.232421875 3.28125,38.408203125 0.439453363418579,38.408203125 0,37.8515625 0.292968511581421,36.50390625 1.05468773841858,36.005859375 1.52343726158142,36.15234375 1.962890625,36.474609375 2.841796875,35.537109375 3.310546875,34.482421875 6.09375,22.060546875 5.11962842941284,20.83740234375 4.013671875,18.92578125 3.134765625,16.7138671875 2.841796875,14.53125 3.1201171875,12.451171875 3.98437547683716,10.458984375 4.716796875,9.287109375 5.3466796875,8.173828125 5.625,7.412109375 5.33203125,6.357421875 5.12695264816284,5.009765625 5.20019578933716,4.0283203125 5.361328125,3.017578125 5.537109375,1.728515625 5.625,0.46875 5.9912109375,0.2197265625 6.35742139816284,0z" />
    </g>
  </g>
</svg>