<?xml version="1.0" encoding="utf-8"?>
<!DOCTYPE svg PUBLIC "-//W3C//DTD SVG 1.1//EN" "http://www.w3.org/Graphics/SVG/1.1/DTD/svg11.dtd">
<svg width="44.443359375" height="27.861328125" xmlns="http://www.w3.org/2000/svg" xmlns:xlink="http://www.w3.org/1999/xlink" xmlns:xml="http://www.w3.org/XML/1998/namespace" version="1.1">
  <g>
    <g>
      <path style="fill:#FF0000;fill-opacity:1" d="M5.91796875,19.716796875L5.537109375,19.921875 5.126953125,20.126953125 5.126953125,20.771484375 5.71289110183716,20.771484375 5.91796875,19.716796875z M7.880859375,14.091796875L8.671875,14.6484375 7.880859375,15.087890625 7.55859375,14.58984375 7.880859375,14.091796875z M34.04296875,1.259765625L30.09521484375,2.34741353988647 24.990234375,3.2080078125 20.04638671875,4.222412109375 16.58203125,5.771484375 13.8720703125,8.14453125 11.19140625,11.630859375 10.78125,11.806640625 8.133544921875,12.689208984375 5.6982421875,14.9853515625 3.929443359375,17.259521484375 3.28125047683716,18.076171875 3.75,18.8818359375 4.599609375,19.3359375 4.93286085128784,19.178466796875 5.8154296875,18.7060546875 8.26171875,17.490234375 8.583984375,17.63671875 8.876953125,17.783203125 9.4921875,19.237060546875 10.693359375,21.1376953125 11.8139638900757,23.060302734375 12.1875,24.580078125 11.513671875,25.95703125 10.5175771713257,26.40380859375 8.876953125,26.630859375 7.67578125,26.71875 6.73828125,26.748046875 5.03906202316284,26.689453125 3.0029296875,26.572265625 0.966796875,26.455078125 0.908202886581421,26.6015625 0.908202886581421,26.77734375 0.9375,26.865234375 0.966796875,26.923828125 13.916015625,26.923828125 14.4580078125,26.3525390625 14.912109375,25.72265625 14.58984375,24.169921875 14.8828125,23.90625 15.17578125,23.642578125 19.19677734375,24.45556640625 22.939453125,24.7265625 27.9345703125,24.2578125 33.251953125,22.880859375 32.607421875,21.796875 32.255859375,21.240234375 32.138671875,21.005859375 32.109375,20.9765625 32.6953125,20.09765625 34.3359375,22.8515625 35.33203125,23.90625 36.591796875,24.638671875 36.796875,25.01953125 35.9619140625,26.279296875 35.028076171875,26.56494140625 33.662109375,26.66015625 30.673828125,26.4990234375 29.1943340301514,26.363525390625 28.212890625,26.279296875 27.568359375,26.279296875 26.6455078125,26.3525390625 25.83984375,26.66015625 25.78125,26.89453125 39.462890625,26.923828125 39.521484375,26.806640625 39.609375,26.337890625 39.638671875,25.8984375 40.224609375,25.546875 41.455078125,25.751953125 42.8759765625,25.283203125 43.505859375,23.759765625 42.7001953125,24.52880859375 41.865234375,24.78515625 41.2646484375,24.6826171875 40.576171875,24.169921875 39.847412109375,21.602783203125 37.9541015625,19.5263671875 35.313720703125,18.153076171875 32.34375,17.6953125 31.9921875,17.6953125 30.0146484375,17.9296875 28.06640625,18.33984375 26.1328125,18.80859375 24.7338848114014,19.112548828125 23.759765625,19.2626953125 22.353515625,19.3359375 19.4384765625,19.10888671875 16.962890625,18.427734375 15.27099609375,17.32177734375 14.70703125,15.8203125 15.29296875,14.3408203125 16.1572265625,13.853759765625 17.578125,13.53515625 18.33984375,13.41796875 19.62890625,13.154296875 27.2900390625,11.1474609375 31.351318359375,9.327392578125 35.478515625,6.533203125 32.28515625,7.294921875 30.399169921875,7.7197265625 27.4951171875,8.349609375 24.3200664520264,9.1259765625 21.62109375,9.990234375 20.419921875,10.4296875 18.486328125,11.42578125 17.40234375,12.890625 16.494140625,12.65625 17.603759765625,10.927734375 19.7607421875,9.609375 24.4921875,7.998046875 28.76953125,7.03125 30.498046875,6.650390625 27.83203125,6.85546875 23.3129863739014,7.5146484375 19.775390625,8.671875 13.916015625,12.1875 13.330078125,11.455078125 15.9210205078125,9.67987060546875 18.42041015625,8.280029296875 20.8282470703125,7.25555419921875 23.14453125,6.6064453125 27.3559551239014,5.914306640625 30.908203125,5.68359375 32.67333984375,3.59619140625 34.04296875,1.259765625z M34.74609375,0L35.361328125,0.5859375 34.013671875,3.22265625 32.314453125,5.56640625 34.8486328125,5.361328125 37.44140625,5.09765625 37.44140625,6.09375 34.302978515625,8.61328125 31.1572265625,10.546875 27.3596172332764,12.12158203125 22.265625,13.564453125 18.486328125,14.35546875 18.10546875,14.4140625 17.080078125,14.58984375 16.04736328125,14.9560546875 15.64453125,15.5859375 15.64453125,15.703125 15.992431640625,16.66259765625 17.0361328125,17.490234375 18.958740234375,18.09814453125 21.943359375,18.3984375 22.470703125,18.3984375 24.4775371551514,18.20068359375 27.216796875,17.607421875 29.96337890625,16.99951171875 31.9921875,16.7578125 32.490234375,16.7578125 35.592041015625,17.26318359375 38.5107421875,18.779296875 40.667724609375,21.04248046875 41.484375,23.7890625 41.71875,23.90625 42.568359375,23.466796875 43.212890625,22.529296875 43.505859375,21.97265625 44.384765625,22.20703125 44.443359375,22.822265625 44.443359375,23.408203125 44.26025390625,24.8583984375 43.7109375,25.869140625 42.7880859375,26.46240234375 41.484375,26.66015625 40.517578125,26.572265625 40.4443359375,27.01171875 40.1953125,27.5390625 39.7265625,27.861328125 25.8984375,27.861328125 25.166015625,27.568359375 24.873046875,26.806640625 24.873046875,26.66015625 25.576171875,25.6787109375 26.4916973114014,25.426025390625 27.94921875,25.341796875 29.0808086395264,25.39306640625 30.8349609375,25.546875 32.647705078125,25.70068359375 33.955078125,25.751953125 34.921875,25.6640625 35.771484375,25.3125 35.80078125,25.283203125 34.6875,24.6240234375 33.75,23.701171875 28.30078125,25.078125 22.587890625,25.60546875 19.16015625,25.400390625 15.673828125,24.7265625 15.791015625,25.6640625 15.46875,26.66015625 14.501953125,27.685546875 14.091796875,27.861328125 0.76171875,27.861328125 0.19042956829071,27.509765625 0,26.66015625 0,26.455078125 0.21972644329071,25.8251953125 0.908202886581421,25.517578125 1.05468773841858,25.517578125 1.39160132408142,25.546875 1.81640648841858,25.576171875 4.30664014816284,25.7080078125 6.708984375,25.78125 7.587890625,25.78125 8.49609375,25.72265625 9.873046875,25.576171875 10.6640625,25.37109375 11.162109375,25.107421875 11.19140625,25.01953125 11.25,24.55078125 10.9130849838257,23.309326171875 9.90234375,21.5771484375 8.7890625,19.837646484375 8.14453125,18.57421875 6.97265625,19.130859375 6.533203125,21.38671875 6.064453125,21.708984375 4.62890625,21.708984375 4.189453125,21.15234375 4.189453125,20.185546875 2.98828125,19.423828125 2.34374976158142,18.193359375 2.25585961341858,18.10546875 1.962890625,17.900390625 1.31835961341858,17.373046875 0.0878908634185791,16.40625 0.351562738418579,16.0546875 0.541992425918579,15.8349609375 0.673827886581421,15.673828125 2.6953125,17.28515625 4.453125,15.029296875 7.236328125,12.216796875 8.84033203125,11.28662109375 10.546875,10.8984375 13.2897939682007,7.415771484375 16.1865234375,4.9365234375 19.866943359375,3.27026510238647 24.9609375,2.2265625 30.3076171875,1.30371236801147 34.74609375,0z" />
    </g>
  </g>
</svg>