<?xml version="1.0" encoding="utf-8"?>
<!DOCTYPE svg PUBLIC "-//W3C//DTD SVG 1.1//EN" "http://www.w3.org/Graphics/SVG/1.1/DTD/svg11.dtd">
<svg width="45.029296875" height="41.1328125" xmlns="http://www.w3.org/2000/svg" xmlns:xlink="http://www.w3.org/1999/xlink" xmlns:xml="http://www.w3.org/XML/1998/namespace" version="1.1">
  <g>
    <g>
      <path style="fill:#FF0000;fill-opacity:1" d="M23.525390625,23.349609375L22.67578125,23.525390625 22.03125,24.08203125 21.767578125,24.873046875 21.181640625,26.748046875 20.3759765625,29.3408203125 19.482421875,32.28515625 18.33984375,36.02783203125 17.080078125,40.224609375 17.490234375,40.048828125 17.9296875,39.931640625 18.45703125,39.873046875 19.16015625,40.107421875 19.892578125,41.044921875 20.09765625,40.48828125 20.4931640625,40.0927734375 20.9619140625,39.8583984375 21.357421875,39.78515625 21.826171875,39.9169921875 22.294921875,40.224609375 27.861328125,40.224609375 26.865234375,27.36328125 26.54296875,26.2646484375 25.8837890625,25.166015625 25.0341796875,24.19921875 24.169921875,23.466796875 23.525390625,23.349609375z M21.85546875,21.62109375L21.826171875,22.177734375 21.826171875,22.6171875 21.796875,23.02734375 22.119140625,22.822265625 22.5,22.6611328125 23.056640625,22.587890625 21.85546875,21.62109375z M18.22265625,2.373046875L18.984375,2.87109375 18.134765625,3.6328125 17.900390625,3.046875 18.22265625,2.373046875z M19.6875,0.966796875L17.4755859375,1.318359375 15.3515625,2.255859375 14.5166015625,2.9296875 13.681640625,3.57421875 16.083984375,4.072265625 18.017578125,5.0390625 18.7939453125,5.7861328125 19.013671875,6.4453125 18.45703125,7.4853515625 17.1826171875,8.408203125 15.7763671875,9.287109375 14.853515625,10.166015625 14.677734375,10.810546875 15,11.953125 15.5859375,12.978515625 16.11328125,13.59375 17.4462890625,16.083984375 19.365234375,18.1640625 21.591796875,19.9951171875 23.818359375,21.73828125 24.84375,22.646484375 25.751953125,23.49609375 26.77734375,24.6533203125 27.71484375,25.37109375 28.974609375,24.755859375 30.17578125,24.3310546875 31.435546875,24.140625 32.9736328125,24.287109375 34.453125,24.609375 35.4345703125,24.84375 36.240234375,25.166015625 37.55859375,26.162109375 38.935546875,26.89453125 40.6787109375,27.3046875 42.48046875,27.451171875 42.8759765625,27.2314453125 43.212890625,26.923828125 42.8173828125,26.3818359375 42.2900390625,25.78125 41.7041015625,25.224609375 41.19140625,24.78515625 40.693359375,24.404296875 35.244140625,23.02734375 30.41015625,21.474609375 26.66015625,20.0537109375 23.4375,18.4423828125 21.181640625,16.58203125 20.54443359375,15.5493183135986 20.33203125,14.443359375 20.4931640625,13.4912109375 20.859375,12.568359375 21.123046875,12.0849609375 21.416015625,11.6015625 22.236328125,12.099609375 21.826171875,12.802734375 21.5625,13.5498046875 21.4453125,14.443359375 22.177734375,16.11328125 24.1552734375,17.7099609375 27.0703125,19.2041015625 30.615234375,20.56640625 35.09765625,21.97265625 39.521484375,23.203125 36.1669921875,20.1416015625 32.63671875,17.255859375 29.912109375,15.322265625 27.041015625,13.59375 25.2392578125,12.685546875 23.408203125,11.89453125 21.8994140625,11.4111328125 20.361328125,11.1328125 19.5703125,11.0009765625 18.80859375,10.83984375 18.369140625,10.72265625 17.9296875,10.60546875 17.24853515625,10.1733417510986 17.021484375,9.638671875 17.373046875,8.7890625 18.193359375,7.9541015625 19.1455078125,7.2509765625 19.921875,6.796875 20.5224609375,6.5185546875 21.15234375,6.240234375 21.8994140625,5.859375 22.67578125,5.390625 23.8623046875,4.3798828125 24.31640625,3.046875 24.3017578125,2.7685546875 24.2578125,2.490234375 21.97265625,1.4794921875 19.6875,0.966796875z M19.51171875,0L20.947265625,0.17578125 22.44140625,0.703125 24.0673828125,1.4501953125 25.7373046875,2.197265625 27.36328125,2.75390625 29.7216796875,3.33984375 31.8896484375,3.837890625 34.0576171875,4.2919921875 36.4453125,4.74609375 36.4453125,4.86328125 33.75,4.716796875 30.7763671875,4.3359375 27.8173828125,3.80859375 25.166015625,3.22265625 26.6748046875,3.984375 28.4033203125,4.74609375 30.1904296875,5.478515625 31.93359375,6.15234375 35.947265625,7.587890625 35.947265625,7.705078125 31.962890625,6.73828125 28.388671875,5.625 24.990234375,4.189453125 24.0966796875,5.2734375 22.91015625,6.1962890625 21.6064453125,6.9580078125 20.361328125,7.587890625 19.6728515625,7.939453125 18.9697265625,8.3935546875 18.369140625,8.9501953125 18.017578125,9.609375 18.779296875,9.9462890625 19.62890625,10.107421875 20.5078125,10.1953125 21.328125,10.3125 25.634765625,11.8359375 29.9853515625,14.3701171875 34.1162109375,17.314453125 38.0126953125,20.5517578125 41.689453125,23.994140625 42.744140625,24.1552734375 43.828125,24.345703125 45.029296875,24.580078125 42.744140625,24.990234375 43.1689453125,25.4736328125 43.6376953125,25.9716796875 44.0185546875,26.4697265625 44.1796875,26.89453125 44.033203125,27.3486328125 43.681640625,27.7587890625 43.2568359375,28.0810546875 42.861328125,28.30078125 42.36328125,28.359375 41.748046875,28.359375 38.6865234375,27.7294921875 35.7421875,25.95703125 33.7939453125,25.3857421875 31.552734375,25.048828125 30.498046875,25.1513671875 29.384765625,25.48828125 28.4619140625,26.103515625 27.94921875,27.01171875 27.890625,27.94921875 28.916015625,40.224609375 30.087890625,39.78515625 30.9228515625,40.1220703125 31.728515625,41.1328125 31.0546875,40.7080078125 30.673828125,40.576171875 30.234375,40.6494140625 29.35546875,41.1328125 21.796875,41.1328125 21.2841796875,40.7666015625 20.625,40.576171875 20.33203125,40.72265625 19.921875,41.1328125 19.3359375,40.72265625 18.720703125,40.546875 18.1640625,40.6787109375 17.431640625,41.1328125 9.4921875,41.1328125 8.759765625,40.634765625 7.939453125,40.4296875 7.2802734375,40.5615234375 6.708984375,41.1328125 7.55859375,40.0341796875 8.818359375,39.697265625 9.43359375,39.8291015625 10.01953125,40.224609375 15.966796875,40.224609375 16.6845703125,38.14453125 17.5048828125,35.6396484375 18.33984375,33.0029296875 19.1015625,30.498046875 19.716796875,28.41796875 20.09765625,27.01171875 20.390625,25.6201171875 20.6396484375,24.1845703125 20.8154296875,22.8955078125 20.888671875,21.884765625 20.888671875,20.595703125 19.482421875,19.4091796875 17.9736328125,18.0322265625 16.552734375,16.3916015625 15.380859375,14.4140625 15.17578125,15.2490234375 15.1171875,15.99609375 15.2783203125,17.490234375 15.673828125,18.92578125 14.6337890625,17.0068359375 14.35546875,15.556640625 14.94140625,13.7109375 14.4140625,12.861328125 14.00390625,11.982421875 13.828125,11.337890625 13.76953125,10.78125 14.2236328125,9.4189453125 15.3369140625,8.4521484375 16.728515625,7.6171875 18.046875,6.62109375 17.490234375,5.7568359375 16.3330078125,5.068359375 15.029296875,4.6142578125 14.033203125,4.423828125 12.24609375,4.3359375 9.0234375,4.599609375 5.595703125,5.2880859375 2.49023413658142,6.2255859375 0.26367175579071,7.236328125 0.205078363418579,7.20703125 0.1171875,7.1484375 0,7.03125 0.322265863418579,6.4306640625 1.11328125,5.8447265625 2.09472632408142,5.33203125 2.98828172683716,4.98046875 5.18554735183716,4.39453125 7.7197265625,3.8671875 10.2978515625,3.486328125 12.59765625,3.33984375 14.337158203125,1.878662109375 16.0400390625,0.8349609375 17.750244140625,0.208740234375 19.51171875,0z" />
    </g>
  </g>
</svg>