<?xml version="1.0" encoding="utf-8"?>
<!DOCTYPE svg PUBLIC "-//W3C//DTD SVG 1.1//EN" "http://www.w3.org/Graphics/SVG/1.1/DTD/svg11.dtd">
<svg width="44.443359375" height="27.421875" xmlns="http://www.w3.org/2000/svg" xmlns:xlink="http://www.w3.org/1999/xlink" xmlns:xml="http://www.w3.org/XML/1998/namespace" version="1.1">
  <g>
    <g>
      <path style="fill:#FF0000;fill-opacity:1" d="M35.68359375,17.40234375L35.068359375,19.86328125 33.8818359375,23.525390625 32.16796875,26.484375 33.28125,26.484375 34.013671875,25.2978515625 35.009765625,24.31640625 35.6982421875,21.1962890625 36.73828125,18.1640625 35.68359375,17.40234375z M6.181640625,10.4296875L6.533203125,11.30859375 6.181640625,11.8359375 5.44921875,11.1328125 6.181640625,10.4296875z M18.8671875,3.779296875L15.15380859375,3.96240234375 12.744140625,4.51171875 11.2280263900757,5.32470703125 10.25390625,6.298828125 9.84375,6.943359375 9.287109375,7.08984375 7.294921875,6.328125 6.650390625,6.708984375 5.96191453933716,7.08984375 5.390625,7.353515625 4.833984375,7.55859375 4.74609422683716,8.818359375 4.7021484375,9.8291015625 4.6875,10.60546875 4.716796875,11.982421875 4.892578125,13.53515625 5.03906202316284,14.4140625 5.185546875,15.5859375 5.1708984375,15.6884765625 5.15625,15.791015625 5.15625,15.908203125 5.390625,16.083984375 6.708984375,16.083984375 7.08984375,15.732421875 7.4853515625,15.06591796875 8.61328125,13.828125 10.05615234375,12.66357421875 11.279296875,12.275390625 12.3193359375,12.568359375 13.388671875,13.53515625 13.828125,14.091796875 14.443359375,15.1318359375 14.677734375,15.99609375 14.3701171875,17.51953125 13.447265625,20.33203125 11.9677724838257,23.6279296875 9.990234375,26.484375 11.396484375,26.484375 11.9531240463257,24.8291015625 13.330078125,23.7890625 14.0002431869507,21.02783203125 14.8388671875,18.896484375 16.962890625,15.9375 16.4794921875,14.53125 15.5859375,12.392578125 14.765625,10.24658203125 14.4140625,8.7890625 14.615478515625,7.913818359375 15.2197265625,6.9873046875 17.34375,5.244140625 17.783203125,6.064453125 16.6552734375,6.884765625 15.966796875,7.529296875 15.5126953125,8.115234375 15.3515625,8.759765625 15.4833984375,9.462890625 15.706787109375,10.12939453125 16.11328125,11.19140625 16.5673828125,12.36328125 17.109375,13.65234375 17.958984375,15.99609375 18.486328125,17.666015625 19.1748046875,19.4384765625 19.62890625,20.7568359375 19.8779296875,21.767578125 19.951171875,22.587890625 19.5556640625,24.7265625 18.75,26.484375 19.921875,26.484375 20.068359375,25.8544921875 20.244140625,25.283203125 20.56640625,24.19921875 21.2109375,23.0859375 20.0244140625,19.7021484375 19.39453125,16.171875 19.833984375,15.615234375 21.650390625,15.3662109375 23.61328125,15.263671875 25.8544921875,15.439453125 27.12890625,15.966796875 27.5390625,16.435546875 29.6484375,15.966796875 31.3916015625,15.6298828125 32.841796875,15.46875 35.56640625,16.1279296875 37.646484375,17.51953125 36.6650390625,16.318359375 35.9619140625,15.4248046875 35.3759765625,14.6630859375 34.8046875,13.857421875 33.57421875,11.923828125 32.197265625,9.228515625 33.046875,8.84765625 33.2666015625,9.345703125 33.544921875,9.931640625 33.8232421875,10.4736328125 34.013671875,10.810546875 34.9072265625,12.2900390625 35.595703125,13.3740234375 36.240234375,14.2822265625 36.97265625,15.263671875 37.5146484375,15.9228515625 38.0419921875,16.5380859375 38.4814453125,17.021484375 38.759765625,17.28515625 39.140625,17.6953125 40.576171875,19.5703125 40.576171875,20.91796875 40.60546875,22.734375 40.634765625,24.3603515625 40.634765625,25.13671875 39.697265625,26.484375 41.572265625,26.484375 41.54296875,25.986328125 41.4990234375,25.60546875 41.484375,25.341796875 41.5869140625,24.580078125 42.01171875,23.935546875 41.66015625,21.767578125 41.6015625,19.541015625 40.3564453125,17.4462890625 39.84375,14.853515625 39.99755859375,13.125 40.458984375,10.927734375 40.9423828125,8.7451171875 41.103515625,6.943359375 41.103515625,5.91796875 38.4228515625,4.892578125 34.716796875,4.62890625 31.640625,4.6875 28.76953125,4.74609375 23.3203125,4.27734375 20.9033203125,3.9111328125 18.8671875,3.779296875z M6.97265625,0L7.119140625,0.029296875 7.236328125,1.3623046875 7.734375,2.63671875 8.4228515625,3.8232421875 8.73046875,5.068359375 8.49609375,5.80078125 9.2578125,6.09375 10.579833984375,4.69482421875 12.4365234375,3.662109375 14.849853515625,3.02490377426147 17.841796875,2.8125 20.478515625,2.9443359375 23.291015625,3.310546875 26.1181640625,3.6767578125 28.798828125,3.80859375 31.69921875,3.7353515625 34.716796875,3.662109375 37.254638671875,3.77197265625 39.2431640625,4.1015625 42.0703125,5.478515625 43.0517578125,6.73095703125 43.76953125,8.61328125 44.23095703125,11.11083984375 44.443359375,14.208984375 44.443359375,14.6484375 44.384765625,16.083984375 44.208984375,17.4462890625 43.916015625,18.5888671875 43.4765625,19.39453125 43.18359375,18.5595703125 43.125,17.4609375 43.154296875,16.34765625 43.1982421875,14.7509765625 43.2421875,13.1982421875 43.271484375,12.24609375 43.212890625,10.95703125 43.0078125,9.5361328125 42.6416015625,8.14453125 42.12890625,6.97265625 42.0263671875,7.822265625 41.8505859375,8.8623046875 41.630859375,9.931640625 41.42578125,10.83984375 41.044921875,12.3046875 40.83984375,13.271484375 40.751953125,14.619140625 40.8837890625,16.17919921875 41.279296875,17.28515625 41.748046875,17.9736328125 42.01171875,18.369140625 42.36328125,18.955078125 42.626953125,20.244140625 42.65625,21.03515625 42.65625,21.6796875 42.978515625,23.96484375 42.802734375,24.4921875 42.5244140625,24.755859375 42.421875,25.048828125 42.4365234375,25.517578125 42.48046875,26.162109375 42.5390625,26.953125 42.041015625,27.421875 38.73046875,27.421875 38.349609375,26.71875 39.7265625,24.90234375 39.7265625,20.009765625 38.525390625,18.45703125 37.646484375,18.45703125 36.5625,21.533203125 35.888671875,24.7265625 35.6103515625,25.01953125 35.1708984375,25.4296875 34.6142578125,26.0888671875 34.013671875,27.099609375 33.544921875,27.421875 31.171875,27.421875 30.87890625,26.6015625 32.6513671875,24.01611328125 33.8671875,20.712890625 34.281005859375,19.0869140625 34.5849609375,17.900390625 34.786376953125,17.138671875 34.892578125,16.787109375 33.9111328125,16.4501953125 32.87109375,16.34765625 29.765625,16.875 28.857421875,17.1240234375 28.037109375,17.314453125 27.216796875,17.51953125 26.25,16.5234375 23.232421875,16.259765625 21.796875,16.318359375 20.361328125,16.494140625 21.03515625,19.833984375 22.20703125,23.02734375 22.1484375,23.466796875 21.2109375,25.37109375 20.9619140625,26.3525390625 20.80078125,26.953125 20.302734375,27.421875 17.958984375,27.421875 17.578125,26.71875 18.80859375,23.96484375 19.04296875,22.5 18.8525390625,21.24755859375 18.28125,19.599609375 17.6513671875,18.046875 17.255859375,16.9921875 15.322265625,20.0390625 14.68505859375,21.9580078125 14.1796875,24.2578125 13.857421875,24.580078125 12.685546875,25.5029296875 12.3046875,26.953125 11.806640625,27.421875 8.96484375,27.421875 8.671875,26.6015625 11.806640625,21.650390625 13.7109375,16.083984375 12.744140625,14.1796875 11.9604482650757,13.45458984375 11.1328125,13.212890625 9.43359375,14.326171875 8.02734375,15.8203125 7.8369140625,16.4208984375 7.3388671875,16.81640625 6.6650390625,17.021484375 5.947265625,17.080078125 4.658203125,16.728515625 4.30664014816284,16.435546875 4.16015625,15.99609375 4.27734327316284,15.615234375 3.8525390625,12.83203125 3.75,10.048828125 3.75,7.998046875 3.26660203933716,7.7783203125 2.78320360183716,7.3974609375 2.37304663658142,6.9287109375 2.10937476158142,6.474609375 2.10937476158142,6.328125 2.08007788658142,6.0205078125 2.02148461341858,5.712890625 1.962890625,5.361328125 1.34765601158142,4.3359375 0,3.603515625 0.175781011581421,3.369140625 1.02539086341858,3.486328125 1.90429663658142,3.896484375 2.59277296066284,4.6728515625 2.87109375,5.888671875 3.3544921875,6.357421875 4.16015625,6.826171875 6.09375,5.947265625 7.1337890625,5.3173828125 7.587890625,4.62890625 7.3828125,3.779296875 7.001953125,2.958984375 6.5625,1.435546875 6.97265625,0z" />
    </g>
  </g>
</svg>