<?xml version="1.0" encoding="utf-8"?>
<!DOCTYPE svg PUBLIC "-//W3C//DTD SVG 1.1//EN" "http://www.w3.org/Graphics/SVG/1.1/DTD/svg11.dtd">
<svg width="43.681640625" height="44.560546875" xmlns="http://www.w3.org/2000/svg" xmlns:xlink="http://www.w3.org/1999/xlink" xmlns:xml="http://www.w3.org/XML/1998/namespace" version="1.1">
  <g>
    <g>
      <path style="fill:#FF0000;fill-opacity:1" d="M21.6796875,29.47265625L22.0458984375,30.4833984375 22.2509765625,31.259765625 22.353515625,31.9189453125 22.3828125,32.578125 21.9873046875,35.1708984375 20.7421875,38.49609375 19.951171875,40.1953125 19.2626953125,41.689453125 18.7353515625,42.861328125 18.427734375,43.59375 23.3203125,43.59375 25.01953125,40.283203125 25.400390625,39.4775390625 25.869140625,38.3056640625 26.279296875,37.060546875 26.455078125,36.005859375 26.2646484375,34.8046875 25.6640625,33.310546875 24.55078125,31.171875 23.7158203125,30.76171875 22.8955078125,30.29296875 22.177734375,29.853515625 21.6796875,29.47265625z M19.716796875,19.39453125L20.91796875,20.7275390625 22.32421875,21.826171875 22.8515625,20.625 22.7783203125,20.009765625 22.6171875,19.39453125 19.716796875,19.39453125z M16.611328125,19.39453125L20.15625,26.396484375 20.7421875,27.2900390625 21.796875,28.359375 22.4853515625,28.88671875 23.0712890625,29.2529296875 23.61328125,29.5458984375 24.19921875,29.853515625 24.9755859375,30.17578125 25.9423828125,30.4541015625 26.9970703125,30.6884765625 28.0078125,30.849609375 29.7802734375,31.0107421875 31.34765625,31.0546875 33.8525390625,30.926513671875 35.5078125,30.5419921875 36.4306640625,29.923095703125 36.73828125,29.091796875 36.5625,28.330078125 34.09423828125,25.75927734375 31.376953125,21.85546875 30.556640625,20.5810546875 29.736328125,19.39453125 23.49609375,19.39453125 23.6572265625,20.126953125 23.7890625,20.859375 23.291015625,22.03125 22.8076152801514,22.62451171875 22.412109375,22.822265625 21.14501953125,22.177734375 19.62890625,20.771484375 18.57421875,19.39453125 16.611328125,19.39453125z M26.015625,15.3515625L23.26171875,17.109375 27.685546875,16.875 26.015625,15.3515625z M40.224609375,6.62109375L38.49609375,17.109375 42.744140625,18.6328125 42.744140625,6.62109375 40.224609375,6.62109375z M13.623046875,3.427734375L14.267578125,3.92578125 13.564453125,4.39453125 13.359375,3.92578125 13.623046875,3.427734375z M14.8828125,0.9375L12.8466796875,1.5380859375 11.19140625,2.9296875 10.546875,3.6181640625 10.078125,3.92578125 11.748046875,5.888671875 12.275390625,8.73046875 12.421875,10.517578125 12.802734375,11.806640625 15.703125,17.578125 16.6552734375,17.51953125 17.548828125,17.4609375 16.8603515625,15.380859375 16.611328125,13.359375 16.7578125,12.568359375 17.3583984375,12.041015625 18.10546875,11.7041015625 18.837890625,11.5283203125 19.423828125,11.484375 19.423828125,12.421875 19.21875,12.421875 18.369140625,12.6123046875 17.548828125,13.095703125 17.79052734375,15.2783222198486 18.515625,17.373046875 20.302734375,17.2705078125 21.9140625,17.16796875 21.97265625,16.81640625 25.4296875,14.619140625 23.2104473114014,11.3525390625 20.126953125,8.232421875 20.126953125,8.056640625 19.86328125,6.7529296875 19.130859375,4.599609375 17.548828125,1.93359375 16.38427734375,1.1865234375 14.8828125,0.9375z M15.17578125,0L16.937255859375,0.355224609375 18.3544921875,1.4208984375 19.493408203125,3.109130859375 20.419921875,5.33203125 21.26953125,7.91015625 24.1332988739014,10.9423828125 26.396484375,14.47265625 27.685546875,15.5419921875 28.916015625,16.81640625 30,16.787109375 30.908203125,16.787109375 37.529296875,17.05078125 39.43359375,5.68359375 43.681640625,5.68359375 43.681640625,19.39453125 30.791015625,19.39453125 32.28515625,21.73828125 33.8232421875,24.0087890625 35.33203125,25.927734375 36.73828125,27.24609375 37.46337890625,28.037109375 37.705078125,29.0625 37.28759765625,30.44677734375 36.03515625,31.318359375 34.00634765625,31.787109375 31.259765625,31.962890625 30.3076171875,31.93359375 29.150390625,31.845703125 27.5537109375,31.669921875 26.07421875,31.435546875 27.0703125,33.515625 27.2900390625,34.1162109375 27.48046875,34.775390625 27.6123046875,35.3759765625 27.65625,35.830078125 27.216796875,38.1884765625 26.1328125,40.60546875 24.638671875,43.59375 27.48046875,43.59375 28.41796875,44.560546875 9.521484375,44.560546875 10.48828125,43.59375 17.080078125,43.59375 18.80859375,39.78515625 20.390625,35.9765625 21.03515625,32.34375 21.005859375,31.435546875 20.8740234375,30.5419921875 20.5810546875,29.5458984375 20.0390625,28.330078125 15.556640625,19.39453125 9.66796875,19.39453125 7.5146484375,20.0537128448486 5.21484327316284,20.2734375 2.79052734375,20.0537128448486 0.205078363418579,19.39453125 0,18.837890625 0.292969226837158,17.8857421875 1.14257800579071,17.51953125 3.9990234375,18.2226581573486 7.763671875,18.45703125 5.63232374191284,17.4023456573486 3.04687452316284,17.05078125 2.6953125,16.81640625 3.04687452316284,16.552734375 4.86328125,16.376953125 7.1337890625,16.7797870635986 9.66796875,17.98828125 14.677734375,17.63671875 11.953125,12.1875 11.5136709213257,10.68603515625 11.30859375,8.525390625 10.8837881088257,6.30615234375 9.78515625,4.8046875 9.2578125,4.599609375 8.701171875,4.365234375 8.0859375,4.1015625 8.0859375,3.75 9.755859375,3.046875 11.2426748275757,1.6259765625 12.48046875,0.703125 15.17578125,0z" />
    </g>
  </g>
</svg>