<?xml version="1.0" encoding="utf-8"?>
<!DOCTYPE svg PUBLIC "-//W3C//DTD SVG 1.1//EN" "http://www.w3.org/Graphics/SVG/1.1/DTD/svg11.dtd">
<svg width="44.4140625" height="26.923828125" xmlns="http://www.w3.org/2000/svg" xmlns:xlink="http://www.w3.org/1999/xlink" xmlns:xml="http://www.w3.org/XML/1998/namespace" version="1.1">
  <g>
    <g>
      <path style="fill:#FF0000;fill-opacity:1" d="M33.33984375,16.611328125L33.0615234375,17.8271484375 33.017578125,19.1015625 33.017578125,20.5078125 32.841796875,21.943359375 32.6220703125,22.7490234375 32.2265625,23.935546875 31.669921875,25.48828125 31.46484375,25.693359375 31.142578125,25.810546875 30.8642578125,25.9423828125 30.64453125,26.162109375 31.435546875,26.162109375 32.431640625,24.84375 32.607421875,24.43359375 32.6513671875,24.0966796875 32.666015625,23.84765625 32.98828125,23.02734375 33.4423828125,21.4599609375 33.8671875,19.541015625 34.39453125,16.875 33.33984375,16.611328125z M15.380859375,16.11328125L14.8388671875,17.783203125 14.765625,18.515625 14.765625,19.74609375 14.58984375,21.298828125 14.1796875,23.056640625 13.7915029525757,24.47021484375 13.623046875,24.9609375 11.71875,26.015625 11.748046875,26.19140625 12.1875,26.0009765625 13.06640625,25.546875 13.623046875,25.341796875 14.1650390625,25.2099609375 14.560546875,25.0048828125 14.70703125,24.609375 14.6484375,23.818359375 14.853515625,22.001953125 15.556640625,19.658203125 16.0546875,18.3984375 16.46484375,17.373046875 16.845703125,16.435546875 15.380859375,16.11328125z M8.173828125,5.126953125L8.96484375,5.654296875 8.173828125,6.2109375 7.91015625,5.654296875 8.173828125,5.126953125z M42.01171875,4.365234375L41.2353515625,4.7021484375 40.986328125,5.830078125 41.19140625,7.05322265625 41.806640625,8.26171875 42.421875,8.0712890625 43.0078125,7.67578125 43.447265625,7.1484375 43.65234375,6.5625 43.564453125,5.91796875 43.271484375,5.2001953125 42.7587890625,4.6142578125 42.01171875,4.365234375z M8.583984375,0.966796875L8.96484375,3.310546875 8.61328125,3.779296875 7.41943359375,4.21875 5.361328125,5.009765625 3.03955078125,5.74951171875 0.99609375,6.09375 1.34765648841858,8.583984375 5.06835889816284,9.55078125 7.6611328125,10.5615234375 11.103515625,12.5390625 12.8356924057007,13.626708984375 14.1064453125,14.4287109375 14.923095703125,14.945068359375 15.29296875,15.17578125 17.607421875,15.615234375 17.9296875,15.908203125 18.544921875,17.75390625 19.130859375,19.4091796875 19.74609375,20.9765625 20.830078125,23.3203125 21.474609375,24.462890625 21.38671875,25.0048828125 21.181640625,25.37109375 20.888671875,25.634765625 20.2587890625,25.7373046875 19.8046875,26.162109375 20.654296875,26.162109375 20.9765625,25.810546875 21.38671875,25.458984375 21.73828125,25.1220703125 21.884765625,24.814453125 21.5478515625,23.671875 21.005859375,21.6796875 20.419921875,19.51171875 20.15625,17.87109375 20.1708984375,17.314453125 20.21484375,16.669921875 20.302734375,15.966796875 20.888671875,15.615234375 22.822265625,15.76171875 24.755859375,15.791015625 26.7626953125,15.76171875 28.681640625,15.6884765625 30.7177734375,15.615234375 33.046875,15.5859375 35.21484375,16.142578125 36.85546875,16.845703125 37.998046875,17.3583984375 38.583984375,17.63671875 38.73046875,17.7978515625 38.90625,18.046875 39.814453125,19.453125 40.4443359375,20.888671875 40.60546875,22.20703125 40.546875,22.5732421875 40.4296875,23.1005859375 40.3125,23.6279296875 40.224609375,23.994140625 39.990234375,24.697265625 39.43359375,25.634765625 38.84765625,25.95703125 38.642578125,26.162109375 39.55078125,26.162109375 39.6826171875,25.8544921875 39.990234375,25.4150390625 40.3125,25.0048828125 40.48828125,24.755859375 40.6640625,24.3310546875 40.78125,23.84765625 40.7666015625,23.5693359375 40.751953125,23.203125 40.751953125,23.02734375 40.869140625,22.001953125 40.986328125,20.830078125 41.07421875,19.658203125 41.103515625,18.6328125 39.814453125,16.9921875 39.19921875,15.498046875 39.2138671875,14.853515625 39.2578125,14.443359375 39.580078125,12.421875 39.6240234375,11.923828125 39.638671875,11.42578125 39.2578125,9.66796875 39.0234375,9.140625 38.1591796875,7.880859375 36.5625,6.2109375 34.1748046875,4.7607421875 30.99609375,4.27734375 29.1357421875,4.3359375 26.54296875,4.51171875 23.818359375,4.6875 21.591796875,4.74609375 18.69140625,4.5849609375 15.615234375,4.16015625 14.2602529525757,3.9404296875 13.65234375,3.8671875 13.037109375,3.22265625 12.3779296875,2.5341796875 11.337890625,1.787109375 10.0048828125,1.18652486801147 8.583984375,0.966796875z M7.998046875,0L11.337890625,0.7470703125 12.7441396713257,1.61499166488647 13.974609375,2.900390625 17.841796875,3.603515625 21.796875,3.896484375 23.3349609375,3.8232421875 25.400390625,3.662109375 27.3779296875,3.5009765625 28.681640625,3.427734375 30.1611328125,3.369140625 30.849609375,3.33984375 33.45703125,3.58154296875 35.537109375,4.306640625 37.529296875,5.8447265625 39.814453125,8.466796875 40.927734375,8.466796875 40.60546875,7.9248046875 40.341796875,7.20703125 40.1513671875,6.4599609375 40.078125,5.80078125 40.13671875,5.1416015625 40.4296875,4.306640625 40.9716796875,3.80859375 41.865234375,3.603515625 43.30078125,3.9697265625 44.0625,4.8193359375 44.35546875,5.7568359375 44.4140625,6.416015625 44.326171875,7.03125 44.00390625,7.7490234375 43.3447265625,8.4521484375 42.24609375,9.052734375 43.154296875,10.6201171875 43.564453125,12.333984375 43.447265625,13.359375 42.978515625,13.30078125 42.4365234375,11.220703125 41.455078125,9.2578125 40.83984375,9.375 40.224609375,9.43359375 40.4443359375,10.3857421875 40.546875,11.396484375 40.341796875,13.4033203125 40.13671875,15.498046875 40.751953125,16.640625 41.396484375,17.51953125 41.7919921875,17.9736328125 42.041015625,18.427734375 41.982421875,19.7021484375 41.806640625,21.2109375 41.630859375,22.55859375 41.572265625,23.349609375 41.572265625,23.818359375 41.396484375,24.7412109375 40.72265625,25.6640625 40.3125,26.1328125 40.13671875,26.455078125 39.638671875,26.923828125 37.763671875,26.923828125 37.587890625,25.986328125 38.2763671875,25.4296875 39.052734375,25.078125 39.345703125,24.2578125 39.638671875,23.2470703125 39.78515625,22.177734375 39.55078125,20.9033203125 38.671875,19.365234375 37.96875,18.33984375 36.474609375,17.75390625 35.2734375,17.2265625 34.5703125,20.7421875 34.130859375,22.470703125 33.544921875,24.169921875 32.8125,25.60546875 32.109375,26.455078125 31.611328125,26.923828125 29.736328125,26.923828125 29.560546875,25.986328125 30.2490234375,25.4296875 31.025390625,25.078125 31.669921875,22.91015625 31.962890625,21.533203125 32.0654296875,20.7275390625 32.109375,20.15625 32.109375,19.423828125 32.138671875,17.958984375 32.40234375,16.5234375 29.6484375,16.611328125 28.2275390625,16.6259765625 26.9091796875,16.669921875 25.546875,16.7138671875 24.0234375,16.728515625 22.587890625,16.69921875 21.181640625,16.58203125 21.09375,17.8125 21.09375,18.251953125 21.38671875,20.2734375 21.708984375,21.2255859375 22.060546875,22.470703125 22.34619140625,23.56201171875 22.6171875,24.19921875 22.8515625,24.90234375 22.6611328125,25.4150390625 22.20703125,25.78125 21.62109375,26.19140625 21.15234375,26.748046875 20.9033203125,26.8505859375 20.7421875,26.923828125 18.8671875,26.923828125 18.69140625,25.986328125 19.5703125,25.3564453125 20.595703125,25.048828125 20.625,24.990234375 20.68359375,24.78515625 20.2294921875,23.8916015625 19.423828125,22.265625 17.490234375,17.373046875 16.376953125,19.86328125 15.6298828125,22.02392578125 15.380859375,23.994140625 15.556640625,24.638671875 15.2197265625,25.27587890625 14.208984375,25.83984375 13.1469717025757,26.33056640625 12.65625,26.748046875 12.4072265625,26.8505859375 12.24609375,26.923828125 10.83984375,26.923828125 10.400390625,26.3671875 10.927734375,25.400390625 12.158203125,25.048828125 12.9052724838257,24.43359375 13.271484375,23.583984375 13.7548828125,21.5625 14.033203125,19.51171875 13.9599609375,18.662109375 13.88671875,17.87109375 14.00390625,16.962890625 14.53125,15.791015625 10.3125,13.212890625 7.6318359375,11.6455078125 5.859375,10.810546875 4.79003858566284,10.4443359375 4.27734375,10.25390625 0.908203125,9.43359375 0.46875,9.052734375 0,5.7421875 0.439453125,5.185546875 0.791015863418579,5.185546875 2.63671875,4.92919921875 5.00976514816284,4.16015625 6.2109375,3.7060546875 7.1484375,3.33984375 7.96875,3.017578125 7.55859375,0.556640625 7.998046875,0z" />
    </g>
  </g>
</svg>