<?xml version="1.0" encoding="utf-8"?>
<!DOCTYPE svg PUBLIC "-//W3C//DTD SVG 1.1//EN" "http://www.w3.org/Graphics/SVG/1.1/DTD/svg11.dtd">
<svg width="55.751953125" height="46.34765625" xmlns="http://www.w3.org/2000/svg" xmlns:xlink="http://www.w3.org/1999/xlink" xmlns:xml="http://www.w3.org/XML/1998/namespace" version="1.1">
  <g>
    <g>
      <path style="fill:#FF0000;fill-opacity:1" d="M53.408203125,40.048828125L53.759765625,41.1328125 54.345703125,41.1328125 53.408203125,40.048828125z M30.205078125,35.859375L29.1064453125,36.8115234375 28.095703125,37.32421875 27.802734375,37.294921875 25.810546875,36.6796875 24.931640625,37.32421875 23.994140625,38.994140625 23.408203125,40.8544921875 22.91015625,43.037109375 26.0009765625,43.359375 29.091796875,43.4765625 29.736328125,43.06640625 30.2197265625,42.451171875 30.52734375,41.5283203125 30.64453125,40.166015625 30.53466796875,38.34228515625 30.205078125,35.859375z M18.779296875,35.859375L17.6806640625,36.8115234375 16.669921875,37.32421875 16.376953125,37.294921875 14.384765625,36.6796875 13.505859375,37.32421875 12.568359375,38.994140625 11.982421875,40.8544921875 11.484375,43.037109375 14.5751953125,43.359375 17.666015625,43.4765625 18.310546875,43.06640625 18.7939453125,42.451171875 19.1015625,41.5283203125 19.21875,40.166015625 19.10888671875,38.34228515625 18.779296875,35.859375z M19.921875,35.654296875L20.126953125,37.2509765625 20.2734375,38.3935546875 20.3466796875,39.2138671875 20.361328125,39.814453125 20.2294921875,41.455078125 19.74609375,42.94921875 21.9140625,43.037109375 22.294921875,41.3671875 22.67578125,39.697265625 23.115234375,37.91015625 21.4453125,36.7529296875 19.921875,35.654296875z M37.265625,33.046875L37.20703125,33.720703125 37.1484375,34.5849609375 37.060546875,35.771484375 36.85546875,37.1337890625 36.4453125,38.408203125 35.830078125,38.701171875 34.7314453125,38.0126953125 33.5595703125,37.2216796875 32.3876953125,36.416015625 31.34765625,35.654296875 31.4501953125,36.5478515625 31.552734375,37.294921875 32.197265625,39.169921875 32.8125,41.162109375 33.369140625,42.890625 33.837890625,44.00390625 42.65625,45.380859375 42.802734375,45 42.48046875,43.740234375 41.9677734375,41.9970703125 41.396484375,40.1513671875 40.8984375,38.583984375 39.814453125,36.767578125 38.525390625,34.8046875 37.96875,34.013671875 37.587890625,33.45703125 37.265625,33.046875z M25.01953125,23.994140625L24.9609375,25.2099609375 24.84375,26.9091796875 24.7119140625,28.7548828125 24.580078125,30.380859375 24.4921875,32.109375 24.4482421875,33.80859375 24.404296875,35.3466796875 24.31640625,36.533203125 25.0927734375,35.9033203125 25.810546875,35.771484375 26.8359375,35.9912109375 27.94921875,36.38671875 28.8720703125,35.859375 29.560546875,34.98046875 25.01953125,23.994140625z M13.59375,23.994140625L13.53515625,25.2099609375 13.41796875,26.9091796875 13.2861328125,28.7548828125 13.154296875,30.380859375 13.06640625,32.109375 13.0224609375,33.80859375 12.978515625,35.3466796875 12.890625,36.533203125 13.6669921875,35.9033203125 14.384765625,35.771484375 15.41015625,35.9912109375 16.5234375,36.38671875 17.4462890625,35.859375 18.134765625,34.98046875 13.59375,23.994140625z M20.712890625,3.837890625L20.771484375,3.837890625 21.3427734375,4.0283203125 21.884765625,4.599609375 22.353515625,5.4931640625 22.6171875,6.416015625 23.115234375,5.2001953125 23.876953125,4.3359375 24.84375,3.837890625 25.810546875,4.423828125 25.810546875,5.009765625 24.990234375,5.625 24.08203125,5.33203125 23.4228515625,6.4892578125 23.232421875,8.0859375 23.232421875,8.994140625 22.294921875,9.052734375 21.97265625,7.236328125 21.298828125,5.478515625 20.771484375,5.625 19.716796875,4.951171875 19.716796875,4.482421875 20.712890625,3.837890625z M9.287109375,3.837890625L9.345703125,3.837890625 9.9169921875,4.0283203125 10.458984375,4.599609375 10.927734375,5.4931640625 11.19140625,6.416015625 11.689453125,5.2001953125 12.451171875,4.3359375 13.41796875,3.837890625 14.384765625,4.423828125 14.384765625,5.009765625 13.564453125,5.625 12.65625,5.33203125 11.9970703125,6.4892578125 11.806640625,8.0859375 11.806640625,8.994140625 10.869140625,9.052734375 10.546875,7.236328125 9.873046875,5.478515625 9.345703125,5.625 8.291015625,4.951171875 8.291015625,4.482421875 9.287109375,3.837890625z M18.28125,0.9375L17.63671875,2.8271484375 17.4609375,5.80078125 17.92236328125,9.873046875 19.306640625,13.828125 21.6650390625,17.6513671875 24.84375,21.064453125 30.673828125,35.21484375 31.5234375,34.599609375 33.603515625,36.15234375 35.771484375,37.587890625 35.9326171875,36.884765625 36.064453125,36.0498046875 36.181640625,34.9365234375 36.298828125,33.427734375 36.474609375,32.05078125 37.20703125,31.7578125 37.8460693359375,32.318115234375 38.67919921875,33.3544921875 39.7064208984375,34.866943359375 40.927734375,36.85546875 43.3447265625,40.8544921875 45.263671875,44.00390625 54.08203125,45.380859375 54.228515625,45 53.994140625,44.2236328125 53.5986328125,43.1689453125 53.115234375,41.953125 52.587890625,40.693359375 51.2109375,37.6171875 46.494140625,34.16015625 44.0478515625,32.40234375 40.9130859375,30.1611328125 37.3974609375,27.568359375 33.80859375,24.7705078125 30.4833984375,21.9287109375 27.7294921875,19.189453125 25.83984375,16.7138671875 25.13671875,14.619140625 25.3674297332764,13.6523456573486 26.0595703125,12.919921875 28.41796875,12.3046875 28.564453125,13.212890625 27.4108867645264,13.4326190948486 26.6455078125,13.740234375 26.07421875,14.736328125 26.7333984375,16.435546875 28.5498046875,18.6474609375 31.2744140625,21.2548828125 34.6435546875,24.0966796875 38.37890625,27.0263671875 42.2314453125,29.912109375 45.966796875,32.6220703125 49.306640625,35.009765625 46.73583984375,31.640625 44.70703125,28.740234375 41.8359375,24.140625 39.78515625,20.56640625 38.126220703125,17.7868671417236 36.6650390625,15.4833984375 35.386962890625,13.6340351104736 34.27734375,12.216796875 32.3291015625,10.18798828125 30.64453125,8.96484375 29.3847637176514,8.22509765625 28.7109375,7.646484375 28.095703125,6.767578125 27.9199199676514,5.86669921875 27.861328125,4.1015625 27.802734375,2.3876953125 27.392578125,0.9375 18.28125,0.9375z M6.85546875,0.9375L6.2109375,2.8271484375 6.03515577316284,5.80078125 6.49658203125,9.873046875 7.880859375,13.828125 10.2392578125,17.6513671875 13.41796875,21.064453125 19.248046875,35.21484375 20.09765625,34.599609375 21.6796875,35.8154296875 23.3203125,36.97265625 23.4814453125,35.390625 23.5400390625,33.6767578125 23.5693359375,31.9775390625 23.642578125,30.41015625 23.7744140625,28.4619140625 23.90625,26.015625 20.068359375,22.880859375 16.81640625,19.8046875 14.560546875,16.9775390625 13.9233388900757,15.7214374542236 13.7109375,14.619140625 13.9416494369507,13.6523456573486 14.6337890625,12.919921875 16.9921875,12.3046875 17.138671875,13.212890625 15.985107421875,13.4326190948486 15.2197265625,13.740234375 14.6484375,14.736328125 15.380859375,16.552734375 17.373046875,18.9404296875 20.3466796875,21.73828125 23.994140625,24.755859375 24.08203125,23.0419921875 24.140625,21.73828125 20.859375,18.1640625 18.45703125,14.1796875 17.0068359375,10.08544921875 16.5234375,5.771484375 16.435546875,4.1015625 16.376953125,2.3876953125 15.966796875,0.9375 6.85546875,0.9375z M6.591796875,0L16.025390625,0 16.66259765625,0.278320372104645 17.109375,1.11328172683716 17.63671875,0.234374523162842 18.017578125,0 27.451171875,0 28.388671875,0.732421398162842 28.6523418426514,1.69921875 28.740234375,3.134765625 28.740234375,4.248046875 28.76953125,5.361328125 28.88671875,6.1083984375 29.1064453125,6.6357421875 29.443359375,7.03125 30.087890625,7.646484375 32.2686767578125,8.9373779296875 34.47509765625,10.99365234375 36.7071533203125,13.8153076171875 38.96484375,17.40234375 41.151123046875,21.15966796875 43.1396484375,24.462890625 44.945068359375,27.333984375 46.58203125,29.794921875 50.4345703125,34.9072265625 52.8991661071777,37.935791015625 55.751953125,41.30859375 55.341796875,42.0703125 54.19921875,42.0703125 54.55078125,42.83203125 54.873046875,43.6376953125 55.107421875,44.3701171875 55.1953125,44.94140625 55.13671875,45.263671875 55.01953125,45.5859375 54.84375,46.025390625 54.375,46.34765625 44.94140625,44.8828125 44.560546875,44.6484375 43.6962890625,43.2568359375 42.94921875,42.0703125 43.2421875,42.94921875 43.505859375,43.7841796875 43.6962890625,44.4873046875 43.76953125,44.94140625 43.7109375,45.263671875 43.59375,45.5859375 43.41796875,46.025390625 42.94921875,46.34765625 33.515625,44.8828125 33.134765625,44.6484375 32.4609375,43.06640625 31.728515625,40.83984375 31.494140625,42.158203125 30.966796875,43.30078125 30.087890625,44.1064453125 28.76953125,44.4140625 26.19140625,44.326171875 22.91015625,44.091796875 20.6103515625,43.916015625 19.072265625,43.828125 17.34375,44.4140625 14.765625,44.326171875 11.484375,44.091796875 8.173828125,43.88671875 5.77148389816284,43.828125 3.47168016433716,43.88671875 1.80175805091858,44.033203125 0.688476324081421,44.2236328125 0,44.4140625 0.5712890625,43.7548828125 2.03613305091858,43.2861328125 4.013671875,42.9931640625 6.15234327316284,42.890625 7.587890625,42.919921875 8.994140625,42.978515625 10.48828125,43.037109375 10.95703125,41.044921875 11.396484375,39.169921875 11.865234375,37.20703125 12.041015625,35.6103515625 12.1142578125,33.837890625 12.1435546875,32.05078125 12.216796875,30.41015625 12.333984375,28.447265625 12.4951171875,25.9716796875 12.6416015625,23.5546875 12.71484375,21.73828125 9.43359375,18.1640625 7.03125,14.1796875 5.58105421066284,10.04150390625 5.09765672683716,5.712890625 5.16357421875,3.709716796875 5.36132860183716,2.2119140625 6.2109375,0.234374523162842 6.591796875,0z" />
    </g>
  </g>
</svg>