<?xml version="1.0" encoding="utf-8"?>
<!DOCTYPE svg PUBLIC "-//W3C//DTD SVG 1.1//EN" "http://www.w3.org/Graphics/SVG/1.1/DTD/svg11.dtd">
<svg width="44.091796875" height="43.2421875" xmlns="http://www.w3.org/2000/svg" xmlns:xlink="http://www.w3.org/1999/xlink" xmlns:xml="http://www.w3.org/XML/1998/namespace" version="1.1">
  <g>
    <g>
      <path style="fill:#FF0000;fill-opacity:1" d="M13.30078125,35.80078125L12.3779296875,38.61328125 12.099609375,41.396484375 13.1982421875,41.3818359375 14.4140625,41.30859375 15.6298828125,41.162109375 16.7578125,40.927734375 17.0654296875,40.0927734375 17.255859375,39.2138671875 17.34375,38.115234375 17.373046875,36.650390625 17.3583984375,36.416015625 17.34375,36.181640625 17.34375,35.947265625 16.171875,37.5 15.46875,37.55859375 13.30078125,35.80078125z M23.49609375,31.025390625L27.0263671875,34.62890625 30.380859375,39.287109375 32.314453125,42.3046875 34.74609375,42.1875 36.3720703125,42.041015625 37.998046875,41.71875 39.4921875,41.19140625 40.72265625,40.4296875 36.298828125,35.68359375 32.8857421875,34.5703125 29.765625,33.5595703125 26.71875,32.4462890625 23.49609375,31.025390625z M11.30859375,25.751953125L12.1875,29.765625 12.861328125,33.3984375 12.861328125,34.072265625 13.76953125,34.951171875 15.703125,36.533203125 16.669921875,35.2734375 11.30859375,25.751953125z M11.25,23.115234375L12.24609375,25.5029296875 13.798828125,28.3740234375 15.6884765625,31.640625 17.666015625,35.185546875 19.013671875,34.27734375 20.625,35.478515625 21.943359375,30.29296875 20.91796875,29.82421875 19.86328125,29.296875 18.69140625,28.65234375 16.58203125,27.421875 15.1171875,26.396484375 13.447265625,25.0634765625 12.4365234375,24.228515625 11.7919921875,23.671875 11.25,23.115234375z M9.287109375,10.078125L8.3056640625,11.0888671875 7.79296875,13.212890625 8.0419921875,15.6005859375 8.701171875,17.6220703125 9.6533203125,19.423828125 10.78125,21.09375 12.4951171875,22.998046875 15.3369140625,25.3564453125 19.248046875,27.8759765625 24.19921875,30.29296875 27.685546875,31.7138671875 31.0546875,33.0029296875 34.16015625,34.0869140625 36.85546875,34.892578125 42.041015625,36.97265625 35.3759765625,29.0185546875 29.1796875,20.654296875 27.7111797332764,18.5083026885986 26.5283203125,16.7578125 24.84375,14.1943359375 23.8330078125,12.6123046875 23.203125,11.66015625 23.0859375,12.0703125 21.064453125,11.42578125 17.9443359375,10.78125 13.9453125,10.283203125 9.287109375,10.078125z M7.67578125,2.2265625L8.3642578125,2.48291015625 9.31640625,3.251953125 8.349609375,3.84521484375 7.67578125,4.04296875 7.060546875,3.837890625 6.85546875,3.22265625 7.060546875,2.4755859375 7.67578125,2.2265625z M8.84765625,1.23046875L7.55859375,1.2890625 6.53320264816284,1.552734375 5.85937452316284,2.109375 5.62500047683716,3.076171875 6.3720703125,4.3359375 8.4375,4.74609375 7.939453125,8.291015625 7.08984375,8.232421875 7.412109375,5.361328125 7.265625,5.361328125 5.62500047683716,4.775390625 4.599609375,3.046875 3.73535108566284,3.7646484375 3.134765625,4.6875 4.72778272628784,5.1123046875 5.81543016433716,6.15234375 6.478271484375,7.71240234375 6.796875,9.697265625 6.97265625,12.216796875 7.20703125,11.30859375 8.115234375,9.7265625 10.078125,9.0234375 10.48828125,9.0234375 12.2241201400757,9.08203125 14.384765625,9.2578125 17.02880859375,9.64599609375 20.21484375,10.341796875 22.705078125,10.986328125 22.5,10.72265625 21.357421875,9.345703125 19.716796875,7.763671875 18.134765625,6.650390625 17.63671875,6.38671875 16.8896484375,5.8447265625 16.5234375,5.15625 16.10595703125,4.306640625 15.205078125,3.22265625 13.7841787338257,2.11669921875 11.923828125,1.259765625 13.505859375,2.724609375 13.9013662338257,3.71337890625 14.033203125,5.15625 13.7475576400757,6.68701171875 12.890625,7.763671875 11.5502920150757,8.40087890625 9.814453125,8.61328125 9.31640625,8.5986328125 8.7890625,8.5546875 8.84765625,7.67578125 9.287109375,7.7197265625 9.697265625,7.734375 12.041015625,7.1044921875 12.7661123275757,6.287841796875 13.0078125,5.09765625 12.7404775619507,3.570556640625 11.9384765625,2.3291015625 10.6311025619507,1.505126953125 8.84765625,1.23046875z M8.994140625,0L11.8908681869507,0.34423828125 14.3701171875,1.376953125 16.314697265625,3.0322265625 17.607421875,5.244140625 19.6728515625,6.5771484375 21.416015625,8.056640625 22.9541015625,9.7705078125 24.375,11.77734375 25.5908203125,13.6669921875 26.42578125,14.970703125 27.01171875,15.87890625 27.48046875,16.58203125 27.890625,17.1826171875 28.3740234375,17.8857421875 29.033203125,18.837890625 29.94140625,20.185546875 36.7236328125,29.23828125 44.091796875,37.8515625 43.53515625,38.583984375 38.466796875,36.533203125 39.9169921875,38.1298828125 40.95703125,39.2578125 41.77734375,40.166015625 41.66015625,40.83984375 39.43359375,42.24609375 36.5625,42.861328125 32.05078125,43.2421875 31.669921875,43.0078125 29.6484375,39.873046875 26.19140625,35.1123046875 22.587890625,31.46484375 21.943359375,33.9404296875 21.38671875,36.4453125 20.625,36.650390625 18.92578125,35.419921875 18.720703125,36.826171875 18.57421875,38.203125 18.57421875,38.61328125 18.662109375,40.224609375 19.1015625,41.015625 20.7861328125,41.54296875 23.701171875,41.865234375 24.1845703125,41.484375 24.7265625,41.279296875 25.6494140625,41.7919921875 25.927734375,42.802734375 24.814453125,42.099609375 24.140625,42.744140625 21.6796875,42.7001953125 19.541015625,42.333984375 18.896484375,42.5830078125 18.1640625,42.65625 17.05078125,42.5537109375 16.23046875,42.3046875 14.5458984375,42.6123046875 12.392578125,42.7734375 11.6015625,42.7734375 10.810546875,42.158203125 10.3271484375,42.3486328125 9.78515625,42.7734375 1.40625,42.7734375 0.908203125,42.158203125 0.5859375,42.333984375 0.29296875,42.5244140625 0,42.7734375 0.556640863418579,41.8505859375 1.84570288658142,41.455078125 3.720703125,41.865234375 5.22949171066284,41.8212890625 6.73828125,41.71875 10.224609375,41.396484375 11.455078125,38.0419921875 11.865234375,34.365234375 11.6748046875,32.2119140625 11.220703125,29.8388671875 10.693359375,27.421875 10.3125,25.13671875 9.873046875,21.533203125 7.8369140625,18.3837890625 6.650390625,15.908203125 5.947265625,11.396484375 5.830078125,9.5361328125 5.47851610183716,7.67578125 4.54833936691284,6.11572265625 2.75390625,5.595703125 2.37304663658142,5.361328125 2.25585961341858,4.62890625 2.7392578125,3.4423828125 3.80859375,2.490234375 5.595703125,0.5859375 7.0751953125,0.146484375 8.994140625,0z" />
    </g>
  </g>
</svg>