<?xml version="1.0" encoding="utf-8"?>
<!DOCTYPE svg PUBLIC "-//W3C//DTD SVG 1.1//EN" "http://www.w3.org/Graphics/SVG/1.1/DTD/svg11.dtd">
<svg width="39.78515625" height="42.12890625" xmlns="http://www.w3.org/2000/svg" xmlns:xlink="http://www.w3.org/1999/xlink" xmlns:xml="http://www.w3.org/XML/1998/namespace" version="1.1">
  <g>
    <g>
      <path style="fill:#FF0000;fill-opacity:1" d="M30.615234375,36.591796875L30.615234375,40.6640625 34.98046875,40.6640625 34.98046875,36.591796875 30.615234375,36.591796875z M24.169921875,36.591796875L24.169921875,40.6640625 29.150390625,40.6640625 29.150390625,36.591796875 24.169921875,36.591796875z M17.51953125,36.591796875L17.51953125,40.6640625 22.705078125,40.6640625 22.705078125,36.591796875 17.51953125,36.591796875z M11.044921875,36.591796875L11.044921875,40.6640625 16.025390625,40.6640625 16.025390625,36.591796875 11.044921875,36.591796875z M4.8046875,36.591796875L4.8046875,40.6640625 9.580078125,40.6640625 9.580078125,36.591796875 4.8046875,36.591796875z M30.615234375,32.578125L30.615234375,35.126953125 34.98046875,35.126953125 34.98046875,32.578125 30.615234375,32.578125z M24.169921875,32.578125L24.169921875,35.126953125 29.150390625,35.126953125 29.150390625,32.578125 24.169921875,32.578125z M17.51953125,32.578125L17.51953125,35.126953125 22.705078125,35.126953125 22.705078125,32.578125 17.51953125,32.578125z M11.044921875,32.578125L11.044921875,35.126953125 16.025390625,35.126953125 16.025390625,32.578125 11.044921875,32.578125z M4.8046875,32.578125L4.8046875,35.126953125 9.580078125,35.126953125 9.580078125,32.578125 4.8046875,32.578125z M22.177734375,30L21.767578125,30.322265625 21.591796875,30.52734375 22.177734375,30.52734375 22.177734375,30z M34.306640625,29.970703125L34.0869140625,30.17578125 33.8671875,30.52734375 34.27734375,30.52734375 34.306640625,29.970703125z M28.916015625,29.912109375L28.18359375,30.52734375 28.828125,30.52734375 28.857421875,30.205078125 28.916015625,29.912109375z M15.05859375,29.912109375L14.53125,30.263671875 14.296875,30.52734375 14.736328125,30.52734375 15.05859375,29.912109375z M3.427734375,23.61328125L4.45312452316284,30.52734375 7.76367139816284,30.52734375 8.7890625,23.61328125 3.427734375,23.61328125z M33.33984375,22.734375L32.3291015625,24.9755859375 31.0546875,27.59765625 30.46875,28.76953125 30.029296875,29.58984375 29.6484375,30.234375 29.47265625,30.322265625 29.47265625,31.083984375 33.28125,31.083984375 33.251953125,30.9228515625 33.193359375,30.76171875 33.57421875,29.8681640625 34.27734375,29.267578125 34.86328125,27.333984375 35.126953125,25.546875 34.7607421875,24.1259765625 33.33984375,22.734375z M19.21875,22.44140625L17.87109375,24.990234375 16.69921875,28.18359375 16.0546875,30.146484375 15.615234375,30.3515625 15.3076171875,30.6884765625 15.087890625,31.083984375 20.947265625,31.083984375 20.80078125,30.76171875 21.26953125,29.94140625 21.97265625,29.326171875 21.884765625,28.505859375 21.650390625,26.484375 21.15234375,24.1552734375 20.419921875,22.44140625 19.21875,22.44140625z M31.611328125,22.119140625L29.12109375,22.4267578125 26.865234375,23.349609375 26.279296875,23.3203125 25.25390625,22.8369140625 24.140625,22.734375 23.4814453125,22.7490234375 22.939453125,22.763671875 22.44140625,22.763671875 22.7197265625,26.220703125 23.232421875,29.6484375 22.79296875,30.05859375 22.67578125,30.556640625 22.763671875,30.849609375 22.587890625,31.083984375 27.48046875,31.083984375 27.451171875,30.99609375 27.421875,30.908203125 27.6928691864014,30 28.505859375,29.267578125 29.5092754364014,28.26416015625 30.41015625,26.54296875 31.0986328125,24.404296875 31.611328125,22.119140625z M18.1640625,21.97265625L17.021484375,25.3125 17.7099609375,23.7158203125 18.544921875,22.177734375 18.1640625,21.97265625z M13.974609375,10.869140625L14.58984375,11.25 14.033203125,11.484375 13.828125,11.1328125 13.974609375,10.869140625z M15.703125,8.642578125L15.3515625,8.6865234375 14.736328125,8.73046875 14.1943359375,9.2724609375 13.798828125,9.90234375 13.41796875,10.576171875 12.8686513900757,11.2792987823486 11.865234375,12.275390625 10.986328125,13.2568378448486 10.693359375,14.091796875 11.015625,14.384765625 11.89453125,14.12109375 13.271484375,13.88671875 14.4873046875,13.59375 15.029296875,13.18359375 15.234375,12.861328125 15.380859375,12.59765625 15.498046875,12.36328125 16.376953125,12.59765625 16.0546875,13.4912109375 15.380859375,14.1796875 16.0986328125,17.0361328125 16.966552734375,18.826904296875 18.251953125,20.947265625 18.7939453125,21.2255859375 19.365234375,21.50390625 19.833984375,21.50390625 19.21875,20.068359375 18.80859375,18.57421875 18.6328125,16.845703125 18.779296875,15.52734375 19.04296875,15.615234375 19.6875,15.76171875 19.62890625,16.318359375 19.62890625,16.845703125 19.8779296875,18.8671875 20.478515625,20.6396484375 21.2109375,22.353515625 21.85546875,24.169921875 21.8408203125,23.8330078125 21.8115234375,23.349609375 21.796875,22.8515625 21.796875,22.5 21.884765625,20.80078125 21.97265625,20.15625 22.763671875,20.361328125 22.6171875,21.826171875 23.994140625,21.826171875 25.3125,21.9140625 26.6015625,22.412109375 28.88671875,21.50390625 31.376953125,21.2109375 29.94140625,18.33984375 30.673828125,17.98828125 32.4609375,21.50390625 32.197265625,22.7197265625 32.0947265625,23.3056640625 32.0654296875,23.5546875 32.021484375,23.759765625 32.900390625,22.060546875 33.544921875,22.08984375 34.6875,22.9833984375 35.419921875,23.96484375 34.86328125,21.38671875 35.126953125,20.0537109375 35.478515625,18.955078125 35.8154296875,18.076171875 36.005859375,17.40234375 36.03515625,17.197265625 36.03515625,16.9921875 35.9033203125,16.4501953125 35.44921875,15.8203125 34.0283203125,15.0439453125 31.962890625,14.736328125 30.1904296875,14.8681640625 27.978515625,15.146484375 25.78125,15.4248046875 24.052734375,15.556640625 21.4892578125,15.2417011260986 19.599609375,14.296875 18.30322265625,12.9052753448486 17.51953125,11.30859375 17.109375,10.01953125 17.197265625,9.755859375 17.255859375,9.580078125 18.046875,8.759765625 17.197265625,9.31640625 16.58203125,9.287109375 16.201171875,8.759765625 15.703125,8.642578125z M24.931640625,0L21.26953125,1.14990234375 18.720703125,2.607421875 16.962890625,4.50439453125 15.673828125,7.08984375 16.787109375,5.2880859375 18.486328125,3.80859375 19.698486328125,3.1915283203125 21.3427734375,2.62939453125 23.419189453125,2.1221923828125 25.927734375,1.669921875 23.3441162109375,2.501220703125 21.27685546875,3.2958984375 19.7259521484375,4.053955078125 18.69140625,4.775390625 16.318359375,7.8515625 17.021484375,8.3203125 18.0615234375,7.7197265625 19.21875,7.44140625 19.62890625,8.203125 18.92578125,9.1845703125 18.10546875,10.078125 18.427734375,11.07421875 19.06494140625,12.3486347198486 20.15625,13.53515625 21.796875,14.4140644073486 24.0234375,14.70703125 25.7958984375,14.5751953125 27.8759765625,14.267578125 30.0146484375,13.9599609375 31.9921875,13.828125 34.390869140625,14.1577167510986 36.0791015625,15.146484375 37.078857421875,16.7578125 37.412109375,18.955078125 37.3974609375,19.365234375 37.353515625,19.775390625 37.265625,20.44921875 37.001953125,21.6357421875 36.62109375,21.97265625 36.416015625,21.4453125 36.650390625,20.068359375 36.884765625,18.515625 36.85546875,18.0908203125 36.767578125,17.6953125 36.591796875,18.6767578125 36.2109375,19.6435546875 35.830078125,20.625 35.654296875,21.62109375 35.91796875,22.6904296875 36.064453125,23.8037109375 36.1376953125,24.78515625 36.15234375,25.4296875 35.654296875,28.65234375 35.26611328125,29.81689453125 35.09765625,30.205078125 34.833984375,30.3515625 34.8046875,30.52734375 34.8046875,31.083984375 39.78515625,31.083984375 39.78515625,32.578125 36.474609375,32.578125 36.474609375,35.126953125 39.78515625,35.126953125 39.78515625,36.591796875 36.474609375,36.591796875 36.474609375,40.6640625 39.78515625,40.6640625 39.78515625,42.12890625 0,42.12890625 0,40.6640625 3.33984351158142,40.6640625 3.33984351158142,36.591796875 0,36.591796875 0,35.126953125 3.33984351158142,35.126953125 3.33984351158142,32.578125 0,32.578125 0,31.083984375 3.603515625,31.083984375 2.43164038658142,23.232421875 2.87109351158142,22.67578125 9.31640625,22.67578125 9.814453125,23.14453125 8.61328125,31.083984375 13.59375,31.083984375 13.447265625,30.76171875 14.2236328125,29.6923828125 15.3515625,28.974609375 16.2451171875,25.2099609375 17.4609375,21.5625 17.1533203125,21.0791015625 16.875,20.56640625 16.5234375,19.775390625 15.8935546875,18.515625 15.263671875,17.2705078125 14.7509765625,15.99609375 14.47265625,14.58984375 12.7880859375,14.8974609375 11.162109375,15.322265625 10.576171875,15.29296875 9.90234375,14.619140625 9.755859375,14.1796875 10.078125,12.9785175323486 11.044921875,11.77734375 12.0922842025757,10.7299823760986 12.71484375,9.931640625 13.154296875,9.169921875 13.6083984375,8.4814453125 14.267578125,7.91015625 14.560546875,7.79296875 15.81298828125,4.5849609375 18.046875,2.109375 21.14501953125,0.52734375 24.931640625,0z" />
    </g>
  </g>
</svg>