<?xml version="1.0" encoding="utf-8"?>
<!DOCTYPE svg PUBLIC "-//W3C//DTD SVG 1.1//EN" "http://www.w3.org/Graphics/SVG/1.1/DTD/svg11.dtd">
<svg width="50.09765625" height="44.70703125" xmlns="http://www.w3.org/2000/svg" xmlns:xlink="http://www.w3.org/1999/xlink" xmlns:xml="http://www.w3.org/XML/1998/namespace" version="1.1">
  <g>
    <g>
      <path style="fill:#FF0000;fill-opacity:1" d="M29.267578125,38.291015625L28.2421875,42.568359375 33.69140625,42.568359375 32.1240234375,40.95703125 30.5859375,38.876953125 29.267578125,38.291015625z M27.65625,34.98046875L26.953125,38.466796875 26.337890625,38.759765625 24.2724609375,37.8515625 21.9140625,37.3828125 20.44921875,42.568359375 27.0703125,42.568359375 28.154296875,37.8515625 27.65625,34.98046875z M20.0390625,33.544921875L19.3359375,37.001953125 18.720703125,37.294921875 16.6552734375,36.38671875 14.296875,35.91796875 12.509765625,42.568359375 19.306640625,42.568359375 20.44921875,38.583984375 20.6103515625,37.9541015625 20.80078125,37.1484375 21.005859375,36.123046875 20.0390625,33.544921875z M34.453125,32.75390625L33.92578125,36.123046875 33.10546875,39.404296875 32.490234375,39.697265625 32.109375,39.55078125 33.662109375,41.3580322265625 35.302734375,42.64892578125 37.03125,43.4234619140625 38.84765625,43.681640625 40.078125,43.59375 39.8583984375,42.71484375 39.609375,41.865234375 37.7197265625,39.4921875 35.947265625,36.123046875 34.453125,32.75390625z M34.98046875,31.640625L36.9140625,35.9765625 37.91748046875,38.031005859375 38.935546875,39.6826171875 41.0888671875,41.9677734375 43.4326171875,43.1396484375 46.0546875,43.4765625 47.28515625,43.388671875 47.0947265625,42.6708984375 46.962890625,42.3193359375 46.81640625,42.01171875 46.552734375,41.42578125 45,38.671875 43.88671875,37.52197265625 42.3046875,36.357421875 37.96875,33.57421875 34.98046875,31.640625z M21.09375,24.7265625L21.9287109375,27.8466796875 22.32421875,31.11328125 22.32421875,31.728515625 22.2509765625,33.5009765625 22.119140625,35.009765625 21.9140625,36.4453125 24.0966796875,36.8408203125 26.162109375,37.646484375 26.953125,33.662109375 26.8212890625,33.4423828125 26.572265625,32.900390625 23.642578125,28.30078125 22.2509765625,26.3671875 21.6796875,25.546875 21.09375,24.7265625z M13.4765625,23.26171875L14.3115234375,26.3818359375 14.70703125,29.6484375 14.70703125,30.263671875 14.6337890625,32.0361328125 14.501953125,33.544921875 14.296875,34.98046875 16.4794921875,35.3759765625 18.544921875,36.181640625 19.365234375,32.109375 18.955078125,31.435546875 16.025390625,26.8359375 14.6337890625,24.90234375 14.0625,24.08203125 13.4765625,23.26171875z M15.322265625,5.39062547683716L13.18359375,5.69824266433716 11.044921875,6.56250047683716 10.810546875,6.35742235183716 10.6787109375,8.5986328125 10.60546875,10.869140625 10.60546875,12.275390625 10.7739248275757,15.1391620635986 11.279296875,17.40234375 13.41796875,21.4453125 15.029296875,23.6572265625 16.9921875,26.42578125 18.1494140625,28.1103515625 19.3798828125,30.029296875 20.4931640625,32.05078125 21.328125,34.013671875 21.357421875,33.427734375 21.3720703125,32.6953125 21.38671875,31.640625 21.38671875,31.025390625 21.0498046875,28.125 20.2734375,25.25390625 18.0908203125,23.232421875 16.11328125,20.830078125 14.5751953125,18.0322284698486 13.76953125,14.853515625 13.7109375,14.267578125 14.6484375,14.1796875 14.677734375,14.47265625 15.6298828125,18.1713886260986 17.900390625,21.591796875 18.955078125,22.7197265625 19.716796875,23.466796875 19.04296875,21.708984375 18.33984375,20.068359375 17.52685546875,17.2412128448486 17.255859375,13.505859375 17.255859375,12.568359375 17.4169921875,9.521484375 17.548828125,6.47460985183716 16.8017578125,6.00585985183716 16.3037109375,5.66894578933716 15.8642578125,5.46386766433716 15.322265625,5.39062547683716z M20.2734375,3.57421922683716L21.357421875,4.07226610183716 20.2734375,4.59960985183716 19.892578125,4.07226610183716 20.2734375,3.57421922683716z M18.193359375,2.40234422683716L17.6513671875,2.98828172683716 17.2119140625,3.53027391433716 16.7431640625,3.94043016433716 16.142578125,4.10156297683716 15.4248046875,4.04296922683716 14.47265625,3.98437547683716 13.0517578125,4.20410203933716 12.01171875,5.09765672683716 13.6962890625,4.65820360183716 15.380859375,4.48242235183716 15.9814453125,4.55566453933716 16.58203125,4.79003953933716 17.314453125,5.20019578933716 18.28125,5.80078172683716 18.486328125,6.18164110183716 18.369140625,9.228515625 18.22265625,12.333984375 18.22265625,13.740234375 18.39111328125,16.6040058135986 18.896484375,18.8671875 21.03515625,22.91015625 22.646484375,25.1220703125 24.609375,27.890625 25.7080078125,29.560546875 26.8359375,31.4208984375 27.8759765625,33.3544921875 28.7109375,35.21484375 29.12109375,37.646484375 29.47265625,37.412109375 32.34375,38.61328125 33.2373046875,34.775390625 33.603515625,30.849609375 30.52734375,28.7109375 27.94921875,26.748046875 25.72265625,24.7119140625 23.73046875,22.294921875 22.1923828125,19.4970722198486 21.38671875,16.318359375 21.328125,15.732421875 22.265625,15.64453125 22.294921875,15.9375 23.2470684051514,19.6362323760986 25.517578125,23.056640625 29.0185546875,26.3525390625 33.544921875,29.677734375 35.2734375,30.7177734375 37.177734375,31.93359375 39.345703125,33.33984375 41.663818359375,34.8193359375 43.5205078125,36.09375 44.923095703125,37.15576171875 45.87890625,37.998046875 47.1533203125,39.287109375 48.10546875,40.224609375 45.57861328125,35.26611328125 42.333984375,30 38.1591796875,24.19921875 32.900390625,17.724609375 31.669921875,16.23046875 30.087890625,14.47265625 28.125,12.392578125 27.6708984375,11.9091796875 27.12890625,11.279296875 26.455078125,10.517578125 25.107421875,2.40234422683716 18.193359375,2.40234422683716z M12.421875,1.81640672683716L13.505859375,2.31445360183716 12.421875,2.84179735183716 12.041015625,2.31445360183716 12.421875,1.81640672683716z M10.576171875,0.937500476837158L9.8291015625,1.52343797683716 8.8916015625,2.06543016433716 7.8369140625,2.47558641433716 6.767578125,2.63671922683716 6.0498046875,2.57812547683716 5.09765625,2.51953172683716 3.6767578125,2.73925828933716 2.63671827316284,3.63281297683716 4.3212890625,3.19335985183716 6.005859375,3.01757860183716 8.3935546875,3.33984422683716 10.6640625,4.33593797683716 10.869140625,4.71679735183716 10.869140625,5.12695360183716 11.484375,4.23339891433716 12.158203125,3.54492235183716 13.154296875,3.14941453933716 14.35546875,3.07617235183716 15.1904296875,3.14941453933716 15.966796875,3.22265672683716 16.787109375,2.79785203933716 17.28515625,1.90429735183716 17.607421875,1.52343797683716 17.490234375,0.937500476837158 10.576171875,0.937500476837158z M10.25390625,0L18.310546875,0 18.57421875,1.46484422683716 25.927734375,1.46484422683716 26.0009765625,1.97753953933716 26.19140625,3.03222703933716 26.42578125,4.43847703933716 26.689453125,6.00585985183716 27.392578125,10.1953125 31.710205078125,15.0219745635986 35.4638671875,19.423828125 38.682861328125,23.4228515625 41.396484375,27.041015625 46.00341796875,34.29931640625 50.09765625,42.421875 49.3359375,42.919921875 47.255859375,40.751953125 47.6513671875,41.5576171875 47.87109375,42.0849609375 48.046875,42.65625 48.28125,43.59375 47.958984375,44.208984375 45.99609375,44.501953125 43.330078125,44.150390625 40.869140625,42.94921875 41.07421875,43.798828125 40.751953125,44.4140625 38.7890625,44.70703125 36.87744140625,44.42138671875 35.009765625,43.564453125 35.0830078125,43.9599609375 35.126953125,44.4140625 35.126953125,44.53125 34.86328125,44.53125 34.86328125,44.326171875 34.6142578125,43.88671875 34.248046875,43.76953125 29.267578125,43.76953125 29.3115234375,44.0625 29.326171875,44.35546875 29.326171875,44.47265625 29.0625,44.47265625 29.0625,44.267578125 28.9453125,43.9453125 28.681640625,43.76953125 9.2578125,43.76953125 8.5107421875,44.033203125 8.056640625,44.58984375 7.939453125,44.53125 8.02734375,43.916015625 8.14453125,43.7109375 1.31835961341858,43.7109375 0.571289539337158,43.974609375 0.11718761920929,44.53125 0,44.47265625 0.131835699081421,43.7548828125 0.410156011581421,43.330078125 0.791015863418579,43.0517578125 1.11328125,42.802734375 1.40625023841858,42.568359375 11.3671875,42.568359375 11.5576171875,41.8505859375 11.8798828125,40.6201171875 12.3193359375,38.994140625 12.83203125,37.119140625 13.5791015625,33.4716796875 13.76953125,30.17578125 13.76953125,29.560546875 13.4326171875,26.7041015625 12.685546875,23.84765625 11.77734375,21.1083984375 10.72265625,18.603515625 9.90966796875,15.7763690948486 9.638671875,12.041015625 9.638671875,11.103515625 9.7998046875,8.056640625 9.931640625,5.00976610183716 9.0234375,4.54101610183716 8.1298828125,4.20410203933716 7.1484375,3.99902391433716 5.947265625,3.92578172683716 3.80859327316284,4.23339891433716 1.669921875,5.09765672683716 0.996093511581421,4.48242235183716 1.61132788658142,3.48632860183716 2.18261742591858,2.68066453933716 2.783203125,2.08007860183716 3.77929735183716,1.68457078933716 4.98046827316284,1.61132860183716 5.81543016433716,1.68457078933716 6.591796875,1.75781297683716 7.646484375,1.61132860183716 8.5400390625,1.24511766433716 9.228515625,0.8056640625 9.66796875,0.439454078674316 10.0048828125,0.102539539337158 10.25390625,0z" />
    </g>
  </g>
</svg>