<?xml version="1.0" encoding="utf-8"?>
<!DOCTYPE svg PUBLIC "-//W3C//DTD SVG 1.1//EN" "http://www.w3.org/Graphics/SVG/1.1/DTD/svg11.dtd">
<svg width="25.83984375" height="15.703125" xmlns="http://www.w3.org/2000/svg" xmlns:xlink="http://www.w3.org/1999/xlink" xmlns:xml="http://www.w3.org/XML/1998/namespace" version="1.1">
  <g>
    <g>
      <path style="fill:#FF0000;fill-opacity:1" d="M20.302734375,0.9375L17.20458984375,1.0693359375 14.6484375,1.46484375 9.814453125,3.251953125 12.978515625,3.955078125 12.83203125,4.86328125 9.3310546875,5.3759765625 6.09375,6.796875 8.7890625,7.1484375 8.7890625,8.056640625 6.064453125,9.0673828125 3.6328125,10.634765625 6.2109375,10.986328125 6.357421875,11.806640625 3.896484375,13.18359375 1.58203125,14.765625 24.90234375,14.765625 24.90234375,1.025390625 22.5,0.966796875 20.302734375,0.9375z M20.478515625,0L22.79296875,0.029296875 25.341796875,0.087890625 25.83984375,0.556640625 25.83984375,15.234375 25.341796875,15.703125 0.292968511581421,15.703125 0,14.8828125 2.16796875,13.1396484375 4.541015625,11.689453125 2.40234375,11.42578125 2.10937523841858,10.60546875 4.21875,9.08203125 6.50390625,7.79296875 4.833984375,7.587890625 4.541015625,6.767578125 7.08251953125,5.22216796875 9.90234375,4.21875 8.466796875,3.92578125 8.3203125,3.017578125 13.5498046875,0.791015625 16.607666015625,0.19775390625 20.478515625,0z" />
    </g>
  </g>
</svg>