<?xml version="1.0" encoding="utf-8"?>
<!DOCTYPE svg PUBLIC "-//W3C//DTD SVG 1.1//EN" "http://www.w3.org/Graphics/SVG/1.1/DTD/svg11.dtd">
<svg width="33.720703125" height="44.853515625" xmlns="http://www.w3.org/2000/svg" xmlns:xlink="http://www.w3.org/1999/xlink" xmlns:xml="http://www.w3.org/XML/1998/namespace" version="1.1">
  <g>
    <g>
      <path style="fill:#FF0000;fill-opacity:1" d="M29.794921875,28.330078125L29.1320781707764,29.8095703125 28.3154296875,30.849609375 26.6015625,32.080078125 25.8984375,31.9921875 25.5029296875,31.2890625 24.84375,30.673828125 24.052734375,30.2490234375 23.26171875,30.087890625 22.353515625,30.498046875 21.767578125,31.34765625 21.5625,31.9921875 21.4306640625,32.7978515625 21.38671875,33.515625 21.38671875,33.984375 22.5146484375,38.3056640625 24.609375,42.24609375 24.345703125,43.0078125 23.14453125,43.30078125 22.1044921875,43.4912109375 21.15234375,43.564453125 20.68359375,43.5498046875 20.068359375,43.4912109375 19.4384765625,43.4033203125 18.955078125,43.30078125 17.431640625,42.94921875 16.69921875,42.861328125 16.435546875,43.41796875 16.5234375,43.916015625 30.1171875,43.916015625 31.1572265625,42.0849609375 32.0068359375,40.4443359375 32.578125,38.8037109375 32.783203125,37.001953125 32.57080078125,34.449462890625 31.93359375,32.0654296875 30.97412109375,29.981689453125 29.794921875,28.330078125z M5.185546875,6.884765625L6.181640625,7.3828125 5.068359375,8.14453125 4.74609327316284,7.55859375 5.185546875,6.884765625z M7.587890625,2.05078125L7.587890625,4.365234375 8.49609375,4.189453125 8.14453125,3.0615234375 7.587890625,2.05078125z M10.8984375,1.93359375L10.3564453125,3.603515625 9.287109375,4.921875 7.236328125,5.361328125 6.24023389816284,5.830078125 5.712890625,6.0205078125 5.185546875,6.123046875 4.775390625,6.09375 4.51171922683716,6.064453125 4.1162109375,6.2109375 3.57421875,6.5771484375 2.98828125,7.0751953125 2.490234375,7.6171875 0.93749988079071,9.43359375 1.12060558795929,10.462646484375 1.55273449420929,11.0888671875 2.958984375,11.513671875 4.27734375,11.3818359375 5.68359375,11.19140625 6.0205078125,11.513671875 6.181640625,11.66015625 6.26953125,14.12109375 6.38671875,17.40234375 6.708984375,21.1083984375 7.470703125,24.931640625 8.232421875,27.83203125 9.0673828125,31.7724609375 9.31640625,34.541015625 9.1845703125,36.2841796875 8.7451171875,38.2177734375 7.9248046875,40.4736328125 6.62109375,43.154296875 6.298828125,43.4765625 5.625,43.4765625 4.130859375,43.2275390625 3.28125,42.978515625 3.076171875,43.0078125 2.84179639816284,43.916015625 7.529296875,43.916015625 9.17724609375,40.220947265625 10.37109375,36.5185546875 11.1108388900757,32.698974609375 11.396484375,28.65234375 12.24609375,28.447265625 14.344482421875,30.355224609375 16.3623046875,31.8017578125 18.372802734375,32.823486328125 20.44921875,33.45703125 20.5078125,32.607421875 21.3427734375,30.1611328125 22.210693359375,29.447021484375 23.3203125,29.208984375 24.9462890625,29.6484375 26.484375,30.849609375 27.9638671875,29.2529296875 28.828125,27.392578125 25.4736328125,24.5654296875 21.533203125,22.060546875 17.83447265625,19.4238300323486 15.05859375,16.259765625 13.1469717025757,12.4731454849243 12.041015625,8.02734375 11.7059316635132,5.855712890625 11.4038076400757,4.1162109375 11.1346426010132,2.808837890625 10.8984375,1.93359375z M11.07421875,0L11.572265625,0.8935546875 11.89453125,1.93359375 12.333984375,4.130859375 12.6708984375,5.9326171875 12.9638671875,7.55859375 13.2421875,9.228515625 14.1796865463257,12.6049814224243 15.9375,15.87890625 18.65478515625,18.9038105010986 22.412109375,21.591796875 26.279296875,24.052734375 29.091796875,26.337890625 29.6923828125,23.4375 30.1171875,20.44921875 30.41015625,20.361328125 30.556640625,21.1083984375 30.615234375,22.08984375 30.5859375,23.466796875 30.498046875,24.90234375 30.3369140625,26.2353515625 30.1171875,27.3046875 31.7431640625,29.384765625 32.87109375,31.8310546875 33.515625,34.423828125 33.720703125,36.97265625 33.526611328125,38.690185546875 32.9443359375,40.5029296875 30.76171875,44.677734375 30.3515625,44.853515625 16.11328125,44.853515625 15.673828125,44.47265625 15.498046875,43.271484375 15.908203125,42.2021484375 16.93359375,41.923828125 19.130859375,42.333984375 21.181640625,42.7734375 22.32421875,42.6416015625 23.466796875,42.3046875 21.533203125,38.525390625 20.5078125,34.39453125 16.083984375,32.724609375 12.3046875,29.82421875 11.9824209213257,33.702392578125 11.1328125,37.4267578125 8.26171875,44.53125 7.79296875,44.853515625 2.34375,44.853515625 1.90429699420929,44.296875 1.90429699420929,44.091796875 2.19726610183716,42.6123046875 3.10546922683716,42.0703125 4.39453125,42.333984375 5.59570360183716,42.59765625 5.888671875,42.568359375 7.75634765625,38.3056640625 8.37890625,34.599609375 8.1298828125,31.9775390625 7.796630859375,30.186767578125 7.294921875,28.0078125 6.5625,25.13671875 5.78613233566284,21.123046875 5.478515625,17.197265625 5.2734375,12.158203125 4.04296875,12.3046875 2.783203125,12.392578125 0.834961295127869,11.8212890625 0.267334043979645,10.989990234375 0,9.638671875 0.44677746295929,8.53271484375 1.78710973262787,6.97265625 3.310546875,5.58837890625 4.306640625,5.126953125 4.55566453933716,5.15625 5.0390625,5.185546875 5.859375,4.9658203125 6.650390625,4.599609375 6.650390625,0.8203125 7.587890625,0.527343273162842 8.26171875,1.40625 8.84765625,2.3583984375 9.31640625,3.515625 9.9755859375,1.93359375 10.224609375,0.205077648162842 11.07421875,0z" />
    </g>
  </g>
</svg>