<?xml version="1.0" encoding="utf-8"?>
<!DOCTYPE svg PUBLIC "-//W3C//DTD SVG 1.1//EN" "http://www.w3.org/Graphics/SVG/1.1/DTD/svg11.dtd">
<svg width="37.177734375" height="44.384765625" xmlns="http://www.w3.org/2000/svg" xmlns:xlink="http://www.w3.org/1999/xlink" xmlns:xml="http://www.w3.org/XML/1998/namespace" version="1.1">
  <g>
    <g>
      <path style="fill:#FF0000;fill-opacity:1" d="M9.462890625,35.15625L8.14453125,35.6103515625 7.587890625,37.08984375 8.0859375,38.671875 9.4921875,39.228515625 10.3271484375,39.08203125 10.986328125,38.7158203125 11.4990234375,38.26171875 11.89453125,37.8515625 12.333984375,37.5439453125 12.919921875,37.265625 13.2421875,37.1337890625 13.59375,37.001953125 13.1982421875,36.884765625 12.83203125,36.767578125 12.2021484375,36.50390625 11.71875,36.15234375 10.78125,35.44921875 9.462890625,35.15625z M5.5078125,16.11328125L3.50097680091858,16.69921875 2.2998046875,18.1640625 1.71386766433716,20.0537109375 1.552734375,21.884765625 1.61132860183716,22.96875 1.7578125,23.5546875 2.66601586341858,22.880859375 3.66210913658142,22.3095703125 4.921875,21.85546875 6.2548828125,21.3134765625 7.2802734375,20.4931640625 7.939453125,19.4970703125 8.173828125,18.427734375 7.44140625,16.7431640625 5.5078125,16.11328125z M23.701171875,14.091796875L21.8701171875,14.35546875 19.599609375,15.1171875 17.29248046875,15.9082050323486 15.5859375,16.171875 15.3515625,16.171875 15.1171875,16.142578125 13.681640625,16.025390625 13.2861328125,16.552734375 13.0078125,17.1533203125 12.83203125,17.724609375 12.7734375,18.1640625 12.7734375,20.888671875 12.626953125,22.1923828125 12.24609375,23.49609375 11.8359375,24.755859375 11.42578125,25.4296875 10.8984375,25.95703125 28.65234375,25.95703125 28.7255859375,25.517578125 29.267578125,25.25390625 30.087890625,25.48828125 30.3369140625,24.755859375 30.439453125,23.5546875 30.380859375,22.5439453125 30.234375,21.328125 27.6708984375,18.7646484375 25.95703125,16.611328125 25.0634746551514,15.0366230010986 24.55078125,14.35546875 24.1845703125,14.1650390625 23.701171875,14.091796875z M28.857421875,13.681640625L28.857421875,15.087890625 29.091796875,16.6845703125 30.146484375,19.51171875 31.494140625,21.26953125 31.376953125,22.0166015625 31.34765625,22.8515625 31.3623046875,23.8623046875 31.40625,24.521484375 31.435546875,25.25390625 31.259765625,25.95703125 32.958984375,25.95703125 31.2890625,19.189453125 31.025390625,18.28125 30.556640625,16.962890625 30.1904296875,16.11328125 29.736328125,15.1904296875 29.267578125,14.3408203125 28.857421875,13.681640625z M7.96875,2.080078125L7.236328125,3.603515625 5.888671875,5.35400390625 4.013671875,6.2109375 2.31445360183716,6.533203125 1.43554711341858,6.708984375 4.072265625,6.9140625 5.97656345367432,7.1923828125 7.265625,7.705078125 8.22509765625,8.66455078125 9.052734375,10.25390625 9.43359375,11.220703125 10.576171875,13.18359375 11.1328125,13.798828125 11.513671875,14.267578125 11.8212890625,14.912109375 12.041015625,15.87890625 12.216796875,17.16796875 12.685546875,16.142578125 13.1689453125,15.439453125 13.7109375,15.1171875 14.7802734375,15.1611328125 15.46875,15.205078125 18.486328125,14.53125 21.181640625,13.5791015625 23.525390625,13.154296875 25.1074199676514,13.6376972198486 26.220703125,15.087890625 26.630859375,15.9521484375 27.1142578125,16.7578125 27.8173828125,17.6806640625 28.916015625,18.92578125 28.3447265625,17.4609375 28.0810546875,16.201171875 27.9931640625,14.9267578125 27.94921875,13.41796875 27.94921875,12.36328125 27.48046875,11.953125 26.3232421875,11.455078125 24.90234375,11.30859375 23.7890625,11.3818359375 22.587890625,11.572265625 21.064453125,11.89453125 19.306640625,12.158203125 17.431640625,12.24609375 15.05859375,12.1142578125 13.4033203125,11.7626953125 12.2021484375,11.25 11.19140625,10.60546875 10.5322265625,9.5654296875 9.43359375,7.8515625 7.939453125,5.5078125 7.91015625,5.361328125 7.91015625,4.86328125 7.9248046875,3.8818359375 7.939453125,3.193359375 7.9541015625,2.6513671875 7.96875,2.080078125z M8.173828125,0L8.818359375,0.439453125 8.96484375,2.75390625 8.96484375,3.427734375 8.935546875,4.248046875 8.84765625,5.068359375 11.982421875,10.01953125 14.3701171875,11.0009765625 17.490234375,11.337890625 19.5703125,11.19140625 21.591796875,10.83984375 24.90234375,10.400390625 27.4951171875,11.0302734375 29.384765625,12.802734375 30.87890625,15.4248046875 32.1533203125,18.544921875 33.33984375,22.0751953125 34.599609375,25.95703125 37.001953125,25.95703125 37.001953125,27.041015625 34.98046875,27.041015625 35.44921875,28.4326171875 36.26953125,30.76171875 36.95068359375,32.8564453125 37.177734375,33.69140625 37.177734375,33.896484375 37.0458984375,34.365234375 36.767578125,34.599609375 36.1669921875,34.2626953125 35.44921875,33.45703125 34.3798828125,31.2890625 33.45703125,28.0078125 33.22265625,27.041015625 24.55078125,27.041015625 24.55078125,36.474609375 31.904296875,36.474609375 31.904296875,37.6171875 24.55078125,37.6171875 24.55078125,44.384765625 23.408203125,44.384765625 23.408203125,37.6171875 14.619140625,37.6171875 13.3740224838257,37.939453125 12.041015625,38.90625 10.7373037338257,39.85107421875 9.521484375,40.166015625 8.4228515625,39.9609375 7.5146484375,39.404296875 6.8994140625,38.5986328125 6.6796875,37.6171875 5.537109375,37.91015625 5.537109375,36.474609375 6.6796875,36.767578125 7.39013671875,34.85595703125 9.521484375,34.21875 10.8764638900757,34.50439453125 12.12890625,35.361328125 13.3520498275757,36.1962890625 14.619140625,36.474609375 23.408203125,36.474609375 23.408203125,27.041015625 6.474609375,27.041015625 3.78295922279358,26.707763671875 1.86035180091858,25.7080078125 0.706787467002869,24.041748046875 0.322266221046448,21.708984375 0.646362662315369,18.8122577667236 1.61865258216858,16.7431659698486 3.23913598060608,15.5017099380493 5.5078125,15.087890625 7.19970703125,15.2819833755493 8.408203125,15.8642597198486 9.13330078125,16.8347187042236 9.375,18.193359375 9.13330078125,19.8706073760986 8.408203125,21.2109375 7.09716796875,22.25830078125 5.09765625,23.115234375 3.33984398841858,23.85498046875 2.75390648841858,24.55078125 2.95715355873108,25.166015625 3.56689476966858,25.60546875 4.5831298828125,25.869140625 6.005859375,25.95703125 8.642578125,25.95703125 8.6865234375,25.5615234375 8.90625,25.341796875 9.3310546875,25.4150390625 9.755859375,25.48828125 10.1953125,25.2685546875 10.634765625,24.7412109375 10.986328125,24.0673828125 11.220703125,23.37890625 11.337890625,22.822265625 11.513671875,21.533203125 11.572265625,20.361328125 11.572265625,19.86328125 11.5283203125,18.5595703125 11.3671875,17.138671875 11.044921875,15.234375 9.462890625,13.2568359375 8.37890625,11.103515625 7.59521484375,9.38232421875 6.591796875,8.37890625 5.126953125,7.9248046875 2.84179759025574,7.734375 2.05078148841858,7.763671875 1.84570336341858,7.763671875 0.439453601837158,7.3828125 0,6.943359375 0.0585939884185791,6.5478515625 0.146484732627869,6.15234375 0.761719226837158,5.9326171875 1.49414110183716,5.771484375 2.92968726158142,5.5078125 4.74609375,4.9658203125 5.5078125,4.423828125 5.5078125,0.029296875 6.064453125,0.029296875 6.328125,0.996094226837158 6.5625,1.787109375 6.767578125,2.40234375 7.412109375,0.893555164337158 8.173828125,0z" />
    </g>
  </g>
</svg>