<?xml version="1.0" encoding="utf-8"?>
<!DOCTYPE svg PUBLIC "-//W3C//DTD SVG 1.1//EN" "http://www.w3.org/Graphics/SVG/1.1/DTD/svg11.dtd">
<svg width="44.560546875" height="40.224609375" xmlns="http://www.w3.org/2000/svg" xmlns:xlink="http://www.w3.org/1999/xlink" xmlns:xml="http://www.w3.org/XML/1998/namespace" version="1.1">
  <g>
    <g>
      <path style="fill:#FF0000;fill-opacity:1" d="M6.38671875,2.490234375L7.265625,3.076171875 6.298828125,3.3984375 6.005859375,3.10546875 6.38671875,2.490234375z M7.939453125,0.908203125L5.80078125,1.2890625 4.81933641433716,1.6845703125 4.04296875,2.0947265625 3.3837890625,2.4169921875 2.78320264816284,2.548828125 2.4169921875,2.5341796875 2.02148413658142,2.490234375 3.22265672683716,3.45703125 3.22265672683716,4.453125 2.607421875,4.98046875 3.16406202316284,4.921875 3.6181640625,4.892578125 3.92578172683716,4.86328125 4.8046875,4.951171875 5.65429639816284,5.390625 5.947265625,5.654296875 6.328125,5.771484375 7.55859375,5.478515625 8.0859375,5.478515625 8.583984375,7.265625 8.994140625,9.0380859375 9.111328125,10.576171875 9.0234375,11.89453125 8.701171875,13.4765625 9.169921875,15.05859375 10.25390625,17.255859375 12.099609375,18.69140625 12.158203125,19.1015625 12.24609375,19.51171875 10.9716787338257,20.811767578125 10.1953125,22.2509765625 9.66796875,25.634765625 10.166015625,29.0771484375 11.630859375,31.81640625 12.2167959213257,31.16455078125 12.509765625,29.970703125 13.095703125,27.0703125 13.7329092025757,25.80322265625 14.6484375,24.990234375 16.669921875,24.345703125 18.3544921875,24.9462890625 19.951171875,26.66015625 20.859375,27.978515625 22.22900390625,29.96337890625 23.349609375,31.5234375 24.2211894989014,32.6806640625 24.84375,33.45703125 25.95703125,34.541015625 27.099609375,35.4345703125 28.154296875,36.1083984375 29.00390625,36.533203125 30.087890625,36.884765625 27.685546875,31.23046875 27.158203125,30.732421875 26.748046875,30.0439453125 26.4697265625,29.326171875 26.3671875,28.740234375 26.630859375,27.0703125 27.3046875,25.83984375 28.212890625,25.078125 29.150390625,24.814453125 30.1611328125,25.0048828125 31.259765625,25.927734375 31.11328125,26.07421875 30.87890625,26.279296875 30.556640625,26.572265625 29.8095703125,25.869140625 29.23828125,25.693359375 28.5498046875,25.95703125 27.9345703125,26.5869140625 27.48046875,27.392578125 27.3046875,28.18359375 27.451171875,29.12109375 27.802734375,29.853515625 28.330078125,30.46875 31.69921875,38.203125 32.314453125,38.3203125 32.75390625,38.408203125 33.134765625,38.466796875 32.6953125,35.888671875 33.603515625,35.654296875 33.837890625,36.85546875 34.013671875,37.822265625 34.1015625,38.49609375 35.77880859375,38.1005859375 36.943359375,37.44140625 37.93212890625,36.13037109375 38.96484375,33.896484375 40.3125,31.8017578125 42.1875,30.966796875 42.83203125,30.908203125 43.3447265625,30.732421875 43.623046875,30.146484375 42.94921875,28.623046875 42.1142578125,28.8720703125 41.25,29.0625 40.869140625,28.828125 38.408203125,25.53955078125 36.298828125,23.115234375 32.197265625,19.775390625 30.12451171875,18.72802734375 28.125,18.22265625 25.927734375,17.87109375 23.0859375,17.2265625 22.6171875,17.080078125 21.884765625,16.40625 21.943359375,16.2744140625 22.03125,15.99609375 23.115234375,15.029296875 25.693359375,12.36328125 27.1289043426514,11.0888690948486 28.798828125,10.3125 27.890625,9.4921875 26.77734375,9.2578125 24.7851543426514,9.66064643859863 22.79296875,10.869140625 20.888671875,12.509765625 19.248046875,14.1796875 17.8857421875,15.4321308135986 16.787109375,15.849609375 15.75439453125,15.6445331573486 14.23828125,15.029296875 12.8979482650757,13.8867206573486 12.451171875,12.099609375 12.5390625,10.634765625 12.65625,9.31640625 12.65625,8.876953125 12.3339834213257,5.72021484375 11.3671875,3.1640625 9.86572265625,1.47216796875 7.939453125,0.908203125z M7.79296875,0L9.697265625,0.37353515625 11.25,1.494140625 12.4218740463257,3.134765625 13.125,5.068359375 13.4985342025757,7.03125 13.623046875,8.583984375 13.623046875,9.08203125 13.623046875,9.7412109375 13.59375,10.400390625 13.4765625,11.689453125 13.4765625,11.953125 13.447265625,12.1875 13.7915029525757,13.4765644073486 14.82421875,14.296875 17.05078125,14.912109375 17.841796875,14.208984375 18.603515625,13.4765625 21.005859375,11.162109375 23.9794921875,9.0673828125 25.4846172332764,8.48510932922363 26.865234375,8.291015625 28.6083984375,8.7744140625 29.912109375,10.48828125 29.58984375,11.103515625 27.626953125,11.9091796875 25.869140625,13.505859375 24.111328125,15.498046875 23.701171875,15.9375 23.26171875,16.318359375 25.01953125,16.7578125 26.6748046875,17.109375 28.41796875,17.373046875 31.307373046875,18.255615234375 34.4677734375,20.2587890625 37.869873046875,23.499755859375 41.484375,28.095703125 42.2900390625,27.8466796875 43.125,27.65625 43.2861328125,27.7294921875 43.53515625,27.83203125 43.9892578125,28.3447265625 44.3115234375,28.9892578125 44.501953125,29.6337890625 44.560546875,30.17578125 43.916015625,31.4208984375 42.509765625,31.904296875 41.19140625,32.34375 40.224609375,33.544921875 39.19921875,35.771484375 37.44140625,38.26171875 36.11572265625,38.97216796875 34.189453125,39.404296875 34.189453125,39.931640625 32.84912109375,39.63134765625 31.0546875,39.2578125 29.0185527801514,38.8623046875 26.42578125,38.37890625 23.1665019989014,37.8076171875 19.130859375,37.1484375 20.2880859375,37.6904296875 21.9873046875,38.466796875 23.6865234375,39.2431640625 24.84375,39.78515625 24.609375,40.224609375 21.1669921875,38.994140625 18.9111328125,38.0859375 17.4462890625,37.4560546875 16.34765625,37.03125 14.6044921875,37.55859375 12.685546875,38.1591796875 10.78125,38.759765625 9.052734375,39.2578125 8.642578125,39.111328125 10.13671875,38.232421875 9.9609375,38.203125 9.4921875,38.14453125 8.5107421875,38.4521484375 7.822265625,39.140625 7.705078125,39.08203125 7.9248046875,38.3349609375 8.49609375,37.8369140625 9.287109375,37.55859375 10.13671875,37.470703125 10.6787109375,37.5146484375 11.1328125,37.646484375 16.7578125,35.68359375 21.62109375,36.591796875 23.6865234375,36.9580078125 25.78125,37.3095703125 27.744140625,37.6025390625 29.443359375,37.822265625 25.869140625,35.5810546875 23.3203125,33.046875 19.62890625,27.83203125 18.7939453125,26.678466796875 17.98828125,25.9130859375 16.46484375,25.341796875 15.1611328125,25.7373046875 14.267578125,26.748046875 13.798828125,28.0810546875 13.505859375,29.677734375 13.330078125,30.64453125 12.7294912338257,32.10205078125 11.630859375,32.841796875 11.455078125,32.783203125 11.19140625,32.724609375 9.3310546875,29.4873046875 8.701171875,25.546875 9.2138671875,22.2216796875 9.957275390625,20.665283203125 11.162109375,19.248046875 9.814453125,18.193359375 8.8623046875,16.8310546875 8.1884765625,15.263671875 7.734375,13.564453125 8.173828125,11.1328125 8.26171875,10.48828125 7.91015625,8.49609375 7.412109375,6.533203125 6.35742139816284,6.767578125 5.27343702316284,6.328125 4.16015625,5.80078125 2.9443359375,5.8740234375 1.64062476158142,6.03515625 0.146484613418579,6.240234375 0.05859375,5.712890625 2.08007788658142,4.599609375 0.615234136581421,4.189453125 0.615234136581421,3.80859375 2.08007788658142,3.515625 0,1.787109375 0.20507824420929,1.40625 2.9296875,1.640625 4.58496046066284,0.791015625 5.859375,0.29296875 7.79296875,0z" />
    </g>
  </g>
</svg>