<?xml version="1.0" encoding="utf-8"?>
<!DOCTYPE svg PUBLIC "-//W3C//DTD SVG 1.1//EN" "http://www.w3.org/Graphics/SVG/1.1/DTD/svg11.dtd">
<svg width="44.267578125" height="29.736328125" xmlns="http://www.w3.org/2000/svg" xmlns:xlink="http://www.w3.org/1999/xlink" xmlns:xml="http://www.w3.org/XML/1998/namespace" version="1.1">
  <g>
    <g>
      <path style="fill:#FF0000;fill-opacity:1" d="M22.236328125,25.986328125L22.236328125,27.451171875 23.173828125,27.626953125 23.173828125,25.986328125 22.236328125,25.986328125z M30.703125,22.79296875L30.5126953125,23.3935546875 30.234375,23.90625 29.8828125,24.375 39.755859375,28.76953125 40.60546875,28.2568359375 41.30859375,27.4951171875 41.77734375,26.630859375 41.953125,25.78125 41.923828125,25.5615234375 41.865234375,25.283203125 41.77734375,24.990234375 30.703125,22.79296875z M9.66796875,9.111328125L10.4296875,9.43359375 9.55078125,10.01953125 9.345703125,9.609375 9.66796875,9.111328125z M29.208984375,3.720703125L28.4472637176514,4.08691549301147 27.802734375,5.185546875 27.3852519989014,6.24755859375 27.1875,6.5625 26.4331035614014,7.11181640625 24.404296875,8.876953125 21.92138671875,10.95703125 19.8046875,12.451171875 17.99560546875,13.35205078125 16.435546875,13.65234375 15.7177734375,13.623046875 15.1171875,13.53515625 14.53125,13.41796875 14.23828125,13.06640625 13.271484375,8.203125 12.744140625,7.529296875 11.337890625,7.529296875 9.70458984375,7.6611328125 8.61328125,8.056640625 7.03125,9.7265625 7.03125,10.4296875 7.6171875,10.95703125 8.1005859375,11.484375 8.49609375,12.099609375 9.08203125,14.12109375 10.3857421875,17.373046875 11.77734375,19.453125 13.4765625,20.91796875 15.46875,22.265625 17.8125,23.642578125 19.62890625,24.5654296875 21.533203125,25.048828125 23.935546875,25.048828125 25.8563213348389,24.6697998046875 27.2827129364014,24.38232421875 28.2147197723389,24.1864013671875 28.65234375,24.08203125 29.443359375,23.4521484375 29.794921875,22.353515625 25.95703125,18.955078125 24.375,19.716796875 23.935546875,18.896484375 24.609375,18.544921875 25.107421875,18.310546875 25.400390625,18.193359375 25.7812480926514,17.9443359375 26.337890625,17.314453125 27.861328125,15.673828125 29.47265625,14.267578125 30.17578125,14.326171875 31.5966796875,16.0546875 33.92578125,17.607421875 36.0791015625,18.7060546875 36.943359375,19.130859375 37.3828125,19.306640625 37.294921875,18.69140625 37.529296875,18.046875 38.115234375,17.841796875 38.8623046875,17.98828125 39.66796875,18.369140625 39.697265625,17.9296875 40.0341796875,17.314453125 41.07421875,16.962890625 41.982421875,17.080078125 30.41015625,5.537109375 30.263671875,5.09765625 29.94140625,3.9990234375 29.208984375,3.720703125z M14.23828125,0L14.70703125,0.3515625 14.9853515625,0.9375 15.1171875,1.6259765625 15.146484375,2.34375 15.0732421875,3.5595703125 14.8828125,4.98046875 14.58984375,6.474609375 14.208984375,7.939453125 15.1171875,12.626953125 15.673828125,12.685546875 16.11328125,12.71484375 16.46484375,12.71484375 17.64404296875,12.491455078125 19.013671875,11.8212890625 22.3828125,9.345703125 24.0673809051514,7.939453125 25.3125,6.884765625 26.1328105926514,6.18896484375 26.54296875,5.859375 27.1215801239014,4.27002096176147 27.802734375,3.369140625 29.296875,2.8125 30.6591796875,3.427734375 31.201171875,5.009765625 44.267578125,18.046875 43.681640625,18.779296875 42.2314453125,18.1640625 40.751953125,17.9296875 40.576171875,18.515625 40.60546875,18.9697265625 40.6640625,19.3359375 39.873046875,19.6875 39.140625,19.0869140625 38.232421875,18.75 38.232421875,18.896484375 38.408203125,19.5556640625 38.73046875,20.15625 37.96875,20.654296875 36.767578125,20.068359375 35.7275390625,19.5556640625 34.6875,19.0283203125 33.486328125,18.3984375 31.2451171875,16.9482421875 29.677734375,15.29296875 27.5390625,17.34375 26.689453125,18.369140625 30.46875,21.73828125 33.878173828125,22.4267578125 36.5478515625,22.96875 38.580322265625,23.382568359375 40.078125,23.6865234375 41.099853515625,23.8916015625 41.7041015625,24.0087890625 42.12890625,24.08203125 42.451171875,24.2578125 42.7294921875,25.0634765625 42.802734375,25.83984375 42.54638671875,27.1875 41.77734375,28.4765625 40.78125,29.40673828125 39.84375,29.736328125 39.0234375,29.3994140625 37.880859375,28.916015625 28.798828125,25.048828125 23.96484375,25.95703125 23.96484375,28.7109375 10.1953125,25.927734375 11.66015625,27.6416015625 13.7109375,28.65234375 11.689453125,28.154296875 10.546875,27.626953125 9.7705078125,26.8505859375 8.994140625,25.751953125 7.177734375,25.48828125 4.84863233566284,27.1875 2.87109375,29.267578125 3.837890625,27.2607421875 5.185546875,25.869140625 3.5888671875,26.0888671875 2.38769555091858,26.7041015625 1.2890625,27.626953125 0,28.798828125 0.981445550918579,27.0703125 2.49023413658142,25.693359375 4.4677734375,24.7265625 6.533203125,24.462890625 7.44140625,24.5947265625 9.2431640625,24.9169921875 11.6455078125,25.37109375 14.326171875,25.8984375 17.6806640625,26.5576171875 21.416015625,27.3046875 21.416015625,25.95703125 19.658203125,25.634765625 18.251953125,24.990234375 16.640625,23.994140625 14.35546875,22.6171875 12.1655263900757,21.09375 10.693359375,19.62890625 8.9208984375,16.4501953125 7.646484375,12.48046875 6.6650390625,11.30859375 5.41992235183716,10.8984375 4.921875,10.927734375 4.13085985183716,11.015625 3.23730516433716,11.1474609375 2.40234398841858,11.30859375 2.83447265625,10.491943359375 3.662109375,9.9169921875 6.06445264816284,9.462890625 6.7529296875,8.583984375 7.4853515625,7.79296875 8.203125,7.20703125 8.84765625,6.884765625 10.60546875,6.6650390625 12.978515625,6.591796875 13.9453125,3.3544921875 14.23828125,0z" />
    </g>
  </g>
</svg>