<?xml version="1.0" encoding="utf-8"?>
<!DOCTYPE svg PUBLIC "-//W3C//DTD SVG 1.1//EN" "http://www.w3.org/Graphics/SVG/1.1/DTD/svg11.dtd">
<svg width="44.4140625" height="35.2734375" xmlns="http://www.w3.org/2000/svg" xmlns:xlink="http://www.w3.org/1999/xlink" xmlns:xml="http://www.w3.org/XML/1998/namespace" version="1.1">
  <g>
    <g>
      <path style="fill:#FF0000;fill-opacity:1" d="M36.064453125,22.001953125L35.6396484375,24.0673828125 34.98046875,26.865234375 34.306640625,29.35546875 33.896484375,30.556640625 33.544921875,31.494140625 33.28125,32.1240234375 32.958984375,32.373046875 32.51953125,32.666015625 32.0068359375,33.134765625 31.5380859375,33.720703125 31.23046875,34.3359375 31.9921875,34.3359375 32.42431640625,33.21533203125 33.486328125,32.607421875 33.80859375,31.69921875 34.1015625,30.849609375 35.390625,27.8173828125 36.9140625,25.107421875 37.3974609375,24.4482421875 37.8515625,23.90625 38.3203125,23.408203125 37.1337890625,22.79296875 36.064453125,22.001953125z M16.669921875,21.181640625L16.4501953125,22.5439453125 16.1572265625,24.140625 15.8056640625,25.7958984375 15.41015625,27.333984375 15.17578125,28.1982421875 14.8974609375,29.1796875 14.6630859375,30 14.53125,30.41015625 13.76953125,32.548828125 13.2421875,32.9150390625 12.6416015625,33.3837890625 12.0849609375,33.8818359375 11.71875,34.3359375 12.59765625,34.3359375 13.30078125,33.2373046875 14.443359375,32.51953125 14.7802734375,30.99609375 15.556640625,29.677734375 15.72509765625,28.71826171875 16.171875,26.30859375 16.9482421875,23.5986328125 18.193359375,21.6796875 16.669921875,21.181640625z M11.30859375,6.03515625L12.01171875,6.328125 11.19140625,6.9140625 10.95703125,6.533203125 11.30859375,6.03515625z M13.88671875,3.92578125L13.0078125,3.955078125 10.458984375,5.244140625 8.232421875,6.796875 6.64306640625,8.29834175109863 6.03515672683716,9.462890625 7.294921875,10.048828125 9.580078125,10.25390625 10.48828125,10.2392578125 11.337890625,10.1953125 12.48046875,10.13671875 12.978515625,10.60546875 13.359375,13.447265625 13.974609375,16.8310546875 14.82421875,18.896484375 16.01806640625,20.00244140625 17.548828125,20.5078125 16.93359375,19.3359375 16.5234375,17.607421875 16.8017578125,15.7470703125 17.40234375,13.857421875 18.28125,11.77734375 19.130859375,12.158203125 18.28125,14.091796875 17.7099609375,15.7763671875 17.4609375,17.314453125 18.0908203125,19.62890625 19.423828125,21.123046875 19.62890625,21.50390625 20.2587890625,26.7333984375 20.478515625,31.962890625 20.33203125,32.255859375 19.1748046875,33.2958984375 18.75,34.3359375 19.306640625,34.3359375 19.951171875,33.0615234375 21.03515625,32.490234375 20.8447265625,29.9853515625 20.80078125,27.509765625 20.859375,24.228515625 21.064453125,20.947265625 21.796875,20.654296875 23.056640625,21.0791015625 24.375,21.181640625 26.103515625,21.064453125 28.0078125,20.947265625 29.326171875,21.064453125 30.615234375,21.50390625 32.783203125,21.064453125 34.98046875,20.68359375 34.482421875,19.39453125 34.3359375,18.22265625 34.3359375,17.314453125 35.2734375,17.2265625 35.244140625,17.724609375 35.496826171875,19.317626953125 36.2548828125,20.7568359375 37.423095703125,21.917724609375 38.90625,22.67578125 39.931640625,23.115234375 41.044921875,24.9609375 41.8212890625,26.6748046875 42.2607421875,28.3740234375 42.392578125,30.205078125 42.0703125,32.255859375 41.30859375,33.45703125 40.6494140625,33.8671875 40.224609375,34.3359375 41.1328125,34.3359375 41.71875,33.515625 42.568359375,32.98828125 42.568359375,32.4462890625 42.59765625,31.962890625 42.65625,30.8203125 42.802734375,29.53125 42.919921875,28.06640625 42.94921875,26.54296875 42.802734375,25.2685546875 42.392578125,24.19921875 41.748046875,22.96875 41.2939453125,22.0458984375 40.986328125,21.2841796875 40.8251953125,20.5517578125 40.78125,19.716796875 40.95703125,17.9150390625 41.1328125,15.87890625 41.103515625,14.7216796875 40.869140625,13.4619140625 40.2392578125,12.4365234375 39.0234375,12.01171875 38.49609375,12.01171875 37.08984375,12.0703125 35.68359375,12.1875 34.3798828125,12.3193359375 33.544921875,12.3779296875 33.0322265625,12.4072265625 32.6953125,12.421875 26.7041015625,11.77734375 21.26953125,10.1953125 19.29931640625,9.30175971984863 18.310546875,8.671875 17.724609375,7.880859375 17.109375,6.767578125 14.4140625,7.55859375 14.208984375,7.177734375 16.142578125,5.244140625 15.0146484375,4.4384765625 13.88671875,3.92578125z M0.234374642372131,0L0.87890625,0.64453125 1.435546875,1.0693359375 1.962890625,1.259765625 2.31445336341858,1.1572265625 2.85644483566284,0.9375 3.515625,0.7177734375 4.189453125,0.615234375 5.00976514816284,0.7177734375 6.1376953125,0.9375 7.294921875,1.1572265625 8.26171875,1.259765625 8.7744140625,1.201171875 9.404296875,1.0546875 10.048828125,0.8642578125 10.60546875,0.64453125 12.3779296875,1.34765625 13.4765625,2.548828125 15.3369140625,1.0693359375 16.7578125,0.64453125 18.0908203125,1.201171875 19.013671875,1.376953125 19.7607421875,1.3037109375 20.771484375,1.025390625 22.8515625,0.64453125 24.0673828125,0.849609375 25.3125,1.0546875 25.751953125,0.9814453125 26.19140625,0.791015625 26.66015625,0.52734375 26.77734375,0.615234375 26.865234375,0.7177734375 26.953125,0.791015625 25.810546875,1.46484375 24.169921875,1.611328125 23.14453125,1.6259765625 22.4560546875,1.669921875 21.9580078125,1.7431640625 21.50390625,1.875 20.5224609375,2.16796875 19.833984375,2.3583984375 19.306640625,2.4609375 18.8671875,2.490234375 17.9296875,2.3291015625 16.7578125,1.845703125 15.322265625,2.2705078125 14.4140625,3.10546875 15.41015625,3.5888671875 16.40625,4.21875 17.01416015625,4.68017721176147 17.138671875,4.833984375 17.34375,5.17089986801147 18.017578125,6.181640625 19.482421875,8.349609375 23.5766582489014,9.96826362609863 27.01171875,10.8984375 29.9853515625,11.337890625 32.6953125,11.484375 34.3505859375,11.4404296875 36.03515625,11.279296875 37.5732421875,11.103515625 38.759765625,11.044921875 40.48828125,11.279296875 42.041015625,12.12890625 43.1396484375,13.828125 43.7109375,16.201171875 43.828125,17.2412109375 43.9306640625,18.076171875 44.0185546875,18.7939453125 44.12109375,19.482421875 44.3115234375,20.8447265625 44.4140625,21.97265625 44.384765625,22.3388671875 44.326171875,22.587890625 44.267578125,22.79296875 43.88671875,22.8515625 43.4765625,20.126953125 43.1689453125,18.0322265625 42.861328125,16.0546875 42.4072265625,14.3408203125 41.689453125,13.06640625 41.8505859375,13.65234375 41.9677734375,14.4287109375 42.041015625,15.1904296875 42.0703125,15.76171875 41.9091796875,17.9296875 41.748046875,19.8046875 41.748046875,20.2734375 42.03369140625,21.56982421875 42.83203125,23.115234375 43.60107421875,24.7265625 43.857421875,26.279296875 43.79150390625,27.451171875 43.59375,29.443359375 43.39599609375,31.64794921875 43.330078125,33.3984375 42.83203125,33.8671875 42.275390625,34.21875 41.89453125,34.951171875 41.42578125,35.2734375 39.521484375,35.2734375 39.08203125,34.716796875 39.345703125,33.955078125 39.95361328125,33.34716796875 41.07421875,32.578125 41.6015625,29.58984375 41.0009765625,26.806640625 39.345703125,23.935546875 38.0859375,24.990234375 36.533203125,27.333984375 35.15625,30.25634765625 34.306640625,33.046875 33.984375,33.369140625 33.603515625,33.427734375 33.251953125,33.544921875 32.958984375,34.16015625 32.900390625,34.8046875 32.40234375,35.2734375 30.52734375,35.2734375 30.146484375,34.5703125 31.083984375,32.8857421875 32.578125,31.640625 34.16015625,26.7333984375 35.185546875,21.591796875 32.9443359375,22.0458984375 30.5859375,22.470703125 29.765625,22.1630859375 27.861328125,21.85546875 25.8544921875,21.9580078125 24.140625,22.060546875 23.02734375,21.9873046875 21.943359375,21.73828125 21.767578125,24.580078125 21.708984375,27.421875 21.7822265625,30.1611328125 22.001953125,32.900390625 21.50390625,33.369140625 20.5224609375,33.8232421875 20.068359375,34.951171875 19.599609375,35.2734375 18.193359375,35.2734375 17.75390625,34.716796875 18.310546875,32.98828125 19.62890625,31.728515625 19.39453125,27.0556640625 18.80859375,22.44140625 17.58544921875,24.33837890625 16.904296875,27.041015625 16.47216796875,29.47265625 15.9375,30.673828125 15.498046875,31.5234375 15.3515625,32.900390625 15,33.369140625 13.9306640625,33.8525390625 13.41796875,34.951171875 12.94921875,35.2734375 11.044921875,35.2734375 10.60546875,34.716796875 11.5869140625,33.076171875 13.212890625,31.9921875 14.794921875,26.513671875 15.791015625,20.859375 14.677734375,20.16357421875 13.740234375,19.013671875 13.0151357650757,16.97021484375 12.421875,13.53515625 12.275390625,12.509765625 12.1875,11.8359375 12.12890625,11.396484375 12.099609375,11.07421875 9.43359375,11.25 8.61328125,12.2607421875 8.115234375,12.890625 7.79296875,13.30078125 7.20703125,13.271484375 7.060546875,12.568359375 8.056640625,11.162109375 7.060546875,10.8984375 6.28418016433716,10.6787109375 5.771484375,10.458984375 5.50781202316284,10.2685546875 5.33203125,10.13671875 5.185546875,10.01953125 5.06835889816284,9.55078125 5.54443311691284,8.19580268859863 6.73828125,6.767578125 8.90625,5.126953125 10.51025390625,4.16748189926147 12.509765625,3.10546875 12.1142578125,2.724609375 11.6455078125,2.3291015625 11.1328125,2.0068359375 10.634765625,1.845703125 9.3896484375,2.197265625 8.203125,2.34375 7.236328125,2.2265625 6.240234375,1.93359375 5.0537109375,1.5966796875 4.189453125,1.494140625 3.07617139816284,1.6552734375 1.9921875,1.81640625 1.26708984375,1.61865234375 0.615234136581421,1.025390625 0,0.234375 0.234374642372131,0z" />
    </g>
  </g>
</svg>