<?xml version="1.0" encoding="utf-8"?>
<!DOCTYPE svg PUBLIC "-//W3C//DTD SVG 1.1//EN" "http://www.w3.org/Graphics/SVG/1.1/DTD/svg11.dtd">
<svg width="44.501953125" height="44.70703125" xmlns="http://www.w3.org/2000/svg" xmlns:xlink="http://www.w3.org/1999/xlink" xmlns:xml="http://www.w3.org/XML/1998/namespace" version="1.1">
  <g>
    <g>
      <path style="fill:#FF0000;fill-opacity:1" d="M35.15625,38.14453125L35.888671875,41.396484375 39.140625,41.865234375 42.333984375,42.65625 40.8984375,38.61328125 39.55078125,38.49609375 38.37890625,38.3935546875 37.32421875,38.291015625 35.15625,38.14453125z M16.34765625,37.1484375L15.5126953125,40.400390625 14.4140625,43.76953125 20.478515625,43.76953125 20.712890625,42.421875 20.9912109375,41.0595703125 21.2255859375,39.873046875 21.328125,39.08203125 21.2841796875,38.4814453125 21.181640625,37.8515625 21.03515625,37.177734375 19.365234375,38.84765625 18.57421875,38.7890625 18.1494140625,38.173828125 17.724609375,37.646484375 17.1533203125,37.2802734375 16.34765625,37.1484375z M13.505859375,21.591796875L14.765625,26.689453125 15.2490234375,29.00390625 15.7177734375,31.435546875 16.0986328125,33.8818359375 16.34765625,36.2109375 17.9150390625,36.62109375 19.04296875,37.79296875 20.80078125,36.123046875 20.1708984375,34.189453125 19.4091796875,32.4169921875 18.45703125,30.52734375 17.2119140625,28.271484375 15.5859375,25.3857421875 13.505859375,21.591796875z M38.96484375,8.349609375L39.580078125,16.11328125 39.78515625,16.083984375 40.166015625,16.025390625 40.986328125,16.46484375 41.337890625,15.849609375 41.8359375,15.5859375 42.12890625,15.556640625 38.96484375,8.349609375z M12.041015625,6.26953125L11.7919921875,7.08984375 11.689453125,7.91015625 12.01171875,9.052734375 12.36328125,7.96875 12.2607421875,7.119140625 12.041015625,6.26953125z M8.73046875,2.34375L9.7265625,2.666015625 8.583984375,3.251953125 8.291015625,2.841796875 8.73046875,2.34375z M9.7265625,0.9375L7.412109375,1.640625 5.185546875,2.431640625 3.94043040275574,2.6806640625 2.54882836341858,3.193359375 1.39892601966858,3.9990234375 0.937500476837158,5.068359375 2.10937547683716,4.62890625 3.45703101158142,4.51171875 5.5078125,4.6728515625 7.763671875,5.068359375 8.115234375,5.5078125 8.115234375,8.759765625 8.408203125,11.40380859375 9.287109375,12.7734375 10.4296875,13.3447284698486 11.455078125,13.53515625 12.5830078125,13.125 13.9453125,12.24609375 14.53125,12.978515625 13.505859375,13.7109375 12.7001953125,14.1650390625 12.12890625,14.35546875 11.89453125,14.4140625 12.2900390625,16.93359375 13.271484375,19.365234375 15.8203125,24.0234375 18.22265625,28.06640625 20.302734375,32.0361328125 21.884765625,36.4453125 22.265625,36.298828125 23.3935546875,37.32421875 24.140625,38.3203125 24.609375,39.111328125 25.01953125,37.96875 25.13671875,36.826171875 24.9755859375,35.2001953125 24.66796875,33.45703125 25.0341796875,33.2080078125 25.400390625,32.98828125 27.8686504364014,34.62158203125 30.87890625,35.947265625 33.5009765625,36.826171875 34.6875,37.1484375 38.408203125,37.412109375 39.90234375,37.5439453125 41.3525390625,37.6904296875 42.6123046875,37.8369140625 43.53515625,37.998046875 43.1103515625,35.93994140625 42.12890625,33.8671875 40.7666015625,31.8896484375 39.287109375,30.087890625 37.8076171875,28.5205078125 36.6064453125,27.275390625 35.80078125,26.30859375 35.5078125,25.576171875 35.537109375,25.25390625 35.2734375,23.1298828125 34.482421875,21.62109375 33.12744140625,20.1709003448486 31.171875,18.22265625 18.515625,5.80078125 16.3330078125,3.9697265625 14.560546875,3.369140625 13.7182607650757,3.5888671875 13.125,4.248046875 12.861328125,5.244140625 12.978515625,6.005859375 13.30078125,7.8515625 13.0517578125,9.0966796875 12.158203125,10.13671875 11.8212890625,10.078125 11.484375,9.990234375 10.95703125,8.8916015625 10.810546875,7.822265625 10.9423828125,6.6796875 11.25,5.5078125 11.6015625,4.3359375 11.7919921875,3.5888671875 11.8359375,3.017578125 11.279296875,1.69921875 10.6420888900757,1.1279296875 9.7265625,0.9375z M9.7265625,0L10.9570302963257,0.24169921875 11.953125,0.966796875 12.6123046875,1.93359375 12.83203125,3.10546875 13.6083984375,2.63671875 14.58984375,2.4609375 16.083984375,2.841796875 16.5380859375,3.076171875 17.1533203125,3.486328125 18.017578125,4.189453125 19.21875,5.33203125 26.630859375,12.626953125 36.73828125,0.966796875 39.31640625,7.1484375 44.033203125,17.4609375 43.0517578125,16.7138690948486 42.099609375,16.46484375 41.4404296875,16.8310565948486 41.220703125,17.9296875 40.7080078125,17.2045917510986 40.166015625,16.962890625 39.66796875,17.16796875 39.052734375,17.9150409698486 38.84765625,18.8671875 38.0859375,7.6171875 36.416015625,3.193359375 27.626953125,13.59375 34.1015625,19.921875 34.658203125,20.5078125 35.478515625,21.38671875 36.2255859375,22.94677734375 36.474609375,25.634765625 39.1845703125,28.7255859375 41.77734375,31.7578125 43.73291015625,34.951171875 44.501953125,38.5546875 44.00390625,39.0234375 42.94921875,38.84765625 41.89453125,38.73046875 43.505859375,43.154296875 43.037109375,43.76953125 41.7919921875,43.4765625 39.931640625,43.0078125 37.8369140625,42.5537109375 35.5078125,42.333984375 35.068359375,41.953125 34.16015625,38.02734375 33.8525390625,37.9541015625 33.4423828125,37.822265625 32.8271484375,37.6171875 31.904296875,37.294921875 28.7109375,36.0498046875 25.78125,34.423828125 25.9716796875,35.68359375 26.044921875,36.884765625 25.8251953125,38.583984375 25.01953125,40.283203125 24.228515625,40.224609375 23.1884765625,38.5986328125 22.119140625,37.5 22.177734375,38.1884765625 22.20703125,38.7890625 22.060546875,40.5908203125 21.85546875,41.949462890625 21.533203125,43.76953125 26.07421875,43.76953125 27.0263671875,43.330078125 28.330078125,43.154296875 29.7802734375,43.4765625 30.322265625,44.70703125 29.912109375,44.23828125 29.443359375,43.9013671875 28.857421875,43.740234375 28.1396484375,43.828125 27.392578125,44.00390625 26.54296875,44.23828125 28.41796875,44.70703125 6.240234375,44.70703125 8.115234375,44.23828125 7.265625,44.00390625 6.5185546875,43.828125 5.80078125,43.740234375 5.0390625,43.9013671875 4.423828125,44.23828125 3.86718773841858,44.70703125 4.44580078125,43.54248046875 6.181640625,43.154296875 7.3388671875,43.271484375 8.583984375,43.76953125 13.359375,43.76953125 14.267578125,41.279296875 14.794921875,39.404296875 15.0732421875,38.02734375 15.205078125,36.73828125 15.1171875,34.8046875 14.8974609375,32.724609375 14.6044921875,30.8203125 14.326171875,29.384765625 13.76953125,26.748046875 12.978515625,23.26171875 12.158203125,19.9072265625 11.513671875,17.783203125 10.95703125,14.4140625 10.04150390625,14.1796894073486 8.701171875,13.4765625 7.55859375,11.8212900161743 7.177734375,8.671875 7.177734375,5.888671875 5.419921875,5.595703125 4.423828125,5.478515625 3.42773413658142,5.44921875 1.93359422683716,5.625 0.937500476837158,6.26953125 0.087890625,6.064453125 0,5.21484375 0.395508289337158,3.80859375 1.46484398841858,2.75390625 3.03222680091858,2.021484375 4.951171875,1.5234375 5.859375,1.33300733566284 6.2109375,1.23046875 6.50390625,1.025390625 7.32421875,0.585937976837158 9.7265625,0z" />
    </g>
  </g>
</svg>