<?xml version="1.0" encoding="utf-8"?>
<!DOCTYPE svg PUBLIC "-//W3C//DTD SVG 1.1//EN" "http://www.w3.org/Graphics/SVG/1.1/DTD/svg11.dtd">
<svg width="44.326171875" height="46.34765625" xmlns="http://www.w3.org/2000/svg" xmlns:xlink="http://www.w3.org/1999/xlink" xmlns:xml="http://www.w3.org/XML/1998/namespace" version="1.1">
  <g>
    <g>
      <path style="fill:#FF0000;fill-opacity:1" d="M41.982421875,40.048828125L42.333984375,41.1328125 42.919921875,41.1328125 41.982421875,40.048828125z M18.779296875,35.859375L17.6806640625,36.8115234375 16.669921875,37.32421875 16.376953125,37.294921875 14.384765625,36.6796875 13.505859375,37.32421875 12.568359375,38.994140625 11.982421875,40.8544921875 11.484375,43.037109375 14.5751953125,43.359375 17.666015625,43.4765625 18.310546875,43.06640625 18.7939453125,42.451171875 19.1015625,41.5283203125 19.21875,40.166015625 19.10888671875,38.34228515625 18.779296875,35.859375z M13.59375,23.994140625L13.53515625,25.2099609375 13.41796875,26.9091796875 13.2861328125,28.7548828125 13.154296875,30.380859375 13.06640625,32.109375 13.0224609375,33.80859375 12.978515625,35.3466796875 12.890625,36.533203125 13.6669921875,35.9033203125 14.384765625,35.771484375 15.41015625,35.9912109375 16.5234375,36.38671875 17.4462890625,35.859375 18.134765625,34.98046875 13.59375,23.994140625z M14.443359375,23.5546875L19.248046875,35.21484375 20.09765625,34.599609375 22.177734375,36.15234375 24.345703125,37.587890625 24.5068359375,36.884765625 24.638671875,36.0498046875 24.755859375,34.9365234375 24.873046875,33.427734375 25.048828125,32.05078125 25.78125,31.7578125 26.4202861785889,32.318115234375 27.2534160614014,33.3544921875 28.2806377410889,34.866943359375 29.501953125,36.85546875 31.9189453125,40.8544921875 33.837890625,44.00390625 42.65625,45.380859375 42.802734375,45 42.568359375,44.2236328125 42.1728515625,43.1689453125 41.689453125,41.953125 41.162109375,40.693359375 39.78515625,37.6171875 35.068359375,34.16015625 32.548828125,32.3583984375 29.3115234375,30.029296875 25.693359375,27.36328125 22.03125,24.4921875 18.52294921875,24.2578125 14.443359375,23.5546875z M30.029296875,23.49609375L26.6162090301514,24.13330078125 23.642578125,24.462890625 27.3046875,27.2900390625 31.0693359375,30.0439453125 34.6728515625,32.63671875 37.880859375,35.009765625 35.31005859375,31.640625 33.28125,28.740234375 30.41015625,24.140625 30.029296875,23.49609375z M9.814453125,18.662109375L8.1884765625,19.16015625 6.533203125,19.716796875 9.5068359375,20.68359375 12.451171875,21.50390625 11.0595703125,20.126953125 9.814453125,18.662109375z M14.736328125,17.255859375L12.8173828125,17.75390625 10.78125,18.33984375 12.0263671875,19.7607421875 13.41796875,21.064453125 13.7109375,21.826171875 17.1240234375,22.529296875 20.185546875,22.939453125 17.0068359375,19.9951171875 14.736328125,17.255859375z M27.12890625,16.728515625L30.029296875,21.708984375 33.544921875,20.80078125 37.412109375,19.716796875 31.8896484375,17.9736328125 27.12890625,16.728515625z M22.1484375,16.025390625L19.2919921875,16.2744140625 15.703125,16.9921875 18.2666015625,19.7900390625 21.9140625,23.02734375 22.1484375,23.02734375 25.0634765625,22.7490234375 29.12109375,21.943359375 25.869140625,16.46484375 23.818359375,16.142578125 22.1484375,16.025390625z M9.287109375,3.837890625L9.345703125,3.837890625 9.9169921875,4.0283203125 10.458984375,4.599609375 10.927734375,5.4931640625 11.19140625,6.416015625 11.689453125,5.2001953125 12.451171875,4.3359375 13.41796875,3.837890625 14.384765625,4.423828125 14.384765625,5.009765625 13.564453125,5.625 12.65625,5.33203125 11.9970703125,6.4892578125 11.806640625,8.0859375 11.806640625,8.994140625 10.869140625,9.052734375 10.546875,7.236328125 9.873046875,5.478515625 9.345703125,5.625 8.291015625,4.951171875 8.291015625,4.482421875 9.287109375,3.837890625z M6.85546875,0.937500476837158L6.2109375,2.8271484375 6.03515577316284,5.80078125 6.49658203125,9.873046875 7.880859375,13.828125 9.697265625,16.904296875 9.78515625,16.875 13.916015625,15.64453125 13.7109375,14.619140625 13.9416494369507,13.6523456573486 14.6337890625,12.919921875 16.9921875,12.3046875 17.138671875,13.212890625 15.985107421875,13.4326190948486 15.2197265625,13.740234375 14.6484375,14.736328125 14.794921875,15.439453125 18.62548828125,14.7802753448486 22.20703125,14.560546875 24.7265625,14.736328125 23.73046875,13.3447265625 22.8515625,12.216796875 20.9033203125,10.18798828125 19.21875,8.96484375 17.958984375,8.22509765625 17.28515625,7.646484375 16.669921875,6.767578125 16.494140625,5.86669921875 16.435546875,4.1015625 16.376953125,2.3876953125 15.966796875,0.937500476837158 6.85546875,0.937500476837158z M6.591796875,0L16.025390625,0 16.962890625,0.732421875 17.2265625,1.69921875 17.314453125,3.134765625 17.314453125,4.248046875 17.34375,5.361328125 17.4609375,6.1083984375 17.6806640625,6.6357421875 18.017578125,7.03125 18.662109375,7.646484375 20.44921875,8.6480712890625 22.265625,10.18798828125 24.111328125,12.2662353515625 25.986328125,14.8828125 26.42578125,14.94140625 27.9638671875,15.2270517349243 30.029296875,15.7324237823486 32.6220703125,16.4575214385986 35.7421875,17.40234375 40.166015625,18.80859375 41.9091796875,19.306640625 43.9453125,19.775390625 41.8505859375,20.244140625 40.166015625,20.712890625 35.302734375,22.1923828125 30.99609375,23.291015625 33.193359375,26.8505859375 35.15625,29.794921875 39.0087890625,34.9072265625 41.473388671875,37.935791015625 44.326171875,41.30859375 43.916015625,42.0703125 42.7734375,42.0703125 43.125,42.83203125 43.447265625,43.6376953125 43.681640625,44.3701171875 43.76953125,44.94140625 43.7109375,45.263671875 43.59375,45.5859375 43.41796875,46.025390625 42.94921875,46.34765625 33.515625,44.8828125 33.134765625,44.6484375 31.0546875,41.2646484375 29.6484375,38.8623046875 28.4765625,36.8994140625 27.099609375,34.8046875 26.54296875,34.013671875 26.162109375,33.45703125 25.83984375,33.046875 25.78125,33.720703125 25.72265625,34.5849609375 25.634765625,35.771484375 25.4296875,37.1337890625 25.01953125,38.408203125 24.404296875,38.701171875 23.3056640625,38.0126953125 22.1337890625,37.2216796875 20.9619140625,36.416015625 19.921875,35.654296875 20.126953125,37.2509765625 20.2734375,38.3935546875 20.3466796875,39.2138671875 20.361328125,39.814453125 20.2294921875,41.42578125 19.775390625,42.9052734375 18.8525390625,43.9892578125 17.34375,44.4140625 14.765625,44.326171875 11.484375,44.091796875 8.173828125,43.88671875 5.771484375,43.828125 3.4716796875,43.88671875 1.80175817012787,44.033203125 0.688476920127869,44.2236328125 0,44.4140625 0.57128894329071,43.7548828125 2.0361328125,43.2861328125 4.013671875,42.9931640625 6.15234422683716,42.890625 7.587890625,42.919921875 8.994140625,42.978515625 10.48828125,43.037109375 10.95703125,41.044921875 11.396484375,39.169921875 11.865234375,37.20703125 12.041015625,35.6103515625 12.1142578125,33.837890625 12.1435546875,32.05078125 12.216796875,30.41015625 12.3046875,28.9013671875 12.4365234375,27.01171875 12.568359375,25.0048828125 12.65625,23.173828125 9.0380859375,22.2802734375 6.2109375,21.4453125 4.4677734375,20.9326171875 3.046875,20.595703125 1.65527331829071,20.2734375 0,19.775390625 1.56738317012787,19.3798828125 3.28125,18.92578125 5.5517578125,18.2666015625 8.759765625,17.2265625 7.03125,14.1796875 5.58105421066284,10.04150390625 5.09765625,5.712890625 5.16357374191284,3.709716796875 5.361328125,2.2119140625 6.2109375,0.234375 6.591796875,0z" />
    </g>
  </g>
</svg>