<?xml version="1.0" encoding="utf-8"?>
<!DOCTYPE svg PUBLIC "-//W3C//DTD SVG 1.1//EN" "http://www.w3.org/Graphics/SVG/1.1/DTD/svg11.dtd">
<svg width="44.677734375" height="11.8359375" xmlns="http://www.w3.org/2000/svg" xmlns:xlink="http://www.w3.org/1999/xlink" xmlns:xml="http://www.w3.org/XML/1998/namespace" version="1.1">
  <g>
    <g>
      <path style="fill:#FF0000;fill-opacity:1" d="M18.10546875,3.076171875L17.34375,3.10546875 16.669921875,3.22265625 15.7470703125,5.859375 15.472412109375,7.74169921875 15.380859375,10.048828125 14.8828125,10.517578125 5.361328125,10.517578125 5.361328125,10.8984375 42.978515625,10.8984375 39.111328125,8.7890625 35.56640625,8.02734375 31.6845703125,7.5146484375 29.2529277801514,6.807861328125 26.2646484375,5.595703125 24.8226909637451,4.94110107421875 23.7634258270264,4.442138671875 23.0868511199951,4.09881591796875 22.79296875,3.9111328125 22.2399883270264,3.66943359375 20.9912109375,3.3837890625 18.10546875,3.076171875z M8.26171875,2.28515625L8.759765625,2.548828125 8.14453125,2.8125 7.998046875,2.6953125 8.056640625,2.4462890625 8.26171875,2.28515625z M12.71484375,1.0546875L12.71484375,1.201171875 12.890625,1.46484375 13.125,1.728515625 14.1064453125,2.138671875 15.205078125,2.314453125 15.615234375,2.34375 14.4873046875,1.5966796875 12.71484375,1.0546875z M10.8984375,0.9375L8.8916015625,1.0693359375 7.119140625,1.34765625 6.353759765625,1.864013671875 4.8193359375,2.9443359375 2.918701171875,3.966064453125 1.05468726158142,4.306640625 0.9375,4.365234375 1.20117163658142,4.833984375 1.80175757408142,5.2880859375 2.427978515625,5.386962890625 3.6328125,5.419921875 5.70648193359375,5.4730224609375 7.386474609375,5.63232421875 8.67279052734375,5.8978271484375 9.5654296875,6.26953125 10.6091299057007,7.19970703125 10.95703125,8.291015625 10.4296875,9.580078125 14.443359375,9.580078125 14.443359375,9.404296875 14.6923828125,6.26953125 15.5859375,3.28125 13.7878408432007,3.028564453125 12.6708984375,2.5634765625 11.8359375,1.435546875 11.77734375,0.966796875 11.337890625,0.9375 10.8984375,0.9375z M10.576171875,0L14.4873046875,0.6005859375 15.838623046875,1.322021484375 16.640625,2.28515625 17.3583984375,2.197265625 18.10546875,2.16796875 20.9619140625,2.490234375 22.3864727020264,2.79052734375 23.232421875,3.046875 24.052734375,3.45703125 27.3321533203125,5.020751953125 30.28564453125,6.1376953125 32.9132080078125,6.807861328125 35.21484375,7.03125 37.4102783203125,7.2784423828125 39.71923828125,8.02001953125 42.1417236328125,9.2559814453125 44.677734375,10.986328125 44.384765625,11.8359375 4.86328125,11.8359375 4.423828125,11.279296875 4.423828125,10.13671875 4.86328125,9.580078125 9.052734375,9.580078125 9.638671875,9.052734375 10.048828125,8.349609375 10.048828125,8.173828125 9.2431640625,7.18505859375 7.529296875,6.62109375 3.4423828125,6.3427734375 1.812744140625,6.229248046875 0.76171875,5.7421875 0.1904296875,5.0390625 0,4.27734375 0.33691418170929,3.6181640625 1.05468726158142,3.3984375 1.61132836341858,3.369140625 3.343505859375,2.841796875 4.9658203125,1.728515625 6.478271484375,0.63720703125 7.880859375,0.17578125 9.19921875,0.05859375 9.8291015625,0.029296875 10.576171875,0z" />
    </g>
  </g>
</svg>