<?xml version="1.0" encoding="utf-8"?>
<!DOCTYPE svg PUBLIC "-//W3C//DTD SVG 1.1//EN" "http://www.w3.org/Graphics/SVG/1.1/DTD/svg11.dtd">
<svg width="42.48046875" height="44.70703125" xmlns="http://www.w3.org/2000/svg" xmlns:xlink="http://www.w3.org/1999/xlink" xmlns:xml="http://www.w3.org/XML/1998/namespace" version="1.1">
  <g>
    <g>
      <path style="fill:#FF0000;fill-opacity:1" d="M20.0390625,33.515625L19.3359375,37.001953125 18.720703125,37.294921875 16.6552734375,36.38671875 14.296875,35.91796875 12.509765625,42.509765625 19.130859375,42.509765625 20.537109375,36.38671875 20.0390625,33.515625z M13.59375,33.28125L11.3232421875,34.423828125 9.8583984375,35.15625 8.9208984375,35.625 8.26171875,35.9765625 7.1484375,36.62109375 6.6064453125,37.0751953125 6.357421875,37.646484375 6.73828125,38.14453125 7.44140625,38.3203125 8.7744140625,37.6904296875 10.2392578125,37.0166015625 11.7333984375,36.3720703125 13.154296875,35.830078125 13.59375,33.28125z M27.36328125,30.17578125L29.296875,34.51171875 31.402587890625,38.477783203125 33.6767578125,41.3525390625 36.148681640625,43.099365234375 38.84765625,43.681640625 40.078125,43.59375 38.935546875,39.9609375 37.3828125,37.20703125 36.26953125,36.05712890625 34.6875,34.892578125 30.3515625,32.109375 27.36328125,30.17578125z M13.4765625,23.26171875L14.3115234375,26.3818359375 14.70703125,29.6484375 14.70703125,30.263671875 14.6337890625,32.0361328125 14.501953125,33.544921875 14.296875,34.98046875 16.4794921875,35.3759765625 18.544921875,36.181640625 19.3359375,32.197265625 19.2041015625,31.9775390625 18.955078125,31.435546875 16.025390625,26.8359375 14.6337890625,24.90234375 14.0625,24.08203125 13.4765625,23.26171875z M12.158203125,2.724609375L13.2421875,3.22265625 12.158203125,3.75 11.77734375,3.22265625 12.158203125,2.724609375z M25.01953125,0.99609375L25.048828125,1.962890625 25.13671875,2.9296875 25.37109375,4.86328125 25.4736328125,5.830078125 25.517578125,6.796875 25.4443359375,8.3056640625 25.283203125,9.404296875 25.1220703125,10.2099609375 25.048828125,10.8984375 25.2465801239014,11.7333984375 25.83984375,12.36328125 28.0078125,13.447265625 29.8095703125,14.1064453125 31.787109375,14.736328125 33.486328125,15.8203125 34.072265625,17.431640625 33.4130859375,19.5263671875 31.34765625,22.32421875 32.1240234375,23.3349609375 32.841796875,24.31640625 37.001953125,19.9658203125 40.400390625,15 34.1015625,13.505859375 31.4208984375,12.509765625 29.3994140625,10.8544921875 28.125,8.466796875 27.685546875,5.2734375 27.744140625,3.7060546875 27.861328125,0.99609375 25.01953125,0.99609375z M10.576171875,0.9375L9.8291015625,1.5234375 8.8916015625,2.0654296875 7.8369140625,2.4755859375 6.767578125,2.63671875 6.04980421066284,2.578125 5.09765625,2.51953125 3.67675733566284,2.7392578125 2.63671875,3.6328125 4.3212890625,3.193359375 6.005859375,3.017578125 8.3935546875,3.33984375 10.6640625,4.3359375 10.869140625,4.716796875 10.751953125,7.763671875 10.60546875,10.869140625 10.60546875,12.275390625 10.7739248275757,15.1391620635986 11.279296875,17.40234375 13.41796875,21.4453125 15.029296875,23.6572265625 16.9921875,26.42578125 18.0908203125,28.095703125 19.21875,29.9560546875 20.2587890625,31.8896484375 21.09375,33.75 21.50390625,36.181640625 21.85546875,35.947265625 24.7265625,37.1484375 25.6201171875,33.310546875 25.986328125,29.384765625 22.91015625,27.24609375 20.33203125,25.283203125 18.10546875,23.2470703125 16.11328125,20.830078125 14.5751953125,18.0322284698486 13.76953125,14.853515625 13.7109375,14.267578125 14.6484375,14.1796875 14.677734375,14.47265625 15.6298828125,18.1713886260986 17.900390625,21.591796875 21.4013671875,24.8876953125 25.927734375,28.212890625 27.65625,29.2529296875 29.560546875,30.46875 31.728515625,31.875 34.046630859375,33.3544921875 35.9033203125,34.62890625 37.305908203125,35.69091796875 38.26171875,36.533203125 39.5361328125,37.822265625 40.48828125,38.759765625 37.96142578125,33.80126953125 34.716796875,28.53515625 30.5419921875,22.734375 25.283203125,16.259765625 24.052734375,14.765625 22.470703125,13.0078125 20.5078125,10.927734375 20.0537109375,10.4443359375 19.51171875,9.814453125 18.837890625,9.052734375 17.490234375,0.9375 10.576171875,0.9375z M10.25390625,0L18.310546875,0 18.3837890625,0.5126953125 18.57421875,1.5673828125 18.80859375,2.9736328125 19.072265625,4.541015625 19.775390625,8.73046875 25.8251953125,15.5859375 30.76171875,21.591796875 31.669921875,20.4931640625 32.4169921875,19.365234375 32.9150390625,18.310546875 33.10546875,17.431640625 32.63671875,16.34765625 31.95556640625,15.8862323760986 30.849609375,15.380859375 29.619140625,15 27.3889141082764,14.1613788604736 25.6201171875,13.2275390625 24.4665508270264,12.1911630630493 24.08203125,11.044921875 24.31640625,9.3896484375 24.55078125,7.294921875 24.4921875,5.9033203125 24.375,4.423828125 24.169921875,2.51953125 24.08203125,0.615233898162842 24.521484375,0.05859375 28.30078125,0.05859375 28.6376953125,0.380859375 28.798828125,0.527344226837158 28.798828125,0.99609375 28.6962890625,3.3837890625 28.59375,5.126953125 29.1943359375,8.8037109375 30.0183086395264,10.213623046875 31.2890625,11.3671875 32.9443359375,12.2021484375 34.86328125,12.802734375 37.880859375,13.4765625 41.220703125,14.267578125 41.484375,15 37.822265625,20.3466796875 33.369140625,25.048828125 33.779296875,25.576171875 38.4521484375,32.7685546875 42.48046875,40.95703125 41.71875,41.455078125 39.638671875,39.287109375 40.458984375,41.455078125 41.07421875,43.798828125 40.751953125,44.4140625 38.7890625,44.70703125 35.943603515625,44.066162109375 33.2080078125,42.1435546875 30.648193359375,38.990478515625 28.330078125,34.658203125 26.8359375,31.2890625 26.30859375,34.658203125 25.48828125,37.939453125 24.873046875,38.232421875 21.650390625,36.826171875 20.302734375,42.509765625 27.890625,42.509765625 28.974609375,42.9638671875 29.326171875,44.35546875 29.326171875,44.47265625 29.0625,44.47265625 29.0625,44.267578125 28.8134765625,43.828125 28.447265625,43.7109375 1.318359375,43.7109375 0.5712890625,43.974609375 0.1171875,44.53125 0,44.47265625 0.131835699081421,43.7548828125 0.410156488418579,43.330078125 0.791015386581421,43.037109375 1.11328125,42.7734375 1.40625,42.509765625 11.3671875,42.509765625 11.5576171875,41.806640625 11.8798828125,40.5908203125 12.3193359375,38.9794921875 12.83203125,37.119140625 12.890625,36.9140625 11.8359375,37.3095703125 11.015625,37.646484375 8.73046875,38.8037109375 7.20703125,39.287109375 5.99121046066284,38.8330078125 5.47851514816284,37.705078125 5.94726514816284,36.45263671875 7.353515625,35.390625 8.2470703125,34.9365234375 9.3310546875,34.3798828125 11.015625,33.5302734375 13.7109375,32.16796875 13.740234375,31.435546875 13.7548828125,30.7763671875 13.76953125,30.17578125 13.76953125,29.560546875 13.4326171875,26.7041015625 12.685546875,23.84765625 11.77734375,21.1083984375 10.72265625,18.603515625 9.90966796875,15.7763690948486 9.638671875,12.041015625 9.638671875,11.103515625 9.7998046875,8.056640625 9.931640625,5.009765625 9.0234375,4.541015625 8.1298828125,4.2041015625 7.1484375,3.9990234375 5.947265625,3.92578125 3.80859375,4.2333984375 1.66992211341858,5.09765625 0.996093511581421,4.482421875 1.61132836341858,3.486328125 2.18261742591858,2.6806640625 2.783203125,2.080078125 3.779296875,1.6845703125 4.98046875,1.611328125 5.81543016433716,1.6845703125 6.591796875,1.7578125 7.646484375,1.611328125 8.5400390625,1.2451171875 9.228515625,0.8056640625 9.66796875,0.439453601837158 10.0048828125,0.102538585662842 10.25390625,0z" />
    </g>
  </g>
</svg>