<?xml version="1.0" encoding="utf-8"?>
<!DOCTYPE svg PUBLIC "-//W3C//DTD SVG 1.1//EN" "http://www.w3.org/Graphics/SVG/1.1/DTD/svg11.dtd">
<svg width="44.853515625" height="44.384765625" xmlns="http://www.w3.org/2000/svg" xmlns:xlink="http://www.w3.org/1999/xlink" xmlns:xml="http://www.w3.org/XML/1998/namespace" version="1.1">
  <g>
    <g>
      <path style="fill:#FF0000;fill-opacity:1" d="M1.171875,29.736328125L2.98828125,32.882080078125 5.15625,35.6396484375 7.613525390625,38.001708984375 10.2978515625,39.9609375 13.1689443588257,41.502685546875 16.1865234375,42.6123046875 19.288330078125,43.282470703125 22.412109375,43.505859375 25.5358867645264,43.282470703125 28.6376953125,42.6123046875 31.6552734375,41.502685546875 34.5263671875,39.9609375 37.210693359375,38.001708984375 39.66796875,35.6396484375 41.8359375,32.882080078125 43.65234375,29.736328125 1.171875,29.736328125z M15.908203125,24.2578125L15.5859375,25.400390625 15.322265625,26.5576171875 15.1318359375,27.6416015625 15,28.53515625 15.7177734375,28.505859375 16.58203125,28.41796875 17.431640625,28.30078125 18.1640625,28.154296875 18.5595703125,27.01171875 18.720703125,25.25390625 18.69140625,24.9169921875 18.6328125,24.609375 18.3544921875,24.90234375 18.076171875,25.224609375 17.4609375,25.283203125 16.669921875,24.7705078125 15.908203125,24.2578125z M22.294921875,21.38671875L22.03125,22.3681640625 21.796875,23.408203125 21.533203125,24.55078125 21.03515625,24.697265625 19.775390625,24.052734375 19.658203125,24.84375 19.5556640625,25.5908203125 19.482421875,26.30859375 19.5263671875,27.392578125 19.833984375,28.095703125 20.6103515625,28.4033203125 21.50390625,28.564453125 22.998046875,28.7109375 23.2177734375,28.447265625 23.525390625,28.330078125 23.8916015625,28.4033203125 24.19921875,28.798828125 28.125,28.798828125 26.77734375,26.7333984375 25.400390625,24.78515625 23.935546875,22.998046875 22.294921875,21.38671875z M23.4375,21.328125L25.3857402801514,23.28369140625 27.3046875,25.869140625 28.06640625,26.9970703125 28.5205078125,27.6416015625 28.740234375,27.9638671875 28.857421875,28.125 30.029296875,28.125 32.51953125,27.9345703125 34.189453125,27.36328125 31.2890625,24.228515625 29.23828125,23.5986328125 26.806640625,22.763671875 25.4223613739014,22.22900390625 24.43359375,21.796875 23.4375,21.328125z M14.82421875,17.8125L14.9267578125,18.4130859375 15.087890625,19.130859375 15.322265625,19.98046875 15.6005859375,21.474609375 15.8203125,22.939453125 15.87890625,23.4375 16.669921875,23.49609375 17.666015625,24.287109375 18.22265625,23.759765625 17.607421875,22.5439453125 16.58203125,20.7861328125 15.5126953125,19.04296875 14.82421875,17.8125z M15.263671875,16.34765625L15.703125,17.4609375 15.8349609375,17.75390625 16.0693359375,18.1787109375 16.318359375,18.5888671875 16.494140625,18.8671875 17.4462890625,20.4638671875 18.076171875,21.474609375 18.4130859375,22.0166015625 18.544921875,22.236328125 19.130859375,23.349609375 19.62890625,22.96875 20.771484375,23.5546875 21.03515625,22.32421875 21.2548828125,21.328125 21.4453125,20.537109375 20.6103515625,20.126953125 19.833984375,19.6875 19.04296875,19.189453125 18.134765625,18.603515625 17.314453125,18.0615234375 16.640625,17.5634765625 15.99609375,17.0361328125 15.263671875,16.34765625z M14.00390625,7.265625L13.095703125,7.353515625 12.421875,7.8369140625 12.099609375,9.0234375 12.3193359375,10.283203125 12.8759765625,11.5869140625 13.6376953125,12.8759765625 14.47265625,14.0625 15.908203125,15.6298828125 17.8564453125,17.197265625 20.15625,18.6767578125 22.67578125,19.98046875 29.0625,22.4560546875 34.423828125,24.228515625 32.548828125,21.6650390625 30.7177734375,19.3359375 28.8134765625,16.9775390625 26.77734375,14.326171875 25.5615234375,12.6416015625 24.66796875,11.337890625 23.7158203125,9.873046875 23.1298828125,8.9208984375 22.79296875,8.3642578125 22.587890625,8.056640625 22.5,8.26171875 20.3173828125,7.7197265625 17.900390625,7.4267578125 15.6591796875,7.294921875 14.00390625,7.265625z M11.982421875,1.552734375L12.5244131088257,1.7431640625 13.271484375,2.314453125 12.01171875,2.87109375 11.630859375,2.28515625 11.982421875,1.552734375z M13.30078125,0.9375L11.337890625,1.171875 10.458984375,1.787109375 10.107421875,2.314453125 9.78515625,2.607421875 9.5068359375,2.7978515625 9.31640625,3.046875 9.84375,3.2958984375 10.4296875,3.3984375 10.8984375,3.720703125 11.5576171875,5.33203125 11.865234375,7.5 12.59765625,6.533203125 13.7109375,6.328125 17.3876953125,6.4306640625 21.85546875,7.08984375 20.4052734375,5.6103515625 19.130859375,4.775390625 18.21533203125,4.15283203125 17.75390625,3.3984375 17.32177734375,2.61474609375 16.376953125,1.787109375 15.00732421875,1.14990234375 13.30078125,0.9375z M12.978515625,0L14.99267578125,0.245361328125 16.7578125,0.9814453125 18.1640625,2.135009765625 19.1015625,3.6328125 21.767578125,5.6982421875 24.08203125,8.759765625 26.8212890625,12.8173828125 29.619140625,16.5673828125 32.7978515625,20.5810546875 36.6796875,25.48828125 36.2109375,26.1328125 33.1640625,24.90234375 33.6328125,25.4443359375 34.248046875,26.1474609375 34.86328125,26.8359375 35.33203125,27.333984375 35.2734375,27.83203125 32.578125,28.798828125 44.384765625,28.798828125 44.853515625,29.4140625 42.850341796875,32.999267578125 40.4736328125,36.0791015625 37.811279296875,38.660888671875 34.951171875,40.751953125 31.92626953125,42.359619140625 28.76953125,43.4912109375 25.5688457489014,44.161376953125 22.412109375,44.384765625 19.259033203125,44.1650390625 16.0693359375,43.505859375 12.9199209213257,42.388916015625 9.8876953125,40.7958984375 7.020263671875,38.719482421875 4.365234375,36.15234375 1.99951159954071,33.08349609375 0,29.501953125 0.380859613418579,28.798828125 6.943359375,28.798828125 7.236328125,28.564453125 7.587890625,28.388671875 8.0859375,28.30078125 8.671875,28.388671875 9.19921875,28.564453125 9.697265625,28.798828125 13.623046875,28.59375 14.1650390625,27.392578125 14.58984375,26.07421875 14.8681640625,24.755859375 14.970703125,23.5546875 14.8681640625,22.1923828125 14.443359375,20.390625 14.1650390625,19.27734375 13.916015625,18.1201171875 13.740234375,17.05078125 13.681640625,16.171875 13.6669921875,15.7763671875 13.65234375,15.263671875 13.623046875,14.619140625 12.65625,13.271484375 11.89453125,11.806640625 11.25,9.78515625 10.927734375,7.08984375 10.927734375,6.9140625 10.6640625,5.595703125 10.13671875,4.3359375 9.375,4.1015625 8.642578125,3.75 8.349609375,3.22265625 8.6865234375,2.2998046875 9.462890625,1.669921875 10.60546875,0.52734375 11.5942373275757,0.17578125 12.978515625,0z" />
    </g>
  </g>
</svg>