<?xml version="1.0" encoding="utf-8"?>
<!DOCTYPE svg PUBLIC "-//W3C//DTD SVG 1.1//EN" "http://www.w3.org/Graphics/SVG/1.1/DTD/svg11.dtd">
<svg width="44.58984375" height="34.51171875" xmlns="http://www.w3.org/2000/svg" xmlns:xlink="http://www.w3.org/1999/xlink" xmlns:xml="http://www.w3.org/XML/1998/namespace" version="1.1">
  <g>
    <g>
      <path style="fill:#FF0000;fill-opacity:1" d="M16.376953125,24.580078125L16.376953125,33.57421875 23.466796875,33.57421875 23.466796875,24.580078125 16.376953125,24.580078125z M4.1015625,17.98828125L4.1015625,33.57421875 15.439453125,33.57421875 15.439453125,24.19921875 15.87890625,23.642578125 23.90625,23.642578125 24.404296875,24.111328125 24.404296875,33.57421875 35.771484375,33.57421875 35.771484375,17.98828125 4.1015625,17.98828125z M1.61132788658142,14.677734375L2.8271484375,15.8056640625 3.8671875,17.05078125 35.888671875,17.05078125 36.650390625,15.7177734375 37.705078125,14.677734375 1.61132788658142,14.677734375z M18.251953125,11.455078125L17.9150390625,12.5830078125 17.05078125,13.740234375 20.2734375,13.740234375 21.2109375,12.5537109375 22.529296875,12.158203125 18.251953125,11.455078125z M33.369140625,11.19140625L32.373046875,11.220703125 31.376953125,11.337890625 30.029296875,13.740234375 38.994140625,13.740234375 37.81494140625,12.56103515625 36.50390625,11.77734375 33.369140625,11.19140625z M1.55273413658142,0.966796875L1.25976586341858,1.025390625 1.376953125,1.552734375 1.58203148841858,2.021484375 2.34375,2.28515625 3.486328125,2.40234375 4.072265625,2.40234375 4.48242139816284,2.578125 4.716796875,2.958984375 5.185546875,3.134765625 5.478515625,3.0615234375 5.830078125,2.900390625 6.123046875,2.98828125 6.38671875,3.046875 7.2216796875,3.9404296875 8.3203125,4.27734375 8.3203125,5.21484375 8.02734375,5.21484375 6.9580078125,4.86328125 6.298828125,4.306640625 5.888671875,3.92578125 5.55175828933716,3.9990234375 5.12695360183716,4.072265625 4.37988328933716,3.896484375 3.837890625,3.33984375 3.57421875,3.33984375 3.0615234375,3.33984375 2.57812547683716,3.28125 5.21850538253784,4.92187643051147 8.6279296875,6.796875 11.8835439682007,8.43017768859863 14.0625,9.345703125 14.296875,8.701171875 14.765625,8.232421875 15.41015625,8.056640625 15.41015625,8.994140625 15,9.5361328125 14.90478515625,10.1843280792236 14.736328125,11.220703125 14.5166015625,12.242431640625 14.267578125,12.8466796875 13.53515625,13.2421875 11.89453125,13.30078125 10.8251953125,13.2568359375 9.580078125,13.740234375 15.05859375,13.740234375 15.93017578125,13.4619140625 16.669921875,12.802734375 17.34375,10.986328125 17.63671875,10.72265625 17.9296875,10.458984375 21.62109375,11.0595703125 25.400390625,11.3671875 26.1181640625,9.140625 27.890625,7.236328125 28.4765625,7.96875 26.9677734375,9.5361328125 26.30859375,11.6015625 26.30859375,12.7734375 26.044921875,13.0078125 25.810546875,13.2421875 24.5654296875,13.125 23.14453125,13.0078125 22.0751953125,13.1689453125 21.298828125,13.740234375 27.59765625,13.740234375 28.8207988739014,13.45458984375 29.794921875,12.59765625 30.43212890625,11.2939453125 30.64453125,9.66796875 30.64453125,9.43359375 30.556640625,9.08203125 31.46484375,8.84765625 31.58203125,9.580078125 31.552734375,10.37109375 32.431640625,10.283203125 33.310546875,10.25390625 35.6369018554688,10.5130004882813 37.606201171875,11.290283203125 39.2184448242188,12.5857543945313 40.4736328125,14.3994140625 42.088623046875,19.068603515625 42.626953125,24.78515625 42.626953125,25.634765625 42.451171875,28.212890625 43.30078125,23.26171875 43.740234375,18.310546875 43.5205078125,15.355224609375 42.861328125,12.6416015625 41.74072265625,10.279541015625 40.13671875,8.37890625 37.921142578125,7.09350728988647 34.9658203125,6.5771484375 31.83837890625,6.26220846176147 29.1064453125,5.5810546875 24.66796875,4.599609375 24.287109375,4.599609375 21.357421875,4.9072265625 18.369140625,5.21484375 17.431640625,5.15625 15.673828125,4.63989400863647 13.505859375,3.4423828125 11.3159170150757,2.28881907463074 9.4921875,1.904296875 8.90625,1.904296875 7.08984375,1.9921875 5.2734375,2.080078125 3.3544921875,1.8603515625 1.55273413658142,0.966796875z M1.376953125,0L2.75390625,0.615234375 3.93310546875,1.07666015625 5.830078125,1.23046875 7.470703125,1.11328125 9.140625,0.99609375 11.77734375,1.4794921875 12.9895009994507,2.13134837150574 14.6923828125,3.1201171875 16.527099609375,3.98803853988647 18.134765625,4.27734375 18.662109375,4.27734375 21.298828125,4.013671875 23.935546875,3.662109375 24.404296875,3.6328125 26.4257793426514,3.85254049301147 28.681640625,4.51171875 31.35498046875,5.22949361801147 34.62890625,5.625 37.811279296875,6.15600728988647 40.2099609375,7.2802734375 42.01171875,9.06738471984863 43.4033203125,11.5869140625 44.293212890625,14.696044921875 44.58984375,18.251953125 44.3701171875,21.84814453125 43.7109375,26.3671875 43.0517578125,30.7763671875 42.83203125,34.04296875 42.509765625,34.2626953125 42.1875,34.482421875 41.4404296875,33.4423828125 41.279296875,31.875 41.30859375,30.87890625 41.54296875,27.890625 41.6015625,27.392578125 41.630859375,26.8359375 41.66015625,25.751953125 41.689453125,24.580078125 41.553955078125,21.492919921875 41.1474609375,18.7939453125 40.499267578125,16.512451171875 39.638671875,14.677734375 39.19921875,14.677734375 37.9833984375,15.6884765625 36.708984375,17.548828125 36.708984375,34.04296875 36.2109375,34.51171875 3.603515625,34.51171875 3.16406297683716,33.955078125 3.16406297683716,17.666015625 1.68457055091858,16.0107421875 0,14.560546875 0.14648449420929,14.150390625 0.292969107627869,13.740234375 8.49609375,13.740234375 9.84375,12.5244140625 11.748046875,12.275390625 13.41796875,12.3046875 13.681640625,11.8505859375 13.76953125,11.30859375 13.798828125,10.751953125 13.88671875,10.25390625 10.8068838119507,8.94287300109863 7.0751953125,7.001953125 3.424072265625,4.86328268051147 0.5859375,2.958984375 0.5859375,2.255859375 0.673828363418579,2.2265625 0.46875011920929,1.611328125 0.38085925579071,0.99609375 0.600585699081421,0.29296875 1.376953125,0z" />
    </g>
  </g>
</svg>