<?xml version="1.0" encoding="utf-8"?>
<!DOCTYPE svg PUBLIC "-//W3C//DTD SVG 1.1//EN" "http://www.w3.org/Graphics/SVG/1.1/DTD/svg11.dtd">
<svg width="21.943359375" height="44.970703125" xmlns="http://www.w3.org/2000/svg" xmlns:xlink="http://www.w3.org/1999/xlink" xmlns:xml="http://www.w3.org/XML/1998/namespace" version="1.1">
  <g>
    <g>
      <path style="fill:#FF0000;fill-opacity:1" d="M18.544921875,1.0546875L17.05078125,2.6953125 17.021484375,2.6953125 13.92333984375,6.302490234375 11.66015625,9.4482421875 10.27587890625,12.2277841567993 9.814453125,14.736328125 9.906005859375,16.4941425323486 10.1806640625,18.8085956573486 10.638427734375,21.6796894073486 11.279296875,25.107421875 11.9201650619507,28.5992431640625 12.3779287338257,31.66259765625 12.6525869369507,34.2974853515625 12.744140625,36.50390625 12.744140625,37.67578125 12.71484375,38.876953125 12.509765625,39.2578125 8.6572265625,41.4404296875 4.51171875,43.0078125 1.25976586341858,43.9453125 1.93359398841858,44.0625 2.63671922683716,44.091796875 3.9111328125,44.0185546875 5.21484375,43.828125 6.47460985183716,43.59375 7.55859375,43.447265625 8.642578125,43.30078125 9.755859375,43.2421875 11.7041015625,43.6083984375 13.59375,43.974609375 14.912109375,43.623046875 15.3515625,43.0810546875 15.498046875,42.158203125 15.3076171875,40.751953125 15.1171875,39.697265625 15.4541015625,34.3505859375 15.556640625,28.916015625 15.3955078125,23.671875 15.194091796875,21.533203125 14.912109375,20.15625 14.150390625,17.783203125 13.740234375,15.29296875 14.47998046875,13.0261240005493 16.69921875,9.7998046875 19.2626953125,6.536865234375 21.03515625,4.16015625 18.544921875,1.0546875z M18.251953125,0L18.955078125,0.05859375 21.943359375,3.80859375 21.943359375,4.39453125 20.625,6.26953125 17.4609375,10.37109375 15.4248046875,13.330078125 14.677734375,15.322265625 15.087890625,17.6953125 15.87890625,20.068359375 16.116943359375,21.170654296875 16.3037109375,22.9541015625 16.424560546875,25.382080078125 16.46484375,28.41796875 16.4492797851563,31.160888671875 16.402587890625,33.5009765625 16.3247680664063,35.438232421875 16.2158203125,36.97265625 16.087646484375,39.180908203125 16.201171875,40.4736328125 16.435546875,42.216796875 16.212158203125,43.414306640625 15.5419921875,44.2529296875 13.125,44.912109375 12.36328125,44.794921875 11.630859375,44.53125 10.6640625,44.2822265625 9.580078125,44.1796875 7.0751953125,44.4140625 4.65820360183716,44.794921875 3.51562547683716,44.912109375 2.34374976158142,44.970703125 1.72851586341858,44.94140625 0.5419921875,44.70703125 0,44.00390625 0.454101204872131,43.359375 1.93359398841858,42.83203125 3.22265625,42.421875 7.763671875,40.8251953125 11.8359375,38.61328125 11.806640625,36.50390625 11.5905752182007,32.830810546875 10.9423828125,28.5498046875 10.5514526367188,26.4688110351563 10.242919921875,24.810791015625 10.0167846679688,23.5757446289063 9.873046875,22.763671875 9.55078125,20.947265625 9.0087890625,17.4169921875 8.84765625,14.765625 9.459228515625,11.7150888442993 11.2939453125,8.3056640625 14.256591796875,4.434814453125 18.251953125,0z" />
    </g>
  </g>
</svg>