<?xml version="1.0" encoding="utf-8"?>
<!DOCTYPE svg PUBLIC "-//W3C//DTD SVG 1.1//EN" "http://www.w3.org/Graphics/SVG/1.1/DTD/svg11.dtd">
<svg width="44.091796875" height="35.33203125" xmlns="http://www.w3.org/2000/svg" xmlns:xlink="http://www.w3.org/1999/xlink" xmlns:xml="http://www.w3.org/XML/1998/namespace" version="1.1">
  <g>
    <g>
      <path style="fill:#FF0000;fill-opacity:1" d="M35.068359375,24.78515625L34.51171875,27.333984375 33.3251953125,31.201171875 31.5234375,34.39453125 32.607421875,34.39453125 33.3544921875,33.1787109375 34.39453125,32.2265625 35.1123046875,29.033203125 36.123046875,25.927734375 35.8154296875,25.576171875 35.068359375,24.78515625z M6.240234375,11.07421875L6.767578125,11.6015625 6.240234375,12.12890625 6.064453125,11.6015625 6.240234375,11.07421875z M12.12890625,7.646484375L11.71875,7.7490234375 11.2353515625,7.998046875 10.751953125,8.3056640625 10.400390625,8.61328125 9.990234375,9.0234375 9.287109375,8.37890625 9.521484375,8.14453125 7.529296875,8.14453125 6.123046875,8.818359375 4.65820360183716,10.546875 3.4423828125,12.29736328125 2.43164038658142,13.271484375 1.75048828125,13.9013671875 1.52343773841858,14.677734375 2.57812452316284,15.498046875 3.046875,15.87890625 5.068359375,15.3369140625 7.236328125,14.970703125 9.111328125,15.46875 10.634765625,16.93359375 12.65625,20.419921875 12.9345703125,20.9765625 13.18359375,21.73828125 13.359375,22.55859375 13.41796875,23.291015625 13.0883779525757,25.10009765625 12.099609375,28.18359375 10.6054677963257,31.5673828125 8.701171875,34.39453125 10.13671875,34.39453125 10.68603515625,32.7392578125 12.041015625,31.69921875 13.30078125,27.2021484375 14.3408203125,25.169677734375 15.76171875,23.3203125 15.5859375,21.884765625 15.46875,20.6982421875 15.41015625,19.716796875 15.6005859375,17.6806640625 16.083984375,16.11328125 16.728515625,14.94140625 17.373046875,14.091796875 18.076171875,14.736328125 17.3876953125,15.6591796875 16.845703125,16.7578125 16.4794921875,18.1494140625 16.34765625,19.951171875 16.40625,20.9912109375 16.5234375,22.1484375 16.728515625,23.466796875 17.3291015625,25.6640625 17.98828125,27.48046875 18.5595703125,29.30419921875 18.75,30.908203125 18.603515625,32.05078125 18.2666015625,33.0029296875 17.8564453125,33.779296875 17.51953125,34.39453125 18.75,34.39453125 18.9111328125,33.9111328125 19.130859375,32.958984375 19.4677734375,31.9189453125 20.009765625,30.966796875 18.7939453125,27.3193359375 18.1640625,23.5546875 18.603515625,22.998046875 20.625,22.7197265625 22.705078125,22.587890625 25.166015625,22.822265625 25.9936504364014,23.06396484375 26.3671875,23.3203125 26.865234375,23.90625 29.677734375,23.2470703125 32.2265625,22.880859375 34.51171875,23.291015625 35.654296875,24.0380859375 36.943359375,25.37109375 37.119140625,25.37109375 35.625,23.3203125 34.365234375,21.5185546875 33.076171875,19.453125 31.5234375,16.58203125 32.373046875,16.201171875 33.837890625,18.9990234375 35.5078125,21.6650390625 37.5,24.4189453125 39.931640625,27.451171875 39.931640625,33.10546875 39.052734375,34.39453125 40.6640625,34.39453125 40.60546875,33.5595703125 40.576171875,33.193359375 40.6787109375,32.4755859375 41.103515625,31.845703125 40.693359375,27.421875 39.5361328125,25.0048828125 39.228515625,22.587890625 39.345703125,20.8740234375 39.609375,19.072265625 39.84375,17.900390625 40.13671875,16.34765625 40.48828125,14.384765625 40.48828125,12.94921875 39.1552734375,12.451171875 38.02734375,12.275390625 35.771484375,12.12890625 33.75,12.0263671875 31.69921875,11.982421875 29.6337890625,12.0703125 27.509765625,12.3046875 26.4990234375,12.451171875 25.5322265625,12.568359375 24.5361328125,12.65625 23.37890625,12.685546875 20.50048828125,12.440185546875 17.724609375,11.7041015625 12.5390625,9.31640625 11.42578125,10.458984375 11.0595703125,10.13671875 10.72265625,9.814453125 11.66015625,8.876953125 12.12890625,8.2763671875 12.333984375,7.67578125 12.275390625,7.67578125 12.216796875,7.6611328125 12.12890625,7.646484375z M14.8828125,0L15,0.263671875 14.4873046875,0.64453125 13.5791015625,1.4208984375 12.5537109375,2.578125 11.689453125,4.130859375 11.220703125,5.2294921875 10.7958984375,6.03515625 10.2978515625,6.6650390625 9.638671875,7.236328125 10.458984375,7.294921875 11.3818359375,6.8408203125 12.0703125,6.73828125 12.9931631088257,6.98730611801147 13.30078125,7.734375 13.06640625,8.5546875 18.046875,10.8544921875 20.68359375,11.524658203125 23.4375,11.748046875 25.0927734375,11.66015625 27.158203125,11.396484375 31.962890625,11.044921875 35.244140625,11.1474609375 38.5546875,11.455078125 40.048828125,11.8212890625 41.162109375,12.421875 41.9091796875,13.0810546875 42.333984375,13.623046875 43.6669921875,17.197265625 44.091796875,21.2109375 44.091796875,22.2216796875 44.033203125,23.14453125 43.857421875,24.6240234375 43.6962890625,25.6201171875 43.53515625,26.279296875 43.359375,26.806640625 43.125,27.158203125 42.890625,27.275390625 42.6123046875,27.1142578125 42.48046875,26.19140625 42.5390625,25.400390625 42.65625,24.609375 42.890625,21.9580078125 42.94921875,19.951171875 42.6416015625,16.6259765625 41.513671875,14.23828125 41.3232421875,15.0732421875 41.103515625,16.201171875 40.8544921875,17.5048828125 40.60546875,18.837890625 40.25390625,21.1083984375 40.13671875,22.646484375 40.693359375,25.48828125 41.16943359375,26.455078125 41.484375,26.8359375 41.68212890625,27.5537109375 41.748046875,29.58984375 42.0703125,31.875 41.89453125,32.40234375 41.66015625,32.5634765625 41.572265625,32.63671875 41.455078125,33.22265625 41.484375,33.486328125 41.630859375,34.86328125 41.1328125,35.33203125 38.0859375,35.33203125 37.705078125,34.62890625 39.08203125,32.8125 39.08203125,27.890625 38.7158203125,27.392578125 37.880859375,26.30859375 36.97265625,26.30859375 35.7421875,30.29296875 35.244140625,32.666015625 34.658203125,33.1640625 34.306640625,33.57421875 33.8671875,34.189453125 33.33984375,35.009765625 32.87109375,35.33203125 30.498046875,35.33203125 30.205078125,34.51171875 32.2998046875,31.2744140625 33.544921875,27.333984375 34.248046875,24.19921875 33.251953125,23.8623046875 32.2265625,23.759765625 29.23828125,24.2578125 27.7148418426514,24.66064453125 26.8359375,24.873046875 26.66015625,24.814453125 26.396484375,24.755859375 25.546875,23.90625 22.20703125,23.61328125 19.130859375,23.876953125 19.7900390625,27.4365234375 20.9765625,30.908203125 20.9326171875,31.171875 20.91796875,31.34765625 20.068359375,33.10546875 19.9365234375,33.69140625 19.8046875,34.21875 19.62890625,34.74609375 19.1015625,35.33203125 16.728515625,35.33203125 16.34765625,34.62890625 16.9921875,33.57421875 17.4609375,32.5341796875 17.783203125,31.376953125 17.6806640625,29.7216796875 17.373046875,28.447265625 16.494140625,26.044921875 16.025390625,24.4921875 13.9892578125,28.095703125 12.890625,32.16796875 12.568359375,32.490234375 11.3818359375,33.4716796875 11.044921875,34.86328125 10.546875,35.33203125 7.67578125,35.33203125 7.3828125,34.51171875 9.5654296875,31.435546875 11.1328125,28.095703125 12.0996084213257,25.0927734375 12.421875,23.115234375 12.1215810775757,21.4306640625 11.220703125,19.716796875 10.2392578125,18.2080078125 9.697265625,17.080078125 8.3935546875,16.1865234375 7.20703125,15.9375 6.32080078125,16.04736328125 5.009765625,16.376953125 3.74267578125,16.70654296875 3.046875,16.81640625 2.314453125,16.552734375 0.732421636581421,15.263671875 0.5859375,14.82421875 0.8642578125,13.5791015625 1.69921851158142,12.59765625 2.8125,11.572265625 3.83789110183716,10.1953125 4.40917921066284,9.4189453125 5.03906202316284,8.671875 5.66894578933716,8.0126953125 6.240234375,7.529296875 4.70214796066284,6.6357421875 3.779296875,5.2734375 2.98828125,3.662109375 1.90429663658142,2.3291015625 0,1.318359375 0.0585936307907104,0.9375 2.49023461341858,1.787109375 3.92578077316284,3.8671875 5.44921875,5.7568359375 7.822265625,6.38671875 9.609375,5.9033203125 10.6640625,4.39453125 11.162109375,3.134765625 11.953125,1.845703125 13.2568359375,0.703125 14.8828125,0z" />
    </g>
  </g>
</svg>