<?xml version="1.0" encoding="utf-8"?>
<!DOCTYPE svg PUBLIC "-//W3C//DTD SVG 1.1//EN" "http://www.w3.org/Graphics/SVG/1.1/DTD/svg11.dtd">
<svg width="103.623046875" height="54.84375" xmlns="http://www.w3.org/2000/svg" xmlns:xlink="http://www.w3.org/1999/xlink" xmlns:xml="http://www.w3.org/XML/1998/namespace" version="1.1">
  <g>
    <g>
      <path style="fill:#FF0000;fill-opacity:1" d="M10.869140625,18.046875L8.64257907867432,18.45703125 6.8701171875,19.6142578125 5.68359375,21.416015625 5.244140625,23.73046875 5.59570407867432,25.9716796875 6.65038967132568,27.8466796875 8.3935546875,29.1357421875 10.810546875,29.619140625 13.004150390625,29.219970703125 14.6630859375,28.0224609375 15.706787109375,26.143798828125 16.0546875,23.701171875 15.6884765625,21.474609375 14.6484375,19.6875 13.0224609375,18.486328125 10.869140625,18.046875z M72.12890625,0L75.098876953125,0.3955078125 77.6806640625,1.58203125 79.735107421875,3.4716796875 81.123046875,5.9765625 81.38671875,5.9765625 82.998046875,3.45703125 85.25390625,1.56738185882568 87.978515625,0.3955078125 90.99609375,0 93.8891525268555,0.289306640625 96.416015625,1.1572265625 98.5766525268555,2.6220703125 100.37109375,4.70214939117432 101.784660339355,7.408447265625 102.802734375,10.751953125 103.417961120605,14.7583026885986 103.623046875,19.453125 103.1103515625,25.7958984375 101.572265625,31.5380859375 99.0380859375,36.416015625 95.5517578125,40.1953125 91.1279296875,42.6416015625 88.575439453125,43.289794921875 85.810546875,43.505859375 82.96142578125,43.289794921875 80.44921875,42.6416015625 76.3916015625,40.25390625 73.59375,36.708984375 72.041015625,32.34375 76.81640625,32.34375 78.14208984375,35.32470703125 80.126953125,37.470703125 82.79296875,38.76708984375 86.162109375,39.19921875 88.985595703125,38.829345703125 91.4794921875,37.7197265625 93.6291427612305,35.958251953125 95.419921875,33.6328125 96.8408126831055,30.78369140625 97.880859375,27.451171875 98.5180587768555,23.72314453125 98.73046875,19.6875 98.6132736206055,15.8862323760986 98.26171875,12.685546875 97.6647872924805,10.0524911880493 96.8115234375,7.9541015625 95.7055587768555,6.3720703125 94.3505859375,5.28808498382568 92.735595703125,4.661865234375 90.849609375,4.453125 87.978515625,5.0244140625 85.693359375,6.76757717132568 84.1845703125,9.7265625 83.642578125,13.9453125 83.642578125,25.576171875 78.837890625,25.576171875 78.837890625,13.974609375 78.3251953125,9.6826171875 76.8896484375,6.70898532867432 74.6484375,4.99511814117432 71.71875,4.453125 68.609619140625,5.101318359375 66.3134765625,7.04589748382568 64.896240234375,10.1550302505493 64.423828125,14.296875 64.775390625,19.0869140625 66.123046875,25.3125 61.376953125,25.3125 59.970703125,19.2041015625 59.53125,14.00390625 59.7546348571777,10.8471689224243 60.4248046875,8.056640625 61.505126953125,5.654296875 62.958984375,3.66210842132568 64.771728515625,2.08740234375 66.9287109375,0.937500953674316 69.393310546875,0.23437511920929 72.12890625,0z M16.669921875,0L20.67626953125,0.435791015625 23.96484375,1.7431640625 26.5502910614014,3.856201171875 28.447265625,6.70898532867432 28.681640625,6.70898532867432 30.5712890625,3.85253810882568 33.193359375,1.75781154632568 36.3720703125,0.4541015625 39.9609375,0 43.00048828125,0.30761706829071 45.732421875,1.23046779632568 48.1164512634277,2.75390625 50.1123046875,4.86328125 51.7053184509277,7.55859375 52.880859375,10.83984375 53.6059532165527,14.6850605010986 53.84765625,19.072265625 53.535457611084,24.5489501953125 52.5988731384277,29.31884765625 51.037899017334,33.3819580078125 48.8525390625,36.73828125 46.0556030273438,39.3658447265625 42.659912109375,41.24267578125 38.6654663085938,42.3687744140625 34.072265625,42.744140625 10.8984365463257,42.744140625 8.3056640625,42.974853515625 6.50390720367432,43.6669921875 5.44921875,44.871826171875 5.09765625,46.640625 5.44921875,48.482666015625 6.50390720367432,49.6728515625 8.3056640625,50.321044921875 10.8984365463257,50.537109375 51.826171875,50.537109375 51.826171875,54.84375 11.2207040786743,54.84375 8.5675048828125,54.7210693359375 6.29150390625,54.35302734375 4.3927001953125,53.7396240234375 2.87109422683716,52.880859375 0.871581971645355,50.35400390625 0.205078601837158,46.69921875 0.922851383686066,43.048095703125 3.07617139816284,40.4736328125 6.5478515625,38.946533203125 11.2207040786743,38.4375 33.046875,38.4375 37.21435546875,38.111572265625 40.634765625,37.1337890625 43.38134765625,35.537109375 45.52734375,33.3544921875 47.1093711853027,30.611572265625 48.1640625,27.333984375 48.7573204040527,23.5546875 48.955078125,19.306640625 48.7866172790527,15.7287616729736 48.28125,12.6708984375 47.4682579040527,10.1147470474243 46.376953125,8.0419921875 45.02197265625,6.448974609375 43.41796875,5.33203029632568 41.59423828125,4.6728515625 39.580078125,4.453125 36.298828125,5.068359375 33.57421875,7.04589748382568 32.523193359375,8.61328125 31.7138671875,10.5908203125 31.197509765625,13.0114765167236 31.025390625,15.908203125 31.025390625,30.41015625 26.220703125,30.41015625 26.220703125,15.908203125 26.0302715301514,13.0114765167236 25.458984375,10.5908203125 24.5544414520264,8.61328125 23.3642578125,7.04589748382568 20.21484375,5.068359375 16.259765625,4.453125 13.79150390625,4.691162109375 11.54296875,5.4052734375 9.54711818695068,6.551513671875 7.83691501617432,8.0859375 5.390625,12.2314453125 4.72412061691284,14.7839374542236 4.482421875,17.607421875 4.68750047683716,17.607421875 6.046142578125,16.1389179229736 7.7783203125,15.0732421875 9.78149318695068,14.4250507354736 11.953125,14.208984375 13.948974609375,14.4067401885986 15.7177734375,15 18.515625,17.080078125 20.2587890625,20.0537109375 20.859375,23.525390625 20.657958984375,25.814208984375 20.0537109375,27.8173828125 17.8857421875,30.9375 14.7216796875,32.8564453125 10.95703125,33.515625 8.558349609375,33.27392578125 6.4013671875,32.548828125 4.51904249191284,31.343994140625 2.94433546066284,29.6630859375 1.688232421875,27.51708984375 0.76171875,24.9169921875 0.1904296875,21.873779296875 0,18.3984375 0.274658203125,14.8205585479736 1.0986328125,11.4111328125 2.457275390625,8.28369140625 4.3359375,5.5517578125 6.712646484375,3.27392578125 9.56542873382568,1.50879001617432 12.886962890625,0.37719738483429 16.669921875,0z" />
    </g>
  </g>
</svg>