<?xml version="1.0" encoding="utf-8"?>
<!DOCTYPE svg PUBLIC "-//W3C//DTD SVG 1.1//EN" "http://www.w3.org/Graphics/SVG/1.1/DTD/svg11.dtd">
<svg width="89.501953125" height="54.84375" xmlns="http://www.w3.org/2000/svg" xmlns:xlink="http://www.w3.org/1999/xlink" xmlns:xml="http://www.w3.org/XML/1998/namespace" version="1.1">
  <g>
    <g>
      <path style="fill:#FF0000;fill-opacity:1" d="M10.869140625,18.046875L8.642578125,18.45703125 6.8701171875,19.6142578125 5.68359470367432,21.416015625 5.244140625,23.73046875 5.595703125,25.9716796875 6.650390625,27.8466796875 8.39355373382568,29.1357421875 10.810546875,29.619140625 13.004150390625,29.219970703125 14.6630859375,28.0224609375 15.706787109375,26.143798828125 16.0546875,23.701171875 15.6884765625,21.474609375 14.6484375,19.6875 13.0224609375,18.486328125 10.869140625,18.046875z M58.0078125,0L60.977783203125,0.3955078125 63.5595703125,1.58203125 65.614013671875,3.4716796875 67.001953125,5.9765625 67.265625,5.9765625 68.876953125,3.45703125 71.1328125,1.5673828125 73.857421875,0.395506858825684 76.875,0 79.76806640625,0.289306640625 82.294921875,1.1572265625 84.45556640625,2.6220703125 86.25,4.7021484375 87.66357421875,7.408447265625 88.681640625,10.751953125 89.296875,14.7583026885986 89.501953125,19.453125 88.9892578125,25.7958984375 87.451171875,31.5380859375 84.9169921875,36.416015625 81.4306640625,40.1953125 77.0068359375,42.6416015625 74.454345703125,43.289794921875 71.689453125,43.505859375 68.84033203125,43.289794921875 66.328125,42.6416015625 62.2705078125,40.25390625 59.47265625,36.708984375 57.919921875,32.34375 62.6953125,32.34375 64.02099609375,35.32470703125 66.005859375,37.470703125 68.671875,38.76708984375 72.041015625,39.19921875 74.864501953125,38.829345703125 77.3583984375,37.7197265625 79.508056640625,35.958251953125 81.298828125,33.6328125 82.7197265625,30.78369140625 83.759765625,27.451171875 84.39697265625,23.72314453125 84.609375,19.6875 84.4921875,15.8862323760986 84.140625,12.685546875 83.543701171875,10.0524911880493 82.6904296875,7.9541015625 81.58447265625,6.3720703125 80.2294921875,5.2880859375 78.614501953125,4.661865234375 76.728515625,4.45312404632568 73.857421875,5.0244140625 71.572265625,6.767578125 70.0634765625,9.7265625 69.521484375,13.9453125 69.521484375,25.576171875 64.716796875,25.576171875 64.716796875,13.974609375 64.2041015625,9.6826171875 62.7685546875,6.708984375 60.52734375,4.9951171875 57.59765625,4.45312404632568 54.4885215759277,5.101318359375 52.1923828125,7.04589939117432 50.7751426696777,10.1550302505493 50.302734375,14.296875 50.654296875,19.0869140625 52.001953125,25.3125 47.255859375,25.3125 45.849609375,19.2041015625 45.41015625,14.00390625 45.6335411071777,10.8471689224243 46.3037109375,8.056640625 47.3840293884277,5.654296875 48.837890625,3.662109375 50.6506309509277,2.08740234375 52.8076171875,0.9375 55.2722129821777,0.234375 58.0078125,0z M20.185546875,0L24.4079570770264,0.37719714641571 28.2275390625,1.50878810882568 31.578369140625,3.328857421875 34.39453125,5.771484375 36.654052734375,8.8037109375 38.3349609375,12.392578125 39.378662109375,16.4721698760986 39.7265625,20.9765625 39.404296875,26.107177734375 38.4375,30.5419921875 36.866455078125,34.28466796875 34.7314453125,37.3388671875 32.05078125,39.708251953125 28.8427734375,41.396484375 25.1403789520264,42.4072265625 20.9765625,42.744140625 10.7226572036743,42.744140625 8.1884765625,42.9638671875 6.4453125,43.623046875 5.4345703125,44.81689453125 5.09765672683716,46.640625 5.416259765625,48.482666015625 6.3720703125,49.6728515625 8.031005859375,50.321044921875 10.4589834213257,50.537109375 37.587890625,50.537109375 37.587890625,54.84375 10.78125,54.84375 8.173828125,54.722900390625 5.97656345367432,54.3603515625 2.69531202316284,52.880859375 0.805664539337158,50.361328125 0.205077886581421,46.728515625 0.9521484375,43.06640625 3.09081983566284,40.4736328125 6.4892578125,38.935546875 11.0156240463257,38.4375 20.2734375,38.4375 23.6791973114014,38.184814453125 26.630859375,37.4267578125 29.132080078125,36.1376953125 31.1865234375,34.2919921875 32.786865234375,31.88232421875 33.92578125,28.9013671875 34.60693359375,25.330810546875 34.833984375,21.15234375 34.5556640625,17.3876972198486 33.720703125,14.0625 32.39501953125,11.1987314224243 30.64453125,8.818359375 28.4912109375,6.93603515625 25.95703125,5.56640529632568 23.1152324676514,4.7314453125 20.0390625,4.45312404632568 16.658935546875,4.69482421875 13.6669921875,5.419921875 11.0742177963257,6.580810546875 8.89160251617432,8.1298828125 7.130126953125,10.04150390625 5.80078125,12.2900390625 4.91455030441284,14.8278827667236 4.482421875,17.607421875 4.68749952316284,17.607421875 6.046142578125,16.1389179229736 7.77832126617432,15.0732421875 9.78149318695068,14.4250507354736 11.953125,14.208984375 13.948974609375,14.4067401885986 15.7177734375,15 18.515625,17.080078125 20.2587890625,20.0537109375 20.859375,23.525390625 20.657958984375,25.814208984375 20.0537109375,27.8173828125 17.8857421875,30.9375 14.7216796875,32.8564453125 10.95703125,33.515625 8.558349609375,33.277587890625 6.40136814117432,32.5634765625 4.51904296875,31.395263671875 2.9443359375,29.794921875 1.688232421875,27.777099609375 0.761718511581421,25.3564453125 0.190429657697678,22.554931640625 0,19.39453125 0.362548768520355,15.1135272979736 1.45019483566284,11.2939453125 3.20068359375,7.97607421875 5.55175876617432,5.2001953125 8.470458984375,2.984619140625 11.923828125,1.34765720367432 15.849609375,0.33691418170929 20.185546875,0z" />
    </g>
  </g>
</svg>