<?xml version="1.0" encoding="utf-8"?>
<!DOCTYPE svg PUBLIC "-//W3C//DTD SVG 1.1//EN" "http://www.w3.org/Graphics/SVG/1.1/DTD/svg11.dtd">
<svg width="74.736328125" height="43.505859375" xmlns="http://www.w3.org/2000/svg" xmlns:xlink="http://www.w3.org/1999/xlink" xmlns:xml="http://www.w3.org/XML/1998/namespace" version="1.1">
  <g>
    <g>
      <path style="fill:#FF0000;fill-opacity:1" d="M69.931640625,12.24609375L65.888671875,16.8310546875 61.0546875,20.6103515625 55.7080078125,23.3935546875 50.15625,24.990234375 50.15625,38.4375 69.931640625,38.4375 69.931640625,12.24609375z M39.66796875,4.541015625L37.3828125,4.9658203125 35.537109375,6.240234375 34.306640625,8.3349609375 33.8671875,11.220703125 34.482421875,14.6044921875 35.2880859375,16.1828632354736 36.474609375,17.607421875 38.052978515625,18.837890625 40.0341796875,19.833984375 42.454833984375,20.54443359375 45.3515625,20.91796875 45.3515625,14.82421875 45.3369140625,12.8173828125 45.263671875,11.19140625 44.82421875,8.5693359375 43.8134765625,6.4599609375 42.12890625,5.05370998382568 39.66796875,4.541015625z M39.7265625,0L44.117431640625,0.65917956829071 47.2705078125,2.63671779632568 49.2370567321777,5.85205078125 50.068359375,10.224609375 50.15625,13.916015625 50.15625,20.654296875 53.2324180603027,19.852294921875 56.30859375,18.5009765625 59.3188438415527,16.6406269073486 62.197265625,14.3115234375 64.903564453125,11.5319833755493 67.3974609375,8.3203125 71.513671875,0.76171875 74.736328125,0.76171875 74.736328125,42.744140625 19.365234375,42.744140625 19.365234375,39.9609375 21.1926250457764,37.767333984375 22.4560546875,35.3466796875 23.1921367645264,32.713623046875 23.4375,29.8828125 22.763671875,26.1328125 20.8740234375,23.2177734375 17.9736328125,21.328125 14.296875,20.654296875 10.517578125,21.3427734375 7.5439453125,23.3056640625 5.595703125,26.3818359375 4.892578125,30.439453125 5.189208984375,33.46435546875 6.0791015625,36.26953125 7.554931640625,38.95751953125 9.609375,41.630859375 5.18554735183716,43.505859375 2.87109375,40.2978515625 1.259765625,37.060546875 0.31494140625,33.69873046875 0,30.1171875 0.274658173322678,27.1875 1.09863257408142,24.4921875 2.40966796875,22.093505859375 4.14550733566284,20.0537109375 6.280517578125,18.3984394073486 8.78906345367432,17.1533203125 11.6088857650757,16.3732929229736 14.677734375,16.11328125 17.40966796875,16.3623065948486 19.98046875,17.109375 22.3095684051514,18.2959003448486 24.31640625,19.86328125 25.9716777801514,21.78955078125 27.24609375,24.052734375 28.0590801239014,26.59423828125 28.330078125,29.35546875 27.65625,34.3212890625 25.634765625,38.4375 45.3515625,38.4375 45.3515625,25.3125 41.21337890625,24.913330078125 37.763671875,23.9501953125 34.94384765625,22.52197265625 32.6953125,20.7275390625 31.00341796875,18.61083984375 29.853515625,16.2158203125 29.1943359375,13.6413593292236 28.974609375,10.986328125 29.183349609375,8.631591796875 29.8095703125,6.4892578125 32.0947265625,3.017578125 35.5078125,0.791015625 37.5439453125,0.19775390625 39.7265625,0z" />
    </g>
  </g>
</svg>