<?xml version="1.0" encoding="utf-8"?>
<!DOCTYPE svg PUBLIC "-//W3C//DTD SVG 1.1//EN" "http://www.w3.org/Graphics/SVG/1.1/DTD/svg11.dtd">
<svg width="51.533203125" height="43.505859375" xmlns="http://www.w3.org/2000/svg" xmlns:xlink="http://www.w3.org/1999/xlink" xmlns:xml="http://www.w3.org/XML/1998/namespace" version="1.1">
  <g>
    <g>
      <path style="fill:#FF0000;fill-opacity:1" d="M7.265625,0L11.806640625,1.611328125 8.5986328125,7.1337890625 6.4599609375,12.5390625 5.2587890625,17.783203125 4.892578125,22.8515625 5.04638671875,26.50634765625 5.5078125,29.736328125 6.2841796875,32.515869140625 7.3828125,34.8193359375 8.8037109375,36.6357421875 10.546875,37.9541015625 12.6123046875,38.756103515625 15,39.0234375 16.893310546875,38.818359375 18.4716796875,38.203125 20.8154296875,35.8447265625 22.2216796875,32.0947265625 22.880859375,27.0703125 23.0126953125,25.0341796875 23.14453125,22.7490234375 23.26171875,20.4345703125 23.37890625,18.310546875 23.8037090301514,13.7512226104736 24.66796875,9.9169921875 25.9350566864014,6.76025390625 27.568359375,4.2333984375 29.5458984375,2.32177734375 31.845703125,1.0107421875 34.4384765625,0.252685546875 37.294921875,0 40.506591796875,0.318603515625 43.3447265625,1.2744140625 45.7873497009277,2.86376953125 47.8125,5.0830078125 49.4128379821777,7.9248046875 50.5810546875,11.3818359375 51.2951622009277,15.4577655792236 51.533203125,20.15625 51.064453125,26.015625 49.6728515625,32.0361328125 47.3876953125,37.9541015625 44.267578125,43.505859375 39.7265625,41.89453125 42.8173828125,36.50390625 44.970703125,31.0107421875 46.23046875,25.6201171875 46.640625,20.5078125 46.4987144470215,16.8173236846924 46.0729942321777,13.5974140167236 45.3634605407715,10.8480844497681 44.3701171875,8.5693359375 43.0783081054688,6.78131103515625 41.473388671875,5.504150390625 39.5553588867188,4.73785400390625 37.32421875,4.482421875 35.13427734375,4.72412109375 33.310546875,5.44921875 31.82373046875,6.62841796875 30.64453125,8.232421875 29.739990234375,10.2502450942993 29.0771484375,12.6708984375 28.359375,18.57421875 28.095703125,22.9541015625 27.802734375,27.65625 26.6455078125,34.2919921875 25.5834941864014,37.00927734375 24.1845703125,39.2724609375 22.4414043426514,41.07421875 20.3466796875,42.4072265625 17.896728515625,43.231201171875 15.087890625,43.505859375 11.6857900619507,43.187255859375 8.6865234375,42.2314453125 6.104736328125,40.631103515625 3.95507764816284,38.37890625 2.252197265625,35.482177734375 1.0107421875,31.9482421875 0.252685546875,27.762451171875 0,22.91015625 0.468749761581421,17.2705078125 1.8603515625,11.30859375 4.14550733566284,5.4345703125 7.265625,0z" />
    </g>
  </g>
</svg>