<?xml version="1.0" encoding="utf-8"?>
<!DOCTYPE svg PUBLIC "-//W3C//DTD SVG 1.1//EN" "http://www.w3.org/Graphics/SVG/1.1/DTD/svg11.dtd">
<svg width="66.26953125" height="43.505859375" xmlns="http://www.w3.org/2000/svg" xmlns:xlink="http://www.w3.org/1999/xlink" xmlns:xml="http://www.w3.org/XML/1998/namespace" version="1.1">
  <g>
    <g>
      <path style="fill:#FF0000;fill-opacity:1" d="M13.623046875,24.31640625L10.751953125,24.9169921875 8.466796875,26.54296875 6.9580078125,28.9453125 6.416015625,31.904296875 6.9580078125,35.1123046875 8.4375,37.529296875 10.634765625,39.0673828125 13.359375,39.609375 16.0693359375,39.111328125 18.22265625,37.6318359375 19.6435546875,35.185546875 20.15625,31.81640625 19.716796875,28.916015625 18.4423828125,26.5283203125 16.3916015625,24.9169921875 13.623046875,24.31640625z M59.12109375,12.36328125L54.1259765625,14.6923828125 49.9951171875,18.4130859375 47.197265625,23.349609375 46.4282188415527,26.220703125 46.171875,29.326171875 46.5747032165527,33.526611328125 47.783203125,36.5771484375 49.7314414978027,38.433837890625 52.353515625,39.052734375 54.3090782165527,38.770751953125 56.07421875,37.9248046875 57.6232872009277,36.5771484375 58.9306640625,34.7900390625 60.7470703125,30.029296875 61.376953125,24.0234375 60.8349609375,17.8271484375 59.12109375,12.36328125z M19.599609375,0L23.96484375,0.5712890625 27.71484375,2.197265625 30.6884765625,4.7607421875 32.6953125,8.115234375 32.9296875,8.115234375 35.3466796875,4.7314453125 38.6572265625,2.16796875 42.7294921875,0.556640625 47.40234375,0 51.3647422790527,0.4248046875 54.990234375,1.69921875 58.2092247009277,3.75 60.9521484375,6.50390625 63.182373046875,9.93164157867432 64.86328125,14.00390625 65.91796875,18.6474628448486 66.26953125,23.7890625 65.859375,28.623046875 64.6435546875,33.22265625 62.6513671875,37.294921875 59.8974609375,40.546875 56.4111328125,42.71484375 54.4006309509277,43.30810546875 52.20703125,43.505859375 49.7204551696777,43.24951171875 47.5341796875,42.48046875 45.6591758728027,41.25 44.1064453125,39.609375 41.9970703125,35.21484375 41.279296875,29.619140625 41.572265625,25.989990234375 42.451171875,22.5439453125 43.846435546875,19.339599609375 45.6884765625,16.435546875 47.9443321228027,13.8684101104736 50.5810546875,11.6748046875 53.5363731384277,9.913330078125 56.748046875,8.642578125 54.8583946228027,6.9140625 52.646484375,5.595703125 50.0830039978027,4.7607421875 47.138671875,4.482421875 44.674072265625,4.683837890625 42.3779296875,5.2880859375 40.3125,6.3134765625 38.5400390625,7.7783203125 37.08984375,9.700927734375 35.9912109375,12.099609375 35.299072265625,15.0000019073486 35.068359375,18.427734375 35.068359375,42.744140625 30.263671875,42.744140625 30.263671875,18.427734375 30.069580078125,15.0000019073486 29.4873046875,12.099609375 28.5498027801514,9.700927734375 27.2900390625,7.7783203125 25.7263164520264,6.3134765625 23.876953125,5.2880859375 21.7822246551514,4.683837890625 19.482421875,4.482421875 16.40625,4.833984375 13.564453125,5.888671875 11.0266103744507,7.58056640625 8.8623046875,9.84375 7.09716796875,12.6489276885986 5.7568359375,15.966796875 4.91088819503784,19.7314453125 4.62890577316284,23.876953125 4.65820264816284,25.078125 4.775390625,26.513671875 4.98046922683716,26.513671875 6.38671875,23.994140625 8.4814453125,22.0458984375 11.2353515625,20.7861328125 14.619140625,20.33203125 16.669921875,20.526123046875 18.603515625,21.1083984375 21.884765625,23.3349609375 24.111328125,26.8359375 24.7265605926514,29.01123046875 24.931640625,31.435546875 24.7302227020264,33.900146484375 24.1259765625,36.1962890625 21.826171875,40.0341796875 18.2080078125,42.5830078125 15.948486328125,43.275146484375 13.41796875,43.505859375 10.1916494369507,43.114013671875 7.4267578125,41.9384765625 5.115966796875,40.081787109375 3.25195360183716,37.646484375 1.820068359375,34.6728515625 0.805663824081421,31.201171875 0.201415985822678,27.333984375 0,23.173828125 0.369873106479645,18.1018085479736 1.47949266433716,13.5498046875 3.240966796875,9.580078125 5.56640625,6.2548828125 8.4228515625,3.59619140625 11.77734375,1.6259765625 15.53466796875,0.406494140625 19.599609375,0z" />
    </g>
  </g>
</svg>