<?xml version="1.0" encoding="utf-8"?>
<!DOCTYPE svg PUBLIC "-//W3C//DTD SVG 1.1//EN" "http://www.w3.org/Graphics/SVG/1.1/DTD/svg11.dtd">
<svg width="51.73828125" height="42.744140625" xmlns="http://www.w3.org/2000/svg" xmlns:xlink="http://www.w3.org/1999/xlink" xmlns:xml="http://www.w3.org/XML/1998/namespace" version="1.1">
  <g>
    <g>
      <path style="fill:#FF0000;fill-opacity:1" d="M46.93359375,0L51.73828125,0 51.73828125,41.982421875 19.365234375,41.982421875 19.365234375,39.228515625 21.181640625,37.0166015625 22.4560546875,34.5849609375 23.2177734375,32.0947265625 23.466796875,29.70703125 22.7783203125,25.693359375 20.8740234375,22.5732421875 17.9736328125,20.5517578125 14.296875,19.833984375 10.517578125,20.56640625 7.5439453125,22.6171875 5.595703125,25.78125 4.892578125,29.853515625 5.152587890625,32.801513671875 5.9326171875,35.6103515625 7.298583984375,38.338623046875 9.31640625,41.044921875 4.921875,42.744140625 2.640380859375,39.54345703125 1.12792992591858,36.328125 0.281982451677322,33.02490234375 0,29.560546875 0.27099609375,26.649169921875 1.083984375,23.9501953125 2.38037109375,21.529541015625 4.10156202316284,19.453125 6.21826171875,17.7502460479736 8.701171875,16.4501953125 11.4916982650757,15.6262226104736 14.53125,15.3515625 17.222900390625,15.6005878448486 19.7900390625,16.34765625 22.1447734832764,17.5524921417236 24.19921875,19.1748046875 25.9094219207764,21.192626953125 27.2314453125,23.583984375 28.0773906707764,26.30126953125 28.359375,29.296875 28.18359375,31.4208984375 27.6708984375,33.6181640625 26.8212890625,35.7568359375 25.634765625,37.67578125 46.93359375,37.67578125 46.93359375,0z" />
    </g>
  </g>
</svg>