<?xml version="1.0" encoding="utf-8"?>
<!DOCTYPE svg PUBLIC "-//W3C//DTD SVG 1.1//EN" "http://www.w3.org/Graphics/SVG/1.1/DTD/svg11.dtd">
<svg width="86.748046875" height="43.65234375" xmlns="http://www.w3.org/2000/svg" xmlns:xlink="http://www.w3.org/1999/xlink" xmlns:xml="http://www.w3.org/XML/1998/namespace" version="1.1">
  <g>
    <g>
      <path style="fill:#FF0000;fill-opacity:1" d="M13.623046875,24.31640625L10.751953125,24.9169921875 8.466796875,26.54296875 6.9580078125,28.9453125 6.416015625,31.904296875 6.9580078125,35.1123046875 8.4375,37.529296875 10.634765625,39.0673828125 13.359375,39.609375 16.0693359375,39.111328125 18.22265625,37.6318359375 19.6435546875,35.185546875 20.15625,31.81640625 19.716796875,28.916015625 18.4423828125,26.5283203125 16.3916015625,24.9169921875 13.623046875,24.31640625z M57.24609375,7.529296875L53.6572265625,11.3232421875 51.1083984375,15.9521484375 49.5849609375,20.9326171875 49.072265625,25.751953125 49.62890625,31.376953125 50.2990684509277,33.6474609375 51.1962890625,35.537109375 52.3168907165527,37.034912109375 53.6572265625,38.1298828125 55.1916465759277,38.800048828125 56.89453125,39.0234375 58.5974082946777,38.807373046875 60.1318359375,38.1591796875 61.475830078125,37.093505859375 62.607421875,35.625 63.511962890625,33.75 64.1748046875,31.46484375 64.581298828125,28.7841796875 64.716796875,25.72265625 64.2919921875,20.91796875 62.9736328125,15.9521484375 60.6591796875,11.3232421875 57.24609375,7.529296875z M19.599609375,0L24.1369609832764,0.5419921875 27.9052734375,2.16796875 30.853271484375,4.73876953125 32.9296875,8.115234375 33.28125,8.115234375 35.595703125,4.8486328125 38.994140625,2.28515625 43.2568359375,0.6005859375 48.134765625,0 53.1298828125,0.6298828125 57.509765625,2.37304782867432 61.9189453125,0.6298828125 66.73828125,0 71.2060546875,0.413818359375 75.17578125,1.6552734375 78.607177734375,3.6328125 81.4599609375,6.25488376617432 83.72314453125,9.466552734375 85.3857421875,13.212890625 86.407470703125,17.4023456573486 86.748046875,21.943359375 86.220703125,28.026123046875 84.638671875,33.6181640625 82.119140625,38.800048828125 78.779296875,43.65234375 74.58984375,41.337890625 78.0322265625,36.4013671875 80.2734375,31.7431640625 81.4892578125,27.1142578125 81.85546875,22.265625 81.5771484375,18.3178730010986 80.7421875,14.794921875 79.398193359375,11.7333993911743 77.5927734375,9.169921875 75.3515625,7.12646484375 72.7001953125,5.625 69.693603515625,4.7021484375 66.38671875,4.39453125 63.80859375,4.60693359375 61.40625,5.244140625 64.921875,9.43359375 67.4853515625,14.4140625 69.0673828125,19.892578125 69.609375,25.576171875 69.385986328125,29.52392578125 68.7158203125,33.046875 67.628173828125,36.112060546875 66.15234375,38.6865234375 64.31396484375,40.74462890625 62.138671875,42.2607421875 59.6557579040527,43.194580078125 56.89453125,43.505859375 54.1552696228027,43.194580078125 51.6796875,42.2607421875 49.5043907165527,40.748291015625 47.666015625,38.701171875 46.1865196228027,36.134033203125 45.087890625,33.0615234375 44.40673828125,29.534912109375 44.1796875,25.60546875 44.8095703125,19.9365234375 46.6259765625,14.47265625 49.51171875,9.4921875 53.3203125,5.302734375 50.8154296875,4.62890625 48.017578125,4.39453125 45.3369102478027,4.610595703125 42.861328125,5.2587890625 40.6494140625,6.353759765625 38.759765625,7.91015625 37.218017578125,9.927978515625 36.0498046875,12.4072265625 35.313720703125,15.3698749542236 35.068359375,18.837890625 35.068359375,42.744140625 30.263671875,42.744140625 30.263671875,18.427734375 30.069580078125,14.8608417510986 29.4873046875,11.89453125 28.5498027801514,9.48486328125 27.2900390625,7.587890625 25.7263164520264,6.17431640625 23.876953125,5.21484279632568 19.482421875,4.482421875 16.40625,4.833984375 13.564453125,5.88867092132568 11.0266103744507,7.58056640625 8.8623046875,9.84375 7.09716796875,12.6489276885986 5.75683498382568,15.966796875 4.91088819503784,19.7314453125 4.62890672683716,23.876953125 4.65820360183716,25.078125 4.775390625,26.513671875 4.98046922683716,26.513671875 6.38671875,23.994140625 8.4814453125,22.0458984375 11.2353506088257,20.7861328125 14.619140625,20.33203125 16.669921875,20.526123046875 18.603515625,21.1083984375 21.884765625,23.3349609375 24.111328125,26.8359375 24.7265605926514,29.01123046875 24.931640625,31.435546875 24.7302227020264,33.900146484375 24.1259765625,36.1962890625 21.826171875,40.0341796875 18.2080078125,42.5830078125 15.948486328125,43.275146484375 13.41796875,43.505859375 10.1916494369507,43.114013671875 7.4267578125,41.9384765625 5.115966796875,40.081787109375 3.25195264816284,37.646484375 1.820068359375,34.6728515625 0.8056640625,31.201171875 0.201416015625,27.333984375 0,23.173828125 0.369873046875,18.1018085479736 1.4794921875,13.5498046875 3.240966796875,9.580078125 5.56640625,6.25488376617432 8.4228515625,3.59619140625 11.77734375,1.6259765625 15.53466796875,0.406494140625 19.599609375,0z" />
    </g>
  </g>
</svg>