<?xml version="1.0" encoding="utf-8"?>
<!DOCTYPE svg PUBLIC "-//W3C//DTD SVG 1.1//EN" "http://www.w3.org/Graphics/SVG/1.1/DTD/svg11.dtd">
<svg width="38.61328125" height="54.84375" xmlns="http://www.w3.org/2000/svg" xmlns:xlink="http://www.w3.org/1999/xlink" xmlns:xml="http://www.w3.org/XML/1998/namespace" version="1.1">
  <g>
    <g>
      <path style="fill:#FF0000;fill-opacity:1" d="M30.087890625,0L32.607421875,0.27099609375 34.833984375,1.083984375 36.81884765625,2.40966796875 38.61328125,4.21875 35.56640625,7.265625 34.259033203125,5.906982421875 32.9150390625,4.9365234375 31.490478515625,4.354248046875 29.94140625,4.16015625 27.6269512176514,4.581298828125 25.78125,5.8447265625 24.4555644989014,8.052978515625 23.701171875,11.30859375 19.541015625,43.88671875 18.3251953125,48.5302734375 16.025390625,51.97265625 12.7294921875,54.111328125 8.525390625,54.84375 6.005859375,54.57275390625 3.77929663658142,53.759765625 1.79443359375,52.43408203125 0,50.625 2.87109398841858,47.40234375 5.6689453125,49.833984375 7.115478515625,50.47119140625 8.671875,50.68359375 10.9826650619507,50.262451171875 12.8173828125,48.9990234375 14.139404296875,46.790771484375 14.912109375,43.53515625 19.072265625,10.95703125 20.2880859375,6.3134765625 22.587890625,2.87109375 25.8837890625,0.732421875 30.087890625,0z" />
    </g>
  </g>
</svg>