<?xml version="1.0" encoding="utf-8"?>
<!DOCTYPE svg PUBLIC "-//W3C//DTD SVG 1.1//EN" "http://www.w3.org/Graphics/SVG/1.1/DTD/svg11.dtd">
<svg width="41.66015625" height="43.505859375" xmlns="http://www.w3.org/2000/svg" xmlns:xlink="http://www.w3.org/1999/xlink" xmlns:xml="http://www.w3.org/XML/1998/namespace" version="1.1">
  <g>
    <g>
      <path style="fill:#FF0000;fill-opacity:1" d="M20.830078125,4.482421875L17.391357421875,4.79736328125 14.2822265625,5.7421875 11.5539541244507,7.254638671875 9.2578125,9.2724609375 7.412109375,11.7700214385986 6.03515625,14.7216796875 5.17822265625,18.0651874542236 4.892578125,21.73828125 5.17822265625,25.411376953125 6.03515625,28.7548828125 7.412109375,31.710205078125 9.2578125,34.21875 11.5539541244507,36.24755859375 14.2822265625,37.763671875 17.391357421875,38.70849609375 20.830078125,39.0234375 24.2687969207764,38.70849609375 27.3779296875,37.763671875 30.106201171875,36.24755859375 32.40234375,34.21875 34.248046875,31.710205078125 35.625,28.7548828125 36.48193359375,25.411376953125 36.767578125,21.73828125 36.48193359375,18.0651874542236 35.625,14.7216796875 34.248046875,11.7700214385986 32.40234375,9.2724609375 30.106201171875,7.254638671875 27.3779296875,5.7421875 24.2687969207764,4.79736328125 20.830078125,4.482421875z M20.830078125,0L25.0561504364014,0.384521484375 29.00390625,1.5380859375 32.5634765625,3.402099609375 35.625,5.91796875 38.13720703125,9.052734375 40.048828125,12.7734375 41.25732421875,17.0214862823486 41.66015625,21.73828125 41.25732421875,26.455078125 40.048828125,30.703125 38.13720703125,34.423828125 35.625,37.55859375 32.5634765625,40.078125 29.00390625,41.953125 25.0561504364014,43.11767578125 20.830078125,43.505859375 16.60400390625,43.11767578125 12.65625,41.953125 9.0966796875,40.078125 6.03515625,37.55859375 3.52294921875,34.423828125 1.61132836341858,30.703125 0.402832239866257,26.455078125 0,21.73828125 0.402832239866257,17.0214862823486 1.61132836341858,12.7734375 3.52294921875,9.052734375 6.03515625,5.91796875 9.0966796875,3.402099609375 12.65625,1.5380859375 16.60400390625,0.384521484375 20.830078125,0z" />
    </g>
  </g>
</svg>