<?xml version="1.0" encoding="utf-8"?>
<!DOCTYPE svg PUBLIC "-//W3C//DTD SVG 1.1//EN" "http://www.w3.org/Graphics/SVG/1.1/DTD/svg11.dtd">
<svg width="59.58984375" height="43.505859375" xmlns="http://www.w3.org/2000/svg" xmlns:xlink="http://www.w3.org/1999/xlink" xmlns:xml="http://www.w3.org/XML/1998/namespace" version="1.1">
  <g>
    <g>
      <path style="fill:#FF0000;fill-opacity:1" d="M13.740234375,24.31640625L10.8984375,24.9169921875 8.61328125,26.54296875 7.08984375,28.9453125 6.533203125,31.904296875 7.0458984375,34.98046875 8.5107421875,37.412109375 10.78125,39.0234375 13.7109375,39.609375 16.318359375,39.111328125 18.3984375,37.6318359375 19.775390625,35.21484375 20.2734375,31.875 19.833984375,28.828125 18.5595703125,26.4404296875 16.5087890625,24.873046875 13.740234375,24.31640625z M22.236328125,0L27.4658203125,0.615234375 32.2119140625,2.4462890625 36.2548828125,5.4345703125 39.3896484375,9.5361328125 41.4111328125,14.70703125 42.12890625,20.888671875 41.78466796875,25.61279296875 40.751953125,30.1171875 39.0380859375,34.39453125 36.650390625,38.4375 54.78515625,38.4375 54.78515625,0.849609375 59.58984375,0.849609375 59.58984375,42.744140625 30.380859375,42.744140625 30.380859375,39.90234375 33.5595703125,35.4345703125 35.68359375,30.908203125 36.8701171875,26.2646484375 37.236328125,21.416015625 36.97265625,17.8710956573486 36.181640625,14.619140625 34.892578125,11.7260761260986 33.134765625,9.2578125 30.9228515625,7.2509765625 28.271484375,5.7421875 25.2172832489014,4.79736328125 21.796875,4.482421875 18.33251953125,4.833984375 15.087890625,5.888671875 12.1545400619507,7.58056640625 9.6240234375,9.84375 7.5439453125,12.6489276885986 5.9619140625,15.966796875 4.962158203125,19.7314453125 4.62890672683716,23.876953125 4.658203125,25.0927734375 4.77539014816284,26.513671875 4.98046875,26.513671875 6.52587890625,23.946533203125 8.642578125,21.9873046875 11.3671865463257,20.745849609375 14.736328125,20.33203125 16.787109375,20.526123046875 18.720703125,21.1083984375 22.001953125,23.3349609375 24.228515625,26.8359375 24.8437480926514,29.01123046875 25.048828125,31.435546875 24.8474102020264,33.900146484375 24.2431640625,36.1962890625 21.97265625,40.0341796875 18.4130859375,42.5830078125 16.197509765625,43.275146484375 13.740234375,43.505859375 10.5029287338257,43.114013671875 7.705078125,41.9384765625 5.343017578125,40.10009765625 3.41308641433716,37.7197265625 1.91528332233429,34.8486328125 0.849609613418579,31.5380859375 0.212402373552322,27.908935546875 0,24.08203125 0.428466796875,18.7023944854736 1.7138671875,13.9306640625 3.74999952316284,9.80346775054932 6.4306640625,6.357421875 9.69726467132568,3.621826171875 13.4912109375,1.6259765625 17.706298828125,0.406494140625 22.236328125,0z" />
    </g>
  </g>
</svg>