<?xml version="1.0" encoding="utf-8"?>
<!DOCTYPE svg PUBLIC "-//W3C//DTD SVG 1.1//EN" "http://www.w3.org/Graphics/SVG/1.1/DTD/svg11.dtd">
<svg width="84.19921875" height="43.505859375" xmlns="http://www.w3.org/2000/svg" xmlns:xlink="http://www.w3.org/1999/xlink" xmlns:xml="http://www.w3.org/XML/1998/namespace" version="1.1">
  <g>
    <g>
      <path style="fill:#FF0000;fill-opacity:1" d="M13.623046875,24.31640625L10.751953125,24.9169921875 8.466796875,26.54296875 6.9580078125,28.9453125 6.41601467132568,31.904296875 6.9580078125,35.1123046875 8.43750095367432,37.529296875 10.634765625,39.0673828125 13.359375,39.609375 16.0693359375,39.111328125 18.22265625,37.6318359375 19.6435546875,35.185546875 20.15625,31.81640625 19.716796875,28.916015625 18.4423828125,26.5283203125 16.3916015625,24.9169921875 13.623046875,24.31640625z M19.599609375,0L24.1040019989014,0.5419921875 27.7734375,2.16796875 30.62255859375,4.73876953125 32.666015625,8.115234375 32.958984375,8.115234375 34.8046875,4.7314453125 37.5146484375,2.16796875 40.927734375,0.556640625 44.8828125,0 48.8671875,0.556640625 52.177734375,2.16796875 54.7119140625,4.7314453125 56.42578125,8.115234375 56.6015625,8.115234375 58.4912109375,4.7314453125 61.3330078125,2.16796875 64.8193359375,0.556640625 68.642578125,0 72.4951171875,0.498046875 76.142578125,2.06543064117432 79.3505859375,4.8193359375 81.8994140625,8.8916015625 83.583984375,14.384765625 84.04541015625,17.6879901885986 84.19921875,21.38671875 83.7158203125,27.0556640625 82.294921875,32.900390625 80.009765625,38.5107421875 76.93359375,43.505859375 72.392578125,41.89453125 75.52734375,36.943359375 77.6806640625,31.6845703125 78.9111328125,26.4697265625 79.306640625,21.62109375 79.1162109375,17.6586933135986 78.544921875,14.208984375 77.618408203125,11.2719736099243 76.3623046875,8.84765625 74.794921875,6.947021484375 72.9345703125,5.5810546875 70.806884765625,4.757080078125 68.4375,4.482421875 64.62890625,5.21484375 62.958984375,6.17431640625 61.5234375,7.587890625 60.3405723571777,9.48486328125 59.4287109375,11.89453125 58.8464317321777,14.8608417510986 58.65234375,18.427734375 58.65234375,42.744140625 53.84765625,42.744140625 53.84765625,18.28125 53.6901817321777,14.9304218292236 53.2177734375,12.0849609375 52.4560508728027,9.71923828125 51.4306640625,7.8076171875 50.1452598571777,6.346435546875 48.603515625,5.33203125 46.8237266540527,4.73876953125 44.82421875,4.541015625 42.747802734375,4.735107421875 40.8544921875,5.3173828125 39.180908203125,6.3134765625 37.763671875,7.7490234375 36.62109375,9.642333984375 35.771484375,12.01171875 35.244140625,14.8828144073486 35.068359375,18.28125 35.068359375,42.744140625 30.263671875,42.744140625 30.263671875,18.427734375 30.069580078125,14.8608417510986 29.4873046875,11.89453125 28.5498027801514,9.48486328125 27.2900390625,7.587890625 25.7263164520264,6.17431640625 23.876953125,5.21484375 19.482421875,4.482421875 16.40625,4.833984375 13.564453125,5.888671875 11.0266103744507,7.58056640625 8.86230373382568,9.84375 7.09716796875,12.6489276885986 5.7568359375,15.966796875 4.91088819503784,19.7314453125 4.62890625,23.876953125 4.65820264816284,25.078125 4.77539110183716,26.513671875 4.98046875,26.513671875 6.38671875,23.994140625 8.4814453125,22.0458984375 11.2353515625,20.7861328125 14.619140625,20.33203125 16.669921875,20.526123046875 18.603515625,21.1083984375 21.884765625,23.3349609375 24.111328125,26.8359375 24.7265605926514,29.01123046875 24.931640625,31.435546875 24.7302227020264,33.900146484375 24.1259765625,36.1962890625 21.826171875,40.0341796875 18.2080078125,42.5830078125 15.948486328125,43.275146484375 13.41796875,43.505859375 10.1916494369507,43.114013671875 7.4267578125,41.9384765625 5.115966796875,40.081787109375 3.25195264816284,37.646484375 1.82006824016571,34.6728515625 0.805663824081421,31.201171875 0.201415985822678,27.333984375 0,23.173828125 0.369873046875,18.1018085479736 1.4794921875,13.5498046875 3.240966796875,9.580078125 5.56640625,6.25488376617432 8.4228515625,3.59619164466858 11.77734375,1.62597751617432 15.53466796875,0.40649425983429 19.599609375,0z" />
    </g>
  </g>
</svg>