<?xml version="1.0" encoding="utf-8"?>
<!DOCTYPE svg PUBLIC "-//W3C//DTD SVG 1.1//EN" "http://www.w3.org/Graphics/SVG/1.1/DTD/svg11.dtd">
<svg width="72.919921875" height="43.505859375" xmlns="http://www.w3.org/2000/svg" xmlns:xlink="http://www.w3.org/1999/xlink" xmlns:xml="http://www.w3.org/XML/1998/namespace" version="1.1">
  <g>
    <g>
      <path style="fill:#FF0000;fill-opacity:1" d="M48.310546875,23.408203125L44.8681640625,24.0673828125 42.24609375,25.9423828125 40.576171875,28.857421875 39.990234375,32.63671875 40.25390625,35.244140625 41.015625,37.265625 42.2607421875,38.583984375 43.974609375,39.052734375 45.4028282165527,38.79638671875 46.69921875,38.02734375 47.8491172790527,36.763916015625 48.837890625,35.0244140625 49.6545372009277,32.8125 50.2880859375,30.1318359375 50.7238731384277,26.993408203125 50.947265625,23.408203125 48.310546875,23.408203125z M15.9375,0L19.775390625,0.498046875 23.1591796875,1.9921875 25.8544921875,4.482421875 27.626953125,7.998046875 27.861328125,7.998046875 29.835205078125,4.544677734375 32.5927734375,2.0361328125 36.046142578125,0.509033203125 40.107421875,0 43.765869140625,0.380859375 46.8896484375,1.5234375 49.5043907165527,3.31787109375 51.6357421875,5.65429782867432 53.3019981384277,8.477783203125 54.521484375,11.7333984375 55.3124961853027,15.3112812042236 55.693359375,19.1015625 72.919921875,19.1015625 72.919921875,23.408203125 55.693359375,23.408203125 54.7119140625,31.5673828125 53.7341270446777,35.009765625 52.412109375,37.9248046875 50.7495079040527,40.279541015625 48.75,42.041015625 46.3989219665527,43.1396484375 43.681640625,43.505859375 41.6748046875,43.2861328125 39.931640625,42.626953125 37.2509765625,40.25390625 35.6396484375,36.796875 35.09765625,32.6953125 35.35400390625,29.55322265625 36.123046875,26.806640625 37.34619140625,24.466552734375 38.96484375,22.5439453125 40.953369140625,21.04248046875 43.2861328125,19.9658203125 45.9045372009277,19.317626953125 48.75,19.1015625 50.888671875,19.1015625 49.8779296875,13.2568359375 47.7392578125,8.6279296875 46.2341270446777,6.89208984375 44.443359375,5.5810546875 42.37060546875,4.757080078125 40.01953125,4.482421875 37.979736328125,4.698486328125 36.0791015625,5.3466796875 34.365234375,6.4306640625 32.8857421875,7.9541015625 31.669921875,9.913330078125 30.7470703125,12.3046875 30.164794921875,15.1391620635986 29.970703125,18.427734375 29.970703125,42.744140625 25.166015625,42.744140625 25.166015625,18.427734375 25.0176982879639,15.1474008560181 24.5727519989014,12.3083505630493 23.8311748504639,9.91058349609375 22.79296875,7.9541015625 21.4837646484375,6.43524169921875 19.92919921875,5.350341796875 18.1292724609375,4.69940185546875 16.083984375,4.482421875 13.656005859375,4.73876953125 11.4697265625,5.5078125 9.55444240570068,6.807861328125 7.93945407867432,8.6572265625 6.64306640625,11.0559091567993 5.68359375,14.00390625 5.09033203125,17.5195331573486 4.892578125,21.62109375 5.2880859375,26.4697265625 6.5185546875,31.6845703125 8.671875,36.943359375 11.806640625,41.89453125 7.265625,43.505859375 4.18945360183716,38.49609375 1.90429735183716,32.87109375 0.4833984375,27.041015625 0,21.416015625 0.336914002895355,16.1169452667236 1.34765577316284,11.6455078125 2.918701171875,7.9541015625 4.9365234375,4.99511814117432 7.33154296875,2.750244140625 10.0341796875,1.201171875 12.938232421875,0.30029296875 15.9375,0z" />
    </g>
  </g>
</svg>