<?xml version="1.0" encoding="utf-8"?>
<!DOCTYPE svg PUBLIC "-//W3C//DTD SVG 1.1//EN" "http://www.w3.org/Graphics/SVG/1.1/DTD/svg11.dtd">
<svg width="81.884765625" height="45.7617187500006" xmlns="http://www.w3.org/2000/svg" xmlns:xlink="http://www.w3.org/1999/xlink" xmlns:xml="http://www.w3.org/XML/1998/namespace" version="1.1">
  <g>
    <g>
      <path style="fill:#FF0000;fill-opacity:1" d="M48.310546875,25.6640625L44.8681640625,26.3232421875 42.24609375,28.1982421875 40.576171875,31.11328125 39.990234375,34.892578125 40.25390625,37.5 41.015625,39.521484375 42.2607421875,40.83984375 43.974609375,41.30859375 45.4028282165527,41.05224609375 46.69921875,40.283203125 47.8491172790527,39.019775390625 48.837890625,37.2802734375 49.6545372009277,35.068359375 50.2880859375,32.3876953125 50.7238731384277,29.249267578125 50.947265625,25.6640625 48.310546875,25.6640625z M71.865234375,4.45312452316284L69.5361328125,4.95117139816284 67.6904296875,6.47460889816284 66.474609375,9.08203125 66.03515625,12.83203125 66.3134765625,16.5673828125 67.44140625,21.357421875 68.759765625,21.357421875 70.5029296875,21.15966796875 72.099609375,20.56640625 74.70703125,18.4130859375 76.3916015625,15.1904296875 76.9921875,11.19140625 76.66259765625,8.22509765625 75.673828125,6.12304639816284 74.0625,4.87060499191284 71.865234375,4.45312452316284z M71.865234375,0L74.293212890625,0.212401926517487 76.3623046875,0.849608898162842 79.482421875,3.16406202316284 81.298828125,6.60644483566284 81.884765625,10.83984375 81.650390625,13.9123544692993 80.947265625,16.7431640625 79.793701171875,19.2700214385986 78.2080078125,21.4306640625 76.20849609375,23.19580078125 73.8134765625,24.5361328125 71.048583984375,25.382080078125 67.939453125,25.6640625 55.693359375,25.6640625 54.7119140625,33.8232421875 53.7341270446777,37.265625 52.412109375,40.1806640625 50.7495079040527,42.535400390625 48.75,44.296875 46.3989219665527,45.3955078125 43.681640625,45.76171875 41.6748046875,45.5419921875 39.931640625,44.8828125 37.2509765625,42.509765625 35.6396484375,39.052734375 35.09765625,34.951171875 35.35400390625,31.80908203125 36.123046875,29.0625 37.34619140625,26.722412109375 38.96484375,24.7998046875 40.953369140625,23.29833984375 43.2861328125,22.2216796875 45.9045372009277,21.573486328125 48.75,21.357421875 50.888671875,21.357421875 49.8779296875,15.5126953125 47.7392578125,10.8837890625 46.2341270446777,9.14794921875 44.443359375,7.83691358566284 42.37060546875,7.01293897628784 40.01953125,6.73828077316284 37.979736328125,6.95434522628784 36.0791015625,7.60253763198853 34.365234375,8.6865234375 32.8857421875,10.2099609375 31.669921875,12.169189453125 30.7470703125,14.560546875 30.164794921875,17.3950214385986 29.970703125,20.68359375 29.970703125,45 25.166015625,45 25.166015625,20.68359375 25.0176982879639,17.4032592773438 24.5727519989014,14.5642099380493 23.8311748504639,12.1664428710938 22.79296875,10.2099609375 21.4837646484375,8.69110107421875 19.92919921875,7.60620069503784 18.1292724609375,6.95526075363159 16.083984375,6.73828077316284 13.656005859375,6.99462842941284 11.4697265625,7.76367139816284 9.55444240570068,9.063720703125 7.939453125,10.9130859375 6.64306640625,13.3117685317993 5.68359279632568,16.259765625 5.09033203125,19.7753925323486 4.89257860183716,23.876953125 5.2880859375,28.7255859375 6.5185546875,33.9404296875 8.671875,39.19921875 11.806640625,44.150390625 7.265625,45.76171875 4.18945360183716,40.751953125 1.90429639816284,35.126953125 0.483397960662842,29.296875 0,23.671875 0.3369140625,18.3728046417236 1.34765625,13.9013671875 2.918701171875,10.2099609375 4.9365234375,7.25097703933716 7.33154296875,5.00610303878784 10.0341796875,3.45703077316284 12.938232421875,2.55615186691284 15.9375,2.25585889816284 19.775390625,2.75390577316284 23.1591796875,4.24804639816284 25.8544921875,6.73828077316284 27.626953125,10.25390625 27.861328125,10.25390625 29.835205078125,6.80053663253784 32.5927734375,4.29199266433716 36.046142578125,2.76489210128784 40.107421875,2.25585889816284 43.765869140625,2.63671827316284 46.8896484375,3.77929639816284 49.5043907165527,5.57372999191284 51.6357421875,7.91015577316284 53.3019981384277,10.733642578125 54.521484375,13.9892578125 55.3124961853027,17.5671405792236 55.693359375,21.357421875 62.607421875,21.357421875 61.5673828125,16.669921875 61.259765625,12.392578125 61.461181640625,9.5947265625 62.0654296875,7.11914014816284 64.2919921875,3.22265672683716 65.8447265625,1.83105444908142 67.6611328125,0.8203125 69.686279296875,0.205077767372131 71.865234375,0z" />
    </g>
  </g>
</svg>