<?xml version="1.0" encoding="utf-8"?>
<!DOCTYPE svg PUBLIC "-//W3C//DTD SVG 1.1//EN" "http://www.w3.org/Graphics/SVG/1.1/DTD/svg11.dtd">
<svg width="67.3828125000013" height="63.1640625" xmlns="http://www.w3.org/2000/svg" xmlns:xlink="http://www.w3.org/1999/xlink" xmlns:xml="http://www.w3.org/XML/1998/namespace" version="1.1">
  <g>
    <g>
      <path style="fill:#FF0000;fill-opacity:1" d="M4.74609375,15.498046875L4.365234375,15.64453125 4.21875,16.025390625 4.21875,24.19921875 6.064453125,21.85546875 7.96875,19.51171875 8.4375,18.22265625 8.0712890625,17.080078125 7.119140625,16.34765625 6.6357421875,16.171875 5.8740234375,15.87890625 5.15625,15.615234375 4.74609375,15.498046875z M13.65234375,4.21875095367432L11.656494140625,4.412841796875 9.8291015625,4.9951171875 6.8408203125,7.11914157867432 4.9072265625,10.25390625 4.21875,14.091796875 4.306640625,14.033203125 4.39453125,13.974609375 4.482421875,13.9453125 5.80078125,13.271484375 6.47460842132568,12.7587890625 7.0166015625,12.01171875 7.939453125,10.634765625 8.5546875,10.3125 9.052734375,10.517578125 9.2578125,11.015625 9.0673828125,11.5576171875 8.6279296875,12.1875 8.1884765625,12.94921875 7.998046875,13.828125 8.642578125,15.380859375 11.54296875,18.28125 12.3193359375,17.1240234375 12.626953125,15.791015625 12.8759765625,14.560546875 13.5498046875,13.5498046875 14.5458984375,12.8759765625 15.791015625,12.626953125 17.021484375,12.8759765625 18.0322265625,13.5498046875 18.7060546875,14.560546875 18.955078125,15.791015625 18.486328125,18.80859375 17.138671875,21.533203125 6.708984375,36.474609375 4.84130859375,40.21728515625 4.21875,44.35546875 4.47509765625,47.076416015625 5.244140625,49.7314453125 6.46728420257568,52.210693359375 8.0859375,54.404296875 10.0634765625,56.253662109375 12.36328125,57.7001953125 14.9267578125,58.634033203125 17.6953125,58.9453125 43.916015625,58.9453125 47.0068359375,58.5791015625 49.5556640625,57.568359375 51.826171875,56.0302734375 54.111328125,54.111328125 54.462890625,53.7890625 54.84375,53.466796875 58.359375,49.7021484375 60.9814453125,45.322265625 62.607421875,40.48828125 63.1640625,35.361328125 63.1640625,31.58203125 62.83447265625,34.9658203125 61.845703125,38.14453125 60.28564453125,41.02294921875 58.2421875,43.505859375 55.75927734375,45.54931640625 52.880859375,47.109375 49.7021446228027,48.09814453125 46.318359375,48.427734375 40.01953125,48.427734375 39.2724609375,48.1201171875 38.96484375,47.373046875 39.2724609375,46.6259765625 40.01953125,46.318359375 46.318359375,46.318359375 49.7021446228027,45.98876953125 52.880859375,45 55.75927734375,43.43994140625 58.2421875,41.396484375 60.28564453125,38.91357421875 61.845703125,36.03515625 62.83447265625,32.8564453125 63.1640625,29.47265625 60.9521484375,30.234375 58.798828125,30.908203125 56.6162109375,31.3916015625 54.287109375,31.58203125 35.126953125,31.58203125 32.318115234375,31.812744140625 29.6337890625,32.5048828125 24.873046875,35.09765625 21.1962890625,39.0966796875 19.8669414520264,41.539306640625 18.955078125,44.208984375 18.0615234375,43.4033203125 17.40234375,42.3486328125 16.9921875,41.1767578125 16.845703125,39.990234375 17.05078125,38.8623046875 17.5341796875,37.44140625 18.10546875,36.0205078125 18.57421875,34.921875 19.8046875,32.1826171875 21.240234375,28.9453125 22.705078125,25.4443359375 23.994140625,21.9287109375 24.90234375,18.6474609375 25.25390625,15.791015625 25.02685546875,13.4619140625 24.345703125,11.2792959213257 21.85546875,7.6025390625 18.1640625,5.126953125 15.9814453125,4.44580078125 13.65234375,4.21875095367432z M13.740234375,0L16.8969707489014,0.311282336711884 19.86328125,1.24511706829071 22.5512676239014,2.71728825569153 24.873046875,4.6435546875 26.78466796875,6.976318359375 28.2421875,9.66796875 29.1650390625,12.63427734375 29.47265625,15.791015625 29.091796875,19.248046875 28.125,22.8955078125 26.8359375,26.4697265625 25.48828125,29.70703125 30.1611328125,27.9638671875 35.126953125,27.36328125 54.287109375,27.36328125 57.94921875,26.77734375 67.3828125,23.642578125 67.3828125,35.361328125 66.7236328125,41.3818359375 64.8193359375,47.080078125 61.7431640625,52.236328125 57.59765625,56.66015625 54.580078125,59.208984375 52.1960411071777,60.911865234375 49.6142578125,62.1533203125 46.8493614196777,62.911376953125 43.916015625,63.1640625 17.6953125,63.1640625 12.9052734375,62.4462890625 8.6572265625,60.439453125 5.0830078125,57.3779296875 2.3583984375,53.5107421875 0.615234375,49.0869140625 0,44.326171875 0.3955078125,40.458984375 1.494140625,37.2216796875 3.1640625,34.2626953125 5.2734375,31.171875 5.712890625,30.52734375 3.5009765625,30.17578125 1.6845703125,29.1650390625 0.454101085662842,27.5244140625 0,25.3125 0,13.828125 0.267333507537842,11.044921875 1.06933498382568,8.4375 2.332763671875,6.0791015625 3.984375,4.04296875 5.99487209320068,2.36572575569153 8.3349609375,1.08398497104645 10.938720703125,0.270999193191528 13.740234375,0z" />
    </g>
  </g>
</svg>