<?xml version="1.0" encoding="utf-8"?>
<!DOCTYPE svg PUBLIC "-//W3C//DTD SVG 1.1//EN" "http://www.w3.org/Graphics/SVG/1.1/DTD/svg11.dtd">
<svg width="54.7558593750005" height="67.3828125" xmlns="http://www.w3.org/2000/svg" xmlns:xlink="http://www.w3.org/1999/xlink" xmlns:xml="http://www.w3.org/XML/1998/namespace" version="1.1">
  <g>
    <g>
      <path style="fill:#FF0000;fill-opacity:1" d="M44.208984375,48.662109375L44.208984375,63.1640625 50.537109375,63.1640625 50.537109375,60.380859375 50.09765625,56.923828125 48.8525390625,53.7158203125 46.875,50.91796875 44.208984375,48.662109375z M10.517578125,48.662109375L7.8662109375,50.91796875 5.888671875,53.7158203125 4.6435546875,56.923828125 4.21875,60.380859375 4.21875,63.1640625 10.517578125,63.1640625 10.517578125,48.662109375z M33.69140625,46.318359375L33.69140625,63.1640625 35.80078125,63.1640625 35.80078125,46.318359375 33.69140625,46.318359375z M23.173828125,46.318359375L23.173828125,63.1640625 31.58203125,63.1640625 31.58203125,46.318359375 23.173828125,46.318359375z M18.955078125,46.318359375L18.955078125,63.1640625 21.064453125,63.1640625 21.064453125,46.318359375 18.955078125,46.318359375z M31.34765625,38.3203125L29.58984375,39.55078125 27.5390625,40.01953125 28.2861328125,41.2060546875 29.47265625,41.953125 30.5419921875,41.7041015625 31.58203125,41.396484375 31.58203125,38.96484375 31.34765625,38.3203125z M23.37890625,38.3203125L23.173828125,38.96484375 23.173828125,41.396484375 24.19921875,41.7041015625 25.25390625,41.953125 26.4404296875,41.2060546875 27.1875,40.01953125 26.0595703125,39.873046875 25.166015625,39.55078125 24.345703125,39.052734375 23.466796875,38.37890625 23.37890625,38.3203125z M25.25390625,31.58203125L29.443359375,31.58203125 28.828125,33.0615234375 27.36328125,33.69140625 25.869140625,33.076171875 25.25390625,31.58203125z M33.69140625,25.283203125L35.1708984375,25.8984375 35.80078125,27.36328125 35.80078125,29.47265625 35.185546875,30.966796875 33.69140625,31.58203125 32.197265625,30.966796875 31.58203125,29.47265625 31.58203125,27.36328125 32.2119140625,25.8984375 33.69140625,25.283203125z M21.064453125,25.283203125L22.5439453125,25.8984375 23.173828125,27.36328125 23.173828125,29.47265625 22.5439453125,30.9521484375 21.064453125,31.58203125 19.5703125,30.966796875 18.955078125,29.47265625 18.955078125,27.36328125 19.5849609375,25.8984375 21.064453125,25.283203125z M27.36328125,20.244140625L14.736328125,29.267578125 15.146484375,32.63671875 16.376953125,35.712890625 18.3691387176514,38.35693359375 21.064453125,40.4296875 21.064453125,38.96484375 21.3134765625,37.734375 21.9873046875,36.7236328125 22.9833984375,36.0498046875 24.228515625,35.80078125 30.52734375,35.80078125 31.7578125,36.0498046875 32.7685546875,36.7236328125 33.4423828125,37.734375 33.69140625,38.96484375 33.69140625,40.4296875 36.3720703125,38.3349609375 38.3642578125,35.68359375 39.5947265625,32.6220703125 40.01953125,29.267578125 27.36328125,20.244140625z M31.787109375,17.080078125L29.1796875,18.955078125 42.509765625,28.4765625 43.623046875,25.546875 31.787109375,17.080078125z M23.61328125,16.611328125L11.1328125,25.546875 11.6162109375,27.041015625 12.24609375,28.4765625 25.927734375,18.69140625 24.5654296875,17.87109375 23.61328125,16.611328125z M36.240234375,13.916015625L33.603515625,15.791015625 44.0625,23.26171875 44.1796875,22.1484375 44.208984375,21.005859375 44.208984375,20.2880859375 44.150390625,19.5703125 36.240234375,13.916015625z M27.36328125,12.626953125L25.8837890625,13.2568359375 25.25390625,14.736328125 25.8837890625,16.2158203125 27.36328125,16.845703125 28.857421875,16.23046875 29.47265625,14.736328125 28.857421875,13.2421875 27.36328125,12.626953125z M40.693359375,10.72265625L38.056640625,12.626953125 40.8544921875,14.58984375 43.623046875,16.611328125 42.4511680603027,13.52783203125 40.693359375,10.72265625z M36.884765625,7.1484375L30.380859375,11.77734375 31.2451171875,13.1103515625 31.58203125,14.6484365463257 39.287109375,9.140625 36.884765625,7.1484375z M31.435546875,4.71679639816284L21.0205078125,12.1875 10.576171875,19.599609375 10.576171875,20.126953125 10.5322265625,20.56640625 10.517578125,20.9765625 10.5615234375,22.119140625 10.6640625,23.26171875 23.173828125,14.326171875 23.61328125,12.83203125 24.5361328125,11.6162109375 25.83984375,10.810546875 27.36328125,10.517578125 27.861328125,10.546875 28.359375,10.634765625 31.6259765625,8.291015625 34.892578125,5.97656202316284 33.2080078125,5.2587890625 31.435546875,4.71679639816284z M27.333984375,4.21874952316284L24.55078125,4.44580364227295 21.884765625,5.126953125 17.1240234375,7.6904296875 13.4033203125,11.6308584213257 12.044677734375,14.02587890625 11.103515625,16.640625 19.7900390625,10.458984375 28.447265625,4.248046875 27.890625,4.21874952316284 27.333984375,4.21874952316284z M27.36328125,0L32.8271484375,0.7470703125 37.822265625,2.84179639816284 42.1142578125,6.09375047683716 45.46875,10.283203125 47.6513671875,15.205078125 48.2336387634277,17.89306640625 48.427734375,20.68359375 47.9296875,25.6201171875 46.318359375,30.263671875 45.849609375,33.720703125 44.765625,37.001953125 43.06640625,40.01953125 40.751953125,42.626953125 43.7036094665527,43.597412109375 46.40625,45.0439453125 50.830078125,49.072265625 52.4743614196777,51.55517578125 53.7158203125,54.31640625 54.4958457946777,57.28271484375 54.755859375,60.380859375 54.755859375,67.3828125 0,67.3828125 0,60.380859375 0.260009527206421,57.28271484375 1.04004001617432,54.31640625 2.281494140625,51.55517578125 3.92578125,49.072265625 8.349609375,45.0439453125 11.05224609375,43.597412109375 14.00390625,42.626953125 11.689453125,40.01953125 9.990234375,37.001953125 8.90625,33.720703125 8.4375,30.263671875 6.82617092132568,25.5908203125 6.328125,20.654296875 6.5625,17.98828125 7.1484375,15.380859375 8.360595703125,12.125244140625 10.0634765625,9.1552734375 12.191162109375,6.52588176727295 14.677734375,4.2919921875 17.4865703582764,2.48291301727295 20.5810546875,1.1279296875 23.895263671875,0.281985282897949 27.36328125,0z" />
    </g>
  </g>
</svg>