<?xml version="1.0" encoding="utf-8"?>
<!DOCTYPE svg PUBLIC "-//W3C//DTD SVG 1.1//EN" "http://www.w3.org/Graphics/SVG/1.1/DTD/svg11.dtd">
<svg width="67.3828125000004" height="67.3828125" xmlns="http://www.w3.org/2000/svg" xmlns:xlink="http://www.w3.org/1999/xlink" xmlns:xml="http://www.w3.org/XML/1998/namespace" version="1.1">
  <g>
    <g>
      <path style="fill:#FF0000;fill-opacity:1" d="M33.69140625,27.36328125L36.15234375,27.861328125 38.1591796875,29.2236328125 39.521484375,31.23046875 40.01953125,33.69140625 39.521484375,36.15234375 38.1591796875,38.1591796875 36.15234375,39.521484375 33.69140625,40.01953125 31.23046875,39.521484375 29.2236328125,38.1591796875 27.861328125,36.15234375 27.36328125,33.69140625 27.861328125,31.23046875 29.2236328125,29.2236328125 31.23046875,27.861328125 33.69140625,27.36328125z M33.662109375,23.173828125L31.556396484375,23.3825702667236 29.5751953125,24.0087890625 26.2353515625,26.2646484375 23.994140625,29.6044921875 23.3789043426514,31.585693359375 23.173828125,33.69140625 23.3789043426514,35.797119140625 23.994140625,37.7783203125 26.25,41.1328125 29.6044921875,43.388671875 31.585693359375,44.00390625 33.69140625,44.208984375 35.797119140625,44.00390625 37.7783203125,43.388671875 41.1328125,41.1328125 43.4033203125,37.7783203125 44.0295372009277,35.797119140625 44.23828125,33.69140625 44.0295372009277,31.5673828125 43.4033203125,29.58984375 41.1328125,26.25 37.763671875,23.994140625 35.771484375,23.3789081573486 33.662109375,23.173828125z M33.69140625,21.064453125L36.243896484375,21.3134765625 38.6279296875,22.060546875 42.6416015625,24.78515625 45.3369140625,28.8134765625 46.0729942321777,31.197509765625 46.318359375,33.75 46.0693321228027,36.27685546875 45.322265625,38.642578125 42.59765625,42.6416015625 38.5693359375,45.3369140625 36.199951171875,46.072998046875 33.69140625,46.318359375 31.160888671875,46.0693359375 28.7841796875,45.322265625 24.7705078125,42.6123046875 22.060546875,38.5986328125 21.3134746551514,36.221923828125 21.064453125,33.69140625 21.3134746551514,31.160888671875 22.060546875,28.7841796875 24.7705078125,24.7705078125 28.7841796875,22.060546875 31.160888671875,21.3134765625 33.69140625,21.064453125z M33.69140625,14.736328125L28.65234375,15.41015625 24.1259765625,17.3291015625 20.302734375,20.302734375 17.3291015625,24.1259765625 15.41015625,28.65234375 14.736328125,33.69140625 15.41015625,38.73046875 17.3291015625,43.2568359375 20.302734375,47.080078125 24.1259765625,50.0537109375 28.65234375,51.97265625 33.69140625,52.646484375 38.73046875,51.97265625 43.2568359375,50.0537109375 47.080078125,47.080078125 50.0537109375,43.2568359375 51.97265625,38.73046875 52.646484375,33.69140625 51.97265625,28.65234375 50.0537109375,24.1259765625 47.080078125,20.302734375 43.2568359375,17.3291015625 38.73046875,15.41015625 33.69140625,14.736328125z M33.69140625,0L38.23974609375,0.300295770168304 42.626953125,1.20117139816284 46.7944297790527,2.65137004852295 50.68359375,4.59960889816284 54.2651329040527,7.0166015625 57.509765625,9.873046875 60.3662109375,13.11767578125 62.783203125,16.69921875 64.7314453125,20.58837890625 66.181640625,24.755859375 67.08251953125,29.1430683135986 67.3828125,33.69140625 67.08251953125,38.258056640625 66.181640625,42.6416015625 64.7314453125,46.798095703125 62.783203125,50.68359375 60.3662109375,54.26513671875 57.509765625,57.509765625 54.2651329040527,60.3662109375 50.68359375,62.783203125 46.7944297790527,64.7314453125 42.626953125,66.181640625 38.23974609375,67.08251953125 33.69140625,67.3828125 29.124755859375,67.08251953125 24.7412109375,66.181640625 20.5847148895264,64.7314453125 16.69921875,62.783203125 13.11767578125,60.3662109375 9.873046875,57.509765625 7.01660060882568,54.26513671875 4.599609375,50.68359375 2.6513671875,46.79443359375 1.201171875,42.626953125 0.300292611122131,38.23974609375 0,33.69140625 0.300292611122131,29.1430683135986 1.201171875,24.755859375 2.6513671875,20.58837890625 4.599609375,16.69921875 7.01660060882568,13.11767578125 9.873046875,9.873046875 13.11767578125,7.0166015625 16.69921875,4.59960889816284 20.5847148895264,2.65137004852295 24.7412109375,1.20117139816284 29.124755859375,0.300295770168304 33.69140625,0z" />
    </g>
  </g>
</svg>