<?xml version="1.0" encoding="utf-8"?>
<!DOCTYPE svg PUBLIC "-//W3C//DTD SVG 1.1//EN" "http://www.w3.org/Graphics/SVG/1.1/DTD/svg11.dtd">
<svg width="67.3828125" height="54.7265625" xmlns="http://www.w3.org/2000/svg" xmlns:xlink="http://www.w3.org/1999/xlink" xmlns:xml="http://www.w3.org/XML/1998/namespace" version="1.1">
  <g>
    <g>
      <path style="fill:#FF0000;fill-opacity:1" d="M49.482421875,42.099609375L46.318359375,45.263671875 56.865234375,45.263671875 53.701171875,42.099609375 49.482421875,42.099609375z M36.85546875,42.099609375L33.69140625,45.263671875 44.208984375,45.263671875 41.07421875,42.099609375 36.85546875,42.099609375z M24.228515625,42.099609375L21.064453125,45.263671875 31.58203125,45.263671875 28.41796875,42.099609375 24.228515625,42.099609375z M11.572265625,42.099609375L8.408203125,45.263671875 18.955078125,45.263671875 15.791015625,42.099609375 11.572265625,42.099609375z M49.482421875,35.80078125L46.318359375,38.935546875 56.865234375,38.935546875 53.701171875,35.80078125 49.482421875,35.80078125z M36.85546875,35.80078125L33.69140625,38.935546875 44.208984375,38.935546875 41.07421875,35.80078125 36.85546875,35.80078125z M24.228515625,35.80078125L21.064453125,38.935546875 31.58203125,38.935546875 28.41796875,35.80078125 24.228515625,35.80078125z M11.572265625,35.80078125L8.408203125,38.935546875 18.955078125,38.935546875 15.791015625,35.80078125 11.572265625,35.80078125z M49.482421875,29.47265625L46.318359375,32.63671875 56.865234375,32.63671875 53.701171875,29.47265625 49.482421875,29.47265625z M36.85546875,29.47265625L33.69140625,32.63671875 44.208984375,32.63671875 41.07421875,29.47265625 36.85546875,29.47265625z M24.228515625,29.47265625L21.064453125,32.63671875 31.58203125,32.63671875 28.41796875,29.47265625 24.228515625,29.47265625z M11.572265625,29.47265625L8.408203125,32.63671875 18.955078125,32.63671875 15.791015625,29.47265625 11.572265625,29.47265625z M50.537109375,21.03515625L50.537109375,23.14453125 49.482421875,23.14453125 46.318359375,26.30859375 56.865234375,26.30859375 53.701171875,23.14453125 52.646484375,23.14453125 52.646484375,21.03515625 50.537109375,21.03515625z M37.91015625,21.03515625L37.91015625,23.14453125 36.85546875,23.14453125 33.69140625,26.30859375 44.208984375,26.30859375 41.07421875,23.14453125 40.01953125,23.14453125 40.01953125,21.03515625 37.91015625,21.03515625z M25.25390625,21.03515625L25.25390625,23.14453125 24.228515625,23.14453125 21.064453125,26.30859375 31.58203125,26.30859375 28.41796875,23.14453125 27.36328125,23.14453125 27.36328125,21.03515625 25.25390625,21.03515625z M12.626953125,21.03515625L12.626953125,23.14453125 11.572265625,23.14453125 8.408203125,26.30859375 18.955078125,26.30859375 15.791015625,23.14453125 14.736328125,23.14453125 14.736328125,21.03515625 12.626953125,21.03515625z M6.328125,18.955078125L58.9453125,18.955078125 58.9453125,48.427734375 6.328125,48.427734375 6.328125,18.955078125z M50.537109375,8.408203125L50.537109375,10.517578125 49.482421875,10.517578125 46.318359375,13.681640625 56.865234375,13.681640625 53.701171875,10.517578125 52.646484375,10.517578125 52.646484375,8.408203125 50.537109375,8.408203125z M37.91015625,8.408203125L37.91015625,10.517578125 36.85546875,10.517578125 33.69140625,13.681640625 44.208984375,13.681640625 41.07421875,10.517578125 40.01953125,10.517578125 40.01953125,8.408203125 37.91015625,8.408203125z M25.25390625,8.408203125L25.25390625,10.517578125 24.228515625,10.517578125 21.064453125,13.681640625 31.58203125,13.681640625 28.41796875,10.517578125 27.36328125,10.517578125 27.36328125,8.408203125 25.25390625,8.408203125z M12.626953125,8.408203125L12.626953125,10.517578125 11.572265625,10.517578125 8.408203125,13.681640625 18.955078125,13.681640625 15.791015625,10.517578125 14.736328125,10.517578125 14.736328125,8.408203125 12.626953125,8.408203125z M6.328125,6.298828125L58.9453125,6.298828125 58.9453125,16.845703125 6.328125,16.845703125 6.328125,6.298828125z M4.21875,4.18945217132568L4.21875,50.537109375 61.0546875,50.537109375 61.0546875,4.18945217132568 4.21875,4.18945217132568z M0,0L67.3828125,0 67.3828125,54.7265625 0,54.7265625 0,0z" />
    </g>
  </g>
</svg>