<?xml version="1.0" encoding="utf-8"?>
<!DOCTYPE svg PUBLIC "-//W3C//DTD SVG 1.1//EN" "http://www.w3.org/Graphics/SVG/1.1/DTD/svg11.dtd">
<svg width="54.7558593750012" height="67.3828125" xmlns="http://www.w3.org/2000/svg" xmlns:xlink="http://www.w3.org/1999/xlink" xmlns:xml="http://www.w3.org/XML/1998/namespace" version="1.1">
  <g>
    <g>
      <path style="fill:#FF0000;fill-opacity:1" d="M31.58203125,50.537109375L33.076171875,51.15234375 33.69140625,52.646484375 33.076171875,54.140625 31.58203125,54.755859375 30.087890625,54.140625 29.47265625,52.646484375 30.087890625,51.15234375 31.58203125,50.537109375z M25.25390625,50.537109375L26.748046875,51.15234375 27.36328125,52.646484375 26.748046875,54.140625 25.25390625,54.755859375 23.7890625,54.1259765625 23.173828125,52.646484375 23.7890625,51.1669921875 25.25390625,50.537109375z M31.58203125,42.12890625L33.0615234375,42.744140625 33.69140625,44.208984375 33.076171875,45.703125 31.58203125,46.318359375 30.087890625,45.703125 29.47265625,44.208984375 30.1025390625,42.744140625 31.58203125,42.12890625z M25.25390625,42.12890625L26.7333984375,42.744140625 27.36328125,44.208984375 26.748046875,45.703125 25.25390625,46.318359375 23.7890625,45.6884765625 23.173828125,44.208984375 23.7890625,42.744140625 25.25390625,42.12890625z M31.58203125,33.69140625L33.076171875,34.306640625 33.69140625,35.80078125 33.076171875,37.294921875 31.58203125,37.91015625 30.087890625,37.294921875 29.47265625,35.80078125 30.087890625,34.306640625 31.58203125,33.69140625z M25.25390625,33.69140625L26.748046875,34.306640625 27.36328125,35.80078125 26.748046875,37.294921875 25.25390625,37.91015625 23.7890625,37.2802734375 23.173828125,35.80078125 23.7890625,34.3212890625 25.25390625,33.69140625z M41.748046875,10.8984375L47.373046875,17.9296875 44.23828125,17.2998046875 41.103515625,16.69921875 42.83203125,19.599609375 31.9482421875,26.8798828125 21.064453125,34.130859375 21.064453125,62.75390625 24.2138671875,63.076171875 27.36328125,63.1640625 30.64453125,63.0615234375 34.2333984375,62.6513671875 37.705078125,61.8017578125 40.6640625,60.380859375 41.455078125,59.7509765625 42.099609375,58.974609375 42.099609375,26.30859375 42.421875,25.5908203125 43.154296875,25.283203125 43.88671875,25.5908203125 44.208984375,26.30859375 44.208984375,58.974609375 50.537109375,58.974609375 50.537109375,16.787109375 50.3356895446777,15.457763671875 49.7314453125,14.2822265625 47.607421875,12.7734375 44.677734375,11.8212890625 41.748046875,10.8984375z M13.0078125,10.8984375L10.078125,11.8212890625 7.1484375,12.7734375 5.0244140625,14.2822265625 4.420166015625,15.457763671875 4.21875,16.787109375 4.21875,58.974609375 10.517578125,58.974609375 10.517578125,26.30859375 10.83984375,25.5908203125 11.572265625,25.283203125 12.3046875,25.5908203125 12.626953125,26.30859375 12.626953125,58.974609375 13.7548828125,60.17578125 15.498046875,61.171875 17.3876953125,61.904296875 18.955078125,62.34375 18.955078125,32.98828125 22.20703125,30.8056640625 25.48828125,28.65234375 18.720703125,24.08203125 11.89453125,19.599609375 13.65234375,16.69921875 10.517578125,17.314453125 7.3828125,17.9296875 13.0078125,10.8984375z M23.173828125,6.328125L31.58203125,6.328125 33.046875,6.8994140625 33.69140625,8.3203125 33.69140625,15.087890625 33.369140625,16.7138671875 32.4609375,18.076171875 27.36328125,23.173828125 22.294921875,18.076171875 21.3720684051514,16.72119140625 21.064453125,15.1171875 21.064453125,8.4375 21.6796875,6.943359375 23.173828125,6.328125z M22.060546875,4.21874952316284L21.1376934051514,4.41650676727295 20.419921875,5.009765625 12.626953125,14.736328125 17.900390625,13.681640625 14.736328125,18.955078125 27.36328125,27.36328125 40.01953125,18.955078125 36.85546875,13.681640625 42.099609375,14.736328125 34.3359375,5.009765625 33.59619140625,4.41650676727295 32.666015625,4.21874952316284 22.060546875,4.21874952316284z M22.060546875,0L32.666015625,0 35.4052734375,0.6298828125 37.6171875,2.373046875 40.60546875,6.123046875 48.896484375,8.759765625 51.2841796875,9.9609375 53.1298828125,11.806640625 54.3310546875,14.1357421875 54.755859375,16.787109375 54.755859375,63.1640625 43.9453125,63.1640625 40.3271484375,65.302734375 36.03515625,66.591796875 31.552734375,67.2216796875 27.36328125,67.3828125 23.173828125,67.2216796875 18.69140625,66.591796875 14.4140625,65.302734375 10.810546875,63.1640625 0,63.1640625 0,16.787109375 0.424804210662842,14.1357421875 1.611328125,11.806640625 3.45703125,9.9755859375 5.859375,8.759765625 14.12109375,6.123046875 15.6298828125,4.248046875 17.138671875,2.373046875 19.3212890625,0.615234375 22.060546875,0z" />
    </g>
  </g>
</svg>