<?xml version="1.0" encoding="utf-8"?>
<!DOCTYPE svg PUBLIC "-//W3C//DTD SVG 1.1//EN" "http://www.w3.org/Graphics/SVG/1.1/DTD/svg11.dtd">
<svg width="67.3828125000006" height="67.3828125" xmlns="http://www.w3.org/2000/svg" xmlns:xlink="http://www.w3.org/1999/xlink" xmlns:xml="http://www.w3.org/XML/1998/namespace" version="1.1">
  <g>
    <g>
      <path style="fill:#FF0000;fill-opacity:1" d="M17.900390625,36.85546875L17.1533203125,37.1630859375 16.845703125,37.91015625 17.1533203125,38.6572265625 17.900390625,38.96484375 18.6474609375,38.6572265625 18.955078125,37.91015625 18.6474609375,37.1630859375 17.900390625,36.85546875z M13.681640625,36.85546875L12.9345703125,37.1630859375 12.626953125,37.91015625 12.9345703125,38.6572265625 13.681640625,38.96484375 14.4287109375,38.6572265625 14.736328125,37.91015625 14.4287109375,37.1630859375 13.681640625,36.85546875z M4.21875,33.69140625L4.482421875,37.686767578125 5.2734375,41.5283203125 6.54418849945068,45.172119140625 8.2470703125,48.57421875 10.3564453125,51.705322265625 12.8466796875,54.5361328125 15.677490234375,57.0263671875 18.80859375,59.1357421875 22.2106914520264,60.838623046875 25.8544921875,62.109375 29.696044921875,62.900390625 33.69140625,63.1640625 37.686767578125,62.900390625 41.5283203125,62.109375 45.1721153259277,60.838623046875 48.57421875,59.1357421875 51.7053184509277,57.0263671875 54.5361328125,54.5361328125 57.0263671875,51.705322265625 59.1357421875,48.57421875 60.838623046875,45.172119140625 62.109375,41.5283203125 62.900390625,37.686767578125 63.1640625,33.69140625 62.962646484375,35.5224609375 62.3583984375,37.20703125 60.2197265625,40.166015625 57.158203125,42.6123046875 53.5986328125,44.5458984375 49.9658203125,45.9814453125 46.669921875,46.93359375 40.224609375,48.0615234375 33.69140625,48.427734375 27.158203125,48.0615234375 20.712890625,46.93359375 17.4169921875,45.9814453125 13.7841796875,44.5458984375 10.224609375,42.6123046875 7.1630859375,40.166015625 5.0244140625,37.20703125 4.420166015625,35.5224609375 4.21875,33.69140625z M13.681640625,32.63671875L12.9345703125,32.9443359375 12.626953125,33.69140625 12.9345703125,34.4384765625 13.681640625,34.74609375 14.4287109375,34.4384765625 14.736328125,33.69140625 14.4287109375,32.9443359375 13.681640625,32.63671875z M51.9140625,24.2578125L48.3984375,27.24609375 51.4013671875,28.2568359375 54.4482421875,29.6630859375 57.2314453125,31.46484375 59.47265625,33.69140625 59.765625,34.1015625 60.1611328125,34.7314453125 60.498046875,35.390625 60.64453125,35.888671875 61.0546875,33.69140625 60.831298828125,32.003173828125 60.1611328125,30.4541015625 57.9052734375,27.7880859375 54.9462890625,25.72265625 51.9140625,24.2578125z M33.69140625,21.064453125L28.1689453125,21.3134765625 22.705078125,22.119140625 19.62890625,22.8662109375 16.083984375,24.052734375 12.509765625,25.7080078125 9.3896484375,27.8466796875 7.177734375,30.498046875 6.54052639007568,32.02880859375 6.328125,33.69140625 6.73828125,35.888671875 6.8994140625,35.390625 7.2509765625,34.716796875 7.6318359375,34.072265625 7.91015625,33.69140625 10.95703125,30.8349609375 15.0146484375,28.65234375 19.6728515625,27.0703125 24.55078125,26.015625 29.267578125,25.4296875 33.3984375,25.25390625 34.072265625,25.25390625 34.74609375,25.283203125 38.203125,21.240234375 33.69140625,21.064453125z M56.8359375,8.4375L58.330078125,9.052734375 58.9453125,10.546875 58.7841796875,11.3525390625 58.330078125,12.01171875 57.4365234375,12.861328125 56.0302734375,14.033203125 54.580078125,15.205078125 53.525390625,16.025390625 47.8125,20.6689453125 42.099609375,25.283203125 46.7431640625,19.5849609375 51.357421875,13.857421875 52.177734375,12.802734375 53.349609375,11.3525390625 54.521484375,9.9462890625 55.37109375,9.052734375 56.0302734375,8.5986328125 56.8359375,8.4375z M58.53515625,4.21874952316284L57.3193359375,4.27734375 56.2353515625,4.51171875 55.13671875,5.0537109375 53.935546875,6.03515625 52.705078125,7.412109375 51.533203125,8.84765625 46.025390625,15.322265625 38.203125,24.5068359375 30.3515625,33.69140625 37.6171875,33.69140625 45.3662109375,27.099609375 53.115234375,20.478515625 58.9453125,15.498046875 60.205078125,14.4580078125 61.435546875,13.359375 62.666015625,11.7041015625 63.1640625,9.697265625 63.1640625,7.3828125 62.9150390625,6.15234375 62.2412109375,5.1416015625 61.23046875,4.46777296066284 60,4.21874952316284 58.53515625,4.21874952316284z M57.919921875,0L60,0 62.87109375,0.585937261581421 65.21484375,2.16796898841858 66.796875,4.51171875 67.3828125,7.3828125 67.3828125,9.462890625 67.177734375,11.422119140625 66.5625,13.3154296875 64.248046875,16.494140625 61.6552734375,18.7353515625 59.033203125,20.947265625 62.2412109375,23.349609375 64.892578125,26.2939453125 66.708984375,29.736328125 67.3828125,33.69140625 67.08251953125,38.258056640625 66.181640625,42.6416015625 64.7314453125,46.798095703125 62.783203125,50.68359375 60.3662109375,54.26513671875 57.509765625,57.509765625 54.2651329040527,60.3662109375 50.68359375,62.783203125 46.7944297790527,64.7314453125 42.626953125,66.181640625 38.23974609375,67.08251953125 33.69140625,67.3828125 29.124755859375,67.08251953125 24.7412109375,66.181640625 20.5847148895264,64.7314453125 16.69921875,62.783203125 13.11767578125,60.3662109375 9.873046875,57.509765625 7.01660060882568,54.26513671875 4.599609375,50.68359375 2.6513671875,46.79443359375 1.201171875,42.626953125 0.300292611122131,38.23974609375 0,33.69140625 0.223388314247131,31.2890625 0.8935546875,29.0625 3.310546875,25.1513671875 6.8408203125,21.9580078125 11.044921875,19.4384765625 15.5126953125,17.5634765625 19.86328125,16.2890625 26.7333984375,15.1025390625 33.69140625,14.736328125 37.177734375,14.8388671875 40.6640625,15.1171875 50.7421875,3.31054711341858 53.96484375,0.864257574081421 55.90576171875,0.216067284345627 57.919921875,0z" />
    </g>
  </g>
</svg>