<?xml version="1.0" encoding="utf-8"?>
<!DOCTYPE svg PUBLIC "-//W3C//DTD SVG 1.1//EN" "http://www.w3.org/Graphics/SVG/1.1/DTD/svg11.dtd">
<svg width="67.3828125000013" height="65.2734375" xmlns="http://www.w3.org/2000/svg" xmlns:xlink="http://www.w3.org/1999/xlink" xmlns:xml="http://www.w3.org/XML/1998/namespace" version="1.1">
  <g>
    <g>
      <path style="fill:#FF0000;fill-opacity:1" d="M25.4296875,47.080078125L21.474609375,58.9453125 20.7568359375,58.9306640625 19.951171875,58.916015625 18.837890625,58.9892578125 17.841796875,59.2822265625 17.1240234375,59.9267578125 16.845703125,61.0546875 35.80078125,61.0546875 35.1708984375,59.5751953125 33.69140625,58.9453125 30.029296875,58.9453125 33.515625,48.427734375 31.318359375,48.427734375 27.802734375,58.9453125 23.701171875,58.9453125 27.392578125,47.841796875 26.4111328125,47.5048828125 25.4296875,47.080078125z M56.865234375,35.80078125L58.330078125,36.4306640625 58.9453125,37.91015625 58.330078125,39.3896484375 56.865234375,40.01953125 55.3857421875,39.3896484375 54.755859375,37.91015625 55.37109375,36.416015625 56.865234375,35.80078125z M48.427734375,35.80078125L49.921875,36.416015625 50.537109375,37.91015625 49.9072265625,39.3896484375 48.427734375,40.01953125 46.9482421875,39.3896484375 46.318359375,37.91015625 46.93359375,36.416015625 48.427734375,35.80078125z M10.546875,35.80078125L12.0263671875,36.416015625 12.626953125,37.91015625 11.9970703125,39.3896484375 10.517578125,40.01953125 9.052734375,39.404296875 8.4375,37.939453125 9.0380859375,36.416015625 10.546875,35.80078125z M8.408203125,33.69140625L6.767578125,34.0283203125 5.4345703125,34.9365234375 4.541015625,36.26953125 4.21875,37.91015625 4.541015625,39.55078125 5.4345703125,40.8837890625 6.767578125,41.77734375 8.408203125,42.099609375 19.482421875,42.099609375 17.5048828125,38.1005859375 16.845703125,33.69140625 8.408203125,33.69140625z M33.662109375,31.611328125L31.5966796875,31.885986328125 29.736328125,32.7099609375 28.18359375,34.024658203125 27.041015625,35.771484375 27.4365234375,35.8154296875 27.861328125,35.830078125 28.4326171875,35.8154296875 28.974609375,35.80078125 33.69140625,35.80078125 37.5439453125,36.38671875 41.015625,38.14453125 40.2392578125,35.4931640625 38.6279296875,33.427734375 36.3720703125,32.0947265625 33.662109375,31.611328125z M47.724609375,26.30859375L49.2333984375,26.923828125 49.833984375,28.41796875 49.21875,29.912109375 47.724609375,30.52734375 46.2451171875,29.8974609375 45.615234375,28.41796875 46.2451171875,26.9384765625 47.724609375,26.30859375z M55.01953125,22.08984375L56.513671875,22.7197265625 57.12890625,24.19921875 56.513671875,25.7080078125 55.048828125,26.337890625 53.5400390625,25.7080078125 52.91015625,24.19921875 53.5400390625,22.7197265625 55.01953125,22.08984375z M12.36328125,22.08984375L13.8427734375,22.7197265625 14.47265625,24.19921875 13.8427734375,25.7080078125 12.333984375,26.337890625 10.869140625,25.7080078125 10.25390625,24.19921875 10.869140625,22.7197265625 12.36328125,22.08984375z M26.30859375,21.064453125L25.576171875,21.38671875 25.25390625,22.119140625 25.576171875,22.8369140625 26.30859375,23.14453125 27.0556640625,22.8515625 27.36328125,22.119140625 27.0556640625,21.3720703125 26.30859375,21.064453125z M43.154296875,19.62890625L44.6630859375,20.2587890625 45.29296875,21.767578125 44.6484375,23.2470703125 43.154296875,23.876953125 41.66015625,23.2470703125 41.044921875,21.73828125 41.6748046875,20.2587890625 43.154296875,19.62890625z M10.517578125,18.955078125L8.90625,19.2919921875 7.5732421875,20.2001953125 6.6650390625,21.533203125 6.328125,23.14453125 6.884765625,25.25390625 8.408203125,26.806640625 16.845703125,31.669921875 17.4682598114014,27.3413105010986 19.3359375,23.37890625 12.626953125,19.51171875 10.517578125,18.955078125z M33.69140625,16.845703125L35.185546875,17.4609375 35.80078125,18.955078125 35.1708984375,20.4345703125 33.69140625,21.064453125 32.2119140625,20.4345703125 31.58203125,18.955078125 32.197265625,17.4609375 33.69140625,16.845703125z M47.40234375,12.3339834213257L48.8671875,12.9638662338257 49.482421875,14.443359375 48.8671875,15.9521484375 47.373046875,16.58203125 45.87890625,15.9521484375 45.263671875,14.4726552963257 45.8935546875,12.9638662338257 47.40234375,12.3339834213257z M19.98046875,12.3339834213257L21.4892578125,12.9638662338257 22.119140625,14.4726552963257 21.4892578125,15.9521484375 20.009765625,16.58203125 18.515625,15.9521484375 17.900390625,14.4726552963257 18.515625,12.9638662338257 19.98046875,12.3339834213257z M18.955078125,8.43749904632568L17.2998046875,8.759765625 15.9521484375,9.6533203125 15.05859375,10.986328125 14.736328125,12.626953125 15.29296875,14.736328125 19.86328125,22.646484375 20.91796875,21.38671875 22.1923828125,20.2001953125 23.6572265625,19.306640625 25.25390625,18.955078125 26.77001953125,19.22607421875 28.095703125,20.0390625 22.587890625,10.517578125 21.03515625,8.994140625 18.955078125,8.43749904632568z M33.69140625,8.408203125L35.1708984375,9.0380859375 35.80078125,10.517578125 35.185546875,12.01171875 33.69140625,12.626953125 32.197265625,12.01171875 31.58203125,10.517578125 32.2119140625,9.0380859375 33.69140625,8.408203125z M33.69140625,4.21874952316284L32.05078125,4.54101467132568 30.7177734375,5.43456935882568 29.8095703125,6.76757764816284 29.47265625,8.408203125 29.47265625,22.44140625 29.384765625,22.294921875 29.47265625,23.173828125 30.1904296875,23.8623046875 31.2451171875,24.8876953125 32.2119140625,25.927734375 32.63671875,26.630859375 32.431640625,27.158203125 31.904296875,27.36328125 25.25390625,27.36328125 23.173828125,26.806640625 23.173828125,31.58203125 23.6865234375,33.57421875 25.048828125,35.09765625 26.513671875,32.7685546875 28.564453125,30.99609375 31.0107421875,29.8681640625 33.720703125,29.47265625 37.412109375,30.2197265625 40.4150390625,32.255859375 42.421875,35.2734375 43.154296875,38.96484375 43.154296875,40.078125 43.9453125,41.0595703125 44.6484375,42.099609375 58.9453125,42.099609375 60.5859375,41.77734375 61.9189453125,40.8837890625 62.8271484375,39.55078125 63.1640625,37.91015625 62.8271484375,36.26953125 61.9189453125,34.9365234375 60.5859375,34.0283203125 58.9453125,33.69140625 47.05078125,33.69140625 58.9453125,26.806640625 60.4833984375,25.2392578125 61.0546875,23.14453125 60.7177734375,21.50390625 59.8095703125,20.1708984375 58.4765625,19.27734375 56.8359375,18.955078125 54.755859375,19.51171875 46.611328125,24.19921875 52.08984375,14.736328125 52.646484375,12.626953125 52.3095703125,10.986328125 51.4013671875,9.6533203125 50.068359375,8.759765625 48.427734375,8.43749904632568 46.34765625,8.994140625 44.794921875,10.517578125 37.91015625,22.44140625 37.91015625,8.408203125 37.5732421875,6.76757764816284 36.6650390625,5.43456935882568 35.33203125,4.54101467132568 33.69140625,4.21874952316284z M33.69140625,0L36.6650390625,0.541991531848907 39.19921875,2.03613209724426 41.044921875,4.30664014816284 42.01171875,7.177734375 44.8974609375,4.9951171875 46.6223106384277,4.41284418106079 48.427734375,4.21874952316284 51.7236328125,4.8779296875 54.404296875,6.67968654632568 56.2060546875,9.3603515625 56.865234375,12.65625 56.6015625,14.736328125 56.953125,14.736328125 60.17578125,15.41015625 62.8271484375,17.2265625 64.6142578125,19.9072265625 65.2734375,23.14453125 65.04638671875,25.1110858917236 64.365234375,26.9677734375 61.81640625,29.970703125 64.1015625,31.2158203125 65.859375,33.0615234375 66.9873046875,35.3466796875 67.3828125,37.91015625 66.708984375,41.1767578125 64.892578125,43.857421875 62.2119140625,45.6591796875 58.9453125,46.318359375 50.390625,46.318359375 50.5224609375,48.10546875 50.537109375,49.892578125 50.537109375,52.646484375 36.5625,52.646484375 35.7421875,55.078125 37.470703125,56.015625 38.8330078125,57.392578125 39.7119140625,59.12109375 40.01953125,61.0546875 40.01953125,65.2734375 12.626953125,65.2734375 12.626953125,61.0546875 13.0810546875,58.7255859375 14.3115234375,56.77734375 16.142578125,55.3857421875 18.427734375,54.755859375 20.361328125,48.955078125 17.4609375,46.318359375 8.408203125,46.318359375 5.1416015625,45.6591796875 2.4609375,43.857421875 0.6591796875,41.1767578125 0,37.91015625 0.3955078125,35.3466796875 1.5234375,33.0615234375 3.28125,31.2158203125 5.56640625,29.970703125 3.017578125,26.9677734375 2.33642578125,25.0891132354736 2.109375,23.115234375 2.7978515625,19.7607421875 4.6728515625,17.109375 7.4267578125,15.3662109375 10.78125,14.736328125 10.517578125,12.65625 11.1767578125,9.3603515625 12.9931640625,6.67968654632568 15.6884765625,4.8779296875 18.984375,4.21874952316284 20.8007793426514,4.41284418106079 22.5,4.9951171875 25.37109375,7.177734375 26.3232421875,4.30664014816284 28.18359375,2.03613209724426 30.7177734375,0.541991531848907 33.69140625,0z" />
    </g>
  </g>
</svg>