<?xml version="1.0" encoding="utf-8"?>
<!DOCTYPE svg PUBLIC "-//W3C//DTD SVG 1.1//EN" "http://www.w3.org/Graphics/SVG/1.1/DTD/svg11.dtd">
<svg width="67.3828125000007" height="67.3828125" xmlns="http://www.w3.org/2000/svg" xmlns:xlink="http://www.w3.org/1999/xlink" xmlns:xml="http://www.w3.org/XML/1998/namespace" version="1.1">
  <g>
    <g>
      <path style="fill:#FF0000;fill-opacity:1" d="M13.681640625,48.427734375L15.732421875,48.837890625 17.4169921875,49.9658203125 18.544921875,51.650390625 18.955078125,53.701171875 18.544921875,55.751953125 17.4169921875,57.4365234375 15.732421875,58.564453125 13.681640625,58.974609375 11.630859375,58.564453125 9.9462890625,57.4365234375 8.818359375,55.751953125 8.408203125,53.701171875 8.818359375,51.650390625 9.9462890625,49.9658203125 11.630859375,48.837890625 13.681640625,48.427734375z M47.109375,27.71484375L22.96875,51.85546875 21.7822265625,48.7939453125 19.6875,46.376953125 16.9189453125,44.7802734375 13.681640625,44.208984375 9.990234375,44.9560546875 6.9873046875,46.9921875 4.96581935882568,50.009765625 4.21875,53.701171875 4.96581935882568,57.3779296875 7.001953125,60.380859375 10.0048828125,62.4169921875 13.681640625,63.1640625 17.314453125,62.4609375 20.390625,60.41015625 50.09765625,30.703125 47.109375,27.71484375z M53.701171875,4.21874952316284L50.068359375,4.9365234375 46.9921875,7.001953125 39.638671875,14.35546875 40.634765625,15.3662109375 41.630859375,16.142578125 42.7880859375,16.640625 44.208984375,16.81640625 46.1865234375,16.435546875 47.87109375,15.322265625 52.646484375,10.517578125 53.5986289978027,9.88037109375 54.755859375,9.66796875 55.9130821228027,9.88037109375 56.865234375,10.517578125 57.50244140625,11.4697265625 57.71484375,12.626953125 57.50244140625,13.7841796875 56.865234375,14.736328125 54.990234375,16.2744140625 52.646484375,16.845703125 51.328125,16.845703125 50.09765625,17.28515625 49.21875,18.3837890625 48.6767578125,19.775390625 48.486328125,21.064453125 48.8598594665527,23.0419921875 49.98046875,24.697265625 53.02734375,27.744140625 60.380859375,20.390625 62.4609375,17.314453125 63.1640625,13.681640625 62.4169921875,10.0048828125 60.380859375,7.001953125 57.3779296875,4.96581983566284 53.701171875,4.21874952316284z M21.6796875,4.21874952316284L20.478515625,4.6142578125 19.716796875,5.654296875 7.822265625,41.30859375 10.2099609375,40.45166015625 12.685546875,40.048828125 23.701171875,6.97265672683716 23.7890625,6.650390625 23.818359375,6.298828125 23.1884765625,4.83398485183716 21.6796875,4.21874952316284z M21.708984375,0L24.169921875,0.498046875 26.162109375,1.86035132408142 27.509765625,3.86718726158142 28.0078125,6.298828125 27.685546875,8.3203125 16.9921875,40.4296875 20.8740234375,42.0556640625 24.08203125,44.794921875 44.765625,24.111328125 44.384765625,22.587890625 44.267578125,21.03515625 40.6494140625,20.33203125 37.587890625,18.28125 33.662109375,14.35546875 44.033203125,4.013671875 46.1059532165527,2.30346965789795 48.45703125,1.04003930091858 51.0131797790527,0.260012656450272 53.701171875,0 56.43310546875,0.270998895168304 59.00390625,1.08398389816284 61.336669921875,2.36206340789795 63.3544921875,4.0283203125 65.020751953125,6.04614543914795 66.298828125,8.37890625 67.11181640625,10.94970703125 67.3828125,13.681640625 67.122802734375,16.36962890625 66.3427734375,18.92578125 65.079345703125,21.27685546875 63.369140625,23.349609375 23.349609375,63.369140625 21.2768535614014,65.079345703125 18.92578125,66.3427734375 16.36962890625,67.122802734375 13.681640625,67.3828125 10.94970703125,67.11181640625 8.37890625,66.298828125 6.04614162445068,65.020751953125 4.0283203125,63.3544921875 2.362060546875,61.336669921875 1.083984375,59.00390625 0.270995736122131,56.43310546875 0,53.701171875 0.703125,49.365234375 15.703125,4.306640625 16.6259765625,2.54882836341858 18.017578125,1.18652391433716 19.74609375,0.307617664337158 21.708984375,0z" />
    </g>
  </g>
</svg>