<?xml version="1.0" encoding="utf-8"?>
<!DOCTYPE svg PUBLIC "-//W3C//DTD SVG 1.1//EN" "http://www.w3.org/Graphics/SVG/1.1/DTD/svg11.dtd">
<svg width="67.3828125000116" height="67.3828125" xmlns="http://www.w3.org/2000/svg" xmlns:xlink="http://www.w3.org/1999/xlink" xmlns:xml="http://www.w3.org/XML/1998/namespace" version="1.1">
  <g>
    <g>
      <path style="fill:#FF0000;fill-opacity:1" d="M10.517578125,48.046875L5.419921875,53.49609375 4.5263671875,54.9169921875 4.21875,56.572265625 4.5703125,58.3447265625 5.537109375,59.794921875 6.97265625,60.76171875 8.73046875,61.11328125 14.736328125,61.11328125 16.259765625,60.5126953125 16.845703125,58.9453125 18.369140625,58.359375 18.955078125,56.8359375 18.955078125,52.6171875 18.427734375,51.181640625 17.05078125,50.537109375 10.517578125,50.537109375 10.517578125,48.046875z M53.203125,42.158203125L52.8955078125,43.1982421875 52.529296875,44.208984375 54.111328125,44.794921875 54.755859375,46.318359375 53.6865234375,47.05078125 52.3681640625,48.046875 51.03515625,49.0869140625 49.951171875,49.921875 44.9267578125,57.0849609375 38.671875,63.1640625 61.0546875,63.1640625 61.0546875,58.271484375 60.78369140625,55.491943359375 59.970703125,52.8369140625 58.65234375,50.394287109375 56.865234375,48.251953125 56.865234375,46.318359375 56.5869140625,44.82421875 55.810546875,43.564453125 54.638671875,42.626953125 53.203125,42.158203125z M22.587890625,42.158203125L21.1376953125,42.626953125 19.9951171875,43.564453125 19.2333984375,44.82421875 18.955078125,46.318359375 18.955078125,48.251953125 18.486328125,48.720703125 20.361328125,50.2880859375 21.064453125,52.6171875 21.064453125,56.8359375 20.4345703125,59.150390625 18.57421875,60.673828125 16.845703125,62.666015625 16.845703125,63.1640625 37.1484375,63.1640625 30.8642578125,57.0849609375 25.83984375,49.921875 23.408203125,48.1494140625 21.064453125,46.318359375 21.708984375,44.794921875 23.26171875,44.208984375 22.91015625,43.1982421875 22.587890625,42.158203125z M34.6875,38.7890625L35.244140625,38.994140625 35.859375,39.43359375 36.708984375,39.873046875 37.91015625,40.078125 39.0966796875,39.873046875 39.9462890625,39.43359375 40.576171875,38.994140625 41.103515625,38.7890625 41.806640625,39.08203125 42.099609375,39.78515625 41.6162109375,40.751953125 40.4443359375,41.4990234375 39.052734375,41.9677734375 37.91015625,42.12890625 36.767578125,41.9677734375 35.3759765625,41.4990234375 34.189453125,40.751953125 33.69140625,39.78515625 33.984375,39.08203125 34.6875,38.7890625z M12.626953125,33.896484375L11.103515625,35.0390625 10.517578125,36.85546875 11.103515625,38.701171875 12.626953125,39.84375 13.564453125,40.0341796875 14.6484375,40.078125 15.8203125,40.048828125 16.845703125,40.01953125 16.845703125,42.12890625 18.3251953125,41.4990234375 18.955078125,40.01953125 18.33984375,38.525390625 16.845703125,37.91015625 13.681640625,37.91015625 12.9345703125,37.6025390625 12.626953125,36.85546875 12.626953125,33.896484375z M25.25390625,27.158203125L23.173828125,27.861328125 23.173828125,31.69921875 23.4374980926514,35.99853515625 24.228515625,40.166015625 25.5029296875,44.176025390625 27.216796875,48.0029296875 29.34814453125,51.624755859375 31.875,55.01953125 37.91015625,61.0546875 43.9453125,55.0341796875 46.4721641540527,51.62841796875 48.603515625,48.0029296875 50.3173789978027,44.176025390625 51.591796875,40.166015625 52.3828086853027,35.99853515625 52.646484375,31.69921875 52.646484375,27.861328125 50.537109375,27.158203125 50.537109375,31.58203125 50.0390625,34.04296875 48.6767578125,36.0498046875 46.669921875,37.412109375 44.208984375,37.91015625 43.8720703125,36.26953125 42.9638671875,34.9365234375 41.630859375,34.0283203125 39.990234375,33.69140625 39.375,35.185546875 37.880859375,35.80078125 36.38671875,35.185546875 35.771484375,33.69140625 34.130859375,34.0283203125 32.7978515625,34.9365234375 31.904296875,36.26953125 31.58203125,37.91015625 29.12109375,37.412109375 27.1142578125,36.0498046875 25.751953125,34.04296875 25.25390625,31.58203125 25.25390625,27.158203125z M37.91015625,25.283203125L32.6220703125,25.6054706573486 27.36328125,26.572265625 27.36328125,31.58203125 28.0810546875,33.92578125 29.970703125,35.478515625 31.142578125,33.6328125 29.94140625,32.9150390625 29.47265625,31.58203125 29.47265625,29.47265625 30.1025390625,27.9931640625 31.58203125,27.36328125 33.0615234375,27.9931640625 33.69140625,29.47265625 33.69140625,31.58203125 33.69140625,31.7724609375 33.662109375,31.962890625 35.771484375,31.58203125 40.01953125,31.58203125 42.158203125,31.962890625 42.12890625,31.7724609375 42.12890625,31.58203125 42.12890625,30.46875 42.1875,29.35546875 42.4658203125,28.359375 43.095703125,27.6416015625 44.23828125,27.36328125 45.703125,27.9931640625 46.318359375,29.47265625 46.318359375,31.58203125 45.8642578125,32.9150390625 44.677734375,33.6328125 45.849609375,35.478515625 47.724609375,33.92578125 48.427734375,31.58203125 48.427734375,26.572265625 43.1909141540527,25.6054706573486 37.91015625,25.283203125z M11.572265625,25.283203125L10.3564453125,25.5322265625 9.345703125,26.2060546875 8.6572265625,27.2021484375 8.408203125,28.41796875 8.6572265625,29.6337890625 9.345703125,30.64453125 10.3564453125,31.3330078125 11.572265625,31.58203125 17.900390625,31.58203125 18.6474609375,31.8896484375 18.955078125,32.63671875 18.8232421875,33.2080078125 18.4716796875,33.5302734375 17.9736328125,33.662109375 17.431640625,33.69140625 16.845703125,33.69140625 16.845703125,35.80078125 17.900390625,35.80078125 19.1162109375,35.5517578125 20.126953125,34.86328125 20.8154296875,33.8525390625 21.064453125,32.63671875 20.830078125,31.4501953125 20.185546875,30.4541015625 19.21875,29.765625 18.046875,29.47265625 16.9775390625,29.4287109375 15.87890625,29.4140625 13.7255859375,29.443359375 11.572265625,29.47265625 10.8251953125,29.1650390625 10.517578125,28.41796875 10.6787109375,27.8173828125 11.103515625,27.4951171875 11.6748046875,27.3779296875 12.275390625,27.36328125 12.626953125,27.36328125 12.626953125,25.283203125 11.572265625,25.283203125z M12.626953125,17.05078125L11.103515625,18.193359375 10.517578125,20.009765625 10.7666015625,21.2255859375 11.455078125,22.236328125 12.4658203125,22.9248046875 13.681640625,23.173828125 14.267578125,23.14453125 15,23.115234375 16.259765625,23.3203125 16.845703125,24.228515625 16.845703125,28.06640625 19.658203125,26.3671875 23.115234375,25.0927734375 26.9384765625,24.1845703125 30.849609375,23.5986328125 34.5849609375,23.2763671875 37.880859375,23.173828125 42.0849609375,23.3056640625 46.4501953125,23.7451171875 50.7421875,24.5654296875 54.755859375,25.810546875 56.7041015625,26.6748046875 58.76953125,27.9345703125 60.3955078125,29.5751953125 61.0546875,31.58203125 61.0546875,29.47265625 60.5126953125,27.6416015625 59.1650390625,26.1328125 57.4365234375,24.9609375 55.72265625,24.111328125 51.50390625,22.646484375 46.9775390625,21.708984375 42.36328125,21.2109375 37.91015625,21.064453125 33.1787109375,21.240234375 28.1982421875,21.826171875 23.3203125,22.9248046875 18.92578125,24.638671875 18.955078125,24.4482421875 18.955078125,24.2578125 18.45703125,22.529296875 16.93359375,21.2841796875 15.17578125,21.03515625 14.619140625,21.0498046875 14.12109375,21.064453125 13.037109375,20.8740234375 12.626953125,20.009765625 12.626953125,17.05078125z M42.099609375,4.21874952316284L38.170166015625,4.54834270477295 34.4091796875,5.537109375 30.904541015625,7.115478515625 27.744140625,9.2138671875 24.96826171875,11.79931640625 22.6171875,14.8388671875 20.7861309051514,18.270263671875 19.5703125,22.03125 23.818359375,20.56640625 28.564453125,19.62890625 33.3984375,19.1162109375 37.91015625,18.955078125 45.3515625,19.365234375 52.646484375,20.80078125 52.646484375,18.955078125 52.96875,17.314453125 53.8623046875,15.9814453125 55.2099609375,15.0732421875 56.865234375,14.736328125 63.1640625,14.736328125 58.8134765625,10.4150390625 53.7890625,7.08984422683716 48.1787109375,4.96581983566284 42.099609375,4.21874952316284z M42.099609375,0L47.9186973571777,0.560305595397949 53.4228515625,2.2412109375 58.524169921875,4.94018840789795 63.134765625,8.5546875 64.833984375,10.2392578125 66.416015625,12.041015625 67.1337890625,13.30078125 67.3828125,14.70703125 67.0458984375,16.3623046875 66.1376953125,17.7099609375 64.8046875,18.6181640625 63.1640625,18.955078125 56.865234375,18.955078125 56.865234375,20.009765625 59.853515625,21.50390625 62.5634765625,23.5546875 64.5263671875,26.2060546875 65.2734375,29.47265625 65.2734375,31.58203125 64.7021484375,34.453125 63.1787109375,36.85546875 61.0107421875,38.8037109375 58.505859375,40.3125 60.4541015625,43.18359375 61.0546875,46.611328125 62.86376953125,49.222412109375 64.189453125,52.0751953125 65.00244140625,55.111083984375 65.2734375,58.271484375 65.2734375,67.3828125 8.408203125,67.3828125 5.1416015625,66.7236328125 2.4609375,64.921875 0.6591796875,62.2412109375 0,58.974609375 0,58.505859375 0.0439457893371582,56.3232421875 0.307617664337158,54.3310546875 1.0107421875,52.470703125 2.34375,50.625 8.408203125,44.12109375 8.408203125,41.982421875 6.85546875,39.6240234375 6.328125,36.85546875 6.85546875,34.072265625 4.9072265625,31.5380859375 4.21875,28.41796875 4.9072265625,25.283203125 6.85546875,22.763671875 6.328125,20.009765625 6.9140625,17.1533203125 8.49609375,14.8095703125 10.8251953125,13.212890625 13.681640625,12.626953125 16.0546875,13.0224609375 18.1640625,14.150390625 20.1489238739014,11.055908203125 22.529296875,8.2763671875 25.2392578125,5.84839153289795 28.212890625,3.80859398841858 31.424560546875,2.17895793914795 34.8486328125,0.981445074081421 38.426513671875,0.245364159345627 42.099609375,0z" />
    </g>
  </g>
</svg>