<?xml version="1.0" encoding="utf-8"?>
<!DOCTYPE svg PUBLIC "-//W3C//DTD SVG 1.1//EN" "http://www.w3.org/Graphics/SVG/1.1/DTD/svg11.dtd">
<svg width="64.98046875" height="67.3828125" xmlns="http://www.w3.org/2000/svg" xmlns:xlink="http://www.w3.org/1999/xlink" xmlns:xml="http://www.w3.org/XML/1998/namespace" version="1.1">
  <g>
    <g>
      <path style="fill:#FF0000;fill-opacity:1" d="M36.708984375,44.208984375L45.1171875,44.208984375 45.1171875,46.318359375 36.708984375,46.318359375 36.708984375,44.208984375z M19.86328125,44.208984375L28.271484375,44.208984375 28.271484375,46.318359375 19.86328125,46.318359375 19.86328125,44.208984375z M36.708984375,25.283203125L45.1171875,25.283203125 45.1171875,27.36328125 36.708984375,27.36328125 36.708984375,25.283203125z M44.560546875,8.7890625L43.1982421875,10.1953125 41.77734375,11.572265625 43.3447265625,13.1689453125 44.94140625,14.736328125 34.599609375,25.078125 34.599609375,63.1640625 47.2265625,63.1640625 47.2265625,32.255859375 51.650390625,45.556640625 59.6484375,42.890625 50.068359375,14.1796875 49.2187461853027,12.37060546875 47.958984375,10.810546875 46.3769493103027,9.58740234375 44.560546875,8.7890625z M20.419921875,8.7890625L18.5852031707764,9.58740234375 17.0068359375,10.810546875 15.7580547332764,12.37060546875 14.912109375,14.1796875 5.33203125,42.890625 13.330078125,45.556640625 17.75390625,32.255859375 17.75390625,63.1640625 32.490234375,63.1640625 32.490234375,55.8984375 32.138671875,56.5869140625 31.435546875,56.865234375 30.6884765625,56.5576171875 30.380859375,55.810546875 30.6884765625,55.0634765625 31.435546875,54.755859375 32.138671875,55.0341796875 32.490234375,55.72265625 32.490234375,47.4609375 32.138671875,48.1494140625 31.435546875,48.427734375 30.6884765625,48.1201171875 30.380859375,47.373046875 30.6884765625,46.6259765625 31.435546875,46.318359375 32.1826171875,46.6259765625 32.490234375,47.373046875 32.490234375,39.052734375 32.138671875,39.7412109375 31.435546875,40.01953125 30.6884765625,39.7119140625 30.380859375,38.96484375 30.6884765625,38.2177734375 31.435546875,37.91015625 32.138671875,38.1884765625 32.490234375,38.876953125 32.490234375,30.615234375 32.138671875,31.3037109375 31.435546875,31.58203125 30.6884765625,31.2744140625 30.380859375,30.52734375 30.6884765625,29.7802734375 31.435546875,29.47265625 32.138671875,29.7509765625 32.490234375,30.439453125 32.490234375,27.1875 23.642578125,18.33984375 21.8115234375,16.552734375 20.0390625,14.736328125 23.203125,11.572265625 20.419921875,8.7890625z M27.216796875,6.328125L37.763671875,6.328125 37.763671875,8.4375 36.6650390625,11.6308584213257 35.625,14.853515625 34.04296875,19.541015625 32.490234375,24.228515625 30.9375,19.541015625 29.35546875,14.853515625 28.3154296875,11.6308584213257 27.216796875,8.4375 27.216796875,6.328125z M27.216796875,4.21874952316284L23.02734375,8.4375 26.162109375,11.572265625 24.609375,13.1689453125 23.02734375,14.736328125 32.490234375,24.228515625 41.953125,14.736328125 40.37109375,13.1689453125 38.818359375,11.572265625 41.953125,8.4375 37.763671875,4.21874952316284 27.216796875,4.21874952316284z M25.48828125,0L39.4921875,0 43.828125,4.33593797683716 47.2265625,5.31738328933716 50.1708984375,7.1337890625 52.5,9.6826171875 54.08203125,12.861328125 64.98046875,45.556640625 51.4453125,50.068359375 51.4453125,67.3828125 13.53515625,67.3828125 13.53515625,50.068359375 0,45.556640625 10.8984375,12.861328125 12.4658203125,9.697265625 14.8095703125,7.11914014816284 17.75390625,5.2880859375 21.15234375,4.33593797683716 25.48828125,0z" />
    </g>
  </g>
</svg>