<?xml version="1.0" encoding="utf-8"?>
<!DOCTYPE svg PUBLIC "-//W3C//DTD SVG 1.1//EN" "http://www.w3.org/Graphics/SVG/1.1/DTD/svg11.dtd">
<svg width="67.3828125000004" height="67.3828125" xmlns="http://www.w3.org/2000/svg" xmlns:xlink="http://www.w3.org/1999/xlink" xmlns:xml="http://www.w3.org/XML/1998/namespace" version="1.1">
  <g>
    <g>
      <path style="fill:#FF0000;fill-opacity:1" d="M15.791015625,33.69140625L17.28515625,34.306640625 17.900390625,35.80078125 17.28515625,37.294921875 15.791015625,37.91015625 14.5751953125,38.1591796875 13.564453125,38.84765625 12.8759765625,39.8583984375 12.626953125,41.07421875 12.8759765625,42.2900390625 13.564453125,43.2861328125 14.5751953125,43.9599609375 15.791015625,44.208984375 26.89453125,44.208984375 26.30859375,42.12890625 26.6455078125,40.48828125 27.5537109375,39.1552734375 28.88671875,38.2470703125 30.52734375,37.91015625 36.85546875,37.91015625 37.6025390625,38.2177734375 37.91015625,38.96484375 37.6025390625,39.7119140625 36.85546875,40.01953125 30.52734375,40.01953125 29.033203125,40.634765625 28.41796875,42.12890625 29.0478515625,43.59375 30.52734375,44.208984375 33.69140625,44.208984375 35.1708984375,44.8388671875 35.80078125,46.318359375 35.185546875,47.8125 33.69140625,48.427734375 30.52734375,48.427734375 29.033203125,49.04296875 28.41796875,50.537109375 29.033203125,52.03125 30.52734375,52.646484375 36.85546875,52.646484375 37.6025390625,52.9541015625 37.91015625,53.701171875 37.6025390625,54.4482421875 36.85546875,54.755859375 30.52734375,54.755859375 28.88671875,54.4189453125 27.5537109375,53.5107421875 26.6455078125,52.177734375 26.30859375,50.537109375 26.89453125,48.427734375 15.791015625,48.427734375 12.9345703125,47.841796875 10.5908203125,46.259765625 8.994140625,43.9306640625 8.408203125,41.07421875 8.994140625,38.203125 10.576171875,35.859375 12.919921875,34.27734375 15.791015625,33.69140625z M22.119140625,23.173828125L24.9755859375,23.759765625 27.3046875,25.341796875 28.88671875,27.6708984375 29.47265625,30.52734375 29.47265625,31.58203125 27.36328125,31.58203125 26.953125,29.53125 25.8251953125,27.8466796875 24.1552734375,26.71875 22.119140625,26.30859375 20.068359375,26.71875 18.3837890625,27.8466796875 17.255859375,29.53125 16.845703125,31.58203125 14.736328125,31.58203125 14.736328125,30.52734375 15.322265625,27.65625 16.904296875,25.3125 19.248046875,23.7451171875 22.119140625,23.173828125z M33.69140625,12.626953125L33.69140625,16.845703125 32.05078125,17.1826171875 30.7177734375,18.0908203125 29.8095703125,19.423828125 29.47265625,21.064453125 25.25390625,21.064453125 25.9130859375,17.7685546875 27.71484375,15.087890625 30.3955078125,13.2861328125 33.69140625,12.626953125z M56.8359375,4.21874952316284L57.333984375,6.6796875 58.6962890625,8.671875 60.703125,10.01953125 63.1640625,10.517578125 63.1640625,4.21874952316284 56.8359375,4.21874952316284z M44.208984375,4.21874952316284L44.208984375,4.27734375 44.8974609375,9.287109375 46.81640625,13.798828125 49.7900390625,17.6220703125 53.642578125,20.56640625 58.1689453125,22.4853515625 63.1640625,23.173828125 63.1640625,16.845703125 60.633544921875,16.5966796875 58.2568359375,15.849609375 54.2431640625,13.1396474838257 51.533203125,9.1259765625 50.7861289978027,6.749267578125 50.537109375,4.21874952316284 44.208984375,4.21874952316284z M33.69140625,4.21874952316284L28.85009765625,4.61059856414795 24.169921875,5.7861328125 19.7460918426514,7.716064453125 15.673828125,10.37109375 16.845703125,10.517578125 16.845703125,14.736328125 14.47998046875,14.40673828125 12.3046875,13.41796875 8.84033203125,17.81982421875 6.298828125,22.763671875 4.73876953125,28.1030292510986 4.21875,33.69140625 4.482421875,37.686767578125 5.2734375,41.5283203125 6.54418849945068,45.172119140625 8.2470703125,48.57421875 10.3564453125,51.705322265625 12.8466796875,54.5361328125 15.677490234375,57.0263671875 18.80859375,59.1357421875 22.2106914520264,60.838623046875 25.8544921875,62.109375 29.696044921875,62.900390625 33.69140625,63.1640625 38.4228515625,62.79052734375 43.0078125,61.669921875 47.3510704040527,59.83154296875 51.357421875,57.3046875 49.482421875,56.865234375 49.482421875,52.646484375 52.20703125,53.115234375 54.638671875,54.43359375 58.2861328125,49.95849609375 60.966796875,44.912109375 62.61474609375,39.44091796875 63.1640625,33.69140625 63.0908203125,31.58203125 62.87109375,29.47265625 57.0263671875,28.740234375 51.533203125,26.630859375 52.3681602478027,28.4985370635986 52.646484375,30.52734375 52.646484375,31.58203125 50.537109375,31.58203125 50.126953125,29.53125 48.9990234375,27.8466796875 47.314453125,26.71875 45.263671875,26.30859375 43.212890625,26.71875 41.5283203125,27.8466796875 40.400390625,29.53125 39.990234375,31.58203125 37.91015625,31.58203125 37.91015625,30.52734375 38.4814453125,27.65625 40.048828125,25.3125 42.392578125,23.7451171875 45.263671875,23.173828125 45.9375,23.203125 46.611328125,23.291015625 42.94921875,19.365234375 40.2392578125,14.8388671875 38.5400390625,9.84375 37.91015625,4.51171875 35.80078125,4.2919921875 33.69140625,4.21874952316284z M33.69140625,0L67.3828125,0 67.3828125,33.544921875 66.932373046875,39.16259765625 65.5810546875,44.58984375 63.343505859375,49.716796875 60.234375,54.43359375 61.640625,57.6123046875 62.109375,61.0546875 62.109375,65.2734375 49.482421875,65.2734375 49.482421875,63.45703125 45.7397422790527,65.174560546875 41.8359375,66.4013671875 37.8076171875,67.137451171875 33.69140625,67.3828125 29.124755859375,67.08251953125 24.7412109375,66.181640625 20.5847148895264,64.7314453125 16.69921875,62.783203125 13.11767578125,60.3662109375 9.873046875,57.509765625 7.01660060882568,54.26513671875 4.599609375,50.68359375 2.6513671875,46.79443359375 1.201171875,42.626953125 0.300292611122131,38.23974609375 0,33.69140625 0.421142399311066,28.3300800323486 1.6845703125,23.14453125 3.753662109375,18.22998046875 6.591796875,13.681640625 4.8193359375,10.1953125 4.21875,6.328125 4.21875,2.10937476158142 16.845703125,2.10937476158142 16.845703125,4.51171875 20.8117656707764,2.53784465789795 24.9755859375,1.1279296875 29.285888671875,0.281985282897949 33.69140625,0z" />
    </g>
  </g>
</svg>