<?xml version="1.0" encoding="utf-8"?>
<!DOCTYPE svg PUBLIC "-//W3C//DTD SVG 1.1//EN" "http://www.w3.org/Graphics/SVG/1.1/DTD/svg11.dtd">
<svg width="67.3828125000116" height="61.0546875" xmlns="http://www.w3.org/2000/svg" xmlns:xlink="http://www.w3.org/1999/xlink" xmlns:xml="http://www.w3.org/XML/1998/namespace" version="1.1">
  <g>
    <g>
      <path style="fill:#FF0000;fill-opacity:1" d="M8.291015625,39.580078125L8.642578125,40.693359375 9.2431640625,42.5830078125 9.9755859375,44.853515625 10.7666015625,47.1240234375 11.484375,48.984375 12.01171875,50.0390625 14.6044921875,52.3681640625 18.076171875,54.1259765625 22.08984375,55.400390625 26.2646484375,56.2353515625 30.2490234375,56.689453125 33.69140625,56.8359375 37.20703125,56.7041015625 41.19140625,56.25 45.3076171875,55.4150390625 49.248046875,54.1552734375 52.705078125,52.3828125 55.37109375,50.0390625 56.07421875,48.6328125 56.89453125,46.34765625 57.65625,43.9892578125 58.18359375,42.36328125 59.091796875,39.580078125 53.525390625,42.7734375 46.9921875,44.853515625 40.166015625,45.9814453125 33.75,46.318359375 27.3193359375,45.9814453125 20.44921875,44.853515625 13.8720703125,42.7734375 8.291015625,39.580078125z M42.099609375,29.47265625L43.3740234375,30.029296875 45.146484375,30.8349609375 46.81640625,31.669921875 47.841796875,32.34375 48.427734375,33.896484375 47.7978515625,35.2294921875 46.40625,35.771484375 44.970703125,35.185546875 44.296875,34.1748046875 43.4619140625,32.5048828125 42.65625,30.7470703125 42.099609375,29.47265625z M33.69140625,29.47265625L34.21875,30.8056640625 34.921875,32.6806640625 35.537109375,34.5263671875 35.80078125,35.7421875 35.2001953125,37.2802734375 33.69140625,37.91015625 32.2119140625,37.2802734375 31.58203125,35.80078125 31.845703125,34.541015625 32.4609375,32.6953125 33.1640625,30.8203125 33.69140625,29.47265625z M25.25390625,29.47265625L24.7119140625,30.732421875 23.9208984375,32.490234375 23.0859375,34.16015625 22.412109375,35.185546875 20.9765625,35.771484375 19.5703125,35.21484375 18.955078125,33.837890625 19.541015625,32.34375 20.595703125,31.640625 22.236328125,30.8203125 23.9501953125,30.0439453125 25.25390625,29.47265625z M12.626953125,25.25390625L13.857421875,25.517578125 15.7177734375,26.1328125 17.607421875,26.8359375 18.955078125,27.36328125 17.5927734375,27.890625 15.732421875,28.59375 13.9013671875,29.208984375 12.626953125,29.47265625 11.1474609375,28.8427734375 10.517578125,27.36328125 11.1474609375,25.8837890625 12.626953125,25.25390625z M38.642578125,17.05078125L39.67529296875,20.0244159698486 40.01953125,23.14453125 39.6826171875,24.78515625 38.7744140625,26.1181640625 37.44140625,27.0263671875 35.80078125,27.36328125 34.1455078125,27.041015625 32.7978515625,26.1474609375 31.904296875,24.7998046875 31.58203125,23.14453125 31.2744140625,21.2255859375 30.4541015625,19.716796875 29.296875,18.427734375 27.94921875,17.109375 26.1328125,17.314453125 27.0556640625,20.1708984375 27.36328125,23.14453125 27.041015625,24.78515625 26.1474609375,26.1181640625 24.814453125,27.0263671875 23.173828125,27.36328125 21.5185546875,27.041015625 20.1708984375,26.1474609375 19.27734375,24.7998046875 18.955078125,23.14453125 18.57421875,21.09375 17.51953125,19.27734375 14.4287109375,20.5224609375 11.19140625,22.2802734375 8.408203125,24.580078125 6.6796875,27.421875 6.4892578125,27.392578125 6.298828125,27.392578125 4.833984375,27.9931640625 4.21875,29.47265625 4.833984375,30.966796875 6.328125,31.58203125 6.50390625,31.5673828125 6.6796875,31.552734375 6.73828125,31.640625 5.91796875,32.40234375 5.625,33.486328125 6.240234375,34.9951171875 7.763671875,35.595703125 8.49609375,35.4638671875 9.140625,35.068359375 9.228515625,35.15625 8.876953125,35.7421875 8.759765625,36.4453125 8.994140625,37.412109375 9.638671875,38.173828125 10.2099609375,38.466796875 10.83984375,38.5546875 11.337890625,38.4814453125 11.89453125,38.2763671875 12.36328125,37.96875 12.65625,37.55859375 12.744140625,37.6171875 12.5830078125,38.056640625 12.5390625,38.5546875 12.7001953125,39.345703125 13.154296875,40.01953125 13.8134765625,40.48828125 14.619140625,40.6640625 15.791015625,40.2978515625 16.58203125,39.345703125 16.69921875,39.375 16.611328125,39.6826171875 16.58203125,40.01953125 17.197265625,41.5283203125 18.69140625,42.158203125 19.951171875,41.748046875 20.7421875,40.60546875 20.830078125,40.6640625 20.80078125,40.8544921875 20.80078125,41.044921875 21.416015625,42.568359375 22.91015625,43.212890625 24.2431640625,42.71484375 24.9609375,41.455078125 25.078125,41.455078125 25.60546875,43.1396484375 27.1875,43.857421875 27.8759765625,43.7109375 28.5498046875,43.3154296875 29.0625,42.744140625 29.267578125,42.0703125 29.267578125,41.953125 29.384765625,41.953125 29.53125,42.7734375 29.9560546875,43.4912109375 30.6005859375,43.9892578125 31.40625,44.1796875 32.9150390625,43.6083984375 33.603515625,42.099609375 33.720703125,42.158203125 34.365234375,43.59375 35.830078125,44.1796875 37.353515625,43.53515625 37.939453125,41.953125 38.056640625,41.953125 38.056640625,42.0703125 38.26171875,42.744140625 38.7890625,43.3154296875 39.4775390625,43.7109375 40.166015625,43.857421875 41.6455078125,43.2275390625 42.24609375,41.748046875 42.216796875,41.484375 42.36328125,41.455078125 42.36328125,41.572265625 42.568359375,42.158203125 43.0810546875,42.685546875 43.740234375,43.06640625 44.4140625,43.212890625 45.8935546875,42.59765625 46.5234375,41.1328125 46.5234375,40.869140625 46.46484375,40.634765625 46.611328125,40.6640625 47.373046875,41.748046875 48.6328125,42.158203125 50.126953125,41.54296875 50.7421875,40.048828125 50.712890625,39.7119140625 50.625,39.404296875 50.7421875,39.345703125 51.50390625,40.2978515625 52.705078125,40.6640625 54.169921875,40.048828125 54.78515625,38.583984375 54.7412109375,38.0859375 54.580078125,37.646484375 54.697265625,37.587890625 55.4663047790527,38.3349609375 56.484375,38.583984375 57.9638671875,37.9541015625 58.59375,36.474609375 58.4765625,35.7861328125 58.125,35.185546875 58.2421875,35.068359375 58.8720703125,35.5078125 59.619140625,35.654296875 61.0986328125,35.0244140625 61.728515625,33.544921875 61.435546875,32.490234375 60.64453125,31.69921875 60.703125,31.552734375 60.849609375,31.552734375 62.4755859375,31.0400390625 63.1640625,29.47265625 62.5341796875,27.978515625 61.025390625,27.36328125 60.703125,27.392578125 59.267578125,24.990234375 57.2314453125,23.0126953125 54.8291015625,21.4306640625 52.32421875,20.21484375 52.55859375,21.6650390625 52.646484375,23.14453125 52.294921875,24.8583984375 51.26953125,26.279296875 52.03125,25.986328125 53.0126953125,25.6494140625 54.0087890625,25.37109375 54.755859375,25.25390625 56.2353515625,25.8837890625 56.865234375,27.36328125 56.2353515625,28.8427734375 54.755859375,29.47265625 53.4814453125,29.208984375 51.650390625,28.59375 49.7900390625,27.890625 48.427734375,27.36328125 46.7724609375,27.041015625 45.4248046875,26.1474609375 44.53125,24.7998046875 44.208984375,23.14453125 43.9306640625,21.3134765625 43.1689453125,19.8046875 42.0556640625,18.486328125 40.72265625,17.255859375 39.6826171875,17.1533203125 38.642578125,17.05078125z M40.048828125,4.21874952316284L38.5400390625,4.81933546066284 37.91015625,6.29882860183716 38.243408203125,9.25048828125 39.2431640625,11.89453125 40.8142051696777,14.2529296875 42.861328125,16.34765625 45.3662109375,19.3505859375 46.0803184509277,21.1413593292236 46.318359375,23.14453125 46.93359375,24.638671875 48.427734375,25.283203125 49.921875,24.6533203125 50.537109375,23.14453125 50.2807579040527,20.6140155792236 49.51171875,18.2373046875 48.2812461853027,16.051025390625 46.640625,14.091796875 45.703125,13.2421865463257 44.765625,12.392578125 42.9345703125,9.84375 42.12890625,6.796875 42.099609375,6.416015625 42.099609375,6.03515625 41.4111328125,4.7314453125 40.048828125,4.21874952316284z M27.392578125,4.21874952316284L25.8984375,4.81933546066284 25.25390625,6.29882860183716 25.5908203125,9.19921875 26.6015625,11.865234375 28.18359375,14.26025390625 30.234375,16.34765625 32.724609375,19.3798828125 33.44970703125,21.1926288604736 33.69140625,23.14453125 34.2626953125,24.609375 35.68359375,25.25390625 37.265625,24.66796875 37.91015625,23.14453125 37.5732421875,20.2111835479736 36.5625,17.5634765625 34.98046875,15.201416015625 32.9296875,13.125 30.41015625,10.107421875 29.70703125,8.3056640625 29.47265625,6.29882860183716 28.857421875,4.83398389816284 27.392578125,4.21874952316284z M14.736328125,4.18945360183716L13.2568359375,4.81933546066284 12.626953125,6.29882860183716 12.960205078125,9.246826171875 13.9599609375,11.8798828125 15.538330078125,14.234619140625 17.607421875,16.34765625 20.1123046875,19.365234375 20.8264141082764,21.1596698760986 21.064453125,23.14453125 21.6796875,24.6240234375 23.14453125,25.25390625 24.638671875,24.638671875 25.25390625,23.14453125 24.920654296875,20.2148456573486 23.9208984375,17.578125 22.3498516082764,15.2197265625 20.302734375,13.125 17.783203125,10.107421875 17.0800762176514,8.3056640625 16.845703125,6.29882860183716 16.2158203125,4.80468797683716 14.736328125,4.18945360183716z M14.736328125,0L17.1826171875,0.498046815395355 19.2041015625,1.86035132408142 20.56640625,3.86718726158142 21.064453125,6.29882860183716 21.5625,3.86718726158142 22.91015625,1.86035132408142 24.9169921875,0.498046815395355 27.36328125,0 29.8095703125,0.498046815395355 31.8310546875,1.86035132408142 33.193359375,3.86718726158142 33.69140625,6.29882860183716 34.189453125,3.86718726158142 35.5517578125,1.86035132408142 37.5732421875,0.498046815395355 40.01953125,0 42.451171875,0.498046815395355 44.4580078125,1.86035132408142 45.8203125,3.86718726158142 46.318359375,6.29882860183716 46.8896484375,8.291015625 48.251953125,9.873046875 50.9912109375,12.65625 53.0859375,15.966796875 56.0595703125,17.314453125 58.916015625,19.0283203125 61.46484375,21.1376953125 63.515625,23.671875 65.09765625,24.580078125 66.3134765625,25.986328125 67.1044921875,27.685546875 67.3828125,29.47265625 67.3095703125,30.146484375 67.236328125,30.8203125 67.3095703125,31.7138671875 67.3828125,32.63671875 67.05322265625,35.33935546875 66.064453125,37.822265625 62.724609375,42.041015625 60.029296875,50.09765625 58.59375,52.734375 55.4736328125,55.576171875 51.5478515625,57.744140625 47.0947265625,59.3115234375 42.4365234375,60.322265625 37.8662109375,60.87890625 33.69140625,61.0546875 29.4873046875,60.87890625 24.931640625,60.322265625 20.302734375,59.3115234375 15.87890625,57.7587890625 11.9384765625,55.5908203125 8.7890625,52.734375 7.939453125,51.4892578125 7.35351657867432,50.09765625 4.658203125,42.041015625 1.31836032867432,37.822265625 0.329589605331421,35.33935546875 0,32.63671875 0.0439457893371582,31.7431640625 0.146484375,30.849609375 0,29.47265625 0.263671517372131,27.630615234375 1.0546875,25.9716796875 2.28515625,24.6130390167236 3.8671875,23.671875 5.52245998382568,21.5185565948486 7.55859375,19.6875 12.216796875,16.875 10.587158203125,14.490966796875 9.3896484375,11.9091796875 8.653564453125,9.166259765625 8.408203125,6.29882860183716 8.90625,3.86718726158142 10.2685546875,1.86035132408142 12.2900390625,0.498046815395355 14.736328125,0z" />
    </g>
  </g>
</svg>