<?xml version="1.0" encoding="utf-8"?>
<!DOCTYPE svg PUBLIC "-//W3C//DTD SVG 1.1//EN" "http://www.w3.org/Graphics/SVG/1.1/DTD/svg11.dtd">
<svg width="67.3828125000004" height="67.3828125" xmlns="http://www.w3.org/2000/svg" xmlns:xlink="http://www.w3.org/1999/xlink" xmlns:xml="http://www.w3.org/XML/1998/namespace" version="1.1">
  <g>
    <g>
      <path style="fill:#FF0000;fill-opacity:1" d="M43.154296875,46.845703125L36.85546875,49.482421875 36.85546875,58.9453125 34.74609375,58.9453125 34.74609375,50.361328125 28.41796875,52.96875 28.41796875,56.8359375 29.00390625,59.70703125 30.5859375,62.05078125 32.9296875,63.6328125 35.80078125,64.21875 38.6572265625,63.6328125 40.986328125,62.0361328125 42.568359375,59.6923828125 43.154296875,56.8359375 43.154296875,46.845703125z M50.390625,35.888671875L23.4375,47.05078125 24.7119140625,48.8525390625 26.220703125,50.44921875 50.830078125,40.25390625 50.830078125,39.55078125 50.7275390625,37.705078125 50.390625,35.888671875z M21.064453125,32.109375L22.5,32.40234375 23.671875,33.193359375 24.462890625,34.365234375 24.755859375,35.80078125 24.462890625,37.236328125 23.671875,38.408203125 22.5,39.19921875 21.064453125,39.4921875 19.62890625,39.19921875 18.45703125,38.408203125 17.666015625,37.236328125 17.373046875,35.80078125 17.666015625,34.365234375 18.45703125,33.193359375 19.62890625,32.40234375 21.064453125,32.109375z M21.09375,25.283203125L17.7978515625,25.9423828125 15.1171875,27.7294921875 13.30078125,30.3955078125 12.626953125,33.69140625 13.30078125,36.9873046875 15.1171875,39.6533203125 17.7978515625,41.4404296875 21.09375,42.099609375 24.375,41.4404296875 27.0263671875,39.638671875 28.8134765625,36.97265625 29.47265625,33.69140625 28.8134765625,30.4248046875 27.0263671875,27.744140625 24.375,25.9423828125 21.09375,25.283203125z M21.064453125,23.14453125L23.1921367645264,23.3532733917236 25.1806640625,23.9794921875 28.5205078125,26.25 30.7763671875,29.6044921875 31.402587890625,31.585693359375 31.611328125,33.69140625 31.402587890625,35.8154296875 30.7763671875,37.79296875 28.505859375,41.1328125 25.1513671875,43.388671875 23.1701641082764,44.00390625 21.064453125,44.208984375 18.9367656707764,44.00390625 16.9482421875,43.388671875 13.6083984375,41.1328125 11.3525390625,37.79296875 10.726318359375,35.8154296875 10.517578125,33.69140625 10.726318359375,31.585693359375 11.3525390625,29.6044921875 13.623046875,26.25 16.9775390625,23.9794921875 18.9587383270264,23.3532733917236 21.064453125,23.14453125z M40.01953125,16.58203125L41.748046875,16.93359375 43.18359375,17.900390625 44.150390625,19.3359375 44.501953125,21.064453125 44.150390625,22.8076171875 43.18359375,24.228515625 41.748046875,25.1953125 40.01953125,25.546875 38.2763671875,25.1953125 36.85546875,24.228515625 35.888671875,22.8076171875 35.537109375,21.064453125 35.888671875,19.3359375 36.85546875,17.900390625 38.2763671875,16.93359375 40.01953125,16.58203125z M41.07421875,12.65625L37.3828125,13.4033203125 34.365234375,15.4248046875 32.3291015625,18.427734375 31.58203125,22.119140625 32.3291015625,25.7958984375 34.365234375,28.798828125 37.3681640625,30.8349609375 41.044921875,31.58203125 44.736328125,30.8349609375 47.75390625,28.8134765625 49.7900390625,25.810546875 50.537109375,22.119140625 49.7900390625,18.4423828125 47.75390625,15.439453125 44.7509765625,13.4033203125 41.07421875,12.65625z M41.07421875,10.546875L43.4033164978027,10.77392578125 45.5859375,11.455078125 49.2626953125,13.9306640625 51.73828125,17.607421875 52.4194297790527,19.7900390625 52.646484375,22.119140625 52.4194297790527,24.4482440948486 51.73828125,26.630859375 49.2626953125,30.3076171875 45.5859375,32.783203125 43.4033164978027,33.46435546875 41.07421875,33.69140625 38.7451171875,33.46435546875 36.5625,32.783203125 32.8857421875,30.3076171875 30.41015625,26.630859375 29.72900390625,24.4482440948486 29.501953125,22.119140625 29.72900390625,19.7900390625 30.41015625,17.607421875 32.8857421875,13.9306640625 36.5625,11.455078125 38.7451171875,10.77392578125 41.07421875,10.546875z M33.69140625,4.21874952316284L29.696044921875,4.48242473602295 25.8544921875,5.2734375 22.2106914520264,6.54419231414795 18.80859375,8.2470703125 15.677490234375,10.360107421875 12.8466796875,12.861328125 10.3564453125,15.703125 8.2470703125,18.837890625 6.54418849945068,22.239990234375 5.2734375,25.8837890625 4.482421875,29.7180194854736 4.21875,33.69140625 4.423828125,37.20703125 5.0390625,40.60546875 7.3681640625,46.9482421875 11.0302734375,52.5439453125 15.8642578125,57.1728515625 21.6943359375,60.615234375 24.927978515625,61.8310546875 28.330078125,62.666015625 27.24609375,60.966796875 26.6162109375,59.2529296875 26.337890625,57.509765625 26.279296875,55.693359375 26.2939453125,54.4921875 26.30859375,53.232421875 22.91015625,50.009765625 20.537109375,45.966796875 51.6796875,33.076171875 52.6171875,36.240234375 52.939453125,39.521484375 52.412109375,43.6962890625 50.888671875,47.5634765625 48.4716796875,50.947265625 45.263671875,53.671875 45.2783203125,54.814453125 45.29296875,55.927734375 45.1025390625,58.5791015625 44.208984375,61.23046875 48.2922325134277,59.30419921875 51.9873046875,56.806640625 55.2319297790527,53.814697265625 57.9638671875,50.4052734375 60.1611328125,46.6259765625 61.8017578125,42.5244140625 62.823486328125,38.184814453125 63.1640625,33.69140625 62.900390625,29.6960468292236 62.109375,25.8544921875 60.838623046875,22.21435546875 59.1357421875,18.8232421875 57.022705078125,15.699462890625 54.521484375,12.861328125 51.6796836853027,10.360107421875 48.544921875,8.2470703125 45.1428184509277,6.54419231414795 41.4990234375,5.2734375 37.664794921875,4.48242473602295 33.69140625,4.21874952316284z M33.69140625,0L38.23974609375,0.300295770168304 42.626953125,1.20117139816284 46.7944297790527,2.65137004852295 50.68359375,4.59960889816284 54.2651329040527,7.0166015625 57.509765625,9.873046875 60.3662109375,13.114013671875 62.783203125,16.6845703125 64.7314453125,20.562744140625 66.181640625,24.7265625 67.08251953125,29.1210956573486 67.3828125,33.69140625 67.08251953125,38.258056640625 66.181640625,42.6416015625 64.7314453125,46.798095703125 62.783203125,50.68359375 60.3662109375,54.26513671875 57.509765625,57.509765625 54.2687950134277,60.3662109375 50.6982421875,62.783203125 46.8200645446777,64.7314453125 42.65625,66.181640625 38.26171875,67.08251953125 33.69140625,67.3828125 29.124755859375,67.08251953125 24.7412109375,66.181640625 20.5847148895264,64.7314453125 16.69921875,62.783203125 13.11767578125,60.3662109375 9.873046875,57.509765625 7.01660060882568,54.268798828125 4.599609375,50.6982421875 2.6513671875,46.820068359375 1.201171875,42.65625 0.300292611122131,38.26171875 0,33.69140625 0.300292611122131,29.1430683135986 1.201171875,24.755859375 2.6513671875,20.58837890625 4.599609375,16.69921875 7.01660060882568,13.11767578125 9.873046875,9.873046875 13.114013671875,7.0166015625 16.6845703125,4.59960889816284 20.5627422332764,2.65137004852295 24.7265625,1.20117139816284 29.12109375,0.300295770168304 33.69140625,0z" />
    </g>
  </g>
</svg>