<?xml version="1.0" encoding="utf-8"?>
<!DOCTYPE svg PUBLIC "-//W3C//DTD SVG 1.1//EN" "http://www.w3.org/Graphics/SVG/1.1/DTD/svg11.dtd">
<svg width="37.9101562500008" height="56.8359375" xmlns="http://www.w3.org/2000/svg" xmlns:xlink="http://www.w3.org/1999/xlink" xmlns:xml="http://www.w3.org/XML/1998/namespace" version="1.1">
  <g>
    <g>
      <path style="fill:#FF0000;fill-opacity:1" d="M11.07421875,42.0703125L6.357421875,44.736328125 4.7900390625,46.3037109375 4.21875,48.427734375 4.5556640625,50.09765625 5.478515625,51.416015625 6.8408203125,52.294921875 8.49609375,52.6171875 9.66796875,52.5439453125 10.986328125,52.3828125 12.3046875,52.1923828125 13.4765625,52.03125 23.173828125,50.80078125 23.173828125,46.318359375 10.517578125,46.318359375 11.1474609375,44.8388671875 12.626953125,44.208984375 14.53125,44.208984375 12.5244140625,43.5791015625 11.07421875,42.0703125z M20.68359375,39.990234375L17.724609375,42.978515625 16.40625,43.8720703125 14.912109375,44.208984375 25.25390625,44.208984375 25.25390625,50.5078125 29.47265625,52.6171875 33.69140625,52.6171875 33.69140625,51.5625 33.4423828125,50.33203125 32.75390625,49.3359375 31.7431640625,48.6767578125 30.52734375,48.427734375 30.1904296875,47.0068359375 29.7216796875,45.64453125 28.8720703125,44.619140625 27.421875,44.208984375 25.751953125,44.208984375 26.953125,42.2607421875 27.36328125,39.990234375 20.68359375,39.990234375z M18.955078125,25.25390625L18.955078125,32.8125 18.33984375,33.427734375 17.2412109375,34.4970703125 15.908203125,35.7861328125 14.6044921875,37.08984375 13.564453125,38.1591796875 13.037109375,38.759765625 12.7294921875,39.345703125 12.626953125,39.990234375 13.2568359375,41.4697265625 14.736328125,42.099609375 16.23046875,41.484375 22.55859375,35.15625 23.173828125,33.662109375 23.173828125,25.25390625 18.955078125,25.25390625z M18.955078125,21.03515625L17.314453125,21.3720703125 15.9814453125,22.2802734375 15.0732421875,23.61328125 14.736328125,25.25390625 14.736328125,34.04296875 16.845703125,31.93359375 16.845703125,23.14453125 25.25390625,23.14453125 25.25390625,33.662109375 24.638671875,35.859375 23.14453125,37.529296875 22.79296875,37.880859375 27.36328125,37.880859375 27.36328125,25.25390625 27.041015625,23.61328125 26.1474609375,22.2802734375 24.814453125,21.3720703125 23.173828125,21.03515625 18.955078125,21.03515625z M18.955078125,9.638671875L18.6474609375,10.693359375 17.9296875,11.279296875 16.9482421875,11.54296875 15.87890625,11.6015625 15.2783203125,11.5869140625 14.736328125,11.572265625 14.736328125,12.626953125 15.234375,15.087890625 16.5966796875,17.080078125 18.603515625,18.427734375 21.064453125,18.92578125 23.7158203125,18.33984375 25.869140625,16.728515625 25.341796875,16.1865234375 25.224609375,15.439453125 25.2392578125,15.087890625 25.25390625,14.736328125 24.9609375,14.4140625 25.25390625,13.681640625 25.25390625,12.626953125 24.9462890625,11.89453125 24.228515625,11.572265625 23.6572265625,11.7041015625 23.3349609375,12.0556640625 23.203125,12.5537109375 23.173828125,13.095703125 23.173828125,13.681640625 21.5771484375,13.3740234375 20.2587890625,12.509765625 19.3359375,11.220703125 18.955078125,9.638671875z M21.064453125,0L23.2617168426514,0.223388671875 25.283203125,0.8935546875 28.6083984375,3.310546875 30.791015625,6.826171875 31.38427734375,8.876953125 31.58203125,11.044921875 31.5673828125,12.6123046875 31.46484375,14.00390625 31.201171875,15.380859375 30.673828125,16.875 30.673828125,17.05078125 29.970703125,18.22265625 29.150390625,19.3359375 30.9521484375,22.060546875 31.58203125,25.25390625 31.58203125,39.990234375 31.494140625,41.337890625 33.076171875,42.9931640625 34.04296875,45.087890625 35.625,46.248779296875 36.85546875,47.7978515625 37.646484375,49.610595703125 37.91015625,51.5625 37.91015625,56.8359375 28.4765625,56.8359375 24.521484375,54.873046875 9.4921875,56.77734375 8.96484375,56.8359375 8.408203125,56.8359375 5.0830078125,56.19140625 2.4169921875,54.404296875 0.64453125,51.7236328125 0,48.3984375 0.252685189247131,46.28173828125 1.0107421875,44.384765625 2.222900390625,42.73681640625 3.837890625,41.3671875 6.0791015625,40.01953125 8.37890625,38.759765625 9.931640625,37.20703125 10.517578125,35.09765625 10.517578125,25.25390625 11.162109375,22.0458984375 12.978515625,19.306640625 11.162109375,16.1865234375 10.517578125,12.626953125 10.517578125,11.19140625 10.6201171875,9.169921875 11.162109375,7.001953125 12.71484375,4.130859375 15,1.9189453125 17.841796875,0.498046398162842 21.064453125,0z" />
    </g>
  </g>
</svg>