<?xml version="1.0" encoding="utf-8"?>
<!DOCTYPE svg PUBLIC "-//W3C//DTD SVG 1.1//EN" "http://www.w3.org/Graphics/SVG/1.1/DTD/svg11.dtd">
<svg width="58.9453125" height="67.3828125" xmlns="http://www.w3.org/2000/svg" xmlns:xlink="http://www.w3.org/1999/xlink" xmlns:xml="http://www.w3.org/XML/1998/namespace" version="1.1">
  <g>
    <g>
      <path style="fill:#FF0000;fill-opacity:1" d="M44.4140625,54.609375L43.505859375,54.8583984375 42.24609375,55.4296875 41.103515625,56.0302734375 40.546875,56.337890625 39.43359375,57.36328125 38.173828125,58.6376953125 36.9140625,59.94140625 35.80078125,61.0546875 36.474609375,61.8017578125 37.20703125,62.490234375 38.96484375,63.1640625 39.8291015625,63.017578125 40.60546875,62.578125 43.0810546875,60.1318359375 45.556640625,57.65625 45.9521484375,57.041015625 46.083984375,56.337890625 45.6298828125,55.1220703125 44.4140625,54.609375z M5.06835985183716,48.369140625L4.43115282058716,49.7314453125 4.21875047683716,51.240234375 4.21875047683716,63.1640625 6.32812547683716,63.1640625 6.32812547683716,51.240234375 6.32812547683716,50.9326171875 6.38671922683716,50.625 5.06835985183716,48.369140625z M32.109375,47.900390625L30.556640625,51.064453125 28.9453125,54.19921875 34.306640625,59.58984375 39.052734375,54.84375 32.109375,47.900390625z M40.01953125,46.318359375L36.767578125,49.5703125 40.95703125,53.759765625 42.6416015625,52.9248046875 44.4140625,52.5 45.908203125,52.79296875 47.109375,53.5986328125 47.900390625,54.814453125 48.193359375,56.30859375 47.8857421875,57.8173828125 47.021484375,59.12109375 42.978515625,63.1640625 54.755859375,63.1640625 54.755859375,52.646484375 48.427734375,52.646484375 42.099609375,46.318359375 40.01953125,46.318359375z M46.376953125,33.69140625L46.376953125,37.91015625 46.0400390625,39.521484375 45.1318359375,40.8544921875 43.798828125,41.7626953125 42.1875,42.12890625 48.10546875,48.046875 50.8447265625,49.86328125 54.052734375,50.5078125 54.755859375,50.5078125 54.755859375,42.041015625 50.56640625,37.880859375 46.376953125,33.69140625z M27.626953125,33.69140625L29.1796875,36.85546875 30.791015625,40.01953125 37.91015625,40.01953125 37.91015625,33.69140625 27.626953125,33.69140625z M25.25390625,33.69140625L17.900390625,41.07421875 6.32812547683716,41.07421875 6.32812547683716,44.208984375 6.98730516433716,47.5048828125 8.7744140625,50.185546875 11.4404296875,51.9873046875 14.736328125,52.646484375 27.36328125,52.646484375 30.52734375,46.318359375 22.119140625,46.318359375 28.41796875,40.01953125 25.25390625,33.69140625z M22.939453125,29.47265625L22.1923828125,30.966796875 21.064453125,32.197265625 21.064453125,34.921875 24.140625,31.845703125 24.4189453125,31.40625 24.7119140625,30.7177734375 24.9462890625,30 25.107421875,29.47265625 22.939453125,29.47265625z M43.0078125,27.36328125L41.923828125,28.037109375 41.5283203125,28.9599609375 41.0888671875,30.29296875 40.6787109375,31.640625 40.37109375,32.63671875 40.1513671875,33.1494140625 40.01953125,33.69140625 40.01953125,40.01953125 42.099609375,40.01953125 43.59375,39.404296875 44.208984375,37.91015625 44.208984375,28.59375 43.857421875,27.7294921875 43.0078125,27.36328125z M8.759765625,22.3828125L6.97265672683716,24.5947265625 6.32812547683716,27.36328125 6.32812547683716,38.96484375 17.021484375,38.96484375 18.955078125,37.03125 18.955078125,29.47265625 17.87109375,29.47265625 16.025390625,31.0400390625 13.681640625,31.58203125 11.630859375,31.171875 9.9462890625,30.0439453125 8.818359375,28.359375 8.408203125,26.30859375 8.408203125,24.228515625 8.759765625,22.3828125z M37.880859375,20.09765625L36.26953125,21.708984375 36.416015625,22.7197265625 36.6943359375,24.521484375 37.03125,26.71875 37.353515625,28.9013671875 37.6025390625,30.64453125 37.705078125,31.552734375 37.998046875,31.58203125 38.49609375,31.58203125 39.228515625,29.35546875 37.880859375,20.09765625z M12.01171875,14.12109375L10.517578125,15.615234375 10.517578125,18.427734375 13.0078125,18.955078125 14.5751953125,18.75 16.025390625,18.134765625 12.01171875,14.12109375z M34.716796875,12.65625L33.6767578125,12.83203125 32.75390625,13.330078125 32.1533203125,13.828125 31.5380859375,14.443359375 30.9521484375,15.0732421875 30.41015625,15.64453125 25.01953125,21.064453125 13.681640625,21.064453125 12.4658203125,21.3134765625 11.455078125,22.001953125 10.7666015625,23.0126953125 10.517578125,24.228515625 10.517578125,26.30859375 10.7666015625,27.5537109375 11.4404296875,28.5498046875 12.4365234375,29.2236328125 13.681640625,29.47265625 15.5126953125,28.88671875 16.640625,27.36328125 23.173828125,27.36328125 24.0234375,27.3779296875 24.814453125,27.392578125 26.8798828125,27.1875 28.857421875,26.1328125 29.58984375,25.4736328125 30.703125,24.3310546875 32.666015625,22.3388671875 34.0869140625,20.906982421875 35.888671875,19.1015625 36.6357421875,18.369140625 37.2802734375,17.63671875 37.734375,16.81640625 37.91015625,15.791015625 37.6611328125,14.5458984375 36.97265625,13.5498046875 35.947265625,12.890625 34.716796875,12.65625z M17.28515625,8.84765625L13.06640625,13.06640625 17.197265625,17.197265625 18.5009765625,15.263671875 18.955078125,12.978515625 18.515625,10.7666015625 17.28515625,8.84765625z M10.25390625,6.85546827316284L11.2060546875,7.10449171066284 11.953125,7.76367139816284 12.099609375,7.91015625 7.88085985183716,12.099609375 7.14843797683716,11.2939453125 6.82617235183716,10.25390625 7.04589891433716,9.3896484375 7.58789110183716,8.6572265625 8.26171875,8.0126953125 8.90625,7.412109375 10.25390625,6.85546827316284z M44.677734375,4.21874952316284L46.5966796875,7.03125 48.45703125,9.873046875 48.45703125,32.783203125 54.755859375,39.08203125 54.755859375,4.21874952316284 44.677734375,4.21874952316284z M37.763671875,4.21874952316284L38.4228515625,8.5107421875 39.08203125,12.802734375 39.78515625,14.23095703125 40.01953125,15.8203125 39.78515625,17.34375 40.4296875,21.6064453125 41.07421875,25.869140625 41.982421875,25.4150390625 43.0078125,25.25390625 44.2822265625,25.517578125 45.3369140625,26.2353515625 46.0546875,27.3046875 46.318359375,28.59375 46.318359375,10.48828125 44.23828125,7.35351610183716 42.158203125,4.21874952316284 37.763671875,4.21874952316284z M33.69140625,4.21874952316284L34.62890625,10.517578125 36.5625,10.83984375 35.595703125,4.21874952316284 33.69140625,4.21874952316284z M23.173828125,4.21874952316284L23.173828125,18.955078125 24.140625,18.955078125 25.25390625,17.8125 25.25390625,4.21874952316284 23.173828125,4.21874952316284z M12.12890625,4.21874952316284L10.3271484375,4.45312547683716 8.8916015625,5.09765577316284 7.63183641433716,6.064453125 6.41601610183716,7.265625 6.06445360183716,7.61718702316284 4.70214891433716,9.6826171875 4.21875047683716,12.099609375 4.76074266433716,14.70703125 6.32812547683716,16.845703125 16.845703125,6.328125 14.7216796875,4.7607421875 12.12890625,4.21874952316284z M12.099609375,0L15.7470703125,0.644531488418579 18.955078125,2.51953125 18.955078125,0 58.9453125,0 58.9453125,67.3828125 38.759765625,67.3828125 36.3427734375,66.8994140625 34.306640625,65.537109375 25.634765625,56.865234375 14.736328125,56.865234375 12.59765625,56.6748046875 10.517578125,56.1328125 10.517578125,67.3828125 0,67.3828125 0,51.240234375 0.556641101837158,48.046875 2.13867235183716,45.234375 2.10937547683716,44.7216796875 2.10937547683716,44.208984375 2.10937547683716,27.36328125 2.68066453933716,23.935546875 4.36523485183716,20.859375 2.56347703933716,18.9111328125 1.18652391433716,16.9775390625 0.307617664337158,14.7802734375 0,12.099609375 0.201416075229645,10.015869140625 0.805664539337158,8.0419921875 3.10546922683716,4.62890625 5.09765672683716,2.75390625 7.10449266433716,1.28906273841858 9.345703125,0.336913824081421 12.099609375,0z" />
    </g>
  </g>
</svg>