<?xml version="1.0" encoding="utf-8"?>
<!DOCTYPE svg PUBLIC "-//W3C//DTD SVG 1.1//EN" "http://www.w3.org/Graphics/SVG/1.1/DTD/svg11.dtd">
<svg width="54.7558593750005" height="67.3828125" xmlns="http://www.w3.org/2000/svg" xmlns:xlink="http://www.w3.org/1999/xlink" xmlns:xml="http://www.w3.org/XML/1998/namespace" version="1.1">
  <g>
    <g>
      <path style="fill:#FF0000;fill-opacity:1" d="M24.169921875,32.4609375L24.7119140625,32.666015625 25.341796875,33.10546875 26.1767578125,33.544921875 27.36328125,33.75 28.5498046875,33.544921875 29.3994140625,33.10546875 30.0439453125,32.666015625 30.5859375,32.4609375 31.2890625,32.75390625 31.58203125,33.45703125 31.083984375,34.4384765625 29.912109375,35.1708984375 28.5205078125,35.6396484375 27.36328125,35.80078125 26.220703125,35.6396484375 24.8291015625,35.1708984375 23.642578125,34.423828125 23.14453125,33.45703125 23.4521484375,32.75390625 24.169921875,32.4609375z M25.283203125,27.36328125L29.47265625,27.36328125 28.857421875,28.8427734375 27.392578125,29.47265625 25.8984375,28.857421875 25.283203125,27.36328125z M42.099609375,24.814453125L42.099609375,27.48046875 41.8212852478027,30.3991718292236 40.986328125,33.0615234375 39.63134765625,35.511474609375 37.79296875,37.79296875 33.369140625,42.36328125 28.88671875,46.875 17.34375,58.388671875 22.177734375,60.380859375 27.36328125,61.0546875 32.28515625,60.4248046875 36.9873046875,58.623046875 41.1328125,55.7666015625 44.384765625,52.001953125 45.7470703125,49.2919921875 46.2890625,46.318359375 46.2890625,37.119140625 45.8935546875,34.0283203125 44.8974609375,30.7470703125 43.5498046875,27.5830078125 42.099609375,24.814453125z M33.69140625,21.064453125L35.185546875,21.6796875 35.80078125,23.173828125 35.80078125,25.283203125 35.1708984375,26.748046875 33.69140625,27.36328125 32.2119140625,26.748046875 31.58203125,25.283203125 31.58203125,23.173828125 32.197265625,21.6796875 33.69140625,21.064453125z M21.064453125,21.064453125L22.5439453125,21.6943359375 23.173828125,23.173828125 23.173828125,25.283203125 22.5439453125,26.748046875 21.064453125,27.36328125 19.5849609375,26.748046875 18.955078125,25.283203125 18.955078125,23.173828125 19.5703125,21.6796875 21.064453125,21.064453125z M17.958984375,16.845703125L16.5673828125,18.687744140625 15.556640625,20.7568359375 14.94140625,22.972412109375 14.736328125,25.25390625 14.736328125,27.36328125 14.974365234375,29.8242206573486 15.6884765625,32.16796875 16.8420391082764,34.32861328125 18.3984375,36.240234375 20.2990703582764,37.847900390625 22.4853515625,39.0380859375 24.876708984375,39.774169921875 27.392578125,40.01953125 30.87890625,39.521484375 34.04296875,38.1005859375 36.708984375,35.8740234375 38.701171875,32.958984375 39.7265625,29.8974609375 39.990234375,26.689453125 39.9462890625,24.7412109375 39.7412109375,22.7783203125 39.2578125,20.8740234375 38.408203125,19.130859375 37.5439453125,17.9736328125 36.650390625,16.845703125 17.958984375,16.845703125z M27.36328125,4.21874952316284L22.32421875,4.892578125 17.7978515625,6.8115234375 13.974609375,9.78515625 11.0009765625,13.6083984375 9.08203125,18.134765625 8.408203125,23.173828125 8.408203125,46.318359375 9.052734375,49.5263671875 10.7080078125,52.529296875 12.978515625,55.166015625 15.498046875,57.24609375 27.36328125,45.380859375 25.5322265625,43.505859375 23.701171875,41.630859375 19.2333984375,39.6533203125 15.732421875,36.4013671875 13.447265625,32.197265625 12.83203125,29.8315448760986 12.626953125,27.36328125 12.626953125,25.25390625 12.916259765625,22.298583984375 13.7841796875,19.5263671875 15.15380859375,17.01416015625 16.9482421875,14.8388671875 19.1235332489014,13.04443359375 21.6357421875,11.6748046875 24.407958984375,10.806884765625 27.36328125,10.517578125 30.47607421875,10.843505859375 33.427734375,11.8212890625 36.1083984375,13.392333984375 38.408203125,15.498046875 39.345703125,16.69921875 40.1953125,17.98828125 41.572265625,20.0244140625 42.919921875,22.08984375 44.7216796875,25.283203125 46.2890625,28.59375 46.2890625,23.173828125 45.9191856384277,19.365234375 44.8095703125,15.791015625 43.0554161071777,12.557373046875 40.751953125,9.7705078125 37.957763671875,7.474365234375 34.7314453125,5.71289110183716 31.168212890625,4.59228801727295 27.36328125,4.21874952316284z M27.36328125,0L30.498046875,0.208743035793304 33.515625,0.834960460662842 39.0380859375,3.17871117591858 43.7255859375,6.796875 47.3583984375,11.484375 49.6875,17.021484375 50.3027305603027,20.0390625 50.5078125,23.173828125 50.5078125,44.501953125 52.3205528259277,47.098388671875 53.6572265625,49.9658203125 54.4811973571777,53.016357421875 54.755859375,56.162109375 54.755859375,67.3828125 0,67.3828125 0,56.162109375 0.270995736122131,53.023681640625 1.083984375,49.9951171875 2.40966796875,47.142333984375 4.21875,44.53125 4.21875,23.173828125 4.423828125,20.0390625 5.0390625,17.021484375 7.3681640625,11.484375 11.0009765625,6.796875 15.6884765625,3.17871117591858 21.2109375,0.834960460662842 24.228515625,0.208743035793304 27.36328125,0z" />
    </g>
  </g>
</svg>