<?xml version="1.0" encoding="utf-8"?>
<!DOCTYPE svg PUBLIC "-//W3C//DTD SVG 1.1//EN" "http://www.w3.org/Graphics/SVG/1.1/DTD/svg11.dtd">
<svg width="67.3828125000008" height="67.3828125" xmlns="http://www.w3.org/2000/svg" xmlns:xlink="http://www.w3.org/1999/xlink" xmlns:xml="http://www.w3.org/XML/1998/namespace" version="1.1">
  <g>
    <g>
      <path style="fill:#FF0000;fill-opacity:1" d="M11.572265625,4.21874952316284L8.7744140625,4.7900390625 6.4306640625,6.328125 4.8193359375,8.5986328125 4.21875,11.396484375 4.5849609375,13.798828125 5.59570217132568,16.025390625 9.755859375,23.96484375 11.396484375,26.25 13.59375,27.9931640625 16.171875,29.091796875 18.955078125,29.47265625 26.748046875,29.47265625 54.0234375,61.435546875 55.078125,62.3583984375 56.2646484375,62.87109375 57.568359375,63.10546875 58.9453125,63.1640625 60,63.1640625 61.23046875,62.9150390625 62.2412109375,62.2412109375 62.9150390625,61.2451171875 63.1640625,60 63.1640625,58.828125 62.841796875,56.162109375 62.30712890625,55.02685546875 61.34765625,53.96484375 29.47265625,26.748046875 29.47265625,18.955078125 29.12109375,16.2890625 28.1103515625,13.7841796875 26.4990234375,11.6162109375 24.375,9.9609375 19.8046875,7.5146484375 15.17578125,5.185546875 13.4326171875,4.46777296066284 11.572265625,4.21874952316284z M11.572265625,0L13.5205078125,0.161133050918579 15.234375,0.615234375 16.8603515625,1.31835985183716 18.57421875,2.19726610183716 26.455078125,6.298828125 26.572265625,6.38671875 29.58984375,8.9208984375 31.81640625,11.7333984375 33.2080078125,15.029296875 33.69140625,18.955078125 33.69140625,24.814453125 64.072265625,50.7421875 65.9033203125,52.7783203125 66.884765625,54.931640625 67.294921875,57.3046875 67.3828125,60 66.796875,62.87109375 65.21484375,65.21484375 62.87109375,66.796875 60,67.3828125 57.919921875,67.3828125 55.9716796875,67.177734375 54.0673828125,66.5771484375 52.3388671875,65.6103515625 50.888671875,64.27734375 24.814453125,33.69140625 18.955078125,33.69140625 15.0439453125,33.1494140625 11.42578125,31.5966796875 8.349609375,29.1650390625 6.03515625,25.95703125 2.16796875,18.544921875 0.6298828125,15.1904296875 0,11.572265625 0.227050423622131,9.2431640625 0.908203125,7.060546875 3.3837890625,3.3837890625 7.060546875,0.908203363418579 9.2431640625,0.227053672075272 11.572265625,0z" />
    </g>
  </g>
</svg>