<?xml version="1.0" encoding="utf-8"?>
<!DOCTYPE svg PUBLIC "-//W3C//DTD SVG 1.1//EN" "http://www.w3.org/Graphics/SVG/1.1/DTD/svg11.dtd">
<svg width="67.3828125000029" height="67.3828125" xmlns="http://www.w3.org/2000/svg" xmlns:xlink="http://www.w3.org/1999/xlink" xmlns:xml="http://www.w3.org/XML/1998/namespace" version="1.1">
  <g>
    <g>
      <path style="fill:#FF0000;fill-opacity:1" d="M42.626953125,50.537109375L42.01171875,50.654296875 41.513671875,51.005859375 40.6494140625,51.8701171875 39.78515625,52.734375 35.654296875,56.865234375 33.69140625,56.865234375 33.69140625,63.1640625 48.427734375,63.1640625 49.921875,62.548828125 50.537109375,61.0546875 50.537109375,56.865234375 49.921875,55.37109375 48.427734375,54.755859375 44.208984375,54.755859375 44.208984375,52.119140625 43.7548828125,50.9912109375 42.626953125,50.537109375z M35.09765625,50.126953125L34.072265625,50.419921875 32.197265625,51.181640625 29.8681640625,52.1923828125 27.48046875,53.26171875 25.4443359375,54.19921875 24.169921875,54.78515625 29.4873046875,54.7705078125 34.8046875,54.755859375 36.416015625,53.14453125 35.09765625,50.126953125z M59.501953125,48.427734375L56.3525390625,48.837890625 53.583984375,50.361328125 54.287109375,53.90625 53.8623046875,56.6748046875 52.646484375,59.23828125 52.646484375,60.439453125 52.55859375,61.81640625 52.08984375,63.1640625 57.919921875,63.1640625 59.9560546875,62.75390625 61.6259765625,61.6259765625 62.75390625,59.9560546875 63.1640625,57.919921875 62.7099609375,55.83984375 61.640625,53.2177734375 60.41015625,50.5810546875 59.501953125,48.427734375z M38.96484375,46.34765625L37.470703125,46.9482421875 36.85546875,48.427734375 36.9873046875,49.1162109375 37.3095703125,49.98046875 37.705078125,50.8447265625 38.02734375,51.533203125 38.232421875,51.298828125 39.1552734375,50.2880859375 40.1806640625,49.365234375 41.3232421875,48.69140625 42.626953125,48.427734375 44.267578125,48.7646484375 45.4248046875,49.6728515625 46.0986328125,51.0205078125 46.318359375,52.646484375 47.021484375,52.646484375 48.5302734375,52.6904296875 49.892578125,52.939453125 51.09375,53.583984375 52.119140625,54.814453125 52.1630859375,54.3603515625 52.177734375,53.90625 51.591796875,51.0498046875 50.009765625,48.720703125 47.666015625,47.138671875 44.794921875,46.552734375 42.7661094665527,46.8310546875 40.8984375,47.666015625 40.1513671875,46.7138671875 38.96484375,46.34765625z M38.466796875,43.53515625L33.662109375,44.23828125 32.5927734375,44.1943359375 31.5234375,44.091796875 31.9921875,45 32.63671875,46.2451171875 33.193359375,47.490234375 33.427734375,48.369140625 34.74609375,48.046875 35.086669921875,46.7578125 35.8154296875,45.64453125 38.0859375,44.326171875 38.466796875,43.53515625z M44.853515625,40.01953125L43.212890625,41.279296875 41.42578125,42.36328125 40.341796875,44.47265625 41.455078125,45.05859375 44.794921875,44.443359375 47.0507774353027,44.710693359375 49.189453125,45.5126953125 51.0790977478027,46.790771484375 52.587890625,48.486328125 55.400390625,46.9482421875 58.564453125,46.34765625 58.0078125,45.05859375 56.7041015625,42.9931640625 54.90234375,41.4111328125 52.734375,40.3857421875 50.302734375,40.01953125 44.853515625,40.01953125z M17.080078125,40.01953125L14.622802734375,40.360107421875 12.4658203125,41.3818359375 10.689697265625,42.982177734375 9.375,45.05859375 7.8369140625,48.515625 6.328125,52.001953125 5.4638671875,53.90625 4.62890625,55.869140625 4.3212890625,56.865234375 4.21875,57.919921875 4.62890625,59.9560546875 5.7568359375,61.6259765625 7.4267578125,62.75390625 9.462890625,63.1640625 31.58203125,63.1640625 31.58203125,56.865234375 18.017578125,56.865234375 16.904296875,55.8251953125 15.791015625,54.755859375 18.486328125,48.427734375 31.34765625,48.427734375 30.1318359375,45.966796875 28.88671875,43.53515625 25.546875,42.1142578125 22.587890625,40.01953125 17.080078125,40.01953125z M30.615234375,35.80078125L31.1572265625,35.9912109375 31.787109375,36.4306640625 32.6220703125,36.8701171875 33.779296875,37.060546875 34.921875,36.8701171875 35.7421875,36.4306640625 36.3720703125,35.9912109375 36.9140625,35.80078125 37.6171875,36.09375 37.91015625,36.796875 37.4267578125,37.734375 36.26953125,38.4521484375 34.892578125,38.9208984375 33.779296875,39.08203125 32.6513671875,38.9208984375 31.2890625,38.4521484375 30.1318359375,37.734375 29.6484375,36.796875 29.9267578125,36.09375 30.615234375,35.80078125z M31.58203125,31.58203125L35.80078125,31.58203125 35.185546875,33.076171875 33.69140625,33.69140625 32.197265625,33.076171875 31.58203125,31.58203125z M40.01953125,25.283203125L41.484375,25.8984375 42.099609375,27.36328125 42.099609375,29.47265625 41.484375,30.9521484375 40.01953125,31.58203125 38.525390625,30.966796875 37.91015625,29.47265625 37.91015625,27.36328125 38.5400390625,25.8984375 40.01953125,25.283203125z M27.36328125,25.283203125L28.8427734375,25.8984375 29.47265625,27.36328125 29.47265625,29.47265625 28.857421875,30.966796875 27.36328125,31.58203125 25.8837890625,30.9521484375 25.25390625,29.47265625 25.25390625,27.36328125 25.8837890625,25.8984375 27.36328125,25.283203125z M35.830078125,16.845703125L35.830078125,23.173828125 32.6953125,22.79296875 29.82421875,21.533203125 28.4619140625,20.3759765625 27.333984375,19.013671875 26.107177734375,21.62109375 24.2431640625,23.583984375 21.8371562957764,24.8217792510986 18.984375,25.25390625 18.984375,27.568359375 19.5263671875,31.40625 21.03515625,34.86328125 23.3349609375,37.8076171875 26.2939453125,40.107421875 29.765625,41.6015625 33.603515625,42.12890625 36.448974609375,41.868896484375 39.1259765625,41.0888671875 41.5649375915527,39.85107421875 43.6962890625,38.2177734375 46.9189453125,33.8818359375 47.9113731384277,31.270751953125 48.3984375,28.447265625 48.45703125,27.4951171875 48.45703125,26.54296875 48.45703125,25.283203125 44.4287109375,24.66796875 40.8837890625,22.9541015625 37.96875,20.302734375 35.830078125,16.845703125z M33.69140625,0L36.826171875,0.208743035793304 39.84375,0.834960460662842 45.3662109375,3.17871117591858 50.0537109375,6.796875 53.6865234375,11.484375 56.0302734375,17.0068359375 56.656494140625,20.013427734375 56.865234375,23.14453125 56.865234375,36.826171875 59.2529296875,38.642578125 60.908203125,41.162109375 66.650390625,54.228515625 67.20703125,56.0302734375 67.3828125,57.890625 66.6357421875,61.58203125 64.6142578125,64.599609375 61.611328125,66.6357421875 57.919921875,67.3828125 9.462890625,67.3828125 5.771484375,66.6357421875 2.7685546875,64.599609375 0.7470703125,61.58203125 0,57.890625 0.175781726837158,56.015625 0.732421875,54.228515625 6.47460842132568,41.162109375 8.1298828125,38.642578125 10.517578125,36.826171875 10.517578125,23.14453125 10.726318359375,20.013427734375 11.3525390625,17.0068359375 13.6962890625,11.484375 17.3291015625,6.796875 22.0166015625,3.17871117591858 27.5390625,0.834960460662842 30.556640625,0.208743035793304 33.69140625,0z" />
    </g>
  </g>
</svg>