<?xml version="1.0" encoding="utf-8"?>
<!DOCTYPE svg PUBLIC "-//W3C//DTD SVG 1.1//EN" "http://www.w3.org/Graphics/SVG/1.1/DTD/svg11.dtd">
<svg width="67.3828125000011" height="67.3828125" xmlns="http://www.w3.org/2000/svg" xmlns:xlink="http://www.w3.org/1999/xlink" xmlns:xml="http://www.w3.org/XML/1998/namespace" version="1.1">
  <g>
    <g>
      <path style="fill:#FF0000;fill-opacity:1" d="M23.173828125,42.12890625L24.638671875,42.744140625 25.25390625,44.208984375 24.638671875,45.6884765625 23.173828125,46.318359375 21.6796875,45.703125 21.064453125,44.208984375 21.6943359375,42.744140625 23.173828125,42.12890625z M14.736328125,31.58203125L16.23046875,32.197265625 16.845703125,33.69140625 16.23046875,35.185546875 14.736328125,35.80078125 13.2421875,35.185546875 12.626953125,33.69140625 13.2421875,32.197265625 14.736328125,31.58203125z M34.453125,30.8203125L35.947265625,31.435546875 36.7529296875,32.28515625 37.7490234375,33.515625 38.7744140625,34.9658203125 39.697265625,36.474609375 40.3564453125,37.8515625 40.60546875,38.935546875 40.0048828125,40.4296875 38.525390625,41.044921875 37.3681640625,40.7080078125 36.591796875,39.78515625 35.80078125,38.2763671875 34.9951171875,36.97265625 34.072265625,35.7421875 32.958984375,34.423828125 32.34375,32.9296875 32.958984375,31.435546875 34.453125,30.8203125z M48.427734375,27.36328125L49.9072265625,27.9931640625 50.537109375,29.47265625 49.921875,30.966796875 48.427734375,31.58203125 46.93359375,30.966796875 46.318359375,29.47265625 46.9482421875,27.9931640625 48.427734375,27.36328125z M52.646484375,14.736328125L54.140625,15.3515625 54.755859375,16.845703125 54.140625,18.33984375 52.646484375,18.955078125 51.15234375,18.33984375 50.537109375,16.845703125 51.15234375,15.3515625 52.646484375,14.736328125z M37.91015625,10.517578125L39.3896484375,11.1474609375 40.01953125,12.626953125 39.3896484375,14.1064453125 37.91015625,14.736328125 36.416015625,14.12109375 35.80078125,12.626953125 36.4306640625,11.1474609375 37.91015625,10.517578125z M42.158203125,4.21874952316284L38.0712890625,4.61792278289795 34.130859375,5.8154296875 30.498046875,7.752685546875 27.333984375,10.37109375 24.8291015625,13.564453125 22.705078125,17.05078125 24.08203125,16.9482421875 25.458984375,16.904296875 27.890625,17.0361328125 30.6884765625,17.431640625 33.4130859375,18.10546875 35.595703125,19.072265625 36.5185546875,19.833984375 36.85546875,20.9765625 36.2255859375,22.4560546875 34.74609375,23.0859375 34.306640625,23.02734375 33.8671875,22.880859375 29.677734375,21.5478515625 25.3125,21.064453125 19.9658203125,21.767578125 15.087890625,23.759765625 10.8837890625,26.8505859375 7.5439453125,30.8642578125 5.2587890625,35.6103515625 4.248046875,40.8984375 7.91015625,45.8056640625 12.685546875,49.5263671875 18.251953125,51.884765625 21.2475566864014,52.5 24.31640625,52.705078125 28.817138671875,52.269287109375 33.1201171875,50.9619140625 37.086181640625,48.841552734375 40.576171875,45.966796875 59.12109375,27.421875 62.98828125,22.294921875 61.640625,17.3583984375 59.23828125,12.9931640625 55.9423828125,9.3603515625 51.8994140625,6.59179735183716 47.255859375,4.83398485183716 42.158203125,4.21874952316284z M42.1875,0L45.6079063415527,0.223391532897949 48.896484375,0.8935546875 54.9169921875,3.42773461341858 60.0146484375,7.36816358566284 63.955078125,12.4658203125 66.4892578125,18.486328125 67.159423828125,21.77490234375 67.3828125,25.1953125 66.90673828125,30.1464862823486 65.478515625,34.86328125 63.15673828125,39.20654296875 60,43.037109375 43.037109375,60 39.20654296875,63.15673828125 34.86328125,65.478515625 30.146484375,66.90673828125 25.1953125,67.3828125 21.7749004364014,67.159423828125 18.486328125,66.4892578125 12.4658203125,63.955078125 7.3681640625,60.0146484375 3.427734375,54.9169921875 0.8935546875,48.896484375 0.223388314247131,45.60791015625 0,42.1875 0.4833984375,37.2802734375 1.904296875,32.5341796875 4.21875,28.154296875 7.3828125,24.345703125 10.2978515625,21.943359375 13.505859375,19.892578125 15.46875,18.7060546875 17.28515625,17.28515625 18.75,15.4248046875 19.98046875,13.3886709213257 21.97265625,10.25390625 24.345703125,7.3828125 28.154296875,4.21874952316284 32.5341796875,1.90429699420929 37.2802734375,0.483398199081421 42.1875,0z" />
    </g>
  </g>
</svg>