<?xml version="1.0" encoding="utf-8"?>
<!DOCTYPE svg PUBLIC "-//W3C//DTD SVG 1.1//EN" "http://www.w3.org/Graphics/SVG/1.1/DTD/svg11.dtd">
<svg width="37.9101562500016" height="67.3828125" xmlns="http://www.w3.org/2000/svg" xmlns:xlink="http://www.w3.org/1999/xlink" xmlns:xml="http://www.w3.org/XML/1998/namespace" version="1.1">
  <g>
    <g>
      <path style="fill:#FF0000;fill-opacity:1" d="M21.064453125,58.974609375L21.064453125,63.1640625 27.36328125,63.1640625 26.7333984375,61.6845703125 25.25390625,61.0546875 25.25390625,58.974609375 21.064453125,58.974609375z M12.626953125,58.974609375L12.626953125,61.0546875 11.1474609375,61.6845703125 10.517578125,63.1640625 16.845703125,63.1640625 16.845703125,58.974609375 12.626953125,58.974609375z M12.626953125,40.01953125L12.626953125,56.865234375 16.845703125,56.865234375 16.845703125,46.318359375 17.4755859375,44.8388671875 18.955078125,44.208984375 20.4345703125,44.8388671875 21.064453125,46.318359375 21.064453125,56.865234375 25.25390625,56.865234375 25.25390625,40.01953125 12.626953125,40.01953125z M26.572265625,31.58203125L29.58984375,40.6640625 30.3662109375,41.71875 31.58203125,42.12890625 33.0615234375,41.513671875 33.69140625,40.01953125 33.662109375,39.6826171875 33.57421875,39.345703125 31.025390625,31.58203125 26.572265625,31.58203125z M6.884765625,31.58203125L4.30664157867432,39.345703125 4.21875,39.990234375 4.833984375,41.484375 6.298828125,42.099609375 7.529296875,41.7041015625 8.3203125,40.6640625 11.30859375,31.58203125 6.884765625,31.58203125z M15.791015625,21.064453125L16.0400390625,22.2802734375 16.728515625,23.291015625 17.7392578125,23.9794921875 18.955078125,24.228515625 20.185546875,23.9794921875 21.1962890625,23.291015625 21.8701171875,22.2802734375 22.119140625,21.064453125 15.791015625,21.064453125z M13.681640625,21.064453125L11.07421875,21.7822265625 9.43359375,23.935546875 7.587890625,29.47265625 12.041015625,29.47265625 12.626953125,27.744140625 12.626953125,37.91015625 25.283203125,37.91015625 25.283203125,27.744140625 25.869140625,29.47265625 30.322265625,29.47265625 28.447265625,23.935546875 26.9384765625,21.8408203125 25.784912109375,21.258544921875 24.462890625,21.064453125 24.228515625,21.064453125 23.818359375,23.115234375 22.6904296875,24.7998046875 21.005859375,25.927734375 18.955078125,26.337890625 16.904296875,25.927734375 15.2197265625,24.7998046875 14.091796875,23.115234375 13.681640625,21.064453125z M22.119140625,12.626953125L22.8515625,12.94921875 23.173828125,13.681640625 22.8515625,14.4140625 22.119140625,14.736328125 21.3720703125,14.4287109375 21.064453125,13.681640625 21.3720703125,12.9345703125 22.119140625,12.626953125z M15.791015625,12.626953125L16.5380859375,12.9345703125 16.845703125,13.681640625 16.5380859375,14.4287109375 15.791015625,14.736328125 15.0439453125,14.4287109375 14.736328125,13.681640625 15.0439453125,12.9345703125 15.791015625,12.626953125z M16.845703125,8.61328125L16.845703125,11.572265625 15.322265625,10.927734375 14.736328125,9.404296875 14.736328125,9.228515625 14.0185546875,10.1953125 13.7255859375,11.1767578125 13.6669921875,12.099609375 13.623046875,12.890625 13.3740234375,13.447265625 12.71484375,13.681640625 13.4765625,15.791015625 14.8681640625,17.4609375 16.7431640625,18.5595703125 18.955078125,18.955078125 21.15234375,18.5595703125 23.02734375,17.4609375 24.4189453125,15.791015625 25.166015625,13.681640625 24.4921875,13.3447265625 24.228515625,12.626953125 23.5986328125,11.1474609375 22.119140625,10.517578125 18.955078125,10.517578125 17.51953125,9.9755859375 16.845703125,8.61328125z M18.955078125,0L21.0607891082764,0.208743035793304 23.0419921875,0.834960460662842 26.3818359375,3.09081983566284 28.6376953125,6.4306640625 29.263916015625,8.411865234375 29.47265625,10.517578125 29.47265625,10.986328125 29.4580078125,12.7587900161743 29.3115234375,14.3994140625 28.916015625,16.0107421875 28.18359375,17.6953125 30.8056640625,19.7314453125 32.4609375,22.6171875 37.587890625,38.02734375 37.91015625,39.990234375 37.412109375,42.4658203125 36.064453125,44.4873046875 34.0576171875,45.8349609375 31.58203125,46.318359375 29.47265625,45.966796875 29.47265625,58.4765625 31.025390625,60.5859375 31.58203125,63.1640625 31.58203125,67.3828125 6.328125,67.3828125 6.298828125,65.91796875 6.26953125,64.453125 6.3427734375,62.8125 6.650390625,61.2451171875 7.3095703125,59.794921875 8.4375,58.4765625 8.4375,45.966796875 6.328125,46.318359375 3.8671875,45.8349609375 1.8603515625,44.4873046875 0.498046875,42.48046875 0,40.01953125 0.322265625,38.02734375 5.44921875,22.6171875 7.1044921875,19.7314453125 9.7265625,17.6953125 8.759765625,15.234375 8.4375,12.626953125 8.4375,10.517578125 8.642578125,8.411865234375 9.2578125,6.4306640625 11.513671875,3.09081983566284 14.8681640625,0.834960460662842 16.8493633270264,0.208743035793304 18.955078125,0z" />
    </g>
  </g>
</svg>