<?xml version="1.0" encoding="utf-8"?>
<!DOCTYPE svg PUBLIC "-//W3C//DTD SVG 1.1//EN" "http://www.w3.org/Graphics/SVG/1.1/DTD/svg11.dtd">
<svg width="67.3828125000007" height="61.0546875" xmlns="http://www.w3.org/2000/svg" xmlns:xlink="http://www.w3.org/1999/xlink" xmlns:xml="http://www.w3.org/XML/1998/namespace" version="1.1">
  <g>
    <g>
      <path style="fill:#FF0000;fill-opacity:1" d="M14.736328125,33.69140625L11.4697265625,34.3505859375 8.7890625,36.15234375 6.9873046875,38.8330078125 6.328125,42.099609375 6.328125,46.318359375 6.9873046875,49.599609375 8.7890625,52.265625 11.455078125,54.0673828125 14.736328125,54.7265625 22.20703125,54.7265625 24.4921875,54.0673828125 25.9130859375,52.3974609375 26.923828125,50.1708984375 27.9931640625,47.8125 29.5751953125,45.7470703125 32.138671875,44.4140625 32.9296875,44.267578125 33.720703125,44.208984375 35.5517578125,44.46533203125 37.177734375,45.234375 39.4921875,48.017578125 40.400390625,50.1123046875 41.337890625,52.20703125 42.890625,54.0380859375 45.17578125,54.7265625 52.646484375,54.7265625 55.751953125,54.0966796875 58.447265625,52.3974609375 60.3369140625,49.8779296875 61.0546875,46.7578125 61.0546875,42.099609375 60.3955078125,38.8330078125 58.59375,36.15234375 55.9130859375,34.3505859375 52.646484375,33.69140625 14.736328125,33.69140625z M16.845703125,25.25390625L14.7216796875,25.462646484375 12.744140625,26.0888671875 9.404296875,28.359375 7.1484375,31.7138671875 6.53320217132568,33.695068359375 6.328125,35.80078125 8.001708984375,34.010009765625 10.0341796875,32.6806640625 12.315673828125,31.856689453125 14.736328125,31.58203125 52.646484375,31.58203125 55.0671348571777,31.856689453125 57.3486328125,32.6806640625 59.381103515625,34.010009765625 61.0546875,35.80078125 60.849609375,33.695068359375 60.234375,31.7138671875 57.978515625,28.359375 54.638671875,26.0888671875 52.6611289978027,25.462646484375 50.537109375,25.25390625 16.845703125,25.25390625z M33.69140625,4.189453125L27.392578125,4.6728515625 21.26953125,6.15234375 17.109375,7.8662109375 13.1396484375,10.1953125 9.609375,13.125 6.7822265625,16.6259765625 4.9072265625,20.68359375 4.21875,25.25390625 4.21875,35.80078125 4.48974609375,33.145751953125 5.302734375,30.6298828125 6.62109279632568,28.341064453125 8.408203125,26.3671875 8.408203125,25.25390625 8.748779296875,22.3645038604736 9.7705078125,19.7314453125 11.334228515625,17.3693866729736 13.30078125,15.29296875 18.1201171875,11.9970703125 23.37890625,9.873046875 28.4765625,8.759765625 33.69140625,8.408203125 38.90625,8.759765625 44.00390625,9.873046875 47.5048828125,11.1767578125 50.9326171875,12.978515625 54.052734375,15.29296875 56.6015625,18.1201171875 58.3154296875,21.4453125 58.9453125,25.25390625 58.9453125,26.3671875 60.736083984375,28.341064453125 62.0654296875,30.6298828125 62.889404296875,33.145751953125 63.1640625,35.80078125 63.1640625,25.25390625 62.4755859375,20.68359375 60.6005859375,16.6259765625 57.7734375,13.125 54.2431640625,10.1953125 50.2734375,7.8662109375 46.11328125,6.15234375 39.990234375,4.6728515625 33.69140625,4.189453125z M33.69140625,0L40.546875,0.527343988418579 47.2265625,2.13867163658142 52.2509765625,4.21874904632568 56.9677734375,7.0458984375 61.11328125,10.60546875 64.4091796875,14.853515625 66.591796875,19.74609375 67.18505859375,22.4267597198486 67.3828125,25.25390625 67.3828125,46.318359375 67.093505859375,49.273681640625 66.2255859375,52.0458984375 64.85595703125,54.55810546875 63.0615234375,56.7333984375 60.88623046875,58.52783203125 58.3740234375,59.8974609375 55.601806640625,60.765380859375 52.646484375,61.0546875 45.205078125,61.0546875 42.158203125,60.615234375 39.43359375,59.35546875 37.177734375,57.36328125 35.537109375,54.755859375 34.6142578125,52.6611328125 33.720703125,50.537109375 32.7978515625,52.646484375 31.845703125,54.7265625 30.17578125,57.333984375 27.94921875,59.326171875 25.25390625,60.6005859375 22.177734375,61.0546875 14.736328125,61.0546875 11.781005859375,60.765380859375 9.0087890625,59.8974609375 6.49658107757568,58.52783203125 4.3212890625,56.7333984375 2.52685546875,54.55810546875 1.1572265625,52.0458984375 0.289306282997131,49.273681640625 0,46.318359375 0,25.25390625 0.197753548622131,22.4267597198486 0.791015625,19.74609375 2.9736328125,14.853515625 6.26953125,10.60546875 10.4150390625,7.0458984375 15.1318359375,4.21874904632568 20.15625,2.13867163658142 26.8359375,0.527343988418579 33.69140625,0z" />
    </g>
  </g>
</svg>