<?xml version="1.0" encoding="utf-8"?>
<!DOCTYPE svg PUBLIC "-//W3C//DTD SVG 1.1//EN" "http://www.w3.org/Graphics/SVG/1.1/DTD/svg11.dtd">
<svg width="67.1484375000013" height="67.1484375" xmlns="http://www.w3.org/2000/svg" xmlns:xlink="http://www.w3.org/1999/xlink" xmlns:xml="http://www.w3.org/XML/1998/namespace" version="1.1">
  <g>
    <g>
      <path style="fill:#FF0000;fill-opacity:1" d="M45.029296875,29.23828125L45.7763671875,29.5458984375 46.083984375,30.29296875 45.7763671875,31.0400390625 45.029296875,31.34765625 44.2822265625,31.0400390625 43.974609375,30.29296875 44.2822265625,29.5458984375 45.029296875,29.23828125z M49.248046875,25.048828125L49.98046875,25.3564453125 50.302734375,26.07421875 49.9951171875,26.8212890625 49.248046875,27.12890625 48.5009765625,26.8212890625 48.193359375,26.07421875 48.515625,25.3564453125 49.248046875,25.048828125z M45.029296875,25.048828125L45.76171875,25.3564453125 46.083984375,26.07421875 45.7763671875,26.8212890625 45.029296875,27.12890625 44.2822265625,26.8212890625 43.974609375,26.07421875 44.296875,25.3564453125 45.029296875,25.048828125z M38.73046875,18.720703125L33.3837890625,19.4384765625 28.6083984375,21.4453125 24.5654296875,24.55078125 21.4453125,28.59375 19.4384765625,33.369140625 18.720703125,38.671875 19.0649394989014,42.476806640625 20.09765625,46.0400390625 21.7895488739014,49.339599609375 24.111328125,52.353515625 24.2578125,52.529296875 25.3271484375,53.5986328125 26.71875,54.08203125 27.4365234375,53.9501953125 28.06640625,53.583984375 53.466796875,28.18359375 54.08203125,26.689453125 53.49609375,25.224609375 52.32421875,24.052734375 52.08984375,23.84765625 49.1308555603027,21.650390625 45.87890625,20.0390625 42.3925743103027,19.05029296875 38.73046875,18.720703125z M34.658203125,4.21875047683716L33.544921875,4.423828125 32.63671875,5.06835889816284 32.138671875,5.9765625 31.5966796875,6.8408203125 30.8642578125,7.5 29.853515625,7.76367139816284 29.1650390625,7.6318359375 28.447265625,7.29492235183716 27.7587890625,6.884765625 27.12890625,6.50390625 26.77734375,6.41601514816284 26.3671875,6.38671875 25.048828125,6.7529296875 24.140625,7.79296875 23.8330078125,8.90625 23.4521484375,10.0048828125 22.763671875,10.83984375 21.591796875,11.162109375 20.2001953125,10.8544921875 18.80859375,10.546875 17.900390625,10.83984375 17.8125,10.8984375 16.962890625,11.572265625 16.611328125,12.59765625 16.611328125,13.59375 16.552734375,14.6923828125 16.2744140625,15.6591796875 15.6298828125,16.34765625 14.501953125,16.611328125 13.6376953125,16.5966796875 12.94921875,16.58203125 12.36328125,16.6259765625 11.865234375,16.81640625 11.3818359375,17.2119140625 10.83984375,17.900390625 10.546875,18.80859375 10.8544921875,20.185546875 11.162109375,21.591796875 10.83984375,22.7783203125 10.0048828125,23.4521484375 8.8916015625,23.8330078125 7.763671875,24.140625 6.767578125,25.0048828125 6.357421875,26.30859375 6.533203125,27.158203125 6.884765625,27.7587890625 7.294921875,28.447265625 7.6318359375,29.1650390625 7.763671875,29.853515625 7.5,30.8642578125 6.826171875,31.5966796875 5.947265625,32.138671875 5.0390625,32.63671875 4.4091796875,33.5595703125 4.21875,34.658203125 4.3359375,35.302734375 4.62890625,35.888671875 5.2734375,36.4892578125 5.91796875,37.1337890625 6.4013671875,37.8662109375 6.591796875,38.73046875 6.4013671875,39.5947265625 5.9033203125,40.3271484375 5.244140625,40.9716796875 4.599609375,41.572265625 4.27734375,42.802734375 4.453125,43.88671875 5.068359375,44.794921875 5.947265625,45.29296875 6.8115234375,45.8349609375 7.470703125,46.5673828125 7.734375,47.578125 7.6025390625,48.2958984375 7.2802734375,49.013671875 6.884765625,49.6875 6.50390625,50.302734375 6.474609375,50.6103515625 6.4453125,50.91796875 6.8408203125,52.2802734375 7.822265625,53.291015625 7.8662109375,53.3056640625 7.939453125,53.3203125 9.0380859375,53.5986328125 10.078125,54.0380859375 10.8544921875,54.755859375 11.162109375,55.869140625 10.95703125,57.0849609375 10.60546875,58.2421875 10.693359375,58.18359375 10.693359375,58.30078125 11.103515625,59.47265625 12.1728515625,60.8349609375 13.3447265625,61.93359375 14.736328125,62.666015625 16.46484375,62.9296875 18.515625,62.5341796875 20.2734375,61.376953125 25.60546875,56.044921875 24.2578125,55.4150390625 23.173828125,54.43359375 22.880859375,54.140625 20.1928691864014,50.80810546875 18.22265625,47.021484375 17.0141582489014,42.92724609375 16.611328125,38.671875 16.8090801239014,35.679931640625 17.40234375,32.7978515625 19.62890625,27.509765625 23.0859375,23.0419921875 27.568359375,19.599609375 32.841796875,17.3876953125 35.712890625,16.805419921875 38.701171875,16.611328125 41.9457969665527,16.842041015625 45.05859375,17.5341796875 48.0395469665527,18.680419921875 50.888671875,20.2734375 52.294921875,21.2548828125 53.876953125,22.587890625 55.25390625,24.0966796875 56.044921875,25.60546875 61.376953125,20.302734375 62.548828125,18.544921875 62.958984375,16.494140625 62.4609375,14.2529296875 61.0546875,12.421875 60.46875,11.9091796875 59.794921875,11.337890625 59.0625,10.8837890625 58.330078125,10.693359375 58.18359375,10.693359375 58.2421875,10.60546875 57.0703125,10.95703125 55.869140625,11.162109375 54.697265625,10.83984375 53.994140625,10.01953125 53.5986328125,8.9208984375 53.3203125,7.76367139816284 52.265625,6.85546922683716 50.888671875,6.47460985183716 50.2734375,6.56249952316284 48.9990234375,7.32421827316284 47.578125,7.76367139816284 46.5673828125,7.5 45.8642578125,6.826171875 45.3076171875,5.94726610183716 44.794921875,5.0390625 43.9013671875,4.45312547683716 42.802734375,4.27734375 41.572265625,4.658203125 40.9716796875,5.2587890625 40.3125,5.88867139816284 39.5654296875,6.38671875 38.701171875,6.591796875 37.8515625,6.38671875 37.119140625,5.88867139816284 36.4599609375,5.244140625 35.859375,4.59960985183716 35.302734375,4.3359375 34.658203125,4.21875047683716z M34.599609375,0L36.796875,0.395508050918579 38.73046875,1.52343785762787 40.6201171875,0.439452886581421 42.7734375,0.0585935115814209 45.9228515625,0.7470703125 48.33984375,2.81249952316284 50.947265625,2.255859375 52.939453125,2.56347680091858 54.78515625,3.4423828125 56.2939453125,4.8046875 57.3046875,6.533203125 57.7880859375,6.47460985183716 58.271484375,6.47460985183716 59.8388671875,6.6796875 61.2158203125,7.265625 62.490234375,8.14453125 63.779296875,9.19921875 66.26953125,12.4951171875 66.9287109375,14.439697265625 67.1484375,16.494140625 66.416015625,20.1708984375 64.3359375,23.26171875 23.26171875,64.3359375 20.15625,66.416015625 16.494140625,67.1484375 13.740234375,66.7822265625 11.455078125,65.7275390625 9.4921875,64.0869140625 7.734375,61.9921875 6.78954982757568,60.1904296875 6.474609375,58.18359375 6.4892578125,57.744140625 6.533203125,57.3046875 4.7900390625,56.2939453125 3.4423828125,54.78515625 2.5634765625,52.9541015625 2.255859375,50.947265625 2.8125,48.369140625 0.7470703125,45.9375 0.05859375,42.802734375 0.4248046875,40.634765625 1.5234375,38.73046875 0.3955078125,36.796875 0,34.599609375 0.703125,31.494140625 2.783203125,29.091796875 2.138671875,26.337890625 2.4609375,24.345703125 3.369140625,22.55859375 4.74609375,21.1083984375 6.50390625,20.126953125 6.328125,18.779296875 6.826171875,16.4501953125 8.1591796875,14.4287109375 10.0927734375,12.9931640625 12.392578125,12.392578125 12.9931640625,10.0927734375 14.4580078125,8.1591796875 16.4794921875,6.8408203125 18.80859375,6.357421875 19.4677734375,6.38671875 20.126953125,6.50390625 21.1083984375,4.74609422683716 22.55859375,3.38378930091858 24.345703125,2.49023461341858 26.337890625,2.16796875 29.091796875,2.78320336341858 31.494140625,0.717772960662842 34.599609375,0z" />
    </g>
  </g>
</svg>