<?xml version="1.0" encoding="utf-8"?>
<!DOCTYPE svg PUBLIC "-//W3C//DTD SVG 1.1//EN" "http://www.w3.org/Graphics/SVG/1.1/DTD/svg11.dtd">
<svg width="67.3828125000032" height="67.3828125" xmlns="http://www.w3.org/2000/svg" xmlns:xlink="http://www.w3.org/1999/xlink" xmlns:xml="http://www.w3.org/XML/1998/namespace" version="1.1">
  <g>
    <g>
      <path style="fill:#FF0000;fill-opacity:1" d="M14.00390625,46.34765625L12.4951171875,46.7431640625 11.455078125,47.900390625 9.9169921875,51.3134765625 8.408203125,54.755859375 11.8359375,53.232421875 15.263671875,51.6796875 16.435546875,50.654296875 16.845703125,49.16015625 16.6406230926514,48.03955078125 16.025390625,47.138671875 15.10986328125,46.54541015625 14.00390625,46.34765625z M30.52734375,23.173828125L31.7578125,23.4228515625 32.7685546875,24.08203125 33.4423828125,25.078125 33.69140625,26.30859375 33.69140625,30.52734375 33.4423828125,31.7724609375 32.7685546875,32.7685546875 31.7578125,33.4423828125 30.52734375,33.69140625 29.3115234375,33.4423828125 28.30078125,32.75390625 27.6123046875,31.7431640625 27.36328125,30.52734375 27.36328125,26.30859375 27.6123046875,25.0927734375 28.30078125,24.0966796875 29.3115234375,23.4228515625 30.52734375,23.173828125z M35.80078125,7.3828125L41.19140625,13.564453125 41.865234375,14.58984375 42.099609375,15.791015625 41.8505859375,17.0068359375 41.19140625,18.017578125 40.1953125,18.7060546875 38.96484375,18.955078125 37.7197265625,18.7060546875 36.7236328125,18.0322265625 36.0498046875,17.0361328125 35.80078125,15.791015625 35.80078125,7.3828125z M35.80078125,4.21874952316284L34.306640625,4.83398485183716 33.69140625,6.328125 28.9892578125,6.943359375 24.638671875,8.7890625 26.0595703125,10.39306640625 26.982421875,12.275390625 24.0966796875,14.443359375 21.884765625,17.28515625 21.474609375,18.0908203125 21.064453125,18.896484375 16.845703125,26.71875 16.845703125,39.931640625 22.177734375,45.205078125 24.462890625,48.6328125 25.05615234375,50.60302734375 25.25390625,52.646484375 29.47265625,48.427734375 52.646484375,48.427734375 44.58984375,52.4560546875 36.5625,56.484375 33.69140625,63.1640625 42.099609375,63.1640625 54.755859375,56.865234375 63.1640625,56.865234375 63.1640625,52.646484375 54.755859375,52.646484375 54.755859375,46.318359375 63.1640625,46.318359375 63.1640625,42.12890625 42.099609375,42.12890625 54.755859375,35.80078125 63.1640625,35.80078125 63.1640625,31.58203125 42.099609375,31.58203125 51.650390625,26.8359375 61.171875,22.060546875 59.853515625,19.5263671875 58.271484375,17.197265625 51.85546875,20.390625 49.16015625,17.9296875 46.0546875,15.9375 53.466796875,12.216796875 47.900390625,8.701171875 43.06640625,11.103515625 37.3828125,4.98046827316284 36.6796875,4.423828125 35.80078125,4.21874952316284z M35.80078125,0L38.5107421875,0.6298828125 40.693359375,2.373046875 42.978515625,2.7685546875 45.234375,3.28125 51.064453125,5.56640625 56.337890625,9.0966796875 60.8349609375,13.6376962661743 64.3212890625,18.9697265625 66.5771484375,24.873046875 67.181396484375,27.9638690948486 67.3828125,31.083984375 67.3828125,67.3828125 27.3046875,67.3828125 33.6328125,52.646484375 31.23046875,52.646484375 29.35546875,54.4921875 28.773193359375,57.169189453125 27.7294921875,59.6337890625 24.4921875,63.720703125 22.3937969207764,65.2587890625 20.0244140625,66.416015625 17.4499492645264,67.14111328125 14.736328125,67.3828125 11.77734375,67.093505859375 8.994140625,66.2255859375 6.47460842132568,64.859619140625 4.306640625,63.076171875 2.523193359375,60.908203125 1.1572265625,58.388671875 0.289306282997131,55.60546875 0,52.646484375 0.161133289337158,50.4345703125 0.615234375,48.486328125 1.34765625,46.6259765625 2.34375,44.677734375 17.578125,16.494140625 18.3544921875,15.1025390625 19.1162109375,13.8720703125 20.009765625,12.685546875 21.2109375,11.396484375 17.4609375,8.115234375 20.771484375,6.1376953125 23.90625,4.4091796875 27.1875,3.07617235183716 30.9375,2.28515625 33.1201171875,0.600585699081421 35.80078125,0z" />
    </g>
  </g>
</svg>