<?xml version="1.0" encoding="utf-8"?>
<!DOCTYPE svg PUBLIC "-//W3C//DTD SVG 1.1//EN" "http://www.w3.org/Graphics/SVG/1.1/DTD/svg11.dtd">
<svg width="67.382812500001" height="67.3828125" xmlns="http://www.w3.org/2000/svg" xmlns:xlink="http://www.w3.org/1999/xlink" xmlns:xml="http://www.w3.org/XML/1998/namespace" version="1.1">
  <g>
    <g>
      <path style="fill:#FF0000;fill-opacity:1" d="M40.4296875,58.974609375L38.583984375,59.1357421875 37.353515625,59.6484375 36.2841796875,60.5712890625 34.892578125,61.962890625 34.189453125,62.5341796875 33.3984375,62.9296875 36.6796875,62.2265625 39.990234375,61.845703125 43.3447265625,62.2265625 46.640625,62.9296875 45.0439453125,61.9189453125 43.740234375,60.6005859375 42.333984375,59.4580078125 40.4296875,58.974609375z M19.3359375,58.974609375L19.86328125,59.0625 21.767578125,59.3994140625 23.173828125,59.6923828125 24.31640625,60.029296875 25.4443359375,60.498046875 26.77734375,61.201171875 28.564453125,62.2265625 27.71484375,61.46484375 26.923828125,60.615234375 25.0927734375,59.3994140625 22.939453125,58.974609375 19.3359375,58.974609375z M50.0390625,28.564453125L51.85546875,31.2744140625 53.349609375,34.21875 54.3603515625,37.3388671875 54.7265625,40.60546875 54.4335899353027,43.330078125 53.5546875,45.9375 52.1887168884277,48.33984375 50.4345703125,50.44921875 48.3325157165527,52.21435546875 45.9228515625,53.583984375 43.3117637634277,54.462890625 40.60546875,54.755859375 37.68310546875,54.462890625 34.775390625,53.583984375 31.91162109375,52.218017578125 29.12109375,50.4638671875 23.818359375,45.9814453125 19.04296875,40.72265625 15,35.2734375 11.865234375,30.205078125 12.4365234375,33.251953125 12.626953125,36.298828125 12.626953125,46.611328125 12.744140625,46.69921875 14.46533203125,48.211669921875 15.76171875,49.9951171875 16.5747051239014,52.034912109375 16.845703125,54.31640625 17.05078125,55.2978515625 17.5927734375,56.103515625 18.3837890625,56.66015625 19.365234375,56.865234375 22.939453125,56.865234375 25.1806640625,57.1728515625 26.8798828125,57.94921875 28.18359375,58.9599609375 29.23828125,59.970703125 30.1904296875,60.7470703125 31.171875,61.0546875 31.34765625,61.0546875 32.4462890625,60.9814453125 33.3984375,60.498046875 33.8671875,60 35.0830078125,58.7841796875 36.3427734375,57.7880859375 37.7783203125,57.1142578125 39.580078125,56.865234375 40.4296875,56.865234375 42.3779296875,57.1728515625 43.88671875,57.94921875 45.087890625,58.9599609375 46.0986328125,59.970703125 47.0361328125,60.7470703125 48.017578125,61.0546875 49.0283203125,60.76171875 49.775390625,59.970703125 51.328125,57.7587890625 53.4375,56.044921875 55.810546875,54.609375 58.0078125,52.8662109375 59.6484375,50.6689453125 60.6884765625,48.134765625 61.0546875,45.3515625 60.853271484375,43.26416015625 60.2490234375,41.220703125 57.919921875,37.705078125 55.5908203125,34.716796875 54.9645957946777,33.0322265625 54.755859375,31.025390625 54.3017578125,29.9267578125 53.203125,29.47265625 51.5478515625,29.2529296875 50.0390625,28.564453125z M45.087890625,22.939453125L46.46484375,24.31640625 47.783203125,25.78125 46.611328125,23.173828125 45.087890625,22.939453125z M29.47265625,10.517578125L26.19140625,11.1767578125 23.525390625,12.978515625 21.7236328125,15.6591796875 21.064453125,18.955078125 21.7236328125,22.236328125 23.525390625,24.90234375 26.19140625,26.7041015625 29.47265625,27.36328125 32.7685546875,26.7041015625 35.44921875,24.90234375 37.2509765625,22.236328125 37.91015625,18.955078125 37.2509765625,15.6591796875 35.44921875,12.978515625 32.7685546875,11.1767578125 29.47265625,10.517578125z M12.59765625,8.759765625L12.1875,10.25390625 11.2939453125,11.484375 10.01953125,12.3193359375 8.49609375,12.626953125 8.4814453125,13.4326171875 8.466796875,14.23828125 8.73046875,16.2744140625 9.3603515625,18.6328125 10.166015625,20.9619140625 10.95703125,22.91015625 13.6669921875,28.212890625 17.5341796875,34.248046875 22.3095703125,40.25390625 27.71484375,45.46875 30.556640625,47.530517578125 33.45703125,49.1455078125 36.3720703125,50.189208984375 39.2578125,50.537109375 41.3928184509277,50.299072265625 43.4619140625,49.5849609375 47.0654296875,47.0654296875 49.5849609375,43.4619140625 50.2990684509277,41.392822265625 50.537109375,39.2578125 50.2770957946777,36.7529296875 49.4970703125,34.27734375 46.845703125,29.560546875 43.3154296875,25.3271484375 39.638671875,21.767578125 38.1884765625,24.8876953125 35.859375,27.333984375 32.87109375,28.9306640625 29.47265625,29.501953125 27.366943359375,29.2932147979736 25.3857421875,28.6669921875 22.03125,26.4111328125 19.775390625,23.0712890625 19.1601543426514,21.082763671875 18.955078125,18.955078125 19.2004375457764,16.669921875 19.9365234375,14.501953125 21.1193828582764,12.5390625 22.705078125,10.869140625 17.724609375,9.4775390625 12.59765625,8.759765625z M6.328125,0L12.03369140625,0.238039910793304 17.666015625,0.952147960662842 23.184814453125,2.14233684539795 28.5498046875,3.80859398841858 33.74267578125,5.94726848602295 38.7451171875,8.5546875 43.5241661071777,11.630859375 48.046875,15.17578125 51.328125,18.8232421875 53.583984375,23.173828125 56.4990234375,23.90625 58.8720703125,25.6201171875 60.46875,28.0810546875 61.0546875,31.025390625 61.69921875,32.578125 62.021484375,32.9150390625 62.373046875,33.251953125 64.51904296875,35.86669921875 66.09375,38.7890625 67.060546875,41.96044921875 67.3828125,45.322265625 66.796875,49.6875 65.1416015625,53.73046875 62.5341796875,57.24609375 59.091796875,60 56.689453125,61.435546875 55.95703125,62.0068359375 55.4296875,62.783203125 54.0380821228027,64.691162109375 52.3828125,66.1376953125 50.3979454040527,67.049560546875 48.017578125,67.353515625 46.025390625,67.1484375 44.0478515625,66.6943359375 42.0556640625,66.240234375 40.048828125,66.03515625 37.939453125,66.240234375 35.8447265625,66.708984375 33.75,67.177734375 31.640625,67.3828125 28.9306640625,67.03125 26.9677734375,66.1669921875 25.166015625,65.068359375 22.939453125,64.013671875 20.947265625,63.4716796875 18.896484375,63.134765625 17.5048828125,62.9150390625 16.142578125,62.548828125 13.8427734375,61.201171875 12.0703125,59.2822265625 10.927734375,56.9384765625 10.517578125,54.31640625 10.1806640625,52.96875 9.2578125,51.9140625 9.140625,51.826171875 8.349609375,51.2109375 7.587890625,50.56640625 5.09765625,46.8896484375 4.4384765625,44.747314453125 4.21875,42.509765625 4.21875,36.298828125 3.779296875,32.6806640625 2.548828125,29.23828125 0.6591796875,23.9794921875 0,18.45703125 0,6.328125 0.498046875,3.86718726158142 1.8603515625,1.86035132408142 3.8671875,0.498046875 6.328125,0z" />
    </g>
  </g>
</svg>