<?xml version="1.0" encoding="utf-8"?>
<!DOCTYPE svg PUBLIC "-//W3C//DTD SVG 1.1//EN" "http://www.w3.org/Graphics/SVG/1.1/DTD/svg11.dtd">
<svg width="67.3828125000012" height="67.3828125" xmlns="http://www.w3.org/2000/svg" xmlns:xlink="http://www.w3.org/1999/xlink" xmlns:xml="http://www.w3.org/XML/1998/namespace" version="1.1">
  <g>
    <g>
      <path style="fill:#FF0000;fill-opacity:1" d="M14.501953125,54.375L12.275390625,56.6015625 14.091796875,58.447265625 15,57.0849609375 15.76171875,55.634765625 14.501953125,54.375z M11.71875,51.62109375L10.283203125,52.3828125 8.935546875,53.291015625 10.78125,55.107421875 13.0078125,52.880859375 11.71875,51.62109375z M18.955078125,50.537109375L18.5522441864014,53.96484375 17.34375,57.216796875 16.8310546875,58.06640625 16.1865234375,59.033203125 15.64453125,60.0146484375 15.41015625,60.849609375 16.025390625,62.3291015625 17.490234375,62.958984375 18.75,62.5634765625 19.62890625,61.58203125 21.1523418426514,59.06982421875 22.265625,56.337890625 22.9467754364014,53.466796875 23.173828125,50.537109375 18.955078125,50.537109375z M30.29296875,38.583984375L28.06640625,40.810546875 29.35546875,42.12890625 33.251953125,41.54296875 30.29296875,38.583984375z M25.83984375,34.130859375L25.283203125,38.02734375 26.572265625,39.31640625 28.798828125,37.08984375 25.83984375,34.130859375z M35.56640625,33.310546875L33.310546875,35.56640625 37.236328125,39.462890625 39.462890625,37.236328125 35.56640625,33.310546875z M40.810546875,28.06640625L38.583984375,30.29296875 41.572265625,33.310546875 41.982421875,31.376953125 42.099609375,29.384765625 40.810546875,28.06640625z M30.146484375,27.919921875L27.919921875,30.146484375 31.81640625,34.072265625 34.072265625,31.845703125 30.146484375,27.919921875z M44.208984375,25.283203125L44.2236328125,26.953125 44.23828125,28.65234375 44.1650390625,30.966796875 43.798828125,33.22265625 41.7041015625,37.8076171875 38.3203125,41.2646484375 33.9697265625,43.447265625 31.534423828125,44.0185546875 29.00390625,44.208984375 16.845703125,44.208984375 13.8134765625,44.47265625 10.72265625,45.234375 7.79296875,46.4794921875 5.244140625,48.193359375 4.62890625,48.94775390625 4.423828125,49.86328125 5.0390625,51.357421875 6.533203125,51.97265625 7.20703125,51.85546875 7.822265625,51.533203125 10.0048828125,50.2001953125 12.0703125,49.2333984375 14.267578125,48.6328125 16.845703125,48.427734375 29.94140625,48.427734375 33.75,48.0322265625 37.3828125,46.787109375 41.3891563415527,44.23095703125 44.619140625,40.8984375 46.9409141540527,36.884765625 48.22265625,32.28515625 48.3984375,30.41015625 48.427734375,28.53515625 48.427734375,25.283203125 44.208984375,25.283203125z M38.02734375,25.283203125L34.130859375,25.83984375 37.08984375,28.798828125 39.31640625,26.572265625 38.02734375,25.283203125z M60.87890625,15.439453125L60.17578125,15.5419921875 59.560546875,15.87890625 57.4072265625,17.1826171875 55.2978515625,18.1494140625 53.056640625,18.75 50.537109375,18.955078125 37.91015625,18.955078125 34.62890625,19.22607421875 31.5234375,20.0390625 28.65234375,21.3427734375 26.07421875,23.0859375 21.9287109375,27.7587890625 20.4455547332764,30.6042499542236 19.423828125,33.720703125 19.0283203125,36.3134765625 18.955078125,38.935546875 18.955078125,42.12890625 23.173828125,42.12890625 23.1591796875,40.6494140625 23.14453125,39.228515625 23.3349609375,35.859375 24.19921875,32.490234375 26.103515625,29.091796875 28.76953125,26.3525390625 32.0361328125,24.3896484375 35.80078125,23.3203125 37.119140625,23.173828125 38.4375,23.14453125 39.43359375,23.1591796875 40.4296875,23.173828125 50.537109375,23.173828125 53.2580528259277,22.9797382354736 55.9130859375,22.3974609375 60.8203125,20.126953125 61.1572265625,19.9072265625 61.611328125,19.6142578125 62.05078125,19.2919921875 62.34375,19.013671875 62.8125,18.3251953125 62.958984375,17.490234375 62.34375,16.0400390625 60.87890625,15.439453125z M56.6015625,12.275390625L54.375,14.501953125 55.6640625,15.76171875 57.099609375,14.9853515625 58.447265625,14.091796875 56.6015625,12.275390625z M53.291015625,8.96484375L52.3681640625,10.2978515625 51.62109375,11.71875 52.880859375,13.0078125 55.107421875,10.78125 53.291015625,8.96484375z M49.86328125,4.423828125L48.9843711853027,4.62158489227295 48.22265625,5.21484422683716 46.494140625,7.76367139816284 45.234375,10.693359375 44.47265625,13.7841796875 44.208984375,16.845703125 48.427734375,16.845703125 48.92578125,13.06640625 50.361328125,9.521484375 51.09375,8.466796875 51.73828125,7.44140625 51.9140625,6.98730421066284 51.97265625,6.50390625 51.3427734375,5.0244140625 49.86328125,4.423828125z M49.98046875,0L52.2802734375,0.424805164337158 54.228515625,1.61132788658142 55.6201171875,3.41308617591858 56.279296875,5.654296875 61.728515625,11.1328125 63.9697265625,11.8212890625 65.771484375,13.1982421875 66.9580078125,15.1171875 67.3828125,17.431640625 66.7236328125,20.244140625 64.892578125,22.470703125 62.1826171875,24.3017578125 59.1650390625,25.72265625 55.9716796875,26.71875 52.763671875,27.24609375 52.763671875,29.443359375 52.5585899353027,32.52685546875 51.943359375,35.5078125 49.62890625,41.0302734375 46.0546875,45.7763671875 41.4404296875,49.482421875 35.9765625,51.8994140625 32.99560546875,52.547607421875 29.912109375,52.763671875 27.24609375,52.763671875 26.71875,55.975341796875 25.72265625,59.1650390625 24.29443359375,62.186279296875 22.470703125,64.892578125 20.244140625,66.708984375 17.4609375,67.3828125 15.1611328125,66.9580078125 13.1982421875,65.771484375 11.77734375,63.9697265625 11.103515625,61.728515625 5.654296875,56.279296875 3.4130859375,55.60546875 1.611328125,54.19921875 0.424805164337158,52.265625 0,49.98046875 0.64453125,47.16796875 2.4609375,44.94140625 5.18554592132568,43.099365234375 8.203125,41.6748046875 11.38916015625,40.682373046875 14.619140625,40.13671875 14.619140625,37.939453125 14.827880859375,34.779052734375 15.4541015625,31.7431640625 17.8125,26.1767578125 21.4599609375,21.4599609375 26.1767578125,17.8125 31.7431640625,15.4541015625 34.779052734375,14.827880859375 37.939453125,14.619140625 40.13671875,14.619140625 40.682373046875,11.38916015625 41.6748046875,8.203125 43.0993614196777,5.18554973602295 44.94140625,2.46093702316284 47.16796875,0.644531488418579 49.98046875,0z" />
    </g>
  </g>
</svg>