<?xml version="1.0" encoding="utf-8"?>
<!DOCTYPE svg PUBLIC "-//W3C//DTD SVG 1.1//EN" "http://www.w3.org/Graphics/SVG/1.1/DTD/svg11.dtd">
<svg width="67.3828125000016" height="67.3828125" xmlns="http://www.w3.org/2000/svg" xmlns:xlink="http://www.w3.org/1999/xlink" xmlns:xml="http://www.w3.org/XML/1998/namespace" version="1.1">
  <g>
    <g>
      <path style="fill:#FF0000;fill-opacity:1" d="M54.755859375,17.900390625L55.6127891540527,18.12744140625 56.30859375,18.80859375 57.275390625,20.947265625 57.7734375,23.408203125 57.919921875,25.283203125 57.861328125,26.42578125 57.65625,27.94921875 57.275390625,29.6044921875 56.689453125,31.11328125 55.8544921875,32.2119140625 54.755859375,32.63671875 53.8769493103027,32.40966796875 53.173828125,31.728515625 52.20703125,29.6044921875 51.7236328125,27.158203125 51.591796875,25.283203125 51.650390625,24.1259765625 51.8408203125,22.587890625 52.20703125,20.9326171875 52.79296875,19.423828125 53.6279296875,18.3251953125 54.755859375,17.900390625z M54.755859375,4.21874952316284L52.529296875,4.921875 50.712890625,6.7529296875 49.2626953125,9.3017578125 48.1787109375,12.158203125 47.431640625,14.8974599838257 46.9921875,17.080078125 46.4794921875,21.1669921875 46.318359375,25.283203125 46.494140625,29.6484375 47.080078125,33.984375 47.5341796875,36.1083984375 48.2958984375,38.73046875 49.365234375,41.455078125 50.7861328125,43.88671875 52.5732421875,45.64453125 54.755859375,46.318359375 56.9091796875,45.64453125 58.6962890625,43.88671875 60.1171875,41.455078125 61.1865234375,38.73046875 61.9482421875,36.1083984375 62.40234375,33.984375 62.98828125,29.6484375 63.1640625,25.283203125 63.0029296875,21.1669921875 62.490234375,17.080078125 62.05078125,14.8974599838257 61.3037109375,12.1728515625 60.2197265625,9.3310546875 58.7841796875,6.767578125 56.9677734375,4.921875 54.755859375,4.21874952316284z M16.845703125,4.21874952316284L14.5458984375,4.96581983566284 12.685546875,6.9140625 11.2353515625,9.6240234375 10.13671875,12.6416015625 9.3896484375,15.5126953125 8.96484375,17.783203125 8.5400390625,21.5185546875 8.408203125,25.283203125 8.408203125,54.755859375 8.12621974945068,57.183837890625 7.2802734375,59.4287109375 5.95092678070068,61.439208984375 4.21875,63.1640625 40.01953125,63.1640625 41.7517051696777,61.439208984375 43.0810546875,59.4287109375 43.9269981384277,57.183837890625 44.208984375,54.755859375 44.208984375,25.283203125 44.3408203125,21.5185546875 44.765625,17.783203125 45.1904296875,15.498046875 45.9375,12.626953125 47.0361328125,9.6240234375 48.486328125,6.9140625 50.3466796875,4.96581983566284 52.646484375,4.21874952316284 16.845703125,4.21874952316284z M16.845703125,0L54.755859375,0 56.568603515625,0.190432548522949 58.1982421875,0.76171875 60.966796875,2.79785180091858 63.134765625,5.72753858566284 64.74609375,9.169921875 65.8740234375,12.7294921875 66.591796875,15.99609375 67.1923828125,20.595703125 67.3828125,25.283203125 67.1923828125,29.94140625 66.591796875,34.541015625 65.8740234375,37.822265625 64.74609375,41.3671875 63.134765625,44.8095703125 60.966796875,47.7392578125 58.1982421875,49.775390625 56.568603515625,50.3466796875 54.755859375,50.537109375 48.427734375,50.537109375 48.427734375,54.755859375 47.9296875,58.6083984375 46.5234375,61.9189453125 44.3408203125,64.8046875 41.513671875,67.3828125 4.21875,67.3828125 2.5634765625,67.0458984375 1.2158203125,66.1376953125 0.322265148162842,64.7900390625 0,63.134765625 0.3955078125,61.3623046875 1.5234375,59.94140625 1.962890625,59.53125 2.40234375,59.12109375 3.720703125,57.099609375 4.21875,54.755859375 4.21875,25.283203125 4.423828125,20.80078125 5.1708984375,15.380859375 6.62109375,9.814453125 8.935546875,4.8779296875 10.477294921875,2.90405559539795 12.2900390625,1.34765601158142 14.403076171875,0.336916893720627 16.845703125,0z" />
    </g>
  </g>
</svg>