<?xml version="1.0" encoding="utf-8"?>
<!DOCTYPE svg PUBLIC "-//W3C//DTD SVG 1.1//EN" "http://www.w3.org/Graphics/SVG/1.1/DTD/svg11.dtd">
<svg width="67.3828125000017" height="67.3828125" xmlns="http://www.w3.org/2000/svg" xmlns:xlink="http://www.w3.org/1999/xlink" xmlns:xml="http://www.w3.org/XML/1998/namespace" version="1.1">
  <g>
    <g>
      <path style="fill:#FF0000;fill-opacity:1" d="M16.845703125,48.427734375L18.486328125,48.7646484375 19.8193359375,49.6728515625 20.7275390625,51.005859375 21.064453125,52.646484375 20.7275390625,54.287109375 19.8193359375,55.6201171875 18.486328125,56.5283203125 16.845703125,56.865234375 15.205078125,56.5283203125 13.8720703125,55.6201171875 12.9638671875,54.287109375 12.626953125,52.646484375 12.9638671875,51.005859375 13.8720703125,49.6728515625 15.205078125,48.7646484375 16.845703125,48.427734375z M24.228515625,35.80078125L25.458984375,36.0498046875 26.455078125,36.73828125 27.1142578125,37.7490234375 27.36328125,38.96484375 27.1142578125,40.1806640625 26.4404296875,41.19140625 25.4443359375,41.8798828125 24.228515625,42.12890625 23.0126953125,41.8798828125 22.001953125,41.19140625 21.3134765625,40.1806640625 21.064453125,38.96484375 21.3134765625,37.734375 21.9873046875,36.7236328125 22.9833984375,36.0498046875 24.228515625,35.80078125z M41.07421875,33.69140625L43.9306640625,34.27734375 46.259765625,35.8740234375 47.841796875,38.2177734375 48.427734375,41.07421875 47.841796875,43.9306640625 46.259765625,46.259765625 43.9306640625,47.841796875 41.07421875,48.427734375 38.203125,47.8564453125 35.859375,46.2890625 34.27734375,43.9453125 33.69140625,41.07421875 34.27734375,38.203125 35.859375,35.859375 38.203125,34.27734375 41.07421875,33.69140625z M10.517578125,29.47265625L12.01171875,30.087890625 12.626953125,31.58203125 12.01171875,33.076171875 10.517578125,33.69140625 9.0380859375,33.0615234375 8.408203125,31.58203125 9.0380859375,30.1025390625 10.517578125,29.47265625z M53.701171875,27.36328125L54.9169921875,27.6123046875 55.927734375,28.30078125 56.6162109375,29.3115234375 56.865234375,30.52734375 56.6162109375,31.7431640625 55.927734375,32.75390625 54.9169921875,33.4423828125 53.701171875,33.69140625 52.4560546875,33.4423828125 51.4599609375,32.7685546875 50.7861328125,31.7724609375 50.537109375,30.52734375 50.7861328125,29.3115234375 51.474609375,28.30078125 52.4853515625,27.6123046875 53.701171875,27.36328125z M8.408203125,23.173828125L6.8994140625,23.466796875 5.5517578125,24.2578125 4.5849609375,25.458984375 4.21875,26.953125 4.21875,59.384765625 4.599609375,60.8642578125 5.56640625,62.0654296875 6.8994140625,62.87109375 8.408203125,63.1640625 59.384765625,63.1640625 60.703125,62.8125 61.845703125,62.021484375 62.9443359375,60.3662109375 63.193359375,58.388671875 63.1787109375,57.626953125 63.1640625,56.865234375 60.703125,56.3671875 58.7109375,55.0048828125 57.36328125,52.998046875 56.865234375,50.537109375 57.36328125,48.076171875 58.7109375,46.0693359375 60.703125,44.70703125 63.1640625,44.208984375 63.1640625,27.158203125 62.841796875,25.751953125 61.9921875,24.4775390625 60.7763671875,23.5400390625 59.384765625,23.173828125 8.408203125,23.173828125z M43.154296875,10.517578125L44.3701171875,10.7666015625 45.380859375,11.455078125 46.0693359375,12.4658203125 46.318359375,13.681640625 46.0693359375,14.9267578125 45.3955078125,15.9228515625 44.384765625,16.5966796875 43.154296875,16.845703125 41.9091796875,16.5966796875 40.927734375,15.908203125 40.2685546875,14.8974599838257 40.01953125,13.681640625 40.2685546875,12.4658203125 40.9423828125,11.455078125 41.9384765625,10.7666015625 43.154296875,10.517578125z M43.974609375,4.21874952316284L42.7001953125,4.32128953933716 41.513671875,4.71679639816284 31.9921875,9.84375 33.251953125,11.5869140625 33.69140625,13.681640625 33.28125,15.7470703125 32.1533203125,17.4169921875 30.46875,18.544921875 28.41796875,18.955078125 26.5869140625,18.6328125 25.0341796875,17.724609375 23.876953125,16.3330078125 23.26171875,14.58984375 11.25,21.064453125 58.9453125,21.064453125 59.23828125,21.064453125 59.53125,21.09375 48.427734375,6.064453125 47.5634765625,5.2880859375 46.3916015625,4.71679639816284 45.1318359375,4.35058546066284 43.974609375,4.21874952316284z M43.974609375,0L46.025390625,0.219726324081421 48.1640625,0.864257574081421 50.126953125,1.90429699420929 51.62109375,3.31054711341858 65.68359375,22.32421875 66.943359375,24.7119140625 67.3828125,27.36328125 67.3828125,58.974609375 66.708984375,62.2265625 64.8779296875,64.892578125 62.1826171875,66.708984375 58.9453125,67.3828125 8.408203125,67.3828125 5.1416015625,66.7236328125 2.4609375,64.921875 0.6591796875,62.2412109375 0,58.974609375 0,27.36328125 0.307617664337158,25.1953125 1.1572265625,23.14453125 2.490234375,21.38671875 4.248046875,20.068359375 39.66796875,0.908203363418579 40.6494140625,0.498046875 41.7626953125,0.219726324081421 42.9052734375,0.0585942268371582 43.974609375,0z" />
    </g>
  </g>
</svg>