<?xml version="1.0" encoding="utf-8"?>
<!DOCTYPE svg PUBLIC "-//W3C//DTD SVG 1.1//EN" "http://www.w3.org/Graphics/SVG/1.1/DTD/svg11.dtd">
<svg width="67.3828125000008" height="52.646484375" xmlns="http://www.w3.org/2000/svg" xmlns:xlink="http://www.w3.org/1999/xlink" xmlns:xml="http://www.w3.org/XML/1998/namespace" version="1.1">
  <g>
    <g>
      <path style="fill:#FF0000;fill-opacity:1" d="M24.19921875,25.283203125L24.9462890625,25.5908203125 25.25390625,26.337890625 24.9462890625,27.0849609375 24.19921875,27.392578125 23.4521484375,27.0849609375 23.14453125,26.337890625 23.4521484375,25.5908203125 24.19921875,25.283203125z M28.41796875,23.173828125L29.1650390625,23.4814453125 29.47265625,24.228515625 29.1650390625,24.9755859375 28.41796875,25.283203125 27.6708984375,24.9755859375 27.36328125,24.228515625 27.6708984375,23.4814453125 28.41796875,23.173828125z M58.4765625,21.50390625L58.095703125,22.646484375 57.626953125,23.759765625 58.59375,24.8876953125 58.9453125,26.337890625 58.6962890625,27.5537109375 58.0224609375,28.564453125 57.0263671875,29.2529296875 55.810546875,29.501953125 52.55859375,29.501953125 52.0166015625,29.8095703125 51.4453125,30.1171875 53.818359375,32.51953125 54.4995079040527,33.5302734375 54.7265625,34.74609375 54.4775390625,35.9619140625 53.8037109375,36.97265625 52.79296875,37.6611328125 51.5625,37.91015625 50.5810546875,37.7490234375 49.8046875,37.3388671875 49.1162109375,36.7529296875 48.427734375,36.064453125 48.427734375,38.96484375 48.1787109375,40.2099609375 47.5048828125,41.2060546875 46.494140625,41.8798828125 45.263671875,42.12890625 44.1247520446777,41.934814453125 43.1689453125,41.3525390625 42.12890625,39.375 42.099609375,39.0234375 42.099609375,38.671875 39.08203125,40.6201171875 35.712890625,41.806640625 34.716796875,43.447265625 32.9296875,44.208984375 33.69140625,44.208984375 39.6240234375,43.916015625 45.498046875,42.978515625 48.9697265625,42.0703125 52.8515625,40.6494140625 56.6748046875,38.701171875 59.970703125,36.2109375 62.28515625,33.1494140625 62.9443359375,31.395263671875 63.1640625,29.501953125 62.783203125,27.1435546875 61.7578125,25.0048828125 60.263671875,23.115234375 58.4765625,21.50390625z M11.162109375,19.98046875L8.6279296875,21.708984375 6.4013671875,23.876953125 4.8046875,26.484375 4.189453125,29.501953125 4.39453125,31.336669921875 5.009765625,33.0322265625 7.1923828125,36.0205078125 10.3125,38.4814453125 13.9453125,40.4150390625 17.6513671875,41.8505859375 21.005859375,42.802734375 26.6162109375,43.8134765625 32.314453125,44.208984375 30.5419921875,43.447265625 29.560546875,41.806640625 27.2314453125,41.1181640625 25.078125,40.048828125 23.935546875,41.5576171875 22.119140625,42.12890625 20.8740234375,41.8798828125 19.8779296875,41.2060546875 19.2041015625,40.2099609375 18.955078125,38.96484375 18.955078125,36.064453125 18.2666015625,36.7529296875 17.5634765625,37.3388671875 16.7724609375,37.7490234375 15.791015625,37.91015625 14.5458984375,37.6611328125 13.5498046875,36.97265625 12.890625,35.947265625 12.65625,34.6875 12.88330078125,33.515625 13.564453125,32.51953125 16.58203125,29.501953125 13.681640625,29.501953125 12.4658203125,29.2529296875 11.455078125,28.564453125 10.7666015625,27.5537109375 10.517578125,26.337890625 11.1328125,24.462890625 12.7734375,23.3203125 11.8505859375,21.708984375 11.162109375,19.98046875z M34.716796875,18.955078125L35.4638671875,19.2626953125 35.80078125,20.009765625 35.478515625,20.7421875 34.74609375,21.064453125 33.9990234375,20.7568359375 33.69140625,20.009765625 33.9990234375,19.27734375 34.716796875,18.955078125z M26.30859375,18.955078125L27.0556640625,19.2626953125 27.36328125,20.009765625 27.0556640625,20.7568359375 26.30859375,21.064453125 25.5615234375,20.7568359375 25.25390625,20.009765625 25.5615234375,19.2626953125 26.30859375,18.955078125z M30.52734375,16.845703125L31.2744140625,17.1533203125 31.58203125,17.900390625 31.2744140625,18.6474609375 30.52734375,18.955078125 29.7802734375,18.6474609375 29.47265625,17.900390625 29.7802734375,17.1533203125 30.52734375,16.845703125z M32.63671875,14.765625L30.08056640625,15.0146503448486 27.685546875,15.76171875 23.6572265625,18.4716796875 20.9619140625,22.4853515625 20.2258281707764,24.869384765625 19.98046875,27.421875 20.2294902801514,29.94873046875 20.9765625,32.314453125 23.6865234375,36.3134765625 27.7001953125,39.0234375 30.076904296875,39.7705078125 32.607421875,40.01953125 35.1416015625,39.7705078125 37.529296875,39.0234375 41.5576171875,36.3134765625 44.267578125,32.2998046875 45.0146446228027,29.915771484375 45.263671875,27.36328125 45.0146446228027,24.832763671875 44.267578125,22.4560546875 41.5576171875,18.4423828125 37.5439453125,15.7470703125 35.167236328125,15.0109882354736 32.63671875,14.765625z M17.900390625,14.736328125L18.6328125,15.05859375 18.955078125,15.791015625 18.6474609375,16.5380859375 17.900390625,16.845703125 17.1533203125,16.5380859375 16.845703125,15.791015625 17.16796875,15.05859375 17.900390625,14.736328125z M43.154296875,12.65625L43.88671875,12.9638671875 44.208984375,13.681640625 43.9013671875,14.4287109375 43.154296875,14.736328125 42.4072265625,14.4287109375 42.099609375,13.681640625 42.421875,12.9638671875 43.154296875,12.65625z M47.373046875,10.546875L48.1201171875,10.8544921875 48.427734375,11.6015625 48.10546875,12.333984375 47.373046875,12.65625 46.640625,12.333984375 46.318359375,11.6015625 46.6259765625,10.8544921875 47.373046875,10.546875z M22.08984375,10.546875L22.8369140625,10.8544921875 23.14453125,11.6015625 22.822265625,12.333984375 22.08984375,12.65625 21.357421875,12.333984375 21.03515625,11.6015625 21.357421875,10.869140625 22.08984375,10.546875z M17.900390625,10.546875L18.6328125,10.869140625 18.955078125,11.6015625 18.6328125,12.333984375 17.900390625,12.65625 17.16796875,12.333984375 16.845703125,11.6015625 17.1533203125,10.8544921875 17.900390625,10.546875z M43.154296875,8.4375L43.9013671875,8.7451171875 44.208984375,9.4921875 43.9013671875,10.2392578125 43.154296875,10.546875 42.4072265625,10.2392578125 42.099609375,9.4921875 42.4072265625,8.7451171875 43.154296875,8.4375z M26.30859375,8.4375L27.0556640625,8.7451171875 27.36328125,9.4921875 27.0556640625,10.2392578125 26.30859375,10.546875 25.5615234375,10.2392578125 25.25390625,9.4921875 25.5615234375,8.7451171875 26.30859375,8.4375z M45.263671875,6.328125L42.041015625,6.7822265625 39.1259765625,8.0859375 36.6796875,10.1220703125 34.86328125,12.802734375 36.38671875,13.1396484375 37.91015625,13.623046875 38.232421875,12.9345703125 38.935546875,12.65625 39.66796875,12.9638671875 39.990234375,13.681640625 39.697265625,14.443359375 42.9052734375,16.8017578125 45.322265625,19.86328125 46.845703125,23.4521484375 47.373046875,27.392578125 47.34375,28.359375 47.255859375,29.326171875 51.064453125,27.9345703125 54.111328125,25.3564453125 56.1328125,21.8994140625 56.865234375,17.900390625 56.63818359375,15.5712909698486 55.95703125,13.388671875 53.466796875,9.7119140625 49.775390625,7.236328125 47.5927696228027,6.55517578125 45.263671875,6.328125z M22.08984375,6.328125L22.8369140625,6.6357421875 23.14453125,7.3828125 22.8369140625,8.1298828125 22.08984375,8.4375 21.357421875,8.115234375 21.03515625,7.3828125 21.357421875,6.65038967132568 22.08984375,6.328125z M24.19921875,4.21875L21.8701152801514,4.44580078125 19.6875,5.126953125 16.0107421875,7.6025390625 13.53515625,11.279296875 12.85400390625,13.4619159698486 12.626953125,15.791015625 12.978515625,18.69873046875 14.033203125,21.38671875 15.72509765625,23.72314453125 17.98828125,25.576171875 18.5742168426514,22.91748046875 19.62890625,20.44921875 22.880859375,16.34765625 27.3486328125,13.6376953125 29.923095703125,12.9016132354736 32.63671875,12.65625 33.3251953125,11.2353515625 34.16015625,9.90234375 32.2998046875,7.529296875 29.94140625,5.7421875 27.1875,4.6142578125 24.19921875,4.21875z M24.19921875,0L27.48779296875,0.3369140625 30.615234375,1.34765625 33.46435546875,2.98095703125 35.91796875,5.185546875 40.341796875,2.900390625 42.7734336853027,2.30712890625 45.263671875,2.109375 49.4384765625,2.666015625 53.203125,4.248046875 56.4111328125,6.708984375 58.88671875,9.8876953125 60.4833984375,13.6376953125 61.0546875,17.8125 61.0546875,18.193359375 63.5595703125,20.4638671875 65.56640625,23.1298828125 66.8994140625,26.1474609375 67.3828125,29.501953125 67.3681640625,31.5966796875 67.353515625,33.69140625 67.12646484375,36.112060546875 66.4453125,38.3349609375 64.013671875,42.2314453125 60.4833984375,45.4248046875 56.2646484375,47.9443359375 51.767578125,49.833984375 47.431640625,51.123046875 40.6201171875,52.2802734375 33.69140625,52.646484375 26.7626953125,52.2802734375 19.921875,51.09375 15.5712890625,49.8193359375 11.0888671875,47.9443359375 6.8701171875,45.4248046875 3.33984375,42.2314453125 0.908203125,38.3203125 0.227050423622131,36.09375 0,33.69140625 0,29.501953125 0.673828125,25.517578125 2.5048828125,22.0458984375 5.185546875,19.1015625 8.4375,16.69921875 8.408203125,16.2451171875 8.408203125,15.791015625 8.719482421875,12.6306171417236 9.6533203125,9.6533203125 11.121826171875,6.954345703125 13.037109375,4.62890625 15.362548828125,2.713623046875 18.0615234375,1.24511623382568 21.0388164520264,0.31127917766571 24.19921875,0z" />
    </g>
  </g>
</svg>