<?xml version="1.0" encoding="utf-8"?>
<!DOCTYPE svg PUBLIC "-//W3C//DTD SVG 1.1//EN" "http://www.w3.org/Graphics/SVG/1.1/DTD/svg11.dtd">
<svg width="67.3828125000016" height="67.3828125" xmlns="http://www.w3.org/2000/svg" xmlns:xlink="http://www.w3.org/1999/xlink" xmlns:xml="http://www.w3.org/XML/1998/namespace" version="1.1">
  <g>
    <g>
      <path style="fill:#FF0000;fill-opacity:1" d="M24.90234375,49.541015625L15.1171875,59.326171875 16.845703125,61.0546875 26.630859375,51.26953125 24.90234375,49.541015625z M22.79296875,47.431640625L13.0078125,57.216796875 14.35546875,58.59375 24.140625,48.80859375 23.466796875,48.1201171875 22.79296875,47.431640625z M20.68359375,45.3515625L10.8984375,55.13671875 12.24609375,56.484375 22.03125,46.69921875 20.68359375,45.3515625z M18.57421875,43.2421875L8.7890625,53.02734375 10.166015625,54.375 19.951171875,44.58984375 19.2919921875,43.916015625 18.57421875,43.2421875z M16.46484375,41.1328125L6.6796875,50.91796875 8.056640625,52.265625 17.841796875,42.48046875 16.46484375,41.1328125z M14.00390625,38.642578125L4.21875,48.427734375 5.947265625,50.15625 15.732421875,40.37109375 14.00390625,38.642578125z M17.197265625,35.44921875L15.46875,37.1484375 28.125,49.8046875 29.853515625,48.076171875 17.197265625,35.44921875z M23.173828125,31.669921875L21.796875,31.8310546875 20.6689453125,32.2998046875 19.6728515625,33.017578125 18.69140625,33.955078125 31.318359375,46.58203125 32.98828125,44.6044921875 33.603515625,42.12890625 33.2080078125,40.0927734375 32.080078125,38.37890625 26.89453125,33.193359375 25.1806640625,32.0654296875 23.173828125,31.669921875z M61.0546875,4.21874952316284L59.58984375,4.83398485183716 31.11328125,33.28125 31.8310546875,33.8818359375 32.6806640625,34.716796875 33.486328125,35.5810546875 34.072265625,36.26953125 62.548828125,7.79296875 63.1640625,6.328125 62.548828125,4.83398485183716 61.0546875,4.21874952316284z M61.0546875,0L63.5009765625,0.498046875 65.5224609375,1.84570276737213 66.884765625,3.83789014816284 67.3828125,6.26953125 66.8701171875,8.8037109375 65.390625,10.8984375 38.73046875,37.55859375 38.73046875,37.998046875 38.701171875,38.701171875 38.61328125,39.375 39.60205078125,41.7333984375 39.931640625,44.296875 39.7265625,46.2451171875 39.111328125,48.046875 36.884765625,51.181640625 21.943359375,66.15234375 20.5810546875,67.060546875 18.955078125,67.3828125 17.3291015625,67.060546875 15.966796875,66.15234375 1.23046875,51.416015625 0.322265148162842,50.0537109375 0,48.427734375 0.322265148162842,46.81640625 1.23046875,45.439453125 16.142578125,30.52734375 19.3798828125,28.2861328125 21.2585430145264,27.6599140167236 23.232421875,27.451171875 25.6494140625,27.7661151885986 27.919921875,28.7109375 28.8720703125,28.623046875 29.82421875,28.59375 56.484375,1.99218738079071 58.5791015625,0.527343988418579 61.0546875,0z" />
    </g>
  </g>
</svg>