<?xml version="1.0" encoding="utf-8"?>
<!DOCTYPE svg PUBLIC "-//W3C//DTD SVG 1.1//EN" "http://www.w3.org/Graphics/SVG/1.1/DTD/svg11.dtd">
<svg width="67.3828125000004" height="67.3828125" xmlns="http://www.w3.org/2000/svg" xmlns:xlink="http://www.w3.org/1999/xlink" xmlns:xml="http://www.w3.org/XML/1998/namespace" version="1.1">
  <g>
    <g>
      <path style="fill:#FF0000;fill-opacity:1" d="M16.962890625,42.12890625L18.0395488739014,42.38525390625 18.80859375,43.154296875 21.2292461395264,46.219482421875 24.2138671875,48.5595703125 27.689208984375,50.042724609375 31.58203125,50.537109375 37.91015625,50.537109375 39.3896484375,51.15234375 39.990234375,52.646484375 39.3896484375,54.140625 37.91015625,54.755859375 31.58203125,54.755859375 26.6748046875,54.0966796875 22.1044921875,52.20703125 18.1640625,49.21875 15.17578125,45.263671875 14.8828125,44.23828125 15.498046875,42.7587890625 16.962890625,42.12890625z M22.119140625,25.283203125L23.3349609375,25.5322265625 24.3310546875,26.2060546875 25.0048828125,27.2021484375 25.25390625,28.41796875 25.25390625,32.63671875 25.0048828125,33.8525390625 24.345703125,34.86328125 23.349609375,35.5517578125 22.119140625,35.80078125 20.8740234375,35.5517578125 19.8779296875,34.8779296875 19.2041015625,33.8818359375 18.955078125,32.63671875 18.955078125,28.41796875 19.2041015625,27.1875 19.892578125,26.19140625 20.9033203125,25.5322265625 22.119140625,25.283203125z M45.263671875,23.173828125L42.4072265625,23.759765625 40.078125,25.341796875 38.49609375,27.6708984375 37.91015625,30.52734375 38.49609375,33.3837890625 40.078125,35.7275390625 42.4072265625,37.32421875 45.263671875,37.91015625 48.134765625,37.32421875 50.478515625,35.7421875 52.060546875,33.3984375 52.646484375,30.52734375 52.060546875,27.6708984375 50.4638671875,25.341796875 48.1201171875,23.759765625 45.263671875,23.173828125z M22.08984375,16.875L26.103515625,17.5048828125 29.677734375,19.365234375 30.3076171875,20.126953125 30.52734375,21.064453125 29.8974609375,22.55859375 28.41796875,23.173828125 27.7587890625,23.056640625 27.158203125,22.734375 24.7705078125,21.50390625 22.08984375,21.09375 19.4384765625,21.50390625 17.05078125,22.734375 16.4501953125,23.056640625 15.791015625,23.173828125 14.296875,22.5439453125 13.681640625,21.03515625 13.9013671875,20.1123046875 14.53125,19.365234375 18.10546875,17.5048828125 22.08984375,16.875z M33.69140625,4.21874952316284L29.696044921875,4.48242473602295 25.8544921875,5.2734375 22.2106914520264,6.54419231414795 18.80859375,8.2470703125 15.677490234375,10.3564453125 12.8466796875,12.8466796875 10.3564453125,15.677490234375 8.2470703125,18.80859375 6.54418849945068,22.210693359375 5.2734375,25.8544921875 4.482421875,29.6960468292236 4.21875,33.69140625 4.482421875,37.686767578125 5.2734375,41.5283203125 6.54418849945068,45.16845703125 8.2470703125,48.5595703125 10.360107421875,51.683349609375 12.861328125,54.521484375 15.699462890625,57.022705078125 18.8232421875,59.1357421875 22.2143535614014,60.838623046875 25.8544921875,62.109375 29.696044921875,62.900390625 33.69140625,63.1640625 40.341796875,62.4169921875 46.5673828125,60.234375 52.1484375,56.7041015625 56.865234375,51.943359375 56.865234375,30.64453125 56.612548828125,32.947998046875 55.9130859375,35.1123046875 53.4228515625,38.759765625 49.74609375,41.220703125 47.5707969665527,41.90185546875 45.263671875,42.12890625 42.9345664978027,41.90185546875 40.751953125,41.220703125 37.0751953125,38.73046875 34.599609375,35.0390625 33.91845703125,32.8564453125 33.69140625,30.52734375 33.91845703125,28.1982440948486 34.599609375,26.015625 37.0751953125,22.3388671875 40.751953125,19.86328125 42.9345664978027,19.18212890625 45.263671875,18.955078125 47.4389610290527,19.156494140625 49.51171875,19.7607421875 53.0859375,21.9873046875 55.6201171875,25.3271484375 56.407470703125,27.3229999542236 56.806640625,29.47265625 57.71484375,29.58984375 58.53515625,29.82421875 60.3662109375,31.376953125 61.0546875,33.69140625 61.0546875,44.6484375 62.63671875,39.287109375 63.1640625,33.69140625 62.900390625,29.6960468292236 62.109375,25.8544921875 60.838623046875,22.210693359375 59.1357421875,18.80859375 57.0263671875,15.677490234375 54.5361328125,12.8466796875 51.7053184509277,10.3564453125 48.57421875,8.2470703125 45.1721153259277,6.54419231414795 41.5283203125,5.2734375 37.686767578125,4.48242473602295 33.69140625,4.21874952316284z M33.69140625,0L38.26171875,0.300295770168304 42.65625,1.20117139816284 46.8200645446777,2.65137004852295 50.6982421875,4.59960889816284 54.2687950134277,7.0166015625 57.509765625,9.873046875 60.3662109375,13.114013671875 62.783203125,16.6845703125 64.7314453125,20.562744140625 66.181640625,24.7265625 67.08251953125,29.1210956573486 67.3828125,33.69140625 66.983642578125,38.95751953125 65.7861328125,44.033203125 63.804931640625,48.8525390625 61.0546875,53.349609375 61.0546875,61.0546875 60.439453125,62.548828125 58.9453125,63.1640625 57.83203125,62.8857421875 57.2021484375,62.138671875 56.9091796875,61.083984375 56.8359375,59.912109375 56.8505859375,58.974609375 56.865234375,58.154296875 51.8115234375,62.0947265625 46.1572265625,64.98046875 40.0634765625,66.767578125 33.662109375,67.3828125 29.095458984375,67.08251953125 24.7119140625,66.181640625 20.5554180145264,64.7314453125 16.669921875,62.783203125 13.092041015625,60.3662109375 9.8583984375,57.509765625 7.01293849945068,54.26513671875 4.599609375,50.68359375 2.6513671875,46.79443359375 1.201171875,42.626953125 0.300292611122131,38.23974609375 0,33.69140625 0.300292611122131,29.1210956573486 1.201171875,24.7265625 2.6513671875,20.562744140625 4.599609375,16.6845703125 7.01660060882568,13.114013671875 9.873046875,9.873046875 13.114013671875,7.0166015625 16.6845703125,4.59960889816284 20.5627422332764,2.65137004852295 24.7265625,1.20117139816284 29.12109375,0.300295770168304 33.69140625,0z" />
    </g>
  </g>
</svg>