<?xml version="1.0" encoding="utf-8"?>
<!DOCTYPE svg PUBLIC "-//W3C//DTD SVG 1.1//EN" "http://www.w3.org/Graphics/SVG/1.1/DTD/svg11.dtd">
<svg width="67.3828125000012" height="67.3828125" xmlns="http://www.w3.org/2000/svg" xmlns:xlink="http://www.w3.org/1999/xlink" xmlns:xml="http://www.w3.org/XML/1998/namespace" version="1.1">
  <g>
    <g>
      <path style="fill:#FF0000;fill-opacity:1" d="M14.00390625,46.34765625L15.128173828125,46.54541015625 16.0400390625,47.138671875 16.6442852020264,48.03955078125 16.845703125,49.16015625 16.435546875,50.6689453125 15.263671875,51.6796875 11.865234375,53.2763671875 8.408203125,54.755859375 9.873046875,51.3134765625 11.455078125,47.900390625 12.48046875,46.7431640625 14.00390625,46.34765625z M30.52734375,23.173828125L31.7431640625,23.4228515625 32.75390625,24.08203125 33.4423828125,25.078125 33.69140625,26.30859375 33.69140625,30.52734375 33.4423828125,31.7724609375 32.7685546875,32.7685546875 31.7578125,33.4423828125 30.52734375,33.69140625 29.3115234375,33.4423828125 28.30078125,32.75390625 27.6123046875,31.7431640625 27.36328125,30.52734375 27.36328125,26.30859375 27.6123046875,25.0927734375 28.30078125,24.0966796875 29.3115234375,23.4228515625 30.52734375,23.173828125z M33.69140625,14.736328125L32.0947265625,17.6220703125 29.70703125,20.5078125 26.7626953125,23.1591796875 23.4814453125,25.341796875 20.09765625,26.8212890625 16.845703125,27.36328125 16.376953125,27.36328125 5.654296875,47.40234375 4.599609375,49.9365234375 4.21875,52.646484375 4.423828125,54.752197265625 5.0390625,56.7333984375 7.294921875,60.087890625 10.6494140625,62.34375 12.630615234375,62.958984375 14.736328125,63.1640625 16.8420391082764,62.955322265625 18.8232421875,62.3291015625 22.1630859375,60.0732421875 24.4189453125,56.7333984375 25.045166015625,54.752197265625 25.25390625,52.646484375 29.47265625,48.45703125 40.01953125,48.45703125 33.69140625,63.1640625 50.478515625,63.1640625 52.2766075134277,61.475830078125 53.6279296875,59.4580078125 54.4738731384277,57.191162109375 54.755859375,54.755859375 41.8359375,54.755859375 45.46875,52.060546875 48.2080078125,48.57421875 49.9365234375,44.4873046875 50.537109375,40.01953125 50.537109375,23.173828125 33.69140625,14.736328125z M35.80078125,4.21874952316284L34.306640625,4.83398485183716 33.69140625,6.328125 33.69140625,8.4375 35.537109375,8.408203125 37.3828125,8.37890625 39.0673828125,8.4228515625 40.751953125,8.583984375 37.3828125,4.98046827316284 36.6796875,4.423828125 35.80078125,4.21874952316284z M5.80078125,4.21874952316284L4.6728515625,4.6728515625 4.21875,5.80078125 4.658203125,6.9140625 18.369140625,20.7421875 19.39453125,21.4306640625 20.595703125,21.6796875 21.826171875,21.4306640625 22.8515625,20.7568359375 23.5400390625,19.7607421875 23.7890625,18.515625 23.4521484375,17.080078125 22.5,15.966796875 17.1240234375,12.1142578125 11.806640625,8.203125 9.3017578125,6.2841796875 6.73828125,4.51171875 6.298828125,4.2919921875 5.80078125,4.21874952316284z M5.80078125,0L7.58788967132568,0.278323143720627 9.19921875,1.11328101158142 19.365234375,8.49609375 24.287109375,5.7861328125 29.765625,4.39453125 30.6884765625,2.60742163658142 32.080078125,1.21582007408142 33.8232421875,0.322265148162842 35.80078125,0 37.998046875,0.424805164337158 39.78515625,1.5087890625 41.337890625,2.98828101158142 42.802734375,4.62890625 46.2597618103027,5.41260051727295 49.541015625,6.59179735183716 55.4736328125,10.0048828125 60.41015625,14.6484365463257 64.16015625,20.2880859375 66.5478515625,26.71875 67.174072265625,30.1611347198486 67.3828125,33.69140625 67.3828125,67.3828125 27.3046875,67.3828125 33.6328125,52.646484375 31.23046875,52.646484375 29.35546875,54.4921875 28.76953125,57.147216796875 27.71484375,59.6044921875 24.4775390625,63.69140625 20.0244140625,66.4013671875 17.4499492645264,67.137451171875 14.736328125,67.3828125 11.781005859375,67.093505859375 9.0087890625,66.2255859375 6.49658107757568,64.85595703125 4.3212890625,63.0615234375 2.52685546875,60.88623046875 1.1572265625,58.3740234375 0.289306282997131,55.601806640625 0,52.646484375 0.5419921875,48.837890625 2.021484375,45.29296875 9.345703125,31.58203125 4.5703125,31.58203125 6.5625,25.95703125 7.3974609375,24.111328125 8.4521484375,22.3828125 9.6240234375,20.6982421875 10.751953125,19.013671875 1.669921875,9.873046875 0.424805164337158,7.98339796066284 0,5.771484375 0.454101085662842,3.515625 1.69921779632568,1.68457067012787 3.544921875,0.454101085662842 5.80078125,0z" />
    </g>
  </g>
</svg>