<?xml version="1.0" encoding="utf-8"?>
<!DOCTYPE svg PUBLIC "-//W3C//DTD SVG 1.1//EN" "http://www.w3.org/Graphics/SVG/1.1/DTD/svg11.dtd">
<svg width="67.382812500001" height="67.3828125" xmlns="http://www.w3.org/2000/svg" xmlns:xlink="http://www.w3.org/1999/xlink" xmlns:xml="http://www.w3.org/XML/1998/namespace" version="1.1">
  <g>
    <g>
      <path style="fill:#FF0000;fill-opacity:1" d="M45.703125,55.37109375L42.744140625,58.330078125 43.6083984375,59.23828125 44.501953125,60.1171875 43.53515625,60.498046875 42.7734375,61.2158203125 42.275390625,62.138671875 42.099609375,63.1640625 50.537109375,63.1640625 50.537109375,60.205078125 45.703125,55.37109375z M42.5390625,52.20703125L41.015625,53.6865234375 39.580078125,55.1953125 41.25,56.865234375 44.208984375,53.876953125 42.5390625,52.20703125z M35.80078125,46.318359375L35.80078125,50.537109375 41.220703125,50.537109375 42.099609375,49.658203125 42.099609375,46.318359375 35.80078125,46.318359375z M56.865234375,42.12890625L56.865234375,46.318359375 61.0546875,46.318359375 61.6845703125,47.7978515625 63.1640625,48.427734375 63.1640625,42.12890625 56.865234375,42.12890625z M50.537109375,42.12890625L50.537109375,46.318359375 54.755859375,46.318359375 54.755859375,42.12890625 50.537109375,42.12890625z M46.318359375,37.91015625L46.318359375,44.208984375 47.9296875,42.6708984375 49.482421875,41.07421875 46.318359375,37.91015625z M6.328125,29.47265625L4.833984375,30.087890625 4.21875,31.58203125 4.833984375,33.076171875 6.328125,33.69140625 8.408203125,33.69140625 8.408203125,29.47265625 6.328125,29.47265625z M21.123046875,27.333984375L18.251953125,29.47265625 12.626953125,29.47265625 12.626953125,33.69140625 18.955078125,33.69140625 20.21484375,33.28125 22.939453125,31.23046875 21.7236328125,29.4287109375 21.123046875,27.333984375z M23.203125,25.78125L23.173828125,26.07421875 23.173828125,26.3671875 23.701171875,28.5791015625 25.0048828125,30.46875 26.6748046875,32.1533203125 28.330078125,33.69140625 35.80078125,41.1328125 35.80078125,44.208984375 37.91015625,44.208984375 37.91015625,35.80078125 30.380859375,28.271484375 28.974609375,29.150390625 27.333984375,29.47265625 25.8251953125,29.1943359375 24.5654296875,28.41796875 23.6572265625,27.24609375 23.203125,25.78125z M34.51171875,24.9609375L32.021484375,26.953125 39.697265625,34.62890625 40.01953125,35.361328125 40.01953125,44.208984375 44.208984375,44.208984375 44.208984375,33.69140625 43.88671875,32.05078125 42.9931640625,30.7177734375 41.66015625,29.8095703125 40.01953125,29.47265625 39.5654296875,29.501953125 39.111328125,29.58984375 34.51171875,24.9609375z M31.728515625,19.1015625L26.044921875,23.61328125 25.4736328125,24.345703125 25.283203125,25.25390625 25.927734375,26.7919921875 27.509765625,27.36328125 28.2275390625,27.1875 28.857421875,26.77734375 31.8017578125,24.4775390625 34.716796875,22.08984375 31.728515625,19.1015625z M14.853515625,14.736328125L14.736328125,15.791015625 14.736328125,17.900390625 15.146484375,19.9658203125 16.2744140625,21.6357421875 17.9443359375,22.763671875 20.009765625,23.173828125 21.3977031707764,22.9834003448486 22.6904296875,22.412109375 24.638671875,20.419921875 22.8515625,18.6328125 23.173828125,17.900390625 22.8515625,17.16796875 22.119140625,16.845703125 21.357421875,17.16796875 18.955078125,14.736328125 14.853515625,14.736328125z M40.01953125,13.125L38.0712890625,14.3115234375 35.80078125,14.736328125 35.80078125,15.849609375 33.369140625,17.783203125 36.38671875,20.771484375 39.228515625,18.486328125 39.82177734375,17.75390625 40.01953125,16.845703125 40.01953125,13.125z M35.771484375,4.21874952316284L34.130859375,4.5556640625 32.7978515625,5.46386766433716 31.904296875,6.796875 31.58203125,8.4375 31.9189453125,10.078125 32.8271484375,11.4111328125 34.1748046875,12.3046875 35.830078125,12.626953125 37.470703125,12.2900390625 38.8037109375,11.3818359375 39.697265625,10.048828125 40.01953125,8.408203125 39.6826171875,6.767578125 38.759765625,5.4345703125 37.412109375,4.541015625 35.771484375,4.21874952316284z M35.80078125,0L39.0380859375,0.673828601837158 41.71875,2.5048828125 43.53515625,5.20019578933716 44.208984375,8.4375 44.208984375,16.845703125 43.7841796875,19.1455078125 42.685546875,20.91796875 41.1181640625,22.3974609375 39.31640625,23.818359375 40.810546875,25.3125 43.9453125,26.2353515625 46.34765625,28.154296875 47.8857421875,30.8349609375 48.427734375,34.04296875 52.265625,37.91015625 67.3828125,37.91015625 67.3828125,52.646484375 65.8740234375,52.67578125 64.365234375,52.705078125 61.1572265625,52.294921875 59.732666015625,51.650390625 58.4765625,50.537109375 46.845703125,50.537109375 54.755859375,58.447265625 54.755859375,67.3828125 37.91015625,67.3828125 37.880859375,65.8154296875 37.8515625,64.248046875 37.9833984375,62.138671875 38.5546875,60.1171875 36.8115234375,58.4765625 34.775390625,56.4990234375 32.958984375,54.404296875 31.875,52.412109375 31.552734375,50.4638671875 31.46484375,48.076171875 31.5234375,45.29296875 31.58203125,42.890625 24.228515625,35.537109375 21.796875,37.2216796875 18.955078125,37.91015625 6.328125,37.91015625 3.8671875,37.412109375 1.8603515625,36.0498046875 0.498046875,34.04296875 0,31.58203125 0.498046875,29.12109375 1.8603515625,27.12890625 3.8671875,25.78125 6.328125,25.283203125 14.12109375,25.283203125 11.484375,21.9873046875 10.75927734375,20.020751953125 10.517578125,17.900390625 10.517578125,15.791015625 11.2646484375,12.099609375 13.30078125,9.0966796875 16.318359375,7.0751953125 20.009765625,6.328125 22.2143535614014,6.57348918914795 24.2578125,7.3095703125 26.06689453125,8.507080078125 27.568359375,10.13671875 27.421875,9.287109375 27.36328125,8.4375 28.0224609375,5.1416015625 29.82421875,2.46093702316284 32.5048828125,0.659179925918579 35.80078125,0z" />
    </g>
  </g>
</svg>