<?xml version="1.0" encoding="utf-8"?>
<!DOCTYPE svg PUBLIC "-//W3C//DTD SVG 1.1//EN" "http://www.w3.org/Graphics/SVG/1.1/DTD/svg11.dtd">
<svg width="67.3828125000011" height="67.3828125" xmlns="http://www.w3.org/2000/svg" xmlns:xlink="http://www.w3.org/1999/xlink" xmlns:xml="http://www.w3.org/XML/1998/namespace" version="1.1">
  <g>
    <g>
      <path style="fill:#FF0000;fill-opacity:1" d="M12.94921875,31.58203125L14.01123046875,34.92919921875 15.732421875,37.880859375 17.9846172332764,40.4150390625 20.6396484375,42.509765625 23.631591796875,44.15771484375 26.89453125,45.3515625 30.29296875,46.07666015625 33.69140625,46.318359375 37.086181640625,46.072998046875 40.4736328125,45.3369140625 43.7255821228027,44.132080078125 46.7138671875,42.48046875 49.3688926696777,40.389404296875 51.62109375,37.8662109375 53.3496055603027,34.925537109375 54.43359375,31.58203125 37.91015625,31.58203125 37.91015625,41.66015625 40.7336387634277,40.8544921875 43.4033203125,39.609375 45.8093223571777,37.9248046875 47.841796875,35.80078125 42.099609375,35.80078125 42.099609375,36.38671875 42.0703125,36.9287109375 41.9384765625,37.4267578125 41.6162109375,37.7783203125 41.044921875,37.91015625 40.3125,37.587890625 39.990234375,36.85546875 39.990234375,33.69140625 51.650390625,33.69140625 50.7421875,35.2734375 47.900390625,38.90625 44.3701171875,41.484375 40.283203125,43.1689453125 35.80078125,44.12109375 35.80078125,39.90234375 34.74609375,39.990234375 33.69140625,40.01953125 32.63671875,39.990234375 31.58203125,39.90234375 31.58203125,44.12109375 27.099609375,43.1689453125 23.0126953125,41.484375 19.4677734375,38.90625 16.611328125,35.2734375 15.703125,33.69140625 27.36328125,33.69140625 27.36328125,36.85546875 27.0556640625,37.6025390625 26.30859375,37.91015625 25.7373046875,37.7783203125 25.4150390625,37.4267578125 25.283203125,36.9287109375 25.25390625,36.38671875 25.25390625,35.80078125 19.51171875,35.80078125 21.5478496551514,37.9248046875 23.96484375,39.609375 26.6455078125,40.8544921875 29.47265625,41.66015625 29.47265625,31.58203125 12.94921875,31.58203125z M33.69140625,18.955078125L32.63671875,18.984375 31.58203125,19.072265625 31.58203125,27.36328125 21.123046875,27.36328125 21.0791015625,27.890625 21.064453125,28.447265625 21.064453125,28.9599609375 21.123046875,29.47265625 31.58203125,29.47265625 31.58203125,37.763671875 32.63671875,37.8662109375 33.69140625,37.91015625 34.74609375,37.8662109375 35.80078125,37.763671875 35.80078125,29.47265625 46.23046875,29.47265625 46.318359375,28.41796875 46.23046875,27.36328125 35.80078125,27.36328125 35.80078125,19.072265625 34.74609375,18.984375 33.69140625,18.955078125z M33.69140625,10.517578125L30.29296875,10.762939453125 26.89453125,11.4990234375 23.631591796875,12.70751953125 20.6396484375,14.3701171875 17.9846172332764,16.47216796875 15.732421875,18.9990234375 14.01123046875,21.939697265625 12.94921875,25.283203125 29.47265625,25.283203125 29.47265625,15.205078125 26.6455078125,16.0107421875 23.96484375,17.255859375 21.5478496551514,18.9404296875 19.51171875,21.064453125 25.25390625,21.064453125 25.25390625,20.478515625 25.283203125,19.9365234375 25.4150390625,19.4384765625 25.7373046875,19.0869140625 26.30859375,18.955078125 27.0556640625,19.2626953125 27.36328125,20.009765625 27.36328125,23.173828125 15.703125,23.173828125 16.611328125,21.591796875 19.4677734375,17.98828125 23.0126953125,15.3955078125 27.099609375,13.681640625 31.58203125,12.71484375 31.58203125,16.962890625 32.63671875,16.875 33.69140625,16.845703125 34.74609375,16.875 35.80078125,16.962890625 35.80078125,12.71484375 40.283203125,13.681640625 44.3701171875,15.3955078125 47.900390625,17.98828125 50.7421875,21.591796875 51.650390625,23.173828125 39.990234375,23.173828125 39.990234375,20.009765625 40.3125,19.27734375 41.044921875,18.955078125 41.6162109375,19.0869140625 41.9384765625,19.4384765625 42.0703125,19.9365234375 42.099609375,20.478515625 42.099609375,21.064453125 47.841796875,21.064453125 45.8093223571777,18.9404296875 43.4033203125,17.255859375 40.7336387634277,16.0107421875 37.91015625,15.205078125 37.91015625,25.283203125 54.43359375,25.283203125 53.3715782165527,21.939697265625 51.650390625,18.9990234375 49.3981895446777,16.47216796875 46.7431640625,14.3701171875 43.7512168884277,12.70751953125 40.48828125,11.4990234375 37.08984375,10.762939453125 33.69140625,10.517578125z M33.69140625,8.4375L38.994140625,8.9794921875 44.0625,10.5615234375 48.6328125,13.125 52.44140625,16.611328125 55.224609375,20.9912109375 56.71875,26.19140625 56.865234375,27.36328125 48.369140625,27.36328125 48.4130859375,27.890625 48.427734375,28.41796875 48.4130859375,28.9453125 48.369140625,29.47265625 56.865234375,29.47265625 56.71875,30.673828125 55.2685546875,35.888671875 52.5,40.25390625 48.6767578125,43.740234375 44.0771484375,46.3037109375 38.994140625,47.8857421875 33.69140625,48.427734375 28.388671875,47.8857421875 23.3203125,46.3037109375 18.75,43.740234375 14.94140625,40.25390625 12.158203125,35.8740234375 10.6640625,30.673828125 10.517578125,29.47265625 19.013671875,29.47265625 18.955078125,28.9599609375 18.955078125,28.447265625 18.9697265625,27.9052734375 19.013671875,27.36328125 10.517578125,27.36328125 10.6640625,26.19140625 12.158203125,20.9765625 14.94140625,16.5966796875 18.75,13.095703125 23.3203125,10.546875 28.388671875,8.9794921875 33.69140625,8.4375z M33.69140625,4.21874952316284L32.0947265625,4.423828125 30.6005859375,5.0244140625 29.384765625,6.03515625 28.59375,7.44140625 26.689453125,6.15234375 24.404296875,5.71289110183716 22.55859375,6.005859375 20.8740234375,6.8701171875 19.6435546875,8.2470703125 19.16015625,10.078125 19.16015625,10.341796875 19.189453125,10.60546875 16.552734375,10.048828125 14.677734375,10.341796875 12.9931640625,11.1767578125 11.7626953125,12.5244140625 11.279296875,14.35546875 11.982421875,16.5234375 11.6748046875,16.494140625 11.3671875,16.494140625 9.4775390625,16.787109375 7.763671875,17.6220703125 6.5185546875,18.9697265625 6.03515625,20.80078125 6.62109375,22.7783203125 8.115234375,24.228515625 6.6650390625,24.7705078125 5.419921875,25.6787109375 4.541015625,26.9091796875 4.21875,28.41796875 4.541015625,29.94140625 5.4052734375,31.171875 6.650390625,32.0654296875 8.115234375,32.607421875 6.6357421875,34.0576171875 6.03515625,36.03515625 6.5185546875,37.8515625 7.7490234375,39.2138671875 9.43359375,40.078125 11.279296875,40.37109375 11.630859375,40.37109375 11.982421875,40.341796875 11.4697265625,41.3525390625 11.279296875,42.48046875 11.7626953125,44.3115234375 12.9931640625,45.673828125 14.677734375,46.5234375 16.552734375,46.81640625 19.189453125,46.23046875 19.1455078125,46.5380859375 19.130859375,46.845703125 19.599609375,48.6328125 20.830078125,49.98046875 22.529296875,50.830078125 24.404296875,51.123046875 26.6748046875,50.6982421875 28.59375,49.423828125 29.384765625,50.8154296875 30.615234375,51.826171875 32.109375,52.44140625 33.69140625,52.646484375 35.2734375,52.44140625 36.767578125,51.826171875 37.998046875,50.8154296875 38.7890625,49.423828125 40.693359375,50.6982421875 42.978515625,51.123046875 44.82421875,50.830078125 46.5087890625,49.9951171875 47.7392578125,48.6474609375 48.22265625,46.81640625 48.2080078125,46.5234375 48.1640625,46.23046875 50.80078125,46.81640625 52.6611328125,46.5234375 54.3603515625,45.673828125 55.5908203125,44.3115234375 56.07421875,42.48046875 55.8837890625,41.3525390625 55.37109375,40.341796875 55.6640625,40.37109375 55.95703125,40.37109375 57.8466796875,40.0927734375 59.5751953125,39.2578125 60.8349609375,37.91015625 61.318359375,36.064453125 60.732421875,34.072265625 59.23828125,32.607421875 60.703125,32.080078125 61.962890625,31.1865234375 62.841796875,29.9560546875 63.1640625,28.41796875 62.8271484375,26.89453125 61.9482421875,25.6640625 60.6884765625,24.7705078125 59.23828125,24.228515625 60.732421875,22.7783203125 61.318359375,20.80078125 60.8349609375,18.9990234375 59.6044921875,17.63671875 57.919921875,16.787109375 56.07421875,16.494140625 55.72265625,16.494140625 55.37109375,16.5234375 56.07421875,14.35546875 55.5908203125,12.5244140625 54.3603515625,11.1767578125 52.6611328125,10.341796875 50.80078125,10.048828125 48.1640625,10.60546875 48.2080078125,10.2978515625 48.22265625,9.990234375 47.7392578125,8.232421875 46.494140625,6.884765625 44.794921875,6.0205078125 42.94921875,5.71289110183716 40.693359375,6.15234375 38.7890625,7.44140625 37.998046875,6.0498046875 36.767578125,5.0390625 35.2734375,4.423828125 33.69140625,4.21874952316284z M33.69140625,0L36.9287109375,0.498046875 39.814453125,1.99218738079071 42.94921875,1.52343761920929 45.380859375,1.80175817012787 47.666015625,2.63671875 49.658203125,3.98437476158142 51.240234375,5.83007860183716 54.31640625,6.4306640625 57.0263671875,7.9248046875 59.0771484375,10.1953125 60.205078125,13.125 62.26318359375,14.30419921875 63.8671875,15.908203125 64.9658203125,17.8857421875 65.5078125,20.185546875 65.56640625,20.8154296875 65.56640625,21.4453125 65.5517578125,22.3974609375 65.537109375,23.3203125 66.8994140625,25.7080078125 67.3828125,28.41796875 67.3828125,38.96484375 66.8994140625,41.66015625 65.537109375,44.033203125 65.537109375,46.318359375 65.1416015625,48.8525390625 64.04296875,51.09375 62.3583984375,52.939453125 60.205078125,54.287109375 59.091796875,57.216796875 57.0263671875,59.47265625 54.31640625,60.9521484375 51.240234375,61.552734375 49.658203125,63.4130859375 47.666015625,64.7607421875 45.380859375,65.5810546875 42.94921875,65.859375 39.814453125,65.390625 36.9287109375,66.884765625 33.69140625,67.3828125 30.4541015625,66.884765625 27.568359375,65.390625 24.43359375,65.888671875 22.001953125,65.595703125 19.716796875,64.7607421875 17.7099609375,63.4130859375 16.142578125,61.552734375 13.0517578125,60.9521484375 10.341796875,59.47265625 8.291015625,57.216796875 7.177734375,54.2578125 4.9951171875,52.9248046875 3.310546875,51.0791015625 2.2265625,48.837890625 1.845703125,46.318359375 1.845703125,44.033203125 0.4833984375,41.6748046875 0,38.96484375 0,28.41796875 0.4833984375,25.7080078125 1.845703125,23.3203125 1.845703125,20.361328125 2.28515625,18.0615234375 3.45703220367432,15.9814453125 5.15625,14.2822265625 7.177734375,13.095703125 8.2763671875,10.1806640625 10.341796875,7.9248046875 13.0810546875,6.4306640625 16.142578125,5.83007860183716 17.724609375,3.98437476158142 19.74609375,2.63671875 22.03125,1.80175817012787 24.43359375,1.52343761920929 27.568359375,1.99218738079071 30.4541015625,0.498046875 33.69140625,0z" />
    </g>
  </g>
</svg>