<?xml version="1.0" encoding="utf-8"?>
<!DOCTYPE svg PUBLIC "-//W3C//DTD SVG 1.1//EN" "http://www.w3.org/Graphics/SVG/1.1/DTD/svg11.dtd">
<svg width="65.2734375000031" height="67.3828125" xmlns="http://www.w3.org/2000/svg" xmlns:xlink="http://www.w3.org/1999/xlink" xmlns:xml="http://www.w3.org/XML/1998/namespace" version="1.1">
  <g>
    <g>
      <path style="fill:#FF0000;fill-opacity:1" d="M47.87109375,26.748046875L48.5888671875,27.041015625 48.9990234375,27.7587890625 49.1748046875,28.65234375 49.21875,29.443359375 48.720703125,31.9189453125 47.3583984375,33.9404296875 45.3515625,35.302734375 42.919921875,35.80078125 40.9533653259277,35.50048828125 39.2138671875,34.599609375 37.825927734375,33.21533203125 36.9140625,31.46484375 36.8701171875,31.3037109375 36.85546875,31.142578125 37.1630859375,30.3955078125 37.880859375,30.087890625 38.90625,30.8203125 40.4296875,32.9150390625 41.5502891540527,33.497314453125 42.919921875,33.69140625 44.560546875,33.3544921875 45.8935546875,32.4462890625 46.787109375,31.11328125 47.109375,29.47265625 46.9775390625,28.623046875 46.845703125,27.802734375 47.1533203125,27.0556640625 47.87109375,26.748046875z M25.25390625,4.21874952316284L29.619140625,18.720703125 30.29296875,23.291015625 29.7509765625,27.3779296875 28.18359375,31.201171875 15.849609375,52.79296875 14.4287109375,54.228515625 12.48046875,54.755859375 8.408203125,54.755859375 6.76757764816284,55.0927734375 5.43456983566284,56.0009765625 4.54101419448853,57.333984375 4.21874952316284,58.974609375 4.54101419448853,60.615234375 5.43456983566284,61.9482421875 6.76757764816284,62.841796875 8.408203125,63.1640625 18.955078125,63.1640625 20.9326171875,62.9443359375 22.79296875,62.255859375 24.4482421875,61.259765625 26.015625,60.146484375 29.1650390625,57.9638671875 32.314453125,55.78125 35.947265625,53.4814453125 39.3310546875,51.6357421875 42.626953125,50.1123046875 45.99609375,48.7939453125 49.599609375,47.548828125 53.583984375,46.259765625 56.689453125,44.82421875 59.150390625,42.451171875 60.6591796875,39.4189453125 61.171875,36.09375 60.908203125,33.779296875 60.146484375,31.4501953125 58.916015625,29.35546875 57.24609375,27.71484375 54.697265625,25.986328125 51.8701171875,23.6865234375 49.16015625,20.654296875 47.1240234375,17.2119140625 46.5197715759277,15.428466796875 46.318359375,13.681640625 46.318359375,4.21874952316284 25.25390625,4.21874952316284z M19.5703125,0L50.44921875,0 50.44921875,13.681640625 51.1669921875,16.142578125 52.9248046875,18.7060546875 55.1220703125,20.9912109375 57.12890625,22.6171875 58.41796875,23.466796875 59.677734375,24.31640625 60.5419921875,25.078125 61.34765625,25.927734375 63.028564453125,28.1652851104736 64.2626953125,30.6591796875 65.020751953125,33.336181640625 65.2734375,36.123046875 64.5703125,40.72265625 62.490234375,44.8828125 59.0771484375,48.2080078125 54.755859375,50.2734375 49.2919921875,52.08984375 44.384765625,53.935546875 39.638671875,56.2060546875 34.62890625,59.267578125 31.171875,61.669921875 27.71484375,64.04296875 26.220703125,65.068359375 24.66796875,66.005859375 21.884765625,67.0458984375 18.92578125,67.3828125 8.408203125,67.3828125 5.14160108566284,66.7236328125 2.46093702316284,64.921875 0.659179210662842,62.2412109375 0,58.974609375 0.659179210662842,55.7080078125 2.46093702316284,53.02734375 5.14160108566284,51.2109375 8.408203125,50.537109375 12.275390625,50.537109375 24.4921875,29.12109375 25.6494140625,26.30859375 26.044921875,23.26171875 25.546875,19.921875 19.5703125,0z" />
    </g>
  </g>
</svg>