<?xml version="1.0" encoding="utf-8"?>
<!DOCTYPE svg PUBLIC "-//W3C//DTD SVG 1.1//EN" "http://www.w3.org/Graphics/SVG/1.1/DTD/svg11.dtd">
<svg width="58.9453125" height="67.3828125" xmlns="http://www.w3.org/2000/svg" xmlns:xlink="http://www.w3.org/1999/xlink" xmlns:xml="http://www.w3.org/XML/1998/namespace" version="1.1">
  <g>
    <g>
      <path style="fill:#FF0000;fill-opacity:1" d="M33.69140625,48.427734375L35.185546875,49.04296875 35.80078125,50.537109375 35.185546875,52.03125 33.69140625,52.646484375 32.2119140625,52.0166015625 31.58203125,50.537109375 32.2119140625,49.0576171875 33.69140625,48.427734375z M25.25390625,48.427734375L26.748046875,49.04296875 27.36328125,50.537109375 26.748046875,52.03125 25.25390625,52.646484375 23.7744140625,52.0166015625 23.173828125,50.537109375 23.7890625,49.0576171875 25.25390625,48.427734375z M29.47265625,43.18359375L26.19140625,43.8427734375 23.525390625,45.64453125 21.7236328125,48.310546875 21.064453125,51.591796875 21.064453125,54.755859375 21.4599609375,56.6748046875 22.470703125,58.2861328125 23.8330078125,59.70703125 25.25390625,61.0546875 27.1142578125,62.578125 29.47265625,63.1640625 31.81640625,62.578125 33.69140625,61.0546875 35.1123046875,59.6923828125 36.474609375,58.2861328125 37.5,56.689453125 37.91015625,54.755859375 37.91015625,51.591796875 37.2509765625,48.310546875 35.44921875,45.64453125 32.7685546875,43.8427734375 29.47265625,43.18359375z M38.96484375,40.01953125L39.697265625,40.341796875 40.01953125,41.07421875 39.697265625,41.806640625 38.96484375,42.12890625 38.232421875,41.806640625 37.91015625,41.07421875 38.2177734375,40.3271484375 38.96484375,40.01953125z M20.009765625,40.01953125L20.7568359375,40.3271484375 21.064453125,41.07421875 20.7421875,41.806640625 20.009765625,42.12890625 19.27734375,41.806640625 18.955078125,41.07421875 19.2626953125,40.3271484375 20.009765625,40.01953125z M49.423828125,18.955078125L50.537109375,18.955078125 50.537109375,20.068359375 50.1708984375,22.0166015625 49.16015625,23.5986328125 47.63671875,24.7119140625 45.76171875,25.25390625 45.3662109375,25.283203125 44.970703125,25.283203125 44.208984375,25.283203125 44.208984375,24.140625 44.619140625,22.119140625 45.7470703125,20.478515625 47.4169921875,19.365234375 49.423828125,18.955078125z M8.408203125,18.955078125L9.55078125,18.955078125 11.5576171875,19.365234375 13.212890625,20.478515625 14.326171875,22.1337890625 14.736328125,24.140625 14.736328125,25.283203125 13.623046875,25.283203125 11.5869140625,24.873046875 9.931640625,23.759765625 8.818359375,22.1044921875 8.408203125,20.068359375 8.408203125,18.955078125z M23.173828125,4.21874952316284L21.5185546875,4.5556640625 20.1708984375,5.46386766433716 19.27734375,6.796875 18.955078125,8.4375 19.5263671875,10.517578125 21.064453125,12.0703125 21.064453125,16.845703125 20.478515625,19.921875 18.80859375,22.55859375 17.6953125,19.423828125 15.615234375,16.9482421875 12.8173828125,15.322265625 9.55078125,14.736328125 4.21875047683716,14.736328125 4.21875047683716,20.068359375 4.96582078933716,23.7158203125 6.98730516433716,26.7041015625 9.9755859375,28.7255859375 13.623046875,29.47265625 16.845703125,29.47265625 16.845703125,33.515625 17.5048828125,32.138671875 18.955078125,31.58203125 20.44921875,32.197265625 21.064453125,33.69140625 21.064453125,34.8046875 21.005859375,35.91796875 20.7275390625,36.9140625 20.09765625,37.6318359375 18.955078125,37.91015625 17.5048828125,37.353515625 16.845703125,35.9765625 16.845703125,47.373046875 17.40234375,49.482421875 18.955078125,51.03515625 19.3872051239014,48.55224609375 20.390625,46.259765625 20.0390625,46.318359375 19.27734375,46.0400390625 18.955078125,45.263671875 19.27734375,44.53125 20.009765625,44.208984375 20.7568359375,44.5166015625 21.064453125,45.263671875 23.173828125,43.154296875 23.173828125,33.69140625 22.8369140625,32.05078125 21.9287109375,30.7177734375 20.595703125,29.8095703125 18.955078125,29.47265625 16.845703125,29.47265625 16.845703125,27.36328125 18.955078125,27.36328125 21.533203125,27.9052734375 23.642578125,29.47265625 24.85107421875,31.4208984375 25.25390625,33.69140625 25.25390625,41.953125 27.2900390625,41.2939453125 29.47265625,41.07421875 31.640625,41.2939453125 33.69140625,41.953125 33.69140625,33.69140625 34.189453125,31.23046875 35.5517578125,29.2236328125 37.55859375,27.861328125 40.01953125,27.36328125 42.099609375,27.36328125 42.099609375,29.47265625 40.01953125,29.47265625 38.37890625,29.8095703125 37.0458984375,30.7177734375 36.1376953125,32.05078125 35.80078125,33.69140625 35.80078125,43.154296875 36.9140625,44.1357421875 37.91015625,45.263671875 38.2177734375,44.5166015625 38.96484375,44.208984375 39.697265625,44.53125 40.01953125,45.263671875 39.697265625,45.99609375 38.96484375,46.318359375 38.759765625,46.3037109375 38.5546875,46.259765625 39.55810546875,48.55224609375 39.990234375,51.03515625 41.54296875,49.482421875 42.099609375,47.373046875 42.099609375,35.9765625 41.455078125,37.353515625 40.01953125,37.91015625 38.525390625,37.294921875 37.91015625,35.80078125 37.91015625,34.6875 37.96875,33.57421875 38.2470703125,32.578125 38.876953125,31.8603515625 40.01953125,31.58203125 41.4990234375,32.2119140625 42.099609375,33.69140625 42.099609375,29.47265625 45.3515625,29.47265625 48.9990234375,28.7255859375 51.9873046875,26.7041015625 54.0087890625,23.7158203125 54.755859375,20.068359375 54.755859375,14.736328125 49.423828125,14.736328125 46.142578125,15.322265625 43.3447265625,16.9482421875 41.2646484375,19.423828125 40.13671875,22.55859375 38.4814453125,19.9072265625 37.91015625,16.845703125 37.91015625,12.0703125 39.4482421875,10.517578125 40.01953125,8.4375 39.6826171875,6.796875 38.7744140625,5.46386766433716 37.44140625,4.5556640625 35.80078125,4.21874952316284 34.1455078125,4.5556640625 32.7978515625,5.46386766433716 31.904296875,6.796875 31.58203125,8.4375 32.1533203125,10.517578125 33.69140625,12.0703125 33.69140625,16.845703125 33.3544921875,18.486328125 32.4462890625,19.8193359375 31.11328125,20.7275390625 29.47265625,21.064453125 27.83203125,20.7275390625 26.4990234375,19.8193359375 25.5908203125,18.486328125 25.25390625,16.845703125 25.25390625,12.0703125 26.7919921875,10.517578125 27.36328125,8.4375 27.041015625,6.796875 26.1474609375,5.46386766433716 24.814453125,4.5556640625 23.173828125,4.21874952316284z M23.173828125,0L26.630859375,0.7470703125 29.47265625,2.87109351158142 32.3291015625,0.7470703125 35.80078125,0 39.0673828125,0.673828601837158 41.748046875,2.49023413658142 43.5498046875,5.1708984375 44.208984375,8.4375 43.4765625,11.89453125 46.3696250915527,10.86181640625 49.423828125,10.517578125 58.9453125,10.517578125 58.9453125,20.068359375 58.70361328125,22.664794921875 57.978515625,25.1220703125 55.3125,29.3408203125 51.298828125,32.3291015625 48.8964805603027,33.240966796875 46.318359375,33.662109375 46.318359375,47.373046875 46.0363731384277,49.5703125 45.1904296875,51.591796875 43.8537559509277,53.32763671875 42.099609375,54.66796875 41.865234375,56.865234375 41.19140625,58.740234375 40.107421875,60.4248046875 38.642578125,62.05078125 36.6357421875,64.072265625 34.6435546875,65.771484375 32.373046875,66.943359375 29.47265625,67.3828125 27.308349609375,67.1484375 25.4443359375,66.4453125 22.177734375,63.92578125 20.126953125,61.8896484375 18.427734375,59.8974609375 17.2705078125,57.6123046875 16.845703125,54.66796875 15.091552734375,53.32763671875 13.7548828125,51.591796875 12.908935546875,49.5703125 12.626953125,47.373046875 12.626953125,33.662109375 10.048828125,33.240966796875 7.64648485183716,32.3291015625 3.63281297683716,29.3408203125 0.966797351837158,25.1220703125 0.241699278354645,22.664794921875 0,20.068359375 0,10.517578125 9.55078125,10.517578125 12.60498046875,10.86181640625 15.498046875,11.89453125 14.9267578125,10.1953125 14.736328125,8.4375 15.3955078125,5.1416015625 17.197265625,2.46093702316284 19.8779296875,0.659179925918579 23.173828125,0z" />
    </g>
  </g>
</svg>