<?xml version="1.0" encoding="utf-8"?>
<!DOCTYPE svg PUBLIC "-//W3C//DTD SVG 1.1//EN" "http://www.w3.org/Graphics/SVG/1.1/DTD/svg11.dtd">
<svg width="42.0996093750009" height="65.2734375" xmlns="http://www.w3.org/2000/svg" xmlns:xlink="http://www.w3.org/1999/xlink" xmlns:xml="http://www.w3.org/XML/1998/namespace" version="1.1">
  <g>
    <g>
      <path style="fill:#FF0000;fill-opacity:1" d="M20.09765625,25.25390625L18.5595703125,25.6201171875 17.373046875,26.66015625 6.328125,44.033203125 6.328125,45.263671875 6.63940334320068,48.4423828125 7.5732421875,51.416015625 9.041748046875,54.10400390625 10.95703125,56.42578125 13.27880859375,58.341064453125 15.966796875,59.8095703125 18.9404277801514,60.743408203125 22.119140625,61.0546875 25.2978515625,60.743408203125 28.271484375,59.8095703125 30.95947265625,58.33740234375 33.28125,56.4111328125 35.196533203125,54.07470703125 36.6650390625,51.3720703125 37.598876953125,48.387451171875 37.91015625,45.205078125 37.91015625,33.69140625 37.5732421875,32.05078125 36.6650390625,30.7177734375 35.33203125,29.8095703125 33.69140625,29.47265625 31.58203125,29.47265625 31.58203125,36.85546875 31.2744140625,37.6025390625 30.52734375,37.91015625 29.7802734375,37.6025390625 29.47265625,36.85546875 29.47265625,29.47265625 29.1357421875,27.861328125 28.2275390625,26.513671875 26.89453125,25.5908203125 25.283203125,25.25390625 24.19921875,25.25390625 24.96826171875,26.7700214385986 25.224609375,28.447265625 25.0048828125,29.970703125 24.345703125,31.376953125 19.833984375,37.998046875 22.822265625,38.8916015625 25.2099609375,40.72265625 26.7919921875,43.271484375 27.36328125,46.318359375 27.36328125,46.9921875 27.1728515625,47.98828125 26.30859375,48.427734375 25.4443359375,47.958984375 25.283203125,46.93359375 25.283203125,46.318359375 24.78515625,43.857421875 23.4228515625,41.865234375 21.416015625,40.517578125 18.955078125,40.01953125 17.900390625,40.01953125 17.16796875,39.697265625 16.845703125,38.96484375 17.021484375,38.349609375 22.587890625,30.17578125 23.14453125,28.388671875 22.8955078125,27.216796875 22.236328125,26.220703125 21.26953125,25.517578125 20.09765625,25.25390625z M20.0390625,4.21875L18.33984375,4.6875 17.16796875,6.00585889816284 13.447265625,13.271484375 9.755859375,20.537109375 8.37890625,23.408203125 7.294921875,26.2353515625 6.5771484375,29.1650390625 6.328125,32.373046875 6.328125,40.01953125 15.615234375,25.48828125 17.373046875,23.84765625 17.7685546875,22.7783203125 18.5009765625,20.8154296875 19.4384765625,18.28125 20.4638671875,15.46875 21.474609375,12.6708984375 22.3388671875,10.1953125 22.939453125,8.3349609375 23.173828125,7.3828125 22.9248046875,6.1669921875 22.2509765625,5.15625 21.2548828125,4.4677734375 20.0390625,4.21875z M7.3828125,4.21875L6.1669921875,4.4677734375 5.15625,5.15625 4.4677734375,6.1669921875 4.21875,7.3828125 4.482421875,8.642578125 8.671875,18.046875 12.333984375,10.810546875 10.25390625,6.09374952316284 9.0966796875,4.7314453125 7.3828125,4.21875z M7.3828125,0L9.254150390625,0.241702049970627 11.0009765625,0.966796636581421 13.681640625,3.603515625 16.376953125,0.966796636581421 18.1347637176514,0.241702049970627 20.009765625,0 22.8662109375,0.585937976837158 25.2099609375,2.16796875 26.806640625,4.49707078933716 27.392578125,7.35351514816284 27.2314453125,8.8037109375 26.806640625,10.1953125 22.8515625,21.064453125 25.283203125,21.064453125 27.4365234375,21.357421875 29.4580078125,22.20703125 31.201171875,23.525390625 32.548828125,25.25390625 33.69140625,25.25390625 36.97265625,25.9130859375 39.638671875,27.71484375 41.4404296875,30.3955078125 42.099609375,33.69140625 42.099609375,45.29296875 41.3818359375,50.595703125 39.3603515625,55.37109375 36.240234375,59.4140625 32.197265625,62.5341796875 27.421875,64.5556640625 22.119140625,65.2734375 16.8017578125,64.5556640625 12.01171875,62.5341796875 7.96875,59.4140625 4.8486328125,55.37109375 2.8271484375,50.5810546875 2.109375,45.263671875 2.109375,32.373046875 2.30712890625,29.23828125 2.900390625,26.220703125 5.09765625,20.419921875 0.64453125,10.341796875 0,7.3828125 0.5859375,4.51171875 2.16796875,2.16796875 4.51171875,0.585937976837158 7.3828125,0z" />
    </g>
  </g>
</svg>