<?xml version="1.0" encoding="utf-8"?>
<!DOCTYPE svg PUBLIC "-//W3C//DTD SVG 1.1//EN" "http://www.w3.org/Graphics/SVG/1.1/DTD/svg11.dtd">
<svg width="67.3828125000004" height="67.3828125" xmlns="http://www.w3.org/2000/svg" xmlns:xlink="http://www.w3.org/1999/xlink" xmlns:xml="http://www.w3.org/XML/1998/namespace" version="1.1">
  <g>
    <g>
      <path style="fill:#FF0000;fill-opacity:1" d="M27.36328125,44.208984375L26.2353515625,44.4873046875 25.5908203125,45.234375 25.2978515625,46.2744140625 25.224609375,47.40234375 25.2392578125,48.2958984375 25.25390625,49.072265625 25.25390625,54.755859375 25.9130859375,58.037109375 27.71484375,60.703125 30.3955078125,62.5048828125 33.69140625,63.1640625 36.97265625,62.5048828125 39.638671875,60.703125 41.4404296875,58.037109375 42.099609375,54.755859375 42.099609375,46.318359375 41.484375,44.8388671875 40.01953125,44.208984375 35.80078125,44.208984375 35.80078125,56.865234375 31.58203125,56.865234375 31.58203125,44.208984375 27.36328125,44.208984375z M58.9453125,29.47265625L61.6845703125,34.0869140625 64.306640625,38.7890625 65.009765625,40.458984375 65.2734375,42.24609375 64.775390625,44.70703125 63.4130859375,46.669921875 61.40625,47.958984375 58.9453125,48.427734375 56.484375,47.958984375 54.4921875,46.6552734375 53.14453125,44.677734375 52.646484375,42.216796875 52.8955078125,40.4443359375 53.583984375,38.7890625 56.2939453125,34.1455078125 58.9453125,29.47265625z M45.263671875,23.173828125L46.4794921875,23.4228515625 47.490234375,24.08203125 48.1787109375,25.078125 48.427734375,26.30859375 48.427734375,30.52734375 48.1787109375,31.7724609375 47.5048828125,32.7685546875 46.494140625,33.4423828125 45.263671875,33.69140625 44.0185546875,33.4423828125 43.037109375,32.75390625 42.3779296875,31.7431640625 42.12890625,30.52734375 42.12890625,26.30859375 42.3779296875,25.0927734375 43.0517578125,24.0966796875 44.0478515625,23.4228515625 45.263671875,23.173828125z M22.119140625,23.173828125L23.3349609375,23.4228515625 24.345703125,24.0966796875 25.0341796875,25.0927734375 25.283203125,26.30859375 25.283203125,30.52734375 25.0341796875,31.7431640625 24.345703125,32.75390625 23.3349609375,33.4423828125 22.119140625,33.69140625 20.8740234375,33.4423828125 19.8779296875,32.7685546875 19.2041015625,31.7724609375 18.955078125,30.52734375 18.955078125,26.30859375 19.2041015625,25.078125 19.892578125,24.08203125 20.9033203125,23.4228515625 22.119140625,23.173828125z M42.12890625,12.626953125L43.681640625,13.330078125 46.1022911071777,15.457763671875 48.6767578125,17.0361328125 51.5222129821777,18.013916015625 54.755859375,18.33984375 56.2353515625,18.9697265625 56.865234375,20.44921875 56.2353515625,21.9287109375 54.755859375,22.55859375 50.80078125,22.1337890625 46.962890625,20.888671875 43.4619140625,18.8671875 40.546875,16.142578125 39.990234375,14.736328125 40.6201171875,13.2421875 42.12890625,12.626953125z M25.25390625,12.626953125L26.7626953125,13.2421875 27.392578125,14.736328125 26.8359375,16.142578125 23.90625,18.8671875 20.419921875,20.888671875 16.58203125,22.1337890625 12.626953125,22.55859375 11.1328125,21.943359375 10.517578125,20.44921875 11.1328125,18.955078125 12.626953125,18.33984375 15.860595703125,18.01025390625 18.7060546875,17.021484375 21.2805156707764,15.439453125 23.701171875,13.330078125 25.25390625,12.626953125z M33.69140625,0L38.236083984375,0.300295770168304 42.6123046875,1.20117139816284 46.7687950134277,2.65137004852295 50.654296875,4.59960889816284 54.2358360290527,7.012939453125 57.48046875,9.8583984375 60.3369140625,13.092041015625 62.75390625,16.669921875 64.705810546875,20.555419921875 66.1669921875,24.7119140625 67.078857421875,29.0881366729736 67.3828125,33.6328125 66.884765625,39.404296875 66.181640625,37.763671875 65.1416015625,35.8740234375 64.0283203125,34.04296875 63.134765625,32.548828125 62.7392578125,28.6743183135986 61.845703125,24.9609375 60.501708984375,21.448974609375 58.7548828125,18.1787109375 54.1259765625,12.451171875 48.22265625,8.0419921875 44.8864707946777,6.41968059539795 41.3232421875,5.21484422683716 37.576904296875,4.46777629852295 33.69140625,4.21874952316284 29.696044921875,4.48242473602295 25.8544921875,5.2734375 22.2106914520264,6.54419231414795 18.80859375,8.2470703125 15.677490234375,10.3564453125 12.8466796875,12.8466796875 10.3564453125,15.677490234375 8.2470703125,18.80859375 6.54418849945068,22.210693359375 5.2734375,25.8544921875 4.482421875,29.6960468292236 4.21875,33.69140625 4.951171875,40.2392578125 7.060546875,46.3037109375 10.3857421875,51.7236328125 14.794921875,56.30859375 20.1416015625,59.8681640625 26.279296875,62.2265625 24.9462890625,60.673828125 23.9794921875,58.8134765625 23.37890625,56.7919921875 23.173828125,54.755859375 23.173828125,52.55859375 20.6396484375,51.708984375 18.6474609375,50.0830078125 17.3291015625,47.87109375 16.845703125,45.263671875 17.431640625,42.392578125 19.013671875,40.048828125 21.357421875,38.4814453125 24.228515625,37.91015625 43.154296875,37.91015625 46.025390625,38.4814453125 48.369140625,40.048828125 49.951171875,42.392578125 50.537109375,45.263671875 50.0537109375,47.87109375 48.7353515625,50.0830078125 46.728515625,51.708984375 44.208984375,52.55859375 44.150390625,55.400390625 43.798828125,57.71484375 42.8759765625,59.8681640625 41.1328125,62.197265625 46.0400352478027,60.4541015625 50.56640625,57.861328125 54.5727500915527,54.5068359375 57.919921875,50.478515625 58.447265625,50.5224609375 59.00390625,50.537109375 61.40625,50.21484375 63.603515625,49.21875 61.182861328125,53.199462890625 58.2568359375,56.7626953125 54.8986778259277,59.8681640625 51.181640625,62.4755859375 47.1496543884277,64.56298828125 42.8466796875,66.1083984375 38.338623046875,67.064208984375 33.69140625,67.3828125 29.124755859375,67.08251953125 24.7412109375,66.181640625 20.5847148895264,64.7314453125 16.69921875,62.783203125 13.11767578125,60.3662109375 9.873046875,57.509765625 7.01660060882568,54.26513671875 4.599609375,50.68359375 2.6513671875,46.79443359375 1.201171875,42.626953125 0.300292611122131,38.23974609375 0,33.69140625 0.300292611122131,29.1430683135986 1.201171875,24.755859375 2.6513671875,20.58837890625 4.599609375,16.69921875 7.01660060882568,13.11767578125 9.873046875,9.873046875 13.11767578125,7.0166015625 16.69921875,4.59960889816284 20.5847148895264,2.65137004852295 24.7412109375,1.20117139816284 29.124755859375,0.300295770168304 33.69140625,0z" />
    </g>
  </g>
</svg>