<?xml version="1.0" encoding="utf-8"?>
<!DOCTYPE svg PUBLIC "-//W3C//DTD SVG 1.1//EN" "http://www.w3.org/Graphics/SVG/1.1/DTD/svg11.dtd">
<svg width="67.3828125000009" height="67.3828125" xmlns="http://www.w3.org/2000/svg" xmlns:xlink="http://www.w3.org/1999/xlink" xmlns:xml="http://www.w3.org/XML/1998/namespace" version="1.1">
  <g>
    <g>
      <path style="fill:#FF0000;fill-opacity:1" d="M47.373046875,55.810546875L47.841796875,56.25 45.439453125,57.744140625 47.373046875,55.810546875z M34.74609375,55.810546875L37.91015625,58.974609375 31.58203125,58.974609375 34.74609375,55.810546875z M22.119140625,55.810546875L24.521484375,58.212890625 22.880859375,57.48046875 21.357421875,56.54296875 22.119140625,55.810546875z M51.4453125,51.73828125L49.951171875,54.140625 49.482421875,53.701171875 51.4453125,51.73828125z M16.93359375,50.625L20.009765625,53.701171875 19.189453125,54.521484375 17.8857421875,52.6904296875 16.93359375,50.625z M41.07421875,49.482421875L45.263671875,53.701171875 41.07421875,57.919921875 36.85546875,53.701171875 41.07421875,49.482421875z M28.41796875,49.482421875L32.63671875,53.701171875 28.41796875,57.919921875 24.228515625,53.701171875 28.41796875,49.482421875z M47.373046875,43.154296875L51.591796875,47.373046875 47.373046875,51.591796875 43.154296875,47.373046875 47.373046875,43.154296875z M34.74609375,43.154296875L38.96484375,47.373046875 34.74609375,51.591796875 30.52734375,47.373046875 34.74609375,43.154296875z M22.119140625,43.154296875L24.1845703125,45.29296875 26.30859375,47.373046875 22.119140625,51.591796875 17.900390625,47.373046875 22.119140625,43.154296875z M53.701171875,36.85546875L54.0234375,37.177734375 53.02734375,44.58984375 49.482421875,41.07421875 53.701171875,36.85546875z M41.07421875,36.85546875L45.263671875,41.07421875 41.07421875,45.263671875 36.85546875,41.07421875 41.07421875,36.85546875z M28.41796875,36.85546875L32.63671875,41.07421875 28.41796875,45.263671875 24.228515625,41.07421875 28.41796875,36.85546875z M59.53125,28.18359375L57.24609375,29.912109375 54.755859375,31.376953125 54.755859375,31.58203125 53.701171875,32.63671875 53.173828125,32.109375 51.650390625,32.7392578125 50.126953125,33.310546875 51.591796875,34.74609375 47.373046875,38.96484375 43.388671875,34.98046875 40.7373046875,35.3759765625 38.056640625,35.625 34.74609375,38.96484375 31.552734375,35.771484375 28.6669921875,35.595703125 25.810546875,35.2734375 23.173828125,37.91015625 23.173828125,40.01953125 22.8955078125,41.513671875 22.119140625,42.7880859375 20.947265625,43.7255859375 19.482421875,44.1796875 18.1640625,45.3369140625 16.787109375,45.9814453125 15.322265625,46.2744140625 13.740234375,46.34765625 12.7294921875,46.3330078125 11.689453125,46.318359375 12.2314453125,49.306640625 13.037109375,52.236328125 15.556640625,56.748046875 19.2041015625,60.1904296875 23.701171875,62.3876953125 26.19140625,62.969970703125 28.798828125,63.1640625 40.048828125,63.1640625 43.1799278259277,62.882080078125 46.1279296875,62.0361328125 48.8305625915527,60.69580078125 51.2255859375,58.9306640625 53.2690391540527,56.766357421875 54.9169921875,54.228515625 56.107177734375,51.39404296875 56.77734375,48.33984375 57.744140625,41.220703125 57.9638671875,39.2431640625 58.271484375,37.236328125 58.4619140625,36.005859375 58.681640625,34.62890625 58.8720703125,33.2373046875 58.9453125,31.9921875 58.9453125,31.58203125 59.0625,31.46484375 59.53125,28.18359375z M8.115234375,14.501953125L5.9326171875,14.9560546875 5.20385646820068,15.626220703125 4.62890625,16.728515625 4.21875,18.955078125 4.21875,40.01953125 4.449462890625,41.451416015625 5.1416015625,42.6416015625 7.5,44.12109375 8.291015625,44.2236328125 9.287109375,44.23828125 10.341796875,44.23828125 12.5537109375,44.2236328125 14.765625,44.208984375 16.376953125,43.8720703125 17.7099609375,42.9638671875 18.6181640625,41.630859375 18.955078125,40.01953125 18.955078125,23.291015625 26.2353515625,24.814453125 33.662109375,25.283203125 37.4560546875,25.1513671875 41.7919921875,24.697265625 46.318359375,23.8623046875 50.6689453125,22.5732421875 54.4921875,20.7568359375 57.451171875,18.33984375 55.048828125,16.0546875 51.97265625,14.853515625 51.15234375,14.765625 50.244140625,14.736328125 49.2041015625,14.7509765625 48.251953125,14.765625 44.736328125,14.736328125 41.220703125,14.736328125 30.64453125,14.7509765625 20.068359375,14.765625 17.578125,14.794921875 15.05859375,14.82421875 13.0517578125,14.794921875 11.07421875,14.70703125 9.5947265625,14.5751953125 8.115234375,14.501953125z M33.69140625,4.21874952316284L29.267578125,4.39453125 24.4921875,4.96581983566284 19.6435546875,5.9912109375 14.970703125,7.529296875 10.7373046875,9.6533203125 7.236328125,12.421875 7.705078125,12.392578125 8.173828125,12.392578125 10.400390625,12.5097646713257 12.626953125,12.626953125 13.4765625,12.626953125 14.6044921875,12.041015625 15.76171875,11.54296875 16.845703125,12.626953125 21.064453125,12.626953125 18.837890625,10.4296875 22.2802734375,9.5361328125 25.78125,8.935546875 26.30859375,9.462890625 23.173828125,12.626953125 27.36328125,12.626953125 28.41796875,11.572265625 29.47265625,12.626953125 33.69140625,12.626953125 30.52734375,9.462890625 31.552734375,8.466796875 32.607421875,8.4375 33.6328125,8.4375 35.8447265625,8.4814453125 38.056640625,8.583984375 38.96484375,9.462890625 35.80078125,12.626953125 40.01953125,12.626953125 41.07421875,11.572265625 42.099609375,12.626953125 46.318359375,12.626953125 43.154296875,9.462890625 43.41796875,9.228515625 46.81640625,9.9609375 50.126953125,10.95703125 48.427734375,12.626953125 49.775390625,12.626953125 51.123046875,12.65625 52.470703125,12.802734375 53.0859375,12.1875 55.224609375,13.4619140625 57.0263671875,14.8681640625 58.6083984375,16.5087890625 60.1171875,18.486328125 58.857421875,19.921875 57.568359375,22.44140625 55.224609375,24.4921875 52.1923828125,26.1181640625 48.8671875,27.3486328125 45.64453125,28.212890625 42.919921875,28.76953125 38.3056640625,29.326171875 33.6328125,29.501953125 28.35205078125,29.2602558135986 23.173828125,28.53515625 23.173828125,32.724609375 28.4326171875,33.45703125 33.720703125,33.69140625 41.2060546875,33.22265625 48.544921875,31.69921875 51.5771484375,30.6591796875 54.8291015625,29.1943359375 57.9638671875,27.3046875 60.6298828125,24.9755859375 62.4755859375,22.1923828125 63.1640625,18.955078125 62.9443359375,17.061767578125 62.28515625,15.3076171875 59.970703125,12.24609375 56.6748046875,9.755859375 52.8515625,7.8076171875 48.9697265625,6.38671875 45.498046875,5.44921922683716 39.6240234375,4.51171875 33.69140625,4.21874952316284z M33.69140625,0L40.6201171875,0.3662109375 47.4609375,1.55273473262787 51.796875,2.82714891433716 56.2939453125,4.70214891433716 60.5126953125,7.22168016433716 64.04296875,10.4150390625 66.474609375,14.326171875 67.15576171875,16.552734375 67.3828125,18.955078125 67.3828125,21.064453125 67.119140625,23.5949726104736 66.328125,25.9716796875 63.515625,30.146484375 61.787109375,42.7734375 61.3623046875,46.083984375 60.87890625,49.365234375 60.018310546875,52.833251953125 58.6669921875,56.0302734375 56.876220703125,58.90869140625 54.697265625,61.4208984375 52.1411094665527,63.544921875 49.21875,65.2587890625 45.9814414978027,66.507568359375 42.48046875,67.236328125 41.0595703125,67.353515625 39.609375,67.3828125 28.798828125,67.3828125 24.3896484375,66.9140625 20.1708984375,65.537109375 16.3330078125,63.310546875 13.06640625,60.29296875 10.9716796875,57.4951171875 9.4921875,54.7119140625 8.4814453125,51.7529296875 7.763671875,48.3984375 4.7021484375,47.578125 2.2412109375,45.7470703125 0.6005859375,43.1396484375 0,40.01953125 0,18.955078125 0.227050423622131,16.552734375 0.908203125,14.326171875 3.33984375,10.4150390625 6.8701171875,7.22168016433716 11.0888671875,4.70214891433716 15.5712890625,2.82714891433716 19.921875,1.55273473262787 26.7626953125,0.3662109375 33.69140625,0z" />
    </g>
  </g>
</svg>