<?xml version="1.0" encoding="utf-8"?>
<!DOCTYPE svg PUBLIC "-//W3C//DTD SVG 1.1//EN" "http://www.w3.org/Graphics/SVG/1.1/DTD/svg11.dtd">
<svg width="67.3828125000006" height="42.12890625" xmlns="http://www.w3.org/2000/svg" xmlns:xlink="http://www.w3.org/1999/xlink" xmlns:xml="http://www.w3.org/XML/1998/namespace" version="1.1">
  <g>
    <g>
      <path style="fill:#FF0000;fill-opacity:1" d="M10.517578125,4.21875L8.056640625,4.716796875 6.064453125,6.064453125 4.71679592132568,8.056640625 4.21875,10.517578125 4.21875,25.283203125 4.71679592132568,27.744140625 6.064453125,29.736328125 8.056640625,31.083984375 10.517578125,31.58203125 16.2890625,31.58203125 26.25,18.955078125 24.228515625,18.955078125 22.1630859375,19.365234375 20.4931640625,20.4931640625 19.365234375,22.177734375 18.955078125,24.228515625 18.6328125,24.9609375 17.900390625,25.283203125 9.462890625,25.283203125 8.73046875,24.9609375 8.408203125,24.228515625 8.73046875,23.49609375 9.462890625,23.173828125 15.3515625,23.173828125 10.83984375,18.6328125 10.517578125,17.900390625 10.83984375,17.1826171875 11.572265625,16.875 12.333984375,17.16796875 16.845703125,21.6796875 16.845703125,13.681640625 17.1533203125,12.9345703125 17.900390625,12.626953125 18.6474609375,12.9345703125 18.955078125,13.681640625 18.955078125,19.1015625 20.44921875,17.8857421875 22.001953125,17.197265625 23.6279296875,16.904296875 25.37109375,16.845703125 27.24609375,16.845703125 26.5869140625,15.1611328125 25.4296875,13.828125 23.8916015625,12.94921875 22.119140625,12.626953125 21.3720703125,12.3193359375 21.064453125,11.572265625 21.3720703125,10.8251953125 22.119140625,10.517578125 25.0927734375,11.1328125 27.421875,12.802734375 28.9306640625,15.263671875 29.47265625,18.251953125 18.955078125,31.58203125 18.2373046875,32.6806640625 17.98828125,33.955078125 18.28125,35.44921875 19.1015625,36.708984375 20.3173828125,37.587890625 21.796875,37.91015625 23.203125,37.6171875 24.375,36.826171875 29.619140625,31.58203125 31.58203125,31.58203125 34.8193359375,30.908203125 37.5146484375,29.091796875 39.345703125,26.42578125 40.01953125,23.173828125 61.0546875,23.173828125 62.548828125,22.55859375 63.1640625,21.064453125 63.1640625,6.328125 62.548828125,4.833984375 61.0546875,4.21875 10.517578125,4.21875z M10.517578125,0L61.0546875,0 63.515625,0.498046875 65.5224609375,1.8603515625 66.884765625,3.8671875 67.3828125,6.328125 67.3828125,21.064453125 66.884765625,23.525390625 65.5224609375,25.517578125 63.515625,26.865234375 61.0546875,27.36328125 43.505859375,27.36328125 41.5869140625,30.8642578125 38.7890625,33.5302734375 35.3173828125,35.21484375 31.376953125,35.80078125 29.326171875,37.9541015625 27.158203125,40.0048828125 24.7119140625,41.5283203125 21.796875,42.12890625 19.1162109375,41.6455078125 16.8017578125,40.3271484375 15.0439453125,38.3349609375 14.00390625,35.80078125 10.517578125,35.80078125 8.411865234375,35.595703125 6.4306640625,34.98046875 3.076171875,32.724609375 0.8203125,29.3701171875 0.205077767372131,27.388916015625 0,25.283203125 0,10.517578125 0.208739876747131,8.41186714172363 0.8349609375,6.4306640625 3.0908203125,3.0908203125 6.4306640625,0.8349609375 8.411865234375,0.208740234375 10.517578125,0z" />
    </g>
  </g>
</svg>