<?xml version="1.0" encoding="utf-8"?>
<!DOCTYPE svg PUBLIC "-//W3C//DTD SVG 1.1//EN" "http://www.w3.org/Graphics/SVG/1.1/DTD/svg11.dtd">
<svg width="67.3828125" height="61.5234375" xmlns="http://www.w3.org/2000/svg" xmlns:xlink="http://www.w3.org/1999/xlink" xmlns:xml="http://www.w3.org/XML/1998/namespace" version="1.1">
  <g>
    <g>
      <path style="fill:#FF0000;fill-opacity:1" d="M4.21875,35.0390625L4.21875,50.771484375 23.173828125,57.0703125 23.173828125,41.337890625 4.21875,35.0390625z M13.06640625,30.966796875L5.888671875,33.369140625 24.814453125,39.697265625 32.021484375,37.294921875 13.06640625,30.966796875z M6.328125,11.865234375L6.328125,26.484375 25.2685546875,32.8125 44.208984375,39.140625 44.208984375,24.4921875 25.2685546875,18.1787109375 6.328125,11.865234375z M25.25390625,4.45312452316284L7.96875,10.1953125 26.923828125,16.4794921875 45.87890625,22.8515625 54.5068359375,19.921875 63.1640625,17.080078125 25.25390625,4.45312452316284z M25.25390625,0L67.3828125,14.033203125 67.3828125,36.943359375 65.2734375,37.646484375 65.2734375,47.490234375 23.173828125,61.5234375 0,53.7890625 0,30.87890625 2.109375,30.17578125 2.109375,7.73437452316284 25.25390625,0z" />
    </g>
  </g>
</svg>