<?xml version="1.0" encoding="utf-8"?>
<!DOCTYPE svg PUBLIC "-//W3C//DTD SVG 1.1//EN" "http://www.w3.org/Graphics/SVG/1.1/DTD/svg11.dtd">
<svg width="61.0546875000005" height="67.3828125" xmlns="http://www.w3.org/2000/svg" xmlns:xlink="http://www.w3.org/1999/xlink" xmlns:xml="http://www.w3.org/XML/1998/namespace" version="1.1">
  <g>
    <g>
      <path style="fill:#FF0000;fill-opacity:1" d="M50.537109375,50.537109375L49.04296875,51.15234375 48.427734375,52.646484375 49.04296875,54.140625 50.537109375,54.755859375 52.646484375,54.755859375 52.646484375,52.646484375 52.03125,51.15234375 50.537109375,50.537109375z M44.208984375,44.208984375L42.7294921875,44.8388671875 42.099609375,46.318359375 42.7294921875,47.7978515625 44.208984375,48.427734375 46.318359375,48.427734375 46.318359375,46.318359375 45.6884765625,44.8388671875 44.208984375,44.208984375z M52.646484375,40.01953125L51.15234375,40.634765625 50.537109375,42.12890625 51.1669921875,43.59375 52.646484375,44.208984375 54.755859375,44.208984375 54.755859375,42.12890625 54.140625,40.634765625 52.646484375,40.01953125z M44.208984375,35.80078125L42.7294921875,36.4306640625 42.099609375,37.91015625 42.7294921875,39.3896484375 44.208984375,40.01953125 46.318359375,40.01953125 46.318359375,37.91015625 45.703125,36.416015625 44.208984375,35.80078125z M21.064453125,33.486328125L15.1171875,36.181640625 13.30078125,37.734375 12.626953125,40.01953125 12.9638671875,41.66015625 13.8720703125,42.9931640625 15.205078125,43.88671875 16.845703125,44.208984375 16.845703125,42.12890625 17.1240234375,40.986328125 17.841796875,40.3564453125 18.837890625,40.078125 19.951171875,40.01953125 21.064453125,40.01953125 21.064453125,33.486328125z M52.646484375,31.58203125L51.15234375,32.197265625 50.537109375,33.69140625 51.15234375,35.185546875 52.646484375,35.80078125 54.755859375,35.80078125 54.755859375,33.69140625 54.140625,32.197265625 52.646484375,31.58203125z M44.208984375,27.36328125L42.7294921875,27.9931640625 42.099609375,29.47265625 42.7294921875,30.9521484375 44.208984375,31.58203125 46.318359375,31.58203125 46.318359375,29.47265625 45.6884765625,27.9931640625 44.208984375,27.36328125z M44.208984375,18.955078125L42.7294921875,19.5849609375 42.099609375,21.064453125 42.7294921875,22.5439453125 44.208984375,23.173828125 46.318359375,23.173828125 46.318359375,21.064453125 45.703125,19.5703125 44.208984375,18.955078125z M16.845703125,14.736328125L18.33984375,15.3515625 18.955078125,16.845703125 18.955078125,18.955078125 18.33984375,20.44921875 16.845703125,21.064453125 15.3515625,20.44921875 14.736328125,18.955078125 14.736328125,16.845703125 15.3515625,15.3515625 16.845703125,14.736328125z M21.09375,10.517578125L18.2080078125,10.927734375 15.556640625,12.099609375 13.88671875,13.41796875 12.451171875,14.970703125 10.6201171875,16.7724609375 8.408203125,18.076171875 8.2763671875,19.7607421875 7.79296875,21.1669921875 6.8408203125,22.265625 5.2734375,23.02734375 6.6064453125,24.8291015625 8.3349609375,26.19140625 10.3857421875,27.0556640625 12.626953125,27.36328125 16.845703125,27.36328125 19.306640625,27.8466796875 21.3134765625,29.1650390625 22.67578125,31.1279296875 23.173828125,33.57421875 23.173828125,48.427734375 23.3789043426514,50.533447265625 23.994140625,52.5146484375 26.25,55.869140625 29.58984375,58.1396484375 31.5673828125,58.765869140625 33.69140625,58.974609375 25.25390625,58.974609375 23.61328125,59.296875 22.2802734375,60.1904296875 21.38671875,61.5234375 21.064453125,63.1640625 35.80078125,63.1640625 39.17724609375,62.896728515625 42.451171875,62.0947265625 45.5566368103027,60.780029296875 48.427734375,58.974609375 40.01953125,58.974609375 37.979736328125,58.773193359375 36.0205078125,58.1689453125 32.6513671875,55.9716796875 30.3369140625,52.705078125 29.688720703125,50.76416015625 29.47265625,48.69140625 29.47265625,18.955078125 28.8134765625,15.6884765625 27.01171875,13.0078125 24.345703125,11.19140625 21.09375,10.517578125z M14.736328125,0L18.955078125,2.10937476158142 18.955078125,0 23.291015625,2.16796898841858 28.4619140625,2.78686809539795 33.427734375,4.05761766433716 38.12255859375,5.92529582977295 42.48046875,8.3349609375 46.4794883728027,11.253662109375 50.09765625,14.6484365463257 53.2763633728027,18.45703125 55.95703125,22.6171875 58.114013671875,27.1032733917236 59.7216796875,31.8896484375 60.721435546875,36.917724609375 61.0546875,42.12890625 60.831298828125,45.552978515625 60.1611328125,48.8525390625 59.0771484375,51.97998046875 57.6123046875,54.8876953125 53.6572265625,59.9853515625 48.5595703125,63.9404296875 45.6518516540527,65.4052734375 42.5244140625,66.4892578125 39.224853515625,67.159423828125 35.80078125,67.3828125 16.845703125,67.3828125 16.845703125,63.1640625 17.1240215301514,60.992431640625 17.958984375,58.9892578125 19.2773418426514,57.264404296875 21.005859375,55.927734375 19.4677734375,52.32421875 18.955078125,48.427734375 16.845703125,48.427734375 13.5791015625,47.7685546875 10.8984375,45.966796875 9.08203125,43.2861328125 8.408203125,40.01953125 8.7451171875,37.587890625 9.755859375,35.44921875 11.337890625,33.6767578125 13.388671875,32.34375 15.05859375,31.58203125 12.626953125,31.58203125 10.096435546875,31.3330078125 7.7197265625,30.5859375 3.7060546875,27.8759765625 0.99609375,23.8623046875 0.249023079872131,21.485595703125 0,18.955078125 0,14.736328125 1.6845703125,14.765625 3.1640625,14.794921875 4.9365234375,14.6923828125 6.5625,14.2675790786743 8.115234375,13.330078125 9.697265625,11.689453125 8.7451171875,9.08203125 8.408203125,6.328125 8.408203125,2.10937476158142 14.736328125,2.10937476158142 14.736328125,0z" />
    </g>
  </g>
</svg>