<?xml version="1.0" encoding="utf-8"?>
<!DOCTYPE svg PUBLIC "-//W3C//DTD SVG 1.1//EN" "http://www.w3.org/Graphics/SVG/1.1/DTD/svg11.dtd">
<svg width="60.9375000000021" height="67.265625" xmlns="http://www.w3.org/2000/svg" xmlns:xlink="http://www.w3.org/1999/xlink" xmlns:xml="http://www.w3.org/XML/1998/namespace" version="1.1">
  <g>
    <g>
      <path style="fill:#FF0000;fill-opacity:1" d="M16.69921875,20.947265625L16.69921875,36.767578125 16.376953125,38.3935546875 15.46875,39.755859375 6.53320264816284,48.69140625 18.45703125,60.5859375 29.35546875,49.6875 27.7734375,47.0947265625 27.216796875,44.091796875 27.685546875,41.337890625 28.9892578125,38.9501953125 30.99609375,37.08984375 33.544921875,35.947265625 33.544921875,31.728515625 28.154296875,20.947265625 16.69921875,20.947265625z M46.40625,15.087890625L31.34765625,22.6171875 38.408203125,36.767578125 38.876953125,38.642578125 38.642578125,39.990234375 34.8046875,51.533203125 34.658203125,51.97265625 50.625,57.3046875 55.517578125,42.65625 53.349609375,41.396484375 51.6943359375,39.580078125 50.625,37.353515625 50.244140625,34.86328125 50.9912109375,31.376953125 53.115234375,28.505859375 46.40625,15.087890625z M16.69921875,10.400390625L16.69921875,14.619140625 24.990234375,14.619140625 24.3896484375,13.447265625 23.818359375,12.2460947036743 25.6787109375,11.3671875 27.48046875,10.400390625 16.69921875,10.400390625z M41.689453125,5.654296875L26.630859375,13.18359375 27.5537109375,15.0732421875 28.505859375,16.962890625 36.03515625,13.1689453125 43.59375,9.43359375 41.689453125,5.654296875z M43.59375,0L59.58984375,32.021484375 60.6005859375,34.74609375 60.9375,37.646484375 60.263671875,41.689453125 54.609375,58.623046875 52.7783203125,62.1533203125 50.009765625,64.8779296875 46.552734375,66.6357421875 42.626953125,67.265625 40.111083984375,67.020263671875 37.7783203125,66.2841796875 33.8671875,63.6181640625 31.2158203125,59.677734375 30.457763671875,57.3486328125 30.146484375,54.873046875 21.416015625,63.57421875 19.4824199676514,65.152587890625 17.314453125,66.3134765625 14.96337890625,67.027587890625 12.48046875,67.265625 9.957275390625,67.02392578125 7.60253858566284,66.298828125 3.63281202316284,63.6328125 0.966797351837158,59.6630859375 0.241698563098907,57.308349609375 0,54.78515625 0.252684772014618,52.181396484375 1.01074171066284,49.7021484375 2.23754835128784,47.413330078125 3.89648389816284,45.380859375 12.48046875,36.767578125 12.48046875,6.2109375 31.201171875,6.2109375 43.59375,0z" />
    </g>
  </g>
</svg>