<?xml version="1.0" encoding="utf-8"?>
<!DOCTYPE svg PUBLIC "-//W3C//DTD SVG 1.1//EN" "http://www.w3.org/Graphics/SVG/1.1/DTD/svg11.dtd">
<svg width="67.3828125000004" height="67.3828125" xmlns="http://www.w3.org/2000/svg" xmlns:xlink="http://www.w3.org/1999/xlink" xmlns:xml="http://www.w3.org/XML/1998/namespace" version="1.1">
  <g>
    <g>
      <path style="fill:#FF0000;fill-opacity:1" d="M32.63671875,35.80078125L31.4208984375,36.0498046875 30.41015625,36.73828125 29.7216796875,37.7490234375 29.47265625,38.96484375 29.47265625,60 29.7216796875,61.2451171875 30.3955078125,62.2412109375 31.3916015625,62.9150390625 32.63671875,63.1640625 43.154296875,63.1640625 44.267578125,62.9443359375 45.2783203125,62.34375 46.025390625,61.4501953125 46.318359375,60.3515625 46.318359375,58.974609375 36.85546875,58.974609375 36.123046875,58.65234375 35.80078125,57.919921875 36.1083984375,57.1728515625 36.85546875,56.865234375 46.318359375,56.865234375 46.318359375,52.646484375 36.85546875,52.646484375 36.1083984375,52.3388671875 35.80078125,51.591796875 36.1083984375,50.8447265625 36.85546875,50.537109375 46.318359375,50.537109375 46.318359375,49.482421875 46.0693359375,48.2666015625 45.380859375,47.255859375 44.3701171875,46.5673828125 43.154296875,46.318359375 35.80078125,46.318359375 35.80078125,38.96484375 35.5517578125,37.734375 34.8779296875,36.7236328125 33.8671875,36.0498046875 32.63671875,35.80078125z M45.263671875,25.283203125L46.4794921875,25.5322265625 47.490234375,26.19140625 48.1787109375,27.1875 48.427734375,28.41796875 48.427734375,32.63671875 48.1787109375,33.8818359375 47.5048828125,34.8779296875 46.494140625,35.5517578125 45.263671875,35.80078125 44.0478515625,35.5517578125 43.037109375,34.86328125 42.3486328125,33.8525390625 42.099609375,32.63671875 42.099609375,28.41796875 42.3486328125,27.2021484375 43.037109375,26.2060546875 44.0478515625,25.5322265625 45.263671875,25.283203125z M22.119140625,25.283203125L23.3349609375,25.5322265625 24.3310546875,26.2060546875 25.0048828125,27.2021484375 25.25390625,28.41796875 25.25390625,32.63671875 25.0048828125,33.8525390625 24.345703125,34.86328125 23.349609375,35.5517578125 22.119140625,35.80078125 20.8740234375,35.5517578125 19.8779296875,34.8779296875 19.2041015625,33.8818359375 18.955078125,32.63671875 18.955078125,28.41796875 19.2041015625,27.1875 19.892578125,26.19140625 20.9033203125,25.5322265625 22.119140625,25.283203125z M40.01953125,12.626953125L43.9453125,13.06640625 47.8125,14.326171875 51.328125,16.3330078125 54.228515625,19.04296875 54.755859375,20.44921875 54.140625,21.9287109375 52.646484375,22.55859375 51.064453125,21.826171875 48.6767539978027,19.720458984375 46.083984375,18.1494140625 43.2202110290527,17.171630859375 40.01953125,16.845703125 38.525390625,16.23046875 37.91015625,14.736328125 38.525390625,13.2421875 40.01953125,12.626953125z M27.36328125,12.626953125L28.857421875,13.2421875 29.47265625,14.736328125 28.857421875,16.23046875 27.36328125,16.845703125 24.16259765625,17.171630859375 21.298828125,18.1494140625 18.7060527801514,19.720458984375 16.318359375,21.826171875 14.736328125,22.55859375 13.2275390625,21.943359375 12.626953125,20.44921875 13.154296875,19.04296875 16.0546875,16.3330078125 19.5703125,14.326171875 23.4375,13.06640625 27.36328125,12.626953125z M33.69140625,4.21874952316284L29.696044921875,4.48242473602295 25.8544921875,5.2734375 22.2106914520264,6.54419231414795 18.80859375,8.2470703125 15.677490234375,10.3564453125 12.8466796875,12.8466796875 10.3564453125,15.677490234375 8.2470703125,18.80859375 6.54418849945068,22.210693359375 5.2734375,25.8544921875 4.482421875,29.6960468292236 4.21875,33.69140625 4.420166015625,37.1630859375 5.0244140625,40.546875 7.32421875,46.875 10.9423828125,52.4560546875 15.7177734375,57.0849609375 21.4892578125,60.5419921875 28.06640625,62.63671875 27.5537109375,61.3623046875 27.36328125,60 27.36328125,38.96484375 27.7734375,36.9140625 28.9013671875,35.2294921875 30.5859375,34.1015625 32.63671875,33.69140625 34.6875,34.1015625 36.3720703125,35.2294921875 37.5,36.9140625 37.91015625,38.96484375 37.91015625,39.521484375 39.462890625,41.630859375 40.01953125,44.208984375 43.154296875,44.208984375 45.205078125,44.619140625 46.8896484375,45.7470703125 48.017578125,47.431640625 48.427734375,49.482421875 48.427734375,50.712890625 49.951171875,51.85546875 50.537109375,53.701171875 49.951171875,55.546875 48.427734375,56.689453125 48.427734375,59.23828125 51.6796836853027,57.073974609375 54.580078125,54.5068359375 57.099609375,51.6064453125 59.208984375,48.4423828125 60.8935546875,45.032958984375 62.138671875,41.396484375 62.90771484375,37.59521484375 63.1640625,33.69140625 62.900390625,29.6960468292236 62.109375,25.8544921875 60.838623046875,22.210693359375 59.1357421875,18.80859375 57.0263671875,15.677490234375 54.5361328125,12.8466796875 51.7053184509277,10.3564453125 48.57421875,8.2470703125 45.1721153259277,6.54419231414795 41.5283203125,5.2734375 37.686767578125,4.48242473602295 33.69140625,4.21874952316284z M33.69140625,0L38.26171875,0.300295770168304 42.65625,1.20117139816284 46.8200645446777,2.65137004852295 50.6982421875,4.59960889816284 54.2687950134277,7.0166015625 57.509765625,9.873046875 60.3662109375,13.114013671875 62.783203125,16.6845703125 64.7314453125,20.562744140625 66.181640625,24.7265625 67.08251953125,29.1210956573486 67.3828125,33.69140625 67.0751953125,38.258056640625 66.15234375,42.7001953125 64.658203125,46.9482421875 62.63671875,50.9326171875 60.106201171875,54.613037109375 57.0849609375,57.94921875 53.6169395446777,60.87158203125 49.74609375,63.310546875 48.57421875,64.9951171875 47.021484375,66.26953125 45.1904296875,67.08984375 43.154296875,67.3828125 32.63671875,67.3828125 32.2412109375,67.3681640625 31.845703125,67.32421875 29.6923828125,67.1923828125 27.4365234375,66.826171875 25.224609375,66.3134765625 23.203125,65.712890625 18.2446269989014,63.6474609375 13.740234375,60.849609375 9.7705078125,57.421875 6.416015625,53.466796875 3.709716796875,49.039306640625 1.6845703125,44.1943359375 0.421142399311066,39.041748046875 0,33.69140625 0.300292611122131,29.1210956573486 1.201171875,24.7265625 2.6513671875,20.562744140625 4.599609375,16.6845703125 7.01660060882568,13.114013671875 9.873046875,9.873046875 13.114013671875,7.0166015625 16.6845703125,4.59960889816284 20.5627422332764,2.65137004852295 24.7265625,1.20117139816284 29.12109375,0.300295770168304 33.69140625,0z" />
    </g>
  </g>
</svg>