<?xml version="1.0" encoding="utf-8"?>
<!DOCTYPE svg PUBLIC "-//W3C//DTD SVG 1.1//EN" "http://www.w3.org/Graphics/SVG/1.1/DTD/svg11.dtd">
<svg width="37.8515625" height="44.4140625" xmlns="http://www.w3.org/2000/svg" xmlns:xlink="http://www.w3.org/1999/xlink" xmlns:xml="http://www.w3.org/XML/1998/namespace" version="1.1">
  <g>
    <g>
      <path style="fill:#FF0000;fill-opacity:1" d="M17.9296875,3.046875L17.5634765625,3.8818359375 17.021484375,4.833984375 11.748046875,12.978515625 17.9296875,12.978515625 17.9296875,5.15625 17.958984375,4.248046875 18.046875,3.046875 17.9296875,3.046875z M17.373046875,0.029296875L21.123046875,0.029296875 21.123046875,12.978515625 23.818359375,12.978515625 23.818359375,15.615234375 21.123046875,15.615234375 21.123046875,20.56640625 17.9296875,20.56640625 17.9296875,15.615234375 8.466796875,15.615234375 8.466796875,13.388671875 17.373046875,0.029296875z M34.130859375,0L37.8515625,0 18.076171875,44.4140625 14.326171875,44.4140625 4.98046875,22.44140625 0,22.44140625 0,18.92578125 7.734375,18.92578125 16.494140625,39.814453125 34.130859375,0z" />
    </g>
  </g>
</svg>