<?xml version="1.0" encoding="utf-8"?>
<!DOCTYPE svg PUBLIC "-//W3C//DTD SVG 1.1//EN" "http://www.w3.org/Graphics/SVG/1.1/DTD/svg11.dtd">
<svg width="28.857421875" height="34.8046875" xmlns="http://www.w3.org/2000/svg" xmlns:xlink="http://www.w3.org/1999/xlink" xmlns:xml="http://www.w3.org/XML/1998/namespace" version="1.1">
  <g>
    <g>
      <path style="fill:#FF0000;fill-opacity:1" d="M17.8125,0L21.474609375,0 18.046875,9.169921875 19.6508769989014,9.80713081359863 20.888671875,10.01953125 22.4999980926514,9.66430854797363 23.759765625,8.5986328125 24.5874004364014,6.93969869613647 24.90234375,4.8046875 28.857421875,4.8046875 28.1689453125,8.62426948547363 26.513671875,11.4697265625 23.9794902801514,13.238525390625 20.654296875,13.828125 18.7646465301514,13.58642578125 16.669921875,12.861328125 14.970703125,17.40234375 28.18359375,17.40234375 28.18359375,21.26953125 13.53515625,21.26953125 11.748046875,26.015625 28.212890625,26.015625 28.212890625,29.8828125 10.3125,29.8828125 8.466796875,34.8046875 4.62890625,34.8046875 6.474609375,29.8828125 0.673828125,29.8828125 0.673828125,26.015625 7.939453125,26.015625 9.755859375,21.26953125 0.64453125,21.26953125 0.64453125,17.40234375 11.220703125,17.40234375 13.59375,11.1328125 10.546875,9.3310546875 8.232421875,8.671875 6.427001953125,8.99414157867432 5.1123046875,9.96093940734863 4.288330078125,11.5722665786743 3.955078125,13.828125 0,13.828125 0.6591796875,10.048828125 2.3291015625,7.2216796875 4.892578125,5.4345703125 8.232421875,4.8046875 11.455078125,5.43457174301147 15.029296875,7.32421875 17.8125,0z" />
    </g>
  </g>
</svg>