<?xml version="1.0" encoding="utf-8"?>
<!DOCTYPE svg PUBLIC "-//W3C//DTD SVG 1.1//EN" "http://www.w3.org/Graphics/SVG/1.1/DTD/svg11.dtd">
<svg width="27.5390625" height="36.2109375" xmlns="http://www.w3.org/2000/svg" xmlns:xlink="http://www.w3.org/1999/xlink" xmlns:xml="http://www.w3.org/XML/1998/namespace" version="1.1">
  <g>
    <g>
      <path style="fill:#FF0000;fill-opacity:1" d="M11.865234375,10.458984375L15.703125,10.458984375 15.703125,20.5078125 27.5390625,20.5078125 27.5390625,24.375 15.703125,24.375 15.703125,36.2109375 11.865234375,36.2109375 11.865234375,24.375 0,24.375 0,20.5078125 11.865234375,20.5078125 11.865234375,10.458984375z M13.740234375,0L15.0146484375,0.263671875 16.0693359375,0.9814453125 16.787109375,2.0361328125 17.05078125,3.310546875 16.787109375,4.5849609375 16.0693359375,5.625 15.0146484375,6.328125 13.740234375,6.591796875 12.48046875,6.328125 11.455078125,5.625 10.751953125,4.5849609375 10.48828125,3.310546875 10.751953125,2.0361328125 11.455078125,0.9814453125 12.48046875,0.263671875 13.740234375,0z" />
    </g>
  </g>
</svg>