<?xml version="1.0" encoding="utf-8"?>
<!DOCTYPE svg PUBLIC "-//W3C//DTD SVG 1.1//EN" "http://www.w3.org/Graphics/SVG/1.1/DTD/svg11.dtd">
<svg width="28.857421875" height="23.408203125" xmlns="http://www.w3.org/2000/svg" xmlns:xlink="http://www.w3.org/1999/xlink" xmlns:xml="http://www.w3.org/XML/1998/namespace" version="1.1">
  <g>
    <g>
      <path style="fill:#FF0000;fill-opacity:1" d="M7.646484375,0L9.385986328125,0.223388671875 10.8544921875,0.8935546875 13.18359375,3.28125 14.8974609375,6.7236328125 16.23046875,10.78125 17.4169921875,14.619140625 18.5302734375,17.3583984375 19.7900390625,18.9990234375 21.474609375,19.541015625 23.0200176239014,19.200439453125 24.08203125,18.1787109375 24.6972637176514,16.534423828125 24.90234375,14.326171875 28.857421875,14.326171875 28.238525390625,18.17138671875 26.7919921875,21.03515625 24.473876953125,22.81494140625 21.240234375,23.408203125 19.5007305145264,23.184814453125 18.0322265625,22.5146484375 15.6884765625,20.09765625 13.9306640625,16.5380859375 12.48046875,12.216796875 11.3671875,8.642578125 10.3125,6.0498046875 9.0673828125,4.4677734375 7.3828125,3.92578125 5.83740139007568,4.24072265625 4.775390625,5.185546875 4.16015625,6.78955078125 3.955078125,9.08203125 0,9.08203125 0.498046875,5.2587890625 1.904296875,2.40234375 4.2626953125,0.615234375 7.646484375,0z" />
    </g>
  </g>
</svg>