<?xml version="1.0" encoding="utf-8"?>
<!DOCTYPE svg PUBLIC "-//W3C//DTD SVG 1.1//EN" "http://www.w3.org/Graphics/SVG/1.1/DTD/svg11.dtd">
<svg width="37.8515625" height="44.765625" xmlns="http://www.w3.org/2000/svg" xmlns:xlink="http://www.w3.org/1999/xlink" xmlns:xml="http://www.w3.org/XML/1998/namespace" version="1.1">
  <g>
    <g>
      <path style="fill:#FF0000;fill-opacity:1" d="M34.130859375,0.3515625L37.8515625,0.3515625 18.076171875,44.765625 14.326171875,44.765625 4.98046875,22.79296875 0,22.79296875 0,19.27734375 7.734375,19.27734375 16.494140625,40.166015625 34.130859375,0.3515625z M17.138671875,0L19.4970703125,0.3662109375 21.328125,1.3916015625 22.5146484375,2.9736328125 22.939453125,5.0390625 22.7270488739014,6.6448974609375 22.0898418426514,7.97607421875 21.0278301239014,9.0325927734375 19.541015625,9.814453125 19.541015625,9.931640625 21.3482646942139,10.61279296875 22.6391582489014,11.630859375 23.4136943817139,12.98583984375 23.671875,14.677734375 23.1591796875,17.1826171875 21.6943359375,19.1455078125 19.39453125,20.4345703125 16.376953125,20.888671875 13.51318359375,20.5810546875 11.3671875,19.658203125 11.3671875,16.318359375 13.857421875,17.6586933135986 16.46484375,18.10546875 18.1603984832764,17.8857440948486 19.4384765625,17.2265625 20.2404766082764,16.1938495635986 20.5078125,14.853515625 20.1855449676514,13.4051513671875 19.2187480926514,12.37060546875 17.6074199676514,11.7498779296875 15.3515625,11.54296875 13.388671875,11.54296875 13.388671875,8.759765625 15.263671875,8.759765625 17.2888164520264,8.5638427734375 18.7353496551514,7.97607421875 19.6032695770264,6.9964599609375 19.892578125,5.625 19.6820049285889,4.4073486328125 19.0502910614014,3.53759765625 17.9974346160889,3.0157470703125 16.5234375,2.841796875 14.31884765625,3.24462890625 12.158203125,4.453125 12.158203125,1.201171875 14.4287109375,0.30029296875 17.138671875,0z" />
    </g>
  </g>
</svg>