<?xml version="1.0" encoding="utf-8"?>
<!DOCTYPE svg PUBLIC "-//W3C//DTD SVG 1.1//EN" "http://www.w3.org/Graphics/SVG/1.1/DTD/svg11.dtd">
<svg width="33.3398437500006" height="22.79296875" xmlns="http://www.w3.org/2000/svg" xmlns:xlink="http://www.w3.org/1999/xlink" xmlns:xml="http://www.w3.org/XML/1998/namespace" version="1.1">
  <g>
    <g>
      <path style="fill:#FF0000;fill-opacity:1" d="M10.8984375,3.662109375L7.9833984375,4.248046875 5.7568359375,5.8740234375 4.3359375,8.349609375 3.837890625,11.513671875 4.3505859375,14.47265625 5.80078125,16.8603515625 8.02734375,18.4423828125 10.8984375,19.013671875 13.41796875,18.533935546875 15.8203125,17.0947265625 18.10546875,14.696044921875 20.2734375,11.337890625 18.2373046875,7.97973728179932 15.99609375,5.58105611801147 13.5498046875,4.14184665679932 10.8984375,3.662109375z M10.8984375,0L14.1979970932007,0.499879002571106 17.1826152801514,1.99951314926147 19.8522930145264,4.49890232086182 22.20703125,7.998046875 24.693603515625,4.49890232086182 27.3779296875,1.99951314926147 30.260009765625,0.499879002571106 33.33984375,0 33.33984375,3.662109375 30.8441162109375,4.14550876617432 28.45458984375,5.59570455551147 26.1712646484375,8.01269626617432 23.994140625,11.396484375 26.0174560546875,14.72900390625 28.24951171875,17.109375 30.6903076171875,18.53759765625 33.33984375,19.013671875 33.33984375,22.79296875 30.15380859375,22.2894287109375 27.216796875,20.77880859375 24.52880859375,18.2611083984375 22.08984375,14.736328125 19.544677734375,18.2611083984375 16.8310546875,20.77880859375 13.948974609375,22.2894287109375 10.8984375,22.79296875 8.57666015625,22.587890625 6.474609375,21.97265625 3.0322265625,19.6728515625 0.791015625,16.11328125 0.197753548622131,13.92333984375 0,11.513671875 0.212401986122131,9.232177734375 0.849609375,7.0751953125 3.1787109375,3.4130859375 6.6357421875,0.9228515625 8.690185546875,0.230714321136475 10.8984375,0z" />
    </g>
  </g>
</svg>