<?xml version="1.0" encoding="utf-8"?>
<!DOCTYPE svg PUBLIC "-//W3C//DTD SVG 1.1//EN" "http://www.w3.org/Graphics/SVG/1.1/DTD/svg11.dtd">
<svg width="28.3007812500019" height="28.41796875" xmlns="http://www.w3.org/2000/svg" xmlns:xlink="http://www.w3.org/1999/xlink" xmlns:xml="http://www.w3.org/XML/1998/namespace" version="1.1">
  <g>
    <g>
      <path style="fill:#FF0000;fill-opacity:1" d="M14.12109375,21.826171875L15.3955078125,22.08984375 16.4501953125,22.8076171875 17.16796875,23.8623046875 17.431640625,25.13671875 17.16796875,26.4111328125 16.4501953125,27.451171875 15.3955078125,28.154296875 14.12109375,28.41796875 12.861328125,28.154296875 11.8359375,27.451171875 11.1328125,26.4111328125 10.869140625,25.13671875 11.1328125,23.8623046875 11.8359375,22.8076171875 12.861328125,22.08984375 14.12109375,21.826171875z M24.990234375,0L26.2646484375,0.263671875 27.3193359375,0.9814453125 28.037109375,2.0361328125 28.30078125,3.310546875 28.037109375,4.5849609375 27.3193359375,5.625 26.2646484375,6.328125 24.990234375,6.591796875 23.73046875,6.328125 22.705078125,5.625 22.001953125,4.5849609375 21.73828125,3.310546875 22.001953125,2.0361328125 22.705078125,0.9814453125 23.73046875,0.263671875 24.990234375,0z M3.251953125,0L4.5263671875,0.263671875 5.5810546875,0.9814453125 6.298828125,2.0361328125 6.5625,3.310546875 6.298828125,4.5849609375 5.5810546875,5.625 4.5263671875,6.328125 3.251953125,6.591796875 1.9921875,6.328125 0.966796875,5.625 0.263671875,4.5849609375 0,3.310546875 0.263671875,2.0361328125 0.966796875,0.9814453125 1.9921875,0.263671875 3.251953125,0z" />
    </g>
  </g>
</svg>