<?xml version="1.0" encoding="utf-8"?>
<!DOCTYPE svg PUBLIC "-//W3C//DTD SVG 1.1//EN" "http://www.w3.org/Graphics/SVG/1.1/DTD/svg11.dtd">
<svg width="27.7148437500017" height="30.673828125" xmlns="http://www.w3.org/2000/svg" xmlns:xlink="http://www.w3.org/1999/xlink" xmlns:xml="http://www.w3.org/XML/1998/namespace" version="1.1">
  <g>
    <g>
      <path style="fill:#FF0000;fill-opacity:1" d="M0,26.806640625L27.5390625,26.806640625 27.5390625,30.673828125 0,30.673828125 0,26.806640625z M0,18.193359375L27.5390625,18.193359375 27.5390625,22.060546875 0,22.060546875 0,18.193359375z M4.833984375,6.533203125L3.3984375,7.2802734375 2.87109375,9.287109375 3.369140625,11.162109375 4.775390625,11.806640625 6.1669921875,11.1181640625 6.708984375,9.287109375 6.708984375,8.61328125 6.1962890625,7.1337890625 4.833984375,6.533203125z M15.849609375,6.26953125L14.677734375,6.8408203125 14.091796875,8.232421875 17.4609375,8.232421875 17.0581035614014,6.76025533676147 15.849609375,6.26953125z M15.87890625,4.365234375L17.6660137176514,4.66186666488647 18.984375,5.5517578125 19.7973613739014,6.95434713363647 20.068359375,8.7890625 20.068359375,9.9609375 14.091796875,9.9609375 14.7802734375,11.47705078125 16.611328125,11.982421875 18.0322246551514,11.7919921875 19.248046875,11.220703125 19.248046875,13.30078125 15.966796875,13.974609375 14.01123046875,13.6669921875 12.5390625,12.744140625 11.6162109375,11.27197265625 11.30859375,9.31640625 11.66015625,7.294921875 12.626953125,5.7275390625 14.0771484375,4.716796875 15.87890625,4.365234375z M6.650390625,0.205078125L9.4921875,0.205078125 9.4921875,13.740234375 6.650390625,13.740234375 6.650390625,12.48046875 6.533203125,12.48046875 5.38329982757568,13.60107421875 3.80859375,13.974609375 2.23388671875,13.6669921875 1.025390625,12.744140625 0.256347298622131,11.28662109375 0,9.375 0.29296875,7.3095703125 1.142578125,5.7275390625 2.4609375,4.716796875 4.16015625,4.365234375 5.50048732757568,4.68017721176147 6.533203125,5.625 6.650390625,5.625 6.650390625,0.205078125z M26.279296875,0L27.71484375,0.17578125 27.71484375,2.373046875 26.66015625,2.138671875 25.62744140625,2.51220846176147 25.283203125,3.6328125 25.283203125,4.599609375 27.392578125,4.599609375 27.392578125,6.650390625 25.283203125,6.650390625 25.283203125,13.740234375 22.5,13.740234375 22.5,6.650390625 20.947265625,6.650390625 20.947265625,4.599609375 22.5,4.599609375 22.5,3.45703125 22.7526836395264,2.03613424301147 23.5107421875,0.9375 24.7082500457764,0.234375 26.279296875,0z" />
    </g>
  </g>
</svg>