<?xml version="1.0" encoding="utf-8"?>
<!DOCTYPE svg PUBLIC "-//W3C//DTD SVG 1.1//EN" "http://www.w3.org/Graphics/SVG/1.1/DTD/svg11.dtd">
<svg width="29.4726562500005" height="28.623046875" xmlns="http://www.w3.org/2000/svg" xmlns:xlink="http://www.w3.org/1999/xlink" xmlns:xml="http://www.w3.org/XML/1998/namespace" version="1.1">
  <g>
    <g>
      <path style="fill:#FF0000;fill-opacity:1" d="M15.1171875,0L29.47265625,0 29.47265625,3.8671875 15.5859375,3.8671875 11.077880859375,4.38354635238647 7.6904296875,5.9326171875 5.445556640625,8.551025390625 4.365234375,12.275390625 29.47265625,12.275390625 29.47265625,16.142578125 4.365234375,16.142578125 5.482177734375,19.910888671875 7.8369140625,22.6025390625 11.480712890625,24.217529296875 16.46484375,24.755859375 29.47265625,24.755859375 29.47265625,28.623046875 15.1171875,28.623046875 11.91650390625,28.392333984375 8.994140625,27.7001953125 6.40869045257568,26.55029296875 4.21875,24.9462890625 2.4462890625,22.899169921875 1.11328125,20.419921875 0.278319954872131,17.51953125 0,14.208984375 0.307616829872131,10.90576171875 1.23046875,8.02734375 2.669677734375,5.58105611801147 4.5263671875,3.57421875 6.76025295257568,2.01049947738647 9.3310546875,0.8935546875 12.147216796875,0.223390102386475 15.1171875,0z" />
    </g>
  </g>
</svg>