<?xml version="1.0" encoding="utf-8"?>
<!DOCTYPE svg PUBLIC "-//W3C//DTD SVG 1.1//EN" "http://www.w3.org/Graphics/SVG/1.1/DTD/svg11.dtd">
<svg width="27.5390625" height="43.828125" xmlns="http://www.w3.org/2000/svg" xmlns:xlink="http://www.w3.org/1999/xlink" xmlns:xml="http://www.w3.org/XML/1998/namespace" version="1.1">
  <g>
    <g>
      <path style="fill:#FF0000;fill-opacity:1" d="M16.640625,16.5234375L14.970703125,21.943359375 21.15234375,18.8671875 21.15234375,18.75 16.640625,16.5234375z M18.3984375,0L21.767578125,0 17.724609375,13.0078125 27.5390625,18.017578125 27.5390625,19.599609375 13.447265625,26.8359375 10.60546875,36.005859375 27.5390625,36.005859375 27.5390625,39.90234375 9.375,39.90234375 8.173828125,43.828125 4.482421875,43.828125 5.712890625,39.90234375 0,39.90234375 0,36.005859375 6.943359375,36.005859375 9.169921875,29.033203125 0,33.720703125 0,29.35546875 10.751953125,24.0234375 13.623046875,15.029296875 0,8.291015625 0,3.896484375 14.736328125,11.484375 18.3984375,0z" />
    </g>
  </g>
</svg>