<?xml version="1.0" encoding="utf-8"?>
<!DOCTYPE svg PUBLIC "-//W3C//DTD SVG 1.1//EN" "http://www.w3.org/Graphics/SVG/1.1/DTD/svg11.dtd">
<svg width="25.1953125" height="37.646484375" xmlns="http://www.w3.org/2000/svg" xmlns:xlink="http://www.w3.org/1999/xlink" xmlns:xml="http://www.w3.org/XML/1998/namespace" version="1.1">
  <g>
    <g>
      <path style="fill:#FF0000;fill-opacity:1" d="M25.1953125,19.8046875L25.1953125,23.466796875 21.3500957489014,24.510498046875 17.900390625,25.7080078125 11.748046875,28.681640625 6.0205078125,32.5927734375 0,37.646484375 0,32.666015625 5.15625,28.4619140625 11.279296875,24.66796875 18.0615234375,21.6650390625 25.1953125,19.8046875z M0,0L5.9326171875,4.892578125 12.2314453125,8.7744140625 18.7060546875,11.7919921875 25.1953125,14.12109375 25.1953125,15.849609375 18.720703125,17.724609375 12.2607421875,20.3759765625 5.9619140625,23.9208984375 0,28.4765625 0,23.49609375 3.80859375,20.6396484375 8.02734375,18.2080078125 12.421875,16.2744140625 16.728515625,14.94140625 16.728515625,14.82421875 12.4951171875,13.0517578125 8.0859375,10.751953125 3.8232421875,8.0419921875 0,4.98046875 0,0z" />
    </g>
  </g>
</svg>