<?xml version="1.0" encoding="utf-8"?>
<!DOCTYPE svg PUBLIC "-//W3C//DTD SVG 1.1//EN" "http://www.w3.org/Graphics/SVG/1.1/DTD/svg11.dtd">
<svg width="38.0859375000011" height="12.744140625" xmlns="http://www.w3.org/2000/svg" xmlns:xlink="http://www.w3.org/1999/xlink" xmlns:xml="http://www.w3.org/XML/1998/namespace" version="1.1">
  <g>
    <g>
      <path style="fill:#FF0000;fill-opacity:1" d="M31.7578125,2.783203125L30.4248046875,3.0322265625 29.3115234375,3.7353515625 28.53515625,4.8486328125 28.2421875,6.298828125 28.5205078125,7.763671875 29.267578125,8.9208984375 30.3662109375,9.6826171875 31.69921875,9.9609375 33.0322265625,9.6826171875 34.130859375,8.9208984375 34.86328125,7.763671875 35.126953125,6.298828125 34.86328125,4.8486328125 34.130859375,3.7353515625 33.0615234375,3.0322265625 31.7578125,2.783203125z M6.328125,0L8.525390625,0.380859375 10.3857421875,1.4208984375 11.7919921875,2.9736328125 12.59765625,4.892578125 25.458984375,4.892578125 26.25,2.9296875 27.6123046875,1.376953125 29.443359375,0.3662109375 31.640625,0 34.1748046875,0.498046875 36.2255859375,1.8603515625 37.587890625,3.8671875 38.0859375,6.298828125 37.587890625,8.8623046875 36.2255859375,10.9130859375 34.2041015625,12.2607421875 31.69921875,12.744140625 29.53125,12.3779296875 27.685546875,11.3525390625 26.2939453125,9.7998046875 25.458984375,7.822265625 12.59765625,7.822265625 11.7919921875,9.814453125 10.400390625,11.3671875 8.5546875,12.3779296875 6.38671875,12.744140625 3.8818359375,12.24609375 1.8603515625,10.869140625 0.498046398162842,8.818359375 0,6.298828125 0.4833984375,3.8232421875 1.8017578125,1.81640625 3.7939453125,0.4833984375 6.328125,0z" />
    </g>
  </g>
</svg>