<?xml version="1.0" encoding="utf-8"?>
<!DOCTYPE svg PUBLIC "-//W3C//DTD SVG 1.1//EN" "http://www.w3.org/Graphics/SVG/1.1/DTD/svg11.dtd">
<svg width="28.857421875" height="39.345703125" xmlns="http://www.w3.org/2000/svg" xmlns:xlink="http://www.w3.org/1999/xlink" xmlns:xml="http://www.w3.org/XML/1998/namespace" version="1.1">
  <g>
    <g>
      <path style="fill:#FF0000;fill-opacity:1" d="M15.966796875,23.173828125L20.0390625,23.173828125 16.201171875,29.736328125 18.9111309051514,31.1865234375 20.888671875,31.669921875 22.5,31.2890625 23.759765625,30.205078125 24.580078125,28.53515625 24.90234375,26.42578125 28.857421875,26.42578125 28.1689453125,30.267333984375 26.513671875,33.1201171875 23.9794902801514,34.888916015625 20.654296875,35.478515625 17.6660137176514,34.9072265625 14.208984375,33.193359375 10.60546875,39.345703125 6.474609375,39.345703125 11.19140625,31.2890625 9.58740234375,30.60791015625 8.232421875,30.380859375 6.427001953125,30.699462890625 5.1123046875,31.6552734375 4.288330078125,33.248291015625 3.955078125,35.478515625 0,35.478515625 0.6591796875,31.7138671875 2.314453125,28.857421875 4.86328125,27.0556640625 8.232421875,26.42578125 10.634765625,26.78466796875 13.212890625,27.861328125 15.966796875,23.173828125z M0.673828125,0L28.212890625,11.220703125 28.212890625,12.919921875 0.673828125,24.140625 0.673828125,19.86328125 19.951171875,12.3046875 19.951171875,11.8359375 0.673828125,4.27734375 0.673828125,0z" />
    </g>
  </g>
</svg>