<?xml version="1.0" encoding="utf-8"?>
<!DOCTYPE svg PUBLIC "-//W3C//DTD SVG 1.1//EN" "http://www.w3.org/Graphics/SVG/1.1/DTD/svg11.dtd">
<svg width="28.6230468750004" height="29.208984375" xmlns="http://www.w3.org/2000/svg" xmlns:xlink="http://www.w3.org/1999/xlink" xmlns:xml="http://www.w3.org/XML/1998/namespace" version="1.1">
  <g>
    <g>
      <path style="fill:#FF0000;fill-opacity:1" d="M7.529296875,0L11.396484375,0 11.396484375,13.4765625 11.6455078125,14.970703125 12.3193359375,16.0400390625 13.271484375,16.6845703125 14.35546875,16.904296875 15.439453125,16.69921875 16.376953125,16.0693359375 17.0361328125,15.029296875 17.28515625,13.564453125 17.28515625,0 21.15234375,0 21.15234375,13.4765625 20.56640625,16.81640625 19.013671875,19.2041015625 16.81640625,20.6396484375 14.326171875,21.123046875 11.8212890625,20.6396484375 9.6533203125,19.2041015625 8.115234375,16.81640625 7.529296875,13.4765625 7.529296875,0z M0,0L3.8671875,0 3.8671875,13.53515625 4.07958984375,16.25244140625 4.716796875,18.603515625 7.0166015625,22.2216796875 10.341796875,24.3896484375 14.296875,25.107421875 18.251953125,24.3896484375 21.591796875,22.2216796875 23.8916015625,18.603515625 24.5397930145264,16.25244140625 24.755859375,13.53515625 24.755859375,0 28.623046875,0 28.623046875,13.564453125 28.319091796875,17.2412109375 27.4072265625,20.419921875 25.997314453125,23.10791015625 24.19921875,25.3125 22.0605449676514,27.0263671875 19.62890625,28.2421875 17.01416015625,28.96728515625 14.326171875,29.208984375 11.7041015625,28.974609375 9.111328125,28.271484375 6.67236232757568,27.088623046875 4.51171875,25.4150390625 2.684326171875,23.23974609375 1.2451171875,20.5517578125 0.311278939247131,17.332763671875 0,13.564453125 0,0z" />
    </g>
  </g>
</svg>