<?xml version="1.0" encoding="utf-8"?>
<!DOCTYPE svg PUBLIC "-//W3C//DTD SVG 1.1//EN" "http://www.w3.org/Graphics/SVG/1.1/DTD/svg11.dtd">
<svg width="25.1953125" height="37.646484375" xmlns="http://www.w3.org/2000/svg" xmlns:xlink="http://www.w3.org/1999/xlink" xmlns:xml="http://www.w3.org/XML/1998/namespace" version="1.1">
  <g>
    <g>
      <path style="fill:#FF0000;fill-opacity:1" d="M25.1953125,9.169921875L25.1953125,14.150390625 21.38671875,17.0068359375 17.16796875,19.4384765625 12.7734375,21.3720703125 8.466796875,22.705078125 8.466796875,22.822265625 12.685546875,24.609375 17.080078125,26.89453125 21.357421875,29.6044921875 25.1953125,32.666015625 25.1953125,37.646484375 19.2626953125,32.75390625 12.9638671875,28.8720703125 6.474609375,25.8544921875 0,23.525390625 0,21.796875 6.4599609375,19.921875 12.9345703125,17.2705078125 19.2333984375,13.7255859375 25.1953125,9.169921875z M25.1953125,0L25.1953125,4.98046875 20.0390625,9.1845703125 13.916015625,12.978515625 7.1337890625,15.9814453125 0,17.841796875 0,14.1796875 5.0244140625,12.7587890625 9.43359375,11.0302734375 13.4326171875,8.9501953125 17.255859375,6.4599609375 21.1083984375,3.5009765625 25.1953125,0z" />
    </g>
  </g>
</svg>