<?xml version="1.0" encoding="utf-8"?>
<!DOCTYPE svg PUBLIC "-//W3C//DTD SVG 1.1//EN" "http://www.w3.org/Graphics/SVG/1.1/DTD/svg11.dtd">
<svg width="25.1953125" height="43.828125" xmlns="http://www.w3.org/2000/svg" xmlns:xlink="http://www.w3.org/1999/xlink" xmlns:xml="http://www.w3.org/XML/1998/namespace" version="1.1">
  <g>
    <g>
      <path style="fill:#FF0000;fill-opacity:1" d="M16.142578125,18.10546875L15.99609375,18.6328125 16.728515625,18.427734375 16.728515625,18.310546875 16.142578125,18.10546875z M18.3984375,0L21.767578125,0 17.2265625,14.677734375 21.2255859375,16.259765625 25.1953125,17.607421875 25.1953125,19.3359375 19.951171875,20.8154296875 14.70703125,22.763671875 13.359375,27.12890625 19.16015625,24.78515625 25.1953125,23.291015625 25.1953125,26.953125 21.3537578582764,28.011474609375 17.9150390625,29.1943359375 11.77734375,32.138671875 8.173828125,43.828125 4.48242235183716,43.828125 7.23632860183716,35.185546875 3.70605516433716,37.939453125 0,41.1328125 0,36.15234375 4.18945360183716,32.6806640625 9.052734375,29.4140625 10.546875,24.7265625 5.12695360183716,27.978515625 0,31.962890625 0,26.982421875 5.71289110183716,22.9541015625 12.0703125,19.892578125 13.06640625,16.787109375 9.6240234375,15.1025390625 6.19628953933716,13.125 2.92968797683716,10.8984375 0,8.466796875 0,3.486328125 3.35449266433716,6.47461032867432 6.85546922683716,9.052734375 14.1796875,13.271484375 18.3984375,0z" />
    </g>
  </g>
</svg>