<?xml version="1.0" encoding="utf-8"?>
<!DOCTYPE svg PUBLIC "-//W3C//DTD SVG 1.1//EN" "http://www.w3.org/Graphics/SVG/1.1/DTD/svg11.dtd">
<svg width="25.1953125" height="37.646484375" xmlns="http://www.w3.org/2000/svg" xmlns:xlink="http://www.w3.org/1999/xlink" xmlns:xml="http://www.w3.org/XML/1998/namespace" version="1.1">
  <g>
    <g>
      <path style="fill:#FF0000;fill-opacity:1" d="M0,9.169921875L5.9619140625,13.7255859375 12.2607421875,17.2705078125 18.720703125,19.921875 25.1953125,21.796875 25.1953125,23.525390625 18.7060546875,25.8544921875 12.2314453125,28.8720703125 5.9326171875,32.75390625 0,37.646484375 0,32.666015625 3.8232421875,29.6044921875 8.0859375,26.89453125 12.4951171875,24.609375 16.728515625,22.822265625 16.728515625,22.705078125 12.421875,21.3720703125 8.02734375,19.4384765625 3.80859375,17.0068359375 0,14.150390625 0,9.169921875z M0,0L6.0205078125,5.0537109375 11.748046875,8.96484375 17.900390625,11.9384765625 21.3500957489014,13.135986328125 25.1953125,14.1796875 25.1953125,17.841796875 18.0615234375,15.9814453125 11.279296875,12.978515625 5.15625,9.1845703125 0,4.98046875 0,0z" />
    </g>
  </g>
</svg>