<?xml version="1.0" encoding="utf-8"?>
<!DOCTYPE svg PUBLIC "-//W3C//DTD SVG 1.1//EN" "http://www.w3.org/Graphics/SVG/1.1/DTD/svg11.dtd">
<svg width="27.5390625" height="28.41796875" xmlns="http://www.w3.org/2000/svg" xmlns:xlink="http://www.w3.org/1999/xlink" xmlns:xml="http://www.w3.org/XML/1998/namespace" version="1.1">
  <g>
    <g>
      <path style="fill:#FF0000;fill-opacity:1" d="M13.7109375,21.826171875L14.9853515625,22.08984375 16.0400390625,22.8076171875 16.7578125,23.8623046875 17.021484375,25.13671875 16.7578125,26.4111328125 16.0400390625,27.451171875 14.9853515625,28.154296875 13.7109375,28.41796875 12.451171875,28.154296875 11.42578125,27.451171875 10.72265625,26.4111328125 10.458984375,25.13671875 10.72265625,23.8623046875 11.42578125,22.8076171875 12.451171875,22.08984375 13.7109375,21.826171875z M3.80859375,1.5234375L13.7109375,11.484375 23.671875,1.5234375 26.42578125,4.27734375 18.486328125,12.216796875 27.5390625,12.216796875 27.5390625,16.142578125 18.369140625,16.142578125 26.42578125,24.140625 23.671875,26.89453125 13.7109375,16.93359375 3.80859375,26.89453125 1.0546875,24.140625 9.08203125,16.142578125 0,16.142578125 0,12.216796875 8.994140625,12.216796875 1.0546875,4.27734375 3.80859375,1.5234375z M13.7109375,0L14.9853515625,0.263671875 16.0400390625,0.9814453125 16.7578125,2.0361328125 17.021484375,3.310546875 16.7578125,4.5849609375 16.0400390625,5.625 14.9853515625,6.328125 13.7109375,6.591796875 12.451171875,6.328125 11.42578125,5.625 10.72265625,4.5849609375 10.458984375,3.310546875 10.72265625,2.0361328125 11.42578125,0.9814453125 12.451171875,0.263671875 13.7109375,0z" />
    </g>
  </g>
</svg>