<?xml version="1.0" encoding="utf-8"?>
<!DOCTYPE svg PUBLIC "-//W3C//DTD SVG 1.1//EN" "http://www.w3.org/Graphics/SVG/1.1/DTD/svg11.dtd">
<svg width="15.9375" height="42.71484375" xmlns="http://www.w3.org/2000/svg" xmlns:xlink="http://www.w3.org/1999/xlink" xmlns:xml="http://www.w3.org/XML/1998/namespace" version="1.1">
  <g>
    <g>
      <path style="fill:#FF0000;fill-opacity:1" d="M7.85156202316284,2.958984375L6.40136671066284,3.22265625 5.28808546066284,3.955078125 4.58496046066284,5.0244140625 4.33593702316284,6.328125 4.58496046066284,7.6611328125 5.28808546066284,8.7744140625 6.40136671066284,9.55078125 7.85156202316284,9.84375 9.31640625,9.5654296875 10.4736328125,8.818359375 11.2353515625,7.7197265625 11.513671875,6.38671875 11.2353515625,5.0537109375 10.4736328125,3.955078125 9.31640625,3.22265625 7.85156202316284,2.958984375z M7.85156202316284,0L10.4150390625,0.498046875 12.4658203125,1.8603515625 13.8134765625,3.8818359375 14.296875,6.38671875 13.9306640625,8.5546875 12.9052734375,10.400390625 11.3525390625,11.7919921875 9.375,12.59765625 9.375,39.78515625 15.9375,39.78515625 15.9375,42.71484375 0,42.71484375 0,39.78515625 6.44531202316284,39.78515625 6.44531202316284,12.626953125 4.48242139816284,11.8359375 2.92968702316284,10.4736328125 1.91894483566284,8.642578125 1.55273389816284,6.4453125 2.05078077316284,3.9111328125 3.41308546066284,1.8603515625 5.41992139816284,0.498046875 7.85156202316284,0z" />
    </g>
  </g>
</svg>