<?xml version="1.0" encoding="utf-8"?>
<!DOCTYPE svg PUBLIC "-//W3C//DTD SVG 1.1//EN" "http://www.w3.org/Graphics/SVG/1.1/DTD/svg11.dtd">
<svg width="15.8203125" height="52.265625" xmlns="http://www.w3.org/2000/svg" xmlns:xlink="http://www.w3.org/1999/xlink" xmlns:xml="http://www.w3.org/XML/1998/namespace" version="1.1">
  <g>
    <g>
      <path style="fill:#FF0000;fill-opacity:1" d="M8.173828125,0L11.5576171875,0.6005859375 13.916015625,2.40234375 15.31494140625,5.2734375 15.8203125,9.08203125 11.89453125,9.08203125 11.693115234375,6.771240234375 11.0888671875,5.1708984375 10.037841796875,4.237060546875 8.49609375,3.92578125 7.10082960128784,4.21142578125 6.13769578933716,5.068359375 5.577392578125,6.45263671875 5.39062547683716,8.3203125 5.56640672683716,12.451171875 6.07910203933716,16.318359375 6.87011766433716,20.185546875 7.88085985183716,24.287109375 9.2578125,29.4287109375 10.5322265625,34.3359375 11.455078125,39.052734375 11.806640625,43.59375 11.2939453125,47.1240234375 9.7265625,49.86328125 7.06054735183716,51.6357421875 3.25195360183716,52.265625 1.58203172683716,52.1923828125 0,51.97265625 0,48.193359375 1.25976610183716,48.45703125 2.75390672683716,48.544921875 4.65820360183716,48.251953125 6.19628953933716,47.3583984375 7.22168016433716,45.8203125 7.58789110183716,43.59375 7.28027391433716,39.1845703125 6.45996141433716,34.6875 5.28808641433716,30.0146484375 3.95507860183716,25.048828125 2.90039110183716,20.9326171875 2.02148485183716,16.787109375 1.40625047683716,12.568359375 1.171875,8.203125 1.56738328933716,4.9072265625 2.81250047683716,2.2998046875 4.98046922683716,0.6005859375 8.173828125,0z" />
    </g>
  </g>
</svg>