<?xml version="1.0" encoding="UTF-8" standalone="no"?>
<!-- Created with Inkscape (http://www.inkscape.org/) -->

<svg
   xmlns:dc="http://purl.org/dc/elements/1.1/"
   xmlns:cc="http://creativecommons.org/ns#"
   xmlns:rdf="http://www.w3.org/1999/02/22-rdf-syntax-ns#"
   xmlns:svg="http://www.w3.org/2000/svg"
   xmlns="http://www.w3.org/2000/svg"
   xmlns:sodipodi="http://sodipodi.sourceforge.net/DTD/sodipodi-0.dtd"
   xmlns:inkscape="http://www.inkscape.org/namespaces/inkscape"
   version="1.1"
   id="svg2"
   width="20"
   height="30"
   viewBox="0 0 20 30"
   sodipodi:docname="Club.svg"
   inkscape:version="0.92.4 (5da689c313, 2019-01-14)">
  <metadata
     id="metadata8">
    <rdf:RDF>
      <cc:Work
         rdf:about="">
        <dc:format>image/svg+xml</dc:format>
        <dc:type
           rdf:resource="http://purl.org/dc/dcmitype/StillImage" />
        <dc:title></dc:title>
      </cc:Work>
    </rdf:RDF>
  </metadata>
  <defs
     id="defs6" />
  <sodipodi:namedview
     pagecolor="#ffffff"
     bordercolor="#666666"
     borderopacity="1"
     objecttolerance="10"
     gridtolerance="10"
     guidetolerance="10"
     inkscape:pageopacity="0"
     inkscape:pageshadow="2"
     inkscape:window-width="1920"
     inkscape:window-height="1001"
     id="namedview4"
     showgrid="false"
     inkscape:zoom="15.733333"
     inkscape:cx="5"
     inkscape:cy="7.5"
     inkscape:window-x="-9"
     inkscape:window-y="-9"
     inkscape:window-maximized="1"
     inkscape:current-layer="svg2" />
  <g
     id="g88"
     transform="scale(2)">
    <path
       style="fill:#000000;fill-opacity:0"
       d="M 0,0.5 V 0 H 0.5 1 1.5 2 2.5 3 3.5 4 4.5 5 5.5 6 6.5 7 7.5 8 8.5 9 9.5 10 V 0.5 1 1.5 2 2.5 3 3.5 4 4.5 5 5.5 6 6.5 7 7.5 8 8.5 9 9.5 10 10.5 11 11.5 12 12.5 13 13.5 14 14.5 15 H 9.5 9 8.5 8 7.5 7 6.5 6 5.5 5 4.5 4 3.5 3 2.5 2 1.5 1 0.5 0 V 14.5 14 13.5 13 12.5 12 11.5 11 10.5 10 9.5 9 8.5 8 7.5 7 6.5 6 5.5 5 l 0.375,0.125 q 0.375,0.125 0.5,0.5 L 1,6 1.125,6.375 Q 1.25,6.75 1.5,7 1.75,7.25 1.875,7.625 L 2,8 2.125,8.375 Q 2.25,8.75 2.5,9 2.75,9.25 3,9.5 3.25,9.75 3.625,9.875 L 4,10 4.375,10.125 q 0.375,0.125 0.5,0.5 L 5,11 5.125,11.375 Q 5.25,11.75 5.5,12 5.75,12.25 5.875,12.625 L 6,13 6.125,13.375 q 0.125,0.375 0.5,0.5 L 7,14 H 7.5 8 l 0.375,-0.125 q 0.375,-0.125 0.5,-0.5 L 9,13 8.875,12.625 Q 8.75,12.25 8.5,12 8.25,11.75 8.125,11.375 L 8,11 7.875,10.625 Q 7.75,10.25 7.5,10 7.25,9.75 7.125,9.375 L 7,9 V 8.5 8 7.5 7 L 6.875,6.625 Q 6.75,6.25 6.5,6 6.25,5.75 6.125,5.375 L 6,5 5.875,4.625 Q 5.75,4.25 5.5,4 5.25,3.75 5.125,3.375 L 5,3 4.875,2.625 Q 4.75,2.25 4.375,2.125 L 4,2 3.625,1.875 Q 3.25,1.75 3,1.5 2.75,1.25 2.5,1.25 2.25,1.25 2,1.5 1.75,1.75 1.375,1.875 L 1,2 H 0.5 0 V 1.5 1 0.5"
       id="path12"
       inkscape:connector-curvature="0" />
    <path
       style="fill:#ff0000;fill-opacity:0.24705882"
       d="M 2,1.5 Q 2.25,1.25 2.5,1.25 2.75,1.25 3,1.5 L 3.25,1.75 3.0625,1.5625 2.875,1.375 3,1.5 Q 3.125,1.625 3.28125,1.71875 L 3.4375,1.8125 3.359375,1.765625 3.28125,1.71875 3,2.03125 2.71875,2.34375 2.765625,2.390625 2.8125,2.4375 2.71875,2.34375 Q 2.625,2.25 2.5,2.25 H 2.375 2.5625 2.75 2.5 2.25 2.4375 2.625 2.5 q -0.125,0 -0.21875,0.09375 L 2.1875,2.4375 2.234375,2.390625 2.28125,2.34375 2,2.03125 1.71875,1.71875 1.640625,1.765625 1.5625,1.8125 1.71875,1.71875 Q 1.875,1.625 2,1.5 L 2.125,1.375 1.9375,1.5625 1.75,1.75 2,1.5"
       id="path14"
       inkscape:connector-curvature="0" />
    <path
       style="fill:#ff0000;fill-opacity:0.01568627"
       d="M 0,2.5 V 2 H 0.5 1 V 2.5 3 H 0.5 0 V 2.5"
       id="path16"
       inkscape:connector-curvature="0" />
    <path
       style="fill:#ff0000;fill-opacity:0.73333333"
       d="M 1,2.5 V 2 L 1.375,1.875 1.75,1.75 1.46875,1.84375 1.1875,1.9375 1.375,1.875 Q 1.5625,1.8125 1.71875,1.71875 L 1.875,1.625 1.796875,1.671875 1.71875,1.71875 2,2.03125 2.28125,2.34375 2.328125,2.296875 2.375,2.25 2.28125,2.34375 Q 2.1875,2.4375 2.125,2.625 L 2.0625,2.8125 2.15625,2.53125 2.25,2.25 2.125,2.625 2,3 H 1.5 1 V 2.5"
       id="path18"
       inkscape:connector-curvature="0" />
    <path
       style="fill:#ff0000;fill-opacity:1"
       d="M 2.125,2.625 Q 2.25,2.25 2.5,2.25 2.75,2.25 2.875,2.625 3,3 3.5,3 H 4 V 3.5 Q 4,4 4.375,4.125 4.75,4.25 4.875,4.625 L 5,5 V 5.5 Q 5,6 5.375,6.125 5.75,6.25 5.875,6.625 L 6,7 H 5.5 Q 5,7 5,7.5 V 8 H 4.5 4 3.5 3 V 7.5 Q 3,7 2.625,6.875 2.25,6.75 2.125,6.375 L 2,6 V 5.5 Q 2,5 1.625,4.875 1.25,4.75 1.125,4.375 L 1,4 H 1.5 Q 2,4 2,3.5 V 3 L 2.125,2.625"
       id="path20"
       inkscape:connector-curvature="0" />
    <path
       style="fill:#ff0000;fill-opacity:0.77647059"
       d="M 2.875,2.625 2.75,2.25 2.84375,2.53125 2.9375,2.8125 2.875,2.625 Q 2.8125,2.4375 2.71875,2.34375 L 2.625,2.25 2.671875,2.296875 2.71875,2.34375 3,2.03125 3.28125,1.71875 3.203125,1.671875 3.125,1.625 3.28125,1.71875 Q 3.4375,1.8125 3.625,1.875 L 3.8125,1.9375 3.53125,1.84375 3.25,1.75 3.625,1.875 4,2 V 2.5 3 H 3.5 Q 3,3 2.875,2.625"
       id="path22"
       inkscape:connector-curvature="0" />
    <path
       style="fill:#ff0000;fill-opacity:0.39215686"
       d="M 4,2.5 V 2 l 0.375,0.125 q 0.375,0.125 0.5,0.5 L 5,3 H 4.5 4 V 2.5"
       id="path24"
       inkscape:connector-curvature="0" />
    <path
       style="fill:#ff0000;fill-opacity:0.12941176"
       d="M 0,3.5 V 3 H 0.5 1 V 3.5 4 H 0.5 0 V 3.5"
       id="path26"
       inkscape:connector-curvature="0" />
    <path
       style="fill:#ff0000;fill-opacity:0.83137255"
       d="M 1,3.5 V 3 H 1.5 2 V 3.5 Q 2,4 1.5,4 H 1 V 3.5"
       id="path28"
       inkscape:connector-curvature="0" />
    <path
       style="fill:#ff0000;fill-opacity:0.84313725"
       d="M 4,3.5 V 3 H 4.5 5 L 5.125,3.375 5.25,3.75 5.15625,3.46875 5.0625,3.1875 5.125,3.375 Q 5.1875,3.5625 5.28125,3.71875 L 5.375,3.875 5.328125,3.796875 5.28125,3.71875 4.984375,4.015625 4.6875,4.3125 4.75,4.375 4.8125,4.4375 4.6875,4.3125 Q 4.5625,4.1875 4.375,4.125 L 4.1875,4.0625 4.46875,4.15625 4.75,4.25 4.375,4.125 Q 4,4 4,3.5"
       id="path30"
       inkscape:connector-curvature="0" />
    <path
       style="fill:#ff0000;fill-opacity:0.14117647"
       d="M 0,4.5 V 4 H 0.5 1 L 1.125,4.375 1.25,4.75 1.15625,4.46875 1.0625,4.1875 1.125,4.375 Q 1.1875,4.5625 1.3125,4.6875 L 1.4375,4.8125 1.375,4.75 1.3125,4.6875 1,5 0.6875,5.3125 0.75,5.375 0.8125,5.4375 0.6875,5.3125 Q 0.5625,5.1875 0.375,5.125 L 0.1875,5.0625 0.46875,5.15625 0.75,5.25 0.375,5.125 0,5 V 4.5"
       id="path32"
       inkscape:connector-curvature="0" />
    <path
       style="fill:#ff0000;fill-opacity:0.41176471"
       d="M 4.875,4.625 4.75,4.25 4.84375,4.53125 4.9375,4.8125 4.875,4.625 Q 4.8125,4.4375 4.6875,4.3125 L 4.5625,4.1875 4.625,4.25 4.6875,4.3125 4.984375,4.015625 5.28125,3.71875 5.234375,3.640625 5.1875,3.5625 5.28125,3.71875 Q 5.375,3.875 5.5,4 L 5.625,4.125 5.4375,3.9375 5.25,3.75 5.5,4 Q 5.75,4.25 5.875,4.625 L 6,5 H 5.5 5 L 4.875,4.625"
       id="path34"
       inkscape:connector-curvature="0" />
    <path
       style="fill:#ff0000;fill-opacity:0.57254902"
       d="M 0.875,5.625 0.75,5.25 0.84375,5.53125 0.9375,5.8125 0.875,5.625 Q 0.8125,5.4375 0.6875,5.3125 L 0.5625,5.1875 0.625,5.25 0.6875,5.3125 1,5 1.3125,4.6875 1.25,4.625 1.1875,4.5625 1.3125,4.6875 Q 1.4375,4.8125 1.625,4.875 L 1.8125,4.9375 1.53125,4.84375 1.25,4.75 1.625,4.875 Q 2,5 2,5.5 V 6 H 1.5 1 L 0.875,5.625"
       id="path36"
       inkscape:connector-curvature="0" />
    <path
       style="fill:#ff0000;fill-opacity:0.8627451"
       d="M 5,5.5 V 5 H 5.5 6 L 6.125,5.375 6.25,5.75 6.15625,5.46875 6.0625,5.1875 6.125,5.375 Q 6.1875,5.5625 6.28125,5.71875 L 6.375,5.875 6.328125,5.796875 6.28125,5.71875 5.984375,6.015625 5.6875,6.3125 5.75,6.375 5.8125,6.4375 5.6875,6.3125 Q 5.5625,6.1875 5.375,6.125 L 5.1875,6.0625 5.46875,6.15625 5.75,6.25 5.375,6.125 Q 5,6 5,5.5"
       id="path38"
       inkscape:connector-curvature="0" />
    <path
       style="fill:#ff0000;fill-opacity:0.11764706"
       d="M 1.125,6.375 1,6 H 1.5 2 L 2.125,6.375 2.25,6.75 2.15625,6.46875 2.0625,6.1875 2.125,6.375 Q 2.1875,6.5625 2.3125,6.6875 L 2.4375,6.8125 2.375,6.75 2.3125,6.6875 2.015625,6.984375 1.71875,7.28125 1.765625,7.359375 1.8125,7.4375 1.71875,7.28125 Q 1.625,7.125 1.5,7 L 1.375,6.875 1.5625,7.0625 1.75,7.25 1.5,7 Q 1.25,6.75 1.125,6.375"
       id="path40"
       inkscape:connector-curvature="0" />
    <path
       style="fill:#ff0000;fill-opacity:0.43137255"
       d="M 5.875,6.625 5.75,6.25 5.84375,6.53125 5.9375,6.8125 5.875,6.625 Q 5.8125,6.4375 5.6875,6.3125 L 5.5625,6.1875 5.625,6.25 5.6875,6.3125 5.984375,6.015625 6.28125,5.71875 6.234375,5.640625 6.1875,5.5625 6.28125,5.71875 Q 6.375,5.875 6.5,6 L 6.625,6.125 6.4375,5.9375 6.25,5.75 6.5,6 Q 6.75,6.25 6.875,6.625 L 7,7 H 6.5 6 L 5.875,6.625"
       id="path42"
       inkscape:connector-curvature="0" />
    <path
       style="fill:#ff0000;fill-opacity:0.55294118"
       d="M 1.875,7.625 1.75,7.25 1.84375,7.53125 1.9375,7.8125 1.875,7.625 Q 1.8125,7.4375 1.71875,7.28125 L 1.625,7.125 1.671875,7.203125 1.71875,7.28125 2.015625,6.984375 2.3125,6.6875 2.25,6.625 2.1875,6.5625 2.3125,6.6875 Q 2.4375,6.8125 2.625,6.875 L 2.8125,6.9375 2.53125,6.84375 2.25,6.75 2.625,6.875 Q 3,7 3,7.5 V 8 H 2.5 2 L 1.875,7.625"
       id="path44"
       inkscape:connector-curvature="0" />
    <path
       style="fill:#ff0000;fill-opacity:0.98823529"
       d="M 5,7.5 Q 5,7 5.5,7 H 6 V 7.5 8 H 5.5 5 V 7.5"
       id="path46"
       inkscape:connector-curvature="0" />
    <path
       style="fill:#ff0000;fill-opacity:0.43529412"
       d="M 6,7.5 V 7 H 6.5 7 V 7.5 8 H 6.5 6 V 7.5"
       id="path48"
       inkscape:connector-curvature="0" />
    <path
       style="fill:#ff0000;fill-opacity:0.09803922"
       d="M 2.125,8.375 2,8 H 2.5 3 L 3.125,8.375 3.25,8.75 3.15625,8.46875 3.0625,8.1875 3.125,8.375 Q 3.1875,8.5625 3.3125,8.6875 L 3.4375,8.8125 3.375,8.75 3.3125,8.6875 3.03125,8.96875 2.75,9.25 2.5,9 Q 2.25,8.75 2.125,8.375 M 2.5625,9.0625 2.75,9.25 2.8125,9.3125 2.875,9.375 2.75,9.25 Q 2.625,9.125 2.5,9 L 2.375,8.875 2.5625,9.0625"
       id="path50"
       inkscape:connector-curvature="0" />
    <path
       style="fill:#ff0000;fill-opacity:0.95686275"
       d="M 3.125,8.375 3,8 H 3.5 4 V 8.5 9 L 3.625,8.875 Q 3.25,8.75 3.125,8.375"
       id="path52"
       inkscape:connector-curvature="0" />
    <path
       style="fill:#ff0000;fill-opacity:0.94117647"
       d="M 4,8.5 V 8 H 4.5 5 V 8.5 9 H 4.5 4 V 8.5"
       id="path54"
       inkscape:connector-curvature="0" />
    <path
       style="fill:#ff0000;fill-opacity:1"
       d="M 5,8.5 V 8 H 5.5 6 V 8.5 9 9.5 10 L 5.625,9.875 Q 5.25,9.75 5.125,9.375 L 5,9 V 8.5"
       id="path56"
       inkscape:connector-curvature="0" />
    <path
       style="fill:#ff0000;fill-opacity:0.34117647"
       d="M 6,8.5 V 8 H 6.5 7 V 8.5 9 H 6.5 6 V 8.5"
       id="path58"
       inkscape:connector-curvature="0" />
    <path
       style="fill:#ff0000;fill-opacity:0.04313725"
       d="M 3,9.5 2.75,9.25 3.03125,8.96875 3.3125,8.6875 3.25,8.625 3.1875,8.5625 3.3125,8.6875 Q 3.4375,8.8125 3.625,8.875 L 3.8125,8.9375 3.53125,8.84375 3.25,8.75 3.625,8.875 4,9 V 9.5 10 L 3.625,9.875 Q 3.25,9.75 3,9.5 M 2.6875,9.1875 2.75,9.25 2.9375,9.4375 3.125,9.625 3,9.5 Q 2.875,9.375 2.75,9.25 L 2.625,9.125 2.6875,9.1875"
       id="path60"
       inkscape:connector-curvature="0" />
    <path
       style="fill:#ff0000;fill-opacity:0.42745098"
       d="M 4,9.5 V 9 H 4.5 5 L 5.125,9.375 5.25,9.75 5.15625,9.46875 5.0625,9.1875 5.125,9.375 Q 5.1875,9.5625 5.3125,9.6875 L 5.4375,9.8125 5.375,9.75 5.3125,9.6875 5,10 4.6875,10.3125 4.75,10.375 4.8125,10.4375 4.6875,10.3125 Q 4.5625,10.1875 4.375,10.125 L 4.1875,10.0625 4.46875,10.15625 4.75,10.25 4.375,10.125 4,10 V 9.5"
       id="path62"
       inkscape:connector-curvature="0" />
    <path
       style="fill:#ff0000;fill-opacity:0.79215686"
       d="M 6,9.5 V 9 H 6.5 7 L 7.125,9.375 7.25,9.75 7.15625,9.46875 7.0625,9.1875 7.125,9.375 Q 7.1875,9.5625 7.28125,9.71875 L 7.375,9.875 7.328125,9.796875 7.28125,9.71875 6.984375,10.015625 6.6875,10.3125 6.75,10.375 6.8125,10.4375 6.6875,10.3125 Q 6.5625,10.1875 6.375,10.125 L 6.1875,10.0625 6.46875,10.15625 6.75,10.25 6.375,10.125 6,10 V 9.5"
       id="path64"
       inkscape:connector-curvature="0" />
    <path
       style="fill:#ff0000;fill-opacity:0.85882353"
       d="M 4.875,10.625 4.75,10.25 4.84375,10.53125 4.9375,10.8125 4.875,10.625 Q 4.8125,10.4375 4.6875,10.3125 L 4.5625,10.1875 4.625,10.25 4.6875,10.3125 5,10 5.3125,9.6875 5.25,9.625 5.1875,9.5625 5.3125,9.6875 Q 5.4375,9.8125 5.625,9.875 L 5.8125,9.9375 5.53125,9.84375 5.25,9.75 5.625,9.875 6,10 V 10.5 11 H 5.5 5 L 4.875,10.625"
       id="path66"
       inkscape:connector-curvature="0" />
    <path
       style="fill:#ff0000;fill-opacity:1"
       d="M 6,10.5 V 10 l 0.375,0.125 q 0.375,0.125 0.5,0.5 L 7,11 V 11.5 12 L 6.625,11.875 Q 6.25,11.75 6.125,11.375 L 6,11 v -0.5"
       id="path68"
       inkscape:connector-curvature="0" />
    <path
       style="fill:#ff0000;fill-opacity:0.36078431"
       d="M 6.875,10.625 6.75,10.25 6.84375,10.53125 6.9375,10.8125 6.875,10.625 Q 6.8125,10.4375 6.6875,10.3125 L 6.5625,10.1875 6.625,10.25 6.6875,10.3125 6.984375,10.015625 7.28125,9.71875 7.234375,9.640625 7.1875,9.5625 7.28125,9.71875 Q 7.375,9.875 7.5,10 L 7.625,10.125 7.4375,9.9375 7.25,9.75 7.5,10 q 0.25,0.25 0.375,0.625 L 8,11 H 7.5 7 L 6.875,10.625"
       id="path70"
       inkscape:connector-curvature="0" />
    <path
       style="fill:#ff0000;fill-opacity:0.40784314"
       d="M 5.125,11.375 5,11 H 5.5 6 L 6.125,11.375 6.25,11.75 6.15625,11.46875 6.0625,11.1875 6.125,11.375 q 0.0625,0.1875 0.1875,0.3125 l 0.125,0.125 L 6.375,11.75 6.3125,11.6875 6.015625,11.984375 5.71875,12.28125 5.765625,12.359375 5.8125,12.4375 5.71875,12.28125 Q 5.625,12.125 5.5,12 L 5.375,11.875 5.5625,12.0625 5.75,12.25 5.5,12 Q 5.25,11.75 5.125,11.375"
       id="path72"
       inkscape:connector-curvature="0" />
    <path
       style="fill:#ff0000;fill-opacity:0.81176471"
       d="M 7,11.5 V 11 H 7.5 8 L 8.125,11.375 8.25,11.75 8.15625,11.46875 8.0625,11.1875 8.125,11.375 q 0.0625,0.1875 0.15625,0.34375 L 8.375,11.875 8.328125,11.796875 8.28125,11.71875 7.984375,12.015625 7.6875,12.3125 7.75,12.375 7.8125,12.4375 7.6875,12.3125 Q 7.5625,12.1875 7.375,12.125 L 7.1875,12.0625 7.46875,12.15625 7.75,12.25 7.375,12.125 7,12 v -0.5"
       id="path74"
       inkscape:connector-curvature="0" />
    <path
       style="fill:#ff0000;fill-opacity:0.83921569"
       d="M 5.875,12.625 5.75,12.25 5.84375,12.53125 5.9375,12.8125 5.875,12.625 Q 5.8125,12.4375 5.71875,12.28125 L 5.625,12.125 5.671875,12.203125 5.71875,12.28125 6.015625,11.984375 6.3125,11.6875 6.25,11.625 6.1875,11.5625 l 0.125,0.125 q 0.125,0.125 0.3125,0.1875 L 6.8125,11.9375 6.53125,11.84375 6.25,11.75 6.625,11.875 7,12 V 12.5 13 H 6.5 6 L 5.875,12.625"
       id="path76"
       inkscape:connector-curvature="0" />
    <path
       style="fill:#ff0000;fill-opacity:1"
       d="M 7,12.5 V 12 l 0.375,0.125 q 0.375,0.125 0.5,0.5 L 8,13 H 7.5 7 v -0.5"
       id="path78"
       inkscape:connector-curvature="0" />
    <path
       style="fill:#ff0000;fill-opacity:0.38039216"
       d="M 7.875,12.625 7.75,12.25 7.84375,12.53125 7.9375,12.8125 7.875,12.625 Q 7.8125,12.4375 7.6875,12.3125 L 7.5625,12.1875 7.625,12.25 7.6875,12.3125 7.984375,12.015625 8.28125,11.71875 8.234375,11.640625 8.1875,11.5625 8.28125,11.71875 Q 8.375,11.875 8.5,12 L 8.625,12.125 8.4375,11.9375 8.25,11.75 8.5,12 q 0.25,0.25 0.375,0.625 L 9,13 H 8.5 8 L 7.875,12.625"
       id="path80"
       inkscape:connector-curvature="0" />
    <path
       style="fill:#ff0000;fill-opacity:0.38823529"
       d="M 6.125,13.375 6,13 H 6.5 7 V 13.5 14 L 6.625,13.875 q -0.375,-0.125 -0.5,-0.5"
       id="path82"
       inkscape:connector-curvature="0" />
    <path
       style="fill:#ff0000;fill-opacity:0.69411765"
       d="M 7,13.5 V 13 H 7.5 8 V 13.5 14 H 7.5 7 v -0.5"
       id="path84"
       inkscape:connector-curvature="0" />
    <path
       style="fill:#ff0000;fill-opacity:0.2"
       d="M 8,13.5 V 13 H 8.5 9 l -0.125,0.375 q -0.125,0.375 -0.5,0.5 L 8,14 v -0.5"
       id="path86"
       inkscape:connector-curvature="0" />
  </g>
</svg>
