<?xml version="1.0" encoding="UTF-8" standalone="no"?>
<!-- Created with Inkscape (http://www.inkscape.org/) -->

<svg
   xmlns:dc="http://purl.org/dc/elements/1.1/"
   xmlns:cc="http://creativecommons.org/ns#"
   xmlns:rdf="http://www.w3.org/1999/02/22-rdf-syntax-ns#"
   xmlns:svg="http://www.w3.org/2000/svg"
   xmlns="http://www.w3.org/2000/svg"
   xmlns:sodipodi="http://sodipodi.sourceforge.net/DTD/sodipodi-0.dtd"
   xmlns:inkscape="http://www.inkscape.org/namespaces/inkscape"
   version="1.1"
   id="svg2"
   width="20"
   height="30"
   viewBox="0 0 20 30"
   sodipodi:docname="Crown.svg"
   inkscape:version="0.92.4 (5da689c313, 2019-01-14)">
  <metadata
     id="metadata8">
    <rdf:RDF>
      <cc:Work
         rdf:about="">
        <dc:format>image/svg+xml</dc:format>
        <dc:type
           rdf:resource="http://purl.org/dc/dcmitype/StillImage" />
        <dc:title></dc:title>
      </cc:Work>
    </rdf:RDF>
  </metadata>
  <defs
     id="defs6" />
  <sodipodi:namedview
     pagecolor="#ffffff"
     bordercolor="#666666"
     borderopacity="1"
     objecttolerance="10"
     gridtolerance="10"
     guidetolerance="10"
     inkscape:pageopacity="0"
     inkscape:pageshadow="2"
     inkscape:window-width="1920"
     inkscape:window-height="1001"
     id="namedview4"
     showgrid="false"
     inkscape:zoom="15.733333"
     inkscape:cx="5"
     inkscape:cy="7.5"
     inkscape:window-x="-9"
     inkscape:window-y="-9"
     inkscape:window-maximized="1"
     inkscape:current-layer="svg2" />
  <g
     id="g20"
     transform="scale(2)">
    <path
       style="fill:#000000;fill-opacity:0"
       d="M 0,0.5 V 0 H 0.5 1 1.5 2 2.5 3 3.5 4 4.5 5 5.5 6 6.5 7 7.5 8 8.5 9 9.5 10 V 0.5 1 1.5 2 2.5 3 L 9.625,3.125 Q 9.25,3.25 9,3.5 8.75,3.75 8.5,4 8.25,4.25 8,4.5 7.75,4.75 7.5,4.75 7.25,4.75 7,4.5 6.75,4.25 6.5,4 6.25,3.75 6,3.5 5.75,3.25 5.375,3.125 5,3 4.625,3.125 4.25,3.25 4,3.5 3.75,3.75 3.5,4 3.25,4.25 3,4.5 2.75,4.75 2.5,4.75 2.25,4.75 2,4.5 1.75,4.25 1.5,4 1.25,3.75 1,3.5 0.75,3.25 0.375,3.125 L 0,3 V 2.5 2 1.5 1 0.5"
       id="path12"
       inkscape:connector-curvature="0" />
    <path
       style="fill:#ff0000;fill-opacity:1"
       d="M 0,3.5 V 3 L 0.375,3.125 Q 0.75,3.25 1,3.5 1.25,3.75 1.5,4 1.75,4.25 2,4.5 2.25,4.75 2.5,4.75 2.75,4.75 3,4.5 3.25,4.25 3.5,4 3.75,3.75 4,3.5 4.25,3.25 4.625,3.125 5,3 5.375,3.125 5.75,3.25 6,3.5 6.25,3.75 6.5,4 6.75,4.25 7,4.5 7.25,4.75 7.5,4.75 7.75,4.75 8,4.5 8.25,4.25 8.5,4 8.75,3.75 9,3.5 9.25,3.25 9.625,3.125 L 10,3 V 3.5 4 L 9.625,4.125 Q 9.25,4.25 9,4.5 8.75,4.75 8.5,5 8.25,5.25 8.125,5.625 8,6 8,6.5 8,7 8,7.5 8,8 7.875,8.375 7.75,8.75 7.5,9 7.25,9.25 7.125,9.625 7,10 6.875,10.375 6.75,10.75 6.375,10.875 L 6,11 6.28125,10.90625 6.5625,10.8125 6.375,10.875 Q 6.1875,10.9375 5.96875,10.96875 L 5.75,11 5.859375,10.984375 5.96875,10.96875 5.984375,10.484375 Q 6,10 6,9.5 6,9 6.125,8.625 6.25,8.25 6.5,8 6.75,7.75 6.875,7.375 7,7 6.875,6.625 6.75,6.25 6.5,6 6.25,5.75 6,5.5 5.75,5.25 5.375,5.125 5,5 4.625,5.125 4.25,5.25 4,5.5 3.75,5.75 3.5,6 3.25,6.25 3.125,6.625 3,7 3.125,7.375 3.25,7.75 3.5,8 3.75,8.25 3.875,8.625 4,9 4,9.5 4,10 4.015625,10.484375 L 4.03125,10.96875 4.140625,10.984375 4.25,11 4.03125,10.96875 Q 3.8125,10.9375 3.625,10.875 L 3.4375,10.8125 3.71875,10.90625 4,11 3.625,10.875 Q 3.25,10.75 3.125,10.375 3,10 2.875,9.625 2.75,9.25 2.5,9 2.25,8.75 2.125,8.375 2,8 2,7.5 2,7 2,6.5 2,6 1.875,5.625 1.75,5.25 1.5,5 1.25,4.75 1,4.5 0.75,4.25 0.375,4.125 L 0,4 V 3.5"
       id="path14"
       inkscape:connector-curvature="0" />
    <path
       style="fill:#000000;fill-opacity:0"
       d="M 0,4.5 V 4 L 0.375,4.125 Q 0.75,4.25 1,4.5 1.25,4.75 1.5,5 1.75,5.25 1.875,5.625 2,6 2,6.5 2,7 2,7.5 2,8 2.125,8.375 2.25,8.75 2.5,9 2.75,9.25 2.875,9.625 3,10 3.125,10.375 3.25,10.75 3.625,10.875 4,11 4.5,11 5,11 5.5,11 6,11 6.375,10.875 6.75,10.75 6.875,10.375 7,10 7.125,9.625 7.25,9.25 7.5,9 7.75,8.75 7.875,8.375 8,8 8,7.5 8,7 8,6.5 8,6 8.125,5.625 8.25,5.25 8.5,5 8.75,4.75 9,4.5 9.25,4.25 9.625,4.125 L 10,4 V 4.5 5 5.5 6 6.5 7 7.5 8 8.5 9 9.5 10 10.5 11 11.5 12 12.5 13 13.5 14 14.5 15 H 9.5 9 8.5 8 7.5 7 6.5 6 5.5 5 4.5 4 3.5 3 2.5 2 1.5 1 0.5 0 V 14.5 14 13.5 13 12.5 12 11.5 11 10.5 10 9.5 9 8.5 8 7.5 7 6.5 6 5.5 5 4.5"
       id="path16"
       inkscape:connector-curvature="0" />
    <path
       style="fill:#820000;fill-opacity:1"
       d="M 4,5.5 Q 4.25,5.25 4.625,5.125 5,5 5.375,5.125 5.75,5.25 6,5.5 6.25,5.75 6.5,6 6.75,6.25 6.875,6.625 7,7 6.875,7.375 6.75,7.75 6.5,8 6.25,8.25 6.125,8.625 6,9 6,9.5 6,10 5.984375,10.484375 L 5.96875,10.96875 6.078125,10.953125 6.1875,10.9375 5.96875,10.96875 Q 5.75,11 5.5,11 H 5.25 5.625 6 5.5 Q 5,11 4.5,11 H 4 4.375 4.75 4.5 Q 4.25,11 4.03125,10.96875 L 3.8125,10.9375 3.921875,10.953125 4.03125,10.96875 4.015625,10.484375 Q 4,10 4,9.5 4,9 3.875,8.625 3.75,8.25 3.5,8 3.25,7.75 3.125,7.375 3,7 3.125,6.625 3.25,6.25 3.5,6 3.75,5.75 4,5.5"
       id="path18"
       inkscape:connector-curvature="0" />
  </g>
</svg>
