<?xml version="1.0" encoding="UTF-8" standalone="no"?>
<!-- Created with Inkscape (http://www.inkscape.org/) -->

<svg
   xmlns:dc="http://purl.org/dc/elements/1.1/"
   xmlns:cc="http://creativecommons.org/ns#"
   xmlns:rdf="http://www.w3.org/1999/02/22-rdf-syntax-ns#"
   xmlns:svg="http://www.w3.org/2000/svg"
   xmlns="http://www.w3.org/2000/svg"
   xmlns:sodipodi="http://sodipodi.sourceforge.net/DTD/sodipodi-0.dtd"
   xmlns:inkscape="http://www.inkscape.org/namespaces/inkscape"
   version="1.1"
   id="svg2"
   width="20"
   height="30"
   viewBox="0 0 20 30"
   sodipodi:docname="Earth.svg"
   inkscape:version="0.92.4 (5da689c313, 2019-01-14)">
  <metadata
     id="metadata8">
    <rdf:RDF>
      <cc:Work
         rdf:about="">
        <dc:format>image/svg+xml</dc:format>
        <dc:type
           rdf:resource="http://purl.org/dc/dcmitype/StillImage" />
        <dc:title></dc:title>
      </cc:Work>
    </rdf:RDF>
  </metadata>
  <defs
     id="defs6" />
  <sodipodi:namedview
     pagecolor="#ffffff"
     bordercolor="#666666"
     borderopacity="1"
     objecttolerance="10"
     gridtolerance="10"
     guidetolerance="10"
     inkscape:pageopacity="0"
     inkscape:pageshadow="2"
     inkscape:window-width="1920"
     inkscape:window-height="1001"
     id="namedview4"
     showgrid="false"
     inkscape:zoom="15.733333"
     inkscape:cx="5"
     inkscape:cy="7.5"
     inkscape:window-x="-9"
     inkscape:window-y="-9"
     inkscape:window-maximized="1"
     inkscape:current-layer="svg2" />
  <g
     id="g36"
     transform="scale(2)">
    <path
       style="fill:#000000;fill-opacity:0"
       d="M 0,0.5 V 0 H 0.5 1 1.5 2 2.5 3 3.5 4 4.5 5 5.5 6 6.5 7 7.5 8 8.5 9 9.5 10 V 0.5 1 1.5 2 2.5 3 3.5 4 4.5 5 5.5 6 6.5 7 7.5 8 8.5 9 9.5 10 10.5 11 11.5 12 L 9.625,11.875 Q 9.25,11.75 9,11.5 8.75,11.25 8.5,11 8.25,10.75 8.125,10.375 8,10 7.875,9.625 7.75,9.25 7.5,9 7.25,8.75 7.125,8.375 7,8 6.875,7.625 6.75,7.25 6.5,7 6.25,6.75 6.125,6.375 6,6 5.875,5.625 5.75,5.25 5.34375,5.125 L 4.9375,5 V 5.09375 5.1875 5 q 0,-0.1875 -0.0625,-0.375 L 4.8125,4.4375 4.90625,4.71875 5,5 4.875,4.625 Q 4.75,4.25 4.5,4.25 4.25,4.25 4,4.5 3.75,4.75 3.5,5 3.25,5.25 3.125,5.625 3,6 2.875,6.375 2.75,6.75 2.5,7 2.25,7.25 2.125,7.625 2,8 1.875,8.375 1.75,8.75 1.5,9 1.25,9.25 1.125,9.625 1,10 1,10.5 1,11 0.875,11.375 0.75,11.75 0.375,11.875 L 0,12 V 11.5 11 10.5 10 9.5 9 8.5 8 7.5 7 6.5 6 5.5 5 4.5 4 3.5 3 2.5 2 1.5 1 0.5"
       id="path12"
       inkscape:connector-curvature="0" />
    <path
       style="fill:#7f3300;fill-opacity:1"
       d="M 4,4.5 Q 4.25,4.25 4.5,4.25 4.75,4.25 4.875,4.625 5,5 4.875,5.375 4.75,5.75 4.5,6 4.25,6.25 4.125,6.625 4,7 4.125,7.375 4.25,7.75 4.5,8 4.75,8.25 4.875,8.625 L 5,9 4.90625,8.71875 4.8125,8.4375 4.875,8.625 Q 4.9375,8.8125 4.96875,9.03125 L 5,9.25 4.984375,9.140625 4.96875,9.03125 4.609375,9.140625 Q 4.25,9.25 4.125,9.625 4,10 3.875,10.375 3.75,10.75 3.5,11 3.25,11.25 3.125,11.625 3,12 3.125,12.375 L 3.25,12.75 3.15625,12.46875 3.0625,12.1875 3.125,12.375 q 0.0625,0.1875 0.1875,0.3125 l 0.125,0.125 L 3.375,12.75 3.3125,12.6875 3.03125,12.96875 Q 2.75,13.25 2.375,13.125 L 2,13 V 12.5 Q 2,12 1.625,12.125 1.25,12.25 0.96875,11.96875 L 0.6875,11.6875 0.625,11.75 0.5625,11.8125 0.6875,11.6875 Q 0.8125,11.5625 0.875,11.375 L 0.9375,11.1875 0.84375,11.46875 0.75,11.75 0.875,11.375 Q 1,11 1,10.5 1,10 1.125,9.625 1.25,9.25 1.5,9 1.75,8.75 1.875,8.375 2,8 2.125,7.625 2.25,7.25 2.5,7 2.75,6.75 2.875,6.375 3,6 3.125,5.625 3.25,5.25 3.5,5 3.75,4.75 4,4.5"
       id="path14"
       inkscape:connector-curvature="0" />
    <path
       style="fill:#c44e00;fill-opacity:1"
       d="M 4.875,5.375 5,5 4.90625,5.28125 4.8125,5.5625 4.875,5.375 Q 4.9375,5.1875 4.9375,5 V 4.8125 4.90625 5 L 5.34375,5.125 Q 5.75,5.25 5.875,5.625 6,6 6.125,6.375 6.25,6.75 6.5,7 6.75,7.25 6.875,7.625 7,8 7.125,8.375 7.25,8.75 7.5,9 7.75,9.25 7.875,9.625 8,10 8.125,10.375 8.25,10.75 8.5,11 8.75,11.25 9,11.5 9.25,11.75 9.625,11.875 L 10,12 V 12.5 13 13.5 14 L 9.625,14.125 Q 9.25,14.25 8.953125,13.984375 L 8.65625,13.71875 8.609375,13.765625 8.5625,13.8125 8.65625,13.71875 Q 8.75,13.625 8.75,13.5 V 13.375 13.5625 13.75 13.5 q 0,-0.25 -0.375,-0.375 L 8,13 8.28125,13.09375 8.5625,13.1875 8.375,13.125 Q 8.1875,13.0625 8,13.0625 H 7.8125 7.90625 8 L 7.875,12.65625 Q 7.75,12.25 7.5,12 7.25,11.75 7.125,11.375 7,11 6.875,10.625 6.75,10.25 6.5,10.25 6.25,10.25 6.125,10.625 6,11 6,11.5 6,12 6,12.5 V 13 H 5.5 5 L 4.875,12.625 Q 4.75,12.25 4.5,12 4.25,11.75 4.25,11.5 4.25,11.25 4.5,11 4.75,10.75 4.875,10.375 5,10 5,9.5 5,9 4.875,8.625 4.75,8.25 4.5,8 4.25,7.75 4.125,7.375 4,7 4.125,6.625 4.25,6.25 4.5,6 4.75,5.75 4.875,5.375 m 0,7.625 H 5 5.375 5.75 5.5 Q 5.25,13 5,13 H 4.75 4.875 M 6,13.125 V 13 12.625 12.25 12.5 q 0,0.25 0,0.5 v 0.25 -0.125"
       id="path16"
       inkscape:connector-curvature="0" />
    <path
       style="fill:#6b2a00;fill-opacity:1"
       d="M 4.125,9.625 Q 4.25,9.25 4.609375,9.140625 L 4.96875,9.03125 4.953125,8.921875 4.9375,8.8125 4.96875,9.03125 Q 5,9.25 5,9.5 V 9.75 9.375 9 9.5 Q 5,10 4.875,10.375 4.75,10.75 4.5,11 q -0.25,0.25 -0.25,0.5 0,0.25 0.25,0.5 0.25,0.25 0.375,0.625 L 5,13 H 4.5 Q 4,13 3.625,12.875 3.25,12.75 3.125,12.375 3,12 3.125,11.625 3.25,11.25 3.5,11 3.75,10.75 3.875,10.375 4,10 4.125,9.625 M 4.625,13 H 5 5.125 5.25 5 Q 4.75,13 4.5,13 H 4.25 4.625"
       id="path18"
       inkscape:connector-curvature="0" />
    <path
       style="fill:#6b2a00;fill-opacity:1"
       d="M 6.125,10.625 Q 6.25,10.25 6.5,10.25 q 0.25,0 0.375,0.375 Q 7,11 7.125,11.375 7.25,11.75 7.5,12 7.75,12.25 7.875,12.65625 L 8,13.0625 H 8.09375 8.1875 8 q -0.1875,0 -0.375,0.0625 L 7.4375,13.1875 7.71875,13.09375 8,13 7.625,13.125 q -0.375,0.125 -0.5,0.5 L 7,14 H 6.5 6 6.375 6.75 6.5 Q 6.25,14 6.03125,14.03125 L 5.8125,14.0625 5.921875,14.046875 6.03125,14.03125 6.015625,13.515625 Q 6,13 6,12.5 6,12 6,11.5 6,11 6.125,10.625 M 6.625,14 H 7 7.125 7.25 7 Q 6.75,14 6.5,14 H 6.25 6.625"
       id="path20"
       inkscape:connector-curvature="0" />
    <path
       style="fill:#823400;fill-opacity:1"
       d="M 0,12.5 V 12 L 0.375,11.875 0.75,11.75 0.46875,11.84375 0.1875,11.9375 0.375,11.875 Q 0.5625,11.8125 0.6875,11.6875 L 0.8125,11.5625 0.75,11.625 0.6875,11.6875 0.96875,11.96875 Q 1.25,12.25 1.625,12.125 2,12 2,12.5 V 13 L 1.625,12.875 Q 1.25,12.75 0.953125,13.015625 L 0.65625,13.28125 0.703125,13.328125 0.75,13.375 0.65625,13.28125 Q 0.5625,13.1875 0.375,13.125 L 0.1875,13.0625 0.46875,13.15625 0.75,13.25 0.375,13.125 0,13 v -0.5"
       id="path22"
       inkscape:connector-curvature="0" />
    <path
       style="fill:#b54800;fill-opacity:1"
       d="M 0,13.5 V 13 l 0.375,0.125 Q 0.75,13.25 0.75,13.5 q 0,0.25 -0.375,0.375 L 0,14 v -0.5"
       id="path24"
       inkscape:connector-curvature="0" />
    <path
       style="fill:#7f3300;fill-opacity:1"
       d="M 0.75,13.5 V 13.25 13.4375 13.625 13.5 q 0,-0.125 -0.09375,-0.21875 L 0.5625,13.1875 0.609375,13.234375 0.65625,13.28125 0.953125,13.015625 Q 1.25,12.75 1.625,12.875 L 2,13 v 0.5 Q 2,14 1.625,14.125 1.25,14.25 0.953125,13.984375 L 0.65625,13.71875 0.609375,13.765625 0.5625,13.8125 0.65625,13.71875 Q 0.75,13.625 0.75,13.5 V 13.375 13.5625 13.75 13.5"
       id="path26"
       inkscape:connector-curvature="0" />
    <path
       style="fill:#823400;fill-opacity:1"
       d="M 2,13.5 V 13 l 0.375,0.125 Q 2.75,13.25 3.03125,12.96875 L 3.3125,12.6875 3.25,12.625 3.1875,12.5625 l 0.125,0.125 q 0.125,0.125 0.3125,0.1875 L 3.8125,12.9375 3.53125,12.84375 3.25,12.75 3.625,12.875 Q 4,13 4.5,13 5,13 5.5,13 H 6 L 6.015625,13.515625 6.03125,14.03125 6.140625,14.015625 6.25,14 6.03125,14.03125 Q 5.8125,14.0625 5.625,14.125 L 5.4375,14.1875 5.71875,14.09375 6,14 5.625,14.125 q -0.375,0.125 -0.5,0.5 L 5,15 H 4.5 4 L 3.875,14.625 Q 3.75,14.25 3.5,14.25 q -0.25,0 -0.375,0.375 L 3,15 H 2.5 2 1.5 1 0.5 0 V 14.5 14 L 0.375,13.875 0.75,13.75 0.46875,13.84375 0.1875,13.9375 0.375,13.875 Q 0.5625,13.8125 0.65625,13.71875 L 0.75,13.625 0.703125,13.671875 0.65625,13.71875 0.953125,13.984375 Q 1.25,14.25 1.625,14.125 2,14 2,13.5 M 6,13.375 V 13 12.875 12.75 13 q 0,0.25 0,0.5 v 0.25 -0.375"
       id="path28"
       inkscape:connector-curvature="0" />
    <path
       style="fill:#7f3300;fill-opacity:1"
       d="M 7.125,13.625 Q 7.25,13.25 7.625,13.125 8,13 8.375,13.125 8.75,13.25 8.75,13.5 8.75,13.75 8.375,13.875 8,14 7.5,14 H 7 L 7.125,13.625 M 6.875,14 H 7 7.375 7.75 7.5 Q 7.25,14 7,14 H 6.75 6.875"
       id="path30"
       inkscape:connector-curvature="0" />
    <path
       style="fill:#6b2a00;fill-opacity:1"
       d="M 3.125,14.625 Q 3.25,14.25 3.5,14.25 q 0.25,0 0.375,0.375 L 4,15 H 3.5 3 l 0.125,-0.375"
       id="path32"
       inkscape:connector-curvature="0" />
    <path
       style="fill:#b54800;fill-opacity:1"
       d="M 5.125,14.625 Q 5.25,14.25 5.625,14.125 6,14 6.5,14 7,14 7.5,14 8,14 8.375,13.875 L 8.75,13.75 8.46875,13.84375 8.1875,13.9375 8.375,13.875 Q 8.5625,13.8125 8.65625,13.71875 L 8.75,13.625 8.703125,13.671875 8.65625,13.71875 8.953125,13.984375 Q 9.25,14.25 9.625,14.125 L 10,14 V 14.5 15 H 9.5 9 8.5 8 7.5 7 6.5 6 5.5 5 l 0.125,-0.375"
       id="path34"
       inkscape:connector-curvature="0" />
  </g>
</svg>
