<?xml version="1.0" encoding="UTF-8" standalone="no"?>
<!-- Created with Inkscape (http://www.inkscape.org/) -->

<svg
   xmlns:dc="http://purl.org/dc/elements/1.1/"
   xmlns:cc="http://creativecommons.org/ns#"
   xmlns:rdf="http://www.w3.org/1999/02/22-rdf-syntax-ns#"
   xmlns:svg="http://www.w3.org/2000/svg"
   xmlns="http://www.w3.org/2000/svg"
   xmlns:sodipodi="http://sodipodi.sourceforge.net/DTD/sodipodi-0.dtd"
   xmlns:inkscape="http://www.inkscape.org/namespaces/inkscape"
   version="1.1"
   id="svg2"
   width="20"
   height="30"
   viewBox="0 0 20 30"
   sodipodi:docname="FluidGlobe.svg"
   inkscape:version="0.92.4 (5da689c313, 2019-01-14)">
  <metadata
     id="metadata8">
    <rdf:RDF>
      <cc:Work
         rdf:about="">
        <dc:format>image/svg+xml</dc:format>
        <dc:type
           rdf:resource="http://purl.org/dc/dcmitype/StillImage" />
        <dc:title></dc:title>
      </cc:Work>
    </rdf:RDF>
  </metadata>
  <defs
     id="defs6" />
  <sodipodi:namedview
     pagecolor="#ffffff"
     bordercolor="#666666"
     borderopacity="1"
     objecttolerance="10"
     gridtolerance="10"
     guidetolerance="10"
     inkscape:pageopacity="0"
     inkscape:pageshadow="2"
     inkscape:window-width="1920"
     inkscape:window-height="1001"
     id="namedview4"
     showgrid="false"
     inkscape:zoom="11.125147"
     inkscape:cx="6.3133041"
     inkscape:cy="8.4778782"
     inkscape:window-x="-9"
     inkscape:window-y="-9"
     inkscape:window-maximized="1"
     inkscape:current-layer="svg2" />
  <g
     id="g66"
     transform="scale(2)">
    <path
       style="fill:#000000;fill-opacity:0"
       d="M 0,0.5 V 0 H 0.5 1 1.5 2 2.5 3 3.5 4 4.5 5 5.5 6 6.5 7 7.5 8 8.5 9 9.5 10 V 0.5 1 1.5 2 2.5 3 3.5 4 H 9.5 9 L 8.875,3.625 Q 8.75,3.25 8.375,3.125 L 8,3 7.875,2.625 Q 7.75,2.25 7.375,2.125 7,2 6.5,2 6,2 5.5,2 5,2 4.5,2 4,2 3.5,2 3,2 2.625,2.125 2.25,2.25 2.125,2.625 L 2,3 1.625,3.125 Q 1.25,3.25 1.125,3.625 L 1,4 H 0.5 0 V 3.5 3 2.5 2 1.5 1 0.5"
       id="path12"
       inkscape:connector-curvature="0" />
    <path
       style="fill:#3bfffc;fill-opacity:0.30588235"
       d="M 2.125,2.625 Q 2.25,2.25 2.625,2.125 L 3,2 2.71875,2.09375 2.4375,2.1875 2.625,2.125 Q 2.8125,2.0625 3.03125,2.03125 L 3.25,2 3.140625,2.015625 3.03125,2.03125 2.890625,2.390625 Q 2.75,2.75 2.375,2.875 L 2,3 2.125,2.625"
       id="path14"
       inkscape:connector-curvature="0" />
    <path
       style="fill:#00fffa;fill-opacity:1"
       d="M 2.890625,2.390625 3.03125,2.03125 2.921875,2.046875 2.8125,2.0625 3.03125,2.03125 Q 3.25,2 3.5,2 H 3.75 3.375 3 3.5 Q 4,2 4.5,2 5,2 5.5,2 6,2 6.5,2 H 7 6.625 6.25 6.5 Q 6.75,2 6.96875,2.03125 L 7.1875,2.0625 7.078125,2.046875 6.96875,2.03125 7.109375,2.390625 Q 7.25,2.75 7.625,2.875 L 8,3 8.125,3.375 q 0.125,0.375 0.5,0.5 L 9,4 9.125,4.375 q 0.125,0.375 0.5,0.5 L 10,5 V 5.5 6 6.5 7 7.5 8 8.5 9 L 9.625,9.125 Q 9.25,9.25 9.125,9.625 L 9,10 8.625,10.125 q -0.375,0.125 -0.5,0.5 L 8,11 7.625,11.125 Q 7.25,11.25 7.109375,11.609375 L 6.96875,11.96875 7.078125,11.953125 7.1875,11.9375 6.96875,11.96875 Q 6.75,12 6.5,12 H 6.25 6.625 7 6.5 Q 6,12 5.5,12 5,12 4.5,12 4,12 3.5,12 H 3 3.375 3.75 3.5 Q 3.25,12 3.03125,11.96875 L 2.8125,11.9375 2.921875,11.953125 3.03125,11.96875 2.890625,11.609375 Q 2.75,11.25 2.375,11.125 L 2,11 1.875,10.625 Q 1.75,10.25 1.375,10.125 L 1,10 V 9.5 9 L 1.375,9.125 Q 1.75,9.25 2,9.5 2.25,9.75 2.5,10 2.75,10.25 3,10.5 3.25,10.75 3.625,10.875 4,11 4.5,11 5,11 5.5,11 6,11 6.375,10.875 6.75,10.75 7,10.5 7.25,10.25 7.5,10 7.75,9.75 8,9.5 8.25,9.25 8.5,9 8.75,8.75 8.875,8.375 9,8 9,7.5 9,7 9,6.5 9,6 8.875,5.625 8.75,5.25 8.5,5 8.25,4.75 8,4.5 7.75,4.25 7.5,4 7.25,3.75 7,3.5 6.75,3.25 6.375,3.125 L 6,3 H 5.5 Q 5,3 4.5,3 4,3 3.625,3.125 3.25,3.25 3.125,3.625 L 3,4 2.625,4.125 Q 2.25,4.25 2,4.5 1.75,4.75 1.5,5 1.25,5.25 1.125,5.625 L 1,6 H 0.5 0 V 5.5 5 L 0.375,4.875 Q 0.75,4.75 0.875,4.375 L 1,4 1.375,3.875 Q 1.75,3.75 1.875,3.375 L 2,3 2.375,2.875 Q 2.75,2.75 2.890625,2.390625"
       id="path16"
       inkscape:connector-curvature="0" />
    <path
       style="fill:#49fffc;fill-opacity:0.32941176"
       d="M 7.109375,2.390625 6.96875,2.03125 6.859375,2.015625 6.75,2 6.96875,2.03125 Q 7.1875,2.0625 7.375,2.125 L 7.5625,2.1875 7.28125,2.09375 7,2 7.375,2.125 q 0.375,0.125 0.5,0.5 L 8,3 7.625,2.875 Q 7.25,2.75 7.109375,2.390625"
       id="path18"
       inkscape:connector-curvature="0" />
    <path
       style="fill:#61fffa;fill-opacity:0.38039216"
       d="M 1.125,3.625 Q 1.25,3.25 1.625,3.125 L 2,3 1.875,3.375 Q 1.75,3.75 1.375,3.875 L 1,4 1.125,3.625"
       id="path20"
       inkscape:connector-curvature="0" />
    <path
       style="fill:#9afffd;fill-opacity:0.59607843"
       d="M 3.125,3.625 Q 3.25,3.25 3.625,3.125 L 4,3 3.71875,3.09375 3.4375,3.1875 3.625,3.125 Q 3.8125,3.0625 4.03125,3.03125 L 4.25,3 4.140625,3.015625 4.03125,3.03125 4.015625,3.515625 4,4 H 3.5 3 L 3.125,3.625 M 3.625,4 H 4 4.125 4.25 4 Q 3.75,4 3.5,4 H 3.25 3.625"
       id="path22"
       inkscape:connector-curvature="0" />
    <path
       style="fill:#ffffff;fill-opacity:0.25098039"
       d="M 4.015625,3.515625 4.03125,3.03125 3.921875,3.046875 3.8125,3.0625 4.03125,3.03125 Q 4.25,3 4.5,3 H 4.75 4.375 4 4.5 Q 5,3 5.5,3 H 6 V 3.5 4 H 5.5 Q 5,4 4.5,4 H 4 L 4.015625,3.515625 M 3.875,4 H 4 4.375 4.75 4.5 Q 4.25,4 4,4 H 3.75 3.875"
       id="path24"
       inkscape:connector-curvature="0" />
    <path
       style="fill:#ffffff;fill-opacity:0.40784314"
       d="M 6,3.5 V 3 L 6.375,3.125 Q 6.75,3.25 7,3.5 L 7.25,3.75 6.984375,4.015625 6.71875,4.28125 6.796875,4.328125 6.875,4.375 6.71875,4.28125 Q 6.5625,4.1875 6.375,4.125 L 6.1875,4.0625 6.46875,4.15625 6.75,4.25 6.375,4.125 6,4 V 3.5 M 7.3125,3.8125 7.25,3.75 7.0625,3.5625 6.875,3.375 7,3.5 Q 7.125,3.625 7.25,3.75 L 7.375,3.875 7.3125,3.8125"
       id="path26"
       inkscape:connector-curvature="0" />
    <path
       style="fill:#7afffb;fill-opacity:0.45098039"
       d="M 8.125,3.375 8,3 8.375,3.125 q 0.375,0.125 0.5,0.5 L 9,4 8.625,3.875 Q 8.25,3.75 8.125,3.375"
       id="path28"
       inkscape:connector-curvature="0" />
    <path
       style="fill:#ffffff;fill-opacity:0.09411765"
       d="M 0,4.5 V 4 H 0.5 1 L 0.875,4.375 Q 0.75,4.75 0.375,4.875 L 0,5 V 4.5"
       id="path30"
       inkscape:connector-curvature="0" />
    <path
       style="fill:#ffffff;fill-opacity:0.1254902"
       d="M 2,4.5 Q 2.25,4.25 2.625,4.125 L 3,4 V 4.5 5 L 2.625,5.125 2.25,5.25 2.53125,5.15625 2.8125,5.0625 2.625,5.125 Q 2.4375,5.1875 2.28125,5.28125 L 2.125,5.375 2.203125,5.328125 2.28125,5.28125 2.015625,5.015625 1.75,4.75 2,4.5 M 1.9375,4.5625 1.75,4.75 1.6875,4.8125 1.625,4.875 1.75,4.75 Q 1.875,4.625 2,4.5 L 2.125,4.375 1.9375,4.5625 M 3,5.125 V 5 4.625 4.25 4.5 Q 3,4.75 3,5 V 5.25 5.125"
       id="path32"
       inkscape:connector-curvature="0" />
    <path
       style="fill:#000000;fill-opacity:0"
       d="M 3,4.5 V 4 H 3.5 Q 4,4 4.5,4 5,4 5.5,4 H 6 L 6.375,4.125 Q 6.75,4.25 7,4.5 7.25,4.75 7.5,5 7.75,5.25 8,5.5 8.25,5.75 8.609375,5.890625 L 8.96875,6.03125 8.953125,5.921875 8.9375,5.8125 8.96875,6.03125 Q 9,6.25 9,6.5 V 6.75 6.375 6 6.5 7 L 8.625,6.875 Q 8.25,6.75 8,6.5 7.75,6.25 7.5,6.25 7.25,6.25 7,6.5 6.75,6.75 6.5,6.75 6.25,6.75 6,6.5 5.75,6.25 5.375,6.125 5,6 4.625,6.125 4.25,6.25 4,6.5 3.75,6.75 3.5,6.75 3.25,6.75 3.125,6.375 3,6 3,5.5 3,5 3,4.5 M 9,7.125 V 7 6.625 6.25 6.5 Q 9,6.75 9,7 V 7.25 7.125"
       id="path34"
       inkscape:connector-curvature="0" />
    <path
       style="fill:#ffffff;fill-opacity:0.03137255"
       d="M 7,4.5 6.75,4.25 6.9375,4.4375 7.125,4.625 7,4.5 Q 6.875,4.375 6.71875,4.28125 L 6.5625,4.1875 6.640625,4.234375 6.71875,4.28125 6.984375,4.015625 7.25,3.75 7.5,4 Q 7.75,4.25 8,4.5 L 8.25,4.75 8,5 7.75,5.25 7.5,5 Q 7.25,4.75 7,4.5 M 7.5625,5.0625 7.75,5.25 7.8125,5.3125 7.875,5.375 7.75,5.25 Q 7.625,5.125 7.5,5 L 7.375,4.875 7.5625,5.0625 m 0.75,-0.25 L 8.25,4.75 8.0625,4.5625 7.875,4.375 8,4.5 Q 8.125,4.625 8.25,4.75 L 8.375,4.875 8.3125,4.8125 M 7.4375,3.9375 7.25,3.75 7.1875,3.6875 7.125,3.625 7.25,3.75 Q 7.375,3.875 7.5,4 L 7.625,4.125 7.4375,3.9375"
       id="path36"
       inkscape:connector-curvature="0" />
    <path
       style="fill:#ffffff;fill-opacity:0.21960784"
       d="M 9.125,4.375 9,4 H 9.5 10 V 4.5 5 L 9.625,4.875 Q 9.25,4.75 9.125,4.375"
       id="path38"
       inkscape:connector-curvature="0" />
    <path
       style="fill:#ffffff;fill-opacity:0.40784314"
       d="M 1.125,5.625 Q 1.25,5.25 1.5,5 L 1.75,4.75 2.015625,5.015625 2.28125,5.28125 2.359375,5.234375 2.4375,5.1875 2.28125,5.28125 Q 2.125,5.375 2,5.5 L 1.875,5.625 2.0625,5.4375 2.25,5.25 2,5.5 Q 1.75,5.75 1.375,5.875 L 1,6 1.125,5.625 M 1.8125,4.6875 1.75,4.75 1.5625,4.9375 1.375,5.125 1.5,5 Q 1.625,4.875 1.75,4.75 L 1.875,4.625 1.8125,4.6875"
       id="path40"
       inkscape:connector-curvature="0" />
    <path
       style="fill:#ff0000;fill-opacity:1"
       d="M 2,5.5 Q 2.25,5.25 2.625,5.125 L 3,5 V 5.5 Q 3,6 3.125,6.375 3.25,6.75 3.5,6.75 3.75,6.75 4,6.5 4.25,6.25 4.625,6.125 5,6 5.375,6.125 5.75,6.25 6,6.5 6.25,6.75 6.5,6.75 6.75,6.75 7,6.5 7.25,6.25 7.5,6.25 7.75,6.25 8,6.5 8.25,6.75 8.625,6.875 L 9,7 V 7.5 Q 9,8 8.875,8.375 8.75,8.75 8.5,9 8.25,9.25 8,9.5 7.75,9.75 7.5,10 7.25,10.25 7,10.5 6.75,10.75 6.375,10.875 6,11 5.5,11 5,11 4.5,11 4,11 3.625,10.875 3.25,10.75 3,10.5 2.75,10.25 2.5,10 2.25,9.75 2,9.5 1.75,9.25 1.375,9.125 L 1,9 V 8.5 Q 1,8 1,7.5 1,7 1,6.5 V 6 L 1.375,5.875 Q 1.75,5.75 2,5.5 M 9,7.375 V 7 6.875 6.75 7 Q 9,7.25 9,7.5 V 7.75 7.375 m -6,-2 V 5 4.875 4.75 5 Q 3,5.25 3,5.5 V 5.75 5.375"
       id="path42"
       inkscape:connector-curvature="0" />
    <path
       style="fill:#ffffff;fill-opacity:0.21960784"
       d="M 8,5.5 7.75,5.25 8,5 8.25,4.75 8.5,5 Q 8.75,5.25 8.875,5.625 L 9,6 8.90625,5.71875 8.8125,5.4375 8.875,5.625 Q 8.9375,5.8125 8.96875,6.03125 L 9,6.25 8.984375,6.140625 8.96875,6.03125 8.609375,5.890625 Q 8.25,5.75 8,5.5 M 8.4375,4.9375 8.25,4.75 8.1875,4.6875 8.125,4.625 8.25,4.75 Q 8.375,4.875 8.5,5 L 8.625,5.125 8.4375,4.9375 m -0.75,0.25 L 7.75,5.25 7.9375,5.4375 8.125,5.625 8,5.5 Q 7.875,5.375 7.75,5.25 L 7.625,5.125 7.6875,5.1875"
       id="path44"
       inkscape:connector-curvature="0" />
    <path
       style="fill:#bafefc;fill-opacity:0.87843137"
       d="M 0,6.5 V 6 H 0.5 1 V 6.5 7 H 0.5 0 V 6.5 M 1,7.125 V 7 6.625 6.25 6.5 Q 1,6.75 1,7 V 7.25 7.125"
       id="path46"
       inkscape:connector-curvature="0" />
    <path
       style="fill:#91fefc;fill-opacity:0.94509804"
       d="M 0,7.5 V 7 H 0.5 1 V 7.5 8 H 0.5 0 V 7.5 M 1,8.125 V 8 7.625 7.25 7.5 Q 1,7.75 1,8 V 8.25 8.125 M 1,7.375 V 7 6.875 6.75 7 Q 1,7.25 1,7.5 V 7.75 7.375"
       id="path48"
       inkscape:connector-curvature="0" />
    <path
       style="fill:#7ffefd;fill-opacity:0.81176471"
       d="M 0,8.5 V 8 H 0.5 1 V 8.5 9 H 0.5 0 V 8.5 M 1,8.375 V 8 7.875 7.75 8 Q 1,8.25 1,8.5 V 8.75 8.375"
       id="path50"
       inkscape:connector-curvature="0" />
    <path
       style="fill:#61fffa;fill-opacity:0.38039216"
       d="M 0,9.5 V 9 H 0.5 1 V 9.5 10 H 0.5 0 V 9.5"
       id="path52"
       inkscape:connector-curvature="0" />
    <path
       style="fill:#92fdfb;fill-opacity:0.54901961"
       d="M 9.125,9.625 Q 9.25,9.25 9.625,9.125 L 10,9 V 9.5 10 H 9.5 9 L 9.125,9.625"
       id="path54"
       inkscape:connector-curvature="0" />
    <path
       style="fill:#000000;fill-opacity:0"
       d="M 0,10.5 V 10 H 0.5 1 l 0.125,0.375 q 0.125,0.375 0.5,0.5 L 2,11 2.125,11.375 q 0.125,0.375 0.5,0.5 Q 3,12 3.5,12 q 0.5,0 1,0 0.5,0 1,0 0.5,0 1,0 0.5,0 0.875,-0.125 0.375,-0.125 0.5,-0.5 L 8,11 8.375,10.875 q 0.375,-0.125 0.5,-0.5 L 9,10 H 9.5 10 V 10.5 11 11.5 12 12.5 13 13.5 14 14.5 15 H 9.5 9 8.5 8 7.5 7 6.5 6 5.5 5 4.5 4 3.5 3 2.5 2 1.5 1 0.5 0 V 14.5 14 13.5 13 12.5 12 11.5 11 10.5"
       id="path56"
       inkscape:connector-curvature="0" />
    <path
       style="fill:#9afffd;fill-opacity:0.59607843"
       d="M 1.125,10.375 1,10 1.375,10.125 q 0.375,0.125 0.5,0.5 L 2,11 1.625,10.875 q -0.375,-0.125 -0.5,-0.5"
       id="path58"
       inkscape:connector-curvature="0" />
    <path
       style="fill:#aafefc;fill-opacity:0.71372549"
       d="m 8.125,10.625 q 0.125,-0.375 0.5,-0.5 L 9,10 8.875,10.375 q -0.125,0.375 -0.5,0.5 L 8,11 8.125,10.625"
       id="path60"
       inkscape:connector-curvature="0" />
    <path
       style="fill:#81fffd;fill-opacity:0.4745098"
       d="M 2.125,11.375 2,11 2.375,11.125 Q 2.75,11.25 2.890625,11.609375 L 3.03125,11.96875 3.140625,11.984375 3.25,12 3.03125,11.96875 Q 2.8125,11.9375 2.625,11.875 L 2.4375,11.8125 2.71875,11.90625 3,12 2.625,11.875 q -0.375,-0.125 -0.5,-0.5"
       id="path62"
       inkscape:connector-curvature="0" />
    <path
       style="fill:#94fdfc;fill-opacity:0.57254902"
       d="M 7.109375,11.609375 Q 7.25,11.25 7.625,11.125 L 8,11 7.875,11.375 q -0.125,0.375 -0.5,0.5 L 7,12 7.28125,11.90625 7.5625,11.8125 7.375,11.875 Q 7.1875,11.9375 6.96875,11.96875 L 6.75,12 6.859375,11.984375 6.96875,11.96875 7.109375,11.609375"
       id="path64"
       inkscape:connector-curvature="0" />
  </g>
</svg>
