<?xml version="1.0" encoding="UTF-8" standalone="no"?>
<!-- Created with Inkscape (http://www.inkscape.org/) -->

<svg
   xmlns:dc="http://purl.org/dc/elements/1.1/"
   xmlns:cc="http://creativecommons.org/ns#"
   xmlns:rdf="http://www.w3.org/1999/02/22-rdf-syntax-ns#"
   xmlns:svg="http://www.w3.org/2000/svg"
   xmlns="http://www.w3.org/2000/svg"
   xmlns:sodipodi="http://sodipodi.sourceforge.net/DTD/sodipodi-0.dtd"
   xmlns:inkscape="http://www.inkscape.org/namespaces/inkscape"
   version="1.1"
   id="svg2"
   width="20"
   height="30"
   viewBox="0 0 20 30"
   sodipodi:docname="Heathenism.svg"
   inkscape:version="0.92.4 (5da689c313, 2019-01-14)">
  <metadata
     id="metadata8">
    <rdf:RDF>
      <cc:Work
         rdf:about="">
        <dc:format>image/svg+xml</dc:format>
        <dc:type
           rdf:resource="http://purl.org/dc/dcmitype/StillImage" />
        <dc:title></dc:title>
      </cc:Work>
    </rdf:RDF>
  </metadata>
  <defs
     id="defs6" />
  <sodipodi:namedview
     pagecolor="#ffffff"
     bordercolor="#666666"
     borderopacity="1"
     objecttolerance="10"
     gridtolerance="10"
     guidetolerance="10"
     inkscape:pageopacity="0"
     inkscape:pageshadow="2"
     inkscape:window-width="1920"
     inkscape:window-height="1001"
     id="namedview4"
     showgrid="false"
     inkscape:zoom="7.8666667"
     inkscape:cx="15"
     inkscape:cy="10"
     inkscape:window-x="-9"
     inkscape:window-y="-9"
     inkscape:window-maximized="1"
     inkscape:current-layer="svg2" />
  <g
     id="g212"
     transform="matrix(0.66666667,0,0,0.66666667,0,4.9999999)">
    <path
       style="fill:#000000;fill-opacity:0"
       d="M 0,0.5 V 0 H 0.5 1 1.5 2 2.5 3 3.5 4 4.5 5 5.5 6 6.5 7 7.5 8 8.5 9 9.5 10 10.5 11 11.5 12 12.5 13 13.5 14 14.5 15 15.5 16 16.5 17 17.5 18 18.5 19 19.5 20 20.5 21 21.5 22 22.5 23 23.5 24 24.5 25 25.5 26 26.5 27 27.5 28 28.5 29 29.5 30 V 0.5 1 1.5 2 2.5 3 3.5 4 4.5 5 5.5 6 6.5 7 7.5 8 8.5 9 9.5 10 10.5 11 11.5 12 12.5 13 13.5 14 14.5 15 15.5 16 16.5 17 17.5 18 18.5 19 19.5 20 20.5 21 21.5 22 22.5 23 23.5 24 24.5 25 25.5 26 26.5 27 27.5 28 28.5 29 29.5 30 H 29.5 29 28.5 28 27.5 27 26.5 26 25.5 25 24.5 24 23.5 23 22.5 22 21.5 21 20.5 20 19.5 19 18.5 18 17.5 17 16.5 16 15.5 15 14.5 14 13.5 13 12.5 12 11.5 11 10.5 10 9.5 9 8.5 8 7.5 7 6.5 6 5.5 5 4.5 4 3.5 3 2.5 2 1.5 1 0.5 0 V 29.5 29 28.5 28 27.5 27 26.5 26 25.5 25 24.5 24 23.5 23 22.5 22 21.5 21 20.5 20 19.5 19 18.5 18 17.5 17 16.5 16 15.5 15 14.5 14 13.5 13 12.5 12 11.5 11 10.5 10 9.5 9 8.5 8 7.5 7 6.5 6 5.5 5 4.5 4 3.5 3 2.5 2 1.5 1 0.5 M 14.5,27 q 0.5,0 0.875,-0.125 0.375,-0.125 0.5,-0.5 L 16,26 16.375,25.875 q 0.375,-0.125 0.5,-0.5 L 17,25 h 0.5 q 0.5,0 0.875,-0.125 0.375,-0.125 0.5,-0.5 L 19,24 h 0.5 q 0.5,0 1,0 0.5,0 1,0 h 0.5 0.5 0.5 0.5 q 0.5,0 0.875,-0.125 0.375,-0.125 0.5,-0.5 Q 25,23 25,22.5 25,22 25.375,21.875 25.75,21.75 25.875,21.375 26,21 26,20.5 26,20 26.375,19.875 26.75,19.75 26.75,19.5 26.75,19.25 26.375,19.125 26,19 25.5,19 q -0.5,0 -1,0 -0.5,0 -1,0 -0.5,0 -1,0 -0.5,0 -1,0 -0.5,0 -0.875,0.125 -0.375,0.125 -0.5,0.5 Q 20,20 19.5,20 19,20 18.875,19.625 18.75,19.25 18.375,19.125 18,19 18,18.5 q 0,-0.5 0,-1 0,-0.5 0,-1 0,-0.5 -0.125,-0.875 -0.125,-0.375 -0.5,-0.5 Q 17,15 17,14.5 V 14 13.5 q 0,-0.5 0,-1 0,-0.5 0,-1 V 11 10.5 10 9.5 9 8.5 Q 17,8 17,7.5 V 7 6.5 6 5.5 Q 17,5 17.375,4.875 17.75,4.75 17.75,4.5 17.75,4.25 17.375,4.125 L 17,4 16.875,3.625 Q 16.75,3.25 16.375,3.125 16,3 15.5,3 15,3 14.5,3 H 14 13.5 Q 13,3 12.625,3.125 12.25,3.25 12.125,3.625 L 12,4 11.625,4.125 q -0.375,0.125 -0.5,0.5 -0.125,0.375 0,0.75 0.125,0.375 0.5,0.5 Q 12,6 12,6.5 V 7 7.5 8 8.5 9 9.5 10 10.5 11 11.5 12 12.5 q 0,0.5 0,1 v 0.5 0.5 q 0,0.5 -0.375,0.625 -0.375,0.125 -0.5,0.5 Q 11,16 11,16.5 q 0,0.5 0,1 0,0.5 0,1 0,0.5 -0.375,0.625 -0.375,0.125 -0.5,0.5 Q 10,20 9.5,20 9,20 8.875,19.625 8.75,19.25 8.375,19.125 8,19 7.5,19 7,19 6.5,19 6,19 5.5,19 5,19 4.5,19 4,19 3.5,19 3,19 2.625,19.125 2.25,19.25 2.25,19.5 q 0,0.25 0.375,0.375 Q 3,20 3,20.5 q 0,0.5 0,1 0,0.5 0.125,0.875 0.125,0.375 0.5,0.5 L 4,23 4.125,23.375 q 0.125,0.375 0.5,0.5 Q 5,24 5.5,24 H 6 6.5 7 7.5 q 0.5,0 1,0 0.5,0 1,0 0.5,0 0.625,0.375 0.125,0.375 0.5,0.5 Q 11,25 11.5,25 H 12 l 0.125,0.375 q 0.125,0.375 0.5,0.5 L 13,26 l 0.125,0.375 q 0.125,0.375 0.5,0.5 Q 14,27 14.5,27"
       id="path12"
       inkscape:connector-curvature="0" />
    <path
       style="fill:#fd5958;fill-opacity:1"
       d="m 12.125,3.625 q 0.125,-0.375 0.5,-0.5 L 13,3 12.71875,3.09375 12.4375,3.1875 12.625,3.125 Q 12.8125,3.0625 13.03125,3.03125 L 13.25,3 13.140625,3.015625 13.03125,3.03125 13.015625,3.515625 13,4 H 12.5 12 L 12.125,3.625 M 12.625,4 H 13 13.125 13.25 13 q -0.25,0 -0.5,0 h -0.25 0.375"
       id="path14"
       inkscape:connector-curvature="0" />
    <path
       style="fill:#fc403f;fill-opacity:1"
       d="M 13.015625,3.515625 13.03125,3.03125 12.921875,3.046875 12.8125,3.0625 13.03125,3.03125 Q 13.25,3 13.5,3 H 13.75 13.375 13 13.5 14 V 3.5 4 H 13.5 13 L 13.01563,3.515625 M 12.875,4 H 13 13.375 13.75 13.5 Q 13.25,4 13,4 h -0.25 0.125"
       id="path16"
       inkscape:connector-curvature="0" />
    <path
       style="fill:#fc3736;fill-opacity:1"
       d="M 14,3.5 V 3 H 14.5 15 V 3.5 4 H 14.5 14 V 3.5 M 14.625,4 H 15 15.125 15.25 15 q -0.25,0 -0.5,0 h -0.25 0.375 m 0.5,-1 H 15 14.625 14.25 14.5 q 0.25,0 0.5,0 h 0.25 -0.125"
       id="path18"
       inkscape:connector-curvature="0" />
    <path
       style="fill:#fc4544;fill-opacity:1"
       d="M 15,3.5 V 3 H 15.5 16 15.625 15.25 15.5 q 0.25,0 0.46875,0.03125 L 16.1875,3.0625 16.078125,3.046875 15.96875,3.03125 15.984375,3.515625 16,4 H 15.5 15 V 3.5 M 14.875,4 H 15 15.375 15.75 15.5 Q 15.25,4 15,4 h -0.25 0.125 m 0.75,0 H 16 16.125 16.25 16 q -0.25,0 -0.5,0 h -0.25 0.375 M 15.375,3 H 15 14.875 14.75 15 q 0.25,0 0.5,0 h 0.25 -0.375"
       id="path20"
       inkscape:connector-curvature="0" />
    <path
       style="fill:#fd5959;fill-opacity:1"
       d="M 15.984375,3.515625 15.96875,3.03125 15.859375,3.015625 15.75,3 15.96875,3.03125 Q 16.1875,3.0625 16.375,3.125 L 16.5625,3.1875 16.28125,3.09375 16,3 16.375,3.125 q 0.375,0.125 0.5,0.5 L 17,4 H 16.5 16 L 15.984375,3.515625 M 15.875,4 H 16 16.375 16.75 16.5 Q 16.25,4 16,4 h -0.25 0.125"
       id="path22"
       inkscape:connector-curvature="0" />
    <path
       style="fill:#fd6665;fill-opacity:1"
       d="m 11.125,4.625 q 0.125,-0.375 0.5,-0.5 L 12,4 V 4.5 5 H 11.53125 11.0625 V 5.09375 5.1875 5 q 0,-0.1875 0.0625,-0.375 L 11.1875,4.4375 11.09375,4.71875 11,5 11.125,4.625 M 12,5.125 V 5 4.625 4.25 4.5 Q 12,4.75 12,5 V 5.25 5.125"
       id="path24"
       inkscape:connector-curvature="0" />
    <path
       style="fill:#fc0101;fill-opacity:1"
       d="M 12,4.5 V 4 H 12.5 13 V 4.5 5 H 12.5 12 V 4.5"
       id="path26"
       inkscape:connector-curvature="0" />
    <path
       style="fill:#fc0000;fill-opacity:1"
       d="M 13,4.5 V 4 h 0.5 0.5 0.5 q 0.5,0 1,0 H 16 V 4.5 5 L 15.875,5.375 Q 15.75,5.75 16.03125,6.03125 L 16.3125,6.3125 16.375,6.25 16.4375,6.1875 16.3125,6.3125 Q 16.1875,6.4375 16.125,6.625 L 16.0625,6.8125 16.15625,6.53125 16.25,6.25 16.125,6.625 16,7 v 0.5 q 0,0.5 0,1 V 9 9.5 10 10.5 11 11.5 q 0,0.5 0,1 0,0.5 0.125,0.875 L 16.25,13.75 16.15625,13.46875 16.0625,13.1875 16.125,13.375 q 0.0625,0.1875 0.1875,0.3125 l 0.125,0.125 L 16.375,13.75 16.3125,13.6875 16.03125,13.96875 Q 15.75,14.25 15.875,14.625 L 16,15 v 0.5 Q 16,16 16.5,16 H 17 v 0.5 q 0,0.5 0.125,0.875 L 17.25,17.75 17.15625,17.46875 17.0625,17.1875 17.125,17.375 q 0.0625,0.1875 0.1875,0.3125 l 0.125,0.125 L 17.375,17.75 17.3125,17.6875 17.03125,17.96875 Q 16.75,18.25 16.875,18.625 L 17,19 v 0.5 q 0,0.5 0.375,0.625 0.375,0.125 0.5,0.5 Q 18,21 18.5,21 H 19 19.5 20 20.5 21 21.5 Q 22,21 22,20.5 V 20 h 0.5 q 0.5,0 1,0 0.5,0 1,0 H 25 v 0.5 q 0,0.5 0.04687,1.046875 l 0.04687,0.546875 -0.546875,-0.04687 Q 24,22 24,22.5 V 23 H 23.5 23 22.5 22 21.5 q -0.5,0 -1,0 -0.5,0 -0.875,0.125 L 19.25,23.25 19.53125,23.15625 19.8125,23.0625 19.625,23.125 q -0.1875,0.0625 -0.3125,0.1875 l -0.125,0.125 0.0625,-0.0625 0.0625,-0.0625 -0.28125,-0.28125 Q 18.75,22.75 18.375,22.875 18,23 18,23.5 V 24 L 17.625,24.125 17.25,24.25 17.53125,24.15625 17.8125,24.0625 17.625,24.125 q -0.1875,0.0625 -0.3125,0.1875 l -0.125,0.125 0.0625,-0.0625 0.0625,-0.0625 -0.28125,-0.28125 Q 16.75,23.75 16.375,23.875 16,24 15.875,24.375 15.75,24.75 15.375,24.875 15,25 15,25.5 V 26 H 14.5 14 V 25.5 Q 14,25 13.625,24.875 13.25,24.75 13.125,24.375 13,24 12.625,23.875 12.25,23.75 11.96875,24.03125 l -0.28125,0.28125 0.0625,0.0625 0.0625,0.0625 -0.125,-0.125 Q 11.5625,24.1875 11.375,24.125 L 11.1875,24.0625 11.46875,24.15625 11.75,24.25 11.375,24.125 11,24 V 23.5 Q 11,23 10.625,22.875 10.25,22.75 9.96875,23.03125 L 9.6875,23.3125 9.75,23.375 9.8125,23.4375 9.6875,23.3125 Q 9.5625,23.1875 9.375,23.125 L 9.1875,23.0625 9.46875,23.15625 9.75,23.25 9.375,23.125 Q 9,23 8.5,23 8,23 7.5,23 H 7 6.5 6 5.5 5 V 22.5 Q 5,22 4.5,22 H 4 L 3.875,21.625 3.75,21.25 3.84375,21.53125 3.9375,21.8125 3.875,21.625 Q 3.8125,21.4375 3.6875,21.3125 L 3.5625,21.1875 3.625,21.25 3.6875,21.3125 3.96875,21.03125 Q 4.25,20.75 4.125,20.375 L 4,20 h 0.5 q 0.5,0 1,0 0.5,0 1,0 0.5,0 1,0 H 8 v 0.5 Q 8,21 8.5,21 H 9 9.5 10 10.5 Q 11,21 11.125,20.625 11.25,20.25 10.96875,19.96875 L 10.6875,19.6875 10.625,19.75 l -0.0625,0.0625 0.125,-0.125 q 0.125,-0.125 0.1875,-0.3125 L 10.9375,19.1875 10.84375,19.46875 10.75,19.75 l 0.07813,-0.421875 0.07813,-0.421875 0.546875,0.04687 Q 12,19 12.125,18.625 12.25,18.25 11.96875,17.96875 L 11.6875,17.6875 11.625,17.75 l -0.0625,0.0625 0.125,-0.125 q 0.125,-0.125 0.1875,-0.3125 L 11.9375,17.1875 11.84375,17.46875 11.75,17.75 11.875,17.375 Q 12,17 12,16.5 V 16 h 0.5 Q 13,16 13,15.5 V 15 l 0.125,-0.375 Q 13.25,14.25 12.96875,13.96875 L 12.6875,13.6875 12.625,13.75 l -0.0625,0.0625 0.125,-0.125 q 0.125,-0.125 0.1875,-0.3125 L 12.9375,13.1875 12.84375,13.46875 12.75,13.75 12.875,13.375 Q 13,13 13,12.5 V 12 11.5 11 10.5 10 9.5 9 8.5 8 7.5 7 L 12.875,6.625 12.75,6.25 12.84375,6.53125 12.9375,6.8125 12.875,6.625 Q 12.8125,6.4375 12.6875,6.3125 L 12.5625,6.1875 12.625,6.25 12.6875,6.3125 12.96875,6.03125 Q 13.25,5.75 13.125,5.375 L 13,5 V 4.5 M 25,20.375 V 20 19.875 19.75 20 q 0,0.25 0,0.5 v 0.25 -0.375"
       id="path28"
       inkscape:connector-curvature="0" />
    <path
       style="fill:#fc0303;fill-opacity:1"
       d="M 16,4.5 V 4 H 16.5 17 L 17.046875,4.546875 17.09375,5.09375 16.546875,5.046875 16,5 V 4.5"
       id="path30"
       inkscape:connector-curvature="0" />
    <path
       style="fill:#fd7f7e;fill-opacity:1"
       d="M 17.046875,4.546875 17,4 17.375,4.125 Q 17.75,4.25 17.75,4.5 q 0,0.25 -0.375,0.375 L 17,5 17.28125,4.90625 17.5625,4.8125 17.375,4.875 Q 17.1875,4.9375 17.09375,5.09375 L 17,5.25 17.046875,5.171875 17.09375,5.09375 17.046875,4.546875"
       id="path32"
       inkscape:connector-curvature="0" />
    <path
       style="fill:#fd8b89;fill-opacity:1"
       d="M 11.125,5.375 11,5 11.09375,5.28125 11.1875,5.5625 11.125,5.375 Q 11.0625,5.1875 11.0625,5 V 4.8125 4.90625 5 H 11.53125 12 L 11.953125,5.546875 11.90625,6.09375 11.953125,6.171875 12,6.25 11.90625,6.09375 Q 11.8125,5.9375 11.625,5.875 L 11.4375,5.8125 11.71875,5.90625 12,6 11.625,5.875 q -0.375,-0.125 -0.5,-0.5 m 0.875,0 V 5 4.875 4.75 5 q 0,0.25 0,0.5 V 5.75 5.375"
       id="path34"
       inkscape:connector-curvature="0" />
    <path
       style="fill:#fc0403;fill-opacity:1"
       d="M 11.953125,5.546875 12,5 h 0.5 0.5 l 0.125,0.375 Q 13.25,5.75 12.96875,6.03125 L 12.6875,6.3125 12.75,6.375 12.8125,6.4375 12.6875,6.3125 Q 12.5625,6.1875 12.375,6.125 L 12.1875,6.0625 12.46875,6.15625 12.75,6.25 12.328125,6.171875 11.90625,6.09375 11.953125,5.546875"
       id="path36"
       inkscape:connector-curvature="0" />
    <path
       style="fill:#fc0707;fill-opacity:1"
       d="M 15.875,5.375 16,5 16.546875,5.046875 17.09375,5.09375 17.140625,5.015625 17.1875,4.9375 17.09375,5.09375 Q 17,5.25 17,5.5 V 5.75 5.375 5 5.5 6 L 16.625,6.125 16.25,6.25 16.53125,6.15625 16.8125,6.0625 16.625,6.125 Q 16.4375,6.1875 16.3125,6.3125 L 16.1875,6.4375 16.25,6.375 16.3125,6.3125 16.03125,6.03125 Q 15.75,5.75 15.875,5.375"
       id="path38"
       inkscape:connector-curvature="0" />
    <path
       style="fill:#fc0e0d;fill-opacity:1"
       d="M 12,6.5 V 6 6.375 6.75 6.5 Q 12,6.25 11.90625,6.09375 L 11.8125,5.9375 11.85937,6.015625 11.90624,6.09375 12.328115,6.171875 Q 12.75,6.25 12.875,6.625 L 13,7 H 12.5 12 V 6.5"
       id="path40"
       inkscape:connector-curvature="0" />
    <path
       style="fill:#fc1110;fill-opacity:1"
       d="m 16.125,6.625 q 0.125,-0.375 0.5,-0.5 L 17,6 V 6.5 7 H 16.5 16 l 0.125,-0.375"
       id="path42"
       inkscape:connector-curvature="0" />
    <path
       style="fill:#fc1919;fill-opacity:1"
       d="M 12,7.5 V 7 H 12.5 13 V 7.5 8 H 12.5 12 V 7.5"
       id="path44"
       inkscape:connector-curvature="0" />
    <path
       style="fill:#fc1d1d;fill-opacity:1"
       d="M 16,7.5 V 7 H 16.5 17 V 7.5 8 H 16.5 16 V 7.5 m 0,0.125 V 8 8.125 8.25 8 Q 16,7.75 16,7.5 V 7.25 7.625 m 1,0.5 V 8 7.625 7.25 7.5 Q 17,7.75 17,8 V 8.25 8.125"
       id="path46"
       inkscape:connector-curvature="0" />
    <path
       style="fill:#fc2626;fill-opacity:1"
       d="M 12,8.5 V 8 H 12.5 13 V 8.5 9 H 12.5 12 V 8.5"
       id="path48"
       inkscape:connector-curvature="0" />
    <path
       style="fill:#fc2c2b;fill-opacity:1"
       d="M 16,8.5 V 8 H 16.5 17 V 8.5 9 H 16.5 16 V 8.5 M 17,8.375 V 8 7.875 7.75 8 q 0,0.25 0,0.5 V 8.75 8.375 m -1,-0.5 V 8 8.375 8.75 8.5 Q 16,8.25 16,8 V 7.75 7.875"
       id="path50"
       inkscape:connector-curvature="0" />
    <path
       style="fill:#fc2b2b;fill-opacity:1"
       d="M 12,9.5 V 9 H 12.5 13 V 9.5 10 H 12.5 12 V 9.5"
       id="path52"
       inkscape:connector-curvature="0" />
    <path
       style="fill:#fc3737;fill-opacity:1"
       d="M 16,9.5 V 9 H 16.5 17 V 9.5 10 H 16.5 16 V 9.5"
       id="path54"
       inkscape:connector-curvature="0" />
    <path
       style="fill:#fc2d2c;fill-opacity:1"
       d="M 12,10.5 V 10 H 12.5 13 V 10.5 11 H 12.5 12 v -0.5"
       id="path56"
       inkscape:connector-curvature="0" />
    <path
       style="fill:#fc3c3c;fill-opacity:1"
       d="M 16,10.5 V 10 H 16.5 17 V 10.5 11 H 16.5 16 v -0.5"
       id="path58"
       inkscape:connector-curvature="0" />
    <path
       style="fill:#fc2a2a;fill-opacity:1"
       d="M 12,11.5 V 11 H 12.5 13 V 11.5 12 H 12.5 12 v -0.5"
       id="path60"
       inkscape:connector-curvature="0" />
    <path
       style="fill:#fc3838;fill-opacity:1"
       d="M 16,11.5 V 11 H 16.5 17 V 11.5 12 H 16.5 16 v -0.5 m 0,0.125 V 12 12.125 12.25 12 q 0,-0.25 0,-0.5 v -0.25 0.375 m 1,0.5 V 12 11.625 11.25 11.5 q 0,0.25 0,0.5 v 0.25 -0.125"
       id="path62"
       inkscape:connector-curvature="0" />
    <path
       style="fill:#fc2222;fill-opacity:1"
       d="M 12,12.5 V 12 H 12.5 13 V 12.5 13 12.625 12.25 12.5 q 0,0.25 -0.03125,0.46875 L 12.9375,13.1875 12.95313,13.078125 12.96876,12.96875 12.484385,12.98438 12,13 v -0.5 m 0,0.125 V 13 13.125 13.25 13 q 0,-0.25 0,-0.5 v -0.25 0.375"
       id="path64"
       inkscape:connector-curvature="0" />
    <path
       style="fill:#fc2928;fill-opacity:1"
       d="M 16,12.5 V 12 h 0.5 0.5 v 0.5 0.5 l -0.484375,-0.01563 -0.484375,-0.01563 0.01563,0.109375 0.01563,0.109375 -0.03125,-0.21875 Q 16,12.75 16,12.5 V 12.25 12.625 13 12.5 m 1,0.625 V 13 12.625 12.25 12.5 q 0,0.25 0,0.5 v 0.25 -0.125 m 0,-0.75 V 12 11.875 11.75 12 q 0,0.25 0,0.5 v 0.25 -0.375 m -1,-0.5 V 12 12.375 12.75 12.5 q 0,-0.25 0,-0.5 v -0.25 0.125"
       id="path66"
       inkscape:connector-curvature="0" />
    <path
       style="fill:#fc1010;fill-opacity:1"
       d="M 12,13.5 V 13 L 12.484375,12.98437 12.96875,12.96874 12.98438,12.859365 13,12.75 12.96875,12.96875 Q 12.9375,13.1875 12.875,13.375 L 12.8125,13.5625 12.90625,13.28125 13,13 12.875,13.375 q -0.125,0.375 -0.5,0.5 L 12,14 v -0.5 m 0,-0.625 V 13 13.375 13.75 13.5 q 0,-0.25 0,-0.5 v -0.25 0.125"
       id="path68"
       inkscape:connector-curvature="0" />
    <path
       style="fill:#fc1616;fill-opacity:1"
       d="M 16.125,13.375 16,13 16.09375,13.28125 16.1875,13.5625 16.125,13.375 Q 16.0625,13.1875 16.03125,12.96875 L 16,12.75 l 0.01563,0.109375 0.01563,0.109375 0.484375,0.01563 L 17,13 v 0.5 0.5 l -0.375,-0.125 q -0.375,-0.125 -0.5,-0.5 m 0.875,0 V 13 12.875 12.75 13 q 0,0.25 0,0.5 v 0.25 -0.375"
       id="path70"
       inkscape:connector-curvature="0" />
    <path
       style="fill:#fc0606;fill-opacity:1"
       d="M 12,14.5 V 14 L 12.375,13.875 12.75,13.75 12.46875,13.84375 12.1875,13.9375 12.375,13.875 q 0.1875,-0.0625 0.3125,-0.1875 l 0.125,-0.125 -0.0625,0.0625 -0.0625,0.0625 0.28125,0.28125 Q 13.25,14.25 13.125,14.625 L 13,15 12.453125,14.95313 11.90625,14.90626 l -0.04687,0.07813 -0.04687,0.07813 0.09375,-0.15625 Q 12,14.75 12,14.5 V 14.25 14.625 15 14.5"
       id="path72"
       inkscape:connector-curvature="0" />
    <path
       style="fill:#fc0909;fill-opacity:1"
       d="M 15.875,14.625 Q 15.75,14.25 16.03125,13.96875 L 16.3125,13.6875 16.25,13.625 l -0.0625,-0.0625 0.125,0.125 q 0.125,0.125 0.3125,0.1875 L 16.8125,13.9375 16.53125,13.84375 16.25,13.75 16.625,13.875 17,14 V 14.5 15 14.625 14.25 14.5 q 0,0.25 0.09375,0.40625 L 17.1875,15.0625 17.14063,14.98437 17.09376,14.90624 16.546885,14.95311 16,15 15.875,14.625"
       id="path74"
       inkscape:connector-curvature="0" />
    <path
       style="fill:#fd7070;fill-opacity:1"
       d="m 11.125,15.625 q 0.125,-0.375 0.5,-0.5 L 12,15 11.71875,15.09375 11.4375,15.1875 11.625,15.125 q 0.1875,-0.0625 0.28125,-0.21875 L 12,14.75 11.95313,14.82813 11.90626,14.90626 11.95313,15.453135 12,16 11.515625,16.015625 11.03125,16.03125 11.015625,16.140625 11,16.25 11.03125,16.03125 Q 11.0625,15.8125 11.125,15.625 L 11.1875,15.4375 11.09375,15.71875 11,16 11.125,15.625 M 12,16.125 V 16 15.625 15.25 15.5 q 0,0.25 0,0.5 v 0.25 -0.125"
       id="path76"
       inkscape:connector-curvature="0" />
    <path
       style="fill:#fc0101;fill-opacity:1"
       d="M 11.953125,15.453125 11.90625,14.90625 12.453125,14.953125 13,15 v 0.5 Q 13,16 12.5,16 H 12 l -0.04687,-0.546875"
       id="path78"
       inkscape:connector-curvature="0" />
    <path
       style="fill:#fc0403;fill-opacity:1"
       d="M 16,15.5 V 15 L 16.546875,14.95313 17.09375,14.90626 17.04688,15.453135 17,16 H 16.5 Q 16,16 16,15.5"
       id="path80"
       inkscape:connector-curvature="0" />
    <path
       style="fill:#fd9393;fill-opacity:1"
       d="M 17.046875,15.453125 17.09375,14.90625 17.046875,14.828125 17,14.75 17.09375,14.90625 Q 17.1875,15.0625 17.375,15.125 L 17.5625,15.1875 17.28125,15.09375 17,15 l 0.375,0.125 q 0.375,0.125 0.5,0.5 L 18,16 17.90625,15.71875 17.8125,15.4375 17.875,15.625 q 0.0625,0.1875 0.09375,0.40625 L 18,16.25 17.984375,16.140625 17.96875,16.03125 17.484375,16.015625 17,16 17.046875,15.453125 M 17,15.625 V 16 16.125 16.25 16 q 0,-0.25 0,-0.5 v -0.25 0.375"
       id="path82"
       inkscape:connector-curvature="0" />
    <path
       style="fill:#fc4d4d;fill-opacity:1"
       d="M 11,16.5 V 16 16.375 16.75 16.5 q 0,-0.25 0.03125,-0.46875 L 11.0625,15.8125 11.04687,15.921875 11.03124,16.03125 11.515615,16.01562 12,16 V 16.5 17 16.625 16.25 16.5 q 0,0.25 -0.03125,0.46875 L 11.9375,17.1875 11.95313,17.078125 11.96876,16.96875 11.484385,16.98438 11,17 v -0.5 m 0,0.125 V 17 17.125 17.25 17 q 0,-0.25 0,-0.5 v -0.25 0.375 m 1,-0.25 V 16 15.875 15.75 16 q 0,0.25 0,0.5 v 0.25 -0.375"
       id="path84"
       inkscape:connector-curvature="0" />
    <path
       style="fill:#fd5755;fill-opacity:1"
       d="M 17,16.5 V 16 l 0.484375,0.01563 0.484375,0.01563 -0.01563,-0.109375 -0.01563,-0.109375 0.03125,0.21875 Q 18,16.25 18,16.5 V 16.75 16.375 16 16.5 17 l -0.484375,-0.01563 -0.484375,-0.01563 0.01563,0.109375 0.01563,0.109375 -0.03125,-0.21875 Q 17,16.75 17,16.5 V 16.25 16.625 17 16.5 m 1,0.625 V 17 16.625 16.25 16.5 q 0,0.25 0,0.5 v 0.25 -0.125 m -1,-1.25 V 16 16.375 16.75 16.5 q 0,-0.25 0,-0.5 v -0.25 0.125"
       id="path86"
       inkscape:connector-curvature="0" />
    <path
       style="fill:#fc1e1e;fill-opacity:1"
       d="M 11,17.5 V 17 L 11.484375,16.98437 11.96875,16.96874 11.98438,16.859365 12,16.75 11.96875,16.96875 Q 11.9375,17.1875 11.875,17.375 L 11.8125,17.5625 11.90625,17.28125 12,17 11.875,17.375 q -0.125,0.375 -0.5,0.5 L 11,18 v -0.5 m 0,0.125 V 18 18.125 18.25 18 q 0,-0.25 0,-0.5 v -0.25 0.375 m 0,-0.75 V 17 17.375 17.75 17.5 q 0,-0.25 0,-0.5 v -0.25 0.125"
       id="path88"
       inkscape:connector-curvature="0" />
    <path
       style="fill:#fc2928;fill-opacity:1"
       d="M 17.125,17.375 17,17 17.09375,17.28125 17.1875,17.5625 17.125,17.375 Q 17.0625,17.1875 17.03125,16.96875 L 17,16.75 l 0.01563,0.109375 0.01563,0.109375 0.484375,0.01563 L 18,17 v 0.5 0.5 l -0.375,-0.125 q -0.375,-0.125 -0.5,-0.5 M 18,18.125 V 18 17.625 17.25 17.5 q 0,0.25 0,0.5 v 0.25 -0.125 m 0,-0.75 V 17 16.875 16.75 17 q 0,0.25 0,0.5 v 0.25 -0.375"
       id="path90"
       inkscape:connector-curvature="0" />
    <path
       style="fill:#fc0404;fill-opacity:1"
       d="M 11,18.5 V 18 L 11.375,17.875 11.75,17.75 11.46875,17.84375 11.1875,17.9375 11.375,17.875 q 0.1875,-0.0625 0.3125,-0.1875 l 0.125,-0.125 -0.0625,0.0625 -0.0625,0.0625 0.28125,0.28125 Q 12.25,18.25 12.125,18.625 12,19 11.453125,18.953125 l -0.546875,-0.04687 -0.04687,0.07813 -0.04687,0.07813 0.09375,-0.15625 Q 11,18.75 11,18.5 V 18.25 18.625 19 18.5 m 0,-0.625 V 18 18.375 18.75 18.5 q 0,-0.25 0,-0.5 v -0.25 0.125"
       id="path92"
       inkscape:connector-curvature="0" />
    <path
       style="fill:#fc0b0b;fill-opacity:1"
       d="M 16.875,18.625 Q 16.75,18.25 17.03125,17.96875 L 17.3125,17.6875 17.25,17.625 l -0.0625,-0.0625 0.125,0.125 q 0.125,0.125 0.3125,0.1875 L 17.8125,17.9375 17.53125,17.84375 17.25,17.75 17.625,17.875 18,18 V 18.5 19 18.625 18.25 18.5 q 0,0.25 0.09375,0.40625 L 18.1875,19.0625 18.14063,18.98437 18.09376,18.90624 17.546885,18.95311 17,19 16.875,18.625 M 18,18.375 V 18 17.875 17.75 18 q 0,0.25 0,0.5 v 0.25 -0.375"
       id="path94"
       inkscape:connector-curvature="0" />
    <path
       style="fill:#fd5958;fill-opacity:1"
       d="m 2.25,19.5 q 0,-0.25 0.375,-0.375 L 3,19 2.71875,19.09375 2.4375,19.1875 2.625,19.125 Q 2.8125,19.0625 3.03125,19.03125 L 3.25,19 3.140625,19.015625 3.03125,19.03125 2.96875,19.5625 2.90625,20.09375 2.953125,20.171875 3,20.25 2.90625,20.09375 Q 2.8125,19.9375 2.625,19.875 L 2.4375,19.8125 2.71875,19.90625 3,20 2.625,19.875 Q 2.25,19.75 2.25,19.5"
       id="path96"
       inkscape:connector-curvature="0" />
    <path
       style="fill:#fc1615;fill-opacity:1"
       d="M 2.96875,19.5625 3.03125,19.03125 2.921875,19.046875 2.8125,19.0625 3.03125,19.03125 Q 3.25,19 3.5,19 H 3.75 3.375 3 3.5 4 V 19.5 20 L 3.453125,20.046875 2.90625,20.09375 2.96875,19.5625 M 4.125,19 H 4 3.625 3.25 3.5 Q 3.75,19 4,19 H 4.25 4.125"
       id="path98"
       inkscape:connector-curvature="0" />
    <path
       style="fill:#fc2828;fill-opacity:1"
       d="M 4,19.5 V 19 H 4.5 5 V 19.5 20 H 4.5 4 V 19.5 M 3.875,20 H 4 4.375 4.75 4.5 Q 4.25,20 4,20 H 3.75 3.875 m 0.75,0 H 5 5.125 5.25 5 Q 4.75,20 4.5,20 H 4.25 4.625 m 0.5,-1 H 5 4.625 4.25 4.5 Q 4.75,19 5,19 H 5.25 5.125 m -0.75,0 H 4 3.875 3.75 4 q 0.25,0 0.5,0 H 4.75 4.375"
       id="path100"
       inkscape:connector-curvature="0" />
    <path
       style="fill:#fc3837;fill-opacity:1"
       d="M 5,19.5 V 19 H 5.5 6 V 19.5 20 H 5.5 5 V 19.5 M 4.875,20 H 5 5.375 5.75 5.5 Q 5.25,20 5,20 H 4.75 4.875 m 0.75,0 H 6 6.125 6.25 6 Q 5.75,20 5.5,20 H 5.25 5.625 m 0.5,-1 H 6 5.625 5.25 5.5 Q 5.75,19 6,19 H 6.25 6.125 m -0.75,0 H 5 4.875 4.75 5 q 0.25,0 0.5,0 H 5.75 5.375"
       id="path102"
       inkscape:connector-curvature="0" />
    <path
       style="fill:#fc4948;fill-opacity:1"
       d="M 6,19.5 V 19 H 6.5 7 V 19.5 20 H 6.5 6 V 19.5 M 5.875,20 H 6 6.375 6.75 6.5 Q 6.25,20 6,20 H 5.75 5.875 m 0.75,0 H 7 7.125 7.25 7 Q 6.75,20 6.5,20 H 6.25 6.625 m 0.5,-1 H 7 6.625 6.25 6.5 Q 6.75,19 7,19 H 7.25 7.125 m -0.75,0 H 6 5.875 5.75 6 q 0.25,0 0.5,0 H 6.75 6.375"
       id="path104"
       inkscape:connector-curvature="0" />
    <path
       style="fill:#fd5c5c;fill-opacity:1"
       d="M 7,19.5 V 19 H 7.5 8 7.625 7.25 7.5 q 0.25,0 0.46875,0.03125 L 8.1875,19.0625 8.078125,19.046875 7.96875,19.03125 7.984375,19.515625 8,20 H 7.5 7 V 19.5 M 6.875,20 H 7 7.375 7.75 7.5 Q 7.25,20 7,20 H 6.75 6.875 m 0.75,0 H 8 8.125 8.25 8 Q 7.75,20 7.5,20 H 7.25 7.625 M 7.375,19 H 7 6.875 6.75 7 q 0.25,0 0.5,0 H 7.75 7.375"
       id="path106"
       inkscape:connector-curvature="0" />
    <path
       style="fill:#fd7d7d;fill-opacity:1"
       d="M 7.984375,19.515625 7.96875,19.03125 7.859375,19.015625 7.75,19 7.96875,19.03125 Q 8.1875,19.0625 8.375,19.125 L 8.5625,19.1875 8.28125,19.09375 8,19 8.375,19.125 q 0.375,0.125 0.5,0.5 L 9,20 8.90625,19.71875 8.8125,19.4375 8.875,19.625 q 0.0625,0.1875 0.21875,0.28125 L 9.25,20 9.171875,19.953125 9.09375,19.90625 8.546875,19.953125 8,20 7.984375,19.515625 M 7.875,20 H 8 8.375 8.75 8.5 Q 8.25,20 8,20 H 7.75 7.875"
       id="path108"
       inkscape:connector-curvature="0" />
    <path
       style="fill:#fc3c3c;fill-opacity:1"
       d="m 10.125,19.625 q 0.125,-0.375 0.5,-0.5 L 11,19 10.71875,19.09375 10.4375,19.1875 10.625,19.125 q 0.1875,-0.0625 0.28125,-0.21875 L 11,18.75 l -0.04687,0.07813 -0.04687,0.07813 -0.07813,0.421875 q -0.07813,0.421875 -0.5,0.5 L 9.90625,19.90625 9.828125,19.953125 9.75,20 9.90625,19.90625 Q 10.0625,19.8125 10.125,19.625 L 10.1875,19.4375 10.09375,19.71875 10,20 10.125,19.625"
       id="path110"
       inkscape:connector-curvature="0" />
    <path
       style="fill:#fc0101;fill-opacity:1"
       d="M 17,19.5 V 19 l 0.546875,-0.04687 0.546875,-0.04687 0.07813,0.421875 L 18.25,19.75 18.15625,19.46875 18.0625,19.1875 18.125,19.375 q 0.0625,0.1875 0.1875,0.3125 l 0.125,0.125 L 18.375,19.75 18.3125,19.6875 18,20 l -0.3125,0.3125 0.0625,0.0625 0.0625,0.0625 -0.125,-0.125 Q 17.5625,20.1875 17.375,20.125 L 17.1875,20.0625 17.46875,20.15625 17.75,20.25 17.375,20.125 Q 17,20 17,19.5"
       id="path112"
       inkscape:connector-curvature="0" />
    <path
       style="fill:#fc4848;fill-opacity:1"
       d="M 18.171875,19.328125 18.09375,18.90625 18.046875,18.828125 18,18.75 18.09375,18.90625 Q 18.1875,19.0625 18.375,19.125 L 18.5625,19.1875 18.28125,19.09375 18,19 l 0.375,0.125 q 0.375,0.125 0.5,0.5 L 19,20 18.90625,19.71875 18.8125,19.4375 18.875,19.625 q 0.0625,0.1875 0.21875,0.28125 L 19.25,20 19.17187,19.95313 19.09374,19.90626 18.671865,19.82813 q -0.421875,-0.07813 -0.5,-0.5"
       id="path114"
       inkscape:connector-curvature="0" />
    <path
       style="fill:#fd9292;fill-opacity:1"
       d="m 20.125,19.625 q 0.125,-0.375 0.5,-0.5 L 21,19 20.71875,19.09375 20.4375,19.1875 20.625,19.125 q 0.1875,-0.0625 0.40625,-0.09375 L 21.25,19 21.140625,19.015625 21.03125,19.03125 21.015625,19.515625 21,20 20.453125,19.953125 19.90625,19.90625 19.828125,19.953125 19.75,20 19.90625,19.90625 Q 20.0625,19.8125 20.125,19.625 L 20.1875,19.4375 20.09375,19.71875 20,20 20.125,19.625 M 20.625,20 H 21 21.125 21.25 21 q -0.25,0 -0.5,0 h -0.25 0.375"
       id="path116"
       inkscape:connector-curvature="0" />
    <path
       style="fill:#fd7070;fill-opacity:1"
       d="m 21.015625,19.515625 0.01563,-0.484375 -0.109375,0.01563 -0.109375,0.01563 0.21875,-0.03125 Q 21.25,19 21.5,19 H 21.75 21.375 21 21.5 22 V 19.5 20 H 21.5 21 l 0.01563,-0.484375 M 20.875,20 H 21 21.375 21.75 21.5 q -0.25,0 -0.5,0 h -0.25 0.125 m 0.75,0 H 22 22.125 22.25 22 q -0.25,0 -0.5,0 h -0.25 0.375 m 0.5,-1 H 22 21.625 21.25 21.5 q 0.25,0 0.5,0 h 0.25 -0.125"
       id="path118"
       inkscape:connector-curvature="0" />
    <path
       style="fill:#fc5554;fill-opacity:1"
       d="M 22,19.5 V 19 H 22.5 23 V 19.5 20 H 22.5 22 V 19.5 M 21.875,20 H 22 22.375 22.75 22.5 q -0.25,0 -0.5,0 h -0.25 0.125 m 0.75,0 H 23 23.125 23.25 23 q -0.25,0 -0.5,0 h -0.25 0.375 m 0.5,-1 H 23 22.625 22.25 22.5 q 0.25,0 0.5,0 h 0.25 -0.125 m -0.75,0 H 22 21.875 21.75 22 q 0.25,0 0.5,0 h 0.25 -0.375"
       id="path120"
       inkscape:connector-curvature="0" />
    <path
       style="fill:#fc4343;fill-opacity:1"
       d="M 23,19.5 V 19 H 23.5 24 V 19.5 20 H 23.5 23 V 19.5 M 22.875,20 H 23 23.375 23.75 23.5 q -0.25,0 -0.5,0 h -0.25 0.125 m 0.75,0 H 24 24.125 24.25 24 q -0.25,0 -0.5,0 h -0.25 0.375 m 0.5,-1 H 24 23.625 23.25 23.5 q 0.25,0 0.5,0 h 0.25 -0.125 m -0.75,0 H 23 22.875 22.75 23 q 0.25,0 0.5,0 h 0.25 -0.375"
       id="path122"
       inkscape:connector-curvature="0" />
    <path
       style="fill:#fc2e2d;fill-opacity:1"
       d="M 24,19.5 V 19 H 24.5 25 V 19.5 20 H 24.5 24 V 19.5 M 23.875,20 H 24 24.375 24.75 24.5 q -0.25,0 -0.5,0 h -0.25 0.125 M 25,20.125 V 20 19.625 19.25 19.5 q 0,0.25 0,0.5 v 0.25 -0.125 M 25.125,19 H 25 24.625 24.25 24.5 q 0.25,0 0.5,0 h 0.25 -0.125 m -0.75,0 H 24 23.875 23.75 24 q 0.25,0 0.5,0 h 0.25 -0.375"
       id="path124"
       inkscape:connector-curvature="0" />
    <path
       style="fill:#fc1919;fill-opacity:1"
       d="M 25,19.5 V 19 H 25.5 26 25.625 25.25 25.5 q 0.25,0 0.46875,0.03125 l 0.21875,0.03125 -0.109375,-0.01563 -0.109375,-0.01563 0.0625,0.53125 0.0625,0.53125 L 25.546875,20.04687 25,20 V 19.5 M 25.375,19 H 25 24.875 24.75 25 q 0.25,0 0.5,0 h 0.25 -0.375"
       id="path126"
       inkscape:connector-curvature="0" />
    <path
       style="fill:#fd6969;fill-opacity:1"
       d="M 26.03125,19.5625 25.96875,19.03125 25.859375,19.015625 25.75,19 25.96875,19.03125 Q 26.1875,19.0625 26.375,19.125 L 26.5625,19.1875 26.28125,19.09375 26,19 l 0.375,0.125 q 0.375,0.125 0.375,0.375 0,0.25 -0.375,0.375 L 26,20 26.28125,19.90625 26.5625,19.8125 26.375,19.875 q -0.1875,0.0625 -0.28125,0.21875 L 26,20.25 l 0.04687,-0.07813 0.04687,-0.07813 -0.0625,-0.53125"
       id="path128"
       inkscape:connector-curvature="0" />
    <path
       style="fill:#fc0a0a;fill-opacity:1"
       d="M 3,20.5 V 20 20.375 20.75 20.5 Q 3,20.25 2.90625,20.09375 L 2.8125,19.9375 2.859375,20.015625 2.90625,20.09375 3.453125,20.046875 4,20 4.125,20.375 Q 4.25,20.75 3.96875,21.03125 L 3.6875,21.3125 3.75,21.375 3.8125,21.4375 3.6875,21.3125 Q 3.5625,21.1875 3.375,21.125 L 3.1875,21.0625 3.46875,21.15625 3.75,21.25 3.375,21.125 3,21 v -0.5 m 0,0.125 V 21 21.125 21.25 21 q 0,-0.25 0,-0.5 v -0.25 0.375"
       id="path130"
       inkscape:connector-curvature="0" />
    <path
       style="fill:#fc0303;fill-opacity:1"
       d="M 8,20.5 V 20 L 8.546875,19.953125 9.09375,19.90625 9.046875,20.453125 9,21 H 8.5 Q 8,21 8,20.5"
       id="path132"
       inkscape:connector-curvature="0" />
    <path
       style="fill:#fc0707;fill-opacity:1"
       d="M 9.046875,20.453125 9.09375,19.90625 9.015625,19.859375 8.9375,19.8125 9.09375,19.90625 Q 9.25,20 9.5,20 H 9.75 9.375 9 9.5 10 9.625 9.25 9.5 q 0.25,0 0.40625,-0.09375 L 10.0625,19.8125 9.984375,19.859375 9.90625,19.90625 9.953125,20.453125 10,21 H 9.5 9 l 0.046875,-0.546875"
       id="path134"
       inkscape:connector-curvature="0" />
    <path
       style="fill:#fc0202;fill-opacity:1"
       d="M 9.953125,20.453125 9.90625,19.90625 10.328125,19.828125 10.75,19.75 10.46875,19.84375 10.1875,19.9375 10.375,19.875 q 0.1875,-0.0625 0.3125,-0.1875 l 0.125,-0.125 -0.0625,0.0625 -0.0625,0.0625 0.28125,0.28125 Q 11.25,20.25 11.125,20.625 11,21 10.5,21 H 10 L 9.953125,20.453125"
       id="path136"
       inkscape:connector-curvature="0" />
    <path
       style="fill:#fc0202;fill-opacity:1"
       d="M 17.875,20.625 17.75,20.25 17.84375,20.53125 17.9375,20.8125 17.875,20.625 q -0.0625,-0.1875 -0.1875,-0.3125 l -0.125,-0.125 0.0625,0.0625 0.0625,0.0625 L 18,20 18.3125,19.6875 18.25,19.625 l -0.0625,-0.0625 0.125,0.125 q 0.125,0.125 0.3125,0.1875 L 18.8125,19.9375 18.53125,19.84375 18.25,19.75 18.671875,19.82813 19.09375,19.90626 19.04688,20.453135 19,21 H 18.5 Q 18,21 17.875,20.625"
       id="path138"
       inkscape:connector-curvature="0" />
    <path
       style="fill:#fc0808;fill-opacity:1"
       d="m 19.046875,20.453125 0.04687,-0.546875 -0.07813,-0.04687 -0.07813,-0.04687 0.15625,0.09375 Q 19.25,20 19.5,20 H 19.75 19.375 19 19.5 20 19.625 19.25 19.5 q 0.25,0 0.40625,-0.09375 l 0.15625,-0.09375 -0.07813,0.04687 -0.07813,0.04687 0.04687,0.546875 L 20,21 H 19.5 19 l 0.04687,-0.546875"
       id="path140"
       inkscape:connector-curvature="0" />
    <path
       style="fill:#fc0606;fill-opacity:1"
       d="M 19.953125,20.453125 19.90625,19.90625 20.453125,19.953125 21,20 V 20.5 21 H 20.5 20 l -0.04687,-0.546875"
       id="path142"
       inkscape:connector-curvature="0" />
    <path
       style="fill:#fc0202;fill-opacity:1"
       d="M 21,20.5 V 20 h 0.5 0.5 v 0.5 Q 22,21 21.5,21 H 21 v -0.5"
       id="path144"
       inkscape:connector-curvature="0" />
    <path
       style="fill:#fc1212;fill-opacity:1"
       d="M 25,20.5 V 20 l 0.546875,0.04687 0.546875,0.04687 0.04687,-0.07813 0.04687,-0.07813 -0.09375,0.15625 Q 26,20.25 26,20.5 V 20.75 20.375 20 20.5 21 20.625 20.25 20.5 q 0,0.25 -0.03125,0.46875 L 25.9375,21.1875 25.95313,21.078125 25.96876,20.96875 25.484385,20.98438 25,21 v -0.5 m 0,0.125 V 21 21.125 21.25 21 q 0,-0.25 0,-0.5 v -0.25 0.375"
       id="path146"
       inkscape:connector-curvature="0" />
    <path
       style="fill:#fc3635;fill-opacity:1"
       d="M 3,21.5 V 21 l 0.375,0.125 q 0.375,0.125 0.5,0.5 L 4,22 3.90625,21.71875 3.8125,21.4375 3.875,21.625 q 0.0625,0.1875 0.09375,0.40625 L 4,22.25 3.984375,22.140625 3.96875,22.03125 3.5,22 3.03125,21.96875 3.046875,22.078125 3.0625,22.1875 3.03125,21.96875 Q 3,21.75 3,21.5 V 21.25 21.625 22 21.5 M 3,20.875 V 21 21.375 21.75 21.5 Q 3,21.25 3,21 v -0.25 0.125"
       id="path148"
       inkscape:connector-curvature="0" />
    <path
       style="fill:#fc403f;fill-opacity:1"
       d="M 25.046875,21.546875 25,21 25.484375,20.984375 25.96875,20.96875 25.984375,20.859375 26,20.75 25.96875,20.96875 Q 25.9375,21.1875 25.875,21.375 L 25.8125,21.5625 25.90625,21.28125 26,21 25.875,21.375 q -0.125,0.375 -0.5,0.5 L 25,22 25.28125,21.90625 25.5625,21.8125 25.375,21.875 q -0.1875,0.0625 -0.28125,0.21875 L 25,22.25 25.04687,22.17187 25.09374,22.09374 25.04687,21.546865 M 25,20.875 V 21 21.375 21.75 21.5 q 0,-0.25 0,-0.5 v -0.25 0.125"
       id="path150"
       inkscape:connector-curvature="0" />
    <path
       style="fill:#fd8988;fill-opacity:1"
       d="M 3.125,22.375 3,22 3.09375,22.28125 3.1875,22.5625 3.125,22.375 Q 3.0625,22.1875 3.03125,21.96875 L 3,21.75 3.015625,21.859375 3.03125,21.96875 3.5,22 3.96875,22.03125 3.953125,21.921875 3.9375,21.8125 3.96875,22.03125 Q 4,22.25 4,22.5 V 22.75 22.375 22 22.5 23 L 3.625,22.875 q -0.375,-0.125 -0.5,-0.5"
       id="path152"
       inkscape:connector-curvature="0" />
    <path
       style="fill:#fc0605;fill-opacity:1"
       d="M 4,22.5 V 22 H 4.5 Q 5,22 5,22.5 V 23 H 4.5 4 v -0.5"
       id="path154"
       inkscape:connector-curvature="0" />
    <path
       style="fill:#fc0606;fill-opacity:1"
       d="m 24,22.5 q 0,-0.5 0.546875,-0.453125 l 0.546875,0.04687 0.04687,-0.07813 0.04687,-0.07813 -0.09375,0.15625 Q 25,22.25 25,22.5 V 22.75 22.375 22 22.5 23 22.625 22.25 22.5 q 0,0.25 -0.03125,0.46875 L 24.9375,23.1875 24.95313,23.078125 24.96876,22.96875 24.484385,22.98438 24,23 v -0.5"
       id="path156"
       inkscape:connector-curvature="0" />
    <path
       style="fill:#fd5a59;fill-opacity:1"
       d="M 4.125,23.375 4,23 H 4.5 5 L 5.015625,23.484375 5.03125,23.96875 5.140625,23.984375 5.25,24 5.03125,23.96875 Q 4.8125,23.9375 4.625,23.875 L 4.4375,23.8125 4.71875,23.90625 5,24 4.625,23.875 Q 4.25,23.75 4.125,23.375 M 5.125,23 H 5 4.625 4.25 4.5 Q 4.75,23 5,23 H 5.25 5.125"
       id="path158"
       inkscape:connector-curvature="0" />
    <path
       style="fill:#fc4c4c;fill-opacity:1"
       d="M 5.015625,23.484375 5,23 H 5.5 6 V 23.5 24 H 5.5 5 5.375 5.75 5.5 Q 5.25,24 5.03125,23.96875 L 4.8125,23.9375 4.921875,23.953125 5.03125,23.96875 5.015625,23.484375 M 5.375,23 H 5 4.875 4.75 5 q 0.25,0 0.5,0 H 5.75 5.375"
       id="path160"
       inkscape:connector-curvature="0" />
    <path
       style="fill:#fd5756;fill-opacity:1"
       d="M 6,23.5 V 23 H 6.5 7 V 23.5 24 H 6.5 6 v -0.5"
       id="path162"
       inkscape:connector-curvature="0" />
    <path
       style="fill:#fc5150;fill-opacity:1"
       d="M 7,23.5 V 23 H 7.5 8 V 23.5 24 H 7.5 7 V 23.5 M 7.625,24 H 8 8.125 8.25 8 Q 7.75,24 7.5,24 H 7.25 7.625 m 0.5,-1 H 8 7.625 7.25 7.5 Q 7.75,23 8,23 H 8.25 8.125"
       id="path164"
       inkscape:connector-curvature="0" />
    <path
       style="fill:#fc2e2e;fill-opacity:1"
       d="M 8,23.5 V 23 H 8.5 9 8.625 8.25 8.5 q 0.25,0 0.46875,0.03125 L 9.1875,23.0625 9.078125,23.046875 8.96875,23.03125 8.984375,23.515625 9,24 H 8.5 8 V 23.5 M 7.875,24 H 8 8.375 8.75 8.5 Q 8.25,24 8,24 H 7.75 7.875 m 0.75,0 H 9 9.125 9.25 9 Q 8.75,24 8.5,24 H 8.25 8.625 M 8.375,23 H 8 7.875 7.75 8 q 0.25,0 0.5,0 H 8.75 8.375"
       id="path166"
       inkscape:connector-curvature="0" />
    <path
       style="fill:#fc0f0f;fill-opacity:1"
       d="M 8.984375,23.515625 8.96875,23.03125 8.859375,23.015625 8.75,23 8.96875,23.03125 Q 9.1875,23.0625 9.375,23.125 L 9.5625,23.1875 9.28125,23.09375 9,23 9.375,23.125 Q 9.75,23.25 9.828125,23.671875 L 9.90625,24.09375 9.984375,24.140625 10.0625,24.1875 9.90625,24.09375 Q 9.75,24 9.5,24 H 9.25 9.625 10 9.5 9 L 8.984375,23.515625 M 8.875,24 H 9 9.375 9.75 9.5 Q 9.25,24 9,24 H 8.75 8.875"
       id="path168"
       inkscape:connector-curvature="0" />
    <path
       style="fill:#fc0303;fill-opacity:1"
       d="M 9.828125,23.671875 9.75,23.25 9.84375,23.53125 9.9375,23.8125 9.875,23.625 Q 9.8125,23.4375 9.6875,23.3125 L 9.5625,23.1875 9.625,23.25 9.6875,23.3125 9.96875,23.03125 Q 10.25,22.75 10.625,22.875 11,23 11,23.5 V 24 L 10.453125,24.04687 9.90625,24.09374 9.828125,23.671865"
       id="path170"
       inkscape:connector-curvature="0" />
    <path
       style="fill:#fc0303;fill-opacity:1"
       d="m 18,23.5 q 0,-0.5 0.375,-0.625 0.375,-0.125 0.65625,0.15625 l 0.28125,0.28125 0.0625,-0.0625 0.0625,-0.0625 -0.125,0.125 q -0.125,0.125 -0.1875,0.3125 L 19.0625,23.8125 19.15625,23.53125 19.25,23.25 19.125,23.625 19,24 H 18.5 18 v -0.5"
       id="path172"
       inkscape:connector-curvature="0" />
    <path
       style="fill:#fc1413;fill-opacity:1"
       d="m 19.125,23.625 q 0.125,-0.375 0.5,-0.5 L 20,23 19.71875,23.09375 19.4375,23.1875 19.625,23.125 q 0.1875,-0.0625 0.40625,-0.09375 L 20.25,23 20.140625,23.015625 20.03125,23.03125 20.015625,23.515625 20,24 H 19.5 19 l 0.125,-0.375 M 19.625,24 H 20 20.125 20.25 20 q -0.25,0 -0.5,0 h -0.25 0.375"
       id="path174"
       inkscape:connector-curvature="0" />
    <path
       style="fill:#fc3433;fill-opacity:1"
       d="m 20.015625,23.515625 0.01563,-0.484375 -0.109375,0.01563 -0.109375,0.01563 0.21875,-0.03125 Q 20.25,23 20.5,23 H 20.75 20.375 20 20.5 21 V 23.5 24 H 20.5 20 l 0.01563,-0.484375 M 19.875,24 H 20 20.375 20.75 20.5 q -0.25,0 -0.5,0 h -0.25 0.125 m 0.75,0 H 21 21.125 21.25 21 q -0.25,0 -0.5,0 h -0.25 0.375 m 0.5,-1 H 21 20.625 20.25 20.5 q 0.25,0 0.5,0 h 0.25 -0.125"
       id="path176"
       inkscape:connector-curvature="0" />
    <path
       style="fill:#fc5352;fill-opacity:1"
       d="M 21,23.5 V 23 H 21.5 22 V 23.5 24 H 21.5 21 V 23.5 M 20.875,24 H 21 21.375 21.75 21.5 q -0.25,0 -0.5,0 h -0.25 0.125 m 0.5,-1 H 21 20.875 20.75 21 q 0.25,0 0.5,0 h 0.25 -0.375"
       id="path178"
       inkscape:connector-curvature="0" />
    <path
       style="fill:#fc5453;fill-opacity:1"
       d="M 22,23.5 V 23 H 22.5 23 V 23.5 24 H 22.5 22 v -0.5"
       id="path180"
       inkscape:connector-curvature="0" />
    <path
       style="fill:#fc4848;fill-opacity:1"
       d="M 23,23.5 V 23 h 0.5 0.5 l -0.01563,0.484375 -0.01563,0.484375 0.109375,-0.01563 0.109375,-0.01563 -0.21875,0.03125 Q 23.75,24 23.5,24 H 23.25 23.625 24 23.5 23 V 23.5 M 24.125,23 H 24 23.625 23.25 23.5 q 0.25,0 0.5,0 h 0.25 -0.125"
       id="path182"
       inkscape:connector-curvature="0" />
    <path
       style="fill:#fd6565;fill-opacity:1"
       d="M 23.984375,23.484375 24,23 24.484375,22.984375 24.96875,22.96875 24.984375,22.859375 25,22.75 24.96875,22.96875 Q 24.9375,23.1875 24.875,23.375 L 24.8125,23.5625 24.90625,23.28125 25,23 24.875,23.375 q -0.125,0.375 -0.5,0.5 L 24,24 24.28125,23.90625 24.5625,23.8125 24.375,23.875 q -0.1875,0.0625 -0.40625,0.09375 L 23.75,24 23.859375,23.98437 23.96875,23.96874 23.98438,23.484365 M 24.375,23 H 24 23.875 23.75 24 q 0.25,0 0.5,0 h 0.25 -0.375"
       id="path184"
       inkscape:connector-curvature="0" />
    <path
       style="fill:#fd8080;fill-opacity:1"
       d="M 10.125,24.375 10,24 10.09375,24.28125 10.1875,24.5625 10.125,24.375 Q 10.0625,24.1875 9.90625,24.09375 L 9.75,24 9.828125,24.046875 9.90625,24.09375 10.453125,24.046875 11,24 H 10.625 10.25 10.5 q 0.25,0 0.46875,0.03125 L 11.1875,24.0625 11.078125,24.046875 10.96875,24.03125 11,24.5 11.03125,24.96875 11.140625,24.98438 11.25,25 11.03125,24.96875 Q 10.8125,24.9375 10.625,24.875 L 10.4375,24.8125 10.71875,24.90625 11,25 10.625,24.875 q -0.375,-0.125 -0.5,-0.5"
       id="path186"
       inkscape:connector-curvature="0" />
    <path
       style="fill:#fc2424;fill-opacity:1"
       d="M 11,24.5 10.96875,24.03125 10.859375,24.015625 10.75,24 10.96875,24.03125 Q 11.1875,24.0625 11.375,24.125 L 11.5625,24.1875 11.28125,24.09375 11,24 l 0.375,0.125 q 0.375,0.125 0.5,0.5 L 12,25 H 11.5 11 11.375 11.75 11.5 q -0.25,0 -0.46875,-0.03125 L 10.8125,24.9375 10.921875,24.953125 11.03125,24.96875 11,24.5"
       id="path188"
       inkscape:connector-curvature="0" />
    <path
       style="fill:#fc0101;fill-opacity:1"
       d="M 11.875,24.625 11.75,24.25 11.84375,24.53125 11.9375,24.8125 11.875,24.625 q -0.0625,-0.1875 -0.1875,-0.3125 l -0.125,-0.125 0.0625,0.0625 0.0625,0.0625 0.28125,-0.28125 Q 12.25,23.75 12.625,23.875 13,24 13.125,24.375 L 13.25,24.75 13.15625,24.46875 13.0625,24.1875 13.125,24.375 q 0.0625,0.1875 0.1875,0.3125 l 0.125,0.125 L 13.375,24.75 13.3125,24.6875 13,25 l -0.3125,0.3125 0.0625,0.0625 0.0625,0.0625 -0.125,-0.125 Q 12.5625,25.1875 12.375,25.125 L 12.1875,25.0625 12.46875,25.15625 12.75,25.25 12.375,25.125 12,25 11.875,24.625"
       id="path190"
       inkscape:connector-curvature="0" />
    <path
       style="fill:#fc0202;fill-opacity:1"
       d="M 15.875,24.375 Q 16,24 16.375,23.875 16.75,23.75 17.03125,24.03125 l 0.28125,0.28125 0.0625,-0.0625 0.0625,-0.0625 -0.125,0.125 q -0.125,0.125 -0.1875,0.3125 L 17.0625,24.8125 17.15625,24.53125 17.25,24.25 17.125,24.625 17,25 16.625,25.125 16.25,25.25 16.53125,25.15625 16.8125,25.0625 16.625,25.125 q -0.1875,0.0625 -0.3125,0.1875 l -0.125,0.125 L 16.25,25.375 16.3125,25.3125 16,25 15.6875,24.6875 15.625,24.75 l -0.0625,0.0625 0.125,-0.125 q 0.125,-0.125 0.1875,-0.3125 L 15.9375,24.1875 15.84375,24.46875 15.75,24.75 15.875,24.375"
       id="path192"
       inkscape:connector-curvature="0" />
    <path
       style="fill:#fc2929;fill-opacity:1"
       d="m 17.125,24.625 q 0.125,-0.375 0.5,-0.5 L 18,24 17.71875,24.09375 17.4375,24.1875 17.625,24.125 q 0.1875,-0.0625 0.40625,-0.09375 L 18.25,24 18.140625,24.015625 18.03125,24.03125 18,24.5 17.96875,24.96875 18.078125,24.953125 18.1875,24.9375 17.96875,24.96875 Q 17.75,25 17.5,25 H 17.25 17.625 18 17.5 17 l 0.125,-0.375"
       id="path194"
       inkscape:connector-curvature="0" />
    <path
       style="fill:#fd8584;fill-opacity:1"
       d="m 18,24.5 0.03125,-0.46875 -0.109375,0.01563 -0.109375,0.01563 0.21875,-0.03125 Q 18.25,24 18.5,24 H 18.75 18.375 18 18.5 19 l -0.125,0.375 q -0.125,0.375 -0.5,0.5 L 18,25 18.28125,24.90625 18.5625,24.8125 18.375,24.875 q -0.1875,0.0625 -0.40625,0.09375 L 17.75,25 17.859375,24.984375 17.96875,24.96875 18,24.5"
       id="path196"
       inkscape:connector-curvature="0" />
    <path
       style="fill:#fc4c4c;fill-opacity:1"
       d="M 12.125,25.375 12,25 l 0.375,0.125 q 0.375,0.125 0.5,0.5 L 13,26 12.625,25.875 q -0.375,-0.125 -0.5,-0.5"
       id="path198"
       inkscape:connector-curvature="0" />
    <path
       style="fill:#fc0505;fill-opacity:1"
       d="M 12.875,25.625 12.75,25.25 12.84375,25.53125 12.9375,25.8125 12.875,25.625 q -0.0625,-0.1875 -0.1875,-0.3125 l -0.125,-0.125 0.0625,0.0625 0.0625,0.0625 L 13,25 13.3125,24.6875 13.25,24.625 l -0.0625,-0.0625 0.125,0.125 q 0.125,0.125 0.3125,0.1875 L 13.8125,24.9375 13.53125,24.84375 13.25,24.75 13.625,24.875 Q 14,25 14,25.5 V 26 H 13.5 13 l -0.125,-0.375"
       id="path200"
       inkscape:connector-curvature="0" />
    <path
       style="fill:#fc0909;fill-opacity:1"
       d="M 15,25.5 Q 15,25 15.375,24.875 L 15.75,24.75 15.46875,24.84375 15.1875,24.9375 15.375,24.875 q 0.1875,-0.0625 0.3125,-0.1875 l 0.125,-0.125 L 15.75,24.625 15.6875,24.6875 16,25 l 0.3125,0.3125 0.0625,-0.0625 0.0625,-0.0625 -0.125,0.125 q -0.125,0.125 -0.1875,0.3125 L 16.0625,25.8125 16.15625,25.53125 16.25,25.25 16.125,25.625 16,26 H 15.5 15 v -0.5"
       id="path202"
       inkscape:connector-curvature="0" />
    <path
       style="fill:#fd5857;fill-opacity:1"
       d="m 16.125,25.625 q 0.125,-0.375 0.5,-0.5 L 17,25 16.875,25.375 q -0.125,0.375 -0.5,0.5 L 16,26 16.125,25.625"
       id="path204"
       inkscape:connector-curvature="0" />
    <path
       style="fill:#fd7a79;fill-opacity:1"
       d="M 13.125,26.375 13,26 h 0.5 0.5 l 0.01563,0.484375 0.01563,0.484375 0.109375,0.01563 L 14.25,27 14.03125,26.96875 Q 13.8125,26.9375 13.625,26.875 L 13.4375,26.8125 13.71875,26.90625 14,27 13.625,26.875 q -0.375,-0.125 -0.5,-0.5 m 1,-0.375 H 14 13.625 13.25 13.5 q 0.25,0 0.5,0 h 0.25 -0.125"
       id="path206"
       inkscape:connector-curvature="0" />
    <path
       style="fill:#fc4141;fill-opacity:1"
       d="M 14.015625,26.484375 14,26 h 0.5 0.5 l -0.01563,0.484375 -0.01563,0.484375 0.109375,-0.01563 0.109375,-0.01563 -0.21875,0.03125 Q 14.75,27 14.5,27 H 14.25 14.625 15 14.5 14 14.375 14.75 14.5 q -0.25,0 -0.46875,-0.03125 l -0.21875,-0.03125 0.109375,0.01563 0.109375,0.01563 -0.01563,-0.484375 M 15.125,26 H 15 14.625 14.25 14.5 q 0.25,0 0.5,0 h 0.25 -0.125 m -0.75,0 H 14 13.875 13.75 14 q 0.25,0 0.5,0 h 0.25 -0.375"
       id="path208"
       inkscape:connector-curvature="0" />
    <path
       style="fill:#fd8886;fill-opacity:1"
       d="M 14.984375,26.484375 15,26 h 0.5 0.5 l -0.125,0.375 q -0.125,0.375 -0.5,0.5 L 15,27 15.28125,26.90625 15.5625,26.8125 15.375,26.875 q -0.1875,0.0625 -0.40625,0.09375 L 14.75,27 14.859375,26.98437 14.96875,26.96874 14.98438,26.484365 M 15.375,26 H 15 14.875 14.75 15 q 0.25,0 0.5,0 h 0.25 -0.375"
       id="path210"
       inkscape:connector-curvature="0" />
  </g>
</svg>
