<?xml version="1.0" encoding="UTF-8" standalone="no"?>
<!-- Created with Inkscape (http://www.inkscape.org/) -->

<svg
   xmlns:dc="http://purl.org/dc/elements/1.1/"
   xmlns:cc="http://creativecommons.org/ns#"
   xmlns:rdf="http://www.w3.org/1999/02/22-rdf-syntax-ns#"
   xmlns:svg="http://www.w3.org/2000/svg"
   xmlns="http://www.w3.org/2000/svg"
   xmlns:sodipodi="http://sodipodi.sourceforge.net/DTD/sodipodi-0.dtd"
   xmlns:inkscape="http://www.inkscape.org/namespaces/inkscape"
   version="1.1"
   id="svg2"
   width="20"
   height="30"
   viewBox="0 0 20 30"
   sodipodi:docname="Help.svg"
   inkscape:version="0.92.4 (5da689c313, 2019-01-14)">
  <metadata
     id="metadata8">
    <rdf:RDF>
      <cc:Work
         rdf:about="">
        <dc:format>image/svg+xml</dc:format>
        <dc:type
           rdf:resource="http://purl.org/dc/dcmitype/StillImage" />
        <dc:title></dc:title>
      </cc:Work>
    </rdf:RDF>
  </metadata>
  <defs
     id="defs6" />
  <sodipodi:namedview
     pagecolor="#ffffff"
     bordercolor="#666666"
     borderopacity="1"
     objecttolerance="10"
     gridtolerance="10"
     guidetolerance="10"
     inkscape:pageopacity="0"
     inkscape:pageshadow="2"
     inkscape:window-width="1920"
     inkscape:window-height="1001"
     id="namedview4"
     showgrid="false"
     inkscape:zoom="1.9555923"
     inkscape:cx="4.7185136"
     inkscape:cy="-7.8880417"
     inkscape:window-x="-9"
     inkscape:window-y="-9"
     inkscape:window-maximized="1"
     inkscape:current-layer="svg2" />
  <g
     transform="scale(1.25,1.875)"
     id="g578">
    <path
       style="fill:#000000;fill-opacity:0"
       d="M 0,0.5 V 0 H 0.5 1 1.5 2 2.5 3 L 2.875,0.375 Q 2.75,0.75 2.5,1 2.25,1.25 2.125,1.625 2,2 1.625,2.125 1.25,2.25 1.125,2.625 L 1,3 V 3.5 4 4.5 5 5.5 6 6.5 7 7.5 8 8.5 9 L 0.984375,9.515625 0.96875,10.03125 1.078125,10.046875 1.1875,10.0625 0.96875,10.03125 Q 0.75,10 0.5,10 H 0.25 0.625 1 0.5 0 V 9.5 9 8.5 8 7.5 7 6.5 6 5.5 5 4.5 4 3.5 3 2.5 2 1.5 1 0.5"
       id="path296"
       inkscape:connector-curvature="0" />
    <path
       style="fill:#93addb;fill-opacity:1"
       d="M 2.875,0.375 3,0 H 3.5 4 L 4.125,0.375 4.25,0.75 4.15625,0.46875 4.0625,0.1875 4.125,0.375 Q 4.1875,0.5625 4.3125,0.6875 L 4.4375,0.8125 4.375,0.75 4.3125,0.6875 4.03125,1 3.75,1.3125 3.8125,1.34375 3.875,1.375 3.75,1.3125 Q 3.625,1.25 3.5,1.25 H 3.375 3.5625 3.75 3.5 3.25 3.4375 3.625 3.5 q -0.125,0 -0.21875,0.09375 L 3.1875,1.4375 3.234375,1.390625 3.28125,1.34375 3,1.03125 2.71875,0.71875 2.671875,0.796875 2.625,0.875 2.71875,0.71875 Q 2.8125,0.5625 2.875,0.375 L 2.9375,0.1875 2.84375,0.46875 2.75,0.75 2.875,0.375"
       id="path298"
       inkscape:connector-curvature="0" />
    <path
       style="fill:#becfeb;fill-opacity:0.29411765"
       d="M 4.125,0.375 4,0 H 4.5 5 L 5.015625,0.484375 5.03125,0.96875 5.140625,0.984375 5.25,1 5.03125,0.96875 Q 4.8125,0.9375 4.625,0.875 L 4.4375,0.8125 4.71875,0.90625 5,1 4.625,0.875 Q 4.25,0.75 4.125,0.375"
       id="path300"
       inkscape:connector-curvature="0" />
    <path
       style="fill:#ffffff;fill-opacity:0.01176471"
       d="M 5.015625,0.484375 5,0 H 5.5 6 V 0.5 1 H 5.5 5 5.375 5.75 5.5 Q 5.25,1 5.03125,0.96875 L 4.8125,0.9375 4.921875,0.953125 5.03125,0.96875 5.015625,0.484375 M 6,1.125 V 1 0.625 0.25 0.5 Q 6,0.75 6,1 V 1.25 1.125"
       id="path302"
       inkscape:connector-curvature="0" />
    <path
       style="fill:#000000;fill-opacity:0"
       d="M 6,0.5 V 0 H 6.5 7 7.5 8 8.5 9 9.5 10 10.5 11 11.5 12 12.5 13 13.5 14 14.5 15 15.5 16 V 0.5 1 1.5 2 2.5 3 3.5 4 H 15.5 15 14.5 14 13.5 Q 13,4 13,3.5 V 3 L 12.875,2.625 Q 12.75,2.25 12.375,2.125 L 12,2 H 11.5 Q 11,2 10.5,2 H 10 L 9.625,2.125 Q 9.25,2.25 9,2.5 8.75,2.75 8.375,2.875 L 8,3 H 7.5 Q 7,3 6.5,3 6,3 6,2.5 V 2 1.5 Q 6,1 6,0.5"
       id="path304"
       inkscape:connector-curvature="0" />
    <path
       style="fill:#8da3d5;fill-opacity:1"
       d="M 2.125,1.625 Q 2.25,1.25 2.5,1 L 2.75,0.75 2.5625,0.9375 2.375,1.125 2.5,1 Q 2.625,0.875 2.71875,0.71875 L 2.8125,0.5625 2.765625,0.640625 2.71875,0.71875 3,1.03125 3.28125,1.34375 3.328125,1.296875 3.375,1.25 3.28125,1.34375 Q 3.1875,1.4375 3.125,1.625 L 3.0625,1.8125 3.15625,1.53125 3.25,1.25 3.125,1.625 3,2 2.46875,1.96875 1.9375,1.9375 1.875,2 1.8125,2.0625 1.9375,1.9375 Q 2.0625,1.8125 2.125,1.625 L 2.1875,1.4375 2.09375,1.71875 2,2 2.125,1.625"
       id="path306"
       inkscape:connector-curvature="0" />
    <path
       style="fill:#ffffff;fill-opacity:1"
       d="M 3.125,1.625 Q 3.25,1.25 3.5,1.25 3.75,1.25 4,1.5 L 4.25,1.75 3.96875,2.03125 3.6875,2.3125 3.75,2.375 3.8125,2.4375 3.6875,2.3125 Q 3.5625,2.1875 3.375,2.125 L 3.1875,2.0625 3.46875,2.15625 3.75,2.25 3.375,2.125 3,2 3.125,1.625 M 4.3125,1.8125 4.25,1.75 4.0625,1.5625 3.875,1.375 4,1.5 Q 4.125,1.625 4.25,1.75 L 4.375,1.875 4.3125,1.8125"
       id="path308"
       inkscape:connector-curvature="0" />
    <path
       style="fill:#93addb;fill-opacity:0.88627451"
       d="M 4,1.5 3.75,1.25 3.9375,1.4375 4.125,1.625 4,1.5 Q 3.875,1.375 3.75,1.3125 L 3.625,1.25 3.6875,1.28125 3.75,1.3125 4.03125,1 4.3125,0.6875 4.25,0.625 4.1875,0.5625 4.3125,0.6875 Q 4.4375,0.8125 4.625,0.875 L 4.8125,0.9375 4.53125,0.84375 4.25,0.75 4.625,0.875 5,1 5.125,1.375 5.25,1.75 5.15625,1.46875 5.0625,1.1875 5.125,1.375 Q 5.1875,1.5625 5.3125,1.6875 L 5.4375,1.8125 5.375,1.75 5.3125,1.6875 5.015625,1.984375 4.71875,2.28125 4.765625,2.359375 4.8125,2.4375 4.71875,2.28125 Q 4.625,2.125 4.5,2 L 4.375,1.875 4.5625,2.0625 4.75,2.25 4.5,2 Q 4.25,1.75 4,1.5"
       id="path310"
       inkscape:connector-curvature="0" />
    <path
       style="fill:#88a6d5;fill-opacity:0.23529412"
       d="M 5.125,1.375 5,1 H 5.5 6 V 1.5 2 L 5.625,1.875 Q 5.25,1.75 5.125,1.375 M 6,1.375 V 1 0.875 0.75 1 Q 6,1.25 6,1.5 V 1.75 1.375"
       id="path312"
       inkscape:connector-curvature="0" />
    <path
       style="fill:#b1afe2;fill-opacity:1"
       d="M 1.125,2.625 Q 1.25,2.25 1.625,2.125 L 2,2 1.71875,2.09375 1.4375,2.1875 1.625,2.125 Q 1.8125,2.0625 1.9375,1.9375 L 2.0625,1.8125 2,1.875 1.9375,1.9375 2.09375,2.34375 2.25,2.75 2.15625,2.46875 2.0625,2.1875 2.125,2.375 Q 2.1875,2.5625 2.3125,2.6875 L 2.4375,2.8125 2.375,2.75 2.3125,2.6875 2,3 1.6875,3.3125 1.75,3.375 1.8125,3.4375 1.6875,3.3125 Q 1.5625,3.1875 1.375,3.125 L 1.1875,3.0625 1.46875,3.15625 1.75,3.25 1.375,3.125 1,3 1.125,2.625"
       id="path314"
       inkscape:connector-curvature="0" />
    <path
       style="fill:#8590c9;fill-opacity:1"
       d="M 2.09375,2.34375 1.9375,1.9375 2.46875,1.96875 3,2 V 2.5 3 L 2.625,2.875 Q 2.25,2.75 2.09375,2.34375"
       id="path316"
       inkscape:connector-curvature="0" />
    <path
       style="fill:#fffeff;fill-opacity:1"
       d="M 3,2.5 V 2 l 0.375,0.125 q 0.375,0.125 0.5,0.5 L 4,3 H 3.5 3 V 2.5"
       id="path318"
       inkscape:connector-curvature="0" />
    <path
       style="fill:#e5eaf3;fill-opacity:1"
       d="M 3.875,2.625 3.75,2.25 3.84375,2.53125 3.9375,2.8125 3.875,2.625 Q 3.8125,2.4375 3.6875,2.3125 L 3.5625,2.1875 3.625,2.25 3.6875,2.3125 3.96875,2.03125 4.25,1.75 4.5,2 Q 4.75,2.25 4.875,2.625 L 5,3 H 4.5 4 L 3.875,2.625 M 4.4375,1.9375 4.25,1.75 4.1875,1.6875 4.125,1.625 4.25,1.75 Q 4.375,1.875 4.5,2 L 4.625,2.125 4.4375,1.9375"
       id="path320"
       inkscape:connector-curvature="0" />
    <path
       style="fill:#92addb;fill-opacity:0.95686275"
       d="M 4.875,2.625 4.75,2.25 4.84375,2.53125 4.9375,2.8125 4.875,2.625 Q 4.8125,2.4375 4.71875,2.28125 L 4.625,2.125 4.671875,2.203125 4.71875,2.28125 5.015625,1.984375 5.3125,1.6875 5.25,1.625 5.1875,1.5625 5.3125,1.6875 Q 5.4375,1.8125 5.625,1.875 L 5.8125,1.9375 5.53125,1.84375 5.25,1.75 5.625,1.875 6,2 V 2.5 3 2.625 2.25 2.5 Q 6,2.75 6.125,2.875 L 6.25,3 6.1875,2.9375 6.125,2.875 5.5625,2.9375 5,3 4.875,2.625"
       id="path322"
       inkscape:connector-curvature="0" />
    <path
       style="fill:#a7bad8;fill-opacity:0.59215686"
       d="M 9,2.5 Q 9.25,2.25 9.625,2.125 L 10,2 V 2.5 3 L 9.625,3.125 9.25,3.25 9.53125,3.15625 9.8125,3.0625 9.625,3.125 Q 9.4375,3.1875 9.3125,3.3125 L 9.1875,3.4375 9.25,3.375 9.3125,3.3125 9.015625,3.015625 8.71875,2.71875 8.640625,2.765625 8.5625,2.8125 8.71875,2.71875 Q 8.875,2.625 9,2.5 L 9.125,2.375 8.9375,2.5625 8.75,2.75 9,2.5"
       id="path324"
       inkscape:connector-curvature="0" />
    <path
       style="fill:#9eacc7;fill-opacity:1"
       d="M 10,2.5 V 2 H 10.5 11 L 10.984375,2.515625 10.96875,3.03125 11.078125,3.046875 11.1875,3.0625 10.96875,3.03125 Q 10.75,3 10.5,3 H 10.25 10.625 11 10.5 10 V 2.5 M 11.125,2 H 11 10.625 10.25 10.5 q 0.25,0 0.5,0 h 0.25 -0.125"
       id="path326"
       inkscape:connector-curvature="0" />
    <path
       style="fill:#8ea3ca;fill-opacity:1"
       d="M 10.984375,2.515625 11,2 H 11.5 12 L 12.125,2.375 12.25,2.75 12.15625,2.46875 12.0625,2.1875 12.125,2.375 q 0.0625,0.1875 0.1875,0.3125 l 0.125,0.125 L 12.375,2.75 12.3125,2.6875 12,3 11.6875,3.3125 11.75,3.375 11.8125,3.4375 11.6875,3.3125 Q 11.5625,3.1875 11.375,3.125 L 11.1875,3.0625 11.46875,3.15625 11.75,3.25 11.375,3.125 11,3 11.28125,3.09375 11.5625,3.1875 11.375,3.125 Q 11.1875,3.0625 10.96875,3.03125 L 10.75,3 10.859375,3.015625 10.96875,3.03125 10.984375,2.515625 M 11.375,2 H 11 10.875 10.75 11 q 0.25,0 0.5,0 h 0.25 -0.375"
       id="path328"
       inkscape:connector-curvature="0" />
    <path
       style="fill:#90a7cf;fill-opacity:1"
       d="M 12.125,2.375 12,2 12.375,2.125 q 0.375,0.125 0.5,0.5 L 13,3 12.625,2.875 q -0.375,-0.125 -0.5,-0.5"
       id="path330"
       inkscape:connector-curvature="0" />
    <path
       style="fill:#9d9dd4;fill-opacity:0.99215686"
       d="M 1,3.5 V 3 l 0.375,0.125 q 0.375,0.125 0.5,0.5 L 2,4 H 1.5 1 V 3.5"
       id="path332"
       inkscape:connector-curvature="0" />
    <path
       style="fill:#8189c6;fill-opacity:1"
       d="M 1.875,3.625 1.75,3.25 1.84375,3.53125 1.9375,3.8125 1.875,3.625 Q 1.8125,3.4375 1.6875,3.3125 L 1.5625,3.1875 1.625,3.25 1.6875,3.3125 2,3 2.3125,2.6875 2.25,2.625 2.1875,2.5625 2.3125,2.6875 Q 2.4375,2.8125 2.625,2.875 L 2.8125,2.9375 2.53125,2.84375 2.25,2.75 2.625,2.875 3,3 V 3.5 4 H 2.5 2 L 1.875,3.625"
       id="path334"
       inkscape:connector-curvature="0" />
    <path
       style="fill:#fefeff;fill-opacity:1"
       d="M 3,3.5 V 3 H 3.5 4 V 3.5 4 H 3.5 3 V 3.5"
       id="path336"
       inkscape:connector-curvature="0" />
    <path
       style="fill:#e7ebf0;fill-opacity:1"
       d="M 4,3.5 V 3 H 4.5 5 V 3.5 4 H 4.5 4 V 3.5"
       id="path338"
       inkscape:connector-curvature="0" />
    <path
       style="fill:#afc3e5;fill-opacity:1"
       d="M 5,3.5 V 3 L 5.5625,2.9375 6.125,2.875 6.1875,3.3125 6.25,3.75 6.15625,3.46875 6.0625,3.1875 6.125,3.375 Q 6.1875,3.5625 6.28125,3.65625 L 6.375,3.75 6.328125,3.703125 6.28125,3.65625 5.984375,3.984375 5.6875,4.3125 5.75,4.375 5.8125,4.4375 5.6875,4.3125 Q 5.5625,4.1875 5.375,4.125 L 5.1875,4.0625 5.46875,4.15625 5.75,4.25 5.390625,4.109375 5.03125,3.96875 5.046875,4.078125 5.0625,4.1875 5.03125,3.96875 Q 5,3.75 5,3.5 V 3.25 3.625 4 3.5"
       id="path340"
       inkscape:connector-curvature="0" />
    <path
       style="fill:#ffffff;fill-opacity:0.02352941"
       d="M 6.1875,3.3125 6.125,2.875 6.0625,2.8125 6,2.75 6.125,2.875 Q 6.25,3 6.5,3 H 6.75 6.375 6 6.5 7 L 6.875,3.375 Q 6.75,3.75 6.5,3.75 6.25,3.75 6.1875,3.3125 M 7.125,3 H 7 6.625 6.25 6.5 Q 6.75,3 7,3 H 7.25 7.125"
       id="path342"
       inkscape:connector-curvature="0" />
    <path
       style="fill:#acbadc;fill-opacity:0.62352941"
       d="M 6.875,3.375 7,3 H 7.5 8 L 7.875,3.375 Q 7.75,3.75 7.5,4 L 7.25,4.25 7.4375,4.0625 7.625,3.875 7.5,4 Q 7.375,4.125 7.3125,4.25 L 7.25,4.375 7.28125,4.3125 7.3125,4.25 7.015625,3.953125 6.71875,3.65625 6.671875,3.703125 6.625,3.75 6.71875,3.65625 Q 6.8125,3.5625 6.875,3.375 L 6.9375,3.1875 6.84375,3.46875 6.75,3.75 6.875,3.375 M 7.375,3 H 7 6.875 6.75 7 Q 7.25,3 7.5,3 H 7.75 7.375"
       id="path344"
       inkscape:connector-curvature="0" />
    <path
       style="fill:#a1aeca;fill-opacity:1"
       d="M 7.875,3.375 8,3 8.375,2.875 8.75,2.75 8.46875,2.84375 8.1875,2.9375 8.375,2.875 Q 8.5625,2.8125 8.71875,2.71875 L 8.875,2.625 8.796875,2.671875 8.71875,2.71875 9.015625,3.015625 9.3125,3.3125 9.375,3.25 9.4375,3.1875 9.3125,3.3125 Q 9.1875,3.4375 9.125,3.625 L 9.0625,3.8125 9.15625,3.53125 9.25,3.25 9.125,3.625 9,4 8.625,4.125 8.25,4.25 8.53125,4.15625 8.8125,4.0625 8.625,4.125 Q 8.4375,4.1875 8.3125,4.3125 L 8.1875,4.4375 8.25,4.375 8.3125,4.3125 8.015625,4.015625 7.71875,3.71875 7.671875,3.796875 7.625,3.875 7.71875,3.71875 Q 7.8125,3.5625 7.875,3.375 L 7.9375,3.1875 7.84375,3.46875 7.75,3.75 7.875,3.375"
       id="path346"
       inkscape:connector-curvature="0" />
    <path
       style="fill:#8ea3ca;fill-opacity:1"
       d="M 9.125,3.625 Q 9.25,3.25 9.625,3.125 L 10,3 9.875,3.375 Q 9.75,3.75 9.375,3.875 L 9,4 9.125,3.625"
       id="path348"
       inkscape:connector-curvature="0" />
    <path
       style="fill:#ecf0f6;fill-opacity:1"
       d="M 9.875,3.375 10,3 9.90625,3.28125 9.8125,3.5625 9.875,3.375 Q 9.9375,3.1875 9.96875,2.96875 L 10,2.75 9.984375,2.859375 9.96875,2.96875 10.484375,2.984375 11,3 V 3.5 Q 11,4 10.625,4.125 L 10.25,4.25 10.53125,4.15625 10.8125,4.0625 10.625,4.125 Q 10.4375,4.1875 10.3125,4.3125 L 10.1875,4.4375 10.25,4.375 10.3125,4.3125 10,4 9.6875,3.6875 9.625,3.75 9.5625,3.8125 9.6875,3.6875 Q 9.8125,3.5625 9.875,3.375 L 9.9375,3.1875 9.84375,3.46875 9.75,3.75 9.875,3.375"
       id="path350"
       inkscape:connector-curvature="0" />
    <path
       style="fill:#ffffff;fill-opacity:1"
       d="M 11,3.5 V 3 l 0.375,0.125 q 0.375,0.125 0.5,0.5 L 12,4 V 4.5 5 5.5 6 6.5 7 7.5 8 8.5 9 L 11.875,9.375 Q 11.75,9.75 11.375,9.875 11,10 10.625,10.125 L 10.25,10.25 10.53125,10.15625 10.8125,10.0625 10.625,10.125 q -0.1875,0.0625 -0.3125,0.1875 l -0.125,0.125 L 10.25,10.375 10.3125,10.3125 10,10 9.6875,9.6875 9.625,9.75 9.5625,9.8125 9.6875,9.6875 Q 9.8125,9.5625 9.875,9.375 L 9.9375,9.1875 9.84375,9.46875 9.75,9.75 9.875,9.375 Q 10,9 10,8.5 10,8 10,7.5 10,7 10,6.5 10,6 10,5.5 10,5 10.125,4.625 10.25,4.25 10.625,4.125 11,4 11,3.5"
       id="path352"
       inkscape:connector-curvature="0" />
    <path
       style="fill:#7591c4;fill-opacity:1"
       d="M 11.875,3.625 11.75,3.25 11.84375,3.53125 11.9375,3.8125 11.875,3.625 Q 11.8125,3.4375 11.6875,3.3125 L 11.5625,3.1875 11.625,3.25 11.6875,3.3125 12,3 12.3125,2.6875 12.25,2.625 12.1875,2.5625 l 0.125,0.125 q 0.125,0.125 0.3125,0.1875 L 12.8125,2.9375 12.53125,2.84375 12.25,2.75 12.625,2.875 13,3 V 3.5 4 3.625 3.25 3.5 q 0,0.25 0.125,0.375 L 13.25,4 13.1875,3.9375 13.125,3.875 12.5625,3.9375 12,4 11.875,3.625"
       id="path354"
       inkscape:connector-curvature="0" />
    <path
       style="fill:#9696cf;fill-opacity:0.99607843"
       d="M 1,4.5 V 4 H 1.5 2 V 4.5 5 H 1.5 1 V 4.5"
       id="path356"
       inkscape:connector-curvature="0" />
    <path
       style="fill:#7f84c2;fill-opacity:1"
       d="M 2,4.5 V 4 H 2.5 3 V 4.5 5 H 2.5 2 V 4.5"
       id="path358"
       inkscape:connector-curvature="0" />
    <path
       style="fill:#feffff;fill-opacity:1"
       d="M 3,4.5 V 4 H 3.5 4 V 4.5 5 H 3.5 3 V 4.5"
       id="path360"
       inkscape:connector-curvature="0" />
    <path
       style="fill:#e8ebf0;fill-opacity:1"
       d="M 4,4.5 V 4 H 4.5 5 L 5.125,4.375 5.25,4.75 5.15625,4.46875 5.0625,4.1875 5.125,4.375 Q 5.1875,4.5625 5.3125,4.6875 L 5.4375,4.8125 5.375,4.75 5.3125,4.6875 5.03125,4.96875 Q 4.75,5.25 4.875,5.625 5,6 5,6.5 5,7 5,7.5 5,8 5,8.5 5,9 5,9.5 5,10 5.125,10.375 5.25,10.75 4.984375,11.015625 L 4.71875,11.28125 4.765625,11.359375 4.8125,11.4375 4.71875,11.28125 Q 4.625,11.125 4.5,11 L 4.375,10.875 4.5625,11.0625 4.75,11.25 4.5,11 Q 4.25,10.75 4,10.5 L 3.75,10.25 4,10 Q 4.25,9.75 4.125,9.375 4,9 4,8.5 4,8 4,7.5 4,7 4,6.5 V 6 5.5 5 4.5 M 3.6875,10.1875 3.75,10.25 3.9375,10.4375 4.125,10.625 4,10.5 Q 3.875,10.375 3.75,10.25 l -0.125,-0.125 0.0625,0.0625"
       id="path362"
       inkscape:connector-curvature="0" />
    <path
       style="fill:#c1cee2;fill-opacity:1"
       d="M 5.125,4.375 5,4 5.09375,4.28125 5.1875,4.5625 5.125,4.375 Q 5.0625,4.1875 5.03125,3.96875 L 5,3.75 5.015625,3.859375 5.03125,3.96875 5.390625,4.109375 Q 5.75,4.25 5.875,4.625 L 6,5 5.625,4.875 Q 5.25,4.75 5.125,4.375"
       id="path364"
       inkscape:connector-curvature="0" />
    <path
       style="fill:#a9badc;fill-opacity:1"
       d="M 5.875,4.625 5.75,4.25 5.84375,4.53125 5.9375,4.8125 5.875,4.625 Q 5.8125,4.4375 5.6875,4.3125 L 5.5625,4.1875 5.625,4.25 5.6875,4.3125 5.984375,3.984375 6.28125,3.65625 6.234375,3.609375 6.1875,3.5625 6.28125,3.65625 Q 6.375,3.75 6.5,3.75 H 6.625 6.4375 6.25 6.5 6.75 6.5625 6.375 6.5 q 0.125,0 0.21875,-0.09375 L 6.8125,3.5625 6.765625,3.609375 6.71875,3.65625 7.015625,3.953125 7.3125,4.25 7.34375,4.1875 7.375,4.125 7.3125,4.25 Q 7.25,4.375 7.25,4.5 V 4.625 4.4375 4.25 4.5 4.75 4.5625 4.375 4.5 q 0,0.125 0.09375,0.21875 L 7.4375,4.8125 7.390625,4.765625 7.34375,4.71875 7.015625,5.015625 6.6875,5.3125 6.75,5.375 6.8125,5.4375 6.6875,5.3125 Q 6.5625,5.1875 6.375,5.125 L 6.1875,5.0625 6.46875,5.15625 6.75,5.25 6.375,5.125 6,5 5.875,4.625"
       id="path366"
       inkscape:connector-curvature="0" />
    <path
       style="fill:#b3c4e1;fill-opacity:1"
       d="M 7.25,4.5 Q 7.25,4.25 7.5,4 L 7.75,3.75 7.5625,3.9375 7.375,4.125 7.5,4 Q 7.625,3.875 7.71875,3.71875 L 7.8125,3.5625 7.765625,3.640625 7.71875,3.71875 8.015625,4.015625 8.3125,4.3125 8.375,4.25 8.4375,4.1875 8.3125,4.3125 Q 8.1875,4.4375 8.125,4.625 L 8.0625,4.8125 8.15625,4.53125 8.25,4.25 8.125,4.625 8,5 7.625,4.875 Q 7.25,4.75 7.25,4.5"
       id="path368"
       inkscape:connector-curvature="0" />
    <path
       style="fill:#dee3e9;fill-opacity:1"
       d="M 8.125,4.625 Q 8.25,4.25 8.625,4.125 L 9,4 V 4.5 Q 9,5 9,5.5 9,6 9,6.5 9,7 9,7.5 9,8 9,8.5 9,9 9,9.5 V 10 L 8.875,10.375 Q 8.75,10.75 8.5,10.75 8.25,10.75 8.125,10.375 8,10 8,9.5 8,9 8,8.5 8,8 8,7.5 8,7 8,6.5 8,6 8,5.5 V 5 L 8.125,4.625"
       id="path370"
       inkscape:connector-curvature="0" />
    <path
       style="fill:#f3f5f7;fill-opacity:1"
       d="M 9,4.5 V 4 L 9.375,3.875 9.75,3.75 9.46875,3.84375 9.1875,3.9375 9.375,3.875 Q 9.5625,3.8125 9.6875,3.6875 L 9.8125,3.5625 9.75,3.625 9.6875,3.6875 10,4 10.3125,4.3125 10.375,4.25 10.4375,4.1875 10.3125,4.3125 Q 10.1875,4.4375 10.125,4.625 L 10.0625,4.8125 10.15625,4.53125 10.25,4.25 10.125,4.625 Q 10,5 10,5.5 q 0,0.5 0,1 0,0.5 0,1 0,0.5 0,1 Q 10,9 9.875,9.375 9.75,9.75 9.375,9.875 L 9,10 V 9.5 Q 9,9 9,8.5 9,8 9,7.5 9,7 9,6.5 9,6 9,5.5 9,5 9,4.5"
       id="path372"
       inkscape:connector-curvature="0" />
    <path
       style="fill:#718bb9;fill-opacity:1"
       d="M 12,4.5 V 4 L 12.5625,3.9375 13.125,3.875 13.0625,4.4375 13,5 H 12.5 12 V 4.5"
       id="path374"
       inkscape:connector-curvature="0" />
    <path
       style="fill:#9d9bd9;fill-opacity:0.98431373"
       d="M 13.0625,4.4375 13.125,3.875 13.0625,3.8125 13,3.75 13.125,3.875 Q 13.25,4 13.5,4 H 13.75 13.375 13 13.5 14 L 14.125,4.375 14.25,4.75 14.15625,4.46875 14.0625,4.1875 14.125,4.375 q 0.0625,0.1875 0.1875,0.3125 l 0.125,0.125 L 14.375,4.75 14.3125,4.6875 14,5 13.6875,5.3125 13.75,5.375 13.8125,5.4375 13.6875,5.3125 Q 13.5625,5.1875 13.375,5.125 L 13.1875,5.0625 13.46875,5.15625 13.75,5.25 13.375,5.125 13,5 13.0625,4.4375 M 13,4.625 V 5 5.125 5.25 5 Q 13,4.75 13,4.5 V 4.25 4.625"
       id="path376"
       inkscape:connector-curvature="0" />
    <path
       style="fill:#aca9e2;fill-opacity:1"
       d="M 14.125,4.375 14,4 H 14.5 15 V 4.5 5 L 14.625,4.875 q -0.375,-0.125 -0.5,-0.5"
       id="path378"
       inkscape:connector-curvature="0" />
    <path
       style="fill:#bfbff2;fill-opacity:0.07843137"
       d="M 15,4.5 V 4 H 15.5 16 V 4.5 5 H 15.5 15 V 4.5"
       id="path380"
       inkscape:connector-curvature="0" />
    <path
       style="fill:#8d8dc8;fill-opacity:0.99215686"
       d="M 1,5.5 V 5 H 1.5 2 V 5.5 6 H 1.5 1 V 5.5"
       id="path382"
       inkscape:connector-curvature="0" />
    <path
       style="fill:#7d81c0;fill-opacity:1"
       d="M 2,5.5 V 5 H 2.5 3 V 5.5 6 H 2.5 2 V 5.5"
       id="path384"
       inkscape:connector-curvature="0" />
    <path
       style="fill:#fffdff;fill-opacity:1"
       d="M 3,5.5 V 5 H 3.5 4 V 5.5 6 H 3.5 3 V 5.5"
       id="path386"
       inkscape:connector-curvature="0" />
    <path
       style="fill:#d5dae3;fill-opacity:1"
       d="M 4.875,5.625 Q 4.75,5.25 5.03125,4.96875 L 5.3125,4.6875 5.25,4.625 5.1875,4.5625 5.3125,4.6875 Q 5.4375,4.8125 5.625,4.875 L 5.8125,4.9375 5.53125,4.84375 5.25,4.75 5.625,4.875 6,5 V 5.5 6 6.5 7 7.5 8 8.5 9 9.5 10 10.5 11 11.5 q 0,0.5 0,1 V 13 12.625 12.25 12.5 q 0,0.25 -0.03125,0.46875 L 5.9375,13.1875 5.953125,13.078125 5.96875,12.96875 5.609375,12.859375 Q 5.25,12.75 5.125,12.375 5,12 4.875,11.625 L 4.75,11.25 4.84375,11.53125 4.9375,11.8125 4.875,11.625 Q 4.8125,11.4375 4.71875,11.28125 L 4.625,11.125 4.671875,11.203125 4.71875,11.28125 4.984375,11.015625 Q 5.25,10.75 5.125,10.375 5,10 5,9.5 5,9 5,8.5 5,8 5,7.5 5,7 5,6.5 5,6 4.875,5.625"
       id="path388"
       inkscape:connector-curvature="0" />
    <path
       style="fill:#819bc8;fill-opacity:1"
       d="M 6,5.5 V 5 l 0.375,0.125 q 0.375,0.125 0.5,0.5 L 7,6 H 6.5 6 V 5.5"
       id="path390"
       inkscape:connector-curvature="0" />
    <path
       style="fill:#bbcadf;fill-opacity:1"
       d="M 6.875,5.625 6.75,5.25 6.84375,5.53125 6.9375,5.8125 6.875,5.625 Q 6.8125,5.4375 6.6875,5.3125 L 6.5625,5.1875 6.625,5.25 6.6875,5.3125 7.015625,5.015625 7.34375,4.71875 7.296875,4.671875 7.25,4.625 7.34375,4.71875 Q 7.4375,4.8125 7.625,4.875 L 7.8125,4.9375 7.53125,4.84375 7.25,4.75 7.625,4.875 8,5 V 5.5 Q 8,6 8,6.5 8,7 8,7.5 8,8 8,8.5 8,9 8,9.5 8,10 8.125,10.375 L 8.25,10.75 8.15625,10.46875 8.0625,10.1875 8.125,10.375 q 0.0625,0.1875 0.15625,0.28125 L 8.375,10.75 8.328125,10.703125 8.28125,10.65625 7.984375,10.984375 7.6875,11.3125 7.75,11.375 7.8125,11.4375 7.6875,11.3125 Q 7.5625,11.1875 7.375,11.125 L 7.1875,11.0625 7.46875,11.15625 7.75,11.25 7.375,11.125 7,11 V 10.5 10 9.5 9 8.5 8 7.5 7 6.5 6 L 6.875,5.625"
       id="path392"
       inkscape:connector-curvature="0" />
    <path
       style="fill:#6a80a8;fill-opacity:1"
       d="M 12,5.5 V 5 H 12.5 13 V 5.5 6 H 12.5 12 V 5.5"
       id="path394"
       inkscape:connector-curvature="0" />
    <path
       style="fill:#dfe1eb;fill-opacity:1"
       d="M 13,5.5 V 5 l 0.375,0.125 q 0.375,0.125 0.5,0.5 L 14,6 H 13.5 13 V 5.5 M 13,4.875 V 5 5.375 5.75 5.5 Q 13,5.25 13,5 V 4.75 4.875"
       id="path396"
       inkscape:connector-curvature="0" />
    <path
       style="fill:#9b98d7;fill-opacity:1"
       d="M 13.875,5.625 13.75,5.25 13.84375,5.53125 13.9375,5.8125 13.875,5.625 Q 13.8125,5.4375 13.6875,5.3125 L 13.5625,5.1875 13.625,5.25 13.6875,5.3125 14,5 14.3125,4.6875 14.25,4.625 14.1875,4.5625 l 0.125,0.125 q 0.125,0.125 0.3125,0.1875 L 14.8125,4.9375 14.53125,4.84375 14.25,4.75 14.625,4.875 15,5 V 5.5 6 6.5 7 H 14.5 14 V 6.5 6 L 13.875,5.625"
       id="path398"
       inkscape:connector-curvature="0" />
    <path
       style="fill:#9895d5;fill-opacity:1"
       d="M 15,5.5 V 5 H 15.5 16 V 5.5 6 H 15.5 15 V 5.5"
       id="path400"
       inkscape:connector-curvature="0" />
    <path
       style="fill:#8789c4;fill-opacity:0.98823529"
       d="M 1,6.5 V 6 H 1.5 2 V 6.5 7 H 1.5 1 V 6.5"
       id="path402"
       inkscape:connector-curvature="0" />
    <path
       style="fill:#7b7ebd;fill-opacity:1"
       d="M 2,6.5 V 6 H 2.5 3 V 6.5 7 H 2.5 2 V 6.5"
       id="path404"
       inkscape:connector-curvature="0" />
    <path
       style="fill:#ffffff;fill-opacity:1"
       d="M 3,6.5 V 6 H 3.5 4 V 6.5 Q 4,7 4,7.5 4,8 4,8.5 4,9 4.125,9.375 4.25,9.75 4,10 L 3.75,10.25 3.5,10 Q 3.25,9.75 3.125,9.375 L 3,9 V 8.5 8 7.5 7 6.5 M 3.5625,10.0625 3.75,10.25 3.8125,10.3125 3.875,10.375 3.75,10.25 Q 3.625,10.125 3.5,10 L 3.375,9.875 3.5625,10.0625"
       id="path406"
       inkscape:connector-curvature="0" />
    <path
       style="fill:#7d97c2;fill-opacity:1"
       d="M 6,6.5 V 6 H 6.5 7 V 6.5 7 H 6.5 6 V 6.5"
       id="path408"
       inkscape:connector-curvature="0" />
    <path
       style="fill:#667ca3;fill-opacity:1"
       d="M 12,6.5 V 6 H 12.5 13 V 6.5 7 H 12.5 12 V 6.5"
       id="path410"
       inkscape:connector-curvature="0" />
    <path
       style="fill:#e1e6ec;fill-opacity:1"
       d="M 13,6.5 V 6 H 13.5 14 V 6.5 7 H 13.5 13 V 6.5"
       id="path412"
       inkscape:connector-curvature="0" />
    <path
       style="fill:#908dd0;fill-opacity:1"
       d="M 15,6.5 V 6 H 15.5 16 V 6.5 7 H 15.5 15 V 6.5"
       id="path414"
       inkscape:connector-curvature="0" />
    <path
       style="fill:#8285c1;fill-opacity:0.98039216"
       d="M 1,7.5 V 7 H 1.5 2 V 7.5 8 H 1.5 1 V 7.5"
       id="path416"
       inkscape:connector-curvature="0" />
    <path
       style="fill:#797cbd;fill-opacity:1"
       d="M 2,7.5 V 7 H 2.5 3 V 7.5 8 H 2.5 2 V 7.5"
       id="path418"
       inkscape:connector-curvature="0" />
    <path
       style="fill:#6c86af;fill-opacity:1"
       d="M 6,7.5 V 7 H 6.5 7 V 7.5 8 H 6.5 6 V 7.5"
       id="path420"
       inkscape:connector-curvature="0" />
    <path
       style="fill:#647a9e;fill-opacity:1"
       d="M 12,7.5 V 7 H 12.5 13 V 7.5 8 H 12.5 12 V 7.5"
       id="path422"
       inkscape:connector-curvature="0" />
    <path
       style="fill:#e5e8ef;fill-opacity:1"
       d="M 13,7.5 V 7 H 13.5 14 V 7.5 8 H 13.5 13 V 7.5"
       id="path424"
       inkscape:connector-curvature="0" />
    <path
       style="fill:#9896d5;fill-opacity:1"
       d="M 14,7.5 V 7 H 14.5 15 V 7.5 8 H 14.5 14 V 7.5"
       id="path426"
       inkscape:connector-curvature="0" />
    <path
       style="fill:#8c89cd;fill-opacity:1"
       d="M 15,7.5 V 7 H 15.5 16 V 7.5 8 H 15.5 15 V 7.5"
       id="path428"
       inkscape:connector-curvature="0" />
    <path
       style="fill:#767bb5;fill-opacity:0.96470588"
       d="M 1,8.5 V 8 H 1.5 2 V 8.5 9 H 1.5 1 V 8.5"
       id="path430"
       inkscape:connector-curvature="0" />
    <path
       style="fill:#787bba;fill-opacity:1"
       d="M 2,8.5 V 8 H 2.5 3 V 8.5 9 H 2.5 2 V 8.5"
       id="path432"
       inkscape:connector-curvature="0" />
    <path
       style="fill:#687fa8;fill-opacity:1"
       d="M 6,8.5 V 8 H 6.5 7 V 8.5 9 H 6.5 6 V 8.5"
       id="path434"
       inkscape:connector-curvature="0" />
    <path
       style="fill:#607797;fill-opacity:1"
       d="M 12,8.5 V 8 H 12.5 13 V 8.5 9 H 12.5 12 V 8.5"
       id="path436"
       inkscape:connector-curvature="0" />
    <path
       style="fill:#e7eaef;fill-opacity:1"
       d="M 13,8.5 V 8 H 13.5 14 V 8.5 9 H 13.5 13 V 8.5"
       id="path438"
       inkscape:connector-curvature="0" />
    <path
       style="fill:#9593d4;fill-opacity:1"
       d="M 14,8.5 V 8 H 14.5 15 V 8.5 9 H 14.5 14 V 8.5"
       id="path440"
       inkscape:connector-curvature="0" />
    <path
       style="fill:#8784c9;fill-opacity:1"
       d="M 15,8.5 V 8 H 15.5 16 V 8.5 9 H 15.5 15 V 8.5"
       id="path442"
       inkscape:connector-curvature="0" />
    <path
       style="fill:#6972a5;fill-opacity:0.90196078"
       d="M 0.984375,9.515625 1,9 H 1.5 2 L 2.125,9.375 2.25,9.75 2.15625,9.46875 2.0625,9.1875 2.125,9.375 Q 2.1875,9.5625 2.28125,9.71875 L 2.375,9.875 2.328125,9.796875 2.28125,9.71875 2,10 1.71875,10.28125 1.796875,10.328125 1.875,10.375 1.71875,10.28125 Q 1.5625,10.1875 1.375,10.125 L 1.1875,10.0625 1.46875,10.15625 1.75,10.25 1.375,10.125 1,10 1.28125,10.09375 1.5625,10.1875 1.375,10.125 Q 1.1875,10.0625 0.96875,10.03125 L 0.75,10 0.859375,10.015625 0.96875,10.03125 0.984375,9.515625"
       id="path444"
       inkscape:connector-curvature="0" />
    <path
       style="fill:#787aba;fill-opacity:1"
       d="M 2.125,9.375 2,9 H 2.5 3 L 3.125,9.375 3.25,9.75 3.15625,9.46875 3.0625,9.1875 3.125,9.375 Q 3.1875,9.5625 3.28125,9.71875 L 3.375,9.875 3.328125,9.796875 3.28125,9.71875 3.015625,9.984375 2.75,10.25 2.5,10 Q 2.25,9.75 2.125,9.375 M 2.5625,10.0625 2.75,10.25 2.8125,10.3125 2.875,10.375 2.75,10.25 Q 2.625,10.125 2.5,10 L 2.375,9.875 2.5625,10.0625"
       id="path446"
       inkscape:connector-curvature="0" />
    <path
       style="fill:#627ca1;fill-opacity:1"
       d="M 6,9.5 V 9 H 6.5 7 V 9.5 10 H 6.5 6 V 9.5"
       id="path448"
       inkscape:connector-curvature="0" />
    <path
       style="fill:#607697;fill-opacity:1"
       d="M 11.875,9.375 12,9 H 12.5 13 L 12.875,9.375 Q 12.75,9.75 12.5,10 L 12.25,10.25 11.96875,9.96875 11.6875,9.6875 11.625,9.75 11.5625,9.8125 11.6875,9.6875 Q 11.8125,9.5625 11.875,9.375 L 11.9375,9.1875 11.84375,9.46875 11.75,9.75 11.875,9.375 M 12.1875,10.3125 12.25,10.25 12.4375,10.0625 12.625,9.875 12.5,10 q -0.125,0.125 -0.25,0.25 l -0.125,0.125 0.0625,-0.0625"
       id="path450"
       inkscape:connector-curvature="0" />
    <path
       style="fill:#e8ebf0;fill-opacity:1"
       d="M 12.875,9.375 13,9 H 13.5 14 V 9.5 10 L 13.625,10.125 13.25,10.25 13.53125,10.15625 13.8125,10.0625 13.625,10.125 q -0.1875,0.0625 -0.3125,0.1875 l -0.125,0.125 L 13.25,10.375 13.3125,10.3125 13.015625,10.015625 12.71875,9.71875 12.671875,9.796875 12.625,9.875 12.71875,9.71875 Q 12.8125,9.5625 12.875,9.375 L 12.9375,9.1875 12.84375,9.46875 12.75,9.75 12.875,9.375"
       id="path452"
       inkscape:connector-curvature="0" />
    <path
       style="fill:#8f8dcf;fill-opacity:1"
       d="M 14,9.5 V 9 H 14.5 15 V 9.5 10 H 14.5 14 V 9.5"
       id="path454"
       inkscape:connector-curvature="0" />
    <path
       style="fill:#7c7ac2;fill-opacity:1"
       d="M 15,9.5 V 9 H 15.5 16 V 9.5 10 H 15.5 15 V 9.5"
       id="path456"
       inkscape:connector-curvature="0" />
    <path
       style="fill:#395571;fill-opacity:0.03529412"
       d="M 0,10.5 V 10 H 0.5 1 L 1.125,10.375 1.25,10.75 1.15625,10.46875 1.0625,10.1875 1.125,10.375 q 0.0625,0.1875 0.15625,0.34375 L 1.375,10.875 1.328125,10.796875 1.28125,10.71875 1,11 0.71875,11.28125 0.796875,11.328125 0.875,11.375 0.71875,11.28125 Q 0.5625,11.1875 0.375,11.125 L 0.1875,11.0625 0.46875,11.15625 0.75,11.25 0.375,11.125 0,11 v -0.5"
       id="path458"
       inkscape:connector-curvature="0" />
    <path
       style="fill:#465879;fill-opacity:1"
       d="M 1.125,10.375 1,10 1.375,10.125 Q 1.75,10.25 2,10.5 2.25,10.75 2.5,11 2.75,11.25 3,11.5 3.25,11.75 3.5,12 3.75,12.25 4,12.5 L 4.25,12.75 4,13 3.75,13.25 3.5,13 Q 3.25,12.75 3,12.5 2.75,12.25 2.5,12 2.25,11.75 2,11.5 1.75,11.25 1.5,11 1.25,10.75 1.125,10.375 M 3.5625,13.0625 3.75,13.25 3.8125,13.3125 3.875,13.375 3.75,13.25 Q 3.625,13.125 3.5,13 l -0.125,-0.125 0.1875,0.1875 m 0.75,-0.25 L 4.25,12.75 4.0625,12.5625 3.875,12.375 4,12.5 q 0.125,0.125 0.25,0.25 l 0.125,0.125 -0.0625,-0.0625"
       id="path460"
       inkscape:connector-curvature="0" />
    <path
       style="fill:#6f73b3;fill-opacity:1"
       d="M 2,10.5 1.75,10.25 1.9375,10.4375 2.125,10.625 2,10.5 Q 1.875,10.375 1.71875,10.28125 L 1.5625,10.1875 1.640625,10.234375 1.71875,10.28125 2,10 2.28125,9.71875 2.234375,9.640625 2.1875,9.5625 2.28125,9.71875 Q 2.375,9.875 2.5,10 L 2.625,10.125 2.4375,9.9375 2.25,9.75 2.5,10 Q 2.75,10.25 3,10.5 L 3.25,10.75 3,11 2.75,11.25 2.5,11 Q 2.25,10.75 2,10.5 M 2.5625,11.0625 2.75,11.25 2.8125,11.3125 2.875,11.375 2.75,11.25 Q 2.625,11.125 2.5,11 l -0.125,-0.125 0.1875,0.1875 m 0.75,-0.25 L 3.25,10.75 3.0625,10.5625 2.875,10.375 3,10.5 q 0.125,0.125 0.25,0.25 l 0.125,0.125 -0.0625,-0.0625"
       id="path462"
       inkscape:connector-curvature="0" />
    <path
       style="fill:#9495c8;fill-opacity:1"
       d="M 3,10.5 2.75,10.25 3.015625,9.984375 3.28125,9.71875 3.234375,9.640625 3.1875,9.5625 3.28125,9.71875 Q 3.375,9.875 3.5,10 L 3.625,10.125 3.4375,9.9375 3.25,9.75 3.5,10 Q 3.75,10.25 4,10.5 L 4.25,10.75 4,11 3.75,11.25 3.5,11 Q 3.25,10.75 3,10.5 M 3.5625,11.0625 3.75,11.25 3.8125,11.3125 3.875,11.375 3.75,11.25 Q 3.625,11.125 3.5,11 l -0.125,-0.125 0.1875,0.1875 m 0.75,-0.25 L 4.25,10.75 4.0625,10.5625 3.875,10.375 4,10.5 q 0.125,0.125 0.25,0.25 L 4.375,10.875 4.3125,10.8125 M 2.6875,10.1875 2.75,10.25 2.9375,10.4375 3.125,10.625 3,10.5 Q 2.875,10.375 2.75,10.25 l -0.125,-0.125 0.0625,0.0625"
       id="path464"
       inkscape:connector-curvature="0" />
    <path
       style="fill:#607a9f;fill-opacity:1"
       d="M 6,10.5 V 10 H 6.5 7 V 10.5 11 H 6.5 6 v -0.5"
       id="path466"
       inkscape:connector-curvature="0" />
    <path
       style="fill:#e1e5eb;fill-opacity:1"
       d="M 8.875,10.375 9,10 9.375,9.875 9.75,9.75 9.46875,9.84375 9.1875,9.9375 9.375,9.875 Q 9.5625,9.8125 9.6875,9.6875 L 9.8125,9.5625 9.75,9.625 9.6875,9.6875 10,10 l 0.3125,0.3125 0.0625,-0.0625 0.0625,-0.0625 -0.125,0.125 q -0.125,0.125 -0.1875,0.3125 L 10.0625,10.8125 10.15625,10.53125 10.25,10.25 10.125,10.625 10,11 9.625,11.125 9.25,11.25 9.53125,11.15625 9.8125,11.0625 9.625,11.125 Q 9.4375,11.1875 9.28125,11.28125 L 9.125,11.375 9.203125,11.328125 9.28125,11.28125 9,10.96875 8.71875,10.65625 8.671875,10.703125 8.625,10.75 8.71875,10.65625 Q 8.8125,10.5625 8.875,10.375 L 8.9375,10.1875 8.84375,10.46875 8.75,10.75 8.875,10.375 M 9.71875,11.09375 10,11 10.09375,10.96875 10.1875,10.9375 10,11 q -0.1875,0.0625 -0.375,0.125 l -0.1875,0.0625 0.28125,-0.09375"
       id="path468"
       inkscape:connector-curvature="0" />
    <path
       style="fill:#b5c2d7;fill-opacity:1"
       d="m 10.125,10.625 q 0.125,-0.375 0.5,-0.5 L 11,10 10.875,10.375 q -0.125,0.375 -0.5,0.5 L 10,11 10.125,10.625 M 9.90625,11.03125 10,11 10.28125,10.90625 10.5625,10.8125 10.375,10.875 Q 10.1875,10.9375 10,11 L 9.8125,11.0625 9.90625,11.03125 M 11.09375,9.96875 11,10 10.71875,10.09375 10.4375,10.1875 10.625,10.125 Q 10.8125,10.0625 11,10 l 0.1875,-0.0625 -0.09375,0.03125"
       id="path470"
       inkscape:connector-curvature="0" />
    <path
       style="fill:#667b9b;fill-opacity:1"
       d="M 10.875,10.375 11,10 11.375,9.875 11.75,9.75 11.46875,9.84375 11.1875,9.9375 11.375,9.875 Q 11.5625,9.8125 11.6875,9.6875 L 11.8125,9.5625 11.75,9.625 11.6875,9.6875 11.96875,9.96875 12.25,10.25 12,10.5 Q 11.75,10.75 11.5,11 L 11.25,11.25 10.96875,10.96875 10.6875,10.6875 10.625,10.75 l -0.0625,0.0625 0.125,-0.125 q 0.125,-0.125 0.1875,-0.3125 L 10.9375,10.1875 10.84375,10.46875 10.75,10.75 10.875,10.375 M 11.1875,11.3125 11.25,11.25 11.4375,11.0625 11.625,10.875 11.5,11 q -0.125,0.125 -0.25,0.25 l -0.125,0.125 0.0625,-0.0625 m 0.875,-0.875 L 12.25,10.25 12.3125,10.1875 12.375,10.125 12.25,10.25 Q 12.125,10.375 12,10.5 l -0.125,0.125 0.1875,-0.1875 M 11.28125,9.90625 11,10 10.90625,10.03125 10.8125,10.0625 11,10 q 0.1875,-0.0625 0.375,-0.125 l 0.1875,-0.0625 -0.28125,0.09375"
       id="path472"
       inkscape:connector-curvature="0" />
    <path
       style="fill:#ced4df;fill-opacity:1"
       d="M 12,10.5 Q 12.25,10.25 12.5,10 L 12.75,9.75 12.5625,9.9375 12.375,10.125 12.5,10 Q 12.625,9.875 12.71875,9.71875 L 12.8125,9.5625 12.765625,9.640625 12.71875,9.71875 13.015625,10.015625 13.3125,10.3125 13.375,10.25 l 0.0625,-0.0625 -0.125,0.125 q -0.125,0.125 -0.1875,0.3125 L 13.0625,10.8125 13.15625,10.53125 13.25,10.25 13.125,10.625 13,11 12.625,11.125 12.25,11.25 12.53125,11.15625 12.8125,11.0625 12.625,11.125 q -0.1875,0.0625 -0.3125,0.1875 l -0.125,0.125 L 12.25,11.375 12.3125,11.3125 12.03125,11.03125 11.75,10.75 12,10.5 M 11.9375,10.5625 11.75,10.75 11.6875,10.8125 11.625,10.875 11.75,10.75 Q 11.875,10.625 12,10.5 l 0.125,-0.125 -0.1875,0.1875"
       id="path474"
       inkscape:connector-curvature="0" />
    <path
       style="fill:#e0e6ec;fill-opacity:1"
       d="m 13.125,10.625 q 0.125,-0.375 0.5,-0.5 L 14,10 V 10.5 11 H 13.5 13 l 0.125,-0.375"
       id="path476"
       inkscape:connector-curvature="0" />
    <path
       style="fill:#8a87cb;fill-opacity:1"
       d="M 14,10.5 V 10 H 14.5 15 V 10.5 11 H 14.5 14 v -0.5"
       id="path478"
       inkscape:connector-curvature="0" />
    <path
       style="fill:#7575bd;fill-opacity:1"
       d="M 15,10.5 V 10 H 15.5 16 V 10.5 11 H 15.5 15 v -0.5"
       id="path480"
       inkscape:connector-curvature="0" />
    <path
       style="fill:#000000;fill-opacity:0"
       d="M 0,11.5 V 11 l 0.375,0.125 Q 0.75,11.25 1,11.5 1.25,11.75 1.5,12 1.75,12.25 2,12.5 2.25,12.75 2.5,13 2.75,13.25 3,13.5 3.25,13.75 3.5,14 3.75,14.25 4,14.5 4.25,14.75 4.625,14.875 L 5,15 H 5.5 6 6.5 7 7.5 8 8.5 9 9.5 10 10.5 11 11.5 12 12.5 13 13.5 14 14.5 15 15.5 16 V 15.5 16 H 15.5 15 14.5 14 13.5 13 12.5 12 11.5 11 10.5 10 9.5 9 8.5 8 7.5 7 6.5 6 5.5 5 4.5 4 3.5 3 2.5 2 1.5 1 0.5 0 V 15.5 15 14.5 14 13.5 13 12.5 12 11.5"
       id="path482"
       inkscape:connector-curvature="0" />
    <path
       style="fill:#445573;fill-opacity:0.23529412"
       d="M 1,11.5 0.75,11.25 0.9375,11.4375 1.125,11.625 1,11.5 Q 0.875,11.375 0.71875,11.28125 L 0.5625,11.1875 0.640625,11.234375 0.71875,11.28125 1,11 1.28125,10.71875 1.234375,10.640625 1.1875,10.5625 1.28125,10.71875 Q 1.375,10.875 1.5,11 L 1.625,11.125 1.4375,10.9375 1.25,10.75 1.5,11 Q 1.75,11.25 2,11.5 L 2.25,11.75 2,12 1.75,12.25 1.5,12 Q 1.25,11.75 1,11.5 M 1.5625,12.0625 1.75,12.25 1.8125,12.3125 1.875,12.375 1.75,12.25 Q 1.625,12.125 1.5,12 l -0.125,-0.125 0.1875,0.1875 m 0.75,-0.25 L 2.25,11.75 2.0625,11.5625 1.875,11.375 2,11.5 q 0.125,0.125 0.25,0.25 l 0.125,0.125 -0.0625,-0.0625"
       id="path484"
       inkscape:connector-curvature="0" />
    <path
       style="fill:#7476b8;fill-opacity:1"
       d="M 3,11.5 2.75,11.25 3,11 3.25,10.75 3.5,11 q 0.25,0.25 0.5,0.5 0.25,0.25 0.625,0.375 L 5,12 5.125,12.375 Q 5.25,12.75 5.609375,12.859375 L 5.96875,12.96875 5.984375,12.859375 6,12.75 5.96875,12.96875 Q 5.9375,13.1875 5.875,13.375 L 5.8125,13.5625 5.90625,13.28125 6,13 5.875,13.375 Q 5.75,13.75 5.5,13.75 5.25,13.75 5,13.5 4.75,13.25 4.5,13 4.25,12.75 4,12.5 3.75,12.25 3.5,12 3.25,11.75 3,11.5 M 5.09375,12.28125 5,12 4.96875,11.90625 4.9375,11.8125 5,12 q 0.0625,0.1875 0.125,0.375 L 5.1875,12.5625 5.09375,12.28125 M 3.4375,10.9375 3.25,10.75 3.1875,10.6875 3.125,10.625 3.25,10.75 Q 3.375,10.875 3.5,11 l 0.125,0.125 -0.1875,-0.1875 m -0.75,0.25 L 2.75,11.25 2.9375,11.4375 3.125,11.625 3,11.5 Q 2.875,11.375 2.75,11.25 l -0.125,-0.125 0.0625,0.0625"
       id="path486"
       inkscape:connector-curvature="0" />
    <path
       style="fill:#9a9bcb;fill-opacity:1"
       d="M 4,11.5 3.75,11.25 4,11 4.25,10.75 4.5,11 q 0.25,0.25 0.375,0.625 L 5,12 4.625,11.875 Q 4.25,11.75 4,11.5 M 5.03125,12.09375 5,12 4.90625,11.71875 4.8125,11.4375 4.875,11.625 Q 4.9375,11.8125 5,12 L 5.0625,12.1875 5.03125,12.09375 M 4.4375,10.9375 4.25,10.75 4.1875,10.6875 4.125,10.625 4.25,10.75 Q 4.375,10.875 4.5,11 l 0.125,0.125 -0.1875,-0.1875 m -0.75,0.25 L 3.75,11.25 3.9375,11.4375 4.125,11.625 4,11.5 Q 3.875,11.375 3.75,11.25 l -0.125,-0.125 0.0625,0.0625"
       id="path488"
       inkscape:connector-curvature="0" />
    <path
       style="fill:#5e7798;fill-opacity:1"
       d="M 6,11.5 V 11 H 6.5 7 L 7.125,11.375 7.25,11.75 7.15625,11.46875 7.0625,11.1875 7.125,11.375 q 0.0625,0.1875 0.1875,0.3125 l 0.125,0.125 L 7.375,11.75 7.3125,11.6875 7.03125,11.96875 Q 6.75,12.25 6.75,12.5 q 0,0.25 -0.375,0.375 L 6,13 v -0.5 q 0,-0.5 0,-1"
       id="path490"
       inkscape:connector-curvature="0" />
    <path
       style="fill:#c2d1e5;fill-opacity:1"
       d="M 7.125,11.375 7,11 7.375,11.125 q 0.375,0.125 0.5,0.5 L 8,12 7.625,11.875 q -0.375,-0.125 -0.5,-0.5"
       id="path492"
       inkscape:connector-curvature="0" />
    <path
       style="fill:#c6ced9;fill-opacity:1"
       d="M 7.875,11.625 7.75,11.25 7.84375,11.53125 7.9375,11.8125 7.875,11.625 Q 7.8125,11.4375 7.6875,11.3125 L 7.5625,11.1875 7.625,11.25 7.6875,11.3125 7.984375,10.984375 8.28125,10.65625 8.234375,10.609375 8.1875,10.5625 8.28125,10.65625 Q 8.375,10.75 8.5,10.75 H 8.625 8.4375 8.25 8.5 8.75 8.5625 8.375 8.5 q 0.125,0 0.21875,-0.09375 L 8.8125,10.5625 8.765625,10.609375 8.71875,10.65625 9,10.96875 9.28125,11.28125 9.359375,11.234375 9.4375,11.1875 9.28125,11.28125 Q 9.125,11.375 9,11.5 L 8.875,11.625 9.0625,11.4375 9.25,11.25 9,11.5 Q 8.75,11.75 8.375,11.875 L 8,12 7.875,11.625"
       id="path494"
       inkscape:connector-curvature="0" />
    <path
       style="fill:#667b9b;fill-opacity:1"
       d="M 9,11.5 Q 9.25,11.25 9.625,11.125 L 10,11 9.875,11.375 Q 9.75,11.75 9.5,12 L 9.25,12.25 9.4375,12.0625 9.625,11.875 9.5,12 Q 9.375,12.125 9.28125,12.28125 L 9.1875,12.4375 9.234375,12.359375 9.28125,12.28125 9,12 8.71875,11.71875 8.640625,11.765625 8.5625,11.8125 8.71875,11.71875 Q 8.875,11.625 9,11.5 L 9.125,11.375 8.9375,11.5625 8.75,11.75 9,11.5"
       id="path496"
       inkscape:connector-curvature="0" />
    <path
       style="fill:#8091ac;fill-opacity:1"
       d="M 9.875,11.375 10,11 10.375,10.875 10.75,10.75 10.46875,10.84375 10.1875,10.9375 10.375,10.875 q 0.1875,-0.0625 0.3125,-0.1875 l 0.125,-0.125 -0.0625,0.0625 -0.0625,0.0625 0.28125,0.28125 L 11.25,11.25 11,11.5 Q 10.75,11.75 10.5,12 L 10.25,12.25 10.4375,12.0625 10.625,11.875 10.5,12 q -0.125,0.125 -0.21875,0.28125 L 10.1875,12.4375 10.23437,12.35937 10.28124,12.28124 10,12 9.71875,11.71875 9.671875,11.796875 9.625,11.875 9.71875,11.71875 Q 9.8125,11.5625 9.875,11.375 L 9.9375,11.1875 9.84375,11.46875 9.75,11.75 9.875,11.375 M 11.0625,11.4375 11.25,11.25 11.3125,11.1875 11.375,11.125 11.25,11.25 Q 11.125,11.375 11,11.5 l -0.125,0.125 0.1875,-0.1875"
       id="path498"
       inkscape:connector-curvature="0" />
    <path
       style="fill:#cbd2dd;fill-opacity:1"
       d="m 11,11.5 q 0.25,-0.25 0.5,-0.5 l 0.25,-0.25 0.28125,0.28125 0.28125,0.28125 0.0625,-0.0625 0.0625,-0.0625 -0.125,0.125 q -0.125,0.125 -0.1875,0.3125 L 12.0625,11.8125 12.15625,11.53125 12.25,11.25 12.125,11.625 12,12 11.625,12.125 11.25,12.25 11.53125,12.15625 11.8125,12.0625 11.625,12.125 q -0.1875,0.0625 -0.3125,0.1875 l -0.125,0.125 L 11.25,12.375 11.3125,12.3125 11.03125,12.03125 10.75,11.75 11,11.5 M 10.9375,11.5625 10.75,11.75 10.6875,11.8125 10.625,11.875 10.75,11.75 Q 10.875,11.625 11,11.5 l 0.125,-0.125 -0.1875,0.1875 m 0.875,-0.875 L 11.75,10.75 11.5625,10.9375 11.375,11.125 11.5,11 q 0.125,-0.125 0.25,-0.25 l 0.125,-0.125 -0.0625,0.0625"
       id="path500"
       inkscape:connector-curvature="0" />
    <path
       style="fill:#dce1e9;fill-opacity:1"
       d="m 12.125,11.625 q 0.125,-0.375 0.5,-0.5 L 13,11 V 11.5 12 H 12.5 12 l 0.125,-0.375"
       id="path502"
       inkscape:connector-curvature="0" />
    <path
       style="fill:#dfe3ea;fill-opacity:1"
       d="M 13,11.5 V 11 H 13.5 14 V 11.5 12 H 13.5 13 v -0.5"
       id="path504"
       inkscape:connector-curvature="0" />
    <path
       style="fill:#8180c5;fill-opacity:1"
       d="M 14,11.5 V 11 H 14.5 15 V 11.5 12 H 14.5 14 v -0.5"
       id="path506"
       inkscape:connector-curvature="0" />
    <path
       style="fill:#6e6eb7;fill-opacity:1"
       d="M 15,11.5 V 11 H 15.5 16 V 11.5 12 H 15.5 15 v -0.5"
       id="path508"
       inkscape:connector-curvature="0" />
    <path
       style="fill:#415573;fill-opacity:0.2"
       d="M 2,12.5 1.75,12.25 2,12 2.25,11.75 2.5,12 Q 2.75,12.25 3,12.5 L 3.25,12.75 3,13 2.75,13.25 2.5,13 Q 2.25,12.75 2,12.5 M 2.5625,13.0625 2.75,13.25 2.8125,13.3125 2.875,13.375 2.75,13.25 Q 2.625,13.125 2.5,13 l -0.125,-0.125 0.1875,0.1875 m 0.75,-0.25 L 3.25,12.75 3.0625,12.5625 2.875,12.375 3,12.5 q 0.125,0.125 0.25,0.25 L 3.375,12.875 3.3125,12.8125 M 2.4375,11.9375 2.25,11.75 2.1875,11.6875 2.125,11.625 2.25,11.75 Q 2.375,11.875 2.5,12 l 0.125,0.125 -0.1875,-0.1875 m -0.75,0.25 L 1.75,12.25 1.9375,12.4375 2.125,12.625 2,12.5 Q 1.875,12.375 1.75,12.25 l -0.125,-0.125 0.0625,0.0625"
       id="path510"
       inkscape:connector-curvature="0" />
    <path
       style="fill:#607697;fill-opacity:1"
       d="m 6.75,12.5 q 0,-0.25 0.28125,-0.53125 L 7.3125,11.6875 7.25,11.625 7.1875,11.5625 l 0.125,0.125 q 0.125,0.125 0.3125,0.1875 L 7.8125,11.9375 7.53125,11.84375 7.25,11.75 7.625,11.875 8,12 V 12.5 13 L 7.625,13.125 7.25,13.25 7.53125,13.15625 7.8125,13.0625 7.625,13.125 Q 7.4375,13.1875 7.3125,13.3125 L 7.1875,13.4375 7.25,13.375 7.3125,13.3125 6.984375,13.015625 6.65625,12.71875 6.609375,12.765625 6.5625,12.8125 6.65625,12.71875 Q 6.75,12.625 6.75,12.5 V 12.375 12.5625 12.75 12.5"
       id="path512"
       inkscape:connector-curvature="0" />
    <path
       style="fill:#6e839f;fill-opacity:1"
       d="M 8,12.5 V 12 L 8.375,11.875 8.75,11.75 8.46875,11.84375 8.1875,11.9375 8.375,11.875 Q 8.5625,11.8125 8.71875,11.71875 L 8.875,11.625 8.796875,11.671875 8.71875,11.71875 9,12 9.28125,12.28125 9.328125,12.203125 9.375,12.125 9.28125,12.28125 Q 9.1875,12.4375 9.125,12.625 L 9.0625,12.8125 9.15625,12.53125 9.25,12.25 9.125,12.625 9,13 H 8.5 8 V 12.5 M 8.625,13 H 9 9.125 9.25 9 Q 8.75,13 8.5,13 H 8.25 8.625"
       id="path514"
       inkscape:connector-curvature="0" />
    <path
       style="fill:#afbaca;fill-opacity:1"
       d="M 9.125,12.625 Q 9.25,12.25 9.5,12 L 9.75,11.75 9.5625,11.9375 9.375,12.125 9.5,12 Q 9.625,11.875 9.71875,11.71875 L 9.8125,11.5625 9.765625,11.640625 9.71875,11.71875 10,12 10.28125,12.28125 10.32812,12.20312 10.375,12.125 10.28125,12.28125 Q 10.1875,12.4375 10.125,12.625 L 10.0625,12.8125 10.15625,12.53125 10.25,12.25 10.125,12.625 10,13 H 9.5 9 L 9.125,12.625 M 8.875,13 H 9 9.375 9.75 9.5 Q 9.25,13 9,13 H 8.75 8.875"
       id="path516"
       inkscape:connector-curvature="0" />
    <path
       style="fill:#c3ccd7;fill-opacity:1"
       d="M 10.125,12.625 Q 10.25,12.25 10.5,12 l 0.25,-0.25 0.28125,0.28125 0.28125,0.28125 0.0625,-0.0625 0.0625,-0.0625 -0.125,0.125 q -0.125,0.125 -0.1875,0.3125 L 11.0625,12.8125 11.15625,12.53125 11.25,12.25 11.125,12.625 11,13 H 10.5 10 l 0.125,-0.375 M 10.8125,11.6875 10.75,11.75 10.5625,11.9375 10.375,12.125 10.5,12 q 0.125,-0.125 0.25,-0.25 l 0.125,-0.125 -0.0625,0.0625"
       id="path518"
       inkscape:connector-curvature="0" />
    <path
       style="fill:#d5dae3;fill-opacity:1"
       d="m 11.125,12.625 q 0.125,-0.375 0.5,-0.5 L 12,12 V 12.5 13 H 11.5 11 l 0.125,-0.375"
       id="path520"
       inkscape:connector-curvature="0" />
    <path
       style="fill:#dee2e9;fill-opacity:1"
       d="M 12,12.5 V 12 H 12.5 13 V 12.5 13 H 12.5 12 v -0.5"
       id="path522"
       inkscape:connector-curvature="0" />
    <path
       style="fill:#d9dde6;fill-opacity:1"
       d="M 13,12.5 V 12 h 0.5 0.5 l -0.125,0.375 q -0.125,0.375 -0.5,0.5 L 13,13 v -0.5"
       id="path524"
       inkscape:connector-curvature="0" />
    <path
       style="fill:#787abf;fill-opacity:1"
       d="M 13.875,12.375 14,12 h 0.5 0.5 l -0.125,0.375 Q 14.75,12.75 14.5,13 L 14.25,13.25 14.4375,13.0625 14.625,12.875 14.5,13 q -0.125,0.125 -0.21875,0.28125 L 14.1875,13.4375 14.23437,13.35937 14.28124,13.28124 13.984375,12.984375 13.6875,12.6875 13.625,12.75 l -0.0625,0.0625 0.125,-0.125 q 0.125,-0.125 0.1875,-0.3125 L 13.9375,12.1875 13.84375,12.46875 13.75,12.75 13.875,12.375"
       id="path526"
       inkscape:connector-curvature="0" />
    <path
       style="fill:#6568ae;fill-opacity:1"
       d="M 14.875,12.375 15,12 H 15.5 16 V 12.5 13 L 15.625,13.125 15.25,13.25 15.53125,13.15625 15.8125,13.0625 15.625,13.125 q -0.1875,0.0625 -0.34375,0.15625 L 15.125,13.375 15.203125,13.328125 15.28125,13.28125 15,13 14.71875,12.71875 14.671875,12.796875 14.625,12.875 14.71875,12.71875 Q 14.8125,12.5625 14.875,12.375 L 14.9375,12.1875 14.84375,12.46875 14.75,12.75 14.875,12.375"
       id="path528"
       inkscape:connector-curvature="0" />
    <path
       style="fill:#445571;fill-opacity:0.17647059"
       d="M 3,13.5 2.75,13.25 3,13 3.25,12.75 3.5,13 Q 3.75,13.25 4,13.5 L 4.25,13.75 4,14 3.75,14.25 3.5,14 Q 3.25,13.75 3,13.5 M 3.5625,14.0625 3.75,14.25 3.8125,14.3125 3.875,14.375 3.75,14.25 Q 3.625,14.125 3.5,14 l -0.125,-0.125 0.1875,0.1875 m 0.75,-0.25 L 4.25,13.75 4.0625,13.5625 3.875,13.375 4,13.5 q 0.125,0.125 0.25,0.25 L 4.375,13.875 4.3125,13.8125 M 3.4375,12.9375 3.25,12.75 3.1875,12.6875 3.125,12.625 3.25,12.75 Q 3.375,12.875 3.5,13 l 0.125,0.125 -0.1875,-0.1875 m -0.75,0.25 L 2.75,13.25 2.9375,13.4375 3.125,13.625 3,13.5 Q 2.875,13.375 2.75,13.25 l -0.125,-0.125 0.0625,0.0625"
       id="path530"
       inkscape:connector-curvature="0" />
    <path
       style="fill:#47597b;fill-opacity:1"
       d="M 4,13.5 3.75,13.25 4,13 4.25,12.75 4.5,13 Q 4.75,13.25 5,13.5 L 5.25,13.75 5.0625,13.5625 4.875,13.375 5,13.5 q 0.125,0.125 0.25,0.1875 L 5.375,13.75 5.3125,13.71875 5.25,13.6875 4.984375,13.984375 4.71875,14.28125 4.765625,14.359375 4.8125,14.4375 4.71875,14.28125 Q 4.625,14.125 4.5,14 L 4.375,13.875 4.5625,14.0625 4.75,14.25 4.5,14 Q 4.25,13.75 4,13.5 M 4.4375,12.9375 4.25,12.75 4.1875,12.6875 4.125,12.625 4.25,12.75 Q 4.375,12.875 4.5,13 l 0.125,0.125 -0.1875,-0.1875 m -0.75,0.25 L 3.75,13.25 3.9375,13.4375 4.125,13.625 4,13.5 Q 3.875,13.375 3.75,13.25 l -0.125,-0.125 0.0625,0.0625"
       id="path532"
       inkscape:connector-curvature="0" />
    <path
       style="fill:#3d516d;fill-opacity:1"
       d="M 5.875,13.375 6,13 6.375,12.875 6.75,12.75 6.46875,12.84375 6.1875,12.9375 6.375,12.875 Q 6.5625,12.8125 6.65625,12.71875 L 6.75,12.625 6.703125,12.671875 6.65625,12.71875 6.984375,13.015625 7.3125,13.3125 7.375,13.25 7.4375,13.1875 7.3125,13.3125 Q 7.1875,13.4375 7.125,13.625 L 7.0625,13.8125 7.15625,13.53125 7.25,13.25 7.125,13.625 7,14 6.625,14.125 6.25,14.25 6.53125,14.15625 6.8125,14.0625 6.625,14.125 Q 6.4375,14.1875 6.3125,14.3125 L 6.1875,14.4375 6.25,14.375 6.3125,14.3125 6.015625,13.984375 5.71875,13.65625 5.671875,13.703125 5.625,13.75 5.71875,13.65625 Q 5.8125,13.5625 5.875,13.375 L 5.9375,13.1875 5.84375,13.46875 5.75,13.75 5.875,13.375"
       id="path534"
       inkscape:connector-curvature="0" />
    <path
       style="fill:#32435b;fill-opacity:1"
       d="m 7.125,13.625 q 0.125,-0.375 0.5,-0.5 L 8,13 7.71875,13.09375 7.4375,13.1875 7.625,13.125 Q 7.8125,13.0625 8.03125,13.03125 L 8.25,13 8.140625,13.015625 8.03125,13.03125 8.140625,13.390625 8.25,13.75 8.15625,13.46875 8.0625,13.1875 8.125,13.375 q 0.0625,0.1875 0.1875,0.3125 l 0.125,0.125 L 8.375,13.75 8.3125,13.6875 8,14 7.6875,14.3125 7.75,14.375 7.8125,14.4375 7.6875,14.3125 Q 7.5625,14.1875 7.375,14.125 L 7.1875,14.0625 7.46875,14.15625 7.75,14.25 7.375,14.125 7,14 7.125,13.625"
       id="path536"
       inkscape:connector-curvature="0" />
    <path
       style="fill:#6767b5;fill-opacity:1"
       d="M 8.140625,13.390625 8.03125,13.03125 7.921875,13.046875 7.8125,13.0625 8.03125,13.03125 Q 8.25,13 8.5,13 H 8.75 8.375 8 8.5 9 V 13.5 14 L 8.625,13.875 Q 8.25,13.75 8.140625,13.390625"
       id="path538"
       inkscape:connector-curvature="0" />
    <path
       style="fill:#6867b6;fill-opacity:1"
       d="M 9,13.5 V 13 H 9.5 10 V 13.5 14 H 9.5 9 v -0.5"
       id="path540"
       inkscape:connector-curvature="0" />
    <path
       style="fill:#6f6fbb;fill-opacity:1"
       d="M 10,13.5 V 13 H 10.5 11 V 13.5 14 H 10.5 10 v -0.5"
       id="path542"
       inkscape:connector-curvature="0" />
    <path
       style="fill:#7172bd;fill-opacity:1"
       d="M 11,13.5 V 13 H 11.5 12 V 13.5 14 H 11.5 11 v -0.5"
       id="path544"
       inkscape:connector-curvature="0" />
    <path
       style="fill:#7a76c1;fill-opacity:1"
       d="M 12,13.5 V 13 H 12.5 13 V 13.5 14 H 12.5 12 v -0.5"
       id="path546"
       inkscape:connector-curvature="0" />
    <path
       style="fill:#8381c7;fill-opacity:1"
       d="M 13,13.5 V 13 L 13.375,12.875 13.75,12.75 13.46875,12.84375 13.1875,12.9375 13.375,12.875 q 0.1875,-0.0625 0.3125,-0.1875 l 0.125,-0.125 -0.0625,0.0625 -0.0625,0.0625 0.296875,0.296875 0.296875,0.296875 0.04687,-0.07813 L 14.375,13.125 14.28125,13.28125 Q 14.1875,13.4375 14.125,13.625 L 14.0625,13.8125 14.15625,13.53125 14.25,13.25 14.125,13.625 14,14 H 13.5 13 v -0.5"
       id="path548"
       inkscape:connector-curvature="0" />
    <path
       style="fill:#7c7dc2;fill-opacity:1"
       d="M 14.125,13.625 Q 14.25,13.25 14.5,13 L 14.75,12.75 14.5625,12.9375 14.375,13.125 14.5,13 q 0.125,-0.125 0.21875,-0.28125 L 14.8125,12.5625 14.76563,12.64063 14.71876,12.71876 15,13 l 0.28125,0.28125 0.07813,-0.04687 0.07813,-0.04687 -0.15625,0.09375 Q 15.125,13.375 15,13.5 L 14.875,13.625 15.0625,13.4375 15.25,13.25 15,13.5 q -0.25,0.25 -0.625,0.375 L 14,14 14.125,13.625"
       id="path550"
       inkscape:connector-curvature="0" />
    <path
       style="fill:#5f6c9b;fill-opacity:1"
       d="m 15,13.5 q 0.25,-0.25 0.625,-0.375 L 16,13 V 13.5 14 L 15.625,14.125 15.25,14.25 15.53125,14.15625 15.8125,14.0625 15.625,14.125 q -0.1875,0.0625 -0.3125,0.1875 l -0.125,0.125 0.0625,-0.0625 0.0625,-0.0625 -0.296875,-0.296875 -0.296875,-0.296875 -0.07813,0.04687 -0.07813,0.04687 0.15625,-0.09375 Q 14.875,13.625 15,13.5 L 15.125,13.375 14.9375,13.5625 14.75,13.75 15,13.5"
       id="path552"
       inkscape:connector-curvature="0" />
    <path
       style="fill:#415576;fill-opacity:0.15294118"
       d="M 4,14.5 3.75,14.25 4,14 4.25,13.75 4.5,14 q 0.25,0.25 0.375,0.625 L 5,15 4.625,14.875 Q 4.25,14.75 4,14.5 M 4.4375,13.9375 4.25,13.75 4.1875,13.6875 4.125,13.625 4.25,13.75 Q 4.375,13.875 4.5,14 l 0.125,0.125 -0.1875,-0.1875 m -0.75,0.25 L 3.75,14.25 3.9375,14.4375 4.125,14.625 4,14.5 Q 3.875,14.375 3.75,14.25 l -0.125,-0.125 0.0625,0.0625"
       id="path554"
       inkscape:connector-curvature="0" />
    <path
       style="fill:#435774;fill-opacity:1"
       d="M 4.875,14.625 4.75,14.25 4.84375,14.53125 4.9375,14.8125 4.875,14.625 Q 4.8125,14.4375 4.71875,14.28125 L 4.625,14.125 4.671875,14.203125 4.71875,14.28125 4.984375,13.984375 5.25,13.6875 5.1875,13.65625 5.125,13.625 5.25,13.6875 Q 5.375,13.75 5.5,13.75 H 5.625 5.4375 5.25 5.5 5.75 5.5625 5.375 5.5 q 0.125,0 0.21875,-0.09375 L 5.8125,13.5625 5.765625,13.609375 5.71875,13.65625 6.015625,13.984375 6.3125,14.3125 6.375,14.25 6.4375,14.1875 6.3125,14.3125 Q 6.1875,14.4375 6.125,14.625 L 6.0625,14.8125 6.15625,14.53125 6.25,14.25 6.125,14.625 6,15 H 5.5 5 L 4.875,14.625"
       id="path556"
       inkscape:connector-curvature="0" />
    <path
       style="fill:#3a4d68;fill-opacity:1"
       d="m 6.125,14.625 q 0.125,-0.375 0.5,-0.5 L 7,14 V 14.5 15 H 6.5 6 l 0.125,-0.375"
       id="path558"
       inkscape:connector-curvature="0" />
    <path
       style="fill:#364864;fill-opacity:1"
       d="M 7,14.5 V 14 l 0.375,0.125 q 0.375,0.125 0.5,0.5 L 8,15 H 7.5 7 v -0.5"
       id="path560"
       inkscape:connector-curvature="0" />
    <path
       style="fill:#394c69;fill-opacity:1"
       d="M 7.875,14.625 7.75,14.25 7.84375,14.53125 7.9375,14.8125 7.875,14.625 Q 7.8125,14.4375 7.6875,14.3125 L 7.5625,14.1875 7.625,14.25 7.6875,14.3125 8,14 8.3125,13.6875 8.25,13.625 8.1875,13.5625 l 0.125,0.125 q 0.125,0.125 0.3125,0.1875 L 8.8125,13.9375 8.53125,13.84375 8.25,13.75 8.625,13.875 9,14 V 14.5 15 H 8.5 8 L 7.875,14.625"
       id="path562"
       inkscape:connector-curvature="0" />
    <path
       style="fill:#394e6b;fill-opacity:1"
       d="M 9,14.5 V 14 H 9.5 10 V 14.5 15 H 9.5 9 v -0.5"
       id="path564"
       inkscape:connector-curvature="0" />
    <path
       style="fill:#3b506c;fill-opacity:1"
       d="M 10,14.5 V 14 H 10.5 11 V 14.5 15 H 10.5 10 v -0.5"
       id="path566"
       inkscape:connector-curvature="0" />
    <path
       style="fill:#3d516c;fill-opacity:1"
       d="M 11,14.5 V 14 H 11.5 12 V 14.5 15 H 11.5 11 v -0.5"
       id="path568"
       inkscape:connector-curvature="0" />
    <path
       style="fill:#405271;fill-opacity:1"
       d="M 12,14.5 V 14 H 12.5 13 V 14.5 15 H 12.5 12 v -0.5"
       id="path570"
       inkscape:connector-curvature="0" />
    <path
       style="fill:#485a7b;fill-opacity:0.93333333"
       d="M 13,14.5 V 14 H 13.5 14 V 14.5 15 H 13.5 13 v -0.5"
       id="path572"
       inkscape:connector-curvature="0" />
    <path
       style="fill:#516282;fill-opacity:0.84313725"
       d="M 14,14.5 V 14 L 14.375,13.875 14.75,13.75 14.46875,13.84375 14.1875,13.9375 14.375,13.875 q 0.1875,-0.0625 0.34375,-0.15625 L 14.875,13.625 l -0.07813,0.04687 -0.07813,0.04687 0.296875,0.296875 0.296875,0.296875 0.0625,-0.0625 0.0625,-0.0625 -0.125,0.125 q -0.125,0.125 -0.1875,0.3125 L 15.0625,14.8125 15.15625,14.53125 15.25,14.25 15.125,14.625 15,15 H 14.5 14 v -0.5"
       id="path574"
       inkscape:connector-curvature="0" />
    <path
       style="fill:#5a6b8c;fill-opacity:0.69803922"
       d="m 15.125,14.625 q 0.125,-0.375 0.5,-0.5 L 16,14 V 14.5 15 H 15.5 15 l 0.125,-0.375"
       id="path576"
       inkscape:connector-curvature="0" />
  </g>
</svg>
