<?xml version="1.0" encoding="UTF-8" standalone="no"?>
<!-- Created with Inkscape (http://www.inkscape.org/) -->

<svg
   xmlns:dc="http://purl.org/dc/elements/1.1/"
   xmlns:cc="http://creativecommons.org/ns#"
   xmlns:rdf="http://www.w3.org/1999/02/22-rdf-syntax-ns#"
   xmlns:svg="http://www.w3.org/2000/svg"
   xmlns="http://www.w3.org/2000/svg"
   xmlns:sodipodi="http://sodipodi.sourceforge.net/DTD/sodipodi-0.dtd"
   xmlns:inkscape="http://www.inkscape.org/namespaces/inkscape"
   version="1.1"
   id="svg2"
   width="20"
   height="30"
   viewBox="0 0 20 30"
   sodipodi:docname="Herbs.svg"
   inkscape:version="0.92.4 (5da689c313, 2019-01-14)">
  <metadata
     id="metadata8">
    <rdf:RDF>
      <cc:Work
         rdf:about="">
        <dc:format>image/svg+xml</dc:format>
        <dc:type
           rdf:resource="http://purl.org/dc/dcmitype/StillImage" />
        <dc:title></dc:title>
      </cc:Work>
    </rdf:RDF>
  </metadata>
  <defs
     id="defs6" />
  <sodipodi:namedview
     pagecolor="#ffffff"
     bordercolor="#666666"
     borderopacity="1"
     objecttolerance="10"
     gridtolerance="10"
     guidetolerance="10"
     inkscape:pageopacity="0"
     inkscape:pageshadow="2"
     inkscape:window-width="1920"
     inkscape:window-height="1001"
     id="namedview4"
     showgrid="false"
     inkscape:zoom="15.733333"
     inkscape:cx="5"
     inkscape:cy="7.5"
     inkscape:window-x="-9"
     inkscape:window-y="-9"
     inkscape:window-maximized="1"
     inkscape:current-layer="svg2" />
  <g
     id="g34"
     transform="scale(2)">
    <path
       style="fill:#000000;fill-opacity:0"
       d="M 0,0.5 V 0 H 0.5 1 1.5 2 2.5 3 3.5 4 4.5 5 5.5 6 6.5 7 7.5 8 8.5 9 9.5 10 V 0.5 1 1.5 2 2.5 3 3.5 4 4.5 5 5.5 6 6.5 7 7.5 8 8.5 9 9.5 10 10.5 11 11.5 12 12.5 13 13.5 14 14.5 15 H 9.5 9 8.5 8 7.5 7 6.5 6 5.5 5 4.5 4 3.5 3 2.5 2 1.5 1 0.5 0 V 14.5 14 13.5 13 12.5 12 11.5 11 10.5 10 9.5 9 8.5 8 7.5 7 6.5 6 5.5 5 4.5 4 3.5 3 2.5 2 1.5 1 0.5 m 5,13 q 0.25,0.25 0.5,0.25 0.25,0 0.5,-0.25 Q 6.25,13.25 6.5,13 6.75,12.75 6.875,12.375 7,12 7.125,11.625 7.25,11.25 7.5,11 7.75,10.75 7.875,10.375 L 8,10 8.125,9.625 Q 8.25,9.25 8.5,9 8.75,8.75 8.75,8.5 8.75,8.25 8.5,8.25 8.25,8.25 8,8.5 7.75,8.75 7.5,9 7.25,9.25 7.125,9.625 L 7,10 6.875,10.375 Q 6.75,10.75 6.5,11 6.25,11.25 6.125,11.625 6,12 5.875,12.375 5.75,12.75 5.5,12.75 5.25,12.75 5,12.5 4.75,12.25 4.5,12 4.25,11.75 4.125,11.375 4,11 4,10.5 4,10 3.875,9.625 3.75,9.25 3.5,9 3.25,8.75 3.125,8.375 3,8 2.875,7.625 2.75,7.25 2.5,7 2.25,6.75 2,6.5 1.75,6.25 1.5,6.25 1.25,6.25 1.25,6.5 1.25,6.75 1.5,7 1.75,7.25 1.875,7.625 2,8 2.125,8.375 2.25,8.75 2.5,9 2.75,9.25 2.875,9.625 3,10 3,10.5 3,11 3.125,11.375 3.25,11.75 3.5,12 3.75,12.25 4,12.5 4.25,12.75 4.5,13 4.75,13.25 5,13.5 m 0,-5 Q 5.25,8.75 5.5,8.75 5.75,8.75 6,8.5 6.25,8.25 6.5,8 6.75,7.75 6.875,7.375 7,7 7.125,6.625 7.25,6.25 7.5,6 7.75,5.75 7.875,5.375 8,5 8.125,4.625 8.25,4.25 8.5,4 8.75,3.75 8.75,3.5 8.75,3.25 8.5,3.25 8.25,3.25 8,3.5 7.75,3.75 7.5,4 7.25,4.25 7,4.5 6.75,4.75 6.5,5 6.25,5.25 6.125,5.625 6,6 6,6.5 6,7 5.875,7.375 5.75,7.75 5.5,7.75 5.25,7.75 5.125,7.375 L 5,7 V 6.5 Q 5,6 4.875,5.625 4.75,5.25 4.5,5 4.25,4.75 4.125,4.375 4,4 4,3.5 4,3 3.875,2.625 3.75,2.25 3.5,2 3.25,1.75 3,1.5 2.75,1.25 2.5,1.25 2.25,1.25 2.25,1.5 2.25,1.75 2.5,2 2.75,2.25 2.875,2.625 3,3 3,3.5 3,4 3.125,4.375 3.25,4.75 3.5,5 3.75,5.25 3.875,5.625 4,6 4,6.5 V 7 L 4.125,7.375 Q 4.25,7.75 4.5,8 4.75,8.25 5,8.5"
       id="path12"
       inkscape:connector-curvature="0" />
    <path
       style="fill:#ff0300;fill-opacity:0.78039216"
       d="M 2.25,1.5 Q 2.25,1.25 2.5,1.25 2.75,1.25 3,1.5 3.25,1.75 3.5,2 3.75,2.25 3.875,2.625 4,3 4,3.5 4,4 4.125,4.375 4.25,4.75 4.5,5 4.75,5.25 4.875,5.625 5,6 5,6.5 V 7 H 4.5 4 V 6.5 Q 4,6 3.875,5.625 3.75,5.25 3.5,5 3.25,4.75 3.125,4.375 3,4 3,3.5 3,3 2.875,2.625 2.75,2.25 2.5,2 2.25,1.75 2.25,1.5"
       id="path14"
       inkscape:connector-curvature="0" />
    <path
       style="fill:#ff0400;fill-opacity:0.2745098"
       d="M 8,3.5 Q 8.25,3.25 8.5,3.25 8.75,3.25 8.75,3.5 8.75,3.75 8.5,4 L 8.25,4.25 8.4375,4.0625 8.625,3.875 8.5,4 Q 8.375,4.125 8.28125,4.28125 L 8.1875,4.4375 8.234375,4.359375 8.28125,4.28125 8.015625,4.015625 7.75,3.75 8,3.5 M 7.9375,3.5625 7.75,3.75 7.6875,3.8125 7.625,3.875 7.75,3.75 Q 7.875,3.625 8,3.5 L 8.125,3.375 7.9375,3.5625"
       id="path16"
       inkscape:connector-curvature="0" />
    <path
       style="fill:#ff0200;fill-opacity:0.53333297"
       d="M 7,4.5 Q 7.25,4.25 7.5,4 L 7.75,3.75 8.015625,4.015625 8.28125,4.28125 8.328125,4.203125 8.375,4.125 8.28125,4.28125 Q 8.1875,4.4375 8.125,4.625 L 8.0625,4.8125 8.15625,4.53125 8.25,4.25 8.125,4.625 Q 8,5 7.875,5.375 7.75,5.75 7.5,6 L 7.25,6.25 7.4375,6.0625 7.625,5.875 7.5,6 Q 7.375,6.125 7.28125,6.28125 L 7.1875,6.4375 7.234375,6.359375 7.28125,6.28125 7.015625,6.015625 Q 6.75,5.75 7,5.5 7.25,5.25 7,5 L 6.75,4.75 7,4.5 M 6.9375,4.5625 6.75,4.75 6.6875,4.8125 6.625,4.875 6.75,4.75 Q 6.875,4.625 7,4.5 L 7.125,4.375 6.9375,4.5625 M 7.8125,3.6875 7.75,3.75 7.5625,3.9375 7.375,4.125 7.5,4 Q 7.625,3.875 7.75,3.75 L 7.875,3.625 7.8125,3.6875"
       id="path18"
       inkscape:connector-curvature="0" />
    <path
       style="fill:#ff0300;fill-opacity:0.78039216"
       d="M 6.125,5.625 Q 6.25,5.25 6.5,5 L 6.75,4.75 7,5 Q 7.25,5.25 7,5.5 6.75,5.75 7.015625,6.015625 L 7.28125,6.28125 7.328125,6.203125 7.375,6.125 7.28125,6.28125 Q 7.1875,6.4375 7.125,6.625 L 7.0625,6.8125 7.15625,6.53125 7.25,6.25 7.125,6.625 Q 7,7 6.875,7.375 6.75,7.75 6.5,8 L 6.25,8.25 5.984375,7.953125 5.71875,7.65625 5.671875,7.703125 5.625,7.75 5.71875,7.65625 Q 5.8125,7.5625 5.875,7.375 L 5.9375,7.1875 5.84375,7.46875 5.75,7.75 5.875,7.375 Q 6,7 6,6.5 6,6 6.125,5.625 M 6.1875,8.3125 6.25,8.25 6.4375,8.0625 6.625,7.875 6.5,8 Q 6.375,8.125 6.25,8.25 L 6.125,8.375 6.1875,8.3125 M 6.8125,4.6875 6.75,4.75 6.5625,4.9375 6.375,5.125 6.5,5 Q 6.625,4.875 6.75,4.75 L 6.875,4.625 6.8125,4.6875"
       id="path20"
       inkscape:connector-curvature="0" />
    <path
       style="fill:#ff0300;fill-opacity:0.78039216"
       d="M 1.25,6.5 Q 1.25,6.25 1.5,6.25 1.75,6.25 2,6.5 L 2.25,6.75 1.984375,7.015625 1.71875,7.28125 1.765625,7.359375 1.8125,7.4375 1.71875,7.28125 Q 1.625,7.125 1.5,7 L 1.375,6.875 1.5625,7.0625 1.75,7.25 1.5,7 Q 1.25,6.75 1.25,6.5 M 2.3125,6.8125 2.25,6.75 2.0625,6.5625 1.875,6.375 2,6.5 Q 2.125,6.625 2.25,6.75 L 2.375,6.875 2.3125,6.8125"
       id="path22"
       inkscape:connector-curvature="0" />
    <path
       style="fill:#ff0200;fill-opacity:0.83921569"
       d="M 1.875,7.625 1.75,7.25 1.84375,7.53125 1.9375,7.8125 1.875,7.625 Q 1.8125,7.4375 1.71875,7.28125 L 1.625,7.125 1.671875,7.203125 1.71875,7.28125 1.984375,7.015625 2.25,6.75 2.5,7 Q 2.75,7.25 2.875,7.625 3,8 3.125,8.375 3.25,8.75 3.5,9 3.75,9.25 3.875,9.625 4,10 4,10.5 4,11 4.125,11.375 4.25,11.75 4.5,12 q 0.25,0.25 0.5,0.5 0.25,0.25 0.5,0.25 0.25,0 0.375,-0.375 Q 6,12 6.125,11.625 6.25,11.25 6.5,11 6.75,10.75 6.875,10.375 L 7,10 H 7.5 8 L 7.875,10.375 Q 7.75,10.75 7.5,11 7.25,11.25 7.125,11.625 7,12 6.875,12.375 6.75,12.75 6.5,13 6.25,13.25 6,13.5 5.75,13.75 5.5,13.75 5.25,13.75 5,13.5 4.75,13.25 4.5,13 4.25,12.75 4,12.5 3.75,12.25 3.5,12 3.25,11.75 3.125,11.375 3,11 3,10.5 3,10 2.875,9.625 2.75,9.25 2.5,9 2.25,8.75 2.125,8.375 2,8 1.875,7.625 M 2.4375,6.9375 2.25,6.75 2.1875,6.6875 2.125,6.625 2.25,6.75 Q 2.375,6.875 2.5,7 L 2.625,7.125 2.4375,6.9375"
       id="path24"
       inkscape:connector-curvature="0" />
    <path
       style="fill:#ff0400;fill-opacity:0.2745098"
       d="M 4.125,7.375 4,7 H 4.5 5 L 5.125,7.375 5.25,7.75 5.15625,7.46875 5.0625,7.1875 5.125,7.375 Q 5.1875,7.5625 5.28125,7.65625 L 5.375,7.75 5.328125,7.703125 5.28125,7.65625 5.015625,7.953125 4.75,8.25 4.5,8 Q 4.25,7.75 4.125,7.375 M 4.5625,8.0625 4.75,8.25 4.8125,8.3125 4.875,8.375 4.75,8.25 Q 4.625,8.125 4.5,8 L 4.375,7.875 4.5625,8.0625"
       id="path26"
       inkscape:connector-curvature="0" />
    <path
       style="fill:#ff0200;fill-opacity:0.83921569"
       d="M 5,8.5 4.75,8.25 5.015625,7.953125 5.28125,7.65625 5.234375,7.609375 5.1875,7.5625 5.28125,7.65625 Q 5.375,7.75 5.5,7.75 H 5.625 5.4375 5.25 5.5 5.75 5.5625 5.375 5.5 q 0.125,0 0.21875,-0.09375 L 5.8125,7.5625 5.765625,7.609375 5.71875,7.65625 5.984375,7.953125 6.25,8.25 6,8.5 Q 5.75,8.75 5.5,8.75 5.25,8.75 5,8.5 M 6.0625,8.4375 6.25,8.25 6.3125,8.1875 6.375,8.125 6.25,8.25 Q 6.125,8.375 6,8.5 L 5.875,8.625 6.0625,8.4375 M 4.6875,8.1875 4.75,8.25 4.9375,8.4375 5.125,8.625 5,8.5 Q 4.875,8.375 4.75,8.25 L 4.625,8.125 4.6875,8.1875"
       id="path28"
       inkscape:connector-curvature="0" />
    <path
       style="fill:#ff0200;fill-opacity:0.53333297"
       d="M 8,8.5 Q 8.25,8.25 8.5,8.25 8.75,8.25 8.75,8.5 8.75,8.75 8.5,9 L 8.25,9.25 8.4375,9.0625 8.625,8.875 8.5,9 Q 8.375,9.125 8.28125,9.28125 L 8.1875,9.4375 8.234375,9.359375 8.28125,9.28125 8.015625,9.015625 7.75,8.75 8,8.5 M 7.9375,8.5625 7.75,8.75 7.6875,8.8125 7.625,8.875 7.75,8.75 Q 7.875,8.625 8,8.5 L 8.125,8.375 7.9375,8.5625"
       id="path30"
       inkscape:connector-curvature="0" />
    <path
       style="fill:#ff0300;fill-opacity:0.78039216"
       d="M 7.125,9.625 Q 7.25,9.25 7.5,9 L 7.75,8.75 8.015625,9.015625 8.28125,9.28125 8.328125,9.203125 8.375,9.125 8.28125,9.28125 Q 8.1875,9.4375 8.125,9.625 L 8.0625,9.8125 8.15625,9.53125 8.25,9.25 8.125,9.625 8,10 H 7.5 7 L 7.125,9.625 M 7.8125,8.6875 7.75,8.75 7.5625,8.9375 7.375,9.125 7.5,9 Q 7.625,8.875 7.75,8.75 L 7.875,8.625 7.8125,8.6875"
       id="path32"
       inkscape:connector-curvature="0" />
  </g>
</svg>
