<?xml version="1.0" encoding="UTF-8" standalone="no"?>
<!-- Created with Inkscape (http://www.inkscape.org/) -->

<svg
   xmlns:dc="http://purl.org/dc/elements/1.1/"
   xmlns:cc="http://creativecommons.org/ns#"
   xmlns:rdf="http://www.w3.org/1999/02/22-rdf-syntax-ns#"
   xmlns:svg="http://www.w3.org/2000/svg"
   xmlns="http://www.w3.org/2000/svg"
   xmlns:sodipodi="http://sodipodi.sourceforge.net/DTD/sodipodi-0.dtd"
   xmlns:inkscape="http://www.inkscape.org/namespaces/inkscape"
   version="1.1"
   id="svg2"
   width="20"
   height="30"
   viewBox="0 0 20 30"
   sodipodi:docname="Scroll.svg"
   inkscape:version="0.92.4 (5da689c313, 2019-01-14)">
  <metadata
     id="metadata8">
    <rdf:RDF>
      <cc:Work
         rdf:about="">
        <dc:format>image/svg+xml</dc:format>
        <dc:type
           rdf:resource="http://purl.org/dc/dcmitype/StillImage" />
        <dc:title></dc:title>
      </cc:Work>
    </rdf:RDF>
  </metadata>
  <defs
     id="defs6" />
  <sodipodi:namedview
     pagecolor="#ffffff"
     bordercolor="#666666"
     borderopacity="1"
     objecttolerance="10"
     gridtolerance="10"
     guidetolerance="10"
     inkscape:pageopacity="0"
     inkscape:pageshadow="2"
     inkscape:window-width="1920"
     inkscape:window-height="1001"
     id="namedview4"
     showgrid="false"
     inkscape:zoom="15.733333"
     inkscape:cx="5"
     inkscape:cy="7.5"
     inkscape:window-x="-9"
     inkscape:window-y="-9"
     inkscape:window-maximized="1"
     inkscape:current-layer="svg2" />
  <g
     id="g40"
     transform="scale(2)">
    <path
       style="fill:#000000;fill-opacity:0"
       d="M 0,0.5 V 0 H 0.5 1 1.5 2 2.5 3 3.5 4 4.5 5 5.5 6 6.5 7 7.5 8 8.5 9 L 8.875,0.375 Q 8.75,0.75 8.5,1 8.25,1.25 8,1.5 7.75,1.75 7.5,2 7.25,2.25 7,2.5 6.75,2.75 6.5,3 6.25,3.25 6,3.5 5.75,3.75 5.5,4 5.25,4.25 5.140625,4.640625 L 5.03125,5.03125 5.140625,5.015625 5.25,5 5.03125,5.03125 Q 4.8125,5.0625 4.625,5.125 L 4.4375,5.1875 4.71875,5.09375 5,5 4.625,5.125 Q 4.25,5.25 4,5.5 3.75,5.75 3.5,6 3.25,6.25 3.125,6.65625 L 3,7.0625 H 3.09375 3.1875 3 q -0.1875,0 -0.375,0.0625 L 2.4375,7.1875 2.71875,7.09375 3,7 2.625,7.125 Q 2.25,7.25 2,7.5 1.75,7.75 1.5,8 1.25,8.25 1,8.5 0.75,8.75 0.375,8.875 L 0,9 V 8.5 8 7.5 7 6.5 6 5.5 5 4.5 4 3.5 3 2.5 2 1.5 1 0.5"
       id="path12"
       inkscape:connector-curvature="0" />
    <path
       style="fill:#ffe97c;fill-opacity:1"
       d="M 8.875,0.375 9,0 H 9.5 10 V 0.5 1 1.5 2 L 9.625,2.125 Q 9.25,2.25 9,2.5 8.75,2.75 8.5,3 8.25,3.25 8,3.5 7.75,3.75 7.5,4 7.25,4.25 7,4.5 6.75,4.75 6.328125,4.921875 L 5.90625,5.09375 5.984375,5.140625 6.0625,5.1875 5.90625,5.09375 Q 5.75,5 5.5,5 H 5.25 5.625 6 5.5 5 5.375 5.75 5.5 Q 5.25,5 5.03125,5.03125 L 4.8125,5.0625 4.921875,5.046875 5.03125,5.03125 5.140625,4.640625 Q 5.25,4.25 5.5,4 5.75,3.75 6,3.5 6.25,3.25 6.5,3 6.75,2.75 7,2.5 7.25,2.25 7.5,2 7.75,1.75 8,1.5 8.25,1.25 8.5,1 8.75,0.75 8.875,0.375"
       id="path14"
       inkscape:connector-curvature="0" />
    <path
       style="fill:#ffffff;fill-opacity:1"
       d="M 9,2.5 Q 9.25,2.25 9.625,2.125 L 10,2 V 2.5 3 3.5 4 L 9.625,4.125 Q 9.25,4.25 9,4.5 8.75,4.75 8.5,5 8.25,5.25 8,5.5 7.75,5.75 7.375,5.875 7,6 6.625,5.875 6.25,5.75 6.125,5.375 L 6,5 6.09375,5.28125 6.1875,5.5625 6.125,5.375 Q 6.0625,5.1875 5.90625,5.09375 L 5.75,5 5.828125,5.046875 5.90625,5.09375 6.328125,4.921875 Q 6.75,4.75 7,4.5 7.25,4.25 7.5,4 7.75,3.75 8,3.5 8.25,3.25 8.5,3 8.75,2.75 9,2.5"
       id="path16"
       inkscape:connector-curvature="0" />
    <path
       style="fill:#ffd800;fill-opacity:1"
       d="M 9,4.5 Q 9.25,4.25 9.625,4.125 L 10,4 V 4.5 5 5.5 6 6.5 7 H 9.5 Q 9,7 8.5,7 8,7 7.625,6.875 7.25,6.75 7.125,6.34375 L 7,5.9375 H 6.90625 6.8125 7 q 0.1875,0 0.375,-0.0625 L 7.5625,5.8125 7.28125,5.90625 7,6 7.375,5.875 Q 7.75,5.75 8,5.5 8.25,5.25 8.5,5 8.75,4.75 9,4.5"
       id="path18"
       inkscape:connector-curvature="0" />
    <path
       style="fill:#ff0000;fill-opacity:1"
       d="M 4,5.5 Q 4.25,5.25 4.625,5.125 5,5 5.5,5 6,5 6.125,5.375 6.25,5.75 6.625,5.875 L 7,6 6.71875,5.90625 6.4375,5.8125 6.625,5.875 Q 6.8125,5.9375 7,5.9375 H 7.1875 7.09375 7 L 7.125,6.34375 Q 7.25,6.75 7.625,6.875 L 8,7 7.71875,6.90625 7.4375,6.8125 7.625,6.875 Q 7.8125,6.9375 8.03125,6.96875 L 8.25,7 8.140625,6.984375 8.03125,6.96875 8.140625,7.359375 Q 8.25,7.75 8.625,7.875 L 9,8 V 8.5 Q 9,9 8.875,9.375 8.75,9.75 8.5,10 8.25,10.25 8,10.5 7.75,10.75 7.34375,10.875 L 6.9375,11 V 11.09375 11.1875 11 q 0,-0.1875 -0.0625,-0.375 L 6.8125,10.4375 6.90625,10.71875 7,11 6.875,10.625 Q 6.75,10.25 6.375,10.125 L 6,10 5.875,9.625 Q 5.75,9.25 5.375,9.125 L 5,9 5.28125,9.09375 5.5625,9.1875 5.375,9.125 Q 5.1875,9.0625 5,9.0625 H 4.8125 4.90625 5 L 4.875,8.65625 Q 4.75,8.25 4.375,8.125 4,8 3.875,7.625 3.75,7.25 3.375,7.125 L 3,7 3.28125,7.09375 3.5625,7.1875 3.375,7.125 Q 3.1875,7.0625 3,7.0625 H 2.8125 2.90625 3 L 3.125,6.65625 Q 3.25,6.25 3.5,6 3.75,5.75 4,5.5 M 9,8.375 V 8 7.875 7.75 8 Q 9,8.25 9,8.5 V 8.75 8.375"
       id="path20"
       inkscape:connector-curvature="0" />
    <path
       style="fill:#ffe97c;fill-opacity:1"
       d="M 2,7.5 Q 2.25,7.25 2.625,7.125 3,7 3.375,7.125 3.75,7.25 3.875,7.625 L 4,8 3.90625,7.71875 3.8125,7.4375 3.875,7.625 Q 3.9375,7.8125 4.0625,7.9375 L 4.1875,8.0625 4.125,8 4.0625,7.9375 3.65625,8.09375 Q 3.25,8.25 3,8.5 2.75,8.75 2.5,9 2.25,9.25 2,9.5 1.75,9.75 1.5,10 q -0.25,0.25 -0.25,0.5 0,0.25 0.375,0.375 L 2,11 1.71875,10.90625 1.4375,10.8125 1.625,10.875 Q 1.8125,10.9375 2,10.9375 H 2.1875 2.09375 2 l 0.125,0.40625 Q 2.25,11.75 2.671875,11.921875 L 3.09375,12.09375 3.140625,12.015625 3.1875,11.9375 3.09375,12.09375 Q 3,12.25 3,12.5 V 12.75 12.375 12 12.5 Q 3,13 2.875,13.375 2.75,13.75 2.5,14 2.25,14.25 2.125,14.625 L 2,15 H 1.5 1 0.5 0 V 14.5 14 13.5 13 l 0.375,0.125 Q 0.75,13.25 1,13.5 q 0.25,0.25 0.5,0.25 0.25,0 0.25,-0.25 Q 1.75,13.25 1.5,13 1.25,12.75 1,12.5 0.75,12.25 0.375,12.125 L 0,12 V 11.5 11 10.5 10 9.5 9 L 0.375,8.875 Q 0.75,8.75 1,8.5 1.25,8.25 1.5,8 1.75,7.75 2,7.5"
       id="path22"
       inkscape:connector-curvature="0" />
    <path
       style="fill:#7f3300;fill-opacity:1"
       d="M 8.140625,7.359375 8.03125,6.96875 7.921875,6.953125 7.8125,6.9375 8.03125,6.96875 Q 8.25,7 8.5,7 H 8.75 8.375 8 8.5 9 V 7.5 8 L 8.625,7.875 Q 8.25,7.75 8.140625,7.359375 M 9,8.125 V 8 7.625 7.25 7.5 Q 9,7.75 9,8 V 8.25 8.125 M 9.125,7 H 9 8.625 8.25 8.5 Q 8.75,7 9,7 H 9.25 9.125"
       id="path24"
       inkscape:connector-curvature="0" />
    <path
       style="fill:#7f0000;fill-opacity:1"
       d="M 9,7.5 V 7 H 9.5 10 V 7.5 8 8.5 9 L 9.484375,8.984375 8.96875,8.96875 8.953125,9.078125 8.9375,9.1875 8.96875,8.96875 Q 9,8.75 9,8.5 V 8.25 8.625 9 8.5 Q 9,8 9,7.5 M 9.375,7 H 9 8.875 8.75 9 Q 9.25,7 9.5,7 H 9.75 9.375"
       id="path26"
       inkscape:connector-curvature="0" />
    <path
       style="fill:#ffffff;fill-opacity:1"
       d="M 3,8.5 Q 3.25,8.25 3.65625,8.09375 L 4.0625,7.9375 4,7.875 3.9375,7.8125 4.0625,7.9375 Q 4.1875,8.0625 4.375,8.125 L 4.5625,8.1875 4.28125,8.09375 4,8 4.375,8.125 Q 4.75,8.25 4.875,8.65625 L 5,9.0625 H 5.09375 5.1875 5 q -0.1875,0 -0.375,0.0625 L 4.4375,9.1875 4.71875,9.09375 5,9 4.625,9.125 Q 4.25,9.25 4,9.5 3.75,9.75 3.5,10 3.25,10.25 3,10.5 2.75,10.75 2.375,10.875 2,11 1.625,10.875 1.25,10.75 1.25,10.5 1.25,10.25 1.5,10 1.75,9.75 2,9.5 2.25,9.25 2.5,9 2.75,8.75 3,8.5"
       id="path28"
       inkscape:connector-curvature="0" />
    <path
       style="fill:#ffd800;fill-opacity:1"
       d="M 4,9.5 Q 4.25,9.25 4.625,9.125 5,9 5.375,9.125 5.75,9.25 5.875,9.625 L 6,10 5.625,10.125 Q 5.25,10.25 5,10.5 4.75,10.75 4.5,11 4.25,11.25 4,11.5 3.75,11.75 3.375,11.875 L 3,12 3.28125,11.90625 3.5625,11.8125 3.375,11.875 Q 3.1875,11.9375 3.09375,12.09375 L 3,12.25 3.046875,12.171875 3.09375,12.09375 2.671875,11.921875 Q 2.25,11.75 2.125,11.34375 L 2,10.9375 H 1.90625 1.8125 2 q 0.1875,0 0.375,-0.0625 L 2.5625,10.8125 2.28125,10.90625 2,11 2.375,10.875 Q 2.75,10.75 3,10.5 3.25,10.25 3.5,10 3.75,9.75 4,9.5"
       id="path30"
       inkscape:connector-curvature="0" />
    <path
       style="fill:#000000;fill-opacity:0"
       d="M 8.875,9.375 9,9 8.90625,9.28125 8.8125,9.5625 8.875,9.375 Q 8.9375,9.1875 8.96875,8.96875 L 9,8.75 8.984375,8.859375 8.96875,8.96875 9.484375,8.984375 10,9 V 9.5 10 10.5 11 11.5 12 12.5 13 13.5 14 14.5 15 H 9.5 9 8.5 8 7.5 7 6.5 6 5.5 5 4.5 4 L 4.125,14.625 Q 4.25,14.25 4.5,14 4.75,13.75 5,13.5 5.25,13.25 5.5,13 5.75,12.75 6,12.5 6.25,12.25 6.5,12 6.75,11.75 6.875,11.375 L 7,11 6.90625,11.28125 6.8125,11.5625 6.875,11.375 Q 6.9375,11.1875 6.9375,11 V 10.8125 10.90625 11 L 7.34375,10.875 Q 7.75,10.75 8,10.5 8.25,10.25 8.5,10 8.75,9.75 8.875,9.375"
       id="path32"
       inkscape:connector-curvature="0" />
    <path
       style="fill:#7f3300;fill-opacity:1"
       d="M 5,10.5 Q 5.25,10.25 5.625,10.125 L 6,10 5.875,10.375 Q 5.75,10.75 5.5,11 5.25,11.25 5,11.5 4.75,11.75 4.5,12 4.25,12.25 4,12.5 3.75,12.75 3.359375,12.859375 L 2.96875,12.96875 2.953125,13.078125 2.9375,13.1875 2.96875,12.96875 Q 3,12.75 3,12.5 V 12.25 12.625 13 12.5 Q 3,12 3.375,11.875 3.75,11.75 4,11.5 4.25,11.25 4.5,11 4.75,10.75 5,10.5"
       id="path34"
       inkscape:connector-curvature="0" />
    <path
       style="fill:#7f0000;fill-opacity:1"
       d="M 5.875,10.375 6,10 6.375,10.125 q 0.375,0.125 0.5,0.5 Q 7,11 6.875,11.375 6.75,11.75 6.5,12 6.25,12.25 6,12.5 5.75,12.75 5.5,13 5.25,13.25 5,13.5 4.75,13.75 4.5,14 4.25,14.25 4.125,14.625 L 4,15 H 3.5 3 2.5 2 L 2.125,14.625 Q 2.25,14.25 2.5,14 2.75,13.75 2.875,13.375 L 3,13 2.90625,13.28125 2.8125,13.5625 2.875,13.375 Q 2.9375,13.1875 2.96875,12.96875 L 3,12.75 2.984375,12.859375 2.96875,12.96875 3.359375,12.859375 Q 3.75,12.75 4,12.5 4.25,12.25 4.5,12 4.75,11.75 5,11.5 5.25,11.25 5.5,11 5.75,10.75 5.875,10.375"
       id="path36"
       inkscape:connector-curvature="0" />
    <path
       style="fill:#ffffff;fill-opacity:1"
       d="M 0,12.5 V 12 l 0.375,0.125 Q 0.75,12.25 1,12.5 q 0.25,0.25 0.5,0.5 0.25,0.25 0.25,0.5 0,0.25 -0.25,0.25 Q 1.25,13.75 1,13.5 0.75,13.25 0.375,13.125 L 0,13 v -0.5"
       id="path38"
       inkscape:connector-curvature="0" />
  </g>
</svg>
