<?xml version="1.0" encoding="UTF-8" standalone="no"?>
<!-- Created with Inkscape (http://www.inkscape.org/) -->

<svg
   xmlns:dc="http://purl.org/dc/elements/1.1/"
   xmlns:cc="http://creativecommons.org/ns#"
   xmlns:rdf="http://www.w3.org/1999/02/22-rdf-syntax-ns#"
   xmlns:svg="http://www.w3.org/2000/svg"
   xmlns="http://www.w3.org/2000/svg"
   xmlns:sodipodi="http://sodipodi.sourceforge.net/DTD/sodipodi-0.dtd"
   xmlns:inkscape="http://www.inkscape.org/namespaces/inkscape"
   version="1.1"
   id="svg2"
   width="20"
   height="30"
   viewBox="0 0 20 30"
   sodipodi:docname="Sling.svg"
   inkscape:version="0.92.4 (5da689c313, 2019-01-14)">
  <metadata
     id="metadata8">
    <rdf:RDF>
      <cc:Work
         rdf:about="">
        <dc:format>image/svg+xml</dc:format>
        <dc:type
           rdf:resource="http://purl.org/dc/dcmitype/StillImage" />
        <dc:title></dc:title>
      </cc:Work>
    </rdf:RDF>
  </metadata>
  <defs
     id="defs6" />
  <sodipodi:namedview
     pagecolor="#ffffff"
     bordercolor="#666666"
     borderopacity="1"
     objecttolerance="10"
     gridtolerance="10"
     guidetolerance="10"
     inkscape:pageopacity="0"
     inkscape:pageshadow="2"
     inkscape:window-width="1920"
     inkscape:window-height="1001"
     id="namedview4"
     showgrid="false"
     inkscape:zoom="15.733333"
     inkscape:cx="5"
     inkscape:cy="7.5"
     inkscape:window-x="-9"
     inkscape:window-y="-9"
     inkscape:window-maximized="1"
     inkscape:current-layer="svg2" />
  <g
     id="g28"
     transform="scale(2)">
    <path
       style="fill:#000000;fill-opacity:0"
       d="M 0,0.5 V 0 H 0.5 1 1.5 2 2.5 3 3.5 4 4.5 5 5.5 6 6.5 7 7.5 8 8.5 9 9.5 10 V 0.5 1 1.5 2 2.5 3 3.5 4 4.5 5 5.5 6 6.5 7 7.5 8 8.5 9 9.5 10 10.5 11 11.5 12 12.5 13 13.5 14 14.5 15 H 9.5 9 8.5 8 7.5 7 6.5 6 5.5 5 4.5 4 3.5 3 2.5 2 1.5 1 0.5 0 V 14.5 14 13.5 13 12.5 12 11.5 11 10.5 10 9.5 9 8.5 8 7.5 7 6.5 6 5.5 5 4.5 4 3.5 3 2.5 2 1.5 1 0.5 M 4.625,13.875 Q 5,14 5.375,13.875 5.75,13.75 5.875,13.375 6,13 6,12.5 6,12 6,11.5 6,11 6.125,10.625 6.25,10.25 6.5,10 6.75,9.75 7,9.5 7.25,9.25 7.5,9 7.75,8.75 7.875,8.375 8,8 8,7.5 8,7 7.875,6.625 7.75,6.25 7.5,6 7.25,5.75 7.25,5.5 7.25,5.25 7.65625,5.125 L 8.0625,5 V 4.90625 4.8125 5 q 0,0.1875 0.0625,0.375 L 8.1875,5.5625 8.09375,5.28125 8,5 8.125,5.375 Q 8.25,5.75 8.5,5.75 8.75,5.75 8.875,5.375 9,5 9,4.5 9,4 8.875,3.625 8.75,3.25 8.5,3.25 8.25,3.25 8,3.5 7.75,3.75 7.5,4 7.25,4.25 7,4.5 6.75,4.75 6.5,5 6.25,5.25 6.25,5.5 6.25,5.75 6.5,6 6.75,6.25 6.875,6.625 L 7,7 6.90625,6.71875 6.8125,6.4375 6.875,6.625 Q 6.9375,6.8125 6.96875,7.03125 L 7,7.25 6.984375,7.140625 6.96875,7.03125 6.484375,7.015625 Q 6,7 5.484375,6.984375 L 4.96875,6.96875 4.953125,7.078125 4.9375,7.1875 4.96875,6.96875 Q 5,6.75 5,6.5 V 6.25 6.625 7 6.5 Q 5,6 4.875,5.625 4.75,5.25 4.5,5 4.25,4.75 4,4.5 3.75,4.25 3.5,4 3.25,3.75 3,3.5 2.75,3.25 2.375,3.125 2,3 1.625,3.125 1.25,3.25 1.125,3.625 1,4 1,4.5 1,5 1.125,5.375 1.25,5.75 1.5,6 1.75,6.25 2,6.5 2.25,6.75 2.5,7 2.75,7.25 2.875,7.625 3,8 3.125,8.375 3.25,8.75 3.5,9 3.75,9.25 3.875,9.625 4,10 4,10.5 q 0,0.5 0,1 0,0.5 0,1 0,0.5 0.125,0.875 0.125,0.375 0.5,0.5"
       id="path12"
       inkscape:connector-curvature="0" />
    <path
       style="fill:#ff0000;fill-opacity:1"
       d="M 1.125,3.625 Q 1.25,3.25 1.625,3.125 L 2,3 1.71875,3.09375 1.4375,3.1875 1.625,3.125 Q 1.8125,3.0625 2,3.0625 H 2.1875 2.09375 2 V 3.53125 Q 2,4 2,4.5 2,5 2.125,5.375 2.25,5.75 2.5,6 2.75,6.25 3,6.5 3.25,6.75 3.609375,6.859375 L 3.96875,6.96875 3.984375,6.859375 4,6.75 3.96875,6.96875 Q 3.9375,7.1875 3.875,7.375 L 3.8125,7.5625 3.90625,7.28125 4,7 3.875,7.375 Q 3.75,7.75 3.375,7.875 L 3,8 2.875,7.625 Q 2.75,7.25 2.5,7 2.25,6.75 2,6.5 1.75,6.25 1.5,6 1.25,5.75 1.125,5.375 1,5 1,4.5 1,4 1.125,3.625 M 2.90625,7.71875 3,8 3.03125,8.09375 3.0625,8.1875 3,8 Q 2.9375,7.8125 2.875,7.625 L 2.8125,7.4375 2.90625,7.71875"
       id="path14"
       inkscape:connector-curvature="0" />
    <path
       style="fill:#808080;fill-opacity:1"
       d="M 2,3.53125 V 3.0625 H 1.90625 1.8125 2 q 0.1875,0 0.375,0.0625 L 2.5625,3.1875 2.28125,3.09375 2,3 2.375,3.125 Q 2.75,3.25 3,3.5 3.25,3.75 3.5,4 3.75,4.25 4,4.5 4.25,4.75 4.5,5 4.75,5.25 4.875,5.625 5,6 5,6.5 5,7 4.875,7.375 4.75,7.75 4.5,8 4.25,8.25 4.25,8.5 4.25,8.75 4.5,9 4.75,9.25 5,9.5 5.25,9.75 5.5,9.75 5.75,9.75 5.875,9.375 L 6,9 6.375,8.875 Q 6.75,8.75 6.875,8.375 7,8 7,7.5 7,7 6.875,6.625 6.75,6.25 6.5,6 6.25,5.75 6.25,5.5 6.25,5.25 6.5,5 6.75,4.75 7,4.5 7.25,4.25 7.5,4 7.75,3.75 8,3.5 8.25,3.25 8.5,3.25 q 0.25,0 0.375,0.375 L 9,4 8.90625,3.71875 8.8125,3.4375 8.875,3.625 Q 8.9375,3.8125 8.96875,4.03125 L 9,4.25 8.984375,4.140625 8.96875,4.03125 8.609375,4.140625 Q 8.25,4.25 8.125,4.625 L 8,5 8.09375,4.71875 8.1875,4.4375 8.125,4.625 Q 8.0625,4.8125 8.0625,5 V 5.1875 5.09375 5 L 7.65625,5.125 Q 7.25,5.25 7.25,5.5 7.25,5.75 7.5,6 7.75,6.25 7.875,6.625 8,7 8,7.5 8,8 7.875,8.375 7.75,8.75 7.5,9 7.25,9.25 7,9.5 6.75,9.75 6.5,10 6.25,10.25 6.125,10.625 L 6,11 6.09375,10.71875 6.1875,10.4375 6.125,10.625 Q 6.0625,10.8125 6.03125,11.03125 L 6,11.25 6.015625,11.140625 6.03125,11.03125 5.640625,10.890625 Q 5.25,10.75 5,10.5 4.75,10.25 4.359375,10.140625 L 3.96875,10.03125 3.984375,10.140625 4,10.25 3.96875,10.03125 Q 3.9375,9.8125 3.875,9.625 L 3.8125,9.4375 3.90625,9.71875 4,10 3.875,9.625 Q 3.75,9.25 3.5,9 3.25,8.75 3.125,8.375 L 3,8 3.375,7.875 Q 3.75,7.75 3.875,7.375 4,7 4,6.5 4,6 3.875,5.625 3.75,5.25 3.5,5 3.25,4.75 3,4.5 2.75,4.25 2.375,4.125 L 2,4 V 3.53125 M 2,3.625 V 4 4.125 4.25 4 Q 2,3.75 2,3.5 V 3.25 3.625 M 2.96875,7.90625 3,8 3.09375,8.28125 3.1875,8.5625 3.125,8.375 Q 3.0625,8.1875 3,8 L 2.9375,7.8125 2.96875,7.90625 m 3.0625,1 L 6,9 5.90625,9.28125 5.8125,9.5625 5.875,9.375 Q 5.9375,9.1875 6,9 L 6.0625,8.8125 6.03125,8.90625"
       id="path16"
       inkscape:connector-curvature="0" />
    <path
       style="fill:#000000;fill-opacity:0"
       d="M 2,4.5 V 4 L 2.375,4.125 Q 2.75,4.25 3,4.5 3.25,4.75 3.5,5 3.75,5.25 3.875,5.625 4,6 4,6.5 V 7 6.625 6.25 6.5 Q 4,6.75 3.96875,6.96875 L 3.9375,7.1875 3.953125,7.078125 3.96875,6.96875 3.609375,6.859375 Q 3.25,6.75 3,6.5 2.75,6.25 2.5,6 2.25,5.75 2.125,5.375 2,5 2,4.5 M 2,3.875 V 4 4.375 4.75 4.5 Q 2,4.25 2,4 V 3.75 3.875"
       id="path18"
       inkscape:connector-curvature="0" />
    <path
       style="fill:#ff0000;fill-opacity:1"
       d="M 8.125,4.625 Q 8.25,4.25 8.609375,4.140625 L 8.96875,4.03125 8.953125,3.921875 8.9375,3.8125 8.96875,4.03125 Q 9,4.25 9,4.5 V 4.75 4.375 4 4.5 Q 9,5 8.875,5.375 8.75,5.75 8.5,5.75 8.25,5.75 8.125,5.375 8,5 8.125,4.625"
       id="path20"
       inkscape:connector-curvature="0" />
    <path
       style="fill:#ff0000;fill-opacity:1"
       d="M 4.875,7.375 5,7 4.90625,7.28125 4.8125,7.5625 4.875,7.375 Q 4.9375,7.1875 4.96875,6.96875 L 5,6.75 4.984375,6.859375 4.96875,6.96875 5.484375,6.984375 Q 6,7 6.484375,7.015625 L 6.96875,7.03125 6.953125,6.921875 6.9375,6.8125 6.96875,7.03125 Q 7,7.25 7,7.5 V 7.75 7.375 7 7.5 8 7.625 7.25 7.5 Q 7,7.75 6.96875,7.96875 L 6.9375,8.1875 6.953125,8.078125 6.96875,7.96875 6.609375,8.109375 Q 6.25,8.25 6.125,8.625 6,9 5.875,9.375 5.75,9.75 5.5,9.75 5.25,9.75 5,9.5 4.75,9.25 4.5,9 4.25,8.75 4.25,8.5 4.25,8.25 4.5,8 4.75,7.75 4.875,7.375"
       id="path22"
       inkscape:connector-curvature="0" />
    <path
       style="fill:#000000;fill-opacity:0"
       d="M 6.125,8.625 Q 6.25,8.25 6.609375,8.109375 L 6.96875,7.96875 6.984375,7.859375 7,7.75 6.96875,7.96875 Q 6.9375,8.1875 6.875,8.375 L 6.8125,8.5625 6.90625,8.28125 7,8 6.875,8.375 Q 6.75,8.75 6.375,8.875 L 6,9 6.125,8.625 M 6.09375,8.71875 6,9 5.96875,9.09375 5.9375,9.1875 6,9 Q 6.0625,8.8125 6.125,8.625 L 6.1875,8.4375 6.09375,8.71875"
       id="path24"
       inkscape:connector-curvature="0" />
    <path
       style="fill:#ff0000;fill-opacity:1"
       d="M 4,10.5 V 10 10.375 10.75 10.5 Q 4,10.25 3.96875,10.03125 L 3.9375,9.8125 3.953125,9.921875 3.96875,10.03125 4.359375,10.140625 Q 4.75,10.25 5,10.5 5.25,10.75 5.640625,10.890625 L 6.03125,11.03125 6.046875,10.921875 6.0625,10.8125 6.03125,11.03125 Q 6,11.25 6,11.5 V 11.75 11.375 11 11.5 q 0,0.5 0,1 0,0.5 -0.125,0.875 -0.125,0.375 -0.5,0.5 Q 5,14 4.625,13.875 4.25,13.75 4.125,13.375 4,13 4,12.5 4,12 4,11.5 4,11 4,10.5"
       id="path26"
       inkscape:connector-curvature="0" />
  </g>
</svg>
