<?xml version="1.0" encoding="UTF-8" standalone="no"?>
<!-- Created with Inkscape (http://www.inkscape.org/) -->

<svg
   xmlns:dc="http://purl.org/dc/elements/1.1/"
   xmlns:cc="http://creativecommons.org/ns#"
   xmlns:rdf="http://www.w3.org/1999/02/22-rdf-syntax-ns#"
   xmlns:svg="http://www.w3.org/2000/svg"
   xmlns="http://www.w3.org/2000/svg"
   xmlns:sodipodi="http://sodipodi.sourceforge.net/DTD/sodipodi-0.dtd"
   xmlns:inkscape="http://www.inkscape.org/namespaces/inkscape"
   version="1.1"
   id="svg2"
   width="20"
   height="30"
   viewBox="0 0 20 30"
   sodipodi:docname="Spear.svg"
   inkscape:version="0.92.4 (5da689c313, 2019-01-14)">
  <metadata
     id="metadata8">
    <rdf:RDF>
      <cc:Work
         rdf:about="">
        <dc:format>image/svg+xml</dc:format>
        <dc:type
           rdf:resource="http://purl.org/dc/dcmitype/StillImage" />
        <dc:title></dc:title>
      </cc:Work>
    </rdf:RDF>
  </metadata>
  <defs
     id="defs6" />
  <sodipodi:namedview
     pagecolor="#ffffff"
     bordercolor="#666666"
     borderopacity="1"
     objecttolerance="10"
     gridtolerance="10"
     guidetolerance="10"
     inkscape:pageopacity="0"
     inkscape:pageshadow="2"
     inkscape:window-width="1920"
     inkscape:window-height="1001"
     id="namedview4"
     showgrid="false"
     inkscape:zoom="15.733333"
     inkscape:cx="5"
     inkscape:cy="15.127119"
     inkscape:window-x="-9"
     inkscape:window-y="-9"
     inkscape:window-maximized="1"
     inkscape:current-layer="svg2" />
  <g
     id="g80"
     transform="scale(2)">
    <path
       style="fill:#000000;fill-opacity:0"
       d="M 0,0.5 V 0 H 0.5 1 1.5 2 2.5 3 3.5 4 4.5 5 5.5 6 6.5 7 7.5 8 8.5 9 9.5 10 V 0.5 1 1.5 2 2.5 3 3.5 4 4.5 5 5.5 6 6.5 7 7.5 8 8.5 9 9.5 10 10.5 11 11.5 12 12.5 13 13.5 14 14.5 15 H 9.5 9 8.5 8 7.5 7 6.5 6 5.5 5 4.5 4 3.5 3 2.5 2 1.5 1 0.5 0 V 14.5 14 13.5 13 12.5 12 11.5 11 10.5 10 9.5 9 8.5 8 7.5 7 6.5 6 5.5 5 4.5 4 3.5 3 2.5 2 1.5 1 0.5 m 2,13 q 0.25,0.25 0.5,0.25 0.25,0 0.375,-0.375 L 3,13 3.125,12.625 Q 3.25,12.25 3.5,12 3.75,11.75 4,11.5 4.25,11.25 4.5,11 4.75,10.75 4.875,10.375 L 5,10 5.125,9.625 Q 5.25,9.25 5.5,9 5.75,8.75 5.875,8.375 L 6,8 6.125,7.625 Q 6.25,7.25 6.5,7 6.75,6.75 6.875,6.375 L 7,6 V 5.5 5 L 7.375,4.875 Q 7.75,4.75 7.875,4.375 8,4 8.125,3.625 8.25,3.25 8.5,3 8.75,2.75 8.875,2.375 L 9,2 8.875,1.625 Q 8.75,1.25 8.375,1.125 L 8,1 H 7.5 7 L 6.625,1.125 Q 6.25,1.25 6,1.5 5.75,1.75 5.375,1.875 L 5,2 4.625,2.125 Q 4.25,2.25 4.25,2.5 4.25,2.75 4.5,3 4.75,3.25 5,3.5 5.25,3.75 5.625,3.875 L 6,4 5.875,4.375 Q 5.75,4.75 5.5,5 5.25,5.25 5,5.5 4.75,5.75 4.5,6 4.25,6.25 4.125,6.625 L 4,7 3.875,7.375 Q 3.75,7.75 3.5,8 3.25,8.25 3.125,8.625 L 3,9 2.875,9.375 Q 2.75,9.75 2.5,10 2.25,10.25 2.125,10.625 L 2,11 1.875,11.375 Q 1.75,11.75 1.5,12 1.25,12.25 1.25,12.5 1.25,12.75 1.5,13 1.75,13.25 2,13.5 M 7,4.875 V 5 5.375 5.75 5.5 Q 7,5.25 7,5 V 4.75 4.875"
       id="path12"
       inkscape:connector-curvature="0" />
    <path
       style="fill:#828282;fill-opacity:0.20784314"
       d="M 6,1.5 Q 6.25,1.25 6.625,1.125 L 7,1 V 1.5 2 L 6.625,2.125 6.25,2.25 6.53125,2.15625 6.8125,2.0625 6.625,2.125 Q 6.4375,2.1875 6.28125,2.28125 L 6.125,2.375 6.203125,2.328125 6.28125,2.28125 6,2 5.71875,1.71875 5.640625,1.765625 5.5625,1.8125 5.71875,1.71875 Q 5.875,1.625 6,1.5 L 6.125,1.375 5.9375,1.5625 5.75,1.75 6,1.5"
       id="path14"
       inkscape:connector-curvature="0" />
    <path
       style="fill:#818181;fill-opacity:0.30980392"
       d="M 7,1.5 V 1 H 7.5 8 V 1.5 2 H 7.5 7 V 1.5"
       id="path16"
       inkscape:connector-curvature="0" />
    <path
       style="fill:#818181;fill-opacity:0.45882353"
       d="M 8,1.5 V 1 l 0.375,0.125 q 0.375,0.125 0.5,0.5 L 9,2 H 8.5 8 V 1.5"
       id="path18"
       inkscape:connector-curvature="0" />
    <path
       style="fill:#808080;fill-opacity:0.08627451"
       d="m 4.25,2.5 q 0,-0.25 0.375,-0.375 L 5,2 5.125,2.375 5.25,2.75 5.15625,2.46875 5.0625,2.1875 5.125,2.375 Q 5.1875,2.5625 5.28125,2.65625 L 5.375,2.75 5.328125,2.703125 5.28125,2.65625 5.015625,2.953125 4.75,3.25 4.5,3 Q 4.25,2.75 4.25,2.5 M 4.5625,3.0625 4.75,3.25 4.8125,3.3125 4.875,3.375 4.75,3.25 Q 4.625,3.125 4.5,3 L 4.375,2.875 4.5625,3.0625"
       id="path20"
       inkscape:connector-curvature="0" />
    <path
       style="fill:#808080;fill-opacity:0.86666667"
       d="M 5.125,2.375 5,2 5.375,1.875 5.75,1.75 5.46875,1.84375 5.1875,1.9375 5.375,1.875 Q 5.5625,1.8125 5.71875,1.71875 L 5.875,1.625 5.796875,1.671875 5.71875,1.71875 6,2 6.28125,2.28125 6.359375,2.234375 6.4375,2.1875 6.28125,2.28125 Q 6.125,2.375 6,2.5 L 5.875,2.625 6.0625,2.4375 6.25,2.25 6,2.5 Q 5.75,2.75 5.5,2.75 5.25,2.75 5.125,2.375"
       id="path22"
       inkscape:connector-curvature="0" />
    <path
       style="fill:#808080;fill-opacity:0.92941176"
       d="M 6,2.5 Q 6.25,2.25 6.625,2.125 L 7,2 7.125,2.375 7.25,2.75 7.15625,2.46875 7.0625,2.1875 7.125,2.375 Q 7.1875,2.5625 7.28125,2.65625 L 7.375,2.75 7.328125,2.703125 7.28125,2.65625 7,3 6.71875,3.34375 6.765625,3.390625 6.8125,3.4375 6.71875,3.34375 Q 6.625,3.25 6.5,3.25 H 6.375 6.5625 6.75 6.5 6.25 6.4375 6.625 6.5 q -0.125,0 -0.21875,0.09375 L 6.1875,3.4375 6.234375,3.390625 6.28125,3.34375 6.015625,3.015625 5.75,2.6875 5.6875,2.71875 5.625,2.75 5.75,2.6875 Q 5.875,2.625 6,2.5 L 6.125,2.375 5.9375,2.5625 5.75,2.75 6,2.5"
       id="path24"
       inkscape:connector-curvature="0" />
    <path
       style="fill:#808080;fill-opacity:0.97647059"
       d="M 7.125,2.375 7,2 H 7.5 8 L 7.875,2.375 Q 7.75,2.75 7.5,2.75 7.25,2.75 7.125,2.375"
       id="path26"
       inkscape:connector-curvature="0" />
    <path
       style="fill:#818181;fill-opacity:0.35686275"
       d="M 7.875,2.375 8,2 H 8.5 9 L 8.875,2.375 Q 8.75,2.75 8.5,3 L 8.25,3.25 8.4375,3.0625 8.625,2.875 8.5,3 Q 8.375,3.125 8.28125,3.28125 L 8.1875,3.4375 8.234375,3.359375 8.28125,3.28125 8,2.96875 7.71875,2.65625 7.671875,2.703125 7.625,2.75 7.71875,2.65625 Q 7.8125,2.5625 7.875,2.375 L 7.9375,2.1875 7.84375,2.46875 7.75,2.75 7.875,2.375"
       id="path28"
       inkscape:connector-curvature="0" />
    <path
       style="fill:#808080;fill-opacity:0.25882353"
       d="M 5,3.5 4.75,3.25 5.015625,2.953125 5.28125,2.65625 5.234375,2.609375 5.1875,2.5625 5.28125,2.65625 Q 5.375,2.75 5.5,2.75 H 5.625 5.4375 5.25 5.5 5.75 5.5625 5.375 5.5 q 0.125,0 0.25,-0.0625 L 5.875,2.625 5.8125,2.65625 5.75,2.6875 6.015625,3.015625 6.28125,3.34375 6.328125,3.296875 6.375,3.25 6.28125,3.34375 Q 6.1875,3.4375 6.125,3.625 L 6.0625,3.8125 6.15625,3.53125 6.25,3.25 6.125,3.625 6,4 5.625,3.875 Q 5.25,3.75 5,3.5 M 4.6875,3.1875 4.75,3.25 4.9375,3.4375 5.125,3.625 5,3.5 Q 4.875,3.375 4.75,3.25 L 4.625,3.125 4.6875,3.1875"
       id="path30"
       inkscape:connector-curvature="0" />
    <path
       style="fill:#8e7171;fill-opacity:0.83529412"
       d="M 6.125,3.625 Q 6.25,3.25 6.5,3.25 q 0.25,0 0.375,0.375 L 7,4 H 6.5 6 L 6.125,3.625"
       id="path32"
       inkscape:connector-curvature="0" />
    <path
       style="fill:#808080;fill-opacity:0.75294118"
       d="M 6.875,3.625 6.75,3.25 6.84375,3.53125 6.9375,3.8125 6.875,3.625 Q 6.8125,3.4375 6.71875,3.34375 L 6.625,3.25 6.671875,3.296875 6.71875,3.34375 7,3 7.28125,2.65625 7.234375,2.609375 7.1875,2.5625 7.28125,2.65625 Q 7.375,2.75 7.5,2.75 H 7.625 7.4375 7.25 7.5 7.75 7.5625 7.375 7.5 q 0.125,0 0.21875,-0.09375 L 7.8125,2.5625 7.765625,2.609375 7.71875,2.65625 8,2.96875 8.28125,3.28125 8.328125,3.203125 8.375,3.125 8.28125,3.28125 Q 8.1875,3.4375 8.125,3.625 L 8.0625,3.8125 8.15625,3.53125 8.25,3.25 8.125,3.625 8,4 H 7.5 7 L 6.875,3.625 M 7.96875,4.09375 8,4 8.09375,3.71875 8.1875,3.4375 8.125,3.625 Q 8.0625,3.8125 8,4 L 7.9375,4.1875 7.96875,4.09375"
       id="path34"
       inkscape:connector-curvature="0" />
    <path
       style="fill:#ff0000;fill-opacity:0.84705882"
       d="M 5.875,4.375 6,4 H 6.5 7 V 4.5 5 L 6.625,5.125 6.25,5.25 6.53125,5.15625 6.8125,5.0625 6.625,5.125 Q 6.4375,5.1875 6.3125,5.3125 L 6.1875,5.4375 6.25,5.375 6.3125,5.3125 6.015625,5.015625 5.71875,4.71875 5.671875,4.796875 5.625,4.875 5.71875,4.71875 Q 5.8125,4.5625 5.875,4.375 L 5.9375,4.1875 5.84375,4.46875 5.75,4.75 5.875,4.375"
       id="path36"
       inkscape:connector-curvature="0" />
    <path
       style="fill:#d42b2b;fill-opacity:0.27843137"
       d="M 7,4.5 V 4 H 7.5 8 L 7.875,4.375 Q 7.75,4.75 7.375,4.875 L 7,5 V 4.5 M 7,4.625 V 5 5.125 5.25 5 Q 7,4.75 7,4.5 V 4.25 4.625 M 7.90625,4.28125 8,4 8.03125,3.90625 8.0625,3.8125 8,4 Q 7.9375,4.1875 7.875,4.375 L 7.8125,4.5625 7.90625,4.28125"
       id="path38"
       inkscape:connector-curvature="0" />
    <path
       style="fill:#ff0000;fill-opacity:0.44705882"
       d="M 5,5.5 Q 5.25,5.25 5.5,5 L 5.75,4.75 5.5625,4.9375 5.375,5.125 5.5,5 Q 5.625,4.875 5.71875,4.71875 L 5.8125,4.5625 5.765625,4.640625 5.71875,4.71875 6.015625,5.015625 6.3125,5.3125 6.375,5.25 6.4375,5.1875 6.3125,5.3125 Q 6.1875,5.4375 6.125,5.625 L 6.0625,5.8125 6.15625,5.53125 6.25,5.25 6.125,5.625 6,6 5.625,6.125 5.25,6.25 5.53125,6.15625 5.8125,6.0625 5.625,6.125 Q 5.4375,6.1875 5.3125,6.3125 L 5.1875,6.4375 5.25,6.375 5.3125,6.3125 5.03125,6.03125 4.75,5.75 5,5.5 M 4.9375,5.5625 4.75,5.75 4.6875,5.8125 4.625,5.875 4.75,5.75 Q 4.875,5.625 5,5.5 L 5.125,5.375 4.9375,5.5625"
       id="path40"
       inkscape:connector-curvature="0" />
    <path
       style="fill:#ff0000;fill-opacity:0.6745098"
       d="M 6.125,5.625 Q 6.25,5.25 6.625,5.125 L 7,5 V 5.5 6 H 6.5 6 L 6.125,5.625"
       id="path42"
       inkscape:connector-curvature="0" />
    <path
       style="fill:#ff0000;fill-opacity:0.04705882"
       d="M 4.125,6.625 Q 4.25,6.25 4.5,6 L 4.75,5.75 5.03125,6.03125 5.3125,6.3125 5.375,6.25 5.4375,6.1875 5.3125,6.3125 Q 5.1875,6.4375 5.125,6.625 L 5.0625,6.8125 5.15625,6.53125 5.25,6.25 5.125,6.625 5,7 H 4.5 4 L 4.125,6.625 M 4.8125,5.6875 4.75,5.75 4.5625,5.9375 4.375,6.125 4.5,6 Q 4.625,5.875 4.75,5.75 L 4.875,5.625 4.8125,5.6875"
       id="path44"
       inkscape:connector-curvature="0" />
    <path
       style="fill:#ff0000;fill-opacity:0.9254902"
       d="M 5.125,6.625 Q 5.25,6.25 5.625,6.125 L 6,6 5.875,6.375 Q 5.75,6.75 5.375,6.875 L 5,7 5.125,6.625"
       id="path46"
       inkscape:connector-curvature="0" />
    <path
       style="fill:#ff0000;fill-opacity:0.19607843"
       d="M 5.875,6.375 6,6 H 6.5 7 L 6.875,6.375 Q 6.75,6.75 6.5,7 L 6.25,7.25 6.4375,7.0625 6.625,6.875 6.5,7 Q 6.375,7.125 6.28125,7.28125 L 6.1875,7.4375 6.234375,7.359375 6.28125,7.28125 5.984375,6.984375 5.6875,6.6875 5.625,6.75 5.5625,6.8125 5.6875,6.6875 Q 5.8125,6.5625 5.875,6.375 L 5.9375,6.1875 5.84375,6.46875 5.75,6.75 5.875,6.375"
       id="path48"
       inkscape:connector-curvature="0" />
    <path
       style="fill:#ff0000;fill-opacity:0.5254902"
       d="M 3.875,7.375 4,7 H 4.5 5 V 7.5 8 L 4.625,8.125 4.25,8.25 4.53125,8.15625 4.8125,8.0625 4.625,8.125 Q 4.4375,8.1875 4.3125,8.3125 L 4.1875,8.4375 4.25,8.375 4.3125,8.3125 4.015625,8.015625 3.71875,7.71875 3.671875,7.796875 3.625,7.875 3.71875,7.71875 Q 3.8125,7.5625 3.875,7.375 L 3.9375,7.1875 3.84375,7.46875 3.75,7.75 3.875,7.375"
       id="path50"
       inkscape:connector-curvature="0" />
    <path
       style="fill:#ff0000;fill-opacity:0.59215686"
       d="M 5,7.5 V 7 L 5.375,6.875 5.75,6.75 5.46875,6.84375 5.1875,6.9375 5.375,6.875 Q 5.5625,6.8125 5.6875,6.6875 L 5.8125,6.5625 5.75,6.625 5.6875,6.6875 5.984375,6.984375 6.28125,7.28125 6.328125,7.203125 6.375,7.125 6.28125,7.28125 Q 6.1875,7.4375 6.125,7.625 L 6.0625,7.8125 6.15625,7.53125 6.25,7.25 6.125,7.625 6,8 H 5.5 5 V 7.5"
       id="path52"
       inkscape:connector-curvature="0" />
    <path
       style="fill:#ff0000;fill-opacity:0.12941176"
       d="M 3.125,8.625 Q 3.25,8.25 3.5,8 L 3.75,7.75 3.5625,7.9375 3.375,8.125 3.5,8 Q 3.625,7.875 3.71875,7.71875 L 3.8125,7.5625 3.765625,7.640625 3.71875,7.71875 4.015625,8.015625 4.3125,8.3125 4.375,8.25 4.4375,8.1875 4.3125,8.3125 Q 4.1875,8.4375 4.125,8.625 L 4.0625,8.8125 4.15625,8.53125 4.25,8.25 4.125,8.625 4,9 H 3.5 3 L 3.125,8.625"
       id="path54"
       inkscape:connector-curvature="0" />
    <path
       style="fill:#ff0000;fill-opacity:0.99607843"
       d="M 4.125,8.625 Q 4.25,8.25 4.625,8.125 L 5,8 4.875,8.375 Q 4.75,8.75 4.375,8.875 L 4,9 4.125,8.625"
       id="path56"
       inkscape:connector-curvature="0" />
    <path
       style="fill:#ff0000;fill-opacity:0.11764706"
       d="M 4.875,8.375 5,8 H 5.5 6 L 5.875,8.375 Q 5.75,8.75 5.5,9 L 5.25,9.25 5.4375,9.0625 5.625,8.875 5.5,9 Q 5.375,9.125 5.28125,9.28125 L 5.1875,9.4375 5.234375,9.359375 5.28125,9.28125 4.984375,8.984375 4.6875,8.6875 4.625,8.75 4.5625,8.8125 4.6875,8.6875 Q 4.8125,8.5625 4.875,8.375 L 4.9375,8.1875 4.84375,8.46875 4.75,8.75 4.875,8.375"
       id="path58"
       inkscape:connector-curvature="0" />
    <path
       style="fill:#ff0000;fill-opacity:0.60392157"
       d="M 2.875,9.375 3,9 H 3.5 4 V 9.5 10 L 3.625,10.125 3.25,10.25 3.53125,10.15625 3.8125,10.0625 3.625,10.125 Q 3.4375,10.1875 3.3125,10.3125 L 3.1875,10.4375 3.25,10.375 3.3125,10.3125 3.015625,10.015625 2.71875,9.71875 2.671875,9.796875 2.625,9.875 2.71875,9.71875 Q 2.8125,9.5625 2.875,9.375 L 2.9375,9.1875 2.84375,9.46875 2.75,9.75 2.875,9.375"
       id="path60"
       inkscape:connector-curvature="0" />
    <path
       style="fill:#ff0000;fill-opacity:0.51372549"
       d="M 4,9.5 V 9 L 4.375,8.875 4.75,8.75 4.46875,8.84375 4.1875,8.9375 4.375,8.875 Q 4.5625,8.8125 4.6875,8.6875 L 4.8125,8.5625 4.75,8.625 4.6875,8.6875 4.984375,8.984375 5.28125,9.28125 5.328125,9.203125 5.375,9.125 5.28125,9.28125 Q 5.1875,9.4375 5.125,9.625 L 5.0625,9.8125 5.15625,9.53125 5.25,9.25 5.125,9.625 5,10 H 4.5 4 V 9.5"
       id="path62"
       inkscape:connector-curvature="0" />
    <path
       style="fill:#ff0000;fill-opacity:0.20784314"
       d="M 2.125,10.625 Q 2.25,10.25 2.5,10 L 2.75,9.75 2.5625,9.9375 2.375,10.125 2.5,10 Q 2.625,9.875 2.71875,9.71875 L 2.8125,9.5625 2.765625,9.640625 2.71875,9.71875 3.015625,10.015625 3.3125,10.3125 3.375,10.25 3.4375,10.1875 3.3125,10.3125 Q 3.1875,10.4375 3.125,10.625 L 3.0625,10.8125 3.15625,10.53125 3.25,10.25 3.125,10.625 3,11 H 2.5 2 l 0.125,-0.375"
       id="path64"
       inkscape:connector-curvature="0" />
    <path
       style="fill:#ff0000;fill-opacity:0.91372549"
       d="m 3.125,10.625 q 0.125,-0.375 0.5,-0.5 L 4,10 3.875,10.375 q -0.125,0.375 -0.5,0.5 L 3,11 3.125,10.625"
       id="path66"
       inkscape:connector-curvature="0" />
    <path
       style="fill:#ff0000;fill-opacity:0.03529412"
       d="M 3.875,10.375 4,10 H 4.5 5 L 4.875,10.375 Q 4.75,10.75 4.5,11 L 4.25,11.25 3.96875,10.96875 3.6875,10.6875 3.625,10.75 3.5625,10.8125 3.6875,10.6875 Q 3.8125,10.5625 3.875,10.375 L 3.9375,10.1875 3.84375,10.46875 3.75,10.75 3.875,10.375 M 4.1875,11.3125 4.25,11.25 4.4375,11.0625 4.625,10.875 4.5,11 q -0.125,0.125 -0.25,0.25 l -0.125,0.125 0.0625,-0.0625"
       id="path68"
       inkscape:connector-curvature="0" />
    <path
       style="fill:#ff0000;fill-opacity:0.68627451"
       d="M 1.875,11.375 2,11 H 2.5 3 L 2.875,11.375 Q 2.75,11.75 2.5,12 L 2.25,12.25 2.4375,12.0625 2.625,11.875 2.5,12 Q 2.375,12.125 2.3125,12.25 L 2.25,12.375 2.28125,12.3125 2.3125,12.25 2.015625,11.984375 1.71875,11.71875 1.671875,11.796875 1.625,11.875 1.71875,11.71875 Q 1.8125,11.5625 1.875,11.375 L 1.9375,11.1875 1.84375,11.46875 1.75,11.75 1.875,11.375"
       id="path70"
       inkscape:connector-curvature="0" />
    <path
       style="fill:#ff0000;fill-opacity:0.43921569"
       d="M 2.875,11.375 3,11 3.375,10.875 3.75,10.75 3.46875,10.84375 3.1875,10.9375 3.375,10.875 Q 3.5625,10.8125 3.6875,10.6875 L 3.8125,10.5625 3.75,10.625 3.6875,10.6875 3.96875,10.96875 4.25,11.25 4,11.5 Q 3.75,11.75 3.5,12 L 3.25,12.25 3.4375,12.0625 3.625,11.875 3.5,12 Q 3.375,12.125 3.28125,12.28125 L 3.1875,12.4375 3.234375,12.359375 3.28125,12.28125 3,12 2.71875,11.71875 2.671875,11.796875 2.625,11.875 2.71875,11.71875 Q 2.8125,11.5625 2.875,11.375 L 2.9375,11.1875 2.84375,11.46875 2.75,11.75 2.875,11.375 M 4.0625,11.4375 4.25,11.25 4.3125,11.1875 4.375,11.125 4.25,11.25 Q 4.125,11.375 4,11.5 l -0.125,0.125 0.1875,-0.1875"
       id="path72"
       inkscape:connector-curvature="0" />
    <path
       style="fill:#ff0000;fill-opacity:0.12941176"
       d="M 1.25,12.5 Q 1.25,12.25 1.5,12 L 1.75,11.75 1.5625,11.9375 1.375,12.125 1.5,12 Q 1.625,11.875 1.71875,11.71875 L 1.8125,11.5625 1.765625,11.640625 1.71875,11.71875 2.015625,11.984375 2.3125,12.25 2.34375,12.1875 2.375,12.125 2.3125,12.25 Q 2.25,12.375 2.25,12.5 V 12.625 12.4375 12.25 12.5 12.75 12.5625 12.375 12.5 q 0,0.125 0.09375,0.21875 L 2.4375,12.8125 2.390625,12.765625 2.34375,12.71875 2.046875,12.984375 1.75,13.25 1.5,13 Q 1.25,12.75 1.25,12.5 M 1.5625,13.0625 1.75,13.25 1.8125,13.3125 1.875,13.375 1.75,13.25 Q 1.625,13.125 1.5,13 l -0.125,-0.125 0.1875,0.1875"
       id="path74"
       inkscape:connector-curvature="0" />
    <path
       style="fill:#ff0000;fill-opacity:0.77254902"
       d="M 2.25,12.5 Q 2.25,12.25 2.5,12 L 2.75,11.75 2.5625,11.9375 2.375,12.125 2.5,12 Q 2.625,11.875 2.71875,11.71875 L 2.8125,11.5625 2.765625,11.640625 2.71875,11.71875 3,12 3.28125,12.28125 3.328125,12.203125 3.375,12.125 3.28125,12.28125 Q 3.1875,12.4375 3.125,12.625 L 3.0625,12.8125 3.15625,12.53125 3.25,12.25 3.125,12.625 3,13 2.625,12.875 Q 2.25,12.75 2.25,12.5"
       id="path76"
       inkscape:connector-curvature="0" />
    <path
       style="fill:#ff0000;fill-opacity:0.01568627"
       d="M 2,13.5 1.75,13.25 2.046875,12.984375 2.34375,12.71875 2.296875,12.671875 2.25,12.625 2.34375,12.71875 Q 2.4375,12.8125 2.625,12.875 L 2.8125,12.9375 2.53125,12.84375 2.25,12.75 2.625,12.875 3,13 2.875,13.375 Q 2.75,13.75 2.5,13.75 2.25,13.75 2,13.5 M 1.6875,13.1875 1.75,13.25 1.9375,13.4375 2.125,13.625 2,13.5 Q 1.875,13.375 1.75,13.25 l -0.125,-0.125 0.0625,0.0625"
       id="path78"
       inkscape:connector-curvature="0" />
  </g>
</svg>
