<?xml version="1.0" encoding="UTF-8" standalone="no"?>
<!-- Created with Inkscape (http://www.inkscape.org/) -->

<svg
   xmlns:dc="http://purl.org/dc/elements/1.1/"
   xmlns:cc="http://creativecommons.org/ns#"
   xmlns:rdf="http://www.w3.org/1999/02/22-rdf-syntax-ns#"
   xmlns:svg="http://www.w3.org/2000/svg"
   xmlns="http://www.w3.org/2000/svg"
   xmlns:sodipodi="http://sodipodi.sourceforge.net/DTD/sodipodi-0.dtd"
   xmlns:inkscape="http://www.inkscape.org/namespaces/inkscape"
   version="1.1"
   id="svg2"
   width="20"
   height="30"
   viewBox="0 0 20 30"
   sodipodi:docname="Teleport1.svg"
   inkscape:version="0.92.4 (5da689c313, 2019-01-14)">
  <metadata
     id="metadata8">
    <rdf:RDF>
      <cc:Work
         rdf:about="">
        <dc:format>image/svg+xml</dc:format>
        <dc:type
           rdf:resource="http://purl.org/dc/dcmitype/StillImage" />
        <dc:title></dc:title>
      </cc:Work>
    </rdf:RDF>
  </metadata>
  <defs
     id="defs6" />
  <sodipodi:namedview
     pagecolor="#ffffff"
     bordercolor="#666666"
     borderopacity="1"
     objecttolerance="10"
     gridtolerance="10"
     guidetolerance="10"
     inkscape:pageopacity="0"
     inkscape:pageshadow="2"
     inkscape:window-width="1920"
     inkscape:window-height="1001"
     id="namedview4"
     showgrid="false"
     inkscape:zoom="14.75"
     inkscape:cx="5"
     inkscape:cy="8"
     inkscape:window-x="-9"
     inkscape:window-y="-9"
     inkscape:window-maximized="1"
     inkscape:current-layer="svg2" />
  <g
     id="g20"
     transform="scale(2,1.875)">
    <path
       style="fill:#000000;fill-opacity:0"
       d="M 0,0.5 V 0 H 0.5 1 1.5 2 2.5 3 3.5 4 4.5 5 5.5 6 6.5 7 7.5 8 8.5 9 9.5 10 V 0.5 1 1.5 2 2.5 3 3.5 4 4.5 5 5.5 6 6.5 7 7.5 8 8.5 9 9.5 10 10.5 11 11.5 12 12.5 13 13.5 14 14.5 15 15.5 16 H 9.5 9 8.5 8 7.5 7 6.5 6 5.5 5 4.5 4 3.5 3 2.5 2 1.5 1 0.5 0 V 15.5 15 14.5 14 13.5 13 12.5 12 11.5 11 10.5 10 9.5 9 8.5 8 7.5 7 6.5 6 5.5 5 4.5 4 3.5 3 2.5 2 1.5 1 0.5 M 4.625,12.875 Q 5,13 5.375,12.875 5.75,12.75 6,12.5 6.25,12.25 6.5,12 6.75,11.75 7,11.5 7.25,11.25 7.5,11 7.75,10.75 8,10.5 8.25,10.25 8.5,10 8.75,9.75 8.875,9.375 9,9 9,8.5 9,8 9,7.5 9,7 9,6.5 9,6 8.875,5.625 8.75,5.25 8.5,5 8.25,4.75 8,4.5 7.75,4.25 7.5,4 7.25,3.75 7,3.5 6.75,3.25 6.5,3 6.25,2.75 6,2.5 5.75,2.25 5.375,2.125 5,2 4.625,2.125 4.25,2.25 4,2.5 3.75,2.75 3.5,3 3.25,3.25 3,3.5 2.75,3.75 2.5,4 2.25,4.25 2,4.5 1.75,4.75 1.5,5 1.25,5.25 1.125,5.625 1,6 1,6.5 1,7 1,7.5 1,8 1,8.5 1,9 1.125,9.375 1.25,9.75 1.5,10 q 0.25,0.25 0.5,0.5 0.25,0.25 0.5,0.5 0.25,0.25 0.5,0.5 0.25,0.25 0.5,0.5 0.25,0.25 0.5,0.5 0.25,0.25 0.625,0.375"
       id="path12"
       inkscape:connector-curvature="0" />
    <path
       style="fill:#9000ff;fill-opacity:1"
       d="M 4,2.5 Q 4.25,2.25 4.625,2.125 5,2 5.375,2.125 5.75,2.25 6,2.5 6.25,2.75 6.5,3 6.75,3.25 7,3.5 7.25,3.75 7.5,4 7.75,4.25 8,4.5 8.25,4.75 8.5,5 8.75,5.25 8.875,5.625 9,6 9,6.5 9,7 9,7.5 9,8 9,8.5 9,9 8.875,9.375 8.75,9.75 8.5,10 8.25,10.25 8,10.5 7.75,10.75 7.5,11 7.25,11.25 7,11.5 6.75,11.75 6.5,12 6.25,12.25 6,12.5 5.75,12.75 5.375,12.875 5,13 4.625,12.875 4.25,12.75 4,12.5 3.75,12.25 3.5,12 3.25,11.75 3,11.5 2.75,11.25 2.5,11 2.25,10.75 2,10.5 1.75,10.25 1.5,10 1.25,9.75 1.125,9.375 1,9 1,8.5 1,8 1,7.5 1,7 1,6.5 1,6 1.125,5.625 1.25,5.25 1.5,5 1.75,4.75 2,4.5 2.25,4.25 2.5,4 2.75,3.75 3,3.5 3.25,3.25 3.5,3 3.75,2.75 4,2.5 m 0.625,8.375 Q 5,11 5.375,10.875 5.75,10.75 6,10.5 6.25,10.25 6.5,10 6.75,9.75 7,9.5 7.25,9.25 7.5,9 7.75,8.75 7.875,8.375 8,8 8,7.5 8,7 7.875,6.625 7.75,6.25 7.5,6 7.25,5.75 7,5.5 6.75,5.25 6.5,5 6.25,4.75 6,4.5 5.75,4.25 5.375,4.125 5,4 4.625,4.125 4.25,4.25 4,4.5 3.75,4.75 3.5,5 3.25,5.25 3,5.5 2.75,5.75 2.5,6 2.25,6.25 2.125,6.625 2,7 2,7.5 2,8 2.125,8.375 2.25,8.75 2.5,9 2.75,9.25 3,9.5 3.25,9.75 3.5,10 q 0.25,0.25 0.5,0.5 0.25,0.25 0.625,0.375"
       id="path14"
       inkscape:connector-curvature="0" />
    <path
       style="fill:#00ff21;fill-opacity:1"
       d="M 4,4.5 Q 4.25,4.25 4.625,4.125 5,4 5.375,4.125 5.75,4.25 6,4.5 6.25,4.75 6.5,5 6.75,5.25 7,5.5 7.25,5.75 7.5,6 7.75,6.25 7.875,6.625 8,7 8,7.5 8,8 7.875,8.375 7.75,8.75 7.5,9 7.25,9.25 7,9.5 6.75,9.75 6.5,10 6.25,10.25 6,10.5 5.75,10.75 5.375,10.875 5,11 4.625,10.875 4.25,10.75 4,10.5 3.75,10.25 3.5,10 3.25,9.75 3,9.5 2.75,9.25 2.5,9 2.25,8.75 2.125,8.375 2,8 2,7.5 2,7 2.125,6.625 2.25,6.25 2.5,6 2.75,5.75 3,5.5 3.25,5.25 3.5,5 3.75,4.75 4,4.5 M 4.625,8.875 Q 5,9 5.375,8.875 5.75,8.75 5.875,8.375 6,8 6,7.5 6,7 5.875,6.625 5.75,6.25 5.375,6.125 5,6 4.625,6.125 4.25,6.25 4.125,6.625 4,7 4,7.5 4,8 4.125,8.375 q 0.125,0.375 0.5,0.5"
       id="path16"
       inkscape:connector-curvature="0" />
    <path
       style="fill:#9000ff;fill-opacity:1"
       d="M 4.125,6.625 Q 4.25,6.25 4.625,6.125 5,6 5.375,6.125 5.75,6.25 5.875,6.625 6,7 6,7.5 6,8 5.875,8.375 5.75,8.75 5.375,8.875 5,9 4.625,8.875 4.25,8.75 4.125,8.375 4,8 4,7.5 4,7 4.125,6.625"
       id="path18"
       inkscape:connector-curvature="0" />
  </g>
</svg>
