<?xml version="1.0" encoding="UTF-8" standalone="no"?>
<!-- Created with Inkscape (http://www.inkscape.org/) -->

<svg
   xmlns:dc="http://purl.org/dc/elements/1.1/"
   xmlns:cc="http://creativecommons.org/ns#"
   xmlns:rdf="http://www.w3.org/1999/02/22-rdf-syntax-ns#"
   xmlns:svg="http://www.w3.org/2000/svg"
   xmlns="http://www.w3.org/2000/svg"
   xmlns:sodipodi="http://sodipodi.sourceforge.net/DTD/sodipodi-0.dtd"
   xmlns:inkscape="http://www.inkscape.org/namespaces/inkscape"
   version="1.1"
   id="svg2"
   width="20"
   height="30"
   viewBox="0 0 20 30"
   sodipodi:docname="Torch.svg"
   inkscape:version="0.92.4 (5da689c313, 2019-01-14)">
  <metadata
     id="metadata8">
    <rdf:RDF>
      <cc:Work
         rdf:about="">
        <dc:format>image/svg+xml</dc:format>
        <dc:type
           rdf:resource="http://purl.org/dc/dcmitype/StillImage" />
        <dc:title></dc:title>
      </cc:Work>
    </rdf:RDF>
  </metadata>
  <defs
     id="defs6" />
  <sodipodi:namedview
     pagecolor="#ffffff"
     bordercolor="#666666"
     borderopacity="1"
     objecttolerance="10"
     gridtolerance="10"
     guidetolerance="10"
     inkscape:pageopacity="0"
     inkscape:pageshadow="2"
     inkscape:window-width="1920"
     inkscape:window-height="1001"
     id="namedview4"
     showgrid="false"
     inkscape:zoom="15.733333"
     inkscape:cx="5"
     inkscape:cy="7.5"
     inkscape:window-x="-9"
     inkscape:window-y="-9"
     inkscape:window-maximized="1"
     inkscape:current-layer="svg2" />
  <g
     id="g22"
     transform="scale(2)">
    <path
       style="fill:#000000;fill-opacity:0"
       d="M 0,0.5 V 0 H 0.5 1 1.5 2 2.5 3 3.5 4 4.5 5 5.5 6 L 5.875,0.375 Q 5.75,0.75 5.375,0.875 5,1 4.625,1.125 4.25,1.25 4.125,1.625 4,2 3.625,2.125 3.25,2.25 3.125,2.625 3,3 3,3.5 3,4 2.875,4.375 2.75,4.75 2.5,5 2.25,5.25 2.25,5.5 2.25,5.75 2.5,6 2.75,6.25 3,6.5 3.25,6.75 3.609375,6.859375 L 3.96875,6.96875 3.984375,6.859375 4,6.75 3.96875,6.96875 Q 3.9375,7.1875 3.875,7.375 L 3.8125,7.5625 3.90625,7.28125 4,7 3.875,7.375 Q 3.75,7.75 3.5,8 3.25,8.25 3.125,8.625 3,9 3,9.5 3,10 2.875,10.375 2.75,10.75 2.5,11 2.25,11.25 2.125,11.625 2,12 2,12.5 q 0,0.5 0.125,0.875 0.125,0.375 0.5,0.5 0.375,0.125 0.75,0 0.375,-0.125 0.5,-0.5 Q 4,13 4,12.5 4,12 4.125,11.625 4.25,11.25 4.5,11 4.75,10.75 4.875,10.375 5,10 5,9.5 5,9 5.125,8.625 5.25,8.25 5.5,8 5.75,7.75 5.875,7.375 6,7 6,6.5 V 6 6.375 6.75 6.5 Q 6,6.25 5.96875,6.03125 L 5.9375,5.8125 5.953125,5.921875 5.96875,6.03125 6.359375,5.890625 Q 6.75,5.75 6.875,5.375 L 7,5 7.375,4.875 Q 7.75,4.75 7.875,4.375 8,4 8,3.5 8,3 8,2.5 8,2 8,1.5 8,1 8,0.5 V 0 H 8.5 9 9.5 10 V 0.5 1 1.5 2 2.5 3 3.5 4 4.5 5 5.5 6 6.5 7 7.5 8 8.5 9 9.5 10 10.5 11 11.5 12 12.5 13 13.5 14 14.5 15 H 9.5 9 8.5 8 7.5 7 6.5 6 5.5 5 4.5 4 3.5 3 2.5 2 1.5 1 0.5 0 V 14.5 14 13.5 13 12.5 12 11.5 11 10.5 10 9.5 9 8.5 8 7.5 7 6.5 6 5.5 5 4.5 4 3.5 3 2.5 2 1.5 1 0.5"
       id="path12"
       inkscape:connector-curvature="0" />
    <path
       style="fill:#ffd800;fill-opacity:1"
       d="M 5.875,0.375 6,0 H 6.5 7 7.5 8 V 0.5 Q 8,1 8,1.5 8,2 8,2.5 8,3 8,3.5 8,4 7.875,4.375 7.75,4.75 7.375,4.875 L 7,5 V 4.5 Q 7,4 6.875,3.625 6.75,3.25 6.5,3 6.25,2.75 6,2.5 5.75,2.25 5.375,2.125 5,2 4.46875,1.96875 L 3.9375,1.9375 3.875,2 3.8125,2.0625 3.9375,1.9375 Q 4.0625,1.8125 4.125,1.625 L 4.1875,1.4375 4.09375,1.71875 4,2 4.125,1.625 Q 4.25,1.25 4.625,1.125 5,1 5.375,0.875 5.75,0.75 5.875,0.375"
       id="path14"
       inkscape:connector-curvature="0" />
    <path
       style="fill:#ff6a00;fill-opacity:1"
       d="M 3.125,2.625 Q 3.25,2.25 3.625,2.125 L 4,2 3.71875,2.09375 3.4375,2.1875 3.625,2.125 Q 3.8125,2.0625 3.9375,1.9375 L 4.0625,1.8125 4,1.875 3.9375,1.9375 4.46875,1.96875 Q 5,2 5.375,2.125 5.75,2.25 6,2.5 6.25,2.75 6.5,3 6.75,3.25 6.875,3.625 7,4 7,4.5 V 5 L 6.625,4.875 Q 6.25,4.75 6.125,4.375 6,4 5.875,3.625 5.75,3.25 5.375,3.125 5,3 4.625,3.125 4.25,3.25 4.125,3.625 4,4 3.875,4.375 3.75,4.75 3.5,5 3.25,5.25 3.25,5.5 q 0,0.25 0.390625,0.390625 L 4.03125,6.03125 4.046875,5.921875 4.0625,5.8125 4.03125,6.03125 Q 4,6.25 4,6.5 V 6.75 6.375 6 6.5 7 6.625 6.25 6.5 Q 4,6.75 3.96875,6.96875 L 3.9375,7.1875 3.953125,7.078125 3.96875,6.96875 3.609375,6.859375 Q 3.25,6.75 3,6.5 2.75,6.25 2.5,6 2.25,5.75 2.25,5.5 2.25,5.25 2.5,5 2.75,4.75 2.875,4.375 3,4 3,3.5 3,3 3.125,2.625"
       id="path16"
       inkscape:connector-curvature="0" />
    <path
       style="fill:#ff0000;fill-opacity:1"
       d="M 4.125,3.625 Q 4.25,3.25 4.625,3.125 5,3 5.375,3.125 5.75,3.25 5.875,3.625 6,4 6.125,4.375 6.25,4.75 6.625,4.875 L 7,5 6.875,5.375 Q 6.75,5.75 6.359375,5.890625 L 5.96875,6.03125 5.984375,6.140625 6,6.25 5.96875,6.03125 Q 5.9375,5.8125 5.875,5.625 L 5.8125,5.4375 5.90625,5.71875 6,6 5.875,5.625 Q 5.75,5.25 5.375,5.125 5,5 4.625,5.125 4.25,5.25 4.125,5.625 L 4,6 4.09375,5.71875 4.1875,5.4375 4.125,5.625 Q 4.0625,5.8125 4.03125,6.03125 L 4,6.25 4.015625,6.140625 4.03125,6.03125 3.640625,5.890625 Q 3.25,5.75 3.25,5.5 3.25,5.25 3.5,5 3.75,4.75 3.875,4.375 4,4 4.125,3.625"
       id="path18"
       inkscape:connector-curvature="0" />
    <path
       style="fill:#7f3300;fill-opacity:1"
       d="M 4.125,5.625 Q 4.25,5.25 4.625,5.125 5,5 5.375,5.125 5.75,5.25 5.875,5.625 6,6 6,6.5 6,7 5.875,7.375 5.75,7.75 5.5,8 5.25,8.25 5.125,8.625 5,9 5,9.5 5,10 4.875,10.375 4.75,10.75 4.5,11 4.25,11.25 4.125,11.625 4,12 4,12.5 4,13 3.875,13.375 3.75,13.75 3.375,13.875 3,14 2.625,13.875 2.25,13.75 2.125,13.375 2,13 2,12.5 2,12 2.125,11.625 2.25,11.25 2.5,11 2.75,10.75 2.875,10.375 3,10 3,9.5 3,9 3.125,8.625 3.25,8.25 3.5,8 3.75,7.75 3.875,7.375 4,7 4,6.5 4,6 4.125,5.625"
       id="path20"
       inkscape:connector-curvature="0" />
  </g>
</svg>
