<?xml version="1.0" encoding="utf-8"?>
<!DOCTYPE svg PUBLIC "-//W3C//DTD SVG 1.1//EN" "http://www.w3.org/Graphics/SVG/1.1/DTD/svg11.dtd">
<svg width="36.50390625" height="43.681640625" xmlns="http://www.w3.org/2000/svg" xmlns:xlink="http://www.w3.org/1999/xlink" xmlns:xml="http://www.w3.org/XML/1998/namespace" version="1.1">
  <g>
    <g>
      <path style="fill:#FF0000;fill-opacity:1" d="M4.95117235183716,12.59765625L5.46386671066284,15.2160663604736 6.416015625,17.6806640625 9.3603515625,21.884765625 11.2609853744507,23.5107421875 13.41796875,24.755859375 15.76904296875,25.546875 18.251953125,25.810546875 20.830078125,25.535888671875 23.232421875,24.7119140625 27.2900390625,21.796875 30.146484375,17.5927734375 31.04736328125,15.1501483917236 31.5234375,12.59765625 4.95117235183716,12.59765625z M8.5546875,3.515625L7.1630859375,3.944091796875 6.03515625,5.2294921875 5.25146436691284,7.313232421875 4.892578125,10.13671875 31.611328125,10.13671875 31.256103515625,7.166748046875 30.4833984375,5.1123046875 29.4103984832764,3.914794921875 28.154296875,3.515625 26.1181640625,4.130859375 24.8583984375,5.6396484375 24.228515625,7.5439453125 24.052734375,9.375 22.470703125,9.375 22.2509765625,7.5439453125 21.533203125,5.6396484375 20.2001953125,4.130859375 18.134765625,3.515625 16.171875,4.1455078125 14.912109375,5.6982421875 14.23828125,7.6318359375 14.033203125,9.375 12.392578125,9.375 12.2607421875,7.6318359375 11.7041015625,5.6982421875 10.5322265625,4.1455078125 8.5546875,3.515625z M8.349609375,0L9.9755859375,0.263671875 11.2939453125,0.9814453125 12.36328125,2.0654296875 13.2421875,3.427734375 15.1904296875,0.9521484375 16.519775390625,0.238037109375 18.134765625,0 19.771728515625,0.24169921875 21.1669921875,0.966796875 23.26171875,3.427734375 25.3271484375,0.966796875 26.7370586395264,0.24169921875 28.41796875,0 30.1318359375,0.201416015625 31.69921875,0.8056640625 34.2626953125,3.046875 35.91796875,6.50390625 36.50390625,10.927734375 36.199951171875,14.4213886260986 35.2880859375,17.75390625 33.84521484375,20.830078125 31.9482421875,23.5546875 29.6337890625,25.8837890625 26.9384765625,27.7734375 23.9392070770264,29.12841796875 20.712890625,29.853515625 20.712890625,35.56640625 26.748046875,35.56640625 26.748046875,38.02734375 20.712890625,38.02734375 20.712890625,43.681640625 15.791015625,43.681640625 15.791015625,38.02734375 9.78515625,38.02734375 9.78515625,35.56640625 15.791015625,35.56640625 15.791015625,29.853515625 12.4291982650757,29.1357421875 9.375,27.802734375 6.6796875,25.94970703125 4.39453125,23.671875 2.545166015625,21.009521484375 1.15722632408142,18.0029296875 0.289306610822678,14.7399921417236 0,11.30859375 0.512695550918579,7.1337890625 2.06543016433716,3.515625 4.6728515625,0.966796875 6.375732421875,0.24169921875 8.349609375,0z" />
    </g>
  </g>
</svg>