<?xml version="1.0" encoding="utf-8"?>
<!DOCTYPE svg PUBLIC "-//W3C//DTD SVG 1.1//EN" "http://www.w3.org/Graphics/SVG/1.1/DTD/svg11.dtd">
<svg width="42.01171875" height="42.01171875" xmlns="http://www.w3.org/2000/svg" xmlns:xlink="http://www.w3.org/1999/xlink" xmlns:xml="http://www.w3.org/XML/1998/namespace" version="1.1">
  <g>
    <g>
      <path style="fill:#FF0000;fill-opacity:1" d="M14.677734375,0L27.36328125,0 27.36328125,3.896484375 22.96875,3.896484375 22.96875,19.072265625 38.115234375,19.072265625 38.115234375,14.677734375 42.01171875,14.677734375 42.01171875,27.36328125 38.115234375,27.36328125 38.115234375,22.96875 22.96875,22.96875 22.96875,38.115234375 27.36328125,38.115234375 27.36328125,42.01171875 14.677734375,42.01171875 14.677734375,38.115234375 19.072265625,38.115234375 19.072265625,22.96875 3.896484375,22.96875 3.896484375,27.36328125 0,27.36328125 0,14.677734375 3.896484375,14.677734375 3.896484375,19.072265625 19.072265625,19.072265625 19.072265625,3.896484375 14.677734375,3.896484375 14.677734375,0z" />
    </g>
  </g>
</svg>