<?xml version="1.0" encoding="utf-8"?>
<!DOCTYPE svg PUBLIC "-//W3C//DTD SVG 1.1//EN" "http://www.w3.org/Graphics/SVG/1.1/DTD/svg11.dtd">
<svg width="46.2890625" height="42.01171875" xmlns="http://www.w3.org/2000/svg" xmlns:xlink="http://www.w3.org/1999/xlink" xmlns:xml="http://www.w3.org/XML/1998/namespace" version="1.1">
  <g>
    <g>
      <path style="fill:#FF0000;fill-opacity:1" d="M16.34765625,19.62890625L7.763671875,37.55859375 38.49609375,37.55859375 29.912109375,19.62890625 16.34765625,19.62890625z M23.14453125,5.419921875L17.2265625,17.75390625 29.033203125,17.75390625 23.14453125,5.419921875z M20.361328125,0L25.927734375,0 34.51171875,17.75390625 44.619140625,17.75390625 46.2890625,15.46875 46.2890625,21.85546875 44.560546875,19.62890625 35.419921875,19.62890625 46.2890625,42.01171875 0,42.01171875 10.83984375,19.62890625 1.669921875,19.62890625 0,21.85546875 0,15.46875 1.611328125,17.75390625 4.27734375,17.75390625 7.8662109375,17.51953125 10.60546875,16.6552734375 12.7587890625,14.8681640625 14.619140625,11.865234375 20.361328125,0z" />
    </g>
  </g>
</svg>