<?xml version="1.0" encoding="utf-8"?>
<!DOCTYPE svg PUBLIC "-//W3C//DTD SVG 1.1//EN" "http://www.w3.org/Graphics/SVG/1.1/DTD/svg11.dtd">
<svg width="24.287109375" height="30.52734375" xmlns="http://www.w3.org/2000/svg" xmlns:xlink="http://www.w3.org/1999/xlink" xmlns:xml="http://www.w3.org/XML/1998/namespace" version="1.1">
  <g>
    <g>
      <path style="fill:#FF0000;fill-opacity:1" d="M8.37890625,15.8203125L6.7529296875,16.4794921875 6.09375,18.076171875 6.767578125,19.6875 8.37890625,20.361328125 9.9755859375,19.7021484375 10.634765625,18.076171875 9.9755859375,16.4794921875 8.37890625,15.8203125z M11.220703125,0L14.271240234375,0.223390102386475 16.9189453125,0.8935546875 19.163818359375,1.96289205551147 21.005859375,3.3837890625 22.4414043426514,5.13061666488647 23.466796875,7.177734375 24.0820293426514,9.4775390625 24.287109375,11.982421875 24.287109375,30.52734375 19.921875,30.52734375 12.802734375,20.537109375 11.0595703125,22.3681640625 9.77416896820068,22.950439453125 8.349609375,23.14453125 6.3427734375,22.763671875 4.74609375,21.708984375 3.69140648841858,20.1123046875 3.31054711341858,18.10546875 3.67675805091858,16.0986328125 4.74609375,14.4873046875 6.4599609375,13.41796875 8.73046875,13.037109375 11.6015625,13.7841796875 12.9638662338257,14.805908203125 14.296875,16.376953125 19.892578125,24.169921875 19.892578125,12.041015625 19.39453125,8.876953125 17.841796875,6.2841796875 15.146484375,4.541015625 11.220703125,3.896484375 8.2763671875,4.2626953125 5.302734375,5.2880859375 2.47558617591858,6.85546875 0,8.818359375 0,3.837890625 2.354736328125,2.20459127426147 5.0244140625,0.99609375 7.987060546875,0.249024868011475 11.220703125,0z" />
    </g>
  </g>
</svg>