<?xml version="1.0" encoding="utf-8"?>
<!DOCTYPE svg PUBLIC "-//W3C//DTD SVG 1.1//EN" "http://www.w3.org/Graphics/SVG/1.1/DTD/svg11.dtd">
<svg width="31.201171875" height="30.76171875" xmlns="http://www.w3.org/2000/svg" xmlns:xlink="http://www.w3.org/1999/xlink" xmlns:xml="http://www.w3.org/XML/1998/namespace" version="1.1">
  <g>
    <g>
      <path style="fill:#FF0000;fill-opacity:1" d="M11.044921875,22.44140625L9.697265625,22.822265625 8.642578125,23.5546875 7.96875,24.5654296875 7.734375,25.78125 8.232421875,27.36328125 9.375,27.83203125 10.546875,27.3779296875 11.044921875,25.810546875 11.044921875,22.44140625z M5.390625,9.7265625L4.51171875,9.90234375 3.7939453125,10.3857421875 3.310546875,11.1181640625 3.134765625,12.01171875 3.7939453125,13.6083984375 5.390625,14.267578125 6.2841796875,14.091796875 7.0166015625,13.6083984375 7.5,12.890625 7.67578125,12.01171875 7.001953125,10.400390625 5.390625,9.7265625z M6.123046875,0L10.48828125,3.955078125 14.267578125,0 17.0947265625,0.6884765625 19.4384765625,2.1826171875 21.0498046875,4.4970703125 21.650390625,7.67578125 19.00634765625,9.019775390625 17.05078125,11.2353515625 15.84228515625,14.249267578125 15.439453125,17.98828125 15.439453125,19.62890625 18.515625,20.302734375 21.650390625,21.474609375 24.5068359375,23.0859375 26.806640625,25.048828125 26.806640625,0.29296875 31.201171875,0.29296875 31.201171875,30.29296875 26.806640625,30.29296875 24.462890625,27.5390625 21.4892578125,25.2392578125 18.3251953125,23.525390625 15.439453125,22.55859375 15.439453125,25.13671875 15.1318359375,27.4951171875 14.1064453125,29.2529296875 12.2314453125,30.3662109375 9.375,30.76171875 6.92138671875,30.421142578125 5.185546875,29.3994140625 4.15283203125,27.813720703125 3.80859375,25.78125 4.39453125,23.26171875 5.9765625,21.357421875 8.291015625,20.09765625 11.044921875,19.51171875 11.044921875,17.9296875 11.4367666244507,14.2236328125 12.6123046875,11.30859375 14.556884765625,9.1259765625 17.255859375,7.6171875 17.0947265625,6.4013671875 16.5673828125,5.2294921875 15.64453125,4.306640625 14.296875,3.720703125 10.48828125,7.6171875 6.181640625,3.720703125 5.3173828125,4.423828125 4.6142578125,5.2587890625 4.130859375,6.1962890625 3.896484375,7.236328125 4.62890625,7.0166015625 5.419921875,6.943359375 7.4267578125,7.32421875 9.0234375,8.37890625 10.078125,9.9755859375 10.458984375,11.982421875 10.078125,13.9892578125 9.0234375,15.6005859375 7.4267578125,16.669921875 5.419921875,17.05078125 3.046875,16.611328125 1.34765625,15.3662109375 0.33691418170929,13.4765625 0,11.103515625 0.42480480670929,7.6025390625 1.640625,4.423828125 3.57421875,1.81640625 6.123046875,0z" />
    </g>
  </g>
</svg>