<?xml version="1.0" encoding="utf-8"?>
<!DOCTYPE svg PUBLIC "-//W3C//DTD SVG 1.1//EN" "http://www.w3.org/Graphics/SVG/1.1/DTD/svg11.dtd">
<svg width="33.984375" height="32.4609375" xmlns="http://www.w3.org/2000/svg" xmlns:xlink="http://www.w3.org/1999/xlink" xmlns:xml="http://www.w3.org/XML/1998/namespace" version="1.1">
  <g>
    <g>
      <path style="fill:#FF0000;fill-opacity:1" d="M5.390625,11.89453125L4.51171875,12.0703125 3.7939453125,12.5537109375 3.310546875,13.2861328125 3.134765625,14.1796875 3.7939453125,15.7763671875 5.390625,16.435546875 6.2841796875,16.259765625 7.0166015625,15.7763671875 7.5,15.05859375 7.67578125,14.1796875 7.001953125,12.568359375 5.390625,11.89453125z M29.4140625,0L33.984375,0 33.046875,2.2412109375 31.46484375,4.0283203125 29.4873046875,5.3759765625 27.333984375,6.298828125 28.828125,7.03125 30.1171875,8.3935546875 31.0107421875,10.3564453125 31.34765625,12.890625 31.34765625,24.43359375 30.9814453125,27.3046875 29.6923828125,29.8828125 27.2314453125,31.7431640625 25.4846172332764,32.281494140625 23.3203125,32.4609375 11.044921875,32.4609375 11.044921875,20.09765625 11.4367666244507,16.3916015625 12.6123046875,13.4765625 14.556884765625,11.2939453125 17.255859375,9.78515625 17.0947265625,8.5693359375 16.5673828125,7.3974609375 15.64453125,6.474609375 14.296875,5.888671875 10.48828125,9.78515625 6.181640625,5.888671875 5.3173828125,6.591796875 4.6142578125,7.4267578125 4.130859375,8.3642578125 3.896484375,9.404296875 4.62890625,9.1845703125 5.419921875,9.111328125 7.4267578125,9.4921875 9.0234375,10.546875 10.078125,12.1435546875 10.458984375,14.150390625 10.078125,16.1572265625 9.0234375,17.7685546875 7.4267578125,18.837890625 5.419921875,19.21875 3.046875,18.779296875 1.34765648841858,17.5341796875 0.336913824081421,15.64453125 0,13.271484375 0.42480480670929,9.7705078125 1.64062476158142,6.591796875 3.57421875,3.984375 6.123046875,2.16796875 10.48828125,6.123046875 14.267578125,2.16796875 17.0947265625,2.8564453125 19.4384765625,4.3505859375 21.0498046875,6.6650390625 21.650390625,9.84375 19.00634765625,11.187744140625 17.05078125,13.4033203125 15.84228515625,16.417236328125 15.439453125,20.15625 15.439453125,28.53515625 22.91015625,28.53515625 24.5874004364014,28.245849609375 25.869140625,27.3779296875 26.6821269989014,25.989990234375 26.953125,24.140625 26.953125,12.890625 26.7041015625,10.83984375 26.0302734375,9.169921875 25.0341796875,7.9248046875 23.84765625,7.177734375 23.84765625,5.390625 25.9643535614014,4.58130025863647 27.568359375,3.3837890625 28.7036113739014,1.84204244613647 29.4140625,0z" />
    </g>
  </g>
</svg>