<?xml version="1.0" encoding="utf-8"?>
<!DOCTYPE svg PUBLIC "-//W3C//DTD SVG 1.1//EN" "http://www.w3.org/Graphics/SVG/1.1/DTD/svg11.dtd">
<svg width="27.36328125" height="30.29296875" xmlns="http://www.w3.org/2000/svg" xmlns:xlink="http://www.w3.org/1999/xlink" xmlns:xml="http://www.w3.org/XML/1998/namespace" version="1.1">
  <g>
    <g>
      <path style="fill:#FF0000;fill-opacity:1" d="M14.58984375,14.326171875L13.6962890625,14.501953125 12.9638671875,14.9853515625 12.48046875,15.703125 12.3046875,16.58203125 12.978515625,18.193359375 14.58984375,18.8671875 15.46875,18.69140625 16.1865234375,18.2080078125 16.669921875,17.4755859375 16.845703125,16.58203125 16.1865234375,14.9853515625 14.58984375,14.326171875z M8.84765625,0L13.623046875,4.833984375 18.369140625,0.05859375 21.8115234375,1.0107421875 24.66796875,3.1201171875 26.630859375,6.62109375 27.1801738739014,8.95751953125 27.36328125,11.748046875 27.36328125,30.29296875 22.96875,30.29296875 22.96875,12.041015625 22.7490234375,9.1259765625 22.03125,6.7822265625 20.712890625,5.126953125 18.69140625,4.27734375 13.623046875,9.111328125 8.525390625,4.27734375 6.650390625,5.1123046875 5.361328125,6.650390625 4.62890625,8.6572265625 4.39453125,10.8984375 4.7900390625,14.2236328125 5.537109375,17.109375 7.03125,14.970703125 8.876953125,13.1689453125 11.19140625,11.923828125 14.0625,11.455078125 16.259765625,11.7919921875 18.0322265625,12.7880859375 19.2041015625,14.4140625 19.62890625,16.611328125 19.248046875,18.6181640625 18.1787109375,20.21484375 16.5673828125,21.26953125 14.560546875,21.650390625 12.5537109375,21.26953125 10.95703125,20.21484375 9.90234375,18.6181640625 9.521484375,16.611328125 9.580078125,16.201171875 8.583984375,17.2265625 7.587890625,18.7646484375 6.8115234375,20.80078125 6.50390625,23.349609375 6.50390625,30.29296875 2.10937523841858,30.29296875 2.10937523841858,22.265625 1.74316430091858,19.599609375 1.02539086341858,17.0361328125 0.322266101837158,14.2529296875 0,10.8984375 0.194092035293579,8.3935546875 0.776367664337158,6.26953125 2.81250023841858,3.0322265625 5.654296875,0.99609375 8.84765625,0z" />
    </g>
  </g>
</svg>