<?xml version="1.0" encoding="utf-8"?>
<!DOCTYPE svg PUBLIC "-//W3C//DTD SVG 1.1//EN" "http://www.w3.org/Graphics/SVG/1.1/DTD/svg11.dtd">
<svg width="27.01171875" height="33.779296875" xmlns="http://www.w3.org/2000/svg" xmlns:xlink="http://www.w3.org/1999/xlink" xmlns:xml="http://www.w3.org/XML/1998/namespace" version="1.1">
  <g>
    <g>
      <path style="fill:#FF0000;fill-opacity:1" d="M8.90625,21.50390625L7.294921875,22.177734375 6.62109375,23.7890625 7.294921875,25.400390625 8.90625,26.07421875 10.517578125,25.400390625 11.19140625,23.7890625 10.517578125,22.177734375 8.90625,21.50390625z M0,0L5.390625,0 6.591796875,2.314453125 7.6025390625,5.009765625 8.4375,7.8662109375 9.111328125,10.693359375 11.6162109375,9.9462890625 15.087890625,9.609375 17.728271484375,9.803466796875 20.0830078125,10.3857421875 23.8330078125,12.6416015625 26.19140625,16.3037109375 26.8066387176514,18.643798828125 27.01171875,21.298828125 26.7956523895264,23.935546875 26.1474609375,26.337890625 23.6865234375,30.2783203125 19.775390625,32.8564453125 17.314453125,33.548583984375 14.560546875,33.779296875 10.166015625,33.1201171875 6.6064453125,31.23046875 4.21875,28.271484375 3.55957007408142,26.44775390625 3.33984398841858,24.43359375 3.75000047683716,21.9580078125 4.9072265625,20.1708984375 6.66503858566284,19.0869140625 8.90625,18.720703125 10.9423828125,19.1162109375 12.5244140625,20.185546875 13.564453125,21.796875 13.9453125,23.818359375 13.5498046875,25.83984375 12.48046875,27.4365234375 10.869140625,28.4765625 8.84765625,28.857421875 9.8291015625,29.4140625 11.0595703125,29.8095703125 12.4365234375,30.0439453125 13.857421875,30.1171875 17.3583984375,29.5458984375 20.1123046875,27.861328125 21.9140625,25.107421875 22.55859375,21.298828125 21.943359375,17.607421875 20.2587890625,15.1171875 17.7685546875,13.7109375 14.765625,13.271484375 12.8173828125,13.4033203125 10.8251953125,13.7548828125 8.935546875,14.296875 7.265625,14.970703125 6.4599609375,12.4658203125 5.3759765625,9.66796875 4.0869140625,6.8115234375 2.7099609375,4.1015625 1.31835961341858,1.7578125 0,0z" />
    </g>
  </g>
</svg>