<?xml version="1.0" encoding="utf-8"?>
<!DOCTYPE svg PUBLIC "-//W3C//DTD SVG 1.1//EN" "http://www.w3.org/Graphics/SVG/1.1/DTD/svg11.dtd">
<svg width="22.529296875" height="31.025390625" xmlns="http://www.w3.org/2000/svg" xmlns:xlink="http://www.w3.org/1999/xlink" xmlns:xml="http://www.w3.org/XML/1998/namespace" version="1.1">
  <g>
    <g>
      <path style="fill:#FF0000;fill-opacity:1" d="M17.4609375,23.701171875L15.849609375,24.375 15.17578125,25.986328125 15.3515625,26.865234375 15.8349609375,27.5830078125 16.5673828125,28.06640625 17.4609375,28.2421875 19.0576171875,27.5830078125 19.716796875,25.986328125 19.541015625,25.0927734375 19.0576171875,24.3603515625 18.33984375,23.876953125 17.4609375,23.701171875z M10.341796875,0L13.2696533203125,0.178528904914856 15.78369140625,0.714112758636475 17.8839111328125,1.60675156116486 19.5703125,2.8564453125 20.8648681640625,4.48700046539307 21.78955078125,6.52221822738647 22.3443603515625,8.96209812164307 22.529296875,11.806640625 22.529296875,25.95703125 22.1337890625,27.9638671875 21.064453125,29.5751953125 19.453125,30.64453125 17.431640625,31.025390625 15.4248046875,30.64453125 13.828125,29.5751953125 12.7734375,27.9638671875 12.392578125,25.95703125 12.7734375,23.9501953125 13.828125,22.353515625 15.4248046875,21.298828125 17.431640625,20.91796875 17.7685546875,20.91796875 18.10546875,20.947265625 18.10546875,11.865234375 17.61474609375,8.250732421875 16.142578125,5.7861328125 13.7109365463257,4.36889791488647 10.341796875,3.896484375 7.5146484375,4.2041015625 4.6435546875,5.0244140625 2.03613257408142,6.1669921875 0,7.412109375 0,2.431640625 1.94824194908142,1.46484375 4.423828125,0.703125 7.2802734375,0.1904296875 10.341796875,0z" />
    </g>
  </g>
</svg>