<?xml version="1.0" encoding="utf-8"?>
<!DOCTYPE svg PUBLIC "-//W3C//DTD SVG 1.1//EN" "http://www.w3.org/Graphics/SVG/1.1/DTD/svg11.dtd">
<svg width="29.619140625" height="34.599609375" xmlns="http://www.w3.org/2000/svg" xmlns:xlink="http://www.w3.org/1999/xlink" xmlns:xml="http://www.w3.org/XML/1998/namespace" version="1.1">
  <g>
    <g>
      <path style="fill:#FF0000;fill-opacity:1" d="M22.96875,19.21875L21.357421875,19.8779296875 20.68359375,21.474609375 21.357421875,23.0859375 22.96875,23.7890625 23.84765625,23.5986328125 24.5654296875,23.1005859375 25.048828125,22.3681640625 25.224609375,21.474609375 24.5654296875,19.8779296875 22.96875,19.21875z M24.111328125,0L28.447265625,0 28.8427734375,1.0546875 29.00390625,2.51953125 28.3154296875,5.888671875 26.2646484375,8.466796875 22.880859375,10.400390625 18.1640625,11.8359375 14.7509765625,12.7001953125 11.5283203125,13.7841796875 8.6865234375,15.234375 6.4306640625,17.2119140625 4.9365234375,19.9072265625 4.39453125,23.466796875 4.9365234375,26.54296875 6.38671875,28.7109375 8.49609375,29.9853515625 11.015625,30.41015625 12.421875,30.3076171875 14.0625,30.0732421875 15.732421875,29.8095703125 17.255859375,29.58984375 16.201171875,28.7841796875 15.1611328125,27.4658203125 14.35546875,25.72265625 14.033203125,23.642578125 14.560546875,20.7421875 16.1279296875,18.3984375 18.6767578125,16.845703125 22.1484375,16.2890625 24.5690898895264,16.63330078125 26.4404296875,17.666015625 27.6379375457764,19.31396484375 28.037109375,21.50390625 27.6416015625,23.525390625 26.572265625,25.1220703125 24.9609375,26.162109375 22.939453125,26.54296875 20.9912109375,26.220703125 19.4384765625,25.2978515625 18.3837890625,23.8623046875 17.900390625,21.97265625 17.4609375,22.8515625 17.314453125,23.96484375 17.8564453125,26.1474609375 19.3212890625,27.7734375 21.474609375,28.857421875 24.08203125,29.443359375 27.2314453125,29.94140625 29.619140625,30.673828125 29.619140625,34.599609375 28.2568359375,34.0869140625 26.337890625,33.57421875 24.1259765625,33.193359375 21.884765625,33.046875 19.2919921875,33.22265625 16.3623046875,33.6181640625 13.4765625,34.013671875 11.015625,34.189453125 8.455810546875,33.995361328125 6.2255859375,33.4130859375 2.783203125,31.23046875 0.703125,27.861328125 0,23.525390625 0.296630859375,20.2880859375 1.1865234375,17.548828125 2.618408203125,15.24169921875 4.541015625,13.30078125 6.9287109375,11.693115234375 9.755859375,10.3857421875 16.5234375,8.408203125 20.20751953125,7.34985494613647 22.705078125,6.0498046875 24.1332988739014,4.47143697738647 24.609375,2.578125 24.4775390625,1.2158203125 24.111328125,0z" />
    </g>
  </g>
</svg>