<?xml version="1.0" encoding="utf-8"?>
<!DOCTYPE svg PUBLIC "-//W3C//DTD SVG 1.1//EN" "http://www.w3.org/Graphics/SVG/1.1/DTD/svg11.dtd">
<svg width="34.62890625" height="31.201171875" xmlns="http://www.w3.org/2000/svg" xmlns:xlink="http://www.w3.org/1999/xlink" xmlns:xml="http://www.w3.org/XML/1998/namespace" version="1.1">
  <g>
    <g>
      <path style="fill:#FF0000;fill-opacity:1" d="M10.810546875,23.701171875L9.19921875,24.404296875 8.525390625,26.015625 9.19921875,27.6123046875 10.810546875,28.271484375 12.4072265625,27.6123046875 13.06640625,26.015625 12.890625,25.1220703125 12.4072265625,24.3896484375 11.689453125,23.8916015625 10.810546875,23.701171875z M30.41015625,0L34.62890625,0 34.423828125,2.9296875 33.837890625,6.0205078125 32.8857421875,8.9501953125 31.58203125,11.4111328125 29.9560546875,13.1103515625 28.0078125,13.740234375 26.5869140625,13.388671875 25.1806640625,12.4951171875 23.876953125,11.3232421875 22.7197265625,10.1513671875 21.73828125,9.2578125 21.005859375,8.90625 20.244140625,9.462890625 19.6875,10.8984375 19.2919921875,12.8759765625 19.013671875,15.05859375 25.693359375,30.908203125 20.830078125,30.908203125 15.29296875,16.875 14.208984375,14.2822265625 13.0078125,12.1435546875 11.572265625,10.6787109375 9.78515625,10.13671875 8.294677734375,10.37109375 7.1044921875,11.07421875 5.478515625,13.4033203125 4.6728515625,16.40625 4.453125,19.3359375 4.84863233566284,22.96875 5.7421875,25.517578125 6.2255859375,23.6279296875 7.2802734375,22.1923828125 8.8330078125,21.26953125 10.78125,20.947265625 12.802734375,21.328125 14.4140625,22.3681640625 15.4833984375,23.9501953125 15.87890625,25.986328125 15.5126953125,28.0224609375 14.443359375,29.677734375 12.7294921875,30.791015625 10.4296875,31.201171875 8.1005859375,30.98876953125 6.03515625,30.3515625 2.7685546875,27.9345703125 0.717773199081421,24.19921875 0,19.39453125 0.6591796875,14.0625 2.607421875,9.990234375 4.04296827316284,8.48876953125 5.771484375,7.3828125 7.78564453125,6.70166158676147 10.078125,6.474609375 12.48046875,6.8994140625 14.4287109375,7.96875 15.9228515625,9.3896484375 16.93359375,10.869140625 17.4755859375,8.61328125 18.2666015625,6.6064453125 19.4091796875,5.1708984375 21.005859375,4.62890625 22.20703125,4.98046875 23.4521484375,5.8740234375 24.7119140625,7.0458984375 25.927734375,8.2177734375 27.041015625,9.111328125 28.0078125,9.462890625 29.0478515625,8.7158203125 29.8095703125,6.6943359375 30.263671875,3.69140625 30.41015625,0z" />
    </g>
  </g>
</svg>