<?xml version="1.0" encoding="utf-8"?>
<!DOCTYPE svg PUBLIC "-//W3C//DTD SVG 1.1//EN" "http://www.w3.org/Graphics/SVG/1.1/DTD/svg11.dtd">
<svg width="18.2812500000001" height="26.044921875" xmlns="http://www.w3.org/2000/svg" xmlns:xlink="http://www.w3.org/1999/xlink" xmlns:xml="http://www.w3.org/XML/1998/namespace" version="1.1">
  <g>
    <g>
      <path style="fill:#FF0000;fill-opacity:1" d="M4.8046875,18.955078125L3.33984375,19.541015625 2.75390625,20.9765625 3.33984375,22.44140625 4.8046875,23.02734375 6.240234375,22.44140625 6.826171875,20.9765625 6.240234375,19.541015625 4.8046875,18.955078125z M18.28125,15.498046875L18.28125,20.419921875 16.259765625,22.4267578125 13.53515625,24.2431640625 10.166015625,25.546875 6.2109375,26.044921875 3.5302734375,25.6640625 1.58203113079071,24.5947265625 0.395507574081421,22.9833984375 0,21.005859375 0.366210699081421,19.1015625 1.36230432987213,17.578125 2.87109375,16.5673828125 4.775390625,16.201171875 6.6796875,16.5673828125 8.203125,17.578125 9.2138671875,19.1015625 9.580078125,21.005859375 9.462890625,21.97265625 9.0234375,22.939453125 11.4990234375,21.9873046875 14.1064453125,20.302734375 16.4794921875,18.076171875 18.28125,15.498046875z M4.8046875,3.45703125L3.33984375,4.04296875 2.75390625,5.478515625 3.33984375,6.943359375 4.8046875,7.529296875 6.240234375,6.943359375 6.826171875,5.478515625 6.240234375,4.04296875 4.8046875,3.45703125z M18.28125,0L18.28125,4.921875 16.259765625,6.9287109375 13.53515625,8.7451171875 10.166015625,10.048828125 6.2109375,10.546875 3.5302734375,10.166015625 1.58203113079071,9.0966796875 0.395507574081421,7.4853515625 0,5.5078125 0.366210699081421,3.603515625 1.36230432987213,2.080078125 2.87109375,1.0693359375 4.775390625,0.703125 6.6796875,1.0693359375 8.203125,2.080078125 9.2138671875,3.603515625 9.580078125,5.5078125 9.462890625,6.474609375 9.0234375,7.44140625 11.4990234375,6.4892578125 14.1064453125,4.8046875 16.4794921875,2.578125 18.28125,0z" />
    </g>
  </g>
</svg>