<?xml version="1.0" encoding="utf-8"?>
<!DOCTYPE svg PUBLIC "-//W3C//DTD SVG 1.1//EN" "http://www.w3.org/Graphics/SVG/1.1/DTD/svg11.dtd">
<svg width="21.064453125" height="42.3046875" xmlns="http://www.w3.org/2000/svg" xmlns:xlink="http://www.w3.org/1999/xlink" xmlns:xml="http://www.w3.org/XML/1998/namespace" version="1.1">
  <g>
    <g>
      <path style="fill:#FF0000;fill-opacity:1" d="M5.390625,11.484375L4.51171875,11.66015625 3.79394555091858,12.1435546875 3.31054711341858,12.8759765625 3.13476586341858,13.76953125 3.79394555091858,15.3662109375 5.390625,16.025390625 6.2841796875,15.849609375 7.0166015625,15.3662109375 7.5,14.6484375 7.67578125,13.76953125 7.001953125,12.158203125 5.390625,11.484375z M6.123046875,0L10.1953125,4.833984375 14.23828125,0 16.845703125,0.6884765625 19.013671875,2.1826171875 20.5078125,4.4970703125 21.064453125,7.67578125 21.064453125,42.3046875 16.640625,42.3046875 16.640625,7.79296875 16.494140625,6.5478515625 16.0400390625,5.3173828125 15.2490234375,4.3359375 14.0625,3.837890625 10.1953125,8.49609375 6.181640625,3.837890625 5.3173828125,4.74609375 4.6142578125,6.0498046875 4.130859375,7.529296875 3.89648461341858,8.994140625 4.62890625,8.7744140625 5.419921875,8.701171875 7.4267578125,9.08203125 9.0234375,10.13671875 10.078125,11.7333984375 10.458984375,13.740234375 10.078125,15.7470703125 9.0234375,17.3583984375 7.4267578125,18.427734375 5.419921875,18.80859375 3.04687523841858,18.310546875 1.34765625,16.9482421875 0.336914539337158,14.8828125 0,12.275390625 0.424805283546448,8.3642578125 1.640625,4.86328125 3.57421898841858,1.9921875 6.123046875,0z" />
    </g>
  </g>
</svg>