<?xml version="1.0" encoding="utf-8"?>
<!DOCTYPE svg PUBLIC "-//W3C//DTD SVG 1.1//EN" "http://www.w3.org/Graphics/SVG/1.1/DTD/svg11.dtd">
<svg width="25.869140625" height="51.474609375" xmlns="http://www.w3.org/2000/svg" xmlns:xlink="http://www.w3.org/1999/xlink" xmlns:xml="http://www.w3.org/XML/1998/namespace" version="1.1">
  <g>
    <g>
      <path style="fill:#FF0000;fill-opacity:1" d="M13.154296875,27.3046875L13.154296875,42.568359375 16.424560546875,41.781005859375 18.8525390625,40.1220703125 20.3576641082764,37.723388671875 20.859375,34.716796875 20.3778057098389,31.8035888671875 18.9331035614014,29.59716796875 16.5252666473389,28.0975341796875 13.154296875,27.3046875z M4.775390625,27.158203125L4.775390625,42.626953125 9.521484375,42.626953125 9.521484375,27.158203125 4.775390625,27.158203125z M13.154296875,9.228515625L13.154296875,22.6171875 15.523681640625,21.6503925323486 17.2998046875,20.09765625 18.4094219207764,18.0029315948486 18.779296875,15.41015625 18.4277324676514,13.084716796875 17.373046875,11.2646484375 15.615234375,9.971923828125 13.154296875,9.228515625z M4.775390625,9.052734375L4.775390625,22.96875 9.521484375,22.96875 9.521484375,9.052734375 4.775390625,9.052734375z M9.521484375,0L13.154296875,0 13.154296875,4.86328125 17.2998046875,5.654296875 20.595703125,7.5 21.9927959442139,8.9337158203125 22.9907207489014,10.56884765625 23.5894756317139,12.4053955078125 23.7890625,14.443359375 23.3056621551514,17.7832050323486 21.85546875,20.654296875 19.5556621551514,22.91015625 16.5234375,24.404296875 16.5234375,24.521484375 20.3320293426514,25.5615234375 23.3203125,27.744140625 25.2319316864014,30.8349609375 25.869140625,34.775390625 25.6274394989014,37.342529296875 24.9023418426514,39.6533203125 23.6938457489014,41.707763671875 22.001953125,43.505859375 18.017578125,45.87890625 13.154296875,46.845703125 13.154296875,51.474609375 9.521484375,51.474609375 9.521484375,46.845703125 0,46.845703125 0,4.833984375 9.521484375,4.833984375 9.521484375,0z" />
    </g>
  </g>
</svg>