<?xml version="1.0" encoding="utf-8"?>
<!DOCTYPE svg PUBLIC "-//W3C//DTD SVG 1.1//EN" "http://www.w3.org/Graphics/SVG/1.1/DTD/svg11.dtd">
<svg width="33.251953125" height="30.29296875" xmlns="http://www.w3.org/2000/svg" xmlns:xlink="http://www.w3.org/1999/xlink" xmlns:xml="http://www.w3.org/XML/1998/namespace" version="1.1">
  <g>
    <g>
      <path style="fill:#FF0000;fill-opacity:1" d="M17.197265625,12.216796875L15.732421875,12.802734375 15.146484375,14.23828125 15.732421875,15.703125 17.197265625,16.2890625 18.6328125,15.703125 19.21875,14.23828125 18.6328125,12.802734375 17.197265625,12.216796875z M5.068359375,2.783203125L4.1748046875,2.958984375 3.4423828125,3.4423828125 2.958984375,4.16015625 2.783203125,5.0390625 3.45703125,6.650390625 5.068359375,7.32421875 5.947265625,7.1484375 6.6650390625,6.6650390625 7.1484375,5.9326171875 7.32421875,5.0390625 6.6650390625,3.4423828125 5.068359375,2.783203125z M5.0390625,0L7.0458984375,0.380859375 8.6572265625,1.4501953125 9.7265625,3.0615234375 10.107421875,5.068359375 10.107421875,26.3671875 19.951171875,26.3671875 21.62841796875,26.077880859375 22.91015625,25.2099609375 23.7231426239014,23.822021484375 23.994140625,21.97265625 23.994140625,18.427734375 21.328125,19.072265625 18.603515625,19.306640625 15.9228515625,18.92578125 13.974609375,17.8564453125 12.7880859375,16.2451171875 12.392578125,14.267578125 12.7587890625,12.36328125 13.7548828125,10.83984375 15.263671875,9.8291015625 17.16796875,9.462890625 19.072265625,9.8291015625 20.595703125,10.83984375 21.6064453125,12.36328125 21.97265625,14.267578125 21.85546875,15.234375 21.416015625,16.201171875 23.994140625,15.322265625 23.994140625,0.29296875 28.388671875,0.29296875 28.388671875,12.744140625 31.0693359375,10.3564453125 33.251953125,7.646484375 33.251953125,12.568359375 31.1572265625,14.6044921875 28.388671875,16.494140625 28.388671875,22.265625 28.0224609375,25.13671875 26.7333984375,27.71484375 24.2724609375,29.5751953125 22.525634765625,30.113525390625 20.361328125,30.29296875 5.712890625,30.29296875 5.712890625,10.078125 5.3759765625,10.107421875 5.0390625,10.107421875 3.0322265625,9.7265625 1.435546875,8.671875 0.38085949420929,7.0751953125 0,5.068359375 0.38085949420929,3.0615234375 1.435546875,1.4501953125 3.0322265625,0.380859375 5.0390625,0z" />
    </g>
  </g>
</svg>