<?xml version="1.0" encoding="utf-8"?>
<!DOCTYPE svg PUBLIC "-//W3C//DTD SVG 1.1//EN" "http://www.w3.org/Graphics/SVG/1.1/DTD/svg11.dtd">
<svg width="30.615234375" height="24.755859375" xmlns="http://www.w3.org/2000/svg" xmlns:xlink="http://www.w3.org/1999/xlink" xmlns:xml="http://www.w3.org/XML/1998/namespace" version="1.1">
  <g>
    <g>
      <path style="fill:#FF0000;fill-opacity:1" d="M10.810546875,17.255859375L9.19921875,17.958984375 8.525390625,19.5703125 9.19921875,21.1669921875 10.810546875,21.826171875 12.4072265625,21.1669921875 13.06640625,19.5703125 12.890625,18.6767578125 12.4072265625,17.9443359375 11.689453125,17.4462890625 10.810546875,17.255859375z M8.84765625,0L11.54296875,0.5126953125 13.4619140625,1.8017578125 14.70703125,3.5009765625 15.41015625,5.2734375 16.11328125,3.5009765625 17.373046875,1.8017578125 19.306640625,0.5126953125 21.97265625,0 23.8879375457764,0.227052211761475 25.5908203125,0.908203125 28.3154296875,3.427734375 30.029296875,7.2509765625 30.615234375,12.099609375 30,16.7431640625 28.2275390625,20.5078125 25.4296875,23.232421875 21.73828125,24.755859375 21.73828125,20.947265625 23.7011699676514,19.859619140625 25.078125,18.0029296875 25.8911113739014,15.406494140625 26.162109375,12.099609375 25.78125,8.84765625 24.7412109375,6.181640625 23.1884765625,4.3798828125 21.26953125,3.720703125 19.75341796875,4.149169921875 18.544921875,5.4345703125 17.75390625,7.664794921875 17.490234375,10.927734375 13.18359375,10.927734375 12.9089345932007,7.664794921875 12.0849609375,5.4345703125 10.8361806869507,4.149169921875 9.287109375,3.720703125 7.3388671875,4.3798828125 5.80078125,6.181640625 4.8046875,8.8623046875 4.453125,12.158203125 4.5703125,14.6044921875 4.86328125,16.494140625 5.2734375,17.9443359375 5.7421875,19.072265625 6.2255859375,17.1826171875 7.2802734375,15.7470703125 8.8330078125,14.82421875 10.78125,14.501953125 12.802734375,14.8828125 14.4140625,15.9228515625 15.4833984375,17.5048828125 15.87890625,19.541015625 15.5126953125,21.5771484375 14.443359375,23.232421875 12.7294921875,24.345703125 10.4296875,24.755859375 8.1005859375,24.521484375 6.03515625,23.818359375 2.7685546875,21.2109375 0.717773675918579,17.2265625 0,12.158203125 0.629883050918579,7.294921875 2.40234375,3.4423828125 5.185546875,0.908203125 6.92138671875,0.227052211761475 8.84765625,0z" />
    </g>
  </g>
</svg>