<?xml version="1.0" encoding="utf-8"?>
<!DOCTYPE svg PUBLIC "-//W3C//DTD SVG 1.1//EN" "http://www.w3.org/Graphics/SVG/1.1/DTD/svg11.dtd">
<svg width="10.107421875" height="30.263671875" xmlns="http://www.w3.org/2000/svg" xmlns:xlink="http://www.w3.org/1999/xlink" xmlns:xml="http://www.w3.org/XML/1998/namespace" version="1.1">
  <g>
    <g>
      <path style="fill:#FF0000;fill-opacity:1" d="M5.0390625,22.939453125L4.16015625,23.115234375 3.4423828125,23.5986328125 2.958984375,24.3310546875 2.783203125,25.224609375 3.4423828125,26.8212890625 5.0390625,27.48046875 5.9326171875,27.3046875 6.6650390625,26.8212890625 7.1484375,26.103515625 7.32421875,25.224609375 6.650390625,23.61328125 5.0390625,22.939453125z M0,0L4.39453125,0 4.39453125,20.21484375 4.7314453125,20.1708984375 5.068359375,20.15625 7.0751953125,20.537109375 8.671875,21.591796875 9.7265625,23.1884765625 10.107421875,25.1953125 9.7265625,27.2021484375 8.671875,28.8134765625 7.0751953125,29.8828125 5.068359375,30.263671875 3.0615234375,29.8828125 1.4501953125,28.8134765625 0.380859375,27.2021484375 0,25.1953125 0,0z" />
    </g>
  </g>
</svg>