<?xml version="1.0" encoding="utf-8"?>
<!DOCTYPE svg PUBLIC "-//W3C//DTD SVG 1.1//EN" "http://www.w3.org/Graphics/SVG/1.1/DTD/svg11.dtd">
<svg width="49.27734375" height="26.689453125" xmlns="http://www.w3.org/2000/svg" xmlns:xlink="http://www.w3.org/1999/xlink" xmlns:xml="http://www.w3.org/XML/1998/namespace" version="1.1">
  <g>
    <g>
      <path style="fill:#FF0000;fill-opacity:1" d="M10.927734375,0L14.1796875,0.41015625 17.16796875,1.640625 17.16796875,6.357421875 14.208984375,4.599609375 10.986328125,3.955078125 9.114990234375,4.15283203125 7.6025390625,4.74609375 5.4931640625,6.85546875 4.4091796875,9.873046875 4.10156297683716,13.41796875 4.4091796875,16.8603515625 5.44921875,19.86328125 7.3974609375,21.97265625 8.763427734375,22.56591796875 10.4296875,22.763671875 12.4548330307007,22.430419921875 14.1357421875,21.4306640625 15.53466796875,19.8779296875 16.7138671875,17.8857421875 18.5595703125,12.7880859375 20.0390625,6.796875 24.84375,16.142578125 28.095703125,8.876953125 31.9921875,16.494140625 36.064453125,8.876953125 37.17041015625,11.7041015625 38.49609375,13.623046875 40.0341796875,14.7216796875 41.77734375,15.087890625 43.3740234375,14.820556640625 44.53125,14.0185546875 45.3369102478027,12.755126953125 45.87890625,11.103515625 49.27734375,11.103515625 48.2373008728027,14.329833984375 46.640625,16.6845703125 44.501953125,18.123779296875 41.8359375,18.603515625 39.79248046875,18.36181640625 38.115234375,17.63671875 35.68359375,15.087890625 31.728515625,22.44140625 28.095703125,15.17578125 24.84375,22.44140625 21.09375,15.234375 19.74609375,19.2919921875 17.6806640625,22.9833984375 14.677734375,25.6640625 12.7587890625,26.43310546875 10.517578125,26.689453125 7.679443359375,26.40380859375 5.3759765625,25.546875 3.54858374595642,24.22119140625 2.13867235183716,22.529296875 0.46875,18.251953125 0,13.359375 0.556640863418579,8.173828125 2.40234375,3.92578125 3.88915967941284,2.29980611801147 5.771484375,1.0546875 8.1005859375,0.263673305511475 10.927734375,0z" />
    </g>
  </g>
</svg>