<?xml version="1.0" encoding="utf-8"?>
<!DOCTYPE svg PUBLIC "-//W3C//DTD SVG 1.1//EN" "http://www.w3.org/Graphics/SVG/1.1/DTD/svg11.dtd">
<svg width="34.0136718750003" height="42.01171875" xmlns="http://www.w3.org/2000/svg" xmlns:xlink="http://www.w3.org/1999/xlink" xmlns:xml="http://www.w3.org/XML/1998/namespace" version="1.1">
  <g>
    <g>
      <path style="fill:#FF0000;fill-opacity:1" d="M5.068359375,14.501953125L4.1748046875,14.677734375 3.44238257408142,15.1611328125 2.95898413658142,15.87890625 2.78320288658142,16.7578125 3.45703053474426,18.369140625 5.068359375,19.04296875 5.947265625,18.8671875 6.6650390625,18.3837890625 7.1484375,17.6513671875 7.32421875,16.7578125 6.6650390625,15.1611328125 5.068359375,14.501953125z M29.619140625,0L34.013671875,0 34.013671875,42.01171875 28.359375,42.01171875 21.650390625,22.6171875 21.1083984375,20.8740234375 20.5078125,18.8671875 19.86328125,16.494140625 19.21875,18.8671875 18.6181640625,20.9033203125 18.076171875,22.646484375 11.3671875,42.01171875 5.712890625,42.01171875 5.712890625,21.796875 5.3759765625,21.826171875 5.03906154632568,21.826171875 3.03222632408142,21.4453125 1.43554663658142,20.390625 0.380858898162842,18.7939453125 0,16.787109375 0.380858898162842,14.7802734375 1.43554663658142,13.1689453125 3.03222632408142,12.099609375 5.03906154632568,11.71875 7.0458984375,12.099609375 8.6572265625,13.1689453125 9.7265625,14.7802734375 10.107421875,16.787109375 10.107421875,36.15234375 10.5322265625,34.453125 11.0302734375,32.6220703125 11.513671875,30.9521484375 11.89453125,29.794921875 18.1640625,12.01171875 21.62109375,12.01171875 27.83203125,29.794921875 28.212890625,30.9521484375 28.7109375,32.63671875 29.208984375,34.482421875 29.619140625,36.181640625 29.619140625,0z" />
    </g>
  </g>
</svg>