<?xml version="1.0" encoding="utf-8"?>
<!DOCTYPE svg PUBLIC "-//W3C//DTD SVG 1.1//EN" "http://www.w3.org/Graphics/SVG/1.1/DTD/svg11.dtd">
<svg width="26.8359375" height="30.99609375" xmlns="http://www.w3.org/2000/svg" xmlns:xlink="http://www.w3.org/1999/xlink" xmlns:xml="http://www.w3.org/XML/1998/namespace" version="1.1">
  <g>
    <g>
      <path style="fill:#FF0000;fill-opacity:1" d="M5.830078125,23.671875L4.951171875,23.84765625 4.2333984375,24.3310546875 3.75,25.0634765625 3.57421875,25.95703125 4.2333984375,27.5537109375 5.830078125,28.212890625 6.7236328125,28.037109375 7.4560546875,27.5537109375 7.939453125,26.8359375 8.115234375,25.95703125 7.44140625,24.345703125 5.830078125,23.671875z M13.388671875,0L16.754150390625,0.223390102386475 19.5849609375,0.8935546875 21.9103984832764,1.95922994613647 23.759765625,3.369140625 25.1513652801514,5.10498189926147 26.103515625,7.1484375 26.8359375,11.982421875 26.8359375,30.52734375 22.44140625,30.52734375 22.44140625,12.275390625 21.8847637176514,8.697509765625 20.21484375,6.0498046875 17.40234375,4.41284322738647 13.41796875,3.8671875 9.697265625,4.4091796875 6.9580078125,5.80078125 5.185546875,7.705078125 4.365234375,9.78515625 11.337890625,9.78515625 11.337890625,13.2421875 8.609619140625,14.117431640625 6.6943359375,15.5126953125 5.562744140625,17.420654296875 5.185546875,19.833984375 5.185546875,20.91796875 5.5224609375,20.888671875 5.859375,20.888671875 7.8662109375,21.26953125 9.462890625,22.32421875 10.517578125,23.9208984375 10.8984375,25.927734375 10.517578125,27.9345703125 9.462890625,29.5458984375 7.8662109375,30.615234375 5.859375,30.99609375 3.8525390625,30.615234375 2.2412109375,29.5458984375 1.171875,27.9345703125 0.791015625,25.927734375 0.791015625,19.541015625 1.160888671875,17.2412109375 2.2705078125,15.439453125 4.061279296875,14.08447265625 6.474609375,13.125 0,13.125 0,9.755859375 1.435546875,5.888671875 4.130859375,2.7978515625 8.115234375,0.7470703125 13.388671875,0z" />
    </g>
  </g>
</svg>