<?xml version="1.0" encoding="utf-8"?>
<!DOCTYPE svg PUBLIC "-//W3C//DTD SVG 1.1//EN" "http://www.w3.org/Graphics/SVG/1.1/DTD/svg11.dtd">
<svg width="36.97265625" height="55.4296875" xmlns="http://www.w3.org/2000/svg" xmlns:xlink="http://www.w3.org/1999/xlink" xmlns:xml="http://www.w3.org/XML/1998/namespace" version="1.1">
  <g>
    <g>
      <path style="fill:#FF0000;fill-opacity:1" d="M32.578125,47.8125L33.603515625,48.046875 33.603515625,48.720703125 32.578125,48.33984375 31.787109375,48.69140625 31.5234375,49.541015625 31.8310546875,50.390625 32.666015625,50.68359375 32.9736328125,50.68359375 33.45703125,50.625 33.45703125,53.466796875 31.11328125,53.466796875 31.11328125,52.880859375 32.900390625,52.880859375 32.900390625,51.2109375 32.75390625,51.2109375 32.51953125,51.2109375 31.3330078125,50.771484375 30.908203125,49.5703125 31.3623046875,48.310546875 32.578125,47.8125z M23.759765625,42.568359375L26.77734375,42.568359375 26.77734375,43.0078125 26.162109375,43.798828125 25.8984375,45.087890625 26.3525390625,44.853515625 26.923828125,44.765625 28.1982421875,45.2490234375 28.7109375,46.552734375 28.2275390625,47.7978515625 26.953125,48.33984375 27.0263671875,48.6328125 27.041015625,48.92578125 26.54296875,50.2001953125 25.25390625,50.712890625 23.9794921875,50.2001953125 23.49609375,48.92578125 23.525390625,48.6328125 23.583984375,48.33984375 22.3095703125,47.7978515625 21.826171875,46.552734375 22.353515625,45.2490234375 23.61328125,44.765625 24.1845703125,44.853515625 24.638671875,45.087890625 24.375,43.798828125 23.759765625,43.0078125 23.759765625,42.568359375z M10.107421875,42.568359375L13.125,42.568359375 13.125,43.0078125 12.509765625,43.798828125 12.24609375,45.087890625 12.7001953125,44.853515625 13.271484375,44.765625 14.560546875,45.2490234375 15.087890625,46.552734375 14.58984375,47.7978515625 13.30078125,48.33984375 13.388671875,48.6328125 13.41796875,48.92578125 12.919921875,50.2001953125 11.6015625,50.712890625 10.3271484375,50.2001953125 9.84375,48.92578125 9.873046875,48.6328125 9.931640625,48.33984375 8.6572265625,47.7978515625 8.173828125,46.552734375 8.701171875,45.2490234375 9.9609375,44.765625 10.5322265625,44.853515625 10.986328125,45.087890625 10.72265625,43.798828125 10.107421875,43.0078125 10.107421875,42.568359375z M31.34765625,41.865234375L33.10546875,41.865234375 33.10546875,42.099609375 32.75390625,42.5830078125 32.607421875,43.330078125 33.193359375,43.154296875 33.955078125,43.4326171875 34.248046875,44.208984375 33.955078125,44.9267578125 33.22265625,45.234375 33.28125,45.5859375 32.98828125,46.3330078125 32.2265625,46.640625 31.46484375,46.3330078125 31.171875,45.5859375 31.23046875,45.234375 30.46875,44.9267578125 30.17578125,44.208984375 30.498046875,43.4326171875 31.259765625,43.154296875 31.845703125,43.330078125 31.6845703125,42.568359375 31.34765625,42.099609375 31.34765625,41.865234375z M18.486328125,23.96484375L19.7607421875,24.4775390625 20.244140625,25.751953125 20.2294921875,26.044921875 20.15625,26.337890625 21.4306640625,26.8798828125 21.9140625,28.125 21.4013671875,29.4287109375 20.126953125,29.912109375 19.5556640625,29.82421875 19.1015625,29.58984375 19.365234375,30.87890625 19.98046875,31.669921875 19.98046875,32.109375 16.962890625,32.109375 16.962890625,31.669921875 17.578125,30.87890625 17.841796875,29.58984375 17.3876953125,29.82421875 16.81640625,29.912109375 15.556640625,29.4287109375 15.029296875,28.125 15.5126953125,26.8798828125 16.787109375,26.337890625 16.7138671875,26.044921875 16.69921875,25.751953125 17.197265625,24.4775390625 18.486328125,23.96484375z M4.68750095367432,9.08203125L5.44921875,9.3896484375 5.7421875,10.13671875 5.68359422683716,10.48828125 6.44531345367432,10.810546875 6.73828220367432,11.54296875 6.43066453933716,12.3046875 5.65429735183716,12.568359375 5.06835985183716,12.392578125 5.22949266433716,13.1689453125 5.595703125,13.623046875 5.595703125,13.857421875 3.80859470367432,13.857421875 3.80859470367432,13.623046875 4.16015672683716,13.154296875 4.30664110183716,12.392578125 3.72070360183716,12.568359375 2.97363328933716,12.3046875 2.666015625,11.54296875 2.958984375,10.810546875 3.69140625,10.48828125 3.63281297683716,10.13671875 3.92578172683716,9.3896484375 4.68750095367432,9.08203125z M25.3125,5.009765625L26.5869140625,5.537109375 27.0703125,6.796875 27.0556640625,7.08984375 26.982421875,7.3828125 28.2568359375,7.9248046875 28.740234375,9.169921875 28.212890625,10.4736328125 26.953125,10.95703125 26.3818359375,10.869140625 25.927734375,10.634765625 26.19140625,11.923828125 26.806640625,12.71484375 26.806640625,13.154296875 23.7890625,13.154296875 23.7890625,12.71484375 24.404296875,11.923828125 24.66796875,10.634765625 24.2138671875,10.869140625 23.642578125,10.95703125 22.3681640625,10.4736328125 21.85546875,9.169921875 22.3388671875,7.9248046875 23.61328125,7.3828125 23.5400390625,7.08984375 23.525390625,6.796875 24.0234375,5.537109375 25.3125,5.009765625z M11.66015625,5.009765625L12.9345703125,5.537109375 13.41796875,6.796875 13.4033203125,7.08984375 13.330078125,7.3828125 14.6044921875,7.9248046875 15.087890625,9.169921875 14.5751953125,10.4736328125 13.30078125,10.95703125 12.7294921875,10.869140625 12.275390625,10.634765625 12.5390625,11.923828125 13.154296875,12.71484375 13.154296875,13.154296875 10.13671875,13.154296875 10.13671875,12.71484375 10.751953125,11.923828125 11.015625,10.634765625 10.5615234375,10.869140625 9.990234375,10.95703125 8.73046875,10.4736328125 8.203125,9.169921875 8.6865234375,7.9248046875 9.9609375,7.3828125 9.90234375,7.08984375 9.873046875,6.796875 10.37109375,5.537109375 11.66015625,5.009765625z M3.48632860183716,2.25585985183716L5.83007860183716,2.25585985183716 5.83007860183716,2.841796875 4.04296922683716,2.841796875 4.04296922683716,4.541015625 4.18945360183716,4.541015625 4.32128953933716,4.52636671066284 4.45312547683716,4.51171827316284 5.6103515625,4.95117139816284 6.03515625,6.15234375 5.58105564117432,7.412109375 4.36523485183716,7.91015625 3.33984422683716,7.705078125 3.33984422683716,7.03125 4.36523485183716,7.3828125 5.1708984375,7.0458984375 5.44921875,6.2109375 5.12695407867432,5.3466796875 4.27734375,5.06835985183716 3.9697265625,5.06835985183716 3.48632860183716,5.09765577316284 3.48632860183716,2.25585985183716z M1.34765636920929,1.34765625L1.34765636920929,54.08203125 35.625,54.08203125 35.625,1.34765625 1.34765636920929,1.34765625z M0,0L36.97265625,0 36.97265625,55.4296875 0,55.4296875 0,0z" />
    </g>
  </g>
</svg>