<?xml version="1.0" encoding="utf-8"?>
<!DOCTYPE svg PUBLIC "-//W3C//DTD SVG 1.1//EN" "http://www.w3.org/Graphics/SVG/1.1/DTD/svg11.dtd">
<svg width="36.97265625" height="55.4296875" xmlns="http://www.w3.org/2000/svg" xmlns:xlink="http://www.w3.org/1999/xlink" xmlns:xml="http://www.w3.org/XML/1998/namespace" version="1.1">
  <g>
    <g>
      <path style="fill:#FF0000;fill-opacity:1" d="M32.021484375,47.841796875L33.138427734375,48.03955078125 33.9697265625,48.6328125 34.658203125,50.68359375 34.464111328125,51.884765625 33.8818359375,52.8515625 32.969970703125,53.48876953125 31.787109375,53.701171875 30.439453125,53.49609375 30.439453125,52.763671875 31.787109375,53.115234375 33.427734375,52.4267578125 34.013671875,50.712890625 33.4716796875,49.0576171875 31.904296875,48.3984375 30.439453125,48.80859375 30.439453125,48.1640625 32.021484375,47.841796875z M31.34765625,41.89453125L33.10546875,41.89453125 33.10546875,42.099609375 32.75390625,42.59765625 32.607421875,43.06640625 33.22265625,42.890625 33.9111328125,43.1689453125 34.21875,44.00390625 33.9990234375,44.8388671875 33.45703125,45.556640625 32.7978515625,46.142578125 32.2265625,46.669921875 31.6845703125,46.142578125 31.0107421875,45.556640625 30.4541015625,44.853515625 30.234375,44.00390625 30.5419921875,43.1689453125 31.23046875,42.890625 31.875,43.06640625 31.728515625,42.59765625 31.34765625,42.099609375 31.34765625,41.89453125z M14.736328125,40.517578125L18.544921875,40.517578125 18.544921875,40.927734375 14.736328125,40.927734375 14.736328125,40.517578125z M22.822265625,39.404296875L25.400390625,39.404296875 25.400390625,39.755859375 24.873046875,40.4736328125 24.66796875,41.19140625 25.60546875,40.927734375 26.6162109375,41.337890625 27.0703125,42.568359375 26.7333984375,43.8134765625 25.927734375,44.8681640625 24.9462890625,45.76171875 24.111328125,46.552734375 23.26171875,45.76171875 22.294921875,44.8828125 21.4892578125,43.828125 21.15234375,42.568359375 21.6064453125,41.337890625 22.6171875,40.927734375 23.5546875,41.19140625 23.349609375,40.4736328125 22.822265625,39.755859375 22.822265625,39.404296875z M12.392578125,36.123046875L12.392578125,43.623046875 17.8125,43.623046875 19.3359375,40.6640625 17.6953125,36.123046875 12.392578125,36.123046875z M25.78125,24.931640625L26.30859375,24.931640625 25.927734375,28.037109375 25.0927734375,30.9521484375 23.49609375,33.837890625 22.1337890625,35.126953125 20.6396484375,35.9619140625 19.27734375,36.4306640625 18.33984375,36.650390625 19.833984375,40.751953125 18.10546875,44.033203125 15.87890625,44.033203125 15.908203125,44.443359375 15.8642578125,44.9560546875 15.703125,45.498046875 15.41015625,46.0107421875 15.087890625,46.40625 14.736328125,46.669921875 14.4140625,46.40625 14.736328125,46.11328125 15,45.8056640625 15.263671875,45.380859375 15.439453125,44.53125 15.41015625,44.033203125 15.380859375,44.033203125 15.17578125,44.8095703125 14.6484375,45.703125 14.1943359375,46.083984375 13.76953125,46.318359375 13.359375,46.46484375 13.125,46.083984375 13.53515625,45.9375 13.9013671875,45.7470703125 14.296875,45.41015625 14.7216796875,44.6923828125 14.912109375,44.033203125 14.4287109375,44.7216796875 13.4765625,45.46875 12.8759765625,45.6591796875 12.392578125,45.703125 12.099609375,45.703125 11.982421875,45.673828125 11.923828125,45.234375 12.041015625,45.263671875 12.275390625,45.263671875 12.744140625,45.2490234375 13.271484375,45.087890625 13.9599609375,44.58984375 14.4140625,44.033203125 11.953125,44.033203125 11.953125,35.712890625 17.98828125,35.712890625 18.193359375,36.240234375 19.189453125,35.9912109375 20.4931640625,35.5224609375 21.8701171875,34.74609375 23.14453125,33.57421875 24.580078125,30.9228515625 25.37109375,28.095703125 25.78125,24.931640625z M18.22265625,14.47265625L22.03125,14.47265625 22.03125,14.853515625 18.22265625,14.853515625 18.22265625,14.47265625z M18.955078125,11.748046875L17.431640625,14.70703125 19.072265625,19.248046875 24.375,19.248046875 24.375,11.748046875 18.955078125,11.748046875z M4.68750095367432,9.052734375L5.25878953933716,9.5947265625 5.91796922683716,10.1953125 6.45996189117432,10.8837890625 6.67968797683716,11.71875 6.37207078933716,12.568359375 5.68359422683716,12.861328125 5.03906297683716,12.65625 5.20019578933716,13.125 5.56640720367432,13.623046875 5.56640720367432,13.857421875 3.80859470367432,13.857421875 3.80859470367432,13.623046875 4.17480516433716,13.125 4.30664110183716,12.65625 3.69140625,12.861328125 3.00293016433716,12.568359375 2.69531297683716,11.71875 2.91504001617432,10.8984375 3.45703172683716,10.1953125 4.1162109375,9.5947265625 4.68750095367432,9.052734375z M12.65625,8.84765625L13.4912109375,9.6240234375 14.47265625,10.517578125 15.2783203125,11.5576171875 15.615234375,12.83203125 15.1611328125,14.0478515625 14.150390625,14.47265625 13.212890625,14.1796875 13.41796875,14.912109375 13.9453125,15.615234375 13.9453125,15.99609375 11.3671875,15.99609375 11.3671875,15.615234375 11.89453125,14.912109375 12.099609375,14.1796875 11.162109375,14.47265625 10.1513671875,14.0478515625 9.697265625,12.83203125 10.0341796875,11.572265625 10.83984375,10.5322265625 11.8212890625,9.6240234375 12.65625,8.84765625z M22.03125,8.701171875L22.3828125,8.994140625 22.060546875,9.2578125 21.7529296875,9.580078125 21.50390625,10.01953125 21.328125,10.869140625 21.38671875,11.3671875 21.591796875,10.576171875 22.119140625,9.697265625 22.55859375,9.31640625 22.998046875,9.052734375 23.408203125,8.90625 23.642578125,9.287109375 23.232421875,9.43359375 22.8515625,9.638671875 22.470703125,9.9609375 22.060546875,10.6787109375 21.884765625,11.3671875 22.353515625,10.6640625 23.291015625,9.90234375 23.90625,9.7265625 24.375,9.697265625 24.5654296875,9.697265625 24.697265625,9.697265625 24.78515625,9.697265625 24.84375,10.13671875 24.7265625,10.13671875 24.6240234375,10.1220703125 24.4921875,10.107421875 24.0234375,10.13671875 23.49609375,10.283203125 22.822265625,10.7958984375 22.3828125,11.3671875 24.814453125,11.3671875 24.814453125,19.658203125 18.779296875,19.658203125 18.57421875,19.16015625 17.578125,19.3798828125 16.2744140625,19.8486328125 14.8828125,20.6396484375 13.623046875,21.826171875 12.1728515625,24.4775390625 11.396484375,27.3046875 10.986328125,30.46875 10.458984375,30.46875 10.83984375,27.333984375 11.6748046875,24.43359375 13.271484375,21.533203125 14.6484375,20.244140625 16.142578125,19.4091796875 17.490234375,18.9404296875 18.427734375,18.720703125 16.93359375,14.6484375 18.662109375,11.3671875 20.888671875,11.3671875 20.888671875,10.927734375 20.91796875,10.4296875 21.064453125,9.873046875 21.3720703125,9.375 21.6796875,9.0234375 22.03125,8.701171875z M9.228515625,8.466796875L9.228515625,46.962890625 27.744140625,46.962890625 27.744140625,8.466796875 9.228515625,8.466796875z M7.96875047683716,7.20703125L29.00390625,7.20703125 29.00390625,48.22265625 7.96875047683716,48.22265625 7.96875047683716,7.20703125z M5.12695407867432,2.021484375L6.474609375,2.2265625 6.474609375,2.958984375 5.12695407867432,2.60742139816284 3.51562595367432,3.29589891433716 2.92968845367432,5.0390625 3.45703172683716,6.6650390625 5.009765625,7.32421875 6.474609375,6.9140625 6.474609375,7.55859375 4.92187547683716,7.880859375 3.78295946121216,7.68310546875 2.9443359375,7.08984375 2.25585985183716,5.06835985183716 2.449951171875,3.84521484375 3.03222703933716,2.87109422683716 3.94409227371216,2.23388671875 5.12695407867432,2.021484375z M1.34765636920929,1.34765625L1.34765636920929,54.08203125 35.625,54.08203125 35.625,1.34765625 1.34765636920929,1.34765625z M0,0L36.97265625,0 36.97265625,55.4296875 0,55.4296875 0,0z" />
    </g>
  </g>
</svg>