<?xml version="1.0" encoding="utf-8"?>
<!DOCTYPE svg PUBLIC "-//W3C//DTD SVG 1.1//EN" "http://www.w3.org/Graphics/SVG/1.1/DTD/svg11.dtd">
<svg width="36.97265625" height="55.4296875" xmlns="http://www.w3.org/2000/svg" xmlns:xlink="http://www.w3.org/1999/xlink" xmlns:xml="http://www.w3.org/XML/1998/namespace" version="1.1">
  <g>
    <g>
      <path style="fill:#FF0000;fill-opacity:1" d="M32.34375,50.654296875L31.69921875,50.9912109375 31.46484375,51.73828125 31.5087890625,52.177734375 31.669921875,52.6171875 31.962890625,52.9541015625 32.373046875,53.0859375 33.0322265625,52.6904296875 33.22265625,51.884765625 33.0322265625,51.03515625 32.34375,50.654296875z M32.724609375,47.841796875L33.544921875,47.98828125 33.544921875,48.57421875 33.1640625,48.4130859375 32.75390625,48.369140625 32.0947265625,48.6328125 31.69921875,49.27734375 31.494140625,50.09765625 31.435546875,50.888671875 31.875,50.29541015625 32.490234375,50.09765625 33.5009765625,50.6103515625 33.837890625,51.767578125 33.45703125,53.0126953125 32.34375,53.583984375 31.611328125,53.349609375 31.1572265625,52.7490234375 30.9228515625,51.9580078125 30.849609375,51.123046875 30.9375,50.0830078125 31.259765625,49.013671875 31.845703125,48.1787109375 32.724609375,47.841796875z M25.3125,42.509765625L26.2646484375,43.6376953125 27.36328125,44.8828125 28.2861328125,46.3916015625 28.681640625,48.22265625 28.154296875,50.0390625 26.982421875,50.625 25.927734375,50.244140625 25.3125,49.39453125 24.66796875,50.244140625 23.671875,50.625 22.5,50.0390625 21.97265625,48.22265625 22.353515625,46.3916015625 23.26171875,44.8828125 24.3603515625,43.6376953125 25.3125,42.509765625z M11.6015625,42.509765625L12.5537109375,43.6376953125 13.6669921875,44.8828125 14.58984375,46.3916015625 14.970703125,48.22265625 14.443359375,50.0390625 13.271484375,50.625 12.216796875,50.244140625 11.6015625,49.39453125 10.986328125,50.244140625 9.9609375,50.625 8.7890625,50.0390625 8.26171875,48.22265625 8.6572265625,46.3916015625 9.580078125,44.8828125 10.6787109375,43.6376953125 11.6015625,42.509765625z M32.2265625,42.158203125L32.7099609375,42.7294921875 33.28125,43.388671875 33.75,44.150390625 33.955078125,45.087890625 33.6767578125,46.025390625 33.076171875,46.318359375 32.5341796875,46.1279296875 32.2265625,45.703125 31.904296875,46.1279296875 31.376953125,46.318359375 30.7763671875,46.025390625 30.52734375,45.087890625 30.7177734375,44.150390625 31.1865234375,43.388671875 31.7431640625,42.7294921875 32.2265625,42.158203125z M25.3125,30.17578125L26.2646484375,31.3037109375 27.36328125,32.5634765625 28.2861328125,34.072265625 28.681640625,35.888671875 28.154296875,37.705078125 26.982421875,38.291015625 25.927734375,37.91015625 25.3125,37.060546875 24.66796875,37.91015625 23.671875,38.291015625 22.5,37.705078125 21.97265625,35.888671875 22.353515625,34.072265625 23.26171875,32.5634765625 24.3603515625,31.3037109375 25.3125,30.17578125z M11.6015625,30.17578125L12.5537109375,31.3037109375 13.6669921875,32.5634765625 14.58984375,34.072265625 14.970703125,35.888671875 14.443359375,37.705078125 13.271484375,38.291015625 12.216796875,37.91015625 11.6015625,37.060546875 10.986328125,37.91015625 9.9609375,38.291015625 8.7890625,37.705078125 8.26171875,35.888671875 8.6572265625,34.072265625 9.580078125,32.5634765625 10.6787109375,31.3037109375 11.6015625,30.17578125z M16.81640625,24.521484375L17.87109375,24.9169921875 18.486328125,25.78125 19.1162109375,24.9169921875 20.126953125,24.521484375 21.298828125,25.107421875 21.826171875,26.953125 21.4453125,28.7841796875 20.537109375,30.2783203125 19.4384765625,31.5380859375 18.486328125,32.63671875 17.5341796875,31.5380859375 16.435546875,30.2783203125 15.5126953125,28.7841796875 15.1171875,26.953125 15.64453125,25.107421875 16.81640625,24.521484375z M23.642578125,17.431640625L24.697265625,17.8125 25.3125,18.662109375 25.9423828125,17.8125 26.953125,17.431640625 28.125,18.017578125 28.65234375,19.833984375 28.2568359375,21.6796875 27.3486328125,23.173828125 26.2646484375,24.4189453125 25.3125,25.546875 24.3603515625,24.4189453125 23.2470703125,23.173828125 22.32421875,21.6796875 21.943359375,19.833984375 22.470703125,18.017578125 23.642578125,17.431640625z M9.931640625,17.431640625L11.015625,17.8125 11.6015625,18.662109375 12.24609375,17.8125 13.2421875,17.431640625 14.4287109375,18.017578125 14.94140625,19.833984375 14.560546875,21.6796875 13.65234375,23.173828125 12.5537109375,24.4189453125 11.6015625,25.546875 10.6787109375,24.4189453125 9.5654296875,23.173828125 8.642578125,21.6796875 8.26171875,19.833984375 8.7744140625,18.017578125 9.931640625,17.431640625z M3.837890625,9.404296875L4.39453220367432,9.5947265625 4.68750095367432,10.048828125 5.009765625,9.5947265625 5.53710985183716,9.404296875 6.15234470367432,9.697265625 6.41601610183716,10.634765625 6.21093797683716,11.5869140625 5.72754001617432,12.3486328125 5.1708984375,12.9931640625 4.68750095367432,13.564453125 4.20410203933716,12.9931640625 3.64746189117432,12.3486328125 3.16406297683716,11.5869140625 2.958984375,10.634765625 3.2373046875,9.697265625 3.837890625,9.404296875z M23.642578125,5.09765577316284L24.697265625,5.4931640625 25.3125,6.357421875 25.9423828125,5.4931640625 26.953125,5.09765577316284 28.125,5.68359375 28.65234375,7.529296875 28.2568359375,9.3603515625 27.3486328125,10.8544921875 26.2646484375,12.1142578125 25.3125,13.212890625 24.3603515625,12.1142578125 23.2470703125,10.8544921875 22.32421875,9.3603515625 21.943359375,7.529296875 22.470703125,5.68359375 23.642578125,5.09765577316284z M9.931640625,5.09765577316284L11.015625,5.4931640625 11.6015625,6.357421875 12.24609375,5.4931640625 13.2421875,5.09765577316284 14.4287109375,5.68359375 14.94140625,7.529296875 14.560546875,9.3603515625 13.65234375,10.8544921875 12.5537109375,12.1142578125 11.6015625,13.212890625 10.6787109375,12.1142578125 9.5654296875,10.8544921875 8.642578125,9.3603515625 8.26171875,7.529296875 8.7744140625,5.68359375 9.931640625,5.09765577316284z M4.5703125,2.6953125L3.92578172683716,3.0908203125 3.72070360183716,3.89648485183716 3.91113328933716,4.74609375 4.59960985183716,5.126953125 5.24414110183716,4.79003953933716 5.47851610183716,4.04296922683716 5.43457126617432,3.60351610183716 5.27343845367432,3.16406297683716 4.98046970367432,2.8271484375 4.5703125,2.6953125z M4.59960985183716,2.197265625L5.33203172683716,2.43164110183716 5.78613328933716,3.03222608566284 6.03515625,3.8232421875 6.12304735183716,4.65820264816284 6.02050876617432,5.6982421875 5.68359422683716,6.767578125 5.09765672683716,7.6025390625 4.21875047683716,7.939453125 3.73535203933716,7.91015625 3.3984375,7.79296875 3.3984375,7.20703125 3.77929735183716,7.3681640625 4.18945360183716,7.412109375 4.84863376617432,7.1484375 5.24414110183716,6.50390625 5.44921875,5.68359375 5.50781297683716,4.892578125 5.068359375,5.48583984375 4.45312547683716,5.68359375 3.45703172683716,5.1708984375 3.13476610183716,4.013671875 3.50097751617432,2.7685546875 4.59960985183716,2.197265625z M1.34765636920929,1.34765625L1.34765636920929,54.08203125 35.625,54.08203125 35.625,1.34765625 1.34765636920929,1.34765625z M0,0L36.97265625,0 36.97265625,55.4296875 0,55.4296875 0,0z" />
    </g>
  </g>
</svg>