<?xml version="1.0" encoding="utf-8"?>
<!DOCTYPE svg PUBLIC "-//W3C//DTD SVG 1.1//EN" "http://www.w3.org/Graphics/SVG/1.1/DTD/svg11.dtd">
<svg width="36.97265625" height="55.4296875" xmlns="http://www.w3.org/2000/svg" xmlns:xlink="http://www.w3.org/1999/xlink" xmlns:xml="http://www.w3.org/XML/1998/namespace" version="1.1">
  <g>
    <g>
      <path style="fill:#FF0000;fill-opacity:1" d="M32.021484375,47.841796875L33.138427734375,48.03955078125 33.9697265625,48.6328125 34.658203125,50.68359375 34.464111328125,51.884765625 33.8818359375,52.8515625 32.969970703125,53.48876953125 31.787109375,53.701171875 30.439453125,53.49609375 30.439453125,52.763671875 31.787109375,53.115234375 33.427734375,52.4267578125 34.013671875,50.712890625 33.4716796875,49.0576171875 31.904296875,48.3984375 30.439453125,48.80859375 30.439453125,48.1640625 32.021484375,47.841796875z M32.2265625,42.158203125L32.7099609375,42.7294921875 33.28125,43.388671875 33.75,44.150390625 33.955078125,45.087890625 33.6767578125,46.025390625 33.076171875,46.318359375 32.5341796875,46.1279296875 32.2265625,45.703125 31.904296875,46.1279296875 31.376953125,46.318359375 30.7763671875,46.025390625 30.52734375,45.087890625 30.7177734375,44.150390625 31.1865234375,43.388671875 31.7431640625,42.7294921875 32.2265625,42.158203125z M14.736328125,40.517578125L18.544921875,40.517578125 18.544921875,40.927734375 14.736328125,40.927734375 14.736328125,40.517578125z M24.08203125,39.404296875L24.90234375,40.3857421875 25.8837890625,41.484375 26.7041015625,42.7880859375 27.041015625,44.384765625 26.572265625,45.9814453125 25.546875,46.494140625 24.609375,46.1572265625 24.08203125,45.41015625 23.5400390625,46.1572265625 22.646484375,46.494140625 21.6064453125,45.9814453125 21.15234375,44.384765625 21.4892578125,42.7880859375 22.294921875,41.484375 23.26171875,40.3857421875 24.08203125,39.404296875z M12.392578125,36.123046875L12.392578125,43.623046875 17.8125,43.623046875 19.3359375,40.6640625 17.6953125,36.123046875 12.392578125,36.123046875z M25.78125,24.931640625L26.30859375,24.931640625 25.927734375,28.037109375 25.0927734375,30.9521484375 23.49609375,33.837890625 22.1337890625,35.126953125 20.6396484375,35.9619140625 19.27734375,36.4306640625 18.33984375,36.650390625 19.833984375,40.751953125 18.10546875,44.033203125 15.87890625,44.033203125 15.908203125,44.443359375 15.8642578125,44.9560546875 15.703125,45.498046875 15.41015625,46.0107421875 15.087890625,46.40625 14.736328125,46.669921875 14.4140625,46.40625 14.736328125,46.11328125 15,45.8056640625 15.263671875,45.380859375 15.439453125,44.53125 15.41015625,44.033203125 15.380859375,44.033203125 15.17578125,44.8095703125 14.6484375,45.703125 14.1943359375,46.083984375 13.76953125,46.318359375 13.359375,46.46484375 13.125,46.083984375 13.53515625,45.9375 13.9013671875,45.7470703125 14.296875,45.41015625 14.7216796875,44.6923828125 14.912109375,44.033203125 14.4287109375,44.7216796875 13.4765625,45.46875 12.8759765625,45.6591796875 12.392578125,45.703125 12.099609375,45.703125 11.982421875,45.673828125 11.923828125,45.234375 12.041015625,45.263671875 12.275390625,45.263671875 12.744140625,45.2490234375 13.271484375,45.087890625 13.9599609375,44.58984375 14.4140625,44.033203125 11.953125,44.033203125 11.953125,35.712890625 17.98828125,35.712890625 18.193359375,36.240234375 19.189453125,35.9912109375 20.4931640625,35.5224609375 21.8701171875,34.74609375 23.14453125,33.57421875 24.580078125,30.9228515625 25.37109375,28.095703125 25.78125,24.931640625z M18.22265625,14.47265625L22.03125,14.47265625 22.03125,14.853515625 18.22265625,14.853515625 18.22265625,14.47265625z M18.955078125,11.748046875L17.431640625,14.70703125 19.072265625,19.248046875 24.375,19.248046875 24.375,11.748046875 18.955078125,11.748046875z M3.837890625,9.404296875L4.39453220367432,9.5947265625 4.68750095367432,10.048828125 5.009765625,9.5947265625 5.53710985183716,9.404296875 6.15234470367432,9.697265625 6.41601610183716,10.634765625 6.21093797683716,11.5869140625 5.72754001617432,12.3486328125 5.1708984375,12.9931640625 4.68750095367432,13.564453125 4.20410203933716,12.9931640625 3.64746189117432,12.3486328125 3.16406297683716,11.5869140625 2.958984375,10.634765625 3.2373046875,9.697265625 3.837890625,9.404296875z M11.162109375,8.876953125L12.0849609375,9.2138671875 12.59765625,9.990234375 13.1689453125,9.2138671875 14.0625,8.876953125 15.087890625,9.3896484375 15.556640625,11.015625 15.2197265625,12.59765625 14.3994140625,13.9306640625 13.41796875,15.029296875 12.59765625,15.99609375 11.77734375,15.029296875 10.810546875,13.9306640625 10.0048828125,12.59765625 9.66796875,11.015625 10.13671875,9.3896484375 11.162109375,8.876953125z M22.03125,8.701171875L22.3828125,8.994140625 22.060546875,9.2578125 21.7529296875,9.580078125 21.50390625,10.01953125 21.328125,10.869140625 21.38671875,11.3671875 21.591796875,10.576171875 22.119140625,9.697265625 22.55859375,9.31640625 22.998046875,9.052734375 23.408203125,8.90625 23.642578125,9.287109375 23.232421875,9.43359375 22.8515625,9.638671875 22.470703125,9.9609375 22.060546875,10.6787109375 21.884765625,11.3671875 22.353515625,10.6640625 23.291015625,9.90234375 23.90625,9.7265625 24.375,9.697265625 24.5654296875,9.697265625 24.697265625,9.697265625 24.78515625,9.697265625 24.84375,10.13671875 24.7265625,10.13671875 24.6240234375,10.1220703125 24.4921875,10.107421875 24.0234375,10.13671875 23.49609375,10.283203125 22.822265625,10.7958984375 22.3828125,11.3671875 24.814453125,11.3671875 24.814453125,19.658203125 18.779296875,19.658203125 18.57421875,19.16015625 17.578125,19.3798828125 16.2744140625,19.8486328125 14.8828125,20.6396484375 13.623046875,21.826171875 12.1728515625,24.4775390625 11.396484375,27.3046875 10.986328125,30.46875 10.458984375,30.46875 10.83984375,27.333984375 11.6748046875,24.43359375 13.271484375,21.533203125 14.6484375,20.244140625 16.142578125,19.4091796875 17.490234375,18.9404296875 18.427734375,18.720703125 16.93359375,14.6484375 18.662109375,11.3671875 20.888671875,11.3671875 20.888671875,10.927734375 20.91796875,10.4296875 21.064453125,9.873046875 21.3720703125,9.375 21.6796875,9.0234375 22.03125,8.701171875z M9.228515625,8.466796875L9.228515625,46.962890625 27.744140625,46.962890625 27.744140625,8.466796875 9.228515625,8.466796875z M7.96875047683716,7.20703125L29.00390625,7.20703125 29.00390625,48.22265625 7.96875047683716,48.22265625 7.96875047683716,7.20703125z M5.12695407867432,2.021484375L6.474609375,2.2265625 6.474609375,2.958984375 5.12695407867432,2.60742139816284 3.51562595367432,3.29589891433716 2.92968845367432,5.0390625 3.45703172683716,6.6650390625 5.009765625,7.32421875 6.474609375,6.9140625 6.474609375,7.55859375 4.92187547683716,7.880859375 3.78295946121216,7.68310546875 2.9443359375,7.08984375 2.25585985183716,5.06835985183716 2.449951171875,3.84521484375 3.03222703933716,2.87109422683716 3.94409227371216,2.23388671875 5.12695407867432,2.021484375z M1.34765636920929,1.34765625L1.34765636920929,54.08203125 35.625,54.08203125 35.625,1.34765625 1.34765636920929,1.34765625z M0,0L36.97265625,0 36.97265625,55.4296875 0,55.4296875 0,0z" />
    </g>
  </g>
</svg>