<?xml version="1.0" encoding="utf-8"?>
<!DOCTYPE svg PUBLIC "-//W3C//DTD SVG 1.1//EN" "http://www.w3.org/Graphics/SVG/1.1/DTD/svg11.dtd">
<svg width="36.97265625" height="55.4296875" xmlns="http://www.w3.org/2000/svg" xmlns:xlink="http://www.w3.org/1999/xlink" xmlns:xml="http://www.w3.org/XML/1998/namespace" version="1.1">
  <g>
    <g>
      <path style="fill:#FF0000;fill-opacity:1" d="M31.259765625,50.126953125L32.255859375,52.939453125 33.251953125,50.126953125 31.259765625,50.126953125z M29.677734375,47.900390625L30.439453125,47.900390625 31.0546875,49.51171875 33.486328125,49.51171875 34.04296875,47.900390625 34.8046875,47.900390625 32.578125,53.642578125 31.904296875,53.642578125 29.677734375,47.900390625z M32.2265625,41.865234375L33.896484375,44.23828125 32.2265625,46.640625 30.5859375,44.23828125 32.2265625,41.865234375z M18.486328125,23.935546875L21.357421875,28.06640625 18.486328125,32.197265625 15.64453125,28.06640625 18.486328125,23.935546875z M4.68750095367432,9.08203125L6.328125,11.513671875 4.68750095367432,13.857421875 3.01757860183716,11.513671875 4.68750095367432,9.08203125z M4.68750095367432,2.783203125L3.69140625,5.595703125 5.68359422683716,5.595703125 4.68750095367432,2.783203125z M4.36523485183716,2.080078125L5.03906297683716,2.080078125 7.26562547683716,7.822265625 6.50390672683716,7.822265625 5.888671875,6.2109375 3.45703172683716,6.2109375 2.90039110183716,7.822265625 2.13867235183716,7.822265625 4.36523485183716,2.080078125z M1.34765636920929,1.34765625L1.34765636920929,54.08203125 35.625,54.08203125 35.625,1.34765625 1.34765636920929,1.34765625z M0,0L36.97265625,0 36.97265625,55.4296875 0,55.4296875 0,0z" />
    </g>
  </g>
</svg>