<?xml version="1.0" encoding="utf-8"?>
<!DOCTYPE svg PUBLIC "-//W3C//DTD SVG 1.1//EN" "http://www.w3.org/Graphics/SVG/1.1/DTD/svg11.dtd">
<svg width="38.583984375" height="43.447265625" xmlns="http://www.w3.org/2000/svg" xmlns:xlink="http://www.w3.org/1999/xlink" xmlns:xml="http://www.w3.org/XML/1998/namespace" version="1.1">
  <g>
    <g>
      <path style="fill:#FF0000;fill-opacity:1" d="M19.365234375,0L22.998046875,0.3955078125 26.220703125,1.4501953125 29.0625,2.958984375 31.58203125,4.74609375 27.71484375,8.3203125 26.1767578125,7.177734375 24.111328125,6.0498046875 21.6796875,5.185546875 19.072265625,4.833984375 16.11328125,5.3759765625 13.88671875,6.85546875 12.3486328125,9.111328125 11.455078125,11.953125 10.400390625,17.255859375 13.3154296875,16.201171875 16.40625,15.8203125 19.5849609375,16.318359375 22.03125,17.7392578125 23.61328125,19.9951171875 24.169921875,22.96875 24.0966796875,24.0673828125 23.876953125,25.224609375 22.705078125,30.322265625 22.5146484375,31.142578125 22.2216796875,32.490234375 21.943359375,34.072265625 21.826171875,35.537109375 22.034912109375,36.89208984375 22.6611328125,37.8515625 23.7780742645264,38.4228515625 25.458984375,38.61328125 27.5646953582764,38.294677734375 29.1943359375,37.3388671875 30.3625469207764,35.789794921875 31.083984375,33.69140625 33.662109375,21.708984375 38.583984375,21.708984375 35.9765625,34.072265625 34.7314453125,37.8076171875 32.5927734375,40.7666015625 29.3408203125,42.7294921875 24.78515625,43.447265625 21.280517578125,43.0078125 18.7939453125,41.689453125 17.310791015625,39.5361328125 16.81640625,36.591796875 16.9482421875,34.9951171875 17.255859375,33.0908203125 17.5927734375,31.3623046875 17.8125,30.263671875 19.013671875,25.1953125 19.189453125,23.671875 18.973388671875,22.294921875 18.3251953125,21.2109375 17.178955078125,20.5078125 15.46875,20.2734375 13.3154296875,20.56640625 11.3818359375,21.4013671875 9.8291015625,22.7490234375 8.818359375,24.609375 4.921875,42.71484375 0,42.71484375 6.474609375,11.953125 7.1484375,9.228515625 8.2177734375,6.4892578125 9.814453125,3.984375 12.0849609375,1.9189453125 15.2197265625,0.5126953125 19.365234375,0z" />
    </g>
  </g>
</svg>