<?xml version="1.0" encoding="utf-8"?>
<!DOCTYPE svg PUBLIC "-//W3C//DTD SVG 1.1//EN" "http://www.w3.org/Graphics/SVG/1.1/DTD/svg11.dtd">
<svg width="30.99609375" height="43.447265625" xmlns="http://www.w3.org/2000/svg" xmlns:xlink="http://www.w3.org/1999/xlink" xmlns:xml="http://www.w3.org/XML/1998/namespace" version="1.1">
  <g>
    <g>
      <path style="fill:#FF0000;fill-opacity:1" d="M18.515625,0L23.3056640625,0.7177734375 27.2900390625,2.7685546875 30,5.9619140625 30.7470703125,7.928466796875 30.99609375,10.107421875 30.263671875,14.794921875 28.30078125,18.2373046875 25.400390625,20.68359375 21.8701171875,22.3828125 18.046875,23.61328125 14.2236328125,24.6533203125 10.693359375,25.751953125 7.79296875,27.1728515625 5.830078125,29.1796875 5.09765672683716,32.021484375 5.6103515625,34.39453125 7.2216796875,36.50390625 10.0634765625,38.02734375 14.267578125,38.61328125 17.2119140625,38.1884765625 19.921875,36.8701171875 22.177734375,34.5849609375 23.73046875,31.23046875 29.150390625,32.373046875 26.806640625,37.177734375 23.408203125,40.6494140625 19.1455078125,42.744140625 14.1796875,43.447265625 11.0192861557007,43.24951171875 8.2177734375,42.65625 5.79345703125,41.7041015625 3.7646484375,40.4296875 2.149658203125,38.8623046875 0.966797232627869,37.03125 0.241699308156967,34.9658203125 0,32.6953125 0.732422232627869,28.30078125 2.69531202316284,25.13671875 5.595703125,22.9248046875 9.1259765625,21.38671875 12.94921875,20.244140625 16.7724609375,19.21875 20.302734375,18.0322265625 23.203125,16.3916015625 25.166015625,14.033203125 25.8984375,10.6640625 25.341796875,8.232421875 23.7744140625,6.38671875 21.3134765625,5.2294921875 18.076171875,4.833984375 15.380859375,5.2587890625 13.125,6.3427734375 11.279296875,7.8076171875 9.84375,9.404296875 5.302734375,7.03125 6.89208984375,4.89990234375 8.61328125,3.251953125 12.1728515625,1.1279296875 15.5859375,0.205078125 18.515625,0z" />
    </g>
  </g>
</svg>