<?xml version="1.0" encoding="utf-8"?>
<!DOCTYPE svg PUBLIC "-//W3C//DTD SVG 1.1//EN" "http://www.w3.org/Graphics/SVG/1.1/DTD/svg11.dtd">
<svg width="21.7675781250039" height="42.744140625" xmlns="http://www.w3.org/2000/svg" xmlns:xlink="http://www.w3.org/1999/xlink" xmlns:xml="http://www.w3.org/XML/1998/namespace" version="1.1">
  <g>
    <g>
      <path style="fill:#FF0000;fill-opacity:1" d="M7.353515625,0L12.275390625,0 5.91796875,29.560546875 5.712890625,30.3955078125 5.419921875,31.7724609375 5.1416015625,33.369140625 5.009765625,34.833984375 5.218505859375,36.18896484375 5.8447265625,37.1484375 6.961669921875,37.7197265625 8.642578125,37.91015625 10.7482900619507,37.591552734375 12.3779296875,36.6357421875 13.546142578125,35.086669921875 14.267578125,32.98828125 16.845703125,21.005859375 21.767578125,21.005859375 19.16015625,33.369140625 17.9150390625,37.1044921875 15.7763671875,40.0634765625 12.5244140625,42.0263671875 7.96875,42.744140625 4.46411085128784,42.3046875 1.97753882408142,40.986328125 0.494384467601776,38.8330078125 0,35.888671875 0.131835699081421,34.2919921875 0.439452886581421,32.3876953125 0.776366472244263,30.6591796875 0.996093511581421,29.560546875 7.353515625,0z" />
    </g>
  </g>
</svg>