<?xml version="1.0" encoding="utf-8"?>
<!DOCTYPE svg PUBLIC "-//W3C//DTD SVG 1.1//EN" "http://www.w3.org/Graphics/SVG/1.1/DTD/svg11.dtd">
<svg width="30.205078125" height="43.447265625" xmlns="http://www.w3.org/2000/svg" xmlns:xlink="http://www.w3.org/1999/xlink" xmlns:xml="http://www.w3.org/XML/1998/namespace" version="1.1">
  <g>
    <g>
      <path style="fill:#FF0000;fill-opacity:1" d="M19.04296875,0L21.8151836395264,0.289306640625 24.1552734375,1.1572265625 26.0815410614014,2.49755859375 27.6123046875,4.2041015625 29.5751953125,8.525390625 30.205078125,13.53515625 29.7509765625,20.0390625 28.330078125,26.7919921875 25.8251953125,33.134765625 22.1337890625,38.4375 19.81201171875,40.491943359375 17.1533203125,42.0849609375 14.146728515625,43.106689453125 10.78125,43.447265625 7.1337890625,42.83203125 3.89648413658142,40.986328125 1.40624952316284,37.8955078125 0,33.544921875 5.44921875,33.515625 6.35009765625,35.80078125 7.646484375,37.3828125 9.27978515625,38.3056640625 11.19140625,38.61328125 13.6083984375,38.316650390625 15.76171875,37.4267578125 17.666015625,36.04248046875 19.3359375,34.2626953125 21.9873046875,29.7509765625 23.7744140625,24.5361328125 24.78515625,19.2333984375 25.107421875,14.47265625 24.638671875,10.1513671875 23.3203125,7.1484375 21.2548828125,5.4052734375 18.544921875,4.833984375 16.182861328125,5.13427734375 14.0771484375,6.03515625 12.2131338119507,7.43408203125 10.576171875,9.228515625 6.416015625,6.50390625 8.84765625,3.837890625 11.7333984375,1.787109375 15.1171875,0.46875 19.04296875,0z" />
    </g>
  </g>
</svg>