<?xml version="1.0" encoding="utf-8"?>
<!DOCTYPE svg PUBLIC "-//W3C//DTD SVG 1.1//EN" "http://www.w3.org/Graphics/SVG/1.1/DTD/svg11.dtd">
<svg width="31.7285156250002" height="43.447265625" xmlns="http://www.w3.org/2000/svg" xmlns:xlink="http://www.w3.org/1999/xlink" xmlns:xml="http://www.w3.org/XML/1998/namespace" version="1.1">
  <g>
    <g>
      <path style="fill:#FF0000;fill-opacity:1" d="M11.71875,4.833984375L10.25390625,5.09765625 9.08203125,5.8447265625 8.3056640625,7.001953125 8.02734375,8.466796875 8.759765625,10.7080078125 10.72265625,12.65625 11.689453125,13.30078125 12.7294921875,12.451171875 13.8720703125,11.3232421875 14.8095703125,9.9755859375 15.205078125,8.466796875 14.96337890625,7.02392578125 14.23828125,5.859375 13.125,5.09033203125 11.71875,4.833984375z M11.71875,0L15.322265625,0.5859375 18.017578125,2.2265625 19.716796875,4.7314453125 20.302734375,7.91015625 19.8779296875,10.37109375 18.7646484375,12.451171875 17.2119140625,14.2236328125 15.46875,15.76171875 17.5927734375,17.28515625 19.0576171875,18.427734375 20.0537109375,19.306640625 20.7421875,20.068359375 16.81640625,22.8515625 15.8056640625,21.7529296875 14.501953125,20.625 13.037109375,19.5556640625 11.54296875,18.6328125 9.1845703125,20.9326171875 7.119140625,23.5546875 5.654296875,26.4404296875 5.09765625,29.560546875 5.28076171875,31.878662109375 5.830078125,33.7939453125 7.7490234375,36.591796875 10.4296875,38.14453125 13.41796875,38.61328125 15.303955078125,38.4228515625 17.0361328125,37.8515625 20.068359375,35.7861328125 22.55859375,32.724609375 24.521484375,28.9599609375 25.986328125,24.814453125 27.01171875,20.595703125 31.728515625,21.826171875 30.3662109375,27.158203125 28.4326171875,32.197265625 25.83984375,36.6650390625 22.4853515625,40.2392578125 18.251953125,42.59765625 15.78369140625,43.23486328125 13.06640625,43.447265625 9.96826076507568,43.18359375 7.294921875,42.392578125 5.042724609375,41.15478515625 3.2080078125,39.55078125 1.790771484375,37.62451171875 0.791015625,35.419921875 0.197753727436066,33.017578125 0,30.498046875 0.6591796875,26.220703125 2.4169921875,22.2802734375 4.9365234375,18.837890625 7.91015625,16.025390625 5.888671875,14.3408203125 4.3212890625,12.59765625 3.2958984375,10.6494140625 2.9296875,8.3203125 3.5595703125,5.0537109375 5.3466796875,2.4169921875 8.115234375,0.64453125 11.71875,0z" />
    </g>
  </g>
</svg>