<?xml version="1.0" encoding="utf-8"?>
<!DOCTYPE svg PUBLIC "-//W3C//DTD SVG 1.1//EN" "http://www.w3.org/Graphics/SVG/1.1/DTD/svg11.dtd">
<svg width="38.3203125" height="42.744140625" xmlns="http://www.w3.org/2000/svg" xmlns:xlink="http://www.w3.org/1999/xlink" xmlns:xml="http://www.w3.org/XML/1998/namespace" version="1.1">
  <g>
    <g>
      <path style="fill:#FF0000;fill-opacity:1" d="M8.232421875,16.494140625L6.767578125,16.787109375 5.595703125,17.578125 4.8193359375,18.779296875 4.54101610183716,20.2734375 4.8193359375,21.73828125 5.595703125,22.91015625 6.767578125,23.6865234375 8.232421875,23.96484375 9.6826171875,23.671875 10.8837890625,22.880859375 11.689453125,21.708984375 11.982421875,20.2734375 11.689453125,18.7939453125 10.8837890625,17.5927734375 9.6826171875,16.787109375 8.232421875,16.494140625z M23.90625,0L28.828125,0 22.470703125,29.560546875 22.265625,30.3955078125 21.97265625,31.7724609375 21.6943359375,33.369140625 21.5625,34.833984375 21.771240234375,36.18896484375 22.3974609375,37.1484375 23.5144023895264,37.7197265625 25.1953125,37.91015625 27.3010234832764,37.591552734375 28.9306640625,36.6357421875 30.0988750457764,35.086669921875 30.8203125,32.98828125 33.3984375,21.005859375 38.3203125,21.005859375 35.712890625,33.369140625 34.4677734375,37.1044921875 32.3291015625,40.0634765625 29.0771484375,42.0263671875 24.521484375,42.744140625 21.016845703125,42.3046875 18.5302734375,40.986328125 17.047119140625,38.8330078125 16.552734375,35.888671875 16.6845703125,34.2919921875 16.9921875,32.3876953125 17.3291015625,30.6591796875 17.548828125,29.560546875 19.833984375,18.8671875 16.435546875,18.8671875 16.5234375,19.5703125 16.552734375,20.2734375 15.908203125,23.49609375 14.1357421875,26.1181640625 11.484375,27.890625 8.232421875,28.53515625 4.9951171875,27.890625 2.373046875,26.1181640625 0.629883170127869,23.49609375 0,20.2734375 0.644531488418579,17.0068359375 2.40234422683716,14.3701171875 5.009765625,12.59765625 8.232421875,11.953125 11.484375,12.6123046875 14.12109375,14.4140625 20.80078125,14.4140625 23.90625,0z" />
    </g>
  </g>
</svg>