<?xml version="1.0" encoding="utf-8"?>
<!DOCTYPE svg PUBLIC "-//W3C//DTD SVG 1.1//EN" "http://www.w3.org/Graphics/SVG/1.1/DTD/svg11.dtd">
<svg width="30.2050781250011" height="43.447265625" xmlns="http://www.w3.org/2000/svg" xmlns:xlink="http://www.w3.org/1999/xlink" xmlns:xml="http://www.w3.org/XML/1998/namespace" version="1.1">
  <g>
    <g>
      <path style="fill:#FF0000;fill-opacity:1" d="M19.423828125,0L23.0712890625,0.615234375 26.30859375,2.4609375 28.798828125,5.5517578125 30.205078125,9.90234375 24.755859375,9.931640625 23.8549785614014,7.646484375 22.55859375,6.064453125 20.9252910614014,5.1416015625 19.013671875,4.833984375 16.5966796875,5.130615234375 14.443359375,6.0205078125 12.5390625,7.40478515625 10.869140625,9.1845703125 8.2177734375,13.6962890625 6.4306640625,18.9111328125 5.419921875,24.2138671875 5.09765625,28.974609375 5.56640625,33.310546875 6.884765625,36.298828125 8.9501953125,38.0419921875 11.66015625,38.61328125 14.022216796875,38.31298828125 16.1279296875,37.412109375 17.991943359375,36.01318359375 19.62890625,34.21875 23.7890625,36.943359375 21.357421875,39.609375 18.4716796875,41.66015625 15.087890625,42.978515625 11.162109375,43.447265625 8.389892578125,43.157958984375 6.0498046875,42.2900390625 4.12353467941284,40.94970703125 2.59277272224426,39.2431640625 0.629882574081421,34.921875 0,29.912109375 0.454101324081421,23.408203125 1.87499976158142,16.6552734375 4.37988185882568,10.3125 8.0712890625,5.009765625 10.3930654525757,2.955322265625 13.0517578125,1.3623046875 16.058349609375,0.340576171875 19.423828125,0z" />
    </g>
  </g>
</svg>