<?xml version="1.0" encoding="utf-8"?>
<!DOCTYPE svg PUBLIC "-//W3C//DTD SVG 1.1//EN" "http://www.w3.org/Graphics/SVG/1.1/DTD/svg11.dtd">
<svg width="32.28515625" height="43.447265625" xmlns="http://www.w3.org/2000/svg" xmlns:xlink="http://www.w3.org/1999/xlink" xmlns:xml="http://www.w3.org/XML/1998/namespace" version="1.1">
  <g>
    <g>
      <path style="fill:#FF0000;fill-opacity:1" d="M5.15625,0L7.3681640625,0.2197265625 9.4921875,0.703125 11.4990234375,1.1865234375 13.359375,1.40625 15.1025390625,1.2158203125 16.669921875,0.5859375 11.044921875,26.6015625 10.5908203125,28.8134765625 10.2099609375,30.9375 9.9462890625,32.8564453125 9.84375,34.453125 10.25390625,36.38671875 11.337890625,37.67578125 12.83203125,38.3935546875 14.501953125,38.61328125 17.7392578125,37.998046875 20.21484375,36.26953125 21.796875,33.5888671875 22.353515625,30.1171875 21.6064453125,25.2685546875 19.365234375,21.38671875 32.28515625,21.38671875 32.28515625,25.83984375 26.71875,25.83984375 27.2607421875,27.8173828125 27.451171875,29.912109375 27.2277812957764,32.75390625 26.5576171875,35.361328125 25.4663066864014,37.679443359375 23.9794921875,39.6533203125 22.0971660614014,41.253662109375 19.8193359375,42.451171875 17.171630859375,43.1982421875 14.1796875,43.447265625 10.048828125,42.8759765625 7.1044921875,41.25 5.33203125,38.701171875 4.74609375,35.390625 4.921875,33.076171875 5.33203125,30.4541015625 5.830078125,27.9931640625 6.240234375,26.103515625 10.546875,5.9765625 8.0419921875,5.244140625 5.15625,4.833984375 4.013671875,4.892578125 2.578125,5.1123046875 1.142578125,5.56640625 0,6.298828125 0,1.11328125 2.40234375,0.234375 5.15625,0z" />
    </g>
  </g>
</svg>