<?xml version="1.0" encoding="utf-8"?>
<!DOCTYPE svg PUBLIC "-//W3C//DTD SVG 1.1//EN" "http://www.w3.org/Graphics/SVG/1.1/DTD/svg11.dtd">
<svg width="24.7265625" height="50.361328125" xmlns="http://www.w3.org/2000/svg" xmlns:xlink="http://www.w3.org/1999/xlink" xmlns:xml="http://www.w3.org/XML/1998/namespace" version="1.1">
  <g>
    <g>
      <path style="fill:#FF0000;fill-opacity:1" d="M12.333984375,0L17.607421875,0 24.7265625,6.591796875 17.51953125,12.83203125 24.7265625,19.1015625 17.51953125,25.341796875 24.7265625,31.611328125 17.51953125,37.8515625 24.7265625,44.12109375 17.51953125,50.361328125 12.333984375,50.361328125 19.599609375,44.12109375 12.333984375,37.8515625 19.599609375,31.611328125 12.333984375,25.341796875 19.599609375,19.1015625 12.333984375,12.83203125 19.482421875,6.591796875 12.333984375,0z M0,0L5.2734375,0 12.392578125,6.591796875 5.185546875,12.83203125 12.392578125,19.1015625 5.185546875,25.341796875 12.392578125,31.611328125 5.185546875,37.8515625 12.392578125,44.12109375 5.185546875,50.361328125 0,50.361328125 7.265625,44.12109375 0,37.8515625 7.265625,31.611328125 0,25.341796875 7.265625,19.1015625 0,12.83203125 7.1484375,6.591796875 0,0z" />
    </g>
  </g>
</svg>