<?xml version="1.0" encoding="utf-8"?>
<!DOCTYPE svg PUBLIC "-//W3C//DTD SVG 1.1//EN" "http://www.w3.org/Graphics/SVG/1.1/DTD/svg11.dtd">
<svg width="14.033203125" height="51.5625" xmlns="http://www.w3.org/2000/svg" xmlns:xlink="http://www.w3.org/1999/xlink" xmlns:xml="http://www.w3.org/XML/1998/namespace" version="1.1">
  <g>
    <g>
      <path style="fill:#FF0000;fill-opacity:1" d="M4.892578125,5.888671875L6.884765625,15.05859375 7.587890625,25.576171875 6.884765625,36.181640625 4.86328125,45.615234375 7.4853515625,41.1328125 9.43359375,36.357421875 10.64208984375,31.2158203125 11.044921875,25.634765625 10.64208984375,20.1123046875 9.43359375,15.029296875 7.49267578125,10.3125009536743 4.892578125,5.888671875z M0.0585936903953552,0L3.01757836341858,0 7.646484375,5.419921875 11.1181640625,11.3671875 13.2861328125,18.0322265625 14.033203125,25.576171875 13.2861328125,33.1494140625 11.1181640625,39.90234375 7.646484375,45.99609375 3.01757836341858,51.5625 0,51.5625 2.00683641433716,46.0400390625 3.44238352775574,39.7705078125 4.30664157867432,32.9150390625 4.599609375,25.634765625 4.32129001617432,18.4423828125 3.47168040275574,11.6455078125 2.05078172683716,5.44921875 0.0585936903953552,0z" />
    </g>
  </g>
</svg>