<?xml version="1.0" encoding="utf-8"?>
<!DOCTYPE svg PUBLIC "-//W3C//DTD SVG 1.1//EN" "http://www.w3.org/Graphics/SVG/1.1/DTD/svg11.dtd">
<svg width="37.0898437500003" height="36.533203125" xmlns="http://www.w3.org/2000/svg" xmlns:xlink="http://www.w3.org/1999/xlink" xmlns:xml="http://www.w3.org/XML/1998/namespace" version="1.1">
  <g>
    <g>
      <path style="fill:#FF0000;fill-opacity:1" d="M20.5078125,4.04296875L20.5078125,32.51953125 23.0639629364014,31.9482421875 25.400390625,30.9375 29.2529296875,27.8173828125 31.787109375,23.4814453125 32.46826171875,20.950927734375 32.6953125,18.251953125 32.46826171875,15.5566425323486 31.787109375,13.037109375 29.2529296875,8.7158203125 25.400390625,5.6103515625 23.0639629364014,4.610595703125 20.5078125,4.04296875z M16.58203125,4.04296875L14.02587890625,4.610595703125 11.689453125,5.6103515625 7.8369140625,8.7158203125 5.302734375,13.037109375 4.62158203125,15.5566425323486 4.39453125,18.251953125 4.62158203125,20.950927734375 5.302734375,23.4814453125 7.8369140625,27.8173828125 11.689453125,30.9375 14.02587890625,31.9482421875 16.58203125,32.51953125 16.58203125,4.04296875z M18.544921875,0L22.2656230926514,0.355224609375 25.751953125,1.4208984375 28.90869140625,3.101806640625 31.640625,5.302734375 33.896484375,7.97973728179932 35.625,11.0888671875 36.7236328125,14.5422382354736 37.08984375,18.251953125 36.7236328125,21.96533203125 35.625,25.4296875 33.896484375,28.5498046875 31.640625,31.23046875 28.90869140625,33.431396484375 25.751953125,35.1123046875 22.2656230926514,36.177978515625 18.544921875,36.533203125 14.82421875,36.177978515625 11.337890625,35.1123046875 8.18115139007568,33.431396484375 5.44921875,31.23046875 3.193359375,28.5498046875 1.46484375,25.4296875 0.366210579872131,21.96533203125 0,18.251953125 0.366210579872131,14.5422382354736 1.46484375,11.0888671875 3.193359375,7.97973728179932 5.44921875,5.302734375 8.18115139007568,3.101806640625 11.337890625,1.4208984375 14.82421875,0.355224609375 18.544921875,0z" />
    </g>
  </g>
</svg>