<?xml version="1.0" encoding="utf-8"?>
<!DOCTYPE svg PUBLIC "-//W3C//DTD SVG 1.1//EN" "http://www.w3.org/Graphics/SVG/1.1/DTD/svg11.dtd">
<svg width="36.4453125000004" height="52.08984375" xmlns="http://www.w3.org/2000/svg" xmlns:xlink="http://www.w3.org/1999/xlink" xmlns:xml="http://www.w3.org/XML/1998/namespace" version="1.1">
  <g>
    <g>
      <path style="fill:#FF0000;fill-opacity:1" d="M18.193359375,0L23.0126953125,0.6591796875 27.3779296875,2.5048828125 31.083984375,5.3466796875 33.9404296875,9.0234375 35.7861328125,13.3740234375 36.4453125,18.22265625 36.126708984375,21.646728515625 35.1708984375,24.8876953125 33.662109375,27.85400390625 31.6845703125,30.4541015625 29.2822265625,32.65869140625 26.4990234375,34.4384765625 23.4118633270264,35.701904296875 20.09765625,36.357421875 20.09765625,46.40625 23.701171875,42.744140625 28.0078125,42.744140625 18.28125,52.08984375 18.1640625,52.08984375 8.466796875,42.744140625 12.7734375,42.744140625 16.318359375,46.34765625 16.318359375,36.357421875 13.004150390625,35.701904296875 9.9169921875,34.4384765625 7.13378810882568,32.65869140625 4.7314453125,30.4541015625 2.757568359375,27.85400390625 1.25976610183716,24.8876953125 0.314941108226776,21.646728515625 0,18.22265625 0.358886361122131,14.5605487823486 1.435546875,11.1328125 3.12744140625,8.031005859375 5.33203125,5.3466796875 8.00537014007568,3.131103515625 11.103515625,1.435546875 14.53125,0.35888671875 18.193359375,0z" />
    </g>
  </g>
</svg>