<?xml version="1.0" encoding="utf-8"?>
<!DOCTYPE svg PUBLIC "-//W3C//DTD SVG 1.1//EN" "http://www.w3.org/Graphics/SVG/1.1/DTD/svg11.dtd">
<svg width="37.32421875" height="37.32421875" xmlns="http://www.w3.org/2000/svg" xmlns:xlink="http://www.w3.org/1999/xlink" xmlns:xml="http://www.w3.org/XML/1998/namespace" version="1.1">
  <g>
    <g>
      <path style="fill:#FF0000;fill-opacity:1" d="M7.265625,9.990234375L5.2294921875,13.9892578125 4.51171875,18.662109375 4.779052734375,21.602783203125 5.5810546875,24.3310546875 6.85912990570068,26.781005859375 8.5546875,28.88671875 10.62744140625,30.615234375 13.037109375,31.93359375 15.732421875,32.7685546875 18.662109375,33.046875 21.1047344207764,32.8564453125 23.3935546875,32.28515625 27.392578125,30.1171875 7.265625,9.990234375z M18.662109375,4.306640625L16.201171875,4.4970703125 13.916015625,5.068359375 9.931640625,7.236328125 30.05859375,27.36328125 32.0947265625,23.349609375 32.8125,18.662109375 32.545166015625,15.7434101104736 31.7431640625,13.0224609375 30.465087890625,10.5725116729736 28.76953125,8.466796875 26.693115234375,6.73828125 24.2724609375,5.419921875 21.5734844207764,4.5849609375 18.662109375,4.306640625z M2.724609375,0L7.08984375,4.365234375 9.605712890625,2.698974609375 12.4072265625,1.4501953125 15.443115234375,0.670166015625 18.662109375,0.41015625 22.3828105926514,0.765380859375 25.869140625,1.8310546875 29.02587890625,3.511962890625 31.7578125,5.712890625 34.013671875,8.38989353179932 35.7421875,11.4990234375 36.8408203125,14.9523944854736 37.20703125,18.662109375 36.9287109375,21.925048828125 36.09375,24.9755859375 34.76806640625,27.777099609375 33.017578125,30.29296875 37.32421875,34.599609375 34.599609375,37.32421875 30.234375,32.98828125 27.71484375,34.654541015625 24.90234375,35.9033203125 21.8627910614014,36.683349609375 18.662109375,36.943359375 14.94140625,36.588134765625 11.455078125,35.5224609375 8.29833889007568,33.841552734375 5.56640625,31.640625 3.310546875,28.9599609375 1.58203125,25.83984375 0.483398079872131,22.37548828125 0.1171875,18.662109375 0.395507454872131,15.4028339385986 1.23046875,12.36328125 2.55615234375,9.57275581359863 4.306640625,7.060546875 0,2.724609375 2.724609375,0z" />
    </g>
  </g>
</svg>