<?xml version="1.0" encoding="utf-8"?>
<!DOCTYPE svg PUBLIC "-//W3C//DTD SVG 1.1//EN" "http://www.w3.org/Graphics/SVG/1.1/DTD/svg11.dtd">
<svg width="36.4453125000004" height="62.63671875" xmlns="http://www.w3.org/2000/svg" xmlns:xlink="http://www.w3.org/1999/xlink" xmlns:xml="http://www.w3.org/XML/1998/namespace" version="1.1">
  <g>
    <g>
      <path style="fill:#FF0000;fill-opacity:1" d="M5.859375,0L30.5859375,0 30.5859375,3.63281297683716 20.0390625,3.63281297683716 20.0390625,13.18359375 23.3605937957764,13.83544921875 26.4697265625,15.087890625 29.27490234375,16.8603515625 31.6845703125,19.072265625 33.662109375,21.6833515167236 35.1708984375,24.6533203125 36.126708984375,27.894287109375 36.4453125,31.318359375 36.126708984375,34.7607421875 35.1708984375,37.998046875 33.658447265625,40.95703125 31.669921875,43.564453125 29.2529296875,45.7763671875 26.455078125,47.548828125 23.3569316864014,48.80126953125 20.0390625,49.453125 20.0390625,59.00390625 30.5859375,59.00390625 30.5859375,62.63671875 5.859375,62.63671875 5.859375,59.00390625 16.40625,59.00390625 16.40625,49.453125 13.084716796875,48.804931640625 9.9755859375,47.5634765625 7.17040920257568,45.802001953125 4.7607421875,43.59375 2.783203125,40.982666015625 1.2744140625,38.0126953125 0.318603157997131,34.764404296875 0,31.318359375 0.314941108226776,27.872314453125 1.25976610183716,24.6240234375 2.757568359375,21.6540546417236 4.7314453125,19.04296875 7.14111232757568,16.834716796875 9.9462890625,15.0732421875 13.062744140625,13.831787109375 16.40625,13.18359375 16.40625,3.63281297683716 5.859375,3.63281297683716 5.859375,0z" />
    </g>
  </g>
</svg>