<?xml version="1.0" encoding="utf-8"?>
<!DOCTYPE svg PUBLIC "-//W3C//DTD SVG 1.1//EN" "http://www.w3.org/Graphics/SVG/1.1/DTD/svg11.dtd">
<svg width="37.32421875" height="45.380859375" xmlns="http://www.w3.org/2000/svg" xmlns:xlink="http://www.w3.org/1999/xlink" xmlns:xml="http://www.w3.org/XML/1998/namespace" version="1.1">
  <g>
    <g>
      <path style="fill:#FF0000;fill-opacity:1" d="M30.05859375,18.046875L9.931640625,38.173828125 13.916015625,40.341796875 16.201171875,40.9130859375 18.662109375,41.103515625 21.5734844207764,40.8251953125 24.2724609375,39.990234375 26.693115234375,38.671875 28.76953125,36.943359375 30.465087890625,34.837646484375 31.7431640625,32.3876953125 32.545166015625,29.659423828125 32.8125,26.71875 32.0947265625,22.0458984375 30.05859375,18.046875z M18.662109375,12.36328125L15.732421875,12.6416015625 13.037109375,13.4765625 10.62744140625,14.794921875 8.5546875,16.5234375 6.85912990570068,18.6291522979736 5.5810546875,21.0791015625 4.779052734375,23.8000507354736 4.51171875,26.71875 5.21484375,31.40625 7.236328125,35.419921875 27.36328125,15.29296875 23.37890625,13.125 21.1010723114014,12.5537109375 18.662109375,12.36328125z M34.599609375,8.056640625L37.32421875,10.78125 32.98828125,15.1171875 34.7607421875,17.6293964385986 36.09375,20.419921875 36.9287109375,23.4594745635986 37.20703125,26.71875 36.8408203125,30.43212890625 35.7421875,33.896484375 34.013671875,37.0166015625 31.7578125,39.697265625 29.02587890625,41.898193359375 25.869140625,43.5791015625 22.3828105926514,44.644775390625 18.662109375,45 15.443115234375,44.739990234375 12.4072265625,43.9599609375 9.598388671875,42.711181640625 7.060546875,41.044921875 2.724609375,45.380859375 0,42.65625 4.306640625,38.349609375 2.537841796875,35.833740234375 1.21582078933716,33.0322265625 0.391845405101776,29.981689453125 0.1171875,26.71875 0.483398079872131,23.0090351104736 1.58203125,19.5556640625 3.310546875,16.446533203125 5.56640625,13.76953125 8.29833889007568,11.568603515625 11.455078125,9.8876953125 14.94140625,8.822021484375 18.662109375,8.466796875 21.8591289520264,8.726806640625 24.8876953125,9.5068359375 27.696533203125,10.755615234375 30.234375,12.421875 34.599609375,8.056640625z M5.21484375,0L32.080078125,0 32.080078125,3.75 5.21484375,3.75 5.21484375,0z" />
    </g>
  </g>
</svg>