<?xml version="1.0" encoding="utf-8"?>
<!DOCTYPE svg PUBLIC "-//W3C//DTD SVG 1.1//EN" "http://www.w3.org/Graphics/SVG/1.1/DTD/svg11.dtd">
<svg width="38.84765625" height="51.5625" xmlns="http://www.w3.org/2000/svg" xmlns:xlink="http://www.w3.org/1999/xlink" xmlns:xml="http://www.w3.org/XML/1998/namespace" version="1.1">
  <g>
    <g>
      <path style="fill:#FF0000;fill-opacity:1" d="M20.21484375,19.130859375L6.38671875,25.72265625 6.38671875,25.83984375 20.126953125,32.255859375 19.8193359375,29.1796875 19.716796875,25.986328125 19.833984375,22.5146484375 20.21484375,19.130859375z M28.857421875,0L33.1640625,0 29.14306640625,5.771484375 26.279296875,12.01171875 38.84765625,5.859375 38.84765625,10.25390625 24.90234375,16.904296875 24.2211894989014,21.2841796875 23.994140625,25.927734375 24.1992168426514,30.31494140625 24.814453125,34.453125 38.84765625,40.986328125 38.84765625,45.3515625 26.103515625,39.19921875 28.9892578125,45.64453125 33.10546875,51.5625 28.857421875,51.5625 26.2353496551514,48.2061767578125 24.0527324676514,44.61181640625 22.3095684051514,40.7794189453125 21.005859375,36.708984375 0,26.54296875 0,24.84375 21.181640625,14.501953125 22.4853496551514,10.5853271484375 24.1992168426514,6.86279296875 26.3232402801514,3.3343505859375 28.857421875,0z" />
    </g>
  </g>
</svg>