<?xml version="1.0" encoding="utf-8"?>
<!DOCTYPE svg PUBLIC "-//W3C//DTD SVG 1.1//EN" "http://www.w3.org/Graphics/SVG/1.1/DTD/svg11.dtd">
<svg width="35.0390625" height="35.0390625" xmlns="http://www.w3.org/2000/svg" xmlns:xlink="http://www.w3.org/1999/xlink" xmlns:xml="http://www.w3.org/XML/1998/namespace" version="1.1">
  <g>
    <g>
      <path style="fill:#FF0000;fill-opacity:1" d="M17.51953125,13.4765625L15.948486328125,13.7548828125 14.7509765625,14.58984375 13.992919921875,15.87890625 13.740234375,17.51953125 13.992919921875,19.16015625 14.7509765625,20.44921875 15.948486328125,21.2841796875 17.51953125,21.5625 19.0905742645264,21.2841796875 20.2880859375,20.44921875 21.0461406707764,19.16015625 21.298828125,17.51953125 21.0461406707764,15.87890625 20.2880859375,14.58984375 19.0905742645264,13.7548828125 17.51953125,13.4765625z M17.490234375,9.990234375L20.4345703125,10.5322265625 22.79296875,12.0556640625 24.3603515625,14.443359375 24.931640625,17.548828125 24.3603515625,20.654296875 22.79296875,23.0126953125 20.4345703125,24.521484375 17.490234375,25.048828125 14.560546875,24.521484375 12.216796875,23.0126953125 10.6640625,20.654296875 10.107421875,17.548828125 10.6640625,14.443359375 12.216796875,12.0556640625 14.560546875,10.5322265625 17.490234375,9.990234375z M3.92578125,3.92578125L3.92578125,31.11328125 31.11328125,31.11328125 31.11328125,3.92578125 3.92578125,3.92578125z M0,0L35.0390625,0 35.0390625,35.0390625 0,35.0390625 0,0z" />
    </g>
  </g>
</svg>