<?xml version="1.0" encoding="utf-8"?>
<!DOCTYPE svg PUBLIC "-//W3C//DTD SVG 1.1//EN" "http://www.w3.org/Graphics/SVG/1.1/DTD/svg11.dtd">
<svg width="38.84765625" height="51.5625" xmlns="http://www.w3.org/2000/svg" xmlns:xlink="http://www.w3.org/1999/xlink" xmlns:xml="http://www.w3.org/XML/1998/namespace" version="1.1">
  <g>
    <g>
      <path style="fill:#FF0000;fill-opacity:1" d="M23.14453125,21.298828125L22.9541015625,23.583984375 22.91015625,25.927734375 22.9541015625,28.095703125 23.115234375,30.205078125 32.4609375,25.83984375 32.4609375,25.72265625 23.14453125,21.298828125z M14.091796875,16.962890625L13.41064453125,21.328125 13.18359375,25.927734375 13.388671875,30.31494140625 14.00390625,34.453125 19.013671875,32.109375 18.720703125,29.091796875 18.6328125,25.986328125 18.75,22.6171875 19.1015625,19.365234375 14.091796875,16.962890625z M18.046875,0L22.353515625,0 18.01025390625,6.357421875 15.05859375,13.2421875 19.833984375,15.556640625 21.1212139129639,11.3433837890625 22.8735332489014,7.34619140625 25.0909404754639,3.5650634765625 27.7734375,0 32.080078125,0 29.139404296875,4.00268602371216 26.7626953125,8.24707126617432 24.949951171875,12.7331552505493 23.701171875,17.4609375 38.84765625,24.84375 38.84765625,26.54296875 23.61328125,33.92578125 24.8309326171875,38.697509765625 26.63818359375,43.2275390625 29.0350341796875,47.515869140625 32.021484375,51.5625 27.7734375,51.5625 25.0048809051514,47.99560546875 22.734375,44.208984375 20.9619121551514,40.166015625 19.6875,35.830078125 14.94140625,38.115234375 17.90771484375,45.13916015625 22.294921875,51.5625 18.046875,51.5625 14.0478515625,46.03271484375 11.19140625,39.931640625 0,45.3515625 0,40.986328125 10.078125,36.298828125 9.19921779632568,31.3330078125 8.90625,25.986328125 9.2138671875,20.4052734375 10.1953125,15.1171875 0,10.25390625 0,5.859375 11.3671875,11.42578125 14.1796875,5.44921875 18.046875,0z" />
    </g>
  </g>
</svg>