<?xml version="1.0" encoding="utf-8"?>
<!DOCTYPE svg PUBLIC "-//W3C//DTD SVG 1.1//EN" "http://www.w3.org/Graphics/SVG/1.1/DTD/svg11.dtd">
<svg width="35.9179687500005" height="43.41796875" xmlns="http://www.w3.org/2000/svg" xmlns:xlink="http://www.w3.org/1999/xlink" xmlns:xml="http://www.w3.org/XML/1998/namespace" version="1.1">
  <g>
    <g>
      <path style="fill:#FF0000;fill-opacity:1" d="M12.12890625,0L14.637451171875,0.260009765625 16.9482421875,1.0400390625 20.771484375,3.837890625 23.291015625,7.9248046875 23.9721660614014,10.3234872817993 24.19921875,12.861328125 23.9556865692139,14.7418222427368 23.2250957489014,16.8969745635986 22.0074443817139,19.3267841339111 20.302734375,22.03125 18.61083984375,24.6917724609375 17.40234375,26.98974609375 16.67724609375,28.9251708984375 16.435546875,30.498046875 17.0068359375,33.75 18.57421875,36.416015625 20.91796875,38.232421875 23.84765625,38.90625 26.7626953125,38.232421875 29.091796875,36.416015625 30.64453125,33.75 31.201171875,30.498046875 31.201171875,30.234375 35.91796875,30.234375 35.91796875,30.52734375 35.672607421875,33.160400390625 34.9365234375,35.6103515625 32.28515625,39.697265625 28.4326171875,42.421875 26.195068359375,43.1689453125 23.84765625,43.41796875 21.4526348114014,43.172607421875 19.189453125,42.4365234375 17.13134765625,41.260986328125 15.3515625,39.697265625 12.744140625,35.537109375 12.01904296875,33.017578125 11.77734375,30.263671875 12.015380859375,28.187255859375 12.7294921875,26.0009765625 13.941650390625,23.690185546875 15.673828125,21.240234375 17.3400859832764,18.6932392120361 18.5302715301514,16.4428730010986 19.2443828582764,14.4891366958618 19.482421875,12.83203125 18.9404296875,9.5947265625 17.4169921875,6.9580078125 15.087890625,5.1708984375 12.12890625,4.51171875 9.1552734375,5.1416015625 6.8115234375,6.884765625 5.2734375,9.521484375 4.716796875,12.83203125 4.716796875,13.154296875 0,13.154296875 0,12.861328125 0.245360910892487,10.2062997817993 0.981444835662842,7.7490234375 3.6328125,3.662109375 5.4345703125,2.1240234375 7.5,0.966796875 9.755859375,0.24169921875 12.12890625,0z" />
    </g>
  </g>
</svg>