<?xml version="1.0" encoding="utf-8"?>
<!DOCTYPE svg PUBLIC "-//W3C//DTD SVG 1.1//EN" "http://www.w3.org/Graphics/SVG/1.1/DTD/svg11.dtd">
<svg width="39.111328125" height="42.01171875" xmlns="http://www.w3.org/2000/svg" xmlns:xlink="http://www.w3.org/1999/xlink" xmlns:xml="http://www.w3.org/XML/1998/namespace" version="1.1">
  <g>
    <g>
      <path style="fill:#FF0000;fill-opacity:1" d="M18.427734375,0L23.232421875,0 24.2138671875,6.591796875 25.6494140625,12.0556640625 27.7734375,16.7138671875 30.849609375,20.859375 34.306640625,25.13671875 35.89599609375,27.586669921875 37.5,30.5419921875 38.70849609375,34.105224609375 39.111328125,38.37890625 38.90625,42.01171875 34.1015625,42.01171875 34.21875,39.404296875 34.013671875,35.511474609375 33.3984375,32.7978515625 31.201171875,28.5205078125 29.5825176239014,26.290283203125 27.48046875,23.90625 25.2172832489014,21.214599609375 23.525390625,18.4716796875 21.26953125,12.65625 21.03515625,12.94921875 19.21875,14.7216796875 17.0361328125,16.0986328125 14.6630859375,17.109375 12.3046875,17.783203125 10.283203125,18.017578125 7.4853515625,17.7392578125 4.921875,16.9775390625 2.63671898841858,15.76171875 0.9375,14.0625 0.131836175918579,12.3486328125 0,10.400390625 0.3955078125,7.55859375 1.21582078933716,5.1708984375 2.10937523841858,3.134765625 6.591796875,4.892578125 5.8740234375,6.3720703125 5.126953125,7.9541015625 4.8046875,9.9609375 5.009765625,11.044921875 6.123046875,12.626953125 7.67578125,13.5498046875 8.76708984375,13.8024921417236 10.341796875,13.88671875 12.568359375,13.6083984375 13.828125,13.095703125 16.58203125,11.044921875 18.45703125,8.2470703125 19.1015625,4.248046875 18.93310546875,2.35107421875 18.427734375,0z" />
    </g>
  </g>
</svg>