<?xml version="1.0" encoding="utf-8"?>
<!DOCTYPE svg PUBLIC "-//W3C//DTD SVG 1.1//EN" "http://www.w3.org/Graphics/SVG/1.1/DTD/svg11.dtd">
<svg width="29.5312500000001" height="42.71484375" xmlns="http://www.w3.org/2000/svg" xmlns:xlink="http://www.w3.org/1999/xlink" xmlns:xml="http://www.w3.org/XML/1998/namespace" version="1.1">
  <g>
    <g>
      <path style="fill:#FF0000;fill-opacity:1" d="M0,0L4.921875,0 4.921875,26.953125 5.54443359375,31.93359375 7.412109375,35.625 9.49951171875,37.4267578125 12.12890625,38.4375 12.12890625,25.95703125 17.05078125,25.95703125 17.05078125,38.4375 19.7314434051514,37.39013671875 21.9140625,35.537109375 23.9355449676514,31.77978515625 24.609375,26.8359375 24.609375,25.95703125 29.53125,25.95703125 29.53125,26.66015625 29.2730712890625,30.2325439453125 28.49853515625,33.39111328125 27.2076416015625,36.1358642578125 25.400390625,38.466796875 23.1536846160889,40.3253173828125 20.5444316864014,41.65283203125 17.5726299285889,42.4493408203125 14.23828125,42.71484375 11.0678100585938,42.4566650390625 8.265380859375,41.68212890625 5.83099317550659,40.3912353515625 3.7646484375,38.583984375 2.11761450767517,36.3189697265625 0.941161751747131,33.65478515625 0.235290259122849,30.5914306640625 0,27.12890625 0,0z" />
    </g>
  </g>
</svg>