<?xml version="1.0" encoding="utf-8"?>
<!DOCTYPE svg PUBLIC "-//W3C//DTD SVG 1.1//EN" "http://www.w3.org/Graphics/SVG/1.1/DTD/svg11.dtd">
<svg width="22.9101562500175" height="42.71484375" xmlns="http://www.w3.org/2000/svg" xmlns:xlink="http://www.w3.org/1999/xlink" xmlns:xml="http://www.w3.org/XML/1998/namespace" version="1.1">
  <g>
    <g>
      <path style="fill:#FF0000;fill-opacity:1" d="M12.01171875,0L14.3115234375,0.216064453125 16.40625,0.8642578125 19.8486328125,3.22265625 22.1044921875,6.73828125 22.7087383270264,8.8330078125 22.91015625,11.07421875 22.3828125,15.791015625 20.9326171875,20.44921875 18.75,25.0634765625 16.0546875,29.6484375 13.7548828125,33.1201171875 11.484375,36.298828125 9.1552734375,39.4189453125 6.708984375,42.71484375 1.31835985183716,42.71484375 2.314453125,41.3232421875 4.04296875,38.8623046875 6.1962890625,35.80078125 8.4375,32.5927734375 10.4443359375,29.677734375 11.923828125,27.48046875 13.2861328125,25.3857421875 14.53125,23.3203125 15.615234375,21.15234375 16.5234375,18.75 17.0068359375,17.197265625 17.51953125,15.3515625 17.9150390625,13.388671875 18.076171875,11.484375 17.7978515625,9.228515625 16.81640625,6.796875 14.9267578125,4.8486328125 13.590087890625,4.244384765625 11.953125,4.04296875 9.5068359375,4.365234375 7.2216796875,5.537109375 5.5224609375,7.8662109375 5.028076171875,9.554443359375 4.86328125,11.66015625 4.8779296875,12.7734375 4.98046875,13.9013671875 5.2294921875,15.205078125 5.654296875,16.845703125 0.849609375,16.845703125 0.4248046875,14.9853515625 0.161132335662842,13.5205078125 0.029296875,11.923828125 0,9.66796875 0.252685189247131,7.481689453125 1.0107421875,5.5517578125 3.7060546875,2.51953125 7.55859375,0.64453125 12.01171875,0z" />
    </g>
  </g>
</svg>