<?xml version="1.0" encoding="utf-8"?>
<!DOCTYPE svg PUBLIC "-//W3C//DTD SVG 1.1//EN" "http://www.w3.org/Graphics/SVG/1.1/DTD/svg11.dtd">
<svg width="24.90234375" height="42.01171875" xmlns="http://www.w3.org/2000/svg" xmlns:xlink="http://www.w3.org/1999/xlink" xmlns:xml="http://www.w3.org/XML/1998/namespace" version="1.1">
  <g>
    <g>
      <path style="fill:#FF0000;fill-opacity:1" d="M0,0L4.8046875,0 4.8046875,20.44921875 4.921875,20.44921875 6.83349561691284,17.9626483917236 9.111328125,16.1865253448486 11.75537109375,15.1208505630493 14.765625,14.765625 17.1414184570313,14.9565134048462 19.2004375457764,15.5291757583618 20.9426860809326,16.4836139678955 22.3681621551514,17.8198261260986 23.4768657684326,19.5378131866455 24.2687969207764,21.6375751495361 24.7439575195313,24.1191101074219 24.90234375,26.982421875 24.90234375,37.20703125 20.09765625,37.20703125 20.09765625,28.18359375 19.6618633270264,24.08203125 18.3544902801514,21.15234375 16.1755352020264,19.39453125 13.125,18.80859375 9.8876953125,19.486083984375 7.20703125,21.5185546875 5.4052734375,24.613037109375 4.8046875,28.4765625 4.8046875,42.01171875 0,42.01171875 0,0z" />
    </g>
  </g>
</svg>