<?xml version="1.0" encoding="utf-8"?>
<!DOCTYPE svg PUBLIC "-//W3C//DTD SVG 1.1//EN" "http://www.w3.org/Graphics/SVG/1.1/DTD/svg11.dtd">
<svg width="16.81640625" height="42.01171875" xmlns="http://www.w3.org/2000/svg" xmlns:xlink="http://www.w3.org/1999/xlink" xmlns:xml="http://www.w3.org/XML/1998/namespace" version="1.1">
  <g>
    <g>
      <path style="fill:#FF0000;fill-opacity:1" d="M0,0L4.92187452316284,0 4.92187452316284,7.96875 7.30956888198853,8.214111328125 9.55078125,8.9501953125 13.330078125,11.6162109375 15.87890625,15.5712890625 16.58203125,17.9187030792236 16.81640625,20.419921875 16.58203125,22.921142578125 15.87890625,25.2685546875 13.330078125,29.2236328125 9.55078125,31.8896484375 7.30956888198853,32.625732421875 4.92187452316284,32.87109375 4.92187452316284,42.01171875 0,42.01171875 0,28.828125 4.92187452316284,28.828125 7.64648389816284,28.1689453125 9.873046875,26.3671875 11.3671875,23.6865234375 11.923828125,20.419921875 11.3671875,17.1533203125 9.873046875,14.47265625 7.64648389816284,12.6708984375 4.92187452316284,12.01171875 0,12.01171875 0,0z" />
    </g>
  </g>
</svg>