<?xml version="1.0" encoding="utf-8"?>
<!DOCTYPE svg PUBLIC "-//W3C//DTD SVG 1.1//EN" "http://www.w3.org/Graphics/SVG/1.1/DTD/svg11.dtd">
<svg width="42.861328125" height="48.955078125" xmlns="http://www.w3.org/2000/svg" xmlns:xlink="http://www.w3.org/1999/xlink" xmlns:xml="http://www.w3.org/XML/1998/namespace" version="1.1">
  <g>
    <g>
      <path style="fill:#FF0000;fill-opacity:1" d="M0,41.953125L42.861328125,41.953125 42.861328125,48.955078125 0,48.955078125 0,41.953125z M27.041015625,27.94921875L42.861328125,27.94921875 42.861328125,34.951171875 27.041015625,34.951171875 27.041015625,27.94921875z M0,27.94921875L15.8203125,27.94921875 15.8203125,34.951171875 0,34.951171875 0,27.94921875z M34.921875,13.974609375L42.861328125,13.974609375 42.861328125,20.9765625 34.921875,20.9765625 34.921875,13.974609375z M17.4609375,13.974609375L25.400390625,13.974609375 25.400390625,20.9765625 17.4609375,20.9765625 17.4609375,13.974609375z M0,13.974609375L7.93945264816284,13.974609375 7.93945264816284,20.9765625 0,20.9765625 0,13.974609375z M27.041015625,0L42.861328125,0 42.861328125,7.001953125 27.041015625,7.001953125 27.041015625,0z M0,0L15.8203125,0 15.8203125,7.001953125 0,7.001953125 0,0z" />
    </g>
  </g>
</svg>