<?xml version="1.0" encoding="utf-8"?>
<!DOCTYPE svg PUBLIC "-//W3C//DTD SVG 1.1//EN" "http://www.w3.org/Graphics/SVG/1.1/DTD/svg11.dtd">
<svg width="29.384765625" height="52.734375" xmlns="http://www.w3.org/2000/svg" xmlns:xlink="http://www.w3.org/1999/xlink" xmlns:xml="http://www.w3.org/XML/1998/namespace" version="1.1">
  <g>
    <g>
      <path style="fill:#FF0000;fill-opacity:1" d="M0.0585932731628418,0L5.625,0 7.79296875,6.1083984375 9.2138671875,12.0556640625 9.990234375,17.9443359375 10.224609375,23.90625 9.84375,30.9228515625 8.9208984375,37.20703125 7.763671875,42.2607421875 7.177734375,44.190673828125 6.650390625,45.615234375 10.4443359375,43.9306640625 14.4287109375,40.9716796875 18.193359375,36.7236328125 21.357421875,31.1572265625 23.5546875,24.228515625 24.1699199676514,20.2441425323486 24.375,15.908203125 24.375,0 29.384765625,0 29.384765625,15.908203125 29.132080078125,21.0241718292236 28.3740234375,25.7666015625 27.1472148895264,30.135498046875 25.48828125,34.130859375 23.4191875457764,37.7490234375 20.9619140625,40.986328125 15.0439453125,46.34765625 7.9833984375,50.2587890625 0,52.734375 2.22290015220642,45.677490234375 3.85253882408142,38.6279296875 4.85229444503784,31.497802734375 5.185546875,24.19921875 4.951171875,18.193359375 4.130859375,12.1875 2.54882788658142,6.1376953125 0.0585932731628418,0z" />
    </g>
  </g>
</svg>