<?xml version="1.0" encoding="utf-8"?>
<!DOCTYPE svg PUBLIC "-//W3C//DTD SVG 1.1//EN" "http://www.w3.org/Graphics/SVG/1.1/DTD/svg11.dtd">
<svg width="52.734375" height="52.734375" xmlns="http://www.w3.org/2000/svg" xmlns:xlink="http://www.w3.org/1999/xlink" xmlns:xml="http://www.w3.org/XML/1998/namespace" version="1.1">
  <g>
    <g>
      <path style="fill:#FF0000;fill-opacity:1" d="M47.75390625,4.98046875L36.123046875,8.173828125 47.75390625,31.40625 47.75390625,4.98046875z M0,0L4.98046827316284,0 4.98046827316284,37.001953125 21.4453125,45.3515625 27.041015625,38.14453125 22.177734375,33.6474609375 18.3251953125,29.70703125 15.4248046875,26.0595703125 13.41796875,22.4560546875 12.24609375,18.6474609375 11.865234375,14.4140625 12.0739736557007,11.53564453125 12.7001953125,8.935546875 15.1171875,4.7314453125 16.88232421875,3.18603515625 19.013671875,2.0361328125 21.4965801239014,1.322021484375 24.31640625,1.083984375 27.2021465301514,1.256103515625 29.58984375,1.77246046066284 33.3984375,3.662109375 47.40234375,0 52.734375,0 52.734375,52.734375 32.2265625,11.71875 30.62255859375,9.144287109375 28.798828125,7.3974609375 26.7114238739014,6.397705078125 24.31640625,6.064453125 21.0791015625,6.6943359375 18.75,8.4521484375 17.34375,11.103515625 16.875,14.4140625 17.5634765625,18.9404296875 18.475341796875,21.0351581573486 19.833984375,23.1884765625 21.6613750457764,25.45166015625 23.9794921875,27.8759765625 26.8395977020264,30.582275390625 30.29296875,33.69140625 34.453125,37.353515625 22.91015625,52.265625 4.98046827316284,43.212890625 4.98046827316284,52.734375 0,52.734375 0,0z" />
    </g>
  </g>
</svg>