<?xml version="1.0" encoding="utf-8"?>
<!DOCTYPE svg PUBLIC "-//W3C//DTD SVG 1.1//EN" "http://www.w3.org/Graphics/SVG/1.1/DTD/svg11.dtd">
<svg width="41.484375" height="52.734375" xmlns="http://www.w3.org/2000/svg" xmlns:xlink="http://www.w3.org/1999/xlink" xmlns:xml="http://www.w3.org/XML/1998/namespace" version="1.1">
  <g>
    <g>
      <path style="fill:#FF0000;fill-opacity:1" d="M0,0L4.98046875,0 4.98046875,23.876953125 17.666015625,23.876953125 15.5859375,22.1484375 13.6669921875,19.599609375 12.2607421875,16.318359375 11.71875,12.421875 11.9421377182007,9.80712890625 12.6123046875,7.412109375 13.721923828125,5.2880859375 15.263671875,3.48632860183716 17.2412109375,2.025146484375 19.658203125,0.9228515625 22.5146465301514,0.230712890625 25.810546875,0 28.916015625,0.29296875 31.435546875,0.99609375 33.3984375,1.845703125 34.86328125,2.578125 35.9765625,1.552734375 37.353515625,0.732422351837158 38.8916015625,0.190430164337158 40.458984375,0 41.484375,0 41.484375,4.98046875 40.634765625,4.98046875 39.0673828125,5.2001953125 37.5146484375,5.8154296875 36.1083984375,6.73828125 35.009765625,7.880859375 32.40234375,6.416015625 29.58984375,5.419921875 26.220703125,4.98046875 23.8146953582764,5.1123046875 21.8115234375,5.5078125 18.8818359375,7.0458984375 17.2412109375,9.55078125 16.728515625,13.0078125 17.34375,16.5966796875 18.9697265625,19.6728515625 21.298828125,22.1337890625 24.0234375,23.876953125 41.015625,23.876953125 41.015625,28.857421875 4.98046875,28.857421875 4.98046875,47.75390625 41.015625,47.75390625 41.015625,52.734375 0,52.734375 0,0z" />
    </g>
  </g>
</svg>