<?xml version="1.0" encoding="utf-8"?>
<!DOCTYPE svg PUBLIC "-//W3C//DTD SVG 1.1//EN" "http://www.w3.org/Graphics/SVG/1.1/DTD/svg11.dtd">
<svg width="41.015625" height="52.734375" xmlns="http://www.w3.org/2000/svg" xmlns:xlink="http://www.w3.org/1999/xlink" xmlns:xml="http://www.w3.org/XML/1998/namespace" version="1.1">
  <g>
    <g>
      <path style="fill:#FF0000;fill-opacity:1" d="M26.8359375,4.98046875L22.8662109375,5.6982421875 19.921875,7.646484375 18.10546875,10.48828125 17.490234375,13.857421875 17.841796875,16.93359375 19.04296875,20.21484375 21.298828125,23.96484375 24.814453125,28.4765625 27.421875,31.552734375 30.5859375,28.65234375 33.33984375,25.048828125 35.2880859375,20.625 36.03515625,15.263671875 35.3466796875,10.810546875 33.4423828125,7.587890625 30.5419921875,5.6396484375 26.8359375,4.98046875z M0,0L4.98046875,0 4.98046875,47.75390625 34.74609375,47.75390625 20.21484375,30.498046875 16.8896484375,26.25 14.4580078125,22.236328125 12.978515625,18.193359375 12.48046875,13.857421875 12.7441396713257,11.048583984375 13.53515625,8.4228515625 14.798583984375,6.05712890625 16.4794921875,4.0283203125 18.5595703125,2.362060546875 21.0205078125,1.083984375 23.8000469207764,0.27099609375 26.8359375,0 30.06591796875,0.311279296875 32.900390625,1.2451171875 35.328369140625,2.706298828125 37.3388671875,4.599609375 38.924560546875,6.8701171875 40.078125,9.462890625 40.78125,12.28271484375 41.015625,15.234375 40.7958984375,18.5375995635986 40.13671875,21.591796875 37.7783203125,26.9677734375 34.3505859375,31.40625 30.29296875,34.98046875 41.015625,47.724609375 40.986328125,47.75390625 41.015625,47.75390625 41.015625,52.734375 0,52.734375 0,0z" />
    </g>
  </g>
</svg>