<?xml version="1.0" encoding="utf-8"?>
<!DOCTYPE svg PUBLIC "-//W3C//DTD SVG 1.1//EN" "http://www.w3.org/Graphics/SVG/1.1/DTD/svg11.dtd">
<svg width="34.74609375" height="43.41796875" xmlns="http://www.w3.org/2000/svg" xmlns:xlink="http://www.w3.org/1999/xlink" xmlns:xml="http://www.w3.org/XML/1998/namespace" version="1.1">
  <g>
    <g>
      <path style="fill:#FF0000;fill-opacity:1" d="M20.91796875,0L27.0043926239014,0.556640625 32.138671875,2.2265625 32.138671875,7.67578125 29.4909648895264,6.265869140625 26.6455059051514,5.2587890625 23.6022930145264,4.654541015625 20.361328125,4.453125 16.9244384765625,4.7735595703125 13.87939453125,5.73486328125 11.2261962890625,7.3370361328125 8.96484375,9.580078125 7.298583984375,12.1307382583618 6.1083984375,15.0366230010986 5.394287109375,18.2977313995361 5.15625047683716,21.9140625 5.3814697265625,25.5780029296875 6.05712890625,28.83544921875 7.1832275390625,31.6864013671875 8.759765625,34.130859375 10.9423828125,36.258544921875 13.564453125,37.7783203125 16.6259765625,38.690185546875 20.126953125,38.994140625 23.0639629364014,38.701171875 25.8984375,37.822265625 28.1396465301514,36.67236328125 29.82421875,35.2734375 29.82421875,25.25390625 34.74609375,25.25390625 34.74609375,42.71484375 29.82421875,42.71484375 29.82421875,40.83984375 24.7998027801514,42.7734375 19.51171875,43.41796875 15.157470703125,43.0426025390625 11.2939453125,41.91650390625 7.92114210128784,40.0396728515625 5.0390625,37.412109375 2.83447265625,34.3231201171875 1.259765625,30.76904296875 0.31494140625,26.7498779296875 0,22.265625 0.3497314453125,17.60009765625 1.39892578125,13.3886728286743 3.1475830078125,9.63134765625 5.595703125,6.328125 8.7176513671875,3.5595703125 12.31201171875,1.58203125 16.3787841796875,0.3955078125 20.91796875,0z" />
    </g>
  </g>
</svg>