<?xml version="1.0" encoding="utf-8"?>
<!DOCTYPE svg PUBLIC "-//W3C//DTD SVG 1.1//EN" "http://www.w3.org/Graphics/SVG/1.1/DTD/svg11.dtd">
<svg width="37.08984375" height="42.71484375" xmlns="http://www.w3.org/2000/svg" xmlns:xlink="http://www.w3.org/1999/xlink" xmlns:xml="http://www.w3.org/XML/1998/namespace" version="1.1">
  <g>
    <g>
      <path style="fill:#FF0000;fill-opacity:1" d="M21.005859375,4.658203125L21.005859375,29.53125 25.3344707489014,28.1689453125 28.76953125,25.546875 30.15380859375,23.7322998046875 31.142578125,21.71630859375 31.73583984375,19.4989013671875 31.93359375,17.080078125 31.73583984375,14.6740732192993 31.142578125,12.4658222198486 30.15380859375,10.4553232192993 28.76953125,8.642578125 25.3198223114014,6.03515625 21.005859375,4.658203125z M16.083984375,4.62890625L11.7553701400757,5.9912109375 8.3203125,8.61328125 6.93603515625,10.4278573989868 5.94726514816284,12.4438495635986 5.35400295257568,14.6612558364868 5.15624904632568,17.080078125 5.35400295257568,19.4732666015625 5.94726514816284,21.67236328125 6.93603515625,23.6773681640625 8.3203125,25.48828125 11.7700185775757,28.11767578125 16.083984375,29.501953125 16.083984375,4.62890625z M18.603515625,0L22.2894268035889,0.2783203125 25.6713848114014,1.11328125 28.7493877410889,2.5048828125 31.5234375,4.453125 33.958740234375,7.00927782058716 35.6982421875,9.93164157867432 36.741943359375,13.2202157974243 37.08984375,16.875 36.7950439453125,20.2020263671875 35.91064453125,23.26904296875 34.4366455078125,26.0760498046875 32.373046875,28.623046875 29.9597148895264,30.7196044921875 27.2607402801514,32.32177734375 24.2761211395264,33.4295654296875 21.005859375,34.04296875 21.005859375,42.71484375 16.083984375,42.71484375 16.083984375,34.04296875 12.7789306640625,33.4808349609375 9.77783203125,32.43896484375 7.0806884765625,30.9173583984375 4.6875,28.916015625 2.63671851158142,26.429443359375 1.17187476158142,23.6572265625 0.29296863079071,20.599365234375 0,17.255859375 0.35156238079071,13.6138925552368 1.40624976158142,10.3051767349243 3.16406226158142,7.32971239089966 5.625,4.6875 8.4466552734375,2.63671875 11.55029296875,1.171875 14.9359130859375,0.29296875 18.603515625,0z" />
    </g>
  </g>
</svg>