<?xml version="1.0" encoding="utf-8"?>
<!DOCTYPE svg PUBLIC "-//W3C//DTD SVG 1.1//EN" "http://www.w3.org/Graphics/SVG/1.1/DTD/svg11.dtd">
<svg width="39.7265625" height="50.859375" xmlns="http://www.w3.org/2000/svg" xmlns:xlink="http://www.w3.org/1999/xlink" xmlns:xml="http://www.w3.org/XML/1998/namespace" version="1.1">
  <g>
    <g>
      <path style="fill:#FF0000;fill-opacity:1" d="M20.0390625,4.453125L16.6827392578125,4.7808837890625 13.70361328125,5.76416015625 11.1016845703125,7.4029541015625 8.876953125,9.697265625 7.2491455078125,12.2424325942993 6.08642578125,15.1025409698486 5.3887939453125,18.2775897979736 5.15625,21.767578125 5.3814697265625,25.206298828125 6.05712890625,28.3447265625 7.1832275390625,31.182861328125 8.759765625,33.720703125 10.9368896484375,36.02783203125 13.48388671875,37.67578125 16.4007568359375,38.66455078125 19.6875,38.994140625 23.1628398895264,38.682861328125 26.2060527801514,37.7490234375 28.8171367645264,36.192626953125 30.99609375,34.013671875 32.559814453125,31.5509033203125 33.6767578125,28.70361328125 34.346923828125,25.4718017578125 34.5703125,21.85546875 34.3597412109375,18.2226581573486 33.72802734375,14.9707050323486 32.6751708984375,12.0996103286743 31.201171875,9.609375 29.0863018035889,7.353515625 26.5209941864014,5.7421875 23.5052471160889,4.775390625 20.0390625,4.453125z M20.390625,0L24.6807861328125,0.384521484375 28.49853515625,1.5380859375 31.8438720703125,3.460693359375 34.716796875,6.15234375 36.9085693359375,9.2779541015625 38.47412109375,12.8247079849243 39.4134521484375,16.7926025390625 39.7265625,21.181640625 39.385986328125,26.0540771484375 38.3642578125,30.38818359375 36.661376953125,34.1839599609375 34.27734375,37.44140625 32.2705078125,39.4921875 31.534423828125,40.68603515625 31.2890625,42.158203125 31.70654296875,44.1064453125 32.958984375,45.615234375 34.56298828125,46.494140625 36.4453125,46.787109375 38.14453125,46.56005859375 39.7265625,45.87890625 39.7265625,50.185546875 36.4453125,50.859375 32.7685546875,50.26611328125 29.70703125,48.486328125 27.5610332489014,45.7177734375 26.806640625,42.333984375 23.4155254364014,43.14697265625 19.6875,43.41796875 15.3515625,43.0352783203125 11.484375,41.88720703125 8.0859375,39.9737548828125 5.15625,37.294921875 2.900390625,34.1656494140625 1.2890625,30.60791015625 0.322265625,26.6217041015625 0,22.20703125 0.3240966796875,17.51220703125 1.29638671875,13.3007822036743 2.9168701171875,9.57275390625 5.185546875,6.328125 8.1903076171875,3.5595703125 11.72607421875,1.58203125 15.7928466796875,0.3955078125 20.390625,0z" />
    </g>
  </g>
</svg>