<?xml version="1.0" encoding="utf-8"?>
<!DOCTYPE svg PUBLIC "-//W3C//DTD SVG 1.1//EN" "http://www.w3.org/Graphics/SVG/1.1/DTD/svg11.dtd">
<svg width="26.748046875" height="59.1796875" xmlns="http://www.w3.org/2000/svg" xmlns:xlink="http://www.w3.org/1999/xlink" xmlns:xml="http://www.w3.org/XML/1998/namespace" version="1.1">
  <g>
    <g>
      <path style="fill:#FF0000;fill-opacity:1" d="M14.12109375,0L18.83056640625,0.63720703125 22.763671875,2.548828125 24.5068340301514,4.1107177734375 25.7519512176514,5.92529296875 26.4990215301514,7.9925537109375 26.748046875,10.3125 26.4624004364014,13.0004892349243 25.60546875,15.439453125 21.005859375,13.828125 21.6650371551514,12.1142578125 21.884765625,10.1953125 21.2695293426514,7.5146484375 19.423828125,5.5078125 17.01416015625,4.4091796875 14.12109375,4.04296875 11.2060537338257,4.4091796875 8.7890625,5.5078125 6.92138671875,7.5146484375 6.298828125,10.1953125 6.6064453125,12.2808847427368 7.529296875,14.0844745635986 9.0673828125,15.6060800552368 11.220703125,16.845703125 20.361328125,20.126953125 22.5146465301514,21.4031982421875 24.0527324676514,22.97607421875 24.9755840301514,24.8455810546875 25.283203125,27.01171875 24.7833232879639,30.2252197265625 23.2836894989014,32.74658203125 20.7842998504639,34.5758056640625 17.28515625,35.712890625 17.28515625,35.830078125 21.1413555145264,36.81884765625 24.1552734375,38.96484375 26.0998516082764,42.099609375 26.748046875,46.0546875 26.4880352020264,48.9715576171875 25.7080059051514,51.56982421875 24.4079570770264,53.8494873046875 22.587890625,55.810546875 20.504150390625,57.2845458984375 18.1494140625,58.33740234375 15.523681640625,58.9691162109375 12.626953125,59.1796875 7.97607421875,58.46923828125 3.98437571525574,56.337890625 2.24121141433716,54.6697998046875 0.996093988418579,52.77099609375 0.249023586511612,50.6414794921875 0,48.28125 0.300293177366257,45.65185546875 1.20117211341858,43.154296875 5.68359375,44.765625 5.068359375,46.4208984375 4.86328125,48.3984375 5.48583984375,51.1669921875 7.353515625,53.37890625 9.82910060882568,54.697265625 12.685546875,55.13671875 16.29638671875,54.580078125 19.16015625,52.91015625 21.1596660614014,50.13427734375 21.826171875,46.494140625 21.0827617645264,42.88330078125 18.8525390625,40.1953125 15.333251953125,38.525390625 10.72265625,37.96875 9.873046875,37.96875 9.873046875,33.896484375 10.546875,33.896484375 14.8406982421875,33.4991455078125 17.90771484375,32.30712890625 19.7479248046875,30.3204345703125 20.361328125,27.5390625 20.0555419921875,26.231689453125 19.13818359375,25.0341796875 17.6092529296875,23.946533203125 15.46875,22.96875 11.93115234375,21.6137714385986 9.228515625,20.5371112823486 7.36083984375,19.7387714385986 6.328125,19.21875 4.1876220703125,17.4975605010986 2.65869164466858,15.4394550323486 1.7413330078125,13.0444345474243 1.43554663658142,10.3125 1.6864013671875,7.9815673828125 2.43896508216858,5.91064453125 3.69323754310608,4.0997314453125 5.44921875,2.548828125 9.3896484375,0.63720703125 14.12109375,0z" />
    </g>
  </g>
</svg>