<?xml version="1.0" encoding="utf-8"?>
<!DOCTYPE svg PUBLIC "-//W3C//DTD SVG 1.1//EN" "http://www.w3.org/Graphics/SVG/1.1/DTD/svg11.dtd">
<svg width="26.7480468750001" height="44.82421875" xmlns="http://www.w3.org/2000/svg" xmlns:xlink="http://www.w3.org/1999/xlink" xmlns:xml="http://www.w3.org/XML/1998/namespace" version="1.1">
  <g>
    <g>
      <path style="fill:#FF0000;fill-opacity:1" d="M14.8828125,0L19.365234375,0.6298828125 23.14453125,2.5341796875 25.7666015625,5.7568359375 26.5026836395264,7.869873046875 26.748046875,10.3125 26.748046875,31.69921875 26.4770488739014,34.6142578125 25.6640625,37.20703125 24.3786602020264,39.45556640625 22.6904296875,41.337890625 20.625,42.835693359375 18.2080078125,43.9306640625 15.516357421875,44.600830078125 12.626953125,44.82421875 10.2575674057007,44.6337890625 7.9541015625,44.0625 3.91113257408142,41.89453125 1.06933569908142,38.466796875 0.267333775758743,36.32080078125 0,33.92578125 0.300292760133743,31.31103515625 1.20117163658142,28.798828125 5.68359375,30.41015625 5.06835842132568,32.05078125 4.86328125,34.04296875 5.537109375,36.8408203125 7.3095703125,38.96484375 9.814453125,40.3125 12.685546875,40.78125 16.34765625,40.1953125 19.2919921875,38.4814453125 21.240234375,35.7568359375 21.943359375,32.138671875 21.943359375,11.455078125 21.4746074676514,8.316650390625 20.068359375,5.9912109375 17.83447265625,4.55200338363647 14.8828125,4.072265625 12.2021484375,4.4384765625 10.107421875,5.56640625 8.73046875,7.5146484375 8.232421875,10.3125 3.36914038658142,10.3125 3.59619092941284,7.965087890625 4.27734375,5.9033203125 6.7529296875,2.666015625 10.4150390625,0.673828125 14.8828125,0z" />
    </g>
  </g>
</svg>