<?xml version="1.0" encoding="utf-8"?>
<!DOCTYPE svg PUBLIC "-//W3C//DTD SVG 1.1//EN" "http://www.w3.org/Graphics/SVG/1.1/DTD/svg11.dtd">
<svg width="51.796875" height="59.1796875" xmlns="http://www.w3.org/2000/svg" xmlns:xlink="http://www.w3.org/1999/xlink" xmlns:xml="http://www.w3.org/XML/1998/namespace" version="1.1">
  <g>
    <g>
      <path style="fill:#FF0000;fill-opacity:1" d="M37.79296875,20.15625L35.4876708984375,20.3558368682861 33.49365234375,20.9545917510986 31.8109130859375,21.9525165557861 30.439453125,23.349609375 28.8793926239014,26.59423828125 28.359375,30.8203125 28.9013652801514,35.01708984375 30.52734375,38.349609375 31.915283203125,39.8236083984375 33.5888671875,40.87646484375 35.548095703125,41.5081787109375 37.79296875,41.71875 41.7663536071777,41.0302734375 44.6044883728027,38.96484375 46.3073692321777,35.5224609375 46.875,30.703125 46.3073692321777,26.0888690948486 44.6044883728027,22.7929706573486 41.7663536071777,20.8154315948486 37.79296875,20.15625z M14.00390625,20.15625L10.030517578125,20.8154315948486 7.19238328933716,22.7929706573486 5.48950242996216,26.0888690948486 4.92187595367432,30.703125 5.48950242996216,35.5224609375 7.19238328933716,38.96484375 10.030517578125,41.0302734375 14.00390625,41.71875 16.2249755859375,41.5118408203125 18.17138671875,40.89111328125 19.8431396484375,39.8565673828125 21.240234375,38.408203125 22.8881816864014,35.07568359375 23.4375,30.8203125 22.9174785614014,26.59423828125 21.357421875,23.349609375 19.9859619140625,21.9525165557861 18.30322265625,20.9545917510986 16.3092041015625,20.3558368682861 14.00390625,20.15625z M18.69140625,0L22.6025371551514,0.73974609375 25.72265625,2.958984375 27.7001934051514,6.20361328125 28.359375,10.1953125 28.359375,19.599609375 30.465087890625,18.0743427276611 32.7978515625,16.9848651885986 35.357666015625,16.3311786651611 38.14453125,16.11328125 41.3671875,16.3714618682861 44.1796875,17.1459980010986 46.58203125,18.4368915557861 48.57421875,20.244140625 49.9841270446777,22.2930908203125 50.9912071228027,24.68994140625 51.5954551696777,27.4346923828125 51.796875,30.52734375 51.5716514587402,33.731689453125 50.8959922790527,36.6064453125 49.7698936462402,39.151611328125 48.193359375,41.3671875 46.0711669921875,43.289794921875 43.57177734375,44.6630859375 40.6951904296875,45.487060546875 37.44140625,45.76171875 32.4169921875,45.03662109375 28.359375,42.861328125 28.359375,48.75 28.67431640625,51.5313720703125 29.619140625,53.51806640625 31.19384765625,54.7100830078125 33.3984375,55.107421875 35.09033203125,54.90966796875 36.591796875,54.31640625 36.591796875,58.65234375 35.07568359375,59.0478515625 33.10546875,59.1796875 29.1943359375,58.43994140625 26.07421875,56.220703125 24.0966777801514,52.97607421875 23.4375,48.984375 23.4375,42.861328125 19.3798828125,45.03662109375 14.35546875,45.76171875 11.1016845703125,45.487060546875 8.22509765625,44.6630859375 5.72570848464966,43.289794921875 3.60351610183716,41.3671875 2.02697801589966,39.151611328125 0.900879323482513,36.6064453125 0.225219994783401,33.731689453125 0,30.52734375 0.201416298747063,27.4346923828125 0.805664539337158,24.68994140625 1.81274485588074,22.2930908203125 3.22265720367432,20.244140625 5.21484422683716,18.4368915557861 7.61718797683716,17.1459980010986 10.4296875,16.3714618682861 13.65234375,16.11328125 16.439208984375,16.3311786651611 18.9990234375,16.9848651885986 21.331787109375,18.0743427276611 23.4375,19.599609375 23.4375,10.4296875 23.1225566864014,7.6483154296875 22.1777324676514,5.66162109375 20.6030254364014,4.4696044921875 18.3984375,4.072265625 16.70654296875,4.27001953125 15.205078125,4.86328125 15.205078125,0.52734375 16.72119140625,0.1318359375 18.69140625,0z" />
    </g>
  </g>
</svg>