<?xml version="1.0" encoding="utf-8"?>
<!DOCTYPE svg PUBLIC "-//W3C//DTD SVG 1.1//EN" "http://www.w3.org/Graphics/SVG/1.1/DTD/svg11.dtd">
<svg width="31.875" height="45.76171875" xmlns="http://www.w3.org/2000/svg" xmlns:xlink="http://www.w3.org/1999/xlink" xmlns:xml="http://www.w3.org/XML/1998/namespace" version="1.1">
  <g>
    <g>
      <path style="fill:#FF0000;fill-opacity:1" d="M12.36328125,29.6484375L9.638671875,30.0146484375 7.3828125,31.11328125 5.712890625,33.06884765625 5.15625,35.595703125 5.5682373046875,38.10791015625 6.80419921875,39.90234375 8.8641357421875,40.97900390625 11.748046875,41.337890625 14.47998046875,40.86181640625 16.5234375,39.43359375 17.75390625,37.3095703125 18.1640625,34.5703125 18.1640625,29.6484375 12.36328125,29.6484375z M11.748046875,4.423828125L8.8641357421875,4.78271484375 6.80419921875,5.859375 5.5682373046875,7.65380859375 5.15625,10.166015625 5.712890625,12.6928720474243 7.3828125,14.6484375 9.638671875,15.7470722198486 12.36328125,16.11328125 18.1640625,16.11328125 18.1640625,11.19140625 17.74658203125,8.441162109375 16.494140625,6.2841796875 14.47265625,4.888916015625 11.748046875,4.423828125z M11.748046875,0L16.497802734375,0.736083984375 20.0830078125,2.9443359375 21.3967876434326,4.56390380859375 22.3352031707764,6.478271484375 22.8982524871826,8.68743896484375 23.0859375,11.19140625 23.0859375,16.11328125 31.875,16.11328125 31.875,20.56640625 23.0859375,20.56640625 23.0859375,25.1953125 31.875,25.1953125 31.875,29.6484375 23.0859375,29.6484375 23.0859375,34.5703125 22.8982524871826,37.0742797851563 22.3352031707764,39.283447265625 21.3967876434326,41.1978149414063 20.0830078125,42.8173828125 16.497802734375,45.025634765625 11.748046875,45.76171875 6.9873046875,45.12451171875 3.31054639816284,43.212890625 1.86218237876892,41.72607421875 0.827636659145355,39.9609375 0.2069091796875,37.91748046875 0,35.595703125 0.2362060546875,33.2281494140625 0.94482421875,31.13525390625 2.1258544921875,29.3170166015625 3.779296875,27.7734375 7.62451171875,25.83984375 12.36328125,25.1953125 18.1640625,25.1953125 18.1640625,20.56640625 12.36328125,20.56640625 7.62451171875,19.9218769073486 3.779296875,17.98828125 2.1258544921875,16.4447040557861 0.94482421875,14.6264667510986 0.2362060546875,12.5335702896118 0,10.166015625 0.2069091796875,7.84423828125 0.827636659145355,5.80078125 1.86218237876892,4.03564453125 3.31054639816284,2.548828125 6.9873046875,0.63720703125 11.748046875,0z" />
    </g>
  </g>
</svg>