<?xml version="1.0" encoding="utf-8"?>
<!DOCTYPE svg PUBLIC "-//W3C//DTD SVG 1.1//EN" "http://www.w3.org/Graphics/SVG/1.1/DTD/svg11.dtd">
<svg width="27.71484375" height="44.12109375" xmlns="http://www.w3.org/2000/svg" xmlns:xlink="http://www.w3.org/1999/xlink" xmlns:xml="http://www.w3.org/XML/1998/namespace" version="1.1">
  <g>
    <g>
      <path style="fill:#FF0000;fill-opacity:1" d="M25.37109375,0L27.71484375,0 27.71484375,30.99609375 27.4548320770264,33.9129638671875 26.6748027801514,36.51123046875 25.3747539520264,38.7908935546875 23.5546875,40.751953125 21.470947265625,42.2259521484375 19.1162109375,43.27880859375 16.490478515625,43.9105224609375 13.59375,44.12109375 8.94287109375,43.41064453125 4.95117092132568,41.279296875 3.20800733566284,39.6112060546875 1.96289038658142,37.71240234375 1.21582019329071,35.5828857421875 0.966796875,33.22265625 1.26708972454071,30.59326171875 2.16796898841858,28.095703125 6.650390625,29.70703125 6.03515529632568,31.3623046875 5.83007717132568,33.33984375 6.45263624191284,36.1083984375 8.3203125,38.3203125 10.7958974838257,39.638671875 13.65234375,40.078125 17.27783203125,39.521484375 20.185546875,37.8515625 22.2290019989014,35.06103515625 22.91015625,31.435546875 22.91015625,7.20703125 19.5703125,8.51806640625 15.1171875,9.111328125 16.50146484375,11.47705078125 16.962890625,14.23828125 16.44287109375,17.347412109375 14.8828125,19.8193359375 12.1874990463257,21.434326171875 8.26171875,21.97265625 5.009765625,21.4508056640625 2.54882788658142,19.88525390625 0.87890613079071,17.2760009765625 0,13.623046875 4.01367092132568,12.509765625 4.53185939788818,14.8809814453125 5.41259670257568,16.57470703125 6.65588331222534,17.5909423828125 8.26171875,17.9296875 10.1660146713257,17.669677734375 11.42578125,16.8896484375 12.1289052963257,15.589599609375 12.36328125,13.76953125 12.1600332260132,12.2882080078125 11.5502920150757,10.97900390625 10.5340566635132,9.8419189453125 9.111328125,8.876953125 10.72265625,5.068359375 15.2197265625,4.84131002426147 18.6328125,4.16015625 22.001953125,2.59277486801147 25.37109375,0z" />
    </g>
  </g>
</svg>