<?xml version="1.0" encoding="utf-8"?>
<!DOCTYPE svg PUBLIC "-//W3C//DTD SVG 1.1//EN" "http://www.w3.org/Graphics/SVG/1.1/DTD/svg11.dtd">
<svg width="32.51953125" height="44.82421875" xmlns="http://www.w3.org/2000/svg" xmlns:xlink="http://www.w3.org/1999/xlink" xmlns:xml="http://www.w3.org/XML/1998/namespace" version="1.1">
  <g>
    <g>
      <path style="fill:#FF0000;fill-opacity:1" d="M16.5234375,0L19.610595703125,0.270997524261475 22.3681640625,1.083984375 24.7631816864014,2.40234518051147 26.7626953125,4.189453125 28.3557109832764,6.41601705551147 29.53125,9.052734375 30.25634765625,12.06298828125 30.498046875,15.41015625 30.3515625,17.6953125 30.1025390625,19.24072265625 29.6484375,21.650390625 25.048828125,20.0390625 25.3344707489014,18.37646484375 25.48828125,17.255859375 25.576171875,15.380859375 24.9462890625,10.7666015625 23.115234375,7.177734375 20.1708984375,4.86328125 18.299560546875,4.24804830551147 16.171875,4.04296875 13.77685546875,4.25903463363647 11.689453125,4.9072265625 8.466796875,7.294921875 6.51855421066284,10.927734375 5.85937452316284,15.498046875 6.10473585128784,19.010009765625 6.84081983566284,21.9873046875 8.060302734375,24.539794921875 9.755859375,26.77734375 11.9238271713257,28.751220703125 14.560546875,30.5126953125 17.65869140625,32.171630859375 21.2109375,33.837890625 24.3896484375,35.4345703125 27.216796875,37.177734375 29.8681640625,39.08203125 32.51953125,41.162109375 29.47265625,44.82421875 24.931640625,41.6015625 20.419921875,39.3017578125 15.732421875,37.91015625 10.634765625,37.44140625 7.60803174972534,37.672119140625 4.82665967941284,38.3642578125 2.29064893722534,39.517822265625 0,41.1328125 0,36.2109375 5.09765577316284,34.0576171875 11.044921875,33.33984375 6.70532178878784,30.1611328125 3.53027296066284,26.1328125 1.58569300174713,21.3134765625 0.93749988079071,15.76171875 1.20483374595642,12.308349609375 2.0068359375,9.2138671875 3.31054639816284,6.51489400863647 5.08300733566284,4.248046875 7.3095703125,2.43530416488647 9.9755859375,1.0986328125 13.0554189682007,0.274659633636475 16.5234375,0z" />
    </g>
  </g>
</svg>