<?xml version="1.0" encoding="utf-8"?>
<!DOCTYPE svg PUBLIC "-//W3C//DTD SVG 1.1//EN" "http://www.w3.org/Graphics/SVG/1.1/DTD/svg11.dtd">
<svg width="40.72265625" height="44.82421875" xmlns="http://www.w3.org/2000/svg" xmlns:xlink="http://www.w3.org/1999/xlink" xmlns:xml="http://www.w3.org/XML/1998/namespace" version="1.1">
  <g>
    <g>
      <path style="fill:#FF0000;fill-opacity:1" d="M12.0703125,0L14.765625,0.439453125 17.2412109375,1.6845703125 19.3212890625,3.6181640625 20.859375,6.123046875 22.3974609375,3.6181640625 24.4775390625,1.6845703125 26.9384765625,0.439453125 29.58984375,0 31.97021484375,0.227052211761475 34.130859375,0.908203125 36.03515625,2.04712057113647 37.646484375,3.6474609375 38.946533203125,5.70556783676147 39.9169921875,8.2177734375 40.521240234375,11.180419921875 40.72265625,14.58984375 40.60546875,17.0654296875 40.2685546875,19.6435546875 39.7265625,22.060546875 38.994140625,24.08203125 34.541015625,22.470703125 35.48583984375,18.62548828125 35.80078125,14.58984375 35.302734375,9.9755859375 33.955078125,6.6796875 31.9775390625,4.7021484375 29.58984375,4.04296875 27.3486328125,4.7900390625 25.693359375,6.73828125 24.521484375,9.4775390625 23.7744140625,12.59765625 23.3642578125,15.6884765625 23.232421875,18.33984375 18.427734375,18.33984375 18.28125,15.6884765625 17.8857421875,12.59765625 17.138671875,9.4775390625 15.966796875,6.73828125 14.296875,4.7900390625 12.0703125,4.04296875 9.6826171875,4.7021484375 7.705078125,6.6796875 6.357421875,9.990234375 5.859375,14.619140625 6.123046875,18.37646484375 6.9140625,21.62109375 8.203125,24.42626953125 9.9609375,26.865234375 12.1838369369507,28.974609375 14.8681640625,30.791015625 17.984619140625,32.3876953125 21.50390625,33.837890625 26.1987285614014,35.67626953125 30.263671875,37.5 33.72802734375,39.32373046875 36.62109375,41.162109375 33.57421875,44.82421875 28.2293682098389,41.59423828125 22.6245098114014,39.287109375 16.7596416473389,37.90283203125 10.634765625,37.44140625 7.6080322265625,37.672119140625 4.82666015625,38.3642578125 2.2906494140625,39.517822265625 0,41.1328125 0,36.2109375 4.95849609375,34.0576171875 10.751953125,33.33984375 6.4453125,29.970703125 3.38378882408142,25.4296875 1.55273461341858,20.15625 0.9375,14.58984375 1.13891613483429,11.180419921875 1.74316430091858,8.2177734375 2.71362328529358,5.70556783676147 4.01367282867432,3.6474609375 5.625,2.04712057113647 7.529296875,0.908203125 9.68994045257568,0.227052211761475 12.0703125,0z" />
    </g>
  </g>
</svg>