<?xml version="1.0" encoding="utf-8"?>
<!DOCTYPE svg PUBLIC "-//W3C//DTD SVG 1.1//EN" "http://www.w3.org/Graphics/SVG/1.1/DTD/svg11.dtd">
<svg width="26.7480468750001" height="44.82421875" xmlns="http://www.w3.org/2000/svg" xmlns:xlink="http://www.w3.org/1999/xlink" xmlns:xml="http://www.w3.org/XML/1998/namespace" version="1.1">
  <g>
    <g>
      <path style="fill:#FF0000;fill-opacity:1" d="M13.0078125,0L17.6513671875,0.6591796875 21.4013671875,2.5927734375 23.9208984375,5.7421875 24.6130352020264,7.7490234375 24.84375,10.01953125 24.2871074676514,13.626708984375 22.6171875,16.4208984375 19.91455078125,18.387451171875 16.259765625,19.51171875 16.259765625,19.62890625 20.302734375,20.9326171875 23.642578125,23.408203125 25.9130859375,26.8505859375 26.5393047332764,28.890380859375 26.748046875,31.11328125 26.4770488739014,34.32861328125 25.6640625,37.119140625 24.3786602020264,39.481201171875 22.6904296875,41.4111328125 20.625,42.908935546875 18.2080078125,43.974609375 15.516357421875,44.61181640625 12.626953125,44.82421875 10.2575674057007,44.6337890625 7.9541015625,44.0625 3.91113257408142,41.89453125 1.06933569908142,38.466796875 0.267333775758743,36.32080078125 0,33.92578125 0.300292760133743,31.31103515625 1.20117163658142,28.798828125 5.68359375,30.41015625 5.06835842132568,32.05078125 4.86328125,34.04296875 5.537109375,36.8408203125 7.3095703125,38.96484375 9.814453125,40.3125 12.685546875,40.78125 16.3330078125,40.224609375 19.2333984375,38.5400390625 21.1376953125,35.6689453125 21.826171875,31.552734375 21.6210918426514,29.3408203125 21.005859375,27.392578125 18.662109375,24.345703125 14.970703125,22.4853515625 10.13671875,21.85546875 8.408203125,21.85546875 8.408203125,17.783203125 9.9609375,17.783203125 14.443359375,17.40234375 17.5341796875,16.1865234375 19.3359375,14.0478515625 19.921875,10.927734375 19.4677734375,8.1298828125 18.134765625,5.9619140625 15.966796875,4.5703125 13.0078125,4.072265625 13.0078125,0z" />
    </g>
  </g>
</svg>