<?xml version="1.0" encoding="utf-8"?>
<!DOCTYPE svg PUBLIC "-//W3C//DTD SVG 1.1//EN" "http://www.w3.org/Graphics/SVG/1.1/DTD/svg11.dtd">
<svg width="56.513671875" height="58.41796875" xmlns="http://www.w3.org/2000/svg" xmlns:xlink="http://www.w3.org/1999/xlink" xmlns:xml="http://www.w3.org/XML/1998/namespace" version="1.1">
  <g>
    <g>
      <path style="fill:#FF0000;fill-opacity:1" d="M17.4609375,37.08984375L17.75390625,37.353515625 19.69482421875,41.15478515625 21.357421875,45.3515625 21.38671875,45.556640625 21.064453125,45.9375 18.544921875,47.080078125 18.22265625,47.16796875 17.9296875,46.904296875 16.58935546875,43.08837890625 14.619140625,38.7890625 14.501953125,38.49609375 14.70703125,38.26171875 17.16796875,37.177734375 17.4609375,37.08984375z M38.349609375,36.591796875L40.31982421875,37.39013671875 41.42578125,37.91015625 41.89453125,38.61328125 41.6015625,39.287109375 41.24267578125,39.79248046875 40.751953125,40.78125 39.29443359375,43.87939453125 37.3828125,47.197265625 36.826171875,47.6953125 36.240234375,47.4609375 35.5078125,47.021484375 34.013671875,46.34765625 36.10107421875,42.70751953125 37.6171875,39.169921875 38.349609375,36.591796875z M18.427734375,20.9765625L24.7265625,21.09375 31.728515625,21.09375 37.91015625,20.9765625 38.291015625,21.38671875 38.291015625,23.96484375 37.91015625,24.345703125 31.845703125,24.228515625 29.94140625,24.228515625 29.94140625,31.494140625 37.79296875,31.494140625 45.673828125,31.376953125 45.966796875,31.728515625 45.966796875,34.39453125 45.673828125,34.8046875 37.734375,34.6875 29.94140625,34.6875 29.94140625,49.482421875 37.08984375,49.482421875 44.82421875,49.365234375 45.17578125,49.775390625 45.17578125,52.3828125 44.82421875,52.79296875 36.97265625,52.67578125 19.453125,52.67578125 11.572265625,52.79296875 11.220703125,52.3828125 11.220703125,49.775390625 11.572265625,49.365234375 19.453125,49.482421875 26.279296875,49.482421875 26.279296875,34.6875 18.837890625,34.6875 10.927734375,34.8046875 10.60546875,34.39453125 10.60546875,31.728515625 10.927734375,31.376953125 18.779296875,31.494140625 26.279296875,31.494140625 26.279296875,24.228515625 24.169921875,24.228515625 18.427734375,24.345703125 18.046875,23.96484375 18.046875,21.38671875 18.427734375,20.9765625z M26.337890625,2.431640625L29.94140625,3.45703125 30.5859375,4.130859375 30.17578125,4.775390625 29.94140625,5.15625 33.848876953125,10.3216552734375 38.4228515625,14.91943359375 43.663330078125,18.9495849609375 49.5703125,22.412109375 47.87109375,24.873046875 47.314453125,25.458984375 46.611328125,25.25390625 40.9295654296875,21.478271484375 35.92529296875,17.3291015625 31.5985107421875,12.806396484375 27.94921875,7.91015672683716 24.33837890625,13.040771484375 20.15625,17.7392578125 15.40283203125,22.005615234375 10.078125,25.83984375 9.462890625,26.044921875 8.818359375,25.341796875 6.97265672683716,23.37890625 12.65625,19.66552734375 17.548828125,15.556640625 21.650390625,11.05224609375 24.9609375,6.15234422683716 26.337890625,2.431640625z M47.05078125,0L49.5172080993652,3.8873291015625 51.5844688415527,7.66845703125 53.2525596618652,11.3433837890625 54.521484375,14.912109375 56.0156211853027,21.7236328125 56.513671875,29.208984375 55.8618125915527,37.6904296875 53.90625,45.380859375 51.0937461853027,51.70166015625 47.05078125,58.41796875 45.52734375,57.5390625 49.5703086853027,50.244140625 52.20703125,43.0078125 53.4594688415527,36.45263671875 53.876953125,29.208984375 53.3276329040527,20.9619140625 51.6796875,13.564453125 49.1601524353027,7.27294921875 45.52734375,0.878906309604645 47.05078125,0z M9.4921875,0L10.986328125,0.878906309604645 6.943359375,8.173828125 4.30664110183716,15.41015625 3.05419969558716,21.96533203125 2.63671875,29.208984375 3.18603563308716,37.4560546875 4.83398485183716,44.853515625 7.353515625,51.14501953125 10.986328125,57.5390625 9.4921875,58.41796875 7.02392625808716,54.5306396484375 4.95117235183716,50.74951171875 3.27392649650574,47.0745849609375 1.99218833446503,43.505859375 0.498047202825546,36.6943359375 0,29.208984375 0.651855766773224,20.7275390625 2.60742235183716,13.037109375 5.42724609375,6.71630859375 9.4921875,0z" />
    </g>
  </g>
</svg>