<?xml version="1.0" encoding="utf-8"?>
<!DOCTYPE svg PUBLIC "-//W3C//DTD SVG 1.1//EN" "http://www.w3.org/Graphics/SVG/1.1/DTD/svg11.dtd">
<svg width="57.24609375" height="57.24609375" xmlns="http://www.w3.org/2000/svg" xmlns:xlink="http://www.w3.org/1999/xlink" xmlns:xml="http://www.w3.org/XML/1998/namespace" version="1.1">
  <g>
    <g>
      <path style="fill:#FF0000;fill-opacity:1" d="M38.0859375,29.70703125L36.02783203125,31.201171875 34.716796875,32.8125 34.1015625,34.50439453125 33.896484375,36.591796875 34.24072265625,38.935546875 35.2734375,40.693359375 36.73095703125,41.68212890625 38.583984375,42.01171875 40.67138671875,41.59423828125 42.1875,40.341796875 42.95654296875,38.701171875 43.212890625,36.591796875 42.94921875,34.51171875 42.158203125,32.841796875 40.8984375,31.51611328125 38.994140625,30.17578125 38.0859375,29.70703125z M38.525390625,15.234375L36.7236328125,15.62255859375 35.361328125,16.787109375 34.63623046875,18.24462890625 34.39453125,20.0390625 34.63623046875,21.9067401885986 35.361328125,23.408203125 36.533203125,24.5874042510986 38.291015625,25.72265625 39.052734375,26.220703125 40.89111328125,24.8584003448486 42.0703125,23.408203125 42.6416015625,21.8774433135986 42.83203125,20.0390625 42.509765625,17.958984375 41.54296875,16.40625 40.21728515625,15.52734375 38.525390625,15.234375z M38.525390625,12.12890625L41.8359375,12.7294921875 44.384765625,14.53125 45.8349609375,16.93359375 46.318359375,19.921875 45.966796875,22.5878925323486 44.912109375,24.7265625 43.4033203125,26.2646503448486 41.220703125,27.65625 44.0625,29.59716796875 45.849609375,31.669921875 46.7065391540527,33.8525390625 46.9921875,36.533203125 46.3476524353027,40.283203125 44.4140625,43.095703125 41.82861328125,44.61181640625 38.583984375,45.1171875 34.85595703125,44.47998046875 32.109375,42.568359375 30.6591796875,39.9609375 30.17578125,36.591796875 30.556640625,33.7646484375 31.69921875,31.494140625 33.39111328125,29.80224609375 35.888671875,28.18359375 33.36181640625,26.4404315948486 31.7578125,24.4921875 31.03271484375,22.5146503448486 30.791015625,20.09765625 31.3916015625,16.63330078125 33.193359375,14.033203125 35.5517578125,12.60498046875 38.525390625,12.12890625z M19.189453125,12.12890625L22.4340801239014,12.744140625 24.90234375,14.58984375 26.2866191864014,17.16064453125 26.748046875,20.419921875 26.4733867645264,23.0383319854736 25.6494140625,25.3857421875 24.0270977020264,27.974853515625 21.357421875,31.318359375 19.0960693359375,34.12353515625 17.29248046875,36.708984375 15.9466552734375,39.07470703125 15.05859375,41.220703125 26.689453125,41.220703125 26.689453125,44.58984375 11.103515625,44.58984375 11.103515625,41.513671875 12.257080078125,38.5382080078125 13.8720703125,35.50048828125 15.948486328125,32.4005126953125 18.486328125,29.23828125 20.76416015625,26.2646503448486 22.08984375,24.0234375 22.79296875,20.419921875 22.5292949676514,18.28857421875 21.73828125,16.69921875 20.63232421875,15.79833984375 19.189453125,15.498046875 17.4774169921875,15.875244140625 16.17919921875,17.0068359375 15.2947998046875,18.892822265625 14.82421875,21.533203125 11.103515625,20.712890625 11.9934072494507,16.9573974609375 13.6376943588257,14.27490234375 16.036376953125,12.6654052734375 19.189453125,12.12890625z M28.623046875,1.9921875L25.081787109375,2.22107148170471 21.6650390625,2.90771770477295 18.372802734375,4.05212593078613 15.205078125,5.654296875 9.814453125,9.814453125 5.654296875,15.205078125 4.0521240234375,18.372802734375 2.90771484375,21.6650390625 2.2210693359375,25.081787109375 1.9921875,28.623046875 2.2210693359375,32.164306640625 2.90771484375,35.5810546875 4.0521240234375,38.873291015625 5.654296875,42.041015625 9.814453125,47.431640625 15.205078125,51.591796875 18.372802734375,53.1939697265625 21.6650390625,54.33837890625 25.081787109375,55.0250244140625 28.623046875,55.25390625 32.164306640625,55.0250244140625 35.5810546875,54.33837890625 38.873291015625,53.1939697265625 42.041015625,51.591796875 47.4316368103027,47.431640625 51.591796875,42.041015625 53.1939659118652,38.873291015625 54.3383750915527,35.5810546875 55.0250205993652,32.164306640625 55.25390625,28.623046875 55.0250205993652,25.081787109375 54.3383750915527,21.6650390625 53.1939659118652,18.372802734375 51.591796875,15.205078125 47.4316368103027,9.814453125 42.041015625,5.654296875 38.873291015625,4.05212593078613 35.5810546875,2.90771770477295 32.164306640625,2.22107148170471 28.623046875,1.9921875z M28.623046875,0L32.4371337890625,0.245363473892212 36.11572265625,0.981448173522949 39.6588134765625,2.20825409889221 43.06640625,3.92578101158142 48.8671836853027,8.37890625 53.3203125,14.1796875 55.0378379821777,17.5872802734375 56.2646446228027,21.13037109375 57.0007286071777,24.8089599609375 57.24609375,28.623046875 57.0007286071777,32.4371337890625 56.2646446228027,36.11572265625 55.0378379821777,39.6588134765625 53.3203125,43.06640625 48.8671836853027,48.8671875 43.06640625,53.3203125 39.6588134765625,55.037841796875 36.11572265625,56.2646484375 32.4371337890625,57.000732421875 28.623046875,57.24609375 24.8089599609375,57.000732421875 21.13037109375,56.2646484375 17.5872802734375,55.037841796875 14.1796875,53.3203125 8.37890625,48.8671875 3.92578125,43.06640625 2.208251953125,39.6588134765625 0.9814453125,36.11572265625 0.245361328125,32.4371337890625 0,28.623046875 0.245361328125,24.8089599609375 0.9814453125,21.13037109375 2.208251953125,17.5872802734375 3.92578125,14.1796875 8.37890625,8.37890625 14.1796875,3.92578101158142 17.5872802734375,2.20825409889221 21.13037109375,0.981448173522949 24.8089599609375,0.245363473892212 28.623046875,0z" />
    </g>
  </g>
</svg>