<?xml version="1.0" encoding="utf-8"?>
<!DOCTYPE svg PUBLIC "-//W3C//DTD SVG 1.1//EN" "http://www.w3.org/Graphics/SVG/1.1/DTD/svg11.dtd">
<svg width="57.24609375" height="57.24609375" xmlns="http://www.w3.org/2000/svg" xmlns:xlink="http://www.w3.org/1999/xlink" xmlns:xml="http://www.w3.org/XML/1998/namespace" version="1.1">
  <g>
    <g>
      <path style="fill:#FF0000;fill-opacity:1" d="M39.111328125,27.1875L37.6446533203125,27.4676532745361 36.37939453125,28.3081073760986 35.3155517578125,29.7088642120361 34.453125,31.669921875 34.5684814453125,34.3560791015625 34.82666015625,36.61376953125 35.2276611328125,38.4429931640625 35.771484375,39.84375 37.1044921875,41.35986328125 38.935546875,41.865234375 40.6146240234375,41.385498046875 41.81396484375,39.9462890625 42.5335693359375,37.547607421875 42.7734375,34.189453125 42.4951171875,31.10595703125 41.66015625,28.828125 40.55419921875,27.5976581573486 39.111328125,27.1875z M39.66796875,12.12890625L41.7938232421875,12.4163818359375 43.60107421875,13.27880859375 45.0897216796875,14.7161865234375 46.259765625,16.728515625 42.71484375,18.369140625 41.4697265625,16.171875 39.55078125,15.439453125 38.3999633789063,15.6330871582031 37.393798828125,16.2139892578125 36.5322875976563,17.1821594238281 35.8154296875,18.53759765625 35.2432250976563,20.2803039550781 34.815673828125,22.4102783203125 34.5327758789063,24.9275207519531 34.39453125,27.83203125 35.47119140625,26.1529560089111 36.73828125,24.9536151885986 38.19580078125,24.2340106964111 39.84375,23.994140625 42.78076171875,24.7338886260986 44.970703125,26.953125 46.201171875,30.06591796875 46.611328125,34.072265625 46.03271484375,38.96484375 44.296875,42.568359375 41.96044921875,44.47998046875 38.994140625,45.1171875 36.9342041015625,44.8663330078125 35.17822265625,44.11376953125 33.7261962890625,42.8594970703125 32.578125,41.103515625 31.7706298828125,39.0399169921875 31.19384765625,36.51123046875 30.8477783203125,33.5174560546875 30.732421875,30.05859375 30.8953857421875,25.418701171875 31.38427734375,21.4892578125 32.1990966796875,18.270263671875 33.33984375,15.76171875 34.54833984375,14.17236328125 36.005859375,13.037109375 37.71240234375,12.35595703125 39.66796875,12.12890625z M18.896484375,12.12890625L22.1923828125,12.75146484375 24.697265625,14.619140625 26.0595684051514,17.01416015625 26.513671875,19.98046875 26.1254863739014,22.7856464385986 24.9609375,25.048828125 23.3422832489014,26.4917011260986 21.240234375,27.36328125 21.240234375,27.65625 23.7908916473389,28.7548828125 25.6127910614014,30.46875 26.7059307098389,32.7978515625 27.0703125,35.7421875 26.4257793426514,39.82177734375 24.4921875,42.919921875 21.99462890625,44.56787109375 18.896484375,45.1171875 15.8843984603882,44.7088623046875 13.4985342025757,43.48388671875 11.7388906478882,41.4422607421875 10.60546875,38.583984375 14.208984375,37.1484375 14.805908203125,39.1864013671875 15.7763671875,40.64208984375 17.120361328125,41.5155029296875 18.837890625,41.806640625 20.69091796875,41.3818359375 22.08984375,40.107421875 22.9028301239014,38.25439453125 23.173828125,35.859375 22.8387432098389,33.0780029296875 21.8334941864014,31.09130859375 20.1580791473389,29.8992919921875 17.8125,29.501953125 15.791015625,29.501953125 15.791015625,26.044921875 17.6953125,26.044921875 19.91455078125,25.6127948760986 21.533203125,24.31640625 22.3901348114014,22.5439472198486 22.67578125,20.21484375 22.4359111785889,18.1512451171875 21.7163066864014,16.67724609375 20.5169658660889,15.7928466796875 18.837890625,15.498046875 17.3236083984375,15.7672119140625 16.12060546875,16.57470703125 15.2288818359375,17.9205322265625 14.6484375,19.8046875 11.044921875,18.662109375 12.161865234375,15.8038330078125 13.8427734375,13.76220703125 16.087646484375,12.5372314453125 18.896484375,12.12890625z M28.623046875,1.9921875L25.081787109375,2.22107148170471 21.6650390625,2.90771770477295 18.372802734375,4.05212593078613 15.205078125,5.654296875 9.814453125,9.814453125 5.654296875,15.205078125 4.0521240234375,18.372802734375 2.90771484375,21.6650390625 2.2210693359375,25.081787109375 1.9921875,28.623046875 2.2210693359375,32.164306640625 2.90771484375,35.5810546875 4.0521240234375,38.873291015625 5.654296875,42.041015625 9.814453125,47.431640625 15.205078125,51.591796875 18.372802734375,53.1939697265625 21.6650390625,54.33837890625 25.081787109375,55.0250244140625 28.623046875,55.25390625 32.164306640625,55.0250244140625 35.5810546875,54.33837890625 38.873291015625,53.1939697265625 42.041015625,51.591796875 47.4316368103027,47.431640625 51.591796875,42.041015625 53.1939659118652,38.873291015625 54.3383750915527,35.5810546875 55.0250205993652,32.164306640625 55.25390625,28.623046875 55.0250205993652,25.081787109375 54.3383750915527,21.6650390625 53.1939659118652,18.372802734375 51.591796875,15.205078125 47.4316368103027,9.814453125 42.041015625,5.654296875 38.873291015625,4.05212593078613 35.5810546875,2.90771770477295 32.164306640625,2.22107148170471 28.623046875,1.9921875z M28.623046875,0L32.4371337890625,0.245363473892212 36.11572265625,0.981448173522949 39.6588134765625,2.20825409889221 43.06640625,3.92578101158142 48.8671836853027,8.37890625 53.3203125,14.1796875 55.0378379821777,17.5872802734375 56.2646446228027,21.13037109375 57.0007286071777,24.8089599609375 57.24609375,28.623046875 57.0007286071777,32.4371337890625 56.2646446228027,36.11572265625 55.0378379821777,39.6588134765625 53.3203125,43.06640625 48.8671836853027,48.8671875 43.06640625,53.3203125 39.6588134765625,55.037841796875 36.11572265625,56.2646484375 32.4371337890625,57.000732421875 28.623046875,57.24609375 24.8089599609375,57.000732421875 21.13037109375,56.2646484375 17.5872802734375,55.037841796875 14.1796875,53.3203125 8.37890625,48.8671875 3.92578125,43.06640625 2.208251953125,39.6588134765625 0.9814453125,36.11572265625 0.245361328125,32.4371337890625 0,28.623046875 0.245361328125,24.8089599609375 0.9814453125,21.13037109375 2.208251953125,17.5872802734375 3.92578125,14.1796875 8.37890625,8.37890625 14.1796875,3.92578101158142 17.5872802734375,2.20825409889221 21.13037109375,0.981448173522949 24.8089599609375,0.245363473892212 28.623046875,0z" />
    </g>
  </g>
</svg>