<?xml version="1.0" encoding="utf-8"?>
<!DOCTYPE svg PUBLIC "-//W3C//DTD SVG 1.1//EN" "http://www.w3.org/Graphics/SVG/1.1/DTD/svg11.dtd">
<svg width="57.24609375" height="57.24609375" xmlns="http://www.w3.org/2000/svg" xmlns:xlink="http://www.w3.org/1999/xlink" xmlns:xml="http://www.w3.org/XML/1998/namespace" version="1.1">
  <g>
    <g>
      <path style="fill:#FF0000;fill-opacity:1" d="M25.693359375,23.3203125L29.091796875,23.701171875 29.82421875,24.228515625 29.53125,24.90234375 29.3334941864014,25.5542011260986 29.150390625,26.689453125 28.857421875,29.208984375 36.416015625,29.208984375 42.802734375,29.091796875 43.212890625,29.443359375 43.1689453125,30.0732421875 43.095703125,31.142578125 42.978515625,33.33984375 42.54638671875,38.5546875 42.01171875,42.7734375 41.16943359375,45.3369140625 39.814453125,47.05078125 38.056640625,47.9296875 35.712890625,48.22265625 31.787109375,48.10546875 30.849609375,47.314453125 30,44.619140625 32.55615234375,44.9267578125 35.654296875,45.029296875 37.6318359375,44.296875 38.759765625,42.099609375 39.38232421875,37.7197265625 39.78515625,32.080078125 28.623046875,32.080078125 27.3266582489014,37.11181640625 25.25390625,40.95703125 23.6334228515625,42.9473876953125 21.61376953125,44.75830078125 19.1949462890625,46.3897705078125 16.376953125,47.841796875 15.791015625,48.046875 15.05859375,47.373046875 14.39208984375,46.57470703125 13.271484375,45.5859375 16.3055419921875,44.2254638671875 18.87451171875,42.69287109375 20.9783935546875,40.9881591796875 22.6171875,39.111328125 24.3603496551514,35.7861328125 25.1953125,32.080078125 20.888671875,32.080078125 14.58984375,32.197265625 14.208984375,31.845703125 14.208984375,29.384765625 14.6484375,29.091796875 20.888671875,29.208984375 25.546875,29.208984375 25.6054668426514,28.4912109375 25.72265625,26.806640625 25.78125,25.48828125 25.7592754364014,24.7851581573486 25.693359375,23.3203125z M17.431640625,9.873046875L17.6953125,10.01953125 19.88525390625,13.07373046875 21.591796875,16.259765625 21.6796875,16.5234375 21.416015625,16.787109375 19.130859375,17.578125 18.92578125,17.63671875 18.603515625,17.4609375 17.04345703125,14.27490234375 15,11.103515625 14.8828125,10.869140625 15.1171875,10.6640625 17.2265625,9.90234375 17.431640625,9.873046875z M39.7265625,9.169921875L42.59765625,10.25390625 43.271484375,10.927734375 42.83203125,11.513671875 41.982421875,12.65625 40.166015625,15.97412109375 38.466796875,18.720703125 39.521484375,18.720703125 46.7578125,18.603515625 47.16796875,18.955078125 47.021484375,22.265625 47.021484375,24.521484375 47.16796875,27.7734375 46.728515625,28.18359375 44.267578125,28.18359375 43.857421875,27.71484375 43.857421875,21.474609375 13.974609375,21.474609375 13.974609375,27.71484375 13.623046875,28.125 10.986328125,28.125 10.60546875,27.7734375 10.72265625,24.462890625 10.72265625,22.32421875 10.60546875,18.955078125 10.95703125,18.603515625 18.369140625,18.720703125 35.15625,18.720703125 37.06787109375,15.46875 38.994140625,11.572265625 39.7265625,9.169921875z M27.802734375,8.96484375L28.06640625,9.111328125 29.9194316864014,12.04833984375 31.552734375,15.41015625 31.611328125,15.673828125 31.435546875,15.908203125 29.091796875,16.669921875 28.828125,16.69921875 28.505859375,16.494140625 27.0556621551514,13.08837890625 25.400390625,10.13671875 25.283203125,9.931640625 25.48828125,9.7265625 27.5390625,8.994140625 27.802734375,8.96484375z M28.623046875,1.9921875L25.081787109375,2.22107148170471 21.6650390625,2.90771770477295 18.372802734375,4.05212593078613 15.205078125,5.654296875 9.814453125,9.814453125 5.654296875,15.205078125 4.0521240234375,18.372802734375 2.90771484375,21.6650390625 2.2210693359375,25.081787109375 1.9921875,28.623046875 2.2210693359375,32.164306640625 2.90771484375,35.5810546875 4.0521240234375,38.873291015625 5.654296875,42.041015625 9.814453125,47.431640625 15.205078125,51.591796875 18.372802734375,53.1939697265625 21.6650390625,54.33837890625 25.081787109375,55.0250244140625 28.623046875,55.25390625 32.164306640625,55.0250244140625 35.5810546875,54.33837890625 38.873291015625,53.1939697265625 42.041015625,51.591796875 47.4316368103027,47.431640625 51.591796875,42.041015625 53.1939659118652,38.873291015625 54.3383750915527,35.5810546875 55.0250205993652,32.164306640625 55.25390625,28.623046875 55.0250205993652,25.081787109375 54.3383750915527,21.6650390625 53.1939659118652,18.372802734375 51.591796875,15.205078125 47.4316368103027,9.814453125 42.041015625,5.654296875 38.873291015625,4.05212593078613 35.5810546875,2.90771770477295 32.164306640625,2.22107148170471 28.623046875,1.9921875z M28.623046875,0L32.4371337890625,0.245363473892212 36.11572265625,0.981448173522949 39.6588134765625,2.20825409889221 43.06640625,3.92578101158142 48.8671836853027,8.37890625 53.3203125,14.1796875 55.0378379821777,17.5872802734375 56.2646446228027,21.13037109375 57.0007286071777,24.8089599609375 57.24609375,28.623046875 57.0007286071777,32.4371337890625 56.2646446228027,36.11572265625 55.0378379821777,39.6588134765625 53.3203125,43.06640625 48.8671836853027,48.8671875 43.06640625,53.3203125 39.6588134765625,55.037841796875 36.11572265625,56.2646484375 32.4371337890625,57.000732421875 28.623046875,57.24609375 24.8089599609375,57.000732421875 21.13037109375,56.2646484375 17.5872802734375,55.037841796875 14.1796875,53.3203125 8.37890625,48.8671875 3.92578125,43.06640625 2.208251953125,39.6588134765625 0.9814453125,36.11572265625 0.245361328125,32.4371337890625 0,28.623046875 0.245361328125,24.8089599609375 0.9814453125,21.13037109375 2.208251953125,17.5872802734375 3.92578125,14.1796875 8.37890625,8.37890625 14.1796875,3.92578101158142 17.5872802734375,2.20825409889221 21.13037109375,0.981448173522949 24.8089599609375,0.245363473892212 28.623046875,0z" />
    </g>
  </g>
</svg>