<?xml version="1.0" encoding="utf-8"?>
<!DOCTYPE svg PUBLIC "-//W3C//DTD SVG 1.1//EN" "http://www.w3.org/Graphics/SVG/1.1/DTD/svg11.dtd">
<svg width="51.328125" height="51.09375" xmlns="http://www.w3.org/2000/svg" xmlns:xlink="http://www.w3.org/1999/xlink" xmlns:xml="http://www.w3.org/XML/1998/namespace" version="1.1">
  <g>
    <g>
      <path style="fill:#FF0000;fill-opacity:1" d="M9.55078125,13.916015625L42.041015625,13.916015625 42.041015625,17.75390625 28.212890625,17.75390625 28.57177734375,20.4858417510986 29.443359375,23.0859394073486 30.82763671875,25.5542011260986 32.724609375,27.890625 35.159912109375,30.0567626953125 37.9248046875,31.80908203125 41.019287109375,33.1475830078125 44.443359375,34.072265625 41.572265625,37.705078125 36.46728515625,35.771484375 31.81640625,32.666015625 28.42529296875,29.26025390625 25.927734375,25.48828125 23.5546855926514,29.1943359375 19.892578125,32.63671875 15.03662109375,35.654296875 9.43359375,37.8515625 6.767578125,34.248046875 10.4736328125,33.270263671875 13.76953125,31.8896484375 16.6552734375,30.106201171875 19.130859375,27.919921875 20.9875469207764,25.6256122589111 22.3388652801514,23.1665058135986 23.1848125457764,20.5426044464111 23.525390625,17.75390625 9.55078125,17.75390625 9.55078125,13.916015625z M25.6640625,2.05078101158142L20.8905029296875,2.45178198814392 16.53076171875,3.65478515625 12.5848388671875,5.6597900390625 9.052734375,8.466796875 6.053466796875,12.0172119140625 3.91113257408142,16.04736328125 2.62573218345642,20.5572509765625 2.197265625,25.546875 2.62573218345642,30.3533935546875 3.91113257408142,34.75341796875 6.053466796875,38.7469482421875 9.052734375,42.333984375 12.6287841796875,45.2691650390625 16.58935546875,47.36572265625 20.9344482421875,48.6236572265625 25.6640625,49.04296875 30.479736328125,48.6273193359375 34.8779296875,47.38037109375 38.858642578125,45.3021240234375 42.421875,42.392578125 45.3570518493652,38.8458251953125 47.4536094665527,34.85595703125 48.7115440368652,30.4229736328125 49.130859375,25.546875 48.7023887634277,20.61767578125 47.4169883728027,16.142578125 45.2746543884277,12.12158203125 42.275390625,8.5546875 38.7322998046875,5.709228515625 34.78271484375,3.6767578125 30.4266357421875,2.45727515220642 25.6640625,2.05078101158142z M25.6640625,0L30.8880615234375,0.444948315620422 35.66162109375,1.77978777885437 39.9847412109375,4.00451850891113 43.857421875,7.119140625 47.1258506774902,10.9954833984375 49.4604454040527,15.3588876724243 50.8612022399902,20.2093505859375 51.328125,25.546875 50.8557090759277,30.88623046875 49.4384727478027,35.7421875 47.0764122009277,40.11474609375 43.76953125,44.00390625 39.88037109375,47.105712890625 35.56640625,49.3212890625 30.82763671875,50.650634765625 25.6640625,51.09375 20.4730224609375,50.635986328125 15.71044921875,49.2626953125 11.3763427734375,46.973876953125 7.470703125,43.76953125 4.2022705078125,39.873046875 1.86767578125,35.537109375 0.4669189453125,30.76171875 0,25.546875 0.472412109375,20.09765625 1.8896484375,15.1757822036743 4.251708984375,10.78125 7.55859375,6.9140625 11.414794921875,3.88916206359863 15.7177734375,1.72851824760437 20.467529296875,0.432130932807922 25.6640625,0z" />
    </g>
  </g>
</svg>