<?xml version="1.0" encoding="utf-8"?>
<!DOCTYPE svg PUBLIC "-//W3C//DTD SVG 1.1//EN" "http://www.w3.org/Graphics/SVG/1.1/DTD/svg11.dtd">
<svg width="56.513671875" height="58.41796875" xmlns="http://www.w3.org/2000/svg" xmlns:xlink="http://www.w3.org/1999/xlink" xmlns:xml="http://www.w3.org/XML/1998/namespace" version="1.1">
  <g>
    <g>
      <path style="fill:#FF0000;fill-opacity:1" d="M22.8515625,42.12890625L23.02734375,42.275390625 25.0341777801514,46.42822265625 27.5390625,50.390625 25.546875,52.294921875 24.931640625,52.763671875 24.404296875,52.236328125 22.30224609375,48.427734375 20.390625,44.033203125 20.361328125,43.857421875 20.56640625,43.53515625 22.67578125,42.158203125 22.8515625,42.12890625z M14.4140625,42.041015625L16.23046875,43.11767578125 17.109375,43.65234375 17.578125,44.267578125 17.16796875,44.970703125 16.86767578125,45.41748046875 16.435546875,46.2890625 12.94921875,52.822265625 12.333984375,53.37890625 11.689453125,52.880859375 9.7265625,51.2109375 11.9165029525757,48.05419921875 13.681640625,44.384765625 14.0405263900757,43.4619140625 14.4140625,42.041015625z M14.326171875,29.560546875L14.326171875,37.734375 22.67578125,37.734375 22.67578125,29.560546875 14.326171875,29.560546875z M14.326171875,19.189453125L14.326171875,26.806640625 22.67578125,26.806640625 22.67578125,19.189453125 14.326171875,19.189453125z M14.326171875,8.671875L14.326171875,16.435546875 22.67578125,16.435546875 22.67578125,8.671875 14.326171875,8.671875z M11.572265625,5.68359375L16.142578125,5.80078125 20.859375,5.80078125 25.546875,5.68359375 25.83984375,6.03515625 25.72265625,12.71484375 25.72265625,33.57421875 25.83984375,40.3125 25.546875,40.72265625 20.91796875,40.60546875 16.142578125,40.60546875 11.572265625,40.72265625 11.220703125,40.3125 11.279296875,33.6328125 11.279296875,12.7734375 11.220703125,6.03515625 11.572265625,5.68359375z M39.052734375,3.83789038658142L41.337890625,3.98437786102295 42.978515625,4.189453125 43.623046875,4.80468702316284 43.330078125,5.80078125 43.08837890625,7.32421875 43.0078125,9.84375 43.06640625,16.669921875 44.765625,16.669921875 48.662109375,16.552734375 49.013671875,16.962890625 49.013671875,19.74609375 48.662109375,20.09765625 44.82421875,19.98046875 43.154296875,19.98046875 43.330078125,41.220703125 43.505859375,48.3984375 43.17626953125,51.1669921875 42.1875,52.91015625 41.151123046875,53.5125732421875 39.5947265625,53.94287109375 37.518310546875,54.2010498046875 34.921875,54.287109375 34.1015625,54.111328125 33.837890625,53.37890625 32.8125,50.44921875 35.2294921875,50.537109375 36.97265625,50.56640625 38.5546875,50.419921875 39.43359375,49.98046875 39.78515625,49.2041015625 39.90234375,47.87109375 39.7265625,30.41015625 39.84375,24.580078125 37.7069091796875,29.8883056640625 35.22216796875,34.70947265625 32.3895263671875,39.0435791015625 29.208984375,42.890625 28.564453125,43.330078125 27.94921875,42.7734375 26.162109375,40.986328125 30.003662109375,36.5972900390625 33.3251953125,31.63330078125 36.126708984375,26.0943603515625 38.408203125,19.98046875 34.130859375,19.98046875 28.271484375,20.09765625 27.890625,19.74609375 27.890625,16.962890625 28.271484375,16.552734375 34.39453125,16.669921875 39.55078125,16.669921875 39.4921875,9.84375 39.33837890625,6.17431640625 39.052734375,3.83789038658142z M47.05078125,0L49.5172080993652,3.8873291015625 51.5844688415527,7.66845703125 53.2525596618652,11.3433837890625 54.521484375,14.912109375 56.0156211853027,21.7236328125 56.513671875,29.208984375 55.8618125915527,37.6904296875 53.90625,45.380859375 51.0937461853027,51.70166015625 47.05078125,58.41796875 45.52734375,57.5390625 49.5703086853027,50.244140625 52.20703125,43.0078125 53.4594688415527,36.45263671875 53.876953125,29.208984375 53.3276329040527,20.9619140625 51.6796875,13.564453125 49.1601524353027,7.27294921875 45.52734375,0.878906309604645 47.05078125,0z M9.4921875,0L10.986328125,0.878906309604645 6.943359375,8.173828125 4.30664110183716,15.41015625 3.05419969558716,21.96533203125 2.63671875,29.208984375 3.18603563308716,37.4560546875 4.83398485183716,44.853515625 7.353515625,51.14501953125 10.986328125,57.5390625 9.4921875,58.41796875 7.02392625808716,54.5306396484375 4.95117235183716,50.74951171875 3.27392649650574,47.0745849609375 1.99218833446503,43.505859375 0.498047202825546,36.6943359375 0,29.208984375 0.651855766773224,20.7275390625 2.60742235183716,13.037109375 5.42724609375,6.71630859375 9.4921875,0z" />
    </g>
  </g>
</svg>