<?xml version="1.0" encoding="utf-8"?>
<!DOCTYPE svg PUBLIC "-//W3C//DTD SVG 1.1//EN" "http://www.w3.org/Graphics/SVG/1.1/DTD/svg11.dtd">
<svg width="56.513671875" height="58.41796875" xmlns="http://www.w3.org/2000/svg" xmlns:xlink="http://www.w3.org/1999/xlink" xmlns:xml="http://www.w3.org/XML/1998/namespace" version="1.1">
  <g>
    <g>
      <path style="fill:#FF0000;fill-opacity:1" d="M31.611328125,3.80859398841858L33.720703125,3.94043254852295 35.185546875,4.1015625 35.859375,4.658203125 35.625,5.595703125 35.47119140625,6.3848876953125 35.361328125,7.55126953125 35.29541015625,9.0948486328125 35.2734375,11.015625 35.2734375,17.431640625 40.986328125,17.431640625 47.98828125,17.314453125 48.28125,17.666015625 48.28125,20.33203125 47.98828125,20.7421875 40.986328125,20.625 36.357421875,20.625 39.0673828125,27.0776386260986 41.865234375,32.197265625 45.29296875,36.767578125 49.482421875,40.986328125 48.1713829040527,42.53173828125 47.51953125,43.4765625 47.05078125,44.091796875 46.494140625,43.65234375 42.48779296875,39.052734375 39.375,34.27734375 37.3095703125,30.05859375 35.21484375,24.7265625 35.361328125,46.845703125 35.419921875,52.96875 35.44921875,54.580078125 35.09765625,55.01953125 32.197265625,55.01953125 31.787109375,54.580078125 31.79443359375,54.16259765625 31.81640625,52.96875 32.021484375,24.90234375 30.1171855926514,30.3790283203125 27.7441387176514,35.44189453125 24.9023418426514,40.0909423828125 21.591796875,44.326171875 21.005859375,44.736328125 20.5078125,44.208984375 18.69140625,41.923828125 22.4194316864014,37.5604248046875 25.6640605926514,32.55615234375 28.4252910614014,26.9110107421875 30.703125,20.625 27.216796875,20.625 20.15625,20.7421875 19.775390625,20.33203125 19.775390625,17.666015625 20.15625,17.314453125 27.275390625,17.431640625 31.904296875,17.431640625 31.904296875,11.25 31.8310546875,6.9140625 31.611328125,3.80859398841858z M17.2265625,2.92968773841858L20.654296875,4.423828125 21.26953125,5.15625 20.830078125,5.91796827316284 20.302734375,6.826171875 19.833984375,8.14453125 18.43505859375,12.16552734375 16.640625,16.787109375 16.640625,45.41015625 16.7578125,54.697265625 16.40625,55.107421875 13.564453125,55.107421875 13.154296875,54.755859375 13.271484375,45.17578125 13.271484375,32.548828125 13.447265625,22.79296875 8.818359375,30.556640625 8.3203125,30.966796875 7.93945360183716,30.498046875 7.35351610183716,29.43603515625 6.35742235183716,27.94921875 9.5562744140625,23.0731201171875 12.29736328125,17.99560546875 14.5806884765625,12.7166748046875 16.40625,7.23632764816284 17.2265625,2.92968773841858z M47.05078125,0L49.5172080993652,3.8873291015625 51.5844688415527,7.66845703125 53.2525596618652,11.3433837890625 54.521484375,14.912109375 56.0156211853027,21.7236328125 56.513671875,29.208984375 55.8618125915527,37.6904296875 53.90625,45.380859375 51.0937461853027,51.70166015625 47.05078125,58.41796875 45.52734375,57.5390625 49.5703086853027,50.244140625 52.20703125,43.0078125 53.4594688415527,36.45263671875 53.876953125,29.208984375 53.3276329040527,20.9619140625 51.6796875,13.564453125 49.1601524353027,7.27294921875 45.52734375,0.878906309604645 47.05078125,0z M9.4921875,0L10.986328125,0.878906309604645 6.943359375,8.173828125 4.30664110183716,15.41015625 3.05419969558716,21.96533203125 2.63671875,29.208984375 3.18603563308716,37.4560546875 4.83398485183716,44.853515625 7.353515625,51.14501953125 10.986328125,57.5390625 9.4921875,58.41796875 7.02392625808716,54.5306396484375 4.95117235183716,50.74951171875 3.27392649650574,47.0745849609375 1.99218833446503,43.505859375 0.498047202825546,36.6943359375 0,29.208984375 0.651855766773224,20.7275390625 2.60742235183716,13.037109375 5.42724609375,6.71630859375 9.4921875,0z" />
    </g>
  </g>
</svg>