<?xml version="1.0" encoding="utf-8"?>
<!DOCTYPE svg PUBLIC "-//W3C//DTD SVG 1.1//EN" "http://www.w3.org/Graphics/SVG/1.1/DTD/svg11.dtd">
<svg width="51.328125" height="51.09375" xmlns="http://www.w3.org/2000/svg" xmlns:xlink="http://www.w3.org/1999/xlink" xmlns:xml="http://www.w3.org/XML/1998/namespace" version="1.1">
  <g>
    <g>
      <path style="fill:#FF0000;fill-opacity:1" d="M25.634765625,16.2890625L20.8813457489014,16.98486328125 17.40234375,19.072265625 15.46875,21.9873065948486 14.82421875,25.751953125 15.46875,29.5458984375 17.40234375,32.490234375 20.8813457489014,34.5556640625 25.634765625,35.244140625 30.43212890625,34.5556640625 33.92578125,32.490234375 35.859375,29.5751953125 36.50390625,25.810546875 35.859375,22.0385761260986 33.92578125,19.1015625 30.41748046875,16.9921875 25.634765625,16.2890625z M25.634765625,12.48046875L29.0185546875,12.7239990234375 32.021484375,13.45458984375 34.6435546875,14.6722412109375 36.884765625,16.376953125 38.5894775390625,18.3398456573486 39.80712890625,20.5664081573486 40.5377197265625,23.0566425323486 40.78125,25.810546875 40.5377197265625,28.5369873046875 39.80712890625,31.00341796875 38.5894775390625,33.2098388671875 36.884765625,35.15625 34.632568359375,36.873779296875 32.0068359375,38.1005859375 29.007568359375,38.836669921875 25.634765625,39.08203125 22.2747802734375,38.836669921875 19.28466796875,38.1005859375 16.6644287109375,36.873779296875 14.4140625,35.15625 12.72216796875,33.1951904296875 11.513671875,30.97412109375 10.78857421875,28.4930419921875 10.546875,25.751953125 10.78857421875,23.0126972198486 11.513671875,20.5371112823486 12.72216796875,18.3251972198486 14.4140625,16.376953125 16.6644287109375,14.6722412109375 19.28466796875,13.45458984375 22.2747802734375,12.7239990234375 25.634765625,12.48046875z M25.6640625,2.05078101158142L20.8905029296875,2.45178198814392 16.53076171875,3.65478515625 12.5848388671875,5.6597900390625 9.052734375,8.466796875 6.053466796875,12.0172119140625 3.91113257408142,16.04736328125 2.62573218345642,20.5572509765625 2.197265625,25.546875 2.62573218345642,30.3533935546875 3.91113257408142,34.75341796875 6.053466796875,38.7469482421875 9.052734375,42.333984375 12.6287841796875,45.2691650390625 16.58935546875,47.36572265625 20.9344482421875,48.6236572265625 25.6640625,49.04296875 30.479736328125,48.6273193359375 34.8779296875,47.38037109375 38.858642578125,45.3021240234375 42.421875,42.392578125 45.3570518493652,38.8458251953125 47.4536094665527,34.85595703125 48.7115440368652,30.4229736328125 49.130859375,25.546875 48.7023887634277,20.61767578125 47.4169883728027,16.142578125 45.2746543884277,12.12158203125 42.275390625,8.5546875 38.7322998046875,5.709228515625 34.78271484375,3.6767578125 30.4266357421875,2.45727515220642 25.6640625,2.05078101158142z M25.6640625,0L30.8880615234375,0.444948315620422 35.66162109375,1.77978777885437 39.9847412109375,4.00451850891113 43.857421875,7.119140625 47.1258506774902,10.9954833984375 49.4604454040527,15.3588876724243 50.8612022399902,20.2093505859375 51.328125,25.546875 50.8557090759277,30.88623046875 49.4384727478027,35.7421875 47.0764122009277,40.11474609375 43.76953125,44.00390625 39.88037109375,47.105712890625 35.56640625,49.3212890625 30.82763671875,50.650634765625 25.6640625,51.09375 20.4730224609375,50.635986328125 15.71044921875,49.2626953125 11.3763427734375,46.973876953125 7.470703125,43.76953125 4.2022705078125,39.873046875 1.86767578125,35.537109375 0.4669189453125,30.76171875 0,25.546875 0.472412109375,20.09765625 1.8896484375,15.1757822036743 4.251708984375,10.78125 7.55859375,6.9140625 11.414794921875,3.88916206359863 15.7177734375,1.72851824760437 20.467529296875,0.432130932807922 25.6640625,0z" />
    </g>
  </g>
</svg>