<?xml version="1.0" encoding="utf-8"?>
<!DOCTYPE svg PUBLIC "-//W3C//DTD SVG 1.1//EN" "http://www.w3.org/Graphics/SVG/1.1/DTD/svg11.dtd">
<svg width="57.24609375" height="57.24609375" xmlns="http://www.w3.org/2000/svg" xmlns:xlink="http://www.w3.org/1999/xlink" xmlns:xml="http://www.w3.org/XML/1998/namespace" version="1.1">
  <g>
    <g>
      <path style="fill:#FF0000;fill-opacity:1" d="M38.701171875,15.3515625L38.203125,16.72119140625 37.412109375,19.013671875 36.123046875,22.67578125 31.845703125,34.013671875 39.052734375,34.013671875 39.052734375,23.642578125 39.08203125,21.6503925323486 39.169921875,19.248046875 39.2578125,16.92626953125 39.287109375,15.3515625 38.701171875,15.3515625z M37.265625,12.421875L42.48046875,12.421875 42.48046875,34.013671875 46.142578125,34.013671875 46.142578125,37.20703125 42.48046875,37.20703125 42.48046875,44.58984375 39.052734375,44.58984375 39.052734375,37.20703125 28.681640625,37.20703125 28.681640625,34.189453125 37.265625,12.421875z M19.6875,12.12890625L22.9540996551514,12.744140625 25.4296875,14.58984375 26.8359355926514,17.16064453125 27.3046875,20.419921875 26.9677715301514,23.2177753448486 25.95703125,25.810546875 24.3896465301514,28.212890625 21.9140625,31.318359375 19.647216796875,34.112548828125 17.8271484375,36.6943359375 16.453857421875,39.063720703125 15.52734375,41.220703125 27.24609375,41.220703125 27.24609375,44.58984375 11.630859375,44.58984375 11.630859375,41.513671875 12.78076171875,38.5601806640625 14.384765625,35.52978515625 16.44287109375,32.4224853515625 18.955078125,29.23828125 21.27685546875,26.2646503448486 22.6171875,24.0234375 23.349609375,20.419921875 23.0786113739014,18.28857421875 22.265625,16.69921875 21.1376953125,15.79833984375 19.6875,15.498046875 17.955322265625,15.875244140625 16.6552734375,17.0068359375 15.787353515625,18.892822265625 15.3515625,21.533203125 11.630859375,20.712890625 12.5189208984375,16.9573974609375 14.15771484375,14.27490234375 16.5472412109375,12.6654052734375 19.6875,12.12890625z M28.623046875,1.9921875L25.081787109375,2.22107148170471 21.6650390625,2.90771770477295 18.372802734375,4.05212593078613 15.205078125,5.654296875 9.814453125,9.814453125 5.654296875,15.205078125 4.0521240234375,18.372802734375 2.90771484375,21.6650390625 2.2210693359375,25.081787109375 1.9921875,28.623046875 2.2210693359375,32.164306640625 2.90771484375,35.5810546875 4.0521240234375,38.873291015625 5.654296875,42.041015625 9.814453125,47.431640625 15.205078125,51.591796875 18.372802734375,53.1939697265625 21.6650390625,54.33837890625 25.081787109375,55.0250244140625 28.623046875,55.25390625 32.164306640625,55.0250244140625 35.5810546875,54.33837890625 38.873291015625,53.1939697265625 42.041015625,51.591796875 47.4316368103027,47.431640625 51.591796875,42.041015625 53.1939659118652,38.873291015625 54.3383750915527,35.5810546875 55.0250205993652,32.164306640625 55.25390625,28.623046875 55.0250205993652,25.081787109375 54.3383750915527,21.6650390625 53.1939659118652,18.372802734375 51.591796875,15.205078125 47.4316368103027,9.814453125 42.041015625,5.654296875 38.873291015625,4.05212593078613 35.5810546875,2.90771770477295 32.164306640625,2.22107148170471 28.623046875,1.9921875z M28.623046875,0L32.4371337890625,0.245363473892212 36.11572265625,0.981448173522949 39.6588134765625,2.20825409889221 43.06640625,3.92578101158142 48.8671836853027,8.37890625 53.3203125,14.1796875 55.0378379821777,17.5872802734375 56.2646446228027,21.13037109375 57.0007286071777,24.8089599609375 57.24609375,28.623046875 57.0007286071777,32.4371337890625 56.2646446228027,36.11572265625 55.0378379821777,39.6588134765625 53.3203125,43.06640625 48.8671836853027,48.8671875 43.06640625,53.3203125 39.6588134765625,55.037841796875 36.11572265625,56.2646484375 32.4371337890625,57.000732421875 28.623046875,57.24609375 24.8089599609375,57.000732421875 21.13037109375,56.2646484375 17.5872802734375,55.037841796875 14.1796875,53.3203125 8.37890625,48.8671875 3.92578125,43.06640625 2.208251953125,39.6588134765625 0.9814453125,36.11572265625 0.245361328125,32.4371337890625 0,28.623046875 0.245361328125,24.8089599609375 0.9814453125,21.13037109375 2.208251953125,17.5872802734375 3.92578125,14.1796875 8.37890625,8.37890625 14.1796875,3.92578101158142 17.5872802734375,2.20825409889221 21.13037109375,0.981448173522949 24.8089599609375,0.245363473892212 28.623046875,0z" />
    </g>
  </g>
</svg>