<?xml version="1.0" encoding="utf-8"?>
<!DOCTYPE svg PUBLIC "-//W3C//DTD SVG 1.1//EN" "http://www.w3.org/Graphics/SVG/1.1/DTD/svg11.dtd">
<svg width="57.24609375" height="57.24609375" xmlns="http://www.w3.org/2000/svg" xmlns:xlink="http://www.w3.org/1999/xlink" xmlns:xml="http://www.w3.org/XML/1998/namespace" version="1.1">
  <g>
    <g>
      <path style="fill:#FF0000;fill-opacity:1" d="M37.3828125,29.70703125L35.302734375,31.201171875 33.984375,32.8125 33.34716796875,34.50439453125 33.134765625,36.591796875 33.486328125,38.9208984375 34.541015625,40.693359375 36.005859375,41.68212890625 37.880859375,42.01171875 39.92431640625,41.59423828125 41.42578125,40.341796875 42.216796875,38.701171875 42.48046875,36.591796875 42.216796875,34.4970703125 41.42578125,32.841796875 40.15869140625,31.51611328125 38.232421875,30.17578125 37.3828125,29.70703125z M18.779296875,15.3515625L18.28857421875,16.73583984375 17.51953125,19.013671875 16.259765625,22.67578125 11.923828125,34.013671875 19.130859375,34.013671875 19.130859375,23.642578125 19.16748046875,21.5551776885986 19.27734375,19.04296875 19.37255859375,16.8310546875 19.423828125,15.3515625 18.779296875,15.3515625z M37.79296875,15.234375L35.9912109375,15.62255859375 34.62890625,16.787109375 33.90380859375,18.24462890625 33.662109375,20.0390625 33.90380859375,21.9067401885986 34.62890625,23.408203125 35.8154296875,24.5874042510986 37.55859375,25.72265625 38.349609375,26.220703125 40.15869140625,24.8730487823486 41.30859375,23.408203125 42.041015625,20.0390625 41.72607421875,17.958984375 40.78125,16.40625 39.462890625,15.52734375 37.79296875,15.234375z M17.40234375,12.421875L22.55859375,12.421875 22.55859375,34.013671875 26.220703125,34.013671875 26.220703125,37.20703125 22.55859375,37.20703125 22.55859375,44.58984375 19.130859375,44.58984375 19.130859375,37.20703125 8.759765625,37.20703125 8.759765625,34.189453125 17.40234375,12.421875z M37.79296875,12.12890625L41.0888671875,12.7294921875 43.65234375,14.53125 45.1025390625,16.93359375 45.5859375,19.921875 45.234375,22.5878925323486 44.1796875,24.7265625 42.6416015625,26.2646503448486 40.4296875,27.65625 43.271484375,29.59716796875 45.05859375,31.669921875 45.91552734375,33.8525390625 46.201171875,36.533203125 45.556640625,40.283203125 43.623046875,43.095703125 41.07421875,44.61181640625 37.880859375,45.1171875 34.10888671875,44.47998046875 31.34765625,42.568359375 29.8974590301514,39.9609375 29.4140625,36.591796875 29.7875957489014,33.7646484375 30.908203125,31.494140625 32.60009765625,29.80224609375 35.09765625,28.18359375 32.61474609375,26.4404315948486 31.025390625,24.4921875 30.3002910614014,22.5146503448486 30.05859375,20.09765625 30.64453125,16.63330078125 32.40234375,14.033203125 34.775390625,12.60498046875 37.79296875,12.12890625z M28.623046875,1.9921875L25.081787109375,2.22107148170471 21.6650390625,2.90771770477295 18.372802734375,4.05212593078613 15.205078125,5.654296875 9.814453125,9.814453125 5.654296875,15.205078125 4.0521240234375,18.372802734375 2.90771484375,21.6650390625 2.2210693359375,25.081787109375 1.9921875,28.623046875 2.2210693359375,32.164306640625 2.90771484375,35.5810546875 4.0521240234375,38.873291015625 5.654296875,42.041015625 9.814453125,47.431640625 15.205078125,51.591796875 18.372802734375,53.1939697265625 21.6650390625,54.33837890625 25.081787109375,55.0250244140625 28.623046875,55.25390625 32.164306640625,55.0250244140625 35.5810546875,54.33837890625 38.873291015625,53.1939697265625 42.041015625,51.591796875 47.4316368103027,47.431640625 51.591796875,42.041015625 53.1939659118652,38.873291015625 54.3383750915527,35.5810546875 55.0250205993652,32.164306640625 55.25390625,28.623046875 55.0250205993652,25.081787109375 54.3383750915527,21.6650390625 53.1939659118652,18.372802734375 51.591796875,15.205078125 47.4316368103027,9.814453125 42.041015625,5.654296875 38.873291015625,4.05212593078613 35.5810546875,2.90771770477295 32.164306640625,2.22107148170471 28.623046875,1.9921875z M28.623046875,0L32.4371337890625,0.245363473892212 36.11572265625,0.981448173522949 39.6588134765625,2.20825409889221 43.06640625,3.92578101158142 48.8671836853027,8.37890625 53.3203125,14.1796875 55.0378379821777,17.5872802734375 56.2646446228027,21.13037109375 57.0007286071777,24.8089599609375 57.24609375,28.623046875 57.0007286071777,32.4371337890625 56.2646446228027,36.11572265625 55.0378379821777,39.6588134765625 53.3203125,43.06640625 48.8671836853027,48.8671875 43.06640625,53.3203125 39.6588134765625,55.037841796875 36.11572265625,56.2646484375 32.4371337890625,57.000732421875 28.623046875,57.24609375 24.8089599609375,57.000732421875 21.13037109375,56.2646484375 17.5872802734375,55.037841796875 14.1796875,53.3203125 8.37890625,48.8671875 3.92578125,43.06640625 2.208251953125,39.6588134765625 0.9814453125,36.11572265625 0.245361328125,32.4371337890625 0,28.623046875 0.245361328125,24.8089599609375 0.9814453125,21.13037109375 2.208251953125,17.5872802734375 3.92578125,14.1796875 8.37890625,8.37890625 14.1796875,3.92578101158142 17.5872802734375,2.20825409889221 21.13037109375,0.981448173522949 24.8089599609375,0.245363473892212 28.623046875,0z" />
    </g>
  </g>
</svg>