<?xml version="1.0" encoding="utf-8"?>
<!DOCTYPE svg PUBLIC "-//W3C//DTD SVG 1.1//EN" "http://www.w3.org/Graphics/SVG/1.1/DTD/svg11.dtd">
<svg width="56.513671875" height="58.41796875" xmlns="http://www.w3.org/2000/svg" xmlns:xlink="http://www.w3.org/1999/xlink" xmlns:xml="http://www.w3.org/XML/1998/namespace" version="1.1">
  <g>
    <g>
      <path style="fill:#FF0000;fill-opacity:1" d="M21.708984375,3.1640625L23.8403301239014,3.33252239227295 25.546875,3.603515625 26.1401348114014,3.82324504852295 26.337890625,4.189453125 26.2646465301514,4.57763671875 26.044921875,5.390625 25.9497051239014,5.921630859375 25.8691387176514,6.8701171875 25.8032207489014,8.236083984375 25.751953125,10.01953125 25.6732158660889,13.231201171875 25.6127910614014,15.5419921875 25.5706768035889,16.951904296875 25.546875,17.4609375 30.849609375,17.28515625 36.005859375,17.080078125 37.177734375,17.021484375 37.5,17.021484375 37.91015625,17.490234375 37.899169921875,17.947998046875 37.8662109375,19.1748046875 37.811279296875,21.170654296875 37.734375,23.935546875 37.44140625,44.912109375 37.5439453125,46.5966796875 37.8515625,47.490234375 38.7890625,47.8857421875 40.48828125,48.017578125 42.32666015625,47.71728515625 43.505859375,46.81640625 43.9654541015625,45.6463623046875 44.31884765625,43.68896484375 44.5660400390625,40.9442138671875 44.70703125,37.412109375 47.16796875,38.876953125 47.8271446228027,39.31640625 48.046875,39.814453125 47.98828125,40.4296875 47.6715049743652,43.8189697265625 47.2192344665527,46.48681640625 46.6314659118652,48.4332275390625 45.908203125,49.658203125 43.68896484375,50.91064453125 40.25390625,51.328125 37.265625,51.11572265625 35.390625,50.478515625 34.19677734375,48.9404296875 33.837890625,46.259765625 34.130859375,20.56640625 25.3125,20.80078125 24.4995098114014,28.6376953125 23.232421875,34.98046875 21.566162109375,40.0469970703125 19.3505859375,44.58251953125 16.585693359375,48.5870361328125 13.271484375,52.060546875 12.392578125,52.646484375 11.630859375,52.001953125 9.55078125,50.21484375 13.13232421875,46.959228515625 16.0546875,43.0810546875 18.31787109375,38.580322265625 19.921875,33.45703125 21.02783203125,27.69287109375 21.708984375,20.947265625 18.193359375,21.064453125 15.439453125,21.1157245635986 13.154296875,21.2109375 12.0703125,21.26953125 11.689453125,21.298828125 11.279296875,20.859375 11.162109375,18.10546875 11.630859375,17.63671875 14.501953125,17.6953125 18.193359375,17.63671875 21.9140625,17.578125 22.08984375,10.078125 22.08984375,8.5546875 21.708984375,3.1640625z M47.05078125,0L49.5172080993652,3.8873291015625 51.5844688415527,7.66845703125 53.2525596618652,11.3433837890625 54.521484375,14.912109375 56.0156211853027,21.7236328125 56.513671875,29.208984375 55.8618125915527,37.6904296875 53.90625,45.380859375 51.0937461853027,51.70166015625 47.05078125,58.41796875 45.52734375,57.5390625 49.5703086853027,50.244140625 52.20703125,43.0078125 53.4594688415527,36.45263671875 53.876953125,29.208984375 53.3276329040527,20.9619140625 51.6796875,13.564453125 49.1601524353027,7.27294921875 45.52734375,0.878906309604645 47.05078125,0z M9.4921875,0L10.986328125,0.878906309604645 6.943359375,8.173828125 4.30664110183716,15.41015625 3.05419969558716,21.96533203125 2.63671875,29.208984375 3.18603563308716,37.4560546875 4.83398485183716,44.853515625 7.353515625,51.14501953125 10.986328125,57.5390625 9.4921875,58.41796875 7.02392625808716,54.5306396484375 4.95117235183716,50.74951171875 3.27392649650574,47.0745849609375 1.99218833446503,43.505859375 0.498047202825546,36.6943359375 0,29.208984375 0.651855766773224,20.7275390625 2.60742235183716,13.037109375 5.42724609375,6.71630859375 9.4921875,0z" />
    </g>
  </g>
</svg>