<?xml version="1.0" encoding="utf-8"?>
<!DOCTYPE svg PUBLIC "-//W3C//DTD SVG 1.1//EN" "http://www.w3.org/Graphics/SVG/1.1/DTD/svg11.dtd">
<svg width="43.76953125" height="43.740234375" xmlns="http://www.w3.org/2000/svg" xmlns:xlink="http://www.w3.org/1999/xlink" xmlns:xml="http://www.w3.org/XML/1998/namespace" version="1.1">
  <g>
    <g>
      <path style="fill:#FF0000;fill-opacity:1" d="M29.8828125,11.30859375L27.6141338348389,12.0062265396118 25.9936504364014,14.0991230010986 25.0213603973389,17.5872821807861 24.697265625,22.470703125 25.0158672332764,27.0208740234375 25.9716777801514,30.27099609375 27.5646953582764,32.2210693359375 29.794921875,32.87109375 31.973876953125,32.2100830078125 33.5302734375,30.22705078125 34.464111328125,26.9219970703125 34.775390625,22.294921875 34.4696044921875,17.4884052276611 33.55224609375,14.0551776885986 32.0233154296875,11.9952402114868 29.8828125,11.30859375z M8.61328125,9.755859375L18.134765625,9.755859375 18.134765625,12.333984375 10.693359375,12.333984375 9.9609375,19.775390625 10.8984375,19.7021484375 11.748046875,19.658203125 14.82421875,20.2001953125 17.138671875,21.73828125 18.5888671875,24.140625 19.1015625,27.24609375 18.5595703125,30.498046875 17.021484375,33.076171875 14.58984375,34.7607421875 11.3671875,35.361328125 8.6865234375,35.09765625 6.73828125,34.3359375 6.73828125,31.2890625 9.052734375,32.548828125 11.396484375,32.958984375 13.4912109375,32.5341796875 15.05859375,31.3623046875 16.025390625,29.6044921875 16.34765625,27.421875 15.98876953125,25.155029296875 14.912109375,23.5107421875 13.212890625,22.510986328125 10.986328125,22.177734375 9.580078125,22.2216796875 7.3828125,22.3828125 8.61328125,9.755859375z M30.05859375,8.818359375L31.8301391601563,9.02389526367188 33.365478515625,9.6405029296875 34.6646118164063,10.6681833267212 35.7275390625,12.1069345474243 36.5542602539063,13.9567575454712 37.144775390625,16.2176513671875 37.4990844726563,18.8896179199219 37.6171875,21.97265625 37.470703125,25.01953125 36.9873046875,28.06640625 36.0498046875,30.87890625 34.5556640625,33.193359375 32.4169921875,34.775390625 29.501953125,35.361328125 26.748046875,34.8046875 24.7412109375,33.2958984375 23.349609375,31.0693359375 22.470703125,28.3740234375 22.0166015625,25.4736328125 21.884765625,22.587890625 22.0166015625,19.4384765625 22.470703125,16.2890625 23.37890625,13.4033203125 24.873046875,11.0302734375 27.0556640625,9.4189453125 30.05859375,8.818359375z M21.85546875,0.146484375L18.944091796875,0.34423828125 16.1279296875,0.9375 10.95703125,3.1494140625 6.5625,6.5625 3.1494140625,10.9716796875 0.937499523162842,16.1572265625 0.34423828125,18.973388671875 0.146484851837158,21.884765625 0.340576231479645,24.796142578125 0.9228515625,27.6123046875 3.1201171875,32.7978515625 6.533203125,37.20703125 10.9423828125,40.6201171875 16.11328125,42.8173828125 18.92578125,43.399658203125 21.85546875,43.59375 24.7668437957764,43.399658203125 27.5830078125,42.8173828125 32.7685546875,40.6201171875 37.1923828125,37.20703125 40.6201171875,32.7978515625 42.83203125,27.626953125 43.42529296875,24.814453125 43.623046875,21.884765625 43.42529296875,18.973388671875 42.83203125,16.1572265625 40.6201171875,10.9716796875 37.1923828125,6.5625 32.7685546875,3.1494140625 27.5830078125,0.9375 24.7668437957764,0.34423828125 21.85546875,0.146484375z M0,0L43.76953125,0 43.76953125,43.740234375 0,43.740234375 0,0z" />
    </g>
  </g>
</svg>