<?xml version="1.0" encoding="utf-8"?>
<!DOCTYPE svg PUBLIC "-//W3C//DTD SVG 1.1//EN" "http://www.w3.org/Graphics/SVG/1.1/DTD/svg11.dtd">
<svg width="57.24609375" height="57.24609375" xmlns="http://www.w3.org/2000/svg" xmlns:xlink="http://www.w3.org/1999/xlink" xmlns:xml="http://www.w3.org/XML/1998/namespace" version="1.1">
  <g>
    <g>
      <path style="fill:#FF0000;fill-opacity:1" d="M38.349609375,15.498046875L37.2344970703125,15.7012939453125 36.29150390625,16.31103515625 35.5206298828125,17.3272705078125 34.921875,18.75 34.4989013671875,20.5242938995361 34.19677734375,22.7417011260986 34.0155029296875,25.4022235870361 33.955078125,28.505859375 34.0301513671875,32.0562744140625 34.25537109375,35.03173828125 34.6307373046875,37.4322509765625 35.15625,39.2578125 36.4453125,41.16943359375 38.26171875,41.806640625 39.400634765625,41.5960693359375 40.3564453125,40.96435546875 41.129150390625,39.9114990234375 41.71875,38.4375 42.12890625,36.6558837890625 42.421875,34.41650390625 42.59765625,31.7193603515625 42.65625,28.564453125 42.5830078125,25.0231952667236 42.36328125,22.0751972198486 41.9970703125,19.7204608917236 41.484375,17.958984375 40.20263671875,16.11328125 38.349609375,15.498046875z M11.953125,12.71484375L25.25390625,12.71484375 25.25390625,16.083984375 15.17578125,16.083984375 14.8828125,23.466796875 14.794921875,24.6240253448486 14.58984375,26.572265625 16.53076171875,24.4628925323486 19.130859375,23.759765625 20.7916240692139,23.9556903839111 22.2582988739014,24.5434589385986 23.5308818817139,25.5230731964111 24.609375,26.89453125 25.9057598114014,30.13916015625 26.337890625,34.248046875 25.6933574676514,39.01611328125 23.759765625,42.59765625 21.2841796875,44.4873046875 18.251953125,45.1171875 15.4449453353882,44.7235107421875 13.2055654525757,43.54248046875 11.5338125228882,41.5740966796875 10.4296875,38.818359375 14.208984375,37.44140625 14.791259765625,39.3511962890625 15.6591796875,40.71533203125 16.812744140625,41.5338134765625 18.251953125,41.806640625 20.00244140625,41.25 21.328125,39.580078125 22.0751953125,37.2509765625 22.32421875,34.248046875 22.0916748046875,31.1077899932861 21.39404296875,28.8647480010986 20.2313232421875,27.5189228057861 18.603515625,27.0703125 17.1954345703125,27.3211688995361 16.04736328125,28.0737323760986 15.1593017578125,29.3280048370361 14.53125,31.083984375 11.337890625,30.615234375 11.953125,12.71484375z M38.349609375,12.12890625L40.4571533203125,12.4017333984375 42.23876953125,13.22021484375 43.6944580078125,14.5843505859375 44.82421875,16.494140625 45.5804443359375,18.717041015625 46.12060546875,21.4599609375 46.4447021484375,24.722900390625 46.552734375,28.505859375 46.409912109375,32.8143310546875 45.9814453125,36.45263671875 45.267333984375,39.4207763671875 44.267578125,41.71875 43.1561279296875,43.20556640625 41.78466796875,44.267578125 40.1531982421875,44.90478515625 38.26171875,45.1171875 36.1541748046875,44.8388671875 34.37255859375,44.00390625 32.9168701171875,42.6123046875 31.787109375,40.6640625 31.0308837890625,38.4246826171875 30.49072265625,35.66162109375 30.1666259765625,32.3748779296875 30.05859375,28.564453125 30.2032470703125,24.2962646484375 30.63720703125,20.69091796875 31.3604736328125,17.7484130859375 32.373046875,15.46875 33.482666015625,14.007568359375 34.8486328125,12.9638671875 36.470947265625,12.337646484375 38.349609375,12.12890625z M28.623046875,1.9921875L25.081787109375,2.22107148170471 21.6650390625,2.90771770477295 18.372802734375,4.05212593078613 15.205078125,5.654296875 9.814453125,9.814453125 5.654296875,15.205078125 4.0521240234375,18.372802734375 2.90771484375,21.6650390625 2.2210693359375,25.081787109375 1.9921875,28.623046875 2.2210693359375,32.164306640625 2.90771484375,35.5810546875 4.0521240234375,38.873291015625 5.654296875,42.041015625 9.814453125,47.431640625 15.205078125,51.591796875 18.372802734375,53.1939697265625 21.6650390625,54.33837890625 25.081787109375,55.0250244140625 28.623046875,55.25390625 32.164306640625,55.0250244140625 35.5810546875,54.33837890625 38.873291015625,53.1939697265625 42.041015625,51.591796875 47.4316368103027,47.431640625 51.591796875,42.041015625 53.1939659118652,38.873291015625 54.3383750915527,35.5810546875 55.0250205993652,32.164306640625 55.25390625,28.623046875 55.0250205993652,25.081787109375 54.3383750915527,21.6650390625 53.1939659118652,18.372802734375 51.591796875,15.205078125 47.4316368103027,9.814453125 42.041015625,5.654296875 38.873291015625,4.05212593078613 35.5810546875,2.90771770477295 32.164306640625,2.22107148170471 28.623046875,1.9921875z M28.623046875,0L32.4371337890625,0.245363473892212 36.11572265625,0.981448173522949 39.6588134765625,2.20825409889221 43.06640625,3.92578101158142 48.8671836853027,8.37890625 53.3203125,14.1796875 55.0378379821777,17.5872802734375 56.2646446228027,21.13037109375 57.0007286071777,24.8089599609375 57.24609375,28.623046875 57.0007286071777,32.4371337890625 56.2646446228027,36.11572265625 55.0378379821777,39.6588134765625 53.3203125,43.06640625 48.8671836853027,48.8671875 43.06640625,53.3203125 39.6588134765625,55.037841796875 36.11572265625,56.2646484375 32.4371337890625,57.000732421875 28.623046875,57.24609375 24.8089599609375,57.000732421875 21.13037109375,56.2646484375 17.5872802734375,55.037841796875 14.1796875,53.3203125 8.37890625,48.8671875 3.92578125,43.06640625 2.208251953125,39.6588134765625 0.9814453125,36.11572265625 0.245361328125,32.4371337890625 0,28.623046875 0.245361328125,24.8089599609375 0.9814453125,21.13037109375 2.208251953125,17.5872802734375 3.92578125,14.1796875 8.37890625,8.37890625 14.1796875,3.92578101158142 17.5872802734375,2.20825409889221 21.13037109375,0.981448173522949 24.8089599609375,0.245363473892212 28.623046875,0z" />
    </g>
  </g>
</svg>