<?xml version="1.0" encoding="utf-8"?>
<!DOCTYPE svg PUBLIC "-//W3C//DTD SVG 1.1//EN" "http://www.w3.org/Graphics/SVG/1.1/DTD/svg11.dtd">
<svg width="57.24609375" height="57.24609375" xmlns="http://www.w3.org/2000/svg" xmlns:xlink="http://www.w3.org/1999/xlink" xmlns:xml="http://www.w3.org/XML/1998/namespace" version="1.1">
  <g>
    <g>
      <path style="fill:#FF0000;fill-opacity:1" d="M27.71484375,39.052734375L30.146484375,41.03759765625 32.87109375,42.421875 35.56640625,40.96435546875 37.96875,39.052734375 27.71484375,39.052734375z M23.73046875,31.083984375L23.935546875,31.142578125 25.3125,31.904296875 25.517578125,32.2265625 25.4296875,32.4609375 21.357421875,36.826171875 21.005859375,36.97265625 20.712890625,36.826171875 19.5703125,35.888671875 19.365234375,35.654296875 19.482421875,35.44921875 21.9287109375,33.24462890625 23.466796875,31.259765625 23.73046875,31.083984375z M43.0078125,31.0546875L43.271484375,31.142578125 45.73974609375,33.31787109375 47.8125,35.56640625 47.900390625,35.771484375 47.75390625,36.064453125 46.318359375,37.20703125 46.11328125,37.294921875 45.908203125,37.1484375 43.65234375,34.4677734375 41.572265625,32.578125 41.484375,32.373046875 41.513671875,32.2265625 42.7734375,31.142578125 43.0078125,31.0546875z M26.748046875,28.798828125L27.7954082489014,28.9013671875 29.35546875,29.091796875 29.765625,29.47265625 29.53125,30 29.326171875,31.083984375 29.326171875,31.7578125 29.58984375,32.900390625 30.52734375,33.251953125 31.79443359375,33.33984375 33.779296875,33.369140625 35.77880859375,33.2666015625 37.1484375,32.958984375 38.00537109375,31.98486328125 38.408203125,30.17578125 39.52880859375,30.71044921875 40.1953125,30.966796875 40.6640625,31.46484375 40.60546875,31.875 39.8583984375,33.6181640625 38.4375,34.6875 36.70166015625,35.0830078125 33.779296875,35.21484375 31.201171875,35.21484375 29.47265625,37.32421875 38.466796875,37.32421875 39.111328125,37.265625 39.609375,37.1484375 40.83984375,37.8515625 41.47705078125,38.50341796875 41.689453125,38.935546875 41.162109375,39.521484375 39.84375,40.4296875 35.44921875,43.359375 39.931640625,44.4873046875 45.52734375,44.94140625 44.208984375,46.845703125 43.388671875,47.40234375 37.60986328125,46.376953125 32.75390625,44.765625 26.8945293426514,46.7431640625 19.5703125,48.046875 19.21875,48.076171875 18.603515625,47.578125 17.4609375,45.9375 21.4489727020264,45.4833984375 24.9462871551514,44.912109375 27.9528789520264,44.2236328125 30.46875,43.41796875 27.9565410614014,41.806640625 26.044921875,40.078125 23.2690410614014,41.6748046875 19.8046875,43.06640625 19.39453125,43.212890625 18.896484375,42.890625 17.578125,41.455078125 21.2420635223389,40.1751708984375 24.3237285614014,38.64990234375 26.8231182098389,36.8792724609375 28.740234375,34.86328125 27.3999004364014,34.0283203125 26.953125,32.40234375 26.953125,31.142578125 26.748046875,28.798828125z M33.017578125,28.4765625L33.251953125,28.564453125 35.830078125,30.908203125 35.947265625,31.171875 35.830078125,31.376953125 34.5703125,32.16796875 34.306640625,32.314453125 34.013671875,32.109375 32.6513671875,30.615234375 31.669921875,29.70703125 31.552734375,29.501953125 31.669921875,29.326171875 32.8125,28.564453125 33.017578125,28.4765625z M25.810546875,23.876953125L25.810546875,26.103515625 39.66796875,26.103515625 39.66796875,23.876953125 25.810546875,23.876953125z M25.810546875,20.09765625L25.810546875,22.3828125 39.66796875,22.3828125 39.66796875,20.09765625 25.810546875,20.09765625z M25.810546875,16.376953125L25.810546875,18.603515625 39.66796875,18.603515625 39.66796875,16.376953125 25.810546875,16.376953125z M21.123046875,10.25390625L27.861328125,10.37109375 38.173828125,10.37109375 44.6484375,10.25390625 45,10.60546875 45,12.041015625 44.6484375,12.48046875 38.173828125,12.36328125 33.720703125,12.36328125 33.193359375,13.9306640625 32.900390625,14.765625 38.173828125,14.765625 41.89453125,14.6484375 42.24609375,15.1171875 42.1875,19.51171875 42.1875,26.103515625 43.505859375,26.103515625 47.783203125,26.044921875 48.193359375,26.396484375 48.134765625,28.359375 48.134765625,29.267578125 48.193359375,31.025390625 47.75390625,31.435546875 45.849609375,31.435546875 45.498046875,31.025390625 45.498046875,27.83203125 21.064453125,27.83203125 21.064453125,31.669921875 20.712890625,32.021484375 18.837890625,32.021484375 18.427734375,31.728515625 18.486328125,29.765625 18.486328125,28.623046875 18.427734375,26.396484375 18.837890625,26.044921875 22.646484375,26.103515625 23.291015625,26.103515625 23.291015625,19.51171875 23.173828125,15.1171875 23.525390625,14.6484375 27.978515625,14.765625 29.94140625,14.765625 30.2856426239014,13.9599609375 30.849609375,12.36328125 27.861328125,12.36328125 21.123046875,12.48046875 20.771484375,12.041015625 20.771484375,10.60546875 21.123046875,10.25390625z M15.8203125,8.642578125L17.40234375,9.19189453125 18.57421875,9.7265625 19.248046875,10.3125 18.896484375,10.927734375 18.10546875,12.36328125 15.703125,18.544921875 15.703125,38.642578125 15.8203125,46.904296875 15.46875,47.34375 13.18359375,47.34375 12.7734375,46.904296875 12.890625,38.701171875 12.890625,28.447265625 13.0078125,22.96875 10.9643545150757,26.5209980010986 8.818359375,29.384765625 8.349609375,29.794921875 8.0859375,29.384765625 6.708984375,27.421875 9.33654689788818,23.9813232421875 11.6528310775757,20.13427734375 13.6578359603882,15.8807373046875 15.3515625,11.220703125 15.8203125,8.642578125z M28.623046875,1.9921875L25.081787109375,2.22107148170471 21.6650390625,2.90771770477295 18.372802734375,4.05212593078613 15.205078125,5.654296875 9.814453125,9.814453125 5.654296875,15.205078125 4.0521240234375,18.372802734375 2.90771484375,21.6650390625 2.2210693359375,25.081787109375 1.9921875,28.623046875 2.2210693359375,32.164306640625 2.90771484375,35.5810546875 4.0521240234375,38.873291015625 5.654296875,42.041015625 9.814453125,47.431640625 15.205078125,51.591796875 18.372802734375,53.1939697265625 21.6650390625,54.33837890625 25.081787109375,55.0250244140625 28.623046875,55.25390625 32.164306640625,55.0250244140625 35.5810546875,54.33837890625 38.873291015625,53.1939697265625 42.041015625,51.591796875 47.4316368103027,47.431640625 51.591796875,42.041015625 53.1939659118652,38.873291015625 54.3383750915527,35.5810546875 55.0250205993652,32.164306640625 55.25390625,28.623046875 55.0250205993652,25.081787109375 54.3383750915527,21.6650390625 53.1939659118652,18.372802734375 51.591796875,15.205078125 47.4316368103027,9.814453125 42.041015625,5.654296875 38.873291015625,4.05212593078613 35.5810546875,2.90771770477295 32.164306640625,2.22107148170471 28.623046875,1.9921875z M28.623046875,0L32.4371337890625,0.245363473892212 36.11572265625,0.981448173522949 39.6588134765625,2.20825409889221 43.06640625,3.92578101158142 48.8671836853027,8.37890625 53.3203125,14.1796875 55.0378379821777,17.5872802734375 56.2646446228027,21.13037109375 57.0007286071777,24.8089599609375 57.24609375,28.623046875 57.0007286071777,32.4371337890625 56.2646446228027,36.11572265625 55.0378379821777,39.6588134765625 53.3203125,43.06640625 48.8671836853027,48.8671875 43.06640625,53.3203125 39.6588134765625,55.037841796875 36.11572265625,56.2646484375 32.4371337890625,57.000732421875 28.623046875,57.24609375 24.8089599609375,57.000732421875 21.13037109375,56.2646484375 17.5872802734375,55.037841796875 14.1796875,53.3203125 8.37890625,48.8671875 3.92578125,43.06640625 2.208251953125,39.6588134765625 0.9814453125,36.11572265625 0.245361328125,32.4371337890625 0,28.623046875 0.245361328125,24.8089599609375 0.9814453125,21.13037109375 2.208251953125,17.5872802734375 3.92578125,14.1796875 8.37890625,8.37890625 14.1796875,3.92578101158142 17.5872802734375,2.20825409889221 21.13037109375,0.981448173522949 24.8089599609375,0.245363473892212 28.623046875,0z" />
    </g>
  </g>
</svg>