<?xml version="1.0" encoding="utf-8"?>
<!DOCTYPE svg PUBLIC "-//W3C//DTD SVG 1.1//EN" "http://www.w3.org/Graphics/SVG/1.1/DTD/svg11.dtd">
<svg width="57.24609375" height="57.24609375" xmlns="http://www.w3.org/2000/svg" xmlns:xlink="http://www.w3.org/1999/xlink" xmlns:xml="http://www.w3.org/XML/1998/namespace" version="1.1">
  <g>
    <g>
      <path style="fill:#FF0000;fill-opacity:1" d="M30.17578125,12.7734375L36.123046875,12.890625 39.609375,12.890625 45.498046875,12.7734375 45.908203125,13.18359375 45.791015625,19.658203125 45.791015625,31.34765625 45.908203125,37.353515625 45.60791015625,39.27978515625 44.70703125,40.60546875 43.8006591796875,41.1309814453125 42.45849609375,41.50634765625 40.6805419921875,41.7315673828125 38.466796875,41.806640625 37.6171875,41.572265625 37.3828125,40.78125 36.298828125,38.203125 38.82568359375,38.37890625 40.25390625,38.4375 41.9677734375,38.00537109375 42.5390625,36.708984375 42.5390625,15.76171875 33.193359375,15.76171875 33.193359375,48.28125 32.900390625,48.69140625 30.17578125,48.69140625 29.82421875,48.28125 29.94140625,40.048828125 29.94140625,20.33203125 29.82421875,13.18359375 30.17578125,12.7734375z M25.517578125,9.9609375L27.744140625,12.24609375 28.095703125,12.83203125 27.509765625,13.388671875 27.0263652801514,13.53515625 25.810546875,13.974609375 20.9326171875,15.93017578125 15.205078125,17.578125 15.205078125,24.9609375 20.654296875,24.9609375 26.3671875,24.84375 26.71875,25.13671875 26.71875,27.5390625 26.3671875,27.94921875 20.654296875,27.83203125 15.205078125,27.83203125 15.205078125,37.6171875 20.771484375,37.6171875 26.484375,37.5 26.89453125,37.8515625 26.89453125,40.25390625 26.484375,40.60546875 20.771484375,40.48828125 15.205078125,40.48828125 15.322265625,44.6484375 15.029296875,45 12.3046875,45 11.89453125,44.6484375 12.01171875,35.947265625 12.01171875,19.8046875 11.71875,13.798828125 14.794921875,14.6484375 19.2333984375,13.32275390625 23.349609375,11.513671875 24.6679668426514,10.70068359375 25.517578125,9.9609375z M28.623046875,1.9921875L25.081787109375,2.22107148170471 21.6650390625,2.90771770477295 18.372802734375,4.05212593078613 15.205078125,5.654296875 9.814453125,9.814453125 5.654296875,15.205078125 4.0521240234375,18.372802734375 2.90771484375,21.6650390625 2.2210693359375,25.081787109375 1.9921875,28.623046875 2.2210693359375,32.164306640625 2.90771484375,35.5810546875 4.0521240234375,38.873291015625 5.654296875,42.041015625 9.814453125,47.431640625 15.205078125,51.591796875 18.372802734375,53.1939697265625 21.6650390625,54.33837890625 25.081787109375,55.0250244140625 28.623046875,55.25390625 32.164306640625,55.0250244140625 35.5810546875,54.33837890625 38.873291015625,53.1939697265625 42.041015625,51.591796875 47.4316368103027,47.431640625 51.591796875,42.041015625 53.1939659118652,38.873291015625 54.3383750915527,35.5810546875 55.0250205993652,32.164306640625 55.25390625,28.623046875 55.0250205993652,25.081787109375 54.3383750915527,21.6650390625 53.1939659118652,18.372802734375 51.591796875,15.205078125 47.4316368103027,9.814453125 42.041015625,5.654296875 38.873291015625,4.05212593078613 35.5810546875,2.90771770477295 32.164306640625,2.22107148170471 28.623046875,1.9921875z M28.623046875,0L32.4371337890625,0.245363473892212 36.11572265625,0.981448173522949 39.6588134765625,2.20825409889221 43.06640625,3.92578101158142 48.8671836853027,8.37890625 53.3203125,14.1796875 55.0378379821777,17.5872802734375 56.2646446228027,21.13037109375 57.0007286071777,24.8089599609375 57.24609375,28.623046875 57.0007286071777,32.4371337890625 56.2646446228027,36.11572265625 55.0378379821777,39.6588134765625 53.3203125,43.06640625 48.8671836853027,48.8671875 43.06640625,53.3203125 39.6588134765625,55.037841796875 36.11572265625,56.2646484375 32.4371337890625,57.000732421875 28.623046875,57.24609375 24.8089599609375,57.000732421875 21.13037109375,56.2646484375 17.5872802734375,55.037841796875 14.1796875,53.3203125 8.37890625,48.8671875 3.92578125,43.06640625 2.208251953125,39.6588134765625 0.9814453125,36.11572265625 0.245361328125,32.4371337890625 0,28.623046875 0.245361328125,24.8089599609375 0.9814453125,21.13037109375 2.208251953125,17.5872802734375 3.92578125,14.1796875 8.37890625,8.37890625 14.1796875,3.92578101158142 17.5872802734375,2.20825409889221 21.13037109375,0.981448173522949 24.8089599609375,0.245363473892212 28.623046875,0z" />
    </g>
  </g>
</svg>