<?xml version="1.0" encoding="utf-8"?>
<!DOCTYPE svg PUBLIC "-//W3C//DTD SVG 1.1//EN" "http://www.w3.org/Graphics/SVG/1.1/DTD/svg11.dtd">
<svg width="57.24609375" height="57.24609375" xmlns="http://www.w3.org/2000/svg" xmlns:xlink="http://www.w3.org/1999/xlink" xmlns:xml="http://www.w3.org/XML/1998/namespace" version="1.1">
  <g>
    <g>
      <path style="fill:#FF0000;fill-opacity:1" d="M40.13671875,15.3515625L39.66064453125,16.7138671875 38.876953125,19.04296875 37.6171875,22.67578125 33.22265625,34.013671875 40.48828125,34.013671875 40.48828125,23.642578125 40.60546875,19.04296875 40.6787109375,16.7578125 40.72265625,15.3515625 40.13671875,15.3515625z M38.701171875,12.421875L43.974609375,12.421875 43.974609375,34.013671875 47.578125,34.013671875 47.578125,37.20703125 43.974609375,37.20703125 43.974609375,44.58984375 40.48828125,44.58984375 40.48828125,37.20703125 30.17578125,37.20703125 30.17578125,34.189453125 38.701171875,12.421875z M18.603515625,12.12890625L21.90673828125,12.75146484375 24.43359375,14.619140625 25.8178691864014,17.02880859375 26.279296875,19.98046875 25.8764629364014,22.7856464385986 24.66796875,25.048828125 23.0493144989014,26.4917011260986 20.947265625,27.36328125 20.947265625,27.65625 23.4851055145264,28.7548828125 25.2978496551514,30.46875 26.3854961395264,32.7978515625 26.748046875,35.7421875 26.1035137176514,39.83642578125 24.169921875,42.919921875 21.650390625,44.56787109375 18.544921875,45.1171875 15.5328359603882,44.7088623046875 13.1469717025757,43.48388671875 11.3873281478882,41.4422607421875 10.25390625,38.583984375 13.857421875,37.1484375 14.47998046875,39.1864013671875 15.46875,40.64208984375 16.82373046875,41.5155029296875 18.544921875,41.806640625 20.35400390625,41.3818359375 21.73828125,40.107421875 22.5292949676514,38.25439453125 22.79296875,35.859375 22.4633769989014,33.0780029296875 21.4746074676514,31.09130859375 19.8266582489014,29.8992919921875 17.51953125,29.501953125 15.46875,29.501953125 15.46875,26.044921875 17.34375,26.044921875 19.522705078125,25.6805438995361 21.0791015625,24.5874042510986 22.012939453125,22.7655048370361 22.32421875,20.21484375 22.0880126953125,18.1512451171875 21.37939453125,16.67724609375 20.1983642578125,15.7928466796875 18.544921875,15.498046875 16.995849609375,15.7672119140625 15.7763671875,16.57470703125 14.886474609375,17.9205322265625 14.326171875,19.8046875 10.810546875,18.662109375 11.8579092025757,15.8038330078125 13.5058584213257,13.76220703125 15.7543935775757,12.5372314453125 18.603515625,12.12890625z M28.623046875,1.9921875L25.081787109375,2.22107148170471 21.6650390625,2.90771770477295 18.372802734375,4.05212593078613 15.205078125,5.654296875 9.814453125,9.814453125 5.654296875,15.205078125 4.0521240234375,18.372802734375 2.90771484375,21.6650390625 2.2210693359375,25.081787109375 1.9921875,28.623046875 2.2210693359375,32.164306640625 2.90771484375,35.5810546875 4.0521240234375,38.873291015625 5.654296875,42.041015625 9.814453125,47.431640625 15.205078125,51.591796875 18.372802734375,53.1939697265625 21.6650390625,54.33837890625 25.081787109375,55.0250244140625 28.623046875,55.25390625 32.164306640625,55.0250244140625 35.5810546875,54.33837890625 38.873291015625,53.1939697265625 42.041015625,51.591796875 47.4316368103027,47.431640625 51.591796875,42.041015625 53.1939659118652,38.873291015625 54.3383750915527,35.5810546875 55.0250205993652,32.164306640625 55.25390625,28.623046875 55.0250205993652,25.081787109375 54.3383750915527,21.6650390625 53.1939659118652,18.372802734375 51.591796875,15.205078125 47.4316368103027,9.814453125 42.041015625,5.654296875 38.873291015625,4.05212593078613 35.5810546875,2.90771770477295 32.164306640625,2.22107148170471 28.623046875,1.9921875z M28.623046875,0L32.4371337890625,0.245363473892212 36.11572265625,0.981448173522949 39.6588134765625,2.20825409889221 43.06640625,3.92578101158142 48.8671836853027,8.37890625 53.3203125,14.1796875 55.0378379821777,17.5872802734375 56.2646446228027,21.13037109375 57.0007286071777,24.8089599609375 57.24609375,28.623046875 57.0007286071777,32.4371337890625 56.2646446228027,36.11572265625 55.0378379821777,39.6588134765625 53.3203125,43.06640625 48.8671836853027,48.8671875 43.06640625,53.3203125 39.6588134765625,55.037841796875 36.11572265625,56.2646484375 32.4371337890625,57.000732421875 28.623046875,57.24609375 24.8089599609375,57.000732421875 21.13037109375,56.2646484375 17.5872802734375,55.037841796875 14.1796875,53.3203125 8.37890625,48.8671875 3.92578125,43.06640625 2.208251953125,39.6588134765625 0.9814453125,36.11572265625 0.245361328125,32.4371337890625 0,28.623046875 0.245361328125,24.8089599609375 0.9814453125,21.13037109375 2.208251953125,17.5872802734375 3.92578125,14.1796875 8.37890625,8.37890625 14.1796875,3.92578101158142 17.5872802734375,2.20825409889221 21.13037109375,0.981448173522949 24.8089599609375,0.245363473892212 28.623046875,0z" />
    </g>
  </g>
</svg>