<?xml version="1.0" encoding="utf-8"?>
<!DOCTYPE svg PUBLIC "-//W3C//DTD SVG 1.1//EN" "http://www.w3.org/Graphics/SVG/1.1/DTD/svg11.dtd">
<svg width="56.513671875" height="58.41796875" xmlns="http://www.w3.org/2000/svg" xmlns:xlink="http://www.w3.org/1999/xlink" xmlns:xml="http://www.w3.org/XML/1998/namespace" version="1.1">
  <g>
    <g>
      <path style="fill:#FF0000;fill-opacity:1" d="M19.453125,22.265625L19.453125,23.935546875 19.423828125,27.8613300323486 19.3359375,32.431640625 38.642578125,32.431640625 38.642578125,22.265625 19.453125,22.265625z M19.51171875,9.111328125L19.51171875,18.955078125 38.642578125,18.955078125 38.642578125,9.111328125 19.51171875,9.111328125z M16.083984375,5.62499952316284L23.818359375,5.7421875 34.3359375,5.7421875 42.0703125,5.62499952316284 42.421875,6.03515625 42.3046875,14.208984375 42.3046875,40.1953125 42.48046875,49.013671875 42.15087890625,51.27685546875 41.162109375,52.8515625 40.162353515625,53.4027099609375 38.6572265625,53.79638671875 36.646728515625,54.0325927734375 34.130859375,54.111328125 33.134765625,53.90625 32.8125,53.0859375 32.34375,51.3134765625 31.81640625,50.15625 36.533203125,50.390625 37.6318359375,50.2734375 38.291015625,49.921875 38.642578125,48.515625 38.642578125,35.7421875 19.1015625,35.7421875 18.4698486328125,40.6439208984375 17.36572265625,45.06591796875 15.7891845703125,49.0081787109375 13.740234375,52.470703125 13.095703125,53.0859375 12.48046875,52.646484375 9.9609375,50.68359375 13.0590810775757,45.40283203125 14.853515625,39.404296875 15.263671875,36.3299560546875 15.556640625,32.49755859375 15.732421875,27.9071044921875 15.791015625,22.55859375 15.791015625,13.681640625 15.673828125,6.03515625 16.083984375,5.62499952316284z M47.05078125,0L49.5172080993652,3.8873291015625 51.5844688415527,7.66845703125 53.2525596618652,11.3433837890625 54.521484375,14.912109375 56.0156211853027,21.7236328125 56.513671875,29.208984375 55.8618125915527,37.6904296875 53.90625,45.380859375 51.0937461853027,51.70166015625 47.05078125,58.41796875 45.52734375,57.5390625 49.5703086853027,50.244140625 52.20703125,43.0078125 53.4594688415527,36.45263671875 53.876953125,29.208984375 53.3276329040527,20.9619140625 51.6796875,13.564453125 49.1601524353027,7.27294921875 45.52734375,0.878906309604645 47.05078125,0z M9.4921875,0L10.986328125,0.878906309604645 6.943359375,8.173828125 4.30664110183716,15.41015625 3.05419969558716,21.96533203125 2.63671875,29.208984375 3.18603563308716,37.4560546875 4.83398485183716,44.853515625 7.353515625,51.14501953125 10.986328125,57.5390625 9.4921875,58.41796875 7.02392625808716,54.5306396484375 4.95117235183716,50.74951171875 3.27392649650574,47.0745849609375 1.99218833446503,43.505859375 0.498047202825546,36.6943359375 0,29.208984375 0.651855766773224,20.7275390625 2.60742235183716,13.037109375 5.42724609375,6.71630859375 9.4921875,0z" />
    </g>
  </g>
</svg>