<?xml version="1.0" encoding="utf-8"?>
<!DOCTYPE svg PUBLIC "-//W3C//DTD SVG 1.1//EN" "http://www.w3.org/Graphics/SVG/1.1/DTD/svg11.dtd">
<svg width="57.24609375" height="57.24609375" xmlns="http://www.w3.org/2000/svg" xmlns:xlink="http://www.w3.org/1999/xlink" xmlns:xml="http://www.w3.org/XML/1998/namespace" version="1.1">
  <g>
    <g>
      <path style="fill:#FF0000;fill-opacity:1" d="M27.59765625,19.74609375L31.201171875,19.98046875 31.787109375,20.537109375 31.69921875,20.947265625 31.552734375,21.474609375 31.376953125,23.0126972198486 31.318359375,25.869140625 31.318359375,29.033203125 35.2734375,29.033203125 41.455078125,28.916015625 41.89453125,29.296875 41.89453125,31.669921875 41.455078125,32.109375 35.2734375,31.9921875 31.318359375,31.9921875 31.318359375,42.5390625 37.3828125,42.5390625 45.05859375,42.421875 45.41015625,42.7734375 45.41015625,45.17578125 45.05859375,45.52734375 37.3828125,45.46875 19.3359375,45.46875 12.3046875,45.52734375 11.953125,45.17578125 11.953125,42.7734375 12.3046875,42.421875 17.578125,42.5390625 17.578125,33.837890625 17.490234375,30.06591796875 17.2265625,27.36328125 20.654296875,27.65625 21.357421875,28.154296875 21.240234375,28.59375 21.064453125,29.150390625 20.8447265625,30.8203125 20.771484375,33.603515625 20.771484375,42.5390625 27.94921875,42.5390625 27.94921875,26.220703125 27.8613262176514,22.4487323760986 27.59765625,19.74609375z M27.01171875,6.85546827316284L28.4912090301514,7.1044921875 30.41015625,7.5 31.142578125,8.056640625 30.5859375,8.759765625 30.52734375,9.052734375 34.3157958984375,13.7255859375 38.70849609375,17.724609375 43.7054443359375,21.0498046875 49.306640625,23.701171875 48.4643516540527,24.5947284698486 47.63671875,25.869140625 46.9921875,26.42578125 46.435546875,26.220703125 41.162109375,23.349609375 36.416015625,19.892578125 32.197265625,15.849609375 28.505859375,11.220703125 24.990234375,15.7763671875 20.947265625,19.833984375 16.376953125,23.3935546875 11.279296875,26.455078125 10.72265625,26.66015625 10.13671875,26.162109375 8.173828125,24.4921875 13.7109375,21.346435546875 18.486328125,17.7978515625 22.5,13.846435546875 25.751953125,9.4921875 27.01171875,6.85546827316284z M28.623046875,1.9921875L25.081787109375,2.22107148170471 21.6650390625,2.90771770477295 18.372802734375,4.05212593078613 15.205078125,5.654296875 9.814453125,9.814453125 5.654296875,15.205078125 4.0521240234375,18.372802734375 2.90771484375,21.6650390625 2.2210693359375,25.081787109375 1.9921875,28.623046875 2.2210693359375,32.164306640625 2.90771484375,35.5810546875 4.0521240234375,38.873291015625 5.654296875,42.041015625 9.814453125,47.431640625 15.205078125,51.591796875 18.372802734375,53.1939697265625 21.6650390625,54.33837890625 25.081787109375,55.0250244140625 28.623046875,55.25390625 32.164306640625,55.0250244140625 35.5810546875,54.33837890625 38.873291015625,53.1939697265625 42.041015625,51.591796875 47.4316368103027,47.431640625 51.591796875,42.041015625 53.1939659118652,38.873291015625 54.3383750915527,35.5810546875 55.0250205993652,32.164306640625 55.25390625,28.623046875 55.0250205993652,25.081787109375 54.3383750915527,21.6650390625 53.1939659118652,18.372802734375 51.591796875,15.205078125 47.4316368103027,9.814453125 42.041015625,5.654296875 38.873291015625,4.05212593078613 35.5810546875,2.90771770477295 32.164306640625,2.22107148170471 28.623046875,1.9921875z M28.623046875,0L32.4371337890625,0.245363473892212 36.11572265625,0.981448173522949 39.6588134765625,2.20825409889221 43.06640625,3.92578101158142 48.8671836853027,8.37890625 53.3203125,14.1796875 55.0378379821777,17.5872802734375 56.2646446228027,21.13037109375 57.0007286071777,24.8089599609375 57.24609375,28.623046875 57.0007286071777,32.4371337890625 56.2646446228027,36.11572265625 55.0378379821777,39.6588134765625 53.3203125,43.06640625 48.8671836853027,48.8671875 43.06640625,53.3203125 39.6588134765625,55.037841796875 36.11572265625,56.2646484375 32.4371337890625,57.000732421875 28.623046875,57.24609375 24.8089599609375,57.000732421875 21.13037109375,56.2646484375 17.5872802734375,55.037841796875 14.1796875,53.3203125 8.37890625,48.8671875 3.92578125,43.06640625 2.208251953125,39.6588134765625 0.9814453125,36.11572265625 0.245361328125,32.4371337890625 0,28.623046875 0.245361328125,24.8089599609375 0.9814453125,21.13037109375 2.208251953125,17.5872802734375 3.92578125,14.1796875 8.37890625,8.37890625 14.1796875,3.92578101158142 17.5872802734375,2.20825409889221 21.13037109375,0.981448173522949 24.8089599609375,0.245363473892212 28.623046875,0z" />
    </g>
  </g>
</svg>