<?xml version="1.0" encoding="utf-8"?>
<!DOCTYPE svg PUBLIC "-//W3C//DTD SVG 1.1//EN" "http://www.w3.org/Graphics/SVG/1.1/DTD/svg11.dtd">
<svg width="57.24609375" height="57.24609375" xmlns="http://www.w3.org/2000/svg" xmlns:xlink="http://www.w3.org/1999/xlink" xmlns:xml="http://www.w3.org/XML/1998/namespace" version="1.1">
  <g>
    <g>
      <path style="fill:#FF0000;fill-opacity:1" d="M31.201171875,9.228515625L34.8046875,9.462890625 35.390625,9.90234375 35.09765625,10.78125 34.9658203125,12.01904296875 34.921875,14.736328125 34.921875,19.189453125 41.396484375,19.189453125 47.40234375,19.072265625 47.75390625,19.51171875 47.75390625,21.9140625 47.40234375,22.32421875 43.06640625,22.20703125 41.396484375,22.20703125 35.830078125,22.20703125 38.7451171875,27.35595703125 41.923828125,31.669921875 45.205078125,35.09765625 49.130859375,38.408203125 47.2265625,40.458984375 46.611328125,41.044921875 45.849609375,40.517578125 42.04833984375,36.6943359375 39.0234375,32.900390625 36.7822265625,29.28955078125 34.6875,25.078125 34.86328125,41.19140625 34.89990234375,43.2275390625 34.951171875,45.87890625 34.97314453125,46.8896484375 34.98046875,47.34375 34.62890625,47.75390625 31.787109375,47.75390625 31.435546875,47.34375 31.439208984375,47.0928955078125 31.4501953125,46.42822265625 31.468505859375,45.3497314453125 31.494140625,43.857421875 31.6552734375,34.16748046875 31.728515625,25.078125 29.7326641082764,29.5404052734375 27.3193340301514,33.64013671875 24.4885234832764,37.3773193359375 21.240234375,40.751953125 20.595703125,41.220703125 20.0390625,40.634765625 18.369140625,38.583984375 22.2491436004639,34.9786376953125 25.5395488739014,31.04736328125 28.2403545379639,26.7901611328125 30.3515625,22.20703125 26.689453125,22.20703125 25.01953125,22.20703125 20.712890625,22.32421875 20.2734375,21.9140625 20.2734375,19.51171875 20.712890625,19.072265625 26.689453125,19.189453125 31.552734375,19.189453125 31.552734375,14.794921875 31.46484375,11.7041015625 31.201171875,9.228515625z M17.2265625,8.583984375L19.15283203125,9.19189453125 20.537109375,9.7265625 21.064453125,10.3125 20.654296875,10.986328125 20.32470703125,11.50634765625 19.8046875,12.59765625 16.81640625,19.365234375 16.81640625,40.60546875 16.93359375,47.28515625 16.46484375,47.6953125 13.857421875,47.6953125 13.447265625,47.28515625 13.564453125,40.60546875 13.564453125,30.5859375 13.740234375,24.169921875 11.7993154525757,27.1875 10.078125,29.443359375 9.4921875,29.970703125 8.935546875,29.443359375 7.20703125,27.65625 10.1586904525757,24.1571044921875 12.6855459213257,20.36865234375 14.7875967025757,16.2908935546875 16.46484375,11.923828125 17.2265625,8.583984375z M28.623046875,1.9921875L25.081787109375,2.22107148170471 21.6650390625,2.90771770477295 18.372802734375,4.05212593078613 15.205078125,5.654296875 9.814453125,9.814453125 5.654296875,15.205078125 4.0521240234375,18.372802734375 2.90771484375,21.6650390625 2.2210693359375,25.081787109375 1.9921875,28.623046875 2.2210693359375,32.164306640625 2.90771484375,35.5810546875 4.0521240234375,38.873291015625 5.654296875,42.041015625 9.814453125,47.431640625 15.205078125,51.591796875 18.372802734375,53.1939697265625 21.6650390625,54.33837890625 25.081787109375,55.0250244140625 28.623046875,55.25390625 32.164306640625,55.0250244140625 35.5810546875,54.33837890625 38.873291015625,53.1939697265625 42.041015625,51.591796875 47.4316368103027,47.431640625 51.591796875,42.041015625 53.1939659118652,38.873291015625 54.3383750915527,35.5810546875 55.0250205993652,32.164306640625 55.25390625,28.623046875 55.0250205993652,25.081787109375 54.3383750915527,21.6650390625 53.1939659118652,18.372802734375 51.591796875,15.205078125 47.4316368103027,9.814453125 42.041015625,5.654296875 38.873291015625,4.05212593078613 35.5810546875,2.90771770477295 32.164306640625,2.22107148170471 28.623046875,1.9921875z M28.623046875,0L32.4371337890625,0.245363473892212 36.11572265625,0.981448173522949 39.6588134765625,2.20825409889221 43.06640625,3.92578101158142 48.8671836853027,8.37890625 53.3203125,14.1796875 55.0378379821777,17.5872802734375 56.2646446228027,21.13037109375 57.0007286071777,24.8089599609375 57.24609375,28.623046875 57.0007286071777,32.4371337890625 56.2646446228027,36.11572265625 55.0378379821777,39.6588134765625 53.3203125,43.06640625 48.8671836853027,48.8671875 43.06640625,53.3203125 39.6588134765625,55.037841796875 36.11572265625,56.2646484375 32.4371337890625,57.000732421875 28.623046875,57.24609375 24.8089599609375,57.000732421875 21.13037109375,56.2646484375 17.5872802734375,55.037841796875 14.1796875,53.3203125 8.37890625,48.8671875 3.92578125,43.06640625 2.208251953125,39.6588134765625 0.9814453125,36.11572265625 0.245361328125,32.4371337890625 0,28.623046875 0.245361328125,24.8089599609375 0.9814453125,21.13037109375 2.208251953125,17.5872802734375 3.92578125,14.1796875 8.37890625,8.37890625 14.1796875,3.92578101158142 17.5872802734375,2.20825409889221 21.13037109375,0.981448173522949 24.8089599609375,0.245363473892212 28.623046875,0z" />
    </g>
  </g>
</svg>