<?xml version="1.0" encoding="utf-8"?>
<!DOCTYPE svg PUBLIC "-//W3C//DTD SVG 1.1//EN" "http://www.w3.org/Graphics/SVG/1.1/DTD/svg11.dtd">
<svg width="57.24609375" height="57.24609375" xmlns="http://www.w3.org/2000/svg" xmlns:xlink="http://www.w3.org/1999/xlink" xmlns:xml="http://www.w3.org/XML/1998/namespace" version="1.1">
  <g>
    <g>
      <path style="fill:#FF0000;fill-opacity:1" d="M27.65625,18.251953125L31.669921875,18.779296875 32.109375,19.3359375 32.05078125,19.62890625 31.728515625,21.357421875 31.611328125,22.734375 31.5673828125,24.0600605010986 31.552734375,25.986328125 37.67578125,25.986328125 41.7626953125,25.9204120635986 46.58203125,25.72265625 46.69921875,25.72265625 47.05078125,26.337890625 47.080078125,27.041015625 47.05078125,28.505859375 46.9189453125,29.0625 46.5234375,29.150390625 43.71826171875,29.09912109375 41.30859375,29.0625 39.29443359375,29.04052734375 37.67578125,29.033203125 31.494140625,29.033203125 30.7470703125,34.3212890625 29.208984375,38.818359375 26.1181621551514,43.89404296875 21.533203125,47.9296875 20.91796875,48.10546875 20.33203125,47.9296875 17.40234375,46.611328125 20.1837139129639,44.7747802734375 22.5219707489014,42.69287109375 24.4171123504639,40.3656005859375 25.869140625,37.79296875 27.2973613739014,33.74267578125 27.94921875,29.033203125 19.306640625,29.033203125 14.70703125,29.0771484375 11.455078125,29.208984375 10.9863271713257,29.01123046875 10.751953125,28.41796875 10.48828125,25.751953125 14.765625,25.9716815948486 19.453125,26.044921875 28.06640625,26.044921875 28.0664043426514,23.4594745635986 28.06640625,21.796875 27.65625,18.251953125z M38.0859375,10.986328125L40.693359375,12.978515625 41.162109375,13.916015625 40.92041015625,14.28955078125 40.1953125,14.53125 38.759765625,14.8828125 37.87353515625,15.17578125 37.5,15.29296875 34.244384765625,16.19384765625 31.5087890625,16.904296875 29.293212890625,17.42431640625 27.59765625,17.75390625 21.45263671875,18.8232421875 15.791015625,19.51171875 15.5859375,19.51171875 14.70703125,18.837890625 13.154296875,16.7578125 19.4970703125,16.0986328125 26.689453125,14.8828125 31.38427734375,13.8134765625 35.0390625,12.71484375 36.7822265625,11.88720703125 38.0859375,10.986328125z M28.623046875,1.9921875L25.081787109375,2.22107148170471 21.6650390625,2.90771770477295 18.372802734375,4.05212593078613 15.205078125,5.654296875 9.814453125,9.814453125 5.654296875,15.205078125 4.0521240234375,18.372802734375 2.90771484375,21.6650390625 2.2210693359375,25.081787109375 1.9921875,28.623046875 2.2210693359375,32.164306640625 2.90771484375,35.5810546875 4.0521240234375,38.873291015625 5.654296875,42.041015625 9.814453125,47.431640625 15.205078125,51.591796875 18.372802734375,53.1939697265625 21.6650390625,54.33837890625 25.081787109375,55.0250244140625 28.623046875,55.25390625 32.164306640625,55.0250244140625 35.5810546875,54.33837890625 38.873291015625,53.1939697265625 42.041015625,51.591796875 47.4316368103027,47.431640625 51.591796875,42.041015625 53.1939659118652,38.873291015625 54.3383750915527,35.5810546875 55.0250205993652,32.164306640625 55.25390625,28.623046875 55.0250205993652,25.081787109375 54.3383750915527,21.6650390625 53.1939659118652,18.372802734375 51.591796875,15.205078125 47.4316368103027,9.814453125 42.041015625,5.654296875 38.873291015625,4.05212593078613 35.5810546875,2.90771770477295 32.164306640625,2.22107148170471 28.623046875,1.9921875z M28.623046875,0L32.4371337890625,0.245363473892212 36.11572265625,0.981448173522949 39.6588134765625,2.20825409889221 43.06640625,3.92578101158142 48.8671836853027,8.37890625 53.3203125,14.1796875 55.0378379821777,17.5872802734375 56.2646446228027,21.13037109375 57.0007286071777,24.8089599609375 57.24609375,28.623046875 57.0007286071777,32.4371337890625 56.2646446228027,36.11572265625 55.0378379821777,39.6588134765625 53.3203125,43.06640625 48.8671836853027,48.8671875 43.06640625,53.3203125 39.6588134765625,55.037841796875 36.11572265625,56.2646484375 32.4371337890625,57.000732421875 28.623046875,57.24609375 24.8089599609375,57.000732421875 21.13037109375,56.2646484375 17.5872802734375,55.037841796875 14.1796875,53.3203125 8.37890625,48.8671875 3.92578125,43.06640625 2.208251953125,39.6588134765625 0.9814453125,36.11572265625 0.245361328125,32.4371337890625 0,28.623046875 0.245361328125,24.8089599609375 0.9814453125,21.13037109375 2.208251953125,17.5872802734375 3.92578125,14.1796875 8.37890625,8.37890625 14.1796875,3.92578101158142 17.5872802734375,2.20825409889221 21.13037109375,0.981448173522949 24.8089599609375,0.245363473892212 28.623046875,0z" />
    </g>
  </g>
</svg>