<?xml version="1.0" encoding="utf-8"?>
<!DOCTYPE svg PUBLIC "-//W3C//DTD SVG 1.1//EN" "http://www.w3.org/Graphics/SVG/1.1/DTD/svg11.dtd">
<svg width="57.24609375" height="57.24609375" xmlns="http://www.w3.org/2000/svg" xmlns:xlink="http://www.w3.org/1999/xlink" xmlns:xml="http://www.w3.org/XML/1998/namespace" version="1.1">
  <g>
    <g>
      <path style="fill:#FF0000;fill-opacity:1" d="M26.455078125,7.79296922683716L28.7036113739014,8.67919921875 30.05859375,9.345703125 30.498046875,9.990234375 30,10.72265625 28.740234375,12.36328125 28.0590801239014,13.4619140625 27.01171875,15 37.32421875,14.82421875 38.8330078125,14.64111328125 39.90234375,14.267578125 40.576171875,14.033203125 41.220703125,14.267578125 43.271484375,16.142578125 43.53515625,16.728515625 43.06640625,17.4609375 42.01171875,18.837890625 38.4375,25.5468769073486 34.5703125,31.142578125 37.6611328125,33.7939453125 40.078125,36.298828125 40.25390625,36.708984375 40.078125,37.1484375 39.63134765625,37.59521484375 38.349609375,38.876953125 37.91015625,39.052734375 37.55859375,38.818359375 35.2734375,36.4013671875 32.40234375,33.779296875 25.1879863739014,40.6201171875 16.552734375,46.318359375 15.703125,46.552734375 15.05859375,46.318359375 12.3046875,44.70703125 17.4060039520264,41.9073486328125 22.0165996551514,38.81103515625 26.1364727020264,35.4180908203125 29.765625,31.728515625 26.5429668426514,29.40673828125 22.3828125,27.0703125 23.02734375,26.337890625 24.228515625,25.01953125 24.638671875,24.78515625 25.078125,24.90234375 27.8832988739014,26.4770526885986 31.845703125,29.091796875 35.478515625,23.8403339385986 38.525390625,17.6953125 25.1953125,17.9296875 20.126953125,23.9428730010986 15,28.798828125 14.326171875,29.091796875 13.798828125,28.857421875 12.7294912338257,28.20556640625 11.220703125,27.48046875 15.1885986328125,24.17724609375 18.71337890625,20.625 21.7950439453125,16.82373046875 24.43359375,12.7734375 25.6860332489014,10.1806640625 26.455078125,7.79296922683716z M28.623046875,1.9921875L25.081787109375,2.22107148170471 21.6650390625,2.90771770477295 18.372802734375,4.05212593078613 15.205078125,5.654296875 9.814453125,9.814453125 5.654296875,15.205078125 4.0521240234375,18.372802734375 2.90771484375,21.6650390625 2.2210693359375,25.081787109375 1.9921875,28.623046875 2.2210693359375,32.164306640625 2.90771484375,35.5810546875 4.0521240234375,38.873291015625 5.654296875,42.041015625 9.814453125,47.431640625 15.205078125,51.591796875 18.372802734375,53.1939697265625 21.6650390625,54.33837890625 25.081787109375,55.0250244140625 28.623046875,55.25390625 32.164306640625,55.0250244140625 35.5810546875,54.33837890625 38.873291015625,53.1939697265625 42.041015625,51.591796875 47.4316368103027,47.431640625 51.591796875,42.041015625 53.1939659118652,38.873291015625 54.3383750915527,35.5810546875 55.0250205993652,32.164306640625 55.25390625,28.623046875 55.0250205993652,25.081787109375 54.3383750915527,21.6650390625 53.1939659118652,18.372802734375 51.591796875,15.205078125 47.4316368103027,9.814453125 42.041015625,5.654296875 38.873291015625,4.05212593078613 35.5810546875,2.90771770477295 32.164306640625,2.22107148170471 28.623046875,1.9921875z M28.623046875,0L32.4371337890625,0.245363473892212 36.11572265625,0.981448173522949 39.6588134765625,2.20825409889221 43.06640625,3.92578101158142 48.8671836853027,8.37890625 53.3203125,14.1796875 55.0378379821777,17.5872802734375 56.2646446228027,21.13037109375 57.0007286071777,24.8089599609375 57.24609375,28.623046875 57.0007286071777,32.4371337890625 56.2646446228027,36.11572265625 55.0378379821777,39.6588134765625 53.3203125,43.06640625 48.8671836853027,48.8671875 43.06640625,53.3203125 39.6588134765625,55.037841796875 36.11572265625,56.2646484375 32.4371337890625,57.000732421875 28.623046875,57.24609375 24.8089599609375,57.000732421875 21.13037109375,56.2646484375 17.5872802734375,55.037841796875 14.1796875,53.3203125 8.37890625,48.8671875 3.92578125,43.06640625 2.208251953125,39.6588134765625 0.9814453125,36.11572265625 0.245361328125,32.4371337890625 0,28.623046875 0.245361328125,24.8089599609375 0.9814453125,21.13037109375 2.208251953125,17.5872802734375 3.92578125,14.1796875 8.37890625,8.37890625 14.1796875,3.92578101158142 17.5872802734375,2.20825409889221 21.13037109375,0.981448173522949 24.8089599609375,0.245363473892212 28.623046875,0z" />
    </g>
  </g>
</svg>