<?xml version="1.0" encoding="utf-8"?>
<!DOCTYPE svg PUBLIC "-//W3C//DTD SVG 1.1//EN" "http://www.w3.org/Graphics/SVG/1.1/DTD/svg11.dtd">
<svg width="57.24609375" height="57.24609375" xmlns="http://www.w3.org/2000/svg" xmlns:xlink="http://www.w3.org/1999/xlink" xmlns:xml="http://www.w3.org/XML/1998/namespace" version="1.1">
  <g>
    <g>
      <path style="fill:#FF0000;fill-opacity:1" d="M41.162109375,22.03125L41.748046875,22.265625 43.59375,24.052734375 43.916015625,24.755859375 43.53515625,25.4296875 42.421875,27.01171875 38.7890625,33.66943359375 34.27734375,39.404296875 28.88671875,44.21630859375 22.6171875,48.10546875 22.001953125,48.251953125 21.298828125,47.9296875 20.2880859375,47.23388671875 18.603515625,46.376953125 25.587158203125,42.374267578125 31.3037109375,37.6025390625 35.753173828125,32.061767578125 38.935546875,25.751953125 21.474609375,25.810546875 17.35107421875,25.8544940948486 14.70703125,25.986328125 13.974609375,25.3125 13.681640625,22.265625 21.591796875,22.55859375 38.408203125,22.55859375 39.74853515625,22.4707050323486 40.6640625,22.20703125 41.162109375,22.03125z M17.75390625,12.5390625L20.9912109375,12.71484375 25.3125,12.7734375 32.63671875,12.7734375 36.97265625,12.7294921875 39.90234375,12.59765625 40.37109375,13.06640625 40.4296875,14.23828125 40.37109375,15.41015625 39.78515625,16.083984375 36.0205078125,15.99609375 32.87109375,15.966796875 25.13671875,15.966796875 24.5342998504639,15.977783203125 23.2250957489014,16.0107421875 21.2091045379639,16.065673828125 18.486328125,16.142578125 17.9296875,15.41015625 17.7978515625,14.208984375 17.75390625,12.5390625z M28.623046875,1.9921875L25.081787109375,2.22107148170471 21.6650390625,2.90771770477295 18.372802734375,4.05212593078613 15.205078125,5.654296875 9.814453125,9.814453125 5.654296875,15.205078125 4.0521240234375,18.372802734375 2.90771484375,21.6650390625 2.2210693359375,25.081787109375 1.9921875,28.623046875 2.2210693359375,32.164306640625 2.90771484375,35.5810546875 4.0521240234375,38.873291015625 5.654296875,42.041015625 9.814453125,47.431640625 15.205078125,51.591796875 18.372802734375,53.1939697265625 21.6650390625,54.33837890625 25.081787109375,55.0250244140625 28.623046875,55.25390625 32.164306640625,55.0250244140625 35.5810546875,54.33837890625 38.873291015625,53.1939697265625 42.041015625,51.591796875 47.4316368103027,47.431640625 51.591796875,42.041015625 53.1939659118652,38.873291015625 54.3383750915527,35.5810546875 55.0250205993652,32.164306640625 55.25390625,28.623046875 55.0250205993652,25.081787109375 54.3383750915527,21.6650390625 53.1939659118652,18.372802734375 51.591796875,15.205078125 47.4316368103027,9.814453125 42.041015625,5.654296875 38.873291015625,4.05212593078613 35.5810546875,2.90771770477295 32.164306640625,2.22107148170471 28.623046875,1.9921875z M28.623046875,0L32.4371337890625,0.245363473892212 36.11572265625,0.981448173522949 39.6588134765625,2.20825409889221 43.06640625,3.92578101158142 48.8671836853027,8.37890625 53.3203125,14.1796875 55.0378379821777,17.5872802734375 56.2646446228027,21.13037109375 57.0007286071777,24.8089599609375 57.24609375,28.623046875 57.0007286071777,32.4371337890625 56.2646446228027,36.11572265625 55.0378379821777,39.6588134765625 53.3203125,43.06640625 48.8671836853027,48.8671875 43.06640625,53.3203125 39.6588134765625,55.037841796875 36.11572265625,56.2646484375 32.4371337890625,57.000732421875 28.623046875,57.24609375 24.8089599609375,57.000732421875 21.13037109375,56.2646484375 17.5872802734375,55.037841796875 14.1796875,53.3203125 8.37890625,48.8671875 3.92578125,43.06640625 2.208251953125,39.6588134765625 0.9814453125,36.11572265625 0.245361328125,32.4371337890625 0,28.623046875 0.245361328125,24.8089599609375 0.9814453125,21.13037109375 2.208251953125,17.5872802734375 3.92578125,14.1796875 8.37890625,8.37890625 14.1796875,3.92578101158142 17.5872802734375,2.20825409889221 21.13037109375,0.981448173522949 24.8089599609375,0.245363473892212 28.623046875,0z" />
    </g>
  </g>
</svg>