<?xml version="1.0" encoding="utf-8"?>
<!DOCTYPE svg PUBLIC "-//W3C//DTD SVG 1.1//EN" "http://www.w3.org/Graphics/SVG/1.1/DTD/svg11.dtd">
<svg width="57.24609375" height="57.24609375" xmlns="http://www.w3.org/2000/svg" xmlns:xlink="http://www.w3.org/1999/xlink" xmlns:xml="http://www.w3.org/XML/1998/namespace" version="1.1">
  <g>
    <g>
      <path style="fill:#FF0000;fill-opacity:1" d="M38.61328125,13.154296875L39.228515625,13.388671875 41.162109375,15.439453125 41.337890625,15.9375 40.927734375,16.58203125 39.462890625,18.45703125 36.32080078125,23.5913105010986 32.8125,28.212890625 39.83642578125,33.83056640625 46.142578125,39.84375 46.494140625,40.4296875 46.201171875,40.986328125 44.4140625,42.802734375 44.00390625,43.0078125 43.505859375,42.685546875 37.6904296875,36.6796875 30.673828125,30.849609375 22.7636699676514,38.056640625 14.208984375,43.798828125 13.505859375,44.00390625 12.94921875,43.740234375 11.9238271713257,42.79541015625 10.37109375,41.77734375 15.208740234375,39.078369140625 19.6435546875,36.1083984375 23.675537109375,32.867431640625 27.3046875,29.35546875 32.08740234375,23.5253925323486 36.240234375,16.875 22.3828125,16.875 18.64013671875,16.95556640625 15.673828125,17.197265625 15.52734375,17.197265625 15.05859375,16.640625 14.8388671875,15.24169921875 14.765625,13.447265625 22.08984375,13.623046875 35.56640625,13.623046875 37.2216796875,13.53515625 38.14453125,13.271484375 38.61328125,13.154296875z M28.623046875,1.9921875L25.081787109375,2.22107148170471 21.6650390625,2.90771770477295 18.372802734375,4.05212593078613 15.205078125,5.654296875 9.814453125,9.814453125 5.654296875,15.205078125 4.0521240234375,18.372802734375 2.90771484375,21.6650390625 2.2210693359375,25.081787109375 1.9921875,28.623046875 2.2210693359375,32.164306640625 2.90771484375,35.5810546875 4.0521240234375,38.873291015625 5.654296875,42.041015625 9.814453125,47.431640625 15.205078125,51.591796875 18.372802734375,53.1939697265625 21.6650390625,54.33837890625 25.081787109375,55.0250244140625 28.623046875,55.25390625 32.164306640625,55.0250244140625 35.5810546875,54.33837890625 38.873291015625,53.1939697265625 42.041015625,51.591796875 47.4316368103027,47.431640625 51.591796875,42.041015625 53.1939659118652,38.873291015625 54.3383750915527,35.5810546875 55.0250205993652,32.164306640625 55.25390625,28.623046875 55.0250205993652,25.081787109375 54.3383750915527,21.6650390625 53.1939659118652,18.372802734375 51.591796875,15.205078125 47.4316368103027,9.814453125 42.041015625,5.654296875 38.873291015625,4.05212593078613 35.5810546875,2.90771770477295 32.164306640625,2.22107148170471 28.623046875,1.9921875z M28.623046875,0L32.4371337890625,0.245363473892212 36.11572265625,0.981448173522949 39.6588134765625,2.20825409889221 43.06640625,3.92578101158142 48.8671836853027,8.37890625 53.3203125,14.1796875 55.0378379821777,17.5872802734375 56.2646446228027,21.13037109375 57.0007286071777,24.8089599609375 57.24609375,28.623046875 57.0007286071777,32.4371337890625 56.2646446228027,36.11572265625 55.0378379821777,39.6588134765625 53.3203125,43.06640625 48.8671836853027,48.8671875 43.06640625,53.3203125 39.6588134765625,55.037841796875 36.11572265625,56.2646484375 32.4371337890625,57.000732421875 28.623046875,57.24609375 24.8089599609375,57.000732421875 21.13037109375,56.2646484375 17.5872802734375,55.037841796875 14.1796875,53.3203125 8.37890625,48.8671875 3.92578125,43.06640625 2.208251953125,39.6588134765625 0.9814453125,36.11572265625 0.245361328125,32.4371337890625 0,28.623046875 0.245361328125,24.8089599609375 0.9814453125,21.13037109375 2.208251953125,17.5872802734375 3.92578125,14.1796875 8.37890625,8.37890625 14.1796875,3.92578101158142 17.5872802734375,2.20825409889221 21.13037109375,0.981448173522949 24.8089599609375,0.245363473892212 28.623046875,0z" />
    </g>
  </g>
</svg>