<?xml version="1.0" encoding="utf-8"?>
<!DOCTYPE svg PUBLIC "-//W3C//DTD SVG 1.1//EN" "http://www.w3.org/Graphics/SVG/1.1/DTD/svg11.dtd">
<svg width="57.24609375" height="57.24609375" xmlns="http://www.w3.org/2000/svg" xmlns:xlink="http://www.w3.org/1999/xlink" xmlns:xml="http://www.w3.org/XML/1998/namespace" version="1.1">
  <g>
    <g>
      <path style="fill:#FF0000;fill-opacity:1" d="M36.796875,29.208984375L37.20703125,29.326171875 42.6416015625,32.01416015625 47.4609375,35.09765625 47.8125,35.625 47.6953125,36.005859375 46.63330078125,37.4560546875 46.201171875,38.056640625 45.8203125,38.291015625 45.29296875,38.056640625 40.6640625,34.74609375 34.8046875,31.669921875 36.416015625,29.443359375 36.796875,29.208984375z M38.232421875,17.783203125L38.876953125,18.134765625 39.4775390625,18.74267578125 40.400390625,19.86328125 40.546875,20.361328125 40.01953125,21.064453125 38.701171875,21.97265625 34.921875,25.7739276885986 31.083984375,29.150390625 31.083984375,38.994140625 31.1279296875,43.70361328125 31.259765625,47.34375 30.5859375,47.87109375 29.326171875,47.9296875 28.06640625,47.87109375 27.421875,47.28515625 27.5244121551514,43.6688232421875 27.5976543426514,41.08154296875 27.6415996551514,39.5233154296875 27.65625,38.994140625 27.65625,31.669921875 20.5810546875,36.48193359375 13.06640625,40.6640625 12.509765625,40.810546875 11.748046875,40.4296875 9.287109375,38.759765625 14.0386962890625,36.45263671875 18.36181640625,34.1015625 22.2564697265625,31.70654296875 25.72265625,29.267578125 30.7763671875,25.2978534698486 34.921875,21.298828125 21.767578125,21.416015625 15.849609375,21.73828125 15.673828125,21.73828125 15.05859375,21.181640625 14.82421875,19.43115234375 14.70703125,18.10546875 21.357421875,18.427734375 34.072265625,18.369140625 36.32080078125,18.25927734375 37.6171875,17.9296875 38.232421875,17.783203125z M24.9609375,7.93945264816284L25.3125,8.02734375 30.46875,9.85107421875 34.62890625,11.865234375 34.98046875,12.24609375 34.86328125,12.65625 33.720703125,14.619140625 33.28125,14.970703125 32.75390625,14.794921875 28.4765605926514,12.66357421875 22.96875,10.60546875 23.818359375,9.287109375 24.1992168426514,8.60595703125 24.345703125,8.3203125 24.9609375,7.93945264816284z M28.623046875,1.9921875L25.081787109375,2.22107148170471 21.6650390625,2.90771770477295 18.372802734375,4.05212593078613 15.205078125,5.654296875 9.814453125,9.814453125 5.654296875,15.205078125 4.0521240234375,18.372802734375 2.90771484375,21.6650390625 2.2210693359375,25.081787109375 1.9921875,28.623046875 2.2210693359375,32.164306640625 2.90771484375,35.5810546875 4.0521240234375,38.873291015625 5.654296875,42.041015625 9.814453125,47.431640625 15.205078125,51.591796875 18.372802734375,53.1939697265625 21.6650390625,54.33837890625 25.081787109375,55.0250244140625 28.623046875,55.25390625 32.164306640625,55.0250244140625 35.5810546875,54.33837890625 38.873291015625,53.1939697265625 42.041015625,51.591796875 47.4316368103027,47.431640625 51.591796875,42.041015625 53.1939659118652,38.873291015625 54.3383750915527,35.5810546875 55.0250205993652,32.164306640625 55.25390625,28.623046875 55.0250205993652,25.081787109375 54.3383750915527,21.6650390625 53.1939659118652,18.372802734375 51.591796875,15.205078125 47.4316368103027,9.814453125 42.041015625,5.654296875 38.873291015625,4.05212593078613 35.5810546875,2.90771770477295 32.164306640625,2.22107148170471 28.623046875,1.9921875z M28.623046875,0L32.4371337890625,0.245363473892212 36.11572265625,0.981448173522949 39.6588134765625,2.20825409889221 43.06640625,3.92578101158142 48.8671836853027,8.37890625 53.3203125,14.1796875 55.0378379821777,17.5872802734375 56.2646446228027,21.13037109375 57.0007286071777,24.8089599609375 57.24609375,28.623046875 57.0007286071777,32.4371337890625 56.2646446228027,36.11572265625 55.0378379821777,39.6588134765625 53.3203125,43.06640625 48.8671836853027,48.8671875 43.06640625,53.3203125 39.6588134765625,55.037841796875 36.11572265625,56.2646484375 32.4371337890625,57.000732421875 28.623046875,57.24609375 24.8089599609375,57.000732421875 21.13037109375,56.2646484375 17.5872802734375,55.037841796875 14.1796875,53.3203125 8.37890625,48.8671875 3.92578125,43.06640625 2.208251953125,39.6588134765625 0.9814453125,36.11572265625 0.245361328125,32.4371337890625 0,28.623046875 0.245361328125,24.8089599609375 0.9814453125,21.13037109375 2.208251953125,17.5872802734375 3.92578125,14.1796875 8.37890625,8.37890625 14.1796875,3.92578101158142 17.5872802734375,2.20825409889221 21.13037109375,0.981448173522949 24.8089599609375,0.245363473892212 28.623046875,0z" />
    </g>
  </g>
</svg>