<?xml version="1.0" encoding="utf-8"?>
<!DOCTYPE svg PUBLIC "-//W3C//DTD SVG 1.1//EN" "http://www.w3.org/Graphics/SVG/1.1/DTD/svg11.dtd">
<svg width="57.24609375" height="57.24609375" xmlns="http://www.w3.org/2000/svg" xmlns:xlink="http://www.w3.org/1999/xlink" xmlns:xml="http://www.w3.org/XML/1998/namespace" version="1.1">
  <g>
    <g>
      <path style="fill:#FF0000;fill-opacity:1" d="M14.091796875,16.2890625L14.58984375,16.611328125 17.2265625,20.38330078125 19.51171875,24.90234375 19.6875,25.458984375 19.3359375,25.8984375 17.109375,26.923828125 16.69921875,27.01171875 16.142578125,26.513671875 13.8134765625,21.7456073760986 11.103515625,17.8125 13.740234375,16.435546875 14.091796875,16.2890625z M41.455078125,14.58984375L45.556640625,16.435546875 45.908203125,17.080078125 45.673828125,17.6953125 44.80224609375,18.8232421875 43.9453125,20.625 41.9183349609375,25.030517578125 39.82177734375,29.0185546875 37.6556396484375,32.589111328125 35.419921875,35.7421875 29.58251953125,42.1875 22.91015625,47.51953125 22.1484375,47.8125 21.591796875,47.578125 18.603515625,46.201171875 22.6300029754639,43.414306640625 26.2719707489014,40.4150390625 29.5294170379639,37.203369140625 32.40234375,33.779296875 36.708984375,27.25341796875 40.1953125,19.6875 41.455078125,14.58984375z M25.810546875,13.447265625L26.337890625,13.798828125 28.8281230926514,17.83447265625 30.732421875,22.1484375 30.8203125,22.587890625 30.46875,23.0859375 28.212890625,24.111328125 27.7734375,24.2578125 27.3046875,23.759765625 25.3417949676514,19.15283203125 22.734375,14.82421875 24.7119121551514,13.89404296875 25.4296875,13.564453125 25.810546875,13.447265625z M28.623046875,1.9921875L25.081787109375,2.22107148170471 21.6650390625,2.90771770477295 18.372802734375,4.05212593078613 15.205078125,5.654296875 9.814453125,9.814453125 5.654296875,15.205078125 4.0521240234375,18.372802734375 2.90771484375,21.6650390625 2.2210693359375,25.081787109375 1.9921875,28.623046875 2.2210693359375,32.164306640625 2.90771484375,35.5810546875 4.0521240234375,38.873291015625 5.654296875,42.041015625 9.814453125,47.431640625 15.205078125,51.591796875 18.372802734375,53.1939697265625 21.6650390625,54.33837890625 25.081787109375,55.0250244140625 28.623046875,55.25390625 32.164306640625,55.0250244140625 35.5810546875,54.33837890625 38.873291015625,53.1939697265625 42.041015625,51.591796875 47.4316368103027,47.431640625 51.591796875,42.041015625 53.1939659118652,38.873291015625 54.3383750915527,35.5810546875 55.0250205993652,32.164306640625 55.25390625,28.623046875 55.0250205993652,25.081787109375 54.3383750915527,21.6650390625 53.1939659118652,18.372802734375 51.591796875,15.205078125 47.4316368103027,9.814453125 42.041015625,5.654296875 38.873291015625,4.05212593078613 35.5810546875,2.90771770477295 32.164306640625,2.22107148170471 28.623046875,1.9921875z M28.623046875,0L32.4371337890625,0.245363473892212 36.11572265625,0.981448173522949 39.6588134765625,2.20825409889221 43.06640625,3.92578101158142 48.8671836853027,8.37890625 53.3203125,14.1796875 55.0378379821777,17.5872802734375 56.2646446228027,21.13037109375 57.0007286071777,24.8089599609375 57.24609375,28.623046875 57.0007286071777,32.4371337890625 56.2646446228027,36.11572265625 55.0378379821777,39.6588134765625 53.3203125,43.06640625 48.8671836853027,48.8671875 43.06640625,53.3203125 39.6588134765625,55.037841796875 36.11572265625,56.2646484375 32.4371337890625,57.000732421875 28.623046875,57.24609375 24.8089599609375,57.000732421875 21.13037109375,56.2646484375 17.5872802734375,55.037841796875 14.1796875,53.3203125 8.37890625,48.8671875 3.92578125,43.06640625 2.208251953125,39.6588134765625 0.9814453125,36.11572265625 0.245361328125,32.4371337890625 0,28.623046875 0.245361328125,24.8089599609375 0.9814453125,21.13037109375 2.208251953125,17.5872802734375 3.92578125,14.1796875 8.37890625,8.37890625 14.1796875,3.92578101158142 17.5872802734375,2.20825409889221 21.13037109375,0.981448173522949 24.8089599609375,0.245363473892212 28.623046875,0z" />
    </g>
  </g>
</svg>