<?xml version="1.0" encoding="utf-8"?>
<!DOCTYPE svg PUBLIC "-//W3C//DTD SVG 1.1//EN" "http://www.w3.org/Graphics/SVG/1.1/DTD/svg11.dtd">
<svg width="28.857421875" height="49.74609375" xmlns="http://www.w3.org/2000/svg" xmlns:xlink="http://www.w3.org/1999/xlink" xmlns:xml="http://www.w3.org/XML/1998/namespace" version="1.1">
  <g>
    <g>
      <path style="fill:#FF0000;fill-opacity:1" d="M0.615233898162842,45.87890625L28.154296875,45.87890625 28.154296875,49.74609375 0.615233898162842,49.74609375 0.615233898162842,45.87890625z M0.615233898162842,37.265625L28.154296875,37.265625 28.154296875,41.1328125 0.615233898162842,41.1328125 0.615233898162842,37.265625z M28.18359375,11.337890625L28.18359375,15.615234375 8.90625,23.173828125 8.90625,23.642578125 28.18359375,31.201171875 28.18359375,35.478515625 0.644530773162842,24.2578125 0.644530773162842,22.55859375 28.18359375,11.337890625z M8.203125,0L9.8858642578125,0.19775390625 11.74072265625,0.791015625 13.7677001953125,1.77978515625 15.966796875,3.1640625 18.5229473114014,4.6142578125 20.625,5.09765625 22.4304180145264,4.779052734375 23.7451152801514,3.8232421875 24.5690898895264,2.230224609375 24.90234375,0 28.857421875,0 28.1982421875,3.7646484375 26.54296875,6.62109375 23.994140625,8.4228515625 20.625,9.052734375 17.3364238739014,8.408203125 13.740234375,6.474609375 10.37841796875,4.47509765625 7.96874952316284,3.80859375 6.35742139816284,4.189453125 5.09765577316284,5.2734375 4.27734327316284,6.943359375 3.95507764816284,9.052734375 0,9.052734375 0.688475787639618,5.211181640625 2.34374952316284,2.3583984375 4.87792921066284,0.589599609375 8.203125,0z" />
    </g>
  </g>
</svg>