<?xml version="1.0" encoding="utf-8"?>
<!DOCTYPE svg PUBLIC "-//W3C//DTD SVG 1.1//EN" "http://www.w3.org/Graphics/SVG/1.1/DTD/svg11.dtd">
<svg width="39.3164062500007" height="16.787109375" xmlns="http://www.w3.org/2000/svg" xmlns:xlink="http://www.w3.org/1999/xlink" xmlns:xml="http://www.w3.org/XML/1998/namespace" version="1.1">
  <g>
    <g>
      <path style="fill:#FF0000;fill-opacity:1" d="M10.78125,0L13.6083984375,0.30029296875 16.0546875,1.201171875 18.0834941864014,2.62939453125 19.658203125,4.51171875 21.2878398895264,2.62939453125 23.3642578125,1.201171875 25.843505859375,0.30029296875 28.681640625,0 30.99609375,0.201416015625 33.076171875,0.8056640625 36.4306640625,3.0615234375 38.5693359375,6.50390625 39.31640625,10.83984375 39.31640625,16.787109375 35.80078125,16.787109375 35.80078125,12.041015625 35.364990234375,8.32763671875 34.0576171875,5.56640625 31.798095703125,3.8525390625 28.505859375,3.28125 25.25390625,3.8671875 23.056640625,5.56640625 21.8115234375,8.3056640625 21.416015625,12.041015625 21.416015625,16.787109375 17.900390625,16.787109375 17.900390625,12.041015625 17.4645977020264,8.32763671875 16.1572265625,5.56640625 13.897705078125,3.8525390625 10.60546875,3.28125 7.353515625,3.8671875 5.15625,5.56640625 3.9111328125,8.3056640625 3.515625,12.041015625 3.515625,16.787109375 0,16.787109375 0,10.83984375 0.190429329872131,8.587646484375 0.76171875,6.5185546875 2.9296875,3.0908203125 6.328125,0.8203125 8.43749904632568,0.205078125 10.78125,0z" />
    </g>
  </g>
</svg>