<?xml version="1.0" encoding="utf-8"?>
<!DOCTYPE svg PUBLIC "-//W3C//DTD SVG 1.1//EN" "http://www.w3.org/Graphics/SVG/1.1/DTD/svg11.dtd">
<svg width="27.5390625" height="38.759765625" xmlns="http://www.w3.org/2000/svg" xmlns:xlink="http://www.w3.org/1999/xlink" xmlns:xml="http://www.w3.org/XML/1998/namespace" version="1.1">
  <g>
    <g>
      <path style="fill:#FF0000;fill-opacity:1" d="M23.115234375,20.478515625L24.3896484375,20.7421875 25.4443359375,21.4599609375 26.162109375,22.5146484375 26.42578125,23.7890625 26.162109375,25.0634765625 25.4443359375,26.103515625 24.3896484375,26.806640625 23.115234375,27.0703125 21.85546875,26.806640625 20.830078125,26.103515625 20.126953125,25.0634765625 19.86328125,23.7890625 20.126953125,22.4853515625 20.830078125,21.4453125 21.85546875,20.7421875 23.115234375,20.478515625z M27.5390625,8.935546875L27.5390625,13.30078125 6.38671922683716,23.7890625 6.38671922683716,23.90625 27.5390625,34.365234375 27.5390625,38.759765625 0,24.638671875 0,23.056640625 27.5390625,8.935546875z M27.5390625,0L27.5390625,4.365234375 0,18.45703125 0,14.12109375 27.5390625,0z" />
    </g>
  </g>
</svg>