<?xml version="1.0" encoding="utf-8"?>
<!DOCTYPE svg PUBLIC "-//W3C//DTD SVG 1.1//EN" "http://www.w3.org/Graphics/SVG/1.1/DTD/svg11.dtd">
<svg width="30.41015625" height="38.291015625" xmlns="http://www.w3.org/2000/svg" xmlns:xlink="http://www.w3.org/1999/xlink" xmlns:xml="http://www.w3.org/XML/1998/namespace" version="1.1">
  <g>
    <g>
      <path style="fill:#FF0000;fill-opacity:1" d="M24.31640625,19.248046875L26.54296875,19.5849609375 28.359375,20.5517578125 29.5751953125,22.1337890625 30.029296875,24.31640625 29.794921875,26.337890625 29.033203125,28.06640625 27.65625,29.6337890625 25.576171875,31.171875 23.7890625,32.3291015625 22.4560546875,33.3544921875 21.6357421875,34.4091796875 21.357421875,35.654296875 30.41015625,35.654296875 30.41015625,38.291015625 18.251953125,38.291015625 18.251953125,36.50390625 18.662109375,34.3212890625 19.7900390625,32.5341796875 21.4599609375,31.025390625 23.49609375,29.6484375 25.2392578125,28.4033203125 26.3232421875,27.216796875 26.865234375,26.015625 27.01171875,24.66796875 26.8359375,23.671875 26.279296875,22.79296875 25.341796875,22.177734375 24.0234375,21.943359375 21.50390625,22.5439453125 19.27734375,24.111328125 19.27734375,20.91796875 21.5185546875,19.62890625 24.31640625,19.248046875z M11.806640625,0L15.703125,0 15.703125,11.806640625 27.5390625,11.806640625 27.5390625,15.732421875 15.703125,15.732421875 15.703125,27.5390625 11.806640625,27.5390625 11.806640625,15.732421875 0,15.732421875 0,11.806640625 11.806640625,11.806640625 11.806640625,0z" />
    </g>
  </g>
</svg>