<?xml version="1.0" encoding="utf-8"?>
<!DOCTYPE svg PUBLIC "-//W3C//DTD SVG 1.1//EN" "http://www.w3.org/Graphics/SVG/1.1/DTD/svg11.dtd">
<svg width="27.5390625" height="37.294921875" xmlns="http://www.w3.org/2000/svg" xmlns:xlink="http://www.w3.org/1999/xlink" xmlns:xml="http://www.w3.org/XML/1998/namespace" version="1.1">
  <g>
    <g>
      <path style="fill:#FF0000;fill-opacity:1" d="M7.6171875,10.810546875L8.84765625,11.2646484375 9.31640625,12.392578125 8.84765625,13.4912109375 7.6171875,13.9453125 6.357421875,13.4765625 5.859375,12.392578125 6.3427734375,11.2646484375 7.6171875,10.810546875z M27.5390625,7.470703125L27.5390625,11.865234375 6.38671875,22.32421875 6.38671875,22.44140625 27.5390625,32.9296875 27.5390625,37.294921875 0,23.173828125 0,21.591796875 27.5390625,7.470703125z M7.67578125,0L9.31640625,0.1904296875 10.634765625,0.791015625 11.513671875,1.8603515625 11.8359375,3.427734375 11.7041015625,4.4677734375 11.3232421875,5.3173828125 10.693359375,6.09375 9.814453125,6.9140625 8.818359375,7.8515625 8.49609375,8.96484375 8.701171875,9.78515625 6.2109375,9.78515625 6.09375,9.2578125 6.03515625,8.671875 6.3720703125,7.20703125 7.3828125,6.064453125 8.4814453125,4.98046875 8.84765625,3.80859375 8.4521484375,2.841796875 7.353515625,2.490234375 5.830078125,2.783203125 4.365234375,3.69140625 4.365234375,0.849609375 5.91796875,0.205078125 7.67578125,0z" />
    </g>
  </g>
</svg>