<?xml version="1.0" encoding="utf-8"?>
<!DOCTYPE svg PUBLIC "-//W3C//DTD SVG 1.1//EN" "http://www.w3.org/Graphics/SVG/1.1/DTD/svg11.dtd">
<svg width="22.734375" height="60.087890625" xmlns="http://www.w3.org/2000/svg" xmlns:xlink="http://www.w3.org/1999/xlink" xmlns:xml="http://www.w3.org/XML/1998/namespace" version="1.1">
  <g>
    <g>
      <path style="fill:#FF0000;fill-opacity:1" d="M0,56.162109375L22.734375,56.162109375 22.734375,60.087890625 0,60.087890625 0,56.162109375z M18.486328125,0L20.4638652801514,0.1318359375 21.943359375,0.52734375 21.943359375,4.86328125 20.5078105926514,4.27001953125 18.720703125,4.072265625 16.541748046875,4.4696044921875 14.9853515625,5.66162109375 14.051513671875,7.6483154296875 13.740234375,10.4296875 13.740234375,42.12890625 12.9931640625,46.376953125 10.9423828125,49.5703125 7.8955078125,51.5771484375 4.189453125,52.265625 2.20458984375,52.1337890625 0.703124523162842,51.73828125 0.703124523162842,47.40234375 2.1826171875,48.0029296875 3.896484375,48.193359375 6.10107374191284,47.7960205078125 7.67578029632568,46.60400390625 8.62060451507568,44.6173095703125 8.935546875,41.8359375 8.935546875,10.1953125 9.66796875,5.9326171875 11.689453125,2.724609375 14.7216796875,0.703125476837158 18.486328125,0z" />
    </g>
  </g>
</svg>