<?xml version="1.0" encoding="utf-8"?>
<!DOCTYPE svg PUBLIC "-//W3C//DTD SVG 1.1//EN" "http://www.w3.org/Graphics/SVG/1.1/DTD/svg11.dtd">
<svg width="28.857421875" height="33.69140625" xmlns="http://www.w3.org/2000/svg" xmlns:xlink="http://www.w3.org/1999/xlink" xmlns:xml="http://www.w3.org/XML/1998/namespace" version="1.1">
  <g>
    <g>
      <path style="fill:#FF0000;fill-opacity:1" d="M0.673828125,29.82421875L28.212890625,29.82421875 28.212890625,33.69140625 0.673828125,33.69140625 0.673828125,29.82421875z M0.64453125,21.2109375L28.18359375,21.2109375 28.18359375,25.078125 0.64453125,25.078125 0.64453125,21.2109375z M8.232421875,9.521484375L11.52099609375,10.1660175323486 15.1171875,12.099609375 18.4790019989014,14.09912109375 20.888671875,14.765625 22.5,14.384765625 23.759765625,13.30078125 24.580078125,11.630859375 24.90234375,9.521484375 28.857421875,9.521484375 28.1689453125,13.363037109375 26.513671875,16.2158203125 23.9794902801514,17.984619140625 20.654296875,18.57421875 18.9715557098389,18.37646484375 17.1166973114014,17.783203125 15.0897207260132,16.79443359375 12.890625,15.41015625 10.33447265625,13.9599609375 8.232421875,13.4765625 6.427001953125,13.795166015625 5.1123046875,14.7509765625 4.288330078125,16.343994140625 3.955078125,18.57421875 0,18.57421875 0.6591796875,14.8095703125 2.314453125,11.953125 4.86328125,10.1513671875 8.232421875,9.521484375z M8.232421875,0L11.52099609375,0.64453125 15.1171875,2.578125 18.4936504364014,4.55566549301147 20.888671875,5.21484375 22.4999980926514,4.85962057113647 23.759765625,3.7939453125 24.5874004364014,2.13501048088074 24.90234375,0 28.857421875,0 28.1689453125,3.81958150863647 26.513671875,6.6650390625 23.9794902801514,8.43383979797363 20.654296875,9.0234375 18.9715557098389,8.82568454742432 17.1166973114014,8.23242378234863 15.0897207260132,7.24365329742432 12.890625,5.859375 10.29052734375,4.36523580551147 8.232421875,3.8671875 6.427001953125,4.18945407867432 5.1123046875,5.15625143051147 4.288330078125,6.76757907867432 3.955078125,9.0234375 0,9.0234375 0.6591796875,5.244140625 2.3291015625,2.4169921875 4.892578125,0.6298828125 8.232421875,0z" />
    </g>
  </g>
</svg>