<?xml version="1.0" encoding="utf-8"?>
<!DOCTYPE svg PUBLIC "-//W3C//DTD SVG 1.1//EN" "http://www.w3.org/Graphics/SVG/1.1/DTD/svg11.dtd">
<svg width="34.98046875" height="35.0390625" xmlns="http://www.w3.org/2000/svg" xmlns:xlink="http://www.w3.org/1999/xlink" xmlns:xml="http://www.w3.org/XML/1998/namespace" version="1.1">
  <g>
    <g>
      <path style="fill:#FF0000;fill-opacity:1" d="M30.234375,11.19140625L32.2119140625,11.40380859375 34.16015625,12.041015625 34.16015625,15.791015625 31.9189453125,14.6337890625 29.94140625,14.267578125 28.2861328125,14.677734375 27.65625,15.732421875 28.359375,16.962890625 30.322265625,17.87109375 32.109375,18.69140625 33.5302734375,19.7021484375 34.4677734375,21.005859375 34.8046875,22.67578125 34.2919921875,24.7705078125 32.9296875,26.25 30.9375,27.12890625 28.564453125,27.421875 26.279296875,27.1728515625 24.140625,26.3671875 24.140625,22.44140625 26.6162109375,23.86962890625 28.828125,24.345703125 30.69580078125,23.9794921875 31.318359375,22.880859375 31.124267578125,22.203369140625 30.5419921875,21.6943359375 28.681640625,20.80078125 28.271484375,20.625 26.4990234375,19.7607421875 25.1953125,18.80859375 24.404296875,17.578125 24.140625,15.908203125 24.6533203125,13.88671875 26.0302734375,12.4072265625 27.9931640625,11.4990234375 30.234375,11.19140625z M15.52734375,0L19.453125,0 19.453125,31.171875 34.98046875,31.171875 34.98046875,35.0390625 0,35.0390625 0,31.171875 15.52734375,31.171875 15.52734375,0z" />
    </g>
  </g>
</svg>