<?xml version="1.0" encoding="utf-8"?>
<!DOCTYPE svg PUBLIC "-//W3C//DTD SVG 1.1//EN" "http://www.w3.org/Graphics/SVG/1.1/DTD/svg11.dtd">
<svg width="28.6230468750006" height="30.17578125" xmlns="http://www.w3.org/2000/svg" xmlns:xlink="http://www.w3.org/1999/xlink" xmlns:xml="http://www.w3.org/XML/1998/namespace" version="1.1">
  <g>
    <g>
      <path style="fill:#FF0000;fill-opacity:1" d="M12.48046875,0L16.34765625,0 16.34765625,25.78125 20.0353984832764,24.605712890625 22.6611328125,22.2509765625 24.2321758270264,18.651123046875 24.755859375,13.740234375 24.755859375,8.90625 28.623046875,8.90625 28.623046875,15.05859375 28.392333984375,18.25927734375 27.7001953125,21.181640625 26.553955078125,23.770751953125 24.9609375,25.9716796875 22.9248027801514,27.75146484375 20.44921875,29.0771484375 17.5415019989014,29.901123046875 14.208984375,30.17578125 10.8837890625,29.901123046875 7.998046875,29.0771484375 5.55541896820068,27.75146484375 3.5595703125,25.9716796875 2.0068359375,23.770751953125 0.8935546875,21.181640625 0.223388314247131,18.25927734375 0,15.05859375 0,8.90625 3.896484375,8.90625 3.896484375,13.798828125 4.41650390625,18.75732421875 5.9765625,22.3828125 8.642578125,24.71923828125 12.48046875,25.810546875 12.48046875,0z" />
    </g>
  </g>
</svg>