<?xml version="1.0" encoding="utf-8"?>
<!DOCTYPE svg PUBLIC "-//W3C//DTD SVG 1.1//EN" "http://www.w3.org/Graphics/SVG/1.1/DTD/svg11.dtd">
<svg width="27.5390625" height="35.21484375" xmlns="http://www.w3.org/2000/svg" xmlns:xlink="http://www.w3.org/1999/xlink" xmlns:xml="http://www.w3.org/XML/1998/namespace" version="1.1">
  <g>
    <g>
      <path style="fill:#FF0000;fill-opacity:1" d="M18.779296875,28.623046875L20.0537109375,28.88671875 21.1083984375,29.6044921875 21.826171875,30.6591796875 22.08984375,31.93359375 21.826171875,33.2080078125 21.1083984375,34.248046875 20.0537109375,34.951171875 18.779296875,35.21484375 17.51953125,34.951171875 16.494140625,34.248046875 15.791015625,33.2080078125 15.52734375,31.93359375 15.791015625,30.6591796875 16.494140625,29.6044921875 17.51953125,28.88671875 18.779296875,28.623046875z M8.701171875,28.623046875L9.9755859375,28.88671875 11.0302734375,29.6044921875 11.748046875,30.6591796875 12.01171875,31.93359375 11.748046875,33.2080078125 11.0302734375,34.248046875 9.9755859375,34.951171875 8.701171875,35.21484375 7.44140625,34.951171875 6.416015625,34.248046875 5.712890625,33.2080078125 5.44921875,31.93359375 5.712890625,30.6591796875 6.416015625,29.6044921875 7.44140625,28.88671875 8.701171875,28.623046875z M0,21.123046875L27.5390625,21.123046875 27.5390625,24.990234375 0,24.990234375 0,21.123046875z M0,10.400390625L27.5390625,10.400390625 27.5390625,14.267578125 0,14.267578125 0,10.400390625z M18.779296875,0L20.0537109375,0.263671875 21.1083984375,0.9814453125 21.826171875,2.0361328125 22.08984375,3.310546875 21.826171875,4.5849609375 21.1083984375,5.625 20.0537109375,6.328125 18.779296875,6.591796875 17.51953125,6.328125 16.494140625,5.625 15.791015625,4.5849609375 15.52734375,3.310546875 15.791015625,2.0361328125 16.494140625,0.9814453125 17.51953125,0.263671875 18.779296875,0z M8.701171875,0L9.9755859375,0.263671875 11.0302734375,0.9814453125 11.748046875,2.0361328125 12.01171875,3.310546875 11.748046875,4.5849609375 11.0302734375,5.625 9.9755859375,6.328125 8.701171875,6.591796875 7.44140625,6.328125 6.416015625,5.625 5.712890625,4.5849609375 5.44921875,3.310546875 5.712890625,2.0361328125 6.416015625,0.9814453125 7.44140625,0.263671875 8.701171875,0z" />
    </g>
  </g>
</svg>