<?xml version="1.0" encoding="utf-8"?>
<!DOCTYPE svg PUBLIC "-//W3C//DTD SVG 1.1//EN" "http://www.w3.org/Graphics/SVG/1.1/DTD/svg11.dtd">
<svg width="28.88671875" height="41.103515625" xmlns="http://www.w3.org/2000/svg" xmlns:xlink="http://www.w3.org/1999/xlink" xmlns:xml="http://www.w3.org/XML/1998/namespace" version="1.1">
  <g>
    <g>
      <path style="fill:#FF0000;fill-opacity:1" d="M0,37.20703125L28.88671875,37.20703125 28.88671875,41.103515625 0,41.103515625 0,37.20703125z M0,10.166015625L14.35546875,10.166015625 20.3759765625,10.869140625 22.8588848114014,11.7517108917236 24.9462890625,12.9931640625 26.619873046875,14.5861835479736 27.861328125,16.5234375 28.63037109375,18.80859375 28.88671875,21.4453125 28.63037109375,24.08935546875 27.861328125,26.396484375 26.619873046875,28.363037109375 24.9462890625,29.9853515625 22.8588848114014,31.256103515625 20.3759765625,32.16796875 14.35546875,32.900390625 0,32.900390625 0,29.00390625 13.76953125,29.00390625 18.6035137176514,28.531494140625 21.97265625,27.1142578125 23.9501934051514,24.752197265625 24.609375,21.4453125 23.9501934051514,18.153076171875 21.97265625,15.8349609375 18.6035137176514,14.4616718292236 13.76953125,14.00390625 0,14.00390625 0,10.166015625z M13.53515625,0L14.794921875,0.2490234375 15.8203125,0.9521484375 16.5087890625,2.0068359375 16.7578125,3.310546875 16.5087890625,4.5849609375 15.8203125,5.6396484375 14.794921875,6.357421875 13.53515625,6.62109375 12.2607421875,6.357421875 11.2060546875,5.6396484375 10.48828125,4.5849609375 10.224609375,3.310546875 10.48828125,2.0361328125 11.2060546875,0.9814453125 12.2607421875,0.263671875 13.53515625,0z" />
    </g>
  </g>
</svg>