<?xml version="1.0" encoding="utf-8"?>
<!DOCTYPE svg PUBLIC "-//W3C//DTD SVG 1.1//EN" "http://www.w3.org/Graphics/SVG/1.1/DTD/svg11.dtd">
<svg width="34.8632812500017" height="43.447265625" xmlns="http://www.w3.org/2000/svg" xmlns:xlink="http://www.w3.org/1999/xlink" xmlns:xml="http://www.w3.org/XML/1998/namespace" version="1.1">
  <g>
    <g>
      <path style="fill:#FF0000;fill-opacity:1" d="M17.40234375,22.8515625L18.6767578125,23.115234375 19.7314453125,23.8330078125 20.44921875,24.8876953125 20.712890625,26.162109375 20.44921875,27.4365234375 19.7314453125,28.4765625 18.6767578125,29.1796875 17.40234375,29.443359375 16.1279296875,29.1796875 15.087890625,28.4765625 14.3994140625,27.4365234375 14.150390625,26.162109375 14.3994140625,24.8583984375 15.087890625,23.8037109375 16.1279296875,23.1005859375 17.40234375,22.8515625z M0,0L3.89648389816284,0 3.89648389816284,27.041015625 4.10522413253784,29.71435546875 4.73144483566284,32.16796875 5.77880764007568,34.3505859375 7.25097608566284,36.2109375 9.14794826507568,37.7197265625 11.4697265625,38.84765625 14.219970703125,39.55078125 17.40234375,39.78515625 20.6066875457764,39.55078125 23.3642578125,38.84765625 25.689697265625,37.72705078125 27.59765625,36.240234375 29.080810546875,34.405517578125 30.1318359375,32.2412109375 30.758056640625,29.798583984375 30.966796875,27.12890625 30.966796875,0 34.86328125,0 34.86328125,27.59765625 34.56298828125,30.897216796875 33.662109375,33.9404296875 32.197265625,36.654052734375 30.205078125,38.96484375 27.703857421875,40.843505859375 24.7119140625,42.2607421875 21.2658672332764,43.150634765625 17.40234375,43.447265625 13.560791015625,43.14697265625 10.1220703125,42.24609375 7.13378810882568,40.81787109375 4.64355421066284,38.935546875 2.66235303878784,36.62841796875 1.20117139816284,33.92578125 0.300292193889618,30.8935546875 0,27.59765625 0,0z" />
    </g>
  </g>
</svg>