<?xml version="1.0" encoding="utf-8"?>
<!DOCTYPE svg PUBLIC "-//W3C//DTD SVG 1.1//EN" "http://www.w3.org/Graphics/SVG/1.1/DTD/svg11.dtd">
<svg width="12.0703125000011" height="35.947265625" xmlns="http://www.w3.org/2000/svg" xmlns:xlink="http://www.w3.org/1999/xlink" xmlns:xml="http://www.w3.org/XML/1998/namespace" version="1.1">
  <g>
    <g>
      <path style="fill:#FF0000;fill-opacity:1" d="M5.91796875,18.92578125L4.6142578125,19.1748046875 3.57421875,19.8779296875 2.8857421875,20.9326171875 2.63671875,22.236328125 2.841796875,23.671875 3.45703125,24.697265625 4.482421875,25.3125 5.91796875,25.517578125 7.2802734375,25.2685546875 8.3642578125,24.580078125 9.0673828125,23.5400390625 9.31640625,22.236328125 9.078369140625,20.92529296875 8.3642578125,19.86328125 7.27661037445068,19.16015625 5.91796875,18.92578125z M6.123046875,16.552734375L8.49609375,16.9775390625 10.37109375,18.1494140625 11.6162109375,19.921875 12.0703125,22.177734375 12.0703125,24.0234375 11.93115234375,27.07763671875 11.513671875,29.619140625 10.821533203125,31.6845703125 9.8583984375,33.310546875 8.62426662445068,34.51904296875 7.119140625,35.33203125 3.310546875,35.947265625 3.310546875,33.251953125 5.84106349945068,32.83447265625 7.7490234375,31.58203125 8.939208984375,29.5166015625 9.31640625,26.66015625 7.7783203125,27.568359375 5.91796875,27.919921875 3.57421875,27.5244140625 1.69921875,26.4111328125 0.4541015625,24.66796875 0,22.353515625 0.4541015625,19.9658203125 1.728515625,18.134765625 3.6767578125,16.962890625 6.123046875,16.552734375z M5.91796875,2.373046875L4.6142578125,2.6220703125 3.57421875,3.3251953125 2.8857421875,4.3798828125 2.63671875,5.68359375 2.841796875,7.11914157867432 3.45703125,8.14453315734863 4.482421875,8.75976657867432 5.91796875,8.96484375 7.2802734375,8.7158203125 8.3642578125,8.02734375 9.0673828125,6.9873046875 9.31640625,5.68359375 9.078369140625,4.37255954742432 8.3642578125,3.310546875 7.27661037445068,2.607421875 5.91796875,2.373046875z M6.123046875,0L8.49609375,0.4248046875 10.37109375,1.5966796875 11.6162109375,3.369140625 12.0703125,5.625 11.5869140625,7.91015625 10.2685546875,9.7265625 8.3056640625,10.927734375 5.91796875,11.3671875 3.57421875,10.9716796875 1.69921875,9.8583984375 0.4541015625,8.115234375 0,5.80078125 0.4541015625,3.4130859375 1.728515625,1.58203125 3.6767578125,0.41015625 6.123046875,0z" />
    </g>
  </g>
</svg>