<?xml version="1.0" encoding="utf-8"?>
<!DOCTYPE svg PUBLIC "-//W3C//DTD SVG 1.1//EN" "http://www.w3.org/Graphics/SVG/1.1/DTD/svg11.dtd">
<svg width="32.109375" height="29.82421875" xmlns="http://www.w3.org/2000/svg" xmlns:xlink="http://www.w3.org/1999/xlink" xmlns:xml="http://www.w3.org/XML/1998/namespace" version="1.1">
  <g>
    <g>
      <path style="fill:#FF0000;fill-opacity:1" d="M25.546875,11.71875L24.31640625,11.9677734375 23.291015625,12.65625 22.587890625,13.681640625 22.32421875,14.94140625 22.55859375,16.2158203125 23.2177734375,17.28515625 24.228515625,18.017578125 25.517578125,18.28125 26.7919921875,18.017578125 27.83203125,17.28515625 28.53515625,16.2158203125 28.798828125,14.94140625 28.53515625,13.681640625 27.83203125,12.65625 26.806640625,11.9677734375 25.546875,11.71875z M25.48828125,8.4375L28.0517578125,8.9501953125 30.1611328125,10.341796875 31.58203125,12.4072265625 32.109375,14.94140625 31.58203125,17.51953125 30.1611328125,19.62890625 28.06640625,21.0498046875 25.517578125,21.5625 22.998046875,21.0498046875 20.9033203125,19.62890625 19.482421875,17.51953125 18.955078125,14.94140625 19.4677734375,12.3779296875 20.859375,10.3125 22.9248046875,8.935546875 25.48828125,8.4375z M25.1953125,0L25.1953125,4.39453125 6.38671875,14.853515625 6.38671875,14.970703125 25.1953125,25.458984375 25.1953125,29.82421875 0,15.703125 0,14.12109375 25.1953125,0z" />
    </g>
  </g>
</svg>