<?xml version="1.0" encoding="utf-8"?>
<!DOCTYPE svg PUBLIC "-//W3C//DTD SVG 1.1//EN" "http://www.w3.org/Graphics/SVG/1.1/DTD/svg11.dtd">
<svg width="22.5878906250026" height="37.822265625" xmlns="http://www.w3.org/2000/svg" xmlns:xlink="http://www.w3.org/1999/xlink" xmlns:xml="http://www.w3.org/XML/1998/namespace" version="1.1">
  <g>
    <g>
      <path style="fill:#FF0000;fill-opacity:1" d="M11.3671875,21.03515625L13.86474609375,21.236572265625 16.083984375,21.8408203125 19.6142578125,24.0966796875 21.826171875,27.5244140625 22.3974590301514,29.600830078125 22.587890625,31.875 22.587890625,37.822265625 19.072265625,37.822265625 19.072265625,33.076171875 18.6035137176514,29.36279296875 17.197265625,26.6015625 14.75830078125,24.8876953125 11.19140625,24.31640625 7.66113233566284,24.90234375 5.28808546066284,26.6015625 3.94042921066284,29.3408203125 3.51562452316284,33.076171875 3.51562452316284,37.822265625 0,37.822265625 0,31.875 0.194091022014618,29.622802734375 0.776366710662842,27.5537109375 3.03222608566284,24.1259765625 6.62109327316284,21.85546875 8.86230373382568,21.240234375 11.3671875,21.03515625z M0,0L3.51562452316284,0 3.51562452316284,4.74609375 3.94042921066284,8.4814453125 5.28808546066284,11.220703125 7.66113233566284,12.919921875 11.19140625,13.505859375 14.75830078125,12.9345722198486 17.197265625,11.220703125 18.6035137176514,8.45947456359863 19.072265625,4.74609375 19.072265625,0 22.587890625,0 22.587890625,5.9765625 22.3974590301514,8.23242378234863 21.826171875,10.3125 19.6142578125,13.7548828125 16.083984375,16.0107421875 13.86474609375,16.614990234375 11.3671875,16.81640625 8.86230373382568,16.611328125 6.62109327316284,15.99609375 3.03222608566284,13.7255859375 0.776366710662842,10.2978515625 0.194091022014618,8.22876167297363 0,5.9765625 0,0z" />
    </g>
  </g>
</svg>