<?xml version="1.0" encoding="utf-8"?>
<!DOCTYPE svg PUBLIC "-//W3C//DTD SVG 1.1//EN" "http://www.w3.org/Graphics/SVG/1.1/DTD/svg11.dtd">
<svg width="36.7968750000019" height="34.365234375" xmlns="http://www.w3.org/2000/svg" xmlns:xlink="http://www.w3.org/1999/xlink" xmlns:xml="http://www.w3.org/XML/1998/namespace" version="1.1">
  <g>
    <g>
      <path style="fill:#FF0000;fill-opacity:1" d="M0,30.498046875L36.796875,30.498046875 36.796875,34.365234375 0,34.365234375 0,30.498046875z M0,20.361328125L36.796875,20.361328125 36.796875,24.228515625 0,24.228515625 0,20.361328125z M0,10.4296875L36.796875,10.4296875 36.796875,14.296875 0,14.296875 0,10.4296875z M33.486328125,0L34.7607421875,0.263671875 35.8154296875,0.9814453125 36.533203125,2.0361328125 36.796875,3.310546875 36.533203125,4.5849609375 35.8154296875,5.625 34.7607421875,6.328125 33.486328125,6.591796875 32.2265625,6.328125 31.201171875,5.625 30.498046875,4.5849609375 30.234375,3.310546875 30.498046875,2.0361328125 31.201171875,0.9814453125 32.2265625,0.263671875 33.486328125,0z M23.408203125,0L24.6826171875,0.263671875 25.7373046875,0.9814453125 26.455078125,2.0361328125 26.71875,3.310546875 26.455078125,4.5849609375 25.7373046875,5.625 24.6826171875,6.328125 23.408203125,6.591796875 22.1484375,6.328125 21.123046875,5.625 20.419921875,4.5849609375 20.15625,3.310546875 20.419921875,2.0361328125 21.123046875,0.9814453125 22.1484375,0.263671875 23.408203125,0z M13.330078125,0L14.6044921875,0.263671875 15.6591796875,0.9814453125 16.376953125,2.0361328125 16.640625,3.310546875 16.376953125,4.5849609375 15.6591796875,5.625 14.6044921875,6.328125 13.330078125,6.591796875 12.0703125,6.328125 11.044921875,5.625 10.341796875,4.5849609375 10.078125,3.310546875 10.341796875,2.0361328125 11.044921875,0.9814453125 12.0703125,0.263671875 13.330078125,0z M3.251953125,0L4.5263671875,0.263671875 5.5810546875,0.9814453125 6.298828125,2.0361328125 6.5625,3.310546875 6.298828125,4.5849609375 5.5810546875,5.625 4.5263671875,6.328125 3.251953125,6.591796875 1.9921875,6.328125 0.966796875,5.625 0.263671875,4.5849609375 0,3.310546875 0.263671875,2.0361328125 0.966796875,0.9814453125 1.9921875,0.263671875 3.251953125,0z" />
    </g>
  </g>
</svg>