<?xml version="1.0" encoding="utf-8"?>
<!DOCTYPE svg PUBLIC "-//W3C//DTD SVG 1.1//EN" "http://www.w3.org/Graphics/SVG/1.1/DTD/svg11.dtd">
<svg width="22.734375" height="59.267578125" xmlns="http://www.w3.org/2000/svg" xmlns:xlink="http://www.w3.org/1999/xlink" xmlns:xml="http://www.w3.org/XML/1998/namespace" version="1.1">
  <g>
    <g>
      <path style="fill:#FF0000;fill-opacity:1" d="M18.486328125,0L20.4638652801514,0.1318359375 21.943359375,0.52734375 21.943359375,4.86328125 20.5078105926514,4.27001953125 18.720703125,4.072265625 16.541748046875,4.4696044921875 14.9853515625,5.66162109375 14.051513671875,7.6483154296875 13.740234375,10.4296875 13.740234375,25.60546875 22.734375,25.60546875 22.734375,29.53125 13.740234375,29.53125 13.740234375,49.130859375 12.9931640625,53.37890625 10.9423828125,56.572265625 7.8955078125,58.5791015625 4.189453125,59.267578125 2.20458984375,59.1357421875 0.703125476837158,58.740234375 0.703125476837158,54.404296875 2.1826171875,55.0048828125 3.896484375,55.1953125 6.10107374191284,54.7979736328125 7.67578029632568,53.60595703125 8.62060451507568,51.6192626953125 8.935546875,48.837890625 8.935546875,29.53125 0,29.53125 0,25.60546875 8.935546875,25.60546875 8.935546875,10.1953125 9.66796875,5.9326171875 11.689453125,2.724609375 14.7216796875,0.703125476837158 18.486328125,0z" />
    </g>
  </g>
</svg>