<?xml version="1.0" encoding="utf-8"?>
<!DOCTYPE svg PUBLIC "-//W3C//DTD SVG 1.1//EN" "http://www.w3.org/Graphics/SVG/1.1/DTD/svg11.dtd">
<svg width="6.56250047683716" height="43.388671875" xmlns="http://www.w3.org/2000/svg" xmlns:xlink="http://www.w3.org/1999/xlink" xmlns:xml="http://www.w3.org/XML/1998/namespace" version="1.1">
  <g>
    <g>
      <path style="fill:#FF0000;fill-opacity:1" d="M3.25195360183716,36.796875L4.52636766433716,37.060546875 5.58105516433716,37.7783203125 6.29882860183716,38.8330078125 6.56250047683716,40.107421875 6.29882860183716,41.3818359375 5.58105516433716,42.421875 4.52636766433716,43.125 3.25195360183716,43.388671875 1.99218797683716,43.125 0.966796875,42.421875 0.263671875,41.3818359375 0,40.107421875 0.263671875,38.8330078125 0.966796875,37.7783203125 1.99218797683716,37.060546875 3.25195360183716,36.796875z M3.25195360183716,18.3984375L4.52636766433716,18.662109375 5.58105516433716,19.3798828125 6.29882860183716,20.4345703125 6.56250047683716,21.708984375 6.29882860183716,22.9833984375 5.58105516433716,24.0234375 4.52636766433716,24.7265625 3.25195360183716,24.990234375 1.99218797683716,24.7265625 0.966796875,24.0234375 0.263671875,22.9833984375 0,21.708984375 0.263671875,20.4345703125 0.966796875,19.3798828125 1.99218797683716,18.662109375 3.25195360183716,18.3984375z M3.25195360183716,0L4.52636766433716,0.263671875 5.58105516433716,0.9814453125 6.29882860183716,2.0361328125 6.56250047683716,3.310546875 6.29882860183716,4.5849609375 5.58105516433716,5.625 4.52636766433716,6.328125 3.25195360183716,6.591796875 1.99218797683716,6.328125 0.966796875,5.625 0.263671875,4.5849609375 0,3.310546875 0.263671875,2.0361328125 0.966796875,0.9814453125 1.99218797683716,0.263671875 3.25195360183716,0z" />
    </g>
  </g>
</svg>