<?xml version="1.0" encoding="utf-8"?>
<!DOCTYPE svg PUBLIC "-//W3C//DTD SVG 1.1//EN" "http://www.w3.org/Graphics/SVG/1.1/DTD/svg11.dtd">
<svg width="28.88671875" height="48.720703125" xmlns="http://www.w3.org/2000/svg" xmlns:xlink="http://www.w3.org/1999/xlink" xmlns:xml="http://www.w3.org/XML/1998/namespace" version="1.1">
  <g>
    <g>
      <path style="fill:#FF0000;fill-opacity:1" d="M0,25.986328125L14.35546875,25.986328125 20.3759765625,26.689453125 22.8588848114014,27.572021484375 24.9462890625,28.8134765625 26.619873046875,30.406494140625 27.861328125,32.34375 28.63037109375,34.62890625 28.88671875,37.265625 28.63037109375,39.90966796875 27.861328125,42.216796875 26.619873046875,44.183349609375 24.9462890625,45.8056640625 22.8588848114014,47.076416015625 20.3759765625,47.98828125 14.35546875,48.720703125 0,48.720703125 0,44.82421875 13.76953125,44.82421875 18.6035137176514,44.351806640625 21.97265625,42.9345703125 23.9501934051514,40.572509765625 24.609375,37.265625 23.9501934051514,33.973388671875 21.97265625,31.6552734375 18.6035137176514,30.281982421875 13.76953125,29.82421875 0,29.82421875 0,25.986328125z M0,0L14.35546875,0 20.3759765625,0.703125 22.8588848114014,1.585693359375 24.9462890625,2.8271484375 26.619873046875,4.420166015625 27.861328125,6.357421875 28.63037109375,8.642578125 28.88671875,11.279296875 28.63037109375,13.9233417510986 27.861328125,16.23046875 26.619873046875,18.197021484375 24.9462890625,19.8193359375 22.8588848114014,21.090087890625 20.3759765625,22.001953125 14.35546875,22.734375 0,22.734375 0,18.837890625 13.76953125,18.837890625 18.6035137176514,18.365478515625 21.97265625,16.9482421875 23.9501934051514,14.5861835479736 24.609375,11.279296875 23.9501934051514,7.987060546875 21.97265625,5.6689453125 18.6035137176514,4.295654296875 13.76953125,3.837890625 0,3.837890625 0,0z" />
    </g>
  </g>
</svg>