<?xml version="1.0" encoding="utf-8"?>
<!DOCTYPE svg PUBLIC "-//W3C//DTD SVG 1.1//EN" "http://www.w3.org/Graphics/SVG/1.1/DTD/svg11.dtd">
<svg width="36.97265625" height="38.84765625" xmlns="http://www.w3.org/2000/svg" xmlns:xlink="http://www.w3.org/1999/xlink" xmlns:xml="http://www.w3.org/XML/1998/namespace" version="1.1">
  <g>
    <g>
      <path style="fill:#FF0000;fill-opacity:1" d="M8.056640625,3.896484375L8.056640625,23.5546875 8.68652248382568,28.487548828125 10.576171875,32.1533203125 12.0062255859375,33.4799194335938 13.77685546875,34.427490234375 15.8880615234375,34.9960327148438 18.33984375,35.185546875 20.7879619598389,34.9960327148438 22.9174785614014,34.427490234375 24.7283916473389,33.4799194335938 26.220703125,32.1533203125 28.22021484375,28.487548828125 28.88671875,23.5546875 28.88671875,3.896484375 8.056640625,3.896484375z M0,0L36.97265625,0 36.97265625,3.896484375 32.783203125,3.896484375 32.783203125,24.90234375 32.537841796875,27.82470703125 31.8017578125,30.498046875 30.60791015625,32.874755859375 28.9892578125,34.9072265625 26.956787109375,36.5625 24.521484375,37.8076171875 21.7089824676514,38.587646484375 18.544921875,38.84765625 15.377197265625,38.583984375 12.5537109375,37.79296875 10.096435546875,36.536865234375 8.02734375,34.8779296875 6.37206935882568,32.845458984375 5.15625,30.46875 4.4091796875,27.802734375 4.16015625,24.90234375 4.16015625,3.896484375 0,3.896484375 0,0z" />
    </g>
  </g>
</svg>