<?xml version="1.0" encoding="utf-8"?>
<!DOCTYPE svg PUBLIC "-//W3C//DTD SVG 1.1//EN" "http://www.w3.org/Graphics/SVG/1.1/DTD/svg11.dtd">
<svg width="24.9609375000006" height="59.267578125" xmlns="http://www.w3.org/2000/svg" xmlns:xlink="http://www.w3.org/1999/xlink" xmlns:xml="http://www.w3.org/XML/1998/namespace" version="1.1">
  <g>
    <g>
      <path style="fill:#FF0000;fill-opacity:1" d="M11.953125,19.921875L8.470458984375,20.8154315948486 5.8740234375,22.6171875 4.259033203125,25.21728515625 3.720703125,28.505859375 4.248046875,31.761474609375 5.830078125,34.3798828125 8.41552734375,36.251220703125 11.953125,37.265625 11.953125,19.921875z M21.50390625,0L23.4814434051514,0.1318359375 24.9609375,0.52734375 24.9609375,4.86328125 23.5253887176514,4.27001953125 21.73828125,4.072265625 19.559326171875,4.4696044921875 18.0029296875,5.66162109375 17.069091796875,7.6483154296875 16.7578125,10.4296875 16.7578125,16.728515625 20.33203125,17.4755859375 23.232421875,18.837890625 21.50390625,21.591796875 19.306640625,20.5078125 16.7578125,19.921875 16.7578125,37.32421875 18.4130859375,37.0458984375 19.921875,36.591796875 20.830078125,39.609375 16.7578125,40.48828125 16.7578125,49.130859375 16.0107421875,53.37890625 13.9599609375,56.572265625 10.9130859375,58.5791015625 7.20703125,59.267578125 5.22216796875,59.1357421875 3.720703125,58.740234375 3.720703125,54.404296875 5.2001953125,55.0048828125 6.9140625,55.1953125 9.11865234375,54.7979736328125 10.693359375,53.60595703125 11.63818359375,51.6192626953125 11.953125,48.837890625 11.953125,40.48828125 7.3095703125,39.31640625 3.5009765625,36.9580078125 0.937499523162842,33.45703125 0.234374582767487,31.29638671875 0,28.857421875 0.219726264476776,26.429443359375 0.878906726837158,24.2431640625 3.33984375,20.625 7.119140625,18.10546875 11.953125,16.787109375 11.953125,10.1953125 12.685546875,5.9326171875 14.70703125,2.724609375 17.7392578125,0.703125476837158 21.50390625,0z" />
    </g>
  </g>
</svg>