<?xml version="1.0" encoding="utf-8"?>
<!DOCTYPE svg PUBLIC "-//W3C//DTD SVG 1.1//EN" "http://www.w3.org/Graphics/SVG/1.1/DTD/svg11.dtd">
<svg width="28.857421875" height="64.3359375" xmlns="http://www.w3.org/2000/svg" xmlns:xlink="http://www.w3.org/1999/xlink" xmlns:xml="http://www.w3.org/XML/1998/namespace" version="1.1">
  <g>
    <g>
      <path style="fill:#FF0000;fill-opacity:1" d="M0.673828601837158,40.1953125L28.212890625,51.416015625 28.212890625,53.115234375 0.673828601837158,64.3359375 0.673828601837158,60.05859375 19.951171875,52.5 19.951171875,52.03125 0.673828601837158,44.47265625 0.673828601837158,40.1953125z M8.232421875,27.685546875L11.52099609375,28.330078125 15.1171875,30.263671875 18.4936504364014,32.2412109375 20.888671875,32.900390625 22.4999980926514,32.545166015625 23.759765625,31.4794921875 24.5874004364014,29.820556640625 24.90234375,27.685546875 28.857421875,27.685546875 28.1689453125,31.505126953125 26.513671875,34.3505859375 23.9794902801514,36.119384765625 20.654296875,36.708984375 18.9715557098389,36.51123046875 17.1166973114014,35.91796875 15.0897207260132,34.92919921875 12.890625,33.544921875 10.29052734375,32.05078125 8.232421875,31.552734375 6.427001953125,31.875 5.1123046875,32.841796875 4.288330078125,34.453125 3.955078125,36.708984375 0,36.708984375 0.6591796875,32.9296875 2.3291015625,30.1025390625 4.892578125,28.3154296875 8.232421875,27.685546875z M28.212890625,0L28.212890625,4.27734327316284 8.935546875,11.8359375 8.935546875,12.3046875 28.212890625,19.86328125 28.212890625,24.140625 0.673828601837158,12.919921875 0.673828601837158,11.220703125 28.212890625,0z" />
    </g>
  </g>
</svg>