<?xml version="1.0" encoding="utf-8"?>
<!DOCTYPE svg PUBLIC "-//W3C//DTD SVG 1.1//EN" "http://www.w3.org/Graphics/SVG/1.1/DTD/svg11.dtd">
<svg width="27.5390625" height="38.994140625" xmlns="http://www.w3.org/2000/svg" xmlns:xlink="http://www.w3.org/1999/xlink" xmlns:xml="http://www.w3.org/XML/1998/namespace" version="1.1">
  <g>
    <g>
      <path style="fill:#FF0000;fill-opacity:1" d="M11.806640625,11.455078125L15.703125,11.455078125 15.703125,23.26171875 27.5390625,23.26171875 27.5390625,27.1875 15.703125,27.1875 15.703125,38.994140625 11.806640625,38.994140625 11.806640625,27.1875 0,27.1875 0,23.26171875 11.806640625,23.26171875 11.806640625,11.455078125z M19.775390625,0L22.646484375,0 22.2949199676514,2.7978515625 21.240234375,5.0390625 19.5849590301514,6.4892578125 17.431640625,6.97265625 15.205078125,6.591796875 12.685546875,5.44921875 10.70068359375,4.50439453125 9.19921875,4.189453125 8.07128810882568,4.3963623046875 7.26562404632568,5.01708984375 6.78222608566284,6.0516357421875 6.62109375,7.5 3.8671875,7.5 4.2333984375,4.6435546875 5.2734375,2.4755859375 6.943359375,1.083984375 9.19921875,0.5859375 11.25732421875,0.966796875 13.564453125,2.109375 15.5859375,3.076171875 17.314453125,3.3984375 18.3911113739014,3.18603515625 19.1601543426514,2.548828125 19.6215801239014,1.48681640625 19.775390625,0z" />
    </g>
  </g>
</svg>