<?xml version="1.0" encoding="utf-8"?>
<!DOCTYPE svg PUBLIC "-//W3C//DTD SVG 1.1//EN" "http://www.w3.org/Graphics/SVG/1.1/DTD/svg11.dtd">
<svg width="28.8867187500005" height="44.82421875" xmlns="http://www.w3.org/2000/svg" xmlns:xlink="http://www.w3.org/1999/xlink" xmlns:xml="http://www.w3.org/XML/1998/namespace" version="1.1">
  <g>
    <g>
      <path style="fill:#FF0000;fill-opacity:1" d="M0,27.0703125L28.88671875,27.0703125 28.88671875,30.9375 17.63671875,30.9375 16.025390625,35.68359375 28.88671875,35.68359375 28.88671875,39.55078125 14.677734375,39.55078125 12.890625,44.82421875 8.671875,44.82421875 10.546875,39.55078125 0,39.55078125 0,35.68359375 11.923828125,35.68359375 13.59375,30.9375 0,30.9375 0,27.0703125z M14.53125,0L28.88671875,0 28.88671875,3.837890625 15.1171875,3.837890625 10.264892578125,4.295654296875 6.8994140625,5.6689453125 4.932861328125,7.98706197738647 4.27734375,11.279296875 4.932861328125,14.586181640625 6.8994140625,16.9482421875 10.264892578125,18.365478515625 15.1171875,18.837890625 28.88671875,18.837890625 28.88671875,22.734375 14.53125,22.734375 8.5107421875,22.001953125 6.02783107757568,21.090087890625 3.9404296875,19.8193359375 2.266845703125,18.197021484375 1.025390625,16.23046875 0.256347298622131,13.92333984375 0,11.279296875 0.256347298622131,8.64258003234863 1.025390625,6.357421875 2.266845703125,4.420166015625 3.9404296875,2.8271484375 6.02783107757568,1.585693359375 8.5107421875,0.703125 14.53125,0z" />
    </g>
  </g>
</svg>