<?xml version="1.0" encoding="utf-8"?>
<!DOCTYPE svg PUBLIC "-//W3C//DTD SVG 1.1//EN" "http://www.w3.org/Graphics/SVG/1.1/DTD/svg11.dtd">
<svg width="21.8261718750001" height="45.76171875" xmlns="http://www.w3.org/2000/svg" xmlns:xlink="http://www.w3.org/1999/xlink" xmlns:xml="http://www.w3.org/XML/1998/namespace" version="1.1">
  <g>
    <g>
      <path style="fill:#FF0000;fill-opacity:1" d="M12.59765625,14.296875L16.669921875,14.6264667510986 20.5078125,15.615234375 20.5078125,20.44921875 16.5087890625,18.8891620635986 12.3046875,18.369140625 9.5489501953125,18.6383075714111 7.58056640625,19.4458026885986 6.3995361328125,20.7916278839111 6.005859375,22.67578125 6.59912109375,24.66064453125 8.37890625,26.220703125 11.0742177963257,27.2314453125 14.4140625,27.568359375 16.34765625,27.5390625 17.87109375,27.451171875 17.87109375,31.728515625 13.76953125,31.611328125 9.873046875,31.937255859375 7.08984327316284,32.9150390625 5.41992139816284,34.544677734375 4.86328125,36.826171875 5.37963771820068,38.807373046875 6.9287109375,40.3564453125 9.415283203125,41.356201171875 12.744140625,41.689453125 17.4609375,41.15478515625 21.826171875,39.55078125 21.826171875,44.384765625 17.54150390625,45.41748046875 12.3046875,45.76171875 7.19604444503784,45.157470703125 3.29589772224426,43.3447265625 1.85394239425659,42.0364379882813 0.823974370956421,40.528564453125 0.205993503332138,38.8211059570313 0,36.9140625 0.509032964706421,34.37255859375 2.03613209724426,32.197265625 4.39819240570068,30.54931640625 7.412109375,29.58984375 7.412109375,29.47265625 5.05371046066284,28.604736328125 3.01757788658142,27.0556640625 1.61132776737213,25.030517578125 1.14257788658142,22.734375 1.33758509159088,20.8520526885986 1.92260694503784,19.1894550323486 2.89764356613159,17.7465839385986 4.26269435882568,16.5234375 7.906494140625,14.8535175323486 12.59765625,14.296875z M13.359375,0L18.251953125,0 13.125,10.634765625 10.37109375,10.634765625 13.359375,0z" />
    </g>
  </g>
</svg>