<?xml version="1.0" encoding="utf-8"?>
<!DOCTYPE svg PUBLIC "-//W3C//DTD SVG 1.1//EN" "http://www.w3.org/Graphics/SVG/1.1/DTD/svg11.dtd">
<svg width="19.98046875" height="10.634765625" xmlns="http://www.w3.org/2000/svg" xmlns:xlink="http://www.w3.org/1999/xlink" xmlns:xml="http://www.w3.org/XML/1998/namespace" version="1.1">
  <g>
    <g>
      <path style="fill:#FF0000;fill-opacity:1" d="M17.05078125,3.837890625L18.18603515625,4.046630859375 19.130859375,4.6728515625 19.76806640625,5.599365234375 19.98046875,6.708984375 19.76806640625,7.8369140625 19.130859375,8.759765625 18.193359375,9.375 17.080078125,9.580078125 15.992431640625,9.375 15.0732421875,8.759765625 14.4470205307007,7.8369140625 14.23828125,6.708984375 14.4470205307007,5.5810546875 15.0732421875,4.658203125 15.985107421875,4.04296875 17.05078125,3.837890625z M2.87109375,3.837890625L3.988037109375,4.046630859375 4.9365234375,4.6728515625 5.584716796875,5.599365234375 5.80078125,6.708984375 5.58837890625,7.8369140625 4.951171875,8.759765625 4.00634765625,9.375 2.87109375,9.580078125 1.77978515625,9.375 0.84960949420929,8.759765625 0.212402373552322,7.8369140625 0,6.708984375 0.212402373552322,5.5810546875 0.84960949420929,4.658203125 1.77978515625,4.04296875 2.87109375,3.837890625z M9.990234375,0L14.8828125,0 9.755859375,10.634765625 7.03125,10.634765625 9.990234375,0z" />
    </g>
  </g>
</svg>