<?xml version="1.0" encoding="utf-8"?>
<!DOCTYPE svg PUBLIC "-//W3C//DTD SVG 1.1//EN" "http://www.w3.org/Graphics/SVG/1.1/DTD/svg11.dtd">
<svg width="29.82421875" height="41.748046875" xmlns="http://www.w3.org/2000/svg" xmlns:xlink="http://www.w3.org/1999/xlink" xmlns:xml="http://www.w3.org/XML/1998/namespace" version="1.1">
  <g>
    <g>
      <path style="fill:#FF0000;fill-opacity:1" d="M2.78320288658142,10.78125L5.86303663253784,11.3232440948486 7.8369140625,12.94921875 8.902587890625,15.7836933135986 9.2578125,19.951171875 9.2578125,27.48046875 9.7503662109375,31.8511962890625 11.22802734375,34.97314453125 13.6907958984375,36.8463134765625 17.138671875,37.470703125 20.445556640625,36.822509765625 22.9248046875,34.8779296875 24.4738750457764,31.754150390625 24.990234375,27.568359375 24.7210674285889,23.2470703125 23.9135723114014,19.04296875 22.5677471160889,14.9560546875 20.68359375,10.986328125 26.044921875,10.986328125 27.6983623504639,14.7564697265625 28.8793926239014,18.74267578125 29.5880107879639,22.9449462890625 29.82421875,27.36328125 29.6118144989014,30.5145263671875 28.9746074676514,33.31787109375 27.9125957489014,35.7733154296875 26.42578125,37.880859375 24.5709228515625,39.57275390625 22.40478515625,40.78125 19.9273681640625,41.50634765625 17.138671875,41.748046875 14.2684936523438,41.531982421875 11.751708984375,40.8837890625 9.58831787109375,39.803466796875 7.7783203125,38.291015625 6.34918212890625,36.3720703125 5.328369140625,34.072265625 4.71588134765625,31.3916015625 4.51171827316284,28.330078125 4.51171827316284,20.15625 4.361572265625,17.845458984375 3.91113257408142,16.2451171875 3.05053663253784,15.3112812042236 1.66992139816284,15 0,15.205078125 0,11.162109375 2.78320288658142,10.78125z M21.62109375,0L22.75634765625,0.208740234375 23.701171875,0.8349609375 24.3383769989014,1.761474609375 24.55078125,2.87109375 24.3457012176514,3.984375 23.73046875,4.921875 22.8076171875,5.55908203125 21.6796875,5.771484375 20.58837890625,5.56640625 19.658203125,4.951171875 19.02099609375,4.02099609375 18.80859375,2.87109375 19.013671875,1.7431640625 19.62890625,0.8203125 20.537109375,0.205078125 21.62109375,0z M10.341796875,0L11.4624013900757,0.208740234375 12.421875,0.8349609375 13.0810537338257,1.761474609375 13.30078125,2.87109375 13.0883779525757,3.984375 12.451171875,4.921875 11.5209951400757,5.55908203125 10.4296875,5.771484375 9.290771484375,5.555419921875 8.3349609375,4.9072265625 7.686767578125,3.966064453125 7.470703125,2.87109375 7.679443359375,1.7431640625 8.3056640625,0.8203125 9.232177734375,0.205078125 10.341796875,0z" />
    </g>
  </g>
</svg>