<?xml version="1.0" encoding="utf-8"?>
<!DOCTYPE svg PUBLIC "-//W3C//DTD SVG 1.1//EN" "http://www.w3.org/Graphics/SVG/1.1/DTD/svg11.dtd">
<svg width="29.091796875" height="44.091796875" xmlns="http://www.w3.org/2000/svg" xmlns:xlink="http://www.w3.org/1999/xlink" xmlns:xml="http://www.w3.org/XML/1998/namespace" version="1.1">
  <g>
    <g>
      <path style="fill:#FF0000;fill-opacity:1" d="M0,0L5.50781297683716,0 8.8714599609375,6.4910888671875 11.6674795150757,12.95654296875 13.8958730697632,19.3963623046875 15.556640625,25.810546875 15.673828125,25.810546875 17.9159545898438,22.3690795898438 19.779052734375,19.193115234375 21.2631225585938,16.2826538085938 22.3681640625,13.6376953125 23.7414531707764,8.668212890625 24.19921875,3.80859375 23.90625,0 28.916015625,0 29.091796875,2.490234375 28.8720684051514,6.37939453125 28.212890625,10.1953125 27.0886211395264,13.956298828125 25.4736328125,17.6806640625 23.719482421875,20.980224609375 22.177734375,23.466796875 16.46484375,32.021484375 16.45751953125,36.29150390625 16.435546875,39.7265625 16.39892578125,42.32666015625 16.34765625,44.091796875 11.220703125,44.091796875 11.4129638671875,41.3287353515625 11.55029296875,37.99072265625 11.6326904296875,34.0777587890625 11.66015625,29.58984375 9.9169921875,22.664794921875 7.03125047683716,14.4873046875 5.29541063308716,10.2804574966431 3.54492211341858,6.46362447738647 1.77978527545929,3.03680515289307 0,0z" />
    </g>
  </g>
</svg>