<?xml version="1.0" encoding="utf-8"?>
<!DOCTYPE svg PUBLIC "-//W3C//DTD SVG 1.1//EN" "http://www.w3.org/Graphics/SVG/1.1/DTD/svg11.dtd">
<svg width="25.693359375" height="42.01171875" xmlns="http://www.w3.org/2000/svg" xmlns:xlink="http://www.w3.org/1999/xlink" xmlns:xml="http://www.w3.org/XML/1998/namespace" version="1.1">
  <g>
    <g>
      <path style="fill:#FF0000;fill-opacity:1" d="M4.921875,4.453125L4.921875,21.6796875 10.078125,21.6796875 14.571533203125,21.097412109375 17.8564453125,19.3505859375 19.8669414520264,16.5417499542236 20.537109375,12.7734375 19.9218730926514,9.13330078125 18.0761699676514,6.533203125 14.9999990463257,4.97314453125 10.693359375,4.453125 4.921875,4.453125z M0,0L11.54296875,0 14.7225952148438,0.205078125 17.523193359375,0.8203125 19.9447631835938,1.845703125 21.9873046875,3.28125 23.6087017059326,5.09033203125 24.7668437957764,7.236328125 25.4617290496826,9.71923828125 25.693359375,12.5390625 25.4360942840576,15.391845703125 24.6643047332764,17.9736328125 23.3779888153076,20.284423828125 21.5771484375,22.32421875 19.3386840820313,23.990478515625 16.739501953125,25.1806640625 13.7796020507813,25.894775390625 10.458984375,26.1328125 4.921875,26.1328125 4.921875,42.01171875 0,42.01171875 0,0z" />
    </g>
  </g>
</svg>