<?xml version="1.0" encoding="utf-8"?>
<!DOCTYPE svg PUBLIC "-//W3C//DTD SVG 1.1//EN" "http://www.w3.org/Graphics/SVG/1.1/DTD/svg11.dtd">
<svg width="39.580078125" height="42.83203125" xmlns="http://www.w3.org/2000/svg" xmlns:xlink="http://www.w3.org/1999/xlink" xmlns:xml="http://www.w3.org/XML/1998/namespace" version="1.1">
  <g>
    <g>
      <path style="fill:#FF0000;fill-opacity:1" d="M22.08984375,8.525390625L22.08984375,32.548828125 23.37890625,32.548828125 25.9011840820313,32.347412109375 28.135986328125,31.7431640625 30.0833129882813,30.736083984375 31.7431640625,29.326171875 33.0697631835938,27.557373046875 34.017333984375,25.4736328125 34.5858764648438,23.074951171875 34.775390625,20.361328125 34.5822143554688,17.7896137237549 34.002685546875,15.4943866729736 33.0368041992188,13.4756479263306 31.6845703125,11.7333984375 30.0027465820313,10.3298950195313 28.048095703125,9.327392578125 25.8206176757813,8.72589111328125 23.3203125,8.525390625 22.08984375,8.525390625z M16.318359375,8.525390625L13.8281240463257,8.7249755859375 11.6015615463257,9.32373046875 9.63867092132568,10.3216552734375 7.939453125,11.71875 6.5679931640625,13.4582529067993 5.58837890625,15.4834003448486 5.0006103515625,17.7941913604736 4.8046875,20.390625 4.99420166015625,23.1033325195313 5.562744140625,25.499267578125 6.51031494140625,27.5784301757813 7.8369140625,29.3408203125 9.50042629241943,30.7443237304688 11.4587392807007,31.746826171875 13.7118520736694,32.3483276367188 16.259765625,32.548828125 17.51953125,32.548828125 17.51953125,8.525390625 16.318359375,8.525390625z M17.51953125,0L22.08984375,0 22.08984375,4.365234375 23.3203125,4.365234375 26.8276977539063,4.63897705078125 29.967041015625,5.460205078125 32.7383422851563,6.82891845703125 35.1416015625,8.7451171875 37.0834350585938,11.1099252700806 38.470458984375,13.8244647979736 39.3026733398438,16.8887348175049 39.580078125,20.302734375 39.298095703125,23.8339233398438 38.4521484375,27.015380859375 37.042236328125,29.8471069335938 35.068359375,32.3291015625 32.6458740234375,34.3478393554688 29.89013671875,35.789794921875 26.8011474609375,36.6549682617188 23.37890625,36.943359375 22.08984375,36.943359375 22.08984375,42.83203125 17.51953125,42.83203125 17.51953125,36.943359375 16.259765625,36.943359375 12.7880859375,36.654052734375 9.66796875,35.7861328125 6.8994140625,34.339599609375 4.482421875,32.314453125 2.52136254310608,29.827880859375 1.12060570716858,26.9970703125 0.28015148639679,23.822021484375 0,20.302734375 0.27923595905304,16.8768329620361 1.11694359779358,13.8061542510986 2.51312279701233,11.0906991958618 4.4677734375,8.73046875 6.88385009765625,6.8206787109375 9.664306640625,5.45654296875 12.8091430664063,4.6380615234375 16.318359375,4.365234375 17.51953125,4.365234375 17.51953125,0z" />
    </g>
  </g>
</svg>