<?xml version="1.0" encoding="utf-8"?>
<!DOCTYPE svg PUBLIC "-//W3C//DTD SVG 1.1//EN" "http://www.w3.org/Graphics/SVG/1.1/DTD/svg11.dtd">
<svg width="42.59765625" height="56.1328125" xmlns="http://www.w3.org/2000/svg" xmlns:xlink="http://www.w3.org/1999/xlink" xmlns:xml="http://www.w3.org/XML/1998/namespace" version="1.1">
  <g>
    <g>
      <path style="fill:#FF0000;fill-opacity:1" d="M0,0L4.921875,0 4.921875,28.88671875 5.299072265625,33.08349609375 6.4306640625,36.005859375 8.47778224945068,37.7197265625 11.6015625,38.291015625 14.395751953125,37.591552734375 16.7431640625,35.4931640625 18.3361797332764,32.413330078125 18.8671875,28.76953125 18.8671875,0 23.7890625,0 23.7890625,29.47265625 24.2028789520264,33.3306884765625 25.4443340301514,36.08642578125 27.5134258270264,37.7398681640625 30.41015625,38.291015625 33.2958984375,37.628173828125 35.625,35.6396484375 37.1630859375,32.596435546875 37.67578125,28.76953125 37.67578125,0 42.59765625,0 42.59765625,33.310546875 42.3056030273438,38.9511108398438 41.429443359375,43.743896484375 39.9691772460938,47.6889038085938 37.9248046875,50.7861328125 35.2432250976563,53.1253051757813 31.871337890625,54.796142578125 27.8091430664063,55.7986450195313 23.056640625,56.1328125 20.6030254364014,56.044921875 17.40234375,55.78125 14.3701171875,55.53955078125 12.421875,55.458984375 6.85546875,56.1328125 6.85546875,51.73828125 9.56542873382568,51.18896484375 12.65625,51.005859375 14.7216796875,51.08642578125 17.63671875,51.328125 20.7055644989014,51.591796875 23.291015625,51.6796875 26.6665649414063,51.46728515625 29.556884765625,50.830078125 31.9619750976563,49.76806640625 33.8818359375,48.28125 35.3768920898438,46.3330078125 36.507568359375,43.88671875 37.2738647460938,40.9423828125 37.67578125,37.5 37.5,37.5 35.7330322265625,39.781494140625 33.62548828125,41.4111328125 31.1773681640625,42.388916015625 28.388671875,42.71484375 25.5010967254639,42.32666015625 23.1372051239014,41.162109375 21.2969951629639,39.22119140625 19.98046875,36.50390625 18.101806640625,39.22119140625 15.8056640625,41.162109375 13.092041015625,42.32666015625 9.9609375,42.71484375 7.6263427734375,42.5079345703125 5.60302734375,41.88720703125 3.8909912109375,40.8526611328125 2.490234375,39.404296875 1.4007568359375,37.5421142578125 0.62255859375,35.26611328125 0.1556396484375,32.5762939453125 0,29.47265625 0,0z" />
    </g>
  </g>
</svg>