<?xml version="1.0" encoding="utf-8"?>
<!DOCTYPE svg PUBLIC "-//W3C//DTD SVG 1.1//EN" "http://www.w3.org/Graphics/SVG/1.1/DTD/svg11.dtd">
<svg width="29.501953125" height="45.64453125" xmlns="http://www.w3.org/2000/svg" xmlns:xlink="http://www.w3.org/1999/xlink" xmlns:xml="http://www.w3.org/XML/1998/namespace" version="1.1">
  <g>
    <g>
      <path style="fill:#FF0000;fill-opacity:1" d="M4.892578125,24.31640625L5.11962890625,28.2705688476563 5.654296875,31.724853515625 6.49658203125,34.6792602539063 7.646484375,37.1337890625 9.07470607757568,39.0628051757813 10.7519521713257,40.440673828125 12.6782217025757,41.2673950195313 14.853515625,41.54296875 16.9729614257813,41.2637329101563 18.848876953125,40.426025390625 20.4812622070313,39.0298461914063 21.8701171875,37.0751953125 22.9879741668701,34.6023559570313 23.8073711395264,31.651611328125 24.3283061981201,28.2229614257813 24.55078125,24.31640625 4.892578125,24.31640625z M14.8828125,4.1015625L12.7954092025757,4.37896728515625 10.9277334213257,5.211181640625 9.27978420257568,6.59820556640625 7.8515625,8.5400390625 6.6796875,10.9487915039063 5.80078125,13.7365732192993 5.21484375,16.9033813476563 4.921875,20.44921875 24.521484375,20.44921875 24.2555236816406,16.6177368164063 23.7213115692139,13.297119140625 22.918851852417,10.4873657226563 21.8481426239014,8.1884765625 20.509183883667,6.40045166015625 18.9019756317139,5.123291015625 17.0265197753906,4.35699462890625 14.8828125,4.1015625z M15.380859375,0L18.6904907226563,0.351104736328125 21.558837890625,1.4044189453125 23.9859008789063,3.15994262695313 25.9716796875,5.61767578125 27.5161743164063,8.77761840820313 28.619384765625,12.6397705078125 29.2813110351563,17.2041320800781 29.501953125,22.470703125 29.2556762695313,27.6937866210938 28.516845703125,32.288818359375 27.2854614257813,36.2557983398438 25.5615234375,39.5947265625 23.3889751434326,42.2415161132813 20.8117656707764,44.132080078125 17.8298931121826,45.2664184570313 14.443359375,45.64453125 11.2188720703125,45.2764892578125 8.37158203125,44.17236328125 5.90148973464966,42.3321533203125 3.80859446525574,39.755859375 2.14233446121216,36.5130615234375 0.952148675918579,32.67333984375 0.238037258386612,28.2366943359375 0,23.203125 0.248108044266701,17.9196166992188 0.992431879043579,13.2897958755493 2.23297142982483,9.31365966796875 3.96972680091858,5.9912109375 6.17156982421875,3.37005615234375 8.807373046875,1.497802734375 11.8771362304688,0.37445068359375 15.380859375,0z" />
    </g>
  </g>
</svg>