<?xml version="1.0" encoding="utf-8"?>
<!DOCTYPE svg PUBLIC "-//W3C//DTD SVG 1.1//EN" "http://www.w3.org/Graphics/SVG/1.1/DTD/svg11.dtd">
<svg width="19.9804687500001" height="45.791015625" xmlns="http://www.w3.org/2000/svg" xmlns:xlink="http://www.w3.org/1999/xlink" xmlns:xml="http://www.w3.org/XML/1998/namespace" version="1.1">
  <g>
    <g>
      <path style="fill:#FF0000;fill-opacity:1" d="M7.14843654632568,15.439453125L11.923828125,15.439453125 11.923828125,37.529296875 12.1087646484375,39.298095703125 12.66357421875,40.5615234375 13.5882568359375,41.319580078125 14.8828125,41.572265625 17.51953125,41.044921875 17.51953125,45.146484375 13.974609375,45.791015625 10.9881591796875,45.2838134765625 8.85498046875,43.76220703125 7.57507276535034,41.2261962890625 7.14843654632568,37.67578125 7.14843654632568,15.439453125z M17.05078125,3.837890625L18.18603515625,4.046630859375 19.130859375,4.6728515625 19.76806640625,5.599365234375 19.98046875,6.708984375 19.76806640625,7.8369140625 19.130859375,8.759765625 18.193359375,9.375 17.080078125,9.580078125 15.9924306869507,9.375 15.0732421875,8.759765625 14.447021484375,7.8369140625 14.23828125,6.708984375 14.447021484375,5.5810546875 15.0732421875,4.658203125 15.9851064682007,4.04296875 17.05078125,3.837890625z M2.87109327316284,3.837890625L3.98803687095642,4.046630859375 4.93652296066284,4.6728515625 5.58471632003784,5.599365234375 5.80078125,6.708984375 5.58837842941284,7.8369140625 4.95117139816284,8.759765625 4.00634717941284,9.375 2.87109327316284,9.580078125 1.77978491783142,9.375 0.84960925579071,8.759765625 0.212402150034904,7.8369140625 0,6.708984375 0.212402150034904,5.5810546875 0.84960925579071,4.658203125 1.77978491783142,4.04296875 2.87109327316284,3.837890625z M9.990234375,0L14.8828125,0 9.755859375,10.634765625 7.03125,10.634765625 9.990234375,0z" />
    </g>
  </g>
</svg>