<?xml version="1.0" encoding="utf-8"?>
<!DOCTYPE svg PUBLIC "-//W3C//DTD SVG 1.1//EN" "http://www.w3.org/Graphics/SVG/1.1/DTD/svg11.dtd">
<svg width="36.0937500000001" height="53.115234375" xmlns="http://www.w3.org/2000/svg" xmlns:xlink="http://www.w3.org/1999/xlink" xmlns:xml="http://www.w3.org/XML/1998/namespace" version="1.1">
  <g>
    <g>
      <path style="fill:#FF0000;fill-opacity:1" d="M15.87890625,0L20.21484375,0 20.21484375,35.44921875 20.91796875,35.44921875 23.0255107879639,35.2313232421875 24.9536113739014,34.57763671875 26.7022686004639,33.4881591796875 28.271484375,31.962890625 30.49072265625,27.9052734375 31.23046875,22.705078125 31.23046875,8.994140625 36.09375,8.994140625 36.09375,22.705078125 35.8328247070313,26.4248657226563 35.050048828125,29.732666015625 33.7454223632813,32.6284790039063 31.9189453125,35.1123046875 29.6658325195313,37.1054077148438 27.081298828125,38.529052734375 24.1653442382813,39.3832397460938 20.91796875,39.66796875 20.21484375,39.66796875 20.21484375,53.115234375 15.87890625,53.115234375 15.87890625,39.66796875 15.17578125,39.66796875 11.9046010971069,39.3841552734375 8.97582912445068,38.53271484375 6.38946437835693,37.1136474609375 4.14550733566284,35.126953125 2.33184766769409,32.647705078125 1.03637647628784,29.7509765625 0.259093970060349,26.436767578125 0,22.705078125 0,8.994140625 4.86328077316284,8.994140625 4.86328077316284,22.705078125 5.59570264816284,27.886962890625 7.79296827316284,31.9482421875 9.35302639007568,33.4799194335938 11.1035146713257,34.573974609375 13.04443359375,35.2304077148438 15.17578125,35.44921875 15.87890625,35.44921875 15.87890625,0z" />
    </g>
  </g>
</svg>