<?xml version="1.0" encoding="utf-8"?>
<!DOCTYPE svg PUBLIC "-//W3C//DTD SVG 1.1//EN" "http://www.w3.org/Graphics/SVG/1.1/DTD/svg11.dtd">
<svg width="34.5703125" height="42.71484375" xmlns="http://www.w3.org/2000/svg" xmlns:xlink="http://www.w3.org/1999/xlink" xmlns:xml="http://www.w3.org/XML/1998/namespace" version="1.1">
  <g>
    <g>
      <path style="fill:#FF0000;fill-opacity:1" d="M17.2265625,17.98828125L6.85546875,38.26171875 27.59765625,38.26171875 17.2265625,17.98828125z M8.232421875,0L10.71533203125,0.43212890625 12.890625,1.728515625 15,4.16748046875 17.28515625,8.02734375 19.595947265625,4.130859375 21.7236328125,1.69921875 23.9025859832764,0.4248046875 26.3671875,0 29.23828125,0.5859375 29.23828125,5.0390625 26.66015625,4.453125 25.4223613739014,4.720458984375 24.287109375,5.5224609375 23.03466796875,7.181396484375 21.4453125,10.01953125 19.86328125,13.0078125 34.5703125,41.279296875 34.5703125,42.71484375 0,42.71484375 0,41.279296875 14.6484375,13.125 13.037109375,10.01953125 11.484375,7.236328125 10.283203125,5.56640625 9.1845703125,4.7314453125 7.939453125,4.453125 5.361328125,5.0390625 5.361328125,0.5859375 8.232421875,0z" />
    </g>
  </g>
</svg>