<?xml version="1.0" encoding="utf-8"?>
<!DOCTYPE svg PUBLIC "-//W3C//DTD SVG 1.1//EN" "http://www.w3.org/Graphics/SVG/1.1/DTD/svg11.dtd">
<svg width="34.21875" height="45.8203125" xmlns="http://www.w3.org/2000/svg" xmlns:xlink="http://www.w3.org/1999/xlink" xmlns:xml="http://www.w3.org/XML/1998/namespace" version="1.1">
  <g>
    <g>
      <path style="fill:#FF0000;fill-opacity:1" d="M17.40234375,17.87109375L14.8883056640625,18.0688495635986 12.61962890625,18.6621112823486 10.5963134765625,19.6508808135986 8.818359375,21.03515625 7.3699951171875,22.7215576171875 6.33544921875,24.61669921875 5.7147216796875,26.7205810546875 5.5078125,29.033203125 5.70465087890625,31.680908203125 6.295166015625,34.0576171875 7.27935791015625,36.163330078125 8.6572265625,37.998046875 10.3738403320313,39.48486328125 12.374267578125,40.546875 14.6585083007813,41.18408203125 17.2265625,41.396484375 19.7744731903076,41.19140625 22.0568828582764,40.576171875 24.0737895965576,39.55078125 25.8251953125,38.115234375 27.2415142059326,36.3555908203125 28.2531719207764,34.35791015625 28.8601665496826,32.1221923828125 29.0625,29.6484375 28.8656597137451,27.161865234375 28.2751445770264,24.9169921875 27.2909526824951,22.913818359375 25.9130859375,21.15234375 24.2001323699951,19.7167987823486 22.2106914520264,18.6914081573486 19.9447612762451,18.0761737823486 17.40234375,17.87109375z M32.9296875,0L32.9296875,4.39453125 27.5390625,5.09765625 25.6420879364014,5.0244140625 22.939453125,4.8046875 20.04638671875,4.5849609375 17.63671875,4.51171875 14.9679565429688,4.72320556640625 12.645263671875,5.357666015625 10.6686401367188,6.41510009765625 9.0380859375,7.8955078125 7.72430419921875,9.87579345703125 6.697998046875,12.4328622817993 5.95916748046875,15.5667123794556 5.5078125,19.27734375 5.771484375,19.27734375 8.34228420257568,16.7138690948486 11.2792959213257,14.8828144073486 14.5825185775757,13.7841806411743 18.251953125,13.41796875 21.6787700653076,13.6981210708618 24.7521953582764,14.5385761260986 27.4722270965576,15.9393320083618 29.8388671875,17.900390625 31.7550659179688,20.3009033203125 33.123779296875,23.02001953125 33.9450073242188,26.0577392578125 34.21875,29.4140625 33.9193725585938,32.8070068359375 33.021240234375,35.89599609375 31.5243530273438,38.6810302734375 29.4287109375,41.162109375 26.8661479949951,43.2000732421875 23.9685039520264,44.65576171875 20.7357769012451,45.5291748046875 17.16796875,45.8203125 13.275146484375,45.50537109375 9.8583984375,44.560546875 6.917724609375,42.98583984375 4.453125,40.78125 2.50488305091858,37.9815673828125 1.11328148841858,34.62158203125 0.27832043170929,30.7012939453125 0,26.220703125 0.26641857624054,19.7616577148438 1.06567406654358,14.2712411880493 2.39776635169983,9.74945068359375 4.2626953125,6.1962890625 6.70806884765625,3.51104736328125 9.781494140625,1.593017578125 13.4829711914063,0.44219970703125 17.8125,0.05859375 20.1123046875,0.1318359375 23.02734375,0.3515625 25.8105449676514,0.571289122104645 27.7734375,0.644531726837158 32.9296875,0z" />
    </g>
  </g>
</svg>