<?xml version="1.0" encoding="utf-8"?>
<!DOCTYPE svg PUBLIC "-//W3C//DTD SVG 1.1//EN" "http://www.w3.org/Graphics/SVG/1.1/DTD/svg11.dtd">
<svg width="25.693359375" height="42.01171875" xmlns="http://www.w3.org/2000/svg" xmlns:xlink="http://www.w3.org/1999/xlink" xmlns:xml="http://www.w3.org/XML/1998/namespace" version="1.1">
  <g>
    <g>
      <path style="fill:#FF0000;fill-opacity:1" d="M4.921875,11.044921875L4.921875,28.271484375 10.078125,28.271484375 14.55322265625,27.7001953125 17.841796875,25.986328125 19.8632793426514,23.21044921875 20.537109375,19.453125 19.9218730926514,15.7745370864868 18.0761699676514,13.1469745635986 14.9999990463257,11.5704355239868 10.693359375,11.044921875 4.921875,11.044921875z M0,0L4.921875,0 4.921875,6.62109375 11.54296875,6.62109375 14.7463989257813,6.82525634765625 17.559814453125,7.437744140625 19.9832153320313,8.45855712890625 22.0166015625,9.8876953125 23.6251811981201,11.6922006607056 24.7741680145264,13.8391132354736 25.4635601043701,16.3284320831299 25.693359375,19.16015625 25.4342632293701,22.0111083984375 24.6569805145264,24.58740234375 23.3615093231201,26.8890380859375 21.5478515625,28.916015625 19.2947387695313,30.5694580078125 16.680908203125,31.75048828125 13.7063598632813,32.4591064453125 10.37109375,32.6953125 4.921875,32.6953125 4.921875,42.01171875 0,42.01171875 0,0z" />
    </g>
  </g>
</svg>