<?xml version="1.0" encoding="utf-8"?>
<!DOCTYPE svg PUBLIC "-//W3C//DTD SVG 1.1//EN" "http://www.w3.org/Graphics/SVG/1.1/DTD/svg11.dtd">
<svg width="34.21875" height="31.40625" xmlns="http://www.w3.org/2000/svg" xmlns:xlink="http://www.w3.org/1999/xlink" xmlns:xml="http://www.w3.org/XML/1998/namespace" version="1.1">
  <g>
    <g>
      <path style="fill:#FF0000;fill-opacity:1" d="M3.28125023841858,0L5.19287109375,0.203248143196106 6.884765625,0.812989711761475 8.35693359375,1.82922470569611 9.609375,3.251953125 11.3232421875,7.08984518051147 11.89453125,12.099609375 11.279296875,18.28125 16.5216064453125,13.5205078125 20.61767578125,9.697265625 23.5675048828125,6.8115234375 25.37109375,4.86328125 26.1035137176514,3.04687643051147 27.12890625,0.703125 32.16796875,0.703125 29.9121074676514,5.892333984375 28.3007793426514,10.6201171875 27.3339824676514,14.886474609375 27.01171875,18.69140625 27.3303203582764,22.3388671875 28.2861328125,25.078125 29.8205547332764,26.7919921875 31.875,27.36328125 34.21875,26.748046875 34.21875,30.76171875 30.87890625,31.40625 28.9929180145264,31.2030029296875 27.3193340301514,30.59326171875 25.8581523895264,29.5770263671875 24.609375,28.154296875 22.8955078125,24.31640625 22.32421875,19.306640625 22.91015625,13.125 22.3919677734375,13.6029052734375 21.01318359375,14.86083984375 18.7738037109375,16.8988037109375 15.673828125,19.716796875 11.7919921875,23.40087890625 8.818359375,26.54296875 8.09326171875,28.359375 7.08984375,30.703125 2.05078101158142,30.703125 4.30664014816284,25.513916015625 5.91796827316284,20.7861328125 6.88476514816284,16.519775390625 7.20703125,12.71484375 6.89208936691284,9.122314453125 5.94726514816284,6.3720703125 4.41650390625,4.62524557113647 2.34375023841858,4.04296875 0,4.658203125 0,0.64453125 3.28125023841858,0z" />
    </g>
  </g>
</svg>