<?xml version="1.0" encoding="utf-8"?>
<!DOCTYPE svg PUBLIC "-//W3C//DTD SVG 1.1//EN" "http://www.w3.org/Graphics/SVG/1.1/DTD/svg11.dtd">
<svg width="27.59765625" height="58.212890625" xmlns="http://www.w3.org/2000/svg" xmlns:xlink="http://www.w3.org/1999/xlink" xmlns:xml="http://www.w3.org/XML/1998/namespace" version="1.1">
  <g>
    <g>
      <path style="fill:#FF0000;fill-opacity:1" d="M14.091796875,17.75390625L10.3124990463257,18.4826679229736 7.35351514816284,20.6689453125 5.44189405441284,23.953857421875 4.80468702316284,27.978515625 4.80468702316284,32.16796875 5.40893507003784,35.606689453125 7.22167921066284,38.4814453125 9.96459770202637,40.426025390625 13.359375,41.07421875 15.4238891601563,40.865478515625 17.252197265625,40.2392578125 18.8442993164063,39.195556640625 20.2001953125,37.734375 22.0568828582764,33.74267578125 22.67578125,28.447265625 22.0971660614014,23.9794921875 20.361328125,20.595703125 17.63671875,18.4643573760986 14.091796875,17.75390625z M0,0L4.80468702316284,0 4.80468702316284,19.6875 4.92187452316284,19.6875 6.89941310882568,17.0727558135986 9.28710842132568,15.2050800323486 12.0849599838257,14.0844736099243 15.29296875,13.7109375 18.0340557098389,13.9627084732056 20.4565410614014,14.7180194854736 22.5604228973389,15.9768686294556 24.345703125,17.7392578125 25.7684326171875,19.9246215820313 26.78466796875,22.452392578125 27.3944091796875,25.3225708007813 27.59765625,28.53515625 27.3687744140625,32.1121215820313 26.68212890625,35.313720703125 25.5377197265625,38.1399536132813 23.935546875,40.5908203125 21.9360332489014,42.5711059570313 19.5996074676514,43.985595703125 16.9262676239014,44.8342895507813 13.916015625,45.1171875 11.1676015853882,44.80224609375 8.75244045257568,43.857421875 6.67053127288818,42.28271484375 4.92187452316284,40.078125 4.80468702316284,40.078125 4.80468702316284,58.212890625 0,58.212890625 0,0z" />
    </g>
  </g>
</svg>