<?xml version="1.0" encoding="utf-8"?>
<!DOCTYPE svg PUBLIC "-//W3C//DTD SVG 1.1//EN" "http://www.w3.org/Graphics/SVG/1.1/DTD/svg11.dtd">
<svg width="34.716796875" height="44.23828125" xmlns="http://www.w3.org/2000/svg" xmlns:xlink="http://www.w3.org/1999/xlink" xmlns:xml="http://www.w3.org/XML/1998/namespace" version="1.1">
  <g>
    <g>
      <path style="fill:#FF0000;fill-opacity:1" d="M26.3671875,20.126953125L34.716796875,20.126953125 34.716796875,24.111328125 26.3671875,24.111328125 26.3671875,20.126953125z M15.8203125,0L20.15625,0.6884765625 24.375,2.7392578125 28.154296875,6.123046875 31.171875,10.78125 31.171875,10.95703125 19.423828125,22.03125 19.423828125,22.20703125 31.171875,33.28125 31.171875,33.427734375 29.615478515625,36.11572265625 27.9345703125,38.37890625 24.2724609375,41.7333984375 20.302734375,43.6376953125 16.171875,44.23828125 13.348388671875,43.963623046875 10.6787109375,43.1396484375 8.206787109375,41.795654296875 5.9765625,39.9609375 4.010009765625,37.650146484375 2.32910132408142,34.8779296875 0.977783262729645,31.673583984375 0,28.06640625 3.92578196525574,26.19140625 4.072265625,26.19140625 4.998779296875,29.512939453125 6.1376953125,32.3291015625 7.4560546875,34.66552734375 8.9208984375,36.5478515625 10.5212392807007,37.987060546875 12.24609375,38.994140625 14.0625,39.58740234375 15.9375,39.78515625 18.6767578125,39.4189453125 21.416015625,38.3203125 23.8330078125,36.533203125 25.60546875,34.1015625 13.330078125,22.20703125 13.330078125,22.03125 25.60546875,10.13671875 23.84765625,7.7197265625 21.4453125,5.9326171875 18.69140625,4.833984375 15.9375,4.453125 14.066162109375,4.65087890625 12.2607421875,5.244140625 10.5432119369507,6.24755859375 8.935546875,7.67578125 7.459716796875,9.55078125 6.1376953125,11.89453125 4.998779296875,14.7143573760986 4.072265625,18.017578125 3.92578196525574,18.017578125 0,16.171875 0.933838069438934,12.6562519073486 2.27050852775574,9.4921875 3.944091796875,6.7236328125 5.888671875,4.39453125 8.082275390625,2.52685546875 10.5029296875,1.142578125 13.099365234375,0.28564453125 15.8203125,0z" />
    </g>
  </g>
</svg>