<?xml version="1.0" encoding="utf-8"?>
<!DOCTYPE svg PUBLIC "-//W3C//DTD SVG 1.1//EN" "http://www.w3.org/Graphics/SVG/1.1/DTD/svg11.dtd">
<svg width="32.6953125" height="44.208984375" xmlns="http://www.w3.org/2000/svg" xmlns:xlink="http://www.w3.org/1999/xlink" xmlns:xml="http://www.w3.org/XML/1998/namespace" version="1.1">
  <g>
    <g>
      <path style="fill:#FF0000;fill-opacity:1" d="M24.7265625,4.130859375L23.2141094207764,4.412841796875 21.7236328125,5.2587890625 20.2038555145264,6.595458984375 18.603515625,8.349609375 19.9365234375,9.9462890625 21.3720703125,11.2646484375 22.939453125,12.1728515625 24.697265625,12.509765625 26.30859375,12.1728515625 27.4951171875,11.2646484375 28.2421875,9.931640625 28.505859375,8.3203125 28.1982421875,6.6064453125 27.3779296875,5.2880859375 26.1767578125,4.4384765625 24.7265625,4.130859375z M8.173828125,4.130859375L6.573486328125,4.423828125 5.3466796875,5.302734375 4.566650390625,6.650390625 4.306640625,8.349609375 4.306640625,21.2109375 4.453125,21.240234375 6.650390625,17.75390625 9.1552734375,14.1064453125 11.66015625,10.6640625 13.857421875,7.763671875 11.25,5.185546875 9.80712795257568,4.39453125 8.173828125,4.130859375z M7.998046875,0L10.4736328125,0.41015625 12.59765625,1.5087890625 14.443359375,3.10546875 16.083984375,5.009765625 18.33984375,2.63671875 20.390625,1.083984375 22.353515625,0.2490234375 24.375,0 27.6416015625,0.615234375 30.2783203125,2.3291015625 32.05078125,4.9951171875 32.6953125,8.4375 32.109375,11.71875 30.4833984375,14.2236328125 28.037109375,15.8349609375 24.990234375,16.40625 22.32421875,15.9814453125 20.0830078125,14.853515625 18.1494140625,13.212890625 16.435546875,11.25 13.2275390625,15.7763690948486 10.634765625,19.5703125 8.58398342132568,22.745361328125 7.001953125,25.4150390625 5.859375,27.6416015625 5.126953125,29.4873046875 4.599609375,32.490234375 4.801025390625,34.2041015625 5.4052734375,35.712890625 7.6025390625,38.0859375 10.8544921875,39.55078125 14.82421875,40.048828125 18.8818359375,39.4921875 22.44140625,37.7490234375 25.60546875,34.7021484375 28.4765625,30.234375 28.65234375,30.234375 32.05078125,32.958984375 28.824462890625,37.825927734375 24.8291015625,41.3525390625 20.1159648895264,43.494873046875 14.736328125,44.208984375 11.71142578125,43.992919921875 8.90625,43.3447265625 4.2333984375,40.9130859375 2.46826124191284,39.19189453125 1.1279296875,37.1630859375 0.281982421875,34.859619140625 0,32.314453125 0,8.349609375 0.659179210662842,4.8779296875 2.4169921875,2.255859375 4.9658203125,0.5859375 7.998046875,0z" />
    </g>
  </g>
</svg>