<?xml version="1.0" encoding="utf-8"?>
<!DOCTYPE svg PUBLIC "-//W3C//DTD SVG 1.1//EN" "http://www.w3.org/Graphics/SVG/1.1/DTD/svg11.dtd">
<svg width="41.4550781250002" height="43.828125" xmlns="http://www.w3.org/2000/svg" xmlns:xlink="http://www.w3.org/1999/xlink" xmlns:xml="http://www.w3.org/XML/1998/namespace" version="1.1">
  <g>
    <g>
      <path style="fill:#FF0000;fill-opacity:1" d="M10.83984375,0L13.271484375,3.3984375 13.271484375,3.515625 9.287109375,7.6904296875 6.6064453125,12.24609375 5.0830078125,17.021484375 4.599609375,21.85546875 4.833984375,25.2392578125 5.537109375,28.359375 6.683349609375,31.16455078125 8.2470703125,33.603515625 10.2099599838257,35.64697265625 12.5537109375,37.265625 15.252685546875,38.3935546875 18.28125,38.96484375 18.28125,0.615234375 21.4453125,0.615234375 25.6860332489014,1.00341796875 29.560546875,2.16796875 32.98828125,4.031982421875 35.888671875,6.5185546875 38.232421875,9.58740234375 39.990234375,13.1982421875 41.0888671875,17.2668476104736 41.455078125,21.708984375 40.751953125,28.0517578125 38.671875,34.130859375 35.2734375,39.521484375 30.615234375,43.828125 28.18359375,40.458984375 28.18359375,40.3125 32.109375,36.2548828125 34.8046875,31.728515625 36.357421875,26.9384765625 36.85546875,22.03125 36.61376953125,18.6438007354736 35.888671875,15.5126953125 34.70947265625,12.6928730010986 33.10546875,10.2392578125 31.0986328125,8.1884765625 28.7109375,6.5771484375 25.9643535614014,5.460205078125 22.880859375,4.892578125 22.880859375,43.2421875 19.716796875,43.2421875 15.53466796875,42.850341796875 11.71875,41.6748046875 8.34228515625,39.803466796875 5.478515625,37.32421875 3.16406226158142,34.27001953125 1.43554735183716,30.673828125 0.35888659954071,26.6162109375 0,22.177734375 0.688476324081421,15.8935546875 2.7392578125,9.8291015625 6.1376953125,4.39453125 10.83984375,0z" />
    </g>
  </g>
</svg>