<?xml version="1.0" encoding="utf-8"?>
<!DOCTYPE svg PUBLIC "-//W3C//DTD SVG 1.1//EN" "http://www.w3.org/Graphics/SVG/1.1/DTD/svg11.dtd">
<svg width="36.533203125" height="44.736328125" xmlns="http://www.w3.org/2000/svg" xmlns:xlink="http://www.w3.org/1999/xlink" xmlns:xml="http://www.w3.org/XML/1998/namespace" version="1.1">
  <g>
    <g>
      <path style="fill:#FF0000;fill-opacity:1" d="M18.427734375,4.1015625L14.326171875,4.541015625 10.341796875,5.830078125 10.341796875,31.611328125 6.298828125,36.62109375 9.005126953125,38.331298828125 11.9091796875,39.5947265625 14.959716796875,40.374755859375 18.10546875,40.634765625 22.20703125,40.1953125 26.19140625,38.90625 26.19140625,13.30078125 30.234375,8.0859375 27.5463848114014,6.397705078125 24.638671875,5.1416015625 21.5771484375,4.361572265625 18.427734375,4.1015625z M18.427734375,0L23.3715801239014,0.509033203125 28.0078125,2.0361328125 32.255859375,4.566650390625 36.03515625,8.0859375 30.46875,15.1171875 30.46875,36.03515625 30.64453125,36.064453125 32.0068359375,34.9072265625 33.251953125,33.603515625 33.427734375,33.603515625 36.533203125,36.328125 33.10546875,39.8291015625 28.6669921875,42.48046875 23.5693359375,44.150390625 18.134765625,44.736328125 13.187255859375,44.23095703125 8.5400390625,42.71484375 4.28100538253784,40.1953125 0.498046875,36.6796875 6.064453125,29.765625 6.064453125,8.671875 5.91796875,8.61328125 4.5703125,9.8291015625 3.28124976158142,11.1328125 3.13476538658142,11.1328125 0,8.408203125 3.45703101158142,4.9072265625 7.8955078125,2.255859375 12.9931640625,0.5859375 18.427734375,0z" />
    </g>
  </g>
</svg>