<?xml version="1.0" encoding="utf-8"?>
<!DOCTYPE svg PUBLIC "-//W3C//DTD SVG 1.1//EN" "http://www.w3.org/Graphics/SVG/1.1/DTD/svg11.dtd">
<svg width="6.97265625000046" height="40.8984375" xmlns="http://www.w3.org/2000/svg" xmlns:xlink="http://www.w3.org/1999/xlink" xmlns:xml="http://www.w3.org/XML/1998/namespace" version="1.1">
  <g>
    <g>
      <path style="fill:#FF0000;fill-opacity:1" d="M3.486328125,33.896484375L4.8193359375,34.1748046875 5.9326171875,34.9365234375 6.6943359375,36.0498046875 6.97265625,37.412109375 6.6943359375,38.7744140625 5.9326171875,39.873046875 4.8193359375,40.6201171875 3.486328125,40.8984375 2.1240234375,40.6201171875 1.025390625,39.873046875 0.278320074081421,38.7744140625 0,37.412109375 0.278320074081421,36.03515625 1.025390625,34.921875 2.1240234375,34.1748046875 3.486328125,33.896484375z M3.486328125,0L4.8193359375,0.2783203125 5.9326171875,1.025390625 6.6943359375,2.138671875 6.97265625,3.486328125 6.6943359375,4.8486328125 5.9326171875,5.947265625 4.8193359375,6.6943359375 3.45703125,6.97265625 2.1240234375,6.6943359375 1.025390625,5.947265625 0.278320074081421,4.8486328125 0,3.486328125 0.278320074081421,2.1240234375 1.025390625,1.025390625 2.1240234375,0.2783203125 3.486328125,0z" />
    </g>
  </g>
</svg>