<?xml version="1.0" encoding="utf-8"?>
<!DOCTYPE svg PUBLIC "-//W3C//DTD SVG 1.1//EN" "http://www.w3.org/Graphics/SVG/1.1/DTD/svg11.dtd">
<svg width="38.1738281250002" height="44.8828125" xmlns="http://www.w3.org/2000/svg" xmlns:xlink="http://www.w3.org/1999/xlink" xmlns:xml="http://www.w3.org/XML/1998/namespace" version="1.1">
  <g>
    <g>
      <path style="fill:#FF0000;fill-opacity:1" d="M16.845703125,13.154296875L21.328125,13.154296875 21.328125,34.599609375 19.130859375,36.03515625 16.025390625,36.533203125 13.19091796875,36.181640625 10.4296875,35.126953125 10.283203125,35.21484375 11.6308584213257,37.635498046875 13.564453125,39.4482421875 16.03271484375,40.579833984375 18.984375,40.95703125 22.1301250457764,40.45166015625 24.5947265625,38.935546875 26.4953594207764,36.3427734375 27.94921875,32.607421875 28.125,32.607421875 31.5234375,35.33203125 29.6337890625,39.2724609375 26.9384765625,42.2900390625 23.5107421875,44.208984375 19.39453125,44.8828125 17.021484375,44.674072265625 14.6484375,44.0478515625 12.396240234375,42.978515625 10.3857421875,41.4404296875 8.668212890625,39.41162109375 7.294921875,36.8701171875 6.39404296875,33.782958984375 6.09375,30.1171875 6.650390625,29.765625 9.1259765625,31.11328125 11.396484375,31.9482421875 13.3154296875,32.3876953125 14.765625,32.51953125 16.142578125,32.2998046875 16.845703125,31.7578125 16.845703125,13.154296875z M19.072265625,0L23.2287578582764,1.318359375 26.9677734375,3.046875 30.238037109375,5.086669921875 32.98828125,7.3388671875 35.19287109375,9.76318359375 36.826171875,12.3193359375 37.8369140625,14.9084491729736 38.173828125,17.431640625 37.4853515625,20.8154296875 36.6064453125,22.39013671875 35.3466796875,23.8037109375 33.69140625,25.0341796875 31.6259765625,26.0595703125 29.139404296875,26.810302734375 26.220703125,27.216796875 24.19921875,23.26171875 24.287109375,23.14453125 28.505859375,22.3974609375 31.3916015625,21.0791015625 33.0322265625,19.3359375 33.544921875,17.314453125 33.310546875,15.7910175323486 32.607421875,14.091796875 31.44287109375,12.3010263442993 29.82421875,10.5029296875 27.7661113739014,8.741455078125 25.283203125,7.060546875 22.3828105926514,5.537109375 19.072265625,4.248046875 15.787353515625,5.51513671875 12.9052734375,7.03125 10.4333486557007,8.712158203125 8.37890625,10.4736328125 6.756591796875,12.2717294692993 5.5810546875,14.0625 4.866943359375,15.7763690948486 4.62890625,17.34375 5.2001953125,19.4677734375 6.9140625,21.26953125 9.7998046875,22.55859375 13.88671875,23.14453125 13.974609375,23.26171875 11.953125,27.216796875 9.012451171875,26.71875 6.5185546875,25.927734375 4.453125,24.89501953125 2.7978515625,23.671875 1.541748046875,22.2802734375 0.673828125,20.7421875 0,17.40234375 0.33325183391571,14.9047870635986 1.33300828933716,12.333984375 2.95166015625,9.788818359375 5.1416015625,7.3681640625 7.880859375,5.115966796875 11.1474609375,3.076171875 14.893798828125,1.34033203125 19.072265625,0z" />
    </g>
  </g>
</svg>