<?xml version="1.0" encoding="utf-8"?>
<!DOCTYPE svg PUBLIC "-//W3C//DTD SVG 1.1//EN" "http://www.w3.org/Graphics/SVG/1.1/DTD/svg11.dtd">
<svg width="29.0332031250001" height="44.736328125" xmlns="http://www.w3.org/2000/svg" xmlns:xlink="http://www.w3.org/1999/xlink" xmlns:xml="http://www.w3.org/XML/1998/namespace" version="1.1">
  <g>
    <g>
      <path style="fill:#FF0000;fill-opacity:1" d="M14.501953125,4.306640625L12.5390625,4.617919921875 10.693359375,5.5517578125 9.02343654632568,7.06787109375 7.587890625,9.1259765625 6.40869140625,11.7041025161743 5.5078125,14.7802734375 4.9365234375,18.3142108917236 4.74609375,22.265625 4.9365234375,26.224365234375 5.5078125,29.7802734375 6.40869140625,32.8857421875 7.587890625,35.4931640625 9.02343654632568,37.58056640625 10.693359375,39.1259765625 12.5390625,40.081787109375 14.501953125,40.400390625 16.48681640625,40.081787109375 18.33984375,39.1259765625 20.0097637176514,37.58056640625 21.4453125,35.4931640625 22.6245098114014,32.8857421875 23.525390625,29.7802734375 24.0966777801514,26.224365234375 24.287109375,22.265625 24.0966777801514,18.3142108917236 23.525390625,14.7802734375 22.6245098114014,11.7041025161743 21.4453125,9.1259765625 20.0097637176514,7.06787109375 18.33984375,5.5517578125 16.48681640625,4.617919921875 14.501953125,4.306640625z M14.501953125,0L17.51953125,0.38818359375 20.302734375,1.552734375 22.7856426239014,3.438720703125 24.90234375,5.9912109375 26.6271953582764,9.188232421875 27.9345703125,13.0078125 28.758544921875,17.3876972198486 29.033203125,22.265625 28.758544921875,27.169189453125 27.9345703125,31.5673828125 26.6271953582764,35.408935546875 24.90234375,38.642578125 22.7856426239014,41.2353515625 20.302734375,43.154296875 17.51953125,44.3408203125 14.501953125,44.736328125 11.488037109375,44.3408203125 8.7158203125,43.154296875 6.243896484375,41.2353515625 4.130859375,38.642578125 2.40600562095642,35.408935546875 1.09863328933716,31.5673828125 0.274658173322678,27.169189453125 0,22.265625 0.274658173322678,17.3876972198486 1.09863328933716,13.0078125 2.40600562095642,9.188232421875 4.130859375,5.9912109375 6.243896484375,3.438720703125 8.7158203125,1.552734375 11.488037109375,0.38818359375 14.501953125,0z" />
    </g>
  </g>
</svg>