<?xml version="1.0" encoding="utf-8"?>
<!DOCTYPE svg PUBLIC "-//W3C//DTD SVG 1.1//EN" "http://www.w3.org/Graphics/SVG/1.1/DTD/svg11.dtd">
<svg width="37.5878906250003" height="44.501953125" xmlns="http://www.w3.org/2000/svg" xmlns:xlink="http://www.w3.org/1999/xlink" xmlns:xml="http://www.w3.org/XML/1998/namespace" version="1.1">
  <g>
    <g>
      <path style="fill:#FF0000;fill-opacity:1" d="M20.2734375,4.3359375L17.548828125,4.8486328125 15.3662109375,6.298828125 13.916015625,8.5400390625 13.388671875,11.42578125 13.685302734375,13.5864276885986 14.5751953125,15.556640625 15.98876953125,17.2998065948486 17.8564453125,18.779296875 20.145263671875,19.98046875 22.822265625,20.888671875 25.8251934051514,21.4599609375 29.091796875,21.650390625 31.0400390625,21.5771484375 32.900390625,21.357421875 32.39501953125,17.8308124542236 31.46484375,14.5751953125 30.179443359375,11.6674814224243 28.6083984375,9.1845703125 26.7846660614014,7.159423828125 24.7412109375,5.625 22.5476055145264,4.658203125 20.2734375,4.3359375z M19.98046875,0L23.5729961395264,0.4541015625 26.9091796875,1.81640625 29.908447265625,3.9697265625 32.490234375,6.796875 34.610595703125,10.242919921875 36.2255859375,14.2529296875 37.247314453125,18.7023944854736 37.587890625,23.466796875 36.97265625,29.6923828125 35.0830078125,35.419921875 31.845703125,40.4296875 27.1875,44.501953125 27.01171875,44.501953125 18.80859375,36.474609375 18.6328125,36.474609375 11.572265625,44.501953125 11.396484375,44.501953125 6.36474561691284,41.451416015625 2.81249976158142,37.7490234375 0.703124761581421,33.336181640625 0,28.154296875 0.498046875,23.2763671875 1.93359351158142,17.900390625 6.064453125,19.833984375 6.064453125,19.98046875 4.9658203125,24.19921875 4.62890625,27.978515625 5.01342725753784,31.66259765625 6.1669921875,34.74609375 7.965087890625,37.11181640625 10.283203125,38.642578125 10.458984375,38.642578125 18.33984375,29.912109375 18.515625,29.912109375 27.275390625,38.642578125 27.451171875,38.642578125 29.53125,36.3427734375 31.1572265625,33.2666015625 32.28515625,29.6484375 32.900390625,25.693359375 30.8935546875,25.9423828125 28.974609375,26.015625 23.73046875,25.5029296875 18.9404296875,24.0380859375 14.8388671875,21.7236328125 11.630859375,18.69140625 9.5361328125,15.0732421875 8.7890625,10.95703125 8.9794921875,8.836669921875 9.55078125,6.8115234375 11.748046875,3.310546875 15.263671875,0.8935546875 17.48291015625,0.223388671875 19.98046875,0z" />
    </g>
  </g>
</svg>