<?xml version="1.0" encoding="utf-8"?>
<!DOCTYPE svg PUBLIC "-//W3C//DTD SVG 1.1//EN" "http://www.w3.org/Graphics/SVG/1.1/DTD/svg11.dtd">
<svg width="52.060546875" height="43.41796875" xmlns="http://www.w3.org/2000/svg" xmlns:xlink="http://www.w3.org/1999/xlink" xmlns:xml="http://www.w3.org/XML/1998/namespace" version="1.1">
  <g>
    <g>
      <path style="fill:#FF0000;fill-opacity:1" d="M36.62109375,23.5546875L36.62109375,30.498046875 36.884765625,34.0869140625 37.763671875,36.796875 39.3896484375,38.49609375 41.89453125,39.08203125 44.296875,38.49609375 45.9228515625,36.796875 46.845703125,34.0869140625 47.138671875,30.498046875 46.8603515625,27.568359375 45.99609375,25.3857421875 44.4580078125,24.0234375 42.158203125,23.5546875 36.62109375,23.5546875z M5.21484375,23.5546875L5.9033203125,27.5537109375 7.1630859375,30.8056640625 8.8037109375,33.3837890625 10.60546875,35.361328125 12.83203125,37.119140625 15.29296875,38.408203125 17.75390625,37.119140625 19.98046875,35.361328125 21.767578125,33.3837890625 23.3935546875,30.8056640625 24.6533203125,27.5537109375 25.341796875,23.5546875 5.21484375,23.5546875z M15.29296875,5.0390625L12.890625,6.46728515625 10.72265625,8.291015625 8.96484375,10.25390625 7.3388671875,12.7294921875 6.03515625,15.7470703125 5.2734375,19.3359375 25.283203125,19.3359375 24.5068359375,15.7470703125 23.2177734375,12.7294921875 21.591796875,10.25390625 19.833984375,8.291015625 17.67333984375,6.46728515625 15.29296875,5.0390625z M15.29296875,0L19.013671875,1.67724609375 22.3828125,3.955078125 25.078125,6.533203125 27.5390625,9.8876953125 29.4287109375,14.1357421875 30.46875,19.3359375 42.48046875,19.3359375 44.8681640625,19.559326171875 46.875,20.2294921875 49.8486328125,22.6318359375 51.533203125,26.1767578125 52.060546875,30.498046875 51.416015625,35.859375 49.4970703125,39.873046875 48.0651817321777,41.3232421875 46.318359375,42.392578125 44.2529296875,43.0517578125 41.865234375,43.271484375 39.45556640625,43.0517578125 37.3828125,42.392578125 35.6396484375,41.3232421875 34.21875,39.873046875 32.3291015625,35.859375 31.69921875,30.498046875 31.69921875,23.5546875 30.498046875,23.5546875 29.53125,28.9453125 27.6708984375,33.3251953125 25.224609375,36.7822265625 22.5,39.404296875 19.0869140625,41.72607421875 15.29296875,43.41796875 11.2280263900757,41.57958984375 7.646484375,39.052734375 4.83398485183716,36.181640625 2.38769578933716,32.4169921875 0.659179449081421,27.626953125 0,21.708984375 0.659179449081421,15.8349609375 2.38769578933716,11.0595703125 4.83398485183716,7.2802734375 7.646484375,4.39453125 11.2280263900757,1.845703125 15.29296875,0z" />
    </g>
  </g>
</svg>