<?xml version="1.0" encoding="utf-8"?>
<!DOCTYPE svg PUBLIC "-//W3C//DTD SVG 1.1//EN" "http://www.w3.org/Graphics/SVG/1.1/DTD/svg11.dtd">
<svg width="38.876953125" height="31.40625" xmlns="http://www.w3.org/2000/svg" xmlns:xlink="http://www.w3.org/1999/xlink" xmlns:xml="http://www.w3.org/XML/1998/namespace" version="1.1">
  <g>
    <g>
      <path style="fill:#FF0000;fill-opacity:1" d="M12.24609375,17.607421875L12.7294921875,20.419921875 13.623046875,22.67578125 14.794921875,24.4189453125 16.083984375,25.693359375 19.453125,27.5390625 22.79296875,25.693359375 24.0673828125,24.4189453125 25.224609375,22.67578125 26.1328125,20.419921875 26.630859375,17.607421875 12.24609375,17.607421875z M19.453125,3.896484375L16.201171875,5.888671875 14.9560546875,7.1630859375 13.7841796875,8.818359375 12.8466796875,10.8984375 12.3046875,13.41796875 26.572265625,13.41796875 26.015625,10.8984375 25.107421875,8.818359375 23.9501953125,7.1630859375 22.705078125,5.888671875 19.453125,3.896484375z M19.453125,0L22.4194316864014,1.09863424301147 25.107421875,2.63671875 27.24609375,4.4091796875 29.1796875,6.73828125 30.673828125,9.7265625 31.46484375,13.41796875 38.876953125,13.41796875 38.876953125,23.7890625 33.955078125,23.7890625 33.955078125,17.607421875 31.46484375,17.607421875 30.732421875,21.4453125 29.2822265625,24.5361328125 27.3486328125,26.9384765625 25.1953125,28.740234375 22.4853496551514,30.31494140625 19.453125,31.40625 16.5234375,30.19775390625 13.88671875,28.564453125 11.748046875,26.71875 9.814453125,24.31640625 8.291015625,21.298828125 7.44140625,17.607421875 4.921875,17.607421875 4.921875,23.7890625 0,23.7890625 0,13.41796875 7.5,13.41796875 8.408203125,9.873046875 9.9462890625,6.943359375 11.89453125,4.599609375 14.00390625,2.8125 16.5966796875,1.20117330551147 19.453125,0z" />
    </g>
  </g>
</svg>