<?xml version="1.0" encoding="utf-8"?>
<!DOCTYPE svg PUBLIC "-//W3C//DTD SVG 1.1//EN" "http://www.w3.org/Graphics/SVG/1.1/DTD/svg11.dtd">
<svg width="38.349609375" height="39.990234375" xmlns="http://www.w3.org/2000/svg" xmlns:xlink="http://www.w3.org/1999/xlink" xmlns:xml="http://www.w3.org/XML/1998/namespace" version="1.1">
  <g>
    <g>
      <path style="fill:#FF0000;fill-opacity:1" d="M19.189453125,9.111328125L16.534423828125,9.30175971984863 14.3115234375,9.873046875 11.015625,11.8505859375 9.140625,14.6044921875 8.5546875,17.666015625 8.5546875,22.32421875 9.140625,25.400390625 11.015625,28.1396484375 14.3115234375,30.1171875 16.534423828125,30.6884765625 19.189453125,30.87890625 21.826171875,30.6884765625 24.052734375,30.1171875 27.36328125,28.1396484375 29.2529296875,25.400390625 29.853515625,22.32421875 29.853515625,17.666015625 29.2529296875,14.6044921875 27.36328125,11.8505859375 24.052734375,9.873046875 21.826171875,9.30175971984863 19.189453125,9.111328125z M7.03125,0L10.360107421875,0.29296875 13.3154296875,1.171875 15.948486328125,2.54150462150574 18.310546875,4.306640625 18.720703125,4.27734375 19.16015625,4.27734375 22.8076171875,4.56298971176147 25.95703125,5.419921875 28.6120586395264,6.74194478988647 30.7763671875,8.4228515625 32.45361328125,10.4223651885986 33.6474609375,12.7001953125 34.361572265625,15.150146484375 34.599609375,17.666015625 34.599609375,22.32421875 34.4091796875,24.521484375 33.837890625,26.66015625 31.58203125,30.556640625 34.7607421875,31.640625 38.349609375,32.021484375 38.349609375,35.712890625 33.22265625,34.9658203125 28.974609375,32.900390625 27.0703125,34.0869140625 24.84375,34.951171875 27.9052734375,35.947265625 31.318359375,36.298828125 31.318359375,39.990234375 27.9895000457764,39.697265625 25.0341796875,38.818359375 22.401123046875,37.44873046875 20.0390625,35.68359375 19.599609375,35.712890625 19.16015625,35.712890625 15.53466796875,35.42724609375 12.392578125,34.5703125 9.737548828125,33.24462890625 7.5732421875,31.552734375 5.89233350753784,29.542236328125 4.68750047683716,27.2607421875 3.96240234375,24.818115234375 3.72070264816284,22.32421875 3.72070264816284,17.666015625 3.9111328125,15.49072265625 4.48242235183716,13.359375 5.4345703125,11.33056640625 6.767578125,9.462890625 3.58886671066284,8.3642578125 0,7.96875 0,4.27734375 2.68798828125,4.46777486801147 5.12695360183716,5.0390625 9.404296875,7.119140625 11.2939453125,5.9326171875 13.505859375,5.068359375 10.4296875,4.04296875 7.03125,3.69140625 7.03125,0z" />
    </g>
  </g>
</svg>