<?xml version="1.0" encoding="utf-8"?>
<!DOCTYPE svg PUBLIC "-//W3C//DTD SVG 1.1//EN" "http://www.w3.org/Graphics/SVG/1.1/DTD/svg11.dtd">
<svg width="49.951171875" height="42.71484375" xmlns="http://www.w3.org/2000/svg" xmlns:xlink="http://www.w3.org/1999/xlink" xmlns:xml="http://www.w3.org/XML/1998/namespace" version="1.1">
  <g>
    <g>
      <path style="fill:#FF0000;fill-opacity:1" d="M32.109375,4.453125L32.109375,29.1796875 32.4462890625,33.33984375 33.5595703125,36.3134765625 35.5810546875,38.0859375 38.642578125,38.671875 41.7041015625,38.0859375 43.7255859375,36.3134765625 44.8388671875,33.33984375 45.17578125,29.1796875 45.17578125,4.453125 32.109375,4.453125z M4.775390625,4.453125L4.775390625,29.1796875 5.1123046875,33.33984375 6.2255859375,36.3134765625 8.2470703125,38.0859375 11.30859375,38.671875 14.3701171875,38.0859375 16.3916015625,36.3134765625 17.5048828125,33.33984375 17.841796875,29.1796875 17.841796875,4.453125 4.775390625,4.453125z M0,0L49.951171875,0 49.951171875,29.94140625 49.7653160095215,32.9351806640625 49.2077598571777,35.52978515625 48.2784996032715,37.7252197265625 46.9775390625,39.521484375 45.3414878845215,40.9185791015625 43.4069786071777,41.91650390625 41.1740074157715,42.5152587890625 38.642578125,42.71484375 36.1111450195313,42.5152587890625 33.878173828125,41.91650390625 31.9436645507813,40.9185791015625 30.3076171875,39.521484375 29.0066528320313,37.7252197265625 28.077392578125,35.52978515625 27.5198364257813,32.9351806640625 27.333984375,29.94140625 27.333984375,4.453125 22.6171875,4.453125 22.6171875,29.94140625 22.4313335418701,32.9351806640625 21.8737773895264,35.52978515625 20.9445171356201,37.7252197265625 19.6435546875,39.521484375 18.0075073242188,40.9185791015625 16.072998046875,41.91650390625 13.8400268554688,42.5152587890625 11.30859375,42.71484375 8.77716064453125,42.5152587890625 6.544189453125,41.91650390625 4.60968017578125,40.9185791015625 2.9736328125,39.521484375 1.67266845703125,37.7252197265625 0.743408203125,35.52978515625 0.18585205078125,32.9351806640625 0,29.94140625 0,0z" />
    </g>
  </g>
</svg>