<?xml version="1.0" encoding="utf-8"?>
<!DOCTYPE svg PUBLIC "-//W3C//DTD SVG 1.1//EN" "http://www.w3.org/Graphics/SVG/1.1/DTD/svg11.dtd">
<svg width="28.037109375" height="30" xmlns="http://www.w3.org/2000/svg" xmlns:xlink="http://www.w3.org/1999/xlink" xmlns:xml="http://www.w3.org/XML/1998/namespace" version="1.1">
  <g>
    <g>
      <path style="fill:#FF0000;fill-opacity:1" d="M4.8046875,4.16015625L4.8046875,24.140625 9.66796875,19.716796875 10.751953125,18.6328125 11.8505859375,17.2119140625 12.7001953125,15.5419921875 13.037109375,13.681640625 13.037109375,4.16015625 4.8046875,4.16015625z M21.005859375,3.955078125L19.7900390625,4.2041015625 18.779296875,4.892578125 18.0908203125,5.9033203125 17.841796875,7.119140625 18.0908203125,8.3642578125 18.779296875,9.375 19.7900390625,10.0634765625 21.005859375,10.3125 22.2216796875,10.0634765625 23.232421875,9.375 23.9208984375,8.3642578125 24.169921875,7.119140625 23.9208984375,5.9033203125 23.232421875,4.892578125 22.2216796875,4.2041015625 21.005859375,3.955078125z M0,0L21.005859375,0 23.7451171875,0.556640625 25.9716796875,2.080078125 27.48046875,4.3505859375 28.037109375,7.119140625 27.48046875,9.873046875 25.9716796875,12.12890625 23.7451171875,13.6669921875 21.005859375,14.23828125 19.3505840301514,14.0478515625 17.841796875,13.4765625 17.841796875,13.623046875 17.3291015625,16.611328125 16.083984375,19.04296875 14.501953125,20.9619140625 13.0078125,22.412109375 4.8046875,30 0,30 0,0z" />
    </g>
  </g>
</svg>