<?xml version="1.0" encoding="utf-8"?>
<!DOCTYPE svg PUBLIC "-//W3C//DTD SVG 1.1//EN" "http://www.w3.org/Graphics/SVG/1.1/DTD/svg11.dtd">
<svg width="27.890625" height="30" xmlns="http://www.w3.org/2000/svg" xmlns:xlink="http://www.w3.org/1999/xlink" xmlns:xml="http://www.w3.org/XML/1998/namespace" version="1.1">
  <g>
    <g>
      <path style="fill:#FF0000;fill-opacity:1" d="M13.974609375,4.16015625L13.974609375,14.6484375 16.201171875,14.6484375 18.369140625,14.4580078125 20.537109375,13.7255859375 22.1923828125,12.1875 22.8515625,9.55078125 22.32421875,6.9580078125 20.9326171875,5.302734375 18.984375,4.423828125 16.81640625,4.16015625 13.974609375,4.16015625z M9.169921875,0L17.666015625,0 19.716796875,0.1611328125 21.97265625,0.732421875 24.1845703125,1.8310546875 26.07421875,3.5595703125 27.392578125,6.0205078125 27.890625,9.31640625 27.6159648895264,11.97509765625 26.7919921875,14.091796875 25.5505352020264,15.73974609375 24.0234375,16.9921875 20.361328125,18.427734375 16.58203125,18.80859375 13.974609375,18.80859375 13.974609375,30 5.068359375,30 5.068359375,26.07421875 9.169921875,26.07421875 9.169921875,18.80859375 8.818359375,18.80859375 7.060546875,19.075927734375 5.712890625,19.8779296875 4.85595703125,21.170654296875 4.5703125,22.91015625 0,22.91015625 0.615234375,19.482421875 2.3583984375,16.875 5.0830078125,15.2197265625 8.61328125,14.6484375 9.169921875,14.6484375 9.169921875,0z" />
    </g>
  </g>
</svg>