<?xml version="1.0" encoding="utf-8"?>
<!DOCTYPE svg PUBLIC "-//W3C//DTD SVG 1.1//EN" "http://www.w3.org/Graphics/SVG/1.1/DTD/svg11.dtd">
<svg width="29.4433593750001" height="30" xmlns="http://www.w3.org/2000/svg" xmlns:xlink="http://www.w3.org/1999/xlink" xmlns:xml="http://www.w3.org/XML/1998/namespace" version="1.1">
  <g>
    <g>
      <path style="fill:#FF0000;fill-opacity:1" d="M17.34375,16.962890625L14.091796875,18.603515625 12.8466796875,19.7607421875 11.6748046875,21.298828125 10.7373046875,23.3056640625 10.1953125,25.810546875 24.462890625,25.810546875 23.671875,22.6611328125 22.3095703125,20.33203125 20.6982421875,18.720703125 19.130859375,17.6953125 17.9150390625,17.1533203125 17.34375,16.962890625z M10.1953125,4.189453125L10.986328125,7.353515625 12.333984375,9.6826171875 13.9453125,11.30859375 15.5126953125,12.3486328125 16.728515625,12.890625 17.314453125,13.06640625 17.34375,13.06640625 20.595703125,11.396484375 21.8408203125,10.25390625 22.998046875,8.701171875 23.90625,6.708984375 24.462890625,4.189453125 10.1953125,4.189453125z M5.244140625,0L29.443359375,0 28.7548828125,5.6396484375 26.982421875,9.90234375 24.5654296875,12.9638671875 21.943359375,15 24.5654296875,17.0361328125 26.982421875,20.09765625 28.7548828125,24.3603515625 29.443359375,30 5.244140625,30 5.9326171875,24.3603515625 7.705078125,20.1123046875 10.1220703125,17.0654296875 12.744140625,15.029296875 8.232421875,15.029296875 6.4306640625,15.439453125 4.98046875,16.5234375 4.0283203125,18.10546875 3.69140625,19.98046875 0,19.98046875 0.52734375,16.552734375 2.0654296875,13.9453125 4.5849609375,12.2900390625 8.02734375,11.71875 8.96484375,11.71875 7.5,9.5654296875 6.328125,6.9287109375 5.537109375,3.75 5.244140625,0z" />
    </g>
  </g>
</svg>