<?xml version="1.0" encoding="utf-8"?>
<!DOCTYPE svg PUBLIC "-//W3C//DTD SVG 1.1//EN" "http://www.w3.org/Graphics/SVG/1.1/DTD/svg11.dtd">
<svg width="46.40625" height="43.447265625" xmlns="http://www.w3.org/2000/svg" xmlns:xlink="http://www.w3.org/1999/xlink" xmlns:xml="http://www.w3.org/XML/1998/namespace" version="1.1">
  <g>
    <g>
      <path style="fill:#FF0000;fill-opacity:1" d="M34.248046875,23.84765625L31.34765625,24.43359375 28.9892578125,26.0302734375 27.392578125,28.4033203125 26.806640625,31.2890625 27.392578125,34.16015625 28.9892578125,36.5185546875 31.34765625,38.115234375 34.248046875,38.701171875 37.119140625,38.115234375 39.4775390625,36.5185546875 41.07421875,34.16015625 41.66015625,31.2890625 41.07421875,28.4033203125 39.4775390625,26.0302734375 37.119140625,24.43359375 34.248046875,23.84765625z M12.24609375,4.833984375L9.375,5.419921875 7.0166015625,7.0166015625 5.419921875,9.3896484375 4.833984375,12.275390625 5.537109375,15.2490234375 7.1484375,17.5927734375 9.4482421875,19.130859375 12.24609375,19.6875 15.1318359375,19.1015625 17.5048828125,17.5048828125 19.1015625,15.146484375 19.6875,12.275390625 19.1015625,9.3896484375 17.5048828125,7.0166015625 15.1318359375,5.419921875 12.24609375,4.833984375z M12.216796875,0L14.6630859375,0.24169921875 16.962890625,0.966796875 20.8447265625,3.5888671875 23.466796875,7.470703125 24.1918926239014,9.7705078125 24.43359375,12.216796875 24.2578125,14.208984375 23.7890625,16.11328125 19.423828125,26.77734375 22.822265625,26.77734375 24.6240234375,23.6572265625 27.2314453125,21.1962890625 30.4833984375,19.5849609375 34.189453125,19.013671875 36.6357421875,19.25537109375 38.935546875,19.98046875 42.8173828125,22.6025390625 45.439453125,26.484375 46.1645469665527,28.7841796875 46.40625,31.23046875 46.1645469665527,33.6767578125 45.439453125,35.9765625 42.8173828125,39.8583984375 38.935546875,42.48046875 36.6357421875,43.20556640625 34.189453125,43.447265625 31.7431640625,43.20556640625 29.443359375,42.48046875 25.5615234375,39.8583984375 22.939453125,35.9765625 22.2143535614014,33.6767578125 21.97265625,31.23046875 17.578125,31.23046875 12.919921875,42.65625 8.4375,42.65625 16.11328125,23.7890625 14.208984375,24.2724609375 12.216796875,24.43359375 9.77050685882568,24.19189453125 7.470703125,23.466796875 3.58886766433716,20.8447265625 0.966796636581421,16.962890625 0.241699188947678,14.6630878448486 0,12.216796875 0.241699188947678,9.7705078125 0.966796636581421,7.470703125 3.58886766433716,3.5888671875 7.470703125,0.966796875 9.77050685882568,0.24169921875 12.216796875,0z" />
    </g>
  </g>
</svg>