<?xml version="1.0" encoding="utf-8"?>
<!DOCTYPE svg PUBLIC "-//W3C//DTD SVG 1.1//EN" "http://www.w3.org/Graphics/SVG/1.1/DTD/svg11.dtd">
<svg width="34.0429687500001" height="31.435546875" xmlns="http://www.w3.org/2000/svg" xmlns:xlink="http://www.w3.org/1999/xlink" xmlns:xml="http://www.w3.org/XML/1998/namespace" version="1.1">
  <g>
    <g>
      <path style="fill:#FF0000;fill-opacity:1" d="M7.03125,12.59765625L5.8154296875,12.8466796875 4.8046875,13.53515625 4.1162109375,14.5458984375 3.8671875,15.76171875 4.1162109375,17.0068359375 4.8046875,18.017578125 5.8154296875,18.7060546875 7.03125,18.955078125 8.2470703125,18.7060546875 9.2578125,18.017578125 9.9462890625,17.0068359375 10.1953125,15.76171875 9.9462890625,14.5458984375 9.2578125,13.53515625 8.2470703125,12.8466796875 7.03125,12.59765625z M22.119140625,0L26.8212890625,0.615234375 30.6005859375,2.4609375 33.1201171875,5.56640625 33.812255859375,7.6025390625 34.04296875,9.9609375 29.208984375,9.9609375 28.6669921875,7.3095703125 27.1728515625,5.4638671875 24.9169921875,4.39453125 22.08984375,4.04296875 19.2333984375,4.39453125 16.9775390625,5.4638671875 15.4833984375,7.3095703125 14.94140625,9.9609375 14.94140625,13.65234375 25.869140625,13.65234375 25.869140625,17.75390625 14.94140625,17.75390625 14.94140625,21.474609375 15.4833984375,24.140625 16.9775390625,25.9716796875 19.2333984375,27.041015625 22.08984375,27.392578125 24.9169921875,27.041015625 27.1728515625,25.9716796875 28.6669921875,24.140625 29.208984375,21.474609375 34.04296875,21.474609375 33.812255859375,23.8330078125 33.1201171875,25.869140625 30.6005859375,28.974609375 26.8212890625,30.8203125 22.119140625,31.435546875 17.5341796875,30.87890625 13.828125,29.1650390625 11.2939453125,26.25 10.5505361557007,24.33837890625 10.224609375,22.119140625 8.69384765625,22.6904296875 7.03125,22.880859375 4.2919921875,22.3095703125 2.0654296875,20.771484375 0.556640625,18.515625 0,15.76171875 0.556640625,12.9931640625 2.0654296875,10.72265625 4.2919921875,9.19921875 7.03125,8.642578125 8.6865234375,8.84765625 10.1953125,9.404296875 10.5212392807007,7.159423828125 11.2646484375,5.2294921875 13.8134765625,2.2998046875 17.5341796875,0.5712890625 22.119140625,0z" />
    </g>
  </g>
</svg>