<?xml version="1.0" encoding="utf-8"?>
<!DOCTYPE svg PUBLIC "-//W3C//DTD SVG 1.1//EN" "http://www.w3.org/Graphics/SVG/1.1/DTD/svg11.dtd">
<svg width="31.69921875" height="42.744140625" xmlns="http://www.w3.org/2000/svg" xmlns:xlink="http://www.w3.org/1999/xlink" xmlns:xml="http://www.w3.org/XML/1998/namespace" version="1.1">
  <g>
    <g>
      <path style="fill:#FF0000;fill-opacity:1" d="M21.240234375,26.77734375L19.0869140625,27.216796875 17.3291015625,28.41796875 16.1572265625,30.205078125 15.732421875,32.373046875 16.1572265625,34.541015625 17.3291015625,36.3134765625 19.0869140625,37.5 21.240234375,37.939453125 23.408203125,37.5 25.1953125,36.3134765625 26.4111328125,34.541015625 26.865234375,32.373046875 26.4111328125,30.205078125 25.1953125,28.41796875 23.408203125,27.216796875 21.240234375,26.77734375z M6.708984375,0L11.630859375,0 11.630859375,28.447265625 13.154296875,25.810546875 15.3662109375,23.73046875 18.10546875,22.3681640625 21.240234375,21.884765625 23.3203105926514,22.08984375 25.283203125,22.705078125 28.623046875,24.9462890625 30.87890625,28.271484375 31.494140625,30.234375 31.69921875,32.314453125 31.494140625,34.41650390625 30.87890625,36.38671875 28.623046875,39.697265625 25.283203125,41.923828125 23.3203105926514,42.5390625 21.240234375,42.744140625 19.1455078125,42.5390625 17.197265625,41.923828125 13.916015625,39.697265625 11.7041015625,36.4013671875 11.0998525619507,34.442138671875 10.8984375,32.34375 0,42.71484375 0,38.291015625 3.33984398841858,34.892578125 4.5703125,33.0908203125 5.654296875,30.966796875 6.41601657867432,28.53515625 6.708984375,25.83984375 6.708984375,0z" />
    </g>
  </g>
</svg>