<?xml version="1.0" encoding="utf-8"?>
<!DOCTYPE svg PUBLIC "-//W3C//DTD SVG 1.1//EN" "http://www.w3.org/Graphics/SVG/1.1/DTD/svg11.dtd">
<svg width="23.8476562500001" height="31.435546875" xmlns="http://www.w3.org/2000/svg" xmlns:xlink="http://www.w3.org/1999/xlink" xmlns:xml="http://www.w3.org/XML/1998/namespace" version="1.1">
  <g>
    <g>
      <path style="fill:#FF0000;fill-opacity:1" d="M11.923828125,0L16.6259765625,0.6005859375 20.4052734375,2.431640625 22.9248046875,5.537109375 23.6169414520264,7.58056640625 23.84765625,9.9609375 23.84765625,21.474609375 23.6169414520264,23.85498046875 22.9248046875,25.8984375 20.4052734375,29.00390625 16.6259765625,30.8349609375 11.923828125,31.435546875 7.2216796875,30.8203125 3.42773413658142,28.974609375 0.908202886581421,25.869140625 0.227050572633743,23.8330078125 0,21.474609375 4.833984375,21.474609375 5.3759765625,24.140625 6.8701171875,25.9716796875 9.1259765625,27.041015625 11.953125,27.392578125 14.794921875,27.041015625 17.0654296875,25.9716796875 18.5595703125,24.140625 19.1015625,21.474609375 19.1015625,20.9765625 8.173828125,20.9765625 8.173828125,16.875 19.1015625,16.875 19.1015625,14.677734375 8.173828125,14.677734375 8.173828125,10.576171875 19.1015625,10.576171875 19.1015625,9.9609375 18.5595703125,7.3095703125 17.0654296875,5.4638671875 14.794921875,4.39453125 11.953125,4.04296875 9.1259765625,4.39453125 6.8701171875,5.4638671875 5.3759765625,7.3095703125 4.833984375,9.9609375 0,9.9609375 0.227050572633743,7.6025390625 0.908202886581421,5.56640625 3.42773413658142,2.4609375 7.2216796875,0.615234375 11.923828125,0z" />
    </g>
  </g>
</svg>