<?xml version="1.0" encoding="utf-8"?>
<!DOCTYPE svg PUBLIC "-//W3C//DTD SVG 1.1//EN" "http://www.w3.org/Graphics/SVG/1.1/DTD/svg11.dtd">
<svg width="30.99609375" height="30.703125" xmlns="http://www.w3.org/2000/svg" xmlns:xlink="http://www.w3.org/1999/xlink" xmlns:xml="http://www.w3.org/XML/1998/namespace" version="1.1">
  <g>
    <g>
      <path style="fill:#FF0000;fill-opacity:1" d="M15.498046875,19.658203125L7.939453125,27.568359375 23.14453125,27.568359375 15.498046875,19.658203125z M15.498046875,3.955078125L12.70751953125,4.12353658676147 10.4296875,4.62890625 8.60595703125,5.39795064926147 7.177734375,6.357421875 5.4345703125,8.6865234375 4.921875,11.1328125 5.2734375,13.1982421875 6.4306640625,15.146484375 8.525390625,16.7431640625 11.689453125,17.783203125 15.205078125,14.033203125 15.791015625,14.033203125 19.3359375,17.783203125 22.5,16.7431640625 24.580078125,15.146484375 25.72265625,13.1982421875 26.07421875,11.1328125 25.5615234375,8.6865234375 23.818359375,6.357421875 22.3864727020264,5.39795064926147 20.5517578125,4.62890625 18.270263671875,4.12353658676147 15.498046875,3.955078125z M15.498046875,0L19.127197265625,0.212403774261475 22.2802734375,0.849609375 24.9499492645264,1.86035299301147 27.12890625,3.193359375 28.82080078125,4.82666158676147 30.029296875,6.73828125 30.75439453125,8.876953125 30.99609375,11.19140625 30.498046875,14.384765625 28.9599609375,17.2119140625 26.3232421875,19.541015625 22.55859375,21.2109375 30.99609375,30.17578125 30.99609375,30.703125 0.05859375,30.703125 0.05859375,30.17578125 8.466796875,21.2109375 4.7021484375,19.541015625 2.0654296875,17.2119140625 0.5126953125,14.384765625 0,11.19140625 0.241699248552322,8.876953125 0.966797113418579,6.73828125 2.17529296875,4.82666158676147 3.8671875,3.193359375 6.046142578125,1.86035299301147 8.7158203125,0.849609375 11.8688955307007,0.212403774261475 15.498046875,0z" />
    </g>
  </g>
</svg>