<?xml version="1.0" encoding="utf-8"?>
<!DOCTYPE svg PUBLIC "-//W3C//DTD SVG 1.1//EN" "http://www.w3.org/Graphics/SVG/1.1/DTD/svg11.dtd">
<svg width="39.580078125" height="58.212890625" xmlns="http://www.w3.org/2000/svg" xmlns:xlink="http://www.w3.org/1999/xlink" xmlns:xml="http://www.w3.org/XML/1998/namespace" version="1.1">
  <g>
    <g>
      <path style="fill:#FF0000;fill-opacity:1" d="M22.08984375,9.08203125L22.08984375,35.7421875 23.37890625,35.7421875 25.9790019989014,35.478515625 28.271484375,34.6875 30.234375,33.438720703125 31.845703125,31.8017578125 34.0283203125,27.5390625 34.775390625,22.3828125 34.57763671875,19.8046894073486 33.984375,17.34375 31.7138671875,13.095703125 30.0732421875,11.4404296875 28.1103515625,10.166015625 25.8508281707764,9.35302734375 23.3203125,9.08203125 22.08984375,9.08203125z M16.318359375,9.08203125L13.7841796875,9.35302734375 11.513671875,10.166015625 7.880859375,13.0810546875 5.595703125,17.3291015625 5.00244140625,19.8083515167236 4.8046875,22.412109375 5.537109375,27.6123046875 7.7197265625,31.845703125 9.342041015625,33.468017578125 11.30859375,34.7021484375 13.61572265625,35.482177734375 16.259765625,35.7421875 17.51953125,35.7421875 17.51953125,9.08203125 16.318359375,9.08203125z M17.51953125,0L22.08984375,0 22.08984375,4.921875 23.3203125,4.921875 26.7736797332764,5.262451171875 29.9267578125,6.2841796875 32.713623046875,7.8955078125 35.068359375,10.0048828125 36.968994140625,12.5646982192993 38.3935546875,15.52734375 39.283447265625,18.8085956573486 39.580078125,22.32421875 39.290771484375,25.858154296875 38.4228515625,29.1943359375 37.020263671875,32.230224609375 35.126953125,34.86328125 32.77587890625,37.042236328125 30,38.7158203125 26.8505840301514,39.781494140625 23.37890625,40.13671875 22.08984375,40.13671875 22.08984375,58.212890625 17.51953125,58.212890625 17.51953125,40.13671875 16.259765625,40.13671875 12.762451171875,39.781494140625 9.5947265625,38.7158203125 6.807861328125,37.042236328125 4.453125,34.86328125 2.55981469154358,32.230224609375 1.15722703933716,29.1943359375 0.289306879043579,25.858154296875 0,22.32421875 0.296631097793579,18.8049335479736 1.18652391433716,15.5126953125 2.61474633216858,12.5390634536743 4.5263671875,9.9755859375 6.89208984375,7.869873046875 9.6826171875,6.26953125 12.843017578125,5.2587890625 16.318359375,4.921875 17.51953125,4.921875 17.51953125,0z" />
    </g>
  </g>
</svg>