<?xml version="1.0" encoding="utf-8"?>
<!DOCTYPE svg PUBLIC "-//W3C//DTD SVG 1.1//EN" "http://www.w3.org/Graphics/SVG/1.1/DTD/svg11.dtd">
<svg width="53.26171875" height="43.4765625" xmlns="http://www.w3.org/2000/svg" xmlns:xlink="http://www.w3.org/1999/xlink" xmlns:xml="http://www.w3.org/XML/1998/namespace" version="1.1">
  <g>
    <g>
      <path style="fill:#FF0000;fill-opacity:1" d="M10.37109375,27.48046875L8.203125,27.919921875 6.4306640625,29.12109375 5.24414014816284,30.8935546875 4.8046875,33.076171875 5.24414014816284,35.2294921875 6.4306640625,37.001953125 8.203125,38.203125 10.37109375,38.642578125 12.5390625,38.203125 14.326171875,37.001953125 15.52734375,35.2294921875 15.966796875,33.076171875 15.52734375,30.8935546875 14.326171875,29.12109375 12.5390625,27.919921875 10.37109375,27.48046875z M24.78515625,17.75390625L23.2470703125,18.076171875 22.001953125,18.9404296875 21.1669921875,20.21484375 20.859375,21.767578125 21.181640625,23.349609375 22.03125,24.609375 23.2763671875,25.4443359375 24.78515625,25.751953125 26.337890625,25.4443359375 27.626953125,24.5947265625 28.505859375,23.3203125 28.828125,21.767578125 28.4912109375,20.185546875 27.59765625,18.9111328125 26.30859375,18.0615234375 24.78515625,17.75390625z M10.37109375,4.892578125L8.203125,5.33203125 6.4306640625,6.533203125 5.24414014816284,8.3056640625 4.8046875,10.48828125 5.24414014816284,12.6416015625 6.4306640625,14.4140625 8.203125,15.615234375 10.37109375,16.0546875 12.5390625,15.615234375 14.326171875,14.4140625 15.52734375,12.6416015625 15.966796875,10.48828125 15.52734375,8.3056640625 14.326171875,6.533203125 12.5390625,5.33203125 10.37109375,4.892578125z M10.4296875,0L12.5097646713257,0.205078125 14.47265625,0.8203125 17.7978515625,3.046875 20.0390625,6.357421875 20.654296875,8.32763671875 20.859375,10.4296875 20.859375,15.41015625 22.705078125,14.5458984375 24.78515625,14.23828125 26.923828125,14.560546875 28.828125,15.439453125 28.828125,12.216796875 29.0698223114014,9.74853515625 29.794921875,7.44140625 32.4169921875,3.5595703125 36.298828125,0.9521484375 38.5986328125,0.238037109375 41.044921875,0 43.4912109375,0.24169921875 45.791015625,0.966796875 49.6728515625,3.5888671875 52.294921875,7.470703125 53.0200157165527,9.7705078125 53.26171875,12.216796875 48.427734375,12.216796875 47.841796875,9.345703125 46.2451171875,6.9873046875 43.88671875,5.4052734375 41.015625,4.833984375 38.115234375,5.4052734375 35.7568359375,6.9873046875 34.16015625,9.345703125 33.57421875,12.216796875 33.57421875,19.658203125 45.087890625,19.658203125 45.087890625,23.759765625 33.57421875,23.759765625 33.57421875,31.23046875 34.16015625,34.1162109375 35.7568359375,36.4599609375 38.115234375,38.0419921875 41.015625,38.61328125 43.88671875,38.0419921875 46.2451171875,36.4599609375 47.841796875,34.1162109375 48.427734375,31.23046875 53.26171875,31.23046875 53.0200157165527,33.6767578125 52.294921875,35.9765625 49.6728515625,39.8583984375 45.791015625,42.48046875 43.4912109375,43.20556640625 41.044921875,43.447265625 38.5986328125,43.209228515625 36.298828125,42.4951171875 32.4169921875,39.8876953125 29.794921875,36.005859375 29.0698223114014,33.69873046875 28.828125,31.23046875 28.828125,28.0078125 26.923828125,28.8720703125 24.78515625,29.1796875 22.6904296875,28.88671875 20.859375,28.06640625 20.859375,33.017578125 20.654296875,35.115966796875 20.0390625,37.0751953125 17.7978515625,40.400390625 14.47265625,42.65625 12.5097646713257,43.271484375 10.4296875,43.4765625 8.32763671875,43.271484375 6.357421875,42.65625 3.046875,40.400390625 0.8203125,37.0751953125 0.205078125,35.115966796875 0,33.017578125 0.205078125,30.91552734375 0.8203125,28.9453125 3.046875,25.634765625 6.357421875,23.408203125 8.32763671875,22.79296875 10.4296875,22.587890625 13.6083984375,23.0712890625 16.40625,24.462890625 16.40625,18.984375 13.6083984375,20.390625 10.4296875,20.888671875 8.32763671875,20.68359375 6.357421875,20.068359375 3.046875,17.8125 0.8203125,14.4873046875 0.205078125,12.5280780792236 0,10.4296875 0.205078125,8.32763671875 0.8203125,6.357421875 3.046875,3.046875 6.357421875,0.8203125 8.32763671875,0.205078125 10.4296875,0z" />
    </g>
  </g>
</svg>