<?xml version="1.0" encoding="utf-8"?>
<!DOCTYPE svg PUBLIC "-//W3C//DTD SVG 1.1//EN" "http://www.w3.org/Graphics/SVG/1.1/DTD/svg11.dtd">
<svg width="28.857421875" height="25.078125" xmlns="http://www.w3.org/2000/svg" xmlns:xlink="http://www.w3.org/1999/xlink" xmlns:xml="http://www.w3.org/XML/1998/namespace" version="1.1">
  <g>
    <g>
      <path style="fill:#FF0000;fill-opacity:1" d="M0.673828125,21.2109375L28.212890625,21.2109375 28.212890625,25.078125 0.673828125,25.078125 0.673828125,21.2109375z M0.64453125,12.59765625L28.18359375,12.59765625 28.18359375,16.46484375 0.64453125,16.46484375 0.64453125,12.59765625z M0,0L3.955078125,0 4.27001953125,2.13501119613647 5.09765625,3.7939453125 6.35742092132568,4.85962057113647 7.96875,5.21484375 10.36376953125,4.55566549301147 13.740234375,2.578125 17.3364238739014,0.644532680511475 20.625,0 23.9575176239014,0.615235805511475 26.513671875,2.4609375 28.1982421875,5.33203268051147 28.857421875,9.08203125 24.90234375,9.08203125 24.5690898895264,6.82617282867432 23.7451152801514,5.21484518051147 22.4304180145264,4.24804782867432 20.625,3.92578125 18.5522441864014,4.41650533676147 15.966796875,5.888671875 13.7786865234375,7.2857666015625 11.75537109375,8.28369140625 9.8968505859375,8.8824462890625 8.203125,9.08203125 4.8779296875,8.492431640625 2.34375,6.7236328125 0.688476204872131,3.86352682113647 0,0z" />
    </g>
  </g>
</svg>