<?xml version="1.0" encoding="utf-8"?>
<!DOCTYPE svg PUBLIC "-//W3C//DTD SVG 1.1//EN" "http://www.w3.org/Graphics/SVG/1.1/DTD/svg11.dtd">
<svg width="28.857421875" height="34.8046875" xmlns="http://www.w3.org/2000/svg" xmlns:xlink="http://www.w3.org/1999/xlink" xmlns:xml="http://www.w3.org/XML/1998/namespace" version="1.1">
  <g>
    <g>
      <path style="fill:#FF0000;fill-opacity:1" d="M18.1640625,0L21.826171875,0 17.16796875,12.451171875 19.2846660614014,13.43994140625 20.888671875,13.76953125 22.4999980926514,13.414306640625 23.759765625,12.3486328125 24.5874004364014,10.689697265625 24.90234375,8.5546875 28.857421875,8.5546875 28.1689453125,12.374267578125 26.513671875,15.2197265625 23.9794902801514,16.988525390625 20.654296875,17.578125 18.3691387176514,17.2265625 15.791015625,16.171875 13.916015625,21.15234375 28.18359375,21.15234375 28.18359375,25.01953125 12.48046875,25.01953125 8.818359375,34.8046875 4.98046875,34.8046875 8.671875,25.01953125 0.64453125,25.01953125 0.64453125,21.15234375 10.13671875,21.15234375 12.744140625,14.326171875 10.224609375,12.89794921875 8.232421875,12.421875 6.427001953125,12.744140625 5.1123046875,13.7109375 4.288330078125,15.322265625 3.955078125,17.578125 0,17.578125 0.6591796875,13.798828125 2.3291015625,10.9716796875 4.892578125,9.1845703125 8.232421875,8.5546875 11.08154296875,9.04541206359863 14.1796875,10.517578125 18.1640625,0z" />
    </g>
  </g>
</svg>