<?xml version="1.0" encoding="utf-8"?>
<!DOCTYPE svg PUBLIC "-//W3C//DTD SVG 1.1//EN" "http://www.w3.org/Graphics/SVG/1.1/DTD/svg11.dtd">
<svg width="28.857421875" height="28.41796875" xmlns="http://www.w3.org/2000/svg" xmlns:xlink="http://www.w3.org/1999/xlink" xmlns:xml="http://www.w3.org/XML/1998/namespace" version="1.1">
  <g>
    <g>
      <path style="fill:#FF0000;fill-opacity:1" d="M14.35546875,21.826171875L15.6298828125,22.08984375 16.6845703125,22.8076171875 17.40234375,23.8623046875 17.666015625,25.13671875 17.40234375,26.4111328125 16.6845703125,27.451171875 15.6298828125,28.154296875 14.35546875,28.41796875 13.095703125,28.154296875 12.0703125,27.451171875 11.3671875,26.4111328125 11.103515625,25.13671875 11.3671875,23.8623046875 12.0703125,22.8076171875 13.095703125,22.08984375 14.35546875,21.826171875z M8.232421875,9.7265625L11.52099609375,10.37109375 15.1171875,12.3046875 18.4936504364014,14.2822265625 20.888671875,14.94140625 22.4999980926514,14.586181640625 23.759765625,13.5205078125 24.5874004364014,11.861572265625 24.90234375,9.7265625 28.857421875,9.7265625 28.1689453125,13.590087890625 26.513671875,16.4501953125 23.9794902801514,18.218994140625 20.654296875,18.80859375 18.9605693817139,18.6090087890625 17.1020488739014,18.01025390625 15.0787343978882,17.0123291015625 12.890625,15.615234375 10.30517578125,14.14306640625 8.232421875,13.65234375 6.427001953125,13.974609375 5.1123046875,14.94140625 4.288330078125,16.552734375 3.955078125,18.80859375 0,18.80859375 0.6591796875,15.0439453125 2.3291015625,12.1728515625 4.892578125,10.3564453125 8.232421875,9.7265625z M14.35546875,0L15.6298828125,0.263671875 16.6845703125,0.9814453125 17.40234375,2.0361328125 17.666015625,3.310546875 17.40234375,4.5849609375 16.6845703125,5.625 15.6298828125,6.328125 14.35546875,6.591796875 13.095703125,6.328125 12.0703125,5.625 11.3671875,4.5849609375 11.103515625,3.310546875 11.3671875,2.0361328125 12.0703125,0.9814453125 13.095703125,0.263671875 14.35546875,0z" />
    </g>
  </g>
</svg>