<?xml version="1.0" encoding="utf-8"?>
<!DOCTYPE svg PUBLIC "-//W3C//DTD SVG 1.1//EN" "http://www.w3.org/Graphics/SVG/1.1/DTD/svg11.dtd">
<svg width="29.4726562500007" height="38.7890625" xmlns="http://www.w3.org/2000/svg" xmlns:xlink="http://www.w3.org/1999/xlink" xmlns:xml="http://www.w3.org/XML/1998/namespace" version="1.1">
  <g>
    <g>
      <path style="fill:#FF0000;fill-opacity:1" d="M4.365234375,21.15234375L5.1123046875,24.0966796875 6.533203125,26.42578125 8.671875,28.1396484375 11.572265625,29.23828125 14.4140625,21.15234375 4.365234375,21.15234375z M15.5859375,8.876953125L11.077880859375,9.39331245422363 7.6904296875,10.9423828125 5.445556640625,13.560791015625 4.365234375,17.28515625 15.791015625,17.28515625 18.75,8.876953125 15.5859375,8.876953125z M21.9140625,0L25.95703125,0 24.19921875,5.009765625 29.47265625,5.009765625 29.47265625,8.876953125 22.8515625,8.876953125 19.921875,17.28515625 29.47265625,17.28515625 29.47265625,21.15234375 18.57421875,21.15234375 15.556640625,29.765625 16.46484375,29.765625 29.47265625,29.765625 29.47265625,33.6328125 15.1171875,33.6328125 14.6630859375,33.6328125 14.208984375,33.603515625 12.421875,38.7890625 8.203125,38.7890625 10.224609375,33.076171875 6.005859375,31.318359375 2.783203125,28.4033203125 0.7177734375,24.3603515625 0,19.21875 0.307616829872131,15.91552734375 1.23046875,13.037109375 2.669677734375,10.5908222198486 4.5263671875,8.583984375 6.76025295257568,7.02026510238647 9.3310546875,5.9033203125 12.147216796875,5.23315572738647 15.1171875,5.009765625 20.126953125,5.009765625 21.9140625,0z" />
    </g>
  </g>
</svg>