<?xml version="1.0" encoding="utf-8"?>
<!DOCTYPE svg PUBLIC "-//W3C//DTD SVG 1.1//EN" "http://www.w3.org/Graphics/SVG/1.1/DTD/svg11.dtd">
<svg width="28.857421875" height="30" xmlns="http://www.w3.org/2000/svg" xmlns:xlink="http://www.w3.org/1999/xlink" xmlns:xml="http://www.w3.org/XML/1998/namespace" version="1.1">
  <g>
    <g>
      <path style="fill:#FF0000;fill-opacity:1" d="M0.64453125,12.59765625L28.18359375,12.59765625 28.18359375,16.46484375 16.962890625,16.46484375 15.234375,21.2109375 28.212890625,21.2109375 28.212890625,25.078125 13.828125,25.078125 12.041015625,30 8.203125,30 10.048828125,25.078125 0.673828125,25.078125 0.673828125,21.2109375 11.484375,21.2109375 13.271484375,16.46484375 0.64453125,16.46484375 0.64453125,12.59765625z M8.232421875,0L11.52099609375,0.644532680511475 15.1171875,2.578125 18.4936504364014,4.55566549301147 20.888671875,5.21484375 22.4999980926514,4.85962057113647 23.759765625,3.7939453125 24.5874004364014,2.13501119613647 24.90234375,0 28.857421875,0 28.1689453125,3.81958150863647 26.513671875,6.6650390625 23.9794902801514,8.433837890625 20.654296875,9.0234375 18.9715557098389,8.82568359375 17.1166973114014,8.232421875 15.0897207260132,7.24365234375 12.890625,5.859375 10.29052734375,4.36523580551147 8.232421875,3.8671875 6.427001953125,4.18945407867432 5.1123046875,5.15625143051147 4.288330078125,6.76757907867432 3.955078125,9.0234375 0,9.0234375 0.6591796875,5.244140625 2.3291015625,2.4169921875 4.892578125,0.6298828125 8.232421875,0z" />
    </g>
  </g>
</svg>