<?xml version="1.0" encoding="utf-8"?>
<!DOCTYPE svg PUBLIC "-//W3C//DTD SVG 1.1//EN" "http://www.w3.org/Graphics/SVG/1.1/DTD/svg11.dtd">
<svg width="27.1582031250019" height="12.041015625" xmlns="http://www.w3.org/2000/svg" xmlns:xlink="http://www.w3.org/1999/xlink" xmlns:xml="http://www.w3.org/XML/1998/namespace" version="1.1">
  <g>
    <g>
      <path style="fill:#FF0000;fill-opacity:1" d="M6.5625,0L8.8623046875,0.3662109375 10.9130859375,1.34765625 12.83203125,2.75390625 14.736328125,4.423828125 16.3037109375,5.8740234375 17.783203125,7.1630859375 19.27734375,8.0859375 20.859375,8.4375 22.119140625,8.203125 22.998046875,7.587890625 23.5107421875,6.708984375 23.671875,5.68359375 23.02734375,3.9111328125 22.1704082489014,3.336181640625 20.888671875,2.98828125 20.888671875,0 22.6904277801514,0.230712890625 24.111328125,0.7470703125 26.015625,2.2705078125 26.923828125,4.072265625 27.158203125,5.68359375 26.71875,8.056640625 25.4296875,10.078125 23.349609375,11.484375 20.537109375,12.01171875 18.2373046875,11.572265625 16.11328125,10.4443359375 14.1357421875,8.8916015625 12.3046875,7.177734375 10.9130859375,5.859375 9.5068359375,4.716796875 8.02734375,3.92578125 6.38671875,3.6328125 5.020751953125,3.819580078125 4.1455078125,4.3798828125 3.515625,6.240234375 3.709716796875,7.239990234375 4.2919921875,8.0126953125 6.50390625,8.876953125 6.50390625,12.041015625 3.2373046875,11.3525390625 1.2451171875,9.90234375 0.263671875,8.056640625 0,6.181640625 0.4833984375,3.603515625 1.8310546875,1.6552734375 3.896484375,0.4248046875 6.5625,0z" />
    </g>
  </g>
</svg>