<?xml version="1.0" encoding="utf-8"?>
<!DOCTYPE svg PUBLIC "-//W3C//DTD SVG 1.1//EN" "http://www.w3.org/Graphics/SVG/1.1/DTD/svg11.dtd">
<svg width="27.5390625000019" height="32.28515625" xmlns="http://www.w3.org/2000/svg" xmlns:xlink="http://www.w3.org/1999/xlink" xmlns:xml="http://www.w3.org/XML/1998/namespace" version="1.1">
  <g>
    <g>
      <path style="fill:#FF0000;fill-opacity:1" d="M3.251953125,25.693359375L4.5263671875,25.95703125 5.5810546875,26.6748046875 6.298828125,27.7294921875 6.5625,29.00390625 6.298828125,30.2783203125 5.5810546875,31.318359375 4.5263671875,32.021484375 3.251953125,32.28515625 1.9921875,32.021484375 0.966796875,31.318359375 0.263671875,30.2783203125 0,29.00390625 0.263671875,27.7294921875 0.966796875,26.6748046875 1.9921875,25.95703125 3.251953125,25.693359375z M0,18.515625L27.5390625,18.515625 27.5390625,22.3828125 0,22.3828125 0,18.515625z M0,9.90234375L27.5390625,9.90234375 27.5390625,13.76953125 0,13.76953125 0,9.90234375z M24.228515625,0L25.5029296875,0.263671875 26.5576171875,0.9814453125 27.275390625,2.0361328125 27.5390625,3.310546875 27.275390625,4.5849609375 26.5576171875,5.625 25.5029296875,6.328125 24.228515625,6.591796875 22.96875,6.328125 21.943359375,5.625 21.240234375,4.5849609375 20.9765625,3.310546875 21.240234375,2.0361328125 21.943359375,0.9814453125 22.96875,0.263671875 24.228515625,0z" />
    </g>
  </g>
</svg>