<?xml version="1.0" encoding="utf-8"?>
<!DOCTYPE svg PUBLIC "-//W3C//DTD SVG 1.1//EN" "http://www.w3.org/Graphics/SVG/1.1/DTD/svg11.dtd">
<svg width="28.857421875" height="9.08203125" xmlns="http://www.w3.org/2000/svg" xmlns:xlink="http://www.w3.org/1999/xlink" xmlns:xml="http://www.w3.org/XML/1998/namespace" version="1.1">
  <g>
    <g>
      <path style="fill:#FF0000;fill-opacity:1" d="M0,0L3.955078125,0 4.27001953125,2.135009765625 5.09765625,3.7939453125 6.35742092132568,4.859619140625 7.96875,5.21484375 10.36376953125,4.5556640625 13.740234375,2.578125 17.3364238739014,0.64453125 20.625,0 23.96484375,0.64453125 26.5283203125,2.4755859375 28.1982421875,5.3466796875 28.857421875,9.08203125 24.90234375,9.08203125 24.5690898895264,6.826171875 23.7451152801514,5.21484375 22.4304180145264,4.248046875 20.625,3.92578125 18.5229473114014,4.41650390625 15.966796875,5.888671875 13.7786865234375,7.2857666015625 11.75537109375,8.28369140625 9.8968505859375,8.8824462890625 8.203125,9.08203125 4.8779296875,8.492431640625 2.34375,6.7236328125 0.688476204872131,3.863525390625 0,0z" />
    </g>
  </g>
</svg>