<?xml version="1.0" encoding="utf-8"?>
<!DOCTYPE svg PUBLIC "-//W3C//DTD SVG 1.1//EN" "http://www.w3.org/Graphics/SVG/1.1/DTD/svg11.dtd">
<svg width="27.919921875" height="28.41796875" xmlns="http://www.w3.org/2000/svg" xmlns:xlink="http://www.w3.org/1999/xlink" xmlns:xml="http://www.w3.org/XML/1998/namespace" version="1.1">
  <g>
    <g>
      <path style="fill:#FF0000;fill-opacity:1" d="M24.609375,21.826171875L25.8837890625,22.08984375 26.9384765625,22.8076171875 27.65625,23.8623046875 27.919921875,25.13671875 27.65625,26.4111328125 26.9384765625,27.451171875 25.8837890625,28.154296875 24.609375,28.41796875 23.349609375,28.154296875 22.32421875,27.451171875 21.62109375,26.4111328125 21.357421875,25.13671875 21.62109375,23.8623046875 22.32421875,22.8076171875 23.349609375,22.08984375 24.609375,21.826171875z M0,12.24609375L15.8203125,12.24609375 15.8203125,16.171875 0,16.171875 0,12.24609375z M24.609375,0L25.8837890625,0.263671875 26.9384765625,0.9814453125 27.65625,2.0361328125 27.919921875,3.310546875 27.65625,4.5849609375 26.9384765625,5.625 25.8837890625,6.328125 24.609375,6.591796875 23.349609375,6.328125 22.32421875,5.625 21.62109375,4.5849609375 21.357421875,3.310546875 21.62109375,2.0361328125 22.32421875,0.9814453125 23.349609375,0.263671875 24.609375,0z" />
    </g>
  </g>
</svg>