<?xml version="1.0" encoding="utf-8"?>
<!DOCTYPE svg PUBLIC "-//W3C//DTD SVG 1.1//EN" "http://www.w3.org/Graphics/SVG/1.1/DTD/svg11.dtd">
<svg width="44.0625000000006" height="43.623046875" xmlns="http://www.w3.org/2000/svg" xmlns:xlink="http://www.w3.org/1999/xlink" xmlns:xml="http://www.w3.org/XML/1998/namespace" version="1.1">
  <g>
    <g>
      <path style="fill:#FF0000;fill-opacity:1" d="M35.5078125,9.43359375L10.95703125,36.50390625 13.370361328125,38.115234375 16.0400390625,39.31640625 18.9294414520264,40.0634765625 22.001953125,40.3125 25.755615234375,39.9609375 29.2236328125,38.90625 32.325439453125,37.232666015625 34.98046875,35.0244140625 37.144775390625,32.325439453125 38.7744140625,29.1796875 39.796142578125,25.6787109375 40.13671875,21.9140625 39.832763671875,18.3544940948486 38.9208984375,15.05859375 37.459716796875,12.0703144073486 35.5078125,9.43359375z M22.001953125,3.544921875L18.2519512176514,3.896484375 14.794921875,4.951171875 11.707763671875,6.624755859375 9.0673828125,8.8330078125 6.91406154632568,11.5283212661743 5.2880859375,14.6630859375 4.266357421875,18.1530780792236 3.92578125,21.9140625 4.229736328125,25.360107421875 5.1416015625,28.6083984375 6.59545803070068,31.585693359375 8.525390625,34.21875 33.076171875,7.177734375 30.662841796875,5.643310546875 27.9931640625,4.4970703125 25.096435546875,3.782958984375 22.001953125,3.544921875z M39.580078125,0L44.0625,0 37.998046875,6.708984375 40.5322265625,9.85107421875 42.451171875,13.4765625 43.6596641540527,17.5195331573486 44.0625,21.9140625 43.8647422790527,24.89501953125 43.271484375,27.744140625 41.044921875,32.9443359375 37.587890625,37.32421875 33.1201171875,40.693359375 27.861328125,42.861328125 24.990234375,43.4326171875 22.001953125,43.623046875 18.2739238739014,43.326416015625 14.765625,42.4365234375 11.513671875,41.019287109375 8.5546875,39.140625 4.51171875,43.623046875 0,43.623046875 6.064453125,36.943359375 3.5302734375,33.790283203125 1.611328125,30.1904296875 0.402831673622131,26.209716796875 0,21.9140625 0.197753548622131,18.9331073760986 0.791015625,16.083984375 3.017578125,10.8837890625 6.4599609375,6.50390625 10.9130859375,3.134765625 16.171875,0.966796875 19.0356426239014,0.3955078125 22.001953125,0.205078125 25.755615234375,0.487060546875 29.2822265625,1.3330078125 32.537841796875,2.691650390625 35.478515625,4.51171875 39.580078125,0z" />
    </g>
  </g>
</svg>