<?xml version="1.0" encoding="utf-8"?>
<!DOCTYPE svg PUBLIC "-//W3C//DTD SVG 1.1//EN" "http://www.w3.org/Graphics/SVG/1.1/DTD/svg11.dtd">
<svg width="28.857421875" height="9.08203125" xmlns="http://www.w3.org/2000/svg" xmlns:xlink="http://www.w3.org/1999/xlink" xmlns:xml="http://www.w3.org/XML/1998/namespace" version="1.1">
  <g>
    <g>
      <path style="fill:#FF0000;fill-opacity:1" d="M8.232421875,0L11.52099609375,0.64453125 15.1171875,2.578125 18.4936504364014,4.5556640625 20.888671875,5.21484375 22.4999980926514,4.859619140625 23.759765625,3.7939453125 24.5874004364014,2.135009765625 24.90234375,0 28.857421875,0 28.1689453125,3.863525390625 26.513671875,6.7236328125 23.9794902801514,8.492431640625 20.654296875,9.08203125 18.9605693817139,8.8824462890625 17.1020488739014,8.28369140625 15.0787343978882,7.2857666015625 12.890625,5.888671875 10.30517578125,4.41650390625 8.232421875,3.92578125 6.427001953125,4.248046875 5.1123046875,5.21484375 4.288330078125,6.826171875 3.955078125,9.08203125 0,9.08203125 0.6591796875,5.3173828125 2.3291015625,2.4462890625 4.892578125,0.6298828125 8.232421875,0z" />
    </g>
  </g>
</svg>