<?xml version="1.0" encoding="utf-8"?>
<!DOCTYPE svg PUBLIC "-//W3C//DTD SVG 1.1//EN" "http://www.w3.org/Graphics/SVG/1.1/DTD/svg11.dtd">
<svg width="19.3945312500008" height="43.41796875" xmlns="http://www.w3.org/2000/svg" xmlns:xlink="http://www.w3.org/1999/xlink" xmlns:xml="http://www.w3.org/XML/1998/namespace" version="1.1">
  <g>
    <g>
      <path style="fill:#FF0000;fill-opacity:1" d="M9.9609375,0L12.25341796875,0.223388671875 14.208984375,0.8935546875 15.838623046875,1.988525390625 17.1533203125,3.486328125 18.8525390625,7.6318359375 19.39453125,13.18359375 15.322265625,13.18359375 15.029296875,9.228515625 14.091796875,6.298828125 12.392578125,4.4677734375 9.814453125,3.837890625 7.2216796875,4.453125 5.478515625,6.3427734375 4.4970703125,9.6240234375 4.189453125,14.384765625 4.189453125,29.033203125 4.27642822265625,31.6122436523438 4.537353515625,33.812255859375 4.97222900390625,35.6332397460938 5.5810546875,37.0751953125 7.38647365570068,38.953857421875 10.01953125,39.580078125 12.568359375,38.9501953125 14.208984375,37.119140625 15.0732421875,34.189453125 15.322265625,30.234375 19.39453125,30.234375 18.80859375,35.7861328125 17.05078125,39.931640625 15.728759765625,41.429443359375 14.1064453125,42.5244140625 12.183837890625,43.194580078125 9.9609375,43.41796875 7.60253810882568,43.22021484375 5.56640625,42.626953125 3.8525390625,41.60888671875 2.4609375,40.13671875 1.38427710533142,38.206787109375 0.615233898162842,35.8154296875 0.153808176517487,32.933349609375 0,29.53125 0,13.88671875 0.615233898162842,8.1005859375 1.38427710533142,5.7275390625 2.4609375,3.7353515625 3.8525390625,2.142333984375 5.56640625,0.966796875 7.60253810882568,0.24169921875 9.9609375,0z" />
    </g>
  </g>
</svg>