<?xml version="1.0" encoding="utf-8"?>
<!DOCTYPE svg PUBLIC "-//W3C//DTD SVG 1.1//EN" "http://www.w3.org/Graphics/SVG/1.1/DTD/svg11.dtd">
<svg width="27.5390625" height="12.48046875" xmlns="http://www.w3.org/2000/svg" xmlns:xlink="http://www.w3.org/1999/xlink" xmlns:xml="http://www.w3.org/XML/1998/namespace" version="1.1">
  <g>
    <g>
      <path style="fill:#FF0000;fill-opacity:1" d="M13.681640625,3.515625L12.593994140625,3.720703125 11.7333984375,4.3359375 10.986328125,6.26953125 11.19140625,7.32421875 11.748046875,8.203125 12.59765625,8.8037109375 13.681640625,9.0234375 14.7216796875,8.8037109375 15.556640625,8.203125 16.11328125,7.32421875 16.318359375,6.26953125 16.1279296875,5.174560546875 15.556640625,4.2919921875 14.70703125,3.709716796875 13.681640625,3.515625z M0,0L27.5390625,0 27.5390625,3.8671875 19.39453125,3.8671875 19.892578125,6.240234375 19.74609375,7.470703125 19.365234375,8.61328125 27.5390625,8.61328125 27.5390625,12.48046875 0,12.48046875 0,8.61328125 7.998046875,8.61328125 7.5,6.240234375 7.96875,3.8671875 0,3.8671875 0,0z" />
    </g>
  </g>
</svg>