<?xml version="1.0" encoding="utf-8"?>
<!DOCTYPE svg PUBLIC "-//W3C//DTD SVG 1.1//EN" "http://www.w3.org/Graphics/SVG/1.1/DTD/svg11.dtd">
<svg width="29.47265625" height="38.7890625" xmlns="http://www.w3.org/2000/svg" xmlns:xlink="http://www.w3.org/1999/xlink" xmlns:xml="http://www.w3.org/XML/1998/namespace" version="1.1">
  <g>
    <g>
      <path style="fill:#FF0000;fill-opacity:1" d="M13.7109375,21.15234375L10.693359375,29.765625 13.0078125,29.765625 17.9699687957764,29.227294921875 21.6064453125,27.6123046875 23.9685039520264,24.920654296875 25.107421875,21.15234375 13.7109375,21.15234375z M17.841796875,9.287109375L15.05859375,17.28515625 25.107421875,17.28515625 24.3457012176514,14.3133554458618 22.8808574676514,11.9897480010986 20.7128887176514,10.3143320083618 17.841796875,9.287109375z M17.05078125,0L21.09375,0 19.130859375,5.625 23.232421875,7.353515625 26.513671875,10.1953125 28.681640625,14.150390625 29.27490234375,16.54541015625 29.47265625,19.21875 29.1943359375,22.529296875 28.359375,25.4296875 27.0263671875,27.908935546875 25.25390625,29.9560546875 23.0639629364014,31.56005859375 20.478515625,32.7099609375 17.5561504364014,33.402099609375 14.35546875,33.6328125 9.345703125,33.6328125 7.55859375,38.7890625 3.33984375,38.7890625 5.15625,33.6328125 0,33.6328125 0,29.765625 6.50390625,29.765625 9.55078125,21.15234375 0,21.15234375 0,17.28515625 10.927734375,17.28515625 13.88671875,8.876953125 0,8.876953125 0,5.009765625 14.35546875,5.009765625 14.8095703125,5.0244140625 15.263671875,5.0390625 17.05078125,0z" />
    </g>
  </g>
</svg>