<?xml version="1.0" encoding="utf-8"?>
<!DOCTYPE svg PUBLIC "-//W3C//DTD SVG 1.1//EN" "http://www.w3.org/Graphics/SVG/1.1/DTD/svg11.dtd">
<svg width="27.5390625" height="29.53125" xmlns="http://www.w3.org/2000/svg" xmlns:xlink="http://www.w3.org/1999/xlink" xmlns:xml="http://www.w3.org/XML/1998/namespace" version="1.1">
  <g>
    <g>
      <path style="fill:#FF0000;fill-opacity:1" d="M0,25.6640625L27.5390625,25.6640625 27.5390625,29.53125 0,29.53125 0,25.6640625z M0,17.05078125L27.5390625,17.05078125 27.5390625,20.91796875 0,20.91796875 0,17.05078125z M13.798828125,3.28125L12.568359375,3.5302734375 11.54296875,4.21875 10.83984375,5.244140625 10.576171875,6.50390625 10.810546875,7.7783203125 11.4697265625,8.84765625 12.48046875,9.580078125 13.76953125,9.84375 15.0439453125,9.580078125 16.083984375,8.84765625 16.787109375,7.7783203125 17.05078125,6.50390625 16.787109375,5.244140625 16.083984375,4.21875 15.05859375,3.5302734375 13.798828125,3.28125z M13.740234375,0L16.3037109375,0.5126953125 18.4130859375,1.904296875 19.833984375,3.9697265625 20.361328125,6.50390625 19.833984375,9.08203125 18.4130859375,11.19140625 16.318359375,12.6123046875 13.76953125,13.125 11.25,12.6123046875 9.1552734375,11.19140625 7.734375,9.08203125 7.20703125,6.50390625 7.7197265625,3.9404296875 9.111328125,1.875 11.1767578125,0.498046875 13.740234375,0z" />
    </g>
  </g>
</svg>