<?xml version="1.0" encoding="utf-8"?>
<!DOCTYPE svg PUBLIC "-//W3C//DTD SVG 1.1//EN" "http://www.w3.org/Graphics/SVG/1.1/DTD/svg11.dtd">
<svg width="29.47265625" height="42.01171875" xmlns="http://www.w3.org/2000/svg" xmlns:xlink="http://www.w3.org/1999/xlink" xmlns:xml="http://www.w3.org/XML/1998/namespace" version="1.1">
  <g>
    <g>
      <path style="fill:#FF0000;fill-opacity:1" d="M15.1171875,0L29.47265625,0 29.47265625,3.8671875 15.5859375,3.8671875 10.67138671875,4.48974609375 7.11914110183716,6.357421875 4.96582078933716,9.54345893859863 4.24804735183716,14.12109375 4.43573045730591,16.5811157226563 4.99877977371216,18.717041015625 5.93719530105591,20.5288696289063 7.25097703933716,22.0166015625 8.95294189453125,23.1765747070313 11.055908203125,24.005126953125 13.5598754882813,24.5022583007813 16.46484375,24.66796875 29.47265625,24.66796875 29.47265625,28.53515625 19.453125,28.53515625 17.958984375,32.87109375 29.47265625,32.87109375 29.47265625,36.73828125 16.611328125,36.73828125 14.82421875,42.01171875 10.60546875,42.01171875 12.48046875,36.73828125 1.93359422683716,36.73828125 1.93359422683716,32.87109375 13.857421875,32.87109375 15.380859375,28.53515625 15.1171875,28.53515625 11.91650390625,28.304443359375 8.994140625,27.6123046875 6.40869092941284,26.46240234375 4.21875047683716,24.8583984375 2.44628953933716,22.811279296875 1.11328125,20.33203125 0.2783203125,17.431640625 0,14.12109375 0.307617247104645,10.8215351104736 1.23046922683716,7.9541015625 2.66967821121216,5.52246189117432 4.52636766433716,3.5302734375 6.76025342941284,1.981201171875 9.3310546875,0.87890625 12.147216796875,0.2197265625 15.1171875,0z" />
    </g>
  </g>
</svg>