<?xml version="1.0" encoding="utf-8"?>
<!DOCTYPE svg PUBLIC "-//W3C//DTD SVG 1.1//EN" "http://www.w3.org/Graphics/SVG/1.1/DTD/svg11.dtd">
<svg width="27.5390625" height="43.828125" xmlns="http://www.w3.org/2000/svg" xmlns:xlink="http://www.w3.org/1999/xlink" xmlns:xml="http://www.w3.org/XML/1998/namespace" version="1.1">
  <g>
    <g>
      <path style="fill:#FF0000;fill-opacity:1" d="M13.564453125,15.205078125L6.38671875,18.75 6.38671875,18.8671875 11.572265625,21.4453125 13.564453125,15.205078125z M18.3984375,0L21.767578125,0 19.21875,8.14453125 27.5390625,3.896484375 27.5390625,8.291015625 17.666015625,13.18359375 14.6484375,22.96875 27.5390625,29.35546875 27.5390625,33.720703125 13.53515625,26.54296875 10.60546875,36.005859375 27.5390625,36.005859375 27.5390625,39.90234375 9.375,39.90234375 8.173828125,43.828125 4.482421875,43.828125 5.712890625,39.90234375 0,39.90234375 0,36.005859375 6.943359375,36.005859375 10.458984375,24.9609375 0,19.599609375 0,18.017578125 15.1171875,10.25390625 18.3984375,0z" />
    </g>
  </g>
</svg>