<?xml version="1.0" encoding="utf-8"?>
<!DOCTYPE svg PUBLIC "-//W3C//DTD SVG 1.1//EN" "http://www.w3.org/Graphics/SVG/1.1/DTD/svg11.dtd">
<svg width="27.8906250000048" height="34.3359375" xmlns="http://www.w3.org/2000/svg" xmlns:xlink="http://www.w3.org/1999/xlink" xmlns:xml="http://www.w3.org/XML/1998/namespace" version="1.1">
  <g>
    <g>
      <path style="fill:#FF0000;fill-opacity:1" d="M6.26953077316284,0L8.90625,0.41015625 10.927734375,1.494140625 12.4365234375,3.076171875 13.505859375,4.98046875 10.48828125,6.4453125 9.052734375,4.27734375 8.04199123382568,3.64013814926147 6.76757764816284,3.427734375 5.52245998382568,3.64746236801147 4.59960889816284,4.306640625 4.02831983566284,5.31738424301147 3.83789014816284,6.591796875 4.25903272628784,8.58398628234863 5.52246046066284,10.224609375 7.56591653823853,11.5869140625 10.3271484375,12.744140625 13.780517578125,13.736572265625 17.900390625,14.6044921875 22.6245098114014,15.428466796875 27.890625,16.2890625 27.890625,18.046875 22.6245098114014,18.907470703125 17.900390625,19.7314453125 13.780517578125,20.599365234375 10.3271484375,21.591796875 7.56591653823853,22.7490234375 5.52246046066284,24.111328125 4.25903272628784,25.751953125 3.83789014816284,27.744140625 4.02831983566284,29.0185546875 4.59960889816284,30.029296875 5.52245998382568,30.6884765625 6.76757764816284,30.908203125 8.0419921875,30.615234375 9.052734375,29.8681640625 9.8291015625,28.857421875 10.400390625,27.802734375 13.505859375,29.4140625 12.3193359375,31.494140625 10.869140625,33.0322265625 9.0087890625,33.9990234375 6.62109327316284,34.3359375 4.04296827316284,33.8671875 1.94824171066284,32.548828125 0.527343273162842,30.52734375 0,27.978515625 0.747069835662842,24.2431640625 1.74682545661926,22.6171875 3.25195264816284,21.1669921875 5.28808546066284,19.896240234375 7.88085889816284,18.80859375 11.103515625,17.9296875 15.029296875,17.28515625 15.029296875,16.9921875 11.103515625,16.259765625 7.88085889816284,15.3515625 5.28808546066284,14.27490234375 3.25195264816284,13.037109375 1.74682545661926,11.630859375 0.747069835662842,10.048828125 0,6.357421875 0.424804210662842,3.80859375 1.65527296066284,1.787109375 3.61816358566284,0.46875 6.26953077316284,0z" />
    </g>
  </g>
</svg>