<?xml version="1.0" encoding="utf-8"?>
<!DOCTYPE svg PUBLIC "-//W3C//DTD SVG 1.1//EN" "http://www.w3.org/Graphics/SVG/1.1/DTD/svg11.dtd">
<svg width="37.0898437500003" height="36.533203125" xmlns="http://www.w3.org/2000/svg" xmlns:xlink="http://www.w3.org/1999/xlink" xmlns:xml="http://www.w3.org/XML/1998/namespace" version="1.1">
  <g>
    <g>
      <path style="fill:#FF0000;fill-opacity:1" d="M16.494140625,7.3828125L20.537109375,7.3828125 19.86328125,16.2890625 27.568359375,13.388671875 28.798828125,17.05078125 20.771484375,18.69140625 26.337890625,25.810546875 23.115234375,28.037109375 18.544921875,20.2734375 13.916015625,28.037109375 10.693359375,25.810546875 16.259765625,18.69140625 8.173828125,17.05078125 9.4921875,13.388671875 17.16796875,16.2890625 16.494140625,7.3828125z M18.544921875,3.896484375L15.615234375,4.17480611801147 12.919921875,5.009765625 10.51025390625,6.32812643051147 8.4375,8.056640625 6.74194240570068,10.1623554229736 5.4638671875,12.6123046875 4.661865234375,15.333251953125 4.39453125,18.251953125 4.661865234375,21.192626953125 5.4638671875,23.9208984375 6.74194240570068,26.370849609375 8.4375,28.4765625 10.51025390625,30.205078125 12.919921875,31.5234375 15.615234375,32.3583984375 18.544921875,32.63671875 21.4562969207764,32.3583984375 24.1552734375,31.5234375 26.575927734375,30.205078125 28.65234375,28.4765625 30.347900390625,26.370849609375 31.6259765625,23.9208984375 32.427978515625,21.192626953125 32.6953125,18.251953125 32.427978515625,15.333251953125 31.6259765625,12.6123046875 30.347900390625,10.1623554229736 28.65234375,8.056640625 26.575927734375,6.32812643051147 24.1552734375,5.009765625 21.4562969207764,4.17480611801147 18.544921875,3.896484375z M18.544921875,0L22.2656230926514,0.355224609375 25.751953125,1.4208984375 28.90869140625,3.101806640625 31.640625,5.302734375 33.896484375,7.97973775863647 35.625,11.0888671875 36.7236328125,14.542236328125 37.08984375,18.251953125 36.7236328125,21.96533203125 35.625,25.4296875 33.896484375,28.5498046875 31.640625,31.23046875 28.90869140625,33.431396484375 25.751953125,35.1123046875 22.2656230926514,36.177978515625 18.544921875,36.533203125 14.82421875,36.177978515625 11.337890625,35.1123046875 8.18115139007568,33.431396484375 5.44921875,31.23046875 3.193359375,28.5498046875 1.46484375,25.4296875 0.366210579872131,21.96533203125 0,18.251953125 0.366210579872131,14.542236328125 1.46484375,11.0888671875 3.193359375,7.97973775863647 5.44921875,5.302734375 8.18115139007568,3.101806640625 11.337890625,1.4208984375 14.82421875,0.355224609375 18.544921875,0z" />
    </g>
  </g>
</svg>