<?xml version="1.0" encoding="utf-8"?>
<!DOCTYPE svg PUBLIC "-//W3C//DTD SVG 1.1//EN" "http://www.w3.org/Graphics/SVG/1.1/DTD/svg11.dtd">
<svg width="37.0898437500003" height="36.533203125" xmlns="http://www.w3.org/2000/svg" xmlns:xlink="http://www.w3.org/1999/xlink" xmlns:xml="http://www.w3.org/XML/1998/namespace" version="1.1">
  <g>
    <g>
      <path style="fill:#FF0000;fill-opacity:1" d="M20.478515625,20.21484375L20.478515625,32.51953125 24.9609375,31.1572265625 28.6376953125,28.4912109375 31.2451171875,24.755859375 32.578125,20.21484375 20.478515625,20.21484375z M4.51171875,20.21484375L5.830078125,24.755859375 8.4375,28.4912109375 12.0849609375,31.1572265625 16.58203125,32.51953125 16.58203125,20.21484375 4.51171875,20.21484375z M20.478515625,4.04296875L20.478515625,16.2890625 32.578125,16.2890625 31.2451171875,11.7626953125 28.6376953125,8.056640625 24.9609375,5.4052734375 20.478515625,4.04296875z M16.58203125,4.04296875L12.0849609375,5.4052734375 8.4375,8.056640625 5.830078125,11.7626953125 4.51171875,16.2890625 16.58203125,16.2890625 16.58203125,4.04296875z M18.544921875,0L22.2656230926514,0.355224609375 25.751953125,1.4208984375 28.90869140625,3.101806640625 31.640625,5.302734375 33.896484375,7.97973775863647 35.625,11.0888671875 36.7236328125,14.542236328125 37.08984375,18.251953125 36.7236328125,21.96533203125 35.625,25.4296875 33.896484375,28.5498046875 31.640625,31.23046875 28.90869140625,33.431396484375 25.751953125,35.1123046875 22.2656230926514,36.177978515625 18.544921875,36.533203125 14.82421875,36.177978515625 11.337890625,35.1123046875 8.18115139007568,33.431396484375 5.44921875,31.23046875 3.193359375,28.5498046875 1.46484375,25.4296875 0.366210579872131,21.96533203125 0,18.251953125 0.366210579872131,14.542236328125 1.46484375,11.0888671875 3.193359375,7.97973775863647 5.44921875,5.302734375 8.18115139007568,3.101806640625 11.337890625,1.4208984375 14.82421875,0.355224609375 18.544921875,0z" />
    </g>
  </g>
</svg>