<?xml version="1.0" encoding="utf-8"?>
<!DOCTYPE svg PUBLIC "-//W3C//DTD SVG 1.1//EN" "http://www.w3.org/Graphics/SVG/1.1/DTD/svg11.dtd">
<svg width="13.4765625000001" height="42.01171875" xmlns="http://www.w3.org/2000/svg" xmlns:xlink="http://www.w3.org/1999/xlink" xmlns:xml="http://www.w3.org/XML/1998/namespace" version="1.1">
  <g>
    <g>
      <path style="fill:#FF0000;fill-opacity:1" d="M6.708984375,9.2578125L4.84130859375,14.9340839385986 4.21875,21.123046875 4.84130859375,27.3193359375 6.708984375,32.958984375 8.57665920257568,27.3193359375 9.19921875,21.123046875 8.57665920257568,14.9340839385986 6.708984375,9.2578125z M0,0L4.3359375,0 5.56640625,1.2451171875 6.708984375,2.51953125 7.8515625,1.2451171875 9.08203125,0 13.41796875,0 10.927734375,2.63671875 8.84765625,5.390625 10.872802734375,9.00329685211182 12.3193359375,12.8393573760986 13.187255859375,16.8988056182861 13.4765625,21.181640625 13.1890869140625,25.45166015625 12.32666015625,29.47265625 10.8892822265625,33.24462890625 8.876953125,36.767578125 13.359375,42.01171875 9.08203125,42.01171875 7.8515625,40.8251953125 6.708984375,39.580078125 5.56640625,40.8251953125 4.3359375,42.01171875 0.0585932731628418,42.01171875 4.541015625,36.767578125 2.5543212890625,33.233642578125 1.13525366783142,29.4580078125 0.283813267946243,25.440673828125 0,21.181640625 0.285644322633743,16.8896503448486 1.14257788658142,12.8320331573486 2.57080078125,9.00879001617432 4.5703125,5.419921875 2.4755859375,2.61474609375 0,0z" />
    </g>
  </g>
</svg>