<?xml version="1.0" encoding="utf-8"?>
<!DOCTYPE svg PUBLIC "-//W3C//DTD SVG 1.1//EN" "http://www.w3.org/Graphics/SVG/1.1/DTD/svg11.dtd">
<svg width="25.60546875" height="12.744140625" xmlns="http://www.w3.org/2000/svg" xmlns:xlink="http://www.w3.org/1999/xlink" xmlns:xml="http://www.w3.org/XML/1998/namespace" version="1.1">
  <g>
    <g>
      <path style="fill:#FF0000;fill-opacity:1" d="M19.27734375,2.783203125L17.9443359375,3.0322265625 16.8310546875,3.7353515625 16.0546875,4.8486328125 15.76171875,6.298828125 16.0400390625,7.763671875 16.787109375,8.9208984375 17.8857421875,9.6826171875 19.21875,9.9609375 20.5517578125,9.6826171875 21.650390625,8.9208984375 22.3828125,7.763671875 22.646484375,6.298828125 22.3828125,4.8486328125 21.650390625,3.7353515625 20.5810546875,3.0322265625 19.27734375,2.783203125z M19.16015625,0L21.6943359375,0.498046875 23.7451171875,1.8603515625 25.107421875,3.8671875 25.60546875,6.298828125 25.107421875,8.8623046875 23.7451171875,10.9130859375 21.7236328125,12.2607421875 19.21875,12.744140625 17.05078125,12.3779296875 15.205078125,11.3525390625 13.8134765625,9.7998046875 12.978515625,7.822265625 0,7.822265625 0,4.892578125 12.978515625,4.892578125 13.76953125,2.9296875 15.1318359375,1.376953125 16.962890625,0.3662109375 19.16015625,0z" />
    </g>
  </g>
</svg>