<?xml version="1.0" encoding="utf-8"?>
<!DOCTYPE svg PUBLIC "-//W3C//DTD SVG 1.1//EN" "http://www.w3.org/Graphics/SVG/1.1/DTD/svg11.dtd">
<svg width="27.5390625" height="30.703125" xmlns="http://www.w3.org/2000/svg" xmlns:xlink="http://www.w3.org/1999/xlink" xmlns:xml="http://www.w3.org/XML/1998/namespace" version="1.1">
  <g>
    <g>
      <path style="fill:#FF0000;fill-opacity:1" d="M17.021484375,0L20.654296875,0 17.63671875,8.876953125 20.5810546875,7.470703125 22.763671875,5.15625 27.5390625,5.15625 25.46630859375,8.08593940734863 22.939453125,10.37109375 19.9072246551514,11.9677734375 16.318359375,12.83203125 14.794921875,17.373046875 19.0283203125,18.10546875 22.67578125,19.7314453125 25.5615234375,22.119140625 27.5390625,25.166015625 22.880859375,25.166015625 21.0937480926514,23.23974609375 18.896484375,21.9140625 16.38427734375,21.14501953125 13.65234375,20.888671875 13.59375,20.888671875 10.283203125,30.703125 6.474609375,30.703125 9.638671875,21.474609375 6.8701171875,22.8662109375 4.775390625,25.166015625 0,25.166015625 2.08373999595642,22.22900390625 4.7021484375,19.98046875 7.71606349945068,18.4130859375 10.986328125,17.51953125 12.568359375,12.978515625 8.6865234375,12.315673828125 5.244140625,10.7958984375 2.32177734375,8.411865234375 0,5.15625 4.658203125,5.15625 6.41601467132568,7.08252096176147 8.525390625,8.408203125 10.94970703125,9.17724609375 13.65234375,9.43359375 13.76953125,9.43359375 17.021484375,0z" />
    </g>
  </g>
</svg>