<?xml version="1.0" encoding="utf-8"?>
<!DOCTYPE svg PUBLIC "-//W3C//DTD SVG 1.1//EN" "http://www.w3.org/Graphics/SVG/1.1/DTD/svg11.dtd">
<svg width="28.857421875" height="39.873046875" xmlns="http://www.w3.org/2000/svg" xmlns:xlink="http://www.w3.org/1999/xlink" xmlns:xml="http://www.w3.org/XML/1998/namespace" version="1.1">
  <g>
    <g>
      <path style="fill:#FF0000;fill-opacity:1" d="M16.640625,23.701171875L20.712890625,23.701171875 16.69921875,30.5859375 19.0795879364014,31.79443359375 20.888671875,32.197265625 22.5,31.81640625 23.759765625,30.732421875 24.580078125,29.0625 24.90234375,26.953125 28.857421875,26.953125 28.1689453125,30.794677734375 26.513671875,33.6474609375 23.9794902801514,35.416259765625 20.654296875,36.005859375 17.8930644989014,35.5078125 14.70703125,34.013671875 11.279296875,39.873046875 7.1484375,39.873046875 11.71875,32.080078125 9.85107421875,31.201171875 8.232421875,30.908203125 6.427001953125,31.226806640625 5.1123046875,32.1826171875 4.288330078125,33.775634765625 3.955078125,36.005859375 0,36.005859375 0.659180164337158,32.2412109375 2.314453125,29.384765625 4.86328125,27.5830078125 8.232421875,26.953125 10.8837890625,27.3779296875 13.740234375,28.65234375 16.640625,23.701171875z M28.857421875,0L28.857421875,4.98046875 24.90234375,7.67578125 20.2880859375,9.78515625 15.52734375,11.337890625 11.1328125,12.392578125 11.1328125,12.509765625 15.4248046875,13.1103515625 20.009765625,14.296875 24.580078125,16.171875 28.857421875,18.80859375 28.857421875,23.7890625 24.66796875,20.7421875 19.892578125,18.3544921875 14.7802734375,16.5380859375 9.5947265625,15.1904296875 4.599609375,14.208984375 0.029296875,13.505859375 0.029296875,11.77734375 4.6142578125,10.7666015625 9.6240234375,9.521484375 14.8095703125,7.9248046875 19.921875,5.8740234375 24.6826171875,3.2666015625 28.857421875,0z" />
    </g>
  </g>
</svg>