<?xml version="1.0" encoding="utf-8"?>
<!DOCTYPE svg PUBLIC "-//W3C//DTD SVG 1.1//EN" "http://www.w3.org/Graphics/SVG/1.1/DTD/svg11.dtd">
<svg width="28.7109375" height="47.28515625" xmlns="http://www.w3.org/2000/svg" xmlns:xlink="http://www.w3.org/1999/xlink" xmlns:xml="http://www.w3.org/XML/1998/namespace" version="1.1">
  <g>
    <g>
      <path style="fill:#FF0000;fill-opacity:1" d="M3.92578125,9.140625L3.92578125,29.296875 9.90234375,29.296875 17.05078125,9.140625 3.92578125,9.140625z M20.302734375,0L24.345703125,0 22.470703125,5.2734375 28.7109375,5.2734375 28.7109375,9.140625 21.123046875,9.140625 14.033203125,29.296875 28.7109375,29.296875 28.7109375,33.1640625 12.685546875,33.1640625 10.927734375,38.14453125 28.7109375,38.14453125 28.7109375,42.01171875 9.580078125,42.01171875 7.734375,47.28515625 3.515625,47.28515625 5.390625,42.01171875 0,42.01171875 0,38.14453125 6.767578125,38.14453125 8.525390625,33.1640625 0,33.1640625 0,5.2734375 18.427734375,5.2734375 20.302734375,0z" />
    </g>
  </g>
</svg>