<?xml version="1.0" encoding="utf-8"?>
<!DOCTYPE svg PUBLIC "-//W3C//DTD SVG 1.1//EN" "http://www.w3.org/Graphics/SVG/1.1/DTD/svg11.dtd">
<svg width="29.4726562500005" height="38.701171875" xmlns="http://www.w3.org/2000/svg" xmlns:xlink="http://www.w3.org/1999/xlink" xmlns:xml="http://www.w3.org/XML/1998/namespace" version="1.1">
  <g>
    <g>
      <path style="fill:#FF0000;fill-opacity:1" d="M15.1171875,10.078125L29.47265625,10.078125 29.47265625,13.9453125 15.5859375,13.9453125 11.077880859375,14.4616718292236 7.6904296875,16.0107421875 5.445556640625,18.629150390625 4.365234375,22.353515625 29.47265625,22.353515625 29.47265625,26.220703125 4.365234375,26.220703125 5.482177734375,29.989013671875 7.8369140625,32.6806640625 11.480712890625,34.295654296875 16.46484375,34.833984375 29.47265625,34.833984375 29.47265625,38.701171875 15.1171875,38.701171875 11.91650390625,38.470458984375 8.994140625,37.7783203125 6.40869045257568,36.62841796875 4.21875,35.0244140625 2.4462890625,32.977294921875 1.11328077316284,30.498046875 0.278319895267487,27.59765625 0,24.287109375 0.307616829872131,20.98388671875 1.23046875,18.10546875 2.669677734375,15.6591796875 4.5263671875,13.65234375 6.76025295257568,12.0886249542236 9.3310546875,10.9716796875 12.147216796875,10.3015155792236 15.1171875,10.078125z M16.69921875,0L17.9736328125,0.263671875 19.0283203125,0.9814453125 19.74609375,2.0361328125 20.009765625,3.310546875 19.74609375,4.5849609375 19.0283203125,5.625 17.9736328125,6.328125 16.69921875,6.591796875 15.439453125,6.328125 14.4140625,5.625 13.7109375,4.5849609375 13.447265625,3.310546875 13.7109375,2.0361328125 14.4140625,0.9814453125 15.439453125,0.263671875 16.69921875,0z" />
    </g>
  </g>
</svg>