<?xml version="1.0" encoding="utf-8"?>
<!DOCTYPE svg PUBLIC "-//W3C//DTD SVG 1.1//EN" "http://www.w3.org/Graphics/SVG/1.1/DTD/svg11.dtd">
<svg width="29.4726562500005" height="36.73828125" xmlns="http://www.w3.org/2000/svg" xmlns:xlink="http://www.w3.org/1999/xlink" xmlns:xml="http://www.w3.org/XML/1998/namespace" version="1.1">
  <g>
    <g>
      <path style="fill:#FF0000;fill-opacity:1" d="M15.1171875,8.115234375L29.47265625,8.115234375 29.47265625,11.982421875 15.5859375,11.982421875 11.077880859375,12.4987812042236 7.6904296875,14.0478515625 5.445556640625,16.666259765625 4.365234375,20.390625 29.47265625,20.390625 29.47265625,24.2578125 4.365234375,24.2578125 5.482177734375,28.026123046875 7.8369140625,30.7177734375 11.480712890625,32.332763671875 16.46484375,32.87109375 29.47265625,32.87109375 29.47265625,36.73828125 15.1171875,36.73828125 11.91650390625,36.507568359375 8.994140625,35.8154296875 6.40869045257568,34.66552734375 4.21875,33.0615234375 2.4462890625,31.014404296875 1.11328125,28.53515625 0.278319954872131,25.634765625 0,22.32421875 0.307616889476776,19.02099609375 1.23046922683716,16.142578125 2.669677734375,13.6962890625 4.5263671875,11.689453125 6.76025295257568,10.1257343292236 9.3310546875,9.0087890625 12.147216796875,8.33862495422363 15.1171875,8.115234375z M1.93359375,0L29.47265625,0 29.47265625,3.8671875 1.93359375,3.8671875 1.93359375,0z" />
    </g>
  </g>
</svg>