<?xml version="1.0" encoding="utf-8"?>
<!DOCTYPE svg PUBLIC "-//W3C//DTD SVG 1.1//EN" "http://www.w3.org/Graphics/SVG/1.1/DTD/svg11.dtd">
<svg width="44.2968750000007" height="34.423828125" xmlns="http://www.w3.org/2000/svg" xmlns:xlink="http://www.w3.org/1999/xlink" xmlns:xml="http://www.w3.org/XML/1998/namespace" version="1.1">
  <g>
    <g>
      <path style="fill:#FF0000;fill-opacity:1" d="M33.33984375,15.29296875L30.8441162109375,15.7763681411743 28.45458984375,17.2265644073486 26.1712646484375,19.6435565948486 23.994140625,23.02734375 26.0174560546875,26.35986328125 28.24951171875,28.740234375 30.6903076171875,30.16845703125 33.33984375,30.64453125 36.2548828125,30.0732421875 38.4814453125,28.4765625 39.8876953125,26.0302734375 40.37109375,22.91015625 39.84375,19.892578125 38.37890625,17.4755859375 36.15234375,15.87890625 33.33984375,15.29296875z M10.8984375,15.29296875L7.9833984375,15.87890625 5.7568359375,17.5048828125 4.3359375,19.98046875 3.837890625,23.14453125 4.3505859375,26.103515625 5.80078125,28.4912109375 8.02734375,30.0732421875 10.8984375,30.64453125 13.41796875,30.164794921875 15.8203125,28.7255859375 18.10546875,26.326904296875 20.2734375,22.96875 18.2373046875,19.6105976104736 15.99609375,17.2119159698486 13.5498046875,15.7727060317993 10.8984375,15.29296875z M22.20703125,3.427734375L18.80859375,4.072265625 16.0400390625,5.8447265625 14.12109375,8.525390625 13.271484375,11.89453125 15.8074941635132,12.8063974380493 18.1420879364014,14.3994159698486 20.2752666473389,16.6735858917236 22.20703125,19.62890625 24.25048828125,16.6735858917236 26.42578125,14.3994159698486 28.73291015625,12.8063974380493 31.171875,11.89453125 30.29296875,8.525390625 28.3740234375,5.8447265625 25.60546875,4.072265625 22.20703125,3.427734375z M22.20703125,0L24.656982421875,0.223388671875 26.9677734375,0.8935546875 30.9228515625,3.369140625 33.69140625,7.08984375 34.5263671875,9.31640815734863 34.921875,11.71875 38.759765625,12.9052734375 41.71875,15.29296875 43.623046875,18.69140625 44.296875,22.91015625 44.0844688415527,25.18798828125 43.447265625,27.333984375 41.1181640625,30.99609375 37.646484375,33.5009765625 35.57373046875,34.193115234375 33.33984375,34.423828125 30.15380859375,33.9202880859375 27.216796875,32.40966796875 24.52880859375,29.8919677734375 22.08984375,26.3671875 19.544677734375,29.8919677734375 16.8310546875,32.40966796875 13.948974609375,33.9202880859375 10.8984375,34.423828125 8.57666015625,34.21875 6.474609375,33.603515625 3.0322265625,31.3037109375 0.791016101837158,27.744140625 0.197753608226776,25.55419921875 0,23.14453125 0.7177734375,19.0576171875 2.7099609375,15.5712890625 5.7275390625,13.0224609375 9.4921875,11.748046875 9.8876953125,9.34204292297363 10.72265625,7.1044921875 13.4912109375,3.369140625 17.4462890625,0.8935546875 19.7570781707764,0.223388671875 22.20703125,0z" />
    </g>
  </g>
</svg>