<?xml version="1.0" encoding="utf-8"?>
<!DOCTYPE svg PUBLIC "-//W3C//DTD SVG 1.1//EN" "http://www.w3.org/Graphics/SVG/1.1/DTD/svg11.dtd">
<svg width="33.3984375" height="44.384765625" xmlns="http://www.w3.org/2000/svg" xmlns:xlink="http://www.w3.org/1999/xlink" xmlns:xml="http://www.w3.org/XML/1998/namespace" version="1.1">
  <g>
    <g>
      <path style="fill:#FF0000;fill-opacity:1" d="M15.5859375,22.587890625L11.19140625,31.201171875 17.9296875,31.201171875 22.353515625,22.587890625 15.5859375,22.587890625z M18.134765625,9.580078125L22.20703125,9.580078125 17.548828125,18.720703125 24.345703125,18.720703125 29.033203125,9.580078125 33.10546875,9.580078125 28.447265625,18.720703125 33.3984375,18.720703125 33.3984375,22.587890625 26.484375,22.587890625 22.08984375,31.201171875 33.3984375,31.201171875 33.3984375,35.068359375 20.126953125,35.068359375 15.380859375,44.384765625 11.19140625,44.384765625 15.966796875,35.068359375 9.228515625,35.068359375 4.48242235183716,44.384765625 0.292969226837158,44.384765625 5.06835985183716,35.068359375 0,35.068359375 0,31.201171875 7.03125047683716,31.201171875 11.455078125,22.587890625 0,22.587890625 0,18.720703125 13.447265625,18.720703125 18.134765625,9.580078125z M23.37890625,0L26.25,0 25.8837890625,2.7978515625 24.8291015625,4.9951171875 23.173828125,6.4306640625 21.03515625,6.943359375 18.80859375,6.5771484375 16.2890625,5.44921875 14.2822265625,4.4970703125 12.802734375,4.189453125 11.6748046875,4.3963623046875 10.869140625,5.01708984375 10.3857421875,6.0516357421875 10.224609375,7.5 7.47070360183716,7.5 7.83691453933716,4.6728515625 8.876953125,2.490234375 10.546875,1.083984375 12.802734375,0.585937976837158 14.8828125,0.966796934604645 17.197265625,2.109375 19.1967754364014,3.09814453125 20.91796875,3.427734375 21.9946269989014,3.2135009765625 22.7636699676514,2.57080078125 23.2250957489014,1.4996337890625 23.37890625,0z" />
    </g>
  </g>
</svg>