<?xml version="1.0" encoding="utf-8"?>
<!DOCTYPE svg PUBLIC "-//W3C//DTD SVG 1.1//EN" "http://www.w3.org/Graphics/SVG/1.1/DTD/svg11.dtd">
<svg width="27.5390625" height="34.130859375" xmlns="http://www.w3.org/2000/svg" xmlns:xlink="http://www.w3.org/1999/xlink" xmlns:xml="http://www.w3.org/XML/1998/namespace" version="1.1">
  <g>
    <g>
      <path style="fill:#FF0000;fill-opacity:1" d="M7.119140625,10.8984375L7.08984375,11.015625 15.029296875,18.955078125 16.5673828125,15.3515625 17.255859375,10.8984375 7.119140625,10.8984375z M19.1015625,0L20.1708984375,3.369140625 20.859375,7.060546875 27.5390625,7.060546875 27.5390625,10.8984375 21.005859375,10.8984375 19.9951171875,16.6845703125 17.607421875,21.533203125 24.462890625,28.388671875 24.462890625,23.349609375 27.5390625,20.2734375 27.3046875,33.779296875 27.158203125,33.896484375 13.681640625,34.130859375 16.728515625,31.083984375 21.650390625,31.083984375 15.05859375,24.521484375 12.158203125,26.84326171875 8.73046875,28.76953125 7.119140625,25.810546875 10.107421875,23.994140625 12.568359375,22.03125 0,9.462890625 0,7.060546875 17.255859375,7.060546875 16.7431640625,3.8232421875 15.849609375,0.908203125 19.1015625,0z" />
    </g>
  </g>
</svg>