<?xml version="1.0" encoding="utf-8"?>
<!DOCTYPE svg PUBLIC "-//W3C//DTD SVG 1.1//EN" "http://www.w3.org/Graphics/SVG/1.1/DTD/svg11.dtd">
<svg width="27.5390625" height="34.130859375" xmlns="http://www.w3.org/2000/svg" xmlns:xlink="http://www.w3.org/1999/xlink" xmlns:xml="http://www.w3.org/XML/1998/namespace" version="1.1">
  <g>
    <g>
      <path style="fill:#FF0000;fill-opacity:1" d="M15.029296875,15.17578125L7.08984375,23.115234375 7.119140625,23.232421875 17.255859375,23.232421875 16.5673828125,18.779296875 15.029296875,15.17578125z M13.681640625,0L27.158203125,0.234375 27.3046875,0.3515625 27.5390625,13.857421875 24.462890625,10.78125 24.462890625,5.7421875 17.607421875,12.59765625 19.9951171875,17.4462890625 21.005859375,23.232421875 27.5390625,23.232421875 27.5390625,27.0703125 20.859375,27.0703125 20.1708984375,30.76171875 19.1015625,34.130859375 15.849609375,33.22265625 16.7431640625,30.3076171875 17.255859375,27.0703125 0,27.0703125 0,24.66796875 12.568359375,12.099609375 10.107421875,10.13671875 7.119140625,8.3203125 8.73046875,5.361328125 12.158203125,7.28759765625 15.05859375,9.609375 21.650390625,3.046875 16.728515625,3.046875 13.681640625,0z" />
    </g>
  </g>
</svg>