<?xml version="1.0" encoding="utf-8"?>
<!DOCTYPE svg PUBLIC "-//W3C//DTD SVG 1.1//EN" "http://www.w3.org/Graphics/SVG/1.1/DTD/svg11.dtd">
<svg width="37.0898437500004" height="54.404296875" xmlns="http://www.w3.org/2000/svg" xmlns:xlink="http://www.w3.org/1999/xlink" xmlns:xml="http://www.w3.org/XML/1998/namespace" version="1.1">
  <g>
    <g>
      <path style="fill:#FF0000;fill-opacity:1" d="M20.5078125,15.703125L20.5078125,44.1796875 23.0639629364014,43.6083984375 25.400390625,42.59765625 29.2529296875,39.4775390625 31.787109375,35.1416015625 32.46826171875,32.611083984375 32.6953125,29.912109375 32.46826171875,27.2167987823486 31.787109375,24.697265625 29.2529296875,20.3759765625 25.400390625,17.2705078125 23.0639629364014,16.270751953125 20.5078125,15.703125z M16.58203125,15.703125L14.02587890625,16.270751953125 11.689453125,17.2705078125 7.8369140625,20.3759765625 5.302734375,24.697265625 4.62158203125,27.2167987823486 4.39453125,29.912109375 4.62158203125,32.611083984375 5.302734375,35.1416015625 7.8369140625,39.4775390625 11.689453125,42.59765625 14.02587890625,43.6083984375 16.58203125,44.1796875 16.58203125,15.703125z M18.486328125,0L18.603515625,0 28.330078125,9.345703125 24.0234375,9.345703125 20.5078125,5.7421875 20.5078125,11.77734375 23.8769512176514,12.425537109375 27.01171875,13.6669921875 29.835205078125,15.4248046875 32.2705078125,17.6220703125 34.273681640625,20.22216796875 35.80078125,23.1884765625 36.767578125,26.4440937042236 37.08984375,29.912109375 36.767578125,33.40576171875 35.80078125,36.6796875 34.273681640625,39.656982421875 32.2705078125,42.2607421875 29.835205078125,44.4580078125 27.01171875,46.2158203125 23.8769512176514,47.457275390625 20.5078125,48.10546875 20.5078125,54.404296875 16.58203125,54.404296875 16.58203125,48.10546875 13.209228515625,47.457275390625 10.0634765625,46.2158203125 7.22900295257568,44.4580078125 4.7900390625,42.2607421875 2.79052734375,39.656982421875 1.2744140625,36.6796875 0.318603157997131,33.40576171875 0,29.912109375 0.318603157997131,26.4440937042236 1.2744140625,23.1884765625 2.79052734375,20.22216796875 4.7900390625,17.6220703125 7.22900295257568,15.4248046875 10.0634765625,13.6669921875 13.209228515625,12.425537109375 16.58203125,11.77734375 16.58203125,5.77148389816284 13.095703125,9.345703125 8.7890625,9.345703125 18.486328125,0z" />
    </g>
  </g>
</svg>