<?xml version="1.0" encoding="utf-8"?>
<!DOCTYPE svg PUBLIC "-//W3C//DTD SVG 1.1//EN" "http://www.w3.org/Graphics/SVG/1.1/DTD/svg11.dtd">
<svg width="33.3984375" height="34.8046875" xmlns="http://www.w3.org/2000/svg" xmlns:xlink="http://www.w3.org/1999/xlink" xmlns:xml="http://www.w3.org/XML/1998/namespace" version="1.1">
  <g>
    <g>
      <path style="fill:#FF0000;fill-opacity:1" d="M15.5859375,13.0078125L11.19140625,21.62109375 17.9296875,21.62109375 22.353515625,13.0078125 15.5859375,13.0078125z M18.134765625,0L22.20703125,0 17.548828125,9.140625 24.345703125,9.140625 29.033203125,0 33.10546875,0 28.447265625,9.140625 33.3984375,9.140625 33.3984375,13.0078125 26.484375,13.0078125 22.08984375,21.62109375 33.3984375,21.62109375 33.3984375,25.48828125 20.126953125,25.48828125 15.380859375,34.8046875 11.19140625,34.8046875 15.966796875,25.48828125 9.228515625,25.48828125 4.482421875,34.8046875 0.29296875,34.8046875 5.068359375,25.48828125 0,25.48828125 0,21.62109375 7.03125,21.62109375 11.455078125,13.0078125 0,13.0078125 0,9.140625 13.447265625,9.140625 18.134765625,0z" />
    </g>
  </g>
</svg>