<?xml version="1.0" encoding="utf-8"?>
<!DOCTYPE svg PUBLIC "-//W3C//DTD SVG 1.1//EN" "http://www.w3.org/Graphics/SVG/1.1/DTD/svg11.dtd">
<svg width="27.5390625" height="34.130859375" xmlns="http://www.w3.org/2000/svg" xmlns:xlink="http://www.w3.org/1999/xlink" xmlns:xml="http://www.w3.org/XML/1998/namespace" version="1.1">
  <g>
    <g>
      <path style="fill:#FF0000;fill-opacity:1" d="M12.509765625,15.17578125L10.9716796875,18.779296875 10.283203125,23.232421875 20.419921875,23.232421875 20.44921875,23.115234375 12.509765625,15.17578125z M13.857421875,0L10.810546875,3.046875 5.888671875,3.046875 12.48046875,9.609375 15.380859375,7.28759765625 18.80859375,5.361328125 20.419921875,8.3203125 17.431640625,10.13671875 14.970703125,12.099609375 27.5390625,24.66796875 27.5390625,27.0703125 10.283203125,27.0703125 10.7958984375,30.3076171875 11.689453125,33.22265625 8.4375,34.130859375 7.3681640625,30.76171875 6.6796875,27.0703125 0,27.0703125 0,23.232421875 6.533203125,23.232421875 7.5439453125,17.4462890625 9.931640625,12.59765625 3.076171875,5.7421875 3.076171875,10.78125 0,13.857421875 0.234375,0.3515625 0.380859375,0.234375 13.857421875,0z" />
    </g>
  </g>
</svg>