<?xml version="1.0" encoding="utf-8"?>
<!DOCTYPE svg PUBLIC "-//W3C//DTD SVG 1.1//EN" "http://www.w3.org/Graphics/SVG/1.1/DTD/svg11.dtd">
<svg width="46.9921875" height="42.01171875" xmlns="http://www.w3.org/2000/svg" xmlns:xlink="http://www.w3.org/1999/xlink" xmlns:xml="http://www.w3.org/XML/1998/namespace" version="1.1">
  <g>
    <g>
      <path style="fill:#FF0000;fill-opacity:1" d="M23.37890625,19.189453125L25.5029296875,19.365234375 27.626953125,20.009765625 27.626953125,23.232421875 25.6640625,22.32421875 23.49609375,21.943359375 21.73828125,22.353515625 21.09375,23.701171875 21.8115234375,24.8583984375 23.408203125,25.78125 25.078125,26.630859375 26.5283203125,27.6416015625 27.5537109375,28.9599609375 27.94921875,30.703125 27.5244140625,32.666015625 26.337890625,34.16015625 24.521484375,35.1123046875 22.177734375,35.44921875 19.9365234375,35.1708984375 17.958984375,34.365234375 17.958984375,31.083984375 20.0244140625,32.2265625 22.20703125,32.6953125 23.994140625,32.3291015625 24.5654277801514,31.820068359375 24.755859375,31.025390625 24.0966796875,29.7509765625 23.2434062957764,29.197998046875 22.001953125,28.564453125 20.244140625,27.6416015625 18.955078125,26.6455078125 18.1640625,25.458984375 17.900390625,23.96484375 18.4130859375,21.767578125 19.7314453125,20.2880859375 21.50390625,19.453125 23.37890625,19.189453125z M23.49609375,7.08984375L6.123046875,38.37890625 40.869140625,38.37890625 23.49609375,7.08984375z M23.49609375,0L46.9921875,42.01171875 0,42.01171875 23.49609375,0z" />
    </g>
  </g>
</svg>