<?xml version="1.0" encoding="utf-8"?>
<!DOCTYPE svg PUBLIC "-//W3C//DTD SVG 1.1//EN" "http://www.w3.org/Graphics/SVG/1.1/DTD/svg11.dtd">
<svg width="34.130859375" height="27.5390625" xmlns="http://www.w3.org/2000/svg" xmlns:xlink="http://www.w3.org/1999/xlink" xmlns:xml="http://www.w3.org/XML/1998/namespace" version="1.1">
  <g>
    <g>
      <path style="fill:#FF0000;fill-opacity:1" d="M23.115234375,7.08984375L15.17578125,15.029296875 18.779296875,16.5673828125 23.232421875,17.255859375 23.232421875,7.119140625 23.115234375,7.08984375z M24.66796875,0L27.0703125,0 27.0703125,17.255859375 30.3076171875,16.7431640625 33.22265625,15.849609375 34.130859375,19.1015625 30.76171875,20.1708984375 27.0703125,20.859375 27.0703125,27.5390625 23.232421875,27.5390625 23.232421875,21.005859375 17.4462890625,19.9951171875 12.59765625,17.607421875 5.7421875,24.462890625 10.78125,24.462890625 13.857421875,27.5390625 0.3515625,27.3046875 0.234374761581421,27.158203125 0,13.681640625 3.046875,16.728515625 3.046875,21.650390625 9.609375,15.05859375 7.28759765625,12.158203125 5.361328125,8.73046875 8.3203125,7.119140625 10.13671875,10.107421875 12.099609375,12.568359375 24.66796875,0z" />
    </g>
  </g>
</svg>