<?xml version="1.0" encoding="utf-8"?>
<!DOCTYPE svg PUBLIC "-//W3C//DTD SVG 1.1//EN" "http://www.w3.org/Graphics/SVG/1.1/DTD/svg11.dtd">
<svg width="34.130859375" height="27.5390625" xmlns="http://www.w3.org/2000/svg" xmlns:xlink="http://www.w3.org/1999/xlink" xmlns:xml="http://www.w3.org/XML/1998/namespace" version="1.1">
  <g>
    <g>
      <path style="fill:#FF0000;fill-opacity:1" d="M10.8984375,10.283203125L10.8984375,20.419921875 11.015625,20.44921875 18.955078125,12.509765625 15.3515625,10.9716796875 10.8984375,10.283203125z M7.060546875,0L10.8984375,0 10.8984375,6.533203125 16.6845703125,7.5439453125 21.533203125,9.931640625 28.388671875,3.076171875 23.349609375,3.076171875 20.2734375,0 33.779296875,0.234375 33.896484375,0.380859375 34.130859375,13.857421875 31.083984375,10.810546875 31.083984375,5.888671875 24.521484375,12.48046875 26.8432598114014,15.380859375 28.76953125,18.80859375 25.810546875,20.419921875 23.994140625,17.431640625 22.03125,14.970703125 9.462890625,27.5390625 7.060546875,27.5390625 7.060546875,10.283203125 3.8232421875,10.7958984375 0.908203125,11.689453125 0,8.4375 3.369140625,7.3681640625 7.060546875,6.6796875 7.060546875,0z" />
    </g>
  </g>
</svg>