<?xml version="1.0" encoding="utf-8"?>
<!DOCTYPE svg PUBLIC "-//W3C//DTD SVG 1.1//EN" "http://www.w3.org/Graphics/SVG/1.1/DTD/svg11.dtd">
<svg width="24.7265625" height="50.361328125" xmlns="http://www.w3.org/2000/svg" xmlns:xlink="http://www.w3.org/1999/xlink" xmlns:xml="http://www.w3.org/XML/1998/namespace" version="1.1">
  <g>
    <g>
      <path style="fill:#FF0000;fill-opacity:1" d="M19.453125,0L24.7265625,0 17.578125,6.591796875 24.7265625,12.83203125 17.4609375,19.1015625 24.7265625,25.341796875 17.4609375,31.611328125 24.7265625,37.8515625 17.4609375,44.12109375 24.7265625,50.361328125 19.541015625,50.361328125 12.333984375,44.12109375 19.541015625,37.8515625 12.333984375,31.611328125 19.541015625,25.341796875 12.333984375,19.1015625 19.541015625,12.83203125 12.333984375,6.591796875 19.453125,0z M7.119140625,0L12.392578125,0 5.244140625,6.591796875 12.392578125,12.83203125 5.126953125,19.1015625 12.392578125,25.341796875 5.126953125,31.611328125 12.392578125,37.8515625 5.126953125,44.12109375 12.392578125,50.361328125 7.20703125,50.361328125 0,44.12109375 7.20703125,37.8515625 0,31.611328125 7.20703125,25.341796875 0,19.1015625 7.20703125,12.83203125 0,6.591796875 7.119140625,0z" />
    </g>
  </g>
</svg>