<?xml version="1.0" encoding="utf-8"?>
<!DOCTYPE svg PUBLIC "-//W3C//DTD SVG 1.1//EN" "http://www.w3.org/Graphics/SVG/1.1/DTD/svg11.dtd">
<svg width="48.92578125" height="36.533203125" xmlns="http://www.w3.org/2000/svg" xmlns:xlink="http://www.w3.org/1999/xlink" xmlns:xml="http://www.w3.org/XML/1998/namespace" version="1.1">
  <g>
    <g>
      <path style="fill:#FF0000;fill-opacity:1" d="M10.4296875,20.185546875L10.968017578125,22.774658203125 11.9384765625,25.1513671875 14.9853515625,29.091796875 19.2626953125,31.69921875 21.771240234375,32.40234375 24.462890625,32.63671875 27.1545391082764,32.40234375 29.6630859375,31.69921875 33.92578125,29.091796875 36.97265625,25.1513671875 37.9541015625,22.774658203125 38.49609375,20.185546875 10.4296875,20.185546875z M24.462890625,3.896484375L21.771240234375,4.130859375 19.2626953125,4.833984375 14.9853515625,7.44140625 11.9384765625,11.3818359375 10.968017578125,13.7512226104736 10.4296875,16.318359375 38.49609375,16.318359375 37.9541015625,13.7512226104736 36.97265625,11.3818359375 33.92578125,7.44140625 29.6630859375,4.833984375 27.1545391082764,4.130859375 24.462890625,3.896484375z M24.462890625,0L27.9418926239014,0.311279296875 31.23046875,1.2451171875 34.244384765625,2.724609375 36.8994140625,4.6728515625 39.151611328125,7.05688571929932 40.95703125,9.84375 42.2314453125,12.9565448760986 42.890625,16.318359375 48.92578125,16.318359375 48.92578125,20.185546875 42.890625,20.185546875 42.2314453125,23.54736328125 40.95703125,26.66015625 39.1552734375,29.45068359375 36.9140625,31.845703125 34.27001953125,33.804931640625 31.259765625,35.2880859375 27.9638652801514,36.221923828125 24.462890625,36.533203125 19.833984375,35.9619140625 15.6298828125,34.365234375 11.9970703125,31.8603515625 9.0966796875,28.564453125 7.0458984375,24.638671875 6.00585889816284,20.185546875 0,20.185546875 0,16.318359375 6.00585889816284,16.318359375 6.66503858566284,12.9565448760986 7.939453125,9.84375 9.744873046875,7.05688571929932 11.9970703125,4.6728515625 14.652099609375,2.724609375 17.666015625,1.2451171875 20.9619140625,0.311279296875 24.462890625,0z" />
    </g>
  </g>
</svg>