<?xml version="1.0" encoding="utf-8"?>
<!DOCTYPE svg PUBLIC "-//W3C//DTD SVG 1.1//EN" "http://www.w3.org/Graphics/SVG/1.1/DTD/svg11.dtd">
<svg width="37.32421875" height="49.365234375" xmlns="http://www.w3.org/2000/svg" xmlns:xlink="http://www.w3.org/1999/xlink" xmlns:xml="http://www.w3.org/XML/1998/namespace" version="1.1">
  <g>
    <g>
      <path style="fill:#FF0000;fill-opacity:1" d="M30.05859375,22.03125L9.931640625,42.158203125 13.916015625,44.326171875 16.201171875,44.8974609375 18.662109375,45.087890625 21.5734844207764,44.8095703125 24.2724609375,43.974609375 26.693115234375,42.65625 28.76953125,40.927734375 30.465087890625,38.822021484375 31.7431640625,36.3720703125 32.545166015625,33.643798828125 32.8125,30.703125 32.0947265625,26.0302734375 30.05859375,22.03125z M18.662109375,16.34765625L15.732421875,16.6259765625 13.037109375,17.4609375 10.62744140625,18.779296875 8.5546875,20.5078125 6.85912990570068,22.6135272979736 5.58105421066284,25.0634765625 4.77905225753784,27.7844257354736 4.51171827316284,30.703125 5.21484327316284,35.390625 7.23632764816284,39.404296875 27.36328125,19.27734375 23.37890625,17.109375 21.1010723114014,16.5380859375 18.662109375,16.34765625z M34.599609375,12.041015625L37.32421875,14.765625 32.98828125,19.1015625 34.7607421875,21.6137714385986 36.09375,24.404296875 36.9287109375,27.4438495635986 37.20703125,30.703125 36.8408203125,34.41650390625 35.7421875,37.880859375 34.013671875,41.0009765625 31.7578125,43.681640625 29.02587890625,45.882568359375 25.869140625,47.5634765625 22.3828105926514,48.629150390625 18.662109375,48.984375 15.443115234375,48.724365234375 12.4072265625,47.9443359375 9.59838771820068,46.695556640625 7.06054639816284,45.029296875 2.72460889816284,49.365234375 0,46.640625 4.30664014816284,42.333984375 2.53784132003784,39.818115234375 1.21581983566284,37.0166015625 0.391844809055328,33.966064453125 0.117186546325684,30.703125 0.483397543430328,26.9934101104736 1.58203077316284,23.5400390625 3.31054639816284,20.430908203125 5.56640577316284,17.75390625 8.29833889007568,15.552978515625 11.455078125,13.8720703125 14.94140625,12.806396484375 18.662109375,12.451171875 21.8591289520264,12.711181640625 24.8876953125,13.4912109375 27.696533203125,14.739990234375 30.234375,16.40625 34.599609375,12.041015625z M23.73046875,0L29.619140625,5.771484375 29.619140625,5.888671875 23.73046875,11.66015625 24.0234375,7.734375 10.224609375,7.734375 10.224609375,3.98437523841858 24.08203125,3.98437523841858 23.73046875,0z" />
    </g>
  </g>
</svg>