<?xml version="1.0" encoding="utf-8"?>
<!DOCTYPE svg PUBLIC "-//W3C//DTD SVG 1.1//EN" "http://www.w3.org/Graphics/SVG/1.1/DTD/svg11.dtd">
<svg width="38.84765625" height="51.5625" xmlns="http://www.w3.org/2000/svg" xmlns:xlink="http://www.w3.org/1999/xlink" xmlns:xml="http://www.w3.org/XML/1998/namespace" version="1.1">
  <g>
    <g>
      <path style="fill:#FF0000;fill-opacity:1" d="M15.703125,21.298828125L6.38671875,25.72265625 6.38671875,25.83984375 15.732421875,30.205078125 15.87890625,28.095703125 15.9375,25.927734375 15.87890625,23.583984375 15.703125,21.298828125z M24.755859375,16.962890625L19.74609375,19.365234375 20.09765625,22.6171875 20.21484375,25.986328125 20.1123046875,29.091796875 19.8046875,32.109375 24.814453125,34.453125 25.4516582489014,30.24169921875 25.6640625,25.927734375 25.4296875,21.357421875 24.755859375,16.962890625z M6.767578125,0L11.07421875,0 13.7567138671875,3.5650634765625 15.97412109375,7.34619140625 17.7264404296875,11.3433837890625 19.013671875,15.556640625 23.759765625,13.2421875 20.830078125,6.328125 16.494140625,0 20.80078125,0 24.6679668426514,5.44921875 27.48046875,11.42578125 38.84765625,5.859375 38.84765625,10.25390625 28.623046875,15.1171875 29.61181640625,20.41259765625 29.94140625,25.986328125 29.64111328125,31.2744140625 28.740234375,36.298828125 38.84765625,40.986328125 38.84765625,45.3515625 27.65625,39.931640625 24.7998027801514,46.03271484375 20.80078125,51.5625 16.552734375,51.5625 20.9399394989014,45.13916015625 23.90625,38.115234375 19.130859375,35.830078125 17.8582763671875,40.1312255859375 16.09130859375,44.18701171875 13.8299560546875,47.9974365234375 11.07421875,51.5625 6.826171875,51.5625 9.7998046875,47.515869140625 12.1875,43.2275390625 13.9892578125,38.697509765625 15.205078125,33.92578125 0,26.54296875 0,24.84375 15.1171875,17.4609375 13.8812255859375,12.7331552505493 12.07763671875,8.24707126617432 9.7064208984375,4.00268602371216 6.767578125,0z" />
    </g>
  </g>
</svg>