<?xml version="1.0" encoding="utf-8"?>
<!DOCTYPE svg PUBLIC "-//W3C//DTD SVG 1.1//EN" "http://www.w3.org/Graphics/SVG/1.1/DTD/svg11.dtd">
<svg width="27.5390625" height="34.130859375" xmlns="http://www.w3.org/2000/svg" xmlns:xlink="http://www.w3.org/1999/xlink" xmlns:xml="http://www.w3.org/XML/1998/namespace" version="1.1">
  <g>
    <g>
      <path style="fill:#FF0000;fill-opacity:1" d="M10.283203125,10.8984375L10.9716796875,15.3515625 12.509765625,18.955078125 20.44921875,11.015625 20.419921875,10.8984375 10.283203125,10.8984375z M8.4375,0L11.689453125,0.908203125 10.7958984375,3.8232421875 10.283203125,7.060546875 27.5390625,7.060546875 27.5390625,9.462890625 14.970703125,22.03125 17.431640625,23.994140625 20.419921875,25.810546875 18.80859375,28.76953125 15.380859375,26.84326171875 12.48046875,24.521484375 5.888671875,31.083984375 10.810546875,31.083984375 13.857421875,34.130859375 0.380859375,33.896484375 0.234375,33.779296875 0,20.2734375 3.076171875,23.349609375 3.076171875,28.388671875 9.931640625,21.533203125 7.5439453125,16.6845703125 6.533203125,10.8984375 0,10.8984375 0,7.060546875 6.6796875,7.060546875 7.3681640625,3.369140625 8.4375,0z" />
    </g>
  </g>
</svg>