<?xml version="1.0" encoding="utf-8"?>
<!DOCTYPE svg PUBLIC "-//W3C//DTD SVG 1.1//EN" "http://www.w3.org/Graphics/SVG/1.1/DTD/svg11.dtd">
<svg width="31.552734375" height="42.71484375" xmlns="http://www.w3.org/2000/svg" xmlns:xlink="http://www.w3.org/1999/xlink" xmlns:xml="http://www.w3.org/XML/1998/namespace" version="1.1">
  <g>
    <g>
      <path style="fill:#FF0000;fill-opacity:1" d="M15.380859375,0L18.4423828125,0.2783203125 21.416015625,1.11328125 24.1735820770264,2.464599609375 26.5869140625,4.2919921875 28.6083984375,6.573486328125 30.1904296875,9.287109375 31.212158203125,12.3925800323486 31.552734375,15.849609375 31.552734375,21.943359375 26.630859375,21.943359375 26.630859375,15.380859375 25.8837890625,11.337890625 23.7451171875,7.8369140625 20.33203125,5.3759765625 18.1787109375,4.683837890625 15.76171875,4.453125 13.436279296875,4.683837890625 11.3232421875,5.3759765625 7.8955078125,7.8369140625 5.6982421875,11.337890625 5.115966796875,13.3300800323486 4.921875,15.380859375 4.921875,42.71484375 0,42.71484375 0,15.849609375 0.322265565395355,12.5500507354736 1.28906202316284,9.5068359375 2.79052710533142,6.793212890625 4.716796875,4.482421875 7.01660060882568,2.603759765625 9.638671875,1.1865234375 12.4658203125,0.296630859375 15.380859375,0z" />
    </g>
  </g>
</svg>