<?xml version="1.0" encoding="utf-8"?>
<!DOCTYPE svg PUBLIC "-//W3C//DTD SVG 1.1//EN" "http://www.w3.org/Graphics/SVG/1.1/DTD/svg11.dtd">
<svg width="36.650390625" height="42.71484375" xmlns="http://www.w3.org/2000/svg" xmlns:xlink="http://www.w3.org/1999/xlink" xmlns:xml="http://www.w3.org/XML/1998/namespace" version="1.1">
  <g>
    <g>
      <path style="fill:#FF0000;fill-opacity:1" d="M10.166015625,0L14.703369140625,0.30029296875 18.7646484375,1.201171875 22.3681621551514,2.63671875 25.5322265625,4.541015625 28.2641582489014,6.87744140625 30.5712890625,9.609375 34.0283203125,15.9814453125 36.0205078125,23.26171875 36.650390625,31.025390625 36.328125,36.943359375 35.390625,42.71484375 30.234375,42.71484375 31.1572265625,37.44140625 31.494140625,31.69921875 31.0400390625,25.1513671875 29.6044921875,18.837890625 27.0263671875,13.18359375 23.14453125,8.61328125 20.672607421875,6.884765625 17.8271484375,5.56640625 14.586181640625,4.7314453125 10.927734375,4.453125 10.25390625,4.4677734375 9.580078125,4.51171875 10.869140625,7.8076171875 12.1875,12.158203125 13.212890625,17.197265625 13.623046875,22.6171875 12.919921875,29.3115234375 11.9897451400757,32.46826171875 10.60546875,35.3466796875 8.748779296875,37.88818359375 6.4013671875,40.0341796875 3.50463819503784,41.678466796875 0,42.71484375 0,38.26171875 2.20458984375,37.43408203125 4.01367235183716,36.181640625 6.62109375,32.63671875 8.0419921875,28.0078125 8.466796875,22.67578125 7.822265625,16.142578125 6.2255859375,9.84375 4.21875,4.39453125 3.22998046875,2.16064453125 2.373046875,0.380859375 4.4677734375,0.1904296875 6.62109375,0.0732421875 8.5986328125,0.0146484375 10.166015625,0z" />
    </g>
  </g>
</svg>