<?xml version="1.0" encoding="utf-8"?>
<!DOCTYPE svg PUBLIC "-//W3C//DTD SVG 1.1//EN" "http://www.w3.org/Graphics/SVG/1.1/DTD/svg11.dtd">
<svg width="23.7890625" height="42.01171875" xmlns="http://www.w3.org/2000/svg" xmlns:xlink="http://www.w3.org/1999/xlink" xmlns:xml="http://www.w3.org/XML/1998/namespace" version="1.1">
  <g>
    <g>
      <path style="fill:#FF0000;fill-opacity:1" d="M4.921875,4.453125L4.921875,17.63671875 10.576171875,17.63671875 14.110107421875,17.1972675323486 16.6259765625,15.87890625 18.1311016082764,13.7915058135986 18.6328125,11.044921875 18.1311016082764,8.29833984375 16.6259765625,6.2109375 14.110107421875,4.892578125 10.576171875,4.453125 4.921875,4.453125z M0,0L11.953125,0 14.249267578125,0.201416015625 16.4501953125,0.8056640625 20.2294921875,3.076171875 22.822265625,6.5625 23.5473613739014,8.69384765625 23.7890625,11.044921875 23.5473613739014,13.3776874542236 22.822265625,15.5126953125 20.2294921875,19.013671875 16.4501953125,21.2841796875 14.249267578125,21.888427734375 11.953125,22.08984375 8.02734375,22.08984375 20.244140625,32.255859375 17.4609375,35.80078125 4.921875,25.341796875 4.921875,42.01171875 0,42.01171875 0,0z" />
    </g>
  </g>
</svg>