<?xml version="1.0" encoding="utf-8"?>
<!DOCTYPE svg PUBLIC "-//W3C//DTD SVG 1.1//EN" "http://www.w3.org/Graphics/SVG/1.1/DTD/svg11.dtd">
<svg width="33.45703125" height="42.01171875" xmlns="http://www.w3.org/2000/svg" xmlns:xlink="http://www.w3.org/1999/xlink" xmlns:xml="http://www.w3.org/XML/1998/namespace" version="1.1">
  <g>
    <g>
      <path style="fill:#FF0000;fill-opacity:1" d="M1.171875,0L6.123046875,0 5.537109375,5.302734375 5.3173828125,7.587890625 5.126953125,9.8876953125 4.99511671066284,12.0703125 4.951171875,13.9453125 5.1544189453125,17.1322631835938 5.76416015625,19.896240234375 6.7803955078125,22.2372436523438 8.203125,24.1552734375 10.04150390625,25.6704711914063 12.3046875,26.802978515625 14.99267578125,27.5527954101563 18.10546875,27.919921875 18.046875,25.8544921875 18.046875,23.701171875 18.2373046875,16.4501953125 18.438720703125,13.3337421417236 18.662109375,10.634765625 19.306640625,5.390625 24.228515625,5.390625 23.583984375,10.634765625 23.3605937957764,13.3337421417236 23.1591796875,16.4501953125 22.96875,23.701171875 22.96875,25.7666015625 23.02734375,27.7734375 26.4111328125,27.421875 29.7509765625,27.01171875 32.3291015625,26.630859375 33.131103515625,26.4697265625 33.45703125,26.337890625 33.45703125,30.76171875 28.6376953125,31.58203125 23.232421875,32.2265625 23.5400390625,36.2548828125 23.84765625,39.345703125 24.228515625,42.01171875 19.306640625,42.01171875 18.955078125,39.404296875 18.6328125,36.3720703125 18.310546875,32.40234375 14.117431640625,32.083740234375 10.4443359375,31.1865234375 7.30224609375,29.7216796875 4.7021484375,27.7001953125 2.65869140625,25.12939453125 1.1865234375,22.0166015625 0.296630859375,18.372802734375 0,14.208984375 0.0439455509185791,12.3046875 0.175781011581421,10.078125 0.366211175918579,7.705078125 0.585937738418579,5.390625 1.171875,0z" />
    </g>
  </g>
</svg>