<?xml version="1.0" encoding="utf-8"?>
<!DOCTYPE svg PUBLIC "-//W3C//DTD SVG 1.1//EN" "http://www.w3.org/Graphics/SVG/1.1/DTD/svg11.dtd">
<svg width="51.357421875" height="49.189453125" xmlns="http://www.w3.org/2000/svg" xmlns:xlink="http://www.w3.org/1999/xlink" xmlns:xml="http://www.w3.org/XML/1998/namespace" version="1.1">
  <g>
    <g>
      <path style="fill:#FF0000;fill-opacity:1" d="M1.787109375,0L9.9609375,0.1171875 42.65625,0.1171875 50.830078125,0 51.357421875,0.52734375 51.357421875,3.369140625 50.830078125,3.896484375 42.65625,3.779296875 37.5,3.779296875 37.5,37.91015625 37.6171875,48.544921875 37.08984375,49.072265625 34.013671875,49.072265625 33.486328125,48.544921875 33.603515625,37.91015625 33.603515625,3.779296875 19.306640625,3.779296875 19.306640625,15.3515625 19.0667724609375,22.196044921875 18.34716796875,28.1396484375 17.1478271484375,33.182373046875 15.46875,37.32421875 13.4124755859375,40.5743408203125 10.72998046875,43.58642578125 7.42126417160034,46.3604736328125 3.486328125,48.896484375 2.6953125,49.189453125 2.40966749191284,48.9990234375 1.962890625,48.427734375 0,46.376953125 4.33410596847534,43.76220703125 7.90283107757568,40.78125 10.7061758041382,37.43408203125 12.744140625,33.720703125 13.9105224609375,30.216064453125 14.74365234375,26.0595703125 15.2435302734375,21.251220703125 15.41015625,15.791015625 15.41015625,3.779296875 9.9609375,3.779296875 1.787109375,3.896484375 1.259765625,3.369140625 1.259765625,0.52734375 1.787109375,0z" />
    </g>
  </g>
</svg>