<?xml version="1.0" encoding="utf-8"?>
<!DOCTYPE svg PUBLIC "-//W3C//DTD SVG 1.1//EN" "http://www.w3.org/Graphics/SVG/1.1/DTD/svg11.dtd">
<svg width="51.533203125" height="46.9628906250011" xmlns="http://www.w3.org/2000/svg" xmlns:xlink="http://www.w3.org/1999/xlink" xmlns:xml="http://www.w3.org/XML/1998/namespace" version="1.1">
  <g>
    <g>
      <path style="fill:#FF0000;fill-opacity:1" d="M0.468749523162842,0L8.408203125,0.1171875 43.125,0.1171875 51.064453125,0 51.533203125,0.468749523162842 51.533203125,3.54492139816284 51.064453125,3.95507764816284 43.125,3.83789014816284 28.740234375,3.83789014816284 28.740234375,30.1171875 28.916015625,41.279296875 28.3740234375,44.1357421875 26.748046875,45.966796875 25.7098369598389,46.402587890625 24.1479473114014,46.7138671875 22.0623760223389,46.900634765625 19.453125,46.962890625 16.787109375,46.904296875 15.732421875,46.669921875 15.41015625,45.64453125 14.150390625,42.65625 18.12744140625,43.07373046875 21.03515625,43.212890625 21.708984375,43.212890625 23.2910137176514,43.0224609375 24.228515625,42.568359375 24.6459941864014,41.82861328125 24.78515625,40.6640625 24.78515625,3.83789014816284 8.408203125,3.83789014816284 0.468749523162842,3.95507764816284 0,3.54492139816284 0,0.468749523162842 0.468749523162842,0z" />
    </g>
  </g>
</svg>