<?xml version="1.0" encoding="utf-8"?>
<!DOCTYPE svg PUBLIC "-//W3C//DTD SVG 1.1//EN" "http://www.w3.org/Graphics/SVG/1.1/DTD/svg11.dtd">
<svg width="52.79296875" height="47.87109375" xmlns="http://www.w3.org/2000/svg" xmlns:xlink="http://www.w3.org/1999/xlink" xmlns:xml="http://www.w3.org/XML/1998/namespace" version="1.1">
  <g>
    <g>
      <path style="fill:#FF0000;fill-opacity:1" d="M0.46875,44.267578125L8.349609375,44.384765625 43.505859375,44.384765625 51.357421875,44.267578125 51.826171875,44.736328125 51.826171875,47.40234375 51.357421875,47.87109375 43.505859375,47.75390625 8.349609375,47.75390625 0.46875,47.87109375 0,47.40234375 0,44.736328125 0.46875,44.267578125z M6.650390625,18.427734375L6.650390625,28.740234375 14.677734375,28.740234375 14.677734375,18.427734375 6.650390625,18.427734375z M3.8671875,15.29296875L8.642578125,15.439453125 12.685546875,15.439453125 17.4609375,15.29296875 17.9296875,15.76171875 17.783203125,20.419921875 17.783203125,25.576171875 17.9296875,34.130859375 17.431640625,34.599609375 15.146484375,34.599609375 14.677734375,34.130859375 14.677734375,31.728515625 6.650390625,31.728515625 6.650390625,34.921875 6.240234375,35.390625 3.896484375,35.390625 3.39843702316284,34.921875 3.544921875,26.044921875 3.544921875,21.181640625 3.39843702316284,15.76171875 3.8671875,15.29296875z M36.9140625,14.677734375L38.69384765625,20.9765644073486 41.279296875,26.220703125 43.7475547790527,20.9033222198486 45.3515625,14.677734375 36.9140625,14.677734375z M46.9921875,11.279296875L47.6000938415527,11.53564453125 48.486328125,12.3046875 49.2114219665527,13.17626953125 49.453125,13.740234375 49.04296875,14.501953125 48.251953125,16.142578125 46.2011680603027,23.14453125 43.271484375,28.974609375 47.4389610290527,33.09814453125 52.79296875,36.6796875 51.064453125,38.583984375 50.2734375,39.31640625 49.306640625,38.84765625 44.9414024353027,35.595703125 41.279296875,31.81640625 37.705078125,35.58837890625 33.486328125,38.935546875 32.51953125,39.4921875 31.845703125,38.876953125 30,37.1484375 35.23681640625,33.34716796875 39.287109375,29.091796875 35.91796875,22.41943359375 33.955078125,14.765625 31.787109375,14.82421875 31.318359375,14.326171875 31.318359375,11.982421875 31.787109375,11.513671875 37.3828125,11.630859375 45.29296875,11.630859375 46.376953125,11.455078125 46.9921875,11.279296875z M1.84570264816284,0L9.9609375,0.117187023162842 41.89453125,0.117187023162842 50.0390625,0 50.5078125,0.46875 50.5078125,3.01757764816284 50.0390625,3.486328125 41.89453125,3.369140625 23.759765625,3.369140625 21.064453125,10.48828125 25.751953125,10.48828125 28.740234375,10.37109375 29.326171875,10.8984375 29.1943359375,14.0332040786743 29.150390625,17.8125 28.9947509765625,23.51806640625 28.76220703125,28.30078125 28.4527587890625,32.16064453125 28.06640625,35.09765625 27.2753887176514,38.0859375 26.07421875,40.078125 24.4628887176514,41.15478515625 22.32421875,41.513671875 18.046875,41.337890625 17.080078125,41.07421875 16.787109375,40.13671875 16.025390625,37.67578125 21.591796875,38.26171875 22.9760723114014,37.939453125 23.90625,36.97265625 24.4042949676514,35.5810546875 24.78515625,33.45703125 25.1440410614014,30.098876953125 25.4003887176514,25.6201171875 25.5541973114014,20.020751953125 25.60546875,13.30078125 19.921875,13.30078125 16.640625,13.41796875 16.142578125,13.125 16.201171875,12.890625 16.80908203125,11.66748046875 17.6953125,9.697265625 19.921875,3.369140625 9.9609375,3.369140625 1.84570264816284,3.486328125 1.376953125,3.01757764816284 1.376953125,0.46875 1.84570264816284,0z" />
    </g>
  </g>
</svg>