<?xml version="1.0" encoding="utf-8"?>
<!DOCTYPE svg PUBLIC "-//W3C//DTD SVG 1.1//EN" "http://www.w3.org/Graphics/SVG/1.1/DTD/svg11.dtd">
<svg width="48.310546875" height="52.265625" xmlns="http://www.w3.org/2000/svg" xmlns:xlink="http://www.w3.org/1999/xlink" xmlns:xml="http://www.w3.org/XML/1998/namespace" version="1.1">
  <g>
    <g>
      <path style="fill:#FF0000;fill-opacity:1" d="M15.615234375,0.117187261581421L19.62890625,0.439453125 20.2221660614014,0.629885673522949 20.419921875,1.02539086341858 20.09765625,2.16796922683716 19.9438457489014,3.04687523841858 19.8339824676514,4.51171875 19.7680644989014,6.5625 19.74609375,9.19921875 19.74609375,20.888671875 19.5959453582764,26.49169921875 19.1455059051514,31.318359375 18.3947734832764,35.36865234375 17.34375,38.642578125 15.05859375,42.94921875 11.953125,46.611328125 8.40087795257568,49.40185546875 3.95507764816284,51.97265625 3.04687452316284,52.265625 2.16796827316284,51.533203125 0,49.5703125 5.39062452316284,46.83837890625 9.43359375,43.857421875 12.22412109375,40.64208984375 14.150390625,36.9140625 15.3515625,31.875 4.80468702316284,31.875 4.80468702316284,35.654296875 4.30664014816284,36.181640625 1.494140625,36.181640625 1.02538967132568,35.654296875 1.142578125,29.58984375 1.142578125,14.94140625 1.04003834724426,10.60546875 0.732421875,7.55859375 4.74609327316284,7.880859375 5.33935499191284,8.056640625 5.53710889816284,8.408203125 5.21484327316284,9.4921875 5.03539991378784,10.257568359375 4.90722608566284,11.4111328125 4.83032178878784,12.952880859375 4.80468702316284,14.8828125 4.80468702316284,28.388671875 15.791015625,28.388671875 15.966796875,25.0048828125 16.025390625,20.947265625 16.025390625,9.08203125 15.999755859375,6.104736328125 15.9228515625,3.6181640625 15.794677734375,1.62231433391571 15.615234375,0.117187261581421z M28.212890625,0L32.34375,0.380859375 33.017578125,0.849609136581421 32.75390625,1.93359375 32.574462890625,2.7923583984375 32.4462890625,4.10888671875 32.369384765625,5.8831787109375 32.34375,8.115234375 32.34375,28.388671875 43.974609375,28.388671875 43.974609375,14.58984375 43.8867149353027,10.2685546875 43.623046875,7.1484375 47.578125,7.5 48.310546875,8.056640625 47.98828125,9.08203125 47.8344688415527,9.755859375 47.7246055603027,10.927734375 47.6586875915527,12.59765625 47.63671875,14.765625 47.63671875,29.4140625 47.75390625,35.478515625 47.28515625,35.947265625 44.443359375,35.947265625 43.974609375,35.478515625 43.974609375,31.875 32.34375,31.875 32.34375,41.66015625 32.4609375,51.6796875 31.9921875,52.1484375 28.974609375,52.1484375 28.505859375,51.6796875 28.623046875,41.66015625 28.623046875,8.232421875 28.5205078125,3.42041015625 28.212890625,0z" />
    </g>
  </g>
</svg>