<?xml version="1.0" encoding="utf-8"?>
<!DOCTYPE svg PUBLIC "-//W3C//DTD SVG 1.1//EN" "http://www.w3.org/Graphics/SVG/1.1/DTD/svg11.dtd">
<svg width="52.20703125" height="53.232421875" xmlns="http://www.w3.org/2000/svg" xmlns:xlink="http://www.w3.org/1999/xlink" xmlns:xml="http://www.w3.org/XML/1998/namespace" version="1.1">
  <g>
    <g>
      <path style="fill:#FF0000;fill-opacity:1" d="M24.66796875,0L27.3193359375,4.69482421875 29.23828125,9.111328125 52.20703125,9.111328125 52.20703125,12.36328125 38.115234375,12.36328125 38.115234375,52.734375 34.86328125,52.734375 34.86328125,12.36328125 19.39453125,12.36328125 19.39453125,27.5390625 19.1427612304688,31.6232299804688 18.387451171875,35.555419921875 17.1286010742188,39.3356323242188 15.3662109375,42.9638671875 13.1552124023438,46.2698364257813 10.550537109375,49.083251953125 7.55218458175659,51.4041137695313 4.16015625,53.232421875 1.7578125,50.830078125 5.72021436691284,48.5311889648438 8.96484279632568,45.970458984375 11.4916982650757,43.1478881835938 13.30078125,40.0634765625 15.47607421875,33.057861328125 16.201171875,24.90234375 16.201171875,12.36328125 0,12.36328125 0,9.111328125 25.751953125,9.111328125 24.1332988739014,5.5810546875 21.6796875,1.14257788658142 24.66796875,0z" />
    </g>
  </g>
</svg>