<?xml version="1.0" encoding="utf-8"?>
<!DOCTYPE svg PUBLIC "-//W3C//DTD SVG 1.1//EN" "http://www.w3.org/Graphics/SVG/1.1/DTD/svg11.dtd">
<svg width="52.5000000000003" height="44.94140625" xmlns="http://www.w3.org/2000/svg" xmlns:xlink="http://www.w3.org/1999/xlink" xmlns:xml="http://www.w3.org/XML/1998/namespace" version="1.1">
  <g>
    <g>
      <path style="fill:#FF0000;fill-opacity:1" d="M22.3828125,21.240234375L19.833984375,31.728515625 17.109375,41.279296875 37.67578125,41.279296875 37.67578125,21.240234375 22.3828125,21.240234375z M4.072265625,0L12.421875,0.117187976837158 40.72265625,0.117187976837158 49.072265625,0 49.541015625,0.468750476837158 49.541015625,3.25195360183716 49.072265625,3.72070360183716 40.72265625,3.60351610183716 25.60546875,3.60351610183716 23.0859375,17.8125 32.8125,17.8125 41.162109375,17.6953125 41.689453125,18.1640625 41.572265625,24.84375 41.572265625,41.279296875 44.208984375,41.279296875 52.001953125,41.162109375 52.5,41.630859375 52.5,44.47265625 52.001953125,44.94140625 44.208984375,44.82421875 8.26171875,44.82421875 0.46875,44.94140625 0,44.47265625 0,41.630859375 0.46875,41.162109375 8.26171875,41.279296875 13.06640625,41.279296875 15.81298828125,31.640625 18.369140625,21.240234375 15.41015625,21.240234375 7.1484375,21.357421875 6.650390625,20.888671875 6.650390625,18.1640625 7.1484375,17.6953125 15.41015625,17.8125 19.072265625,17.8125 20.5371074676514,10.34912109375 21.650390625,3.60351610183716 12.421875,3.60351610183716 4.072265625,3.72070360183716 3.60351610183716,3.25195360183716 3.60351610183716,0.468750476837158 4.072265625,0z" />
    </g>
  </g>
</svg>