<?xml version="1.0" encoding="utf-8"?>
<!DOCTYPE svg PUBLIC "-//W3C//DTD SVG 1.1//EN" "http://www.w3.org/Graphics/SVG/1.1/DTD/svg11.dtd">
<svg width="49.62890625" height="52.265625" xmlns="http://www.w3.org/2000/svg" xmlns:xlink="http://www.w3.org/1999/xlink" xmlns:xml="http://www.w3.org/XML/1998/namespace" version="1.1">
  <g>
    <g>
      <path style="fill:#FF0000;fill-opacity:1" d="M3.42773485183716,29.0625L43.388671875,29.0625 43.388671875,31.9921875 34.56298828125,33.863525390625 25.48828125,36.5478515625 21.1331176757813,38.0831909179688 17.266845703125,39.598388671875 13.8894653320313,41.0934448242188 11.0009765625,42.568359375 8.675537109375,43.8803100585938 6.98730516433716,44.886474609375 5.93627977371216,45.5868530273438 5.52246141433716,45.9814453125 5.33203172683716,46.904296875 5.94726610183716,48.310546875 6.551513671875,48.5531616210938 7.7490234375,48.782958984375 9.539794921875,48.9999389648438 11.923828125,49.2041015625 17.666015625,49.500732421875 24.169921875,49.599609375 28.2282257080078,49.581298828125 31.8191528320313,49.5263671875 34.9427032470703,49.434814453125 37.598876953125,49.306640625 39.7876739501953,49.141845703125 41.5090942382813,48.9404296875 42.7631378173828,48.702392578125 43.5498046875,48.427734375 44.574275970459,47.5836181640625 45.4357872009277,46.22314453125 46.134334564209,44.3463134765625 46.669921875,41.953125 49.62890625,43.388671875 48.4094200134277,47.34375 46.7431640625,49.892578125 44.5019493103027,51.3427734375 41.5576171875,52.001953125 39.4564819335938,52.1173095703125 36.448974609375,52.19970703125 32.5350952148438,52.2491455078125 27.71484375,52.265625 20.0793437957764,52.20703125 12.8759765625,52.03125 9.74945068359375,51.9012451171875 7.357177734375,51.74560546875 5.69915771484375,51.5643310546875 4.77539110183716,51.357421875 2.90039110183716,49.7314453125 2.32910203933716,48.497314453125 2.13867235183716,47.16796875 2.60742235183716,45.029296875 4.26269578933716,42.890625 5.07476854324341,42.2708129882813 6.32446336746216,41.495361328125 8.01177978515625,40.5642700195313 10.13671875,39.4775390625 19.6875,35.4931640625 25.01220703125,33.775634765625 31.259765625,31.93359375 3.42773485183716,31.93359375 3.42773485183716,29.0625z M28.623046875,1.64062476158142L48.486328125,1.64062476158142 48.486328125,19.1015625 48.2153282165527,20.6140155792236 47.40234375,21.9287109375 46.2268028259277,22.8808612823486 44.8681640625,23.3056640625 43.7887535095215,23.3688373565674 42.0007286071777,23.3972187042236 39.5040855407715,23.3908100128174 36.298828125,23.349609375 35.33203125,20.419921875 38.8705406188965,20.4153461456299 41.4880332946777,20.4016132354736 43.1845054626465,20.3787250518799 43.9599609375,20.3466796875 45.05859375,19.7021484375 45.52734375,18.544921875 45.52734375,4.62890625 31.728515625,4.62890625 31.728515625,26.77734375 28.623046875,26.77734375 28.623046875,1.64062476158142z M21.474609375,0L23.349609375,2.578125 13.359375,4.76806640625 3.77929735183716,6.00585985183716 3.77929735183716,17.109375 17.6953125,13.330078125 17.7832012176514,10.2099609375 17.75390625,7.822265625 20.830078125,7.822265625 20.8044414520264,12.5079345703125 20.3173809051514,16.39892578125 19.3688945770264,19.4952392578125 17.958984375,21.796875 16.0455322265625,23.6004638671875 13.58642578125,25.20263671875 10.5816650390625,26.6033935546875 7.03125047683716,27.802734375 5.27343797683716,25.01953125 10.001220703125,23.4777851104736 13.5791015625,21.5478534698486 16.007080078125,19.2297382354736 17.28515625,16.5234375 8.94287109375,18.8452167510986 1.142578125,20.654296875 0,18.193359375 0.732421875,16.640625 0.732421875,3.369140625 11.7041015625,2.14599609375 21.474609375,0z" />
    </g>
  </g>
</svg>