<?xml version="1.0" encoding="utf-8"?>
<!DOCTYPE svg PUBLIC "-//W3C//DTD SVG 1.1//EN" "http://www.w3.org/Graphics/SVG/1.1/DTD/svg11.dtd">
<svg width="52.08984375" height="49.892578125" xmlns="http://www.w3.org/2000/svg" xmlns:xlink="http://www.w3.org/1999/xlink" xmlns:xml="http://www.w3.org/XML/1998/namespace" version="1.1">
  <g>
    <g>
      <path style="fill:#FF0000;fill-opacity:1" d="M23.291015625,0L25.7739238739014,0.168459683656693 27.48046875,0.380859136581421 28.212890625,0.849608898162842 27.83203125,2.05078101158142 27.6123027801514,3.5888671875 27.5390625,6.38671875 27.5390625,13.154296875 43.740234375,13.154296875 51.591796875,13.037109375 52.08984375,13.505859375 52.08984375,16.46484375 51.591796875,16.875 43.740234375,16.7578125 13.06640625,16.7578125 13.06640625,39.755859375 13.2275390625,42.1875 13.7109375,43.740234375 14.64111328125,44.736328125 16.142578125,45.322265625 18.2098388671875,45.6939697265625 21.21826171875,45.95947265625 25.1678466796875,46.1187744140625 30.05859375,46.171875 39.5947265625,45.90087890625 47.87109375,45.087890625 48.134765625,45.05859375 48.5009727478027,45.53466796875 48.720703125,46.962890625 48.75,47.9296875 48.5888633728027,48.6474609375 48.10546875,48.92578125 39.66796875,49.65087890625 30.41015625,49.892578125 24.290771484375,49.8175048828125 19.3798828125,49.59228515625 15.677490234375,49.2169189453125 13.18359375,48.69140625 11.4276113510132,47.783203125 10.1733388900757,46.23046875 9.42077541351318,44.033203125 9.169921875,41.19140625 9.169921875,16.7578125 8.3203125,16.7578125 0.46875,16.875 0,16.46484375 0,13.505859375 0.46875,13.037109375 8.3203125,13.154296875 23.701171875,13.154296875 23.701171875,6.62109375 23.5986309051514,2.75390601158142 23.291015625,0z" />
    </g>
  </g>
</svg>