<?xml version="1.0" encoding="utf-8"?>
<!DOCTYPE svg PUBLIC "-//W3C//DTD SVG 1.1//EN" "http://www.w3.org/Graphics/SVG/1.1/DTD/svg11.dtd">
<svg width="52.734375" height="52.998046875" xmlns="http://www.w3.org/2000/svg" xmlns:xlink="http://www.w3.org/1999/xlink" xmlns:xml="http://www.w3.org/XML/1998/namespace" version="1.1">
  <g>
    <g>
      <path style="fill:#FF0000;fill-opacity:1" d="M39.052734375,35.888671875L39.43359375,36.181640625 45.4101524353027,42.56103515625 52.734375,47.51953125 50.947265625,49.62890625 50.4858360290527,50.31005859375 50.09765625,50.537109375 49.189453125,50.126953125 42.34130859375,44.619140625 36.5625,37.998046875 36.38671875,37.6171875 36.9140625,37.08984375 38.408203125,36.181640625 39.052734375,35.888671875z M12.3046875,35.595703125L15.615234375,37.32421875 16.142578125,38.115234375 15.556640625,38.876953125 14.82421875,39.5068359375 13.974609375,40.576171875 9.521484375,45.54931640625 3.83789110183716,49.86328125 2.81250047683716,50.33203125 2.4462890625,50.1416015625 1.93359422683716,49.5703125 0,47.900390625 6.03515625,43.7109375 10.60546875,39.052734375 11.66015625,37.412109375 12.3046875,35.595703125z M12.5390625,19.951171875L12.5390625,29.033203125 39.609375,29.033203125 39.609375,19.951171875 12.5390625,19.951171875z M9.345703125,16.5234375L17.578125,16.640625 34.5703125,16.640625 42.861328125,16.5234375 43.330078125,16.9921875 43.212890625,21.73828125 43.212890625,27.24609375 43.330078125,31.9921875 42.861328125,32.4609375 34.5703125,32.34375 28.125,32.34375 28.125,40.078125 28.2421875,47.40234375 27.85400390625,49.9951171875 26.689453125,51.73828125 24.2578125,52.763671875 22.4487285614014,52.939453125 19.892578125,52.998046875 18.720703125,52.998046875 17.9736328125,52.9541015625 17.607421875,52.822265625 17.2265625,51.796875 16.025390625,49.16015625 18.81591796875,49.423828125 20.9765625,49.51171875 22.6977519989014,49.3212890625 23.759765625,48.75 24.1992168426514,47.9443359375 24.345703125,46.7578125 24.345703125,32.34375 17.578125,32.34375 9.345703125,32.4609375 8.818359375,31.9921875 8.935546875,27.24609375 8.935546875,21.73828125 8.818359375,16.9921875 9.345703125,16.5234375z M23.525390625,0L27.65625,0.29296863079071 28.388671875,0.791015863418579 28.037109375,1.904296875 27.7954082489014,3.3251953125 27.71484375,6.064453125 27.71484375,7.6171875 43.564453125,7.6171875 51.474609375,7.5 51.97265625,7.96875 51.97265625,10.634765625 51.474609375,11.103515625 43.564453125,10.986328125 9.111328125,10.986328125 1.14257860183716,11.103515625 0.673828125,10.634765625 0.673828125,7.96875 1.14257860183716,7.5 9.111328125,7.6171875 23.935546875,7.6171875 23.935546875,6.064453125 23.8330059051514,2.35107707977295 23.525390625,0z" />
    </g>
  </g>
</svg>