<?xml version="1.0" encoding="utf-8"?>
<!DOCTYPE svg PUBLIC "-//W3C//DTD SVG 1.1//EN" "http://www.w3.org/Graphics/SVG/1.1/DTD/svg11.dtd">
<svg width="35.5078125" height="48.046875" xmlns="http://www.w3.org/2000/svg" xmlns:xlink="http://www.w3.org/1999/xlink" xmlns:xml="http://www.w3.org/XML/1998/namespace" version="1.1">
  <g>
    <g>
      <path style="fill:#FF0000;fill-opacity:1" d="M30.234375,0L34.482421875,0.791015625 35.25146484375,1.11328125 35.5078125,1.611328125 35.361328125,1.98486328125 34.921875,2.8125 34.31396484375,4.15283203125 33.779296875,6.064453125 31.5509033203125,14.2144784927368 28.93798828125,21.3793964385986 25.9405517578125,27.5592060089111 22.55859375,32.75390625 18.5174560546875,37.40478515625 14.09912109375,41.455078125 9.3035888671875,44.90478515625 4.130859375,47.75390625 3.310546875,48.046875 2.92236328125,47.83447265625 2.4609375,47.197265625 0,45 5.5572509765625,42.2735595703125 10.53955078125,39.01611328125 14.9468994140625,35.2276611328125 18.779296875,30.908203125 22.027587890625,26.1383075714111 24.8583984375,20.6176776885986 27.271728515625,14.3463144302368 29.267578125,7.32421875 30.0146484375,3.74267578125 30.263671875,0.966796875 30.234375,0z" />
    </g>
  </g>
</svg>