<?xml version="1.0" encoding="utf-8"?>
<!DOCTYPE svg PUBLIC "-//W3C//DTD SVG 1.1//EN" "http://www.w3.org/Graphics/SVG/1.1/DTD/svg11.dtd">
<svg width="52.1484375" height="50.44921875" xmlns="http://www.w3.org/2000/svg" xmlns:xlink="http://www.w3.org/1999/xlink" xmlns:xml="http://www.w3.org/XML/1998/namespace" version="1.1">
  <g>
    <g>
      <path style="fill:#FF0000;fill-opacity:1" d="M5.302734375,23.642578125L45.1171875,23.642578125 45.1171875,26.630859375 39.6240234375,28.36669921875 33.515625,30.5859375 20.9326171875,36.09375 15.421142578125,39.005126953125 11.220703125,41.6455078125 9.65240478515625,42.7725219726563 8.492431640625,43.648681640625 7.74078369140625,44.2739868164063 7.3974609375,44.6484375 7.119140625,45.556640625 7.5146484375,46.5673828125 8.61328125,47.080078125 15.498046875,47.373046875 21.9360332489014,47.52685546875 28.9453125,47.578125 35.2496337890625,47.5543212890625 40.10009765625,47.48291015625 43.4967041015625,47.3638916015625 45.439453125,47.197265625 46.5728721618652,46.6168212890625 47.5415000915527,45.25634765625 48.3453330993652,43.1158447265625 48.984375,40.1953125 51.9140625,41.689453125 51.1376914978027,45.234375 49.8046875,47.841796875 47.9882774353027,49.50439453125 45.76171875,50.21484375 44.9436950683594,50.269775390625 43.7054443359375,50.3173828125 42.0469665527344,50.357666015625 39.96826171875,50.390625 37.4693298339844,50.416259765625 34.5501708984375,50.4345703125 31.2107849121094,50.445556640625 27.451171875,50.44921875 23.8538360595703,50.4453277587891 20.6350708007813,50.4336547851563 17.7948760986328,50.4141998291016 15.333251953125,50.386962890625 13.2501983642578,50.3519439697266 11.5457153320313,50.3091430664063 10.2198028564453,50.2585601806641 9.2724609375,50.2001953125 6.690673828125,49.658203125 5.009765625,48.5302734375 4.0869140625,47.076416015625 3.77929735183716,45.556640625 3.995361328125,44.263916015625 4.6435546875,43.0224609375 5.30914306640625,42.2964477539063 6.441650390625,41.334228515625 8.04107666015625,40.1358032226563 10.107421875,38.701171875 15.0439453125,35.665283203125 20.654296875,32.7685546875 23.8330078125,31.3247680664063 27.421875,29.820556640625 31.4208984375,28.2559204101563 35.830078125,26.630859375 5.302734375,26.630859375 5.302734375,23.642578125z M0,0L52.1484375,0 52.1484375,2.92968773841858 26.279296875,2.92968773841858 26.279296875,7.001953125 37.880859375,10.13671875 48.369140625,13.798828125 47.05078125,16.728515625 37.21435546875,13.23486328125 26.279296875,10.13671875 26.279296875,21.298828125 22.939453125,21.298828125 22.939453125,2.92968773841858 0,2.92968773841858 0,0z" />
    </g>
  </g>
</svg>