<?xml version="1.0" encoding="utf-8"?>
<!DOCTYPE svg PUBLIC "-//W3C//DTD SVG 1.1//EN" "http://www.w3.org/Graphics/SVG/1.1/DTD/svg11.dtd">
<svg width="53.1445312500003" height="46.435546875" xmlns="http://www.w3.org/2000/svg" xmlns:xlink="http://www.w3.org/1999/xlink" xmlns:xml="http://www.w3.org/XML/1998/namespace" version="1.1">
  <g>
    <g>
      <path style="fill:#FF0000;fill-opacity:1" d="M21.533203125,3.48632860183716L21.533203125,11.044921875 21.650390625,15.908203125 21.15234375,16.376953125 16.318359375,16.259765625 8.349609375,16.259765625 8.349609375,28.18359375 16.318359375,28.18359375 21.15234375,28.06640625 21.650390625,28.53515625 21.533203125,33.779296875 21.533203125,42.890625 31.025390625,42.890625 31.025390625,33.779296875 30.908203125,28.53515625 31.376953125,28.06640625 36.357421875,28.18359375 44.443359375,28.18359375 44.443359375,16.259765625 36.357421875,16.259765625 31.376953125,16.376953125 30.908203125,15.908203125 31.025390625,11.103515625 31.025390625,3.48632860183716 21.533203125,3.48632860183716z M1.14257860183716,0L9.052734375,0.117187976837158 43.974609375,0.117187976837158 51.884765625,0 52.353515625,0.468750476837158 52.353515625,3.13476610183716 51.884765625,3.60351610183716 43.974609375,3.48632860183716 34.5703125,3.48632860183716 34.5703125,13.0078125 42.451171875,13.0078125 47.607421875,12.890625 48.046875,13.359375 47.98828125,18.955078125 47.98828125,25.4296875 48.046875,31.083984375 47.607421875,31.552734375 42.451171875,31.435546875 34.5703125,31.435546875 34.5703125,42.890625 44.970703125,42.890625 52.67578125,42.7734375 53.14453125,43.2421875 53.14453125,45.966796875 52.67578125,46.435546875 44.970703125,46.318359375 8.173828125,46.318359375 0.468749761581421,46.435546875 0,45.966796875 0,43.2421875 0.468749761581421,42.7734375 8.173828125,42.890625 17.98828125,42.890625 17.98828125,31.435546875 10.25390625,31.435546875 5.15625,31.552734375 4.6875,31.083984375 4.8046875,25.4296875 4.8046875,18.955078125 4.6875,13.359375 5.15625,12.890625 10.25390625,13.0078125 17.98828125,13.0078125 17.98828125,3.48632860183716 9.052734375,3.48632860183716 1.14257860183716,3.60351610183716 0.673828125,3.13476610183716 0.673828125,0.468750476837158 1.14257860183716,0z" />
    </g>
  </g>
</svg>