<?xml version="1.0" encoding="utf-8"?>
<!DOCTYPE svg PUBLIC "-//W3C//DTD SVG 1.1//EN" "http://www.w3.org/Graphics/SVG/1.1/DTD/svg11.dtd">
<svg width="50.0390625" height="51.97265625" xmlns="http://www.w3.org/2000/svg" xmlns:xlink="http://www.w3.org/1999/xlink" xmlns:xml="http://www.w3.org/XML/1998/namespace" version="1.1">
  <g>
    <g>
      <path style="fill:#FF0000;fill-opacity:1" d="M3.486328125,21.9140625L43.447265625,21.9140625 43.447265625,24.9609375 27.421875,31.0986328125 19.9621562957764,34.698486328125 13.2861328125,38.671875 10.4891958236694,40.5706787109375 8.38256740570068,42.10693359375 6.96624708175659,43.2806396484375 6.240234375,44.091796875 5.6689453125,45.2197265625 5.478515625,46.083984375 5.848388671875,47.62939453125 6.9580078125,48.45703125 7.6151270866394,48.56689453125 8.84674072265625,48.662109375 10.6528472900391,48.74267578125 13.033447265625,48.80859375 15.9885406494141,48.85986328125 19.5181274414063,48.896484375 23.6222076416016,48.91845703125 28.30078125,48.92578125 33.7664794921875,48.9157104492188 37.94677734375,48.885498046875 40.8416748046875,48.8351440429688 42.451171875,48.7646484375 44.1760215759277,48.22265625 45.4833984375,46.9189453125 46.4392051696777,44.849853515625 47.109375,42.01171875 50.0390625,43.447265625 49.0136680603027,46.728515625 47.87109375,48.955078125 46.6040000915527,50.364990234375 45.205078125,51.1962890625 44.2575035095215,51.4407348632813 42.8796348571777,51.632080078125 41.0714683532715,51.7703247070313 38.8330078125,51.85546875 36.1660766601563,51.90673828125 33.072509765625,51.943359375 29.5523071289063,51.96533203125 25.60546875,51.97265625 19.9832153320313,51.9589233398438 15.421142578125,51.917724609375 11.9192504882813,51.8490600585938 9.4775390625,51.7529296875 6.177978515625,51.2255859375 3.92578125,50.0830078125 2.62939453125,48.409423828125 2.197265625,46.2890625 2.4755859375,44.5458984375 3.310546875,42.83203125 4.0960693359375,41.8707275390625 5.33935546875,40.68603515625 7.0404052734375,39.2779541015625 9.19921875,37.646484375 14.234619140625,34.29931640625 19.7900390625,31.23046875 26.326904296875,28.1982421875 34.306640625,24.9609375 3.486328125,24.9609375 3.486328125,21.9140625z M7.79296875,9.0234375L12.48779296875,14.06982421875 15.908203125,18.603515625 13.125,20.302734375 9.345703125,15.380859375 5.0390625,10.869140625 7.79296875,9.0234375z M40.810546875,6.796875L43.623046875,8.232421875 39.55810546875,14.04052734375 34.62890625,19.74609375 31.787109375,18.310546875 36.7529296875,12.54638671875 40.810546875,6.796875z M44.70703125,0L46.552734375,2.72460889816284 37.327880859375,4.522705078125 26.7041015625,5.9326171875 14.6813955307007,6.954345703125 1.25976514816284,7.587890625 0,4.51171875 11.8579092025757,4.19677734375 23.26171875,3.33984375 34.21142578125,1.94091796875 44.70703125,0z" />
    </g>
  </g>
</svg>