<?xml version="1.0" encoding="utf-8"?>
<!DOCTYPE svg PUBLIC "-//W3C//DTD SVG 1.1//EN" "http://www.w3.org/Graphics/SVG/1.1/DTD/svg11.dtd">
<svg width="54.4042968750002" height="53.876953125" xmlns="http://www.w3.org/2000/svg" xmlns:xlink="http://www.w3.org/1999/xlink" xmlns:xml="http://www.w3.org/XML/1998/namespace" version="1.1">
  <g>
    <g>
      <path style="fill:#FF0000;fill-opacity:1" d="M8.056640625,12.48046875L8.49609375,12.83203125 10.4370107650757,16.97021484375 11.806640625,20.947265625 11.865234375,21.240234375 11.455078125,21.6796875 9.287109375,22.3828125 8.935546875,22.44140625 8.642578125,22.060546875 7.24365234375,17.724609375 5.44921875,13.798828125 5.361328125,13.505859375 5.7421875,13.154296875 7.734375,12.5390625 8.056640625,12.48046875z M20.830078125,12.1875L24.111328125,13.0078125 24.84375,13.681640625 24.287109375,14.6484375 23.9648418426514,15.15380859375 23.525390625,16.201171875 20.09765625,23.935546875 21.85546875,23.935546875 29.6484375,23.818359375 30.17578125,24.345703125 30.17578125,26.689453125 29.6484375,27.24609375 21.85546875,27.099609375 16.7578125,27.099609375 16.7578125,36.064453125 20.712890625,36.064453125 28.154296875,35.947265625 28.681640625,36.474609375 28.681640625,38.876953125 28.154296875,39.404296875 20.712890625,39.287109375 16.7578125,39.287109375 16.7578125,46.318359375 16.875,53.3203125 16.318359375,53.876953125 13.681640625,53.876953125 13.154296875,53.3203125 13.271484375,46.318359375 13.271484375,39.287109375 9.287109375,39.287109375 1.845703125,39.404296875 1.31835889816284,38.876953125 1.31835889816284,36.474609375 1.845703125,35.947265625 9.287109375,36.064453125 13.271484375,36.064453125 13.271484375,27.099609375 8.349609375,27.099609375 0.527343988418579,27.24609375 0,26.689453125 0,24.345703125 0.527343988418579,23.818359375 8.349609375,23.935546875 16.81640625,23.935546875 18.720703125,19.4018573760986 20.21484375,15.17578125 20.830078125,12.1875z M33.046875,0.90820300579071L37.08984375,1.31835901737213 37.68310546875,1.53076434135437 37.880859375,1.93359339237213 37.77099609375,2.29248046875 37.44140625,3.076171875 37.313232421875,3.8671875 37.2216796875,5.419921875 37.166748046875,7.734375 37.1484375,10.810546875 37.1484375,44.53125 37.20703125,46.3330078125 37.3828125,47.4609375 38.203125,48.486328125 38.829345703125,48.69140625 39.8583984375,48.837890625 41.290283203125,48.92578125 43.125,48.955078125 45.1446495056152,48.8763427734375 46.7797813415527,48.64013671875 48.0303916931152,48.2464599609375 48.896484375,47.6953125 49.6472129821777,46.5802001953125 50.2294883728027,44.72900390625 50.6433067321777,42.1417236328125 50.888671875,38.818359375 51.9873008728027,39.58740234375 53.466796875,40.25390625 54.1699180603027,40.65673828125 54.404296875,41.162109375 54.375,41.71875 53.8549766540527,45.615234375 53.115234375,48.33984375 51.357421875,50.830078125 50.0427207946777,51.5863037109375 48.2373008728027,52.12646484375 45.9411582946777,52.4505615234375 43.154296875,52.55859375 40.1934814453125,52.4981689453125 37.90283203125,52.31689453125 36.2823486328125,52.0147705078125 35.33203125,51.591796875 33.896484375,49.74609375 33.5888671875,48.20068359375 33.486328125,46.025390625 33.486328125,10.634765625 33.4588623046875,7.291259765625 33.37646484375,4.5556640625 33.2391357421875,2.427978515625 33.046875,0.90820300579071z M12.83203125,0L16.669921875,0.380859136581421 17.40234375,0.849609017372131 17.021484375,1.93359339237213 16.8017578125,3.15673828125 16.728515625,5.654296875 16.728515625,7.44140625 20.7421875,7.44140625 28.18359375,7.32421875 28.740234375,7.880859375 28.740234375,10.224609375 28.18359375,10.751953125 20.7421875,10.634765625 9.462890625,10.634765625 2.021484375,10.751953125 1.49414014816284,10.224609375 1.49414014816284,7.880859375 2.021484375,7.32421875 9.462890625,7.44140625 13.2421875,7.44140625 13.2421875,5.654296875 13.1396484375,2.26318645477295 12.83203125,0z" />
    </g>
  </g>
</svg>