<?xml version="1.0" encoding="utf-8"?>
<!DOCTYPE svg PUBLIC "-//W3C//DTD SVG 1.1//EN" "http://www.w3.org/Graphics/SVG/1.1/DTD/svg11.dtd">
<svg width="52.44140625" height="52.96875" xmlns="http://www.w3.org/2000/svg" xmlns:xlink="http://www.w3.org/1999/xlink" xmlns:xml="http://www.w3.org/XML/1998/namespace" version="1.1">
  <g>
    <g>
      <path style="fill:#FF0000;fill-opacity:1" d="M18.251953125,37.55859375L21.357421875,37.8515625 21.005859375,40.37109375 41.396484375,40.37109375 40.869140625,48.837890625 41.2060546875,49.4970703125 41.8359375,49.86328125 47.109375,49.8046875 48.2556114196777,49.365234375 48.9404296875,48.046875 49.3102989196777,46.07666015625 49.51171875,43.681640625 52.44140625,44.6484375 52.0239219665527,47.96630859375 51.298828125,50.244140625 50.3320274353027,51.654052734375 49.189453125,52.3681640625 48.2373008728027,52.5283813476563 46.6113243103027,52.642822265625 44.3115196228027,52.7114868164063 41.337890625,52.734375 39.862060546875,52.470703125 38.7158203125,51.6796875 37.994384765625,50.54443359375 37.79296875,49.248046875 38.173828125,43.06640625 20.09765625,43.06640625 19.2654418945313,44.9130249023438 18.013916015625,46.585693359375 16.3430786132813,48.0844116210938 14.2529296875,49.4091796875 11.7434692382813,50.5599975585938 8.814697265625,51.536865234375 5.46661376953125,52.3397827148438 1.69921851158142,52.96875 0,50.15625 6.36840772628784,49.15283203125 11.2939453125,47.63671875 14.776611328125,45.60791015625 16.81640625,43.06640625 4.013671875,43.06640625 4.013671875,40.37109375 17.8125,40.37109375 18.06884765625,39.1552734375 18.251953125,37.55859375z M24.7265625,25.078125L27.7734375,25.078125 27.7734375,27.59765625 44.296875,27.59765625 44.296875,30.1171875 27.7734375,30.1171875 27.7734375,33.779296875 48.486328125,33.779296875 48.486328125,36.357421875 27.7734375,36.357421875 27.7734375,39.111328125 24.7265625,39.111328125 24.7265625,36.357421875 4.072265625,36.357421875 4.072265625,33.779296875 24.7265625,33.779296875 24.7265625,30.1171875 8.291015625,30.1171875 8.291015625,27.59765625 24.7265625,27.59765625 24.7265625,25.078125z M1.49414038658142,21.123046875L51.005859375,21.123046875 51.005859375,28.388671875 48.017578125,28.388671875 48.017578125,23.759765625 4.62890625,23.759765625 4.62890625,28.271484375 1.49414038658142,28.271484375 1.49414038658142,21.123046875z M12.65625,12.5390625L12.65625,15.64453125 39.9609375,15.64453125 39.9609375,12.5390625 12.65625,12.5390625z M9.43359375,10.078125L43.095703125,10.078125 43.095703125,18.251953125 9.43359375,18.251953125 9.43359375,10.078125z M26.044921875,0L28.447265625,4.36523389816284 51.73828125,4.36523389816284 51.73828125,7.03125 0.615234136581421,7.03125 0.615234136581421,4.36523389816284 24.90234375,4.36523389816284 24.1186504364014,2.7978515625 22.939453125,0.908203363418579 26.044921875,0z" />
    </g>
  </g>
</svg>