<?xml version="1.0" encoding="utf-8"?>
<!DOCTYPE svg PUBLIC "-//W3C//DTD SVG 1.1//EN" "http://www.w3.org/Graphics/SVG/1.1/DTD/svg11.dtd">
<svg width="53.02734375" height="52.998046875" xmlns="http://www.w3.org/2000/svg" xmlns:xlink="http://www.w3.org/1999/xlink" xmlns:xml="http://www.w3.org/XML/1998/namespace" version="1.1">
  <g>
    <g>
      <path style="fill:#FF0000;fill-opacity:1" d="M33.896484375,0L36.943359375,0.791016101837158 35.4345703125,8.287353515625 33.69140625,14.8974618911743 31.7138671875,20.621337890625 29.501953125,25.458984375 33.7628173828125,32.92236328125 39.10400390625,39.580078125 45.5255126953125,45.43212890625 53.02734375,50.478515625 50.7421875,52.998046875 43.3740234375,47.8802490234375 37.060546875,42.19482421875 31.8017578125,35.9417724609375 27.59765625,29.12109375 22.71240234375,36.0992431640625 16.845703125,42.38525390625 9.99755859375,47.9791259765625 2.16796827316284,52.880859375 0,50.361328125 4.79827880859375,47.5337219238281 9.202880859375,44.5147705078125 13.2138061523438,41.3044738769531 16.8310546875,37.90283203125 20.0546264648438,34.3098449707031 22.884521484375,30.5255126953125 25.3207397460938,26.5498352050781 27.36328125,22.3828125 19.6343994140625,23.8165302276611 13.14697265625,24.9243183135986 7.90100049972534,25.7061786651611 3.896484375,26.162109375 2.6953125,22.998046875 5.44921875,22.67578125 7.85339307785034,17.669677734375 10.0268545150757,12.2314453125 11.9696035385132,6.361083984375 13.681640625,0.0585941076278687 16.845703125,1.08398461341858 13.505859375,12.06298828125 9.345703125,22.20703125 12.762451171875,21.8609638214111 17.1533203125,21.2036151885986 22.518310546875,20.2349872589111 28.857421875,18.955078125 30.238037109375,15.2105712890625 31.5380859375,10.80322265625 32.757568359375,5.7330322265625 33.896484375,0z" />
    </g>
  </g>
</svg>