<?xml version="1.0" encoding="utf-8"?>
<!DOCTYPE svg PUBLIC "-//W3C//DTD SVG 1.1//EN" "http://www.w3.org/Graphics/SVG/1.1/DTD/svg11.dtd">
<svg width="55.37109375" height="54.43359375" xmlns="http://www.w3.org/2000/svg" xmlns:xlink="http://www.w3.org/1999/xlink" xmlns:xml="http://www.w3.org/XML/1998/namespace" version="1.1">
  <g>
    <g>
      <path style="fill:#FF0000;fill-opacity:1" d="M24.84375,18.427734375L27.2094707489014,18.5595722198486 29.091796875,18.779296875 29.736328125,19.306640625 29.501953125,20.33203125 29.3481426239014,21.1633319854736 29.2382793426514,22.5732440948486 29.1723613739014,24.5617694854736 29.150390625,27.12890625 29.150390625,45.673828125 29.208984375,53.994140625 28.798828125,54.43359375 25.60546875,54.43359375 25.13671875,53.994140625 25.25390625,45.673828125 25.25390625,27.12890625 25.2282695770264,24.2889423370361 25.1513652801514,21.8920917510986 25.0231914520264,19.9383563995361 24.84375,18.427734375z M25.60546875,0L29.326171875,0.761718928813934 30.00732421875,1.07666325569153 30.234375,1.49414038658142 29.765625,2.13867235183716 29.208984375,2.57812523841858 31.995849609375,6.5771484375 34.9365234375,10.1953125 38.031005859375,13.4326171875 41.279296875,16.2890625 47.7905235290527,20.7348651885986 55.37109375,24.462890625 54.5727500915527,25.5175800323486 53.642578125,27.041015625 53.1665000915527,27.76611328125 52.79296875,28.0078125 51.9140625,27.65625 44.5458984375,23.455810546875 37.998046875,18.3837890625 32.2705078125,12.440185546875 27.36328125,5.62500047683716 22.6629638671875,12.4273681640625 17.14599609375,18.50830078125 10.8123779296875,23.8677978515625 3.662109375,28.505859375 2.75390672683716,28.857421875 2.33642578125,28.64501953125 1.845703125,28.0078125 0,25.8984375 7.90283203125,21.2622089385986 15.029296875,15.380859375 20.1416015625,9.7119140625 24.052734375,3.77929759025574 25.60546875,0z" />
    </g>
  </g>
</svg>