<?xml version="1.0" encoding="utf-8"?>
<!DOCTYPE svg PUBLIC "-//W3C//DTD SVG 1.1//EN" "http://www.w3.org/Graphics/SVG/1.1/DTD/svg11.dtd">
<svg width="52.7929687500003" height="52.265625" xmlns="http://www.w3.org/2000/svg" xmlns:xlink="http://www.w3.org/1999/xlink" xmlns:xml="http://www.w3.org/XML/1998/namespace" version="1.1">
  <g>
    <g>
      <path style="fill:#FF0000;fill-opacity:1" d="M19.365234375,16.083984375L19.365234375,20.888671875 19.2919921875,26.03759765625 19.072265625,30.05859375 34.306640625,30.05859375 34.306640625,16.083984375 19.365234375,16.083984375z M33.837890625,0L37.96875,0.29296875 38.701171875,0.849609136581421 38.583984375,1.376953125 38.408203125,1.904296875 38.2415771484375,2.6971435546875 38.12255859375,3.99169921875 38.0511474609375,5.7879638671875 38.02734375,8.0859375 38.02734375,12.59765625 42.333984375,12.59765625 50.5078125,12.48046875 50.9765625,12.94921875 50.9765625,15.732421875 50.5078125,16.201171875 42.333984375,16.083984375 38.02734375,16.083984375 38.02734375,30.05859375 44.619140625,30.05859375 52.353515625,29.94140625 52.79296875,30.41015625 52.79296875,33.193359375 52.353515625,33.662109375 44.619140625,33.544921875 38.02734375,33.544921875 38.02734375,41.630859375 38.14453125,51.650390625 37.67578125,52.1484375 34.658203125,52.1484375 34.189453125,51.650390625 34.306640625,41.630859375 34.306640625,33.544921875 18.720703125,33.544921875 17.4609375,38.525390625 15.8111572265625,42.4200439453125 13.55712890625,45.93017578125 10.6988525390625,49.0557861328125 7.236328125,51.796875 6.357421875,52.265625 5.98388671875,52.06787109375 5.390625,51.474609375 2.98828125,49.6875 7.1630859375,46.9482421875 10.3125,43.88671875 12.41455078125,40.6787109375 13.974609375,36.85546875 14.35546875,35.51513671875 14.794921875,33.544921875 8.203125,33.544921875 0.46875,33.662109375 0,33.193359375 0,30.41015625 0.46875,29.94140625 8.203125,30.05859375 15.29296875,30.05859375 15.556640625,26.16943359375 15.64453125,20.947265625 15.64453125,16.083984375 11.07421875,16.083984375 2.9296875,16.201171875 2.4609375,15.732421875 2.4609375,12.94921875 2.9296875,12.48046875 11.07421875,12.59765625 15.64453125,12.59765625 15.64453125,9.052734375 15.5419921875,3.87451171875 15.234375,0.0585939884185791 19.306640625,0.410156011581421 19.89990234375,0.622561395168304 20.09765625,1.02539038658142 20.009765625,1.34033203125 19.74609375,2.16796875 19.5794677734375,3.0340576171875 19.46044921875,4.48974609375 19.3890380859375,6.5350341796875 19.365234375,9.169921875 19.365234375,12.59765625 34.306640625,12.59765625 34.306640625,8.203125 34.189453125,3.603515625 33.837890625,0z" />
    </g>
  </g>
</svg>