<?xml version="1.0" encoding="utf-8"?>
<!DOCTYPE svg PUBLIC "-//W3C//DTD SVG 1.1//EN" "http://www.w3.org/Graphics/SVG/1.1/DTD/svg11.dtd">
<svg width="51.240234375" height="50.712890625" xmlns="http://www.w3.org/2000/svg" xmlns:xlink="http://www.w3.org/1999/xlink" xmlns:xml="http://www.w3.org/XML/1998/namespace" version="1.1">
  <g>
    <g>
      <path style="fill:#FF0000;fill-opacity:1" d="M38.26171875,0L41.3671875,2.28515601158142 41.8359375,3.19335913658142 41.52099609375,3.67675757408142 40.576171875,3.95507788658142 39.14794921875,4.28466796875 36.9140625,5.09765625 24.990234375,8.876953125 24.990234375,23.759765625 42.392578125,21.767578125 48.134765625,21.064453125 49.775390625,20.859375 50.361328125,20.771484375 50.595703125,20.7421875 50.91796875,21.240234375 51.2109375,23.876953125 51.240234375,24.111328125 50.7421875,24.4921875 50.3540000915527,24.5214862823486 49.423828125,24.609375 42.685546875,25.3125 24.990234375,27.36328125 24.990234375,42.65625 25.1696758270264,44.28955078125 25.7080059051514,45.52734375 26.6052227020264,46.36962890625 27.861328125,46.81640625 29.1357421875,47.021484375 30.791015625,47.16796875 32.8271484375,47.255859375 35.244140625,47.28515625 38.580322265625,47.1844482421875 41.2646484375,46.88232421875 43.297119140625,46.3787841796875 44.677734375,45.673828125 45.6298789978027,44.527587890625 46.3476524353027,42.6416015625 46.8310508728027,40.015869140625 47.080078125,36.650390625 49.5703125,38.173828125 50.3393516540527,38.57666015625 50.595703125,39.0234375 50.537109375,39.66796875 50.1159629821777,42.7313232421875 49.4384727478027,45.21240234375 48.5046348571777,47.1112060546875 47.314453125,48.427734375 45.3735313415527,49.51904296875 42.83203125,50.21484375 39.38232421875,50.58837890625 34.775390625,50.712890625 31.56005859375,50.6671142578125 28.9453125,50.52978515625 26.93115234375,50.3009033203125 25.517578125,49.98046875 23.6334209442139,49.0155029296875 22.2875957489014,47.58544921875 21.4801006317139,45.6903076171875 21.2109375,43.330078125 21.2109375,27.7734375 8.90625,29.208984375 6.038818359375,29.5660400390625 3.76464819908142,29.84619140625 2.08373999595642,30.0494384765625 0.99609375,30.17578125 0.76171875,30.205078125 0.380859375,29.70703125 0.029296875,26.953125 0,26.71875 0.498046398162842,26.396484375 0.893554627895355,26.3671875 1.787109375,26.279296875 8.49609375,25.634765625 21.2109375,24.169921875 21.2109375,9.78515625 14.61181640625,11.162109375 7.294921875,12.36328125 6.650390625,12.421875 6.20361328125,12.19482421875 5.80078125,11.513671875 4.21875,9.169921875 12.7313222885132,7.9302978515625 20.6030254364014,6.35009765625 27.8338603973389,4.42932081222534 34.423828125,2.16796803474426 36.55517578125,1.15722632408142 38.26171875,0z" />
    </g>
  </g>
</svg>