<?xml version="1.0" encoding="utf-8"?>
<!DOCTYPE svg PUBLIC "-//W3C//DTD SVG 1.1//EN" "http://www.w3.org/Graphics/SVG/1.1/DTD/svg11.dtd">
<svg width="52.32421875" height="52.998046875" xmlns="http://www.w3.org/2000/svg" xmlns:xlink="http://www.w3.org/1999/xlink" xmlns:xml="http://www.w3.org/XML/1998/namespace" version="1.1">
  <g>
    <g>
      <path style="fill:#FF0000;fill-opacity:1" d="M31.611328125,39.375L37.7819786071777,42.5372314453125 43.0224571228027,45.43212890625 47.3327598571777,48.0596923828125 50.712890625,50.419921875 48.720703125,52.998046875 44.9542236328125,50.2862548828125 40.53955078125,47.54150390625 35.4766845703125,44.7637939453125 29.765625,41.953125 31.611328125,39.375z M12.890625,18.251953125L12.890625,33.017578125 35.0390625,33.017578125 35.0390625,18.251953125 12.890625,18.251953125z M43.916015625,0L45.498046875,3.07617235183716 28.73291015625,5.96923828125 12.890625,7.44140625 12.890625,15.05859375 49.51171875,15.05859375 49.51171875,18.251953125 38.232421875,18.251953125 38.232421875,33.017578125 52.32421875,33.017578125 52.32421875,36.064453125 0,36.064453125 0,33.017578125 9.66796875,33.017578125 9.66796875,4.51171875 17.8839111328125,4.02099609375 26.33056640625,3.10546875 35.0079345703125,1.76513671875 43.916015625,0z" />
    </g>
  </g>
</svg>