<?xml version="1.0" encoding="utf-8"?>
<!DOCTYPE svg PUBLIC "-//W3C//DTD SVG 1.1//EN" "http://www.w3.org/Graphics/SVG/1.1/DTD/svg11.dtd">
<svg width="49.27734375" height="52.44140625" xmlns="http://www.w3.org/2000/svg" xmlns:xlink="http://www.w3.org/1999/xlink" xmlns:xml="http://www.w3.org/XML/1998/namespace" version="1.1">
  <g>
    <g>
      <path style="fill:#FF0000;fill-opacity:1" d="M36.796875,20.419921875L37.53662109375,20.7788105010986 38.583984375,21.85546875 39.39697265625,22.9687519073486 39.66796875,23.7890625 39.27978515625,24.3530292510986 38.115234375,24.755859375 37.3699951171875,24.9938983917236 36.18896484375,25.5322284698486 34.5721435546875,26.3708515167236 32.51953125,27.509765625 27.4694805145264,30.5877685546875 22.8955059051514,33.64013671875 18.7976055145264,36.6668701171875 15.17578125,39.66796875 13.4967041015625,41.279296875 12.29736328125,42.744140625 11.5777587890625,44.0625 11.337890625,45.234375 11.5667724609375,46.3641357421875 12.25341796875,47.26318359375 13.3978271484375,47.9315185546875 15,48.369140625 17.2869873046875,48.599853515625 20.28076171875,48.7646484375 23.9813232421875,48.863525390625 28.388671875,48.896484375 31.6131591796875,48.8616943359375 34.37255859375,48.75732421875 36.6668701171875,48.5833740234375 38.49609375,48.33984375 40.751953125,47.74658203125 42.5390625,46.845703125 43.8720664978027,45.47607421875 44.765625,43.30078125 45.1757774353027,41.06689453125 45.46875,37.998046875 48.1640625,39.19921875 48.9990196228027,39.60205078125 49.27734375,40.048828125 49.189453125,40.810546875 48.5595664978027,44.31884765625 47.783203125,46.7578125 46.6625938415527,48.57421875 45.1171875,50.0390625 42.8594970703125,51.090087890625 39.30908203125,51.8408203125 34.4659423828125,52.291259765625 28.330078125,52.44140625 22.9925537109375,52.3846435546875 18.58154296875,52.21435546875 15.0970458984375,51.9305419921875 12.5390625,51.533203125 10.155029296875,50.69091796875 8.4521484375,49.453125 7.430419921875,47.81982421875 7.08984375,45.791015625 7.3114013671875,44.007568359375 7.97607421875,42.2607421875 9.0838623046875,40.550537109375 10.634765625,38.876953125 14.857177734375,35.2642822265625 19.7607421875,31.60400390625 25.345458984375,27.8961181640625 31.611328125,24.140625 18.427734375,24.140625 11.455078125,24.2578125 11.044921875,23.73046875 11.044921875,21.123046875 11.455078125,20.654296875 18.427734375,20.771484375 34.921875,20.771484375 36.123046875,20.595703125 36.796875,20.419921875z M14.82421875,0L16.9482421875,0.498049795627594 18.57421875,0.996094226837158 19.248046875,1.787109375 18.57421875,2.69531297683716 18.046875,3.45703125 17.16796875,5.21484327316284 15.05859375,9.228515625 39.9609375,9.228515625 48.310546875,9.111328125 48.779296875,9.580078125 48.779296875,12.3046875 48.310546875,12.7734375 39.9609375,12.65625 12.94921875,12.65625 8.82568264007568,18.02490234375 3.662109375,23.173828125 2.8125,23.701171875 2.44628858566284,23.5034198760986 1.9921875,22.91015625 0,21.357421875 4.23522901535034,17.618408203125 7.91747951507568,13.4912109375 11.0467519760132,8.975830078125 13.623046875,4.072265625 14.82421875,0z" />
    </g>
  </g>
</svg>