<?xml version="1.0" encoding="utf-8"?>
<!DOCTYPE svg PUBLIC "-//W3C//DTD SVG 1.1//EN" "http://www.w3.org/Graphics/SVG/1.1/DTD/svg11.dtd">
<svg width="52.6757812500003" height="47.87109375" xmlns="http://www.w3.org/2000/svg" xmlns:xlink="http://www.w3.org/1999/xlink" xmlns:xml="http://www.w3.org/XML/1998/namespace" version="1.1">
  <g>
    <g>
      <path style="fill:#FF0000;fill-opacity:1" d="M19.892578125,28.681640625L20.2734375,28.798828125 30.3515625,34.921875 30.615234375,35.244140625 30.234375,35.888671875 29.091796875,37.32421875 28.388671875,37.91015625 27.94921875,37.705078125 23.1372051239014,34.2919921875 18.017578125,31.494140625 17.75390625,31.171875 18.193359375,30.46875 19.306640625,29.091796875 19.892578125,28.681640625z M22.8515625,18.8671875L23.291015625,19.013671875 28.61572265625,21.6943378448486 32.87109375,24.404296875 33.134765625,24.755859375 32.8125,25.37109375 31.669921875,26.806640625 30.9375,27.48046875 30.52734375,27.3046875 26.0668926239014,24.16259765625 21.123046875,21.650390625 20.830078125,21.38671875 21.240234375,20.68359375 22.265625,19.365234375 22.8515625,18.8671875z M2.10937452316284,0L10.1953125,0.1171875 42.36328125,0.1171875 50.44921875,0 50.947265625,0.46875 50.947265625,3.310546875 50.44921875,3.779296875 42.36328125,3.662109375 20.830078125,3.662109375 19.9951171875,7.6318359375 19.130859375,11.220703125 35.15625,11.220703125 42.3046875,11.103515625 42.83203125,11.630859375 41.953125,17.63671875 40.916748046875,24.9334716796875 39.8291015625,31.79443359375 38.690185546875,38.2196044921875 37.5,44.208984375 44.47265625,44.208984375 52.265625,44.091796875 52.67578125,44.560546875 52.67578125,47.40234375 52.265625,47.87109375 44.47265625,47.75390625 8.232421875,47.75390625 0.46875,47.87109375 0,47.40234375 0,44.560546875 0.46875,44.091796875 8.232421875,44.208984375 33.544921875,44.208984375 36.4013671875,29.40673828125 38.525390625,14.53125 18.369140625,14.53125 15.1025390625,26.19140625 11.396484375,37.44140625 10.83984375,37.822265625 10.4296875,37.79296875 8.408203125,37.55859375 7.6611328125,37.39013671875 7.412109375,37.119140625 7.5,36.767578125 12.919921875,20.3320331573486 16.9921875,3.662109375 10.1953125,3.662109375 2.10937452316284,3.779296875 1.61132860183716,3.310546875 1.61132860183716,0.46875 2.10937452316284,0z" />
    </g>
  </g>
</svg>