<?xml version="1.0" encoding="utf-8"?>
<!DOCTYPE svg PUBLIC "-//W3C//DTD SVG 1.1//EN" "http://www.w3.org/Graphics/SVG/1.1/DTD/svg11.dtd">
<svg width="44.94140625" height="49.482421875" xmlns="http://www.w3.org/2000/svg" xmlns:xlink="http://www.w3.org/1999/xlink" xmlns:xml="http://www.w3.org/XML/1998/namespace" version="1.1">
  <g>
    <g>
      <path style="fill:#FF0000;fill-opacity:1" d="M41.689453125,0L42.3998985290527,0.314941465854645 43.4765625,1.25976610183716 44.5751914978027,2.4755859375 44.94140625,3.25195360183716 44.267578125,4.248046875 42.216796875,5.625 34.1015625,12.1435546875 24.521484375,18.3984375 24.521484375,35.2734375 24.638671875,42.83203125 24.4921875,44.80224609375 24.052734375,46.259765625 22.734375,47.87109375 21.0278301239014,48.80126953125 18.427734375,49.306640625 15.9594707489014,49.4384765625 12.01171875,49.482421875 10.869140625,49.306640625 10.48828125,48.22265625 9.96826171875,46.5673828125 9.228515625,45.29296875 12.69287109375,45.5126953125 17.34375,45.5859375 18.7921123504639,45.3570556640625 19.8266582489014,44.67041015625 20.4473857879639,43.5260009765625 20.654296875,41.923828125 20.654296875,22.8515625 20.6195049285889,20.1068134307861 20.5151348114014,17.7612323760986 20.3411846160889,15.8148202896118 20.09765625,14.267578125 21.3207988739014,14.4287109375 23.642578125,14.677734375 27.9052734375,12.000732421875 31.787109375,9.3310546875 35.2880859375,6.668701171875 38.408203125,4.013671875 8.759765625,4.013671875 0.46875,4.130859375 0,3.603515625 0,0.761718273162842 0.46875,0.29296875 8.759765625,0.410156726837158 39.462890625,0.410156726837158 41.103515625,0.175780773162842 41.689453125,0z" />
    </g>
  </g>
</svg>