<?xml version="1.0" encoding="utf-8"?>
<!DOCTYPE svg PUBLIC "-//W3C//DTD SVG 1.1//EN" "http://www.w3.org/Graphics/SVG/1.1/DTD/svg11.dtd">
<svg width="52.91015625" height="50.56640625" xmlns="http://www.w3.org/2000/svg" xmlns:xlink="http://www.w3.org/1999/xlink" xmlns:xml="http://www.w3.org/XML/1998/namespace" version="1.1">
  <g>
    <g>
      <path style="fill:#FF0000;fill-opacity:1" d="M5.859375,27.48046875L46.083984375,27.48046875 46.083984375,30.29296875 39.898681640625,31.695556640625 33.2373046875,33.4423828125 19.7314453125,37.9248046875 16.6763305664063,39.1598510742188 14.117431640625,40.301513671875 12.0547485351563,41.3497924804688 10.48828125,42.3046875 8.466796875,43.76953125 7.67578125,44.53125 7.5,45.41015625 7.763671875,46.494140625 8.525390625,47.109375 9.26238918304443,47.1917724609375 10.9753408432007,47.29248046875 13.6642446517944,47.4114990234375 17.3291015625,47.548828125 25.1330547332764,47.7685546875 31.93359375,47.841796875 37.4560546875,47.7987670898438 41.689453125,47.669677734375 44.6337890625,47.4545288085938 46.2890625,47.1533203125 47.2210655212402,46.4456176757813 47.9956016540527,45.010986328125 48.6126670837402,42.8494262695313 49.072265625,39.9609375 52.001953125,41.396484375 51.3244590759277,44.600830078125 50.5810546875,46.7138671875 48.7646484375,49.130859375 46.875,50.1416015625 46.094051361084,50.2203369140625 44.6008262634277,50.29541015625 42.395320892334,50.3668212890625 39.4775390625,50.4345703125 33.233642578125,50.533447265625 27.59765625,50.56640625 23.3203125,50.5510711669922 19.5263671875,50.5050659179688 16.2158203125,50.4283905029297 13.388671875,50.321044921875 11.044921875,50.1830291748047 9.1845703125,50.0143432617188 7.80761671066284,49.8149871826172 6.9140625,49.5849609375 4.95849609375,48.138427734375 4.30664014816284,45.76171875 4.588623046875,44.161376953125 5.4345703125,42.6416015625 6.23931884765625,41.8359375 7.525634765625,40.8984375 9.29351806640625,39.8291015625 11.54296875,38.6279296875 16.83837890625,36.177978515625 22.763671875,33.896484375 28.86474609375,31.89697265625 34.6875,30.29296875 5.859375,30.29296875 5.859375,27.48046875z M14.208984375,12.48046875L14.208984375,20.44921875 44.033203125,20.44921875 44.033203125,12.48046875 14.208984375,12.48046875z M0.5859375,0L52.91015625,0 52.91015625,2.87109351158142 21.591796875,2.87109351158142 18.84521484375,6.3720703125 15.64453125,9.609375 47.34375,9.609375 47.34375,23.408203125 10.927734375,23.408203125 10.927734375,13.2421875 6.10107421875,16.23046875 2.16796875,18.1640625 0,15.5859375 5.71289014816284,12.802734375 10.576171875,9.755859375 14.58984375,6.4453125 17.75390625,2.87109351158142 0.5859375,2.87109351158142 0.5859375,0z" />
    </g>
  </g>
</svg>