<?xml version="1.0" encoding="utf-8"?>
<!DOCTYPE svg PUBLIC "-//W3C//DTD SVG 1.1//EN" "http://www.w3.org/Graphics/SVG/1.1/DTD/svg11.dtd">
<svg width="52.20703125" height="50.859375" xmlns="http://www.w3.org/2000/svg" xmlns:xlink="http://www.w3.org/1999/xlink" xmlns:xml="http://www.w3.org/XML/1998/namespace" version="1.1">
  <g>
    <g>
      <path style="fill:#FF0000;fill-opacity:1" d="M0,47.75390625L52.20703125,47.75390625 52.20703125,50.859375 0,50.859375 0,47.75390625z M30.439453125,0L33.544921875,0 33.544921875,11.630859375 50.21484375,11.630859375 50.21484375,14.736328125 33.544921875,14.736328125 33.544921875,35.7421875 34.1015625,37.1923828125 35.771484375,37.67578125 44.82421875,37.67578125 46.7504844665527,37.042236328125 47.783203125,35.1416015625 48.0615196228027,33.5696411132813 48.3105430603027,31.387939453125 48.5302696228027,28.5964965820313 48.720703125,25.1953125 51.73828125,26.455078125 51.5377769470215,29.6978759765625 51.2585411071777,32.54150390625 50.9005699157715,34.9859619140625 50.4638671875,37.03125 49.7506675720215,38.646240234375 48.5632286071777,39.7998046875 46.9015464782715,40.491943359375 44.765625,40.72265625 34.51171875,40.72265625 32.7301025390625,40.400390625 31.45751953125,39.43359375 30.6939697265625,37.822265625 30.439453125,35.56640625 30.439453125,0z M17.16796875,0L20.302734375,0 20.302734375,33.22265625 23.2250957489014,32.2265625 27.12890625,30.76171875 28.154296875,33.515625 15.73974609375,38.06396484375 1.93359327316284,42.099609375 0.615234375,39.052734375 8.92822170257568,36.9287109375 17.16796875,34.365234375 17.16796875,14.677734375 1.69921875,14.677734375 1.69921875,11.630859375 17.16796875,11.630859375 17.16796875,0z" />
    </g>
  </g>
</svg>