<?xml version="1.0" encoding="utf-8"?>
<!DOCTYPE svg PUBLIC "-//W3C//DTD SVG 1.1//EN" "http://www.w3.org/Graphics/SVG/1.1/DTD/svg11.dtd">
<svg width="52.3828125" height="50.9765625" xmlns="http://www.w3.org/2000/svg" xmlns:xlink="http://www.w3.org/1999/xlink" xmlns:xml="http://www.w3.org/XML/1998/namespace" version="1.1">
  <g>
    <g>
      <path style="fill:#FF0000;fill-opacity:1" d="M0,12.890625L52.3828125,12.890625 52.3828125,15.87890625 16.201171875,15.87890625 12.978515625,26.162109375 45.556640625,26.162109375 44.2822265625,40.48828125 43.7686157226563,43.6477661132813 43.179931640625,46.094970703125 42.5161743164063,47.8298950195313 41.77734375,48.8525390625 40.24658203125,49.951171875 38.759765625,50.5810546875 37.4688720703125,50.7540893554688 35.06103515625,50.877685546875 31.5362548828125,50.9518432617188 26.89453125,50.9765625 19.072265625,50.859375 17.75390625,47.63671875 26.923828125,47.724609375 35.390625,47.75390625 37.2061157226563,47.5753784179688 38.638916015625,47.039794921875 39.6890258789063,46.1471557617188 40.3564453125,44.8974609375 40.8242797851563,42.8384399414063 41.275634765625,39.517822265625 41.7105102539063,34.9356079101563 42.12890625,29.091796875 8.583984375,29.091796875 9.52651977539063,26.0591125488281 10.3472900390625,23.4210224151611 11.0462951660156,21.1775226593018 11.62353515625,19.3286151885986 12.0790100097656,17.8743000030518 12.4127197265625,16.8145771026611 12.6246643066406,16.1494445800781 12.71484375,15.87890625 0,15.87890625 0,12.890625z M4.27734375,0L48.369140625,0 48.369140625,2.87109327316284 4.27734375,2.87109327316284 4.27734375,0z" />
    </g>
  </g>
</svg>