<?xml version="1.0" encoding="utf-8"?>
<!DOCTYPE svg PUBLIC "-//W3C//DTD SVG 1.1//EN" "http://www.w3.org/Graphics/SVG/1.1/DTD/svg11.dtd">
<svg width="53.9355468750003" height="52.265625" xmlns="http://www.w3.org/2000/svg" xmlns:xlink="http://www.w3.org/1999/xlink" xmlns:xml="http://www.w3.org/XML/1998/namespace" version="1.1">
  <g>
    <g>
      <path style="fill:#FF0000;fill-opacity:1" d="M8.02734375,33.662109375L8.02734375,45.05859375 22.91015625,45.05859375 22.91015625,33.662109375 8.02734375,33.662109375z M24.84375,0.908203601837158L27.36328125,3.31054711341858 27.71484375,4.04296875 27.5024394989014,4.4384765625 26.865234375,4.5703125 24.90234375,5.0390625 17.34375,7.55859375 17.34375,17.900390625 21.708984375,17.900390625 29.501953125,17.783203125 30,18.251953125 30,20.830078125 29.501953125,21.298828125 21.708984375,21.181640625 17.34375,21.181640625 17.34375,30.46875 19.51171875,30.46875 26.103515625,30.3515625 26.572265625,30.8203125 26.455078125,36.298828125 26.455078125,41.279296875 26.572265625,51.123046875 26.103515625,51.62109375 23.37890625,51.62109375 22.91015625,51.123046875 22.91015625,48.251953125 8.02734375,48.251953125 8.02734375,51.796875 7.55859375,52.265625 4.833984375,52.265625 4.365234375,51.796875 4.482421875,41.748046875 4.482421875,37.20703125 4.365234375,30.8203125 4.833984375,30.3515625 11.455078125,30.46875 13.740234375,30.46875 13.740234375,21.181640625 8.26171875,21.181640625 0.468749523162842,21.298828125 0,20.830078125 0,18.251953125 0.468749523162842,17.783203125 8.26171875,17.900390625 13.740234375,17.900390625 13.740234375,8.466796875 9.40429592132568,9.36767578125 3.896484375,10.25390625 3.13476610183716,10.341796875 2.63671851158142,10.11474609375 2.197265625,9.43359375 0.87890625,7.20703125 12.16552734375,5.44921875 22.060546875,2.46093773841858 24.84375,0.908203601837158z M32.6953125,0L36.708984375,0.410156488418579 37.30224609375,0.666507005691528 37.5,1.08398461341858 37.20703125,2.22656321525574 37.0147705078125,3.09814500808716 36.87744140625,4.658203125 36.7950439453125,6.90673828125 36.767578125,9.84375 36.767578125,43.388671875 36.83349609375,45.1904296875 37.03125,46.318359375 37.8515625,47.34375 39.580078125,47.783203125 42.65625,47.9296875 46.2451133728027,47.61474609375 48.3984375,46.669921875 49.1235313415527,45.5401611328125 49.6874961853027,43.67431640625 50.0903282165527,41.0723876953125 50.33203125,37.734375 51.4599571228027,38.51806640625 52.96875,39.169921875 53.6938438415527,39.5361328125 53.935546875,39.990234375 53.876953125,40.693359375 53.3203086853027,44.619140625 52.587890625,47.314453125 50.80078125,49.74609375 49.4970664978027,50.5279541015625 47.6953086853027,51.08642578125 45.3955039978027,51.4215087890625 42.59765625,51.533203125 39.803466796875,51.4691162109375 37.6025390625,51.27685546875 35.994873046875,50.9564208984375 34.98046875,50.5078125 33.515625,48.662109375 33.2080078125,47.11669921875 33.10546875,44.94140625 33.10546875,9.66796875 33.079833984375,6.383056640625 33.0029296875,3.6767578125 32.874755859375,1.54907238483429 32.6953125,0z" />
    </g>
  </g>
</svg>