<?xml version="1.0" encoding="utf-8"?>
<!DOCTYPE svg PUBLIC "-//W3C//DTD SVG 1.1//EN" "http://www.w3.org/Graphics/SVG/1.1/DTD/svg11.dtd">
<svg width="51.533203125" height="47.314453125" xmlns="http://www.w3.org/2000/svg" xmlns:xlink="http://www.w3.org/1999/xlink" xmlns:xml="http://www.w3.org/XML/1998/namespace" version="1.1">
  <g>
    <g>
      <path style="fill:#FF0000;fill-opacity:1" d="M0.468749523162842,16.58203125L8.408203125,16.69921875 43.154296875,16.69921875 51.064453125,16.58203125 51.533203125,17.05078125 51.533203125,19.892578125 51.064453125,20.361328125 43.154296875,20.244140625 22.5,20.244140625 18.43505859375,30.7470703125 13.857421875,40.751953125 27.53173828125,39.4482421875 40.13671875,37.705078125 36.26953125,32.1826171875 32.578125,27.509765625 32.40234375,27.12890625 33.046875,26.54296875 34.51171875,25.634765625 35.126953125,25.37109375 35.5078125,25.634765625 43.0078125,35.2001953125 49.39453125,44.970703125 49.51171875,45.3515625 48.779296875,45.99609375 46.845703125,46.93359375 45.99609375,47.314453125 45.673828125,46.9921875 43.64501953125,43.41796875 42.12890625,40.83984375 24.4482421875,43.39599609375 6.9140625,45.205078125 5.14892578125,45.46142578125 4.189453125,45.76171875 3.10546922683716,46.171875 2.40234422683716,45.439453125 1.49414014816284,41.30859375 3.369140625,41.337890625 7.67578125,41.19140625 9.4921875,41.07421875 14.34814453125,30.56396484375 18.251953125,20.244140625 8.408203125,20.244140625 0.468749523162842,20.361328125 0,19.892578125 0,17.05078125 0.468749523162842,16.58203125z M6.181640625,0L14.70703125,0.117187976837158 37.32421875,0.117187976837158 45.849609375,0 46.259765625,0.468750476837158 46.259765625,3.31054735183716 45.849609375,3.77929735183716 37.32421875,3.66210985183716 14.70703125,3.66210985183716 6.181640625,3.77929735183716 5.712890625,3.31054735183716 5.712890625,0.468750476837158 6.181640625,0z" />
    </g>
  </g>
</svg>