<?xml version="1.0" encoding="utf-8"?>
<!DOCTYPE svg PUBLIC "-//W3C//DTD SVG 1.1//EN" "http://www.w3.org/Graphics/SVG/1.1/DTD/svg11.dtd">
<svg width="52.32421875" height="51.796875" xmlns="http://www.w3.org/2000/svg" xmlns:xlink="http://www.w3.org/1999/xlink" xmlns:xml="http://www.w3.org/XML/1998/namespace" version="1.1">
  <g>
    <g>
      <path style="fill:#FF0000;fill-opacity:1" d="M5.15625,28.359375L45.380859375,28.359375 45.380859375,31.201171875 31.201171875,35.1708984375 24.3859844207764,37.459716796875 18.5302734375,39.7265625 13.828125,41.846923828125 10.4736328125,43.6962890625 8.38623046875,45.09521484375 7.4853515625,45.8642578125 7.177734375,46.81640625 7.6318359375,47.958984375 9.140625,48.486328125 16.7578125,48.75 23.6206035614014,48.85986328125 31.083984375,48.896484375 35.2340698242188,48.8882446289063 38.602294921875,48.863525390625 41.1886596679688,48.8223266601563 42.9931640625,48.7646484375 45.4028282165527,48.380126953125 46.9775390625,47.490234375 47.555233001709,46.695556640625 48.1310997009277,45.4541015625 48.705135345459,43.765869140625 49.27734375,41.630859375 52.1484375,43.125 50.9033164978027,47.05810546875 49.27734375,49.658203125 47.2412071228027,51.134033203125 44.765625,51.6943359375 43.1304931640625,51.7391967773438 40.92041015625,51.771240234375 38.1353759765625,51.7904663085938 34.775390625,51.796875 17.4169921875,51.650390625 13.5443105697632,51.5689086914063 10.5834951400757,51.470947265625 8.53454494476318,51.3565063476563 7.3974609375,51.2255859375 6.123046875,50.712890625 5.0244140625,49.7314453125 4.266357421875,48.416748046875 4.013671875,46.904296875 4.27734375,45.435791015625 5.068359375,44.0771484375 6.8408203125,42.564697265625 10.048828125,40.634765625 14.564208984375,38.408203125 20.2587890625,36.005859375 26.766357421875,33.5595703125 33.720703125,31.201171875 5.15625,31.201171875 5.15625,28.359375z M9.2578125,8.3203125L18.36181640625,10.52490234375 27.861328125,13.564453125 26.396484375,16.376953125 17.021484375,13.3740234375 7.998046875,11.162109375 9.2578125,8.3203125z M13.623046875,0.410156011581421L22.5952129364014,2.79785132408142 31.46484375,5.91796875 30,8.759765625 26.1694316864014,7.1722412109375 21.9433574676514,5.69091796875 17.3217754364014,4.3157958984375 12.3046875,3.04687523841858 13.623046875,0.410156011581421z M36.6796875,0L40.01953125,0 40.01953125,18.486328125 52.1484375,17.8125 52.32421875,20.68359375 40.01953125,21.357421875 40.01953125,26.513671875 36.6796875,26.513671875 36.6796875,21.591796875 0.1171875,23.466796875 0,20.625 36.6796875,18.662109375 36.6796875,0z" />
    </g>
  </g>
</svg>