<?xml version="1.0" encoding="utf-8"?>
<!DOCTYPE svg PUBLIC "-//W3C//DTD SVG 1.1//EN" "http://www.w3.org/Graphics/SVG/1.1/DTD/svg11.dtd">
<svg width="52.03125" height="52.119140625" xmlns="http://www.w3.org/2000/svg" xmlns:xlink="http://www.w3.org/1999/xlink" xmlns:xml="http://www.w3.org/XML/1998/namespace" version="1.1">
  <g>
    <g>
      <path style="fill:#FF0000;fill-opacity:1" d="M0.527344226837158,48.45703125L8.525390625,48.57421875 43.330078125,48.57421875 51.298828125,48.45703125 51.826171875,48.984375 51.826171875,51.591796875 51.298828125,52.119140625 43.330078125,52.001953125 8.525390625,52.001953125 0.527344226837158,52.119140625 0,51.591796875 0,48.984375 0.527344226837158,48.45703125z M7.03125,36.826171875L15.46875,36.943359375 36.298828125,36.943359375 44.765625,36.826171875 45.29296875,37.353515625 45.29296875,39.78515625 44.765625,40.3125 36.298828125,40.1953125 15.46875,40.1953125 7.03125,40.3125 6.474609375,39.78515625 6.474609375,37.353515625 7.03125,36.826171875z M9.78515625,16.845703125L11.7919921875,17.38037109375 13.06640625,17.8125 13.798828125,18.603515625 13.330078125,19.423828125 12.73681640625,20.1709003448486 12.1875,21.357421875 8.525390625,28.740234375 14.58984375,28.16162109375 19.248046875,27.59765625 16.494140625,24.111328125 16.318359375,23.7890625 16.611328125,23.466796875 18.10546875,22.55859375 18.486328125,22.44140625 19.013671875,22.734375 22.5146465301514,26.97509765625 25.341796875,31.318359375 25.4296875,31.640625 25.078125,32.080078125 23.232421875,33.22265625 22.8515625,33.369140625 22.5,33.046875 21.5551738739014,31.2744140625 20.888671875,30.1171875 5.0390625,32.16796875 3.54492139816284,32.34375 2.6953125,32.63671875 1.93359375,32.87109375 1.376953125,32.2265625 0.974121153354645,30.79833984375 0.527344226837158,28.916015625 2.49023389816284,28.974609375 3.53759717941284,28.9599609375 4.98046875,28.916015625 7.12646484375,24.7119159698486 8.701171875,20.947265625 9.41162014007568,18.5888671875 9.78515625,16.845703125z M35.712890625,16.494140625L37.7197265625,17.01416015625 38.994140625,17.4609375 39.7265625,18.1640625 39.2578125,19.013671875 38.75244140625,19.6728534698486 38.115234375,20.947265625 36.123046875,25.2246112823486 34.306640625,28.740234375 45.52734375,27.59765625 42.71484375,24.052734375 42.5390625,23.759765625 42.890625,23.466796875 44.47265625,22.55859375 44.794921875,22.44140625 45.29296875,22.734375 48.8525352478027,27.09228515625 51.9140625,31.669921875 52.03125,31.9921875 51.650390625,32.40234375 49.74609375,33.544921875 49.39453125,33.69140625 49.013671875,33.369140625 47.16796875,30.05859375 39.32373046875,31.259765625 31.083984375,32.16796875 29.6337890625,32.373046875 28.740234375,32.63671875 27.94921875,32.87109375 27.421875,32.2265625 27.0043926239014,30.79833984375 26.572265625,28.916015625 28.7109375,28.9453125 30.791015625,28.916015625 33.05419921875,24.3383808135986 34.62890625,20.5078125 35.33935546875,18.18603515625 35.712890625,16.494140625z M19.6875,0L21.6943340301514,0.578616142272949 23.02734375,1.025390625 23.6645488739014,1.34765911102295 23.876953125,1.787109375 23.203125,2.69531273841858 22.4780254364014,3.486328125 21.591796875,4.86328125 17.4609375,11.396484375 37.91015625,10.37109375 35.5517578125,8.54736328125 32.51953125,6.41601610183716 32.255859375,6.12304735183716 32.51953125,5.83007860183716 34.39453125,4.5703125 34.8046875,4.39453125 35.21484375,4.5703125 41.59423828125,9.228515625 47.724609375,14.765625 47.9296875,15.1171875 47.63671875,15.46875 45.673828125,17.05078125 45.29296875,17.255859375 44.94140625,17.021484375 42.56103515625,14.59716796875 40.869140625,12.94921875 26.6455078125,14.01123046875 11.748046875,14.736328125 8.79638576507568,14.96337890625 7.20703125,15.3515625 6.416015625,15.5859375 6.123046875,15.38818359375 5.830078125,14.794921875 5.47119140625,13.447265625 5.0390625,11.396484375 9.84375,11.6015625 11.220703125,11.572265625 13.447265625,11.513671875 16.0546875,7.6318359375 18.544921875,3.19335889816284 19.6875,0z" />
    </g>
  </g>
</svg>