<?xml version="1.0" encoding="utf-8"?>
<!DOCTYPE svg PUBLIC "-//W3C//DTD SVG 1.1//EN" "http://www.w3.org/Graphics/SVG/1.1/DTD/svg11.dtd">
<svg width="52.734375" height="52.001953125" xmlns="http://www.w3.org/2000/svg" xmlns:xlink="http://www.w3.org/1999/xlink" xmlns:xml="http://www.w3.org/XML/1998/namespace" version="1.1">
  <g>
    <g>
      <path style="fill:#FF0000;fill-opacity:1" d="M37.119140625,23.37890625L39.78515625,28.06640625 41.865234375,32.578125 39.287109375,33.896484375 37.08984375,28.9892578125 34.541015625,24.521484375 37.119140625,23.37890625z M31.142578125,21.474609375L30.87158203125,24.3365478515625 30.52734375,27.64892578125 30.10986328125,31.4117431640625 29.619140625,35.625 44.736328125,35.625 45.64453125,21.474609375 31.142578125,21.474609375z M38.14453125,6.474609375L40.72265625,11.35986328125 42.36328125,15.29296875 39.90234375,16.494140625 37.6611328125,11.62353515625 35.56640625,7.734375 38.14453125,6.474609375z M32.63671875,4.599609375L31.494140625,18.45703125 45.8203125,18.45703125 46.2231407165527,10.90576171875 46.318359375,4.599609375 32.63671875,4.599609375z M29.82421875,1.669921875L49.482421875,1.669921875 49.2919883728027,9.66064453125 48.955078125,18.45703125 52.5,18.45703125 52.5,21.474609375 48.837890625,21.474609375 47.87109375,35.625 52.001953125,35.625 52.001953125,38.759765625 47.4609375,38.759765625 47.1203575134277,41.026611328125 46.4501953125,42.8466796875 45.4943809509277,44.1796875 44.296875,44.9853515625 42.5537109375,45.391845703125 39.9609375,45.52734375 36.533203125,45.41015625 35.5078125,42.48046875 38.37890625,42.59765625 40.810546875,42.5244140625 42.3046875,42.3046875 43.20556640625,41.79931640625 43.857421875,40.869140625 44.384765625,38.759765625 26.044921875,38.759765625 26.7974834442139,33.076171875 27.3852519989014,28.30078125 27.8082256317139,24.43359375 28.06640625,21.474609375 24.78515625,21.474609375 24.78515625,18.45703125 28.30078125,18.45703125 28.648681640625,15.4083251953125 29.0185546875,11.59423828125 29.410400390625,7.0147705078125 29.82421875,1.669921875z M12.216796875,0L15.3515625,0 15.3515625,13.681640625 23.759765625,10.4296875 23.7853984832764,16.845703125 23.6865234375,24.609375 23.5876445770264,28.3786010742188 23.4521465301514,31.248779296875 23.2800273895264,33.2199096679688 23.0712890625,34.2919921875 21.650390625,36.298828125 20.3832988739014,36.8701171875 18.515625,37.060546875 17.197265625,36.943359375 16.201171875,33.837890625 17.9296875,34.013671875 19.4384765625,33.72802734375 20.2734375,32.87109375 20.390625,32.3410034179688 20.4931621551514,31.322021484375 20.5810527801514,29.8141479492188 20.6542949676514,27.8173828125 20.7128887176514,25.3317260742188 20.7568340301514,22.357177734375 20.7861328125,18.8937377929688 20.80078125,14.94140625 15.3515625,16.904296875 15.3515625,41.337890625 12.216796875,41.337890625 12.216796875,18.1640625 7.32421875,19.98046875 7.32421875,45.703125 7.965087890625,47.794189453125 9.8876953125,48.6767578125 11.0222625732422,48.7419891357422 13.1442260742188,48.7985229492188 16.2535858154297,48.8463592529297 20.350341796875,48.885498046875 25.4344940185547,48.9159393310547 31.5060424804688,48.9376831054688 38.5649871826172,48.9507293701172 46.611328125,48.955078125 47.8179893493652,48.6163330078125 48.7719688415527,47.60009765625 49.4732627868652,45.9063720703125 49.921875,43.53515625 52.734375,44.8828125 51.9982872009277,48.035888671875 50.8447265625,50.1708984375 49.1748008728027,51.416015625 46.8896484375,51.8994140625 45.0961303710938,51.9442749023438 42.308349609375,51.976318359375 38.5263061523438,51.9955444335938 33.75,52.001953125 28.5708618164063,51.998291015625 24.005126953125,51.9873046875 20.0527954101563,51.968994140625 16.7138671875,51.943359375 13.9883422851563,51.910400390625 11.876220703125,51.8701171875 10.3775024414063,51.822509765625 9.4921875,51.767578125 7.3828125,51.2109375 5.68359375,50.009765625 4.56298828125,48.15673828125 4.18945264816284,45.64453125 4.18945264816284,21.123046875 0.937499523162842,22.294921875 0,19.306640625 4.18945264816284,17.8125 4.18945264816284,5.74218654632568 7.32421875,5.74218654632568 7.32421875,16.611328125 12.216796875,14.736328125 12.216796875,0z" />
    </g>
  </g>
</svg>