<?xml version="1.0" encoding="utf-8"?>
<!DOCTYPE svg PUBLIC "-//W3C//DTD SVG 1.1//EN" "http://www.w3.org/Graphics/SVG/1.1/DTD/svg11.dtd">
<svg width="53.3203125000003" height="52.55859375" xmlns="http://www.w3.org/2000/svg" xmlns:xlink="http://www.w3.org/1999/xlink" xmlns:xml="http://www.w3.org/XML/1998/namespace" version="1.1">
  <g>
    <g>
      <path style="fill:#FF0000;fill-opacity:1" d="M12.48046875,12.626953125L12.94921875,12.94921875 15.6298828125,17.27783203125 17.8125,22.177734375 17.9296875,22.587890625 17.34375,23.0859375 15.673828125,23.759765625 14.853515625,23.96484375 14.47265625,23.5546875 12.3779296875,18.61083984375 9.90234375,14.384765625 9.78515625,14.0625 10.4296875,13.4765625 12.01171875,12.7734375 12.48046875,12.626953125z M41.89453125,10.1953125L44.00390625,10.92041015625 45.41015625,11.513671875 46.083984375,12.158203125 45.498046875,13.0078125 45.0952110290527,13.48388671875 44.53125,14.443359375 39.43359375,23.4375 38.98681640625,24.0307636260986 38.701171875,24.228515625 37.734375,23.818359375 35.44921875,23.02734375 38.64990234375,18.0615234375 41.103515625,12.83203125 41.89453125,10.1953125z M41.923828125,0L45,2.138671875 45.52734375,3.046875 45.1831016540527,3.59619140625 44.150390625,3.89648389816284 42.98583984375,4.1162109375 40.60546875,4.71679639816284 35.19287109375,6.14501953125 29.384765625,7.3828125 29.384765625,26.689453125 45.1171875,26.689453125 52.8515625,26.572265625 53.3203125,27.041015625 53.3203125,29.94140625 52.8515625,30.41015625 45.1171875,30.29296875 29.384765625,30.29296875 29.384765625,38.37890625 29.501953125,46.728515625 29.384765625,48.603515625 29.033203125,49.951171875 27.7734375,51.474609375 26.7150859832764,51.9488525390625 25.1513652801514,52.28759765625 23.0822734832764,52.4908447265625 20.5078125,52.55859375 19.130859375,52.55859375 17.98828125,52.3828125 17.63671875,51.357421875 17.07275390625,49.76806640625 16.435546875,48.57421875 21.650390625,48.837890625 23.7670879364014,48.68408203125 24.9609375,48.22265625 25.4443340301514,47.373046875 25.60546875,45.9375 25.60546875,30.29296875 8.14453125,30.29296875 0.46875,30.41015625 0,29.94140625 0,27.041015625 0.46875,26.572265625 8.14453125,26.689453125 25.60546875,26.689453125 25.60546875,8.02734375 21.837158203125,8.61328125 17.6220703125,9.169921875 12.960205078125,9.697265625 7.8515625,10.1953125 7.265625,10.224609375 6.7236328125,9.9462890625 6.26953125,9.111328125 4.951171875,6.767578125 14.3939199447632,6.0791015625 23.03466796875,5.009765625 30.8734130859375,3.5595703125 37.91015625,1.72851538658142 40.26123046875,0.886233329772949 41.923828125,0z" />
    </g>
  </g>
</svg>