<?xml version="1.0" encoding="utf-8"?>
<!DOCTYPE svg PUBLIC "-//W3C//DTD SVG 1.1//EN" "http://www.w3.org/Graphics/SVG/1.1/DTD/svg11.dtd">
<svg width="38.349609375" height="40.3125" xmlns="http://www.w3.org/2000/svg" xmlns:xlink="http://www.w3.org/1999/xlink" xmlns:xml="http://www.w3.org/XML/1998/namespace" version="1.1">
  <g>
    <g>
      <path style="fill:#FF0000;fill-opacity:1" d="M0,0L4.658203125,0 5.27343797683716,4.62890625 5.39062452316284,4.62890625 6.4453125,2.75390625 7.6904296875,1.2890625 9.375,0.3369140625 11.689453125,0 14.1796875,0.52734375 15.8349609375,1.9921875 16.7578125,4.189453125 17.05078125,6.9140625 17.05078125,17.87109375 17.5396728515625,22.0111083984375 19.00634765625,24.96826171875 21.4508056640625,26.7425537109375 24.873046875,27.333984375 28.4033203125,26.66015625 31.142578125,24.755859375 32.9150390625,21.796875 33.544921875,17.98828125 33.544921875,0.703125 38.349609375,0.703125 38.349609375,30.703125 38.1591796875,33.182373046875 37.587890625,35.2294921875 35.5224609375,38.1884765625 32.4755859375,39.814453125 28.76953125,40.3125 26.7773418426514,40.17333984375 25.3125,39.755859375 25.3125,35.44921875 26.77734375,36.03515625 28.4765625,36.2109375 30.6591796875,35.91796875 32.255859375,34.9658203125 33.22265625,33.2666015625 33.544921875,30.703125 33.544921875,25.95703125 33.427734375,25.95703125 31.629638671875,28.3538818359375 29.3994140625,30.06591796875 26.737060546875,31.0931396484375 23.642578125,31.435546875 20.9783935546875,31.2355041503906 18.66943359375,30.6353759765625 16.7156982421875,29.6351623535156 15.1171875,28.23486328125 13.8739013671875,26.4344787597656 12.98583984375,24.2340087890625 12.4530029296875,21.6334533691406 12.275390625,18.6328125 12.275390625,9.43359375 12.1472158432007,7.071533203125 11.7626953125,5.4345703125 10.9973134994507,4.47876119613647 9.7265625,4.16015625 8.37890625,4.599609375 7.2509765625,5.7421875 6.298828125,7.3681640625 5.5078125,9.2578125 1.201171875,9.2578125 0,0z" />
    </g>
  </g>
</svg>