<?xml version="1.0" encoding="utf-8"?>
<!DOCTYPE svg PUBLIC "-//W3C//DTD SVG 1.1//EN" "http://www.w3.org/Graphics/SVG/1.1/DTD/svg11.dtd">
<svg width="42.83203125" height="43.0078125" xmlns="http://www.w3.org/2000/svg" xmlns:xlink="http://www.w3.org/1999/xlink" xmlns:xml="http://www.w3.org/XML/1998/namespace" version="1.1">
  <g>
    <g>
      <path style="fill:#FF0000;fill-opacity:1" d="M25.634765625,22.177734375L29.4140625,22.177734375 27.01171875,33.3984375 26.7919921875,34.775390625 26.71875,36.181640625 26.9494609832764,37.657470703125 27.6416015625,38.8623046875 28.8098125457764,39.664306640625 30.46875,39.931640625 32.7392578125,39.462890625 34.4970703125,38.173828125 35.7568359375,36.2255859375 36.533203125,33.779296875 38.994140625,22.177734375 42.83203125,22.177734375 38.49609375,42.59765625 34.6875,42.59765625 35.33203125,39.375 35.21484375,39.375 33.687744140625,41.03759765625 32.0947265625,42.158203125 30.369873046875,42.79541015625 28.447265625,43.0078125 26.455078125,42.65625 24.66796875,41.513671875 23.3935546875,39.4775390625 22.91015625,36.4453125 23.0126953125,34.98046875 23.37890625,32.63671875 25.634765625,22.177734375z M35.9765625,0.5859375L40.3125,0.5859375 4.306640625,42.59765625 0,42.59765625 35.9765625,0.5859375z M13.30078125,0L16.36962890625,0.35888671875 18.779296875,1.435546875 17.87109375,5.33203125 15.4541015625,3.90380859375 12.890625,3.427734375 9.71923828125,4.1455078125 7.294921875,6.298828125 5.771484375,9.345703125 5.2734375,12.83203125 5.5535888671875,15.2545175552368 6.39404296875,16.9848651885986 7.7947998046875,18.0230731964111 9.755859375,18.369140625 12.4877920150757,17.7832050323486 15.703125,16.025390625 14.794921875,20.15625 11.9091787338257,21.32080078125 9.169921875,21.708984375 5.80078125,21.1083984375 3.32519602775574,19.3798828125 1.78710961341858,16.6552734375 1.259765625,13.06640625 1.46484375,10.3656005859375 2.080078125,7.91748046875 3.10546875,5.7220458984375 4.541015625,3.779296875 6.3409423828125,2.1258544921875 8.40087890625,0.94482421875 10.7208251953125,0.2362060546875 13.30078125,0z" />
    </g>
  </g>
</svg>