<?xml version="1.0" encoding="utf-8"?>
<!DOCTYPE svg PUBLIC "-//W3C//DTD SVG 1.1//EN" "http://www.w3.org/Graphics/SVG/1.1/DTD/svg11.dtd">
<svg width="22.2070312500005" height="43.59375" xmlns="http://www.w3.org/2000/svg" xmlns:xlink="http://www.w3.org/1999/xlink" xmlns:xml="http://www.w3.org/XML/1998/namespace" version="1.1">
  <g>
    <g>
      <path style="fill:#FF0000;fill-opacity:1" d="M15.205078125,0L18.10546875,0.615234375 20.302734375,2.490234375 21.708984375,5.625 22.20703125,10.01953125 22.20703125,28.76953125 21.650390625,32.0654296875 20.126953125,35.4345703125 17.8564453125,38.5693359375 15.0732421875,41.162109375 12.01171875,42.9345703125 8.876953125,43.59375 4.51171875,39.169921875 8.0859375,35.625 12.802734375,40.458984375 14.53125,39.228515625 15.966796875,37.4853515625 16.93359375,34.8193359375 17.197265625,33.021240234375 17.28515625,30.8203125 17.28515625,11.66015625 17.1826171875,8.61328125 16.552734375,5.947265625 14.94140625,4.0576171875 13.6376943588257,3.519287109375 11.89453125,3.33984375 8.994140625,3.9990234375 6.4306640625,5.6982421875 4.59960842132568,7.998046875 3.89648365974426,10.458984375 4.453125,11.9384765625 5.830078125,13.5205078125 7.6318359375,15.17578125 9.43359375,16.904296875 10.810546875,18.6767578125 11.3671875,20.478515625 11.0595703125,22.0166015625 10.078125,23.701171875 8.291015625,25.6494140625 5.595703125,27.94921875 4.39453125,26.77734375 5.771484375,25.4443359375 6.591796875,24.4921875 6.9873046875,23.73046875 7.08984375,22.96875 6.5625,21.4013671875 5.24413967132568,19.8779296875 3.54492163658142,18.369140625 1.84570264816284,16.787109375 0.527343273162842,15.1025390625 0,13.271484375 0.6005859375,10.986328125 2.24121069908142,8.1591796875 4.716796875,5.21484375 7.8515625,2.5927734375 11.42578125,0.7177734375 15.205078125,0z" />
    </g>
  </g>
</svg>