<?xml version="1.0" encoding="utf-8"?>
<!DOCTYPE svg PUBLIC "-//W3C//DTD SVG 1.1//EN" "http://www.w3.org/Graphics/SVG/1.1/DTD/svg11.dtd">
<svg width="41.66015625" height="42.919921875" xmlns="http://www.w3.org/2000/svg" xmlns:xlink="http://www.w3.org/1999/xlink" xmlns:xml="http://www.w3.org/XML/1998/namespace" version="1.1">
  <g>
    <g>
      <path style="fill:#FF0000;fill-opacity:1" d="M34.62890625,21.2109375L37.69775390625,21.56982421875 40.107421875,22.646484375 39.19921875,26.54296875 36.7822265625,25.11474609375 34.21875,24.638671875 31.07666015625,25.3564453125 28.623046875,27.509765625 27.1069316864014,30.54931640625 26.6015625,34.04296875 26.8817138671875,36.4654541015625 27.72216796875,38.19580078125 29.1229248046875,39.2340087890625 31.083984375,39.580078125 33.81591796875,38.994140625 37.03125,37.236328125 36.123046875,41.3671875 33.2373046875,42.53173828125 30.498046875,42.919921875 27.12890625,42.3193359375 24.6533203125,40.5908203125 23.115234375,37.8662109375 22.587890625,34.27734375 22.7929668426514,31.5765380859375 23.4082012176514,29.12841796875 24.4335918426514,26.9329833984375 25.869140625,24.990234375 27.6690673828125,23.3367919921875 29.72900390625,22.15576171875 32.0489501953125,21.4471435546875 34.62890625,21.2109375z M10.166015625,3.310546875L8.66454982757568,3.504638671875 7.3828125,4.0869140625 5.4345703125,6.1376953125 4.27734375,9.0234375 3.896484375,12.333984375 4.1455078125,15.1318359375 4.9072265625,17.0068359375 6.1669921875,18.046875 7.880859375,18.369140625 9.51782131195068,18.0908203125 10.9130859375,17.255859375 13.0224609375,14.5458984375 14.2529296875,11.1767578125 14.6484375,8.0859375 14.3408203125,6.181640625 13.4619140625,4.6728515625 12.0556640625,3.6767578125 10.166015625,3.310546875z M37.32421875,0.322265625L41.66015625,0.322265625 5.654296875,42.333984375 1.34765625,42.333984375 37.32421875,0.322265625z M10.224609375,0L11.9512939453125,0.208740234375 13.41064453125,0.8349609375 14.6026611328125,1.878662109375 15.52734375,3.33984375 15.64453125,3.33984375 16.2890625,0.322265625 20.068359375,0.322265625 15.908203125,21.03515625 12.099609375,21.03515625 12.71484375,17.841796875 12.59765625,17.841796875 11.16943359375,19.427490234375 9.638671875,20.5517578125 7.95410060882568,21.221923828125 6.064453125,21.4453125 3.603515625,20.91796875 1.6845703125,19.365234375 0.439453601837158,16.8310546875 0,13.359375 0.1904296875,10.6420907974243 0.76171875,8.115234375 2.8857421875,3.8818359375 4.376220703125,2.2705078125 6.123046875,1.0400390625 8.08593654632568,0.260009765625 10.224609375,0z" />
    </g>
  </g>
</svg>