<?xml version="1.0" encoding="utf-8"?>
<!DOCTYPE svg PUBLIC "-//W3C//DTD SVG 1.1//EN" "http://www.w3.org/Graphics/SVG/1.1/DTD/svg11.dtd">
<svg width="31.318359375" height="60.732421875" xmlns="http://www.w3.org/2000/svg" xmlns:xlink="http://www.w3.org/1999/xlink" xmlns:xml="http://www.w3.org/XML/1998/namespace" version="1.1">
  <g>
    <g>
      <path style="fill:#FF0000;fill-opacity:1" d="M4.92187452316284,34.365234375L4.92187452316284,46.376953125 9.0234375,34.365234375 4.92187452316284,34.365234375z M18.779296875,16.58203125L14.033203125,30.41015625 16.9921875,29.53125 19.306640625,27.7880859375 20.8154296875,25.283203125 21.357421875,22.119140625 20.7128887176514,18.87451171875 18.779296875,16.58203125z M4.92187452316284,14.970703125L4.92187452316284,30.498046875 10.341796875,30.498046875 15.556640625,15.234375 12.83203125,14.970703125 4.92187452316284,14.970703125z M6.44531202316284,0L22.587890625,5.53710985183716 20.419921875,11.8359375 22.9248046875,13.4033203125 24.84375,15.556640625 26.07421875,18.310546875 26.513671875,21.6796875 25.8544921875,25.7080078125 23.96484375,28.9892578125 21.005859375,31.46484375 17.138671875,33.017578125 17.138671875,33.134765625 18.984375,34.2333984375 20.4638671875,35.654296875 21.8408203125,37.529296875 23.37890625,39.931640625 31.318359375,52.529296875 25.4296875,52.529296875 18.3984375,40.78125 16.944580078125,38.56201171875 15.5712890625,36.826171875 14.154052734375,35.55908203125 12.568359375,34.74609375 3.66210889816284,60.732421875 0,60.732421875 2.81249952316284,52.529296875 0,52.529296875 0,10.517578125 13.7109375,10.517578125 15.439453125,10.5908203125 17.080078125,10.810546875 18.134765625,7.76367139816284 5.30273389816284,3.310546875 6.44531202316284,0z" />
    </g>
  </g>
</svg>