<?xml version="1.0" encoding="utf-8"?>
<!DOCTYPE svg PUBLIC "-//W3C//DTD SVG 1.1//EN" "http://www.w3.org/Graphics/SVG/1.1/DTD/svg11.dtd">
<svg width="32.138671875" height="42.01171875" xmlns="http://www.w3.org/2000/svg" xmlns:xlink="http://www.w3.org/1999/xlink" xmlns:xml="http://www.w3.org/XML/1998/namespace" version="1.1">
  <g>
    <g>
      <path style="fill:#FF0000;fill-opacity:1" d="M4.92187452316284,4.453125L4.92187452316284,19.6875 11.6015625,19.6875 15.0146484375,19.130859375 17.7392578125,17.5341796875 19.541015625,15 20.185546875,11.6015625 19.6398906707764,8.583984375 18.0029296875,6.328125 15.325927734375,4.921875 11.66015625,4.453125 4.92187452316284,4.453125z M0,0L12.5390625,0 17.607421875,0.703125 21.6650390625,2.7978515625 24.3603515625,6.2841796875 25.0964336395264,8.551025390625 25.341796875,11.162109375 24.6826171875,15.1904296875 22.79296875,18.4716796875 19.833984375,20.947265625 15.966796875,22.5 15.966796875,22.6171875 17.669677734375,23.587646484375 19.2626953125,24.9755859375 20.8557109832764,26.766357421875 22.55859375,28.9453125 27.24609375,22.646484375 32.138671875,22.646484375 24.990234375,32.255859375 32.138671875,42.01171875 26.572265625,42.01171875 22.177734375,36.03515625 17.724609375,42.01171875 12.802734375,42.01171875 19.716796875,32.724609375 17.9296875,30.263671875 15.791015625,27.5244140625 13.7841796875,25.6201171875 11.54296875,24.5068359375 8.701171875,24.140625 4.92187452316284,24.140625 4.92187452316284,42.01171875 0,42.01171875 0,0z" />
    </g>
  </g>
</svg>