<?xml version="1.0" encoding="utf-8"?>
<!DOCTYPE svg PUBLIC "-//W3C//DTD SVG 1.1//EN" "http://www.w3.org/Graphics/SVG/1.1/DTD/svg11.dtd">
<svg width="41.015625" height="40.634765625" xmlns="http://www.w3.org/2000/svg" xmlns:xlink="http://www.w3.org/1999/xlink" xmlns:xml="http://www.w3.org/XML/1998/namespace" version="1.1">
  <g>
    <g>
      <path style="fill:#FF0000;fill-opacity:1" d="M20.625,0L24.7787475585938,0.311279296875 28.509521484375,1.2451171875 31.8173217773438,2.801513671875 34.7021484375,4.98046875 37.0413208007813,7.61169481277466 38.712158203125,10.5249032974243 39.7146606445313,13.7200937271118 40.048828125,17.197265625 39.8410034179688,20.0253295898438 39.217529296875,22.650146484375 38.1784057617188,25.0717163085938 36.7236328125,27.2900390625 32.698974609375,30.889892578125 27.275390625,33.22265625 27.275390625,35.185546875 35.33203125,35.185546875 37.335205078125,34.98046875 38.7158203125,34.365234375 39.561767578125,33.22998046875 39.9609375,31.46484375 41.015625,31.46484375 41.015625,40.634765625 24.638671875,40.634765625 25.283203125,31.787109375 28.3520488739014,30.146484375 30.76171875,27.392578125 32.32177734375,23.34228515625 32.841796875,17.8125 32.6138305664063,14.3014535903931 31.929931640625,11.2097187042236 30.7901000976563,8.53729343414307 29.1943359375,6.2841796875 27.2817974090576,4.49615478515625 25.1916484832764,3.218994140625 22.9238872528076,2.45269775390625 20.478515625,2.197265625 17.40234375,2.625732421875 14.501953125,3.9111328125 11.9567861557007,6.090087890625 9.9462890625,9.19921875 8.638916015625,13.0371112823486 8.203125,17.40234375 8.408203125,20.745849609375 9.0234375,23.9794921875 10.045166015625,26.817626953125 11.4697265625,28.974609375 13.3410634994507,30.5859375 15.703125,31.787109375 16.376953125,40.634765625 0,40.634765625 0,31.46484375 1.05468773841858,31.46484375 1.50146496295929,33.28857421875 2.54882860183716,34.541015625 3.80859375,35.0244140625 5.830078125,35.185546875 13.740234375,35.185546875 13.740234375,33.22265625 9.66796875,31.73583984375 5.88867139816284,28.974609375 3.76098608970642,26.5411376953125 2.2412109375,23.78173828125 1.32934582233429,20.6964111328125 1.02539086341858,17.28515625 1.36505138874054,13.8290414810181 2.384033203125,10.6384286880493 4.08233642578125,7.71331834793091 6.4599609375,5.0537109375 9.38323974609375,2.84271240234375 12.718505859375,1.263427734375 16.4657592773438,0.31585693359375 20.625,0z" />
    </g>
  </g>
</svg>