<?xml version="1.0" encoding="utf-8"?>
<!DOCTYPE svg PUBLIC "-//W3C//DTD SVG 1.1//EN" "http://www.w3.org/Graphics/SVG/1.1/DTD/svg11.dtd">
<svg width="25.224609375" height="40.458984375" xmlns="http://www.w3.org/2000/svg" xmlns:xlink="http://www.w3.org/1999/xlink" xmlns:xml="http://www.w3.org/XML/1998/namespace" version="1.1">
  <g>
    <g>
      <path style="fill:#FF0000;fill-opacity:1" d="M21.09375,0L24.43359375,0 25.224609375,1.728515625 24.31640625,4.2919921875 23.5546875,7.412109375 18.720703125,29.736328125 17.5634765625,33.5595703125 15.849609375,36.4892578125 13.154296875,38.759765625 10.078125,40.107421875 7.11914014816284,40.458984375 5.00976514816284,40.147705078125 3.13476538658142,39.2138671875 1.47216773033142,37.642822265625 0,35.419921875 3.984375,33.134765625 5.19287061691284,35.247802734375 6.35742139816284,36.7236328125 7.55859279632568,37.591552734375 8.876953125,37.880859375 10.283203125,37.6025390625 11.5576171875,36.50390625 12.5537109375,34.189453125 13.0480947494507,32.23388671875 13.681640625,29.35546875 17.548828125,10.693359375 18.80859375,6.591796875 19.6142578125,4.89990234375 20.390625,3.75 20.33203125,3.45703125 16.058349609375,3.56689453125 12.9638671875,3.896484375 10.810546875,4.48974609375 9.3603515625,5.390625 8.536376953125,6.6796875 8.26171875,8.4375 8.51806640625,10.0927753448486 9.287109375,12.0703125 4.77538967132568,13.828125 3.85253882408142,11.8505859375 3.57421851158142,9.814453125 4.1162109375,7.6611328125 4.85229444503784,6.492919921875 5.97656202316284,5.244140625 7.69042921066284,3.779296875 9.78515625,2.373046875 13.30078125,0.7763671875 16.9921875,0.1171875 18.69140625,0.029296875 21.09375,0z" />
    </g>
  </g>
</svg>