<?xml version="1.0" encoding="utf-8"?>
<!DOCTYPE svg PUBLIC "-//W3C//DTD SVG 1.1//EN" "http://www.w3.org/Graphics/SVG/1.1/DTD/svg11.dtd">
<svg width="32.75390625" height="43.447265625" xmlns="http://www.w3.org/2000/svg" xmlns:xlink="http://www.w3.org/1999/xlink" xmlns:xml="http://www.w3.org/XML/1998/namespace" version="1.1">
  <g>
    <g>
      <path style="fill:#FF0000;fill-opacity:1" d="M8.203125,8.818359375L6.273193359375,11.4331064224243 4.8193359375,14.53125 3.907470703125,18.1420917510986 3.60351538658142,22.294921875 3.900146484375,26.19873046875 4.79004001617432,29.6484375 6.236572265625,32.64404296875 8.203125,35.185546875 8.203125,8.818359375z M22.3828125,0L28.037109375,0.38818359375 32.75390625,1.552734375 32.75390625,5.068359375 30.41015625,4.16015625 27.861328125,3.5302734375 25.2099609375,3.1787109375 22.6171875,3.076171875 19.4677734375,3.27392578125 16.46484375,3.8671875 13.6669921875,4.87060546875 11.1328125,6.298828125 11.1328125,37.5 16.2890625,39.638671875 22.6171875,40.37109375 27.9638671875,39.697265625 32.75390625,37.705078125 32.75390625,41.220703125 27.4658203125,42.890625 20.7421875,43.447265625 16.22314453125,43.08837890625 12.158203125,42.01171875 8.60595703125,40.26123046875 5.625,37.880859375 3.23730444908142,34.892578125 1.46484398841858,31.318359375 0.366210967302322,27.20947265625 0,22.6171875 0.410156279802322,17.7978534698486 1.64062523841858,13.41796875 3.614501953125,9.55078125 6.2548828125,6.26953125 9.51415920257568,3.6181640625 13.3447265625,1.640625 17.662353515625,0.41015625 22.3828125,0z" />
    </g>
  </g>
</svg>