<?xml version="1.0" encoding="utf-8"?>
<!DOCTYPE svg PUBLIC "-//W3C//DTD SVG 1.1//EN" "http://www.w3.org/Graphics/SVG/1.1/DTD/svg11.dtd">
<svg width="59.12109375" height="59.0625" xmlns="http://www.w3.org/2000/svg" xmlns:xlink="http://www.w3.org/1999/xlink" xmlns:xml="http://www.w3.org/XML/1998/namespace" version="1.1">
  <g>
    <g>
      <path style="fill:#FF0000;fill-opacity:1" d="M29.53125,3.6328125L26.0266094207764,3.856201171875 22.6611328125,4.52636766433716 16.494140625,7.060546875 11.25,11.0302734375 7.177734375,16.2451171875 5.672607421875,19.251708984375 4.5556640625,22.5 3.86352515220642,25.9497089385986 3.6328125,29.560546875 3.86718726158142,33.189697265625 4.5703125,36.6357421875 5.6982421875,39.869384765625 7.20703125,42.861328125 11.2939453125,48.0615234375 16.552734375,52.03125 22.7197265625,54.5654296875 26.0705547332764,55.235595703125 29.53125,55.458984375 32.991943359375,55.235595703125 36.3427734375,54.5654296875 42.5244140625,52.03125 47.7978515625,48.0615234375 51.8994140625,42.861328125 53.4191856384277,39.86572265625 54.55078125,36.62109375 55.2539024353027,33.17138671875 55.48828125,29.560546875 55.2539024353027,25.9497089385986 54.55078125,22.5 53.4228477478027,19.251708984375 51.9140625,16.2451171875 47.841796875,11.0302734375 42.5830078125,7.060546875 36.38671875,4.52636766433716 33.017578125,3.856201171875 29.53125,3.6328125z M29.53125,0L33.603515625,0.256350636482239 37.5,1.02539086341858 41.1767578125,2.27051067352295 44.58984375,3.95507764816284 47.7209434509277,6.0498046875 50.5517578125,8.525390625 53.0383262634277,11.348876953125 55.13671875,14.4873046875 56.8249473571777,17.911376953125 58.0810546875,21.591796875 58.8610801696777,25.4882831573486 59.12109375,29.560546875 58.8610801696777,33.6328125 58.0810546875,37.529296875 56.8249473571777,41.2060546875 55.13671875,44.619140625 53.0383262634277,47.74658203125 50.5517578125,50.56640625 47.7209434509277,53.038330078125 44.58984375,55.1220703125 41.1767578125,56.795654296875 37.5,58.037109375 33.603515625,58.80615234375 29.53125,59.0625 25.4626445770264,58.80615234375 21.5771484375,58.037109375 17.911376953125,56.795654296875 14.501953125,55.1220703125 11.370849609375,53.038330078125 8.5400390625,50.56640625 6.05712890625,47.74658203125 3.9697265625,44.619140625 2.29247999191284,41.2060546875 1.04003858566284,37.529296875 0.260009706020355,33.6328125 0,29.560546875 0.260009706020355,25.4882831573486 1.04003858566284,21.591796875 2.29247999191284,17.911376953125 3.9697265625,14.4873046875 6.05712890625,11.348876953125 8.5400390625,8.525390625 11.370849609375,6.0498046875 14.501953125,3.95507764816284 17.911376953125,2.27051067352295 21.5771484375,1.02539086341858 25.4626445770264,0.256350636482239 29.53125,0z" />
    </g>
  </g>
</svg>