<?xml version="1.0" encoding="utf-8"?>
<!DOCTYPE svg PUBLIC "-//W3C//DTD SVG 1.1//EN" "http://www.w3.org/Graphics/SVG/1.1/DTD/svg11.dtd">
<svg width="43.4765625" height="43.447265625" xmlns="http://www.w3.org/2000/svg" xmlns:xlink="http://www.w3.org/1999/xlink" xmlns:xml="http://www.w3.org/XML/1998/namespace" version="1.1">
  <g>
    <g>
      <path style="fill:#FF0000;fill-opacity:1" d="M23.5546875,23.525390625L23.5546875,39.7265625 26.6564922332764,39.144287109375 29.5751953125,38.0419921875 32.23388671875,36.48193359375 34.5556640625,34.5263671875 36.51123046875,32.208251953125 38.0712890625,29.560546875 39.173583984375,26.6455078125 39.755859375,23.525390625 23.5546875,23.525390625z M21.708984375,3.6328125L18.072509765625,3.988037109375 14.6630859375,5.0537109375 11.57958984375,6.734619140625 8.9208984375,8.935546875 6.73095703125,11.6052255630493 5.0537109375,14.6923828125 3.98803687095642,18.1018085479736 3.6328125,21.73828125 4.2041015625,26.2939453125 5.8154296875,30.3955078125 8.3349609375,33.9404296875 11.630859375,36.767578125 15.5419921875,38.7451171875 19.921875,39.7265625 19.921875,19.892578125 39.755859375,19.892578125 39.10400390625,16.5783710479736 37.8515625,13.4912109375 36.082763671875,10.7153329849243 33.8818359375,8.3349609375 31.2890625,6.383056640625 28.3447265625,4.892578125 25.1257305145264,3.94775390625 21.708984375,3.6328125z M21.708984375,0L24.6459941864014,0.194091796875 27.48046875,0.7763671875 32.6806640625,2.9736328125 37.08984375,6.3720703125 40.5029296875,10.7666015625 42.7001953125,15.966796875 43.282470703125,18.80126953125 43.4765625,21.73828125 43.282470703125,24.693603515625 42.7001953125,27.5244140625 40.5029296875,32.7099609375 37.08984375,37.1044921875 32.6806640625,40.48828125 27.48046875,42.6708984375 24.6459941864014,43.253173828125 21.708984375,43.447265625 18.753662109375,43.253173828125 15.9228515625,42.6708984375 10.7373046875,40.48828125 6.3427734375,37.1044921875 2.958984375,32.7099609375 0.776367664337158,27.509765625 0.194091856479645,24.67529296875 0,21.73828125 0.194091856479645,18.80126953125 0.776367664337158,15.966796875 2.958984375,10.7666015625 6.3427734375,6.3720703125 10.7373046875,2.9736328125 15.9375,0.7763671875 18.77197265625,0.194091796875 21.708984375,0z" />
    </g>
  </g>
</svg>