<?xml version="1.0" encoding="utf-8"?>
<!DOCTYPE svg PUBLIC "-//W3C//DTD SVG 1.1//EN" "http://www.w3.org/Graphics/SVG/1.1/DTD/svg11.dtd">
<svg width="31.640625" height="42.59765625" xmlns="http://www.w3.org/2000/svg" xmlns:xlink="http://www.w3.org/1999/xlink" xmlns:xml="http://www.w3.org/XML/1998/namespace" version="1.1">
  <g>
    <g>
      <path style="fill:#FF0000;fill-opacity:1" d="M12.919921875,24.580078125L9.3603515625,25.13671875 6.8701171875,26.689453125 5.4052734375,29.033203125 4.92187452316284,31.962890625 5.2587890625,34.62890625 6.26953125,36.6796875 7.96875,38.0126953125 10.400390625,38.49609375 11.8029775619507,38.25439453125 12.7294921875,37.529296875 13.2458486557007,36.33544921875 13.41796875,34.6875 13.41796875,24.580078125 12.919921875,24.580078125z M13.41796875,0L18.33984375,0 18.33984375,20.478515625 19.16015625,20.478515625 22.0275859832764,20.6689453125 24.5361328125,21.240234375 28.447265625,23.4228515625 29.835205078125,24.993896484375 30.8349609375,26.865234375 31.439208984375,29.00390625 31.640625,31.376953125 31.314697265625,34.482421875 30.3369140625,37.294921875 28.6926250457764,39.80712890625 26.3671875,42.01171875 20.68359375,42.01171875 23.3239727020264,39.825439453125 25.2099609375,37.4267578125 26.3415508270264,34.822998046875 26.71875,32.021484375 26.2939453125,29.0478515625 24.9462890625,26.689453125 22.55859375,25.13671875 19.04296875,24.580078125 18.33984375,24.580078125 18.33984375,34.892578125 17.830810546875,38.18115234375 16.3037109375,40.60546875 13.817138671875,42.099609375 10.4296875,42.59765625 6.26953125,41.8798828125 2.9736328125,39.78515625 0.791015863418579,36.4013671875 0.197753936052322,34.251708984375 0,31.81640625 0.22705078125,29.5166015625 0.908203125,27.36328125 2.010498046875,25.42236328125 3.5009765625,23.759765625 7.55859375,21.357421875 10.0707998275757,20.6982421875 12.861328125,20.478515625 13.41796875,20.478515625 13.41796875,0z" />
    </g>
  </g>
</svg>