<?xml version="1.0" encoding="utf-8"?>
<!DOCTYPE svg PUBLIC "-//W3C//DTD SVG 1.1//EN" "http://www.w3.org/Graphics/SVG/1.1/DTD/svg11.dtd">
<svg width="24.78515625" height="32.75390625" xmlns="http://www.w3.org/2000/svg" xmlns:xlink="http://www.w3.org/1999/xlink" xmlns:xml="http://www.w3.org/XML/1998/namespace" version="1.1">
  <g>
    <g>
      <path style="fill:#FF0000;fill-opacity:1" d="M11.396484375,3.896484375L9.17724609375,4.21875143051147 7.5,5.185546875 6.4453125,6.70166158676147 6.09375,8.671875 6.52587890625,10.927734375 7.822265625,12.59765625 9.91699123382568,13.63037109375 12.744140625,13.974609375 16.259765625,13.974609375 16.259765625,17.724609375 12.48046875,17.724609375 9.2120361328125,18.06884765625 6.87744140625,19.1015625 5.4766845703125,20.82275390625 5.009765625,23.232421875 5.438232421875,25.609130859375 6.7236328125,27.4072265625 8.778076171875,28.538818359375 11.513671875,28.916015625 13.465576171875,28.714599609375 15.1611328125,28.1103515625 17.7685546875,25.751953125 19.3212890625,21.943359375 19.833984375,16.787109375 19.2919921875,11.4404296875 17.6953125,7.3828125 16.5087890625,5.90332174301147 15.05859375,4.8046875 13.35205078125,4.12353658676147 11.396484375,3.896484375z M11.396484375,0L14.300537109375,0.307617902755737 16.9189453125,1.23046875 19.21142578125,2.69531393051147 21.1376953125,4.62890625 22.6831035614014,7.00195455551147 23.8330078125,9.78515625 24.5471172332764,12.9052734375 24.78515625,16.2890625 24.5727519989014,19.932861328125 23.935546875,23.1884765625 22.8808574676514,26.015625 21.416015625,28.3740234375 19.54833984375,30.2490234375 17.28515625,31.6259765625 14.64111328125,32.471923828125 11.630859375,32.75390625 6.708984375,32.1240234375 3.046875,30.263671875 0.776366949081421,27.2314453125 0.194091767072678,25.294189453125 0,23.0859375 0.424804925918579,20.4638671875 1.6259765625,18.2666015625 3.515625,16.5673828125 6.005859375,15.46875 3.8525390625,14.1357421875 2.314453125,12.3486328125 1.39160180091858,10.3125 1.08398413658142,8.26171875 1.81640625,4.6875 3.896484375,2.0947265625 7.1484375,0.52734375 11.396484375,0z" />
    </g>
  </g>
</svg>