<?xml version="1.0" encoding="utf-8"?>
<!DOCTYPE svg PUBLIC "-//W3C//DTD SVG 1.1//EN" "http://www.w3.org/Graphics/SVG/1.1/DTD/svg11.dtd">
<svg width="17.6953125" height="32.2265625" xmlns="http://www.w3.org/2000/svg" xmlns:xlink="http://www.w3.org/1999/xlink" xmlns:xml="http://www.w3.org/XML/1998/namespace" version="1.1">
  <g>
    <g>
      <path style="fill:#FF0000;fill-opacity:1" d="M7.763671875,3.779296875L6.54052734375,4.05395650863647 5.56640625,4.8779296875 4.92919921875,6.14868307113647 4.716796875,7.763671875 5.2880859375,10.5322265625 6.9287109375,12.7734375 9.5068359375,14.35546875 12.890625,15.146484375 12.4035634994507,10.17333984375 11.4111328125,6.62109375 9.876708984375,4.48974752426147 7.763671875,3.779296875z M7.91015625,0L10.4003896713257,0.285645246505737 12.48046875,1.142578125 14.176025390625,2.53051900863647 15.5126953125,4.4091796875 16.5087890625,6.76757955551147 17.1826171875,9.5947265625 17.567138671875,12.850341796875 17.6953125,16.494140625 17.6953125,32.2265625 12.890625,32.2265625 12.890625,19.013671875 10.1220703125,18.702392578125 7.6171875,18.0029296875 3.54492211341858,15.64453125 2.039794921875,14.05517578125 0.9228515625,12.216796875 0.230713024735451,10.17333984375 0,7.96875 0.585937976837158,4.8193359375 2.22656273841858,2.2998046875 4.7314453125,0.615234375 7.91015625,0z" />
    </g>
  </g>
</svg>