<?xml version="1.0" encoding="utf-8"?>
<!DOCTYPE svg PUBLIC "-//W3C//DTD SVG 1.1//EN" "http://www.w3.org/Graphics/SVG/1.1/DTD/svg11.dtd">
<svg width="37.998046875" height="43.359375" xmlns="http://www.w3.org/2000/svg" xmlns:xlink="http://www.w3.org/1999/xlink" xmlns:xml="http://www.w3.org/XML/1998/namespace" version="1.1">
  <g>
    <g>
      <path style="fill:#FF0000;fill-opacity:1" d="M19.1015625,4.423828125L15.95947265625,4.859619140625 13.154296875,6.1669921875 10.7153310775757,8.2470703125 8.671875,11.0009765625 7.042236328125,14.3884296417236 5.8447265625,18.369140625 5.10864210128784,22.8515625 4.86328077316284,27.744140625 5.2294921875,32.2265625 6.357421875,35.7421875 8.291015625,38.02734375 9.56542873382568,38.642578125 11.044921875,38.84765625 13.798828125,38.173828125 15.5126953125,36.181640625 16.376953125,32.9150390625 16.611328125,28.41796875 16.611328125,23.642578125 21.416015625,23.642578125 21.416015625,28.41796875 21.650390625,32.9150390625 22.5,36.181640625 24.19921875,38.173828125 26.953125,38.84765625 28.4289531707764,38.642578125 29.6923828125,38.02734375 31.611328125,35.7421875 32.7392578125,32.2265625 33.10546875,27.744140625 32.874755859375,22.620849609375 32.1826171875,18.0322265625 31.04736328125,14.0332050323486 29.4873046875,10.6787109375 27.5024394989014,8.001708984375 25.0927734375,6.03515625 22.2839336395264,4.82666015625 19.1015625,4.423828125z M19.423828125,0L23.4704570770264,0.516357421875 27.1142578125,2.0654296875 30.30029296875,4.530029296875 32.9736328125,7.79296875 35.1123046875,11.8029794692993 36.6943359375,16.5087890625 37.672119140625,21.800537109375 37.998046875,27.568359375 37.2802734375,33.720703125 35.15625,38.73046875 33.57421875,40.645751953125 31.640625,42.1142578125 29.36279296875,43.048095703125 26.748046875,43.359375 24.0454082489014,43.02978515625 21.9140625,42.041015625 20.2734375,40.34912109375 19.04296875,37.91015625 18.92578125,37.91015625 17.6513671875,40.34912109375 15.99609375,42.041015625 13.86474609375,43.02978515625 11.162109375,43.359375 8.551025390625,43.048095703125 6.2841796875,42.1142578125 4.36523389816284,40.645751953125 2.7978515625,38.73046875 0.703125,33.7060546875 0,27.568359375 0.318603515625,21.661376953125 1.2744140625,16.3037109375 2.84912109375,11.5832529067993 5.02441453933716,7.587890625 7.78564453125,4.368896484375 11.1181640625,1.9775390625 15.003662109375,0.494384765625 19.423828125,0z" />
    </g>
  </g>
</svg>