<?xml version="1.0" encoding="utf-8"?>
<!DOCTYPE svg PUBLIC "-//W3C//DTD SVG 1.1//EN" "http://www.w3.org/Graphics/SVG/1.1/DTD/svg11.dtd">
<svg width="27.8027343750005" height="32.75390625" xmlns="http://www.w3.org/2000/svg" xmlns:xlink="http://www.w3.org/1999/xlink" xmlns:xml="http://www.w3.org/XML/1998/namespace" version="1.1">
  <g>
    <g>
      <path style="fill:#FF0000;fill-opacity:1" d="M11.484375,4.16015625L8.7890625,5.7568359375 6.7236328125,8.466796875 5.4052734375,12.099609375 4.951171875,16.435546875 5.419921875,20.771484375 6.73828125,24.3896484375 8.8037109375,27.099609375 11.484375,28.681640625 11.484375,4.16015625z M16.2890625,4.04296875L16.2890625,28.681640625 18.9990234375,27.158203125 21.0791015625,24.5361328125 22.3974609375,20.947265625 22.8515625,16.494140625 22.4267578125,11.7919921875 21.1669921875,8.0712890625 19.1015625,5.44921875 16.2890625,4.04296875z M14.23828125,0L17.149658203125,0.292969465255737 19.7900390625,1.171875 22.1118144989014,2.57812643051147 24.0673828125,4.453125 25.6420879364014,6.77124166488647 26.8212890625,9.5068359375 27.5573711395264,12.601318359375 27.802734375,15.99609375 27.5537090301514,19.65087890625 26.806640625,22.939453125 25.6054668426514,25.814208984375 23.994140625,28.2275390625 21.9799785614014,30.157470703125 19.5703125,31.58203125 16.81640625,32.4609375 13.76953125,32.75390625 10.7849111557007,32.4609375 8.1005859375,31.58203125 5.74951171875,30.17578125 3.76464819908142,28.30078125 2.16796851158142,25.982666015625 0.981445074081421,23.2470703125 0.245360940694809,20.152587890625 0,16.7578125 0.245360940694809,13.128662109375 0.981445074081421,9.8583984375 2.17895483970642,6.99096822738647 3.80859351158142,4.5703125 5.85205078125,2.62573385238647 8.291015625,1.1865234375 11.0961904525757,0.296631574630737 14.23828125,0z" />
    </g>
  </g>
</svg>