<?xml version="1.0" encoding="utf-8"?>
<!DOCTYPE svg PUBLIC "-//W3C//DTD SVG 1.1//EN" "http://www.w3.org/Graphics/SVG/1.1/DTD/svg11.dtd">
<svg width="24.43359375" height="32.138671875" xmlns="http://www.w3.org/2000/svg" xmlns:xlink="http://www.w3.org/1999/xlink" xmlns:xml="http://www.w3.org/XML/1998/namespace" version="1.1">
  <g>
    <g>
      <path style="fill:#FF0000;fill-opacity:1" d="M9.873046875,18.837890625L7.6171875,19.306640625 6.0205078125,20.4638671875 5.0830078125,22.1484375 4.775390625,24.169921875 5.4931640625,27.1875 6.405029296875,28.06640625 7.705078125,28.359375 8.616943359375,28.154296875 9.3017578125,27.5390625 9.873046875,25.25390625 9.873046875,18.837890625z M9.873046875,0L14.6484375,0 14.6484375,15.087890625 14.677734375,15.087890625 18.896484375,15.7177734375 21.943359375,17.490234375 23.8037109375,20.2294921875 24.43359375,23.759765625 24.2303447723389,26.0797119140625 23.6206035614014,28.17626953125 22.6043682098389,30.0494384765625 21.181640625,31.69921875 15.703125,31.69921875 17.607421875,29.853515625 18.8232421875,27.890625 19.4677734375,25.8984375 19.658203125,23.96484375 19.3798828125,21.9140625 18.515625,20.302734375 16.962890625,19.2333984375 14.6484375,18.837890625 14.6484375,24.990234375 14.296875,27.6123046875 13.1396484375,29.8974609375 11.0595703125,31.5234375 7.939453125,32.138671875 4.7607421875,31.6259765625 2.255859375,30.087890625 0.600586295127869,27.568359375 0,24.08203125 0.70312511920929,20.6396484375 2.6953125,17.783203125 5.80078125,15.8349609375 9.873046875,15.087890625 9.873046875,0z" />
    </g>
  </g>
</svg>