<?xml version="1.0" encoding="utf-8"?>
<!DOCTYPE svg PUBLIC "-//W3C//DTD SVG 1.1//EN" "http://www.w3.org/Graphics/SVG/1.1/DTD/svg11.dtd">
<svg width="25.458984375" height="43.41796875" xmlns="http://www.w3.org/2000/svg" xmlns:xlink="http://www.w3.org/1999/xlink" xmlns:xml="http://www.w3.org/XML/1998/namespace" version="1.1">
  <g>
    <g>
      <path style="fill:#FF0000;fill-opacity:1" d="M14.6484375,0L17.5323467254639,0.0933837890625 20.0024394989014,0.37353515625 22.0587139129639,0.8404541015625 23.701171875,1.494140625 23.701171875,7.03125 19.453125,5.09765625 14.150390625,4.453125 10.9130859375,4.7900390625 8.056640625,5.888671875 6.005859375,7.8515625 5.41259765625,9.1845703125 5.21484375,10.78125 5.8154296875,13.564453125 7.587890625,15.703125 10.4443359375,17.578125 14.326171875,19.5703125 18.603515625,21.9140625 22.1484375,24.638671875 24.5654296875,27.9638671875 25.2355937957764,29.915771484375 25.458984375,32.109375 25.1550273895264,34.976806640625 24.2431640625,37.3681640625 22.8149394989014,39.320068359375 20.9619140625,40.869140625 16.201171875,42.8173828125 10.517578125,43.41796875 8.0419921875,43.2568359375 5.068359375,42.7880859375 2.18261742591858,42.0263671875 0,41.015625 0,35.21484375 2.38769555091858,36.796875 5.3173828125,37.9833984375 8.408203125,38.73046875 11.279296875,38.994140625 15.263671875,38.57666015625 18.076171875,37.32421875 19.74609375,35.2734375 20.302734375,32.4609375 19.5556640625,29.501953125 17.490234375,27.2021484375 14.3701171875,25.2099609375 10.48828125,23.203125 6.38671875,20.947265625 3.07617211341858,18.427734375 0.864258050918579,15.3076171875 0.260009855031967,13.4143085479736 0.0585942268371582,11.220703125 0.373535335063934,8.5400390625 1.31835961341858,6.240234375 2.77587866783142,4.310302734375 4.62890625,2.7392578125 9.3017578125,0.673828125 14.6484375,0z" />
    </g>
  </g>
</svg>