<?xml version="1.0" encoding="utf-8"?>
<!DOCTYPE svg PUBLIC "-//W3C//DTD SVG 1.1//EN" "http://www.w3.org/Graphics/SVG/1.1/DTD/svg11.dtd">
<svg width="47.0800781250001" height="42.568359375" xmlns="http://www.w3.org/2000/svg" xmlns:xlink="http://www.w3.org/1999/xlink" xmlns:xml="http://www.w3.org/XML/1998/namespace" version="1.1">
  <g>
    <g>
      <path style="fill:#FF0000;fill-opacity:1" d="M32.138671875,19.833984375L29.2822265625,20.009765625 26.19140625,20.068359375 23.7890625,20.0390625 21.50390625,19.951171875 25.693359375,33.8671875 26.162109375,35.6103515625 26.54296875,37.587890625 26.66015625,37.587890625 27.626953125,33.80859375 32.138671875,19.833984375z M7.79296875,4.072265625L6.45263671875,4.295654296875 5.41992235183716,4.9658203125 4.76074171066284,5.965576171875 4.54101514816284,7.177734375 5.16723585128784,9.76318454742432 7.0458984375,11.953125 10.286865234375,13.6889667510986 15,14.912109375 14.0075674057007,12.1765155792236 13.0810546875,9.8876953125 12.1948232650757,8.016357421875 11.3232421875,6.533203125 9.5947265625,4.658203125 7.79296875,4.072265625z M7.79296875,0L9.99755859375,0.22705078125 11.923828125,0.908203125 13.6193838119507,2.0654296875 15.1318359375,3.720703125 16.50146484375,5.88134765625 17.7685546875,8.5546875 18.980712890625,11.7553720474243 20.185546875,15.498046875 23.0419921875,15.6591796875 26.162109375,15.703125 30.0439453125,15.5712890625 33.6328125,15.205078125 38.408203125,0.556640625 43.7109375,0.556640625 38.994140625,14.23828125 41.707763671875,13.5424823760986 43.9892578125,12.802734375 45.794677734375,12.0922870635986 47.080078125,11.484375 47.080078125,16.435546875 45.6298828125,17.0764179229736 43.505859375,17.8271484375 40.71533203125,18.585205078125 37.265625,19.248046875 29.23828125,42.568359375 23.818359375,42.568359375 16.494140625,19.51171875 12.6580810546875,18.8452167510986 9.32373046875,17.9296894073486 6.4910888671875,16.7651386260986 4.16015625,15.3515625 2.340087890625,13.6871347427368 1.0400390625,11.7700214385986 0.260009706020355,9.60022068023682 0,7.177734375 0.468749761581421,4.453125 1.904296875,2.16796875 4.3359375,0.5859375 7.79296875,0z" />
    </g>
  </g>
</svg>