<?xml version="1.0" encoding="utf-8"?>
<!DOCTYPE svg PUBLIC "-//W3C//DTD SVG 1.1//EN" "http://www.w3.org/Graphics/SVG/1.1/DTD/svg11.dtd">
<svg width="26.9531250000001" height="32.75390625" xmlns="http://www.w3.org/2000/svg" xmlns:xlink="http://www.w3.org/1999/xlink" xmlns:xml="http://www.w3.org/XML/1998/namespace" version="1.1">
  <g>
    <g>
      <path style="fill:#FF0000;fill-opacity:1" d="M22.177734375,16.23046875L20.3466796875,17.969970703125 18.193359375,19.2041015625 15.76904296875,19.940185546875 13.125,20.185546875 11.0888671875,19.98046875 8.876953125,19.3505859375 6.708984375,18.2958984375 4.775390625,16.787109375 5.6689453125,22.0166015625 7.6611328125,25.751953125 10.4736328125,27.9931640625 13.88671875,28.740234375 16.644287109375,28.3740234375 18.8818359375,27.275390625 20.694580078125,25.48828125 22.177734375,23.056640625 22.177734375,16.23046875z M14.033203125,4.013671875L11.1474609375,4.5263671875 8.5400390625,6.0498046875 6.4599609375,8.525390625 5.126953125,11.865234375 6.62109375,13.634033203125 8.525390625,15.0146484375 10.7299795150757,15.904541015625 13.125,16.201171875 16.190185546875,15.7470703125 18.8232421875,14.384765625 20.9143047332764,12.18017578125 22.353515625,9.19921875 21.064453125,7.1630859375 19.21875,5.5078125 16.8603515625,4.4091796875 14.033203125,4.013671875z M14.0625,0L16.629638671875,0.219727277755737 18.8232421875,0.87890625 22.177734375,3.076171875 22.177734375,0.52734375 26.953125,0.52734375 26.953125,32.2265625 22.177734375,32.2265625 22.177734375,28.916015625 20.6103515625,30.5712890625 18.7353515625,31.7724609375 16.435546875,32.5048828125 13.59375,32.75390625 10.6164541244507,32.4609375 7.9541015625,31.58203125 5.63232421875,30.17578125 3.6767578125,28.30078125 2.109375,25.982666015625 0.9521484375,23.2470703125 0.238036930561066,20.152587890625 0,16.7578125 0.245361149311066,13.128662109375 0.9814453125,9.8583984375 2.17529296875,6.99096822738647 3.7939453125,4.5703125 5.8154296875,2.62573385238647 8.2177734375,1.1865234375 10.9753408432007,0.296631574630737 14.0625,0z" />
    </g>
  </g>
</svg>