<?xml version="1.0" encoding="utf-8"?>
<!DOCTYPE svg PUBLIC "-//W3C//DTD SVG 1.1//EN" "http://www.w3.org/Graphics/SVG/1.1/DTD/svg11.dtd">
<svg width="43.2421875" height="40.341796875" xmlns="http://www.w3.org/2000/svg" xmlns:xlink="http://www.w3.org/1999/xlink" xmlns:xml="http://www.w3.org/XML/1998/namespace" version="1.1">
  <g>
    <g>
      <path style="fill:#FF0000;fill-opacity:1" d="M31.611328125,4.1015625L28.5498046875,4.775390625 26.1474609375,6.6796875 24.580078125,9.638671875 24.0234375,13.447265625 24.0234375,17.900390625 24.4519023895264,22.0404052734375 25.7373027801514,24.99755859375 27.8796367645264,26.7718505859375 30.87890625,27.36328125 33.9404296875,26.689453125 36.3427734375,24.78515625 37.91015625,21.826171875 38.466796875,18.017578125 38.466796875,13.564453125 38.038330078125,9.42443943023682 36.7529296875,6.46728658676147 34.610595703125,4.69299411773682 31.611328125,4.1015625z M32.900390625,0L35.3242492675781,0.200043350458145 37.4249267578125,0.800171971321106 39.2024230957031,1.80038583278656 40.65673828125,3.20068502426147 41.7878723144531,5.00106954574585 42.5958251953125,7.20153903961182 43.0805969238281,9.80209445953369 43.2421875,12.802734375 43.2421875,30.732421875 43.05908203125,33.211669921875 42.509765625,35.2587890625 40.517578125,38.2177734375 37.5439453125,39.84375 33.896484375,40.341796875 31.904296875,40.20263671875 30.439453125,39.78515625 30.439453125,35.478515625 31.904296875,36.064453125 33.603515625,36.240234375 35.8154296875,35.947265625 37.3974609375,34.9658203125 38.349609375,33.1787109375 38.671875,30.498046875 38.671875,25.986328125 38.525390625,25.986328125 36.9158935546875,28.3831787109375 34.89990234375,30.09521484375 32.4774169921875,31.1224365234375 29.6484375,31.46484375 26.4514141082764,31.0986328125 23.7744140625,30 21.6686992645264,28.17626953125 20.185546875,25.634765625 19.921875,25.634765625 18.3544921875,27.9345703125 16.2451171875,29.794921875 13.5791015625,31.025390625 10.341796875,31.46484375 7.91793823242188,31.2648010253906 5.8172607421875,30.6646728515625 4.03976440429688,29.6644592285156 2.58544921875,28.26416015625 1.45431518554688,26.4637756347656 0.6463623046875,24.2633056640625 0.161590576171875,21.6627502441406 0,18.662109375 0,0.732421875 4.8046875,0.732421875 4.8046875,17.900390625 5.2313232421875,22.0404052734375 6.51123046875,24.99755859375 8.6444091796875,26.7718505859375 11.630859375,27.36328125 14.6923828125,26.689453125 17.080078125,24.78515625 18.6328125,21.826171875 19.189453125,18.017578125 19.189453125,0.732421875 23.84765625,0.732421875 23.84765625,5.478515625 23.96484375,5.478515625 25.5889892578125,3.08166599273682 27.61962890625,1.36963033676147 30.0567626953125,0.342408299446106 32.900390625,0z" />
    </g>
  </g>
</svg>