<?xml version="1.0" encoding="utf-8"?>
<!DOCTYPE svg PUBLIC "-//W3C//DTD SVG 1.1//EN" "http://www.w3.org/Graphics/SVG/1.1/DTD/svg11.dtd">
<svg width="43.2421875" height="31.46484375" xmlns="http://www.w3.org/2000/svg" xmlns:xlink="http://www.w3.org/1999/xlink" xmlns:xml="http://www.w3.org/XML/1998/namespace" version="1.1">
  <g>
    <g>
      <path style="fill:#FF0000;fill-opacity:1" d="M31.611328125,4.1015625L28.59375,4.74609375 26.220703125,6.5625 24.6533203125,9.3896484375 24.0234375,13.037109375 24.0234375,17.900390625 24.4519023895264,22.0404052734375 25.7373027801514,24.99755859375 27.8796367645264,26.7718505859375 30.87890625,27.36328125 33.9404296875,26.689453125 36.3427734375,24.78515625 37.91015625,21.826171875 38.466796875,18.017578125 38.466796875,13.564453125 38.038330078125,9.42443943023682 36.7529296875,6.46728658676147 34.610595703125,4.69299411773682 31.611328125,4.1015625z M32.87109375,0L35.3018188476563,0.200043350458145 37.408447265625,0.800171971321106 39.1909790039063,1.80038583278656 40.6494140625,3.20068502426147 41.7837524414063,5.00106954574585 42.593994140625,7.20153903961182 43.0801391601563,9.80209445953369 43.2421875,12.802734375 43.2421875,25.8984375 39.404296875,30.732421875 38.642578125,30.732421875 38.642578125,25.986328125 38.525390625,25.986328125 36.9049072265625,28.3831787109375 34.88525390625,30.09521484375 32.4664306640625,31.1224365234375 29.6484375,31.46484375 26.4331035614014,31.0986328125 23.759765625,30 21.6577129364014,28.17626953125 20.15625,25.634765625 19.86328125,25.634765625 18.310546875,27.9345703125 16.2158203125,29.794921875 13.564453125,31.025390625 10.341796875,31.46484375 7.91793823242188,31.2648010253906 5.8172607421875,30.6646728515625 4.03976440429688,29.6644592285156 2.58544921875,28.26416015625 1.45431518554688,26.4637756347656 0.6463623046875,24.2633056640625 0.161590576171875,21.6627502441406 0,18.662109375 0,0.732421875 4.8046875,0.732421875 4.8046875,17.900390625 5.2313232421875,22.0404052734375 6.51123046875,24.99755859375 8.6444091796875,26.7718505859375 11.630859375,27.36328125 14.6923828125,26.689453125 17.080078125,24.78515625 18.6328125,21.826171875 19.189453125,18.017578125 19.189453125,0.732421875 23.818359375,0.732421875 23.818359375,5.478515625 23.935546875,5.478515625 25.5816650390625,3.08166599273682 27.61962890625,1.36963033676147 30.0494384765625,0.342408299446106 32.87109375,0z" />
    </g>
  </g>
</svg>