<?xml version="1.0" encoding="utf-8"?>
<!DOCTYPE svg PUBLIC "-//W3C//DTD SVG 1.1//EN" "http://www.w3.org/Graphics/SVG/1.1/DTD/svg11.dtd">
<svg width="27.24609375" height="30.703125" xmlns="http://www.w3.org/2000/svg" xmlns:xlink="http://www.w3.org/1999/xlink" xmlns:xml="http://www.w3.org/XML/1998/namespace" version="1.1">
  <g>
    <g>
      <path style="fill:#FF0000;fill-opacity:1" d="M0,0L4.775390625,0 4.775390625,17.16796875 5.299072265625,21.32080078125 6.8701171875,24.287109375 9.488525390625,26.06689453125 13.154296875,26.66015625 16.842041015625,26.011962890625 19.8193359375,24.0673828125 21.7858867645264,21.075439453125 22.44140625,17.28515625 22.44140625,0 27.24609375,0 27.24609375,24.931640625 23.173828125,30 22.412109375,30 22.412109375,25.25390625 22.294921875,25.25390625 20.3961181640625,27.637939453125 18.03955078125,29.3408203125 15.2252197265625,30.362548828125 11.953125,30.703125 9.151611328125,30.5035400390625 6.7236328125,29.90478515625 4.669189453125,28.9068603515625 2.98828125,27.509765625 1.680908203125,25.7135009765625 0.7470703125,23.51806640625 0.186767578125,20.9234619140625 0,17.9296875 0,0z" />
    </g>
  </g>
</svg>