<?xml version="1.0" encoding="utf-8"?>
<!DOCTYPE svg PUBLIC "-//W3C//DTD SVG 1.1//EN" "http://www.w3.org/Graphics/SVG/1.1/DTD/svg11.dtd">
<svg width="38.349609375" height="31.46484375" xmlns="http://www.w3.org/2000/svg" xmlns:xlink="http://www.w3.org/1999/xlink" xmlns:xml="http://www.w3.org/XML/1998/namespace" version="1.1">
  <g>
    <g>
      <path style="fill:#FF0000;fill-opacity:1" d="M26.044921875,4.1015625L22.5,4.7607421875 19.5703125,6.796875 17.8125,9.6240234375 17.05078125,13.037109375 17.05078125,17.841796875 17.51953125,22.0074462890625 18.92578125,24.98291015625 21.26953125,26.7681884765625 24.55078125,27.36328125 28.1030254364014,26.689453125 31.025390625,24.66796875 32.7978515625,21.89208984375 33.544921875,18.427734375 33.544921875,13.623046875 33.076171875,9.45739841461182 31.669921875,6.48193502426147 29.326171875,4.69665622711182 26.044921875,4.1015625z M27.59765625,0L30.0640869140625,0.198670506477356 32.21923828125,0.794679164886475 34.0631103515625,1.78802597522736 35.595703125,3.1787109375 37.6611328125,7.06421041488647 38.349609375,12.36328125 38.349609375,25.6640625 34.306640625,30.732421875 33.544921875,30.732421875 33.544921875,25.751953125 33.3984375,25.751953125 31.38427734375,28.2421875 28.857421875,30.029296875 25.9497051239014,31.10595703125 22.79296875,31.46484375 20.3695678710938,31.2661743164063 18.255615234375,30.670166015625 16.4511108398438,29.6768188476563 14.9560546875,28.2861328125 12.9455556869507,24.400634765625 12.275390625,19.1015625 12.275390625,9.462890625 12.1472158432007,7.100830078125 11.7626953125,5.4638671875 10.9973134994507,4.50805807113647 9.7265625,4.189453125 8.37890625,4.62890625 7.2509765625,5.771484375 6.298828125,7.3974609375 5.5078125,9.287109375 1.20117163658142,9.287109375 0,0.029296875 4.658203125,0.029296875 5.2734375,4.658203125 5.390625,4.658203125 6.4453125,2.783203125 7.6904296875,1.318359375 9.375,0.3662109375 11.689453125,0.029296875 13.9013671875,0.498046875 15.439453125,1.728515625 16.40625,3.5009765625 16.875,5.595703125 18.7939453125,3.2958984375 21.123046875,1.5234375 24.0234375,0.3955078125 27.59765625,0z" />
    </g>
  </g>
</svg>