<?xml version="1.0" encoding="utf-8"?>
<!DOCTYPE svg PUBLIC "-//W3C//DTD SVG 1.1//EN" "http://www.w3.org/Graphics/SVG/1.1/DTD/svg11.dtd">
<svg width="27.9492187500004" height="50.654296875" xmlns="http://www.w3.org/2000/svg" xmlns:xlink="http://www.w3.org/1999/xlink" xmlns:xml="http://www.w3.org/XML/1998/namespace" version="1.1">
  <g>
    <g>
      <path style="fill:#FF0000;fill-opacity:1" d="M0,41.89453125L3.6328125,41.89453125 4.16015577316284,44.1650390625 5.58105421066284,45.8056640625 7.6611328125,46.8017578125 10.166015625,47.138671875 13.53515625,47.138671875 13.53515625,50.654296875 10.078125,50.654296875 5.75683546066284,50.0390625 2.5927734375,48.28125 0.659178972244263,45.5126953125 0,41.89453125z M4.71679639816284,0L9.521484375,0 9.521484375,33.984375 9.8291015625,36.6650390625 10.7666015625,38.4521484375 12.3486328125,39.43359375 14.560546875,39.7265625 27.94921875,39.7265625 27.94921875,43.828125 14.267578125,43.828125 10.576171875,43.330078125 7.54394483566284,41.7041015625 5.47851514816284,38.7451171875 4.90722608566284,36.697998046875 4.71679639816284,34.21875 4.71679639816284,0z" />
    </g>
  </g>
</svg>