<?xml version="1.0" encoding="utf-8"?>
<!DOCTYPE svg PUBLIC "-//W3C//DTD SVG 1.1//EN" "http://www.w3.org/Graphics/SVG/1.1/DTD/svg11.dtd">
<svg width="24.90234375" height="43.798828125" xmlns="http://www.w3.org/2000/svg" xmlns:xlink="http://www.w3.org/1999/xlink" xmlns:xml="http://www.w3.org/XML/1998/namespace" version="1.1">
  <g>
    <g>
      <path style="fill:#FF0000;fill-opacity:1" d="M0,0L4.8046875,0 4.8046875,30.17578125 5.3466796875,34.3359375 6.884765625,37.3095703125 9.287109375,39.0966796875 12.421875,39.697265625 15.5712890625,39.0966796875 18.0029296875,37.3095703125 19.5556640625,34.3359375 20.09765625,30.17578125 20.09765625,0 24.90234375,0 24.90234375,31.435546875 24.7027568817139,34.2617797851563 24.1040019989014,36.734619140625 23.1060771942139,38.8540649414063 21.708984375,40.6201171875 19.9310302734375,42.0108032226563 17.79052734375,43.004150390625 15.2874755859375,43.6001586914063 12.421875,43.798828125 9.54620361328125,43.6001586914063 7.042236328125,43.004150390625 4.90997314453125,42.0108032226563 3.1494140625,40.6201171875 1.77154541015625,38.8540649414063 0.787353515625,36.734619140625 0.19683837890625,34.2617797851563 0,31.435546875 0,0z" />
    </g>
  </g>
</svg>