<?xml version="1.0" encoding="utf-8"?>
<!DOCTYPE svg PUBLIC "-//W3C//DTD SVG 1.1//EN" "http://www.w3.org/Graphics/SVG/1.1/DTD/svg11.dtd">
<svg width="27.24609375" height="31.376953125" xmlns="http://www.w3.org/2000/svg" xmlns:xlink="http://www.w3.org/1999/xlink" xmlns:xml="http://www.w3.org/XML/1998/namespace" version="1.1">
  <g>
    <g>
      <path style="fill:#FF0000;fill-opacity:1" d="M19.3359375,3.896484375L17.666015625,4.14917135238647 16.46484375,4.9072265625 15.73974609375,6.11938619613647 15.498046875,7.734375 15.758056640625,9.42626953125 16.5380859375,10.693359375 17.772216796875,11.484375 19.39453125,11.748046875 20.9399394989014,11.484375 22.119140625,10.693359375 22.8662090301514,9.44091796875 23.115234375,7.79296875 22.8588848114014,6.17065572738647 22.08984375,4.9365234375 20.8886699676514,4.15649557113647 19.3359375,3.896484375z M19.16015625,0L22.470703125,0.556640625 25.01953125,2.138671875 26.6455078125,4.62890625 27.24609375,7.91015625 27.24609375,7.96875 27.24609375,8.3203125 27.24609375,19.04296875 27.0291118621826,21.8682861328125 26.3781719207764,24.33837890625 25.2932720184326,26.4532470703125 23.7744140625,28.212890625 21.8362407684326,29.59716796875 19.4934062957764,30.5859375 16.7459087371826,31.17919921875 13.59375,31.376953125 10.455322265625,31.17919921875 7.7197265625,30.5859375 5.386962890625,29.59716796875 3.45703125,28.212890625 1.944580078125,26.4532470703125 0.8642578125,24.33837890625 0.216064453125,21.8682861328125 0,19.04296875 0,0.791015625 4.8046875,0.791015625 4.8046875,18.369140625 5.4345703125,22.44140625 7.20703125,25.224609375 9.9755859375,26.806640625 13.59375,27.3046875 17.2265625,26.806640625 20.0244140625,25.224609375 21.8115234375,22.44140625 22.44140625,18.369140625 22.44140625,15.1171875 21.0498046875,15.439453125 19.51171875,15.52734375 16.11328125,14.9853515625 13.5205078125,13.4326171875 11.8798828125,10.95703125 11.30859375,7.6171875 11.8505859375,4.453125 13.4033203125,2.05078125 15.8642578125,0.52734375 19.16015625,0z" />
    </g>
  </g>
</svg>