<?xml version="1.0" encoding="utf-8"?>
<!DOCTYPE svg PUBLIC "-//W3C//DTD SVG 1.1//EN" "http://www.w3.org/Graphics/SVG/1.1/DTD/svg11.dtd">
<svg width="33.251953125" height="51.5080909729004" xmlns="http://www.w3.org/2000/svg" xmlns:xlink="http://www.w3.org/1999/xlink" xmlns:xml="http://www.w3.org/XML/1998/namespace" version="1.1">
  <g>
    <g>
      <path style="fill:#FF0000;fill-opacity:1" d="M21.240234375,0L25.2392559051514,0.35888671875 29.091796875,1.435546875 30.6298828125,1.85302734375 31.728515625,1.9921875 32.3291015625,1.875 32.8125,1.81640625 33.193359375,2.05078125 32.75390625,3.720703125 32.17529296875,6.21826267242432 31.669921875,9.31640625 30.966796875,8.9501953125 30.791015625,8.056640625 30.63720703125,6.50390720367432 30.29296875,5.537109375 28.90869140625,4.2333984375 26.337890625,2.900390625 23.1665019989014,1.8896484375 19.98046875,1.552734375 15.963134765625,2.076416015625 12.3486328125,3.6474609375 9.29443359375,6.22924900054932 6.95800828933716,9.78515625 5.474853515625,14.1796894073486 4.98046875,19.27734375 5.416259765625,23.939208984375 6.72363328933716,27.9052734375 8.6865234375,31.146240234375 11.0888671875,33.6328125 13.73291015625,35.44921875 16.4208984375,36.6796875 18.951416015625,37.3828125 21.123046875,37.6171875 24.0161113739014,37.357177734375 26.3671875,36.5771484375 28.2238750457764,35.4345703125 29.6337890625,34.0869140625 31.93359375,30.615234375 32.34375,29.97802734375 32.6953125,29.765625 33.251953125,30.29296875 33.11279296875,31.0693359375 32.6953125,32.63671875 32.5616455078125,33.050537109375 32.30712890625,33.9111328125 31.9317626953125,35.218505859375 31.435546875,36.97265625 25.693359375,38.4228515625 20.09765625,38.935546875 18.864408493042,38.7167434692383 17.783203125,40.751953125 19.6160869598389,41.5447998046875 20.9252910614014,42.57568359375 21.7108135223389,43.8446044921875 21.97265625,45.3515625 21.6320781707764,47.142333984375 20.6103515625,48.7060546875 18.980712890625,49.98046875 16.81640625,50.9033203125 14.2822265625,51.419677734375 11.54296875,51.474609375 11.54296875,50.2734375 13.63037109375,50.145263671875 15.322265625,49.8779296875 16.61865234375,49.471435546875 17.51953125,48.92578125 18.57421875,47.68798828125 18.92578125,46.435546875 18.636474609375,45.164794921875 17.7685546875,44.2236328125 16.322021484375,43.612060546875 14.296875,43.330078125 15.7264995574951,41.180419921875 16.7853927612305,39.5654296875 17.4639339447021,38.4682731628418 12.83203125,37.646484375 9.38232421875,36.046142578125 6.29882860183716,33.8232421875 3.69873094558716,31.0107421875 1.69921970367432,27.6416015625 0.424805164337158,23.741455078125 0,19.3359375 0.196838647127151,16.2670917510986 0.787353932857513,13.4472675323486 1.77154588699341,10.8764657974243 3.14941453933716,8.5546875 6.73095703125,4.73876953125 11.1767578125,2.080078125 16.131591796875,0.52001953125 21.240234375,0z" />
    </g>
  </g>
</svg>