<?xml version="1.0" encoding="utf-8"?>
<!DOCTYPE svg PUBLIC "-//W3C//DTD SVG 1.1//EN" "http://www.w3.org/Graphics/SVG/1.1/DTD/svg11.dtd">
<svg width="12.919921875" height="13.974609375" xmlns="http://www.w3.org/2000/svg" xmlns:xlink="http://www.w3.org/1999/xlink" xmlns:xml="http://www.w3.org/XML/1998/namespace" version="1.1">
  <g>
    <g>
      <path style="fill:#FF0000;fill-opacity:1" d="M7.5,8.349609375L4.7021484375,8.583984375 2.9296875,9.462890625 2.34375,10.576171875 2.7978515625,11.953125 3.896484375,12.59765625 5.39794874191284,12.2973651885986 7.3828125,11.396484375 7.4267578125,10.0048828125 7.5,8.349609375z M6.474609375,0L7.8076171875,0.3515625 8.62060546875,0.8935546875 9.3896484375,1.81640625 9.949951171875,3.1640625 10.13671875,4.98046875 10.13671875,5.888671875 10.078125,7.265625 10.0634765625,7.71240377426147 10.01953125,8.642578125 9.9755859375,9.55810737609863 9.9609375,9.9609375 10.18798828125,11.7187519073486 10.869140625,12.3046875 12.919921875,11.748046875 12.83203125,12.65625 11.953125,13.0224609375 11.103515625,13.388671875 9.77783203125,13.8281269073486 9.19921875,13.974609375 8.203125,13.41796875 7.55859375,12.3046875 4.599609375,13.5571308135986 2.40234375,13.974609375 0.6005859375,13.3447265625 0,11.455078125 0.24169921875,9.82910346984863 0.966796875,8.876953125 3.83056640625,7.81494283676147 7.44140625,7.1484375 7.55859375,5.15625 7.39013671875,3.44970703125 6.708984375,2.314453125 5.73486280441284,1.69921875 4.6875,1.494140625 3.603515625,1.8017578125 3.076171875,2.51953125 3.310546875,3.369140625 0.791015625,4.39453125 0.615234375,3.427734375 1.212158203125,2.193603515625 3.0029296875,1.0693359375 5.06469678878784,0.267333984375 6.474609375,0z" />
    </g>
  </g>
</svg>