<?xml version="1.0" encoding="utf-8"?>
<!DOCTYPE svg PUBLIC "-//W3C//DTD SVG 1.1//EN" "http://www.w3.org/Graphics/SVG/1.1/DTD/svg11.dtd">
<svg width="20.09765625" height="36.6796875" xmlns="http://www.w3.org/2000/svg" xmlns:xlink="http://www.w3.org/1999/xlink" xmlns:xml="http://www.w3.org/XML/1998/namespace" version="1.1">
  <g>
    <g>
      <path style="fill:#FF0000;fill-opacity:1" d="M11.923828125,27.0703125L8.44945907592773,27.1728515625 5.73417663574219,28.0078125 3.98237228393555,29.36279296875 3.3984375,31.025390625 4.11369276046753,33.515625 4.96393156051636,34.39453125 6.08413696289063,34.6875 8.20095062255859,34.16015625 11.748046875,32.578125 11.7260732650757,31.871337890625 11.7480459213257,30.7177734375 11.8139638900757,29.117431640625 11.923828125,27.0703125z M10.13671875,13.330078125L12.099609375,14.033203125 13.974609375,15.439453125 14.9267578125,16.5966796875 15.52734375,18.3984375 15.791015625,21.533203125 15.75439453125,22.79296875 15.64453125,25.458984375 15.52734375,27.65625 15.41015625,30.17578125 15.732421875,32.75390625 16.20849609375,33.80859375 17.05078125,34.16015625 18.3837890625,33.94775390625 20.09765625,33.310546875 20.09765625,34.51171875 15.791015625,36.240234375 14.7802734375,36.56982421875 14.326171875,36.6796875 13.656005859375,36.456298828125 12.9931640625,35.7861328125 11.923828125,33.662109375 9.371337890625,34.9822998046875 7.1337890625,35.92529296875 5.211181640625,36.4910888671875 3.603515625,36.6796875 2.0361328125,36.419677734375 0.908202886581421,35.6396484375 0.227050751447678,34.339599609375 0,32.51953125 0.120849609375,30.78369140625 0.4833984375,29.560546875 2.05078125,28.037109375 6.708984375,26.3818359375 11.865234375,25.458984375 12.01171875,21.85546875 12.01171875,20.888671875 11.6564931869507,18.658447265625 10.5908203125,16.9482421875 9.049072265625,15.860595703125 7.265625,15.498046875 5.4345703125,16.0107421875 4.74243116378784,16.629638671875 4.51171875,17.4609375 4.8046875,18.720703125 1.20117211341858,20.33203125 0.966796875,18.955078125 1.42456030845642,17.515869140625 2.7978515625,16.1865234375 6.9287109375,14.12109375 8.880615234375,13.52783203125 10.13671875,13.330078125z M9.08203125,1.435546875L7.822265625,1.669921875 6.796875,2.373046875 6.11572265625,3.40576171875 5.888671875,4.62890625 6.126708984375,5.81176900863647 6.8408203125,6.8408203125 7.877197265625,7.55493307113647 9.08203125,7.79296875 10.2868642807007,7.56225728988647 11.3232421875,6.8701171875 12.0373525619507,5.84839010238647 12.275390625,4.62890625 12.0446767807007,3.424072265625 11.3525390625,2.3876953125 10.3234853744507,1.673583984375 9.08203125,1.435546875z M9.08203125,0L10.8947744369507,0.340576171875 12.4072265625,1.3623046875 13.428955078125,2.860107421875 13.76953125,4.62890625 13.154296875,6.9580078125 11.4697265625,8.671875 9.08203125,9.31640625 7.28759765625,8.97216987609863 5.771484375,7.939453125 4.73876905441284,6.42334127426147 4.39453077316284,4.62890625 4.73876905441284,2.841796875 5.771484375,1.34765625 7.28759765625,0.3369140625 9.08203125,0z" />
    </g>
  </g>
</svg>