<?xml version="1.0" encoding="utf-8"?>
<!DOCTYPE svg PUBLIC "-//W3C//DTD SVG 1.1//EN" "http://www.w3.org/Graphics/SVG/1.1/DTD/svg11.dtd">
<svg width="18.369140625" height="32.28515625" xmlns="http://www.w3.org/2000/svg" xmlns:xlink="http://www.w3.org/1999/xlink" xmlns:xml="http://www.w3.org/XML/1998/namespace" version="1.1">
  <g>
    <g>
      <path style="fill:#FF0000;fill-opacity:1" d="M8.02734375,11.484375L6.148681640625,12.06298828125 4.9072265625,13.798828125 3.779296875,18.779296875 7.6171875,17.958984375 8.177490234375,17.783203125 9.3896484375,17.490234375 10.6750478744507,17.20458984375 11.455078125,17.05078125 12.7001943588257,16.75048828125 13.388671875,16.552734375 13.798828125,16.083984375 13.095703125,14.4873046875 11.0888671875,12.421875 9.67162990570068,11.71875 8.02734375,11.484375z M9.169921875,9.609375L11.9091796875,10.0341796875 13.3154296875,10.653076171875 14.6923828125,11.66015625 15.941162109375,13.0810546875 16.962890625,14.94140625 17.4609375,15.52734375 18.310546875,15.673828125 18.369140625,16.7578125 3.720703125,19.921875 3.92944288253784,22.364501953125 4.2626953125,24.1845703125 4.85229444503784,25.704345703125 5.830078125,27.24609375 8.3203125,29.46533203125 11.279296875,30.205078125 14.091796875,29.70703125 15.66650390625,29.01123046875 17.40234375,27.919921875 17.9296875,28.623046875 15.4522705078125,30.2252197265625 13.11767578125,31.36962890625 10.9259033203125,32.0562744140625 8.876953125,32.28515625 6.8975830078125,32.08740234375 5.14892578125,31.494140625 3.63098120689392,30.50537109375 2.34375,29.12109375 0.5859375,25.72265625 0,21.85546875 0.44677734375,18.021240234375 1.787109375,14.8974609375 3.68408203125,12.506103515625 5.80078125,10.869140625 7.75634765625,9.92431640625 9.169921875,9.609375z M14.4140625,0L16.0400390625,0.6884765625 16.69921875,2.28515625 16.025390625,3.837890625 14.4140625,4.51171875 12.8466796875,3.8525390625 12.1875,2.28515625 12.861328125,0.673828125 14.4140625,0z M5.15625,0L6.767578125,0.6884765625 7.3828125,2.28515625 6.7529296875,3.8232421875 5.15625,4.51171875 3.544921875,3.837890625 2.87109375,2.28515625 3.5302734375,0.6884765625 5.15625,0z" />
    </g>
  </g>
</svg>