<?xml version="1.0" encoding="utf-8"?>
<!DOCTYPE svg PUBLIC "-//W3C//DTD SVG 1.1//EN" "http://www.w3.org/Graphics/SVG/1.1/DTD/svg11.dtd">
<svg width="20.0976562500003" height="32.666015625" xmlns="http://www.w3.org/2000/svg" xmlns:xlink="http://www.w3.org/1999/xlink" xmlns:xml="http://www.w3.org/XML/1998/namespace" version="1.1">
  <g>
    <g>
      <path style="fill:#FF0000;fill-opacity:1" d="M11.923828125,23.056640625L8.44945907592773,23.1591796875 5.73417663574219,23.994140625 3.98237228393555,25.34912109375 3.39843726158142,27.01171875 4.11369323730469,29.501953125 4.9639310836792,30.380859375 6.08413696289063,30.673828125 8.20095062255859,30.146484375 11.748046875,28.564453125 11.7260732650757,27.857666015625 11.7480459213257,26.7041015625 11.8139638900757,25.103759765625 11.923828125,23.056640625z M10.13671875,9.31640625L12.099609375,10.01953125 13.974609375,11.42578125 14.9267578125,12.5830078125 15.52734375,14.384765625 15.791015625,17.51953125 15.75439453125,18.779296875 15.64453125,21.4453125 15.52734375,23.642578125 15.41015625,26.162109375 15.732421875,28.740234375 16.20849609375,29.794921875 17.05078125,30.146484375 18.3837890625,29.93408203125 20.09765625,29.296875 20.09765625,30.498046875 15.791015625,32.2265625 14.7802734375,32.55615234375 14.326171875,32.666015625 13.656005859375,32.442626953125 12.9931640625,31.7724609375 11.923828125,29.6484375 9.371337890625,30.9686279296875 7.13378858566284,31.91162109375 5.21118116378784,32.4774169921875 3.60351538658142,32.666015625 2.03613257408142,32.406005859375 0.908203125,31.6259765625 0.227050602436066,30.325927734375 0,28.505859375 0.120849370956421,26.77001953125 0.483397960662842,25.546875 2.05078101158142,24.0234375 6.708984375,22.3681640625 11.865234375,21.4453125 12.01171875,17.841796875 12.01171875,16.875 11.6564931869507,14.644775390625 10.5908203125,12.9345703125 9.049072265625,11.846923828125 7.265625,11.484375 5.4345703125,11.9970703125 4.74243068695068,12.615966796875 4.51171875,13.447265625 4.8046875,14.70703125 1.20117163658142,16.318359375 0.966796636581421,14.94140625 1.42456007003784,13.502197265625 2.79785132408142,12.1728515625 6.9287109375,10.107421875 8.880615234375,9.51416015625 10.13671875,9.31640625z M13.4765625,0L15.1025390625,0.6884765625 15.76171875,2.28515625 15.087890625,3.837890625 13.4765625,4.51171875 11.9091796875,3.8525390625 11.25,2.28515625 11.923828125,0.673828125 13.4765625,0z M4.21875,0L5.830078125,0.6884765625 6.4453125,2.28515625 5.8154296875,3.8232421875 4.21875,4.51171875 2.60742163658142,3.837890625 1.93359351158142,2.28515625 2.59277319908142,0.6884765625 4.21875,0z" />
    </g>
  </g>
</svg>