<?xml version="1.0" encoding="utf-8"?>
<!DOCTYPE svg PUBLIC "-//W3C//DTD SVG 1.1//EN" "http://www.w3.org/Graphics/SVG/1.1/DTD/svg11.dtd">
<svg width="40.927734375" height="51.50390625" xmlns="http://www.w3.org/2000/svg" xmlns:xlink="http://www.w3.org/1999/xlink" xmlns:xml="http://www.w3.org/XML/1998/namespace" version="1.1">
  <g>
    <g>
      <path style="fill:#FF0000;fill-opacity:1" d="M14.091796875,13.18359375L14.4140625,14.150390625 12.1325674057007,14.50927734375 10.7373046875,14.94140625 9.345703125,16.23046875 8.961181640625,17.7044677734375 8.6865234375,20.48583984375 8.521728515625,24.5745849609375 8.466796875,29.970703125 8.49609375,33.8818359375 8.583984375,37.294921875 8.759765625,40.107421875 9.052734375,42.216796875 10.71533203125,45.897216796875 13.76953125,48.0908203125 17.39501953125,49.178466796875 20.771484375,49.541015625 25.1953125,49.0141296386719 27.7075176239014,48.2750129699707 30.087890625,47.1114349365234 32.021484375,45.4867744445801 33.193359375,43.3644104003906 33.8983154296875,40.4573822021484 34.40185546875,36.419677734375 34.7039794921875,31.2512969970703 34.8046875,24.9522399902344 34.742431640625,21.3625736236572 34.5556640625,18.790283203125 34.229736328125,17.0120429992676 33.75,15.8045196533203 32.34375,14.6775054931641 31.2451171875,14.523868560791 29.6484375,14.47265625 29.53125,13.447265625 32.4609375,13.2421875 35.3521728515625,13.245849609375 37.72705078125,13.2568359375 39.5855712890625,13.275146484375 40.927734375,13.30078125 40.927734375,14.501953125 39.224853515625,14.65576171875 38.1591796875,14.94140625 37.2509765625,16.201171875 37.115478515625,17.6220703125 37.03125,20.068359375 36.92138671875,25.2941913604736 36.767578125,29.8974609375 36.56982421875,33.80859375 36.328125,36.9580078125 35.5810546875,41.89453125 35.042724609375,43.857421875 34.39453125,45.41015625 32.67333984375,47.6220703125 30.205078125,49.27734375 27.3486309051514,50.416259765625 24.462890625,51.0791015625 19.189453125,51.50390625 15.38818359375,51.2075042724609 11.89453125,50.3182983398438 8.858642578125,48.7411880493164 6.43066453933716,46.3810729980469 4.83764696121216,43.2341766357422 4.306640625,39.2967224121094 4.31121873855591,38.5411262512207 4.32495164871216,37.3281097412109 4.34783983230591,35.6576728820801 4.37988328933716,33.5298156738281 4.43481492996216,29.4168090820313 4.45312595367432,26.5040588378906 4.40368700027466,22.7899646759033 4.25537157058716,19.7565078735352 4.00817918777466,17.4036884307861 3.662109375,15.7315063476563 2.97363328933716,14.8972320556641 1.98852550983429,14.710636138916 0,14.47265625 0.117187738418579,13.359375 1.85302770137787,13.4033203125 4.306640625,13.41796875 14.091796875,13.18359375z M23.84765625,0L27.919921875,0 19.482421875,10.4296875 18.076171875,10.4296875 23.84765625,0z" />
    </g>
  </g>
</svg>