<?xml version="1.0" encoding="utf-8"?>
<!DOCTYPE svg PUBLIC "-//W3C//DTD SVG 1.1//EN" "http://www.w3.org/Graphics/SVG/1.1/DTD/svg11.dtd">
<svg width="11.8066406250002" height="36.591796875" xmlns="http://www.w3.org/2000/svg" xmlns:xlink="http://www.w3.org/1999/xlink" xmlns:xml="http://www.w3.org/XML/1998/namespace" version="1.1">
  <g>
    <g>
      <path style="fill:#FF0000;fill-opacity:1" d="M7.353515625,13.447265625L7.91015625,13.564453125 7.63916015625,15.0439453125 7.412109375,17.080078125 7.0751953125,21.943359375 6.943359375,26.455078125 6.968994140625,28.238525390625 7.0458984375,30.6591796875 7.188720703125,32.955322265625 7.412109375,34.365234375 7.998046875,35.0390625 9.404296875,35.2734375 11.455078125,35.44921875 11.806640625,36.298828125 0,36.591796875 0.11718738079071,35.68359375 2.06542944908142,35.3472518920898 2.9296875,34.8060607910156 3.06884765625,34.1516304016113 3.193359375,32.7147674560547 3.38378953933716,28.3568572998047 3.438720703125,26.3790321350098 3.45703125,25.5052185058594 3.424072265625,22.0977973937988 3.3251953125,20.1821136474609 2.8125,18.5733032226563 2.3876953125,18.4272193908691 1.34765589237213,18.2810211181641 0.336913883686066,18.1117057800293 0,17.8962707519531 0.52734363079071,17.2998046875 3.97705078125,15.7926177978516 7.353515625,13.447265625z M6.6796875,0L10.751953125,0 2.314453125,10.4296875 0.90820300579071,10.4296875 6.6796875,0z" />
    </g>
  </g>
</svg>