<?xml version="1.0" encoding="utf-8"?>
<!DOCTYPE svg PUBLIC "-//W3C//DTD SVG 1.1//EN" "http://www.w3.org/Graphics/SVG/1.1/DTD/svg11.dtd">
<svg width="20.0976562500003" height="37.1484375" xmlns="http://www.w3.org/2000/svg" xmlns:xlink="http://www.w3.org/1999/xlink" xmlns:xml="http://www.w3.org/XML/1998/namespace" version="1.1">
  <g>
    <g>
      <path style="fill:#FF0000;fill-opacity:1" d="M11.923828125,27.5390625L8.44945907592773,27.6416015625 5.73417663574219,28.4765625 3.98237204551697,29.83154296875 3.39843678474426,31.494140625 4.11369323730469,33.984375 4.9639310836792,34.86328125 6.08413696289063,35.15625 8.20095062255859,34.62890625 11.748046875,33.046875 11.7260732650757,32.340087890625 11.7480459213257,31.1865234375 11.8139638900757,29.586181640625 11.923828125,27.5390625z M10.13671875,13.798828125L12.099609375,14.501953125 13.974609375,15.908203125 14.9267578125,17.0654296875 15.52734375,18.8671875 15.791015625,22.001953125 15.75439453125,23.26171875 15.64453125,25.927734375 15.52734375,28.125 15.41015625,30.64453125 15.732421875,33.22265625 16.20849609375,34.27734375 17.05078125,34.62890625 18.3837890625,34.41650390625 20.09765625,33.779296875 20.09765625,34.98046875 15.791015625,36.708984375 14.7802734375,37.03857421875 14.326171875,37.1484375 13.656005859375,36.925048828125 12.9931640625,36.2548828125 11.923828125,34.130859375 9.371337890625,35.4510498046875 7.13378858566284,36.39404296875 5.21118116378784,36.9598388671875 3.60351538658142,37.1484375 2.03613257408142,36.888427734375 0.908202886581421,36.1083984375 0.227050572633743,34.808349609375 0,32.98828125 0.120849430561066,31.25244140625 0.4833984375,30.029296875 2.05078101158142,28.505859375 6.708984375,26.8505859375 11.865234375,25.927734375 12.01171875,22.32421875 12.01171875,21.357421875 11.6564931869507,19.127197265625 10.5908203125,17.4169921875 9.049072265625,16.329345703125 7.265625,15.966796875 5.4345703125,16.4794921875 4.74243068695068,17.098388671875 4.51171875,17.9296875 4.8046875,19.189453125 1.201171875,20.80078125 0.966796636581421,19.423828125 1.42456018924713,17.984619140625 2.79785180091858,16.6552734375 6.9287109375,14.58984375 8.880615234375,13.99658203125 10.13671875,13.798828125z M8.12713623046875,0L10.7693481445313,0 16.611328125,10.4296875 15.2316284179688,10.4296875 9.5068359375,4.130859375 3.66485571861267,10.4296875 2.28515648841858,10.4296875 8.12713623046875,0z" />
    </g>
  </g>
</svg>