<?xml version="1.0" encoding="utf-8"?>
<!DOCTYPE svg PUBLIC "-//W3C//DTD SVG 1.1//EN" "http://www.w3.org/Graphics/SVG/1.1/DTD/svg11.dtd">
<svg width="14.326171875" height="36.591796875" xmlns="http://www.w3.org/2000/svg" xmlns:xlink="http://www.w3.org/1999/xlink" xmlns:xml="http://www.w3.org/XML/1998/namespace" version="1.1">
  <g>
    <g>
      <path style="fill:#FF0000;fill-opacity:1" d="M9.169921875,13.447265625L9.7265625,13.564453125 9.45556640625,15.0439453125 9.228515625,17.080078125 8.8916015625,21.943359375 8.759765625,26.455078125 8.785400390625,28.238525390625 8.8623046875,30.6591796875 9.005126953125,32.955322265625 9.228515625,34.365234375 9.814453125,35.0390625 11.220703125,35.2734375 13.271484375,35.44921875 13.623046875,36.298828125 1.81640589237213,36.591796875 1.93359375,35.68359375 3.88183569908142,35.3472518920898 4.74609375,34.8060607910156 4.88525390625,34.1516304016113 5.00976514816284,32.7147674560547 5.2001953125,28.3568572998047 5.255126953125,26.3790321350098 5.2734375,25.5052185058594 5.240478515625,22.0977973937988 5.1416015625,20.1821136474609 4.62890577316284,18.5733032226563 4.2041015625,18.4272193908691 3.1640625,18.2810211181641 2.15332007408142,18.1117057800293 1.81640589237213,17.8962707519531 2.34375,17.2998046875 5.79345703125,15.7926177978516 9.169921875,13.447265625z M5.84197998046875,0L8.48419189453125,0 14.326171875,10.4296875 12.9464721679688,10.4296875 7.2216796875,4.130859375 1.37969923019409,10.4296875 0,10.4296875 5.84197998046875,0z" />
    </g>
  </g>
</svg>