<?xml version="1.0" encoding="utf-8"?>
<!DOCTYPE svg PUBLIC "-//W3C//DTD SVG 1.1//EN" "http://www.w3.org/Graphics/SVG/1.1/DTD/svg11.dtd">
<svg width="23.583984375" height="22.96875" xmlns="http://www.w3.org/2000/svg" xmlns:xlink="http://www.w3.org/1999/xlink" xmlns:xml="http://www.w3.org/XML/1998/namespace" version="1.1">
  <g>
    <g>
      <path style="fill:#FF0000;fill-opacity:1" d="M17.9983520507813,6.25030517578125L6.20956420898438,17.7822875976563 7.56351470947266,19.3976783752441 9.0234375,20.5515289306641 10.5893325805664,21.243839263916 12.2611999511719,21.474609375 14.1545104980469,21.196460723877 15.9159851074219,20.3620147705078 17.4398231506348,19.0042304992676 18.6202239990234,17.1560668945313 19.3767356872559,14.9419784545898 19.62890625,12.4864196777344 19.2359161376953,9.39765930175781 17.9983520507813,6.25030517578125z M10.7862854003906,1.494140625L8.89532089233398,1.76576614379883 7.20954895019531,2.58064270019531 5.79860687255859,3.88006210327148 4.73213195800781,5.60531616210938 4.06145048141479,7.65357971191406 3.837890625,9.92202758789063 4.24163818359375,13.1964111328125 5.54306030273438,16.7056274414063 17.2952270507813,5.16677856445313 16.2581634521484,3.89974594116211 14.7885131835938,2.68409729003906 12.9449834823608,1.79162979125977 10.7862854003906,1.494140625z M22.55859375,0L23.4640502929688,0.90545654296875 20.6346130371094,3.67172241210938 22.8466396331787,7.05390930175781 23.583984375,11.1680603027344 23.2220058441162,14.1436958312988 22.1360778808594,16.9219207763672 20.3810691833496,19.3305015563965 18.0118560791016,21.1972045898438 15.1563835144043,22.3940277099609 11.9425964355469,22.79296875 7.99415588378906,22.1994781494141 5.92477798461914,21.3707542419434 3.86993408203125,20.0715637207031 0.908203363418579,22.96875 0.05859375,22.08984375 2.92922973632813,19.1889953613281 0.732307434082031,15.7759094238281 0,11.5718078613281 0.414505004882813,8.34583282470703 1.65802001953125,5.5224609375 3.60946655273438,3.20068359375 6.14776611328125,1.4794921875 9.09324645996094,0.413818359375 12.2662353515625,0.05859375 16.2571334838867,0.74066162109375 19.7200012207031,2.786865234375 22.55859375,0z" />
    </g>
  </g>
</svg>