<?xml version="1.0" encoding="utf-8"?>
<!DOCTYPE svg PUBLIC "-//W3C//DTD SVG 1.1//EN" "http://www.w3.org/Graphics/SVG/1.1/DTD/svg11.dtd">
<svg width="39.609375" height="47.197265625" xmlns="http://www.w3.org/2000/svg" xmlns:xlink="http://www.w3.org/1999/xlink" xmlns:xml="http://www.w3.org/XML/1998/namespace" version="1.1">
  <g>
    <g>
      <path style="fill:#FF0000;fill-opacity:1" d="M18.427734375,9.990234375L14.853515625,10.447998046875 11.513671875,11.8212890625 8.60595703125,14.0734872817993 6.328125,17.16796875 4.85595703125,20.9692401885986 4.365234375,25.341796875 4.9658203125,30.32958984375 6.767578125,35.0390625 9.580078125,39.151611328125 13.212890625,42.3486328125 17.373046875,44.403076171875 21.767578125,45.087890625 25.0378398895264,44.674072265625 28.1689453125,43.4326171875 30.955810546875,41.326904296875 33.193359375,38.3203125 34.66552734375,34.46044921875 35.15625,29.794921875 34.830322265625,25.8544921875 33.8525390625,22.119140625 32.29248046875,18.7097187042236 30.2197265625,15.7470703125 27.7111797332764,13.3154296875 24.84375,11.4990234375 21.7163066864014,10.367431640625 18.427734375,9.990234375z M20.2734375,7.939453125L23.8256816864014,8.291015625 27.333984375,9.345703125 30.63720703125,11.033935546875 33.57421875,13.2861328125 36.0498046875,16.1022968292236 37.96875,19.482421875 39.19921875,23.3056640625 39.609375,27.451171875 38.95751953125,32.523193359375 37.001953125,37.2509765625 33.885498046875,41.341552734375 29.7509765625,44.501953125 24.8034648895264,46.5234375 19.248046875,47.197265625 14.9853515625,46.7578125 11.162109375,45.439453125 7.825927734375,43.3740234375 5.0244140625,40.693359375 2.81250023841858,37.598876953125 1.24511742591858,34.2919921875 0.311279505491257,30.904541015625 0,27.568359375 0.706787347793579,22.4414081573486 2.82714867591858,17.724609375 6.119384765625,13.6816415786743 10.341796875,10.576171875 15.16845703125,8.5986328125 20.2734375,7.939453125z M24.43359375,0L26.0595703125,0.6884765625 26.71875,2.28515625 26.044921875,3.837890625 24.43359375,4.51171875 22.8662109375,3.8525390625 22.20703125,2.28515625 22.880859375,0.673828125 24.43359375,0z M15.17578125,0L16.787109375,0.6884765625 17.40234375,2.28515625 16.7724609375,3.8232421875 15.17578125,4.51171875 13.564453125,3.837890625 12.890625,2.28515625 13.5498046875,0.6884765625 15.17578125,0z" />
    </g>
  </g>
</svg>