<?xml version="1.0" encoding="utf-8"?>
<!DOCTYPE svg PUBLIC "-//W3C//DTD SVG 1.1//EN" "http://www.w3.org/Graphics/SVG/1.1/DTD/svg11.dtd">
<svg width="16.611328125" height="51.03515625" xmlns="http://www.w3.org/2000/svg" xmlns:xlink="http://www.w3.org/1999/xlink" xmlns:xml="http://www.w3.org/XML/1998/namespace" version="1.1">
  <g>
    <g>
      <path style="fill:#FF0000;fill-opacity:1" d="M0.351562201976776,12.94921875L3.03955054283142,13.095703125 4.482421875,13.18359375 6.97998046875,13.271484375 8.49609375,13.30078125 9.43359375,13.271484375 11.54296875,13.18359375 16.611328125,12.94921875 16.611328125,14.326171875 14.4433584213257,14.395809173584 13.095703125,14.6047210693359 11.689453125,15.7040405273438 11.2664794921875,17.2783470153809 10.96435546875,20.1537322998047 10.7830810546875,24.3301963806152 10.72265625,29.8077392578125 10.7235717773438,33.6423416137695 10.726318359375,36.701774597168 10.7308959960938,38.9860458374023 10.7373046875,40.4951477050781 10.83984375,45.289306640625 10.94970703125,47.0409965515137 11.162109375,48.1917572021484 11.6528310775757,48.9357948303223 12.59765625,49.4673156738281 14.1284170150757,49.793586730957 16.376953125,49.921875 16.259765625,51.03515625 15.648193359375,51.024169921875 14.6337890625,50.9912109375 12.1142578125,50.91796875 10.107421875,50.8740234375 8.49609375,50.859375 6.3427734375,50.8740234375 4.04296827316284,50.91796875 1.45019483566284,50.9912109375 0.52368152141571,51.024169921875 0.05859375,51.03515625 0,49.921875 2.6513671875,49.650993347168 4.27734422683716,49.1899108886719 5.80078125,47.4046325683594 6.28051710128784,45.1174163818359 6.5478515625,41.4179992675781 6.708984375,32.1240234375 6.69067335128784,29.6724414825439 6.63574171066284,26.7378616333008 6.54418897628784,23.3202838897705 6.416015625,19.4197082519531 6.25854444503784,17.4620246887207 5.96191358566284,16.1556243896484 5.36865186691284,15.3029823303223 4.32128953933716,14.7065734863281 2.691650390625,14.348030090332 0.351562201976776,14.208984375 0.351562201976776,12.94921875z M7.30682373046875,0L9.94903564453125,0 15.791015625,10.4296875 14.4113159179688,10.4296875 8.6865234375,4.13085985183716 2.84454369544983,10.4296875 1.46484327316284,10.4296875 7.30682373046875,0z" />
    </g>
  </g>
</svg>