<?xml version="1.0" encoding="utf-8"?>
<!DOCTYPE svg PUBLIC "-//W3C//DTD SVG 1.1//EN" "http://www.w3.org/Graphics/SVG/1.1/DTD/svg11.dtd">
<svg width="80.2734375" height="28.505859375" xmlns="http://www.w3.org/2000/svg" xmlns:xlink="http://www.w3.org/1999/xlink" xmlns:xml="http://www.w3.org/XML/1998/namespace" version="1.1">
  <g>
    <g>
      <path style="fill:#FF0000;fill-opacity:1" d="M30,0L33.7353515625,0.234375 36.6357421875,1.2158203125 38.525390625,3.3544921875 39.03076171875,4.976806640625 39.19921875,7.060546875 39.19921875,24.404296875 39.55078125,25.7666015625 40.83984375,26.162109375 41.7626953125,26.041259765625 42.3046875,25.6787109375 42.65625,24.404296875 42.65625,6.591796875 42.7734375,4.7314453125 43.125,3.251953125 44.6044921875,1.2451171875 47.1826171875,0.263671875 50.947265625,0 54.5068359375,0.234375 57.2900390625,1.2158203125 59.091796875,3.3544921875 59.5751953125,4.976806640625 59.736328125,7.060546875 59.736328125,24.404296875 60.087890625,25.7666015625 61.376953125,26.162109375 62.2998046875,26.041259765625 62.841796875,25.6787109375 63.193359375,24.404296875 63.193359375,6.591796875 63.310546875,4.7314453125 63.662109375,3.251953125 65.1416015625,1.2451171875 67.7197265625,0.263671875 71.484375,0 75.0439453125,0.234375 77.8271484375,1.2158203125 79.62890625,3.3544921875 80.1123046875,4.976806640625 80.2734375,7.060546875 80.2734375,28.095703125 74.912109375,28.095703125 74.912109375,6.6796875 74.6923828125,4.482421875 73.9599609375,3.1640625 72.59765625,2.51953125 70.458984375,2.34375 68.3056640625,2.5048828125 66.826171875,3.1201171875 65.9619140625,4.3798828125 65.68359375,6.474609375 65.68359375,24.31640625 65.33203125,26.484375 64.306640625,27.7587890625 62.6220703125,28.359375 60.29296875,28.505859375 57.4951171875,28.30078125 55.6640625,27.6123046875 54.66796875,26.30859375 54.375,24.2578125 54.375,6.6796875 54.1552734375,4.482421875 53.4228515625,3.1640625 52.060546875,2.51953125 49.921875,2.34375 47.7685546875,2.5048828125 46.2890625,3.1201171875 45.4248046875,4.3798828125 45.146484375,6.474609375 45.146484375,24.31640625 44.794921875,26.484375 43.76953125,27.7587890625 42.0849609375,28.359375 39.755859375,28.505859375 36.9580078125,28.30078125 35.126953125,27.6123046875 34.130859375,26.30859375 33.837890625,24.2578125 33.837890625,6.6796875 33.603515625,4.482421875 32.8271484375,3.1640625 31.3623046875,2.51953125 29.033203125,2.34375 26.6748046875,2.5048828125 25.078125,3.1201171875 24.169921875,4.3798828125 23.876953125,6.474609375 23.876953125,24.31640625 23.525390625,26.484375 22.4853515625,27.7587890625 20.80078125,28.359375 18.544921875,28.505859375 15.8056640625,28.30078125 14.033203125,27.6123046875 13.06640625,26.30859375 12.7734375,24.2578125 12.7734375,10.83984375 12.4951171875,8.173828125 11.689453125,6.4306640625 10.3857412338257,5.478515625 8.61328125,5.185546875 6.123046875,5.712890625 4.189453125,7.44140625 2.92968797683716,10.5908203125 2.60009717941284,12.762451171875 2.49023389816284,15.380859375 2.84179735183716,19.51171875 3.8818359375,22.3388671875 5.595703125,24.111328125 7.96875,25.048828125 7.294921875,27.24609375 3.98437476158142,25.938720703125 1.728515625,23.5400390625 0.43212890625,20.006103515625 0,15.29296875 0.556640148162842,9.814453125 2.32910203933716,5.7568359375 3.71337890625,4.295654296875 5.4345703125,3.22265625 7.525634765625,2.56347799301147 10.01953125,2.34375 13.6962890625,2.90771627426147 16.171875,4.599609375 17.578125,7.36083984375 18.046875,11.1328125 18.046875,24.404296875 18.3837890625,25.7958984375 19.599609375,26.162109375 21.03515625,25.72265625 21.38671875,24.404296875 21.38671875,6.591796875 21.5075664520264,4.7314453125 21.8701171875,3.251953125 23.3935546875,1.2451171875 26.07421875,0.263671875 30,0z" />
    </g>
  </g>
</svg>