<?xml version="1.0" encoding="utf-8"?>
<!DOCTYPE svg PUBLIC "-//W3C//DTD SVG 1.1//EN" "http://www.w3.org/Graphics/SVG/1.1/DTD/svg11.dtd">
<svg width="72.099609375" height="61.69921875" xmlns="http://www.w3.org/2000/svg" xmlns:xlink="http://www.w3.org/1999/xlink" xmlns:xml="http://www.w3.org/XML/1998/namespace" version="1.1">
  <g>
    <g>
      <path style="fill:#FF0000;fill-opacity:1" d="M24.404296875,0L26.348876953125,0.186769008636475 27.9052734375,0.7470703125 30.17578125,2.75390625 30.3515625,2.75390625 31.483154296875,1.45752096176147 32.8857421875,0.615234375 34.676513671875,0.153810024261475 36.97265625,0 40.9716796875,0.4248046875 43.9013671875,1.875 45.6884765625,4.5849609375 46.1389122009277,6.485595703125 46.2890625,8.818359375 46.2890625,27.1875 45.673828125,31.318359375 43.916015625,34.3505859375 41.1767578125,36.5185546875 37.6171875,38.056640625 33.3837890625,39.19921875 28.65234375,40.166015625 24.521484375,41.015625 20.6103515625,42.0263671875 17.1533203125,43.3740234375 14.3994140625,45.234375 12.5830078125,47.75390625 11.923828125,51.09375 12.5390625,54.3310546875 14.296875,56.6455078125 17.0654296875,58.037109375 20.68359375,58.505859375 24.609375,58.0224609375 27.8173828125,56.9677734375 30.7763671875,55.9130859375 33.955078125,55.4296875 37.294921875,55.9130859375 40.48828125,56.9677734375 43.798828125,58.0224609375 47.4609375,58.505859375 50.8483848571777,57.94921875 53.2177734375,56.279296875 54.6130332946777,53.5400390625 55.078125,49.775390625 55.078125,5.654296875 55.458984375,2.7685546875 56.630859375,1.0546875 58.6376953125,0.2197265625 61.494140625,0 64.7900390625,0.29296875 67.0166015625,1.40625 68.291015625,3.6767578125 68.5986328125,5.343017578125 68.701171875,7.44140625 68.701171875,45.3515625 68.7451171875,49.7314453125 68.935546875,52.880859375 69.31640625,55.1220703125 69.931640625,56.806640625 70.83984375,58.271484375 72.099609375,59.853515625 71.396484375,60.849609375 70.517578125,61.69921875 67.470703125,59.4140625 65.244140625,56.5869140625 63.8671875,52.705078125 63.515625,50.2001953125 63.3984375,47.197265625 63.3984375,7.08984375 63.2666015625,4.5703125 62.7978515625,3.134765625 61.904296875,2.490234375 60.52734375,2.34375 59.208984375,2.4609375 58.2861328125,2.900390625 57.744140625,3.837890625 57.568359375,5.44921875 57.568359375,49.775390625 56.865234375,54.66796875 54.84375,58.1396484375 51.6796875,60.2197265625 47.548828125,60.908203125 43.7109375,60.4248046875 40.341796875,59.3701171875 37.1630859375,58.3154296875 33.896484375,57.83203125 31.7578125,58.06640625 29.7802734375,58.6376953125 27.7734375,59.3701171875 25.517578125,60.1025390625 22.8076171875,60.673828125 19.453125,60.908203125 14.0625,60.263671875 10.0341796875,58.359375 8.57665920257568,56.96044921875 7.5146484375,55.283203125 6.866455078125,53.32763671875 6.650390625,51.09375 6.84814453125,48.980712890625 7.44140625,47.1533203125 9.5947265625,44.208984375 12.7880859375,42.041015625 16.728515625,40.458984375 21.123046875,39.287109375 25.6640625,38.3203125 29.278564453125,37.5439453125 32.3876953125,36.796875 35.006103515625,35.9619140625 37.1484375,34.921875 38.81103515625,33.6181640625 39.990234375,31.9921875 40.693359375,29.91943359375 40.927734375,27.275390625 40.927734375,8.4375 40.7080078125,5.712890625 39.9462890625,3.8232421875 38.49609375,2.7099609375 36.240234375,2.34375 33.99169921875,2.69531393051147 32.4609375,3.75 31.58203125,5.64697265625 31.2890625,8.525390625 28.9453125,8.525390625 28.67431640625,5.7568359375 27.861328125,3.837890625 26.43310546875,2.71728658676147 24.31640625,2.34375 22.294921875,2.666015625 21.0498046875,3.5009765625 20.4052734375,4.6435546875 20.21484375,5.859375 20.712890625,8.203125 18.3984375,8.935546875 17.9150390625,7.2802734375 17.75390625,5.7421875 18.0908203125,3.720703125 19.21875,1.8603515625 21.2841796875,0.5126953125 24.404296875,0z M7.939453125,0L10.341796875,0.29296875 12.12890625,1.2890625 13.2568359375,3.1640625 13.65234375,6.09375 13.65234375,21.5625 13.9599609375,23.7744140625 14.970703125,25.0634765625 16.845703125,25.6640625 19.74609375,25.810546875 22.4560546875,25.810546875 24.9609375,25.78125 24.990234375,25.6640625 23.6865234375,24.2578125 22.1484375,23.056640625 20.0830078125,22.2216796875 17.2265625,21.9140625 17.2265625,19.5703125 20.3173828125,19.8486328125 22.6025390625,20.5810546875 24.31640625,21.591796875 25.6640625,22.705078125 27.451171875,24.228515625 28.974609375,25.1513671875 30.8349609375,25.6201171875 33.603515625,25.751953125 33.603515625,28.095703125 30.6005859375,28.1396484375 27.59765625,28.154296875 24.31640625,28.154296875 20.537109375,28.154296875 17.515869140625,28.125 14.9560546875,28.037109375 12.83935546875,27.7880859375 11.1474609375,27.275390625 9.86572170257568,26.46240234375 8.9794921875,25.3125 8.46313381195068,23.7158203125 8.291015625,21.5625 8.291015625,5.947265625 8.1884765625,4.16015625 7.880859375,3.046875 7.353515625,2.490234375 6.5625,2.34375 5.0390625,2.75390625 3.7353515625,4.130859375 2.8271484375,6.6650390625 2.490234375,10.546875 2.490234375,19.3359375 2.69531297683716,22.119140625 3.33984375,24.0380859375 4.49706935882568,25.4296875 6.26953125,26.630859375 5.80078125,27.6708984375 4.951171875,28.505859375 2.62206983566284,26.9970703125 1.083984375,25.1806640625 0.2490234375,22.880859375 0,19.892578125 0,10.869140625 0.087890625,8.3203125 0.454102039337158,5.830078125 1.25976514816284,3.5595703125 2.66601610183716,1.69921875 4.833984375,0.4541015625 7.939453125,0z" />
    </g>
  </g>
</svg>