<?xml version="1.0" encoding="utf-8"?>
<!DOCTYPE svg PUBLIC "-//W3C//DTD SVG 1.1//EN" "http://www.w3.org/Graphics/SVG/1.1/DTD/svg11.dtd">
<svg width="62.6953125" height="28.798828125" xmlns="http://www.w3.org/2000/svg" xmlns:xlink="http://www.w3.org/1999/xlink" xmlns:xml="http://www.w3.org/XML/1998/namespace" version="1.1">
  <g>
    <g>
      <path style="fill:#FF0000;fill-opacity:1" d="M5.56640625,0L6.533203125,0.5859375 7.32421875,1.40625 6.4306640625,3.1494140625 5.8154296875,5.1416015625 5.4638671875,7.79296875 5.361328125,11.513671875 5.361328125,20.859375 5.595703125,23.408203125 6.26953125,25.048828125 7.3095703125,25.9130859375 8.642578125,26.162109375 10.1586904525757,25.8251953125 11.1328125,24.814453125 11.66015625,23.09326171875 11.8359375,20.625 11.8359375,5.7421875 12.2021484375,2.841796875 13.3154296875,1.0986328125 15.2197265625,0.234375 17.9296875,0 21.0791015625,0.3076171875 23.232421875,1.40625 24.4775390625,3.5888671875 24.7741680145264,5.174560546875 24.873046875,7.1484375 24.873046875,24.111328125 25.37109375,25.6201171875 26.1108379364014,26.026611328125 27.333984375,26.162109375 28.6962890625,25.986328125 29.53125,25.5322265625 29.94140625,24.8876953125 30.05859375,24.111328125 30.05859375,5.7421875 30.4248046875,2.841796875 31.5380859375,1.0986328125 33.4423828125,0.234375 36.15234375,0 39.3017578125,0.3076171875 41.455078125,1.40625 42.7001953125,3.5888671875 42.9968223571777,5.174560546875 43.095703125,7.1484375 43.095703125,24.111328125 43.59375,25.6201171875 44.3334922790527,26.026611328125 45.556640625,26.162109375 46.9189453125,25.986328125 47.75390625,25.5322265625 48.1640625,24.8876953125 48.28125,24.111328125 48.28125,5.7421875 48.6767578125,2.8564453125 49.86328125,1.0986328125 51.8115234375,0.234375 54.521484375,0 57.7587890625,0.3076171875 60,1.34765625 61.3037109375,3.2958984375 61.728515625,6.357421875 61.50146484375,8.865966796875 60.8203125,10.8251953125 58.30078125,13.447265625 58.30078125,13.564453125 60.2490234375,14.5751953125 61.6259765625,16.0107421875 62.431640625,17.958984375 62.6953125,20.5078125 62.2412109375,23.909912109375 60.87890625,26.3232421875 58.55712890625,27.762451171875 55.224609375,28.2421875 54.08203125,28.1982421875 52.8515625,28.095703125 52.8515625,25.576171875 53.408203125,25.6201171875 53.994140625,25.634765625 55.6787109375,25.341796875 56.71875,24.43359375 57.24609375,22.880859375 57.392578125,20.654296875 57.1875,18.0029296875 56.4697265625,16.2451171875 55.078125,15.2490234375 52.8515625,14.912109375 52.8515625,12.59765625 54.3603515625,12.36328125 55.48828125,11.484375 56.19140625,9.7119140625 56.42578125,6.826171875 56.279296875,4.74609375 55.78125,3.3544921875 54.8291015625,2.578125 53.349609375,2.34375 52.294921875,2.4609375 51.4892578125,2.9296875 50.9619140625,3.9111328125 50.771484375,5.537109375 50.771484375,24.0234375 50.361328125,26.2646484375 49.16015625,27.626953125 47.197265625,28.3154296875 44.47265625,28.505859375 41.30859375,28.2568359375 39.228515625,27.4658203125 38.0859375,26.0595703125 37.734375,23.96484375 37.734375,6.767578125 37.6171875,4.482421875 37.20703125,3.134765625 36.416015625,2.5048828125 35.15625,2.34375 33.9697265625,2.4609375 33.1640625,2.9296875 32.6953125,3.9111328125 32.548828125,5.537109375 32.548828125,24.0234375 32.138671875,26.2646484375 30.9375,27.626953125 28.974609375,28.3154296875 26.25,28.505859375 23.0859375,28.2568359375 21.005859375,27.4658203125 19.86328125,26.0595703125 19.51171875,23.96484375 19.51171875,6.767578125 19.39453125,4.482421875 18.984375,3.134765625 18.193359375,2.5048828125 16.93359375,2.34375 15.7470703125,2.4609375 14.94140625,2.9296875 14.47265625,3.9111328125 14.326171875,5.537109375 14.326171875,21.97265625 13.828125,25.166015625 12.4658203125,27.275390625 10.400390625,28.447265625 7.79296875,28.798828125 6.123046875,28.6669921875 4.3798828125,28.18359375 2.724609375,27.2021484375 1.33300733566284,25.5615234375 0.3662109375,23.1005859375 0,19.658203125 0,11.3671875 0.1611328125,8.6572265625 0.8935546875,5.654296875 2.578125,2.666015625 3.8818359375,1.26709127426147 5.56640625,0z" />
    </g>
  </g>
</svg>