<?xml version="1.0" encoding="utf-8"?>
<!DOCTYPE svg PUBLIC "-//W3C//DTD SVG 1.1//EN" "http://www.w3.org/Graphics/SVG/1.1/DTD/svg11.dtd">
<svg width="57.2167968750006" height="87.216796875" xmlns="http://www.w3.org/2000/svg" xmlns:xlink="http://www.w3.org/1999/xlink" xmlns:xml="http://www.w3.org/XML/1998/namespace" version="1.1">
  <g>
    <g>
      <path style="fill:#FF0000;fill-opacity:1" d="M41.572265625,47.314453125L36.6357421875,48.720703125 31.318359375,49.951171875 23.876953125,51.6943359375 17.05078125,53.9208984375 11.1767578125,56.8798828125 6.56249952316284,60.8056640625 4.84497022628784,63.218994140625 3.55956983566284,65.9765625 2.75756764411926,69.111328125 2.490234375,72.65625 3.22265577316284,77.9150390625 5.31738233566284,81.7236328125 8.61328125,84.052734375 10.6567363739014,84.6459884643555 12.919921875,84.84375 16.376953125,84.3896484375 19.130859375,83.408203125 21.5625,82.4267578125 24.052734375,81.97265625 26.6015625,82.4267578125 29.1357421875,83.408203125 31.845703125,84.3896484375 34.921875,84.84375 37.8076171875,84.3017578125 39.8876953125,82.587890625 41.1474609375,79.5849609375 41.572265625,75.17578125 41.572265625,47.314453125z M25.048828125,0L26.993408203125,0.186769008636475 28.5498046875,0.7470703125 30.8203125,2.75390625 30.99609375,2.75390625 32.127685546875,1.45752096176147 33.5302734375,0.615234375 35.321044921875,0.153810024261475 37.6171875,0 41.6162109375,0.4248046875 44.5458984375,1.875 46.3330078125,4.5849609375 46.7834434509277,6.485595703125 46.93359375,8.818359375 46.93359375,27.509765625 46.93359375,28.095703125 46.93359375,40.927734375 50.068359375,39.66796875 52.265625,38.26171875 53.8037109375,36.5478515625 54.9609375,34.3359375 56.1328125,34.5263671875 57.216796875,35.009765625 55.78125,38.6572265625 53.525390625,41.4990234375 50.537109375,43.7255859375 46.93359375,45.498046875 46.93359375,75.17578125 46.7175254821777,78.1640548706055 46.0693359375,80.68359375 45.0439414978027,82.7600021362305 43.6962890625,84.4189453125 42.052001953125,85.6750411987305 40.13671875,86.54296875 35.7421875,87.216796875 32.0068359375,86.7626953125 29.0771484375,85.78125 26.54296875,84.7998046875 23.994140625,84.345703125 21.5478515625,84.7998046875 19.2333984375,85.78125 16.494140625,86.7626953125 12.83203125,87.216796875 9.85839748382568,86.9384689331055 7.26562547683716,86.103515625 5.06103467941284,84.7631759643555 3.25195217132568,82.96875 1.83837795257568,80.7421798706055 0.820311546325684,78.10546875 0.205077648162842,75.1171875 0,71.8359375 0.303954601287842,67.760009765625 1.21581935882568,64.1455078125 2.66601467132568,60.94482421875 4.58496046066284,58.1103515625 9.638671875,53.4521484375 15.8935546875,49.9365234375 22.9248046875,47.2998046875 30.263671875,45.263671875 36.09375,43.857421875 41.572265625,42.451171875 41.572265625,28.095703125 41.572265625,27.509765625 41.572265625,8.4375 41.3525390625,5.712890625 40.5908203125,3.8232421875 39.140625,2.7099609375 36.884765625,2.34375 34.63623046875,2.69531393051147 33.10546875,3.75 32.2265625,5.64697265625 31.93359375,8.525390625 29.58984375,8.525390625 29.31884765625,5.7568359375 28.505859375,3.837890625 27.07763671875,2.71728658676147 24.9609375,2.34375 22.939453125,2.666015625 21.6943359375,3.5009765625 21.0498046875,4.6435546875 20.859375,5.859375 21.357421875,8.203125 19.04296875,8.935546875 18.5595703125,7.2802734375 18.3984375,5.7421875 18.7353515625,3.720703125 19.86328125,1.8603515625 21.9287109375,0.5126953125 25.048828125,0z M8.583984375,0L10.986328125,0.29296875 12.7734375,1.2890625 13.9013671875,3.1640625 14.296875,6.09375 14.296875,21.5625 14.6044921875,23.7744140625 15.615234375,25.0634765625 17.490234375,25.6640625 20.390625,25.810546875 23.1005859375,25.810546875 25.60546875,25.78125 25.634765625,25.6640625 24.3310546875,24.2578125 22.79296875,23.056640625 20.7275390625,22.2216796875 17.87109375,21.9140625 17.87109375,19.5703125 20.9619140625,19.8486328125 23.2470703125,20.5810546875 24.9609375,21.591796875 26.30859375,22.705078125 28.095703125,24.228515625 29.619140625,25.1513671875 31.4794921875,25.6201171875 34.248046875,25.751953125 34.248046875,28.095703125 31.2451171875,28.1396484375 28.2421875,28.154296875 24.9609375,28.154296875 21.181640625,28.154296875 18.160400390625,28.125 15.6005859375,28.037109375 13.48388671875,27.7880859375 11.7919921875,27.275390625 10.5102519989014,26.46240234375 9.6240234375,25.3125 9.10766410827637,23.7158203125 8.935546875,21.5625 8.935546875,5.947265625 8.83300590515137,4.16015625 8.525390625,3.046875 7.99804639816284,2.490234375 7.20703077316284,2.34375 5.68359231948853,2.75390625 4.37988328933716,4.130859375 3.47167921066284,6.6650390625 3.134765625,10.546875 3.134765625,19.3359375 3.33984375,22.119140625 3.98437356948853,24.0380859375 5.14160108566284,25.4296875 6.91406202316284,26.630859375 6.44531202316284,27.6708984375 5.59570264816284,28.505859375 3.2666015625,26.9970703125 1.72851514816284,25.1806640625 0.893553733825684,22.880859375 0.64453125,19.892578125 0.64453125,10.869140625 0.732421398162842,8.3203125 1.09863185882568,5.830078125 1.904296875,3.5595703125 3.31054592132568,1.69921875 5.47851514816284,0.4541015625 8.583984375,0z" />
    </g>
  </g>
</svg>