<?xml version="1.0" encoding="utf-8"?>
<!DOCTYPE svg PUBLIC "-//W3C//DTD SVG 1.1//EN" "http://www.w3.org/Graphics/SVG/1.1/DTD/svg11.dtd">
<svg width="46.2890625" height="28.916015625" xmlns="http://www.w3.org/2000/svg" xmlns:xlink="http://www.w3.org/1999/xlink" xmlns:xml="http://www.w3.org/XML/1998/namespace" version="1.1">
  <g>
    <g>
      <path style="fill:#FF0000;fill-opacity:1" d="M27.3046875,21.708984375L27.3046875,22.001953125 27.4072265625,23.5400390625 27.8173828125,25.0048828125 28.65234375,26.103515625 30.029296875,26.54296875 31.3916015625,26.1181640625 31.904296875,24.84375 31.40625,23.466796875 30.205078125,22.529296875 28.7109375,21.9580078125 27.3046875,21.708984375z M35.09765625,0L39.580078125,0.2490234375 43.125,1.3623046875 44.4543418884277,2.43164205551147 45.4541015625,3.9111328125 46.0803184509277,5.885009765625 46.2890625,8.4375 46.2890625,28.095703125 40.927734375,28.095703125 40.927734375,8.056640625 40.850830078125,6.346435546875 40.6201171875,5.0244140625 39.55078125,3.2958984375 37.529296875,2.51953125 34.39453125,2.34375 31.1572265625,2.51953125 28.9599609375,3.28125 27.7001953125,4.951171875 27.403564453125,6.2255859375 27.3046875,7.880859375 27.3046875,19.482421875 29.794921875,19.9658203125 32.1533203125,21.0205078125 33.9111328125,22.705078125 34.599609375,25.048828125 34.2333984375,26.748046875 33.251953125,27.9638671875 31.81640625,28.681640625 30.087890625,28.916015625 27.78076171875,28.4619140625 26.1328125,27.099609375 25.1440410614014,24.9169921875 24.814453125,22.001953125 24.814453125,21.796875 23.3935546875,22.3388671875 22.353515625,23.1591796875 21.5771484375,24.140625 20.947265625,25.1953125 20.09765625,26.54296875 18.9990234375,27.744140625 17.373046875,28.59375 14.94140625,28.916015625 12.0556640625,28.4912109375 9.814453125,27.1728515625 8.3642578125,24.873046875 7.8515625,21.533203125 7.8515625,13.681640625 7.8955078125,10.72265625 8.232421875,7.7490234375 9.169921875,4.9951171875 10.986328125,2.666015625 10.95703125,2.548828125 8.74877834320068,2.66601705551147 6.9287109375,3.017578125 4.3212890625,4.541015625 2.9150390625,7.32421875 2.59643507003784,9.2578125 2.490234375,11.6015625 2.490234375,19.3359375 2.6513671875,22.1044921875 3.193359375,23.994140625 4.2333984375,25.3857421875 5.859375,26.630859375 5.390625,27.6708984375 4.541015625,28.505859375 2.34375,26.9677734375 0.9521484375,25.1513671875 0.2197265625,22.8662109375 0,19.892578125 0,11.923828125 0.142822265625,9.019775390625 0.5712890625,6.5771484375 1.34765589237213,4.566650390625 2.5341796875,2.958984375 4.163818359375,1.73950338363647 6.26953125,0.8935546875 8.91357326507568,0.399171352386475 12.158203125,0.234375 12.8173828125,0.234375 14.091796875,0.2490234375 15.615234375,0.3076171875 17.05078125,0.41015625 17.05078125,2.666015625 14.970703125,4.423828125 13.8134765625,7.1044921875 13.3154296875,10.283203125 13.212890625,13.53515625 13.212890625,22.44140625 13.4765625,24.6826171875 14.1357421875,25.927734375 14.970703125,26.455078125 15.76171875,26.572265625 16.875,26.3818359375 17.724609375,25.83984375 18.4130859375,25.01953125 19.04296875,23.994140625 19.9072265625,22.587890625 21.0205078125,21.2841796875 22.587890625,20.21484375 24.814453125,19.51171875 24.814453125,7.998046875 24.9536113739014,5.6689453125 25.37109375,3.837890625 27.1435546875,1.40625 30.322265625,0.2783203125 32.49755859375,0.0695815086364746 35.09765625,0z" />
    </g>
  </g>
</svg>