<?xml version="1.0" encoding="utf-8"?>
<!DOCTYPE svg PUBLIC "-//W3C//DTD SVG 1.1//EN" "http://www.w3.org/Graphics/SVG/1.1/DTD/svg11.dtd">
<svg width="46.2890625" height="28.916015625" xmlns="http://www.w3.org/2000/svg" xmlns:xlink="http://www.w3.org/1999/xlink" xmlns:xml="http://www.w3.org/XML/1998/namespace" version="1.1">
  <g>
    <g>
      <path style="fill:#FF0000;fill-opacity:1" d="M39.404296875,0L42.5244140625,0.29296875 44.6630859375,1.40625 45.8935546875,3.6767578125 46.1901817321777,5.343017578125 46.2890625,7.44140625 46.2890625,28.095703125 40.927734375,28.095703125 40.927734375,7.08984375 40.810546875,4.5703125 40.4150390625,3.134765625 39.638671875,2.490234375 38.37890625,2.34375 37.2216796875,2.4609375 36.4306640625,2.900390625 35.9765625,3.837890625 35.830078125,5.44921875 35.830078125,21.09375 35.460205078125,24.708251953125 34.3505859375,27.1142578125 32.515869140625,28.465576171875 29.970703125,28.916015625 27.3779296875,28.505859375 25.6640625,27.451171875 24.580078125,26.015625 23.90625,24.462890625 23.5546875,23.3935546875 23.26171875,22.5 22.91015625,21.8994140625 22.412109375,21.6796875 21.9287109375,21.9287109375 21.533203125,22.55859375 21.2109375,23.408203125 20.91796875,24.287109375 20.21484375,25.869140625 19.1015625,27.36328125 17.314453125,28.4765625 14.560546875,28.916015625 11.806640625,28.4912109375 9.697265625,27.1875 8.3349609375,24.931640625 7.8515625,21.650390625 7.8515625,13.681640625 7.8955078125,10.72265625 8.232421875,7.7490234375 9.169921875,4.9951171875 10.986328125,2.666015625 10.95703125,2.548828125 8.74877834320068,2.66601705551147 6.9287109375,3.017578125 4.3212890625,4.541015625 2.9150390625,7.32421875 2.59643507003784,9.2578125 2.490234375,11.6015625 2.490234375,19.3359375 2.6513671875,22.1044921875 3.193359375,23.994140625 4.2333984375,25.3857421875 5.859375,26.630859375 5.390625,27.6708984375 4.541015625,28.505859375 2.34375,26.9677734375 0.9521484375,25.1513671875 0.2197265625,22.8662109375 0,19.892578125 0,11.923828125 0.142822265625,9.019775390625 0.5712890625,6.5771484375 1.34765589237213,4.566650390625 2.5341796875,2.958984375 4.163818359375,1.73950338363647 6.26953125,0.8935546875 8.91357326507568,0.399171352386475 12.158203125,0.234375 12.8173828125,0.234375 14.091796875,0.2490234375 15.615234375,0.3076171875 17.05078125,0.41015625 17.05078125,2.666015625 14.970703125,4.423828125 13.8134765625,7.1044921875 13.3154296875,10.283203125 13.212890625,13.53515625 13.212890625,22.265625 13.41796875,24.462890625 13.9453125,25.78125 14.70703125,26.4111328125 15.5859375,26.572265625 16.9775390625,26.1767578125 17.958984375,25.1220703125 18.662109375,23.61328125 19.248046875,21.884765625 19.8193359375,20.1708984375 20.56640625,18.6181640625 21.6357421875,17.490234375 23.14453125,17.05078125 24.697265625,17.5341796875 25.810546875,18.779296875 26.6162109375,20.4931640625 27.275390625,22.353515625 27.8173828125,23.935546875 28.4619140625,25.283203125 29.3115234375,26.220703125 30.498046875,26.572265625 31.5673828125,26.30859375 32.4755859375,25.400390625 33.10546875,23.6865234375 33.33984375,21.005859375 33.33984375,5.654296875 33.7060546875,2.7685546875 34.8193359375,1.0546875 36.708984375,0.2197265625 39.404296875,0z" />
    </g>
  </g>
</svg>