<?xml version="1.0" encoding="utf-8"?>
<!DOCTYPE svg PUBLIC "-//W3C//DTD SVG 1.1//EN" "http://www.w3.org/Graphics/SVG/1.1/DTD/svg11.dtd">
<svg width="48.544921875" height="58.447265625" xmlns="http://www.w3.org/2000/svg" xmlns:xlink="http://www.w3.org/1999/xlink" xmlns:xml="http://www.w3.org/XML/1998/namespace" version="1.1">
  <g>
    <g>
      <path style="fill:#FF0000;fill-opacity:1" d="M20.244140625,32.75390625L20.5224609375,32.75390625 21.005859375,32.783203125 21.005859375,35.126953125 20.7275390625,35.09765625 20.56640625,35.09765625 19.1015605926514,35.3173828125 17.98828125,35.9765625 17.28515625,36.95068359375 17.05078125,38.115234375 17.3876953125,39.375 18.2666015625,40.1806640625 19.4970703125,40.6494140625 20.91796875,40.8984375 22.96875,41.2939453125 25.283203125,42.24609375 27.5830078125,44.091796875 29.619140625,47.16796875 30.443115234375,49.288330078125 31.0986328125,51.8408203125 31.549072265625,54.876708984375 31.7578125,58.447265625 26.396484375,58.447265625 26.2573223114014,55.0927734375 26.015625,52.294921875 25.6750469207764,49.98779296875 25.2392578125,48.10546875 24.111328125,45.4833984375 22.6611328125,44.033203125 20.9033203125,43.3447265625 18.896484375,43.037109375 15.99609375,42.5244140625 13.7255859375,41.630859375 12.2314453125,40.25390625 11.689453125,38.291015625 12.333984375,36.005859375 14.12109375,34.2626953125 16.8310546875,33.1494140625 20.244140625,32.75390625z M32.314453125,2.578125L27.8466796875,3.2958984375 24.31640625,5.361328125 21.943359375,8.5986328125 21.2548809051514,10.601806640625 20.947265625,12.83203125 24.8748779296875,10.3472900390625 29.42138671875,8.37158203125 34.5867919921875,6.9049072265625 40.37109375,5.947265625 38.902587890625,4.427490234375 36.9580078125,3.3837890625 34.705810546875,2.77954244613647 32.314453125,2.578125z M7.58789110183716,0L9.9609375,0.29296875 11.77734375,1.3037109375 12.94921875,3.2080078125 13.359375,6.181640625 13.359375,21.5625 13.65234375,23.7744140625 14.6484375,25.0634765625 16.5087890625,25.6640625 19.39453125,25.810546875 20.3759765625,25.810546875 22.060546875,25.78125 22.08984375,25.6640625 20.5371074676514,24.2431640625 19.51171875,22.67578125 18.9404277801514,20.9619140625 18.75,19.1015625 18.75,12.890625 19.0100078582764,10.166015625 19.7900390625,7.67578125 21.0644512176514,5.467529296875 22.8076171875,3.5888671875 25.0048809051514,2.06909322738647 27.6416015625,0.9375 30.684814453125,0.234376430511475 34.1015625,0 38.994140625,0.5126953125 43.0810546875,1.9921875 46.142578125,4.3798828125 47.958984375,7.6171875 47.841796875,7.880859375 39.2724609375,8.4814453125 32.109375,9.9462890625 26.3525390625,12.12890625 22.001953125,14.82421875 22.060546875,14.94140625 26.8505859375,15.245361328125 31.435546875,15.9814453125 35.687255859375,17.1240234375 39.4775390625,18.6474609375 42.7441368103027,20.52978515625 45.4248046875,22.7490234375 47.3986778259277,25.279541015625 48.544921875,28.095703125 42.919921875,28.095703125 41.2353515625,24.5947265625 38.3642578125,21.826171875 34.62890625,19.7314453125 30.3369140625,18.28125 25.7666015625,17.4462890625 21.240234375,17.16796875 21.240234375,18.75 21.826171875,21.6357421875 23.3642578125,23.5986328125 25.5322265625,24.7998046875 28.0224609375,25.4443359375 30.498046875,25.7080078125 32.63671875,25.751953125 32.63671875,28.095703125 29.7216796875,28.1396484375 26.865234375,28.154296875 23.7451171875,28.154296875 20.068359375,28.154296875 17.080078125,28.125 14.560546875,28.037109375 12.48046875,27.7880859375 10.810546875,27.275390625 9.54345703125,26.46240234375 8.671875,25.3125 8.16650390625,23.7158203125 7.99804735183716,21.5625 7.99804735183716,6.03515625 7.91015672683716,4.2041015625 7.61718797683716,3.076171875 7.08984422683716,2.5048828125 6.29882860183716,2.34375 4.90722703933716,2.724609375 3.67675828933716,4.0283203125 2.81250047683716,6.50390625 2.57080078125,8.2470703125 2.49023485183716,10.37109375 2.49023485183716,19.3359375 2.69531297683716,22.119140625 3.33984422683716,24.0380859375 4.49707078933716,25.4296875 6.26953172683716,26.630859375 5.80078172683716,27.6708984375 4.95117235183716,28.505859375 2.62207126617432,26.9970703125 1.08398485183716,25.1806640625 0.249023914337158,22.880859375 0,19.892578125 0,10.693359375 0.205078601837158,6.9140625 1.18652439117432,3.4716796875 3.47168016433716,0.966796875 5.25512742996216,0.241700649261475 7.58789110183716,0z" />
    </g>
  </g>
</svg>