<?xml version="1.0" encoding="utf-8"?>
<!DOCTYPE svg PUBLIC "-//W3C//DTD SVG 1.1//EN" "http://www.w3.org/Graphics/SVG/1.1/DTD/svg11.dtd">
<svg width="32.841796875" height="70.37109375" xmlns="http://www.w3.org/2000/svg" xmlns:xlink="http://www.w3.org/1999/xlink" xmlns:xml="http://www.w3.org/XML/1998/namespace" version="1.1">
  <g>
    <g>
      <path style="fill:#FF0000;fill-opacity:1" d="M15.322265625,0L18.138427734375,0.216064453125 20.7861328125,0.8642578125 23.1921367645264,2.02880859375 25.283203125,3.7939453125 27.01171875,6.19629049301147 28.330078125,9.2724609375 29.1650390625,13.0993671417236 29.443359375,17.75390625 29.443359375,54.0234375 29.4873046875,58.4033203125 29.677734375,61.552734375 30.05859375,63.7939453125 30.673828125,65.478515625 31.58203125,66.943359375 32.841796875,68.525390625 32.138671875,69.521484375 31.259765625,70.37109375 28.212890625,68.0859375 26.0009765625,65.2587890625 24.638671875,61.376953125 24.2871074676514,58.8720703125 24.169921875,55.869140625 24.169921875,17.548828125 24.0252666473389,14.0277109146118 23.5913066864014,10.9643573760986 22.8680400848389,8.35876560211182 21.85546875,6.2109375 20.5279521942139,4.5318603515625 18.8598613739014,3.33251953125 16.8511943817139,2.6129150390625 14.501953125,2.373046875 10.634765625,3.046875 7.5732421875,4.9365234375 5.2734375,7.822265625 3.69140625,11.455078125 2.78320264816284,15.615234375 2.490234375,20.068359375 2.65502882003784,23.45947265625 3.1494140625,26.42578125 3.922119140625,28.956298828125 4.921875,31.0400390625 6.119384765625,32.67333984375 7.4853515625,33.8525390625 8.97582912445068,34.566650390625 10.546875,34.8046875 12.509765625,34.3505859375 13.9306640625,33.0908203125 14.794921875,31.1865234375 15.087890625,28.76953125 14.754638671875,26.304931640625 13.7548828125,24.4189453125 12.037353515625,23.221435546875 9.55078125,22.822265625 9.55078125,20.478515625 11.9970703125,20.15625 13.5498046875,19.21875 14.35546875,17.7099609375 14.58984375,15.673828125 14.410400390625,13.787841796875 13.8720703125,12.3486328125 12.982177734375,11.4367694854736 11.748046875,11.1328125 9.8583984375,11.8505859375 9.04174709320068,12.8210468292236 8.37890625,14.296875 6.09375,13.505859375 7.196044921875,11.2133808135986 8.68652248382568,9.7265625 10.506591796875,8.91357612609863 12.59765625,8.642578125 15.76171875,9.2138671875 18.046875,10.72265625 19.423828125,12.9052734375 19.892578125,15.46875 19.6362285614014,17.34375 18.8671875,18.984375 17.5927734375,20.33935546875 15.8203125,21.357421875 15.8203125,21.591796875 17.8454570770264,22.8570556640625 19.2919902801514,24.48486328125 20.1599102020264,26.4752197265625 20.44921875,28.828125 19.7314453125,32.431640625 17.783203125,35.185546875 14.8828125,36.943359375 11.30859375,37.55859375 8.80737209320068,37.25830078125 6.5771484375,36.357421875 4.639892578125,34.88525390625 3.01757764816284,32.87109375 1.72485315799713,30.340576171875 0.776367664337158,27.3193359375 0.194091856479645,23.836669921875 0,19.921875 0.322265625,14.8974609375 1.37695360183716,10.2099609375 3.28125,6.123046875 6.16699123382568,2.8857421875 10.13671875,0.76171875 12.56103515625,0.1904296875 15.322265625,0z" />
    </g>
  </g>
</svg>