<?xml version="1.0" encoding="utf-8"?>
<!DOCTYPE svg PUBLIC "-//W3C//DTD SVG 1.1//EN" "http://www.w3.org/Graphics/SVG/1.1/DTD/svg11.dtd">
<svg width="72.65625" height="29.267578125" xmlns="http://www.w3.org/2000/svg" xmlns:xlink="http://www.w3.org/1999/xlink" xmlns:xml="http://www.w3.org/XML/1998/namespace" version="1.1">
  <g>
    <g>
      <path style="fill:#FF0000;fill-opacity:1" d="M40.6640625,19.775390625L40.6640625,24.404296875 41.044921875,25.7666015625 42.451171875,26.162109375 43.4509239196777,26.041259765625 44.0478515625,25.6787109375 44.443359375,24.404296875 44.443359375,19.951171875 40.6640625,19.775390625z M52.470703125,2.34375L49.9658203125,2.5048828125 48.251953125,3.1201171875 47.255859375,4.3798828125 46.93359375,6.474609375 46.93359375,17.724609375 52.4853515625,18.0322265625 57.626953125,18.57421875 57.626953125,6.6796875 57.3779296875,4.482421875 56.54296875,3.1640625 54.9609375,2.51953125 52.470703125,2.34375z M31.025390625,0L34.9365234375,0.234375 37.9833984375,1.2158203125 39.9609375,3.3544921875 40.48828125,4.976806640625 40.6640625,7.060546875 40.6640625,17.4609375 44.443359375,17.63671875 44.443359375,6.591796875 44.5715293884277,4.7314453125 44.9560546875,3.251953125 46.552734375,1.2451171875 49.3505859375,0.263671875 53.4375,0 57.3046875,0.234375 60.322265625,1.2158203125 62.28515625,3.3544921875 62.8125,4.976806640625 62.98828125,7.060546875 62.98828125,19.658203125 66.6943359375,21.0205078125 69.6240234375,22.9541015625 71.6455078125,25.5615234375 72.65625,28.9453125 71.54296875,29.1943359375 70.400390625,29.267578125 69.6533203125,28.1982421875 68.408203125,27.919921875 67.0166015625,28.06640625 65.537109375,28.447265625 65.09765625,27.421875 64.833984375,26.25 66.7236328125,25.751953125 68.583984375,25.458984375 66.240234375,23.37890625 62.98828125,21.943359375 62.98828125,28.095703125 57.626953125,28.095703125 57.626953125,20.80078125 52.5439453125,20.3173828125 46.93359375,20.0390625 46.93359375,24.31640625 46.5673828125,26.484375 45.498046875,27.7587890625 43.7548828125,28.359375 41.3671875,28.505859375 38.4814453125,28.30078125 36.62109375,27.6123046875 35.6103515625,26.30859375 35.302734375,24.2578125 35.302734375,19.365234375 31.8017578125,18.75 29.1357421875,17.7392578125 27.451171875,16.201171875 26.865234375,14.00390625 27.0776348114014,12.57568359375 27.71484375,11.279296875 28.82080078125,10.2099609375 30.439453125,9.462890625 30.966796875,10.458984375 31.2890625,11.6015625 29.853515625,12.5390625 29.35546875,13.9453125 29.74365234375,15.17578125 30.908203125,16.0546875 32.783203125,16.66259765625 35.302734375,17.080078125 35.302734375,6.6796875 35.0537109375,4.482421875 34.2041015625,3.1640625 32.5927734375,2.51953125 30.05859375,2.34375 27.509765625,2.5048828125 25.78125,3.1201171875 24.78515625,4.3798828125 24.462890625,6.474609375 24.462890625,24.31640625 24.0966796875,26.484375 23.02734375,27.7587890625 21.3134765625,28.359375 18.984375,28.505859375 16.171875,28.30078125 14.3408203125,27.6123046875 13.359375,26.30859375 13.06640625,24.2578125 13.06640625,10.83984375 12.7880859375,8.173828125 11.9677734375,6.4306640625 10.6201171875,5.478515625 8.7890625,5.185546875 6.22558498382568,5.712890625 4.2333984375,7.44140625 2.94433641433716,10.5908203125 2.60375952720642,12.762451171875 2.490234375,15.380859375 2.84179735183716,19.51171875 3.8818359375,22.3388671875 5.595703125,24.111328125 7.96875,25.048828125 7.294921875,27.24609375 3.984375,25.938720703125 1.72851610183716,23.5400390625 0.432128965854645,20.006103515625 0,15.29296875 0.571289539337158,9.814453125 2.373046875,5.7568359375 3.77929663658142,4.295654296875 5.537109375,3.22265625 7.66845703125,2.56347799301147 10.1953125,2.34375 13.916015625,2.9150390625 16.4501953125,4.599609375 17.8857421875,7.353515625 18.33984375,11.1328125 18.33984375,24.404296875 18.7060546875,25.7958984375 20.0390625,26.162109375 21.0131816864014,26.05224609375 21.591796875,25.72265625 21.97265625,24.404296875 21.97265625,6.591796875 22.1008281707764,4.7314453125 22.4853515625,3.251953125 24.08203125,1.2451171875 26.8798828125,0.263671875 31.025390625,0z" />
    </g>
  </g>
</svg>