<?xml version="1.0" encoding="utf-8"?>
<!DOCTYPE svg PUBLIC "-//W3C//DTD SVG 1.1//EN" "http://www.w3.org/Graphics/SVG/1.1/DTD/svg11.dtd">
<svg width="52.91015625" height="61.728515625" xmlns="http://www.w3.org/2000/svg" xmlns:xlink="http://www.w3.org/1999/xlink" xmlns:xml="http://www.w3.org/XML/1998/namespace" version="1.1">
  <g>
    <g>
      <path style="fill:#FF0000;fill-opacity:1" d="M40.927734375,35.595703125L37.0751953125,36.4306640625 32.607421875,37.0751953125 27.7734375,37.6904296875 22.822265625,38.37890625 16.0986328125,39.7705078125 10.4296875,41.9970703125 8.221435546875,43.560791015625 6.51855516433716,45.46875 5.43090867996216,47.7978515625 5.06835985183716,50.625 5.75683641433716,54.3310546875 7.69043016433716,57.0703125 10.6640625,58.76953125 14.501953125,59.35546875 17.7978515625,58.9599609375 20.3466796875,58.0810546875 22.5439453125,57.1875 24.814453125,56.77734375 27.1875,57.1875 29.5166015625,58.0810546875 31.9921875,58.9599609375 34.833984375,59.35546875 37.470703125,58.8720703125 39.3896484375,57.333984375 40.546875,54.638671875 40.927734375,50.68359375 40.927734375,35.595703125z M24.404296875,0L26.348876953125,0.186769008636475 27.9052734375,0.7470703125 30.17578125,2.75390625 30.3515625,2.75390625 31.483154296875,1.45752096176147 32.8857421875,0.615234375 34.676513671875,0.153810024261475 36.97265625,0 40.9716796875,0.4248046875 43.9013671875,1.875 45.6884765625,4.5849609375 46.1389122009277,6.485595703125 46.2890625,8.818359375 46.2890625,29.912109375 47.7978515625,29.00390625 48.955078125,27.9638671875 49.86328125,26.689453125 50.654296875,25.078125 51.826171875,25.2685546875 52.91015625,25.751953125 51.9177207946777,28.52783203125 50.4638671875,30.76171875 48.5778770446777,32.5634765625 46.2890625,34.04296875 46.2890625,50.68359375 46.0876426696777,53.426513671875 45.4833984375,55.7373046875 44.5275840759277,57.6416015625 43.271484375,59.1650390625 39.9609375,61.11328125 35.859375,61.728515625 32.3583984375,61.3330078125 29.6044921875,60.4541015625 27.216796875,59.560546875 24.84375,59.150390625 22.55859375,59.560546875 20.44921875,60.4541015625 17.9150390625,61.3330078125 14.384765625,61.728515625 11.72607421875,61.519775390625 9.375,60.8935546875 5.66894578933716,58.5205078125 3.36914110183716,54.84375 2.77587914466858,52.58056640625 2.578125,50.068359375 2.76855492591858,47.60009765625 3.33984422683716,45.41015625 5.43457078933716,41.77734375 8.61328125,39.0234375 12.65625,36.9873046875 17.28515625,35.5078125 22.265625,34.453125 27.392578125,33.662109375 32.314453125,33.017578125 36.8701171875,32.34375 40.927734375,31.46484375 40.927734375,8.4375 40.7080078125,5.712890625 39.9462890625,3.8232421875 38.49609375,2.7099609375 36.240234375,2.34375 33.99169921875,2.69531393051147 32.4609375,3.75 31.58203125,5.64697265625 31.2890625,8.525390625 28.9453125,8.525390625 28.67431640625,5.7568359375 27.861328125,3.837890625 26.43310546875,2.71728658676147 24.31640625,2.34375 22.294921875,2.666015625 21.0498046875,3.5009765625 20.4052734375,4.6435546875 20.21484375,5.859375 20.712890625,8.203125 18.3984375,8.935546875 17.9150390625,7.2802734375 17.75390625,5.7421875 18.0908203125,3.720703125 19.21875,1.8603515625 21.2841796875,0.5126953125 24.404296875,0z M7.93945360183716,0L10.341796875,0.29296875 12.12890625,1.2890625 13.2568359375,3.1640625 13.65234375,6.09375 13.65234375,21.5625 13.9599609375,23.7744140625 14.970703125,25.0634765625 16.845703125,25.6640625 19.74609375,25.810546875 22.4560546875,25.810546875 24.9609375,25.78125 24.990234375,25.6640625 23.6865234375,24.2578125 22.1484375,23.056640625 20.0830078125,22.2216796875 17.2265625,21.9140625 17.2265625,19.5703125 20.3173828125,19.8486328125 22.6025390625,20.5810546875 24.31640625,21.591796875 25.6640625,22.705078125 27.451171875,24.228515625 28.974609375,25.1513671875 30.8349609375,25.6201171875 33.603515625,25.751953125 33.603515625,28.095703125 30.6005859375,28.1396484375 27.59765625,28.154296875 24.31640625,28.154296875 20.537109375,28.154296875 17.515869140625,28.125 14.9560546875,28.037109375 12.83935546875,27.7880859375 11.1474609375,27.275390625 9.86572265625,26.46240234375 8.9794921875,25.3125 8.463134765625,23.7158203125 8.291015625,21.5625 8.291015625,5.947265625 8.1884765625,4.16015625 7.88085985183716,3.046875 7.35351610183716,2.490234375 6.56250047683716,2.34375 5.03906297683716,2.75390625 3.73535203933716,4.130859375 2.82714891433716,6.6650390625 2.49023485183716,10.546875 2.49023485183716,19.3359375 2.69531297683716,22.119140625 3.33984422683716,24.0380859375 4.49707078933716,25.4296875 6.26953172683716,26.630859375 5.80078172683716,27.6708984375 4.95117235183716,28.505859375 2.62207078933716,26.9970703125 1.083984375,25.1806640625 0.249023914337158,22.880859375 0,19.892578125 0,10.869140625 0.0878915786743164,8.3203125 0.454102039337158,5.830078125 1.25976610183716,3.5595703125 2.66601610183716,1.69921875 4.83398485183716,0.4541015625 7.93945360183716,0z" />
    </g>
  </g>
</svg>