<?xml version="1.0" encoding="utf-8"?>
<!DOCTYPE svg PUBLIC "-//W3C//DTD SVG 1.1//EN" "http://www.w3.org/Graphics/SVG/1.1/DTD/svg11.dtd">
<svg width="46.2890625" height="28.271484375" xmlns="http://www.w3.org/2000/svg" xmlns:xlink="http://www.w3.org/1999/xlink" xmlns:xml="http://www.w3.org/XML/1998/namespace" version="1.1">
  <g>
    <g>
      <path style="fill:#FF0000;fill-opacity:1" d="M11.748046875,0L12.7001953125,0 14.033203125,0.0146484375 15.556640625,0.0732421875 17.05078125,0.17578125 17.05078125,2.431640625 14.970703125,4.189453125 13.8134765625,6.8701171875 13.3154296875,10.048828125 13.212890625,13.30078125 13.212890625,19.775390625 13.32275390625,21.73095703125 13.65234375,23.203125 15.17578125,25.0341796875 16.4501953125,25.521240234375 18.10546875,25.78125 20.1928691864014,25.89111328125 22.763671875,25.927734375 25.7373046875,25.89111328125 28.095703125,25.78125 29.9267578125,25.528564453125 31.318359375,25.0634765625 32.9150390625,23.349609375 33.233642578125,22.001953125 33.33984375,20.244140625 33.33984375,10.517578125 33.134765625,7.3828125 32.2119140625,4.833984375 30.1171875,3.1201171875 28.4912109375,2.64770650863647 26.3671875,2.490234375 25.78125,2.490234375 25.1953125,2.51953125 25.1953125,0.17578125 27.744140625,0.1318359375 30.322265625,0.1025390625 32.666015625,0.087890625 34.51171875,0.087890625 37.833251953125,0.164796352386475 40.4736328125,0.3955078125 42.5207481384277,0.849610805511475 44.0625,1.5966796875 45.1464805603027,2.67700338363647 45.8203125,4.130859375 46.1718711853027,6.0205078125 46.2890625,8.408203125 46.2890625,27.861328125 40.927734375,27.861328125 40.927734375,8.61328125 40.850830078125,6.632080078125 40.6201171875,5.1416015625 39.5947265625,3.2958984375 37.6904296875,2.5634765625 34.74609375,2.431640625 34.1015625,2.431640625 33.1640625,2.4609375 33.134765625,2.578125 34.5703125,4.130859375 35.3759765625,6.09375 35.7421875,8.291015625 35.830078125,10.517578125 35.830078125,20.2734375 35.657958984375,22.8076171875 35.1416015625,24.7265625 34.244384765625,26.1328125 32.9296875,27.12890625 31.17919921875,27.76611328125 28.974609375,28.095703125 26.27197265625,28.2275390625 23.02734375,28.271484375 18.88916015625,28.212890625 15.556640625,28.037109375 12.930908203125,27.645263671875 10.9130859375,26.9384765625 9.45922756195068,25.869140625 8.525390625,24.3896484375 8.02001857757568,22.393798828125 7.8515625,19.775390625 7.8515625,13.447265625 7.8955078125,10.48828125 8.232421875,7.5146484375 9.169921875,4.7607421875 10.986328125,2.431640625 10.95703125,2.314453125 8.74877834320068,2.43164205551147 6.9287109375,2.783203125 4.3212890625,4.306640625 2.9150390625,7.08984375 2.59643507003784,9.0234375 2.490234375,11.3671875 2.490234375,19.1015625 2.6953125,21.884765625 3.33984375,23.8037109375 4.4970703125,25.1953125 6.26953125,26.396484375 5.80078125,27.4365234375 4.951171875,28.271484375 2.6220703125,26.7626953125 1.083984375,24.9462890625 0.2490234375,22.646484375 0,19.658203125 0,11.689453125 0.142822265625,8.807373046875 0.5712890625,6.3720703125 1.34033167362213,4.35791015625 2.5048828125,2.7392578125 4.090576171875,1.50879049301147 6.123046875,0.6591796875 8.65722560882568,0.164796352386475 11.748046875,0z" />
    </g>
  </g>
</svg>