<?xml version="1.0" encoding="utf-8"?>
<!DOCTYPE svg PUBLIC "-//W3C//DTD SVG 1.1//EN" "http://www.w3.org/Graphics/SVG/1.1/DTD/svg11.dtd">
<svg width="29.4726562500005" height="38.876953125" xmlns="http://www.w3.org/2000/svg" xmlns:xlink="http://www.w3.org/1999/xlink" xmlns:xml="http://www.w3.org/XML/1998/namespace" version="1.1">
  <g>
    <g>
      <path style="fill:#FF0000;fill-opacity:1" d="M14.94140625,25.25390625L17.900390625,25.25390625 17.900390625,30.5859375 23.232421875,30.5859375 23.232421875,33.544921875 17.900390625,33.544921875 17.900390625,38.876953125 14.94140625,38.876953125 14.94140625,33.544921875 9.609375,33.544921875 9.609375,30.5859375 14.94140625,30.5859375 14.94140625,25.25390625z M14.53125,0L29.47265625,0 29.47265625,3.837890625 15.1171875,3.837890625 10.264892578125,4.295654296875 6.8994140625,5.6689453125 4.932861328125,7.98706197738647 4.27734375,11.279296875 4.932861328125,14.586181640625 6.8994140625,16.9482421875 10.264892578125,18.365478515625 15.1171875,18.837890625 29.47265625,18.837890625 29.47265625,22.734375 14.53125,22.734375 8.5107421875,22.001953125 6.02783107757568,21.090087890625 3.9404296875,19.8193359375 2.266845703125,18.197021484375 1.02539014816284,16.23046875 0.256347239017487,13.92333984375 0,11.279296875 0.256347239017487,8.64258003234863 1.02539014816284,6.357421875 2.266845703125,4.420166015625 3.9404296875,2.8271484375 6.02783107757568,1.585693359375 8.5107421875,0.703125 14.53125,0z" />
    </g>
  </g>
</svg>