<?xml version="1.0" encoding="utf-8"?>
<!DOCTYPE svg PUBLIC "-//W3C//DTD SVG 1.1//EN" "http://www.w3.org/Graphics/SVG/1.1/DTD/svg11.dtd">
<svg width="28.857421875" height="35.0390625" xmlns="http://www.w3.org/2000/svg" xmlns:xlink="http://www.w3.org/1999/xlink" xmlns:xml="http://www.w3.org/XML/1998/namespace" version="1.1">
  <g>
    <g>
      <path style="fill:#FF0000;fill-opacity:1" d="M8.14453125,0L12.041015625,0 12.041015625,13.857421875 13.2275390625,14.4873046875 14.501953125,15.263671875 15.791015625,16.0693359375 17.021484375,16.81640625 17.021484375,0 20.91796875,0 20.91796875,18.22265625 22.5146484375,17.841796875 23.759765625,16.787109375 24.580078125,15.146484375 24.90234375,13.0078125 28.857421875,13.0078125 28.18359375,16.77978515625 26.572265625,19.599609375 24.1186504364014,21.37939453125 20.91796875,22.03125 20.91796875,35.0390625 17.021484375,35.0390625 17.021484375,21.2109375 14.9267578125,20.15625 12.041015625,18.310546875 12.041015625,35.0390625 8.14453125,35.0390625 8.14453125,16.875 6.3775634765625,17.230224609375 5.09033203125,18.2080078125 4.2828369140625,19.808349609375 3.955078125,22.03125 0,22.03125 0.640868782997131,18.292236328125 2.2705078125,15.4541015625 4.801025390625,13.648681640625 8.14453125,13.0078125 8.14453125,0z" />
    </g>
  </g>
</svg>