<?xml version="1.0" encoding="utf-8"?>
<!DOCTYPE svg PUBLIC "-//W3C//DTD SVG 1.1//EN" "http://www.w3.org/Graphics/SVG/1.1/DTD/svg11.dtd">
<svg width="28.857421875" height="49.8046875" xmlns="http://www.w3.org/2000/svg" xmlns:xlink="http://www.w3.org/1999/xlink" xmlns:xml="http://www.w3.org/XML/1998/namespace" version="1.1">
  <g>
    <g>
      <path style="fill:#FF0000;fill-opacity:1" d="M15.05859375,31.11328125L19.1015625,31.11328125 17.63671875,35.361328125 19.4457988739014,36.17431640625 20.888671875,36.4453125 22.4999980926514,36.090087890625 23.759765625,35.0244140625 24.5874004364014,33.365478515625 24.90234375,31.23046875 28.857421875,31.23046875 28.1689453125,35.050048828125 26.513671875,37.8955078125 23.9794902801514,39.664306640625 20.654296875,40.25390625 18.5742168426514,39.9755859375 16.318359375,39.140625 14.912109375,43.18359375 16.8603515625,44.45068359375 18.486328125,45.322265625 20.888671875,45.99609375 22.5,45.615234375 23.759765625,44.53125 24.580078125,42.861328125 24.90234375,40.751953125 28.857421875,40.751953125 28.1689453125,44.593505859375 26.513671875,47.4462890625 23.9794902801514,49.215087890625 20.654296875,49.8046875 17.4096660614014,49.130859375 13.59375,47.109375 12.685546875,49.775390625 8.466796875,49.775390625 10.13671875,45.1171875 8.232421875,44.70703125 6.42700242996216,45.025634765625 5.11230516433716,45.9814453125 4.28833055496216,47.574462890625 3.95507860183716,49.8046875 0,49.8046875 0.659180164337158,46.0400390625 2.31445360183716,43.18359375 4.86328172683716,41.3818359375 8.232421875,40.751953125 11.455078125,41.3671875 12.94921875,37.1484375 10.34912109375,35.6103515625 8.232421875,35.09765625 6.42700242996216,35.419921875 5.11230516433716,36.38671875 4.28833055496216,37.998046875 3.95507860183716,40.25390625 0,40.25390625 0.659180164337158,36.474609375 2.32910203933716,33.6474609375 4.89257860183716,31.8603515625 8.232421875,31.23046875 11.14013671875,31.7431640625 14.296875,33.28125 15.05859375,31.11328125z M27.041015625,0L27.041015625,4.98046875 23.203125,8.0419921875 18.92578125,10.751953125 14.53125,13.0517578125 10.3125,14.82421875 10.3125,14.94140625 14.619140625,16.2744140625 19.013671875,18.2080078125 23.232421875,20.6396484375 27.041015625,23.49609375 27.041015625,28.4765625 21.0791015625,23.9208984375 14.7802734375,20.3759765625 8.3056640625,17.724609375 1.84570360183716,15.849609375 1.84570360183716,14.12109375 8.3203125,11.7919921875 14.8095703125,8.7744140625 21.1083984375,4.892578125 27.041015625,0z" />
    </g>
  </g>
</svg>