<?xml version="1.0" encoding="utf-8"?>
<!DOCTYPE svg PUBLIC "-//W3C//DTD SVG 1.1//EN" "http://www.w3.org/Graphics/SVG/1.1/DTD/svg11.dtd">
<svg width="29.47265625" height="41.923828125" xmlns="http://www.w3.org/2000/svg" xmlns:xlink="http://www.w3.org/1999/xlink" xmlns:xml="http://www.w3.org/XML/1998/namespace" version="1.1">
  <g>
    <g>
      <path style="fill:#FF0000;fill-opacity:1" d="M8.525390625,32.87109375L10.2081298828125,33.06884765625 12.06298828125,33.662109375 14.0899658203125,34.65087890625 16.2890625,36.03515625 18.8305644989014,37.4853515625 20.947265625,37.96875 22.7526836395264,37.650146484375 24.0673809051514,36.6943359375 24.8913555145264,35.101318359375 25.224609375,32.87109375 29.1796875,32.87109375 28.5205078125,36.6357421875 26.8505859375,39.4921875 24.287109375,41.2939453125 20.947265625,41.923828125 17.6586894989014,41.279296875 14.0625,39.345703125 10.67138671875,37.34619140625 8.291015625,36.6796875 6.6796875,37.060546875 5.419921875,38.14453125 4.599609375,39.814453125 4.27734375,41.923828125 0.322265148162842,41.923828125 1.01074171066284,38.082275390625 2.666015625,35.2294921875 5.2001953125,33.460693359375 8.525390625,32.87109375z M0,0L14.35546875,0 17.3071269989014,0.2197265625 20.126953125,0.87890625 22.7087383270264,1.981201171875 24.9462890625,3.5302734375 26.802978515625,5.5224609375 28.2421875,7.9541015625 29.1650390625,10.8215351104736 29.47265625,14.12109375 29.1943359375,17.431640625 28.359375,20.33203125 27.0263671875,22.811279296875 25.25390625,24.8583984375 23.0639629364014,26.46240234375 20.478515625,27.6123046875 17.5561504364014,28.304443359375 14.35546875,28.53515625 0,28.53515625 0,24.66796875 13.0078125,24.66796875 15.9127798080444,24.5022583007813 18.4167461395264,24.005126953125 20.5197124481201,23.1765747070313 22.2216796875,22.0166015625 23.5354595184326,20.5288696289063 24.4738750457764,18.717041015625 25.0369243621826,16.5811157226563 25.224609375,14.12109375 24.5068340301514,9.54345893859863 22.353515625,6.357421875 18.8012676239014,4.48974609375 13.88671875,3.8671875 0,3.8671875 0,0z" />
    </g>
  </g>
</svg>