<?xml version="1.0" encoding="utf-8"?>
<!DOCTYPE svg PUBLIC "-//W3C//DTD SVG 1.1//EN" "http://www.w3.org/Graphics/SVG/1.1/DTD/svg11.dtd">
<svg width="28.88671875" height="41.103515625" xmlns="http://www.w3.org/2000/svg" xmlns:xlink="http://www.w3.org/1999/xlink" xmlns:xml="http://www.w3.org/XML/1998/namespace" version="1.1">
  <g>
    <g>
      <path style="fill:#FF0000;fill-opacity:1" d="M0,37.20703125L28.88671875,37.20703125 28.88671875,41.103515625 0,41.103515625 0,37.20703125z M14.53125,10.166015625L28.88671875,10.166015625 28.88671875,14.00390625 15.1171875,14.00390625 10.264892578125,14.4616718292236 6.89941453933716,15.8349609375 4.93286180496216,18.153076171875 4.27734422683716,21.4453125 4.93286180496216,24.752197265625 6.89941453933716,27.1142578125 10.264892578125,28.531494140625 15.1171875,29.00390625 28.88671875,29.00390625 28.88671875,32.900390625 14.53125,32.900390625 8.5107421875,32.16796875 6.02783155441284,31.256103515625 3.94043016433716,29.9853515625 2.26684617996216,28.363037109375 1.02539157867432,26.396484375 0.25634777545929,24.08935546875 0,21.4453125 0.25634777545929,18.80859375 1.02539157867432,16.5234375 2.26684617996216,14.5861835479736 3.94043016433716,12.9931640625 6.02783155441284,11.7517108917236 8.5107421875,10.869140625 14.53125,10.166015625z M15.3515625,0L16.6259765625,0.263671875 17.6806640625,0.9814453125 18.3984375,2.0361328125 18.662109375,3.310546875 18.3984375,4.5849609375 17.6806640625,5.6396484375 16.6259765625,6.357421875 15.3515625,6.62109375 14.091796875,6.357421875 13.06640625,5.6396484375 12.3779296875,4.5849609375 12.12890625,3.310546875 12.3779296875,2.0068359375 13.06640625,0.9521484375 14.091796875,0.2490234375 15.3515625,0z" />
    </g>
  </g>
</svg>