<?xml version="1.0" encoding="utf-8"?>
<!DOCTYPE svg PUBLIC "-//W3C//DTD SVG 1.1//EN" "http://www.w3.org/Graphics/SVG/1.1/DTD/svg11.dtd">
<svg width="24.19921875" height="59.267578125" xmlns="http://www.w3.org/2000/svg" xmlns:xlink="http://www.w3.org/1999/xlink" xmlns:xml="http://www.w3.org/XML/1998/namespace" version="1.1">
  <g>
    <g>
      <path style="fill:#FF0000;fill-opacity:1" d="M10.751953125,25.3125L12.0263671875,25.576171875 13.0810546875,26.2939453125 13.798828125,27.3486328125 14.0625,28.623046875 13.798828125,29.8974609375 13.0810546875,30.9375 12.0263671875,31.640625 10.751953125,31.904296875 9.4921875,31.640625 8.466796875,30.9375 7.76367235183716,29.8974609375 7.50000047683716,28.623046875 7.76367235183716,27.3193359375 8.466796875,26.2646484375 9.4921875,25.5615234375 10.751953125,25.3125z M17.783203125,0L19.7607402801514,0.1318359375 21.240234375,0.52734375 21.240234375,4.86328125 19.8046855926514,4.27001953125 18.017578125,4.072265625 15.838623046875,4.4696044921875 14.2822265625,5.66162109375 13.348388671875,7.6483154296875 13.037109375,10.4296875 13.037109375,16.435546875 24.19921875,16.435546875 24.19921875,40.810546875 13.037109375,40.810546875 13.037109375,49.130859375 12.2900390625,53.37890625 10.2392578125,56.572265625 7.19238328933716,58.5791015625 3.48632860183716,59.267578125 1.50146508216858,59.1357421875 0,58.740234375 0,54.404296875 1.47949266433716,55.0048828125 3.19335985183716,55.1953125 5.39794921875,54.7979736328125 6.97265625,53.60595703125 7.91748046875,51.6192626953125 8.232421875,48.837890625 8.232421875,36.357421875 19.27734375,36.357421875 19.27734375,20.830078125 8.232421875,20.830078125 8.232421875,10.1953125 8.96484375,5.9326171875 10.986328125,2.724609375 14.0185546875,0.703125476837158 17.783203125,0z" />
    </g>
  </g>
</svg>