<?xml version="1.0" encoding="utf-8"?>
<!DOCTYPE svg PUBLIC "-//W3C//DTD SVG 1.1//EN" "http://www.w3.org/Graphics/SVG/1.1/DTD/svg11.dtd">
<svg width="27.5390625" height="25.576171875" xmlns="http://www.w3.org/2000/svg" xmlns:xlink="http://www.w3.org/1999/xlink" xmlns:xml="http://www.w3.org/XML/1998/namespace" version="1.1">
  <g>
    <g>
      <path style="fill:#FF0000;fill-opacity:1" d="M19.541015625,18.984375L20.8154296875,19.248046875 21.8701171875,19.9658203125 22.587890625,21.0205078125 22.8515625,22.294921875 22.587890625,23.5693359375 21.8701171875,24.609375 20.8154296875,25.3125 19.541015625,25.576171875 18.28125,25.3125 17.255859375,24.609375 16.552734375,23.5693359375 16.2890625,22.294921875 16.552734375,21.0205078125 17.255859375,19.9658203125 18.28125,19.248046875 19.541015625,18.984375z M0,10.810546875L27.5390625,10.810546875 27.5390625,14.736328125 0,14.736328125 0,10.810546875z M7.822265625,0L9.0966796875,0.263671875 10.1513671875,0.9814453125 10.869140625,2.0361328125 11.1328125,3.310546875 10.869140625,4.5849609375 10.1513671875,5.625 9.0966796875,6.328125 7.822265625,6.591796875 6.5625,6.328125 5.537109375,5.625 4.833984375,4.5849609375 4.5703125,3.310546875 4.833984375,2.0361328125 5.537109375,0.9814453125 6.5625,0.263671875 7.822265625,0z" />
    </g>
  </g>
</svg>