<?xml version="1.0" encoding="utf-8"?>
<!DOCTYPE svg PUBLIC "-//W3C//DTD SVG 1.1//EN" "http://www.w3.org/Graphics/SVG/1.1/DTD/svg11.dtd">
<svg width="29.47265625" height="28.623046875" xmlns="http://www.w3.org/2000/svg" xmlns:xlink="http://www.w3.org/1999/xlink" xmlns:xml="http://www.w3.org/XML/1998/namespace" version="1.1">
  <g>
    <g>
      <path style="fill:#FF0000;fill-opacity:1" d="M4.306640625,3.896484375L4.306640625,24.755859375 13.037109375,24.755859375 15.9283437728882,24.591064453125 18.4204082489014,24.0966796875 20.5133037567139,23.272705078125 22.20703125,22.119140625 24.4482402801514,18.8232421875 25.1953125,14.208984375 24.4738750457764,9.6240234375 22.3095703125,6.416015625 18.7536602020264,4.52636861801147 13.857421875,3.896484375 4.306640625,3.896484375z M0,0L14.35546875,0 17.3071269989014,0.223390102386475 20.126953125,0.8935546875 22.7087383270264,2.01049947738647 24.9462890625,3.57421875 26.802978515625,5.57739400863647 28.2421875,8.0126953125 29.1650390625,10.887451171875 29.47265625,14.208984375 29.197998046875,17.54150390625 28.3740234375,20.44921875 27.04833984375,22.9248046875 25.2685546875,24.9609375 23.0676250457764,26.553955078125 20.478515625,27.7001953125 17.5561504364014,28.392333984375 14.35546875,28.623046875 0,28.623046875 0,0z" />
    </g>
  </g>
</svg>