<?xml version="1.0" encoding="utf-8"?>
<!DOCTYPE svg PUBLIC "-//W3C//DTD SVG 1.1//EN" "http://www.w3.org/Graphics/SVG/1.1/DTD/svg11.dtd">
<svg width="28.857421875" height="49.8046875" xmlns="http://www.w3.org/2000/svg" xmlns:xlink="http://www.w3.org/1999/xlink" xmlns:xml="http://www.w3.org/XML/1998/namespace" version="1.1">
  <g>
    <g>
      <path style="fill:#FF0000;fill-opacity:1" d="M15.05859375,31.11328125L19.1015625,31.11328125 17.63671875,35.361328125 19.4457988739014,36.17431640625 20.888671875,36.4453125 22.4999980926514,36.090087890625 23.759765625,35.0244140625 24.5874004364014,33.365478515625 24.90234375,31.23046875 28.857421875,31.23046875 28.1689453125,35.050048828125 26.513671875,37.8955078125 23.9794902801514,39.664306640625 20.654296875,40.25390625 18.6254863739014,39.9755859375 16.34765625,39.140625 14.94140625,43.212890625 16.2890625,44.1943359375 17.724609375,45.087890625 19.248046875,45.7470703125 20.888671875,45.99609375 22.5,45.615234375 23.759765625,44.53125 24.580078125,42.861328125 24.90234375,40.751953125 28.857421875,40.751953125 28.1689453125,44.593505859375 26.513671875,47.4462890625 23.9794902801514,49.215087890625 20.654296875,49.8046875 17.2705078125,49.130859375 13.59375,47.109375 12.685546875,49.775390625 8.466796875,49.775390625 10.13671875,45.1171875 8.232421875,44.70703125 6.42700242996216,45.025634765625 5.11230516433716,45.9814453125 4.28833055496216,47.574462890625 3.95507860183716,49.8046875 0,49.8046875 0.659180164337158,46.0400390625 2.31445360183716,43.18359375 4.86328172683716,41.3818359375 8.232421875,40.751953125 11.455078125,41.3671875 12.94921875,37.1484375 10.34912109375,35.6103515625 8.232421875,35.09765625 6.42700242996216,35.419921875 5.11230516433716,36.38671875 4.28833055496216,37.998046875 3.95507860183716,40.25390625 0,40.25390625 0.659180164337158,36.474609375 2.32910203933716,33.6474609375 4.89257860183716,31.8603515625 8.232421875,31.23046875 11.14013671875,31.7431640625 14.296875,33.28125 15.05859375,31.11328125z M1.84570360183716,0L7.77832078933716,4.892578125 14.0771484375,8.7744140625 20.5517578125,11.7919921875 27.041015625,14.12109375 27.041015625,15.849609375 20.56640625,17.724609375 14.1064453125,20.3759765625 7.80761766433716,23.9208984375 1.84570360183716,28.4765625 1.84570360183716,23.49609375 5.65429735183716,20.6396484375 9.873046875,18.2080078125 14.267578125,16.2744140625 18.57421875,14.94140625 18.57421875,14.82421875 14.3408203125,13.0517578125 9.931640625,10.751953125 5.66894578933716,8.0419921875 1.84570360183716,4.98046875 1.84570360183716,0z" />
    </g>
  </g>
</svg>