<?xml version="1.0" encoding="utf-8"?>
<!DOCTYPE svg PUBLIC "-//W3C//DTD SVG 1.1//EN" "http://www.w3.org/Graphics/SVG/1.1/DTD/svg11.dtd">
<svg width="28.857421875" height="49.8046875" xmlns="http://www.w3.org/2000/svg" xmlns:xlink="http://www.w3.org/1999/xlink" xmlns:xml="http://www.w3.org/XML/1998/namespace" version="1.1">
  <g>
    <g>
      <path style="fill:#FF0000;fill-opacity:1" d="M8.232421875,40.751953125L11.52099609375,41.396484375 15.1171875,43.330078125 18.4790019989014,45.32958984375 20.888671875,45.99609375 22.5,45.615234375 23.759765625,44.53125 24.580078125,42.861328125 24.90234375,40.751953125 28.857421875,40.751953125 28.1689453125,44.593505859375 26.513671875,47.4462890625 23.9794902801514,49.215087890625 20.654296875,49.8046875 18.9715557098389,49.60693359375 17.1166973114014,49.013671875 15.0897207260132,48.02490234375 12.890625,46.640625 10.33447265625,45.1904296875 8.232421875,44.70703125 6.42700242996216,45.025634765625 5.11230516433716,45.9814453125 4.28833055496216,47.574462890625 3.95507860183716,49.8046875 0,49.8046875 0.659180164337158,46.0400390625 2.31445360183716,43.18359375 4.86328172683716,41.3818359375 8.232421875,40.751953125z M8.232421875,31.23046875L11.52099609375,31.875 15.1171875,33.80859375 18.4936504364014,35.7861328125 20.888671875,36.4453125 22.4999980926514,36.090087890625 23.759765625,35.0244140625 24.5874004364014,33.365478515625 24.90234375,31.23046875 28.857421875,31.23046875 28.1689453125,35.050048828125 26.513671875,37.8955078125 23.9794902801514,39.664306640625 20.654296875,40.25390625 18.9715557098389,40.05615234375 17.1166973114014,39.462890625 15.0897207260132,38.47412109375 12.890625,37.08984375 10.29052734375,35.595703125 8.232421875,35.09765625 6.42700242996216,35.419921875 5.11230516433716,36.38671875 4.28833055496216,37.998046875 3.95507860183716,40.25390625 0,40.25390625 0.659180164337158,36.474609375 2.32910203933716,33.6474609375 4.89257860183716,31.8603515625 8.232421875,31.23046875z M27.041015625,0L27.041015625,4.98046875 23.203125,8.0419921875 18.92578125,10.751953125 14.53125,13.0517578125 10.3125,14.82421875 10.3125,14.94140625 14.619140625,16.2744140625 19.013671875,18.2080078125 23.232421875,20.6396484375 27.041015625,23.49609375 27.041015625,28.4765625 21.0791015625,23.9208984375 14.7802734375,20.3759765625 8.3056640625,17.724609375 1.84570360183716,15.849609375 1.84570360183716,14.12109375 8.3203125,11.7919921875 14.8095703125,8.7744140625 21.1083984375,4.892578125 27.041015625,0z" />
    </g>
  </g>
</svg>