<?xml version="1.0" encoding="utf-8"?>
<!DOCTYPE svg PUBLIC "-//W3C//DTD SVG 1.1//EN" "http://www.w3.org/Graphics/SVG/1.1/DTD/svg11.dtd">
<svg width="28.857421875" height="18.8671875" xmlns="http://www.w3.org/2000/svg" xmlns:xlink="http://www.w3.org/1999/xlink" xmlns:xml="http://www.w3.org/XML/1998/namespace" version="1.1">
  <g>
    <g>
      <path style="fill:#FF0000;fill-opacity:1" d="M8.232421875,9.78515625L11.52099609375,10.4296875 15.1171875,12.36328125 18.4936504364014,14.3408203125 20.888671875,15 22.4999980926514,14.644775390625 23.759765625,13.5791015625 24.5874004364014,11.920166015625 24.90234375,9.78515625 28.857421875,9.78515625 28.1689453125,13.648681640625 26.513671875,16.5087890625 23.9794902801514,18.277587890625 20.654296875,18.8671875 18.9605693817139,18.6676025390625 17.1020488739014,18.06884765625 15.0787343978882,17.0709228515625 12.890625,15.673828125 10.30517578125,14.20166015625 8.232421875,13.7109375 6.427001953125,14.033203125 5.1123046875,15 4.288330078125,16.611328125 3.955078125,18.8671875 0,18.8671875 0.6591796875,15.1025390625 2.3291015625,12.2314453125 4.892578125,10.4150390625 8.232421875,9.78515625z M14.443359375,0L15.7177734375,0.263671875 16.7724609375,0.966796875 17.490234375,2.0068359375 17.75390625,3.28125 17.490234375,4.5556640625 16.7724609375,5.6103515625 15.7177734375,6.328125 14.443359375,6.591796875 13.18359375,6.328125 12.158203125,5.625 11.455078125,4.5849609375 11.19140625,3.28125 11.455078125,2.0068359375 12.158203125,0.966796875 13.18359375,0.263671875 14.443359375,0z" />
    </g>
  </g>
</svg>