<?xml version="1.0" encoding="utf-8"?>
<!DOCTYPE svg PUBLIC "-//W3C//DTD SVG 1.1//EN" "http://www.w3.org/Graphics/SVG/1.1/DTD/svg11.dtd">
<svg width="27.5390625" height="30.99609375" xmlns="http://www.w3.org/2000/svg" xmlns:xlink="http://www.w3.org/1999/xlink" xmlns:xml="http://www.w3.org/XML/1998/namespace" version="1.1">
  <g>
    <g>
      <path style="fill:#FF0000;fill-opacity:1" d="M0,27.12890625L27.5390625,27.12890625 27.5390625,30.99609375 0,30.99609375 0,27.12890625z M0,18.515625L27.5390625,18.515625 27.5390625,22.3828125 0,22.3828125 0,18.515625z M0,9.90234375L27.5390625,9.90234375 27.5390625,13.76953125 0,13.76953125 0,9.90234375z M13.76953125,0L15.0439453125,0.263671875 16.0986328125,0.9814453125 16.81640625,2.0361328125 17.080078125,3.310546875 16.81640625,4.5849609375 16.0986328125,5.625 15.0439453125,6.328125 13.76953125,6.591796875 12.509765625,6.328125 11.484375,5.625 10.78125,4.5849609375 10.517578125,3.310546875 10.78125,2.0361328125 11.484375,0.9814453125 12.509765625,0.263671875 13.76953125,0z" />
    </g>
  </g>
</svg>