<?xml version="1.0" encoding="utf-8"?>
<!DOCTYPE svg PUBLIC "-//W3C//DTD SVG 1.1//EN" "http://www.w3.org/Graphics/SVG/1.1/DTD/svg11.dtd">
<svg width="27.5390625" height="38.759765625" xmlns="http://www.w3.org/2000/svg" xmlns:xlink="http://www.w3.org/1999/xlink" xmlns:xml="http://www.w3.org/XML/1998/namespace" version="1.1">
  <g>
    <g>
      <path style="fill:#FF0000;fill-opacity:1" d="M0,20.302734375L27.5390625,34.39453125 27.5390625,38.759765625 0,24.638671875 0,20.302734375z M4.48242235183716,0.64453125L5.75683641433716,0.908203125 6.81152391433716,1.611328125 7.52929735183716,2.6513671875 7.79296922683716,3.92578125 7.52929735183716,5.2001953125 6.81152391433716,6.2548828125 5.75683641433716,6.97265625 4.48242235183716,7.236328125 3.22265672683716,6.97265625 2.19726610183716,6.26953125 1.49414110183716,5.2294921875 1.23046922683716,3.92578125 1.49414110183716,2.6513671875 2.19726610183716,1.611328125 3.22265672683716,0.908203125 4.48242235183716,0.64453125z M27.5390625,0L27.5390625,4.39453125 6.38671922683716,14.853515625 6.38671922683716,14.970703125 27.5390625,25.458984375 27.5390625,29.82421875 0,15.703125 0,14.12109375 27.5390625,0z" />
    </g>
  </g>
</svg>