<?xml version="1.0" encoding="utf-8"?>
<!DOCTYPE svg PUBLIC "-//W3C//DTD SVG 1.1//EN" "http://www.w3.org/Graphics/SVG/1.1/DTD/svg11.dtd">
<svg width="28.6230468750021" height="38.84765625" xmlns="http://www.w3.org/2000/svg" xmlns:xlink="http://www.w3.org/1999/xlink" xmlns:xml="http://www.w3.org/XML/1998/namespace" version="1.1">
  <g>
    <g>
      <path style="fill:#FF0000;fill-opacity:1" d="M12.451171875,29.12109375L16.34765625,29.12109375 22.67578125,38.84765625 19.1015625,38.84765625 14.296875,32.109375 9.462890625,38.84765625 6.15234327316284,38.84765625 12.451171875,29.12109375z M14.384765625,0L17.5488262176514,0.260009765625 20.361328125,1.0400390625 22.7966289520264,2.28515625 24.8291015625,3.9404296875 26.44775390625,5.9765625 27.6416015625,8.3642578125 28.377685546875,11.0412616729736 28.623046875,13.9453125 28.623046875,38.84765625 24.7265625,38.84765625 24.7265625,15.29296875 24.0600566864014,10.3601093292236 22.060546875,6.6943359375 20.5682353973389,5.36773681640625 18.7573223114014,4.420166015625 16.6278057098389,3.85162353515625 14.1796875,3.662109375 11.7279052734375,3.85162353515625 9.61669826507568,4.420166015625 7.84606838226318,5.36773681640625 6.41601514816284,6.6943359375 4.52636671066284,10.3601093292236 3.89648389816284,15.29296875 3.89648389816284,38.84765625 0,38.84765625 0,13.9453125 0.249022662639618,11.0449237823486 0.996093273162842,8.37890625 2.21191358566284,6.002197265625 3.86718702316284,3.9697265625 5.93627834320068,2.310791015625 8.3935546875,1.0546875 11.217041015625,0.263671875 14.384765625,0z" />
    </g>
  </g>
</svg>