<?xml version="1.0" encoding="utf-8"?>
<!DOCTYPE svg PUBLIC "-//W3C//DTD SVG 1.1//EN" "http://www.w3.org/Graphics/SVG/1.1/DTD/svg11.dtd">
<svg width="25.37109375" height="28.681640625" xmlns="http://www.w3.org/2000/svg" xmlns:xlink="http://www.w3.org/1999/xlink" xmlns:xml="http://www.w3.org/XML/1998/namespace" version="1.1">
  <g>
    <g>
      <path style="fill:#FF0000;fill-opacity:1" d="M2.75390625,3.310546875L12.65625,13.271484375 22.6171875,3.310546875 25.37109375,6.064453125 15.41015625,16.025390625 25.37109375,25.927734375 22.6171875,28.681640625 12.65625,18.720703125 2.75390625,28.681640625 0,25.927734375 9.9609375,16.025390625 0,6.064453125 2.75390625,3.310546875z M12.685546875,0L13.9599609375,0.263671875 15.0146484375,0.9814453125 15.732421875,2.0361328125 15.99609375,3.310546875 15.732421875,4.5849609375 15.0146484375,5.625 13.9599609375,6.328125 12.685546875,6.591796875 11.42578125,6.328125 10.400390625,5.625 9.697265625,4.5849609375 9.43359375,3.310546875 9.697265625,2.0361328125 10.400390625,0.9814453125 11.42578125,0.263671875 12.685546875,0z" />
    </g>
  </g>
</svg>