<?xml version="1.0" encoding="utf-8"?>
<!DOCTYPE svg PUBLIC "-//W3C//DTD SVG 1.1//EN" "http://www.w3.org/Graphics/SVG/1.1/DTD/svg11.dtd">
<svg width="29.4726562500005" height="41.923828125" xmlns="http://www.w3.org/2000/svg" xmlns:xlink="http://www.w3.org/1999/xlink" xmlns:xml="http://www.w3.org/XML/1998/namespace" version="1.1">
  <g>
    <g>
      <path style="fill:#FF0000;fill-opacity:1" d="M8.525390625,32.87109375L10.2081298828125,33.06884765625 12.06298828125,33.662109375 14.0899658203125,34.65087890625 16.2890625,36.03515625 18.8305644989014,37.4853515625 20.947265625,37.96875 22.7526836395264,37.650146484375 24.0673809051514,36.6943359375 24.8913555145264,35.101318359375 25.224609375,32.87109375 29.1796875,32.87109375 28.5205078125,36.6357421875 26.8505859375,39.4921875 24.287109375,41.2939453125 20.947265625,41.923828125 17.6586894989014,41.279296875 14.0625,39.345703125 10.67138671875,37.34619140625 8.291015625,36.6796875 6.6796875,37.060546875 5.419921875,38.14453125 4.599609375,39.814453125 4.27734375,41.923828125 0.322265148162842,41.923828125 1.01074171066284,38.082275390625 2.666015625,35.2294921875 5.2001953125,33.460693359375 8.525390625,32.87109375z M15.1171875,0L29.47265625,0 29.47265625,3.8671875 15.5859375,3.8671875 10.67138671875,4.48974609375 7.119140625,6.357421875 4.9658203125,9.54345893859863 4.248046875,14.12109375 4.43572998046875,16.5811157226563 4.998779296875,18.717041015625 5.93719482421875,20.5288696289063 7.2509765625,22.0166015625 8.95294189453125,23.1765747070313 11.055908203125,24.005126953125 13.5598754882813,24.5022583007813 16.46484375,24.66796875 29.47265625,24.66796875 29.47265625,28.53515625 15.1171875,28.53515625 11.91650390625,28.304443359375 8.994140625,27.6123046875 6.40869045257568,26.46240234375 4.21875,24.8583984375 2.4462890625,22.811279296875 1.11328077316284,20.33203125 0.278319895267487,17.431640625 0,14.12109375 0.307616829872131,10.8215351104736 1.23046875,7.9541015625 2.669677734375,5.5224609375 4.5263671875,3.5302734375 6.76025295257568,1.981201171875 9.3310546875,0.87890625 12.147216796875,0.2197265625 15.1171875,0z" />
    </g>
  </g>
</svg>