<?xml version="1.0" encoding="utf-8"?>
<!DOCTYPE svg PUBLIC "-//W3C//DTD SVG 1.1//EN" "http://www.w3.org/Graphics/SVG/1.1/DTD/svg11.dtd">
<svg width="43.4472656250007" height="43.447265625" xmlns="http://www.w3.org/2000/svg" xmlns:xlink="http://www.w3.org/1999/xlink" xmlns:xml="http://www.w3.org/XML/1998/namespace" version="1.1">
  <g>
    <g>
      <path style="fill:#FF0000;fill-opacity:1" d="M16.171875,13.359375L21.796875,19.013671875 27.451171875,13.359375 30.205078125,16.11328125 24.55078125,21.708984375 30.205078125,27.3046875 27.451171875,30.05859375 21.796875,24.404296875 16.171875,30.05859375 13.41796875,27.3046875 19.1015625,21.708984375 13.41796875,16.11328125 16.171875,13.359375z M21.73828125,9.140625L19.1052227020264,9.385986328125 16.7138671875,10.1220703125 12.8173828125,12.8173828125 10.283203125,16.81640625 9.60205078125,19.18212890625 9.375,21.708984375 9.620361328125,24.239501953125 10.3564453125,26.6162109375 13.0224609375,30.615234375 16.962890625,33.2958984375 19.2846660614014,34.031982421875 21.73828125,34.27734375 24.3749980926514,34.031982421875 26.77734375,33.2958984375 30.6884765625,30.615234375 33.2080078125,26.6162109375 33.878173828125,24.239501953125 34.1015625,21.708984375 33.87451171875,19.18212890625 33.193359375,16.81640625 30.6591796875,12.8173828125 26.7626953125,10.1220703125 24.3713359832764,9.385986328125 21.73828125,9.140625z M21.73828125,6.50390625L24.89501953125,6.80419921875 27.802734375,7.705078125 30.399169921875,9.122314453125 32.6220703125,10.9716796875 34.434814453125,13.2128925323486 35.80078125,15.8056640625 36.65771484375,18.6657733917236 36.943359375,21.708984375 36.65771484375,24.774169921875 35.80078125,27.6416015625 34.434814453125,30.234375 32.6220703125,32.4755859375 30.399169921875,34.324951171875 27.802734375,35.7421875 24.89501953125,36.64306640625 21.73828125,36.943359375 18.5815410614014,36.64306640625 15.673828125,35.7421875 13.077392578125,34.324951171875 10.8544921875,32.4755859375 9.0380859375,30.234375 7.6611328125,27.6416015625 6.79321193695068,24.774169921875 6.50390625,21.708984375 6.79321193695068,18.6657733917236 7.6611328125,15.8056640625 9.0380859375,13.2128925323486 10.8544921875,10.9716796875 13.077392578125,9.122314453125 15.673828125,7.705078125 18.5815410614014,6.80419921875 21.73828125,6.50390625z M21.73828125,2.63671875L17.7539043426514,3.01025390625 14.12109375,4.130859375 10.909423828125,5.899658203125 8.1884765625,8.2177734375 5.98754787445068,11.0302743911743 4.3359375,14.2822265625 3.30322265625,17.8747577667236 2.958984375,21.708984375 3.6328125,26.7919921875 5.537109375,31.3623046875 8.49609375,35.21484375 12.3046875,38.1884765625 16.7724609375,40.107421875 21.73828125,40.78125 25.74462890625,40.40771484375 29.384765625,39.287109375 32.596435546875,37.52197265625 35.3173828125,35.21484375 37.5146484375,32.40966796875 39.1552734375,29.150390625 40.177001953125,25.546875 40.517578125,21.708984375 40.17333984375,17.8747577667236 39.140625,14.2822265625 37.489013671875,11.0302743911743 35.2880859375,8.2177734375 32.567138671875,5.899658203125 29.35546875,4.130859375 25.72265625,3.01025390625 21.73828125,2.63671875z M21.73828125,0L24.796142578125,0.194091796875 27.7001953125,0.7763671875 32.9443359375,2.958984375 37.294921875,6.357421875 40.60546875,10.751953125 42.71484375,15.9375 43.447265625,21.708984375 42.71484375,27.4951171875 40.60546875,32.6806640625 37.294921875,37.0751953125 32.9443359375,40.4736328125 27.7001953125,42.6708984375 24.796142578125,43.253173828125 21.73828125,43.447265625 18.6840801239014,43.253173828125 15.791015625,42.6708984375 10.5615234375,40.4736328125 6.1962890625,37.0751953125 2.87109375,32.6806640625 0.747070789337158,27.48046875 0,21.708984375 0.747070789337158,15.9375 2.87109375,10.751953125 6.1962890625,6.357421875 10.5615234375,2.958984375 15.8056640625,0.7763671875 18.7023906707764,0.194091796875 21.73828125,0z" />
    </g>
  </g>
</svg>