<?xml version="1.0" encoding="utf-8"?>
<!DOCTYPE svg PUBLIC "-//W3C//DTD SVG 1.1//EN" "http://www.w3.org/Graphics/SVG/1.1/DTD/svg11.dtd">
<svg width="23.0859375" height="59.267578125" xmlns="http://www.w3.org/2000/svg" xmlns:xlink="http://www.w3.org/1999/xlink" xmlns:xml="http://www.w3.org/XML/1998/namespace" version="1.1">
  <g>
    <g>
      <path style="fill:#FF0000;fill-opacity:1" d="M18.662109375,0L20.6396465301514,0.1318359375 22.119140625,0.52734375 22.119140625,4.86328125 20.6835918426514,4.27001953125 18.896484375,4.072265625 16.717529296875,4.4696044921875 15.1611328125,5.66162109375 14.227294921875,7.6483154296875 13.916015625,10.4296875 13.916015625,22.44140625 20.33203125,16.025390625 23.0859375,18.779296875 13.916015625,27.94921875 13.916015625,49.130859375 13.2275390625,53.3349609375 11.162109375,56.513671875 8.0859375,58.59375 4.36523485183716,59.267578125 2.38037157058716,59.1357421875 0.878907203674316,58.740234375 0.878907203674316,54.404296875 2.35839891433716,55.0048828125 4.07226610183716,55.1953125 6.27685546875,54.7979736328125 7.8515625,53.60595703125 8.79638671875,51.6192626953125 9.111328125,48.837890625 9.111328125,32.75390625 2.75390672683716,39.111328125 0,36.357421875 9.111328125,27.24609375 9.111328125,10.1953125 9.78515625,6.03515625 11.806640625,2.75390625 14.912109375,0.6884765625 18.662109375,0z" />
    </g>
  </g>
</svg>