<?xml version="1.0" encoding="utf-8"?>
<!DOCTYPE svg PUBLIC "-//W3C//DTD SVG 1.1//EN" "http://www.w3.org/Graphics/SVG/1.1/DTD/svg11.dtd">
<svg width="27.5390625" height="46.552734375" xmlns="http://www.w3.org/2000/svg" xmlns:xlink="http://www.w3.org/1999/xlink" xmlns:xml="http://www.w3.org/XML/1998/namespace" version="1.1">
  <g>
    <g>
      <path style="fill:#FF0000;fill-opacity:1" d="M0,28.095703125L27.5390625,42.1875 27.5390625,46.552734375 0,32.431640625 0,28.095703125z M27.5390625,7.79296875L27.5390625,12.1875 6.38671827316284,22.646484375 6.38671827316284,22.763671875 27.5390625,33.251953125 27.5390625,37.6171875 0,23.49609375 0,21.9140625 27.5390625,7.79296875z M23.0859375,0L24.3603515625,0.263672351837158 25.4150390625,0.966796875 26.1328125,2.0068359375 26.396484375,3.28125 26.1328125,4.5556640625 25.4150390625,5.6103515625 24.3603515625,6.328125 23.0859375,6.591796875 21.826171875,6.328125 20.80078125,5.625 20.09765625,4.5849609375 19.833984375,3.28125 20.09765625,2.0068359375 20.80078125,0.966796875 21.826171875,0.263672351837158 23.0859375,0z" />
    </g>
  </g>
</svg>