<?xml version="1.0" encoding="utf-8"?>
<!DOCTYPE svg PUBLIC "-//W3C//DTD SVG 1.1//EN" "http://www.w3.org/Graphics/SVG/1.1/DTD/svg11.dtd">
<svg width="10.8398437500012" height="32.373046875" xmlns="http://www.w3.org/2000/svg" xmlns:xlink="http://www.w3.org/1999/xlink" xmlns:xml="http://www.w3.org/XML/1998/namespace" version="1.1">
  <g>
    <g>
      <path style="fill:#FF0000;fill-opacity:1" d="M5.302734375,17.05078125L4.149169921875,17.26318359375 3.2080078125,17.900390625 2.581787109375,18.8525390625 2.373046875,20.009765625 3.10546875,22.22900390625 5.302734375,22.96875 6.52954006195068,22.760009765625 7.5146484375,22.1337890625 8.16284084320068,21.185302734375 8.37890625,20.009765625 8.16284084320068,18.834228515625 7.5146484375,17.8857421875 6.52954006195068,17.259521484375 5.302734375,17.05078125z M5.5078125,14.912109375L7.6318359375,15.29296875 9.3310546875,16.34765625 10.4443359375,17.9443359375 10.83984375,19.98046875 10.83984375,21.62109375 10.71533203125,24.375 10.341796875,26.66015625 9.71923828125,28.516845703125 8.84765625,29.9853515625 6.38671875,31.81640625 2.958984375,32.373046875 2.958984375,29.94140625 5.23315334320068,29.564208984375 6.9580078125,28.4326171875 8.03832912445068,26.568603515625 8.37890625,23.994140625 7.001953125,24.814453125 5.302734375,25.13671875 3.22265625,24.78515625 1.5380859375,23.7744140625 0.41015625,22.1923828125 0,20.126953125 0.41015625,17.98828125 1.552734375,16.3330078125 3.2958984375,15.2783203125 5.5078125,14.912109375z M5.302734375,2.138671875L4.149169921875,2.35107421875 3.2080078125,2.98828125 2.581787109375,3.94775533676147 2.373046875,5.126953125 3.10546875,7.34619283676147 5.302734375,8.0859375 6.52954006195068,7.87719869613647 7.5146484375,7.2509765625 8.16284084320068,6.30249166488647 8.37890625,5.126953125 8.16284084320068,3.92944478988647 7.5146484375,2.9736328125 6.52954006195068,2.347412109375 5.302734375,2.138671875z M5.5078125,0L7.6318359375,0.380859375 9.3310546875,1.435546875 10.4443359375,3.0322265625 10.83984375,5.068359375 10.400390625,7.1337890625 9.2138671875,8.7744140625 7.4560546875,9.8583984375 5.302734375,10.25390625 3.22265625,9.90234375 1.5380859375,8.8916015625 0.41015625,7.3095703125 0,5.244140625 0.41015625,3.0908203125 1.552734375,1.435546875 3.2958984375,0.380859375 5.5078125,0z" />
    </g>
  </g>
</svg>