<?xml version="1.0" encoding="utf-8"?>
<!DOCTYPE svg PUBLIC "-//W3C//DTD SVG 1.1//EN" "http://www.w3.org/Graphics/SVG/1.1/DTD/svg11.dtd">
<svg width="28.857421875" height="34.921875" xmlns="http://www.w3.org/2000/svg" xmlns:xlink="http://www.w3.org/1999/xlink" xmlns:xml="http://www.w3.org/XML/1998/namespace" version="1.1">
  <g>
    <g>
      <path style="fill:#FF0000;fill-opacity:1" d="M0.673828125,31.0546875L28.212890625,31.0546875 28.212890625,34.921875 0.673828125,34.921875 0.673828125,31.0546875z M0.644531726837158,22.44140625L28.18359375,22.44140625 28.18359375,26.30859375 0.644531726837158,26.30859375 0.644531726837158,22.44140625z M8.232421875,9.84375L11.52099609375,10.4882831573486 15.1171875,12.421875 18.4936504364014,14.3994140625 20.888671875,15.05859375 22.4999980926514,14.703369140625 23.759765625,13.6376953125 24.5874004364014,11.978759765625 24.90234375,9.84375 28.857421875,9.84375 28.1689453125,13.663330078125 26.513671875,16.5087890625 23.9794902801514,18.277587890625 20.654296875,18.8671875 18.9715557098389,18.66943359375 17.1166973114014,18.076171875 15.0897207260132,17.08740234375 12.890625,15.703125 10.29052734375,14.208984375 8.232421875,13.7109375 6.427001953125,14.033203125 5.1123046875,15 4.288330078125,16.611328125 3.955078125,18.8671875 0,18.8671875 0.6591796875,15.087890625 2.3291015625,12.2607421875 4.892578125,10.4736328125 8.232421875,9.84375z M14.443359375,0L15.7177734375,0.263671875 16.7724609375,0.966796875 17.490234375,2.0068359375 17.75390625,3.28125 17.490234375,4.5556640625 16.7724609375,5.6103515625 15.7177734375,6.328125 14.443359375,6.591796875 13.18359375,6.328125 12.158203125,5.625 11.455078125,4.5849609375 11.19140625,3.28125 11.455078125,2.0068359375 12.158203125,0.966796875 13.18359375,0.263671875 14.443359375,0z" />
    </g>
  </g>
</svg>