<?xml version="1.0" encoding="utf-8"?>
<!DOCTYPE svg PUBLIC "-//W3C//DTD SVG 1.1//EN" "http://www.w3.org/Graphics/SVG/1.1/DTD/svg11.dtd">
<svg width="43.564453125" height="55.751953125" xmlns="http://www.w3.org/2000/svg" xmlns:xlink="http://www.w3.org/1999/xlink" xmlns:xml="http://www.w3.org/XML/1998/namespace" version="1.1">
  <g>
    <g>
      <path style="fill:#FF0000;fill-opacity:1" d="M17.4609375,23.173828125L16.318359375,25.166015625 15.908203125,27.5390625 16.3037109375,29.9267578125 17.431640625,31.9921875 21.005859375,27.59765625 17.4609375,23.173828125z M22.55859375,20.888671875L22.1630859375,20.9033203125 21.767578125,20.947265625 26.953125,27.48046875 21.38671875,34.365234375 22.5,34.453125 25.1806640625,33.896484375 27.333984375,32.3876953125 28.76953125,30.1904296875 29.296875,27.5390625 28.7841796875,24.931640625 27.36328125,22.822265625 25.224609375,21.4013671875 22.55859375,20.888671875z M1.08398485183716,0L40.634765625,0 40.634765625,4.51171875 8.759765625,4.51171875 18.80859375,17.197265625 20.595703125,16.7431640625 22.5,16.58203125 24.7265625,16.8017597198486 26.8359375,17.4609375 30.4248046875,19.833984375 32.87109375,23.3203125 33.55224609375,25.37109375 33.779296875,27.5390625 33.55224609375,29.8828125 32.87109375,32.05078125 30.4248046875,35.654296875 26.8359375,38.0419921875 24.7265625,38.690185546875 22.5,38.90625 20.3466796875,38.701171875 18.369140625,38.115234375 7.79296875,51.240234375 43.564453125,51.240234375 43.564453125,55.751953125 0,55.751953125 0,53.466796875 14.560546875,35.5078125 12.2314453125,31.875 11.605224609375,29.765625 11.396484375,27.5390625 11.6162109375,25.26123046875 12.275390625,23.173828125 14.677734375,19.6875 1.08398485183716,2.666015625 1.08398485183716,0z" />
    </g>
  </g>
</svg>