<?xml version="1.0" encoding="utf-8"?>
<!DOCTYPE svg PUBLIC "-//W3C//DTD SVG 1.1//EN" "http://www.w3.org/Graphics/SVG/1.1/DTD/svg11.dtd">
<svg width="35.244140625" height="38.466796875" xmlns="http://www.w3.org/2000/svg" xmlns:xlink="http://www.w3.org/1999/xlink" xmlns:xml="http://www.w3.org/XML/1998/namespace" version="1.1">
  <g>
    <g>
      <path style="fill:#FF0000;fill-opacity:1" d="M17.666015625,15.41015625L13.798828125,19.248046875 17.666015625,23.056640625 21.50390625,19.248046875 17.666015625,15.41015625z M7.763671875,0L17.666015625,9.9609375 27.626953125,0 30.380859375,2.75390625 20.419921875,12.71484375 24.228515625,16.5234375 32.490234375,8.291015625 35.244140625,11.044921875 26.982421875,19.248046875 35.244140625,27.421875 32.490234375,30.17578125 24.228515625,21.97265625 20.419921875,25.751953125 30.380859375,35.712890625 27.626953125,38.466796875 17.666015625,28.505859375 7.763671875,38.466796875 5.009765625,35.712890625 14.970703125,25.751953125 11.07421875,21.943359375 2.75390625,30.17578125 0,27.421875 8.3203125,19.248046875 0,11.044921875 2.75390625,8.291015625 11.07421875,16.552734375 14.970703125,12.71484375 5.009765625,2.75390625 7.763671875,0z" />
    </g>
  </g>
</svg>