<?xml version="1.0" encoding="utf-8"?>
<!DOCTYPE svg PUBLIC "-//W3C//DTD SVG 1.1//EN" "http://www.w3.org/Graphics/SVG/1.1/DTD/svg11.dtd">
<svg width="27.5390625" height="38.759765625" xmlns="http://www.w3.org/2000/svg" xmlns:xlink="http://www.w3.org/1999/xlink" xmlns:xml="http://www.w3.org/XML/1998/namespace" version="1.1">
  <g>
    <g>
      <path style="fill:#FF0000;fill-opacity:1" d="M27.5390625,20.302734375L27.5390625,24.638671875 0,38.759765625 0,34.39453125 27.5390625,20.302734375z M23.173828125,0.64453125L24.43359375,0.908203125 25.458984375,1.611328125 26.162109375,2.6513671875 26.42578125,3.92578125 26.162109375,5.2294921875 25.458984375,6.26953125 24.43359375,6.97265625 23.173828125,7.236328125 21.8994140625,6.97265625 20.8447265625,6.2548828125 20.126953125,5.2001953125 19.86328125,3.92578125 20.126953125,2.6513671875 20.8447265625,1.611328125 21.8994140625,0.908203125 23.173828125,0.64453125z M0,0L27.5390625,14.12109375 27.5390625,15.703125 0,29.82421875 0,25.458984375 21.15234375,14.970703125 21.15234375,14.853515625 0,4.39453125 0,0z" />
    </g>
  </g>
</svg>