<?xml version="1.0" encoding="utf-8"?>
<!DOCTYPE svg PUBLIC "-//W3C//DTD SVG 1.1//EN" "http://www.w3.org/Graphics/SVG/1.1/DTD/svg11.dtd">
<svg width="28.857421875" height="38.14453125" xmlns="http://www.w3.org/2000/svg" xmlns:xlink="http://www.w3.org/1999/xlink" xmlns:xml="http://www.w3.org/XML/1998/namespace" version="1.1">
  <g>
    <g>
      <path style="fill:#FF0000;fill-opacity:1" d="M8.232421875,29.091796875L11.52099609375,29.736328125 15.1171875,31.669921875 18.4790019989014,33.66943359375 20.888671875,34.3359375 22.5,33.955078125 23.759765625,32.87109375 24.580078125,31.201171875 24.90234375,29.091796875 28.857421875,29.091796875 28.1689453125,32.933349609375 26.513671875,35.7861328125 23.9794902801514,37.554931640625 20.654296875,38.14453125 18.9715557098389,37.94677734375 17.1166973114014,37.353515625 15.0897207260132,36.36474609375 12.890625,34.98046875 10.33447265625,33.5302734375 8.232421875,33.046875 6.427001953125,33.365478515625 5.1123046875,34.3212890625 4.288330078125,35.914306640625 3.955078125,38.14453125 0,38.14453125 0.6591796875,34.3798828125 2.314453125,31.5234375 4.86328125,29.7216796875 8.232421875,29.091796875z M8.232421875,17.05078125L11.52099609375,17.6953125 15.1171875,19.62890625 18.4936504364014,21.6064453125 20.888671875,22.265625 22.4999980926514,21.910400390625 23.759765625,20.8447265625 24.5874004364014,19.185791015625 24.90234375,17.05078125 28.857421875,17.05078125 28.1689453125,20.870361328125 26.513671875,23.7158203125 23.9794902801514,25.484619140625 20.654296875,26.07421875 18.9715557098389,25.87646484375 17.1166973114014,25.283203125 15.0897207260132,24.29443359375 12.890625,22.91015625 10.29052734375,21.416015625 8.232421875,20.91796875 6.427001953125,21.240234375 5.1123046875,22.20703125 4.288330078125,23.818359375 3.955078125,26.07421875 0,26.07421875 0.6591796875,22.294921875 2.3291015625,19.4677734375 4.892578125,17.6806640625 8.232421875,17.05078125z M13.388671875,0L15.46875,0 24.2578125,14.296875 20.390625,14.296875 14.501953125,4.541015625 14.296875,4.541015625 8.37890625,14.296875 4.62890625,14.296875 13.388671875,0z" />
    </g>
  </g>
</svg>