<?xml version="1.0" encoding="utf-8"?>
<!DOCTYPE svg PUBLIC "-//W3C//DTD SVG 1.1//EN" "http://www.w3.org/Graphics/SVG/1.1/DTD/svg11.dtd">
<svg width="17.75390625" height="32.841796875" xmlns="http://www.w3.org/2000/svg" xmlns:xlink="http://www.w3.org/1999/xlink" xmlns:xml="http://www.w3.org/XML/1998/namespace" version="1.1">
  <g>
    <g>
      <path style="fill:#FF0000;fill-opacity:1" d="M11.337890625,7.32421875L12.3486328125,7.6904296875 12.9638671875,8.5693359375 13.271484375,9.66796875 13.359375,10.693359375 13.3154296875,12.24609375 13.212890625,14.296875 13.0810546875,16.4208984375 12.94921875,18.193359375 17.431640625,18.193359375 17.431640625,23.525390625 14.501953125,23.525390625 13.88671875,32.548828125 13.06640625,32.841796875 11.9091796875,29.267578125 11.220703125,26.3525390625 10.9130859375,24.3603515625 10.83984375,23.525390625 10.83984375,19.365234375 10.9130859375,18.076171875 11.07421875,16.4208984375 11.25,14.6923828125 11.3671875,13.154296875 11.30859375,12.802734375 11.25,12.451171875 10.6787109375,13.271484375 10.166015625,14.47265625 9.7265625,15.7177734375 9.404296875,16.69921875 8.31298828125,19.2956562042236 7.08984375,21.2841796875 5.73486280441284,22.547607421875 4.248046875,22.96875 2.4609375,22.55859375 1.12793004512787,21.416015625 0.29296886920929,19.6728515625 0,17.4609375 0.131836295127869,16.58203125 0.732422113418579,16.201171875 1.28906261920929,16.5380859375 1.97753942012787,17.28515625 2.9150390625,18.0322265625 4.248046875,18.369140625 5.65795850753784,18.0651874542236 6.7822265625,17.1533203125 7.672119140625,15.6701679229736 8.37890625,13.65234375 9.202880859375,10.95703125 10.0341796875,8.96484375 10.7775869369507,7.734375 11.337890625,7.32421875z M15.732421875,0L16.787109375,0.52734375 17.51220703125,1.3623046875 17.75390625,2.109375 17.578125,2.63671875 17.1240234375,3.1201171875 16.494140625,3.6474609375 15.791015625,4.306640625 15.234375,4.98046875 14.8095703125,5.5517578125 14.443359375,5.947265625 14.0625,6.09375 13.2275390625,5.8447265625 12.890625,5.068359375 12.9931640625,3.8525390625 13.330078125,2.63671875 13.7109375,1.7578125 14.2529296875,0.8935546875 14.9267578125,0.2490234375 15.732421875,0z M8.115234375,0L9.169921875,0.52734375 9.89501953125,1.3623046875 10.13671875,2.109375 9.9609375,2.63671875 9.5068359375,3.1201171875 8.876953125,3.6474609375 8.173828125,4.306640625 7.6171875,4.98046875 7.1923828125,5.5517578125 6.826171875,5.947265625 6.4453125,6.09375 5.6103515625,5.8447265625 5.2734375,5.068359375 5.3759765625,3.8525390625 5.712890625,2.63671875 6.09375,1.7578125 6.6357421875,0.8935546875 7.3095703125,0.2490234375 8.115234375,0z" />
    </g>
  </g>
</svg>