<?xml version="1.0" encoding="utf-8"?>
<!DOCTYPE svg PUBLIC "-//W3C//DTD SVG 1.1//EN" "http://www.w3.org/Graphics/SVG/1.1/DTD/svg11.dtd">
<svg width="19.1015625000011" height="24.228515625" xmlns="http://www.w3.org/2000/svg" xmlns:xlink="http://www.w3.org/1999/xlink" xmlns:xml="http://www.w3.org/XML/1998/namespace" version="1.1">
  <g>
    <g>
      <path style="fill:#FF0000;fill-opacity:1" d="M7.8515625,0L9.2431640625,0.322265625 10.224609375,1.0107421875 10.927734375,1.69921875 11.455078125,2.021484375 12.2607421875,1.69921875 13.2861328125,1.0107421875 14.5458984375,0.322265625 15.99609375,0 17.314453125,0.439453125 18.2958984375,1.5234375 18.896484375,2.9150390625 19.1015625,4.306640625 18.6328125,7.1337890625 17.5048828125,9.9609375 16.142578125,12.5390625 14.94140625,14.560546875 13.916015625,16.3037109375 12.9052734375,18.10546875 12.1435546875,19.5703125 11.8359375,20.361328125 12.2900390625,21.2109375 13.271484375,21.50390625 14.2236328125,21.357421875 14.970703125,20.9326171875 15.6591796875,20.244140625 16.435546875,19.27734375 16.7431640625,18.92578125 17.05078125,18.720703125 17.490234375,18.837890625 17.607421875,19.306640625 17.2119140625,20.654296875 16.201171875,22.177734375 14.82421875,23.4375 13.359375,23.96484375 12.1435546875,23.8916015625 10.8984375,23.818359375 10.1953125,23.876953125 9.6826171875,24.0234375 9.2724609375,24.169921875 8.876953125,24.228515625 8.291015625,24.111328125 8.291015625,23.759765625 8.6572265625,22.9248046875 9.5947265625,21.2841796875 10.8837890625,19.130859375 12.3046875,16.7431640625 13.623046875,14.384765625 14.619140625,12.36328125 15.41015625,10.4443359375 16.0986328125,8.4375 16.58203125,6.4892578125 16.7578125,4.74609375 16.7138671875,3.7353515625 16.494140625,2.6513671875 15.99609375,1.7724609375 15.1171875,1.40625 13.7475576400757,2.05078125 12.392578125,3.984375 10.9570302963257,7.14111328125 9.345703125,11.455078125 8.994140625,12.59765625 8.3349609375,14.4873046875 7.4267578125,16.2451171875 6.903076171875,16.8273944854736 6.357421875,17.021484375 6.123046875,16.845703125 6.005859375,16.46484375 6.3134765625,15.4833984375 7.03125,13.974609375 7.8369140625,12.3486328125 8.4375,11.015625 9.6533203125,7.001953125 9.971923828125,5.32470703125 10.078125,4.04296875 9.47021484375,2.1533203125 7.646484375,1.5234375 5.3759765625,2.6806640625 3.779296875,4.86328125 2.75390625,7.705078125 2.16796875,10.869140625 1.90429675579071,14.00390625 1.84570300579071,16.7578125 2.06542921066284,19.39453125 2.5341796875,20.9326171875 3.0029296875,21.826171875 3.22265625,22.529296875 2.8125,23.4814453125 1.78710901737213,23.935546875 0.7763671875,23.4375 0.234375,22.1923828125 0.0292967557907104,20.595703125 0,19.04296875 0.102538824081421,15.7470703125 0.512695074081421,11.689453125 1.37695276737213,7.4853515625 2.7978515625,3.720703125 4.9072265625,1.025390625 6.26586866378784,0.25634765625 7.8515625,0z" />
    </g>
  </g>
</svg>