<?xml version="1.0" encoding="utf-8"?>
<!DOCTYPE svg PUBLIC "-//W3C//DTD SVG 1.1//EN" "http://www.w3.org/Graphics/SVG/1.1/DTD/svg11.dtd">
<svg width="21.09375" height="22.822265625" xmlns="http://www.w3.org/2000/svg" xmlns:xlink="http://www.w3.org/1999/xlink" xmlns:xml="http://www.w3.org/XML/1998/namespace" version="1.1">
  <g>
    <g>
      <path style="fill:#FF0000;fill-opacity:1" d="M8.90625,3.369140625L6.943359375,3.92578125 5.3759765625,5.2587890625 3.9697265625,6.884765625 2.490234375,8.3203125 3.95507836341858,9.4189453125 5.44921875,10.9130859375 7.060546875,12.216796875 8.90625,12.7734375 10.458984375,12.491455078125 11.71875,11.6455078125 12.5537099838257,10.2282733917236 12.83203125,8.232421875 12.5756826400757,6.28784322738647 11.806640625,4.7314453125 10.56884765625,3.70971822738647 8.90625,3.369140625z M8.90625,0L11.1767578125,0.5126953125 13.125,2.05078125 14.501953125,4.5849609375 15.05859375,8.115234375 21.09375,8.115234375 21.09375,13.447265625 18.28125,13.447265625 17.4169921875,18.193359375 16.259765625,22.822265625 15.46875,22.822265625 14.23828125,18.251953125 13.447265625,13.59375 12.2900390625,14.7802734375 11.044921875,15.5712890625 9.873046875,16.0107421875 8.90625,16.142578125 7.6904296875,16.0400390625 6.50390625,15.64453125 5.361328125,14.82421875 4.27734375,13.447265625 3.076171875,11.6162109375 2.0654296875,10.2978515625 1.09863257408142,9.375 0,8.671875 0,7.96875 0.820312321186066,7.2509765625 1.56738257408142,6.4453125 2.31445288658142,5.4638671875 3.10546898841858,4.248046875 4.62890625,2.138671875 6.064453125,0.8349609375 7.470703125,0.17578125 8.90625,0z" />
    </g>
  </g>
</svg>