<?xml version="1.0" encoding="utf-8"?>
<!DOCTYPE svg PUBLIC "-//W3C//DTD SVG 1.1//EN" "http://www.w3.org/Graphics/SVG/1.1/DTD/svg11.dtd">
<svg width="38.02734375" height="17.6953125" xmlns="http://www.w3.org/2000/svg" xmlns:xlink="http://www.w3.org/1999/xlink" xmlns:xml="http://www.w3.org/XML/1998/namespace" version="1.1">
  <g>
    <g>
      <path style="fill:#FF0000;fill-opacity:1" d="M29.267578125,0L33.10546875,0.7470703125 35.8447265625,2.7392578125 37.4853515625,5.595703125 38.02734375,8.935546875 37.353515625,12.7294921875 35.478515625,15.46875 32.5927734375,17.138671875 28.88671875,17.6953125 25.5322265625,17.138671875 22.3095703125,15.7470703125 18.955078125,13.9599609375 15.263671875,12.1875 12.4951171875,11.2060546875 9.6240234375,10.5615234375 6.181640625,10.1513671875 1.728515625,9.873046875 0.512695610523224,9.6533203125 0,8.671875 0.43212890625,7.90283346176147 1.728515625,7.646484375 5.947265625,7.7490234375 9.5361328125,8.115234375 12.9931640625,8.8623046875 16.81640625,10.107421875 19.541015625,11.19140625 22.6171875,12.4072265625 25.7666015625,13.388671875 28.681640625,13.798828125 31.2158203125,13.465576171875 32.958984375,12.4658203125 33.9697265625,10.850830078125 34.306640625,8.671875 33.9111328125,6.2255859375 32.8564453125,4.423828125 31.3330078125,3.310546875 29.53125,2.9296875 27.0849609375,3.603515625 25.9973125457764,4.50439596176147 25.107421875,5.859375 24.4335918426514,6.87011861801147 23.525390625,7.20703125 22.9541015625,7.0166015625 22.5439453125,6.5478515625 22.3095703125,5.9765625 22.236328125,5.44921875 22.9541015625,3.2080078125 24.7412109375,1.494140625 27.0263671875,0.3955078125 29.267578125,0z" />
    </g>
  </g>
</svg>