<?xml version="1.0" encoding="utf-8"?>
<!DOCTYPE svg PUBLIC "-//W3C//DTD SVG 1.1//EN" "http://www.w3.org/Graphics/SVG/1.1/DTD/svg11.dtd">
<svg width="15.5859375000004" height="28.828125" xmlns="http://www.w3.org/2000/svg" xmlns:xlink="http://www.w3.org/1999/xlink" xmlns:xml="http://www.w3.org/XML/1998/namespace" version="1.1">
  <g>
    <g>
      <path style="fill:#FF0000;fill-opacity:1" d="M1.87499988079071,17.373046875L1.93359363079071,20.302734375 2.34375,22.6318359375 3.4716796875,24.169921875 5.68359375,24.7265625 7.8955078125,24.1845703125 9.0380859375,22.67578125 9.462890625,20.361328125 9.521484375,17.373046875 1.87499988079071,17.373046875z M8.0859375,0L9.7998046875,0.24169921875 11.30859375,0.966796875 13.6669921875,3.6474609375 15.1025390625,7.7197265625 15.5859375,12.861328125 15.3515625,14.47265625 14.94140625,15.029296875 14.3408203125,14.5751953125 14.1394033432007,13.8977069854736 13.916015625,12.7734375 13.0078125,9.169921875 11.66015625,6.650390625 9.990234375,5.1708984375 8.0859375,4.6875 5.914306640625,5.14709520339966 4.1748046875,6.52587985992432 2.867431640625,8.82385349273682 1.99218738079071,12.041015625 8.90625,12.041015625 10.7739248275757,12.6782245635986 11.396484375,14.58984375 11.396484375,20.0390625 11.1181640625,23.291015625 10.1806640625,26.103515625 8.4228515625,28.0810546875 5.68359375,28.828125 3.5302734375,28.271484375 2.0068359375,26.77734375 0.98144519329071,24.638671875 0.36621105670929,22.177734375 0.0732420682907104,19.658203125 0,17.373046875 0,12.041015625 0.80932605266571,6.87378025054932 2.4169921875,3.0908203125 3.52386474609375,1.73858642578125 4.837646484375,0.772705078125 6.35833740234375,0.19317626953125 8.0859375,0z" />
    </g>
  </g>
</svg>