<?xml version="1.0" encoding="utf-8"?>
<!DOCTYPE svg PUBLIC "-//W3C//DTD SVG 1.1//EN" "http://www.w3.org/Graphics/SVG/1.1/DTD/svg11.dtd">
<svg width="14.794921875" height="34.21875" xmlns="http://www.w3.org/2000/svg" xmlns:xlink="http://www.w3.org/1999/xlink" xmlns:xml="http://www.w3.org/XML/1998/namespace" version="1.1">
  <g>
    <g>
      <path style="fill:#FF0000;fill-opacity:1" d="M2.87109351158142,0L3.29589796066284,1.7724609375 4.04296875,2.9296875 5.2294921875,3.544921875 6.97265625,3.720703125 8.671875,3.92578125 9.7265625,4.423828125 8.466796875,12.3046875 9.6826171875,13.9453125 10.107421875,16.669921875 10.107421875,19.51171875 14.794921875,19.51171875 14.794921875,24.84375 11.19140625,24.84375 10.7958984375,29.326171875 10.107421875,33.92578125 9.052734375,34.21875 8.056640625,31.435546875 7.353515625,28.447265625 6.92871046066284,25.7666015625 6.79687547683716,23.90625 6.79687547683716,19.51171875 6.5185546875,17.6220703125 5.56640625,16.904296875 4.7314453125,16.9775390625 4.0283203125,17.197265625 3.33984375,17.548828125 2.548828125,18.046875 1.42089819908142,18.9111328125 0.820312440395355,19.27734375 0.249023497104645,18.6181640625 2.70006239588838E-13,17.98828125 0.732421636581421,17.16796875 1.55273413658142,16.201171875 3.29589796066284,14.3261728286743 4.775390625,13.037109375 6.04247999191284,12.26806640625 7.1484375,11.953125 7.73437547683716,7.880859375 6.591796875,7.91015625 4.508056640625,7.58056640625 3.0615234375,6.591796875 2.21557593345642,5.068359375 1.93359351158142,3.134765625 2.10937452316284,1.552734375 2.87109351158142,0z" />
    </g>
  </g>
</svg>