<?xml version="1.0" encoding="utf-8"?>
<!DOCTYPE svg PUBLIC "-//W3C//DTD SVG 1.1//EN" "http://www.w3.org/Graphics/SVG/1.1/DTD/svg11.dtd">
<svg width="15.8203125" height="40.13671875" xmlns="http://www.w3.org/2000/svg" xmlns:xlink="http://www.w3.org/1999/xlink" xmlns:xml="http://www.w3.org/XML/1998/namespace" version="1.1">
  <g>
    <g>
      <path style="fill:#FF0000;fill-opacity:1" d="M10.25390625,0L12.4072265625,0.673828125 13.916015625,2.431640625 14.912109375,4.9072265625 15.498046875,7.7490234375 15.76171875,10.576171875 15.8203125,13.037109375 15.5419921875,17.2998046875 15.1171875,21.2109375 14.443359375,24.9755859375 13.447265625,28.76953125 11.923828125,32.8857421875 9.9609375,36.533203125 7.73437595367432,39.140625 6.5625,39.8876953125 5.39062547683716,40.13671875 3.45703148841858,39.580078125 1.72851574420929,38.203125 0.483398795127869,36.4306640625 0,34.6875 0.219726979732513,33.9404296875 0.717774033546448,33.369140625 1.2744140625,33.017578125 1.66992199420929,32.900390625 2.18261742591858,33.193359375 2.40234375,34.04296875 3.035888671875,35.760498046875 3.76464867591858,36.9287109375 4.62524461746216,37.598876953125 5.65429735183716,37.822265625 6.617431640625,37.62451171875 7.51464891433716,37.03125 9.1259765625,34.8779296875 10.5029296875,31.669921875 11.689453125,27.71484375 12.392578125,24.3896484375 13.0078125,20.3759765625 13.4326171875,16.025390625 13.59375,11.689453125 13.5205078125,9.9462890625 13.359375,7.763671875 13.0224609375,5.478515625 12.421875,3.4423828125 11.4404296875,1.9775390625 9.990234375,1.40625 8.49609375,1.875 7.19238328933716,3.10546875 6.06445360183716,4.833984375 5.09765672683716,6.796875 4.24438524246216,9.232177734375 3.61816430091858,12.0849609375 3.10546898841858,18.8671875 3.35449242591858,22.44140625 3.91113305091858,24.90234375 4.48242235183716,26.71875 4.74609422683716,28.359375 4.30664110183716,29.267578125 3.22265625,29.560546875 2.2412109375,29.12109375 1.58203125,27.685546875 1.20117211341858,25.0634765625 1.08398485183716,21.064453125 1.27075219154358,16.3073749542236 1.83105480670929,12.1142578125 2.66967797279358,8.558349609375 3.69140672683716,5.712890625 5.02075242996216,3.314208984375 6.60644626617432,1.5087890625 8.375244140625,0.377197265625 10.25390625,0z" />
    </g>
  </g>
</svg>