<?xml version="1.0" encoding="utf-8"?>
<!DOCTYPE svg PUBLIC "-//W3C//DTD SVG 1.1//EN" "http://www.w3.org/Graphics/SVG/1.1/DTD/svg11.dtd">
<svg width="6.796875" height="21.5341472625732" xmlns="http://www.w3.org/2000/svg" xmlns:xlink="http://www.w3.org/1999/xlink" xmlns:xml="http://www.w3.org/XML/1998/namespace" version="1.1">
  <g>
    <g>
      <path style="fill:#FF0000;fill-opacity:1" d="M3.57421875,14.94140625L4.9658203125,15.172119140625 5.9765625,15.8642578125 6.591796875,16.937255859375 6.796875,18.310546875 6.591796875,19.625244140625 5.9765625,20.6396484375 4.9658203125,21.295166015625 3.57421875,21.533203125 2.10205078125,21.33544921875 0.966796875,20.68359375 0.24169921875,19.65087890625 0,18.310546875 0.238037109375,16.937255859375 0.9521484375,15.8642578125 2.083740234375,15.172119140625 3.57421875,14.94140625z M3.57421875,0L4.9658203125,0.230712890625 5.9765625,0.9228515625 6.591796875,1.995849609375 6.796875,3.369140625 6.591796875,4.68383932113647 5.9765625,5.6982421875 4.9658203125,6.35376119613647 3.57421875,6.591796875 2.10205078125,6.39404439926147 0.966796875,5.7421875 0.24169921875,4.70947408676147 0,3.369140625 0.238037109375,1.995849609375 0.9521484375,0.9228515625 2.083740234375,0.230712890625 3.57421875,0z" />
    </g>
  </g>
</svg>