<?xml version="1.0" encoding="utf-8"?>
<!DOCTYPE svg PUBLIC "-//W3C//DTD SVG 1.1//EN" "http://www.w3.org/Graphics/SVG/1.1/DTD/svg11.dtd">
<svg width="14.9431295394898" height="26.015625" xmlns="http://www.w3.org/2000/svg" xmlns:xlink="http://www.w3.org/1999/xlink" xmlns:xml="http://www.w3.org/XML/1998/namespace" version="1.1">
  <g>
    <g>
      <path style="fill:#FF0000;fill-opacity:1" d="M7.880859375,0L9.488525390625,0.21240234375 10.9130859375,0.849609375 13.1396484375,3.28125 14.501953125,7.1337890625 14.94140625,12.24609375 14.8828125,14.4873046875 14.71435546875,15.157470703125 14.326171875,15.380859375 13.7109375,15.17578125 13.30078125,14.6630859375 13.0810546875,13.9599609375 13.0078125,13.154296875 12.744140625,10.283203125 11.8798828125,7.5439453125 10.2978515625,5.4931640625 9.202880859375,4.888916015625 7.880859375,4.6875 6.32812452316284,4.88525390625 5.068359375,5.478515625 3.2958984375,7.529296875 2.373046875,10.3564453125 2.109375,13.4765625 2.76855421066284,17.75390625 4.39453125,20.8447265625 6.474609375,22.7197265625 8.49609375,23.349609375 9.0234375,22.763671875 8.935546875,22.1923828125 8.876953125,21.5625 9.0380859375,20.80078125 9.697265625,20.44921875 10.4296875,20.6396484375 11.279296875,21.1962890625 11.982421875,22.1044921875 12.275390625,23.37890625 12.041015625,24.638671875 11.42578125,25.4443359375 10.576171875,25.8837890625 9.638671875,26.015625 7.569580078125,25.784912109375 5.6982421875,25.0927734375 2.666015625,22.5146484375 0.703125,18.544921875 0,13.41796875 0.18676745891571,9.84741401672363 0.747070074081421,6.9287109375 1.60034167766571,4.599609375 2.666015625,2.7978515625 3.88916015625,1.48681640625 5.21484375,0.6298828125 7.880859375,0z" />
    </g>
  </g>
</svg>