<?xml version="1.0" encoding="utf-8"?>
<!DOCTYPE svg PUBLIC "-//W3C//DTD SVG 1.1//EN" "http://www.w3.org/Graphics/SVG/1.1/DTD/svg11.dtd">
<svg width="27.685546875" height="27.71484375" xmlns="http://www.w3.org/2000/svg" xmlns:xlink="http://www.w3.org/1999/xlink" xmlns:xml="http://www.w3.org/XML/1998/namespace" version="1.1">
  <g>
    <g>
      <path style="fill:#FF0000;fill-opacity:1" d="M16.962890625,14.267578125L17.51953125,20.390625 18.80859375,22.1630859375 20.80078125,23.1884765625 23.1591796875,23.6865234375 25.576171875,23.90625 25.576171875,14.267578125 16.962890625,14.267578125z M15.76171875,0L16.9482421875,0.3662109375 18.45703125,1.171875 20.0537109375,2.1533203125 20.7421875,3.28125 20.6103515625,4.013671875 20.33203125,4.833984375 18.984375,8.935546875 27.685546875,8.935546875 27.685546875,27.71484375 26.19140625,27.71484375 24.0087890625,27.6416015625 21.474609375,27.3486328125 18.9697265625,26.6748046875 16.875,25.48828125 15.556640625,23.642578125 14.853515625,14.267578125 11.19140625,14.267578125 10.7958984375,18.75 10.107421875,23.349609375 9.052734375,23.642578125 8.056640625,20.859375 7.353515625,17.87109375 6.9287109375,15.1904296875 6.796875,13.330078125 6.796875,8.935546875 6.5185546875,7.0458984375 5.56640625,6.328125 4.7314453125,6.4013671875 4.0283203125,6.62109375 3.33984351158142,6.97265625 2.548828125,7.470703125 1.42089855670929,8.3349609375 0.820312559604645,8.701171875 0.249023169279099,8.0419921875 6.3948846218409E-14,7.412109375 0.732421875,6.591796875 1.552734375,5.625 3.36914038658142,3.68408274650574 4.892578125,2.373046875 6.18896436691284,1.6259765625 7.32421875,1.376953125 8.49609375,1.702880859375 9.375,2.6806640625 9.92431640625,4.18579196929932 10.107421875,6.09375 10.107421875,8.935546875 17.05078125,8.935546875 17.05078125,5.390625 16.875,4.27734375 16.1865234375,3.1494140625 15.439453125,2.0068359375 15.087890625,0.8203125 15.2563467025757,0.205078125 15.76171875,0z" />
    </g>
  </g>
</svg>