<?xml version="1.0" encoding="utf-8"?>
<!DOCTYPE svg PUBLIC "-//W3C//DTD SVG 1.1//EN" "http://www.w3.org/Graphics/SVG/1.1/DTD/svg11.dtd">
<svg width="19.86328125" height="24.111328125" xmlns="http://www.w3.org/2000/svg" xmlns:xlink="http://www.w3.org/1999/xlink" xmlns:xml="http://www.w3.org/XML/1998/namespace" version="1.1">
  <g>
    <g>
      <path style="fill:#FF0000;fill-opacity:1" d="M0,0L19.86328125,0 19.86328125,5.33203125 12.421875,5.33203125 12.421875,11.484375 12.71484375,12.8466796875 13.4619140625,14.0478515625 14.4287109375,15.3076171875 15.3955078125,16.8310546875 16.142578125,18.837890625 16.435546875,21.533203125 15.6884765625,23.49609375 13.828125,24.111328125 12.5079345703125,24.0289306640625 11.56494140625,23.78173828125 10.9991455078125,23.3697509765625 10.810546875,22.79296875 11.220703125,21.85546875 12.333984375,21.5625 13.06640625,21.4306640625 13.447265625,21.0791015625 13.5791015625,20.595703125 13.59375,20.0390625 13.4619140625,18.896484375 13.1103515625,17.7392578125 12.59765625,16.845703125 11.953125,16.494140625 7.20703125,16.494140625 4.8193359375,17.2265625 3.57421875,19.189453125 2.9736328125,18.9404296875 2.5048828125,18.4130859375 2.197265625,17.7392578125 2.080078125,17.021484375 2.3876953125,14.7509765625 3.33984375,12.890625 4.951171875,11.630859375 7.20703125,11.162109375 10.810546875,11.162109375 10.810546875,5.33203125 0,5.33203125 0,0z" />
    </g>
  </g>
</svg>