<?xml version="1.0" encoding="utf-8"?>
<!DOCTYPE svg PUBLIC "-//W3C//DTD SVG 1.1//EN" "http://www.w3.org/Graphics/SVG/1.1/DTD/svg11.dtd">
<svg width="33.69140625" height="41.6015625" xmlns="http://www.w3.org/2000/svg" xmlns:xlink="http://www.w3.org/1999/xlink" xmlns:xml="http://www.w3.org/XML/1998/namespace" version="1.1">
  <g>
    <g>
      <path style="fill:#FF0000;fill-opacity:1" d="M2.87109375,0L3.29589819908142,1.7724609375 4.04296827316284,2.9296875 5.2294921875,3.544921875 6.97265625,3.720703125 8.671875,3.92578125 9.7265625,4.423828125 8.466796875,12.3046875 9.6826171875,13.9453125 10.107421875,16.669921875 10.107421875,19.51171875 15.849609375,19.51171875 15.849609375,23.671875 16.2451171875,27.5537109375 17.4462890625,31.0400390625 19.482421875,34.3505859375 22.353515625,37.67578125 22.998046875,36.416015625 23.7158203125,35.126953125 24.43359375,33.9111328125 25.107421875,32.900390625 23.5546875,30.7470703125 22.412109375,28.330078125 21.6943359375,25.8984375 21.4453125,23.671875 21.4453125,19.51171875 33.69140625,19.51171875 33.69140625,24.84375 23.90625,24.84375 24.19921875,26.6015625 25.078125,28.53515625 26.4550762176514,30.54931640625 28.2421875,32.548828125 26.8505859375,34.3798828125 25.283203125,36.9580078125 23.9208984375,39.5947265625 23.173828125,41.6015625 20.0390625,39.169921875 16.9921875,35.4638671875 14.58984375,30.6298828125 13.7988271713257,27.843017578125 13.41796875,24.84375 11.19140625,24.84375 10.7958984375,29.326171875 10.107421875,33.92578125 9.052734375,34.21875 8.056640625,31.435546875 7.353515625,28.447265625 6.9287109375,25.7666015625 6.796875,23.90625 6.796875,19.51171875 6.51855421066284,17.6220703125 5.56640625,16.904296875 4.7314453125,16.9775390625 4.02832078933716,17.197265625 3.33984375,17.548828125 2.54882788658142,18.046875 1.42089867591858,18.9111328125 0.820312321186066,19.27734375 0.2490234375,18.6181640625 0,17.98828125 0.732421875,17.16796875 1.55273473262787,16.201171875 3.29589819908142,14.3261728286743 4.77539014816284,13.037109375 6.04247999191284,12.26806640625 7.1484375,11.953125 7.73437547683716,7.880859375 6.591796875,7.91015625 4.508056640625,7.58056640625 3.06152319908142,6.591796875 2.215576171875,5.068359375 1.93359351158142,3.134765625 2.109375,1.55273389816284 2.87109375,0z" />
    </g>
  </g>
</svg>