<?xml version="1.0" encoding="utf-8"?>
<!DOCTYPE svg PUBLIC "-//W3C//DTD SVG 1.1//EN" "http://www.w3.org/Graphics/SVG/1.1/DTD/svg11.dtd">
<svg width="15.8203125" height="25.224609375" xmlns="http://www.w3.org/2000/svg" xmlns:xlink="http://www.w3.org/1999/xlink" xmlns:xml="http://www.w3.org/XML/1998/namespace" version="1.1">
  <g>
    <g>
      <path style="fill:#FF0000;fill-opacity:1" d="M5.712890625,17.021484375L4.423828125,17.2998046875 3.63281226158142,18.017578125 3.23730444908142,18.984375 3.13476538658142,20.009765625 3.82324194908142,21.943359375 4.632568359375,22.55859375 5.68359375,22.763671875 6.9287109375,22.529296875 7.822265625,21.9287109375 8.3642578125,21.123046875 8.5546875,20.244140625 8.34228515625,18.81591796875 7.705078125,17.8125 6.78222608566284,17.21923828125 5.712890625,17.021484375z M0,0L15.8203125,0 15.8203125,5.33203125 11.89453125,5.33203125 11.89453125,9.345703125 11.6015615463257,11.671142578125 10.72265625,13.5498046875 9.19921875,14.915771484375 6.97265625,15.703125 8.583984375,16.435546875 9.5947265625,17.5048828125 10.107421875,18.80859375 10.25390625,20.244140625 9.957275390625,22.349853515625 9.0673828125,23.9208984375 7.628173828125,24.898681640625 5.68359375,25.224609375 3.66210913658142,24.7119140625 2.25585913658142,23.3056640625 1.43554663658142,21.1962890625 1.17187476158142,18.544921875 1.36230444908142,16.7431640625 2.00683569908142,14.8388671875 3.22265601158142,13.1982421875 5.09765625,12.216796875 7.705078125,11.4111328125 9.0966796875,10.458984375 9.66796875,9.2578125 9.84375,7.67578125 9.84375,5.33203125 0,5.33203125 0,0z" />
    </g>
  </g>
</svg>