<?xml version="1.0" encoding="utf-8"?>
<!DOCTYPE svg PUBLIC "-//W3C//DTD SVG 1.1//EN" "http://www.w3.org/Graphics/SVG/1.1/DTD/svg11.dtd">
<svg width="26.806640625" height="24.375" xmlns="http://www.w3.org/2000/svg" xmlns:xlink="http://www.w3.org/1999/xlink" xmlns:xml="http://www.w3.org/XML/1998/namespace" version="1.1">
  <g>
    <g>
      <path style="fill:#FF0000;fill-opacity:1" d="M13.53515625,3.6328125L10.869140625,4.306640625 8.84765625,5.91796875 10.7958984375,7.5732421875 12.12890625,9.66796875 18.720703125,9.66796875 18.3837890625,7.265625 17.3876953125,5.3466796875 15.76171875,4.0869140625 13.53515625,3.6328125z M14.619140625,0L17.4169921875,0.6298828125 19.599609375,2.490234375 21.005859375,5.5224609375 21.50390625,9.66796875 26.806640625,9.66796875 26.806640625,15 23.49609375,15 22.6318359375,19.74609375 21.474609375,24.375 20.68359375,24.375 19.4384765625,19.74609375 18.662109375,15 1.201171875,15 0.29296863079071,13.9453125 0,12.978515625 0.205078125,12.1124277114868 0.8203125,11.2719745635986 1.845703125,10.4571542739868 3.28125,9.66796875 9.90234375,9.66796875 9.0673828125,8.6572265625 7.7490234375,7.4560546875 6.15234375,6.3427734375 4.541015625,5.595703125 7.247314453125,3.1475830078125 9.8291015625,1.39892578125 12.286376953125,0.3497314453125 14.619140625,0z" />
    </g>
  </g>
</svg>