<?xml version="1.0" encoding="utf-8"?>
<!DOCTYPE svg PUBLIC "-//W3C//DTD SVG 1.1//EN" "http://www.w3.org/Graphics/SVG/1.1/DTD/svg11.dtd">
<svg width="32.8125" height="29.6484375" xmlns="http://www.w3.org/2000/svg" xmlns:xlink="http://www.w3.org/1999/xlink" xmlns:xml="http://www.w3.org/XML/1998/namespace" version="1.1">
  <g>
    <g>
      <path style="fill:#FF0000;fill-opacity:1" d="M7.32421875,0L8.49609375,0.325927734375 9.375,1.3037109375 9.92431640625,2.80883860588074 10.107421875,4.716796875 10.107421875,7.55859375 17.021484375,7.55859375 17.021484375,11.71875 17.4169921875,15.6005859375 18.6181640625,19.0869140625 20.654296875,22.3974609375 23.525390625,25.72265625 24.169921875,24.462890625 24.8876953125,23.173828125 25.60546875,21.9580078125 26.279296875,20.947265625 24.7265625,18.7939453125 23.583984375,16.376953125 22.8662109375,13.9453125 22.6171875,11.71875 22.6171875,7.55859375 32.8125,7.55859375 32.8125,12.890625 25.078125,12.890625 25.3710918426514,14.6484375 26.25,16.58203125 27.6269512176514,18.59619140625 29.4140625,20.595703125 28.0224609375,22.4267578125 26.455078125,25.0048828125 25.0927734375,27.6416015625 24.345703125,29.6484375 21.2109375,27.216796875 18.1640625,23.5107421875 15.76171875,18.6767578125 14.9707021713257,15.889892578125 14.58984375,12.890625 11.19140625,12.890625 10.7958984375,17.373046875 10.107421875,21.97265625 9.052734375,22.265625 8.056640625,19.482421875 7.353515625,16.494140625 6.9287109375,13.8134765625 6.796875,11.953125 6.796875,7.55859375 6.5185546875,5.6689453125 5.56640625,4.951171875 4.7314453125,5.0244140625 4.0283203125,5.244140625 3.33984398841858,5.595703125 2.54882836341858,6.09375 1.42089819908142,6.9580078125 0.820312678813934,7.32421875 0.249023273587227,6.6650390625 0,6.03515625 0.73242199420929,5.21484375 1.55273425579071,4.248046875 3.36914038658142,2.30712962150574 4.892578125,0.99609375 6.18896436691284,0.2490234375 7.32421875,0z" />
    </g>
  </g>
</svg>