<?xml version="1.0" encoding="utf-8"?>
<!DOCTYPE svg PUBLIC "-//W3C//DTD SVG 1.1//EN" "http://www.w3.org/Graphics/SVG/1.1/DTD/svg11.dtd">
<svg width="17.431640625" height="34.130859375" xmlns="http://www.w3.org/2000/svg" xmlns:xlink="http://www.w3.org/1999/xlink" xmlns:xml="http://www.w3.org/XML/1998/namespace" version="1.1">
  <g>
    <g>
      <path style="fill:#FF0000;fill-opacity:1" d="M11.572265625,0L12.5170888900757,0.3662109375 12.83203125,1.46484375 12.83203125,6.09375 16.40625,6.09375 17.1240234375,6.4892578125 17.40234375,7.5 17.1240234375,8.466796875 16.40625,8.90625 12.275390625,8.90625 12.8173828125,9.521484375 13.154296875,10.341796875 13.3154296875,11.2060546875 13.359375,11.982421875 13.3154296875,13.53515625 13.212890625,15.5859375 13.0810546875,17.7099609375 12.94921875,19.482421875 17.431640625,19.482421875 17.431640625,24.814453125 14.501953125,24.814453125 13.88671875,33.837890625 13.06640625,34.130859375 11.9091796875,30.556640625 11.220703125,27.6416015625 10.9130859375,25.6494140625 10.83984375,24.814453125 10.83984375,20.654296875 10.9130859375,19.365234375 11.07421875,17.7099609375 11.25,15.9814453125 11.3671875,14.443359375 11.30859375,14.091796875 11.25,13.740234375 10.6787109375,14.6044921875 10.166015625,15.87890625 9.7265625,17.1826171875 9.404296875,18.193359375 8.316650390625,20.7824726104736 7.1044921875,22.6904296875 5.75317335128784,23.865966796875 4.248046875,24.2578125 2.46093773841858,23.84765625 1.12792992591858,22.705078125 0.29296886920929,20.9619140625 0,18.75 0.13183605670929,17.87109375 0.73242175579071,17.490234375 1.28906273841858,17.8271484375 1.97753930091858,18.57421875 2.9150390625,19.3212890625 4.248046875,19.658203125 5.65795850753784,19.3542499542236 6.7822265625,18.4423828125 7.672119140625,16.9592304229736 8.37890625,14.94140625 9.03076171875,12.755126953125 9.697265625,11.0009765625 10.3271484375,9.708251953125 10.869140625,8.90625 6.6796875,8.90625 5.8447265625,8.5986328125 5.44921827316284,7.5 5.8447265625,6.4892578125 6.6796875,6.09375 10.25390625,6.09375 10.25390625,1.46484375 10.58349609375,0.3662109375 11.572265625,0z" />
    </g>
  </g>
</svg>