<?xml version="1.0" encoding="utf-8"?>
<!DOCTYPE svg PUBLIC "-//W3C//DTD SVG 1.1//EN" "http://www.w3.org/Graphics/SVG/1.1/DTD/svg11.dtd">
<svg width="37.705078125" height="20.390625" xmlns="http://www.w3.org/2000/svg" xmlns:xlink="http://www.w3.org/1999/xlink" xmlns:xml="http://www.w3.org/XML/1998/namespace" version="1.1">
  <g>
    <g>
      <path style="fill:#FF0000;fill-opacity:1" d="M8.818359375,0L10.294189453125,0.208740234375 11.6748046875,0.8349609375 14.00390625,2.8125 15.615234375,5.1416015625 16.318359375,7.03125 17.40234375,4.2626953125 19.1162109375,2.0361328125 21.4453125,0.5419921875 24.404296875,0 25.9423809051514,0.234375 27.392578125,0.9375 29.8974609375,3.22265625 31.728515625,6.09375 32.6953125,8.759765625 33.603515625,6.6943359375 34.833984375,4.5849609375 36.064453125,2.9443359375 36.97265625,2.28515625 37.529296875,2.4462890625 37.705078125,3.076171875 37.20703125,4.27734375 36.683349609375,5.44189596176147 36.1083984375,7.001953125 35.533447265625,8.96850776672363 35.009765625,11.3525390625 34.63623046875,14.168701171875 34.51171875,17.431640625 34.464111328125,18.782958984375 34.3212890625,19.6728515625 33.75,20.390625 32.7685546875,19.86328125 32.1240234375,18.75 31.7578125,17.2412109375 31.640625,15.52734375 31.728515625,12.94921875 30.3369140625,8.8037109375 28.564453125,5.859375 26.4990234375,4.1015625 24.228515625,3.515625 21.6357421875,4.0869140625 19.74609375,5.5810546875 18.603515625,7.67578125 18.22265625,10.078125 18.515625,12.71484375 19.4091796875,14.8681640625 20.888671875,16.3330078125 22.939453125,16.875 23.9208984375,16.6552734375 24.638671875,16.11328125 25.0634765625,15.3955078125 25.1953125,14.677734375 25.4150390625,13.6962890625 25.8984375,13.388671875 26.7333984375,13.623046875 27.4365234375,14.2529296875 27.919921875,15.1904296875 28.095703125,16.376953125 27.626953125,18.1494140625 26.4111328125,19.39453125 24.7412109375,20.1416015625 22.939453125,20.390625 20.21484375,19.8193359375 18.134765625,18.1787109375 16.6552734375,15.5859375 15.703125,12.12890625 14.7216796875,8.8916015625 13.0810546875,6.1376953125 10.986328125,4.2333984375 8.642578125,3.515625 6.04980516433716,4.0869140625 4.16015625,5.5810546875 3.017578125,7.67578125 2.63671898841858,10.078125 2.9296875,12.71484375 3.8232421875,14.8681640625 5.302734375,16.3330078125 7.353515625,16.875 8.3349609375,16.6552734375 9.052734375,16.11328125 9.4775390625,15.3955078125 9.609375,14.677734375 9.8291015625,13.6962890625 10.3125,13.388671875 11.1474609375,13.623046875 11.8505859375,14.2529296875 12.333984375,15.1904296875 12.509765625,16.376953125 12.041015625,18.1494140625 10.8251953125,19.39453125 9.1552734375,20.1416015625 7.353515625,20.390625 4.248046875,19.658203125 1.93359375,17.548828125 0.49804699420929,14.208984375 0,9.814453125 0.600586175918579,6.005859375 2.34375,2.8857421875 5.1123046875,0.7763671875 6.851806640625,0.194091796875 8.818359375,0z" />
    </g>
  </g>
</svg>