<?xml version="1.0" encoding="utf-8"?>
<!DOCTYPE svg PUBLIC "-//W3C//DTD SVG 1.1//EN" "http://www.w3.org/Graphics/SVG/1.1/DTD/svg11.dtd">
<svg width="16.69921875" height="21.533203125" xmlns="http://www.w3.org/2000/svg" xmlns:xlink="http://www.w3.org/1999/xlink" xmlns:xml="http://www.w3.org/XML/1998/namespace" version="1.1">
  <g>
    <g>
      <path style="fill:#FF0000;fill-opacity:1" d="M1.28906238079071,5.33203125L2.05078125,7.5146484375 2.9296875,9.7412109375 3.9111328125,11.865234375 4.98046875,13.7109375 6.18896436691284,15.37353515625 7.236328125,16.552734375 8.26171875,17.255859375 9.404296875,17.490234375 9.931640625,17.1826171875 10.107421875,16.259765625 9.43359375,13.0224609375 7.6611328125,9.814453125 5.2001953125,7.1044921875 2.4609375,5.33203125 1.28906238079071,5.33203125z M0,0L16.69921875,0 16.69921875,5.33203125 5.56640625,5.33203125 8.1005859375,7.6611328125 10.48828125,10.60546875 12.2607421875,14.0185546875 12.94921875,17.724609375 12.7716054916382,19.390869140625 12.2387685775757,20.5810546875 11.3507070541382,21.295166015625 10.107421875,21.533203125 8.448486328125,21.207275390625 6.7529296875,20.2294921875 5.02807569503784,18.585205078125 3.28125,16.259765625 1.04003894329071,10.86181640625 0,5.33203125 0,0z" />
    </g>
  </g>
</svg>