<?xml version="1.0" encoding="utf-8"?>
<!DOCTYPE svg PUBLIC "-//W3C//DTD SVG 1.1//EN" "http://www.w3.org/Graphics/SVG/1.1/DTD/svg11.dtd">
<svg width="15.966796875" height="31.025390625" xmlns="http://www.w3.org/2000/svg" xmlns:xlink="http://www.w3.org/1999/xlink" xmlns:xml="http://www.w3.org/XML/1998/namespace" version="1.1">
  <g>
    <g>
      <path style="fill:#FF0000;fill-opacity:1" d="M0,10.83984375L15.966796875,10.83984375 15.966796875,16.171875 11.89453125,16.171875 11.5869140625,17.724609375 11.455078125,19.482421875 11.6455078125,22.32421875 12.099609375,24.8876953125 12.6123046875,26.9677734375 12.978515625,28.330078125 5.390625,28.330078125 3.0029296875,29.0625 1.75781261920929,31.025390625 1.15722692012787,30.7763671875 0.68847668170929,30.2490234375 0.380859613418579,29.5751953125 0.263672232627869,28.857421875 0.57128918170929,26.5869140625 1.52343761920929,24.7265625 3.134765625,23.466796875 5.390625,22.998046875 9.43359375,22.998046875 9.375,22.060546875 9.345703125,21.123046875 9.931640625,16.171875 0,16.171875 0,10.83984375z M8.935546875,1.40625L6.9140625,2.138671875 6.181640625,3.955078125 6.9287109375,5.9912109375 8.935546875,6.73828125 10.986328125,5.9912109375 11.71875,3.955078125 10.986328125,2.138671875 8.935546875,1.40625z M8.935546875,0L10.7702627182007,0.27099609375 12.1142578125,1.083984375 12.9382314682007,2.3291015625 13.212890625,3.896484375 12.9309072494507,5.69458103179932 12.0849609375,7.0458984375 10.7336416244507,7.89184713363647 8.935546875,8.173828125 7.177734375,7.89184713363647 5.830078125,7.0458984375 4.97314453125,5.69458103179932 4.6875,3.896484375 4.9658203125,2.3291015625 5.80078125,1.083984375 7.14111328125,0.27099609375 8.935546875,0z" />
    </g>
  </g>
</svg>