<?xml version="1.0" encoding="utf-8"?>
<!DOCTYPE svg PUBLIC "-//W3C//DTD SVG 1.1//EN" "http://www.w3.org/Graphics/SVG/1.1/DTD/svg11.dtd">
<svg width="13.76953125" height="37.470703125" xmlns="http://www.w3.org/2000/svg" xmlns:xlink="http://www.w3.org/1999/xlink" xmlns:xml="http://www.w3.org/XML/1998/namespace" version="1.1">
  <g>
    <g>
      <path style="fill:#FF0000;fill-opacity:1" d="M8.02734375,11.103515625L9.580078125,11.37451171875 10.83984375,12.1875 12.59765625,15.0146484375 13.505859375,18.92578125 13.76953125,23.291015625 13.6669921875,24.5654296875 13.18359375,24.9609375 12.685546875,24.5947265625 12.392578125,23.759765625 11.8212890625,21.1669921875 11.044921875,18.57421875 9.84375,16.58203125 9.01611328125,15.98876953125 7.998046875,15.791015625 5.7421875,16.376953125 4.1015625,18.0322265625 3.0908203125,20.595703125 2.75390577316284,23.876953125 3.29589796066284,26.1181640625 4.5849609375,27.919921875 6.123046875,29.2822265625 7.3828125,30.146484375 5.654296875,37.470703125 4.8046875,37.470703125 4.365234375,35.478515625 3.779296875,33.5009765625 3.10546875,31.7138671875 2.373046875,30.263671875 2.0654296875,31.7578125 1.58203136920929,33.2080078125 0.89355480670929,34.2919921875 0,34.658203125 0,21.97265625 0.791015386581421,21.97265625 1.62597620487213,17.373046875 3.2080078125,13.9599609375 5.390625,11.8359375 8.02734375,11.103515625z M7.763671875,1.40625L5.7421875,2.138671875 5.009765625,3.955078125 5.7568359375,5.9912109375 7.763671875,6.73828125 9.814453125,5.9912109375 10.546875,3.955078125 9.814453125,2.138671875 7.763671875,1.40625z M7.763671875,0L9.598388671875,0.270998924970627 10.9423828125,1.08398413658142 11.7663564682007,2.3291015625 12.041015625,3.896484375 11.7590322494507,5.694580078125 10.9130859375,7.0458984375 9.561767578125,7.891845703125 7.763671875,8.173828125 6.00585889816284,7.891845703125 4.658203125,7.0458984375 3.80126953125,5.694580078125 3.515625,3.896484375 3.7939453125,2.3291015625 4.62890625,1.08398413658142 5.96923780441284,0.270998924970627 7.763671875,0z" />
    </g>
  </g>
</svg>