<?xml version="1.0" encoding="utf-8"?>
<!DOCTYPE svg PUBLIC "-//W3C//DTD SVG 1.1//EN" "http://www.w3.org/Graphics/SVG/1.1/DTD/svg11.dtd">
<svg width="15.41015625" height="28.65234375" xmlns="http://www.w3.org/2000/svg" xmlns:xlink="http://www.w3.org/1999/xlink" xmlns:xml="http://www.w3.org/XML/1998/namespace" version="1.1">
  <g>
    <g>
      <path style="fill:#FF0000;fill-opacity:1" d="M9.0234375,0L10.87646484375,0.303955078125 12.333984375,1.2158203125 14.267578125,4.3212890625 15.17578125,8.5107421875 15.41015625,13.0078125 15.3076171875,14.2822265625 14.82421875,14.677734375 14.326171875,14.3115234375 14.033203125,13.4765625 13.4912109375,10.751953125 12.7001953125,7.880859375 11.3232421875,5.6103515625 10.308837890625,4.918212890625 8.994140625,4.6875 6.884765625,5.2587890625 4.98046875,6.9140625 3.60351586341858,9.521484375 3.07617235183716,12.919921875 3.51562523841858,16.3916015625 4.599609375,19.1015625 5.9765625,21.2548828125 7.294921875,22.998046875 6.2109375,28.65234375 5.830078125,28.65234375 4.4970703125,26.2353515625 3.33984398841858,23.73046875 1.3623046875,24.3310546875 0.29296886920929,24.462890625 0,24.140625 0.0585937760770321,23.7744140625 0.336914300918579,22.9541015625 0.99609375,21.796875 2.19726610183716,20.390625 1.17187511920929,16.201171875 1.17187511920929,10.869140625 2.1240234375,6.6650390625 3.89648461341858,3.2080078125 6.26953125,0.8642578125 7.6171875,0.216064453125 9.0234375,0z" />
    </g>
  </g>
</svg>