<?xml version="1.0" encoding="utf-8"?>
<!DOCTYPE svg PUBLIC "-//W3C//DTD SVG 1.1//EN" "http://www.w3.org/Graphics/SVG/1.1/DTD/svg11.dtd">
<svg width="15.8203125" height="23.056640625" xmlns="http://www.w3.org/2000/svg" xmlns:xlink="http://www.w3.org/1999/xlink" xmlns:xml="http://www.w3.org/XML/1998/namespace" version="1.1">
  <g>
    <g>
      <path style="fill:#FF0000;fill-opacity:1" d="M0,0L2.32910108566284,1.0986328125 4.2626953125,3.3837890625 5.771484375,6.50390625 6.8408203125,10.1220703125 7.4853515625,13.9013671875 7.705078125,17.490234375 8.0859375,17.490234375 9.7119140625,14.8095703125 10.25390625,11.513671875 10.1513671875,9.7998046875 9.7412109375,7.7783203125 8.8623046875,6.0791015625 7.3828125,5.33203125 6.796875,5.33203125 6.796875,0 15.8203125,0 15.8203125,5.33203125 10.107421875,5.33203125 11.6674795150757,7.99072265625 12.1875,11.455078125 11.9348134994507,14.43603515625 11.1767578125,16.93359375 9.898681640625,19.0283203125 8.0859375,20.80078125 5.61767530441284,22.49267578125 3.779296875,23.056640625 2.70263648033142,22.67578125 1.99218738079071,21.533203125 3.81225562095642,20.445556640625 5.11230421066284,19.1162109375 5.89233350753784,17.545166015625 6.15234375,15.732421875 5.9765625,14.1943359375 5.4345703125,12.216796875 4.541015625,10.0927734375 3.33984375,8.0712890625 1.81640613079071,6.4013671875 0,5.33203125 0,0z" />
    </g>
  </g>
</svg>