<?xml version="1.0" encoding="utf-8"?>
<!DOCTYPE svg PUBLIC "-//W3C//DTD SVG 1.1//EN" "http://www.w3.org/Graphics/SVG/1.1/DTD/svg11.dtd">
<svg width="43.4765625" height="30.966796875" xmlns="http://www.w3.org/2000/svg" xmlns:xlink="http://www.w3.org/1999/xlink" xmlns:xml="http://www.w3.org/XML/1998/namespace" version="1.1">
  <g>
    <g>
      <path style="fill:#FF0000;fill-opacity:1" d="M22.236328125,4.27734375L22.236328125,9.873046875 27.01171875,9.873046875 27.01171875,12.451171875 22.236328125,12.451171875 22.236328125,23.115234375 22.3974590301514,24.7265625 22.880859375,25.810546875 23.7377910614014,26.42578125 25.01953125,26.630859375 27.01171875,26.015625 27.01171875,28.59375 24.169921875,29.1796875 22.0037841796875,28.8336181640625 20.45654296875,27.79541015625 19.5281982421875,26.0650634765625 19.21875,23.642578125 19.21875,12.451171875 15.966796875,12.451171875 15.966796875,9.873046875 19.21875,9.873046875 19.21875,5.244140625 22.236328125,4.27734375z M34.306640625,0L38.0859375,0 40.4443359375,3.40393090248108 42.12890625,7.14111423492432 43.1396484375,11.2115488052368 43.4765625,15.615234375 43.1396484375,20.00244140625 42.12890625,24.0234375 40.4443359375,27.67822265625 38.0859375,30.966796875 34.365234375,30.966796875 36.749267578125,27.557373046875 38.4521484375,23.8623046875 39.473876953125,19.881591796875 39.814453125,15.615234375 39.47021484375,11.3104257583618 38.4375,7.27295017242432 36.71630859375,3.50280785560608 34.306640625,0z M5.390625,0L9.169921875,0 6.76025390625,3.50280785560608 5.0390625,7.27295017242432 4.00634765625,11.3104257583618 3.662109375,15.615234375 4.002685546875,19.881591796875 5.0244140625,23.8623046875 6.727294921875,27.557373046875 9.111328125,30.966796875 5.390625,30.966796875 3.0322265625,27.67822265625 1.34765625,24.0234375 0.3369140625,20.00244140625 0,15.615234375 0.3369140625,11.2115488052368 1.34765625,7.14111423492432 3.0322265625,3.40393090248108 5.390625,0z" />
    </g>
  </g>
</svg>