<?xml version="1.0" encoding="utf-8"?>
<!DOCTYPE svg PUBLIC "-//W3C//DTD SVG 1.1//EN" "http://www.w3.org/Graphics/SVG/1.1/DTD/svg11.dtd">
<svg width="43.4765625" height="30.966796875" xmlns="http://www.w3.org/2000/svg" xmlns:xlink="http://www.w3.org/1999/xlink" xmlns:xml="http://www.w3.org/XML/1998/namespace" version="1.1">
  <g>
    <g>
      <path style="fill:#FF0000;fill-opacity:1" d="M21.416015625,16.34765625L19.8486328125,16.7138671875 18.544921875,17.7392578125 17.666015625,19.306640625 17.34375,21.298828125 17.625732421875,23.63525390625 18.4716796875,25.3125 19.771728515625,26.337890625 21.416015625,26.71875 21.4453125,26.71875 22.9541015625,26.3525390625 24.2431640625,25.2978515625 25.1513671875,23.5986328125 25.48828125,21.298828125 25.166015625,19.306640625 24.287109375,17.7392578125 22.9833984375,16.7138671875 21.416015625,16.34765625z M21.416015625,5.009765625L20.185546875,5.2880859375 19.1455078125,6.09375 18.4130859375,7.412109375 18.134765625,9.19921875 18.365478515625,10.9570331573486 19.0576171875,12.3046875 20.1086406707764,13.16162109375 21.416015625,13.447265625 22.7087383270264,13.1689453125 23.7744140625,12.333984375 24.4885234832764,10.9936542510986 24.7265625,9.19921875 24.4921855926514,7.37548971176147 23.7890625,6.064453125 22.7270488739014,5.27343893051147 21.416015625,5.009765625z M21.38671875,2.578125L23.642578125,3.046875 25.546875,4.3798828125 26.865234375,6.4453125 27.36328125,9.140625 26.6162109375,12.275390625 24.375,14.736328125 26.103515625,15.9521484375 27.3193359375,17.6220703125 28.0517578125,19.5703125 28.30078125,21.650390625 27.71484375,24.697265625 26.162109375,27.041015625 23.935546875,28.5498046875 21.298828125,29.091796875 18.7646484375,28.6083984375 16.5966796875,27.1728515625 15.0732421875,24.7998046875 14.501953125,21.533203125 14.794921875,19.3359375 15.615234375,17.40234375 16.8603515625,15.8349609375 18.427734375,14.736328125 16.23046875,12.392578125 15.59326171875,10.8398456573486 15.380859375,9.111328125 15.8642578125,6.4599609375 17.16796875,4.39453125 19.0869140625,3.0615234375 21.38671875,2.578125z M34.306640625,0L38.0859375,0 40.4443359375,3.40393090248108 42.12890625,7.14111423492432 43.1396484375,11.2115488052368 43.4765625,15.615234375 43.1396484375,20.00244140625 42.12890625,24.0234375 40.4443359375,27.67822265625 38.0859375,30.966796875 34.365234375,30.966796875 36.749267578125,27.557373046875 38.4521484375,23.8623046875 39.473876953125,19.881591796875 39.814453125,15.615234375 39.47021484375,11.3104257583618 38.4375,7.27295017242432 36.71630859375,3.50280785560608 34.306640625,0z M5.390625,0L9.169921875,0 6.76025390625,3.50280785560608 5.0390625,7.27295017242432 4.00634765625,11.3104257583618 3.662109375,15.615234375 4.002685546875,19.881591796875 5.0244140625,23.8623046875 6.727294921875,27.557373046875 9.111328125,30.966796875 5.390625,30.966796875 3.0322265625,27.67822265625 1.34765625,24.0234375 0.3369140625,20.00244140625 0,15.615234375 0.3369140625,11.2115488052368 1.34765625,7.14111423492432 3.0322265625,3.40393090248108 5.390625,0z" />
    </g>
  </g>
</svg>