<?xml version="1.0" encoding="utf-8"?>
<!DOCTYPE svg PUBLIC "-//W3C//DTD SVG 1.1//EN" "http://www.w3.org/Graphics/SVG/1.1/DTD/svg11.dtd">
<svg width="43.4765625" height="30.966796875" xmlns="http://www.w3.org/2000/svg" xmlns:xlink="http://www.w3.org/1999/xlink" xmlns:xml="http://www.w3.org/XML/1998/namespace" version="1.1">
  <g>
    <g>
      <path style="fill:#FF0000;fill-opacity:1" d="M13.88671875,9.873046875L17.40234375,9.873046875 21.064453125,16.318359375 21.85546875,17.8125 21.943359375,17.8125 26.66015625,9.873046875 30,9.873046875 23.642578125,19.423828125 29.8828125,28.76953125 26.3671875,28.76953125 22.646484375,22.646484375 21.826171875,21.2109375 21.73828125,21.2109375 21.4819316864014,21.64306640625 20.888671875,22.646484375 17.080078125,28.76953125 13.59375,28.76953125 20.0390625,19.51171875 13.88671875,9.873046875z M34.306640625,0L38.0859375,0 40.4443359375,3.40393090248108 42.12890625,7.14111423492432 43.1396484375,11.2115488052368 43.4765625,15.615234375 43.1396484375,20.00244140625 42.12890625,24.0234375 40.4443359375,27.67822265625 38.0859375,30.966796875 34.365234375,30.966796875 36.749267578125,27.557373046875 38.4521484375,23.8623046875 39.473876953125,19.881591796875 39.814453125,15.615234375 39.47021484375,11.3104257583618 38.4375,7.27295017242432 36.71630859375,3.50280785560608 34.306640625,0z M5.390625,0L9.169921875,0 6.76025390625,3.50280785560608 5.0390625,7.27295017242432 4.00634765625,11.3104257583618 3.662109375,15.615234375 4.002685546875,19.881591796875 5.0244140625,23.8623046875 6.727294921875,27.557373046875 9.111328125,30.966796875 5.390625,30.966796875 3.0322265625,27.67822265625 1.34765625,24.0234375 0.3369140625,20.00244140625 0,15.615234375 0.3369140625,11.2115488052368 1.34765625,7.14111423492432 3.0322265625,3.40393090248108 5.390625,0z" />
    </g>
  </g>
</svg>