<?xml version="1.0" encoding="utf-8"?>
<!DOCTYPE svg PUBLIC "-//W3C//DTD SVG 1.1//EN" "http://www.w3.org/Graphics/SVG/1.1/DTD/svg11.dtd">
<svg width="43.4765625" height="30.966796875" xmlns="http://www.w3.org/2000/svg" xmlns:xlink="http://www.w3.org/1999/xlink" xmlns:xml="http://www.w3.org/XML/1998/namespace" version="1.1">
  <g>
    <g>
      <path style="fill:#FF0000;fill-opacity:1" d="M23.5546875,9.43359375L25.8984355926514,9.66064643859863 27.94921875,10.341796875 27.94921875,13.447265625 25.7665996551514,12.3486347198486 23.4375,11.982421875 20.7971172332764,12.4987812042236 18.6767578125,14.0478515625 17.281494140625,16.446533203125 16.81640625,19.51171875 17.252197265625,22.474365234375 18.5595703125,24.7412109375 20.6066875457764,26.180419921875 23.26171875,26.66015625 25.6494121551514,26.25 27.890625,25.01953125 27.890625,27.890625 25.5175762176514,28.87939453125 22.734375,29.208984375 19.07958984375,28.553466796875 16.201171875,26.5869140625 14.33349609375,23.572998046875 13.7109375,19.775390625 14.381103515625,15.552978515625 16.3916015625,12.2607421875 19.522705078125,10.1403827667236 23.5546875,9.43359375z M34.306640625,0L38.0859375,0 40.4443359375,3.40393090248108 42.12890625,7.14111423492432 43.1396484375,11.2115488052368 43.4765625,15.615234375 43.1396484375,20.00244140625 42.12890625,24.0234375 40.4443359375,27.67822265625 38.0859375,30.966796875 34.365234375,30.966796875 36.749267578125,27.557373046875 38.4521484375,23.8623046875 39.473876953125,19.881591796875 39.814453125,15.615234375 39.47021484375,11.3104257583618 38.4375,7.27295017242432 36.71630859375,3.50280785560608 34.306640625,0z M5.390625,0L9.169921875,0 6.76025390625,3.50280785560608 5.0390625,7.27295017242432 4.00634765625,11.3104257583618 3.662109375,15.615234375 4.002685546875,19.881591796875 5.0244140625,23.8623046875 6.727294921875,27.557373046875 9.111328125,30.966796875 5.390625,30.966796875 3.0322265625,27.67822265625 1.34765625,24.0234375 0.3369140625,20.00244140625 0,15.615234375 0.3369140625,11.2115488052368 1.34765625,7.14111423492432 3.0322265625,3.40393090248108 5.390625,0z" />
    </g>
  </g>
</svg>