<?xml version="1.0" encoding="utf-8"?>
<!DOCTYPE svg PUBLIC "-//W3C//DTD SVG 1.1//EN" "http://www.w3.org/Graphics/SVG/1.1/DTD/svg11.dtd">
<svg width="43.4765625" height="30.966796875" xmlns="http://www.w3.org/2000/svg" xmlns:xlink="http://www.w3.org/1999/xlink" xmlns:xml="http://www.w3.org/XML/1998/namespace" version="1.1">
  <g>
    <g>
      <path style="fill:#FF0000;fill-opacity:1" d="M23.26171875,3.779296875L32.841796875,3.779296875 32.841796875,6.357421875 25.458984375,6.357421875 24.66796875,13.798828125 25.60546875,13.7255859375 26.455078125,13.681640625 29.53125,14.2236328125 31.845703125,15.76171875 33.2958984375,18.1640625 33.80859375,21.26953125 33.2666015625,24.521484375 31.728515625,27.099609375 29.296875,28.7841796875 26.07421875,29.384765625 23.3935546875,29.12109375 21.4453125,28.359375 21.4453125,25.3125 23.759765625,26.572265625 26.103515625,26.982421875 28.1982421875,26.5576171875 29.765625,25.3857421875 30.732421875,23.6279296875 31.0546875,21.4453125 30.69580078125,19.178466796875 29.619140625,17.5341796875 27.919921875,16.534423828125 25.693359375,16.201171875 24.287109375,16.2451171875 22.08984375,16.40625 23.26171875,3.779296875z M14.794921875,2.841796875L16.142578125,2.841796875 16.142578125,28.798828125 13.359375,28.798828125 13.359375,6.708984375 12.3193359375,7.705078125 11.0888671875,8.5400390625 9.8291015625,9.169921875 8.73046875,9.55078125 8.73046875,6.826171875 11.9384765625,5.21484375 14.794921875,2.841796875z M34.306640625,0L38.0859375,0 40.4443359375,3.40393090248108 42.12890625,7.14111423492432 43.1396484375,11.2115488052368 43.4765625,15.615234375 43.1396484375,20.00244140625 42.12890625,24.0234375 40.4443359375,27.67822265625 38.0859375,30.966796875 34.365234375,30.966796875 36.749267578125,27.557373046875 38.4521484375,23.8623046875 39.473876953125,19.881591796875 39.814453125,15.615234375 39.47021484375,11.3104257583618 38.4375,7.27295017242432 36.71630859375,3.50280785560608 34.306640625,0z M5.390625,0L9.169921875,0 6.76025390625,3.50280785560608 5.0390625,7.27295017242432 4.00634765625,11.3104257583618 3.662109375,15.615234375 4.002685546875,19.881591796875 5.0244140625,23.8623046875 6.727294921875,27.557373046875 9.111328125,30.966796875 5.390625,30.966796875 3.0322265625,27.67822265625 1.34765625,24.0234375 0.3369140625,20.00244140625 0,15.615234375 0.3369140625,11.2115488052368 1.34765625,7.14111423492432 3.0322265625,3.40393090248108 5.390625,0z" />
    </g>
  </g>
</svg>