<?xml version="1.0" encoding="utf-8"?>
<!DOCTYPE svg PUBLIC "-//W3C//DTD SVG 1.1//EN" "http://www.w3.org/Graphics/SVG/1.1/DTD/svg11.dtd">
<svg width="43.4765625" height="30.966796875" xmlns="http://www.w3.org/2000/svg" xmlns:xlink="http://www.w3.org/1999/xlink" xmlns:xml="http://www.w3.org/XML/1998/namespace" version="1.1">
  <g>
    <g>
      <path style="fill:#FF0000;fill-opacity:1" d="M21.796875,2.841796875L24.2431640625,3.310546875 26.1767578125,4.599609375 27.451171875,6.5478515625 27.919921875,8.994140625 27.61962890625,11.2939472198486 26.71875,13.212890625 25.2905254364014,14.6923828125 23.408203125,15.673828125 23.408203125,15.732421875 25.5615234375,16.3916015625 27.216796875,17.7099609375 28.271484375,19.5556640625 28.65234375,21.767578125 28.0810546875,24.8583984375 26.484375,27.2607421875 24.052734375,28.828125 20.9765625,29.384765625 18.310546875,29.04052734375 16.23046875,28.0078125 16.23046875,24.90234375 18.515625,26.4404296875 21.09375,26.953125 23.0676250457764,26.619873046875 24.5947265625,25.6201171875 25.5725078582764,24.056396484375 25.8984375,22.03125 25.5340557098389,19.8651123046875 24.4409160614014,18.31787109375 22.6190166473389,17.3895263671875 20.068359375,17.080078125 18.310546875,17.080078125 18.310546875,14.6484375 19.98046875,14.6484375 22.2582988739014,14.322509765625 23.876953125,13.3447265625 24.8437480926514,11.7810077667236 25.166015625,9.697265625 24.9206523895264,7.81128072738647 24.1845703125,6.4306640625 22.9504375457764,5.58471822738647 21.2109375,5.302734375 19.06494140625,5.75683736801147 17.021484375,7.119140625 17.021484375,4.306640625 19.24072265625,3.2080078125 21.796875,2.841796875z M34.306640625,0L38.0859375,0 40.4443359375,3.40393090248108 42.12890625,7.14111423492432 43.1396484375,11.2115488052368 43.4765625,15.615234375 43.1396484375,20.00244140625 42.12890625,24.0234375 40.4443359375,27.67822265625 38.0859375,30.966796875 34.365234375,30.966796875 36.749267578125,27.557373046875 38.4521484375,23.8623046875 39.473876953125,19.881591796875 39.814453125,15.615234375 39.47021484375,11.3104257583618 38.4375,7.27295017242432 36.71630859375,3.50280785560608 34.306640625,0z M5.390625,0L9.169921875,0 6.76025390625,3.50280785560608 5.0390625,7.27295017242432 4.00634765625,11.3104257583618 3.662109375,15.615234375 4.002685546875,19.881591796875 5.0244140625,23.8623046875 6.727294921875,27.557373046875 9.111328125,30.966796875 5.390625,30.966796875 3.0322265625,27.67822265625 1.34765625,24.0234375 0.3369140625,20.00244140625 0,15.615234375 0.3369140625,11.2115488052368 1.34765625,7.14111423492432 3.0322265625,3.40393090248108 5.390625,0z" />
    </g>
  </g>
</svg>