<?xml version="1.0" encoding="utf-8"?>
<!DOCTYPE svg PUBLIC "-//W3C//DTD SVG 1.1//EN" "http://www.w3.org/Graphics/SVG/1.1/DTD/svg11.dtd">
<svg width="48.3984375" height="48.369140625" xmlns="http://www.w3.org/2000/svg" xmlns:xlink="http://www.w3.org/1999/xlink" xmlns:xml="http://www.w3.org/XML/1998/namespace" version="1.1">
  <g>
    <g>
      <path style="fill:#FF0000;fill-opacity:1" d="M23.466796875,24.2578125L21.6650390625,24.697265625 20.361328125,25.8544921875 19.5556640625,27.48046875 19.27734375,29.35546875 19.51171875,31.46484375 20.2587890625,33.5009765625 21.5625,35.0390625 23.49609375,35.654296875 25.341796875,35.1416015625 26.5869140625,33.80859375 27.3046875,31.9775390625 27.5390625,29.970703125 27.333984375,27.890625 26.66015625,26.0595703125 25.400390625,24.755859375 23.466796875,24.2578125z M25.224609375,11.484375L27.3486328125,11.66015625 29.00390625,12.216796875 29.00390625,14.94140625 27.1875,14.1943359375 25.283203125,13.9453125 23.115234375,14.4873046875 21.50390625,15.9375 20.361328125,18.0322265625 19.62890625,20.478515625 19.248046875,23.0126953125 19.130859375,25.341796875 19.189453125,25.341796875 20.0390625,23.778076171875 21.123046875,22.6611328125 22.44140625,21.990966796875 23.994140625,21.767578125 26.7626953125,22.4267578125 28.7255859375,24.169921875 29.8974609375,26.66015625 30.29296875,29.560546875 29.8388671875,32.63671875 28.505859375,35.361328125 26.337890625,37.294921875 23.408203125,38.02734375 21.507568359375,37.7490234375 19.9658203125,36.9140625 17.7978515625,34.0869140625 16.669921875,30.3369140625 16.34765625,26.455078125 16.5380859375,23.3056640625 17.1533203125,19.951171875 18.2666015625,16.7578125 19.9365234375,14.0625 22.236328125,12.1875 25.224609375,11.484375z M24.169921875,5.91796922683716L20.526123046875,6.28051805496216 17.0947265625,7.36816453933716 13.978271484375,9.078369140625 11.279296875,11.30859375 9.052734375,14.0075693130493 7.353515625,17.1240234375 6.27685546875,20.5554218292236 5.91796827316284,24.19921875 6.5771484375,29.033203125 8.4228515625,33.3837890625 11.279296875,37.08984375 14.9853515625,39.9462890625 19.3505859375,41.7919921875 24.169921875,42.451171875 29.00390625,41.7919921875 33.369140625,39.931640625 37.0751953125,37.060546875 39.9609375,33.369140625 41.8212890625,29.0185546875 42.48046875,24.19921875 41.8212890625,19.3798828125 39.9609375,15.0146484375 37.0751953125,11.30859375 33.3544921875,8.4375 28.9892578125,6.57714891433716 24.169921875,5.91796922683716z M24.169921875,4.04296922683716L29.501953125,4.76074266433716 34.3212890625,6.79687547683716 38.408203125,9.9609375 41.572265625,14.0478515625 43.623046875,18.8671875 44.35546875,24.19921875 43.623046875,29.5166015625 41.572265625,34.3212890625 38.408203125,38.408203125 34.3212890625,41.572265625 29.501953125,43.6083984375 24.169921875,44.326171875 20.13427734375,43.9306640625 16.34765625,42.744140625 12.9162588119507,40.872802734375 9.9462890625,38.4228515625 7.496337890625,35.452880859375 5.62499952316284,32.021484375 4.4384765625,28.23486328125 4.04296875,24.19921875 4.7607421875,18.8818359375 6.796875,14.0771484375 9.9609375,9.990234375 14.033203125,6.82617235183716 18.837890625,4.77539110183716 24.169921875,4.04296922683716z M24.169921875,2.25585985183716L21.229248046875,2.45361375808716 18.3837890625,3.04687547683716 13.154296875,5.27343797683716 8.7158203125,8.7158203125 5.2734375,13.1689453125 3.046875,18.4130859375 2.45361328125,21.2585468292236 2.25585961341858,24.19921875 2.45361328125,27.158203125 3.046875,30 5.2734375,35.21484375 8.7158203125,39.6533203125 13.154296875,43.095703125 18.3837890625,45.322265625 21.229248046875,45.91552734375 24.169921875,46.11328125 27.1105937957764,45.91552734375 29.9560546875,45.322265625 35.2001953125,43.095703125 39.6533203125,39.6533203125 43.1103515625,35.21484375 45.3515625,29.9853515625 45.94482421875,27.139892578125 46.142578125,24.19921875 45.94482421875,21.2585468292236 45.3515625,18.4130859375 43.1103515625,13.18359375 39.6533203125,8.73046875 35.2001953125,5.27343797683716 29.9560546875,3.04687547683716 27.1105937957764,2.45361375808716 24.169921875,2.25585985183716z M24.169921875,0L27.4035625457764,0.219726920127869 30.5419921875,0.87890625 36.3134765625,3.33984422683716 41.220703125,7.14843797683716 45.0439453125,12.0703125 47.51953125,17.841796875 48.1787071228027,20.9692401885986 48.3984375,24.19921875 48.1787071228027,27.451171875 47.51953125,30.5859375 45.0439453125,36.3427734375 41.220703125,41.2353515625 36.3134765625,45.029296875 30.5419921875,47.490234375 27.4035625457764,48.1494140625 24.169921875,48.369140625 20.91796875,48.1494140625 17.783203125,47.490234375 12.0263671875,45.029296875 7.1337890625,41.2353515625 3.33984375,36.3427734375 0.87890625,30.5859375 0.219726473093033,27.451171875 0,24.19921875 0.219726473093033,20.9472675323486 0.87890625,17.8125 3.33984375,12.0556640625 7.1337890625,7.14843797683716 12.041015625,3.33984422683716 17.8125,0.87890625 20.93994140625,0.219726920127869 24.169921875,0z" />
    </g>
  </g>
</svg>