<?xml version="1.0" encoding="utf-8"?>
<!DOCTYPE svg PUBLIC "-//W3C//DTD SVG 1.1//EN" "http://www.w3.org/Graphics/SVG/1.1/DTD/svg11.dtd">
<svg width="48.3984375" height="48.369140625" xmlns="http://www.w3.org/2000/svg" xmlns:xlink="http://www.w3.org/1999/xlink" xmlns:xml="http://www.w3.org/XML/1998/namespace" version="1.1">
  <g>
    <g>
      <path style="fill:#FF0000;fill-opacity:1" d="M24.521484375,11.484375L26.9677734375,11.953125 28.9013671875,13.2421875 30.17578125,15.1904296875 30.64453125,17.63671875 30.34423828125,19.9365253448486 29.443359375,21.85546875 28.0151348114014,23.3349609375 26.1328125,24.31640625 26.1328125,24.375 28.2861328125,25.0341796875 29.94140625,26.3525390625 30.99609375,28.1982421875 31.376953125,30.41015625 30.8056640625,33.5009765625 29.208984375,35.9033203125 26.77734375,37.470703125 23.701171875,38.02734375 21.03515625,37.68310546875 18.955078125,36.650390625 18.955078125,33.544921875 21.240234375,35.0830078125 23.818359375,35.595703125 25.7922344207764,35.262451171875 27.3193359375,34.2626953125 28.2971172332764,32.698974609375 28.623046875,30.673828125 28.2586650848389,28.5076904296875 27.1655254364014,26.96044921875 25.3436260223389,26.0321044921875 22.79296875,25.72265625 21.03515625,25.72265625 21.03515625,23.291015625 22.705078125,23.291015625 24.9829082489014,22.965087890625 26.6015625,21.9873046875 27.5683574676514,20.4235858917236 27.890625,18.33984375 27.6452617645264,16.4538593292236 26.9091796875,15.0732421875 25.6750469207764,14.2272968292236 23.935546875,13.9453125 21.78955078125,14.3994159698486 19.74609375,15.76171875 19.74609375,12.94921875 21.96533203125,11.8505859375 24.521484375,11.484375z M24.169921875,5.91796922683716L20.526123046875,6.28051805496216 17.0947265625,7.36816453933716 13.978271484375,9.078369140625 11.279296875,11.30859375 9.052734375,14.0075693130493 7.353515625,17.1240234375 6.27685546875,20.5554218292236 5.91796827316284,24.19921875 6.5771484375,29.033203125 8.4228515625,33.3837890625 11.279296875,37.08984375 14.9853515625,39.9462890625 19.3505859375,41.7919921875 24.169921875,42.451171875 29.00390625,41.7919921875 33.369140625,39.931640625 37.0751953125,37.060546875 39.9609375,33.369140625 41.8212890625,29.0185546875 42.48046875,24.19921875 41.8212890625,19.3798828125 39.9609375,15.0146484375 37.0751953125,11.30859375 33.3544921875,8.4375 28.9892578125,6.57714891433716 24.169921875,5.91796922683716z M24.169921875,4.04296922683716L29.501953125,4.76074266433716 34.3212890625,6.79687547683716 38.408203125,9.9609375 41.572265625,14.0478515625 43.623046875,18.8671875 44.35546875,24.19921875 43.623046875,29.5166015625 41.572265625,34.3212890625 38.408203125,38.408203125 34.3212890625,41.572265625 29.501953125,43.6083984375 24.169921875,44.326171875 20.13427734375,43.9306640625 16.34765625,42.744140625 12.9162588119507,40.872802734375 9.9462890625,38.4228515625 7.496337890625,35.452880859375 5.62499952316284,32.021484375 4.4384765625,28.23486328125 4.04296875,24.19921875 4.7607421875,18.8818359375 6.796875,14.0771484375 9.9609375,9.990234375 14.033203125,6.82617235183716 18.837890625,4.77539110183716 24.169921875,4.04296922683716z M24.169921875,2.25585985183716L21.229248046875,2.45361375808716 18.3837890625,3.04687547683716 13.154296875,5.27343797683716 8.7158203125,8.7158203125 5.2734375,13.1689453125 3.046875,18.4130859375 2.45361328125,21.2585468292236 2.25585961341858,24.19921875 2.45361328125,27.158203125 3.046875,30 5.2734375,35.21484375 8.7158203125,39.6533203125 13.154296875,43.095703125 18.3837890625,45.322265625 21.229248046875,45.91552734375 24.169921875,46.11328125 27.1105937957764,45.91552734375 29.9560546875,45.322265625 35.2001953125,43.095703125 39.6533203125,39.6533203125 43.1103515625,35.21484375 45.3515625,29.9853515625 45.94482421875,27.139892578125 46.142578125,24.19921875 45.94482421875,21.2585468292236 45.3515625,18.4130859375 43.1103515625,13.18359375 39.6533203125,8.73046875 35.2001953125,5.27343797683716 29.9560546875,3.04687547683716 27.1105937957764,2.45361375808716 24.169921875,2.25585985183716z M24.169921875,0L27.4035625457764,0.219726920127869 30.5419921875,0.87890625 36.3134765625,3.33984422683716 41.220703125,7.14843797683716 45.0439453125,12.0703125 47.51953125,17.841796875 48.1787071228027,20.9692401885986 48.3984375,24.19921875 48.1787071228027,27.451171875 47.51953125,30.5859375 45.0439453125,36.3427734375 41.220703125,41.2353515625 36.3134765625,45.029296875 30.5419921875,47.490234375 27.4035625457764,48.1494140625 24.169921875,48.369140625 20.91796875,48.1494140625 17.783203125,47.490234375 12.0263671875,45.029296875 7.1337890625,41.2353515625 3.33984375,36.3427734375 0.87890625,30.5859375 0.219726473093033,27.451171875 0,24.19921875 0.219726473093033,20.9472675323486 0.87890625,17.8125 3.33984375,12.0556640625 7.1337890625,7.14843797683716 12.041015625,3.33984422683716 17.8125,0.87890625 20.93994140625,0.219726920127869 24.169921875,0z" />
    </g>
  </g>
</svg>