<?xml version="1.0" encoding="utf-8"?>
<!DOCTYPE svg PUBLIC "-//W3C//DTD SVG 1.1//EN" "http://www.w3.org/Graphics/SVG/1.1/DTD/svg11.dtd">
<svg width="43.4765625" height="43.447265625" xmlns="http://www.w3.org/2000/svg" xmlns:xlink="http://www.w3.org/1999/xlink" xmlns:xml="http://www.w3.org/XML/1998/namespace" version="1.1">
  <g>
    <g>
      <path style="fill:#FF0000;fill-opacity:1" d="M27.71484375,11.337890625L29.6484375,11.953125 30.9521484375,13.4912109375 31.69921875,15.52734375 31.93359375,17.63671875 31.6552734375,19.51171875 30.849609375,21.1376953125 29.5458984375,22.294921875 27.744140625,22.734375 25.810546875,22.236328125 24.55078125,20.9326171875 23.876953125,19.1015625 23.671875,17.021484375 23.90625,15.0146484375 24.6240234375,13.18359375 25.869140625,11.8505859375 27.71484375,11.337890625z M27.802734375,8.96484375L24.873046875,9.697265625 22.705078125,11.630859375 21.3720703125,14.35546875 20.91796875,17.431640625 21.3134765625,20.33203125 22.4853515625,22.822265625 24.4482421875,24.5654296875 27.216796875,25.224609375 28.76953125,25.001220703125 30.087890625,24.3310546875 31.171875,23.214111328125 32.021484375,21.650390625 32.080078125,21.650390625 31.962890625,23.9794921875 31.58203125,26.513671875 30.849609375,28.9599609375 29.70703125,31.0546875 28.095703125,32.5048828125 25.927734375,33.046875 24.0234375,32.7978515625 22.20703125,32.05078125 22.20703125,34.775390625 23.8623046875,35.33203125 25.986328125,35.5078125 28.974609375,34.8046875 31.2744140625,32.9296875 32.9443359375,30.234375 34.0576171875,27.041015625 34.6728515625,23.6865234375 34.86328125,20.537109375 34.541015625,16.6552734375 33.4130859375,12.9052734375 31.2451171875,10.078125 29.703369140625,9.2431640625 27.802734375,8.96484375z M14.853515625,8.96484375L11.9970703125,11.337890625 8.7890625,12.94921875 8.7890625,15.673828125 9.8876953125,15.29296875 11.1474609375,14.6630859375 12.3779296875,13.828125 13.41796875,12.83203125 13.41796875,34.921875 16.201171875,34.921875 16.201171875,8.96484375 14.853515625,8.96484375z M21.708984375,0L24.6203594207764,0.19775390625 27.4365234375,0.791015625 32.6220703125,3.0029296875 37.0458984375,6.416015625 40.4736328125,10.8251953125 42.685546875,16.0107421875 43.27880859375,18.826904296875 43.4765625,21.73828125 43.27880859375,24.66796875 42.685546875,27.48046875 40.4736328125,32.6513671875 37.0458984375,37.060546875 32.6220703125,40.4736328125 27.4365234375,42.6708984375 24.6203594207764,43.253173828125 21.708984375,43.447265625 18.779296875,43.253173828125 15.966796875,42.6708984375 10.7958984375,40.4736328125 6.38671875,37.060546875 2.9736328125,32.6513671875 0.776367664337158,27.4658203125 0.194091856479645,24.649658203125 0,21.73828125 0.197753846645355,18.826904296875 0.791015148162842,16.0107421875 3.0029296875,10.8251953125 6.416015625,6.416015625 10.810546875,3.0029296875 15.9814453125,0.791015625 18.797607421875,0.19775390625 21.708984375,0z" />
    </g>
  </g>
</svg>