<?xml version="1.0" encoding="utf-8"?>
<!DOCTYPE svg PUBLIC "-//W3C//DTD SVG 1.1//EN" "http://www.w3.org/Graphics/SVG/1.1/DTD/svg11.dtd">
<svg width="43.4765625" height="43.447265625" xmlns="http://www.w3.org/2000/svg" xmlns:xlink="http://www.w3.org/1999/xlink" xmlns:xml="http://www.w3.org/XML/1998/namespace" version="1.1">
  <g>
    <g>
      <path style="fill:#FF0000;fill-opacity:1" d="M21.826171875,12.7734375L24.84375,12.7734375 24.84375,28.53515625 24.3749980926514,32.65869140625 22.96875,35.712890625 20.6909160614014,37.6025390625 17.607421875,38.232421875 15.087890625,37.646484375 15.087890625,34.8046875 16.4208984375,35.419921875 17.666015625,35.625 19.4860820770264,35.2130126953125 20.7861309051514,33.97705078125 21.5661602020264,31.9171142578125 21.826171875,29.033203125 21.826171875,12.7734375z M23.349609375,5.80078125L24.78515625,6.357421875 25.37109375,7.763671875 24.78515625,9.1552734375 23.349609375,9.7265625 21.9873046875,9.169921875 21.416015625,7.763671875 21.9873046875,6.357421875 23.349609375,5.80078125z M21.708984375,3.6328125L18.094482421875,3.99169921875 14.6923828125,5.068359375 11.605224609375,6.76025390625 8.935546875,8.96484375 6.734619140625,11.6345224380493 5.0537109375,14.7216796875 3.98803687095642,18.1237812042236 3.6328125,21.73828125 3.98803687095642,25.352783203125 5.0537109375,28.7548828125 6.734619140625,31.842041015625 8.935546875,34.51171875 11.605224609375,36.712646484375 14.6923828125,38.3935546875 18.094482421875,39.459228515625 21.708984375,39.814453125 25.3234844207764,39.45556640625 28.7255859375,38.37890625 31.81640625,36.68701171875 34.4970703125,34.482421875 36.712646484375,31.81640625 38.408203125,28.740234375 39.48486328125,25.34912109375 39.84375,21.73828125 39.1845703125,16.9482421875 37.3388671875,12.626953125 34.482421875,8.9501953125 30.8056640625,6.1083984375 26.4990234375,4.27734375 21.708984375,3.6328125z M21.708984375,0L24.6203594207764,0.19775390625 27.4365234375,0.791015625 32.6220703125,3.0029296875 37.0458984375,6.416015625 40.4736328125,10.8251953125 42.685546875,16.0107421875 43.27880859375,18.826904296875 43.4765625,21.73828125 43.27880859375,24.66796875 42.685546875,27.48046875 40.4736328125,32.6513671875 37.0458984375,37.060546875 32.6220703125,40.4736328125 27.4365234375,42.6708984375 24.6203594207764,43.253173828125 21.708984375,43.447265625 18.779296875,43.253173828125 15.966796875,42.6708984375 10.7958984375,40.4736328125 6.38671875,37.060546875 2.9736328125,32.6513671875 0.776367664337158,27.4658203125 0.194091856479645,24.649658203125 0,21.73828125 0.197753846645355,18.826904296875 0.791015148162842,16.0107421875 3.0029296875,10.8251953125 6.416015625,6.416015625 10.810546875,3.0029296875 15.9814453125,0.791015625 18.797607421875,0.19775390625 21.708984375,0z" />
    </g>
  </g>
</svg>