<?xml version="1.0" encoding="utf-8"?>
<!DOCTYPE svg PUBLIC "-//W3C//DTD SVG 1.1//EN" "http://www.w3.org/Graphics/SVG/1.1/DTD/svg11.dtd">
<svg width="43.4765625" height="43.447265625" xmlns="http://www.w3.org/2000/svg" xmlns:xlink="http://www.w3.org/1999/xlink" xmlns:xml="http://www.w3.org/XML/1998/namespace" version="1.1">
  <g>
    <g>
      <path style="fill:#FF0000;fill-opacity:1" d="M29.794921875,14.296875L29.794921875,25.95703125 23.056640625,25.95703125 26.5576171875,20.419921875 29.794921875,14.296875z M29.6484375,9.755859375L28.9892578125,11.162109375 27.65625,13.623046875 25.8984375,16.7431640625 23.9208984375,20.1123046875 21.9287109375,23.3642578125 20.15625,26.103515625 20.15625,28.681640625 29.794921875,28.681640625 29.794921875,34.951171875 32.431640625,34.951171875 32.431640625,28.681640625 35.15625,28.681640625 35.15625,25.95703125 32.431640625,25.95703125 32.431640625,9.755859375 29.6484375,9.755859375z M14.853515625,8.96484375L11.9970703125,11.337890625 8.7890625,12.94921875 8.7890625,15.673828125 9.8876953125,15.29296875 11.1474609375,14.6630859375 12.3779296875,13.828125 13.41796875,12.83203125 13.41796875,34.921875 16.201171875,34.921875 16.201171875,8.96484375 14.853515625,8.96484375z M21.708984375,0L24.6203594207764,0.19775390625 27.4365234375,0.791015625 32.6220703125,3.0029296875 37.0458984375,6.416015625 40.4736328125,10.8251953125 42.685546875,16.0107421875 43.27880859375,18.826904296875 43.4765625,21.73828125 43.27880859375,24.66796875 42.685546875,27.48046875 40.4736328125,32.6513671875 37.0458984375,37.060546875 32.6220703125,40.4736328125 27.4365234375,42.6708984375 24.6203594207764,43.253173828125 21.708984375,43.447265625 18.779296875,43.253173828125 15.966796875,42.6708984375 10.7958984375,40.4736328125 6.38671875,37.060546875 2.9736328125,32.6513671875 0.776367664337158,27.4658203125 0.194091856479645,24.649658203125 0,21.73828125 0.197753846645355,18.826904296875 0.791015148162842,16.0107421875 3.0029296875,10.8251953125 6.416015625,6.416015625 10.810546875,3.0029296875 15.9814453125,0.791015625 18.797607421875,0.19775390625 21.708984375,0z" />
    </g>
  </g>
</svg>