<?xml version="1.0" encoding="utf-8"?>
<!DOCTYPE svg PUBLIC "-//W3C//DTD SVG 1.1//EN" "http://www.w3.org/Graphics/SVG/1.1/DTD/svg11.dtd">
<svg width="43.4765625" height="43.447265625" xmlns="http://www.w3.org/2000/svg" xmlns:xlink="http://www.w3.org/1999/xlink" xmlns:xml="http://www.w3.org/XML/1998/namespace" version="1.1">
  <g>
    <g>
      <path style="fill:#FF0000;fill-opacity:1" d="M21.97265625,12.24609375L19.486083984375,12.7551288604736 17.5927734375,14.2822265625 16.395263671875,16.7248554229736 15.99609375,19.98046875 16.376953125,22.825927734375 17.51953125,25.0341796875 19.2919921875,26.451416015625 21.5625,26.923828125 23.8732891082764,26.473388671875 25.7080078125,25.1220703125 26.9055156707764,23.060302734375 27.3046875,20.478515625 27.3046875,17.6953125 26.9238262176514,15.6042499542236 25.78125,13.8427734375 24.0673809051514,12.6452655792236 21.97265625,12.24609375z M21.5625,9.697265625L23.3441143035889,9.8876953125 24.8803691864014,10.458984375 26.1712627410889,11.4111328125 27.216796875,12.744140625 27.3046875,12.744140625 27.3046875,10.13671875 30.322265625,10.13671875 30.322265625,27.509765625 29.69970703125,32.07275390625 27.83203125,35.33203125 24.71923828125,37.28759765625 20.361328125,37.939453125 17.07275390625,37.6025390625 14.23828125,36.591796875 14.23828125,33.57421875 17.3583984375,34.892578125 20.33203125,35.33203125 23.3825664520264,34.8687744140625 25.5615215301514,33.47900390625 26.8688945770264,31.1627197265625 27.3046875,27.919921875 27.3046875,25.869140625 27.216796875,25.869140625 26.0101299285889,27.4456787109375 24.5288066864014,28.57177734375 22.7728252410889,29.2474365234375 20.7421875,29.47265625 17.545166015625,28.8427734375 15.0439453125,26.953125 13.428955078125,24.00146484375 12.890625,20.185546875 13.472900390625,15.8715839385986 15.2197265625,12.5390625 17.969970703125,10.40771484375 21.5625,9.697265625z M21.708984375,3.6328125L18.094482421875,3.99169921875 14.6923828125,5.068359375 11.605224609375,6.76025390625 8.935546875,8.96484375 6.734619140625,11.6345224380493 5.0537109375,14.7216796875 3.98803687095642,18.1237812042236 3.6328125,21.73828125 3.98803687095642,25.352783203125 5.0537109375,28.7548828125 6.734619140625,31.842041015625 8.935546875,34.51171875 11.605224609375,36.712646484375 14.6923828125,38.3935546875 18.094482421875,39.459228515625 21.708984375,39.814453125 25.3234844207764,39.45556640625 28.7255859375,38.37890625 31.81640625,36.68701171875 34.4970703125,34.482421875 36.712646484375,31.81640625 38.408203125,28.740234375 39.48486328125,25.34912109375 39.84375,21.73828125 39.1845703125,16.9482421875 37.3388671875,12.626953125 34.482421875,8.9501953125 30.8056640625,6.1083984375 26.4990234375,4.27734375 21.708984375,3.6328125z M21.708984375,0L24.6203594207764,0.19775390625 27.4365234375,0.791015625 32.6220703125,3.0029296875 37.0458984375,6.416015625 40.4736328125,10.8251953125 42.685546875,16.0107421875 43.27880859375,18.826904296875 43.4765625,21.73828125 43.27880859375,24.66796875 42.685546875,27.48046875 40.4736328125,32.6513671875 37.0458984375,37.060546875 32.6220703125,40.4736328125 27.4365234375,42.6708984375 24.6203594207764,43.253173828125 21.708984375,43.447265625 18.779296875,43.253173828125 15.966796875,42.6708984375 10.7958984375,40.4736328125 6.38671875,37.060546875 2.9736328125,32.6513671875 0.776367664337158,27.4658203125 0.194091856479645,24.649658203125 0,21.73828125 0.197753846645355,18.826904296875 0.791015148162842,16.0107421875 3.0029296875,10.8251953125 6.416015625,6.416015625 10.810546875,3.0029296875 15.9814453125,0.791015625 18.797607421875,0.19775390625 21.708984375,0z" />
    </g>
  </g>
</svg>