<?xml version="1.0" encoding="utf-8"?>
<!DOCTYPE svg PUBLIC "-//W3C//DTD SVG 1.1//EN" "http://www.w3.org/Graphics/SVG/1.1/DTD/svg11.dtd">
<svg width="43.4765625" height="43.447265625" xmlns="http://www.w3.org/2000/svg" xmlns:xlink="http://www.w3.org/1999/xlink" xmlns:xml="http://www.w3.org/XML/1998/namespace" version="1.1">
  <g>
    <g>
      <path style="fill:#FF0000;fill-opacity:1" d="M21.97265625,10.810546875L19.822998046875,11.0302753448486 17.9443359375,11.689453125 15.0146484375,14.0771484375 13.212890625,17.5634765625 12.59765625,21.73828125 13.18359375,25.8984375 14.9267578125,29.3408203125 17.7978515625,31.69921875 19.647216796875,32.3583984375 21.767578125,32.578125 23.9868144989014,32.373046875 25.8984375,31.7578125 28.828125,29.501953125 30.5712890625,26.0888671875 31.142578125,21.767578125 30.6005859375,17.4462890625 28.9306640625,13.974609375 26.07421875,11.66015625 24.1845684051514,11.0229511260986 21.97265625,10.810546875z M22.265625,7.998046875L24.9609355926514,8.258056640625 27.36328125,9.0380859375 29.443359375,10.2685546875 31.171875,11.8798828125 33.544921875,16.1279296875 34.16015625,18.6584491729736 34.365234375,21.357421875 33.80859375,26.0888671875 32.109375,30.1171875 29.23828125,33.1494140625 25.13671875,34.921875 28.30078125,37.939453125 25.13671875,39.111328125 23.4228515625,37.294921875 21.5625,35.361328125 18.885498046875,35.09765625 16.4794921875,34.306640625 14.381103515625,33.0615234375 12.626953125,31.435546875 10.1953125,27.1875 9.55810451507568,24.67529296875 9.345703125,22.001953125 9.55810451507568,19.053955078125 10.1953125,16.3623046875 11.2426748275757,13.9746112823486 12.685546875,11.9384765625 14.5166015625,10.283203125 16.728515625,9.0380859375 19.31396484375,8.258056640625 22.265625,7.998046875z M21.708984375,3.6328125L18.094482421875,3.99169921875 14.6923828125,5.068359375 11.605224609375,6.76025390625 8.935546875,8.96484375 6.734619140625,11.6345224380493 5.0537109375,14.7216796875 3.98803687095642,18.1237812042236 3.6328125,21.73828125 3.98803687095642,25.352783203125 5.0537109375,28.7548828125 6.734619140625,31.842041015625 8.935546875,34.51171875 11.605224609375,36.712646484375 14.6923828125,38.3935546875 18.094482421875,39.459228515625 21.708984375,39.814453125 25.3234844207764,39.45556640625 28.7255859375,38.37890625 31.81640625,36.68701171875 34.4970703125,34.482421875 36.712646484375,31.81640625 38.408203125,28.740234375 39.48486328125,25.34912109375 39.84375,21.73828125 39.1845703125,16.9482421875 37.3388671875,12.626953125 34.482421875,8.9501953125 30.8056640625,6.1083984375 26.4990234375,4.27734375 21.708984375,3.6328125z M21.708984375,0L24.6203594207764,0.19775390625 27.4365234375,0.791015625 32.6220703125,3.0029296875 37.0458984375,6.416015625 40.4736328125,10.8251953125 42.685546875,16.0107421875 43.27880859375,18.826904296875 43.4765625,21.73828125 43.27880859375,24.66796875 42.685546875,27.48046875 40.4736328125,32.6513671875 37.0458984375,37.060546875 32.6220703125,40.4736328125 27.4365234375,42.6708984375 24.6203594207764,43.253173828125 21.708984375,43.447265625 18.779296875,43.253173828125 15.966796875,42.6708984375 10.7958984375,40.4736328125 6.38671875,37.060546875 2.9736328125,32.6513671875 0.776367664337158,27.4658203125 0.194091856479645,24.649658203125 0,21.73828125 0.197753846645355,18.826904296875 0.791015148162842,16.0107421875 3.0029296875,10.8251953125 6.416015625,6.416015625 10.810546875,3.0029296875 15.9814453125,0.791015625 18.797607421875,0.19775390625 21.708984375,0z" />
    </g>
  </g>
</svg>