<?xml version="1.0" encoding="utf-8"?>
<!DOCTYPE svg PUBLIC "-//W3C//DTD SVG 1.1//EN" "http://www.w3.org/Graphics/SVG/1.1/DTD/svg11.dtd">
<svg width="69.140625" height="69.140625" xmlns="http://www.w3.org/2000/svg" xmlns:xlink="http://www.w3.org/1999/xlink" xmlns:xml="http://www.w3.org/XML/1998/namespace" version="1.1">
  <g>
    <g>
      <path style="fill:#FF0000;fill-opacity:1" d="M34.833984375,18.3984375L36.4201354980469,18.6561584472656 37.7947998046875,19.4293212890625 38.9579772949219,20.7179260253906 39.90966796875,22.52197265625 40.6498718261719,24.8414611816406 41.1785888671875,27.6763916015625 41.4958190917969,31.0267639160156 41.6015625,34.892578125 41.4930725097656,38.6141967773438 41.1676025390625,41.839599609375 40.6251525878906,44.5687866210938 39.86572265625,46.8017578125 38.8893127441406,48.5385131835938 37.6959228515625,49.779052734375 36.2855529785156,50.5233764648438 34.658203125,50.771484375 33.0033874511719,50.5279541015625 31.5692138671875,49.79736328125 30.3556823730469,48.5797119140625 29.36279296875,46.875 28.5905456542969,44.6832275390625 28.0389404296875,42.00439453125 27.7079772949219,38.8385009765625 27.59765625,35.185546875 27.7107238769531,31.2510681152344 28.0499267578125,27.8411865234375 28.6152648925781,24.9559020996094 29.40673828125,22.59521484375 30.4243469238281,20.7591247558594 31.6680908203125,19.4476318359375 33.1379699707031,18.6607360839844 34.833984375,18.3984375z M35.09765625,12.861328125L31.8576049804688,13.2183837890625 29.022216796875,14.28955078125 26.5914916992188,16.0748291015625 24.5654296875,18.57421875 22.9696636199951,21.7694091796875 21.8298320770264,25.64208984375 21.1459331512451,30.1922607421875 20.91796875,35.419921875 21.1367778778076,40.1898193359375 21.7932109832764,44.36279296875 22.8872661590576,47.9388427734375 24.4189453125,50.91796875 26.3406372070313,53.2635498046875 28.604736328125,54.93896484375 31.2112426757813,55.9442138671875 34.16015625,56.279296875 37.3150634765625,55.9286499023438 40.10009765625,54.876708984375 42.5152587890625,53.1234741210938 44.560546875,50.6689453125 46.1883506774902,47.5479125976563 47.3510704040527,43.795166015625 48.0487022399902,39.4107055664063 48.28125,34.39453125 48.0752563476563,29.3476867675781 47.4572715759277,24.9737548828125 46.427303314209,21.2727355957031 44.9853477478027,18.24462890625 43.131404876709,15.8894348144531 40.8654747009277,14.2071533203125 38.1875610351563,13.1977844238281 35.09765625,12.861328125z M34.5703125,0L41.4230308532715,0.636293649673462 47.7722129821777,2.54516887664795 53.6178550720215,5.72662544250488 58.9599609375,10.1806640625 63.4140014648438,15.5227661132813 66.595458984375,21.368408203125 68.5043334960938,27.7175903320313 69.140625,34.5703125 68.5043334960938,41.4230346679688 66.595458984375,47.772216796875 63.4140014648438,53.6178588867188 58.9599609375,58.9599609375 53.6178550720215,63.4140014648438 47.7722129821777,66.595458984375 41.4230308532715,68.5043334960938 34.5703125,69.140625 27.7175884246826,68.5043334960938 21.3684062957764,66.595458984375 15.5227651596069,63.4140014648438 10.1806640625,58.9599609375 5.72662353515625,53.6178588867188 2.545166015625,47.772216796875 0.63629150390625,41.4230346679688 0,34.5703125 0.63629150390625,27.7175903320313 2.545166015625,21.368408203125 5.72662353515625,15.5227661132813 10.1806640625,10.1806640625 15.5227651596069,5.72662544250488 21.3684062957764,2.54516887664795 27.7175884246826,0.636293649673462 34.5703125,0z" />
    </g>
  </g>
</svg>