<?xml version="1.0" encoding="utf-8"?>
<!DOCTYPE svg PUBLIC "-//W3C//DTD SVG 1.1//EN" "http://www.w3.org/Graphics/SVG/1.1/DTD/svg11.dtd">
<svg width="43.4765625" height="43.447265625" xmlns="http://www.w3.org/2000/svg" xmlns:xlink="http://www.w3.org/1999/xlink" xmlns:xml="http://www.w3.org/XML/1998/namespace" version="1.1">
  <g>
    <g>
      <path style="fill:#FF0000;fill-opacity:1" d="M29.6484375,11.337890625L31.63330078125,12.0190448760986 33.076171875,14.0625 33.955078125,17.4902362823486 34.248046875,22.32421875 33.955078125,26.9512939453125 33.076171875,30.25634765625 31.611328125,32.2393798828125 29.560546875,32.900390625 27.476806640625,32.255859375 25.9716796875,30.322265625 25.0598125457764,27.07763671875 24.755859375,22.5 25.0415019989014,17.5891132354736 25.8984375,14.1064453125 27.4072265625,12.0300312042236 29.6484375,11.337890625z M15.791015625,8.96484375L14.3994140625,9.1259765625 12.861328125,9.580078125 11.396484375,10.2978515625 10.1953125,11.279296875 10.1953125,14.47265625 11.19140625,13.30078125 12.4365234375,12.3193359375 13.798828125,11.66015625 15.1171875,11.42578125 16.549072265625,11.7407245635986 17.6806640625,12.685546875 18.416748046875,14.1796894073486 18.662109375,16.142578125 18.33984375,18.515625 17.4609375,20.419921875 16.1279296875,22.060546875 14.47265625,23.642578125 12.5244140625,25.634765625 11.0009765625,27.8466796875 10.0048828125,30.4541015625 9.638671875,33.6328125 9.638671875,34.921875 21.298828125,34.921875 21.298828125,32.34375 12.1875,32.34375 12.5830078125,30.322265625 13.6083984375,28.41796875 15,26.7041015625 16.494140625,25.1953125 18.22265625,23.408203125 19.8193359375,21.240234375 20.9912109375,18.7353515625 21.4453125,15.908203125 21.0205078125,13.095703125 19.833984375,10.8984375 18.046875,9.4775390625 15.791015625,8.96484375z M29.82421875,8.84765625L26.8505859375,9.4482421875 24.7265625,11.0595703125 23.3056640625,13.4326171875 22.4560546875,16.318359375 22.0458984375,19.4677734375 21.943359375,22.6171875 22.0751953125,25.48828125 22.529296875,28.4033203125 23.3935546875,31.0986328125 24.7412109375,33.3251953125 26.66015625,34.833984375 29.267578125,35.390625 32.05078125,34.8046875 34.1162109375,33.22265625 35.5517578125,30.908203125 36.4599609375,28.095703125 36.943359375,25.048828125 37.08984375,22.001953125 36.97265625,18.9248676300049 36.62109375,16.2561054229736 36.03515625,13.9956674575806 35.21484375,12.1435546875 34.1748046875,10.7015991210938 32.9296875,9.671630859375 31.4794921875,9.05364990234375 29.82421875,8.84765625z M21.708984375,0L24.6203594207764,0.19775390625 27.4365234375,0.791015625 32.6220703125,3.0029296875 37.0458984375,6.416015625 40.4736328125,10.8251953125 42.685546875,16.0107421875 43.27880859375,18.826904296875 43.4765625,21.73828125 43.27880859375,24.66796875 42.685546875,27.48046875 40.4736328125,32.6513671875 37.0458984375,37.060546875 32.6220703125,40.4736328125 27.4365234375,42.6708984375 24.6203594207764,43.253173828125 21.708984375,43.447265625 18.779296875,43.253173828125 15.966796875,42.6708984375 10.7958984375,40.4736328125 6.38671875,37.060546875 2.9736328125,32.6513671875 0.776367664337158,27.4658203125 0.194091856479645,24.649658203125 0,21.73828125 0.197753846645355,18.826904296875 0.791015148162842,16.0107421875 3.0029296875,10.8251953125 6.416015625,6.416015625 10.810546875,3.0029296875 15.9814453125,0.791015625 18.797607421875,0.19775390625 21.708984375,0z" />
    </g>
  </g>
</svg>