<?xml version="1.0" encoding="utf-8"?>
<!DOCTYPE svg PUBLIC "-//W3C//DTD SVG 1.1//EN" "http://www.w3.org/Graphics/SVG/1.1/DTD/svg11.dtd">
<svg width="37.79296875" height="37.20703125" xmlns="http://www.w3.org/2000/svg" xmlns:xlink="http://www.w3.org/1999/xlink" xmlns:xml="http://www.w3.org/XML/1998/namespace" version="1.1">
  <g>
    <g>
      <path style="fill:#FF0000;fill-opacity:1" d="M32.373046875,6.328125L31.34765625,6.5185546875 30.556640625,7.08984375 29.8828125,8.96484375 30.556640625,10.7666015625 32.373046875,11.513671875 34.2333984375,10.7666015625 34.921875,8.96484375 34.2333984375,7.08984375 33.424072265625,6.5185546875 32.373046875,6.328125z M4.04296875,0L6.1083984375,0.3076171875 7.6171875,1.23046922683716 8.759765625,2.7392578125 9.228515625,4.833984375 9.228515625,7.353515625 9.58373928070068,8.89892578125 10.6494140625,9.78515625 11.5823364257813,10.030517578125 12.960205078125,10.2099609375 14.7830200195313,10.323486328125 17.05078125,10.37109375 21.5624980926514,10.5029296875 27.0703125,10.8984375 26.806640625,8.994140625 27.18017578125,6.95068359375 28.30078125,5.21484375 30.0732421875,4.0283203125 32.40234375,3.6328125 34.669189453125,3.984375 36.3720703125,5.0390625 37.437744140625,6.73095703125 37.79296875,8.994140625 37.294921875,11.2939453125 35.68359375,13.212890625 37.1337890625,15.29296875 37.584228515625,17.0141620635986 37.79296875,19.541015625 37.79296875,37.20703125 32.255859375,37.20703125 21.767578125,30.5859375 11.6015625,37.20703125 5.91796875,37.20703125 5.91796875,24.4921875 5.625,23.7451171875 4.775390625,23.5546875 3.6181640625,23.90625 2.9296875,25.13671875 3.3251953125,25.72265625 4.189453125,26.0302734375 5.0537109375,26.5576171875 5.44921875,27.626953125 4.7900390625,29.1064453125 2.9296875,29.70703125 1.62963831424713,29.47998046875 0.7177734375,28.798828125 0,26.279296875 0.673828125,23.7451171875 2.2998046875,21.943359375 4.39453125,20.859375 6.708984375,20.5078125 7.67578125,20.5078125 9.12963771820068,20.6616230010986 10.0341796875,21.123046875 10.6640625,22.67578125 10.6640625,32.8125 21.884765625,25.83984375 33.134765625,32.8125 33.134765625,19.716796875 32.882080078125,18.2592792510986 32.1240234375,17.05078125 29.4140625,15.41015625 27.286376953125,14.9377460479736 24.3017578125,14.6337890625 18.1640625,14.4140625 11.865234375,14.296875 8.84033107757568,13.8464374542236 6.5625,12.7294921875 5.13427734375,11.114501953125 4.658203125,9.169921875 4.658203125,8.02734375 4.658203125,6.328125 4.658203125,4.3359375 4.21875,3.5302734375 3.22265625,3.134765625 2.05078125,2.7099609375 1.435546875,1.7578125 2.080078125,0.454102039337158 4.04296875,0z" />
    </g>
  </g>
</svg>