<?xml version="1.0" encoding="utf-8"?>
<!DOCTYPE svg PUBLIC "-//W3C//DTD SVG 1.1//EN" "http://www.w3.org/Graphics/SVG/1.1/DTD/svg11.dtd">
<svg width="35.15625" height="50.361328125" xmlns="http://www.w3.org/2000/svg" xmlns:xlink="http://www.w3.org/1999/xlink" xmlns:xml="http://www.w3.org/XML/1998/namespace" version="1.1">
  <g>
    <g>
      <path style="fill:#FF0000;fill-opacity:1" d="M30.146484375,42.7734375L14.326171875,44.794921875 12.32666015625,45.263671875 11.66015625,46.142578125 11.66015625,46.58203125 11.883544921875,47.076416015625 12.5537109375,47.3291015625 14.12109375,47.4609375 15.703125,47.4609375 17.1533203125,47.3291015625 18.544921875,46.9189453125 19.599609375,46.1572265625 20.009765625,44.970703125 23.056640625,44.970703125 23.5986328125,46.1865234375 24.7998046875,46.9775390625 26.0302734375,47.2998046875 27.5390625,47.373046875 28.9453125,47.0947265625 29.7802734375,46.376953125 30.087890625,45.4248046875 30.146484375,44.443359375 30.146484375,42.7734375z M8.525390625,0L9.375,0 18.251953125,4.27734375 25.400390625,0 26.279296875,0 35.15625,4.189453125 35.15625,44.560546875 34.8486328125,46.5234375 33.7353515625,48.4130859375 31.4794921875,49.8193359375 29.827880859375,50.225830078125 27.7734375,50.361328125 25.3125,50.1416015625 23.3935546875,49.6435546875 21.708984375,48.92578125 19.599609375,49.7021484375 17.7392578125,50.15625 15.498046875,50.361328125 13.798828125,50.361328125 11.6162109375,50.126953125 9.873046875,49.4970703125 8.7451171875,48.6181640625 8.349609375,47.607421875 8.349609375,45.3515625 9.03076076507568,43.916015625 11.07421875,43.06640625 26.455078125,41.30859375 28.9306640625,40.9716796875 29.813232421875,40.682373046875 30.146484375,40.25390625 30.146484375,6.9140625 25.576171875,4.62890625 18.134765625,8.583984375 16.962890625,8.583984375 8.203125,4.62890625 4.5703125,7.119140625 5.90698146820068,7.708740234375 6.6357421875,8.2470703125 7.353515625,9.375 7.353515625,29.58984375 8.4521484375,29.23828125 9.2431640625,28.4033203125 9.697265625,27.4072265625 9.84375,26.54296875 9.4921875,26.1767578125 8.73046875,25.78125 7.96875,24.9169921875 7.6171875,23.203125 7.8955078125,21.240234375 8.5546875,20.244140625 9.3017578125,19.8486328125 10.13671875,19.74609375 11.290283203125,19.98779296875 12.2314453125,20.712890625 12.857666015625,21.87744140625 13.06640625,23.4375 12.421875,26.9384765625 10.810546875,29.970703125 8.6865234375,32.109375 7.54028224945068,32.724609375 6.416015625,32.9296875 4.541015625,32.9296875 3.0615234375,32.3583984375 2.34375,30.849609375 2.34375,11.396484375 1.6552734375,9.7412109375 0.897216439247131,9.13696479797363 0,8.935546875 0,6.298828125 8.525390625,0z" />
    </g>
  </g>
</svg>