<?xml version="1.0" encoding="utf-8"?>
<!DOCTYPE svg PUBLIC "-//W3C//DTD SVG 1.1//EN" "http://www.w3.org/Graphics/SVG/1.1/DTD/svg11.dtd">
<svg width="45.234375" height="47.373046875" xmlns="http://www.w3.org/2000/svg" xmlns:xlink="http://www.w3.org/1999/xlink" xmlns:xml="http://www.w3.org/XML/1998/namespace" version="1.1">
  <g>
    <g>
      <path style="fill:#FF0000;fill-opacity:1" d="M8.3203125,0L9.169921875,0 17.666015625,4.27734375 25.400390625,0 26.279296875,0 35.15625,4.189453125 35.15625,38.291015625 35.2587890625,39.228515625 35.9033203125,40.25390625 37.265625,41.19140625 38.9208984375,41.7626953125 40.283203125,42.0263671875 41.162109375,42.0703125 42.5390625,41.89453125 43.41796875,41.4697265625 44.1064453125,41.044921875 44.794921875,40.869140625 45.234375,41.30859375 44.8828125,42.8173828125 44.091796875,43.9453125 43.2275390625,44.6630859375 42.12890625,45.1318359375 40.25390625,45.3515625 38.583984375,45.205078125 36.8701171875,44.8388671875 35.361328125,44.3701171875 34.27734375,43.916015625 32.6513671875,45.8349609375 31.025390625,46.8310546875 29.560546875,47.255859375 28.447265625,47.373046875 27.216796875,47.28515625 25.986328125,47.021484375 24.3017578125,46.376953125 22.9064922332764,45.78369140625 20.91796875,44.94140625 19.1528301239014,44.132080078125 17.958984375,43.5791015625 16.3623046875,42.8466796875 14.736328125,42.3193359375 12.685546875,42.099609375 9.609375,42.6708984375 7.1044921875,43.9453125 5.21484375,45.2197265625 4.130859375,45.791015625 3.8671875,45.234375 4.072265625,43.9306640625 4.892578125,42.099609375 6.26953125,40.3125 7.822265625,39.140625 10.5908203125,38.0126953125 13.359375,37.705078125 14.8095703125,37.8369140625 16.2744140625,38.3056640625 18.3837890625,39.228515625 21.6796875,40.869140625 23.6389141082764,41.854248046875 25.1220703125,42.5244140625 27.421875,43.037109375 28.80615234375,42.75146484375 29.619140625,41.89453125 30.0146484375,40.40771484375 30.146484375,38.232421875 30.146484375,6.884765625 25.048828125,4.51171875 17.87109375,8.583984375 16.69921875,8.583984375 7.939453125,4.51171875 4.51171875,7.03125 5.89233303070068,7.686767578125 6.6357421875,8.2470703125 7.353515625,9.375 7.353515625,29.58984375 8.4521484375,29.23828125 9.2431640625,28.4033203125 9.697265625,27.4072265625 9.84375,26.54296875 9.4921875,26.1767578125 8.73046875,25.78125 7.96875,24.9169921875 7.6171875,23.203125 7.8955078125,21.240234375 8.5546875,20.2001953125 9.3017578125,19.8046875 9.990234375,19.74609375 11.253662109375,19.98779296875 12.2314453125,20.712890625 12.857666015625,21.87744140625 13.06640625,23.4375 12.421875,26.9384765625 10.810546875,29.970703125 8.6865234375,32.109375 7.54028224945068,32.724609375 6.416015625,32.9296875 4.541015625,32.9296875 3.0615234375,32.3583984375 2.34375,30.849609375 2.34375,11.396484375 1.65527296066284,9.7412109375 0.897216379642487,9.13696479797363 0,8.935546875 0,6.298828125 8.3203125,0z" />
    </g>
  </g>
</svg>