<?xml version="1.0" encoding="utf-8"?>
<!DOCTYPE svg PUBLIC "-//W3C//DTD SVG 1.1//EN" "http://www.w3.org/Graphics/SVG/1.1/DTD/svg11.dtd">
<svg width="28.2714843750006" height="35.21484375" xmlns="http://www.w3.org/2000/svg" xmlns:xlink="http://www.w3.org/1999/xlink" xmlns:xml="http://www.w3.org/XML/1998/namespace" version="1.1">
  <g>
    <g>
      <path style="fill:#FF0000;fill-opacity:1" d="M9.84375,0L18.544921875,0 22.763671875,0.29296875 26.1181640625,1.5087890625 27.227783203125,2.537841796875 27.59765625,3.779296875 27.1875,4.833984375 26.162109375,5.09765625 25.01953125,4.8193359375 24.0966796875,4.16015625 22.4853515625,3.5009765625 21.2438945770264,3.292236328125 19.599609375,3.22265625 10.400390625,3.22265625 8.01269435882568,3.5888671875 6.123046875,4.6875 4.892578125,6.416015625 4.482421875,8.671875 4.482421875,27.919921875 4.9072265625,29.7802734375 5.9033203125,30.9375 7.1044921875,31.5380859375 8.14453125,31.69921875 20.2734375,31.69921875 21.8115215301514,31.424560546875 22.91015625,30.6005859375 23.5693340301514,29.366455078125 23.7890625,27.861328125 23.5693340301514,26.158447265625 22.91015625,24.9755859375 22.0092754364014,24.283447265625 21.064453125,24.052734375 20.3759765625,24.638671875 19.423828125,24.84375 18.2080078125,24.3017578125 17.841796875,23.056640625 18.076171875,21.97265625 19.86328125,21.09375 21.650390625,19.3798828125 22.998046875,17.16796875 23.525390625,14.736328125 23.3203125,13.505859375 22.44140625,12.2900390625 20.7275390625,11.4111328125 18.193359375,11.103515625 15.146484375,11.54296875 13.3154296875,12.5830078125 12.6123046875,13.7548828125 12.451171875,14.912109375 12.509765625,15.4541015625 12.71484375,16.083984375 13.125,16.58203125 13.681640625,16.787109375 14.1064453125,16.5234375 14.4140625,15.9375 14.9853515625,15.3515625 16.171875,15.087890625 17.548828125,15.7177734375 18.193359375,17.373046875 17.9186992645264,18.5595703125 17.0947265625,19.482421875 15.889892578125,20.07568359375 14.47265625,20.2734375 12.3779296875,19.7607421875 10.9716796875,18.4423828125 10.1806640625,16.5966796875 9.931640625,14.560546875 10.3125,11.9384765625 11.689453125,9.66796875 14.3408203125,8.0126953125 16.190185546875,7.540283203125 18.427734375,7.3828125 19.27734375,7.3828125 22.6611328125,7.822265625 25.341796875,9.169921875 27.041015625,11.396484375 27.65625,14.384765625 27.425537109375,16.6735858917236 26.7333984375,18.6767578125 25.740966796875,20.335693359375 24.609375,21.591796875 26.0009765625,22.529296875 27.1728515625,23.701171875 27.9638671875,25.5029296875 28.271484375,28.359375 27.65625,31.3330078125 26.044921875,33.4716796875 23.8037109375,34.775390625 21.328125,35.21484375 4.921875,35.21484375 2.98828125,34.830322265625 1.40625,33.6767578125 0.351562142372131,31.761474609375 0,29.091796875 0,7.734375 0.205077767372131,5.789794921875 0.8203125,4.1748046875 2.958984375,1.7431640625 6.09375,0.380859375 9.84375,0z" />
    </g>
  </g>
</svg>