<?xml version="1.0" encoding="utf-8"?>
<!DOCTYPE svg PUBLIC "-//W3C//DTD SVG 1.1//EN" "http://www.w3.org/Graphics/SVG/1.1/DTD/svg11.dtd">
<svg width="66.9140625" height="32.958984375" xmlns="http://www.w3.org/2000/svg" xmlns:xlink="http://www.w3.org/1999/xlink" xmlns:xml="http://www.w3.org/XML/1998/namespace" version="1.1">
  <g>
    <g>
      <path style="fill:#FF0000;fill-opacity:1" d="M40.48828125,0L41.337890625,0 45.908203125,2.34375 46.611328125,2.4609375 47.080078125,2.431640625 47.607421875,3.310546875 44.853515625,5.712890625 44.2529296875,5.44921875 43.212890625,4.86328125 41.7919921875,4.248046875 40.01953125,3.955078125 39.3603515625,4.04296875 38.525390625,4.39453125 37.470703125,5.2734375 37.55859375,5.419921875 38.994140625,5.2734375 40.9643516540527,5.489501953125 42.36328125,6.1376953125 43.2788047790527,7.078857421875 43.798828125,8.173828125 43.798828125,25.634765625 44.35546875,27.3193359375 45.615234375,28.4033203125 47.197265625,28.974609375 48.80859375,29.150390625 53.759765625,29.150390625 55.3857421875,28.9306640625 56.8798828125,28.2421875 57.978515625,27.0703125 58.41796875,25.400390625 58.41796875,9.90234375 57.626953125,8.408203125 55.869140625,7.880859375 55.13671875,8.056640625 54.404296875,8.232421875 53.701171875,7.646484375 52.529296875,5.712890625 59.794921875,0 60.64453125,0 65.21484375,2.34375 65.91796875,2.4609375 66.38671875,2.431640625 66.9140625,3.310546875 64.16015625,5.712890625 63.5595703125,5.44921875 62.51953125,4.86328125 61.0986328125,4.248046875 59.326171875,3.955078125 58.681640625,4.04296875 57.861328125,4.39453125 56.77734375,5.2734375 56.865234375,5.419921875 58.30078125,5.2734375 60.27099609375,5.489501953125 61.669921875,6.1376953125 62.58544921875,7.078857421875 63.10546875,8.173828125 63.10546875,27.12890625 62.911376953125,28.546142578125 62.3291015625,29.7509765625 60.41015625,31.58203125 57.9052734375,32.63671875 55.3125,32.958984375 47.900390625,32.958984375 46.46484375,32.87109375 44.765625,32.548828125 42.9931640625,31.8896484375 41.30859375,30.8203125 39.2138671875,32.197265625 37.6318359375,32.8125 36.4453125,32.958984375 35.5078125,32.958984375 27.568359375,32.958984375 25.25390625,32.724609375 22.529296875,31.8310546875 20.2587890625,30.029296875 19.5446758270264,28.7109375 19.306640625,27.041015625 19.306640625,7.6171875 18.8671875,5.947265625 17.7685546875,4.775390625 16.2744140625,4.0869140625 14.6484375,3.8671875 9.697265625,3.8671875 8.02734375,4.04296875 6.4306640625,4.64355373382568 5.2294921875,5.771484375 4.74609375,7.55859375 4.74609375,29.150390625 5.302734375,29.7802734375 5.9765625,29.94140625 7.1923828125,29.384765625 7.67578125,28.0078125 7.2802734375,26.6748046875 6.4306640625,26.19140625 5.595703125,25.6787109375 5.21484375,24.580078125 5.859375,23.0859375 7.67578125,22.470703125 9.063720703125,22.672119140625 9.9462890625,23.2763671875 10.418701171875,24.378662109375 10.576171875,26.07421875 10.2978515625,28.4619140625 9.810791015625,29.703369140625 8.90625,30.9375 7.760009765625,31.94091796875 6.4306640625,32.548828125 3.955078125,32.958984375 2.021484375,32.958984375 0.6298828125,32.34375 0,30.8203125 0,5.9765625 0.24169921875,4.306640625 0.966796875,2.98828125 3.2666015625,1.1865234375 6.005859375,0.29296875 8.291015625,0.05859375 16.201171875,0.05859375 18.4716796875,0.322265625 21.064453125,1.23046875 22.5146465301514,2.2412109375 23.408203125,3.33984375 24.0234375,5.888671875 24.0234375,25.458984375 24.5068359375,27.24609375 25.7080078125,28.3740234375 27.3046875,28.974609375 28.974609375,29.150390625 34.423828125,29.150390625 36.0498046875,28.9306640625 37.5439453125,28.2421875 38.642578125,27.0703125 39.08203125,25.400390625 39.08203125,9.814453125 38.291015625,8.3642578125 36.708984375,7.880859375 35.888671875,8.056640625 35.126953125,8.232421875 34.39453125,7.646484375 33.251953125,5.712890625 40.48828125,0z" />
    </g>
  </g>
</svg>