<?xml version="1.0" encoding="utf-8"?>
<!DOCTYPE svg PUBLIC "-//W3C//DTD SVG 1.1//EN" "http://www.w3.org/Graphics/SVG/1.1/DTD/svg11.dtd">
<svg width="43.3300781250009" height="49.921875" xmlns="http://www.w3.org/2000/svg" xmlns:xlink="http://www.w3.org/1999/xlink" xmlns:xml="http://www.w3.org/XML/1998/namespace" version="1.1">
  <g>
    <g>
      <path style="fill:#FF0000;fill-opacity:1" d="M36.064453125,37.3828125L39.404296875,38.0126953125 41.4697265625,39.5068359375 42.509765625,41.1767578125 42.802734375,42.978515625 42.4658203125,45.1171875 41.9201622009277,46.2158203125 40.95703125,47.34375 38.96484375,48.662109375 36.8115234375,49.482421875 34.9072265625,49.833984375 33.22265625,49.921875 30.6591796875,49.74609375 27.509765625,49.072265625 24.169921875,47.841796875 21.240234375,46.5966796875 17.9150390625,45.52734375 13.564453125,45.087890625 9.2138671875,45.5419921875 5.6689453125,46.69921875 3.10546875,47.9296875 1.669921875,48.45703125 1.34765625,48.017578125 1.69189429283142,46.79443359375 2.724609375,45.17578125 5.0390625,43.330078125 7.9248046875,42.2314453125 11.220703125,41.7041015625 14.443359375,41.572265625 16.2744140625,41.6748046875 18.6767578125,42.1142578125 21.6650390625,43.125 23.5656719207764,43.9306640625 26.015625,45 29.86083984375,46.38427734375 32.958984375,46.845703125 34.801025390625,46.761474609375 36.2255859375,46.5087890625 38.1005859375,45.6884765625 38.994140625,44.6630859375 39.228515625,43.7109375 38.997802734375,42.652587890625 38.3056640625,41.7626953125 37.042236328125,41.158447265625 35.09765625,40.95703125 32.92236328125,40.60546875 32.197265625,39.55078125 32.435302734375,38.792724609375 33.1494140625,38.1005859375 34.354248046875,37.591552734375 36.064453125,37.3828125z M5.888671875,0L8.232421875,0.6298828125 10.3271484375,2.1826171875 11.370849609375,2.874755859375 12.3046875,3.10546875 13.1982421875,2.724609375 14.3701171875,1.81640625 15.615234375,0.87890625 16.7138671875,0.29296875 17.87109375,0.1171875 19.1015625,0.3662109375 20.2880859375,0.99609375 21.62109375,2.138671875 23.3203125,1.11328125 25.107421875,0.4541015625 26.7919921875,0.1025390625 28.212890625,0 34.189453125,0 35.537109375,0.0439453125 37.1044921875,0.2197265625 38.876953125,0.615234375 40.7958984375,1.5087890625 42.509765625,3.193359375 43.330078125,5.830078125 43.330078125,32.98828125 38.61328125,32.98828125 38.61328125,7.55859375 38.291015625,6.09375 37.3095703125,4.8046875 35.68359375,4.04296875 33.662109375,3.80859375 29.00390625,3.80859375 27.333984375,3.984375 25.7373046875,4.5849609375 24.5361328125,5.712890625 24.052734375,7.5 24.052734375,32.98828125 19.306640625,32.98828125 19.306640625,7.55859375 19.2626953125,6.4013671875 19.013671875,5.3466796875 18.5009765625,4.62890625 17.666015625,4.39453125 16.93359375,4.4970703125 16.171875,4.86328125 15.1171875,5.595703125 13.623046875,6.767578125 12.8173828125,7.294921875 11.953125,7.470703125 10.8984375,6.943359375 9.580078125,5.7861328125 8.583984375,4.98046875 7.734375,4.4970703125 6.97265625,4.3359375 6.09375,4.599609375 5.361328125,5.2880859375 4.9072265625,6.2841796875 4.74609375,7.5 4.74609375,29.1796875 5.302734375,29.8095703125 5.9765625,29.970703125 7.1923828125,29.4140625 7.67578125,28.037109375 7.2802734375,26.7626953125 6.4306640625,26.25 5.595703125,25.693359375 5.21484375,24.609375 5.859375,23.115234375 7.67578125,22.5 9.063720703125,22.701416015625 9.9462890625,23.3056640625 10.418701171875,24.407958984375 10.576171875,26.103515625 10.2978515625,28.4912109375 9.810791015625,29.732666015625 8.90625,30.966796875 7.76000881195068,31.97021484375 6.4306640625,32.578125 3.955078125,32.98828125 2.021484375,32.98828125 0.6298828125,32.373046875 0,30.849609375 0,5.91796875 0.585937976837158,3.10546875 2.0654296875,1.2890625 3.9404296875,0.3076171875 5.888671875,0z" />
    </g>
  </g>
</svg>