<?xml version="1.0" encoding="utf-8"?>
<!DOCTYPE svg PUBLIC "-//W3C//DTD SVG 1.1//EN" "http://www.w3.org/Graphics/SVG/1.1/DTD/svg11.dtd">
<svg width="37.6757812500017" height="44.23828125" xmlns="http://www.w3.org/2000/svg" xmlns:xlink="http://www.w3.org/1999/xlink" xmlns:xml="http://www.w3.org/XML/1998/namespace" version="1.1">
  <g>
    <g>
      <path style="fill:#FF0000;fill-opacity:1" d="M4.658203125,0L6.24023342132568,0.0769071578979492 7.353515625,0.307617157697678 8.90625,1.318359375 10.0927734375,3.16406226158142 10.60546875,5.71289014816284 10.60546875,8.232421875 10.78125,9.840087890625 11.3671875,10.7373046875 12.568359375,11.143798828125 14.58984375,11.279296875 27.158203125,11.279296875 30.157470703125,11.396484375 32.1826171875,11.748046875 34.599609375,12.7880859375 36.09375,14.0771484375 37.060546875,15.615234375 37.5439453125,17.40234375 37.67578125,19.541015625 37.67578125,44.23828125 32.16796875,44.23828125 21.15234375,37.6171875 11.513671875,44.23828125 5.859375,44.23828125 5.859375,31.376953125 5.2734375,30.732421875 4.62890625,30.5859375 3.369140625,31.1279296875 2.87109375,32.51953125 3.2666015625,33.8232421875 4.1162109375,34.306640625 4.9658203125,34.775390625 5.361328125,35.9765625 4.7021484375,37.4560546875 2.87109375,38.056640625 1.48681604862213,37.847900390625 0.615234375,37.2216796875 0.153808236122131,36.112060546875 0,34.453125 0.29296875,32.05078125 0.776366829872131,30.81298828125 1.640625,29.619140625 2.8125,28.590087890625 4.16015625,27.9638671875 6.650390625,27.5390625 7.6171875,27.5390625 9.00878810882568,27.6928730010986 9.90234375,28.154296875 10.546875,29.70703125 10.546875,39.873046875 21.15234375,32.87109375 33.046875,39.873046875 33.046875,20.478515625 32.801513671875,18.87451171875 32.0654296875,17.6953125 30.1318359375,16.318359375 27.59765625,15.8203125 24.873046875,15.732421875 19.599609375,15.732421875 17.021484375,15.732421875 15.1318359375,15.732421875 14.0185546875,15.728759765625 11.9384765625,15.7177734375 9.576416015625,15.347900390625 7.6171875,14.267578125 6.298828125,12.626953125 5.859375,10.576171875 5.859375,9.78515625 5.859375,7.61718797683716 5.859375,6.50390625 5.6982421875,5.013427734375 5.21484375,4.0576171875 4.0869140625,3.13476538658142 3.1201171875,2.724609375 2.63671875,1.75781226158142 3.28125,0.45410168170929 4.658203125,0z" />
    </g>
  </g>
</svg>