<?xml version="1.0" encoding="utf-8"?>
<!DOCTYPE svg PUBLIC "-//W3C//DTD SVG 1.1//EN" "http://www.w3.org/Graphics/SVG/1.1/DTD/svg11.dtd">
<svg width="31.9042968750003" height="32.98828125" xmlns="http://www.w3.org/2000/svg" xmlns:xlink="http://www.w3.org/1999/xlink" xmlns:xml="http://www.w3.org/XML/1998/namespace" version="1.1">
  <g>
    <g>
      <path style="fill:#FF0000;fill-opacity:1" d="M13.9453125,0L20.91796875,0 23.5217266082764,0.05126953125 25.3564453125,0.205078125 28.4326171875,1.2158203125 29.8828125,2.21923828125 30.9814453125,3.6181640625 31.673583984375,5.416259765625 31.904296875,7.6171875 31.904296875,8.291015625 31.787109375,10.1220722198486 31.435546875,11.279296875 30.3955078125,12.509765625 29.1064453125,13.1396484375 28.172607421875,13.3044452667236 26.806640625,13.359375 25.4479961395264,13.3154315948486 24.4775390625,13.18359375 23.203125,12.7734375 22.3681640625,12.333984375 21.50390625,11.6015625 20.6982421875,10.3564453125 20.361328125,8.7890625 21.1083984375,6.533203125 22.0056133270264,5.85205078125 23.203125,5.625 25.0048828125,6.2841796875 25.693359375,8.115234375 25.4443359375,9.3017578125 24.873046875,9.609375 24.4775390625,9.521484375 24.052734375,9.43359375 23.6572265625,9.609375 23.466796875,10.048828125 23.9794921875,10.7666015625 25.283203125,11.103515625 26.7333984375,10.4663105010986 27.216796875,8.5546875 27.216796875,7.8515625 26.9970703125,6.328125 26.4697265625,5.3173828125 25.37109375,4.51171875 23.2470703125,4.013671875 20.771484375,3.984375 14.150390625,3.984375 11.630859375,3.9990234375 8.6572265625,4.4970703125 7.21069240570068,5.1708984375 6.005859375,6.2255859375 5.19287109375,7.562255859375 4.921875,9.08203125 4.921875,9.4921875 5.269775390625,11.2536640167236 6.3134765625,12.6123046875 9.404296875,14.501953125 12.1875,15.615234375 22.5,19.453125 24.78515625,19.453125 25.224609375,18.193359375 26.2353515625,17.431640625 27.3046875,17.138671875 27.94921875,17.080078125 29.0478515625,17.2412109375 30.1025390625,17.75390625 30.8935546875,18.6767578125 31.201171875,20.21484375 30.9375,21.708984375 30.205078125,22.734375 29.1650390625,23.4375 27.978515625,23.759765625 27.978515625,24.78515625 27.725830078125,26.810302734375 26.9677734375,28.6669921875 25.83984375,30.22705078125 24.4775390625,31.3623046875 21.4306640625,32.63671875 19.5153789520264,32.900390625 16.904296875,32.98828125 14.150390625,32.98828125 11.429443359375,32.86376953125 9.1845703125,32.490234375 7.37548732757568,31.86767578125 5.9619140625,30.99609375 4.0869140625,28.623046875 3.427734375,25.546875 3.427734375,24.697265625 5.009765625,24.0234375 7.03125,24.0234375 8.3203125,24.7265625 8.3203125,25.458984375 8.67919826507568,26.942138671875 9.755859375,28.1103515625 11.57958984375,28.883056640625 14.1796875,29.1796875 16.904296875,29.1796875 19.5336894989014,28.89404296875 21.50390625,28.037109375 22.7343730926514,26.6455078125 23.14453125,24.755859375 23.14453125,23.759765625 22.294921875,23.759765625 7.705078125,18.515625 4.691162109375,17.178955078125 2.2119140625,15.2783203125 0.552978157997131,12.8723163604736 0,10.01953125 0,9.111328125 0.413818001747131,6.690673828125 1.6552734375,4.4091796875 3.526611328125,2.486572265625 5.830078125,1.142578125 8.32763576507568,0.340576171875 10.78125,0.0439453125 12.7880859375,0.010986328125 13.9453125,0z" />
    </g>
  </g>
</svg>