<?xml version="1.0" encoding="utf-8"?>
<!DOCTYPE svg PUBLIC "-//W3C//DTD SVG 1.1//EN" "http://www.w3.org/Graphics/SVG/1.1/DTD/svg11.dtd">
<svg width="38.408203125" height="37.0019531250013" xmlns="http://www.w3.org/2000/svg" xmlns:xlink="http://www.w3.org/1999/xlink" xmlns:xml="http://www.w3.org/XML/1998/namespace" version="1.1">
  <g>
    <g>
      <path style="fill:#FF0000;fill-opacity:1" d="M33.69140625,0L35.6982421875,0.380858898162842 37.236328125,1.42089796066284 38.1298828125,2.92968702316284 38.408203125,4.71679639816284 38.115234375,6.72363233566284 36.8701171875,8.96484375 34.453125,11.1181640625 31.9189453125,12.3193359375 29.736328125,12.861328125 27.36328125,13.06640625 25.2099609375,12.978515625 22.734375,12.24609375 9.580078125,6.24023389816284 3.076171875,9.4921875 3.076171875,10.341796875 10.546875,14.912109375 29.35546875,14.912109375 31.640625,15.146484375 34.39453125,16.0400390625 36.708984375,17.841796875 37.43408203125,19.1601581573486 37.67578125,20.830078125 37.67578125,37.001953125 32.9296875,37.001953125 32.9296875,22.412109375 32.4462890625,20.625 31.23046875,19.4970703125 29.619140625,18.896484375 27.94921875,18.720703125 11.6015625,18.720703125 9.9755859375,18.9404296875 8.4814453125,19.62890625 7.3828125,20.80078125 6.943359375,22.470703125 6.943359375,33.193359375 7.529296875,33.8232421875 8.173828125,33.984375 9.4189453125,33.45703125 9.90234375,32.05078125 9.5068359375,30.7177734375 8.642578125,30.234375 7.8076171875,29.794921875 7.44140625,28.623046875 8.0712890625,27.12890625 9.90234375,26.513671875 11.27197265625,26.715087890625 12.158203125,27.3193359375 12.6416015625,28.421630859375 12.802734375,30.1171875 12.509765625,32.5048828125 12.01904296875,33.746337890625 11.1328125,34.98046875 9.98291015625,35.98388671875 8.642578125,36.591796875 6.15234375,37.001953125 4.21875,37.001953125 2.87109375,36.38671875 2.255859375,34.86328125 2.255859375,20.7421875 2.7099609375,18.8671875 3.779296875,17.4755859375 5.0390625,16.435546875 6.240234375,15.732421875 0,12.041015625 0,8.96484375 10.546875,3.31054639816284 13.0078125,3.31054639816284 23.583984375,8.84765625 25.777587890625,9.796142578125 27.2607421875,10.2392578125 28.9453125,10.4736328125 30.029296875,10.517578125 31.669921875,10.3125 33.2080078125,9.6240234375 34.39453125,8.26171875 34.86328125,6.06445264816284 34.453125,4.98779249191284 33.22265625,4.62890577316284 32.607421875,4.67285108566284 31.9921875,4.71679639816284 30.673828125,4.27734327316284 30.234375,2.95898389816284 30.47607421875,1.83837842941284 31.201171875,0.87890625 32.30712890625,0.219726204872131 33.69140625,0z" />
    </g>
  </g>
</svg>