<?xml version="1.0" encoding="utf-8"?>
<!DOCTYPE svg PUBLIC "-//W3C//DTD SVG 1.1//EN" "http://www.w3.org/Graphics/SVG/1.1/DTD/svg11.dtd">
<svg width="41.07421875" height="32.98828125" xmlns="http://www.w3.org/2000/svg" xmlns:xlink="http://www.w3.org/1999/xlink" xmlns:xml="http://www.w3.org/XML/1998/namespace" version="1.1">
  <g>
    <g>
      <path style="fill:#FF0000;fill-opacity:1" d="M7.236328125,0L8.0859375,0 12.65625,2.314453125 13.359375,2.4609375 13.828125,2.40234375 14.35546875,3.28125 11.6015625,5.712890625 11.0009765625,5.44921875 9.9609375,4.8486328125 8.5400390625,4.2333984375 6.767578125,3.955078125 6.0791015625,4.0576171875 5.419921875,4.3359375 3.92578125,5.712890625 4.013671875,5.830078125 5.7421875,5.712890625 7.71240139007568,5.92529296875 9.111328125,6.5625 10.634765625,8.61328125 10.634765625,15.3515625 32.63671875,15.3515625 32.63671875,10.13671875 31.8310546875,8.7158203125 30.05859375,8.291015625 29.35546875,8.3349609375 28.505859375,8.37890625 27.509765625,7.646484375 26.71875,5.712890625 33.955078125,0 34.8046875,0 39.375,2.314453125 40.078125,2.4609375 40.546875,2.40234375 41.07421875,3.28125 38.3203125,5.712890625 37.7197265625,5.44921875 36.6796875,4.8486328125 35.2587890625,4.2333984375 33.486328125,3.955078125 32.7978515625,4.0576171875 32.138671875,4.3359375 30.64453125,5.712890625 30.732421875,5.830078125 32.4609375,5.712890625 34.43115234375,5.92529296875 35.830078125,6.5625 37.353515625,8.61328125 37.353515625,30.849609375 36.73828125,32.373046875 35.361328125,32.98828125 33.427734375,32.98828125 30.9228515625,32.578125 29.571533203125,31.97021484375 28.41796875,30.966796875 27.557373046875,29.769287109375 27.0849609375,28.5205078125 26.806640625,26.103515625 27.037353515625,24.407958984375 27.7294921875,23.3056640625 28.685302734375,22.701416015625 29.70703125,22.5 31.5234375,23.115234375 32.16796875,24.609375 31.7724609375,25.78125 30.908203125,26.2060546875 30.0439453125,26.6748046875 29.6484375,28.037109375 30.1611328125,29.4140625 31.40625,29.970703125 32.080078125,29.8095703125 32.63671875,29.1796875 32.63671875,18.3984375 10.634765625,18.3984375 10.634765625,30.849609375 10.01953125,32.373046875 8.642578125,32.98828125 6.708984375,32.98828125 4.2041015625,32.578125 2.852783203125,31.97021484375 1.69921875,30.966796875 0.838622748851776,29.769287109375 0.366211414337158,28.5205078125 0.0878911018371582,26.103515625 0.318603217601776,24.407958984375 1.0107421875,23.3056640625 1.96655249595642,22.701416015625 2.98828125,22.5 4.8046875,23.115234375 5.44921875,24.609375 5.0537109375,25.78125 4.189453125,26.2060546875 3.3251953125,26.6748046875 2.9296875,28.037109375 3.4423828125,29.4140625 4.6875,29.970703125 5.361328125,29.8095703125 5.91796875,29.1796875 5.91796875,10.13671875 5.1123046875,8.7158203125 3.33984375,8.291015625 2.63671875,8.3349609375 1.787109375,8.37890625 0.791015625,7.646484375 0,5.712890625 7.236328125,0z" />
    </g>
  </g>
</svg>