<?xml version="1.0" encoding="utf-8"?>
<!DOCTYPE svg PUBLIC "-//W3C//DTD SVG 1.1//EN" "http://www.w3.org/Graphics/SVG/1.1/DTD/svg11.dtd">
<svg width="35.830078125" height="42.1875" xmlns="http://www.w3.org/2000/svg" xmlns:xlink="http://www.w3.org/1999/xlink" xmlns:xml="http://www.w3.org/XML/1998/namespace" version="1.1">
  <g>
    <g>
      <path style="fill:#FF0000;fill-opacity:1" d="M33.28125,0L34.515380859375,0.183108299970627 35.2880859375,0.732421636581421 35.830078125,2.16796875 35.537109375,3.3251953125 34.8779296875,3.8525390625 34.21875,4.2333984375 33.92578125,5.00976610183716 33.92578125,16.142578125 33.33984375,17.9443359375 32.5634765625,18.5046405792236 31.40625,18.69140625 28.65234375,18.69140625 28.30078125,17.7099609375 27.2900390625,16.4501953125 25.693359375,15.146484375 23.525390625,14.208984375 20.419921875,13.88671875 11.923828125,13.88671875 9.3017578125,14.3994140625 7.08984422683716,15.8349609375 5.55175828933716,18.0908203125 4.98046922683716,21.064453125 4.98046922683716,33.75 5.28808641433716,35.625 6.16699266433716,36.7529296875 7.79296922683716,37.44140625 16.171875,32.40234375 17.98828125,32.40234375 26.103515625,37.79296875 26.689453125,37.9541015625 27.3046875,37.96875 28.14697265625,37.734375 28.681640625,37.03125 28.96728515625,35.8740234375 29.0625,34.27734375 29.0625,25.078125 28.7841796875,24.638671875 28.0078125,24.462890625 26.279296875,25.1953125 25.576171875,26.748046875 25.60546875,27.1142578125 25.810546875,27.333984375 28.0078125,28.05908203125 28.740234375,30.234375 28.5498046875,31.1865234375 28.0224609375,32.0654296875 27.2021484375,32.724609375 26.162109375,32.98828125 24.7412109375,32.548828125 23.701171875,31.4501953125 23.2470703125,30.0732421875 23.173828125,28.76953125 23.6572265625,26.162109375 24.990234375,23.96484375 27.0703125,22.470703125 28.6083984375,22.0532245635986 30.76171875,21.9140625 32.98828125,22.44140625 33.69140625,23.0566425323486 33.92578125,23.84765625 33.92578125,35.0390625 33.7353515625,37.8076171875 32.87109375,39.90234375 30.673828125,41.6162109375 28.447265625,42.1875 24.521484375,42.1875 17.2265625,37.353515625 8.84765625,42.1875 6.38671922683716,42.1875 4.40918016433716,41.8212890625 2.29980516433716,40.634765625 0.688477039337158,38.3349609375 0,34.98046875 0,20.302734375 0.219726622104645,17.999267578125 0.878906726837158,15.8935546875 3.28125047683716,12.509765625 6.75293016433716,10.3564453125 8.763427734375,9.774169921875 10.8984375,9.580078125 20.830078125,9.580078125 24.0966796875,9.84375 26.71875,10.7666015625 29.0625,12.802734375 29.0625,3.8671875 29.267578125,2.120361328125 29.8828125,0.922851324081421 31.142578125,0.230715721845627 33.28125,0z" />
    </g>
  </g>
</svg>