<?xml version="1.0" encoding="utf-8"?>
<!DOCTYPE svg PUBLIC "-//W3C//DTD SVG 1.1//EN" "http://www.w3.org/Graphics/SVG/1.1/DTD/svg11.dtd">
<svg width="12.275390625" height="26.3671875" xmlns="http://www.w3.org/2000/svg" xmlns:xlink="http://www.w3.org/1999/xlink" xmlns:xml="http://www.w3.org/XML/1998/namespace" version="1.1">
  <g>
    <g>
      <path style="fill:#FF0000;fill-opacity:1" d="M6.416015625,19.716796875L4.921875,20.3173828125 4.39453125,21.884765625 4.9951171875,23.349609375 6.416015625,23.994140625 7.998046875,23.349609375 8.701171875,21.884765625 8.02734375,20.33203125 6.416015625,19.716796875z M6.416015625,17.2265625L8.1884765625,17.578125 9.638671875,18.544921875 10.60546875,19.9951171875 10.95703125,21.73828125 10.6201171875,23.5107421875 9.697265625,24.9755859375 8.2763671875,25.986328125 6.416015625,26.3671875 4.6435546875,25.986328125 3.1640625,24.990234375 2.1826171875,23.525390625 1.81640625,21.73828125 2.15698194503784,19.910888671875 3.1787109375,18.4716796875 4.669189453125,17.537841796875 6.416015625,17.2265625z M0,11.865234375L12.275390625,11.865234375 12.275390625,14.35546875 0,14.35546875 0,11.865234375z M6.416015625,2.490234375L4.9658203125,3.10546875 4.39453125,4.599609375 4.9658203125,6.123046875 6.416015625,6.708984375 8.02734375,6.123046875 8.701171875,4.599609375 7.998046875,3.134765625 6.416015625,2.490234375z M6.416015625,0L8.24706935882568,0.3076171875 9.697265625,1.23046875 10.6420888900757,2.6806640625 10.95703125,4.5703125 10.60546875,6.2841796875 9.6533203125,7.734375 8.2177734375,8.7158203125 6.416015625,9.08203125 4.6435546875,8.7158203125 3.1640625,7.734375 2.1826171875,6.298828125 1.81640625,4.5703125 2.1826171875,2.7685546875 3.1640625,1.318359375 4.6435546875,0.3515625 6.416015625,0z" />
    </g>
  </g>
</svg>