<?xml version="1.0" encoding="utf-8"?>
<!DOCTYPE svg PUBLIC "-//W3C//DTD SVG 1.1//EN" "http://www.w3.org/Graphics/SVG/1.1/DTD/svg11.dtd">
<svg width="36.5625" height="48.57421875" xmlns="http://www.w3.org/2000/svg" xmlns:xlink="http://www.w3.org/1999/xlink" xmlns:xml="http://www.w3.org/XML/1998/namespace" version="1.1">
  <g>
    <g>
      <path style="fill:#FF0000;fill-opacity:1" d="M18.046875,0L21.8408184051514,0.333251953125 25.25390625,1.3330078125 28.231201171875,2.9296875 30.7177734375,5.0537109375 32.70263671875,7.679443359375 34.1748046875,10.78125 35.086669921875,14.2822284698486 35.390625,18.10546875 35.1750183105469,21.3107299804688 34.5281982421875,24.320068359375 33.4501647949219,27.1334838867188 31.94091796875,29.7509765625 30.0004577636719,32.1725463867188 27.6287841796875,34.398193359375 24.8258972167969,36.4279174804688 21.591796875,38.26171875 27.36328125,38.26171875 29.67041015625,38.463134765625 31.611328125,39.0673828125 34.4677734375,41.279296875 36.064453125,44.560546875 36.5625,48.57421875 31.40625,48.57421875 31.142578125,46.2451171875 30.263671875,44.384765625 28.6669921875,43.154296875 26.279296875,42.71484375 4.98046875,42.71484375 4.98046875,48.57421875 0,48.57421875 0,38.26171875 11.982421875,38.26171875 16.2602233886719,36.4796447753906 19.9676513671875,34.5025634765625 23.1047058105469,32.3304748535156 25.67138671875,29.96337890625 27.6676940917969,27.4012756347656 29.0936279296875,24.6441650390625 29.9491882324219,21.6920471191406 30.234375,18.544921875 30.03662109375,15.7507343292236 29.443359375,13.1103515625 27.1142578125,8.61328125 25.3930644989014,6.881103515625 23.3056640625,5.5517578125 20.855712890625,4.705810546875 18.046875,4.423828125 15.31494140625,4.65087890625 12.919921875,5.33203125 9.1845703125,7.8662109375 6.884765625,11.7626953125 6.29150390625,14.1467304229736 6.09375,16.7578125 0.937500476837158,16.7578125 1.24511742591858,13.1506366729736 2.16796898841858,9.8876953125 3.651123046875,7.020263671875 5.6396484375,4.599609375 8.111572265625,2.6513671875 11.044921875,1.201171875 14.37744140625,0.30029296875 18.046875,0z" />
    </g>
  </g>
</svg>