<?xml version="1.0" encoding="utf-8"?>
<!DOCTYPE svg PUBLIC "-//W3C//DTD SVG 1.1//EN" "http://www.w3.org/Graphics/SVG/1.1/DTD/svg11.dtd">
<svg width="38.02734375" height="42.71484375" xmlns="http://www.w3.org/2000/svg" xmlns:xlink="http://www.w3.org/1999/xlink" xmlns:xml="http://www.w3.org/XML/1998/namespace" version="1.1">
  <g>
    <g>
      <path style="fill:#FF0000;fill-opacity:1" d="M15.615234375,15.29296875L11.0467529296875,16.0107440948486 7.74169921875,18.1640644073486 5.7000732421875,21.7529315948486 4.921875,26.77734375 5.69091796875,31.981201171875 7.705078125,35.6982421875 10.96435546875,37.928466796875 15.46875,38.671875 17.7694702148438,38.4713745117188 19.779052734375,37.869873046875 21.4974975585938,36.8673706054688 22.9248046875,35.4638671875 24.8474102020264,31.658935546875 25.48828125,26.66015625 25.48828125,15.29296875 15.615234375,15.29296875z M25.48828125,0L30.41015625,0 30.41015625,10.83984375 38.02734375,10.83984375 38.02734375,15.29296875 30.41015625,15.29296875 30.41015625,26.77734375 30.1666259765625,30.2984619140625 29.43603515625,33.42041015625 28.2183837890625,36.1431884765625 26.513671875,38.466796875 24.3841533660889,40.3253173828125 21.8920879364014,41.65283203125 19.0374736785889,42.4493408203125 15.8203125,42.71484375 12.2433471679688,42.4493408203125 9.100341796875,41.65283203125 6.39129638671875,40.3253173828125 4.1162109375,38.466796875 2.31536889076233,36.1322021484375 1.02905297279358,33.37646484375 0.25726330280304,30.1995849609375 0,26.6015625 0.234375134110451,23.2525634765625 0.937500238418579,20.23681640625 2.10937523841858,17.5543212890625 3.75000023841858,15.205078125 5.8648681640625,13.2952890396118 8.45947265625,11.9311542510986 11.5338134765625,11.1126718521118 15.087890625,10.83984375 25.48828125,10.83984375 25.48828125,0z" />
    </g>
  </g>
</svg>