<?xml version="1.0" encoding="utf-8"?>
<!DOCTYPE svg PUBLIC "-//W3C//DTD SVG 1.1//EN" "http://www.w3.org/Graphics/SVG/1.1/DTD/svg11.dtd">
<svg width="38.3203125" height="42.71484375" xmlns="http://www.w3.org/2000/svg" xmlns:xlink="http://www.w3.org/1999/xlink" xmlns:xml="http://www.w3.org/XML/1998/namespace" version="1.1">
  <g>
    <g>
      <path style="fill:#FF0000;fill-opacity:1" d="M15.5859375,0L19.2594909667969,0.265960693359375 22.4432373046875,1.0638427734375 25.1371765136719,2.39364624023438 27.34130859375,4.25537109375 29.0556335449219,6.64901733398438 30.2801513671875,9.5745849609375 31.0148620605469,13.0320739746094 31.259765625,17.021484375 31.259765625,38.26171875 38.3203125,38.26171875 38.3203125,42.71484375 26.337890625,42.71484375 26.337890625,17.34375 26.1703491210938,14.3156433105469 25.6677227020264,11.6912841796875 24.8300151824951,9.47067260742188 23.6572246551514,7.65380859375 22.1493511199951,6.24069213867188 20.3063945770264,5.2313232421875 18.1283569335938,4.62570190429688 15.615234375,4.423828125 13.1089782714844,4.61883544921875 10.9368896484375,5.203857421875 9.09896850585938,6.17889404296875 7.59521484375,7.5439453125 6.42562866210938,9.29901123046875 5.5902099609375,11.444091796875 5.08895874023438,13.9791870117188 4.921875,16.904296875 4.921875,21.328125 0,21.328125 0,17.6953125 0.243530198931694,13.5479736328125 0.97412097454071,9.95361328125 2.1917724609375,6.9122314453125 3.896484375,4.423828125 6.0882568359375,2.4884033203125 8.76708984375,1.10595703125 11.9329833984375,0.2764892578125 15.5859375,0z" />
    </g>
  </g>
</svg>