<?xml version="1.0" encoding="utf-8"?>
<!DOCTYPE svg PUBLIC "-//W3C//DTD SVG 1.1//EN" "http://www.w3.org/Graphics/SVG/1.1/DTD/svg11.dtd">
<svg width="32.3730468750001" height="43.41796875" xmlns="http://www.w3.org/2000/svg" xmlns:xlink="http://www.w3.org/1999/xlink" xmlns:xml="http://www.w3.org/XML/1998/namespace" version="1.1">
  <g>
    <g>
      <path style="fill:#FF0000;fill-opacity:1" d="M15.99609375,0L21.181640625,0.6298828125 23.5949687957764,1.4501953125 25.7373046875,2.6513671875 27.5537090301514,4.25537109375 28.9892578125,6.2841796875 29.923095703125,8.778076171875 30.234375,11.77734375 25.078125,11.77734375 24.4775390625,8.7890625 22.7197265625,6.474609375 19.8486328125,4.98046875 15.9375,4.453125 12.2021484375,4.921875 9.462890625,6.2548828125 7.7783203125,8.3203125 7.20703125,11.015625 7.412109375,12.8210468292236 8.02734375,14.3115234375 10.283203125,16.5234375 13.6083984375,17.9443359375 17.607421875,18.837890625 23.4814453125,20.2001953125 28.1689453125,22.3974609375 29.930419921875,23.975830078125 31.259765625,25.927734375 32.0947265625,28.3447265625 32.373046875,31.318359375 32.04345703125,34.4677734375 31.0546875,37.060546875 29.512939453125,39.14794921875 27.5244140625,40.78125 25.1403789520264,41.98974609375 22.412109375,42.802734375 16.34765625,43.41796875 10.400390625,42.7294921875 7.62451171875,41.8359375 5.15625,40.5322265625 3.06518530845642,38.8037109375 1.42089819908142,36.6357421875 0.355224400758743,33.995361328125 0,30.849609375 5.185546875,30.849609375 5.438232421875,32.95166015625 6.1962890625,34.6875 8.818359375,37.1923828125 12.421875,38.5693359375 16.40625,38.994140625 21.1358623504639,38.514404296875 24.5141582489014,37.0751953125 26.5411357879639,34.676513671875 27.216796875,31.318359375 27.0300273895264,29.3701171875 26.4697265625,27.802734375 24.4189453125,25.576171875 21.328125,24.228515625 17.431640625,23.349609375 11.4404296875,21.8994140625 6.5625,19.62890625 4.69848585128784,18.0542011260986 3.26660132408142,16.142578125 2.35473608970642,13.8208026885986 2.05078101158142,11.015625 2.28149390220642,8.638916015625 2.97363257408142,6.4892578125 4.11254835128784,4.599609375 5.68359375,3.0029296875 7.672119140625,1.72119140625 10.0634765625,0.7763671875 12.843017578125,0.194091796875 15.99609375,0z" />
    </g>
  </g>
</svg>