<?xml version="1.0" encoding="utf-8"?>
<!DOCTYPE svg PUBLIC "-//W3C//DTD SVG 1.1//EN" "http://www.w3.org/Graphics/SVG/1.1/DTD/svg11.dtd">
<svg width="26.3671875" height="45.1171875" xmlns="http://www.w3.org/2000/svg" xmlns:xlink="http://www.w3.org/1999/xlink" xmlns:xml="http://www.w3.org/XML/1998/namespace" version="1.1">
  <g>
    <g>
      <path style="fill:#FF0000;fill-opacity:1" d="M0,0L4.8046875,0 4.8046875,14.4140625 26.3671875,14.4140625 26.3671875,18.8671875 4.8046875,18.8671875 4.8046875,31.5234375 5.240478515625,35.701904296875 6.5478515625,38.6865234375 8.726806640625,40.477294921875 11.77734375,41.07421875 15.069580078125,40.396728515625 17.7392578125,38.3642578125 19.5080547332764,35.299072265625 20.09765625,31.5234375 20.09765625,23.3203125 24.90234375,23.3203125 24.90234375,44.4140625 20.09765625,44.4140625 20.09765625,39.43359375 19.98046875,39.43359375 18.0908203125,41.920166015625 15.8203125,43.6962890625 13.1689453125,44.761962890625 10.13671875,45.1171875 7.8204345703125,44.9185180664063 5.79345703125,44.322509765625 4.0557861328125,43.3291625976563 2.60742139816284,41.9384765625 0.651855409145355,38.052978515625 0,32.75390625 0,0z" />
    </g>
  </g>
</svg>