<?xml version="1.0" encoding="utf-8"?>
<!DOCTYPE svg PUBLIC "-//W3C//DTD SVG 1.1//EN" "http://www.w3.org/Graphics/SVG/1.1/DTD/svg11.dtd">
<svg width="27.6562500000002" height="44.82421875" xmlns="http://www.w3.org/2000/svg" xmlns:xlink="http://www.w3.org/1999/xlink" xmlns:xml="http://www.w3.org/XML/1998/namespace" version="1.1">
  <g>
    <g>
      <path style="fill:#FF0000;fill-opacity:1" d="M14.4140625,4.04296875L12.0300283432007,4.29199361801147 10.0341796875,5.0390625 7.08984375,7.734375 5.4345703125,11.66015625 4.921875,16.34765625 5.44921875,20.5078125 7.060546875,24.0234375 9.7998046875,26.455078125 11.6125478744507,27.13623046875 13.740234375,27.36328125 15.743408203125,27.158203125 17.5341796875,26.54296875 20.4052734375,24.3310546875 22.2216796875,21.0791015625 22.8515625,17.138671875 22.8515625,12.71484375 22.20703125,9.3896484375 20.419921875,6.6357421875 17.7392578125,4.74609375 14.4140625,4.04296875z M13.740234375,0L16.5765380859375,0.303956151008606 19.02099609375,1.21582174301147 21.0736083984375,2.73559665679932 22.734375,4.86328125 22.8515625,4.86328125 22.8515625,0.703125 27.65625,0.703125 27.65625,28.30078125 27.4136333465576,32.1734619140625 26.6857891082764,35.52978515625 25.4727153778076,38.3697509765625 23.7744140625,40.693359375 21.6275024414063,42.5006103515625 19.068603515625,43.79150390625 16.0977172851563,44.5660400390625 12.71484375,44.82421875 10.4736328125,44.6337890625 7.763671875,43.974609375 4.9658203125,42.7294921875 2.47558569908142,40.751953125 0.688476324081421,37.91015625 0,34.1015625 4.921875,34.1015625 5.11596584320068,35.804443359375 5.6982421875,37.2216796875 7.6318359375,39.2724609375 10.1513671875,40.3857421875 12.65625,40.72265625 16.9189453125,39.990234375 20.126953125,37.7783203125 22.1484375,34.1015625 22.6757793426514,31.7138671875 22.8515625,28.9453125 22.8515625,25.6640625 22.734375,25.6640625 20.804443359375,28.17626953125 18.4423828125,29.970703125 15.648193359375,31.04736328125 12.421875,31.40625 9.51049709320068,31.11328125 6.9873046875,30.234375 4.85229444503784,28.853759765625 3.10546851158142,27.0556640625 1.74682593345642,24.88037109375 0.776366949081421,22.3681640625 0.194091588258743,19.603271484375 0,16.669921875 0.205077916383743,13.363037109375 0.820312261581421,10.2392578125 1.85668921470642,7.3974609375 3.32519507408142,4.9365234375 5.23681592941284,2.90039205551147 7.6025390625,1.3330078125 10.4333486557007,0.333253383636475 13.740234375,0z" />
    </g>
  </g>
</svg>