<?xml version="1.0" encoding="utf-8"?>
<!DOCTYPE svg PUBLIC "-//W3C//DTD SVG 1.1//EN" "http://www.w3.org/Graphics/SVG/1.1/DTD/svg11.dtd">
<svg width="19.1015625" height="44.619140625" xmlns="http://www.w3.org/2000/svg" xmlns:xlink="http://www.w3.org/1999/xlink" xmlns:xml="http://www.w3.org/XML/1998/namespace" version="1.1">
  <g>
    <g>
      <path style="fill:#FF0000;fill-opacity:1" d="M8.84765625,0L11.630859375,3.8671875 7.5,6.85546875 15.1171875,18.515625 15.8935546875,20.0537109375 16.171875,21.884765625 15.9814453125,23.140869140625 15.41015625,24.5068359375 14.40673828125,26.004638671875 12.919921875,27.65625 10.458984375,30.1171875 8.583984375,32.1240234375 6.9140625,34.0283203125 5.09765625,36.181640625 4.51171875,37.2216796875 4.248046875,38.26171875 4.81933546066284,39.77783203125 6.533203125,40.283203125 19.1015625,40.283203125 19.1015625,44.619140625 6.533203125,44.619140625 3.61083984375,44.23828125 1.58203172683716,43.095703125 0.395507872104645,41.1328125 0,38.291015625 0.087890625,37.412109375 0.3662109375,36.298828125 0.864257574081421,35.1123046875 1.611328125,33.955078125 3.515625,31.728515625 5.888671875,29.1943359375 8.4375,26.6015625 10.869140625,24.169921875 11.689453125,23.056640625 11.923828125,22.03125 11.572265625,20.771484375 1.14257836341858,5.537109375 8.84765625,0z" />
    </g>
  </g>
</svg>