<?xml version="1.0" encoding="utf-8"?>
<!DOCTYPE svg PUBLIC "-//W3C//DTD SVG 1.1//EN" "http://www.w3.org/Graphics/SVG/1.1/DTD/svg11.dtd">
<svg width="37.587890625" height="43.359375" xmlns="http://www.w3.org/2000/svg" xmlns:xlink="http://www.w3.org/1999/xlink" xmlns:xml="http://www.w3.org/XML/1998/namespace" version="1.1">
  <g>
    <g>
      <path style="fill:#FF0000;fill-opacity:1" d="M18.80859375,21.708984375L18.80859375,38.5546875 22.236328125,27.65625 18.80859375,21.708984375z M18.779296875,21.708984375L4.16015625,30.1171875 15.3515625,27.65625 18.779296875,21.708984375z M18.837890625,21.6796875L33.427734375,30.1171875 25.693359375,21.6796875 18.837890625,21.6796875z M33.427734375,13.2421875L22.236328125,15.732421875 18.837890625,21.650390625 33.427734375,13.2421875z M4.16015625,13.2421875L11.89453125,21.6796875 18.779296875,21.6796875 4.16015625,13.2421875z M18.80859375,4.8046875L15.3515625,15.732421875 18.80859375,21.650390625 18.80859375,4.8046875z M18.80859375,0L23.203125,14.033203125 37.587890625,10.83984375 27.65625,21.6796875 37.587890625,32.51953125 23.203125,29.35546875 18.80859375,43.359375 14.384765625,29.35546875 0,32.51953125 9.931640625,21.6796875 0,10.83984375 14.384765625,14.033203125 18.80859375,0z" />
    </g>
  </g>
</svg>