<?xml version="1.0" encoding="utf-8"?>
<!DOCTYPE svg PUBLIC "-//W3C//DTD SVG 1.1//EN" "http://www.w3.org/Graphics/SVG/1.1/DTD/svg11.dtd">
<svg width="19.892578125" height="13.916015625" xmlns="http://www.w3.org/2000/svg" xmlns:xlink="http://www.w3.org/1999/xlink" xmlns:xml="http://www.w3.org/XML/1998/namespace" version="1.1">
  <g>
    <g>
      <path style="fill:#FF0000;fill-opacity:1" d="M8.61328125,1.552734375L6.416015625,1.904296875 5.0830078125,2.8271484375 4.4091796875,4.0869140625 4.21875,5.44921875 4.248046875,6.09375 4.3359375,6.708984375 5.068359375,9.08203125 6.328125,10.8544921875 8.3203125,11.9677734375 11.279296875,12.36328125 13.4765625,12.01171875 14.8095703125,11.103515625 15.4833984375,9.84375 15.673828125,8.466796875 15.64453125,7.822265625 15.556640625,7.20703125 14.8388671875,4.8486328125 13.5791015625,3.076171875 11.572265625,1.9482421875 8.61328125,1.552734375z M8.49609375,0L13.4765625,0.673828125 17.05078125,2.4462890625 19.189453125,4.921875 19.892578125,7.705078125 19.365234375,10.0341796875 17.7685546875,12.0263671875 15.1025390625,13.4033203125 11.396484375,13.916015625 6.4013671875,13.2275390625 2.841796875,11.4404296875 0.703124761581421,8.96484375 0,6.2109375 0.52734375,3.8818359375 2.1240234375,1.8896484375 4.7900390625,0.5126953125 8.49609375,0z" />
    </g>
  </g>
</svg>