<?xml version="1.0" encoding="utf-8"?>
<!DOCTYPE svg PUBLIC "-//W3C//DTD SVG 1.1//EN" "http://www.w3.org/Graphics/SVG/1.1/DTD/svg11.dtd">
<svg width="30.732421875" height="37.8515625" xmlns="http://www.w3.org/2000/svg" xmlns:xlink="http://www.w3.org/1999/xlink" xmlns:xml="http://www.w3.org/XML/1998/namespace" version="1.1">
  <g>
    <g>
      <path style="fill:#FF0000;fill-opacity:1" d="M7.08984375,9.111328125L10.2685546875,9.404296875 12.392578125,10.01953125 13.916015625,10.927734375 13.916015625,37.8515625 11.484375,37.8515625 11.484375,20.888671875 9.638671875,20.33203125 7.08984375,20.009765625 3.75,20.2880859375 1.5673828125,20.91796875 0.380859375,21.5625 0,21.85546875 0,10.927734375 1.552734375,10.01953125 3.75,9.404296875 7.08984375,9.111328125z M23.90625,0L27.0849609375,0.292968273162842 29.208984375,0.908203125 30.732421875,1.81640625 30.732421875,12.744140625 30.380859375,12.451171875 29.1943359375,11.806640625 27.0849609375,11.1767578125 23.90625,10.8984375 20.9912109375,11.3818359375 18.9111328125,12.65625 17.666015625,14.4287109375 17.255859375,16.40625 17.6806640625,18.5009765625 18.9404296875,20.244140625 21.0205078125,21.4453125 23.90625,21.884765625 27.0849609375,21.6064453125 29.1943359375,20.9765625 30.380859375,20.33203125 30.732421875,20.0390625 30.732421875,30.966796875 29.208984375,31.875 27.0849609375,32.5048828125 23.90625,32.783203125 20.56640625,32.5048828125 18.369140625,31.875 16.81640625,30.966796875 16.81640625,1.81640625 18.369140625,0.908203125 20.56640625,0.292968273162842 23.90625,0z" />
    </g>
  </g>
</svg>