<?xml version="1.0" encoding="utf-8"?>
<!DOCTYPE svg PUBLIC "-//W3C//DTD SVG 1.1//EN" "http://www.w3.org/Graphics/SVG/1.1/DTD/svg11.dtd">
<svg width="46.58203125" height="11.513671875" xmlns="http://www.w3.org/2000/svg" xmlns:xlink="http://www.w3.org/1999/xlink" xmlns:xml="http://www.w3.org/XML/1998/namespace" version="1.1">
  <g>
    <g>
      <path style="fill:#FF0000;fill-opacity:1" d="M0,0.380859375L4.74609375,0.380859375 7.95959520339966,3.687744140625 12.1215829849243,6.0498046875 17.2320556640625,7.467041015625 23.291015625,7.939453125 29.3389892578125,7.467041015625 34.44580078125,6.0498046875 38.6114501953125,3.687744140625 41.8359375,0.380859375 46.58203125,0.380859375 42.5006103515625,5.25146484375 37.25830078125,8.73046875 30.8551025390625,10.81787109375 23.291015625,11.513671875 15.7269287109375,10.81787109375 9.32373046875,8.73046875 4.0814208984375,5.25146484375 0,0.380859375z M32.080078125,0L33.6767578125,0.673828125 34.3359375,2.2265625 33.662109375,3.80859375 32.080078125,4.453125 30.52734375,3.80859375 29.8828125,2.2265625 30.5419921875,0.64453125 32.080078125,0z M23.291015625,0L24.8876953125,0.673828125 25.546875,2.2265625 24.873046875,3.80859375 23.291015625,4.453125 21.73828125,3.80859375 21.09375,2.2265625 21.7529296875,0.64453125 23.291015625,0z M14.501953125,0L16.0986328125,0.673828125 16.7578125,2.2265625 16.083984375,3.80859375 14.501953125,4.453125 12.94921875,3.80859375 12.3046875,2.2265625 12.9638671875,0.64453125 14.501953125,0z" />
    </g>
  </g>
</svg>