<?xml version="1.0" encoding="utf-8"?>
<!DOCTYPE svg PUBLIC "-//W3C//DTD SVG 1.1//EN" "http://www.w3.org/Graphics/SVG/1.1/DTD/svg11.dtd">
<svg width="41.748046875" height="24.2578125" xmlns="http://www.w3.org/2000/svg" xmlns:xlink="http://www.w3.org/1999/xlink" xmlns:xml="http://www.w3.org/XML/1998/namespace" version="1.1">
  <g>
    <g>
      <path style="fill:#FF0000;fill-opacity:1" d="M34.921875,11.513671875L38.1005859375,11.806640625 40.224609375,12.421875 41.748046875,13.330078125 41.748046875,24.2578125 41.396484375,23.96484375 40.2099609375,23.3203125 38.1005859375,22.6904296875 34.921875,22.412109375 31.58203125,22.705078125 29.384765625,23.3203125 27.83203125,24.228515625 27.83203125,13.330078125 29.384765625,12.421875 31.58203125,11.806640625 34.921875,11.513671875z M7.08984375,11.513671875L10.2685546875,11.806640625 12.392578125,12.421875 13.916015625,13.330078125 13.916015625,24.2578125 13.564453125,23.96484375 12.3779296875,23.3203125 10.2685546875,22.6904296875 7.08984375,22.412109375 3.75,22.705078125 1.552734375,23.3203125 0,24.228515625 0,13.330078125 1.552734375,12.421875 3.75,11.806640625 7.08984375,11.513671875z M21.005859375,0L24.1845703125,0.29296875 26.30859375,0.908203125 27.83203125,1.81640625 27.83203125,12.744140625 27.48046875,12.451171875 26.2939453125,11.806640625 24.1845703125,11.1767578125 21.005859375,10.8984375 17.666015625,11.19140625 15.46875,11.806640625 13.916015625,12.71484375 13.916015625,1.81640625 15.46875,0.908203125 17.666015625,0.29296875 21.005859375,0z" />
    </g>
  </g>
</svg>