<?xml version="1.0" encoding="utf-8"?>
<!DOCTYPE svg PUBLIC "-//W3C//DTD SVG 1.1//EN" "http://www.w3.org/Graphics/SVG/1.1/DTD/svg11.dtd">
<svg width="11.748046875" height="11.748046875" xmlns="http://www.w3.org/2000/svg" xmlns:xlink="http://www.w3.org/1999/xlink" xmlns:xml="http://www.w3.org/XML/1998/namespace" version="1.1">
  <g>
    <g>
      <path style="fill:#FF0000;fill-opacity:1" d="M6.5625,6.591796875L6.5625,9.43359375 7.5439453125,9.0380859375 8.4375,8.37890625 9.43359375,6.591796875 6.5625,6.591796875z M2.28515625,6.591796875L2.63671875,7.5146484375 3.28125,8.37890625 4.1455078125,9.0234375 5.068359375,9.404296875 5.068359375,6.591796875 2.28515625,6.591796875z M6.5625,2.16796875L6.5625,5.126953125 9.4921875,5.126953125 8.4375,3.193359375 6.5625,2.16796875z M5.09765625,2.16796875L3.28125,3.193359375 2.2265625,5.126953125 5.09765625,5.126953125 5.09765625,2.16796875z M5.09765625,0L6.5625,0 6.5625,0.87890625 8.03466701507568,1.376953125 9.345703125,2.34375 10.3124990463257,3.64013671875 10.810546875,5.126953125 11.748046875,5.126953125 11.748046875,6.591796875 10.810546875,6.591796875 10.3125,8.056640625 9.375,9.345703125 8.0419921875,10.2978515625 6.5625,10.751953125 6.5625,11.748046875 5.09765625,11.748046875 5.09765625,10.72265625 3.6474609375,10.224609375 2.373046875,9.287109375 1.435546875,8.02734375 0.9375,6.591796875 0,6.591796875 0,5.126953125 0.908203125,5.126953125 1.35498046875,3.62548828125 2.34375,2.28515625 3.6328125,1.34765625 5.09765625,0.87890625 5.09765625,0z" />
    </g>
  </g>
</svg>