<?xml version="1.0" encoding="utf-8"?>
<!DOCTYPE svg PUBLIC "-//W3C//DTD SVG 1.1//EN" "http://www.w3.org/Graphics/SVG/1.1/DTD/svg11.dtd">
<svg width="28.2128905653954" height="62.138671875" xmlns="http://www.w3.org/2000/svg" xmlns:xlink="http://www.w3.org/1999/xlink" xmlns:xml="http://www.w3.org/XML/1998/namespace" version="1.1">
  <g>
    <g>
      <path style="fill:#FF0000;fill-opacity:1" d="M17.607421875,32.783203125L20.185546875,45.8203125 22.5,44.7216796875 24.1552734375,43.0078125 25.13671875,40.9423828125 25.458984375,38.759765625 24.7705078125,35.91796875 22.96875,34.072265625 20.44921875,33.076171875 17.607421875,32.783203125z M13.271484375,21.123046875L9.19921875,24.9755859375 5.302734375,29.091796875 4.10156297683716,30.615234375 3.07617235183716,32.2705078125 2.373046875,34.0576171875 2.109375,35.9765625 2.76855516433716,39.5947265625 4.453125,42.3486328125 6.8994140625,44.3408203125 9.814453125,45.64453125 12.9052734375,46.3623046875 15.87890625,46.58203125 18.017578125,46.40625 15.498046875,32.98828125 13.5498046875,33.8818359375 12.158203125,35.3759765625 11.3232421875,37.2509765625 11.044921875,39.287109375 11.0888671875,40.048828125 11.19140625,40.78125 9.111328125,38.96484375 8.408203125,36.357421875 8.90625,33.6328125 10.2685546875,31.2890625 12.2607421875,29.443359375 14.6484375,28.18359375 14.033203125,25.01953125 13.271484375,21.123046875z M15.791015625,4.51171875L14.3115234375,4.9072265625 13.4912109375,5.830078125 13.1396484375,6.8994140625 13.06640625,7.734375 13.4765625,11.748046875 14.208984375,15.41015625 16.1572265625,13.9013671875 17.548828125,12.0703125 18.3837890625,10.107421875 18.662109375,8.232421875 18.5302734375,6.9140625 18.076171875,5.712890625 17.197265625,4.8486328125 15.791015625,4.51171875z M15.322265625,0L17.8125,0.659179210662842 19.6142578125,2.34375 20.6982421875,4.62890672683716 21.064453125,7.08984375 20.5224609375,10.517578125 19.1162109375,13.798828125 17.16796875,16.8017578125 15,19.365234375 16.669921875,27.65625 17.197265625,27.626953125 17.6953125,27.626953125 19.892578125,27.850341796875 21.9140625,28.5205078125 25.25390625,30.8935546875 27.4365234375,34.2919921875 28.0187969207764,36.243896484375 28.212890625,38.26171875 27.7001953125,41.4697265625 26.2060546875,44.2822265625 23.818359375,46.5087890625 20.625,47.9296875 21.62109375,53.115234375 21.7236328125,53.8916015625 21.767578125,54.66796875 21.2255859375,57.5390625 19.7314453125,59.912109375 17.51953125,61.5380859375 14.82421875,62.138671875 12.24609375,61.7431640625 10.0048828125,60.6298828125 8.4228515625,58.857421875 7.822265625,56.484375 8.5400390625,54.2431640625 9.488525390625,53.448486328125 10.8984375,53.02734375 11.2060546875,52.9833984375 11.513671875,52.96875 13.0078125,53.3056640625 14.1650390625,54.19921875 14.8974609375,55.4443359375 15.146484375,56.865234375 14.6484375,58.740234375 13.06640625,60.146484375 13.857421875,60.3369140625 14.6484375,60.380859375 16.6552734375,59.9267578125 18.1640625,58.7109375 19.1162109375,56.9091796875 19.453125,54.66796875 19.3798828125,53.701171875 19.248046875,52.734375 18.3984375,48.33984375 16.318359375,48.544921875 10.5908203125,47.9296875 7.90283203125,47.0947265625 5.4931640625,45.8203125 3.416748046875,44.080810546875 1.72851610183716,41.8505859375 0.556640684604645,39.063720703125 0.029296875,35.654296875 2.38418579101563E-07,35.068359375 2.38418579101563E-07,34.482421875 0.190429717302322,31.754150390625 0.76171875,29.0771484375 1.75048828125,26.517333984375 3.19335985183716,24.140625 7.3828125,19.833984375 12.392578125,16.58203125 11.6455078125,12.744140625 11.1328125,10.0048828125 10.810546875,8.14453125 10.6201171875,6.943359375 10.5322265625,6.181640625 10.517578125,5.625 10.83984375,3.5009765625 11.77734375,1.71386766433716 13.2861328125,0.468749761581421 15.322265625,0z" />
    </g>
  </g>
</svg>