<?xml version="1.0" encoding="utf-8"?>
<!DOCTYPE svg PUBLIC "-//W3C//DTD SVG 1.1//EN" "http://www.w3.org/Graphics/SVG/1.1/DTD/svg11.dtd">
<svg width="13.76953125" height="13.505859375" xmlns="http://www.w3.org/2000/svg" xmlns:xlink="http://www.w3.org/1999/xlink" xmlns:xml="http://www.w3.org/XML/1998/namespace" version="1.1">
  <g>
    <g>
      <path style="fill:#FF0000;fill-opacity:1" d="M9.521484375,1.845703125L7.36083889007568,2.55615234375 4.74609375,4.6875 2.81249952316284,7.1044921875 2.16796875,9.08203125 2.900390625,10.751953125 4.51171875,11.455078125 6.5478515625,10.78125 9.0234375,8.759765625 11.1328125,6.18896484375 11.8359375,4.1015625 11.162109375,2.548828125 9.521484375,1.845703125z M7.763671875,0L10.345458984375,0.377197265625 12.2314453125,1.5087890625 13.385009765625,3.306884765625 13.76953125,5.68359375 13.18359375,8.5693359375 11.484375,10.986328125 9.0234375,12.802734375 6.005859375,13.505859375 3.42407202720642,13.128662109375 1.5380859375,11.9970703125 0.384521484375,10.198974609375 0,7.822265625 0.6298828125,4.9072265625 2.28515625,2.51953125 4.74609375,0.6884765625 7.763671875,0z" />
    </g>
  </g>
</svg>