<?xml version="1.0" encoding="utf-8"?>
<!DOCTYPE svg PUBLIC "-//W3C//DTD SVG 1.1//EN" "http://www.w3.org/Graphics/SVG/1.1/DTD/svg11.dtd">
<svg width="16.376953125" height="43.681640625" xmlns="http://www.w3.org/2000/svg" xmlns:xlink="http://www.w3.org/1999/xlink" xmlns:xml="http://www.w3.org/XML/1998/namespace" version="1.1">
  <g>
    <g>
      <path style="fill:#FF0000;fill-opacity:1" d="M0.439453363418579,0L6.416015625,2.138671875 6.4892578125,7.001953125 6.9580078125,12.4365234375 8.1591796875,17.87109375 10.4296875,22.705078125 10.107421875,15.205078125 10.1000967025757,11.8945322036743 10.13671875,8.994140625 10.400390625,3.193359375 16.376953125,5.33203125 15.73974609375,8.94287109375 15.17578125,12.978515625 14.732666015625,16.9775409698486 14.3408203125,21.650390625 14.066162109375,26.9384765625 13.974609375,32.783203125 14.1064453125,36.884765625 14.3994140625,40.1806640625 14.7216796875,42.509765625 14.94140625,43.681640625 10.60546875,43.623046875 6.796875,43.4765625 3.6474609375,43.2861328125 1.31835961341858,43.095703125 0,32.021484375 3.896484375,32.607421875 7.646484375,33.0029296875 11.66015625,33.1640625 11.044921875,29.0185546875 10.60546875,24.90234375 7.0458984375,21.298828125 4.3798828125,17.138671875 2.49023389816284,12.685546875 1.27441430091858,8.173828125 0.6298828125,3.8671875 0.439453363418579,0z" />
    </g>
  </g>
</svg>