<?xml version="1.0" encoding="utf-8"?>
<!DOCTYPE svg PUBLIC "-//W3C//DTD SVG 1.1//EN" "http://www.w3.org/Graphics/SVG/1.1/DTD/svg11.dtd">
<svg width="27.83203125" height="39.0234375" xmlns="http://www.w3.org/2000/svg" xmlns:xlink="http://www.w3.org/1999/xlink" xmlns:xml="http://www.w3.org/XML/1998/namespace" version="1.1">
  <g>
    <g>
      <path style="fill:#FF0000;fill-opacity:1" d="M7.08984375,26.279296875L10.2685546875,26.572265625 12.392578125,27.1875 13.916015625,28.095703125 13.916015625,39.0234375 13.564453125,38.73046875 12.3779296875,38.0859375 10.2685546875,37.4560546875 7.08984375,37.177734375 3.75000023841858,37.470703125 1.55273413658142,38.0859375 0,38.994140625 0,28.095703125 1.55273413658142,27.1875 3.75000023841858,26.572265625 7.08984375,26.279296875z M20.7421875,0L24.0673828125,0.29296875 26.25,0.908203125 27.83203125,1.81640625 27.83203125,26.279296875 13.916015625,26.279296875 13.916015625,15.3515625 25.400390625,15.3515625 25.400390625,12.7734375 24.052734375,11.8359375 22.3828125,11.19140625 20.0390625,10.8984375 17.3876953125,11.1767578125 15.46875,11.806640625 14.326171875,12.451171875 13.916015625,12.744140625 13.916015625,1.81640625 15.439453125,0.908203125 17.548828125,0.29296875 20.7421875,0z" />
    </g>
  </g>
</svg>