<?xml version="1.0" encoding="utf-8"?>
<!DOCTYPE svg PUBLIC "-//W3C//DTD SVG 1.1//EN" "http://www.w3.org/Graphics/SVG/1.1/DTD/svg11.dtd">
<svg width="30.87890625" height="15.41015625" xmlns="http://www.w3.org/2000/svg" xmlns:xlink="http://www.w3.org/1999/xlink" xmlns:xml="http://www.w3.org/XML/1998/namespace" version="1.1">
  <g>
    <g>
      <path style="fill:#FF0000;fill-opacity:1" d="M5.654296875,0L7.119140625,0.3076171875 8.2177734375,1.11328125 8.9208984375,2.28515625 9.169921875,3.69140625 8.8330078125,5.2001953125 7.939453125,6.3427734375 6.6943359375,7.0751953125 5.2734375,7.32421875 3.3984375,6.826171875 1.9921875,5.244140625 1.8017578125,6.03515625 1.7578125,6.826171875 2.032470703125,8.836669921875 2.8564453125,10.3564453125 4.27368116378784,11.312255859375 6.328125,11.630859375 7.708740234375,11.414794921875 8.9208984375,10.7666015625 11.0595703125,8.61328125 13.1396484375,5.8154296875 15.6005859375,3.017578125 18.8232421875,0.8642578125 20.841064453125,0.216064453125 23.232421875,0 26.1328125,0.5712890625 28.564453125,2.2119140625 30.2490234375,4.8486328125 30.87890625,8.408203125 30.4833984375,10.986328125 29.3701171875,13.2275390625 27.59765625,14.8095703125 25.224609375,15.41015625 23.759765625,15.1025390625 22.6611328125,14.296875 21.9580078125,13.125 21.708984375,11.71875 22.0458984375,10.224609375 22.9248046875,9.0673828125 24.169921875,8.3349609375 25.60546875,8.0859375 27.48046875,8.583984375 28.88671875,10.166015625 29.0771484375,9.375 29.12109375,8.583984375 28.8207988739014,6.573486328125 27.919921875,5.0537109375 26.4257793426514,4.097900390625 24.345703125,3.779296875 22.9797344207764,3.995361328125 21.7529296875,4.6435546875 19.4970703125,6.796875 17.2705078125,9.5947265625 14.7802734375,12.392578125 11.7333984375,14.5458984375 9.91332912445068,15.1940937042236 7.822265625,15.41015625 4.892578125,14.853515625 2.40234375,13.212890625 0.659179925918579,10.5615234375 0,7.001953125 0.3955078125,4.423828125 1.5087890625,2.1826171875 3.28125,0.6005859375 5.654296875,0z" />
    </g>
  </g>
</svg>