<?xml version="1.0" encoding="utf-8"?>
<!DOCTYPE svg PUBLIC "-//W3C//DTD SVG 1.1//EN" "http://www.w3.org/Graphics/SVG/1.1/DTD/svg11.dtd">
<svg width="29.8828125" height="26.279296875" xmlns="http://www.w3.org/2000/svg" xmlns:xlink="http://www.w3.org/1999/xlink" xmlns:xml="http://www.w3.org/XML/1998/namespace" version="1.1">
  <g>
    <g>
      <path style="fill:#FF0000;fill-opacity:1" d="M25.48828125,14.82421875L29.8828125,19.21875 25.48828125,23.583984375 21.123046875,19.21875 25.48828125,14.82421875z M19.921875,9.2578125L24.31640625,13.65234375 19.921875,18.017578125 15.556640625,13.65234375 19.921875,9.2578125z M6.826171875,0L10.1513671875,0.29296875 12.333984375,0.908203125 13.916015625,1.81640625 13.916015625,26.279296875 0,26.279296875 0,15.3515625 11.484375,15.3515625 11.484375,12.7734375 10.13671875,11.8359375 8.466796875,11.19140625 6.123046875,10.8984375 3.4716796875,11.1767578125 1.552734375,11.806640625 0.41015625,12.451171875 0,12.744140625 0,1.81640625 1.5234375,0.908203125 3.6328125,0.29296875 6.826171875,0z" />
    </g>
  </g>
</svg>