<?xml version="1.0" encoding="utf-8"?>
<!DOCTYPE svg PUBLIC "-//W3C//DTD SVG 1.1//EN" "http://www.w3.org/Graphics/SVG/1.1/DTD/svg11.dtd">
<svg width="11.8762197494507" height="39.31640625" xmlns="http://www.w3.org/2000/svg" xmlns:xlink="http://www.w3.org/1999/xlink" xmlns:xml="http://www.w3.org/XML/1998/namespace" version="1.1">
  <g>
    <g>
      <path style="fill:#FF0000;fill-opacity:1" d="M0.585937440395355,9.052734375L0.585937440395355,9.2578125 1.05468761920929,10.5322265625 2.2705078125,11.8505859375 3.98437476158142,13.3154296875 5.9619140625,15.0146484375 7.91015577316284,17.021484375 9.580078125,19.39453125 10.01953125,16.5966796875 9.825439453125,15.1684589385986 9.1845703125,13.7841796875 8.031005859375,12.4548358917236 6.298828125,11.19140625 3.85986328125,10.0415048599243 0.585937440395355,9.052734375z M0,0L0.585937440395355,0 0.585937440395355,0.791015625 1.27441382408142,2.548828125 3.046875,3.92578125 5.4345703125,5.21484375 7.9541015625,6.7236328125 10.166015625,8.759765625 11.6015625,11.5869140625 11.77734375,15.5126953125 11.2646484375,17.9772968292236 10.25390625,20.830078125 11.015625,24.2724609375 10.6494140625,28.4326171875 9.93896484375,30.81298828125 8.8330078125,33.4130859375 7.27661085128784,36.243896484375 5.21484375,39.31640625 4.42382764816284,38.671875 5.625,36.6943359375 6.826171875,34.1748046875 7.763671875,31.318359375 8.1884765625,28.271484375 7.86621141433716,25.1953125 6.56250047683716,22.2802734375 4.013671875,19.6728515625 2.20458984375,18.526611328125 0,17.51953125 0,0z" />
    </g>
  </g>
</svg>