<?xml version="1.0" encoding="utf-8"?>
<!DOCTYPE svg PUBLIC "-//W3C//DTD SVG 1.1//EN" "http://www.w3.org/Graphics/SVG/1.1/DTD/svg11.dtd">
<svg width="17.34375" height="42.71484375" xmlns="http://www.w3.org/2000/svg" xmlns:xlink="http://www.w3.org/1999/xlink" xmlns:xml="http://www.w3.org/XML/1998/namespace" version="1.1">
  <g>
    <g>
      <path style="fill:#FF0000;fill-opacity:1" d="M2.4609375,0L5.361328125,0.322265625 8.37890625,0.8056640625 11.923828125,1.58203125 11.71875,2.2705078125 11.2939453125,3.6181640625 10.7373046875,5.44921875 10.1220703125,7.6025390625 9.5361328125,9.90234375 9.052734375,12.158203125 10.5761709213257,12.3522968292236 12.509765625,12.6416015625 17.080078125,13.59375 16.959228515625,14.1101093292236 16.7138671875,15.1318359375 16.0546875,18.3251953125 15.4248046875,22.6171875 15.146484375,27.48046875 15.4833984375,32.7099609375 16.23046875,36.85546875 17.34375,40.576171875 11.953125,42.71484375 11.337890625,36.826171875 11.3781728744507,33.856201171875 11.6162109375,30.4541015625 12.1838369369507,26.693115234375 13.212890625,22.646484375 9.9609375,21.8408203125 7.412109375,21.38671875 5.15625,21.15234375 7.6171875,12.01171875 7.646484375,12.01171875 8.056640625,10.634765625 4.80468702316284,9.8291015625 2.255859375,9.375 0,9.140625 2.4609375,0z" />
    </g>
  </g>
</svg>