<?xml version="1.0" encoding="utf-8"?>
<!DOCTYPE svg PUBLIC "-//W3C//DTD SVG 1.1//EN" "http://www.w3.org/Graphics/SVG/1.1/DTD/svg11.dtd">
<svg width="70.400390625" height="43.65234375" xmlns="http://www.w3.org/2000/svg" xmlns:xlink="http://www.w3.org/1999/xlink" xmlns:xml="http://www.w3.org/XML/1998/namespace" version="1.1">
  <g>
    <g>
      <path style="fill:#FF0000;fill-opacity:1" d="M63.57421875,12.744140625L66.7529296875,13.037109375 68.876953125,13.65234375 70.400390625,14.560546875 70.400390625,25.48828125 70.048828125,25.1953125 68.8623046875,24.55078125 66.7529296875,23.9208984375 63.57421875,23.642578125 60.234375,23.935546875 58.037109375,24.55078125 56.484375,25.458984375 56.484375,14.560546875 58.037109375,13.65234375 60.234375,13.037109375 63.57421875,12.744140625z M49.39453125,0L52.7197265625,0.29296875 54.90234375,0.908203601837158 56.484375,1.81640672683716 56.484375,12.744140625 56.1328125,12.451171875 54.9169921875,11.806640625 52.7197265625,11.1767578125 49.39453125,10.8984375 46.845703125,11.220703125 45,11.77734375 45,43.65234375 43.623046875,43.65234375 40.39306640625,43.348388671875 36.85546875,42.4365234375 33.11279296875,41.011962890625 29.267578125,39.169921875 21.4453125,34.4384765625 13.974609375,28.8134765625 7.44140625,22.8662109375 4.69482421875,19.940185546875 2.431640625,17.16796875 2.431640625,43.65234375 0,43.65234375 0,1.64062547683716 0.937500238418579,1.64062547683716 2.083740234375,3.41674852371216 3.6474609375,5.52246141433716 7.79296875,10.3857421875 13.0224609375,15.7470703125 18.955078125,21.1669921875 25.224609375,26.19140625 31.494140625,30.3662109375 37.3974609375,33.22265625 40.103759765625,34.013671875 42.568359375,34.27734375 42.568359375,1.81640672683716 44.091796875,0.908203601837158 46.201171875,0.29296875 49.39453125,0z" />
    </g>
  </g>
</svg>