<?xml version="1.0" encoding="utf-8"?>
<!DOCTYPE svg PUBLIC "-//W3C//DTD SVG 1.1//EN" "http://www.w3.org/Graphics/SVG/1.1/DTD/svg11.dtd">
<svg width="23.0859375000002" height="34.51171875" xmlns="http://www.w3.org/2000/svg" xmlns:xlink="http://www.w3.org/1999/xlink" xmlns:xml="http://www.w3.org/XML/1998/namespace" version="1.1">
  <g>
    <g>
      <path style="fill:#FF0000;fill-opacity:1" d="M12.83203125,8.37890625L12.83203125,26.103515625 15.9375,25.1220703125 18.3544921875,23.1591796875 19.921875,20.4638671875 20.478515625,17.255859375 19.921875,14.0478515625 18.3544921875,11.3525390625 15.9375,9.3896484375 12.83203125,8.37890625z M10.25390625,8.37890625L7.119140625,9.3896484375 4.7021484375,11.3525390625 3.13476538658142,14.0478515625 2.57812523841858,17.255859375 3.13476538658142,20.4638671875 4.7021484375,23.1591796875 7.119140625,25.1220703125 10.25390625,26.103515625 10.25390625,8.37890625z M10.25390625,0L12.83203125,0 12.83203125,5.91796875 16.845703125,7.060546875 20.09765625,9.462890625 22.2802734375,12.9345703125 22.8845195770264,15.003662109375 23.0859375,17.255859375 22.8845195770264,19.508056640625 22.2802734375,21.5771484375 20.09765625,25.048828125 16.845703125,27.4658203125 12.83203125,28.59375 12.83203125,34.51171875 10.25390625,34.51171875 10.25390625,28.59375 6.240234375,27.4658203125 2.98828101158142,25.048828125 0.805663824081421,21.5771484375 0.201415807008743,19.508056640625 0,17.255859375 0.201415807008743,15.003662109375 0.805663824081421,12.9345703125 2.98828101158142,9.462890625 6.240234375,7.060546875 10.25390625,5.91796875 10.25390625,0z" />
    </g>
  </g>
</svg>