<?xml version="1.0" encoding="utf-8"?>
<!DOCTYPE svg PUBLIC "-//W3C//DTD SVG 1.1//EN" "http://www.w3.org/Graphics/SVG/1.1/DTD/svg11.dtd">
<svg width="23.0859375" height="22.79296875" xmlns="http://www.w3.org/2000/svg" xmlns:xlink="http://www.w3.org/1999/xlink" xmlns:xml="http://www.w3.org/XML/1998/namespace" version="1.1">
  <g>
    <g>
      <path style="fill:#FF0000;fill-opacity:1" d="M11.54296875,9.521484375L12.861328125,10.078125 13.41796875,11.396484375 12.861328125,12.71484375 11.54296875,13.271484375 10.2099609375,12.71484375 9.66796875,11.396484375 10.2099609375,10.0634765625 11.54296875,9.521484375z M11.54296875,2.431640625L7.91015625,3.134765625 5.0830078125,5.0537109375 3.2373046875,7.91015625 2.578125,11.396484375 3.2373046875,14.8828125 5.0830078125,17.724609375 7.91015625,19.62890625 11.54296875,20.33203125 15.146484375,19.62890625 17.9736328125,17.724609375 19.8193359375,14.8828125 20.478515625,11.396484375 19.8193359375,7.91015625 17.9736328125,5.0537109375 15.146484375,3.134765625 11.54296875,2.431640625z M11.54296875,0L13.846435546875,0.208740234375 16.0107421875,0.8349609375 19.6728515625,3.1787109375 22.1630859375,6.7822265625 22.8552227020264,8.983154296875 23.0859375,11.396484375 22.8552227020264,13.8098154067993 22.1630859375,16.0107421875 19.6728515625,19.6142578125 16.0107421875,21.9580078125 13.846435546875,22.584228515625 11.54296875,22.79296875 9.239501953125,22.584228515625 7.0751953125,21.9580078125 3.4130859375,19.6142578125 0.9228515625,16.0107421875 0.230712890625,13.8098154067993 0,11.396484375 0.230712890625,8.983154296875 0.9228515625,6.7822265625 3.4130859375,3.1787109375 7.0751953125,0.8349609375 9.239501953125,0.208740234375 11.54296875,0z" />
    </g>
  </g>
</svg>