<?xml version="1.0" encoding="utf-8"?>
<!DOCTYPE svg PUBLIC "-//W3C//DTD SVG 1.1//EN" "http://www.w3.org/Graphics/SVG/1.1/DTD/svg11.dtd">
<svg width="45" height="43.65234375" xmlns="http://www.w3.org/2000/svg" xmlns:xlink="http://www.w3.org/1999/xlink" xmlns:xml="http://www.w3.org/XML/1998/namespace" version="1.1">
  <g>
    <g>
      <path style="fill:#FF0000;fill-opacity:1" d="M38.173828125,0L41.3525390625,0.2490234375 43.4765625,0.8203125 45,1.640625 45,43.65234375 43.623046875,43.65234375 40.39306640625,43.348388671875 36.85546875,42.4365234375 33.11279296875,41.011962890625 29.267578125,39.169921875 21.4453125,34.4384765625 13.974609375,28.8134765625 7.44140625,22.8662109375 4.69482421875,19.940185546875 2.431640625,17.16796875 2.431640625,43.65234375 0,43.65234375 0,1.640625 0.937499761581421,1.640625 2.083740234375,3.416748046875 3.6474609375,5.5224609375 7.79296875,10.3857421875 13.0224609375,15.7470703125 18.955078125,21.1669921875 25.224609375,26.19140625 31.494140625,30.3662109375 37.3974609375,33.22265625 40.103759765625,34.013671875 42.568359375,34.27734375 42.568359375,11.77734375 40.72265625,11.220703125 38.173828125,10.8984375 34.833984375,11.1767578125 32.6513671875,11.806640625 31.46484375,12.451171875 31.083984375,12.744140625 31.083984375,1.640625 32.63671875,0.8203125 34.833984375,0.2490234375 38.173828125,0z" />
    </g>
  </g>
</svg>