<?xml version="1.0" encoding="utf-8"?>
<!DOCTYPE svg PUBLIC "-//W3C//DTD SVG 1.1//EN" "http://www.w3.org/Graphics/SVG/1.1/DTD/svg11.dtd">
<svg width="19.716796875" height="22.79296875" xmlns="http://www.w3.org/2000/svg" xmlns:xlink="http://www.w3.org/1999/xlink" xmlns:xml="http://www.w3.org/XML/1998/namespace" version="1.1">
  <g>
    <g>
      <path style="fill:#FF0000;fill-opacity:1" d="M11.54296875,0L13.868408203125,0.208740234375 16.0400390625,0.8349609375 19.716796875,3.22265625 17.958984375,4.98046875 15.1171875,3.10546875 11.54296875,2.431640625 7.91015625,3.134765625 5.0830078125,5.0537109375 3.23730492591858,7.91015625 2.57812523841858,11.396484375 3.23730492591858,14.8828125 5.0830078125,17.724609375 7.91015625,19.62890625 11.54296875,20.33203125 15.1171875,19.658203125 17.958984375,17.783203125 19.716796875,19.541015625 16.0400390625,21.943359375 13.868408203125,22.58056640625 11.54296875,22.79296875 9.239501953125,22.584228515625 7.0751953125,21.9580078125 3.41308617591858,19.6142578125 0.922851800918579,16.0107421875 0.230713099241257,13.8098154067993 0,11.396484375 0.230713099241257,8.983154296875 0.922851800918579,6.7822265625 3.41308617591858,3.1787109375 7.0751953125,0.8349609375 9.239501953125,0.208740234375 11.54296875,0z" />
    </g>
  </g>
</svg>