<?xml version="1.0" encoding="utf-8"?>
<!DOCTYPE svg PUBLIC "-//W3C//DTD SVG 1.1//EN" "http://www.w3.org/Graphics/SVG/1.1/DTD/svg11.dtd">
<svg width="26.42578125" height="16.552734375" xmlns="http://www.w3.org/2000/svg" xmlns:xlink="http://www.w3.org/1999/xlink" xmlns:xml="http://www.w3.org/XML/1998/namespace" version="1.1">
  <g>
    <g>
      <path style="fill:#FF0000;fill-opacity:1" d="M12.24609375,0L13.8134765625,0.2032470703125 15,0.81298828125 15.8056640625,1.8292236328125 16.23046875,3.251953125 17.5341796875,1.8292236328125 18.984375,0.81298828125 20.5810546875,0.2032470703125 22.32421875,0 24.1186504364014,0.2581787109375 25.4003887176514,1.03271484375 26.1694316864014,2.3236083984375 26.42578125,4.130859375 26.1328125,6.650390625 24.0234375,16.552734375 20.2734375,16.552734375 22.236328125,7.32421875 22.44140625,5.625 21.8554668426514,3.75732421875 20.09765625,3.134765625 18.71337890625,3.4423828125 17.431640625,4.365234375 16.41357421875,5.76416158676147 15.8203125,7.44140625 13.88671875,16.552734375 10.13671875,16.552734375 12.12890625,7.20703125 12.275390625,6.3427734375 12.333984375,5.595703125 11.7407217025757,3.75 9.9609375,3.134765625 8.5400390625,3.4423828125 7.294921875,4.3359375 6.3134765625,5.7275390625 5.68359375,7.55859375 3.75,16.552734375 0,16.552734375 3.427734375,0.498046875 7.119140625,0.498046875 6.591796875,2.900390625 6.650390625,2.900390625 9.17724609375,0.72509765625 12.24609375,0z" />
    </g>
  </g>
</svg>