<?xml version="1.0" encoding="utf-8"?>
<!DOCTYPE svg PUBLIC "-//W3C//DTD SVG 1.1//EN" "http://www.w3.org/Graphics/SVG/1.1/DTD/svg11.dtd">
<svg width="19.9036464691162" height="49.833984375" xmlns="http://www.w3.org/2000/svg" xmlns:xlink="http://www.w3.org/1999/xlink" xmlns:xml="http://www.w3.org/XML/1998/namespace" version="1.1">
  <g>
    <g>
      <path style="fill:#FF0000;fill-opacity:1" d="M8.759765625,36.03515625L3.72070336341858,41.07421875 8.759765625,46.11328125 13.798828125,41.07421875 8.759765625,36.03515625z M9.9609375,8.642578125L9.9609375,8.84765625 10.1513662338257,9.814453125 10.72265625,10.78125 12.626953125,12.919921875 15.087890625,15.556640625 17.490234375,18.984375 17.98828125,17.138671875 18.2080078125,15.2490234375 17.8271484375,13.3740234375 16.5380859375,11.6015625 14.0185546875,10.0048828125 12.2058095932007,9.290771484375 9.9609375,8.642578125z M7.529296875,0L9.9609375,0 9.9609375,0.380859613418579 10.5908203125,2.13867139816284 12.1875,3.51562452316284 14.3408203125,4.80468797683716 16.611328125,6.3134765625 18.544921875,8.349609375 19.7314453125,11.1767578125 19.74609375,15.1025390625 19.189453125,17.567138671875 18.1640625,20.419921875 18.4423828125,22.7197265625 18.193359375,24.9169921875 17.5634765625,26.9677734375 16.69921875,28.76953125 14.00390625,32.4609375 13.212890625,31.81640625 15.25634765625,29.033203125 16.40625,26.30859375 16.640625,23.935546875 15.8935546875,21.4892578125 13.7841796875,19.16015625 12.1179189682007,18.0908222198486 9.9609375,17.109375 9.9609375,33.515625 17.51953125,41.07421875 8.759765625,49.833984375 0,41.07421875 7.529296875,33.544921875 7.529296875,0z" />
    </g>
  </g>
</svg>