<?xml version="1.0" encoding="utf-8"?>
<!DOCTYPE svg PUBLIC "-//W3C//DTD SVG 1.1//EN" "http://www.w3.org/Graphics/SVG/1.1/DTD/svg11.dtd">
<svg width="19.716796875" height="34.51171875" xmlns="http://www.w3.org/2000/svg" xmlns:xlink="http://www.w3.org/1999/xlink" xmlns:xml="http://www.w3.org/XML/1998/namespace" version="1.1">
  <g>
    <g>
      <path style="fill:#FF0000;fill-opacity:1" d="M10.25390625,8.37890625L7.119140625,9.3896484375 4.7021484375,11.3525390625 3.134765625,14.0478515625 2.578125,17.255859375 3.134765625,20.4638671875 4.7021484375,23.1591796875 7.119140625,25.1220703125 10.25390625,26.103515625 10.25390625,8.37890625z M10.25390625,0L12.83203125,0 12.83203125,5.91796875 16.5966796875,6.943359375 19.716796875,9.08203125 17.958984375,10.83984375 15.6591796875,9.2138671875 12.83203125,8.37890625 12.83203125,26.103515625 15.6591796875,25.2685546875 17.958984375,23.642578125 19.716796875,25.400390625 16.5966796875,27.568359375 12.83203125,28.59375 12.83203125,34.51171875 10.25390625,34.51171875 10.25390625,28.59375 6.240234375,27.4658203125 2.98828172683716,25.048828125 0.8056640625,21.5771484375 0.201416015625,19.508056640625 0,17.255859375 0.201416015625,15.003662109375 0.8056640625,12.9345703125 2.98828172683716,9.462890625 6.240234375,7.060546875 10.25390625,5.91796875 10.25390625,0z" />
    </g>
  </g>
</svg>