<?xml version="1.0" encoding="utf-8"?>
<!DOCTYPE svg PUBLIC "-//W3C//DTD SVG 1.1//EN" "http://www.w3.org/Graphics/SVG/1.1/DTD/svg11.dtd">
<svg width="30.87890625" height="15.41015625" xmlns="http://www.w3.org/2000/svg" xmlns:xlink="http://www.w3.org/1999/xlink" xmlns:xml="http://www.w3.org/XML/1998/namespace" version="1.1">
  <g>
    <g>
      <path style="fill:#FF0000;fill-opacity:1" d="M7.822265625,0L9.89501857757568,0.216064453125 11.71875,0.8642578125 14.7802734375,3.017578125 17.2705078125,5.8154296875 19.4970703125,8.61328125 21.7529296875,10.7666015625 22.9797344207764,11.414794921875 24.345703125,11.630859375 26.4257793426514,11.312255859375 27.919921875,10.3564453125 28.8207988739014,8.836669921875 29.12109375,6.826171875 29.0771484375,6.03515625 28.88671875,5.244140625 27.48046875,6.826171875 25.60546875,7.32421875 24.169921875,7.0751953125 22.9248046875,6.3427734375 22.0458984375,5.2001953125 21.708984375,3.69140625 21.9580078125,2.28515625 22.6611328125,1.11328125 23.759765625,0.3076171875 25.224609375,0 27.59765625,0.6005859375 29.3701171875,2.1826171875 30.4833984375,4.423828125 30.87890625,7.001953125 30.2490234375,10.5615234375 28.564453125,13.212890625 26.1328125,14.853515625 23.232421875,15.41015625 20.841064453125,15.1940937042236 18.8232421875,14.5458984375 15.6005859375,12.392578125 13.1396484375,9.5947265625 11.0595703125,6.796875 8.9208984375,4.6435546875 7.708740234375,3.995361328125 6.328125,3.779296875 4.27368116378784,4.097900390625 2.8564453125,5.0537109375 2.032470703125,6.573486328125 1.7578125,8.583984375 1.8017578125,9.375 1.9921875,10.166015625 3.3984375,8.583984375 5.2734375,8.0859375 6.6943359375,8.3349609375 7.939453125,9.0673828125 8.8330078125,10.224609375 9.169921875,11.71875 8.9208984375,13.125 8.2177734375,14.296875 7.119140625,15.1025390625 5.654296875,15.41015625 3.28125,14.8095703125 1.5087890625,13.2275390625 0.3955078125,10.986328125 0,8.408203125 0.659179925918579,4.8486328125 2.40234375,2.2119140625 4.892578125,0.5712890625 7.822265625,0z" />
    </g>
  </g>
</svg>