<?xml version="1.0" encoding="utf-8"?>
<!DOCTYPE svg PUBLIC "-//W3C//DTD SVG 1.1//EN" "http://www.w3.org/Graphics/SVG/1.1/DTD/svg11.dtd">
<svg width="25.927734375" height="42.744140625" xmlns="http://www.w3.org/2000/svg" xmlns:xlink="http://www.w3.org/1999/xlink" xmlns:xml="http://www.w3.org/XML/1998/namespace" version="1.1">
  <g>
    <g>
      <path style="fill:#FF0000;fill-opacity:1" d="M13.798828125,9.638671875L13.798828125,14.70703125 18.75,12.1875 16.9775390625,10.9423828125 15.380859375,10.166015625 13.798828125,9.638671875z M10.78125,0L13.798828125,0 13.798828125,0.791015625 14.00390625,1.94091796875 14.619140625,2.98828125 16.669921875,5.0537109375 19.3212890625,7.44140625 21.943359375,10.576171875 25.078125,8.96484375 25.927734375,10.810546875 22.939453125,12.333984375 24.111328125,15.732421875 24.55078125,19.98046875 24.287109375,23.73046875 23.583984375,27.2900390625 22.587890625,30.5712890625 21.474609375,33.45703125 18.427734375,39.287109375 17.63671875,38.642578125 20.009765625,33.603515625 20.8740234375,30.99609375 21.6357421875,27.919921875 22.177734375,24.462890625 22.3828125,20.654296875 21.7529296875,16.669921875 20.185546875,13.740234375 13.798828125,16.962890625 13.798828125,33.544921875 13.2275390625,37.060546875 11.630859375,39.990234375 9.169921875,41.9970703125 6.005859375,42.744140625 3.42407202720642,42.366943359375 1.5380859375,41.2353515625 0.384521484375,39.437255859375 0,37.060546875 0.673828125,33.9990234375 2.5048828125,31.5380859375 5.185546875,29.8974609375 8.408203125,29.296875 10.78125,29.619140625 10.78125,18.515625 5.9765625,20.947265625 5.126953125,19.1015625 10.78125,16.23046875 10.78125,0z" />
    </g>
  </g>
</svg>