<?xml version="1.0" encoding="utf-8"?>
<!DOCTYPE svg PUBLIC "-//W3C//DTD SVG 1.1//EN" "http://www.w3.org/Graphics/SVG/1.1/DTD/svg11.dtd">
<svg width="20.302734375" height="20.0390625" xmlns="http://www.w3.org/2000/svg" xmlns:xlink="http://www.w3.org/1999/xlink" xmlns:xml="http://www.w3.org/XML/1998/namespace" version="1.1">
  <g>
    <g>
      <path style="fill:#FF0000;fill-opacity:1" d="M10.166015625,12.275390625L6.123046875,16.318359375 7.9833984375,17.138671875 10.13671875,17.431640625 12.3046875,17.138671875 14.1796875,16.318359375 10.166015625,12.275390625z M16.46484375,5.9765625L12.24609375,10.1953125 16.318359375,14.267578125 17.2412109375,12.2900390625 17.578125,9.990234375 17.28515625,7.8662109375 16.46484375,5.9765625z M3.837890625,5.91796875L2.98095703125,7.84423828125 2.6953125,9.990234375 3.0322265625,12.3046875 3.984375,14.326171875 8.115234375,10.1953125 3.837890625,5.91796875z M10.13671875,2.548828125L7.822265625,2.8857421875 5.859375,3.80859375 10.166015625,8.115234375 14.443359375,3.837890625 12.451171875,2.8857421875 10.13671875,2.548828125z M10.166015625,0L14.091796875,0.732421875 17.314453125,2.783203125 19.4970703125,5.947265625 20.101318359375,7.88818359375 20.302734375,10.01953125 20.101318359375,12.12890625 19.4970703125,14.0625 17.314453125,17.2412109375 14.091796875,19.306640625 10.166015625,20.0390625 6.240234375,19.306640625 3.0029296875,17.2412109375 0.8056640625,14.0625 0.201415926218033,12.12890625 0,10.01953125 0.201415926218033,7.88818359375 0.8056640625,5.947265625 3.0029296875,2.783203125 6.240234375,0.732421875 10.166015625,0z" />
    </g>
  </g>
</svg>