<?xml version="1.0" encoding="utf-8"?>
<!DOCTYPE svg PUBLIC "-//W3C//DTD SVG 1.1//EN" "http://www.w3.org/Graphics/SVG/1.1/DTD/svg11.dtd">
<svg width="42.01171875" height="42.01171875" xmlns="http://www.w3.org/2000/svg" xmlns:xlink="http://www.w3.org/1999/xlink" xmlns:xml="http://www.w3.org/XML/1998/namespace" version="1.1">
  <g>
    <g>
      <path style="fill:#FF0000;fill-opacity:1" d="M15.8203125,15.8203125L15.8203125,26.19140625 26.19140625,26.19140625 26.19140625,15.8203125 15.8203125,15.8203125z M10.8984375,0L15.8203125,0 15.8203125,10.8984375 26.19140625,10.8984375 26.19140625,0 31.11328125,0 31.11328125,10.8984375 42.01171875,10.8984375 42.01171875,15.8203125 31.11328125,15.8203125 31.11328125,26.19140625 42.01171875,26.19140625 42.01171875,31.11328125 31.11328125,31.11328125 31.11328125,42.01171875 26.19140625,42.01171875 26.19140625,31.11328125 15.8203125,31.11328125 15.8203125,42.01171875 10.8984375,42.01171875 10.8984375,31.11328125 0,31.11328125 0,26.19140625 10.8984375,26.19140625 10.8984375,15.8203125 0,15.8203125 0,10.8984375 10.8984375,10.8984375 10.8984375,0z" />
    </g>
  </g>
</svg>