<?xml version="1.0" encoding="utf-8"?>
<!DOCTYPE svg PUBLIC "-//W3C//DTD SVG 1.1//EN" "http://www.w3.org/Graphics/SVG/1.1/DTD/svg11.dtd">
<svg width="29.58984375" height="43.41796875" xmlns="http://www.w3.org/2000/svg" xmlns:xlink="http://www.w3.org/1999/xlink" xmlns:xml="http://www.w3.org/XML/1998/namespace" version="1.1">
  <g>
    <g>
      <path style="fill:#FF0000;fill-opacity:1" d="M9.345703125,0L13.546142578125,0.406494140625 17.4169921875,1.6259765625 20.8740234375,3.5888671875 23.8330078125,6.2255859375 26.2463359832764,9.4921875 28.06640625,13.3447265625 29.208984375,17.7063007354736 29.58984375,22.5 29.256591796875,26.956787109375 28.2568359375,31.0107421875 26.6491680145264,34.588623046875 24.4921875,37.6171875 21.8078594207764,40.0634765625 18.6181640625,41.89453125 14.981689453125,43.037109375 10.95703125,43.41796875 4.93652296066284,42.802734375 0,40.95703125 0,36.181640625 4.70947217941284,38.291015625 10.224609375,38.994140625 13.253173828125,38.697509765625 16.0107421875,37.8076171875 18.446044921875,36.3720703125 20.5078125,34.4384765625 22.1704082489014,32.025146484375 23.408203125,29.150390625 24.1772441864014,25.86181640625 24.43359375,22.20703125 24.1552715301514,18.3544940948486 23.3203125,14.8828125 21.9873027801514,11.8432636260986 20.21484375,9.287109375 18.021240234375,7.236328125 15.4248046875,5.712890625 12.491455078125,4.76806640625 9.287109375,4.453125 4.44580030441284,5.0830078125 0,6.97265625 0,1.728515625 4.19677686691284,0.43212890625 9.345703125,0z" />
    </g>
  </g>
</svg>