<?xml version="1.0" encoding="utf-8"?>
<!DOCTYPE svg PUBLIC "-//W3C//DTD SVG 1.1//EN" "http://www.w3.org/Graphics/SVG/1.1/DTD/svg11.dtd">
<svg width="36.2109375" height="43.41796875" xmlns="http://www.w3.org/2000/svg" xmlns:xlink="http://www.w3.org/1999/xlink" xmlns:xml="http://www.w3.org/XML/1998/namespace" version="1.1">
  <g>
    <g>
      <path style="fill:#FF0000;fill-opacity:1" d="M15.64453125,4.453125L13.38134765625,5.22216796875 11.337890625,6.474609375 9.54345607757568,8.162841796875 8.02734375,10.2392578125 5.9033203125,15.439453125 5.15625,21.767578125 5.9033203125,28.154296875 8.0126953125,33.3837890625 9.52148342132568,35.452880859375 11.3232421875,37.119140625 13.377685546875,38.3349609375 15.64453125,39.052734375 15.64453125,4.453125z M20.56640625,4.365234375L20.56640625,39.052734375 22.8955059051514,38.349609375 24.9609375,37.177734375 26.7517070770264,35.57373046875 28.2568359375,33.57421875 29.4580078125,31.1865234375 30.3369140625,28.41796875 31.0546875,21.85546875 30.3515625,15.1171875 29.4873046875,12.2717304229736 28.30078125,9.8291015625 26.8029766082764,7.80029296875 25.0048828125,6.1962890625 22.9211406707764,5.042724609375 20.56640625,4.365234375z M18.57421875,0L22.3535137176514,0.38818359375 25.78125,1.552734375 28.798828125,3.416748046875 31.34765625,5.9033203125 33.402099609375,8.975830078125 34.9365234375,12.59765625 35.892333984375,16.6918964385986 36.2109375,21.181640625 35.888671875,26.033935546875 34.921875,30.3955078125 33.358154296875,34.2041015625 31.2451171875,37.3974609375 28.612060546875,39.95361328125 25.48828125,41.8505859375 21.9213848114014,43.026123046875 17.958984375,43.41796875 14.0771484375,43.02978515625 10.576171875,41.865234375 7.503662109375,39.99755859375 4.9072265625,37.5 2.81982421875,34.41650390625 1.27441453933716,30.791015625 0.318603575229645,26.69677734375 0,22.20703125 0.322265625,17.4023456573486 1.2890625,13.06640625 2.860107421875,9.26513671875 4.9951171875,6.064453125 7.664794921875,3.49365234375 10.83984375,1.58203125 14.4873046875,0.3955078125 18.57421875,0z" />
    </g>
  </g>
</svg>