<?xml version="1.0" encoding="utf-8"?>
<!DOCTYPE svg PUBLIC "-//W3C//DTD SVG 1.1//EN" "http://www.w3.org/Graphics/SVG/1.1/DTD/svg11.dtd">
<svg width="24.43359375" height="32.138671875" xmlns="http://www.w3.org/2000/svg" xmlns:xlink="http://www.w3.org/1999/xlink" xmlns:xml="http://www.w3.org/XML/1998/namespace" version="1.1">
  <g>
    <g>
      <path style="fill:#FF0000;fill-opacity:1" d="M16.728515625,3.779296875L15.816650390625,3.98437643051147 15.1318359375,4.599609375 14.560546875,6.884765625 14.560546875,13.30078125 16.81640625,12.83203125 18.4130859375,11.6748046875 19.3505859375,9.990234375 19.658203125,7.96875 18.9404296875,4.951171875 18.028564453125,4.07226705551147 16.728515625,3.779296875z M16.494140625,0L19.6728515625,0.5126953125 22.177734375,2.05078125 23.8330078125,4.5849609375 24.43359375,8.056640625 23.73046875,11.4990234375 21.73828125,14.35546875 18.6181640625,16.3037109375 14.560546875,17.05078125 14.560546875,32.138671875 9.78515625,32.138671875 9.78515625,17.05078125 9.755859375,17.05078125 5.537109375,16.4208984375 2.490234375,14.6484375 0.629883170127869,11.9091796875 0,8.37890625 0.203247085213661,6.05896091461182 0.812988340854645,3.96240377426147 1.8292236328125,2.08923435211182 3.251953125,0.439453125 8.73046875,0.439453125 6.826171875,2.28515625 5.6103515625,4.248046875 4.9658203125,6.240234375 4.775390625,8.173828125 5.0537109375,10.224609375 5.91796875,11.8359375 7.4560546875,12.9052734375 9.78515625,13.30078125 9.78515625,7.1484375 10.13671875,4.5263671875 11.2939453125,2.2412109375 13.3740234375,0.615234375 16.494140625,0z" />
    </g>
  </g>
</svg>