<?xml version="1.0" encoding="utf-8"?>
<!DOCTYPE svg PUBLIC "-//W3C//DTD SVG 1.1//EN" "http://www.w3.org/Graphics/SVG/1.1/DTD/svg11.dtd">
<svg width="22.939453125" height="32.75390625" xmlns="http://www.w3.org/2000/svg" xmlns:xlink="http://www.w3.org/1999/xlink" xmlns:xml="http://www.w3.org/XML/1998/namespace" version="1.1">
  <g>
    <g>
      <path style="fill:#FF0000;fill-opacity:1" d="M7.44140625,0L10.6567373275757,0.307617902755737 13.623046875,1.23046875 16.270751953125,2.71362447738647 18.5302734375,4.7021484375 20.372314453125,7.15942525863647 21.767578125,10.048828125 22.6464824676514,13.32275390625 22.939453125,16.93359375 22.6831035614014,20.299072265625 21.9140625,23.3642578125 20.67626953125,26.07421875 19.013671875,28.3740234375 16.9482421875,30.230712890625 14.501953125,31.611328125 11.7187490463257,32.46826171875 8.642578125,32.75390625 4.00634765625,32.2412109375 0,30.703125 0,26.162109375 3.984375,28.095703125 8.0859375,28.740234375 10.1916494369507,28.52783203125 12.1142578125,27.890625 15.2490234375,25.48828125 17.2705078125,21.708984375 17.98828125,16.7578125 17.794189453125,13.992919921875 17.2119140625,11.4990234375 15.0439453125,7.4853515625 11.7041015625,4.921875 9.65698146820068,4.24072408676147 7.412109375,4.013671875 3.80126953125,4.59961080551147 0,6.357421875 0,1.46484375 3.4130859375,0.366211652755737 7.44140625,0z" />
    </g>
  </g>
</svg>