<?xml version="1.0" encoding="utf-8"?>
<!DOCTYPE svg PUBLIC "-//W3C//DTD SVG 1.1//EN" "http://www.w3.org/Graphics/SVG/1.1/DTD/svg11.dtd">
<svg width="24.43359375" height="31.69921875" xmlns="http://www.w3.org/2000/svg" xmlns:xlink="http://www.w3.org/1999/xlink" xmlns:xml="http://www.w3.org/XML/1998/namespace" version="1.1">
  <g>
    <g>
      <path style="fill:#FF0000;fill-opacity:1" d="M7.705078125,9.140625L6.405029296875,9.43359375 5.4931640625,10.3125 4.775390625,13.330078125 5.0830078125,15.3515625 6.0205078125,17.0361328125 7.6171875,18.193359375 9.873046875,18.662109375 9.873046875,12.24609375 9.3017578125,9.9609375 8.616943359375,9.345703125 7.705078125,9.140625z M9.873046875,0L14.6484375,0 14.6484375,18.662109375 16.962890625,18.2666015625 18.515625,17.197265625 19.3798828125,15.5859375 19.658203125,13.53515625 19.4970703125,11.6015625 18.9697265625,9.609375 17.9736328125,7.646484375 16.435546875,5.80078125 21.591796875,5.80078125 22.8808574676514,7.48901510238647 23.759765625,9.3310546875 24.43359375,13.740234375 23.8037109375,17.2705078125 21.943359375,20.009765625 18.896484375,21.7822265625 14.677734375,22.412109375 14.677734375,31.69921875 9.873046875,31.69921875 9.873046875,22.412109375 5.80078125,21.6650390625 2.69531273841858,19.716796875 0.703125238418579,16.8603515625 0,13.41796875 0.600586414337158,9.9462890625 2.25585961341858,7.412109375 4.7607421875,5.8740234375 7.939453125,5.361328125 9.873046875,5.595703125 9.873046875,0z" />
    </g>
  </g>
</svg>