<?xml version="1.0" encoding="utf-8"?>
<!DOCTYPE svg PUBLIC "-//W3C//DTD SVG 1.1//EN" "http://www.w3.org/Graphics/SVG/1.1/DTD/svg11.dtd">
<svg width="20.537109375" height="32.75390625" xmlns="http://www.w3.org/2000/svg" xmlns:xlink="http://www.w3.org/1999/xlink" xmlns:xml="http://www.w3.org/XML/1998/namespace" version="1.1">
  <g>
    <g>
      <path style="fill:#FF0000;fill-opacity:1" d="M11.103515625,0L15.498046875,0.4833984375 19.541015625,2.021484375 19.541015625,6.73828125 17.362060546875,5.44922018051147 15.2783203125,4.5703125 11.396484375,3.896484375 9.180908203125,4.21875143051147 7.5146484375,5.185546875 6.470947265625,6.70166158676147 6.123046875,8.671875 6.55517578125,10.927734375 7.8515625,12.59765625 9.93896389007568,13.63037109375 12.744140625,13.974609375 16.259765625,13.974609375 16.259765625,17.724609375 12.509765625,17.724609375 9.228515625,18.0743408203125 6.884765625,19.12353515625 5.478515625,20.8721923828125 5.009765625,23.3203125 5.4931640625,25.634765625 6.85546875,27.392578125 8.96484375,28.5205078125 11.71875,28.916015625 14.483642578125,28.714599609375 16.8603515625,28.1103515625 20.537109375,26.19140625 20.537109375,30.703125 16.5380859375,32.2412109375 11.455078125,32.75390625 6.5625,32.11669921875 2.958984375,30.205078125 0.73974609375,27.13623046875 0,23.02734375 0.424804449081421,20.537109375 1.640625,18.33984375 3.544921875,16.5966796875 6.03515625,15.46875 3.91479444503784,14.208984375 2.3583984375,12.48046875 1.40258777141571,10.4150390625 1.083984375,8.14453125 1.7724609375,4.7607421875 3.76464891433716,2.197265625 6.9140625,0.5712890625 11.103515625,0z" />
    </g>
  </g>
</svg>