<?xml version="1.0" encoding="utf-8"?>
<!DOCTYPE svg PUBLIC "-//W3C//DTD SVG 1.1//EN" "http://www.w3.org/Graphics/SVG/1.1/DTD/svg11.dtd">
<svg width="24.609375" height="32.724609375" xmlns="http://www.w3.org/2000/svg" xmlns:xlink="http://www.w3.org/1999/xlink" xmlns:xml="http://www.w3.org/XML/1998/namespace" version="1.1">
  <g>
    <g>
      <path style="fill:#FF0000;fill-opacity:1" d="M12.099609375,13.828125L9.0087890625,14.3701171875 6.7822265625,15.8935546875 5.419921875,18.251953125 4.951171875,21.298828125 5.44921875,24.375 6.884765625,26.71875 9.169921875,28.1982421875 12.216796875,28.7109375 15.1904296875,28.1396484375 17.4609375,26.54296875 18.9111328125,24.08203125 19.423828125,20.888671875 18.8818359375,18.076171875 17.373046875,15.849609375 15.05859375,14.3701171875 12.099609375,13.828125z M10.8984375,0L13.79150390625,0.249024152755737 16.435546875,0.99609375 18.779296875,2.26318502426147 20.771484375,4.072265625 22.3864727020264,6.43432760238647 23.5986328125,9.3603515625 24.3566875457764,12.872314453125 24.609375,16.9921875 24.4006328582764,20.811767578125 23.7744140625,24.0673828125 22.7526836395264,26.77734375 21.357421875,28.9599609375 19.599609375,30.6298828125 17.490234375,31.8017578125 15.0439453125,32.493896484375 12.275390625,32.724609375 9.39330959320068,32.501220703125 6.8994140625,31.8310546875 4.7900390625,30.76904296875 3.06152367591858,29.3701171875 1.71752953529358,27.66357421875 0.761718988418579,25.6787109375 0.190429896116257,23.477783203125 0,21.123046875 0.197754144668579,18.665771484375 0.791016101837158,16.4501953125 3.06152367591858,12.890625 6.650390625,10.6201171875 8.88427734375,10.015869140625 11.3671875,9.814453125 13.64501953125,10.01220703125 15.791015625,10.60546875 17.724609375,11.6015625 19.365234375,13.0078125 18.2958984375,8.935546875 16.46484375,6.123046875 13.9892578125,4.482421875 10.986328125,3.955078125 8.525390625,4.189453125 6.181640625,4.775390625 4.1162109375,5.537109375 2.46093773841858,6.328125 2.46093773841858,1.69921875 5.830078125,0.5126953125 8.12255859375,0.128173828125 10.8984375,0z" />
    </g>
  </g>
</svg>