<?xml version="1.0" encoding="utf-8"?>
<!DOCTYPE svg PUBLIC "-//W3C//DTD SVG 1.1//EN" "http://www.w3.org/Graphics/SVG/1.1/DTD/svg11.dtd">
<svg width="29.5898437500001" height="43.41796875" xmlns="http://www.w3.org/2000/svg" xmlns:xlink="http://www.w3.org/1999/xlink" xmlns:xml="http://www.w3.org/XML/1998/namespace" version="1.1">
  <g>
    <g>
      <path style="fill:#FF0000;fill-opacity:1" d="M20.244140625,0L25.3930644989014,0.43212890625 29.58984375,1.728515625 29.58984375,6.97265625 25.1440410614014,5.0830078125 20.302734375,4.453125 17.098388671875,4.76806640625 14.1650390625,5.712890625 11.5686025619507,7.236328125 9.375,9.287109375 7.6025390625,11.8432636260986 6.26953125,14.8828125 5.43456983566284,18.3544940948486 5.15625,22.20703125 5.41259717941284,25.86181640625 6.181640625,29.150390625 7.41943359375,32.025146484375 9.08203125,34.4384765625 11.1437978744507,36.3720703125 13.5791015625,37.8076171875 16.336669921875,38.697509765625 19.365234375,38.994140625 24.8803691864014,38.291015625 29.58984375,36.181640625 29.58984375,40.95703125 24.6533184051514,42.802734375 18.6328125,43.41796875 14.608154296875,43.037109375 10.9716796875,41.89453125 7.781982421875,40.0634765625 5.09765625,37.6171875 2.94067358970642,34.588623046875 1.33300805091858,31.0107421875 0.333251804113388,26.956787109375 0,22.5 0.380859166383743,17.7063007354736 1.52343726158142,13.3447265625 3.34350562095642,9.4921875 5.7568359375,6.2255859375 8.7158203125,3.5888671875 12.1728515625,1.6259765625 16.043701171875,0.406494140625 20.244140625,0z" />
    </g>
  </g>
</svg>