<?xml version="1.0" encoding="utf-8"?>
<!DOCTYPE svg PUBLIC "-//W3C//DTD SVG 1.1//EN" "http://www.w3.org/Graphics/SVG/1.1/DTD/svg11.dtd">
<svg width="19.921875" height="32.75390625" xmlns="http://www.w3.org/2000/svg" xmlns:xlink="http://www.w3.org/1999/xlink" xmlns:xml="http://www.w3.org/XML/1998/namespace" version="1.1">
  <g>
    <g>
      <path style="fill:#FF0000;fill-opacity:1" d="M11.3671875,0L15.52734375,0.336914777755737 18.6328125,1.34765625 18.6328125,6.474609375 14.94140625,4.62890625 10.986328125,4.013671875 8.8330078125,4.248046875 6.8994140625,4.9951171875 5.5078125,6.328125 4.98046875,8.3203125 5.4052734375,10.2392578125 6.650390625,11.7333984375 8.6572265625,13.0517578125 11.396484375,14.443359375 14.6484375,16.23046875 17.373046875,18.310546875 19.2333984375,20.859375 19.921875,24.0234375 19.683837890625,26.24267578125 18.9697265625,28.095703125 16.4208984375,30.791015625 12.7294921875,32.28515625 8.3203125,32.75390625 6.4013671875,32.6220703125 4.072265625,32.2265625 1.787109375,31.58203125 0,30.732421875 0,25.1953125 2.0947265625,26.6748046875 4.4677734375,27.7880859375 6.826171875,28.4912109375 8.90625,28.740234375 11.5869131088257,28.45458984375 13.4765625,27.59765625 14.59716796875,26.19873046875 14.970703125,24.287109375 14.501953125,22.32421875 13.18359375,20.771484375 11.1767578125,19.4384765625 8.671875,18.10546875 8.3642578125,17.958984375 8.02734375,17.8125 4.892578125,16.0986328125 2.34375,14.1796875 0.64453125,11.7919921875 0.029296875,8.671875 0.274658232927322,6.59179830551147 1.01074242591858,4.8046875 3.5888671875,2.0947265625 7.2216796875,0.5126953125 11.3671875,0z" />
    </g>
  </g>
</svg>