<?xml version="1.0" encoding="utf-8"?>
<!DOCTYPE svg PUBLIC "-//W3C//DTD SVG 1.1//EN" "http://www.w3.org/Graphics/SVG/1.1/DTD/svg11.dtd">
<svg width="33.80859375" height="42.01171875" xmlns="http://www.w3.org/2000/svg" xmlns:xlink="http://www.w3.org/1999/xlink" xmlns:xml="http://www.w3.org/XML/1998/namespace" version="1.1">
  <g>
    <g>
      <path style="fill:#FF0000;fill-opacity:1" d="M22.6171875,4.453125L18.7152099609375,4.7296142578125 15.27099609375,5.55908203125 12.2845458984375,6.9415283203125 9.755859375,8.876953125 7.7435302734375,11.3195810317993 6.30615234375,14.2236347198486 5.4437255859375,17.5891132354736 5.15625,21.416015625 5.42449951171875,25.1994323730469 6.229248046875,28.4783935546875 7.57049560546875,31.2528991699219 9.4482421875,33.52294921875 11.8624877929688,35.2885437011719 14.813232421875,36.5496826171875 18.3004760742188,37.3063659667969 22.32421875,37.55859375 28.88671875,37.55859375 28.88671875,4.453125 22.6171875,4.453125z M22.67578125,0L33.80859375,0 33.80859375,42.01171875 22.20703125,42.01171875 17.0022583007813,41.6917419433594 12.491455078125,40.7318115234375 8.67462158203125,39.1319274902344 5.5517578125,36.89208984375 3.12286376953125,34.0122985839844 1.387939453125,30.4925537109375 0.34698486328125,26.3328552246094 0,21.533203125 0.38543701171875,16.9088745117188 1.541748046875,12.7624521255493 3.46893310546875,9.09393310546875 6.1669921875,5.9033203125 9.51141357421875,3.32061767578125 13.377685546875,1.475830078125 17.7658081054688,0.36895751953125 22.67578125,0z" />
    </g>
  </g>
</svg>