<?xml version="1.0" encoding="utf-8"?>
<!DOCTYPE svg PUBLIC "-//W3C//DTD SVG 1.1//EN" "http://www.w3.org/Graphics/SVG/1.1/DTD/svg11.dtd">
<svg width="35.21484375" height="44.033203125" xmlns="http://www.w3.org/2000/svg" xmlns:xlink="http://www.w3.org/1999/xlink" xmlns:xml="http://www.w3.org/XML/1998/namespace" version="1.1">
  <g>
    <g>
      <path style="fill:#FF0000;fill-opacity:1" d="M9.638671875,0L15.234375,0 21.03515625,10.25390625 21.6650390625,11.42578125 22.294921875,12.59765625 22.412109375,12.59765625 29.912109375,0 35.21484375,0 25.13671875,15.17578125 35.0390625,30 29.443359375,30 23.5546875,20.2734375 22.236328125,17.98828125 22.119140625,17.98828125 21.708984375,18.69140625 20.7421875,20.2734375 10.751953125,36.328125 8.5400390625,39.814453125 6.708984375,42.216796875 4.8779296875,43.59375 2.6953125,44.033203125 0,43.76953125 0,39.19921875 2.28515625,39.66796875 3.2958984375,39.521484375 4.1748046875,38.8916015625 5.244140625,37.4853515625 6.826171875,35.0390625 19.423828125,15.29296875 9.638671875,0z" />
    </g>
  </g>
</svg>