<?xml version="1.0" encoding="utf-8"?>
<!DOCTYPE svg PUBLIC "-//W3C//DTD SVG 1.1//EN" "http://www.w3.org/Graphics/SVG/1.1/DTD/svg11.dtd">
<svg width="35.91796875" height="30.673828125" xmlns="http://www.w3.org/2000/svg" xmlns:xlink="http://www.w3.org/1999/xlink" xmlns:xml="http://www.w3.org/XML/1998/namespace" version="1.1">
  <g>
    <g>
      <path style="fill:#FF0000;fill-opacity:1" d="M26.3671875,13.271484375L24.0344219207764,13.743896484375 22.4853515625,15.1611328125 21.617431640625,17.537841796875 21.328125,20.888671875 21.61376953125,23.990478515625 22.470703125,26.2060546875 23.9941387176514,27.535400390625 26.279296875,27.978515625 28.5351543426514,27.53173828125 30.029296875,26.19140625 30.8642578125,23.935546875 31.142578125,20.7421875 30.867919921875,17.464599609375 30.0439453125,15.1318359375 28.5754375457764,13.736572265625 26.3671875,13.271484375z M0,0L3.837890625,0 5.06103467941284,1.36230611801147 6.4453125,2.16796875 9.814453125,2.6953125 11.982421875,2.4609375 13.9892578125,1.845703125 15.5859375,0.9814453125 16.5234375,0 21.328125,0 21.328125,11.630859375 23.7158184051514,10.83984375 26.6015625,10.576171875 30.677490234375,11.19873046875 33.5888671875,13.06640625 35.335693359375,16.17919921875 35.91796875,20.537109375 35.26611328125,24.9169921875 33.310546875,28.095703125 30.15380859375,30.029296875 25.8984375,30.673828125 22.060546875,30.1025390625 19.1015625,28.4326171875 17.197265625,25.693359375 16.5234375,21.884765625 16.5234375,4.5703125 13.564453125,5.7861328125 9.873046875,6.240234375 6.09375,5.7861328125 3.22265625,4.51171875 3.22265625,10.72265625 0,10.72265625 0,0z" />
    </g>
  </g>
</svg>