<?xml version="1.0" encoding="utf-8"?>
<!DOCTYPE svg PUBLIC "-//W3C//DTD SVG 1.1//EN" "http://www.w3.org/Graphics/SVG/1.1/DTD/svg11.dtd">
<svg width="40.078125" height="31.40625" xmlns="http://www.w3.org/2000/svg" xmlns:xlink="http://www.w3.org/1999/xlink" xmlns:xml="http://www.w3.org/XML/1998/namespace" version="1.1">
  <g>
    <g>
      <path style="fill:#FF0000;fill-opacity:1" d="M27.65625,4.04296875L24.4921875,4.6875 21.884765625,6.4892578125 19.9951171875,9.2724609375 18.955078125,12.83203125 35.15625,12.83203125 34.6435546875,9.114990234375 33.1640625,6.3427734375 30.8056640625,4.61792135238647 27.65625,4.04296875z M27.744140625,0L30.538330078125,0.245362758636475 33.0029296875,0.9814453125 35.11962890625,2.18261861801147 36.8701171875,3.8232421875 38.250732421875,5.88501119613647 39.2578125,8.349609375 39.873046875,11.19140625 40.078125,14.384765625 40.078125,16.904296875 18.896484375,16.904296875 19.625244140625,21.361083984375 21.5771484375,24.6533203125 24.6350078582764,26.685791015625 28.681640625,27.36328125 31.153564453125,27.154541015625 33.5302734375,26.5283203125 35.811767578125,25.484619140625 37.998046875,24.0234375 37.998046875,28.53515625 33.39111328125,30.6884765625 27.5390625,31.40625 24.6386699676514,31.16455078125 22.03125,30.439453125 19.7460918426514,29.249267578125 17.8125,27.6123046875 16.2451171875,25.543212890625 15.05859375,23.056640625 14.2822265625,20.1708984375 13.9453125,16.904296875 4.8046875,16.904296875 4.8046875,30.703125 0,30.703125 0,0.703125 4.8046875,0.703125 4.8046875,12.83203125 14.12109375,12.83203125 14.7509765625,10.08544921875 15.76171875,7.587890625 18.7646484375,3.5302734375 20.6872539520264,2.03613424301147 22.8515625,0.9228515625 25.2172832489014,0.230714321136475 27.744140625,0z" />
    </g>
  </g>
</svg>