<?xml version="1.0" encoding="utf-8"?>
<!DOCTYPE svg PUBLIC "-//W3C//DTD SVG 1.1//EN" "http://www.w3.org/Graphics/SVG/1.1/DTD/svg11.dtd">
<svg width="30.46875" height="31.40625" xmlns="http://www.w3.org/2000/svg" xmlns:xlink="http://www.w3.org/1999/xlink" xmlns:xml="http://www.w3.org/XML/1998/namespace" version="1.1">
  <g>
    <g>
      <path style="fill:#FF0000;fill-opacity:1" d="M15.99609375,4.04296875L12.83203125,4.6875 10.224609375,6.4892578125 8.3349609375,9.2724609375 7.294921875,12.83203125 23.49609375,12.83203125 22.9833965301514,9.114990234375 21.50390625,6.3427734375 19.1455078125,4.61792135238647 15.99609375,4.04296875z M16.083984375,0L18.878173828125,0.245362758636475 21.3427734375,0.9814453125 23.4594707489014,2.18261861801147 25.2099609375,3.8232421875 26.5905742645264,5.88501119613647 27.59765625,8.349609375 28.2128887176514,11.19140625 28.41796875,14.384765625 28.41796875,16.904296875 7.236328125,16.904296875 7.412109375,18.984375 30.46875,18.984375 30.46875,22.763671875 8.583984375,22.763671875 10.01953125,24.74853515625 11.923828125,26.19140625 14.2675771713257,27.0703125 17.021484375,27.36328125 19.493408203125,27.154541015625 21.8701171875,26.5283203125 24.151611328125,25.484619140625 26.337890625,24.0234375 26.337890625,28.53515625 21.73095703125,30.6884765625 15.87890625,31.40625 11.539306640625,30.849609375 7.9541015625,29.1796875 5.189208984375,26.46240234375 3.310546875,22.763671875 0,22.763671875 0,18.984375 2.43164086341858,18.984375 2.25585913658142,15.8203125 2.523193359375,12.476806640625 3.3251953125,9.4189453125 4.59228515625,6.70898580551147 6.2548828125,4.4091796875 8.28369140625,2.54882955551147 10.6494140625,1.1572265625 13.2751455307007,0.289308071136475 16.083984375,0z" />
    </g>
  </g>
</svg>