<?xml version="1.0" encoding="utf-8"?>
<!DOCTYPE svg PUBLIC "-//W3C//DTD SVG 1.1//EN" "http://www.w3.org/Graphics/SVG/1.1/DTD/svg11.dtd">
<svg width="28.740234375" height="45.205078125" xmlns="http://www.w3.org/2000/svg" xmlns:xlink="http://www.w3.org/1999/xlink" xmlns:xml="http://www.w3.org/XML/1998/namespace" version="1.1">
  <g>
    <g>
      <path style="fill:#FF0000;fill-opacity:1" d="M12.861328125,36.767578125L10.8728017807007,36.910400390625 9.4189453125,37.3388671875 8.529052734375,37.979736328125 8.232421875,38.759765625 8.49609375,39.6826171875 9.287109375,40.400390625 10.5468740463257,40.86181640625 12.216796875,41.015625 16.23046875,40.400390625 19.306640625,38.671875 16.2890625,37.265625 12.861328125,36.767578125z M14.4140625,4.04296875L12.3266592025757,4.24804830551147 10.458984375,4.86328125 8.8330078125,5.87402486801147 7.470703125,7.265625 5.5810546875,11.1328125 4.921875,16.34765625 5.537109375,20.8447265625 7.3095703125,24.3310546875 10.0927734375,26.572265625 11.8176259994507,27.16552734375 13.740234375,27.36328125 15.673828125,27.169189453125 17.431640625,26.5869140625 20.3173828125,24.4482421875 22.1923828125,21.2109375 22.8515625,17.138671875 22.8515625,12.71484375 22.20703125,9.3896484375 20.419921875,6.6357421875 17.7392578125,4.74609375 14.4140625,4.04296875z M13.740234375,0L16.5765380859375,0.303956151008606 19.02099609375,1.21582174301147 21.0736083984375,2.73559665679932 22.734375,4.86328125 22.8515625,4.86328125 22.8515625,0.703125 27.65625,0.703125 27.65625,28.30078125 27.1142559051514,33.83056640625 25.48828125,38.232421875 27.421875,40.83984375 28.740234375,43.916015625 24.66796875,45.205078125 22.587890625,41.689453125 20.29541015625,43.16162109375 17.6953125,44.12109375 12.041015625,44.82421875 8.8037109375,44.4140625 6.09375,43.2275390625 4.2333984375,41.3525390625 3.54492139816284,38.876953125 3.73535108566284,37.525634765625 4.30664014816284,36.3427734375 6.328125,34.4970703125 9.2431640625,33.3544921875 12.71484375,32.958984375 17.40234375,33.5595703125 21.73828125,35.302734375 22.5732402801514,32.38037109375 22.8515625,28.9453125 22.8515625,25.6640625 22.734375,25.6640625 20.804443359375,28.17626953125 18.4423828125,29.970703125 15.648193359375,31.04736328125 12.421875,31.40625 9.75952053070068,31.146240234375 7.3388671875,30.3662109375 5.20751953125,29.1064453125 3.41308546066284,27.4072265625 1.97021484375,25.286865234375 0.8935546875,22.763671875 0.223388671875,19.8779296875 0,16.669921875 0.238037109375,13.04443359375 0.9521484375,9.78515625 2.109375,6.932373046875 3.67675828933716,4.5263671875 5.643310546875,2.59643697738647 7.998046875,1.171875 10.7080068588257,0.292970180511475 13.740234375,0z" />
    </g>
  </g>
</svg>