<?xml version="1.0" encoding="utf-8"?>
<!DOCTYPE svg PUBLIC "-//W3C//DTD SVG 1.1//EN" "http://www.w3.org/Graphics/SVG/1.1/DTD/svg11.dtd">
<svg width="18.779296875" height="44.4140625" xmlns="http://www.w3.org/2000/svg" xmlns:xlink="http://www.w3.org/1999/xlink" xmlns:xml="http://www.w3.org/XML/1998/namespace" version="1.1">
  <g>
    <g>
      <path style="fill:#FF0000;fill-opacity:1" d="M7.060546875,0L11.865234375,0 11.865234375,16.2432861328125 13.447265625,16.787109375 14.52392578125,16.5747089385986 15.29296875,15.9375019073486 15.75439453125,14.8754892349243 15.908203125,13.388671875 18.779296875,13.388671875 18.427734375,16.1828632354736 17.373046875,18.4130859375 15.7177734375,19.8742694854736 13.564453125,20.361328125 11.865234375,20.0706729888916 11.865234375,25.3253173828125 13.447265625,25.869140625 14.52392578125,25.65673828125 15.29296875,25.01953125 15.75439453125,23.95751953125 15.908203125,22.470703125 18.779296875,22.470703125 18.427734375,25.264892578125 17.373046875,27.4951171875 15.7177734375,28.956298828125 13.564453125,29.443359375 11.865234375,29.152702331543 11.865234375,44.4140625 7.060546875,44.4140625 7.060546875,27.2847442626953 5.33203125,26.66015625 4.2041015625,26.8670654296875 3.3984375,27.48779296875 2.9150390625,28.5223388671875 2.75390648841858,29.970703125 0,29.970703125 0.3515625,27.147216796875 1.40625,24.9462890625 3.0908203125,23.529052734375 5.33203125,23.056640625 7.060546875,23.3788013458252 7.060546875,18.2027149200439 5.33203125,17.578125 4.2041015625,17.7850360870361 3.3984375,18.4057636260986 2.9150390625,19.4403095245361 2.75390648841858,20.888671875 0,20.888671875 0.3515625,18.0651874542236 1.40625,15.8642578125 3.0908203125,14.4470233917236 5.33203125,13.974609375 7.060546875,14.2967720031738 7.060546875,0z" />
    </g>
  </g>
</svg>