<?xml version="1.0" encoding="utf-8"?>
<!DOCTYPE svg PUBLIC "-//W3C//DTD SVG 1.1//EN" "http://www.w3.org/Graphics/SVG/1.1/DTD/svg11.dtd">
<svg width="33.80859375" height="42.01171875" xmlns="http://www.w3.org/2000/svg" xmlns:xlink="http://www.w3.org/1999/xlink" xmlns:xml="http://www.w3.org/XML/1998/namespace" version="1.1">
  <g>
    <g>
      <path style="fill:#FF0000;fill-opacity:1" d="M4.921875,15.99609375L4.921875,25.78125 6.6796875,25.78125 8.99780178070068,25.48095703125 10.6201171875,24.580078125 11.575927734375,22.9833984375 11.89453125,20.595703125 11.57958984375,18.46435546875 10.634765625,17.05078125 9.01611232757568,16.2597675323486 6.6796875,15.99609375 4.921875,15.99609375z M4.921875,10.546875L4.921875,12.744140625 6.6796875,12.744140625 10.78857421875,13.1982440948486 13.798828125,14.560546875 15.64453125,16.9775409698486 16.259765625,20.595703125 15.556640625,24.55078125 13.59375,27.158203125 10.5908203125,28.59375 6.73828125,29.033203125 4.921875,29.033203125 4.921875,31.23046875 9.0234375,31.23046875 11.663818359375,31.01806640625 13.9013671875,30.380859375 17.255859375,28.06640625 19.189453125,24.6826171875 19.8046875,20.595703125 19.1564922332764,16.2634296417236 17.2119140625,13.1103515625 15.7278442382813,11.9888315200806 13.868408203125,11.1877460479736 11.6336059570313,10.7070932388306 9.0234375,10.546875 4.921875,10.546875z M4.921875,4.453125L4.921875,6.884765625 9.0234375,6.884765625 12.4951171875,7.078857421875 15.5859375,7.6611328125 18.262939453125,8.6572265625 20.4931640625,10.0927734375 22.2619609832764,11.9860858917236 23.5546875,14.35546875 24.3457012176514,17.2192401885986 24.609375,20.595703125 24.3457012176514,23.785400390625 23.5546875,26.6162109375 22.2619609832764,29.066162109375 20.4931640625,31.11328125 18.2666015625,32.7392578125 15.6005859375,33.92578125 12.528076171875,34.65087890625 9.08203125,34.892578125 4.921875,34.892578125 4.921875,37.55859375 11.19140625,37.55859375 15.054931640625,37.2802734375 18.5009765625,36.4453125 21.4929180145264,35.072021484375 23.994140625,33.1787109375 25.986328125,30.772705078125 27.451171875,27.861328125 28.35205078125,24.462890625 28.65234375,20.595703125 28.3840942382813,16.8122863769531 27.579345703125,13.5333251953125 26.2380981445313,10.7588195800781 24.3603515625,8.48876953125 21.9461059570313,6.72317504882813 18.995361328125,5.4620361328125 15.5081167221069,4.70535278320313 11.484375,4.453125 4.921875,4.453125z M0,0L11.6015625,0 16.8063354492188,0.319976806640625 21.317138671875,1.2799072265625 25.1339721679688,2.87979125976563 28.2568359375,5.11962890625 30.6857299804688,7.99942016601563 32.420654296875,11.5191650390625 33.4616088867188,15.6788635253906 33.80859375,20.478515625 33.39111328125,25.23193359375 32.138671875,29.47265625 30.1318359375,33.160400390625 27.451171875,36.2548828125 24.1479473114014,38.72314453125 20.2734375,40.5322265625 15.908203125,41.641845703125 11.1328125,42.01171875 0,42.01171875 0,0z" />
    </g>
  </g>
</svg>