<?xml version="1.0" encoding="utf-8"?>
<!DOCTYPE svg PUBLIC "-//W3C//DTD SVG 1.1//EN" "http://www.w3.org/Graphics/SVG/1.1/DTD/svg11.dtd">
<svg width="47.9296875" height="43.18359375" xmlns="http://www.w3.org/2000/svg" xmlns:xlink="http://www.w3.org/1999/xlink" xmlns:xml="http://www.w3.org/XML/1998/namespace" version="1.1">
  <g>
    <g>
      <path style="fill:#FF0000;fill-opacity:1" d="M33.896484375,17.548828125L46.7578125,17.548828125 46.7578125,21.181640625 37.060546875,21.181640625 36.328125,27.041015625 36.8408203125,27.0263671875 37.4853515625,26.9970703125 38.14453125,26.9677734375 38.642578125,26.953125 42.216796875,27.451171875 45.17578125,28.9306640625 47.1826171875,31.3916015625 47.9296875,34.833984375 47.7319297790527,36.807861328125 47.138671875,38.5107421875 45.0146484375,41.1181640625 41.953125,42.6708984375 38.37890625,43.18359375 35.09765625,42.86865234375 32.578125,41.923828125 32.578125,37.646484375 35.6982421875,39.1845703125 38.4375,39.697265625 40.6787109375,39.345703125 42.4072265625,38.37890625 43.505859375,36.8994140625 43.88671875,35.009765625 43.51318359375,33.0615234375 42.392578125,31.669921875 40.52490234375,30.8349609375 37.91015625,30.556640625 36.62109375,30.5712890625 35.2001953125,30.6298828125 33.7646484375,30.7177734375 32.490234375,30.791015625 33.896484375,17.548828125z M34.775390625,0.5859375L38.96484375,0.5859375 13.828125,42.59765625 9.609375,42.59765625 34.775390625,0.5859375z M7.20703125,0L10.1806631088257,0.435791015625 12.48046875,1.7431640625 13.95263671875,3.753662109375 14.443359375,6.298828125 14.1778564453125,8.3331298828125 13.38134765625,10.0122079849243 12.0538330078125,11.3360605239868 10.1953125,12.3046875 10.1953125,12.421875 12.4639892578125,13.2531747817993 14.08447265625,14.5166034698486 15.0567626953125,16.2121601104736 15.380859375,18.33984375 14.75830078125,21.45263671875 12.890625,23.935546875 9.98290920257568,25.5615234375 6.240234375,26.103515625 2.67333936691284,25.71533203125 0,24.55078125 0,20.390625 3.09814405441284,22.060546875 6.357421875,22.6171875 8.45214748382568,22.342529296875 10.048828125,21.5185546875 11.0595693588257,20.225830078125 11.396484375,18.544921875 10.9954824447632,16.7376728057861 9.79247951507568,15.4467792510986 7.78747510910034,14.6722421646118 4.98046875,14.4140625 2.51953172683716,14.4140625 2.51953172683716,10.95703125 4.86328125,10.95703125 7.38830518722534,10.7116708755493 9.19189357757568,9.97558689117432 10.2740468978882,8.748779296875 10.634765625,7.03125 10.3710927963257,5.5059814453125 9.58007717132568,4.41650390625 8.26171779632568,3.7628173828125 6.416015625,3.544921875 3.67675757408142,4.05029296875 0.966796875,5.56640625 0.966796875,1.494140625 3.80126929283142,0.37353515625 7.20703125,0z" />
    </g>
  </g>
</svg>