<?xml version="1.0" encoding="utf-8"?>
<!DOCTYPE svg PUBLIC "-//W3C//DTD SVG 1.1//EN" "http://www.w3.org/Graphics/SVG/1.1/DTD/svg11.dtd">
<svg width="51.796875" height="43.8574218750006" xmlns="http://www.w3.org/2000/svg" xmlns:xlink="http://www.w3.org/1999/xlink" xmlns:xml="http://www.w3.org/XML/1998/namespace" version="1.1">
  <g>
    <g>
      <path style="fill:#FF0000;fill-opacity:1" d="M46.171875,13.857421875L50.9765625,13.857421875 50.9765625,43.857421875 46.171875,43.857421875 46.171875,13.857421875z M31.640625,13.857421875L36.4453125,13.857421875 36.4453125,43.857421875 31.640625,43.857421875 31.640625,13.857421875z M0.439453482627869,13.857421875L6.03515577316284,13.857421875 11.8359375,24.111328125 13.095703125,26.455078125 13.212890625,26.455078125 20.712890625,13.857421875 26.015625,13.857421875 15.9375,29.033203125 25.83984375,43.857421875 20.244140625,43.857421875 14.35546875,34.130859375 13.037109375,31.845703125 12.919921875,31.845703125 12.5024404525757,32.548828125 11.54296875,34.130859375 5.537109375,43.857421875 0,43.857421875 10.224609375,29.150390625 0.439453482627869,13.857421875z M48.6328125,0L49.8522911071777,0.223388254642487 50.8740234375,0.893554210662842 51.5661582946777,1.90063428878784 51.796875,3.13476514816284 51.5661582946777,4.32861280441284 50.8740234375,5.33203077316284 49.8522911071777,6.01318311691284 48.6328125,6.24023389816284 47.4389610290527,6.02050733566284 46.435546875,5.36132764816284 45.75439453125,4.36523389816284 45.52734375,3.13476514816284 45.75439453125,1.90063428878784 46.435546875,0.893554210662842 47.4389610290527,0.223388254642487 48.6328125,0z M34.1015625,0L35.321044921875,0.223388254642487 36.3427734375,0.893554210662842 37.034912109375,1.90063428878784 37.265625,3.13476514816284 37.034912109375,4.32861280441284 36.3427734375,5.33203077316284 35.321044921875,6.01318311691284 34.1015625,6.24023389816284 32.90771484375,6.02050733566284 31.904296875,5.36132764816284 31.22314453125,4.36523389816284 30.99609375,3.13476514816284 31.22314453125,1.90063428878784 31.904296875,0.893554210662842 32.90771484375,0.223388254642487 34.1015625,0z" />
    </g>
  </g>
</svg>