<?xml version="1.0" encoding="utf-8"?>
<!DOCTYPE svg PUBLIC "-//W3C//DTD SVG 1.1//EN" "http://www.w3.org/Graphics/SVG/1.1/DTD/svg11.dtd">
<svg width="47.900390625" height="43.2421875" xmlns="http://www.w3.org/2000/svg" xmlns:xlink="http://www.w3.org/1999/xlink" xmlns:xml="http://www.w3.org/XML/1998/namespace" version="1.1">
  <g>
    <g>
      <path style="fill:#FF0000;fill-opacity:1" d="M39.345703125,30.087890625L37.470703125,30.3955078125 35.947265625,31.2890625 34.921875,32.6953125 34.541015625,34.5703125 34.8486328125,36.5185546875 35.7568359375,38.203125 37.20703125,39.375 39.140625,39.814453125 41.099853515625,39.481201171875 42.5830078125,38.4814453125 43.516845703125,36.947021484375 43.828125,35.009765625 43.546142578125,32.96630859375 42.7001953125,31.40625 41.297607421875,30.41748046875 39.345703125,30.087890625z M41.337890625,17.16796875L43.798828125,17.431640625 45.9375,18.193359375 45.9375,21.97265625 44.94140625,21.474609375 43.7255859375,21.064453125 42.451171875,20.7861328125 41.279296875,20.68359375 38.3642578125,21.2109375 36.15234375,22.79296875 35.306396484375,24.005126953125 34.5849609375,25.6494140625 34.090576171875,27.755126953125 33.92578125,30.3515625 34.04296875,30.3515625 35.0830078125,29.014892578125 36.50390625,27.9345703125 38.28369140625,27.220458984375 40.400390625,26.982421875 43.5498046875,27.5537109375 45.908203125,29.1650390625 47.3876953125,31.6552734375 47.900390625,34.892578125 47.2412109375,38.203125 45.4248046875,40.8544921875 42.7001953125,42.6123046875 39.345703125,43.2421875 35.830078125,42.5244140625 32.900390625,40.3564453125 31.7724609375,38.712158203125 30.908203125,36.6796875 30.35888671875,34.248046875 30.17578125,31.40625 30.380859375,28.172607421875 30.99609375,25.3271484375 31.981201171875,22.884521484375 33.2958984375,20.859375 34.918212890625,19.2626953125 36.826171875,18.10546875 38.9794921875,17.4023456573486 41.337890625,17.16796875z M34.27734375,0.64453125L38.466796875,0.64453125 13.330078125,42.65625 9.111328125,42.65625 34.27734375,0.64453125z M8.7890625,0L10.83984375,0 10.83984375,25.546875 7.03125,25.546875 7.03125,4.86328125 3.603515625,7.2509765625 0,9.08203125 0,5.126953125 2.138671875,4.248046875 4.21874952316284,3.1201171875 6.38671875,1.7138671875 8.7890625,0z" />
    </g>
  </g>
</svg>