<?xml version="1.0" encoding="utf-8"?>
<!DOCTYPE svg PUBLIC "-//W3C//DTD SVG 1.1//EN" "http://www.w3.org/Graphics/SVG/1.1/DTD/svg11.dtd">
<svg width="33.80859375" height="42.01171875" xmlns="http://www.w3.org/2000/svg" xmlns:xlink="http://www.w3.org/1999/xlink" xmlns:xml="http://www.w3.org/XML/1998/namespace" version="1.1">
  <g>
    <g>
      <path style="fill:#FF0000;fill-opacity:1" d="M4.921875,13.0078125L4.921875,29.00390625 7.646484375,29.00390625 10.784912109375,28.494873046875 13.1689453125,26.9677734375 14.674072265625,24.364013671875 15.17578125,20.625 14.6484375,17.021484375 13.125,14.6630859375 10.72265625,13.388671875 7.55859375,13.0078125 4.921875,13.0078125z M4.921875,4.453125L4.921875,9.052734375 7.55859375,9.052734375 12.8759765625,9.755859375 16.8603515625,11.8798828125 18.2958984375,13.4912128448486 19.3505859375,15.4833984375 19.9987773895264,17.8601093292236 20.21484375,20.625 20.0024394989014,23.419189453125 19.365234375,25.8837890625 18.3215312957764,28.00048828125 16.8896484375,29.7509765625 12.919921875,32.138671875 10.42236328125,32.75390625 7.6171875,32.958984375 4.921875,32.958984375 4.921875,37.55859375 11.19140625,37.55859375 15.054931640625,37.2802734375 18.5009765625,36.4453125 21.4929180145264,35.072021484375 23.994140625,33.1787109375 25.986328125,30.772705078125 27.451171875,27.861328125 28.35205078125,24.462890625 28.65234375,20.595703125 28.3840942382813,16.8122863769531 27.579345703125,13.5333251953125 26.2380981445313,10.7588195800781 24.3603515625,8.48876953125 21.9461059570313,6.72317504882813 18.995361328125,5.4620361328125 15.5081167221069,4.70535278320313 11.484375,4.453125 4.921875,4.453125z M0,0L11.6015625,0 16.8063354492188,0.319976806640625 21.317138671875,1.2799072265625 25.1339721679688,2.87979125976563 28.2568359375,5.11962890625 30.6857299804688,7.99942016601563 32.420654296875,11.5191650390625 33.4616088867188,15.6788635253906 33.80859375,20.478515625 33.39111328125,25.23193359375 32.138671875,29.47265625 30.1318359375,33.160400390625 27.451171875,36.2548828125 24.1479473114014,38.72314453125 20.2734375,40.5322265625 15.908203125,41.641845703125 11.1328125,42.01171875 0,42.01171875 0,0z" />
    </g>
  </g>
</svg>