<?xml version="1.0" encoding="utf-8"?>
<!DOCTYPE svg PUBLIC "-//W3C//DTD SVG 1.1//EN" "http://www.w3.org/Graphics/SVG/1.1/DTD/svg11.dtd">
<svg width="32.578125" height="42.48046875" xmlns="http://www.w3.org/2000/svg" xmlns:xlink="http://www.w3.org/1999/xlink" xmlns:xml="http://www.w3.org/XML/1998/namespace" version="1.1">
  <g>
    <g>
      <path style="fill:#FF0000;fill-opacity:1" d="M27.421875,11.8359375L32.109375,11.8359375 32.109375,42.48046875 27.421875,42.48046875 27.421875,11.8359375z M13.916015625,11.8359375L18.603515625,11.8359375 18.603515625,42.48046875 13.916015625,42.48046875 13.916015625,11.8359375z M0.46875,11.8359375L5.15625,11.8359375 5.15625,42.48046875 0.46875,42.48046875 0.46875,11.8359375z M26.923828125,0L32.578125,0 32.578125,5.830078125 26.923828125,5.830078125 26.923828125,0z M13.447265625,0L19.1015625,0 19.1015625,5.830078125 13.447265625,5.830078125 13.447265625,0z M0,0L5.654296875,0 5.654296875,5.830078125 0,5.830078125 0,0z" />
    </g>
  </g>
</svg>