<?xml version="1.0" encoding="utf-8"?>
<!DOCTYPE svg PUBLIC "-//W3C//DTD SVG 1.1//EN" "http://www.w3.org/Graphics/SVG/1.1/DTD/svg11.dtd">
<svg width="62.6953125" height="42.01171875" xmlns="http://www.w3.org/2000/svg" xmlns:xlink="http://www.w3.org/1999/xlink" xmlns:xml="http://www.w3.org/XML/1998/namespace" version="1.1">
  <g>
    <g>
      <path style="fill:#FF0000;fill-opacity:1" d="M33.80859375,15.99609375L33.80859375,25.78125 35.56640625,25.78125 37.884521484375,25.48095703125 39.5068359375,24.580078125 40.462646484375,22.9833984375 40.78125,20.595703125 40.46630859375,18.46435546875 39.521484375,17.05078125 37.90283203125,16.2597675323486 35.56640625,15.99609375 33.80859375,15.99609375z M27.12890625,15.99609375L24.7924785614014,16.2597675323486 23.173828125,17.05078125 22.2290019989014,18.46435546875 21.9140625,20.595703125 22.2290019989014,22.9833984375 23.173828125,24.580078125 24.7924785614014,25.48095703125 27.12890625,25.78125 28.88671875,25.78125 28.88671875,15.99609375 27.12890625,15.99609375z M33.80859375,10.546875L33.80859375,12.744140625 35.56640625,12.744140625 39.67529296875,13.1982440948486 42.685546875,14.560546875 44.53125,16.9775409698486 45.146484375,20.595703125 44.443359375,24.55078125 42.48046875,27.158203125 39.4775390625,28.59375 35.625,29.033203125 33.80859375,29.033203125 33.80859375,31.23046875 37.91015625,31.23046875 40.550537109375,31.01806640625 42.7880859375,30.380859375 46.142578125,28.06640625 48.076171875,24.6826171875 48.69140625,20.595703125 48.0432090759277,16.2634296417236 46.0986328125,13.1103515625 44.6145629882813,11.9888315200806 42.755126953125,11.1877460479736 40.5203247070313,10.7070932388306 37.91015625,10.546875 33.80859375,10.546875z M24.78515625,10.546875L22.1749877929688,10.7070932388306 19.940185546875,11.1877460479736 18.0807495117188,11.9888315200806 16.5966796875,13.1103515625 14.652099609375,16.2634296417236 14.00390625,20.595703125 14.619140625,24.6826171875 16.552734375,28.06640625 19.9072265625,30.380859375 22.1447734832764,31.01806640625 24.78515625,31.23046875 28.88671875,31.23046875 28.88671875,29.033203125 27.0703125,29.033203125 23.2177734375,28.59375 20.21484375,27.158203125 18.251953125,24.55078125 17.548828125,20.595703125 18.1640625,16.9775409698486 20.009765625,14.560546875 23.0200176239014,13.1982440948486 27.12890625,12.744140625 28.88671875,12.744140625 28.88671875,10.546875 24.78515625,10.546875z M33.80859375,4.453125L33.80859375,6.884765625 37.91015625,6.884765625 41.3818359375,7.078857421875 44.47265625,7.6611328125 47.1496543884277,8.6572265625 49.3798828125,10.0927734375 51.1486778259277,11.9860858917236 52.44140625,14.35546875 53.2324180603027,17.2192401885986 53.49609375,20.595703125 53.2324180603027,23.785400390625 52.44140625,26.6162109375 51.1486778259277,29.066162109375 49.3798828125,31.11328125 47.1533164978027,32.7392578125 44.4873046875,33.92578125 41.414794921875,34.65087890625 37.96875,34.892578125 33.80859375,34.892578125 33.80859375,37.55859375 40.078125,37.55859375 43.941650390625,37.2802734375 47.3876953125,36.4453125 50.3796348571777,35.072021484375 52.880859375,33.1787109375 54.8730430603027,30.772705078125 56.337890625,27.861328125 57.2387657165527,24.462890625 57.5390625,20.595703125 57.2708129882813,16.8122863769531 56.4660606384277,13.5333251953125 55.124813079834,10.7588195800781 53.2470664978027,8.48876953125 50.832820892334,6.72317504882813 47.8820762634277,5.4620361328125 44.3948364257813,4.70535278320313 40.37109375,4.453125 33.80859375,4.453125z M22.32421875,4.453125L18.3004760742188,4.70535278320313 14.813232421875,5.4620361328125 11.8624877929688,6.72317504882813 9.4482421875,8.48876953125 7.57049560546875,10.7588195800781 6.229248046875,13.5333251953125 5.42449951171875,16.8122863769531 5.15625047683716,20.595703125 5.45654296875,24.462890625 6.357421875,27.861328125 7.822265625,30.772705078125 9.814453125,33.1787109375 12.3156728744507,35.072021484375 15.3076171875,36.4453125 18.753662109375,37.2802734375 22.6171875,37.55859375 28.88671875,37.55859375 28.88671875,34.892578125 24.7265625,34.892578125 21.26220703125,34.65087890625 18.193359375,33.92578125 15.538330078125,32.7392578125 13.3154296875,31.11328125 11.5466299057007,29.066162109375 10.25390625,26.6162109375 9.462890625,23.785400390625 9.19921875,20.595703125 9.462890625,17.2192401885986 10.25390625,14.35546875 11.5466299057007,11.9860858917236 13.3154296875,10.0927734375 15.545654296875,8.6572265625 18.22265625,7.6611328125 21.3134765625,7.078857421875 24.78515625,6.884765625 28.88671875,6.884765625 28.88671875,4.453125 22.32421875,4.453125z M22.20703125,0L40.48828125,0 45.6930541992188,0.319976806640625 50.203857421875,1.2799072265625 54.0206909179688,2.87979125976563 57.1435546875,5.11962890625 59.5724487304688,7.99942016601563 61.307373046875,11.5191650390625 62.3483276367188,15.6788635253906 62.6953125,20.478515625 62.27783203125,25.23193359375 61.025390625,29.47265625 59.0185508728027,33.160400390625 56.337890625,36.2548828125 53.0346641540527,38.72314453125 49.16015625,40.5322265625 44.794921875,41.641845703125 40.01953125,42.01171875 22.67578125,42.01171875 17.900390625,41.641845703125 13.53515625,40.5322265625 9.66064357757568,38.72314453125 6.357421875,36.2548828125 3.67675733566284,33.160400390625 1.669921875,29.47265625 0.41748046875,25.23193359375 0,20.478515625 0.34698486328125,15.6788635253906 1.387939453125,11.5191650390625 3.12286376953125,7.99942016601563 5.5517578125,5.11962890625 8.67462158203125,2.87979125976563 12.491455078125,1.2799072265625 17.0022583007813,0.319976806640625 22.20703125,0z" />
    </g>
  </g>
</svg>