<?xml version="1.0" encoding="utf-8"?>
<!DOCTYPE svg PUBLIC "-//W3C//DTD SVG 1.1//EN" "http://www.w3.org/Graphics/SVG/1.1/DTD/svg11.dtd">
<svg width="92.98828125" height="62.4609375" xmlns="http://www.w3.org/2000/svg" xmlns:xlink="http://www.w3.org/1999/xlink" xmlns:xml="http://www.w3.org/XML/1998/namespace" version="1.1">
  <g>
    <g>
      <path style="fill:#FF0000;fill-opacity:1" d="M44.091796875,35.390625L43.857421875,39.111328125 49.130859375,39.404296875 47.2412071228027,37.85888671875 44.091796875,35.390625z M40.37109375,21.591796875L39.8583984375,24.4921894073486 39.31640625,28.623046875 38.466796875,38.5546875 40.31982421875,38.78173828125 42.65625,38.994140625 42.1875,34.072265625 40.10009765625,32.7099609375 39.052734375,32.080078125 41.748046875,30.3515625 41.09619140625,25.2319355010986 40.37109375,21.591796875z M34.98046875,21.591796875L34.44580078125,24.5269775390625 33.955078125,28.20556640625 33.50830078125,32.6275634765625 33.10546875,37.79296875 37.20703125,38.37890625 36.73828125,33.896484375 36.240234375,29.4140625 35.6689453125,25.2099609375 34.98046875,21.591796875z M29.560546875,21.591796875L28.9892578125,24.9023456573486 28.447265625,29.208984375 29.82421875,28.974609375 29.447021484375,30.062255859375 29.0185546875,31.7138671875 28.538818359375,33.929443359375 28.0078125,36.708984375 29.53857421875,37.08251953125 31.728515625,37.55859375 31.2890625,33.251953125 30.8953857421875,29.7546405792236 30.47607421875,26.6455097198486 30.0311279296875,23.9245624542236 29.560546875,21.591796875z M23.408203125,18.955078125L26.806640625,19.306640625 28.857421875,19.189453125 28.798828125,18.955078125 29.501953125,19.072265625 30.3515625,18.955078125 30.234375,19.189453125 31.962890625,19.306640625 34.248046875,19.189453125 34.189453125,18.955078125 34.921875,19.072265625 35.7421875,18.955078125 35.625,19.189453125 37.3828125,19.306640625 39.66796875,19.189453125 39.580078125,18.955078125 40.3125,19.072265625 41.162109375,18.955078125 41.044921875,19.189453125 42.890625,19.306640625 46.552734375,18.955078125 46.1297569274902,20.2771015167236 45.7104454040527,22.1044940948486 45.2947959899902,24.4372577667236 44.8828125,27.275390625 45,27.158203125 45.8532676696777,29.271240234375 47.5048789978027,32.4755859375 49.9548301696777,36.771240234375 53.203125,42.158203125 52.734375,42.65625 49.365234375,39.580078125 49.365234375,40.72265625 47.3217735290527,40.9259033203125 45.7031211853027,41.09619140625 44.5092735290527,41.2335205078125 43.740234375,41.337890625 43.740234375,41.572265625 42.94921875,41.572265625 42.890625,41.396484375 36.67236328125,42.2314453125 31.669921875,43.154296875 27.48046875,44.23095703125 23.701171875,45.52734375 24.169921875,40.546875 23.701171875,35.33203125 25.078125,35.859375 24.2211894989014,31.67724609375 23.408203125,28.974609375 25.4296875,29.326171875 25.0067119598389,25.9643573760986 24.5288066864014,23.1152362823486 23.9959697723389,20.7788105010986 23.408203125,18.955078125z M28.388671875,0L31.8988037109375,2.31903076171875 36.89208984375,5.145263671875 43.3685302734375,8.47869873046875 51.328125,12.3193359375 60.457763671875,16.5133666992188 70.4443359375,20.906982421875 81.287841796875,25.5001831054688 92.98828125,30.29296875 92.8125,31.259765625 92.98828125,31.787109375 78.6181640625,37.540283203125 64.62890625,43.5498046875 57.9931602478027,46.5444946289063 51.8847618103027,49.390869140625 46.3037071228027,52.0889282226563 41.25,54.638671875 36.81884765625,56.9842529296875 33.10546875,59.06982421875 30.10986328125,60.8953857421875 27.83203125,62.4609375 25.655101776123,56.8553428649902 24.462890625,57.71484375 16.34765625,48.837890625 12.3944091796875,44.476318359375 9.17724609375,40.9423828125 6.69616651535034,38.236083984375 4.951171875,36.357421875 2.33642554283142,33.6474609375 0,31.376953125 2.3419189453125,29.0057373046875 4.97314453125,26.25732421875 7.8936767578125,23.1317138671875 11.103515625,19.62890625 15.0146474838257,15.311279296875 18.5449199676514,11.4404296875 21.6943340301514,8.016357421875 24.462890625,5.0390625 25.72265625,5.91796970367432 22.3846416473389,11.4422616958618 18.9038066864014,17.52685546875 15.2801504135132,24.1717529296875 11.513671875,31.376953125 25.4391269683838,56.2992095947266 23.14453125,50.390625 27.2634887695313,49.8037719726563 32.442626953125,48.746337890625 38.6819458007813,47.2183227539063 45.9814453125,45.2197265625 50.1001739501953,44.0210723876953 54.6267700195313,42.6589965820313 59.5612335205078,41.1334991455078 64.903564453125,39.444580078125 70.6537628173828,37.5922393798828 76.8118286132813,35.5764770507813 83.3777618408203,33.3972930908203 90.3515625,31.0546875 78.2295227050781,26.9700622558594 67.1905517578125,23.3734130859375 57.2346496582031,20.2647399902344 48.36181640625,17.64404296875 40.5720520019531,15.5113220214844 33.8653564453125,13.8665771484375 28.2417297363281,12.7098073959351 23.701171875,12.0410146713257 26.6162109375,6.46728515625 28.388671875,0z" />
    </g>
  </g>
</svg>