<?xml version="1.0" encoding="utf-8"?>
<!DOCTYPE svg PUBLIC "-//W3C//DTD SVG 1.1//EN" "http://www.w3.org/Graphics/SVG/1.1/DTD/svg11.dtd">
<svg width="62.6953125" height="50.859375" xmlns="http://www.w3.org/2000/svg" xmlns:xlink="http://www.w3.org/1999/xlink" xmlns:xml="http://www.w3.org/XML/1998/namespace" version="1.1">
  <g>
    <g>
      <path style="fill:#FF0000;fill-opacity:1" d="M25.927734375,2.197265625L26.7352294921875,3.85162353515625 28.01513671875,5.943603515625 29.7674560546875,8.47320556640625 31.9921875,11.4404296875 37.36083984375,18.0651874542236 43.623046875,25.1953125 42.9766807556152,21.1065692901611 42.2680625915527,17.5415058135986 41.4971885681152,14.5001230239868 40.6640625,11.982421875 45.703125,12.48046875 50.947265625,11.982421875 50.4034385681152,13.5131845474243 49.8559532165527,15.5273456573486 49.3048057556152,18.0249042510986 48.75,21.005859375 47.0361328125,34.453125 46.5856895446777,40.90576171875 46.435546875,46.259765625 45.17578125,46.259765625 45.17578125,45.87890625 41.103515625,42.3046875 40.78125,45.234375 40.25390625,45.234375 39.580078125,40.8984375 36.181640625,37.96875 35.888671875,40.8984375 35.33203125,40.8984375 34.6875,36.650390625 31.318359375,33.779296875 31.025390625,36.474609375 30.46875,36.474609375 29.8828125,32.51953125 26.279296875,29.501953125 26.044921875,31.845703125 25.48828125,31.845703125 24.9609375,28.41796875 19.5941162109375,24.1058368682861 15.24169921875,20.8081073760986 11.9036865234375,18.5247821807861 9.580078125,17.255859375 13.2568359375,14.1870136260986 16.376953125,10.4296875 17.113037109375,11.7773447036743 18.3837890625,13.65234375 20.4968242645264,16.4062519073486 23.759765625,20.390625 23.2250957489014,17.9516620635986 22.79296875,16.611328125 25.83984375,16.904296875 28.681640625,16.611328125 28.289794921875,17.7136249542236 27.8759765625,19.3505878448486 27.440185546875,21.5222187042236 26.982421875,24.228515625 28.974609375,26.396484375 28.6138916015625,24.5361328125 28.29345703125,23.056640625 28.0133056640625,21.9580078125 27.7734375,21.240234375 30.8203125,21.533203125 33.662109375,21.240234375 33.27392578125,22.43408203125 32.841796875,24.228515625 32.36572265625,26.62353515625 31.845703125,29.619140625 34.013671875,32.021484375 33.6199951171875,29.7235107421875 33.25927734375,27.89794921875 32.9315185546875,26.5447998046875 32.63671875,25.6640625 35.68359375,25.95703125 38.525390625,25.6640625 38.118896484375,26.865234375 37.6611328125,28.798828125 37.152099609375,31.46484375 36.591796875,34.86328125 39.111328125,37.5 38.6297607421875,34.691162109375 38.21044921875,32.5048828125 37.8533935546875,30.941162109375 37.55859375,30 40.60546875,30.29296875 43.447265625,30 42.9711875915527,31.512451171875 42.421875,33.9990234375 41.396484375,39.9609375 45.1171875,43.857421875 44.7290000915527,35.77880859375 43.916015625,27.5390625 39.55078125,23.9501953125 35.009765625,20.2587890625 30.4833984375,16.7138671875 26.1767578125,13.53515625 22.2802734375,10.95703125 18.955078125,9.228515625 22.6025371551514,6.181640625 25.927734375,2.197265625z M49.74609375,0L56.689453125,0.52734375 59.91943359375,0.3955078125 62.6953125,0 60.7196044921875,5.34851121902466 59.12841796875,10.7592782974243 57.9217529296875,16.2322998046875 57.099609375,21.767578125 62.63671875,21.181640625 60.318603515625,27.65625 58.6376953125,34.541015625 57.4987754821777,42.16552734375 56.806640625,50.859375 55.546875,50.859375 54.8812828063965,44.7409057617188 54.2321739196777,39.539794921875 53.5995445251465,35.2560424804688 52.9833984375,31.8896484375 51.5661582946777,26.304931640625 49.74609375,21.181640625 55.48828125,21.767578125 54.1735801696777,14.7821044921875 52.7783164978027,8.82568359375 51.3024864196777,3.8983154296875 49.74609375,0z M0,0L6.298828125,0.703125 12.94921875,0 10.4626455307007,10.968017578125 8.68652248382568,23.1005859375 7.62084913253784,36.397705078125 7.265625,50.859375 5.68359375,50.859375 5.328369140625,36.397705078125 4.2626953125,23.1005859375 2.486572265625,10.968017578125 0,0z" />
    </g>
  </g>
</svg>