<?xml version="1.0" encoding="utf-8"?>
<!DOCTYPE svg PUBLIC "-//W3C//DTD SVG 1.1//EN" "http://www.w3.org/Graphics/SVG/1.1/DTD/svg11.dtd">
<svg width="49.74609375" height="56.982421875" xmlns="http://www.w3.org/2000/svg" xmlns:xlink="http://www.w3.org/1999/xlink" xmlns:xml="http://www.w3.org/XML/1998/namespace" version="1.1">
  <g>
    <g>
      <path style="fill:#FF0000;fill-opacity:1" d="M23.994140625,7.79296875L18.1329345703125,14.9487314224243 13.52783203125,20.7714862823486 10.1788330078125,25.2612323760986 8.0859375,28.41796875 10.2374267578125,31.6827392578125 13.61572265625,36.23291015625 18.2208251953125,42.0684814453125 24.052734375,49.189453125 28.443603515625,45.9814453125 34.1748046875,41.279296875 40.770263671875,35.4931640625 47.75390625,29.033203125 45.8258018493652,29.234619140625 42.7368125915527,29.5166015625 38.4869346618652,29.879150390625 33.076171875,30.322265625 27.8018169403076,30.7498168945313 23.3752422332764,31.124267578125 19.7964458465576,31.4456176757813 17.0654296875,31.7138671875 14.9880981445313,31.9491577148438 13.370361328125,32.171630859375 12.2122192382813,32.3812866210938 11.513671875,32.578125 11.865234375,29.970703125 11.982421875,28.06640625 11.513671875,24.228515625 12.2364807128906,24.4331359863281 13.5260009765625,24.6661376953125 15.3822326660156,24.9275207519531 17.80517578125,25.21728515625 20.7948303222656,25.5354309082031 24.3511962890625,25.8819580078125 28.4742736816406,26.2568664550781 33.1640625,26.66015625 47.75390625,27.94921875 34.5703125,16.0693359375 28.64501953125,11.195068359375 23.994140625,7.79296875z M28.447265625,0L29.0176391601563,1.2176513671875 29.967041015625,2.81982421875 31.2954711914063,4.8065185546875 33.0029296875,7.177734375 35.2450561523438,10.1239013671875 38.177490234375,13.8354501724243 41.8002319335938,18.3123779296875 46.11328125,23.5546875 49.74609375,28.0078125 49.189453125,28.4765625 49.74609375,28.974609375 46.11328125,33.3984375 41.74072265625,38.7368774414063 38.0859375,43.267822265625 35.14892578125,46.9912719726563 32.9296875,49.9072265625 29.94873046875,54.188232421875 28.447265625,56.982421875 25.1806640625,53.54736328125 21.357421875,50.80078125 22.060546875,50.390625 15.296630859375,44.329833984375 9.0087890625,39.0380859375 6.17706298828125,36.7977905273438 3.73168921470642,34.984130859375 1.67266821861267,33.5971069335938 0,32.63671875 2.79785132408142,30.7763671875 5.390625,28.41796875 2.958984375,26.24267578125 0,24.228515625 1.54220581054688,23.3688354492188 3.4295654296875,22.1228046417236 5.66207885742188,20.4904193878174 8.23974609375,18.4716815948486 11.1625671386719,16.0665912628174 14.4305419921875,13.2751474380493 18.0436706542969,10.0973520278931 22.001953125,6.533203125 21.357421875,6.181640625 25.13671875,3.49365234375 28.447265625,0z" />
    </g>
  </g>
</svg>