<?xml version="1.0" encoding="utf-8"?>
<!DOCTYPE svg PUBLIC "-//W3C//DTD SVG 1.1//EN" "http://www.w3.org/Graphics/SVG/1.1/DTD/svg11.dtd">
<svg width="96.826171875" height="53.818359375" xmlns="http://www.w3.org/2000/svg" xmlns:xlink="http://www.w3.org/1999/xlink" xmlns:xml="http://www.w3.org/XML/1998/namespace" version="1.1">
  <g>
    <g>
      <path style="fill:#FF0000;fill-opacity:1" d="M56.103515625,37.44140625L52.294921875,38.0859375 48.9019737243652,38.668212890625 46.2524375915527,39.1845703125 44.3463096618652,39.635009765625 43.18359375,40.01953125 43.18359375,44.150390625 46.318359375,44.150390625 56.103515625,44.033203125 56.103515625,37.44140625z M58.18359375,30.849609375L58.18359375,44.033203125 87.7734375,43.037109375 79.306640625,39.462890625 71.337890625,36.123046875 64.189453125,33.193359375 58.18359375,30.849609375z M56.103515625,30.556640625L52.294921875,31.171875 49.0008506774902,31.7230224609375 46.3842735290527,32.23388671875 44.4451866149902,32.7044677734375 43.18359375,33.134765625 43.18359375,34.453125 45.4064903259277,34.98779296875 48.8525390625,35.537109375 52.6940879821777,36.0205078125 56.103515625,36.357421875 56.103515625,30.556640625z M53.408203125,24.169921875L49.6490440368652,24.818115234375 46.6918907165527,25.3857421875 44.5367393493652,25.872802734375 43.18359375,26.279296875 43.18359375,27.5390625 44.7949180603027,27.945556640625 47.34375,28.4033203125 53.408203125,29.23828125 55.01953125,26.689453125 53.408203125,24.169921875z M56.103515625,16.81640625L52.294921875,17.431640625 49.0008506774902,17.9827899932861 46.3842735290527,18.4936542510986 44.4451866149902,18.9642353057861 43.18359375,19.39453125 43.18359375,20.712890625 45.4064903259277,21.2475605010986 48.8525390625,21.796875 52.6940879821777,22.2802734375 56.103515625,22.6171875 56.103515625,16.81640625z M39.7265625,15.234375L40.927734375,15.908203125 37.353515625,22.14111328125 34.541015625,26.953125 37.353515625,31.76513671875 40.927734375,37.998046875 39.7265625,38.642578125 36.68701171875,35.85205078125 32.431640625,31.7578125 29.35546875,28.9013671875 26.982421875,26.953125 29.443359375,24.931640625 35.20751953125,19.9145526885986 39.7265625,15.234375z M89.091796875,10.986328125L73.59375,19.5703125 70.0762939453125,21.6192626953125 66.93603515625,23.48876953125 64.1729736328125,25.1788330078125 61.787109375,26.689453125 66.474609375,29.6319580078125 72.626953125,33.24462890625 80.244140625,37.5274658203125 89.326171875,42.48046875 92.2997970581055,40.05615234375 94.189453125,38.466796875 92.138671875,36.533203125 87.421875,32.63671875 88.7109375,31.58203125 94.189453125,27.0703125 91.3622970581055,24.404296875 89.677734375,22.91015625 87.421875,21.240234375 88.7109375,20.185546875 94.248046875,15.615234375 92.63671875,14.12109375 89.091796875,10.986328125z M58.18359375,9.84375190734863L58.18359375,22.5 61.307373046875,21.3244647979736 65.0537109375,19.8486328125 66.2793731689453,19.3517303466797 67.9275512695313,18.6740131378174 69.9982452392578,17.8154773712158 72.491455078125,16.7761249542236 75.4071807861328,15.5559549331665 78.7454223632813,14.1549692153931 82.5061798095703,12.573166847229 86.689453125,10.810546875 80.537109375,10.576171875 73.7347412109375,10.3216552734375 67.74169921875,10.11474609375 62.5579833984375,9.95544528961182 58.18359375,9.84375190734863z M43.18359375,9.72656440734863L43.18359375,13.798828125 44.9359092712402,14.2602548599243 47.6733360290527,14.7363300323486 51.3958702087402,15.2270517349243 56.103515625,15.732421875 56.103515625,9.78515625 51.181640625,9.72656440734863 43.18359375,9.72656440734863z M36.005859375,7.44140672683716L33.3837890625,12.2900390625 29.970703125,18.10546875 26.94580078125,23.2470703125 24.9609375,26.953125 28.0499267578125,32.940673828125 30.95947265625,38.3935546875 33.6895751953125,43.311767578125 36.240234375,47.6953125 35.33203125,43.623046875 37.52197265625,43.8720703125 41.103515625,44.091796875 41.103515625,9.78515625 37.56591796875,9.9609375 35.33203125,10.1953125 36.005859375,7.44140672683716z M36.357421875,0L37.587890625,0.476074576377869 39.462890625,1.025390625 41.9384765625,1.62597703933716 44.970703125,2.25585985183716 48.5375938415527,2.92968797683716 52.6171875,3.66210985183716 57.337646484375,4.46411180496216 62.8271484375,5.34668016433716 64.5101165771484,5.60646104812622 66.6220092773438,5.92437791824341 69.1628265380859,6.30043077468872 72.132568359375,6.73461961746216 75.5312347412109,7.22694444656372 79.3588256835938,7.77740526199341 83.6153411865234,8.38600158691406 88.30078125,9.052734375 89.677734375,7.96874952316284 92.2265548706055,5.85937547683716 95.947265625,2.63671875 96.826171875,3.19335985183716 94.013671875,8.203125 93.1640625,9.78515625 95.625,14.4140625 95.947265625,14.091796875 96.826171875,14.6484375 96.298828125,15.556640625 96.826171875,16.376953125 95.947265625,17.16796875 95.5078125,16.81640625 93.1640625,21.240234375 95.56640625,25.810546875 95.947265625,25.517578125 96.826171875,26.044921875 96.240234375,26.953125 96.826171875,27.83203125 95.947265625,28.623046875 95.5078125,28.271484375 93.1640625,32.63671875 95.56640625,37.20703125 95.947265625,36.9140625 96.826171875,37.44140625 96.240234375,38.349609375 96.826171875,39.2578125 95.947265625,40.01953125 95.5078125,39.66796875 93.1640625,44.033203125 94.833984375,47.197265625 96.826171875,50.654296875 95.947265625,51.416015625 93.369140625,49.013671875 90.6591720581055,46.56005859375 88.447265625,44.765625 79.2214965820313,46.0272216796875 70.469970703125,47.29248046875 62.1926879882813,48.5614013671875 54.3896484375,49.833984375 50.7978057861328,50.4537963867188 47.5881958007813,51.038818359375 44.7608184814453,51.5890502929688 42.315673828125,52.1044921875 40.2527618408203,52.5851440429688 38.5720825195313,53.031005859375 37.2736358642578,53.4420776367188 36.357421875,53.818359375 36.416015625,52.67578125 36.416015625,51.650390625 32.457275390625,47.373046875 28.9013671875,43.447265625 22.734375,36.591796875 20.2056884765625,39.3218994140625 18.27392578125,41.53564453125 16.9390869140625,43.2330322265625 16.201171875,44.4140625 14.4287109375,41.982421875 12.421875,39.9609375 13.359375,39.63134765625 15,38.876953125 10.8306884765625,39.591064453125 7.49267578125,40.1806640625 4.9859619140625,40.645751953125 3.310546875,40.986328125 1.22314417362213,41.50634765625 0,41.953125 0.146483898162842,39.84375 0.234375,37.67578125 0,34.921875 0.938415348529816,35.244140625 2.43530249595642,35.595703125 4.49066162109375,35.9765625 7.1044921875,36.38671875 12.572021484375,37.08984375 17.40234375,37.5 21.416015625,35.15625 17.4609375,30.966796875 12.36328125,31.81640625 7.62451171875,32.618408203125 3.98437476158142,33.3251953125 1.44287085533142,33.936767578125 0,34.453125 0.146483898162842,32.34375 0.234375,30.17578125 0,27.421875 0.964965641498566,27.7377319335938 2.36572241783142,28.070068359375 4.2022705078125,28.4188842773438 6.474609375,28.7841796875 16.494140625,29.94140625 13.447265625,26.953125 14.8828125,25.48095703125 16.845703125,23.583984375 12.2625732421875,24.3557739257813 8.56201171875,25.001220703125 5.74401807785034,25.5203247070313 3.80859375,25.9130859375 1.36230432987213,26.517333984375 0,27.01171875 0.146483898162842,24.931640625 0.234375,22.734375 0,19.98046875 1.05102515220642,20.3292865753174 2.6806640625,20.7019062042236 4.88891649246216,21.0983295440674 7.67578220367432,21.5185546875 13.30078125,22.225341796875 17.87109375,22.6171875 22.001953125,18.662109375 17.51953125,15.966796875 14.1796875,16.552734375 8.759765625,17.4755878448486 4.62890625,18.251953125 1.72851538658142,18.9184589385986 0,19.51171875 0.146483898162842,17.431640625 0.234375,15.234375 0,12.48046875 0.857848942279816,12.7725219726563 2.17163062095642,13.092041015625 3.94134521484375,13.4390258789063 6.1669921875,13.8134765625 15.64453125,14.94140625 13.740234375,13.9526376724243 12.421875,13.447265625 14.4287109375,11.42578125 16.201171875,8.994140625 17.105712890625,10.389404296875 18.9404296875,12.6416015625 23.26171875,17.40234375 30.38818359375,9.8583984375 36.416015625,2.46093845367432 36.416015625,1.259765625 36.357421875,0z" />
    </g>
  </g>
</svg>