<?xml version="1.0" encoding="utf-8"?>
<!DOCTYPE svg PUBLIC "-//W3C//DTD SVG 1.1//EN" "http://www.w3.org/Graphics/SVG/1.1/DTD/svg11.dtd">
<svg width="93.603515625" height="62.4609375" xmlns="http://www.w3.org/2000/svg" xmlns:xlink="http://www.w3.org/1999/xlink" xmlns:xml="http://www.w3.org/XML/1998/namespace" version="1.1">
  <g>
    <g>
      <path style="fill:#FF0000;fill-opacity:1" d="M24.462890625,5.03906345367432L25.72265625,5.91796922683716 22.3846416473389,11.4422607421875 18.9038066864014,17.52685546875 15.2801504135132,24.1717529296875 11.513671875,31.376953125 18.5082988739014,44.5166015625 25.72265625,56.806640625 24.462890625,57.71484375 16.34765625,48.837890625 12.3944091796875,44.476318359375 9.17724609375,40.9423828125 6.69616651535034,38.236083984375 4.951171875,36.357421875 2.33642554283142,33.6474609375 0,31.376953125 2.3419189453125,29.0057373046875 4.97314453125,26.25732421875 7.8936767578125,23.1317138671875 11.103515625,19.62890625 15.0146474838257,15.311279296875 18.5449199676514,11.4404296875 21.6943340301514,8.016357421875 24.462890625,5.03906345367432z M29.150390625,0L32.4966430664063,2.20275902748108 37.320556640625,4.91455125808716 43.6221313476563,8.1353759765625 51.4013671875,11.865234375 60.4275512695313,16.0125732421875 70.469970703125,20.48583984375 81.5286254882813,25.2850341796875 93.603515625,30.41015625 93.544921875,31.845703125 83.291015625,36.2109375 73.055419921875,40.6045532226563 63.6767578125,44.732666015625 55.155029296875,48.5952758789063 47.490234375,52.1923828125 40.8837890625,55.4324340820313 35.537109375,58.223876953125 31.4501953125,60.5667114257813 28.623046875,62.4609375 26.8505859375,55.9716796875 23.935546875,50.390625 26.9073486328125,49.9758911132813 30.57861328125,49.259033203125 34.9493408203125,48.2400512695313 40.01953125,46.9189453125 42.9666137695313,46.0974884033203 46.387939453125,45.1052856445313 50.2835083007813,43.9423370361328 54.6533203125,42.608642578125 59.4973754882813,41.1042022705078 64.815673828125,39.4290161132813 70.6082153320313,37.5830841064453 76.875,35.56640625 91.025390625,31.0546875 76.962890625,26.572265625 66.2026977539063,23.1509399414063 56.832275390625,20.240478515625 48.8516235351563,17.8408813476563 42.2607421875,15.9521484375 36.7263793945313,14.4827270507813 31.915283203125,13.341064453125 27.8274536132813,12.5271606445313 24.462890625,12.041015625 27.4072265625,6.43798828125 29.150390625,0z" />
    </g>
  </g>
</svg>