<?xml version="1.0" encoding="utf-8"?>
<!DOCTYPE svg PUBLIC "-//W3C//DTD SVG 1.1//EN" "http://www.w3.org/Graphics/SVG/1.1/DTD/svg11.dtd">
<svg width="47.255859375" height="47.314453125" xmlns="http://www.w3.org/2000/svg" xmlns:xlink="http://www.w3.org/1999/xlink" xmlns:xml="http://www.w3.org/XML/1998/namespace" version="1.1">
  <g>
    <g>
      <path style="fill:#FF0000;fill-opacity:1" d="M40.048828125,3.779296875L39.0087890625,4.1162109375 37.8369140625,4.9072265625 36.8701171875,6.15234375 36.474609375,7.8515625 36.7529296875,9.4482421875 37.5146484375,10.60546875 38.642578125,11.3232421875 39.990234375,11.572265625 41.3525390625,11.3232421875 42.509765625,10.60546875 43.3154296875,9.4482421875 43.623046875,7.8515625 43.2275390625,6.15234375 42.2607421875,4.9072265625 41.0888671875,4.1162109375 40.048828125,3.779296875z M0,0L36.85546875,0 39.3896484375,0.164794921875 41.54296875,0.6591796875 44.7802734375,2.4169921875 46.6552734375,4.9365234375 47.255859375,7.8515625 46.611328125,11.015625 44.9267578125,13.2568359375 42.59765625,14.58984375 40.01953125,15.029296875 37.44140625,14.58984375 35.1123046875,13.2568359375 33.427734375,11.015625 32.783203125,7.8515625 33.10546875,5.9619140625 33.837890625,4.5703125 34.892578125,3.427734375 22.470703125,3.427734375 23.2177715301514,5.0537109375 23.466796875,6.943359375 23.02734375,9.3896484375 21.8408203125,11.2646484375 20.09765625,12.6123046875 17.958984375,13.4765625 19.4677734375,15.8935546875 20.009765625,18.837890625 19.3212890625,22.7490234375 17.51953125,25.6494140625 14.970703125,27.8173828125 12.0556640625,29.5458984375 9.140625,31.1279296875 6.591796875,32.8564453125 4.7900390625,35.0244140625 4.1015625,37.939453125 4.5703125,40.0048828125 5.888671875,41.66015625 7.9248046875,42.7734375 10.546875,43.18359375 13.7255859375,42.7294921875 16.1865234375,41.5576171875 18.017578125,39.9169921875 19.3359375,38.056640625 20.2587890625,36.2548828125 20.888671875,34.74609375 22.060546875,34.74609375 23.0712890625,37.1044921875 24.755859375,39.8876953125 27.421875,42.216796875 29.2236328125,42.94189453125 31.40625,43.18359375 34.1748046875,42.626953125 36.240234375,41.1474609375 37.529296875,39.0087890625 37.96875,36.474609375 37.412109375,33.5302734375 36.005859375,31.025390625 38.73046875,28.88671875 39.5068359375,29.82421875 40.5029296875,31.435546875 41.3525390625,33.6767578125 41.71875,36.474609375 40.986328125,40.576171875 38.9208984375,44.033203125 35.68359375,46.4208984375 33.662109375,47.091064453125 31.40625,47.314453125 28.06640625,46.787109375 25.283203125,45.41015625 23.0712890625,43.4765625 21.474609375,41.279296875 19.9072265625,43.2421875 17.6513671875,45.205078125 14.501953125,46.7138671875 10.283203125,47.314453125 7.979736328125,47.120361328125 5.9326171875,46.5380859375 2.69531273841858,44.4873046875 0.688476800918579,41.54296875 0,38.115234375 0.688476800918579,34.130859375 2.50488305091858,31.1279296875 5.0830078125,28.857421875 8.02734375,27.0703125 10.9716796875,25.48828125 13.5498046875,23.8623046875 15.3662109375,21.9140625 16.0546875,19.365234375 15.703125,17.3876953125 14.677734375,15.76171875 12.978515625,14.6484375 10.60546875,14.23828125 7.91015625,14.677734375 5.9326171875,15.87890625 4.5556640625,17.724609375 3.69140601158142,20.068359375 0.146484613418579,19.130859375 1.12792992591858,16.259765625 2.72460961341858,13.88671875 0,13.88671875 0,10.458984375 14.619140625,10.458984375 16.6259765625,10.228271484375 18.193359375,9.5361328125 19.2041015625,8.426513671875 19.541015625,6.943359375 19.200439453125,5.460205078125 18.1787109375,4.3505859375 16.607666015625,3.658447265625 14.619140625,3.427734375 0,3.427734375 0,0z" />
    </g>
  </g>
</svg>