<?xml version="1.0" encoding="utf-8"?>
<!DOCTYPE svg PUBLIC "-//W3C//DTD SVG 1.1//EN" "http://www.w3.org/Graphics/SVG/1.1/DTD/svg11.dtd">
<svg width="38.6132812500002" height="29.150390625" xmlns="http://www.w3.org/2000/svg" xmlns:xlink="http://www.w3.org/1999/xlink" xmlns:xml="http://www.w3.org/XML/1998/namespace" version="1.1">
  <g>
    <g>
      <path style="fill:#FF0000;fill-opacity:1" d="M0.439453125,0L13.447265625,0 16.4794921875,0.41015625 19.423828125,1.7431640625 21.650390625,4.1162109375 22.3095684051514,5.716552734375 22.529296875,7.6171875 22.3278789520264,9.45556640625 21.7236328125,10.986328125 19.6142578125,13.330078125 16.6259765625,14.9267578125 13.1982421875,16.0546875 9.7705078125,16.9921875 6.7822265625,18.0029296875 4.6728515625,19.3798828125 4.06860303878784,20.284423828125 3.8671875,21.38671875 4.35058641433716,23.3056640625 5.6982421875,24.55078125 7.7197265625,25.2099609375 10.1953125,25.400390625 38.61328125,25.400390625 38.61328125,29.150390625 10.224609375,29.150390625 5.9912109375,28.623046875 2.7685546875,27.099609375 0.7177734375,24.697265625 0,21.533203125 0.201415836811066,19.749755859375 0.8056640625,18.2666015625 2.9150390625,16.025390625 5.9033203125,14.53125 9.3310546875,13.4765625 12.7587890625,12.5537109375 15.7470703125,11.4697265625 17.8564453125,9.931640625 18.460693359375,8.89892578125 18.662109375,7.6171875 18.2373046875,5.859375 17.0947265625,4.5849609375 15.4248046875,3.8232421875 13.41796875,3.57421875 0.439453125,3.57421875 0.439453125,0z" />
    </g>
  </g>
</svg>