<?xml version="1.0" encoding="utf-8"?>
<!DOCTYPE svg PUBLIC "-//W3C//DTD SVG 1.1//EN" "http://www.w3.org/Graphics/SVG/1.1/DTD/svg11.dtd">
<svg width="50.9765625000001" height="35.68359375" xmlns="http://www.w3.org/2000/svg" xmlns:xlink="http://www.w3.org/1999/xlink" xmlns:xml="http://www.w3.org/XML/1998/namespace" version="1.1">
  <g>
    <g>
      <path style="fill:#FF0000;fill-opacity:1" d="M14.4140625,3.57421875L13.1982421875,3.662109375 11.923828125,3.984375 11.2207021713257,5.77148580551147 10.986328125,7.5 11.3232421875,9.287109375 12.216796875,10.6494140625 13.505859375,11.5283203125 15.029296875,11.8359375 16.611328125,11.513671875 17.9296875,10.634765625 18.8232421875,9.31640625 19.16015625,7.67578125 18.80859375,6.0205078125 17.8125,4.7314453125 16.3037109375,3.8818359375 14.4140625,3.57421875z M14.794921875,0L18.45703125,0.703125 21.03515625,2.5341796875 22.5732421875,5.09765625 23.0859375,7.96875 22.5146484375,10.7373046875 20.888671875,13.18359375 18.3544921875,14.9267578125 15.087890625,15.5859375 11.982421875,15.0146484375 9.55078125,13.447265625 7.9541015625,11.162109375 7.3828125,8.408203125 7.44140625,7.55859375 7.55859375,6.73828125 5.914306640625,8.72314643859863 4.7314453125,11.162109375 4.01733350753784,14.1357421875 3.77929639816284,17.724609375 4.482421875,22.8076171875 6.5478515625,27.2314453125 8.074951171875,28.9892578125 9.931640625,30.3662109375 12.1142578125,31.256103515625 14.619140625,31.552734375 17.548828125,31.0986328125 19.921875,29.9267578125 21.796875,28.2861328125 23.2177734375,26.42578125 24.2431640625,24.609375 24.931640625,23.115234375 26.103515625,23.115234375 26.77734375,24.6240234375 27.802734375,26.42578125 29.23828125,28.2861328125 31.11328125,29.9267578125 33.486328125,31.0986328125 36.416015625,31.552734375 38.91357421875,31.256103515625 41.07421875,30.3662109375 42.89794921875,28.9892578125 44.384765625,27.2314453125 46.3623046875,22.8076171875 47.021484375,17.724609375 46.8273887634277,14.754638671875 46.2451171875,12.0556640625 44.1943359375,7.6611328125 42.828369140625,6.03515768051147 41.279296875,4.8193359375 39.609375,4.06128072738647 37.880859375,3.80859375 35.537109375,4.189453125 33.7353515625,5.2880859375 32.5634765625,7.060546875 32.138671875,9.43359375 32.33642578125,10.87646484375 32.9296875,12.216796875 35.009765625,14.5751953125 37.939453125,16.4794921875 41.30859375,17.9296875 41.30859375,21.240234375 9.169921875,21.240234375 9.169921875,17.6953125 33.8671875,17.6953125 31.46484375,16.0986328125 29.6923828125,13.9892578125 28.59375,11.5283203125 28.212890625,8.876953125 28.8720703125,5.6103515625 30.791015625,2.7685546875 33.837890625,0.76171875 35.7421875,0.1904296875 37.880859375,0 40.404052734375,0.34423828125 42.8173828125,1.376953125 45.0402793884277,3.00659251213074 46.9921875,5.1416015625 48.6254844665527,7.74170064926147 49.892578125,10.7666015625 50.7055625915527,14.124755859375 50.9765625,17.724609375 50.7165489196777,21.42333984375 49.9365234375,24.84375 48.6804161071777,27.9052734375 46.9921875,30.52734375 44.8901329040527,32.67333984375 42.392578125,34.306640625 39.55078125,35.33935546875 36.416015625,35.68359375 32.5341796875,35.0537109375 29.4287109375,33.5009765625 27.0849609375,31.5380859375 25.48828125,29.6484375 23.935546875,31.5380859375 21.6064453125,33.5009765625 18.5009765625,35.0537109375 14.619140625,35.68359375 11.4624013900757,35.33935546875 8.61328125,34.306640625 6.112060546875,32.67333984375 3.99902391433716,30.52734375 2.2998046875,27.9052734375 1.0400390625,24.84375 0.260009586811066,21.42333984375 0,17.724609375 0.300292789936066,13.9892578125 1.201171875,10.576171875 2.607421875,7.55127096176147 4.423828125,4.98046875 6.610107421875,2.89306712150574 9.1259765625,1.318359375 11.883544921875,0.32958984375 14.794921875,0z" />
    </g>
  </g>
</svg>