<?xml version="1.0" encoding="utf-8"?>
<!DOCTYPE svg PUBLIC "-//W3C//DTD SVG 1.1//EN" "http://www.w3.org/Graphics/SVG/1.1/DTD/svg11.dtd">
<svg width="25.78125" height="36.796875" xmlns="http://www.w3.org/2000/svg" xmlns:xlink="http://www.w3.org/1999/xlink" xmlns:xml="http://www.w3.org/XML/1998/namespace" version="1.1">
  <g>
    <g>
      <path style="fill:#FF0000;fill-opacity:1" d="M13.447265625,0L16.03271484375,0.19775390625 18.33984375,0.791015625 22.03125,2.9150390625 24.375,5.9912109375 24.9902324676514,7.76733541488647 25.1953125,9.609375 24.9462890625,12.0556640625 24.111328125,14.23828125 22.5732421875,16.142578125 20.185546875,17.75390625 22.470703125,19.2041015625 24.228515625,21.1669921875 25.37109375,23.5400390625 25.78125,26.19140625 25.5578594207764,28.1396484375 24.8876953125,30.05859375 23.7963848114014,31.8603515625 22.3095703125,33.45703125 18.2373046875,35.8740234375 15.699462890625,36.566162109375 12.861328125,36.796875 9.77783107757568,36.4453125 6.5625,35.390625 3.28125,33.62548828125 0,31.142578125 2.28515648841858,28.037109375 4.658203125,30 7.20703125,31.5673828125 9.9462890625,32.607421875 12.861328125,32.98828125 16.69921875,32.373046875 19.4970703125,30.7763671875 21.1962890625,28.59375 21.767578125,26.19140625 21.09375,23.291015625 19.27734375,21.181640625 16.5966796875,19.9072265625 13.359375,19.482421875 8.232421875,19.482421875 8.232421875,15.966796875 13.359375,15.966796875 16.669921875,15.5126953125 19.130859375,14.2529296875 20.654296875,12.3046875 21.181640625,9.755859375 20.6103515625,7.5 18.92578125,5.5810546875 16.201171875,4.248046875 12.5390625,3.75 10.4333486557007,3.96972727775574 8.3935546875,4.62890625 4.27734375,7.08984375 1.99218773841858,4.5703125 4.647216796875,2.442626953125 7.5146484375,1.0400390625 10.4846181869507,0.260009765625 13.447265625,0z" />
    </g>
  </g>
</svg>