<?xml version="1.0" encoding="utf-8"?>
<!DOCTYPE svg PUBLIC "-//W3C//DTD SVG 1.1//EN" "http://www.w3.org/Graphics/SVG/1.1/DTD/svg11.dtd">
<svg width="41.630859375" height="61.142578125" xmlns="http://www.w3.org/2000/svg" xmlns:xlink="http://www.w3.org/1999/xlink" xmlns:xml="http://www.w3.org/XML/1998/namespace" version="1.1">
  <g>
    <g>
      <path style="fill:#FF0000;fill-opacity:1" d="M17.666015625,50.625L18.837890625,50.625 21.26953125,60.908203125 21.09375,61.142578125 15.380859375,61.142578125 15.205078125,60.908203125 17.666015625,50.625z M9.521484375,37.060546875L7.177734375,37.5439453125 5.478515625,38.8037109375 4.45312452316284,40.5322265625 4.10156297683716,42.392578125 4.45312452316284,44.3408203125 5.478515625,46.0986328125 7.177734375,47.373046875 9.521484375,47.87109375 11.748046875,47.28515625 13.5205078125,45.849609375 14.8388671875,44.0625 15.673828125,42.392578125 14.8388671875,40.7080078125 13.53515625,38.96484375 11.7626953125,37.6025390625 9.521484375,37.060546875z M24.90234375,15.146484375L29.1064453125,16.5380859375 33.0322265625,18.984375 36.4599609375,22.3828125 39.1845703125,26.6162109375 40.986328125,31.552734375 41.630859375,37.08984375 41.356201171875,40.645751953125 40.5322265625,43.6962890625 39.261474609375,46.256103515625 37.646484375,48.33984375 35.74951171875,49.951171875 33.6328125,51.09375 31.39892578125,51.77490234375 29.150390625,52.001953125 25.693359375,51.4599609375 22.7197265625,50.009765625 20.244140625,47.9296875 18.251953125,45.498046875 16.0546875,48.75 14.82421875,49.951171875 13.330078125,50.9912109375 11.5576171875,51.7236328125 9.521484375,52.001953125 5.7568359375,51.298828125 2.73925733566284,49.3212890625 0.732422351837158,46.2890625 0,42.392578125 0.732422351837158,38.7451171875 2.72460889816284,35.7568359375 5.68359375,33.7353515625 9.31640625,32.98828125 12.802734375,33.6328125 15.46875,35.3173828125 17.5634765625,37.6904296875 19.365234375,40.4296875 21.15234375,43.1689453125 23.203125,45.5419921875 25.78125,47.2265625 29.150390625,47.87109375 30.948486328125,47.67333984375 32.5927734375,47.080078125 35.2880859375,44.8388671875 37.0458984375,41.30859375 37.67578125,36.650390625 37.437744140625,33.603515625 36.7236328125,30.673828125 35.577392578125,27.930908203125 34.04296875,25.4443359375 29.853515625,21.357421875 27.2534160614014,19.8559589385986 24.375,18.80859375 24.90234375,15.146484375z M25.1953125,0L28.330078125,2.78320336341858 28.330078125,3.07617163658142 13.447265625,18.80859375 12.275390625,18.80859375 2.51953125,8.73046875 2.51953125,8.4375 5.654296875,5.65429735183716 12.861328125,14.53125 25.1953125,0z" />
    </g>
  </g>
</svg>