<?xml version="1.0" encoding="utf-8"?>
<!DOCTYPE svg PUBLIC "-//W3C//DTD SVG 1.1//EN" "http://www.w3.org/Graphics/SVG/1.1/DTD/svg11.dtd">
<svg width="47.9589843750003" height="36.884765625" xmlns="http://www.w3.org/2000/svg" xmlns:xlink="http://www.w3.org/1999/xlink" xmlns:xml="http://www.w3.org/XML/1998/namespace" version="1.1">
  <g>
    <g>
      <path style="fill:#FF0000;fill-opacity:1" d="M30.1171875,24.08203125L28.623046875,24.345703125 27.392578125,25.107421875 26.54296875,26.30859375 26.220703125,27.890625 26.5283203125,29.5166015625 27.3779296875,30.849609375 28.623046875,31.8603515625 30.1171875,32.51953125 31.611328125,31.8603515625 32.8564453125,30.849609375 33.7060546875,29.5166015625 34.013671875,27.890625 33.69140625,26.30859375 32.841796875,25.107421875 31.611328125,24.345703125 30.1171875,24.08203125z M11.982421875,0L16.171875,0.6884765625 19.248046875,2.3876953125 21.416015625,4.5263671875 22.880859375,6.50390625 24.345703125,4.5263671875 26.513671875,2.3876953125 29.58984375,0.6884765625 33.779296875,0 36.624755859375,0.311279296875 39.3017578125,1.2451171875 41.72607421875,2.757568359375 43.8134765625,4.8046875 45.5310020446777,7.35717916488647 46.845703125,10.3857421875 47.6806602478027,13.853759765625 47.958984375,17.724609375 47.6806602478027,22.4560546875 46.845703125,26.455078125 45.5126914978027,29.75830078125 43.740234375,32.40234375 41.55029296875,34.4091796875 38.96484375,35.80078125 36.04248046875,36.61376953125 32.841796875,36.884765625 28.3154296875,36.1376953125 25.0634765625,34.1162109375 23.1005859375,31.171875 22.44140625,27.626953125 22.96875,24.78515625 24.4775390625,22.470703125 26.865234375,20.9033203125 30.05859375,20.33203125 32.6513671875,20.7421875 35.15625,22.03125 37.060546875,24.31640625 37.6318359375,25.87646484375 37.822265625,27.744140625 37.119140625,30.615234375 36.1669921875,32.021484375 34.716796875,33.310546875 38.1591796875,32.2705078125 39.744873046875,31.226806640625 41.1328125,29.765625 42.29736328125,27.850341796875 43.212890625,25.4443359375 43.80615234375,22.496337890625 44.00390625,18.955078125 43.798828125,15.9375 43.125,12.6416015625 41.89453125,9.4482421875 39.990234375,6.73828125 37.3095703125,4.8486328125 33.779296875,4.130859375 31.51611328125,4.36889791488647 29.58984375,5.0830078125 26.6015625,7.3828125 24.609375,10.1513671875 23.466796875,12.5390625 22.294921875,12.5390625 21.6064453125,11.044921875 20.5810546875,9.228515625 19.16015625,7.3828125 17.28515625,5.7568359375 14.912109375,4.5849609375 11.982421875,4.130859375 8.61328125,4.7021484375 6.1376953125,6.1962890625 4.599609375,8.291015625 4.072265625,10.693359375 4.775390625,13.623046875 6.5625,15.791015625 8.935546875,17.1240234375 11.396484375,17.578125 15.556640625,17.578125 15.556640625,21.09375 11.630859375,21.09375 9.0380859375,21.4892578125 6.6796875,22.6611328125 4.951171875,24.6240234375 4.27734327316284,27.392578125 4.7314453125,29.560546875 6.03515625,31.3623046875 8.1005859375,32.578125 10.810546875,33.017578125 13.095703125,32.8125 15.2197265625,32.255859375 17.080078125,31.4794921875 18.544921875,30.615234375 20.009765625,33.662109375 18.1201171875,34.9072265625 15.8349609375,35.91796875 13.330078125,36.6064453125 10.810546875,36.85546875 8.360595703125,36.654052734375 6.2255859375,36.0498046875 2.91503858566284,33.9111328125 0.908203125,30.87890625 0.234374761581421,27.392578125 0.6591796875,24.638671875 1.83105421066284,22.3095703125 3.57421922683716,20.5078125 5.712890625,19.3359375 3.54492235183716,17.9150390625 1.728515625,15.99609375 0.468749761581421,13.59375 0,10.693359375 0.197753727436066,8.67553901672363 0.791015625,6.7236328125 3.1201171875,3.310546875 6.884765625,0.908203125 9.27245998382568,0.22705078125 11.982421875,0z" />
    </g>
  </g>
</svg>