<?xml version="1.0" encoding="utf-8"?>
<!DOCTYPE svg PUBLIC "-//W3C//DTD SVG 1.1//EN" "http://www.w3.org/Graphics/SVG/1.1/DTD/svg11.dtd">
<svg width="49.0722656250001" height="44.501953125" xmlns="http://www.w3.org/2000/svg" xmlns:xlink="http://www.w3.org/1999/xlink" xmlns:xml="http://www.w3.org/XML/1998/namespace" version="1.1">
  <g>
    <g>
      <path style="fill:#FF0000;fill-opacity:1" d="M14.4140625,12.36328125L13.1982421875,12.451171875 11.923828125,12.7734375 11.2207021713257,14.5605487823486 10.986328125,16.2890625 11.3232421875,18.076171875 12.216796875,19.4384765625 13.505859375,20.3173828125 15.029296875,20.625 16.611328125,20.302734375 17.9296875,19.423828125 18.8232421875,18.10546875 19.16015625,16.46484375 18.80859375,14.8095703125 17.8125,13.5205078125 16.3037109375,12.6708984375 14.4140625,12.36328125z M11.6015625,0L16.69921875,0 15.791015625,8.759765625 18.9111328125,9.697265625 21.1962890625,11.513671875 22.6025390625,13.9599609375 23.0859375,16.7578125 22.5146484375,19.5263671875 20.888671875,21.97265625 18.3544921875,23.7158203125 15.087890625,24.375 11.982421875,23.8037109375 9.55078125,22.236328125 7.9541015625,19.951171875 7.3828125,17.197265625 7.412109375,16.494140625 7.5,15.8203125 6.08642578125,17.8381366729736 4.951171875,20.3173828125 4.20410108566284,23.331298828125 3.955078125,26.953125 4.5849609375,31.6845703125 6.5478515625,36.005859375 9.931640625,39.1552734375 12.18017578125,40.067138671875 14.82421875,40.37109375 17.75390625,39.9169921875 20.1123046875,38.7451171875 21.97265625,37.1044921875 23.3935546875,35.244140625 24.4189453125,33.427734375 25.107421875,31.93359375 26.279296875,31.93359375 26.953125,33.4423828125 27.978515625,35.244140625 29.4140625,37.1044921875 31.2890625,38.7451171875 33.662109375,39.9169921875 36.591796875,40.37109375 38.389892578125,40.17333984375 40.0341796875,39.580078125 42.7294921875,37.3388671875 44.4873046875,33.80859375 45.1171875,29.150390625 44.8754844665527,26.092529296875 44.150390625,23.1298828125 42.98583984375,20.343017578125 41.42578125,17.8125 37.2216796875,13.65234375 34.654541015625,12.1289072036743 31.845703125,11.07421875 32.34375,7.64648485183716 36.5478515625,9.0380859375 40.4736328125,11.484375 43.9013671875,14.8828125 46.6259765625,19.1162109375 48.427734375,24.052734375 49.072265625,29.58984375 48.7976036071777,33.145751953125 47.9736328125,36.1962890625 46.7028770446777,38.756103515625 45.087890625,40.83984375 43.19091796875,42.451171875 41.07421875,43.59375 38.84033203125,44.27490234375 36.591796875,44.501953125 32.7392578125,43.8720703125 29.619140625,42.3193359375 27.2607421875,40.3564453125 25.693359375,38.466796875 24.140625,40.3564453125 21.8115234375,42.3193359375 18.7060546875,43.8720703125 14.82421875,44.501953125 11.66015625,44.161376953125 8.7890625,43.1396484375 6.258544921875,41.54296875 4.11621141433716,39.4775390625 2.384033203125,36.983642578125 1.083984375,34.1015625 0.270995914936066,30.9375 0,27.59765625 0.245361149311066,24.063720703125 0.9814453125,20.7861328125 3.662109375,15.2197265625 5.504150390625,13.0041522979736 7.6318359375,11.19140625 9.97192287445068,9.83642578125 12.451171875,8.994140625 11.6015625,0z" />
    </g>
  </g>
</svg>