<?xml version="1.0" encoding="utf-8"?>
<!DOCTYPE svg PUBLIC "-//W3C//DTD SVG 1.1//EN" "http://www.w3.org/Graphics/SVG/1.1/DTD/svg11.dtd">
<svg width="108.046875" height="36.85546875" xmlns="http://www.w3.org/2000/svg" xmlns:xlink="http://www.w3.org/1999/xlink" xmlns:xml="http://www.w3.org/XML/1998/namespace" version="1.1">
  <g>
    <g>
      <path style="fill:#FF0000;fill-opacity:1" d="M100.83984375,3.779296875L99.7998046875,4.1162109375 98.6279296875,4.9072265625 97.6611328125,6.15234375 97.265625,7.8515625 97.5439453125,9.4482421875 98.3056640625,10.60546875 99.43359375,11.3232421875 100.78125,11.572265625 102.1435546875,11.3232421875 103.30078125,10.60546875 104.1064453125,9.4482421875 104.4140625,7.8515625 104.0185546875,6.15234375 103.0517578125,4.9072265625 101.8798828125,4.1162109375 100.83984375,3.779296875z M10.4882822036743,0L14.296875,0.6298828125 17.314453125,2.373046875 19.2919921875,5.0244140625 20.009765625,8.37890625 19.3212890625,12.2900390625 17.51953125,15.1904296875 14.970703125,17.3583984375 12.0556640625,19.0869140625 9.14062595367432,20.6689453125 6.591796875,22.3974609375 4.79003810882568,24.5654296875 4.10156345367432,27.48046875 4.5703125,29.560546875 5.888671875,31.23046875 7.9248046875,32.34375 10.546875,32.75390625 13.7255859375,32.2998046875 16.1865234375,31.1279296875 18.017578125,29.4873046875 19.3359375,27.6123046875 20.2587890625,25.7958984375 20.888671875,24.287109375 22.060546875,24.287109375 23.0712890625,26.6455078125 24.755859375,29.4287109375 27.421875,31.7578125 29.2236328125,32.48291015625 31.40625,32.724609375 33.204345703125,32.52685546875 34.8486328125,31.93359375 37.5439453125,29.6923828125 39.3017578125,26.162109375 39.931640625,21.50390625 39.693603515625,18.44970703125 38.9794921875,15.498046875 37.833251953125,12.7294921875 36.298828125,10.224609375 32.109375,6.1083984375 29.50927734375,4.59594869613647 26.630859375,3.544921875 27.158203125,0 31.3623046875,1.3916015625 35.2880859375,3.837890625 38.73046875,7.236328125 41.455078125,11.4697265625 43.2421875,16.40625 43.8066177368164,21.2552070617676 43.828125,21.2109375 45.1025390625,25.9716796875 47.197265625,29.58984375 50.15625,31.904296875 51.9653282165527,32.51953125 53.994140625,32.724609375 55.7922325134277,32.52685546875 57.4365234375,31.93359375 60.1318359375,29.6923828125 61.8896484375,26.162109375 62.51953125,21.50390625 62.281494140625,18.45703125 61.5673828125,15.52734375 60.421142578125,12.784423828125 58.88671875,10.2978515625 54.697265625,6.2109375 52.0971641540527,4.70947408676147 49.21875,3.662109375 49.74609375,0 53.9501953125,1.3916015625 57.8759765625,3.837890625 61.3037109375,7.236328125 64.0283203125,11.4697265625 65.830078125,16.40625 66.4001693725586,21.3038520812988 66.4453125,21.2109375 67.7197265625,25.9716796875 69.814453125,29.58984375 72.7734375,31.904296875 74.58251953125,32.51953125 76.611328125,32.724609375 78.409423828125,32.52685546875 80.0537109375,31.93359375 82.7490234375,29.6923828125 84.5068359375,26.162109375 85.13671875,21.50390625 84.898681640625,18.45703125 84.1845703125,15.52734375 83.038330078125,12.784423828125 81.50390625,10.2978515625 77.314453125,6.2109375 74.71435546875,4.70947408676147 71.8359375,3.662109375 72.36328125,0 97.646484375,0 100.180656433105,0.16479480266571 102.333984375,0.659178733825684 105.5712890625,2.4169921875 107.4462890625,4.9365234375 108.046875,7.8515625 107.40234375,11.015625 105.7177734375,13.2568359375 103.388671875,14.58984375 100.810546875,15.029296875 98.232421875,14.58984375 95.9033203125,13.2568359375 94.21875,11.015625 93.57421875,7.8515625 93.896484375,5.9619140625 94.62890625,4.5703125 95.68359375,3.427734375 79.8349456787109,3.427734375 80.4931640625,3.837890625 83.9208984375,7.236328125 86.6455078125,11.4697265625 88.447265625,16.40625 89.091796875,21.943359375 88.817138671875,25.499267578125 87.9931640625,28.5498046875 86.722412109375,31.109619140625 85.107421875,33.193359375 83.21044921875,34.8046875 81.09375,35.947265625 78.85986328125,36.62841796875 76.611328125,36.85546875 72.4658203125,36.26953125 69.3310546875,34.74609375 67.060546875,32.63671875 65.4931640625,30.3076171875 64.9829711914063,29.182201385498 62.490234375,33.193359375 60.59326171875,34.8046875 58.4765625,35.947265625 56.2426719665527,36.62841796875 53.994140625,36.85546875 49.8486328125,36.26953125 46.7138671875,34.74609375 44.443359375,32.63671875 42.8759765625,30.3076171875 42.3781433105469,29.2094573974609 39.90234375,33.193359375 38.00537109375,34.8046875 35.888671875,35.947265625 33.65478515625,36.62841796875 31.40625,36.85546875 28.06640625,36.328125 25.283203125,34.951171875 23.0712890625,33.017578125 21.474609375,30.8203125 19.9072265625,32.783203125 17.6513671875,34.74609375 14.501953125,36.2548828125 10.283203125,36.85546875 7.979736328125,36.661376953125 5.93261814117432,36.0791015625 2.69531202316284,34.0283203125 0.688477039337158,31.083984375 0,27.65625 0.688477039337158,23.671875 2.50488328933716,20.6689453125 5.0830078125,18.3984375 8.02734375,16.611328125 10.9716796875,15.029296875 13.5498046875,13.4033203125 15.3662109375,11.455078125 16.0546875,8.90625 15.703125,6.9287109375 14.677734375,5.302734375 12.978515625,4.189453125 10.60546875,3.779296875 7.91015720367432,4.21875 5.93261814117432,5.419921875 4.5556640625,7.265625 3.69140625,9.609375 0.146484851837158,8.671875 1.52343702316284,5.09765625 3.8525390625,2.3583984375 6.9140625,0.615235328674316 10.4882822036743,0z" />
    </g>
  </g>
</svg>