<?xml version="1.0" encoding="utf-8"?>
<!DOCTYPE svg PUBLIC "-//W3C//DTD SVG 1.1//EN" "http://www.w3.org/Graphics/SVG/1.1/DTD/svg11.dtd">
<svg width="41.7187500000007" height="52.587890625" xmlns="http://www.w3.org/2000/svg" xmlns:xlink="http://www.w3.org/1999/xlink" xmlns:xml="http://www.w3.org/XML/1998/namespace" version="1.1">
  <g>
    <g>
      <path style="fill:#FF0000;fill-opacity:1" d="M10.48828125,15.732421875L14.296875,16.3623046875 17.314453125,18.10546875 19.1569538116455,20.5757846832275 19.16015625,20.537109375 21.1376953125,22.96875 23.5546875,25.1953125 26.5869140625,26.8212890625 30.439453125,27.451171875 32.51953125,27.1435546875 34.1455078125,26.2939453125 35.2001953125,25.0048828125 35.56640625,23.349609375 35.33203125,21.826171875 34.5703125,20.5224609375 33.193359375,19.6142578125 31.11328125,19.27734375 26.689453125,19.27734375 26.689453125,15.732421875 30.849609375,15.732421875 34.62890625,16.2890625 37.3681640625,17.8564453125 39.0234375,20.2587890625 39.580078125,23.3203125 38.8623046875,26.3671875 36.8994140625,28.8720703125 33.9990234375,30.5712890625 30.46875,31.201171875 26.630859375,30.6591796875 23.2470703125,29.2529296875 20.5517578125,27.3046875 19.6432495117188,26.193452835083 19.3212890625,28.0224609375 17.51953125,30.9228515625 14.970703125,33.0908203125 12.0556640625,34.8193359375 9.140625,36.4013671875 6.591796875,38.1298828125 4.7900390625,40.2978515625 4.1015625,43.212890625 4.5703125,45.2783203125 5.888671875,46.93359375 7.9248046875,48.046875 10.546875,48.45703125 13.7255859375,48.0029296875 16.1865234375,46.8310546875 18.0322265625,45.1904296875 19.3505859375,43.330078125 20.2587890625,41.513671875 20.888671875,40.01953125 22.060546875,40.01953125 23.0712890625,42.3779296875 24.755859375,45.1611328125 27.421875,47.490234375 29.2236328125,48.21533203125 31.40625,48.45703125 34.1748046875,47.900390625 36.240234375,46.4208984375 37.529296875,44.2822265625 37.96875,41.748046875 37.412109375,38.8037109375 36.005859375,36.298828125 38.73046875,34.16015625 39.5068359375,35.09765625 40.5029296875,36.708984375 41.3525390625,38.9501953125 41.71875,41.748046875 40.986328125,45.849609375 38.9208984375,49.306640625 35.68359375,51.6943359375 33.662109375,52.364501953125 31.40625,52.587890625 28.06640625,52.060546875 25.283203125,50.68359375 23.0712890625,48.75 21.474609375,46.552734375 19.9072265625,48.515625 17.6513671875,50.478515625 14.501953125,51.9873046875 10.283203125,52.587890625 7.979736328125,52.393798828125 5.9326171875,51.8115234375 2.69531273841858,49.7607421875 0.688476324081421,46.81640625 0,43.388671875 0.688476324081421,39.404296875 2.50488257408142,36.4013671875 5.0830078125,34.130859375 8.02734375,32.34375 10.9716796875,30.76171875 13.5498046875,29.1357421875 15.3662109375,27.1875 16.0546875,24.638671875 15.703125,22.6611328125 14.677734375,21.03515625 12.978515625,19.921875 10.60546875,19.51171875 7.91015625,19.951171875 5.9326171875,21.15234375 4.5556640625,22.998046875 3.69140553474426,25.341796875 0.146483659744263,24.404296875 1.52343773841858,20.830078125 3.85253930091858,18.0908203125 6.9140625,16.34765625 10.48828125,15.732421875z M34.3359375,2.98828077316284L32.8271484375,3.603515625 32.16796875,5.36132764816284 32.51953125,6.57714796066284 33.28125,7.38281297683716 34.39453125,7.998046875 35.478515625,7.38281297683716 36.240234375,6.57714796066284 36.591796875,5.36132764816284 35.9033203125,3.603515625 34.3359375,2.98828077316284z M34.3359375,0L36.3427734375,0.366210997104645 38.14453125,1.45019507408142 39.43359375,3.20800805091858 39.931640625,5.56640625 39.462890625,7.69042921066284 38.056640625,9.4775390625 35.7275390625,10.72265625 32.490234375,11.19140625 1.81640601158142,11.19140625 1.81640601158142,7.96875047683716 29.6484375,7.96875047683716 29.0625,6.73828077316284 28.76953125,5.185546875 29.2236328125,3.0615234375 30.439453125,1.43554675579071 32.2119140625,0.380859225988388 34.3359375,0z" />
    </g>
  </g>
</svg>