<?xml version="1.0" encoding="utf-8"?>
<!DOCTYPE svg PUBLIC "-//W3C//DTD SVG 1.1//EN" "http://www.w3.org/Graphics/SVG/1.1/DTD/svg11.dtd">
<svg width="44.5605468750001" height="31.376953125" xmlns="http://www.w3.org/2000/svg" xmlns:xlink="http://www.w3.org/1999/xlink" xmlns:xml="http://www.w3.org/XML/1998/namespace" version="1.1">
  <g>
    <g>
      <path style="fill:#FF0000;fill-opacity:1" d="M13.623046875,3.720703125L12.4658203125,3.80859375 11.337890625,4.1015625 10.7080078125,5.6982421875 10.48828125,7.265625 10.78125,8.9208984375 11.572265625,10.1513671875 12.7294921875,10.927734375 14.150390625,11.19140625 15.5859375,10.9130859375 16.7578125,10.1220703125 17.548828125,8.9208984375 17.841796875,7.412109375 17.548828125,5.90698385238647 16.669921875,4.7314453125 15.322265625,3.97339010238647 13.623046875,3.720703125z M13.916015625,0L17.4609375,0.673828125 19.98046875,2.4462890625 21.474609375,4.921875 21.97265625,7.705078125 21.416015625,10.400390625 19.833984375,12.744140625 17.373046875,14.4140625 14.1796875,15.05859375 11.1767578125,14.501953125 8.8330078125,13.0078125 7.294921875,10.7958984375 6.73828125,8.115234375 6.796875,7.294921875 6.943359375,6.533203125 5.4052734375,8.1591796875 4.37988233566284,9.873046875 3.80859375,11.865234375 3.6328125,14.35546875 4.3212890625,18.69140625 6.2109375,22.060546875 9.052734375,24.55078125 12.568359375,26.2353515625 16.494140625,27.1875 20.595703125,27.48046875 26.4990234375,26.7333984375 29.326171875,25.770263671875 32.0361328125,24.375 34.62158203125,22.532958984375 37.0751953125,20.2294921875 39.371337890625,17.435302734375 41.484375,14.12109375 44.560546875,15.99609375 40.2392578125,22.3828125 37.62451171875,25.015869140625 34.7314453125,27.2314453125 31.5673828125,29.00390625 28.1396484375,30.3076171875 24.4738750457764,31.109619140625 20.595703125,31.376953125 16.259765625,31.0400390625 11.66015625,29.94140625 7.265625,27.919921875 3.54492139816284,24.7998046875 0.966796875,20.4345703125 0.241699039936066,17.735595703125 0,14.6484375 0.274658024311066,11.7626953125 1.0986328125,9.0234375 2.39501953125,6.52221822738647 4.0869140625,4.3505859375 6.1376953125,2.55249166488647 8.5107421875,1.171875 11.1291494369507,0.292970180511475 13.916015625,0z" />
    </g>
  </g>
</svg>