<?xml version="1.0" encoding="utf-8"?>
<!DOCTYPE svg PUBLIC "-//W3C//DTD SVG 1.1//EN" "http://www.w3.org/Graphics/SVG/1.1/DTD/svg11.dtd">
<svg width="83.2617187500002" height="50.56640625" xmlns="http://www.w3.org/2000/svg" xmlns:xlink="http://www.w3.org/1999/xlink" xmlns:xml="http://www.w3.org/XML/1998/namespace" version="1.1">
  <g>
    <g>
      <path style="fill:#FF0000;fill-opacity:1" d="M76.0546875,3.779296875L75.0146484375,4.1162109375 73.8427734375,4.9072265625 72.8759765625,6.15234375 72.48046875,7.8515625 72.7587890625,9.4482421875 73.5205078125,10.60546875 74.6484375,11.3232421875 75.99609375,11.572265625 77.3583984375,11.3232421875 78.515625,10.60546875 79.3212890625,9.4482421875 79.62890625,7.8515625 79.2333984375,6.15234375 78.2666015625,4.9072265625 77.0947265625,4.1162109375 76.0546875,3.779296875z M11.484375,0L15.3369140625,0.644532203674316 18.1494140625,2.2412109375 19.9951171875,4.2626953125 20.9765625,6.2109375 22.0166015625,4.21875 23.9794921875,2.197265625 26.89453125,0.6298828125 30.8203125,0 33.079833984375,0.22705078125 35.2880859375,0.908203125 37.34619140625,2.0068359375 39.1552734375,3.486328125 41.865234375,7.5146484375 42.63427734375,10.0012226104736 42.890625,12.744140625 42.2607421875,17.3876953125 40.517578125,21.0205078125 37.9248046875,23.8037109375 34.7314453125,25.9423828125 31.1865234375,27.6416015625 27.568359375,29.0625 23.5400390625,30.6591796875 20.1416015625,32.490234375 17.7978515625,34.8486328125 17.149658203125,36.309814453125 16.93359375,38.02734375 17.607421875,40.8544921875 18.482666015625,42.3046875 19.7607421875,43.6376953125 21.4599590301514,44.80224609375 23.5986328125,45.7470703125 26.2097148895264,46.373291015625 29.326171875,46.58203125 32.728271484375,46.376953125 35.9619140625,45.76171875 41.806640625,43.4326171875 46.6845703125,39.7998046875 50.390625,35.068359375 52.7490234375,29.4287109375 53.3752403259277,26.334228515625 53.583984375,23.115234375 52.9833984375,17.2998046875 51.26953125,11.8505859375 48.515625,6.9873046875 44.82421875,2.87109375 47.578125,0 72.861328125,0 75.3955078125,0.164794921875 77.548828125,0.6591796875 80.7861328125,2.4169921875 82.6611328125,4.9365234375 83.26171875,7.8515625 82.6171875,11.015625 80.9326171875,13.2568359375 78.603515625,14.58984375 76.025390625,15.029296875 73.447265625,14.58984375 71.1181640625,13.2568359375 69.43359375,11.015625 68.7890625,7.8515625 69.111328125,5.9619140625 69.84375,4.5703125 70.8984375,3.427734375 50.6933326721191,3.427734375 52.1044921875,4.98046875 55.2685546875,10.634765625 57.12890625,16.7724609375 57.744140625,23.232421875 57.5500450134277,26.517333984375 56.9677734375,29.8095703125 55.9936485290527,33.043212890625 54.6240234375,36.15234375 52.8588829040527,39.093017578125 50.6982421875,41.8212890625 48.1457481384277,44.27490234375 45.205078125,46.3916015625 41.876220703125,48.131103515625 38.1591796875,49.453125 34.046630859375,50.2880859375 29.53125,50.56640625 23.759765625,49.951171875 19.3505859375,48.3251953125 16.171875,46.0107421875 14.091796875,43.3154296875 12.94921875,40.546875 12.59765625,38.02734375 12.879638671875,35.504150390625 13.7255859375,33.3837890625 16.69921875,30.05859375 20.9033203125,27.6123046875 25.72265625,25.60546875 30.5419921875,23.583984375 34.7607421875,21.09375 37.7490234375,17.6953125 38.594970703125,15.52001953125 38.876953125,12.919921875 38.1591796875,8.9794921875 36.298828125,6.240234375 33.7060546875,4.6435546875 30.8203125,4.130859375 28.8134765625,4.32861471176147 27.12890625,4.921875 24.6240234375,6.884765625 23.1884765625,9.4189453125 22.734375,11.923828125 22.734375,19.189453125 18.92578125,19.189453125 18.92578125,11.923828125 18.57421875,9.4189453125 17.373046875,6.884765625 15.087890625,4.921875 13.46923828125,4.32861471176147 11.484375,4.130859375 8.5546875,4.658203125 6.15234375,6.15234375 4.541015625,8.5107421875 3.955078125,11.6015625 4.599609375,15.1611328125 6.357421875,18.486328125 3.22265672683716,20.244140625 1.812744140625,18.240966796875 0.805663585662842,16.0986328125 0.201415777206421,13.868408203125 0,11.6015625 0.245361149311066,8.99780464172363 0.9814453125,6.6943359375 3.58886671066284,3.046875 7.265625,0.7763671875 9.34570217132568,0.194091796875 11.484375,0z" />
    </g>
  </g>
</svg>