<?xml version="1.0" encoding="utf-8"?>
<!DOCTYPE svg PUBLIC "-//W3C//DTD SVG 1.1//EN" "http://www.w3.org/Graphics/SVG/1.1/DTD/svg11.dtd">
<svg width="46.4648437500002" height="52.001953125" xmlns="http://www.w3.org/2000/svg" xmlns:xlink="http://www.w3.org/1999/xlink" xmlns:xml="http://www.w3.org/XML/1998/namespace" version="1.1">
  <g>
    <g>
      <path style="fill:#FF0000;fill-opacity:1" d="M38.466796875,30.380859375L36.9140625,30.673828125 35.6396484375,31.494140625 34.775390625,32.7392578125 34.453125,34.27734375 34.7607421875,35.830078125 35.595703125,37.0458984375 36.85546875,37.8515625 38.4375,38.14453125 39.9609375,37.8515625 41.19140625,37.060546875 42.0263671875,35.859375 42.333984375,34.3359375 42.041015625,32.8271484375 41.220703125,31.5673828125 39.990234375,30.703125 38.466796875,30.380859375z M23.37890625,18.779296875L18.2666015625,19.4384765625 13.6376953125,21.2841796875 9.697265625,24.111328125 6.6357421875,27.744140625 4.658203125,31.9921875 3.95507860183716,36.650390625 4.5849609375,41.30859375 6.3427734375,44.8388671875 9.0380859375,47.080078125 10.6823720932007,47.67333984375 12.48046875,47.87109375 15.41015625,47.4169921875 17.783203125,46.2451171875 19.658203125,44.6044921875 21.0791015625,42.744140625 22.1044921875,40.927734375 22.79296875,39.43359375 23.96484375,39.43359375 24.638671875,40.9423828125 25.6640625,42.744140625 27.099609375,44.6044921875 28.974609375,46.2451171875 31.34765625,47.4169921875 34.27734375,47.87109375 37.119140625,47.3583984375 39.4921875,45.8642578125 41.2939453125,43.4765625 42.421875,40.283203125 40.37109375,41.630859375 37.8515625,42.12890625 34.98046875,41.4990234375 32.6220703125,39.814453125 31.025390625,37.3681640625 30.439453125,34.423828125 31.0693359375,31.5380859375 32.75390625,29.150390625 35.2001953125,27.5244140625 38.115234375,26.923828125 38.9501953125,26.9970703125 39.7265625,27.158203125 36.650390625,23.7744140625 32.783203125,21.123046875 28.30078125,19.39453125 23.37890625,18.779296875z M35.56640625,0L38.701171875,2.783203125 38.701171875,3.076171875 26.832067489624,15.612078666687 29.8974609375,16.025390625 35.537109375,18.45703125 40.13671875,22.119140625 43.564453125,26.66015625 45.7177734375,31.7578125 46.46484375,37.08984375 46.1975059509277,40.667724609375 45.3955078125,43.7255859375 44.15771484375,46.285400390625 42.5830078125,48.369140625 40.72998046875,49.976806640625 38.6572265625,51.1083984375 36.470947265625,51.778564453125 34.27734375,52.001953125 30.4248046875,51.3720703125 27.3046875,49.8193359375 24.931640625,47.8564453125 23.349609375,45.966796875 21.796875,47.8564453125 19.4677734375,49.8193359375 16.3623046875,51.3720703125 12.48046875,52.001953125 10.2758779525757,51.778564453125 8.056640625,51.1083984375 5.93994140625,49.976806640625 4.04296875,48.369140625 2.420654296875,46.285400390625 1.1279296875,43.7255859375 0.281982243061066,40.667724609375 0,37.08984375 0.190429508686066,34.423828125 0.76171875,31.7578125 2.9736328125,26.66015625 6.4892578125,22.119140625 11.1474609375,18.45703125 16.8310546875,16.025390625 19.5902042388916,15.6550350189209 12.890625,8.73046875 12.890625,8.4375 16.025390625,5.65429639816284 23.232421875,14.53125 35.56640625,0z" />
    </g>
  </g>
</svg>