<?xml version="1.0" encoding="utf-8"?>
<!DOCTYPE svg PUBLIC "-//W3C//DTD SVG 1.1//EN" "http://www.w3.org/Graphics/SVG/1.1/DTD/svg11.dtd">
<svg width="41.630859375" height="52.001953125" xmlns="http://www.w3.org/2000/svg" xmlns:xlink="http://www.w3.org/1999/xlink" xmlns:xml="http://www.w3.org/XML/1998/namespace" version="1.1">
  <g>
    <g>
      <path style="fill:#FF0000;fill-opacity:1" d="M9.521484375,37.060546875L7.17773485183716,37.5439453125 5.47851610183716,38.8037109375 4.45312547683716,40.5322265625 4.10156297683716,42.392578125 4.45312547683716,44.3408203125 5.47851610183716,46.0986328125 7.17773485183716,47.373046875 9.521484375,47.87109375 11.748046875,47.28515625 13.5205078125,45.849609375 14.8388671875,44.0625 15.673828125,42.392578125 14.8388671875,40.7080078125 13.53515625,38.96484375 11.7626953125,37.6025390625 9.521484375,37.060546875z M31.171875,0L34.306640625,2.783203125 34.306640625,3.076171875 22.3657970428467,15.6986780166626 24.7998046875,16.025390625 30.4833984375,18.45703125 35.1416015625,22.119140625 38.6572265625,26.66015625 40.869140625,31.7578125 41.4404296875,34.423828125 41.630859375,37.08984375 41.348876953125,40.667724609375 40.5029296875,43.7255859375 39.210205078125,46.285400390625 37.587890625,48.369140625 35.69091796875,49.976806640625 33.57421875,51.1083984375 31.35498046875,51.778564453125 29.150390625,52.001953125 25.693359375,51.4599609375 22.7197265625,50.009765625 20.244140625,47.9296875 18.251953125,45.498046875 16.0546875,48.75 14.82421875,49.951171875 13.330078125,50.9912109375 11.5576171875,51.7236328125 9.521484375,52.001953125 5.75683641433716,51.298828125 2.73925828933716,49.3212890625 0.732422590255737,46.2890625 0,42.392578125 0.732422590255737,38.7451171875 2.72460985183716,35.7568359375 5.68359422683716,33.7353515625 9.31640625,32.98828125 12.802734375,33.6328125 15.46875,35.3173828125 17.5634765625,37.6904296875 19.365234375,40.4296875 21.15234375,43.1689453125 23.203125,45.5419921875 25.78125,47.2265625 29.150390625,47.87109375 30.948486328125,47.67333984375 32.5927734375,47.080078125 35.2880859375,44.8388671875 37.0458984375,41.30859375 37.67578125,36.650390625 36.97265625,31.9921875 34.9951171875,27.7587890625 31.93359375,24.1259765625 27.9931640625,21.298828125 23.3642578125,19.4677734375 18.251953125,18.80859375 8.49609375,8.73046875 8.49609375,8.4375 11.630859375,5.65429639816284 18.837890625,14.53125 31.171875,0z" />
    </g>
  </g>
</svg>