<?xml version="1.0" encoding="utf-8"?>
<!DOCTYPE svg PUBLIC "-//W3C//DTD SVG 1.1//EN" "http://www.w3.org/Graphics/SVG/1.1/DTD/svg11.dtd">
<svg width="38.232421875" height="42.01171875" xmlns="http://www.w3.org/2000/svg" xmlns:xlink="http://www.w3.org/1999/xlink" xmlns:xml="http://www.w3.org/XML/1998/namespace" version="1.1">
  <g>
    <g>
      <path style="fill:#FF0000;fill-opacity:1" d="M17.021484375,22.265625L17.021484375,37.55859375 23.935546875,37.55859375 27.8063945770264,37.042236328125 30.6884765625,35.4931640625 32.479248046875,33.028564453125 33.076171875,29.765625 32.5048828125,26.484375 30.791015625,24.140625 27.9345703125,22.734375 23.935546875,22.265625 17.021484375,22.265625z M0,0L17.021484375,0 17.021484375,17.8125 25.01953125,17.8125 27.967529296875,18.0011005401611 30.5712890625,18.5668964385986 32.830810546875,19.5098896026611 34.74609375,20.830078125 36.2713623046875,22.5018310546875 37.36083984375,24.49951171875 38.0145263671875,26.8231201171875 38.232421875,29.47265625 38.0035400390625,32.2210693359375 37.31689453125,34.66552734375 36.1724853515625,36.8060302734375 34.5703125,38.642578125 32.5726318359375,40.1165771484375 30.24169921875,41.16943359375 27.5775146484375,41.8011474609375 24.580078125,42.01171875 12.099609375,42.01171875 12.099609375,4.51171875 0,4.51171875 0,0z" />
    </g>
  </g>
</svg>