<?xml version="1.0" encoding="utf-8"?>
<!DOCTYPE svg PUBLIC "-//W3C//DTD SVG 1.1//EN" "http://www.w3.org/Graphics/SVG/1.1/DTD/svg11.dtd">
<svg width="21.884765625" height="31.46484375" xmlns="http://www.w3.org/2000/svg" xmlns:xlink="http://www.w3.org/1999/xlink" xmlns:xml="http://www.w3.org/XML/1998/namespace" version="1.1">
  <g>
    <g>
      <path style="fill:#FF0000;fill-opacity:1" d="M9.7265625,0L14.520263671875,0.503541111946106 17.9443359375,2.01416158676147 19.998779296875,4.53186130523682 20.68359375,8.056640625 20.277099609375,10.484619140625 19.0576171875,12.5537109375 17.105712890625,14.124755859375 14.501953125,15.05859375 14.501953125,15.205078125 17.51220703125,15.90087890625 19.86328125,17.4609375 21.3793926239014,19.716796875 21.884765625,22.5 21.6778545379639,24.4464111328125 21.0571269989014,26.18408203125 20.0225811004639,27.7130126953125 18.57421875,29.033203125 14.64111328125,30.85693359375 9.462890625,31.46484375 4.00634765625,31.0693359375 0,29.8828125 0,25.166015625 4.25537061691284,26.81396484375 9.169921875,27.36328125 12.6434326171875,27.04833984375 15.12451171875,26.103515625 16.6131591796875,24.52880859375 17.109375,22.32421875 16.5655517578125,20.145263671875 14.93408203125,18.5888671875 12.2149658203125,17.655029296875 8.408203125,17.34375 5.44921875,17.34375 5.44921875,13.271484375 8.26171875,13.271484375 11.6070556640625,12.974853515625 13.99658203125,12.0849609375 15.4302978515625,10.601806640625 15.908203125,8.525390625 15.46875,6.70898580551147 14.150390625,5.302734375 12.0703115463257,4.40185689926147 9.345703125,4.1015625 4.97314405441284,4.65088033676147 0.585937261581421,6.298828125 0.585937261581421,1.81640625 5.36132764816284,0.454102993011475 9.7265625,0z" />
    </g>
  </g>
</svg>