<?xml version="1.0" encoding="utf-8"?>
<!DOCTYPE svg PUBLIC "-//W3C//DTD SVG 1.1//EN" "http://www.w3.org/Graphics/SVG/1.1/DTD/svg11.dtd">
<svg width="27.59765625" height="44.677734375" xmlns="http://www.w3.org/2000/svg" xmlns:xlink="http://www.w3.org/1999/xlink" xmlns:xml="http://www.w3.org/XML/1998/namespace" version="1.1">
  <g>
    <g>
      <path style="fill:#FF0000;fill-opacity:1" d="M14.091796875,4.04296875L10.34912109375,4.77905416488647 7.3828125,6.9873046875 5.44921875,10.308837890625 4.8046875,14.384765625 4.8046875,18.57421875 5.41259765625,21.998291015625 7.236328125,24.8291015625 9.99755764007568,26.729736328125 13.41796875,27.36328125 16.875,26.748046875 13.359375,21.5625 16.7578125,19.306640625 20.09765625,24.287109375 22.0751934051514,20.28076171875 22.734375,14.8828125 22.1411113739014,10.433349609375 20.361328125,6.9873046875 17.607421875,4.77905416488647 14.091796875,4.04296875z M15.29296875,0L17.9626445770264,0.247193455696106 20.3466777801514,0.988770961761475 22.4450664520264,2.22473239898682 24.2578125,3.955078125 25.718994140625,6.10107421875 26.7626953125,8.583984375 27.388916015625,11.40380859375 27.59765625,14.560546875 27.293701171875,18.8287353515625 26.3818359375,22.52197265625 24.862060546875,25.6402587890625 22.734375,28.18359375 26.015625,33.10546875 22.67578125,35.390625 19.3359375,30.41015625 16.77978515625,31.1572265625 13.916015625,31.40625 10.9918203353882,31.09130859375 8.51806545257568,30.146484375 6.49475049972534,28.57177734375 4.921875,26.3671875 4.8046875,26.3671875 4.8046875,44.677734375 0,44.677734375 0,0.703125 4.8046875,0.703125 4.8046875,5.9765625 4.921875,5.9765625 6.84448194503784,3.36181735992432 9.21386623382568,1.49414205551147 12.0300283432007,0.373536229133606 15.29296875,0z" />
    </g>
  </g>
</svg>