<?xml version="1.0" encoding="utf-8"?>
<!DOCTYPE svg PUBLIC "-//W3C//DTD SVG 1.1//EN" "http://www.w3.org/Graphics/SVG/1.1/DTD/svg11.dtd">
<svg width="29.677734375" height="31.46484375" xmlns="http://www.w3.org/2000/svg" xmlns:xlink="http://www.w3.org/1999/xlink" xmlns:xml="http://www.w3.org/XML/1998/namespace" version="1.1">
  <g>
    <g>
      <path style="fill:#FF0000;fill-opacity:1" d="M20.0390625,8.115234375L18.3837890625,8.701171875 17.255859375,10.283203125 16.611328125,12.59765625 16.40625,15.380859375 16.6552734375,18.7939453125 17.40234375,21.650390625 18.61083984375,23.94287109375 20.244140625,25.6640625 21.7785625457764,23.946533203125 22.8076171875,21.6650390625 23.3898906707764,18.812255859375 23.583984375,15.380859375 23.349609375,12.4072265625 22.646484375,10.1220703125 21.533203125,8.642578125 20.0390625,8.115234375z M14.23828125,0L15.849609375,0.234375 15.849609375,4.365234375 14.23828125,4.1015625 12.2241201400757,4.32495260238647 10.400390625,4.9951171875 7.4560546875,7.4560546875 5.5810546875,11.162109375 4.921875,15.76171875 5.537109375,20.4345703125 7.353515625,24.111328125 10.2978515625,26.5283203125 12.1691884994507,27.176513671875 14.296875,27.392578125 15.99609375,27.3046875 14.219970703125,24.898681640625 12.8759765625,22.0166015625 12.0300283432007,18.695068359375 11.748046875,14.970703125 12.24609375,11.044921875 13.7548828125,7.5732421875 16.3037109375,5.0830078125 17.977294921875,4.36889791488647 19.921875,4.130859375 21.8884258270264,4.35791158676147 23.5693359375,5.0390625 26.1181640625,7.4560546875 27.6123046875,10.9130859375 28.095703125,14.94140625 27.8137187957764,18.662109375 26.9677734375,21.97265625 25.6384258270264,24.84375 23.90625,27.24609375 24.7412109375,27.3486328125 25.634765625,27.392578125 27.7587890625,27.1435546875 29.677734375,26.42578125 29.677734375,30.41015625 27.7514629364014,31.17919921875 25.3125,31.435546875 22.5512676239014,31.142578125 19.951171875,30.263671875 17.373046875,31.1572265625 14.619140625,31.46484375 11.6235342025757,31.2158203125 8.84765625,30.46875 6.357421875,29.234619140625 4.21875,27.5244140625 2.464599609375,25.345458984375 1.12792944908142,22.705078125 0.281982392072678,19.62158203125 0,16.11328125 0.245361298322678,12.69287109375 0.981445074081421,9.580078125 2.178955078125,6.82983541488647 3.80859375,4.4970703125 5.85205078125,2.60742330551147 8.291015625,1.1865234375 11.0961904525757,0.296632289886475 14.23828125,0z" />
    </g>
  </g>
</svg>