<?xml version="1.0" encoding="utf-8"?>
<!DOCTYPE svg PUBLIC "-//W3C//DTD SVG 1.1//EN" "http://www.w3.org/Graphics/SVG/1.1/DTD/svg11.dtd">
<svg width="40.078125" height="43.41796875" xmlns="http://www.w3.org/2000/svg" xmlns:xlink="http://www.w3.org/1999/xlink" xmlns:xml="http://www.w3.org/XML/1998/namespace" version="1.1">
  <g>
    <g>
      <path style="fill:#FF0000;fill-opacity:1" d="M27.1875,8.935546875L25.8435039520264,9.1552734375 24.6826171875,9.814453125 22.91015625,12.2900390625 21.85546875,16.142578125 21.50390625,21.181640625 21.9140625,25.693359375 23.1005859375,29.8681640625 25.0048828125,33.5009765625 27.568359375,36.357421875 30.05859375,33.33984375 31.6552734375,29.6044921875 32.5048828125,25.4150390625 32.75390625,21.064453125 32.40234375,16.2158203125 31.3623046875,12.3779296875 29.6337890625,9.84375 28.5021953582764,9.16259765625 27.1875,8.935546875z M19.453125,0L21.533203125,0.234375 21.533203125,4.716796875 20.56640625,4.5263671875 19.453125,4.453125 16.263427734375,4.757080078125 13.4326171875,5.6689453125 10.9826650619507,7.144775390625 8.935546875,9.140625 7.3095703125,11.6345224380493 6.123046875,14.6044921875 5.39794921875,17.9992694854736 5.15625,21.767578125 5.4052734375,25.39306640625 6.15234375,28.7109375 7.3681640625,31.6552734375 9.0234375,34.16015625 11.0961904525757,36.1962890625 13.564453125,37.734375 16.39892578125,38.701171875 19.5703125,39.0234375 23.173828125,38.61328125 20.2587890625,34.9365234375 18.1201171875,30.615234375 16.8017578125,25.8984375 16.34765625,21.064453125 16.534423828125,17.3510761260986 17.0947265625,14.0625 17.999267578125,11.2243661880493 19.21875,8.8623046875 20.753173828125,6.990966796875 22.6025390625,5.625 24.7302227020264,4.7900390625 27.099609375,4.51171875 29.62646484375,4.7900390625 31.81640625,5.625 33.66943359375,6.990966796875 35.185546875,8.8623046875 36.368408203125,11.2243661880493 37.2216796875,14.0625 37.738037109375,17.3510761260986 37.91015625,21.064453125 37.47802734375,26.513671875 36.181640625,31.259765625 34.16748046875,35.2734375 31.58203125,38.525390625 33.017578125,38.8330078125 34.541015625,38.935546875 37.470703125,38.583984375 40.078125,37.587890625 40.078125,42.12890625 37.4267578125,43.0078125 34.16015625,43.30078125 30.52734375,42.861328125 27.275390625,41.630859375 23.6279277801514,42.97119140625 19.716796875,43.41796875 15.69580078125,43.070068359375 11.953125,42.0263671875 8.587646484375,40.3125 5.6982421875,37.9541015625 3.328857421875,34.951171875 1.5234375,31.3037109375 0.380859375,27.044677734375 0,22.20703125 0.318603515625,17.4499530792236 1.2744140625,13.1396484375 2.84912109375,9.345703125 5.0244140625,6.1376953125 7.789306640625,3.548583984375 11.1328125,1.611328125 15.029296875,0.40283203125 19.453125,0z" />
    </g>
  </g>
</svg>