<?xml version="1.0" encoding="utf-8"?>
<!DOCTYPE svg PUBLIC "-//W3C//DTD SVG 1.1//EN" "http://www.w3.org/Graphics/SVG/1.1/DTD/svg11.dtd">
<svg width="21.9140625" height="40.60546875" xmlns="http://www.w3.org/2000/svg" xmlns:xlink="http://www.w3.org/1999/xlink" xmlns:xml="http://www.w3.org/XML/1998/namespace" version="1.1">
  <g>
    <g>
      <path style="fill:#FF0000;fill-opacity:1" d="M9.7265625,0L14.520263671875,0.501710057258606 17.9443359375,2.00683736801147 19.998779296875,4.51538181304932 20.68359375,8.02734375 20.299072265625,10.55419921875 19.1455078125,12.568359375 17.222900390625,14.06982421875 14.53125,15.05859375 14.53125,15.17578125 17.5048828125,15.867919921875 19.86328125,17.4169921875 21.4013652801514,19.676513671875 21.9140625,22.5 21.2841777801514,25.70068359375 19.39453125,28.330078125 16.3916015625,30.22705078125 12.421875,31.23046875 13.54248046875,33.5302734375 13.916015625,35.56640625 13.58642578125,37.642822265625 12.59765625,39.2431640625 11.0595693588257,40.264892578125 9.08203125,40.60546875 5.33203125,39.9609375 5.33203125,36.767578125 8.203125,37.5 9.69726467132568,37.0166015625 10.1953125,35.56640625 9.86572170257568,33.6181640625 8.876953125,31.40625 3.71337890625,30.966796875 0,29.8828125 0,25.13671875 4.2626953125,26.806640625 9.19921875,27.36328125 12.659912109375,27.04833984375 15.1318359375,26.103515625 16.614990234375,24.52880859375 17.109375,22.32421875 16.5655517578125,20.145263671875 14.93408203125,18.5888671875 12.2149658203125,17.655029296875 8.408203125,17.34375 5.44921875,17.34375 5.44921875,13.2421875 8.26171875,13.2421875 11.6070556640625,12.945556640625 13.99658203125,12.0556640625 15.4302978515625,10.572509765625 15.908203125,8.49609375 15.472412109375,6.69433736801147 14.1650390625,5.2734375 12.0959463119507,4.35058736801147 9.375,4.04296875 4.98046875,4.59961080551147 0.585937738418579,6.26953125 0.585937738418579,1.787109375 5.361328125,0.446778774261475 9.7265625,0z" />
    </g>
  </g>
</svg>