<?xml version="1.0" encoding="utf-8"?>
<!DOCTYPE svg PUBLIC "-//W3C//DTD SVG 1.1//EN" "http://www.w3.org/Graphics/SVG/1.1/DTD/svg11.dtd">
<svg width="26.30859375" height="52.6171875" xmlns="http://www.w3.org/2000/svg" xmlns:xlink="http://www.w3.org/1999/xlink" xmlns:xml="http://www.w3.org/XML/1998/namespace" version="1.1">
  <g>
    <g>
      <path style="fill:#FF0000;fill-opacity:1" d="M12.01171875,0L17.35107421875,0.71044921875 21.416015625,2.841796875 22.9156475067139,4.3743896484375 23.9868144989014,6.13037109375 24.6295146942139,8.1097412109375 24.84375,10.3125 24.3457012176514,14.0222177505493 22.8515605926514,16.9775409698486 20.3613262176514,19.1784687042236 16.875,20.625 16.875,20.7421875 20.7641582489014,21.80419921875 23.759765625,23.994140625 25.6713848114014,27.07763671875 26.30859375,30.8203125 26.1108379364014,33.2180786132813 25.5175762176514,35.401611328125 24.5288066864014,37.3709106445313 23.14453125,39.1259765625 19.3798828125,41.788330078125 14.4140625,43.18359375 15.57861328125,45.5419921875 15.966796875,47.578125 15.63720703125,49.654541015625 14.6484375,51.2548828125 13.10302734375,52.276611328125 11.103515625,52.6171875 7.3828125,51.97265625 7.3828125,48.779296875 10.25390625,49.51171875 11.7480459213257,49.0283203125 12.24609375,47.578125 11.9165029525757,45.6298828125 10.927734375,43.41796875 7.5970458984375,43.26416015625 4.66552734375,42.802734375 2.13317847251892,42.03369140625 0,40.95703125 0,35.625 2.54333472251892,37.2015380859375 5.25146484375,38.32763671875 8.1243896484375,39.0032958984375 11.162109375,39.228515625 15.238037109375,38.67919921875 18.3837890625,37.03125 20.394287109375,34.453125 21.064453125,31.11328125 20.3814697265625,27.57568359375 18.33251953125,25.048828125 14.9176025390625,23.53271484375 10.13671875,23.02734375 5.771484375,23.02734375 5.771484375,18.955078125 9.78515625,18.955078125 13.919677734375,18.44970703125 17.0068359375,16.93359375 18.929443359375,14.4946308135986 19.5703125,11.220703125 19.039306640625,8.37158203125 17.4462890625,6.15234375 14.923095703125,4.72412109375 11.6015625,4.248046875 8.983154296875,4.4549560546875 6.4013671875,5.07568359375 3.85620093345642,6.1102294921875 1.34765625,7.55859375 1.34765625,2.578125 6.328125,0.64453125 12.01171875,0z" />
    </g>
  </g>
</svg>