<?xml version="1.0" encoding="utf-8"?>
<!DOCTYPE svg PUBLIC "-//W3C//DTD SVG 1.1//EN" "http://www.w3.org/Graphics/SVG/1.1/DTD/svg11.dtd">
<svg width="28.330078125" height="58.7109375" xmlns="http://www.w3.org/2000/svg" xmlns:xlink="http://www.w3.org/1999/xlink" xmlns:xml="http://www.w3.org/XML/1998/namespace" version="1.1">
  <g>
    <g>
      <path style="fill:#FF0000;fill-opacity:1" d="M0,14.58984375L5.33203220367432,14.58984375 13.447265625,37.67578125 13.6743154525757,38.466796875 14.0625,39.9609375 14.23828125,39.9609375 14.4580068588257,39.052734375 14.82421875,37.734375 23.349609375,14.58984375 28.330078125,14.58984375 14.53125,49.39453125 12.498779296875,53.470458984375 10.0927734375,56.3818359375 7.313232421875,58.128662109375 4.16015625,58.7109375 1.025390625,58.330078125 1.025390625,54.0234375 3.86718797683716,54.55078125 5.570068359375,54.27978515625 7.0458984375,53.466796875 8.294677734375,52.11181640625 9.31640625,50.21484375 11.71875,44.53125 0,14.58984375z M4.16015625,0L8.90625,0 9.41162109375,2.40966796875 10.517578125,4.130859375 12.22412109375,5.16357421875 14.53125,5.5078125 16.669921875,5.145263671875 18.3984375,4.0576171875 19.62890625,2.318115234375 20.2734375,0 25.01953125,0 23.9685039520264,3.695068359375 21.6943359375,6.5185546875 18.446044921875,8.309326171875 14.47265625,8.90625 10.433349609375,8.309326171875 7.22168064117432,6.5185546875 5.05737352371216,3.695068359375 4.16015625,0z" />
    </g>
  </g>
</svg>