<?xml version="1.0" encoding="utf-8"?>
<!DOCTYPE svg PUBLIC "-//W3C//DTD SVG 1.1//EN" "http://www.w3.org/Graphics/SVG/1.1/DTD/svg11.dtd">
<svg width="45.849609375" height="43.41796875" xmlns="http://www.w3.org/2000/svg" xmlns:xlink="http://www.w3.org/1999/xlink" xmlns:xml="http://www.w3.org/XML/1998/namespace" version="1.1">
  <g>
    <g>
      <path style="fill:#FF0000;fill-opacity:1" d="M35.15625,0L40.96435546875,0.43212890625 45.849609375,1.728515625 45.849609375,6.97265625 40.77392578125,5.0830078125 35.09765625,4.453125 32.0883178710938,4.70489501953125 29.359130859375,5.460205078125 26.9100952148438,6.71905517578125 24.7412109375,8.4814453125 22.9220561981201,10.6851205825806 21.5222148895264,13.2678241729736 20.5416851043701,16.2295551300049 19.98046875,19.5703125 38.525390625,19.5703125 38.525390625,23.994140625 19.921875,23.994140625 20.3768901824951,27.3092651367188 21.2731914520264,30.252685546875 22.6107769012451,32.8244018554688 24.3896484375,35.0244140625 26.5328979492188,36.7868041992188 28.963623046875,38.045654296875 31.6818237304688,38.8009643554688 34.6875,39.052734375 40.75927734375,38.349609375 45.849609375,36.240234375 45.849609375,40.95703125 40.64208984375,42.802734375 34.3359375,43.41796875 30.2865600585938,43.0874633789063 26.634521484375,42.095947265625 23.3798217773438,40.4434204101563 20.5224609375,38.1298828125 18.1686401367188,35.2633666992188 16.424560546875,31.951904296875 15.2902221679688,28.1954956054688 14.765625,23.994140625 4.921875,23.994140625 4.921875,42.71484375 0,42.71484375 0,0.703125 4.921875,0.703125 4.921875,19.5703125 14.82421875,19.5703125 15.545654296875,15.2929697036743 16.8603515625,11.4843759536743 18.768310546875,8.14453125 21.26953125,5.2734375 24.23583984375,2.96630859375 27.5390625,1.318359375 31.17919921875,0.32958984375 35.15625,0z" />
    </g>
  </g>
</svg>