<?xml version="1.0" encoding="utf-8"?>
<!DOCTYPE svg PUBLIC "-//W3C//DTD SVG 1.1//EN" "http://www.w3.org/Graphics/SVG/1.1/DTD/svg11.dtd">
<svg width="44.0625" height="46.640625" xmlns="http://www.w3.org/2000/svg" xmlns:xlink="http://www.w3.org/1999/xlink" xmlns:xml="http://www.w3.org/XML/1998/namespace" version="1.1">
  <g>
    <g>
      <path style="fill:#FF0000;fill-opacity:1" d="M19.39453125,6.328125L16.2240600585938,6.92047119140625 13.421630859375,7.994384765625 10.9872436523438,9.54986572265625 8.9208984375,11.5869140625 7.27386474609375,14.0377817153931 6.09741163253784,16.8347187042236 5.39154005050659,19.9777240753174 5.15625,23.466796875 5.38055372238159,26.9375610351563 6.05346632003784,30.054931640625 7.17498779296875,32.8189086914063 8.7451171875,35.2294921875 10.7180786132813,37.2354125976563 13.048095703125,38.785400390625 15.7351684570313,39.8794555664063 18.779296875,40.517578125 20.11962890625,39.30908203125 21.85546875,38.90625 23.5839824676514,39.30908203125 24.90234375,40.517578125 28.0654907226563,39.898681640625 30.845947265625,38.8330078125 33.2437133789063,37.320556640625 35.2587890625,35.361328125 36.8545532226563,32.9864501953125 37.994384765625,30.22705078125 38.6782836914063,27.0831298828125 38.90625,23.5546875 38.6929321289063,19.86328125 38.052978515625,16.611328125 36.9863891601563,13.7988290786743 35.4931640625,11.4257822036743 33.5733032226563,9.49218845367432 31.226806640625,7.99804735183716 28.4536743164063,6.943359375 25.25390625,6.328125 23.9648418426514,7.3828125 22.32421875,7.734375 20.68359375,7.3828125 19.39453125,6.328125z M22.32421875,0L24.1699199676514,0.4541015625 25.48828125,1.81640625 29.6392822265625,2.51220703125 33.30322265625,3.80859375 36.4801025390625,5.70556640625 39.169921875,8.203125 41.3104248046875,11.2188720703125 42.83935546875,14.6704111099243 43.7567138671875,18.5577392578125 44.0625,22.880859375 43.7521362304688,27.509765625 42.821044921875,31.640625 41.2692260742188,35.2734375 39.0966796875,38.408203125 36.3473510742188,40.9844970703125 33.065185546875,42.94189453125 29.2501831054688,44.2803955078125 24.90234375,45 23.5839824676514,46.23046875 21.85546875,46.640625 20.11962890625,46.23046875 18.779296875,45 14.5742788314819,44.30419921875 10.8654775619507,43.0078125 7.65289211273193,41.11083984375 4.93652248382568,38.61328125 2.77679395675659,35.595703125 1.23413062095642,32.138671875 0.308532565832138,28.2421875 0,23.90625 0.31036365032196,19.3661518096924 1.24145483970642,15.2966327667236 2.79327368736267,11.6976938247681 4.9658203125,8.5693359375 7.71148633956909,5.98114013671875 10.9826650619507,4.002685546875 14.7793569564819,2.63397216796875 19.1015625,1.875 20.44921875,0.46875 22.32421875,0z" />
    </g>
  </g>
</svg>