<?xml version="1.0" encoding="utf-8"?>
<!DOCTYPE svg PUBLIC "-//W3C//DTD SVG 1.1//EN" "http://www.w3.org/Graphics/SVG/1.1/DTD/svg11.dtd">
<svg width="39.169921875" height="30" xmlns="http://www.w3.org/2000/svg" xmlns:xlink="http://www.w3.org/1999/xlink" xmlns:xml="http://www.w3.org/XML/1998/namespace" version="1.1">
  <g>
    <g>
      <path style="fill:#FF0000;fill-opacity:1" d="M17.578125,3.955078125L22.8515625,12.48046875 23.26171875,13.359375 23.759765625,12.48046875 29.35546875,3.955078125 17.578125,3.955078125z M0,0L4.8046875,0 4.8046875,12.421875 17.8125,12.421875 9.4921875,0 37.265625,0 27.65625,13.798828125 32.080078125,15.919189453125 35.33203125,19.1162109375 36.5716552734375,21.1972045898438 37.62451171875,23.704833984375 38.4906005859375,26.6390991210938 39.169921875,30 34.072265625,30 33.1512451171875,25.272216796875 31.41357421875,21.5771484375 28.8592529296875,18.914794921875 25.48828125,17.28515625 25.48828125,30 20.91796875,30 20.91796875,17.2265625 17.4609375,18.870849609375 14.853515625,21.5478515625 13.095703125,25.257568359375 12.1875,30 7.08984375,30 8.29833889007568,25.0689697265625 10.1074209213257,21.11572265625 12.5170888900757,18.1402587890625 15.52734375,16.142578125 4.8046875,16.142578125 4.8046875,30 0,30 0,0z" />
    </g>
  </g>
</svg>