<?xml version="1.0" encoding="utf-8"?>
<!DOCTYPE svg PUBLIC "-//W3C//DTD SVG 1.1//EN" "http://www.w3.org/Graphics/SVG/1.1/DTD/svg11.dtd">
<svg width="26.162109375" height="42.158203125" xmlns="http://www.w3.org/2000/svg" xmlns:xlink="http://www.w3.org/1999/xlink" xmlns:xml="http://www.w3.org/XML/1998/namespace" version="1.1">
  <g>
    <g>
      <path style="fill:#FF0000;fill-opacity:1" d="M13.740234375,14.794921875L10.5981435775757,15.4028339385986 7.96875,17.2265625 6.0498046875,20.03173828125 5.0390625,23.583984375 21.240234375,23.583984375 20.7238750457764,19.88525390625 19.2333984375,17.109375 16.871337890625,15.3735370635986 13.740234375,14.794921875z M13.828125,10.751953125L16.6058349609375,10.9899911880493 19.05029296875,11.7041034698486 21.1614990234375,12.8942880630493 22.939453125,14.560546875 24.3493633270264,16.6497802734375 25.3564434051514,19.10888671875 25.9606914520264,21.9378662109375 26.162109375,25.13671875 26.162109375,27.65625 4.98046875,27.65625 5.712890625,32.0947265625 7.67578125,35.390625 10.7373037338257,37.43408203125 14.765625,38.115234375 17.24853515625,37.906494140625 19.62890625,37.2802734375 21.90673828125,36.236572265625 24.08203125,34.775390625 24.08203125,39.287109375 19.48974609375,41.4404296875 13.623046875,42.158203125 10.6146240234375,41.9027709960938 7.94677734375,41.136474609375 5.6195068359375,39.8593139648438 3.63281273841858,38.0712890625 2.04345726966858,35.8200073242188 0.908203363418579,33.153076171875 0.227050915360451,30.0704956054688 0,26.572265625 0.248108044266701,23.2333374023438 0.99243175983429,20.218505859375 2.23297119140625,17.5277709960938 3.96972632408142,15.1611328125 6.07452392578125,13.2321176528931 8.419189453125,11.8542499542236 11.0037231445313,11.0275278091431 13.828125,10.751953125z M18.720703125,0L19.85595703125,0.208740234375 20.80078125,0.8349609375 21.4379863739014,1.761474609375 21.650390625,2.87109375 21.4453105926514,3.984375 20.830078125,4.921875 19.9072265625,5.55908203125 18.779296875,5.771484375 17.68798828125,5.56640625 16.7578125,4.951171875 16.12060546875,4.02099609375 15.908203125,2.87109375 16.11328125,1.7431640625 16.728515625,0.8203125 17.63671875,0.205078125 18.720703125,0z M7.44140625,0L8.56201171875,0.208740234375 9.521484375,0.8349609375 10.1806631088257,1.761474609375 10.400390625,2.87109375 10.1879873275757,3.984375 9.55078125,4.921875 8.62060546875,5.55908203125 7.529296875,5.771484375 6.390380859375,5.555419921875 5.4345703125,4.9072265625 4.786376953125,3.966064453125 4.5703125,2.87109375 4.779052734375,1.7431640625 5.4052734375,0.8203125 6.331787109375,0.205078125 7.44140625,0z" />
    </g>
  </g>
</svg>