<?xml version="1.0" encoding="utf-8"?>
<!DOCTYPE svg PUBLIC "-//W3C//DTD SVG 1.1//EN" "http://www.w3.org/Graphics/SVG/1.1/DTD/svg11.dtd">
<svg width="33.369140625" height="34.62890625" xmlns="http://www.w3.org/2000/svg" xmlns:xlink="http://www.w3.org/1999/xlink" xmlns:xml="http://www.w3.org/XML/1998/namespace" version="1.1">
  <g>
    <g>
      <path style="fill:#FF0000;fill-opacity:1" d="M13.9453125,5.830078125L9.99755859375,7.07336521148682 7.177734375,9.42627143859863 5.48583984375,12.8887948989868 4.921875,17.4609375 5.4656982421875,21.8316650390625 7.09716796875,25.15869140625 9.8162841796875,27.4420166015625 13.623046875,28.681640625 14.97802734375,27.47314453125 16.7578125,27.0703125 18.5302734375,27.47314453125 19.86328125,28.681640625 23.6187725067139,27.4566650390625 26.3012676239014,25.15869140625 27.9107646942139,21.7877197265625 28.447265625,17.34375 27.9327373504639,12.9620370864868 26.3891582489014,9.60205268859863 23.8165264129639,7.26379489898682 20.21484375,5.947265625 18.8818359375,7.15576314926147 17.109375,7.55859375 15.29296875,7.12646627426147 13.9453125,5.830078125z M17.109375,0L18.92578125,0.439453840255737 20.2734375,1.7578125 23.3427429199219,2.31903147697449 26.0028076171875,3.27026462554932 28.2536315917969,4.61151266098022 30.09521484375,6.34277486801147 31.5275573730469,8.46405124664307 32.5506591796875,10.9753427505493 33.1645202636719,13.8766489028931 33.369140625,17.16796875 33.1494140625,20.2688598632813 32.490234375,23.067626953125 31.3916015625,25.5642700195313 29.853515625,27.7587890625 27.9180889129639,29.6035766601563 25.6274394989014,31.051025390625 22.9815654754639,32.1011352539063 19.98046875,32.75390625 18.6181640625,34.16015625 16.7578125,34.62890625 14.93408203125,34.1748046875 13.564453125,32.8125 10.4388427734375,32.2439575195313 7.71240234375,31.270751953125 5.3851318359375,29.8928833007813 3.45703148841858,28.1103515625 1.94458031654358,25.9671020507813 0.864258050918579,23.507080078125 0.216064587235451,20.7302856445313 0,17.63671875 0.217895582318306,14.2611703872681 0.87158215045929,11.2829599380493 1.96105968952179,8.70208835601807 3.486328125,6.51855611801147 5.4473876953125,4.73236227035522 7.84423828125,3.34350681304932 10.6768798828125,2.35199046134949 13.9453125,1.7578125 15.29296875,0.439453840255737 17.109375,0z" />
    </g>
  </g>
</svg>