<?xml version="1.0" encoding="utf-8"?>
<!DOCTYPE svg PUBLIC "-//W3C//DTD SVG 1.1//EN" "http://www.w3.org/Graphics/SVG/1.1/DTD/svg11.dtd">
<svg width="50.0390625" height="51.416015625" xmlns="http://www.w3.org/2000/svg" xmlns:xlink="http://www.w3.org/1999/xlink" xmlns:xml="http://www.w3.org/XML/1998/namespace" version="1.1">
  <g>
    <g>
      <path style="fill:#FF0000;fill-opacity:1" d="M0,9.404296875L4.921875,9.404296875 5.947265625,16.8017578125 7.177734375,23.0712890625 8.671875,28.6376953125 10.517578125,33.9404296875 12.8173828125,39.3603515625 15.64453125,45.322265625 22.20703125,28.564453125 21.1083984375,24.287109375 20.21484375,19.7900390625 19.453125,14.8828125 18.75,9.404296875 23.671875,9.404296875 24.697265625,16.8017578125 25.927734375,23.0712890625 27.421875,28.6376953125 29.267578125,33.9404296875 31.5673828125,39.3603515625 34.39453125,45.322265625 37.2216796875,39.3603515625 39.521484375,33.9404296875 41.3671875,28.6376953125 42.861328125,23.0712890625 44.0771484375,16.8017578125 45.1171875,9.404296875 50.0390625,9.404296875 48.9990234375,17.2265625 47.724609375,23.994140625 46.0546875,30.263671875 43.798828125,36.5625 40.7666015625,43.4326171875 36.796875,51.416015625 31.9921875,51.416015625 29.6484375,46.8017578125 27.626953125,42.6123046875 25.8837890625,38.7451171875 24.404296875,35.126953125 18.1640625,51.416015625 13.2421875,51.416015625 9.2724609375,43.41796875 6.240234375,36.5478515625 3.98437476158142,30.263671875 2.314453125,23.994140625 1.04003846645355,17.2119140625 0,9.404296875z M11.630859375,0L38.408203125,0 35.771484375,5.71289014816284 34.775390625,5.71289014816284 33.369140625,2.78320336341858 26.923828125,2.78320336341858 25.517578125,5.71289014816284 24.521484375,5.71289014816284 23.115234375,2.78320336341858 16.669921875,2.78320336341858 15.263671875,5.71289014816284 14.267578125,5.71289014816284 11.630859375,0z" />
    </g>
  </g>
</svg>