<?xml version="1.0" encoding="utf-8"?>
<!DOCTYPE svg PUBLIC "-//W3C//DTD SVG 1.1//EN" "http://www.w3.org/Graphics/SVG/1.1/DTD/svg11.dtd">
<svg width="22.6171875" height="42.01171875" xmlns="http://www.w3.org/2000/svg" xmlns:xlink="http://www.w3.org/1999/xlink" xmlns:xml="http://www.w3.org/XML/1998/namespace" version="1.1">
  <g>
    <g>
      <path style="fill:#FF0000;fill-opacity:1" d="M0,0L18.45703125,0 18.45703125,4.1015625 4.8046875,4.1015625 4.8046875,11.6015625 6.73828125,11.6015625 10.1742553710938,11.8679809570313 13.245849609375,12.667236328125 15.9530639648438,13.9993286132813 18.2958984375,15.8642578125 20.1864604949951,18.1851196289063 21.5368633270264,20.885009765625 22.3471050262451,23.9639282226563 22.6171875,27.421875 22.3617534637451,30.4367065429688 21.5954570770264,33.182373046875 20.3182964324951,35.6588745117188 18.5302734375,37.8662109375 16.3046264648438,39.6798706054688 13.714599609375,40.975341796875 10.7601928710938,41.7526245117188 7.44140625,42.01171875 3.33984351158142,41.5869140625 0,40.3125 0,35.625 3.58886694908142,37.3388671875 7.5,37.91015625 11.832275390625,37.225341796875 15.0439453125,35.1708984375 17.032470703125,31.878662109375 17.6953125,27.48046875 17.4957275390625,24.9124145507813 16.89697265625,22.628173828125 15.8990478515625,20.6277465820313 14.501953125,18.9111328125 12.7569580078125,17.5332641601563 10.71533203125,16.549072265625 8.3770751953125,15.9585571289063 5.7421875,15.76171875 4.8046875,15.76171875 4.8046875,30 0,30 0,0z" />
    </g>
  </g>
</svg>