<?xml version="1.0" encoding="utf-8"?>
<!DOCTYPE svg PUBLIC "-//W3C//DTD SVG 1.1//EN" "http://www.w3.org/Graphics/SVG/1.1/DTD/svg11.dtd">
<svg width="22.55859375" height="40.60546875" xmlns="http://www.w3.org/2000/svg" xmlns:xlink="http://www.w3.org/1999/xlink" xmlns:xml="http://www.w3.org/XML/1998/namespace" version="1.1">
  <g>
    <g>
      <path style="fill:#FF0000;fill-opacity:1" d="M15.5859375,0L19.306640625,0.366212368011475 22.55859375,1.46484375 22.55859375,6.38671875 19.1015625,4.62890768051147 15.41015625,4.04296875 13.2138051986694,4.24896335601807 11.2243642807007,4.86694478988647 9.44183254241943,5.89691257476807 7.8662109375,7.3388671875 5.657958984375,11.151123046875 4.921875,15.99609375 5.614013671875,20.712890625 7.6904296875,24.31640625 9.19280910491943,25.6494140625 10.9313955307007,26.6015625 12.9061880111694,27.1728515625 15.1171875,27.36328125 18.92578125,26.71142578125 22.5,24.755859375 22.5,29.326171875 19.7314453125,30.59326171875 16.58203125,31.2890625 17.6806640625,33.5888671875 18.046875,35.56640625 17.720947265625,37.642822265625 16.7431640625,39.2431640625 15.208740234375,40.264892578125 13.212890625,40.60546875 9.4921875,39.9609375 9.4921875,36.767578125 12.36328125,37.5 13.857421875,37.0166015625 14.35546875,35.56640625 14.0185546875,33.57421875 13.0078125,31.34765625 10.220947265625,30.9109497070313 7.7197265625,30.010986328125 5.504150390625,28.6477661132813 3.57421875,26.8212890625 2.010498046875,24.6267700195313 0.8935546875,22.159423828125 0.223388671875,19.4192504882813 0,16.40625 0.2655029296875,12.8823852539063 1.06201171875,9.722900390625 2.38952612876892,6.92779541015625 4.24804639816284,4.4970703125 6.5496826171875,2.52960300445557 9.20654296875,1.12426900863647 12.2186279296875,0.281067967414856 15.5859375,0z" />
    </g>
  </g>
</svg>