<?xml version="1.0" encoding="utf-8"?>
<!DOCTYPE svg PUBLIC "-//W3C//DTD SVG 1.1//EN" "http://www.w3.org/Graphics/SVG/1.1/DTD/svg11.dtd">
<svg width="29.53125" height="31.40625" xmlns="http://www.w3.org/2000/svg" xmlns:xlink="http://www.w3.org/1999/xlink" xmlns:xml="http://www.w3.org/XML/1998/namespace" version="1.1">
  <g>
    <g>
      <path style="fill:#FF0000;fill-opacity:1" d="M10.48828125,16.23046875L9.81811428070068,16.3330078125 8.68652248382568,16.640625 7.09350538253784,17.1533203125 5.0390625,17.87109375 6.09375,21.87744140625 8.203125,24.873046875 11.2060537338257,26.74072265625 14.94140625,27.36328125 18.7683086395264,26.766357421875 21.6357402801514,24.9755859375 23.5436992645264,21.990966796875 24.4921875,17.8125 21.2109375,18.93310546875 19.1015625,19.306640625 17.28515625,18.91845703125 14.6484375,17.75390625 12.0849599838257,16.611328125 10.48828125,16.23046875z M14.94140625,4.04296875L11.2243642807007,4.66552877426147 8.2177734375,6.533203125 6.097412109375,9.52880859375 5.0390625,13.53515625 8.54736232757568,12.45849609375 10.751953125,12.099609375 12.59765625,12.48046875 15.322265625,13.623046875 17.89306640625,14.78759765625 19.3359375,15.17578125 20.03173828125,15.069580078125 21.123046875,14.7509765625 22.60986328125,14.219970703125 24.4921875,13.4765625 23.5217266082764,9.34936618804932 21.6064434051514,6.40136861801147 18.7463359832764,4.63256931304932 14.94140625,4.04296875z M15.29296875,0L18.4634380340576,0.258179783821106 21.2658672332764,1.03271627426147 23.7002544403076,2.32360935211182 25.7666015625,4.130859375 27.4136352539063,6.3958740234375 28.590087890625,9.06005859375 29.2959594726563,12.1234130859375 29.53125,15.5859375 29.2776489257813,18.9962768554688 28.516845703125,22.049560546875 27.2488403320313,24.7457885742188 25.4736328125,27.0849609375 23.2717876434326,28.9755249023438 20.7238750457764,30.325927734375 17.8298931121826,31.1361694335938 14.58984375,31.40625 11.4321899414063,31.1434936523438 8.609619140625,30.355224609375 6.12213134765625,29.0414428710938 3.96972632408142,27.2021484375 2.23297095298767,24.9288940429688 0.992431402206421,22.313232421875 0.248107776045799,19.3551635742188 0,16.0546875 0.25817859172821,12.4822998046875 1.03271460533142,9.32373046875 2.32360816001892,6.5789794921875 4.130859375,4.248046875 6.3775634765625,2.38952732086182 8.98681640625,1.06201314926147 11.9586181640625,0.265504002571106 15.29296875,0z" />
    </g>
  </g>
</svg>