<?xml version="1.0" encoding="utf-8"?>
<!DOCTYPE svg PUBLIC "-//W3C//DTD SVG 1.1//EN" "http://www.w3.org/Graphics/SVG/1.1/DTD/svg11.dtd">
<svg width="32.63671875" height="49.833984375" xmlns="http://www.w3.org/2000/svg" xmlns:xlink="http://www.w3.org/1999/xlink" xmlns:xml="http://www.w3.org/XML/1998/namespace" version="1.1">
  <g>
    <g>
      <path style="fill:#FF0000;fill-opacity:1" d="M0,7.08984375L5.595703125,7.08984375 15.673828125,29.53125 16.07666015625,30.49072265625 16.7578125,32.255859375 16.81640625,32.255859375 17.16064453125,31.41357421875 18.017578125,29.4140625 27.36328125,7.08984375 32.63671875,7.08984375 19.658203125,36.416015625 17.9443359375,40.001220703125 16.259765625,42.9638671875 14.6044921875,45.303955078125 12.978515625,47.021484375 9.609375,49.130859375 5.94726467132568,49.833984375 3.06884717941284,49.60693359375 0.703124761581421,48.92578125 0.703124761581421,43.9453125 3.1787109375,45.06591796875 5.56640625,45.439453125 7.84423828125,44.981689453125 9.931640625,43.6083984375 12.0043935775757,41.077880859375 14.23828125,37.1484375 0,7.08984375z M9.0234375,0L23.90625,0 23.90625,3.193359375 9.0234375,3.193359375 9.0234375,0z" />
    </g>
  </g>
</svg>