<?xml version="1.0" encoding="utf-8"?>
<!DOCTYPE svg PUBLIC "-//W3C//DTD SVG 1.1//EN" "http://www.w3.org/Graphics/SVG/1.1/DTD/svg11.dtd">
<svg width="32.63671875" height="52.412109375" xmlns="http://www.w3.org/2000/svg" xmlns:xlink="http://www.w3.org/1999/xlink" xmlns:xml="http://www.w3.org/XML/1998/namespace" version="1.1">
  <g>
    <g>
      <path style="fill:#FF0000;fill-opacity:1" d="M0,9.66796875L5.595703125,9.66796875 15.673828125,32.109375 16.07666015625,33.06884765625 16.7578125,34.833984375 16.81640625,34.833984375 17.16064453125,33.99169921875 18.017578125,31.9921875 27.36328125,9.66796875 32.63671875,9.66796875 19.658203125,38.994140625 17.9443359375,42.579345703125 16.259765625,45.5419921875 14.6044921875,47.882080078125 12.978515625,49.599609375 9.609375,51.708984375 5.94726657867432,52.412109375 3.06884789466858,52.18505859375 0.703125238418579,51.50390625 0.703125238418579,46.5234375 3.1787109375,47.64404296875 5.56640625,48.017578125 7.84423828125,47.559814453125 9.931640625,46.1865234375 12.0043935775757,43.656005859375 14.23828125,39.7265625 0,9.66796875z M21.97265625,0L23.1079082489014,0.208743065595627 24.052734375,0.834960699081421 24.6899394989014,1.76147747039795 24.90234375,2.87109351158142 24.6972637176514,3.984375 24.08203125,4.921875 23.1591777801514,5.55908203125 22.03125,5.77148485183716 20.93994140625,5.56640625 20.009765625,4.951171875 19.37255859375,4.02099609375 19.16015625,2.87109351158142 19.365234375,1.74316680431366 19.98046875,0.820312201976776 20.888671875,0.205080956220627 21.97265625,0z M10.693359375,0L11.8139638900757,0.208743065595627 12.7734375,0.834960699081421 13.4326162338257,1.76147747039795 13.65234375,2.87109351158142 13.4399404525757,3.984375 12.802734375,4.921875 11.8725576400757,5.55908203125 10.78125,5.77148485183716 9.642333984375,5.555419921875 8.6865234375,4.9072265625 8.038330078125,3.966064453125 7.822265625,2.87109351158142 8.031005859375,1.74316680431366 8.6572265625,0.820312201976776 9.583740234375,0.205080956220627 10.693359375,0z" />
    </g>
  </g>
</svg>