<?xml version="1.0" encoding="utf-8"?>
<!DOCTYPE svg PUBLIC "-//W3C//DTD SVG 1.1//EN" "http://www.w3.org/Graphics/SVG/1.1/DTD/svg11.dtd">
<svg width="28.505859375" height="52.6171875" xmlns="http://www.w3.org/2000/svg" xmlns:xlink="http://www.w3.org/1999/xlink" xmlns:xml="http://www.w3.org/XML/1998/namespace" version="1.1">
  <g>
    <g>
      <path style="fill:#FF0000;fill-opacity:1" d="M6.70898485183716,0L28.505859375,0 28.505859375,4.453125 11.630859375,4.453125 11.630859375,17.87109375 21.767578125,17.87109375 21.767578125,22.3828125 11.630859375,22.3828125 11.630859375,37.822265625 16.11328125,37.822265625 16.11328125,43.9453125 15.556640625,47.537841796875 13.88671875,50.2880859375 11.2866201400757,52.034912109375 7.939453125,52.6171875 4.658203125,51.943359375 4.658203125,47.63671875 6.24023389816284,48.31787109375 7.939453125,48.544921875 9.55444240570068,48.2574462890625 10.7080068588257,47.39501953125 11.4001455307007,45.9576416015625 11.630859375,43.9453125 11.630859375,42.01171875 6.70898485183716,42.01171875 6.70898485183716,22.3828125 0,22.3828125 0,17.87109375 6.70898485183716,17.87109375 6.70898485183716,0z" />
    </g>
  </g>
</svg>