<?xml version="1.0" encoding="utf-8"?>
<!DOCTYPE svg PUBLIC "-//W3C//DTD SVG 1.1//EN" "http://www.w3.org/Graphics/SVG/1.1/DTD/svg11.dtd">
<svg width="28.916015625" height="42.01171875" xmlns="http://www.w3.org/2000/svg" xmlns:xlink="http://www.w3.org/1999/xlink" xmlns:xml="http://www.w3.org/XML/1998/namespace" version="1.1">
  <g>
    <g>
      <path style="fill:#FF0000;fill-opacity:1" d="M0,0L4.921875,0 4.921875,15.556640625 5.372314453125,18.5174560546875 6.7236328125,20.63232421875 8.975830078125,21.9012451171875 12.12890625,22.32421875 12.890625,22.32421875 12.890625,11.71875 15.1171875,11.71875 15.1171875,22.08984375 19.29931640625,21.0498046875 23.994140625,19.1015625 23.994140625,0 28.916015625,0 28.916015625,42.01171875 23.994140625,42.01171875 23.994140625,23.115234375 19.32861328125,25.21728515625 15.1171875,26.3671875 15.1171875,36.26953125 12.890625,36.26953125 12.890625,26.6015625 10.0360107421875,26.6152954101563 7.50732421875,26.217041015625 5.3045654296875,25.4067993164063 3.427734375,24.1845703125 1.9281005859375,22.5888061523438 0.85693359375,20.657958984375 0.2142333984375,18.3920288085938 0,15.791015625 0,0z" />
    </g>
  </g>
</svg>