<?xml version="1.0" encoding="utf-8"?>
<!DOCTYPE svg PUBLIC "-//W3C//DTD SVG 1.1//EN" "http://www.w3.org/Graphics/SVG/1.1/DTD/svg11.dtd">
<svg width="28.916015625" height="51.6796875" xmlns="http://www.w3.org/2000/svg" xmlns:xlink="http://www.w3.org/1999/xlink" xmlns:xml="http://www.w3.org/XML/1998/namespace" version="1.1">
  <g>
    <g>
      <path style="fill:#FF0000;fill-opacity:1" d="M0,9.66796875L4.92187547683716,9.66796875 4.92187547683716,25.224609375 5.37231492996216,28.1854248046875 6.72363328933716,30.30029296875 8.975830078125,31.5692138671875 12.12890625,31.9921875 14.8260498046875,31.790771484375 17.70263671875,31.1865234375 20.7586669921875,30.179443359375 23.994140625,28.76953125 23.994140625,9.66796875 28.916015625,9.66796875 28.916015625,51.6796875 23.994140625,51.6796875 23.994140625,32.783203125 20.6982421875,34.3341064453125 17.51953125,35.44189453125 14.4580078125,36.1065673828125 11.513671875,36.328125 6.63208055496216,35.614013671875 3.00293064117432,33.4716796875 1.68914866447449,31.8997192382813 0.750732898712158,30.040283203125 0.187683388590813,27.8933715820313 0,25.458984375 0,9.66796875z M20.15625,0L21.2915019989014,0.20874311029911 22.236328125,0.83496105670929 22.8735332489014,1.76147747039795 23.0859375,2.87109351158142 22.8808574676514,3.984375 22.265625,4.92187452316284 21.3427715301514,5.55908203125 20.21484375,5.771484375 19.12353515625,5.56640625 18.193359375,4.951171875 17.55615234375,4.02099609375 17.34375,2.87109351158142 17.548828125,1.74316692352295 18.1640625,0.820312440395355 19.072265625,0.205080986022949 20.15625,0z M8.876953125,0L9.99755859375,0.20874311029911 10.95703125,0.83496105670929 11.6162109375,1.76147747039795 11.8359375,2.87109351158142 11.62353515625,3.984375 10.986328125,4.92187452316284 10.05615234375,5.55908203125 8.96484375,5.771484375 7.825927734375,5.555419921875 6.87011766433716,4.90722703933716 6.22192430496216,3.966064453125 6.00585985183716,2.87109351158142 6.21460008621216,1.74316692352295 6.84082078933716,0.820312440395355 7.767333984375,0.205080986022949 8.876953125,0z" />
    </g>
  </g>
</svg>