<?xml version="1.0" encoding="utf-8"?>
<!DOCTYPE svg PUBLIC "-//W3C//DTD SVG 1.1//EN" "http://www.w3.org/Graphics/SVG/1.1/DTD/svg11.dtd">
<svg width="28.330078125" height="59.12109375" xmlns="http://www.w3.org/2000/svg" xmlns:xlink="http://www.w3.org/1999/xlink" xmlns:xml="http://www.w3.org/XML/1998/namespace" version="1.1">
  <g>
    <g>
      <path style="fill:#FF0000;fill-opacity:1" d="M0,15L5.33203172683716,15 13.447265625,38.0859375 13.6743154525757,38.876953125 14.0625,40.37109375 14.23828125,40.37109375 14.4580068588257,39.462890625 14.82421875,38.14453125 23.349609375,15 28.330078125,15 14.53125,49.8046875 12.498779296875,53.880615234375 10.0927734375,56.7919921875 7.313232421875,58.538818359375 4.16015625,59.12109375 1.02539086341858,58.740234375 1.02539086341858,54.43359375 3.8671875,54.9609375 5.570068359375,54.68994140625 7.0458984375,53.876953125 8.294677734375,52.52197265625 9.31640625,50.625 11.71875,44.94140625 0,15z M21.6796875,0L25.576171875,0 18.3984375,9.31640625 15.556640625,9.31640625 21.6796875,0z M14.53125,0L18.33984375,0 11.30859375,9.31640625 8.49609375,9.31640625 14.53125,0z" />
    </g>
  </g>
</svg>