<?xml version="1.0" encoding="utf-8"?>
<!DOCTYPE svg PUBLIC "-//W3C//DTD SVG 1.1//EN" "http://www.w3.org/Graphics/SVG/1.1/DTD/svg11.dtd">
<svg width="34.5703125" height="53.26171875" xmlns="http://www.w3.org/2000/svg" xmlns:xlink="http://www.w3.org/1999/xlink" xmlns:xml="http://www.w3.org/XML/1998/namespace" version="1.1">
  <g>
    <g>
      <path style="fill:#FF0000;fill-opacity:1" d="M0,0L4.921875,0 4.921875,15.556640625 5.372314453125,18.5174560546875 6.7236328125,20.63232421875 8.975830078125,21.9012451171875 12.12890625,22.32421875 14.8260498046875,22.122802734375 17.70263671875,21.5185546875 20.7586669921875,20.511474609375 23.994140625,19.1015625 23.994140625,0 28.916015625,0 28.916015625,37.55859375 34.5703125,37.55859375 34.5703125,53.26171875 30,53.26171875 30,42.01171875 23.994140625,42.01171875 23.994140625,23.115234375 20.6982421875,24.6661376953125 17.51953125,25.77392578125 14.4580078125,26.4385986328125 11.513671875,26.66015625 6.632080078125,25.946044921875 3.00292921066284,23.8037109375 1.68914771080017,22.2317504882813 0.750732362270355,20.372314453125 0.18768310546875,18.2254028320313 0,15.791015625 0,0z" />
    </g>
  </g>
</svg>