<?xml version="1.0" encoding="utf-8"?>
<!DOCTYPE svg PUBLIC "-//W3C//DTD SVG 1.1//EN" "http://www.w3.org/Graphics/SVG/1.1/DTD/svg11.dtd">
<svg width="28.330078125" height="55.576171875" xmlns="http://www.w3.org/2000/svg" xmlns:xlink="http://www.w3.org/1999/xlink" xmlns:xml="http://www.w3.org/XML/1998/namespace" version="1.1">
  <g>
    <g>
      <path style="fill:#FF0000;fill-opacity:1" d="M0,11.455078125L5.33203125,11.455078125 13.447265625,34.541015625 13.6743154525757,35.33203125 14.0625,36.826171875 14.23828125,36.826171875 14.4580068588257,35.91796875 14.82421875,34.599609375 23.349609375,11.455078125 28.330078125,11.455078125 14.53125,46.259765625 12.498779296875,50.335693359375 10.0927734375,53.2470703125 7.313232421875,54.993896484375 4.16015577316284,55.576171875 1.02539074420929,55.1953125 1.02539074420929,50.888671875 3.86718702316284,51.416015625 5.57006788253784,51.14501953125 7.0458984375,50.33203125 8.294677734375,48.97705078125 9.31640625,47.080078125 11.71875,41.396484375 0,11.455078125z M19.74609375,0L20.88134765625,0.208740234375 21.826171875,0.8349609375 22.46337890625,1.761474609375 22.67578125,2.87109375 22.470703125,3.984375 21.85546875,4.921875 20.9326171875,5.55908203125 19.8046875,5.771484375 18.71337890625,5.56640625 17.783203125,4.951171875 17.14599609375,4.02099609375 16.93359375,2.87109375 17.138671875,1.7431640625 17.75390625,0.8203125 18.662109375,0.205078125 19.74609375,0z M8.466796875,0L9.58740234375,0.208740234375 10.546875,0.8349609375 11.2060546875,1.761474609375 11.42578125,2.87109375 11.21337890625,3.984375 10.576171875,4.921875 9.64599609375,5.55908203125 8.5546875,5.771484375 7.415771484375,5.555419921875 6.4599609375,4.9072265625 5.81176710128784,3.966064453125 5.595703125,2.87109375 5.80444288253784,1.7431640625 6.43066453933716,0.8203125 7.357177734375,0.205078125 8.466796875,0z" />
    </g>
  </g>
</svg>