<?xml version="1.0" encoding="utf-8"?>
<!DOCTYPE svg PUBLIC "-//W3C//DTD SVG 1.1//EN" "http://www.w3.org/Graphics/SVG/1.1/DTD/svg11.dtd">
<svg width="44.8828125" height="31.40625" xmlns="http://www.w3.org/2000/svg" xmlns:xlink="http://www.w3.org/1999/xlink" xmlns:xml="http://www.w3.org/XML/1998/namespace" version="1.1">
  <g>
    <g>
      <path style="fill:#FF0000;fill-opacity:1" d="M18.896484375,16.845703125L12.94921875,17.197265625 9.393310546875,17.67333984375 6.8701171875,18.6328125 5.364990234375,20.2294921875 4.86328125,22.6171875 5.25146484375,24.547119140625 6.416015625,26.0595703125 8.23974609375,27.037353515625 10.60546875,27.36328125 13.82080078125,26.744384765625 16.494140625,24.8876953125 18.2958984375,22.100830078125 18.896484375,18.69140625 18.896484375,16.845703125z M32.51953125,4.04296875L29.36279296875,4.64355611801147 26.689453125,6.4453125 24.7265605926514,9.2431640625 23.701171875,12.83203125 39.9609375,12.83203125 39.429931640625,9.0966796875 37.9541015625,6.328125 35.621337890625,4.61425924301147 32.51953125,4.04296875z M13.125,0L16.22314453125,0.366212010383606 18.720703125,1.46484518051147 20.61767578125,3.29589939117432 21.9140625,5.859375 22.03125,5.859375 23.9575176239014,3.29589939117432 26.3378887176514,1.46484518051147 29.1723613739014,0.366212010383606 32.4609375,0 35.2532958984375,0.238953709602356 37.71240234375,0.955811977386475 39.8382568359375,2.15057468414307 41.630859375,3.8232421875 43.0535888671875,5.92071533203125 44.06982421875,8.389892578125 44.6795654296875,11.2307739257813 44.8828125,14.443359375 44.8828125,16.904296875 23.642578125,16.904296875 24.3530254364014,21.3427734375 26.30859375,24.638671875 29.36279296875,26.68212890625 33.369140625,27.36328125 35.9014892578125,27.154541015625 38.31298828125,26.5283203125 40.6036376953125,25.484619140625 42.7734375,24.0234375 42.7734375,28.53515625 38.2177734375,30.6884765625 32.28515625,31.40625 28.6175518035889,30.9869384765625 25.5249004364014,29.72900390625 23.0072002410889,27.6324462890625 21.064453125,24.697265625 20.947265625,24.697265625 18.6456298828125,27.6324462890625 15.98876953125,29.72900390625 12.9766845703125,30.9869384765625 9.609375,31.40625 5.606689453125,30.816650390625 2.5634765625,29.0478515625 0.640869140625,26.290283203125 0,22.734375 0.7012939453125,18.84521484375 2.80517578125,15.966796875 6.3116455078125,14.09912109375 11.220703125,13.2421875 18.896484375,12.7734375 18.5028076171875,8.95385837554932 17.32177734375,6.22558736801147 15.3533935546875,4.58862400054932 12.59765625,4.04296875 10.07080078125,4.26635837554932 7.6171875,4.93652486801147 5.23681640625,6.05346775054932 2.9296875,7.6171875 2.9296875,2.8125 7.646484375,0.703126430511475 13.125,0z" />
    </g>
  </g>
</svg>