<?xml version="1.0" encoding="utf-8"?>
<!DOCTYPE svg PUBLIC "-//W3C//DTD SVG 1.1//EN" "http://www.w3.org/Graphics/SVG/1.1/DTD/svg11.dtd">
<svg width="46.669921875" height="19.248046875" xmlns="http://www.w3.org/2000/svg" xmlns:xlink="http://www.w3.org/1999/xlink" xmlns:xml="http://www.w3.org/XML/1998/namespace" version="1.1">
  <g>
    <g>
      <path style="fill:#FF0000;fill-opacity:1" d="M27.01171875,0L34.98779296875,2.28515768051147 44.033203125,5.21484375 44.6264610290527,5.41259908676147 45.8203125,5.771484375 46.4575157165527,8.20312690734863 46.669921875,11.220703125 46.4428672790527,13.92333984375 45.76171875,16.5234375 40.48828125,15.9375 34.716796875,18.33984375 33.17138671875,18.12744140625 31.11328125,17.783203125 29.45068359375,18.8818359375 27.861328125,19.248046875 26.5063457489014,18.91845703125 25.25390625,17.9296875 23.583984375,18.3984375 21.2695293426514,17.7392578125 19.775390625,15.76171875 18.69140625,15.849609375 16.3201904296875,15.618896484375 14.62646484375,14.9267578125 13.6102294921875,13.773193359375 13.271484375,12.158203125 13.604736328125,10.67138671875 14.6044921875,9.609375 16.270751953125,8.97216796875 18.603515625,8.759765625 20.302734375,8.84765625 19.1528301239014,8.17383003234863 18.3984375,7.67578125 9.580078125,7.705078125 7.0550537109375,7.63183689117432 4.95849609375,7.41211080551147 3.2904052734375,7.04589939117432 2.05078125,6.533203125 0.5126953125,4.88525533676147 0,2.28515625 0,1.7578125 27.01171875,0z" />
    </g>
  </g>
</svg>