<?xml version="1.0" encoding="utf-8"?>
<!DOCTYPE svg PUBLIC "-//W3C//DTD SVG 1.1//EN" "http://www.w3.org/Graphics/SVG/1.1/DTD/svg11.dtd">
<svg width="67.3535156250008" height="33.69140625" xmlns="http://www.w3.org/2000/svg" xmlns:xlink="http://www.w3.org/1999/xlink" xmlns:xml="http://www.w3.org/XML/1998/namespace" version="1.1">
  <g>
    <g>
      <path style="fill:#FF0000;fill-opacity:1" d="M29.47265625,14.736328125L33.69140625,14.736328125 35.1708984375,15.3662109375 35.80078125,16.845703125 35.1708984375,18.3251953125 33.69140625,18.955078125 29.47265625,18.955078125 27.978515625,18.33984375 27.36328125,16.845703125 27.978515625,15.3515625 29.47265625,14.736328125z M10.517578125,10.517578125L10.517578125,23.173828125 42.099609375,23.173828125 42.099609375,10.517578125 10.517578125,10.517578125z M8.408203125,10.517578125L6.767578125,10.8544921875 5.4345703125,11.7626953125 4.5263671875,13.095703125 4.189453125,14.736328125 4.189453125,18.955078125 4.5263671875,20.595703125 5.4345703125,21.9287109375 6.767578125,22.8369140625 8.408203125,23.173828125 8.408203125,10.517578125z M58.9453125,6.328125L58.9453125,27.36328125 60.736083984375,25.096435546875 62.0654296875,22.5146484375 62.889404296875,19.727783203125 63.1640625,16.845703125 62.889404296875,13.963623046875 62.0654296875,11.1767578125 60.736083984375,8.59497261047363 58.9453125,6.328125z M56.8359375,4.21875L44.208984375,10.517578125 44.208984375,23.173828125 56.8359375,29.47265625 56.8359375,4.21875z M55.83984375,0L63.1640625,0 63.1640625,4.74609375 64.969482421875,7.45971822738647 66.2841796875,10.4443359375 67.086181640625,13.6047382354736 67.353515625,16.845703125 67.086181640625,20.086669921875 66.2841796875,23.2470703125 64.969482421875,26.231689453125 63.1640625,28.9453125 63.1640625,33.69140625 55.83984375,33.69140625 43.212890625,27.36328125 8.408203125,27.36328125 5.1416015625,26.7041015625 2.46093845367432,24.90234375 0.6591796875,22.2216796875 0,18.955078125 0,14.736328125 0.6591796875,11.4697265625 2.46093845367432,8.7890625 5.1416015625,6.9873046875 8.408203125,6.328125 43.212890625,6.328125 55.83984375,0z" />
    </g>
  </g>
</svg>