<?xml version="1.0" encoding="utf-8"?>
<!DOCTYPE svg PUBLIC "-//W3C//DTD SVG 1.1//EN" "http://www.w3.org/Graphics/SVG/1.1/DTD/svg11.dtd">
<svg width="19.248046875" height="30.966796875" xmlns="http://www.w3.org/2000/svg" xmlns:xlink="http://www.w3.org/1999/xlink" xmlns:xml="http://www.w3.org/XML/1998/namespace" version="1.1">
  <g>
    <g>
      <path style="fill:#FF0000;fill-opacity:1" d="M12.275390625,22.470703125L12.275390625,24.7265625 15.205078125,24.7265625 15.205078125,22.470703125 12.275390625,22.470703125z M8.0859375,22.470703125L8.0859375,24.7265625 11.015625,24.7265625 11.015625,22.470703125 8.0859375,22.470703125z M3.896484375,22.470703125L3.896484375,24.7265625 6.826171875,24.7265625 6.826171875,22.470703125 3.896484375,22.470703125z M12.275390625,18.955078125L12.275390625,21.2109375 15.205078125,21.2109375 15.205078125,18.955078125 12.275390625,18.955078125z M8.0859375,18.955078125L8.0859375,21.2109375 11.015625,21.2109375 11.015625,18.955078125 8.0859375,18.955078125z M3.896484375,18.955078125L3.896484375,21.2109375 6.826171875,21.2109375 6.826171875,18.955078125 3.896484375,18.955078125z M12.275390625,15.439453125L12.275390625,17.6953125 15.205078125,17.6953125 15.205078125,15.439453125 12.275390625,15.439453125z M8.0859375,15.439453125L8.0859375,17.6953125 11.015625,17.6953125 11.015625,15.439453125 8.0859375,15.439453125z M3.896484375,15.439453125L3.896484375,17.6953125 6.826171875,17.6953125 6.826171875,15.439453125 3.896484375,15.439453125z M12.275390625,11.923828125L12.275390625,14.1796875 15.205078125,14.1796875 15.205078125,11.923828125 12.275390625,11.923828125z M8.0859375,11.923828125L8.0859375,14.1796875 11.015625,14.1796875 11.015625,11.923828125 8.0859375,11.923828125z M3.896484375,11.923828125L3.896484375,14.1796875 6.826171875,14.1796875 6.826171875,11.923828125 3.896484375,11.923828125z M2.87109375,4.453125L2.87109375,7.32421875 16.376953125,7.32421875 16.376953125,4.453125 2.87109375,4.453125z M0,0L19.248046875,0 19.248046875,30.966796875 0,30.966796875 0,0z" />
    </g>
  </g>
</svg>