<?xml version="1.0" encoding="utf-8"?>
<!DOCTYPE svg PUBLIC "-//W3C//DTD SVG 1.1//EN" "http://www.w3.org/Graphics/SVG/1.1/DTD/svg11.dtd">
<svg width="46.3183593750015" height="67.3828125" xmlns="http://www.w3.org/2000/svg" xmlns:xlink="http://www.w3.org/1999/xlink" xmlns:xml="http://www.w3.org/XML/1998/namespace" version="1.1">
  <g>
    <g>
      <path style="fill:#FF0000;fill-opacity:1" d="M27.36328125,56.865234375L40.01953125,56.865234375 40.01953125,58.974609375 27.36328125,58.974609375 27.36328125,56.865234375z M27.36328125,50.537109375L40.01953125,50.537109375 40.01953125,54.755859375 27.36328125,54.755859375 27.36328125,50.537109375z M6.328125,18.955078125L18.955078125,18.955078125 18.955078125,23.173828125 6.328125,23.173828125 6.328125,18.955078125z M6.328125,14.736328125L18.955078125,14.736328125 18.955078125,16.845703125 6.328125,16.845703125 6.328125,14.736328125z M42.099609375,9.638671875L41.806640625,10.810546875 41.1181640625,11.7626953125 40.13671875,12.392578125 38.96484375,12.626953125 37.001953125,12.24609375 35.302734375,11.162109375 34.1455078125,12.2314453125 32.63671875,12.626953125 30.673828125,12.2607421875 29.00390625,11.162109375 27.83203125,12.2314453125 26.30859375,12.626953125 24.3603515625,12.2607421875 22.67578125,11.162109375 21.5185546875,12.2314453125 20.009765625,12.626953125 18.046875,12.24609375 16.34765625,11.162109375 15.1904296875,12.2314453125 13.681640625,12.626953125 11.7333984375,12.2607421875 10.048828125,11.162109375 8.8916015625,12.2314453125 7.353515625,12.626953125 5.68359375,12.36328125 4.21875,11.572265625 4.21875,61.0546875 4.833984375,62.548828125 6.328125,63.1640625 40.01953125,63.1640625 41.484375,62.5341796875 42.099609375,61.0546875 42.099609375,9.638671875z M38.96484375,4.21874952316284L37.7197265625,4.46777296066284 36.7236328125,5.1416015625 36.0498046875,6.15234375 35.80078125,7.3828125 36.0498046875,8.6279296875 36.7236328125,9.609375 37.7197265625,10.2685546875 38.96484375,10.517578125 39.697265625,10.2099609375 40.01953125,9.4921875 39.6826171875,8.73046875 38.9501953125,8.4375 38.232421875,8.14453125 37.91015625,7.3828125 38.203125,6.62109375 38.96484375,6.328125 41.923828125,6.328125 40.78125,4.8046875 38.96484375,4.21874952316284z M32.63671875,4.21874952316284L31.3916015625,4.46777296066284 30.3955078125,5.1416015625 29.7216796875,6.15234375 29.47265625,7.3828125 29.7216796875,8.6279296875 30.3955078125,9.609375 31.3916015625,10.2685546875 32.63671875,10.517578125 33.369140625,10.2099609375 33.69140625,9.4921875 33.3544921875,8.7158203125 32.6220703125,8.4228515625 31.904296875,8.14453125 31.58203125,7.3828125 32.0654296875,6.50390625 33.134765625,6.328125 33.80859375,6.328125 34.013671875,5.49316358566284 34.39453125,4.74609375 32.63671875,4.21874952316284z M26.30859375,4.21874952316284L25.0634765625,4.46777296066284 24.08203125,5.1416015625 23.4228515625,6.15234375 23.173828125,7.3828125 23.4228515625,8.5986328125 24.0966796875,9.5947265625 25.0927734375,10.2685546875 26.30859375,10.517578125 27.041015625,10.2099609375 27.36328125,9.4921875 27.0263671875,8.7158203125 26.2939453125,8.4228515625 25.576171875,8.14453125 25.25390625,7.3828125 25.7373046875,6.50390625 26.806640625,6.328125 27.48046875,6.328125 27.7001953125,5.5224609375 28.06640625,4.74609375 26.30859375,4.21874952316284z M20.009765625,4.21874952316284L18.7646484375,4.46777296066284 17.7685546875,5.1416015625 17.0947265625,6.15234375 16.845703125,7.3828125 17.0947265625,8.6279296875 17.7685546875,9.609375 18.7646484375,10.2685546875 20.009765625,10.517578125 20.7421875,10.2099609375 21.064453125,9.4921875 20.7275390625,8.73046875 19.9951171875,8.4375 19.27734375,8.14453125 18.955078125,7.3828125 19.3798828125,6.50390625 20.390625,6.298828125 21.15234375,6.328125 21.4013671875,5.5078125 21.767578125,4.74609375 20.009765625,4.21874952316284z M13.681640625,4.21874952316284L12.4658203125,4.46777296066284 11.455078125,5.15625 10.7666015625,6.1669921875 10.517578125,7.3828125 10.7666015625,8.5986328125 11.455078125,9.5947265625 12.4658203125,10.2685546875 13.681640625,10.517578125 14.4140625,10.2099609375 14.736328125,9.4921875 14.3994140625,8.7158203125 13.6669921875,8.4228515625 12.94921875,8.14453125 12.626953125,7.3828125 13.1103515625,6.50390625 14.1796875,6.328125 14.853515625,6.328125 15.05859375,5.49316358566284 15.439453125,4.74609375 13.681640625,4.21874952316284z M7.353515625,4.21874952316284L6.1376953125,4.46777296066284 5.1416015625,5.15625 4.4677734375,6.1669921875 4.21875,7.3828125 4.4677734375,8.5986328125 5.1416015625,9.5947265625 6.1376953125,10.2685546875 7.353515625,10.517578125 8.1005859375,10.224609375 8.4375,9.4921875 8.1005859375,8.73046875 7.3681640625,8.4375 6.650390625,8.14453125 6.328125,7.3828125 6.796875,6.50390625 7.822265625,6.328125 8.525390625,6.328125 8.73046875,5.56640625 9.052734375,4.86328077316284 9.111328125,4.74609375 7.353515625,4.21874952316284z M4.21875,0L42.099609375,0 43.740234375,0.336913824081421 45.0732421875,1.2451171875 45.9814453125,2.57812452316284 46.318359375,4.21874952316284 46.318359375,61.0546875 45.8203125,63.515625 44.47265625,65.5224609375 42.48046875,66.884765625 40.01953125,67.3828125 6.328125,67.3828125 3.8525390625,66.884765625 1.845703125,65.537109375 0.498046398162842,63.5302734375 0,61.0546875 0,4.21874952316284 0.336914539337158,2.57812452316284 1.2451171875,1.2451171875 2.578125,0.336913824081421 4.21875,0z" />
    </g>
  </g>
</svg>