<?xml version="1.0" encoding="utf-8"?>
<!DOCTYPE svg PUBLIC "-//W3C//DTD SVG 1.1//EN" "http://www.w3.org/Graphics/SVG/1.1/DTD/svg11.dtd">
<svg width="67.3828125" height="67.3828125" xmlns="http://www.w3.org/2000/svg" xmlns:xlink="http://www.w3.org/1999/xlink" xmlns:xml="http://www.w3.org/XML/1998/namespace" version="1.1">
  <g>
    <g>
      <path style="fill:#FF0000;fill-opacity:1" d="M13.388671875,48.33984375L13.388671875,51.826171875 15,51.826171875 16.5380859375,51.4306640625 17.2265625,50.0390625 16.5380859375,48.720703125 15.029296875,48.33984375 13.388671875,48.33984375z M27.71484375,43.125L26.953125,45.99609375 25.95703125,48.779296875 29.35546875,48.779296875 28.4033203125,45.99609375 27.71484375,43.125z M13.388671875,42.978515625L13.388671875,46.11328125 14.70703125,46.11328125 16.0986328125,45.7177734375 16.69921875,44.443359375 16.494140625,43.681640625 15.966796875,43.2421875 15.263671875,43.037109375 14.501953125,42.978515625 13.388671875,42.978515625z M47.724609375,40.78125L50.712890625,40.78125 50.712890625,47.05078125 50.91796875,46.6552734375 51.123046875,46.2890625 54.78515625,40.78125 58.359375,40.78125 53.73046875,47.109375 58.76953125,54.052734375 54.990234375,54.052734375 51.123046875,48.28125 50.771484375,47.548828125 50.771484375,54.052734375 47.724609375,54.052734375 47.724609375,40.78125z M25.986328125,40.78125L29.53125,40.78125 34.248046875,54.052734375 30.99609375,54.052734375 30.05859375,51.09375 25.341796875,51.09375 24.404296875,54.052734375 21.15234375,54.052734375 25.986328125,40.78125z M10.400390625,40.78125L15.234375,40.78125 16.81640625,40.9130859375 18.310546875,41.3818359375 19.4091796875,42.3193359375 19.833984375,43.88671875 19.6398906707764,44.937744140625 19.0576171875,45.8056640625 17.255859375,46.875 19.4677734375,47.8564453125 20.1379375457764,48.812255859375 20.361328125,50.068359375 19.951171875,51.884765625 18.8671875,53.1298828125 17.314453125,53.8330078125 15.498046875,54.052734375 10.400390625,54.052734375 10.400390625,40.78125z M41.865234375,40.546875L43.53515625,40.6494140625 45.146484375,41.044921875 45.146484375,43.916015625 43.681640625,43.3154296875 42.099609375,43.125 40.316162109375,43.42529296875 39.0087890625,44.326171875 38.206787109375,45.7177734375 37.939453125,47.490234375 38.203125,49.16748046875 38.994140625,50.5078125 40.26123046875,51.38671875 41.953125,51.6796875 43.6083984375,51.474609375 45.146484375,50.830078125 45.146484375,53.5546875 43.30078125,54.111328125 41.3671875,54.2578125 38.60595703125,53.82568359375 36.533203125,52.529296875 35.23681640625,50.45654296875 34.8046875,47.6953125 35.3173828125,44.8095703125 36.7529296875,42.5537109375 38.9794921875,41.07421875 41.865234375,40.546875z M23.173828125,14.736328125L23.173828125,21.064453125 52.646484375,21.064453125 52.646484375,25.283203125 23.173828125,25.283203125 23.173828125,31.58203125 14.736328125,23.173828125 23.173828125,14.736328125z M4.21875,4.21874952316284L4.21875,63.1640625 63.1640625,63.1640625 63.1640625,4.21874952316284 4.21875,4.21874952316284z M0,0L67.3828125,0 67.3828125,67.3828125 0,67.3828125 0,0z" />
    </g>
  </g>
</svg>