<?xml version="1.0" encoding="utf-8"?>
<!DOCTYPE svg PUBLIC "-//W3C//DTD SVG 1.1//EN" "http://www.w3.org/Graphics/SVG/1.1/DTD/svg11.dtd">
<svg width="67.3828125000031" height="67.412109375" xmlns="http://www.w3.org/2000/svg" xmlns:xlink="http://www.w3.org/1999/xlink" xmlns:xml="http://www.w3.org/XML/1998/namespace" version="1.1">
  <g>
    <g>
      <path style="fill:#FF0000;fill-opacity:1" d="M23.14453125,46.318359375L24.228515625,46.6259765625 25.01953125,47.431640625 26.77734375,49.599609375 28.6669921875,51.240234375 30.8935546875,52.2802734375 33.69140625,52.646484375 35.185546875,53.26171875 35.80078125,54.755859375 35.185546875,56.25 33.69140625,56.865234375 29.9853515625,56.337890625 26.484375,54.84375 23.49609375,52.5 21.328125,49.453125 21.064453125,48.427734375 21.6796875,46.9482421875 23.14453125,46.318359375z M29.47265625,40.01953125L37.91015625,40.01953125 37.5732421875,41.66015625 36.6650390625,42.9931640625 35.33203125,43.88671875 33.69140625,44.208984375 32.05078125,43.88671875 30.7177734375,42.9931640625 29.8095703125,41.66015625 29.47265625,40.01953125z M22.119140625,27.392578125L23.3349609375,27.6416015625 24.3310546875,28.3154296875 25.0048828125,29.3115234375 25.25390625,30.52734375 25.25390625,34.74609375 25.0048828125,35.9619140625 24.345703125,36.97265625 23.349609375,37.6611328125 22.119140625,37.91015625 20.8740234375,37.6611328125 19.8779296875,36.9873046875 19.2041015625,35.9912109375 18.955078125,34.74609375 18.955078125,30.52734375 19.2041015625,29.296875 19.892578125,28.30078125 20.9033203125,27.6416015625 22.119140625,27.392578125z M27.36328125,12.626953125L23.173828125,16.318359375 23.173828125,20.009765625 22.9248046875,21.2255859375 22.236328125,22.236328125 21.2255859375,22.9248046875 20.009765625,23.173828125 18.779296875,22.91015625 16.669921875,22.001953125 10.517578125,27.36328125 9.462890625,27.36328125 8.2470703125,27.6123046875 7.25097608566284,28.30078125 6.57714796066284,29.3115234375 6.32812452316284,30.52734375 6.32812452316284,36.85546875 6.57714796066284,38.0712890625 7.25097608566284,39.08203125 8.2470703125,39.7705078125 9.462890625,40.01953125 10.517578125,40.01953125 10.726318359375,43.154296875 11.3525390625,46.171875 13.6962890625,51.6943359375 17.314453125,56.3818359375 22.001953125,60.0146484375 27.5390625,62.34375 30.556640625,62.958984375 33.69140625,63.1640625 36.826171875,62.958984375 39.84375,62.34375 45.380859375,60.0146484375 50.068359375,56.3818359375 53.6865234375,51.6943359375 56.0302734375,46.171875 56.656494140625,43.154296875 56.865234375,40.01953125 57.919921875,40.01953125 59.1357421875,39.7705078125 60.1318359375,39.08203125 60.8056640625,38.0712890625 61.0546875,36.85546875 61.0546875,30.52734375 60.8056640625,29.3115234375 60.1318359375,28.30078125 59.1357421875,27.6123046875 57.919921875,27.36328125 56.865234375,27.36328125 56.865234375,31.58203125 48.427734375,31.58203125 48.427734375,34.74609375 48.1787109375,35.9912109375 47.5048828125,36.9873046875 46.494140625,37.6611328125 45.263671875,37.91015625 44.0478515625,37.6611328125 43.0517578125,36.97265625 42.3779296875,35.9619140625 42.12890625,34.74609375 42.12890625,31.58203125 40.01953125,31.58203125 37.467041015625,31.336669921875 35.0830078125,30.6005859375 31.0693359375,27.9052734375 28.359375,23.8916015625 27.6123046875,21.507568359375 27.36328125,18.955078125 27.36328125,12.626953125z M7.38281202316284,12.626953125L6.63574171066284,12.9345703125 6.32812452316284,13.681640625 6.32812452316284,20.009765625 6.63574171066284,20.7568359375 7.38281202316284,21.064453125 7.98339796066284,20.9033203125 9.0673828125,20.478515625 10.400390625,19.9072265625 11.7626953125,19.306640625 12.9345703125,18.779296875 13.681640625,18.427734375 14.4287109375,18.779296875 15.6005859375,19.306640625 16.962890625,19.9072265625 18.28125,20.478515625 19.365234375,20.9033203125 20.009765625,21.064453125 20.7568359375,20.7568359375 21.064453125,20.009765625 21.064453125,13.681640625 20.7568359375,12.9345703125 20.009765625,12.626953125 19.365234375,12.7880859375 18.28125,13.212890625 16.962890625,13.7841796875 15.6005859375,14.384765625 14.4287109375,14.912109375 13.681640625,15.263671875 12.9345703125,14.9267578125 11.7626953125,14.384765625 10.400390625,13.7841796875 9.0673828125,13.212890625 7.98339796066284,12.7880859375 7.38281202316284,12.626953125z M33.69140625,0L38.69384765625,0.450442343950272 43.447265625,1.80175805091858 47.8308067321777,3.95141887664795 51.7236328125,6.796875 55.0561485290527,10.27587890625 57.7587890625,14.326171875 59.718017578125,18.8525390625 60.8203125,23.759765625 62.63671875,24.90234375 64.04296875,26.484375 64.951171875,28.4033203125 65.2734375,30.52734375 65.2734375,36.85546875 64.98779296875,38.909912109375 64.130859375,40.7958984375 62.79052734375,42.374267578125 61.0546875,43.505859375 61.0546875,54.755859375 67.3828125,54.755859375 67.3828125,58.974609375 66.7236328125,62.255859375 64.921875,64.9072265625 62.255859375,66.6943359375 58.974609375,67.3828125 57.7001953125,67.412109375 56.42578125,67.412109375 53.7158203125,67.294921875 51.26953125,66.8115234375 49.0283203125,65.7568359375 46.962890625,63.955078125 43.8354454040527,65.42724609375 40.546875,66.50390625 37.1484375,67.1630859375 33.69140625,67.3828125 30.234375,67.1630859375 26.8359375,66.50390625 23.54736328125,65.42724609375 20.419921875,63.955078125 18.33984375,65.771484375 16.11328125,66.8115234375 13.65234375,67.294921875 10.927734375,67.412109375 8.408203125,67.412109375 5.14160108566284,66.73828125 2.46093702316284,64.921875 0.659179210662842,62.2412109375 0,58.974609375 0,54.755859375 6.32812452316284,54.755859375 6.32812452316284,43.505859375 4.59228467941284,42.374267578125 3.25195264816284,40.7958984375 2.39501905441284,38.909912109375 2.10937452316284,36.85546875 2.10937452316284,30.52734375 2.84179639816284,27.2607421875 4.98046827316284,24.697265625 2.88574171066284,22.763671875 2.30346632003784,21.4453125 2.10937452316284,20.009765625 2.10937452316284,13.681640625 2.51953077316284,11.6455078125 3.64746046066284,9.9755859375 5.33203077316284,8.84765625 7.38281202316284,8.4375 9.7705078125,8.9208984375 12.041015625,9.931640625 12.451171875,10.13671875 16.787109375,5.8447265625 21.9140625,2.65136671066284 27.6123046875,0.673828125 33.69140625,0z" />
    </g>
  </g>
</svg>