<?xml version="1.0" encoding="utf-8"?>
<!DOCTYPE svg PUBLIC "-//W3C//DTD SVG 1.1//EN" "http://www.w3.org/Graphics/SVG/1.1/DTD/svg11.dtd">
<svg width="58.9453125" height="67.3828125" xmlns="http://www.w3.org/2000/svg" xmlns:xlink="http://www.w3.org/1999/xlink" xmlns:xml="http://www.w3.org/XML/1998/namespace" version="1.1">
  <g>
    <g>
      <path style="fill:#FF0000;fill-opacity:1" d="M4.21875047683716,29.47265625L4.21875047683716,37.91015625 4.44580125808716,41.33056640625 5.12695360183716,44.619140625 7.67578172683716,50.654296875 11.6162109375,55.7666015625 16.728515625,59.70703125 22.763671875,62.255859375 26.05224609375,62.93701171875 29.47265625,63.1640625 32.89306640625,62.93701171875 36.181640625,62.255859375 42.216796875,59.70703125 47.34375,55.7666015625 51.298828125,50.654296875 53.84765625,44.619140625 54.5288047790527,41.33056640625 54.755859375,37.91015625 54.755859375,29.47265625 44.208984375,40.01953125 35.80078125,31.58203125 29.47265625,37.91015625 23.173828125,31.58203125 14.736328125,40.01953125 4.21875047683716,29.47265625z M27.392578125,16.845703125L31.58203125,16.845703125 33.076171875,17.4609375 33.69140625,18.955078125 33.544921875,19.6728515625 33.1640625,20.302734375 29.501953125,25.25390625 25.751953125,20.244140625 25.283203125,18.955078125 25.8984375,17.4609375 27.392578125,16.845703125z M35.80078125,10.517578125L37.2802734375,11.1474609375 37.91015625,12.626953125 37.91015625,14.736328125 37.294921875,16.23046875 35.80078125,16.845703125 34.306640625,16.23046875 33.69140625,14.736328125 33.69140625,12.626953125 34.3212890625,11.1474609375 35.80078125,10.517578125z M23.173828125,10.517578125L24.6533203125,11.1474609375 25.283203125,12.626953125 25.283203125,14.736328125 24.66796875,16.23046875 23.173828125,16.845703125 21.6796875,16.23046875 21.064453125,14.736328125 21.064453125,12.626953125 21.6943359375,11.1474609375 23.173828125,10.517578125z M29.47265625,4.21874952316284L27.366943359375,4.42749309539795 25.3857421875,5.0537109375 22.0458984375,7.3095703125 19.7900390625,10.6494140625 19.1638164520264,12.630615234375 18.955078125,14.736328125 18.955078125,23.173828125 10.60546875,14.82421875 8.90625,18.2666015625 8.3203125,22.060546875 9.0087890625,26.2060546875 10.83984375,29.5458984375 13.4326171875,32.4755859375 16.40625,35.361328125 23.173828125,28.59375 29.47265625,34.921875 35.80078125,28.59375 42.5390625,35.361328125 45.5126953125,32.4755859375 48.10546875,29.5458984375 49.9365234375,26.19140625 50.625,22.060546875 50.0390625,18.2666015625 48.33984375,14.82421875 40.01953125,23.173828125 40.01953125,14.736328125 39.810791015625,12.630615234375 39.1845703125,10.6494140625 36.9140625,7.3095703125 33.5595703125,5.0537109375 31.578369140625,4.42749309539795 29.47265625,4.21874952316284z M29.47265625,0L32.2119140625,0.249026298522949 34.8046875,0.99609375 37.18505859375,2.18262004852295 39.287109375,3.74999976158142 42.5244140625,7.91015625 43.5607872009277,10.40771484375 44.12109375,13.095703125 48.92578125,8.291015625 49.6875,9.375 51.8994140625,12.626953125 53.49609375,15.5712890625 54.4482421875,18.8818359375 54.755859375,23.173828125 58.9453125,18.955078125 58.9453125,37.91015625 58.681640625,41.905517578125 57.890625,45.7470703125 56.619873046875,49.38720703125 54.9169921875,52.7783203125 52.8039512634277,55.902099609375 50.302734375,58.740234375 47.4645957946777,61.241455078125 44.3408203125,63.3544921875 40.9497032165527,65.057373046875 37.3095703125,66.328125 33.468017578125,67.119140625 29.47265625,67.3828125 25.477294921875,67.119140625 21.6357421875,66.328125 17.9956035614014,65.057373046875 14.6044921875,63.3544921875 11.480712890625,61.241455078125 8.642578125,58.740234375 6.14135694503784,55.902099609375 4.02832078933716,52.7783203125 2.32543992996216,49.38720703125 1.05468797683716,45.7470703125 0.263671934604645,41.905517578125 0,37.91015625 0,18.955078125 4.21875047683716,23.173828125 4.21875047683716,23.02734375 4.57031297683716,18.57421875 5.63964891433716,15.087890625 7.45605516433716,11.89453125 10.01953125,8.291015625 14.82421875,13.095703125 15.362548828125,10.40771484375 16.3916015625,7.91015625 19.6435546875,3.74999976158142 21.7602519989014,2.18262004852295 24.1552734375,0.99609375 26.751708984375,0.249026298522949 29.47265625,0z" />
    </g>
  </g>
</svg>