<?xml version="1.0" encoding="utf-8"?>
<!DOCTYPE svg PUBLIC "-//W3C//DTD SVG 1.1//EN" "http://www.w3.org/Graphics/SVG/1.1/DTD/svg11.dtd">
<svg width="43.359375" height="44.82421875" xmlns="http://www.w3.org/2000/svg" xmlns:xlink="http://www.w3.org/1999/xlink" xmlns:xml="http://www.w3.org/XML/1998/namespace" version="1.1">
  <g>
    <g>
      <path style="fill:#FF0000;fill-opacity:1" d="M1.435546875,13.0078125L1.435546875,43.388671875 30.3515625,43.388671875 30.3515625,13.0078125 1.435546875,13.0078125z M7.236328125,7.236328125L7.236328125,11.572265625 31.81640625,11.572265625 31.81640625,37.587890625 36.15234375,37.587890625 36.15234375,7.236328125 7.236328125,7.236328125z M13.0078125,1.435546875L13.0078125,5.771484375 37.587890625,5.771484375 37.587890625,31.81640625 41.923828125,31.81640625 41.923828125,1.435546875 13.0078125,1.435546875z M11.572265625,0L43.359375,0 43.359375,33.251953125 37.587890625,33.251953125 37.587890625,39.0234375 31.81640625,39.0234375 31.81640625,44.82421875 0,44.82421875 0,11.572265625 5.771484375,11.572265625 5.771484375,5.771484375 11.572265625,5.771484375 11.572265625,0z" />
    </g>
  </g>
</svg>