<?xml version="1.0" encoding="utf-8"?>
<!DOCTYPE svg PUBLIC "-//W3C//DTD SVG 1.1//EN" "http://www.w3.org/Graphics/SVG/1.1/DTD/svg11.dtd">
<svg width="28.7440146169355" height="57.451171875" xmlns="http://www.w3.org/2000/svg" xmlns:xlink="http://www.w3.org/1999/xlink" xmlns:xml="http://www.w3.org/XML/1998/namespace" version="1.1">
  <g>
    <g>
      <path style="fill:#FF0000;fill-opacity:1" d="M27.1619834899902,52.79296875L27.5135459899902,53.14453125 27.1912803649902,53.525390625 23.8258018493652,53.9854431152344 20.9071006774902,54.3841552734375 18.4351768493652,54.7215270996094 16.4100303649902,54.99755859375 14.8316602706909,55.2122497558594 13.7000684738159,55.3656005859375 13.0152540206909,55.4576110839844 12.7772178649902,55.48828125 12.4549522399902,55.13671875 12.7479209899902,54.755859375 16.1133995056152,54.2958068847656 19.0321006774902,53.8970947265625 21.5040245056152,53.5597229003906 23.5291709899902,53.28369140625 25.1075401306152,53.0690002441406 26.2391319274902,52.9156494140625 26.9239463806152,52.8236389160156 27.1619834899902,52.79296875z M20.5701866149902,44.033203125L21.6468467712402,45.791015625 22.0057334899902,46.728515625 21.7493858337402,47.10205078125 20.9803428649902,47.34375 17.4299259185791,48.01025390625 14.4837589263916,48.486328125 12.1418409347534,48.77197265625 10.4041709899902,48.8671875 9.8914737701416,48.6181640625 9.11510848999023,47.87109375 8.4339542388916,47.0361328125 8.20690536499023,46.5234375 8.20690536499023,46.494140625 9.32018661499023,46.9921875 11.3123741149902,47.4609375 12.6966495513916,47.35107421875 15.5018272399902,47.021484375 18.3362998962402,46.64794921875 19.8084678649902,46.40625 20.5775108337402,46.16455078125 20.8338584899902,45.966796875 20.7020225524902,45.0439453125 20.5701866149902,44.033203125z M12.7479209899902,42.861328125L12.8651084899902,44.091796875 12.2205772399902,44.296875 12.1619834899902,43.505859375 7.41588973999023,44.296875 7.41588973999023,43.65234375 12.7479209899902,42.861328125z M19.7498741149902,41.689453125L19.9256553649902,42.3046875 16.2342491149902,43.0078125 16.2928428649902,43.7109375 15.7069053649902,43.76953125 15.5897178649902,42.48046875 19.7498741149902,41.689453125z M9.17370223999023,39.375L8.2069034576416,39.5654296875 7.88463973999023,40.13671875 8.1190128326416,40.5322265625 8.82213973999023,40.6640625 9.7889347076416,40.48095703125 10.1112022399902,39.931640625 9.8768253326416,39.51416015625 9.17370223999023,39.375z M12.1619834899902,38.935546875L11.1951847076416,39.1259765625 10.8729209899902,39.697265625 11.1072940826416,40.0927734375 11.8104209899902,40.224609375 12.7772159576416,40.04150390625 13.0994834899902,39.4921875 12.8651065826416,39.07470703125 12.1619834899902,38.935546875z M15.0916709899902,38.37890625L14.1248722076416,38.56201171875 13.8026084899902,39.111328125 14.0296573638916,39.5068359375 14.7108116149902,39.638671875 15.7435255050659,39.45556640625 16.0877647399902,38.90625 15.8387403488159,38.5107421875 15.0916709899902,38.37890625z M18.1971397399902,37.939453125L17.2303428649902,38.12255859375 16.9080772399902,38.671875 17.1351280212402,39.0673828125 17.8162803649902,39.19921875 18.7830772399902,39.01611328125 19.1053428649902,38.466796875 18.8782920837402,38.0712890625 18.1971397399902,37.939453125z M8.67565536499023,37.265625L7.70885848999023,37.44873046875 7.38659286499023,37.998046875 7.61364364624023,38.41552734375 8.29479598999023,38.5546875 9.2615909576416,38.37158203125 9.58385848999023,37.822265625 9.3568058013916,37.40478515625 8.67565536499023,37.265625z M11.8690147399902,36.826171875L10.9022159576416,37.00927734375 10.5799522399902,37.55859375 10.8070011138916,37.97607421875 11.4881553649902,38.115234375 12.4549503326416,37.93212890625 12.7772178649902,37.3828125 12.5501651763916,36.96533203125 11.8690147399902,36.826171875z M14.7401084899902,36.240234375L13.7733097076416,36.42333984375 13.4510459899902,36.97265625 13.6854190826416,37.39013671875 14.3885459899902,37.529296875 15.4212589263916,37.34619140625 15.7654991149902,36.796875 15.5091495513916,36.37939453125 14.7401084899902,36.240234375z M17.7869834899902,35.80078125L16.8201866149902,35.98388671875 16.4979209899902,36.533203125 16.7322959899902,36.95068359375 17.4354209899902,37.08984375 18.4022178649902,36.90673828125 18.7244834899902,36.357421875 18.4901084899902,35.93994140625 17.7869834899902,35.80078125z M8.82213973999023,34.16015625L7.63561630249023,34.4091796875 7.24010848999023,35.15625 7.54772567749023,35.74951171875 8.47057723999023,35.947265625 9.6570987701416,35.6982421875 10.0526084899902,34.951171875 9.7449893951416,34.35791015625 8.82213973999023,34.16015625z M13.2166709899902,33.720703125L12.0081729888916,33.93310546875 11.6053428649902,34.5703125 11.8177433013916,34.98779296875 12.4549522399902,35.126953125 13.6195011138916,34.9365234375 14.0076866149902,34.365234375 13.8099308013916,33.8818359375 13.2166709899902,33.720703125z M17.2889366149902,32.9296875L16.1243858337402,33.14208984375 15.7362022399902,33.779296875 16.4100303649902,34.365234375 17.7503623962402,34.1455078125 18.1971397399902,33.486328125 17.9700889587402,33.06884765625 17.2889366149902,32.9296875z M8.44128036499023,31.376953125L7.25475692749023,31.63330078125 6.85924911499023,32.40234375 7.15954208374023,32.99560546875 8.06042098999023,33.193359375 9.2469425201416,32.93701171875 9.64245223999023,32.16796875 9.3421573638916,31.57470703125 8.44128036499023,31.376953125z M12.8358116149902,30.9375L11.6273136138916,31.14990234375 11.2244834899902,31.787109375 11.4368839263916,32.2265625 12.0740928649902,32.373046875 13.2166690826416,32.17529296875 13.5975303649902,31.58203125 13.4070987701416,31.0986328125 12.8358116149902,30.9375z M16.8787803649902,30.146484375L15.7142276763916,30.3662109375 15.3260459899902,31.025390625 15.9998741149902,31.58203125 17.3402061462402,31.36962890625 17.7869834899902,30.732421875 17.5599327087402,30.29296875 16.8787803649902,30.146484375z M7.94323348999023,28.681640625L6.77868270874023,28.93798828125 6.39049911499023,29.70703125 6.69079208374023,30.30029296875 7.59167098999023,30.498046875 8.7781925201416,30.24169921875 9.17370223999023,29.47265625 8.8660831451416,28.87939453125 7.94323348999023,28.681640625z M12.3377647399902,28.2421875L11.1512393951416,28.45458984375 10.7557334899902,29.091796875 10.9681339263916,29.53125 11.6053428649902,29.677734375 12.7479190826416,29.47998046875 13.1287803649902,28.88671875 12.9310245513916,28.4033203125 12.3377647399902,28.2421875z M16.4100303649902,27.451171875L15.2454776763916,27.6708984375 14.8572959899902,28.330078125 15.5311241149902,28.88671875 16.8714561462402,28.67431640625 17.3182334899902,28.037109375 17.0911827087402,27.59765625 16.4100303649902,27.451171875z M7.65026473999023,26.162109375L6.46374130249023,26.4111328125 6.06823348999023,27.158203125 6.36852645874023,27.75146484375 7.26940536499023,27.94921875 8.4559268951416,27.7001953125 8.85143661499023,26.953125 8.5511417388916,26.35986328125 7.65026473999023,26.162109375z M12.0154991149902,25.72265625L10.8289737701416,25.93505859375 10.4334678649902,26.572265625 10.6458683013916,27.01171875 11.2830772399902,27.158203125 12.4256534576416,26.96044921875 12.8065147399902,26.3671875 12.6087589263916,25.8837890625 12.0154991149902,25.72265625z M16.0877647399902,24.931640625L14.9232120513916,25.14404296875 14.5350303649902,25.78125 15.2088584899902,26.3671875 16.5491905212402,26.1474609375 16.9959678649902,25.48828125 16.7689170837402,25.07080078125 16.0877647399902,24.931640625z M17.0545616149902,23.759765625L17.9554405212402,24.1552734375 18.3729209899902,25.341796875 19.8963584899902,39.404296875 19.4715538024902,40.3857421875 18.0799522399902,40.810546875 13.3045616149902,41.630859375 10.5945987701416,42.1142578125 8.55846786499023,42.275390625 7.18151473999023,41.8359375 6.39049911499023,40.517578125 6.30443954467773,40.0140380859375 6.16344833374023,39.03076171875 5.96752548217773,37.5677490234375 5.71667098999023,35.625 5.21129989624023,31.9921875 4.63268661499023,26.89453125 4.60338973999023,26.66015625 4.87438583374023,25.5908203125 5.80456161499023,25.13671875 10.6824903488159,24.5343017578125 14.1834669113159,24.10400390625 16.3074913024902,23.8458251953125 17.0545616149902,23.759765625z M16.3221397399902,20.68359375L16.6077842712402,21.7968769073486 16.7029991149902,22.32421875 16.4100303649902,22.998046875 11.5760459899902,23.7890625 8.8660831451416,24.140625 6.71276473999023,24.2578125 5.96569442749023,24.0673828125 5.48229598999023,23.49609375 5.10143661499023,22.03125 6.25133895874023,23.0200214385986 6.94713973999023,23.349609375 7.42779159545898,23.3221454620361 8.34240341186523,23.2397480010986 9.69097518920898,23.1024188995361 11.4735069274902,22.91015625 13.2340650558472,22.7124042510986 14.5167179107666,22.5585956573486 15.3214673995972,22.4487323760986 15.6483116149902,22.3828125 16.0804405212402,21.8408222198486 16.3221397399902,20.68359375z M12.8651084899902,17.841796875L13.2459678649902,18.193359375 13.1068058013916,18.6474628448486 12.6893272399902,19.541015625 12.1546573638916,20.4858417510986 11.7811241149902,20.80078125 11.4002647399902,20.419921875 11.5394229888916,19.9658222198486 11.9569053649902,19.072265625 12.4915714263916,18.1494159698486 12.8651084899902,17.841796875z M11.4002647399902,17.841796875L11.7811241149902,18.193359375 11.6419620513916,18.6474628448486 11.2244834899902,19.541015625 10.6898136138916,20.4858417510986 10.3162803649902,20.80078125 9.93542098999023,20.419921875 10.0745792388916,19.9658222198486 10.4920616149902,19.072265625 11.0267276763916,18.1494159698486 11.4002647399902,17.841796875z M9.93542098999023,17.841796875L10.3162803649902,18.193359375 10.1771183013916,18.6474628448486 9.75963973999023,19.541015625 9.2249698638916,20.4858417510986 8.85143661499023,20.80078125 8.47057723999023,20.419921875 8.6097354888916,19.9658222198486 9.02721786499023,19.072265625 9.5618839263916,18.1494159698486 9.93542098999023,17.841796875z M14.6229209899902,15.17578125L15.5311222076416,15.322265625 16.0291709899902,15.76171875 16.1243858337402,16.3330097198486 16.1170616149902,17.34375 16.1170616149902,17.75390625 15.1356143951416,16.3476581573486 14.0662803649902,15.87890625 11.9788761138916,16.0107440948486 8.99792098999023,16.40625 6.10485458374023,16.8017597198486 4.28112411499023,16.93359375 3.95885848999023,16.875 4.33971786499023,16.34765625 8.20141124725342,15.8349618911743 11.2025089263916,15.4687509536743 13.3430128097534,15.2490234375 14.6229209899902,15.17578125z M3.72448348999023,14.765625L2.60387802124023,15.2343759536743 2.23034286499023,16.11328125 2.28893661499023,17.5708026885986 2.46471786499023,20.302734375 2.14245223999023,20.390625 1.89892196655273,18.5375995635986 1.72497177124023,17.1386737823486 1.62060165405273,16.1938495635986 1.58581161499023,15.703125 1.76891708374023,15.0439453125 2.31823348999023,14.82421875 3.72448348999023,14.765625z M14.1248741149902,11.6015625L13.0189151763916,12.7880859375 11.4002647399902,13.30078125 9.58935070037842,13.4765625 7.37926721572876,13.7109375 4.77001476287842,14.00390625 1.76159286499023,14.35546875 0.963253021240234,14.677734375 0.736202239990234,15.3515625 0.765499114990234,15.791015625 3.84167098999023,41.162109375 4.30309677124023,43.9013671875 4.98424911499023,46.025390625 5.20946884155273,46.4923095703125 5.68004989624023,47.39501953125 6.39599227905273,48.7335205078125 7.35729598999023,50.5078125 9.61315536499023,54.697265625 11.3123722076416,56.21337890625 13.4803428649902,56.71875 14.2475538253784,56.663818359375 15.6409864425659,56.4990234375 17.6606407165527,56.224365234375 20.3065147399902,55.83984375 22.9395713806152,55.440673828125 24.9207725524902,55.1220703125 26.2501182556152,54.884033203125 26.9276084899902,54.7265625 27.7405967712402,54.1845703125 28.0115928649902,53.37890625 27.6014366149902,51.591796875 26.5467491149902,50.126953125 21.4197959899902,42.12890625 18.4022178649902,13.447265625 17.4354209899902,11.6015625 14.1248741149902,11.6015625z M15.0330772399902,0L15.7947959899902,0.527344226837158 15.2674522399902,0.908202648162842 15.6190147399902,5.0390625 15.9412803649902,5.7421875 16.2928428649902,9.08203125 17.3475303649902,10.78125 17.8748741149902,10.78125 19.1053428649902,13.2421875 22.1229209899902,41.89453125 27.1326866149902,49.6875 28.2752647399902,51.357421875 28.7440147399902,53.37890625 28.3924522399902,54.57275390625 27.3377647399902,55.341796875 26.4295616149902,55.576171875 24.7596397399902,55.869140625 15.5897178649902,57.275390625 13.4803428649902,57.451171875 11.0633487701416,56.93115234375 9.20299911499023,55.37109375 6.71276473999023,50.859375 5.74779891967773,49.0777587890625 5.02087020874023,47.71728515625 4.53197860717773,46.7779541015625 4.28112411499023,46.259765625 3.59264755249023,44.05517578125 3.10924911499023,41.25 0.00378036499023438,15.3515625 0.172237396240234,14.42138671875 0.794795989990234,13.857421875 1.43932723999023,13.70361328125 2.66979598999023,13.53515625 11.3416709899902,12.568359375 12.6966495513916,12.03369140625 13.6561241149902,10.78125 14.3299522399902,10.78125 15.2674522399902,9.08203125 14.9158897399902,5.7421875 15.1502647399902,5.0390625 14.7987022399902,0.908202648162842 14.3006553649902,0.410156726837158 14.4544620513916,0.102539122104645 15.0330772399902,0z" />
    </g>
  </g>
</svg>