<?xml version="1.0" encoding="utf-8"?>
<!DOCTYPE svg PUBLIC "-//W3C//DTD SVG 1.1//EN" "http://www.w3.org/Graphics/SVG/1.1/DTD/svg11.dtd">
<svg width="54.7265625000067" height="67.3828125" xmlns="http://www.w3.org/2000/svg" xmlns:xlink="http://www.w3.org/1999/xlink" xmlns:xml="http://www.w3.org/XML/1998/namespace" version="1.1">
  <g>
    <g>
      <path style="fill:#FF0000;fill-opacity:1" d="M27.36328125,51.62109375L23.14453125,56.337890625 23.14453125,63.1640625 31.58203125,63.1640625 31.58203125,56.337890625 27.36328125,51.62109375z M21.03515625,39.7265625L10.986328125,47.548828125 9.6826171875,48.22265625 8.232421875,48.427734375 4.59960889816284,53.525390625 4.18945264816284,54.755859375 4.80468702316284,56.25 6.29882764816284,56.865234375 7.58789014816284,56.42578125 16.845703125,49.21875 16.845703125,54.755859375 17.4609375,56.25 18.955078125,56.865234375 20.5078125,56.162109375 27.36328125,48.45703125 34.21875,56.162109375 34.9365234375,56.6748046875 35.80078125,56.865234375 37.2802734375,56.2353515625 37.91015625,54.755859375 37.91015625,49.21875 47.138671875,56.42578125 48.427734375,56.865234375 49.921875,56.25 50.537109375,54.755859375 50.126953125,53.525390625 46.494140625,48.427734375 45.0439453125,48.22265625 43.740234375,47.548828125 33.69140625,39.7265625 31.259765625,45.791015625 29.7216796875,47.724609375 27.36328125,48.427734375 25.0048828125,47.724609375 23.466796875,45.791015625 21.03515625,39.7265625z M27.36328125,4.21874952316284L26.4111328125,4.48242139816284 25.6640625,5.15625 15.17578125,19.8046875 14.853515625,20.4052734375 14.736328125,21.064453125 15.1318359375,22.2802734375 16.201171875,23.02734375 10.95703125,30.3515625 10.634765625,30.9375 10.517578125,31.58203125 10.751953125,32.63671875 11.3818359375,33.28125 12.2900390625,33.603515625 13.330078125,33.69140625 6.70898389816284,43.0078125 6.29882764816284,44.23828125 6.91406202316284,45.7177734375 8.408203125,46.318359375 9.55078125,45.99609375 10.48828125,45.263671875 21.943359375,36.357421875 25.400390625,45 26.1767578125,45.9521484375 27.36328125,46.318359375 28.5498046875,45.9521484375 29.326171875,45 32.783203125,36.357421875 44.23828125,45.263671875 45.17578125,45.99609375 46.318359375,46.318359375 47.8125,45.7177734375 48.427734375,44.23828125 48.017578125,43.0078125 41.396484375,33.69140625 42.4365234375,33.603515625 43.3447265625,33.28125 43.974609375,32.63671875 44.208984375,31.58203125 44.091796875,30.9375 43.76953125,30.3515625 38.525390625,23.02734375 39.5947265625,22.2802734375 39.990234375,21.064453125 39.873046875,20.4052734375 39.55078125,19.8046875 29.0625,5.15625 28.3154296875,4.48242139816284 27.36328125,4.21874952316284z M27.36328125,0L30.2783203125,0.732421636581421 32.51953125,2.72460889816284 42.978515625,17.373046875 43.88671875,19.1162109375 44.208984375,21.064453125 43.828125,23.203125 47.197265625,27.890625 48.10546875,29.6484375 48.427734375,31.58203125 48.1860313415527,33.36181640625 47.4609375,34.951171875 51.4453125,40.546875 52.3242149353027,42.3046875 52.6171875,44.23828125 52.294921875,46.23046875 51.357421875,48.017578125 52.5,49.5703125 53.583984375,51.1376953125 54.404296875,52.8369140625 54.7265625,54.755859375 54.228515625,57.216796875 52.880859375,59.208984375 50.888671875,60.556640625 48.427734375,61.0546875 46.4208984375,60.7177734375 44.677734375,59.8388671875 43.0810546875,58.65234375 41.513671875,57.392578125 40.5322265625,58.916015625 39.1845703125,60.05859375 37.5732421875,60.791015625 35.80078125,61.0546875 35.80078125,67.3828125 18.955078125,67.3828125 18.955078125,61.0546875 17.1789531707764,60.809326171875 15.5419921875,60.0732421875 14.176025390625,58.912353515625 13.212890625,57.392578125 11.6455078125,58.65234375 10.048828125,59.8388671875 8.3056640625,60.7177734375 6.29882764816284,61.0546875 3.83789014816284,60.556640625 1.84570264816284,59.208984375 0.498046875,57.216796875 0,54.755859375 0.307616710662842,52.8369140625 1.11328077316284,51.1376953125 2.19726514816284,49.5556640625 3.36914014816284,48.017578125 2.43164014816284,46.23046875 2.10937452316284,44.23828125 2.40234327316284,42.3046875 3.28124952316284,40.546875 7.26562452316284,34.951171875 6.54052639007568,33.36181640625 6.29882764816284,31.58203125 6.65039014816284,29.6044921875 7.58789014816284,27.83203125 10.8984375,23.203125 10.517578125,21.064453125 10.8544921875,19.072265625 11.806640625,17.28515625 22.236328125,2.69531297683716 24.462890625,0.717773199081421 27.36328125,0z" />
    </g>
  </g>
</svg>