<?xml version="1.0" encoding="utf-8"?>
<!DOCTYPE svg PUBLIC "-//W3C//DTD SVG 1.1//EN" "http://www.w3.org/Graphics/SVG/1.1/DTD/svg11.dtd">
<svg width="47.080078125" height="44.501953125" xmlns="http://www.w3.org/2000/svg" xmlns:xlink="http://www.w3.org/1999/xlink" xmlns:xml="http://www.w3.org/XML/1998/namespace" version="1.1">
  <g>
    <g>
      <path style="fill:#FF0000;fill-opacity:1" d="M21.708984375,4.6875L18.0853271484375,5.01983642578125 14.74365234375,6.016845703125 11.6839599609375,7.67852783203125 8.90625,10.0048828125 6.59912109375,12.7981576919556 4.951171875,15.8605976104736 3.96240210533142,19.1922016143799 3.6328125,22.79296875 3.96331763267517,26.4047241210938 4.954833984375,29.739990234375 6.60736083984375,32.7987670898438 8.9208984375,35.5810546875 11.7031860351563,37.8945922851563 14.761962890625,39.547119140625 18.0972290039063,40.5386352539063 21.708984375,40.869140625 25.33447265625,40.5368041992188 28.681640625,39.539794921875 31.75048828125,37.8781127929688 34.541015625,35.5517578125 36.8609619140625,32.7603149414063 38.51806640625,29.703369140625 39.5123291015625,26.3809204101563 39.84375,22.79296875 39.510498046875,19.1683979034424 38.5107421875,15.8239765167236 36.844482421875,12.7597055435181 34.51171875,9.9755859375 31.7120361328125,7.66204833984375 28.64501953125,6.009521484375 25.3106689453125,5.01800537109375 21.708984375,4.6875z M25.3125,0L29.6585083007813,0.40008544921875 33.673095703125,1.600341796875 37.3562622070313,3.60076904296875 40.7080078125,6.4013671875 43.4957847595215,9.76043701171875 45.4870567321777,13.4362802505493 46.6818199157715,17.4288940429688 47.080078125,21.73828125 46.6790733337402,26.0833740234375 45.4760704040527,30.09521484375 43.4710655212402,33.7738037109375 40.6640625,37.119140625 38.3056640625,38.94287109375 35.9765625,40.25390625 29.794921875,42.919921875 25.7080059051514,44.1064453125 21.708984375,44.501953125 17.3648071289063,44.102783203125 13.355712890625,42.9052734375 9.68170166015625,40.909423828125 6.3427734375,38.115234375 3.56781005859375,34.7625732421875 1.585693359375,31.09130859375 0.39642333984375,27.1014404296875 0,22.79296875 0.399169921875,18.4478759765625 1.5966796875,14.4360361099243 3.592529296875,10.7574462890625 6.38671875,7.412109375 9.68994045257568,4.65087890625 13.330078125,2.8125 20.56640625,0.5859375 22.7490215301514,0.146484375 25.3125,0z" />
    </g>
  </g>
</svg>