<?xml version="1.0" encoding="utf-8"?>
<!DOCTYPE svg PUBLIC "-//W3C//DTD SVG 1.1//EN" "http://www.w3.org/Graphics/SVG/1.1/DTD/svg11.dtd">
<svg width="67.3828125000007" height="67.3828125" xmlns="http://www.w3.org/2000/svg" xmlns:xlink="http://www.w3.org/1999/xlink" xmlns:xml="http://www.w3.org/XML/1998/namespace" version="1.1">
  <g>
    <g>
      <path style="fill:#FF0000;fill-opacity:1" d="M46.318359375,48.427734375L48.779296875,48.92578125 50.7861328125,50.2880859375 52.1484375,52.294921875 52.646484375,54.755859375 51.357421875,54.755859375 49.130859375,52.8955078125 46.318359375,52.236328125 43.4912109375,52.8955078125 41.279296875,54.755859375 40.01953125,54.755859375 40.517578125,52.294921875 41.865234375,50.2880859375 43.857421875,48.92578125 46.318359375,48.427734375z M53.701171875,35.80078125L55.751953125,36.2109375 57.421875,37.3388671875 58.53515625,39.0234375 58.9453125,41.07421875 57.890625,41.07421875 56.0302734375,39.521484375 53.701171875,38.96484375 51.3427734375,39.521484375 49.482421875,41.07421875 48.427734375,41.07421875 48.837890625,39.0234375 49.9658203125,37.3388671875 51.650390625,36.2109375 53.701171875,35.80078125z M38.96484375,35.80078125L41.015625,36.2109375 42.685546875,37.3388671875 43.798828125,39.0234375 44.208984375,41.07421875 43.154296875,41.07421875 41.2939453125,39.521484375 38.96484375,38.96484375 36.6064453125,39.521484375 34.74609375,41.07421875 33.69140625,41.07421875 34.1015625,39.0234375 35.2294921875,37.3388671875 36.8994140625,36.2109375 38.96484375,35.80078125z M6.328125,31.904296875L6.328125,48.427734375 8.408203125,48.427734375 8.408203125,54.755859375 11.572265625,51.591796875 14.736328125,54.755859375 14.736328125,46.318359375 12.626953125,48.427734375 12.626953125,40.83984375 8.994140625,36.708984375 6.328125,31.904296875z M14.736328125,27.36328125L16.025390625,27.36328125 18.2373046875,29.2529296875 21.064453125,29.912109375 23.876953125,29.23828125 26.103515625,27.36328125 27.36328125,27.36328125 26.865234375,29.82421875 25.517578125,31.8310546875 23.525390625,33.193359375 21.064453125,33.69140625 18.603515625,33.193359375 16.5966796875,31.8310546875 15.234375,29.82421875 14.736328125,27.36328125z M57.333984375,25.25390625L56.279296875,25.37109375 55.25390625,25.634765625 53.203125,26.337890625 51.09375,26.923828125 46.2890625,27.421875 41.8505859375,26.982421875 37.55859375,25.72265625 35.302734375,25.283203125 32.87109375,25.78125 31.0400390625,27.1435546875 29.8828125,29.150390625 29.47265625,31.58203125 29.5458984375,34.5703125 29.765625,37.55859375 30.41015625,42.0849609375 31.5087890625,46.640625 33.0615234375,51.0498046875 35.09765625,55.13671875 37.1337890625,58.095703125 39.697265625,60.6591796875 42.7587890625,62.4755859375 46.318359375,63.1640625 48.4606895446777,62.93701171875 50.4345703125,62.255859375 53.8916015625,59.8388671875 56.7333984375,56.3818359375 58.9892578125,52.32421875 60.6591796875,48.1201171875 61.7578125,44.23828125 62.8271484375,37.9541015625 63.1640625,31.58203125 63.1640625,30.9375 62.6806640625,28.740234375 61.3916015625,26.9384765625 59.53125,25.7080078125 57.333984375,25.25390625z M28.41796875,14.736328125L30.46875,15.1464853286743 32.1533203125,16.2744140625 33.28125,17.958984375 33.69140625,20.009765625 32.63671875,20.009765625 30.7763671875,18.45703125 28.41796875,17.900390625 26.0888671875,18.45703125 24.228515625,20.009765625 23.173828125,20.009765625 23.583984375,17.958984375 24.7119140625,16.2744140625 26.3818359375,15.1464853286743 28.41796875,14.736328125z M13.681640625,14.736328125L15.732421875,15.1464853286743 17.4169921875,16.2744140625 18.544921875,17.958984375 18.955078125,20.009765625 17.900390625,20.009765625 16.0400390625,18.45703125 13.681640625,17.900390625 11.337890625,18.45703125 9.4921875,20.009765625 8.408203125,20.009765625 8.818359375,17.958984375 9.9462890625,16.2744140625 11.630859375,15.1464853286743 13.681640625,14.736328125z M54.755859375,6.328125L54.755859375,14.736328125 56.865234375,12.626953125 56.865234375,23.173828125 57.333984375,23.173828125 60.52734375,23.84765625 63.1640625,25.751953125 63.1640625,12.626953125 61.0546875,12.626953125 61.0546875,6.328125 57.919921875,9.462890625 54.755859375,6.328125z M10.048828125,4.21874952316284L7.6318359375,4.71679639816284 5.80078125,6.07910203933716 4.62890625,8.0859375 4.21875,10.517578125 4.5556640625,16.81640625 5.6396484375,23.2763671875 7.5732421875,29.501953125 10.458984375,35.09765625 12.4658203125,37.7197265625 14.9267578125,39.9755859375 17.7978515625,41.54296875 21.064453125,42.12890625 24.697265625,41.396484375 27.861328125,39.43359375 27.48046875,35.302734375 27.36328125,31.171875 27.9931640625,28.0810546875 29.6923828125,25.5322265625 32.2119140625,23.8037109375 35.302734375,23.173828125 36.474609375,23.26171875 37.55859375,16.93359375 37.91015625,10.517578125 37.5,8.0859375 36.3134765625,6.07910203933716 34.453125,4.71679639816284 32.021484375,4.21874952316284 30.908203125,4.33593797683716 29.82421875,4.658203125 25.517578125,5.9326171875 21.03515625,6.38671875 16.58203125,5.9326171875 12.275390625,4.658203125 11.1767578125,4.33593797683716 10.048828125,4.21874952316284z M10.107421875,0L12.0263671875,0.205077648162842 13.88671875,0.76171875 17.3876953125,1.80175817012787 21.03515625,2.16796898841858 24.7119140625,1.80175817012787 28.2421875,0.76171875 30.1025390625,0.205077648162842 32.021484375,0 34.156494140625,0.208743035793304 36.1083984375,0.834960460662842 39.3017578125,3.10546851158142 41.3671875,6.45996141433716 42.099609375,10.517578125 41.8212890625,16.5087890625 40.95703125,22.44140625 43.623046875,23.02734375 46.376953125,23.203125 49.5556602478027,22.9394550323486 52.646484375,22.1484375 52.646484375,18.955078125 50.537109375,18.955078125 50.537109375,0 54.375,0 57.919921875,3.515625 61.435546875,0 65.2734375,0 65.2734375,8.4375 67.3828125,8.4375 67.3828125,31.58203125 66.97265625,38.876953125 65.654296875,46.0546875 64.1748046875,50.7568359375 62.0361328125,55.576171875 59.1943359375,60.087890625 55.634765625,63.8525390625 51.3427734375,66.4306640625 48.9221153259277,67.144775390625 46.318359375,67.3828125 43.6120567321777,67.130126953125 41.1181640625,66.3720703125 36.7236328125,63.662109375 33.1201171875,59.7216796875 30.2783203125,55.0048828125 28.154296875,49.9658203125 26.748046875,45.087890625 23.9501953125,45.99609375 21.005859375,46.318359375 19.98046875,46.2890625 18.955078125,46.171875 18.955078125,61.0546875 15.087890625,61.0546875 11.572265625,57.5390625 8.056640625,61.0546875 4.21875,61.0546875 4.21875,52.646484375 2.109375,52.646484375 2.109375,26.42578125 1.9775390625,25.7373046875 1.7578125,25.078125 1.3330078125,23.349609375 0.99609375,21.591796875 0.249023079872131,16.11328125 0,10.517578125 0,10.107421875 0.197753548622131,8.089599609375 0.791015625,6.1962890625 2.958984375,2.98828101158142 6.181640625,0.805664539337158 8.0859375,0.201418936252594 10.107421875,0z" />
    </g>
  </g>
</svg>