<?xml version="1.0" encoding="utf-8"?>
<!DOCTYPE svg PUBLIC "-//W3C//DTD SVG 1.1//EN" "http://www.w3.org/Graphics/SVG/1.1/DTD/svg11.dtd">
<svg width="35.361328125" height="42.099609375" xmlns="http://www.w3.org/2000/svg" xmlns:xlink="http://www.w3.org/1999/xlink" xmlns:xml="http://www.w3.org/XML/1998/namespace" version="1.1">
  <g>
    <g>
      <path style="fill:#FF0000;fill-opacity:1" d="M12.59765625,0L35.361328125,10.01953125 35.361328125,35.888671875 35.1654052734375,37.1612548828125 34.57763671875,38.34228515625 33.5980224609375,39.4317626953125 32.2265625,40.4296875 29.43603515625,41.68212890625 26.630859375,42.099609375 24.462890625,41.89453125 22.587890625,41.279296875 20.8740215301514,40.01220703125 20.302734375,38.203125 20.5151348114014,37.02392578125 21.1523418426514,35.947265625 22.2143535614014,34.97314453125 23.701171875,34.1015625 26.50634765625,33.134765625 29.296875,32.8125 32.75390625,33.3984375 32.75390625,17.75390625 15.234375,9.990234375 15.234375,25.693359375 15.0347890853882,26.97509765625 14.4360332489014,28.154296875 13.4381093978882,29.23095703125 12.041015625,30.205078125 9.228515625,31.3916015625 6.357421875,31.787109375 4.16747951507568,31.58203125 2.28515625,30.966796875 0.5712890625,29.67041015625 0,27.890625 0.2142333984375,26.689453125 0.85693359375,25.60546875 1.9281005859375,24.638671875 3.427734375,23.7890625 6.23290967941284,22.822265625 9.0234375,22.5 12.59765625,23.115234375 12.59765625,0z" />
    </g>
  </g>
</svg>