<?xml version="1.0" encoding="utf-8"?>
<!DOCTYPE svg PUBLIC "-//W3C//DTD SVG 1.1//EN" "http://www.w3.org/Graphics/SVG/1.1/DTD/svg11.dtd">
<svg width="67.3828125" height="67.3828125" xmlns="http://www.w3.org/2000/svg" xmlns:xlink="http://www.w3.org/1999/xlink" xmlns:xml="http://www.w3.org/XML/1998/namespace" version="1.1">
  <g>
    <g>
      <path style="fill:#FF0000;fill-opacity:1" d="M12.626953125,61.0546875L12.626953125,63.1640625 16.845703125,63.1640625 16.845703125,61.0546875 12.626953125,61.0546875z M48.427734375,50.537109375L56.865234375,50.537109375 56.865234375,54.755859375 48.427734375,54.755859375 48.427734375,50.537109375z M33.69140625,40.01953125L31.23046875,40.517578125 29.2236328125,41.865234375 27.861328125,43.857421875 27.36328125,46.318359375 40.01953125,46.318359375 39.5068359375,43.88671875 38.1298828125,41.8798828125 36.1083984375,40.517578125 33.69140625,40.01953125z M52.646484375,29.47265625L54.287109375,29.8095703125 55.6201171875,30.7177734375 56.5283203125,32.05078125 56.865234375,33.69140625 56.865234375,37.91015625 48.427734375,37.91015625 48.427734375,33.69140625 48.7646484375,32.05078125 49.6728515625,30.7177734375 51.005859375,29.8095703125 52.646484375,29.47265625z M14.736328125,29.47265625L16.376953125,29.8095703125 17.7099609375,30.7177734375 18.6181640625,32.05078125 18.955078125,33.69140625 18.955078125,37.91015625 10.517578125,37.91015625 10.517578125,33.69140625 10.8544921875,32.05078125 11.7626953125,30.7177734375 13.095703125,29.8095703125 14.736328125,29.47265625z M46.318359375,21.064453125L46.318359375,63.1640625 61.0546875,63.1640625 61.0546875,21.064453125 46.318359375,21.064453125z M33.69140625,21.064453125L32.05078125,21.4013671875 30.7177734375,22.3095703125 29.8095703125,23.642578125 29.47265625,25.283203125 29.8095703125,26.923828125 30.7177734375,28.2568359375 32.05078125,29.150390625 33.69140625,29.47265625 35.33203125,29.150390625 36.6650390625,28.2568359375 37.5732421875,26.923828125 37.91015625,25.283203125 37.5732421875,23.642578125 36.6650390625,22.3095703125 35.33203125,21.4013671875 33.69140625,21.064453125z M6.328125,21.064453125L6.328125,63.1640625 10.517578125,63.1640625 10.517578125,52.646484375 10.8544921875,51.005859375 11.7626953125,49.6728515625 13.095703125,48.7646484375 14.736328125,48.427734375 16.376953125,48.7646484375 17.7099609375,49.6728515625 18.6181640625,51.005859375 18.955078125,52.646484375 18.955078125,63.1640625 21.064453125,63.1640625 21.064453125,21.064453125 6.328125,21.064453125z M46.318359375,16.845703125L46.318359375,18.955078125 63.1640625,18.955078125 63.1640625,16.845703125 46.318359375,16.845703125z M35.80078125,16.845703125L42.099609375,16.845703125 40.01953125,18.955078125 40.01953125,25.283203125 39.521484375,27.744140625 38.1591796875,29.736328125 36.15234375,31.083984375 33.69140625,31.58203125 25.25390625,31.58203125 25.25390625,29.47265625 28.974609375,29.47265625 27.7880859375,27.5244140625 27.36328125,25.283203125 27.861328125,22.822265625 29.2236328125,20.8154296875 31.23046875,19.453125 33.69140625,18.955078125 35.9619140625,19.3798828125 37.91015625,20.56640625 37.91015625,18.955078125 35.80078125,16.845703125z M4.21875,16.845703125L4.21875,18.955078125 21.064453125,18.955078125 21.064453125,16.845703125 4.21875,16.845703125z M23.173828125,8.4375L23.173828125,63.1640625 25.25390625,63.1640625 25.25390625,46.318359375 25.927734375,43.06640625 27.744140625,40.400390625 30.4248046875,38.583984375 33.69140625,37.91015625 33.896484375,37.91015625 37.001953125,38.5693359375 39.6240234375,40.3564453125 41.42578125,42.9638671875 42.099609375,46.0546875 42.099609375,63.1640625 44.208984375,63.1640625 44.208984375,8.4375 23.173828125,8.4375z M21.064453125,4.21874952316284L21.064453125,6.328125 46.318359375,6.328125 46.318359375,4.21874952316284 21.064453125,4.21874952316284z M16.845703125,0L50.537109375,0 50.537109375,12.626953125 67.3828125,12.626953125 67.3828125,25.283203125 65.2734375,25.283203125 65.2734375,67.3828125 2.109375,67.3828125 2.109375,25.283203125 0,25.283203125 0,12.626953125 16.845703125,12.626953125 16.845703125,0z" />
    </g>
  </g>
</svg>