<?xml version="1.0" encoding="utf-8"?>
<!DOCTYPE svg PUBLIC "-//W3C//DTD SVG 1.1//EN" "http://www.w3.org/Graphics/SVG/1.1/DTD/svg11.dtd">
<svg width="67.382812500001" height="37.91015625" xmlns="http://www.w3.org/2000/svg" xmlns:xlink="http://www.w3.org/1999/xlink" xmlns:xml="http://www.w3.org/XML/1998/namespace" version="1.1">
  <g>
    <g>
      <path style="fill:#FF0000;fill-opacity:1" d="M4.21875,29.501953125L4.21875,30.52734375 4.4677734375,31.7724609375 5.1416015625,32.7685546875 6.1376953125,33.4423828125 7.3828125,33.69140625 60,33.69140625 61.23046875,33.4423828125 62.2412109375,32.7685546875 62.9150390625,31.7724609375 63.1640625,30.52734375 63.1640625,29.501953125 4.21875,29.501953125z M31.728515625,8.4375L28.06640625,9.0673828125 25.3564453125,10.6201171875 23.1884765625,12.6416015625 21.1669921875,14.6630859375 18.896484375,16.2158203125 15.99609375,16.845703125 13.65234375,16.46484375 11.630859375,15.3955078125 10.048828125,13.740234375 9.0234375,11.6015625 8.1884765625,10.0927734375 6.62109375,9.4921875 4.9072265625,10.1806640625 4.21875,11.89453125 4.21875,18.955078125 10.517578125,18.955078125 13.8134765625,19.6142578125 16.494140625,21.416015625 18.2958984375,24.0966796875 18.955078125,27.392578125 37.91015625,27.392578125 38.232421875,25.751953125 39.1259765625,24.4189453125 40.458984375,23.5107421875 42.099609375,23.173828125 61.69921875,23.173828125 59.4140625,21.298828125 53.583984375,18.369140625 52.529296875,20.478515625 51.591796875,21.064453125 50.859375,20.7568359375 50.537109375,20.009765625 50.68359375,19.482421875 51.0205078125,18.7353515625 51.416015625,17.98828125 51.708984375,17.431640625 49.365234375,16.259765625 48.310546875,18.369140625 47.373046875,18.955078125 46.6259765625,18.6474609375 46.318359375,17.9296875 46.46484375,17.373046875 46.8017578125,16.6259765625 47.197265625,15.87890625 47.490234375,15.322265625 45.146484375,14.1796875 44.12109375,16.259765625 43.154296875,16.845703125 42.392578125,16.552734375 42.099609375,15.791015625 42.24609375,15.263671875 42.5830078125,14.5166015625 42.978515625,13.76953125 43.271484375,13.212890625 40.95703125,12.0703125 39.90234375,14.1796875 38.96484375,14.736328125 38.203125,14.443359375 37.91015625,13.681640625 38.056640625,13.125 38.3935546875,12.392578125 38.7744140625,11.6748046875 39.052734375,11.1328125 36.73828125,9.9609375 35.68359375,12.0703125 34.74609375,12.65625 33.9990234375,12.333984375 33.69140625,11.6015625 33.837890625,11.07421875 34.189453125,10.3271484375 34.5849609375,9.5654296875 34.86328125,9.0234375 33.69140625,8.4375 31.728515625,8.4375z M24.697265625,0L26.2353515625,0.1904296875 27.685546875,0.703125 61.2890625,17.51953125 63.8232421875,19.2626953125 65.7421875,21.591796875 66.9580078125,24.345703125 67.3828125,27.392578125 67.3828125,30.52734375 66.796875,33.3984375 65.21484375,35.7421875 62.87109375,37.32421875 60,37.91015625 7.3828125,37.91015625 4.51171875,37.32421875 2.16796875,35.7421875 0.5859375,33.3984375 0,30.52734375 0,11.89453125 0.5126953125,9.31640625 1.93359375,7.20703125 4.04296875,5.7861328125 6.62109375,5.2734375 8.7451171875,5.625 10.5908203125,6.62109375 12.041015625,8.14453125 12.978515625,10.078125 14.0185546875,11.923828125 15.99609375,12.65625 16.1865234375,12.6416015625 16.376953125,12.626953125 16.171875,10.78125 16.39892578125,8.88427734375 17.080078125,7.001953125 17.51953125,6.123046875 18.7060546875,3.80859375 20.1123046875,1.845703125 22.0166015625,0.498046875 24.697265625,0z" />
    </g>
  </g>
</svg>