<?xml version="1.0" encoding="utf-8"?>
<!DOCTYPE svg PUBLIC "-//W3C//DTD SVG 1.1//EN" "http://www.w3.org/Graphics/SVG/1.1/DTD/svg11.dtd">
<svg width="52.675781250004" height="67.3828125" xmlns="http://www.w3.org/2000/svg" xmlns:xlink="http://www.w3.org/1999/xlink" xmlns:xml="http://www.w3.org/XML/1998/namespace" version="1.1">
  <g>
    <g>
      <path style="fill:#FF0000;fill-opacity:1" d="M19.21875,46.318359375L20.361328125,48.8525390625 22.236328125,50.8447265625 24.638671875,52.1630859375 27.36328125,52.646484375 37.91015625,52.646484375 39.840087890625,52.8369140625 41.5283203125,53.408203125 44.1650390625,55.4736328125 45.7763671875,58.4912109375 46.318359375,62.109375 46.6259765625,62.8564453125 47.373046875,63.1640625 47.9736328125,63.0029296875 48.2958984375,62.578125 48.4130859375,62.0068359375 48.427734375,61.40625 48.427734375,61.0546875 48.2189903259277,58.970947265625 47.5927734375,56.9970703125 45.322265625,53.642578125 41.9677734375,51.3720703125 39.993896484375,50.745849609375 37.91015625,50.537109375 27.36328125,50.537109375 25.4443359375,50.21484375 23.7451171875,49.3359375 22.3681640625,48.0029296875 21.416015625,46.318359375 19.21875,46.318359375z M19.98046875,8.4375L22.3095684051514,8.66455078125 24.4921875,9.345703125 28.1689453125,11.8212890625 30.64453125,15.498046875 31.32568359375,17.6806640625 31.552734375,20.009765625 30.9228515625,21.4892578125 29.443359375,22.119140625 27.9638671875,21.4892578125 27.333984375,20.009765625 26.748046875,17.16796875 25.166015625,14.8095703125 22.822265625,13.212890625 19.98046875,12.626953125 18.5009765625,11.9970703125 17.87109375,10.517578125 18.5009765625,9.052734375 19.98046875,8.4375z M19.98046875,4.21874952316284L16.8017559051514,4.53003215789795 13.828125,5.46386766433716 11.14013671875,6.93237590789795 8.818359375,8.84765625 6.90307521820068,11.16943359375 5.43456983566284,13.857421875 4.50073194503784,16.8310546875 4.18945264816284,20.009765625 4.52636671066284,23.12255859375 5.53710889816284,26.1328125 7.08251857757568,29.0002460479736 9.0234375,31.6845703125 13.7841796875,36.416015625 18.955078125,40.01953125 18.427734375,40.6787109375 17.724609375,41.572265625 17.109375,42.48046875 16.845703125,43.18359375 17.431640625,44.12109375 17.666015625,44.1650390625 17.900390625,44.208984375 22.294921875,44.208984375 22.412109375,44.1796875 22.529296875,44.150390625 22.6171875,44.091796875 22.9833984375,43.681640625 23.173828125,43.154296875 22.470703125,41.8359375 21.533203125,40.60546875 21.064453125,40.01953125 26.220703125,36.4013671875 30.9521484375,31.6845703125 32.882080078125,29.0002460479736 34.423828125,26.1328125 35.4345703125,23.12255859375 35.771484375,20.009765625 35.460205078125,16.8310546875 34.5263671875,13.857421875 33.057861328125,11.16943359375 31.142578125,8.84765625 28.82080078125,6.93237590789795 26.1328125,5.46386766433716 23.1591777801514,4.53003215789795 19.98046875,4.21874952316284z M20.009765625,0L24.01611328125,0.395510613918304 27.7734375,1.58203077316284 31.17919921875,3.44970989227295 34.130859375,5.888671875 36.56982421875,8.84033203125 38.4375,12.24609375 39.6240234375,16.00341796875 40.01953125,20.009765625 39.737548828125,23.082275390625 38.8916015625,26.1474609375 35.9326171875,31.9775390625 31.7578125,37.119140625 27.01171875,41.19140625 27.392578125,43.18359375 27.1728515625,44.7216796875 26.484375,46.11328125 27.48046875,46.3037109375 28.623046875,46.40625 29.7802734375,46.435546875 30.849609375,46.435546875 31.142578125,46.435546875 34.541015625,46.376953125 37.939453125,46.318359375 41.1474571228027,46.629638671875 44.033203125,47.5634765625 46.5563926696777,49.03564453125 48.6767578125,50.9619140625 50.3759727478027,53.294677734375 51.6357421875,55.986328125 52.4157676696777,58.95263671875 52.67578125,62.109375 52.265625,64.1748046875 51.1376953125,65.8447265625 49.453125,66.97265625 47.40234375,67.3828125 44.912109375,66.9287109375 43.4326171875,65.7421875 42.6416015625,64.0576171875 42.2314453125,62.1240234375 41.8798828125,60.1904296875 41.25,58.505859375 40.0341796875,57.3193359375 37.939453125,56.865234375 34.6435546875,56.9091796875 31.34765625,56.953125 26.044921875,56.6455078125 21.416015625,55.3564453125 19.4384746551514,54.166259765625 17.724609375,52.55859375 16.318359375,50.44189453125 15.263671875,47.724609375 13.3447265625,45.791015625 12.65625,43.154296875 13.037109375,41.19140625 9.8291015625,38.61328125 6.78222608566284,35.5078125 4.08691358566284,31.9775390625 1.93359327316284,28.1396484375 0.512694835662842,24.111328125 0,20.009765625 0.717772960662842,14.70703125 2.73925733566284,9.931640625 5.87402296066284,5.8740234375 9.931640625,2.73925757408142 14.70703125,0.717773199081421 20.009765625,0z" />
    </g>
  </g>
</svg>