<?xml version="1.0" encoding="utf-8"?>
<!DOCTYPE svg PUBLIC "-//W3C//DTD SVG 1.1//EN" "http://www.w3.org/Graphics/SVG/1.1/DTD/svg11.dtd">
<svg width="67.3828125000007" height="60.703125" xmlns="http://www.w3.org/2000/svg" xmlns:xlink="http://www.w3.org/1999/xlink" xmlns:xml="http://www.w3.org/XML/1998/namespace" version="1.1">
  <g>
    <g>
      <path style="fill:#FF0000;fill-opacity:1" d="M19.1015625,4.21875047683716L16.116943359375,4.51171922683716 13.3154296875,5.39062595367432 10.777587890625,6.77490282058716 8.583984375,8.583984375 6.77490139007568,10.777587890625 5.390625,13.3154306411743 4.51171875,16.116943359375 4.21875,19.1015625 4.500732421875,22.0202655792236 5.3466796875,24.7998046875 6.71996974945068,27.359619140625 8.583984375,29.619140625 33.69140625,54.755859375 58.798828125,29.619140625 60.662841796875,27.359619140625 62.0361328125,24.7998046875 62.882080078125,22.0202655792236 63.1640625,19.1015625 62.87109375,16.116943359375 61.9921875,13.3154306411743 60.60791015625,10.777587890625 58.798828125,8.583984375 56.605224609375,6.77490282058716 54.0673828125,5.39062595367432 51.2658653259277,4.51171922683716 48.28125,4.21875047683716 45.3002891540527,4.49707078933716 42.568359375,5.33203172683716 40.0634765625,6.69433641433716 37.763671875,8.5546875 34.658203125,11.630859375 31.58203125,14.736328125 40.01953125,23.14453125 31.58203125,31.58203125 33.69140625,39.990234375 25.25390625,31.58203125 33.69140625,23.14453125 25.25390625,14.736328125 30.52734375,9.462890625 28.033447265625,7.26928758621216 25.3564453125,5.61035203933716 22.4084453582764,4.56665086746216 19.1015625,4.21875047683716z M19.1015625,0L23.349609375,0.454102218151093 27.1142578125,1.7578125 30.5126953125,3.85253953933716 33.69140625,6.6796875 36.8701171875,3.85253953933716 40.2685546875,1.74316501617432 44.033203125,0.439453661441803 48.28125,0 53.349609375,0.688476979732513 57.9052734375,2.62207126617432 61.7724609375,5.61035203933716 64.7607421875,9.4775390625 66.6943359375,14.033203125 67.3828125,19.1015625 67.027587890625,22.8808612823486 65.9619140625,26.42578125 64.207763671875,29.68505859375 61.787109375,32.607421875 33.69140625,60.703125 5.59570217132568,32.607421875 3.175048828125,29.68505859375 1.4208984375,26.42578125 0.355224251747131,22.8808612823486 0,19.1015625 0.688477516174316,14.0185546875 2.607421875,9.462890625 5.59570217132568,5.59570360183716 9.462890625,2.60742259025574 14.0185546875,0.688476979732513 19.1015625,0z" />
    </g>
  </g>
</svg>