<?xml version="1.0" encoding="utf-8"?>
<!DOCTYPE svg PUBLIC "-//W3C//DTD SVG 1.1//EN" "http://www.w3.org/Graphics/SVG/1.1/DTD/svg11.dtd">
<svg width="67.3828125000008" height="52.646484375" xmlns="http://www.w3.org/2000/svg" xmlns:xlink="http://www.w3.org/1999/xlink" xmlns:xml="http://www.w3.org/XML/1998/namespace" version="1.1">
  <g>
    <g>
      <path style="fill:#FF0000;fill-opacity:1" d="M45.05859375,22.177734375L47.87109375,22.7490234375 50.244140625,24.3017578125 51.8701171875,26.6015625 52.470703125,29.4140625 52.2070274353027,31.409912109375 51.416015625,33.1787109375 48.57421875,35.888671875 37.91015625,42.12890625 37.91015625,29.736328125 38.4375,26.8359375 39.9169921875,24.43359375 42.1728515625,22.79296875 45.05859375,22.177734375z M22.32421875,22.177734375L25.2099609375,22.79296875 27.4658203125,24.43359375 28.9453125,26.8359375 29.47265625,29.736328125 29.47265625,42.12890625 18.80859375,35.888671875 15.966796875,33.1787109375 15.17578125,31.409912109375 14.912109375,29.4140625 15.5126953125,26.6015625 17.138671875,24.3017578125 19.51171875,22.7490234375 22.32421875,22.177734375z M33.69140625,4.21875L31.556396484375,4.41650390625 29.6630859375,5.009765625 26.25,7.294921875 9.345703125,22.529296875 7.14843654632568,24.89501953125 5.537109375,27.5390625 4.54833984375,30.46875 4.21875,33.69140625 4.508056640625,36.650390625 5.3759765625,39.43359375 6.74194240570068,41.953125 8.525390625,44.12109375 10.693359375,45.904541015625 13.212890625,47.2705078125 15.99609375,48.138427734375 18.955078125,48.427734375 48.427734375,48.427734375 51.3830528259277,48.138427734375 54.1552734375,47.2705078125 56.66748046875,45.90087890625 58.8427734375,44.1064453125 60.63720703125,41.93115234375 62.0068359375,39.4189453125 62.874755859375,36.646728515625 63.1640625,33.69140625 62.80517578125,30.318603515625 61.728515625,27.3486328125 60,24.686279296875 57.685546875,22.236328125 41.1328125,7.294921875 37.705078125,5.009765625 35.80810546875,4.41650390625 33.69140625,4.21875z M33.69140625,0L36.650390625,0.2783203125 39.2724609375,1.0986328125 41.6748046875,2.431640625 44.033203125,4.248046875 52.265625,11.572265625 60.41015625,19.04296875 61.7431640625,20.2734375 62.98828125,21.591796875 64.874267578125,24.268798828125 66.2548828125,27.2607421875 67.100830078125,30.443115234375 67.3828125,33.69140625 66.708984375,38.73046875 64.7900390625,43.2568359375 61.81640625,47.080078125 57.9931640625,50.0537109375 53.466796875,51.97265625 48.427734375,52.646484375 18.955078125,52.646484375 13.916015625,51.97265625 9.3896484375,50.0537109375 5.56640625,47.080078125 2.5927734375,43.2568359375 0.673828125,38.73046875 0,33.69140625 0.428466618061066,29.5458984375 1.7138671875,25.78125 3.797607421875,22.3828125 6.62109375,19.3359375 23.349609375,4.248046875 25.6640625,2.45361328125 28.095703125,1.11328125 30.73974609375,0.2783203125 33.69140625,0z" />
    </g>
  </g>
</svg>