<?xml version="1.0" encoding="utf-8"?>
<!DOCTYPE svg PUBLIC "-//W3C//DTD SVG 1.1//EN" "http://www.w3.org/Graphics/SVG/1.1/DTD/svg11.dtd">
<svg width="67.3828125000013" height="61.0546875" xmlns="http://www.w3.org/2000/svg" xmlns:xlink="http://www.w3.org/1999/xlink" xmlns:xml="http://www.w3.org/XML/1998/namespace" version="1.1">
  <g>
    <g>
      <path style="fill:#FF0000;fill-opacity:1" d="M36.533203125,47.75390625L35.3173828125,48.1787109375 34.04296875,48.427734375 36.9140625,48.427734375 36.708984375,48.10546875 36.533203125,47.75390625z M44.208984375,46.318359375L42.626953125,48.427734375 48.544921875,48.427734375 48.427734375,47.373046875 48.544921875,46.318359375 44.208984375,46.318359375z M53.701171875,44.208984375L52.4560546875,44.4580078125 51.4599609375,45.1318359375 50.7861328125,46.142578125 50.537109375,47.373046875 50.7861328125,48.6181640625 51.4599609375,49.599609375 52.4560546875,50.2587890625 53.701171875,50.5078125 54.9169921875,50.2587890625 55.9130859375,49.5849609375 56.5869140625,48.5888671875 56.8359375,47.373046875 56.5869140625,46.1572265625 55.927734375,45.146484375 54.931640625,44.4580078125 53.701171875,44.208984375z M13.681640625,44.208984375L12.4658203125,44.4580078125 11.455078125,45.146484375 10.7666015625,46.1572265625 10.517578125,47.373046875 10.7666015625,48.5888671875 11.455078125,49.5849609375 12.4658203125,50.2587890625 13.681640625,50.5078125 14.8974609375,50.2587890625 15.908203125,49.599609375 16.5966796875,48.6181640625 16.845703125,47.373046875 16.5966796875,46.142578125 15.9228515625,45.1318359375 14.912109375,44.4580078125 13.681640625,44.208984375z M13.681640625,41.044921875L16.142578125,41.54296875 18.1494140625,42.9052734375 19.51171875,44.912109375 20.009765625,47.373046875 19.51171875,49.833984375 18.1494140625,51.826171875 16.142578125,53.173828125 13.681640625,53.671875 11.220703125,53.173828125 9.2138671875,51.826171875 7.8515625,49.833984375 7.35351657867432,47.373046875 7.8515625,44.912109375 9.2138671875,42.9052734375 11.220703125,41.54296875 13.681640625,41.044921875z M32.724609375,37.998046875L31.4208984375,38.5400390625 30.3955078125,39.4921875 29.7216796875,40.72265625 29.47265625,42.099609375 29.8095703125,43.740234375 30.7177734375,45.0732421875 32.05078125,45.9814453125 33.69140625,46.318359375 34.9072265625,46.1279296875 36.005859375,45.615234375 36.298828125,43.8720703125 37.08984375,42.275390625 35.1123046875,40.3857421875 33.1640625,38.466796875 32.724609375,37.998046875z M53.701171875,37.880859375L51.064453125,38.2470703125 48.662109375,39.345703125 49.130859375,39.755859375 47.431640625,41.9677734375 45.791015625,44.208984375 48.22265625,44.208984375 50.537109375,41.89453125 52.0605430603027,41.25732421875 53.701171875,41.044921875 56.162109375,41.54296875 58.154296875,42.9052734375 59.501953125,44.912109375 60,47.373046875 59.501953125,49.833984375 58.154296875,51.826171875 56.162109375,53.173828125 53.701171875,53.671875 52.0605430603027,53.463134765625 50.537109375,52.8369140625 48.22265625,50.5078125 44.765625,50.5078125 46.1572265625,53.0859375 48.22265625,55.0927734375 50.80078125,56.3818359375 53.701171875,56.8359375 57.3779296875,56.0888671875 60.380859375,54.052734375 62.4169921875,51.0498046875 63.1640625,47.373046875 62.4169921875,43.681640625 60.380859375,40.6640625 57.3779296875,38.6279296875 53.701171875,37.880859375z M13.681640625,37.880859375L10.0048828125,38.6279296875 7.001953125,40.6640625 4.96581935882568,43.681640625 4.21875,47.373046875 4.96581935882568,51.0498046875 7.001953125,54.052734375 10.0048828125,56.0888671875 13.681640625,56.8359375 17.373046875,56.0888671875 20.390625,54.052734375 22.4267578125,51.0498046875 23.173828125,47.373046875 23.0859375,46.201171875 21.8408203125,43.9892578125 21.181640625,41.54296875 19.6582012176514,40.0048828125 17.841796875,38.84765625 15.8203125,38.12255859375 13.681640625,37.880859375z M42.48046875,36.26953125L38.26171875,40.48828125 39.9609375,42.099609375 39.287109375,42.802734375 38.701171875,43.681640625 38.2763671875,44.6484375 38.115234375,45.5859375 38.671875,47.255859375 39.990234375,48.427734375 46.318359375,39.990234375 42.48046875,36.26953125z M45.791015625,35.771484375L46.0400390625,36.2548828125 46.3916015625,36.8994140625 46.7724609375,37.5 47.109375,37.822265625 47.9443359375,37.294921875 48.837890625,36.85546875 48.22265625,35.771484375 45.791015625,35.771484375z M27.36328125,34.658203125L27.36328125,36.796875 29.1796875,37.67578125 30.99609375,36.38671875 27.36328125,34.658203125z M23.173828125,33.69140625L23.173828125,39.990234375 23.84765625,43.2568359375 25.6640625,45.9375 28.330078125,47.75390625 31.58203125,48.427734375 33.515625,48.427734375 30.5126953125,47.578125 28.30078125,45.380859375 26.07421875,43.095703125 25.458984375,41.6015625 25.25390625,39.990234375 25.25390625,33.69140625 23.173828125,33.69140625z M50.537109375,28.2421875L47.783203125,30.9375 45.087890625,33.662109375 50.537109375,33.662109375 50.537109375,28.2421875z M52.646484375,25.25390625L52.646484375,32.63671875 58.9453125,29.47265625 58.623046875,27.83203125 57.7294921875,26.4990234375 56.396484375,25.5908203125 54.755859375,25.25390625 52.646484375,25.25390625z M17.900390625,25.25390625L16.6845703125,25.5029296875 15.673828125,26.19140625 14.9853515625,27.2021484375 14.736328125,28.41796875 14.9853515625,29.6337890625 15.673828125,30.64453125 16.6845703125,31.3330078125 17.900390625,31.58203125 23.173828125,31.58203125 23.173828125,25.25390625 17.900390625,25.25390625z M6.591796875,25.25390625L6.328125,27.36328125 6.9873046875,30.64453125 8.7890625,33.310546875 11.455078125,35.1123046875 14.736328125,35.771484375 21.064453125,35.771484375 21.064453125,33.69140625 19.8779296875,33.720703125 18.662109375,33.75 16.3623046875,33.4130859375 14.4287109375,32.40234375 13.1103515625,30.732421875 12.626953125,28.41796875 12.7734375,27.216796875 12.65625,26.5869140625 12.626953125,25.95703125 12.626953125,25.25390625 6.591796875,25.25390625z M14.736328125,18.955078125L12.542724609375,19.2370624542236 10.5322265625,20.0830078125 8.807373046875,21.4123554229736 7.470703125,23.14453125 16.845703125,23.14453125 18.486328125,22.822265625 19.8193359375,21.9287109375 20.7275390625,20.595703125 21.064453125,18.955078125 14.736328125,18.955078125z M30.52734375,14.736328125L29.2822265625,14.9853515625 28.2861328125,15.6591796875 27.6123046875,16.669921875 27.36328125,17.900390625 27.36328125,25.25390625 25.25390625,25.25390625 25.25390625,31.58203125 30.52734375,31.58203125 31.7431640625,31.3330078125 32.75390625,30.64453125 33.4423828125,29.6337890625 33.69140625,28.41796875 33.69140625,25.25390625 41.865234375,25.25390625 34.599609375,32.490234375 33.92578125,33.515625 33.69140625,34.716796875 33.984375,36.0498046875 34.74609375,37.1630859375 35.7421875,38.1298828125 36.767578125,39.0234375 37.587890625,38.232421875 38.349609375,37.412109375 37.7490234375,36.8408203125 36.9580078125,36.064453125 36.2548828125,35.2587890625 35.947265625,34.599609375 36.26953125,33.837890625 44.208984375,25.8984375 43.740234375,23.90625 42.626953125,22.3681640625 40.986328125,21.38671875 38.96484375,21.03515625 31.58203125,21.03515625 31.58203125,26.30859375 31.2744140625,27.0556640625 30.52734375,27.36328125 29.7802734375,27.0556640625 29.47265625,26.30859375 29.47265625,19.98046875 29.794921875,19.2626953125 30.52734375,18.955078125 38.96484375,18.955078125 41.923828125,19.4970703125 44.2529296875,21.0205078125 45.7763671875,23.349609375 46.318359375,26.30859375 46.025390625,27.0703125 38.49609375,34.5703125 39.84375,35.947265625 39.990234375,35.771484375 48.427734375,27.36328125 48.4423828125,26.513671875 48.45703125,25.6640625 48.2592735290527,23.4960956573486 47.666015625,21.4453125 45.46875,17.958984375 42.12890625,15.6005859375 40.107421875,14.952392578125 37.91015625,14.736328125 30.52734375,14.736328125z M22.08984375,4.189453125L20.302734375,4.51171875 18.779296875,5.390625 17.6220703125,6.7236328125 16.962890625,8.408203125 25.25390625,8.408203125 23.173828125,12.626953125 16.962890625,12.626953125 17.607421875,14.326171875 18.7646484375,15.6591796875 20.302734375,16.5380859375 22.08984375,16.845703125 24.140625,16.435546875 25.8251953125,15.3076171875 26.953125,13.6376953125 27.36328125,11.572265625 27.36328125,9.462890625 26.953125,7.412109375 25.8251953125,5.7275390625 24.140625,4.59960842132568 22.08984375,4.189453125z M22.08984375,0L25.78125,0.747070074081421 28.798828125,2.78320336341858 30.8349609375,5.7861328125 31.58203125,9.462890625 31.58203125,10.517578125 37.91015625,10.517578125 42.626953125,11.2646484375 46.7431640625,13.4033203125 49.9658203125,16.728515625 52.03125,21.03515625 54.755859375,21.03515625 58.0078125,21.708984375 60.673828125,23.525390625 62.490234375,26.2060546875 63.1640625,29.47265625 63.1640625,32.080078125 58.330078125,34.482421875 62.021484375,36.5185546875 64.8779296875,39.5068359375 66.7236328125,43.212890625 67.3828125,47.373046875 67.11181640625,50.10498046875 66.298828125,52.67578125 65.020751953125,55.008544921875 63.3544921875,57.0263671875 61.336669921875,58.692626953125 59.00390625,59.970703125 56.43310546875,60.78369140625 53.701171875,61.0546875 49.716796875,60.4541015625 46.142578125,58.7548828125 43.1982421875,56.103515625 41.103515625,52.646484375 31.58203125,52.646484375 29.11376953125,52.3974609375 26.689453125,51.650390625 24.697265625,55.458984375 21.6943359375,58.4326171875 17.9296875,60.3662109375 13.681640625,61.0546875 10.94970703125,60.78369140625 8.37890625,59.970703125 6.04614162445068,58.692626953125 4.0283203125,57.0263671875 2.362060546875,55.008544921875 1.083984375,52.67578125 0.270995736122131,50.10498046875 0,47.373046875 0.3955078125,44.12109375 1.5234375,41.103515625 3.3251953125,38.4228515625 5.7421875,36.2109375 4.189453125,34.317626953125 3.046875,32.1533203125 2.34375,29.805908203125 2.109375,27.36328125 2.32177734375,25.02685546875 2.958984375,22.822265625 5.302734375,19.013671875 8.8330078125,16.2451171875 10.953369140625,15.340576171875 13.2421875,14.82421875 12.6708984375,12.4951171875 12.59765625,10.078125 12.59765625,9.873046875 13.30078125,6.0498046875 15.263671875,2.90039086341858 18.2666015625,0.7763671875 20.0939922332764,0.194094479084015 22.08984375,0z" />
    </g>
  </g>
</svg>