<?xml version="1.0" encoding="utf-8"?>
<!DOCTYPE svg PUBLIC "-//W3C//DTD SVG 1.1//EN" "http://www.w3.org/Graphics/SVG/1.1/DTD/svg11.dtd">
<svg width="59.765625" height="39.55078125" xmlns="http://www.w3.org/2000/svg" xmlns:xlink="http://www.w3.org/1999/xlink" xmlns:xml="http://www.w3.org/XML/1998/namespace" version="1.1">
  <g>
    <g>
      <path style="fill:#FF0000;fill-opacity:1" d="M24.287109375,27.421875L38.408203125,27.421875 37.822265625,29.619140625 23.701171875,29.619140625 24.287109375,27.421875z M22.587890625,22.5L39.7265625,22.5 39.140625,24.697265625 22.001953125,24.697265625 22.587890625,22.5z M20.419921875,17.607421875L41.044921875,17.607421875 40.458984375,19.8046875 19.833984375,19.8046875 20.419921875,17.607421875z M44.853515625,3.33984375L55.078125,3.33984375 52.880859375,11.54296875 42.65625,11.54296875 44.853515625,3.33984375z M15.52734375,0.99609375L13.974609375,6.796875 19.39453125,6.796875 18.662109375,9.521484375 13.2421875,9.521484375 12.0703125,13.88671875 17.34375,13.88671875 16.611328125,16.640625 11.337890625,16.640625 10.166015625,21.005859375 15.87890625,21.005859375 15.146484375,23.73046875 9.43359375,23.73046875 8.26171875,28.095703125 14.12109375,28.095703125 13.388671875,30.8203125 7.529296875,30.8203125 5.44921827316284,38.583984375 48.22265625,38.583984375 58.271484375,0.99609375 15.52734375,0.99609375z M14.560546875,0L59.765625,0 49.16015625,39.55078125 3.955078125,39.55078125 6.298828125,30.8203125 0,30.8203125 0.732422292232513,28.095703125 7.03124952316284,28.095703125 8.203125,23.73046875 0,23.73046875 0.732422292232513,21.005859375 8.935546875,21.005859375 10.107421875,16.640625 0,16.640625 0.732422292232513,13.88671875 10.83984375,13.88671875 12.01171875,9.521484375 0,9.521484375 0.732422292232513,6.796875 12.744140625,6.796875 14.560546875,0z" />
    </g>
  </g>
</svg>