<?xml version="1.0" encoding="utf-8"?>
<!DOCTYPE svg PUBLIC "-//W3C//DTD SVG 1.1//EN" "http://www.w3.org/Graphics/SVG/1.1/DTD/svg11.dtd">
<svg width="67.3828125" height="67.3828125" xmlns="http://www.w3.org/2000/svg" xmlns:xlink="http://www.w3.org/1999/xlink" xmlns:xml="http://www.w3.org/XML/1998/namespace" version="1.1">
  <g>
    <g>
      <path style="fill:#FF0000;fill-opacity:1" d="M56.865234375,54.755859375L56.865234375,58.974609375 61.0546875,58.974609375 61.0546875,54.755859375 56.865234375,54.755859375z M31.58203125,54.755859375L31.58203125,58.974609375 35.80078125,58.974609375 35.80078125,54.755859375 31.58203125,54.755859375z M6.328125,54.755859375L6.328125,58.974609375 10.517578125,58.974609375 10.517578125,54.755859375 6.328125,54.755859375z M23.173828125,46.318359375L23.173828125,50.537109375 27.36328125,50.537109375 27.36328125,46.318359375 23.173828125,46.318359375z M48.427734375,37.91015625L48.427734375,42.12890625 52.646484375,42.12890625 52.646484375,37.91015625 48.427734375,37.91015625z M31.58203125,37.91015625L31.58203125,42.12890625 35.80078125,42.12890625 35.80078125,37.91015625 31.58203125,37.91015625z M14.736328125,37.91015625L14.736328125,42.12890625 18.955078125,42.12890625 18.955078125,37.91015625 14.736328125,37.91015625z M48.427734375,21.064453125L48.427734375,25.283203125 52.646484375,25.283203125 52.646484375,21.064453125 48.427734375,21.064453125z M23.173828125,21.064453125L23.173828125,25.283203125 27.36328125,25.283203125 27.36328125,21.064453125 23.173828125,21.064453125z M42.099609375,4.21874952316284L39.569091796875,4.46777629852295 37.1923828125,5.21484422683716 33.1787109375,7.9248046875 30.46875,11.9384765625 29.7216796875,14.315185546875 29.47265625,16.845703125 37.91015625,16.845703125 37.91015625,27.36328125 46.318359375,27.36328125 46.318359375,16.845703125 54.755859375,16.845703125 54.5068321228027,14.293212890625 53.759765625,11.9091796875 51.0498046875,7.8955078125 47.0361328125,5.20019578933716 44.6520957946777,4.46411418914795 42.099609375,4.21874952316284z M42.099609375,0L45.8752403259277,0.413821220397949 49.4091796875,1.65527355670929 52.5769004821777,3.65112590789795 55.25390625,6.328125 67.3828125,6.328125 67.3828125,67.3828125 0,67.3828125 0,36.15234375 8.408203125,27.744140625 8.408203125,12.626953125 25.810546875,12.626953125 26.748046875,9.979248046875 28.095703125,7.5439453125 31.8017578125,3.54492211341858 36.591796875,0.937500476837158 39.287109375,0.234377920627594 42.099609375,0z" />
    </g>
  </g>
</svg>