<?xml version="1.0" encoding="utf-8"?>
<!DOCTYPE svg PUBLIC "-//W3C//DTD SVG 1.1//EN" "http://www.w3.org/Graphics/SVG/1.1/DTD/svg11.dtd">
<svg width="50.5371093750009" height="65.2734375" xmlns="http://www.w3.org/2000/svg" xmlns:xlink="http://www.w3.org/1999/xlink" xmlns:xml="http://www.w3.org/XML/1998/namespace" version="1.1">
  <g>
    <g>
      <path style="fill:#FF0000;fill-opacity:1" d="M24.375,37.91015625L22.265625,38.3349609375 20.537109375,39.4921875 19.3798828125,41.220703125 18.955078125,43.330078125 19.3798828125,45.4541015625 20.537109375,47.1533203125 22.2509765625,48.2958984375 24.375,48.720703125 24.8876953125,50.009765625 26.162109375,50.537109375 27.451171875,50.009765625 27.978515625,48.720703125 28.76953125,48.544921875 29.150390625,48.1494140625 29.4580078125,47.8857421875 29.677734375,47.548828125 29.765625,46.93359375 31.0546875,46.40625 31.58203125,45.1171875 31.0546875,43.8427734375 29.765625,43.330078125 29.3408203125,41.2353515625 28.18359375,39.5068359375 26.4697265625,38.3349609375 24.375,37.91015625z M24.375,35.80078125L26.923828125,36.240234375 29.0625,37.470703125 30.6884765625,39.345703125 31.728515625,41.71875 33.1640625,43.1689453125 33.69140625,45.1171875 33.10546875,47.197265625 31.494140625,48.6328125 29.677734375,50.44921875 28.2421875,52.060546875 26.162109375,52.646484375 24.2138671875,52.119140625 22.763671875,50.68359375 20.390625,49.6435546875 18.515625,48.017578125 17.28515625,45.8935546875 16.845703125,43.330078125 17.431640625,40.400390625 19.04296875,37.998046875 21.4453125,36.38671875 24.375,35.80078125z M6.328125,27.36328125L14.736328125,61.0546875 35.80078125,61.0546875 44.208984375,27.36328125 6.328125,27.36328125z M25.576171875,4.21875L24.287109375,4.7314453125 23.759765625,6.00585889816284 23.349609375,6.1962890625 23.173828125,6.62109422683716 23.5546875,7.17773389816284 23.173828125,8.4375 21.9140625,8.84765625 20.7421875,8.4375 19.4677734375,8.9501953125 18.955078125,10.224609375 19.04296875,10.83984375 19.365234375,11.3671875 18.955078125,12.626953125 17.724609375,13.037109375 17.138671875,12.626953125 16.728515625,12.8173828125 16.552734375,13.2421875 15.263671875,13.7548828125 14.736328125,15.029296875 14.970703125,15.908203125 14.736328125,16.845703125 13.798828125,17.080078125 12.919921875,16.845703125 11.6455078125,17.373046875 11.1328125,18.662109375 10.7080078125,18.837890625 10.517578125,19.248046875 10.927734375,19.833984375 10.517578125,21.064453125 9.0234375,21.6796875 8.73046875,21.650390625 8.5400390625,21.240234375 8.115234375,21.064453125 7.705078125,21.240234375 7.529296875,21.650390625 7.1044921875,21.8408203125 6.9140625,22.265625 6.50390625,22.44140625 6.328125,22.8515625 6.50390625,23.2763671875 6.9140625,23.466796875 6.943359375,23.759765625 6.328125,25.283203125 44.208984375,25.283203125 43.798828125,24.0234375 44.208984375,22.8515625 43.6962890625,21.5771484375 42.421875,21.064453125 41.25,21.474609375 40.01953125,21.064453125 39.78515625,20.126953125 40.01953125,19.248046875 39.4921875,17.9736328125 38.203125,17.4609375 38.02734375,17.021484375 37.587890625,16.845703125 37.03125,17.255859375 35.80078125,16.845703125 35.390625,15.615234375 35.80078125,15.029296875 35.6103515625,14.619140625 35.185546875,14.443359375 34.6728515625,13.154296875 33.3984375,12.626953125 32.51953125,12.861328125 31.58203125,12.626953125 31.5234375,12.158203125 31.376953125,11.689453125 31.58203125,10.83984375 31.0546875,9.55078125 29.765625,9.0234375 29.58984375,8.61328125 29.1796875,8.4375 28.623046875,8.818359375 27.36328125,8.4375 26.953125,7.17773389816284 27.36328125,6.00585889816284 26.8505859375,4.7314453125 25.576171875,4.21875z M25.576171875,0L27.626953125,0.3515625 29.3701171875,1.34765625 30.6884765625,2.85644555091858 31.46484375,4.775390625 33.8232421875,6.4306640625 35.44921875,8.7890625 36.5478515625,9.287109375 37.3388671875,9.873046875 37.96875,10.60546875 38.583984375,11.513671875 38.84765625,11.923828125 39.2431640625,12.48046875 39.580078125,13.06640625 40.166015625,13.4033203125 40.72265625,13.798828125 41.25,14.150390625 42.041015625,14.70703125 42.7001953125,15.29296875 43.271484375,16.025390625 43.76953125,16.9921875 45.46875,17.6953125 46.8603515625,18.8232421875 47.8564453125,20.3173828125 48.369140625,22.08984375 49.9658203125,23.935546875 50.537109375,26.30859375 50.3393516540527,27.7478046417236 49.74609375,29.0771484375 47.63671875,31.025390625 43.359375,48.1494140625 39.08203125,65.2734375 11.455078125,65.2734375 7.19238185882568,48.1494140625 2.87109375,31.025390625 0.7763671875,29.0771484375 0.194091439247131,27.7478046417236 0,26.30859375 0.5712890625,23.90625 2.16796875,22.060546875 2.75390625,20.4931640625 3.8818359375,18.984375 5.3173828125,17.75390625 6.85546875,17.021484375 7.705078125,15.76171875 8.525390625,14.6337890625 9.521484375,13.7109375 10.8984375,13.0078125 11.5576171875,11.630859375 12.48046875,10.634765625 13.6083984375,9.814453125 14.853515625,8.994140625 15.4541015625,7.36083984375 16.494140625,5.9765625 17.8784160614014,4.93652629852295 19.51171875,4.3359375 20.6396484375,2.62206983566284 21.9140625,1.24511742591858 23.5107421875,0.336914300918579 25.576171875,0z" />
    </g>
  </g>
</svg>