<?xml version="1.0" encoding="utf-8"?>
<!DOCTYPE svg PUBLIC "-//W3C//DTD SVG 1.1//EN" "http://www.w3.org/Graphics/SVG/1.1/DTD/svg11.dtd">
<svg width="54.7558593750005" height="67.3828125" xmlns="http://www.w3.org/2000/svg" xmlns:xlink="http://www.w3.org/1999/xlink" xmlns:xml="http://www.w3.org/XML/1998/namespace" version="1.1">
  <g>
    <g>
      <path style="fill:#FF0000;fill-opacity:1" d="M18.28125,42.12890625L15.465087890625,42.403564453125 12.8173828125,43.2275390625 10.4150390625,44.527587890625 8.33495998382568,46.23046875 6.62109279632568,48.299560546875 5.31738185882568,50.6982421875 4.493408203125,53.345947265625 4.21875,56.162109375 4.21875,63.1640625 50.537109375,63.1640625 50.537109375,56.162109375 50.2624473571777,53.345947265625 49.4384765625,50.6982421875 48.1347618103027,48.299560546875 46.4208984375,46.23046875 44.3408164978027,44.527587890625 41.9384765625,43.2275390625 39.290771484375,42.403564453125 36.474609375,42.12890625 34.1455078125,42.1435546875 31.81640625,42.158203125 33.1640625,42.861328125 33.69140625,44.267578125 33.3251953125,45.4833984375 32.4609375,47.314453125 31.4794921875,49.1748046875 30.791015625,50.478515625 30.05859375,52.060546875 29.23828125,53.61328125 28.4765625,54.462890625 27.36328125,54.78515625 26.2646484375,54.462890625 25.48828125,53.61328125 24.6533203125,52.0751953125 23.935546875,50.5078125 22.55859375,47.8857421875 21.298828125,45.17578125 21.1376953125,44.7216796875 21.064453125,44.267578125 21.5625,42.861328125 22.880859375,42.158203125 20.5810546875,42.1435546875 18.28125,42.12890625z M27.36328125,31.611328125L28.857421875,32.2265625 29.47265625,33.720703125 28.857421875,35.21484375 27.36328125,35.830078125 25.8837890625,35.2001953125 25.25390625,33.720703125 25.8837890625,32.2412109375 27.36328125,31.611328125z M25.25390625,27.421875L29.47265625,27.421875 28.8427734375,28.88671875 27.36328125,29.501953125 25.8837890625,28.88671875 25.25390625,27.421875z M25.25390625,18.45703125L25.283203125,18.896484375 24.9462890625,20.537109375 24.0380859375,21.884765625 22.705078125,22.8076171875 21.064453125,23.14453125 20.33203125,23.1298828125 19.599609375,23.115234375 18.6328125,23.1884765625 17.75390625,23.525390625 17.9333477020264,24.5178241729736 18.3544921875,25.0927734375 20.009765625,25.458984375 21.0790996551514,25.3381366729736 21.767578125,24.9755859375 22.1411113739014,24.2907733917236 22.265625,23.203125 23.173828125,23.203125 22.9833984375,24.5947265625 22.3974609375,25.751953125 21.4013671875,26.54296875 20.009765625,26.8359375 18.10546875,26.2060546875 16.962890625,24.55078125 16.845703125,25.283203125 16.845703125,29.501953125 16.318359375,31.552734375 14.853515625,33.076171875 17.2119140625,36.005859375 20.2001953125,38.1884765625 23.642578125,39.5654296875 27.36328125,40.048828125 31.11328125,39.580078125 34.541015625,38.203125 37.5146484375,36.005859375 39.90234375,33.076171875 38.4375,31.552734375 37.91015625,29.501953125 37.91015625,25.283203125 37.763671875,24.55078125 36.6357421875,26.19140625 34.74609375,26.806640625 33.3544921875,26.513671875 32.3583984375,25.7373046875 31.7724609375,24.5947265625 31.58203125,23.203125 32.490234375,23.203125 33.1494140625,24.7998046875 34.74609375,25.458984375 36.2255859375,24.9169921875 36.97265625,23.525390625 36.123046875,23.203125 35.15625,23.14453125 34.453125,23.14453125 32.9296875,23.056640625 31.6552734375,22.6904296875 30.615234375,21.9140625 29.82421875,20.595703125 29.5751953125,19.7900390625 29.47265625,18.984375 27.3486328125,18.8818359375 25.25390625,18.45703125z M29.47265625,12.65625L29.47265625,18.69140625 30.0439453125,16.904296875 31.2890625,15.498046875 29.47265625,12.65625z M37.91015625,10.517578125L37.91015625,12.919921875 37.5439453125,14.53125 36.5771484375,15.7177734375 35.21484375,16.4794921875 33.6328125,16.845703125 32.1826171875,17.4755859375 31.58203125,18.92578125 31.875,20.15625 32.6513671875,20.7861328125 33.7353515625,21.0205078125 34.951171875,21.064453125 35.068359375,21.064453125 36.70166015625,21.199951171875 37.91015625,21.6064453125 39.375,23.0712890625 39.931640625,25.25390625 40.01953125,27.94921875 40.01953125,28.212890625 40.0634765625,29.3994140625 40.2978515625,30.4833984375 40.9130859375,31.2744140625 42.099609375,31.58203125 43.5791015625,30.966796875 44.208984375,29.501953125 44.208984375,10.517578125 37.91015625,10.517578125z M10.517578125,10.517578125L10.517578125,29.501953125 11.1474609375,30.966796875 12.626953125,31.58203125 14.208984375,30.8642578125 14.736328125,29.1796875 14.736328125,25.283203125 15.087890625,23.5400390625 16.0546875,22.20703125 17.4755859375,21.3427734375 19.21875,21.03515625 19.86328125,21.0498046875 20.5078125,21.064453125 21.50390625,20.947265625 22.353515625,20.56640625 22.9541015625,19.892578125 23.173828125,18.896484375 22.5439453125,17.431640625 21.064453125,16.81640625 19.4384765625,16.494140625 18.0908203125,15.615234375 17.1826171875,14.3115234375 16.845703125,12.685546875 16.845703125,10.517578125 10.517578125,10.517578125z M35.80078125,4.21874952316284L35.80078125,6.328125 36.4306640625,7.8076171875 37.91015625,8.4375 44.208984375,8.4375 45.6884765625,7.8076171875 46.318359375,6.328125 46.318359375,4.21874952316284 35.80078125,4.21874952316284z M8.408203125,4.21874952316284L8.408203125,6.328125 9.0380859375,7.8076171875 10.517578125,8.4375 16.845703125,8.4375 18.3251953125,7.8076171875 18.955078125,6.328125 18.955078125,4.21874952316284 8.408203125,4.21874952316284z M4.21875,0L50.537109375,0 50.537109375,6.328125 49.98046875,8.8916015625 48.427734375,11.015625 48.427734375,13.59375 50.009765625,18.2958984375 50.537109375,23.232421875 50.537109375,44.53125 52.3278770446777,47.142333984375 53.6572265625,49.9951171875 54.4811973571777,53.023681640625 54.755859375,56.162109375 54.755859375,67.3828125 0,67.3828125 0,56.162109375 0.274657845497131,53.023681640625 1.0986328125,49.9951171875 2.427978515625,47.142333984375 4.21875,44.53125 4.21875,23.232421875 4.74609375,18.2958984375 6.328125,13.59375 6.328125,11.015625 4.7607421875,8.90625 4.21875,6.328125 4.21875,0z" />
    </g>
  </g>
</svg>