<?xml version="1.0" encoding="utf-8"?>
<!DOCTYPE svg PUBLIC "-//W3C//DTD SVG 1.1//EN" "http://www.w3.org/Graphics/SVG/1.1/DTD/svg11.dtd">
<svg width="67.3828125000018" height="54.7265625" xmlns="http://www.w3.org/2000/svg" xmlns:xlink="http://www.w3.org/1999/xlink" xmlns:xml="http://www.w3.org/XML/1998/namespace" version="1.1">
  <g>
    <g>
      <path style="fill:#FF0000;fill-opacity:1" d="M6.328125,44.208984375L6.328125,48.427734375 61.0546875,48.427734375 61.0546875,44.208984375 6.328125,44.208984375z M49.482421875,33.1640625L48.3544921875,33.6181640625 47.900390625,34.74609375 48.369140625,35.859375 49.482421875,36.328125 50.595703125,35.859375 51.064453125,34.74609375 50.6103515625,33.6181640625 49.482421875,33.1640625z M15.791015625,33.1640625L14.6630859375,33.6181640625 14.208984375,34.74609375 14.677734375,35.859375 15.791015625,36.328125 16.904296875,35.859375 17.373046875,34.74609375 16.9189453125,33.6181640625 15.791015625,33.1640625z M50.537109375,31.58203125L52.177734375,31.9189453125 53.5107421875,32.8271484375 54.4189453125,34.16015625 54.755859375,35.80078125 54.4189453125,37.44140625 53.5107421875,38.7744140625 52.177734375,39.66796875 50.537109375,39.990234375 48.896484375,39.66796875 47.5634765625,38.7744140625 46.6552734375,37.44140625 46.318359375,35.80078125 46.6552734375,34.16015625 47.5634765625,32.8271484375 48.896484375,31.9189453125 50.537109375,31.58203125z M16.845703125,31.58203125L18.486328125,31.9189453125 19.8193359375,32.8271484375 20.7275390625,34.16015625 21.064453125,35.80078125 20.7275390625,37.44140625 19.8193359375,38.7744140625 18.486328125,39.66796875 16.845703125,39.990234375 15.205078125,39.66796875 13.8720703125,38.7744140625 12.9638671875,37.44140625 12.626953125,35.80078125 12.9638671875,34.16015625 13.8720703125,32.8271484375 15.205078125,31.9189453125 16.845703125,31.58203125z M32.63671875,30.52734375L31.142578125,31.142578125 30.52734375,32.63671875 31.142578125,34.130859375 32.63671875,34.74609375 34.1162109375,34.1162109375 34.74609375,32.63671875 34.130859375,31.142578125 32.63671875,30.52734375z M33.69140625,29.47265625L35.7421875,29.8974609375 37.4267578125,31.0400390625 38.5546875,32.724609375 38.96484375,34.775390625 38.5400390625,36.8115234375 37.3974609375,38.466796875 35.7275390625,39.580078125 33.69140625,39.990234375 31.640625,39.580078125 29.9560546875,38.4521484375 28.828125,36.7822265625 28.41796875,34.74609375 28.828125,32.6953125 29.9560546875,31.0107421875 31.640625,29.8828125 33.69140625,29.47265625z M46.318359375,8.408203125L44.677734375,8.7451171875 43.3447265625,9.6533203125 42.4365234375,10.986328125 42.099609375,12.626953125 42.4072265625,14.2236328125 43.271484375,15.5419921875 44.560546875,16.46484375 46.142578125,16.845703125 44.6630859375,17.2412109375 43.6376953125,18.1640625 42.890625,19.4091796875 42.24609375,20.80078125 45.17578125,26.66015625 46.318359375,27.36328125 47.490234375,26.66015625 50.419921875,20.80078125 49.74609375,19.4091796875 48.984375,18.1640625 47.958984375,17.2412109375 46.494140625,16.845703125 48.0615234375,16.46484375 49.3505859375,15.5419921875 50.21484375,14.2236328125 50.537109375,12.626953125 50.2001953125,10.986328125 49.2919921875,9.6533203125 47.958984375,8.7451171875 46.318359375,8.408203125z M21.064453125,8.408203125L19.423828125,8.7451171875 18.0908203125,9.6533203125 17.1826171875,10.986328125 16.845703125,12.626953125 17.1533203125,14.2236328125 18.017578125,15.5419921875 19.306640625,16.46484375 20.888671875,16.845703125 19.423828125,17.2412109375 18.3984375,18.1640625 17.63671875,19.4091796875 16.962890625,20.80078125 19.892578125,26.66015625 21.064453125,27.36328125 22.20703125,26.66015625 25.13671875,20.80078125 24.462890625,19.4091796875 23.7158203125,18.1640625 22.705078125,17.2412109375 21.240234375,16.845703125 22.79296875,16.46484375 24.08203125,15.5419921875 24.9462890625,14.2236328125 25.25390625,12.626953125 24.931640625,10.986328125 24.0380859375,9.6533203125 22.705078125,8.7451171875 21.064453125,8.408203125z M8.408203125,4.18945217132568L6.767578125,4.5263671875 5.4345703125,5.4345703125 4.541015625,6.767578125 4.21875,8.408203125 4.5263671875,10.0048828125 5.3759765625,11.3232421875 6.650390625,12.24609375 8.23242282867432,12.626953125 6.8701171875,13.30078125 6.328125,14.736328125 6.328125,32.138671875 4.775390625,33.69140625 4.21875,35.80078125 4.7900390625,37.880859375 6.328125,39.43359375 6.328125,42.099609375 61.0546875,42.099609375 61.0546875,39.43359375 62.5927734375,37.880859375 63.1640625,35.80078125 62.607421875,33.69140625 61.0546875,32.138671875 61.0546875,14.736328125 60.498046875,13.2861328125 59.12109375,12.626953125 60.6884765625,12.24609375 61.9775390625,11.3232421875 62.841796875,10.0048828125 63.1640625,8.408203125 62.8271484375,6.767578125 61.9189453125,5.4345703125 60.5859375,4.5263671875 58.9453125,4.18945217132568 57.3046875,4.5263671875 55.9716796875,5.4345703125 55.078125,6.767578125 54.755859375,8.408203125 55.0634765625,10.0048828125 55.9130859375,11.3232421875 57.1875,12.24609375 58.76953125,12.626953125 57.0849609375,13.18359375 55.8984375,14.501953125 51.591796875,23.14453125 50.4638671875,25.3125 49.39453125,27.509765625 48.134765625,28.9306640625 46.318359375,29.47265625 44.47265625,28.9306640625 43.212890625,27.48046875 42.158203125,25.3125 41.07421875,23.14453125 36.73828125,14.501953125 35.5517578125,13.18359375 33.8671875,12.626953125 35.44921875,12.2607421875 36.73828125,11.3525390625 37.6025390625,10.01953125 37.91015625,8.408203125 37.5732421875,6.767578125 36.6650390625,5.4345703125 35.33203125,4.5263671875 33.69140625,4.18945217132568 32.05078125,4.5263671875 30.7177734375,5.4345703125 29.8095703125,6.767578125 29.47265625,8.408203125 29.7802734375,10.01953125 30.64453125,11.3525390625 31.93359375,12.2607421875 33.515625,12.626953125 31.8310546875,13.18359375 30.64453125,14.501953125 26.30859375,23.14453125 25.224609375,25.3857421875 24.111328125,27.59765625 22.8515625,28.9599609375 21.064453125,29.47265625 19.2626953125,28.9599609375 17.98828125,27.59765625 16.875,25.3857421875 15.791015625,23.14453125 11.455078125,14.501953125 10.283203125,13.1689453125 8.583984375,12.626953125 10.166015625,12.2607421875 11.455078125,11.3525390625 12.3193359375,10.01953125 12.626953125,8.408203125 12.2900390625,6.767578125 11.3818359375,5.4345703125 10.048828125,4.5263671875 8.408203125,4.18945217132568z M8.408203125,0L11.0009765625,0.410155534744263 13.2861328125,1.55273365974426 15.1318359375,3.32519507408142 16.376953125,5.625 18.6035137176514,4.54833984375 21.064453125,4.18945217132568 23.5107421875,4.55566310882568 25.751953125,5.625 26.982421875,3.32519507408142 28.8134765625,1.55273365974426 31.0986328125,0.410155534744263 33.69140625,0 36.2841796875,0.410155534744263 38.5693359375,1.55273365974426 40.400390625,3.32519507408142 41.630859375,5.625 43.8574180603027,4.54833984375 46.318359375,4.18945217132568 48.7792930603027,4.54833984375 51.005859375,5.625 52.236328125,3.32519507408142 54.0673828125,1.55273365974426 56.3525390625,0.410155534744263 58.9453125,0 62.2119140625,0.659178972244263 64.892578125,2.46093726158142 66.708984375,5.1416015625 67.3828125,8.408203125 66.826171875,11.4111328125 65.244140625,14.033203125 65.2734375,14.384765625 65.2734375,14.736328125 65.2734375,30.234375 66.8408203125,32.8125 67.3828125,35.771484375 67.1044921875,37.939453125 66.26953125,39.931640625 67.08984375,41.4697265625 67.3828125,43.18359375 67.1044921875,44.8388671875 66.328125,46.318359375 67.119140625,47.7978515625 67.3828125,49.482421875 66.97265625,51.5185546875 65.8447265625,53.1884765625 64.16015625,54.31640625 62.109375,54.7265625 5.2734375,54.7265625 3.22265625,54.31640625 1.5380859375,53.1884765625 0.410156726837158,51.5185546875 0,49.482421875 0.263671517372131,47.7978515625 1.0546875,46.318359375 0.2783203125,44.8388671875 0,43.18359375 0.292969226837158,41.4697265625 1.11328125,39.931640625 0.278319954872131,37.94677734375 0,35.80078125 0.5419921875,32.8125 2.109375,30.234375 2.109375,14.736328125 2.109375,14.384765625 2.138671875,14.033203125 0.556640625,11.4111328125 0,8.408203125 0.6591796875,5.1416015625 2.4609375,2.46093726158142 5.1416015625,0.659178972244263 8.408203125,0z" />
    </g>
  </g>
</svg>