<?xml version="1.0" encoding="utf-8"?>
<!DOCTYPE svg PUBLIC "-//W3C//DTD SVG 1.1//EN" "http://www.w3.org/Graphics/SVG/1.1/DTD/svg11.dtd">
<svg width="63.837890625" height="48.4570312500017" xmlns="http://www.w3.org/2000/svg" xmlns:xlink="http://www.w3.org/1999/xlink" xmlns:xml="http://www.w3.org/XML/1998/namespace" version="1.1">
  <g>
    <g>
      <path style="fill:#FF0000;fill-opacity:1" d="M14.267578125,12.65625L10.3271484375,28.447265625 6.38671875,44.23828125 50.537109375,44.23828125 58.41796875,12.65625 14.267578125,12.65625z M8.408203125,4.21874952316284L7.2802734375,4.48242139816284 6.6357421875,5.17089796066284 6.357421875,6.12304639816284 6.298828125,7.20703077316284 6.3134765625,7.83691358566284 6.328125,8.4375 4.21875,8.4375 4.21875,44.23828125 12.626953125,10.546875 50.537109375,10.546875 50.537109375,8.4375 18.955078125,8.4375 18.955078125,7.38281202316284 18.896484375,6.25488233566284 18.6181640625,5.22949171066284 17.9736328125,4.49706983566284 16.845703125,4.21874952316284 8.408203125,4.21874952316284z M8.408203125,0L16.845703125,0 18.779296875,0.307616710662842 20.478515625,1.17187452316284 21.8408203125,2.50488233566284 22.79296875,4.21874952316284 54.755859375,4.21874952316284 54.755859375,8.4375 63.837890625,8.4375 53.818359375,48.45703125 0,48.45703125 0,4.21874952316284 2.4609375,4.21874952316284 3.4130859375,2.53417921066284 4.7900390625,1.20117139816284 6.4892578125,0.322265148162842 8.408203125,0z" />
    </g>
  </g>
</svg>