<?xml version="1.0" encoding="utf-8"?>
<!DOCTYPE svg PUBLIC "-//W3C//DTD SVG 1.1//EN" "http://www.w3.org/Graphics/SVG/1.1/DTD/svg11.dtd">
<svg width="67.4414062500175" height="67.3828125" xmlns="http://www.w3.org/2000/svg" xmlns:xlink="http://www.w3.org/1999/xlink" xmlns:xml="http://www.w3.org/XML/1998/namespace" version="1.1">
  <g>
    <g>
      <path style="fill:#FF0000;fill-opacity:1" d="M40.078125,52.646484375L41.54296875,53.2763671875 42.158203125,54.755859375 41.54296875,56.2353515625 40.078125,56.865234375 38.583984375,56.25 37.96875,54.755859375 38.583984375,53.26171875 40.078125,52.646484375z M47.431640625,50.537109375L48.662109375,50.7861328125 49.6728515625,51.4599609375 50.3466796875,52.470703125 50.595703125,53.701171875 50.3466796875,54.9169921875 49.658203125,55.927734375 48.6474609375,56.6162109375 47.431640625,56.865234375 46.2158203125,56.6162109375 45.205078125,55.927734375 44.5166015625,54.9169921875 44.267578125,53.701171875 44.5166015625,52.4853515625 45.205078125,51.474609375 46.2158203125,50.7861328125 47.431640625,50.537109375z M48.486328125,44.208984375L49.9658203125,44.8388671875 50.595703125,46.318359375 49.98046875,47.8125 48.486328125,48.427734375 46.9921875,47.8125 46.376953125,46.318359375 47.0068359375,44.8388671875 48.486328125,44.208984375z M22.177734375,37.91015625L20.9326171875,38.1591796875 19.9365234375,38.8330078125 19.2626953125,39.84375 19.013671875,41.07421875 19.2626953125,42.3193359375 19.951171875,43.30078125 20.9619140625,43.9599609375 22.177734375,44.208984375 23.3935546875,43.9599609375 24.3896484375,43.2861328125 25.0634765625,42.2900390625 25.3125,41.07421875 25.0634765625,39.8583984375 24.404296875,38.84765625 23.408203125,38.1591796875 22.177734375,37.91015625z M22.177734375,31.58203125L25.869140625,32.3291015625 28.8720703125,34.365234375 30.8935546875,37.3828125 31.640625,41.07421875 31.4501953125,42.952880859375 30.87890625,44.7216796875 28.828125,47.724609375 25.8251953125,49.775390625 24.056396484375,50.3466796875 22.177734375,50.537109375 18.486328125,49.7900390625 15.46875,47.7685546875 13.4326171875,44.765625 12.685546875,41.07421875 13.4326171875,37.3828125 15.46875,34.365234375 18.486328125,32.3291015625 22.177734375,31.58203125z M22.177734375,29.47265625L19.8486309051514,29.6997089385986 17.666015625,30.380859375 13.974609375,32.87109375 11.484375,36.5625 10.80322265625,38.7451171875 10.576171875,41.07421875 11.07421875,44.4580078125 12.4951171875,47.4755859375 14.736328125,49.951171875 17.666015625,51.73828125 19.599609375,52.3974609375 21.650390625,52.646484375 24.2138671875,52.44140625 26.689453125,51.73828125 29.5751953125,49.98046875 31.8017578125,47.4609375 33.2373046875,44.4140625 33.75,41.07421875 33.52294921875,38.7451171875 32.841796875,36.5625 30.3662109375,32.87109375 26.689453125,30.380859375 24.5068359375,29.6997089385986 22.177734375,29.47265625z M54.814453125,8.43750095367432L56.2939453125,9.052734375 56.923828125,10.517578125 56.923828125,12.626953125 56.2939453125,14.1064453125 54.814453125,14.736328125 53.3203125,14.12109375 52.705078125,12.626953125 52.705078125,10.517578125 53.3349609375,9.052734375 54.814453125,8.43750095367432z M37.96875,8.43750095367432L39.4482421875,9.052734375 40.078125,10.517578125 40.078125,12.626953125 39.4482421875,14.1064453125 37.96875,14.736328125 36.474609375,14.12109375 35.859375,12.626953125 35.859375,10.517578125 36.4892578125,9.052734375 37.96875,8.43750095367432z M37.96875,4.21875L35.5078125,4.71679782867432 33.5009765625,6.06445407867432 32.138671875,8.056640625 31.640625,10.517578125 31.640625,12.626953125 31.962890625,14.58984375 32.8564453125,16.3623046875 34.2041015625,17.8564453125 35.859375,18.955078125 35.859375,25.78125 40.01953125,28.7109375 43.3740234375,32.548828125 45.6005859375,37.08984375 46.2048301696777,39.5654296875 46.40625,42.12890625 37.96875,42.12890625 37.65380859375,45.64453125 36.708984375,48.8671875 35.2001953125,51.73828125 33.193359375,54.19921875 30.728759765625,56.2060546875 27.8466796875,57.71484375 24.620361328125,58.65966796875 21.123046875,58.974609375 15.76171875,58.2421875 13.2568359375,57.275390625 10.95703125,55.83984375 8.7744140625,57.0703125 6.796875,58.7841796875 5.2294921875,60.849609375 4.27734375,63.1640625 44.267578125,63.1640625 46.5966796875,62.9296875 48.8671875,62.314453125 52.4194297790527,60.494384765625 54.931640625,57.8466796875 56.42578125,54.488525390625 56.923828125,50.537109375 56.923828125,37.91015625 59.384765625,37.412109375 61.376953125,36.0498046875 62.724609375,34.04296875 63.22265625,31.58203125 62.724609375,29.12109375 61.376953125,27.12890625 59.384765625,25.78125 56.923828125,25.283203125 56.923828125,18.955078125 58.53515625,17.841796875 59.8681640625,16.34765625 60.7763671875,14.5751953125 61.11328125,12.626953125 61.11328125,10.517578125 60.615234375,8.056640625 59.267578125,6.06445407867432 57.275390625,4.71679782867432 54.814453125,4.21875 52.353515625,4.71679782867432 50.3466796875,6.06445407867432 48.984375,8.056640625 48.486328125,10.517578125 48.486328125,12.626953125 48.80859375,14.58984375 49.7021484375,16.3623046875 51.0498046875,17.8564453125 52.705078125,18.955078125 52.236328125,21.50390625 50.9326171875,23.5107421875 48.92578125,24.814453125 46.376953125,25.283203125 43.8427734375,24.814453125 41.8505859375,23.49609375 40.546875,21.4892578125 40.078125,18.955078125 41.689453125,17.841796875 43.0224609375,16.34765625 43.9306640625,14.5751953125 44.267578125,12.626953125 44.267578125,10.517578125 43.76953125,8.056640625 42.421875,6.06445407867432 40.4296875,4.71679782867432 37.96875,4.21875z M37.96875,0L40.389404296875,0.27832356095314 42.6708984375,1.11328148841858 44.7033653259277,2.44629240036011 46.376953125,4.21875 48.0541954040527,2.44629240036011 50.09765625,1.11328148841858 52.3901329040527,0.27832356095314 54.814453125,0 56.920166015625,0.20874348282814 58.9013671875,0.834961175918579 62.2412109375,3.0908203125 64.4970703125,6.43066453933716 65.123291015625,8.411865234375 65.33203125,10.517578125 65.33203125,12.626953125 65.009765625,15.05859375 64.130859375,17.3584003448486 62.7978515625,19.4384765625 61.11328125,21.2109375 61.11328125,21.943359375 63.720703125,23.5546875 65.712890625,25.810546875 66.9873046875,28.5498046875 67.44140625,31.58203125 66.9873046875,34.62890625 65.6982421875,37.353515625 63.7060546875,39.609375 61.11328125,41.25 61.11328125,50.537109375 60.46875,55.5322265625 58.5791015625,59.8681640625 55.458984375,63.3984375 51.123046875,65.9765625 47.75390625,67.0166015625 44.267578125,67.3828125 0.05859375,67.3828125 0.0292963981628418,65.5810546875 0,63.75 0.454101085662842,61.6845703125 1.58203220367432,59.23828125 3.017578125,56.9384765625 4.39453125,55.25390625 2.5341796875,52.2802734375 1.171875,49.04296875 0.336913704872131,45.6298828125 0.05859375,42.12890625 0.296630501747131,38.770751953125 1.0107421875,35.6103515625 2.1533203125,32.669677734375 3.6767578125,29.970703125 7.7490234375,25.341796875 12.919921875,21.8701171875 18.8818359375,19.7021484375 25.341796875,18.955078125 29.853515625,19.3359375 28.5205078125,17.197265625 27.802734375,15.1611328125 27.4951171875,13.0078125 27.421875,10.517578125 27.630615234375,8.411865234375 28.2568359375,6.43066453933716 30.52734375,3.0908203125 33.8818359375,0.834961175918579 35.863037109375,0.20874348282814 37.96875,0z" />
    </g>
  </g>
</svg>