<?xml version="1.0" encoding="utf-8"?>
<!DOCTYPE svg PUBLIC "-//W3C//DTD SVG 1.1//EN" "http://www.w3.org/Graphics/SVG/1.1/DTD/svg11.dtd">
<svg width="67.3828125000008" height="58.9453125" xmlns="http://www.w3.org/2000/svg" xmlns:xlink="http://www.w3.org/1999/xlink" xmlns:xml="http://www.w3.org/XML/1998/namespace" version="1.1">
  <g>
    <g>
      <path style="fill:#FF0000;fill-opacity:1" d="M40.01953125,39.990234375L38.37890625,40.3271484375 37.0458984375,41.2353515625 36.1376953125,42.568359375 35.80078125,44.208984375 50.537109375,44.208984375 52.177734375,43.8720703125 53.5107421875,42.9638671875 54.4189453125,41.630859375 54.755859375,39.990234375 40.01953125,39.990234375z M63.10546875,37.20703125L60.966796875,38.9208984375 58.388671875,39.84375 56.30859375,44.1796875 53.0712890625,47.548828125 48.9404296875,49.74609375 46.6223106384277,50.33935546875 44.208984375,50.537109375 16.845703125,50.537109375 15.3662109375,51.1376953125 14.736328125,52.6171875 15.3515625,54.111328125 16.845703125,54.7265625 44.208984375,54.7265625 47.8088340759277,54.3896484375 51.2255859375,53.37890625 54.3566856384277,51.778564453125 57.099609375,49.6728515625 59.410400390625,47.10205078125 61.2451171875,44.1064453125 62.508544921875,40.777587890625 63.10546875,37.20703125z M29.1796875,35.771484375L27.36328125,39.990234375 25.25390625,39.990234375 23.61328125,40.3271484375 22.2802734375,41.2353515625 21.38671875,42.568359375 21.064453125,44.208984375 31.58203125,44.208984375 35.80078125,35.771484375 29.1796875,35.771484375z M37.8515625,10.517578125L37.880859375,10.95703125 37.880859375,11.396484375 37.1630859375,15.17578125 35.185546875,18.2373046875 32.1826171875,20.2880859375 28.41796875,21.03515625 18.955078125,21.03515625 18.9697265625,21.6064453125 18.984375,22.236328125 18.9111328125,23.3349609375 18.6181640625,24.3017578125 17.9736328125,24.990234375 16.845703125,25.25390625 15.7177734375,24.990234375 15.0732421875,24.3017578125 14.7802734375,23.3349609375 14.70703125,22.236328125 14.7216796875,21.6064453125 14.736328125,21.03515625 15.3662109375,19.5556640625 16.845703125,18.92578125 18.2666015625,19.4970703125 18.955078125,20.859375 18.955078125,15.439453125 8.408203125,22.44140625 8.408203125,29.47265625 18.955078125,29.47265625 20.7019023895264,29.23095703125 22.3095703125,28.505859375 23.6535625457764,27.36328125 24.609375,25.869140625 28.18359375,27.421875 30.0439453125,28.9599609375 30.732421875,31.2890625 30.5419921875,32.51953125 30.087890625,33.69140625 36.85546875,33.69140625 37.91015625,31.58203125 42.099609375,31.58203125 42.099609375,33.69140625 42.4365234375,35.33203125 43.3447265625,36.6650390625 44.677734375,37.55859375 46.318359375,37.880859375 56.865234375,37.880859375 59.326171875,37.3828125 61.318359375,36.03515625 62.666015625,34.04296875 63.1640625,31.58203125 63.1640625,25.25390625 62.874755859375,22.2985858917236 62.0068359375,19.5263671875 60.63720703125,17.0141620635986 58.8427734375,14.8388671875 56.66748046875,13.04443359375 54.1552734375,11.6748046875 51.3830528259277,10.806884765625 48.427734375,10.517578125 37.8515625,10.517578125z M28.41796875,4.18945360183716L25.546875,4.77539110183716 23.203125,6.35742235183716 21.6357421875,8.701171875 21.064453125,11.572265625 21.064453125,18.92578125 28.41796875,18.92578125 31.2890625,18.3544921875 33.6474609375,16.787109375 35.2294921875,14.4580078125 35.80078125,11.572265625 35.21484375,8.701171875 33.6328125,6.35742235183716 31.2890625,4.77539110183716 28.41796875,4.18945360183716z M28.41796875,0L31.5673828125,0.454102039337158 34.4384765625,1.72851657867432 36.85546875,3.70605516433716 38.701171875,6.29882860183716 48.427734375,6.29882860183716 53.466796875,6.97265672683716 57.9931640625,8.8916015625 61.81640625,11.865234375 64.7900390625,15.6884765625 66.708984375,20.21484375 67.3828125,25.25390625 67.3828125,35.771484375 67.174072265625,38.90625 66.5478515625,41.923828125 64.2041015625,47.4609375 60.5859375,52.1484375 55.8984375,55.7666015625 50.361328125,58.1103515625 47.3437461853027,58.736572265625 44.208984375,58.9453125 16.845703125,58.9453125 14.384765625,58.447265625 12.3779296875,57.0849609375 11.015625,55.078125 10.517578125,52.6171875 11.015625,50.15625 12.3779296875,48.1640625 14.3994140625,46.81640625 16.845703125,46.318359375 16.845703125,44.208984375 17.4462890625,41.103515625 19.0869140625,38.5107421875 21.533203125,36.6650390625 24.580078125,35.80078125 26.513671875,31.2890625 25.927734375,31.025390625 22.6904296875,33.017578125 18.955078125,33.69140625 8.408203125,33.69140625 5.15625,33.017578125 2.490234375,31.1865234375 0.673828125,28.505859375 0,25.25390625 0,22.998046875 16.845703125,11.77734375 17.0654277801514,9.415283203125 17.724609375,7.19238328933716 20.1708984375,3.44238328933716 23.84765625,0.922852039337158 26.044921875,0.230713307857513 28.41796875,0z" />
    </g>
  </g>
</svg>