<?xml version="1.0" encoding="utf-8"?>
<!DOCTYPE svg PUBLIC "-//W3C//DTD SVG 1.1//EN" "http://www.w3.org/Graphics/SVG/1.1/DTD/svg11.dtd">
<svg width="19.248046875" height="46.669921875" xmlns="http://www.w3.org/2000/svg" xmlns:xlink="http://www.w3.org/1999/xlink" xmlns:xml="http://www.w3.org/XML/1998/namespace" version="1.1">
  <g>
    <g>
      <path style="fill:#FF0000;fill-opacity:1" d="M11.220703125,0L13.92333984375,0.22705078125 16.5234375,0.908203125 15.9375,6.181640625 18.33984375,11.953125 18.12744140625,13.4985361099243 17.783203125,15.556640625 18.8818340301514,17.2192401885986 19.248046875,18.80859375 18.9184551239014,20.1635761260986 17.9296875,21.416015625 18.3984375,23.0859375 17.7392559051514,25.400390625 15.76171875,26.89453125 15.849609375,27.978515625 15.618896484375,30.3497314453125 14.9267578125,32.04345703125 13.773193359375,33.0596923828125 12.158203125,33.3984375 10.67138671875,33.065185546875 9.609375,32.0654296875 8.97216796875,30.399169921875 8.759765625,28.06640625 8.84765625,26.3671875 8.173828125,27.51708984375 7.67578172683716,28.271484375 7.70507860183716,37.08984375 7.6318359375,39.6148681640625 7.412109375,41.71142578125 7.0458984375,43.3795166015625 6.53320360183716,44.619140625 4.88525438308716,46.1572265625 2.28515672683716,46.669921875 1.75781297683716,46.669921875 0,19.658203125 2.28515648841858,11.6821298599243 5.21484422683716,2.63671875 5.41259813308716,2.04345703125 5.77148485183716,0.849609375 8.203125,0.21240234375 11.220703125,0z" />
    </g>
  </g>
</svg>