<?xml version="1.0" encoding="utf-8"?>
<!DOCTYPE svg PUBLIC "-//W3C//DTD SVG 1.1//EN" "http://www.w3.org/Graphics/SVG/1.1/DTD/svg11.dtd">
<svg width="67.3828125000005" height="67.3828125" xmlns="http://www.w3.org/2000/svg" xmlns:xlink="http://www.w3.org/1999/xlink" xmlns:xml="http://www.w3.org/XML/1998/namespace" version="1.1">
  <g>
    <g>
      <path style="fill:#FF0000;fill-opacity:1" d="M33.69140625,50.771484375L34.1015625,52.79296875 35.126953125,54.521484375 36.6357421875,55.83984375 38.525390625,56.66015625 36.3720703125,58.3740234375 33.69140625,58.974609375 31.0107421875,58.3740234375 28.857421875,56.66015625 30.7470703125,55.83984375 32.2412109375,54.5068359375 33.251953125,52.7783203125 33.69140625,50.771484375z M27.36328125,44.23828125L40.01953125,44.23828125 35.185546875,49.921875 34.51171875,50.390625 33.69140625,50.537109375 32.87109375,50.390625 32.197265625,49.921875 27.36328125,44.23828125z M33.69140625,27.392578125L32.16796875,28.095703125 27.275390625,34.1748046875 22.44140625,40.3125 21.416015625,42.158203125 21.064453125,44.23828125 21.064453125,53.701171875 21.298828125,54.873046875 21.9287109375,55.869140625 22.880859375,56.572265625 24.052734375,56.8359375 25.6640625,59.443359375 27.919921875,61.435546875 30.6591796875,62.7099609375 33.69140625,63.1640625 36.6943359375,62.7099609375 39.4482421875,61.4208984375 41.71875,59.4140625 43.330078125,56.8359375 44.501953125,56.572265625 45.4541015625,55.869140625 46.083984375,54.873046875 46.318359375,53.701171875 46.318359375,43.828125 45.908203125,41.9677734375 44.94140625,40.3125 35.302734375,28.18359375 34.59228515625,27.5903339385986 33.69140625,27.392578125z M53.701171875,8.4375L55.751953125,8.84765625 57.4365234375,9.9609375 58.564453125,11.6308584213257 58.974609375,13.681640625 58.65234375,15.46875 57.802734375,16.9482421875 56.6162109375,18.2666015625 55.3125,19.51171875 47.87109375,12.0703125 49.130859375,10.78125 50.419921875,9.609375 51.884765625,8.759765625 53.701171875,8.4375z M13.681640625,8.4375L15.498046875,8.759765625 16.962890625,9.609375 18.2373046875,10.78125 19.51171875,12.0703125 12.0703125,19.51171875 10.7373046875,18.28125 9.5654296875,16.962890625 8.73046875,15.4541015625 8.408203125,13.681640625 8.818359375,11.6308584213257 9.9462890625,9.9609375 11.6162109375,8.84765625 13.681640625,8.4375z M13.681640625,4.21874952316284L10.0048828125,4.96581983566284 7.001953125,7.001953125 4.96581935882568,10.01953125 4.21875,13.7109375 4.599609375,16.40625 5.6396484375,18.6181640625 7.1630859375,20.5517578125 8.994140625,22.412109375 9.78515625,23.203125 5.59570217132568,37.91015625 10.517578125,37.91015625 10.517578125,40.01953125 10.810546875,42.4365234375 11.6455078125,44.7509765625 12.978515625,46.8017578125 14.794921875,48.427734375 18.955078125,51.2109375 18.955078125,44.23828125 19.4091796875,41.455078125 20.80078125,39.0234375 23.671875,35.390625 22.119140625,35.80078125 20.8740234375,35.5517578125 19.8779296875,34.8779296875 19.2041015625,33.8818359375 18.955078125,32.63671875 18.955078125,28.447265625 19.2041015625,27.216796875 19.8779296875,26.2060546875 20.8740234375,25.5322265625 22.119140625,25.283203125 23.3349609375,25.5322265625 24.345703125,26.220703125 25.0341796875,27.2314453125 25.283203125,28.447265625 25.3125,29.794921875 25.341796875,31.142578125 25.3125,32.3583984375 25.13671875,33.544921875 30.439453125,26.865234375 31.8896484375,25.7080078125 33.69140625,25.283203125 35.4931640625,25.7080078125 36.943359375,26.865234375 42.24609375,33.544921875 42.0849609375,32.490234375 42.0703125,31.40625 42.099609375,29.9267578125 42.12890625,28.447265625 42.3779296875,27.2314453125 43.0517578125,26.220703125 44.0478515625,25.5322265625 45.263671875,25.283203125 46.494140625,25.5322265625 47.5048828125,26.2060546875 48.1787109375,27.216796875 48.427734375,28.447265625 48.427734375,32.63671875 48.1787109375,33.8818359375 47.5048828125,34.8779296875 46.494140625,35.5517578125 45.263671875,35.80078125 43.7109375,35.390625 46.58203125,39.0234375 47.9736328125,41.455078125 48.427734375,44.23828125 48.427734375,51.2109375 52.587890625,48.427734375 54.3896484375,46.8017578125 55.7373046875,44.7509765625 56.572265625,42.4365234375 56.865234375,40.01953125 56.865234375,37.91015625 61.787109375,37.91015625 57.59765625,23.203125 58.388671875,22.412109375 60.2197265625,20.5517578125 61.7431640625,18.6181640625 62.783203125,16.40625 63.1640625,13.7109375 62.4169921875,10.01953125 60.380859375,7.001953125 57.36328125,4.96581983566284 53.671875,4.21874952316284 51.1962890625,4.541015625 49.1455078125,5.419921875 47.3291015625,6.7529296875 45.556640625,8.4375 21.826171875,8.4375 20.0244140625,6.72363328933716 18.2080078125,5.390625 16.1572265625,4.5263671875 13.681640625,4.21874952316284z M13.681640625,0L16.373291015625,0.260012656450272 18.9404296875,1.04003930091858 21.3024883270264,2.30346965789795 23.37890625,4.013671875 23.5546875,4.21874952316284 43.828125,4.21874952316284 44.00390625,4.013671875 46.0803184509277,2.30346965789795 48.4423828125,1.04003930091858 51.0095176696777,0.260012656450272 53.701171875,0 56.43310546875,0.270998895168304 59.00390625,1.08398389816284 61.336669921875,2.36206340789795 63.3544921875,4.0283203125 65.020751953125,6.04614543914795 66.298828125,8.37890625 67.11181640625,10.94970703125 67.3828125,13.681640625 67.0458984375,16.812744140625 66.03515625,19.5849609375 64.43115234375,22.086181640625 62.314453125,24.404296875 67.3828125,42.12890625 60.908203125,42.12890625 60.25634765625,44.91943359375 59.00390625,47.548828125 57.2607421875,49.88525390625 55.13671875,51.796875 52.8076171875,53.408203125 50.419921875,54.931640625 49.9035606384277,56.63818359375 48.9990234375,58.18359375 46.23046875,60.41015625 43.8427734375,63.310546875 40.8544921875,65.5078125 37.412109375,66.8994140625 33.69140625,67.3828125 29.970703125,66.8994140625 26.5283203125,65.5078125 23.525390625,63.310546875 21.15234375,60.41015625 18.3837890625,58.18359375 17.4792461395264,56.63818359375 16.962890625,54.931640625 13.1982421875,52.4560546875 10.0927734375,49.833984375 7.8076171875,46.5673828125 7.01293849945068,44.542236328125 6.47460842132568,42.12890625 0,42.12890625 5.068359375,24.404296875 2.95166015625,22.1044921875 1.34765625,19.599609375 0.336913704872131,16.81640625 0,13.681640625 0.270995736122131,10.94970703125 1.083984375,8.37890625 2.362060546875,6.04614543914795 4.0283203125,4.0283203125 6.04614162445068,2.36206340789795 8.37890625,1.08398389816284 10.94970703125,0.270998895168304 13.681640625,0z" />
    </g>
  </g>
</svg>