<?xml version="1.0" encoding="utf-8"?>
<!DOCTYPE svg PUBLIC "-//W3C//DTD SVG 1.1//EN" "http://www.w3.org/Graphics/SVG/1.1/DTD/svg11.dtd">
<svg width="63.1640625" height="67.3828125" xmlns="http://www.w3.org/2000/svg" xmlns:xlink="http://www.w3.org/1999/xlink" xmlns:xml="http://www.w3.org/XML/1998/namespace" version="1.1">
  <g>
    <g>
      <path style="fill:#FF0000;fill-opacity:1" d="M27.36328125,35.80078125L27.0556640625,38.349609375 26.2060546875,40.4736328125 24.8876953125,42.36328125 23.173828125,44.208984375 4.21875,63.1640625 10.517578125,63.1640625 14.18701171875,60.12451171875 18.28125,57.744140625 22.7050762176514,56.044921875 27.36328125,55.048828125 27.36328125,50.537109375 23.173828125,50.537109375 23.583984375,49.9365234375 24.6240234375,48.8232421875 26.015625,47.4609375 27.48046875,46.0693359375 28.7255859375,44.912109375 29.47265625,44.23828125 29.47265625,63.1640625 33.69140625,63.1640625 33.69140625,44.208984375 40.01953125,50.537109375 35.80078125,50.537109375 35.80078125,55.048828125 40.4589805603027,56.044921875 44.8828125,57.744140625 48.9770469665527,60.12451171875 52.646484375,63.1640625 58.9453125,63.1640625 40.01953125,44.208984375 39.0087890625,43.2568359375 38.056640625,42.216796875 36.38671875,39.19921875 35.80078125,35.80078125 27.36328125,35.80078125z M25.25390625,31.58203125L27.36328125,33.69140625 35.80078125,33.69140625 37.91015625,31.58203125 25.25390625,31.58203125z M31.58203125,2.10937476158142L30.17578125,7.70507860183716 30,8.349609375 29.765625,9.1259765625 29.560546875,9.8876953125 29.47265625,10.517578125 29.47265625,27.36328125 27.36328125,29.47265625 35.80078125,29.47265625 33.69140625,27.36328125 33.69140625,10.517578125 33.603515625,9.8876953125 33.3984375,9.1259765625 33.1640625,8.349609375 32.98828125,7.70507860183716 31.58203125,2.10937476158142z M29.47265625,0L33.69140625,0 37.91015625,10.01953125 37.91015625,25.283203125 40.01953125,27.36328125 39.990234375,30.9521484375 39.9609375,34.541015625 40.078125,36.474609375 40.5029296875,38.115234375 41.337890625,39.580078125 42.685546875,40.986328125 63.1640625,61.435546875 63.1640625,67.3828125 0,67.3828125 0,61.435546875 20.478515625,40.986328125 21.9287109375,39.43359375 22.763671875,37.880859375 23.14453125,36.2548828125 23.232421875,34.51171875 23.203125,33.10546875 23.173828125,31.58203125 23.173828125,27.36328125 25.25390625,25.283203125 25.25390625,10.01953125 29.47265625,0z" />
    </g>
  </g>
</svg>