<?xml version="1.0" encoding="utf-8"?>
<!DOCTYPE svg PUBLIC "-//W3C//DTD SVG 1.1//EN" "http://www.w3.org/Graphics/SVG/1.1/DTD/svg11.dtd">
<svg width="67.4121093750017" height="67.3828125" xmlns="http://www.w3.org/2000/svg" xmlns:xlink="http://www.w3.org/1999/xlink" xmlns:xml="http://www.w3.org/XML/1998/namespace" version="1.1">
  <g>
    <g>
      <path style="fill:#FF0000;fill-opacity:1" d="M47.373046875,50.537109375L48.603515625,50.7861328125 49.6142578125,51.4599609375 50.2880859375,52.470703125 50.537109375,53.701171875 50.2880859375,54.9169921875 49.599609375,55.927734375 48.5888671875,56.6162109375 47.373046875,56.865234375 46.1572265625,56.6162109375 45.146484375,55.927734375 44.4580078125,54.9169921875 44.208984375,53.701171875 44.4580078125,52.4853515625 45.146484375,51.474609375 46.1572265625,50.7861328125 47.373046875,50.537109375z M35.80078125,37.91015625L37.294921875,38.525390625 37.91015625,40.01953125 37.2802734375,41.4990234375 35.80078125,42.12890625 34.3212890625,41.4990234375 33.69140625,40.01953125 34.306640625,38.525390625 35.80078125,37.91015625z M26.30859375,35.80078125L27.5390625,36.0498046875 28.5498046875,36.7236328125 29.2236328125,37.734375 29.47265625,38.96484375 29.2236328125,40.1806640625 28.53515625,41.19140625 27.5244140625,41.8798828125 26.30859375,42.12890625 25.0927734375,41.8798828125 24.0966796875,41.19140625 23.4228515625,40.1806640625 23.173828125,38.96484375 23.4228515625,37.7490234375 24.08203125,36.73828125 25.0634765625,36.0498046875 26.30859375,35.80078125z M10.517578125,31.58203125L37.91015625,58.974609375 39.9755859375,60.64453125 42.4072265625,61.962890625 45.029296875,62.841796875 47.666015625,63.1640625 53.26171875,63.1640625 54.43359375,63.017578125 57.0263671875,62.197265625 59.208984375,60.87890625 60.9814453125,59.0625 62.34375,56.748046875 39.638671875,34.04296875 36.9140625,32.2265625 33.69140625,31.58203125 10.517578125,31.58203125z M29.47265625,27.48046875L27.48046875,29.47265625 29.47265625,29.47265625 29.47265625,27.48046875z M37.91015625,21.064453125L39.3896484375,21.6943359375 40.01953125,23.173828125 39.3896484375,24.6533203125 37.91015625,25.283203125 36.4306640625,24.6533203125 35.80078125,23.173828125 36.416015625,21.6796875 37.91015625,21.064453125z M29.47265625,12.626953125L27.53173828125,13.08837890625 26.220703125,14.1796875 25.4736328125,15.76171875 25.224609375,17.6953125 25.2392578125,18.6181640625 25.25390625,19.541015625 24.375,19.130859375 23.4375,18.9550762176514 21.5478515625,19.27734375 19.98046875,20.390625 19.21875,21.6943359375 18.955078125,23.173828125 19.1162109375,24.2578125 19.541015625,25.283203125 18.515625,25.25390625 17.490234375,25.224609375 15.6298828125,25.48828125 14.0771484375,26.279296875 13.0224609375,27.6123046875 12.626953125,29.47265625 18.984375,29.47265625 29.47265625,18.984375 29.47265625,12.626953125z M13.76953125,11.806640625L11.806640625,13.76953125 13.5205078125,14.1357421875 15,15.029296875 14.12109375,13.5498046875 13.76953125,11.806640625z M31.58203125,10.517578125L31.58203125,29.47265625 33.69140625,29.47265625 37.0458984375,30.0146484375 39.7265625,31.435546875 42.0703125,33.4716796875 44.4140625,35.859375 44.267578125,35.3173828125 44.208984375,34.74609375 44.4580078125,33.5302734375 45.146484375,32.51953125 46.1572265625,31.8310546875 47.373046875,31.58203125 48.603515625,31.8310546875 49.6142578125,32.5048828125 50.2880859375,33.515625 50.537109375,34.74609375 50.2880859375,35.9912109375 49.6142578125,36.9873046875 48.603515625,37.6611328125 47.373046875,37.91015625 46.81640625,37.8515625 46.2890625,37.705078125 63.017578125,54.43359375 63.1787109375,53.0126953125 63.22265625,51.5625 63.1201171875,47.724609375 62.5927734375,44.23828125 61.318359375,41.0009765625 58.9453125,37.91015625 31.58203125,10.517578125z M24.287109375,4.16015577316284L23.466796875,4.33593654632568 22.7490234375,4.81933498382568 22.2509765625,5.5078125 22.060546875,6.32812404632568 22.55859375,7.64648389816284 23.642578125,8.7451171875 24.7265625,9.75585842132568 25.224609375,10.8105459213257 24.9462890625,11.4990234375 24.287109375,11.8359355926514 23.1591796875,11.30859375 22.0458984375,10.1513671875 20.8447265625,8.994140625 19.482421875,8.466796875 18.1201171875,8.671875 16.962890625,9.27245998382568 16.1572265625,10.25390625 15.849609375,11.6015625 16.318359375,13.212890625 17.34375,14.384765625 18.369140625,15.439453125 18.837890625,16.728515625 18.2080078125,18.2080078125 16.728515625,18.837890625 15.41015625,18.3984375 14.384765625,17.4169921875 13.2568359375,16.435546875 11.572265625,15.99609375 10.352783203125,16.204833984375 9.3310546875,16.8310546875 8.638916015625,17.794189453125 8.408203125,19.013671875 8.9501953125,20.7421875 10.13671875,22.119140625 11.3232421875,23.232421875 11.865234375,24.140625 11.5576171875,24.931640625 10.78125,25.224609375 9.755859375,24.7412109375 8.73046875,23.6572265625 7.61718654632568,22.5732421875 6.328125,22.08984375 4.8193359375,22.734375 4.248046875,24.287109375 4.3798828125,25.0341796875 4.833984375,25.6640625 8.525390625,29.47265625 10.517578125,29.47265625 11.015625,27.01171875 12.3779296875,25.01953125 14.384765625,23.671875 16.845703125,23.173828125 17.34375,20.6982421875 18.69140625,18.69140625 20.6982421875,17.34375 23.173828125,16.845703125 23.671875,14.384765625 25.01953125,12.3779296875 27.01171875,11.015625 29.47265625,10.517578125 29.47265625,8.525390625 25.6640625,4.833984375 25.048828125,4.33593654632568 24.287109375,4.16015577316284z M24.19921875,0L26.6015625,0.483397483825684 28.65234375,1.84570264816284 61.93359375,34.921875 64.27734375,37.822265625 65.9912109375,41.1328125 67.03125,44.70703125 67.3828125,48.427734375 67.3974609375,49.98046875 67.412109375,51.533203125 67.3681640625,53.349609375 67.1923828125,55.01953125 66.826171875,56.6748046875 66.2109375,58.388671875 63.9404296875,62.1240234375 60.791015625,64.951171875 56.9677734375,66.7529296875 52.646484375,67.3828125 48.427734375,67.3828125 44.70703125,67.03125 41.1181640625,65.9912109375 37.8076171875,64.27734375 34.921875,61.93359375 1.845703125,28.65234375 0.4833984375,26.6015625 0,24.19921875 0.307616710662842,22.265625 1.171875,20.537109375 2.51953125,19.1455078125 4.248046875,18.22265625 5.1123046875,15.4541015625 7.001953125,13.271484375 9.755859375,9.75585842132568 13.271484375,7.00195217132568 15.46875,5.126953125 18.22265625,4.27734327316284 19.1162109375,2.51953077316284 20.5078125,1.17187452316284 22.2509765625,0.307616710662842 24.19921875,0z" />
    </g>
  </g>
</svg>