<?xml version="1.0" encoding="utf-8"?>
<!DOCTYPE svg PUBLIC "-//W3C//DTD SVG 1.1//EN" "http://www.w3.org/Graphics/SVG/1.1/DTD/svg11.dtd">
<svg width="66.2109375" height="48.45703125" xmlns="http://www.w3.org/2000/svg" xmlns:xlink="http://www.w3.org/1999/xlink" xmlns:xml="http://www.w3.org/XML/1998/namespace" version="1.1">
  <g>
    <g>
      <path style="fill:#FF0000;fill-opacity:1" d="M16.259765625,14.765625L6.416015625,44.23828125 50.537109375,44.23828125 60.3515625,14.765625 16.259765625,14.765625z M8.408203125,4.21875L7.2802734375,4.4970703125 6.650390625,5.2294921875 6.38671875,6.240234375 6.328125,7.353515625 6.328125,8.4375 4.21875,8.4375 4.21875,44.23828125 14.736328125,12.65625 50.537109375,12.65625 50.537109375,8.4375 18.955078125,8.4375 18.955078125,7.470703125 18.896484375,6.328125 18.6181640625,5.2734375 17.98828125,4.51171875 16.845703125,4.21875 8.408203125,4.21875z M8.408203125,0L16.845703125,0 18.779296875,0.3076171875 20.478515625,1.171875 21.8408203125,2.5048828125 22.79296875,4.21875 54.755859375,4.21875 54.755859375,10.546875 66.2109375,10.546875 53.583984375,48.45703125 0,48.45703125 0,4.21875 2.4609375,4.21875 3.4130859375,2.5341796875 4.7900390625,1.201171875 6.4892578125,0.322265625 8.408203125,0z" />
    </g>
  </g>
</svg>