<?xml version="1.0" encoding="utf-8"?>
<!DOCTYPE svg PUBLIC "-//W3C//DTD SVG 1.1//EN" "http://www.w3.org/Graphics/SVG/1.1/DTD/svg11.dtd">
<svg width="57.83203125" height="38.73046875" xmlns="http://www.w3.org/2000/svg" xmlns:xlink="http://www.w3.org/1999/xlink" xmlns:xml="http://www.w3.org/XML/1998/namespace" version="1.1">
  <g>
    <g>
      <path style="fill:#FF0000;fill-opacity:1" d="M53.4375,33.837890625L56.1328125,34.365234375 57.4072227478027,35.2001953125 57.83203125,36.298828125 57.4072227478027,37.37548828125 56.1328125,38.203125 53.4375,38.73046875 50.712890625,38.203125 49.4384727478027,37.37548828125 49.013671875,36.298828125 49.4384727478027,35.2001953125 50.712890625,34.365234375 53.4375,33.837890625z M26.162109375,0L27.9931621551514,0.3955078125 28.447265625,1.58203125 31.20849609375,0.3955078125 33.3984375,0 34.82666015625,0.49072265625 35.361328125,1.962890625 37.67578125,0.908203125 39.755859375,0.556640625 41.2646484375,1.20849609375 41.865234375,3.1640625 43.63037109375,2.5048828125 46.58203125,2.28515625 48.1640586853027,2.6513671875 48.69140625,3.75 48.1640625,5.419921875 50.537109375,4.951171875 51.8737754821777,5.18188619613647 52.9541015625,5.8740234375 53.6682090759277,6.93237447738647 53.90625,8.26171875 53.349609375,9.287109375 56.015625,9.7265625 57.1362266540527,10.5468769073486 57.509765625,11.71875 57.1728477478027,14.04052734375 56.162109375,15.791015625 56.9091758728027,16.70654296875 57.158203125,17.8125 56.9256553649902,19.1473388671875 56.2280235290527,20.28076171875 55.0653038024902,21.2127685546875 53.4375,21.943359375 53.701171875,23.14453125 53.4887657165527,24.23583984375 52.8515625,25.107421875 51.9287071228027,25.6494140625 50.859375,25.751953125 52.8369102478027,27.51708984375 53.49609375,29.82421875 52.9833946228027,31.875 51.4453125,33.515625 49.4750938415527,34.50439453125 47.255859375,34.833984375 45.03662109375,34.51171875 43.06640625,33.544921875 41.5283203125,31.904296875 41.015625,29.853515625 40.01953125,30.57861328125 38.73046875,30.8203125 36.9140625,30.5419921875 36.2109375,29.70703125 35.21484375,31.17919921875 33.45703125,31.669921875 31.50146484375,31.23779296875 29.853515625,29.94140625 29.0405254364014,31.19384765625 27.24609375,31.611328125 25.3564434051514,31.17919921875 24.2578125,29.8828125 22.7563457489014,31.00341796875 19.951171875,31.376953125 18.37646484375,30.703125 17.28515625,28.681640625 15.9814453125,29.5166015625 13.828125,29.794921875 12.6672353744507,29.578857421875 11.7919912338257,28.9306640625 11.2023916244507,27.850341796875 10.8984375,26.337890625 9.4921875,27.45849609375 7.91015625,27.83203125 6.943359375,27.568359375 6.09375,26.77734375 5.390625,24.7265625 5.712890625,23.26171875 4.423828125,23.37890625 2.86376953125,23.115234375 2.34375023841858,22.32421875 2.54150366783142,20.73486328125 3.134765625,18.955078125 1.88232421875,18.78662109375 0.878906726837158,18.1640625 0.219726622104645,17.17529296875 0,15.908203125 0.7470703125,13.87939453125 2.98828125,12.83203125 2.21923804283142,11.1547870635986 1.96289086341858,9.052734375 2.18261694908142,8.04199409484863 2.84179639816284,7.177734375 3.779296875,6.58447408676147 4.83398485183716,6.38671875 6.35742235183716,7.08984375 6.298828125,6.533203125 7.0458984375,4.306640625 7.899169921875,3.53759765625 8.96484375,3.28125 10.29052734375,3.5009765625 11.630859375,4.16015625 11.6015625,3.837890625 12.2021484375,2.34375 13.65234375,1.728515625 14.67041015625,2.10205078125 15.849609375,3.22265625 16.124267578125,2.0361328125 16.8310546875,1.11328125 17.852783203125,0.52001953125 19.072265625,0.322265625 21.50390625,0.732421875 22.470703125,1.962890625 23.9794902801514,0.49072265625 26.162109375,0z" />
    </g>
  </g>
</svg>