<?xml version="1.0" encoding="utf-8"?>
<!DOCTYPE svg PUBLIC "-//W3C//DTD SVG 1.1//EN" "http://www.w3.org/Graphics/SVG/1.1/DTD/svg11.dtd">
<svg width="67.3828125" height="67.3828125" xmlns="http://www.w3.org/2000/svg" xmlns:xlink="http://www.w3.org/1999/xlink" xmlns:xml="http://www.w3.org/XML/1998/namespace" version="1.1">
  <g>
    <g>
      <path style="fill:#FF0000;fill-opacity:1" d="M16.875,42.12890625L16.875,54.755859375 50.56640625,54.755859375 50.56640625,42.12890625 16.875,42.12890625z M23.173828125,4.21874952316284L23.3825664520264,6.32446575164795 24.0087890625,8.3056640625 26.279296875,11.66015625 29.6337890625,13.916015625 31.614990234375,14.53125 33.720703125,14.736328125 35.826416015625,14.527587890625 37.8076171875,13.9013671875 41.1474609375,11.6455078125 43.4033203125,8.3056640625 44.0295372009277,6.32446575164795 44.23828125,4.21874952316284 40.01953125,4.21874952316284 39.521484375,6.6796875 38.173828125,8.671875 36.181640625,10.01953125 33.720703125,10.517578125 31.259765625,10.01953125 29.2529296875,8.671875 27.890625,6.6796875 27.392578125,4.21874952316284 23.173828125,4.21874952316284z M16.875,4.21874952316284L12.65625,7.58789110183716 12.65625,25.283203125 16.875,25.283203125 16.875,29.47265625 50.56640625,29.47265625 50.56640625,25.283203125 54.755859375,25.283203125 54.755859375,7.58789110183716 50.56640625,4.21874952316284 50.56640625,16.845703125 16.875,16.845703125 16.875,4.21874952316284z M15.380859375,0L31.58203125,0 31.58203125,4.21874952316284 32.2119140625,5.6982421875 33.69140625,6.328125 35.1708984375,5.6982421875 35.80078125,4.21874952316284 35.80078125,0 52.001953125,0 67.3828125,11.19140625 61.2890625,29.47265625 54.755859375,29.47265625 54.755859375,67.3828125 12.626953125,67.3828125 12.626953125,29.47265625 6.09375,29.47265625 0,11.19140625 15.380859375,0z" />
    </g>
  </g>
</svg>