<?xml version="1.0" encoding="utf-8"?>
<!DOCTYPE svg PUBLIC "-//W3C//DTD SVG 1.1//EN" "http://www.w3.org/Graphics/SVG/1.1/DTD/svg11.dtd">
<svg width="67.3828125000006" height="52.6171875" xmlns="http://www.w3.org/2000/svg" xmlns:xlink="http://www.w3.org/1999/xlink" xmlns:xml="http://www.w3.org/XML/1998/namespace" version="1.1">
  <g>
    <g>
      <path style="fill:#FF0000;fill-opacity:1" d="M6.328125,37.880859375L6.328125,39.990234375 6.708984375,42.12890625 7.7490234375,43.8720703125 9.31640625,45.234375 11.279296875,46.171875 12.24609375,45.3955078125 12.626953125,44.208984375 12.626953125,37.880859375 6.328125,37.880859375z M44.208984375,35.771484375L45.849609375,36.1083984375 47.1826171875,37.0166015625 48.0908203125,38.349609375 48.427734375,39.990234375 48.0908203125,41.6455078125 47.1826171875,42.9931640625 45.849609375,43.88671875 44.208984375,44.208984375 42.568359375,43.8720703125 41.2353515625,42.9638671875 40.341796875,41.630859375 40.01953125,39.990234375 40.341796875,38.349609375 41.2353515625,37.0166015625 42.568359375,36.1083984375 44.208984375,35.771484375z M26.30859375,31.58203125L27.5244140625,31.8310546875 28.53515625,32.5048828125 29.2236328125,33.5009765625 29.47265625,34.716796875 29.2236328125,35.9619140625 28.5498046875,36.9580078125 27.5390625,37.6318359375 26.30859375,37.880859375 25.0634765625,37.6318359375 24.08203125,36.943359375 23.4228515625,35.9326171875 23.173828125,34.716796875 23.4228515625,33.5009765625 24.0966796875,32.5048828125 25.0927734375,31.8310546875 26.30859375,31.58203125z M52.646484375,29.47265625L54.140625,30.087890625 54.755859375,31.58203125 54.1259765625,33.0615234375 52.646484375,33.69140625 51.1669921875,33.0615234375 50.537109375,31.58203125 51.15234375,30.087890625 52.646484375,29.47265625z M10.224609375,29.47265625L9.5361328125,29.677734375 8.9501953125,30.1904296875 8.5546875,30.8642578125 8.408203125,31.58203125 8.408203125,33.69140625 12.978515625,33.69140625 13.447265625,31.552734375 14.0625,29.47265625 10.224609375,29.47265625z M59.853515625,25.341796875L61.3623046875,28.505859375 62.431640625,31.845703125 63.1640625,29.47265625 62.93701171875,28.04443359375 62.255859375,26.806640625 61.201171875,25.869140625 59.853515625,25.341796875z M8.408203125,25.25390625L6.767578125,25.5908203125 5.4345703125,26.4990234375 4.541015625,27.83203125 4.21875,29.47265625 4.7900390625,31.5673828125 6.328125,33.10546875 6.328125,32.138671875 6.3720703125,31.0107421875 6.650390625,29.94140625 7.4560546875,28.6083984375 8.5400390625,27.8173828125 9.8583984375,27.451171875 11.3671875,27.36328125 10.751953125,26.9970703125 10.517578125,26.30859375 10.7080078125,25.7373046875 11.1328125,25.25390625 8.408203125,25.25390625z M35.80078125,21.03515625L37.294921875,21.650390625 37.91015625,23.14453125 37.294921875,24.638671875 35.80078125,25.25390625 34.306640625,24.638671875 33.69140625,23.14453125 34.306640625,21.650390625 35.80078125,21.03515625z M37.91015625,14.736328125L33.856201171875,15.0915546417236 29.9560546875,16.1572265625 26.326904296875,17.8564472198486 23.0859375,20.1123046875 20.2734355926514,22.880859375 17.9296875,26.1181640625 16.171875,29.747314453125 15.1171875,33.69140625 14.7802734375,36.6650390625 14.70703125,39.638671875 14.7216796875,41.923828125 14.736328125,44.208984375 14.4287109375,45.7470703125 13.5791015625,47.080078125 12.3193359375,48.0322265625 10.78125,48.427734375 54.755859375,48.427734375 57.216796875,47.9296875 59.208984375,46.5673828125 60.556640625,44.560546875 61.0546875,42.099609375 61.0546875,37.880859375 60.849609375,34.74609375 60.234375,31.728515625 57.9052734375,26.2060546875 54.2724609375,21.5185546875 49.5849609375,17.8857421875 44.0625,15.556640625 41.0449180603027,14.9414081573486 37.91015625,14.736328125z M56.8359375,12.626953125L55.2319297790527,12.9345703125 53.876953125,13.857421875 51.26953125,16.46484375 52.734375,17.431640625 53.671875,16.845703125 54.43359375,17.138671875 56.54296875,19.248046875 56.8359375,20.009765625 56.748046875,20.4345703125 56.484375,20.771484375 57.0556640625,21.416015625 57.59765625,22.060546875 58.7548828125,20.947265625 59.8681640625,19.775390625 60.7177734375,18.4423828125 61.0546875,16.845703125 60.7177734375,15.205078125 59.8095703125,13.8720703125 58.4765625,12.9638671875 56.8359375,12.626953125z M19.98046875,12.626953125L20.7421875,12.919921875 22.8515625,15.029296875 23.173828125,15.791015625 22.8369140625,16.5380859375 22.08984375,16.845703125 21.298828125,16.4501953125 20.244140625,15.52734375 19.3212890625,14.47265625 18.92578125,13.681640625 19.248046875,12.94921875 19.98046875,12.626953125z M21.064453125,6.29882860183716L19.423828125,6.63574171066284 18.0908203125,7.54394578933716 17.1826171875,8.876953125 16.845703125,10.517578125 16.845703125,17.197265625 13.505859375,13.857421875 12.1435546875,12.94921875 10.517578125,12.626953125 8.876953125,12.9638671875 7.5439453125,13.8720703125 6.650390625,15.205078125 6.328125,16.845703125 6.6357421875,18.4423828125 7.55859375,19.8046875 9.7998046875,22.08984375 12.0703125,24.31640625 12.7880859375,23.583984375 13.681640625,23.173828125 14.4287109375,23.466796875 14.736328125,24.19921875 14.35546875,25.0048828125 13.4619140625,26.0302734375 12.421875,26.9384765625 11.630859375,27.36328125 14.912109375,27.36328125 15.8642578125,25.5322265625 16.93359375,23.7890625 16.8603515625,23.3056640625 16.845703125,22.822265625 16.845703125,22.67578125 16.8896484375,21.15234375 17.1826171875,19.951171875 17.9736328125,19.16015625 19.51171875,18.8671875 21.181640625,18.955078125 26.162109375,15.52734375 25.2392578125,15.0146484375 24.2578125,14.091796875 23.4814453125,13.0078125 23.173828125,12.01171875 23.349609375,11.2353515625 23.7890625,10.5322265625 24.375,9.8876953125 24.990234375,9.31640625 25.078125,9.228515625 23.5693359375,7.10449266433716 22.3937969207764,6.50024461746216 21.064453125,6.29882860183716z M33.69140625,4.18945360183716L32.05078125,4.52636766433716 30.7177734375,5.43457078933716 29.8095703125,6.76757860183716 29.47265625,8.408203125 29.47265625,10.25390625 30.1171875,11.044921875 30.3515625,12.01171875 29.912109375,13.271484375 28.974609375,14.23828125 30.2783203125,13.7841796875 31.611328125,13.41796875 32.0947265625,12.6708984375 32.98828125,11.7041015625 33.9697265625,10.869140625 34.74609375,10.517578125 35.478515625,10.8251953125 35.771484375,11.572265625 35.5517578125,12.2314453125 35.068359375,12.744140625 36.4306640625,12.685546875 37.91015625,12.626953125 40.400390625,12.744140625 42.861328125,13.095703125 43.8134765625,12.685546875 44.853515625,12.59765625 46.171875,12.626953125 47.314453125,12.8759765625 48.1201171875,13.564453125 48.427734375,14.912109375 49.51171875,15.4248046875 50.537109375,15.99609375 50.537109375,10.517578125 50.2001953125,8.876953125 49.2919921875,7.54394578933716 47.958984375,6.63574171066284 46.318359375,6.29882860183716 44.677734375,6.63574171066284 43.3447265625,7.54394578933716 42.4365234375,8.876953125 42.099609375,10.517578125 41.484375,11.9970703125 40.01953125,12.626953125 38.876953125,12.36328125 38.2470703125,11.66015625 37.96875,10.6640625 37.91015625,9.55078125 37.91015625,8.408203125 37.5732421875,6.76757860183716 36.6650390625,5.43457078933716 35.33203125,4.52636766433716 33.69140625,4.18945360183716z M33.69140625,0L35.841064453125,0.267334401607513 37.8369140625,1.06933641433716 39.561767578125,2.35473680496216 40.8984375,4.07226610183716 43.4326171875,2.60742282867432 46.318359375,2.08007907867432 49.16015625,2.57812547683716 51.591796875,3.96972703933716 53.4521484375,6.07910203933716 54.55078125,8.73046875 56.865234375,8.408203125 60.146484375,9.0673828125 62.8125,10.869140625 64.6142578125,13.5498046875 65.2734375,16.845703125 64.7607421875,19.7314453125 63.310546875,22.265625 65.028076171875,23.602294921875 66.3134765625,25.3271484375 67.115478515625,27.322998046875 67.3828125,29.47265625 66.8408203125,32.4462890625 65.2734375,35.009765625 65.2734375,42.099609375 65.064697265625,44.205322265625 64.4384765625,46.1865234375 62.1826171875,49.5263671875 58.8427734375,51.7822265625 56.861572265625,52.408447265625 54.755859375,52.6171875 10.517578125,52.6171875 8.411865234375,52.412109375 6.4306640625,51.796875 3.076171875,49.541015625 0.8203125,46.1865234375 0.205077767372131,44.205322265625 0,42.099609375 0,29.47265625 0.267333507537842,27.322998046875 1.06933498382568,25.3271484375 2.354736328125,23.602294921875 4.072265625,22.265625 2.6220703125,19.74609375 2.109375,16.845703125 2.7685546875,13.5498046875 4.5703125,10.869140625 7.236328125,9.0673828125 10.517578125,8.408203125 12.83203125,8.73046875 13.9306640625,6.07910203933716 15.791015625,3.96972703933716 18.22265625,2.57812547683716 21.064453125,2.08007907867432 23.96484375,2.60742282867432 26.484375,4.07226610183716 27.821044921875,2.35473680496216 29.5458984375,1.06933641433716 31.541748046875,0.267334401607513 33.69140625,0z" />
    </g>
  </g>
</svg>