<?xml version="1.0" encoding="utf-8"?>
<!DOCTYPE svg PUBLIC "-//W3C//DTD SVG 1.1//EN" "http://www.w3.org/Graphics/SVG/1.1/DTD/svg11.dtd">
<svg width="67.3828125000016" height="67.3828125" xmlns="http://www.w3.org/2000/svg" xmlns:xlink="http://www.w3.org/1999/xlink" xmlns:xml="http://www.w3.org/XML/1998/namespace" version="1.1">
  <g>
    <g>
      <path style="fill:#FF0000;fill-opacity:1" d="M27.36328125,56.865234375L27.36328125,63.1640625 40.01953125,63.1640625 40.01953125,56.865234375 27.36328125,56.865234375z M26.484375,31.69921875L25.9423828125,32.7685546875 25.25390625,33.75 25.25390625,40.13671875 25.927734375,43.388671875 27.7587890625,46.025390625 30.439453125,47.783203125 33.69140625,48.427734375 36.9287109375,47.783203125 39.609375,46.0107421875 41.42578125,43.3740234375 42.099609375,40.13671875 42.099609375,33.75 41.982421875,33.544921875 41.4111328125,32.63671875 40.8984375,31.69921875 38.646240234375,32.618408203125 37.0458984375,34.0869140625 36.090087890625,36.053466796875 35.771484375,38.466796875 35.80078125,39.9755859375 35.830078125,41.484375 35.7275390625,42.4072265625 35.4052734375,43.2861328125 34.8046875,43.9453125 33.896484375,44.208984375 32.666015625,43.9453125 31.93359375,43.2421875 31.58203125,42.2314453125 31.494140625,41.015625 31.5380859375,39.8583984375 31.58203125,38.701171875 31.2744140625,36.2841796875 30.3369140625,34.2041015625 28.7548828125,32.63671875 26.484375,31.69921875z M33.69140625,29.47265625L32.900390625,29.6630859375 31.962890625,30.1318359375 31.083984375,30.7177734375 30.46875,31.2890625 32.75390625,34.0869140625 33.4130859375,35.767822265625 33.69140625,37.55859375 33.944091796875,35.760498046875 34.5849609375,34.0576171875 36.9140625,31.2890625 36.2548828125,30.7177734375 35.419921875,30.1318359375 34.5263671875,29.6630859375 33.69140625,29.47265625z M42.099609375,18.955078125L42.099609375,27.509765625 42.7734375,30.76171875 44.6044921875,33.3984375 47.28515625,35.15625 50.537109375,35.80078125 53.7744140625,35.15625 56.455078125,33.3837890625 58.271484375,30.7470703125 58.9453125,27.509765625 58.9453125,18.955078125 56.484375,19.453125 54.4921875,20.8154296875 53.14453125,22.8369140625 52.646484375,25.283203125 52.646484375,29.6484375 52.44140625,30.439453125 51.9287109375,31.0400390625 51.2548828125,31.435546875 50.537109375,31.58203125 49.4677734375,31.3330078125 48.80859375,30.6591796875 48.4716796875,29.70703125 48.369140625,28.623046875 48.4130859375,27.3486328125 48.45703125,26.07421875 48.046875,23.3203125 46.8310546875,21.064453125 44.8388671875,19.5263671875 42.099609375,18.955078125z M8.408203125,18.955078125L8.408203125,27.509765625 9.08203125,30.7470703125 10.9130859375,33.3837890625 13.59375,35.15625 16.845703125,35.80078125 20.0830078125,35.15625 22.763671875,33.3837890625 24.580078125,30.7470703125 25.25390625,27.509765625 25.25390625,18.955078125 23.3129863739014,19.248046875 21.591796875,20.126953125 20.185546875,21.4892578125 19.3798828125,22.998046875 19.0283203125,24.638671875 18.955078125,26.396484375 18.9697265625,27.4658203125 18.984375,28.564453125 18.896484375,29.6630859375 18.57421875,30.6298828125 17.9296875,31.318359375 16.845703125,31.58203125 16.0986328125,31.435546875 15.439453125,31.0400390625 14.9560546875,30.4541015625 14.765625,29.70703125 14.765625,25.283203125 14.267578125,22.8076171875 12.9052734375,20.80078125 10.8837890625,19.453125 8.408203125,18.955078125z M50.537109375,16.845703125L49.7314453125,17.0361328125 48.837890625,17.5048828125 47.98828125,18.0908203125 47.314453125,18.6328125 49.6435546875,21.533203125 50.2844200134277,23.26171875 50.537109375,25.107421875 50.7897911071777,23.243408203125 51.4306640625,21.5185546875 53.759765625,18.6328125 53.1005859375,18.0908203125 52.2509765625,17.5048828125 51.3427734375,17.0361328125 50.537109375,16.845703125z M16.845703125,16.845703125L16.0400390625,17.0361328125 15.146484375,17.5048828125 14.296875,18.0908203125 13.623046875,18.6328125 15.9521484375,21.533203125 16.5930156707764,23.26171875 16.845703125,25.107421875 17.0983867645264,23.243408203125 17.7392578125,21.5185546875 20.068359375,18.6328125 19.39453125,18.0908203125 18.544921875,17.5048828125 17.6513671875,17.0361328125 16.845703125,16.845703125z M25.25390625,6.328125L25.25390625,14.8828125 25.517578125,16.845703125 27.36328125,16.845703125 27.36328125,20.361328125 30.2197265625,22.44140625 33.69140625,23.173828125 37.1630859375,22.44140625 40.01953125,20.361328125 40.01953125,16.845703125 41.865234375,16.845703125 42.0556640625,15.8642578125 42.099609375,14.8828125 42.099609375,6.328125 41.2646484375,6.38671875 40.6201171875,6.5478515625 39.990234375,6.767578125 39.228515625,7.001953125 38.84765625,7.2509765625 38.4375,7.5 37.3095703125,8.525390625 36.474609375,9.755859375 35.9765625,11.162109375 35.80078125,12.626953125 35.80078125,16.81640625 35.185546875,18.3251953125 33.69140625,18.955078125 32.548828125,18.6767578125 31.8896484375,17.9443359375 31.5966796875,16.93359375 31.5234375,15.791015625 31.552734375,14.3408203125 31.58203125,12.890625 31.4794921875,11.7626953125 31.171875,10.458984375 30.6591796875,9.2578125 29.94140625,8.408203125 29.033203125,7.5146484375 27.83203125,6.85546827316284 26.5283203125,6.45996141433716 25.25390625,6.328125z M33.69140625,4.21874952316284L32.841796875,4.39453125 31.962890625,4.84863233566284 31.142578125,5.4345703125 30.46875,6.005859375 32.8271484375,8.96484375 33.475341796875,10.74462890625 33.69140625,12.626953125 33.907470703125,10.74462890625 34.5556640625,8.96484375 36.9140625,6.005859375 36.708984375,5.85937452316284 36.0205078125,5.33203172683716 35.244140625,4.7900390625 34.4384765625,4.3798828125 33.69140625,4.21874952316284z M33.75,0L35.2587890625,0.205077648162842 36.708984375,0.76171875 38.0712890625,1.56738328933716 39.31640625,2.49023413658142 41.279296875,2.1533203125 43.30078125,2.08007764816284 44.8388671875,2.09472608566284 46.376953125,2.10937476158142 46.376953125,9.08203125 55.13671875,6.328125 55.810546875,6.328125 57.8466796875,6.73828077316284 59.5166015625,7.86621046066284 60.64453125,9.5361328125 61.0546875,11.572265625 60.791015625,13.2421875 60,14.736328125 63.22265625,14.736328125 63.22265625,23.291015625 64.892578125,23.9501953125 66.2109375,25.1220703125 67.0751953125,26.66015625 67.3828125,28.41796875 67.0458984375,30.322265625 66.03515625,31.93359375 44.23828125,54.755859375 44.23828125,67.3828125 23.232421875,67.3828125 23.232421875,54.755859375 1.46484375,32.05078125 0.366210579872131,30.3662128448486 0,28.41796875 0.322265148162842,26.6162109375 1.2158203125,25.0634765625 2.5634765625,23.90625 4.27734375,23.26171875 4.27734375,14.736328125 7.3828125,14.736328125 6.6064453125,13.2421875 6.328125,11.572265625 6.73828125,9.5361328125 7.8662109375,7.86621046066284 9.5361328125,6.73828077316284 11.572265625,6.328125 12.216796875,6.328125 21.123046875,9.111328125 21.123046875,2.10937476158142 22.646484375,2.09472608566284 24.169921875,2.08007764816284 26.19140625,2.1533203125 28.154296875,2.49023413658142 29.3701171875,1.58203077316284 30.76171875,0.791015863418579 32.255859375,0.219726324081421 33.75,0z" />
    </g>
  </g>
</svg>