<?xml version="1.0" encoding="utf-8"?>
<!DOCTYPE svg PUBLIC "-//W3C//DTD SVG 1.1//EN" "http://www.w3.org/Graphics/SVG/1.1/DTD/svg11.dtd">
<svg width="67.3828125" height="67.3828125" xmlns="http://www.w3.org/2000/svg" xmlns:xlink="http://www.w3.org/1999/xlink" xmlns:xml="http://www.w3.org/XML/1998/namespace" version="1.1">
  <g>
    <g>
      <path style="fill:#FF0000;fill-opacity:1" d="M14.736328125,33.69140625L18.955078125,33.69140625 19.2443828582764,36.646728515625 20.1123046875,39.4189453125 21.4819316864014,41.93115234375 23.2763671875,44.1064453125 25.45166015625,45.90087890625 27.9638671875,47.2705078125 30.736083984375,48.138427734375 33.69140625,48.427734375 36.9580078125,48.0615234375 40.01953125,47.0068359375 42.7734375,45.3076171875 45.1171875,43.0078125 40.01953125,37.91015625 52.646484375,37.91015625 52.646484375,50.537109375 48.10546875,45.99609375 45.1098594665527,48.8232421875 41.630859375,50.91796875 37.78564453125,52.21435546875 33.69140625,52.646484375 28.65234375,51.97265625 24.1259765625,50.0537109375 20.302734375,47.080078125 17.3291015625,43.2568359375 15.41015625,38.73046875 14.736328125,33.69140625z M33.69140625,14.736328125L38.73046875,15.41015625 43.2568359375,17.3291015625 47.080078125,20.302734375 50.0537109375,24.1259765625 51.97265625,28.65234375 52.646484375,33.69140625 48.427734375,33.69140625 48.1384239196777,30.7360858917236 47.2705078125,27.9638671875 45.9008750915527,25.4516620635986 44.1064453125,23.2763671875 41.9311485290527,21.48193359375 39.4189453125,20.1123046875 36.646728515625,19.244384765625 33.69140625,18.955078125 30.4248046875,19.3212890625 27.36328125,20.3759765625 24.609375,22.0751953125 22.265625,24.375 27.36328125,29.47265625 14.736328125,29.47265625 14.736328125,16.845703125 19.27734375,21.38671875 22.2729473114014,18.5595703125 25.751953125,16.46484375 29.59716796875,15.16845703125 33.69140625,14.736328125z M4.21875,4.21874952316284L4.21875,63.1640625 63.1640625,63.1640625 63.1640625,4.21874952316284 4.21875,4.21874952316284z M0,0L67.3828125,0 67.3828125,67.3828125 0,67.3828125 0,0z" />
    </g>
  </g>
</svg>