<?xml version="1.0" encoding="utf-8"?>
<!DOCTYPE svg PUBLIC "-//W3C//DTD SVG 1.1//EN" "http://www.w3.org/Graphics/SVG/1.1/DTD/svg11.dtd">
<svg width="19.248046875" height="46.669921875" xmlns="http://www.w3.org/2000/svg" xmlns:xlink="http://www.w3.org/1999/xlink" xmlns:xml="http://www.w3.org/XML/1998/namespace" version="1.1">
  <g>
    <g>
      <path style="fill:#FF0000;fill-opacity:1" d="M2.81250047683716,26.103515625L1.77978515625,26.77001953125 1.435546875,27.83203125 1.55273485183716,28.564453125 1.87500047683716,29.267578125 2.81250047683716,26.103515625z M3.69140672683716,21.50390625L2.63671922683716,22.39013671875 2.28515672683716,23.701171875 3.01757860183716,25.01953125 3.80859422683716,22.08984375 3.69140672683716,21.50390625z M16.142578125,1.58203125L14.75830078125,2.1734619140625 13.76953125,3.42041015625 13.17626953125,5.3228759765625 12.978515625,7.880859375 13.0078125,9.43359375 13.0078125,19.013671875 11.77734375,20.8813495635986 10.60546875,23.3203125 12.216796875,29.794921875 10.810546875,30.41015625 9.7705078125,25.81787109375 8.466796875,22.001953125 8.8623046875,20.33203125 8.994140625,18.69140625 8.86962890625,17.0214862823486 8.49609375,15.8203125 7.87353515625,15.0952167510986 7.00195360183716,14.853515625 6.02783250808716,15.0878925323486 5.33203172683716,15.791015625 4.91455125808716,16.9555683135986 4.77539110183716,18.57421875 5.36132860183716,21.884765625 3.80127000808716,27.7001953125 2.40234422683716,34.248046875 3.33252000808716,37.28759765625 4.83398485183716,40.25390625 4.27734422683716,44.677734375 8.3203125,45.146484375 10.400390625,45.029296875 12.392578125,44.677734375 15.24169921875,35.58837890625 17.75390625,26.89453125 16.142578125,1.58203125z M16.962890625,0L17.490234375,0 19.248046875,27.01171875 16.962890625,34.98779296875 14.033203125,44.033203125 13.83544921875,44.62646484375 13.4765625,45.8203125 11.0595703125,46.46484375 8.02734375,46.669921875 5.32470750808716,46.44287109375 2.72460985183716,45.76171875 3.31054735183716,40.48828125 0.908203601837158,34.716796875 1.12060558795929,33.17138671875 1.46484422683716,31.11328125 0.366211414337158,29.4580078125 0,27.861328125 0.329590260982513,26.50634765625 1.31835985183716,25.25390625 0.849610328674316,23.583984375 1.50878930091858,21.2695331573486 3.48632860183716,19.775390625 3.39843797683716,18.69140625 3.62915086746216,16.3293476104736 4.32128953933716,14.6337890625 5.47485399246216,13.6120615005493 7.08984422683716,13.271484375 8.57666015625,13.6047372817993 9.638671875,14.6044921875 10.27587890625,16.2707538604736 10.48828125,18.603515625 10.4736328125,19.3505859375 10.400390625,20.302734375 11.07421875,19.1528339385986 11.572265625,18.3984375 11.54296875,9.580078125 11.6162109375,7.0550537109375 11.8359375,4.95849609375 12.2021484375,3.2904052734375 12.71484375,2.05078125 14.36279296875,0.5126953125 16.962890625,0z" />
    </g>
  </g>
</svg>