<?xml version="1.0" encoding="utf-8"?>
<!DOCTYPE svg PUBLIC "-//W3C//DTD SVG 1.1//EN" "http://www.w3.org/Graphics/SVG/1.1/DTD/svg11.dtd">
<svg width="58.9453125" height="67.3828125" xmlns="http://www.w3.org/2000/svg" xmlns:xlink="http://www.w3.org/1999/xlink" xmlns:xml="http://www.w3.org/XML/1998/namespace" version="1.1">
  <g>
    <g>
      <path style="fill:#FF0000;fill-opacity:1" d="M23.14453125,50.478515625L24.2138671875,50.8154296875 25.6494140625,51.5478515625 27.4072265625,52.2802734375 29.47265625,52.6171875 31.5380859375,52.2802734375 33.33984375,51.5478515625 34.775390625,50.8154296875 35.80078125,50.478515625 37.294921875,51.123046875 37.91015625,52.6171875 37.44140625,53.90625 36.2109375,54.9609375 34.51171875,55.7958984375 32.63671875,56.396484375 30.8642578125,56.748046875 29.47265625,56.865234375 28.0810546875,56.748046875 26.30859375,56.396484375 24.43359375,55.7958984375 22.7490234375,54.9609375 21.533203125,53.8916015625 21.064453125,52.587890625 21.6796875,51.1083984375 23.14453125,50.478515625z M41.07421875,29.47265625L39.8583984375,29.7216796875 38.84765625,30.41015625 38.1591796875,31.4208984375 37.91015625,32.63671875 38.1591796875,33.8818359375 38.8330078125,34.8779296875 39.8291015625,35.5517578125 41.07421875,35.80078125 42.3046875,35.5517578125 43.30078125,34.86328125 43.9599609375,33.8525390625 44.208984375,32.63671875 43.9599609375,31.4208984375 43.2861328125,30.41015625 42.2900390625,29.7216796875 41.07421875,29.47265625z M13.681640625,29.47265625L12.4658203125,29.7216796875 11.455078125,30.41015625 10.7666015625,31.4208984375 10.517578125,32.63671875 10.7666015625,33.8525390625 11.455078125,34.86328125 12.4658203125,35.5517578125 13.681640625,35.80078125 14.912109375,35.5517578125 15.9228515625,34.8779296875 16.5966796875,33.8818359375 16.845703125,32.63671875 16.5966796875,31.4208984375 15.908203125,30.41015625 14.8974609375,29.7216796875 13.681640625,29.47265625z M43.154296875,27.36328125L48.427734375,27.36328125 49.9072265625,27.9931640625 50.537109375,29.47265625 50.537109375,34.74609375 50.3100547790527,37.0751953125 49.62890625,39.2578125 47.1533203125,42.9345703125 43.4765625,45.41015625 41.2939414978027,46.09130859375 38.96484375,46.318359375 33.69140625,46.318359375 32.197265625,45.703125 31.58203125,44.208984375 31.58203125,38.96484375 31.80908203125,36.6357421875 32.490234375,34.453125 34.9658203125,30.76171875 38.642578125,28.271484375 40.8251914978027,27.5903339385986 43.154296875,27.36328125z M10.517578125,27.36328125L15.791015625,27.36328125 18.1201152801514,27.5903339385986 20.302734375,28.271484375 23.9794921875,30.76171875 26.455078125,34.453125 27.13623046875,36.6357421875 27.36328125,38.96484375 27.36328125,44.208984375 26.748046875,45.703125 25.25390625,46.318359375 20.009765625,46.318359375 17.6806621551514,46.09130859375 15.498046875,45.41015625 11.806640625,42.9345703125 9.31640625,39.2578125 8.63525390625,37.0751953125 8.408203125,34.74609375 8.408203125,29.47265625 9.0380859375,27.9931640625 10.517578125,27.36328125z M29.47265625,4.21874952316284L26.05224609375,4.44580364227295 22.763671875,5.126953125 16.728515625,7.67578125 11.6162109375,11.6162109375 7.67578172683716,16.728515625 5.12695360183716,22.763671875 4.44580125808716,26.0522480010986 4.21875047683716,29.47265625 4.62890672683716,34.061279296875 5.85937547683716,38.5107421875 7.88818359375,42.659912109375 10.693359375,46.34765625 24.31640625,61.0546875 26.6748046875,62.6220703125 29.47265625,63.1640625 32.255859375,62.6220703125 34.658203125,61.0546875 36.9873046875,58.6669921875 39.19921875,56.162109375 43.76953125,51.2841796875 48.251953125,46.34765625 51.0607872009277,42.57568359375 53.1005859375,38.525390625 54.3420372009277,34.16748046875 54.755859375,29.47265625 54.5288047790527,26.0522480010986 53.84765625,22.763671875 51.298828125,16.728515625 47.34375,11.6162109375 42.216796875,7.67578125 36.181640625,5.126953125 32.89306640625,4.44580364227295 29.47265625,4.21874952316284z M29.47265625,0L33.468017578125,0.263674795627594 37.3095703125,1.05468797683716 40.9497032165527,2.32544231414795 44.3408203125,4.0283203125 47.4645957946777,6.14136028289795 50.302734375,8.642578125 52.8039512634277,11.480712890625 54.9169921875,14.6044921875 56.619873046875,17.99560546875 57.890625,21.6357421875 58.681640625,25.4772968292236 58.9453125,29.47265625 58.447265625,34.8486328125 56.9970703125,40.048828125 54.638671875,44.8828125 51.38671875,49.189453125 37.734375,63.92578125 35.99853515625,65.419921875 33.955078125,66.50390625 31.73583984375,67.1630859375 29.47265625,67.3828125 27.158203125,67.174072265625 25.078125,66.5478515625 23.1665019989014,65.504150390625 21.357421875,64.04296875 18.6767578125,61.2451171875 16.083984375,58.330078125 11.8359375,53.8037109375 7.61718797683716,49.21875 4.32128953933716,44.820556640625 1.93359422683716,40.0634765625 0.483398675918579,34.947509765625 0,29.47265625 0.263671934604645,25.4772968292236 1.05468797683716,21.6357421875 2.32543992996216,17.99560546875 4.02832078933716,14.6044921875 6.14135694503784,11.480712890625 8.642578125,8.642578125 11.480712890625,6.14136028289795 14.6044921875,4.0283203125 17.9956035614014,2.32544231414795 21.6357421875,1.05468797683716 25.477294921875,0.263674795627594 29.47265625,0z" />
    </g>
  </g>
</svg>