<?xml version="1.0" encoding="utf-8"?>
<!DOCTYPE svg PUBLIC "-//W3C//DTD SVG 1.1//EN" "http://www.w3.org/Graphics/SVG/1.1/DTD/svg11.dtd">
<svg width="67.3828125" height="67.3828125" xmlns="http://www.w3.org/2000/svg" xmlns:xlink="http://www.w3.org/1999/xlink" xmlns:xml="http://www.w3.org/XML/1998/namespace" version="1.1">
  <g>
    <g>
      <path style="fill:#FF0000;fill-opacity:1" d="M28.88671875,40.60546875L21.064453125,48.427734375 33.69140625,61.0546875 35.6982421875,59.2236328125 37.529296875,57.24609375 46.318359375,48.427734375 38.49609375,40.60546875 36.2255859375,41.7333984375 33.69140625,42.12890625 31.1572265625,41.7333984375 28.88671875,40.60546875z M33.69140625,29.47265625L32.05078125,29.8095703125 30.7177734375,30.7177734375 29.8095703125,32.05078125 29.47265625,33.69140625 29.8095703125,35.33203125 30.7177734375,36.6650390625 32.05078125,37.5732421875 33.69140625,37.91015625 35.33203125,37.5732421875 36.6650390625,36.6650390625 37.5732421875,35.33203125 37.91015625,33.69140625 37.5732421875,32.05078125 36.6650390625,30.7177734375 35.33203125,29.8095703125 33.69140625,29.47265625z M48.427734375,21.064453125L40.60546875,28.88671875 41.71875,31.171875 42.099609375,33.69140625 41.71875,36.2109375 40.60546875,38.49609375 48.427734375,46.318359375 50.4345703125,44.4873046875 52.265625,42.509765625 61.0546875,33.69140625 48.427734375,21.064453125z M18.955078125,21.064453125L6.328125,33.69140625 18.955078125,46.318359375 26.806640625,38.49609375 25.64208984375,36.2109375 25.25390625,33.69140625 25.6494140625,31.1572265625 26.77734375,28.88671875 18.955078125,21.064453125z M33.69140625,6.328125L21.064453125,18.955078125 28.88671875,26.77734375 31.171875,25.6640625 33.69140625,25.283203125 36.240234375,25.6640625 38.525390625,26.806640625 46.318359375,18.955078125 33.69140625,6.328125z M33.69140625,0L67.3828125,33.69140625 33.69140625,67.3828125 0,33.69140625 33.69140625,0z" />
    </g>
  </g>
</svg>