<?xml version="1.0" encoding="utf-8"?>
<!DOCTYPE svg PUBLIC "-//W3C//DTD SVG 1.1//EN" "http://www.w3.org/Graphics/SVG/1.1/DTD/svg11.dtd">
<svg width="67.3828125000019" height="67.3828125" xmlns="http://www.w3.org/2000/svg" xmlns:xlink="http://www.w3.org/1999/xlink" xmlns:xml="http://www.w3.org/XML/1998/namespace" version="1.1">
  <g>
    <g>
      <path style="fill:#FF0000;fill-opacity:1" d="M16.845703125,50.537109375L16.845703125,53.701171875 17.0947265625,54.9169921875 17.783203125,55.927734375 18.7939453125,56.6162109375 20.009765625,56.865234375 21.1962890625,56.630859375 22.20703125,55.9716796875 22.91015625,55.0048828125 23.173828125,53.84765625 23.173828125,50.537109375 16.845703125,50.537109375z M33.69140625,40.01953125L33.69140625,48.427734375 44.208984375,48.427734375 44.208984375,46.318359375 43.9453125,45.17578125 43.2421875,44.5458984375 42.2607421875,44.267578125 41.162109375,44.208984375 40.01953125,44.208984375 40.01953125,40.01953125 33.69140625,40.01953125z M8.408203125,31.58203125L8.408203125,35.80078125 9.0380859375,37.2802734375 10.517578125,37.91015625 11.279296875,37.763671875 11.953125,37.353515625 12.4365234375,36.73828125 12.626953125,35.9765625 12.626953125,31.58203125 8.408203125,31.58203125z M56.865234375,29.47265625L54.404296875,29.970703125 52.3974609375,31.3330078125 51.03515625,33.33984375 50.537109375,35.80078125 48.427734375,35.80078125 46.787109375,36.1376953125 45.4541015625,37.0458984375 44.5458984375,38.37890625 44.208984375,40.01953125 44.23828125,40.25390625 45.8056640625,39.697265625 48.046875,38.9208984375 50.21484375,38.2177734375 51.591796875,37.91015625 52.8076171875,38.1591796875 53.818359375,38.84765625 54.5068359375,39.8583984375 54.755859375,41.07421875 54.755859375,45.263671875 54.052734375,47.2412109375 52.236328125,48.369140625 43.212890625,51.416015625 34.189453125,54.404296875 27.3193359375,56.7333984375 20.44921875,58.974609375 42.099609375,58.974609375 44.560546875,58.4765625 46.5673828125,57.1142578125 47.9296875,55.107421875 48.427734375,52.646484375 56.865234375,52.646484375 59.326171875,52.1484375 61.318359375,50.7861328125 62.666015625,48.779296875 63.1640625,46.318359375 63.1640625,35.80078125 62.666015625,33.33984375 61.318359375,31.3330078125 59.326171875,29.970703125 56.865234375,29.47265625z M29.47265625,29.47265625L23.1591796875,32.63671875 16.845703125,35.80078125 20.56640625,41.279296875 18.779296875,44.8388671875 17.021484375,48.427734375 24.169921875,48.427734375 24.9609375,46.875 26.0302734375,44.7216796875 26.9677734375,42.5830078125 27.36328125,41.07421875 26.8798828125,39.3896484375 25.8984375,37.91015625 40.01953125,37.91015625 39.9755859375,36.7236328125 39.755859375,35.654296875 39.228515625,34.74609375 38.26171875,34.013671875 29.47265625,29.47265625z M48.427734375,25.283203125L46.9482421875,25.8984375 46.318359375,27.36328125 46.93359375,28.857421875 48.427734375,29.47265625 49.921875,28.857421875 50.537109375,27.36328125 49.9072265625,25.8984375 48.427734375,25.283203125z M35.80078125,25.01953125L35.80078125,29.736328125 36.7236328125,30.2197265625 37.9248046875,30.8349609375 39.140625,31.3623046875 40.048828125,31.58203125 41.4990234375,30.9814453125 42.12890625,29.53125 41.9091796875,28.5498046875 41.337890625,27.8759765625 40.546875,27.392578125 39.66796875,26.953125 35.80078125,25.01953125z M61.0546875,23.173828125L59.58984375,23.8037109375 58.974609375,25.283203125 59.58984375,26.748046875 61.0546875,27.36328125 62.5341796875,26.748046875 63.1640625,25.283203125 62.548828125,23.7890625 61.0546875,23.173828125z M54.755859375,18.955078125L53.26171875,19.5703125 52.646484375,21.064453125 53.26171875,22.55859375 54.755859375,23.173828125 56.2353515625,22.5439453125 56.865234375,21.064453125 56.2353515625,19.5849609375 54.755859375,18.955078125z M16.083984375,14.619140625L9.052734375,21.6796875 8.408203125,23.173828125 8.408203125,29.47265625 12.626953125,29.47265625 12.626953125,26.1328125 16.845703125,21.943359375 16.845703125,33.45703125 23.1591796875,30.29296875 29.47265625,27.12890625 29.47265625,25.517578125 29.82421875,26.4990234375 30.64453125,27.158203125 33.69140625,28.681640625 33.69140625,17.724609375 31.23046875,21.474609375 29.886474609375,23.067626953125 28.1982421875,24.2724609375 26.275634765625,25.0305194854736 24.228515625,25.283203125 20.9619140625,24.609375 18.28125,22.79296875 16.46484375,20.1123046875 15.791015625,16.845703125 16.083984375,14.619140625z M24.228515625,4.21874952316284L22.44140625,4.541015625 20.888671875,5.419921875 19.7021484375,6.7529296875 19.04296875,8.4375 16.845703125,8.4375 16.845703125,10.517578125 17.4609375,12.01171875 18.955078125,12.626953125 23.173828125,12.626953125 24.6533203125,11.9970703125 25.25390625,10.517578125 29.47265625,10.517578125 29.47265625,11.455078125 29.0771484375,13.5498046875 27.978515625,15.263671875 26.3232421875,16.4208984375 24.228515625,16.845703125 22.5439453125,16.5673828125 21.0791015625,15.791015625 19.921875,14.6044921875 19.16015625,13.06640625 18.22265625,14.853515625 17.900390625,16.845703125 18.369140625,19.2626953125 19.716796875,21.328125 21.796875,22.6904296875 24.228515625,23.173828125 26.8505859375,22.6318359375 28.76953125,21.2255859375 30.234375,19.27734375 31.552734375,17.109375 32.98828125,15.05859375 34.8046875,13.447265625 36.298828125,12.83203125 37.91015625,12.626953125 48.427734375,12.626953125 44.208984375,6.328125 35.654296875,6.328125 33.9697265625,6.5185546875 32.2412109375,7.08984422683716 30.673828125,7.99804639816284 29.47265625,9.19921875 29.47265625,4.21874952316284 24.228515625,4.21874952316284z M24.228515625,0L33.69140625,0 33.69140625,2.10937476158142 46.46484375,2.10937476158142 54.90234375,14.765625 56.78466796875,15.098876953125 58.447265625,15.9814453125 59.78759765625,17.310791015625 60.703125,18.984375 63.2958984375,19.423828125 65.419921875,20.68359375 66.85546875,22.67578125 67.3828125,25.283203125 66.8701171875,27.7587890625 65.419921875,29.82421875 66.8701171875,32.666015625 67.3828125,35.80078125 67.3828125,46.318359375 67.174072265625,48.424072265625 66.5478515625,50.4052734375 64.2919921875,53.759765625 60.9521484375,56.0302734375 58.970947265625,56.656494140625 56.865234375,56.865234375 51.767578125,56.865234375 50.126953125,59.47265625 47.87109375,61.46484375 45.146484375,62.724609375 42.099609375,63.1640625 28.125,63.1640625 25.8251953125,63.0908203125 23.525390625,63.017578125 22.3388671875,63.046875 21.15234375,63.1640625 19.3798828125,63.6767578125 17.63671875,64.3359375 13.6083984375,65.7275390625 9.55078125,67.03125 8.4814453125,67.2802734375 7.3828125,67.3828125 4.51171875,66.796875 2.16796875,65.21484375 0.5859375,62.87109375 0,60 0,55.810546875 0.263671875,53.84765625 1.025390625,52.0458984375 2.2412109375,50.5078125 3.837890625,49.3359375 4.74609375,48.9404296875 5.712890625,48.6328125 9.609375,47.3583984375 13.4765625,46.025390625 15.703125,41.6015625 14.853515625,40.37109375 12.8759765625,41.6748046875 10.517578125,42.12890625 8.056640625,41.630859375 6.064453125,40.2685546875 4.71679592132568,38.26171875 4.21875,35.80078125 4.21875,23.173828125 4.6875,20.7421875 6.064453125,18.69140625 12.626953125,12.1289072036743 12.626953125,4.21874952316284 16.34765625,4.21874952316284 17.8601055145264,2.44629192352295 19.7607421875,1.11328101158142 21.9250469207764,0.278323143720627 24.228515625,0z" />
    </g>
  </g>
</svg>