<?xml version="1.0" encoding="utf-8"?>
<!DOCTYPE svg PUBLIC "-//W3C//DTD SVG 1.1//EN" "http://www.w3.org/Graphics/SVG/1.1/DTD/svg11.dtd">
<svg width="32.490234375" height="33.984375" xmlns="http://www.w3.org/2000/svg" xmlns:xlink="http://www.w3.org/1999/xlink" xmlns:xml="http://www.w3.org/XML/1998/namespace" version="1.1">
  <g>
    <g>
      <path style="fill:#FF0000;fill-opacity:1" d="M16.11328125,0L19.21875,1.8017578125 21.884765625,2.8125 18.57421875,7.67578125 18.57421875,14.560546875 24.78515625,14.560546875 29.736328125,11.279296875 30.732421875,14.1284198760986 32.490234375,16.7578125 30.9814453125,19.599609375 29.912109375,22.44140625 24.78515625,19.130859375 18.57421875,19.130859375 18.57421875,26.54296875 19.8193359375,28.3447265625 21.884765625,31.40625 19.1015625,32.255859375 16.23046875,33.984375 13.3154296875,32.2998046875 10.48828125,31.40625 11.9457988739014,29.3994140625 13.916015625,26.54296875 13.916015625,19.130859375 7.705078125,19.130859375 2.63671875,22.6171875 1.64062464237213,19.62890625 0,16.7578125 1.640625,14.1650390625 2.75390625,11.396484375 7.705078125,14.560546875 13.916015625,14.560546875 13.916015625,7.67578125 10.48828125,2.87109375 13.2714824676514,1.8896484375 16.11328125,0z" />
    </g>
  </g>
</svg>