<?xml version="1.0" encoding="utf-8"?>
<!DOCTYPE svg PUBLIC "-//W3C//DTD SVG 1.1//EN" "http://www.w3.org/Graphics/SVG/1.1/DTD/svg11.dtd">
<svg width="67.4414062500349" height="67.3828125" xmlns="http://www.w3.org/2000/svg" xmlns:xlink="http://www.w3.org/1999/xlink" xmlns:xml="http://www.w3.org/XML/1998/namespace" version="1.1">
  <g>
    <g>
      <path style="fill:#FF0000;fill-opacity:1" d="M45.322265625,52.646484375L50.595703125,52.646484375 42.158203125,61.0546875 42.158203125,55.810546875 42.4072265625,54.580078125 43.0810546875,53.5693359375 44.0771484375,52.8955078125 45.322265625,52.646484375z M55.83984375,42.12890625L61.11328125,42.12890625 52.705078125,50.537109375 52.705078125,45.263671875 52.9541015625,44.0478515625 53.6279296875,43.0517578125 54.6240234375,42.3779296875 55.83984375,42.12890625z M45.322265625,42.12890625L50.595703125,42.12890625 42.158203125,50.537109375 42.158203125,45.263671875 42.4072265625,44.033203125 43.095703125,43.037109375 44.1064453125,42.3779296875 45.322265625,42.12890625z M34.8046875,42.12890625L40.048828125,42.12890625 31.640625,50.537109375 31.640625,45.263671875 31.8896484375,44.033203125 32.578125,43.037109375 33.5888671875,42.3779296875 34.8046875,42.12890625z M45.322265625,31.58203125L50.595703125,31.58203125 42.158203125,40.01953125 42.158203125,34.74609375 42.4072265625,33.515625 43.0810546875,32.5048828125 44.0771484375,31.8310546875 45.322265625,31.58203125z M34.8046875,31.58203125L40.048828125,31.58203125 31.640625,40.01953125 31.640625,34.74609375 31.8896484375,33.515625 32.5634765625,32.5048828125 33.5595703125,31.8310546875 34.8046875,31.58203125z M40.078125,22.119140625L36.85546875,22.3974609375 33.75,23.26171875 33.75,27.36328125 33.251953125,29.82421875 31.8896484375,31.8310546875 29.8828125,33.193359375 27.421875,33.69140625 23.291015625,33.69140625 22.4340801239014,36.80419921875 22.1484375,40.048828125 22.1923828125,41.4111328125 22.353515625,42.7734375 23.2470703125,42.3193359375 24.228515625,42.158203125 29.501953125,42.158203125 23.90625,47.75390625 25.3271484375,50.1416015625 27.041015625,52.3095703125 28.9453125,54.31640625 30.9375,56.25 31.58203125,56.865234375 31.58203125,55.83984375 31.8310546875,54.6240234375 32.51953125,53.61328125 33.5302734375,52.9248046875 34.74609375,52.67578125 40.01953125,52.67578125 33.75,58.9453125 36.33544921875,60.75439453125 39.169921875,62.080078125 42.1874961853027,62.89306640625 45.322265625,63.1640625 48.9074668884277,62.8125 52.2802734375,61.7578125 55.3381309509277,60.09521484375 57.978515625,57.919921875 60.15380859375,55.279541015625 61.81640625,52.2216796875 62.87109375,48.848876953125 63.22265625,45.263671875 62.9443359375,42.12890625 62.109375,39.111328125 60.76904296875,36.2841796875 58.974609375,33.720703125 52.734375,39.990234375 52.734375,34.716796875 52.9833984375,33.5009765625 53.6572265625,32.490234375 54.6533203125,31.8017578125 55.869140625,31.552734375 56.923828125,31.552734375 54.814453125,29.4140625 52.6611328125,27.3193359375 50.361328125,25.4150390625 47.783203125,23.84765625 42.1875,29.443359375 42.1875,24.19921875 42.3486328125,23.2177734375 42.802734375,22.32421875 41.4404296875,22.1630859375 40.078125,22.119140625z M10.6640625,4.21875L9.06005859375,4.52637052536011 7.705078125,5.44921922683716 16.875,14.6484375 16.875,16.845703125 14.677734375,16.845703125 5.478515625,7.67578220367432 4.5849609375,8.9794921875 4.248046875,10.517578125 4.541015625,12.1875 5.478515625,13.623046875 10.83984375,18.955078125 4.248046875,18.955078125 4.5849609375,20.595703125 5.4931640625,21.9287109375 6.826171875,22.8369140625 8.46679782867432,23.173828125 12.216796875,23.173828125 8.671875,26.71875 7.76367282867432,28.0810546875 7.44140625,29.70703125 7.74902248382568,31.31103515625 8.671875,32.666015625 13.9453125,27.36328125 17.373046875,27.36328125 13.359375,31.376953125 12.451171875,32.7392578125 12.12890625,34.365234375 12.451171875,35.9912109375 13.359375,37.353515625 19.1015625,31.58203125 27.421875,31.58203125 29.0625,31.2451171875 30.3955078125,30.3369140625 31.3037109375,29.00390625 31.640625,27.36328125 31.640625,19.072265625 37.939453125,12.744140625 36.5771484375,11.8359375 34.951171875,11.513671875 33.34716796875,11.8212890625 31.9921875,12.744140625 27.421875,17.314453125 27.421875,13.9160175323486 33.28125,8.056640625 31.9189453125,7.1484375 30.29296875,6.82617282867432 28.6669921875,7.1484375 27.3046875,8.056640625 23.203125,12.1875 23.203125,8.43750095367432 22.8662109375,6.796875 21.9580078125,5.4638671875 20.625,4.5556640625 18.984375,4.21875 18.984375,10.78125 13.65234375,5.44921922683716 12.2900390625,4.54101610183716 10.6640625,4.21875z M10.693359375,0L18.984375,0 21.0351543426514,0.252688854932785 22.96875,1.01074290275574 26.015625,3.77929711341858 28.0810546875,2.90039396286011 30.29296875,2.60742282867432 33.50830078125,3.22998380661011 36.240234375,5.09765672683716 43.88671875,12.744140625 38.701171875,17.958984375 39.462890625,17.9150390625 40.224609375,17.900390625 44.4873046875,18.33984375 48.5888671875,19.6142578125 52.3681640625,21.650390625 55.693359375,24.375 60.9375,29.6484375 63.72802734375,33.0322265625 65.771484375,36.796875 67.02392578125,40.89111328125 67.44140625,45.263671875 67.24365234375,48.255615234375 66.650390625,51.1376953125 64.4091796875,56.42578125 60.9521484375,60.8935546875 56.484375,64.3505859375 51.1962890625,66.591796875 48.3142051696777,67.18505859375 45.322265625,67.3828125 40.986328125,66.9580078125 36.85546875,65.712890625 33.046875,63.6767578125 29.677734375,60.908203125 24.43359375,55.634765625 21.6613750457764,52.261962890625 19.6142578125,48.4716796875 18.3508281707764,44.359130859375 17.9296875,40.01953125 17.9296875,39.3603515625 17.958984375,38.701171875 13.359375,43.30078125 5.68359375,35.654296875 3.8525390625,32.9150390625 3.22265625,29.70703125 3.4130859375,27.861328125 4.013671875,26.103515625 2.362060546875,24.7521991729736 1.0986328125,23.0419921875 0.296630442142487,21.075439453125 0.0292963981628418,18.955078125 0.0292963981628418,15.263671875 0.0146484375,13.9306640625 0,12.59765625 0.0439457893371582,10.751953125 0.263672351837158,8.84765625 0.8056640625,7.04589939117432 1.787109375,5.50781345367432 5.537109375,1.7578125 6.6357421875,0.996094703674316 7.9541015625,0.454102277755737 9.345703125,0.117187976837158 10.693359375,0z" />
    </g>
  </g>
</svg>