<?xml version="1.0" encoding="utf-8"?>
<!DOCTYPE svg PUBLIC "-//W3C//DTD SVG 1.1//EN" "http://www.w3.org/Graphics/SVG/1.1/DTD/svg11.dtd">
<svg width="67.382812500001" height="67.3828125" xmlns="http://www.w3.org/2000/svg" xmlns:xlink="http://www.w3.org/1999/xlink" xmlns:xml="http://www.w3.org/XML/1998/namespace" version="1.1">
  <g>
    <g>
      <path style="fill:#FF0000;fill-opacity:1" d="M61.083984375,48.193359375L59.912109375,49.365234375 58.271484375,50.44921875 56.513671875,51.357421875 54.9609375,51.97265625 58.330078125,55.37109375 58.9453125,56.865234375 58.330078125,58.3447265625 56.865234375,58.974609375 55.37109375,58.330078125 49.62890625,52.6171875 48.310546875,52.470703125 47.34375,56.1181640625 45.46875,59.384765625 48.0615196228027,61.0107421875 50.859375,62.197265625 53.8110313415527,62.92236328125 56.865234375,63.1640625 63.1640625,63.1640625 63.1640625,56.865234375 62.63671875,52.3974609375 61.083984375,48.193359375z M21.064453125,10.517578125L19.423828125,10.8544921875 18.0908203125,11.7626953125 17.1826171875,13.095703125 16.845703125,14.736328125 17.1826171875,16.3623046875 18.076171875,17.724609375 19.3798828125,18.6474609375 20.9765625,18.984375 21.26953125,18.9697265625 21.5625,18.92578125 28.447265625,28.095703125 27.63427734375,29.7583026885986 27.36328125,31.58203125 27.861328125,34.04296875 29.2236328125,36.0498046875 31.23046875,37.412109375 33.69140625,37.91015625 36.15234375,37.412109375 38.1591796875,36.0498046875 39.521484375,34.04296875 40.01953125,31.58203125 39.5654296875,29.23828125 38.26171875,27.24609375 36.1962890625,25.78125 33.69140625,25.283203125 32.7392578125,25.37109375 31.81640625,25.576171875 24.931640625,16.40625 25.25390625,14.736328125 24.931640625,13.095703125 24.0380859375,11.7626953125 22.705078125,10.8544921875 21.064453125,10.517578125z M21.064453125,8.4375L23.525390625,8.935546875 25.517578125,10.283203125 26.865234375,12.275390625 27.36328125,14.736328125 27.333984375,15.3662109375 27.24609375,15.99609375 29.47265625,18.955078125 29.8095703125,17.314453125 30.7177734375,15.9814453125 32.05078125,15.0732421875 33.69140625,14.736328125 35.33203125,15.0732421875 36.6650390625,15.9814453125 37.5732421875,17.314453125 37.91015625,18.955078125 37.880859375,20.009765625 37.8515625,21.064453125 37.939453125,22.412109375 38.291015625,23.61328125 39.0673828125,24.462890625 40.4296875,24.78515625 41.923828125,24.5361328125 43.3740234375,23.9794921875 44.8095703125,23.4228515625 46.318359375,23.173828125 47.958984375,23.49609375 49.2919921875,24.3896484375 50.2001953125,25.72265625 50.537109375,27.36328125 49.8779296875,29.736328125 48.2373046875,31.083984375 46.0986328125,31.8896484375 43.9599609375,32.5634765625 42.3193359375,33.544921875 41.66015625,35.2734375 42.01171875,36.50390625 42.8759765625,37.9248046875 43.9892578125,39.4775390625 45.1025390625,41.0888671875 45.966796875,42.685546875 46.318359375,44.208984375 45.99609375,45.849609375 45.1025390625,47.1826171875 43.76953125,48.0908203125 42.12890625,48.427734375 40.7080078125,48.22265625 39.638671875,47.63671875 38.7744140625,46.728515625 37.939453125,45.5859375 35.5078125,42.01171875 34.6875,41.4697265625 33.69140625,41.279296875 32.6953125,41.455078125 31.875,42.01171875 28.76953125,46.552734375 27.24609375,47.9296875 25.25390625,48.427734375 23.61328125,48.0908203125 22.2802734375,47.1826171875 21.38671875,45.849609375 21.064453125,44.208984375 21.767578125,41.89453125 25.576171875,36.15234375 25.693359375,35.7275390625 25.751953125,35.2734375 25.0927734375,33.544921875 23.4375,32.548828125 21.298828125,31.8896484375 19.16015625,31.0986328125 17.5048828125,29.736328125 16.845703125,27.36328125 17.1826171875,25.72265625 18.0908203125,24.3896484375 19.423828125,23.4814453125 21.064453125,23.14453125 22.236328125,23.3203125 20.5078125,21.03515625 18.22265625,20.4052734375 16.3916015625,19.013671875 15.17578125,17.0654296875 14.736328125,14.736328125 15.234375,12.275390625 16.5966796875,10.283203125 18.603515625,8.935546875 21.064453125,8.4375z M23.5546875,4.21874952316284L20.9619121551514,4.45678997039795 18.515625,5.1708984375 14.3701171875,7.822265625 11.5576171875,11.8212890625 10.777587890625,14.227294921875 10.517578125,16.845703125 10.740966796875,19.273681640625 11.4111328125,21.5771484375 12.520751953125,23.6975116729736 14.0625,25.576171875 13.18359375,25.83984375 12.3046875,26.1328125 8.96484375,28.0224609375 6.416015625,30.7470703125 4.7900390625,34.1162109375 4.21875,37.91015625 4.4677734375,40.440673828125 5.21484470367432,42.8173828125 7.9248046875,46.8310546875 11.9384765625,49.541015625 14.315185546875,50.2880859375 16.845703125,50.537109375 18.9990234375,50.33203125 21.09375,49.775390625 21.0791015625,50.15625 21.064453125,50.537109375 21.3134746551514,53.067626953125 22.060546875,55.4443359375 24.7705078125,59.4580078125 28.7841796875,62.16796875 31.160888671875,62.9150390625 33.69140625,63.1640625 36.221923828125,62.9150390625 38.5986328125,62.16796875 42.6123046875,59.4580078125 45.322265625,55.4443359375 46.0693321228027,53.067626953125 46.318359375,50.537109375 46.3037109375,50.15625 46.2890625,49.775390625 48.369140625,50.3759765625 50.537109375,50.537109375 53.0676231384277,50.2880859375 55.4443359375,49.541015625 59.4580078125,46.8310546875 62.16796875,42.8173828125 62.9150390625,40.440673828125 63.1640625,37.91015625 62.63671875,34.3505859375 61.1279296875,31.0400390625 58.76953125,28.2861328125 55.693359375,26.3671875 54.5068359375,25.95703125 53.3203125,25.576171875 54.8254356384277,23.6901874542236 55.9423828125,21.5478515625 56.634521484375,19.237060546875 56.865234375,16.845703125 56.612548828125,14.337158203125 55.8544921875,11.9677734375 53.115234375,7.95410203933716 49.0869140625,5.22949171066284 46.7175254821777,4.47143840789795 44.208984375,4.21874952316284 41.1181640625,4.6142578125 38.2470703125,5.7421875 35.7275390625,7.5146484375 33.69140625,9.873046875 31.7724609375,7.60253953933716 29.3115234375,5.8154296875 26.513671875,4.6435546875 23.5546875,4.21874952316284z M23.173828125,0L25.997314453125,0.241702049970627 28.7255859375,0.966796636581421 31.307373046875,2.13135051727295 33.69140625,3.69140672683716 36.075439453125,2.13135051727295 38.6572265625,0.966796636581421 41.3854942321777,0.241702049970627 44.208984375,0 47.5707969665527,0.333254754543304 50.7421875,1.33300733566284 53.6206016540527,2.90405559539795 56.103515625,4.95117235183716 58.150634765625,7.43408203125 59.7216796875,10.3125 60.721435546875,13.48388671875 61.0546875,16.845703125 60.69580078125,20.33203125 59.619140625,23.701171875 62.8857421875,26.42578125 65.33203125,29.8095703125 66.85546875,33.69140625 67.3828125,37.91015625 66.767578125,42.392578125 64.98046875,46.552734375 66.796875,51.5625 67.3828125,56.865234375 67.3828125,67.3828125 56.865234375,67.3828125 53.5363731384277,67.144775390625 50.2880859375,66.4306640625 47.1716270446777,65.255126953125 44.23828125,63.6328125 41.9055137634277,65.255126953125 39.3017578125,66.4306640625 36.529541015625,67.144775390625 33.69140625,67.3828125 30.87890625,67.1484375 28.18359375,66.4453125 23.3935546875,63.837890625 19.6728515625,59.853515625 18.3142070770264,57.421875 17.373046875,54.755859375 16.845703125,54.755859375 13.465576171875,54.422607421875 10.2978515625,53.4228515625 7.43041896820068,51.851806640625 4.951171875,49.8046875 2.904052734375,47.325439453125 1.3330078125,44.4580078125 0.333251595497131,41.290283203125 0,37.91015625 0.52734375,33.69140625 2.05078125,29.8095703125 4.4970703125,26.42578125 7.763671875,23.701171875 6.68701076507568,20.33203125 6.328125,16.845703125 6.66137599945068,13.48388671875 7.6611328125,10.3125 9.232177734375,7.43408203125 11.279296875,4.95117235183716 13.758544921875,2.90405559539795 16.6259765625,1.33300733566284 19.7936992645264,0.333254754543304 23.173828125,0z" />
    </g>
  </g>
</svg>