<?xml version="1.0" encoding="utf-8"?>
<!DOCTYPE svg PUBLIC "-//W3C//DTD SVG 1.1//EN" "http://www.w3.org/Graphics/SVG/1.1/DTD/svg11.dtd">
<svg width="46.34765625" height="67.3828125" xmlns="http://www.w3.org/2000/svg" xmlns:xlink="http://www.w3.org/1999/xlink" xmlns:xml="http://www.w3.org/XML/1998/namespace" version="1.1">
  <g>
    <g>
      <path style="fill:#FF0000;fill-opacity:1" d="M15.8203125,12.65625L14.6044921875,12.9052734375 13.59375,13.5791015625 12.9052734375,14.5751953125 12.65625,15.791015625 12.890625,16.9921875 13.59375,18.017578125 22.939453125,27.36328125 28.2421875,27.36328125 25.8984375,22.6171875 25.3564453125,21.4013671875 24.7265625,20.244140625 23.6572265625,19.0869140625 22.5,18.017578125 18.046875,13.564453125 17.021484375,12.890625 15.8203125,12.65625z M24.2578125,4.21874952316284L23.0126953125,4.46777296066284 22.0166015625,5.1416015625 21.3427734375,6.15234375 21.09375,7.3828125 21.15234375,8.02734375 21.357421875,8.671875 21.5478496551514,9.07470703125 21.943359375,9.873046875 23.173828125,12.36328125 24.8291015625,15.703125 26.6748046875,19.453125 28.4912109375,23.1591796875 30.087890625,26.3671875 31.2158203125,28.623046875 31.534423828125,29.2602558135986 31.640625,29.47265625 7.38281297683716,29.47265625 6.16699266433716,29.7216796875 5.17089891433716,30.41015625 4.49707078933716,31.4208984375 4.24804735183716,32.63671875 4.49707078933716,33.8525390625 5.17089891433716,34.86328125 6.16699266433716,35.5517578125 7.38281297683716,35.80078125 18.984375,35.80078125 22.265625,36.4599609375 24.931640625,38.26171875 26.7333984375,40.9423828125 27.392578125,44.23828125 26.7333984375,47.5048828125 24.931640625,50.185546875 22.2509765625,51.9873046875 18.984375,52.646484375 15.7177734375,51.97265625 13.037109375,50.15625 11.220703125,47.490234375 10.546875,44.23828125 10.546875,41.07421875 10.2978515625,39.84375 9.6240234375,38.8330078125 8.61328125,38.1591796875 7.38281297683716,37.91015625 6.16699266433716,38.1591796875 5.17089891433716,38.84765625 4.49707078933716,39.8583984375 4.24804735183716,41.07421875 4.24804735183716,44.23828125 4.62158250808716,48.043212890625 5.74218797683716,51.6064453125 7.503662109375,54.832763671875 9.7998046875,57.626953125 12.586669921875,59.930419921875 15.8203125,61.6845703125 19.3945293426514,62.794189453125 23.203125,63.1640625 27.008056640625,62.794189453125 30.5712890625,61.6845703125 33.797607421875,59.930419921875 36.591796875,57.626953125 38.895263671875,54.832763671875 40.6494140625,51.6064453125 41.7590293884277,48.043212890625 42.12890625,44.23828125 42.12890625,35.80078125 41.9384765625,34.5703125 41.42578125,33.45703125 27.158203125,6.123046875 25.986328125,4.73144483566284 24.2578125,4.21874952316284z M24.2578125,0L26.392822265625,0.289309531450272 28.2275390625,1.15722680091858 29.747314453125,2.51587200164795 30.9375,4.27734375 45.05859375,31.318359375 46.0107421875,33.4716796875 46.34765625,35.80078125 46.34765625,44.23828125 46.1389122009277,47.369384765625 45.5126953125,50.3759765625 43.1689453125,55.8984375 39.55078125,60.5859375 34.86328125,64.2041015625 29.3408203125,66.5478515625 26.334228515625,67.174072265625 23.203125,67.3828125 20.0683574676514,67.174072265625 17.05078125,66.5478515625 11.5283203125,64.2041015625 6.84082078933716,60.5859375 3.20800828933716,55.8984375 0.864258289337158,50.3759765625 0.23803722858429,47.369384765625 0.0292973518371582,44.23828125 0.0146489143371582,43.1396484375 0,42.01171875 0.2490234375,39.3310546875 1.34765672683716,36.85546875 0.35888683795929,34.86328125 0.0292973518371582,32.63671875 0.615234851837158,29.7802734375 2.19726610183716,27.451171875 4.52636766433716,25.869140625 7.38281297683716,25.283203125 14.8828125,25.283203125 12.71484375,23.1591796875 10.60546875,21.005859375 9.0087890625,18.603515625 8.4375,15.791015625 9.0234375,12.919921875 10.60546875,10.576171875 12.94921875,9.0087890625 15.8203125,8.4375 16.962890625,8.525390625 16.875,7.3828125 17.4609375,4.51171875 19.04296875,2.16796898841858 21.38671875,0.585937261581421 24.2578125,0z" />
    </g>
  </g>
</svg>