<?xml version="1.0" encoding="utf-8"?>
<!DOCTYPE svg PUBLIC "-//W3C//DTD SVG 1.1//EN" "http://www.w3.org/Graphics/SVG/1.1/DTD/svg11.dtd">
<svg width="48.4277343750032" height="67.3828125" xmlns="http://www.w3.org/2000/svg" xmlns:xlink="http://www.w3.org/1999/xlink" xmlns:xml="http://www.w3.org/XML/1998/namespace" version="1.1">
  <g>
    <g>
      <path style="fill:#FF0000;fill-opacity:1" d="M15.791015625,4.21874952316284L14.5458984375,4.46777296066284 13.5498046875,5.1416015625 12.8759765625,6.15234375 12.626953125,7.3828125 12.626953125,31.93359375 11.689453125,31.025390625 10.7666015625,30.234375 9.7119140625,29.677734375 8.408203125,29.47265625 6.76757764816284,29.8095703125 5.43456983566284,30.7177734375 4.54101419448853,32.05078125 4.21874952316284,33.69140625 4.54101419448853,35.3173828125 5.44921827316284,36.6796875 20.947265625,52.177734375 22.1337890625,53.8037109375 22.8369140625,55.634765625 23.1591796875,57.6123046875 23.232421875,59.619140625 23.203125,61.4208984375 23.173828125,63.1640625 44.208984375,63.1640625 44.208984375,31.58203125 43.8720703125,29.94140625 42.9638671875,28.6083984375 41.630859375,27.7001953125 39.990234375,27.36328125 37.91015625,27.36328125 37.91015625,32.63671875 37.6025390625,33.3837890625 36.85546875,33.69140625 36.1083984375,33.3837890625 35.80078125,32.63671875 35.80078125,27.36328125 35.4638671875,25.72265625 34.5556640625,24.3896484375 33.22265625,23.49609375 31.58203125,23.173828125 29.47265625,23.173828125 29.47265625,30.52734375 29.1650390625,31.2744140625 28.41796875,31.58203125 27.6708984375,31.2744140625 27.36328125,30.52734375 27.36328125,23.173828125 21.064453125,23.173828125 21.064453125,30.52734375 20.7568359375,31.2744140625 20.009765625,31.58203125 19.2626953125,31.2744140625 18.955078125,30.52734375 18.955078125,7.3828125 18.7060546875,6.15234375 18.0322265625,5.1416015625 17.021484375,4.46777296066284 15.791015625,4.21874952316284z M15.791015625,0L18.662109375,0.585937261581421 21.005859375,2.16796898841858 22.587890625,4.51171875 23.173828125,7.3828125 23.173828125,18.955078125 31.58203125,18.955078125 33.779296875,19.237060546875 35.80078125,20.0830078125 37.53662109375,21.419677734375 38.876953125,23.173828125 40.01953125,23.173828125 43.2861328125,23.8330078125 45.966796875,25.634765625 47.7685546875,28.3154296875 48.427734375,31.58203125 48.427734375,67.3828125 18.955078125,67.3828125 18.955078125,58.974609375 18.9111328125,58.037109375 18.7646484375,56.9677734375 18.4716796875,55.9423828125 17.98828125,55.166015625 2.46093702316284,39.638671875 0.629882335662842,36.8994140625 0,33.69140625 0.659179210662842,30.41015625 2.46093702316284,27.744140625 5.12695264816284,25.9423828125 8.408203125,25.283203125 8.408203125,7.3828125 8.994140625,4.51171875 10.576171875,2.16796898841858 12.919921875,0.585937261581421 15.791015625,0z" />
    </g>
  </g>
</svg>