<?xml version="1.0" encoding="utf-8"?>
<!DOCTYPE svg PUBLIC "-//W3C//DTD SVG 1.1//EN" "http://www.w3.org/Graphics/SVG/1.1/DTD/svg11.dtd">
<svg width="66.8847656250041" height="66.97265625" xmlns="http://www.w3.org/2000/svg" xmlns:xlink="http://www.w3.org/1999/xlink" xmlns:xml="http://www.w3.org/XML/1998/namespace" version="1.1">
  <g>
    <g>
      <path style="fill:#FF0000;fill-opacity:1" d="M3.89648389816284,61.171875L3.19335889816284,61.69921875 2.92968702316284,62.548828125 3.36914014816284,63.603515625 4.42382764816284,64.04296875 5.27343702316284,63.779296875 5.80078077316284,63.076171875 5.36132764816284,62.7099609375 4.80468702316284,62.1826171875 4.26269483566284,61.6259765625 3.89648389816284,61.171875z M9.08203125,50.478515625L4.80468702316284,59.091796875 7.88085889816284,62.16796875 16.494140625,57.890625 9.08203125,50.478515625z M28.974609375,29.47265625L10.01953125,48.427734375 18.45703125,56.865234375 37.412109375,37.91015625 28.974609375,29.47265625z M52.1484375,12.626953125L54.2578125,14.736328125 42.041015625,26.953125 40.986328125,27.36328125 39.931640625,26.953125 39.521484375,25.8984375 39.931640625,24.84375 52.1484375,12.626953125z M50.654296875,7.79296875L31.083984375,27.36328125 39.521484375,35.80078125 59.091796875,16.23046875 50.654296875,7.79296875z M56.6015625,4.27734375L54.1259765625,4.7900390625 52.1484375,6.328125 60.556640625,14.736328125 62.080078125,12.7587890625 62.578125,10.283203125 62.138671875,7.8662109375 60.908203125,5.97656297683716 59.0185546875,4.7314453125 56.6015625,4.27734375z M56.71875,0L58.76220703125,0.201418936252594 60.673828125,0.805664539337158 63.896484375,2.98828148841858 66.0791015625,6.2109375 66.683349609375,8.12255859375 66.884765625,10.166015625 66.668701171875,12.28271484375 66.0205078125,14.23828125 63.6328125,17.63671875 20.947265625,60.322265625 20.7202129364014,60.450439453125 20.09765625,60.7763671875 18.046875,61.81640625 15.3515625,63.1640625 12.568359375,64.5556640625 10.25390625,65.6982421875 8.994140625,66.298828125 7.64648389816284,66.796875 6.21093702316284,66.97265625 3.79394483566284,66.474609375 1.83105421066284,65.1416015625 0.498045444488525,63.1787109375 0,60.76171875 0.644530773162842,58.0078125 6.56249952316284,45.9375 49.541015625,2.98828148841858 52.8295860290527,0.747073173522949 56.71875,0z" />
    </g>
  </g>
</svg>