<?xml version="1.0" encoding="utf-8"?>
<!DOCTYPE svg PUBLIC "-//W3C//DTD SVG 1.1//EN" "http://www.w3.org/Graphics/SVG/1.1/DTD/svg11.dtd">
<svg width="46.318359375001" height="67.3828125" xmlns="http://www.w3.org/2000/svg" xmlns:xlink="http://www.w3.org/1999/xlink" xmlns:xml="http://www.w3.org/XML/1998/namespace" version="1.1">
  <g>
    <g>
      <path style="fill:#FF0000;fill-opacity:1" d="M23.173828125,46.318359375L21.1083984375,46.728515625 19.4384765625,47.8564453125 18.310546875,49.541015625 17.900390625,51.591796875 18.310546875,53.6572265625 19.4384765625,55.3271484375 21.1083984375,56.455078125 23.173828125,56.865234375 25.224609375,56.455078125 26.89453125,55.3271484375 28.0078125,53.6572265625 28.41796875,51.591796875 28.0078125,49.541015625 26.89453125,47.8564453125 25.224609375,46.728515625 23.173828125,46.318359375z M23.173828125,44.208984375L26.0302734375,44.794921875 28.359375,46.3916015625 29.94140625,48.7353515625 30.52734375,51.591796875 29.94140625,54.4482421875 28.359375,56.7919921875 26.0302734375,58.388671875 23.173828125,58.974609375 20.3173828125,58.388671875 17.9736328125,56.7919921875 16.376953125,54.4482421875 15.791015625,51.591796875 16.376953125,48.7353515625 17.9736328125,46.3916015625 20.3173828125,44.794921875 23.173828125,44.208984375z M29.47265625,4.21874952316284L29.47265625,35.21484375 30.0439453125,34.8193359375 30.556640625,34.3359375 33.69140625,30.556640625 33.69140625,4.21874952316284 29.47265625,4.21874952316284z M21.064453125,4.21874952316284L21.064453125,40.1953125 17.2705078125,41.6162109375 14.267578125,44.1796875 12.2900390625,47.5927734375 11.572265625,51.591796875 11.79931640625,53.9208984375 12.48046875,56.103515625 14.970703125,59.7802734375 18.662109375,62.255859375 20.8447246551514,62.93701171875 23.173828125,63.1640625 25.5029296875,62.93701171875 27.685546875,62.255859375 31.3623046875,59.7802734375 33.837890625,56.103515625 34.51904296875,53.9208984375 34.74609375,51.591796875 34.0283203125,47.5927734375 32.05078125,44.1796875 29.0478515625,41.6162109375 25.25390625,40.1953125 25.25390625,4.21874952316284 21.064453125,4.21874952316284z M12.626953125,4.21874952316284L12.626953125,30.556640625 15.76171875,34.3359375 16.2744140625,34.8193359375 16.845703125,35.21484375 16.845703125,4.21874952316284 12.626953125,4.21874952316284z M8.408203125,0L37.91015625,0 41.1474609375,0.673828601837158 43.828125,2.5048828125 45.64453125,5.20019578933716 46.318359375,8.4375 46.318359375,18.955078125 45.7470703125,21.97265625 44.12109375,24.609375 33.779296875,37.03125 32.9736328125,37.8515625 32.080078125,38.5546875 34.9658203125,41.103515625 37.1337890625,44.2236328125 38.49609375,47.7685546875 38.96484375,51.591796875 38.653564453125,54.752197265625 37.7197265625,57.7294921875 36.251220703125,60.428466796875 34.3359375,62.75390625 32.010498046875,64.669189453125 29.3115234375,66.1376953125 26.334228515625,67.071533203125 23.173828125,67.3828125 20.0134258270264,67.071533203125 17.0361328125,66.1376953125 14.337158203125,64.669189453125 12.01171875,62.75390625 10.096435546875,60.428466796875 8.6279296875,57.7294921875 7.69409084320068,54.752197265625 7.38281154632568,51.591796875 7.8515625,47.7685546875 9.19921875,44.2236328125 11.3525390625,41.103515625 14.23828125,38.5546875 13.3447265625,37.8662109375 12.568359375,37.060546875 2.080078125,24.462890625 0.52734375,21.8994140625 0,18.955078125 0,8.4375 0.673828125,5.20019578933716 2.490234375,2.5048828125 5.15625,0.673828601837158 8.408203125,0z" />
    </g>
  </g>
</svg>