<?xml version="1.0" encoding="utf-8"?>
<!DOCTYPE svg PUBLIC "-//W3C//DTD SVG 1.1//EN" "http://www.w3.org/Graphics/SVG/1.1/DTD/svg11.dtd">
<svg width="67.3828125000008" height="50.537109375" xmlns="http://www.w3.org/2000/svg" xmlns:xlink="http://www.w3.org/1999/xlink" xmlns:xml="http://www.w3.org/XML/1998/namespace" version="1.1">
  <g>
    <g>
      <path style="fill:#FF0000;fill-opacity:1" d="M46.7578125,40.01953125L44.208984375,46.318359375 48.427734375,46.318359375 51.123046875,40.01953125 46.7578125,40.01953125z M47.900390625,31.93359375L44.2236328125,33.22265625 40.37109375,33.69140625 40.7666015625,34.6435546875 41.3671875,35.478515625 42.2607421875,36.4306640625 43.4326171875,37.20703125 44.7216796875,37.7197265625 45.99609375,37.91015625 52.646484375,37.91015625 52.646484375,36.6796875 47.900390625,31.93359375z M61.58203125,31.58203125L60.46875,32.05078125 60,33.1640625 60,34.74609375 60.2490234375,35.9619140625 60.9375,36.97265625 61.9482421875,37.6611328125 63.1640625,37.91015625 63.1640625,31.58203125 61.58203125,31.58203125z M6.328125,12.626953125L4.21875,14.736328125 4.541015625,16.376953125 5.4345703125,17.7099609375 6.767578125,18.6181640625 8.408203125,18.955078125 12.626953125,18.955078125 6.328125,12.626953125z M13.681640625,8.4375L14.4140625,8.7451171875 14.736328125,9.462890625 14.736328125,11.572265625 14.4287109375,12.3193359375 13.681640625,12.626953125 12.9345703125,12.3193359375 12.626953125,11.572265625 12.626953125,9.462890625 12.94921875,8.7451171875 13.681640625,8.4375z M17.87109375,4.21875L15.0146484375,4.716796875 12.626953125,6.328125 7.79296875,11.1328125 15.615234375,18.955078125 16.845703125,18.955078125 21.38671875,29.00390625 22.91015625,30.908203125 25.25390625,31.58203125 25.25390625,46.318359375 29.47265625,46.318359375 29.47265625,40.01953125 31.58203125,37.91015625 31.58203125,31.58203125 37.91015625,31.58203125 40.7373046875,31.5234375 43.2568359375,31.2451171875 45.703125,30.5712890625 48.310546875,29.35546875 54.755859375,35.80078125 54.755859375,46.318359375 58.9453125,46.318359375 58.9453125,28.59375 61.0546875,23.173828125 61.0546875,30.5859375 61.58203125,30.52734375 62.109375,30.52734375 63.1640625,30.52734375 63.1640625,20.654296875 62.98828125,18.955078125 56.865234375,18.955078125 54.7851524353027,18.74267578125 52.822265625,18.10546875 49.482421875,15.8203125 47.197265625,12.4658203125 46.5527305603027,10.4992694854736 46.318359375,8.4375 40.01953125,8.4375 40.01953125,18.955078125 39.6826171875,20.5810546875 38.7744140625,21.9287109375 37.4267578125,22.8369140625 35.80078125,23.173828125 31.58203125,23.173828125 29.501953125,22.587890625 27.94921875,21.064453125 23.203125,14.736328125 24.8291015625,14.3994140625 26.1474609375,13.4912109375 27.041015625,12.158203125 27.36328125,10.517578125 20.068359375,10.517578125 19.3359375,9.580078125 18.955078125,8.49609375 19.62890625,6.85546875 20.4931640625,6.4013671875 21.6796875,6.298828125 22.470703125,6.3134765625 23.115234375,6.328125 20.7275390625,4.716796875 17.87109375,4.21875z M17.87109375,0L20.595703125,0.2783203125 22.8955078125,1.083984375 24.9462890625,2.40234375 26.982421875,4.21875 50.537109375,4.21875 53.9392051696777,4.54833984375 57.1142578125,5.537109375 59.981689453125,7.09716939926147 62.4609375,9.140625 64.50439453125,11.6198749542236 66.064453125,14.4873046875 67.05322265625,17.662353515625 67.3828125,21.064453125 67.3828125,44.208984375 63.1640625,44.208984375 63.1640625,50.537109375 37.998046875,50.537109375 41.77734375,41.07421875 38.759765625,38.90625 36.6796875,35.80078125 35.80078125,35.80078125 35.80078125,39.638671875 33.69140625,41.748046875 33.69140625,50.537109375 21.064453125,50.537109375 21.064453125,34.6875 18.92578125,32.958984375 17.490234375,30.615234375 14.12109375,23.173828125 8.408203125,23.173828125 5.15625,22.5 2.490234375,20.6689453125 0.673828125,17.98828125 0,14.736328125 0,13.0078125 9.66796875,3.33984375 11.4404296875,1.878662109375 13.41796875,0.8349609375 15.5712890625,0.208740234375 17.87109375,0z" />
    </g>
  </g>
</svg>