<?xml version="1.0" encoding="utf-8"?>
<!DOCTYPE svg PUBLIC "-//W3C//DTD SVG 1.1//EN" "http://www.w3.org/Graphics/SVG/1.1/DTD/svg11.dtd">
<svg width="46.728515625" height="45.732421875" xmlns="http://www.w3.org/2000/svg" xmlns:xlink="http://www.w3.org/1999/xlink" xmlns:xml="http://www.w3.org/XML/1998/namespace" version="1.1">
  <g>
    <g>
      <path style="fill:#FF0000;fill-opacity:1" d="M36.2109375,6.6796875L4.3359375,6.708984375 4.3359375,41.396484375 39.0234375,41.396484375 39.0234375,8.61328125 34.354248046875,14.0881357192993 29.2529296875,21.0205078125 24.6203594207764,28.121337890625 21.357421875,34.1015625 19.189453125,35.56640625 16.92626953125,37.20703125 15.52734375,38.37890625 14.91943359375,36.54052734375 13.857421875,33.837890625 13.037109375,31.962890625 11.341552734375,28.3740234375 9.7705078125,25.869140625 8.17016506195068,24.2431640625 6.38671875,23.291015625 7.93762159347534,21.8170185089111 9.42626857757568,20.7641620635986 10.8526601791382,20.1324481964111 12.216796875,19.921875 13.363037109375,20.3045673370361 14.5751953125,21.4526386260986 15.853271484375,23.3660907745361 17.197265625,26.044921875 18.10546875,28.095703125 21.05712890625,23.6022968292236 24.7265625,18.8525409698486 29.11376953125,13.8464365005493 34.21875,8.583984375 36.2109375,6.6796875z M45.673828125,0L46.728515625,1.49414110183716 43.359375,4.248046875 43.359375,45.732421875 0,45.732421875 0,2.373046875 41.806640625,2.373046875 45.673828125,0z" />
    </g>
  </g>
</svg>