<?xml version="1.0" encoding="utf-8"?>
<!DOCTYPE svg PUBLIC "-//W3C//DTD SVG 1.1//EN" "http://www.w3.org/Graphics/SVG/1.1/DTD/svg11.dtd">
<svg width="38.3203125" height="52.294921875" xmlns="http://www.w3.org/2000/svg" xmlns:xlink="http://www.w3.org/1999/xlink" xmlns:xml="http://www.w3.org/XML/1998/namespace" version="1.1">
  <g>
    <g>
      <path style="fill:#FF0000;fill-opacity:1" d="M22.8515625,20.68359375L21.9213848114014,21.9580078125 20.712890625,22.8515625 21.85546875,24.228515625 21.85546875,28.65234375 24.2102031707764,27.593994140625 26.1181640625,26.1181640625 27.593994140625,24.202880859375 28.65234375,21.826171875 24.287109375,21.826171875 22.8515625,20.68359375z M15.439453125,20.68359375L14.0625,21.826171875 9.697265625,21.826171875 10.71533203125,24.1754150390625 12.1875,26.09619140625 14.11376953125,27.5885009765625 16.494140625,28.65234375 16.494140625,24.228515625 17.63671875,22.8515625 15.439453125,20.68359375z M21.85546875,9.638671875L21.85546875,14.00390625 20.712890625,15.380859375 22.8515625,17.578125 24.287109375,16.435546875 28.65234375,16.435546875 27.7001953125,14.3994140625 26.19140625,12.421875 24.2138671875,10.7373046875 21.85546875,9.638671875z M16.494140625,9.638671875L14.11376953125,10.711669921875 12.1875,12.2021484375 10.71533203125,14.110107421875 9.697265625,16.435546875 14.0625,16.435546875 15.439453125,17.578125 16.40625,16.318359375 17.63671875,15.380859375 16.494140625,14.00390625 16.494140625,9.638671875z M16.494140625,0L21.85546875,0 21.85546875,4.16015625 26.3287353515625,5.8502197265625 29.87548828125,8.45947265625 32.4957275390625,11.9879150390625 34.189453125,16.435546875 38.3203125,16.435546875 38.3203125,21.826171875 34.189453125,21.826171875 32.4957275390625,26.28662109375 29.87548828125,29.82421875 26.3287353515625,32.43896484375 21.85546875,34.130859375 21.85546875,52.294921875 16.494140625,52.294921875 16.494140625,34.130859375 12.0098876953125,32.43896484375 8.45947170257568,29.82421875 5.84289455413818,26.28662109375 4.16015577316284,21.826171875 0,21.826171875 0,16.435546875 4.16015577316284,16.435546875 5.84289455413818,11.97509765625 8.45947170257568,8.4375 12.0098876953125,5.82275390625 16.494140625,4.130859375 16.494140625,0z" />
    </g>
  </g>
</svg>