<?xml version="1.0" encoding="utf-8"?>
<!DOCTYPE svg PUBLIC "-//W3C//DTD SVG 1.1//EN" "http://www.w3.org/Graphics/SVG/1.1/DTD/svg11.dtd">
<svg width="67.3828125000004" height="67.3828125" xmlns="http://www.w3.org/2000/svg" xmlns:xlink="http://www.w3.org/1999/xlink" xmlns:xml="http://www.w3.org/XML/1998/namespace" version="1.1">
  <g>
    <g>
      <path style="fill:#FF0000;fill-opacity:1" d="M33.69140625,35.80078125L32.4755859375,36.0498046875 31.46484375,36.73828125 30.7763671875,37.7490234375 30.52734375,38.96484375 30.7763671875,40.1806640625 31.46484375,41.19140625 32.4755859375,41.8798828125 33.69140625,42.12890625 34.9072265625,41.8798828125 35.91796875,41.19140625 36.6064453125,40.1806640625 36.85546875,38.96484375 36.6064453125,37.7490234375 35.91796875,36.73828125 34.9072265625,36.0498046875 33.69140625,35.80078125z M33.69140625,25.283203125L32.4755859375,25.5322265625 31.46484375,26.2060546875 30.7763671875,27.2021484375 30.52734375,28.41796875 30.7763671875,29.6337890625 31.46484375,30.64453125 32.4755859375,31.3330078125 33.69140625,31.58203125 34.9072265625,31.3330078125 35.91796875,30.64453125 36.6064453125,29.6337890625 36.85546875,28.41796875 36.6064453125,27.2021484375 35.91796875,26.2060546875 34.9072265625,25.5322265625 33.69140625,25.283203125z M33.69140625,21.064453125L36.5478515625,21.650390625 38.8916015625,23.232421875 40.48828125,25.5615234375 41.07421875,28.41796875 40.4736328125,31.2744140625 38.818359375,33.69140625 40.48828125,36.09375 41.07421875,38.96484375 40.48828125,41.8212890625 38.8916015625,44.150390625 36.5478515625,45.732421875 33.69140625,46.318359375 30.8349609375,45.732421875 28.4912109375,44.150390625 26.89453125,41.8212890625 26.30859375,38.96484375 26.89453125,36.1083984375 28.53515625,33.69140625 26.9091796875,31.2890625 26.30859375,28.41796875 26.89453125,25.5615234375 28.4912109375,23.232421875 30.8349609375,21.650390625 33.69140625,21.064453125z M33.310546875,18.955078125L30.4833984375,19.251708984375 27.802734375,20.1416015625 25.3564453125,21.533203125 23.232421875,23.3349609375 21.4709453582764,25.4992694854736 20.1123046875,27.978515625 19.2443828582764,30.6738300323486 18.955078125,33.486328125 19.2370586395264,36.49658203125 20.0830078125,39.31640625 21.4270000457764,41.865234375 23.203125,44.0625 25.367431640625,45.87158203125 27.8759765625,47.255859375 30.670166015625,48.134765625 33.69140625,48.427734375 36.646728515625,48.138427734375 39.4189453125,47.2705078125 41.9311485290527,45.90087890625 44.1064453125,44.1064453125 45.9008750915527,41.93115234375 47.2705078125,39.4189453125 48.1384239196777,36.646728515625 48.427734375,33.69140625 48.1274375915527,30.6445331573486 47.2265625,27.83203125 45.8129844665527,25.3161640167236 43.974609375,23.1591796875 41.7480430603027,21.397705078125 39.169921875,20.068359375 36.328125,19.2333984375 33.310546875,18.955078125z M33.69140625,4.21874952316284L27.216796875,4.9365234375 21.1376953125,7.03125 15.64453125,10.3857421875 10.95703125,14.912109375 11.912841796875,18.47900390625 13.4326171875,21.796875 15.472412109375,24.8364276885986 17.98828125,27.568359375 20.5078125,23.1884765625 24.1845703125,19.8046875 28.681640625,17.6220703125 31.14990234375,17.039794921875 33.69140625,16.845703125 36.2109375,17.039794921875 38.671875,17.6220703125 43.1982421875,19.8046875 46.904296875,23.1884765625 49.39453125,27.568359375 51.8884239196777,24.8510761260986 53.9208984375,21.796875 55.4479942321777,18.46435546875 56.42578125,14.912109375 51.767578125,10.400390625 46.259765625,7.03125 40.1513671875,4.9365234375 33.69140625,4.21874952316284z M33.69140625,0L38.26171875,0.300295770168304 42.65625,1.20117139816284 46.8200645446777,2.65137004852295 50.6982421875,4.59960889816284 54.2687950134277,7.0166015625 57.509765625,9.873046875 60.3662109375,13.114013671875 62.783203125,16.6845703125 64.7314453125,20.562744140625 66.181640625,24.7265625 67.08251953125,29.1210956573486 67.3828125,33.69140625 67.08251953125,38.26171875 66.181640625,42.65625 64.7314453125,46.820068359375 62.783203125,50.6982421875 60.3662109375,54.268798828125 57.509765625,57.509765625 54.2687950134277,60.3662109375 50.6982421875,62.783203125 46.8200645446777,64.7314453125 42.65625,66.181640625 38.26171875,67.08251953125 33.69140625,67.3828125 29.12109375,67.08251953125 24.7265625,66.181640625 20.5627422332764,64.7314453125 16.6845703125,62.783203125 13.114013671875,60.3662109375 9.873046875,57.509765625 7.01660060882568,54.268798828125 4.599609375,50.6982421875 2.6513671875,46.820068359375 1.201171875,42.65625 0.300292611122131,38.26171875 0,33.69140625 0.300292611122131,29.1210956573486 1.201171875,24.7265625 2.6513671875,20.562744140625 4.599609375,16.6845703125 7.01660060882568,13.114013671875 9.873046875,9.873046875 13.114013671875,7.0166015625 16.6845703125,4.59960889816284 20.5627422332764,2.65137004852295 24.7265625,1.20117139816284 29.12109375,0.300295770168304 33.69140625,0z" />
    </g>
  </g>
</svg>