<?xml version="1.0" encoding="utf-8"?>
<!DOCTYPE svg PUBLIC "-//W3C//DTD SVG 1.1//EN" "http://www.w3.org/Graphics/SVG/1.1/DTD/svg11.dtd">
<svg width="63.1640625" height="63.1640625" xmlns="http://www.w3.org/2000/svg" xmlns:xlink="http://www.w3.org/1999/xlink" xmlns:xml="http://www.w3.org/XML/1998/namespace" version="1.1">
  <g>
    <g>
      <path style="fill:#FF0000;fill-opacity:1" d="M14.736328125,50.537109375L48.427734375,50.537109375 48.427734375,52.646484375 14.736328125,52.646484375 14.736328125,50.537109375z M14.736328125,44.208984375L48.427734375,44.208984375 48.427734375,46.318359375 14.736328125,46.318359375 14.736328125,44.208984375z M14.736328125,37.91015625L48.427734375,37.91015625 48.427734375,40.01953125 14.736328125,40.01953125 14.736328125,37.91015625z M14.736328125,31.58203125L48.427734375,31.58203125 48.427734375,33.69140625 14.736328125,33.69140625 14.736328125,31.58203125z M10.517578125,27.36328125L10.517578125,58.9453125 52.646484375,58.9453125 52.646484375,27.36328125 10.517578125,27.36328125z M37.91015625,6.328125L44.208984375,6.328125 44.208984375,16.845703125 37.91015625,16.845703125 37.91015625,6.328125z M18.955078125,4.21875L18.955078125,18.955078125 48.427734375,18.955078125 48.427734375,4.21875 18.955078125,4.21875z M4.21875,4.21875L4.21875,58.9453125 8.408203125,58.9453125 8.408203125,25.25390625 54.755859375,25.25390625 54.755859375,58.9453125 58.9453125,58.9453125 58.9453125,10.517578125 52.646484375,4.21875 50.537109375,4.21875 50.537109375,21.064453125 16.845703125,21.064453125 16.845703125,4.21875 12.626953125,4.21875 12.626953125,8.408203125 8.408203125,8.408203125 8.408203125,4.21875 4.21875,4.21875z M0,0L54.375,0 63.1640625,8.7890625 63.1640625,63.1640625 0,63.1640625 0,0z" />
    </g>
  </g>
</svg>