<?xml version="1.0" encoding="utf-8"?>
<!DOCTYPE svg PUBLIC "-//W3C//DTD SVG 1.1//EN" "http://www.w3.org/Graphics/SVG/1.1/DTD/svg11.dtd">
<svg width="67.3828125000016" height="67.3828125" xmlns="http://www.w3.org/2000/svg" xmlns:xlink="http://www.w3.org/1999/xlink" xmlns:xml="http://www.w3.org/XML/1998/namespace" version="1.1">
  <g>
    <g>
      <path style="fill:#FF0000;fill-opacity:1" d="M33.69140625,48.427734375L32.197265625,49.072265625 31.58203125,50.56640625 32.2119140625,52.03125 33.69140625,52.646484375 52.646484375,52.646484375 54.1259765625,52.0166015625 54.755859375,50.537109375 54.111328125,49.0576171875 52.646484375,48.427734375 33.69140625,48.427734375z M43.154296875,35.80078125L41.9091796875,36.0498046875 40.927734375,36.73828125 40.2685546875,37.7490234375 40.01953125,38.96484375 40.01953125,40.01953125 39.2578125,39.990234375 38.49609375,39.9609375 37.03125,40.1806640625 36.2255859375,40.810546875 35.8740234375,41.77734375 35.80078125,42.978515625 35.80078125,44.208984375 34.3212890625,44.8388671875 33.69140625,46.318359375 52.646484375,46.318359375 52.0166015625,44.8388671875 50.537109375,44.208984375 50.537109375,42.12890625 50.2587890625,41.0009765625 49.541015625,40.3564453125 48.5302734375,40.078125 47.40234375,40.01953125 46.318359375,40.01953125 46.318359375,38.96484375 46.0693359375,37.734375 45.3955078125,36.7236328125 44.384765625,36.0498046875 43.154296875,35.80078125z M56.865234375,33.69140625L58.330078125,34.3212890625 58.9453125,35.80078125 58.330078125,37.2802734375 56.865234375,37.91015625 55.37109375,37.294921875 54.755859375,35.80078125 55.37109375,34.306640625 56.865234375,33.69140625z M52.646484375,27.36328125L54.1259765625,27.9931640625 54.755859375,29.47265625 54.140625,30.966796875 52.646484375,31.58203125 51.15234375,30.966796875 50.537109375,29.47265625 51.1669921875,27.9931640625 52.646484375,27.36328125z M29.47265625,27.36328125L29.47265625,42.24609375 26.923828125,38.056640625 23.49609375,34.51171875 20.4052715301514,32.325439453125 16.93359375,30.7470703125 13.23486328125,29.7912616729736 9.462890625,29.47265625 8.73046875,29.794921875 8.408203125,30.52734375 8.7158203125,31.2744140625 9.462890625,31.58203125 13.319091796875,31.937255859375 16.9189453125,33.0029296875 20.2478008270264,34.749755859375 23.291015625,37.1484375 25.75927734375,39.9755859375 27.65625,43.2421875 28.9013671875,46.80908203125 29.4140625,50.537109375 25.927734375,45.3369140625 21.2548828125,41.3525390625 18.5632305145264,39.8876953125 15.673828125,38.8037109375 12.626953125,38.133544921875 9.462890625,37.91015625 8.73046875,38.232421875 8.408203125,38.96484375 8.701171875,39.66796875 27.36328125,56.279296875 29.033203125,58.8720703125 29.53125,61.962890625 29.5166015625,62.548828125 29.47265625,63.1640625 33.69140625,63.1640625 33.69140625,54.755859375 32.05078125,54.4189453125 30.7177734375,53.5107421875 29.8095703125,52.177734375 29.47265625,50.537109375 30.0439453125,48.427734375 31.58203125,46.904296875 32.021484375,44.47265625 32.65869140625,43.46923828125 33.69140625,42.685546875 33.69140625,27.36328125 29.47265625,27.36328125z M47.373046875,21.064453125L44.1357383728027,21.38671875 41.044921875,22.353515625 38.22509765625,23.9428730010986 35.80078125,26.1328125 35.80078125,38.466796875 36.767578125,38.0419921875 37.822265625,37.91015625 37.998046875,37.91015625 38.6865234375,36.2255859375 39.84375,34.892578125 41.3671875,34.013671875 43.154296875,33.69140625 44.9267578125,34.013671875 46.494140625,34.892578125 47.6806640625,36.2255859375 48.310546875,37.91015625 50.2001953125,38.2763671875 51.5478515625,39.287109375 52.3681640625,40.810546875 52.646484375,42.685546875 53.6791954040527,43.46923828125 54.31640625,44.47265625 54.755859375,46.904296875 56.015625,48.0322265625 56.748046875,49.5703125 59.47265625,47.032470703125 61.494140625,43.9892578125 62.74658203125,40.557861328125 63.1640625,36.85546875 62.852783203125,33.6767578125 61.9189453125,30.703125 60.450439453125,28.0151386260986 58.53515625,25.693359375 56.21337890625,23.7780780792236 53.525390625,22.3095703125 50.5517539978027,21.375732421875 47.373046875,21.064453125z M5.2734375,4.21874952316284L4.5263671875,4.5263671875 4.21875,5.2734375 4.5263671875,6.0205078125 5.2734375,6.328125 15.791015625,6.328125 16.5380859375,6.6357421875 16.845703125,7.3828125 16.5234375,8.115234375 15.791015625,8.4375 9.462890625,8.4375 8.73046875,8.7451171875 8.408203125,9.462890625 8.73046875,10.1953125 9.462890625,10.517578125 20.009765625,10.517578125 20.7568359375,10.8251953125 21.064453125,11.572265625 20.7568359375,12.3193359375 20.009765625,12.626953125 13.681640625,12.626953125 12.9345703125,12.9345703125 12.626953125,13.681640625 12.9345703125,14.4287109375 13.681640625,14.736328125 21.064453125,14.736328125 24.345703125,15.3955078125 27.01171875,17.197265625 28.8134765625,19.8779296875 29.47265625,23.173828125 33.69140625,23.173828125 33.69140625,18.955078125 33.402099609375,15.999755859375 32.5341796875,13.2275390625 31.16455078125,10.71533203125 29.3701171875,8.5400390625 27.19482421875,6.74560832977295 24.6826171875,5.3759765625 21.9103984832764,4.50805950164795 18.955078125,4.21874952316284 5.2734375,4.21874952316284z M5.2734375,0L18.955078125,0 23.994140625,0.673828601837158 28.5205078125,2.59277296066284 32.34375,5.56640625 35.3173828125,9.3896484375 37.236328125,13.916015625 37.91015625,18.955078125 42.509765625,17.3291015625 47.373046875,16.845703125 52.6904296875,17.5634765625 57.48046875,19.5849609375 61.5234375,22.705078125 64.6435546875,26.748046875 66.6650390625,31.5380859375 67.3828125,36.85546875 66.73828125,41.865234375 64.8779296875,46.5234375 61.93359375,50.56640625 58.037109375,53.759765625 56.865234375,55.224609375 56.865234375,67.3828125 25.25390625,67.3828125 25.25390625,61.0546875 25.0634765625,60.1904296875 24.609375,59.443359375 5.7421875,42.65625 4.599609375,40.986328125 4.21875,38.96484375 4.775390625,36.6064453125 6.328125,34.74609375 4.775390625,32.8857421875 4.21875,30.52734375 4.62890625,28.4912109375 5.7568359375,26.8212890625 7.4267578125,25.693359375 9.462890625,25.283203125 13.681640625,25.6237812042236 17.783203125,26.6455078125 21.6723613739014,28.3117694854736 25.25390625,30.5859375 25.25390625,23.173828125 24.931640625,21.533203125 24.0380859375,20.2001953125 22.705078125,19.2919921875 21.064453125,18.955078125 13.681640625,18.955078125 11.8505859375,18.6328125 10.2978515625,17.7392578125 9.140625,16.376953125 8.49609375,14.6484365463257 7.02026271820068,14.1357421875 5.7568359375,13.18359375 4.81567287445068,11.9091796875 4.306640625,10.4296875 2.57812404632568,9.78515625 1.2158203125,8.6279296875 0.322265148162842,7.08984422683716 0,5.2734375 0.410156726837158,3.22265577316284 1.5380859375,1.53808617591858 3.20800685882568,0.410156488418579 5.2734375,0z" />
    </g>
  </g>
</svg>