<?xml version="1.0" encoding="utf-8"?>
<!DOCTYPE svg PUBLIC "-//W3C//DTD SVG 1.1//EN" "http://www.w3.org/Graphics/SVG/1.1/DTD/svg11.dtd">
<svg width="58.9453125" height="67.3828125" xmlns="http://www.w3.org/2000/svg" xmlns:xlink="http://www.w3.org/1999/xlink" xmlns:xml="http://www.w3.org/XML/1998/namespace" version="1.1">
  <g>
    <g>
      <path style="fill:#FF0000;fill-opacity:1" d="M35.80078125,58.974609375L34.16015625,59.296875 32.8271484375,60.1904296875 31.9189453125,61.5234375 31.58203125,63.1640625 44.208984375,63.1640625 43.88671875,61.5234375 42.9931640625,60.1904296875 41.66015625,59.296875 40.01953125,58.974609375 37.91015625,61.0546875 35.80078125,58.974609375z M18.955078125,58.974609375L17.314453125,59.296875 15.9814453125,60.1904296875 15.0732421875,61.5234375 14.736328125,63.1640625 27.36328125,63.1640625 27.041015625,61.5234375 26.1474609375,60.1904296875 24.814453125,59.296875 23.173828125,58.974609375 21.064453125,61.0546875 18.955078125,58.974609375z M29.47265625,21.064453125L26.2060546875,21.7236328125 23.525390625,23.525390625 21.7236328125,26.2060546875 21.064453125,29.47265625 21.064453125,58.095703125 22.294921875,56.865234375 22.67578125,56.865234375 25.2685546875,57.275390625 27.392578125,58.4765625 28.857421875,60.3955078125 29.47265625,62.958984375 30.0439453125,60.556640625 31.40625,58.623046875 33.3837890625,57.333984375 35.80078125,56.865234375 36.6796875,56.865234375 37.91015625,58.095703125 37.91015625,29.47265625 37.236328125,26.220703125 35.419921875,23.5546875 32.7392578125,21.73828125 29.47265625,21.064453125z M33.69140625,8.4375L32.05078125,8.759765625 30.7177734375,9.6533203125 29.8095703125,10.986328125 29.47265625,12.626953125 29.47265625,16.845703125 33.69140625,16.845703125 35.33203125,16.5087890625 36.6650390625,15.6005859375 37.5732421875,14.2675790786743 37.91015625,12.626953125 37.5732421875,10.986328125 36.6650390625,9.6533203125 35.33203125,8.759765625 33.69140625,8.4375z M26.30859375,6.328125L25.576171875,6.650390625 25.25390625,7.3828125 25.25390625,9.4921875 25.576171875,10.2099609375 26.30859375,10.517578125 27.041015625,10.2099609375 27.36328125,9.4921875 27.36328125,7.3828125 27.0556640625,6.6357421875 26.30859375,6.328125z M14.736328125,4.21874952316284L13.095703125,4.5556640625 11.7626953125,5.46386766433716 10.8544921875,6.796875 10.517578125,8.4375 16.845703125,8.4375 18.427734375,8.7451171875 19.7607421875,9.609375 20.68359375,10.8984375 21.064453125,12.451171875 21.73828125,9.31640625 23.466796875,6.73828077316284 26.0009765625,4.95117235183716 29.12109375,4.21874952316284 14.736328125,4.21874952316284z M14.736328125,0L29.47265625,0 32.208251953125,0.267336785793304 34.6728515625,1.06933546066284 36.83349609375,2.33276653289795 38.6572265625,3.98437476158142 40.1220703125,5.98388957977295 41.2060546875,8.291015625 41.8762168884277,10.8251953125 42.099609375,13.505859375 42.099609375,15.05859375 55.37109375,27.919921875 57.9931640625,31.494140625 58.707275390625,33.53759765625 58.9453125,35.80078125 58.9453125,44.296875 46.318359375,38.876953125 46.318359375,50.537109375 46.1206016540527,53.72314453125 45.52734375,56.8359375 47.080078125,58.59375 47.9736328125,60.46875 48.369140625,62.4609375 48.45703125,64.5703125 48.4423828125,65.947265625 48.427734375,67.3828125 10.517578125,67.3828125 10.5029296875,65.9765625 10.48828125,64.5703125 10.60546875,62.34375 11.044921875,60.3369140625 11.9384765625,58.5205078125 13.447265625,56.8359375 12.83203125,53.701171875 12.626953125,50.537109375 12.626953125,38.876953125 0,44.296875 0,35.80078125 0.238037168979645,33.53759765625 0.952148914337158,31.494140625 3.57421922683716,27.919921875 16.845703125,15.05859375 16.845703125,12.626953125 6.32812547683716,12.626953125 6.32812547683716,8.4375 7.00195360183716,5.1708984375 8.818359375,2.49023413658142 11.484375,0.673828601837158 14.736328125,0z" />
    </g>
  </g>
</svg>