<?xml version="1.0" encoding="utf-8"?>
<!DOCTYPE svg PUBLIC "-//W3C//DTD SVG 1.1//EN" "http://www.w3.org/Graphics/SVG/1.1/DTD/svg11.dtd">
<svg width="63.1640625000004" height="56.865234375" xmlns="http://www.w3.org/2000/svg" xmlns:xlink="http://www.w3.org/1999/xlink" xmlns:xml="http://www.w3.org/XML/1998/namespace" version="1.1">
  <g>
    <g>
      <path style="fill:#FF0000;fill-opacity:1" d="M29.47265625,27.392578125L22.119140625,42.12890625 28.41796875,42.12890625 23.173828125,52.646484375 40.01953125,35.80078125 31.58203125,35.80078125 35.80078125,27.392578125 29.47265625,27.392578125z M33.69140625,4.21875L31.146240234375,4.43115234375 28.7255859375,5.068359375 24.4482421875,7.4560546875 21.1962890625,11.1181640625 20.0573711395264,13.3483905792236 19.306640625,15.791015625 17.0947265625,15.0146484375 14.736328125,14.765625 12.630615234375,14.9743671417236 10.6494140625,15.6005859375 7.294921875,17.8564453125 5.0390625,21.1962890625 4.423828125,23.177490234375 4.21875,25.283203125 4.423828125,27.388916015625 5.0390625,29.3701171875 7.294921875,32.724609375 10.6494140625,34.98046875 12.630615234375,35.595703125 14.736328125,35.80078125 22.91015625,35.80078125 25.517578125,30.5126953125 28.18359375,25.283203125 39.19921875,25.283203125 37.08984375,29.4873046875 35.009765625,33.69140625 45.087890625,33.69140625 42.978515625,35.80078125 50.537109375,35.80078125 53.818359375,35.1416015625 56.484375,33.33984375 58.2861328125,30.673828125 58.9453125,27.392578125 58.2861328125,24.0966796875 56.484375,21.416015625 53.818359375,19.6142578125 50.537109375,18.955078125 48.427734375,18.955078125 48.1384239196777,15.9997577667236 47.2705078125,13.2275390625 45.9008750915527,10.71533203125 44.1064453125,8.5400390625 41.9311485290527,6.74560546875 39.4189453125,5.3759765625 36.646728515625,4.508056640625 33.69140625,4.21875z M33.69140625,0L36.954345703125,0.274658203125 40.0634765625,1.0986328125 42.9528770446777,2.4169921875 45.556640625,4.1748046875 49.74609375,8.876953125 51.2255821228027,11.7333993911743 52.20703125,14.853515625 54.4665489196777,15.3735370635986 56.5576171875,16.2890625 60.029296875,19.072265625 62.3291015625,22.880859375 62.955322265625,25.078125 63.1640625,27.392578125 62.9150390625,29.923095703125 62.16796875,32.2998046875 59.4580078125,36.3134765625 55.4443359375,39.0234375 53.0676231384277,39.7705078125 50.537109375,40.01953125 41.748046875,40.01953125 24.90234375,56.865234375 16.318359375,56.865234375 21.591796875,46.34765625 15.29296875,46.34765625 18.45703125,40.01953125 14.736328125,40.01953125 11.781005859375,39.730224609375 9.0087890625,38.8623046875 6.49658107757568,37.49267578125 4.3212890625,35.6982421875 2.52685546875,33.52294921875 1.1572265625,31.0107421875 0.289306282997131,28.238525390625 0,25.283203125 0.289306282997131,22.327880859375 1.1572265625,19.5556640625 2.52685546875,17.0434589385986 4.3212890625,14.8681640625 6.49658107757568,13.0737323760986 9.0087890625,11.7041015625 11.781005859375,10.836181640625 14.736328125,10.546875 15.703125,10.576171875 16.669921875,10.6640625 19.6435546875,6.2841796875 23.6572265625,2.9150390625 28.4326171875,0.76171875 31.029052734375,0.1904296875 33.69140625,0z" />
    </g>
  </g>
</svg>