<?xml version="1.0" encoding="utf-8"?>
<!DOCTYPE svg PUBLIC "-//W3C//DTD SVG 1.1//EN" "http://www.w3.org/Graphics/SVG/1.1/DTD/svg11.dtd">
<svg width="67.3828125000008" height="56.484375" xmlns="http://www.w3.org/2000/svg" xmlns:xlink="http://www.w3.org/1999/xlink" xmlns:xml="http://www.w3.org/XML/1998/namespace" version="1.1">
  <g>
    <g>
      <path style="fill:#FF0000;fill-opacity:1" d="M22.44140625,10.517578125L20.0500469207764,10.751953125 17.7978515625,11.455078125 14.00390625,14.00390625 11.455078125,17.7978515625 10.751953125,20.0500507354736 10.517578125,22.44140625 10.74462890625,24.766845703125 11.42578125,26.9970703125 12.5244140625,29.051513671875 14.00390625,30.849609375 33.69140625,50.537109375 53.349609375,30.849609375 54.8290977478027,29.051513671875 55.927734375,26.9970703125 56.60888671875,24.766845703125 56.8359375,22.44140625 56.6015625,20.0537128448486 55.8984375,17.8125 53.349609375,14.0185546875 49.5703125,11.455078125 47.3290977478027,10.751953125 44.94140625,10.517578125 41.6162109375,10.9570302963257 38.935546875,12.158203125 36.6064453125,13.9453125 34.3359375,16.171875 33.69140625,16.845703125 33.046875,16.171875 30.7763671875,13.9453125 28.447265625,12.158203125 25.7666015625,10.9570302963257 22.44140625,10.517578125z M45.263671875,6.298828125L44.5166015625,6.6064453125 44.208984375,7.353515625 44.5166015625,8.1005859375 45.263671875,8.408203125 47.9956016540527,8.67919921875 50.56640625,9.4921875 52.8991661071777,10.770263671875 54.9169921875,12.4365234375 56.583251953125,14.454345703125 57.861328125,16.787109375 58.67431640625,19.3579120635986 58.9453125,22.08984375 59.267578125,22.822265625 60,23.14453125 60.7470703125,22.8369140625 61.0546875,22.08984375 60.743408203125,18.9111347198486 59.8095703125,15.9375 58.341064453125,13.24951171875 56.42578125,10.927734375 54.1040000915527,9.012451171875 51.416015625,7.5439453125 48.4423789978027,6.610107421875 45.263671875,6.298828125z M22.119140625,6.298828125L18.9404277801514,6.610107421875 15.966796875,7.5439453125 13.27880859375,9.012451171875 10.95703125,10.927734375 9.041748046875,13.24951171875 7.5732421875,15.9375 6.63940334320068,18.9111347198486 6.328125,22.08984375 6.6357421875,22.8369140625 7.3828125,23.14453125 8.1005859375,22.822265625 8.408203125,22.08984375 8.67919921875,19.3359394073486 9.4921875,16.7578125 10.770263671875,14.425048828125 12.4365234375,12.4072265625 14.454345703125,10.74462890625 16.787109375,9.4775390625 19.3652324676514,8.675537109375 22.119140625,8.408203125 22.8515625,8.0859375 23.173828125,7.353515625 22.8515625,6.62109375 22.119140625,6.298828125z M53.701171875,4.18945217132568L52.96875,4.51171875 52.646484375,5.244140625 52.7783203125,5.7861328125 53.203125,6.18163967132568 53.73046875,6.533203125 55.5029296875,7.7197265625 57.0849609375,8.935546875 58.5205078125,10.341796875 59.912109375,12.12890625 60.52734375,13.1396484375 61.171875,14.150390625 61.5673828125,14.560546875 62.109375,14.736328125 62.8564453125,14.4287109375 63.1640625,13.681640625 63.046875,13.18359375 61.4794921875,10.5615234375 59.296875,8.0712890625 56.7626953125,5.9033203125 54.169921875,4.30663967132568 53.701171875,4.18945217132568z M13.681640625,4.18945217132568L13.212890625,4.30663967132568 10.6201171875,5.9033203125 8.0859375,8.0712890625 5.888671875,10.5615234375 4.33593845367432,13.18359375 4.21875,13.681640625 4.5263671875,14.4287109375 5.2734375,14.736328125 5.8154296875,14.560546875 6.2109375,14.150390625 6.85546875,13.1396484375 7.470703125,12.12890625 8.8623046875,10.341796875 10.2978515625,8.935546875 11.8798828125,7.7197265625 13.65234375,6.533203125 14.1796875,6.18163967132568 14.6044921875,5.7861328125 14.736328125,5.244140625 14.4140625,4.51171875 13.681640625,4.18945217132568z M13.681640625,0L16.259765625,0.659178972244263 18.1640625,2.49023413658142 20.126953125,2.19726538658142 22.119140625,2.10937476158142 24.0966796875,2.49023413658142 25.72265625,3.54492115974426 26.865234375,5.126953125 27.36328125,7.08984375 30.76171875,8.5986328125 33.69140625,10.869140625 36.62109375,8.5986328125 40.01953125,7.08984375 40.517578125,5.126953125 41.66015625,3.54492115974426 43.2861328125,2.49023413658142 45.263671875,2.10937476158142 47.255859375,2.19726538658142 49.21875,2.49023413658142 51.123046875,0.659178972244263 53.701171875,0 56.337890625,0.688476085662842 59.326171875,2.51953148841858 62.2998046875,5.1123046875 64.8779296875,8.0859375 66.6943359375,11.0888671875 67.3828125,13.740234375 66.6943359375,16.259765625 64.892578125,18.1640625 65.2734375,22.08984375 64.892578125,24.0673828125 63.837890625,25.7080078125 62.255859375,26.865234375 60.29296875,27.36328125 58.70361328125,30.84228515625 56.337890625,33.837890625 33.69140625,56.484375 11.044921875,33.837890625 8.67919921875,30.84228515625 7.08984375,27.36328125 5.126953125,26.865234375 3.544921875,25.7080078125 2.490234375,24.0673828125 2.109375,22.08984375 2.490234375,18.1640625 0.6298828125,16.2158203125 0,13.59375 0.703125,11.0009765625 2.5341796875,8.0419921875 5.126953125,5.0830078125 8.1005859375,2.50488305091858 11.07421875,0.688476085662842 13.681640625,0z" />
    </g>
  </g>
</svg>