<?xml version="1.0" encoding="utf-8"?>
<!DOCTYPE svg PUBLIC "-//W3C//DTD SVG 1.1//EN" "http://www.w3.org/Graphics/SVG/1.1/DTD/svg11.dtd">
<svg width="67.3828125" height="67.3828125" xmlns="http://www.w3.org/2000/svg" xmlns:xlink="http://www.w3.org/1999/xlink" xmlns:xml="http://www.w3.org/XML/1998/namespace" version="1.1">
  <g>
    <g>
      <path style="fill:#FF0000;fill-opacity:1" d="M61.0546875,52.646484375L56.865234375,54.755859375 53.056640625,54.755859375 49.16015625,58.3740234375 44.560546875,61.0546875 56.865234375,61.0546875 61.0546875,63.1640625 63.1640625,63.1640625 63.1640625,52.646484375 61.0546875,52.646484375z M34.74609375,27.392578125L32.552490234375,27.6123065948486 30.4248046875,28.271484375 26.71875,30.6591796875 24.140625,34.2041015625 23.4155254364014,36.302490234375 23.173828125,38.525390625 23.3862285614014,40.938720703125 24.0234375,43.1982421875 26.4111328125,47.0068359375 30.0732421875,49.5849609375 32.303466796875,50.299072265625 34.74609375,50.537109375 37.0751953125,50.31005859375 39.2578125,49.62890625 42.9345703125,47.1533203125 45.41015625,43.4765625 46.0913047790527,41.2939453125 46.318359375,38.96484375 46.0913047790527,36.6357421875 45.41015625,34.453125 42.9345703125,30.7763671875 39.2578125,28.30078125 37.0751953125,27.6196308135986 34.74609375,27.392578125z M63.1640625,20.009765625L60.439453125,20.7568359375 57.65625,21.123046875 56.2060546875,21.09375 54.755859375,21.064453125 52.1044921875,21.4892578125 49.6875,22.67578125 51.2109375,24.19921875 51.85546875,23.8037109375 52.705078125,23.4814453125 53.583984375,23.26171875 54.345703125,23.173828125 58.9453125,23.173828125 59.7216796875,23.3203125 60.9521484375,23.642578125 62.2412109375,23.994140625 63.1640625,24.228515625 63.1640625,20.009765625z M35.126953125,16.845703125L31.3623046875,17.11669921875 27.861328125,17.9296875 24.55810546875,19.32861328125 21.38671875,21.357421875 21.1376953125,23.3056640625 21.064453125,25.283203125 21.064453125,31.083984375 23.6572265625,27.71484375 26.9677734375,25.2392578125 30.8203125,23.701171875 35.0390625,23.173828125 38.02734375,23.49609375 40.8984375,24.404296875 43.359375,18.57421875 39.3310546875,17.314453125 35.126953125,16.845703125z M61.0546875,15.791015625L58.30078125,16.552734375 55.458984375,16.904296875 53.818359375,16.875 52.177734375,16.845703125 50.4345703125,17.0947265625 48.7646484375,17.75390625 47.2412109375,18.720703125 45.9375,19.892578125 46.8310546875,20.4931640625 47.75390625,21.064453125 48.6767578125,20.244140625 49.8193359375,19.5849609375 51.0498046875,19.130859375 52.265625,18.955078125 56.865234375,18.955078125 57.5830078125,19.1015625 58.88671875,19.423828125 60.2197265625,19.775390625 61.0546875,20.009765625 61.0546875,15.791015625z M4.21875,4.21874952316284L4.21875,6.328125 7.8076171875,10.4296875 10.4443359375,15.1904296875 12.0703125,20.390625 12.626953125,25.810546875 12.6416015625,32.3876953125 12.65625,38.96484375 12.65625,40.01953125 12.864990234375,42.886962890625 13.4912109375,45.6298828125 15.8203125,50.654296875 19.3798828125,54.9169921875 23.8916015625,58.1982421875 29.1064453125,60.3076171875 34.74609375,61.0546875 35.80078125,61.0546875 39.77783203125,60.47607421875 43.564453125,59.208984375 47.0654258728027,57.2900390625 50.185546875,54.755859375 52.2216796875,52.587890625 53.84765625,50.126953125 56.103515625,44.7216796875 56.6748046875,41.868896484375 56.865234375,38.96484375 56.43310546875,34.5703125 55.13671875,30.3515625 49.306640625,32.8125 50.2294921875,35.830078125 50.537109375,38.96484375 50.2258262634277,42.1435546875 49.2919921875,45.1171875 47.8234825134277,47.80517578125 45.908203125,50.126953125 43.5864219665527,52.042236328125 40.8984375,53.5107421875 37.9248046875,54.444580078125 34.74609375,54.755859375 31.585693359375,54.444580078125 28.6083984375,53.5107421875 25.909423828125,52.042236328125 23.583984375,50.126953125 21.6686992645264,47.801513671875 20.2001953125,45.1025390625 19.2663555145264,42.125244140625 18.955078125,38.96484375 18.955078125,25.283203125 19.5007305145264,19.9072265625 21.1376953125,14.912109375 23.792724609375,10.36376953125 27.392578125,6.328125 27.392578125,4.21874952316284 4.21875,4.21874952316284z M0,0L31.58203125,0 31.58203125,8.14453125 28.828125,10.8837890625 26.455078125,13.974609375 30.556640625,12.9638671875 34.74609375,12.626953125 40.166015625,13.212890625 45.380859375,14.853515625 48.8525390625,13.1982421875 52.646484375,12.626953125 53.90625,12.65625 55.166015625,12.685546875 57.626953125,12.3486328125 60.029296875,11.689453125 65.2734375,10.400390625 65.2734375,15.1171875 67.3828125,14.58984375 67.3828125,29.619140625 64.7900390625,28.9453125 62.197265625,28.30078125 60.29296875,27.8173828125 58.388671875,27.392578125 60.41015625,33.017578125 61.083984375,38.96484375 60.6005859375,44.033203125 59.12109375,48.896484375 60.087890625,48.427734375 67.3828125,48.427734375 67.3828125,67.3828125 60.087890625,67.3828125 57.9638671875,66.3427734375 55.869140625,65.2734375 34.74609375,65.2734375 32.080078125,65.15625 29.443359375,64.74609375 25.634765625,63.6474609375 22.119140625,62.05078125 18.9331035614014,60.00732421875 16.11328125,57.568359375 13.677978515625,54.744873046875 11.6455078125,51.5478515625 10.059814453125,48.028564453125 8.96484375,44.23828125 8.5546875,41.54296875 8.4375,38.818359375 8.4228515625,32.0361328125 8.408203125,25.25390625 7.93945217132568,20.789794921875 6.533203125,16.5966796875 4.29931545257568,12.769775390625 1.34765625,9.404296875 0,8.14453125 0,0z" />
    </g>
  </g>
</svg>