<?xml version="1.0" encoding="utf-8"?>
<!DOCTYPE svg PUBLIC "-//W3C//DTD SVG 1.1//EN" "http://www.w3.org/Graphics/SVG/1.1/DTD/svg11.dtd">
<svg width="67.3828125000013" height="67.3828125" xmlns="http://www.w3.org/2000/svg" xmlns:xlink="http://www.w3.org/1999/xlink" xmlns:xml="http://www.w3.org/XML/1998/namespace" version="1.1">
  <g>
    <g>
      <path style="fill:#FF0000;fill-opacity:1" d="M54.755859375,37.91015625L54.755859375,60 55.0048828125,61.2158203125 55.6640625,62.2265625 56.6455078125,62.9150390625 57.890625,63.1640625 59.12109375,62.9150390625 60.1318359375,62.2412109375 60.8056640625,61.2451171875 61.0546875,60 61.0546875,37.91015625 54.755859375,37.91015625z M6.328125,27.36328125L6.328125,60 6.5771484375,61.2158203125 7.236328125,62.2265625 8.2177734375,62.9150390625 9.462890625,63.1640625 10.693359375,62.9150390625 11.7041015625,62.2412109375 12.3779296875,61.2451171875 12.626953125,60 12.626953125,27.36328125 6.328125,27.36328125z M33.69140625,21.064453125L31.160888671875,21.3134765625 28.7841796875,22.060546875 24.7705078125,24.7705078125 22.060546875,28.7841796875 21.3134746551514,31.160888671875 21.064453125,33.69140625 21.3134746551514,36.221923828125 22.060546875,38.5986328125 24.7705078125,42.6123046875 28.7841796875,45.322265625 31.160888671875,46.0693359375 33.69140625,46.318359375 36.221923828125,46.0693359375 38.5986328125,45.322265625 42.6123046875,42.6123046875 45.322265625,38.5986328125 46.0693321228027,36.221923828125 46.318359375,33.69140625 46.0693321228027,31.160888671875 45.322265625,28.7841796875 42.6123046875,24.7705078125 38.5986328125,22.060546875 36.221923828125,21.3134765625 33.69140625,21.064453125z M33.69140625,18.955078125L36.646728515625,19.244384765625 39.4189453125,20.1123046875 41.9311485290527,21.48193359375 44.1064453125,23.2763671875 45.9008750915527,25.4516620635986 47.2705078125,27.9638671875 48.1384239196777,30.7360858917236 48.427734375,33.69140625 48.1384239196777,36.646728515625 47.2705078125,39.4189453125 45.9008750915527,41.93115234375 44.1064453125,44.1064453125 41.9311485290527,45.90087890625 39.4189453125,47.2705078125 36.646728515625,48.138427734375 33.69140625,48.427734375 30.732421875,48.138427734375 27.94921875,47.2705078125 25.4296875,45.904541015625 23.26171875,44.12109375 21.4782695770264,41.953125 20.1123046875,39.43359375 19.2443828582764,36.650390625 18.955078125,33.69140625 19.2443828582764,30.7360858917236 20.1123046875,27.9638671875 21.4819316864014,25.4516620635986 23.2763671875,23.2763671875 25.45166015625,21.48193359375 27.9638671875,20.1123046875 30.736083984375,19.244384765625 33.69140625,18.955078125z M33.69140625,14.736328125L28.65234375,15.41015625 24.1259765625,17.3291015625 20.302734375,20.302734375 17.3291015625,24.1259765625 15.41015625,28.65234375 14.736328125,33.69140625 15.41015625,38.73046875 17.3291015625,43.2568359375 20.302734375,47.080078125 24.1259765625,50.0537109375 28.65234375,51.97265625 33.69140625,52.646484375 38.73046875,51.97265625 43.2568359375,50.0537109375 47.080078125,47.080078125 50.0537109375,43.2568359375 51.97265625,38.73046875 52.646484375,33.69140625 51.97265625,28.65234375 50.0537109375,24.1259765625 47.080078125,20.302734375 43.2568359375,17.3291015625 38.73046875,15.41015625 33.69140625,14.736328125z M54.755859375,4.21874952316284L54.755859375,35.80078125 61.0546875,35.80078125 61.0546875,33.69140625 62.548828125,33.076171875 63.1640625,31.58203125 63.1640625,12.626953125 62.5048828125,9.345703125 60.703125,6.6796875 58.037109375,4.8779296875 54.755859375,4.21874952316284z M5.2734375,4.21874952316284L4.5263671875,4.5263671875 4.21875,5.2734375 4.21875,20.009765625 4.8046875,22.3388671875 6.328125,24.19921875 6.328125,25.283203125 12.626953125,25.283203125 12.626953125,24.19921875 14.150390625,22.3388671875 14.736328125,20.009765625 14.736328125,5.2734375 14.4287109375,4.5263671875 13.681640625,4.21874952316284 12.9345703125,4.5263671875 12.626953125,5.2734375 12.626953125,16.845703125 12.3193359375,17.5927734375 11.572265625,17.900390625 10.8251953125,17.5927734375 10.517578125,16.845703125 10.517578125,5.2734375 10.2099609375,4.5263671875 9.462890625,4.21874952316284 8.73046875,4.541015625 8.408203125,5.2734375 8.408203125,16.845703125 8.1005859375,17.578125 7.3828125,17.900390625 6.6357421875,17.5927734375 6.328125,16.845703125 6.328125,5.2734375 6.0205078125,4.5263671875 5.2734375,4.21874952316284z M5.2734375,0L13.681640625,0 15.732421875,0.410156488418579 17.4169921875,1.53808617591858 18.544921875,3.22265577316284 18.955078125,5.2734375 18.955078125,15.849609375 22.2473125457764,13.57177734375 25.8544921875,11.89453125 29.696044921875,10.86181640625 33.69140625,10.517578125 38.408203125,10.99365234375 42.890625,12.421875 46.9848594665527,14.72900390625 50.537109375,17.841796875 50.537109375,0 54.755859375,0 57.286376953125,0.249026298522949 59.6630859375,0.99609375 63.6767578125,3.70605516433716 66.38671875,7.71972703933716 67.1337890625,10.096435546875 67.3828125,12.626953125 67.3828125,35.80078125 66.767578125,37.294921875 65.2734375,37.91015625 65.2734375,60 64.6875,62.8564453125 63.10546875,65.2001953125 60.7763671875,66.796875 57.919921875,67.3828125 55.048828125,66.796875 52.705078125,65.21484375 51.123046875,62.87109375 50.537109375,60 50.537109375,49.541015625 46.9848594665527,52.65380859375 42.890625,54.9609375 38.408203125,56.38916015625 33.69140625,56.865234375 28.974609375,56.38916015625 24.4921875,54.9609375 20.3979473114014,52.65380859375 16.845703125,49.541015625 16.845703125,60 16.259765625,62.87109375 14.677734375,65.21484375 12.333984375,66.796875 9.462890625,67.3828125 6.6064453125,66.796875 4.27734375,65.2001953125 2.6953125,62.8564453125 2.109375,60 2.109375,25.95703125 0.5419921875,23.173828125 0,20.009765625 0,5.2734375 0.410156726837158,3.22265577316284 1.5380859375,1.53808617591858 3.20800685882568,0.410156488418579 5.2734375,0z" />
    </g>
  </g>
</svg>