<?xml version="1.0" encoding="utf-8"?>
<!DOCTYPE svg PUBLIC "-//W3C//DTD SVG 1.1//EN" "http://www.w3.org/Graphics/SVG/1.1/DTD/svg11.dtd">
<svg width="50.0390625" height="40.751953125" xmlns="http://www.w3.org/2000/svg" xmlns:xlink="http://www.w3.org/1999/xlink" xmlns:xml="http://www.w3.org/XML/1998/namespace" version="1.1">
  <g>
    <g>
      <path style="fill:#FF0000;fill-opacity:1" d="M22.529296875,28.7109375L22.529296875,30.17578125 27.71484375,30.17578125 27.71484375,28.7109375 29.970703125,30.87890625 27.71484375,32.958984375 27.71484375,31.494140625 22.529296875,31.494140625 22.529296875,32.98828125 20.09765625,30.87890625 22.529296875,28.7109375z M36.62109375,24.66796875L36.123046875,25.166015625 36.123046875,33.1640625 36.62109375,33.662109375 48.046875,33.662109375 48.515625,33.1640625 48.515625,25.166015625 48.046875,24.66796875 36.62109375,24.66796875z M2.02148389816284,24.66796875L1.5234375,25.166015625 1.5234375,33.1640625 2.02148389816284,33.662109375 13.447265625,33.662109375 13.916015625,33.1640625 13.916015625,25.166015625 13.447265625,24.66796875 2.02148389816284,24.66796875z M34.599609375,23.642578125L50.0390625,23.642578125 50.0390625,35.771484375 48.486328125,35.771484375 48.486328125,36.591796875 50.0390625,38.4375 50.0390625,40.751953125 34.599609375,40.751953125 34.599609375,38.4375 35.859375,36.591796875 35.859375,35.771484375 34.599609375,35.771484375 34.599609375,23.642578125z M0,23.642578125L15.439453125,23.642578125 15.439453125,35.771484375 13.88671875,35.771484375 13.88671875,36.591796875 15.439453125,38.4375 15.439453125,40.751953125 0,40.751953125 0,38.4375 1.259765625,36.591796875 1.259765625,35.771484375 0,35.771484375 0,23.642578125z M26.07421875,19.62890625L29.208984375,19.62890625 28.154296875,20.654296875 31.845703125,24.31640625 32.87109375,23.291015625 32.87109375,26.3671875 29.853515625,26.3671875 30.908203125,25.25390625 27.24609375,21.591796875 26.07421875,22.646484375 26.07421875,19.62890625z M20.80078125,19.62890625L23.96484375,19.62890625 23.96484375,22.705078125 22.79296875,21.650390625 19.130859375,25.3125 20.15625,26.3671875 17.138671875,26.3671875 17.138671875,23.349609375 18.193359375,24.404296875 21.85546875,20.712890625 20.80078125,19.62890625z M19.306640625,1.025390625L18.80859375,1.5234375 18.80859375,9.521484375 19.306640625,10.01953125 30.732421875,10.01953125 31.201171875,9.521484375 31.201171875,1.5234375 30.732421875,1.025390625 19.306640625,1.025390625z M17.28515625,0L32.724609375,0 32.724609375,12.12890625 31.171875,12.12890625 31.171875,12.94921875 32.724609375,14.794921875 32.724609375,17.109375 17.28515625,17.109375 17.28515625,14.794921875 18.544921875,12.94921875 18.544921875,12.12890625 17.28515625,12.12890625 17.28515625,0z" />
    </g>
  </g>
</svg>