<?xml version="1.0" encoding="utf-8"?>
<!DOCTYPE svg PUBLIC "-//W3C//DTD SVG 1.1//EN" "http://www.w3.org/Graphics/SVG/1.1/DTD/svg11.dtd">
<svg width="67.3828125000007" height="67.3828125" xmlns="http://www.w3.org/2000/svg" xmlns:xlink="http://www.w3.org/1999/xlink" xmlns:xml="http://www.w3.org/XML/1998/namespace" version="1.1">
  <g>
    <g>
      <path style="fill:#FF0000;fill-opacity:1" d="M16.845703125,40.01953125L21.064453125,40.01953125 24.345703125,45.732421875 24.697265625,46.1865234375 25.283203125,46.318359375 26.220703125,45.76171875 29.47265625,40.01953125 37.91015625,40.01953125 41.19140625,45.732421875 41.54296875,46.1865234375 42.12890625,46.318359375 43.06640625,45.76171875 46.318359375,40.01953125 50.537109375,40.01953125 50.3027305603027,42.7880859375 49.599609375,45.52734375 46.9775390625,50.5517578125 42.978515625,54.521484375 40.5541954040527,55.9423828125 37.91015625,56.865234375 34.62890625,51.123046875 33.69140625,50.537109375 32.75390625,51.123046875 29.47265625,56.865234375 26.82861328125,55.9423828125 24.404296875,54.521484375 20.4052734375,50.5517578125 17.783203125,45.52734375 17.0800762176514,42.7880859375 16.845703125,40.01953125z M33.69140625,29.47265625L34.248046875,29.6484375 34.62890625,30.087890625 35.0390625,30.8349609375 35.6982421875,32.080078125 36.4599609375,33.57421875 37.177734375,35.0537109375 37.705078125,36.240234375 37.91015625,36.884765625 37.587890625,37.6025390625 36.85546875,37.91015625 30.52734375,37.91015625 29.794921875,37.6025390625 29.47265625,36.884765625 29.677734375,36.2255859375 30.205078125,35.0390625 30.9228515625,33.5888671875 31.669921875,32.109375 32.314453125,30.849609375 32.75390625,30.05859375 33.134765625,29.619140625 33.69140625,29.47265625z M45.263671875,21.064453125L45.9521484375,21.2548828125 46.435546875,21.796875 46.9482421875,22.7197265625 47.7685546875,24.287109375 48.7060546875,26.162109375 49.599609375,28.0224609375 50.2734375,29.5166015625 50.537109375,30.29296875 50.15625,31.2158203125 49.21875,31.58203125 41.30859375,31.58203125 40.37109375,31.2158203125 39.990234375,30.29296875 40.25390625,29.5166015625 40.927734375,28.0224609375 41.8212890625,26.162109375 42.7587890625,24.287109375 43.5791015625,22.7197265625 44.091796875,21.796875 44.5751953125,21.2548828125 45.263671875,21.064453125z M22.119140625,21.064453125L22.79296875,21.2548828125 23.26171875,21.796875 23.7744140625,22.7197265625 24.5947265625,24.287109375 25.546875,26.162109375 26.455078125,28.0224609375 27.12890625,29.5166015625 27.392578125,30.29296875 26.9970703125,31.2158203125 26.044921875,31.58203125 18.1640625,31.58203125 17.2265625,31.2158203125 16.845703125,30.29296875 17.109375,29.501953125 17.7685546875,28.0224609375 18.6474609375,26.1767578125 19.5849609375,24.3017578125 20.4052734375,22.734375 20.91796875,21.796875 21.4013671875,21.240234375 22.119140625,21.064453125z M42.099609375,12.978515625L41.513671875,15.322265625 40.13671875,17.2119140625 38.173828125,18.486328125 35.80078125,18.955078125 23.173828125,18.955078125 19.2041015625,18.4130859375 15.52734375,16.81640625 10.7666015625,20.888671875 7.2216796875,25.927734375 4.9951171875,31.69921875 4.412841796875,34.775390625 4.21875,37.91015625 4.44580078125,41.33056640625 5.126953125,44.619140625 7.67578125,50.654296875 11.6162109375,55.7666015625 16.728515625,59.70703125 22.763671875,62.255859375 26.05224609375,62.93701171875 29.47265625,63.1640625 37.91015625,63.1640625 41.3305625915527,62.93701171875 44.619140625,62.255859375 50.654296875,59.70703125 55.7666015625,55.7666015625 59.70703125,50.654296875 62.255859375,44.619140625 62.93701171875,41.33056640625 63.1640625,37.91015625 62.4462890625,31.93359375 60.41015625,26.42578125 57.2021484375,21.5771484375 52.96875,17.5927734375 47.8857421875,14.6630859375 42.099609375,12.978515625z M31.58203125,4.21874952316284L31.58203125,4.74609375 34.130859375,7.0458984375 36.09375,9.78515625 37.3681640625,12.890625 37.880859375,16.2890625 39.3896484375,14.765625 40.01953125,12.71484375 40.01953125,4.21874952316284 31.58203125,4.21874952316284z M10.517578125,4.21874952316284L10.517578125,4.48242139816284 10.7666015625,6.8408203125 11.513671875,9.111328125 14.1796875,13.0517578125 18.046875,15.8056640625 20.3027324676514,16.585693359375 22.67578125,16.845703125 35.80078125,16.845703125 35.80078125,16.46484375 35.3466796875,13.4033203125 34.0869140625,10.5322265625 32.16796875,8.0126953125 29.7216796875,6.0205078125 26.8798828125,4.70214891433716 23.818359375,4.21874952316284 10.517578125,4.21874952316284z M6.328125,0L44.208984375,0 44.208984375,9.140625 50.5810546875,11.337890625 56.19140625,14.853515625 60.8349609375,19.4677734375 64.3505859375,24.990234375 66.591796875,31.2158203125 67.18505859375,34.522705078125 67.3828125,37.91015625 67.119140625,41.905517578125 66.328125,45.7470703125 65.057373046875,49.38720703125 63.3544921875,52.7783203125 61.241455078125,55.902099609375 58.740234375,58.740234375 55.902099609375,61.241455078125 52.7783203125,63.3544921875 49.3872032165527,65.057373046875 45.7470703125,66.328125 41.9055137634277,67.119140625 37.91015625,67.3828125 29.47265625,67.3828125 25.477294921875,67.119140625 21.6357421875,66.328125 17.9956035614014,65.057373046875 14.6044921875,63.3544921875 11.480712890625,61.241455078125 8.642578125,58.740234375 6.14135646820068,55.902099609375 4.0283203125,52.7783203125 2.325439453125,49.38720703125 1.0546875,45.7470703125 0.263671517372131,41.905517578125 0,37.91015625 0.7177734375,31.5087890625 2.783203125,25.4736328125 6.0791015625,20.0244140625 10.517578125,15.3515625 8.1884765625,12.099609375 6.943359375,8.7890625 6.4306640625,5.2587890625 6.328125,1.31835985183716 6.328125,0z" />
    </g>
  </g>
</svg>