<?xml version="1.0" encoding="utf-8"?>
<!DOCTYPE svg PUBLIC "-//W3C//DTD SVG 1.1//EN" "http://www.w3.org/Graphics/SVG/1.1/DTD/svg11.dtd">
<svg width="67.3828125000011" height="67.3828125" xmlns="http://www.w3.org/2000/svg" xmlns:xlink="http://www.w3.org/1999/xlink" xmlns:xml="http://www.w3.org/XML/1998/namespace" version="1.1">
  <g>
    <g>
      <path style="fill:#FF0000;fill-opacity:1" d="M17.900390625,23.173828125L19.1162109375,23.4228515625 20.126953125,24.0966796875 20.8154296875,25.0927734375 21.064453125,26.30859375 21.064453125,30.52734375 20.8154296875,31.7724609375 20.1416015625,32.7685546875 19.130859375,33.4423828125 17.900390625,33.69140625 16.6552734375,33.4423828125 15.6591796875,32.7685546875 14.9853515625,31.7724609375 14.736328125,30.52734375 14.736328125,26.30859375 14.9853515625,25.078125 15.673828125,24.08203125 16.6845703125,23.4228515625 17.900390625,23.173828125z M49.482421875,6.328125L50.6982421875,6.5771484375 51.708984375,7.23632764816284 52.3974609375,8.232421875 52.646484375,9.462890625 52.3974609375,10.7080078125 51.7236328125,11.7041015625 50.712890625,12.3779296875 49.482421875,12.626953125 48.2373046875,12.3779296875 47.2412109375,11.7041015625 46.5673828125,10.7080078125 46.318359375,9.462890625 46.5673828125,8.232421875 47.255859375,7.23632764816284 48.2666015625,6.5771484375 49.482421875,6.328125z M33.69140625,4.21874952316284L30.498046875,4.39453125 27.36328125,4.98046827316284 27.36328125,46.318359375 27.041015625,47.958984375 26.1474609375,49.2919921875 24.814453125,50.2001953125 23.173828125,50.537109375 21.5185546875,50.21484375 20.1708984375,49.3212890625 19.27734375,47.9736328125 18.955078125,46.318359375 18.955078125,35.68359375 20.6396484375,35.0244140625 21.97265625,33.8525390625 22.8515625,32.314453125 23.173828125,30.52734375 23.203125,29.1796875 23.232421875,27.83203125 23.0419921875,25.576171875 22.3681640625,23.61328125 21.064453125,22.08984375 18.955078125,21.15234375 18.955078125,9.43359375 16.93359375,11.42578125 15.146484375,13.76953125 13.681640625,16.318359375 12.626953125,18.955078125 12.1142578125,20.5224609375 11.396484375,22.353515625 10.4736328125,24.1845703125 9.3310546875,25.78125 7.9541015625,26.923828125 6.328125,27.36328125 4.8486328125,27.9931640625 4.21875,29.47265625 4.5263671875,30.7177734375 5.302734375,31.318359375 6.328125,31.5234375 7.35351657867432,31.640625 8.1298828125,31.93359375 8.4375,32.63671875 8.2763671875,33.2373046875 7.8515625,33.5595703125 7.265625,33.6767578125 6.650390625,33.69140625 6.328125,33.69140625 4.833984375,34.306640625 4.21875,35.80078125 4.833984375,37.294921875 6.328125,37.91015625 7.57324123382568,38.140869140625 8.671875,38.8330078125 10.4736328125,41.07421875 11.77734375,43.8427734375 12.626953125,46.318359375 13.59375,48.8525390625 14.8828125,51.240234375 18.0578594207764,55.341796875 21.8994140625,58.447265625 26.407470703125,60.40283203125 31.58203125,61.0546875 31.58203125,54.755859375 33.2373046875,56.3232421875 35.15625,57.568359375 41.66015625,60.3955078125 48.75,62.109375 56.044921875,62.9443359375 63.1640625,63.1640625 63.1640625,58.974609375 61.376953125,58.798828125 59.6484375,58.359375 56.52099609375,56.868896484375 54.345703125,54.6826171875 53.0712852478027,51.851806640625 52.646484375,48.427734375 52.646484375,40.01953125 52.8515586853027,42.125244140625 53.466796875,44.1064453125 55.72265625,47.4609375 59.0771484375,49.716796875 61.058349609375,50.33203125 63.1640625,50.537109375 63.1640625,16.845703125 61.058349609375,17.054443359375 59.0771484375,17.6806640625 55.7373046875,19.9365234375 53.4814453125,23.2763671875 52.8552207946777,25.2575702667236 52.646484375,27.36328125 52.646484375,18.955078125 53.0712852478027,15.53466796875 54.345703125,12.71484375 56.52099609375,10.53955078125 59.6484375,9.052734375 61.376953125,8.61328125 63.1640625,8.4375 63.1640625,4.21874952316284 42.12890625,4.21874952316284 42.12890625,50.361328125 41.806640625,52.03125 40.9130859375,53.4375 39.580078125,54.404296875 37.91015625,54.755859375 36.240234375,54.404296875 34.9072265625,53.4375 34.013671875,52.03125 33.69140625,50.361328125 33.69140625,4.21874952316284z M33.69140625,0L67.3828125,0 67.3828125,67.3828125 59.3408203125,67.2802734375 51.2841796875,66.708984375 43.388671875,65.2880859375 35.80078125,62.63671875 35.80078125,65.2734375 31.58203125,65.2734375 27.509765625,64.94384765625 23.73046875,63.955078125 20.2697734832764,62.373046875 17.1533203125,60.263671875 14.403076171875,57.667236328125 12.041015625,54.6240234375 10.0927734375,51.207275390625 8.583984375,47.490234375 8.115234375,46.0546875 7.587890625,44.6337890625 6.9140625,43.30078125 6.005859375,42.099609375 3.6474609375,41.5283203125 1.7431640625,40.1513671875 0.468749523162842,38.173828125 0,35.80078125 0,29.47265625 0.468749523162842,27.099609375 1.7431640625,25.1220703125 3.6474609375,23.7451171875 6.005859375,23.173828125 7.5732421875,20.712890625 8.5546875,17.9296875 10.220947265625,13.956298828125 12.4072265625,10.4150390625 15.05859375,7.342529296875 18.1201171875,4.775390625 21.5588359832764,2.73193645477295 25.341796875,1.23046851158142 29.40673828125,0.307620018720627 33.69140625,0z" />
    </g>
  </g>
</svg>