<?xml version="1.0" encoding="utf-8"?>
<!DOCTYPE svg PUBLIC "-//W3C//DTD SVG 1.1//EN" "http://www.w3.org/Graphics/SVG/1.1/DTD/svg11.dtd">
<svg width="67.3828125" height="67.3828125" xmlns="http://www.w3.org/2000/svg" xmlns:xlink="http://www.w3.org/1999/xlink" xmlns:xml="http://www.w3.org/XML/1998/namespace" version="1.1">
  <g>
    <g>
      <path style="fill:#FF0000;fill-opacity:1" d="M33.57421875,40.60546875L33.486328125,40.693359375 32.67333984375,44.0478515625 31.2890625,47.138671875 29.410400390625,49.89990234375 27.1142578125,52.265625 24.44091796875,54.195556640625 21.4306640625,55.6494140625 18.1677227020264,56.561279296875 14.736328125,56.865234375 15.234375,59.326171875 16.5966796875,61.318359375 18.603515625,62.666015625 21.064453125,63.1640625 25.810546875,58.505859375 29.6044921875,53.1298828125 32.2412109375,47.1240234375 33.57421875,40.60546875z M58.9453125,40.517578125L58.9453125,63.1640625 61.0546875,63.1640625 61.0546875,41.748046875 58.9453125,40.517578125z M42.099609375,40.517578125L42.099609375,51.03515625 46.083984375,53.408203125 50.537109375,54.609375 50.537109375,40.517578125 48.5888671875,41.7041015625 46.318359375,42.12890625 44.0478515625,41.7041015625 42.099609375,40.517578125z M25.25390625,40.517578125L25.25390625,51.03515625 28.9453125,46.9482421875 30.234375,44.520263671875 31.11328125,41.89453125 29.47265625,42.12890625 27.2021484375,41.7041015625 25.25390625,40.517578125z M8.408203125,40.517578125L8.408203125,63.1640625 15.46875,63.1640625 13.8427734375,61.3037109375 13.0078125,59.326171875 12.685546875,57.1728515625 12.626953125,54.755859375 13.681640625,54.755859375 15.263671875,54.7412109375 16.845703125,54.609375 16.845703125,40.517578125 14.8974609375,41.7041015625 12.626953125,42.12890625 10.3564453125,41.7041015625 8.408203125,40.517578125z M33.837890625,40.37109375L35.1123046875,46.9775390625 37.7490234375,53.02734375 41.54296875,58.4619140625 46.318359375,63.1640625 48.779296875,62.666015625 50.7861328125,61.318359375 52.1484375,59.326171875 52.646484375,56.865234375 49.1638145446777,56.553955078125 45.8642578125,55.6201171875 42.8283653259277,54.13330078125 40.13671875,52.1630859375 37.833251953125,49.749755859375 35.9619140625,46.93359375 34.603271484375,43.7841796875 33.837890625,40.37109375z M33.69140625,4.21874952316284L33.69140625,10.517578125 8.408203125,35.80078125 8.73046875,37.44140625 9.6240234375,38.7744140625 10.95703125,39.6826171875 12.59765625,40.01953125 14.2529296875,39.697265625 15.6005859375,38.8037109375 16.5087890625,37.4560546875 16.845703125,35.80078125 33.69140625,10.517578125 25.95703125,33.69140625 25.8251953125,34.0869140625 25.5908203125,34.7900390625 25.3564453125,35.478515625 25.25390625,35.80078125 25.5908203125,37.44140625 26.4990234375,38.7744140625 27.83203125,39.6826171875 29.47265625,40.01953125 31.11328125,39.6826171875 32.4462890625,38.7744140625 33.3544921875,37.44140625 33.69140625,35.80078125 33.69140625,10.517578125 36.708984375,19.4677734375 39.66796875,28.4765625 41.513671875,33.984375 41.8359375,34.8779296875 42.099609375,35.80078125 42.744140625,37.998046875 44.443359375,39.55078125 46.34765625,39.990234375 47.98828125,39.6533203125 49.3212890625,38.7451171875 50.21484375,37.412109375 50.537109375,35.80078125 33.69140625,10.517578125 49.775390625,26.6015625 54.3603515625,31.171875 58.9453125,35.80078125 59.2822265625,37.44140625 60.1904296875,38.7744140625 61.5234375,39.6826171875 63.1640625,40.01953125 63.1640625,35.80078125 48.4130859375,23.173828125 33.69140625,10.517578125 42.099609375,10.517578125 40.01953125,12.626953125 48.427734375,12.626953125 45.263671875,9.462890625 48.427734375,6.328125 42.099609375,6.328125 42.099609375,4.21874952316284 33.69140625,4.21874952316284z M29.47265625,0L46.318359375,0 46.318359375,2.10937476158142 58.59375,2.10937476158142 51.240234375,9.462890625 58.59375,16.845703125 47.51953125,16.845703125 67.3828125,33.8671875 67.3828125,44.208984375 65.2734375,44.208984375 65.2734375,67.3828125 2.109375,67.3828125 2.109375,44.208984375 0,44.208984375 0,33.8671875 29.47265625,8.583984375 29.47265625,0z" />
    </g>
  </g>
</svg>