<?xml version="1.0" encoding="utf-8"?>
<!DOCTYPE svg PUBLIC "-//W3C//DTD SVG 1.1//EN" "http://www.w3.org/Graphics/SVG/1.1/DTD/svg11.dtd">
<svg width="63.1640625000013" height="67.3828125" xmlns="http://www.w3.org/2000/svg" xmlns:xlink="http://www.w3.org/1999/xlink" xmlns:xml="http://www.w3.org/XML/1998/namespace" version="1.1">
  <g>
    <g>
      <path style="fill:#FF0000;fill-opacity:1" d="M11.572265625,44.208984375L10.8251953125,44.5166015625 10.517578125,45.263671875 11.103515625,48.134765625 12.685546875,50.478515625 15.029296875,52.060546875 17.900390625,52.646484375 18.6474609375,52.3388671875 18.955078125,51.591796875 18.6474609375,50.8447265625 17.900390625,50.537109375 15.8349609375,50.126953125 14.1650390625,48.9990234375 13.037109375,47.3291015625 12.626953125,45.263671875 12.3193359375,44.5166015625 11.572265625,44.208984375z M5.2734375,44.208984375L4.5263671875,44.5166015625 4.21875,45.263671875 4.486083984375,48.017578125 5.2880859375,50.595703125 6.55517482757568,52.928466796875 8.2177734375,54.9462890625 10.235595703125,56.612548828125 12.568359375,57.890625 15.146484375,58.70361328125 17.900390625,58.974609375 18.6328125,58.65234375 18.955078125,57.919921875 18.6474609375,57.1728515625 17.900390625,56.865234375 15.5712890625,56.63818359375 13.388671875,55.95703125 9.7119140625,53.466796875 7.236328125,49.775390625 6.55517482757568,47.5927734375 6.328125,45.263671875 6.0205078125,44.5166015625 5.2734375,44.208984375z M27.509765625,11.89453125L26.1181640625,12.110595703125 24.931640625,12.7587900161743 23.4375,15.029296875 37.20703125,28.76953125 37.529296875,29.53125 37.20703125,30.263671875 36.4453125,30.556640625 35.712890625,30.263671875 21.5625,16.11328125 20.2001953125,15.205078125 18.57421875,14.8828125 17.2045879364014,15.098876953125 16.025390625,15.7470703125 14.53125,17.98828125 31.23046875,34.716796875 31.552734375,35.478515625 31.23046875,36.2109375 30.498046875,36.533203125 29.736328125,36.2109375 15.5859375,22.060546875 14.23828125,21.1669921875 12.65625,20.859375 11.275634765625,21.07177734375 10.0634765625,21.708984375 8.5546875,23.96484375 25.283203125,40.6640625 25.60546875,41.42578125 25.2685546875,42.158203125 24.521484375,42.48046875 23.7890625,42.158203125 14.12109375,32.490234375 13.0810546875,31.81640625 11.865234375,31.58203125 10.6494140625,31.8310546875 9.638671875,32.5048828125 8.9501953125,33.5009765625 8.701171875,34.716796875 8.935546875,35.91796875 9.638671875,36.943359375 32.75390625,59.23828125 34.9951171875,60.9375 37.587890625,62.16796875 40.3564453125,62.9150390625 43.154296875,63.1640625 46.3330039978027,62.852783203125 49.306640625,61.9189453125 51.9946250915527,60.450439453125 54.31640625,58.53515625 56.231689453125,56.21337890625 57.7001953125,53.525390625 58.634033203125,50.5517578125 58.9453125,47.373046875 58.9453125,23.173828125 58.623046875,21.533203125 57.7294921875,20.2001953125 56.396484375,19.2919921875 54.755859375,18.955078125 53.1005859375,19.2919921875 51.7529296875,20.2001953125 50.859375,21.533203125 50.537109375,23.173828125 50.537109375,33.1640625 44.94140625,38.642578125 42.8759765625,41.71875 42.158203125,45.3515625 42.6416015625,48.251953125 43.7109375,50.419921875 44.7802734375,51.9140625 45.263671875,52.79296875 44.94140625,53.525390625 44.208984375,53.84765625 43.798828125,53.759765625 43.4765625,53.525390625 42.0556640625,51.8701171875 40.986328125,49.775390625 40.3125,47.5048828125 40.078125,45.322265625 40.294189453125,43.070068359375 40.9423828125,40.8837890625 42.0080528259277,38.873291015625 43.4765625,37.1484375 49.072265625,31.7578125 30.498046875,13.125 29.1357421875,12.216796875 27.509765625,11.89453125z M36.85546875,10.517578125L36.1083984375,10.8251953125 35.80078125,11.572265625 36.1083984375,12.3193359375 36.85546875,12.626953125 38.8916015625,13.037109375 40.5615234375,14.1650390625 41.689453125,15.849609375 42.099609375,17.900390625 42.421875,18.6328125 43.154296875,18.955078125 43.9013671875,18.6474609375 44.208984375,17.900390625 43.623046875,15.0439453125 42.041015625,12.7001953125 39.7119140625,11.103515625 36.85546875,10.517578125z M36.85546875,4.21874952316284L36.1083984375,4.5263671875 35.80078125,5.2734375 36.1083984375,6.0205078125 36.85546875,6.328125 39.1845703125,6.55517864227295 41.3671875,7.23632764816284 45.0439453125,9.7119140625 47.51953125,13.3886709213257 48.2006797790527,15.5712890625 48.427734375,17.900390625 48.7353515625,18.6474609375 49.482421875,18.955078125 50.2294921875,18.6474609375 50.537109375,17.900390625 50.2661094665527,15.16845703125 49.453125,12.59765625 48.1750450134277,10.264892578125 46.5087890625,8.2470703125 44.4909629821777,6.58081340789795 42.158203125,5.302734375 39.58740234375,4.48974895477295 36.85546875,4.21874952316284z M36.85546875,0L40.030517578125,0.278323143720627 43.0517578125,1.11328101158142 45.8459434509277,2.44262981414795 48.33984375,4.20410203933716 52.2802734375,8.876953125 53.6242637634277,11.69677734375 54.462890625,14.765625 54.5947265625,14.7509765625 54.7265625,14.736328125 58.0224609375,15.3955078125 60.703125,17.197265625 62.5048828125,19.8779296875 63.1640625,23.173828125 63.1640625,47.373046875 62.4462890625,52.6904296875 60.4248046875,57.48046875 57.3046875,61.5234375 53.26171875,64.6435546875 48.4716796875,66.6650390625 43.154296875,67.3828125 39.5654296875,67.060546875 36.09375,66.123046875 32.841796875,64.5703125 29.970703125,62.40234375 26.0888671875,58.6962890625 22.265625,54.9609375 22.9467754364014,56.38916015625 23.173828125,57.919921875 22.763671875,59.9560546875 21.6357421875,61.6259765625 19.951171875,62.75390625 17.900390625,63.1640625 14.315185546875,62.8125 10.9423828125,61.7578125 7.884521484375,60.09521484375 5.24414157867432,57.919921875 3.06884765625,55.279541015625 1.40625,52.2216796875 0.351562142372131,48.848876953125 0,45.263671875 0.41015625,43.2275390625 1.5380859375,41.5576171875 3.22265625,40.4296875 5.2734375,40.01953125 7.119140625,40.37109375 5.2001953125,37.8369140625 4.51171875,34.716796875 4.8779296875,32.34375 6.005859375,30.263671875 4.6875,27.7587890625 4.21875,24.990234375 4.6875,22.2802734375 5.9765625,19.9072265625 7.939453125,18.046875 10.4296875,16.904296875 11.572265625,14.3701171875 13.447265625,12.392578125 15.849609375,11.1181640625 18.57421875,10.6640625 20.830078125,10.95703125 23.7890625,8.525390625 25.52490234375,7.88818359375 27.509765625,7.67578125 29.9853515625,8.056640625 32.2265625,9.140625 32.666015625,8.4375 31.875,6.943359375 31.58203125,5.2734375 31.9921875,3.22265577316284 33.1201171875,1.53808617591858 34.7900390625,0.410156488418579 36.85546875,0z" />
    </g>
  </g>
</svg>