<?xml version="1.0" encoding="utf-8"?>
<!DOCTYPE svg PUBLIC "-//W3C//DTD SVG 1.1//EN" "http://www.w3.org/Graphics/SVG/1.1/DTD/svg11.dtd">
<svg width="63.2226562500037" height="67.412109375" xmlns="http://www.w3.org/2000/svg" xmlns:xlink="http://www.w3.org/1999/xlink" xmlns:xml="http://www.w3.org/XML/1998/namespace" version="1.1">
  <g>
    <g>
      <path style="fill:#FF0000;fill-opacity:1" d="M16.904296875,33.515625L18.9697265625,33.662109375 21.03515625,33.720703125 21.03515625,37.880859375 18.9697265625,37.822265625 16.904296875,37.646484375 16.904296875,33.515625z M29.47265625,32.841796875L29.47265625,37.03125 27.4072265625,37.3974609375 25.341796875,37.646484375 25.341796875,33.515625 27.4072265625,33.2373046875 29.47265625,32.841796875z M8.4375,31.640625L10.517578125,32.314453125 12.626953125,32.8125 12.626953125,37.03125 10.5029296875,36.4892578125 8.4375,35.712890625 8.4375,31.640625z M37.91015625,30.380859375L37.91015625,34.51171875 35.830078125,35.0244140625 33.779296875,35.712890625 33.779296875,31.640625 35.625,30.966796875 37.529296875,30.46875 37.91015625,30.380859375z M50.654296875,29.736328125L52.705078125,30.0146484375 54.755859375,30.380859375 54.755859375,34.51171875 52.705078125,34.1455078125 50.654296875,33.896484375 50.654296875,29.736328125z M46.34765625,29.501953125L46.34765625,33.69140625 44.267578125,33.7353515625 42.1875,33.896484375 42.1875,29.736328125 44.267578125,29.560546875 46.34765625,29.501953125z M25.283203125,29.296875L25.283203125,33.427734375 23.203125,33.6181640625 21.09375,33.69140625 21.09375,29.501953125 23.1884765625,29.443359375 25.283203125,29.296875z M12.65625,28.623046875L14.736328125,29.0185546875 16.845703125,29.296875 16.845703125,33.3984375 14.736328125,33.1640625 12.65625,32.783203125 12.65625,28.623046875z M33.720703125,27.451171875L33.720703125,31.552734375 31.640625,32.2412109375 29.501953125,32.75390625 29.501953125,28.623046875 29.912109375,28.53515625 31.8310546875,28.06640625 33.720703125,27.451171875z M42.158203125,25.517578125L42.158203125,29.6484375 40.078125,29.94140625 37.998046875,30.322265625 37.998046875,26.162109375 40.0634765625,25.7666015625 42.158203125,25.517578125z M46.376953125,25.283203125L48.486328125,25.3564453125 50.595703125,25.517578125 50.595703125,29.6484375 48.486328125,29.501953125 46.376953125,29.443359375 46.376953125,25.283203125z M16.904296875,25.048828125L18.9697265625,25.2099609375 21.03515625,25.283203125 21.03515625,29.443359375 18.9697265625,29.384765625 16.904296875,29.23828125 16.904296875,25.048828125z M29.47265625,24.404296875L29.47265625,28.59375 27.4072265625,28.9599609375 25.341796875,29.23828125 25.341796875,25.048828125 27.4072265625,24.78515625 29.47265625,24.404296875z M8.4375,23.232421875L10.517578125,23.8916015625 12.626953125,24.375 12.626953125,28.59375 10.517578125,28.06640625 8.4375,27.392578125 8.4375,23.232421875z M37.91015625,21.97265625L37.91015625,26.1328125 35.830078125,26.6455078125 33.779296875,27.333984375 33.779296875,23.203125 35.8154296875,22.5 37.91015625,21.97265625z M50.654296875,21.328125L52.705078125,21.591796875 54.755859375,21.97265625 54.755859375,26.103515625 52.705078125,25.7080078125 50.654296875,25.4296875 50.654296875,21.328125z M46.34765625,21.09375L46.34765625,25.224609375 44.267578125,25.2685546875 42.1875,25.4296875 42.1875,21.328125 44.267578125,21.15234375 46.34765625,21.09375z M25.283203125,20.888671875L25.283203125,25.01953125 23.1884765625,25.166015625 21.09375,25.224609375 21.09375,21.09375 23.1884765625,21.03515625 25.283203125,20.888671875z M12.65625,20.21484375L14.736328125,20.5810546875 16.845703125,20.830078125 16.845703125,25.01953125 14.736328125,24.7265625 12.65625,24.345703125 12.65625,20.21484375z M33.720703125,19.013671875L33.720703125,23.115234375 31.640625,23.8037109375 29.501953125,24.287109375 29.501953125,20.21484375 31.640625,19.7021484375 33.720703125,19.013671875z M42.158203125,17.109375L42.158203125,21.26953125 40.0634765625,21.533203125 37.998046875,21.9140625 37.998046875,17.724609375 40.0634765625,17.373046875 42.158203125,17.109375z M46.376953125,16.875L48.486328125,16.93359375 50.595703125,17.109375 50.595703125,21.26953125 48.486328125,21.09375 46.376953125,21.03515625 46.376953125,16.875z M16.904296875,16.611328125L18.9697265625,16.8017578125 21.03515625,16.875 21.03515625,21.03515625 16.904296875,20.771484375 16.904296875,16.611328125z M29.47265625,15.99609375L29.47265625,20.15625 27.4072265625,20.537109375 25.341796875,20.771484375 25.341796875,16.611328125 29.47265625,15.99609375z M8.4375,14.794921875L10.517578125,15.4833984375 12.626953125,15.99609375 12.626953125,20.15625 10.517578125,19.6435546875 8.4375,18.92578125 8.4375,14.794921875z M37.91015625,13.53515625L37.91015625,17.666015625 35.8154296875,18.22265625 33.779296875,18.92578125 33.779296875,14.765625 35.8154296875,14.0478515625 37.91015625,13.53515625z M50.654296875,12.861328125L52.705078125,13.154296875 54.755859375,13.53515625 54.755859375,17.63671875 50.654296875,17.021484375 50.654296875,12.861328125z M46.34765625,12.626953125L46.34765625,16.81640625 42.1875,16.9921875 42.1875,12.861328125 44.267578125,12.7001953125 46.34765625,12.626953125z M7.38281106948853,4.18945264816284L6.16699171066284,4.43847703933716 5.15624952316284,5.11230516433716 4.46777296066284,6.10839891433716 4.21874952316284,7.32421922683716 4.77539014816284,9.1552734375 6.26953077316284,10.37109375 6.26953077316284,63.22265625 8.4375,63.22265625 8.4375,40.078125 10.517578125,40.78125 12.65625,41.30859375 12.65625,37.08984375 14.736328125,37.4560546875 16.845703125,37.763671875 16.845703125,41.982421875 18.984375,42.12890625 21.09375,42.1875 21.09375,37.939453125 25.283203125,37.763671875 25.283203125,41.982421875 25.400390625,41.982421875 27.4658203125,41.748046875 29.501953125,41.30859375 29.501953125,37.08984375 31.640625,36.5625 33.720703125,35.859375 33.720703125,40.078125 34.5556640625,39.7705078125 35.830078125,39.345703125 37.1044921875,38.9794921875 37.939453125,38.818359375 37.9541015625,38.7451171875 37.9833984375,38.2763671875 37.998046875,37.0166015625 37.998046875,34.5703125 42.158203125,33.955078125 42.158203125,38.173828125 42.83203125,38.1298828125 43.505859375,38.056640625 44.9267578125,37.96875 46.376953125,37.939453125 46.376953125,33.720703125 48.486328125,33.7646484375 50.595703125,33.955078125 50.595703125,38.173828125 50.830078125,38.173828125 52.8369140625,38.37890625 54.814453125,38.818359375 54.814453125,34.599609375 56.9970703125,35.09765625 59.0625,35.859375 59.0625,31.552734375 56.982421875,30.87890625 54.84375,30.322265625 54.84375,26.162109375 56.982421875,26.7041015625 59.0625,27.421875 59.0625,23.115234375 56.982421875,22.4560546875 54.84375,21.943359375 54.84375,17.724609375 56.982421875,18.28125 59.0625,19.013671875 59.091796875,14.677734375 56.9970703125,14.0185546875 54.84375,13.505859375 54.84375,9.228515625 54.521484375,9.140625 52.5732421875,8.73046875 50.595703125,8.5546875 50.595703125,12.83203125 48.486328125,12.6416015625 46.376953125,12.568359375 46.376953125,8.37890625 44.2822265625,8.4375 42.1875,8.5546875 42.1875,12.83203125 40.0634765625,13.095703125 37.998046875,13.505859375 37.998046875,9.19921875 35.8154296875,9.66796875 33.75,10.458984375 33.75,14.677734375 31.6552734375,15.4101552963257 29.501953125,15.9375 29.501953125,11.77734375 27.568359375,12.1142578125 25.634765625,12.392578125 25.458984375,12.3779296875 25.283203125,12.3632802963257 25.283203125,16.58203125 23.203125,16.7578125 21.09375,16.81640625 21.09375,12.568359375 18.955078125,12.4658203125 16.845703125,12.3632802963257 16.845703125,16.58203125 14.736328125,16.3037109375 12.65625,15.9375 12.65625,11.77734375 10.517578125,11.2353515625 8.4375,10.458984375 9.990234375,9.1845703125 10.60546875,7.32421922683716 10.341796875,6.10839891433716 9.638671875,5.11230516433716 8.61328125,4.43847703933716 7.38281106948853,4.18945264816284z M7.38281106948853,0L10.3125,0.600585699081421 12.65625,2.22656297683716 14.2236328125,4.6142578125 14.794921875,7.529296875 14.736328125,7.8515625 21.064453125,8.37890625 24.873046875,8.203125 28.623046875,7.61718702316284 31.7578125,6.73828125 34.86328125,5.712890625 40.546875,4.5556640625 46.34765625,4.18945264816284 49.8046875,4.3212890625 53.5986328125,4.74609375 57.333984375,5.4931640625 60.615234375,6.56249952316284 63.22265625,7.67578172683716 63.22265625,46.2890625 62.2265625,45.87890625 58.2421875,44.2822265625 54.66796875,43.125 50.9033203125,42.421875 46.34765625,42.1875 43.6083984375,42.275390625 40.751953125,42.568359375 37.939453125,43.1103515625 35.33203125,43.9453125 31.9921875,45.0439453125 28.330078125,45.791015625 24.5947265625,46.2158203125 21.064453125,46.34765625 16.8310546875,46.1865234375 12.65625,45.52734375 12.65625,67.412109375 2.13867139816284,67.412109375 2.13867139816284,12.48046875 0.556639671325684,10.1220703125 0,7.32421922683716 0.585937023162842,4.46777391433716 2.18261671066284,2.13867139816284 4.52636671066284,0.571288824081421 7.38281106948853,0z" />
    </g>
  </g>
</svg>