<?xml version="1.0" encoding="utf-8"?>
<!DOCTYPE svg PUBLIC "-//W3C//DTD SVG 1.1//EN" "http://www.w3.org/Graphics/SVG/1.1/DTD/svg11.dtd">
<svg width="67.3828125000011" height="67.3828125" xmlns="http://www.w3.org/2000/svg" xmlns:xlink="http://www.w3.org/1999/xlink" xmlns:xml="http://www.w3.org/XML/1998/namespace" version="1.1">
  <g>
    <g>
      <path style="fill:#FF0000;fill-opacity:1" d="M15.46875,48.955078125L4.833984375,59.58984375 4.21875,61.083984375 4.8046875,62.5341796875 6.240234375,63.1640625 7.2509765625,62.9150390625 8.115234375,62.28515625 9.873046875,60.5126953125 11.6015625,58.7109375 15,55.2978515625 18.427734375,51.9140625 15.46875,48.955078125z M46.318359375,31.58203125L46.318359375,35.625 50.3173828125,34.2041015625 53.671875,31.58203125 46.318359375,31.58203125z M31.58203125,23.671875L31.9482421875,26.1364765167236 32.75390625,28.4326171875 35.4638671875,32.28515625 39.3896484375,34.86328125 41.7150840759277,35.56640625 44.208984375,35.80078125 44.208984375,31.58203125 35.80078125,31.58203125 35.80078125,25.25390625 33.544921875,24.84375 31.58203125,23.671875z M54.755859375,23.173828125L54.755859375,30.498046875 57.3779296875,27.1728515625 58.76953125,23.173828125 54.755859375,23.173828125z M46.318359375,23.173828125L46.318359375,29.47265625 52.646484375,29.47265625 52.646484375,23.173828125 46.318359375,23.173828125z M40.517578125,23.173828125L39.3310546875,24.2138671875 37.91015625,24.90234375 37.91015625,29.47265625 44.208984375,29.47265625 44.208984375,23.173828125 40.517578125,23.173828125z M46.318359375,14.736328125L46.318359375,21.064453125 52.646484375,21.064453125 52.646484375,14.736328125 46.318359375,14.736328125z M40.517578125,14.736328125L41.689453125,16.69921875 42.099609375,18.955078125 41.748046875,21.064453125 44.208984375,21.064453125 44.208984375,14.736328125 40.517578125,14.736328125z M44.208984375,8.583984375L41.0961875915527,9.55078125 38.3203125,11.279296875 38.90625,12.626953125 44.208984375,12.626953125 44.208984375,8.583984375z M46.318359375,8.4375L46.318359375,12.626953125 54.755859375,12.626953125 54.755859375,21.064453125 58.9453125,21.064453125 58.699951171875,18.511962890625 57.9638671875,16.1279296875 55.2685546875,12.1142578125 51.2548828125,9.4189453125 48.8708457946777,8.682861328125 46.318359375,8.4375z M46.318359375,4.21874952316284L43.7402305603027,4.41650676727295 41.220703125,5.009765625 36.591796875,7.294921875 37.44140625,9.287109375 41.6455078125,7.0751953125 46.318359375,6.328125 49.2956504821777,6.61743450164795 52.0751953125,7.48535108566284 54.5837364196777,8.851318359375 56.748046875,10.634765625 58.531494140625,12.799072265625 59.8974609375,15.3076171875 60.765380859375,18.087158203125 61.0546875,21.064453125 60.6005859375,24.9169921875 59.3115234375,28.0517578125 57.2900390625,30.8203125 54.638671875,33.57421875 52.3754844665527,35.4345703125 49.86328125,36.796875 47.1313438415527,37.6318359375 44.208984375,37.91015625 41.2756309509277,37.620849609375 38.5107421875,36.7529296875 35.99853515625,35.38330078125 33.8232421875,33.5888671875 32.025146484375,31.4208984375 30.64453125,28.9306640625 29.765625,26.1950702667236 29.47265625,23.291015625 29.4873046875,22.705078125 29.53125,22.08984375 27.48046875,21.2109375 27.392578125,23.0859375 27.6123046875,25.8837909698486 28.271484375,28.59375 29.3701171875,31.14990234375 30.908203125,33.486328125 16.93359375,47.4609375 19.921875,50.419921875 33.896484375,36.474609375 36.2255859375,38.016357421875 38.759765625,39.1259765625 41.4477500915527,39.796142578125 44.23828125,40.01953125 47.5488243103027,39.697265625 50.68359375,38.73046875 53.5693321228027,37.17041015625 56.1328125,35.068359375 58.2421875,32.958984375 60.340576171875,30.3918476104736 61.8896484375,27.4951171875 62.845458984375,24.3566913604736 63.1640625,21.064453125 62.83447265625,17.6806640625 61.845703125,14.501953125 60.28564453125,11.62353515625 58.2421875,9.140625 55.75927734375,7.09716796875 52.880859375,5.537109375 49.7021446228027,4.54834270477295 46.318359375,4.21874952316284z M29.47265625,4.21874952316284L29.47265625,8.4375 25.25390625,8.4375 25.25390625,12.626953125 21.064453125,12.626953125 21.064453125,14.970703125 21.416015625,15.8935546875 22.177734375,16.58203125 23.6572265625,17.28515625 25.1953125,17.900390625 28.4033203125,19.27734375 31.58203125,20.68359375 34.5556640625,17.7099609375 37.529296875,14.736328125 36.1376953125,11.4404296875 34.6875,8.14453125 34.0869140625,6.767578125 33.486328125,5.419921875 32.7099609375,4.541015625 31.58203125,4.21874952316284 29.47265625,4.21874952316284z M25.25390625,0L31.58203125,0 34.3359375,0.644531488418579 36.533203125,2.43164110183716 41.2939453125,0.615234375 46.34765625,0 49.1931114196777,0.190432548522949 51.9287109375,0.76171875 56.953125,2.8857421875 61.2158203125,6.181640625 64.51171875,10.4443359375 66.6357421875,15.46875 67.3828125,21.064453125 66.9873046875,25.2502460479736 65.80078125,29.1357421875 63.85986328125,32.706298828125 61.201171875,35.947265625 59.12109375,38.056640625 55.92041015625,40.711669921875 52.294921875,42.6416015625 48.3618125915527,43.817138671875 44.23828125,44.208984375 39.2138671875,43.59375 34.482421875,41.8359375 10.78125,65.537109375 8.7451171875,66.8994140625 6.328125,67.3828125 3.8671875,66.884765625 1.8603515625,65.537109375 0.498046875,63.544921875 0,61.083984375 0.4833984375,58.65234375 1.845703125,56.6015625 25.546875,32.900390625 23.759765625,28.1103515625 23.203125,23.0859375 23.203125,22.353515625 23.232421875,21.62109375 21.708984375,21.005859375 20.21484375,20.302734375 17.7392578125,17.98828125 17.0690898895264,16.47216796875 16.845703125,14.736328125 16.845703125,8.4375 21.064453125,8.4375 21.064453125,4.21874952316284 25.25390625,4.21874952316284 25.25390625,0z" />
    </g>
  </g>
</svg>