<?xml version="1.0" encoding="utf-8"?>
<!DOCTYPE svg PUBLIC "-//W3C//DTD SVG 1.1//EN" "http://www.w3.org/Graphics/SVG/1.1/DTD/svg11.dtd">
<svg width="58.916015625" height="67.3828125" xmlns="http://www.w3.org/2000/svg" xmlns:xlink="http://www.w3.org/1999/xlink" xmlns:xml="http://www.w3.org/XML/1998/namespace" version="1.1">
  <g>
    <g>
      <path style="fill:#FF0000;fill-opacity:1" d="M4.21875047683716,16.845703125L4.54101610183716,18.486328125 5.43457078933716,19.8193359375 6.76757764816284,20.7275390625 8.408203125,21.064453125 21.181640625,21.064453125 21.064453125,19.9365234375 21.03515625,18.779296875 21.0498046875,17.8125 21.064453125,16.845703125 4.21875047683716,16.845703125z M25.25390625,4.21874952316284L20.830078125,4.7900390625 16.7578125,6.4453125 13.2568359375,9.0966796875 10.517578125,12.626953125 9.287109375,12.626953125 7.96875047683716,12.685546875 6.75293016433716,12.9638671875 5.68359422683716,13.6083984375 4.77539110183716,14.736328125 18.779296875,14.736328125 17.40234375,14.0625 16.845703125,12.626953125 16.8310546875,12.0556640625 16.81640625,11.42578125 16.8896484375,10.341796875 17.1826171875,9.3896484375 17.8271484375,8.701171875 18.955078125,8.4375 20.4345703125,9.052734375 21.064453125,10.517578125 21.0791015625,11.1181640625 21.09375,11.748046875 21.03515625,12.7880859375 20.771484375,13.7109375 20.1708984375,14.3994140625 19.130859375,14.736328125 23.173828125,14.736328125 23.14453125,16.435546875 23.115234375,18.134765625 23.1591796875,19.716796875 23.3203125,21.26953125 24.2578125,24.43359375 25.9423828125,27.1728515625 28.2861328125,29.3701171875 31.201171875,30.87890625 32.4609375,31.3037109375 33.779296875,31.494140625 34.39453125,31.376953125 34.6875,30.87890625 34.51171875,30.263671875 34.16015625,29.70703125 32.4755859375,26.3525390625 31.875,22.646484375 32.4462890625,18.9697265625 34.1015625,15.615234375 37.3681640625,17.51953125 39.90234375,20.2587890625 41.5283203125,23.61328125 42.099609375,27.36328125 42.099609375,33.69140625 41.42578125,38.7158203125 39.521484375,43.2421875 36.5478515625,47.080078125 32.7099609375,50.0537109375 28.1982421875,51.97265625 23.173828125,52.646484375 21.064453125,52.646484375 21.064453125,50.537109375 23.173828125,50.537109375 26.553955078125,50.203857421875 29.7216796875,49.2041015625 32.589111328125,47.633056640625 35.068359375,45.5859375 37.115478515625,43.106689453125 38.6865234375,40.2392578125 39.686279296875,37.071533203125 40.01953125,33.69140625 40.01953125,27.333984375 39.6533203125,24.6826171875 38.6279296875,22.20703125 37.03125,20.068359375 34.921875,18.3984375 34.21875,20.4638671875 33.984375,22.6171875 34.4677734375,25.7080078125 35.888671875,28.505859375 36.533203125,29.6337890625 36.796875,30.908203125 36.533203125,32.05078125 35.8447265625,32.8857421875 34.86328125,33.3984375 33.69140625,33.57421875 33.69140625,35.80078125 33.4423828125,38.331298828125 32.6953125,40.7080078125 29.9853515625,44.7216796875 25.9716796875,47.431640625 23.5949687957764,48.1787109375 21.064453125,48.427734375 20.80078125,48.427734375 19.658203125,45.8642578125 17.783203125,43.8720703125 15.380859375,42.5830078125 12.626953125,42.12890625 12.626953125,49.482421875 15.791015625,52.646484375 12.626953125,55.810546875 12.626953125,63.1640625 15.380859375,62.7099609375 17.783203125,61.4208984375 19.658203125,59.4287109375 20.80078125,56.865234375 23.173828125,56.865234375 26.883544921875,56.619873046875 30.4541015625,55.8837890625 33.837890625,54.700927734375 36.9873046875,53.115234375 42.5244140625,48.837890625 46.8017578125,43.30078125 48.3764610290527,40.140380859375 49.5556640625,36.7529296875 50.2917442321777,33.182373046875 50.537109375,29.47265625 50.2404747009277,25.5468769073486 49.3505859375,21.796875 47.8894004821777,18.22998046875 45.87890625,14.853515625 48.603515625,13.037109375 51.650390625,11.923828125 52.734375,11.77734375 53.7890625,11.6308584213257 54.462890625,11.279296875 54.7265625,10.576171875 54.6240234375,10.1220703125 54.345703125,9.755859375 52.412109375,8.291015625 50.126953125,7.20703125 47.666015625,6.5478515625 45.234375,6.328125 41.8359375,6.7529296875 38.642578125,8.02734375 35.4986572265625,6.36108589172363 32.21923828125,5.17090129852295 28.8043212890625,4.45678901672363 25.25390625,4.21874952316284z M25.25390625,0L28.76953125,0.205080926418304 32.2265625,0.820312023162842 35.58837890625,1.84570598602295 38.818359375,3.28125 41.982421875,2.40234375 45.234375,2.10937476158142 48.4423828125,2.40234375 51.62109375,3.2666015625 54.580078125,4.6875 57.158203125,6.62109375 58.4765625,8.41552734375 58.916015625,10.576171875 58.5498046875,12.568359375 57.5390625,14.150390625 56.015625,15.263671875 54.08203125,15.8203125 53.9794921875,15.8349609375 53.876953125,15.849609375 52.763671875,16.025390625 51.650390625,16.318359375 53.0090293884277,19.456787109375 53.9794921875,22.7197265625 54.5617637634277,26.0705585479736 54.755859375,29.47265625 54.4775352478027,33.724365234375 53.642578125,37.8076171875 52.3022422790527,41.68212890625 50.5078125,45.3076171875 48.2812461853027,48.651123046875 45.64453125,51.6796875 42.6489219665527,54.35302734375 39.345703125,56.630859375 35.753173828125,58.4765625 31.8896484375,59.853515625 27.813720703125,60.72509765625 23.583984375,61.0546875 21.5478515625,63.69140625 18.9404296875,65.68359375 15.9228515625,66.943359375 12.626953125,67.3828125 8.408203125,67.3828125 8.408203125,54.052734375 9.84375,52.646484375 8.408203125,51.240234375 8.408203125,37.91015625 12.626953125,37.91015625 15.8203125,38.3203125 18.7646484375,39.5068359375 21.328125,41.3818359375 23.37890625,43.88671875 25.8544921875,42.71484375 27.7880859375,40.8544921875 29.033203125,38.49609375 29.47265625,35.80078125 29.47265625,34.74609375 26.400146484375,33.20068359375 23.7451171875,31.025390625 21.6027812957764,28.3447284698486 20.068359375,25.283203125 8.408203125,25.283203125 5.14160203933716,24.609375 2.46093797683716,22.79296875 0.659180164337158,20.1123046875 0,16.845703125 0.644531726837158,13.623046875 2.41699266433716,10.95703125 5.03906297683716,9.140625 8.26171875,8.4375 11.66015625,4.8779296875 15.76171875,2.22656226158142 20.361328125,0.571288585662842 25.25390625,0z" />
    </g>
  </g>
</svg>