<?xml version="1.0" encoding="utf-8"?>
<!DOCTYPE svg PUBLIC "-//W3C//DTD SVG 1.1//EN" "http://www.w3.org/Graphics/SVG/1.1/DTD/svg11.dtd">
<svg width="67.382812500001" height="67.3828125" xmlns="http://www.w3.org/2000/svg" xmlns:xlink="http://www.w3.org/1999/xlink" xmlns:xml="http://www.w3.org/XML/1998/namespace" version="1.1">
  <g>
    <g>
      <path style="fill:#FF0000;fill-opacity:1" d="M47.373046875,35.80078125L48.603515625,36.0498046875 49.6142578125,36.7236328125 50.2880859375,37.734375 50.537109375,38.96484375 50.2880859375,40.1806640625 49.599609375,41.19140625 48.5888671875,41.8798828125 47.373046875,42.12890625 46.1572265625,41.8798828125 45.146484375,41.19140625 44.4580078125,40.1806640625 44.208984375,38.96484375 44.4580078125,37.7490234375 45.146484375,36.73828125 46.1572265625,36.0498046875 47.373046875,35.80078125z M36.85546875,35.80078125L38.0712890625,36.0498046875 39.08203125,36.73828125 39.7705078125,37.7490234375 40.01953125,38.96484375 39.7705078125,40.1806640625 39.08203125,41.19140625 38.0712890625,41.8798828125 36.85546875,42.12890625 35.6396484375,41.8798828125 34.62890625,41.19140625 33.9404296875,40.1806640625 33.69140625,38.96484375 33.9404296875,37.734375 34.6142578125,36.7236328125 35.6103515625,36.0498046875 36.85546875,35.80078125z M47.373046875,25.283203125L48.603515625,25.5322265625 49.6142578125,26.2060546875 50.2880859375,27.216796875 50.537109375,28.447265625 50.2880859375,29.6923828125 49.599609375,30.673828125 48.5888671875,31.3330078125 47.373046875,31.58203125 46.1572265625,31.3330078125 45.146484375,30.6591796875 44.4580078125,29.6630859375 44.208984375,28.447265625 44.4580078125,27.2314453125 45.146484375,26.220703125 46.1572265625,25.5322265625 47.373046875,25.283203125z M36.85546875,25.283203125L38.0712890625,25.5322265625 39.08203125,26.220703125 39.7705078125,27.2314453125 40.01953125,28.447265625 39.7705078125,29.6630859375 39.08203125,30.6591796875 38.0712890625,31.3330078125 36.85546875,31.58203125 35.6396484375,31.3330078125 34.62890625,30.673828125 33.9404296875,29.6923828125 33.69140625,28.447265625 33.9404296875,27.216796875 34.6142578125,26.2060546875 35.6103515625,25.5322265625 36.85546875,25.283203125z M31.083984375,14.0625L28.76953125,15.556640625 26.455078125,16.40625 24.0673828125,16.787109375 21.591796875,16.875 20.0390625,16.8603515625 18.3984375,16.845703125 16.8603515625,18.3984375 14.736328125,18.955078125 13.1396484375,18.6474609375 11.748046875,17.724609375 10.3564453125,16.34765625 8.96484375,14.94140625 8.4375,17.900390625 8.6865234375,19.8046875 9.31640625,21.62109375 20.537109375,49.248046875 22.0239238739014,52.261962890625 23.90625,54.9755859375 28.65234375,59.35546875 31.439208984375,60.966796875 34.4677734375,62.16796875 37.686767578125,62.9150390625 41.044921875,63.1640625 44.0368614196777,62.96630859375 46.9189453125,62.373046875 52.20703125,60.146484375 56.689453125,56.7041015625 60.146484375,52.236328125 62.373046875,46.9482421875 62.96630859375,44.066162109375 63.1640625,41.07421875 62.89306640625,37.529296875 62.080078125,34.16015625 60.772705078125,31.01806640625 59.0185546875,28.154296875 56.8359375,25.5944843292236 54.2431640625,23.3642578125 51.2951622009277,21.514892578125 48.046875,20.09765625 31.083984375,14.0625z M23.173828125,4.21874952316284L20.6762676239014,4.50805950164795 18.33984375,5.3759765625 16.2744140625,6.77124309539795 14.58984375,8.642578125 16.171875,10.2099609375 17.724609375,11.77734375 18.6328125,13.125 18.955078125,14.736328125 23.173828125,14.736328125 25.279541015625,14.527587890625 27.2607421875,13.9013671875 30.6005859375,11.6455078125 32.8564453125,8.3056640625 33.482666015625,6.32446575164795 33.69140625,4.21874952316284 23.173828125,4.21874952316284z M6.328125,4.21874952316284L4.833984375,4.83398485183716 4.21875,6.328125 4.833984375,7.822265625 13.2421875,16.23046875 14.736328125,16.845703125 16.23046875,16.23046875 16.845703125,14.736328125 16.23046875,13.2421875 7.79296875,4.83398485183716 6.328125,4.21874952316284z M6.328125,0L8.1884765625,0.292968988418579 9.755859375,1.08398389816284 11.1474609375,2.21191358566284 12.451171875,3.515625 13.0078125,4.07226610183716 15.205078125,2.33642864227295 17.6953125,1.05468797683716 20.3832988739014,0.263674795627594 23.173828125,0 37.91015625,0 37.91015625,3.19335985183716 37.55859375,7.3828125 37.001953125,9.345703125 36.03515625,11.3671875 42.744140625,13.740234375 49.453125,16.142578125 53.3129844665527,17.852783203125 56.806640625,20.0537109375 59.87548828125,22.69775390625 62.4609375,25.7373046875 64.541015625,29.1357440948486 66.09375,32.8564453125 67.060546875,36.851806640625 67.3828125,41.07421875 67.1484375,44.637451171875 66.4453125,48.0615234375 65.31005859375,51.309814453125 63.779296875,54.345703125 59.6484375,59.677734375 54.31640625,63.7939453125 51.2805137634277,65.313720703125 48.0322265625,66.4453125 44.6081504821777,67.1484375 41.044921875,67.3828125 37.03125,67.08984375 33.193359375,66.2109375 29.586181640625,64.7900390625 26.2646484375,62.87109375 23.2617168426514,60.479736328125 20.6103515625,57.6416015625 18.3728008270264,54.400634765625 16.611328125,50.80078125 5.478515625,23.349609375 4.951171875,22.001953125 4.5556640625,20.712890625 4.306640625,19.3798828125 4.21875,17.900390625 4.892578125,13.828125 3.369140625,12.3046875 1.845703125,10.78125 0.498046875,8.73046875 0,6.328125 0.498046875,3.85253858566284 1.845703125,1.84570276737213 3.8525390625,0.498046875 6.328125,0z" />
    </g>
  </g>
</svg>