<?xml version="1.0" encoding="utf-8"?>
<!DOCTYPE svg PUBLIC "-//W3C//DTD SVG 1.1//EN" "http://www.w3.org/Graphics/SVG/1.1/DTD/svg11.dtd">
<svg width="67.3828125000007" height="67.3828125" xmlns="http://www.w3.org/2000/svg" xmlns:xlink="http://www.w3.org/1999/xlink" xmlns:xml="http://www.w3.org/XML/1998/namespace" version="1.1">
  <g>
    <g>
      <path style="fill:#FF0000;fill-opacity:1" d="M21.064453125,37.91015625L19.5703125,38.525390625 18.955078125,40.01953125 19.5703125,41.484375 25.8984375,47.8125 27.36328125,48.427734375 28.857421875,47.8125 29.47265625,46.318359375 28.857421875,44.82421875 22.55859375,38.525390625 21.064453125,37.91015625z M27.36328125,31.58203125L25.8837890625,32.2119140625 25.25390625,33.69140625 25.8984375,35.185546875 32.197265625,41.484375 33.69140625,42.12890625 35.1708984375,41.4990234375 35.80078125,40.01953125 35.185546875,38.525390625 28.857421875,32.197265625 27.36328125,31.58203125z M33.69140625,25.283203125L32.2119140625,25.9130859375 31.58203125,27.392578125 32.197265625,28.857421875 38.525390625,35.185546875 39.990234375,35.80078125 41.484375,35.185546875 42.12890625,33.69140625 41.484375,32.197265625 35.185546875,25.8984375 33.69140625,25.283203125z M39.990234375,18.955078125L38.525390625,19.5849609375 37.91015625,21.064453125 38.525390625,22.55859375 44.82421875,28.857421875 46.318359375,29.47265625 47.7978515625,28.857421875 48.427734375,27.392578125 47.8125,25.8984375 41.484375,19.5703125 39.990234375,18.955078125z M59.619140625,10.72265625L50.888671875,19.453125 52.1923828125,22.236328125 52.646484375,25.283203125 52.4487266540527,27.3449726104736 51.85546875,29.3115234375 49.5703125,32.724609375 32.6953125,49.5703125 29.296875,51.85546875 27.34130859375,52.44873046875 25.283203125,52.646484375 22.236328125,52.1923828125 19.453125,50.888671875 10.72265625,59.6484375 13.033447265625,61.1865234375 15.5712890625,62.28515625 18.2702617645264,62.9443359375 21.064453125,63.1640625 26.30859375,62.750244140625 31.494140625,61.5087890625 36.533203125,59.534912109375 41.337890625,56.923828125 45.8496055603027,53.73046875 50.009765625,50.009765625 53.7304649353027,45.849609375 56.923828125,41.337890625 59.534912109375,36.533203125 61.5087890625,31.494140625 62.750244140625,26.3085956573486 63.1640625,21.064453125 62.940673828125,18.27392578125 62.2705078125,15.5859375 61.160888671875,13.0517578125 59.619140625,10.72265625z M46.318359375,4.21874952316284L41.0742149353027,4.63257122039795 35.888671875,5.8740234375 30.849609375,7.847900390625 26.044921875,10.458984375 21.5332012176514,13.65234375 17.373046875,17.373046875 13.65234375,21.533203125 10.458984375,26.044921875 7.84789991378784,30.849609375 5.8740234375,35.888671875 4.632568359375,41.07421875 4.21875,46.318359375 4.4384765625,49.112548828125 5.09765625,51.8115234375 6.19628810882568,54.349365234375 7.73437404632568,56.66015625 16.494140625,47.9296875 15.1904296875,45.146484375 14.736328125,42.099609375 14.93408203125,40.037841796875 15.52734375,38.0712890625 17.8125,34.658203125 34.658203125,17.8125 38.0712890625,15.5273427963257 40.037841796875,14.93408203125 42.099609375,14.736328125 45.146484375,15.1904296875 47.9296875,16.494140625 56.66015625,7.76367139816284 54.3310508728027,6.22192668914795 51.796875,5.11230421066284 49.1088829040527,4.44214153289795 46.318359375,4.21874952316284z M46.318359375,0L49.1674766540527,0.190432548522949 51.9140625,0.76171875 56.9384765625,2.8857421875 61.201171875,6.181640625 64.4970703125,10.4443359375 66.62109375,15.46875 67.1923828125,18.21533203125 67.3828125,21.064453125 67.12646484375,25.4370136260986 66.357421875,29.765625 65.115966796875,34.017333984375 63.4423828125,38.1591796875 61.3623046875,42.161865234375 58.9013671875,45.99609375 52.998046875,52.998046875 45.99609375,58.9013671875 42.1618614196777,61.3623046875 38.1591796875,63.4423828125 34.017333984375,65.115966796875 29.765625,66.357421875 25.43701171875,67.12646484375 21.064453125,67.3828125 15.46875,66.6357421875 10.4296875,64.51171875 6.1669921875,61.2158203125 2.87109375,56.953125 0.7470703125,51.9140625 0,46.318359375 0.256347298622131,41.94580078125 1.025390625,37.6171875 2.266845703125,33.365478515625 3.9404296875,29.2236328125 6.02050685882568,25.2209491729736 8.4814453125,21.38671875 14.384765625,14.384765625 21.38671875,8.4814453125 25.220947265625,6.02051067352295 29.2236328125,3.94043016433716 33.365478515625,2.26684856414795 37.6171875,1.02539086341858 41.9457969665527,0.256350547075272 46.318359375,0z" />
    </g>
  </g>
</svg>