<?xml version="1.0" encoding="utf-8"?>
<!DOCTYPE svg PUBLIC "-//W3C//DTD SVG 1.1//EN" "http://www.w3.org/Graphics/SVG/1.1/DTD/svg11.dtd">
<svg width="67.3828125000006" height="67.3828125" xmlns="http://www.w3.org/2000/svg" xmlns:xlink="http://www.w3.org/1999/xlink" xmlns:xml="http://www.w3.org/XML/1998/namespace" version="1.1">
  <g>
    <g>
      <path style="fill:#FF0000;fill-opacity:1" d="M25.25390625,46.318359375L28.4619140625,46.6552734375 31.81640625,47.63671875 34.892578125,49.2333984375 37.294921875,51.38671875 37.7490234375,52.060546875 37.91015625,52.8515625 37.294921875,54.345703125 35.80078125,54.9609375 34.248046875,54.2724609375 32.1240234375,52.7490234375 29.208984375,51.2255859375 25.25390625,50.537109375 22.587890625,50.7861328125 20.3759765625,51.5185546875 18.33984375,52.7197265625 16.23046875,54.345703125 15.556640625,54.8291015625 14.736328125,54.990234375 13.2568359375,54.3603515625 12.626953125,52.880859375 12.7880859375,52.060546875 13.2421875,51.38671875 15.6298828125,49.27734375 18.720703125,47.6806640625 22.0751953125,46.669921875 25.25390625,46.318359375z M25.25390625,42.12890625L19.7607421875,42.861328125 14.736328125,44.9560546875 10.4150390625,48.28125 7.03125,52.67578125 10.4150390625,57.041015625 14.7509765625,60.3369140625 19.775390625,62.431640625 25.25390625,63.1640625 30.76171875,62.4462890625 35.771484375,60.3662109375 40.0927734375,57.0556640625 43.505859375,52.67578125 40.1220703125,48.28125 35.7861328125,44.9560546875 30.7470703125,42.861328125 25.25390625,42.12890625z M29.47265625,30.52734375L27.4365234375,30.9521484375 25.7666015625,32.0947265625 24.638671875,33.7646484375 24.228515625,35.80078125 24.228515625,36.85546875 58.9453125,36.85546875 60.1611328125,36.6064453125 61.171875,35.91796875 61.8603515625,34.9072265625 62.109375,33.69140625 61.8603515625,32.4755859375 61.171875,31.46484375 60.1611328125,30.7763671875 58.9453125,30.52734375 29.47265625,30.52734375z M46.318359375,26.982421875L45.17578125,28.41796875 46.318359375,28.41796875 46.318359375,26.982421875z M16.845703125,24.169921875L18.076171875,24.4189453125 19.1015625,25.107421875 19.7900390625,26.1328125 20.0390625,27.36328125 19.7900390625,28.623046875 19.1015625,29.6484375 18.076171875,30.3369140625 16.845703125,30.5859375 15.6005859375,30.3369140625 14.58984375,29.6484375 13.9013671875,28.623046875 13.65234375,27.36328125 13.9013671875,26.1328125 14.58984375,25.107421875 15.6005859375,24.4189453125 16.845703125,24.169921875z M40.01953125,17.900390625L37.998046875,18.2958984375 36.298828125,19.453125 32.080078125,23.642578125 30.9375,25.3564453125 30.52734375,27.36328125 30.64453125,28.41796875 32.75390625,28.41796875 32.63671875,27.890625 32.578125,27.36328125 32.8271484375,26.103515625 33.515625,25.0927734375 34.541015625,24.4189453125 35.80078125,24.169921875 37.03125,24.4189453125 38.056640625,25.107421875 38.7451171875,26.1328125 38.994140625,27.36328125 38.818359375,28.41796875 42.1875,28.41796875 43.359375,27.2607421875 44.3408203125,26.1328125 45.0146484375,24.8291015625 45.263671875,23.173828125 44.853515625,21.123046875 43.7255859375,19.4384765625 42.0556640625,18.310546875 40.01953125,17.900390625z M12.626953125,17.900390625L10.5615234375,18.310546875 8.8916015625,19.4384765625 7.763671875,21.123046875 7.35351657867432,23.173828125 7.74169874191284,25.1879901885986 8.90625,26.89453125 13.125,31.083984375 14.82421875,32.2412109375 16.845703125,32.63671875 18.896484375,32.2265625 20.5810546875,31.0986328125 21.708984375,29.4287109375 22.119140625,27.36328125 21.7309551239014,25.3491230010986 20.56640625,23.642578125 16.34765625,19.453125 14.6337890625,18.310546875 12.626953125,17.900390625z M11.07421875,6.35742139816284L12.099609375,6.54785442352295 12.94921875,7.11914014816284 22.44140625,16.611328125 23.0126934051514,17.4609375 23.203125,18.486328125 22.5732421875,20.185546875 20.9765625,21.064453125 22.2802734375,22.470703125 23.3203125,23.8623046875 23.994140625,25.4296875 24.228515625,27.36328125 23.642578125,30.234375 22.060546875,32.578125 19.716796875,34.16015625 16.845703125,34.74609375 14.00390625,34.1748046875 11.630859375,32.578125 7.412109375,28.388671875 5.830078125,26.0009765625 5.2734375,23.173828125 5.84472751617432,20.302734375 7.412109375,17.958984375 9.755859375,16.376953125 12.626953125,15.791015625 14.384765625,15.99609375 9.228515625,10.83984375 8.6572265625,9.99755859375 8.466796875,8.994140625 9.2138671875,7.11914014816284 10.052490234375,6.54785442352295 11.07421875,6.35742139816284z M4.21875,4.21874952316284L4.21875,37.91015625 22.119140625,37.91015625 22.119140625,35.80078125 22.6025390625,33.1640625 23.935546875,30.9521484375 25.95703125,29.326171875 28.505859375,28.4765625 28.41796875,27.36328125 28.65234375,25.48828125 29.2822265625,23.9794921875 30.234375,22.6611328125 31.435546875,21.328125 31.669921875,21.064453125 30.0732421875,20.185546875 29.443359375,18.486328125 29.6337890625,17.4609375 30.205078125,16.611328125 39.697265625,7.11914014816284 40.53955078125,6.54785442352295 41.54296875,6.35742139816284 42.5683555603027,6.54785442352295 43.41796875,7.11914014816284 43.9892539978027,7.96875 44.1796875,8.994140625 43.9892539978027,9.99755859375 43.41796875,10.83984375 38.26171875,15.99609375 40.01953125,15.791015625 41.9055137634277,16.029052734375 43.6376953125,16.7431640625 46.318359375,19.365234375 46.318359375,4.21874952316284 4.21875,4.21874952316284z M0,0L50.537109375,0 50.537109375,25.283203125 58.9453125,25.283203125 62.1826171875,25.95703125 64.8779296875,27.7734375 66.708984375,30.4541015625 67.3828125,33.69140625 66.7236328125,36.9873046875 64.921875,39.66796875 62.2412109375,41.4697265625 58.9453125,42.12890625 50.537109375,42.12890625 50.3100547790527,45.54931640625 49.62890625,48.837890625 47.080078125,54.8583984375 43.125,59.970703125 37.998046875,63.92578125 31.962890625,66.474609375 28.67431640625,67.15576171875 25.25390625,67.3828125 21.8334941864014,67.15576171875 18.544921875,66.474609375 12.5244140625,63.92578125 7.412109375,59.970703125 3.45703220367432,54.8583984375 0.908203125,48.837890625 0.227050423622131,45.54931640625 0,42.12890625 0,0z" />
    </g>
  </g>
</svg>