<?xml version="1.0" encoding="utf-8"?>
<!DOCTYPE svg PUBLIC "-//W3C//DTD SVG 1.1//EN" "http://www.w3.org/Graphics/SVG/1.1/DTD/svg11.dtd">
<svg width="67.3828125000007" height="67.3828125" xmlns="http://www.w3.org/2000/svg" xmlns:xlink="http://www.w3.org/1999/xlink" xmlns:xml="http://www.w3.org/XML/1998/namespace" version="1.1">
  <g>
    <g>
      <path style="fill:#FF0000;fill-opacity:1" d="M16.845703125,12.626953125L18.486328125,12.9638671875 19.8193359375,13.8720703125 20.7275390625,15.205078125 21.064453125,16.845703125 20.7275390625,18.486328125 19.8193359375,19.8193359375 18.486328125,20.7275390625 16.845703125,21.064453125 15.205078125,20.7275390625 13.8720703125,19.8193359375 12.9638671875,18.486328125 12.626953125,16.845703125 12.9638671875,15.205078125 13.8720703125,13.8720703125 15.205078125,12.9638671875 16.845703125,12.626953125z M21.064453125,4.21874952316284L17.6806621551514,4.54834270477295 14.501953125,5.537109375 11.62353515625,7.09716796875 9.140625,9.140625 7.09716701507568,11.62353515625 5.537109375,14.501953125 4.54833984375,17.6806640625 4.21875,21.064453125 4.552001953125,24.4445819854736 5.5517578125,27.6123046875 7.12280178070068,30.4797382354736 9.169921875,32.958984375 11.649169921875,35.006103515625 14.5166015625,36.5771484375 17.6843242645264,37.576904296875 21.064453125,37.91015625 24.5947265625,37.529296875 27.978515625,36.38671875 35.80078125,44.208984375 42.099609375,44.208984375 42.099609375,50.537109375 48.427734375,50.537109375 48.427734375,56.8359375 54.755859375,56.8359375 54.755859375,63.1640625 63.1640625,63.1640625 32.958984375,32.958984375 34.86328125,30.673828125 63.1640625,58.9453125 63.1640625,54.755859375 36.38671875,27.978515625 37.529296875,24.5947284698486 37.91015625,21.064453125 37.576904296875,17.70263671875 36.5771484375,14.53125 35.006103515625,11.65283203125 32.958984375,9.169921875 30.47607421875,7.122802734375 27.59765625,5.5517578125 24.42626953125,4.55200481414795 21.064453125,4.21874952316284z M21.064453125,0L23.909912109375,0.190432548522949 26.6455078125,0.76171875 31.669921875,2.8857421875 35.9326171875,6.181640625 39.228515625,10.4443359375 41.3525390625,15.46875 42.099609375,21.064453125 41.8945274353027,24.0307636260986 41.279296875,26.89453125 67.3828125,52.998046875 67.3828125,67.3828125 50.537109375,67.3828125 50.537109375,61.0546875 44.208984375,61.0546875 44.208984375,54.755859375 37.91015625,54.755859375 37.91015625,48.427734375 34.04296875,48.427734375 26.89453125,41.279296875 24.03076171875,41.89453125 21.064453125,42.099609375 16.8347148895264,41.685791015625 12.8759765625,40.4443359375 9.290771484375,38.48876953125 6.181640625,35.9326171875 3.614501953125,32.83447265625 1.6552734375,29.2529296875 0.413818180561066,25.2941913604736 0,21.064453125 0.7470703125,15.46875 2.87109375,10.4296875 6.1669921875,6.1669921875 10.4296875,2.87109351158142 15.46875,0.7470703125 21.064453125,0z" />
    </g>
  </g>
</svg>