<?xml version="1.0" encoding="utf-8"?>
<!DOCTYPE svg PUBLIC "-//W3C//DTD SVG 1.1//EN" "http://www.w3.org/Graphics/SVG/1.1/DTD/svg11.dtd">
<svg width="58.9453125" height="61.318359375" xmlns="http://www.w3.org/2000/svg" xmlns:xlink="http://www.w3.org/1999/xlink" xmlns:xml="http://www.w3.org/XML/1998/namespace" version="1.1">
  <g>
    <g>
      <path style="fill:#FF0000;fill-opacity:1" d="M42.099609375,21.181640625L50.537109375,23.291015625 50.537109375,27.509765625 42.099609375,25.400390625 42.099609375,21.181640625z M16.845703125,21.181640625L16.845703125,25.400390625 8.408203125,27.509765625 8.408203125,23.291015625 16.845703125,21.181640625z M37.91015625,20.126953125L40.01953125,22.236328125 37.91015625,24.345703125 35.80078125,22.236328125 37.91015625,20.126953125z M21.064453125,20.126953125L23.173828125,22.236328125 21.064453125,24.345703125 18.955078125,22.236328125 21.064453125,20.126953125z M29.47265625,18.017578125L33.69140625,19.072265625 33.69140625,23.291015625 29.47265625,22.236328125 25.25390625,23.291015625 25.25390625,19.072265625 29.47265625,18.017578125z M29.47265625,14.853515625L4.21875,21.181640625 4.21875,24.345703125 6.328125,26.455078125 4.21875,28.564453125 4.21875,50.654296875 29.47265625,56.982421875 54.755859375,50.654296875 54.755859375,28.564453125 52.646484375,26.455078125 54.755859375,24.345703125 54.755859375,21.181640625 29.47265625,14.853515625z M29.47265625,4.3359375L4.21875,10.6640625 4.21875,16.962890625 29.47265625,10.6640625 54.755859375,16.962890625 54.755859375,10.6640625 29.47265625,4.3359375z M29.47265625,0L58.9453125,7.35351610183716 58.9453125,53.96484375 29.47265625,61.318359375 0,53.96484375 0,7.35351610183716 29.47265625,0z" />
    </g>
  </g>
</svg>