<?xml version="1.0" encoding="utf-8"?>
<!DOCTYPE svg PUBLIC "-//W3C//DTD SVG 1.1//EN" "http://www.w3.org/Graphics/SVG/1.1/DTD/svg11.dtd">
<svg width="58.9453125" height="67.3828125" xmlns="http://www.w3.org/2000/svg" xmlns:xlink="http://www.w3.org/1999/xlink" xmlns:xml="http://www.w3.org/XML/1998/namespace" version="1.1">
  <g>
    <g>
      <path style="fill:#FF0000;fill-opacity:1" d="M27.36328125,41.806640625L27.36328125,48.515625 25.4443359375,48.7646484375 23.173828125,49.306640625 20.859375,50.1416015625 18.8232421875,51.298828125 17.3876953125,52.8369140625 16.845703125,54.755859375 17.0434551239014,55.9423828125 17.63671875,56.982421875 19.599609375,58.6669921875 22.060546875,59.853515625 24.375,60.52734375 29.47265625,61.0546875 34.5703125,60.52734375 36.064453125,60.1318359375 37.7197265625,59.5166015625 39.345703125,58.681640625 40.751953125,57.6123046875 41.7333984375,56.2939453125 42.099609375,54.755859375 41.5576171875,52.8369140625 40.1220703125,51.298828125 38.0859375,50.1416015625 35.771484375,49.306640625 33.5009765625,48.7646484375 31.58203125,48.515625 31.58203125,52.646484375 30.966796875,54.140625 29.47265625,54.755859375 29.47265625,42.12890625 27.36328125,41.806640625z M7.705078125,20.33203125L13.3447265625,26.0595703125 19.04296875,31.69921875 23.525390625,36.181640625 24.6826171875,37.3681640625 25.869140625,38.525390625 27.5244140625,39.6240234375 29.47265625,40.01953125 31.4208984375,39.6240234375 33.076171875,38.525390625 36.1669921875,35.537109375 39.169921875,32.431640625 51.240234375,20.33203125 47.98828125,22.119140625 44.23828125,23.4228515625 40.341796875,24.31640625 36.650390625,24.873046875 31.46484375,35.21484375 30.52734375,35.80078125 29.794921875,35.478515625 29.47265625,34.74609375 29.7216796875,34.04296875 30.380859375,32.607421875 31.2890625,30.76171875 32.2705078125,28.7841796875 33.193359375,26.9677734375 33.896484375,25.60546875 34.16015625,25.107421875 29.47265625,25.283203125 25.9423828125,25.1806640625 22.119140625,24.8583984375 18.1787109375,24.2578125 14.326171875,23.3349609375 10.7666015625,22.0458984375 7.705078125,20.33203125z M44.208984375,11.572265625L45.1025390625,11.8212890625 45.76171875,12.451171875 46.171875,13.30078125 46.318359375,14.208984375 46.171875,15.1171875 45.76171875,15.966796875 45.1025390625,16.5966796875 44.208984375,16.845703125 43.3154296875,16.5966796875 42.65625,15.966796875 42.24609375,15.1171875 42.099609375,14.208984375 42.24609375,13.30078125 42.65625,12.451171875 43.3154296875,11.8212890625 44.208984375,11.572265625z M48.193359375,9.78515625L49.1455078125,11.6455078125 49.482421875,13.7109375 48.75,16.7431640625 46.8310546875,19.072265625 44.12109375,20.5517578125 41.044921875,21.064453125 38.701171875,20.771484375 37.763671875,22.6171875 40.2099609375,22.20703125 43.330078125,21.4599609375 46.640625,20.3759765625 49.62890625,18.9111328125 51.7822265625,17.0361328125 52.408447265625,15.941162109375 52.6171875,14.736328125 52.1923828125,13.1103515625 51.1083984375,11.7333984375 49.6728515625,10.6201171875 48.193359375,9.78515625z M41.015625,8.408203125L38.7744140625,8.7744140625 36.7529296875,9.8291015625 35.2880859375,11.484375 34.716796875,13.681640625 34.92919921875,15.069580078125 35.56640625,16.3037109375 37.646484375,18.134765625 37.705078125,18.017578125 38.14453125,17.2265625 38.935546875,16.845703125 39.6826171875,17.16796875 39.990234375,17.9296875 39.8876953125,18.3984375 39.66796875,18.837890625 40.341796875,18.92578125 41.015625,18.955078125 43.2861328125,18.603515625 45.3076171875,17.578125 46.7724609375,15.9228515625 47.34375,13.7109375 46.7724609375,11.4697265625 45.3076171875,9.814453125 43.2861328125,8.7744140625 41.015625,8.408203125z M29.443359375,6.328125L21.7529296875,6.7822265625 14.23828125,8.408203125 11.8798828125,9.287109375 9.2724609375,10.634765625 7.1630859375,12.451171875 6.514892578125,13.53515625 6.298828125,14.736328125 6.8994140625,16.640625 8.26171875,18.134765625 11.07421875,19.8779296875 14.53125,21.1962890625 18.3837890625,22.1484375 22.3388671875,22.7490234375 26.1181640625,23.0712890625 29.47265625,23.173828125 33.0029296875,23.115234375 35.2843856811523,22.8880348205566 36.708984375,20.009765625 35.0830078125,18.8818359375 33.7939453125,17.40234375 32.9443359375,15.64453125 32.63671875,13.681640625 33.0322265625,11.42578125 34.130859375,9.4921875 35.7861328125,7.95410203933716 37.822265625,6.884765625 33.6328125,6.45996141433716 29.443359375,6.328125z M29.47265625,0L35.6982421875,0.292968988418579 41.865234375,1.259765625 43.447265625,0.322265148162842 45.263671875,0 47.0068359375,0.292968988418579 48.5302734375,1.1279296875 49.7021484375,2.41699242591858 50.390625,4.04296875 53.5400390625,5.84472703933716 56.279296875,8.2177734375 58.212890625,11.1767578125 58.9453125,14.736328125 58.564453125,17.3291015625 57.5537109375,19.4970703125 56.07421875,21.416015625 54.287109375,23.232421875 35.80078125,41.748046875 35.80078125,44.912109375 39.462890625,46.1279296875 42.861328125,48.1494140625 45.3515625,51.005859375 46.0766563415527,52.763671875 46.318359375,54.755859375 46.318359375,56.865234375 46.0949668884277,58.758544921875 45.4248046875,60.4541015625 43.125,63.251953125 39.9609375,65.2734375 36.474609375,66.533203125 32.98828125,67.177734375 29.47265625,67.3828125 25.95703125,67.177734375 22.470703125,66.533203125 18.984375,65.2734375 15.8203125,63.251953125 13.5205078125,60.4541015625 12.8503398895264,58.758544921875 12.626953125,56.865234375 12.626953125,54.755859375 12.8686504364014,52.763671875 13.59375,51.005859375 16.083984375,48.1494140625 19.4677734375,46.1279296875 23.14453125,44.912109375 23.14453125,41.748046875 2.958984375,21.5625 0.8203125,18.4423828125 0.205078125,16.614990234375 0,14.736328125 0.2197265625,12.6708984375 0.87890625,10.810546875 3.22265625,7.63183546066284 6.5771484375,5.11230421066284 10.517578125,3.20800733566284 14.6044921875,1.86035132408142 18.369140625,0.99609375 23.8916015625,0.2490234375 29.47265625,0z" />
    </g>
  </g>
</svg>