<?xml version="1.0" encoding="utf-8"?>
<!DOCTYPE svg PUBLIC "-//W3C//DTD SVG 1.1//EN" "http://www.w3.org/Graphics/SVG/1.1/DTD/svg11.dtd">
<svg width="67.3828125000058" height="67.3828125" xmlns="http://www.w3.org/2000/svg" xmlns:xlink="http://www.w3.org/1999/xlink" xmlns:xml="http://www.w3.org/XML/1998/namespace" version="1.1">
  <g>
    <g>
      <path style="fill:#FF0000;fill-opacity:1" d="M42.099609375,54.755859375L37.5,57.216796875 36.2548828125,58.359375 35.80078125,60 36.0498046875,61.2451171875 36.7236328125,62.2412109375 37.7197265625,62.9150390625 38.96484375,63.1640625 40.1953125,62.9150390625 41.19140625,62.2265625 41.8505859375,61.2158203125 42.099609375,60 42.099609375,54.755859375z M25.25390625,54.755859375L20.654296875,57.216796875 19.4091796875,58.359375 18.955078125,60 19.2041015625,61.2451171875 19.8779296875,62.2412109375 20.8740234375,62.9150390625 22.119140625,63.1640625 23.349609375,62.9150390625 24.345703125,62.2265625 25.0048828125,61.2158203125 25.25390625,60 25.25390625,54.755859375z M48.69140625,48.427734375L48.017578125,48.779296875 46.787109375,49.951171875 46.318359375,51.591796875 46.5673828125,52.8369140625 47.2412109375,53.8330078125 48.2373046875,54.5068359375 49.482421875,54.755859375 50.712890625,54.5068359375 51.7236328125,53.8330078125 52.3974609375,52.8369140625 52.646484375,51.591796875 52.646484375,48.427734375 48.69140625,48.427734375z M31.845703125,48.427734375L31.171875,48.779296875 29.94140625,49.951171875 29.47265625,51.591796875 29.7216796875,52.8369140625 30.3955078125,53.8330078125 31.3916015625,54.5068359375 32.63671875,54.755859375 33.8671875,54.5068359375 34.8779296875,53.8330078125 35.5517578125,52.8369140625 35.80078125,51.591796875 35.80078125,48.427734375 31.845703125,48.427734375z M15.76171875,48.017578125L14.326171875,48.779296875 13.095703125,49.951171875 12.626953125,51.591796875 12.8759765625,52.8369140625 13.5498046875,53.8330078125 14.5458984375,54.5068359375 15.791015625,54.755859375 17.021484375,54.5068359375 18.0322265625,53.8330078125 18.7060546875,52.8369140625 18.955078125,51.591796875 18.955078125,48.427734375 17.34375,48.33984375 15.76171875,48.017578125z M37.91015625,14.736328125L35.357666015625,14.94140625 32.9736328125,15.556640625 28.8134765625,17.87109375 25.60546875,21.4306640625 23.583984375,25.986328125 23.49609375,26.30859375 21.2915019989014,25.5395526885986 18.955078125,25.283203125 16.8273906707764,25.4919452667236 14.8388671875,26.1181640625 11.4990234375,28.3740234375 9.2431640625,31.7138671875 8.616943359375,33.695068359375 8.408203125,35.80078125 8.616943359375,37.9248046875 9.2431640625,39.90234375 11.4990234375,43.2421875 14.8388671875,45.498046875 16.8273906707764,46.11328125 18.955078125,46.318359375 54.755859375,46.318359375 58.0224609375,45.6591796875 60.703125,43.857421875 62.5048828125,41.1767578125 63.1640625,37.91015625 62.5048828125,34.6142578125 60.703125,31.93359375 58.037109375,30.1318359375 54.755859375,29.47265625 52.646484375,29.47265625 52.3571739196777,26.5173358917236 51.4892578125,23.7451171875 50.1196250915527,21.23291015625 48.3251953125,19.0576171875 46.1498985290527,17.26318359375 43.6376953125,15.8935546875 40.8654747009277,15.025634765625 37.91015625,14.736328125z M23.26171875,14.736328125L19.951171875,15.3955078125 17.2412109375,17.197265625 15.41015625,19.8779296875 14.736328125,23.173828125 14.736328125,23.525390625 14.765625,23.876953125 16.845703125,23.3349609375 18.984375,23.14453125 22.119140625,23.5546875 24.3896484375,19.423828125 27.71484375,16.083984375 25.5908203125,15.087890625 23.26171875,14.736328125z M18.662109375,6.328125L17.28515625,12.978515625 10.83984375,10.83984375 12.978515625,17.28515625 6.328125,18.662109375 11.396484375,23.173828125 6.328125,27.685546875 8.84765625,28.18359375 10.6201171875,26.2939453125 12.744140625,24.78515625 12.65625,23.994140625 12.626953125,23.203125 12.835693359375,21.075439453125 13.4619140625,19.0869140625 15.7177734375,15.732421875 19.0576171875,13.4619140625 21.0461406707764,12.835693359375 23.173828125,12.626953125 26.5576171875,13.1982421875 29.58984375,14.82421875 32.1240234375,13.65234375 34.8046875,12.919921875 35.5078125,10.83984375 29.033203125,12.978515625 27.685546875,6.328125 23.173828125,11.396484375 18.662109375,6.328125z M17.197265625,0L18.369140625,0.102538824081421 19.365234375,0.76171875 23.173828125,5.06835985183716 26.982421875,0.76171875 27.6123046875,0.263671875 28.359375,0 30.1025390625,0.380859375 31.0546875,1.87499988079071 32.2265625,7.5 33.544921875,7.03125 35.390625,6.38671875 37.20703125,5.8154296875 38.408203125,5.56640625 40.078125,6.2548828125 40.78125,7.91015625 40.5029296875,9.3017578125 39.990234375,10.634765625 42.9272422790527,11.2060546875 45.703125,12.216796875 50.5517578125,15.380859375 54.2138671875,19.86328125 55.5139122009277,22.5146484375 56.396484375,25.37109375 58.656005859375,25.8874530792236 60.7470703125,26.7919921875 64.2333984375,29.560546875 66.5478515625,33.369140625 67.174072265625,35.56640625 67.3828125,37.880859375 67.18505859375,40.155029296875 66.591796875,42.2900390625 64.39453125,45.9814453125 61.0546875,48.7353515625 56.865234375,50.302734375 56.865234375,51.591796875 56.279296875,54.462890625 54.697265625,56.806640625 52.353515625,58.388671875 49.482421875,58.974609375 47.8564453125,58.76953125 46.318359375,58.212890625 46.318359375,60 45.732421875,62.8564453125 44.150390625,65.2001953125 41.8212890625,66.796875 38.96484375,67.3828125 36.09375,66.796875 33.75,65.21484375 32.16796875,62.87109375 31.58203125,60 31.58203125,59.4287109375 31.611328125,58.857421875 30.5126953125,58.6083984375 29.47265625,58.212890625 29.47265625,60 28.88671875,62.8564453125 27.3046875,65.2001953125 24.9755859375,66.796875 22.119140625,67.3828125 19.248046875,66.796875 16.904296875,65.21484375 15.322265625,62.87109375 14.736328125,60 14.7509765625,59.4287109375 14.794921875,58.857421875 12.2607421875,58.037109375 10.2392578125,56.42578125 8.8916015625,54.2138671875 8.408203125,51.591796875 8.7744140625,49.3212890625 9.814453125,47.28515625 7.42675685882568,44.959716796875 5.654296875,42.2021484375 4.5556640625,39.114990234375 4.189453125,35.80078125 4.8046875,31.669921875 3.5009765625,31.4501953125 1.9189453125,31.0546875 0.5712890625,30.3369140625 0,29.12109375 0.0878901481628418,27.9638671875 0.76171875,26.982421875 5.068359375,23.173828125 0.76171875,19.365234375 0.263671875,18.720703125 0,17.98828125 0.380859375,16.23046875 1.875,15.263671875 7.470703125,14.12109375 7.001953125,12.7880859375 6.357421875,10.927734375 5.7861328125,9.0966796875 5.537109375,7.88085889816284 5.7275390625,6.98730421066284 6.2548828125,6.2548828125 7.0166015625,5.7568359375 7.91015625,5.56640625 9.1259765625,5.8154296875 10.95703125,6.38671875 12.802734375,7.03125 14.12109375,7.5 15.263671875,1.87499988079071 15.498046875,1.2451171875 15.9375,0.6298828125 16.5234375,0.175781726837158 17.197265625,0z" />
    </g>
  </g>
</svg>