<?xml version="1.0" encoding="utf-8"?>
<!DOCTYPE svg PUBLIC "-//W3C//DTD SVG 1.1//EN" "http://www.w3.org/Graphics/SVG/1.1/DTD/svg11.dtd">
<svg width="67.3828125000009" height="53.115234375" xmlns="http://www.w3.org/2000/svg" xmlns:xlink="http://www.w3.org/1999/xlink" xmlns:xml="http://www.w3.org/XML/1998/namespace" version="1.1">
  <g>
    <g>
      <path style="fill:#FF0000;fill-opacity:1" d="M32.2265625,33.69140625L30.76171875,34.6142578125 29.326171875,35.595703125 28.388671875,36.708984375 27.626953125,37.9833984375 27.36328125,39.43359375 27.36328125,41.806640625 30.5126953125,42.0263671875 33.662109375,42.099609375 36.85546875,42.0263671875 40.01953125,41.806640625 40.01953125,39.43359375 39.76318359375,37.99072265625 38.994140625,36.708984375 38.056640625,35.595703125 36.62109375,34.6142578125 35.15625,33.69140625 32.2265625,33.69140625z M42.59765625,23.14453125L42.1435546875,23.2177734375 41.71875,23.408203125 40.78125,24.0087890625 39.873046875,24.638671875 35.80078125,27.36328125 35.80078125,31.58203125 41.71875,35.5078125 42.59765625,35.771484375 43.7841796875,35.2734375 44.208984375,34.04296875 44.208984375,24.755859375 43.740234375,23.61328125 42.59765625,23.14453125z M24.78515625,23.14453125L23.5986328125,23.642578125 23.173828125,24.873046875 23.173828125,34.16015625 23.642578125,35.302734375 24.78515625,35.771484375 25.6640625,35.5078125 31.58203125,31.58203125 31.58203125,27.36328125 28.6376953125,25.3564453125 25.6640625,23.408203125 24.78515625,23.14453125z M50.419921875,19.072265625L50.5078125,20.0537109375 50.537109375,21.03515625 50.537109375,26.455078125 50.1416015625,28.037109375 49.130859375,29.3701171875 47.7685546875,30.439453125 46.318359375,31.23046875 46.34765625,32.2412109375 46.376953125,33.28125 46.1865234375,35.09765625 45.322265625,36.708984375 46.1572265625,38.3056640625 46.318359375,39.9609375 46.318359375,40.8984375 49.365234375,40.166015625 52.998046875,38.994140625 56.689453125,37.353515625 59.94140625,35.244140625 62.2705078125,32.63671875 62.940673828125,31.1279296875 63.1640625,29.47265625 62.5341796875,26.8212890625 60.849609375,24.5361328125 58.4619140625,22.6318359375 55.7080078125,21.09375 52.91015625,19.9072265625 50.419921875,19.072265625z M16.962890625,19.072265625L14.47265625,19.9072265625 11.6748046875,21.09375 8.9208984375,22.6318359375 6.533203125,24.5361328125 4.8486328125,26.8212890625 4.21875,29.47265625 4.442138671875,31.1279296875 5.1123046875,32.63671875 7.44140625,35.244140625 10.693359375,37.353515625 14.384765625,38.994140625 18.017578125,40.166015625 21.064453125,40.8984375 21.064453125,39.9609375 21.2255859375,38.3056640625 22.060546875,36.708984375 21.1962890625,35.09765625 21.005859375,33.28125 21.03515625,32.2412109375 21.064453125,31.23046875 19.6142578125,30.439453125 18.251953125,29.3701171875 17.2412109375,28.037109375 16.845703125,26.455078125 16.845703125,21.03515625 16.875,20.0537109375 16.962890625,19.072265625z M33.69140625,4.18945360183716L30.582275390625,4.47143602371216 27.6416015625,5.31738328933716 24.93896484375,6.65771532058716 22.5439453125,8.4228515625 20.4931621551514,10.579833984375 18.8232421875,13.095703125 17.6184062957764,15.9082050323486 16.962890625,18.955078125 17.666015625,20.302734375 18.80859375,21.416015625 20.15625,22.32421875 21.50390625,23.02734375 22.880859375,21.5625 24.78515625,21.03515625 26.8359375,21.6796875 32.16796875,25.224609375 32.9443359375,25.2392578125 33.720703125,25.25390625 34.4677734375,25.25390625 35.21484375,25.224609375 40.546875,21.6796875 42.59765625,21.03515625 44.501953125,21.5625 45.87890625,23.02734375 47.2265625,22.32421875 48.5595703125,21.416015625 49.6875,20.302734375 50.390625,18.955078125 49.7387657165527,15.9082050323486 48.544921875,13.095703125 46.8859825134277,10.579833984375 44.8388671875,8.4228515625 42.4401817321777,6.65771532058716 39.7265625,5.31738328933716 36.7822265625,4.47143602371216 33.69140625,4.18945360183716z M33.69140625,0L37.2216796875,0.292969167232513 40.60546875,1.17187547683716 43.7622032165527,2.57446336746216 46.611328125,4.43847703933716 49.1235313415527,6.73828172683716 51.26953125,9.4482421875 52.9614219665527,12.506103515625 54.111328125,15.849609375 57.1435546875,17.0947265625 60.1904296875,18.7353515625 62.9736328125,20.771484375 65.2587890625,23.232421875 66.8115234375,26.1328125 67.3828125,29.47265625 67.130126953125,31.845703125 66.3720703125,33.984375 63.6767578125,37.6171875 59.794921875,40.48828125 55.2685546875,42.65625 50.6103515625,44.1943359375 46.318359375,45.17578125 46.318359375,53.115234375 43.154296875,52.060546875 40.01953125,53.115234375 40.01953125,46.025390625 36.85546875,46.2451171875 33.69140625,46.318359375 30.52734375,46.2451171875 27.36328125,46.025390625 27.36328125,48.896484375 24.228515625,47.841796875 21.064453125,48.896484375 21.064453125,45.17578125 16.7724609375,44.1943359375 12.1142578125,42.65625 7.587890625,40.48828125 3.70605564117432,37.6171875 1.0107421875,33.9697265625 0.252685189247131,31.827392578125 0,29.47265625 0.5712890625,26.1328125 2.1240234375,23.232421875 4.4091796875,20.771484375 7.1923828125,18.7353515625 10.2392578125,17.0947265625 13.271484375,15.849609375 14.42138671875,12.506103515625 16.11328125,9.4482421875 18.2592754364014,6.73828172683716 20.771484375,4.43847703933716 23.62060546875,2.57446336746216 26.77734375,1.17187547683716 30.1611328125,0.292969167232513 33.69140625,0z" />
    </g>
  </g>
</svg>