<?xml version="1.0" encoding="utf-8"?>
<!DOCTYPE svg PUBLIC "-//W3C//DTD SVG 1.1//EN" "http://www.w3.org/Graphics/SVG/1.1/DTD/svg11.dtd">
<svg width="54.7558593750005" height="67.3828125" xmlns="http://www.w3.org/2000/svg" xmlns:xlink="http://www.w3.org/1999/xlink" xmlns:xml="http://www.w3.org/XML/1998/namespace" version="1.1">
  <g>
    <g>
      <path style="fill:#FF0000;fill-opacity:1" d="M10.517578125,54.755859375L18.955078125,54.755859375 18.955078125,56.865234375 10.517578125,56.865234375 10.517578125,54.755859375z M35.80078125,50.537109375L35.80078125,52.646484375 36.1376953125,54.2724609375 37.0458984375,55.6201171875 38.37890625,56.5283203125 40.01953125,56.865234375 41.66015625,56.5283203125 42.9931640625,55.6201171875 43.88671875,54.287109375 44.208984375,52.646484375 44.208984375,50.537109375 35.80078125,50.537109375z M29.033203125,48.8671875L28.037109375,49.86328125 30.52734375,63.1640625 35.80078125,63.1640625 35.80078125,58.974609375 39.755859375,58.974609375 37.3974609375,58.4033203125 35.478515625,57.0263671875 34.1748046875,55.0341796875 33.69140625,52.646484375 33.69140625,49.306640625 31.58203125,51.416015625 29.033203125,48.8671875z M40.341796875,42.65625L34.5703125,48.427734375 46.318359375,48.427734375 46.318359375,52.646484375 45.849609375,55.0341796875 44.560546875,57.0263671875 42.6416015625,58.4033203125 40.283203125,58.974609375 44.208984375,58.974609375 44.208984375,63.1640625 50.537109375,63.1640625 50.537109375,56.162109375 49.7900390625,51.650390625 47.6953125,47.6953125 44.47265625,44.6044921875 40.341796875,42.65625z M14.4140625,42.65625L10.283203125,44.619140625 7.060546875,47.7099609375 4.9658203125,51.650390625 4.21875,56.162109375 4.21875,63.1640625 10.517578125,63.1640625 10.517578125,58.974609375 18.955078125,58.974609375 18.955078125,63.1640625 24.228515625,63.1640625 26.71875,49.86328125 25.693359375,48.8671875 23.173828125,51.416015625 18.7353515625,47.080078125 14.4140625,42.65625z M18.955078125,40.01953125L16.845703125,42.12890625 19.98046875,45.3076171875 23.173828125,48.427734375 27.36328125,44.208984375 29.4580078125,46.34765625 31.58203125,48.427734375 37.91015625,42.12890625 35.80078125,40.01953125 31.58203125,40.01953125 29.4873046875,42.12890625 27.36328125,44.208984375 23.173828125,40.01953125 18.955078125,40.01953125z M24.169921875,32.4609375L24.7119140625,32.666015625 25.341796875,33.10546875 26.1767578125,33.544921875 27.36328125,33.75 28.5498046875,33.544921875 29.3994140625,33.10546875 30.0439453125,32.666015625 30.5859375,32.4609375 31.2890625,32.75390625 31.58203125,33.45703125 31.083984375,34.4384765625 29.912109375,35.1708984375 28.5205078125,35.6396484375 27.36328125,35.80078125 26.220703125,35.6396484375 24.8291015625,35.1708984375 23.642578125,34.423828125 23.14453125,33.45703125 23.4521484375,32.75390625 24.169921875,32.4609375z M25.25390625,27.36328125L29.443359375,27.36328125 28.828125,28.8427734375 27.36328125,29.47265625 25.869140625,28.857421875 25.25390625,27.36328125z M33.69140625,21.064453125L35.185546875,21.6796875 35.80078125,23.173828125 35.80078125,25.283203125 35.1708984375,26.748046875 33.69140625,27.36328125 32.2119140625,26.748046875 31.58203125,25.283203125 31.58203125,23.173828125 32.197265625,21.6796875 33.69140625,21.064453125z M21.064453125,21.064453125L22.5439453125,21.6943359375 23.173828125,23.173828125 23.173828125,25.283203125 22.5439453125,26.748046875 21.064453125,27.36328125 19.5849609375,26.748046875 18.955078125,25.283203125 18.955078125,23.173828125 19.5703125,21.6796875 21.064453125,21.064453125z M14.736328125,18.955078125L14.736328125,23.173828125 12.626953125,23.173828125 12.626953125,25.283203125 12.916259765625,28.2385272979736 13.7841796875,31.0107421875 15.150146484375,33.52294921875 16.93359375,35.6982421875 19.1015605926514,37.49267578125 21.62109375,38.8623046875 24.404296875,39.730224609375 27.36328125,40.01953125 30.340576171875,39.730224609375 33.1201171875,38.8623046875 35.628662109375,37.496337890625 37.79296875,35.712890625 39.576416015625,33.544921875 40.9423828125,31.025390625 41.8102989196777,28.2421894073486 42.099609375,25.283203125 42.099609375,23.173828125 40.01953125,23.173828125 40.01953125,18.955078125 14.736328125,18.955078125z M27.36328125,5.2734375L28.2275390625,5.61035108566284 28.76953125,6.34277391433716 29.3994140625,7.060546875 30.52734375,7.3828125 31.58203125,7.3828125 31.58203125,9.287109375 31.259765625,10.9716796875 30.380859375,12.3779296875 29.0478515625,13.3447265625 27.36328125,13.7109375 25.72265625,13.3740234375 24.3896484375,12.451171875 23.49609375,11.103515625 23.173828125,9.462890625 23.173828125,7.3828125 24.228515625,7.3828125 25.341796875,7.060546875 25.986328125,6.34277391433716 26.5283203125,5.61035108566284 27.36328125,5.2734375z M27.36328125,4.21874952316284L11.19140625,8.701171875 10.0634765625,9.228515625 9.1845703125,10.0634765625 8.61328125,11.1328125 8.408203125,12.36328125 8.6279296875,13.6376962661743 9.2578125,14.736328125 12.626953125,18.955078125 12.802734375,18.955078125 16.190185546875,17.127685546875 19.7900390625,15.8056640625 23.536376953125,15.003662109375 27.36328125,14.736328125 31.212158203125,15.003662109375 34.9658203125,15.8056640625 38.565673828125,17.127685546875 41.953125,18.955078125 42.099609375,18.955078125 45.498046875,14.736328125 46.1132774353027,13.61572265625 46.318359375,12.36328125 46.11328125,11.1328125 45.5419921875,10.0634765625 44.6630859375,9.228515625 43.53515625,8.701171875 27.36328125,4.21874952316284z M27.36328125,0L28.564453125,0.175781726837158 44.677734375,4.658203125 47.0361328125,5.7568359375 48.8818359375,7.529296875 50.09765625,9.78515625 50.537109375,12.36328125 50.15625,14.70703125 49.1748046875,16.728515625 47.8271484375,18.5888671875 46.318359375,20.419921875 46.318359375,25.283203125 45.9741172790527,28.9013690948486 44.94140625,32.373046875 43.2641563415527,35.58837890625 40.986328125,38.4375 43.9050254821777,39.43359375 46.5673828125,40.8984375 50.91796875,44.94140625 52.5329551696777,47.4169921875 53.7451171875,50.15625 54.5031700134277,53.09326171875 54.755859375,56.162109375 54.755859375,67.3828125 0,67.3828125 0,56.162109375 0.252685189247131,53.09326171875 1.0107421875,50.15625 2.222900390625,47.4169921875 3.837890625,44.94140625 8.203125,40.9130859375 10.87646484375,39.459228515625 13.798828125,38.466796875 11.513671875,35.61767578125 9.814453125,32.40234375 8.759765625,28.9233417510986 8.408203125,25.283203125 8.408203125,20.419921875 6.884765625,18.5888671875 5.537109375,16.7431640625 4.5849609375,14.7216796875 4.21875,12.36328125 4.6435546875,9.7705078125 5.8447265625,7.5146484375 7.70507717132568,5.7568359375 10.078125,4.658203125 26.162109375,0.175781726837158 27.36328125,0z" />
    </g>
  </g>
</svg>