<?xml version="1.0" encoding="utf-8"?>
<!DOCTYPE svg PUBLIC "-//W3C//DTD SVG 1.1//EN" "http://www.w3.org/Graphics/SVG/1.1/DTD/svg11.dtd">
<svg width="67.3828125000004" height="67.3828125" xmlns="http://www.w3.org/2000/svg" xmlns:xlink="http://www.w3.org/1999/xlink" xmlns:xml="http://www.w3.org/XML/1998/namespace" version="1.1">
  <g>
    <g>
      <path style="fill:#FF0000;fill-opacity:1" d="M18.955078125,52.646484375L17.4609375,52.9248046875 16.1865234375,53.701171875 15.2490234375,54.8583984375 14.794921875,56.30859375 17.9003887176514,58.55712890625 21.240234375,60.380859375 22.6318359375,58.857421875 23.173828125,56.865234375 22.8369140625,55.224609375 21.9287109375,53.8916015625 20.595703125,52.9833984375 18.955078125,52.646484375z M48.427734375,50.537109375L45.966796875,51.03515625 43.9599609375,52.3974609375 42.59765625,54.404296875 42.099609375,56.865234375 42.5830078125,59.2529296875 43.9453125,61.2890625 49.51171875,58.5498046875 54.345703125,54.697265625 53.3935546875,53.0126953125 52.03125,51.6943359375 50.3466796875,50.8447265625 48.427734375,50.537109375z M26.30859375,40.01953125L25.0927734375,40.2685546875 24.0966796875,40.9423828125 23.4228515625,41.9384765625 23.173828125,43.154296875 23.4228515625,44.3701171875 24.08203125,45.380859375 25.0634765625,46.0693359375 26.30859375,46.318359375 27.5390625,46.0693359375 28.5498046875,45.3955078125 29.2236328125,44.3994140625 29.47265625,43.154296875 29.2236328125,41.923828125 28.53515625,40.927734375 27.5244140625,40.2685546875 26.30859375,40.01953125z M46.318359375,35.80078125L44.677734375,36.1376953125 43.3447265625,37.0458984375 42.4365234375,38.37890625 42.099609375,40.01953125 42.4365234375,41.66015625 43.3447265625,42.9931640625 44.677734375,43.88671875 46.318359375,44.208984375 47.958984375,43.88671875 49.2919921875,42.9931640625 50.2001953125,41.66015625 50.537109375,40.01953125 50.2001953125,38.37890625 49.2919921875,37.0458984375 47.958984375,36.1376953125 46.318359375,35.80078125z M61.0546875,29.47265625L59.4140625,29.8095703125 58.0810546875,30.7177734375 57.1875,32.05078125 56.865234375,33.69140625 57.1875,35.33203125 58.0810546875,36.6650390625 59.4140625,37.5732421875 61.0546875,37.91015625 62.0068359375,37.79296875 62.900390625,37.470703125 63.0908203125,35.5810546875 63.1640625,33.69140625 63.0908203125,31.8017578125 62.900390625,29.912109375 62.0068359375,29.58984375 61.0546875,29.47265625z M6.328125,27.36328125L5.5810546875,27.421875 4.86328125,27.568359375 4.3798828125,30.615234375 4.21875,33.69140625 4.3798828125,36.767578125 4.86328125,39.814453125 5.5810546875,39.9609375 6.328125,40.01953125 8.7890625,39.521484375 10.78125,38.1591796875 12.12890625,36.15234375 12.626953125,33.69140625 12.12890625,31.23046875 10.78125,29.2236328125 8.7890625,27.861328125 6.328125,27.36328125z M30.52734375,18.955078125L27.6708984375,19.541015625 25.341796875,21.123046875 23.759765625,23.4521484375 23.173828125,26.30859375 23.7451171875,29.1796875 25.3125,31.5234375 27.65625,33.10546875 30.52734375,33.69140625 33.3984375,33.10546875 35.7421875,31.5234375 37.32421875,29.1796875 37.91015625,26.30859375 37.32421875,23.4521484375 35.7275390625,21.123046875 33.3837890625,19.541015625 30.52734375,18.955078125z M21.240234375,7.001953125L17.9003887176514,8.82568359375 14.794921875,11.07421875 15.2490234375,12.5390625 16.171875,13.6962890625 17.4462890625,14.4580078125 18.955078125,14.736328125 20.595703125,14.3994140625 21.9287109375,13.4912109375 22.8369140625,12.158203125 23.173828125,10.517578125 22.6318359375,8.525390625 21.240234375,7.001953125z M43.9453125,6.09375047683716L42.5830078125,8.1298828125 42.099609375,10.517578125 42.59765625,12.978515625 43.9599609375,14.9853515625 45.966796875,16.34765625 48.427734375,16.845703125 50.3466796875,16.552734375 52.03125,15.703125 53.3935546875,14.384765625 54.345703125,12.685546875 49.51171875,8.8330078125 43.9453125,6.09375047683716z M33.69140625,0L38.23974609375,0.300295770168304 42.626953125,1.20117139816284 46.7944297790527,2.65137004852295 50.68359375,4.59960889816284 54.2651329040527,7.0166015625 57.509765625,9.873046875 60.3662109375,13.11767578125 62.783203125,16.69921875 64.7314453125,20.58837890625 66.181640625,24.755859375 67.08251953125,29.1430683135986 67.3828125,33.69140625 67.08251953125,38.258056640625 66.181640625,42.6416015625 64.7314453125,46.798095703125 62.783203125,50.68359375 60.3662109375,54.26513671875 57.509765625,57.509765625 54.2651329040527,60.3662109375 50.68359375,62.783203125 46.7944297790527,64.7314453125 42.626953125,66.181640625 38.23974609375,67.08251953125 33.69140625,67.3828125 29.124755859375,67.08251953125 24.7412109375,66.181640625 20.5847148895264,64.7314453125 16.69921875,62.783203125 13.11767578125,60.3662109375 9.873046875,57.509765625 7.01660060882568,54.26513671875 4.599609375,50.68359375 2.6513671875,46.79443359375 1.201171875,42.626953125 0.300292611122131,38.23974609375 0,33.69140625 0.300292611122131,29.1430683135986 1.201171875,24.755859375 2.6513671875,20.58837890625 4.599609375,16.69921875 7.01660060882568,13.11767578125 9.873046875,9.873046875 13.11767578125,7.0166015625 16.69921875,4.59960889816284 20.5847148895264,2.65137004852295 24.7412109375,1.20117139816284 29.124755859375,0.300295770168304 33.69140625,0z" />
    </g>
  </g>
</svg>