<?xml version="1.0" encoding="utf-8"?>
<!DOCTYPE svg PUBLIC "-//W3C//DTD SVG 1.1//EN" "http://www.w3.org/Graphics/SVG/1.1/DTD/svg11.dtd">
<svg width="67.3828125" height="67.3828125" xmlns="http://www.w3.org/2000/svg" xmlns:xlink="http://www.w3.org/1999/xlink" xmlns:xml="http://www.w3.org/XML/1998/namespace" version="1.1">
  <g>
    <g>
      <path style="fill:#FF0000;fill-opacity:1" d="M24.287109375,36.9140625L23.3642578125,37.001953125 22.3388671875,37.1630859375 21.50390625,37.587890625 21.15234375,38.4375 21.5478515625,39.2724609375 22.44140625,39.55078125 23.7890625,38.96484375 24.287109375,37.55859375 24.287109375,36.9140625z M34.482421875,33.92578125L32.9736328125,34.658203125 32.4609375,36.298828125 32.4609375,37.265625 32.9443359375,38.759765625 34.3359375,39.404296875 35.3466796875,39.1259765625 35.9912109375,38.4228515625 36.3427734375,37.470703125 36.4453125,36.4453125 36.3427734375,35.5224609375 36.005859375,34.716796875 35.390625,34.1455078125 34.482421875,33.92578125z M46.34765625,31.69921875L47.5927734375,31.7578125 48.779296875,32.138671875 48.779296875,34.62890625 46.728515625,33.92578125 44.70703125,34.658203125 44.00390625,36.708984375 44.6923828125,38.671875 46.640625,39.404296875 47.75390625,39.2138671875 48.779296875,38.701171875 48.779296875,41.07421875 47.3876953125,41.5283203125 45.908203125,41.630859375 43.9453125,41.2939453125 42.392578125,40.341796875 41.3818359375,38.84765625 41.015625,36.884765625 41.3818321228027,34.698486328125 42.48046875,33.0615234375 44.1796836853027,32.039794921875 46.34765625,31.69921875z M22.998046875,31.69921875L24.766845703125,31.951904296875 26.0302734375,32.7099609375 26.788330078125,33.973388671875 27.041015625,35.7421875 27.041015625,41.396484375 24.2578125,41.396484375 24.2578125,40.048828125 23.0346660614014,41.2353515625 21.416015625,41.630859375 19.2626953125,40.8837890625 18.6584453582764,39.979248046875 18.45703125,38.759765625 19.0283203125,36.8701171875 20.478515625,35.888671875 22.3828125,35.4638671875 24.287109375,35.244140625 23.8330078125,34.0576171875 22.6171875,33.69140625 20.9472637176514,33.9404296875 19.39453125,34.6875 19.39453125,32.490234375 21.15234375,31.904296875 22.998046875,31.69921875z M29.58984375,27.36328125L32.490234375,27.36328125 32.490234375,33.33984375 33.8525390625,32.0947265625 35.625,31.69921875 37.3974609375,32.080078125 38.5693359375,33.1201171875 39.228515625,34.62890625 39.43359375,36.38671875 39.1845703125,38.3203125 38.4228515625,39.990234375 37.1044921875,41.1767578125 35.185546875,41.630859375 33.69140625,41.3232421875 32.548828125,40.3125 32.490234375,41.396484375 29.58984375,41.396484375 29.58984375,27.36328125z M4.21875,4.21874952316284L4.21875,63.1640625 63.1640625,63.1640625 63.1640625,4.21874952316284 4.21875,4.21874952316284z M0,0L67.3828125,0 67.3828125,67.3828125 0,67.3828125 0,0z" />
    </g>
  </g>
</svg>