<?xml version="1.0" encoding="utf-8"?>
<!DOCTYPE svg PUBLIC "-//W3C//DTD SVG 1.1//EN" "http://www.w3.org/Graphics/SVG/1.1/DTD/svg11.dtd">
<svg width="45.9667968750004" height="67.3828125" xmlns="http://www.w3.org/2000/svg" xmlns:xlink="http://www.w3.org/1999/xlink" xmlns:xml="http://www.w3.org/XML/1998/namespace" version="1.1">
  <g>
    <g>
      <path style="fill:#FF0000;fill-opacity:1" d="M12.626953125,56.865234375L12.626953125,63.1640625 21.064453125,63.1640625 21.064453125,56.865234375 12.626953125,56.865234375z M12.626953125,44.208984375L12.626953125,52.646484375 21.064453125,52.646484375 21.064453125,45.322265625 20.4052734375,44.853515625 19.74609375,44.35546875 19.62890625,44.267578125 19.04296875,44.267578125 17.9150390625,44.2529296875 16.4794921875,44.23828125 14.9560546875,44.2236328125 13.59375,44.208984375 12.626953125,44.208984375z M12.626953125,30.05859375L12.626953125,40.01953125 15.8203125,40.01953125 13.5205078125,35.2587890625 12.626953125,30.05859375z M14.736328125,29.47265625L15.062255859375,32.900390625 16.0400390625,36.09375 17.5854473114014,38.968505859375 19.6142578125,41.4404296875 22.0861797332764,43.46923828125 24.9609375,45.0146484375 28.154296875,45.992431640625 31.58203125,46.318359375 35.80078125,46.318359375 31.58203125,42.12890625 35.80078125,37.91015625 34.21875,37.939453125 32.63671875,37.96875 29.296875,37.3828125 26.2353515625,35.7421875 24.0087890625,33.2080078125 23.3605937957764,31.658935546875 23.14453125,29.970703125 23.1591796875,29.7216796875 23.173828125,29.47265625 21.064453125,29.47265625 21.064453125,33.69140625 16.845703125,33.69140625 16.845703125,29.47265625 14.736328125,29.47265625z M12.626953125,14.736328125L12.626953125,23.173828125 21.064453125,23.173828125 21.064453125,14.736328125 12.626953125,14.736328125z M4.21875,14.736328125L4.21875,25.283203125 4.6728515625,28.0517578125 5.9619140625,30.4248046875 7.9541015625,32.2705078125 10.517578125,33.427734375 10.517578125,17.578125 7.67578125,15.4833984375 4.21875,14.736328125z M29.47265625,6.328125L27.59765625,6.5185546875 26.015625,7.0751953125 24.5947265625,7.96875047683716 23.173828125,9.169921875 23.173828125,22.91015625 25.7373046875,21.767578125 27.7294921875,19.892578125 29.0185546875,17.490234375 29.47265625,14.736328125 29.47265625,6.328125z M12.626953125,4.21874952316284L12.626953125,10.517578125 21.064453125,10.517578125 21.064453125,4.21874952316284 12.626953125,4.21874952316284z M8.408203125,0L25.25390625,0 25.25390625,2.10937476158142 33.69140625,2.10937476158142 33.69140625,14.736328125 33.2666015625,18.0029296875 31.9921875,20.888671875 29.9853515625,23.3349609375 27.36328125,25.283203125 27.36328125,29.47265625 27.7001953125,31.11328125 28.6083984375,32.4462890625 29.94140625,33.3544921875 31.58203125,33.69140625 45.966796875,33.69140625 37.529296875,42.12890625 45.966796875,50.537109375 25.25390625,50.537109375 26.8212890625,52.3828125 27.36328125,54.755859375 26.8212890625,57.333984375 25.25390625,59.443359375 25.25390625,67.3828125 8.408203125,67.3828125 8.408203125,59.443359375 6.85546875,57.333984375 6.32812404632568,54.755859375 6.8701171875,52.177734375 8.408203125,50.0390625 8.408203125,46.81640625 6.8701171875,44.6923828125 6.32812404632568,42.12890625 6.8701171875,39.7705078125 8.408203125,37.91015625 6.943359375,37.3681640625 5.595703125,36.591796875 3.028564453125,34.35791015625 1.3037109375,31.69921875 0.325927376747131,28.6596698760986 0,25.283203125 0,10.517578125 6.32812404632568,10.517578125 6.9140625,9.0234375 8.408203125,8.4375 8.408203125,0z" />
    </g>
  </g>
</svg>