<?xml version="1.0" encoding="utf-8"?>
<!DOCTYPE svg PUBLIC "-//W3C//DTD SVG 1.1//EN" "http://www.w3.org/Graphics/SVG/1.1/DTD/svg11.dtd">
<svg width="67.3828125000012" height="67.3828125" xmlns="http://www.w3.org/2000/svg" xmlns:xlink="http://www.w3.org/1999/xlink" xmlns:xml="http://www.w3.org/XML/1998/namespace" version="1.1">
  <g>
    <g>
      <path style="fill:#FF0000;fill-opacity:1" d="M18.251953125,42.12890625L15.435791015625,42.403564453125 12.7880859375,43.2275390625 10.3857421875,44.527587890625 8.3056640625,46.23046875 6.59179592132568,48.299560546875 5.2880859375,50.6982421875 4.464111328125,53.345947265625 4.189453125,56.162109375 4.189453125,63.1640625 47.109375,63.1640625 44.9853515625,60.205078125 44.4030723571777,58.447265625 44.208984375,56.630859375 44.208984375,43.330078125 41.4331016540527,42.42919921875 38.5546875,42.12890625 33.837890625,42.12890625 35.185546875,42.7880859375 35.7421875,44.208984375 35.4638671875,45.146484375 34.74609375,46.787109375 33.779296875,48.7939453125 32.7685546875,50.830078125 31.875,52.5439453125 31.2890625,53.583984375 30.5419921875,54.43359375 29.443359375,54.755859375 28.330078125,54.4482421875 27.568359375,53.583984375 26.982421875,52.529296875 26.0888671875,50.8154296875 25.078125,48.7939453125 24.111328125,46.787109375 23.3935546875,45.146484375 23.115234375,44.208984375 23.6572265625,42.7734375 25.048828125,42.12890625 18.251953125,42.12890625z M25.25390625,31.58203125L33.69140625,31.58203125 33.3544921875,33.22265625 32.4462890625,34.5556640625 31.11328125,35.4638671875 29.47265625,35.80078125 27.83203125,35.4638671875 26.4990234375,34.5556640625 25.5908203125,33.22265625 25.25390625,31.58203125z M46.318359375,29.47265625L46.318359375,56.630859375 46.8017578125,59.267578125 48.1494140625,61.3330078125 50.2001953125,62.6806640625 52.822265625,63.1640625 55.1953125,62.6513671875 57.12890625,61.259765625 58.4326171875,59.23828125 58.916015625,56.865234375 58.798828125,55.78125 53.0859375,29.47265625 46.318359375,29.47265625z M27.333984375,27.36328125L31.552734375,27.36328125 30.9375,28.857421875 29.443359375,29.47265625 27.9638671875,28.8427734375 27.333984375,27.36328125z M52.646484375,21.064453125L50.185546875,21.5625 48.1787109375,22.91015625 46.81640625,24.90234375 46.318359375,27.36328125 61.0546875,27.36328125 62.5341796875,26.748046875 63.1640625,25.283203125 62.548828125,23.7890625 61.0546875,23.173828125 57.3046875,23.173828125 55.1953125,21.62109375 52.646484375,21.064453125z M35.771484375,21.064453125L37.265625,21.6796875 37.880859375,23.173828125 37.880859375,25.283203125 37.2509765625,26.748046875 35.771484375,27.36328125 34.2919921875,26.748046875 33.662109375,25.283203125 33.662109375,23.173828125 34.27734375,21.6796875 35.771484375,21.064453125z M23.14453125,21.064453125L24.609375,21.6943359375 25.224609375,23.173828125 25.224609375,25.283203125 24.609375,26.748046875 23.14453125,27.36328125 21.6650390625,26.748046875 21.03515625,25.283203125 21.03515625,23.173828125 21.650390625,21.6796875 23.14453125,21.064453125z M31.552734375,12.626953125L31.552734375,18.955078125 29.150390625,18.7060546875 26.7333984375,17.9443359375 24.609375,16.6552734375 23.0859375,14.794921875 21.8591289520264,17.40234375 19.9951171875,19.365234375 17.5891094207764,20.6103515625 14.736328125,21.064453125 14.736328125,25.224609375 15.025634765625,28.1835956573486 15.8935546875,30.966796875 17.2595195770264,33.489990234375 19.04296875,35.6689453125 21.2109355926514,37.467041015625 23.73046875,38.84765625 26.513671875,39.7265625 29.47265625,40.01953125 32.427978515625,39.7265625 35.2001953125,38.84765625 37.71240234375,37.467041015625 39.8876953125,35.6689453125 41.6821250915527,33.489990234375 43.0517578125,30.966796875 43.9196739196777,28.1835956573486 44.208984375,25.224609375 44.208984375,21.064453125 40.3271484375,20.390625 36.73828125,18.57421875 33.720703125,15.8935546875 31.552734375,12.626953125z M29.47265625,0L33.292236328125,0.307620018720627 36.9580078125,1.23046851158142 40.3857383728027,2.70630168914795 43.4912109375,4.6728515625 46.2377891540527,7.108154296875 48.5888671875,9.990234375 50.4675254821777,13.26416015625 51.796875,16.875 52.2509765625,16.8310546875 52.705078125,16.81640625 55.986328125,17.3876953125 58.916015625,18.955078125 61.0546875,18.955078125 63.515625,19.453125 65.5224609375,20.8154296875 66.884765625,22.822265625 67.3828125,25.283203125 66.884765625,27.7294921875 65.5224609375,29.736328125 63.5009765625,31.083984375 61.0546875,31.58203125 57.802734375,31.58203125 62.490234375,54.345703125 62.783203125,55.6640625 62.9296875,57.01171875 62.735595703125,59.066162109375 62.1533203125,61.0107421875 60.029296875,64.3212890625 56.8212890625,66.5625 54.8913536071777,67.177734375 52.822265625,67.3828125 0,67.3828125 0,56.162109375 0.424805164337158,52.265625 1.6552734375,48.5595703125 3.6474609375,45.205078125 6.328125,42.333984375 6.328125,23.173828125 6.53686428070068,20.0390625 7.1630859375,17.021484375 9.5068359375,11.4990234375 13.125,6.8115234375 17.8125,3.17871117591858 23.3349609375,0.834960460662842 26.341552734375,0.208743035793304 29.47265625,0z" />
    </g>
  </g>
</svg>