<?xml version="1.0" encoding="utf-8"?>
<!DOCTYPE svg PUBLIC "-//W3C//DTD SVG 1.1//EN" "http://www.w3.org/Graphics/SVG/1.1/DTD/svg11.dtd">
<svg width="67.3828125000008" height="54.375" xmlns="http://www.w3.org/2000/svg" xmlns:xlink="http://www.w3.org/1999/xlink" xmlns:xml="http://www.w3.org/XML/1998/namespace" version="1.1">
  <g>
    <g>
      <path style="fill:#FF0000;fill-opacity:1" d="M4.21875,33.310546875L4.21875,45.966796875 4.541015625,47.607421875 5.4345703125,48.9404296875 6.767578125,49.833984375 8.408203125,50.15625 58.9453125,50.15625 60.5859375,49.833984375 61.9189453125,48.9404296875 62.8271484375,47.607421875 63.1640625,45.966796875 63.1640625,33.310546875 42.099609375,33.310546875 41.4404296875,36.6064453125 39.638671875,39.287109375 36.97265625,41.0888671875 33.69140625,41.748046875 30.3955078125,41.0888671875 27.71484375,39.287109375 25.9130859375,36.6064453125 25.25390625,33.310546875 4.21875,33.310546875z M33.69140625,5.947265625L25.25390625,14.35546875 31.58203125,14.35546875 31.58203125,31.201171875 35.80078125,31.201171875 35.80078125,14.35546875 42.099609375,14.35546875 33.69140625,5.947265625z M33.69140625,0L46.318359375,12.626953125 46.318359375,18.57421875 40.01953125,18.57421875 40.01953125,22.79296875 51.533203125,22.79296875 67.3828125,30.703125 67.3828125,45.966796875 66.708984375,49.21875 64.8779296875,51.884765625 62.1826171875,53.701171875 58.9453125,54.375 8.408203125,54.375 5.1416015625,53.7158203125 2.4609375,51.9140625 0.6591796875,49.2333984375 0,45.966796875 0,30.703125 15.849609375,22.79296875 27.36328125,22.79296875 27.36328125,18.57421875 21.064453125,18.57421875 21.064453125,12.626953125 33.69140625,0z" />
    </g>
  </g>
</svg>