<?xml version="1.0" encoding="utf-8"?>
<!DOCTYPE svg PUBLIC "-//W3C//DTD SVG 1.1//EN" "http://www.w3.org/Graphics/SVG/1.1/DTD/svg11.dtd">
<svg width="67.3828125" height="67.3828125" xmlns="http://www.w3.org/2000/svg" xmlns:xlink="http://www.w3.org/1999/xlink" xmlns:xml="http://www.w3.org/XML/1998/namespace" version="1.1">
  <g>
    <g>
      <path style="fill:#FF0000;fill-opacity:1" d="M33.69140625,16.845703125L36.221923828125,17.0947265625 38.5986328125,17.841796875 42.6123046875,20.5517578125 45.322265625,24.5654296875 46.0693321228027,26.9421405792236 46.318359375,29.47265625 46.318359375,44.208984375 52.646484375,44.208984375 44.208984375,52.646484375 35.80078125,44.208984375 42.099609375,44.208984375 42.099609375,29.47265625 41.630859375,26.7041015625 40.3125,24.3017578125 38.291015625,22.4560546875 35.712890625,21.328125 31.435546875,17.080078125 33.69140625,16.845703125z M23.173828125,14.736328125L31.58203125,23.173828125 25.25390625,23.173828125 25.25390625,37.91015625 25.72265625,40.693359375 27.0556640625,43.0810546875 29.091796875,44.9267578125 31.669921875,46.0546875 35.947265625,50.33203125 34.833984375,50.478515625 33.69140625,50.537109375 31.160888671875,50.2880859375 28.7841796875,49.541015625 24.7705078125,46.8310546875 22.060546875,42.8173828125 21.3134746551514,40.440673828125 21.064453125,37.91015625 21.064453125,23.173828125 14.736328125,23.173828125 23.173828125,14.736328125z M4.21875,4.21874952316284L4.21875,63.1640625 63.1640625,63.1640625 63.1640625,4.21874952316284 4.21875,4.21874952316284z M0,0L67.3828125,0 67.3828125,67.3828125 0,67.3828125 0,0z" />
    </g>
  </g>
</svg>