<?xml version="1.0" encoding="utf-8"?>
<!DOCTYPE svg PUBLIC "-//W3C//DTD SVG 1.1//EN" "http://www.w3.org/Graphics/SVG/1.1/DTD/svg11.dtd">
<svg width="67.3828125000004" height="67.3828125" xmlns="http://www.w3.org/2000/svg" xmlns:xlink="http://www.w3.org/1999/xlink" xmlns:xml="http://www.w3.org/XML/1998/namespace" version="1.1">
  <g>
    <g>
      <path style="fill:#FF0000;fill-opacity:1" d="M27.36328125,48.427734375L28.4326171875,48.7646484375 29.8681640625,49.4970703125 31.6259765625,50.21484375 33.69140625,50.537109375 35.7421875,50.21484375 37.5146484375,49.4970703125 38.9501953125,48.7646484375 40.01953125,48.427734375 41.4990234375,49.0576171875 42.12890625,50.537109375 41.66015625,51.826171875 40.4296875,52.880859375 38.73046875,53.701171875 36.85546875,54.287109375 35.0830078125,54.638671875 33.69140625,54.755859375 32.2998046875,54.638671875 30.52734375,54.287109375 28.65234375,53.701171875 26.953125,52.880859375 25.72265625,51.826171875 25.25390625,50.537109375 25.8837890625,49.0576171875 27.36328125,48.427734375z M29.47265625,40.01953125L37.91015625,40.01953125 37.5732421875,41.66015625 36.6650390625,42.9931640625 35.33203125,43.88671875 33.69140625,44.208984375 32.05078125,43.88671875 30.7177734375,42.9931640625 29.8095703125,41.66015625 29.47265625,40.01953125z M45.263671875,27.392578125L46.4794921875,27.6416015625 47.490234375,28.30078125 48.1787109375,29.296875 48.427734375,30.52734375 48.427734375,34.74609375 48.1787109375,35.9912109375 47.5048828125,36.9873046875 46.494140625,37.6611328125 45.263671875,37.91015625 44.0185546875,37.6611328125 43.037109375,36.97265625 42.3779296875,35.9619140625 42.12890625,34.74609375 42.12890625,30.52734375 42.3779296875,29.3115234375 43.0517578125,28.3154296875 44.0478515625,27.6416015625 45.263671875,27.392578125z M22.119140625,27.392578125L23.3349609375,27.6416015625 24.3310546875,28.3154296875 25.0048828125,29.3115234375 25.25390625,30.52734375 25.25390625,34.74609375 25.0048828125,35.9619140625 24.345703125,36.97265625 23.349609375,37.6611328125 22.119140625,37.91015625 20.8740234375,37.6611328125 19.8779296875,36.9873046875 19.2041015625,35.9912109375 18.955078125,34.74609375 18.955078125,30.52734375 19.2041015625,29.296875 19.892578125,28.30078125 20.9033203125,27.6416015625 22.119140625,27.392578125z M26.396484375,16.171875L23.9208984375,20.7568359375 20.2294921875,24.287109375 15.6591796875,26.5576171875 13.135986328125,27.1618671417236 10.517578125,27.36328125 10.517578125,40.01953125 10.726318359375,43.154296875 11.3525390625,46.171875 13.6962890625,51.6943359375 17.314453125,56.3818359375 22.001953125,60.0146484375 27.5390625,62.34375 30.556640625,62.958984375 33.69140625,63.1640625 36.826171875,62.958984375 39.84375,62.34375 45.380859375,60.0146484375 50.068359375,56.3818359375 53.6865234375,51.6943359375 56.0302734375,46.171875 56.656494140625,43.154296875 56.865234375,40.01953125 56.865234375,27.36328125 51.6943359375,26.6455078125 47.0068359375,24.5947265625 43.037109375,21.357421875 40.01953125,17.080078125 40.01953125,25.25390625 35.6982421875,24.609375 31.81640625,22.7783203125 28.6376953125,19.921875 26.396484375,16.171875z M33.69140625,0L38.23974609375,0.300295770168304 42.626953125,1.20117139816284 46.7944297790527,2.65137004852295 50.68359375,4.59960889816284 54.2651329040527,7.0166015625 57.509765625,9.873046875 60.3662109375,13.11767578125 62.783203125,16.69921875 64.7314453125,20.58837890625 66.181640625,24.755859375 67.08251953125,29.1430683135986 67.3828125,33.69140625 67.3828125,67.3828125 55.810546875,67.3828125 53.4777793884277,67.144775390625 51.2255859375,66.4306640625 49.1564903259277,65.277099609375 47.373046875,63.720703125 44.1540489196777,65.277099609375 40.7666015625,66.4306640625 37.261962890625,67.144775390625 33.69140625,67.3828125 30.120849609375,67.144775390625 26.6162109375,66.4306640625 23.2287578582764,65.277099609375 20.009765625,63.720703125 18.2263164520264,65.277099609375 16.1572265625,66.4306640625 13.905029296875,67.144775390625 11.572265625,67.3828125 0,67.3828125 0,33.69140625 0.300292611122131,29.1430683135986 1.201171875,24.755859375 2.6513671875,20.58837890625 4.599609375,16.69921875 7.01660060882568,13.11767578125 9.873046875,9.873046875 13.11767578125,7.0166015625 16.69921875,4.59960889816284 20.5847148895264,2.65137004852295 24.7412109375,1.20117139816284 29.124755859375,0.300295770168304 33.69140625,0z" />
    </g>
  </g>
</svg>