<?xml version="1.0" encoding="utf-8"?>
<!DOCTYPE svg PUBLIC "-//W3C//DTD SVG 1.1//EN" "http://www.w3.org/Graphics/SVG/1.1/DTD/svg11.dtd">
<svg width="67.3828125000048" height="67.412109375" xmlns="http://www.w3.org/2000/svg" xmlns:xlink="http://www.w3.org/1999/xlink" xmlns:xml="http://www.w3.org/XML/1998/namespace" version="1.1">
  <g>
    <g>
      <path style="fill:#FF0000;fill-opacity:1" d="M37.8515625,47.63671875L37.8515625,51.591796875 38.056640625,52.265625 46.46484375,62.8125 47.28515625,63.193359375 48.046875,62.9150390625 48.33984375,62.16796875 48.10546875,61.494140625 39.990234375,50.56640625 39.990234375,50.302734375 38.90625,49.0576171875 37.91015625,47.724609375 37.8515625,47.63671875z M12.65625,16.81640625L14.12109375,17.4462890625 14.736328125,18.92578125 14.736328125,21.03515625 14.12109375,22.529296875 12.626953125,23.14453125 11.1474609375,22.5146484375 10.517578125,21.03515625 10.517578125,18.92578125 11.1474609375,17.431640625 12.65625,16.81640625z M7.79296827316284,4.24804735183716L6.75292921066284,4.423828125 6.29882764816284,5.30273485183716 6.62109327316284,6.03515625 7.35351514816284,6.357421875 8.408203125,6.357421875 10.95703125,6.826171875 12.9638671875,8.1298828125 14.267578125,10.1220703125 14.736328125,12.65625 12.01171875,13.623046875 9.3603515625,15.3662109375 7.01660108566284,17.5634765625 5.21484327316284,19.86328125 4.57031202316284,20.91796875 4.21874952316284,22.060546875 4.61425733566284,23.3203125 5.33203077316284,24.462890625 7.29492139816284,26.865234375 9.8291015625,29.1796875 12.685546875,30.9228515625 15.673828125,31.611328125 21.03515625,31.611328125 21.03515625,35.771484375 21.3098125457764,38.199462890625 22.1337890625,40.5029296875 23.4631328582764,42.557373046875 25.25390625,44.23828125 25.25390625,50.56640625 16.9921875,61.435546875 16.7578125,62.080078125 17.0654296875,62.8271484375 17.8125,63.134765625 18.6328125,62.75390625 27.12890625,52.32421875 27.275390625,51.8994140625 27.36328125,51.15234375 27.4072265625,50.185546875 27.421875,49.1015625 27.4072265625,47.98828125 27.392578125,46.9482421875 27.3779296875,46.0986328125 27.36328125,45.52734375 29.3994140625,46.1279296875 31.5234375,46.318359375 31.5234375,62.138671875 31.8603515625,62.8857421875 32.607421875,63.193359375 33.3837890625,62.8857421875 33.720703125,62.138671875 33.720703125,46.142578125 35.888671875,45.41015625 37.8515625,44.23828125 38.26171875,44.794921875 40.7373046875,47.900390625 43.3447265625,50.390625 46.46484375,52.060546875 50.537109375,52.67578125 63.134765625,52.67578125 63.1494140625,46.3916015625 63.1640625,40.107421875 62.9150390625,37.59521484375 62.16796875,35.21484375 59.4580078125,31.171875 55.458984375,28.4326171875 53.0932579040527,27.6745624542236 50.56640625,27.421875 48.0395469665527,27.7075214385986 45.849609375,28.564453125 43.9013633728027,29.9194355010986 42.099609375,31.69921875 40.7373046875,29.1064453125 38.935546875,27.0849609375 36.6064453125,25.78125 33.69140625,25.3125 25.25390625,25.3125 25.25390625,21.09375 24.580078125,17.783203125 22.763671875,15.2490243911743 20.0830078125,13.5205078125 16.845703125,12.65625 16.69921875,11.1474609375 16.318359375,9.697265625 14.970703125,7.10449171066284 13.0810546875,5.419921875 10.6787109375,4.51171827316284 7.79296827316284,4.24804735183716z M8.408203125,0L12.59765625,0.629882335662842 16.142578125,2.44628930091858 18.8525390625,5.33203125 20.56640625,9.19921875 24.19921875,11.015625 27.01171875,13.681640625 28.828125,17.080078125 29.47265625,21.09375 31.611328125,21.09375 34.951171875,21.2109375 37.880859375,21.767578125 40.5322265625,23.0419921875 43.06640625,25.3125 46.6552696228027,23.7304706573486 50.56640625,23.203125 55.0341796875,23.818359375 59.0478515625,25.5322265625 62.4462890625,28.18359375 65.0830078125,31.611328125 66.7822265625,35.6396484375 67.3828125,40.107421875 67.3681640625,48.5009765625 67.353515625,56.89453125 59.8828125,56.9091796875 52.412109375,56.923828125 51.1669921875,56.923828125 49.921875,56.865234375 50.859375,58.06640625 51.708984375,59.267578125 52.32421875,60.5712890625 52.55859375,62.080078125 52.1484375,64.16015625 51.0205078125,65.8447265625 49.3359375,66.9873046875 47.28515625,67.412109375 45,66.884765625 43.154296875,65.419921875 37.91015625,58.798828125 37.8955078125,60.4833984375 37.880859375,62.16796875 37.470703125,64.2041015625 36.3427734375,65.8740234375 34.6728515625,67.001953125 32.63671875,67.412109375 30.5712890625,67.001953125 28.9013671875,65.8740234375 27.7734375,64.2041015625 27.36328125,62.138671875 27.36328125,58.740234375 21.9140625,65.419921875 20.09765625,66.85546875 17.8125,67.353515625 15.7470703125,66.943359375 14.0771484375,65.8154296875 12.94921875,64.1455078125 12.5390625,62.080078125 12.83203125,60.3369140625 13.7109375,58.798828125 21.03515625,49.130859375 21.03515625,46.142578125 19.2443828582764,43.934326171875 17.9150390625,41.4111328125 17.0910625457764,38.675537109375 16.81640625,35.830078125 15.673828125,35.830078125 13.634033203125,35.614013671875 11.5576171875,34.9658203125 7.57324171066284,32.724609375 4.10156202316284,29.6484375 1.52343702316284,26.30859375 0.468749523162842,24.2724609375 0,22.060546875 0.424803733825684,19.892578125 1.55273389816284,17.6806640625 3.17871046066284,15.52734375 5.08300733566284,13.53515625 7.06054639816284,11.8505849838257 8.876953125,10.576171875 8.11523246765137,10.576171875 7.35351514816284,10.546875 5.27343702316284,10.0927734375 3.60351514816284,9.0087890625 2.50488233566284,7.3828125 2.10937452316284,5.27343797683716 2.51953077316284,3.2373046875 3.64746046066284,1.56738269329071 5.31738233566284,0.439452886581421 7.35351514816284,0.029296875 7.88085889816284,0.0146489143371582 8.408203125,0z" />
    </g>
  </g>
</svg>