<?xml version="1.0" encoding="utf-8"?>
<!DOCTYPE svg PUBLIC "-//W3C//DTD SVG 1.1//EN" "http://www.w3.org/Graphics/SVG/1.1/DTD/svg11.dtd">
<svg width="66.884765625" height="67.3828125" xmlns="http://www.w3.org/2000/svg" xmlns:xlink="http://www.w3.org/1999/xlink" xmlns:xml="http://www.w3.org/XML/1998/namespace" version="1.1">
  <g>
    <g>
      <path style="fill:#FF0000;fill-opacity:1" d="M14.6484375,31.34765625L15.8203125,31.4501953125 17.1826171875,31.787109375 18.3251953125,32.431640625 18.80859375,33.45703125 18.80859375,35.537109375 18.3251953125,36.5478515625 17.1826171875,37.1923828125 15.8203125,37.529296875 14.6484375,37.6171875 13.4912109375,37.529296875 12.099609375,37.1923828125 10.9423828125,36.5478515625 10.458984375,35.537109375 10.458984375,33.45703125 10.9423828125,32.431640625 12.099609375,31.787109375 13.4765625,31.4501953125 14.6484375,31.34765625z M29.267578125,22.998046875L4.189453125,35.537109375 18.8232421875,42.8759765625 33.45703125,50.185546875 48.0908203125,42.8466796875 62.724609375,35.537109375 37.6171875,22.998046875 37.6171875,29.619140625 40.13671875,30.234375 42.8759765625,31.40625 45.087890625,33.1640625 45.7690391540527,34.27001953125 45.99609375,35.537109375 45.7177734375,36.884765625 44.970703125,38.0126953125 43.9306640625,38.9501953125 42.802734375,39.7265625 40.6494140625,40.7080078125 38.2763671875,41.3525390625 35.830078125,41.7041015625 33.45703125,41.806640625 31.0693359375,41.7041015625 28.6083984375,41.3525390625 26.2353515625,40.7080078125 24.08203125,39.7265625 22.939453125,38.9794921875 21.9287109375,38.02734375 21.1962890625,36.884765625 20.91796875,35.537109375 21.1413555145264,34.27001953125 21.8115234375,33.1640625 24.0087890625,31.40625 26.748046875,30.234375 29.267578125,29.619140625 29.267578125,22.998046875z M31.34765625,22.79296875L31.34765625,35.537109375 31.5966796875,36.0498046875 32.1826171875,36.3720703125 32.87109375,36.5478515625 33.45703125,36.591796875 34.04296875,36.5478515625 34.7314453125,36.3720703125 35.302734375,36.0498046875 35.537109375,35.537109375 35.537109375,22.79296875 33.427734375,22.998046875 32.373046875,22.9541015625 31.34765625,22.79296875z M33.45703125,4.18945360183716L30.205078125,4.84863233566284 27.5390625,6.6357421875 25.7373046875,9.287109375 25.078125,12.5390625 25.7373046875,15.791015625 27.5390625,18.45703125 30.205078125,20.2587890625 33.45703125,20.91796875 36.708984375,20.2587890625 39.3603515625,18.45703125 41.1474609375,15.791015625 41.806640625,12.5390625 41.1474609375,9.287109375 39.3603515625,6.6357421875 36.708984375,4.84863233566284 33.45703125,4.18945360183716z M33.45703125,0L35.9619140625,0.245364159345627 38.3203125,0.981445074081421 42.3193359375,3.67675805091858 45.0146484375,7.67578125 45.7507286071777,10.0341796875 45.99609375,12.5390625 45.7873497009277,14.813232421875 45.1611328125,17.0068359375 42.7734375,20.888671875 66.884765625,32.958984375 66.884765625,50.654296875 33.45703125,67.3828125 0,50.654296875 0,32.958984375 24.111328125,20.888671875 21.73828125,17.0068359375 21.1230449676514,14.813232421875 20.91796875,12.5390625 21.1633281707764,10.0341796875 21.8994140625,7.67578125 24.5947265625,3.67675805091858 28.5791015625,0.981445074081421 30.933837890625,0.245364159345627 33.45703125,0z" />
    </g>
  </g>
</svg>