<?xml version="1.0" encoding="utf-8"?>
<!DOCTYPE svg PUBLIC "-//W3C//DTD SVG 1.1//EN" "http://www.w3.org/Graphics/SVG/1.1/DTD/svg11.dtd">
<svg width="67.3828125" height="48.45703125" xmlns="http://www.w3.org/2000/svg" xmlns:xlink="http://www.w3.org/1999/xlink" xmlns:xml="http://www.w3.org/XML/1998/namespace" version="1.1">
  <g>
    <g>
      <path style="fill:#FF0000;fill-opacity:1" d="M40.01953125,40.01953125L40.01953125,42.12890625 63.1640625,42.12890625 63.1640625,40.01953125 40.01953125,40.01953125z M29.47265625,40.01953125L29.47265625,44.23828125 37.91015625,44.23828125 37.91015625,40.01953125 29.47265625,40.01953125z M4.21875,40.01953125L4.21875,42.12890625 27.36328125,42.12890625 27.36328125,40.01953125 4.21875,40.01953125z M40.01953125,31.611328125L40.01953125,33.69140625 52.646484375,33.69140625 52.646484375,31.611328125 40.01953125,31.611328125z M52.646484375,21.064453125L56.865234375,21.064453125 56.865234375,25.283203125 52.646484375,25.283203125 51.15234375,24.66796875 50.537109375,23.173828125 51.15234375,21.6796875 52.646484375,21.064453125z M15.849609375,21.064453125L18.6767578125,21.6357421875 21.064453125,23.232421875 19.5703125,24.7265625 17.8637676239014,23.56201171875 15.849609375,23.173828125 13.4912109375,23.73046875 11.630859375,25.283203125 16.904296875,25.283203125 16.904296875,27.392578125 10.693359375,27.392578125 10.576171875,28.447265625 10.693359375,29.501953125 16.904296875,29.501953125 16.904296875,31.611328125 11.630859375,31.611328125 13.505859375,33.134765625 15.849609375,33.69140625 17.841796875,33.28125 19.5703125,32.16796875 21.064453125,33.662109375 18.6767578125,35.244140625 15.849609375,35.80078125 13.795166015625,35.518798828125 11.9091796875,34.6728515625 10.323486328125,33.343505859375 9.169921875,31.611328125 6.357421875,31.611328125 6.357421875,29.501953125 8.5546875,29.501953125 8.466796875,28.447265625 8.5546875,27.392578125 6.357421875,27.392578125 6.357421875,25.283203125 9.169921875,25.283203125 10.341796875,23.5400390625 11.9091796875,22.20703125 13.76953125,21.357421875 15.849609375,21.064453125z M40.01953125,8.4375L40.01953125,12.65625 52.646484375,12.65625 52.646484375,8.4375 40.01953125,8.4375z M6.328125,6.32812452316284L16.845703125,6.32812452316284 16.845703125,12.65625 6.328125,12.65625 6.328125,6.32812452316284z M61.0546875,4.21874952316284L61.0546875,37.91015625 63.1640625,37.91015625 63.1640625,4.21874952316284 61.0546875,4.21874952316284z M40.01953125,4.21874952316284L40.01953125,6.32812452316284 56.865234375,6.32812452316284 56.865234375,18.955078125 52.646484375,18.955078125 51.005859375,19.2919921875 49.6728515625,20.2001953125 48.7646484375,21.533203125 48.427734375,23.173828125 48.7646484375,24.814453125 49.6728515625,26.1474609375 51.005859375,27.0556640625 52.646484375,27.392578125 56.865234375,27.392578125 56.865234375,35.80078125 40.01953125,35.80078125 40.01953125,37.91015625 58.9453125,37.91015625 58.9453125,4.21874952316284 40.01953125,4.21874952316284z M29.47265625,4.21874952316284L29.47265625,37.91015625 37.91015625,37.91015625 37.91015625,4.21874952316284 29.47265625,4.21874952316284z M4.21875,4.21874952316284L4.21875,37.91015625 27.36328125,37.91015625 27.36328125,12.65625 21.064453125,12.65625 21.064453125,8.4375 27.36328125,8.4375 27.36328125,4.21874952316284 4.21875,4.21874952316284z M0,0L67.3828125,0 67.3828125,48.45703125 0,48.45703125 0,0z" />
    </g>
  </g>
</svg>