<?xml version="1.0" encoding="utf-8"?>
<!DOCTYPE svg PUBLIC "-//W3C//DTD SVG 1.1//EN" "http://www.w3.org/Graphics/SVG/1.1/DTD/svg11.dtd">
<svg width="54.755859375001" height="67.3828125" xmlns="http://www.w3.org/2000/svg" xmlns:xlink="http://www.w3.org/1999/xlink" xmlns:xml="http://www.w3.org/XML/1998/namespace" version="1.1">
  <g>
    <g>
      <path style="fill:#FF0000;fill-opacity:1" d="M12.626953125,50.537109375L21.064453125,50.537109375 21.064453125,52.646484375 12.626953125,52.646484375 12.626953125,50.537109375z M12.626953125,44.208984375L37.91015625,44.208984375 37.91015625,46.318359375 12.626953125,46.318359375 12.626953125,44.208984375z M12.626953125,37.91015625L42.099609375,37.91015625 42.099609375,40.01953125 12.626953125,40.01953125 12.626953125,37.91015625z M12.626953125,31.58203125L40.01953125,31.58203125 40.01953125,33.69140625 12.626953125,33.69140625 12.626953125,31.58203125z M12.626953125,25.283203125L27.36328125,25.283203125 27.36328125,27.36328125 12.626953125,27.36328125 12.626953125,25.283203125z M10.517578125,14.736328125L10.517578125,56.865234375 40.01953125,56.865234375 40.01953125,52.646484375 44.208984375,52.646484375 44.208984375,14.736328125 42.099609375,14.736328125 42.099609375,18.955078125 12.626953125,18.955078125 12.626953125,14.736328125 10.517578125,14.736328125z M27.36328125,8.4375L28.857421875,9.052734375 29.47265625,10.546875 28.857421875,12.0263671875 27.36328125,12.626953125 25.8837890625,12.0263671875 25.283203125,10.546875 25.8837890625,9.052734375 27.36328125,8.4375z M6.328125,8.4375L4.8486328125,9.052734375 4.21875,10.517578125 4.21875,61.0546875 4.833984375,62.548828125 6.328125,63.1640625 48.427734375,63.1640625 49.921875,62.548828125 50.537109375,61.0546875 50.537109375,10.517578125 49.9072265625,9.052734375 48.427734375,8.4375 42.099609375,8.4375 42.099609375,12.626953125 46.318359375,12.626953125 46.318359375,54.755859375 42.099609375,58.974609375 8.408203125,58.974609375 8.408203125,12.626953125 12.626953125,12.626953125 12.626953125,8.4375 6.328125,8.4375z M27.36328125,4.21874952316284L24.90234375,4.71679639816284 22.91015625,6.064453125 21.5625,8.056640625 21.064453125,10.517578125 14.736328125,10.517578125 14.736328125,16.845703125 40.01953125,16.845703125 40.01953125,10.517578125 33.69140625,10.517578125 33.193359375,8.056640625 31.8310546875,6.064453125 29.82421875,4.71679639816284 27.36328125,4.21874952316284z M27.36328125,0L29.783935546875,0.278323143720627 32.0654296875,1.11328101158142 34.097900390625,2.44629192352295 35.771484375,4.21874952316284 48.427734375,4.21874952316284 50.8447265625,4.71679639816284 52.8662109375,6.07910203933716 54.2431640625,8.0859375 54.755859375,10.517578125 54.755859375,61.0546875 54.2578125,63.515625 52.8955078125,65.5224609375 50.888671875,66.884765625 48.427734375,67.3828125 6.328125,67.3828125 3.8671875,66.884765625 1.8603515625,65.5224609375 0.498046875,63.515625 0,61.0546875 0,10.517578125 0.5126953125,8.0859375 1.8896484375,6.07910203933716 3.896484375,4.71679639816284 6.328125,4.21874952316284 18.984375,4.21874952316284 20.6542949676514,2.44629192352295 22.67578125,1.11328101158142 24.9462890625,0.278323143720627 27.36328125,0z" />
    </g>
  </g>
</svg>