<?xml version="1.0" encoding="utf-8"?>
<!DOCTYPE svg PUBLIC "-//W3C//DTD SVG 1.1//EN" "http://www.w3.org/Graphics/SVG/1.1/DTD/svg11.dtd">
<svg width="58.9746093750015" height="67.3828125" xmlns="http://www.w3.org/2000/svg" xmlns:xlink="http://www.w3.org/1999/xlink" xmlns:xml="http://www.w3.org/XML/1998/namespace" version="1.1">
  <g>
    <g>
      <path style="fill:#FF0000;fill-opacity:1" d="M42.978515625,18.955078125L46.552734375,22.529296875 45.4248046875,27.0556640625 44.296875,31.58203125 54.755859375,31.58203125 48.427734375,18.955078125 42.978515625,18.955078125z M35.80078125,18.955078125L42.099609375,31.58203125 44.208984375,23.173828125 40.01953125,18.955078125 35.80078125,18.955078125z M24.462890625,4.21874952316284L27.451171875,6.60644483566284 29.6923828125,9.5947265625 31.0986328125,13.0517578125 31.58203125,16.845703125 31.58203125,63.1640625 33.69140625,63.1640625 33.69140625,58.974609375 50.537109375,58.974609375 50.537109375,63.1640625 54.755859375,63.1640625 54.755859375,33.69140625 40.810546875,33.69140625 34.482421875,21.064453125 33.69140625,21.064453125 33.69140625,16.845703125 50.537109375,16.845703125 52.646484375,18.955078125 50.771484375,18.955078125 54.755859375,26.865234375 54.755859375,16.845703125 54.5068321228027,14.293212890625 53.759765625,11.9091796875 51.0498046875,7.8955078125 47.0361328125,5.20019578933716 44.6520957946777,4.46411418914795 42.099609375,4.21874952316284 24.462890625,4.21874952316284z M16.81640625,4.21874952316284L14.28955078125,4.46777629852295 11.923828125,5.21484422683716 7.92480516433716,7.939453125 5.21484327316284,11.9677734375 4.46777296066284,14.337158203125 4.21874952316284,16.845703125 4.21874952316284,63.1640625 8.4375,63.1640625 8.4375,58.974609375 25.25390625,58.974609375 25.25390625,63.1640625 29.47265625,63.1640625 29.47265625,16.845703125 29.2236328125,14.293212890625 28.4765625,11.9091796875 25.7666015625,7.8955078125 21.7529296875,5.20019578933716 19.3688945770264,4.46411418914795 16.81640625,4.21874952316284z M16.845703125,0L42.099609375,0 46.5673828125,0.600585699081421 50.595703125,2.29980492591858 54.0234375,4.9365234375 56.6748046875,8.349609375 58.3740234375,12.3779296875 58.974609375,16.845703125 58.974609375,67.3828125 0,67.3828125 0,16.845703125 0.333251178264618,13.48388671875 1.33300733566284,10.3125 2.90405225753784,7.43408203125 4.95117139816284,4.95117235183716 7.43041849136353,2.90405559539795 10.2978515625,1.33300733566284 13.465576171875,0.333254754543304 16.845703125,0z" />
    </g>
  </g>
</svg>