<?xml version="1.0" encoding="utf-8"?>
<!DOCTYPE svg PUBLIC "-//W3C//DTD SVG 1.1//EN" "http://www.w3.org/Graphics/SVG/1.1/DTD/svg11.dtd">
<svg width="49.248046875" height="43.0078125" xmlns="http://www.w3.org/2000/svg" xmlns:xlink="http://www.w3.org/1999/xlink" xmlns:xml="http://www.w3.org/XML/1998/namespace" version="1.1">
  <g>
    <g>
      <path style="fill:#FF0000;fill-opacity:1" d="M18.017578125,18.046875L17.40234375,23.759765625 18.81591796875,22.957763671875 19.833984375,22.1923828125 20.44921875,21.390380859375 20.654296875,20.478515625 20.56640625,19.6435546875 20.185546875,18.984375 19.3798828125,18.45703125 18.017578125,18.046875z M2.87109375,0L3.33984375,3.8671875 6.141357421875,2.1826171875 9.0380859375,0.99609375 12.0446767807007,0.29296875 15.17578125,0.05859375 18.7353515625,0.498046875 22.060546875,1.845703125 24.521484375,4.1162109375 25.2465801239014,5.606689453125 25.48828125,7.353515625 25.4150390625,8.5986328125 25.166015625,10.13671875 24.111328125,15.234375 26.7626953125,17.0068359375 30.0732421875,18.4716796875 34.248046875,19.4677734375 39.4921875,19.833984375 42.568359375,19.5849609375 45.732421875,19.013671875 47.490234375,18.6328125 49.248046875,18.193359375 47.2631797790527,22.001953125 44.4140625,25.341796875 41.0888671875,27.9638671875 36.6357421875,30.2490234375 30.8935546875,31.875 23.73046875,32.490234375 22.0751953125,32.4169921875 20.1708984375,32.1533203125 18.251953125,31.6552734375 16.5966796875,30.8935546875 15.4248046875,29.82421875 14.970703125,28.41796875 15,28.095703125 16.171875,17.900390625 13.3959951400757,18.2153339385986 10.810546875,19.16015625 8.29833984375,20.68359375 5.7421875,22.734375 8.26171875,43.0078125 5.33203125,43.0078125 0,0.498046875 2.87109375,0z" />
    </g>
  </g>
</svg>