<?xml version="1.0" encoding="utf-8"?>
<!DOCTYPE svg PUBLIC "-//W3C//DTD SVG 1.1//EN" "http://www.w3.org/Graphics/SVG/1.1/DTD/svg11.dtd">
<svg width="54.7558593750006" height="67.3828125" xmlns="http://www.w3.org/2000/svg" xmlns:xlink="http://www.w3.org/1999/xlink" xmlns:xml="http://www.w3.org/XML/1998/namespace" version="1.1">
  <g>
    <g>
      <path style="fill:#FF0000;fill-opacity:1" d="M10.517578125,54.755859375L9.052734375,55.3857421875 8.4375,56.865234375 9.052734375,58.3447265625 10.517578125,58.974609375 44.208984375,58.974609375 44.208984375,54.755859375 10.517578125,54.755859375z M50.537109375,49.541015625L47.431640625,52.646484375 50.537109375,52.646484375 50.537109375,49.541015625z M50.537109375,41.1328125L39.0234375,52.646484375 45.205078125,52.646484375 50.537109375,47.314453125 50.537109375,41.1328125z M50.537109375,32.6953125L30.5859375,52.646484375 36.796875,52.646484375 50.537109375,38.90625 50.537109375,32.6953125z M50.537109375,24.287109375L22.177734375,52.646484375 28.359375,52.646484375 50.537109375,30.46875 50.537109375,24.287109375z M50.537109375,15.849609375L13.740234375,52.646484375 19.951171875,52.646484375 50.537109375,22.060546875 50.537109375,15.849609375z M50.537109375,7.44140625L12.626953125,45.3515625 12.626953125,51.533203125 50.537109375,13.623046875 50.537109375,7.44140625z M45.322265625,4.21874952316284L12.626953125,36.9140625 12.626953125,43.095703125 50.537109375,5.21484422683716 50.537109375,4.21874952316284 45.322265625,4.21874952316284z M36.9140625,4.21874952316284L12.626953125,28.505859375 12.626953125,34.6875 43.095703125,4.21874952316284 36.9140625,4.21874952316284z M28.4765625,4.21874952316284L12.626953125,20.068359375 12.626953125,26.25 34.6875,4.21874952316284 28.4765625,4.21874952316284z M20.068359375,4.21874952316284L12.626953125,11.66015625 12.626953125,17.841796875 26.25,4.21874952316284 20.068359375,4.21874952316284z M12.626953125,4.21874952316284L12.626953125,9.404296875 17.841796875,4.21874952316284 12.626953125,4.21874952316284z M10.517578125,4.21874952316284L8.056640625,4.71679639816284 6.064453125,6.064453125 4.716796875,8.056640625 4.21875,10.517578125 4.21875,56.865234375 4.716796875,59.326171875 6.064453125,61.318359375 8.056640625,62.666015625 10.517578125,63.1640625 48.427734375,63.1640625 48.427734375,54.755859375 46.318359375,54.755859375 46.318359375,61.0546875 10.517578125,61.0546875 8.876953125,60.732421875 7.5439453125,59.8388671875 6.650390625,58.505859375 6.328125,56.865234375 6.650390625,55.224609375 7.5439453125,53.8916015625 8.876953125,52.9833984375 10.517578125,52.646484375 10.517578125,4.21874952316284z M10.517578125,0L54.755859375,0 54.755859375,67.3828125 10.517578125,67.3828125 8.411865234375,67.177734375 6.4306640625,66.5625 3.076171875,64.306640625 0.8203125,60.9521484375 0.205077767372131,58.970947265625 0,56.865234375 0,10.517578125 0.205077767372131,8.411865234375 0.8203125,6.4306640625 3.076171875,3.09081983566284 6.4306640625,0.834960460662842 8.411865234375,0.208743035793304 10.517578125,0z" />
    </g>
  </g>
</svg>