<?xml version="1.0" encoding="utf-8"?>
<!DOCTYPE svg PUBLIC "-//W3C//DTD SVG 1.1//EN" "http://www.w3.org/Graphics/SVG/1.1/DTD/svg11.dtd">
<svg width="67.3828125000003" height="67.3828125" xmlns="http://www.w3.org/2000/svg" xmlns:xlink="http://www.w3.org/1999/xlink" xmlns:xml="http://www.w3.org/XML/1998/namespace" version="1.1">
  <g>
    <g>
      <path style="fill:#FF0000;fill-opacity:1" d="M25.3125,46.34765625L23.7451171875,49.3505859375 23.203125,52.705078125 23.4082012176514,54.80712890625 24.0234375,56.77734375 26.279296875,60.1025390625 29.619140625,62.34375 31.58935546875,62.958984375 33.69140625,63.1640625 35.79345703125,62.958984375 37.763671875,62.34375 41.103515625,60.1025390625 43.359375,56.77734375 43.9746055603027,54.80712890625 44.1796875,52.705078125 43.6376953125,49.3505859375 42.0703125,46.34765625 37.91015625,50.537109375 37.9248046875,51.240234375 37.939453125,51.943359375 37.67578125,53.8330078125 36.884765625,55.400390625 35.5517578125,56.4697265625 33.69140625,56.865234375 32.05078125,56.5283203125 30.7177734375,55.6201171875 29.8095703125,54.287109375 29.47265625,52.646484375 29.47265625,50.537109375 25.3125,46.34765625z M44.208984375,21.064453125L54.755859375,21.064453125 56.2353515625,21.6943359375 56.865234375,23.173828125 56.2353515625,24.6533203125 54.755859375,25.283203125 44.208984375,25.283203125 42.7294921875,24.6533203125 42.099609375,23.173828125 42.7294921875,21.6943359375 44.208984375,21.064453125z M12.626953125,8.4375L23.173828125,8.4375 24.638671875,9.052734375 25.25390625,10.517578125 24.638671875,11.9970703125 23.173828125,12.626953125 12.626953125,12.626953125 11.1328125,12.01171875 10.517578125,10.517578125 11.1474609375,9.052734375 12.626953125,8.4375z M4.21875,4.21874952316284L4.508056640625,7.177734375 5.3759765625,9.9609375 6.74194240570068,12.48046875 8.525390625,14.6484365463257 10.693359375,16.431884765625 13.212890625,17.7978515625 15.99609375,18.665771484375 18.955078125,18.955078125 27.36328125,18.955078125 29.384765625,19.453125 30.99609375,21.0205078125 31.58203125,23.173828125 31.58203125,39.9609375 31.5673828125,43.6962890625 31.552734375,47.431640625 31.5673828125,50.244140625 31.611328125,53.056640625 31.8603515625,53.7158203125 32.3876953125,54.2578125 33.0322265625,54.6240234375 33.69140625,54.755859375 35.2734375,54.052734375 35.80078125,52.646484375 35.80078125,31.58203125 48.427734375,31.58203125 51.5478515625,31.2744140625 54.521484375,30.29296875 55.3564453125,29.8681640625 56.396484375,29.2529296875 57.392578125,28.5791015625 58.06640625,27.978515625 59.0478515625,27.099609375 59.8828125,26.103515625 61.300048828125,24.0234394073486 62.3291015625,21.767578125 62.955322265625,19.365234375 63.1640625,16.845703125 48.427734375,16.845703125 44.7216796875,17.34375 41.162109375,18.779296875 38.0712890625,21.0498046875 35.80078125,24.0234375 35.244140625,18.80859375 34.51904296875,16.34033203125 33.3984375,13.916015625 30.41015625,9.8876953125 26.4404296875,6.826171875 21.8115234375,4.892578125 16.845703125,4.21874952316284 4.21875,4.21874952316284z M0,0L16.845703125,0 20.4235820770264,0.278323143720627 23.8916015625,1.11328101158142 27.16552734375,2.45361614227295 30.1611328125,4.248046875 32.852783203125,6.47095012664795 35.21484375,9.0966796875 37.17041015625,12.073974609375 38.642578125,15.3515625 43.3447265625,13.3154296875 48.427734375,12.626953125 67.3828125,12.626953125 67.3828125,14.94140625 67.236328125,18.6328125 66.591796875,22.265625 65.5078125,25.1257343292236 63.955078125,27.7294921875 59.736328125,32.0068359375 57.1875,33.607177734375 54.404296875,34.8046875 51.4599571228027,35.5517578125 48.427734375,35.80078125 40.01953125,35.80078125 40.01953125,38.203125 40.72265625,38.84765625 43.7109375,41.806640625 46.142578125,44.8388671875 47.7685546875,48.33984375 48.369140625,52.705078125 48.0834922790527,55.660400390625 47.2265625,58.4326171875 45.8715782165527,60.941162109375 44.091796875,63.10546875 41.9274864196777,64.88525390625 39.4189453125,66.240234375 36.646728515625,67.09716796875 33.69140625,67.3828125 30.736083984375,67.093505859375 27.9638671875,66.2255859375 25.455322265625,64.859619140625 23.291015625,63.076171875 21.5075664520264,60.911865234375 20.1416015625,58.4033203125 19.2736797332764,55.631103515625 18.984375,52.67578125 19.2626934051514,49.78271484375 20.09765625,47.021484375 21.4453105926514,44.47265625 23.26171875,42.216796875 25.2978515625,40.2099609375 27.36328125,38.203125 27.36328125,23.173828125 18.955078125,23.173828125 15.150146484375,22.80029296875 11.5869140625,21.6796875 8.360595703125,19.91455078125 5.56640625,17.607421875 3.25927734375,14.813232421875 1.494140625,11.5869140625 0.373534798622131,8.023681640625 0,4.21874952316284 0,0z" />
    </g>
  </g>
</svg>