<?xml version="1.0" encoding="utf-8"?>
<!DOCTYPE svg PUBLIC "-//W3C//DTD SVG 1.1//EN" "http://www.w3.org/Graphics/SVG/1.1/DTD/svg11.dtd">
<svg width="67.4414062500175" height="67.3828125" xmlns="http://www.w3.org/2000/svg" xmlns:xlink="http://www.w3.org/1999/xlink" xmlns:xml="http://www.w3.org/XML/1998/namespace" version="1.1">
  <g>
    <g>
      <path style="fill:#FF0000;fill-opacity:1" d="M19.921875,52.646484375L15.087890625,61.0546875 10.576171875,61.0546875 9.0966796875,61.6845703125 8.46679782867432,63.1640625 29.53125,63.1640625 28.9013671875,61.6845703125 27.421875,61.0546875 23.466796875,61.0546875 28.30078125,52.646484375 25.869140625,52.646484375 21.03515625,61.0546875 17.51953125,61.0546875 22.353515625,52.646484375 19.921875,52.646484375z M8.0859375,46.318359375L10.242919921875,48.0908203125 12.6123046875,49.423828125 15.186767578125,50.2587890625 17.958984375,50.537109375 44.267578125,50.537109375 48.486328125,54.755859375 56.923828125,54.755859375 48.486328125,46.318359375 8.0859375,46.318359375z M17.87109375,23.173828125L15.384521484375,23.4082050323486 12.9052734375,24.111328125 10.601806640625,25.2612323760986 8.642578125,26.8359375 6.77856349945068,29.0771503448486 5.4052734375,31.5234375 4.559326171875,34.189453125 4.27734375,37.08984375 4.8486328125,40.810546875 6.4453125,44.208984375 46.376953125,44.208984375 25.3125,23.173828125 17.87109375,23.173828125z M16.904296875,8.43750095367432L15.4248046875,9.052734375 14.794921875,10.517578125 14.794921875,12.626953125 15.41015625,14.12109375 16.904296875,14.736328125 18.3984375,14.12109375 19.013671875,12.626953125 19.013671875,10.517578125 18.3837890625,9.052734375 16.904296875,8.43750095367432z M17.373046875,4.21875L15.205078125,4.59960985183716 13.4912109375,5.6103515625 12.743839263916,6.328125 17.958984375,6.328125 20.009765625,6.73828125 21.6943359375,7.8662109375 22.822265625,9.5361328125 23.232421875,11.572265625 22.822265625,13.6376953125 21.6943359375,15.3076171875 20.009765625,16.435546875 17.958984375,16.845703125 12.685546875,16.845703125 12.685546875,6.384108543396 12.01171875,7.03125095367432 10.576171875,8.642578125 5.09765625,14.736328125 4.482421875,15.7177734375 4.27734375,16.845703125 12.685546875,16.845703125 9.345703125,23.61328125 13.447265625,21.70166015625 17.958984375,21.064453125 25.3125,21.064453125 25.3125,12.421875 26.103515625,11.572265625 27.2607421875,10.3271484375 28.564453125,8.90625 29.8095703125,7.5146484375 30.791015625,6.34277439117432 31.318359375,5.56640720367432 31.552734375,4.87793016433716 31.640625,4.21875 17.373046875,4.21875z M17.373046875,0L35.859375,0 35.859375,4.21875 35.361328125,6.85546922683716 33.92578125,9.14062595367432 29.53125,14.033203125 29.53125,21.416015625 67.44140625,58.974609375 46.7578125,58.974609375 42.5390625,54.755859375 31.93359375,54.755859375 30.322265625,57.568359375 32.109375,58.88671875 33.1640625,60.498046875 33.662109375,62.4169921875 33.779296875,64.599609375 33.7646484375,65.9912109375 33.75,67.3828125 4.27734375,67.3828125 4.27734375,63.1640625 4.775390625,60.703125 6.123046875,58.7109375 8.11523532867432,57.36328125 10.576171875,56.865234375 12.65625,56.865234375 14.091796875,54.345703125 11.143798828125,53.43017578125 8.4521484375,52.03125 4.013671875,48.0615234375 2.347412109375,45.596923828125 1.0986328125,42.861328125 0.318603157997131,39.92431640625 0.05859375,36.85546875 0.4833984375,32.900390625 1.787109375,29.1796875 3.8671875,25.1220703125 5.91796875,21.064453125 0.05859375,21.064453125 0.0292963981628418,19.5703125 0,18.076171875 0.0732421875,16.3330078125 0.3662109375,14.7802734375 0.966796875,13.330078125 1.962890625,11.89453125 5.712890625,7.63183641433716 9.580078125,3.48632860183716 11.25,2.00683927536011 13.095703125,0.908203363418579 15.1318359375,0.22705402970314 17.373046875,0z" />
    </g>
  </g>
</svg>