<?xml version="1.0" encoding="utf-8"?>
<!DOCTYPE svg PUBLIC "-//W3C//DTD SVG 1.1//EN" "http://www.w3.org/Graphics/SVG/1.1/DTD/svg11.dtd">
<svg width="67.4414062500349" height="67.44140625" xmlns="http://www.w3.org/2000/svg" xmlns:xlink="http://www.w3.org/1999/xlink" xmlns:xml="http://www.w3.org/XML/1998/namespace" version="1.1">
  <g>
    <g>
      <path style="fill:#FF0000;fill-opacity:1" d="M61.083984375,44.794921875L61.083984375,56.279296875 61.9482421875,55.6640625 62.6220703125,54.755859375 63.046875,53.701171875 63.193359375,52.646484375 63.193359375,48.193359375 62.5927734375,46.23046875 61.083984375,44.794921875z M6.35742092132568,44.794921875L5.595703125,45.3515625 4.921875,46.142578125 4.4384765625,47.0654296875 4.248046875,47.98828125 4.248046875,52.67578125 4.8193359375,54.755859375 6.35742092132568,56.279296875 6.35742092132568,44.794921875z M56.89453125,40.576171875L56.89453125,60.498046875 58.330078125,59.0771484375 58.974609375,57.216796875 58.974609375,44.208984375 58.4326171875,42.1142578125 56.89453125,40.576171875z M10.546875,40.576171875L9.052734375,42.158203125 8.4375,44.208984375 8.4375,56.865234375 9.0087890625,58.9599609375 10.546875,60.498046875 10.546875,40.576171875z M48.45703125,37.91015625L46.962890625,38.525390625 46.34765625,40.01953125 46.34765625,61.0546875 46.9775390625,62.5341796875 48.45703125,63.1640625 52.96875,63.1640625 53.7158203125,62.9736328125 54.287109375,62.4755859375 54.6533203125,61.8017578125 54.78515625,61.0546875 54.78515625,39.84375 54.1259765625,38.4521484375 52.67578125,37.91015625 48.45703125,37.91015625z M14.765625,37.91015625L13.2861328125,38.5400390625 12.65625,40.01953125 12.65625,61.0546875 12.7880859375,61.8017578125 13.1689453125,62.4755859375 13.7548828125,62.9736328125 14.501953125,63.1640625 18.984375,63.1640625 20.478515625,62.548828125 21.09375,61.0546875 21.09375,40.01953125 20.4638671875,38.5400390625 18.984375,37.91015625 14.765625,37.91015625z M33.720703125,4.21875L30.010986328125,4.46411418914795 26.4404296875,5.2001953125 23.0529766082764,6.37939739227295 19.892578125,7.9541015625 14.35546875,12.216796875 10.0927734375,17.75390625 8.51806640625,20.914306640625 7.3388671875,24.3017578125 6.60278224945068,27.8723163604736 6.35742092132568,31.58203125 6.35742092132568,42.48046875 6.62109375,42.392578125 8.0859375,39.8583984375 10.546875,38.26171875 10.546875,31.58203125 10.755615234375,28.4472675323486 11.3818359375,25.4296875 13.7255859375,19.9072265625 17.34375,15.2197265625 22.03125,11.5869140625 27.568359375,9.2578125 30.5859375,8.642578125 33.720703125,8.4375 37.75634765625,8.78173828125 41.6015625,9.814453125 45.1647911071777,11.458740234375 48.3544921875,13.6376953125 51.1340293884277,16.322021484375 53.466796875,19.482421875 55.2612266540527,23.0419921875 56.42578125,26.923828125 56.9677734375,32.578125 56.89453125,38.26171875 59.35546875,39.8876953125 60.8203125,42.392578125 61.083984375,42.48046875 61.083984375,31.58203125 60.838623046875,27.8723163604736 60.1025390625,24.3017578125 58.92333984375,20.91796875 57.3486328125,17.7685546875 53.0712890625,12.2314453125 47.5341796875,7.9541015625 44.3847618103027,6.37939739227295 41.0009765625,5.2001953125 37.430419921875,4.46411418914795 33.720703125,4.21875z M33.720703125,0L37.9833984375,0.281985282897949 42.099609375,1.1279296875 46.0070762634277,2.49023723602295 49.6435546875,4.32128953933716 52.9907188415527,6.59179973602295 56.0302734375,9.2724609375 58.7109375,12.31201171875 60.9814453125,15.6591796875 62.8125,19.295654296875 64.1748046875,23.203125 65.020751953125,27.3193378448486 65.302734375,31.58203125 65.302734375,42.890625 66.412353515625,44.454345703125 67.0458984375,46.0986328125 67.44140625,49.74609375 67.4267578125,51.1962890625 67.412109375,52.646484375 67.060546875,55.01953125 66.0498046875,57.2021484375 64.482421875,59.0185546875 62.4609375,60.322265625 60.5712890625,62.958984375 57.83203125,64.716796875 56.4990234375,66.1083984375 54.9609375,66.943359375 53.232421875,67.3388671875 51.328125,67.44140625 49.892578125,67.412109375 48.45703125,67.3828125 45.99609375,66.884765625 43.9892578125,65.5224609375 42.626953125,63.515625 42.12890625,61.0546875 42.12890625,40.01953125 42.626953125,37.55859375 43.9892578125,35.5517578125 45.99609375,34.189453125 48.45703125,33.69140625 52.67578125,33.69140625 52.5732421875,30.380859375 52.1630859375,27.36328125 51.2841796875,24.462890625 49.775390625,21.50390625 48.5595703125,21.3427734375 47.5341796875,20.9765625 46.5966796875,20.419921875 45.64453125,19.6875 42.9052734375,17.5634765625 40.166015625,16.025390625 37.1923828125,15.087890625 33.720703125,14.765625 30.2490234375,15.087890625 27.275390625,16.025390625 24.5361328125,17.5634765625 21.796875,19.6875 19.9072265625,20.9912109375 17.666015625,21.50390625 16.1279296875,24.4775390625 15.2490234375,27.36328125 14.853515625,30.380859375 14.765625,33.69140625 18.984375,33.69140625 21.4453125,34.189453125 23.4375,35.5517578125 24.78515625,37.55859375 25.283203125,40.01953125 25.283203125,61.0546875 24.78515625,63.515625 23.4375,65.5224609375 21.4453125,66.884765625 18.984375,67.3828125 17.548828125,67.412109375 16.11328125,67.44140625 14.208984375,67.3388671875 12.48046875,66.943359375 10.9423828125,66.1083984375 9.609375,64.716796875 6.8701171875,62.958984375 4.98046875,60.322265625 2.9296875,59.033203125 1.376953125,57.2314453125 0.380858898162842,55.048828125 0.0292963981628418,52.646484375 0.0146484375,51.240234375 0,49.833984375 0.0878901481628418,47.9150390625 0.41015625,46.142578125 1.0546875,44.4873046875 2.138671875,42.890625 2.138671875,31.58203125 2.420654296875,27.3193378448486 3.26660060882568,23.203125 4.62890625,19.295654296875 6.4599609375,15.6591796875 8.73046875,12.31201171875 11.4111328125,9.2724609375 14.45068359375,6.59179973602295 17.7978515625,4.32128953933716 21.4343242645264,2.49023723602295 25.341796875,1.1279296875 29.4580078125,0.281985282897949 33.720703125,0z" />
    </g>
  </g>
</svg>