<?xml version="1.0" encoding="utf-8"?>
<!DOCTYPE svg PUBLIC "-//W3C//DTD SVG 1.1//EN" "http://www.w3.org/Graphics/SVG/1.1/DTD/svg11.dtd">
<svg width="67.3828125" height="67.3828125" xmlns="http://www.w3.org/2000/svg" xmlns:xlink="http://www.w3.org/1999/xlink" xmlns:xml="http://www.w3.org/XML/1998/namespace" version="1.1">
  <g>
    <g>
      <path style="fill:#FF0000;fill-opacity:1" d="M43.9453125,43.212890625L43.9453125,51.62109375 45.41015625,51.62109375 47.1935997009277,51.324462890625 48.5009765625,50.4345703125 49.3029747009277,49.053955078125 49.5703125,47.28515625 49.2919883728027,45.54931640625 48.45703125,44.267578125 47.1386680603027,43.4765625 45.41015625,43.212890625 43.9453125,43.212890625z M40.95703125,40.78125L45.64453125,40.78125 48.57421875,41.1474609375 50.8154296875,42.2900390625 52.236328125,44.296875 52.734375,47.2265625 52.20703125,50.068359375 50.7421875,52.2216796875 48.5009765625,53.583984375 45.64453125,54.052734375 40.95703125,54.052734375 40.95703125,40.78125z M25.8984375,40.78125L29.12109375,40.78125 32.138671875,45.3076171875 35.0390625,49.921875 35.009765625,49.599609375 35.009765625,49.27734375 35.009765625,40.78125 37.822265625,40.78125 37.822265625,54.052734375 34.8046875,54.052734375 31.669921875,49.365234375 28.681640625,44.58984375 28.7109375,44.9853515625 28.7109375,45.3515625 28.7109375,54.052734375 25.8984375,54.052734375 25.8984375,40.78125z M15.498046875,40.78125L23.14453125,40.78125 23.14453125,43.212890625 18.486328125,43.212890625 18.486328125,46.142578125 22.822265625,46.142578125 22.822265625,48.57421875 18.486328125,48.57421875 18.486328125,51.62109375 23.4375,51.62109375 23.4375,54.052734375 15.498046875,54.052734375 15.498046875,40.78125z M23.173828125,14.736328125L23.173828125,21.064453125 52.646484375,21.064453125 52.646484375,25.283203125 23.173828125,25.283203125 23.173828125,31.58203125 14.736328125,23.173828125 23.173828125,14.736328125z M4.21875,4.21874952316284L4.21875,63.1640625 63.1640625,63.1640625 63.1640625,4.21874952316284 4.21875,4.21874952316284z M0,0L67.3828125,0 67.3828125,67.3828125 0,67.3828125 0,0z" />
    </g>
  </g>
</svg>