<?xml version="1.0" encoding="utf-8"?>
<!DOCTYPE svg PUBLIC "-//W3C//DTD SVG 1.1//EN" "http://www.w3.org/Graphics/SVG/1.1/DTD/svg11.dtd">
<svg width="67.4121093750008" height="56.865234375001" xmlns="http://www.w3.org/2000/svg" xmlns:xlink="http://www.w3.org/1999/xlink" xmlns:xml="http://www.w3.org/XML/1998/namespace" version="1.1">
  <g>
    <g>
      <path style="fill:#FF0000;fill-opacity:1" d="M25.25390625,44.23828125L25.25390625,52.646484375 29.47265625,52.646484375 29.47265625,46.34765625 31.58203125,44.23828125 25.25390625,44.23828125z M58.9453125,39.140625L57.744140625,39.638671875 56.1181640625,39.90234375 54.3896484375,40.0048828125 52.91015625,40.01953125 52.646484375,40.01953125 54.755859375,42.12890625 54.755859375,52.646484375 58.9453125,52.646484375 58.9453125,39.140625z M21.064453125,12.65625L21.064453125,17.138671875 21.2255859375,18.0322265625 21.591796875,18.896484375 23.203125,20.537109375 25.458984375,21.064453125 26.8212890625,20.771484375 28.0078125,20.068359375 28.2421875,19.833984375 21.064453125,12.65625z M15.791015625,10.546875L16.5380859375,10.8544921875 16.845703125,11.6015625 16.845703125,13.7109375 16.5380859375,14.4580078125 15.791015625,14.765625 15.0439453125,14.4580078125 14.736328125,13.7109375 14.736328125,11.6015625 15.0439453125,10.8544921875 15.791015625,10.546875z M14.501953125,8.4375L13.3740234375,8.6279296875 12.3193359375,9.111328125 11.3525390625,9.78515625 10.517578125,10.546875 4.21875,16.845703125 8.408203125,16.845703125 8.1005859375,18.0615234375 7.294921875,18.69140625 6.1962890625,18.92578125 4.98046875,18.955078125 4.8046875,18.955078125 6.298828125,20.5224609375 8.408203125,21.064453125 16.845703125,21.064453125 18.45703125,20.8740234375 19.951171875,20.244140625 19.21875,18.6328125 18.955078125,16.904296875 18.955078125,12.65625 19.599609375,11.103515625 21.15234375,10.576171875 21.38671875,10.576171875 21.62109375,10.60546875 19.4677734375,9.0087890625 16.845703125,8.4375 14.501953125,8.4375z M14.736328125,4.21874952316284L13.2568359375,4.84863233566284 12.65625,6.35742139816284 12.65625,6.54785108566284 12.685546875,6.73828077316284 14.0771484375,6.41601610183716 15.498046875,6.32812452316284 16.845703125,6.32812452316284 19.892578125,6.89941358566284 22.4560546875,8.4814453125 24.31640625,10.869140625 25.224609375,13.828125 29.736328125,18.33984375 30.3515625,19.833984375 29.794921875,21.2548828125 28.447265625,22.3095703125 26.77734375,22.9541015625 25.25390625,23.173828125 23.2177715301514,22.84423828125 21.38671875,21.85546875 18.3984375,22.96875 15.498046875,23.203125 14.1064453125,23.1884765625 12.626953125,23.173828125 12.626953125,23.4375 12.6708984375,25.693359375 12.9638671875,27.626953125 13.7109375,29.3994140625 15.1171875,31.23046875 15.966796875,31.9189453125 16.845703125,32.548828125 16.8310546875,33.662109375 16.81640625,34.775390625 17.1240234375,37.6318359375 17.6257305145264,38.917236328125 18.515625,40.107421875 20.6396484375,41.5869140625 23.173828125,42.12890625 35.80078125,42.12890625 37.7197265625,41.8212890625 39.4189453125,40.95703125 40.78125,39.6240234375 41.71875,37.91015625 47.6953125,37.939453125 53.671875,37.96875 56.396484375,37.763671875 58.9453125,36.796875 60.699462890625,35.44189453125 62.0361328125,33.720703125 62.882080078125,31.7138671875 63.1640625,29.501953125 63.1640625,24.228515625 62.9736328125,22.371826171875 62.40234375,20.6103515625 60.3369140625,17.5927734375 57.3193359375,15.52734375 55.5578575134277,14.9560565948486 53.701171875,14.765625 41.806640625,14.765625 41.6455078125,14.1357421875 41.396484375,13.505859375 40.078125,11.42578125 38.2763671875,9.8291015625 36.1083984375,8.8037109375 33.69140625,8.4375 25.25390625,8.4375 24.9169921875,6.82617139816284 24.0087890625,5.47851514816284 22.67578125,4.55566453933716 21.064453125,4.21874952316284 14.736328125,4.21874952316284z M14.736328125,0L21.064453125,0 23.2617168426514,0.281982004642487 25.283203125,1.12792921066284 27.01904296875,2.46459913253784 28.359375,4.21874952316284 33.69140625,4.21874952316284 36.9873046875,4.65820264816284 39.990234375,5.91796827316284 42.568359375,7.91015577316284 44.58984375,10.546875 53.701171875,10.546875 56.43310546875,10.81787109375 59.00390625,11.630859375 61.336669921875,12.9089374542236 63.3544921875,14.5751953125 65.020751953125,16.5930194854736 66.298828125,18.92578125 67.11181640625,21.49658203125 67.3828125,24.228515625 67.3974609375,25.7666015625 67.412109375,27.3046875 67.265625,30.64453125 66.6796875,33.6181640625 65.4052734375,36.328125 63.1640625,38.876953125 63.1640625,56.865234375 50.537109375,56.865234375 50.537109375,43.857421875 48.779296875,42.12890625 44.1796875,42.12890625 42.4291954040527,44.029541015625 40.341796875,45.3369140625 37.9833984375,46.094970703125 35.419921875,46.34765625 33.69140625,48.076171875 33.69140625,56.865234375 21.064453125,56.865234375 21.064453125,46.142578125 17.6806640625,44.8095703125 15.0146484375,42.4658203125 13.2568359375,39.375 12.626953125,35.80078125 12.626953125,34.658203125 10.836181640625,32.706298828125 9.5068359375,30.4248046875 8.682861328125,27.916259765625 8.408203125,25.283203125 5.15625,24.609375 2.490234375,22.7783203125 0.673828125,20.09765625 0,16.845703125 0,15.1171875 7.55859375,7.55859327316284 7.998046875,7.13378858566284 8.4375,6.76757764816284 8.876953125,4.13085889816284 10.1220703125,1.97753858566284 12.099609375,0.527343273162842 14.736328125,0z" />
    </g>
  </g>
</svg>