<?xml version="1.0" encoding="utf-8"?>
<!DOCTYPE svg PUBLIC "-//W3C//DTD SVG 1.1//EN" "http://www.w3.org/Graphics/SVG/1.1/DTD/svg11.dtd">
<svg width="67.3828125000004" height="67.3828125" xmlns="http://www.w3.org/2000/svg" xmlns:xlink="http://www.w3.org/1999/xlink" xmlns:xml="http://www.w3.org/XML/1998/namespace" version="1.1">
  <g>
    <g>
      <path style="fill:#FF0000;fill-opacity:1" d="M33.69140625,16.845703125L35.185546875,17.4609375 35.80078125,18.955078125 35.80078125,30.05859375 37.3388671875,31.5966796875 37.91015625,33.69140625 37.5732421875,35.3466796875 36.650390625,36.6943359375 35.2880859375,37.587890625 33.6328125,37.91015625 29.1796875,45.29296875 28.4033203125,46.06201171875 27.36328125,46.318359375 25.8837890625,45.703125 25.25390625,44.23828125 25.576171875,43.125 30,35.7421875 29.619140625,34.7314453125 29.47265625,33.69140625 30.0439453125,31.5966796875 31.58203125,30.05859375 31.58203125,18.955078125 32.197265625,17.4609375 33.69140625,16.845703125z M33.69140625,8.4375L30.27099609375,8.66455078125 26.982421875,9.345703125 20.947265625,11.89453125 15.8203125,15.8349609375 11.865234375,20.947265625 9.31640625,26.982421875 8.63525390625,30.2709980010986 8.408203125,33.69140625 8.63525390625,37.11181640625 9.31640625,40.400390625 11.865234375,46.435546875 15.8203125,51.5625 20.947265625,55.517578125 26.982421875,58.06640625 30.27099609375,58.74755859375 33.69140625,58.974609375 37.11181640625,58.74755859375 40.400390625,58.06640625 46.435546875,55.517578125 51.5478515625,51.5625 55.48828125,46.435546875 58.037109375,40.400390625 58.71826171875,37.11181640625 58.9453125,33.69140625 58.721923828125,30.2673358917236 58.0517578125,26.9677734375 56.9677734375,23.8403339385986 55.5029296875,20.9326171875 51.5478515625,15.8349609375 46.4501953125,11.8798837661743 43.5424766540527,10.4150390625 40.4150390625,9.3310546875 37.115478515625,8.660888671875 33.69140625,8.4375z M33.69140625,6.328125L37.401123046875,6.57348918914795 40.9716796875,7.3095703125 44.3554649353027,8.48876953125 47.5048828125,10.0634765625 53.0419921875,14.3408203125 57.3193359375,19.8779296875 58.89404296875,23.02734375 60.0732421875,26.4111328125 60.809326171875,29.9816913604736 61.0546875,33.69140625 60.809326171875,37.401123046875 60.0732421875,40.9716796875 58.89404296875,44.359130859375 57.3193359375,47.51953125 53.056640625,53.056640625 47.51953125,57.3193359375 44.3591270446777,58.89404296875 40.9716796875,60.0732421875 37.401123046875,60.809326171875 33.69140625,61.0546875 29.981689453125,60.809326171875 26.4111328125,60.0732421875 23.0236797332764,58.89404296875 19.86328125,57.3193359375 14.326171875,53.056640625 10.0634765625,47.51953125 8.48876953125,44.359130859375 7.3095703125,40.9716796875 6.57348537445068,37.401123046875 6.328125,33.69140625 6.57348537445068,29.9816913604736 7.3095703125,26.4111328125 8.48876953125,23.023681640625 10.0634765625,19.86328125 14.326171875,14.326171875 19.86328125,10.0634765625 23.0236797332764,8.48876953125 26.4111328125,7.3095703125 29.981689453125,6.57348918914795 33.69140625,6.328125z M33.69140625,4.21874952316284L29.696044921875,4.48242473602295 25.8544921875,5.2734375 22.2106914520264,6.54419231414795 18.80859375,8.2470703125 15.677490234375,10.3564453125 12.8466796875,12.8466796875 10.3564453125,15.677490234375 8.2470703125,18.80859375 6.54418849945068,22.210693359375 5.2734375,25.8544921875 4.482421875,29.6960468292236 4.21875,33.69140625 4.482421875,37.686767578125 5.2734375,41.5283203125 6.54418849945068,45.172119140625 8.2470703125,48.57421875 10.3564453125,51.705322265625 12.8466796875,54.5361328125 15.677490234375,57.0263671875 18.80859375,59.1357421875 22.2106914520264,60.838623046875 25.8544921875,62.109375 29.696044921875,62.900390625 33.69140625,63.1640625 37.686767578125,62.900390625 41.5283203125,62.109375 45.1721153259277,60.838623046875 48.57421875,59.1357421875 51.7053184509277,57.0263671875 54.5361328125,54.5361328125 57.0263671875,51.705322265625 59.1357421875,48.57421875 60.838623046875,45.172119140625 62.109375,41.5283203125 62.900390625,37.686767578125 63.1640625,33.69140625 62.900390625,29.6960468292236 62.109375,25.8544921875 60.838623046875,22.210693359375 59.1357421875,18.80859375 57.0263671875,15.677490234375 54.5361328125,12.8466796875 51.7053184509277,10.3564453125 48.57421875,8.2470703125 45.1721153259277,6.54419231414795 41.5283203125,5.2734375 37.686767578125,4.48242473602295 33.69140625,4.21874952316284z M33.69140625,0L38.23974609375,0.300295770168304 42.626953125,1.20117139816284 46.7944297790527,2.65137004852295 50.68359375,4.59960889816284 54.2651329040527,7.0166015625 57.509765625,9.873046875 60.3662109375,13.11767578125 62.783203125,16.69921875 64.7314453125,20.58837890625 66.181640625,24.755859375 67.08251953125,29.1430683135986 67.3828125,33.69140625 67.08251953125,38.258056640625 66.181640625,42.6416015625 64.7314453125,46.798095703125 62.783203125,50.68359375 60.3662109375,54.26513671875 57.509765625,57.509765625 54.2651329040527,60.3662109375 50.68359375,62.783203125 46.7944297790527,64.7314453125 42.626953125,66.181640625 38.23974609375,67.08251953125 33.69140625,67.3828125 29.124755859375,67.08251953125 24.7412109375,66.181640625 20.5847148895264,64.7314453125 16.69921875,62.783203125 13.11767578125,60.3662109375 9.873046875,57.509765625 7.01660060882568,54.26513671875 4.599609375,50.68359375 2.6513671875,46.79443359375 1.201171875,42.626953125 0.300292611122131,38.23974609375 0,33.69140625 0.300292611122131,29.1430683135986 1.201171875,24.755859375 2.6513671875,20.58837890625 4.599609375,16.69921875 7.01660060882568,13.11767578125 9.873046875,9.873046875 13.11767578125,7.0166015625 16.69921875,4.59960889816284 20.5847148895264,2.65137004852295 24.7412109375,1.20117139816284 29.124755859375,0.300295770168304 33.69140625,0z" />
    </g>
  </g>
</svg>