<?xml version="1.0" encoding="utf-8"?>
<!DOCTYPE svg PUBLIC "-//W3C//DTD SVG 1.1//EN" "http://www.w3.org/Graphics/SVG/1.1/DTD/svg11.dtd">
<svg width="30.3515625" height="37.44140625" xmlns="http://www.w3.org/2000/svg" xmlns:xlink="http://www.w3.org/1999/xlink" xmlns:xml="http://www.w3.org/XML/1998/namespace" version="1.1">
  <g>
    <g>
      <path style="fill:#FF0000;fill-opacity:1" d="M15.64453125,32.05078125L14.23828125,33.486328125 13.916015625,33.896484375 18.720703125,36.064453125 19.6875,36.064453125 21.8188457489014,35.57373046875 22.529296875,34.1015625 22.529296875,33.92578125 19.833984375,33.92578125 15.64453125,32.05078125z M16.435546875,28.359375L14.765625,29.6484375 14.53125,29.94140625 20.126953125,32.431640625 22.32421875,32.431640625 23.8238506317139,32.3236083984375 24.8950176239014,31.99951171875 25.5377178192139,31.4593505859375 25.751953125,30.703125 25.6640625,30.322265625 20.91796875,30.3515625 16.435546875,28.359375z M18.22265625,24.755859375L16.8896484375,25.3857421875 15.76171875,26.513671875 21.181640625,28.916015625 24.287109375,28.916015625 25.8508281707764,28.802490234375 26.9677734375,28.4619140625 27.637939453125,27.894287109375 27.861328125,27.099609375 27.48046875,26.103515625 26.0742168426514,26.56494140625 24.140625,26.71875 22.587890625,26.71875 18.22265625,24.755859375z M19.248046875,1.904296875L18.076171875,7.32421875 12.1875,13.59375 10.87646484375,15.2563495635986 9.931640625,16.494140625 8.29101467132568,18.5815448760986 7.119140625,19.5703125 5.4931640625,19.8999042510986 2.490234375,20.009765625 1.74316370487213,22.81494140625 1.494140625,25.6640625 1.72119104862213,28.154296875 2.40234375,30.76171875 6.4453125,30.76171875 9.24316310882568,33.74267578125 12.7734375,36.240234375 13.916015625,36.26953125 15.41015625,36.09375 11.806640625,34.482421875 12.861328125,32.71728515625 14.208984375,31.40625 12.392578125,30.556640625 13.58642578125,28.80615234375 14.8828125,27.65625 13.740234375,27.158203125 14.94873046875,25.2392578125 16.58203125,23.994140625 15.5859375,23.525390625 16.5765380859375,21.8591327667236 17.81982421875,20.6689472198486 19.3157958984375,19.9548358917236 21.064453125,19.716796875 22.6171875,19.921875 24.4921875,20.56640625 26.865234375,20.595703125 25.48828125,22.060546875 24.111328125,22.001953125 22.177734375,21.298828125 20.830078125,21.064453125 19.013671875,21.5185546875 17.607421875,22.880859375 22.91015625,25.283203125 24.697265625,25.25390625 26.3195781707764,24.9609375 27.6708984375,24.08203125 28.582763671875,22.7783203125 28.88671875,21.2109375 28.30078125,19.5739765167236 26.54296875,18.4130859375 23.6206035614014,17.7209491729736 19.541015625,17.490234375 18.486328125,17.490234375 18.515625,16.669921875 19.0869140625,13.1250009536743 20.80078125,9.404296875 21.181640625,8.759765625 21.9287090301514,7.1484375 22.177734375,5.654296875 21.4453105926514,3.33984375 19.248046875,1.904296875z M18.251953125,0L19.1015625,0.205078125 21.1138896942139,0.9521484375 22.5512676239014,2.109375 23.4136943817139,3.6767578125 23.701171875,5.654296875 23.3203105926514,7.56591796875 22.177734375,10.13671875 21.708984375,10.95703125 20.6762676239014,13.4619159698486 20.09765625,16.0546875 20.830078125,16.0546875 24.7119121551514,16.4209003448486 27.744140625,17.51953125 29.69970703125,19.2187519073486 30.3515625,21.38671875 29.9560546875,23.37158203125 28.76953125,25.166015625 29.4140625,27.099609375 28.8134765625,28.9453125 27.041015625,30 27.099609375,30.8203125 26.90185546875,32.0416259765625 26.30859375,32.95166015625 25.31982421875,33.5504150390625 23.935546875,33.837890625 23.994140625,34.365234375 23.7249736785889,35.7110595703125 22.9174785614014,36.67236328125 21.5716533660889,37.2491455078125 19.6875,37.44140625 18.427734375,37.44140625 17.373046875,36.9140625 13.974609375,37.44140625 12.333984375,37.353515625 8.94287014007568,35.28076171875 5.80078125,32.28515625 1.435546875,32.28515625 0.35888671875,28.80615234375 0,25.341796875 0.395507752895355,21.8408203125 1.58203077316284,18.427734375 5.009765625,18.427734375 6.7529296875,18.0322265625 7.48901271820068,17.2888202667236 8.61328125,15.849609375 9.43359375,14.765625 10.60546875,13.2202167510986 11.3671875,12.275390625 16.787109375,6.50390625 18.251953125,0z" />
    </g>
  </g>
</svg>