<?xml version="1.0" encoding="utf-8"?>
<!DOCTYPE svg PUBLIC "-//W3C//DTD SVG 1.1//EN" "http://www.w3.org/Graphics/SVG/1.1/DTD/svg11.dtd">
<svg width="67.3828125" height="61.0546875" xmlns="http://www.w3.org/2000/svg" xmlns:xlink="http://www.w3.org/1999/xlink" xmlns:xml="http://www.w3.org/XML/1998/namespace" version="1.1">
  <g>
    <g>
      <path style="fill:#FF0000;fill-opacity:1" d="M56.865234375,48.427734375L61.0546875,48.427734375 61.0546875,52.646484375 56.865234375,52.646484375 56.865234375,48.427734375z M48.427734375,48.427734375L48.427734375,52.646484375 52.646484375,52.646484375 52.646484375,48.427734375 48.427734375,48.427734375z M40.01953125,48.427734375L40.01953125,56.8359375 44.208984375,56.8359375 44.208984375,48.427734375 40.01953125,48.427734375z M31.58203125,48.427734375L31.58203125,52.646484375 35.80078125,52.646484375 35.80078125,48.427734375 31.58203125,48.427734375z M23.173828125,48.427734375L27.36328125,48.427734375 27.36328125,52.646484375 23.173828125,52.646484375 23.173828125,48.427734375z M14.736328125,48.427734375L14.736328125,56.8359375 18.955078125,56.8359375 18.955078125,48.427734375 14.736328125,48.427734375z M6.328125,48.427734375L6.328125,52.646484375 10.517578125,52.646484375 10.517578125,48.427734375 6.328125,48.427734375z M56.865234375,39.990234375L61.0546875,39.990234375 61.0546875,44.208984375 56.865234375,44.208984375 56.865234375,39.990234375z M48.427734375,39.990234375L48.427734375,44.208984375 52.646484375,44.208984375 52.646484375,39.990234375 48.427734375,39.990234375z M40.01953125,39.990234375L40.01953125,44.208984375 44.208984375,44.208984375 44.208984375,39.990234375 40.01953125,39.990234375z M31.58203125,39.990234375L31.58203125,44.208984375 35.80078125,44.208984375 35.80078125,39.990234375 31.58203125,39.990234375z M23.173828125,39.990234375L27.36328125,39.990234375 27.36328125,44.208984375 23.173828125,44.208984375 23.173828125,39.990234375z M14.736328125,39.990234375L14.736328125,44.208984375 18.955078125,44.208984375 18.955078125,39.990234375 14.736328125,39.990234375z M6.328125,39.990234375L6.328125,44.208984375 10.517578125,44.208984375 10.517578125,39.990234375 6.328125,39.990234375z M56.865234375,31.58203125L61.0546875,31.58203125 61.0546875,35.80078125 56.865234375,35.80078125 56.865234375,31.58203125z M48.427734375,31.58203125L48.427734375,35.80078125 52.646484375,35.80078125 52.646484375,31.58203125 48.427734375,31.58203125z M40.01953125,31.58203125L40.01953125,35.80078125 44.208984375,35.80078125 44.208984375,31.58203125 40.01953125,31.58203125z M31.58203125,31.58203125L31.58203125,35.80078125 35.80078125,35.80078125 35.80078125,31.58203125 31.58203125,31.58203125z M23.173828125,31.58203125L27.36328125,31.58203125 27.36328125,35.80078125 23.173828125,35.80078125 23.173828125,31.58203125z M14.736328125,31.58203125L14.736328125,35.80078125 18.955078125,35.80078125 18.955078125,31.58203125 14.736328125,31.58203125z M6.328125,31.58203125L6.328125,35.80078125 10.517578125,35.80078125 10.517578125,31.58203125 6.328125,31.58203125z M56.865234375,23.14453125L61.0546875,23.14453125 61.0546875,27.36328125 56.865234375,27.36328125 56.865234375,23.14453125z M48.427734375,23.14453125L52.646484375,23.14453125 52.646484375,27.36328125 48.427734375,27.36328125 48.427734375,23.14453125z M40.01953125,23.14453125L40.01953125,27.36328125 44.208984375,27.36328125 44.208984375,23.14453125 40.01953125,23.14453125z M31.58203125,23.14453125L31.58203125,27.36328125 35.80078125,27.36328125 35.80078125,23.14453125 31.58203125,23.14453125z M23.173828125,23.14453125L27.36328125,23.14453125 27.36328125,27.36328125 23.173828125,27.36328125 23.173828125,23.14453125z M56.865234375,14.736328125L61.0546875,14.736328125 61.0546875,18.955078125 56.865234375,18.955078125 56.865234375,14.736328125z M48.427734375,14.736328125L52.646484375,14.736328125 52.646484375,18.955078125 48.427734375,18.955078125 48.427734375,14.736328125z M31.58203125,14.736328125L35.80078125,14.736328125 35.80078125,18.955078125 31.58203125,18.955078125 31.58203125,14.736328125z M23.173828125,14.736328125L27.36328125,14.736328125 27.36328125,18.955078125 23.173828125,18.955078125 23.173828125,14.736328125z M14.736328125,14.736328125L18.955078125,14.736328125 18.955078125,18.955078125 14.736328125,18.955078125 14.736328125,14.736328125z M12.626953125,10.517578125L12.626953125,23.14453125 14.736328125,25.25390625 14.736328125,23.14453125 18.955078125,23.14453125 18.955078125,27.36328125 16.845703125,27.36328125 21.064453125,31.58203125 21.064453125,56.8359375 29.47265625,56.8359375 29.47265625,21.03515625 37.91015625,21.03515625 37.91015625,10.517578125 12.626953125,10.517578125z M56.865234375,6.298828125L61.0546875,6.298828125 61.0546875,10.517578125 56.865234375,10.517578125 56.865234375,6.298828125z M54.755859375,4.189453125L54.755859375,10.517578125 46.318359375,10.517578125 46.318359375,29.47265625 54.755859375,29.47265625 54.755859375,56.8359375 63.1640625,56.8359375 63.1640625,4.189453125 54.755859375,4.189453125z M50.537109375,0L67.3828125,0 67.3828125,61.0546875 0,61.0546875 0,29.82421875 8.408203125,21.416015625 8.408203125,6.298828125 50.537109375,6.298828125 50.537109375,0z" />
    </g>
  </g>
</svg>