<?xml version="1.0" encoding="utf-8"?>
<!DOCTYPE svg PUBLIC "-//W3C//DTD SVG 1.1//EN" "http://www.w3.org/Graphics/SVG/1.1/DTD/svg11.dtd">
<svg width="67.3828125000009" height="67.3828125" xmlns="http://www.w3.org/2000/svg" xmlns:xlink="http://www.w3.org/1999/xlink" xmlns:xml="http://www.w3.org/XML/1998/namespace" version="1.1">
  <g>
    <g>
      <path style="fill:#FF0000;fill-opacity:1" d="M21.064453125,42.12890625L18.0322265625,42.275390625 14.4287109375,42.7880859375 10.7373046875,43.76953125 7.4560546875,45.3076171875 5.1123046875,47.5341796875 4.442138671875,48.936767578125 4.21875,50.537109375 4.599609375,52.3388671875 5.59570217132568,53.876953125 6.97265625,55.1513671875 8.49609375,56.162109375 11.396484375,57.48046875 14.5751953125,58.3447265625 17.8564453125,58.828125 21.064453125,58.974609375 24.580078125,58.7841796875 28.2421875,58.1689453125 31.7578125,57.0703125 34.833984375,55.400390625 35.9765625,54.462890625 36.9580078125,53.3203125 37.646484375,52.001953125 37.91015625,50.537109375 37.708740234375,49.171142578125 37.1044921875,47.9443359375 35.0830078125,45.908203125 32.490234375,44.3994140625 29.970703125,43.388671875 25.576171875,42.4072265625 21.064453125,42.12890625z M23.173828125,21.064453125L21.0681133270264,21.273193359375 19.0869140625,21.8994140625 15.732421875,24.1552734375 13.4619140625,27.4951171875 12.835693359375,29.4763202667236 12.626953125,31.58203125 13.1396484375,36.2109375 14.6484375,40.60546875 17.841796875,40.1513671875 21.064453125,40.01953125 25.5322265625,40.3125 30.3076171875,41.279296875 34.7314453125,43.0810546875 38.173828125,45.908203125 39.521484375,48.046875 40.01953125,50.537109375 41.8066368103027,48.804931640625 43.125,46.8310546875 43.9379844665527,44.608154296875 44.208984375,42.12890625 43.4619140625,36.533203125 41.337890625,31.494140625 38.0419921875,27.2314453125 33.7939453125,23.935546875 28.76953125,21.8115234375 23.173828125,21.064453125z M51.62109375,18.955078125L50.859375,19.248046875 50.537109375,20.009765625 50.859375,20.712890625 51.5771484375,21.5771484375 52.3095703125,22.705078125 52.646484375,24.228515625 52.96875,24.9609375 53.701171875,25.283203125 54.43359375,24.9609375 54.755859375,24.228515625 54.580078125,22.822265625 54.0673828125,21.416015625 53.2763671875,20.1708984375 52.265625,19.189453125 51.62109375,18.955078125z M30.52734375,14.736328125L29.7802734375,15.0439453125 29.47265625,15.791015625 29.7802734375,16.5380859375 30.52734375,16.845703125 33.8818359375,17.5048828125 36.2548828125,18.955078125 37.880859375,20.4052734375 38.96484375,21.064453125 39.7119140625,20.7568359375 40.01953125,20.009765625 39.9462890625,19.6435546875 39.755859375,19.3359375 37.96875,17.431640625 35.68359375,15.9814453125 33.1201171875,15.05859375 30.52734375,14.736328125z M56.865234375,0L58.9453125,0 62.2412109375,0.659179925918579 64.921875,2.46093702316284 66.7236328125,5.1416015625 67.3828125,8.4375 67.0751953125,10.37109375 66.2109375,12.0849609375 64.86328125,13.4619140625 63.134765625,14.384765625 62.6220703125,20.072021484375 61.494140625,25.4736328125 59.794921875,30.60791015625 57.568359375,35.4931640625 54.8400840759277,40.133056640625 51.6357421875,44.53125 47.9992637634277,48.7060546875 43.974609375,52.67578125 43.0517578125,53.4814453125 42.099609375,54.2578125 41.8469200134277,56.634521484375 41.0888671875,58.7255859375 38.408203125,62.138671875 34.5556640625,64.599609375 30.029296875,66.2109375 25.3564453125,67.1044921875 21.03515625,67.3828125 16.9921855926514,67.1630859375 13.0078125,66.50390625 10.078125,65.654296875 7.119140625,64.3798828125 4.3798828125,62.6513671875 2.109375,60.4833984375 0.5712890625,57.861328125 0,54.755859375 0,50.537109375 0.216064095497131,48.55224609375 0.8642578125,46.7578125 3.134765625,43.7255859375 6.2841796875,41.396484375 9.78515625,39.755859375 8.75244140625,35.72021484375 8.408203125,31.58203125 8.69384765625,28.6706562042236 9.55078125,26.0302734375 10.8984375,23.5803241729736 12.65625,21.240234375 17.0690898895264,16.611328125 21.8701171875,12.451171875 27.01904296875,8.814697265625 32.4755859375,5.7568359375 38.2177734375,3.30688762664795 44.2236328125,1.494140625 50.4528770446777,0.373538017272949 56.865234375,0z" />
    </g>
  </g>
</svg>