<?xml version="1.0" encoding="utf-8"?>
<!DOCTYPE svg PUBLIC "-//W3C//DTD SVG 1.1//EN" "http://www.w3.org/Graphics/SVG/1.1/DTD/svg11.dtd">
<svg width="67.3828125000017" height="67.3828125" xmlns="http://www.w3.org/2000/svg" xmlns:xlink="http://www.w3.org/1999/xlink" xmlns:xml="http://www.w3.org/XML/1998/namespace" version="1.1">
  <g>
    <g>
      <path style="fill:#FF0000;fill-opacity:1" d="M61.0546875,31.58203125L59.5751953125,32.2119140625 58.9453125,33.69140625 59.5751953125,35.1708984375 61.0546875,35.80078125 62.548828125,35.185546875 63.1640625,33.69140625 62.548828125,32.197265625 61.0546875,31.58203125z M44.208984375,27.36328125L41.337890625,27.94921875 38.994140625,29.53125 37.4267578125,31.875 36.85546875,34.74609375 37.093505859375,36.646728515625 37.8076171875,38.3642578125 40.4296875,41.044921875 41.7041015625,41.806640625 42.8173828125,42.59765625 43.6083984375,43.6376953125 43.916015625,45.146484375 43.4765625,46.845703125 38.61328125,55.283203125 37.91015625,57.919921875 38.3203125,59.9560546875 39.4482421875,61.6259765625 41.1181640625,62.75390625 43.154296875,63.1640625 45.791015625,62.4609375 47.724609375,60.52734375 58.095703125,42.36328125 58.740234375,40.72265625 58.9453125,38.96484375 58.6962890625,37.0751953125 57.9931640625,35.33203125 56.865234375,33.837890625 55.37109375,32.666015625 47.724609375,28.30078125 46.0253868103027,27.5976581573486 44.208984375,27.36328125z M56.865234375,25.283203125L55.3857421875,25.8984375 54.755859375,27.36328125 55.37109375,28.857421875 56.865234375,29.47265625 58.330078125,28.8427734375 58.9453125,27.36328125 58.330078125,25.8984375 56.865234375,25.283203125z M50.537109375,21.064453125L49.04296875,21.6796875 48.427734375,23.173828125 48.427734375,25.283203125 49.0576171875,26.748046875 50.537109375,27.36328125 52.0166015625,26.748046875 52.646484375,25.283203125 52.646484375,23.173828125 52.03125,21.6796875 50.537109375,21.064453125z M44.208984375,18.955078125L42.7294921875,19.5849609375 42.099609375,21.064453125 42.099609375,23.173828125 42.7294921875,24.6533203125 44.208984375,25.283203125 45.6884765625,24.6533203125 46.318359375,23.173828125 46.318359375,21.064453125 45.703125,19.5703125 44.208984375,18.955078125z M6.328125,18.955078125L4.833984375,19.5703125 4.21875,21.064453125 4.833984375,22.55859375 6.328125,23.173828125 7.79296875,22.5439453125 8.408203125,21.064453125 7.79296875,19.5849609375 6.328125,18.955078125z M36.85546875,16.845703125L35.6103515625,17.0947265625 34.6142578125,17.7685546875 33.9404296875,18.779296875 33.69140625,20.009765625 33.69140625,24.228515625 33.9404296875,25.4736328125 34.62890625,26.455078125 35.6396484375,27.1142578125 36.85546875,27.36328125 38.0712890625,27.1142578125 39.08203125,26.4404296875 39.7705078125,25.4443359375 40.01953125,24.228515625 40.01953125,20.009765625 39.7705078125,18.7939453125 39.08203125,17.783203125 38.0712890625,17.0947265625 36.85546875,16.845703125z M23.173828125,14.736328125L21.3427734375,14.9560546875 19.658203125,15.64453125 12.01171875,20.0390625 9.3603515625,22.67578125 8.646240234375,24.4189472198486 8.408203125,26.30859375 8.6279296875,28.095703125 9.287109375,29.736328125 19.658203125,47.900390625 21.5771484375,49.833984375 24.19921875,50.537109375 26.25,50.126953125 27.9345703125,48.9990234375 29.0625,47.3291015625 29.47265625,45.263671875 28.76953125,42.626953125 23.90625,34.21875 23.466796875,32.51953125 23.7744140625,31.0107421875 24.5654296875,29.9560546875 25.6787109375,29.150390625 26.953125,28.388671875 29.5751953125,25.7373046875 30.289306640625,24.0344257354736 30.52734375,22.119140625 29.9560546875,19.248046875 28.388671875,16.904296875 26.044921875,15.322265625 23.173828125,14.736328125z M10.517578125,12.626953125L9.0380859375,13.2568359375 8.408203125,14.736328125 9.0380859375,16.2158203125 10.517578125,16.845703125 12.01171875,16.23046875 12.626953125,14.736328125 12.01171875,13.2421875 10.517578125,12.626953125z M16.845703125,8.4375L15.3662109375,9.052734375 14.736328125,10.517578125 14.736328125,12.626953125 15.3515625,14.12109375 16.845703125,14.736328125 18.33984375,14.12109375 18.955078125,12.626953125 18.955078125,10.517578125 18.3251953125,9.052734375 16.845703125,8.4375z M23.173828125,6.328125L21.6796875,6.943359375 21.064453125,8.4375 21.064453125,10.517578125 21.6796875,12.01171875 23.173828125,12.626953125 24.638671875,11.9970703125 25.25390625,10.517578125 25.25390625,8.4375 24.638671875,6.9580078125 23.173828125,6.328125z M30.52734375,4.21874952316284L29.3115234375,4.46777296066284 28.30078125,5.15625 27.6123046875,6.1669921875 27.36328125,7.3828125 27.36328125,11.572265625 27.6123046875,12.7880859375 28.30078125,13.798828125 29.3115234375,14.4873046875 30.52734375,14.736328125 31.7578125,14.4873046875 32.7685546875,13.8134765625 33.4423828125,12.8173828125 33.69140625,11.572265625 33.69140625,7.3828125 33.4423828125,6.15234375 32.7685546875,5.1416015625 31.7578125,4.46777296066284 30.52734375,4.21874952316284z M30.52734375,0L33.3984375,0.585937261581421 35.7421875,2.16796898841858 37.32421875,4.51171875 37.91015625,7.3828125 37.939453125,8.8916015625 37.96875,10.400390625 37.939453125,11.572265625 37.79296875,12.744140625 40.2685546875,13.505859375 42.275390625,15.087890625 43.2275390625,14.8388671875 44.208984375,14.736328125 46.8896484375,15.3369140625 49.04296875,17.05078125 49.7900390625,16.904296875 50.537109375,16.845703125 52.4743614196777,17.138671875 54.1845703125,18.017578125 55.5578575134277,19.37255859375 56.484375,21.09375 59.1064453125,21.5478515625 61.2158203125,22.8369140625 62.6220703125,24.84375 63.134765625,27.451171875 63.134765625,27.744140625 64.85595703125,28.6706562042236 66.2109375,30.0439453125 67.08984375,31.754150390625 67.3828125,33.69140625 67.08984375,35.628662109375 66.2109375,37.3388671875 64.85595703125,38.712158203125 63.134765625,39.638671875 62.7392578125,42.0556640625 61.81640625,44.326171875 51.38671875,62.63671875 49.8779296875,64.62890625 47.9150390625,66.123046875 45.6298828125,67.060546875 43.154296875,67.3828125 39.462890625,66.6357421875 36.4599609375,64.599609375 34.4384765625,61.58203125 33.69140625,57.890625 34.00634765625,55.45166015625 34.951171875,53.173828125 39.462890625,45.3515625 36.5625,43.388671875 32.40234375,49.951171875 30.84228515625,51.943359375 28.974609375,53.466796875 26.77734375,54.43359375 24.228515625,54.755859375 21.7529296875,54.43359375 19.4677734375,53.49609375 17.5048828125,52.001953125 15.99609375,50.009765625 5.625,31.81640625 4.6728515625,29.4873046875 4.248046875,27.01171875 2.52685546875,26.0852069854736 1.171875,24.7119140625 0.292968392372131,23.001708984375 0,21.064453125 0.307617664337158,19.130859375 1.171875,17.4169921875 2.51953125,16.0400390625 4.248046875,15.1171875 4.7021484375,12.4658203125 5.9765625,10.3564453125 7.96875,8.96484375 10.60546875,8.466796875 10.8984375,8.466796875 11.824951171875,6.74560832977295 13.1982421875,5.390625 14.908447265625,4.51172161102295 16.845703125,4.21874952316284 18.33984375,4.39453125 20.5078125,2.70996046066284 23.173828125,2.10937476158142 25.078125,2.43164110183716 27.5390625,0.644531488418579 30.52734375,0z" />
    </g>
  </g>
</svg>