<?xml version="1.0" encoding="utf-8"?>
<!DOCTYPE svg PUBLIC "-//W3C//DTD SVG 1.1//EN" "http://www.w3.org/Graphics/SVG/1.1/DTD/svg11.dtd">
<svg width="63.1640625000016" height="67.3828125" xmlns="http://www.w3.org/2000/svg" xmlns:xlink="http://www.w3.org/1999/xlink" xmlns:xml="http://www.w3.org/XML/1998/namespace" version="1.1">
  <g>
    <g>
      <path style="fill:#FF0000;fill-opacity:1" d="M25.283203125,48.779296875L26.337890625,49.1162109375 27.7587890625,49.8486328125 29.5166015625,50.56640625 31.58203125,50.888671875 33.6328125,50.56640625 35.4052734375,49.8486328125 36.826171875,49.1162109375 37.880859375,48.779296875 39.375,49.39453125 40.01953125,50.888671875 39.55078125,52.177734375 38.3203125,53.232421875 36.62109375,54.052734375 34.74609375,54.638671875 32.9736328125,54.990234375 31.58203125,55.107421875 30.1904296875,54.990234375 28.41796875,54.638671875 26.54296875,54.052734375 24.84375,53.232421875 23.61328125,52.177734375 23.14453125,50.888671875 23.7890625,49.39453125 25.283203125,48.779296875z M35.80078125,35.80078125L35.80078125,36.85546875 36.0498046875,38.0712890625 36.73828125,39.08203125 37.7490234375,39.7705078125 38.96484375,40.01953125 47.373046875,40.01953125 48.5888671875,39.7705078125 49.599609375,39.08203125 50.2880859375,38.0712890625 50.537109375,36.85546875 50.537109375,35.80078125 35.80078125,35.80078125z M12.626953125,35.80078125L12.626953125,36.85546875 12.8759765625,38.0712890625 13.564453125,39.08203125 14.5751953125,39.7705078125 15.791015625,40.01953125 24.228515625,40.01953125 25.4443359375,39.7705078125 26.4404296875,39.08203125 27.1142578125,38.0712890625 27.36328125,36.85546875 27.36328125,35.80078125 12.626953125,35.80078125z M31.58203125,33.69140625L30.087890625,34.306640625 29.47265625,35.80078125 29.47265625,36.85546875 29.208984375,38.525390625 28.41796875,40.01953125 34.74609375,40.01953125 33.955078125,38.525390625 33.69140625,36.85546875 33.69140625,35.80078125 33.076171875,34.306640625 31.58203125,33.69140625z M20.009765625,27.36328125L21.2255859375,27.6123046875 22.236328125,28.30078125 22.9248046875,29.3115234375 23.173828125,30.52734375 23.173828125,33.69140625 27.94921875,33.69140625 29.501953125,32.16796875 31.58203125,31.58203125 33.662109375,32.16796875 35.21484375,33.69140625 40.01953125,33.69140625 40.01953125,30.52734375 40.2685546875,29.3115234375 40.9423828125,28.30078125 41.9384765625,27.6123046875 43.154296875,27.36328125 44.3701171875,27.6123046875 45.380859375,28.30078125 46.0693359375,29.3115234375 46.318359375,30.52734375 46.318359375,33.69140625 52.646484375,33.69140625 52.646484375,36.85546875 52.236328125,38.8916015625 51.1083984375,40.5615234375 49.423828125,41.689453125 47.373046875,42.099609375 38.96484375,42.099609375 37.236328125,41.8212890625 35.68359375,40.986328125 35.1123046875,42.275390625 34.1748046875,43.30078125 32.9736328125,43.974609375 31.58203125,44.208984375 30.1904296875,43.974609375 28.9892578125,43.30078125 28.0517578125,42.275390625 27.48046875,40.986328125 25.9423828125,41.806640625 24.228515625,42.099609375 15.791015625,42.099609375 13.740234375,41.689453125 12.0556640625,40.5615234375 10.927734375,38.8916015625 10.517578125,36.85546875 10.517578125,33.69140625 16.845703125,33.69140625 16.845703125,30.52734375 17.0947265625,29.3115234375 17.783203125,28.30078125 18.7939453125,27.6123046875 20.009765625,27.36328125z M20.009765625,18.955078125L43.154296875,18.955078125 43.9013671875,19.2626953125 44.208984375,20.009765625 43.9013671875,20.7568359375 43.154296875,21.064453125 20.009765625,21.064453125 19.2626953125,20.7568359375 18.955078125,20.009765625 19.2626953125,19.2626953125 20.009765625,18.955078125z M53.26171875,14.736328125L51.767578125,15.3515625 51.15234375,16.845703125 51.15234375,29.23828125 54.755859375,29.23828125 54.755859375,27.36328125 55.283203125,26.455078125 55.986328125,25.283203125 56.6015625,24.0966796875 56.865234375,23.173828125 56.865234375,16.845703125 56.2353515625,15.3662109375 54.755859375,14.736328125 53.26171875,14.736328125z M20.009765625,14.736328125L43.154296875,14.736328125 43.9013671875,15.0439453125 44.208984375,15.791015625 43.9013671875,16.5380859375 43.154296875,16.845703125 20.009765625,16.845703125 19.2626953125,16.5380859375 18.955078125,15.791015625 19.2626953125,15.0439453125 20.009765625,14.736328125z M8.408203125,14.736328125L7.5439453125,14.8828125 7.03125,15.2783203125 6.6796875,15.849609375 6.328125,16.552734375 6.328125,23.173828125 6.5771484375,24.1259765625 7.1630859375,25.2978515625 7.8515625,26.455078125 8.408203125,27.36328125 8.408203125,29.23828125 12.01171875,29.23828125 12.01171875,16.845703125 11.396484375,15.3515625 9.90234375,14.736328125 8.408203125,14.736328125z M31.58203125,4.21874952316284L26.1474609375,4.8779296875 21.0498046875,6.767578125 16.5380859375,9.7705078125 12.83203125,13.798828125 13.7841796875,15.1904296875 14.12109375,16.845703125 14.12109375,31.34765625 6.298828125,31.34765625 6.298828125,27.919921875 6.15234375,27.626953125 4.74609375,28.7841796875 4.21875,30.52734375 4.21875,36.85546875 4.4677734375,38.0712890625 5.15625,39.08203125 6.1669921875,39.7705078125 7.38281154632568,40.01953125 8.408203125,40.01953125 8.616943359375,43.154296875 9.2431640625,46.171875 11.5869140625,51.6943359375 15.205078125,56.3818359375 19.892578125,60.0146484375 25.4296875,62.34375 28.447265625,62.958984375 31.58203125,63.1640625 34.716796875,62.958984375 37.734375,62.34375 43.271484375,60.0146484375 47.958984375,56.3818359375 51.5771484375,51.6943359375 53.9208984375,46.171875 54.5471153259277,43.154296875 54.755859375,40.01953125 55.810546875,40.01953125 57.0263671875,39.7705078125 58.0224609375,39.08203125 58.6962890625,38.0712890625 58.9453125,36.85546875 58.9453125,30.52734375 58.41796875,28.798828125 57.041015625,27.626953125 56.865234375,27.919921875 56.865234375,31.34765625 49.04296875,31.34765625 49.04296875,16.845703125 49.3798828125,15.17578125 50.361328125,13.798828125 46.6259765625,9.7705078125 42.1142578125,6.767578125 37.03125,4.8779296875 31.58203125,4.21874952316284z M31.58203125,0L37.7783203125,0.717773199081421 43.564453125,2.783203125 48.75,6.07910203933716 53.14453125,10.517578125 54.755859375,10.517578125 57.216796875,11.015625 59.208984375,12.3779296875 60.556640625,14.384765625 61.0546875,16.845703125 61.0546875,23.173828125 60.76171875,25.078125 62.5341796875,27.5537109375 63.1640625,30.52734375 63.1640625,36.85546875 62.860107421875,38.9794921875 61.9482421875,40.8984375 60.531005859375,42.48779296875 58.7109375,43.623046875 58.07373046875,46.94091796875 57.041015625,50.09765625 53.935546875,55.8251953125 49.6142578125,60.6005859375 44.296875,64.2333984375 38.2177734375,66.5625 34.954833984375,67.177734375 31.58203125,67.3828125 28.209228515625,67.177734375 24.9462890625,66.5625 18.8671875,64.2333984375 13.5498046875,60.5859375 9.228515625,55.810546875 6.12304782867432,50.09765625 5.09033155441284,46.94091796875 4.453125,43.623046875 2.63671875,42.48046875 1.23046875,40.8984375 0.322266101837158,38.994140625 0,36.85546875 0,30.52734375 0.64453125,27.5390625 2.431640625,25.078125 2.2119140625,24.08203125 2.0947265625,22.9541015625 2.05078125,21.826171875 2.05078125,20.80078125 2.080078125,18.8232421875 2.109375,16.845703125 2.60742092132568,14.3994140625 3.955078125,12.3779296875 5.9619140625,11.015625 8.408203125,10.517578125 10.01953125,10.517578125 14.4140625,6.07910203933716 19.599609375,2.783203125 25.3857421875,0.717773199081421 31.58203125,0z" />
    </g>
  </g>
</svg>