<?xml version="1.0" encoding="utf-8"?>
<!DOCTYPE svg PUBLIC "-//W3C//DTD SVG 1.1//EN" "http://www.w3.org/Graphics/SVG/1.1/DTD/svg11.dtd">
<svg width="19.248046875" height="46.669921875" xmlns="http://www.w3.org/2000/svg" xmlns:xlink="http://www.w3.org/1999/xlink" xmlns:xml="http://www.w3.org/XML/1998/namespace" version="1.1">
  <g>
    <g>
      <path style="fill:#FF0000;fill-opacity:1" d="M16.23046875,21.650390625L15.439453125,24.580078125 15.556640625,25.166015625 16.611328125,24.27978515625 16.962890625,22.96875 16.23046875,21.650390625z M17.373046875,17.40234375L16.435546875,20.56640625 17.46826171875,19.8999042510986 17.8125,18.837890625 17.6953125,18.10546875 17.373046875,17.40234375z M10.927734375,1.5234375L8.84765625,1.64062452316284 6.85546922683716,1.99218797683716 4.00634813308716,11.0815439224243 1.49414110183716,19.775390625 3.10546922683716,45.087890625 4.48974609375,44.4964599609375 5.478515625,43.24951171875 6.07177734375,41.3470458984375 6.26953172683716,38.7890625 6.24023485183716,37.236328125 6.24023485183716,27.65625 7.47070264816284,25.78857421875 8.642578125,23.349609375 7.03125047683716,16.875 8.4375,16.259765625 9.4775390625,20.8520526885986 10.78125,24.66796875 10.3857421875,26.337890625 10.25390625,27.978515625 10.37841796875,29.6484375 10.751953125,30.849609375 11.37451171875,31.57470703125 12.24609375,31.81640625 13.22021484375,31.58203125 13.916015625,30.87890625 14.33349609375,29.71435546875 14.47265625,28.095703125 13.88671875,24.78515625 15.44677734375,18.9697284698486 16.845703125,12.421875 15.91552734375,9.38232421875 14.4140625,6.416015625 14.970703125,1.99218797683716 10.927734375,1.5234375z M11.220703125,0L13.92333984375,0.22705078125 16.5234375,0.908203125 15.9375,6.181640625 18.33984375,11.953125 18.12744140625,13.4985361099243 17.783203125,15.556640625 18.8818359375,17.2119140625 19.248046875,18.80859375 18.9184551239014,20.1635761260986 17.9296875,21.416015625 18.3984375,23.0859375 17.7392559051514,25.400390625 15.76171875,26.89453125 15.849609375,27.978515625 15.618896484375,30.340576171875 14.9267578125,32.0361328125 13.773193359375,33.057861328125 12.158203125,33.3984375 10.67138671875,33.065185546875 9.609375,32.0654296875 8.97216796875,30.399169921875 8.759765625,28.06640625 8.7744140625,27.3193359375 8.84765625,26.3671875 8.173828125,27.51708984375 7.67578172683716,28.271484375 7.70507860183716,37.08984375 7.6318359375,39.6148681640625 7.412109375,41.71142578125 7.0458984375,43.3795166015625 6.53320360183716,44.619140625 4.88525438308716,46.1572265625 2.28515672683716,46.669921875 1.75781297683716,46.669921875 0,19.658203125 2.28515648841858,11.6821298599243 5.21484422683716,2.63671875 5.41259813308716,2.04345703125 5.77148485183716,0.849609375 8.1884765625,0.205077648162842 11.220703125,0z" />
    </g>
  </g>
</svg>