<?xml version="1.0" encoding="utf-8"?>
<!DOCTYPE svg PUBLIC "-//W3C//DTD SVG 1.1//EN" "http://www.w3.org/Graphics/SVG/1.1/DTD/svg11.dtd">
<svg width="67.382812500001" height="63.1640625" xmlns="http://www.w3.org/2000/svg" xmlns:xlink="http://www.w3.org/1999/xlink" xmlns:xml="http://www.w3.org/XML/1998/namespace" version="1.1">
  <g>
    <g>
      <path style="fill:#FF0000;fill-opacity:1" d="M6.328125,37.91015625L6.328125,56.865234375 6.943359375,58.330078125 8.408203125,58.9453125 58.9453125,58.9453125 60.4248046875,58.330078125 61.0546875,56.865234375 61.0546875,37.91015625 40.01953125,37.91015625 40.01953125,40.01953125 27.36328125,40.01953125 27.36328125,37.91015625 6.328125,37.91015625z M6.328125,12.626953125L4.833984375,13.2421875 4.21875,14.736328125 4.21875,33.69140625 4.8486328125,35.1708984375 6.328125,35.80078125 61.0546875,35.80078125 62.5341796875,35.1708984375 63.1640625,33.69140625 63.1640625,14.736328125 62.548828125,13.2421875 61.0546875,12.626953125 6.328125,12.626953125z M25.25390625,4.21875047683716L23.7890625,4.84863328933716 23.173828125,6.328125 23.173828125,10.517578125 27.36328125,10.517578125 27.36328125,8.408203125 40.01953125,8.408203125 40.01953125,10.517578125 44.208984375,10.517578125 44.208984375,6.328125 43.59375,4.83398485183716 42.099609375,4.21875047683716 25.25390625,4.21875047683716z M25.25390625,0L42.099609375,0 44.560546875,0.498046875 46.5673828125,1.86035132408142 47.9296875,3.86718726158142 48.427734375,6.328125 48.427734375,8.408203125 61.0546875,8.408203125 63.515625,8.90625 65.5224609375,10.2685546875 66.884765625,12.275390625 67.3828125,14.736328125 67.3828125,33.69140625 66.826171875,36.26953125 65.2734375,38.408203125 65.2734375,56.865234375 64.775390625,59.3115234375 63.4130859375,61.318359375 61.3916015625,62.666015625 58.9453125,63.1640625 8.408203125,63.1640625 5.9619140625,62.666015625 3.955078125,61.318359375 2.607421875,59.3115234375 2.109375,56.865234375 2.109375,38.408203125 0.556640625,36.26953125 0,33.69140625 0,14.736328125 0.498046875,12.275390625 1.8603515625,10.2685546875 3.8671875,8.90625 6.328125,8.408203125 18.955078125,8.408203125 18.955078125,6.328125 19.453125,3.8818359375 20.80078125,1.86035132408142 22.8076171875,0.498046875 25.25390625,0z" />
    </g>
  </g>
</svg>