<?xml version="1.0" encoding="utf-8"?>
<!DOCTYPE svg PUBLIC "-//W3C//DTD SVG 1.1//EN" "http://www.w3.org/Graphics/SVG/1.1/DTD/svg11.dtd">
<svg width="67.3828125000011" height="67.3828125" xmlns="http://www.w3.org/2000/svg" xmlns:xlink="http://www.w3.org/1999/xlink" xmlns:xml="http://www.w3.org/XML/1998/namespace" version="1.1">
  <g>
    <g>
      <path style="fill:#FF0000;fill-opacity:1" d="M29.619140625,39.873046875L25.13671875,44.35546875 25.25390625,44.47265625 25.25390625,52.646484375 25.8837890625,54.1259765625 27.36328125,54.755859375 34.74609375,54.755859375 35.4931640625,54.4482421875 35.80078125,53.701171875 35.2734375,52.822265625 34.04296875,51.8994140625 32.63671875,51.0791015625 31.58203125,50.537109375 31.58203125,43.154296875 31.40625,42.1435546875 30.9521484375,41.30859375 30.322265625,40.576171875 29.619140625,39.873046875z M33.69140625,29.47265625L33.69140625,44.208984375 34.306640625,45.703125 35.80078125,46.318359375 43.154296875,46.318359375 43.9013671875,46.0107421875 44.208984375,45.263671875 43.6669921875,44.443359375 42.421875,43.5205078125 41.015625,42.685546875 40.01953125,42.12890625 40.01953125,32.63671875 39.7705078125,31.4208984375 39.08203125,30.41015625 38.0712890625,29.7216796875 36.85546875,29.47265625 33.69140625,29.47265625z M16.845703125,18.955078125L15.3515625,19.5703125 4.833984375,30.087890625 4.21875,31.58203125 4.833984375,33.0615234375 6.298828125,33.69140625 7.79296875,33.076171875 16.845703125,24.0234375 16.845703125,34.74609375 27.36328125,29.47265625 27.36328125,25.283203125 27.978515625,23.7890625 29.47265625,23.173828125 40.01953125,23.173828125 41.484375,22.5439453125 42.099609375,21.064453125 41.484375,19.5849609375 40.01953125,18.955078125 16.845703125,18.955078125z M48.486328125,12.626953125L47.7978515625,12.7880859375 47.080078125,13.1982421875 46.40625,13.7255859375 45.87890625,14.208984375 47.7685546875,17.3876953125 48.427734375,21.03515625 48.1860313415527,23.309326171875 47.4609375,25.3857421875 46.2963829040527,27.2644062042236 44.736328125,28.9453125 47.607421875,27.509765625 50.537109375,26.162109375 50.537109375,31.58203125 55.95703125,31.58203125 52.67578125,38.2763671875 48.75,44.6337890625 44.1064453125,50.4638671875 38.671875,55.576171875 45.52734375,52.8369140625 51.474609375,48.7353515625 56.3671875,43.4912109375 60.0439453125,37.3388671875 62.3583984375,30.498046875 62.962646484375,26.8798847198486 63.1640625,23.173828125 62.9296875,20.306396484375 62.2265625,17.5634765625 61.06201171875,14.989013671875 59.443359375,12.626953125 48.486328125,12.626953125z M16.962890625,8.4375L16.845703125,9.462890625 16.845703125,11.572265625 17.255859375,13.6376962661743 18.3837890625,15.3076171875 20.0537109375,16.435546875 22.119140625,16.845703125 23.8916015625,16.5234375 25.4443359375,15.64453125 26.6162109375,14.3115234375 27.275390625,12.626953125 26.953125,12.333984375 27.275390625,11.572265625 26.953125,10.83984375 26.220703125,10.517578125 25.458984375,10.83984375 23.056640625,8.4375 16.962890625,8.4375z M46.2890625,6.328125L44.35546875,6.4306640625 42.4072265625,6.8115234375 40.60546875,7.55859375 39.111328125,8.759765625 38.26171875,10.0634765625 37.91015625,11.572265625 38.1591796875,12.8173828125 38.8330078125,13.8134765625 39.8291015625,14.4873046875 41.07421875,14.736328125 42.6123046875,14.2529296875 44.091796875,13.1103515625 45.556640625,11.806640625 47.080078125,10.83984375 47.724609375,10.60546875 48.427734375,10.517578125 57.451171875,10.517578125 54.9792442321777,8.73046875 52.2509765625,7.412109375 49.3322715759277,6.59912395477295 46.2890625,6.328125z M22.119140625,0L25.7958984375,0.7470703125 28.798828125,2.783203125 30.8349609375,5.7861328125 31.58203125,9.462890625 31.58203125,10.83984375 31.46484375,12.8173828125 30.99609375,14.736328125 34.39453125,14.736328125 33.8818359375,13.18359375 33.69140625,11.572265625 33.955078125,9.6533203125 34.658203125,7.85156297683716 36.7822265625,5.08300828933716 39.5947265625,3.32519578933716 42.8466796875,2.3876953125 46.318359375,2.10937476158142 49.1674766540527,2.29980754852295 51.9140625,2.87109351158142 56.9384765625,4.9951171875 61.201171875,8.291015625 64.4970703125,12.5537109375 66.62109375,17.578125 67.1923828125,20.32470703125 67.3828125,23.173828125 67.1630859375,27.2570819854736 66.50390625,31.2451171875 65.430908203125,35.101318359375 63.9697265625,38.7890625 59.9560546875,45.6005859375 54.6240234375,51.4599609375 48.1494140625,56.1181640625 44.5422325134277,57.930908203125 40.72265625,59.35546875 36.4306640625,62.255859375 31.435546875,64.833984375 26.162109375,66.6796875 21.064453125,67.3828125 20.009765625,67.3828125 17.9443359375,66.97265625 16.2744140625,65.8447265625 15.146484375,64.1748046875 14.736328125,62.109375 15.146484375,57.65625 16.2744140625,53.3349609375 17.9736328125,49.189453125 20.09765625,45.263671875 17.4169921875,42.65625 14.794921875,39.9609375 13.1103515625,37.294921875 12.626953125,34.189453125 12.421875,34.423828125 11.103515625,35.7568359375 9.7412109375,36.8701171875 8.1884765625,37.6318359375 6.298828125,37.91015625 3.837890625,37.412109375 1.845703125,36.0498046875 0.498046875,34.04296875 0,31.58203125 0.4833984375,29.1650390625 1.845703125,27.12890625 12.36328125,16.58203125 12.94921875,16.0986328125 13.59375,15.673828125 13.0517578125,14.2822265625 12.7587890625,13.0078125 12.6416015625,11.7626953125 12.626953125,10.4296875 12.626953125,9.462890625 13.3740234375,5.7861328125 15.41015625,2.783203125 18.427734375,0.7470703125 22.119140625,0z" />
    </g>
  </g>
</svg>