<?xml version="1.0" encoding="utf-8"?>
<!DOCTYPE svg PUBLIC "-//W3C//DTD SVG 1.1//EN" "http://www.w3.org/Graphics/SVG/1.1/DTD/svg11.dtd">
<svg width="67.1777343750022" height="52.5" xmlns="http://www.w3.org/2000/svg" xmlns:xlink="http://www.w3.org/1999/xlink" xmlns:xml="http://www.w3.org/XML/1998/namespace" version="1.1">
  <g>
    <g>
      <path style="fill:#FF0000;fill-opacity:1" d="M31.376953125,21.181640625L27.5445556640625,21.4251708984375 23.84033203125,22.15576171875 20.2642822265625,23.3734130859375 16.81640625,25.078125 12.568359375,27.48046875 54.462890625,27.48046875 50.244140625,25.078125 46.7504844665527,23.382568359375 43.18359375,22.1630859375 39.48486328125,21.427001953125 35.595703125,21.181640625 31.376953125,21.181640625z M31.376953125,19.04296875L35.595703125,19.04296875 42.158203125,19.7314453125 47.7978515625,21.5771484375 53.1298828125,24.2578125 58.76953125,27.48046875 53.1298828125,30.703125 47.7978515625,33.3837890625 42.158203125,35.21484375 35.595703125,35.888671875 31.376953125,35.888671875 24.8291015625,35.21484375 19.2041015625,33.3837890625 13.88671875,30.703125 8.26171875,27.48046875 13.88671875,24.2724609375 19.2041015625,21.5771484375 24.8291015625,19.7314453125 31.376953125,19.04296875z M25.1953125,4.21875L22.5,4.8193359375 20.33203125,6.533203125 4.833984375,25.810546875 4.39453125,26.484375 4.21875,27.3046875 4.51171875,28.359375 14.033203125,44.619140625 15.322265625,46.171875 17.05078125,47.314453125 19.013671875,48.0322265625 21.005859375,48.28125 46.171875,48.28125 48.1640625,48.0322265625 50.126953125,47.314453125 51.85546875,46.171875 53.14453125,44.619140625 62.666015625,28.359375 62.98828125,27.3046875 62.8271484375,26.484375 62.34375,25.810546875 46.845703125,6.533203125 45.3955078125,5.185546875 43.8134765625,4.4970703125 42.0703125,4.248046875 40.166015625,4.21875 39.873046875,4.21875 33.57421875,10.48828125 27.3046875,4.21875 25.1953125,4.21875z M27.0703125,0L29.033203125,0 33.57421875,4.5703125 38.14453125,0 41.982421875,0 44.2895469665527,0.252685546875 46.46484375,1.0107421875 48.4204063415527,2.230224609375 50.068359375,3.8671875 65.5078125,22.998046875 66.7529296875,24.990234375 67.177734375,27.3046875 66.95068359375,28.974609375 66.26953125,30.52734375 56.689453125,46.875 56.630859375,46.9482421875 56.572265625,46.9921875 55.9423828125,47.8125 55.25390625,48.6328125 53.3239707946777,50.2880859375 51.1083984375,51.50390625 48.6950645446777,52.2509765625 46.171875,52.5 21.005859375,52.5 17.9296875,52.1044921875 14.970703125,50.9619140625 12.392578125,49.16015625 10.4296875,46.7578125 0.908203125,30.46875 0.234375476837158,28.9453125 0,27.3046875 0.4541015625,25.01953125 1.669921875,23.02734375 17.080078125,3.896484375 19.306640625,1.7724609375 21.6796875,0.6005859375 24.2431640625,0.1025390625 27.0703125,0z" />
    </g>
  </g>
</svg>