<?xml version="1.0" encoding="utf-8"?>
<!DOCTYPE svg PUBLIC "-//W3C//DTD SVG 1.1//EN" "http://www.w3.org/Graphics/SVG/1.1/DTD/svg11.dtd">
<svg width="67.3828125" height="48.427734375" xmlns="http://www.w3.org/2000/svg" xmlns:xlink="http://www.w3.org/1999/xlink" xmlns:xml="http://www.w3.org/XML/1998/namespace" version="1.1">
  <g>
    <g>
      <path style="fill:#FF0000;fill-opacity:1" d="M40.01953125,39.990234375L40.01953125,42.099609375 63.1640625,42.099609375 63.1640625,39.990234375 40.01953125,39.990234375z M29.47265625,39.990234375L29.47265625,44.208984375 37.91015625,44.208984375 37.91015625,39.990234375 29.47265625,39.990234375z M4.21875,39.990234375L4.21875,42.099609375 27.36328125,42.099609375 27.36328125,39.990234375 4.21875,39.990234375z M6.328125,31.58203125L14.736328125,31.58203125 14.736328125,35.771484375 6.328125,35.771484375 6.328125,31.58203125z M44.208984375,10.517578125L44.208984375,16.34765625 42.6416015625,18.45703125 42.099609375,21.03515625 42.7734375,23.8916015625 44.677734375,26.1328125 42.7587890625,27.4658203125 41.279296875,29.2529296875 40.341796875,31.376953125 40.01953125,33.69140625 56.865234375,33.69140625 56.54296875,31.3623046875 55.60546875,29.23828125 54.1259765625,27.451171875 52.177734375,26.1328125 54.08203125,23.8916015625 54.755859375,21.03515625 54.2138671875,18.45703125 52.646484375,16.34765625 52.646484375,10.517578125 50.537109375,12.626953125 48.427734375,10.517578125 46.318359375,12.626953125 44.208984375,10.517578125z M56.865234375,8.408203125L56.865234375,27.36328125 58.9453125,27.36328125 58.9453125,8.408203125 56.865234375,8.408203125z M12.626953125,6.29882860183716L14.267578125,6.63574171066284 15.6005859375,7.54394483566284 16.5087890625,8.876953125 16.845703125,10.517578125 14.736328125,10.517578125 14.12109375,9.0234375 12.626953125,8.408203125 11.1474609375,9.0380859375 10.517578125,10.517578125 10.517578125,12.626953125 14.736328125,12.626953125 14.736328125,14.736328125 10.517578125,14.736328125 10.5322265625,15.439453125 10.546875,16.142578125 10.4296875,17.578125 9.9609375,18.92578125 14.736328125,18.92578125 16.2158203125,18.310546875 16.845703125,16.845703125 18.955078125,16.845703125 18.6181640625,18.486328125 17.7099609375,19.8193359375 16.376953125,20.712890625 14.736328125,21.03515625 6.328125,21.03515625 6.328125,18.92578125 7.79296875,18.310546875 8.408203125,16.845703125 8.408203125,14.736328125 6.328125,14.736328125 6.328125,12.626953125 8.408203125,12.626953125 8.408203125,10.517578125 8.7451171875,8.876953125 9.6533203125,7.54394483566284 10.986328125,6.63574171066284 12.626953125,6.29882860183716z M40.01953125,4.18945264816284L40.01953125,6.29882860183716 61.0546875,6.29882860183716 61.0546875,35.771484375 40.01953125,35.771484375 40.01953125,37.880859375 63.1640625,37.880859375 63.1640625,4.18945264816284 40.01953125,4.18945264816284z M29.47265625,4.18945264816284L29.47265625,37.880859375 37.91015625,37.880859375 37.91015625,4.18945264816284 29.47265625,4.18945264816284z M4.21875,4.18945264816284L4.21875,37.880859375 27.36328125,37.880859375 27.36328125,35.771484375 21.064453125,35.771484375 21.064453125,33.69140625 25.25390625,33.69140625 25.25390625,12.626953125 21.064453125,12.626953125 21.064453125,8.408203125 25.25390625,8.408203125 25.25390625,6.29882860183716 27.36328125,6.29882860183716 27.36328125,4.18945264816284 4.21875,4.18945264816284z M0,0L67.3828125,0 67.3828125,48.427734375 0,48.427734375 0,0z" />
    </g>
  </g>
</svg>