<?xml version="1.0" encoding="utf-8"?>
<!DOCTYPE svg PUBLIC "-//W3C//DTD SVG 1.1//EN" "http://www.w3.org/Graphics/SVG/1.1/DTD/svg11.dtd">
<svg width="48.4277343750004" height="65.2734375" xmlns="http://www.w3.org/2000/svg" xmlns:xlink="http://www.w3.org/1999/xlink" xmlns:xml="http://www.w3.org/XML/1998/namespace" version="1.1">
  <g>
    <g>
      <path style="fill:#FF0000;fill-opacity:1" d="M16.728515625,44.208984375L21.064453125,44.208984375 21.064453125,46.318359375 20.712890625,48.134765625 19.775390625,49.716796875 22.4267578125,52.32421875 25.078125,54.931640625 29.47265625,50.537109375 29.47265625,56.865234375 27.36328125,56.865234375 26.572265625,56.7919921875 25.693359375,56.572265625 24.873046875,56.2353515625 24.228515625,55.78125 21.064453125,52.646484375 19.6435546875,51.3134765625 18.28125,49.86328125 17.255859375,48.2373046875 16.845703125,46.318359375 16.8603515625,45.8203125 16.875,45.322265625 16.845703125,44.7509765625 16.728515625,44.208984375z M26.30859375,40.01953125L24.90234375,40.1513671875 23.466796875,40.546875 22.1337890625,41.2060546875 21.064453125,42.12890625 16.435546875,43.271484375 14.970703125,41.25 15.4833984375,43.7255859375 15.791015625,46.23046875 15.380859375,48.310546875 14.267578125,50.009765625 12.59765625,51.1669921875 10.517578125,51.591796875 9.3017578125,51.3427734375 8.3056640625,50.654296875 7.6318359375,49.6435546875 7.3828125,48.427734375 7.3828125,42.12890625 6.6064453125,43.6083984375 6.328125,45.263671875 6.328125,50.537109375 6.6357421875,52.294921875 7.412109375,53.6279296875 8.4228515625,54.755859375 9.43359375,55.8837890625 10.2099609375,57.2314453125 10.517578125,58.974609375 10.517578125,61.0546875 40.01953125,61.0546875 37.294921875,58.623046875 33.984375,57.158203125 33.8671875,57.041015625 33.75,56.923828125 32.197265625,55.0341796875 31.58203125,52.646484375 31.58203125,44.208984375 40.01953125,44.208984375 31.58203125,42.12890625 29.1650390625,40.546875 26.30859375,40.01953125z M26.30859375,27.36328125L25.7666015625,31.640625 25.25390625,35.91796875 23.7890625,36.4453125 18.955078125,31.58203125 22.119140625,37.91015625 21.62109375,38.6865234375 21.26953125,39.55078125 14.736328125,37.91015625 21.064453125,41.07421875 21.064453125,40.01953125 21.26953125,39.78515625 21.533203125,39.609375 22.6904296875,38.876953125 23.7890625,38.3349609375 24.9609375,38.0126953125 26.3671875,37.91015625 27.71484375,38.02734375 28.88671875,38.3642578125 29.970703125,38.90625 31.11328125,39.609375 31.376953125,39.78515625 31.58203125,40.01953125 31.58203125,41.07421875 37.91015625,37.91015625 31.34765625,39.55078125 31.0107421875,38.6865234375 30.52734375,37.91015625 33.69140625,31.58203125 28.828125,36.4453125 27.392578125,35.91796875 27.2021484375,34.8046875 27.099609375,33.69140625 26.30859375,27.36328125z M5.2734375,14.736328125L4.5263671875,15.0439453125 4.21875,15.791015625 4.62890625,16.6845703125 5.537109375,16.845703125 6.123046875,16.845703125 5.4931640625,17.2119140625 5.2734375,17.900390625 5.4931640625,18.6181640625 6.123046875,18.955078125 5.4931640625,19.3212890625 5.2734375,20.009765625 5.5810546875,20.7568359375 6.328125,21.064453125 7.3828125,21.064453125 8.1005859375,20.7421875 8.408203125,20.009765625 8.1591796875,19.3505859375 7.529296875,18.955078125 8.173828125,18.5888671875 8.408203125,17.900390625 8.1591796875,17.2412109375 7.529296875,16.845703125 8.1298828125,16.5380859375 8.408203125,15.908203125 8.701171875,16.5234375 9.3017578125,17.2265625 9.9755859375,17.87109375 10.517578125,18.33984375 10.517578125,23.173828125 8.408203125,27.36328125 6.85546875,24.228515625 7.880859375,30.52734375 8.1884765625,32.0947265625 8.408203125,33.69140625 8.4375,34.1015625 8.4375,34.51171875 8.4228515625,35.33203125 8.408203125,36.15234375 8.408203125,48.427734375 9.0380859375,49.9072265625 10.517578125,50.537109375 12.01171875,50.321044921875 13.154296875,49.6728515625 14.619140625,47.314453125 14.7216796875,46.9482421875 14.765625,46.5234375 14.7509765625,46.4208984375 14.736328125,46.318359375 10.869140625,23.14453125 11.806640625,22.7490234375 12.3486328125,22.0166015625 12.59765625,21.0791015625 12.65625,20.068359375 12.6123046875,18.2958984375 12.36328125,17.2998046875 11.7333984375,16.5234375 10.517578125,15.3515625 10.01953125,14.912109375 9.462890625,14.736328125 8.7451171875,14.9853515625 8.408203125,15.64453125 8.0419921875,15 7.3828125,14.736328125 5.2734375,14.736328125z M8.408203125,4.21875L8.0859375,5.859375 7.1923828125,7.1923828125 5.859375,8.1005859375 4.21875,8.4375 4.423828125,9.755859375 5.0390625,10.95703125 4.423828125,11.689453125 4.21875,12.626953125 4.21875,14.5605459213257 4.8779296875,13.1689453125 6.328125,12.626953125 10.517578125,12.626953125 11.9677734375,13.1689453125 12.626953125,14.5605459213257 12.626953125,12.626953125 12.421875,11.689453125 11.77734375,10.95703125 12.41455078125,9.7705078125 12.626953125,8.4375 12.2900390625,6.79687547683716 11.3818359375,5.4638671875 10.048828125,4.5556640625 8.408203125,4.21875z M4.21875,0L8.408203125,0 11.7041015625,0.659179449081421 14.384765625,2.46093773841858 16.1865234375,5.14160108566284 16.845703125,8.4375 16.845703125,21.064453125 16.4941387176514,23.14453125 15.439453125,24.990234375 15.5859375,25.810546875 17.314453125,25.400390625 18.7646484375,25.72265625 19.9951171875,26.5283203125 21.0791015625,27.5830078125 22.08984375,28.681640625 22.4267578125,26.66015625 23.02734375,24.8876953125 24.19921875,23.6279296875 26.25,23.14453125 28.330078125,23.6279296875 29.5166015625,24.90234375 30.1171875,26.7041015625 30.439453125,28.740234375 31.46484375,27.626953125 32.578125,26.54296875 33.837890625,25.72265625 35.302734375,25.400390625 36.796875,25.7080078125 38.056640625,26.54296875 38.935546875,27.7734375 39.2578125,29.267578125 38.671875,31.46484375 37.55859375,33.45703125 38.9208984375,33.076171875 40.341796875,32.87109375 41.865234375,33.2080078125 43.095703125,34.1015625 43.916015625,35.390625 44.208984375,36.9140625 44.033203125,38.02734375 43.5498046875,39.0673828125 42.802734375,39.9169921875 41.8359375,40.458984375 43.5498046875,41.9677734375 44.150390625,44.1796875 43.8427734375,45.8642578125 42.978515625,47.2119140625 41.6455078125,48.10546875 39.9609375,48.427734375 35.80078125,48.427734375 35.80078125,52.646484375 36.15234375,53.408203125 38.14453125,54.228515625 40.0634765625,55.37109375 41.806640625,56.7919921875 43.2421875,58.388671875 48.427734375,65.2734375 6.328125,65.2734375 6.328125,58.974609375 6.15234375,58.447265625 5.7421875,58.0078125 3.0908203125,54.66796875 2.354736328125,52.75634765625 2.109375,50.537109375 2.109375,45.263671875 2.6513671875,42.1142578125 4.21875,39.345703125 4.2333984375,37.5146484375 4.248046875,35.68359375 4.1748046875,34.5556640625 3.9697265625,32.6953125 3.6767578125,30.4833984375 3.3544921875,28.30078125 3.0322265625,26.5283203125 2.783203125,25.546875 2.4609375,24.8583984375 2.109375,24.169921875 2.109375,23.173828125 1.318359375,21.6796875 1.0546875,20.009765625 1.142578125,19.072265625 0.285644173622131,17.51953125 0,15.791015625 0,4.21875 4.21875,4.21875 4.21875,0z" />
    </g>
  </g>
</svg>