<?xml version="1.0" encoding="utf-8"?>
<!DOCTYPE svg PUBLIC "-//W3C//DTD SVG 1.1//EN" "http://www.w3.org/Graphics/SVG/1.1/DTD/svg11.dtd">
<svg width="67.3828125000012" height="60.703125" xmlns="http://www.w3.org/2000/svg" xmlns:xlink="http://www.w3.org/1999/xlink" xmlns:xml="http://www.w3.org/XML/1998/namespace" version="1.1">
  <g>
    <g>
      <path style="fill:#FF0000;fill-opacity:1" d="M35.625,31.58203125L34.453125,33.10546875 32.63671875,33.69140625 31.5234375,33.5888671875 30.0439453125,33.3251953125 28.5498046875,33.017578125 27.36328125,32.783203125 27.36328125,41.30859375 25.25390625,40.2685546875 23.173828125,39.19921875 19.8046875,40.869140625 33.69140625,54.755859375 56.865234375,31.58203125 35.625,31.58203125z M21.064453125,29.501953125L21.064453125,37.91015625 23.173828125,36.85546875 25.25390625,37.91015625 25.25390625,30.263671875 21.064453125,29.501953125z M16.845703125,29.501953125L12.626953125,30.263671875 12.626953125,37.91015625 14.736328125,36.85546875 16.845703125,37.91015625 16.845703125,29.501953125z M35.80078125,23.14453125L35.80078125,29.47265625 58.9453125,29.47265625 61.1865234375,26.54296875 62.607421875,23.14453125 35.80078125,23.14453125z M32.63671875,21.03515625L32.548828125,21.0498046875 32.4609375,21.064453125 21.064453125,23.14453125 21.064453125,27.36328125 25.0634765625,28.037109375 29.033203125,28.798828125 30.9375,29.12109375 32.8125,29.501953125 33.69140625,30.380859375 33.69140625,22.08984375 33.369140625,21.357421875 32.63671875,21.03515625z M5.2734375,21.03515625L4.541015625,21.357421875 4.21875,22.08984375 4.21875,30.41015625 4.775390625,29.58984375 4.86328125,29.619140625 4.96581935882568,29.560546875 5.068359375,29.501953125 6.97265625,29.1064453125 8.876953125,28.76953125 12.8466796875,28.037109375 16.845703125,27.36328125 16.845703125,23.14453125 11.1474609375,22.1044921875 5.44921875,21.064453125 5.361328125,21.0498046875 5.2734375,21.03515625z M19.1015625,4.21875047683716L16.116943359375,4.51171922683716 13.3154296875,5.39062595367432 10.777587890625,6.77856492996216 8.583984375,8.5986328125 6.77490139007568,10.80322265625 5.390625,13.3447265625 4.51171875,16.146240234375 4.21875,19.130859375 5.2734375,18.955078125 5.5517578125,18.9697265625 5.830078125,19.013671875 13.359375,20.390625 15.234375,20.8154296875 17.138671875,21.064453125 18.3837890625,21.09375 19.62890625,21.123046875 22.08984375,20.8740234375 24.55078125,20.390625 32.080078125,19.013671875 32.3583984375,18.9697265625 32.63671875,18.955078125 34.453125,19.541015625 35.625,21.064453125 63.046875,21.064453125 63.134765625,20.0830078125 63.1640625,19.1015625 62.87109375,16.116943359375 61.9921875,13.3154306411743 60.60791015625,10.777587890625 58.798828125,8.583984375 56.605224609375,6.77490282058716 54.0673828125,5.39062595367432 51.2658653259277,4.51171922683716 48.28125,4.21875047683716 44.0771484375,4.775390625 40.7080078125,6.298828125 37.8076171875,8.5546875 34.98046875,11.337890625 33.69140625,12.626953125 32.40234375,11.337890625 29.5751953125,8.5546875 26.6748046875,6.298828125 23.3056640625,4.775390625 19.1015625,4.21875047683716z M19.1015625,0L23.3642578125,0.454102218151093 27.1142578125,1.7578125 30.5126953125,3.85253953933716 33.69140625,6.6796875 36.85546875,3.85253953933716 40.25390625,1.7578125 44.0185546875,0.454102218151093 48.28125,0 53.3203125,0.673828423023224 57.8759765625,2.59277415275574 61.7431640625,5.56640672683716 64.74609375,9.404296875 66.6943359375,13.9453134536743 67.3828125,18.984375 67.0166015625,22.7856464385986 65.91796875,26.455078125 64.16015625,29.7509765625 61.787109375,32.607421875 33.69140625,60.703125 14.619140625,41.630859375 13.1689453125,42.216796875 11.5283203125,43.037109375 9.8876953125,43.9306640625 8.4375,44.70703125 8.4375,35.419921875 8.3203125,35.33203125 6.796875,35.654296875 5.2734375,35.80078125 3.2958984375,35.4052734375 1.611328125,34.3212890625 0.439453601837158,32.7099609375 0,30.732421875 0,19.1015625 0.688477516174316,14.0185546875 2.607421875,9.462890625 5.59570217132568,5.59570360183716 9.462890625,2.60742259025574 14.0185546875,0.688476979732513 19.1015625,0z" />
    </g>
  </g>
</svg>