<?xml version="1.0" encoding="utf-8"?>
<!DOCTYPE svg PUBLIC "-//W3C//DTD SVG 1.1//EN" "http://www.w3.org/Graphics/SVG/1.1/DTD/svg11.dtd">
<svg width="50.537109375001" height="67.3828125" xmlns="http://www.w3.org/2000/svg" xmlns:xlink="http://www.w3.org/1999/xlink" xmlns:xml="http://www.w3.org/XML/1998/namespace" version="1.1">
  <g>
    <g>
      <path style="fill:#FF0000;fill-opacity:1" d="M13.681640625,37.91015625L15.732421875,38.3203125 17.4169921875,39.4482421875 18.544921875,41.1181640625 18.955078125,43.154296875 18.544921875,45.2197265625 17.4169921875,46.8896484375 15.732421875,48.017578125 13.681640625,48.427734375 11.6455078125,48.017578125 9.9755859375,46.8896484375 8.84765625,45.205078125 8.4375,43.154296875 8.84765625,41.1181640625 9.9755859375,39.4482421875 11.6455078125,38.3203125 13.681640625,37.91015625z M24.228515625,25.283203125L26.2646484375,25.693359375 27.9345703125,26.8212890625 29.0625,28.4912109375 29.47265625,30.52734375 29.0771484375,32.5048828125 27.9931640625,34.189453125 26.3818359375,35.361328125 24.404296875,35.80078125 22.294921875,35.4052734375 20.5517578125,34.306640625 19.3798828125,32.63671875 18.955078125,30.52734375 19.365234375,28.4912109375 20.4931640625,26.8212890625 22.177734375,25.693359375 24.228515625,25.283203125z M13.681640625,12.626953125L15.732421875,13.037109375 17.4169921875,14.1650390625 18.544921875,15.849609375 18.955078125,17.900390625 18.544921875,19.9658203125 17.4169921875,21.6357421875 15.732421875,22.763671875 13.681640625,23.173828125 11.6455078125,22.763671875 9.9755859375,21.6357421875 8.84765625,19.951171875 8.4375,17.900390625 8.84765625,15.849609375 9.9755859375,14.1650390625 11.6455078125,13.037109375 13.681640625,12.626953125z M6.328125,10.517578125L6.328125,62.109375 6.6357421875,62.8564453125 7.3828125,63.1640625 8.2763671875,62.6953125 8.4375,61.669921875 8.4375,61.0546875 35.80078125,33.69140625 35.80078125,41.07421875 36.123046875,41.806640625 36.85546875,42.12890625 37.587890625,41.806640625 37.91015625,41.07421875 37.91015625,34.74609375 38.2177734375,33.9990234375 38.96484375,33.69140625 39.8583984375,34.2041015625 40.048828125,35.33203125 40.0341796875,35.8447265625 40.01953125,36.298828125 40.048828125,36.8701171875 40.1806640625,37.3828125 40.5029296875,37.763671875 41.07421875,37.91015625 41.8212890625,37.6025390625 42.12890625,36.85546875 42.1142578125,33.2080078125 42.099609375,29.560546875 42.099609375,29.2529296875 42.158203125,28.9453125 40.927734375,27.9345703125 39.4775390625,26.3818359375 38.0126953125,24.7265625 36.767578125,23.408203125 30,18.0322265625 22.7783203125,13.974609375 18.9331035614014,12.498779296875 14.9267578125,11.4111328125 10.733642578125,10.740966796875 6.328125,10.517578125z M6.328125,4.21874952316284L4.833984375,4.83398485183716 4.21875,6.328125 4.4677734375,7.36816358566284 5.21484470367432,8.115234375 9.873046875,8.419189453125 14.4140625,9.1552734375 18.8159160614014,10.308837890625 23.056640625,11.865234375 27.12890625,13.817138671875 31.025390625,16.1572265625 38.26171875,21.943359375 40.458984375,24.2724609375 42.59765625,26.6015625 43.330078125,27.1728515625 44.23828125,27.36328125 45.7177734375,26.748046875 46.318359375,25.25390625 45.908203125,24.052734375 44.94140625,22.705078125 43.7841796875,21.4306640625 42.83203125,20.44921875 40.576171875,18.22265625 38.173828125,16.171875 30.9228515625,11.1474609375 23.2763671875,7.3974609375 15.1171875,5.0390625 10.810546875,4.42383098602295 6.328125,4.21874952316284z M6.328125,0L12.451171875,0.377200126647949 18.515625,1.5087890625 24.42626953125,3.33618450164795 30.087890625,5.80078125 35.452880859375,8.865966796875 40.4736328125,12.4951171875 45.0549278259277,16.636962890625 49.1015625,21.240234375 50.15625,23.1005859375 50.537109375,25.224609375 50.2551231384277,27.1691913604736 49.4091796875,28.9013671875 48.0798301696777,30.2966327667236 46.34765625,31.23046875 46.34765625,36.85546875 46.025390625,38.6572265625 45.1171875,40.2099609375 43.740234375,41.3818359375 42.041015625,42.041015625 41.3818359375,43.7548828125 40.2099609375,45.1025390625 38.6572265625,45.99609375 36.85546875,46.318359375 35.394287109375,46.116943359375 34.0576171875,45.5126953125 32.109375,43.330078125 12.59765625,62.87109375 11.982421875,64.658203125 10.8251953125,66.09375 9.2431640625,67.0458984375 7.3828125,67.3828125 5.3173828125,66.97265625 3.6474609375,65.8447265625 2.51953125,64.1748046875 2.109375,62.109375 2.109375,11.015625 0.556640625,8.8916015625 0,6.328125 0.498046875,3.86718726158142 1.8603515625,1.86035132408142 3.8671875,0.498046875 6.328125,0z" />
    </g>
  </g>
</svg>