<?xml version="1.0" encoding="utf-8"?>
<!DOCTYPE svg PUBLIC "-//W3C//DTD SVG 1.1//EN" "http://www.w3.org/Graphics/SVG/1.1/DTD/svg11.dtd">
<svg width="40.0195312500009" height="67.3828125" xmlns="http://www.w3.org/2000/svg" xmlns:xlink="http://www.w3.org/1999/xlink" xmlns:xml="http://www.w3.org/XML/1998/namespace" version="1.1">
  <g>
    <g>
      <path style="fill:#FF0000;fill-opacity:1" d="M20.009765625,54.697265625L18.515625,56.103515625 16.845703125,57.333984375 16.845703125,60 17.0947265625,61.2451171875 17.7685546875,62.2412109375 18.7646484375,62.9150390625 20.009765625,63.1640625 21.2255859375,62.9150390625 22.236328125,62.2265625 22.9248046875,61.2158203125 23.173828125,60 23.173828125,57.333984375 21.5185546875,56.103515625 20.009765625,54.697265625z M7.3828125,42.12890625L11.1474609375,45.7177734375 13.428955078125,46.995849609375 15.908203125,47.87109375 8.701171875,55.107421875 8.408203125,55.810546875 8.5693359375,56.3818359375 8.96484375,56.7041015625 9.5068359375,56.8359375 10.078125,56.865234375 13.1689453125,56.4697265625 15.9375,55.3125 18.2666015625,53.4228515625 20.009765625,50.830078125 21.767578125,53.466796875 24.140625,55.3564453125 26.982421875,56.484375 30.146484375,56.865234375 31.142578125,56.6748046875 31.58203125,55.810546875 31.5087890625,55.4443359375 31.318359375,55.107421875 24.08203125,47.87109375 26.561279296875,46.995849609375 28.8427734375,45.7177734375 32.607421875,42.12890625 7.3828125,42.12890625z M4.21875,12.626953125L4.21875,32.63671875 4.6875,36.4306640625 6.03515625,40.01953125 33.955078125,40.01953125 35.33203125,36.4453125 35.80078125,32.63671875 35.80078125,12.626953125 27.36328125,12.626953125 27.36328125,33.69140625 26.748046875,35.185546875 25.25390625,35.80078125 25.25390625,33.69140625 25.0634765625,30.867919921875 24.4921875,28.1396484375 22.353515625,23.115234375 19.0576171875,18.837890625 14.794921875,15.5273427963257 9.7705078125,13.3886709213257 7.04223537445068,12.8173828125 4.21875,12.626953125z M21.064453125,4.21874952316284L21.064453125,8.4375 18.5888671875,8.61328125 16.318359375,9.2138671875 14.2822265625,10.3564453125 12.5390625,12.1289072036743 16.5490703582764,14.14306640625 20.0830078125,16.845703125 23.0236797332764,20.17822265625 25.25390625,24.08203125 25.25390625,10.517578125 30.673828125,10.517578125 29.0625,7.9248046875 26.806640625,5.947265625 24.08203125,4.6728515625 21.064453125,4.21874952316284z M16.845703125,0L21.064453125,0 25.1806640625,0.600585699081421 28.916015625,2.29980492591858 32.05078125,4.96581983566284 34.365234375,8.4375 40.01953125,8.4375 40.01953125,32.63671875 39.404296875,37.4560546875 37.6611328125,41.9384765625 34.921875,45.8935546875 31.2890625,49.130859375 32.7978515625,50.5517578125 34.2626953125,52.0751953125 35.361328125,53.7890625 35.80078125,55.810546875 35.390625,57.8466796875 34.2626953125,59.5166015625 32.578125,60.64453125 30.52734375,61.0546875 29.35546875,61.0546875 28.330078125,61.025390625 27.3046875,60.908203125 26.484375,63.4716796875 24.873046875,65.5224609375 22.6611328125,66.884765625 20.009765625,67.3828125 17.373046875,66.884765625 15.1318359375,65.5224609375 13.505859375,63.4716796875 12.685546875,60.908203125 11.6748046875,61.025390625 10.634765625,61.0546875 9.462890625,61.0546875 7.4267578125,60.64453125 5.7568359375,59.5166015625 4.62890625,57.8466796875 4.21875,55.810546875 4.599609375,53.8330078125 5.712890625,52.1484375 7.2216796875,50.6396484375 8.73046875,49.130859375 5.0244140625,45.908203125 2.28515625,41.982421875 0.585938453674316,37.5146484375 0,32.63671875 0,8.4375 4.21875,8.4375 6.943359375,8.5693359375 9.609375,9.0234375 12.8759765625,6.22558546066284 16.845703125,4.59960889816284 16.845703125,0z" />
    </g>
  </g>
</svg>