<?xml version="1.0" encoding="utf-8"?>
<!DOCTYPE svg PUBLIC "-//W3C//DTD SVG 1.1//EN" "http://www.w3.org/Graphics/SVG/1.1/DTD/svg11.dtd">
<svg width="36.591796875" height="47.4609375" xmlns="http://www.w3.org/2000/svg" xmlns:xlink="http://www.w3.org/1999/xlink" xmlns:xml="http://www.w3.org/XML/1998/namespace" version="1.1">
  <g>
    <g>
      <path style="fill:#FF0000;fill-opacity:1" d="M4.62890625,39.90234375L32.63671875,39.90234375 32.63671875,42.158203125 4.62890625,42.158203125 4.62890625,39.90234375z M4.62890625,33.251953125L32.63671875,33.251953125 32.63671875,35.5078125 4.62890625,35.5078125 4.62890625,33.251953125z M4.62890625,26.6015625L32.63671875,26.6015625 32.63671875,28.857421875 4.62890625,28.857421875 4.62890625,26.6015625z M16.58203125,18.33984375L15.498046875,18.69140625 15.498046875,19.482421875 16.142578125,19.98046875 17.255859375,18.984375 16.58203125,18.33984375z M16.728515625,16.318359375L15.9374980926514,16.6040058135986 15.673828125,16.9921875 16.11328125,17.87109375 16.69921875,17.87109375 17.1826152801514,18.66943359375 18.33984375,19.013671875 18.076171875,18.69140625 18.369140625,18.603515625 18.662109375,19.013671875 19.04296875,18.92578125 18.69140625,18.45703125 18.92578125,18.369140625 19.365234375,18.837890625 19.775390625,18.69140625 19.130859375,18.10546875 19.248046875,18.017578125 20.009765625,18.45703125 20.009765625,18.369140625 19.6728496551514,17.7246112823486 18.662109375,17.080078125 16.728515625,16.318359375z M17.40234375,8.701171875L16.728515625,9.140625 16.259765625,9.052734375 17.40234375,8.701171875z M16.23046875,8.4375L16.494140625,8.583984375 16.7578125,8.4375 16.962890625,8.525390625 16.611328125,8.701171875 16.23046875,8.4375z M15.673828125,7.294921875L15.52734375,7.5 15.76171875,7.5 15.673828125,7.294921875z M15.791015625,7.20703125L16.259765625,7.44140625 15.439453125,7.6171875 15.439453125,7.294921875 15.791015625,7.20703125z M17.021484375,7.1484375L16.845703125,7.3828125 17.109375,7.32421875 17.021484375,7.1484375z M16.9921875,7.060546875L17.28515625,7.08984375 17.5594234466553,7.11727142333984 16.9921875,7.44140625 16.787109375,7.939453125 16.728515625,7.32421875 16.9921875,7.060546875z M17.8125,6.97265625L17.6953125,7.08984375 17.578125,7.119140625 17.5594234466553,7.11727142333984 17.8125,6.97265625z M11.044921875,6.826171875L11.8359375,7.20703125 11.982421875,8.056640625 12.861328125,7.5 13.5571269989014,8.21044921875 13.88671875,10.341796875 10.341796875,10.341796875 10.341796875,7.177734375 11.044921875,6.826171875z M16.93359375,5.80078125L15.849609375,5.91796875 15.263671875,7.79296875 15.556640625,8.818359375 16.171875,9.4921875 16.611328125,9.873046875 16.552734375,10.6640625 16.46484375,10.6640625 15.2929668426514,11.2133808135986 14.4140625,12.919921875 18.076171875,13.681640625 19.6875,12.1875 18.3691387176514,10.5175800323486 17.9296875,9.19921875 18.046875,8.408203125 18.1640625,7.587890625 17.841796875,6.4453125 16.93359375,5.80078125z M17.109375,4.74609375L18.0926494598389,5.0299072265625 18.9624004364014,5.88134765625 19.7186260223389,7.3004150390625 20.361328125,9.287109375 21.2831954956055,10.091646194458 21.240234375,9.404296875 21.474609375,8.0419921875 22.177734375,7.587890625 23.115234375,7.81494140625 23.466796875,8.49609375 23.88427734375,7.43408203125 25.13671875,6.708984375 25.13671875,10.341796875 21.56982421875,10.341796875 21.97265625,10.693359375 22.63916015625,11.6308612823486 23.466796875,12.978515625 23.81103515625,14.1064472198486 24.31640625,16.318359375 24.755859375,18.5302734375 24.90234375,19.658203125 24.873046875,20.361328125 10.751953125,20.361328125 11.72607421875,18.5302734375 13.125,16.318359375 12.83203125,14.12109375 13.2495098114014,12.0629901885986 14.501953125,10.107421875 14.296875,7.79296875 14.4909648895264,6.624755859375 15.0732421875,5.6396484375 15.9704570770264,4.969482421875 17.109375,4.74609375z M9.9609375,3.6328125L9.9609375,20.91796875 25.48828125,20.91796875 25.48828125,3.6328125 9.9609375,3.6328125z M8.90625,2.51953125L26.42578125,2.51953125 26.42578125,22.1484375 8.90625,22.1484375 8.90625,2.51953125z M1.083984375,0.87890625L1.083984375,46.259765625 35.537109375,46.259765625 35.537109375,8.73046875 28.359375,8.73046875 28.359375,0.87890625 1.083984375,0.87890625z M0,0L28.359375,0 36.591796875,8.73046875 36.591796875,47.4609375 0,47.4609375 0,0z" />
    </g>
  </g>
</svg>