<?xml version="1.0" encoding="utf-8"?>
<!DOCTYPE svg PUBLIC "-//W3C//DTD SVG 1.1//EN" "http://www.w3.org/Graphics/SVG/1.1/DTD/svg11.dtd">
<svg width="58.9453125000004" height="67.03125" xmlns="http://www.w3.org/2000/svg" xmlns:xlink="http://www.w3.org/1999/xlink" xmlns:xml="http://www.w3.org/XML/1998/namespace" version="1.1">
  <g>
    <g>
      <path style="fill:#FF0000;fill-opacity:1" d="M16.845703125,8.4375L20.126953125,9.0966796875 22.79296875,10.8984375 24.5947265625,13.564453125 25.25390625,16.845703125 24.5947265625,20.126953125 22.79296875,22.79296875 20.126953125,24.5947265625 16.845703125,25.25390625 13.5498046875,24.5947265625 10.869140625,22.79296875 9.0673828125,20.126953125 8.408203125,16.845703125 9.0673828125,13.564453125 10.869140625,10.8984375 13.5498046875,9.0966796875 16.845703125,8.4375z M16.845703125,4.21875L14.315185546875,4.46777629852295 11.9384765625,5.21484375 7.9248046875,7.92480516433716 5.21484375,11.9384765625 4.4677734375,14.315185546875 4.21875,16.845703125 4.4677734375,19.376220703125 5.21484375,21.7529296875 7.9248046875,25.7666015625 11.9384765625,28.4765625 14.315185546875,29.2236347198486 16.845703125,29.47265625 20.2587890625,29.00390625 23.408203125,27.626953125 42.099609375,46.318359375 39.990234375,48.427734375 37.91015625,46.318359375 33.69140625,50.537109375 37.91015625,54.755859375 39.990234375,54.755859375 39.990234375,56.8359375 44.208984375,61.0546875 48.427734375,56.8359375 46.318359375,54.755859375 48.427734375,52.646484375 49.1162109375,53.37890625 49.892578125,54.0673828125 50.771484375,54.5654296875 51.767578125,54.755859375 52.9248008728027,54.539794921875 53.876953125,53.8916015625 54.5141563415527,52.928466796875 54.7265625,51.767578125 54.5141563415527,50.6103515625 53.876953125,49.658203125 27.626953125,23.408203125 29.00390625,20.2587890625 29.47265625,16.845703125 29.2236328125,14.315185546875 28.4765625,11.9384765625 25.7666015625,7.92480516433716 21.7529296875,5.21484375 19.3762187957764,4.46777629852295 16.845703125,4.21875z M16.845703125,0L20.2075176239014,0.333254784345627 23.37890625,1.33300757408142 26.25732421875,2.90405559539795 28.740234375,4.951171875 30.787353515625,7.43408203125 32.3583984375,10.3125 33.358154296875,13.48388671875 33.69140625,16.845703125 33.4423828125,19.7314453125 32.6953125,22.529296875 56.8359375,46.69921875 58.41796875,49.02099609375 58.9453125,51.767578125 58.4326171875,54.43359375 57.0263671875,56.66015625 54.9169921875,58.2275390625 52.294921875,58.9453125 44.208984375,67.03125 30.1171875,52.91015625 29.853515625,52.44140625 29.58984375,51.6796875 29.3994140625,50.888671875 29.326171875,50.33203125 29.8828125,48.7939453125 31.201171875,47.05078125 32.75390625,45.41015625 34.04296875,44.208984375 22.529296875,32.6953125 19.7314453125,33.4423828125 16.845703125,33.69140625 13.465576171875,33.358154296875 10.2978515625,32.3583984375 7.43041896820068,30.787353515625 4.951171875,28.740234375 2.904052734375,26.2609882354736 1.3330078125,23.3935546875 0.333251595497131,20.225830078125 0,16.845703125 0.333251595497131,13.48388671875 1.3330078125,10.3125 2.904052734375,7.43408203125 4.951171875,4.951171875 7.43041896820068,2.90405559539795 10.2978515625,1.33300757408142 13.465576171875,0.333254784345627 16.845703125,0z" />
    </g>
  </g>
</svg>