<?xml version="1.0" encoding="utf-8"?>
<!DOCTYPE svg PUBLIC "-//W3C//DTD SVG 1.1//EN" "http://www.w3.org/Graphics/SVG/1.1/DTD/svg11.dtd">
<svg width="67.3828125" height="65.2734375" xmlns="http://www.w3.org/2000/svg" xmlns:xlink="http://www.w3.org/1999/xlink" xmlns:xml="http://www.w3.org/XML/1998/namespace" version="1.1">
  <g>
    <g>
      <path style="fill:#FF0000;fill-opacity:1" d="M63.1640625,27.36328125L33.69140625,42.12890625 4.21875,56.865234375 4.21875,61.0546875 63.1640625,61.0546875 63.1640625,27.36328125z M49.365234375,16.259765625L48.2373046875,17.841796875 46.904296875,19.248046875 60.8203125,26.19140625 63.1640625,25.01953125 63.1640625,23.173828125 49.365234375,16.259765625z M18.017578125,16.259765625L4.21875,23.173828125 4.21875,27.36328125 4.21875,54.4921875 31.34765625,40.927734375 4.21875,27.36328125 20.478515625,19.248046875 19.16015625,17.841796875 18.017578125,16.259765625z M26.396484375,4.21874952316284L23.49609375,4.80468654632568 21.1376953125,6.4013671875 19.541015625,8.7744140625 18.955078125,11.66015625 19.21875,13.6962890625 19.951171875,15.3515605926514 21.064453125,16.8017578125 22.470703125,18.251953125 33.69140625,29.47265625 44.912109375,18.251953125 46.318359375,16.8017578125 47.431640625,15.3515605926514 48.1640625,13.6962890625 48.427734375,11.66015625 47.841796875,8.7744140625 46.2451171875,6.4013671875 43.8720703125,4.80468654632568 40.986328125,4.21874952316284 38.8330078125,4.5263671875 37.0751953125,5.34667921066284 35.5517578125,6.5478515625 34.1015625,8.02734375 33.69140625,8.43749904632568 33.28125,8.02734375 31.81640625,6.5478515625 30.3076171875,5.34667921066284 28.5498046875,4.5263671875 26.396484375,4.21874952316284z M26.396484375,0L30.2783203125,0.6298828125 33.69140625,2.57812452316284 37.1044921875,0.6298828125 40.986328125,0 43.3190879821777,0.230715304613113 45.5126953125,0.922850847244263 49.21875,3.42773365974426 51.7236328125,7.1337890625 52.4157676696777,9.327392578125 52.646484375,11.66015625 52.55859375,13.154296875 67.3828125,20.56640625 67.3828125,65.2734375 0,65.2734375 0,20.56640625 7.3974609375,16.8310546875 14.82421875,13.154296875 14.736328125,11.66015625 14.967041015625,9.327392578125 15.6591796875,7.1337890625 18.1640625,3.42773365974426 21.8701171875,0.922850847244263 24.063720703125,0.230715304613113 26.396484375,0z" />
    </g>
  </g>
</svg>