<?xml version="1.0" encoding="utf-8"?>
<!DOCTYPE svg PUBLIC "-//W3C//DTD SVG 1.1//EN" "http://www.w3.org/Graphics/SVG/1.1/DTD/svg11.dtd">
<svg width="54.7558593750007" height="67.3828125" xmlns="http://www.w3.org/2000/svg" xmlns:xlink="http://www.w3.org/1999/xlink" xmlns:xml="http://www.w3.org/XML/1998/namespace" version="1.1">
  <g>
    <g>
      <path style="fill:#FF0000;fill-opacity:1" d="M25.25390625,23.173828125L29.47265625,23.173828125 29.47265625,27.7734375 31.1865234375,28.7109375 32.51953125,30.0732421875 33.3837890625,31.7724609375 33.69140625,33.69140625 29.47265625,33.69140625 28.857421875,32.197265625 27.36328125,31.58203125 25.8837890625,32.2119140625 25.25390625,33.69140625 25.8837890625,35.4638671875 27.451171875,37.236328125 29.47265625,39.111328125 31.494140625,41.1767578125 33.0615234375,43.5498046875 33.69140625,46.318359375 33.3837890625,48.2666015625 32.51953125,49.951171875 31.1865234375,51.3134765625 29.47265625,52.265625 29.47265625,56.865234375 25.25390625,56.865234375 25.25390625,52.265625 23.5400390625,51.3134765625 22.20703125,49.951171875 21.357421875,48.2666015625 21.064453125,46.318359375 25.25390625,46.318359375 25.8837890625,47.7978515625 27.36328125,48.427734375 28.857421875,47.8125 29.47265625,46.318359375 28.9892578125,44.82421875 27.978515625,43.59375 25.8837890625,41.484375 23.7890625,39.404296875 22.6318359375,38.14453125 21.767578125,36.85546875 21.240234375,35.419921875 21.064453125,33.69140625 21.357421875,31.7724609375 22.20703125,30.0732421875 23.5400390625,28.7109375 25.25390625,27.7734375 25.25390625,23.173828125z M16.611328125,16.787109375L16.0400390625,18.7060546875 15.1611328125,20.3173828125 14.0185546875,21.767578125 12.626953125,23.173828125 9.169921875,26.806640625 6.5185546875,30.673828125 4.8193359375,34.9951171875 4.21875,40.01953125 4.6728515625,44.674072265625 6.03515625,49.0283203125 8.184814453125,52.96875 11.0009765625,56.3818359375 14.4140625,59.197998046875 18.3544921875,61.34765625 22.7087383270264,62.7099609375 27.36328125,63.1640625 30.498046875,62.958984375 33.515625,62.34375 39.052734375,60.0146484375 43.740234375,56.3818359375 47.3583984375,51.6943359375 49.7021484375,46.171875 50.3283653259277,43.154296875 50.537109375,40.01953125 49.9365234375,34.98046875 48.2373046875,30.673828125 45.5859375,26.8212890625 42.099609375,23.173828125 40.72265625,21.767578125 39.580078125,20.302734375 38.7158203125,18.6767578125 38.14453125,16.787109375 35.830078125,16.875 18.134765625,16.875 16.611328125,16.787109375z M14.736328125,4.21874952316284L13.2421875,4.83398485183716 12.626953125,6.328125 13.0517578125,8.408203125 14.0771484375,9.8291015625 15.322265625,11.103515625 16.40625,12.71484375 16.6259765625,12.65625 16.845703125,12.626953125 37.91015625,12.626953125 38.1298828125,12.65625 38.349609375,12.71484375 39.43359375,11.0888671875 40.6640625,9.84375 41.6748046875,8.4375 42.099609375,6.328125 41.484375,4.84863233566284 40.01953125,4.21874952316284 38.7890625,4.5556640625 37.8955078125,5.2880859375 37.001953125,6.005859375 35.80078125,6.328125 34.5703125,6.005859375 33.6767578125,5.2880859375 32.783203125,4.5556640625 31.58203125,4.21874952316284 30.3515625,4.5556640625 29.4580078125,5.2880859375 28.564453125,6.005859375 27.36328125,6.328125 26.1328125,6.005859375 25.2685546875,5.2880859375 24.404296875,4.5556640625 23.173828125,4.21874952316284 21.943359375,4.5556640625 21.0498046875,5.2880859375 20.15625,6.005859375 18.955078125,6.328125 17.724609375,6.005859375 16.8310546875,5.2880859375 15.9375,4.5556640625 14.736328125,4.21874952316284z M14.736328125,0L40.01953125,0 42.451171875,0.5126953125 44.4580078125,1.8896484375 45.8203125,3.9111328125 46.318359375,6.328125 45.6591796875,9.7119140625 43.857421875,12.65625 44.208984375,14.736328125 43.9599571228027,16.51611328125 43.212890625,18.1640625 43.9306640625,19.1015625 44.794921875,19.921875 48.92578125,24.228515625 52.060546875,28.8720703125 54.052734375,34.0576171875 54.755859375,40.01953125 54.5104942321777,43.7255859375 53.7744140625,47.28515625 52.5915489196777,50.66162109375 51.005859375,53.818359375 46.7138671875,59.35546875 41.162109375,63.6328125 38.00537109375,65.218505859375 34.62890625,66.4013671875 31.0693359375,67.137451171875 27.36328125,67.3828125 23.6572265625,67.137451171875 20.09765625,66.4013671875 16.7211894989014,65.218505859375 13.564453125,63.6328125 8.02734375,59.35546875 3.75,53.818359375 2.164306640625,50.66162109375 0.9814453125,47.28515625 0.245360970497131,43.7255859375 0,40.01953125 0.703125,34.0576171875 2.6953125,28.8720703125 5.830078125,24.228515625 9.9609375,19.921875 10.8251953125,19.1015625 11.54296875,18.1640625 10.77392578125,16.53076171875 10.517578125,14.736328125 10.8984375,12.65625 9.08203125,9.7119140625 8.408203125,6.328125 8.90625,3.86718726158142 10.2685546875,1.86035132408142 12.275390625,0.498046875 14.736328125,0z" />
    </g>
  </g>
</svg>