<?xml version="1.0" encoding="utf-8"?>
<!DOCTYPE svg PUBLIC "-//W3C//DTD SVG 1.1//EN" "http://www.w3.org/Graphics/SVG/1.1/DTD/svg11.dtd">
<svg width="58.8867187500009" height="67.3828125" xmlns="http://www.w3.org/2000/svg" xmlns:xlink="http://www.w3.org/1999/xlink" xmlns:xml="http://www.w3.org/XML/1998/namespace" version="1.1">
  <g>
    <g>
      <path style="fill:#FF0000;fill-opacity:1" d="M10.751953125,52.646484375L12.59765625,54.755859375 12.59765625,61.0546875 13.2275390625,62.5341796875 14.70703125,63.1640625 44.1796875,63.1640625 45.673828125,62.548828125 46.2890625,61.0546875 46.2890625,54.755859375 48.134765625,52.646484375 10.751953125,52.646484375z M6.884765625,46.318359375L7.96875,48.4716796875 9.228515625,50.537109375 49.6875,50.537109375 50.9326171875,48.4716796875 52.001953125,46.318359375 6.884765625,46.318359375z M4.833984375,40.01953125L5.361328125,42.12890625 6.03515625,44.208984375 52.880859375,44.208984375 53.5546875,42.12890625 54.08203125,40.01953125 4.833984375,40.01953125z M4.189453125,33.69140625L4.2626953125,35.80078125 4.482421875,37.91015625 54.43359375,37.91015625 54.6533203125,35.80078125 54.7265625,33.69140625 4.189453125,33.69140625z M4.833984375,27.36328125L4.4677734375,29.4580078125 4.248046875,31.58203125 54.638671875,31.58203125 54.43359375,29.47265625 54.08203125,27.36328125 4.833984375,27.36328125z M6.884765625,21.064453125L6.0498046875,23.14453125 5.361328125,25.283203125 53.5546875,25.283203125 52.8662109375,23.14453125 52.001953125,21.064453125 6.884765625,21.064453125z M10.751953125,14.736328125L7.939453125,18.955078125 50.947265625,18.955078125 49.6435546875,16.787109375 48.134765625,14.736328125 10.751953125,14.736328125z M14.70703125,4.21874952316284L13.2275390625,4.84863233566284 12.59765625,6.328125 12.59765625,12.626953125 46.2890625,12.626953125 46.2890625,6.328125 45.673828125,4.83398485183716 44.1796875,4.21874952316284 14.70703125,4.21874952316284z M14.70703125,0L44.1796875,0 46.640625,0.498046875 48.6474609375,1.86035132408142 50.009765625,3.86718726158142 50.5078125,6.328125 50.5078125,10.986328125 54.1259765625,15.99609375 56.748046875,21.5625 58.3447265625,27.5244140625 58.88671875,33.69140625 58.3447265625,39.8583984375 56.748046875,45.8056640625 54.1259765625,51.3720703125 50.5078125,56.396484375 50.5078125,61.0546875 50.009765625,63.515625 48.6474609375,65.5224609375 46.640625,66.884765625 44.1796875,67.3828125 14.70703125,67.3828125 12.24609375,66.884765625 10.25390625,65.5224609375 8.90625,63.515625 8.408203125,61.0546875 8.408203125,56.396484375 4.7900390625,51.3720703125 2.1533203125,45.8056640625 0.5419921875,39.8583984375 0,33.69140625 0.5419921875,27.5390625 2.1533203125,21.591796875 4.7900390625,16.0107421875 8.408203125,10.986328125 8.408203125,6.328125 8.90625,3.86718726158142 10.25390625,1.86035132408142 12.24609375,0.498046875 14.70703125,0z" />
    </g>
  </g>
</svg>