<?xml version="1.0" encoding="utf-8"?>
<!DOCTYPE svg PUBLIC "-//W3C//DTD SVG 1.1//EN" "http://www.w3.org/Graphics/SVG/1.1/DTD/svg11.dtd">
<svg width="65.2734375000078" height="67.3828125" xmlns="http://www.w3.org/2000/svg" xmlns:xlink="http://www.w3.org/1999/xlink" xmlns:xml="http://www.w3.org/XML/1998/namespace" version="1.1">
  <g>
    <g>
      <path style="fill:#FF0000;fill-opacity:1" d="M52.646484375,52.646484375L52.646484375,58.974609375 44.208984375,58.974609375 44.208984375,63.1640625 56.865234375,63.1640625 56.865234375,52.646484375 52.646484375,52.646484375z M16.845703125,52.646484375L16.845703125,63.1640625 40.01953125,63.1640625 40.01953125,52.646484375 35.80078125,52.646484375 35.80078125,58.974609375 21.064453125,58.974609375 21.064453125,52.646484375 16.845703125,52.646484375z M17.900390625,44.208984375L17.16796875,44.53125 16.845703125,45.263671875 17.1533203125,46.0107421875 17.900390625,46.318359375 18.6474609375,46.0107421875 18.955078125,45.263671875 18.6328125,44.53125 17.900390625,44.208984375z M41.6015625,31.58203125L42.685546875,35.80078125 47.373046875,35.80078125 46.318359375,31.58203125 41.6015625,31.58203125z M16.025390625,31.58203125L14.7216796875,31.845703125 13.65234375,32.578125 12.919921875,33.6474609375 12.65625,34.951171875 12.744140625,35.80078125 26.30859375,35.80078125 25.25390625,31.58203125 16.025390625,31.58203125z M27.861328125,4.18945360183716L26.630859375,4.20410203933716 25.400390625,4.21874952316284 27.7587890625,5.1416015625 29.12109375,7.294921875 31.58203125,16.845703125 19.072265625,16.845703125 16.611328125,7.294921875 15.1611328125,5.0537109375 13.978271484375,4.42749309539795 12.626953125,4.21874952316284 8.408203125,4.21874952316284 9.7119140625,4.48242139816284 10.8544921875,5.126953125 11.7333984375,6.09375047683716 12.275390625,7.294921875 17.841796875,29.47265625 30.05859375,29.47265625 31.1279296875,33.69140625 32.16796875,37.91015625 19.98046875,37.91015625 21.03515625,42.12890625 35.80078125,42.12890625 37.44140625,42.451171875 38.7744140625,43.3447265625 39.6826171875,44.677734375 40.01953125,46.318359375 40.01953125,50.537109375 61.0546875,50.537109375 61.0546875,46.318359375 60.732421875,44.677734375 59.8388671875,43.3447265625 58.505859375,42.451171875 56.865234375,42.12890625 42.099609375,42.12890625 36.181640625,18.6328125 34.7900390625,12.9931640625 33.33984375,7.412109375 32.39501953125,5.63965129852295 30.732421875,4.48242139816284 29.4287109375,4.21874952316284 28.037109375,4.18945360183716 27.861328125,4.18945360183716z M10.341796875,0L29.267578125,0 32.0361328125,0.468749761581421 34.453125,1.78710961341858 36.3134765625,3.80859398841858 37.44140625,6.38671875 42.71484375,27.36328125 52.763671875,27.36328125 55.400390625,37.91015625 56.865234375,37.91015625 60.1318359375,38.5693359375 62.8125,40.37109375 64.6142578125,43.0517578125 65.2734375,46.318359375 65.2734375,67.3828125 12.626953125,67.3828125 12.626953125,52.79296875 10.86181640625,50.79345703125 9.84375,48.369140625 0.263671875,10.3125 0,8.26171875 0.454101085662842,5.58105516433716 1.75781202316284,3.19335985183716 1.97753858566284,2.95898389816284 2.19726514816284,2.783203125 3.92578077316284,1.494140625 5.97656202316284,0.6298828125 8.173828125,0.146484613418579 10.341796875,0z" />
    </g>
  </g>
</svg>