<?xml version="1.0" encoding="utf-8"?>
<!DOCTYPE svg PUBLIC "-//W3C//DTD SVG 1.1//EN" "http://www.w3.org/Graphics/SVG/1.1/DTD/svg11.dtd">
<svg width="67.4121093750009" height="67.3828125" xmlns="http://www.w3.org/2000/svg" xmlns:xlink="http://www.w3.org/1999/xlink" xmlns:xml="http://www.w3.org/XML/1998/namespace" version="1.1">
  <g>
    <g>
      <path style="fill:#FF0000;fill-opacity:1" d="M27.36328125,50.537109375L28.3740234375,50.8740234375 29.765625,51.6064453125 31.5234375,52.32421875 33.662109375,52.646484375 35.8154296875,52.32421875 37.587890625,51.6064453125 38.9794921875,50.8740234375 39.990234375,50.537109375 41.4697265625,51.1669921875 42.099609375,52.646484375 41.8798828125,53.583984375 41.25,54.31640625 37.67578125,56.220703125 33.662109375,56.865234375 31.6845703125,56.7041015625 29.6337890625,56.2060546875 27.7001953125,55.400390625 26.07421875,54.31640625 25.4736328125,53.5693359375 25.25390625,52.646484375 25.8837890625,51.1669921875 27.36328125,50.537109375z M57.509765625,48.427734375L55.95703125,51.9287109375 53.935546875,55.107421875 51.4672813415527,57.94921875 48.57421875,60.439453125 51.708984375,61.0546875 54.66796875,60.52734375 57.216796875,58.974609375 52.67578125,58.974609375 53.2470703125,57.451171875 54.755859375,56.865234375 58.974609375,56.865234375 60.029296875,54.755859375 54.755859375,54.755859375 55.341796875,53.232421875 56.865234375,52.646484375 61.083984375,52.646484375 63.193359375,48.427734375 57.509765625,48.427734375z M4.189453125,48.427734375L6.298828125,52.646484375 10.546875,52.646484375 12.0703125,53.232421875 12.65625,54.755859375 7.353515625,54.755859375 8.408203125,56.865234375 12.65625,56.865234375 14.1796875,57.451171875 14.765625,58.974609375 10.166015625,58.974609375 12.71484375,60.52734375 15.673828125,61.0546875 18.837890625,60.439453125 15.94482421875,57.94921875 13.4765625,55.107421875 11.455078125,51.9287109375 9.90234375,48.427734375 4.189453125,48.427734375z M29.47265625,44.23828125L37.880859375,44.23828125 37.5439453125,45.87890625 36.6357421875,47.2119140625 35.302734375,48.10546875 33.662109375,48.427734375 32.021484375,48.10546875 30.6884765625,47.2119140625 29.794921875,45.87890625 29.47265625,44.23828125z M45.263671875,31.58203125L46.4794921875,31.8310546875 47.490234375,32.51953125 48.1787109375,33.5302734375 48.427734375,34.74609375 48.427734375,38.96484375 48.1787109375,40.1806640625 47.490234375,41.1767578125 46.4794921875,41.8505859375 45.263671875,42.099609375 44.0478515625,41.8505859375 43.037109375,41.19140625 42.3486328125,40.2099609375 42.099609375,38.96484375 42.099609375,34.74609375 42.3486328125,33.515625 43.0224609375,32.5048828125 44.0185546875,31.8310546875 45.263671875,31.58203125z M22.119140625,31.58203125L23.349609375,31.8310546875 24.3603515625,32.5048828125 25.0341796875,33.515625 25.283203125,34.74609375 25.283203125,38.96484375 25.0341796875,40.2099609375 24.345703125,41.19140625 23.3349609375,41.8505859375 22.119140625,42.099609375 20.9033203125,41.8505859375 19.892578125,41.1767578125 19.2041015625,40.1806640625 18.955078125,38.96484375 18.955078125,34.74609375 19.2041015625,33.5302734375 19.892578125,32.51953125 20.9033203125,31.8310546875 22.119140625,31.58203125z M17.9296875,24.228515625L10.546875,31.58203125 9.4921875,31.58203125 8.2470703125,31.8310546875 7.2509765625,32.5048828125 6.5771484375,33.515625 6.328125,34.74609375 6.328125,41.07421875 6.5771484375,42.2900390625 7.265625,43.30078125 8.2763671875,43.9892578125 9.4921875,44.23828125 10.95703125,44.23828125 12.04833984375,48.204345703125 13.798828125,51.8408203125 16.116943359375,55.074462890625 18.9111328125,57.83203125 22.1337871551514,60.0732421875 25.7373046875,61.7578125 29.630126953125,62.8125 33.720703125,63.1640625 37.8515625,62.8125 41.748046875,61.7578125 45.3295860290527,60.0732421875 48.515625,57.83203125 51.2731895446777,55.074462890625 53.5693359375,51.8408203125 55.3308067321777,48.204345703125 56.484375,44.23828125 57.919921875,44.23828125 59.1357421875,43.9892578125 60.146484375,43.30078125 60.8349609375,42.2900390625 61.083984375,41.07421875 61.083984375,34.74609375 60.8349609375,33.515625 60.1611328125,32.5048828125 59.150390625,31.8310546875 57.919921875,31.58203125 56.865234375,31.58203125 49.51171875,24.228515625 44.23828125,29.47265625 38.96484375,24.228515625 33.720703125,29.47265625 28.447265625,24.228515625 23.173828125,29.47265625 17.9296875,24.228515625z M33.720703125,6.32812404632568L39.521484375,7.06054592132568 44.94140625,9.228515625 48.1494140625,9.7998046875 51.97265625,10.7519521713257 55.6201171875,12.0556640625 58.30078125,13.681640625 56.6748046875,14.82421875 54.84375,15.64453125 49.7607421875,17.2558574676514 44.2236328125,18.2666015625 38.5986328125,18.7939453125 33.251953125,18.9550762176514 28.06640625,18.80859375 22.6611328125,18.3251953125 17.34375,17.40234375 12.392578125,15.9375 11.3232421875,15.52734375 10.1806640625,15 9.0966796875,14.384765625 8.203125,13.681640625 9.9169921875,12.48046875 12.3046875,11.4550771713257 15.0732421875,10.60546875 17.9296875,9.931640625 20.595703125,9.4189453125 22.763671875,9.08203029632568 28.06640625,7.0166015625 33.720703125,6.32812404632568z M33.251953125,4.21874952316284L27.3193359375,4.40917921066284 21.4453125,5.00976467132568 18.6767578125,5.478515625 15,6.3134765625 11.0302734375,7.51464796066284 7.412109375,9.1259765625 4.7900390625,11.1767578125 4.031982421875,12.366943359375 3.779296875,13.681640625 4.482421875,15.7763671875 6.1962890625,17.4755859375 8.349609375,18.779296875 10.400390625,19.6875 15.7763671875,21.357421875 21.650390625,22.4267578125 27.59765625,22.998046875 33.251953125,23.173828125 39.0966796875,22.9833984375 45.2783203125,22.353515625 51.3427734375,21.181640625 56.865234375,19.3359375 58.7109375,18.4423809051514 60.6298828125,17.197265625 62.1240234375,15.615234375 62.724609375,13.681640625 62.471923828125,12.366943359375 61.7138671875,11.1767578125 59.091796875,9.1259765625 55.4736328125,7.51464796066284 51.50390625,6.3134765625 47.8271484375,5.478515625 45.05859375,5.00976467132568 39.1845703125,4.40917921066284 33.251953125,4.21874952316284z M33.6328125,0L37.6025390625,0.102538347244263 42.6123046875,0.468749523162842 48.1787109375,1.20117139816284 53.818359375,2.40234375 59.0478515625,4.16015577316284 63.3837890625,6.56249952316284 65.050048828125,8.03466796875 66.328125,9.697265625 67.14111328125,11.572265625 67.412109375,13.681640625 66.73828125,16.5087890625 65.009765625,18.9404296875 62.666015625,20.9326171875 60.146484375,22.44140625 61.0546875,28.06640625 62.8125,29.208984375 64.1455078125,30.791015625 64.9951171875,32.6806640625 65.302734375,34.74609375 65.302734375,41.07421875 64.5703125,44.23828125 67.412109375,44.23828125 67.412109375,50.068359375 62.607421875,58.974609375 60.6298828125,61.58203125 58.0078125,63.57421875 54.9462890625,64.833984375 51.708984375,65.2734375 49.0649375915527,64.9951171875 46.5234375,64.16015625 43.4912071228027,65.5517578125 40.3125,66.5625 37.03125,67.177734375 33.69140625,67.3828125 30.3515625,67.177734375 27.0703125,66.5625 23.88427734375,65.5517578125 20.830078125,64.16015625 18.3105449676514,64.9951171875 15.673828125,65.2734375 12.421875,64.833984375 9.375,63.57421875 6.7529296875,61.5966796875 4.775390625,58.974609375 0.029296875,50.068359375 0.029296875,44.23828125 2.841796875,44.23828125 2.2705078125,42.7001953125 2.109375,41.07421875 2.109375,34.74609375 2.398681640625,32.669677734375 3.2666015625,30.7763671875 4.625244140625,29.1979999542236 6.38671875,28.06640625 6.43066310882568,27.36328125 6.474609375,26.66015625 6.796875,24.7412109375 7.1484375,22.8515625 4.39453125,21.2841796875 2.1240234375,19.306640625 0.5712890625,16.8017578125 0,13.681640625 0.270995736122131,11.572265625 1.083984375,9.697265625 2.3583984375,8.03466796875 4.013671875,6.56249952316284 8.3203125,4.16015577316284 13.5205078125,2.40234375 19.130859375,1.20117139816284 24.66796875,0.468749523162842 29.6630859375,0.102538347244263 33.6328125,0z" />
    </g>
  </g>
</svg>