<?xml version="1.0" encoding="utf-8"?>
<!DOCTYPE svg PUBLIC "-//W3C//DTD SVG 1.1//EN" "http://www.w3.org/Graphics/SVG/1.1/DTD/svg11.dtd">
<svg width="63.1640625" height="65.2734375" xmlns="http://www.w3.org/2000/svg" xmlns:xlink="http://www.w3.org/1999/xlink" xmlns:xml="http://www.w3.org/XML/1998/namespace" version="1.1">
  <g>
    <g>
      <path style="fill:#FF0000;fill-opacity:1" d="M35.80078125,48.427734375L40.01953125,48.427734375 40.01953125,52.646484375 35.80078125,52.646484375 35.80078125,48.427734375z M29.47265625,48.427734375L33.69140625,48.427734375 33.69140625,52.646484375 29.47265625,52.646484375 29.47265625,48.427734375z M23.173828125,48.427734375L27.36328125,48.427734375 27.36328125,52.646484375 23.173828125,52.646484375 23.173828125,48.427734375z M10.517578125,48.427734375L14.736328125,48.427734375 14.736328125,52.646484375 10.517578125,52.646484375 10.517578125,48.427734375z M48.427734375,42.099609375L52.646484375,42.099609375 52.646484375,46.318359375 48.427734375,46.318359375 48.427734375,42.099609375z M42.099609375,42.099609375L46.318359375,42.099609375 46.318359375,46.318359375 42.099609375,46.318359375 42.099609375,42.099609375z M35.80078125,42.099609375L40.01953125,42.099609375 40.01953125,46.318359375 35.80078125,46.318359375 35.80078125,42.099609375z M29.47265625,42.099609375L33.69140625,42.099609375 33.69140625,46.318359375 29.47265625,46.318359375 29.47265625,42.099609375z M16.845703125,42.099609375L16.845703125,46.318359375 21.064453125,46.318359375 21.064453125,42.099609375 16.845703125,42.099609375z M48.427734375,35.80078125L52.646484375,35.80078125 52.646484375,40.01953125 48.427734375,40.01953125 48.427734375,35.80078125z M42.099609375,35.80078125L46.318359375,35.80078125 46.318359375,40.01953125 42.099609375,40.01953125 42.099609375,35.80078125z M35.80078125,35.80078125L40.01953125,35.80078125 40.01953125,40.01953125 35.80078125,40.01953125 35.80078125,35.80078125z M29.47265625,35.80078125L33.69140625,35.80078125 33.69140625,40.01953125 29.47265625,40.01953125 29.47265625,35.80078125z M23.173828125,35.80078125L27.36328125,35.80078125 27.36328125,40.01953125 23.173828125,40.01953125 23.173828125,35.80078125z M16.845703125,35.80078125L21.064453125,35.80078125 21.064453125,40.01953125 23.173828125,40.01953125 23.173828125,42.099609375 27.36328125,42.099609375 27.36328125,46.318359375 23.173828125,46.318359375 23.173828125,48.427734375 21.064453125,48.427734375 21.064453125,52.646484375 16.845703125,52.646484375 16.845703125,48.427734375 14.736328125,48.427734375 14.736328125,46.318359375 10.517578125,46.318359375 10.517578125,42.099609375 14.736328125,42.099609375 14.736328125,40.01953125 16.845703125,40.01953125 16.845703125,35.80078125z M10.517578125,35.80078125L14.736328125,35.80078125 14.736328125,40.01953125 10.517578125,40.01953125 10.517578125,35.80078125z M48.427734375,29.47265625L52.646484375,29.47265625 52.646484375,33.69140625 48.427734375,33.69140625 48.427734375,29.47265625z M42.099609375,29.47265625L46.318359375,29.47265625 46.318359375,33.69140625 42.099609375,33.69140625 42.099609375,29.47265625z M35.80078125,29.47265625L40.01953125,29.47265625 40.01953125,33.69140625 35.80078125,33.69140625 35.80078125,29.47265625z M29.47265625,29.47265625L33.69140625,29.47265625 33.69140625,33.69140625 29.47265625,33.69140625 29.47265625,29.47265625z M23.173828125,29.47265625L27.36328125,29.47265625 27.36328125,33.69140625 23.173828125,33.69140625 23.173828125,29.47265625z M16.845703125,29.47265625L21.064453125,29.47265625 21.064453125,33.69140625 16.845703125,33.69140625 16.845703125,29.47265625z M10.517578125,29.47265625L14.736328125,29.47265625 14.736328125,33.69140625 10.517578125,33.69140625 10.517578125,29.47265625z M48.427734375,23.173828125L52.646484375,23.173828125 52.646484375,27.36328125 48.427734375,27.36328125 48.427734375,23.173828125z M42.099609375,23.173828125L46.318359375,23.173828125 46.318359375,27.36328125 42.099609375,27.36328125 42.099609375,23.173828125z M35.80078125,23.173828125L40.01953125,23.173828125 40.01953125,27.36328125 35.80078125,27.36328125 35.80078125,23.173828125z M29.47265625,23.173828125L33.69140625,23.173828125 33.69140625,27.36328125 29.47265625,27.36328125 29.47265625,23.173828125z M23.173828125,23.173828125L27.36328125,23.173828125 27.36328125,27.36328125 23.173828125,27.36328125 23.173828125,23.173828125z M4.21875143051147,16.845703125L4.21875143051147,61.0546875 52.646484375,61.0546875 52.646484375,54.755859375 58.9453125,54.755859375 58.9453125,16.845703125 4.21875143051147,16.845703125z M0,0L63.1640625,0 63.1640625,56.484375 54.375,65.2734375 0,65.2734375 0,0z" />
    </g>
  </g>
</svg>