<?xml version="1.0" encoding="utf-8"?>
<!DOCTYPE svg PUBLIC "-//W3C//DTD SVG 1.1//EN" "http://www.w3.org/Graphics/SVG/1.1/DTD/svg11.dtd">
<svg width="67.3828125" height="67.3828125" xmlns="http://www.w3.org/2000/svg" xmlns:xlink="http://www.w3.org/1999/xlink" xmlns:xml="http://www.w3.org/XML/1998/namespace" version="1.1">
  <g>
    <g>
      <path style="fill:#FF0000;fill-opacity:1" d="M50.654296875,26.89453125L52.1337890625,30.146484375 52.646484375,33.69140625 52.3974571228027,36.221923828125 51.650390625,38.5986328125 48.9404296875,42.6123046875 44.9267578125,45.322265625 42.5500450134277,46.0693359375 40.01953125,46.318359375 27.36328125,46.318359375 27.36328125,52.646484375 18.955078125,44.208984375 27.36328125,35.80078125 27.36328125,42.12890625 40.01953125,42.12890625 43.2568359375,41.455078125 45.9375,39.6240234375 47.75390625,36.943359375 48.427734375,33.69140625 48.2080039978027,31.787109375 47.548828125,30 50.654296875,26.89453125z M40.01953125,14.736328125L48.427734375,23.173828125 40.01953125,31.58203125 40.01953125,25.283203125 27.36328125,25.283203125 24.0966796875,25.9423828125 21.416015625,27.744140625 19.6142578125,30.4248046875 18.955078125,33.69140625 19.1748027801514,35.6103515625 19.833984375,37.3828125 16.728515625,40.48828125 15.2490234375,37.236328125 14.736328125,33.69140625 14.9853515625,31.160888671875 15.732421875,28.7841796875 18.4423828125,24.7705078125 22.4560546875,22.060546875 24.832763671875,21.3134765625 27.36328125,21.064453125 40.01953125,21.064453125 40.01953125,14.736328125z M4.21875,4.21874952316284L4.21875,63.1640625 63.1640625,63.1640625 63.1640625,4.21874952316284 4.21875,4.21874952316284z M0,0L67.3828125,0 67.3828125,67.3828125 0,67.3828125 0,0z" />
    </g>
  </g>
</svg>