<?xml version="1.0" encoding="utf-8"?>
<!DOCTYPE svg PUBLIC "-//W3C//DTD SVG 1.1//EN" "http://www.w3.org/Graphics/SVG/1.1/DTD/svg11.dtd">
<svg width="37.91015625" height="67.3828125" xmlns="http://www.w3.org/2000/svg" xmlns:xlink="http://www.w3.org/1999/xlink" xmlns:xml="http://www.w3.org/XML/1998/namespace" version="1.1">
  <g>
    <g>
      <path style="fill:#FF0000;fill-opacity:1" d="M4.21875,56.865234375L4.21875,61.0546875 6.328125,61.0546875 6.328125,63.1640625 31.58203125,63.1640625 31.58203125,61.0546875 33.69140625,61.0546875 33.69140625,56.865234375 4.21875,56.865234375z M29.47265625,25.283203125L29.47265625,31.58203125 8.408203125,52.646484375 8.408203125,46.318359375 29.47265625,25.283203125z M6.328125,23.173828125L6.328125,54.755859375 12.626953125,54.755859375 29.47265625,37.91015625 29.47265625,44.208984375 18.955078125,54.755859375 25.25390625,54.755859375 29.47265625,50.537109375 29.47265625,54.755859375 31.58203125,54.755859375 31.58203125,23.173828125 25.25390625,23.173828125 8.408203125,40.01953125 8.408203125,33.69140625 18.955078125,23.173828125 12.626953125,23.173828125 8.408203125,27.36328125 8.408203125,23.173828125 6.328125,23.173828125z M4.21875,16.845703125L4.21875,21.064453125 33.69140625,21.064453125 33.69140625,16.845703125 4.21875,16.845703125z M18.955078125,4.21874952316284L16.7175273895264,4.41650676727295 14.5751953125,5.009765625 10.810546875,7.20703125 8.0126953125,10.5322265625 6.50390625,14.736328125 31.40625,14.736328125 29.8974609375,10.5322265625 27.099609375,7.20703125 23.3349609375,5.009765625 21.1926250457764,4.41650676727295 18.955078125,4.21874952316284z M18.955078125,0L21.7675762176514,0.234377920627594 24.462890625,0.937500476837158 29.2529296875,3.54492211341858 32.9736328125,7.5439453125 34.332275390625,9.979248046875 35.2734375,12.626953125 37.91015625,12.626953125 37.91015625,25.283203125 35.80078125,25.283203125 35.80078125,52.646484375 37.91015625,52.646484375 37.91015625,65.2734375 35.80078125,65.2734375 35.80078125,67.3828125 2.109375,67.3828125 2.109375,65.2734375 0,65.2734375 0,52.646484375 2.109375,52.646484375 2.109375,25.283203125 0,25.283203125 0,12.626953125 2.63671875,12.626953125 3.577880859375,9.979248046875 4.93652439117432,7.5439453125 8.6572265625,3.54492211341858 13.447265625,0.937500476837158 16.142578125,0.234377920627594 18.955078125,0z" />
    </g>
  </g>
</svg>