<?xml version="1.0" encoding="utf-8"?>
<!DOCTYPE svg PUBLIC "-//W3C//DTD SVG 1.1//EN" "http://www.w3.org/Graphics/SVG/1.1/DTD/svg11.dtd">
<svg width="67.3828125000087" height="67.3828125" xmlns="http://www.w3.org/2000/svg" xmlns:xlink="http://www.w3.org/1999/xlink" xmlns:xml="http://www.w3.org/XML/1998/namespace" version="1.1">
  <g>
    <g>
      <path style="fill:#FF0000;fill-opacity:1" d="M33.69140625,44.208984375L36.9873046875,44.8681640625 39.6533203125,46.669921875 41.4404296875,49.3505859375 42.099609375,52.646484375 25.25390625,52.646484375 25.9130859375,49.3505859375 27.71484375,46.669921875 30.3955078125,44.8681640625 33.69140625,44.208984375z M52.646484375,23.173828125L54.1259765625,23.8037109375 54.755859375,25.283203125 54.5434532165527,26.2280292510986 53.90625,26.953125 48.427734375,31.0546875 48.427734375,36.85546875 48.1787109375,38.0712890625 47.490234375,39.08203125 46.4794921875,39.7705078125 45.263671875,40.01953125 44.0478515625,39.7705078125 43.037109375,39.08203125 42.3486328125,38.0712890625 42.099609375,36.85546875 42.099609375,31.58203125 42.3486328125,30.64453125 42.94921875,29.912109375 51.38671875,23.583984375 52.646484375,23.173828125z M14.736328125,23.173828125L15.99609375,23.583984375 24.43359375,29.912109375 25.048828125,30.64453125 25.25390625,31.58203125 25.25390625,36.85546875 25.0048828125,38.0712890625 24.3310546875,39.08203125 23.3349609375,39.7705078125 22.119140625,40.01953125 20.9033203125,39.7705078125 19.892578125,39.08203125 19.2041015625,38.0712890625 18.955078125,36.85546875 18.955078125,31.0546875 13.4765625,26.953125 12.83935546875,26.2280292510986 12.626953125,25.283203125 13.2421875,23.7890625 14.736328125,23.173828125z M33.69140625,4.21874952316284L28.59375,4.64721965789795 23.73046875,5.9326171875 19.1674785614014,8.038330078125 14.970703125,10.927734375 4.21875,6.328125 4.921875,13.7548828125 5.82275295257568,17.376708984375 7.119140625,20.888671875 4.9365234375,27.12890625 4.21875,33.69140625 4.482421875,37.686767578125 5.2734375,41.5283203125 6.54418849945068,45.172119140625 8.2470703125,48.57421875 10.3564453125,51.705322265625 12.8466796875,54.5361328125 15.677490234375,57.0263671875 18.80859375,59.1357421875 22.2106914520264,60.838623046875 25.8544921875,62.109375 29.696044921875,62.900390625 33.69140625,63.1640625 37.686767578125,62.900390625 41.5283203125,62.109375 45.1721153259277,60.838623046875 48.57421875,59.1357421875 51.7053184509277,57.0263671875 54.5361328125,54.5361328125 57.0263671875,51.705322265625 59.1357421875,48.57421875 60.838623046875,45.172119140625 62.109375,41.5283203125 62.900390625,37.686767578125 63.1640625,33.69140625 62.431640625,27.12890625 60.263671875,20.888671875 61.56005859375,17.376708984375 62.4609375,13.7548828125 63.1640625,6.328125 52.412109375,10.927734375 48.2153282165527,8.038330078125 43.65234375,5.9326171875 38.7890625,4.64721965789795 33.69140625,4.21874952316284z M33.69140625,0L38.76708984375,0.377200126647949 43.681640625,1.5087890625 48.3691368103027,3.37280559539795 52.763671875,5.947265625 67.3828125,0.0878903865814209 67.3828125,1.90429699420929 67.3095703125,6.8115234375 66.9580078125,11.455078125 66.1669921875,16.025390625 64.775390625,20.7421875 66.73828125,27.0849609375 67.3828125,33.69140625 67.08251953125,38.26171875 66.181640625,42.65625 64.7314453125,46.820068359375 62.783203125,50.6982421875 60.3662109375,54.268798828125 57.509765625,57.509765625 54.2687950134277,60.3662109375 50.6982421875,62.783203125 46.8200645446777,64.7314453125 42.65625,66.181640625 38.26171875,67.08251953125 33.69140625,67.3828125 29.12109375,67.08251953125 24.7265625,66.181640625 20.5627422332764,64.7314453125 16.6845703125,62.783203125 13.114013671875,60.3662109375 9.873046875,57.509765625 7.01660060882568,54.268798828125 4.599609375,50.6982421875 2.6513671875,46.820068359375 1.201171875,42.65625 0.300292611122131,38.26171875 0,33.69140625 0.64453125,27.099609375 2.57812404632568,20.7421875 1.1279296875,15.7763681411743 0.3662109375,11.015625 0.0585942268371582,6.1962890625 0,1.05468797683716 0,0.0878903865814209 14.619140625,5.947265625 19.0136699676514,3.37280559539795 23.701171875,1.5087890625 28.61572265625,0.377200126647949 33.69140625,0z" />
    </g>
  </g>
</svg>