<?xml version="1.0" encoding="utf-8"?>
<!DOCTYPE svg PUBLIC "-//W3C//DTD SVG 1.1//EN" "http://www.w3.org/Graphics/SVG/1.1/DTD/svg11.dtd">
<svg width="43.359375" height="54.931640625" xmlns="http://www.w3.org/2000/svg" xmlns:xlink="http://www.w3.org/1999/xlink" xmlns:xml="http://www.w3.org/XML/1998/namespace" version="1.1">
  <g>
    <g>
      <path style="fill:#FF0000;fill-opacity:1" d="M1.43554782867432,13.0078125L1.43554782867432,53.49609375 30.3515625,53.49609375 30.3515625,13.0078125 1.43554782867432,13.0078125z M7.23632860183716,7.20703125L7.23632860183716,11.54296875 31.81640625,11.54296875 31.81640625,47.6953125 36.15234375,47.6953125 36.15234375,7.20703125 7.23632860183716,7.20703125z M13.0078125,1.435546875L13.0078125,5.771484375 37.587890625,5.771484375 37.587890625,41.923828125 41.923828125,41.923828125 41.923828125,1.435546875 13.0078125,1.435546875z M11.572265625,0L43.359375,0 43.359375,43.359375 37.587890625,43.359375 37.587890625,49.130859375 31.81640625,49.130859375 31.81640625,54.931640625 0,54.931640625 0,11.54296875 5.77148485183716,11.54296875 5.77148485183716,5.771484375 11.572265625,5.771484375 11.572265625,0z" />
    </g>
  </g>
</svg>