<?xml version="1.0" encoding="utf-8"?>
<!DOCTYPE svg PUBLIC "-//W3C//DTD SVG 1.1//EN" "http://www.w3.org/Graphics/SVG/1.1/DTD/svg11.dtd">
<svg width="37.060546875" height="42.01171875" xmlns="http://www.w3.org/2000/svg" xmlns:xlink="http://www.w3.org/1999/xlink" xmlns:xml="http://www.w3.org/XML/1998/namespace" version="1.1">
  <g>
    <g>
      <path style="fill:#FF0000;fill-opacity:1" d="M0,0L7.8515625,0 7.8515625,27.333984375 8.01361083984375,30.3799438476563 8.499755859375,33.013916015625 9.30999755859375,35.2359008789063 10.4443359375,37.0458984375 11.9210815429688,38.4494018554688 13.758544921875,39.451904296875 15.9567260742188,40.0534057617188 18.515625,40.25390625 29.208984375,40.25390625 29.208984375,1.7578125 26.279296875,1.7578125 26.279296875,0 34.130859375,0 34.130859375,40.25390625 37.060546875,40.25390625 37.060546875,42.01171875 18.486328125,42.01171875 14.8937978744507,41.7544555664063 11.7626943588257,40.982666015625 9.09301662445068,39.6963500976563 6.884765625,37.8955078125 5.1544189453125,35.5636596679688 3.91845703125,32.684326171875 3.1768798828125,29.2575073242188 2.92968726158142,25.283203125 2.92968726158142,1.7578125 0,1.7578125 0,0z" />
    </g>
  </g>
</svg>