<?xml version="1.0" encoding="utf-8"?>
<!DOCTYPE svg PUBLIC "-//W3C//DTD SVG 1.1//EN" "http://www.w3.org/Graphics/SVG/1.1/DTD/svg11.dtd">
<svg width="34.365234375" height="56.513671875" xmlns="http://www.w3.org/2000/svg" xmlns:xlink="http://www.w3.org/1999/xlink" xmlns:xml="http://www.w3.org/XML/1998/namespace" version="1.1">
  <g>
    <g>
      <path style="fill:#FF0000;fill-opacity:1" d="M20.009765625,0L25.9130859375,0.615234375 30.439453125,1.962890625 34.365234375,3.92578125 34.365234375,9.462890625 29.560546875,9.462890625 29.560546875,4.833984375 27.7880859375,3.69140625 25.6787109375,2.7099609375 23.115234375,2.021484375 19.98046875,1.7578125 16.519775390625,2.17529296875 13.5205078125,3.427734375 10.9826650619507,5.3759765625 8.90625,7.880859375 7.291259765625,10.8691415786743 6.1376953125,14.267578125 5.445556640625,17.9370136260986 5.21484422683716,21.73828125 5.44921875,26.06689453125 6.15234375,29.970703125 7.31689453125,33.39111328125 8.935546875,36.26953125 11.0119619369507,38.57666015625 13.5498046875,40.283203125 16.541748046875,41.337890625 19.98046875,41.689453125 22.939453125,41.4404296875 25.5029296875,40.7666015625 27.7001953125,39.78515625 29.560546875,38.61328125 29.560546875,33.984375 34.365234375,33.984375 34.365234375,47.28515625 33.837890625,51.50390625 32.314453125,54.375 29.8974609375,56.0009765625 26.689453125,56.513671875 26.689453125,54.755859375 27.6708984375,54.5654296875 28.6083984375,53.818359375 29.296875,52.265625 29.560546875,49.62890625 29.560546875,41.8359375 25.3125,42.978515625 20.009765625,43.447265625 15.384521484375,43.0517578125 11.3525390625,41.865234375 7.91748046875,39.9609375 5.0830078125,37.412109375 2.86376953125,34.259033203125 1.27441358566284,30.5419921875 0.318603456020355,26.341552734375 0,21.73828125 0.314941465854645,17.1130390167236 1.25976610183716,12.9052734375 2.83447265625,9.188232421875 5.0390625,6.03515625 7.862548828125,3.486328125 11.2939453125,1.58203125 15.340576171875,0.3955078125 20.009765625,0z" />
    </g>
  </g>
</svg>