<?xml version="1.0" encoding="utf-8"?>
<!DOCTYPE svg PUBLIC "-//W3C//DTD SVG 1.1//EN" "http://www.w3.org/Graphics/SVG/1.1/DTD/svg11.dtd">
<svg width="41.1328125" height="43.447265625" xmlns="http://www.w3.org/2000/svg" xmlns:xlink="http://www.w3.org/1999/xlink" xmlns:xml="http://www.w3.org/XML/1998/namespace" version="1.1">
  <g>
    <g>
      <path style="fill:#FF0000;fill-opacity:1" d="M20.56640625,1.7578125L17.083740234375,2.0654296875 14.0185546875,2.98828125 11.3854970932007,4.442138671875 9.19921875,6.3427734375 7.474365234375,8.646240234375 6.2255859375,11.30859375 5.467529296875,14.2382831573486 5.21484375,17.34375 5.482177734375,20.526123046875 6.2841796875,23.5693359375 7.58056640625,26.44775390625 9.3310546875,29.1357421875 11.5246572494507,31.61865234375 14.150390625,33.8818359375 20.56640625,37.646484375 26.953125,33.8818359375 29.58251953125,31.61865234375 31.787109375,29.1357421875 33.548583984375,26.44775390625 34.8486328125,23.5693359375 35.650634765625,20.526123046875 35.91796875,17.34375 35.665283203125,14.2382831573486 34.9072265625,11.30859375 33.658447265625,8.646240234375 31.93359375,6.3427734375 29.747314453125,4.442138671875 27.1142578125,2.98828125 24.0490703582764,2.0654296875 20.56640625,1.7578125z M20.56640625,0L25.2612285614014,0.31494140625 29.384765625,1.259765625 32.9150390625,2.77587890625 35.830078125,4.8046875 38.12255859375,7.31689453125 39.78515625,10.283203125 40.7958984375,13.6450214385986 41.1328125,17.34375 40.909423828125,20.694580078125 40.2392578125,23.9501953125 39.08935546875,27.06298828125 37.4267578125,29.9853515625 35.2294921875,32.706298828125 32.4755859375,35.21484375 29.132080078125,37.4560546875 25.166015625,39.375 32.7099609375,41.0888671875 41.1328125,41.689453125 41.1328125,43.447265625 35.203857421875,43.289794921875 29.8388671875,42.8173828125 24.9792461395264,42.044677734375 20.56640625,40.986328125 16.153564453125,42.044677734375 11.2939453125,42.8173828125 5.928955078125,43.289794921875 0,43.447265625 0,41.689453125 8.3935546875,41.0888671875 15.966796875,39.375 12.0007314682007,37.4560546875 8.6572265625,35.21484375 5.9033203125,32.706298828125 3.70605516433716,29.9853515625 2.04345703125,27.06298828125 0.8935546875,23.9501953125 0.223388671875,20.694580078125 0,17.34375 0.336914122104645,13.6450214385986 1.34765672683716,10.283203125 3.01025390625,7.31689453125 5.302734375,4.8046875 8.2177734375,2.77587890625 11.748046875,1.259765625 15.87158203125,0.31494140625 20.56640625,0z" />
    </g>
  </g>
</svg>