<?xml version="1.0" encoding="utf-8"?>
<!DOCTYPE svg PUBLIC "-//W3C//DTD SVG 1.1//EN" "http://www.w3.org/Graphics/SVG/1.1/DTD/svg11.dtd">
<svg width="46.025390625" height="30.703125" xmlns="http://www.w3.org/2000/svg" xmlns:xlink="http://www.w3.org/1999/xlink" xmlns:xml="http://www.w3.org/XML/1998/namespace" version="1.1">
  <g>
    <g>
      <path style="fill:#FF0000;fill-opacity:1" d="M3.92578125,0L9.43359375,0 6.3427734375,10.869140625 5.452880859375,15.8349609375 5.15625,20.009765625 5.478515625,22.94677734375 6.4453125,25.01953125 8.0126953125,26.25 10.13671875,26.66015625 13.13232421875,26.004638671875 15.615234375,24.0380859375 17.57080078125,20.738525390625 18.984375,16.083984375 21.6796875,3.779296875 26.6015625,3.779296875 23.876953125,16.552734375 23.49609375,18.486328125 23.3203125,20.390625 23.6828594207764,22.987060546875 24.7705078125,24.9755859375 26.5026836395264,26.239013671875 28.798828125,26.66015625 31.314697265625,26.2619018554688 33.5009765625,25.067138671875 35.357666015625,23.0758666992188 36.884765625,20.2880859375 38.155517578125,16.6305541992188 39.2431640625,12.030029296875 40.147705078125,6.48651123046875 40.869140625,0 46.025390625,0 45.2114868164063,7.5054931640625 44.058837890625,13.90869140625 42.5674438476563,19.2095947265625 40.7373046875,23.408203125 38.4951782226563,26.5997314453125 35.767822265625,28.87939453125 32.5552368164063,30.2471923828125 28.857421875,30.703125 25.7116680145264,30.281982421875 23.1298828125,29.0185546875 21.170654296875,26.956787109375 19.892578125,24.140625 17.801513671875,27.12158203125 15.3955078125,29.150390625 12.637939453125,30.31494140625 9.4921875,30.703125 5.540771484375,30.025634765625 2.5341796875,27.9931640625 0.633544921875,24.737548828125 0,20.390625 0.2783203125,16.0693359375 1.11328125,10.95703125 3.92578125,0z" />
    </g>
  </g>
</svg>