<?xml version="1.0" encoding="utf-8"?>
<!DOCTYPE svg PUBLIC "-//W3C//DTD SVG 1.1//EN" "http://www.w3.org/Graphics/SVG/1.1/DTD/svg11.dtd">
<svg width="30.76171875" height="43.41796875" xmlns="http://www.w3.org/2000/svg" xmlns:xlink="http://www.w3.org/1999/xlink" xmlns:xml="http://www.w3.org/XML/1998/namespace" version="1.1">
  <g>
    <g>
      <path style="fill:#FF0000;fill-opacity:1" d="M21.796875,0L25.5358867645264,0.50537109375 28.3740234375,2.021484375 30.1647930145264,4.35791015625 30.76171875,7.32421875 30.1757793426514,10.6201181411743 28.41796875,13.59375 25.4589824676514,16.2377948760986 21.26953125,18.544921875 24.180908203125,20.2294921875 26.4111328125,22.353515625 27.8283672332764,24.96826171875 28.30078125,28.125 27.9162578582764,31.1618041992188 26.7626934051514,33.973388671875 24.8400859832764,36.5597534179688 22.1484375,38.9208984375 18.9093017578125,40.8883666992188 15.34423828125,42.293701171875 11.4532470703125,43.1369018554688 7.236328125,43.41796875 3.53027319908142,43.30078125 0,42.919921875 1.46484398841858,38.4375 3.99902367591858,38.8037109375 7.08984327316284,38.96484375 10.2932739257813,38.7771606445313 13.253173828125,38.214111328125 15.9695434570313,37.2756958007813 18.4423828125,35.9619140625 20.4995727539063,34.3826293945313 21.968994140625,32.647705078125 22.8506469726563,30.7571411132813 23.14453125,28.7109375 22.620849609375,25.87646484375 21.0498046875,23.642578125 18.321533203125,21.96533203125 14.326171875,20.80078125 15.791015625,16.40625 20.00244140625,14.6667499542236 23.0859375,12.7294921875 24.9755859375,10.6457529067993 25.60546875,8.466796875 25.2392578125,6.84814453125 24.140625,5.56640625 22.43408203125,4.7314453125 20.244140625,4.453125 16.5380859375,5.0390625 12.0703125,6.85546875 13.59375,2.021484375 15.3259267807007,1.2744140625 17.5927734375,0.615234375 19.910888671875,0.15380859375 21.796875,0z" />
    </g>
  </g>
</svg>