<?xml version="1.0" encoding="utf-8"?>
<!DOCTYPE svg PUBLIC "-//W3C//DTD SVG 1.1//EN" "http://www.w3.org/Graphics/SVG/1.1/DTD/svg11.dtd">
<svg width="81.357421875" height="56.8359375" xmlns="http://www.w3.org/2000/svg" xmlns:xlink="http://www.w3.org/1999/xlink" xmlns:xml="http://www.w3.org/XML/1998/namespace" version="1.1">
  <g>
    <g>
      <path style="fill:#FF0000;fill-opacity:1" d="M16.69921875,3.046875L24.462890625,3.45703125 22.998046875,7.8515625 16.494140625,7.5 11.9641103744507,8.056640625 8.3349609375,9.7265625 6.94427490234375,10.9259042739868 5.950927734375,12.2973651885986 5.35491943359375,13.8409433364868 5.15625047683716,15.556640625 5.3631591796875,17.4041748046875 5.98388671875,19.05029296875 7.0184326171875,20.4949951171875 8.466796875,21.73828125 12.41455078125,23.4521484375 17.63671875,24.0234375 20.2001953125,23.7744140625 21.9140625,23.232421875 24.521484375,25.72265625 9.228515625,43.41796875 2.783203125,43.41796875 15.87890625,28.2421875 12.4429321289063,28.0123901367188 9.371337890625,27.322998046875 6.66412353515625,26.1740112304688 4.32128953933716,24.5654296875 2.43072533607483,22.6107788085938 1.080322265625,20.423583984375 0.27008056640625,18.0038452148438 0,15.3515625 0.29296875,12.6818857192993 1.171875,10.2978525161743 2.63671851158142,8.199462890625 4.68749952316284,6.38671875 7.19604396820068,4.925537109375 10.0341787338257,3.8818359375 13.2019033432007,3.255615234375 16.69921875,3.046875z M46.9921875,0L50.2770957946777,0.21240234375 53.1591758728027,0.849609375 55.6384239196777,1.91162109375 57.71484375,3.3984375 59.35546875,5.240478515625 60.52734375,7.3681640625 61.23046875,9.781494140625 61.46484375,12.48046875 61.2249755859375,14.8471078872681 60.50537109375,17.1716327667236 59.3060302734375,19.4540424346924 57.626953125,21.6943359375 53.4741172790527,25.587158203125 48.69140625,28.388671875 51.4947471618652,31.3604736328125 54.8950157165527,34.70947265625 58.8922080993652,38.4356689453125 63.486328125,42.5390625 72.8466796875,50.4052734375 81.357421875,56.8359375 73.212890625,56.8359375 65.533447265625,50.848388671875 57.5537109375,43.9599609375 49.2370567321777,36.170654296875 40.546875,27.48046875 40.869140625,26.513671875 44.398494720459,25.037841796875 47.4865684509277,23.4521484375 50.133358001709,21.756591796875 52.3388671875,19.951171875 54.0756187438965,18.0999774932861 55.3161582946777,16.2670917510986 56.0604820251465,14.4525156021118 56.30859375,12.65625 55.6860313415527,9.17724609375 53.818359375,6.591796875 50.9179649353027,4.98779296875 47.197265625,4.453125 43.41796875,4.951171875 38.642578125,6.5625 40.4296875,1.259765625 41.737060546875,0.809326171875 43.4912109375,0.3955078125 46.9921875,0z" />
    </g>
  </g>
</svg>