<?xml version="1.0" encoding="utf-8"?>
<!DOCTYPE svg PUBLIC "-//W3C//DTD SVG 1.1//EN" "http://www.w3.org/Graphics/SVG/1.1/DTD/svg11.dtd">
<svg width="55.6640625" height="43.447265625" xmlns="http://www.w3.org/2000/svg" xmlns:xlink="http://www.w3.org/1999/xlink" xmlns:xml="http://www.w3.org/XML/1998/namespace" version="1.1">
  <g>
    <g>
      <path style="fill:#FF0000;fill-opacity:1" d="M31.46484375,18.896484375L42.216796875,18.896484375 40.751953125,23.349609375 29.970703125,23.349609375 31.46484375,18.896484375z M14.00390625,0.703125L18.75,0.703125 4.74609422683716,42.71484375 0,42.71484375 14.00390625,0.703125z M40.1953125,0L43.5827598571777,0.263671875 46.5966758728027,1.0546875 49.2370567321777,2.373046875 51.50390625,4.21875 53.3239707946777,6.49475145339966 54.6240196228027,9.10400485992432 55.4040489196777,12.0465097427368 55.6640625,15.322265625 55.4415855407715,19.0017700195313 54.7741661071777,22.569580078125 53.6618003845215,26.0256958007813 52.1044921875,29.3701171875 47.8454551696777,35.240478515625 42.1875,39.697265625 38.8970947265625,41.337890625 35.38330078125,42.509765625 31.6461181640625,43.212890625 27.685546875,43.447265625 24.2395000457764,43.29345703125 21.4013671875,42.83203125 19.105224609375,42.18017578125 17.28515625,41.455078125 18.80859375,36.73828125 21.9250469207764,37.935791015625 24.4189453125,38.5986328125 28.41796875,38.994140625 31.461181640625,38.7881469726563 34.3505859375,38.170166015625 37.086181640625,37.1401977539063 39.66796875,35.6982421875 44.154052734375,31.798095703125 47.5927734375,26.689453125 49.7790489196777,20.95458984375 50.5078125,15.17578125 50.3155479431152,12.8054819107056 49.7387657165527,10.7043466567993 48.7774620056152,8.87237548828125 47.431640625,7.3095703125 43.71826171875,5.167236328125 38.73046875,4.453125 33.2080078125,5.1123046875 28.623046875,6.62109375 30.205078125,1.669921875 34.541015625,0.498046875 40.1953125,0z" />
    </g>
  </g>
</svg>