<?xml version="1.0" encoding="utf-8"?>
<!DOCTYPE svg PUBLIC "-//W3C//DTD SVG 1.1//EN" "http://www.w3.org/Graphics/SVG/1.1/DTD/svg11.dtd">
<svg width="45.8203125" height="56.689453125" xmlns="http://www.w3.org/2000/svg" xmlns:xlink="http://www.w3.org/1999/xlink" xmlns:xml="http://www.w3.org/XML/1998/namespace" version="1.1">
  <g>
    <g>
      <path style="fill:#FF0000;fill-opacity:1" d="M24.990234375,28.447265625L28.53515625,31.904296875 26.0046367645264,34.603271484375 23.8037109375,38.3056640625 22.2766094207764,42.286376953125 21.767578125,45.8203125 22.1813945770264,48.50830078125 23.4228515625,50.537109375 25.3308086395264,51.8115234375 27.744140625,52.236328125 32.86376953125,51.58447265625 37.03125,49.62890625 38.646240234375,48.277587890625 39.7998046875,46.8310546875 40.491943359375,45.289306640625 40.72265625,43.65234375 40.24658203125,41.488037109375 38.818359375,39.9169921875 36.416015625,38.961181640625 33.017578125,38.642578125 28.125,39.052734375 29.82421875,34.5703125 33.896484375,34.27734375 38.95751953125,34.87060546875 42.71484375,36.650390625 44.0734825134277,37.928466796875 45.0439414978027,39.3896484375 45.6262168884277,41.033935546875 45.8203125,42.861328125 45.2673301696777,46.07666015625 43.6083984375,49.27734375 40.894775390625,52.19970703125 37.177734375,54.580078125 32.68798828125,56.162109375 27.65625,56.689453125 23.3093242645264,55.960693359375 19.7607421875,53.7744140625 18.3828735351563,52.1823120117188 17.398681640625,50.321044921875 16.8081665039063,48.1906127929688 16.611328125,45.791015625 17.21923828125,41.44775390625 19.04296875,36.62109375 21.7456035614014,32.04345703125 24.990234375,28.447265625z M7.880859375,11.572265625L12.451171875,11.572265625 12.451171875,55.986328125 7.880859375,55.986328125 7.880859375,11.572265625z M14.150390625,0L19.306640625,0 4.306640625,9.609375 0,9.609375 14.150390625,0z" />
    </g>
  </g>
</svg>