<?xml version="1.0" encoding="utf-8"?>
<!DOCTYPE svg PUBLIC "-//W3C//DTD SVG 1.1//EN" "http://www.w3.org/Graphics/SVG/1.1/DTD/svg11.dtd">
<svg width="46.904296875" height="56.8359375" xmlns="http://www.w3.org/2000/svg" xmlns:xlink="http://www.w3.org/1999/xlink" xmlns:xml="http://www.w3.org/XML/1998/namespace" version="1.1">
  <g>
    <g>
      <path style="fill:#FF0000;fill-opacity:1" d="M21.97265625,0L25.7116680145264,0.50537109375 28.5498046875,2.021484375 30.3405742645264,4.35791015625 30.9375,7.32421875 30.3515605926514,10.6201181411743 28.59375,13.59375 25.6347637176514,16.2377948760986 21.4453125,18.544921875 24.356689453125,20.2294921875 26.5869140625,22.353515625 28.0041484832764,24.96826171875 28.4765625,28.125 27.8613262176514,31.776123046875 26.015625,35.2880859375 23.126220703125,38.426513671875 19.3798828125,40.95703125 15.1794424057007,42.685546875 10.927734375,43.41796875 14.4415283203125,44.7756958007813 18.42041015625,46.124267578125 22.8643798828125,47.4636840820313 27.7734375,48.7939453125 37.69775390625,51.060791015625 46.904296875,52.55859375 45.3515625,56.8359375 33.43505859375,54.730224609375 21.533203125,51.6943359375 10.20263671875,47.874755859375 0,43.41796875 1.72851502895355,38.49609375 4.6142578125,38.8623046875 7.265625,38.96484375 10.4690542221069,38.7771606445313 13.4289541244507,38.214111328125 16.1453247070313,37.2756958007813 18.6181640625,35.9619140625 20.6753540039063,34.3826293945313 22.144775390625,32.647705078125 23.0264282226563,30.7571411132813 23.3203125,28.7109375 22.796630859375,25.87646484375 21.2255859375,23.642578125 18.497314453125,21.96533203125 14.501953125,20.80078125 15.966796875,16.40625 20.17822265625,14.6667499542236 23.26171875,12.7294921875 25.1513652801514,10.6457529067993 25.78125,8.466796875 25.4150371551514,6.84814453125 24.31640625,5.56640625 22.60986328125,4.7314453125 20.419921875,4.453125 16.7138671875,5.0390625 12.24609375,6.85546875 13.76953125,2.021484375 15.5017080307007,1.2744140625 17.7685546875,0.615234375 20.086669921875,0.15380859375 21.97265625,0z" />
    </g>
  </g>
</svg>