<?xml version="1.0" encoding="utf-8"?>
<!DOCTYPE svg PUBLIC "-//W3C//DTD SVG 1.1//EN" "http://www.w3.org/Graphics/SVG/1.1/DTD/svg11.dtd">
<svg width="61.40625" height="56.8359375" xmlns="http://www.w3.org/2000/svg" xmlns:xlink="http://www.w3.org/1999/xlink" xmlns:xml="http://www.w3.org/XML/1998/namespace" version="1.1">
  <g>
    <g>
      <path style="fill:#FF0000;fill-opacity:1" d="M24.19921875,0L28.3007793426514,0.64453125 31.69921875,2.578125 33.0322265625,3.93310546875 33.984375,5.419921875 34.5556640625,7.03857421875 34.74609375,8.7890625 34.74609375,10.72265625 28.18359375,18.486328125 36.650390625,23.02734375 23.84765625,41.513671875 27.5894165039063,43.3786010742188 31.724853515625,45.135498046875 36.2539672851563,46.7843627929688 41.1767578125,48.3251953125 51.3537559509277,50.870361328125 61.40625,52.55859375 59.912109375,56.8359375 49.2700157165527,54.949951171875 37.44140625,51.6943359375 31.5289287567139,49.6572875976563 26.2133769989014,47.486572265625 21.4947490692139,45.1821899414063 17.373046875,42.744140625 17.6953125,41.748046875 29.82421875,24.2578125 21.181640625,19.86328125 29.82421875,9.66796875 29.3884258270264,7.642822265625 28.0810546875,5.9619140625 26.1437969207764,4.830322265625 23.818359375,4.453125 20.74951171875,4.98046875 18.45703125,6.5625 16.640625,9.30908203125 15,13.330078125 5.15624952316284,42.71484375 0,42.71484375 10.3125,11.806640625 11.4248647689819,8.85498046875 12.6818838119507,6.357421875 14.0835561752319,4.31396484375 15.6298828125,2.724609375 19.390869140625,0.68115234375 24.19921875,0z" />
    </g>
  </g>
</svg>