<?xml version="1.0" encoding="utf-8"?>
<!DOCTYPE svg PUBLIC "-//W3C//DTD SVG 1.1//EN" "http://www.w3.org/Graphics/SVG/1.1/DTD/svg11.dtd">
<svg width="23.37890625" height="42.59765625" xmlns="http://www.w3.org/2000/svg" xmlns:xlink="http://www.w3.org/1999/xlink" xmlns:xml="http://www.w3.org/XML/1998/namespace" version="1.1">
  <g>
    <g>
      <path style="fill:#FF0000;fill-opacity:1" d="M17.16796875,0L19.6838359832764,0.47607421875 21.6650390625,1.904296875 22.9504375457764,3.8818359375 23.37890625,6.005859375 22.6684551239014,9.70092868804932 20.537109375,12.4072265625 16.9482421875,14.0661640167236 11.865234375,14.619140625 10.517578125,14.5751953125 9.462890625,14.47265625 9.78515625,17.2998046875 9.873046875,20.068359375 9.56909084320068,24.283447265625 8.6572265625,29.5458984375 7.11547756195068,35.701904296875 4.921875,42.59765625 0,42.59765625 2.04711890220642,36.26220703125 3.6181640625,30.146484375 4.617919921875,24.6826171875 4.951171875,20.302734375 4.2333984375,12.4951171875 3.78570556640625,10.2731323242188 3.160400390625,7.547607421875 2.35748267173767,4.31854248046875 1.37695264816284,0.5859375 6.298828125,0.5859375 7.177734375,3.837890625 7.9248046875,6.826171875 8.671875,10.048828125 9.6240234375,10.13671875 11.396484375,10.1953125 14.666748046875,10.008544921875 16.8603515625,9.4482421875 18.1018047332764,8.411865234375 18.515625,6.796875 17.7685546875,5.1708984375 15.703125,4.453125 17.16796875,0z" />
    </g>
  </g>
</svg>