<?xml version="1.0" encoding="utf-8"?>
<!DOCTYPE svg PUBLIC "-//W3C//DTD SVG 1.1//EN" "http://www.w3.org/Graphics/SVG/1.1/DTD/svg11.dtd">
<svg width="36.97265625" height="55.4296875" xmlns="http://www.w3.org/2000/svg" xmlns:xlink="http://www.w3.org/1999/xlink" xmlns:xml="http://www.w3.org/XML/1998/namespace" version="1.1">
  <g>
    <g>
      <path style="fill:#FF0000;fill-opacity:1" d="M32.28515625,48.310546875L31.640625,48.7060546875 31.435546875,49.541015625 31.6259765625,50.361328125 32.314453125,50.7421875 32.958984375,50.4052734375 33.193359375,49.658203125 33.1494140625,49.21875 32.98828125,48.779296875 32.6953125,48.4423828125 32.28515625,48.310546875z M32.314453125,47.8125L33.046875,48.046875 33.5009765625,48.6474609375 33.75,49.453125 33.837890625,50.2734375 33.7353515625,51.3134765625 33.3984375,52.3828125 32.8125,53.2177734375 31.93359375,53.5546875 31.4501953125,53.525390625 31.11328125,53.408203125 31.11328125,52.822265625 31.494140625,52.9833984375 31.904296875,53.02734375 32.5634765625,52.7783203125 32.958984375,52.1337890625 33.1640625,51.3134765625 33.22265625,50.537109375 32.783203125,51.1083984375 32.16796875,51.298828125 31.1865234375,50.7861328125 30.849609375,49.62890625 31.2158203125,48.3837890625 32.314453125,47.8125z M23.759765625,42.568359375L26.77734375,42.568359375 26.77734375,43.0078125 26.162109375,43.798828125 25.8984375,45.087890625 26.3525390625,44.853515625 26.923828125,44.765625 28.1982421875,45.2490234375 28.7109375,46.552734375 28.2275390625,47.7978515625 26.953125,48.33984375 27.0263671875,48.6328125 27.041015625,48.92578125 26.54296875,50.2001953125 25.25390625,50.712890625 23.9794921875,50.2001953125 23.49609375,48.92578125 23.525390625,48.6328125 23.583984375,48.33984375 22.3095703125,47.7978515625 21.826171875,46.552734375 22.353515625,45.2490234375 23.61328125,44.765625 24.1845703125,44.853515625 24.638671875,45.087890625 24.375,43.798828125 23.759765625,43.0078125 23.759765625,42.568359375z M10.107421875,42.568359375L13.125,42.568359375 13.125,43.0078125 12.509765625,43.798828125 12.24609375,45.087890625 12.7001953125,44.853515625 13.271484375,44.765625 14.560546875,45.2490234375 15.087890625,46.552734375 14.58984375,47.7978515625 13.30078125,48.33984375 13.388671875,48.6328125 13.41796875,48.92578125 12.919921875,50.2001953125 11.6015625,50.712890625 10.3271484375,50.2001953125 9.84375,48.92578125 9.873046875,48.6328125 9.931640625,48.33984375 8.6572265625,47.7978515625 8.173828125,46.552734375 8.701171875,45.2490234375 9.9609375,44.765625 10.5322265625,44.853515625 10.986328125,45.087890625 10.72265625,43.798828125 10.107421875,43.0078125 10.107421875,42.568359375z M31.34765625,41.865234375L33.10546875,41.865234375 33.10546875,42.099609375 32.75390625,42.5830078125 32.607421875,43.330078125 33.193359375,43.154296875 33.955078125,43.4326171875 34.248046875,44.208984375 33.955078125,44.9267578125 33.22265625,45.234375 33.28125,45.5859375 32.98828125,46.3330078125 32.2265625,46.640625 31.46484375,46.3330078125 31.171875,45.5859375 31.23046875,45.234375 30.46875,44.9267578125 30.17578125,44.208984375 30.498046875,43.4326171875 31.259765625,43.154296875 31.845703125,43.330078125 31.6845703125,42.568359375 31.34765625,42.099609375 31.34765625,41.865234375z M25.3125,23.96484375L26.5869140625,24.4775390625 27.0703125,25.751953125 27.0556640625,26.044921875 26.982421875,26.337890625 28.2568359375,26.8798828125 28.740234375,28.125 28.212890625,29.4287109375 26.953125,29.912109375 26.3818359375,29.82421875 25.927734375,29.58984375 26.19140625,30.87890625 26.806640625,31.669921875 26.806640625,32.109375 23.7890625,32.109375 23.7890625,31.669921875 24.404296875,30.87890625 24.66796875,29.58984375 24.2138671875,29.82421875 23.642578125,29.912109375 22.3681640625,29.4287109375 21.85546875,28.125 22.3388671875,26.8798828125 23.61328125,26.337890625 23.5400390625,26.044921875 23.525390625,25.751953125 24.0234375,24.4775390625 25.3125,23.96484375z M11.66015625,23.96484375L12.9345703125,24.4775390625 13.41796875,25.751953125 13.4033203125,26.044921875 13.330078125,26.337890625 14.6044921875,26.8798828125 15.087890625,28.125 14.5751953125,29.4287109375 13.30078125,29.912109375 12.7294921875,29.82421875 12.275390625,29.58984375 12.5390625,30.87890625 13.154296875,31.669921875 13.154296875,32.109375 10.13671875,32.109375 10.13671875,31.669921875 10.751953125,30.87890625 11.015625,29.58984375 10.5615234375,29.82421875 9.990234375,29.912109375 8.73046875,29.4287109375 8.203125,28.125 8.6865234375,26.8798828125 9.9609375,26.337890625 9.90234375,26.044921875 9.873046875,25.751953125 10.37109375,24.4775390625 11.66015625,23.96484375z M4.68750095367432,9.08203125L5.44921875,9.3896484375 5.7421875,10.13671875 5.68359422683716,10.48828125 6.44531345367432,10.810546875 6.73828220367432,11.54296875 6.43066453933716,12.3046875 5.65429735183716,12.568359375 5.06835985183716,12.392578125 5.22949266433716,13.1689453125 5.595703125,13.623046875 5.595703125,13.857421875 3.80859470367432,13.857421875 3.80859470367432,13.623046875 4.16015672683716,13.154296875 4.30664110183716,12.392578125 3.72070360183716,12.568359375 2.97363328933716,12.3046875 2.666015625,11.54296875 2.958984375,10.810546875 3.69140625,10.48828125 3.63281297683716,10.13671875 3.92578172683716,9.3896484375 4.68750095367432,9.08203125z M25.3125,5.009765625L26.5869140625,5.537109375 27.0703125,6.796875 27.0556640625,7.08984375 26.982421875,7.3828125 28.2568359375,7.9248046875 28.740234375,9.169921875 28.212890625,10.4736328125 26.953125,10.95703125 26.3818359375,10.869140625 25.927734375,10.634765625 26.19140625,11.923828125 26.806640625,12.71484375 26.806640625,13.154296875 23.7890625,13.154296875 23.7890625,12.71484375 24.404296875,11.923828125 24.66796875,10.634765625 24.2138671875,10.869140625 23.642578125,10.95703125 22.3681640625,10.4736328125 21.85546875,9.169921875 22.3388671875,7.9248046875 23.61328125,7.3828125 23.5400390625,7.08984375 23.525390625,6.796875 24.0234375,5.537109375 25.3125,5.009765625z M11.66015625,5.009765625L12.9345703125,5.537109375 13.41796875,6.796875 13.4033203125,7.08984375 13.330078125,7.3828125 14.6044921875,7.9248046875 15.087890625,9.169921875 14.5751953125,10.4736328125 13.30078125,10.95703125 12.7294921875,10.869140625 12.275390625,10.634765625 12.5390625,11.923828125 13.154296875,12.71484375 13.154296875,13.154296875 10.13671875,13.154296875 10.13671875,12.71484375 10.751953125,11.923828125 11.015625,10.634765625 10.5615234375,10.869140625 9.990234375,10.95703125 8.73046875,10.4736328125 8.203125,9.169921875 8.6865234375,7.9248046875 9.9609375,7.3828125 9.90234375,7.08984375 9.873046875,6.796875 10.37109375,5.537109375 11.66015625,5.009765625z M4.62890672683716,4.98046875L3.984375,5.3173828125 3.75000047683716,6.064453125 3.79394626617432,6.50390625 3.95507907867432,6.943359375 4.24804782867432,7.2802734375 4.65820360183716,7.412109375 5.3173828125,7.0166015625 5.50781297683716,6.2109375 5.3173828125,5.36132860183716 4.62890672683716,4.98046875z M5.009765625,2.16796827316284L5.83007860183716,2.31445264816284 5.83007860183716,2.90039014816284 5.44921875,2.73925733566284 5.03906297683716,2.6953125 4.37988376617432,2.958984375 3.984375,3.60351610183716 3.77929735183716,4.423828125 3.72070360183716,5.21484422683716 4.16015672683716,4.62158203125 4.77539110183716,4.423828125 5.78613328933716,4.93652391433716 6.12304735183716,6.09375 5.7421875,7.3388671875 4.62890672683716,7.91015625 3.89648485183716,7.67578125 3.44238328933716,7.0751953125 3.20800876617432,6.2841796875 3.13476610183716,5.44921875 3.22265720367432,4.4091796875 3.544921875,3.33984327316284 4.130859375,2.5048828125 5.009765625,2.16796827316284z M1.34765636920929,1.34765625L1.34765636920929,54.08203125 35.625,54.08203125 35.625,1.34765625 1.34765636920929,1.34765625z M0,0L36.97265625,0 36.97265625,55.4296875 0,55.4296875 0,0z" />
    </g>
  </g>
</svg>