<?xml version="1.0" encoding="utf-8"?>
<!DOCTYPE svg PUBLIC "-//W3C//DTD SVG 1.1//EN" "http://www.w3.org/Graphics/SVG/1.1/DTD/svg11.dtd">
<svg width="36.97265625" height="55.4296875" xmlns="http://www.w3.org/2000/svg" xmlns:xlink="http://www.w3.org/1999/xlink" xmlns:xml="http://www.w3.org/XML/1998/namespace" version="1.1">
  <g>
    <g>
      <path style="fill:#FF0000;fill-opacity:1" d="M32.666015625,47.75390625L33.720703125,48.076171875 33.720703125,48.75 32.666015625,48.310546875 31.8896484375,48.603515625 31.611328125,49.39453125 31.92626953125,50.185546875 32.87109375,50.44921875 33.251953125,50.44921875 33.251953125,51.005859375 32.900390625,51.005859375 32.0654296875,51.26953125 31.787109375,52.060546875 31.99951171875,52.78564453125 32.63671875,53.02734375 33.544921875,52.646484375 33.544921875,53.232421875 32.51953125,53.5546875 31.552734375,53.173828125 31.171875,52.20703125 31.4208984375,51.30615234375 32.16796875,50.771484375 32.16796875,50.7421875 31.34765625,50.33203125 31.025390625,49.423828125 31.494140625,48.2373046875 32.666015625,47.75390625z M18.486328125,42.48046875L21.357421875,46.611328125 18.486328125,50.7421875 15.64453125,46.611328125 18.486328125,42.48046875z M32.2265625,41.865234375L33.896484375,44.23828125 32.2265625,46.640625 30.5859375,44.23828125 32.2265625,41.865234375z M18.486328125,23.935546875L21.357421875,28.06640625 18.486328125,32.197265625 15.64453125,28.06640625 18.486328125,23.935546875z M4.68750095367432,9.08203125L6.328125,11.513671875 4.68750095367432,13.857421875 3.01757860183716,11.513671875 4.68750095367432,9.08203125z M18.486328125,4.95117139816284L21.357421875,9.08203125 18.486328125,13.212890625 15.64453125,9.08203125 18.486328125,4.95117139816284z M4.45312547683716,2.10937547683716L5.39062547683716,2.5048828125 5.77148485183716,3.45703172683716 5.5224609375,4.37255859375 4.77539110183716,4.892578125 4.77539110183716,4.92187547683716 5.6103515625,5.3466796875 5.94726610183716,6.240234375 5.4638671875,7.44140625 4.27734375,7.91015625 3.22265720367432,7.587890625 3.22265720367432,6.9140625 4.27734375,7.3828125 5.05371141433716,7.08984375 5.33203172683716,6.26953125 5.01708984375,5.478515625 4.07226610183716,5.21484422683716 3.69140625,5.21484422683716 3.69140625,4.6875 4.04296922683716,4.6875 4.8779296875,4.41650390625 5.15625,3.60351610183716 4.94384765625,2.900390625 4.30664110183716,2.666015625 3.3984375,3.04687452316284 3.3984375,2.43164110183716 4.45312547683716,2.10937547683716z M1.34765636920929,1.34765625L1.34765636920929,54.08203125 35.625,54.08203125 35.625,1.34765625 1.34765636920929,1.34765625z M0,0L36.97265625,0 36.97265625,55.4296875 0,55.4296875 0,0z" />
    </g>
  </g>
</svg>