<?xml version="1.0" encoding="utf-8"?>
<!DOCTYPE svg PUBLIC "-//W3C//DTD SVG 1.1//EN" "http://www.w3.org/Graphics/SVG/1.1/DTD/svg11.dtd">
<svg width="36.97265625" height="55.4296875" xmlns="http://www.w3.org/2000/svg" xmlns:xlink="http://www.w3.org/1999/xlink" xmlns:xml="http://www.w3.org/XML/1998/namespace" version="1.1">
  <g>
    <g>
      <path style="fill:#FF0000;fill-opacity:1" d="M30.17578125,48.22265625L31.0546875,48.22265625 33.310546875,50.888671875 33.310546875,48.22265625 33.955078125,48.22265625 33.955078125,53.642578125 33.310546875,53.642578125 33.310546875,51.09375 31.142578125,53.642578125 30.3515625,53.642578125 32.666015625,51.03515625 30.17578125,48.22265625z M12.275390625,43.154296875L19.6875,43.154296875 20.91796875,46.142578125 19.04296875,44.4140625 17.75390625,46.142578125 16.11328125,44.4140625 14.6484375,46.142578125 13.2421875,44.4140625 11.044921875,46.142578125 12.275390625,43.154296875z M31.34765625,41.865234375L33.10546875,41.865234375 33.10546875,42.099609375 32.75390625,42.5830078125 32.607421875,43.330078125 33.193359375,43.154296875 33.955078125,43.4326171875 34.248046875,44.208984375 33.955078125,44.9267578125 33.22265625,45.234375 33.28125,45.5859375 32.98828125,46.3330078125 32.2265625,46.640625 31.46484375,46.3330078125 31.171875,45.5859375 31.23046875,45.234375 30.46875,44.9267578125 30.17578125,44.208984375 30.498046875,43.4326171875 31.259765625,43.154296875 31.845703125,43.330078125 31.6845703125,42.568359375 31.34765625,42.099609375 31.34765625,41.865234375z M18.193359375,40.37109375L18.8232421875,40.4736328125 19.072265625,40.751953125 18.8232421875,41.044921875 18.193359375,41.162109375 17.548828125,41.044921875 17.28515625,40.751953125 17.548828125,40.4736328125 18.193359375,40.37109375z M15.087890625,40.37109375L15.7177734375,40.4736328125 15.966796875,40.751953125 15.7177734375,41.044921875 15.087890625,41.162109375 14.47265625,41.044921875 14.208984375,40.751953125 14.47265625,40.4736328125 15.087890625,40.37109375z M22.822265625,39.404296875L25.400390625,39.404296875 25.400390625,39.755859375 24.8876953125,40.4736328125 24.66796875,41.572265625 25.048828125,41.3525390625 25.546875,41.279296875 26.630859375,41.689453125 27.0703125,42.83203125 26.6455078125,43.9013671875 25.546875,44.35546875 25.60546875,44.6044921875 25.634765625,44.8828125 25.2099609375,45.966796875 24.08203125,46.40625 22.9833984375,45.966796875 22.55859375,44.8828125 22.587890625,44.6044921875 22.67578125,44.35546875 21.5478515625,43.9013671875 21.123046875,42.83203125 21.5771484375,41.689453125 22.67578125,41.279296875 23.173828125,41.3525390625 23.5546875,41.572265625 23.3203125,40.458984375 22.822265625,39.755859375 22.822265625,39.404296875z M16.435546875,38.935546875L17.28515625,38.935546875 16.962890625,40.6640625 16.69921875,40.6640625 16.904296875,39.228515625 16.435546875,39.228515625 16.435546875,38.935546875z M18.779296875,37.998046875L18.134765625,38.3642578125 16.962890625,38.583984375 15.380859375,38.349609375 14.58984375,38.02734375 13.916015625,38.6572265625 13.447265625,39.755859375 13.857421875,42.421875 19.3359375,42.421875 19.3359375,40.576171875 18.779296875,37.998046875z M15.9375,37.412109375L17.900390625,37.412109375 17.900390625,37.705078125 15.9375,37.705078125 15.9375,37.412109375z M17.021484375,36.943359375L16.494140625,37.0166015625 15.99609375,37.119140625 15.41015625,37.265625 15.41015625,37.705078125 15.76171875,37.822265625 16.259765625,37.91015625 16.962890625,37.939453125 17.4462890625,37.91015625 17.87109375,37.822265625 18.251953125,37.705078125 18.251953125,37.265625 17.87109375,37.08984375 17.4462890625,37.001953125 17.021484375,36.943359375z M25.78125,24.931640625L26.30859375,24.931640625 25.927734375,28.037109375 25.0927734375,30.9521484375 23.49609375,33.837890625 22.1484375,35.15625 20.7421875,36.005859375 19.51171875,36.474609375 18.69140625,36.6796875 19.39453125,38.5107421875 19.6875,40.6640625 19.6875,42.71484375 12.24609375,42.71484375 10.4296875,35.712890625 12.802734375,35.712890625 13.0078125,36.62109375 13.740234375,36.09375 14.35546875,35.6689453125 14.8388671875,35.15625 15.146484375,34.365234375 19.130859375,34.365234375 19.0283203125,34.7021484375 18.8671875,35.185546875 18.720703125,35.712890625 18.662109375,36.2109375 19.5703125,35.9765625 20.6982421875,35.537109375 21.9287109375,34.7607421875 23.14453125,33.57421875 24.580078125,30.9228515625 25.37109375,28.095703125 25.78125,24.931640625z M18.896484375,17.666015625L20.830078125,17.666015625 20.830078125,17.98828125 18.896484375,17.98828125 18.896484375,17.666015625z M19.8046875,17.4609375L19.306640625,17.490234375 18.896484375,17.578125 18.515625,17.666015625 18.515625,18.134765625 18.896484375,18.28125 19.3212890625,18.3837890625 19.74609375,18.427734375 20.2587890625,18.3837890625 20.771484375,18.28125 21.357421875,18.10546875 21.357421875,17.666015625 20.9765625,17.578125 20.4931640625,17.490234375 19.8046875,17.4609375z M19.8046875,14.70703125L20.068359375,14.70703125 19.86328125,16.171875 20.33203125,16.171875 20.33203125,16.46484375 19.482421875,16.46484375 19.8046875,14.70703125z M21.6796875,14.208984375L22.3095703125,14.326171875 22.55859375,14.619140625 22.3095703125,14.912109375 21.6796875,15.029296875 21.0498046875,14.912109375 20.80078125,14.619140625 21.0498046875,14.326171875 21.6796875,14.208984375z M18.57421875,14.208984375L19.21875,14.326171875 19.482421875,14.619140625 19.21875,14.912109375 18.57421875,15.029296875 17.9736328125,14.912109375 17.724609375,14.619140625 17.9736328125,14.326171875 18.57421875,14.208984375z M17.431640625,12.94921875L17.431640625,14.794921875 17.98828125,17.373046875 18.6328125,17.0068359375 19.8046875,16.787109375 21.38671875,17.021484375 22.177734375,17.34375 22.8662109375,16.728515625 23.3203125,15.615234375 22.91015625,12.94921875 17.431640625,12.94921875z M17.080078125,12.685546875L24.521484375,12.685546875 26.337890625,19.658203125 23.96484375,19.658203125 23.759765625,18.75 23.0419921875,19.2919921875 22.412109375,19.7314453125 21.9140625,20.244140625 21.62109375,21.005859375 17.63671875,21.005859375 17.7392578125,20.68359375 17.900390625,20.21484375 18.046875,19.6728515625 18.10546875,19.16015625 17.197265625,19.39453125 16.0693359375,19.8486328125 14.8388671875,20.625 13.623046875,21.826171875 12.1728515625,24.4775390625 11.396484375,27.3046875 10.986328125,30.46875 10.458984375,30.46875 10.83984375,27.333984375 11.6748046875,24.43359375 13.271484375,21.533203125 14.6337890625,20.21484375 16.025390625,19.365234375 17.255859375,18.896484375 18.076171875,18.69140625 17.373046875,16.8603515625 17.080078125,14.70703125 17.080078125,12.685546875z M15.849609375,9.228515625L17.724609375,10.986328125 19.013671875,9.228515625 20.654296875,10.986328125 22.119140625,9.228515625 23.5546875,10.986328125 25.72265625,9.228515625 24.4921875,12.216796875 17.080078125,12.216796875 15.849609375,9.228515625z M4.68750095367432,9.08203125L5.44921875,9.3896484375 5.7421875,10.13671875 5.68359422683716,10.48828125 6.44531345367432,10.810546875 6.73828220367432,11.54296875 6.43066453933716,12.3046875 5.65429735183716,12.568359375 5.06835985183716,12.392578125 5.22949266433716,13.1689453125 5.595703125,13.623046875 5.595703125,13.857421875 3.80859470367432,13.857421875 3.80859470367432,13.623046875 4.16015672683716,13.154296875 4.30664110183716,12.392578125 3.72070360183716,12.568359375 2.97363328933716,12.3046875 2.666015625,11.54296875 2.958984375,10.810546875 3.69140625,10.48828125 3.63281297683716,10.13671875 3.92578172683716,9.3896484375 4.68750095367432,9.08203125z M12.685546875,8.96484375L13.7841796875,9.4189453125 14.208984375,10.517578125 14.1796875,10.7666015625 14.091796875,11.044921875 15.2197265625,11.4697265625 15.64453125,12.5390625 15.1904296875,13.681640625 14.091796875,14.091796875 13.6083984375,14.0185546875 13.212890625,13.828125 13.447265625,14.9267578125 13.9453125,15.615234375 13.9453125,15.99609375 11.3671875,15.99609375 11.3671875,15.615234375 11.8798828125,14.912109375 12.099609375,13.828125 11.7333984375,14.0185546875 11.25,14.091796875 10.1513671875,13.681640625 9.697265625,12.5390625 10.1220703125,11.4697265625 11.220703125,11.044921875 11.162109375,10.7666015625 11.1328125,10.517578125 11.5576171875,9.4189453125 12.685546875,8.96484375z M9.228515625,8.466796875L9.228515625,46.962890625 27.744140625,46.962890625 27.744140625,8.466796875 9.228515625,8.466796875z M7.96875047683716,7.20703125L29.00390625,7.20703125 29.00390625,48.22265625 7.96875047683716,48.22265625 7.96875047683716,7.20703125z M2.958984375,2.080078125L3.63281297683716,2.080078125 3.63281297683716,4.62890672683716 5.77148485183716,2.080078125 6.59179782867432,2.080078125 4.27734375,4.6875 6.73828220367432,7.5 5.85937595367432,7.5 3.63281297683716,4.833984375 3.63281297683716,7.5 2.958984375,7.5 2.958984375,2.080078125z M1.34765636920929,1.34765625L1.34765636920929,54.08203125 35.625,54.08203125 35.625,1.34765625 1.34765636920929,1.34765625z M0,0L36.97265625,0 36.97265625,55.4296875 0,55.4296875 0,0z" />
    </g>
  </g>
</svg>