<?xml version="1.0" encoding="utf-8"?>
<!DOCTYPE svg PUBLIC "-//W3C//DTD SVG 1.1//EN" "http://www.w3.org/Graphics/SVG/1.1/DTD/svg11.dtd">
<svg width="36.97265625" height="55.4296875" xmlns="http://www.w3.org/2000/svg" xmlns:xlink="http://www.w3.org/1999/xlink" xmlns:xml="http://www.w3.org/XML/1998/namespace" version="1.1">
  <g>
    <g>
      <path style="fill:#FF0000;fill-opacity:1" d="M32.16796875,49.072265625L32.75390625,49.072265625 33.486328125,50.625 34.21875,49.072265625 34.8046875,49.072265625 33.779296875,51.240234375 34.8046875,53.408203125 34.21875,53.408203125 33.486328125,51.85546875 32.75390625,53.408203125 32.16796875,53.408203125 33.193359375,51.240234375 32.16796875,49.072265625z M29.82421875,49.072265625L30.41015625,49.072265625 31.58203125,53.408203125 30.99609375,53.408203125 30.1171875,50.15625 29.23828125,53.408203125 28.65234375,53.408203125 29.82421875,49.072265625z M27.48046875,49.072265625L28.06640625,49.072265625 28.06640625,53.408203125 27.48046875,53.408203125 27.48046875,49.072265625z M26.30859375,49.072265625L26.89453125,49.072265625 26.89453125,53.408203125 26.30859375,53.408203125 26.30859375,49.072265625z M25.13671875,49.072265625L25.72265625,49.072265625 25.72265625,53.408203125 25.13671875,53.408203125 25.13671875,49.072265625z M20.185546875,17.197265625L19.9658203125,17.5048828125 19.7021484375,17.9736328125 19.423828125,18.45703125 19.16015625,18.80859375 18.955078125,18.896484375 12.861328125,17.783203125 12.9931640625,18.603515625 12.978515625,19.3359375 12.4072265625,19.6435546875 11.455078125,20.0830078125 10.546875,20.478515625 10.078125,20.712890625 10.341796875,21.005859375 11.0009765625,21.6064453125 11.689453125,22.236328125 12.041015625,22.646484375 11.9091796875,23.3203125 11.66015625,24.08203125 12.6123046875,24.140625 13.3740234375,24.1552734375 14.150390625,24.1845703125 15.146484375,24.287109375 15.234375,24.3603515625 15.234375,24.4921875 15.1318359375,24.5654296875 14.58984375,24.873046875 13.1396484375,25.693359375 11.9421377182007,26.3671875 10.3125,27.275390625 10.3125,27.333984375 10.576171875,27.59765625 11.19140625,27.919921875 11.66015625,28.125 12.158203125,28.330078125 10.400390625,32.109375 14.47265625,31.11328125 14.560546875,31.494140625 14.6923828125,32.197265625 14.8388671875,32.9150390625 14.970703125,33.28125 15.4248046875,32.783203125 16.5087890625,31.5380859375 17.783203125,30.0439453125 18.80859375,28.828125 18.896484375,28.76953125 18.92578125,28.798828125 18.779296875,30.5859375 18.544921875,32.40234375 19.3359375,32.28515625 20.0390625,32.28515625 20.361328125,32.63671875 20.8447265625,33.4130859375 21.2841796875,34.189453125 21.50390625,34.5703125 21.5625,34.599609375 21.884765625,34.1748046875 22.4560546875,33.3544921875 23.0712890625,32.490234375 23.525390625,31.962890625 24.19921875,32.138671875 24.9609375,32.40234375 25.0048828125,30.8935546875 24.9755859375,29.0771484375 24.9462890625,27.36328125 24.990234375,26.19140625 25.107421875,26.015625 25.83984375,25.6640625 26.484375,25.400390625 26.044921875,24.9755859375 24.873046875,24.1845703125 23.5693359375,23.3642578125 22.763671875,22.822265625 22.4267578125,22.470703125 22.060546875,22.001953125 21.6357421875,20.9033203125 21.15234375,19.4384765625 20.6689453125,18.0615234375 20.244140625,17.197265625 20.185546875,17.197265625z M19.98046875,16.611328125L20.537109375,16.640625 21.0205078125,17.548828125 21.5771484375,18.9697265625 22.119140625,20.478515625 22.55859375,21.650390625 23.0712890625,21.298828125 24.2138671875,20.4052734375 25.5615234375,19.189453125 26.66015625,17.8125 26.923828125,19.921875 26.3525390625,20.21484375 25.458984375,20.7275390625 24.3896484375,21.474609375 23.291015625,22.470703125 23.8037109375,22.734375 24.609375,23.14453125 25.83984375,23.9794921875 27.626953125,25.48828125 26.8505859375,25.927734375 25.576171875,26.42578125 25.546875,32.98828125 25.2978515625,32.98828125 24.7412109375,32.8857421875 24.1259765625,32.75390625 23.701171875,32.63671875 23.0419921875,33.57421875 21.4453125,35.5078125 20.56640625,34.1748046875 19.775390625,32.87109375 19.658203125,32.8857421875 19.39453125,32.9150390625 18.8232421875,32.9736328125 17.8125,33.076171875 17.9150390625,32.490234375 18.0029296875,31.7578125 18.0908203125,31.0107421875 18.193359375,30.380859375 17.9150390625,30.732421875 17.40234375,31.318359375 16.46484375,32.3583984375 14.912109375,34.072265625 14.619140625,33.69140625 14.3408203125,33.10546875 14.12109375,32.431640625 14.033203125,31.81640625 12.8759765625,32.0947265625 11.6162109375,32.4169921875 10.400390625,32.724609375 9.375,32.958984375 11.3671875,28.623046875 11.1767578125,28.5498046875 10.986328125,28.4765625 11.015625,28.4765625 10.048828125,27.9052734375 9.4921875,27.12890625 10.37109375,26.5576171875 11.484375,25.927734375 12.6416015625,25.3125 13.65234375,24.78515625 13.5205078125,24.78515625 13.1689453125,24.7705078125 12.36328125,24.7265625 10.927734375,24.638671875 11.279296875,23.37890625 11.30859375,22.705078125 10.283203125,21.73828125 9.345703125,20.625 9.8583984375,20.1708984375 10.25390625,19.921875 10.6201171875,19.7900390625 11.044921875,19.62890625 11.8212890625,19.306640625 12.421875,19.013671875 12.36328125,18.5888671875 12.24609375,17.9443359375 12.12890625,17.34375 12.0703125,17.021484375 18.837890625,18.28125 19.3212890625,17.431640625 19.98046875,16.611328125z M9.228515625,8.466796875L9.228515625,46.962890625 27.744140625,46.962890625 27.744140625,8.466796875 9.228515625,8.466796875z M7.96875047683716,7.20703125L29.00390625,7.20703125 29.00390625,48.22265625 7.96875047683716,48.22265625 7.96875047683716,7.20703125z M11.19140625,2.31445264816284L11.77734375,2.31445264816284 11.77734375,6.650390625 11.19140625,6.650390625 11.19140625,2.31445264816284z M10.01953125,2.31445264816284L10.60546875,2.31445264816284 10.60546875,6.650390625 10.01953125,6.650390625 10.01953125,2.31445264816284z M8.84765625,2.31445264816284L9.43359375,2.31445264816284 9.43359375,6.650390625 8.84765625,6.650390625 8.84765625,2.31445264816284z M5.33203172683716,2.31445264816284L5.91796922683716,2.31445264816284 6.796875,5.56640625 7.67578172683716,2.31445264816284 8.26171875,2.31445264816284 7.08984422683716,6.650390625 6.50390672683716,6.650390625 5.33203172683716,2.31445264816284z M2.10937547683716,2.31445264816284L2.69531297683716,2.31445264816284 3.42773485183716,3.8671875 4.16015672683716,2.31445264816284 4.74609422683716,2.31445264816284 3.72070360183716,4.48242235183716 4.74609422683716,6.650390625 4.16015672683716,6.650390625 3.42773485183716,5.09765577316284 2.69531297683716,6.650390625 2.10937547683716,6.650390625 3.13476610183716,4.48242235183716 2.10937547683716,2.31445264816284z M1.34765636920929,1.34765625L1.34765636920929,54.08203125 35.625,54.08203125 35.625,1.34765625 1.34765636920929,1.34765625z M0,0L36.97265625,0 36.97265625,55.4296875 0,55.4296875 0,0z" />
    </g>
  </g>
</svg>