<?xml version="1.0" encoding="utf-8"?>
<!DOCTYPE svg PUBLIC "-//W3C//DTD SVG 1.1//EN" "http://www.w3.org/Graphics/SVG/1.1/DTD/svg11.dtd">
<svg width="36.97265625" height="55.4296875" xmlns="http://www.w3.org/2000/svg" xmlns:xlink="http://www.w3.org/1999/xlink" xmlns:xml="http://www.w3.org/XML/1998/namespace" version="1.1">
  <g>
    <g>
      <path style="fill:#FF0000;fill-opacity:1" d="M32.05078125,49.98046875L32.05078125,52.822265625 33.662109375,49.98046875 32.05078125,49.98046875z M31.494140625,47.900390625L32.05078125,47.900390625 32.05078125,49.39453125 34.248046875,49.39453125 34.248046875,49.892578125 32.2265625,53.466796875 31.494140625,53.466796875 31.494140625,49.98046875 30.87890625,49.98046875 30.87890625,49.39453125 31.494140625,49.39453125 31.494140625,47.900390625z M25.3125,42.48046875L28.18359375,46.611328125 25.3125,50.7421875 22.470703125,46.611328125 25.3125,42.48046875z M11.630859375,42.48046875L14.501953125,46.611328125 11.630859375,50.7421875 8.7890625,46.611328125 11.630859375,42.48046875z M32.2265625,41.865234375L33.896484375,44.23828125 32.2265625,46.640625 30.5859375,44.23828125 32.2265625,41.865234375z M4.68750095367432,9.08203125L6.328125,11.513671875 4.68750095367432,13.857421875 3.01757860183716,11.513671875 4.68750095367432,9.08203125z M25.3125,4.95117139816284L28.18359375,9.08203125 25.3125,13.212890625 22.470703125,9.08203125 25.3125,4.95117139816284z M11.630859375,4.95117139816284L14.501953125,9.08203125 11.630859375,13.212890625 8.7890625,9.08203125 11.630859375,4.95117139816284z M4.89257860183716,2.90039014816284L3.28125047683716,5.7421875 4.89257860183716,5.7421875 4.89257860183716,2.90039014816284z M4.716796875,2.25585985183716L5.44921875,2.25585985183716 5.44921875,5.7421875 6.06445360183716,5.7421875 6.06445360183716,6.357421875 5.44921875,6.357421875 5.44921875,7.822265625 4.89257860183716,7.822265625 4.89257860183716,6.357421875 2.69531297683716,6.357421875 2.69531297683716,5.859375 4.716796875,2.25585985183716z M1.34765636920929,1.34765625L1.34765636920929,54.08203125 35.625,54.08203125 35.625,1.34765625 1.34765636920929,1.34765625z M0,0L36.97265625,0 36.97265625,55.4296875 0,55.4296875 0,0z" />
    </g>
  </g>
</svg>