<?xml version="1.0" encoding="utf-8"?>
<!DOCTYPE svg PUBLIC "-//W3C//DTD SVG 1.1//EN" "http://www.w3.org/Graphics/SVG/1.1/DTD/svg11.dtd">
<svg width="36.97265625" height="55.4296875" xmlns="http://www.w3.org/2000/svg" xmlns:xlink="http://www.w3.org/1999/xlink" xmlns:xml="http://www.w3.org/XML/1998/namespace" version="1.1">
  <g>
    <g>
      <path style="fill:#FF0000;fill-opacity:1" d="M32.16796875,49.072265625L32.75390625,49.072265625 33.486328125,50.625 34.21875,49.072265625 34.8046875,49.072265625 33.779296875,51.240234375 34.8046875,53.408203125 34.21875,53.408203125 33.486328125,51.85546875 32.75390625,53.408203125 32.16796875,53.408203125 33.193359375,51.240234375 32.16796875,49.072265625z M30.99609375,49.072265625L31.58203125,49.072265625 31.58203125,53.408203125 30.99609375,53.408203125 30.99609375,49.072265625z M29.82421875,49.072265625L30.41015625,49.072265625 30.41015625,53.408203125 29.82421875,53.408203125 29.82421875,49.072265625z M17.138671875,11.513671875L18.1201171875,11.748046875 18.9111328125,12.392578125 19.4384765625,13.330078125 19.62890625,14.443359375 19.4384765625,15.5419921875 18.9111328125,16.4501953125 18.1201171875,17.0654296875 17.138671875,17.28515625 16.212158203125,17.0764179229736 15.4248046875,16.4501953125 14.70703125,14.443359375 14.8974609375,13.330078125 15.4248046875,12.392578125 16.201171875,11.748046875 17.138671875,11.513671875z M22.3828125,11.484375L23.291015625,11.953125 26.630859375,16.201171875 26.865234375,16.6552734375 26.953125,17.197265625 26.923828125,17.548828125 26.572265625,18.1787109375 26.044921875,18.544921875 21.38671875,20.126953125 21.767578125,22.1630859375 21.884765625,23.90625 21.6796875,26.0888671875 21.2109375,27.744140625 20.6982421875,29.033203125 20.390625,30.1171875 20.302734375,31.318359375 20.2734375,32.783203125 20.302734375,34.39453125 20.390625,35.244140625 20.654296875,35.6396484375 21.2548828125,36.38671875 22.0751953125,37.3681640625 22.998046875,38.466796875 24.1845703125,39.873046875 25.48828125,41.455078125 25.8984375,42.626953125 25.78125,43.30078125 25.4296875,43.857421875 24.375,44.384765625 23.37890625,43.828125 17.87109375,37.177734375 17.4609375,35.9765625 17.4609375,30.1171875 16.875,29.970703125 16.34765625,29.794921875 15.8642578125,31.2451171875 15.439453125,32.578125 15.087890625,33.6181640625 14.7802734375,34.5703125 14.5751953125,35.302734375 14.501953125,35.68359375 14.4580078125,36.3134765625 14.47265625,37.67578125 14.47265625,40.986328125 14.47265625,41.8505859375 14.501953125,42.71484375 14.0771484375,43.9599609375 13.06640625,44.47265625 11.9970703125,43.9599609375 11.572265625,42.71484375 11.572265625,36.298828125 11.6015625,35.9326171875 11.630859375,35.537109375 11.7333984375,34.892578125 11.865234375,34.306640625 12.333984375,32.63671875 12.9052734375,30.703125 13.505859375,28.8720703125 14.0625,27.509765625 14.58984375,26.4404296875 15.146484375,25.517578125 15.5859375,24.5068359375 15.76171875,23.173828125 15.7177734375,22.5439453125 15.615234375,21.85546875 11.572265625,23.349609375 11.484375,23.349609375 10.9130859375,23.26171875 10.400390625,23.02734375 9.990234375,22.03125 10.01953125,21.708984375 11.103515625,15.17578125 11.54296875,14.3408203125 12.333984375,14.033203125 12.568359375,14.0625 13.271484375,14.560546875 13.53515625,15.439453125 13.505859375,15.76171875 12.802734375,19.921875 23.466796875,16.435546875 21.50390625,13.916015625 21.181640625,12.919921875 21.26953125,12.3779296875 21.591796875,11.865234375 22.3828125,11.484375z M9.228515625,8.466796875L9.228515625,46.962890625 27.744140625,46.962890625 27.744140625,8.466796875 9.228515625,8.466796875z M7.96875047683716,7.20703125L29.00390625,7.20703125 29.00390625,48.22265625 7.96875047683716,48.22265625 7.96875047683716,7.20703125z M6.50390672683716,2.31445264816284L7.08984422683716,2.31445264816284 7.08984422683716,6.650390625 6.50390672683716,6.650390625 6.50390672683716,2.31445264816284z M5.33203172683716,2.31445264816284L5.91796922683716,2.31445264816284 5.91796922683716,6.650390625 5.33203172683716,6.650390625 5.33203172683716,2.31445264816284z M2.10937547683716,2.31445264816284L2.69531297683716,2.31445264816284 3.42773485183716,3.8671875 4.16015672683716,2.31445264816284 4.74609422683716,2.31445264816284 3.72070360183716,4.48242235183716 4.74609422683716,6.650390625 4.16015672683716,6.650390625 3.42773485183716,5.09765577316284 2.69531297683716,6.650390625 2.10937547683716,6.650390625 3.13476610183716,4.48242235183716 2.10937547683716,2.31445264816284z M1.34765636920929,1.34765625L1.34765636920929,54.08203125 35.625,54.08203125 35.625,1.34765625 1.34765636920929,1.34765625z M0,0L36.97265625,0 36.97265625,55.4296875 0,55.4296875 0,0z" />
    </g>
  </g>
</svg>