<?xml version="1.0" encoding="utf-8"?>
<!DOCTYPE svg PUBLIC "-//W3C//DTD SVG 1.1//EN" "http://www.w3.org/Graphics/SVG/1.1/DTD/svg11.dtd">
<svg width="36.97265625" height="55.4296875" xmlns="http://www.w3.org/2000/svg" xmlns:xlink="http://www.w3.org/1999/xlink" xmlns:xml="http://www.w3.org/XML/1998/namespace" version="1.1">
  <g>
    <g>
      <path style="fill:#FF0000;fill-opacity:1" d="M19.21875,18.22265625L20.537109375,18.662109375 21.73828125,19.833984375 22.8662109375,21.533203125 23.994140625,23.583984375 24.6533203125,22.6611328125 25.1220703125,21.5185546875 25.458984375,20.4638671875 25.693359375,19.8046875 26.1767578125,19.1015625 26.806640625,18.92578125 27.4365234375,19.39453125 27.5390625,20.2734375 27.24609375,21.1962890625 26.689453125,22.4267578125 25.986328125,23.759765625 25.2392578125,24.9755859375 24.55078125,25.83984375 24.0234375,26.1328125 23.5107421875,25.810546875 22.8076171875,25.107421875 22.1044921875,24.228515625 21.591796875,23.349609375 21.3427734375,24.9462890625 21.09375,26.6455078125 20.859375,28.18359375 20.625,29.326171875 22.412109375,32.490234375 22.79296875,33.10546875 24.55078125,41.572265625 24.609375,41.8212890625 24.609375,42.099609375 24.4189453125,42.9052734375 23.84765625,43.41796875 23.4375,43.4765625 22.79296875,43.2421875 22.353515625,42.568359375 20.712890625,34.51171875 18.6328125,31.0546875 18.22265625,30.966796875 15.146484375,42.509765625 14.7216796875,43.2421875 14.033203125,43.53515625 13.681640625,43.4765625 13.06640625,42.9638671875 12.83203125,42.099609375 12.919921875,41.689453125 15.849609375,29.150390625 16.201171875,27.1142578125 16.611328125,24.43359375 17.109375,21.123046875 16.494140625,21.474609375 15.9521484375,21.7822265625 15.498046875,22.08984375 15.4833984375,24.8876953125 15.52734375,27.861328125 15.2490234375,28.681640625 14.560546875,29.00390625 13.88671875,28.6962890625 13.623046875,27.890625 13.5791015625,26.0595703125 13.5205078125,24.08203125 13.5205078125,22.3095703125 13.681640625,21.064453125 14.443359375,20.2587890625 15.9228515625,19.3212890625 17.666015625,18.544921875 19.21875,18.22265625z M11.572265625,16.0546875L12.919921875,16.435546875 13.916015625,17.87109375 14.033203125,19.775390625 13.6962881088257,20.6359882354736 13.095703125,21.0498046875 11.396484375,21.005859375 9.814453125,20.2001953125 9.404296875,19.5153827667236 9.404296875,18.544921875 10.1513671875,16.9189453125 11.572265625,16.0546875z M11.015625,15.3515625L25.78125,19.453125 25.576171875,19.833984375 10.95703125,15.791015625 11.015625,15.3515625z M11.396484375,14.296875L11.513671875,14.296875 11.806640625,14.326171875 12.01171875,14.47265625 12.24609375,14.3408203125 12.59765625,14.35546875 12.919921875,14.53125 13.06640625,14.765625 13.330078125,14.736328125 13.564453125,14.82421875 13.681640625,14.912109375 13.740234375,15 13.740234375,15.029296875 13.681640625,15.1171875 13.06640625,15.791015625 11.66015625,15.439453125 11.30859375,14.501953125 11.30859375,14.443359375 11.30859375,14.4140625 11.337890625,14.35546875 11.396484375,14.296875z M20.419921875,12.041015625L21.26220703125,12.235107421875 21.97265625,12.8173828125 22.6171875,14.677734375 22.44140625,15.732421875 21.97265625,16.5966796875 21.26953125,17.16796875 20.419921875,17.373046875 19.5849609375,17.16796875 18.896484375,16.5966796875 18.427734375,15.732421875 18.251953125,14.677734375 18.8818359375,12.8173828125 19.581298828125,12.235107421875 20.419921875,12.041015625z M9.228515625,8.466796875L9.228515625,46.962890625 27.744140625,46.962890625 27.744140625,8.466796875 9.228515625,8.466796875z M7.96875047683716,7.20703125L29.00390625,7.20703125 29.00390625,48.22265625 7.96875047683716,48.22265625 7.96875047683716,7.20703125z M1.34765636920929,1.34765625L1.34765636920929,54.08203125 35.625,54.08203125 35.625,1.34765625 1.34765636920929,1.34765625z M0,0L36.97265625,0 36.97265625,55.4296875 0,55.4296875 0,0z" />
    </g>
  </g>
</svg>