<?xml version="1.0" encoding="utf-8"?>
<!DOCTYPE svg PUBLIC "-//W3C//DTD SVG 1.1//EN" "http://www.w3.org/Graphics/SVG/1.1/DTD/svg11.dtd">
<svg width="36.97265625" height="55.4296875" xmlns="http://www.w3.org/2000/svg" xmlns:xlink="http://www.w3.org/1999/xlink" xmlns:xml="http://www.w3.org/XML/1998/namespace" version="1.1">
  <g>
    <g>
      <path style="fill:#FF0000;fill-opacity:1" d="M32.75390625,49.072265625L33.33984375,49.072265625 33.33984375,53.408203125 32.75390625,53.408203125 32.75390625,49.072265625z M31.58203125,49.072265625L32.16796875,49.072265625 32.16796875,53.408203125 31.58203125,53.408203125 31.58203125,49.072265625z M23.115234375,31.58203125L24.697265625,33.134765625 24.990234375,33.6181640625 25.107421875,34.16015625 24.755859375,35.15625 22.294921875,38.115234375 21.796875,38.525390625 21.181640625,38.671875 20.244140625,38.291015625 19.8486328125,37.7783203125 19.716796875,37.1484375 20.09765625,36.181640625 21.708984375,34.27734375 21.09375,33.662109375 23.115234375,31.58203125z M13.623046875,31.58203125L15.673828125,33.662109375 15.1171875,34.27734375 16.69921875,36.181640625 17.080078125,37.1484375 16.9482421875,37.7783203125 16.552734375,38.291015625 15.615234375,38.671875 15,38.525390625 14.47265625,38.115234375 11.982421875,35.15625 11.630859375,34.189453125 11.748046875,33.6181640625 12.0703125,33.134765625 13.623046875,31.58203125z M15.498046875,24.931640625L16.8603515625,25.5322265625 18.3984375,25.751953125 19.98046875,25.5322265625 21.357421875,24.931640625 26.30859375,27.24609375 26.8505859375,27.685546875 27.041015625,28.330078125 26.89453125,28.857421875 26.396484375,29.326171875 25.72265625,29.501953125 25.13671875,29.384765625 22.265625,28.359375 22.265625,29.94140625 14.560546875,29.94140625 14.560546875,28.388671875 11.66015625,29.384765625 11.07421875,29.501953125 10.4150390625,29.326171875 9.931640625,28.828125 9.78515625,28.30078125 9.9755859375,27.6708984375 10.517578125,27.24609375 15.498046875,24.931640625z M18.3984375,16.171875L19.9951171875,16.494140625 21.3134765625,17.373046875 22.1923828125,18.6767578125 22.5,20.2734375 22.1923828125,21.8701171875 21.3134765625,23.173828125 19.9951171875,24.0380859375 18.3984375,24.345703125 16.8017578125,24.0380859375 15.4833984375,23.173828125 14.6044921875,21.8701171875 14.296875,20.2734375 14.6044921875,18.6767578125 15.4833984375,17.373046875 16.8017578125,16.494140625 18.3984375,16.171875z M9.228515625,8.466796875L9.228515625,46.962890625 27.744140625,46.962890625 27.744140625,8.466796875 9.228515625,8.466796875z M7.96875047683716,7.20703125L29.00390625,7.20703125 29.00390625,48.22265625 7.96875047683716,48.22265625 7.96875047683716,7.20703125z M4.74609422683716,2.31445264816284L5.33203172683716,2.31445264816284 5.33203172683716,6.650390625 4.74609422683716,6.650390625 4.74609422683716,2.31445264816284z M3.57421922683716,2.31445264816284L4.16015672683716,2.31445264816284 4.16015672683716,6.650390625 3.57421922683716,6.650390625 3.57421922683716,2.31445264816284z M1.34765636920929,1.34765625L1.34765636920929,54.08203125 35.625,54.08203125 35.625,1.34765625 1.34765636920929,1.34765625z M0,0L36.97265625,0 36.97265625,55.4296875 0,55.4296875 0,0z" />
    </g>
  </g>
</svg>