<?xml version="1.0" encoding="utf-8"?>
<!DOCTYPE svg PUBLIC "-//W3C//DTD SVG 1.1//EN" "http://www.w3.org/Graphics/SVG/1.1/DTD/svg11.dtd">
<svg width="36.97265625" height="55.4296875" xmlns="http://www.w3.org/2000/svg" xmlns:xlink="http://www.w3.org/1999/xlink" xmlns:xml="http://www.w3.org/XML/1998/namespace" version="1.1">
  <g>
    <g>
      <path style="fill:#FF0000;fill-opacity:1" d="M32.666015625,47.75390625L33.720703125,48.076171875 33.720703125,48.75 32.666015625,48.310546875 31.8896484375,48.603515625 31.611328125,49.39453125 31.92626953125,50.185546875 32.87109375,50.44921875 33.251953125,50.44921875 33.251953125,51.005859375 32.900390625,51.005859375 32.0654296875,51.26953125 31.787109375,52.060546875 31.99951171875,52.78564453125 32.63671875,53.02734375 33.544921875,52.646484375 33.544921875,53.232421875 32.51953125,53.5546875 31.552734375,53.173828125 31.171875,52.20703125 31.4208984375,51.30615234375 32.16796875,50.771484375 32.16796875,50.7421875 31.34765625,50.33203125 31.025390625,49.423828125 31.494140625,48.2373046875 32.666015625,47.75390625z M16.9921875,42.5390625L19.98046875,42.5390625 19.98046875,42.94921875 19.365234375,43.76953125 19.1015625,44.58984375 19.6142578125,44.3408203125 20.21484375,44.267578125 21.3720703125,44.7509765625 21.884765625,46.171875 21.4892578125,47.607421875 20.56640625,48.8232421875 19.453125,49.86328125 18.486328125,50.7421875 17.51953125,49.8486328125 16.3916015625,48.837890625 15.46875,47.6220703125 15.087890625,46.171875 15.6005859375,44.7509765625 16.7578125,44.267578125 17.87109375,44.58984375 17.607421875,43.76953125 16.9921875,42.94921875 16.9921875,42.5390625z M31.40625,41.8359375L33.1640625,41.8359375 33.1640625,42.0703125 32.7978515625,42.5390625 32.666015625,43.037109375 33.28125,42.83203125 33.9697265625,43.125 34.27734375,43.9453125 34.0576171875,44.794921875 33.5009765625,45.498046875 32.841796875,46.0986328125 32.28515625,46.611328125 31.7138671875,46.0986328125 31.0546875,45.498046875 30.5126953125,44.794921875 30.29296875,43.9453125 30.6005859375,43.125 31.2890625,42.83203125 31.93359375,43.037109375 31.7724609375,42.5390625 31.40625,42.0703125 31.40625,41.8359375z M18.486328125,23.84765625L19.453125,24.7705078125 20.5810546875,25.7666015625 21.50390625,26.9677734375 21.884765625,28.447265625 21.3720703125,29.853515625 20.21484375,30.322265625 19.1015625,30 19.365234375,30.8349609375 19.98046875,31.640625 19.98046875,32.080078125 16.9921875,32.080078125 16.9921875,31.640625 17.607421875,30.8349609375 17.87109375,30 16.7578125,30.322265625 15.6005859375,29.853515625 15.087890625,28.447265625 15.4833984375,26.982421875 16.40625,25.78125 17.51953125,24.755859375 18.486328125,23.84765625z M4.68750095367432,9.052734375L5.25878953933716,9.5947265625 5.91796922683716,10.1953125 6.45996189117432,10.8837890625 6.67968797683716,11.71875 6.37207078933716,12.568359375 5.68359422683716,12.861328125 5.03906297683716,12.65625 5.20019578933716,13.125 5.56640720367432,13.623046875 5.56640720367432,13.857421875 3.80859470367432,13.857421875 3.80859470367432,13.623046875 4.17480516433716,13.125 4.30664110183716,12.65625 3.69140625,12.861328125 3.00293016433716,12.568359375 2.69531297683716,11.71875 2.91504001617432,10.8984375 3.45703172683716,10.1953125 4.1162109375,9.5947265625 4.68750095367432,9.052734375z M18.486328125,4.92187547683716L19.453125,5.8447265625 20.5810546875,6.8408203125 21.50390625,8.0419921875 21.884765625,9.521484375 21.3720703125,10.927734375 20.21484375,11.396484375 19.1015625,11.07421875 19.365234375,11.9091796875 19.98046875,12.71484375 19.98046875,13.154296875 16.9921875,13.154296875 16.9921875,12.71484375 17.607421875,11.9091796875 17.87109375,11.07421875 16.7578125,11.396484375 15.6005859375,10.927734375 15.087890625,9.521484375 15.4833984375,8.056640625 16.40625,6.85546875 17.51953125,5.830078125 18.486328125,4.92187547683716z M4.45312547683716,2.10937547683716L5.39062547683716,2.5048828125 5.77148485183716,3.45703172683716 5.5224609375,4.37255859375 4.77539110183716,4.892578125 4.77539110183716,4.92187547683716 5.6103515625,5.3466796875 5.94726610183716,6.240234375 5.4638671875,7.44140625 4.27734375,7.91015625 3.22265720367432,7.587890625 3.22265720367432,6.9140625 4.27734375,7.3828125 5.05371141433716,7.08984375 5.33203172683716,6.26953125 5.01708984375,5.478515625 4.07226610183716,5.21484422683716 3.69140625,5.21484422683716 3.69140625,4.6875 4.04296922683716,4.6875 4.8779296875,4.41650390625 5.15625,3.60351610183716 4.94384765625,2.900390625 4.30664110183716,2.666015625 3.3984375,3.04687452316284 3.3984375,2.43164110183716 4.45312547683716,2.10937547683716z M1.34765636920929,1.34765625L1.34765636920929,54.08203125 35.625,54.08203125 35.625,1.34765625 1.34765636920929,1.34765625z M0,0L36.97265625,0 36.97265625,55.4296875 0,55.4296875 0,0z" />
    </g>
  </g>
</svg>