<?xml version="1.0" encoding="utf-8"?>
<!DOCTYPE svg PUBLIC "-//W3C//DTD SVG 1.1//EN" "http://www.w3.org/Graphics/SVG/1.1/DTD/svg11.dtd">
<svg width="36.97265625" height="55.4296875" xmlns="http://www.w3.org/2000/svg" xmlns:xlink="http://www.w3.org/1999/xlink" xmlns:xml="http://www.w3.org/XML/1998/namespace" version="1.1">
  <g>
    <g>
      <path style="fill:#FF0000;fill-opacity:1" d="M32.197265625,51.064453125L31.6259765625,51.5625 31.435546875,52.236328125 31.640625,52.8076171875 32.16796875,53.02734375 32.7392578125,52.8076171875 32.958984375,52.236328125 32.7685546875,51.5771484375 32.197265625,51.064453125z M32.16796875,48.33984375L31.5380859375,48.603515625 31.2890625,49.27734375 31.53076171875,50.009765625 32.255859375,50.5078125 32.9150390625,49.98779296875 33.134765625,49.306640625 32.87109375,48.6181640625 32.16796875,48.33984375z M32.255859375,47.8125L33.2958984375,48.251953125 33.720703125,49.248046875 33.4423828125,50.15625 32.666015625,50.80078125 32.666015625,50.830078125 33.3251953125,51.40869140625 33.544921875,52.20703125 33.134765625,53.203125 32.138671875,53.583984375 31.201171875,53.232421875 30.849609375,52.32421875 31.0986328125,51.474609375 31.787109375,50.830078125 31.787109375,50.80078125 30.97412109375,50.22216796875 30.703125,49.306640625 31.11328125,48.193359375 32.255859375,47.8125z M23.818359375,42.568359375L26.806640625,42.568359375 26.806640625,43.0078125 26.1767578125,43.8134765625 25.927734375,44.6484375 26.42578125,44.384765625 27.041015625,44.326171875 28.1982421875,44.794921875 28.7109375,46.23046875 28.3154296875,47.666015625 27.392578125,48.8671875 26.279296875,49.9072265625 25.3125,50.80078125 24.345703125,49.892578125 23.2177734375,48.8818359375 22.2802734375,47.6806640625 21.884765625,46.23046875 22.412109375,44.794921875 23.583984375,44.326171875 24.697265625,44.6484375 24.43359375,43.8134765625 23.818359375,43.0078125 23.818359375,42.568359375z M10.13671875,42.568359375L13.125,42.568359375 13.125,43.0078125 12.509765625,43.8134765625 12.24609375,44.6484375 12.7587890625,44.384765625 13.359375,44.326171875 14.53125,44.794921875 15.05859375,46.23046875 14.6484375,47.666015625 13.7109375,48.8671875 12.59765625,49.9072265625 11.630859375,50.80078125 10.6787109375,49.892578125 9.55078125,48.8818359375 8.61328125,47.6806640625 8.232421875,46.23046875 8.7451171875,44.794921875 9.931640625,44.326171875 11.015625,44.6484375 10.7666015625,43.8134765625 10.13671875,43.0078125 10.13671875,42.568359375z M31.376953125,41.89453125L33.134765625,41.89453125 33.134765625,42.099609375 32.7685546875,42.59765625 32.63671875,43.06640625 33.251953125,42.890625 33.9404296875,43.1689453125 34.248046875,44.00390625 34.0283203125,44.8388671875 33.486328125,45.556640625 32.8271484375,46.142578125 32.255859375,46.669921875 31.6845703125,46.142578125 31.025390625,45.556640625 30.4833984375,44.853515625 30.263671875,44.00390625 30.5712890625,43.1689453125 31.259765625,42.890625 31.904296875,43.06640625 31.7431640625,42.59765625 31.376953125,42.099609375 31.376953125,41.89453125z M16.93359375,33.33984375L19.921875,33.33984375 19.921875,33.779296875 19.306640625,34.5703125 19.072265625,35.419921875 19.5556640625,35.15625 20.15625,35.09765625 21.328125,35.56640625 21.85546875,36.97265625 21.4599609375,38.4228515625 20.5224609375,39.638671875 19.39453125,40.6640625 18.427734375,41.572265625 17.490234375,40.6494140625 16.34765625,39.638671875 15.41015625,38.4228515625 15.029296875,36.97265625 15.556640625,35.56640625 16.728515625,35.09765625 17.8125,35.419921875 17.5634765625,34.5703125 16.93359375,33.779296875 16.93359375,33.33984375z M25.3125,23.84765625L26.279296875,24.7705078125 27.4072265625,25.7666015625 28.330078125,26.9677734375 28.7109375,28.447265625 28.1982421875,29.853515625 27.041015625,30.322265625 26.42578125,30.263671875 25.927734375,30 26.1767578125,30.8349609375 26.806640625,31.640625 26.806640625,32.080078125 23.818359375,32.080078125 23.818359375,31.640625 24.43359375,30.8349609375 24.697265625,30 23.583984375,30.322265625 22.412109375,29.853515625 21.884765625,28.447265625 22.294921875,26.982421875 23.232421875,25.78125 24.345703125,24.755859375 25.3125,23.84765625z M11.630859375,23.84765625L12.59765625,24.7705078125 13.7255859375,25.7666015625 14.6630859375,26.9677734375 15.05859375,28.447265625 14.53125,29.853515625 13.359375,30.322265625 12.24609375,30 12.509765625,30.8349609375 13.125,31.640625 13.125,32.080078125 10.13671875,32.080078125 10.13671875,31.640625 10.7666015625,30.8349609375 11.015625,30 9.931640625,30.322265625 8.7451171875,29.853515625 8.232421875,28.447265625 8.6279296875,26.982421875 9.5654296875,25.78125 10.6787109375,24.755859375 11.630859375,23.84765625z M18.486328125,14.619140625L19.453125,15.52734375 20.5810546875,16.5380859375 21.50390625,17.7392578125 21.884765625,19.189453125 21.3720703125,20.625 20.21484375,21.09375 19.1015625,20.771484375 19.365234375,21.6064453125 19.98046875,22.412109375 19.98046875,22.822265625 16.9921875,22.822265625 16.9921875,22.412109375 17.607421875,21.6064453125 17.87109375,20.771484375 16.7578125,21.09375 15.6005859375,20.625 15.087890625,19.189453125 15.4833984375,17.75390625 16.40625,16.552734375 17.51953125,15.5126953125 18.486328125,14.619140625z M4.68750095367432,9.052734375L5.25878953933716,9.5947265625 5.91796922683716,10.1953125 6.45996189117432,10.8837890625 6.67968797683716,11.71875 6.37207078933716,12.568359375 5.68359422683716,12.861328125 5.03906297683716,12.65625 5.20019578933716,13.125 5.56640720367432,13.623046875 5.56640720367432,13.857421875 3.80859470367432,13.857421875 3.80859470367432,13.623046875 4.17480516433716,13.125 4.30664110183716,12.65625 3.69140625,12.861328125 3.00293016433716,12.568359375 2.69531297683716,11.71875 2.91504001617432,10.8984375 3.45703172683716,10.1953125 4.1162109375,9.5947265625 4.68750095367432,9.052734375z M4.68750095367432,5.21484422683716L4.02832078933716,5.73486328125 3.80859470367432,6.416015625 4.07226610183716,7.119140625 4.77539110183716,7.3828125 5.40527391433716,7.1337890625 5.65429735183716,6.4453125 5.41259765625,5.712890625 4.68750095367432,5.21484422683716z M25.3125,4.92187547683716L26.279296875,5.8447265625 27.4072265625,6.8408203125 28.330078125,8.0419921875 28.7109375,9.521484375 28.1982421875,10.927734375 27.041015625,11.396484375 26.42578125,11.337890625 25.927734375,11.07421875 26.1767578125,11.9091796875 26.806640625,12.71484375 26.806640625,13.154296875 23.818359375,13.154296875 23.818359375,12.71484375 24.43359375,11.9091796875 24.697265625,11.07421875 23.583984375,11.396484375 22.412109375,10.927734375 21.884765625,9.521484375 22.294921875,8.056640625 23.232421875,6.85546875 24.345703125,5.830078125 25.3125,4.92187547683716z M11.630859375,4.92187547683716L12.59765625,5.8447265625 13.7255859375,6.8408203125 14.6630859375,8.0419921875 15.05859375,9.521484375 14.53125,10.927734375 13.359375,11.396484375 12.24609375,11.07421875 12.509765625,11.9091796875 13.125,12.71484375 13.125,13.154296875 10.13671875,13.154296875 10.13671875,12.71484375 10.7666015625,11.9091796875 11.015625,11.07421875 9.931640625,11.396484375 8.7451171875,10.927734375 8.232421875,9.521484375 8.6279296875,8.056640625 9.5654296875,6.85546875 10.6787109375,5.830078125 11.630859375,4.92187547683716z M4.77539110183716,2.6953125L4.20410203933716,2.9150390625 3.984375,3.48632764816284 4.17480516433716,4.1455078125 4.74609422683716,4.65820264816284 5.3173828125,4.1455078125 5.50781297683716,3.48632764816284 5.3173828125,2.9150390625 4.77539110183716,2.6953125z M4.80468797683716,2.13867139816284L5.7421875,2.5048828125 6.09375047683716,3.3984375 5.85937595367432,4.2626953125 5.15625,4.892578125 5.15625,4.92187547683716 5.96923828125,5.51513671875 6.24023485183716,6.416015625 5.83007860183716,7.529296875 4.68750095367432,7.91015625 3.64746189117432,7.4853515625 3.22265720367432,6.474609375 3.50097751617432,5.56640625 4.27734375,4.92187547683716 4.27734375,4.892578125 3.61816453933716,4.31396484375 3.3984375,3.515625 3.80859470367432,2.51953125 4.80468797683716,2.13867139816284z M1.34765636920929,1.34765625L1.34765636920929,54.08203125 35.625,54.08203125 35.625,1.34765625 1.34765636920929,1.34765625z M0,0L36.97265625,0 36.97265625,55.4296875 0,55.4296875 0,0z" />
    </g>
  </g>
</svg>