<?xml version="1.0" encoding="utf-8"?>
<!DOCTYPE svg PUBLIC "-//W3C//DTD SVG 1.1//EN" "http://www.w3.org/Graphics/SVG/1.1/DTD/svg11.dtd">
<svg width="42.65625" height="42.65625" xmlns="http://www.w3.org/2000/svg" xmlns:xlink="http://www.w3.org/1999/xlink" xmlns:xml="http://www.w3.org/XML/1998/namespace" version="1.1">
  <g>
    <g>
      <path style="fill:#FF0000;fill-opacity:1" d="M12.71484375,0L25.986328125,13.2421875 25.751953125,15 25.25390625,18.603515625 25.3857421875,21.73828125 26.4697265625,24.6826171875 27.469482421875,26.165771484375 28.857421875,27.71484375 35.68359375,34.62890625 37.060546875,32.0068359375 38.818359375,29.82421875 40.048828125,28.7255859375 41.455078125,27.71484375 40.634765625,31.46484375 40.60546875,35.126953125 41.2939453125,38.7890625 42.65625,42.5390625 42.5390625,42.65625 38.7890625,41.30859375 35.126953125,40.60546875 31.46484375,40.634765625 27.71484375,41.455078125 28.7255859375,40.048828125 29.82421875,38.818359375 32.0068359375,37.060546875 34.62890625,35.68359375 27.71484375,28.857421875 26.165771484375,27.469482421875 24.6826171875,26.4697265625 21.73828125,25.3857421875 18.603515625,25.25390625 15,25.72265625 13.271484375,25.986328125 0,12.71484375 3.38745045661926,11.9567890167236 6.6943359375,11.6748046875 9.906005859375,11.9860858917236 13.0078125,13.0078125 11.986083984375,9.90600681304932 11.6748046875,6.6943359375 11.956787109375,3.387451171875 12.71484375,0z" />
    </g>
  </g>
</svg>