<?xml version="1.0" encoding="utf-8"?>
<!DOCTYPE svg PUBLIC "-//W3C//DTD SVG 1.1//EN" "http://www.w3.org/Graphics/SVG/1.1/DTD/svg11.dtd">
<svg width="17.05078125" height="43.447265625" xmlns="http://www.w3.org/2000/svg" xmlns:xlink="http://www.w3.org/1999/xlink" xmlns:xml="http://www.w3.org/XML/1998/namespace" version="1.1">
  <g>
    <g>
      <path style="fill:#FF0000;fill-opacity:1" d="M0,0L3.486328125,0 7.44873046875,0.487060546875 10.25390625,1.9482421875 11.9238271713257,4.368896484375 12.48046875,7.734375 12.48046875,14.70703125 12.7661123275757,16.94091796875 13.6230459213257,18.57421875 15.0512685775757,19.60693359375 17.05078125,20.0390625 17.05078125,23.408203125 15.0512685775757,23.8330078125 13.6230459213257,24.84375 12.7661123275757,26.4404296875 12.48046875,28.623046875 12.48046875,35.80078125 11.9238271713257,39.093017578125 10.25390625,41.4697265625 7.44873046875,42.923583984375 3.486328125,43.447265625 0,43.447265625 0,39.609375 0.263671875,39.609375 2.33642578125,39.29443359375 3.69140672683716,38.349609375 4.43847608566284,36.73828125 4.6875,34.423828125 4.6875,28.06640625 4.96215772628784,25.7244873046875 5.78613233566284,23.88427734375 7.15942335128784,22.5457763671875 9.08203125,21.708984375 9.08203125,21.650390625 7.15942335128784,20.8209228515625 5.78613233566284,19.47509765625 4.96215772628784,17.6129150390625 4.6875,15.234375 4.6875,8.759765625 4.41650342941284,6.697998046875 3.603515625,5.1416015625 2.2265625,4.163818359375 0.263671875,3.837890625 0,3.837890625 0,0z" />
    </g>
  </g>
</svg>