<?xml version="1.0" encoding="utf-8"?>
<!DOCTYPE svg PUBLIC "-//W3C//DTD SVG 1.1//EN" "http://www.w3.org/Graphics/SVG/1.1/DTD/svg11.dtd">
<svg width="41.630859375" height="42.01171875" xmlns="http://www.w3.org/2000/svg" xmlns:xlink="http://www.w3.org/1999/xlink" xmlns:xml="http://www.w3.org/XML/1998/namespace" version="1.1">
  <g>
    <g>
      <path style="fill:#FF0000;fill-opacity:1" d="M20.830078125,3.92578125L16.904296875,17.109375 3.89648461341858,21.005859375 16.904296875,24.90234375 20.830078125,38.115234375 24.7265625,24.90234375 37.734375,21.005859375 24.7265625,17.109375 20.830078125,3.92578125z M20.830078125,0L22.0568828582764,3.153076171875 23.2177734375,5.8740234375 25.546875,10.283203125 28.1689453125,13.623046875 31.4794921875,16.2744140625 35.8447265625,18.6181640625 38.529052734375,19.779052734375 41.630859375,21.005859375 38.529052734375,22.2509765625 35.8447265625,23.408203125 31.4794921875,25.7373046875 28.1689453125,28.388671875 25.546875,31.728515625 23.2177734375,36.1376953125 22.0568828582764,38.858642578125 20.830078125,42.01171875 19.5849609375,38.858642578125 18.427734375,36.1376953125 16.11328125,31.728515625 13.4765625,28.388671875 10.166015625,25.7373046875 5.80078125,23.3935546875 3.10546875,22.232666015625 0,21.005859375 3.10546875,19.779052734375 5.80078125,18.6181640625 10.166015625,16.2744140625 13.4765625,13.623046875 16.11328125,10.283203125 18.4423828125,5.8740234375 19.603271484375,3.153076171875 20.830078125,0z" />
    </g>
  </g>
</svg>