<?xml version="1.0" encoding="utf-8"?>
<!DOCTYPE svg PUBLIC "-//W3C//DTD SVG 1.1//EN" "http://www.w3.org/Graphics/SVG/1.1/DTD/svg11.dtd">
<svg width="49.5703125" height="32.98828125" xmlns="http://www.w3.org/2000/svg" xmlns:xlink="http://www.w3.org/1999/xlink" xmlns:xml="http://www.w3.org/XML/1998/namespace" version="1.1">
  <g>
    <g>
      <path style="fill:#FF0000;fill-opacity:1" d="M33.427734375,0L34.9951171875,0.322265625 36.416015625,1.376953125 48.017578125,13.447265625 49.1748046875,14.9267578125 49.5703125,16.494140625 49.1748046875,18.076171875 48.017578125,19.5703125 36.416015625,31.611328125 34.9951171875,32.666015625 33.427734375,32.98828125 32.0654296875,32.7099609375 30.87890625,31.962890625 30.029296875,30.8642578125 29.70703125,29.53125 30.029296875,27.919921875 31.083984375,26.455078125 36.97265625,20.390625 4.21875,20.390625 2.44628882408142,20.130615234375 1.11328125,19.3505859375 0.2783203125,18.116455078125 0,16.494140625 0.2783203125,14.871826171875 1.11328125,13.6376953125 2.44628882408142,12.8576679229736 4.21875,12.59765625 36.97265625,12.59765625 31.083984375,6.533203125 30.029296875,5.0830078125 29.70703125,3.486328125 30.029296875,2.1240234375 30.87890625,1.025390625 32.0654296875,0.2783203125 33.427734375,0z" />
    </g>
  </g>
</svg>