<?xml version="1.0" encoding="utf-8"?>
<!DOCTYPE svg PUBLIC "-//W3C//DTD SVG 1.1//EN" "http://www.w3.org/Graphics/SVG/1.1/DTD/svg11.dtd">
<svg width="18.955078125" height="67.3828125" xmlns="http://www.w3.org/2000/svg" xmlns:xlink="http://www.w3.org/1999/xlink" xmlns:xml="http://www.w3.org/XML/1998/namespace" version="1.1">
  <g>
    <g>
      <path style="fill:#FF0000;fill-opacity:1" d="M9.462890625,52.646484375L7.42675828933716,53.056640625 5.75683641433716,54.1845703125 4.62890672683716,55.869140625 4.21875047683716,57.919921875 4.62890672683716,59.9560546875 5.75683641433716,61.6259765625 7.42675828933716,62.75390625 9.462890625,63.1640625 11.513671875,62.75390625 13.1982421875,61.6259765625 14.326171875,59.9560546875 14.736328125,57.919921875 14.326171875,55.869140625 13.1982421875,54.1845703125 11.513671875,53.056640625 9.462890625,52.646484375z M4.21875047683716,4.21874952316284L6.32812547683716,46.318359375 12.626953125,46.318359375 14.736328125,4.21874952316284 4.21875047683716,4.21874952316284z M0,0L18.955078125,0 16.875,52.001953125 18.427734375,54.7705078125 18.955078125,57.919921875 18.2080078125,61.5966796875 16.171875,64.599609375 13.154296875,66.6357421875 9.462890625,67.3828125 5.78613328933716,66.6357421875 2.78320360183716,64.599609375 0.747070789337158,61.5966796875 0,57.919921875 0.527344226837158,54.7705078125 2.08007860183716,52.001953125 0,0z" />
    </g>
  </g>
</svg>