<?xml version="1.0" encoding="utf-8"?>
<!DOCTYPE svg PUBLIC "-//W3C//DTD SVG 1.1//EN" "http://www.w3.org/Graphics/SVG/1.1/DTD/svg11.dtd">
<svg width="48.837890625" height="25.01953125" xmlns="http://www.w3.org/2000/svg" xmlns:xlink="http://www.w3.org/1999/xlink" xmlns:xml="http://www.w3.org/XML/1998/namespace" version="1.1">
  <g>
    <g>
      <path style="fill:#FF0000;fill-opacity:1" d="M12.24609375,8.583984375L17.16796875,8.583984375 17.16796875,16.376953125 12.24609375,16.376953125 12.24609375,8.583984375z M7.03125,8.583984375L10.751953125,8.583984375 10.751953125,16.376953125 7.03125,16.376953125 7.03125,8.583984375z M3.017578125,8.583984375L5.537109375,8.583984375 5.537109375,16.376953125 3.017578125,16.376953125 3.017578125,8.583984375z M0,8.583984375L1.5234375,8.583984375 1.5234375,16.376953125 0,16.376953125 0,8.583984375z M36.97265625,0L48.837890625,12.421875 48.837890625,12.5390625 36.97265625,25.01953125 36.97265625,16.376953125 18.662109375,16.376953125 18.662109375,8.583984375 36.97265625,8.583984375 36.97265625,0z" />
    </g>
  </g>
</svg>