<?xml version="1.0" encoding="utf-8"?>
<!DOCTYPE svg PUBLIC "-//W3C//DTD SVG 1.1//EN" "http://www.w3.org/Graphics/SVG/1.1/DTD/svg11.dtd">
<svg width="43.447265625" height="43.447265625" xmlns="http://www.w3.org/2000/svg" xmlns:xlink="http://www.w3.org/1999/xlink" xmlns:xml="http://www.w3.org/XML/1998/namespace" version="1.1">
  <g>
    <g>
      <path style="fill:#FF0000;fill-opacity:1" d="M22.03125,11.337890625L20.185546875,11.8505859375 18.9404296875,13.18359375 18.22265625,15.0146484375 17.98828125,17.021484375 18.193359375,19.1015625 18.8671875,20.9326171875 20.126953125,22.236328125 22.060546875,22.734375 23.8623046875,22.294921875 25.166015625,21.1376953125 25.9716796875,19.51171875 26.25,17.63671875 26.015625,15.52734375 25.2685546875,13.4912109375 23.96484375,11.953125 22.03125,11.337890625z M22.119140625,8.96484375L24.0197734832764,9.2431640625 25.5615234375,10.078125 27.7294921875,12.9052734375 28.857421875,16.6552734375 29.1796875,20.537109375 28.9892578125,23.6865234375 28.3740234375,27.041015625 27.2607421875,30.234375 25.5908203125,32.9296875 23.291015625,34.8046875 20.302734375,35.5078125 18.1787109375,35.33203125 16.5234375,34.775390625 16.5234375,32.05078125 18.33984375,32.7978515625 20.244140625,33.046875 22.412109375,32.5048828125 24.0234375,31.0546875 25.166015625,28.9599609375 25.8984375,26.513671875 26.279296875,23.9794921875 26.396484375,21.650390625 26.337890625,21.650390625 25.4882793426514,23.214111328125 24.4042949676514,24.3310546875 23.0859355926514,25.001220703125 21.533203125,25.224609375 18.7646484375,24.5654296875 16.8017578125,22.822265625 15.6298828125,20.33203125 15.234375,17.431640625 15.6884765625,14.35546875 17.021484375,11.630859375 19.189453125,9.697265625 22.119140625,8.96484375z M21.73828125,2.63671875L17.75390625,3.01025390625 14.12109375,4.130859375 10.9094228744507,5.899658203125 8.1884765625,8.2177734375 5.987548828125,11.0302743911743 4.3359375,14.2822265625 3.30322265625,17.8747577667236 2.958984375,21.708984375 3.63281202316284,26.7919921875 5.537109375,31.3623046875 8.49609375,35.21484375 12.3046875,38.1884765625 16.7724609375,40.107421875 21.73828125,40.78125 25.7665996551514,40.40771484375 29.4140625,39.287109375 32.6220703125,37.52197265625 35.33203125,35.21484375 37.518310546875,32.40966796875 39.1552734375,29.150390625 40.177001953125,25.546875 40.517578125,21.708984375 40.169677734375,17.8747577667236 39.1259765625,14.2822265625 37.46337890625,11.0302743911743 35.2587890625,8.2177734375 32.537841796875,5.899658203125 29.326171875,4.130859375 25.7006816864014,3.01025390625 21.73828125,2.63671875z M21.73828125,0L24.7961406707764,0.194091796875 27.7001953125,0.7763671875 32.9443359375,2.958984375 37.294921875,6.357421875 40.60546875,10.751953125 42.71484375,15.9375 43.447265625,21.708984375 42.71484375,27.4951171875 40.60546875,32.6806640625 37.294921875,37.0751953125 32.9443359375,40.4736328125 27.7001953125,42.6708984375 24.7961406707764,43.253173828125 21.73828125,43.447265625 18.68408203125,43.253173828125 15.791015625,42.6708984375 10.5615234375,40.4736328125 6.1962890625,37.0751953125 2.87109375,32.6806640625 0.747070550918579,27.48046875 0,21.708984375 0.747070550918579,15.9375 2.87109375,10.751953125 6.1962890625,6.357421875 10.5615234375,2.958984375 15.8056640625,0.7763671875 18.702392578125,0.194091796875 21.73828125,0z" />
    </g>
  </g>
</svg>