<?xml version="1.0" encoding="utf-8"?>
<!DOCTYPE svg PUBLIC "-//W3C//DTD SVG 1.1//EN" "http://www.w3.org/Graphics/SVG/1.1/DTD/svg11.dtd">
<svg width="51.2109375" height="13.681640625" xmlns="http://www.w3.org/2000/svg" xmlns:xlink="http://www.w3.org/1999/xlink" xmlns:xml="http://www.w3.org/XML/1998/namespace" version="1.1">
  <g>
    <g>
      <path style="fill:#FF0000;fill-opacity:1" d="M4.365234375,7.6171875L23.5546875,7.6171875 19.130859375,13.681640625 0,13.681640625 4.365234375,7.6171875z M42.216796875,0L44.0625,2.373046875 45.99609375,4.189453125 48.28125,5.595703125 51.2109375,6.767578125 51.2109375,6.884765625 48.28125,8.0712890625 45.99609375,9.4921875 44.0625,11.30859375 42.216796875,13.681640625 41.5576171875,11.87255859375 41.337890625,9.84375 41.455078125,8.671875 41.806640625,7.6171875 23.61328125,7.6171875 23.61328125,6.064453125 41.806640625,6.064453125 41.455078125,4.98046875 41.337890625,3.837890625 41.5576171875,1.82373189926147 42.216796875,0z M0,0L19.130859375,0 23.5546875,6.064453125 4.365234375,6.064453125 0,0z" />
    </g>
  </g>
</svg>