<?xml version="1.0" encoding="utf-8"?>
<!DOCTYPE svg PUBLIC "-//W3C//DTD SVG 1.1//EN" "http://www.w3.org/Graphics/SVG/1.1/DTD/svg11.dtd">
<svg width="51.2109375" height="19.453125" xmlns="http://www.w3.org/2000/svg" xmlns:xlink="http://www.w3.org/1999/xlink" xmlns:xml="http://www.w3.org/XML/1998/namespace" version="1.1">
  <g>
    <g>
      <path style="fill:#FF0000;fill-opacity:1" d="M39.873046875,0L41.923828125,3.27026510238647 44.501953125,5.8740234375 47.6000938415527,7.957763671875 51.2109375,9.66796875 51.2109375,9.78515625 47.607421875,11.484375 44.5166015625,13.59375 41.9384765625,16.2158203125 39.873046875,19.453125 39.609375,17.7392578125 39.521484375,16.083984375 39.8291015625,13.30078125 40.72265625,10.517578125 30.99609375,10.517578125 27.1728515625,10.9716796875 24.31640625,12.2900390625 21.9873046875,14.4140625 19.775390625,17.28515625 18.779296875,18.720703125 0,18.720703125 1.84204065799713,15.765380859375 3.9697265625,13.2275390625 6.463623046875,11.187744140625 9.404296875,9.7265625 6.463623046875,8.265380859375 3.9697265625,6.2255859375 1.84204065799713,3.68774557113647 0,0.732421875 18.779296875,0.732421875 19.775390625,2.16796875 21.9873046875,5.068359375 24.31640625,7.1923828125 27.1728515625,8.5107421875 30.99609375,8.96484375 40.72265625,8.96484375 39.8291015625,6.1669921875 39.521484375,3.369140625 39.609375,1.7138671875 39.873046875,0z" />
    </g>
  </g>
</svg>