<?xml version="1.0" encoding="utf-8"?>
<!DOCTYPE svg PUBLIC "-//W3C//DTD SVG 1.1//EN" "http://www.w3.org/Graphics/SVG/1.1/DTD/svg11.dtd">
<svg width="43.447265625" height="43.447265625" xmlns="http://www.w3.org/2000/svg" xmlns:xlink="http://www.w3.org/1999/xlink" xmlns:xml="http://www.w3.org/XML/1998/namespace" version="1.1">
  <g>
    <g>
      <path style="fill:#FF0000;fill-opacity:1" d="M22.880859375,14.296875L22.880859375,25.95703125 16.142578125,25.95703125 19.6435546875,20.419921875 22.880859375,14.296875z M22.734375,9.755859375L22.0751953125,11.162109375 20.7421875,13.623046875 18.984375,16.7431640625 17.0068359375,20.1123046875 15.0146484375,23.3642578125 13.2421875,26.103515625 13.2421875,28.681640625 22.880859375,28.681640625 22.880859375,34.951171875 25.517578125,34.951171875 25.517578125,28.681640625 28.2421875,28.681640625 28.2421875,25.95703125 25.517578125,25.95703125 25.517578125,9.755859375 22.734375,9.755859375z M21.73828125,0L24.7961406707764,0.194091796875 27.7001953125,0.7763671875 32.9443359375,2.958984375 37.294921875,6.357421875 40.60546875,10.751953125 42.71484375,15.9375 43.447265625,21.708984375 42.71484375,27.4951171875 40.60546875,32.6806640625 37.294921875,37.0751953125 32.9443359375,40.4736328125 27.7001953125,42.6708984375 24.7961406707764,43.253173828125 21.73828125,43.447265625 18.68408203125,43.253173828125 15.791015625,42.6708984375 10.5615234375,40.4736328125 6.1962890625,37.0751953125 2.87109375,32.6806640625 0.747070550918579,27.48046875 0,21.708984375 0.747070550918579,15.9375 2.87109375,10.751953125 6.1962890625,6.357421875 10.5615234375,2.958984375 15.8056640625,0.7763671875 18.702392578125,0.194091796875 21.73828125,0z" />
    </g>
  </g>
</svg>