<?xml version="1.0" encoding="utf-8"?>
<!DOCTYPE svg PUBLIC "-//W3C//DTD SVG 1.1//EN" "http://www.w3.org/Graphics/SVG/1.1/DTD/svg11.dtd">
<svg width="43.447265625" height="43.447265625" xmlns="http://www.w3.org/2000/svg" xmlns:xlink="http://www.w3.org/1999/xlink" xmlns:xml="http://www.w3.org/XML/1998/namespace" version="1.1">
  <g>
    <g>
      <path style="fill:#FF0000;fill-opacity:1" d="M27.216796875,11.337890625L24.9481182098389,12.0355234146118 23.3276348114014,14.1284198760986 22.3553447723389,17.6165790557861 22.03125,22.5 22.3498516082764,27.0501708984375 23.3056621551514,30.30029296875 24.8986797332764,32.2503662109375 27.12890625,32.900390625 29.307861328125,32.2393798828125 30.8642578125,30.25634765625 31.798095703125,26.9512939453125 32.109375,22.32421875 31.8035888671875,17.5177021026611 30.88623046875,14.0844745635986 29.3572998046875,12.0245370864868 27.216796875,11.337890625z M14.0625,8.96484375L15.41015625,8.96484375 15.41015625,34.921875 12.626953125,34.921875 12.626953125,12.83203125 11.5869140625,13.828125 10.3564453125,14.6630859375 9.0966796875,15.29296875 7.998046875,15.673828125 7.998046875,12.94921875 11.2060546875,11.337890625 14.0625,8.96484375z M27.392578125,8.84765625L29.1641235351563,9.05319213867188 30.699462890625,9.6697998046875 31.9985961914063,10.6974802017212 33.0615234375,12.1362314224243 33.8882446289063,13.9860544204712 34.478759765625,16.2469482421875 34.8330688476563,18.9189147949219 34.951171875,22.001953125 34.8046875,25.048828125 34.3212890625,28.095703125 33.3837890625,30.908203125 31.8896484375,33.22265625 29.7509765625,34.8046875 26.8359375,35.390625 24.08203125,34.833984375 22.0751953125,33.3251953125 20.68359375,31.0986328125 19.8046875,28.4033203125 19.3505859375,25.48828125 19.21875,22.6171875 19.3505859375,19.4677734375 19.8046875,16.318359375 20.712890625,13.4326171875 22.20703125,11.0595703125 24.3896484375,9.4482421875 27.392578125,8.84765625z M21.73828125,2.63671875L17.75390625,3.01025390625 14.12109375,4.130859375 10.9094228744507,5.899658203125 8.1884765625,8.2177734375 5.987548828125,11.0302743911743 4.3359375,14.2822265625 3.30322265625,17.8747577667236 2.958984375,21.708984375 3.63281202316284,26.7919921875 5.537109375,31.3623046875 8.49609375,35.21484375 12.3046875,38.1884765625 16.7724609375,40.107421875 21.73828125,40.78125 25.7665996551514,40.40771484375 29.4140625,39.287109375 32.6220703125,37.52197265625 35.33203125,35.21484375 37.518310546875,32.40966796875 39.1552734375,29.150390625 40.177001953125,25.546875 40.517578125,21.708984375 40.169677734375,17.8747577667236 39.1259765625,14.2822265625 37.46337890625,11.0302743911743 35.2587890625,8.2177734375 32.537841796875,5.899658203125 29.326171875,4.130859375 25.7006816864014,3.01025390625 21.73828125,2.63671875z M21.73828125,0L24.7961406707764,0.194091796875 27.7001953125,0.7763671875 32.9443359375,2.958984375 37.294921875,6.357421875 40.60546875,10.751953125 42.71484375,15.9375 43.447265625,21.708984375 42.71484375,27.4951171875 40.60546875,32.6806640625 37.294921875,37.0751953125 32.9443359375,40.4736328125 27.7001953125,42.6708984375 24.7961406707764,43.253173828125 21.73828125,43.447265625 18.68408203125,43.253173828125 15.791015625,42.6708984375 10.5615234375,40.4736328125 6.1962890625,37.0751953125 2.87109375,32.6806640625 0.747070550918579,27.48046875 0,21.708984375 0.747070550918579,15.9375 2.87109375,10.751953125 6.1962890625,6.357421875 10.5615234375,2.958984375 15.8056640625,0.7763671875 18.702392578125,0.194091796875 21.73828125,0z" />
    </g>
  </g>
</svg>