<?xml version="1.0" encoding="utf-8"?>
<!DOCTYPE svg PUBLIC "-//W3C//DTD SVG 1.1//EN" "http://www.w3.org/Graphics/SVG/1.1/DTD/svg11.dtd">
<svg width="69.140625" height="69.140625" xmlns="http://www.w3.org/2000/svg" xmlns:xlink="http://www.w3.org/1999/xlink" xmlns:xml="http://www.w3.org/XML/1998/namespace" version="1.1">
  <g>
    <g>
      <path style="fill:#FF0000;fill-opacity:1" d="M34.453125,18.369140625L37.1484375,19.013671875 39.2578125,20.947265625 40.6201171875,23.7890625 41.07421875,27.158203125 40.6201171875,29.8645038604736 39.2578125,32.1826171875 37.1630859375,33.775634765625 34.51171875,34.306640625 31.805419921875,33.775634765625 29.7802734375,32.1826171875 28.516845703125,29.6447772979736 28.095703125,26.279296875 28.53515625,23.148193359375 29.853515625,20.6103515625 31.88232421875,18.929443359375 34.453125,18.369140625z M34.599609375,12.861328125L31.8548583984375,13.1057739257813 29.36279296875,13.839111328125 27.1234130859375,15.0613403320313 25.13671875,16.7724609375 23.5089092254639,18.8699340820313 22.3461894989014,21.251220703125 21.6485576629639,23.9163208007813 21.416015625,26.865234375 21.6192607879639,29.6749877929688 22.2290019989014,32.186279296875 23.2452373504639,34.3991088867188 24.66796875,36.3134765625 26.4349365234375,37.8579711914063 28.48388671875,38.961181640625 30.8148193359375,39.6231079101563 33.427734375,39.84375 35.82275390625,39.5819091796875 37.939453125,38.79638671875 39.77783203125,37.4871826171875 41.337890625,35.654296875 41.42578125,35.654296875 40.704345703125,41.641845703125 38.5400390625,46.4794921875 36.9772338867188,48.3444213867188 35.174560546875,49.676513671875 33.1320190429688,50.4757690429688 30.849609375,50.7421875 27.333984375,50.32470703125 23.994140625,49.072265625 23.994140625,55.078125 27.0263671875,55.97900390625 30.966796875,56.279296875 34.6453857421875,55.8673095703125 37.94677734375,54.63134765625 40.8709716796875,52.5714111328125 43.41796875,49.6875 45.4815635681152,46.11328125 46.9555625915527,41.982421875 47.8399620056152,37.294921875 48.134765625,32.05078125 47.9095420837402,27.7496337890625 47.2338829040527,23.95751953125 46.1077842712402,20.6744384765625 44.53125,17.900390625 42.5592041015625,15.69580078125 40.24658203125,14.12109375 37.5933837890625,13.17626953125 34.599609375,12.861328125z M34.5703125,0L41.4230308532715,0.636293649673462 47.7722129821777,2.54516887664795 53.6178550720215,5.72662544250488 58.9599609375,10.1806640625 63.4140014648438,15.5227661132813 66.595458984375,21.368408203125 68.5043334960938,27.7175903320313 69.140625,34.5703125 68.5043334960938,41.4230346679688 66.595458984375,47.772216796875 63.4140014648438,53.6178588867188 58.9599609375,58.9599609375 53.6178550720215,63.4140014648438 47.7722129821777,66.595458984375 41.4230308532715,68.5043334960938 34.5703125,69.140625 27.7175884246826,68.5043334960938 21.3684062957764,66.595458984375 15.5227651596069,63.4140014648438 10.1806640625,58.9599609375 5.72662353515625,53.6178588867188 2.545166015625,47.772216796875 0.63629150390625,41.4230346679688 0,34.5703125 0.63629150390625,27.7175903320313 2.545166015625,21.368408203125 5.72662353515625,15.5227661132813 10.1806640625,10.1806640625 15.5227651596069,5.72662544250488 21.3684062957764,2.54516887664795 27.7175884246826,0.636293649673462 34.5703125,0z" />
    </g>
  </g>
</svg>