<?xml version="1.0" encoding="utf-8"?>
<!DOCTYPE svg PUBLIC "-//W3C//DTD SVG 1.1//EN" "http://www.w3.org/Graphics/SVG/1.1/DTD/svg11.dtd">
<svg width="69.140625" height="69.140625" xmlns="http://www.w3.org/2000/svg" xmlns:xlink="http://www.w3.org/1999/xlink" xmlns:xml="http://www.w3.org/XML/1998/namespace" version="1.1">
  <g>
    <g>
      <path style="fill:#FF0000;fill-opacity:1" d="M34.072265625,34.833984375L36.778564453125,35.364990234375 38.8037109375,36.9580078125 40.067138671875,39.495849609375 40.48828125,42.861328125 40.048828125,45.992431640625 38.73046875,48.5302734375 36.70166015625,50.211181640625 34.130859375,50.771484375 31.435546875,50.126953125 29.326171875,48.193359375 27.9638671875,45.3515625 27.509765625,41.982421875 27.9638671875,39.276123046875 29.326171875,36.9580078125 31.4208984375,35.364990234375 34.072265625,34.833984375z M37.6171875,12.861328125L33.9385986328125,13.2733154296875 30.63720703125,14.50927734375 27.7130126953125,16.5692138671875 25.166015625,19.453125 23.1024150848389,23.0273456573486 21.6284160614014,27.1582050323486 20.7440166473389,31.8457050323486 20.44921875,37.08984375 20.6744365692139,41.3909912109375 21.3500957489014,45.18310546875 22.4761943817139,48.4661865234375 24.052734375,51.240234375 26.0247802734375,53.44482421875 28.33740234375,55.01953125 30.9906005859375,55.96435546875 33.984375,56.279296875 36.7291259765625,56.0348510742188 39.22119140625,55.301513671875 41.4605712890625,54.0792846679688 43.447265625,52.3681640625 45.0750694274902,50.2706909179688 46.2377891540527,47.889404296875 46.9354209899902,45.2243041992188 47.16796875,42.275390625 46.9647178649902,39.4656372070313 46.3549766540527,36.954345703125 45.3387413024902,34.7415161132813 43.916015625,32.8271484375 42.1490478515625,31.2826557159424 40.10009765625,30.1794452667236 37.7691650390625,29.5175189971924 35.15625,29.296875 32.76123046875,29.5587177276611 30.64453125,30.3442401885986 28.80615234375,31.6534442901611 27.24609375,33.486328125 27.158203125,33.486328125 27.879638671875,27.4987812042236 30.0439453125,22.6611328125 31.6067504882813,20.7962036132813 33.409423828125,19.464111328125 35.4519653320313,18.6648559570313 37.734375,18.3984375 41.25,18.81591796875 44.58984375,20.068359375 44.58984375,14.0624990463257 41.5576171875,13.16162109375 37.6171875,12.861328125z M34.5703125,0L41.4230308532715,0.636293649673462 47.7722129821777,2.54516887664795 53.6178550720215,5.72662544250488 58.9599609375,10.1806640625 63.4140014648438,15.5227661132813 66.595458984375,21.368408203125 68.5043334960938,27.7175903320313 69.140625,34.5703125 68.5043334960938,41.4230346679688 66.595458984375,47.772216796875 63.4140014648438,53.6178588867188 58.9599609375,58.9599609375 53.6178550720215,63.4140014648438 47.7722129821777,66.595458984375 41.4230308532715,68.5043334960938 34.5703125,69.140625 27.7175884246826,68.5043334960938 21.3684062957764,66.595458984375 15.5227651596069,63.4140014648438 10.1806640625,58.9599609375 5.72662353515625,53.6178588867188 2.545166015625,47.772216796875 0.63629150390625,41.4230346679688 0,34.5703125 0.63629150390625,27.7175903320313 2.545166015625,21.368408203125 5.72662353515625,15.5227661132813 10.1806640625,10.1806640625 15.5227651596069,5.72662544250488 21.3684062957764,2.54516887664795 27.7175884246826,0.636293649673462 34.5703125,0z" />
    </g>
  </g>
</svg>