<?xml version="1.0" encoding="utf-8"?>
<!DOCTYPE svg PUBLIC "-//W3C//DTD SVG 1.1//EN" "http://www.w3.org/Graphics/SVG/1.1/DTD/svg11.dtd">
<svg width="48.837890625" height="28.330078125" xmlns="http://www.w3.org/2000/svg" xmlns:xlink="http://www.w3.org/1999/xlink" xmlns:xml="http://www.w3.org/XML/1998/namespace" version="1.1">
  <g>
    <g>
      <path style="fill:#FF0000;fill-opacity:1" d="M12.24609375,6.298828125L17.16796875,6.298828125 17.16796875,22.001953125 12.24609375,22.001953125 12.24609375,6.298828125z M7.03125,6.298828125L10.751953125,6.298828125 10.751953125,22.001953125 7.03125,22.001953125 7.03125,6.298828125z M3.017578125,6.298828125L5.537109375,6.298828125 5.537109375,22.001953125 3.017578125,22.001953125 3.017578125,6.298828125z M0,6.298828125L1.5234375,6.298828125 1.5234375,22.001953125 0,22.001953125 0,6.298828125z M35.185546875,0L35.361328125,0 37.96875,4.4384765625 40.9716796875,8.1884765625 44.53125,11.3671875 48.837890625,14.091796875 48.837890625,14.208984375 44.53125,16.93359375 40.9716796875,20.126953125 37.96875,23.8916015625 35.361328125,28.330078125 35.185546875,28.330078125 35.185546875,22.001953125 18.662109375,22.001953125 18.662109375,6.298828125 35.185546875,6.298828125 35.185546875,0z" />
    </g>
  </g>
</svg>