<?xml version="1.0" encoding="utf-8"?>
<!DOCTYPE svg PUBLIC "-//W3C//DTD SVG 1.1//EN" "http://www.w3.org/Graphics/SVG/1.1/DTD/svg11.dtd">
<svg width="58.154296875" height="39.228515625" xmlns="http://www.w3.org/2000/svg" xmlns:xlink="http://www.w3.org/1999/xlink" xmlns:xml="http://www.w3.org/XML/1998/namespace" version="1.1">
  <g>
    <g>
      <path style="fill:#FF0000;fill-opacity:1" d="M11.77734375,28.359375L7.20703125,30.703125 6.005859375,31.5966796875 5.654296875,32.578125 6.0498046875,33.427734375 7.20703125,33.779296875 8.84765625,33.3251953125 10.1513671875,32.109375 11.1328125,30.3662109375 11.77734375,28.359375z M13.564453125,25.72265625L13.564453125,26.1328125 13.154296875,29.2236328125 11.953125,32.2119140625 9.9755859375,34.453125 8.690185546875,35.1123046875 7.20703125,35.33203125 4.90722703933716,34.5849609375 4.28100538253784,33.695068359375 4.072265625,32.51953125 4.6142578125,30.8349609375 5.379638671875,30.069580078125 6.591796875,29.326171875 13.564453125,25.72265625z M7.20703125,5.44921875L6.0498046875,5.80078125 5.654296875,6.650390625 6.005859375,7.6171875 7.20703125,8.49609375 11.77734375,10.83984375 11.1328125,8.8330078125 10.1513671875,7.1044921875 8.84765625,5.9033203125 7.20703125,5.44921875z M7.20703125,3.896484375L8.690185546875,4.1162109375 9.9755859375,4.775390625 11.953125,7.0166015625 13.154296875,9.990234375 13.564453125,13.06640625 13.564453125,13.4765625 6.591796875,9.873046875 5.379638671875,9.15161323547363 4.6142578125,8.3935546875 4.072265625,6.708984375 4.28100538253784,5.533447265625 4.90722703933716,4.6435546875 7.20703125,3.896484375z M7.265625,1.552734375L4.89257860183716,1.9482421875 3.0908203125,3.0322265625 1.94824171066284,4.6728515625 1.55273485183716,6.708984375 1.783447265625,8.37890720367432 2.47558546066284,9.755859375 3.65112257003784,10.9277362823486 5.33203125,11.982421875 20.0390625,19.599609375 5.33203125,27.216796875 3.65112257003784,28.275146484375 2.47558546066284,29.4580078125 1.783447265625,30.845947265625 1.55273485183716,32.51953125 1.94824171066284,34.5703125 3.0908203125,36.1962890625 4.89257860183716,37.2802734375 7.265625,37.67578125 9.8291015625,37.3095703125 11.923828125,36.1669921875 13.6669921875,34.21875 15.17578125,31.435546875 16.0693359375,29.4287109375 16.81640625,27.802734375 18.10546875,25.400390625 19.365234375,23.8330078125 20.947265625,22.734375 22.08984375,22.119140625 50.947265625,30.87890625 52.1484375,31.1865234375 53.349609375,31.318359375 54.9169921875,30.9814453125 56.044921875,29.736328125 28.447265625,19.599609375 56.044921875,9.462890625 54.9169921875,8.232421875 53.349609375,7.91015625 52.1484375,8.02734375 50.947265625,8.3203125 22.08984375,17.080078125 20.947265625,16.494140625 19.365234375,15.3955078125 18.10546875,13.828125 16.81640625,11.4111328125 15.17578125,7.79296875 13.6669921875,4.9951171875 11.923828125,3.046875 9.8291015625,1.9189453125 7.265625,1.552734375z M7.265625,0L10.3271484375,0.4248046875 12.8173828125,1.7138671875 14.8681640625,3.92578125 16.640625,7.119140625 18.1494140625,10.546875 19.306640625,12.8173828125 20.3759765625,14.23828125 21.6796875,15.1171875 22.265625,15.41015625 50.537109375,6.826171875 52.1484375,6.4306640625 53.349609375,6.357421875 54.8327598571777,6.56982421875 56.1181640625,7.20703125 57.2204551696777,8.40820407867432 58.154296875,10.3125 32.958984375,19.599609375 58.154296875,28.916015625 57.216796875,30.791015625 56.1181640625,32.021484375 54.8291015625,32.6806640625 53.349609375,32.87109375 52.1484375,32.783203125 50.537109375,32.373046875 22.265625,23.818359375 21.6796875,24.111328125 20.3759765625,24.990234375 19.306640625,26.4111328125 18.1494140625,28.6669921875 16.640625,32.080078125 14.8681640625,35.2734375 12.8173828125,37.5 10.3271484375,38.8037109375 7.265625,39.228515625 4.248046875,38.73046875 1.96289014816284,37.3388671875 0.512695550918579,35.21484375 0,32.51953125 0.278320342302322,30.391845703125 1.11328148841858,28.6376953125 2.548828125,27.154541015625 4.62890625,25.83984375 16.875,19.599609375 4.62890625,13.359375 2.548828125,12.0446796417236 1.11328148841858,10.5615234375 0.278320342302322,8.81469821929932 0,6.708984375 0.512695550918579,4.013671875 1.96289014816284,1.8896484375 4.248046875,0.498046875 7.265625,0z" />
    </g>
  </g>
</svg>