<?xml version="1.0" encoding="utf-8"?>
<!DOCTYPE svg PUBLIC "-//W3C//DTD SVG 1.1//EN" "http://www.w3.org/Graphics/SVG/1.1/DTD/svg11.dtd">
<svg width="54.4921875" height="35.478515625" xmlns="http://www.w3.org/2000/svg" xmlns:xlink="http://www.w3.org/1999/xlink" xmlns:xml="http://www.w3.org/XML/1998/namespace" version="1.1">
  <g>
    <g>
      <path style="fill:#FF0000;fill-opacity:1" d="M16.69921875,22.03125L10.927734375,27.3046875 9.5361328125,28.88671875 9.140625,30.3515625 9.334716796875,31.468505859375 9.9169921875,32.3583984375 10.7995595932007,32.940673828125 11.89453125,33.134765625 14.3701171875,32.4462890625 15.99609375,30.6591796875 16.8896484375,28.1982421875 17.16796875,25.517578125 17.0654296875,23.759765625 16.69921875,22.03125z M6.064453125,2.40234375L4.64355421066284,2.6220703125 3.5009765625,3.251953125 2.7392578125,4.21875 2.4609375,5.419921875 2.724609375,6.6796875 3.4423828125,7.55859375 4.52636671066284,8.14453125 5.888671875,8.525390625 13.505859375,10.1953125 13.388671875,9.78515625 12.36328125,7.236328125 10.751953125,4.8486328125 8.642578125,3.0908203125 6.064453125,2.40234375z M6.064453125,0L8.14453125,0.260009765625 10.048828125,1.0400390625 11.8505849838257,2.36938548088074 13.623046875,4.27734375 16.1279296875,7.3974609375 17.9736328125,9.4189453125 19.599609375,10.60546875 21.416015625,11.220703125 22.67578125,11.455078125 29.23828125,7.3828125 36.416015625,7.3828125 29.47265625,12.3046875 54.4921875,14.94140625 53.96484375,16.171875 53.0859375,16.904296875 51.884765625,17.255859375 50.419921875,17.34375 49.892578125,17.34375 48.544921875,17.28515625 23.994140625,16.376953125 23.056640625,17.2265625 21.7822265625,18.6767578125 20.9765625,20.5078125 20.3759765625,23.173828125 20.079345703125,24.95361328125 19.74609375,27.12890625 18.896484375,30.4833984375 17.34375,33.134765625 15.0146484375,34.86328125 11.8359375,35.478515625 9.66796875,35.09765625 8.0126953125,34.04296875 6.9580078125,32.431640625 6.591796875,30.3515625 7.1630859375,27.83203125 7.957763671875,26.68212890625 9.19921875,25.458984375 21.357421875,14.47265625 5.15625,10.869140625 2.900390625,10.0964374542236 1.28906297683716,8.9501953125 0.322265684604645,7.40112447738647 0,5.419921875 0.512695550918579,3.076171875 1.875,1.376953125 3.80859327316284,0.3515625 6.064453125,0z" />
    </g>
  </g>
</svg>