<?xml version="1.0" encoding="utf-8"?>
<!DOCTYPE svg PUBLIC "-//W3C//DTD SVG 1.1//EN" "http://www.w3.org/Graphics/SVG/1.1/DTD/svg11.dtd">
<svg width="17.9296875000002" height="17.958984375" xmlns="http://www.w3.org/2000/svg" xmlns:xlink="http://www.w3.org/1999/xlink" xmlns:xml="http://www.w3.org/XML/1998/namespace" version="1.1">
  <g>
    <g>
      <path style="fill:#FF0000;fill-opacity:1" d="M8.935546875,4.482421875L7.1923828125,4.833984375 5.7861328125,5.7861328125 4.833984375,7.20703125 4.482421875,8.994140625 4.833984375,10.751953125 5.7861328125,12.1728515625 7.1923828125,13.125 8.935546875,13.4765625 10.6640625,13.125 12.099609375,12.1728515625 13.0810546875,10.751953125 13.447265625,8.994140625 13.0810546875,7.265625 12.099609375,5.830078125 10.6640625,4.8486328125 8.935546875,4.482421875z M8.90625,0L12.421875,0.703125 15.29296875,2.6220703125 17.2265625,5.478515625 17.9296875,8.994140625 17.2265625,12.4658203125 15.3076171875,15.322265625 12.4365234375,17.255859375 8.90625,17.958984375 5.4052734375,17.255859375 2.578125,15.3369140625 0.6884765625,12.48046875 0,8.994140625 0.6884765625,5.4638671875 2.5927734375,2.607421875 5.4345703125,0.703125 8.90625,0z" />
    </g>
  </g>
</svg>