<?xml version="1.0" encoding="utf-8"?>
<!DOCTYPE svg PUBLIC "-//W3C//DTD SVG 1.1//EN" "http://www.w3.org/Graphics/SVG/1.1/DTD/svg11.dtd">
<svg width="31.34765625" height="43.740234375" xmlns="http://www.w3.org/2000/svg" xmlns:xlink="http://www.w3.org/1999/xlink" xmlns:xml="http://www.w3.org/XML/1998/namespace" version="1.1">
  <g>
    <g>
      <path style="fill:#FF0000;fill-opacity:1" d="M23.525390625,33.427734375L22.4999980926514,33.6181640625 21.650390625,34.189453125 21.0790996551514,35.0390625 20.888671875,36.064453125 21.0790996551514,37.14111328125 21.650390625,38.02734375 22.4999980926514,38.62060546875 23.525390625,38.818359375 24.5800762176514,38.616943359375 25.458984375,38.0126953125 26.0522441864014,37.122802734375 26.25,36.064453125 26.044921875,35.0537109375 25.458984375,34.2041015625 24.580078125,33.6328125 23.525390625,33.427734375z M23.525390625,4.921875L22.4999980926514,5.11962890625 21.650390625,5.712890625 21.0790996551514,6.59912109375 20.888671875,7.67578125 21.0790996551514,8.701171875 21.650390625,9.55078125 22.4999980926514,10.1220703125 23.525390625,10.3125 24.580078125,10.107421875 25.458984375,9.5361328125 26.044921875,8.6865234375 26.25,7.67578125 26.0522441864014,6.617431640625 25.458984375,5.7275390625 24.5800762176514,5.123291015625 23.525390625,4.921875z M21.6796875,0L25.37109375,0.46875 28.447265625,1.875 30.556640625,4.2626953125 31.14990234375,5.841064453125 31.34765625,7.67578125 30.732421875,10.6787109375 29.0478515625,13.0810546875 26.5283203125,14.6630859375 23.4375,15.234375 20.4052734375,14.6630859375 17.98828125,13.0810546875 16.376953125,10.6787109375 15.791015625,7.67578125 15.791015625,6.9580078125 15.849609375,5.947265625 11.4990234375,8.3935546875 8.1005859375,12.041015625 5.888671875,16.6259765625 5.29541015625,19.193115234375 5.09765625,21.884765625 5.29541015625,24.576416015625 5.888671875,27.1435546875 8.1005859375,31.7138671875 11.4990234375,35.3466796875 15.849609375,37.79296875 15.791015625,36.7822265625 15.791015625,36.064453125 16.376953125,33.0615234375 17.98828125,30.6591796875 20.4052734375,29.0771484375 23.4375,28.505859375 26.5283203125,29.0771484375 29.0478515625,30.6591796875 30.732421875,33.0615234375 31.34765625,36.064453125 31.14990234375,37.899169921875 30.556640625,39.4775390625 28.447265625,41.865234375 25.37109375,43.271484375 21.6796875,43.740234375 17.3583984375,43.30078125 13.271484375,42.0263671875 9.5361328125,39.990234375 6.26953125,37.294921875 3.636474609375,34.0576171875 1.65527367591858,30.322265625 0.41381847858429,26.2060546875 0,21.826171875 0.39184582233429,17.6843280792236 1.56738305091858,13.6376953125 3.526611328125,9.84008884429932 6.26953125,6.4453125 9.5361328125,3.75 13.271484375,1.7138671875 17.3583984375,0.439453125 21.6796875,0z" />
    </g>
  </g>
</svg>