<?xml version="1.0" encoding="utf-8"?>
<!DOCTYPE svg PUBLIC "-//W3C//DTD SVG 1.1//EN" "http://www.w3.org/Graphics/SVG/1.1/DTD/svg11.dtd">
<svg width="16.0546875" height="43.740234375" xmlns="http://www.w3.org/2000/svg" xmlns:xlink="http://www.w3.org/1999/xlink" xmlns:xml="http://www.w3.org/XML/1998/namespace" version="1.1">
  <g>
    <g>
      <path style="fill:#FF0000;fill-opacity:1" d="M7.998046875,32.490234375L6.6357421875,32.75390625 5.537109375,33.5009765625 4.8046875,34.62890625 4.541015625,36.005859375 4.786376953125,37.371826171875 5.5224609375,38.4814453125 6.632080078125,39.217529296875 7.998046875,39.462890625 9.345703125,39.19921875 10.458984375,38.466796875 11.2060546875,37.3681640625 11.484375,36.005859375 11.2060546875,34.6435546875 10.458984375,33.5302734375 9.345703125,32.7685546875 7.998046875,32.490234375z M7.998046875,28.2421875L11.0009765625,28.857421875 13.4765625,30.52734375 15.146484375,32.98828125 15.76171875,36.005859375 15.1611328125,39.0234375 13.505859375,41.484375 11.0302734375,43.1396484375 7.998046875,43.740234375 4.951171875,43.1396484375 2.51953125,41.484375 0.8935546875,39.0234375 0.29296875,36.005859375 0.8935546875,32.9736328125 2.53418016433716,30.498046875 4.98046875,28.8427734375 7.998046875,28.2421875z M0,19.453125L16.0546875,19.453125 16.0546875,24.140625 0,24.140625 0,19.453125z M7.998046875,4.248046875L6.6357421875,4.51171875 5.537109375,5.2587890625 4.8046875,6.38671875 4.541015625,7.763671875 4.786376953125,9.129638671875 5.5224609375,10.2392578125 6.632080078125,10.9753437042236 7.998046875,11.220703125 9.345703125,10.95703125 10.458984375,10.224609375 11.2060546875,9.1259765625 11.484375,7.763671875 11.2060546875,6.4013671875 10.458984375,5.2880859375 9.345703125,4.5263671875 7.998046875,4.248046875z M7.998046875,0L11.0009765625,0.615234375 13.4765625,2.28515625 15.146484375,4.74609375 15.76171875,7.763671875 15.1611328125,10.78125 13.505859375,13.2421875 11.0302734375,14.8974609375 7.998046875,15.498046875 4.951171875,14.8974609375 2.51953125,13.2421875 0.8935546875,10.78125 0.29296875,7.763671875 0.8935546875,4.7314453125 2.53418016433716,2.255859375 4.98046875,0.6005859375 7.998046875,0z" />
    </g>
  </g>
</svg>