<?xml version="1.0" encoding="utf-8"?>
<!DOCTYPE svg PUBLIC "-//W3C//DTD SVG 1.1//EN" "http://www.w3.org/Graphics/SVG/1.1/DTD/svg11.dtd">
<svg width="43.2421875" height="55.546875" xmlns="http://www.w3.org/2000/svg" xmlns:xlink="http://www.w3.org/1999/xlink" xmlns:xml="http://www.w3.org/XML/1998/namespace" version="1.1">
  <g>
    <g>
      <path style="fill:#FF0000;fill-opacity:1" d="M38.3203125,0L43.2421875,0 43.2421875,7.265625 43.00048828125,13.1066913604736 42.275390625,18.4423828125 41.12548828125,23.309326171875 39.609375,27.744140625 37.75634765625,31.754150390625 35.595703125,35.3466796875 30.6005859375,41.42578125 25.0048828125,46.1572265625 19.16015625,49.7021484375 13.4033203125,52.236328125 8.115234375,53.935546875 3.662109375,54.990234375 0.380859375,55.546875 0,53.4375 5.2734375,52.0458984375 11.30859375,49.921875 17.666015625,46.81640625 23.8916015625,42.4658203125 26.79931640625,39.7265625 29.5166015625,36.5771484375 31.973876953125,32.977294921875 34.1015625,28.88671875 35.855712890625,24.283447265625 37.1923828125,19.1455078125 38.038330078125,13.4289569854736 38.3203125,7.08984375 38.3203125,0z" />
    </g>
  </g>
</svg>