<?xml version="1.0" encoding="utf-8"?>
<!DOCTYPE svg PUBLIC "-//W3C//DTD SVG 1.1//EN" "http://www.w3.org/Graphics/SVG/1.1/DTD/svg11.dtd">
<svg width="23.4082031250014" height="43.740234375" xmlns="http://www.w3.org/2000/svg" xmlns:xlink="http://www.w3.org/1999/xlink" xmlns:xml="http://www.w3.org/XML/1998/namespace" version="1.1">
  <g>
    <g>
      <path style="fill:#FF0000;fill-opacity:1" d="M4.6875,34.3359375L6.5185546875,34.7021484375 8.02734375,35.712890625 9.0380859375,37.2216796875 9.404296875,39.052734375 9.0380859375,40.869140625 8.02734375,42.36328125 6.5185546875,43.3740234375 4.6875,43.740234375 2.87109351158142,43.3740234375 1.37695288658142,42.36328125 0.366210699081421,40.869140625 0,39.052734375 0.366210699081421,37.2216796875 1.37695288658142,35.712890625 2.87109351158142,34.7021484375 4.6875,34.3359375z M18.69140625,17.16796875L20.5224609375,17.5341796875 22.03125,18.544921875 23.0419921875,20.0537109375 23.408203125,21.884765625 23.0419921875,23.701171875 22.03125,25.1953125 20.5224609375,26.2060546875 18.69140625,26.572265625 16.875,26.2060546875 15.380859375,25.1953125 14.3701171875,23.701171875 14.00390625,21.884765625 14.3701171875,20.0537109375 15.380859375,18.544921875 16.875,17.5341796875 18.69140625,17.16796875z M4.6875,0L6.5185546875,0.3662109375 8.02734375,1.376953125 9.0380859375,2.8857421875 9.404296875,4.716796875 9.0380859375,6.533203125 8.02734375,8.02734375 6.5185546875,9.0380859375 4.6875,9.404296875 2.87109351158142,9.0380859375 1.37695288658142,8.02734375 0.366210699081421,6.533203125 0,4.716796875 0.366210699081421,2.8857421875 1.37695288658142,1.376953125 2.87109351158142,0.3662109375 4.6875,0z" />
    </g>
  </g>
</svg>