<?xml version="1.0" encoding="utf-8"?>
<!DOCTYPE svg PUBLIC "-//W3C//DTD SVG 1.1//EN" "http://www.w3.org/Graphics/SVG/1.1/DTD/svg11.dtd">
<svg width="28.798828125" height="33.779296875" xmlns="http://www.w3.org/2000/svg" xmlns:xlink="http://www.w3.org/1999/xlink" xmlns:xml="http://www.w3.org/XML/1998/namespace" version="1.1">
  <g>
    <g>
      <path style="fill:#FF0000;fill-opacity:1" d="M24.521484375,25.25390625L26.19140625,25.5908203125 27.5537109375,26.4990234375 28.4619140625,27.861328125 28.798828125,29.53125 28.4619140625,31.1865234375 27.5537109375,32.5341796875 26.19140625,33.4423828125 24.521484375,33.779296875 22.8662109375,33.4423828125 21.5185546875,32.5341796875 20.6103515625,31.1865234375 20.2734375,29.53125 20.6103515625,27.861328125 21.5185546875,26.4990234375 22.8662109375,25.5908203125 24.521484375,25.25390625z M4.248046875,25.25390625L5.91796875,25.5908203125 7.2802734375,26.4990234375 8.1884765625,27.861328125 8.525390625,29.53125 8.1884765625,31.1865234375 7.2802734375,32.5341796875 5.91796875,33.4423828125 4.248046875,33.779296875 2.5927734375,33.4423828125 1.24511766433716,32.5341796875 0.3369140625,31.1865234375 0,29.53125 0.3369140625,27.861328125 1.24511766433716,26.4990234375 2.5927734375,25.5908203125 4.248046875,25.25390625z M24.521484375,0L26.19140625,0.3369140625 27.5537109375,1.2451171875 28.4619140625,2.607421875 28.798828125,4.27734375 28.4619140625,5.9326171875 27.5537109375,7.2802734375 26.19140625,8.1884765625 24.521484375,8.525390625 22.8662109375,8.1884765625 21.5185546875,7.2802734375 20.6103515625,5.9326171875 20.2734375,4.27734375 20.6103515625,2.607421875 21.5185546875,1.2451171875 22.8662109375,0.3369140625 24.521484375,0z M4.248046875,0L5.91796875,0.3369140625 7.2802734375,1.2451171875 8.1884765625,2.607421875 8.525390625,4.27734375 8.1884765625,5.9326171875 7.2802734375,7.2802734375 5.91796875,8.1884765625 4.248046875,8.525390625 2.5927734375,8.1884765625 1.24511766433716,7.2802734375 0.3369140625,5.9326171875 0,4.27734375 0.3369140625,2.607421875 1.24511766433716,1.2451171875 2.5927734375,0.3369140625 4.248046875,0z" />
    </g>
  </g>
</svg>