<?xml version="1.0" encoding="utf-8"?>
<!DOCTYPE svg PUBLIC "-//W3C//DTD SVG 1.1//EN" "http://www.w3.org/Graphics/SVG/1.1/DTD/svg11.dtd">
<svg width="30.46875" height="42.01171875" xmlns="http://www.w3.org/2000/svg" xmlns:xlink="http://www.w3.org/1999/xlink" xmlns:xml="http://www.w3.org/XML/1998/namespace" version="1.1">
  <g>
    <g>
      <path style="fill:#FF0000;fill-opacity:1" d="M26.19140625,0L27.861328125,0.3369140625 29.2236328125,1.2451171875 30.1318359375,2.607421875 30.46875,4.27734375 30.1318359375,5.9326171875 29.2236328125,7.2802734375 27.861328125,8.1884765625 26.19140625,8.525390625 24.5361328125,8.1884765625 23.1884765625,7.2802734375 22.2802734375,5.9326171875 21.943359375,4.27734375 22.2802734375,2.607421875 23.1884765625,1.2451171875 24.5361328125,0.3369140625 26.19140625,0z M12.7734375,0L17.6953125,0 17.6953125,42.01171875 12.7734375,42.01171875 12.7734375,0z M4.248046875,0L5.91796875,0.3369140625 7.2802734375,1.2451171875 8.1884765625,2.607421875 8.525390625,4.27734375 8.1884765625,5.9326171875 7.2802734375,7.2802734375 5.91796875,8.1884765625 4.248046875,8.525390625 2.5927734375,8.1884765625 1.2451171875,7.2802734375 0.336913824081421,5.9326171875 0,4.27734375 0.336913824081421,2.607421875 1.2451171875,1.2451171875 2.5927734375,0.3369140625 4.248046875,0z" />
    </g>
  </g>
</svg>