<?xml version="1.0" encoding="utf-8"?>
<!DOCTYPE svg PUBLIC "-//W3C//DTD SVG 1.1//EN" "http://www.w3.org/Graphics/SVG/1.1/DTD/svg11.dtd">
<svg width="43.359375" height="43.359375" xmlns="http://www.w3.org/2000/svg" xmlns:xlink="http://www.w3.org/1999/xlink" xmlns:xml="http://www.w3.org/XML/1998/namespace" version="1.1">
  <g>
    <g>
      <path style="fill:#FF0000;fill-opacity:1" d="M21.708984375,21.73828125L31.083984375,37.96875 31.083984375,31.083984375 21.708984375,21.73828125z M21.650390625,21.73828125L12.275390625,37.96875 18.22265625,34.541015625 21.650390625,21.73828125z M21.708984375,21.708984375L37.96875,31.083984375 34.541015625,25.13671875 21.708984375,21.708984375z M21.6796875,21.708984375L21.6796875,40.48828125 25.13671875,34.541015625 21.6796875,21.708984375z M21.650390625,21.708984375L5.390625,31.083984375 12.275390625,31.083984375 21.650390625,21.708984375z M2.87109375,21.6796875L8.818359375,25.13671875 21.650390625,21.6796875 2.87109375,21.6796875z M34.541015625,18.22265625L21.708984375,21.6796875 40.48828125,21.6796875 34.541015625,18.22265625z M31.083984375,12.275390625L21.73828125,21.650390625 37.96875,12.275390625 31.083984375,12.275390625z M5.390625,12.275390625L8.818359375,18.22265625 21.650390625,21.650390625 5.390625,12.275390625z M31.083984375,5.390625L25.13671875,8.818359375 21.708984375,21.62109375 31.083984375,5.390625z M12.275390625,5.390625L12.275390625,12.275390625 21.650390625,21.62109375 12.275390625,5.390625z M21.6796875,2.87109375L18.22265625,8.818359375 21.6796875,21.650390625 21.6796875,2.87109375z M21.6796875,0L25.6640625,6.85546875 32.51953125,2.87109375 32.51953125,10.83984375 40.48828125,10.83984375 36.50390625,17.6953125 43.359375,21.6796875 36.50390625,25.6640625 40.48828125,32.51953125 32.51953125,32.51953125 32.51953125,40.458984375 25.6640625,36.50390625 21.6796875,43.359375 17.6953125,36.50390625 10.83984375,40.458984375 10.83984375,32.51953125 2.900390625,32.51953125 6.85546875,25.6640625 0,21.6796875 6.85546875,17.6953125 2.900390625,10.83984375 10.83984375,10.83984375 10.83984375,2.87109375 17.6953125,6.85546875 21.6796875,0z" />
    </g>
  </g>
</svg>