<?xml version="1.0" encoding="utf-8"?>
<!DOCTYPE svg PUBLIC "-//W3C//DTD SVG 1.1//EN" "http://www.w3.org/Graphics/SVG/1.1/DTD/svg11.dtd">
<svg width="25.37109375" height="44.501953125" xmlns="http://www.w3.org/2000/svg" xmlns:xlink="http://www.w3.org/1999/xlink" xmlns:xml="http://www.w3.org/XML/1998/namespace" version="1.1">
  <g>
    <g>
      <path style="fill:#FF0000;fill-opacity:1" d="M10.25390625,4.3359375L7.9541015625,4.8046875 6.1669921875,6.123046875 5.009765625,8.173828125 4.599609375,10.83984375 4.8486328125,13.0664081573486 5.595703125,15.17578125 6.793212890625,17.1057147979736 8.3935546875,18.7939453125 12.7294921875,21.2841796875 15.399169921875,21.976318359375 18.33984375,22.20703125 19.423828125,22.177734375 20.771484375,22.08984375 19.8193359375,15.1318359375 18.84521484375,12.1032724380493 17.5927734375,9.4921875 16.080322265625,7.34619140625 14.326171875,5.712890625 12.3706045150757,4.68017578125 10.25390625,4.3359375z M9.9609375,0L12.1582021713257,0.205078125 14.23828125,0.8203125 17.9736328125,3.1494140625 21.0498046875,6.7529296875 23.37890625,11.4111328125 24.8583984375,16.9189453125 25.37109375,23.056640625 24.755859375,29.5458984375 22.8369140625,35.361328125 19.51171875,40.3857421875 17.29248046875,42.564697265625 14.677734375,44.501953125 14.501953125,44.501953125 1.96289086341858,31.318359375 4.86328125,28.06640625 5.03906345367432,28.06640625 14.765625,38.61328125 14.94140625,38.61328125 17.017822265625,36.48193359375 18.6767578125,33.662109375 19.881591796875,30.2783203125 20.595703125,26.455078125 19.2333984375,26.54296875 18.10546875,26.572265625 13.271484375,25.9716796875 8.9501953125,24.3017578125 5.2880859375,21.73828125 2.46093773841858,18.4423828125 0.64453125,14.6044921875 0,10.400390625 0.190429896116257,8.140869140625 0.761718988418579,6.1083984375 2.85644555091858,2.8271484375 6.005859375,0.732421875 9.9609375,0z" />
    </g>
  </g>
</svg>