<?xml version="1.0" encoding="utf-8"?>
<!DOCTYPE svg PUBLIC "-//W3C//DTD SVG 1.1//EN" "http://www.w3.org/Graphics/SVG/1.1/DTD/svg11.dtd">
<svg width="34.921875" height="44.82421875" xmlns="http://www.w3.org/2000/svg" xmlns:xlink="http://www.w3.org/1999/xlink" xmlns:xml="http://www.w3.org/XML/1998/namespace" version="1.1">
  <g>
    <g>
      <path style="fill:#FF0000;fill-opacity:1" d="M28.447265625,0L31.2451171875,5.56640625 33.2666015625,11.7333984375 34.4970703125,18.0029296875 34.921875,23.84765625 34.610595703125,28.421630859375 33.6767578125,32.5341796875 32.1826171875,36.126708984375 30.1904296875,39.140625 27.7258281707764,41.553955078125 24.814453125,43.3447265625 21.5258769989014,44.454345703125 17.9296875,44.82421875 14.666748046875,44.527587890625 11.6162109375,43.6376953125 8.8623046875,42.216796875 6.4892578125,40.3271484375 4.537353515625,37.998046875 3.04687523841858,35.2587890625 2.10205101966858,32.164306640625 1.78711009025574,28.76953125 2.02148509025574,25.634765625 2.78320336341858,22.1484375 2.95898461341858,22.1484375 4.541015625,23.759765625 6.38671875,25.0927734375 8.3642578125,26.015625 10.341796875,26.3671875 12.5390625,25.83984375 14.4287109375,24.140625 15.76171875,21.064453125 16.13525390625,18.9404315948486 16.259765625,16.376953125 15.76171875,11.572265625 14.443359375,8.0859375 12.5537109375,5.9619140625 10.3125,5.244140625 8.37890625,5.7568359375 6.62109375,7.1923828125 5.1123046875,9.43359375 3.95507836341858,12.36328125 0,10.283203125 0.92651379108429,7.855224609375 2.00683665275574,5.8447265625 4.482421875,2.9296875 7.20703125,1.3330078125 10.01953125,0.849609375 12.1838369369507,1.131591796875 14.2236328125,1.9775390625 16.080322265625,3.343505859375 17.6953125,5.185546875 19.031982421875,7.4853515625 20.0537109375,10.224609375 20.701904296875,13.3593769073486 20.91796875,16.845703125 20.72021484375,20.2294921875 20.126953125,23.115234375 19.200439453125,25.521240234375 18.0029296875,27.4658203125 16.571044921875,28.9599609375 14.94140625,30.0146484375 13.18359375,30.640869140625 11.3671875,30.849609375 8.7158203125,30.44677734375 6.15234375,29.23828125 6.005859375,29.326171875 6.221923828125,31.5673828125 6.8701171875,33.662109375 9.2724609375,37.1923828125 12.890625,39.5654296875 15.06591796875,40.213623046875 17.431640625,40.4296875 19.991455078125,40.15869140625 22.3974609375,39.345703125 24.5764141082764,38.00537109375 26.455078125,36.15234375 28.0004863739014,33.797607421875 29.1796875,30.9521484375 29.9267578125,27.623291015625 30.17578125,23.818359375 29.794921875,18.662109375 28.7255859375,13.2421875 27.0556640625,7.880859375 24.873046875,2.9296875 24.873046875,2.8125 28.447265625,0z" />
    </g>
  </g>
</svg>