<?xml version="1.0" encoding="utf-8"?>
<!DOCTYPE svg PUBLIC "-//W3C//DTD SVG 1.1//EN" "http://www.w3.org/Graphics/SVG/1.1/DTD/svg11.dtd">
<svg width="34.6875000000001" height="44.736328125" xmlns="http://www.w3.org/2000/svg" xmlns:xlink="http://www.w3.org/1999/xlink" xmlns:xml="http://www.w3.org/XML/1998/namespace" version="1.1">
  <g>
    <g>
      <path style="fill:#FF0000;fill-opacity:1" d="M18.251953125,0L22.4450664520264,0.49072265625 26.2353515625,1.962890625 29.549560546875,4.29931640625 32.314453125,7.3828125 32.28515625,7.529296875 28.095703125,9.755859375 26.0852031707764,7.412109375 23.7451171875,5.712890625 21.1340312957764,4.68017578125 18.310546875,4.3359375 15.494384765625,4.676513671875 12.9052734375,5.6982421875 10.5944814682007,7.320556640625 8.61328125,9.462890625 6.99462890625,12.0849618911743 5.771484375,15.146484375 5.00244140625,18.5668964385986 4.74609422683716,22.265625 5.020751953125,26.085205078125 5.8447265625,29.5751953125 7.1484375,32.669677734375 8.8623046875,35.302734375 10.9570302963257,37.44140625 13.4033203125,39.052734375 16.131591796875,40.0634765625 19.072265625,40.400390625 23.0712890625,39.7265625 26.396484375,37.7783203125 28.8427734375,34.6435546875 30.205078125,30.439453125 30.05859375,30.380859375 26.7773418426514,31.259765625 23.5546875,31.552734375 19.16015625,30.9228515625 15.5859375,29.1064453125 13.1982421875,26.220703125 12.5500478744507,24.4189453125 12.333984375,22.412109375 12.5244131088257,20.537109375 13.095703125,18.779296875 15.3662109375,15.8349609375 19.1162109375,13.857421875 24.31640625,13.125 26.5283203125,13.212890625 29.0185546875,13.5205078125 31.552734375,14.091796875 33.8671875,14.970703125 33.92578125,15.1171875 32.34375,18.6328125 30.41015625,18.1494140625 28.30078125,17.783203125 26.25,17.5634765625 24.462890625,17.490234375 21.26953125,17.87109375 18.8232421875,18.92578125 17.255859375,20.5224609375 16.69921875,22.529296875 17.2265625,24.462890625 18.7060546875,25.8837890625 20.947265625,26.7626953125 23.73046875,27.0703125 26.806640625,26.7919921875 29.765625,26.0888671875 32.2998046875,25.166015625 34.072265625,24.228515625 34.248046875,24.228515625 34.5849609375,26.3232421875 34.6875,28.41796875 34.405517578125,31.805419921875 33.5595703125,34.9365234375 32.197265625,37.730712890625 30.3662109375,40.107421875 28.095703125,42.041015625 25.4150390625,43.505859375 22.3718242645264,44.4287109375 19.013671875,44.736328125 15.091552734375,44.322509765625 11.4697265625,43.0810546875 8.228759765625,41.09619140625 5.44921875,38.4521484375 3.175048828125,35.189208984375 1.4501953125,31.34765625 0.362548649311066,27.00439453125 0,22.236328125 0.336913883686066,17.6330585479736 1.34765625,13.3740234375 2.96630859375,9.569091796875 5.126953125,6.328125 7.78564453125,3.687744140625 10.8984375,1.6845703125 14.40673828125,0.421142578125 18.251953125,0z" />
    </g>
  </g>
</svg>