<?xml version="1.0" encoding="utf-8"?>
<!DOCTYPE svg PUBLIC "-//W3C//DTD SVG 1.1//EN" "http://www.w3.org/Graphics/SVG/1.1/DTD/svg11.dtd">
<svg width="26.953125" height="44.501953125" xmlns="http://www.w3.org/2000/svg" xmlns:xlink="http://www.w3.org/1999/xlink" xmlns:xml="http://www.w3.org/XML/1998/namespace" version="1.1">
  <g>
    <g>
      <path style="fill:#FF0000;fill-opacity:1" d="M12.099609375,3.955078125L10.576171875,4.2333984375 9.3603515625,5.0244140625 8.5546875,6.26953125 8.26171875,7.91015625 8.4228515625,9.0673828125 9.111328125,10.4296875 10.634765625,11.8359375 13.330078125,13.154296875 14.47265625,11.6455078125 15.234375,10.341796875 15.6591796875,9.1845703125 15.791015625,8.0859375 15.54931640625,6.434326171875 14.82421875,5.1123046875 13.65966796875,4.244384765625 12.099609375,3.955078125z M12.041015625,0L15.4248046875,0.5859375 17.98828125,2.2265625 19.6142578125,4.775390625 20.185546875,8.0859375 19.8046875,10.72265625 18.6767578125,13.125 16.845703125,15.64453125 14.326171875,18.6328125 11.7517080307007,21.62841796875 9.6533203125,24.111328125 6.6796875,27.9638671875 5.09765625,30.8056640625 4.62890720367432,33.251953125 5.2587890625,36.298828125 6.9873046875,38.525390625 9.580078125,39.8876953125 12.802734375,40.341796875 15.9521484375,39.8876953125 18.7353515625,38.4521484375 21.1962890625,35.9326171875 23.37890625,32.2265625 23.525390625,32.2265625 26.953125,34.951171875 24.1442852020264,39.1845703125 20.8740234375,42.158203125 17.156982421875,43.916015625 13.0078125,44.501953125 10.4406728744507,44.296875 8.0126953125,43.681640625 3.88183617591858,41.3671875 1.05468773841858,37.763671875 0.263671904802322,35.537109375 0,33.076171875 0.5712890625,29.6484375 2.41699242591858,26.044921875 3.8818359375,23.997802734375 5.7275390625,21.7236328125 7.994384765625,19.1198749542236 10.72265625,16.083984375 7.67578125,14.3408203125 5.625,12.275390625 4.46777439117432,10.01953125 4.1015625,7.705078125 4.54101657867432,5.0537109375 5.9326171875,2.5634765625 8.3935546875,0.7177734375 12.041015625,0z" />
    </g>
  </g>
</svg>