<?xml version="1.0" encoding="utf-8"?>
<!DOCTYPE svg PUBLIC "-//W3C//DTD SVG 1.1//EN" "http://www.w3.org/Graphics/SVG/1.1/DTD/svg11.dtd">
<svg width="41.25" height="44.794921875" xmlns="http://www.w3.org/2000/svg" xmlns:xlink="http://www.w3.org/1999/xlink" xmlns:xml="http://www.w3.org/XML/1998/namespace" version="1.1">
  <g>
    <g>
      <path style="fill:#FF0000;fill-opacity:1" d="M24.31640625,15.76171875L8.4375,35.419921875 9.86205959320068,37.6171875 11.5576171875,39.169921875 13.465576171875,40.0927734375 15.52734375,40.400390625 17.581787109375,40.10009765625 19.4677734375,39.19921875 21.1486797332764,37.75634765625 22.587890625,35.830078125 23.7634258270264,33.438720703125 24.6533203125,30.6005859375 25.400390625,23.84765625 25.1513671875,19.62890625 24.462890625,15.791015625 24.31640625,15.76171875z M13.53515625,0L17.07275390625,0.47607421875 20.302734375,1.904296875 23.1591777801514,4.16748046875 25.576171875,7.1484375 30.99609375,0.52734375 35.1416015625,4.39453125 38.3935546875,9.5361328125 40.5029296875,16.0546875 41.063232421875,19.8559589385986 41.25,24.052734375 40.8837890625,29.970703125 39.814453125,35.595703125 38.0859375,40.634765625 35.7421875,44.794921875 31.728515625,42.158203125 33.7060546875,38.7451171875 35.244140625,34.4091796875 36.240234375,29.384765625 36.591796875,23.90625 36.2255859375,18.4716796875 35.2001953125,13.8134765625 33.6328125,9.990234375 31.640625,7.03125 31.46484375,7.03125 27.890625,11.396484375 29.5458984375,17.2412109375 30.1171875,23.7890625 29.84619140625,28.245849609375 29.033203125,32.2998046875 27.7368144989014,35.88134765625 26.015625,38.9208984375 23.8952617645264,41.378173828125 21.4013671875,43.212890625 18.592529296875,44.35546875 15.52734375,44.736328125 11.54296875,44.0771484375 8.0126953125,42.158203125 5.09765625,39.0673828125 3.01757788658142,34.892578125 22.5,10.927734375 20.7934551239014,7.950439453125 18.779296875,5.9326171875 16.5380859375,4.779052734375 14.150390625,4.39453125 12.158203125,4.62158203125 10.166015625,5.302734375 8.21044921875,6.416015625 6.328125,7.939453125 6.328125,8.115234375 12.685546875,17.63671875 11.8359375,18.8671875 0,18.8671875 0,14.6484375 5.771484375,14.6484375 5.771484375,14.501953125 0.673828363418579,7.353515625 0.673828363418579,7.177734375 3.48632788658142,4.0576171875 6.6650390625,1.81640625 10.0634765625,0.4541015625 13.53515625,0z" />
    </g>
  </g>
</svg>