<?xml version="1.0" encoding="utf-8"?>
<!DOCTYPE svg PUBLIC "-//W3C//DTD SVG 1.1//EN" "http://www.w3.org/Graphics/SVG/1.1/DTD/svg11.dtd">
<svg width="32.900390625" height="40.986328125" xmlns="http://www.w3.org/2000/svg" xmlns:xlink="http://www.w3.org/1999/xlink" xmlns:xml="http://www.w3.org/XML/1998/namespace" version="1.1">
  <g>
    <g>
      <path style="fill:#FF0000;fill-opacity:1" d="M23.115234375,0L26.3818340301514,0.355224609375 29.091796875,1.4208984375 31.259765625,3.255615234375 32.900390625,5.91796875 27.568359375,8.3203125 26.1035137176514,6.0498046875 24.404296875,4.51171875 22.43408203125,3.6328125 20.15625,3.33984375 17.61474609375,3.695068359375 15.556640625,4.7607421875 14.1943349838257,6.419677734375 13.740234375,8.5546875 14.296875,11.19140625 15.9814453125,13.5498046875 17.515869140625,14.9597187042236 19.86328125,16.875 22.9174785614014,19.625244140625 24.931640625,22.2509765625 26.0522441864014,24.942626953125 26.42578125,27.890625 25.8837871551514,31.248779296875 24.2578125,34.4091796875 21.683349609375,37.144775390625 18.2958984375,39.228515625 14.337158203125,40.546875 10.048828125,40.986328125 7.1484375,40.72265625 4.65820264816284,39.931640625 2.64770483970642,38.701171875 1.18652319908142,37.119140625 0.296630829572678,35.2734375 0,33.251953125 0.325927734375,31.036376953125 1.3037109375,29.0771484375 2.8271484375,27.447509765625 4.7900390625,26.220703125 6.998291015625,25.45166015625 9.2578125,25.1953125 12.2314453125,25.751953125 13.5095205307007,26.5869140625 14.970703125,27.978515625 11.455078125,30.05859375 10.491943359375,28.96728515625 9.5947265625,28.271484375 7.646484375,27.7734375 6.26586866378784,28.062744140625 5.2294921875,28.9306640625 4.581298828125,30.230712890625 4.365234375,31.81640625 4.86328125,34.259033203125 6.357421875,36.1376953125 8.7451171875,37.335205078125 11.923828125,37.734375 14.813232421875,37.467041015625 17.2119140625,36.6650390625 19.07958984375,35.4052734375 20.3759765625,33.7646484375 21.134033203125,31.820068359375 21.38671875,29.6484375 20.8154296875,26.2939453125 19.013671875,23.4521484375 17.4755859375,21.910400390625 15.322265625,20.068359375 12.9382314682007,18.043212890625 11.2939453125,16.4208984375 9.404296875,13.505859375 8.7890625,10.078125 9.27978515625,7.49267578125 10.751953125,5.068359375 13.0664052963257,2.969970703125 16.083984375,1.3623046875 19.5263671875,0.340576171875 23.115234375,0z" />
    </g>
  </g>
</svg>