<?xml version="1.0" encoding="utf-8"?>
<!DOCTYPE svg PUBLIC "-//W3C//DTD SVG 1.1//EN" "http://www.w3.org/Graphics/SVG/1.1/DTD/svg11.dtd">
<svg width="29.677734375" height="29.12109375" xmlns="http://www.w3.org/2000/svg" xmlns:xlink="http://www.w3.org/1999/xlink" xmlns:xml="http://www.w3.org/XML/1998/namespace" version="1.1">
  <g>
    <g>
      <path style="fill:#FF0000;fill-opacity:1" d="M25.693359375,0L27.5097637176514,0.274659633636475 28.740234375,1.0986328125 29.4433574676514,2.38403463363647 29.677734375,4.04296875 29.1796875,7.265625 27.7734375,11.103515625 25.60546875,15.2490234375 22.822265625,19.3798828125 19.5703125,23.1591796875 15.9814453125,26.25 12.2021484375,28.3447265625 10.2868642807007,28.927001953125 8.37890625,29.12109375 6.9580078125,28.6962890625 6.03515625,27.4951171875 5.537109375,25.6640625 5.390625,23.349609375 5.595703125,19.775390625 6.123046875,15.9375 7.353515625,7.822265625 7.5439453125,6.4892578125 7.6171875,5.56640625 7.32421875,4.072265625 6.328125,3.486328125 5.126953125,3.8232421875 3.8232421875,4.6875 2.548828125,5.8154296875 1.40625,6.943359375 0,5.302734375 1.93359398841858,3.4423828125 4.1015625,1.7724609375 6.50390625,0.5712890625 9.08203125,0.1171875 10.8984375,0.4833984375 11.9970703125,1.4501953125 12.5390625,2.7685546875 12.685546875,4.189453125 12.65625,4.98046875 12.568359375,5.68359375 10.927734375,16.2890625 10.48828125,19.5556640625 10.3125,22.3828125 10.458984375,24.375 10.6713857650757,24.9462890625 11.015625,25.13671875 12.1069326400757,24.942626953125 13.447265625,24.3603515625 16.5234375,22.2216796875 19.74609375,18.9990234375 22.646484375,14.970703125 24.7412109375,10.400390625 25.3454570770264,7.99072265625 25.546875,5.56640625 25.0927734375,3.9404296875 23.671875,3.369140625 22.4890117645264,3.60717916488647 21.4013671875,4.3212890625 19.248046875,6.826171875 17.578125,5.33203125 19.2333984375,3.310546875 21.2548828125,1.611328125 23.466796875,0.439453125 25.693359375,0z" />
    </g>
  </g>
</svg>