<?xml version="1.0" encoding="utf-8"?>
<!DOCTYPE svg PUBLIC "-//W3C//DTD SVG 1.1//EN" "http://www.w3.org/Graphics/SVG/1.1/DTD/svg11.dtd">
<svg width="28.7109375" height="30" xmlns="http://www.w3.org/2000/svg" xmlns:xlink="http://www.w3.org/1999/xlink" xmlns:xml="http://www.w3.org/XML/1998/namespace" version="1.1">
  <g>
    <g>
      <path style="fill:#FF0000;fill-opacity:1" d="M17.109375,15.703125L13.157958984375,16.1865234375 10.3857421875,17.40234375 8.748779296875,19.3505859375 8.203125,22.03125 8.4521484375,23.631591796875 9.19921875,24.7998046875 10.3857412338257,25.513916015625 11.953125,25.751953125 14.501953125,25.0341796875 16.40625,23.115234375 17.109375,20.56640625 17.109375,15.703125z M15.64453125,0L18.834228515625,0.234376430511475 21.3134765625,0.9375 23.1701641082764,2.16797018051147 24.4921875,3.984375 25.2832012176514,6.49658203125 25.546875,9.814453125 25.546875,21.240234375 25.5834941864014,23.367919921875 25.693359375,24.7705078125 26.1474609375,26.279296875 26.9384765625,27.01171875 27.6232891082764,27.2900390625 28.7109375,27.59765625 28.7109375,29.53125 17.8125,29.53125 18.076171875,25.693359375 17.63671875,25.546875 15.267333984375,27.568359375 12.9638671875,28.9453125 10.6237783432007,29.736328125 8.14453125,30 4.78271436691284,29.505615234375 2.197265625,28.0224609375 0.54931640625,25.711669921875 0,22.734375 0.26458740234375,20.6954956054688 1.058349609375,18.885498046875 2.38128662109375,17.3043823242188 4.2333984375,15.9521484375 6.62384033203125,14.8287963867188 9.561767578125,13.934326171875 13.0471801757813,13.2687377929688 17.080078125,12.83203125 17.080078125,10.048828125 16.92626953125,7.635498046875 16.46484375,5.8447265625 15.76171875,4.58496236801147 14.8828125,3.7646484375 12.568359375,3.1640625 10.2392578125,3.6328125 9.305419921875,4.31030416488647 8.466796875,5.4052734375 7.7783203125,6.961669921875 7.294921875,9.0234375 1.7578125,9.0234375 1.7578125,3.69140625 4.866943359375,2.38403463363647 7.4560546875,1.4501953125 11.7919921875,0.3515625 15.64453125,0z" />
    </g>
  </g>
</svg>