<?xml version="1.0" encoding="utf-8"?>
<!DOCTYPE svg PUBLIC "-//W3C//DTD SVG 1.1//EN" "http://www.w3.org/Graphics/SVG/1.1/DTD/svg11.dtd">
<svg width="40.6640625" height="39.990234375" xmlns="http://www.w3.org/2000/svg" xmlns:xlink="http://www.w3.org/1999/xlink" xmlns:xml="http://www.w3.org/XML/1998/namespace" version="1.1">
  <g>
    <g>
      <path style="fill:#FF0000;fill-opacity:1" d="M7.67578125,0L17.021484375,0 24.755859375,22.822265625 26.2353496551514,27.36328125 27.333984375,31.142578125 27.65625,31.142578125 28.0407695770264,28.76220703125 28.7255859375,25.1953125 29.5275859832764,21.298828125 30.263671875,17.9296875 32.314453125,8.701171875 32.7978515625,6.07177734375 32.958984375,3.984375 32.786865234375,2.816162109375 32.2705078125,2.0654296875 31.380615234375,1.636962890625 30.087890625,1.435546875 30.41015625,0 40.6640625,0 40.341796875,1.435546875 38.7451171875,1.962890625 37.880859375,2.841796875 37.08984375,4.6728515625 36.62841796875,6.309814453125 36.064453125,8.73046875 29.1796875,39.990234375 25.1953125,39.990234375 16.640625,14.853515625 13.916015625,5.859375 13.53515625,5.859375 13.2055654525757,8.03100681304932 12.568359375,11.5576171875 10.8984375,19.775390625 8.3203125,31.46484375 7.85888671875,33.9990234375 7.705078125,36.03515625 7.869873046875,37.159423828125 8.3642578125,37.8955078125 9.246826171875,38.331298828125 10.576171875,38.5546875 10.25390625,39.990234375 0,39.990234375 0.322265863418579,38.5546875 1.9921875,37.9833984375 2.92968797683716,36.884765625 3.6328125,35.1708984375 4.03564453125,33.687744140625 4.599609375,31.259765625 9.580078125,8.701171875 10.048828125,6.298828125 10.224609375,3.984375 10.052490234375,2.816162109375 9.5361328125,2.0654296875 8.646240234375,1.636962890625 7.353515625,1.435546875 7.67578125,0z" />
    </g>
  </g>
</svg>