<?xml version="1.0" encoding="utf-8"?>
<!DOCTYPE svg PUBLIC "-//W3C//DTD SVG 1.1//EN" "http://www.w3.org/Graphics/SVG/1.1/DTD/svg11.dtd">
<svg width="16.904296875" height="51.474609375" xmlns="http://www.w3.org/2000/svg" xmlns:xlink="http://www.w3.org/1999/xlink" xmlns:xml="http://www.w3.org/XML/1998/namespace" version="1.1">
  <g>
    <g>
      <path style="fill:#FF0000;fill-opacity:1" d="M1.52343726158142,0L16.904296875,0 16.904296875,1.93359375 15.626220703125,2.376708984375 14.7802734375,2.8857421875 13.9453125,4.3798828125 13.7915029525757,5.606689453125 13.740234375,7.3828125 13.740234375,36.73828125 13.6413564682007,39.393310546875 13.3447265625,41.4404296875 12.1728515625,44.53125 10.0341796875,47.109375 8.477783203125,48.310546875 6.533203125,49.453125 4.19677734375,50.51513671875 1.46484375,51.474609375 0,47.87109375 1.85668909549713,46.93359375 3.09082007408142,45.99609375 4.3359375,43.6669921875 4.57763576507568,41.883544921875 4.658203125,39.31640625 4.658203125,7.3828125 4.61059474945068,5.496826171875 4.4677734375,4.2919921875 3.69140553474426,2.900390625 2.85644507408142,2.39501953125 1.52343726158142,1.93359375 1.52343726158142,0z" />
    </g>
  </g>
</svg>