<?xml version="1.0" encoding="utf-8"?>
<!DOCTYPE svg PUBLIC "-//W3C//DTD SVG 1.1//EN" "http://www.w3.org/Graphics/SVG/1.1/DTD/svg11.dtd">
<svg width="32.490234375" height="41.25" xmlns="http://www.w3.org/2000/svg" xmlns:xlink="http://www.w3.org/1999/xlink" xmlns:xml="http://www.w3.org/XML/1998/namespace" version="1.1">
  <g>
    <g>
      <path style="fill:#FF0000;fill-opacity:1" d="M9.462890625,0L11.513671875,0.322265625 12.685546875,1.0986328125 13.7255859375,2.607421875 14.5166015625,4.775390625 14.8718252182007,6.240234375 15.263671875,8.232421875 16.6259765625,16.1865234375 17.75390625,23.935546875 20.379638671875,19.8779296875 22.5732421875,15.908203125 24.2724590301514,12.23876953125 25.4150390625,9.08203125 26.0632305145264,6.45263671875 26.279296875,4.365234375 26.1328105926514,3.20800924301147 25.693359375,2.490234375 24.9023418426514,2.09472799301147 23.701171875,1.904296875 23.994140625,0.46875 31.69921875,0.46875 32.490234375,1.93359375 29.8681621551514,8.23974609375 26.455078125,14.970703125 22.43408203125,21.7529296875 17.87109375,28.505859375 15.6536855697632,31.4923095703125 13.6303701400757,34.03564453125 11.8011465072632,36.1358642578125 10.166015625,37.79296875 8.06396484375,39.4775390625 6.03515577316284,40.60546875 2.66601538658142,41.25 1.24511706829071,41.1474609375 0,40.869140625 1.25976538658142,35.185546875 3.57421851158142,35.185546875 3.89648389816284,36.591796875 4.86328077316284,37.060546875 6.70165920257568,36.529541015625 8.818359375,34.9365234375 11.27197265625,32.274169921875 14.12109375,28.53515625 13.1176748275757,22.880859375 11.806640625,16.171875 11.09619140625,12.6727294921875 10.517578125,9.90966796875 10.07080078125,7.8826904296875 9.755859375,6.591796875 9.1259765625,4.76806783676147 8.466796875,3.75 7.44140577316284,3.369140625 6.53320217132568,3.55957174301147 5.68359327316284,4.130859375 4.76806592941284,5.1708984375 3.662109375,6.767578125 1.75781214237213,5.5078125 3.71337842941284,2.93335103988647 5.53710889816284,1.2451171875 7.39746046066284,0.311280727386475 9.462890625,0z" />
    </g>
  </g>
</svg>