<?xml version="1.0" encoding="utf-8"?>
<!DOCTYPE svg PUBLIC "-//W3C//DTD SVG 1.1//EN" "http://www.w3.org/Graphics/SVG/1.1/DTD/svg11.dtd">
<svg width="35.771484375" height="39.990234375" xmlns="http://www.w3.org/2000/svg" xmlns:xlink="http://www.w3.org/1999/xlink" xmlns:xml="http://www.w3.org/XML/1998/namespace" version="1.1">
  <g>
    <g>
      <path style="fill:#FF0000;fill-opacity:1" d="M8.056640625,0L35.771484375,0 33.69140625,9.43359375 29.94140625,9.43359375 29.7363262176514,7.06787109375 29.4140625,5.537109375 28.2421875,3.92578125 26.015625,3.427734375 19.39453125,3.427734375 16.171875,18.076171875 20.09765625,18.076171875 21.661376953125,17.7978515625 22.8955078125,16.962890625 23.9685039520264,15.5053730010986 25.048828125,13.359375 28.271484375,13.359375 25.1953125,26.42578125 22.177734375,26.42578125 22.122802734375,24.638671875 21.9580078125,23.37890625 21.181640625,21.943359375 19.453125,21.50390625 15.439453125,21.50390625 13.095703125,32.080078125 12.802734375,33.7060546875 12.71484375,35.5078125 12.8869619369507,36.65771484375 13.4033203125,37.412109375 14.285888671875,37.8515625 15.556640625,38.056640625 15.146484375,39.990234375 0,39.990234375 0.41015613079071,38.056640625 1.86035144329071,37.412109375 2.87109327316284,36.416015625 3.64013671875,34.74609375 4.365234375,32.080078125 9.697265625,7.91015625 10.078125,4.482421875 9.5068359375,2.6806640625 7.646484375,1.93359375 8.056640625,0z" />
    </g>
  </g>
</svg>