<?xml version="1.0" encoding="utf-8"?>
<!DOCTYPE svg PUBLIC "-//W3C//DTD SVG 1.1//EN" "http://www.w3.org/Graphics/SVG/1.1/DTD/svg11.dtd">
<svg width="24.4335937500001" height="30" xmlns="http://www.w3.org/2000/svg" xmlns:xlink="http://www.w3.org/1999/xlink" xmlns:xml="http://www.w3.org/XML/1998/namespace" version="1.1">
  <g>
    <g>
      <path style="fill:#FF0000;fill-opacity:1" d="M14.94140625,0L19.6728515625,0.3369140625 23.96484375,1.259765625 23.96484375,8.3203125 18.1640625,8.3203125 17.61474609375,5.93994140625 16.845703125,4.306640625 15.7763671875,3.36181783676147 14.326171875,3.046875 11.9641103744507,3.77197408676147 10.2685546875,5.947265625 9.24682521820068,9.58740234375 8.90625,14.70703125 9.30175685882568,19.412841796875 10.48828125,22.7490234375 12.509765625,24.737548828125 15.41015625,25.400390625 18.6181640625,24.66796875 20.262451171875,23.642578125 22.177734375,22.03125 24.43359375,24.755859375 21.6101055145264,27.169189453125 18.8818359375,28.7841796875 16.080322265625,29.696044921875 13.037109375,30 10.0469970703125,29.7665405273438 7.43408203125,29.066162109375 5.1983642578125,27.8988647460938 3.33984375,26.2646484375 1.878662109375,24.1854858398438 0.83496081829071,21.683349609375 0.208740130066872,18.7582397460938 0,15.41015625 0.457763493061066,10.931396484375 1.8310546875,7.1044921875 4.06127882003784,4.02832174301147 7.08984375,1.8017578125 10.7666006088257,0.450440883636475 14.94140625,0z" />
    </g>
  </g>
</svg>