<?xml version="1.0" encoding="utf-8"?>
<!DOCTYPE svg PUBLIC "-//W3C//DTD SVG 1.1//EN" "http://www.w3.org/Graphics/SVG/1.1/DTD/svg11.dtd">
<svg width="34.072265625" height="40.927734375" xmlns="http://www.w3.org/2000/svg" xmlns:xlink="http://www.w3.org/1999/xlink" xmlns:xml="http://www.w3.org/XML/1998/namespace" version="1.1">
  <g>
    <g>
      <path style="fill:#FF0000;fill-opacity:1" d="M18.75,0L24.9023418426514,0.38818359375 30.52734375,1.552734375 30.52734375,9.873046875 26.513671875,9.873046875 25.7922344207764,7.694091796875 24.9755859375,6.0791015625 22.7490234375,4.0869140625 21.1926250457764,3.592529296875 19.248046875,3.427734375 16.51611328125,3.870849609375 14.12109375,5.2001953125 12.12890625,7.5 10.60546875,10.8544921875 9.63867092132568,15.2526874542236 9.31640625,20.68359375 9.44549465179443,24.5059204101563 9.83276271820068,27.857666015625 10.4782094955444,30.7388305664063 11.3818359375,33.1494140625 12.5198364257813,35.0527954101563 13.868408203125,36.412353515625 15.4275512695313,37.2280883789063 17.197265625,37.5 19.4384765625,37.115478515625 21.005859375,35.9619140625 21.9287090301514,33.966064453125 22.236328125,31.0546875 22.236328125,29.94140625 22.1997051239014,28.033447265625 22.08984375,26.7626953125 21.6357421875,25.341796875 20.830078125,24.580078125 20.1416015625,24.26513671875 19.072265625,23.90625 19.072265625,21.97265625 34.072265625,21.97265625 34.072265625,23.90625 32.841796875,24.375 32.080078125,24.90234375 31.3623046875,26.3818359375 31.171875,28.974609375 31.171875,40.01953125 26.953125,40.8984375 24.9609375,38.7890625 21.2182598114014,40.39306640625 16.962890625,40.927734375 12.9574584960938,40.6155395507813 9.495849609375,39.678955078125 6.57806444168091,38.1179809570313 4.20410251617432,35.9326171875 2.36480760574341,33.1137084960938 1.05102562904358,29.652099609375 0.262756407260895,25.5477905273438 0,20.80078125 0.56762707233429,14.7106952667236 2.27050805091858,9.5654296875 5.04638671875,5.44921875 8.8330078125,2.4462890625 13.458251953125,0.611572265625 18.75,0z" />
    </g>
  </g>
</svg>