<?xml version="1.0" encoding="utf-8"?>
<!DOCTYPE svg PUBLIC "-//W3C//DTD SVG 1.1//EN" "http://www.w3.org/Graphics/SVG/1.1/DTD/svg11.dtd">
<svg width="12.861328125" height="42.36328125" xmlns="http://www.w3.org/2000/svg" xmlns:xlink="http://www.w3.org/1999/xlink" xmlns:xml="http://www.w3.org/XML/1998/namespace" version="1.1">
  <g>
    <g>
      <path style="fill:#FF0000;fill-opacity:1" d="M11.044921875,0L12.7734375,0 5.56640672683716,32.431640625 5.08300828933716,34.9658203125 4.92187547683716,36.767578125 5.30273485183716,38.466796875 6.50390672683716,38.994140625 8.37890625,38.2763671875 9.580078125,37.232666015625 11.19140625,35.537109375 12.861328125,37.177734375 10.279541015625,39.693603515625 8.2177734375,41.2646484375 6.30981492996216,42.088623046875 4.18945360183716,42.36328125 2.47558617591858,42.015380859375 1.14257907867432,40.9716796875 0.285645008087158,39.385986328125 0,37.412109375 0.205078482627869,35.009765625 0.8203125,31.728515625 6.06445360183716,8.26171875 6.56250047683716,5.7861328125 6.70898485183716,4.072265625 6.38671922683716,2.7392578125 5.46386766433716,2.080078125 4.62524461746216,1.904296875 3.31054735183716,1.787109375 3.66210985183716,0.263671875 11.044921875,0z" />
    </g>
  </g>
</svg>