<?xml version="1.0" encoding="utf-8"?>
<!DOCTYPE svg PUBLIC "-//W3C//DTD SVG 1.1//EN" "http://www.w3.org/Graphics/SVG/1.1/DTD/svg11.dtd">
<svg width="43.681640625" height="40.927734375" xmlns="http://www.w3.org/2000/svg" xmlns:xlink="http://www.w3.org/1999/xlink" xmlns:xml="http://www.w3.org/XML/1998/namespace" version="1.1">
  <g>
    <g>
      <path style="fill:#FF0000;fill-opacity:1" d="M41.044921875,0L41.865234375,1.728515625 40.31982421875,6.6064453125 38.7890625,12.744140625 35.302734375,28.681640625 34.6875,32.01416015625 34.482421875,34.51171875 35.09765625,36.6650390625 37.001953125,37.412109375 38.37890625,37.119140625 39.6826171875,36.240234375 40.579833984375,35.38330078125 41.953125,33.984375 43.681640625,35.595703125 41.71875,37.664794921875 40.166015625,39.0087890625 37.412109375,40.458984375 34.27734375,40.927734375 32.384033203125,40.557861328125 30.8056640625,39.4482421875 29.7106914520264,37.723388671875 29.267578125,35.5078125 29.00390625,35.478515625 26.4587383270264,37.899169921875 23.7451171875,39.5947265625 20.841064453125,40.594482421875 17.724609375,40.927734375 15.216064453125,40.5908203125 13.1396484375,39.580078125 11.524658203125,37.994384765625 10.400390625,35.9326171875 9.7412109375,33.482666015625 9.521484375,30.732421875 9.755859375,27.110595703125 10.458984375,22.5732421875 11.597900390625,17.548828125 13.1396484375,12.4658203125 14.9304189682007,7.84790134429932 16.81640625,4.21875 16.7578125,3.92578125 12.4841299057007,4.03564453125 9.3896484375,4.365234375 7.236328125,4.95849609375 5.78613233566284,5.859375 4.962158203125,7.1484375 4.6875,8.90625 4.94384765625,10.5615253448486 5.712890625,12.5390625 1.20117175579071,14.296875 0.278320074081421,12.3193359375 0,10.283203125 0.732421517372131,7.79296875 1.89331042766571,6.24755859375 3.61816382408142,4.658203125 7.7490234375,2.0361328125 12.275390625,0.703125 14.4360342025757,0.52734375 17.51953125,0.46875 20.859375,0.46875 21.6796875,2.197265625 20.625,4.764404296875 19.51171875,8.0126953125 18.372802734375,11.8505878448486 17.2412109375,16.1865234375 16.25244140625,20.47119140625 15.5419921875,24.1552734375 14.970703125,30.46875 15.2929677963257,33.387451171875 16.259765625,35.5810546875 17.81982421875,36.954345703125 19.921875,37.412109375 23.14453125,36.767578125 26.1181640625,34.892578125 28.5498046875,32.2265625 30.029296875,28.798828125 34.921875,6.4453125 35.6982421875,3.28125 36.4453125,0.9375 41.044921875,0z" />
    </g>
  </g>
</svg>