<?xml version="1.0" encoding="utf-8"?>
<!DOCTYPE svg PUBLIC "-//W3C//DTD SVG 1.1//EN" "http://www.w3.org/Graphics/SVG/1.1/DTD/svg11.dtd">
<svg width="33.4863281250001" height="42.421875" xmlns="http://www.w3.org/2000/svg" xmlns:xlink="http://www.w3.org/1999/xlink" xmlns:xml="http://www.w3.org/XML/1998/namespace" version="1.1">
  <g>
    <g>
      <path style="fill:#FF0000;fill-opacity:1" d="M17.490234375,15.46875L14.91943359375,16.1535663604736 12.65625,18.2080078125 10.7519521713257,21.419677734375 9.2578125,25.576171875 8.291015625,29.96337890625 7.96875,33.8671875 8.126220703125,35.73486328125 8.5986328125,37.060546875 9.40063381195068,37.8515625 10.546875,38.115234375 12.498779296875,37.642822265625 14.4873046875,36.2255859375 16.300048828125,34.171142578125 17.724609375,31.787109375 18.88916015625,28.76953125 19.921875,24.814453125 20.15625,23.73046875 20.625,19.423828125 20.44189453125,17.7026386260986 19.892578125,16.46484375 18.92578125,15.7177753448486 17.490234375,15.46875z M30.05859375,0L33.369140625,0 25.95703125,32.8125 25.517578125,36.15234375 25.83984375,37.646484375 26.953125,38.173828125 27.8979473114014,37.96875 28.916015625,37.353515625 30.05859375,36.33544921875 31.376953125,34.921875 33.486328125,37.03125 30.62255859375,39.627685546875 28.18359375,41.2646484375 25.8984355926514,42.132568359375 23.49609375,42.421875 21.2915019989014,42.081298828125 19.599609375,41.0595703125 18.52294921875,39.481201171875 18.1640625,37.470703125 18.33984375,36.064453125 17.958984375,35.9765625 15.267333984375,38.887939453125 12.7587890625,40.8837890625 10.1037588119507,42.037353515625 6.97265625,42.421875 4.03198194503784,41.8212890625 1.83105516433716,40.01953125 0.45776355266571,37.08251953125 0,33.076171875 0.285644352436066,29.1357421875 1.142578125,25.224609375 2.5341796875,21.595458984375 4.423828125,18.5009765625 6.837158203125,15.9741230010986 9.7998046875,14.0478515625 13.245849609375,12.8283710479736 17.109375,12.421875 19.6728515625,12.6489276885986 22.1484375,13.330078125 23.14453125,8.84765625 23.5546875,6.73828125 23.7890625,4.658203125 23.6572265625,3.6474609375 23.26171875,3.046875 22.55859375,2.6806640625 21.9067363739014,2.537841796875 20.830078125,2.373046875 21.298828125,0.46875 30.05859375,0z" />
    </g>
  </g>
</svg>