<?xml version="1.0" encoding="utf-8"?>
<!DOCTYPE svg PUBLIC "-//W3C//DTD SVG 1.1//EN" "http://www.w3.org/Graphics/SVG/1.1/DTD/svg11.dtd">
<svg width="36.328125" height="42.626953125" xmlns="http://www.w3.org/2000/svg" xmlns:xlink="http://www.w3.org/1999/xlink" xmlns:xml="http://www.w3.org/XML/1998/namespace" version="1.1">
  <g>
    <g>
      <path style="fill:#FF0000;fill-opacity:1" d="M23.3203125,3.046875L20.8154296875,3.70605611801147 18.57421875,5.68359375 16.658935546875,8.8330078125 15.1318359375,13.0078125 14.1320791244507,17.4609375 13.798828125,21.4453125 13.9562978744507,23.31298828125 14.4287109375,24.638671875 15.230712890625,25.4296875 16.376953125,25.693359375 17.64404296875,25.491943359375 18.92578125,24.8876953125 20.247802734375,23.8623046875 21.6357421875,22.3974609375 24.0234375,18.33984375 24.9389629364014,15.6591796875 25.751953125,12.36328125 25.986328125,11.279296875 26.455078125,7.060546875 26.2719707489014,5.29541158676147 25.72265625,4.04296875 24.7558574676514,3.29589986801147 23.3203125,3.046875z M23.02734375,0L26.8505859375,0.4541015625 30.41015625,2.109375 33.046875,0 36.328125,0.46875 33.80859375,11.923828125 32.6953125,17.314453125 31.9647216796875,20.9930419921875 31.35498046875,24.00146484375 30.8660888671875,26.3397216796875 30.498046875,28.0078125 29.3994121551514,31.9921875 28.271484375,34.86328125 25.166015625,39.0087890625 23.0200176239014,40.513916015625 20.390625,41.6015625 16.7578125,42.37060546875 12.421875,42.626953125 9.510498046875,42.5234985351563 6.9873046875,42.213134765625 4.852294921875,41.6958618164063 3.10546898841858,40.9716796875 1.74682629108429,40.0405883789063 0.7763671875,38.902587890625 0.194091781973839,37.5576782226563 0,36.005859375 0.322265595197678,34.24072265625 1.2890625,32.578125 2.8857421875,31.00341796875 5.09765625,29.501953125 8.14453125,31.962890625 7.0458984375,33.779296875 6.73828125,35.625 7.086181640625,37.364501953125 8.1298828125,38.5986328125 9.869384765625,39.334716796875 12.3046875,39.580078125 14.4287109375,39.3704223632813 16.318359375,38.741455078125 17.9736328125,37.6931762695313 19.39453125,36.2255859375 20.650634765625,34.2013549804688 21.8115234375,31.483154296875 22.877197265625,28.0709838867188 23.84765625,23.96484375 23.466796875,23.701171875 20.93994140625,26.539306640625 18.515625,28.4912109375 15.908203125,29.622802734375 12.83203125,30 9.906005859375,29.3994140625 7.6904296875,27.59765625 6.29516553878784,24.66064453125 5.830078125,20.654296875 6.12304639816284,16.666259765625 7.00195264816284,12.7294921875 8.419189453125,9.093017578125 10.3271484375,6.005859375 12.7441396713257,3.49731588363647 15.6884765625,1.5966796875 19.127197265625,0.399171352386475 23.02734375,0z" />
    </g>
  </g>
</svg>