<?xml version="1.0" encoding="utf-8"?>
<!DOCTYPE svg PUBLIC "-//W3C//DTD SVG 1.1//EN" "http://www.w3.org/Graphics/SVG/1.1/DTD/svg11.dtd">
<svg width="30.9667968750001" height="40.927734375" xmlns="http://www.w3.org/2000/svg" xmlns:xlink="http://www.w3.org/1999/xlink" xmlns:xml="http://www.w3.org/XML/1998/namespace" version="1.1">
  <g>
    <g>
      <path style="fill:#FF0000;fill-opacity:1" d="M20.9765625,0L25.9130859375,0.322265625 30.966796875,1.494140625 29.208984375,9.43359375 26.396484375,9.43359375 25.8874492645264,6.331787109375 24.8291015625,4.2333984375 23.0895977020264,3.035888671875 20.537109375,2.63671875 18.5513305664063,2.889404296875 16.636962890625,3.6474609375 14.7940063476563,4.910888671875 13.0224609375,6.6796875 9.91332912445068,11.3708515167236 7.529296875,17.3583984375 6.01318359375,23.756103515625 5.5078125,29.677734375 5.9033203125,33.544921875 7.08984375,36.240234375 9.09667873382568,37.822265625 11.953125,38.349609375 15.791015625,37.6904296875 17.38037109375,36.80419921875 18.8671875,35.4638671875 20.2954082489014,33.585205078125 21.708984375,31.083984375 24.521484375,31.083984375 22.734375,39.404296875 17.1240234375,40.546875 11.25,40.927734375 8.660888671875,40.72998046875 6.4013671875,40.13671875 4.471435546875,39.14794921875 2.87109327316284,37.763671875 0.71777331829071,33.8671875 0,28.505859375 0.384521394968033,23.86962890625 1.5380859375,18.57421875 3.39477491378784,13.2934589385986 5.888671875,8.701171875 8.95751857757568,4.95849609375 12.5390625,2.2265625 16.5673828125,0.556640625 20.9765625,0z" />
    </g>
  </g>
</svg>