<?xml version="1.0" encoding="utf-8"?>
<!DOCTYPE svg PUBLIC "-//W3C//DTD SVG 1.1//EN" "http://www.w3.org/Graphics/SVG/1.1/DTD/svg11.dtd">
<svg width="29.00390625" height="51.298828125" xmlns="http://www.w3.org/2000/svg" xmlns:xlink="http://www.w3.org/1999/xlink" xmlns:xml="http://www.w3.org/XML/1998/namespace" version="1.1">
  <g>
    <g>
      <path style="fill:#FF0000;fill-opacity:1" d="M14.267578125,0L29.00390625,0 28.59375,1.93359375 27.1435546875,2.578125 26.1328125,3.57421875 25.36376953125,5.244140625 24.638671875,7.91015625 18.134765625,37.5 17.2265625,40.7757568359375 16.0546875,43.60107421875 14.619140625,45.9759521484375 12.919921875,47.900390625 10.938720703125,49.38720703125 8.6572265625,50.44921875 6.075439453125,51.08642578125 3.19335961341858,51.298828125 0,50.859375 0.849609375,47.40234375 2.95898413658142,47.6953125 4.51171875,47.490234375 5.71289014816284,46.875 6.6650390625,45.816650390625 7.470703125,44.2822265625 8.232421875,42.008056640625 9.052734375,38.73046875 15.908203125,7.91015625 16.2890625,4.482421875 15.7177734375,2.6806640625 13.857421875,1.93359375 14.267578125,0z" />
    </g>
  </g>
</svg>