<?xml version="1.0" encoding="utf-8"?>
<!DOCTYPE svg PUBLIC "-//W3C//DTD SVG 1.1//EN" "http://www.w3.org/Graphics/SVG/1.1/DTD/svg11.dtd">
<svg width="30.4980468750001" height="42.158203125" xmlns="http://www.w3.org/2000/svg" xmlns:xlink="http://www.w3.org/1999/xlink" xmlns:xml="http://www.w3.org/XML/1998/namespace" version="1.1">
  <g>
    <g>
      <path style="fill:#FF0000;fill-opacity:1" d="M17.490234375,3.046875L14.90478515625,3.72070455551147 12.65625,5.7421875 10.7702627182007,8.924560546875 9.2724609375,13.0810546875 8.294677734375,17.493896484375 7.96875,21.4453125 8.126220703125,23.31298828125 8.5986328125,24.638671875 9.40063381195068,25.4296875 10.546875,25.693359375 12.498779296875,25.220947265625 14.4873046875,23.8037109375 16.300048828125,21.749267578125 17.724609375,19.365234375 18.88916015625,16.34765625 19.921875,12.392578125 20.15625,11.30859375 20.625,7.03125 20.44189453125,5.28808736801147 19.892578125,4.04296875 18.92578125,3.29589986801147 17.490234375,3.046875z M17.138671875,0L21.1816387176514,0.527345180511475 24.580078125,2.109375 27.216796875,0 30.498046875,0.46875 23.056640625,34.3359375 22.646484375,36.474609375 22.55859375,37.67578125 22.7197246551514,38.7744140625 23.203125,39.4921875 24.0966777801514,39.93896484375 25.48828125,40.224609375 25.166015625,42.158203125 13.0078125,42.158203125 17.783203125,24.140625 17.40234375,24.0234375 15.010986328125,26.678466796875 12.6416015625,28.5498046875 10.0524892807007,29.659423828125 7.001953125,30.029296875 4.03930616378784,29.425048828125 1.8310546875,27.6123046875 0.457763493061066,24.664306640625 0,20.654296875 0.285644352436066,16.7138671875 1.142578125,12.802734375 2.5341796875,9.173583984375 4.423828125,6.0791015625 6.837158203125,3.55224752426147 9.7998046875,1.6259765625 13.253173828125,0.406495571136475 17.138671875,0z" />
    </g>
  </g>
</svg>