<?xml version="1.0" encoding="utf-8"?>
<!DOCTYPE svg PUBLIC "-//W3C//DTD SVG 1.1//EN" "http://www.w3.org/Graphics/SVG/1.1/DTD/svg11.dtd">
<svg width="30.46875" height="29.0625" xmlns="http://www.w3.org/2000/svg" xmlns:xlink="http://www.w3.org/1999/xlink" xmlns:xml="http://www.w3.org/XML/1998/namespace" version="1.1">
  <g>
    <g>
      <path style="fill:#FF0000;fill-opacity:1" d="M0.498046934604645,0L14.677734375,0 14.677734375,1.93359375 13.2934560775757,2.53418111801147 12.83203125,3.57421875 13.095703125,4.6142578125 13.9453125,5.9765625 16.962890625,10.283203125 19.951171875,6.5625 20.9326171875,5.0830078125 21.2109375,3.837890625 20.6103515625,2.5048828125 18.984375,1.93359375 18.984375,0 30.146484375,0 30.146484375,1.93359375 27.71484375,3.1787109375 26.3525371551514,4.50805807113647 24.4921875,6.650390625 18.8671875,13.0078125 25.72265625,22.734375 27.2607402801514,24.766845703125 28.41796875,26.0009765625 30.46875,27.12890625 30.46875,29.0625 16.201171875,29.0625 16.201171875,27.12890625 17.5634765625,26.6455078125 18.017578125,25.60546875 17.8271484375,24.6826171875 16.962890625,23.26171875 13.65234375,18.515625 10.576171875,22.294921875 9.3310546875,24.052734375 9.08203125,25.3125 9.609375,26.513671875 11.279296875,27.12890625 11.279296875,29.0625 0,29.0625 0,27.12890625 1.263427734375,26.6748046875 2.53417992591858,25.83984375 3.944091796875,24.55078125 5.625,22.734375 11.748046875,15.791015625 4.86328125,6.064453125 3.438720703125,4.16381978988647 2.32910132408142,2.9150390625 1.39526355266571,2.20825338363647 0.498046934604645,1.93359375 0.498046934604645,0z" />
    </g>
  </g>
</svg>