<?xml version="1.0" encoding="utf-8"?>
<!DOCTYPE svg PUBLIC "-//W3C//DTD SVG 1.1//EN" "http://www.w3.org/Graphics/SVG/1.1/DTD/svg11.dtd">
<svg width="25.986328125" height="53.84765625" xmlns="http://www.w3.org/2000/svg" xmlns:xlink="http://www.w3.org/1999/xlink" xmlns:xml="http://www.w3.org/XML/1998/namespace" version="1.1">
  <g>
    <g>
      <path style="fill:#FF0000;fill-opacity:1" d="M20.56640625,11.3671875L23.90625,11.3671875 17.724609375,39.84375 16.8081665039063,43.2449340820313 15.640869140625,46.153564453125 14.2227172851563,48.5696411132813 12.5537118911743,50.4931640625 10.5972290039063,51.9607543945313 8.316650390625,53.009033203125 5.71197509765625,53.6380004882813 2.783203125,53.84765625 0,53.466796875 0.791016578674316,50.2734375 2.72461032867432,50.5078125 4.87793016433716,50.1416015625 6.38671970367432,48.8818359375 7.03857469558716,47.779541015625 7.64648485183716,46.259765625 8.26171875,44.1796875 8.935546875,41.396484375 13.681640625,20.302734375 14.18701171875,17.7099609375 14.35546875,15.908203125 13.8134765625,14.2822265625 12.974853515625,13.8757343292236 11.54296875,13.623046875 11.9824228286743,11.689453125 20.56640625,11.3671875z M18.486328125,0L25.986328125,0 24.462890625,7.177734375 16.875,7.177734375 18.486328125,0z" />
    </g>
  </g>
</svg>