<?xml version="1.0" encoding="utf-8"?>
<!DOCTYPE svg PUBLIC "-//W3C//DTD SVG 1.1//EN" "http://www.w3.org/Graphics/SVG/1.1/DTD/svg11.dtd">
<svg width="66.2109375" height="40.927734375" xmlns="http://www.w3.org/2000/svg" xmlns:xlink="http://www.w3.org/1999/xlink" xmlns:xml="http://www.w3.org/XML/1998/namespace" version="1.1">
  <g>
    <g>
      <path style="fill:#FF0000;fill-opacity:1" d="M17.51953125,0L19.716796875,0.194091796875 21.50390625,0.7763671875 24.19921875,3.046875 25.5798320770264,5.474853515625 26.8505859375,8.8330078125 28.0480937957764,13.2019062042236 29.208984375,18.662109375 29.5330791473389,20.4144287109375 29.9194316864014,22.65380859375 30.3680400848389,25.3802490234375 30.87890625,28.59375 31.171875,28.681640625 33.10546875,24.9755859375 35.9765625,19.833984375 37.32421875,17.4792499542236 38.466796875,15.5126972198486 39.404296875,13.9343271255493 40.13671875,12.744140625 41.964111328125,10.0817890167236 43.6962890625,7.8955078125 47.28515625,4.423828125 51.181640625,1.81640625 54.7265625,0.4541015625 58.9453125,0 61.1059532165527,0.3076171875 63.017578125,1.23046875 64.70947265625,2.7978515625 66.2109375,5.0390625 61.845703125,6.9140625 60.6994590759277,4.852294921875 59.6630859375,3.5302734375 58.5754356384277,2.816162109375 57.275390625,2.578125 55.95703125,2.783203125 54.90234375,3.45703125 54.111328125,4.6435546875 53.408203125,6.6650390625 52.9760704040527,8.42651462554932 52.3828125,11.103515625 48.57421875,28.681640625 47.9736328125,32.021484375 47.75390625,34.51171875 48.369140625,36.6650390625 50.2734375,37.412109375 52.1337890625,36.8701171875 53.3386192321777,35.877685546875 55.224609375,33.984375 56.953125,35.595703125 54.9902305603027,37.664794921875 53.4375,39.0087890625 50.68359375,40.458984375 47.548828125,40.927734375 45.53466796875,40.521240234375 43.88671875,39.3017578125 42.7880859375,37.423095703125 42.421875,35.0390625 42.6416015625,32.40234375 43.18359375,29.35546875 45.64453125,18.6328125 47.13134765625,12.4365253448486 48.427734375,7.67578125 47.87109375,7.67578125 46.171875,10.0671405792236 44.1796875,13.0810546875 40.341796875,19.365234375 31.435546875,34.74609375 28.76953125,35.80078125 27.568359375,35.80078125 26.3415508270264,27.3193359375 25.0634746551514,20.09765625 23.7341289520264,14.1357421875 22.353515625,9.43359375 22.03125,9.43359375 21.15234375,14.794921875 17.98828125,29.23828125 17.2036743164063,32.281494140625 16.285400390625,34.8193359375 15.2334594726563,36.851806640625 14.0478515625,38.37890625 11.099853515625,40.29052734375 7.26562547683716,40.927734375 5.064697265625,40.61279296875 3.14941382408142,39.66796875 1.475830078125,38.0859375 0,35.859375 3.98437547683716,33.6328125 5.218505859375,35.797119140625 6.4013671875,37.2509765625 7.606201171875,38.074951171875 8.90625,38.349609375 10.1220703125,38.14453125 11.0302734375,37.6171875 11.689453125,36.8115234375 12.2314453125,35.6982421875 12.5061025619507,34.87060546875 12.83203125,33.6474609375 13.2202138900757,31.988525390625 13.681640625,29.853515625 16.7578125,15.234375 17.435302734375,12.2937030792236 18.1787109375,9.7412109375 19.921875,5.390625 18.3251953125,4.013671875 16.142578125,3.486328125 14.4103994369507,3.724365234375 12.7880859375,4.4384765625 11.143798828125,5.672607421875 9.345703125,7.470703125 7.6171875,5.859375 9.539794921875,3.812255859375 11.1474609375,2.3583984375 14.12109375,0.6005859375 17.51953125,0z" />
    </g>
  </g>
</svg>