<?xml version="1.0" encoding="utf-8"?>
<!DOCTYPE svg PUBLIC "-//W3C//DTD SVG 1.1//EN" "http://www.w3.org/Graphics/SVG/1.1/DTD/svg11.dtd">
<svg width="30.46875" height="29.53125" xmlns="http://www.w3.org/2000/svg" xmlns:xlink="http://www.w3.org/1999/xlink" xmlns:xml="http://www.w3.org/XML/1998/namespace" version="1.1">
  <g>
    <g>
      <path style="fill:#FF0000;fill-opacity:1" d="M9.990234375,0L12.1765127182007,0.340577602386475 13.8720703125,1.3623046875 14.9597158432007,2.94067525863647 15.322265625,4.951171875 15,6.943359375 15.234375,7.03125 17.75390625,3.99170064926147 20.390625,1.787109375 23.232421875,0.446778774261475 26.3671875,0 30.46875,0.556640625 28.740234375,8.4375 23.49609375,8.4375 23.3898906707764,6.77490234375 23.0712890625,5.712890625 22.496337890625,5.14160299301147 21.62109375,4.951171875 19.892578125,5.5078125 18.863525390625,6.328125 17.6513671875,7.67578125 15.6884765625,10.751953125 15.0695791244507,12.421875 14.53125,14.501953125 11.220703125,29.53125 2.81249976158142,29.53125 7.529296875,9.169921875 7.85888671875,7.49267578125 7.96875,6.26953125 7.646484375,4.775390625 6.533203125,4.248046875 5.58837842941284,4.45312643051147 4.5703125,5.068359375 3.427734375,6.08642578125 2.10937476158142,7.5 0,5.390625 2.764892578125,2.84912252426147 5.2001953125,1.201171875 7.532958984375,0.300294399261475 9.990234375,0z" />
    </g>
  </g>
</svg>