<?xml version="1.0" encoding="utf-8"?>
<!DOCTYPE svg PUBLIC "-//W3C//DTD SVG 1.1//EN" "http://www.w3.org/Graphics/SVG/1.1/DTD/svg11.dtd">
<svg width="16.11328125" height="42.421875" xmlns="http://www.w3.org/2000/svg" xmlns:xlink="http://www.w3.org/1999/xlink" xmlns:xml="http://www.w3.org/XML/1998/namespace" version="1.1">
  <g>
    <g>
      <path style="fill:#FF0000;fill-opacity:1" d="M12.802734375,0L16.11328125,0 8.61328125,32.724609375 8.14453125,36.15234375 8.525390625,37.734375 9.609375,38.173828125 10.5102529525757,37.972412109375 11.513671875,37.3681640625 12.66357421875,36.353759765625 14.00390625,34.921875 16.11328125,37.03125 13.392333984375,39.5361328125 10.9716796875,41.19140625 8.58764553070068,42.1142578125 5.9765625,42.421875 3.28857374191284,42.041015625 1.43554639816284,40.8984375 0.358886659145355,38.98681640625 0,36.298828125 0.1611328125,34.28466796875 0.64453125,31.69921875 5.888671875,8.84765625 6.3720703125,6.39404296875 6.533203125,4.658203125 6.4013671875,3.6474609375 6.005859375,3.046875 5.302734375,2.6806640625 4.65087890625,2.537841796875 3.57421875,2.373046875 4.04296875,0.46875 12.802734375,0z" />
    </g>
  </g>
</svg>