<?xml version="1.0" encoding="utf-8"?>
<!DOCTYPE svg PUBLIC "-//W3C//DTD SVG 1.1//EN" "http://www.w3.org/Graphics/SVG/1.1/DTD/svg11.dtd">
<svg width="32.666015625" height="51.650390625" xmlns="http://www.w3.org/2000/svg" xmlns:xlink="http://www.w3.org/1999/xlink" xmlns:xml="http://www.w3.org/XML/1998/namespace" version="1.1">
  <g>
    <g>
      <path style="fill:#FF0000;fill-opacity:1" d="M20.56640625,2.578125L17.508544921875,3.14208984375 14.6630859375,4.833984375 12.09228515625,7.57324314117432 9.8583984375,11.279296875 8.023681640625,15.6738300323486 6.650390625,20.478515625 5.79345703125,25.1953125 5.5078125,29.326171875 5.9197998046875,33.2867431640625 7.15576171875,36.11572265625 9.2156982421875,37.8131103515625 12.099609375,38.37890625 14.0936279296875,38.1417846679688 16.00341796875,37.430419921875 17.8289794921875,36.2448120117188 19.5703125,34.5849609375 22.6391582489014,30.062255859375 25.048828125,24.08203125 26.6088848114014,17.5927734375 27.12890625,11.54296875 26.7260723114014,7.69409275054932 25.517578125,4.8779296875 23.4741191864014,3.153076171875 20.56640625,2.578125z M20.888671875,0L23.5537700653076,0.205078125 25.8947734832764,0.8203125 27.9116802215576,1.845703125 29.6044921875,3.28125 30.9439086914063,5.10498094558716 31.900634765625,7.29492282867432 32.4746704101563,9.85107517242432 32.666015625,12.7734375 32.34375,17.11669921875 31.376953125,21.943359375 29.84619140625,26.715087890625 27.83203125,30.8935546875 25.3967266082764,34.398193359375 22.6025390625,37.1484375 19.500732421875,39.1552734375 16.142578125,40.4296875 17.40234375,43.9599609375 18.5302734375,46.2158203125 19.599609375,47.5048828125 20.654296875,48.076171875 21.884765625,48.22265625 24.140625,47.578125 25.3491191864014,46.69921875 26.689453125,45.3515625 28.212890625,46.9921875 25.9497051239014,49.16748046875 23.84765625,50.595703125 21.7968730926514,51.38671875 19.6875,51.650390625 17.479248046875,51.37939453125 15.7177734375,50.56640625 14.2822265625,49.16015625 13.0517578125,47.109375 11.942138671875,44.3701171875 10.869140625,40.8984375 6.1962890625,39.873046875 2.78320336341858,37.3828125 0.69580090045929,33.5009765625 0,28.30078125 0.369873225688934,23.62060546875 1.47949290275574,18.369140625 3.28857421875,13.1579608917236 5.7568359375,8.5986328125 8.82568264007568,4.8779296875 12.4365234375,2.1826171875 16.490478515625,0.545654296875 20.888671875,0z" />
    </g>
  </g>
</svg>