<?xml version="1.0" encoding="utf-8"?>
<!DOCTYPE svg PUBLIC "-//W3C//DTD SVG 1.1//EN" "http://www.w3.org/Graphics/SVG/1.1/DTD/svg11.dtd">
<svg width="37.67578125" height="40.1953125" xmlns="http://www.w3.org/2000/svg" xmlns:xlink="http://www.w3.org/1999/xlink" xmlns:xml="http://www.w3.org/XML/1998/namespace" version="1.1">
  <g>
    <g>
      <path style="fill:#FF0000;fill-opacity:1" d="M0,0L16.201171875,0 16.201171875,1.93359375 14.87548828125,2.23388671875 13.9453125,2.783203125 13.212890625,4.6875 13.388671875,6.5771484375 13.6596670150757,7.77465915679932 14.12109375,9.521484375 19.921875,30.556640625 27.158203125,9.609375 27.8466796875,7.294921875 28.095703125,5.009765625 27.3486328125,2.8125 26.4001445770264,2.2119140625 25.048828125,1.93359375 25.048828125,0 37.67578125,0 37.67578125,1.93359375 35.7861328125,2.6513671875 34.3798828125,4.2041015625 33.695068359375,5.533447265625 32.900390625,7.5 20.625,40.1953125 13.857421875,40.1953125 4.189453125,7.3828125 3.59619140625,5.504150390625 3.10546875,4.2626953125 1.96289038658142,2.7685546875 0,1.93359375 0,0z" />
    </g>
  </g>
</svg>