<?xml version="1.0" encoding="utf-8"?>
<!DOCTYPE svg PUBLIC "-//W3C//DTD SVG 1.1//EN" "http://www.w3.org/Graphics/SVG/1.1/DTD/svg11.dtd">
<svg width="43.9453125" height="39.990234375" xmlns="http://www.w3.org/2000/svg" xmlns:xlink="http://www.w3.org/1999/xlink" xmlns:xml="http://www.w3.org/XML/1998/namespace" version="1.1">
  <g>
    <g>
      <path style="fill:#FF0000;fill-opacity:1" d="M8.056640625,0L22.79296875,0 22.3828125,1.93359375 20.9326171875,2.578125 19.921875,3.57421875 19.15283203125,5.244140625 18.427734375,7.91015625 16.376953125,17.197265625 28.798828125,17.197265625 30.849609375,7.91015625 31.23046875,4.482421875 30.6591796875,2.6806640625 28.798828125,1.93359375 29.208984375,0 43.9453125,0 43.53515625,1.93359375 42.0849609375,2.578125 41.07421875,3.57421875 40.30517578125,5.244140625 39.580078125,7.91015625 34.248046875,32.080078125 33.955078125,33.7060546875 33.8671875,35.5078125 34.4384765625,37.3095703125 36.298828125,38.056640625 35.888671875,39.990234375 21.15234375,39.990234375 21.5625,38.056640625 23.0126934051514,37.412109375 24.0234375,36.416015625 24.7924785614014,34.74609375 25.517578125,32.080078125 27.978515625,20.888671875 15.556640625,20.888671875 13.095703125,32.080078125 12.802734375,33.720703125 12.71484375,35.5078125 13.2861328125,37.3095703125 15.146484375,38.056640625 14.736328125,39.990234375 0,39.990234375 0.410156011581421,38.056640625 1.86035144329071,37.412109375 2.87109375,36.416015625 3.64013671875,34.74609375 4.365234375,32.080078125 9.697265625,7.91015625 10.078125,4.482421875 9.5068359375,2.6806640625 7.646484375,1.93359375 8.056640625,0z" />
    </g>
  </g>
</svg>