<?xml version="1.0" encoding="utf-8"?>
<!DOCTYPE svg PUBLIC "-//W3C//DTD SVG 1.1//EN" "http://www.w3.org/Graphics/SVG/1.1/DTD/svg11.dtd">
<svg width="27.1289062500001" height="30" xmlns="http://www.w3.org/2000/svg" xmlns:xlink="http://www.w3.org/1999/xlink" xmlns:xml="http://www.w3.org/XML/1998/namespace" version="1.1">
  <g>
    <g>
      <path style="fill:#FF0000;fill-opacity:1" d="M13.88671875,3.046875L11.8615713119507,3.61816549301147 10.2978515625,5.33203125 9.23217678070068,8.12255859375 8.701171875,11.923828125 18.45703125,11.923828125 18.10546875,8.0126953125 17.28515625,5.244140625 15.908203125,3.59619283676147 13.88671875,3.046875z M14.35546875,0L19.0283203125,0.615234375 22.470703125,2.3291015625 24.84375,4.98046875 26.5283203125,9.228515625 26.9641094207764,11.89453125 27.12890625,15.087890625 8.5546875,15.087890625 9.041748046875,19.691162109375 10.4443359375,22.8955078125 12.791748046875,24.774169921875 16.11328125,25.400390625 18.22998046875,25.191650390625 20.126953125,24.5654296875 21.9873027801514,23.411865234375 23.994140625,21.62109375 26.3671875,24.19921875 23.3935527801514,26.90185546875 20.44921875,28.681640625 17.2998046875,29.67041015625 13.7109375,30 10.5093383789063,29.7665405273438 7.730712890625,29.066162109375 5.37506103515625,27.8988647460938 3.4423828125,26.2646484375 1.93634033203125,24.1708374023438 0.86059558391571,21.624755859375 0.215148821473122,18.6264038085938 0,15.17578125 0.443115055561066,10.755615234375 1.7724609375,6.9873046875 3.91479444503784,3.96240377426147 6.796875,1.7724609375 10.3124990463257,0.443116664886475 14.35546875,0z" />
    </g>
  </g>
</svg>