<?xml version="1.0" encoding="utf-8"?>
<!DOCTYPE svg PUBLIC "-//W3C//DTD SVG 1.1//EN" "http://www.w3.org/Graphics/SVG/1.1/DTD/svg11.dtd">
<svg width="33.75" height="42.158203125" xmlns="http://www.w3.org/2000/svg" xmlns:xlink="http://www.w3.org/1999/xlink" xmlns:xml="http://www.w3.org/XML/1998/namespace" version="1.1">
  <g>
    <g>
      <path style="fill:#FF0000;fill-opacity:1" d="M22.6171875,3.046875L20.09765625,3.6328125 17.98828125,5.5224609375 17.017822265625,7.086181640625 16.0986328125,9.169921875 15.2307119369507,11.7919921875 14.4140625,14.970703125 12.890625,21.62109375 12.65625,23.4375 12.9455556869507,24.884033203125 13.8134765625,26.0009765625 15.157470703125,26.715087890625 16.875,26.953125 19.6435546875,26.220703125 20.870361328125,25.272216796875 22.001953125,23.8916015625 23.0419921875,21.961669921875 23.994140625,19.365234375 25.1953125,14.619140625 25.810546875,8.37890625 25.6127910614014,5.95458984375 25.01953125,4.306640625 24.0234355926514,3.36181783676147 22.6171875,3.046875z M22.880859375,0L27.4987773895264,0.699464321136475 30.9228515625,2.7978515625 33.043212890625,6.163330078125 33.75,10.6640625 33.240966796875,15.791015625 31.7138671875,20.5078125 29.2639141082764,24.51416015625 25.986328125,27.509765625 22.00927734375,29.37744140625 17.4609375,30 13.9306631088257,29.70703125 11.30859375,28.828125 8.408203125,42.158203125 0,42.158203125 5.7421875,16.11328125 6.7913818359375,12.2891235351563 8.15185546875,8.990478515625 9.8236083984375,6.21734619140625 11.806640625,3.9697265625 14.102783203125,2.23297214508057 16.7138671875,0.992433071136475 19.639892578125,0.248108983039856 22.880859375,0z" />
    </g>
  </g>
</svg>