<?xml version="1.0" encoding="utf-8"?>
<!DOCTYPE svg PUBLIC "-//W3C//DTD SVG 1.1//EN" "http://www.w3.org/Graphics/SVG/1.1/DTD/svg11.dtd">
<svg width="29.58984375" height="40.927734375" xmlns="http://www.w3.org/2000/svg" xmlns:xlink="http://www.w3.org/1999/xlink" xmlns:xml="http://www.w3.org/XML/1998/namespace" version="1.1">
  <g>
    <g>
      <path style="fill:#FF0000;fill-opacity:1" d="M15.46875,19.86328125L12.7734375,20.2880859375 10.546875,21.4306640625 9.2431640625,22.6025390625 8.759765625,23.90625 8.64990139007568,25.078125 8.61328125,26.89453125 8.98681545257568,31.58935546875 10.107421875,34.951171875 11.9970703125,36.97265625 14.677734375,37.646484375 17.4169921875,37.078857421875 19.365234375,35.3759765625 20.5297832489014,32.486572265625 20.91796875,28.359375 20.5700664520264,24.678955078125 19.5263671875,22.0166015625 17.816162109375,20.401611328125 15.46875,19.86328125z M23.0859375,0L24.66796875,2.021484375 24.66796875,3.837890625 21.6119384765625,4.14093017578125 18.85986328125,4.903564453125 16.4117431640625,6.12579345703125 14.267578125,7.8076171875 12.4420156478882,9.92523288726807 10.9497060775757,12.4548358917236 9.79064846038818,15.3964242935181 8.96484375,18.75 9.2578125,18.8671875 11.5502920150757,17.49755859375 13.857421875,16.552734375 18.92578125,15.8203125 22.0568828582764,16.1901874542236 24.7119140625,17.2998046875 26.8322734832764,19.083251953125 28.359375,21.474609375 29.2822265625,24.3896484375 29.58984375,27.744140625 29.1796875,31.409912109375 27.94921875,34.6142578125 25.8654766082764,37.261962890625 22.8955078125,39.2578125 19.097900390625,40.51025390625 14.53125,40.927734375 10.3088369369507,40.4736328125 6.7236328125,39.111328125 3.841552734375,36.86279296875 1.72851586341858,33.75 0.432128936052322,29.82421875 0,25.13671875 0.721435725688934,18.61083984375 2.88574290275574,12.744140625 6.375732421875,7.74902439117432 11.07421875,3.837890625 16.728515625,1.19384765625 23.0859375,0z" />
    </g>
  </g>
</svg>