<?xml version="1.0" encoding="utf-8"?>
<!DOCTYPE svg PUBLIC "-//W3C//DTD SVG 1.1//EN" "http://www.w3.org/Graphics/SVG/1.1/DTD/svg11.dtd">
<svg width="23.73046875" height="30.29296875" xmlns="http://www.w3.org/2000/svg" xmlns:xlink="http://www.w3.org/1999/xlink" xmlns:xml="http://www.w3.org/XML/1998/namespace" version="1.1">
  <g>
    <g>
      <path style="fill:#FF0000;fill-opacity:1" d="M14.94140625,0L19.31396484375,0.461427211761475 23.642578125,1.845703125 21.4453125,7.32421875 18.36181640625,6.09375143051147 15.439453125,5.68359375 12.3779287338257,6.28784322738647 10.224609375,8.1005859375 8.9501953125,11.099853515625 8.525390625,15.263671875 8.70849609375,18.431396484375 9.2578125,20.7861328125 10.1586904525757,22.467041015625 11.396484375,23.61328125 12.98583984375,24.2724609375 14.94140625,24.4921875 18.017578125,23.994140625 20.9765625,22.5 23.73046875,27.24609375 20.914306640625,28.707275390625 18.3837890625,29.6337890625 13.212890625,30.29296875 10.21728515625,30.0521850585938 7.587890625,29.329833984375 5.32470703125,28.1259155273438 3.427734375,26.4404296875 1.9281005859375,24.3063354492188 0.85693359375,21.756591796875 0.2142333984375,18.7911987304688 0,15.41015625 0.406494140625,11.18408203125 1.6259765625,7.470703125 3.69140577316284,4.37622213363647 6.6357421875,2.0068359375 10.4040517807007,0.501710414886475 14.94140625,0z" />
    </g>
  </g>
</svg>