<?xml version="1.0" encoding="utf-8"?>
<!DOCTYPE svg PUBLIC "-//W3C//DTD SVG 1.1//EN" "http://www.w3.org/Graphics/SVG/1.1/DTD/svg11.dtd">
<svg width="29.94140625" height="40.517578125" xmlns="http://www.w3.org/2000/svg" xmlns:xlink="http://www.w3.org/1999/xlink" xmlns:xml="http://www.w3.org/XML/1998/namespace" version="1.1">
  <g>
    <g>
      <path style="fill:#FF0000;fill-opacity:1" d="M17.548828125,7.001953125L15.6884765625,7.587890625 14.0625,8.671875 14.0625,22.294921875 17.4169921875,23.96484375 20.15625,25.869140625 21.3427734375,23.642578125 21.8701171875,20.771484375 21.990966796875,18.7646484375 22.03125,16.259765625 21.771240234375,12.20947265625 20.9912109375,9.31640625 19.610595703125,7.58056640625 17.548828125,7.001953125z M21.708984375,0L23.9685039520264,1.10962057113647 25.7666015625,2.2705078125 28.2275390625,4.9365234375 29.53125,8.4521484375 29.8388652801514,10.777587890625 29.94140625,13.681640625 29.7949199676514,17.054443359375 29.35546875,19.7900390625 28.6743144989014,21.961669921875 27.802734375,23.642578125 25.72265625,25.927734375 24.2138652801514,26.982421875 21.9140625,28.447265625 19.32861328125,30.1025390625 17.958984375,31.201171875 17.16796875,30.46875 15.76171875,29.326171875 14.0625,28.388671875 13.1616201400757,34.5556640625 11.044921875,40.517578125 7.64648485183716,40.517578125 7.078857421875,37.5146484375 6.6064453125,33.837890625 6.280517578125,30.09521484375 6.15234470367432,26.89453125 3.35449242591858,27.5390625 0.937500059604645,28.916015625 0,27.509765625 2.5634765625,24.55078125 6.15234470367432,22.265625 6.15234470367432,10.1953125 5.44921970367432,7.3974609375 4.65820360183716,6.573486328125 3.69140648841858,6.298828125 2.7978515625,6.4599609375 1.11328148841858,7.1484375 0.410156428813934,4.62890625 3.35083031654358,3.43322849273682 5.7861328125,2.27783346176147 7.716064453125,1.16272079944611 9.140625,0.087890625 11.7626953125,1.3623046875 13.2568359375,2.7685546875 13.7292470932007,3.76831197738647 14.0625,5.15625 15.99609375,3.8671875 18.0670166015625,2.57080173492432 19.70947265625,1.49414205551147 20.9234619140625,0.637208104133606 21.708984375,0z" />
    </g>
  </g>
</svg>