<?xml version="1.0" encoding="utf-8"?>
<!DOCTYPE svg PUBLIC "-//W3C//DTD SVG 1.1//EN" "http://www.w3.org/Graphics/SVG/1.1/DTD/svg11.dtd">
<svg width="26.7773437500002" height="40.927734375" xmlns="http://www.w3.org/2000/svg" xmlns:xlink="http://www.w3.org/1999/xlink" xmlns:xml="http://www.w3.org/XML/1998/namespace" version="1.1">
  <g>
    <g>
      <path style="fill:#FF0000;fill-opacity:1" d="M14.35546875,19.921875L10.7958984375,20.3759765625 7.880859375,21.62109375 6.81884765625,22.33154296875 6.15234375,22.880859375 5.4931640625,24.1552734375 5.350341796875,25.257568359375 5.302734375,26.953125 5.8154296875,31.14990234375 7.353515625,34.248046875 9.86572170257568,36.15966796875 13.30078125,36.796875 16.89697265625,36.24755859375 19.482421875,34.599609375 21.0424785614014,31.91162109375 21.5625,28.2421875 21.0937480926514,24.693603515625 19.6875,22.0751953125 17.4169921875,20.460205078125 14.35546875,19.921875z M22.353515625,0L22.91015625,4.248046875 18.885498046875,4.742431640625 15.1904296875,6.0498046875 11.912841796875,8.16650485992432 9.140625,11.0888671875 6.99462890625,14.6594257354736 5.595703125,18.720703125 5.888671875,18.837890625 10.72265625,16.4794921875 13.2568359375,15.8752460479736 15.9375,15.673828125 19.0576171875,16.0400409698486 21.73828125,17.138671875 23.9062480926514,18.900146484375 25.48828125,21.2548828125 26.4550762176514,24.114990234375 26.77734375,27.392578125 26.4074687957764,31.142578125 25.2978515625,34.423828125 23.4155254364014,37.14111328125 20.7275390625,39.19921875 17.274169921875,40.49560546875 13.095703125,40.927734375 10.103759765625,40.6732177734375 7.4853515625,39.90966796875 5.240478515625,38.6370849609375 3.36914038658142,36.85546875 1.89514136314392,34.599609375 0.842284858226776,31.904296875 0.210571050643921,28.76953125 0,25.1953125 0.706786811351776,18.533935546875 2.82714819908142,12.5537109375 6.221923828125,7.49633884429932 10.751953125,3.603515625 13.388671875,2.1368408203125 16.201171875,1.04736328125 19.189453125,0.3350830078125 22.353515625,0z" />
    </g>
  </g>
</svg>