<?xml version="1.0" encoding="utf-8"?>
<!DOCTYPE svg PUBLIC "-//W3C//DTD SVG 1.1//EN" "http://www.w3.org/Graphics/SVG/1.1/DTD/svg11.dtd">
<svg width="17.8125" height="41.953125" xmlns="http://www.w3.org/2000/svg" xmlns:xlink="http://www.w3.org/1999/xlink" xmlns:xml="http://www.w3.org/XML/1998/namespace" version="1.1">
  <g>
    <g>
      <path style="fill:#FF0000;fill-opacity:1" d="M11.42578125,2.490234375L6.88476514816284,2.666015625 6.88476514816284,39.375 11.42578125,39.375 11.42578125,2.490234375z M10.576171875,0L14.53125,0 14.53125,34.62890625 14.58984375,36.763916015625 14.765625,38.1298828125 15.6591796875,39.6240234375 16.527099609375,40.103759765625 17.8125,40.517578125 17.8125,41.953125 0.468749403953552,41.953125 0.468749403953552,40.517578125 1.93725538253784,40.037841796875 2.82714796066284,39.4775390625 3.603515625,37.763671875 3.73535108566284,36.42333984375 3.77929639816284,34.62890625 3.77929639816284,9.111328125 3.74267530441284,6.73828125 3.63281202316284,5.126953125 3.12011671066284,3.3251953125 2.15331983566284,2.4609375 1.31469678878784,2.17529296875 0,1.904296875 0,0.41015625 10.576171875,0z" />
    </g>
  </g>
</svg>