<?xml version="1.0" encoding="utf-8"?>
<!DOCTYPE svg PUBLIC "-//W3C//DTD SVG 1.1//EN" "http://www.w3.org/Graphics/SVG/1.1/DTD/svg11.dtd">
<svg width="27.1875000000004" height="40.927734375" xmlns="http://www.w3.org/2000/svg" xmlns:xlink="http://www.w3.org/1999/xlink" xmlns:xml="http://www.w3.org/XML/1998/namespace" version="1.1">
  <g>
    <g>
      <path style="fill:#FF0000;fill-opacity:1" d="M13.59375,21.6796875L10.1000967025757,22.17041015625 7.470703125,23.642578125 5.82275390625,25.96435546875 5.2734375,29.00390625 5.830078125,32.24853515625 7.5,34.716796875 10.1733388900757,36.27685546875 13.740234375,36.796875 16.197509765625,36.566162109375 18.2373046875,35.8740234375 19.84130859375,34.7607421875 20.9912109375,33.2666015625 21.6833477020264,31.475830078125 21.9140625,29.47265625 21.3464336395264,26.22802734375 19.6435546875,23.759765625 16.995849609375,22.19970703125 13.59375,21.6796875z M13.740234375,4.130859375L10.3051748275757,4.56298828125 7.734375,5.859375 6.13037109375,7.93212985992432 5.595703125,10.693359375 6.134033203125,13.6486835479736 7.7490234375,15.8935546875 10.3381338119507,17.310791015625 13.798828125,17.783203125 17.20458984375,17.325439453125 19.6875,15.9521484375 21.2036113739014,13.7951679229736 21.708984375,10.986328125 21.1816387176514,8.11523532867432 19.599609375,5.947265625 17.080078125,4.5849609375 13.740234375,4.130859375z M13.59375,0L16.6635131835938,0.16387939453125 19.339599609375,0.655517578125 21.6220092773438,1.47491455078125 23.5107421875,2.6220703125 24.9911479949951,4.06585693359375 26.0485820770264,5.775146484375 26.6830425262451,7.74993896484375 26.89453125,9.990234375 26.5612773895264,13.0297870635986 25.5615234375,15.52734375 23.8439922332764,17.5927734375 21.357421875,19.3359375 21.416015625,19.716796875 23.9501934051514,21.441650390625 25.751953125,23.5693359375 26.8286113739014,26.231689453125 27.1875,29.560546875 26.7700176239014,32.75390625 25.517578125,35.537109375 23.4851055145264,37.822265625 20.7275390625,39.521484375 17.340087890625,40.576171875 13.41796875,40.927734375 9.60937404632568,40.601806640625 6.328125,39.6240234375 3.65112233161926,38.023681640625 1.65527319908142,35.830078125 0.413817971944809,33.10546875 0,29.912109375 0.347900003194809,26.96044921875 1.39160132408142,24.375 3.19702124595642,22.11181640625 5.830078125,20.126953125 5.859375,19.74609375 3.38378858566284,17.911376953125 1.69921898841858,15.8056640625 0.732421517372131,13.3483905792236 0.41015625,10.458984375 0.820312142372131,7.598876953125 2.05078101158142,5.0537109375 4.04296827316284,2.9296875 6.73828125,1.3330078125 9.97558498382568,0.333251953125 13.59375,0z" />
    </g>
  </g>
</svg>