<?xml version="1.0" encoding="utf-8"?>
<!DOCTYPE svg PUBLIC "-//W3C//DTD SVG 1.1//EN" "http://www.w3.org/Graphics/SVG/1.1/DTD/svg11.dtd">
<svg width="35.478515625" height="40.458984375" xmlns="http://www.w3.org/2000/svg" xmlns:xlink="http://www.w3.org/1999/xlink" xmlns:xml="http://www.w3.org/XML/1998/namespace" version="1.1">
  <g>
    <g>
      <path style="fill:#FF0000;fill-opacity:1" d="M7.08984375,0L9.36767578125,0.443115234375 11.044921875,1.7724609375 12.2131338119507,4.046630859375 12.9638671875,7.32421875 13.505859375,15.3515625 13.359375,21.03515625 13.740234375,21.03515625 16.46484375,15.5859375 18.017578125,12.6269550323486 19.39453125,10.25390625 21.35009765625,7.32421875 23.291015625,4.86328125 24.9536113739014,3.11279296875 26.54296875,1.787109375 29.267578125,0.380859375 32.138671875,0 35.478515625,0.673828125 34.3359375,6.064453125 31.81640625,6.064453125 31.2744140625,4.98046875 30.17578125,4.599609375 28.9123516082764,4.833984375 27.5830078125,5.537109375 26.0925273895264,6.837158203125 24.345703125,8.8623046875 22.34619140625,11.6601581573486 20.09765625,15.2783203125 16.0400390625,23.0712890625 14.659423828125,26.458740234375 13.88671875,29.091796875 13.271484375,31.93359375 12.8100576400757,34.4970703125 12.65625,36.50390625 12.94921875,37.9248046875 13.828125,38.671875 14.62646484375,38.876953125 15.849609375,39.0234375 15.52734375,40.458984375 3.193359375,40.458984375 3.515625,39.0234375 5.244140625,38.5400390625 6.2548828125,37.55859375 7.0751953125,35.6689453125 7.525634765625,34.061279296875 8.0859375,31.728515625 8.671875,29.091796875 9.13330078125,26.1181640625 9.287109375,22.763671875 9.0966796875,17.0361328125 8.4375,11.015625 7.987060546875,8.36425876617432 7.5732421875,6.50390625 6.73828125,4.3212890625 5.78613328933716,3.3251953125 4.658203125,3.046875 2.958984375,3.28125 0.79101574420929,4.1015625 0,2.314453125 2.48657202720642,1.1279296875 4.2626953125,0.439453125 7.08984375,0z" />
    </g>
  </g>
</svg>