<?xml version="1.0" encoding="utf-8"?>
<!DOCTYPE svg PUBLIC "-//W3C//DTD SVG 1.1//EN" "http://www.w3.org/Graphics/SVG/1.1/DTD/svg11.dtd">
<svg width="25.37109375" height="31.201171875" xmlns="http://www.w3.org/2000/svg" xmlns:xlink="http://www.w3.org/1999/xlink" xmlns:xml="http://www.w3.org/XML/1998/namespace" version="1.1">
  <g>
    <g>
      <path style="fill:#FF0000;fill-opacity:1" d="M7.6171875,0L9.818115234375,1.67724752426147 11.2646484375,3.193359375 12.2424306869507,4.88525533676147 13.037109375,7.08984375 13.9709463119507,5.61035299301147 15.3662109375,4.04296875 17.471923828125,2.22656393051147 20.537109375,0 25.37109375,4.98046875 20.654296875,9.990234375 17.373046875,6.2109375 15.7470703125,7.862548828125 14.560546875,9.9462890625 13.8354482650757,12.630615234375 13.59375,16.083984375 13.59375,22.96875 14.1357421875,24.0234375 15.498046875,25.0341796875 16.58203125,25.48828125 17.26318359375,25.33447265625 18.427734375,24.873046875 20.947265625,23.49609375 21.943359375,26.07421875 16.81640625,28.6376953125 14.2749013900757,30.047607421875 12.333984375,31.201171875 9.451904296875,29.329833984375 7.0166015625,28.0517578125 3.076171875,26.77734375 3.076171875,25.166015625 5.302734375,24.4482421875 6.416015625,23.1591796875 6.73828125,20.91796875 6.73828125,11.982421875 6.52587842941284,9.51416015625 5.888671875,7.6171875 4.9072265625,6.40869140625 3.662109375,6.005859375 2.5341796875,6.3427734375 0.99609386920929,7.119140625 0,5.009765625 3.6767578125,2.80517721176147 7.6171875,0z" />
    </g>
  </g>
</svg>