<?xml version="1.0" encoding="utf-8"?>
<!DOCTYPE svg PUBLIC "-//W3C//DTD SVG 1.1//EN" "http://www.w3.org/Graphics/SVG/1.1/DTD/svg11.dtd">
<svg width="40.693359375" height="53.671875" xmlns="http://www.w3.org/2000/svg" xmlns:xlink="http://www.w3.org/1999/xlink" xmlns:xml="http://www.w3.org/XML/1998/namespace" version="1.1">
  <g>
    <g>
      <path style="fill:#FF0000;fill-opacity:1" d="M24.375,17.255859375L24.375,35.9765625 27.4951152801514,34.79736328125 29.82421875,32.841796875 31.2744140625,30 31.7578125,26.162109375 31.2451171875,22.55859375 29.7802734375,19.98046875 27.451171875,18.2666015625 24.375,17.255859375z M16.318359375,17.2265625L13.154296875,18.28125 10.83984375,19.98046875 9.4189453125,22.5732421875 8.935546875,26.25 9.462890625,30.0732421875 10.95703125,32.9296875 13.2861328125,34.892578125 16.318359375,35.9765625 16.318359375,17.2265625z M16.318359375,0L24.375,0 24.375,11.748046875 28.077392578125,12.2277851104736 31.3330078125,13.1396484375 34.127197265625,14.4470233917236 36.4453125,16.11328125 38.2763671875,18.1201171875 39.609375,20.44921875 40.42236328125,23.056640625 40.693359375,25.8984375 40.4324340820313,29.197998046875 39.649658203125,32.1240234375 38.3450317382813,34.676513671875 36.5185546875,36.85546875 34.1940307617188,38.6279296875 31.395263671875,39.9609375 28.1222534179688,40.8544921875 24.375,41.30859375 24.375,53.671875 16.318359375,53.671875 16.318359375,41.30859375 12.821044921875,40.953369140625 9.6533203125,40.1220703125 6.866455078125,38.85498046875 4.51171875,37.1923828125 2.611083984375,35.152587890625 1.1865234375,32.75390625 0.296630859375,30.02197265625 0,26.982421875 0.25634765625,23.8394165039063 1.025390625,21.031494140625 2.30712914466858,18.5586547851563 4.10156297683716,16.4208984375 6.4031982421875,14.6511850357056 9.20654296875,13.2824726104736 12.5115966796875,12.3147592544556 16.318359375,11.748046875 16.318359375,0z" />
    </g>
  </g>
</svg>