<?xml version="1.0" encoding="utf-8"?>
<!DOCTYPE svg PUBLIC "-//W3C//DTD SVG 1.1//EN" "http://www.w3.org/Graphics/SVG/1.1/DTD/svg11.dtd">
<svg width="28.6816406250006" height="54.66796875" xmlns="http://www.w3.org/2000/svg" xmlns:xlink="http://www.w3.org/1999/xlink" xmlns:xml="http://www.w3.org/XML/1998/namespace" version="1.1">
  <g>
    <g>
      <path style="fill:#FF0000;fill-opacity:1" d="M13.9453125,5.537109375L11.25,6.09375 9.43359375,7.8955078125 8.4228515625,11.1181640625 8.19213676452637,13.3117694854736 8.115234375,15.9375 8.115234375,32.63671875 8.7451171875,35.2587890625 10.25390625,36.767578125 12.099609375,37.4560546875 13.740234375,37.6171875 16.3330078125,37.03125 18.2373046875,35.478515625 19.4091796875,33.22265625 19.8046875,30.52734375 19.3322734832764,27.09228515625 17.9150390625,24.580078125 15.655517578125,23.0419921875 12.65625,22.529296875 11.982421875,22.529296875 11.982421875,17.548828125 12.65625,17.548828125 15.6298828125,17.2119140625 17.5927734375,16.0986328125 18.6767578125,14.0625 19.013671875,10.986328125 18.662109375,8.3203125 17.6513671875,6.650390625 16.0546875,5.7861328125 13.9453125,5.537109375z M14.765625,0L19.8486328125,0.64453125 23.9501953125,2.5341796875 25.5029277801514,3.929443359375 26.6748046875,5.625 27.410888671875,7.60986328125 27.65625,9.873046875 27.205810546875,13.1066913604736 25.8544921875,15.7763671875 23.5656719207764,17.962646484375 20.302734375,19.74609375 20.302734375,19.98046875 24.2138671875,21.6796875 26.806640625,24.140625 28.2421875,27.3193359375 28.681640625,31.142578125 28.4619140625,33.486328125 27.802734375,35.654296875 26.72607421875,37.598876953125 25.25390625,39.2724609375 23.3862285614014,40.64208984375 21.123046875,41.6748046875 18.486328125,42.322998046875 15.498046875,42.5390625 11.6455078125,42.3046875 8.115234375,41.337890625 8.115234375,54.66796875 0,54.66796875 0,18.369140625 0.227050364017487,13.9196796417236 0.908202648162842,10.1220703125 2.05078029632568,6.9580078125 3.66210889816284,4.4091796875 5.73852491378784,2.457275390625 8.2763671875,1.083984375 11.2829580307007,0.27099609375 14.765625,0z" />
    </g>
  </g>
</svg>