<?xml version="1.0" encoding="utf-8"?>
<!DOCTYPE svg PUBLIC "-//W3C//DTD SVG 1.1//EN" "http://www.w3.org/Graphics/SVG/1.1/DTD/svg11.dtd">
<svg width="28.06640625" height="30.29296875" xmlns="http://www.w3.org/2000/svg" xmlns:xlink="http://www.w3.org/1999/xlink" xmlns:xml="http://www.w3.org/XML/1998/namespace" version="1.1">
  <g>
    <g>
      <path style="fill:#FF0000;fill-opacity:1" d="M16.34765625,5.5078125L14.344482421875,5.93994283676147 12.4365234375,7.236328125 10.7775869369507,9.23583984375 9.521484375,11.77734375 19.951171875,11.77734375 20.185546875,9.462890625 19.940185546875,7.650146484375 19.2041015625,6.4306640625 17.999267578125,5.73852682113647 16.34765625,5.5078125z M17.8125,0L20.8520488739014,0.303956508636475 23.408203125,1.2158203125 25.4370098114014,2.69531393051147 26.89453125,4.7021484375 27.7734355926514,7.130126953125 28.06640625,9.873046875 27.392578125,17.021484375 8.291015625,17.021484375 7.96875,19.658203125 8.29833984375,21.74560546875 9.287109375,23.26171875 10.9790029525757,24.1845703125 13.41796875,24.4921875 15.750732421875,24.3017578125 17.9443359375,23.73046875 20.159912109375,22.734375 22.55859375,21.26953125 25.13671875,26.044921875 21.6247539520264,28.0224609375 18.4716796875,29.326171875 15.435791015625,30.05126953125 12.275390625,30.29296875 6.95068359375,29.58984375 3.10546875,27.48046875 1.746826171875,25.9112548828125 0.7763671875,24.01611328125 0.194091796875,21.7950439453125 0,19.248046875 0.560302734375,14.18701171875 2.2412109375,9.55078125 4.8779296875,5.59204244613647 8.3056640625,2.5634765625 12.593994140625,0.640870571136475 17.8125,0z" />
    </g>
  </g>
</svg>