<?xml version="1.0" encoding="utf-8"?>
<!DOCTYPE svg PUBLIC "-//W3C//DTD SVG 1.1//EN" "http://www.w3.org/Graphics/SVG/1.1/DTD/svg11.dtd">
<svg width="29.00390625" height="30.29296875" xmlns="http://www.w3.org/2000/svg" xmlns:xlink="http://www.w3.org/1999/xlink" xmlns:xml="http://www.w3.org/XML/1998/namespace" version="1.1">
  <g>
    <g>
      <path style="fill:#FF0000;fill-opacity:1" d="M19.189453125,16.962890625L14.52392578125,17.4609375 11.07421875,18.603515625 8.94287109375,20.302734375 8.232421875,22.470703125 8.9794921875,24.3017578125 11.07421875,24.931640625 13.4326171875,24.6240234375 15.3369140625,23.818359375 16.81640625,22.705078125 17.98828125,21.09375 18.75,18.955078125 19.189453125,16.962890625z M20.0390625,0L23.8879375457764,0.443116664886475 26.7041015625,1.7724609375 28.4289531707764,3.93676900863647 29.00390625,6.884765625 28.7768535614014,9.83642578125 28.095703125,13.53515625 24.521484375,29.82421875 16.640625,29.82421875 17.080078125,27.71484375 16.81640625,27.71484375 14.542236328125,28.934326171875 12.4658203125,29.7216796875 8.115234375,30.29296875 4.62890577316284,29.827880859375 2.080078125,28.4326171875 0.52001953125,26.187744140625 0,23.173828125 0.574951171875,20.0537109375 2.2998046875,17.373046875 5.167236328125,15.179443359375 9.169921875,13.5205078125 14.23095703125,12.440185546875 20.2734375,11.982421875 20.6689453125,9.9755859375 20.80078125,8.4375 20.592041015625,7.064208984375 19.9658203125,6.1669921875 18.914794921875,5.67260885238647 17.431640625,5.5078125 13.4912109375,6.0791015625 10.9753408432007,6.925048828125 7.55859375,8.3203125 5.7421875,3.193359375 9.67162990570068,1.75048971176147 13.0810546875,0.76171875 16.395263671875,0.190431118011475 20.0390625,0z" />
    </g>
  </g>
</svg>