<?xml version="1.0" encoding="utf-8"?>
<!DOCTYPE svg PUBLIC "-//W3C//DTD SVG 1.1//EN" "http://www.w3.org/Graphics/SVG/1.1/DTD/svg11.dtd">
<svg width="35.33203125" height="52.294921875" xmlns="http://www.w3.org/2000/svg" xmlns:xlink="http://www.w3.org/1999/xlink" xmlns:xml="http://www.w3.org/XML/1998/namespace" version="1.1">
  <g>
    <g>
      <path style="fill:#FF0000;fill-opacity:1" d="M29.1796875,13.53515625L32.080078125,13.974609375 33.52294921875,14.6630878448486 35.33203125,15.849609375 34.130859375,17.75390625 31.7578125,16.1572265625 29.53125,15.673828125 28.3117656707764,15.9045429229736 27.3486328125,16.5966796875 26.7224102020264,17.6770038604736 26.513671875,19.072265625 26.7370586395264,20.760498046875 27.4072265625,22.5439453125 28.6413555145264,24.722900390625 30.556640625,27.59765625 32.4609375,30.64453125 33.9697265625,33.955078125 34.5703125,37.55859375 34.0576171875,41.30859375 32.51953125,44.8828125 30.0805644989014,47.98828125 26.865234375,50.33203125 23.056640625,51.80419921875 18.837890625,52.294921875 15.71044921875,51.943359375 13.06640625,50.888671875 10.7373046875,48.955078125 8.5546875,45.966796875 7.43041944503784,44.2236328125 6.51855421066284,43.154296875 4.89257764816284,42.421875 3.95141553878784,42.6141357421875 3.12011694908142,43.19091796875 2.39868140220642,44.1522216796875 1.787109375,45.498046875 0,44.58984375 1.29272437095642,41.920166015625 3.00292944908142,40.0048828125 5.10131788253784,38.851318359375 7.55859327316284,38.466796875 9.5068359375,38.818359375 11.1474609375,39.814453125 12.626953125,41.3525390625 13.5131826400757,42.550048828125 14.765625,44.35546875 16.505126953125,46.651611328125 18.1494140625,48.1494140625 19.896240234375,48.973388671875 21.943359375,49.248046875 23.8403301239014,48.966064453125 25.60546875,48.1201171875 27.1289043426514,46.787109375 28.30078125,45.0439453125 29.0478496551514,42.996826171875 29.296875,40.751953125 28.88671875,37.9541015625 27.7734375,34.9365234375 26.8579082489014,33.109130859375 25.517578125,30.703125 24.1332988739014,28.271484375 23.203125,26.484375 22.1044921875,23.642578125 21.708984375,21.064453125 21.968994140625,19.0283203125 22.7490234375,17.197265625 23.9758281707764,15.6591815948486 25.576171875,14.501953125 27.3706035614014,13.7768573760986 29.1796875,13.53515625z M11.162109375,0L13.4326162338257,0.201416015625 15.556640625,0.8056640625 17.84912109375,1.937255859375 20.625,3.720703125 23.61328125,5.7568359375 25.517578125,6.8408203125 26.8359375,7.3095703125 28.359375,7.44140625 29.8608379364014,7.078857421875 31.201171875,5.9912109375 32.26318359375,4.251708984375 32.9296875,1.93359375 35.09765625,2.75390625 33.96240234375,6.353759765625 32.021484375,9.0673828125 29.3554668426514,10.7702655792236 26.044921875,11.337890625 23.3642578125,11.0888671875 20.91796875,10.1953125 19.37255859375,9.29443359375 17.314453125,7.880859375 15.545654296875,6.646728515625 14.2236328125,5.8154296875 12.0703125,4.86328125 9.84375,4.541015625 7.80395460128784,4.92919921875 6.19628858566284,6.09375 5.15258741378784,7.88818359375 4.80468702316284,10.166015625 5.15624952316284,12.1142597198486 6.21093702316284,13.623046875 7.80761671066284,14.5898456573486 9.78515625,14.912109375 11.6015625,14.677734375 11.923828125,16.962890625 9.7265625,17.138671875 7.73803663253784,16.9445819854736 5.93261671066284,16.3623046875 4.38720655441284,15.3588886260986 3.17871069908142,13.9013671875 2.39868140220642,12.0227069854736 2.138671875,9.755859375 2.42431616783142,7.188720703125 3.28124976158142,4.8193359375 4.65087842941284,2.7978515625 6.47460889816284,1.2744140625 8.671875,0.318603515625 11.162109375,0z" />
    </g>
  </g>
</svg>