<?xml version="1.0" encoding="utf-8"?>
<!DOCTYPE svg PUBLIC "-//W3C//DTD SVG 1.1//EN" "http://www.w3.org/Graphics/SVG/1.1/DTD/svg11.dtd">
<svg width="32.0507812500001" height="40.927734375" xmlns="http://www.w3.org/2000/svg" xmlns:xlink="http://www.w3.org/1999/xlink" xmlns:xml="http://www.w3.org/XML/1998/namespace" version="1.1">
  <g>
    <g>
      <path style="fill:#FF0000;fill-opacity:1" d="M23.14453125,0L27.36328125,0.3515625 32.05078125,1.669921875 30.615234375,5.9765625 26.5869121551514,4.59228515625 22.470703125,4.130859375 18.775634765625,4.5849609375 15.4248046875,5.947265625 12.451171875,8.27636814117432 9.8876953125,11.630859375 7.796630859375,16.0253925323486 6.240234375,21.474609375 5.537109375,28.4765625 6.005859375,32.186279296875 7.412109375,34.7607421875 9.84374904632568,36.265869140625 13.388671875,36.767578125 16.4794921875,36.416015625 18.720703125,35.5078125 20.185546875,34.306640625 21.03515625,32.7978515625 21.3940410614014,31.651611328125 21.826171875,29.94140625 22.880859375,25.13671875 17.841796875,25.13671875 18.75,21.005859375 28.88671875,21.005859375 24.638671875,40.458984375 20.302734375,40.458984375 20.302734375,38.5546875 20.009765625,38.5546875 16.0986328125,40.33447265625 11.982421875,40.927734375 8.25439453125,40.506591796875 5.21484375,39.2431640625 2.87841796875,37.232666015625 1.259765625,34.5703125 0.314941227436066,31.34033203125 0,27.626953125 0.395507633686066,22.752685546875 1.58203125,17.5048828125 3.51562452316284,12.4548358917236 6.15234375,8.173828125 9.47021389007568,4.716796875 13.447265625,2.138671875 18.02490234375,0.53466796875 23.14453125,0z" />
    </g>
  </g>
</svg>