<?xml version="1.0" encoding="utf-8"?>
<!DOCTYPE svg PUBLIC "-//W3C//DTD SVG 1.1//EN" "http://www.w3.org/Graphics/SVG/1.1/DTD/svg11.dtd">
<svg width="24.1699218750001" height="30.29296875" xmlns="http://www.w3.org/2000/svg" xmlns:xlink="http://www.w3.org/1999/xlink" xmlns:xml="http://www.w3.org/XML/1998/namespace" version="1.1">
  <g>
    <g>
      <path style="fill:#FF0000;fill-opacity:1" d="M12.392578125,3.779296875L9.80712795257568,4.32861471176147 7.734375,5.9765625 6.2548828125,8.62060546875 5.44921875,12.158203125 18.662109375,12.158203125 18.2080078125,8.565673828125 16.962890625,5.9326171875 15,4.31762838363647 12.392578125,3.779296875z M12.83203125,0L15.4595947265625,0.240784764289856 17.74658203125,0.963136196136475 19.6929931640625,2.16705417633057 21.298828125,3.8525390625 22.5549297332764,6.04888916015625 23.4521465301514,8.785400390625 23.9904766082764,12.0620727539063 24.169921875,15.87890625 5.302734375,15.87890625 5.80078125,20.4034423828125 7.294921875,23.63525390625 9.78515625,25.5743408203125 13.271484375,26.220703125 17.314453125,25.4736328125 19.31396484375,24.422607421875 21.50390625,22.763671875 23.5546875,25.78125 21.1376934051514,27.5244140625 19.21875,28.65234375 15.8349609375,29.8828125 12.0703125,30.29296875 9.2889404296875,30.0503540039063 6.86279296875,29.322509765625 4.7918701171875,28.1094360351563 3.076171875,26.4111328125 1.7303466796875,24.2404174804688 0.76904284954071,21.610107421875 0.192260637879372,18.5202026367188 0,14.970703125 0.384521305561066,10.8544921875 1.5380859375,7.177734375 3.41308546066284,4.11987447738647 5.9619140625,1.8603515625 9.12231349945068,0.465089321136475 12.83203125,0z" />
    </g>
  </g>
</svg>