<?xml version="1.0" encoding="utf-8"?>
<!DOCTYPE svg PUBLIC "-//W3C//DTD SVG 1.1//EN" "http://www.w3.org/Graphics/SVG/1.1/DTD/svg11.dtd">
<svg width="35.888671875" height="39.990234375" xmlns="http://www.w3.org/2000/svg" xmlns:xlink="http://www.w3.org/1999/xlink" xmlns:xml="http://www.w3.org/XML/1998/namespace" version="1.1">
  <g>
    <g>
      <path style="fill:#FF0000;fill-opacity:1" d="M0.791015625,0L17.080078125,0 17.080078125,1.93359375 15.904541015625,2.164306640625 15.1318359375,2.5634765625 14.560546875,4.04296875 15.0439453125,5.888671875 15.780029296875,7.30224609375 17.021484375,9.43359375 19.74609375,13.974609375 23.291015625,8.759765625 24.2687969207764,7.232666015625 24.8583984375,6.1083984375 25.25390625,4.130859375 24.609375,2.6220703125 22.822265625,1.93359375 22.822265625,0 34.921875,0 34.921875,1.962890625 33.310546875,2.7099609375 31.552734375,4.4091796875 30.2563457489014,6.082763671875 28.359375,8.73046875 22.03125,17.75390625 30.5859375,31.904296875 31.8603515625,33.958740234375 32.87109375,35.4931640625 34.4384765625,37.3388671875 35.888671875,38.056640625 35.888671875,39.990234375 19.599609375,39.990234375 19.599609375,38.056640625 21.50390625,37.44140625 22.119140625,35.947265625 21.9287109375,34.833984375 21.4013671875,33.57421875 20.921630859375,32.7099609375 20.15625,31.40625 16.083984375,24.697265625 11.30859375,31.7578125 10.37109375,33.310546875 9.84375,34.599609375 9.697265625,35.9765625 10.3271484375,37.353515625 12.12890625,38.056640625 12.12890625,39.990234375 0,39.990234375 0,38.056640625 2.51953125,36.533203125 4.0283203125,34.81201171875 6.15234375,31.875 13.798828125,20.91796875 6.416015625,8.642578125 4.3505859375,5.33203125 2.900390625,3.3251953125 1.86035144329071,2.34375 0.791015625,1.93359375 0.791015625,0z" />
    </g>
  </g>
</svg>