<?xml version="1.0" encoding="utf-8"?>
<!DOCTYPE svg PUBLIC "-//W3C//DTD SVG 1.1//EN" "http://www.w3.org/Graphics/SVG/1.1/DTD/svg11.dtd">
<svg width="29.00390625" height="41.396484375" xmlns="http://www.w3.org/2000/svg" xmlns:xlink="http://www.w3.org/1999/xlink" xmlns:xml="http://www.w3.org/XML/1998/namespace" version="1.1">
  <g>
    <g>
      <path style="fill:#FF0000;fill-opacity:1" d="M16.552734375,0L18.9404296875,0.146484375 21.1083984375,0.64453125 23.1591796875,1.58203125 25.224609375,3.076171875 25.517578125,3.076171875 25.517578125,0.673828125 28.623046875,0.673828125 28.623046875,10.458984375 25.693359375,10.458984375 24.7119140625,7.1337890625 22.91015625,4.9951171875 20.2294921875,3.8525390625 16.640625,3.515625 13.729248046875,3.819580078125 11.2060546875,4.7314453125 9.06738185882568,6.214599609375 7.3095703125,8.232421875 5.936279296875,10.7702655792236 4.951171875,13.8134765625 4.35791015625,17.325439453125 4.16015625,21.26953125 4.38720703125,24.9609375 5.068359375,28.2421875 6.156005859375,31.083984375 7.6025390625,33.45703125 9.37866115570068,35.3466796875 11.455078125,36.73828125 13.77685546875,37.59521484375 16.2890625,37.880859375 19.86328125,37.55859375 22.67578125,36.6650390625 24.9609375,35.2734375 26.953125,33.427734375 29.00390625,35.390625 26.8359375,37.7783203125 24.08203125,39.6826171875 20.56640625,40.9423828125 16.142578125,41.396484375 12.44384765625,41.033935546875 9.19921875,39.9462890625 6.42333984375,38.192138671875 4.13086032867432,35.830078125 2.33276391029358,32.89306640625 1.04003930091858,29.4140625 0.26000988483429,25.45166015625 0,21.064453125 0.424804925918579,15.7177734375 1.72851586341858,10.751953125 3.96972680091858,6.4453125 7.1630859375,3.046875 11.337890625,0.8056640625 13.8134765625,0.201416015625 16.552734375,0z" />
    </g>
  </g>
</svg>