<?xml version="1.0" encoding="utf-8"?>
<!DOCTYPE svg PUBLIC "-//W3C//DTD SVG 1.1//EN" "http://www.w3.org/Graphics/SVG/1.1/DTD/svg11.dtd">
<svg width="35.595703125" height="39.990234375" xmlns="http://www.w3.org/2000/svg" xmlns:xlink="http://www.w3.org/1999/xlink" xmlns:xml="http://www.w3.org/XML/1998/namespace" version="1.1">
  <g>
    <g>
      <path style="fill:#FF0000;fill-opacity:1" d="M0,0L11.865234375,0 22.236328125,18.017578125 23.3496074676514,20.01708984375 24.755859375,22.6171875 27.509765625,28.095703125 27.978515625,28.095703125 27.7368144989014,20.771484375 27.65625,12.802734375 27.65625,7.353515625 27.6196269989014,5.694580078125 27.509765625,4.5849609375 27.041015625,3.310546875 26.2353515625,2.5927734375 24.521484375,1.93359375 24.521484375,0 35.595703125,0 35.595703125,1.93359375 33.9404296875,2.578125 33.1201171875,3.28125 32.607421875,4.6142578125 32.4755859375,5.745849609375 32.431640625,7.353515625 32.431640625,39.990234375 24.990234375,39.990234375 11.806640625,17.197265625 9.49218654632568,13.0664081573486 7.880859375,9.931640625 7.6171875,9.931640625 7.91015625,23.232421875 7.91015625,32.666015625 7.965087890625,34.53369140625 8.1298828125,35.7421875 8.9208984375,37.1337890625 9.74487209320068,37.620849609375 11.07421875,38.056640625 11.07421875,39.990234375 0,39.990234375 0,38.056640625 1.30737316608429,37.613525390625 2.12402319908142,37.1044921875 2.91503977775574,35.712890625 3.079833984375,34.5263671875 3.13476634025574,32.666015625 3.13476634025574,7.32421875 3.087158203125,5.467529296875 2.94433665275574,4.2919921875 2.15332007408142,2.900390625 1.31469738483429,2.38037109375 0,1.93359375 0,0z" />
    </g>
  </g>
</svg>