<?xml version="1.0" encoding="utf-8"?>
<!DOCTYPE svg PUBLIC "-//W3C//DTD SVG 1.1//EN" "http://www.w3.org/Graphics/SVG/1.1/DTD/svg11.dtd">
<svg width="31.435546875" height="42.65625" xmlns="http://www.w3.org/2000/svg" xmlns:xlink="http://www.w3.org/1999/xlink" xmlns:xml="http://www.w3.org/XML/1998/namespace" version="1.1">
  <g>
    <g>
      <path style="fill:#FF0000;fill-opacity:1" d="M7.412109375,31.640625L6.185302734375,32.523193359375 5.4345703125,33.3544921875 4.921875,35.21484375 5.6689453125,37.470703125 6.6943359375,38.40087890625 8.2763671875,39.140625 10.4406728744507,39.6240234375 13.212890625,39.78515625 16.651611328125,39.481201171875 19.1748046875,38.5693359375 20.723876953125,37.130126953125 21.240234375,35.244140625 20.921630859375,33.782958984375 19.9658203125,32.7392578125 18.394775390625,32.113037109375 16.23046875,31.904296875 11.19140625,31.904296875 7.412109375,31.640625z M5.15624952316284,21.6796875L4.18945264816284,23.349609375 3.8671875,25.078125 4.30297803878784,26.8212890625 5.6103515625,28.125 7.738037109375,28.93798828125 10.634765625,29.208984375 17.080078125,29.208984375 20.086669921875,29.560546875 22.3095703125,30.615234375 23.6828594207764,32.2705078125 24.140625,34.423828125 23.7451171875,36.6943359375 22.3828125,38.759765625 22.705078125,38.90625 24.7851543426514,37.734375 26.337890625,36.15234375 27.3046855926514,34.2919921875 27.626953125,32.28515625 27.1069316864014,29.501953125 25.546875,27.5390625 22.9394512176514,26.37451171875 19.27734375,25.986328125 12.0703125,25.986328125 9.100341796875,25.7958984375 6.9873046875,25.224609375 5.723876953125,24.2431640625 5.302734375,22.822265625 5.44921875,21.73828125 5.15624952316284,21.6796875z M14.296875,2.958984375L12.8320302963257,3.37646627426147 11.8359375,4.62890625 11.2646474838257,6.74560546875 11.07421875,9.755859375 11.2683095932007,12.996826171875 11.8505859375,15.2197265625 12.8576650619507,16.505126953125 14.326171875,16.93359375 15.72509765625,16.527099609375 16.69921875,15.3076171875 17.2705078125,13.238525390625 17.4609375,10.283203125 17.2705078125,7.09716796875 16.69921875,4.8046875 15.7177734375,3.42041158676147 14.296875,2.958984375z M10.576171875,2.40234375L7.60986328125,3.33618307113647 5.39062452316284,4.9658203125 4.00634765625,7.188720703125 3.54492139816284,9.90234375 3.96240234375,12.630615234375 5.21484375,14.8388671875 7.265625,16.446533203125 10.078125,17.373046875 10.283203125,16.9921875 8.5986328125,14.12109375 8.192138671875,12.25341796875 8.056640625,9.990234375 8.203125,7.635498046875 8.642578125,5.7275390625 9.45556640625,4.14184713363647 10.72265625,2.75390625 10.576171875,2.40234375z M18.10546875,2.28515625L17.958984375,2.607421875 19.921875,5.44921875 20.38330078125,7.43408203125 20.537109375,9.990234375 19.9951171875,14.12109375 18.310546875,16.9921875 18.515625,17.373046875 21.328125,16.453857421875 23.37890625,14.8681640625 24.6313457489014,12.623291015625 25.048828125,9.7265625 24.6093730926514,6.793212890625 23.291015625,4.5556640625 21.11572265625,3.04321432113647 18.10546875,2.28515625z M14.23828125,0L15.78369140625,0.0366225242614746 17.724609375,0.146484375 19.57763671875,0.300294399261475 20.859375,0.46875 31.435546875,0.46875 31.435546875,4.1015625 26.103515625,3.486328125 25.986328125,3.80859375 27.59765625,6.4306640625 28.212890625,9.697265625 27.9876689910889,12.0144653320313 27.3120098114014,14.044189453125 26.1859111785889,15.7864379882813 24.609375,17.2412109375 22.6116943359375,18.3883666992188 20.22216796875,19.207763671875 17.4407958984375,19.6994018554688 14.267578125,19.86328125 11.4184560775757,19.7607421875 9.140625,19.453125 7.880859375,20.5078125 7.55859375,21.50390625 7.913818359375,22.371826171875 8.9794921875,22.8662109375 10.8361806869507,23.096923828125 13.564453125,23.173828125 20.771484375,23.173828125 23.4704570770264,23.408203125 25.8837890625,24.111328125 27.9199199676514,25.29052734375 29.4873046875,26.953125 30.487060546875,29.0625 30.8203125,31.58203125 30.34423828125,34.62158203125 28.916015625,37.294921875 26.5063457489014,39.521484375 23.0859375,41.220703125 18.720703125,42.29736328125 13.4765625,42.65625 10.3179931640625,42.5509643554688 7.58056640625,42.235107421875 5.2642822265625,41.7086791992188 3.369140625,40.9716796875 1.8951416015625,40.0296020507813 0.84228515625,38.887939453125 0.2105712890625,37.5466918945313 0,36.005859375 0.281982421875,34.427490234375 1.1279296875,33.0322265625 2.537841796875,31.820068359375 4.51171875,30.791015625 2.96630859375,29.9267578125 1.845703125,28.740234375 1.16455054283142,27.3046875 0.9375,25.693359375 1.21582019329071,23.82568359375 2.05078172683716,22.08984375 3.56689453125,20.3466796875 5.888671875,18.45703125 3.52294921875,17.025146484375 1.7578125,15.1318359375 0.6591796875,12.879638671875 0.292968511581421,10.37109375 0.721435546875,7.34619140625 2.0068359375,4.775390625 4.083251953125,2.71362447738647 6.884765625,1.2158203125 10.3051748275757,0.303956508636475 14.23828125,0z" />
    </g>
  </g>
</svg>