<?xml version="1.0" encoding="utf-8"?>
<!DOCTYPE svg PUBLIC "-//W3C//DTD SVG 1.1//EN" "http://www.w3.org/Graphics/SVG/1.1/DTD/svg11.dtd">
<svg width="31.962890625" height="42.392578125" xmlns="http://www.w3.org/2000/svg" xmlns:xlink="http://www.w3.org/1999/xlink" xmlns:xml="http://www.w3.org/XML/1998/namespace" version="1.1">
  <g>
    <g>
      <path style="fill:#FF0000;fill-opacity:1" d="M17.6953125,5.5078125L15.41748046875,5.96557760238647 13.212890625,7.3388671875 11.2683095932007,9.561767578125 9.7705078125,12.568359375 8.814697265625,15.9228515625 8.49609375,19.189453125 8.876953125,22.0166015625 10.1806640625,23.671875 12.744140625,24.2578125 14.94140625,23.8623046875 17.0361328125,22.7490234375 18.5888671875,21.2548828125 19.4677734375,19.5703125 19.808349609375,18.40576171875 20.21484375,16.728515625 21.357421875,11.54296875 21.650390625,9.052734375 21.3830547332764,7.437744140625 20.5810546875,6.3427734375 19.324951171875,5.71655416488647 17.6953125,5.5078125z M17.28515625,0L20.6982421875,0.373536586761475 23.7890625,1.494140625 24.404296875,0.46875 31.962890625,0.46875 22.734375,42.392578125 14.58984375,42.392578125 17.8125,27.7734375 17.548828125,27.685546875 13.17626953125,29.64111328125 8.96484375,30.29296875 5.1708984375,29.593505859375 2.34375023841858,27.4951171875 0.585937738418579,24.151611328125 0,19.716796875 0.355224817991257,15.76171875 1.42089867591858,11.865234375 3.09448266029358,8.287353515625 5.2734375,5.2880859375 7.8076171875,2.93335103988647 10.546875,1.2890625 13.65234375,0.322267055511475 17.28515625,0z" />
    </g>
  </g>
</svg>