<?xml version="1.0" encoding="utf-8"?>
<!DOCTYPE svg PUBLIC "-//W3C//DTD SVG 1.1//EN" "http://www.w3.org/Graphics/SVG/1.1/DTD/svg11.dtd">
<svg width="36.3281250000011" height="40.927734375" xmlns="http://www.w3.org/2000/svg" xmlns:xlink="http://www.w3.org/1999/xlink" xmlns:xml="http://www.w3.org/XML/1998/namespace" version="1.1">
  <g>
    <g>
      <path style="fill:#FF0000;fill-opacity:1" d="M9.7265625,21.357421875L9.7265625,21.38671875 8.9794921875,25.72265625 8.671875,29.853515625 8.98681545257568,33.3544921875 9.931640625,35.712890625 11.5576171875,37.05322265625 13.916015625,37.5 15.7864379882813,37.2344970703125 17.589111328125,36.43798828125 19.3240356445313,35.1104736328125 20.9912109375,33.251953125 22.5375347137451,30.91552734375 23.9099102020264,28.154296875 25.1083354949951,24.96826171875 26.1328125,21.357421875 9.7265625,21.357421875z M22.55859375,3.427734375L20.7339477539063,3.6602783203125 18.980712890625,4.35791015625 17.2988891601563,5.5206298828125 15.6884765625,7.1484375 14.1897583007813,9.20105075836182 12.843017578125,11.6381855010986 11.6482543945313,14.4598398208618 10.60546875,17.666015625 26.923828125,17.666015625 27.4731426239014,14.1064472198486 27.65625,10.986328125 27.3596172332764,7.606201171875 26.4697265625,5.2587890625 24.8986797332764,3.885498046875 22.55859375,3.427734375z M22.67578125,0L25.8279418945313,0.21881103515625 28.575439453125,0.875244140625 30.9182739257813,1.96929931640625 32.8564453125,3.5009765625 34.3753051757813,5.44647264480591 35.460205078125,7.78198337554932 36.1111450195313,10.5075082778931 36.328125,13.623046875 35.712890625,19.921875 33.7646484375,26.77734375 30.46875,32.87109375 28.341064453125,35.3466796875 25.8837890625,37.3828125 23.1628398895264,38.961181640625 20.244140625,40.0634765625 17.11669921875,40.711669921875 13.76953125,40.927734375 10.6256103515625,40.7061767578125 7.87353515625,40.04150390625 5.5133056640625,38.9337158203125 3.54492163658142,37.3828125 1.99401831626892,35.41259765625 0.886230170726776,33.046875 0.221557378768921,30.28564453125 0,27.12890625 0.483398199081421,21.8115234375 2.08007788658142,15.5126953125 3.40942335128784,12.2973651885986 5.1708984375,9.2431640625 7.327880859375,6.492919921875 9.84375,4.189453125 12.681884765625,2.36572265625 15.8056640625,1.0546875 19.156494140625,0.263671875 22.67578125,0z" />
    </g>
  </g>
</svg>