<?xml version="1.0" encoding="utf-8"?>
<!DOCTYPE svg PUBLIC "-//W3C//DTD SVG 1.1//EN" "http://www.w3.org/Graphics/SVG/1.1/DTD/svg11.dtd">
<svg width="38.26171875" height="42.919921875" xmlns="http://www.w3.org/2000/svg" xmlns:xlink="http://www.w3.org/1999/xlink" xmlns:xml="http://www.w3.org/XML/1998/namespace" version="1.1">
  <g>
    <g>
      <path style="fill:#FF0000;fill-opacity:1" d="M11.044921875,30.64453125L8.82568359375,32.666015625 8.0859375,34.5703125 8.4375,35.877685546875 9.4921875,36.7529296875 11.24267578125,37.247314453125 13.681640625,37.412109375 17.193603515625,37.100830078125 19.8779296875,36.1669921875 21.580810546875,34.742431640625 22.1484375,32.958984375 21.4013671875,31.376953125 19.16015625,30.849609375 14.6484375,30.849609375 13.2531728744507,30.838623046875 12.3486328125,30.8056640625 11.044921875,30.64453125z M21.357421875,5.390625L19.757080078125,5.64697408676147 18.2373046875,6.416015625 15.87890625,9.2138671875 15.2197256088257,11.004638671875 15,12.83203125 15.2197256088257,14.2529296875 15.87890625,15.234375 16.9921875,15.8056640625 18.57421875,15.99609375 20.313720703125,15.7470703125 21.8408203125,15 24.052734375,12.333984375 24.6459941864014,10.72265625 24.84375,9.228515625 24.6350078582764,7.467041015625 24.0087890625,6.2841796875 22.928466796875,5.61401510238647 21.357421875,5.390625z M21.26953125,0L23.994140625,0.1025390625 26.455078125,0.498046875 38.26171875,0.498046875 37.060546875,5.947265625 32.138671875,5.44921875 32.05078125,5.80078125 32.666015625,9.31640625 32.259521484375,12.54638671875 31.0400390625,15.439453125 29.0039043426514,17.87841796875 26.1474609375,19.74609375 22.562255859375,20.9326171875 18.33984375,21.328125 15.966796875,21.181640625 13.681640625,20.80078125 12.275390625,22.08984375 11.748046875,23.4375 11.9677734375,24.180908203125 12.626953125,24.6533203125 13.7622060775757,24.906005859375 15.41015625,24.990234375 22.03125,24.990234375 24.7045879364014,25.155029296875 26.748046875,25.6494140625 28.3007793426514,26.4990234375 29.501953125,27.7294921875 30.2709941864014,29.322509765625 30.52734375,31.259765625 29.9963359832764,34.35791015625 28.4033203125,37.20703125 25.8288555145264,39.6240234375 22.353515625,41.42578125 18.08349609375,42.54638671875 13.125,42.919921875 7.529296875,42.47314453125 3.39843702316284,41.1328125 1.91162085533142,40.1458740234375 0.84960925579071,38.97216796875 0.212402284145355,37.6116943359375 0,36.064453125 0.314941316843033,34.38720703125 1.25976550579071,32.6953125 2.9443359375,30.8935546875 5.478515625,28.88671875 4.21875,26.982421875 3.92578125,25.078125 4.27001905441284,23.419189453125 5.30273485183716,21.7822265625 6.99462842941284,20.137939453125 9.31640625,18.45703125 7.6171875,15.8349609375 7.03124952316284,12.685546875 7.50366163253784,9.232177734375 8.9208984375,6.1376953125 11.173095703125,3.54858541488647 14.150390625,1.611328125 17.60009765625,0.402833461761475 21.26953125,0z" />
    </g>
  </g>
</svg>