<?xml version="1.0" encoding="utf-8"?>
<!DOCTYPE svg PUBLIC "-//W3C//DTD SVG 1.1//EN" "http://www.w3.org/Graphics/SVG/1.1/DTD/svg11.dtd">
<svg width="26.923828125" height="40.927734375" xmlns="http://www.w3.org/2000/svg" xmlns:xlink="http://www.w3.org/1999/xlink" xmlns:xml="http://www.w3.org/XML/1998/namespace" version="1.1">
  <g>
    <g>
      <path style="fill:#FF0000;fill-opacity:1" d="M14.00390625,0L18.984375,0.56396484375 22.8515625,2.255859375 24.2999248504639,3.4954833984375 25.3344707489014,4.95849609375 25.9551982879639,6.6448974609375 26.162109375,8.5546875 25.6750469207764,11.7187519073486 24.2138671875,14.4140625 21.6101055145264,16.787109375 17.6953125,18.984375 17.6953125,19.248046875 21.5222148895264,20.50048828125 24.4482421875,22.67578125 26.3049297332764,25.62744140625 26.923828125,29.208984375 26.5100078582764,32.420654296875 25.2685546875,35.2587890625 23.1848125457764,37.62451171875 20.244140625,39.4189453125 16.51611328125,40.550537109375 12.0703125,40.927734375 5.56640625,40.3271484375 2.57812452316284,39.605712890625 0,38.642578125 0,31.2890625 5.2734375,31.2890625 6.298828125,34.171142578125 7.67578125,36.1376953125 9.47021389007568,37.269287109375 11.748046875,37.646484375 14.46533203125,37.166748046875 16.40625,35.7275390625 17.57080078125,33.328857421875 17.958984375,29.970703125 17.413330078125,26.3671875 15.7763671875,23.818359375 13.026123046875,22.30224609375 9.140625,21.796875 6.826171875,21.796875 6.826171875,18.45703125 11.30859375,17.757568359375 14.560546875,16.0693359375 16.5380859375,13.3996601104736 17.197265625,9.755859375 16.86767578125,6.903076171875 15.87890625,4.8486328125 14.26025390625,3.607177734375 12.041015625,3.193359375 9.79980373382568,3.6328125 7.998046875,4.951171875 6.6650390625,7.119140625 5.830078125,10.107421875 0.556640625,10.107421875 0.556640625,3.1640625 4.1766357421875,1.77978515625 7.62451171875,0.791015625 10.9002685546875,0.19775390625 14.00390625,0z" />
    </g>
  </g>
</svg>