<?xml version="1.0" encoding="utf-8"?>
<!DOCTYPE svg PUBLIC "-//W3C//DTD SVG 1.1//EN" "http://www.w3.org/Graphics/SVG/1.1/DTD/svg11.dtd">
<svg width="50.7421875" height="29.0625" xmlns="http://www.w3.org/2000/svg" xmlns:xlink="http://www.w3.org/1999/xlink" xmlns:xml="http://www.w3.org/XML/1998/namespace" version="1.1">
  <g>
    <g>
      <path style="fill:#FF0000;fill-opacity:1" d="M27.94921875,2.578125L26.572265625,6.826171875 32.197265625,26.484375 35.7421875,26.484375 36.38671875,24.755859375 29.912109375,2.578125 27.94921875,2.578125z M5.654296875,2.578125L13.095703125,26.484375 16.787109375,26.484375 17.431640625,24.755859375 10.400390625,2.578125 5.654296875,2.578125z M0,0L17.197265625,0 17.197265625,1.435546875 15.88623046875,1.70654439926147 15,2.16796875 14.326171875,3.955078125 14.58984375,5.7275390625 15.205078125,7.939453125 19.013671875,20.009765625 25.83984375,0 32.431640625,0 38.02734375,20.126953125 41.865234375,9.052734375 42.63427734375,6.4306640625 42.890625,4.482421875 42.1875,2.4462890625 40.1953125,1.435546875 40.1953125,0 50.7421875,0 50.7421875,1.46484375 49.39453125,2.0654296875 48.4716796875,3.0322265625 47.4462890625,4.9072265625 46.776123046875,6.456298828125 45.908203125,8.61328125 37.96875,29.0625 29.6484375,29.0625 25.078125,12.568359375 19.248046875,29.0625 10.78125,29.0625 3.57421875,6.5625 2.98461890220642,4.81567525863647 2.5048828125,3.6181640625 1.50878930091858,2.16796875 0,1.435546875 0,0z" />
    </g>
  </g>
</svg>