<?xml version="1.0" encoding="utf-8"?>
<!DOCTYPE svg PUBLIC "-//W3C//DTD SVG 1.1//EN" "http://www.w3.org/Graphics/SVG/1.1/DTD/svg11.dtd">
<svg width="40.8984375" height="43.2421875" xmlns="http://www.w3.org/2000/svg" xmlns:xlink="http://www.w3.org/1999/xlink" xmlns:xml="http://www.w3.org/XML/1998/namespace" version="1.1">
  <g>
    <g>
      <path style="fill:#FF0000;fill-opacity:1" d="M16.171875,11.19140625L13.033447265625,12.4987812042236 10.7666015625,14.6044921875 9.393310546875,17.4719257354736 8.935546875,21.064453125 9.378662109375,24.8876953125 10.7080078125,27.861328125 12.960205078125,29.97802734375 16.171875,31.23046875 16.171875,11.19140625z M24.7265625,11.1328125L24.7265625,31.171875 28.0810546875,29.6630859375 30.322265625,27.451171875 31.5673828125,24.66796875 31.962890625,21.416015625 31.5106201171875,17.5762958526611 30.15380859375,14.5825214385986 27.8924560546875,12.4346933364868 24.7265625,11.1328125z M16.171875,0L24.7265625,0 24.7265625,5.0390625 28.421630859375,5.60760498046875 31.6552734375,6.580810546875 34.427490234375,7.95867919921875 36.73828125,9.7412109375 38.558349609375,11.9210824966431 39.8583984375,14.4909687042236 40.638427734375,17.4508686065674 40.8984375,20.80078125 40.631103515625,24.19189453125 39.8291015625,27.216796875 38.5107421875,29.871826171875 36.6943359375,32.1533203125 34.390869140625,34.046630859375 31.611328125,35.537109375 28.38134765625,36.62841796875 24.7265625,37.32421875 24.7265625,43.2421875 16.171875,43.2421875 16.171875,37.44140625 12.6123046875,36.89208984375 9.43359375,35.947265625 6.668701171875,34.595947265625 4.3505859375,32.8271484375 2.49755883216858,30.640869140625 1.12793016433716,28.037109375 0.281982660293579,24.990234375 0,21.474609375 0.271911770105362,17.7813739776611 1.05834984779358,14.5825214385986 2.35931444168091,11.8780527114868 4.17480564117432,9.66796875 6.47918748855591,7.9156494140625 9.246826171875,6.58447265625 12.4777221679688,5.6744384765625 16.171875,5.185546875 16.171875,0z" />
    </g>
  </g>
</svg>