<?xml version="1.0" encoding="utf-8"?>
<!DOCTYPE svg PUBLIC "-//W3C//DTD SVG 1.1//EN" "http://www.w3.org/Graphics/SVG/1.1/DTD/svg11.dtd">
<svg width="39.2578125" height="39.990234375" xmlns="http://www.w3.org/2000/svg" xmlns:xlink="http://www.w3.org/1999/xlink" xmlns:xml="http://www.w3.org/XML/1998/namespace" version="1.1">
  <g>
    <g>
      <path style="fill:#FF0000;fill-opacity:1" d="M6.357421875,2.578125L16.875,23.818359375 16.875,37.412109375 21.796875,37.412109375 21.796875,24.140625 11.630859375,2.578125 6.357421875,2.578125z M0,0L19.16015625,0 19.16015625,1.435546875 17.0947265625,2.18994140625 16.40625,3.80859375 16.6845703125,5.4931640625 17.156982421875,6.741943359375 18.017578125,8.701171875 23.349609375,20.2734375 29.150390625,8.291015625 30.0146484375,6.298828125 30.439453125,4.8779296875 30.556640625,3.80859375 29.9340801239014,2.16064453125 28.06640625,1.435546875 28.06640625,0 39.2578125,0 39.2578125,1.435546875 37.55859375,2.28515625 36.2548828125,3.57421875 35.0537109375,5.4052734375 34.295654296875,6.771240234375 33.22265625,8.7890625 25.078125,24.19921875 25.078125,32.578125 25.1660137176514,34.5849609375 25.4296875,35.9765625 26.484375,37.6171875 27.4731426239014,38.1298828125 29.033203125,38.5546875 29.033203125,39.990234375 9.66796875,39.990234375 9.66796875,38.5546875 11.2316884994507,38.1298828125 12.2314453125,37.6171875 13.2861328125,35.9619140625 13.5388174057007,34.566650390625 13.623046875,32.578125 13.623046875,24.521484375 5.50781297683716,8.173828125 5.050048828125,7.31689453125 4.26269483566284,5.91796875 3.38378882408142,4.456787109375 2.65136694908142,3.4130859375 1.37695300579071,2.1240234375 0,1.435546875 0,0z" />
    </g>
  </g>
</svg>