<?xml version="1.0" encoding="utf-8"?>
<!DOCTYPE svg PUBLIC "-//W3C//DTD SVG 1.1//EN" "http://www.w3.org/Graphics/SVG/1.1/DTD/svg11.dtd">
<svg width="43.154296875" height="54.0234375" xmlns="http://www.w3.org/2000/svg" xmlns:xlink="http://www.w3.org/1999/xlink" xmlns:xml="http://www.w3.org/XML/1998/namespace" version="1.1">
  <g>
    <g>
      <path style="fill:#FF0000;fill-opacity:1" d="M25.751953125,0L32.841796875,0 24.287109375,38.701171875 27.5207500457764,37.6611328125 30.3076171875,35.888671875 32.574462890625,33.43505859375 34.248046875,30.3515625 35.28076171875,26.7919921875 35.625,22.91015625 35.2880859375,18.2080078125 34.3359375,14.23828125 34.6875,12.3046875 42.59765625,12.3046875 43.154296875,17.724609375 42.564697265625,23.96484375 40.7958984375,29.677734375 37.9541015625,34.559326171875 34.1455078125,38.3056640625 29.3811016082764,40.755615234375 23.671875,41.748046875 20.9765625,54.0234375 13.857421875,54.0234375 16.58203125,41.66015625 11.3671875,40.697021484375 7.55859375,38.7451171875 6.199951171875,37.4221801757813 5.2294921875,35.899658203125 4.647216796875,34.1775512695313 4.453125,32.255859375 4.6142578125,30.05859375 5.0390625,27.65625 6.56250047683716,21.328125 6.884765625,19.6142578125 7.001953125,18.10546875 6.6796875,16.5966796875 5.59570360183716,16.083984375 4.04296922683716,16.58203125 2.10937523841858,18.28125 0,16.201171875 1.76147437095642,14.6667499542236 3.35449194908142,13.5205078125 6.21093797683716,12.2021484375 9.287109375,11.8359375 11.8103017807007,12.1948261260986 13.6376953125,13.271484375 14.7473134994507,15.0439472198486 15.1171875,17.490234375 14.47265625,22.236328125 12.978515625,28.154296875 12.36328125,32.9296875 12.6708974838257,35.07568359375 13.59375,36.708984375 15.13916015625,37.8515625 17.314453125,38.525390625 25.751953125,0z" />
    </g>
  </g>
</svg>