<?xml version="1.0" encoding="utf-8"?>
<!DOCTYPE svg PUBLIC "-//W3C//DTD SVG 1.1//EN" "http://www.w3.org/Graphics/SVG/1.1/DTD/svg11.dtd">
<svg width="30.8203125000004" height="40.927734375" xmlns="http://www.w3.org/2000/svg" xmlns:xlink="http://www.w3.org/1999/xlink" xmlns:xml="http://www.w3.org/XML/1998/namespace" version="1.1">
  <g>
    <g>
      <path style="fill:#FF0000;fill-opacity:1" d="M22.177734375,0L27.0190410614014,0.2783203125 30.8203125,1.11328125 29.501953125,5.419921875 25.6201171875,4.3798828125 22.470703125,4.130859375 19.9575805664063,4.3231201171875 17.633056640625,4.89990234375 15.4971313476563,5.8612060546875 13.5498046875,7.20703125 11.7938222885132,8.93280124664307 10.2319326400757,11.0339374542236 8.86413478851318,13.5104379653931 7.6904296875,16.3623046875 6.075439453125,22.430419921875 5.537109375,28.4765625 5.7861328125,31.263427734375 6.533203125,33.4130859375 7.734375,34.976806640625 9.345703125,36.005859375 11.4038076400757,36.5771484375 13.9453125,36.767578125 17.9736328125,36.357421875 22.32421875,35.068359375 23.349609375,38.876953125 17.9443359375,40.400390625 12.7734375,40.927734375 9.81536865234375,40.7162475585938 7.239990234375,40.081787109375 5.04730224609375,39.0243530273438 3.23730444908142,37.5439453125 1.82098364830017,35.6552124023438 0.809325873851776,33.372802734375 0.202331304550171,30.6967163085938 0,27.626953125 0.347900003194809,23.0859375 1.39160132408142,18.134765625 3.17504835128784,13.2165546417236 5.7421875,8.7744140625 9.0087890625,5.050048828125 12.890625,2.28515625 17.30712890625,0.5712890625 22.177734375,0z" />
    </g>
  </g>
</svg>