<?xml version="1.0" encoding="utf-8"?>
<!DOCTYPE svg PUBLIC "-//W3C//DTD SVG 1.1//EN" "http://www.w3.org/Graphics/SVG/1.1/DTD/svg11.dtd">
<svg width="36.7675781250001" height="40.458984375" xmlns="http://www.w3.org/2000/svg" xmlns:xlink="http://www.w3.org/1999/xlink" xmlns:xml="http://www.w3.org/XML/1998/namespace" version="1.1">
  <g>
    <g>
      <path style="fill:#FF0000;fill-opacity:1" d="M5.91796875,0L14.47265625,0 9.052734375,24.580078125 8.54736328125,27.3779296875 8.37890625,29.677734375 8.73779296875,31.79443359375 9.814453125,33.33984375 11.6088857650757,34.28466796875 14.12109375,34.599609375 17.098388671875,34.09423828125 19.4677734375,32.578125 20.4519634246826,31.3385009765625 21.3391094207764,29.64111328125 22.1292095184326,27.4859619140625 22.822265625,24.873046875 28.30078125,0 36.767578125,0 30.87890625,26.77734375 29.7216796875,30.5419921875 28.0078125,33.80859375 25.6567363739014,36.52587890625 22.587890625,38.642578125 18.49365234375,40.0048828125 13.06640625,40.458984375 10.0753784179688,40.2896118164063 7.459716796875,39.781494140625 5.21942138671875,38.9346313476563 3.3544921875,37.7490234375 1.88690185546875,36.2393188476563 0.83862292766571,34.420166015625 0.209655657410622,32.2915649414063 0,29.853515625 0.212402164936066,26.630859375 0.849609375,23.056640625 5.91796875,0z" />
    </g>
  </g>
</svg>