<?xml version="1.0" encoding="utf-8"?>
<!DOCTYPE svg PUBLIC "-//W3C//DTD SVG 1.1//EN" "http://www.w3.org/Graphics/SVG/1.1/DTD/svg11.dtd">
<svg width="61.875" height="29.58984375" xmlns="http://www.w3.org/2000/svg" xmlns:xlink="http://www.w3.org/1999/xlink" xmlns:xml="http://www.w3.org/XML/1998/namespace" version="1.1">
  <g>
    <g>
      <path style="fill:#FF0000;fill-opacity:1" d="M19.98046875,0L20.9765625,0 18.515625,8.34228515625 16.5234375,15.380859375 16.93359375,15.41015625 19.2961120605469,11.9494638442993 21.5496807098389,8.95019626617432 23.6943035125732,6.41235494613647 25.7299785614014,4.33593893051147 27.6567058563232,2.72094869613647 29.4744853973389,1.56738388538361 31.1833190917969,0.875244736671448 32.783203125,0.64453125 34.354248046875,0.915528774261475 35.4931640625,1.728515625 36.185302734375,3.06884908676147 36.416015625,4.921875 36.2109375,7.3095703125 35.914306640625,8.7451171875 35.4345703125,10.5615234375 34.764404296875,12.777099609375 33.896484375,15.41015625 34.27734375,15.41015625 36.6146850585938,11.9970703125 38.851318359375,9.0234375 40.9872436523438,6.4892578125 43.0224609375,4.39453125 44.9349975585938,2.75390720367432 46.702880859375,1.58203268051147 48.3261108398438,0.878907322883606 49.8046875,0.64453125 51.5551719665527,0.911866664886475 52.763671875,1.7138671875 53.4667930603027,3.02124166488647 53.701171875,4.8046875 53.5949668884277,6.03515625 53.2763671875,7.67578125 52.6281700134277,10.1806640625 51.533203125,14.00390625 50.858455657959,16.2945556640625 50.3283653259277,18.12744140625 49.942928314209,19.5025634765625 49.7021484375,20.419921875 49.365234375,22.529296875 49.8193359375,23.9794921875 51.123046875,24.4921875 52.8662109375,24.287109375 54.462890625,23.525390625 56.7041015625,21.767578125 58.2824668884277,20.2880859375 60.29296875,18.251953125 61.875,19.6875 59.0625,22.587890625 56.30859375,25.2978515625 53.8623046875,27.36328125 51.708984375,28.740234375 49.9951171875,29.3994140625 48.45703125,29.58984375 46.69921875,29.31884765625 45.41015625,28.505859375 44.619140625,27.23876953125 44.35546875,25.60546875 44.52392578125,23.92822265625 45.029296875,21.533203125 45.8349609375,18.53759765625 46.904296875,15.05859375 47.662353515625,12.6416015625 48.2373046875,10.60546875 48.5998497009277,8.97216796875 48.720703125,7.763671875 48.2665977478027,6.20361328125 46.904296875,5.68359375 45.325927734375,6.009521484375 43.6376953125,6.9873046875 41.71875,8.756103515625 39.4482421875,11.455078125 35.1708984375,18.310546875 33.387451171875,22.3974609375 31.69921875,27.275390625 27.1875,29.58984375 25.83984375,29.58984375 26.6308574676514,26.9677734375 27.5390625,23.73046875 30.087890625,14.384765625 30.6408672332764,12.308349609375 31.0107421875,10.7666015625 31.376953125,8.759765625 31.435546875,7.998046875 30.9814453125,6.2109375 29.58984375,5.68359375 27.9675273895264,6.016845703125 26.2646484375,7.0166015625 24.3603496551514,8.785400390625 22.1337890625,11.42578125 17.900390625,18.193359375 16.09130859375,22.3095703125 14.35546875,27.275390625 9.84375,29.58984375 8.701171875,29.58984375 11.9311513900757,17.1826171875 14.4140625,6.2109375 14.00390625,6.15234375 11.282958984375,8.60595703125 7.92480516433716,11.865234375 4.530029296875,15.31494140625 1.69921898841858,18.33984375 0,16.376953125 5.712890625,10.60546875 9.814453125,6.6796875 14.853515625,2.373046875 19.98046875,0z" />
    </g>
  </g>
</svg>