<?xml version="1.0" encoding="utf-8"?>
<!DOCTYPE svg PUBLIC "-//W3C//DTD SVG 1.1//EN" "http://www.w3.org/Graphics/SVG/1.1/DTD/svg11.dtd">
<svg width="53.466796875" height="40.458984375" xmlns="http://www.w3.org/2000/svg" xmlns:xlink="http://www.w3.org/1999/xlink" xmlns:xml="http://www.w3.org/XML/1998/namespace" version="1.1">
  <g>
    <g>
      <path style="fill:#FF0000;fill-opacity:1" d="M42.451171875,4.39453125L38.994140625,5.2880859375 36.240234375,6.9873046875 33.5595703125,9.8876953125 32.197265625,11.9494647979736 30.7763671875,14.53125 29.3151836395264,17.6513671875 27.83203125,21.328125 38.0859375,21.328125 40.107421875,12.24609375 41.30859375,7.880859375 41.98974609375,6.02783203125 42.626953125,4.6875 42.451171875,4.39453125z M48.603515625,0L50.478515625,0 51.5625,2.197265625 49.74609375,7.880859375 45.46875,26.6015625 44.58984375,30.99609375 44.34814453125,32.724609375 44.267578125,33.8671875 44.6337890625,35.3466796875 45.673828125,35.859375 46.7907676696777,35.6304931640625 48.0908164978027,34.94384765625 49.5739707946777,33.7994384765625 51.240234375,32.197265625 53.466796875,34.716796875 51.4746055603027,36.6650390625 49.716796875,38.056640625 46.1279296875,39.814453125 41.806640625,40.458984375 39.29443359375,40.030517578125 37.32421875,38.7451171875 36.0498046875,36.741943359375 35.625,34.16015625 35.96923828125,30.6005859375 37.001953125,25.83984375 26.103515625,25.83984375 24.4482402801514,29.842529296875 22.822265625,32.8857421875 21.112060546875,35.240478515625 19.2041015625,37.177734375 17.113037109375,38.668212890625 14.853515625,39.6826171875 12.3413076400757,40.264892578125 9.4921875,40.458984375 5.52246046066284,39.93896484375 2.51953101158142,38.37890625 0.6298828125,35.91796875 0,32.6953125 0.3515625,30.4833984375 1.40625,28.41796875 3.08349585533142,26.62353515625 5.30273389816284,25.224609375 7.85888671875,24.32373046875 10.546875,24.0234375 13.5717763900757,24.6826171875 16.435546875,26.66015625 11.982421875,29.619140625 10.341796875,28.06640625 8.642578125,27.509765625 7.65380859375,27.73681640625 6.85546827316284,28.41796875 6.15234375,30.908203125 6.72363233566284,33.3984375 8.4814453125,35.44921875 9.781494140625,36.064453125 11.30859375,36.26953125 13.5791015625,35.8154296875 15.4833984375,34.423828125 17.40234375,31.8310546875 18.42041015625,29.952392578125 19.482421875,27.626953125 22.79296875,19.833984375 24.5471172332764,15.9851083755493 26.3232402801514,12.6416034698486 28.1213359832764,9.80346775054932 29.94140625,7.470703125 33.81591796875,3.936767578125 38.115234375,1.6552734375 42.9931640625,0.413818359375 48.603515625,0z" />
    </g>
  </g>
</svg>