<?xml version="1.0" encoding="utf-8"?>
<!DOCTYPE svg PUBLIC "-//W3C//DTD SVG 1.1//EN" "http://www.w3.org/Graphics/SVG/1.1/DTD/svg11.dtd">
<svg width="42.626953125" height="40.4296875" xmlns="http://www.w3.org/2000/svg" xmlns:xlink="http://www.w3.org/1999/xlink" xmlns:xml="http://www.w3.org/XML/1998/namespace" version="1.1">
  <g>
    <g>
      <path style="fill:#FF0000;fill-opacity:1" d="M27.94921875,0L31.06201171875,0.2197265625 33.896484375,0.87890625 36.4013671875,1.944580078125 38.525390625,3.3837890625 40.24658203125,5.17822265625 41.54296875,7.3095703125 42.35595703125,9.74487495422363 42.626953125,12.451171875 42.410888671875,15.7434101104736 41.7626953125,18.8232421875 39.5068359375,24.375 36.328125,29.1943359375 32.6953125,33.369140625 32.578125,33.837890625 39.90234375,33.837890625 38.525390625,40.4296875 22.236328125,40.4296875 23.408203125,34.8046875 27.1142578125,30.703125 30.2197265625,25.8837890625 32.34375,20.126953125 32.93701171875,16.81640625 33.134765625,13.154296875 32.7392578125,10.2392578125 31.5673828125,7.939453125 29.6630859375,6.416015625 27.041015625,5.859375 24.9609355926514,6.060791015625 23.115234375,6.6650390625 20.068359375,8.8330078125 17.8271484375,11.982421875 16.318359375,15.732421875 15.46875,19.7021484375 15.205078125,23.49609375 15.3515625,26.2060546875 15.7763671875,28.916015625 16.46484375,31.7431640625 17.40234375,34.8046875 16.23046875,40.4296875 0,40.4296875 1.40625023841858,33.837890625 9.228515625,33.837890625 9.345703125,33.369140625 7.840576171875,30.267333984375 6.8408203125,27.4072265625 6.09375,22.001953125 6.8408203125,16.1865234375 8.96484375,10.9423828125 12.3046875,6.4892578125 16.69921875,3.0322265625 21.97265625,0.791015625 24.8876934051514,0.19775390625 27.94921875,0z" />
    </g>
  </g>
</svg>