<?xml version="1.0" encoding="utf-8"?>
<!DOCTYPE svg PUBLIC "-//W3C//DTD SVG 1.1//EN" "http://www.w3.org/Graphics/SVG/1.1/DTD/svg11.dtd">
<svg width="21.884765625" height="30.8203125" xmlns="http://www.w3.org/2000/svg" xmlns:xlink="http://www.w3.org/1999/xlink" xmlns:xml="http://www.w3.org/XML/1998/namespace" version="1.1">
  <g>
    <g>
      <path style="fill:#FF0000;fill-opacity:1" d="M9.140625,0L11.513671875,2.3583984375 12.9492177963257,3.00659322738647 14.501953125,3.22265625 16.95556640625,2.60742330551147 19.1015625,0.76171875 20.68359375,2.16796875 18.9166259765625,4.1802978515625 17.04345703125,5.61767578125 15.0640869140625,6.4801025390625 12.978515625,6.767578125 9.9609375,6.26953125 7.412109375,4.541015625 5.44921875,6.4892578125 4.716796875,9.228515625 5.302734375,11.9384765625 6.9287109375,13.9013671875 9.228515625,14.619140625 9.9462890625,14.501953125 10.7373046875,14.0478515625 11.6162109375,13.2275390625 12.451171875,12.158203125 13.359375,10.810546875 16.878662109375,11.4990234375 19.5849609375,13.212890625 21.309814453125,15.732421875 21.884765625,18.837890625 21.1669921875,22.236328125 19.1015625,25.283203125 17.255859375,27.00439453125 14.4140625,29.23828125 12.48046875,30.8203125 9.31640625,28.2421875 7.5732421875,27.47314453125 6.03515625,27.216796875 3.6474609375,27.802734375 2.54516577720642,28.59375 1.37695276737213,29.794921875 0,28.30078125 2.16064429283142,26.25 4.306640625,24.78515625 6.416015625,23.90625 8.466796875,23.61328125 11.4843740463257,24.2431640625 14.150390625,26.1328125 16.81640625,23.876953125 17.5634765625,22.5 17.8125,20.947265625 17.464599609375,18.88916015625 16.4208984375,17.28515625 14.835205078125,16.25244140625 12.861328125,15.908203125 11.9055166244507,16.116943359375 11.0302734375,16.7431640625 10.037841796875,17.911376953125 8.73046875,19.74609375 6.500244140625,19.3212890625 4.5556640625,18.3984375 2.969970703125,17.047119140625 1.81640613079071,15.3369140625 1.11328113079071,13.421630859375 0.878905892372131,11.455078125 1.37695276737213,8.4228515625 2.900390625,5.771484375 4.40185546875,4.18213033676147 6.85546875,1.9921875 9.140625,0z" />
    </g>
  </g>
</svg>