<?xml version="1.0" encoding="utf-8"?>
<!DOCTYPE svg PUBLIC "-//W3C//DTD SVG 1.1//EN" "http://www.w3.org/Graphics/SVG/1.1/DTD/svg11.dtd">
<svg width="44.82421875" height="31.494140625" xmlns="http://www.w3.org/2000/svg" xmlns:xlink="http://www.w3.org/1999/xlink" xmlns:xml="http://www.w3.org/XML/1998/namespace" version="1.1">
  <g>
    <g>
      <path style="fill:#FF0000;fill-opacity:1" d="M19.130859375,7.236328125L16.904296875,7.8076171875 14.208984375,9.140625 14.208984375,22.705078125 16.171875,24.0673828125 18.837890625,25.341796875 20.2880859375,24.111328125 21.005859375,23.0712890625 21.4453125,21.6064453125 21.591796875,19.423828125 21.591796875,11.279296875 20.91796875,8.3935546875 20.13427734375,7.525634765625 19.130859375,7.236328125z M32.724609375,6.767578125L31.494140625,7.08984375 29.53125,8.203125 29.53125,22.705078125 32.0361328125,24.4921875 34.5703125,25.634765625 36.3720703125,21.62109375 36.778564453125,18.93310546875 36.9140625,15.615234375 36.676025390625,11.65283203125 35.9619140625,8.90625 34.676513671875,7.30224609375 32.724609375,6.767578125z M10.25390625,0L11.7919912338257,0.955811977386475 12.94921875,2.1240234375 13.7475576400757,3.65112447738647 14.208984375,5.68359375 18.837890625,3.31054830551147 23.994140625,0 26.2207012176514,1.20849752426147 27.802734375,2.373046875 28.8647441864014,3.61816549301147 29.53125,5.068359375 33.97705078125,2.62207174301147 37.119140625,0.205078125 39.371337890625,1.59301900863647 40.9716796875,2.7099609375 43.0810546875,4.921875 44.3701171875,8.115234375 44.710693359375,10.4443359375 44.82421875,13.505859375 44.384765625,18.134765625 43.212890625,21.6796875 41.5869140625,24.1259765625 39.7119140625,25.78125 38.309326171875,26.69677734375 36.064453125,28.037109375 33.3837890625,29.6337890625 30.908203125,31.494140625 26.6748046875,28.9453125 21.826171875,27.3046875 19.44580078125,28.6669921875 17.75390625,29.765625 15.5859375,31.494140625 10.048828125,28.505859375 3.955078125,26.484375 3.955078125,24.4921875 5.01708984375,23.814697265625 5.74218797683716,22.5439453125 6.15966796875,20.628662109375 6.29882860183716,18.017578125 6.29882860183716,11.279296875 5.72753953933716,8.3642578125 5.028076171875,7.540283203125 4.07226514816284,7.265625 2.79052710533142,7.59521484375 0.9375,8.583984375 0,6.240234375 2.003173828125,5.26794528961182 4.3798828125,3.90381002426147 7.130126953125,2.14782810211182 10.25390625,0z" />
    </g>
  </g>
</svg>