<?xml version="1.0" encoding="utf-8"?>
<!DOCTYPE svg PUBLIC "-//W3C//DTD SVG 1.1//EN" "http://www.w3.org/Graphics/SVG/1.1/DTD/svg11.dtd">
<svg width="30.791015625" height="30" xmlns="http://www.w3.org/2000/svg" xmlns:xlink="http://www.w3.org/1999/xlink" xmlns:xml="http://www.w3.org/XML/1998/namespace" version="1.1">
  <g>
    <g>
      <path style="fill:#FF0000;fill-opacity:1" d="M9.228515625,0L11.7773427963257,0.362550258636475 13.623046875,1.4501953125 14.7436513900757,3.24096822738647 15.1171875,5.712890625 14.970703125,7.763671875 14.53125,10.166015625 12.65625,17.958984375 12.3229970932007,19.464111328125 12.1435546875,20.5810546875 12.041015625,22.20703125 12.2515859603882,23.7451171875 12.8832998275757,24.84375 13.9361562728882,25.5029296875 15.41015625,25.72265625 17.7978515625,25.242919921875 19.86328125,23.8037109375 21.544189453125,21.500244140625 22.7783203125,18.427734375 23.5363750457764,14.94873046875 23.7890625,11.42578125 23.4082012176514,6.4599609375 22.265625,2.40234375 22.6171875,0.46875 30.263671875,0.46875 30.791015625,5.859375 30.4687480926514,10.4443359375 29.501953125,14.82421875 27.8686504364014,18.973388671875 25.546875,22.8662109375 22.7783203125,26.11083984375 19.8046875,28.3154296875 16.64794921875,29.578857421875 13.330078125,30 9.364013671875,29.461669921875 6.4306640625,27.8466796875 4.617919921875,25.279541015625 4.013671875,21.884765625 4.2041015625,19.658203125 4.658203125,17.2265625 6.474609375,9.873046875 6.826171875,8.2470703125 7.001953125,6.26953125 6.650390625,4.716796875 5.595703125,4.248046875 3.9697265625,4.7900390625 2.109375,6.4453125 0,4.365234375 2.29614233970642,2.42797994613647 4.4384765625,1.0693359375 6.668701171875,0.267335414886475 9.228515625,0z" />
    </g>
  </g>
</svg>