<?xml version="1.0" encoding="utf-8"?>
<!DOCTYPE svg PUBLIC "-//W3C//DTD SVG 1.1//EN" "http://www.w3.org/Graphics/SVG/1.1/DTD/svg11.dtd">
<svg width="31.669921875" height="30" xmlns="http://www.w3.org/2000/svg" xmlns:xlink="http://www.w3.org/1999/xlink" xmlns:xml="http://www.w3.org/XML/1998/namespace" version="1.1">
  <g>
    <g>
      <path style="fill:#FF0000;fill-opacity:1" d="M10.341796875,15.849609375L7.115478515625,16.790771484375 4.8779296875,18.2080078125 3.570556640625,20.101318359375 3.134765625,22.470703125 3.7353515625,24.9609375 5.6689453125,26.89453125 7.181396484375,27.4658203125 9.052734375,27.65625 10.8251953125,27.4951171875 12.158203125,27.1875 12.158203125,26.923828125 10.3198232650757,26.34521484375 8.84765625,25.1953125 7.880859375,23.63525390625 7.55859375,21.826171875 7.7490234375,19.954833984375 8.3203125,18.5009765625 10.517578125,16.201171875 10.341796875,15.849609375z M17.548828125,15.703125L14.425048828125,16.116943359375 12.3193359375,17.1240234375 11.1218252182007,18.841552734375 10.72265625,21.38671875 10.9680166244507,23.038330078125 11.7041015625,24.3017578125 12.7770986557007,25.103759765625 14.033203125,25.37109375 15.53466796875,25.08544921875 16.640625,24.228515625 17.32177734375,22.8369140625 17.548828125,20.947265625 17.548828125,15.703125z M17.8125,2.021484375L17.548828125,2.490234375 18.88916015625,3.59985494613647 19.86328125,5.1123046875 20.45654296875,6.968994140625 20.654296875,9.111328125 20.654296875,26.953125 25.1953125,26.953125 25.1953125,11.162109375 25.1293926239014,8.818359375 24.931640625,7.060546875 23.994140625,4.4970703125 23.1262187957764,3.50464010238647 21.8701171875,2.724609375 20.130615234375,2.21191549301147 17.8125,2.021484375z M16.962890625,0L20.01708984375,0.131837368011475 22.44140625,0.52734375 24.3676738739014,1.25244283676147 25.927734375,2.373046875 27.0849590301514,3.80859518051147 27.802734375,5.478515625 28.1762676239014,7.6171875 28.30078125,10.458984375 28.30078125,21.73828125 28.3557109832764,24.0087890625 28.5205078125,25.48828125 29.384765625,27.12890625 30.2783203125,27.64892578125 31.669921875,28.095703125 31.669921875,29.53125 17.431640625,29.53125 17.666015625,26.30859375 17.255859375,26.162109375 15.018310546875,28.01513671875 12.9931640625,29.1796875 10.9167470932007,29.794921875 8.525390625,30 6.148681640625,29.765625 4.0576171875,29.0625 2.332763671875,27.945556640625 1.0546875,26.4697265625 0.263671875,24.708251953125 0,22.734375 0.22705078125,20.51513671875 0.908203125,18.662109375 2.08740234375,17.113037109375 3.80859375,15.8056640625 6.141357421875,14.732666015625 9.1552734375,13.88671875 12.930908203125,13.2568359375 17.548828125,12.83203125 17.548828125,10.048828125 17.259521484375,7.027587890625 16.3916015625,4.8779296875 14.915771484375,3.59253072738647 12.802734375,3.1640625 10.9259033203125,3.47534275054932 9.45556640625,4.40918111801147 8.3917236328125,5.96557712554932 7.734375,8.14453125 3.1640625,8.14453125 3.1640625,3.369140625 6.89208984375,1.92260885238647 10.400390625,0.8642578125 13.740234375,0.216065883636475 16.962890625,0z" />
    </g>
  </g>
</svg>