<?xml version="1.0" encoding="utf-8"?>
<!DOCTYPE svg PUBLIC "-//W3C//DTD SVG 1.1//EN" "http://www.w3.org/Graphics/SVG/1.1/DTD/svg11.dtd">
<svg width="31.962890625" height="40.01953125" xmlns="http://www.w3.org/2000/svg" xmlns:xlink="http://www.w3.org/1999/xlink" xmlns:xml="http://www.w3.org/XML/1998/namespace" version="1.1">
  <g>
    <g>
      <path style="fill:#FF0000;fill-opacity:1" d="M8.3203125,3.1640625L8.3203125,19.453125 12.890625,19.453125 17.589111328125,18.88916015625 20.9033203125,17.197265625 22.8698711395264,14.4653339385986 23.525390625,10.78125 23.3093242645264,8.70117282867432 22.6611328125,7.03125 20.3173828125,4.7021484375 16.845703125,3.5009765625 12.59765625,3.1640625 8.3203125,3.1640625z M0,0L13.0078125,0 18.3251953125,0.4248046875 23.02734375,2.021484375 24.9060039520264,3.424072265625 26.3818359375,5.2880859375 27.3376445770264,7.69409275054932 27.65625,10.72265625 27.4475078582764,13.2458515167236 26.8212890625,15.3662109375 24.6240234375,18.5595703125 21.5478515625,20.5810546875 18.076171875,21.6796875 18.076171875,21.943359375 21.884765625,24.3896484375 24.5068359375,28.0078125 26.3232421875,32.314453125 27.685546875,36.85546875 31.962890625,36.85546875 31.962890625,40.01953125 24.43359375,40.01953125 23.4667949676514,36.580810546875 22.5,33.5302734375 20.2734375,28.5498046875 17.314453125,24.9609375 15.4248046875,23.642578125 13.154296875,22.6171875 8.3203125,22.6171875 8.3203125,36.85546875 14.8828125,36.85546875 14.8828125,40.01953125 0,40.01953125 0,36.85546875 4.39453125,36.85546875 4.39453125,3.1640625 0,3.1640625 0,0z" />
    </g>
  </g>
</svg>