<?xml version="1.0" encoding="utf-8"?>
<!DOCTYPE svg PUBLIC "-//W3C//DTD SVG 1.1//EN" "http://www.w3.org/Graphics/SVG/1.1/DTD/svg11.dtd">
<svg width="23.84765625" height="42.099609375" xmlns="http://www.w3.org/2000/svg" xmlns:xlink="http://www.w3.org/1999/xlink" xmlns:xml="http://www.w3.org/XML/1998/namespace" version="1.1">
  <g>
    <g>
      <path style="fill:#FF0000;fill-opacity:1" d="M13.65234375,15.29296875L10.3124990463257,16.73583984375 7.3828125,17.841796875 7.3828125,34.423828125 10.9423828125,36.357421875 13.212890625,37.2802734375 14.794921875,37.5 15.823974609375,37.2509765625 16.8017578125,36.50390625 17.669677734375,35.23681640625 18.369140625,33.427734375 18.83056640625,31.14990234375 18.984375,28.4765625 18.863525390625,24.774169921875 18.5009765625,21.9287109375 17.8564453125,19.727783203125 16.8896484375,17.958984375 15.516357421875,16.5161151885986 13.65234375,15.29296875z M4.21875047683716,0L5.361328125,1.23046875 4.26269578933716,2.3291015625 3.86718797683716,3.45703125 4.1455078125,4.541015625 5.2734375,5.8447265625 6.346435546875,6.62109375 7.8662109375,7.4560546875 9.942626953125,8.44116306304932 12.685546875,9.66796875 16.0693359375,11.2719745635986 18.427734375,12.744140625 19.98046875,14.1650409698486 21.357421875,15.966796875 23.173828125,20.2734375 23.6791973114014,23.21044921875 23.84765625,26.630859375 23.7853984832764,28.927001953125 23.5986328125,30.8349609375 22.9248046875,33.603515625 21.884765625,35.4345703125 20.5078125,36.826171875 19.4677734375,37.58056640625 17.87109375,38.61328125 15.9814453125,39.8583984375 14.747314453125,40.762939453125 12.94921875,42.099609375 9.6734619140625,40.067138671875 6.46728515625,38.5693359375 3.33068823814392,37.606201171875 0.263671875,37.177734375 0.263671875,35.712890625 1.77246141433716,35.068359375 2.578125,34.1015625 2.841796875,32.40234375 2.841796875,16.552734375 6.8115234375,15.4907245635986 11.162109375,13.88671875 9.08203125,12.919921875 6.558837890625,11.8469257354736 4.6142578125,10.9130859375 1.962890625,9.169921875 0.4833984375,7.3681640625 0,5.361328125 0.256347626447678,3.8525390625 1.02539038658142,2.490234375 2.33642578125,1.22314453125 4.21875047683716,0z" />
    </g>
  </g>
</svg>