<?xml version="1.0" encoding="utf-8"?>
<!DOCTYPE svg PUBLIC "-//W3C//DTD SVG 1.1//EN" "http://www.w3.org/Graphics/SVG/1.1/DTD/svg11.dtd">
<svg width="22.294921875" height="31.171875" xmlns="http://www.w3.org/2000/svg" xmlns:xlink="http://www.w3.org/1999/xlink" xmlns:xml="http://www.w3.org/XML/1998/namespace" version="1.1">
  <g>
    <g>
      <path style="fill:#FF0000;fill-opacity:1" d="M9.580078125,4.951171875L8.5400390625,6.26953125 8.2470703125,7.34619140625 8.0419921875,8.876953125 7.921142578125,11.27197265625 7.880859375,14.94140625 13.9453125,12.275390625 9.580078125,4.951171875z M14.443359375,0L21.884765625,11.71875 8.0859375,17.900390625 9.43359375,21.26953125 11.6455078125,23.3935546875 14.0625,24.08203125 15.758056640625,23.88427734375 17.4462890625,23.291015625 21.181640625,20.9765625 22.294921875,23.26171875 19.189453125,25.3125 16.435546875,27.12890625 14.1796875,28.7109375 12.421875,30.05859375 11.162109375,31.171875 8.349609375,30 5.64697265625,28.6962890625 3.57421898841858,27.1875 2.02880883216858,25.279541015625 0.908203363418579,22.7783203125 0.227050811052322,19.610595703125 0,15.703125 0.128173887729645,12.978515625 0.512695789337158,10.72265625 1.96289086341858,7.3974609375 4.2041015625,5.15625 5.789794921875,4.16015768051147 7.939453125,3.046875 14.443359375,0z" />
    </g>
  </g>
</svg>