<?xml version="1.0" encoding="utf-8"?>
<!DOCTYPE svg PUBLIC "-//W3C//DTD SVG 1.1//EN" "http://www.w3.org/Graphics/SVG/1.1/DTD/svg11.dtd">
<svg width="36.796875" height="42.65625" xmlns="http://www.w3.org/2000/svg" xmlns:xlink="http://www.w3.org/1999/xlink" xmlns:xml="http://www.w3.org/XML/1998/namespace" version="1.1">
  <g>
    <g>
      <path style="fill:#FF0000;fill-opacity:1" d="M11.484375,0L15.02197265625,1.820068359375 17.666015625,4.0576171875 19.4091796875,6.639404296875 20.244140625,9.4921875 21.7822265625,6.4599609375 24.345703125,3.896484375 26.5576152801514,2.26318359375 29.912109375,0 33.603515625,3.69140625 35.478515625,2.197265625 36.796875,3.92578125 30.439453125,8.96484375 26.66015625,5.15625 24.4811992645264,6.939697265625 22.9248046875,9.0087890625 21.990966796875,11.4440937042236 21.6796875,14.326171875 21.6796875,19.5703125 30.673828125,19.5703125 30.673828125,22.294921875 21.6796875,22.294921875 21.6796875,25.341796875 21.93603515625,28.524169921875 22.705078125,31.2158203125 23.9355449676514,33.372802734375 25.576171875,34.951171875 27.4951152801514,35.91796875 29.560546875,36.240234375 32.0068359375,35.56640625 34.951171875,33.486328125 36.123046875,35.33203125 34.16015625,36.826171875 31.9226055145264,38.543701171875 30.0732402801514,40.0634765625 28.6120586395264,41.385498046875 27.5390625,42.509765625 25.107421875,41.044921875 22.734375,39.60205078125 21.123046875,38.4375 19.013671875,36.0791015625 17.490234375,32.98828125 16.58203125,34.9365234375 15.0439453125,36.884765625 12.626953125,39.0234375 10.634765625,40.48828125 7.529296875,42.65625 3.251953125,38.3203125 1.259765625,39.9609375 0,38.349609375 6.123046875,33.193359375 10.458984375,37.6171875 12.5024404525757,35.9765625 14.00390625,34.39453125 15.7470703125,30.99609375 16.131591796875,28.92333984375 16.259765625,26.396484375 16.259765625,22.294921875 7.939453125,22.294921875 7.939453125,19.5703125 16.259765625,19.5703125 16.259765625,18.486328125 16.06201171875,14.1320819854736 15.46875,10.8544921875 14.4543447494507,8.448486328125 12.9931640625,6.708984375 11.312255859375,5.654296875 9.638671875,5.302734375 7.0751953125,6.03515625 3.92578148841858,7.998046875 2.84179735183716,6.005859375 4.7021484375,4.86328125 7.119140625,3.251953125 9.55810546875,1.51611328125 11.484375,0z" />
    </g>
  </g>
</svg>