<?xml version="1.0" encoding="utf-8"?>
<!DOCTYPE svg PUBLIC "-//W3C//DTD SVG 1.1//EN" "http://www.w3.org/Graphics/SVG/1.1/DTD/svg11.dtd">
<svg width="42.59765625" height="44.619140625" xmlns="http://www.w3.org/2000/svg" xmlns:xlink="http://www.w3.org/1999/xlink" xmlns:xml="http://www.w3.org/XML/1998/namespace" version="1.1">
  <g>
    <g>
      <path style="fill:#FF0000;fill-opacity:1" d="M25.4296875,2.34375L23.9501953125,3.0029296875 23.258056640625,3.85986328125 22.55859375,5.1123046875 21.796875,6.917724609375 20.91796875,9.43359375 20.4107666015625,11.0650644302368 19.82666015625,13.0883808135986 19.1656494140625,15.5035409927368 18.427734375,18.310546875 18.720703125,18.310546875 22.335205078125,14.5898456573486 24.8583984375,11.103515625 26.3415508270264,7.78564453125 26.8359375,4.5703125 26.4697265625,2.9443359375 25.4296875,2.34375z M27.333984375,0L28.9892559051514,0.27099609375 30.205078125,1.083984375 30.9521465301514,2.35107421875 31.201171875,3.984375 30.9374980926514,6.251220703125 30.146484375,8.4228515625 28.7182598114014,10.7226572036743 26.54296875,13.3740234375 25.0323486328125,14.9734506607056 23.04931640625,16.9445819854736 20.5938720703125,19.2874164581299 17.666015625,22.001953125 17.373046875,22.265625 15.5859375,28.681640625 15.99609375,28.7109375 18.427734375,25.2264404296875 20.7421875,22.21435546875 22.939453125,19.6746826171875 25.01953125,17.607421875 26.9824199676514,16.0052509307861 28.8281230926514,14.8608417510986 30.5566387176514,14.1741952896118 32.16796875,13.9453125 33.856201171875,14.2272968292236 35.1708984375,15.0732421875 36.016845703125,16.3952655792236 36.298828125,18.10546875 35.9033203125,20.888671875 34.5556640625,23.5693359375 33.372802734375,25.08544921875 31.728515625,26.7919921875 29.6484355926514,28.641357421875 27.158203125,30.5859375 27.0483379364014,32.24853515625 27.01171875,34.306640625 27.1545391082764,36.64306640625 27.5830078125,38.26171875 28.3776836395264,39.20654296875 29.619140625,39.521484375 31.3623046875,39.2431640625 33.4423828125,38.1884765625 34.8046875,37.188720703125 36.4599609375,35.7421875 38.499755859375,33.7646484375 41.015625,31.171875 42.59765625,32.607421875 40.330810546875,35.06103515625 38.4228515625,37.08984375 36.873779296875,38.69384765625 35.68359375,39.873046875 33.01025390625,42.15087890625 30.673828125,43.65234375 28.8354473114014,44.37744140625 27.01171875,44.619140625 25.1513671875,44.23828125 23.8330078125,43.1982421875 22.9833984375,41.6015625 22.5,39.4921875 22.3681640625,38.0859375 22.32421875,36.2109375 22.412109375,33.7353515625 22.67578125,31.201171875 25.01953125,29.296875 27.8796367645264,27.359619140625 29.9560546875,25.4150390625 31.2194805145264,23.448486328125 31.640625,21.4453125 31.0107421875,19.6435546875 29.033203125,18.984375 27.2607402801514,19.332275390625 25.400390625,20.3759765625 23.3935546875,22.1630859375 21.181640625,24.7412109375 16.9921875,31.4208984375 15.1611318588257,35.562744140625 13.41796875,40.576171875 8.90625,42.890625 7.76367139816284,42.890625 10.1220703125,34.09423828125 11.923828125,26.748046875 11.71875,26.748046875 7.08251953125,31.025390625 1.49414086341858,35.888671875 0,34.072265625 12.802734375,22.822265625 14.47265625,15.46875 15.845947265625,10.8105478286743 17.6806640625,6.9140625 19.859619140625,3.8525390625 22.265625,1.69921875 24.7924785614014,0.4248046875 27.333984375,0z" />
    </g>
  </g>
</svg>