<?xml version="1.0" encoding="utf-8"?>
<!DOCTYPE svg PUBLIC "-//W3C//DTD SVG 1.1//EN" "http://www.w3.org/Graphics/SVG/1.1/DTD/svg11.dtd">
<svg width="37.353515625" height="30" xmlns="http://www.w3.org/2000/svg" xmlns:xlink="http://www.w3.org/1999/xlink" xmlns:xml="http://www.w3.org/XML/1998/namespace" version="1.1">
  <g>
    <g>
      <path style="fill:#FF0000;fill-opacity:1" d="M33.134765625,0L35.44921875,0.2783203125 37.353515625,1.259765625 36.2841796875,5.5517578125 35.555419921875,7.452392578125 34.74609375,8.90625 32.34375,8.90625 32.127685546875,7.3681640625 31.7724609375,6.38671875 30.41015625,5.68359375 29.3115234375,6.005859375 27.9052734375,7.119140625 26.9238262176514,8.126220703125 25.6494140625,9.5654296875 22.353515625,13.564453125 22.67578125,17.6953125 23.1298828125,20.6103515625 23.671875,22.5 24.287109375,23.583984375 24.9169921875,24.08203125 25.546875,24.19921875 26.9970684051514,23.86962890625 28.59375,22.880859375 30.5419902801514,21.123046875 33.046875,18.486328125 35.2734375,20.56640625 31.343994140625,24.730224609375 27.8759765625,27.6708984375 24.8327617645264,29.417724609375 22.177734375,30 20.361328125,29.75830078125 19.013671875,29.033203125 18.03955078125,27.784423828125 17.34375,25.9716796875 16.875,23.375244140625 16.58203125,19.775390625 16.11328125,19.775390625 13.7072744369507,22.935791015625 11.7626953125,25.2685546875 10.162353515625,26.96044921875 8.7890625,28.1982421875 6.3720703125,29.6044921875 3.779296875,30 1.72851574420929,29.765625 0,29.12109375 0.0585938543081284,28.7109375 1.0308837890625,26.378173828125 1.98486328125,24.5361328125 2.9205322265625,23.184814453125 3.837890625,22.32421875 4.892578125,22.32421875 5.5078125,23.3056640625 6.4453125,23.61328125 7.8955078125,23.3203125 9.755859375,22.1484375 10.982666015625,21.068115234375 12.4365234375,19.5849609375 15.87890625,15.64453125 15,9.580078125 14.5092763900757,7.265625 14.033203125,5.654296875 10.36376953125,8.98681640625 6.15234375,13.2421875 3.92578125,11.162109375 8.360595703125,6.8115234375 11.9384765625,3.662109375 14.908447265625,1.49414205551147 17.51953125,0.087890625 20.068359375,0.087890625 20.6103515625,1.02172994613647 21.064453125,2.5341796875 21.2640380859375,3.64654636383057 21.45263671875,5.18188619613647 21.6302490234375,7.14019870758057 21.796875,9.521484375 22.08984375,9.521484375 24.0051250457764,7.064208984375 25.6494140625,5.0830078125 28.2568359375,2.314453125 30.17578125,0.8056640625 31.6845703125,0.1611328125 33.134765625,0z" />
    </g>
  </g>
</svg>