<?xml version="1.0" encoding="utf-8"?>
<!DOCTYPE svg PUBLIC "-//W3C//DTD SVG 1.1//EN" "http://www.w3.org/Graphics/SVG/1.1/DTD/svg11.dtd">
<svg width="37.001953125" height="40.810546875" xmlns="http://www.w3.org/2000/svg" xmlns:xlink="http://www.w3.org/1999/xlink" xmlns:xml="http://www.w3.org/XML/1998/namespace" version="1.1">
  <g>
    <g>
      <path style="fill:#FF0000;fill-opacity:1" d="M8.96484375,0L17.314453125,0 13.65234375,15.849609375 12.8466796875,19.599609375 12.509765625,22.470703125 13.0078125,24.43359375 14.677734375,25.107421875 16.256103515625,24.7412109375 17.8857421875,23.642578125 20.7568359375,20.2587890625 22.5,15.87890625 26.015625,0 34.482421875,0 29.736328125,19.921875 29.296875,23.26171875 29.619140625,24.755859375 30.732421875,25.283203125 32.548828125,24.55078125 33.6328125,23.6279296875 34.892578125,22.32421875 37.001953125,24.43359375 34.39453125,26.773681640625 32.021484375,28.3447265625 29.7436504364014,29.234619140625 27.421875,29.53125 25.1440410614014,29.1943359375 23.408203125,28.18359375 22.3095703125,26.60888671875 21.943359375,24.580078125 22.119140625,23.173828125 21.708984375,23.115234375 19.273681640625,25.7958984375 17.0068359375,27.685546875 14.8425283432007,28.80615234375 12.71484375,29.1796875 10.6640625,28.857421875 8.96484375,27.890625 8.73046875,27.978515625 8.408203125,34.716796875 8.49609375,37.8515625 7.91015625,40.810546875 1.49414074420929,40.810546875 0,38.818359375 0.549316227436066,36.9580078125 1.25976526737213,34.306640625 2.548828125,28.9453125 8.96484375,0z" />
    </g>
  </g>
</svg>