<?xml version="1.0" encoding="utf-8"?>
<!DOCTYPE svg PUBLIC "-//W3C//DTD SVG 1.1//EN" "http://www.w3.org/Graphics/SVG/1.1/DTD/svg11.dtd">
<svg width="45.9375" height="30.17578125" xmlns="http://www.w3.org/2000/svg" xmlns:xlink="http://www.w3.org/1999/xlink" xmlns:xml="http://www.w3.org/XML/1998/namespace" version="1.1">
  <g>
    <g>
      <path style="fill:#FF0000;fill-opacity:1" d="M38.02734375,0L41.02294921875,2.91504049301147 44.091796875,4.5703125 44.091796875,6.09375 42.2314453125,6.5185546875 41.30859375,7.5732421875 41.0888671875,8.492431640625 41.015625,9.873046875 41.015625,20.244140625 41.143798828125,22.6318359375 41.5283203125,24.228515625 42.242431640625,25.12939453125 43.359375,25.4296875 44.7216796875,25.1806640625 45.9375,24.66796875 45.9375,26.748046875 44.677734375,27.48046875 43.2421875,28.271484375 41.54296875,29.23828125 40.078125,30.17578125 38.45947265625,29.117431640625 37.294921875,27.5244140625 36.591796875,25.308837890625 36.357421875,22.3828125 36.357421875,8.90625 35.859375,7.265625 34.74609375,6.09375 33.720703125,5.68359375 33.094482421875,5.830078125 31.9775390625,6.26953125 31.0830669403076,6.67236328125 29.7619609832764,7.294921875 28.0142192840576,8.13720703125 25.83984375,9.19921875 25.83984375,28.798828125 21.181640625,28.798828125 21.181640625,11.66015625 21.031494140625,8.895263671875 20.5810546875,6.9873046875 19.801025390625,5.877685546875 18.662109375,5.5078125 17.801513671875,5.67626953125 16.5087890625,6.181640625 14.2932119369507,7.27294921875 10.6640625,9.19921875 10.6640625,28.798828125 6.005859375,28.798828125 6.005859375,9.521484375 5.88134717941284,7.7197265625 5.5078125,6.474609375 4.88525390625,5.74951171875 4.013671875,5.5078125 2.61474609375,5.85205078125 0.996093988418579,6.884765625 0,5.009765625 2.28515648841858,3.544921875 4.21875,2.2265625 5.712890625,1.11328125 6.943359375,0.05859375 8.4228515625,1.06567525863647 9.521484375,2.3291015625 10.27587890625,4.06860494613647 10.72265625,6.50390625 14.560546875,4.62890625 17.783203125,2.9443359375 20.15625,1.4794921875 22.001953125,0.05859375 23.426513671875,1.18286275863647 24.3603515625,2.0947265625 25.400390625,3.896484375 25.78125,6.50390625 28.9453125,5.126953125 31.845703125,3.7646484375 34.482421875,2.3876953125 36.5185546875,1.142578125 38.02734375,0z" />
    </g>
  </g>
</svg>