<?xml version="1.0" encoding="utf-8"?>
<!DOCTYPE svg PUBLIC "-//W3C//DTD SVG 1.1//EN" "http://www.w3.org/Graphics/SVG/1.1/DTD/svg11.dtd">
<svg width="31.40625" height="30.29296875" xmlns="http://www.w3.org/2000/svg" xmlns:xlink="http://www.w3.org/1999/xlink" xmlns:xml="http://www.w3.org/XML/1998/namespace" version="1.1">
  <g>
    <g>
      <path style="fill:#FF0000;fill-opacity:1" d="M5.419921875,0L8.7744140625,0.5126953125 11.0595703125,2.1240234375 12.36328125,4.951171875 12.7734375,9.111328125 12.7734375,17.841796875 13.1103515625,21.1962890625 14.0625,23.3203125 15.5419921875,24.4482421875 17.4609375,24.78515625 18.834228515625,24.5947265625 20.0244140625,24.0234375 21.85546875,21.8994140625 22.9541015625,18.6767578125 23.3203125,14.58984375 22.8076171875,8.1005859375 22.086181640625,4.47143697738647 20.947265625,0.46875 29.6484375,0.46875 30.3955078125,3.22265625 30.9521484375,6.3720703125 31.2890625,9.78515625 31.40625,13.30078125 31.109619140625,17.742919921875 30.2197265625,21.4013671875 28.8244609832764,24.345703125 27.01171875,26.6455078125 24.8217754364014,28.33740234375 22.294921875,29.4580078125 19.51904296875,30.084228515625 16.58203125,30.29296875 11.455078125,29.619140625 9.404296875,28.74755859375 7.705078125,27.48046875 6.36840772628784,25.7958984375 5.4052734375,23.671875 4.822998046875,21.08642578125 4.62890625,18.017578125 4.62890625,9.0234375 4.365234375,7.08984375 3.544921875,6.0498046875 2.16796875,5.625 0.234374761581421,5.5078125 0,0.76171875 1.3623046875,0.41015625 2.63671898841858,0.17578125 3.955078125,0.0439453125 5.419921875,0z" />
    </g>
  </g>
</svg>