<?xml version="1.0" encoding="utf-8"?>
<!DOCTYPE svg PUBLIC "-//W3C//DTD SVG 1.1//EN" "http://www.w3.org/Graphics/SVG/1.1/DTD/svg11.dtd">
<svg width="40.341796875" height="39.990234375" xmlns="http://www.w3.org/2000/svg" xmlns:xlink="http://www.w3.org/1999/xlink" xmlns:xml="http://www.w3.org/XML/1998/namespace" version="1.1">
  <g>
    <g>
      <path style="fill:#FF0000;fill-opacity:1" d="M7.67578125,0L19.39453125,0 19.072265625,1.435546875 17.4755859375,1.962890625 16.611328125,2.841796875 15.8203125,4.6728515625 15.35888671875,6.309814453125 14.794921875,8.73046875 12.802734375,17.6953125 28.53515625,17.6953125 30.52734375,8.701171875 30.9814453125,6.1376953125 31.171875,3.984375 30.999755859375,2.816162109375 30.4833984375,2.0654296875 29.5935039520264,1.636962890625 28.30078125,1.435546875 28.623046875,0 40.341796875,0 40.01953125,1.435546875 38.4228515625,1.962890625 37.55859375,2.841796875 36.767578125,4.6728515625 36.30615234375,6.309814453125 35.7421875,8.73046875 30.732421875,31.46484375 30.234375,34.2041015625 30.1171875,36.03515625 30.281982421875,37.159423828125 30.7763671875,37.8955078125 31.658935546875,38.331298828125 32.98828125,38.5546875 32.666015625,39.990234375 20.947265625,39.990234375 21.26953125,38.5546875 22.939453125,37.9833984375 23.876953125,36.884765625 24.580078125,35.1708984375 24.9829082489014,33.687744140625 25.546875,31.259765625 27.94921875,20.390625 12.216796875,20.390625 9.78515625,31.46484375 9.31640625,33.8818359375 9.169921875,36.03515625 9.755859375,37.8515625 10.6201162338257,38.3056640625 12.041015625,38.5546875 11.71875,39.990234375 0,39.990234375 0.32226550579071,38.5546875 1.9921875,37.9833984375 2.9296875,36.884765625 3.6328125,35.1708984375 4.03564453125,33.687744140625 4.599609375,31.259765625 9.580078125,8.701171875 10.0341796875,6.1376953125 10.224609375,3.984375 10.052490234375,2.816162109375 9.5361328125,2.0654296875 8.646240234375,1.636962890625 7.353515625,1.435546875 7.67578125,0z" />
    </g>
  </g>
</svg>