<?xml version="1.0" encoding="utf-8"?>
<!DOCTYPE svg PUBLIC "-//W3C//DTD SVG 1.1//EN" "http://www.w3.org/Graphics/SVG/1.1/DTD/svg11.dtd">
<svg width="26.54296875" height="29.82421875" xmlns="http://www.w3.org/2000/svg" xmlns:xlink="http://www.w3.org/1999/xlink" xmlns:xml="http://www.w3.org/XML/1998/namespace" version="1.1">
  <g>
    <g>
      <path style="fill:#FF0000;fill-opacity:1" d="M20.068359375,0L22.8552227020264,0.410157680511475 24.8876953125,1.640625 26.1291484832764,3.62548971176147 26.54296875,6.298828125 26.2939434051514,9.3017578125 25.546875,13.330078125 21.9140625,29.82421875 17.021484375,29.82421875 20.91796875,11.982421875 21.240234375,10.42236328125 21.4453125,9.2578125 21.591796875,7.32421875 21.368408203125,5.89233541488647 20.6982421875,4.8779296875 19.610595703125,4.27368307113647 18.134765625,4.072265625 15.615234375,4.5556640625 13.2568359375,5.859375 11.19140625,7.6025390625 9.6240234375,9.78515625 8.642578125,12.685546875 4.892578125,29.82421875 0,29.82421875 6.4453125,0.46875 9.755859375,0.234375 11.279296875,0.234375 10.517578125,3.779296875 10.810546875,3.779296875 13.355712890625,2.08007955551147 15.7177734375,0.908203125 17.940673828125,0.227052211761475 20.068359375,0z" />
    </g>
  </g>
</svg>