<?xml version="1.0" encoding="utf-8"?>
<!DOCTYPE svg PUBLIC "-//W3C//DTD SVG 1.1//EN" "http://www.w3.org/Graphics/SVG/1.1/DTD/svg11.dtd">
<svg width="28.857421875" height="41.630859375" xmlns="http://www.w3.org/2000/svg" xmlns:xlink="http://www.w3.org/1999/xlink" xmlns:xml="http://www.w3.org/XML/1998/namespace" version="1.1">
  <g>
    <g>
      <path style="fill:#FF0000;fill-opacity:1" d="M8.4375,23.349609375L8.572998046875,26.663818359375 8.8623046875,29.3994140625 9.31274318695068,31.607666015625 9.931640625,33.33984375 10.7263174057007,34.62158203125 11.7041015625,35.478515625 14.23828125,36.123046875 16.81640625,35.478515625 17.845458984375,34.625244140625 18.7060546875,33.3544921875 19.39453125,31.63330078125 19.9072265625,29.4287109375 20.247802734375,26.693115234375 20.419921875,23.37890625 8.4375,23.349609375z M14.4140625,5.5078125L11.9970703125,6.181640625 11.0009756088257,7.05322265625 10.1513671875,8.3203125 9.45922756195068,10.0048847198486 8.935546875,12.12890625 8.59130859375,14.7290058135986 8.4375,17.841796875 20.419921875,17.841796875 20.28076171875,14.7509784698486 19.98046875,12.158203125 19.51171875,10.0305194854736 18.8671875,8.3349609375 18.043212890625,7.056884765625 17.0361328125,6.181640625 14.4140625,5.5078125z M14.619140625,0L17.947998046875,0.29296875 20.8447265625,1.171875 23.2983379364014,2.669677734375 25.2978515625,4.8193359375 26.8505840301514,7.642822265625 27.9638671875,11.162109375 28.634033203125,15.4028339385986 28.857421875,20.390625 28.6257934570313,25.3509521484375 27.930908203125,29.65576171875 26.7727661132813,33.3050537109375 25.1513671875,36.298828125 23.0703716278076,38.631591796875 20.5334453582764,40.2978515625 17.5405864715576,41.297607421875 14.091796875,41.630859375 10.7473754882813,41.3177490234375 7.862548828125,40.37841796875 5.43731689453125,38.8128662109375 3.4716796875,36.62109375 1.95281982421875,33.7774658203125 0.86791980266571,30.25634765625 0.216979876160622,26.0577392578125 0,21.181640625 0.230712786316872,16.2469482421875 0.92285144329071,11.9604501724243 2.076416015625,8.3221435546875 3.69140625,5.33203125 5.7586669921875,2.999267578125 8.26904296875,1.3330078125 11.2225341796875,0.333251953125 14.619140625,0z" />
    </g>
  </g>
</svg>