<?xml version="1.0" encoding="utf-8"?>
<!DOCTYPE svg PUBLIC "-//W3C//DTD SVG 1.1//EN" "http://www.w3.org/Graphics/SVG/1.1/DTD/svg11.dtd">
<svg width="36.328125" height="51.26953125" xmlns="http://www.w3.org/2000/svg" xmlns:xlink="http://www.w3.org/1999/xlink" xmlns:xml="http://www.w3.org/XML/1998/namespace" version="1.1">
  <g>
    <g>
      <path style="fill:#FF0000;fill-opacity:1" d="M11.865234375,0L16.611328125,0.7470703125 21.181640625,2.783203125 24.0417461395264,4.339599609375 25.7666015625,5.1416015625 27.890625,5.56640625 29.2236328125,5.390625 30.5859375,4.74609375 31.6552734375,3.4716796875 32.080078125,1.376953125 32.080078125,1.2890625 34.306640625,1.2890625 34.013671875,3.599853515625 33.134765625,5.6689453125 31.7724609375,7.39013671875 30.029296875,8.6572265625 28.0444316864014,9.43725776672363 25.95703125,9.697265625 22.998046875,9.31640625 21.2109375,12.6416015625 20.654296875,15.99609375 20.9619140625,18.515625 21.884765625,20.91796875 23.5180644989014,23.48876953125 25.95703125,26.513671875 25.95703125,24.609375 26.3635234832764,21.500244140625 27.5830078125,19.1455078125 29.534912109375,17.662353515625 32.138671875,17.16796875 34.51171875,17.666015625 36.328125,18.984375 34.541015625,23.5546875 33.2373046875,22.8076171875 31.728515625,22.529296875 30.150146484375,22.8369140625 28.9306640625,23.759765625 28.1506328582764,25.224609375 27.890625,27.158203125 28.037109375,29.150390625 29.0844707489014,30.79833984375 30.05859375,32.98828125 30.76171875,35.38330078125 30.99609375,37.646484375 30.46875,40.8837890625 28.7548828125,44.5458984375 25.869140625,47.8857421875 21.7529296875,50.3173828125 19.207763671875,51.031494140625 16.40625,51.26953125 12.6599111557007,50.811767578125 9.2724609375,49.4384765625 6.419677734375,47.314453125 4.27734375,44.6044921875 2.93701171875,41.634521484375 2.49023485183716,38.73046875 3.1787109375,35.2294921875 4.951171875,31.728515625 6.09375,29.857177734375 6.826171875,28.5205078125 7.353515625,26.572265625 7.08984375,25.535888671875 6.298828125,24.6533203125 5.06103467941284,24.041748046875 3.45703125,23.818359375 3.45703125,21.62109375 4.07226514816284,21.62109375 6.258544921875,21.83349609375 8.1884765625,22.470703125 9.774169921875,23.49609375 10.927734375,24.873046875 11.6308584213257,26.5283203125 11.865234375,28.388671875 11.279296875,31.845703125 9.638671875,35.09765625 8.51806640625,36.932373046875 7.8515625,38.2763671875 7.412109375,40.517578125 7.71240234375,42.689208984375 8.61328125,44.7509765625 10.01953125,46.53076171875 11.8359375,47.8564453125 13.9892578125,48.680419921875 16.40625,48.955078125 19.19677734375,48.636474609375 21.650390625,47.6806640625 23.6608867645264,46.197509765625 25.1220703125,44.296875 26.0119609832764,42.07763671875 26.30859375,39.638671875 26.07421875,37.9248046875 25.2685546875,35.9326171875 24.0234375,33.837890625 23.0566387176514,32.4609375 21.50390625,30.322265625 19.683837890625,27.799072265625 18.4423828125,25.7958984375 17.080078125,22.587890625 16.669921875,19.775390625 16.91162109375,17.07275390625 17.63671875,14.23828125 18.88916015625,11.3378925323486 20.712890625,8.4375 19.0576171875,7.8076171875 17.431640625,6.943359375 15.911865234375,6.123046875 14.8681640625,5.595703125 13.1689453125,4.9072265625 11.3232421875,4.4384765625 9.287109375,4.27734375 6.46728515625,4.658203125 4.33593797683716,5.80078125 2.99560546875,7.5732421875 2.54882764816284,9.84375 3.076171875,12.24609375 4.62890625,14.091796875 7.001953125,14.794921875 9.19921875,14.384765625 11.015625,13.447265625 11.044921875,15.99609375 8.98681640625,16.89697265625 6.6796875,17.197265625 5.00610303878784,16.988525390625 3.4423828125,16.3623046875 2.069091796875,15.3149433135986 0.966797232627869,13.8427734375 0.241699308156967,12.0080585479736 0,9.873046875 0.380859434604645,7.36083984375 1.52343761920929,4.98046875 3.34716796875,2.911376953125 5.771484375,1.3330078125 8.6572265625,0.333251953125 11.865234375,0z" />
    </g>
  </g>
</svg>