<?xml version="1.0" encoding="utf-8"?>
<!DOCTYPE svg PUBLIC "-//W3C//DTD SVG 1.1//EN" "http://www.w3.org/Graphics/SVG/1.1/DTD/svg11.dtd">
<svg width="18.603515625" height="40.4296875" xmlns="http://www.w3.org/2000/svg" xmlns:xlink="http://www.w3.org/1999/xlink" xmlns:xml="http://www.w3.org/XML/1998/namespace" version="1.1">
  <g>
    <g>
      <path style="fill:#FF0000;fill-opacity:1" d="M9.228515625,0L12.6672353744507,1.38794088363647 14.9560546875,2.9150390625 16.241455078125,4.67651510238647 16.669921875,6.767578125 16.171875,10.1513671875 14.443359375,12.626953125 12.9638662338257,13.7548828125 10.986328125,14.853515625 14.263916015625,16.79443359375 16.6552734375,19.6875 18.116455078125,23.349609375 18.603515625,27.59765625 18.255615234375,31.0546875 17.2119140625,34.16015625 15.59326171875,36.77490234375 13.5205078125,38.759765625 11.2316884994507,40.01220703125 8.96484375,40.4296875 6.78955078125,40.133056640625 4.833984375,39.2431640625 3.18969750404358,37.833251953125 1.9482421875,35.9765625 1.16821312904358,33.77197265625 0.908203125,31.318359375 1.2158203125,28.505859375 2.29980492591858,25.869140625 4.541015625,22.79296875 6.26953125,23.73046875 5.423583984375,25.1806640625 4.7607421875,27.0703125 4.189453125,31.34765625 4.537353515625,34.061279296875 5.5810546875,36.1669921875 7.203369140625,37.518310546875 9.287109375,37.96875 11.2536611557007,37.5 12.7001953125,36.09375 13.5900869369507,33.779296875 13.88671875,30.5859375 13.3666982650757,25.184326171875 11.806640625,21.2255859375 10.6640625,19.8092651367188 9.31640625,18.797607421875 7.763671875,18.1906127929688 6.005859375,17.98828125 4.8193359375,18.1787109375 3.599853515625,18.629150390625 1.31835961341858,19.599609375 1.25976610183716,17.109375 5.07568359375,15.53466796875 7.91015625,14.091796875 9.90966701507568,12.744140625 11.220703125,11.455078125 11.9457998275757,10.13671875 12.1875,8.701171875 11.6455078125,6.708984375 10.048828125,5.126953125 7.6171875,4.51171875 4.4970703125,5.2294921875 2.486572265625,6.170654296875 0,7.55859375 0,4.892578125 5.28076171875,2.23388814926147 9.228515625,0z" />
    </g>
  </g>
</svg>