<?xml version="1.0" encoding="utf-8"?>
<!DOCTYPE svg PUBLIC "-//W3C//DTD SVG 1.1//EN" "http://www.w3.org/Graphics/SVG/1.1/DTD/svg11.dtd">
<svg width="24.8144531250001" height="42.392578125" xmlns="http://www.w3.org/2000/svg" xmlns:xlink="http://www.w3.org/1999/xlink" xmlns:xml="http://www.w3.org/XML/1998/namespace" version="1.1">
  <g>
    <g>
      <path style="fill:#FF0000;fill-opacity:1" d="M13.4765625,15.87890625L10.0927724838257,16.6040058135986 7.55859375,18.779296875 5.9765625,22.30224609375 5.44921875,27.0703125 5.88134765625,31.9189453125 7.177734375,35.44921875 9.29443264007568,37.6025390625 12.1875,38.3203125 14.35546875,37.99072265625 16.2890625,37.001953125 17.87841796875,35.599365234375 19.013671875,34.0283203125 19.69482421875,32.193603515625 19.921875,30 19.921875,23.5546875 19.764404296875,20.885009765625 19.2919921875,19.0283203125 18.43505859375,17.7282733917236 17.1240234375,16.728515625 15.443115234375,16.0913105010986 13.4765625,15.87890625z M23.02734375,0L24.814453125,0 24.814453125,41.923828125 19.892578125,41.923828125 19.892578125,38.73046875 19.599609375,38.701171875 17.33642578125,40.426025390625 15.234375,41.5576171875 13.095703125,42.183837890625 10.72265625,42.392578125 8.28094482421875,42.1572875976563 6.141357421875,41.451416015625 4.30389404296875,40.2749633789063 2.7685546875,38.6279296875 1.55731201171875,36.5377807617188 0.69213855266571,34.031982421875 0.173034563660622,31.1105346679688 0,27.7734375 0.424804508686066,23.045654296875 1.69921875,19.1162109375 3.73901319503784,16.0327167510986 6.4599609375,13.8427734375 9.77416896820068,12.5354022979736 13.59375,12.099609375 16.9921875,12.4804706573486 19.921875,13.623046875 19.921875,0.234375 23.02734375,0z" />
    </g>
  </g>
</svg>