<?xml version="1.0" encoding="utf-8"?>
<!DOCTYPE svg PUBLIC "-//W3C//DTD SVG 1.1//EN" "http://www.w3.org/Graphics/SVG/1.1/DTD/svg11.dtd">
<svg width="27.392578125" height="30" xmlns="http://www.w3.org/2000/svg" xmlns:xlink="http://www.w3.org/1999/xlink" xmlns:xml="http://www.w3.org/XML/1998/namespace" version="1.1">
  <g>
    <g>
      <path style="fill:#FF0000;fill-opacity:1" d="M17.138671875,0L22.4853496551514,0.395509243011475 27.392578125,1.58203125 26.015625,7.67578125 21.767578125,7.67578125 21.3574199676514,5.68725728988647 20.419921875,4.2333984375 19.0283203125,3.34350728988647 17.255859375,3.046875 14.6923828125,3.662109375 12.7880859375,5.4638671875 12.0703125,8.232421875 12.4035634994507,10.15869140625 13.4033203125,11.42578125 15.142822265625,12.12890625 17.6953125,12.36328125 21.591796875,12.36328125 20.771484375,15.99609375 18.017578125,15.99609375 15.52001953125,16.102294921875 13.59375,16.4208984375 10.78125,17.63671875 9.0673828125,19.4677734375 8.525390625,21.796875 8.82568359375,23.441162109375 9.7265625,24.6826171875 11.2499990463257,25.462646484375 13.41796875,25.72265625 15.57861328125,25.5029296875 17.841796875,24.84375 20.23681640625,23.7744140625 22.79296875,22.32421875 24.609375,25.517578125 21.17431640625,27.4786376953125 17.8125,28.87939453125 14.52392578125,29.7198486328125 11.30859375,30 6.6357421875,29.498291015625 3.046875,27.9931640625 1.7138671875,26.8789672851563 0.76171875,25.543212890625 0.1904296875,23.9859008789063 0,22.20703125 0.633544921875,19.34326171875 2.5341796875,16.962890625 5.592041015625,15.17578125 9.697265625,14.091796875 9.78515625,13.681640625 7.3828125,12.806396484375 5.56640625,11.4697265625 4.42382764816284,9.759521484375 4.04296875,7.763671875 4.44580030441284,5.43457174301147 5.654296875,3.486328125 7.6171875,1.95190572738647 10.283203125,0.8642578125 13.505859375,0.216065883636475 17.138671875,0z" />
    </g>
  </g>
</svg>