<?xml version="1.0" encoding="utf-8"?>
<!DOCTYPE svg PUBLIC "-//W3C//DTD SVG 1.1//EN" "http://www.w3.org/Graphics/SVG/1.1/DTD/svg11.dtd">
<svg width="39.140625" height="43.798828125" xmlns="http://www.w3.org/2000/svg" xmlns:xlink="http://www.w3.org/1999/xlink" xmlns:xml="http://www.w3.org/XML/1998/namespace" version="1.1">
  <g>
    <g>
      <path style="fill:#FF0000;fill-opacity:1" d="M13.65234375,3.544921875L11.5136709213257,4.053955078125 9.66796875,5.5810546875 8.177490234375,8.089599609375 7.1044921875,11.54296875 6.456298828125,15.9008808135986 6.240234375,21.123046875 6.46453857421875,25.8828735351563 7.137451171875,30.025634765625 8.25897216796875,33.5513305664063 9.8291015625,36.4599609375 11.8405151367188,38.7350463867188 14.285888671875,40.360107421875 17.1652221679688,41.3351440429688 20.478515625,41.66015625 23.4960918426514,41.4239501953125 26.1035137176514,40.71533203125 28.3007793426514,39.5343017578125 30.087890625,37.880859375 31.47216796875,35.73486328125 32.4609375,33.076171875 33.05419921875,29.90478515625 33.251953125,26.220703125 32.93701171875,22.269287109375 31.9921875,19.3798828125 30.46875,17.6110858917236 28.41796875,17.021484375 26.8029766082764,17.3986835479736 25.3564453125,18.5302734375 24.2541484832764,20.240478515625 23.671875,22.353515625 24.4628887176514,24.92431640625 24.7265625,27.24609375 24.1918926239014,30.406494140625 22.587890625,33.3837890625 20.01708984375,36.038818359375 16.58203125,38.232421875 15.41015625,36.328125 17.3291015625,35.020751953125 18.57421875,33.7939453125 19.25537109375,32.464599609375 19.482421875,30.849609375 18.7939453125,27.3193359375 17.918701171875,25.206298828125 16.669921875,22.646484375 14.560546875,17.9443359375 13.828125,13.9453125 14.066162109375,12.0959491729736 14.7802734375,10.2978515625 15.948486328125,8.492431640625 17.548828125,6.62109375 16.69921875,5.174560546875 15.791015625,4.2333984375 13.65234375,3.544921875z M24.0234375,0L26.0375957489014,1.629638671875 27.861328125,2.8271484375 29.55322265625,3.563232421875 31.171875,3.80859375 33.58154296875,3.2080078125 35.654296875,1.40625 37.265625,2.75390625 35.1416015625,4.910888671875 32.87109375,6.5185546875 30.54931640625,7.518310546875 28.271484375,7.8515625 25.1806640625,7.32421875 23.6755352020264,6.591796875 21.943359375,5.44921875 20.5517578125,6.708984375 19.599609375,7.96875 18.8671875,10.6640625 19.072265625,12.4804706573486 19.6875,14.47265625 20.7421875,16.7504901885986 22.265625,19.423828125 23.4301738739014,17.2961444854736 25.048828125,15.7177734375 27.0703105926514,14.7399921417236 29.443359375,14.4140625 32.193603515625,14.8168964385986 34.5849609375,16.025390625 36.536865234375,17.9479999542236 37.96875,20.4931640625 38.84765625,23.536376953125 39.140625,26.953125 38.529052734375,31.563720703125 36.6943359375,35.6689453125 33.779296875,39.093017578125 29.9267578125,41.66015625 25.4333477020264,43.26416015625 20.595703125,43.798828125 14.893798828125,43.1103515625 9.8583984375,41.044921875 5.687255859375,37.71240234375 2.57812523841858,33.22265625 0.64453136920929,27.79541015625 0,21.650390625 0.150146484375,18.0322284698486 0.6005859375,14.912109375 2.10937523841858,9.8876953125 4.248046875,6.1669921875 6.943359375,3.4716796875 10.078125,1.7578125 13.359375,1.171875 15.238037109375,1.395263671875 16.7724609375,2.0654296875 18.065185546875,3.233642578125 19.21875,4.951171875 22.1777324676514,2.08740234375 24.0234375,0z" />
    </g>
  </g>
</svg>