<?xml version="1.0" encoding="utf-8"?>
<!DOCTYPE svg PUBLIC "-//W3C//DTD SVG 1.1//EN" "http://www.w3.org/Graphics/SVG/1.1/DTD/svg11.dtd">
<svg width="44.150390625" height="39.990234375" xmlns="http://www.w3.org/2000/svg" xmlns:xlink="http://www.w3.org/1999/xlink" xmlns:xml="http://www.w3.org/XML/1998/namespace" version="1.1">
  <g>
    <g>
      <path style="fill:#FF0000;fill-opacity:1" d="M19.98046875,9.638671875L15.2490234375,11.0522480010986 11.71875,13.76953125 9.521484375,17.60009765625 8.7890625,22.353515625 9.202880859375,25.374755859375 10.4443359375,27.6416015625 12.5573720932007,29.154052734375 15.5859375,29.912109375 19.98046875,9.638671875z M28.4765625,9.55078125L24.0234375,29.853515625 28.798828125,28.41796875 32.34375,25.693359375 34.541015625,21.85546875 35.2734375,17.080078125 34.85595703125,14.0625019073486 33.603515625,11.806640625 31.48681640625,10.3051776885986 28.4765625,9.55078125z M18.720703125,0L33.22265625,0 32.8125,1.93359375 31.483154296875,2.479248046875 30.5419921875,3.2958984375 29.842529296875,4.500732421875 29.23828125,6.2109375 32.7333068847656,6.591796875 35.7623291015625,7.26562547683716 38.3253479003906,8.23242282867432 40.42236328125,9.49218845367432 42.0533752441406,11.0449228286743 43.2183837890625,12.8906259536743 43.9173889160156,15.0292978286743 44.150390625,17.4609375 43.809814453125,20.947265625 42.7880859375,24.0234375 41.085205078125,26.689453125 38.701171875,28.9453125 35.694580078125,30.7525634765625 32.1240234375,32.07275390625 27.989501953125,32.9058837890625 23.291015625,33.251953125 23.14453125,35.5078125 23.3166484832764,36.65771484375 23.8330078125,37.412109375 24.7155742645264,37.8515625 25.986328125,38.056640625 25.576171875,39.990234375 10.25390625,39.990234375 10.6640625,38.056640625 12.2021474838257,37.650146484375 13.30078125,36.8408203125 14.12109375,35.438232421875 14.82421875,33.251953125 11.3497924804688,32.8605651855469 8.338623046875,32.1844482421875 5.79071044921875,31.2236022949219 3.7060546875,29.97802734375 2.08465576171875,28.4477233886719 0.926513671875,26.6326904296875 0.23162841796875,24.5329284667969 0,22.1484375 0.33050537109375,18.6868305206299 1.322021484375,15.6262226104736 2.97454833984375,12.9666147232056 5.2880859375,10.7080078125 8.22784423828125,8.88336181640625 11.759033203125,7.525634765625 15.8816528320313,6.63482666015625 20.595703125,6.2109375 20.7421875,4.482421875 20.1708984375,2.6806640625 18.310546875,1.93359375 18.720703125,0z" />
    </g>
  </g>
</svg>