<?xml version="1.0" encoding="utf-8"?>
<!DOCTYPE svg PUBLIC "-//W3C//DTD SVG 1.1//EN" "http://www.w3.org/Graphics/SVG/1.1/DTD/svg11.dtd">
<svg width="27.392578125" height="40.458984375" xmlns="http://www.w3.org/2000/svg" xmlns:xlink="http://www.w3.org/1999/xlink" xmlns:xml="http://www.w3.org/XML/1998/namespace" version="1.1">
  <g>
    <g>
      <path style="fill:#FF0000;fill-opacity:1" d="M0,0L5.185546875,0 5.185546875,24.7265625 5.284423828125,27.92724609375 5.5810546875,30.322265625 7.0458984375,33.7060546875 8.26171779632568,34.903564453125 9.7705078125,35.712890625 13.65234375,36.328125 17.63671875,35.654296875 19.1857891082764,34.779052734375 20.4345703125,33.5009765625 21.9140625,29.912109375 22.1997051239014,27.392578125 22.294921875,24.052734375 22.294921875,0 27.392578125,0 27.392578125,24.931640625 27.26806640625,28.223876953125 26.89453125,30.8349609375 25.25390625,34.892578125 22.5,37.8955078125 18.603515625,39.78515625 13.388671875,40.458984375 9.40063381195068,40.089111328125 6.1083984375,38.9794921875 3.504638671875,37.086181640625 1.58203125,34.365234375 0.3955078125,30.57861328125 0,25.48828125 0,0z" />
    </g>
  </g>
</svg>