<?xml version="1.0" encoding="utf-8"?>
<!DOCTYPE svg PUBLIC "-//W3C//DTD SVG 1.1//EN" "http://www.w3.org/Graphics/SVG/1.1/DTD/svg11.dtd">
<svg width="34.74609375" height="29.53125" xmlns="http://www.w3.org/2000/svg" xmlns:xlink="http://www.w3.org/1999/xlink" xmlns:xml="http://www.w3.org/XML/1998/namespace" version="1.1">
  <g>
    <g>
      <path style="fill:#FF0000;fill-opacity:1" d="M19.072265625,5.7421875L15.882568359375,6.558837890625 13.0517578125,8.1884765625 10.7006826400757,10.517578125 8.9501953125,13.4326171875 7.862548828125,16.798095703125 7.5,20.478515625 7.74169921875,23.1884765625 8.466796875,25.048828125 9.74120998382568,26.12548828125 11.630859375,26.484375 13.740234375,25.946044921875 15.673828125,24.3310546875 17.3291015625,21.80419921875 18.603515625,18.5302734375 19.41650390625,14.923095703125 19.6875,11.396484375 19.53369140625,8.12255859375 19.072265625,5.7421875z M22.998046875,0L34.74609375,0 33.515625,5.44921875 24.931640625,5.44921875 24.931640625,5.56640625 26.865234375,9.08203125 27.509765625,13.125 26.9604473114014,17.362060546875 25.3125,21.4599609375 22.7856426239014,24.986572265625 19.599609375,27.509765625 15.8056640625,29.02587890625 11.455078125,29.53125 6.617431640625,28.8134765625 3.0029296875,26.66015625 1.68914794921875,25.08544921875 0.750732421875,23.232421875 0.18768310546875,21.10107421875 0,18.69140625 0.289306640625,15.27099609375 1.1572265625,12.099609375 2.545166015625,9.224853515625 4.39453125,6.6943359375 6.59912109375,4.55932760238647 9.052734375,2.87109375 11.8249502182007,1.59668111801147 14.9853515625,0.703125 18.665771484375,0.175782680511475 22.998046875,0z" />
    </g>
  </g>
</svg>