<?xml version="1.0" encoding="utf-8"?>
<!DOCTYPE svg PUBLIC "-//W3C//DTD SVG 1.1//EN" "http://www.w3.org/Graphics/SVG/1.1/DTD/svg11.dtd">
<svg width="25.693359375" height="41.923828125" xmlns="http://www.w3.org/2000/svg" xmlns:xlink="http://www.w3.org/1999/xlink" xmlns:xml="http://www.w3.org/XML/1998/namespace" version="1.1">
  <g>
    <g>
      <path style="fill:#FF0000;fill-opacity:1" d="M17.16796875,0L21.6357421875,0.322265625 25.693359375,1.171875 24.08203125,8.115234375 18.8671875,8.115234375 18.92578125,6.767578125 18.779296875,5.11230611801147 18.33984375,3.955078125 17.5927734375,3.27392721176147 16.5234375,3.046875 14.403076171875,3.57055807113647 12.3779296875,5.1416015625 10.5834951400757,7.55126953125 9.1552734375,10.5908203125 8.221435546875,13.773193359375 7.91015625,16.611328125 8.466796875,19.892578125 10.166015625,22.1337890625 11.6162099838257,23.118896484375 13.681640625,24.169921875 16.212158203125,25.58349609375 17.9443359375,27.12890625 18.944091796875,28.974609375 19.27734375,31.2890625 19.024658203125,33.3251953125 18.2666015625,35.15625 17.017822265625,36.84814453125 15.29296875,38.466796875 12.97119140625,40.1220703125 9.931640625,41.923828125 8.056640625,38.935546875 9.89501857757568,37.71240234375 11.07421875,36.796875 12.275390625,35.2734375 12.626953125,33.427734375 12.3889150619507,32.208251953125 11.6748046875,31.1279296875 10.5065908432007,30.150146484375 8.90625,29.23828125 5.859375,27.615966796875 3.6328125,26.0302734375 2.04345703125,24.32373046875 0.908203125,22.3388671875 0.22705078125,19.962158203125 0,17.080078125 0.5419921875,12.425537109375 2.16796875,8.2470703125 4.775390625,4.75341939926147 8.26171875,2.1533203125 12.451171875,0.538331508636475 17.16796875,0z" />
    </g>
  </g>
</svg>