<?xml version="1.0" encoding="utf-8"?>
<!DOCTYPE svg PUBLIC "-//W3C//DTD SVG 1.1//EN" "http://www.w3.org/Graphics/SVG/1.1/DTD/svg11.dtd">
<svg width="24.8144531250001" height="42.392578125" xmlns="http://www.w3.org/2000/svg" xmlns:xlink="http://www.w3.org/1999/xlink" xmlns:xml="http://www.w3.org/XML/1998/namespace" version="1.1">
  <g>
    <g>
      <path style="fill:#FF0000;fill-opacity:1" d="M13.212890625,3.779296875L11.1547842025757,4.05761861801147 9.31640625,4.892578125 7.752685546875,6.36474609375 6.5185546875,8.5546875 5.716552734375,11.43310546875 5.44921875,14.970703125 5.88134765625,19.8193359375 7.177734375,23.349609375 9.29443264007568,25.5029296875 12.1875,26.220703125 14.35546875,25.89111328125 16.2890625,24.90234375 17.87841796875,23.499755859375 19.013671875,21.9287109375 19.69482421875,20.093994140625 19.921875,17.900390625 19.921875,11.396484375 19.757080078125,8.78173828125 19.2626953125,6.97265625 18.380126953125,5.69458150863647 17.05078125,4.6728515625 15.31494140625,4.00268697738647 13.212890625,3.779296875z M12.802734375,0L16.60400390625,0.563966274261475 19.921875,2.255859375 20.21484375,2.255859375 20.5078125,0.46875 24.814453125,0.46875 24.814453125,42.392578125 19.892578125,42.392578125 19.892578125,26.630859375 19.599609375,26.6015625 17.33642578125,28.326416015625 15.234375,29.4580078125 13.095703125,30.084228515625 10.72265625,30.29296875 8.28094482421875,30.0576782226563 6.141357421875,29.351806640625 4.30389404296875,28.1753540039063 2.7685546875,26.5283203125 1.55731201171875,24.4381713867188 0.69213855266571,21.932373046875 0.173034563660622,19.0109252929688 0,15.673828125 0.395507633686066,11.129150390625 1.58203125,7.2802734375 3.50463819503784,4.18213033676147 6.1083984375,1.8896484375 9.25414943695068,0.472413539886475 12.802734375,0z" />
    </g>
  </g>
</svg>