<?xml version="1.0" encoding="utf-8"?>
<!DOCTYPE svg PUBLIC "-//W3C//DTD SVG 1.1//EN" "http://www.w3.org/Graphics/SVG/1.1/DTD/svg11.dtd">
<svg width="28.7109375" height="42.5390625" xmlns="http://www.w3.org/2000/svg" xmlns:xlink="http://www.w3.org/1999/xlink" xmlns:xml="http://www.w3.org/XML/1998/namespace" version="1.1">
  <g>
    <g>
      <path style="fill:#FF0000;fill-opacity:1" d="M14.296875,3.046875L11.7956533432007,3.68408346176147 10.0927734375,5.595703125 9.52239894866943,7.0587158203125 9.11498928070068,8.89892578125 8.87054347991943,11.1163330078125 8.7890625,13.7109375 9.13696193695068,18.77197265625 10.1806640625,22.353515625 11.9274892807007,24.48486328125 14.384765625,25.1953125 16.8017578125,24.569091796875 18.486328125,22.6904296875 19.0631103515625,21.2503051757813 19.47509765625,19.434814453125 19.7222900390625,17.2439575195313 19.8046875,14.677734375 19.46044921875,9.58923435211182 18.427734375,5.95459127426147 16.70654296875,3.77380466461182 14.296875,3.046875z M15.087890625,0L18.2272319793701,0.224305272102356 20.9655742645264,0.897218227386475 23.3029155731201,2.01873874664307 25.2392578125,3.5888671875 26.7581157684326,5.58197021484375 27.8430156707764,7.972412109375 28.4939556121826,10.7601928710938 28.7109375,13.9453125 28.2751445770264,17.926025390625 26.9677734375,21.4306640625 24.8620586395264,24.32373046875 22.03125,26.4697265625 18.62548828125,27.799072265625 14.794921875,28.2421875 11.9055166244507,28.037109375 9.4482421875,27.421875 7.276611328125,26.30859375 5.244140625,24.609375 4.74609375,24.873046875 5.25146484375,27.198486328125 5.947265625,29.0185546875 6.83349609375,30.391845703125 7.91015625,31.376953125 10.693359375,32.4755859375 12.6123046875,32.706298828125 15.146484375,32.783203125 17.431640625,32.783203125 19.713134765625,32.95166015625 21.4599609375,33.45703125 22.8662090301514,34.376220703125 24.1259765625,35.7861328125 25.3527812957764,37.862548828125 26.66015625,40.78125 23.115234375,42.5390625 22.4047832489014,41.268310546875 21.796875,40.4443359375 20.6103515625,39.5947265625 18.75,39.345703125 14.47265625,39.345703125 11.0687255859375,39.012451171875 8.12255859375,38.0126953125 5.6341552734375,36.346435546875 3.60351586341858,34.013671875 2.02697777748108,31.0198974609375 0.90087902545929,27.37060546875 0.225219756364822,23.0657958984375 0,18.10546875 0.443115264177322,12.718505859375 1.77246117591858,8.2177734375 3.955078125,4.65454244613647 6.9580078125,2.080078125 10.6970205307007,0.520020961761475 15.087890625,0z" />
    </g>
  </g>
</svg>