<?xml version="1.0" encoding="utf-8"?>
<!DOCTYPE svg PUBLIC "-//W3C//DTD SVG 1.1//EN" "http://www.w3.org/Graphics/SVG/1.1/DTD/svg11.dtd">
<svg width="34.1015625" height="28.4765625" xmlns="http://www.w3.org/2000/svg" xmlns:xlink="http://www.w3.org/1999/xlink" xmlns:xml="http://www.w3.org/XML/1998/namespace" version="1.1">
  <g>
    <g>
      <path style="fill:#FF0000;fill-opacity:1" d="M10.048828125,0L34.1015625,0 33.251953125,3.8671875 26.279296875,3.8671875 22.96875,18.544921875 22.4853515625,21.064453125 22.32421875,22.880859375 22.705078125,24.580078125 23.90625,25.107421875 25.8178691864014,24.404296875 28.037109375,22.294921875 29.736328125,23.876953125 27.6086406707764,25.9716796875 25.6787109375,27.392578125 23.7853984832764,28.20556640625 21.767578125,28.4765625 19.98779296875,28.135986328125 18.6328125,27.1142578125 17.77587890625,25.535888671875 17.490234375,23.525390625 17.6953125,21.123046875 18.310546875,17.841796875 18.955078125,14.8828125 19.559326171875,12.29736328125 20.3759765625,9.228515625 21.236572265625,6.298828125 21.97265625,4.130859375 21.826171875,3.8671875 13.212890625,3.8671875 9.609375,20.537109375 8.583984375,24.7705078125 8.06396484375,26.715087890625 7.67578125,28.0078125 1.46484375,28.0078125 1.7578125,26.572265625 3.28125,24.517822265625 4.74609375,21.4306640625 6.15234375,17.310791015625 7.5,12.158203125 9.43359375,3.8671875 8.49609375,3.8671875 4.98046875,4.5703125 3.47900390625,5.625 1.845703125,7.3828125 0,5.830078125 1.38427734375,4.20410299301147 2.49023413658142,3.017578125 4.5263671875,1.376953125 6.9287109375,0.3515625 10.048828125,0z" />
    </g>
  </g>
</svg>