<?xml version="1.0" encoding="utf-8"?>
<!DOCTYPE svg PUBLIC "-//W3C//DTD SVG 1.1//EN" "http://www.w3.org/Graphics/SVG/1.1/DTD/svg11.dtd">
<svg width="42.978515625" height="29.82421875" xmlns="http://www.w3.org/2000/svg" xmlns:xlink="http://www.w3.org/1999/xlink" xmlns:xml="http://www.w3.org/XML/1998/namespace" version="1.1">
  <g>
    <g>
      <path style="fill:#FF0000;fill-opacity:1" d="M19.921875,0L22.2949199676514,0.329591274261475 24.19921875,1.318359375 25.5175762176514,2.88574361801147 26.1328125,4.951171875 28.8098125457764,2.84912252426147 31.5087890625,1.2890625 34.156494140625,0.322267055511475 36.6796875,0 39.371337890625,0.413819789886475 41.3525390625,1.6552734375 42.572021484375,3.62182760238647 42.978515625,6.2109375 42.7587890625,8.9794921875 42.12890625,12.65625 38.3203125,29.82421875 33.427734375,29.82421875 37.236328125,12.48046875 37.628173828125,10.653076171875 37.8662109375,9.3310546875 38.02734375,7.32421875 37.81494140625,5.94726705551147 37.177734375,4.921875 36.14501953125,4.28466939926147 34.74609375,4.072265625 32.0947265625,4.6728515625 30.574951171875,5.47119283676147 28.974609375,6.6650390625 27.5573711395264,8.031005859375 26.5869140625,9.345703125 25.458984375,12.421875 21.650390625,29.82421875 16.7578125,29.82421875 20.654296875,11.982421875 20.9765625,10.42236328125 21.181640625,9.2578125 21.328125,7.32421875 21.119384765625,5.98388671875 20.4931640625,4.951171875 19.464111328125,4.29199361801147 18.046875,4.072265625 15.673828125,4.541015625 13.330078125,5.830078125 11.2353515625,7.55859375 9.6533203125,9.7412109375 8.642578125,12.685546875 4.892578125,29.82421875 0,29.82421875 6.4453125,0.46875 9.755859375,0.234375 11.279296875,0.234375 10.517578125,3.779296875 10.810546875,3.779296875 13.2696533203125,2.12585544586182 15.60791015625,0.944825649261475 17.8253173828125,0.236207127571106 19.921875,0z" />
    </g>
  </g>
</svg>