<?xml version="1.0" encoding="utf-8"?>
<!DOCTYPE svg PUBLIC "-//W3C//DTD SVG 1.1//EN" "http://www.w3.org/Graphics/SVG/1.1/DTD/svg11.dtd">
<svg width="25.986328125" height="30.29296875" xmlns="http://www.w3.org/2000/svg" xmlns:xlink="http://www.w3.org/1999/xlink" xmlns:xml="http://www.w3.org/XML/1998/namespace" version="1.1">
  <g>
    <g>
      <path style="fill:#FF0000;fill-opacity:1" d="M17.841796875,16.962890625L13.3740234375,17.296142578125 10.283203125,18.1201171875 8.4814453125,19.508056640625 7.880859375,21.533203125 8.13720703125,22.965087890625 8.90625,24.0380859375 10.1586904525757,24.708251953125 11.865234375,24.931640625 13.7109375,24.66796875 15.3076171875,23.96484375 16.611328125,22.8369140625 17.5341796875,21.03515625 17.841796875,18.427734375 17.841796875,16.962890625z M15.615234375,0L18.336181640625,0.197755336761475 20.6396484375,0.791015625 22.5146465301514,1.75415182113647 23.9501953125,3.0615234375 24.9645977020264,4.66186666488647 25.576171875,6.50390625 25.8837871551514,8.7451171875 25.986328125,11.54296875 25.986328125,29.82421875 18.10546875,29.82421875 18.10546875,27.71484375 17.841796875,27.71484375 15.63720703125,28.934326171875 13.59375,29.7216796875 11.4257802963257,30.150146484375 8.84765625,30.29296875 6.126708984375,30.00732421875 3.8818359375,29.150390625 2.142333984375,27.8173828125 0.9375,26.103515625 0.234375,24.08935546875 0,21.85546875 0.2801513671875,19.72412109375 1.12060546875,17.841796875 2.5213623046875,16.20849609375 4.482421875,14.82421875 6.998291015625,13.7017822265625 10.0634765625,12.85400390625 13.677978515625,12.2808837890625 17.841796875,11.982421875 17.841796875,10.78125 17.559814453125,8.4375 16.7138671875,6.796875 15.230712890625,5.83007955551147 13.037109375,5.5078125 9.462890625,6.09375 7.17041015625,6.9140625 4.21875,8.203125 1.875,3.3984375 5.811767578125,1.80175924301147 9.1259765625,0.76171875 12.2497549057007,0.190431118011475 15.615234375,0z" />
    </g>
  </g>
</svg>