<?xml version="1.0" encoding="utf-8"?>
<!DOCTYPE svg PUBLIC "-//W3C//DTD SVG 1.1//EN" "http://www.w3.org/Graphics/SVG/1.1/DTD/svg11.dtd">
<svg width="26.30859375" height="29.53125" xmlns="http://www.w3.org/2000/svg" xmlns:xlink="http://www.w3.org/1999/xlink" xmlns:xml="http://www.w3.org/XML/1998/namespace" version="1.1">
  <g>
    <g>
      <path style="fill:#FF0000;fill-opacity:1" d="M11.220703125,3.076171875L6.6796875,3.251953125 6.6796875,26.953125 11.220703125,26.953125 11.220703125,3.076171875z M22.822265625,0L26.30859375,0.41015625 26.30859375,7.412109375 22.67578125,7.412109375 21.9470195770264,5.9619140625 21.1669921875,5.009765625 19.27734375,4.306640625 17.9443359375,4.55932760238647 16.69921875,5.3173828125 14.912109375,7.998046875 14.326171875,11.953125 14.326171875,22.20703125 14.40673828125,24.459228515625 14.6484375,25.8837890625 15.7177734375,27.36328125 17.958984375,28.095703125 17.958984375,29.53125 0.439453125,29.53125 0.439453125,28.095703125 2.0361328125,27.48046875 2.87109375,26.748046875 3.3984375,25.3125 3.53027296066284,24.07470703125 3.57421875,22.294921875 3.57421875,7.705078125 3.4130859375,5.15625 2.8564453125,3.69140625 1.7724609375,2.9296875 0,2.4609375 0,0.908203125 10.37109375,0.46875 14.326171875,0.46875 14.12109375,4.189453125 14.501953125,4.27734375 16.53076171875,2.40600728988647 18.57421875,1.0693359375 20.66162109375,0.267335414886475 22.822265625,0z" />
    </g>
  </g>
</svg>