<?xml version="1.0" encoding="utf-8"?>
<!DOCTYPE svg PUBLIC "-//W3C//DTD SVG 1.1//EN" "http://www.w3.org/Graphics/SVG/1.1/DTD/svg11.dtd">
<svg width="25.341796875" height="30.29296875" xmlns="http://www.w3.org/2000/svg" xmlns:xlink="http://www.w3.org/1999/xlink" xmlns:xml="http://www.w3.org/XML/1998/namespace" version="1.1">
  <g>
    <g>
      <path style="fill:#FF0000;fill-opacity:1" d="M15.849609375,3.779296875L13.11767578125,4.34692525863647 10.546875,6.0498046875 8.3203125,8.712158203125 6.62109375,12.158203125 20.09765625,12.158203125 20.390625,8.7890625 20.10498046875,6.6064453125 19.248046875,5.0390625 17.8271484375,4.09423971176147 15.849609375,3.779296875z M16.259765625,0L20.159912109375,0.600587368011475 23.0126953125,2.40234375 24.7595195770264,5.36865377426147 25.341796875,9.462890625 25.1293926239014,12.44384765625 24.4921875,15.87890625 5.56640625,15.87890625 5.15625,19.98046875 5.496826171875,22.738037109375 6.5185546875,24.6826171875 8.294677734375,25.836181640625 10.8984375,26.220703125 13.348388671875,26.019287109375 15.6005859375,25.4150390625 17.786865234375,24.378662109375 20.0390625,22.880859375 21.9140625,25.869140625 19.04296875,27.886962890625 16.11328125,29.2529296875 13.04443359375,30.032958984375 9.755859375,30.29296875 5.58837890625,29.652099609375 2.51953125,27.7294921875 0.6298828125,24.605712890625 0,20.361328125 0.57861328125,14.864501953125 2.314453125,9.7998046875 4.947509765625,5.54443502426147 8.2177734375,2.4755859375 12.022705078125,0.618897914886475 16.259765625,0z" />
    </g>
  </g>
</svg>