<?xml version="1.0" encoding="utf-8"?>
<!DOCTYPE svg PUBLIC "-//W3C//DTD SVG 1.1//EN" "http://www.w3.org/Graphics/SVG/1.1/DTD/svg11.dtd">
<svg width="32.197265625" height="40.1953125" xmlns="http://www.w3.org/2000/svg" xmlns:xlink="http://www.w3.org/1999/xlink" xmlns:xml="http://www.w3.org/XML/1998/namespace" version="1.1">
  <g>
    <g>
      <path style="fill:#FF0000;fill-opacity:1" d="M15.703125,9.31640625L5.68359327316284,24.404296875 5.68359327316284,24.90234375 15.703125,24.90234375 15.703125,18.193359375 15.99609375,9.31640625 15.703125,9.31640625z M17.783203125,0L24.375,0 24.375,24.90234375 25.283203125,24.90234375 26.5063457489014,24.854736328125 27.3046875,24.7119140625 28.3154296875,23.994140625 28.7292461395264,23.26171875 29.12109375,22.119140625 32.197265625,22.119140625 31.845703125,28.59375 24.375,28.59375 24.375,32.958984375 24.4409160614014,34.830322265625 24.638671875,36.0498046875 25.4443359375,37.3828125 26.2390117645264,37.822265625 27.5390625,38.26171875 27.5390625,40.1953125 12.568359375,40.1953125 12.568359375,38.26171875 13.875732421875,37.825927734375 14.6923828125,37.3388671875 15.4833984375,35.9765625 15.648193359375,34.79736328125 15.703125,32.958984375 15.703125,28.59375 0,28.59375 0,25.4296875 17.783203125,0z" />
    </g>
  </g>
</svg>