<?xml version="1.0" encoding="utf-8"?>
<!DOCTYPE svg PUBLIC "-//W3C//DTD SVG 1.1//EN" "http://www.w3.org/Graphics/SVG/1.1/DTD/svg11.dtd">
<svg width="37.4121093750001" height="40.8984375" xmlns="http://www.w3.org/2000/svg" xmlns:xlink="http://www.w3.org/1999/xlink" xmlns:xml="http://www.w3.org/XML/1998/namespace" version="1.1">
  <g>
    <g>
      <path style="fill:#FF0000;fill-opacity:1" d="M27.83203125,0L30.81298828125,0.413818359375 33.251953125,1.6552734375 35.126953125,3.59619140625 36.416015625,6.1083984375 37.1630859375,9.08569431304932 37.412109375,12.421875 36.954345703125,17.34375 35.5810546875,22.44140625 33.34716796875,27.4072265625 30.3076171875,31.93359375 26.6235332489014,35.745849609375 22.4560546875,38.5693359375 17.962646484375,40.316162109375 13.30078125,40.8984375 9.29809474945068,40.45166015625 5.9619140625,39.111328125 3.33984327316284,36.97998046875 1.4794921875,34.16015625 0.369872868061066,30.75439453125 0,26.865234375 0.216979876160622,23.3212280273438 0.86791980266571,19.925537109375 1.95281982421875,16.6781616210938 3.4716796875,13.5791015625 5.42083740234375,10.6448373794556 7.796630859375,7.89184665679932 10.5990600585938,5.32012987136841 13.828125,2.9296875 16.083984375,5.595703125 12.828369140625,9.92981052398682 10.5029296875,15.0219745635986 9.107666015625,20.8721942901611 8.642578125,27.48046875 9.049072265625,31.53076171875 10.2685546875,34.482421875 12.271728515625,36.2841796875 15.029296875,36.884765625 17.87841796875,36.375732421875 20.5078125,34.8486328125 22.8552227020264,32.376708984375 24.8583984375,29.033203125 26.4624004364014,25.081787109375 27.6123046875,20.7861328125 28.3044414520264,16.4611835479736 28.53515625,12.421875 28.3081035614014,8.92822360992432 27.626953125,6.357421875 26.5283184051514,4.775390625 25.048828125,4.248046875 24.0307598114014,4.442138671875 23.14453125,5.0244140625 22.5292949676514,5.921630859375 22.32421875,7.060546875 22.6025390625,9.052734375 23.525390625,11.162109375 18.515625,13.18359375 17.4755859375,11.0595703125 17.05078125,8.935546875 17.431640625,6.7822265625 18.57421875,4.658203125 20.350341796875,2.757568359375 22.6318359375,1.2744140625 25.1989727020264,0.318603515625 27.83203125,0z" />
    </g>
  </g>
</svg>