<?xml version="1.0" encoding="utf-8"?>
<!DOCTYPE svg PUBLIC "-//W3C//DTD SVG 1.1//EN" "http://www.w3.org/Graphics/SVG/1.1/DTD/svg11.dtd">
<svg width="31.640625" height="41.103515625" xmlns="http://www.w3.org/2000/svg" xmlns:xlink="http://www.w3.org/1999/xlink" xmlns:xml="http://www.w3.org/XML/1998/namespace" version="1.1">
  <g>
    <g>
      <path style="fill:#FF0000;fill-opacity:1" d="M2.13867211341858,0L11.484375,0 12.2607421875,5.419921875 12.5390625,12.041015625 12.4658203125,15.4541015625 12.24609375,19.072265625 12.5390625,19.072265625 15.4833984375,14.53125 18.10546875,10.1220703125 20.6103515625,5.419921875 23.173828125,0 31.640625,0 29.945068359375,3.46801900863647 27.8466796875,7.0751953125 22.8369140625,14.501953125 17.1826171875,21.9287109375 11.42578125,29.00390625 10.9680166244507,32.142333984375 10.5322265625,34.8779296875 10.1257314682007,37.174072265625 9.755859375,38.994140625 9.287109375,41.103515625 0,41.103515625 1.5087890625,37.4267578125 2.68066382408142,34.306640625 3.55957102775574,31.4501953125 4.16015625,28.5791015625 4.49707126617432,25.4296875 4.599609375,21.73828125 4.3798828125,15.849609375 3.80859398841858,9.84375 3.01757836341858,4.365234375 2.13867211341858,0z" />
    </g>
  </g>
</svg>