<?xml version="1.0" encoding="utf-8"?>
<!DOCTYPE svg PUBLIC "-//W3C//DTD SVG 1.1//EN" "http://www.w3.org/Graphics/SVG/1.1/DTD/svg11.dtd">
<svg width="31.4355468750001" height="42.5390625" xmlns="http://www.w3.org/2000/svg" xmlns:xlink="http://www.w3.org/1999/xlink" xmlns:xml="http://www.w3.org/XML/1998/namespace" version="1.1">
  <g>
    <g>
      <path style="fill:#FF0000;fill-opacity:1" d="M16.2890625,17.841796875L12.850341796875,20.738525390625 10.2685546875,24.5068359375 8.653564453125,28.831787109375 8.115234375,33.3984375 8.37890625,36.082763671875 9.169921875,37.9833984375 10.5102529525757,39.114990234375 12.421875,39.4921875 14.241943359375,39.1259765625 15.9521484375,38.02734375 17.43896484375,36.258544921875 18.5888671875,33.8818359375 19.324951171875,31.029052734375 19.5703125,27.83203125 19.361572265625,24.884033203125 18.7353515625,22.1923828125 17.706298828125,19.822998046875 16.2890625,17.841796875z M18.837890625,0L21.9323711395264,0.2435302734375 25.0634746551514,0.97412109375 28.2311992645264,2.1917724609375 31.435546875,3.896484375 30.146484375,9.375 26.162109375,9.375 24.8144512176514,6.588134765625 23.173828125,4.6142578125 21.2548809051514,3.438720703125 19.072265625,3.046875 16.7431640625,3.75 16.094970703125,4.59228515625 15.87890625,5.712890625 16.318359375,7.6904296875 17.7685546875,9.9462890625 19.163818359375,11.5832538604736 21.328125,13.9453125 23.4484844207764,16.3476581573486 25.0634765625,18.45703125 27.1728515625,22.6611328125 27.919921875,27.568359375 27.3999004364014,31.622314453125 25.83984375,35.2880859375 23.3569316864014,38.3642578125 20.068359375,40.6494140625 16.16455078125,42.066650390625 11.8359375,42.5390625 8.44482421875,42.22412109375 5.537109375,41.279296875 3.17871069908142,39.730224609375 1.43554663658142,37.6025390625 0.358886510133743,34.962158203125 0,31.875 0.223388537764549,29.3527221679688 0.893554449081421,26.912841796875 2.01049780845642,24.5553588867188 3.57421851158142,22.2802734375 7.87353515625,18.2629413604736 13.623046875,15.146484375 11.6601552963257,12.8393573760986 10.341796875,10.8984375 9.59472560882568,9.01611328125 9.345703125,6.884765625 9.64233303070068,4.998779296875 10.5322265625,3.3251953125 11.9641103744507,1.929931640625 13.88671875,0.87890625 16.20849609375,0.2197265625 18.837890625,0z" />
    </g>
  </g>
</svg>