<?xml version="1.0" encoding="utf-8"?>
<!DOCTYPE svg PUBLIC "-//W3C//DTD SVG 1.1//EN" "http://www.w3.org/Graphics/SVG/1.1/DTD/svg11.dtd">
<svg width="41.279296875" height="40.1953125" xmlns="http://www.w3.org/2000/svg" xmlns:xlink="http://www.w3.org/1999/xlink" xmlns:xml="http://www.w3.org/XML/1998/namespace" version="1.1">
  <g>
    <g>
      <path style="fill:#FF0000;fill-opacity:1" d="M17.666015625,7.880859375L11.865234375,24.375 22.412109375,24.375 17.666015625,7.880859375z M19.5703125,2.783203125L29.58984375,37.6171875 34.951171875,37.6171875 24.931640625,2.783203125 19.5703125,2.783203125z M17.138671875,0L27.333984375,0 37.03125,33.369140625 37.646484375,35.23681640625 38.203125,36.50390625 39.43359375,37.9833984375 41.279296875,38.759765625 41.279296875,40.1953125 21.708984375,40.1953125 21.708984375,38.759765625 24.08203125,37.79296875 24.7192363739014,36.8701171875 24.931640625,35.68359375 24.7119140625,33.45703125 24.052734375,30.673828125 23.26171875,27.802734375 10.751953125,27.802734375 9.78515625,30.5859375 9.08203125,33.1787109375 8.84765625,35.390625 9.0673828125,36.712646484375 9.7265625,37.7490234375 10.78125,38.448486328125 12.1875,38.759765625 12.1875,40.1953125 0,40.1953125 0,38.759765625 1.43371570110321,38.1280517578125 2.77587866783142,36.81884765625 4.0264892578125,34.8321533203125 5.185546875,32.16796875 17.138671875,0z" />
    </g>
  </g>
</svg>