<?xml version="1.0" encoding="utf-8"?>
<!DOCTYPE svg PUBLIC "-//W3C//DTD SVG 1.1//EN" "http://www.w3.org/Graphics/SVG/1.1/DTD/svg11.dtd">
<svg width="28.1542968750001" height="30" xmlns="http://www.w3.org/2000/svg" xmlns:xlink="http://www.w3.org/1999/xlink" xmlns:xml="http://www.w3.org/XML/1998/namespace" version="1.1">
  <g>
    <g>
      <path style="fill:#FF0000;fill-opacity:1" d="M16.552734375,3.046875L14.256591796875,3.64380025863647 12.2900390625,5.4345703125 10.6127920150757,8.47412109375 9.1845703125,12.8173828125 8.206787109375,17.479248046875 7.880859375,21.474609375 8.104248046875,23.880615234375 8.7744140625,25.5908203125 9.92797756195068,26.612548828125 11.6015625,26.953125 13.927001953125,26.348876953125 15.9228515625,24.5361328125 17.603759765625,21.500244140625 18.984375,17.2265625 19.9072265625,12.65625 20.21484375,8.73046875 19.991455078125,6.18896484375 19.3212890625,4.423828125 18.182373046875,3.39111471176147 16.552734375,3.046875z M17.2265625,0L20.5664043426514,0.333253383636475 23.3203125,1.3330078125 25.4626445770264,2.92602682113647 26.9677734375,5.0390625 27.8576641082764,7.6025390625 28.154296875,10.546875 27.8320293426514,14.42138671875 26.865234375,18.310546875 25.3308086395264,21.89208984375 23.3056640625,24.84375 20.8264141082764,27.13623046875 17.9296875,28.740234375 14.619140625,29.68505859375 10.8984375,30 7.869873046875,29.710693359375 5.2294921875,28.8427734375 3.04687452316284,27.38525390625 1.3916015625,25.3271484375 0.347900211811066,22.708740234375 0,19.5703125 0.270995914936066,16.029052734375 1.083984375,12.3193359375 2.46826171875,8.75244140625 4.453125,5.6396484375 6.976318359375,3.13110494613647 9.9755859375,1.376953125 13.406982421875,0.344239711761475 17.2265625,0z" />
    </g>
  </g>
</svg>