<?xml version="1.0" encoding="utf-8"?>
<!DOCTYPE svg PUBLIC "-//W3C//DTD SVG 1.1//EN" "http://www.w3.org/Graphics/SVG/1.1/DTD/svg11.dtd">
<svg width="33.837890625" height="42.392578125" xmlns="http://www.w3.org/2000/svg" xmlns:xlink="http://www.w3.org/1999/xlink" xmlns:xml="http://www.w3.org/XML/1998/namespace" version="1.1">
  <g>
    <g>
      <path style="fill:#FF0000;fill-opacity:1" d="M21.416015625,6.03515625L18.92578125,6.4453125 16.8603515625,8.0126953125 15.9521484375,9.393310546875 15.1318359375,11.220703125 14.3737783432007,13.5791015625 13.65234375,16.552734375 13.154296875,18.896484375 12.9052734375,20.09765625 12.7587890625,20.91796875 12.7001953125,21.4599609375 12.685546875,21.826171875 13.095703125,23.5107421875 14.0771484375,24.3896484375 15.263671875,24.7265625 16.2890625,24.78515625 19.306640625,24.052734375 21.62109375,22.1484375 23.3203125,19.4970703125 24.462890625,16.5087890625 25.0927734375,13.623046875 25.283203125,11.25 24.9169921875,8.7451171875 23.9794921875,7.1337890625 22.7197265625,6.2841796875 21.416015625,6.03515625z M22.1484375,0L27.2351055145264,0.695802211761475 30.8935546875,2.783203125 33.101806640625,6.14502096176147 33.837890625,10.6640625 33.5595703125,14.586181640625 32.724609375,18.2666015625 31.376953125,21.6064453125 29.560546875,24.5068359375 27.2936992645264,26.905517578125 24.5947265625,28.740234375 21.507568359375,29.90478515625 18.076171875,30.29296875 15.765380859375,30.230712890625 13.8720703125,30.0439453125 10.927734375,29.35546875 8.14453125,42.392578125 0,42.392578125 5.50781202316284,16.552734375 6.54418897628784,12.6434326171875 7.8662109375,9.26513671875 9.473876953125,6.4178466796875 11.3671875,4.1015625 13.568115234375,2.30712985992432 16.0986328125,1.02539205551147 18.958740234375,0.256348729133606 22.1484375,0z" />
    </g>
  </g>
</svg>