<?xml version="1.0" encoding="utf-8"?>
<!DOCTYPE svg PUBLIC "-//W3C//DTD SVG 1.1//EN" "http://www.w3.org/Graphics/SVG/1.1/DTD/svg11.dtd">
<svg width="13.65234375" height="42.12890625" xmlns="http://www.w3.org/2000/svg" xmlns:xlink="http://www.w3.org/1999/xlink" xmlns:xml="http://www.w3.org/XML/1998/namespace" version="1.1">
  <g>
    <g>
      <path style="fill:#FF0000;fill-opacity:1" d="M13.359375,0L13.359375,2.109375 11.7187490463257,2.537841796875 10.48828125,3.4716796875 9.61669921875,4.921875 9.052734375,6.8994140625 8.7451171875,9.59106540679932 8.642578125,13.18359375 8.642578125,32.8125 9.140625,35.2880859375 10.2685546875,36.7236328125 11.42578125,37.1484375 12.4804677963257,36.9580078125 13.65234375,36.38671875 13.65234375,38.4375 10.3857421875,40.576171875 8.26171875,42.12890625 6.73278760910034,40.5853271484375 5.07568264007568,39.47021484375 3.29040479660034,38.7835693359375 1.376953125,38.525390625 1.376953125,37.119140625 2.57812476158142,36.708984375 3.36914038658142,35.830078125 3.80859351158142,34.27734375 3.95507788658142,31.845703125 3.95507788658142,12.1875 3.73901343345642,9.21753025054932 3.09082007408142,6.9873046875 1.88598608970642,5.372314453125 0,4.248046875 0,2.34375 3.63281226158142,3.017578125 5.947265625,2.63671875 8.466796875,1.552734375 11.103515625,0.4248046875 13.359375,0z" />
    </g>
  </g>
</svg>