<?xml version="1.0" encoding="utf-8"?>
<!DOCTYPE svg PUBLIC "-//W3C//DTD SVG 1.1//EN" "http://www.w3.org/Graphics/SVG/1.1/DTD/svg11.dtd">
<svg width="30.1171875" height="41.923828125" xmlns="http://www.w3.org/2000/svg" xmlns:xlink="http://www.w3.org/1999/xlink" xmlns:xml="http://www.w3.org/XML/1998/namespace" version="1.1">
  <g>
    <g>
      <path style="fill:#FF0000;fill-opacity:1" d="M10.25390625,0L11.8725576400757,0.963136196136475 13.037109375,2.0361328125 13.8061513900757,3.38745260238647 14.23828125,5.185546875 18.02490234375,3.25927877426147 22.705078125,0.1171875 24.6350078582764,1.26709127426147 26.0302734375,2.314453125 27.890625,4.4384765625 29.12109375,7.177734375 29.5568828582764,9.0234375 29.8681640625,11.337890625 30.0549297332764,14.23095703125 30.1171875,17.8125 29.8937969207764,21.591796875 29.2236328125,25.01953125 28.1249980926514,28.135986328125 26.6162109375,30.9814453125 24.5874004364014,33.66943359375 21.9287109375,36.3134765625 18.343505859375,39.027099609375 13.53515625,41.923828125 12.041015625,39.9609375 15.5859375,37.100830078125 18.193359375,34.2626953125 20.03173828125,31.26708984375 21.26953125,27.9345703125 21.97265625,24.078369140625 22.20703125,19.51171875 22.20703125,16.259765625 21.910400390625,12.275390625 21.0205078125,9.287109375 19.581298828125,7.41943359375 17.63671875,6.796875 16.2451171875,7.17041015625 14.23828125,8.291015625 14.23828125,21.6796875 14.6923828125,23.525390625 16.142578125,24.19921875 17.6953125,23.7890625 18.603515625,25.8984375 14.2236328125,28.6376953125 12.1691884994507,30.062255859375 10.78125,31.142578125 7.265625,28.42529296875 3.51562547683716,26.953125 3.51562547683716,24.990234375 4.837646484375,24.554443359375 5.69824171066284,23.6572265625 6.17065382003784,22.181396484375 6.328125,20.009765625 6.328125,11.572265625 6.18164014816284,9.788818359375 5.7421875,8.4228515625 5.03173828125,7.554931640625 4.072265625,7.265625 2.79052710533142,7.59521484375 0.937499821186066,8.583984375 0,6.240234375 2.003173828125,5.26794528961182 4.3798828125,3.90381002426147 7.130126953125,2.14782810211182 10.25390625,0z" />
    </g>
  </g>
</svg>