<?xml version="1.0" encoding="utf-8"?>
<!DOCTYPE svg PUBLIC "-//W3C//DTD SVG 1.1//EN" "http://www.w3.org/Graphics/SVG/1.1/DTD/svg11.dtd">
<svg width="34.482421875" height="39.990234375" xmlns="http://www.w3.org/2000/svg" xmlns:xlink="http://www.w3.org/1999/xlink" xmlns:xml="http://www.w3.org/XML/1998/namespace" version="1.1">
  <g>
    <g>
      <path style="fill:#FF0000;fill-opacity:1" d="M0,0L34.482421875,0 34.482421875,10.283203125 30.46875,10.283203125 29.893798828125,8.31665134429932 29.3994140625,6.8701171875 28.271484375,4.9072265625 26.7041015625,3.779296875 25.5578594207764,3.515625 23.90625,3.427734375 21.796875,3.427734375 21.796875,32.63671875 21.8554668426514,34.573974609375 22.03125,35.8154296875 22.9541015625,37.2509765625 23.8952617645264,37.723388671875 25.341796875,38.056640625 25.341796875,39.990234375 9.169921875,39.990234375 9.169921875,38.056640625 11.1181640625,37.5146484375 12.1875,36.5625 12.626953125,34.9951171875 12.71484375,32.63671875 12.71484375,3.427734375 10.341796875,3.427734375 7.5,3.896484375 6.51123046875,4.573974609375 5.654296875,5.6689453125 4.8486328125,7.47436618804932 4.013671875,10.283203125 0,10.283203125 0,0z" />
    </g>
  </g>
</svg>