<?xml version="1.0" encoding="utf-8"?>
<!DOCTYPE svg PUBLIC "-//W3C//DTD SVG 1.1//EN" "http://www.w3.org/Graphics/SVG/1.1/DTD/svg11.dtd">
<svg width="37.3828125" height="48.779296875" xmlns="http://www.w3.org/2000/svg" xmlns:xlink="http://www.w3.org/1999/xlink" xmlns:xml="http://www.w3.org/XML/1998/namespace" version="1.1">
  <g>
    <g>
      <path style="fill:#FF0000;fill-opacity:1" d="M29.47265625,0L36.181640625,0 37.3828125,2.138671875 36.240234375,5.7568359375 35.2734375,9.873046875 30.263671875,32.900390625 29.2199687957764,36.533203125 27.7880859375,39.638671875 25.8947734832764,42.29736328125 23.466796875,44.58984375 20.709228515625,46.431884765625 17.8271484375,47.7392578125 14.886474609375,48.519287109375 11.953125,48.779296875 9.151611328125,48.5888671875 6.72363328933716,48.017578125 2.98828148841858,45.9814453125 0.747069954872131,43.095703125 0,39.78515625 0.307617098093033,37.137451171875 1.23046863079071,34.7607421875 2.7099609375,32.60009765625 4.6875,30.6005859375 7.33154296875,28.560791015625 10.810546875,26.279296875 12.94921875,29.150390625 10.869140625,30.911865234375 9.31640625,32.5048828125 7.470703125,35.4931640625 6.9140625,38.7890625 7.6318359375,41.9091796875 9.7265625,44.1796875 11.220703125,44.794921875 12.94921875,45 15.84228515625,44.42138671875 18.076171875,42.685546875 19.775390625,39.7412109375 21.064453125,35.537109375 25.517578125,15.498046875 26.4587383270264,11.7919940948486 27.4658203125,8.818359375 30.029296875,4.306640625 29.853515625,3.984375 28.505859375,3.984375 24.9609355926514,4.07958984375 22.294921875,4.365234375 20.364990234375,4.87060546875 19.0283203125,5.625 18.248291015625,6.7529296875 17.98828125,8.37890625 18.34716796875,10.3491230010986 19.423828125,12.451171875 12.5390625,15.29296875 11.3671875,12.744140625 11.044921875,10.751953125 11.630859375,8.466796875 13.740234375,5.478515625 17.080078125,2.87109375 20.361328125,1.142578125 24.228515625,0.205078125 26.4624004364014,0.05126953125 29.47265625,0z" />
    </g>
  </g>
</svg>