<?xml version="1.0" encoding="utf-8"?>
<!DOCTYPE svg PUBLIC "-//W3C//DTD SVG 1.1//EN" "http://www.w3.org/Graphics/SVG/1.1/DTD/svg11.dtd">
<svg width="32.87109375" height="40.72265625" xmlns="http://www.w3.org/2000/svg" xmlns:xlink="http://www.w3.org/1999/xlink" xmlns:xml="http://www.w3.org/XML/1998/namespace" version="1.1">
  <g>
    <g>
      <path style="fill:#FF0000;fill-opacity:1" d="M0,0L10.927734375,0 10.927734375,3.1640625 7.44140625,3.1640625 7.44140625,26.8359375 7.613525390625,29.39208984375 8.1298828125,31.552734375 10.01953125,34.775390625 12.8466796875,36.62109375 16.376953125,37.20703125 20.1123046875,36.62109375 22.998046875,34.775390625 24.84375,31.552734375 25.3271465301514,29.39208984375 25.48828125,26.8359375 25.48828125,3.1640625 22.001953125,3.1640625 22.001953125,0 32.87109375,0 32.87109375,3.1640625 29.267578125,3.1640625 29.267578125,26.865234375 29.0441875457764,30.0146484375 28.3740234375,32.783203125 27.2863750457764,35.159912109375 25.810546875,37.1337890625 23.9575176239014,38.690185546875 21.73828125,39.814453125 19.1748046875,40.49560546875 16.2890625,40.72265625 13.623046875,40.513916015625 11.19140625,39.8876953125 9.03076171875,38.836669921875 7.177734375,37.353515625 5.66894435882568,35.44189453125 4.541015625,33.10546875 3.83789038658142,30.3369140625 3.60351538658142,27.12890625 3.60351538658142,3.1640625 0,3.1640625 0,0z" />
    </g>
  </g>
</svg>