<?xml version="1.0" encoding="utf-8"?>
<!DOCTYPE svg PUBLIC "-//W3C//DTD SVG 1.1//EN" "http://www.w3.org/Graphics/SVG/1.1/DTD/svg11.dtd">
<svg width="28.2421875" height="42.392578125" xmlns="http://www.w3.org/2000/svg" xmlns:xlink="http://www.w3.org/1999/xlink" xmlns:xml="http://www.w3.org/XML/1998/namespace" version="1.1">
  <g>
    <g>
      <path style="fill:#FF0000;fill-opacity:1" d="M13.7109375,6.03515625L11.6748046875,6.4306640625 9.8876953125,7.587890625 8.701171875,9.111328125 8.2470703125,10.810546875 8.17016506195068,12.12158203125 8.14453125,14.1796875 8.14453125,18.75 8.21044826507568,20.386962890625 8.408203125,21.6064453125 9.43359375,23.3642578125 11.220703125,24.4482421875 13.681640625,24.78515625 16.285400390625,24.19189453125 18.1787109375,22.412109375 19.3322734832764,19.46044921875 19.716796875,15.3515625 19.3286113739014,11.348876953125 18.1640625,8.4228515625 16.2744140625,6.632080078125 13.7109375,6.03515625z M17.16796875,0L19.7277812957764,0.233460545539856 21.9580059051514,0.933839321136475 23.8586406707764,2.10113620758057 25.4296875,3.7353515625 26.66015625,5.81634521484375 27.5390625,8.323974609375 28.06640625,11.2582397460938 28.2421875,14.619140625 28.040771484375,18.109130859375 27.4365234375,21.1962890625 26.3525371551514,23.902587890625 24.7119140625,26.25 22.6025371551514,28.1103515625 20.1123046875,29.35546875 17.142333984375,30.05859375 13.59375,30.29296875 8.14453125,29.58984375 8.14453125,42.392578125 0,42.392578125 0,0.46875 4.98046875,0.263671875 7.880859375,0.263671875 7.880859375,2.9296875 8.14453125,2.9296875 10.5285634994507,1.57470846176147 12.7587890625,0.673828125 17.16796875,0z" />
    </g>
  </g>
</svg>