<?xml version="1.0" encoding="utf-8"?>
<!DOCTYPE svg PUBLIC "-//W3C//DTD SVG 1.1//EN" "http://www.w3.org/Graphics/SVG/1.1/DTD/svg11.dtd">
<svg width="27.392578125" height="29.82421875" xmlns="http://www.w3.org/2000/svg" xmlns:xlink="http://www.w3.org/1999/xlink" xmlns:xml="http://www.w3.org/XML/1998/namespace" version="1.1">
  <g>
    <g>
      <path style="fill:#FF0000;fill-opacity:1" d="M19.130859375,0L22.0165996551514,0.314942836761475 24.287109375,1.259765625 26.0449199676514,2.91504049301147 27.392578125,5.361328125 23.7890625,7.265625 22.7490234375,5.390625 21.62109375,4.16015625 20.185546875,3.486328125 18.22265625,3.28125 14.9853515625,3.9697265625 12.3193359375,5.7861328125 10.37109375,8.349609375 9.2578125,11.30859375 9.2578125,26.66015625 17.255859375,26.66015625 17.255859375,29.82421875 0.05859375,29.82421875 0.05859375,26.66015625 5.2734375,26.66015625 5.2734375,3.3984375 0,3.3984375 0,0.234375 9.228515625,0.234375 9.228515625,5.830078125 9.375,5.830078125 11.07421875,3.4423828125 13.330078125,1.5966796875 16.0546875,0.41015625 19.130859375,0z" />
    </g>
  </g>
</svg>