<?xml version="1.0" encoding="utf-8"?>
<!DOCTYPE svg PUBLIC "-//W3C//DTD SVG 1.1//EN" "http://www.w3.org/Graphics/SVG/1.1/DTD/svg11.dtd">
<svg width="37.3828125" height="51.38671875" xmlns="http://www.w3.org/2000/svg" xmlns:xlink="http://www.w3.org/1999/xlink" xmlns:xml="http://www.w3.org/XML/1998/namespace" version="1.1">
  <g>
    <g>
      <path style="fill:#FF0000;fill-opacity:1" d="M11.865234375,0L16.5087890625,0.5859375 20.947265625,2.109375 23.5876445770264,3.22265625 25.4150390625,3.8671875 28.0078125,4.27734375 29.586181640625,4.061279296875 30.7470703125,3.4130859375 31.541748046875,2.266845703125 32.021484375,0.556640625 34.541015625,0.556640625 34.16748046875,3.78662109375 33.10546875,6.5625 31.4501953125,8.79638767242432 29.296875,10.400390625 26.7480449676514,11.3671894073486 23.90625,11.689453125 22.236328125,11.572265625 21.64306640625,13.5205097198486 21.4453125,15.498046875 21.9580078125,18.251953125 23.4375,21.240234375 24.6972637176514,23.09326171875 26.54296875,25.546875 26.7004375457764,22.4560546875 27.1728515625,19.98046875 28.0151348114014,18.065185546875 29.2822265625,16.6552734375 31.021728515625,15.7873554229736 33.28125,15.498046875 35.44921875,15.849609375 37.3828125,16.787109375 34.62890625,24.55078125 33.5009765625,24.0087890625 32.138671875,23.818359375 30.8203125,24.144287109375 29.794921875,25.1220703125 29.1357402801514,26.693115234375 28.916015625,28.798828125 29.703369140625,30.322265625 30.1904296875,31.376953125 30.791015625,33.1640625 31.2158203125,35.302734375 31.376953125,38.056640625 30.8203125,41.4990234375 29.2822265625,44.7216796875 27.0556640625,47.40234375 24.287109375,49.4384765625 20.888671875,50.830078125 16.552734375,51.38671875 12.4182119369507,50.980224609375 8.7451171875,49.7607421875 5.687255859375,47.80517578125 3.39843773841858,45.1904296875 1.97021496295929,42.095947265625 1.494140625,38.701171875 2.15332055091858,34.7607421875 3.92578148841858,31.435546875 5.2001953125,29.5751953125 5.91796875,28.330078125 6.357421875,26.42578125 6.1376953125,25.294189453125 5.478515625,24.4775390625 4.32861328125,23.975830078125 2.63671946525574,23.7890625 2.63671946525574,20.9765625 5.830078125,21.221923828125 8.5546875,21.9580078125 10.7409658432007,23.1884765625 12.3193359375,24.9169921875 13.2751455307007,27.125244140625 13.59375,29.794921875 13.0517578125,32.9150390625 11.513671875,36.005859375 9.9755859375,38.994140625 9.43359375,41.89453125 9.90234375,44.55322265625 11.30859375,46.669921875 13.54248046875,48.05419921875 16.494140625,48.515625 19.25537109375,48.03955078125 21.38671875,46.611328125 22.7490215301514,44.37744140625 23.203125,41.484375 22.9577617645264,39.400634765625 22.2216796875,37.1923828125 20.972900390625,34.661865234375 19.189453125,31.611328125 17.34375,28.4326171875 15.791015625,24.931640625 15.146484375,21.26953125 15.406494140625,18.3654804229736 16.1865234375,15.6591815948486 17.486572265625,13.1506357192993 19.306640625,10.83984375 16.58203125,9.84375 13.98193359375,8.8330078125 11.923828125,8.14453125 8.525390625,7.6171875 6.756591796875,7.847900390625 5.4345703125,8.5400390625 4.610595703125,9.66430854797363 4.3359375,11.19140625 4.57763671875,12.5866718292236 5.302734375,13.6669921875 6.51123046875,14.3591327667236 8.203125,14.58984375 11.337890625,13.916015625 11.337890625,16.904296875 9.638671875,17.4755859375 7.646484375,17.724609375 4.493408203125,17.193603515625 2.06542944908142,15.6005859375 0.51635754108429,13.1066913604736 0,9.873046875 0.410156488418579,7.09716796875 1.64062547683716,4.6875 3.59985375404358,2.7099609375 6.1962890625,1.23046875 9.071044921875,0.3076171875 11.865234375,0z" />
    </g>
  </g>
</svg>