<?xml version="1.0" encoding="utf-8"?>
<!DOCTYPE svg PUBLIC "-//W3C//DTD SVG 1.1//EN" "http://www.w3.org/Graphics/SVG/1.1/DTD/svg11.dtd">
<svg width="25.927734375" height="30.29296875" xmlns="http://www.w3.org/2000/svg" xmlns:xlink="http://www.w3.org/1999/xlink" xmlns:xml="http://www.w3.org/XML/1998/namespace" version="1.1">
  <g>
    <g>
      <path style="fill:#FF0000;fill-opacity:1" d="M16.58203125,0L21.3134765625,0.205078125 25.927734375,0.99609375 23.994140625,6.796875 20.2294921875,5.91796875 17.080078125,5.625 15.1208486557007,5.81543111801147 13.7548828125,6.38671875 12.9528799057007,7.32421875 12.685546875,8.61328125 12.9199209213257,9.67529296875 13.623046875,10.576171875 14.9047842025757,11.4697265625 16.875,12.509765625 19.793701171875,14.1650390625 21.7529296875,15.908203125 22.862548828125,17.9150390625 23.232421875,20.361328125 22.88818359375,23.03466796875 21.85546875,25.4296875 20.123291015625,27.447509765625 17.6806640625,28.9892578125 14.6008291244507,29.967041015625 10.95703125,30.29296875 5.4931640625,29.8681640625 0,28.59375 1.728515625,22.91015625 4.346923828125,23.734130859375 6.5771484375,24.2724609375 10.458984375,24.66796875 12.3559560775757,24.43359375 13.76953125,23.73046875 14.6484365463257,22.6171875 14.94140625,21.15234375 14.619140625,19.8486328125 13.65234375,18.779296875 12.7587881088257,18.21533203125 11.3671875,17.51953125 8.206787109375,15.7763671875 6.1083984375,13.9453125 4.932861328125,11.8505859375 4.541015625,9.31640625 4.89990234375,6.767578125 5.9765625,4.51171875 7.738037109375,2.62939596176147 10.1513671875,1.201171875 13.1286611557007,0.300294399261475 16.58203125,0z" />
    </g>
  </g>
</svg>