<?xml version="1.0" encoding="utf-8"?>
<!DOCTYPE svg PUBLIC "-//W3C//DTD SVG 1.1//EN" "http://www.w3.org/Graphics/SVG/1.1/DTD/svg11.dtd">
<svg width="26.630859375" height="40.13671875" xmlns="http://www.w3.org/2000/svg" xmlns:xlink="http://www.w3.org/1999/xlink" xmlns:xml="http://www.w3.org/XML/1998/namespace" version="1.1">
  <g>
    <g>
      <path style="fill:#FF0000;fill-opacity:1" d="M16.201171875,5.56640625L13.7841796875,6.1083984375 12.1179189682007,6.851806640625 10.01953125,7.998046875 10.01953125,22.5 13.70361328125,23.84033203125 17.490234375,25.869140625 18.8671875,24.832763671875 19.833984375,23.8330078125 21.0205078125,21.4892578125 21.6064453125,18.4716796875 21.767578125,14.94140625 21.42333984375,10.858154296875 20.390625,7.9248046875 18.65478515625,6.156005859375 16.201171875,5.56640625z M19.130859375,0L22.4670391082764,2.17529439926147 24.7998046875,5.009765625 26.1730937957764,8.63525390625 26.630859375,13.18359375 26.3818359375,16.962890625 25.7080078125,19.9072265625 24.638671875,22.236328125 23.0712890625,24.287109375 21.903076171875,25.4150390625 20.244140625,26.806640625 18.10546875,28.58642578125 16.611328125,30 13.5571279525757,28.07373046875 10.01953125,26.337890625 9.7705078125,30.8056640625 9.2724609375,34.6435546875 8.851318359375,36.932373046875 8.203125,40.13671875 6.73828172683716,40.13671875 6.31713819503784,37.108154296875 5.9326171875,33.4130859375 5.44921875,25.634765625 2.90771484375,25.95703125 0.673828125,26.923828125 0,25.810546875 2.32910132408142,23.9501953125 5.44921875,22.44140625 5.44921875,8.90625 5.28442335128784,7.203369140625 4.79003858566284,5.9619140625 3.980712890625,5.20385885238647 2.87109375,4.951171875 1.6259765625,5.16357564926147 0.234374761581421,5.80078125 0.234374761581421,3.720703125 3.55224609375,1.98486471176147 6.416015625,0.234375 7.59521484375,1.29638814926147 8.3203125,2.021484375 9.2431640625,3.3544921875 10.048828125,5.478515625 14.8095703125,2.9443359375 19.130859375,0z" />
    </g>
  </g>
</svg>