<?xml version="1.0" encoding="utf-8"?>
<!DOCTYPE svg PUBLIC "-//W3C//DTD SVG 1.1//EN" "http://www.w3.org/Graphics/SVG/1.1/DTD/svg11.dtd">
<svg width="31.40625" height="39.990234375" xmlns="http://www.w3.org/2000/svg" xmlns:xlink="http://www.w3.org/1999/xlink" xmlns:xml="http://www.w3.org/XML/1998/namespace" version="1.1">
  <g>
    <g>
      <path style="fill:#FF0000;fill-opacity:1" d="M6.6796875,2.578125L6.6796875,37.412109375 11.6015625,37.412109375 11.6015625,2.578125 6.6796875,2.578125z M0,0L31.0546875,0 31.0546875,9.31640625 28.271484375,9.31640625 27.3815898895264,6.676025390625 26.5869140625,5.0244140625 24.7265625,3.427734375 21.826171875,2.98828125 14.853515625,2.98828125 14.853515625,17.63671875 18.984375,17.63671875 21.0791015625,17.255859375 22.2802734375,15.99609375 22.7233867645264,14.8754901885986 23.14453125,13.271484375 25.60546875,13.271484375 25.60546875,25.166015625 23.14453125,25.166015625 22.7160625457764,23.583984375 22.2509765625,22.412109375 21.0498046875,21.0498046875 18.984375,20.654296875 14.853515625,20.654296875 14.853515625,37.001953125 21.6796875,37.001953125 23.4887676239014,36.826171875 24.873046875,36.298828125 25.9570293426514,35.36865234375 26.865234375,33.984375 27.6708965301514,32.0068359375 28.447265625,29.296875 31.40625,29.296875 30.849609375,39.990234375 0,39.990234375 0,38.5546875 1.94824242591858,37.8662109375 2.85644555091858,37.0166015625 3.29589867591858,35.6103515625 3.394775390625,34.427490234375 3.42773461341858,32.666015625 3.42773461341858,7.32421875 3.365478515625,5.17822265625 3.17871117591858,3.837890625 2.35839867591858,2.40234375 1.48315453529358,1.91162109375 0,1.435546875 0,0z" />
    </g>
  </g>
</svg>