<?xml version="1.0" encoding="utf-8"?>
<!DOCTYPE svg PUBLIC "-//W3C//DTD SVG 1.1//EN" "http://www.w3.org/Graphics/SVG/1.1/DTD/svg11.dtd">
<svg width="42.333984375" height="39.990234375" xmlns="http://www.w3.org/2000/svg" xmlns:xlink="http://www.w3.org/1999/xlink" xmlns:xml="http://www.w3.org/XML/1998/namespace" version="1.1">
  <g>
    <g>
      <path style="fill:#FF0000;fill-opacity:1" d="M23.525390625,17.109375L20.33203125,20.33203125 29.8828125,37.412109375 35.2734375,37.412109375 25.546875,20.361328125 24.3969707489014,18.43505859375 23.701171875,17.34375 23.5986328125,17.16796875 23.525390625,17.109375z M6.6796875,2.578125L6.6796875,37.412109375 11.6015625,37.412109375 11.6015625,2.578125 6.6796875,2.578125z M0,0L18.28125,0 18.28125,1.435546875 16.951904296875,1.83837890625 16.0693359375,2.28515625 15.1318359375,3.7353515625 14.923095703125,5.123291015625 14.853515625,7.32421875 14.853515625,17.783203125 15.849609375,17.783203125 18.2666015625,17.40234375 20.2587890625,16.142578125 22.294921875,14.091796875 24.4665508270264,11.5246601104736 26.2353515625,9.2724609375 27.5500469207764,7.357177734375 28.359375,5.80078125 28.798828125,3.662109375 28.597412109375,2.6806640625 27.9931640625,2.021484375 25.693359375,1.435546875 25.693359375,0 40.37109375,0 40.37109375,1.494140625 38.79638671875,1.9921875 37.353515625,2.900390625 35.80078125,4.3359375 33.896484375,6.416015625 26.455078125,15 37.03125,32.98828125 38.6572265625,35.625 39.90234375,37.236328125 40.95703125,38.056640625 42.333984375,38.5546875 42.333984375,39.990234375 23.0859375,39.990234375 23.0859375,38.525390625 24.521484375,37.9541015625 25.01953125,36.9140625 24.697265625,35.2880859375 24.1186504364014,34.061279296875 23.02734375,31.9921875 19.423828125,25.3125 18.446044921875,23.57666015625 17.7392578125,22.470703125 16.69921875,21.416015625 15.556640625,21.15234375 14.853515625,21.15234375 14.853515625,32.666015625 14.908447265625,34.698486328125 15.0732421875,36.0498046875 15.9521484375,37.587890625 16.864013671875,38.09326171875 18.28125,38.5546875 18.28125,39.990234375 0,39.990234375 0,38.5546875 1.51611328125,38.060302734375 2.431640625,37.5146484375 3.2373046875,35.888671875 3.38012647628784,34.5556640625 3.427734375,32.666015625 3.427734375,7.32421875 3.39111280441284,5.577392578125 3.28124952316284,4.3798828125 2.79785108566284,2.9443359375 1.904296875,2.1240234375 1.14990234375,1.798095703125 0,1.435546875 0,0z" />
    </g>
  </g>
</svg>