<?xml version="1.0" encoding="utf-8"?>
<!DOCTYPE svg PUBLIC "-//W3C//DTD SVG 1.1//EN" "http://www.w3.org/Graphics/SVG/1.1/DTD/svg11.dtd">
<svg width="38.61328125" height="39.990234375" xmlns="http://www.w3.org/2000/svg" xmlns:xlink="http://www.w3.org/1999/xlink" xmlns:xml="http://www.w3.org/XML/1998/namespace" version="1.1">
  <g>
    <g>
      <path style="fill:#FF0000;fill-opacity:1" d="M16.025390625,5.888671875L9.84375,34.1015625 12.861328125,34.1015625 17.083740234375,33.7939453125 20.4345703125,32.87109375 23.1628398895264,31.307373046875 25.517578125,29.0771484375 27.4328594207764,26.2646484375 28.8427734375,22.9541015625 29.7106914520264,19.361572265625 30,15.703125 29.6960430145264,12.3010272979736 28.7841796875,9.7705078125 27.3669414520264,7.97607517242432 25.546875,6.7822265625 23.0566387176514,6.112060546875 19.62890625,5.888671875 16.025390625,5.888671875z M8.7890625,0L19.306640625,0 22.8149394989014,0.076904296875 25.6640625,0.3076171875 27.9895000457764,0.69580078125 29.9267578125,1.2451171875 33.251953125,3.0029296875 36.03515625,5.771484375 37.9248046875,9.6533203125 38.61328125,14.619140625 38.3642578125,18.782958984375 37.6171875,22.6611328125 36.36474609375,26.25732421875 34.599609375,29.5751953125 32.325439453125,32.567138671875 29.5458984375,35.185546875 26.2463359832764,37.305908203125 22.412109375,38.8037109375 17.7978515625,39.693603515625 12.158203125,39.990234375 0,39.990234375 8.7890625,0z" />
    </g>
  </g>
</svg>