<?xml version="1.0" encoding="utf-8"?>
<!DOCTYPE svg PUBLIC "-//W3C//DTD SVG 1.1//EN" "http://www.w3.org/Graphics/SVG/1.1/DTD/svg11.dtd">
<svg width="25.4003906250002" height="52.8515625" xmlns="http://www.w3.org/2000/svg" xmlns:xlink="http://www.w3.org/1999/xlink" xmlns:xml="http://www.w3.org/XML/1998/namespace" version="1.1">
  <g>
    <g>
      <path style="fill:#FF0000;fill-opacity:1" d="M7.998046875,0L25.400390625,0 24.931640625,1.93359375 21.3052368164063,5.07476854324341 18.131103515625,7.96508884429932 15.4092407226563,10.6045541763306 13.1396484375,12.9931640625 9.5947265625,17.3583984375 7.1337890625,21.4013671875 5.69457960128784,25.220947265625 5.21484375,28.916015625 5.7568359375,31.81640625 7.3828125,33.8818359375 8.8623046875,34.866943359375 11.1328125,36.03515625 14.022216796875,37.6171875 15.9521484375,39.140625 17.039794921875,40.77392578125 17.40234375,42.685546875 16.83837890625,45.501708984375 15.146484375,48.0322265625 12.29736328125,50.430908203125 8.26171875,52.8515625 6.943359375,50.712890625 9.86205959320068,48.885498046875 11.7041015625,47.3291015625 12.6818838119507,45.838623046875 13.0078125,44.208984375 12.5830078125,42.509765625 11.19140625,41.162109375 9.89501857757568,40.4150390625 7.939453125,39.462890625 4.32861280441284,37.4560546875 1.87499976158142,35.244140625 0.468749791383743,32.6953125 0,29.677734375 0.644530773162842,25.3857421875 1.47949182987213,23.133544921875 2.69531226158142,20.7421875 4.31030225753784,18.24462890625 6.3427734375,15.673828125 11.337890625,10.4736328125 14.58251953125,7.56225681304932 18.80859375,4.013671875 18.8671875,3.69140625 7.20703125,3.69140625 7.998046875,0z" />
    </g>
  </g>
</svg>