<?xml version="1.0" encoding="utf-8"?>
<!DOCTYPE svg PUBLIC "-//W3C//DTD SVG 1.1//EN" "http://www.w3.org/Graphics/SVG/1.1/DTD/svg11.dtd">
<svg width="31.23046875" height="39.990234375" xmlns="http://www.w3.org/2000/svg" xmlns:xlink="http://www.w3.org/1999/xlink" xmlns:xml="http://www.w3.org/XML/1998/namespace" version="1.1">
  <g>
    <g>
      <path style="fill:#FF0000;fill-opacity:1" d="M6.6796875,2.578125L6.6796875,37.412109375 11.6015625,37.412109375 11.6015625,2.578125 6.6796875,2.578125z M0,0L31.23046875,0 31.23046875,9.287109375 28.359375,9.287109375 27.7258281707764,7.4853515625 27.1142578125,6.064453125 25.8544921875,4.189453125 24.31640625,3.28125 22.001953125,3.017578125 14.8828125,3.017578125 14.8828125,18.046875 19.453125,18.046875 21.474609375,17.6220703125 22.6904296875,16.201171875 23.1628398895264,14.9340839385986 23.61328125,13.125 26.3671875,13.125 26.3671875,25.95703125 23.61328125,25.95703125 23.1591777801514,24.210205078125 22.67578125,22.9541015625 21.4892578125,21.5185546875 19.453125,21.09375 14.8828125,21.09375 14.8828125,32.578125 14.970703125,34.639892578125 15.234375,36.0205078125 16.2890625,37.587890625 17.314453125,38.09326171875 18.984375,38.5546875 18.984375,39.990234375 0,39.990234375 0,38.5546875 1.51611351966858,38.060302734375 2.43164086341858,37.5146484375 3.23730492591858,35.888671875 3.380126953125,34.5556640625 3.42773461341858,32.666015625 3.42773461341858,7.32421875 3.39111328125,5.577392578125 3.28125023841858,4.3798828125 2.79785180091858,2.9443359375 1.90429711341858,2.1240234375 1.14990258216858,1.798095703125 0,1.435546875 0,0z" />
    </g>
  </g>
</svg>