<?xml version="1.0" encoding="utf-8"?>
<!DOCTYPE svg PUBLIC "-//W3C//DTD SVG 1.1//EN" "http://www.w3.org/Graphics/SVG/1.1/DTD/svg11.dtd">
<svg width="22.44140625" height="30.29296875" xmlns="http://www.w3.org/2000/svg" xmlns:xlink="http://www.w3.org/1999/xlink" xmlns:xml="http://www.w3.org/XML/1998/namespace" version="1.1">
  <g>
    <g>
      <path style="fill:#FF0000;fill-opacity:1" d="M17.548828125,16.2890625L13.41796875,16.58203125 10.224609375,17.109375 7.85888671875,17.89306640625 6.2109375,18.955078125 5.244140625,20.3466796875 4.921875,22.119140625 5.23681640625,24.005126953125 6.181640625,25.3857421875 7.71240234375,26.231689453125 9.78515625,26.513671875 13.1396484375,25.8251953125 14.69970703125,24.9462890625 16.1279296875,23.6865234375 17.156982421875,22.027587890625 17.51953125,19.951171875 17.548828125,16.2890625z M13.037109375,0L16.4501953125,0.3955078125 19.189453125,1.669921875 21.15234375,3.8818359375 22.1630859375,6.884765625 22.3718242645264,8.8037109375 22.44140625,11.220703125 22.44140625,29.82421875 17.51953125,29.82421875 17.51953125,26.8359375 17.255859375,26.8359375 15,28.458251953125 12.919921875,29.5166015625 10.7519521713257,30.098876953125 8.232421875,30.29296875 4.7314453125,29.794921875 2.13867211341858,28.30078125 0.534668207168579,25.89111328125 0,22.646484375 0.472412317991257,19.742431640625 1.88964867591858,17.3583984375 4.19677734375,15.46875 7.3388671875,14.0478515625 9.31182765960693,13.5086059570313 11.6711416244507,13.077392578125 14.4168081283569,12.7542114257813 17.548828125,12.5390625 17.548828125,11.71875 17.406005859375,9.085693359375 16.9775390625,7.1630859375 16.22314453125,5.79712057113647 15.1025390625,4.833984375 13.582763671875,4.26269674301147 11.630859375,4.072265625 7.6318359375,4.7900390625 3.13476586341858,6.9140625 1.49414086341858,3.251953125 4.771728515625,1.72851705551147 7.6318359375,0.732421875 13.037109375,0z" />
    </g>
  </g>
</svg>