<?xml version="1.0" encoding="utf-8"?>
<!DOCTYPE svg PUBLIC "-//W3C//DTD SVG 1.1//EN" "http://www.w3.org/Graphics/SVG/1.1/DTD/svg11.dtd">
<svg width="33.984375" height="42.59765625" xmlns="http://www.w3.org/2000/svg" xmlns:xlink="http://www.w3.org/1999/xlink" xmlns:xml="http://www.w3.org/XML/1998/namespace" version="1.1">
  <g>
    <g>
      <path style="fill:#FF0000;fill-opacity:1" d="M12.421875,0L15.1904296875,0.5712890625 17.197265625,2.3876953125 18.0322265625,3.878173828125 18.779296875,5.859375 19.9951171875,10.6201171875 20.2835083007813,12.1078500747681 20.635986328125,14.0368671417236 21.0525512695313,16.4071674346924 21.533203125,19.21875 22.8076171875,26.162109375 23.4667949676514,29.28955078125 24.1259765625,31.93359375 24.7631816864014,34.053955078125 25.3564453125,35.6103515625 25.9094219207764,36.6943359375 26.42578125,37.3974609375 27.4072265625,38.1005859375 28.65234375,38.291015625 30.3662109375,37.880859375 32.197265625,36.767578125 33.984375,39.19921875 32.1148681640625,40.68603515625 30.28564453125,41.748046875 28.4967041015625,42.38525390625 26.748046875,42.59765625 24.3896484375,42.216796875 22.67578125,40.9716796875 21.89208984375,39.876708984375 21.123046875,38.3203125 20.36865234375,36.04248046875 19.62890625,32.783203125 18.9990234375,29.208984375 18.22265625,24.287109375 14.0625,33.720703125 10.60546875,42.12890625 0,42.12890625 0,40.283203125 1.01348876953125,39.0692138671875 2.208251953125,37.39013671875 3.58428955078125,35.2459716796875 5.1416015625,32.63671875 7.02301025390625,29.2987060546875 9.371337890625,24.96826171875 12.1865844726563,19.6453857421875 15.46875,13.330078125 14.1357421875,8.96484375 13.4509267807007,7.357177734375 12.7734375,6.2255859375 11.484375,4.9951171875 9.990234375,4.658203125 7.646484375,5.2001953125 6.35009765625,6.053466796875 4.6875,7.529296875 2.49023389816284,5.44921875 4.93652296066284,3.18603515625 6.708984375,1.787109375 9.4775390625,0.41015625 12.421875,0z" />
    </g>
  </g>
</svg>