<?xml version="1.0" encoding="utf-8"?>
<!DOCTYPE svg PUBLIC "-//W3C//DTD SVG 1.1//EN" "http://www.w3.org/Graphics/SVG/1.1/DTD/svg11.dtd">
<svg width="28.740234375" height="42.568359375" xmlns="http://www.w3.org/2000/svg" xmlns:xlink="http://www.w3.org/1999/xlink" xmlns:xml="http://www.w3.org/XML/1998/namespace" version="1.1">
  <g>
    <g>
      <path style="fill:#FF0000;fill-opacity:1" d="M14.267578125,16.787109375L11.8176259994507,17.4646015167236 10.1513671875,19.4970703125 9.59381103515625,21.0470581054688 9.195556640625,22.987060546875 8.95660400390625,25.3170776367188 8.876953125,28.037109375 9.0966796875,32.40234375 9.9169921875,36.0498046875 11.5576171875,38.583984375 12.740478515625,39.287109375 14.208984375,39.521484375 16.541748046875,38.814697265625 18.2666015625,36.6943359375 19.332275390625,33.197021484375 19.6875,28.359375 19.4677734375,23.7890625 18.6474609375,20.1123046875 16.9775390625,17.666015625 15.765380859375,17.0068378448486 14.267578125,16.787109375z M14.94140625,0L18.1695537567139,0.33782958984375 20.9692363739014,1.351318359375 23.3404521942139,3.04046630859375 25.283203125,5.4052734375 26.7956523895264,8.45672607421875 27.8759746551514,12.2058115005493 28.5241680145264,16.6525268554688 28.740234375,21.796875 28.5086040496826,26.5402221679688 27.8137187957764,30.692138671875 26.6555767059326,34.2526245117188 25.0341796875,37.2216796875 22.9714946746826,39.5608520507813 20.4895000457764,41.231689453125 17.5881938934326,42.2341918945313 14.267578125,42.568359375 10.9176635742188,42.3458862304688 8.016357421875,41.678466796875 5.56365966796875,40.5661010742188 3.55957055091858,39.0087890625 2.00225853919983,37.0046997070313 0.889892816543579,34.552001953125 0.222473278641701,31.6506958007813 0,28.30078125 0.432129114866257,23.961181640625 1.72851586341858,20.3173828125 3.779296875,17.4353046417236 6.474609375,15.380859375 9.71191310882568,14.1503925323486 13.388671875,13.740234375 16.435546875,14.0625 19.306640625,15.205078125 19.658203125,14.970703125 19.266357421875,9.83642673492432 18.3251953125,6.09375 17.6156616210938,4.7607421875 16.702880859375,3.80859375 15.5868530273438,3.2373046875 14.267578125,3.046875 12.5024404525757,3.28125 10.95703125,3.984375 9.53613185882568,5.25146484375 8.14453125,7.177734375 4.423828125,7.177734375 4.423828125,3.603515625 7.37548828125,1.907958984375 9.9609375,0.8056640625 12.4072265625,0.201416015625 14.94140625,0z" />
    </g>
  </g>
</svg>