<?xml version="1.0" encoding="utf-8"?>
<!DOCTYPE svg PUBLIC "-//W3C//DTD SVG 1.1//EN" "http://www.w3.org/Graphics/SVG/1.1/DTD/svg11.dtd">
<svg width="42.421875" height="29.970703125" xmlns="http://www.w3.org/2000/svg" xmlns:xlink="http://www.w3.org/1999/xlink" xmlns:xml="http://www.w3.org/XML/1998/namespace" version="1.1">
  <g>
    <g>
      <path style="fill:#FF0000;fill-opacity:1" d="M11.484375,0L13.916015625,2.783203125 11.71142578125,5.8428955078125 10.13671875,9.25048828125 9.19189453125,13.0059814453125 8.876953125,17.109375 9.144287109375,21.361083984375 9.9462890625,24.4482421875 11.2829580307007,26.326904296875 13.154296875,26.953125 14.798583984375,26.458740234375 15.9814453125,24.9755859375 16.695556640625,22.554931640625 16.93359375,19.248046875 16.93359375,9.31640625 25.458984375,9.31640625 25.458984375,19.306640625 25.7006816864014,22.587890625 26.42578125,24.990234375 27.6123027801514,26.46240234375 29.23828125,26.953125 31.0968017578125,26.326904296875 32.42431640625,24.4482421875 33.2208251953125,21.317138671875 33.486328125,16.93359375 33.20068359375,12.799072265625 32.34375,9.1259765625 30.88623046875,5.811767578125 28.798828125,2.75390625 31.201171875,0 36.119384765625,3.60717916488647 39.6240234375,7.5732421875 41.722412109375,11.927490234375 42.421875,16.69921875 42.095947265625,20.635986328125 41.1181640625,23.7744140625 39.44091796875,26.260986328125 37.0166015625,28.2421875 33.973388671875,29.53857421875 30.439453125,29.970703125 27.3596172332764,29.6539306640625 24.7998027801514,28.70361328125 22.7600078582764,27.1197509765625 21.240234375,24.90234375 21.123046875,24.90234375 19.559326171875,27.12890625 17.5634765625,28.7109375 15.113525390625,29.65576171875 12.1875,29.970703125 8.558349609375,29.5751953125 5.5224609375,28.388671875 3.1201171875,26.495361328125 1.3916015625,23.9794921875 0.347900390625,20.782470703125 0,16.845703125 0.72509765625,12.1142578125 2.900390625,7.705078125 6.49658203125,3.65478658676147 11.484375,0z" />
    </g>
  </g>
</svg>