<?xml version="1.0" encoding="utf-8"?>
<!DOCTYPE svg PUBLIC "-//W3C//DTD SVG 1.1//EN" "http://www.w3.org/Graphics/SVG/1.1/DTD/svg11.dtd">
<svg width="33.076171875" height="41.19140625" xmlns="http://www.w3.org/2000/svg" xmlns:xlink="http://www.w3.org/1999/xlink" xmlns:xml="http://www.w3.org/XML/1998/namespace" version="1.1">
  <g>
    <g>
      <path style="fill:#FF0000;fill-opacity:1" d="M8.73046875,0L11.54296875,0.52734375 13.4619140625,2.28515625 14.3371572494507,3.85254049301147 15.234375,6.09375 16.2011699676514,9.287109375 17.28515625,13.7109375 20.302734375,7.880859375 23.583984375,0.46875 33.076171875,0.46875 33.076171875,2.63671875 29.8754863739014,6.97998046875 27.24609375,10.869140625 19.921875,21.97265625 20.9152221679688,24.722900390625 21.785888671875,27.0849609375 22.5338745117188,29.058837890625 23.1591796875,30.64453125 24.1845703125,33.05419921875 25.0048828125,34.716796875 25.7043437957764,35.79345703125 26.3671875,36.4453125 27.744140625,36.884765625 29.3554668426514,36.4892578125 31.201171875,35.302734375 33.076171875,37.79296875 29.3701171875,40.2978515625 27.4548320770264,40.968017578125 25.48828125,41.19140625 22.44140625,40.5322265625 21.339111328125,39.66796875 20.3759765625,38.3935546875 19.48974609375,36.595458984375 18.6181640625,34.16015625 17.647705078125,30.76171875 16.46484375,26.07421875 13.0078125,32.98828125 9.580078125,40.751953125 0,40.751953125 0,38.5546875 3.06884765625,34.51171875 6.298828125,29.765625 13.88671875,18.28125 12.7203369140625,15.0604248046875 11.71142578125,12.37060546875 10.8599853515625,10.2117919921875 10.166015625,8.583984375 8.92822265625,6.1962890625 7.8515625,4.833984375 6.357421875,4.306640625 4.74609327316284,4.7314453125 2.95898389816284,5.888671875 1.11328125,3.3984375 2.98461890220642,1.91162216663361 4.8779296875,0.849610805511475 6.793212890625,0.212403416633606 8.73046875,0z" />
    </g>
  </g>
</svg>