<?xml version="1.0" encoding="utf-8"?>
<!DOCTYPE svg PUBLIC "-//W3C//DTD SVG 1.1//EN" "http://www.w3.org/Graphics/SVG/1.1/DTD/svg11.dtd">
<svg width="54.697265625" height="42.5390625" xmlns="http://www.w3.org/2000/svg" xmlns:xlink="http://www.w3.org/1999/xlink" xmlns:xml="http://www.w3.org/XML/1998/namespace" version="1.1">
  <g>
    <g>
      <path style="fill:#FF0000;fill-opacity:1" d="M41.337890625,3.28125L39.254150390625,3.78662109375 37.6904296875,5.302734375 36.712646484375,7.6904296875 36.38671875,10.810546875 36.38671875,19.27734375 35.9619140625,24.5654296875 34.5556640625,29.1650390625 33.182373046875,31.783447265625 31.025390625,35.09765625 32.74658203125,34.5263671875 34.51171875,34.3359375 37.3974609375,34.9365234375 40.25390625,36.62109375 41.846923828125,37.71240234375 43.0517578125,38.408203125 45.029296875,38.90625 47.1533203125,38.4228515625 48.984375,36.767578125 49.5556602478027,35.4345703125 49.74609375,33.779296875 49.2626953125,31.2890625 48.1201171875,29.3115234375 46.787109375,27.685546875 45.380859375,25.869140625 44.267578125,23.7158203125 43.828125,21.005859375 44.20166015625,18.0468769073486 45.322265625,15.849609375 47.1533164978027,14.3115253448486 49.658203125,13.330078125 47.7429161071777,12.6562519073486 46.3330078125,11.513671875 45.465087890625,9.93164157867432 45.17578125,7.939453125 44.9267578125,6.002197265625 44.1796875,4.5263671875 42.97119140625,3.592529296875 41.337890625,3.28125z M26.015625,3.251953125L23.7634258270264,3.7646484375 22.0458984375,5.302734375 20.958251953125,7.705078125 20.595703125,10.810546875 20.595703125,21.064453125 20.185546875,25.0341796875 18.955078125,28.623046875 16.904296875,31.8017578125 14.033203125,34.541015625 15.4541015625,35.361328125 16.395263671875,36.10107421875 17.783203125,37.265625 19.7900390625,38.61328125 21.97265625,39.111328125 23.9877300262451,38.7954711914063 25.7556133270264,37.847900390625 27.2763042449951,36.2686157226563 28.5498046875,34.0576171875 29.5559692382813,31.2167358398438 30.274658203125,27.747802734375 30.7058715820313,23.6508178710938 30.849609375,18.92578125 30.787353515625,14.5642108917236 30.6005859375,11.1474609375 30.2819805145264,8.5107421875 29.82421875,6.4892578125 29.2053203582764,5.013427734375 28.4033203125,4.013671875 27.3596172332764,3.4423828125 26.015625,3.251953125z M10.166015625,0L13.194580078125,0.347900390625 15.7177734375,1.3916015625 17.735595703125,3.131103515625 19.248046875,5.56640625 20.621337890625,3.5009765625 22.3974609375,1.9921875 24.5397930145264,1.0693359375 27.01171875,0.76171875 29.6630859375,1.036376953125 31.81640625,1.8603515625 33.515625,3.262939453125 34.8046875,5.2734375 35.980224609375,3.372802734375 37.6318359375,1.9482421875 39.737548828125,1.058349609375 42.275390625,0.76171875 45.8056640625,1.175537109375 48.486328125,2.4169921875 50.1782188415527,4.412841796875 50.7421875,7.08984375 50.7421875,9.462890625 51.0241661071777,10.7299823760986 51.8701171875,11.77734375 53.0969200134277,12.4804706573486 54.521484375,12.71484375 54.697265625,12.71484375 54.697265625,14.94140625 52.587890625,14.970703125 50.6506309509277,15.2233905792236 49.2333984375,15.9228515625 48.3654747009277,17.0397968292236 48.076171875,18.544921875 48.28125,19.6875 49.072265625,21.005859375 49.8998985290527,21.97265625 51.2109375,23.349609375 52.705078125,25.13671875 53.876953125,27.24609375 54.345703125,29.794921875 53.9392051696777,33.072509765625 52.7197265625,36.1083984375 50.8007774353027,38.70849609375 48.2958984375,40.6787109375 45.325927734375,41.920166015625 42.01171875,42.333984375 38.8037109375,41.7041015625 35.859375,39.931640625 34.215087890625,38.73779296875 33.0322265625,38.02734375 31.11328125,37.55859375 29.6923828125,37.9248046875 28.2421875,38.84765625 26.7700176239014,39.898681640625 25.927734375,40.4736328125 24.697265625,41.162109375 23.2470703125,41.77734375 21.7822265625,42.216796875 20.302734375,42.4658203125 18.662109375,42.5390625 16.025390625,42.1435546875 13.8134765625,41.162109375 11.923828125,39.90234375 10.198974609375,38.62060546875 8.9501953125,37.822265625 7.001953125,37.265625 4.7607421875,37.9248046875 3.760986328125,38.807373046875 2.666015625,40.13671875 0.996093988418579,38.5546875 3.24462890625,36.064453125 5.41992139816284,34.453125 7.6904296875,33.57421875 10.224609375,33.28125 11.07421875,33.369140625 11.982421875,33.57421875 13.4051513671875,31.834716796875 14.42138671875,29.5458984375 15.0311279296875,26.707763671875 15.234375,23.3203125 15.205078125,21.796875 15.205078125,15.556640625 15.150146484375,12.0666522979736 14.9853515625,9.5654296875 14.296875,6.2255859375 13.0810546875,4.072265625 11.279296875,2.841796875 8.7890625,2.431640625 6.4892578125,3.0029296875 4.68749952316284,4.7021484375 3.984375,7.32421875 4.61425733566284,10.3857421875 5.44555616378784,11.7590351104736 6.6796875,13.095703125 7.90283203125,14.3005390167236 8.701171875,15.1611328125 9.7119140625,16.611328125 10.37109375,18.2080078125 10.60546875,20.068359375 10.2209463119507,22.547607421875 9.0673828125,24.6533203125 7.203369140625,26.326904296875 4.68749952316284,27.509765625 3.984375,25.60546875 5.40527296066284,24.869384765625 6.328125,24.1259765625 7.001953125,22.353515625 6.80419921875,21.13037109375 6.2109375,19.98046875 4.04296922683716,17.75390625 2.21923828125,16.0400409698486 0.966796875,14.296875 0.241699129343033,12.4511737823486 0,10.4296875 0.336914002895355,7.628173828125 1.34765625,5.0830078125 2.95166015625,2.93701171875 5.068359375,1.3330078125 7.529296875,0.333251953125 10.166015625,0z" />
    </g>
  </g>
</svg>