<?xml version="1.0" encoding="utf-8"?>
<!DOCTYPE svg PUBLIC "-//W3C//DTD SVG 1.1//EN" "http://www.w3.org/Graphics/SVG/1.1/DTD/svg11.dtd">
<svg width="32.6953125" height="41.484375" xmlns="http://www.w3.org/2000/svg" xmlns:xlink="http://www.w3.org/1999/xlink" xmlns:xml="http://www.w3.org/XML/1998/namespace" version="1.1">
  <g>
    <g>
      <path style="fill:#FF0000;fill-opacity:1" d="M7.67578077316284,0L10.6494140625,0.46875 11.9384765625,1.16089010238647 13.1396484375,2.2998046875 14.2675771713257,3.94043111801147 15.3369140625,6.1376953125 16.3806133270264,9.005126953125 17.431640625,12.65625 17.63671875,12.65625 23.73046875,0.46875 32.6953125,0.46875 19.921875,21.416015625 20.972900390625,24.166259765625 21.8408203125,26.4404296875 23.14453125,29.8828125 24.052734375,32.2119140625 24.84375,33.837890625 25.6457500457764,34.910888671875 26.5869140625,35.5517578125 29.091796875,35.9765625 29.70703125,35.9765625 29.82421875,41.103515625 28.7548828125,41.2939453125 27.275390625,41.4111328125 25.8837890625,41.4697265625 25.048828125,41.484375 21.826171875,40.8984375 20.577392578125,40.0634765625 19.4677734375,38.73046875 18.46435546875,36.844482421875 17.5341796875,34.3505859375 16.6003398895264,31.138916015625 15.5859375,27.099609375 15.498046875,27.099609375 8.78906154632568,41.044921875 0,41.044921875 13.095703125,19.189453125 11.9970703125,16.17919921875 11.044921875,13.65234375 10.20263671875,11.5576171875 9.43359375,9.84375 8.1005859375,7.4560546875 6.884765625,6.15234375 5.6103515625,5.6103515625 4.13085889816284,5.5078125 3.6328125,5.5078125 3.193359375,0.76171875 4.04296827316284,0.46875 5.2587890625,0.2197265625 6.5771484375,0.05859375 7.67578077316284,0z" />
    </g>
  </g>
</svg>