<?xml version="1.0" encoding="utf-8"?>
<!DOCTYPE svg PUBLIC "-//W3C//DTD SVG 1.1//EN" "http://www.w3.org/Graphics/SVG/1.1/DTD/svg11.dtd">
<svg width="35.712890625" height="40.1953125" xmlns="http://www.w3.org/2000/svg" xmlns:xlink="http://www.w3.org/1999/xlink" xmlns:xml="http://www.w3.org/XML/1998/namespace" version="1.1">
  <g>
    <g>
      <path style="fill:#FF0000;fill-opacity:1" d="M23.90625,0L31.259765625,0 32.51953125,31.318359375 32.75390625,34.3212890625 33.310546875,36.50390625 34.2626953125,37.7490234375 35.712890625,38.26171875 35.2734375,40.1953125 20.126953125,40.1953125 20.56640625,38.26171875 22.5732421875,37.6171875 23.5986328125,36.123046875 23.8293437957764,34.951171875 23.90625,33.310546875 23.90625,32.05078125 23.876953125,30.673828125 23.671875,20.390625 23.583984375,14.7583026885986 23.5546875,9.638671875 23.203125,9.638671875 13.740234375,27.392578125 12.4658193588257,29.827880859375 11.630859375,31.5087890625 10.72265625,33.837890625 10.4296875,35.830078125 11.05224609375,37.49267578125 12.919921875,38.26171875 12.48046875,40.1953125 0,40.1953125 0.439453423023224,38.26171875 2.2412109375,37.470703125 3.720703125,35.9619140625 4.5703125,34.669189453125 5.712890625,32.6953125 23.90625,0z" />
    </g>
  </g>
</svg>