<?xml version="1.0" encoding="utf-8"?>
<!DOCTYPE svg PUBLIC "-//W3C//DTD SVG 1.1//EN" "http://www.w3.org/Graphics/SVG/1.1/DTD/svg11.dtd">
<svg width="27.9492187500001" height="52.880859375" xmlns="http://www.w3.org/2000/svg" xmlns:xlink="http://www.w3.org/1999/xlink" xmlns:xml="http://www.w3.org/XML/1998/namespace" version="1.1">
  <g>
    <g>
      <path style="fill:#FF0000;fill-opacity:1" d="M7.998046875,0L27.94921875,0 27.5390625,1.904296875 22.7087383270264,6.30615234375 19.2919921875,9.609375 14.5751953125,14.82421875 11.220703125,19.5849609375 9.1552734375,24.140625 8.4375,28.681640625 8.748779296875,30.60791015625 9.6826171875,32.2265625 11.3854970932007,33.662109375 14.00390625,35.0390625 16.666259765625,36.485595703125 18.4423828125,38.0712890625 19.442138671875,39.942626953125 19.775390625,42.24609375 19.522705078125,44.30419921875 18.7646484375,46.142578125 17.530517578125,47.81982421875 15.849609375,49.39453125 13.54248046875,51.02783203125 10.4296875,52.880859375 8.5546875,49.892578125 10.1513662338257,48.837890625 11.3671875,47.900390625 12.7587890625,46.2451171875 13.125,44.384765625 12.8906240463257,43.14697265625 12.1875,42.0703125 11.0229482650757,41.103515625 9.404296875,40.1953125 5.06103467941284,37.763671875 2.16796803474426,35.21484375 0.541991949081421,32.34375 0,28.9453125 0.333251774311066,26.00830078125 1.3330078125,23.115234375 2.92602515220642,20.244140625 5.0390625,17.373046875 7.6318359375,14.4982929229736 10.6640625,11.6162109375 17.4609375,5.91796875 17.51953125,5.5078125 6.73828125,5.5078125 7.998046875,0z" />
    </g>
  </g>
</svg>