<?xml version="1.0" encoding="utf-8"?>
<!DOCTYPE svg PUBLIC "-//W3C//DTD SVG 1.1//EN" "http://www.w3.org/Graphics/SVG/1.1/DTD/svg11.dtd">
<svg width="37.646484375" height="42.94921875" xmlns="http://www.w3.org/2000/svg" xmlns:xlink="http://www.w3.org/1999/xlink" xmlns:xml="http://www.w3.org/XML/1998/namespace" version="1.1">
  <g>
    <g>
      <path style="fill:#FF0000;fill-opacity:1" d="M23.583984375,17.138671875L21.416015625,18.193359375 20.31005859375,17.5341815948486 18.984375,17.314453125 16.875,17.8125 14.677734375,19.453125 13.1103506088257,21.1669921875 11.572265625,23.37890625 10.0122060775757,26.2353515625 8.84765625,29.12109375 8.14453125,31.76513671875 7.91015625,34.130859375 8.038330078125,35.56640625 8.4228515625,36.591796875 9.071044921875,37.20703125 9.990234375,37.412109375 12.158203125,36.767578125 13.41064453125,35.899658203125 14.82421875,34.5849609375 16.343994140625,32.830810546875 17.9150390625,30.64453125 19.332275390625,28.436279296875 20.390625,26.6162109375 22.001953125,22.79296875 23.583984375,17.138671875z M33.544921875,0L36.123046875,0 35.7568359375,2.508544921875 34.716796875,6.1669921875 33.076171875,10.7189950942993 30.908203125,15.908203125 29.5770244598389,20.8181762695313 28.5131816864014,24.825439453125 27.7166728973389,27.9299926757813 27.1875,30.1318359375 26.5942363739014,33.160400390625 26.396484375,35.244140625 26.7626953125,36.7236328125 27.744140625,37.1484375 29.0661602020264,36.851806640625 30.5712890625,35.9619140625 32.581787109375,34.237060546875 35.419921875,31.435546875 37.646484375,33.515625 33.504638671875,37.7490234375 29.9853515625,40.6640625 26.8981914520264,42.35595703125 24.052734375,42.919921875 21.932373046875,42.637939453125 20.4931640625,41.7919921875 19.669189453125,40.352783203125 19.39453125,38.291015625 19.69482421875,35.33203125 20.595703125,31.904296875 20.126953125,31.875 16.5234375,36.70166015625 12.978515625,40.166015625 9.462890625,42.25341796875 5.947265625,42.94921875 3.482666015625,42.498779296875 1.59667944908142,41.1474609375 0.399169892072678,39.041748046875 0,36.328125 0.318603515625,33.24462890625 1.2744140625,29.970703125 2.8125,26.66015625 4.8779296875,23.466796875 7.342529296875,20.5517578125 10.078125,18.076171875 13.04443359375,16.0437030792236 16.201171875,14.4580078125 19.19677734375,13.4362812042236 21.6796875,13.095703125 24.169921875,13.505859375 25.1440410614014,8.92822265625 26.19140625,5.5078125 29.6337890625,2.2265625 31.614990234375,0.908203125 33.544921875,0z" />
    </g>
  </g>
</svg>