<?xml version="1.0" encoding="utf-8"?>
<!DOCTYPE svg PUBLIC "-//W3C//DTD SVG 1.1//EN" "http://www.w3.org/Graphics/SVG/1.1/DTD/svg11.dtd">
<svg width="31.4062500000001" height="40.927734375" xmlns="http://www.w3.org/2000/svg" xmlns:xlink="http://www.w3.org/1999/xlink" xmlns:xml="http://www.w3.org/XML/1998/namespace" version="1.1">
  <g>
    <g>
      <path style="fill:#FF0000;fill-opacity:1" d="M19.951171875,0L25.6201171875,0.41015625 30.849609375,1.7578125 29.12109375,7.6171875 24.9755859375,6.2841796875 21.181640625,5.888671875 18.3096313476563,6.126708984375 15.816650390625,6.8408203125 13.7026977539063,8.031005859375 11.9677734375,9.697265625 10.6155385971069,11.8286142349243 9.64965724945068,14.4140644073486 9.07012844085693,17.4536151885986 8.876953125,20.947265625 9.00512599945068,24.2916870117188 9.38964748382568,27.176513671875 10.0305166244507,29.6017456054688 10.927734375,31.5673828125 12.095947265625,33.0862426757813 13.5498046875,34.171142578125 15.289306640625,34.8220825195313 17.314453125,35.0390625 19.6875,34.7900390625 21.4453125,34.013671875 22.529296875,32.9150390625 22.96875,31.58203125 23.0566387176514,30.6298828125 23.0859375,29.296875 23.0859375,26.015625 18.3984375,26.015625 18.3984375,20.126953125 31.40625,20.126953125 31.40625,40.458984375 23.935546875,40.458984375 23.73046875,39.2578125 23.4375,39.2578125 20.0537109375,40.517578125 17.852783203125,40.8251953125 15.029296875,40.927734375 10.7080068588257,40.3271484375 7.001953125,38.525390625 4.00268507003784,35.61767578125 1.80175733566284,31.69921875 0.450439214706421,26.953125 0,21.5625 0.604247868061066,15.2087421417236 2.4169921875,9.8583984375 5.372314453125,5.595703125 9.404296875,2.5048828125 14.326171875,0.626220703125 19.951171875,0z" />
    </g>
  </g>
</svg>