<?xml version="1.0" encoding="utf-8"?>
<!DOCTYPE svg PUBLIC "-//W3C//DTD SVG 1.1//EN" "http://www.w3.org/Graphics/SVG/1.1/DTD/svg11.dtd">
<svg width="26.015625" height="41.3671875" xmlns="http://www.w3.org/2000/svg" xmlns:xlink="http://www.w3.org/1999/xlink" xmlns:xml="http://www.w3.org/XML/1998/namespace" version="1.1">
  <g>
    <g>
      <path style="fill:#FF0000;fill-opacity:1" d="M6.005859375,0L7.620849609375,1.26342916488647 8.5986328125,2.4169921875 9.55078125,5.361328125 11.865234375,4.248046875 14.033203125,3.1494140625 16.0546875,1.9921875 17.6220703125,0.9375 18.779296875,0 21.053466796875,1.66992330551147 22.6025390625,3.10546875 24.521484375,6.09375 25.1660137176514,8.031005859375 25.634765625,10.5029296875 25.9204082489014,13.699951171875 26.015625,17.8125 25.6750469207764,23.162841796875 24.6533203125,27.5537109375 22.9211406707764,31.3037109375 20.44921875,34.7314453125 17.0947265625,38.023681640625 12.71484375,41.3671875 11.337890625,39.638671875 14.04052734375,37.587890625 16.171875,35.654296875 17.8271484375,33.717041015625 19.1015625,31.6552734375 20.0390625,29.337158203125 20.68359375,26.630859375 21.05712890625,23.173828125 21.181640625,18.603515625 21.04248046875,14.542236328125 20.625,11.2646484375 19.918212890625,8.73779296875 18.9111328125,6.9287109375 17.545166015625,5.841064453125 15.76171875,5.478515625 13.3740234375,5.9912109375 9.638671875,7.763671875 9.638671875,23.115234375 10.6201171875,24.0966796875 11.806640625,24.66796875 12.2680654525757,24.517822265625 13.2421875,24.0673828125 15.17578125,23.0859375 16.171875,24.90234375 13.59375,26.42578125 11.7901611328125,27.498779296875 10.36376953125,28.4326171875 9.3145751953125,29.227294921875 8.642578125,29.8828125 6.005859375,27.392578125 4.38720703125,26.57958984375 2.22656273841858,25.8984375 2.22656273841858,24.4921875 3.56689453125,24.06005859375 4.423828125,23.349609375 4.88525390625,22.1044921875 5.0390625,20.068359375 5.0390625,9.521484375 4.969482421875,7.78564453125 4.7607421875,6.5625 3.99902367591858,5.185546875 2.81250023841858,4.775390625 1.86035180091858,4.921875 1.13891625404358,5.20019674301147 0,5.7421875 0,3.779296875 3.07617211341858,1.9775390625 4.7607421875,0.889894008636475 6.005859375,0z" />
    </g>
  </g>
</svg>