<?xml version="1.0" encoding="utf-8"?>
<!DOCTYPE svg PUBLIC "-//W3C//DTD SVG 1.1//EN" "http://www.w3.org/Graphics/SVG/1.1/DTD/svg11.dtd">
<svg width="28.8867187500001" height="42.5390625" xmlns="http://www.w3.org/2000/svg" xmlns:xlink="http://www.w3.org/1999/xlink" xmlns:xml="http://www.w3.org/XML/1998/namespace" version="1.1">
  <g>
    <g>
      <path style="fill:#FF0000;fill-opacity:1" d="M15.1171875,16.58203125L11.0339345932007,19.178466796875 7.8662109375,23.1005859375 5.833740234375,27.967529296875 5.15625,33.3984375 5.5316162109375,36.3848876953125 6.65771484375,38.51806640625 8.5345458984375,39.7979736328125 11.162109375,40.224609375 13.41064453125,39.8291015625 15.41015625,38.642578125 17.083740234375,36.741943359375 18.3544921875,34.2041015625 19.156494140625,31.263427734375 19.423828125,28.154296875 19.18212890625,24.884033203125 18.45703125,21.9873046875 17.138671875,19.281005859375 15.1171875,16.58203125z M18.134765625,0L20.679931640625,0.223388671875 23.2177734375,0.8935546875 25.9020977020264,2.127685546875 28.88671875,4.04296875 27.890625,8.73046875 25.1953125,8.73046875 23.9611797332764,5.914306640625 22.3095703125,3.9111328125 20.262451171875,2.713623046875 17.841796875,2.314453125 16.080322265625,2.567138671875 14.7216796875,3.3251953125 13.853759765625,4.486083984375 13.564453125,5.947265625 13.9453125,7.646484375 15.380859375,9.9169921875 16.72119140625,11.6271991729736 18.6328125,13.916015625 20.9326152801514,16.8237323760986 22.5,19.16015625 24.2431640625,23.3056640625 24.78515625,28.0078125 24.3566875457764,31.5966796875 23.0712890625,35.09765625 20.9875469207764,38.1884765625 18.1640625,40.546875 14.7216796875,42.041015625 10.78125,42.5390625 7.3828125,42.2314453125 4.62890625,41.30859375 2.53051733970642,39.8583984375 1.09863257408142,37.96875 0.274657994508743,35.6982421875 0,33.10546875 0.216979831457138,30.0961303710938 0.867919683456421,27.279052734375 1.95281934738159,24.6542358398438 3.47167897224426,22.2216796875 5.41534376144409,19.9996967315674 7.774658203125,18.0065937042236 10.5496215820313,16.2423725128174 13.740234375,14.70703125 11.7370595932007,12.2753925323486 10.3564453125,10.1953125 9.55444240570068,8.34228515625 9.287109375,6.591796875 9.54345607757568,4.833984375 10.3125,3.251953125 11.5869131088257,1.91162109375 13.359375,0.87890625 15.56396484375,0.2197265625 18.134765625,0z" />
    </g>
  </g>
</svg>