<?xml version="1.0" encoding="utf-8"?>
<!DOCTYPE svg PUBLIC "-//W3C//DTD SVG 1.1//EN" "http://www.w3.org/Graphics/SVG/1.1/DTD/svg11.dtd">
<svg width="31.875" height="30.29296875" xmlns="http://www.w3.org/2000/svg" xmlns:xlink="http://www.w3.org/1999/xlink" xmlns:xml="http://www.w3.org/XML/1998/namespace" version="1.1">
  <g>
    <g>
      <path style="fill:#FF0000;fill-opacity:1" d="M5.91796875,0L8.408203125,0.3515625 10.60546875,1.5380859375 12.1728515625,3.720703125 12.83203125,7.03125 12.7587890625,10.2685546875 12.48046875,13.505859375 12.65625,13.623046875 21.26953125,6.416015625 22.2802734375,3.5888671875 23.49609375,0.46875 31.875,0.46875 30.52734375,4.26635885238647 28.88671875,7.4560546875 26.9750957489014,10.147705078125 24.814453125,12.451171875 24.7851543426514,13.76953125 24.814453125,16.318359375 24.9316387176514,18.812255859375 25.166015625,20.7275390625 25.5249004364014,22.15576171875 26.015625,23.1884765625 27.421875,24.2578125 29.47265625,24.4921875 30.322265625,24.4921875 30.439453125,30 29.560546875,30.1025390625 28.3740234375,30.1904296875 27.1435546875,30.263671875 26.1328125,30.29296875 23.6279296875,29.94140625 21.4599609375,28.7841796875 19.9072265625,26.6162109375 19.27734375,23.232421875 19.27734375,19.8046875 19.51171875,16.58203125 19.365234375,16.40625 10.546875,23.876953125 10.1513671875,25.4736328125 9.78515625,26.806640625 9.345703125,28.154296875 8.759765625,29.82421875 0,29.82421875 0.90820300579071,26.982421875 2.3291015625,23.8916015625 4.21875,20.7861328125 6.533203125,17.9296875 6.591796875,16.6552734375 6.591796875,15.498046875 6.44897413253784,12.70751953125 6.1962890625,10.546875 5.83373975753784,8.9208984375 5.361328125,7.734375 4.1015625,6.4892578125 2.4609375,6.2109375 2.021484375,6.2109375 2.109375,0.41015625 2.87109375,0.2783203125 4.04296875,0.146484375 5.2001953125,0.0439453125 5.91796875,0z" />
    </g>
  </g>
</svg>