<?xml version="1.0" encoding="utf-8"?>
<!DOCTYPE svg PUBLIC "-//W3C//DTD SVG 1.1//EN" "http://www.w3.org/Graphics/SVG/1.1/DTD/svg11.dtd">
<svg width="41.396484375" height="41.484375" xmlns="http://www.w3.org/2000/svg" xmlns:xlink="http://www.w3.org/1999/xlink" xmlns:xml="http://www.w3.org/XML/1998/namespace" version="1.1">
  <g>
    <g>
      <path style="fill:#FF0000;fill-opacity:1" d="M16.376953125,0L19.248046875,0.46875 20.386962890625,1.16089010238647 21.3427734375,2.2998046875 22.119140625,3.94043111801147 22.7197265625,6.1376953125 23.155517578125,9.005126953125 23.4375,12.65625 23.642578125,12.65625 32.431640625,0.46875 41.396484375,0.46875 24.08203125,21.416015625 24.55810546875,24.166259765625 24.931640625,26.4404296875 25.4736328125,29.8828125 25.8837890625,32.2119140625 26.337890625,33.837890625 26.90185546875,34.910888671875 27.71484375,35.5517578125 30.146484375,35.9765625 30.76171875,35.9765625 29.794921875,41.103515625 28.65234375,41.2939453125 27.158203125,41.4111328125 25.7666015625,41.4697265625 24.931640625,41.484375 21.826171875,40.8984375 20.753173828125,40.0634765625 19.9365234375,38.73046875 19.34326171875,36.844482421875 18.9404296875,34.3505859375 18.680419921875,31.138916015625 18.515625,27.099609375 18.427734375,27.099609375 8.759765625,41.044921875 0,41.044921875 17.724609375,19.189453125 17.2705078125,16.17919921875 16.845703125,13.65234375 16.439208984375,11.5576171875 16.0400390625,9.84375 15.2197265625,7.4560546875 14.267578125,6.15234375 13.1103515625,5.6103515625 11.66015625,5.5078125 11.162109375,5.5078125 11.71875,0.76171875 12.6416015625,0.46875 13.916015625,0.2197265625 15.263671875,0.05859375 16.376953125,0z" />
    </g>
  </g>
</svg>