<?xml version="1.0" encoding="utf-8"?>
<!DOCTYPE svg PUBLIC "-//W3C//DTD SVG 1.1//EN" "http://www.w3.org/Graphics/SVG/1.1/DTD/svg11.dtd">
<svg width="37.822265625" height="28.974609375" xmlns="http://www.w3.org/2000/svg" xmlns:xlink="http://www.w3.org/1999/xlink" xmlns:xml="http://www.w3.org/XML/1998/namespace" version="1.1">
  <g>
    <g>
      <path style="fill:#FF0000;fill-opacity:1" d="M13.06640625,0L14.560546875,1.9921875 10.5908193588257,5.863037109375 7.587890625,10.2099609375 5.6982421875,14.871826171875 5.068359375,19.6875 5.386962890625,22.664794921875 6.3427734375,24.8583984375 7.877197265625,26.209716796875 9.931640625,26.66015625 11.9384756088257,26.220703125 13.623046875,24.90234375 14.94873046875,22.734375 15.87890625,19.74609375 18.28125,8.701171875 23.203125,8.701171875 20.9765625,18.779296875 20.595703125,22.001953125 20.848388671875,24.049072265625 21.6064453125,25.5029296875 22.8259258270264,26.370849609375 24.462890625,26.66015625 26.7553691864014,26.217041015625 28.76953125,24.8876953125 30.435791015625,22.708740234375 31.6845703125,19.716796875 32.464599609375,16.0400390625 32.724609375,11.806640625 31.9921875,6.3427734375 31.11328125,3.78296041488647 29.94140625,1.69921875 31.93359375,0 34.500732421875,2.92236471176147 36.3427734375,6.123046875 37.452392578125,9.58740234375 37.822265625,13.30078125 37.3974609375,17.43896484375 36.123046875,21.240234375 34.068603515625,24.4775390625 31.3037109375,26.923828125 27.960205078125,28.4619140625 24.169921875,28.974609375 21.9305419921875,28.67431640625 20.07568359375,27.7734375 18.6053466796875,26.27197265625 17.51953125,24.169921875 17.40234375,24.169921875 15.2490234375,26.7626953125 12.421875,28.359375 8.37890625,28.974609375 6.214599609375,28.721923828125 4.2333984375,27.9638671875 2.523193359375,26.66748046875 1.171875,24.7998046875 0.29296875,22.401123046875 0,19.51171875 0.2142333984375,16.8585205078125 0.85693359375,14.23095703125 1.9281005859375,11.6290283203125 3.427734375,9.052734375 7.55126953125,4.22607564926147 13.06640625,0z" />
    </g>
  </g>
</svg>