<?xml version="1.0" encoding="utf-8"?>
<!DOCTYPE svg PUBLIC "-//W3C//DTD SVG 1.1//EN" "http://www.w3.org/Graphics/SVG/1.1/DTD/svg11.dtd">
<svg width="29.1796875000001" height="40.927734375" xmlns="http://www.w3.org/2000/svg" xmlns:xlink="http://www.w3.org/1999/xlink" xmlns:xml="http://www.w3.org/XML/1998/namespace" version="1.1">
  <g>
    <g>
      <path style="fill:#FF0000;fill-opacity:1" d="M14.58984375,5.80078125L13.1918334960938,6.01776123046875 11.986083984375,6.668701171875 10.9725952148438,7.75360107421875 10.1513671875,9.2724609375 9.51690578460693,11.2435922622681 9.06371974945068,13.6853046417236 8.79180812835693,16.5975971221924 8.701171875,19.98046875 8.79089260101318,23.616943359375 9.06005764007568,26.7333984375 9.50866603851318,29.329833984375 10.13671875,31.40625 10.960693359375,32.99560546875 11.9970703125,34.130859375 13.245849609375,34.81201171875 14.70703125,35.0390625 16.0537719726563,34.8321533203125 17.222900390625,34.21142578125 18.2144165039063,33.1768798828125 19.0283203125,31.728515625 19.6627788543701,29.84619140625 20.1159648895264,27.509765625 20.3878765106201,24.71923828125 20.478515625,21.474609375 20.3887920379639,17.7832050323486 20.1196269989014,14.5898456573486 19.6710186004639,11.8945322036743 19.04296875,9.697265625 18.226318359375,7.9925537109375 17.2119140625,6.77490234375 15.999755859375,6.0443115234375 14.58984375,5.80078125z M14.970703125,0L18.3068828582764,0.3094482421875 21.1962871551514,1.23779296875 23.6389141082764,2.7850341796875 25.634765625,4.951171875 27.1856689453125,7.74353075027466 28.29345703125,11.1694345474243 28.9581298828125,15.2288827896118 29.1796875,19.921875 28.9425659179688,24.7677612304688 28.231201171875,28.992919921875 27.0455932617188,32.5973510742188 25.3857421875,35.5810546875 23.2644634246826,37.9202270507813 20.6945781707764,39.591064453125 17.6760845184326,40.5935668945313 14.208984375,40.927734375 10.8370971679688,40.6155395507813 7.928466796875,39.678955078125 5.48309326171875,38.1179809570313 3.5009765625,35.9326171875 1.96929931640625,33.1155395507813 0.87524402141571,29.659423828125 0.218810930848122,25.5642700195313 0,20.830078125 0.435790926218033,14.6484394073486 1.7431640625,9.462890625 3.89648413658142,5.350341796875 6.8701171875,2.3876953125 10.5871572494507,0.596923828125 14.970703125,0z" />
    </g>
  </g>
</svg>