<?xml version="1.0" encoding="utf-8"?>
<!DOCTYPE svg PUBLIC "-//W3C//DTD SVG 1.1//EN" "http://www.w3.org/Graphics/SVG/1.1/DTD/svg11.dtd">
<svg width="34.541015625" height="42.01171875" xmlns="http://www.w3.org/2000/svg" xmlns:xlink="http://www.w3.org/1999/xlink" xmlns:xml="http://www.w3.org/XML/1998/namespace" version="1.1">
  <g>
    <g>
      <path style="fill:#FF0000;fill-opacity:1" d="M8.994140625,0L17.138671875,0 13.271484375,17.87109375 12.9931640625,19.4384765625 12.890625,20.7421875 13.0444326400757,22.166748046875 13.505859375,23.1005859375 14.3115224838257,23.616943359375 15.498046875,23.7890625 17.578125,23.4375 19.6728515625,22.3681640625 21.4306640625,20.537109375 22.529296875,17.900390625 26.396484375,0 34.541015625,0 30.1171875,20.419921875 29.912109375,22.03125 30.1171875,23.1298828125 30.673828125,23.7158203125 31.5087890625,23.96484375 32.578125,24.0234375 33.076171875,24.0234375 32.109375,29.091796875 30.4833984375,29.443359375 28.9892578125,29.677734375 27.7587890625,29.794921875 26.923828125,29.82421875 24.55078125,29.47265625 23.0419921875,28.59375 22.1923828125,27.4365234375 21.796875,26.25 21.50390625,26.25 19.9072265625,27.7587890625 18.10546875,28.8720703125 16.2158203125,29.5751953125 14.384765625,29.82421875 12.0263671875,29.35546875 10.4296875,28.06640625 10.078125,28.18359375 9.755859375,30.0439453125 9.462890625,32.2705078125 9.2138671875,34.5703125 9.0234375,36.650390625 8.876953125,38.203125 8.7890625,38.935546875 8.14453125,42.01171875 0,42.01171875 8.994140625,0z" />
    </g>
  </g>
</svg>