<?xml version="1.0" encoding="utf-8"?>
<!DOCTYPE svg PUBLIC "-//W3C//DTD SVG 1.1//EN" "http://www.w3.org/Graphics/SVG/1.1/DTD/svg11.dtd">
<svg width="28.9453125000006" height="53.642578125" xmlns="http://www.w3.org/2000/svg" xmlns:xlink="http://www.w3.org/1999/xlink" xmlns:xml="http://www.w3.org/XML/1998/namespace" version="1.1">
  <g>
    <g>
      <path style="fill:#FF0000;fill-opacity:1" d="M8.3203125,0L28.9453125,0 28.154296875,3.75 23.5546875,7.5146484375 19.16015625,11.2060546875 15.234375,14.9560546875 12.0849609375,18.896484375 9.990234375,23.173828125 9.41894435882568,25.4736328125 9.228515625,27.919921875 9.9755859375,30.7763671875 11.8359375,32.9150390625 14.2529296875,34.7021484375 16.669921875,36.474609375 18.5302734375,38.5693359375 19.27734375,41.3671875 19.039306640625,43.494873046875 18.3251953125,45.4248046875 15.8935546875,48.75 12.626953125,51.4599609375 9.169921875,53.642578125 5.830078125,49.62890625 7.9541015625,48.1201171875 9.43359375,46.787109375 10.3125,45.52734375 10.60546875,44.23828125 10.4077138900757,43.223876953125 9.814453125,42.3486328125 7.8515625,40.7666015625 5.302734375,39.140625 2.75390601158142,37.119140625 0.791015386581421,34.3505859375 0.197753518819809,32.589111328125 0,30.498046875 0.318603128194809,27.008056640625 1.27441382408142,23.7451171875 2.81616163253784,20.643310546875 4.892578125,17.63671875 7.47802734375,14.6997089385986 10.546875,11.806640625 14.05517578125,8.89892673492432 17.958984375,5.91796875 18.017578125,5.56640625 7.1484375,5.56640625 8.3203125,0z" />
    </g>
  </g>
</svg>