<?xml version="1.0" encoding="utf-8"?>
<!DOCTYPE svg PUBLIC "-//W3C//DTD SVG 1.1//EN" "http://www.w3.org/Graphics/SVG/1.1/DTD/svg11.dtd">
<svg width="29.501953125" height="41.103515625" xmlns="http://www.w3.org/2000/svg" xmlns:xlink="http://www.w3.org/1999/xlink" xmlns:xml="http://www.w3.org/XML/1998/namespace" version="1.1">
  <g>
    <g>
      <path style="fill:#FF0000;fill-opacity:1" d="M0,0L9.345703125,0 10.740966796875,3.79028463363647 12.0556640625,8.3056640625 13.2019033432007,13.436279296875 14.091796875,19.072265625 14.384765625,19.072265625 16.376953125,14.53125 18.0908203125,10.1220703125 19.6142578125,5.419921875 21.03515625,0 29.501953125,0 27.1875,7.0751953125 23.73046875,14.501953125 19.62890625,21.9287109375 15.380859375,29.00390625 15.6005859375,32.142333984375 15.732421875,34.8779296875 15.79833984375,37.174072265625 15.8203125,38.994140625 15.8203125,41.103515625 6.53320264816284,41.103515625 7.2216796875,37.55859375 7.67578125,34.716796875 7.9248046875,32.1533203125 7.998046875,29.47265625 7.6318359375,25.13671875 6.6357421875,19.9658203125 5.1708984375,14.4140625 3.4423828125,8.9208984375 1.65527355670929,3.9697265625 0,0z" />
    </g>
  </g>
</svg>