<?xml version="1.0" encoding="utf-8"?>
<!DOCTYPE svg PUBLIC "-//W3C//DTD SVG 1.1//EN" "http://www.w3.org/Graphics/SVG/1.1/DTD/svg11.dtd">
<svg width="35.68359375" height="41.54296875" xmlns="http://www.w3.org/2000/svg" xmlns:xlink="http://www.w3.org/1999/xlink" xmlns:xml="http://www.w3.org/XML/1998/namespace" version="1.1">
  <g>
    <g>
      <path style="fill:#FF0000;fill-opacity:1" d="M24.873046875,3.046875L23.7487773895264,3.336181640625 22.7197265625,4.2041015625 21.84814453125,5.55908203125 21.1962890625,7.3095703125 20.654296875,11.25 20.797119140625,12.9895038604736 21.2255859375,14.2822265625 21.9873046875,15.2270526885986 23.1298828125,15.9228515625 24.7741680145264,16.4172382354736 27.041015625,16.7578125 27.626953125,12.65625 27.861328125,8.671875 27.6855449676514,6.02783203125 27.158203125,4.306640625 26.2353496551514,3.36181640625 24.873046875,3.046875z M25.341796875,0L27.6644878387451,0.19683837890625 29.7106914520264,0.787353515625 31.4804058074951,1.77154541015625 32.9736328125,3.1494140625 35.006103515625,6.976318359375 35.68359375,12.158203125 35.29541015625,17.1240253448486 34.130859375,22.353515625 32.230224609375,27.498779296875 29.6337890625,32.2119140625 26.4477519989014,36.18896484375 22.7783203125,39.1259765625 18.739013671875,40.938720703125 14.443359375,41.54296875 10.2978515625,41.048583984375 7.294921875,39.5654296875 5.47119140625,37.144775390625 4.86328125,33.837890625 5.04638671875,31.9189453125 5.595703125,29.326171875 6.708984375,24.873046875 6.9580078125,23.5546875 7.060546875,22.5 6.708984375,20.888671875 5.595703125,20.361328125 3.86718797683716,20.9765625 2.10937476158142,22.55859375 0,20.478515625 2.7978515625,18.1787109375 5.09765625,16.8896484375 7.060546875,16.2744140625 9.140625,16.11328125 11.6601552963257,16.4941425323486 13.53515625,17.63671875 14.6997060775757,19.51171875 15.087890625,22.08984375 14.9560546875,24.0087890625 14.443359375,26.484375 13.59375,30 13.0004873275757,32.8125 12.802734375,34.6875 12.9748525619507,36.185302734375 13.4912109375,37.2216796875 14.3884267807007,37.825927734375 15.703125,38.02734375 18.043212890625,37.4853515625 20.1416015625,35.859375 22.0166015625,33.197021484375 23.6865234375,29.5458984375 25.1623516082764,25.030517578125 26.455078125,19.775390625 23.4768676757813,19.442138671875 20.899658203125,18.8818359375 18.7234497070313,18.094482421875 16.9482421875,17.080078125 15.5703725814819,15.8386240005493 14.5861806869507,14.3701190948486 13.9956655502319,12.6745615005493 13.798828125,10.751953125 14.1723623275757,7.679443359375 15.29296875,5.0244140625 17.07275390625,2.867431640625 19.423828125,1.2890625 22.2216796875,0.322265625 25.341796875,0z" />
    </g>
  </g>
</svg>