<?xml version="1.0" encoding="utf-8"?>
<!DOCTYPE svg PUBLIC "-//W3C//DTD SVG 1.1//EN" "http://www.w3.org/Graphics/SVG/1.1/DTD/svg11.dtd">
<svg width="33.2812500000001" height="40.95703125" xmlns="http://www.w3.org/2000/svg" xmlns:xlink="http://www.w3.org/1999/xlink" xmlns:xml="http://www.w3.org/XML/1998/namespace" version="1.1">
  <g>
    <g>
      <path style="fill:#FF0000;fill-opacity:1" d="M22.001953125,0L26.2353515625,0.3369140625 29.12109375,1.3037109375 31.11328125,2.724609375 32.080078125,3.72802734375 33.28125,5.15625 26.865234375,8.26171875 25.4077129364014,6.302490234375 23.90625,4.9365234375 22.3022441864014,4.134521484375 20.537109375,3.8671875 17.62939453125,4.346923828125 15.46875,5.7861328125 14.12841796875,8.01635837554932 13.681640625,10.869140625 13.9013671875,12.6672382354736 14.560546875,14.3115234375 15.655517578125,15.6921405792236 17.1826171875,16.69921875 19.097900390625,17.314453125 21.357421875,17.51953125 26.572265625,17.255859375 25.546875,20.595703125 21.826171875,22.001953125 18.7371826171875,22.1566772460938 16.06201171875,22.562255859375 13.8006591796875,23.2186889648438 11.953125,24.1259765625 10.517578125,25.2804565429688 9.4921875,26.678466796875 8.876953125,28.3200073242188 8.671875,30.205078125 9.4189453125,33.2958984375 11.572265625,35.4931640625 13.0810537338257,36.097412109375 14.794921875,36.298828125 19.3359375,35.6396484375 23.3642578125,33.7353515625 25.5505352020264,32.120361328125 28.212890625,29.765625 30.1171875,31.7578125 30.1171875,33.8671875 27.7075176239014,35.74951171875 25.693359375,37.177734375 21.8408203125,39.228515625 17.431640625,40.517578125 12.421875,40.95703125 8.470458984375,40.634765625 5.2880859375,39.66796875 2.87841773033142,38.177490234375 1.2451171875,36.2841796875 0.311279118061066,34.053955078125 0,31.552734375 0.747070074081421,27.681884765625 2.98828101158142,24.4482421875 6.70165967941284,21.895751953125 11.865234375,20.068359375 11.865234375,19.74609375 9.136962890625,17.841796875 7.3388671875,15.9375 6.339111328125,13.8208026885986 6.005859375,11.279296875 6.5625,8.43017673492432 8.232421875,5.7421875 10.8508291244507,3.394775390625 14.2529296875,1.5673828125 18.087158203125,0.391845703125 22.001953125,0z" />
    </g>
  </g>
</svg>