<?xml version="1.0" encoding="utf-8"?>
<!DOCTYPE svg PUBLIC "-//W3C//DTD SVG 1.1//EN" "http://www.w3.org/Graphics/SVG/1.1/DTD/svg11.dtd">
<svg width="71.30859375" height="40.927734375" xmlns="http://www.w3.org/2000/svg" xmlns:xlink="http://www.w3.org/1999/xlink" xmlns:xml="http://www.w3.org/XML/1998/namespace" version="1.1">
  <g>
    <g>
      <path style="fill:#FF0000;fill-opacity:1" d="M21.09375,0L24.7412090301514,0.538330078125 27.59765625,2.1533203125 28.7704448699951,3.4332275390625 29.8278789520264,5.11962890625 30.7699565887451,7.2125244140625 31.5966796875,9.7119140625 32.3391723632813,12.6809701919556 33.028564453125,16.1828632354736 33.6648559570313,20.2175922393799 34.248046875,24.78515625 34.74609375,24.84375 38.0419921875,18.75732421875 41.015625,13.798828125 43.73291015625,9.86572456359863 46.259765625,6.85546875 48.5668907165527,4.7314453125 51.03515625,2.98828125 56.162109375,0.76171875 61.552734375,0.029296875 64.4091796875,0.2197265625 66.62109375,0.9521484375 68.8623046875,2.5048828125 70.052490234375,3.739013671875 71.30859375,5.419921875 65.771484375,8.525390625 64.837646484375,6.448974609375 63.7353515625,4.8486328125 62.5012168884277,3.826904296875 61.171875,3.48632907867432 59.4287109375,4.1162109375 58.2421875,6.064453125 57.7001914978027,7.84423828125 57.0703125,10.546875 53.291015625,28.2421875 52.6318359375,31.6845703125 52.3828125,34.27734375 52.7490234375,35.80078125 53.7890625,36.328125 54.9133262634277,36.10107421875 56.1767578125,35.419921875 57.6379356384277,34.27734375 59.35546875,32.666015625 61.611328125,35.185546875 59.8205528259277,36.95068359375 58.1396484375,38.3203125 54.4775390625,40.2099609375 50.009765625,40.927734375 47.420654296875,40.499267578125 45.4541015625,39.2138671875 44.212646484375,37.181396484375 43.798828125,34.51171875 43.897705078125,33.0029296875 44.1943359375,31.0546875 44.666748046875,28.6669921875 45.29296875,25.83984375 46.904296875,18.837890625 47.89306640625,15.0073261260986 49.3359375,10.01953125 48.80859375,10.01953125 47.4636840820313,11.7599496841431 45.948486328125,13.9343280792236 44.2630004882813,16.5426654815674 42.4072265625,19.5849609375 38.455810546875,26.466064453125 34.365234375,34.072265625 30.29296875,35.888671875 28.30078125,35.888671875 27.2570781707764,28.311767578125 26.1181640625,21.2841796875 25.5294780731201,18.1027240753174 24.9499492645264,15.3112812042236 24.3795757293701,12.9098520278931 23.818359375,10.8984375 23.349609375,10.869140625 22.93212890625,13.8500995635986 22.08984375,18.10546875 19.51171875,30.1171875 18.662109375,33.248291015625 17.578125,35.8447265625 16.16455078125,37.935791015625 14.326171875,39.55078125 12.0190420150757,40.58349609375 9.19921779632568,40.927734375 5.625,40.341796875 2.6220703125,38.61328125 1.285400390625,37.265625 0,35.5078125 5.53710985183716,32.40234375 6.45629835128784,34.515380859375 7.5732421875,36.1083984375 8.785400390625,37.108154296875 9.990234375,37.44140625 11.77734375,36.9287109375 12.3925771713257,36.2255859375 12.94921875,35.1416015625 13.4765615463257,33.555908203125 14.00390625,31.34765625 16.7578125,18.3984375 17.537841796875,14.8168964385986 18.1201171875,12.451171875 19.1455078125,9.228515625 20.5078125,6.123046875 19.1748046875,5.2587890625 17.373046875,4.921875 15.9667959213257,5.152587890625 14.4726552963257,5.8447265625 12.8906240463257,6.998291015625 11.220703125,8.61328125 8.84765625,6.298828125 11.35986328125,3.966064453125 13.388671875,2.3583984375 16.962890625,0.556640625 21.09375,0z" />
    </g>
  </g>
</svg>