<?xml version="1.0" encoding="utf-8"?>
<!DOCTYPE svg PUBLIC "-//W3C//DTD SVG 1.1//EN" "http://www.w3.org/Graphics/SVG/1.1/DTD/svg11.dtd">
<svg width="26.865234375" height="29.970703125" xmlns="http://www.w3.org/2000/svg" xmlns:xlink="http://www.w3.org/1999/xlink" xmlns:xml="http://www.w3.org/XML/1998/namespace" version="1.1">
  <g>
    <g>
      <path style="fill:#FF0000;fill-opacity:1" d="M18.33984375,4.189453125L15.589599609375,4.87793111801147 12.9638671875,6.943359375 10.6164541244507,10.27587890625 8.701171875,14.765625 10.2978515625,13.0224609375 11.66015625,12.12890625 14.849853515625,11.854248046875 17.3291015625,11.2646484375 19.13818359375,10.426025390625 20.3173828125,9.404296875 20.965576171875,8.232421875 21.181640625,6.943359375 20.9912109375,5.848388671875 20.419921875,4.9658203125 19.51904296875,4.38354635238647 18.33984375,4.189453125z M21.03515625,0L23.5400371551514,0.347901821136475 25.37109375,1.3916015625 26.4916973114014,3.02856588363647 26.865234375,5.15625 26.3049297332764,7.869873046875 24.6240234375,10.4443359375 21.8811016082764,12.755126953125 18.134765625,14.677734375 13.52783203125,16.11328125 8.203125,16.962890625 7.9541015625,18.2373046875 7.8515625,19.716796875 8.0859375,21.903076171875 8.7890625,23.3642578125 10.0341787338257,24.188232421875 11.89453125,24.462890625 14.208984375,24.169921875 16.7138671875,23.1591796875 19.5849609375,21.240234375 21.405029296875,19.68017578125 23.84765625,17.40234375 26.3671875,19.658203125 21.690673828125,24.2431640625 17.4462890625,27.451171875 13.311767578125,29.3408203125 8.96484375,29.970703125 5.115966796875,29.42138671875 2.29980492591858,27.7734375 0.574951410293579,25.05615234375 0,21.298828125 0.476074427366257,17.5341796875 1.90429711341858,13.740234375 4.21875,10.037841796875 7.353515625,6.5478515625 10.8654775619507,3.61450338363647 14.3115234375,1.58203125 17.698974609375,0.395509243011475 21.03515625,0z" />
    </g>
  </g>
</svg>