<?xml version="1.0" encoding="utf-8"?>
<!DOCTYPE svg PUBLIC "-//W3C//DTD SVG 1.1//EN" "http://www.w3.org/Graphics/SVG/1.1/DTD/svg11.dtd">
<svg width="40.751953125" height="40.6640625" xmlns="http://www.w3.org/2000/svg" xmlns:xlink="http://www.w3.org/1999/xlink" xmlns:xml="http://www.w3.org/XML/1998/namespace" version="1.1">
  <g>
    <g>
      <path style="fill:#FF0000;fill-opacity:1" d="M20.244140625,21.26953125L19.86328125,22.998046875 18.57421875,27.3779296875 16.376953125,31.7578125 13.271484375,35.185546875 13.505859375,35.5078125 15.52001953125,35.58837890625 18.046875,35.830078125 20.50048828125,36.09375 22.294921875,36.181640625 26.2536602020264,35.687255859375 29.1064453125,34.2041015625 30.831298828125,31.768798828125 31.40625,28.41796875 31.168212890625,26.337890625 30.4541015625,24.609375 29.2492656707764,23.221435546875 27.5390625,22.1630859375 25.0048809051514,21.492919921875 21.328125,21.26953125 20.244140625,21.26953125z M23.90625,4.248046875L20.9765625,17.6953125 23.0859375,17.6953125 26.953125,17.314453125 29.6923828125,16.0546875 31.4794921875,13.7841796875 32.16796875,10.37109375 31.63330078125,7.77099704742432 30.029296875,5.888671875 27.4291973114014,4.716796875 23.90625,4.248046875z M20.537109375,0L22.177734375,0 25.8691387176514,0.05126953125 28.623046875,0.205078125 31.6552734375,0.615234375 34.189453125,1.259765625 36.3427734375,2.16064453125 38.056640625,3.28125 40.0927734375,5.888671875 40.751953125,9.43359375 40.283203125,12.1948261260986 38.876953125,14.619140625 36.43798828125,16.787109375 32.87109375,18.779296875 32.87109375,19.013671875 35.7421875,20.555419921875 37.734375,22.4853515625 38.89892578125,24.942626953125 39.287109375,28.06640625 38.6572265625,31.234130859375 36.767578125,34.2333984375 33.779296875,36.859130859375 29.853515625,38.90625 25.3344707489014,40.224609375 20.56640625,40.6640625 17.75390625,40.576171875 14.4140625,40.3125 11.42578125,40.078125 9.375,39.990234375 6.02783155441284,40.15869140625 3.25195360183716,40.6640625 1.728515625,38.02734375 4.16015625,36.61376953125 7.060546875,35.478515625 9.4775390625,30.029296875 10.433349609375,26.806640625 11.279296875,23.173828125 12.158203125,19.013671875 12.8009023666382,16.1059589385986 13.4106435775757,13.5937519073486 13.9874258041382,11.4770517349243 14.53125,9.755859375 15.7763671875,6.92138671875 17.40234375,4.51171875 17.2265625,4.189453125 14.677734375,4.237060546875 12.59765625,4.3798828125 9.638671875,4.951171875 7.939453125,5.8447265625 7.1484375,7.001953125 6.943359375,8.466796875 7.32421875,10.60546875 8.37890625,12.65625 1.49414086341858,15.498046875 0.684814453125,13.8830585479736 0.2490234375,12.7880859375 0,10.95703125 0.483398199081421,8.8623046875 2.1826171875,6.2548828125 5.126953125,3.662109375 7.3828125,2.288818359375 9.404296875,1.3330078125 13.7255859375,0.29296875 16.636962890625,0.0732421875 20.537109375,0z" />
    </g>
  </g>
</svg>