<?xml version="1.0" encoding="utf-8"?>
<!DOCTYPE svg PUBLIC "-//W3C//DTD SVG 1.1//EN" "http://www.w3.org/Graphics/SVG/1.1/DTD/svg11.dtd">
<svg width="31.4062500000001" height="42.392578125" xmlns="http://www.w3.org/2000/svg" xmlns:xlink="http://www.w3.org/1999/xlink" xmlns:xml="http://www.w3.org/XML/1998/namespace" version="1.1">
  <g>
    <g>
      <path style="fill:#FF0000;fill-opacity:1" d="M16.611328125,15.849609375L14.677734375,16.0510272979736 12.978515625,16.6552734375 10.048828125,18.9404296875 7.6171875,22.529296875 5.9033203125,27.1435546875 5.2734375,32.138671875 5.570068359375,34.852294921875 6.4599609375,36.7822265625 7.943115234375,37.935791015625 10.01953125,38.3203125 12.8466796875,37.880859375 15.322265625,36.533203125 17.5341796875,34.62890625 19.013671875,32.5341796875 19.541015625,31.146240234375 20.068359375,29.1796875 21.240234375,23.935546875 21.6796855926514,21.62109375 21.826171875,19.951171875 21.4709453582764,18.211669921875 20.4052734375,16.9189453125 18.746337890625,16.1169452667236 16.611328125,15.849609375z M29.677734375,0L31.40625,0 22.177734375,41.923828125 17.373046875,41.923828125 18.076171875,38.642578125 17.8125,38.61328125 15.054931640625,40.42236328125 12.7001953125,41.572265625 10.5285634994507,42.1875 8.3203125,42.392578125 4.84497022628784,41.7333984375 2.21191334724426,39.755859375 0.552978277206421,36.62109375 0,32.490234375 0.227050602436066,29.1064453125 0.908203125,25.810546875 3.38378882408142,19.98046875 5.07202100753784,17.6110858917236 7.001953125,15.6591796875 9.13330078125,14.1247577667236 11.42578125,13.0078125 13.9599609375,12.3266620635986 16.81640625,12.099609375 20.2587890625,12.451171875 23.49609375,13.740234375 26.455078125,0.234375 29.677734375,0z" />
    </g>
  </g>
</svg>