<?xml version="1.0" encoding="utf-8"?>
<!DOCTYPE svg PUBLIC "-//W3C//DTD SVG 1.1//EN" "http://www.w3.org/Graphics/SVG/1.1/DTD/svg11.dtd">
<svg width="59.4433593750001" height="43.30078125" xmlns="http://www.w3.org/2000/svg" xmlns:xlink="http://www.w3.org/1999/xlink" xmlns:xml="http://www.w3.org/XML/1998/namespace" version="1.1">
  <g>
    <g>
      <path style="fill:#FF0000;fill-opacity:1" d="M12.275390625,0L15.369873046875,0.303955078125 18.0322265625,1.2158203125 20.196533203125,2.698974609375 21.796875,4.716796875 22.9174785614014,3.1787109375 24.697265625,1.904296875 26.9457988739014,1.04736328125 29.47265625,0.76171875 31.988525390625,1.0546875 34.2041015625,1.93359375 35.943603515625,3.31787109375 37.03125,5.126953125 38.349609375,3.226318359375 40.13671875,1.8603515625 42.37060546875,1.036376953125 45.029296875,0.76171875 47.3730430603027,0.966796875 49.482421875,1.58203125 51.2695274353027,2.633056640625 52.646484375,4.1455078125 53.5253868103027,6.090087890625 53.818359375,8.4375 54.0820274353027,10.3271503448486 54.873046875,11.6015625 56.2353477478027,12.3266620635986 58.212890625,12.568359375 58.212890625,14.82421875 56.4990196228027,15.0695819854736 55.224609375,15.5126953125 53.466796875,17.1240234375 52.8478965759277,18.43505859375 52.3974609375,20.2294921875 52.1227989196777,22.532958984375 52.03125,25.37109375 52.03125,29.326171875 52.2436485290527,31.94091796875 52.880859375,33.80859375 53.9648399353027,34.92919921875 55.517578125,35.302734375 56.6821250915527,35.0244140625 57.94921875,34.189453125 59.443359375,36.123046875 57.099609375,37.763671875 54.4647178649902,39.5745849609375 52.3608360290527,41.08154296875 50.7879600524902,42.2845458984375 49.74609375,43.18359375 47.8820762634277,41.65283203125 46.5673828125,40.458984375 44.8095703125,38.2763671875 43.7109375,35.4638671875 43.42529296875,33.614501953125 43.330078125,31.376953125 43.330078125,25.01953125 43.839111328125,20.5078125 45.3662109375,17.28515625 48.0432090759277,15.1611347198486 52.001953125,13.9453125 49.4091758728027,13.6084003448486 47.431640625,13.0078125 46.007080078125,12.1362323760986 45.0732421875,10.986328125 44.556884765625,9.49951267242432 44.384765625,7.6171875 43.6962890625,5.5810546875 41.66015625,4.833984375 40.15869140625,5.22216796875 39.111328125,6.38671875 38.49609375,8.349609375 38.291015625,11.1328125 38.291015625,27.12890625 38.0712890625,30.296630859375 37.412109375,32.7685546875 36.295166015625,34.7900390625 34.7021484375,36.6064453125 30.791015625,39.697265625 28.0297832489014,41.62353515625 26.19140625,43.125 21.767578125,39.55078125 18.662109375,42.392578125 17.021484375,40.693359375 25.01953125,33.28125 29.296875,37.32421875 29.8681640625,36.005859375 30.146484375,34.306640625 30.087890625,32.724609375 29.853515625,30.703125 29.560546875,26.015625 29.560546875,11.220703125 29.3737773895264,8.426513671875 28.8134765625,6.4306640625 27.8430156707764,5.233154296875 26.42578125,4.833984375 24.8876953125,5.2294921875 23.818359375,6.50390625 23.232421875,8.61328125 23.0859375,11.220703125 23.0859375,25.37109375 23.0383281707764,27.12890625 22.8955078125,28.4765625 22.265625,30.6884765625 21.0205078125,32.8857421875 19.013671875,35.244140625 16.6845703125,37.4560546875 15.194091796875,38.675537109375 12.978515625,40.37109375 10.8984375,41.982421875 9.609375,43.30078125 4.599609375,38.583984375 1.64062452316284,40.95703125 0.292968273162842,39.08203125 8.61328125,32.16796875 13.271484375,36.796875 14.0625,35.4345703125 14.326171875,33.45703125 14.326171875,10.986328125 14.24560546875,8.177490234375 14.00390625,6.2548828125 12.861328125,3.9404296875 11.8579092025757,3.314208984375 10.48828125,3.10546875 8.843994140625,3.372802734375 7.5439453125,4.1748046875 6.697998046875,5.408935546875 6.416015625,6.97265625 6.62109375,8.291015625 7.4267578125,9.873046875 9.19921875,12.158203125 10.517578125,13.916015625 11.54296875,15.966796875 11.953125,18.3984375 11.3928213119507,21.295166015625 9.7119140625,23.7744140625 6.961669921875,25.814208984375 3.19335889816284,27.392578125 2.255859375,25.3125 3.76464796066284,24.4921875 4.71679639816284,23.671875 5.390625,21.767578125 4.74609375,19.6728515625 3.91113233566284,18.453369140625 2.6953125,16.93359375 1.39160132408142,15.1318359375 0.395507335662842,13.0224609375 0,10.48828125 0.3955078125,7.730712890625 1.58203148841858,5.2001953125 3.486328125,3.03955078125 6.03515625,1.3916015625 9.03076171875,0.347900390625 12.275390625,0z" />
    </g>
  </g>
</svg>