<?xml version="1.0" encoding="utf-8"?>
<!DOCTYPE svg PUBLIC "-//W3C//DTD SVG 1.1//EN" "http://www.w3.org/Graphics/SVG/1.1/DTD/svg11.dtd">
<svg width="44.2968750000001" height="41.865234375" xmlns="http://www.w3.org/2000/svg" xmlns:xlink="http://www.w3.org/1999/xlink" xmlns:xml="http://www.w3.org/XML/1998/namespace" version="1.1">
  <g>
    <g>
      <path style="fill:#FF0000;fill-opacity:1" d="M21.474609375,8.203125L20.126953125,9.7119140625 19.74609375,11.220703125 20.2587890625,13.6083984375 21.73828125,16.23046875 23.1591796875,19.04296875 23.701171875,22.20703125 23.3715801239014,24.569091796875 22.3828125,26.9677734375 20.7275390625,29.329833984375 18.3984375,31.58203125 19.9658203125,32.45361328125 21.9140625,33.779296875 24.404296875,35.390625 26.396484375,36.1376953125 28.9453125,36.416015625 31.732177734375,36.053466796875 34.2333984375,34.9658203125 36.331787109375,33.248291015625 37.91015625,30.99609375 38.89892578125,28.4033203125 39.228515625,25.6640625 38.668212890625,21.6064453125 36.9873046875,17.75390625 34.2919921875,14.3151874542236 30.6884765625,11.4990234375 26.3561992645264,9.42260932922363 21.474609375,8.203125z M17.900390625,0L22.3571758270264,0.208740234375 26.3525390625,0.8349609375 29.912109375,1.8310546875 33.0615234375,3.1494140625 35.797119140625,4.75341796875 38.115234375,6.6064453125 41.6015625,10.9130859375 43.6376953125,15.8056640625 44.296875,20.91796875 43.641357421875,26.455078125 41.6748046875,31.5234375 38.5400390625,35.83740234375 34.3798828125,39.111328125 29.498291015625,41.1767578125 24.19921875,41.865234375 20.3466796875,41.4404296875 17.1826171875,40.37109375 14.47265625,38.935546875 12.1765127182007,37.6025390625 10.3857421875,36.708984375 7.353515625,36.03515625 5.89599609375,36.236572265625 4.62890625,36.8408203125 3.46435546875,37.891845703125 2.31445264816284,39.43359375 0.0878909826278687,37.763671875 2.71728515625,34.2333984375 5.62500047683716,31.787109375 8.86962890625,30.35888671875 12.509765625,29.8828125 15.498046875,30.322265625 16.40625,28.916015625 16.7578125,27.392578125 16.2158203125,25.5615234375 14.6484375,23.115234375 13.1689453125,20.2734375 12.59765625,17.080078125 12.83203125,14.8974609375 13.59375,12.890625 14.970703125,10.8544921875 16.1572265625,9.56909370422363 18.017578125,7.734375 17.314453125,7.67578125 14.94140625,7.529296875 11.3671865463257,7.74169921875 8.4375,8.37890625 6.170654296875,9.39697456359863 4.58496046066284,10.751953125 3.651123046875,12.3486347198486 3.33984375,14.091796875 3.6328125,16.1572284698486 4.51171875,18.134765625 2.05078125,19.248046875 0.600585699081421,16.1279296875 0,12.890625 0.5419921875,9.58740329742432 2.16796898841858,6.474609375 4.81201124191284,3.779296875 8.408203125,1.728515625 12.8173828125,0.43212890625 17.900390625,0z" />
    </g>
  </g>
</svg>