<?xml version="1.0" encoding="utf-8"?>
<!DOCTYPE svg PUBLIC "-//W3C//DTD SVG 1.1//EN" "http://www.w3.org/Graphics/SVG/1.1/DTD/svg11.dtd">
<svg width="37.3828125" height="57.01171875" xmlns="http://www.w3.org/2000/svg" xmlns:xlink="http://www.w3.org/1999/xlink" xmlns:xml="http://www.w3.org/XML/1998/namespace" version="1.1">
  <g>
    <g>
      <path style="fill:#FF0000;fill-opacity:1" d="M18.515625,20.09765625L18.20068359375,21.6943359375 17.841796875,22.91015625 11.30859375,40.810546875 25.869140625,40.810546875 19.27734375,22.91015625 18.955078125,21.767578125 18.6328125,20.09765625 18.515625,20.09765625z M16.11328125,15L21.2109375,15 37.3828125,57.01171875 31.93359375,57.01171875 27.48046875,45.234375 9.66796875,45.234375 5.47851610183716,57.01171875 0,57.01171875 16.11328125,15z M23.994140625,5.244140625L25.1330547332764,5.45288372039795 26.0888671875,6.0791015625 26.7370586395264,7.00561809539795 26.953125,8.115234375 26.7443828582764,9.228515625 26.1181640625,10.166015625 25.1843242645264,10.80322265625 24.052734375,11.015625 22.96142578125,10.810546875 22.03125,10.1953125 21.39404296875,9.26513671875 21.181640625,8.115234375 21.390380859375,6.98730754852295 22.0166015625,6.064453125 22.928466796875,5.44922161102295 23.994140625,5.244140625z M12.744140625,5.244140625L13.8610830307007,5.45288372039795 14.8095703125,6.0791015625 15.457763671875,7.00561809539795 15.673828125,8.115234375 15.465087890625,9.228515625 14.8388671875,10.166015625 13.9123525619507,10.80322265625 12.802734375,11.015625 11.6821279525757,10.806884765625 10.72265625,10.1806640625 10.0634765625,9.246826171875 9.84375,8.115234375 10.052490234375,6.98730754852295 10.6787109375,6.064453125 11.6125478744507,5.44922161102295 12.744140625,5.244140625z M10.986328125,0L25.869140625,0 25.869140625,3.193359375 10.986328125,3.193359375 10.986328125,0z" />
    </g>
  </g>
</svg>