<?xml version="1.0" encoding="utf-8"?>
<!DOCTYPE svg PUBLIC "-//W3C//DTD SVG 1.1//EN" "http://www.w3.org/Graphics/SVG/1.1/DTD/svg11.dtd">
<svg width="38.642578125" height="49.541015625" xmlns="http://www.w3.org/2000/svg" xmlns:xlink="http://www.w3.org/1999/xlink" xmlns:xml="http://www.w3.org/XML/1998/namespace" version="1.1">
  <g>
    <g>
      <path style="fill:#FF0000;fill-opacity:1" d="M35.830078125,0L38.642578125,0.556640386581421 38.642578125,4.658203125 36.38671875,4.072265625 34.925537109375,4.3798828125 33.8818359375,5.302734375 33.255615234375,6.8408203125 33.046875,8.994140625 33.486328125,13.564453125 33.251953125,13.740234375 30.4193115234375,12.35595703125 27.51708984375,11.3671875 24.5452880859375,10.77392578125 21.50390625,10.576171875 18.065185546875,10.8782958984375 14.9560546875,11.78466796875 12.176513671875,13.2952880859375 9.7265625,15.41015625 7.72705078125,18.0120868682861 6.298828125,20.9838886260986 5.44189453125,24.3255634307861 5.15625,28.037109375 5.4180908203125,31.8081665039063 6.20361328125,35.152587890625 7.5128173828125,38.0703735351563 9.345703125,40.5615234375 11.627197265625,42.5546264648438 14.2822265625,43.978271484375 17.310791015625,44.8324584960938 20.712890625,45.1171875 25.3051738739014,44.62646484375 29.23828125,43.154296875 29.23828125,31.376953125 20.0390625,31.376953125 20.0390625,26.923828125 34.21875,26.923828125 34.21875,45.966796875 30.963134765625,47.530517578125 27.5244140625,48.6474609375 23.902587890625,49.317626953125 20.09765625,49.541015625 15.8157348632813,49.178466796875 11.964111328125,48.0908203125 8.54278564453125,46.278076171875 5.5517578125,43.740234375 3.12286400794983,40.60546875 1.38793969154358,37.001953125 0.34698498249054,32.9296875 0,28.388671875 0.38543713092804,23.7295532226563 1.54174828529358,19.508056640625 3.46893334388733,15.7241821289063 6.1669921875,12.3779296875 9.45648193359375,9.64141845703125 13.157958984375,7.686767578125 17.2714233398438,6.51397705078125 21.796875,6.123046875 25.3198223114014,6.3720703125 28.798828125,7.119140625 29.35546875,4.398193359375 30.849609375,2.0947265625 33.076171875,0.523684501647949 35.830078125,0z" />
    </g>
  </g>
</svg>