<?xml version="1.0" encoding="utf-8"?>
<!DOCTYPE svg PUBLIC "-//W3C//DTD SVG 1.1//EN" "http://www.w3.org/Graphics/SVG/1.1/DTD/svg11.dtd">
<svg width="33.544921875" height="69.4921875" xmlns="http://www.w3.org/2000/svg" xmlns:xlink="http://www.w3.org/1999/xlink" xmlns:xml="http://www.w3.org/XML/1998/namespace" version="1.1">
  <g>
    <g>
      <path style="fill:#FF0000;fill-opacity:1" d="M0.84960949420929,13.359375L30.908203125,13.359375 30.908203125,15.5859375 15.966796875,35.68359375 19.7653179168701,36.2567138671875 23.1628398895264,37.30224609375 26.1593608856201,38.8201904296875 28.7548828125,40.810546875 30.8505249023438,43.1964111328125 32.347412109375,45.90087890625 33.2455444335938,48.9239501953125 33.544921875,52.265625 33.1777954101563,55.850830078125 32.076416015625,59.1064453125 30.2407836914063,62.032470703125 27.6708984375,64.62890625 24.5516967773438,66.756591796875 21.068115234375,68.2763671875 17.2201538085938,69.188232421875 13.0078125,69.4921875 9.64599609375,69.2962646484375 6.357421875,68.70849609375 3.14208960533142,67.7288818359375 0,66.357421875 0,61.0546875 3.27758765220642,62.7978515625 6.5478515625,64.04296875 9.810791015625,64.7900390625 13.06640625,65.0390625 16.318359375,64.8202514648438 19.248046875,64.163818359375 21.85546875,63.0697631835938 24.140625,61.5380859375 25.9991436004639,59.6566772460938 27.3266582489014,57.513427734375 28.1231670379639,55.1083374023438 28.388671875,52.44140625 28.1112651824951,49.6197509765625 27.2790508270264,47.13134765625 25.8920269012451,44.9761962890625 23.9501953125,43.154296875 21.5213012695313,41.7059326171875 18.673095703125,40.67138671875 15.4055786132813,40.0506591796875 11.71875,39.84375 9.0234375,39.84375 9.0234375,37.6171875 23.701171875,17.8125 0.84960949420929,17.8125 0.84960949420929,13.359375z M6.76757764816284,0L10.13671875,0 14.94140625,6.708984375 19.74609375,0 23.232421875,0 16.962890625,9.66796875 13.095703125,9.66796875 6.76757764816284,0z" />
    </g>
  </g>
</svg>