<?xml version="1.0" encoding="utf-8"?>
<!DOCTYPE svg PUBLIC "-//W3C//DTD SVG 1.1//EN" "http://www.w3.org/Graphics/SVG/1.1/DTD/svg11.dtd">
<svg width="33.662109375" height="57.978515625" xmlns="http://www.w3.org/2000/svg" xmlns:xlink="http://www.w3.org/1999/xlink" xmlns:xml="http://www.w3.org/XML/1998/namespace" version="1.1">
  <g>
    <g>
      <path style="fill:#FF0000;fill-opacity:1" d="M28.037109375,13.857421875L32.841796875,13.857421875 32.841796875,42.59765625 32.6559448242188,46.0775756835938 32.098388671875,49.134521484375 31.1691284179688,51.7684936523438 29.8681640625,53.9794921875 28.2211303710938,55.7290649414063 26.253662109375,56.978759765625 23.9657592773438,57.7285766601563 21.357421875,57.978515625 19.3359355926514,57.744140625 17.373046875,57.041015625 17.373046875,52.55859375 19.4824199676514,53.54736328125 21.474609375,53.876953125 24.345703125,53.221435546875 26.396484375,51.2548828125 27.626953125,47.977294921875 28.037109375,43.388671875 28.037109375,13.857421875z M0,1.845703125L4.921875,1.845703125 4.921875,39.404296875 21.796875,39.404296875 21.796875,43.857421875 0,43.857421875 0,1.845703125z M30.498046875,0L31.717529296875,0.223388671875 32.7392578125,0.8935546875 33.431396484375,1.900634765625 33.662109375,3.134765625 33.431396484375,4.32861328125 32.7392578125,5.33203125 31.717529296875,6.01318359375 30.498046875,6.240234375 29.30419921875,6.0205078125 28.30078125,5.361328125 27.61962890625,4.365234375 27.392578125,3.134765625 27.61962890625,1.900634765625 28.30078125,0.8935546875 29.30419921875,0.223388671875 30.498046875,0z" />
    </g>
  </g>
</svg>