<?xml version="1.0" encoding="utf-8"?>
<!DOCTYPE svg PUBLIC "-//W3C//DTD SVG 1.1//EN" "http://www.w3.org/Graphics/SVG/1.1/DTD/svg11.dtd">
<svg width="25.37109375" height="42.71484375" xmlns="http://www.w3.org/2000/svg" xmlns:xlink="http://www.w3.org/1999/xlink" xmlns:xml="http://www.w3.org/XML/1998/namespace" version="1.1">
  <g>
    <g>
      <path style="fill:#FF0000;fill-opacity:1" d="M13.330078125,0L15.9915161132813,0.18951416015625 18.350830078125,0.758056640625 20.4080200195313,1.70562744140625 22.1630859375,3.0322265625 23.5665874481201,4.68109130859375 24.5690898895264,6.595458984375 25.1705913543701,8.77532958984375 25.37109375,11.220703125 25.0799541473389,13.8262948989868 24.2065410614014,16.5161151885986 22.7508525848389,19.2901630401611 20.712890625,22.1484375 25.37109375,22.1484375 25.37109375,26.455078125 16.875,26.455078125 5.771484375,38.37890625 25.3125,38.37890625 25.3125,42.71484375 0,42.71484375 0,38.4375 11.220703125,26.455078125 3.80859375,26.455078125 3.80859375,22.1484375 15.17578125,22.1484375 17.783203125,18.9587421417236 19.453125,16.3623046875 20.35400390625,14.0148944854736 20.654296875,11.572265625 20.126953125,8.4375 18.544921875,6.064453125 16.01806640625,4.5703125 12.65625,4.072265625 9.89501953125,4.37255859375 7.177734375,5.2734375 4.50439453125,6.77490234375 1.875,8.876953125 1.875,3.837890625 4.3707275390625,2.1588134765625 7.11181640625,0.95947265625 10.0982666015625,0.2398681640625 13.330078125,0z" />
    </g>
  </g>
</svg>