<?xml version="1.0" encoding="utf-8"?>
<!DOCTYPE svg PUBLIC "-//W3C//DTD SVG 1.1//EN" "http://www.w3.org/Graphics/SVG/1.1/DTD/svg11.dtd">
<svg width="53.671875" height="42.71484375" xmlns="http://www.w3.org/2000/svg" xmlns:xlink="http://www.w3.org/1999/xlink" xmlns:xml="http://www.w3.org/XML/1998/namespace" version="1.1">
  <g>
    <g>
      <path style="fill:#FF0000;fill-opacity:1" d="M48.75,0L53.671875,0 53.671875,26.953125 53.4741172790527,30.4806518554688 52.8808555603027,33.592529296875 51.8920860290527,36.2887573242188 50.5078125,38.5693359375 48.7921104431152,40.3829956054688 46.8090782165527,41.678466796875 44.5587120056152,42.4557495117188 42.041015625,42.71484375 39.7998046875,42.5390625 37.998046875,42.01171875 37.998046875,37.1484375 39.814453125,38.00537109375 42.099609375,38.291015625 45.0091514587402,37.5860595703125 47.0873985290527,35.47119140625 48.3343467712402,31.9464111328125 48.75,27.01171875 48.75,0z M0,0L6.38671875,0 27.421875,32.958984375 28.505859375,34.6875 29.12109375,35.771484375 29.23828125,35.771484375 29.0185546875,33.31787109375 28.9453125,29.58984375 28.9453125,0 33.8671875,0 33.8671875,42.01171875 27.83203125,42.01171875 6.2109375,8.525390625 4.86328125,5.888671875 4.6875,5.888671875 4.7900390625,6.7547607421875 4.86328125,8.00537109375 4.9072265625,9.6405029296875 4.921875,11.66015625 4.921875,42.01171875 0,42.01171875 0,0z" />
    </g>
  </g>
</svg>