<?xml version="1.0" encoding="utf-8"?>
<!DOCTYPE svg PUBLIC "-//W3C//DTD SVG 1.1//EN" "http://www.w3.org/Graphics/SVG/1.1/DTD/svg11.dtd">
<svg width="21.123046875" height="58.53515625" xmlns="http://www.w3.org/2000/svg" xmlns:xlink="http://www.w3.org/1999/xlink" xmlns:xml="http://www.w3.org/XML/1998/namespace" version="1.1">
  <g>
    <g>
      <path style="fill:#FF0000;fill-opacity:1" d="M15.498046875,14.4140625L20.302734375,14.4140625 20.302734375,43.154296875 20.1168804168701,46.6342163085938 19.5593242645264,49.691162109375 18.6300640106201,52.3251342773438 17.3291015625,54.5361328125 15.6820678710938,56.2857055664063 13.714599609375,57.535400390625 11.4266967773438,58.2852172851563 8.818359375,58.53515625 6.796875,58.30078125 4.833984375,57.59765625 4.833984375,53.115234375 6.943359375,54.10400390625 8.935546875,54.43359375 11.806640625,53.778076171875 13.857421875,51.8115234375 15.087890625,48.533935546875 15.498046875,43.9453125 15.498046875,14.4140625z M17.958984375,0.556640148162842L19.1784648895264,0.780029237270355 20.2001953125,1.4501953125 20.8923320770264,2.457275390625 21.123046875,3.69140625 20.8923320770264,4.88525390625 20.2001953125,5.888671875 19.1784648895264,6.56982421875 17.958984375,6.796875 16.76513671875,6.5771484375 15.76171875,5.91796875 15.08056640625,4.921875 14.853515625,3.69140625 15.08056640625,2.457275390625 15.76171875,1.4501953125 16.76513671875,0.780029237270355 17.958984375,0.556640148162842z M0,0L4.8046875,0 4.8046875,44.4140625 0,44.4140625 0,0z" />
    </g>
  </g>
</svg>