<?xml version="1.0" encoding="utf-8"?>
<!DOCTYPE svg PUBLIC "-//W3C//DTD SVG 1.1//EN" "http://www.w3.org/Graphics/SVG/1.1/DTD/svg11.dtd">
<svg width="44.091796875" height="45.1171875" xmlns="http://www.w3.org/2000/svg" xmlns:xlink="http://www.w3.org/1999/xlink" xmlns:xml="http://www.w3.org/XML/1998/namespace" version="1.1">
  <g>
    <g>
      <path style="fill:#FF0000;fill-opacity:1" d="M0,0L4.8046875,0 4.8046875,19.16015625 4.921875,19.16015625 6.54968214035034,16.7761249542236 8.56201076507568,15.0732440948486 10.9588613510132,14.0515146255493 13.740234375,13.7109375 16.04736328125,13.9018259048462 18.0468730926514,14.4744882583618 19.7387676239014,15.4289255142212 21.1230449676514,16.7651386260986 22.1997051239014,18.4831256866455 22.9687480926514,20.5828876495361 23.43017578125,23.0644226074219 23.583984375,25.927734375 23.583984375,30.908203125 24.0362529754639,35.291748046875 25.3930644989014,38.4228515625 27.6544170379639,40.301513671875 30.8203125,40.927734375 34.29931640625,40.21728515625 37.001953125,38.0859375 38.73779296875,34.75341796875 39.31640625,30.439453125 39.052734375,26.3507080078125 38.26171875,22.31689453125 36.943359375,18.3380126953125 35.09765625,14.4140625 40.3125,14.4140625 41.9659385681152,18.3251953125 43.1469688415527,22.265625 43.8555870056152,26.2353515625 44.091796875,30.234375 43.8592491149902,33.4249877929688 43.1616172790527,36.287841796875 41.9988975524902,38.8229370117188 40.37109375,41.0302734375 38.37158203125,42.8182983398438 36.09375,44.095458984375 33.53759765625,44.8617553710938 30.703125,45.1171875 27.9084777832031,44.9002075195313 25.4864501953125,44.249267578125 23.4370422363281,43.1643676757813 21.76025390625,41.6455078125 20.4560852050781,39.6926879882813 19.5245361328125,37.305908203125 18.9656066894531,34.4851684570313 18.779296875,31.23046875 18.779296875,27.1875 18.394775390625,22.8955078125 17.2412109375,19.98046875 15.179443359375,18.3105487823486 12.0703125,17.75390625 9.18456935882568,18.4167499542236 6.85546875,20.4052734375 5.3173828125,23.455810546875 4.8046875,27.3046875 4.8046875,44.4140625 0,44.4140625 0,0z" />
    </g>
  </g>
</svg>