<?xml version="1.0" encoding="utf-8"?>
<!DOCTYPE svg PUBLIC "-//W3C//DTD SVG 1.1//EN" "http://www.w3.org/Graphics/SVG/1.1/DTD/svg11.dtd">
<svg width="29.23828125" height="42.71484375" xmlns="http://www.w3.org/2000/svg" xmlns:xlink="http://www.w3.org/1999/xlink" xmlns:xml="http://www.w3.org/XML/1998/namespace" version="1.1">
  <g>
    <g>
      <path style="fill:#FF0000;fill-opacity:1" d="M25.458984375,0L27.09228515625,0.1904296875 28.7109375,0.76171875 28.7109375,5.33203125 27.0263671875,4.6728515625 25.25390625,4.453125 24.0124492645264,4.7332763671875 22.6318340301514,5.57373046875 21.1120586395264,6.9744873046875 19.453125,8.935546875 10.1953125,20.9765625 29.23828125,42.71484375 22.3828125,42.71484375 6.15234375,23.49609375 5.0390625,22.03125 4.921875,22.03125 4.921875,42.71484375 0,42.71484375 0,0.703125 4.921875,0.703125 4.921875,20.44921875 5.0390625,20.44921875 14.296875,8.14453125 16.2396240234375,5.6524658203125 17.93701171875,3.68408203125 19.3890380859375,2.2393798828125 20.595703125,1.318359375 22.8955059051514,0.32958984375 25.458984375,0z" />
    </g>
  </g>
</svg>