<?xml version="1.0" encoding="utf-8"?>
<!DOCTYPE svg PUBLIC "-//W3C//DTD SVG 1.1//EN" "http://www.w3.org/Graphics/SVG/1.1/DTD/svg11.dtd">
<svg width="33.134765625" height="56.513671875" xmlns="http://www.w3.org/2000/svg" xmlns:xlink="http://www.w3.org/1999/xlink" xmlns:xml="http://www.w3.org/XML/1998/namespace" version="1.1">
  <g>
    <g>
      <path style="fill:#FF0000;fill-opacity:1" d="M19.04296875,0L22.2564697265625,0.28106689453125 25.07080078125,1.124267578125 27.4859619140625,2.52960205078125 29.501953125,4.4970703125 31.09130859375,6.98638963699341 32.2265625,9.95727634429932 32.90771484375,13.4097299575806 33.134765625,17.34375 33.134765625,56.513671875 28.212890625,56.513671875 28.212890625,18.662109375 28.0513000488281,15.3318786621094 27.5665283203125,12.4456787109375 26.7585754394531,10.0035095214844 25.62744140625,8.00537109375 24.1731262207031,6.45126342773438 22.3956298828125,5.3411865234375 20.2949523925781,4.67514038085938 17.87109375,4.453125 15.1812744140625,4.7113037109375 12.73681640625,5.48583984375 10.5377197265625,6.7767333984375 8.583984375,8.583984375 6.98181104660034,10.7812509536743 5.83740186691284,13.2421894073486 5.15075635910034,15.9667978286743 4.92187452316284,18.955078125 4.92187452316284,42.71484375 0,42.71484375 0,0.703125 4.92187452316284,0.703125 4.92187452316284,8.37890625 5.09765577316284,8.37890625 7.70507717132568,4.713134765625 10.8984365463257,2.0947265625 14.677734375,0.523681640625 19.04296875,0z" />
    </g>
  </g>
</svg>