<?xml version="1.0" encoding="utf-8"?>
<!DOCTYPE svg PUBLIC "-//W3C//DTD SVG 1.1//EN" "http://www.w3.org/Graphics/SVG/1.1/DTD/svg11.dtd">
<svg width="27.978515625" height="56.748046875" xmlns="http://www.w3.org/2000/svg" xmlns:xlink="http://www.w3.org/1999/xlink" xmlns:xml="http://www.w3.org/XML/1998/namespace" version="1.1">
  <g>
    <g>
      <path style="fill:#FF0000;fill-opacity:1" d="M10.37109375,0L13.7777709960938,0.216064453125 16.790771484375,0.8642578125 19.4100952148438,1.944580078125 21.6357421875,3.45703125 23.4109477996826,5.32470703125 24.6789531707764,7.470703125 25.4397563934326,9.89501953125 25.693359375,12.59765625 25.1495342254639,16.4080810546875 23.5180644989014,19.60693359375 20.7989482879639,22.1942138671875 16.9921875,24.169921875 16.9921875,24.43359375 21.533203125,26.246337890625 25.01953125,29.2822265625 27.2387676239014,33.306884765625 27.978515625,38.0859375 27.5747661590576,41.8112182617188 26.3635234832764,45.252685546875 24.3447856903076,48.4103393554688 21.5185546875,51.2841796875 18.0844116210938,53.6746215820313 14.241943359375,55.382080078125 9.99114990234375,56.4065551757813 5.33203125,56.748046875 0,56.337890625 0,51.767578125 2.4169921875,52.18505859375 5.21484375,52.32421875 8.81103420257568,52.0742797851563 12.0996084213257,51.324462890625 15.0805654525757,50.0747680664063 17.75390625,48.3251953125 19.95849609375,46.1965942382813 21.533203125,43.809814453125 22.47802734375,41.1648559570313 22.79296875,38.26171875 22.584228515625,36.0260009765625 21.9580078125,34.00634765625 20.914306640625,32.2027587890625 19.453125,30.615234375 15.60791015625,28.39599609375 10.751953125,27.65625 7.93212890625,27.890625 4.74609327316284,28.59375 4.74609327316284,24.169921875 8.056640625,23.4375 11.0092163085938,22.6638793945313 13.568115234375,21.734619140625 15.7333374023438,20.6497192382813 17.5048828125,19.4091796875 18.8827514648438,18.0130004882813 19.866943359375,16.461181640625 20.4574584960938,14.7537231445313 20.654296875,12.890625 19.94384765625,9.437255859375 17.8125,6.7529296875 14.4580078125,5.028076171875 10.078125,4.453125 5.1123046875,5.1123046875 0.292968958616257,7.08984375 0.292968958616257,2.28515625 5.068359375,0.5712890625 10.37109375,0z" />
    </g>
  </g>
</svg>