<?xml version="1.0" encoding="utf-8"?>
<!DOCTYPE svg PUBLIC "-//W3C//DTD SVG 1.1//EN" "http://www.w3.org/Graphics/SVG/1.1/DTD/svg11.dtd">
<svg width="43.0078125" height="58.53515625" xmlns="http://www.w3.org/2000/svg" xmlns:xlink="http://www.w3.org/1999/xlink" xmlns:xml="http://www.w3.org/XML/1998/namespace" version="1.1">
  <g>
    <g>
      <path style="fill:#FF0000;fill-opacity:1" d="M35.5078125,48.310546875L34.024658203125,48.5174560546875 32.6806640625,49.13818359375 31.475830078125,50.1727294921875 30.41015625,51.62109375 32.314453125,52.65380859375 34.51171875,52.998046875 36.383056640625,52.84423828125 37.7197265625,52.3828125 38.521728515625,51.61376953125 38.7890625,50.537109375 38.583984375,49.56298828125 37.96875,48.8671875 36.943359375,48.44970703125 35.5078125,48.310546875z M14.35546875,17.75390625L12.2753896713257,17.9553241729736 10.4296865463257,18.5595722198486 8.81835842132568,19.5666522979736 7.44140625,20.9765625 5.5517578125,24.814453125 4.92187595367432,29.8828125 5.526123046875,34.522705078125 7.3388671875,38.0712890625 8.65081691741943,39.3850708007813 10.1696767807007,40.323486328125 11.8954458236694,40.8865356445313 13.828125,41.07421875 17.464599609375,40.34912109375 20.3466796875,38.173828125 22.2253398895264,34.892578125 22.8515625,30.849609375 22.8515625,26.42578125 22.2509746551514,23.0712890625 20.44921875,20.2734375 17.724609375,18.3837909698486 14.35546875,17.75390625z M22.8515625,0L27.65625,0 27.65625,43.828125 28.212890625,48.017578125 29.8095703125,46.4410400390625 31.58203125,45.31494140625 33.5302734375,44.6392822265625 35.654296875,44.4140625 38.60595703125,44.842529296875 40.95703125,46.1279296875 42.4951171875,48.087158203125 43.0078125,50.537109375 42.41455078125,53.0859375 40.634765625,55.166015625 37.91748046875,56.55029296875 34.51171875,57.01171875 31.4501953125,56.63818359375 28.828125,55.517578125 28.330078125,58.53515625 24.08203125,58.53515625 24.5214824676514,55.5615234375 25.4296875,52.6171875 23.4960918426514,48.662109375 22.8515625,43.828125 22.8515625,39.31640625 22.734375,39.31640625 20.83740234375,41.854248046875 18.486328125,43.6669921875 15.68115234375,44.754638671875 12.421875,45.1171875 9.73663330078125,44.8654174804688 7.335205078125,44.110107421875 5.21759080886841,42.8512573242188 3.38378977775574,41.0888671875 1.90338182449341,38.8925170898438 0.845947504043579,36.331787109375 0.211486965417862,33.4066772460938 0,30.1171875 0.234375134110451,26.5814208984375 0.937500238418579,23.41552734375 2.10937523841858,20.6195068359375 3.75000023841858,18.193359375 5.7806396484375,16.2323017120361 8.12255859375,14.8315448760986 10.7757568359375,13.9910898208618 13.740234375,13.7109375 16.6204833984375,14.0148935317993 19.07958984375,14.9267597198486 21.1175537109375,16.4465351104736 22.734375,18.57421875 22.8515625,18.57421875 22.8515625,0z" />
    </g>
  </g>
</svg>