<?xml version="1.0" encoding="utf-8"?>
<!DOCTYPE svg PUBLIC "-//W3C//DTD SVG 1.1//EN" "http://www.w3.org/Graphics/SVG/1.1/DTD/svg11.dtd">
<svg width="37.3828125" height="52.03125" xmlns="http://www.w3.org/2000/svg" xmlns:xlink="http://www.w3.org/1999/xlink" xmlns:xml="http://www.w3.org/XML/1998/namespace" version="1.1">
  <g>
    <g>
      <path style="fill:#FF0000;fill-opacity:1" d="M18.515625,15.1171875L18.20068359375,16.7138671875 17.841796875,17.9296875 11.30859375,35.830078125 25.869140625,35.830078125 19.27734375,17.9296875 18.955078125,16.787109375 18.6328125,15.1171875 18.515625,15.1171875z M16.11328125,10.01953125L21.2109375,10.01953125 37.3828125,52.03125 31.93359375,52.03125 27.48046875,40.25390625 9.66796875,40.25390625 5.47851467132568,52.03125 0,52.03125 16.11328125,10.01953125z M16.93359375,0L20.04638671875,0.487063437700272 22.587890625,1.94824242591858 24.3530254364014,4.17846965789795 25.13671875,6.97265577316284 22.03125,6.97265577316284 21.448974609375,5.19104194641113 20.4052734375,3.91845989227295 18.900146484375,3.15490937232971 16.93359375,2.90039086341858 14.9670400619507,3.15490937232971 13.4619131088257,3.91845989227295 12.4182119369507,5.19104194641113 11.8359375,6.97265577316284 8.73046875,6.97265577316284 9.51416015625,4.16015911102295 11.279296875,1.93359339237213 13.8207998275757,0.483401238918304 16.93359375,0z" />
    </g>
  </g>
</svg>