<?xml version="1.0" encoding="utf-8"?>
<!DOCTYPE svg PUBLIC "-//W3C//DTD SVG 1.1//EN" "http://www.w3.org/Graphics/SVG/1.1/DTD/svg11.dtd">
<svg width="22.265625" height="53.203125" xmlns="http://www.w3.org/2000/svg" xmlns:xlink="http://www.w3.org/1999/xlink" xmlns:xml="http://www.w3.org/XML/1998/namespace" version="1.1">
  <g>
    <g>
      <path style="fill:#FF0000;fill-opacity:1" d="M0,11.19140625L21.328125,11.19140625 21.328125,15.64453125 4.921875,15.64453125 4.921875,29.619140625 20.09765625,29.619140625 20.09765625,34.04296875 4.921875,34.04296875 4.921875,48.75 22.265625,48.75 22.265625,53.203125 0,53.203125 0,11.19140625z M10.751953125,0L13.86474609375,0.487063437700272 16.40625,1.94824242591858 18.1713848114014,4.17846965789795 18.955078125,6.97265577316284 15.849609375,6.97265577316284 15.267333984375,5.19104194641113 14.2236328125,3.91845989227295 12.718505859375,3.15490937232971 10.751953125,2.90039086341858 8.785400390625,3.15490937232971 7.2802734375,3.91845989227295 6.236572265625,5.19104194641113 5.654296875,6.97265577316284 2.548828125,6.97265577316284 3.33251953125,4.16015911102295 5.09765625,1.93359410762787 7.63915920257568,0.483401358127594 10.751953125,0z" />
    </g>
  </g>
</svg>