<?xml version="1.0" encoding="utf-8"?>
<!DOCTYPE svg PUBLIC "-//W3C//DTD SVG 1.1//EN" "http://www.w3.org/Graphics/SVG/1.1/DTD/svg11.dtd">
<svg width="26.162109375" height="43.359375" xmlns="http://www.w3.org/2000/svg" xmlns:xlink="http://www.w3.org/1999/xlink" xmlns:xml="http://www.w3.org/XML/1998/namespace" version="1.1">
  <g>
    <g>
      <path style="fill:#FF0000;fill-opacity:1" d="M13.740234375,4.04296875L10.5981435775757,4.65088033676147 7.96875,6.474609375 6.0498046875,9.27978515625 5.0390625,12.83203125 21.240234375,12.83203125 20.7238750457764,9.13330078125 19.2333984375,6.357421875 16.871337890625,4.62158346176147 13.740234375,4.04296875z M13.828125,0L16.6058349609375,0.238038182258606 19.05029296875,0.952149868011475 21.1614990234375,2.14233493804932 22.939453125,3.80859375 24.3493633270264,5.8978271484375 25.3564434051514,8.35693359375 25.9606914520264,11.1859130859375 26.162109375,14.384765625 26.162109375,16.904296875 4.98046875,16.904296875 5.712890625,21.3427734375 7.67578125,24.638671875 10.7373037338257,26.68212890625 14.765625,27.36328125 17.24853515625,27.154541015625 19.62890625,26.5283203125 21.90673828125,25.484619140625 24.08203125,24.0234375 24.08203125,28.53515625 19.48974609375,30.6884765625 14.208984375,31.3345642089844 14.208984375,33.75 16.519775390625,34.04296875 18.2958984375,34.921875 19.427490234375,36.328125 19.8046875,38.203125 19.3011474609375,40.458984375 17.79052734375,42.0703125 15.2728271484375,43.037109375 11.748046875,43.359375 9.84375,43.30078125 9.84375,40.6640625 11.89453125,40.83984375 13.7017822265625,40.675048828125 14.99267578125,40.1806640625 15.7672119140625,39.356689453125 16.025390625,38.203125 15.7891845703125,37.203369140625 15.08056640625,36.4892578125 13.8995361328125,36.060791015625 12.24609375,35.91796875 11.044921875,36.03515625 11.044921875,30.9421882629395 7.94677734375,30.384521484375 5.6195068359375,29.1073608398438 3.63281273841858,27.3193359375 2.04345726966858,25.0680541992188 0.908203363418579,22.401123046875 0.227050915360451,19.3185424804688 0,15.8203125 0.248108044266701,12.4813842773438 0.992431879043579,9.466552734375 2.23297142982483,6.77581787109375 3.96972680091858,4.4091796875 6.07452392578125,2.48016452789307 8.419189453125,1.10229635238647 11.0037231445313,0.275574803352356 13.828125,0z" />
    </g>
  </g>
</svg>