<?xml version="1.0" encoding="utf-8"?>
<!DOCTYPE svg PUBLIC "-//W3C//DTD SVG 1.1//EN" "http://www.w3.org/Graphics/SVG/1.1/DTD/svg11.dtd">
<svg width="24.814453125" height="40.72265625" xmlns="http://www.w3.org/2000/svg" xmlns:xlink="http://www.w3.org/1999/xlink" xmlns:xml="http://www.w3.org/XML/1998/namespace" version="1.1">
  <g>
    <g>
      <path style="fill:#FF0000;fill-opacity:1" d="M1.66992235183716,0L24.814453125,0 24.814453125,1.376953125 6.73828125,26.30859375 8.67919921875,27.13623046875 10.60546875,28.359375 12.51708984375,29.97802734375 14.4140625,31.9921875 16.285400390625,34.017333984375 17.9150390625,35.4638671875 19.302978515625,36.331787109375 20.44921875,36.62109375 22.55126953125,36.328125 24.638671875,35.44921875 24.638671875,39.638671875 22.6904296875,40.45166015625 20.244140625,40.72265625 18.0422973632813,40.3875732421875 15.831298828125,39.38232421875 13.6111450195313,37.7069091796875 11.3818359375,35.361328125 9.10125732421875,33.0157470703125 6.727294921875,31.34033203125 4.25994873046875,30.3350830078125 1.69921875,30 0,30 0,28.505859375 17.75390625,4.1015625 1.66992235183716,4.1015625 1.66992235183716,0z" />
    </g>
  </g>
</svg>