<?xml version="1.0" encoding="utf-8"?>
<!DOCTYPE svg PUBLIC "-//W3C//DTD SVG 1.1//EN" "http://www.w3.org/Graphics/SVG/1.1/DTD/svg11.dtd">
<svg width="30.9375" height="55.25390625" xmlns="http://www.w3.org/2000/svg" xmlns:xlink="http://www.w3.org/1999/xlink" xmlns:xml="http://www.w3.org/XML/1998/namespace" version="1.1">
  <g>
    <g>
      <path style="fill:#FF0000;fill-opacity:1" d="M5.74218702316284,17.6953125L5.74218702316284,32.9296875 12.421875,32.9296875 15.8349609375,32.373046875 18.544921875,30.7763671875 20.33203125,28.2275390625 20.9765625,24.84375 20.4309062957764,21.844482421875 18.7939453125,19.5849609375 16.124267578125,18.167724609375 12.48046875,17.6953125 5.74218702316284,17.6953125z M0.8203125,13.2421875L13.359375,13.2421875 18.4423828125,13.9306640625 22.4853515625,16.025390625 25.166015625,19.5263671875 25.8911113739014,21.800537109375 26.1328125,24.43359375 25.4736328125,28.4619140625 23.5986328125,31.728515625 20.6689453125,34.1748046875 16.81640625,35.7421875 16.81640625,35.859375 18.6474609375,36.9287109375 20.126953125,38.349609375 21.5185546875,40.2099609375 23.056640625,42.626953125 30.9375,55.25390625 25.078125,55.25390625 18.046875,43.4765625 16.171875,40.6787109375 14.3115234375,38.7890625 12.2607421875,37.7197265625 9.78515625,37.3828125 5.74218702316284,37.3828125 5.74218702316284,55.25390625 0.8203125,55.25390625 0.8203125,13.2421875z M7.26562452316284,0L11.044921875,0 17.109375,9.31640625 14.267578125,9.31640625 7.26562452316284,0z M0,0L3.89648389816284,0 10.01953125,9.31640625 7.20703077316284,9.31640625 0,0z" />
    </g>
  </g>
</svg>