<?xml version="1.0" encoding="utf-8"?>
<!DOCTYPE svg PUBLIC "-//W3C//DTD SVG 1.1//EN" "http://www.w3.org/Graphics/SVG/1.1/DTD/svg11.dtd">
<svg width="29.53125" height="47.40234375" xmlns="http://www.w3.org/2000/svg" xmlns:xlink="http://www.w3.org/1999/xlink" xmlns:xml="http://www.w3.org/XML/1998/namespace" version="1.1">
  <g>
    <g>
      <path style="fill:#FF0000;fill-opacity:1" d="M14.94140625,20.0390625L12.7478017807007,20.2359027862549 10.7958974838257,20.8264179229736 9.08569240570068,21.8106098175049 7.6171875,23.1884765625 5.595703125,26.934814453125 4.921875,31.875 5.60302734375,36.64306640625 7.646484375,40.283203125 9.12414455413818,41.6290283203125 10.8325185775757,42.59033203125 12.7716054916382,43.1671142578125 14.94140625,43.359375 17.1359252929688,43.1707763671875 19.061279296875,42.60498046875 20.7174682617188,41.6619873046875 22.1044921875,40.341796875 23.9831523895264,36.68701171875 24.609375,31.7578125 23.9831523895264,26.77734375 22.1044921875,23.0859375 20.7174682617188,21.7529315948486 19.061279296875,20.8007831573486 17.1359252929688,20.2294940948486 14.94140625,20.0390625z M15.29296875,15.99609375L18.4634380340576,16.2542743682861 21.2658672332764,17.0288105010986 23.7002544403076,18.3197040557861 25.7666015625,20.126953125 27.4136352539063,22.3919677734375 28.590087890625,25.05615234375 29.2959594726563,28.1195068359375 29.53125,31.58203125 29.2776489257813,34.9923706054688 28.516845703125,38.045654296875 27.2488403320313,40.7418823242188 25.4736328125,43.0810546875 23.2717876434326,44.9716186523438 20.7238750457764,46.322021484375 17.8298931121826,47.1322631835938 14.58984375,47.40234375 11.4321899414063,47.1395874023438 8.609619140625,46.351318359375 6.12213134765625,45.0375366210938 3.96972632408142,43.1982421875 2.23297119140625,40.9249877929688 0.99243175983429,38.309326171875 0.248108044266701,35.3512573242188 0,32.05078125 0.25817883014679,28.4783935546875 1.03271508216858,25.31982421875 2.32360863685608,22.5750732421875 4.130859375,20.244140625 6.3775634765625,18.3856220245361 8.98681640625,17.0581073760986 11.9586181640625,16.2615985870361 15.29296875,15.99609375z M20.33203125,5.244140625L21.4709453582764,5.452880859375 22.4267578125,6.0791015625 23.0749492645264,7.005615234375 23.291015625,8.115234375 23.0822734832764,9.228515625 22.4560546875,10.166015625 21.5222148895264,10.80322265625 20.390625,11.015625 19.29931640625,10.810546875 18.369140625,10.1953125 17.73193359375,9.26513671875 17.51953125,8.115234375 17.728271484375,6.9873046875 18.3544921875,6.064453125 19.266357421875,5.44921875 20.33203125,5.244140625z M9.08203125,5.244140625L10.1989736557007,5.452880859375 11.1474609375,6.0791015625 11.7956533432007,7.005615234375 12.01171875,8.115234375 11.8029775619507,9.228515625 11.1767578125,10.166015625 10.2502431869507,10.80322265625 9.140625,11.015625 8.02001953125,10.806884765625 7.060546875,10.1806640625 6.4013671875,9.246826171875 6.181640625,8.115234375 6.390380859375,6.9873046875 7.0166015625,6.064453125 7.950439453125,5.44921875 9.08203125,5.244140625z M7.32421875,0L22.20703125,0 22.20703125,3.193359375 7.32421875,3.193359375 7.32421875,0z" />
    </g>
  </g>
</svg>