<?xml version="1.0" encoding="utf-8"?>
<!DOCTYPE svg PUBLIC "-//W3C//DTD SVG 1.1//EN" "http://www.w3.org/Graphics/SVG/1.1/DTD/svg11.dtd">
<svg width="26.162109375" height="45.703125" xmlns="http://www.w3.org/2000/svg" xmlns:xlink="http://www.w3.org/1999/xlink" xmlns:xml="http://www.w3.org/XML/1998/namespace" version="1.1">
  <g>
    <g>
      <path style="fill:#FF0000;fill-opacity:1" d="M13.740234375,18.33984375L10.5981435775757,18.9477558135986 7.96875,20.771484375 6.0498046875,23.57666015625 5.0390625,27.12890625 21.240234375,27.12890625 20.7238750457764,23.43017578125 19.2333984375,20.654296875 16.871337890625,18.9184589385986 13.740234375,18.33984375z M13.828125,14.296875L16.6058349609375,14.5349130630493 19.05029296875,15.2490253448486 21.1614990234375,16.4392108917236 22.939453125,18.10546875 24.3493633270264,20.1947021484375 25.3564434051514,22.65380859375 25.9606914520264,25.4827880859375 26.162109375,28.681640625 26.162109375,31.201171875 4.98046875,31.201171875 5.71289014816284,35.6396484375 7.67578125,38.935546875 10.7373037338257,40.97900390625 14.765625,41.66015625 17.24853515625,41.451416015625 19.62890625,40.8251953125 21.90673828125,39.781494140625 24.08203125,38.3203125 24.08203125,42.83203125 19.48974609375,44.9853515625 13.623046875,45.703125 10.6146240234375,45.4476928710938 7.94677734375,44.681396484375 5.6195068359375,43.4042358398438 3.63281226158142,41.6162109375 2.04345679283142,39.3649291992188 0.908202886581421,36.697998046875 0.227050647139549,33.6154174804688 0,30.1171875 0.248107776045799,26.7782592773438 0.992431402206421,23.763427734375 2.23297095298767,21.0726928710938 3.96972632408142,18.7060546875 6.07452392578125,16.7770404815674 8.419189453125,15.3991718292236 11.0037231445313,14.5724496841431 13.828125,14.296875z M9.0234375,0L12.802734375,0 18.8671875,9.31640625 16.025390625,9.31640625 9.0234375,0z M1.75781226158142,0L5.654296875,0 11.77734375,9.31640625 8.96484375,9.31640625 1.75781226158142,0z" />
    </g>
  </g>
</svg>