<?xml version="1.0" encoding="utf-8"?>
<!DOCTYPE svg PUBLIC "-//W3C//DTD SVG 1.1//EN" "http://www.w3.org/Graphics/SVG/1.1/DTD/svg11.dtd">
<svg width="39.7265625" height="57.978515625" xmlns="http://www.w3.org/2000/svg" xmlns:xlink="http://www.w3.org/1999/xlink" xmlns:xml="http://www.w3.org/XML/1998/namespace" version="1.1">
  <g>
    <g>
      <path style="fill:#FF0000;fill-opacity:1" d="M20.0390625,19.013671875L16.8841552734375,19.3121337890625 14.04052734375,20.20751953125 11.5081787109375,21.6998291015625 9.287109375,23.7890625 7.4798583984375,26.3635272979736 6.18896484375,29.3115253448486 5.4144287109375,32.633056640625 5.15625,36.328125 5.40802001953125,40.0204467773438 6.163330078125,43.333740234375 7.42218017578125,46.2680053710938 9.1845703125,48.8232421875 11.3516235351563,50.8932495117188 13.824462890625,52.371826171875 16.6030883789063,53.2589721679688 19.6875,53.5546875 22.9614238739014,53.272705078125 25.8691387176514,52.4267578125 28.4106426239014,51.016845703125 30.5859375,49.04296875 32.3291015625,46.5618896484375 33.57421875,43.63037109375 34.3212890625,40.2484130859375 34.5703125,36.416015625 34.32861328125,32.4920654296875 33.603515625,29.0405292510986 32.39501953125,26.0614032745361 30.703125,23.5546875 28.5864238739014,21.5679931640625 26.1035137176514,20.14892578125 23.2543926239014,19.2974853515625 20.0390625,19.013671875z M20.390625,14.560546875L24.5297241210938,14.9267578125 28.245849609375,16.025390625 31.5390014648438,17.8564453125 34.4091796875,20.419921875 36.7355346679688,23.5748291015625 38.397216796875,27.18017578125 39.3942260742188,31.2359619140625 39.7265625,35.7421875 39.385986328125,40.6146240234375 38.3642578125,44.94873046875 36.661376953125,48.7445068359375 34.27734375,52.001953125 31.322021484375,54.61669921875 27.9052734375,56.484375 24.027099609375,57.60498046875 19.6875,57.978515625 15.4421997070313,57.6104736328125 11.641845703125,56.50634765625 8.28643798828125,54.6661376953125 5.3759765625,52.08984375 3.02398705482483,48.9239501953125 1.34399437904358,45.31494140625 0.33599865436554,41.2628173828125 0,36.767578125 0.34240734577179,31.95556640625 1.36962914466858,27.65625 3.08166527748108,23.86962890625 5.478515625,20.595703125 8.4649658203125,17.955322265625 11.94580078125,16.0693359375 15.9210205078125,14.937744140625 20.390625,14.560546875z M25.546875,5.244140625L26.6857891082764,5.45288372039795 27.6416015625,6.0791015625 28.2897930145264,7.00561809539795 28.505859375,8.115234375 28.2971172332764,9.228515625 27.6708984375,10.166015625 26.7370586395264,10.80322265625 25.60546875,11.015625 24.5141582489014,10.810546875 23.583984375,10.1953125 22.9467754364014,9.26513671875 22.734375,8.115234375 22.9431133270264,6.98730754852295 23.5693359375,6.064453125 24.4811992645264,5.44922161102295 25.546875,5.244140625z M14.296875,5.244140625L15.413818359375,5.45288372039795 16.3623046875,6.0791015625 17.010498046875,7.00561809539795 17.2265625,8.115234375 17.017822265625,9.228515625 16.3916015625,10.166015625 15.465087890625,10.80322265625 14.35546875,11.015625 13.23486328125,10.806884765625 12.275390625,10.1806640625 11.6162099838257,9.246826171875 11.396484375,8.115234375 11.6052236557007,6.98730754852295 12.2314453125,6.064453125 13.165283203125,5.44922161102295 14.296875,5.244140625z M12.5390625,0L27.421875,0 27.421875,3.19335961341858 12.5390625,3.19335961341858 12.5390625,0z" />
    </g>
  </g>
</svg>