<?xml version="1.0" encoding="utf-8"?>
<!DOCTYPE svg PUBLIC "-//W3C//DTD SVG 1.1//EN" "http://www.w3.org/Graphics/SVG/1.1/DTD/svg11.dtd">
<svg width="31.259765625" height="53.90625" xmlns="http://www.w3.org/2000/svg" xmlns:xlink="http://www.w3.org/1999/xlink" xmlns:xml="http://www.w3.org/XML/1998/namespace" version="1.1">
  <g>
    <g>
      <path style="fill:#FF0000;fill-opacity:1" d="M0,11.19140625L4.92187452316284,11.19140625 4.92187452316284,36.5625 5.09216260910034,39.5906066894531 5.60302686691284,42.2149658203125 6.45446729660034,44.4355773925781 7.646484375,46.25244140625 9.1790771484375,47.6655578613281 11.05224609375,48.6749267578125 13.2659912109375,49.2805480957031 15.8203125,49.482421875 18.2853698730469,49.2874145507813 20.4217510223389,48.702392578125 22.2294597625732,47.7273559570313 23.7084941864014,46.3623046875 24.8588542938232,44.6072387695313 25.6805400848389,42.462158203125 26.1735534667969,39.9270629882813 26.337890625,37.001953125 26.337890625,11.19140625 31.259765625,11.19140625 31.259765625,36.2109375 31.0102844238281,40.3582763671875 30.2618408203125,43.95263671875 29.0144348144531,46.9940185546875 27.26806640625,49.482421875 25.0227355957031,51.4178466796875 22.2784423828125,52.80029296875 19.0351867675781,53.6297607421875 15.29296875,53.90625 11.7086791992188,53.6402893066406 8.602294921875,52.8424072265625 5.97381544113159,51.5126037597656 3.82324171066284,49.65087890625 2.15057349205017,47.2572326660156 0.955810308456421,44.3316650390625 0.238952487707138,40.8741760253906 0,36.884765625 0,11.19140625z M15.64453125,0L18.7573223114014,0.487063407897949 21.298828125,1.94824230670929 23.0639629364014,4.17846965789795 23.84765625,6.97265672683716 20.7421875,6.97265672683716 20.1599102020264,5.19104242324829 19.1162090301514,3.91845989227295 17.6110820770264,3.15490937232971 15.64453125,2.90039086341858 13.677978515625,3.15490937232971 12.1728506088257,3.91845989227295 11.1291494369507,5.19104242324829 10.546875,6.97265672683716 7.44140577316284,6.97265672683716 8.22509670257568,4.16015911102295 9.990234375,1.93359398841858 12.53173828125,0.483401328325272 15.64453125,0z" />
    </g>
  </g>
</svg>