<?xml version="1.0" encoding="utf-8"?>
<!DOCTYPE svg PUBLIC "-//W3C//DTD SVG 1.1//EN" "http://www.w3.org/Graphics/SVG/1.1/DTD/svg11.dtd">
<svg width="41.015625" height="52.734375" xmlns="http://www.w3.org/2000/svg" xmlns:xlink="http://www.w3.org/1999/xlink" xmlns:xml="http://www.w3.org/XML/1998/namespace" version="1.1">
  <g>
    <g>
      <path style="fill:#FF0000;fill-opacity:1" d="M0,0L41.015625,0 41.015625,4.98046875 40.986328125,4.98046875 41.015625,5.009765625 28.330078125,18.57421875 23.61328125,24.0087890625 20.2587890625,28.88671875 18.251953125,33.486328125 17.578125,38.02734375 18.134765625,41.923828125 19.833984375,45.0146484375 22.7197265625,47.0361328125 26.806640625,47.75390625 28.970947265625,47.559814453125 30.8349609375,46.9775390625 33.69140625,44.8828125 35.4052734375,41.806640625 35.9765625,38.0859375 35.7421875,34.775390625 35.068359375,31.845703125 33.9697265625,29.0771484375 32.431640625,26.25 36.796875,23.876953125 38.60595703125,27.20947265625 39.931640625,30.64453125 40.74462890625,34.27001953125 41.015625,38.173828125 40.7666015625,41.099853515625 40.01953125,43.8427734375 38.81103515625,46.32568359375 37.177734375,48.4716796875 35.13427734375,50.240478515625 32.6953125,51.591796875 29.89013671875,52.44873046875 26.748046875,52.734375 23.6938457489014,52.474365234375 20.91796875,51.6943359375 18.475341796875,50.4345703125 16.4208984375,48.7353515625 14.769287109375,46.622314453125 13.53515625,44.12109375 12.7661123275757,41.2646484375 12.509765625,38.0859375 13.0078125,33.5595703125 14.7509765625,28.7109375 16.212158203125,26.07421875 18.10546875,23.26171875 20.48583984375,20.2221698760986 23.408203125,16.904296875 34.482421875,4.98046875 4.98046875,4.98046875 4.98046875,52.734375 0,52.734375 0,0z" />
    </g>
  </g>
</svg>