<?xml version="1.0" encoding="utf-8"?>
<!DOCTYPE svg PUBLIC "-//W3C//DTD SVG 1.1//EN" "http://www.w3.org/Graphics/SVG/1.1/DTD/svg11.dtd">
<svg width="41.015625" height="52.734375" xmlns="http://www.w3.org/2000/svg" xmlns:xlink="http://www.w3.org/1999/xlink" xmlns:xml="http://www.w3.org/XML/1998/namespace" version="1.1">
  <g>
    <g>
      <path style="fill:#FF0000;fill-opacity:1" d="M0,0L41.015625,0 41.015625,4.98046875 34.62890625,4.98046875 21.884765625,23.876953125 27.12890625,23.876953125 30.556640625,24.122314453125 33.45703125,24.8583984375 35.85205078125,26.05224609375 37.763671875,27.6708984375 39.2138671875,29.69970703125 40.224609375,32.1240234375 40.81787109375,34.910888671875 41.015625,38.02734375 40.81787109375,41.4404296875 40.224609375,44.4140625 39.2138671875,46.94091796875 37.763671875,49.013671875 35.859375,50.63232421875 33.486328125,51.796875 30.615234375,52.5 27.216796875,52.734375 13.9453125,52.734375 13.9453125,47.75390625 27.451171875,47.75390625 30.054931640625,47.55615234375 32.0654296875,46.962890625 33.57421875,46.03271484375 34.6728515625,44.82421875 35.830078125,41.71875 36.09375,38.02734375 35.830078125,34.62890625 34.6728515625,31.69921875 33.570556640625,30.538330078125 32.05078125,29.6337890625 30.029296875,29.051513671875 27.421875,28.857421875 12.65625,28.857421875 28.857421875,4.98046875 4.98046875,4.98046875 4.98046875,52.734375 0,52.734375 0,0z" />
    </g>
  </g>
</svg>