<?xml version="1.0" encoding="utf-8"?>
<!DOCTYPE svg PUBLIC "-//W3C//DTD SVG 1.1//EN" "http://www.w3.org/Graphics/SVG/1.1/DTD/svg11.dtd">
<svg width="41.015625" height="52.734375" xmlns="http://www.w3.org/2000/svg" xmlns:xlink="http://www.w3.org/1999/xlink" xmlns:xml="http://www.w3.org/XML/1998/namespace" version="1.1">
  <g>
    <g>
      <path style="fill:#FF0000;fill-opacity:1" d="M0,0L41.015625,0 41.015625,4.921875 22.8515625,23.876953125 31.2890625,23.876953125 35.54443359375,24.539794921875 38.583984375,26.5283203125 40.40771484375,29.842529296875 41.015625,34.482421875 41.015625,42.12890625 40.40771484375,46.768798828125 38.583984375,50.0830078125 35.54443359375,52.071533203125 31.2890625,52.734375 0,52.734375 0,47.75390625 31.171875,47.75390625 33.446044921875,47.391357421875 34.9365234375,46.3037109375 35.760498046875,44.498291015625 36.03515625,41.982421875 36.03515625,34.62890625 35.760498046875,32.113037109375 34.9365234375,30.3076171875 33.446044921875,29.219970703125 31.171875,28.857421875 0,28.857421875 0,23.876953125 16.2890625,23.876953125 34.306640625,4.98046875 0,4.98046875 0,0z" />
    </g>
  </g>
</svg>