<?xml version="1.0" encoding="utf-8"?>
<!DOCTYPE svg PUBLIC "-//W3C//DTD SVG 1.1//EN" "http://www.w3.org/Graphics/SVG/1.1/DTD/svg11.dtd">
<svg width="41.015625" height="52.734375" xmlns="http://www.w3.org/2000/svg" xmlns:xlink="http://www.w3.org/1999/xlink" xmlns:xml="http://www.w3.org/XML/1998/namespace" version="1.1">
  <g>
    <g>
      <path style="fill:#FF0000;fill-opacity:1" d="M20.361328125,4.98046875L20.361328125,24.169921875 23.26171875,25.0927734375 26.0302734375,26.54296875 28.564453125,28.30078125 30.76171875,30.205078125 30.76171875,4.98046875 20.361328125,4.98046875z M4.98046875,4.98046875L4.98046875,24.169921875 7.8662109375,25.0927734375 10.6201171875,26.5283203125 13.1689453125,28.271484375 15.380859375,30.17578125 15.380859375,4.98046875 4.98046875,4.98046875z M0,0L35.7421875,0 35.7421875,37.5 31.376953125,37.5 29.150390625,34.9951171875 26.572265625,32.5341796875 23.642578125,30.46875 20.361328125,29.1796875 20.361328125,37.5 16.11328125,37.5 13.8720703125,34.9951171875 11.2646484375,32.51953125 8.291015625,30.439453125 4.98046875,29.150390625 4.98046875,47.75390625 41.015625,47.75390625 41.015625,52.734375 0,52.734375 0,0z" />
    </g>
  </g>
</svg>