<?xml version="1.0" encoding="utf-8"?>
<!DOCTYPE svg PUBLIC "-//W3C//DTD SVG 1.1//EN" "http://www.w3.org/Graphics/SVG/1.1/DTD/svg11.dtd">
<svg width="52.734375" height="52.734375" xmlns="http://www.w3.org/2000/svg" xmlns:xlink="http://www.w3.org/1999/xlink" xmlns:xml="http://www.w3.org/XML/1998/namespace" version="1.1">
  <g>
    <g>
      <path style="fill:#FF0000;fill-opacity:1" d="M38.525390625,4.98046875L47.75390625,28.2421875 47.75390625,4.98046875 38.525390625,4.98046875z M0,0L4.98046827316284,0 4.98046827316284,37.67578125 21.50390625,46.025390625 26.865234375,39.08203125 20.1708984375,31.5673828125 17.255859375,27.821044921875 14.7509765625,24.111328125 12.696533203125,20.4455585479736 11.1328125,16.8310546875 10.1440420150757,13.289794921875 9.814453125,9.84375 10.25390625,5.9619140625 11.6162109375,2.841796875 13.9599609375,0.76171875 15.516357421875,0.1904296875 17.34375,0 19.7900390625,0.556640148162842 21.9580078125,2.05078125 23.671875,4.189453125 24.7265625,6.6796875 25.7556133270264,3.665771484375 27.2607421875,1.5966796875 29.124755859375,0.399169921875 31.23046875,0 52.734375,0 52.734375,52.734375 36.03515625,12.099609375 34.6435546875,8.876953125 33.486328125,6.7236328125 32.3291015625,5.5224609375 30.9375,5.15625 29.58251953125,5.5810546875 28.388671875,6.85546875 27.3779277801514,8.994140625 26.572265625,12.01171875 23.232421875,12.01171875 22.2802734375,9.31640625 21.064453125,7.060546875 19.541015625,5.5224609375 17.666015625,4.951171875 16.3623046875,5.33203125 15.4833984375,6.38671875 14.9853515625,7.939453125 14.82421875,9.84375 15.076904296875,12.392578125 15.8349609375,15.1171875 17.069091796875,17.9992694854736 18.75,21.0205078125 20.870361328125,24.17724609375 23.4228515625,27.4658203125 26.3854961395264,30.867919921875 29.736328125,34.365234375 33.69140625,38.3203125 22.91015625,52.265625 4.98046827316284,43.212890625 4.98046827316284,52.734375 0,52.734375 0,0z" />
    </g>
  </g>
</svg>