<?xml version="1.0" encoding="utf-8"?>
<!DOCTYPE svg PUBLIC "-//W3C//DTD SVG 1.1//EN" "http://www.w3.org/Graphics/SVG/1.1/DTD/svg11.dtd">
<svg width="35.0390625000001" height="43.41796875" xmlns="http://www.w3.org/2000/svg" xmlns:xlink="http://www.w3.org/1999/xlink" xmlns:xml="http://www.w3.org/XML/1998/namespace" version="1.1">
  <g>
    <g>
      <path style="fill:#FF0000;fill-opacity:1" d="M17.666015625,4.453125L14.908447265625,4.76806640625 12.4365234375,5.712890625 10.2868642807007,7.22900390625 8.49609375,9.2578125 7.071533203125,11.7663593292236 6.0205078125,14.7216796875 5.37231349945068,18.0725116729736 5.15625,21.767578125 5.36498928070068,25.43701171875 5.9912109375,28.76953125 7.00927734375,31.710205078125 8.3935546875,34.2041015625 10.1367177963257,36.221923828125 12.2314453125,37.734375 14.652099609375,38.67919921875 17.373046875,38.994140625 20.22216796875,38.704833984375 22.734375,37.8369140625 24.8876934051514,36.416015625 26.66015625,34.4677734375 28.0517559051514,32.01416015625 29.0625,29.0771484375 29.677734375,25.682373046875 29.8828125,21.85546875 29.688720703125,17.9516620635986 29.1064453125,14.501953125 28.1396465301514,11.5246591567993 26.7919921875,9.0380859375 25.0671367645264,7.064208984375 22.96875,5.625 20.50048828125,4.74609375 17.666015625,4.453125z M17.98828125,0L21.7456035614014,0.38818359375 25.107421875,1.552734375 28.0297832489014,3.416748046875 30.46875,5.9033203125 32.413330078125,8.975830078125 33.8525390625,12.59765625 34.742431640625,16.6918964385986 35.0390625,21.181640625 34.73876953125,26.033935546875 33.837890625,30.3955078125 32.369384765625,34.2041015625 30.3662109375,37.3974609375 27.8430156707764,39.95361328125 24.814453125,41.8505859375 21.3134765625,43.026123046875 17.373046875,43.41796875 13.51318359375,43.02978515625 10.078125,41.865234375 7.100830078125,39.99755859375 4.6142578125,37.5 2.63671851158142,34.41650390625 1.18652296066284,30.791015625 0.296630620956421,26.69677734375 0,22.20703125 0.300292789936066,17.4023456573486 1.201171875,13.06640625 2.67700171470642,9.26513671875 4.7021484375,6.064453125 7.261962890625,3.49365234375 10.341796875,1.58203125 13.92333984375,0.3955078125 17.98828125,0z" />
    </g>
  </g>
</svg>