<?xml version="1.0" encoding="utf-8"?>
<!DOCTYPE svg PUBLIC "-//W3C//DTD SVG 1.1//EN" "http://www.w3.org/Graphics/SVG/1.1/DTD/svg11.dtd">
<svg width="19.3359375000006" height="43.330078125" xmlns="http://www.w3.org/2000/svg" xmlns:xlink="http://www.w3.org/1999/xlink" xmlns:xml="http://www.w3.org/XML/1998/namespace" version="1.1">
  <g>
    <g>
      <path style="fill:#FF0000;fill-opacity:1" d="M17.51953125,0L19.3359375,3.486328125 16.439208984375,5.262451171875 13.9599609375,7.0166015625 10.107421875,10.4150390625 7.55859375,13.6376953125 6.064453125,16.640625 5.3466796875,19.3505859375 5.15625,21.708984375 5.3466796875,24.0673828125 6.064453125,26.7626953125 7.55859375,29.736328125 10.107421875,32.9443359375 13.9453125,36.328125 16.4208984375,38.0712890625 19.3359375,39.84375 17.51953125,43.330078125 13.011474609375,40.9423828125 9.2724609375,38.349609375 6.240234375,35.61767578125 3.85253882408142,32.8125 2.08007788658142,29.974365234375 0.893554925918579,27.1435546875 0.223388344049454,24.371337890625 0,21.708984375 0.223388344049454,19.017333984375 0.893554925918579,16.2158203125 2.08007788658142,13.3630390167236 3.85253882408142,10.517578125 6.240234375,7.71240234375 9.2724609375,4.98046875 13.011474609375,2.3876953125 17.51953125,0z" />
    </g>
  </g>
</svg>