<?xml version="1.0" encoding="utf-8"?>
<!DOCTYPE svg PUBLIC "-//W3C//DTD SVG 1.1//EN" "http://www.w3.org/Graphics/SVG/1.1/DTD/svg11.dtd">
<svg width="35.0390625000001" height="43.41796875" xmlns="http://www.w3.org/2000/svg" xmlns:xlink="http://www.w3.org/1999/xlink" xmlns:xml="http://www.w3.org/XML/1998/namespace" version="1.1">
  <g>
    <g>
      <path style="fill:#FF0000;fill-opacity:1" d="M17.6953125,25.25390625L8.935546875,34.951171875 10.6457509994507,36.6650390625 12.6123046875,37.939453125 14.849853515625,38.73046875 17.373046875,38.994140625 20.130615234375,38.73046875 22.5439453125,37.939453125 24.6203594207764,36.64306640625 26.3671875,34.86328125 17.6953125,25.25390625z M28.681640625,13.095703125L21.005859375,21.591796875 28.76953125,30.146484375 29.6044921875,26.28662109375 29.8828125,21.85546875 29.58251953125,17.1606464385986 28.681640625,13.095703125z M6.591796875,12.978515625L5.5224609375,17.080078125 5.15625,21.767578125 5.47851467132568,26.3232421875 6.4453125,30.322265625 14.35546875,21.591796875 6.591796875,12.978515625z M17.666015625,4.453125L15.1318359375,4.713134765625 12.861328125,5.4931640625 10.8544912338257,6.749267578125 9.111328125,8.4375 17.6953125,17.900390625 26.30859375,8.408203125 24.6093730926514,6.705322265625 22.6171875,5.4638671875 20.31005859375,4.705810546875 17.666015625,4.453125z M17.98828125,0L21.7456035614014,0.38818359375 25.107421875,1.552734375 28.0297832489014,3.416748046875 30.46875,5.9033203125 32.413330078125,8.975830078125 33.8525390625,12.59765625 34.742431640625,16.6918964385986 35.0390625,21.181640625 34.73876953125,26.033935546875 33.837890625,30.3955078125 32.369384765625,34.2041015625 30.3662109375,37.3974609375 27.8430156707764,39.95361328125 24.814453125,41.8505859375 21.3134765625,43.026123046875 17.373046875,43.41796875 13.51318359375,43.02978515625 10.078125,41.865234375 7.100830078125,39.99755859375 4.6142578125,37.5 2.63671851158142,34.41650390625 1.18652296066284,30.791015625 0.296630620956421,26.69677734375 0,22.20703125 0.300292789936066,17.4023456573486 1.201171875,13.06640625 2.67700171470642,9.26513671875 4.7021484375,6.064453125 7.261962890625,3.49365234375 10.341796875,1.58203125 13.92333984375,0.3955078125 17.98828125,0z" />
    </g>
  </g>
</svg>