<?xml version="1.0" encoding="utf-8"?>
<!DOCTYPE svg PUBLIC "-//W3C//DTD SVG 1.1//EN" "http://www.w3.org/Graphics/SVG/1.1/DTD/svg11.dtd">
<svg width="35.0390625" height="55.37109375" xmlns="http://www.w3.org/2000/svg" xmlns:xlink="http://www.w3.org/1999/xlink" xmlns:xml="http://www.w3.org/XML/1998/namespace" version="1.1">
  <g>
    <g>
      <path style="fill:#FF0000;fill-opacity:1" d="M17.666015625,4.453125L14.908447265625,4.76806640625 12.4365234375,5.712890625 10.2868642807007,7.22900390625 8.49609375,9.2578125 7.071533203125,11.7663593292236 6.0205078125,14.7216796875 5.372314453125,18.0725116729736 5.15625,21.767578125 5.364990234375,25.43701171875 5.9912109375,28.76953125 7.00927734375,31.710205078125 8.3935546875,34.2041015625 10.1367177963257,36.221923828125 12.2314453125,37.734375 14.652099609375,38.67919921875 17.373046875,38.994140625 20.22216796875,38.704833984375 22.734375,37.8369140625 24.8876934051514,36.416015625 26.66015625,34.4677734375 28.0517559051514,32.01416015625 29.0625,29.0771484375 29.677734375,25.682373046875 29.8828125,21.85546875 29.688720703125,17.9516620635986 29.1064453125,14.501953125 28.1396465301514,11.5246591567993 26.7919921875,9.0380859375 25.0671367645264,7.064208984375 22.96875,5.625 20.50048828125,4.74609375 17.666015625,4.453125z M17.98828125,0L21.7456035614014,0.38818359375 25.107421875,1.552734375 28.0297832489014,3.416748046875 30.46875,5.9033203125 32.413330078125,8.975830078125 33.8525390625,12.59765625 34.742431640625,16.6918964385986 35.0390625,21.181640625 34.786376953125,25.660400390625 34.0283203125,29.7216796875 32.786865234375,33.321533203125 31.083984375,36.416015625 28.934326171875,38.98681640625 26.3525390625,41.015625 23.3679180145264,42.451171875 20.009765625,43.2421875 20.009765625,55.37109375 15.087890625,55.37109375 15.087890625,43.271484375 11.7077627182007,42.535400390625 8.7158203125,41.1474609375 6.134033203125,39.173583984375 3.98437523841858,36.6796875 2.27783226966858,33.695068359375 1.02539086341858,30.2490234375 0.256347864866257,26.400146484375 0,22.20703125 0.300293147563934,17.4023456573486 1.201171875,13.06640625 2.67700219154358,9.26513671875 4.7021484375,6.064453125 7.261962890625,3.49365234375 10.341796875,1.58203125 13.92333984375,0.3955078125 17.98828125,0z" />
    </g>
  </g>
</svg>