<?xml version="1.0" encoding="utf-8"?>
<!DOCTYPE svg PUBLIC "-//W3C//DTD SVG 1.1//EN" "http://www.w3.org/Graphics/SVG/1.1/DTD/svg11.dtd">
<svg width="26.3671875" height="42.71484375" xmlns="http://www.w3.org/2000/svg" xmlns:xlink="http://www.w3.org/1999/xlink" xmlns:xml="http://www.w3.org/XML/1998/namespace" version="1.1">
  <g>
    <g>
      <path style="fill:#FF0000;fill-opacity:1" d="M17.841796875,0L21.1303691864014,0.30029296875 24.08203125,1.201171875 24.08203125,5.7421875 21.0864238739014,4.48974609375 17.900390625,4.072265625 14.9652099609375,4.6343994140625 12.86865234375,6.32080078125 11.6107177734375,9.1314697265625 11.19140625,13.06640625 11.19140625,16.201171875 19.86328125,16.201171875 19.86328125,20.33203125 11.19140625,20.33203125 11.19140625,24.31640625 19.86328125,24.31640625 19.86328125,28.41796875 11.19140625,28.41796875 11.19140625,28.681640625 10.8380117416382,31.9720458984375 9.77783107757568,34.72412109375 8.01086330413818,36.9378662109375 5.537109375,38.61328125 26.3671875,38.61328125 26.3671875,42.71484375 0,42.71484375 0,38.759765625 2.79418897628784,37.4066162109375 4.79003858566284,35.42724609375 5.987548828125,32.8216552734375 6.38671875,29.58984375 6.38671875,28.41796875 0.615233898162842,28.41796875 0.615233898162842,24.31640625 6.38671875,24.31640625 6.38671875,20.33203125 0.615233898162842,20.33203125 0.615233898162842,16.201171875 6.38671875,16.201171875 6.38671875,12.5390625 6.5863037109375,9.90966796875 7.18505859375,7.529296875 8.1829833984375,5.39794921875 9.580078125,3.515625 11.2939453125,1.9775390625 13.2421875,0.87890625 15.4248046875,0.2197265625 17.841796875,0z" />
    </g>
  </g>
</svg>