<?xml version="1.0" encoding="utf-8"?>
<!DOCTYPE svg PUBLIC "-//W3C//DTD SVG 1.1//EN" "http://www.w3.org/Graphics/SVG/1.1/DTD/svg11.dtd">
<svg width="33.046875" height="42.01171875" xmlns="http://www.w3.org/2000/svg" xmlns:xlink="http://www.w3.org/1999/xlink" xmlns:xml="http://www.w3.org/XML/1998/namespace" version="1.1">
  <g>
    <g>
      <path style="fill:#FF0000;fill-opacity:1" d="M9.31640625,20.185546875L9.31640625,24.0234375 14.1796875,24.0234375 16.937255859375,23.770751953125 19.1748046875,23.0126953125 20.936279296875,21.800537109375 22.265625,20.185546875 9.31640625,20.185546875z M9.31640625,12.099609375L9.31640625,16.083984375 23.61328125,16.083984375 23.7158203125,15.05859375 23.759765625,13.9453125 23.671875,12.099609375 9.31640625,12.099609375z M9.31640625,4.453125L9.31640625,7.96875 22.3828125,7.96875 21.148681640625,6.485595703125 19.4970703125,5.3759765625 17.369384765625,4.683837890625 14.70703125,4.453125 9.31640625,4.453125z M4.39453077316284,0L15.52734375,0 19.866943359375,0.509033203125 23.4521484375,2.0361328125 26.1950664520264,4.537353515625 28.0078125,7.96875 33.046875,7.96875 33.046875,12.099609375 28.828125,12.099609375 28.916015625,13.7109375 28.8720703125,14.912109375 28.76953125,16.083984375 33.046875,16.083984375 33.046875,20.185546875 27.685546875,20.185546875 25.5908203125,23.6572265625 22.6025390625,26.2646484375 18.8525390625,27.9052734375 14.443359375,28.4765625 9.31640625,28.4765625 9.31640625,42.01171875 4.39453077316284,42.01171875 4.39453077316284,20.185546875 0,20.185546875 0,16.083984375 4.39453077316284,16.083984375 4.39453077316284,12.099609375 0,12.099609375 0,7.96875 4.39453077316284,7.96875 4.39453077316284,0z" />
    </g>
  </g>
</svg>