<?xml version="1.0" encoding="utf-8"?>
<!DOCTYPE svg PUBLIC "-//W3C//DTD SVG 1.1//EN" "http://www.w3.org/Graphics/SVG/1.1/DTD/svg11.dtd">
<svg width="26.044921875" height="43.41796875" xmlns="http://www.w3.org/2000/svg" xmlns:xlink="http://www.w3.org/1999/xlink" xmlns:xml="http://www.w3.org/XML/1998/namespace" version="1.1">
  <g>
    <g>
      <path style="fill:#FF0000;fill-opacity:1" d="M11.103515625,0L16.4501953125,0.673828125 21.123046875,2.724609375 22.9760723114014,4.288330078125 24.43359375,6.2255859375 25.3784160614014,8.536376953125 25.693359375,11.220703125 25.5029277801514,13.3374042510986 24.931640625,15.17578125 26.044921875,15.17578125 26.044921875,18.310546875 22.79296875,18.310546875 22.67578125,18.427734375 19.365234375,20.947265625 16.142578125,22.763671875 26.044921875,22.763671875 26.044921875,25.8984375 10.166015625,25.8984375 8.26171875,27.216796875 6.1962890625,29.501953125 5.44921875,32.4609375 6.009521484375,35.255126953125 7.6904296875,37.3095703125 10.5065908432007,38.572998046875 14.47265625,38.994140625 17.34375,38.73046875 20.4345703125,37.9833984375 23.3642578125,36.796875 25.751953125,35.21484375 25.751953125,41.015625 23.5693359375,42.0263671875 20.68359375,42.7880859375 17.6953125,43.2568359375 15.234375,43.41796875 9.55078125,42.8173828125 4.7900390625,40.869140625 2.93701171875,39.320068359375 1.5087890625,37.3681640625 0.596923589706421,34.976806640625 0.292968511581421,32.109375 0.512695074081421,29.8974609375 1.17187452316284,27.94921875 2.4609375,25.8984375 0,25.8984375 0,22.763671875 5.830078125,22.763671875 7.1484375,21.9140625 11.42578125,19.5703125 13.9453125,18.310546875 0,18.310546875 0,15.17578125 18.75,15.17578125 19.921875,13.564453125 20.537109375,10.78125 20.33935546875,9.1845703125 19.74609375,7.8515625 17.6953125,5.888671875 14.82421875,4.7900390625 11.6015625,4.453125 6.298828125,5.09765625 2.05078077316284,7.03125 2.05078077316284,1.494140625 3.68225049972534,0.8404541015625 5.73486328125,0.37353515625 8.2086181640625,0.0933837890625 11.103515625,0z" />
    </g>
  </g>
</svg>