<?xml version="1.0" encoding="utf-8"?>
<!DOCTYPE svg PUBLIC "-//W3C//DTD SVG 1.1//EN" "http://www.w3.org/Graphics/SVG/1.1/DTD/svg11.dtd">
<svg width="30.673828125" height="42.7734375" xmlns="http://www.w3.org/2000/svg" xmlns:xlink="http://www.w3.org/1999/xlink" xmlns:xml="http://www.w3.org/XML/1998/namespace" version="1.1">
  <g>
    <g>
      <path style="fill:#FF0000;fill-opacity:1" d="M15.5859375,0L19.4091796875,0.3662109375 22.763671875,1.46484375 22.763671875,6.50390625 19.21875,4.775390625 15.41015625,4.21875 13.0517578125,4.449462890625 10.95703125,5.1416015625 7.6611328125,7.6611328125 5.625,11.4111328125 4.921875,15.99609375 5.44921875,20.1123046875 7.0458984375,23.4521484375 9.7265625,25.8251953125 13.505859375,27.0703125 13.505859375,12.7734375 30,12.7734375 30,16.875 18.251953125,16.875 18.251953125,25.6640625 29.150390625,25.6640625 29.150390625,29.765625 18.251953125,29.765625 18.251953125,38.671875 30.673828125,38.671875 30.673828125,42.7734375 13.505859375,42.7734375 13.505859375,31.58203125 10.5285634994507,31.20849609375 7.8662109375,30.263671875 5.5517578125,28.824462890625 3.61816430091858,26.9677734375 2.07641625404358,24.7412109375 0.937500715255737,22.1923828125 0.234375089406967,19.390869140625 0,16.40625 0.267334014177322,12.9711933135986 1.06933617591858,9.814453125 2.37670922279358,7.005615234375 4.16015625,4.6142578125 6.397705078125,2.67333984375 9.0673828125,1.2158203125 12.139892578125,0.303955078125 15.5859375,0z" />
    </g>
  </g>
</svg>