<?xml version="1.0" encoding="utf-8"?>
<!DOCTYPE svg PUBLIC "-//W3C//DTD SVG 1.1//EN" "http://www.w3.org/Graphics/SVG/1.1/DTD/svg11.dtd">
<svg width="43.4765625" height="43.447265625" xmlns="http://www.w3.org/2000/svg" xmlns:xlink="http://www.w3.org/1999/xlink" xmlns:xml="http://www.w3.org/XML/1998/namespace" version="1.1">
  <g>
    <g>
      <path style="fill:#FF0000;fill-opacity:1" d="M23.5546875,3.720703125L23.5546875,19.892578125 39.755859375,19.892578125 39.169921875,16.7980976104736 38.056640625,13.9013671875 36.485595703125,11.2646493911743 34.5263671875,8.9501953125 32.208251953125,6.990966796875 29.560546875,5.419921875 26.6528301239014,4.306640625 23.5546875,3.720703125z M19.921875,3.720703125L16.607666015625,4.365234375 13.5205078125,5.595703125 10.7409658432007,7.342529296875 8.349609375,9.5361328125 6.38671875,12.1325702667236 4.892578125,15.087890625 3.94775366783142,18.3178730010986 3.6328125,21.73828125 3.98803687095642,25.374755859375 5.0537109375,28.7841796875 6.73095703125,31.86767578125 8.9208984375,34.5263671875 11.57958984375,36.71630859375 14.6630859375,38.3935546875 18.072509765625,39.459228515625 21.708984375,39.814453125 25.1293926239014,39.49951171875 28.359375,38.5546875 31.314697265625,37.060546875 33.9111328125,35.09765625 36.1083984375,32.706298828125 37.8662109375,29.9267578125 39.107666015625,26.839599609375 39.755859375,23.525390625 19.921875,23.525390625 19.921875,3.720703125z M21.708984375,0L24.6459941864014,0.194091796875 27.48046875,0.7763671875 32.6806640625,2.9736328125 37.08984375,6.3720703125 40.5029296875,10.7666015625 42.7001953125,15.966796875 43.282470703125,18.80126953125 43.4765625,21.73828125 43.282470703125,24.693603515625 42.7001953125,27.5244140625 40.5029296875,32.7099609375 37.08984375,37.1044921875 32.6806640625,40.48828125 27.48046875,42.6708984375 24.6459941864014,43.253173828125 21.708984375,43.447265625 18.753662109375,43.253173828125 15.9228515625,42.6708984375 10.7373046875,40.48828125 6.3427734375,37.1044921875 2.958984375,32.7099609375 0.776367664337158,27.509765625 0.194091856479645,24.67529296875 0,21.73828125 0.194091856479645,18.80126953125 0.776367664337158,15.966796875 2.958984375,10.7666015625 6.3427734375,6.3720703125 10.7373046875,2.9736328125 15.9375,0.7763671875 18.77197265625,0.194091796875 21.708984375,0z" />
    </g>
  </g>
</svg>