<?xml version="1.0" encoding="utf-8"?>
<!DOCTYPE svg PUBLIC "-//W3C//DTD SVG 1.1//EN" "http://www.w3.org/Graphics/SVG/1.1/DTD/svg11.dtd">
<svg width="27.5390625" height="39.111328125" xmlns="http://www.w3.org/2000/svg" xmlns:xlink="http://www.w3.org/1999/xlink" xmlns:xml="http://www.w3.org/XML/1998/namespace" version="1.1">
  <g>
    <g>
      <path style="fill:#FF0000;fill-opacity:1" d="M13.974609375,0L16.4501953125,0.274658203125 18.720703125,1.0986328125 20.657958984375,2.43896484375 22.1337890625,4.2626953125 23.0676250457764,6.47827291488647 23.37890625,8.994140625 23.0973224639893,11.6491718292236 22.2525787353516,14.1650390625 20.866641998291,16.6552734375 18.9614868164063,19.2333984375 16.4529418945313,22.122802734375 13.2568359375,25.546875 8.38165283203125,30.703125 7.88223266601563,31.2744140625 7.06008911132813,32.16796875 5.44464111328125,33.896484375 14.6749877929688,33.955078125 17.7995109558105,33.929443359375 19.7298431396484,33.8525390625 22.2207641601563,33.251953125 24.3159484863281,31.640625 25.3194789886475,30.25634765625 26.455078125,28.330078125 27.5390625,28.916015625 24.228515625,34.98046875 23.5546875,36.2255859375 22.7783203125,37.734375 22.060546875,39.111328125 21.181640625,39.052734375 20.2294921875,37.8955078125 18.33984375,37.6171875 4.423828125,37.6171875 0.35156261920929,37.91015625 0,37.265625 4.248046875,32.87109375 7.74993848800659,29.2218017578125 10.784912109375,25.81787109375 13.3529663085938,22.6593017578125 15.4541015625,19.74609375 17.0883178710938,17.0782470703125 18.255615234375,14.65576171875 18.9559936523438,12.4786376953125 19.189453125,10.546875 18.658447265625,7.56225728988647 17.0654296875,5.2880859375 14.688720703125,3.848876953125 11.806640625,3.369140625 9.61669921875,3.57421875 7.6171875,4.189453125 5.80810546875,5.21484375 4.189453125,6.650390625 3.10546875,5.771484375 5.9033203125,3.0029296875 7.4267578125,1.904296875 9.3310546875,0.9228515625 11.5393056869507,0.230712890625 13.974609375,0z" />
    </g>
  </g>
</svg>