<?xml version="1.0" encoding="utf-8"?>
<!DOCTYPE svg PUBLIC "-//W3C//DTD SVG 1.1//EN" "http://www.w3.org/Graphics/SVG/1.1/DTD/svg11.dtd">
<svg width="27.71484375" height="38.408203125" xmlns="http://www.w3.org/2000/svg" xmlns:xlink="http://www.w3.org/1999/xlink" xmlns:xml="http://www.w3.org/XML/1998/namespace" version="1.1">
  <g>
    <g>
      <path style="fill:#FF0000;fill-opacity:1" d="M11.77734375,18.369140625L10.0927734375,18.427734375 8.232421875,18.603515625 8.232421875,30.087890625 8.26171875,32.63671875 8.349609375,34.306640625 8.90625,36.1376953125 10.224609375,36.85546875 11.4404287338257,36.943359375 13.330078125,36.97265625 17.9150390625,36.2255859375 19.954833984375,35.196533203125 21.650390625,33.603515625 22.7929668426514,31.40625 23.173828125,28.564453125 22.5,24.9609375 20.478515625,21.6650390625 18.914794921875,20.3466796875 16.9189453125,19.2919921875 14.527587890625,18.599853515625 11.77734375,18.369140625z M11.455078125,1.46484375L9.8291015625,1.58203125 8.994140625,1.93359375 8.81561279296875,2.33367919921875 8.660888671875,3.211669921875 8.52996826171875,4.56756591796875 8.4228515625,6.4013671875 8.280029296875,10.2795429229736 8.232421875,13.623046875 8.232421875,17.2265625 9.7265625,17.16796875 14.35546875,16.69921875 16.23779296875,15.98876953125 17.900390625,14.677734375 19.06494140625,12.6342792510986 19.453125,9.7265625 19.178466796875,7.28759908676147 18.3544921875,5.244140625 17.069091796875,3.6181640625 15.41015625,2.431640625 13.4985342025757,1.70654296875 11.455078125,1.46484375z M13.564453125,0L16.28173828125,0.263442993164063 18.75,1.05377197265625 20.863037109375,2.36732482910156 22.5146484375,4.200439453125 23.5803203582764,6.46534061431885 23.935546875,9.07424926757813 23.4814434051514,11.8296451568604 22.119140625,14.1824340820313 19.8046875,16.0741424560547 16.494140625,17.4462890625 20.247802734375,18.4503364562988 23.1884765625,19.9381256103516 25.3381328582764,21.7594528198242 26.71875,23.7641143798828 27.4658184051514,25.9226417541504 27.71484375,28.20556640625 27.4182109832764,31.1428356170654 26.5283184051514,33.504753112793 25.0451641082764,35.2913208007813 22.96875,36.5025329589844 18.17138671875,37.8878402709961 13.271484375,38.349609375 12.6123037338257,38.338623046875 11.572265625,38.3056640625 9.0966796875,38.232421875 7.1923828125,38.1884765625 5.712890625,38.173828125 3.40576171875,38.232421875 0,38.408203125 0,37.294921875 1.875,36.9873046875 3.10546898841858,36.298828125 3.77929711341858,34.951171875 4.039306640625,33.01025390625 4.2333984375,29.70703125 4.453125,21.6064453125 4.4970703125,17.955322265625 4.51171875,15.234375 4.453125,10.517578125 4.1455078125,6.03515625 3.85620141029358,4.2041015625 3.48632836341858,3.10546875 2.255859375,1.93359375 0.05859375,1.376953125 0.05859375,0.263671875 5.537109375,0.498046875 6.83349609375,0.439453125 9.609375,0.263671875 11.2628164291382,0.1483154296875 12.4731435775757,0.06591796875 13.2403554916382,0.0164794921875 13.564453125,0z" />
    </g>
  </g>
</svg>