<?xml version="1.0" encoding="utf-8"?>
<!DOCTYPE svg PUBLIC "-//W3C//DTD SVG 1.1//EN" "http://www.w3.org/Graphics/SVG/1.1/DTD/svg11.dtd">
<svg width="54.3750000000001" height="58.271484375" xmlns="http://www.w3.org/2000/svg" xmlns:xlink="http://www.w3.org/1999/xlink" xmlns:xml="http://www.w3.org/XML/1998/namespace" version="1.1">
  <g>
    <g>
      <path style="fill:#FF0000;fill-opacity:1" d="M30,15.791015625L28.5873394012451,16.0153217315674 27.1618633270264,16.6882343292236 25.7235698699951,17.8097553253174 24.2724609375,19.3798828125 21.5917949676514,23.272705078125 19.3798828125,27.7734375 17.896728515625,32.05810546875 17.40234375,35.302734375 17.655029296875,36.8994140625 18.4130859375,38.349609375 19.566650390625,39.38232421875 21.005859375,39.7265625 23.7084941864014,39.005126953125 26.66015625,36.8408203125 29.490966796875,33.53759765625 31.8310546875,29.3994140625 33.402099609375,24.847412109375 33.92578125,20.302734375 33.66943359375,18.5485858917236 32.900390625,17.0947265625 31.66259765625,16.1169452667236 30,15.791015625z M29.58984375,0L34.808349609375,0.443115234375 39.3896484375,1.7724609375 43.275146484375,3.856201171875 46.40625,6.5625 48.8159141540527,9.78515625 50.537109375,13.41796875 51.5698204040527,17.3437519073486 51.9140625,21.4453125 51.6320762634277,25.224609375 50.7861328125,29.0625 49.3908653259277,32.783203125 47.4609375,36.2109375 44.9926719665527,39.173583984375 41.982421875,41.4990234375 38.50341796875,43.004150390625 34.62890625,43.505859375 32.552490234375,43.23486328125 31.0693359375,42.421875 30.179443359375,41.07421875 29.8828125,39.19921875 30.02197265625,37.353515625 30.439453125,34.74609375 30.322265625,34.62890625 28.3447246551514,36.99462890625 26.572265625,38.935546875 22.6611328125,42.0849609375 20.408935546875,43.150634765625 18.134765625,43.505859375 16.44287109375,43.22021484375 15,42.36328125 13.0517578125,39.5068359375 12.421875,36.240234375 13.121337890625,31.435546875 15.2197265625,26.396484375 18.343505859375,21.668701171875 22.119140625,17.7978515625 24.1278057098389,16.2918109893799 26.0522441864014,15.2160663604736 27.8924541473389,14.5706186294556 29.6484375,14.35546875 31.651611328125,14.6191425323486 33.2080078125,15.41015625 34.317626953125,16.7358417510986 34.98046875,18.603515625 35.126953125,18.603515625 36.064453125,15.205078125 40.9890747070313,14.5321655273438 37.3255920410156,27.0121765136719 37.0763397216797,27.9643249511719 36.6806030273438,29.4731140136719 35.5779075622559,33.4610939025879 34.9074554443359,35.9914398193359 34.453125,38.90625 35.0244140625,40.4150390625 35.753173828125,41.019287109375 36.796875,41.220703125 39.049072265625,40.83251953125 41.3525390625,39.66796875 43.60107421875,37.781982421875 45.6884765625,35.2294921875 47.4865684509277,32.14599609375 48.8671875,28.6669921875 49.7460899353027,24.884033203125 50.0390625,20.888671875 49.6765098571777,16.9042987823486 48.5888671875,13.212890625 46.8347129821777,9.90966796875 44.47265625,7.08984375 41.53564453125,4.79736328125 38.056640625,3.076171875 34.10888671875,1.99951171875 29.765625,1.640625 24.0270977020264,2.26318359375 18.7646484375,4.130859375 14.117431640625,7.06787109375 10.224609375,10.8984375 7.119140625,15.4504413604736 4.83398389816284,20.5517578125 3.42773389816284,25.953369140625 2.95898389816284,31.40625 3.41308546066284,36.73095703125 4.77539014816284,41.572265625 6.976318359375,45.8642578125 9.9462890625,49.541015625 13.575439453125,52.50732421875 17.75390625,54.66796875 22.3974590301514,55.986328125 27.421875,56.42578125 30.82763671875,56.209716796875 34.306640625,55.5615234375 37.796630859375,54.404296875 41.2353515625,52.6611328125 44.527587890625,50.284423828125 47.578125,47.2265625 50.2880821228027,43.4912109375 52.55859375,39.08203125 54.375,39.08203125 52.5476036071777,43.480224609375 50.0537109375,47.3583984375 46.9995079040527,50.68359375 43.4912109375,53.4228515625 39.6533203125,55.557861328125 35.6103515625,57.0703125 31.446533203125,57.97119140625 27.24609375,58.271484375 21.7858867645264,57.7734375 16.6552734375,56.279296875 11.982421875,53.8330078125 7.8955078125,50.478515625 4.537353515625,46.34765625 2.05078125,41.572265625 0.512695133686066,36.26953125 0,30.556640625 0.582275152206421,24.268798828125 2.32910108566284,18.4130859375 5.09765625,13.1579599380493 8.7451171875,8.671875 13.157958984375,5.0244140625 18.22265625,2.28515625 23.7597637176514,0.5712890625 29.58984375,0z" />
    </g>
  </g>
</svg>