<?xml version="1.0" encoding="utf-8"?>
<!DOCTYPE svg PUBLIC "-//W3C//DTD SVG 1.1//EN" "http://www.w3.org/Graphics/SVG/1.1/DTD/svg11.dtd">
<svg width="28.06640625" height="38.02734375" xmlns="http://www.w3.org/2000/svg" xmlns:xlink="http://www.w3.org/1999/xlink" xmlns:xml="http://www.w3.org/XML/1998/namespace" version="1.1">
  <g>
    <g>
      <path style="fill:#FF0000;fill-opacity:1" d="M28.06640625,0L27.890625,3.8232421875 27.8759746551514,5.80444431304932 27.890625,7.3828125 26.689453125,7.3828125 26.4331035614014,5.3759765625 25.95703125,3.984375 24.9609355926514,3.02490234375 23.14453125,2.314453125 20.2294921875,1.875 15.9375,1.728515625 13.6322021484375,1.754150390625 11.75537109375,1.8310546875 10.3070068359375,1.959228515625 9.287109375,2.138671875 9.1845703125,4.00817918777466 9.111328125,6.42334079742432 9.0673828125,9.38415622711182 9.052734375,12.890625 9.052734375,17.51953125 15.703125,17.8125 19.189453125,17.7392578125 21.50390625,17.51953125 22.8955078125,17.1240234375 23.61328125,16.5234375 23.8989238739014,15.56396484375 23.994140625,14.091796875 25.13671875,13.974609375 25.25390625,17.51953125 25.13671875,23.642578125 23.935546875,23.642578125 23.8110332489014,21.35009765625 23.4375,20.390625 22.320556640625,19.940185546875 20.2587890625,19.5263671875 17.508544921875,19.229736328125 14.326171875,19.130859375 11.279296875,19.174919128418 9.111328125,19.3070983886719 9.0234375,24.5451736450195 8.994140625,29.2254638671875 9.027099609375,31.6357040405273 9.1259765625,33.2313537597656 9.8291015625,35.1535034179688 11.513671875,36.1953735351563 13.0151357650757,36.5144348144531 15.29296875,36.85546875 15.29296875,37.96875 11.8139638900757,37.8369140625 8.935546875,37.79296875 6.03515577316284,37.79296875 0.644531071186066,38.02734375 0.703124463558197,37.060546875 2.30346632003784,36.67236328125 3.29589819908142,36.15234375 4.18945264816284,34.482421875 4.47143507003784,32.1734619140625 4.67285108566284,28.73291015625 4.79370069503784,24.1607666015625 4.83398389816284,18.45703125 4.81933498382568,15.1611328125 4.79736280441284,13.2531757354736 4.76074171066284,10.78125 4.54101514816284,5.859375 4.33593702316284,4.04296875 4.07226514816284,2.9296875 2.78320264816284,1.5966796875 1.61865198612213,1.292724609375 0,1.0546875 0,0.17578125 3.77929711341858,0.1171875 4.310302734375,0.12451171875 5.37597608566284,0.146484375 6.97631788253784,0.18310546875 9.111328125,0.234375 11.2866201400757,0.29296875 13.0078125,0.3515625 14.1870107650757,0.3955078125 14.736328125,0.41015625 18.6456298828125,0.384521484375 22.17041015625,0.3076171875 25.3106689453125,0.179443359375 28.06640625,0z" />
    </g>
  </g>
</svg>