<?xml version="1.0" encoding="utf-8"?>
<!DOCTYPE svg PUBLIC "-//W3C//DTD SVG 1.1//EN" "http://www.w3.org/Graphics/SVG/1.1/DTD/svg11.dtd">
<svg width="44.208984375" height="38.818359375" xmlns="http://www.w3.org/2000/svg" xmlns:xlink="http://www.w3.org/1999/xlink" xmlns:xml="http://www.w3.org/XML/1998/namespace" version="1.1">
  <g>
    <g>
      <path style="fill:#FF0000;fill-opacity:1" d="M33.662109375,0L35.478515625,0.029296875 37.6171875,0.17578125 39.140625,0.234375 40.4296875,0.234375 44.150390625,0.17578125 44.208984375,1.171875 42.7001953125,1.5087890625 41.689453125,1.9921875 40.60546875,3.837890625 40.3610229492188,5.32653856277466 40.155029296875,7.39013767242432 39.9874877929688,10.0286874771118 39.8583984375,13.2421875 39.638671875,26.572265625 39.6826171875,31.34765625 39.78515625,35.44921875 39.9609375,38.818359375 38.759765625,38.759765625 37.239990234375,36.258544921875 34.7021484375,33.1201171875 31.146240234375,29.344482421875 26.572265625,24.931640625 15.5859375,14.677734375 14.630126953125,13.86474609375 12.8759765625,12.24609375 10.440673828125,9.96826362609863 7.44140625,7.177734375 7.060546875,25.1193237304688 7.020263671875,27.6775207519531 7.0458984375,29.820499420166 7.137451171875,31.5482559204102 7.294921875,32.8607940673828 7.90283203125,34.6973991394043 8.96484375,35.7875061035156 10.83251953125,36.5008163452148 13.857421875,37.20703125 13.740234375,38.3203125 12.8027334213257,38.291015625 10.927734375,38.203125 9.00146484375,38.115234375 8.02734375,38.0859375 6.9873046875,38.115234375 4.8046875,38.203125 3.54492139816284,38.291015625 1.494140625,38.4375 0.893554449081421,38.2763671875 0.70312511920929,37.734375 0.84960949420929,37.20703125 1.494140625,37.060546875 3.3544921875,36.591796875 4.27734422683716,35.361328125 4.581298828125,34.185791015625 4.7900390625,32.4755859375 4.91924285888672,30.216064453125 4.98458862304688,27.392578125 5.185546875,13.41796875 5.17089796066284,9.41162300109863 5.009765625,6.591796875 4.56298828125,4.57763671875 3.69140577316284,2.98828125 2.22656226158142,1.88232421875 0,1.318359375 0,0.1171875 2.16064429283142,0.260009765625 3.369140625,0.3369140625 5.09765625,0.3515625 7.6171875,0.29296875 11.748046875,5.009765625 17.0654296875,10.3564453125 19.368896484375,12.5939960479736 20.390625,13.59375 37.67578125,30 37.7783203125,27.9327392578125 37.8515625,25.39306640625 37.8955078125,22.3809814453125 37.91015625,18.896484375 37.91015625,13.2421875 37.855224609375,9.28711128234863 37.6904296875,6.4453125 37.371826171875,4.46044921875 36.85546875,3.076171875 35.244140625,1.6259765625 33.9111328125,1.256103515625 31.904296875,0.87890625 32.2265625,0.05859375 33.662109375,0z" />
    </g>
  </g>
</svg>