<?xml version="1.0" encoding="utf-8"?>
<!DOCTYPE svg PUBLIC "-//W3C//DTD SVG 1.1//EN" "http://www.w3.org/Graphics/SVG/1.1/DTD/svg11.dtd">
<svg width="43.271484375" height="42.7734375" xmlns="http://www.w3.org/2000/svg" xmlns:xlink="http://www.w3.org/1999/xlink" xmlns:xml="http://www.w3.org/XML/1998/namespace" version="1.1">
  <g>
    <g>
      <path style="fill:#FF0000;fill-opacity:1" d="M33.984375,22.55859375L32.314453125,22.84423828125 30.9375,23.701171875 29.1064453125,26.6162109375 28.505859375,30.46875 28.9599609375,33.9404296875 30.2197265625,36.943359375 32.1533203125,39.0234375 33.321533203125,39.5947265625 34.5703125,39.78515625 36.383056640625,39.356689453125 38.1298828125,38.0712890625 39.415283203125,35.665283203125 39.84375,31.875 39.1845703125,27.5244140625 37.2216796875,23.96484375 35.760498046875,22.91015625 33.984375,22.55859375z M34.453125,21.298828125L36.73828125,21.602783203125 38.84765625,22.5146484375 40.6640625,23.97216796875 42.0703125,25.9130859375 42.97119140625,28.209228515625 43.271484375,30.732421875 42.685546875,34.365234375 40.8984375,37.7490234375 37.9833984375,40.166015625 36.170654296875,40.8251953125 34.16015625,41.044921875 31.907958984375,40.762939453125 29.7802734375,39.9169921875 27.9272441864014,38.53271484375 26.4990234375,36.6357421875 25.5871562957764,34.288330078125 25.283203125,31.552734375 25.9606914520264,27.48779296875 27.9931640625,24.19921875 30.963134765625,22.02392578125 34.453125,21.298828125z M8.701171875,2.34375L7.05322265625,2.625732421875 5.68359375,3.4716796875 3.85253858566284,6.416015625 3.251953125,10.25390625 3.67309522628784,13.7512226104736 4.9365234375,16.8017578125 6.859130859375,18.922119140625 9.2578125,19.62890625 11.513671875,18.9990234375 12.6416015625,18.079833984375 13.623046875,16.58203125 14.30419921875,14.4653339385986 14.53125,11.689453125 14.15771484375,8.28735446929932 13.037109375,5.2294921875 11.2060537338257,3.065185546875 8.701171875,2.34375z M9.19921875,1.142578125L11.4367666244507,1.435546875 13.5205078125,2.314453125 15.32958984375,3.731689453125 16.7431640625,5.6396484375 17.655029296875,7.92846775054932 17.958984375,10.48828125 17.691650390625,12.9528827667236 16.8896484375,15.3662109375 15.574951171875,17.54150390625 13.76953125,19.2919921875 11.5283193588257,20.445556640625 8.90625,20.830078125 6.595458984375,20.5517578125 4.4677734375,19.716796875 2.63671875,18.343505859375 1.2158203125,16.4501953125 0.303955078125,14.0954608917236 0,11.337890625 0.311279296875,8.55835056304932 1.2451171875,6.0791015625 2.71728515625,4.00634765625 4.64355421066284,2.4462890625 6.859130859375,1.468505859375 9.19921875,1.142578125z M35.3713989257813,0L31.2022018432617,6.62841892242432 27.3701477050781,12.861328125 23.8568096160889,18.66943359375 20.6437683105469,24.0234375 14.5621490478516,34.3798828125 13.1810035705566,36.7868041992188 12.0562925338745,38.778076171875 11.1880149841309,40.3536987304688 10.576171875,41.513671875 9.19921779632568,41.87255859375 8.115234375,42.7734375 7.08984375,42.36328125 8.990478515625,39.55078125 11.6455078125,35.44921875 17.724609375,25.751953125 20.584716796875,21.060791015625 23.0712890625,16.8896484375 25.0231914520264,13.5461444854736 26.279296875,11.337890625 28.4033203125,7.5146484375 29.718017578125,5.167236328125 31.81640625,1.435546875 32.4609375,0.41015625 34.0191650390625,0.3369140625 35.3713989257813,0z" />
    </g>
  </g>
</svg>