<?xml version="1.0" encoding="utf-8"?>
<!DOCTYPE svg PUBLIC "-//W3C//DTD SVG 1.1//EN" "http://www.w3.org/Graphics/SVG/1.1/DTD/svg11.dtd">
<svg width="30.3515625" height="38.02734375" xmlns="http://www.w3.org/2000/svg" xmlns:xlink="http://www.w3.org/1999/xlink" xmlns:xml="http://www.w3.org/XML/1998/namespace" version="1.1">
  <g>
    <g>
      <path style="fill:#FF0000;fill-opacity:1" d="M0.410156488418579,0L3.46435546875,0.029296875 5.244140625,0.05859375 7.1484375,0.1171875 9.39880275726318,0.10986328125 11.2280263900757,0.087890625 12.6361074447632,0.05126953125 13.623046875,0 13.564453125,1.142578125 11.7993154525757,1.351318359375 10.546875,1.6259765625 9.111328125,2.9296875 8.88427734375,4.0576171875 8.73046875,6.15234375 8.62060546875,9.09668159484863 8.525390625,12.7734375 8.4228515625,17.10205078125 8.349609375,21.005859375 8.291015625,28.330078125 8.3349609375,31.20849609375 8.466796875,33.22265625 8.701171875,34.51171875 9.052734375,35.21484375 10.7080078125,35.771484375 12.5207509994507,35.9033203125 15.64453125,35.947265625 19.464111328125,35.77880859375 22.6025390625,35.2734375 25.0524883270264,34.57763671875 26.806640625,33.837890625 28.3886699676514,32.29248046875 29.384765625,29.94140625 30.3515625,30.05859375 30.06591796875,31.56005859375 29.560546875,33.662109375 28.125,38.02734375 25.8618144989014,37.8076171875 24.111328125,37.734375 22.4267578125,37.6904296875 20.625,37.67578125 0.0585939884185791,37.67578125 0,36.767578125 1.48378384113312,36.4013671875 2.50190758705139,36.005859375 3.67973351478577,34.5849609375 4.0034294128418,33.321533203125 4.189453125,31.552734375 4.27734375,29.08447265625 4.306640625,25.72265625 4.365234375,12.83203125 4.39453125,8.99414253234863 4.365234375,6.2109375 4.2333984375,4.244384765625 3.95507836341858,2.8564453125 3.5009765625,1.9482421875 2.84179711341858,1.4208984375 1.85302746295929,1.153564453125 0.410156488418579,1.025390625 0.410156488418579,0z" />
    </g>
  </g>
</svg>