<?xml version="1.0" encoding="utf-8"?>
<!DOCTYPE svg PUBLIC "-//W3C//DTD SVG 1.1//EN" "http://www.w3.org/Graphics/SVG/1.1/DTD/svg11.dtd">
<svg width="36.181640625" height="38.642578125" xmlns="http://www.w3.org/2000/svg" xmlns:xlink="http://www.w3.org/1999/xlink" xmlns:xml="http://www.w3.org/XML/1998/namespace" version="1.1">
  <g>
    <g>
      <path style="fill:#FF0000;fill-opacity:1" d="M17.0947265625,7.822265625L16.1432647705078,10.0634765625 15.3085327148438,12.12890625 11.9998168945313,20.654296875 11.4361944198608,22.1337890625 11.0920715332031,22.939453125 16.2130737304688,23.291015625 18.9056396484375,23.232421875 23.2658386230469,23.115234375 22.4250411987305,20.73486328125 21.9497680664063,19.5703125 19.8440551757813,14.1796875 19.335765838623,12.9418964385986 18.5131072998047,10.986328125 17.6685905456543,9.03808784484863 17.0947265625,7.822265625z M19.207763671875,0L21.1981201171875,6.240234375 27.344970703125,22.734375 28.4582939147949,25.6228637695313 29.4270496368408,28.106689453125 30.2512397766113,30.1858520507813 30.9308624267578,31.8603515625 32.0685768127441,34.383544921875 33.0523681640625,36.064453125 34.2148590087891,36.93603515625 36.181640625,37.3828125 36.181640625,38.408203125 31.552734375,38.173828125 28.2861328125,38.26171875 25.8984375,38.4228515625 24.580078125,38.525390625 24.580078125,37.55859375 26.7333984375,36.943359375 27.3376445770264,36.4306640625 27.5390625,35.654296875 27.4073963165283,34.6142578125 27.0124053955078,33.193359375 26.55149269104,31.8310546875 26.2220764160156,30.966796875 24.0568542480469,25.078125 21.8180465698242,24.90234375 18.5073852539063,24.84375 16.1874389648438,24.84375 12.9061880111694,24.873046875 10.0506591796875,25.1953125 7.899169921875,30.615234375 6.83074903488159,33.37646484375 6.474609375,34.86328125 6.70532178878784,35.804443359375 7.3974609375,36.5771484375 8.800048828125,37.196044921875 11.162109375,37.67578125 11.162109375,38.642578125 7.99072265625,38.3349609375 5.33203125,38.232421875 0,38.466796875 0,37.6171875 1.55273425579071,37.05322265625 2.69531226158142,36.240234375 3.51224899291992,35.203857421875 4.55680894851685,33.3251953125 6.90261840820313,28.3154296875 7.92526245117188,25.902099609375 8.61831665039063,24.08203125 13.3099365234375,12.861328125 15.113525390625,8.6279296875 16.8582916259766,4.189453125 17.5693702697754,2.1826171875 18.0606079101563,0.615234375 18.2363891601563,0.05859375 19.207763671875,0z" />
    </g>
  </g>
</svg>