<?xml version="1.0" encoding="utf-8"?>
<!DOCTYPE svg PUBLIC "-//W3C//DTD SVG 1.1//EN" "http://www.w3.org/Graphics/SVG/1.1/DTD/svg11.dtd">
<svg width="29.0039061903954" height="38.84765625" xmlns="http://www.w3.org/2000/svg" xmlns:xlink="http://www.w3.org/1999/xlink" xmlns:xml="http://www.w3.org/XML/1998/namespace" version="1.1">
  <g>
    <g>
      <path style="fill:#FF0000;fill-opacity:1" d="M12.978515625,1.5234375L8.96484375,2.05078125 8.946533203125,2.94931411743164 8.8916015625,5.11665344238281 8.82568359375,7.6690878868103 8.7744140625,9.722900390625 8.671875,13.6544036865234 8.6279296875,15.3303337097168 8.61328125,16.1041259765625 8.671875,22.353515625 13.41796875,23.02734375 15.860595703125,22.7889633178711 18.3251953125,22.0738220214844 20.606689453125,20.7829856872559 22.5,18.8175201416016 23.7744121551514,16.1515617370605 24.19921875,12.7592468261719 23.8879375457764,9.93948173522949 22.9541015625,7.28828430175781 21.375732421875,4.96335983276367 19.130859375,3.12240600585938 16.3037109375,1.92317962646484 12.978515625,1.5234375z M12.451171875,0L16.32568359375,0.285987854003906 19.6875,1.14395141601563 22.540283203125,2.47489929199219 24.8876953125,4.17984008789063 26.7114238739014,6.1377534866333 27.9931640625,8.22761535644531 28.7512187957764,10.3577632904053 29.00390625,12.4365234375 28.5205059051514,15.5092620849609 27.0703125,18.39111328125 24.6752910614014,20.9135627746582 21.357421875,22.9080963134766 17.2412109375,24.2060279846191 12.451171875,24.638671875 8.671875,24.345703125 8.70529174804688,26.824951171875 8.73870849609375,29.6923828125 8.77223968505859,32.149658203125 8.80599975585938,33.3984375 8.96862030029297,34.9072265625 9.2559814453125,35.91796875 10.6983947753906,37.001953125 12.1590032577515,37.2802734375 14.35546875,37.470703125 14.296875,38.7890625 12.9931631088257,38.61328125 11.30859375,38.49609375 9.38232421875,38.408203125 8.173828125,38.37890625 5.30273389816284,38.4521484375 3.134765625,38.671875 1.64062523841858,38.84765625 0.556640863418579,38.671875 0.556640863418579,37.79296875 2.398681640625,37.22900390625 3.4716796875,36.826171875 4.27734375,35.80078125 4.4696044921875,34.3267822265625 4.60693359375,31.57470703125 4.6893310546875,27.5445556640625 4.716796875,22.236328125 4.7021484375,18.22265625 4.683837890625,16.300048828125 4.658203125,14.8681640625 4.60693359375,13.3557147979736 4.51171875,11.19140625 4.43115234375,9.28344917297363 4.306640625,6.9580078125 4.163818359375,4.88525390625 4.0283203125,3.7353515625 3.6328125,2.607421875 2.40234398841858,1.7578125 0.0292971134185791,1.34765625 0.0292971134185791,0.17578125 2.578125,0.3076171875 5.537109375,0.3515625 6.78955078125,0.319633483886719 8.73046875,0.223846435546875 10.576171875,0.0640869140625 12.451171875,0z" />
    </g>
  </g>
</svg>