<?xml version="1.0" encoding="utf-8"?>
<!DOCTYPE svg PUBLIC "-//W3C//DTD SVG 1.1//EN" "http://www.w3.org/Graphics/SVG/1.1/DTD/svg11.dtd">
<svg width="35.888671875" height="38.49609375" xmlns="http://www.w3.org/2000/svg" xmlns:xlink="http://www.w3.org/1999/xlink" xmlns:xml="http://www.w3.org/XML/1998/namespace" version="1.1">
  <g>
    <g>
      <path style="fill:#FF0000;fill-opacity:1" d="M13.271484375,0L13.271484375,0.9375 10.5322265625,1.55216217041016 9.169921875,2.57675170898438 8.9208984375,3.64162445068359 8.701171875,5.723876953125 8.3935546875,11.3445281982422 8.316650390625,13.9754676818848 8.291015625,15.8088684082031 8.291015625,19.2924499511719 9.70458984375,17.9656219482422 11.89453125,15.8033752441406 19.072265625,8.73687744140625 21.58447265625,6.15646457672119 22.96875,4.57305908203125 23.642578125,2.86605834960938 22.9248027801514,1.84284210205078 20.771484375,1.40625 20.712890625,0.29296875 25.576171875,0.3515625 31.81640625,0.05859375 31.875,1.171875 29.0917949676514,2.17723846435547 25.60546875,4.66690063476563 18.486328125,11.1882019042969 14.4140625,15.1533508300781 11.572265625,17.9727172851563 22.44140625,27.0327758789063 25.6970195770264,29.7082042694092 28.3447246551514,31.8705368041992 30.3845195770264,33.519775390625 31.81640625,34.6559143066406 35.830078125,37.44140625 35.888671875,38.37890625 35.1708984375,38.2763671875 34.072265625,38.14453125 31.318359375,38.02734375 28.4838848114014,38.115234375 24.90234375,38.37890625 24.84375,37.55859375 25.3125,37.4082183837891 26.103515625,37.2276306152344 27.0043926239014,36.9565200805664 27.3046875,36.5652465820313 26.8951301574707,35.8335952758789 25.6664638519287,34.5715713500977 23.6186866760254,32.779167175293 20.7518005371094,30.4563903808594 15.3153991699219,26.044921875 13.7136840820313,24.7654724121094 11.7890167236328,23.2804870605469 9.05593872070313,21.251220703125 8.29193115234375,20.6922912597656 8.32420349121094,24.0867805480957 8.4228515625,28.9629364013672 8.49700927734375,31.4738121032715 8.587646484375,33.3894538879395 8.69476318359375,34.7098579406738 8.818359375,35.4350280761719 9.561767578125,36.2977409362793 10.9130859375,36.9980621337891 12.3449697494507,37.4624061584473 13.330078125,37.6171875 13.330078125,38.49609375 11.8432607650757,38.3349609375 9.4921875,38.203125 7.5732421875,38.1591796875 4.86328125,38.14453125 0,38.26171875 0,37.236328125 1.51611292362213,37.020263671875 2.548828125,36.6650390625 3.20800757408142,36.046142578125 3.60351538658142,35.0390625 3.85253882408142,33.446044921875 4.072265625,30.7763671875 4.365234375,23.701171875 4.4036865234375,21.96533203125 4.43115234375,20.625 4.4476318359375,19.68017578125 4.453125,19.130859375 4.442138671875,15.8367929458618 4.4091796875,12.9858417510986 4.354248046875,10.5780038833618 4.27734375,8.61328125 4.244384765625,6.35742282867432 4.1455078125,4.6875 3.64746069908142,2.6220703125 2.548828125,1.669921875 1.61865198612213,1.4208984375 0.29296875,1.201171875 0.234374642372131,0.17578125 4.37988233566284,0.3515625 7.20703125,0.41015625 9.151611328125,0.377197265625 10.7080078125,0.2783203125 13.271484375,0z" />
    </g>
  </g>
</svg>