<?xml version="1.0" encoding="utf-8"?>
<!DOCTYPE svg PUBLIC "-//W3C//DTD SVG 1.1//EN" "http://www.w3.org/Graphics/SVG/1.1/DTD/svg11.dtd">
<svg width="19.306640625" height="21.767578125" xmlns="http://www.w3.org/2000/svg" xmlns:xlink="http://www.w3.org/1999/xlink" xmlns:xml="http://www.w3.org/XML/1998/namespace" version="1.1">
  <g>
    <g>
      <path style="fill:#FF0000;fill-opacity:1" d="M9.638671875,7.060546875L8.1591796875,7.34985494613647 6.943359375,8.2177734375 6.13037061691284,9.46655464172363 5.859375,10.8984375 6.13037061691284,12.3266620635986 6.943359375,13.564453125 8.1591796875,14.4213886260986 9.638671875,14.70703125 11.1401357650757,14.4213886260986 12.36328125,13.564453125 13.1762685775757,12.3266620635986 13.447265625,10.8984375 13.1762685775757,9.46655464172363 12.36328125,8.2177734375 11.1401357650757,7.34985494613647 9.638671875,7.060546875z M9.111328125,0L10.1953125,0 10.51025390625,2.197265625 10.927734375,3.8671875 12.041015625,6.708984375 15.234375,6.20361328125 18.837890625,4.98046875 19.306640625,5.947265625 16.5087890625,8.40088081359863 14.501953125,10.8984375 16.494140625,13.3740253448486 19.306640625,15.8203125 18.837890625,16.787109375 15.3076171875,15.57861328125 12.041015625,15.05859375 10.87646484375,18.17138671875 10.1953125,21.767578125 9.111328125,21.767578125 8.40087890625,18.12744140625 7.265625,15.05859375 3.92578125,15.62255859375 0.52734386920929,16.787109375 0,15.8203125 2.783203125,13.4326190948486 4.8046875,10.8984375 2.7978515625,8.37158393859863 0,5.947265625 0.52734386920929,4.98046875 3.9990234375,6.18896484375 7.265625,6.708984375 8.40087890625,3.64013671875 9.111328125,0z" />
    </g>
  </g>
</svg>