<?xml version="1.0" encoding="utf-8"?>
<!DOCTYPE svg PUBLIC "-//W3C//DTD SVG 1.1//EN" "http://www.w3.org/Graphics/SVG/1.1/DTD/svg11.dtd">
<svg width="23.935546875" height="38.818359375" xmlns="http://www.w3.org/2000/svg" xmlns:xlink="http://www.w3.org/1999/xlink" xmlns:xml="http://www.w3.org/XML/1998/namespace" version="1.1">
  <g>
    <g>
      <path style="fill:#FF0000;fill-opacity:1" d="M22.67578125,0L23.935546875,0 20.888671875,4.98046875 20.16357421875,4.9658203125 18.69140625,4.921875 17.23388671875,4.8779296875 16.552734375,4.86328125 14.091796875,4.8046875 11.7260732650757,4.844970703125 10.13671875,5.0830078125 9.02532577514648,5.67626953125 8.09349060058594,6.7822265625 7.17390060424805,8.69751167297363 6.0992431640625,11.71875 12.0364379882813,13.4399433135986 16.5875244140625,15.732421875 19.8294067382813,18.350830078125 21.8389892578125,21.0498046875 22.8840618133545,23.697509765625 23.232421875,26.162109375 22.8149394989014,29.23095703125 21.5625,32.2265625 19.54833984375,34.89990234375 16.845703125,37.001953125 13.58642578125,38.3642578125 9.90234375,38.818359375 6.749267578125,38.525390625 4.2041015625,37.646484375 0,34.5703125 0.864486336708069,32.10205078125 1.68457007408142,28.740234375 2.60742163658142,29.00390625 2.54791235923767,29.94140625 2.96836829185486,31.89697265625 4.229736328125,33.603515625 6.08699750900269,34.991455078125 8.29513549804688,35.9912109375 10.5362310409546,36.595458984375 12.4923706054688,36.796875 14.6419715881348,36.405029296875 16.4115142822266,35.2294921875 17.7935600280762,33.526611328125 18.7806701660156,31.552734375 19.3729019165039,29.58984375 19.5703125,27.919921875 19.2626953125,25.62744140625 18.33984375,23.4375 16.849365234375,21.397705078125 14.8388671875,19.5556640625 9.638671875,16.787109375 6.6357421875,15.99609375 3.48632788658142,15.673828125 4.02099514007568,13.4326190948486 4.98046779632568,10.634765625 8.466796875,1.318359375 18.720703125,1.318359375 20.159912109375,1.270751953125 21.1376953125,1.1279296875 22.67578125,0z" />
    </g>
  </g>
</svg>