<?xml version="1.0" encoding="utf-8"?>
<!DOCTYPE svg PUBLIC "-//W3C//DTD SVG 1.1//EN" "http://www.w3.org/Graphics/SVG/1.1/DTD/svg11.dtd">
<svg width="18.369140625" height="22.67578125" xmlns="http://www.w3.org/2000/svg" xmlns:xlink="http://www.w3.org/1999/xlink" xmlns:xml="http://www.w3.org/XML/1998/namespace" version="1.1">
  <g>
    <g>
      <path style="fill:#FF0000;fill-opacity:1" d="M8.02734375,1.875L6.148681640625,2.45361328125 4.9072265625,4.189453125 3.779296875,9.169921875 7.6171875,8.349609375 8.177490234375,8.173828125 9.3896484375,7.880859375 10.6750478744507,7.59521484375 11.455078125,7.44140625 12.7001943588257,7.14111328125 13.388671875,6.943359375 13.798828125,6.474609375 13.095703125,4.8779296875 11.0888671875,2.8125 9.67162990570068,2.109375 8.02734375,1.875z M9.169921875,0L11.9091796875,0.4248046875 13.3154296875,1.043701171875 14.6923828125,2.05078125 15.941162109375,3.4716796875 16.962890625,5.33203125 17.4609375,5.91796875 18.310546875,6.064453125 18.369140625,7.1484375 3.720703125,10.3125 3.92944288253784,12.755126953125 4.2626953125,14.5751953125 4.85229444503784,16.094970703125 5.830078125,17.63671875 8.3203125,19.85595703125 11.279296875,20.595703125 14.091796875,20.09765625 15.66650390625,19.40185546875 17.40234375,18.310546875 17.9296875,19.013671875 15.4522705078125,20.6158447265625 13.11767578125,21.76025390625 10.9259033203125,22.4468994140625 8.876953125,22.67578125 6.8975830078125,22.47802734375 5.14892578125,21.884765625 3.63098120689392,20.89599609375 2.34375,19.51171875 0.5859375,16.11328125 0,12.24609375 0.44677734375,8.411865234375 1.787109375,5.2880859375 3.68408203125,2.896728515625 5.80078125,1.259765625 7.75634765625,0.31494140625 9.169921875,0z" />
    </g>
  </g>
</svg>