<?xml version="1.0" encoding="utf-8"?>
<!DOCTYPE svg PUBLIC "-//W3C//DTD SVG 1.1//EN" "http://www.w3.org/Graphics/SVG/1.1/DTD/svg11.dtd">
<svg width="41.66015625" height="42.01171875" xmlns="http://www.w3.org/2000/svg" xmlns:xlink="http://www.w3.org/1999/xlink" xmlns:xml="http://www.w3.org/XML/1998/namespace" version="1.1">
  <g>
    <g>
      <path style="fill:#FF0000;fill-opacity:1" d="M20.830078125,5.80078125L17.75390625,9.7998046875 14.384765625,13.5791015625 10.4150390625,17.2705078125 5.537109375,21.005859375 10.4150390625,24.7412109375 14.384765625,28.4326171875 17.75390625,32.2119140625 20.830078125,36.2109375 23.8916015625,32.2119140625 27.275390625,28.4326171875 31.2451171875,24.7412109375 36.123046875,21.005859375 31.2451171875,17.2705078125 27.275390625,13.5791015625 23.8916015625,9.7998046875 20.830078125,5.80078125z M20.68359375,0L20.9765625,0 25.283203125,5.9326171875 29.7802734375,11.1328125 35.0390625,15.9814453125 38.1298828125,18.380126953125 41.66015625,20.859375 41.66015625,21.15234375 38.1298828125,23.631591796875 35.0390625,26.0302734375 29.7802734375,30.87890625 25.283203125,36.0791015625 20.9765625,42.01171875 20.68359375,42.01171875 16.376953125,36.0791015625 11.8798828125,30.87890625 6.62109375,26.0302734375 3.53027319908142,23.631591796875 0,21.15234375 0,20.859375 3.53027319908142,18.380126953125 6.62109375,15.9814453125 11.8798828125,11.1328125 16.376953125,5.9326171875 20.68359375,0z" />
    </g>
  </g>
</svg>