<?xml version="1.0" encoding="utf-8"?>
<!DOCTYPE svg PUBLIC "-//W3C//DTD SVG 1.1//EN" "http://www.w3.org/Graphics/SVG/1.1/DTD/svg11.dtd">
<svg width="30.234375" height="36.50390625" xmlns="http://www.w3.org/2000/svg" xmlns:xlink="http://www.w3.org/1999/xlink" xmlns:xml="http://www.w3.org/XML/1998/namespace" version="1.1">
  <g>
    <g>
      <path style="fill:#FF0000;fill-opacity:1" d="M5.33203125,13.2421875L5.33203125,36.50390625 0.380859375,36.50390625 0.380859375,15.615234375 5.33203125,13.2421875z M15.087890625,0L18.193359375,0.19775390625 21.064453125,0.791015625 23.6425762176514,1.820068359375 25.869140625,3.3251953125 27.696533203125,5.31372165679932 29.0771484375,7.79296875 29.945068359375,10.8032245635986 30.234375,14.384765625 30.234375,36.50390625 25.224609375,36.50390625 25.224609375,14.6484375 25.0341777801514,11.9311542510986 24.462890625,9.697265625 23.5363750457764,7.90283346176147 22.2802734375,6.50390625 18.7939453125,4.8046875 14.12109375,4.306640625 10.458984375,4.482421875 6.5771484375,4.9365234375 2.9443359375,5.5517578125 0,6.181640625 0.556640625,1.34765625 3.6474609375,0.849609375 7.1923828125,0.4248046875 11.044921875,0.1171875 15.087890625,0z" />
    </g>
  </g>
</svg>