<?xml version="1.0" encoding="utf-8"?>
<!DOCTYPE svg PUBLIC "-//W3C//DTD SVG 1.1//EN" "http://www.w3.org/Graphics/SVG/1.1/DTD/svg11.dtd">
<svg width="29.4140625" height="36.50390625" xmlns="http://www.w3.org/2000/svg" xmlns:xlink="http://www.w3.org/1999/xlink" xmlns:xml="http://www.w3.org/XML/1998/namespace" version="1.1">
  <g>
    <g>
      <path style="fill:#FF0000;fill-opacity:1" d="M11.279296875,0L14.6447744369507,0.216064453125 17.7099609375,0.8642578125 20.419921875,1.959228515625 22.7197265625,3.515625 24.5800762176514,5.53711080551147 25.9716796875,8.02734375 26.8395977020264,11.0009784698486 27.12890625,14.47265625 27.12890625,18.515625 26.7919921875,22.7783203125 25.869140625,25.9423828125 24.462890625,28.3447265625 22.705078125,30.29296875 21.181640625,31.7578125 29.4140625,31.7578125 28.76953125,36.50390625 0.117187738418579,36.50390625 0.820312261581421,31.7578125 13.18359375,31.7578125 16.611328125,31.0107421875 19.04296875,29.0625 20.6396484375,26.3818359375 21.5771484375,23.4375 22.0166015625,20.6689453125 22.119140625,18.57421875 22.119140625,14.6484375 21.4160137176514,10.0598163604736 19.306640625,6.8408203125 15.908203125,4.94018650054932 11.337890625,4.306640625 5.3466796875,4.7900390625 0,5.80078125 0.644531488418579,1.11328125 3.2666015625,0.6298828125 6.06445264816284,0.2783203125 8.8037109375,0.0732421875 11.279296875,0z" />
    </g>
  </g>
</svg>