<?xml version="1.0" encoding="utf-8"?>
<!DOCTYPE svg PUBLIC "-//W3C//DTD SVG 1.1//EN" "http://www.w3.org/Graphics/SVG/1.1/DTD/svg11.dtd">
<svg width="26.77734375" height="49.6875" xmlns="http://www.w3.org/2000/svg" xmlns:xlink="http://www.w3.org/1999/xlink" xmlns:xml="http://www.w3.org/XML/1998/namespace" version="1.1">
  <g>
    <g>
      <path style="fill:#FF0000;fill-opacity:1" d="M0,0L4.95117282867432,0 4.95117282867432,13.681640625 15.673828125,13.681640625 20.244140625,14.3701171875 23.7451171875,16.2890625 25.986328125,19.189453125 26.5795879364014,20.9326190948486 26.77734375,22.822265625 26.7041015625,24.55078125 26.572265625,26.015625 25.751953125,34.423828125 25.1953125,37.880859375 24.1552734375,41.19140625 22.5439453125,44.1796875 20.2734375,46.669921875 17.05078125,48.4130859375 13.2568359375,49.2919921875 9.462890625,49.6142578125 6.240234375,49.6875 7.705078125,45.52734375 9.521484375,45.4833984375 11.7333984375,45.2783203125 14.0478515625,44.8095703125 16.11328125,43.974609375 18.017578125,42.392578125 19.4091796875,40.2099609375 20.33203125,37.6025390625 20.830078125,34.775390625 21.62109375,26.513671875 21.7236328125,25.400390625 21.796875,23.84765625 21.298828125,21.357421875 19.8779296875,19.541015625 17.63671875,18.427734375 14.70703125,18.046875 0,18.046875 0,0z" />
    </g>
  </g>
</svg>