<?xml version="1.0" encoding="utf-8"?>
<!DOCTYPE svg PUBLIC "-//W3C//DTD SVG 1.1//EN" "http://www.w3.org/Graphics/SVG/1.1/DTD/svg11.dtd">
<svg width="30.1757831573486" height="37.060546875" xmlns="http://www.w3.org/2000/svg" xmlns:xlink="http://www.w3.org/1999/xlink" xmlns:xml="http://www.w3.org/XML/1998/namespace" version="1.1">
  <g>
    <g>
      <path style="fill:#FF0000;fill-opacity:1" d="M12.59765625,0L16.556396484375,0.29296875 20.0537109375,1.171875 23.0676250457764,2.640380859375 25.576171875,4.7021484375 27.56103515625,7.35717916488647 29.0039081573486,10.60546875 29.8828144073486,14.45068359375 30.1757831573486,18.896484375 29.8681659698486,23.26904296875 28.9453144073486,27.01171875 27.451171875,30.13916015625 25.4296875,32.666015625 22.9028301239014,34.60693359375 19.892578125,35.9765625 16.44287109375,36.78955078125 12.59765625,37.060546875 9.638671875,36.97265625 6.29882764816284,36.708984375 2.958984375,36.240234375 0,35.537109375 0.8203125,31.142578125 5.77148389816284,32.138671875 8.75244045257568,32.4462890625 12.1875,32.548828125 17.6953125,31.81640625 19.9108867645264,30.867919921875 21.7529296875,29.4873046875 23.2067852020264,27.64892578125 24.2578125,25.3271484375 24.8950176239014,22.481689453125 25.107421875,19.072265625 24.9224834442139,15.7333383560181 24.3676738739014,12.8063983917236 23.4429912567139,10.2914438247681 22.1484375,8.1884765625 20.4656982421875,6.52862644195557 18.37646484375,5.34301853179932 15.8807373046875,4.63165330886841 12.978515625,4.39453125 8.115234375,4.6435546875 6.21093702316284,4.91089010238647 4.83398389816284,5.21484375 4.83398389816284,16.494140625 14.560546875,16.494140625 13.740234375,20.888671875 0,20.888671875 0,1.81640625 2.94433641433716,1.0400390625 6.31347608566284,0.46875 9.66796875,0.1171875 12.59765625,0z" />
    </g>
  </g>
</svg>