<?xml version="1.0" encoding="utf-8"?>
<!DOCTYPE svg PUBLIC "-//W3C//DTD SVG 1.1//EN" "http://www.w3.org/Graphics/SVG/1.1/DTD/svg11.dtd">
<svg width="46.083984375" height="42.48046875" xmlns="http://www.w3.org/2000/svg" xmlns:xlink="http://www.w3.org/1999/xlink" xmlns:xml="http://www.w3.org/XML/1998/namespace" version="1.1">
  <g>
    <g>
      <path style="fill:#FF0000;fill-opacity:1" d="M41.07421875,11.8359375L45.5859375,11.8359375 45.5859375,42.48046875 41.07421875,42.48046875 41.07421875,11.8359375z M29.736328125,11.8359375L34.248046875,11.8359375 34.248046875,42.48046875 29.736328125,42.48046875 29.736328125,11.8359375z M0,11.8359375L4.921875,11.8359375 9.78515625,29.53125 10.341796875,31.67724609375 11.015625,34.365234375 11.6015625,36.767578125 12.01171875,38.408203125 12.94921875,38.408203125 13.4326171875,36.5478515625 14.12109375,33.662109375 14.6923828125,31.26708984375 15.17578125,29.4140625 19.86328125,11.8359375 24.609375,11.8359375 15.234375,42.48046875 9.287109375,42.48046875 0,11.8359375z M40.634765625,0L46.083984375,0 46.083984375,5.830078125 40.634765625,5.830078125 40.634765625,0z M29.296875,0L34.74609375,0 34.74609375,5.830078125 29.296875,5.830078125 29.296875,0z" />
    </g>
  </g>
</svg>