<?xml version="1.0" encoding="utf-8"?>
<!DOCTYPE svg PUBLIC "-//W3C//DTD SVG 1.1//EN" "http://www.w3.org/Graphics/SVG/1.1/DTD/svg11.dtd">
<svg width="36.708984375" height="42.48046875" xmlns="http://www.w3.org/2000/svg" xmlns:xlink="http://www.w3.org/1999/xlink" xmlns:xml="http://www.w3.org/XML/1998/namespace" version="1.1">
  <g>
    <g>
      <path style="fill:#FF0000;fill-opacity:1" d="M11.806640625,11.8359375L17.109375,11.8359375 22.55859375,20.947265625 24.111328125,23.583984375 25.693359375,20.830078125 30.849609375,11.8359375 36.005859375,11.8359375 26.630859375,26.66015625 36.708984375,42.48046875 31.435546875,42.48046875 25.4296875,32.578125 24.44091796875,30.9228515625 23.876953125,29.94140625 22.84423828125,31.787109375 22.44140625,32.51953125 16.669921875,42.48046875 11.455078125,42.48046875 21.240234375,26.77734375 11.806640625,11.8359375z M0.46875,11.8359375L5.09765625,11.8359375 5.09765625,42.48046875 0.46875,42.48046875 0.46875,11.8359375z M0,0L5.56640625,0 5.56640625,5.830078125 0,5.830078125 0,0z" />
    </g>
  </g>
</svg>