<?xml version="1.0" encoding="utf-8"?>
<!DOCTYPE svg PUBLIC "-//W3C//DTD SVG 1.1//EN" "http://www.w3.org/Graphics/SVG/1.1/DTD/svg11.dtd">
<svg width="49.951171875" height="43.18359375" xmlns="http://www.w3.org/2000/svg" xmlns:xlink="http://www.w3.org/1999/xlink" xmlns:xml="http://www.w3.org/XML/1998/namespace" version="1.1">
  <g>
    <g>
      <path style="fill:#FF0000;fill-opacity:1" d="M40.869140625,30.9375L38.90625,31.234130859375 37.353515625,32.1240234375 36.3427734375,33.533935546875 36.005859375,35.390625 36.328125,37.239990234375 37.294921875,38.5693359375 38.8330078125,39.371337890625 40.869140625,39.638671875 42.919921875,39.364013671875 44.501953125,38.5400390625 45.5126914978027,37.203369140625 45.849609375,35.390625 45.5126953125,33.6328125 44.53125,32.2119140625 42.9638671875,31.2744140625 40.869140625,30.9375z M40.869140625,20.537109375L39.228515625,20.8154296875 37.998046875,21.5625 37.2216796875,22.6904296875 36.943359375,24.08203125 37.236328125,25.517578125 38.056640625,26.689453125 39.3017578125,27.48046875 40.869140625,27.7734375 42.451171875,27.48046875 43.7255859375,26.689453125 44.5751953125,25.517578125 44.8828125,24.08203125 44.58984375,22.646484375 43.7548828125,21.533203125 42.48046875,20.80078125 40.869140625,20.537109375z M40.869140625,17.109375L44.1064453125,17.6220703125 46.58203125,19.04296875 48.1787109375,21.181640625 48.75,23.84765625 48.5339317321777,25.440673828125 47.8857421875,26.8798828125 45.46875,29.1796875 47.3291015625,30.4248046875 48.75,32.0361328125 49.6435546875,33.8525390625 49.951171875,35.7421875 49.306640625,38.84765625 47.4755859375,41.19140625 44.6044921875,42.6708984375 40.869140625,43.18359375 37.1484375,42.6708984375 34.2919921875,41.19140625 32.4462890625,38.84765625 31.787109375,35.7421875 32.080078125,33.8232421875 32.9443359375,32.0068359375 34.3505859375,30.41015625 36.26953125,29.1796875 33.8671875,26.8505859375 33.2080078125,25.418701171875 32.98828125,23.84765625 33.5595703125,21.1669921875 35.1708984375,19.0283203125 37.6611328125,17.6220703125 40.869140625,17.109375z M34.951171875,0.5859375L39.140625,0.5859375 14.00390625,42.59765625 9.78515625,42.59765625 34.951171875,0.5859375z M7.20703125,0L10.1806631088257,0.435791015625 12.48046875,1.7431640625 13.95263671875,3.753662109375 14.443359375,6.298828125 14.1778564453125,8.3331298828125 13.38134765625,10.0122079849243 12.0538330078125,11.3360605239868 10.1953125,12.3046875 10.1953125,12.421875 12.4639892578125,13.2531747817993 14.08447265625,14.5166034698486 15.0567626953125,16.2121601104736 15.380859375,18.33984375 14.75830078125,21.45263671875 12.890625,23.935546875 9.98290920257568,25.5615234375 6.240234375,26.103515625 2.67333936691284,25.71533203125 0,24.55078125 0,20.390625 3.09814405441284,22.060546875 6.357421875,22.6171875 8.45214748382568,22.342529296875 10.048828125,21.5185546875 11.0595693588257,20.225830078125 11.396484375,18.544921875 10.9954824447632,16.7376728057861 9.79247951507568,15.4467792510986 7.78747510910034,14.6722421646118 4.98046875,14.4140625 2.51953125,14.4140625 2.51953125,10.95703125 4.86328125,10.95703125 7.38830518722534,10.7116708755493 9.19189357757568,9.97558689117432 10.2740468978882,8.748779296875 10.634765625,7.03125 10.3710927963257,5.5059814453125 9.58007717132568,4.41650390625 8.26171779632568,3.7628173828125 6.416015625,3.544921875 3.67675757408142,4.05029296875 0.966796875,5.56640625 0.966796875,1.494140625 3.80126929283142,0.37353515625 7.20703125,0z" />
    </g>
  </g>
</svg>