<?xml version="1.0" encoding="utf-8"?>
<!DOCTYPE svg PUBLIC "-//W3C//DTD SVG 1.1//EN" "http://www.w3.org/Graphics/SVG/1.1/DTD/svg11.dtd">
<svg width="47.16796875" height="43.18359375" xmlns="http://www.w3.org/2000/svg" xmlns:xlink="http://www.w3.org/1999/xlink" xmlns:xml="http://www.w3.org/XML/1998/namespace" version="1.1">
  <g>
    <g>
      <path style="fill:#FF0000;fill-opacity:1" d="M38.994140625,17.080078125L41.9677734375,17.5158710479736 44.267578125,18.8232421875 45.7397422790527,20.833740234375 46.23046875,23.37890625 45.9649620056152,25.4132080078125 45.1684532165527,27.09228515625 43.8409385681152,28.4161376953125 41.982421875,29.384765625 41.982421875,29.501953125 44.2510948181152,30.333251953125 45.8715782165527,31.5966796875 46.8438682556152,33.292236328125 47.16796875,35.419921875 46.5454063415527,38.53271484375 44.677734375,41.015625 41.77001953125,42.6416015625 38.02734375,43.18359375 34.46044921875,42.79541015625 31.787109375,41.630859375 31.787109375,37.470703125 34.88525390625,39.140625 38.14453125,39.697265625 40.2392578125,39.422607421875 41.8359375,38.5986328125 42.8466796875,37.305908203125 43.18359375,35.625 42.7825927734375,33.8177490234375 41.57958984375,32.52685546875 39.5745849609375,31.7523193359375 36.767578125,31.494140625 34.306640625,31.494140625 34.306640625,28.037109375 36.650390625,28.037109375 39.1754150390625,27.791748046875 40.97900390625,27.0556640625 42.0611572265625,25.828857421875 42.421875,24.111328125 42.158203125,22.5860595703125 41.3671875,21.49658203125 40.048828125,20.8428955078125 38.203125,20.625 35.4638671875,21.13037109375 32.75390625,22.646484375 32.75390625,18.57421875 35.58837890625,17.4536151885986 38.994140625,17.080078125z M34.423828125,0.5859375L38.61328125,0.5859375 13.4765625,42.59765625 9.2578125,42.59765625 34.423828125,0.5859375z M8.232421875,0L11.25,0.498046875 13.623046875,1.9189453125 15.17578125,4.130859375 15.732421875,7.03125 15.523681640625,9.078369140625 14.8974609375,10.8837890625 12.802734375,13.916015625 10.078125,16.318359375 7.353515625,18.2666015625 5.2587890625,19.9658203125 4.632568359375,20.775146484375 4.423828125,21.591796875 4.423828125,21.9140625 16.23046875,21.9140625 16.23046875,25.48828125 0,25.48828125 0,23.0859375 0.216064393520355,21.390380859375 0.864257335662842,19.8779296875 3.0322265625,17.2265625 5.859375,14.8974609375 8.6865234375,12.626953125 10.8544921875,10.13671875 11.5026845932007,8.73779296875 11.71875,7.177734375 11.4440908432007,5.6689453125 10.6201171875,4.541015625 9.33471584320068,3.837890625 7.67578125,3.603515625 4.3505859375,4.3505859375 1.34765625,6.591796875 1.34765625,2.2265625 4.28466796875,0.556640625 8.232421875,0z" />
    </g>
  </g>
</svg>