<?xml version="1.0" encoding="utf-8"?>
<!DOCTYPE svg PUBLIC "-//W3C//DTD SVG 1.1//EN" "http://www.w3.org/Graphics/SVG/1.1/DTD/svg11.dtd">
<svg width="47.431640625" height="43.2421875" xmlns="http://www.w3.org/2000/svg" xmlns:xlink="http://www.w3.org/1999/xlink" xmlns:xml="http://www.w3.org/XML/1998/namespace" version="1.1">
  <g>
    <g>
      <path style="fill:#FF0000;fill-opacity:1" d="M33.3984375,17.607421875L46.259765625,17.607421875 46.259765625,21.240234375 36.5625,21.240234375 35.830078125,27.099609375 36.3427734375,27.0849609375 36.9873046875,27.0556640625 37.646484375,27.0263671875 38.14453125,27.01171875 41.71875,27.509765625 44.677734375,28.9892578125 46.6845703125,31.4501953125 47.431640625,34.892578125 47.2338829040527,36.866455078125 46.640625,38.5693359375 44.5166015625,41.1767578125 41.455078125,42.7294921875 37.880859375,43.2421875 34.599609375,42.92724609375 32.080078125,41.982421875 32.080078125,37.705078125 35.2001953125,39.2431640625 37.939453125,39.755859375 40.1806640625,39.404296875 41.9091796875,38.4375 43.0078125,36.9580078125 43.388671875,35.068359375 43.01513671875,33.1201171875 41.89453125,31.728515625 40.02685546875,30.8935546875 37.412109375,30.615234375 36.123046875,30.6298828125 34.7021484375,30.6884765625 33.2666015625,30.7763671875 31.9921875,30.849609375 33.3984375,17.607421875z M34.27734375,0.64453125L38.466796875,0.64453125 13.330078125,42.65625 9.111328125,42.65625 34.27734375,0.64453125z M8.7890625,0L10.83984375,0 10.83984375,25.546875 7.03125,25.546875 7.03125,4.86328125 3.603515625,7.2509765625 0,9.08203125 0,5.126953125 2.138671875,4.248046875 4.21875,3.1201171875 6.38671875,1.7138671875 8.7890625,0z" />
    </g>
  </g>
</svg>