<?xml version="1.0" encoding="utf-8"?>
<!DOCTYPE svg PUBLIC "-//W3C//DTD SVG 1.1//EN" "http://www.w3.org/Graphics/SVG/1.1/DTD/svg11.dtd">
<svg width="38.3203125" height="42.71484375" xmlns="http://www.w3.org/2000/svg" xmlns:xlink="http://www.w3.org/1999/xlink" xmlns:xml="http://www.w3.org/XML/1998/namespace" version="1.1">
  <g>
    <g>
      <path style="fill:#FF0000;fill-opacity:1" d="M15.29296875,0L19.0351867675781,0.2764892578125 22.2784423828125,1.10595703125 25.0227355957031,2.4884033203125 27.26806640625,4.423828125 29.0144348144531,6.9122314453125 30.2618408203125,9.95361328125 31.0102844238281,13.5479736328125 31.259765625,17.6953125 31.259765625,19.482421875 38.3203125,19.482421875 38.3203125,23.935546875 31.259765625,23.935546875 31.259765625,42.71484375 26.337890625,42.71484375 26.337890625,16.904296875 26.1735534667969,13.9791870117188 25.6805400848389,11.444091796875 24.8588542938232,9.29901123046875 23.7084941864014,7.5439453125 22.2294597625732,6.17889404296875 20.4217510223389,5.203857421875 18.2853698730469,4.61883544921875 15.8203125,4.423828125 13.2659912109375,4.62570190429688 11.05224609375,5.2313232421875 9.1790771484375,6.24069213867188 7.646484375,7.65380859375 6.4544677734375,9.47067260742188 5.60302734375,11.6912841796875 5.0921630859375,14.3156433105469 4.921875,17.34375 4.921875,42.71484375 0,42.71484375 0,17.021484375 0.23895263671875,13.0320739746094 0.955810546875,9.5745849609375 2.15057373046875,6.64901733398438 3.8232421875,4.25537109375 5.97381591796875,2.39364624023438 8.602294921875,1.0638427734375 11.7086791992188,0.265960693359375 15.29296875,0z" />
    </g>
  </g>
</svg>