<?xml version="1.0" encoding="utf-8"?>
<!DOCTYPE svg PUBLIC "-//W3C//DTD SVG 1.1//EN" "http://www.w3.org/Graphics/SVG/1.1/DTD/svg11.dtd">
<svg width="24.90234375" height="44.00390625" xmlns="http://www.w3.org/2000/svg" xmlns:xlink="http://www.w3.org/1999/xlink" xmlns:xml="http://www.w3.org/XML/1998/namespace" version="1.1">
  <g>
    <g>
      <path style="fill:#FF0000;fill-opacity:1" d="M11.71875,17.431640625L9.79980373382568,19.39453125 8.26171875,21.298828125 6.1376953125,24.931640625 5.068359375,28.3740234375 4.77539157867432,31.640625 5.3173828125,35.2734375 6.8115234375,37.8662109375 9.0234375,39.43359375 11.748046875,39.9609375 15.3955078125,39.2138671875 18.0029296875,37.1484375 19.5703125,34.072265625 20.09765625,30.29296875 20.09765625,29.12109375 19.453125,24.8291015625 17.6806640625,21.73828125 15.0146484375,19.4091796875 11.71875,17.431640625z M3.98437476158142,0L8.173828125,1.7578125 6.5625,4.658203125 18.076171875,11.044921875 14.765625,14.47265625 18.7646484375,16.9921875 21.9873046875,19.98046875 24.1259765625,23.73046875 24.7082500457764,25.95703125 24.90234375,28.4765625 24.90234375,43.30078125 20.09765625,43.30078125 20.09765625,38.5546875 19.98046875,38.5546875 18.36181640625,40.938720703125 16.376953125,42.6416015625 14.02587890625,43.663330078125 11.30859375,44.00390625 6.7822265625,43.271484375 3.20800805091858,41.07421875 0.849609851837158,37.4267578125 0.212402582168579,35.064697265625 0,32.34375 0.600586414337158,27.216796875 2.53417992591858,22.236328125 4.06494140625,19.735107421875 5.9912109375,17.2119140625 8.338623046875,14.6301288604736 11.1328125,11.953125 0.761719226837158,6.26953125 3.98437476158142,0z" />
    </g>
  </g>
</svg>