<?xml version="1.0" encoding="utf-8"?>
<!DOCTYPE svg PUBLIC "-//W3C//DTD SVG 1.1//EN" "http://www.w3.org/Graphics/SVG/1.1/DTD/svg11.dtd">
<svg width="38.61328125" height="42.71484375" xmlns="http://www.w3.org/2000/svg" xmlns:xlink="http://www.w3.org/1999/xlink" xmlns:xml="http://www.w3.org/XML/1998/namespace" version="1.1">
  <g>
    <g>
      <path style="fill:#FF0000;fill-opacity:1" d="M0,0L4.921875,0 4.921875,25.37109375 5.0921630859375,28.3992004394531 5.60302734375,31.0235595703125 6.4544677734375,33.2441711425781 7.646484375,35.06103515625 9.1790771484375,36.4741516113281 11.05224609375,37.4835205078125 13.2659912109375,38.0891418457031 15.8203125,38.291015625 18.2853698730469,38.0960083007813 20.4217510223389,37.510986328125 22.2294597625732,36.5359497070313 23.7084941864014,35.1708984375 24.8588542938232,33.4158325195313 25.6805400848389,31.270751953125 26.1735534667969,28.7356567382813 26.337890625,25.810546875 26.337890625,0 38.61328125,0 38.61328125,4.453125 31.259765625,4.453125 31.259765625,25.01953125 31.0102844238281,29.1668701171875 30.2618408203125,32.76123046875 29.0144348144531,35.8026123046875 27.26806640625,38.291015625 25.0227355957031,40.2264404296875 22.2784423828125,41.60888671875 19.0351867675781,42.4383544921875 15.29296875,42.71484375 11.7086791992188,42.4488830566406 8.602294921875,41.6510009765625 5.97381591796875,40.3211975097656 3.8232421875,38.45947265625 2.15057373046875,36.0658264160156 0.955810546875,33.1402587890625 0.23895263671875,29.6827697753906 0,25.693359375 0,0z" />
    </g>
  </g>
</svg>