<?xml version="1.0" encoding="utf-8"?>
<!DOCTYPE svg PUBLIC "-//W3C//DTD SVG 1.1//EN" "http://www.w3.org/Graphics/SVG/1.1/DTD/svg11.dtd">
<svg width="34.453125" height="42.71484375" xmlns="http://www.w3.org/2000/svg" xmlns:xlink="http://www.w3.org/1999/xlink" xmlns:xml="http://www.w3.org/XML/1998/namespace" version="1.1">
  <g>
    <g>
      <path style="fill:#FF0000;fill-opacity:1" d="M17.109375,0L20.855712890625,0.274658203125 24.2431640625,1.0986328125 27.2167949676514,2.45361328125 29.7216796875,4.3212890625 31.732177734375,6.68701171875 33.22265625,9.5361328125 34.1455078125,12.8503437042236 34.453125,16.611328125 34.207763671875,19.720458984375 33.4716796875,22.7197265625 32.274169921875,25.53955078125 30.64453125,28.1103515625 28.59375,30.406494140625 26.1328125,32.40234375 23.2910137176514,34.03564453125 20.09765625,35.244140625 31.025390625,38.408203125 29.8828125,42.71484375 0.673827886581421,34.658203125 1.81640672683716,30.3515625 12.5390625,33.33984375 16.3037109375,32.508544921875 19.62890625,31.2451171875 22.4963359832764,29.6044921875 24.8876953125,27.6416015625 26.7846660614014,25.374755859375 28.1689453125,22.822265625 29.014892578125,20.03173828125 29.296875,17.05078125 29.095458984375,14.3371601104736 28.4912109375,11.8798828125 26.1328125,7.8955078125 22.3095703125,5.33203125 19.874267578125,4.65087890625 17.109375,4.423828125 14.37744140625,4.654541015625 11.982421875,5.3466796875 8.2470703125,7.91015625 5.947265625,11.8505859375 5.35400390625,14.2565937042236 5.15625,16.875 0,16.875 0.3076171875,13.3557147979736 1.23046875,10.1220703125 2.713623046875,7.239990234375 4.7021484375,4.775390625 7.17041015625,2.7685546875 10.0927734375,1.259765625 13.421630859375,0.31494140625 17.109375,0z" />
    </g>
  </g>
</svg>