<?xml version="1.0" encoding="utf-8"?>
<!DOCTYPE svg PUBLIC "-//W3C//DTD SVG 1.1//EN" "http://www.w3.org/Graphics/SVG/1.1/DTD/svg11.dtd">
<svg width="36.005859375" height="42.71484375" xmlns="http://www.w3.org/2000/svg" xmlns:xlink="http://www.w3.org/1999/xlink" xmlns:xml="http://www.w3.org/XML/1998/namespace" version="1.1">
  <g>
    <g>
      <path style="fill:#FF0000;fill-opacity:1" d="M21.416015625,4.04296875L19.127197265625,4.23614501953125 17.1240234375,4.815673828125 15.406494140625,5.78155517578125 13.974609375,7.1337890625 12.041015625,10.6311044692993 11.396484375,14.94140625 12.0263671875,19.38720703125 13.916015625,22.998046875 15.32958984375,24.3951416015625 17.05078125,25.39306640625 19.07958984375,25.9918212890625 21.416015625,26.19140625 23.7533550262451,25.9982299804688 25.7556133270264,25.418701171875 27.4227886199951,24.4528198242188 28.7548828125,23.1005859375 30.5017070770264,19.544677734375 31.083984375,15.05859375 30.5017070770264,10.6054697036743 28.7548828125,7.08984375 27.4227886199951,5.7568359375 25.7556133270264,4.8046875 23.7533550262451,4.2333984375 21.416015625,4.04296875z M21.064453125,0L24.3640117645264,0.26458740234375 27.2900371551514,1.058349609375 29.8425273895264,2.38128662109375 32.021484375,4.2333984375 33.7646484375,6.50848436355591 35.009765625,9.10034275054932 35.7568359375,12.0089731216431 36.005859375,15.234375 35.77880859375,18.46435546875 35.09765625,21.357421875 33.96240234375,23.91357421875 32.373046875,26.1328125 30.3478984832764,27.92724609375 27.9052715301514,29.208984375 25.0451641082764,29.97802734375 21.767578125,30.234375 18.724365234375,30.0164794921875 15.9814453125,29.36279296875 13.538818359375,28.2733154296875 11.396484375,26.748046875 11.396484375,33.80859375 36.005859375,33.80859375 36.005859375,38.26171875 11.396484375,38.26171875 11.396484375,42.71484375 6.474609375,42.71484375 6.474609375,38.26171875 0,38.26171875 0,33.80859375 6.474609375,33.80859375 6.474609375,14.765625 6.71905517578125,11.6500854492188 7.452392578125,8.836669921875 8.67462158203125,6.32537841796875 10.3857421875,4.1162109375 12.5198364257813,2.31536865234375 15.010986328125,1.029052734375 17.8591918945313,0.25726318359375 21.064453125,0z" />
    </g>
  </g>
</svg>