<?xml version="1.0" encoding="utf-8"?>
<!DOCTYPE svg PUBLIC "-//W3C//DTD SVG 1.1//EN" "http://www.w3.org/Graphics/SVG/1.1/DTD/svg11.dtd">
<svg width="32.314453125" height="43.41796875" xmlns="http://www.w3.org/2000/svg" xmlns:xlink="http://www.w3.org/1999/xlink" xmlns:xml="http://www.w3.org/XML/1998/namespace" version="1.1">
  <g>
    <g>
      <path style="fill:#FF0000;fill-opacity:1" d="M16.962890625,4.072265625L13.5205078125,4.5849609375 10.7666015625,6.0205078125 8.9501953125,8.2763671875 8.291015625,11.220703125 8.90625,14.5166015625 10.6494140625,16.8896484375 13.359375,18.33984375 16.875,18.8671875 20.390625,18.2666015625 23.115234375,16.8017578125 24.873046875,14.4580078125 25.48828125,11.220703125 24.78515625,8.1884765625 22.91015625,5.947265625 20.185546875,4.5556640625 16.962890625,4.072265625z M16.962890625,0L21.85546875,0.5859375 26.162109375,2.4462890625 29.23828125,5.6982421875 30.1171875,7.840576171875 30.41015625,10.3125 29.912109375,13.9855966567993 28.41796875,16.9482440948486 25.927734375,19.2004413604736 22.44140625,20.7421875 22.44140625,20.859375 26.3818359375,21.7236328125 29.501953125,23.7158203125 31.5673828125,26.7919921875 32.314453125,30.87890625 31.973876953125,33.863525390625 30.9521484375,36.4306640625 29.3701171875,38.587646484375 27.3486328125,40.341796875 24.9389629364014,41.69677734375 22.1923828125,42.65625 19.229736328125,43.2275390625 16.171875,43.41796875 13.07373046875,43.2275390625 10.107421875,42.65625 7.37548828125,41.69677734375 4.98046875,40.341796875 2.97363233566284,38.587646484375 1.40625,36.4306640625 0.380859375,33.863525390625 0,30.87890625 4.921875,30.87890625 5.115966796875,32.74658203125 5.6982421875,34.423828125 7.939453125,37.1044921875 11.484375,38.7890625 16.201171875,39.375 20.3173828125,38.90625 23.90625,37.4560546875 26.4404296875,34.951171875 27.1545391082764,33.28125 27.392578125,31.318359375 27.2012310028076,29.3948364257813 26.6271953582764,27.725830078125 25.6704692840576,26.3113403320313 24.3310546875,25.1513671875 22.5888042449951,24.2477416992188 20.4235820770264,23.602294921875 17.8353862762451,23.2150268554688 14.82421875,23.0859375 1.7578125,23.0859375 1.7578125,19.013671875 7.353515625,19.013671875 5.628662109375,17.3767108917236 4.3798828125,15.3955078125 3.62182569503784,13.0480976104736 3.369140625,10.3125 3.66577100753784,7.825927734375 4.5556640625,5.6982421875 7.6611328125,2.490234375 12.01171875,0.615234375 16.962890625,0z" />
    </g>
  </g>
</svg>