<?xml version="1.0" encoding="utf-8"?>
<!DOCTYPE svg PUBLIC "-//W3C//DTD SVG 1.1//EN" "http://www.w3.org/Graphics/SVG/1.1/DTD/svg11.dtd">
<svg width="33.603515625" height="42.71484375" xmlns="http://www.w3.org/2000/svg" xmlns:xlink="http://www.w3.org/1999/xlink" xmlns:xml="http://www.w3.org/XML/1998/namespace" version="1.1">
  <g>
    <g>
      <path style="fill:#FF0000;fill-opacity:1" d="M0,0L4.921875,0 4.921875,25.37109375 5.137939453125,28.39599609375 5.7861328125,31.025390625 6.829833984375,33.251953125 8.232421875,35.068359375 9.97558498382568,36.478271484375 12.041015625,37.4853515625 14.39208984375,38.089599609375 16.9921875,38.291015625 19.5080547332764,38.096923828125 21.7822265625,37.5146484375 23.7817363739014,36.54052734375 25.4736328125,35.1708984375 26.8359375,33.4130859375 27.8466796875,31.2744140625 28.472900390625,28.743896484375 28.681640625,25.810546875 28.681640625,0 33.603515625,0 33.603515625,25.01953125 33.306884765625,29.168701171875 32.4169921875,32.7685546875 30.97412109375,35.8154296875 29.0185546875,38.3056640625 26.56494140625,40.2392578125 23.6279296875,41.6162109375 20.2478008270264,42.440185546875 16.46484375,42.71484375 12.82470703125,42.447509765625 9.580078125,41.6455078125 6.763916015625,40.3125 4.4091796875,38.4521484375 2.53051710128784,36.060791015625 1.142578125,33.134765625 0.28564453125,29.677734375 0,25.693359375 0,0z" />
    </g>
  </g>
</svg>