<?xml version="1.0" encoding="utf-8"?>
<!DOCTYPE svg PUBLIC "-//W3C//DTD SVG 1.1//EN" "http://www.w3.org/Graphics/SVG/1.1/DTD/svg11.dtd">
<svg width="33.603515625" height="42.71484375" xmlns="http://www.w3.org/2000/svg" xmlns:xlink="http://www.w3.org/1999/xlink" xmlns:xml="http://www.w3.org/XML/1998/namespace" version="1.1">
  <g>
    <g>
      <path style="fill:#FF0000;fill-opacity:1" d="M16.845703125,0L20.7733154296875,0.2764892578125 24.17724609375,1.10595703125 27.0574951171875,2.4884033203125 29.4140625,4.423828125 31.2469482421875,6.9122314453125 32.55615234375,9.95361328125 33.3416748046875,13.5479736328125 33.603515625,17.6953125 33.603515625,21.9140625 28.681640625,21.9140625 28.681640625,16.904296875 28.4962463378906,13.9791870117188 27.9400634765625,11.444091796875 27.0130920410156,9.29901123046875 25.71533203125,7.5439453125 24.0467834472656,6.17889404296875 22.0074462890625,5.203857421875 19.5973205566406,4.61883544921875 16.81640625,4.423828125 14.0286254882813,4.62570190429688 11.612548828125,5.2313232421875 9.56817626953125,6.24069213867188 7.8955078125,7.65380859375 6.59454345703125,9.47067260742188 5.665283203125,11.6912841796875 5.10772705078125,14.3156433105469 4.921875,17.34375 4.921875,42.71484375 0,42.71484375 0,17.021484375 0.263214111328125,13.0320739746094 1.0528564453125,9.5745849609375 2.36892700195313,6.64901733398438 4.21142578125,4.25537109375 6.58035278320313,2.39364624023438 9.4757080078125,1.0638427734375 12.8974914550781,0.265960693359375 16.845703125,0z" />
    </g>
  </g>
</svg>