<?xml version="1.0" encoding="utf-8"?>
<!DOCTYPE svg PUBLIC "-//W3C//DTD SVG 1.1//EN" "http://www.w3.org/Graphics/SVG/1.1/DTD/svg11.dtd">
<svg width="33.603515625" height="42.71484375" xmlns="http://www.w3.org/2000/svg" xmlns:xlink="http://www.w3.org/1999/xlink" xmlns:xml="http://www.w3.org/XML/1998/namespace" version="1.1">
  <g>
    <g>
      <path style="fill:#FF0000;fill-opacity:1" d="M16.46484375,0L20.2478008270264,0.274658203125 23.6279296875,1.0986328125 26.56494140625,2.4755859375 29.0185546875,4.4091796875 30.97412109375,6.8994140625 32.4169921875,9.9462890625 33.306884765625,13.5461444854736 33.603515625,17.6953125 33.603515625,42.71484375 28.681640625,42.71484375 28.681640625,16.904296875 28.472900390625,13.9892597198486 27.8466796875,11.455078125 26.8359375,9.305419921875 25.4736328125,7.5439453125 23.7817363739014,6.17431640625 21.7822265625,5.2001953125 19.5080547332764,4.617919921875 16.9921875,4.423828125 14.39208984375,4.625244140625 12.041015625,5.2294921875 9.97558498382568,6.236572265625 8.232421875,7.646484375 6.829833984375,9.462890625 5.7861328125,11.689453125 5.137939453125,14.3188495635986 4.921875,17.34375 4.921875,42.71484375 0,42.71484375 0,17.021484375 0.28564453125,13.0371112823486 1.142578125,9.580078125 2.53051710128784,6.654052734375 4.4091796875,4.2626953125 6.763916015625,2.40234375 9.580078125,1.0693359375 12.82470703125,0.267333984375 16.46484375,0z" />
    </g>
  </g>
</svg>