<?xml version="1.0" encoding="utf-8"?>
<!DOCTYPE svg PUBLIC "-//W3C//DTD SVG 1.1//EN" "http://www.w3.org/Graphics/SVG/1.1/DTD/svg11.dtd">
<svg width="33.1640625000001" height="45.1171875" xmlns="http://www.w3.org/2000/svg" xmlns:xlink="http://www.w3.org/1999/xlink" xmlns:xml="http://www.w3.org/XML/1998/namespace" version="1.1">
  <g>
    <g>
      <path style="fill:#FF0000;fill-opacity:1" d="M14.677734375,18.45703125L10.4187002182007,19.1381855010986 7.4267578125,21.181640625 5.62133741378784,24.580078125 4.921875,29.326171875 5.62133741378784,34.456787109375 7.4267578125,38.1298828125 10.2355947494507,40.338134765625 13.9453125,41.07421875 15.919189453125,40.81787109375 17.6220703125,40.048828125 20.2001953125,37.353515625 21.708984375,33.544921875 22.20703125,29.208984375 22.20703125,18.45703125 14.677734375,18.45703125z M22.20703125,0L27.12890625,0 27.12890625,14.4140625 33.1640625,14.4140625 33.1640625,18.45703125 27.12890625,18.45703125 27.12890625,29.326171875 26.9201641082764,32.347412109375 26.2939453125,35.2587890625 25.2612285614014,37.950439453125 23.8330078125,40.3125 22.0165996551514,42.286376953125 19.8193359375,43.8134765625 17.244873046875,44.791259765625 14.296875,45.1171875 10.9204092025757,44.81689453125 7.998046875,43.916015625 5.53344678878784,42.48046875 3.53027319908142,40.576171875 1.98120093345642,38.23974609375 0.878906011581421,35.5078125 0.219726353883743,32.45361328125 0,29.150390625 0.234374821186066,26.00830078125 0.9375,23.14453125 2.09106421470642,20.61767578125 3.67675757408142,18.486328125 5.68725538253784,16.7688007354736 8.115234375,15.4833984375 10.9423818588257,14.6813983917236 14.150390625,14.4140625 22.20703125,14.4140625 22.20703125,0z" />
    </g>
  </g>
</svg>