<?xml version="1.0" encoding="utf-8"?>
<!DOCTYPE svg PUBLIC "-//W3C//DTD SVG 1.1//EN" "http://www.w3.org/Graphics/SVG/1.1/DTD/svg11.dtd">
<svg width="42.59765625" height="43.798828125" xmlns="http://www.w3.org/2000/svg" xmlns:xlink="http://www.w3.org/1999/xlink" xmlns:xml="http://www.w3.org/XML/1998/namespace" version="1.1">
  <g>
    <g>
      <path style="fill:#FF0000;fill-opacity:1" d="M0,0L4.8046875,0 4.8046875,17.2265625 5.189208984375,21.5185546875 6.3427734375,24.43359375 8.40454006195068,26.103515625 11.513671875,26.66015625 14.359130859375,25.95703125 16.7431640625,23.84765625 18.358154296875,20.7568359375 18.896484375,17.109375 18.896484375,0 23.701171875,0 23.701171875,17.8125 24.1278057098389,21.683349609375 25.4077129364014,24.4482421875 27.5408916473389,26.107177734375 30.52734375,26.66015625 33.4130859375,25.997314453125 35.7421875,24.0087890625 37.2802734375,20.958251953125 37.79296875,17.109375 37.79296875,0 42.59765625,0 42.59765625,43.798828125 37.79296875,43.798828125 37.79296875,25.25390625 37.67578125,25.25390625 35.89599609375,27.637939453125 33.75,29.3408203125 31.23779296875,30.362548828125 28.359375,30.703125 25.4809551239014,30.274658203125 22.998046875,28.9892578125 21.0717754364014,27.008056640625 19.86328125,24.4921875 17.98828125,27.20947265625 15.703125,29.150390625 13.0078125,30.31494140625 9.90234375,30.703125 7.58148193359375,30.5122375488281 5.570068359375,29.9395751953125 3.86810302734375,28.9851379394531 2.4755859375,27.64892578125 1.39251708984375,25.9309387207031 0.618896484375,23.8311767578125 0.15472412109375,21.3496398925781 0,18.486328125 0,0z" />
    </g>
  </g>
</svg>