<?xml version="1.0" encoding="utf-8"?>
<!DOCTYPE svg PUBLIC "-//W3C//DTD SVG 1.1//EN" "http://www.w3.org/Graphics/SVG/1.1/DTD/svg11.dtd">
<svg width="57.24609375" height="57.24609375" xmlns="http://www.w3.org/2000/svg" xmlns:xlink="http://www.w3.org/1999/xlink" xmlns:xml="http://www.w3.org/XML/1998/namespace" version="1.1">
  <g>
    <g>
      <path style="fill:#FF0000;fill-opacity:1" d="M14.23828125,15.76171875L14.23828125,40.078125 43.0078125,40.078125 43.0078125,15.76171875 33.955078125,15.76171875 33.955078125,28.125 34.13818359375,29.208984375 34.6875,29.82421875 36.416015625,30.05859375 38.0859375,29.70703125 38.3990478515625,29.249267578125 38.63525390625,28.3740234375 38.7945556640625,27.081298828125 38.876953125,25.37109375 40.810546875,26.337890625 41.44775390625,26.6748065948486 41.66015625,27.099609375 41.630859375,27.5390625 41.02294921875,30.47607421875 39.90234375,32.138671875 38.583984375,32.8125 37.6904296875,32.900390625 36.240234375,32.9296875 33.91845703125,32.7978515625 32.34375,32.40234375 31.22314453125,31.28173828125 30.849609375,29.208984375 30.849609375,15.76171875 25.517578125,15.76171875 25.3710918426514,19.5959491729736 25.0488262176514,22.8955097198486 24.5507793426514,25.6604022979736 23.876953125,27.890625 21.6650390625,31.6552734375 18.251953125,34.8046875 17.578125,35.15625 16.875,34.62890625 14.8828125,32.9296875 17.0526123046875,31.5472412109375 18.81591796875,29.91943359375 20.1727294921875,28.0462646484375 21.123046875,25.927734375 21.5899658203125,24.0838642120361 21.93603515625,21.7749042510986 22.1612548828125,19.0008563995361 22.265625,15.76171875 14.23828125,15.76171875z M11.279296875,12.65625L17.109375,12.7734375 40.13671875,12.7734375 46.025390625,12.65625 46.435546875,13.06640625 46.318359375,22.55859375 46.318359375,31.376953125 46.435546875,45.52734375 46.025390625,45.87890625 43.41796875,45.87890625 43.0078125,45.52734375 43.0078125,43.18359375 14.23828125,43.18359375 14.23828125,45.5859375 13.828125,45.99609375 11.279296875,45.99609375 10.810546875,45.5859375 10.927734375,31.435546875 10.927734375,23.642578125 10.810546875,13.06640625 11.279296875,12.65625z M28.623046875,1.9921875L25.081787109375,2.22107148170471 21.6650390625,2.90771770477295 18.372802734375,4.05212593078613 15.205078125,5.654296875 9.814453125,9.814453125 5.654296875,15.205078125 4.0521240234375,18.372802734375 2.90771484375,21.6650390625 2.2210693359375,25.081787109375 1.9921875,28.623046875 2.2210693359375,32.164306640625 2.90771484375,35.5810546875 4.0521240234375,38.873291015625 5.654296875,42.041015625 9.814453125,47.431640625 15.205078125,51.591796875 18.372802734375,53.1939697265625 21.6650390625,54.33837890625 25.081787109375,55.0250244140625 28.623046875,55.25390625 32.164306640625,55.0250244140625 35.5810546875,54.33837890625 38.873291015625,53.1939697265625 42.041015625,51.591796875 47.4316368103027,47.431640625 51.591796875,42.041015625 53.1939659118652,38.873291015625 54.3383750915527,35.5810546875 55.0250205993652,32.164306640625 55.25390625,28.623046875 55.0250205993652,25.081787109375 54.3383750915527,21.6650390625 53.1939659118652,18.372802734375 51.591796875,15.205078125 47.4316368103027,9.814453125 42.041015625,5.654296875 38.873291015625,4.05212593078613 35.5810546875,2.90771770477295 32.164306640625,2.22107148170471 28.623046875,1.9921875z M28.623046875,0L32.4371337890625,0.245363473892212 36.11572265625,0.981448173522949 39.6588134765625,2.20825409889221 43.06640625,3.92578101158142 48.8671836853027,8.37890625 53.3203125,14.1796875 55.0378379821777,17.5872802734375 56.2646446228027,21.13037109375 57.0007286071777,24.8089599609375 57.24609375,28.623046875 57.0007286071777,32.4371337890625 56.2646446228027,36.11572265625 55.0378379821777,39.6588134765625 53.3203125,43.06640625 48.8671836853027,48.8671875 43.06640625,53.3203125 39.6588134765625,55.037841796875 36.11572265625,56.2646484375 32.4371337890625,57.000732421875 28.623046875,57.24609375 24.8089599609375,57.000732421875 21.13037109375,56.2646484375 17.5872802734375,55.037841796875 14.1796875,53.3203125 8.37890625,48.8671875 3.92578125,43.06640625 2.208251953125,39.6588134765625 0.9814453125,36.11572265625 0.245361328125,32.4371337890625 0,28.623046875 0.245361328125,24.8089599609375 0.9814453125,21.13037109375 2.208251953125,17.5872802734375 3.92578125,14.1796875 8.37890625,8.37890625 14.1796875,3.92578101158142 17.5872802734375,2.20825409889221 21.13037109375,0.981448173522949 24.8089599609375,0.245363473892212 28.623046875,0z" />
    </g>
  </g>
</svg>