<?xml version="1.0" encoding="utf-8"?>
<!DOCTYPE svg PUBLIC "-//W3C//DTD SVG 1.1//EN" "http://www.w3.org/Graphics/SVG/1.1/DTD/svg11.dtd">
<svg width="56.513671875" height="58.41796875" xmlns="http://www.w3.org/2000/svg" xmlns:xlink="http://www.w3.org/1999/xlink" xmlns:xml="http://www.w3.org/XML/1998/namespace" version="1.1">
  <g>
    <g>
      <path style="fill:#FF0000;fill-opacity:1" d="M37.44140625,22.001953125L38.10791015625,22.3168964385986 39.111328125,23.26171875 39.92431640625,24.2504901885986 40.1953125,24.931640625 39.609375,25.751953125 38.7744140625,26.3232440948486 37.6171875,27.333984375 34.3798828125,30.02197265625 30.1171875,33.1640625 30.1171875,35.68359375 40.60546875,35.68359375 47.98828125,35.56640625 48.33984375,35.859375 48.33984375,38.701171875 47.98828125,39.052734375 40.546875,38.935546875 30.1171875,38.935546875 30.1171875,44.326171875 30.17578125,49.86328125 30.1025371551514,51.328125 29.8828125,52.32421875 28.857421875,53.642578125 27.9199199676514,54.1168212890625 26.6015605926514,54.45556640625 24.9023418426514,54.6588134765625 22.822265625,54.7265625 21.708984375,54.7265625 20.9765625,54.521484375 20.68359375,53.818359375 19.599609375,50.68359375 21.708984375,50.92529296875 24.521484375,51.005859375 25.6347637176514,50.89599609375 26.279296875,50.56640625 26.5869121551514,49.95849609375 26.689453125,48.955078125 26.689453125,38.935546875 15.9375,38.935546875 8.49609375,39.052734375 8.203125,38.701171875 8.203125,35.859375 8.49609375,35.56640625 15.87890625,35.68359375 26.689453125,35.68359375 26.337890625,29.970703125 28.798828125,30.64453125 34.98046875,25.400390625 22.8515625,25.400390625 16.376953125,25.517578125 15.99609375,25.166015625 15.99609375,22.587890625 16.376953125,22.236328125 22.8515625,22.353515625 35.625,22.353515625 36.826171875,22.119140625 37.44140625,22.001953125z M16.69921875,4.27734375L17.109375,4.541015625 19.21142578125,7.90283203125 20.830078125,11.015625 20.888671875,11.279296875 20.5078125,11.630859375 18.10546875,12.65625 17.841796875,12.744140625 17.51953125,12.451171875 14.091796875,5.80078125 14.00390625,5.5078125 14.326171875,5.15625 16.376953125,4.365234375 16.69921875,4.27734375z M38.583984375,3.69140601158142L41.89453125,5.12695360183716 42.421875,5.85937547683716 42.12890625,6.50390577316284 41.162109375,8.02734375 38.466796875,13.41796875 40.60546875,13.41796875 46.81640625,13.30078125 47.16796875,13.7109375 47.05078125,18.134765625 47.05078125,20.654296875 47.16796875,25.341796875 46.787109375,25.634765625 43.974609375,25.634765625 43.681640625,25.341796875 43.681640625,16.5234375 12.83203125,16.5234375 12.83203125,25.341796875 12.48046875,25.634765625 9.638671875,25.634765625 9.287109375,25.341796875 9.404296875,20.654296875 9.404296875,18.134765625 9.287109375,13.7109375 9.638671875,13.30078125 15.87890625,13.41796875 34.921875,13.41796875 38.02734375,6.59179735183716 38.583984375,3.69140601158142z M27.1875,3.19335913658142L27.59765625,3.51562523841858 30.732421875,10.546875 30.732421875,10.693359375 30.41015625,11.07421875 27.94921875,12.041015625 27.65625,12.099609375 27.36328125,11.806640625 26.1401348114014,8.1884765625 24.462890625,4.59960985183716 24.404296875,4.3359375 24.7265625,4.01367235183716 26.953125,3.22265648841858 27.1875,3.19335913658142z M47.05078125,0L49.5172080993652,3.8873291015625 51.5844688415527,7.66845703125 53.2525596618652,11.3433837890625 54.521484375,14.912109375 56.0156211853027,21.7236328125 56.513671875,29.208984375 55.8618125915527,37.6904296875 53.90625,45.380859375 51.0937461853027,51.70166015625 47.05078125,58.41796875 45.52734375,57.5390625 49.5703086853027,50.244140625 52.20703125,43.0078125 53.4594688415527,36.45263671875 53.876953125,29.208984375 53.3276329040527,20.9619140625 51.6796875,13.564453125 49.1601524353027,7.27294921875 45.52734375,0.878906309604645 47.05078125,0z M9.4921875,0L10.986328125,0.878906309604645 6.943359375,8.173828125 4.30664110183716,15.41015625 3.05419969558716,21.96533203125 2.63671875,29.208984375 3.18603563308716,37.4560546875 4.83398485183716,44.853515625 7.353515625,51.14501953125 10.986328125,57.5390625 9.4921875,58.41796875 7.02392625808716,54.5306396484375 4.95117235183716,50.74951171875 3.27392649650574,47.0745849609375 1.99218833446503,43.505859375 0.498047202825546,36.6943359375 0,29.208984375 0.651855766773224,20.7275390625 2.60742235183716,13.037109375 5.42724609375,6.71630859375 9.4921875,0z" />
    </g>
  </g>
</svg>