<?xml version="1.0" encoding="utf-8"?>
<!DOCTYPE svg PUBLIC "-//W3C//DTD SVG 1.1//EN" "http://www.w3.org/Graphics/SVG/1.1/DTD/svg11.dtd">
<svg width="57.24609375" height="57.24609375" xmlns="http://www.w3.org/2000/svg" xmlns:xlink="http://www.w3.org/1999/xlink" xmlns:xml="http://www.w3.org/XML/1998/namespace" version="1.1">
  <g>
    <g>
      <path style="fill:#FF0000;fill-opacity:1" d="M29.1796875,35.302734375L29.53125,35.5078125 31.64794921875,37.7197265625 33.896484375,40.6640625 34.013671875,40.95703125 33.662109375,41.337890625 31.845703125,42.71484375 31.435546875,42.919921875 31.142578125,42.65625 26.923828125,37.1484375 26.748046875,36.884765625 27.1875,36.474609375 28.740234375,35.5078125 29.1796875,35.302734375z M39.140625,26.337890625L42.392578125,26.689453125 42.919921875,27.041015625 42.744140625,27.7734375 42.54638671875,28.6669921875 42.48046875,30.234375 42.48046875,30.5859375 47.783203125,30.46875 48.251953125,30.8203125 48.251953125,33.046875 47.783203125,33.45703125 42.48046875,33.33984375 42.48046875,38.61328125 42.5390625,44.091796875 42.22412109375,46.025390625 41.279296875,47.314453125 39.51416015625,47.90771484375 36.6796875,48.10546875 35.947265625,48.10546875 34.98046875,47.9296875 34.62890625,47.197265625 33.544921875,44.736328125 38.115234375,44.912109375 39.10400390625,44.50927734375 39.43359375,43.30078125 39.43359375,33.33984375 30.263671875,33.33984375 24.55078125,33.45703125 24.140625,33.046875 24.140625,30.8203125 24.55078125,30.46875 30.263671875,30.5859375 39.43359375,30.5859375 39.43359375,30.234375 39.3603515625,27.89794921875 39.140625,26.337890625z M33.193359375,9.228515625L34.39453125,9.31640625 36.474609375,9.521484375 37.08984375,10.01953125 36.85546875,10.78125 36.61376953125,12.00439453125 36.533203125,14.033203125 36.533203125,14.560546875 40.078125,14.560546875 45.41015625,14.443359375 45.908203125,14.8828125 45.908203125,17.021484375 45.41015625,17.4609375 40.078125,17.34375 36.533203125,17.34375 36.533203125,22.6171875 41.89453125,22.6171875 47.87109375,22.55859375 48.310546875,22.91015625 48.310546875,25.078125 47.87109375,25.48828125 41.89453125,25.37109375 30,25.37109375 24.052734375,25.48828125 23.642578125,25.078125 23.642578125,22.91015625 24.052734375,22.5 30,22.6171875 33.486328125,22.6171875 33.486328125,17.34375 31.142578125,17.34375 25.693359375,17.4609375 25.3125,17.021484375 25.3125,14.8828125 25.693359375,14.443359375 31.142578125,14.560546875 33.486328125,14.560546875 33.486328125,14.091796875 33.4130859375,11.2646484375 33.193359375,9.228515625z M15.849609375,9.228515625L17.2705078125,9.3310546875 19.130859375,9.521484375 19.658203125,9.9609375 19.423828125,10.810546875 19.3212890625,11.3580322265625 19.248046875,12.29736328125 19.2041015625,13.6285400390625 19.189453125,15.3515625 19.189453125,18.544921875 19.775390625,18.544921875 23.203125,18.427734375 23.5546875,18.837890625 23.5546875,21.064453125 23.203125,21.474609375 19.775390625,21.357421875 19.189453125,21.357421875 19.189453125,29.765625 23.26171875,27.5390625 23.4375,29.6484375 23.466796875,30.087890625 23.2543926239014,30.64453125 22.6171875,31.142578125 21.18896484375,31.92626953125 19.189453125,32.98828125 19.189453125,40.4296875 19.306640625,48.046875 18.896484375,48.486328125 16.494140625,48.486328125 16.083984375,48.046875 16.201171875,40.48828125 16.201171875,34.306640625 14.4140625,35.15625 12.71484375,35.947265625 11.162109375,36.796875 10.546875,37.20703125 10.01953125,36.73828125 8.759765625,33.779296875 12.71484375,32.51953125 14.18701171875,31.91162109375 16.201171875,31.083984375 16.201171875,21.357421875 12.65625,21.357421875 11.396484375,26.806640625 11.1547842025757,27.3779296875 10.8984375,27.568359375 10.1953125,27.3046875 8.408203125,26.630859375 9.85107421875,21.4379901885986 10.60546875,15.46875 10.6640625,14.12109375 10.60546875,12.890625 12.1801748275757,13.11767578125 13.271484375,13.330078125 13.857421875,13.740234375 13.623046875,14.384765625 13.4912099838257,14.94140625 13.388671875,15.908203125 13.2641592025757,16.7578125 13.0078125,18.544921875 16.201171875,18.544921875 16.201171875,15.41015625 15.849609375,9.228515625z M28.623046875,1.9921875L25.081787109375,2.22107148170471 21.6650390625,2.90771770477295 18.372802734375,4.05212593078613 15.205078125,5.654296875 9.814453125,9.814453125 5.654296875,15.205078125 4.0521240234375,18.372802734375 2.90771484375,21.6650390625 2.2210693359375,25.081787109375 1.9921875,28.623046875 2.2210693359375,32.164306640625 2.90771484375,35.5810546875 4.0521240234375,38.873291015625 5.654296875,42.041015625 9.814453125,47.431640625 15.205078125,51.591796875 18.372802734375,53.1939697265625 21.6650390625,54.33837890625 25.081787109375,55.0250244140625 28.623046875,55.25390625 32.164306640625,55.0250244140625 35.5810546875,54.33837890625 38.873291015625,53.1939697265625 42.041015625,51.591796875 47.4316368103027,47.431640625 51.591796875,42.041015625 53.1939659118652,38.873291015625 54.3383750915527,35.5810546875 55.0250205993652,32.164306640625 55.25390625,28.623046875 55.0250205993652,25.081787109375 54.3383750915527,21.6650390625 53.1939659118652,18.372802734375 51.591796875,15.205078125 47.4316368103027,9.814453125 42.041015625,5.654296875 38.873291015625,4.05212593078613 35.5810546875,2.90771770477295 32.164306640625,2.22107148170471 28.623046875,1.9921875z M28.623046875,0L32.4371337890625,0.245363473892212 36.11572265625,0.981448173522949 39.6588134765625,2.20825409889221 43.06640625,3.92578101158142 48.8671836853027,8.37890625 53.3203125,14.1796875 55.0378379821777,17.5872802734375 56.2646446228027,21.13037109375 57.0007286071777,24.8089599609375 57.24609375,28.623046875 57.0007286071777,32.4371337890625 56.2646446228027,36.11572265625 55.0378379821777,39.6588134765625 53.3203125,43.06640625 48.8671836853027,48.8671875 43.06640625,53.3203125 39.6588134765625,55.037841796875 36.11572265625,56.2646484375 32.4371337890625,57.000732421875 28.623046875,57.24609375 24.8089599609375,57.000732421875 21.13037109375,56.2646484375 17.5872802734375,55.037841796875 14.1796875,53.3203125 8.37890625,48.8671875 3.92578125,43.06640625 2.208251953125,39.6588134765625 0.9814453125,36.11572265625 0.245361328125,32.4371337890625 0,28.623046875 0.245361328125,24.8089599609375 0.9814453125,21.13037109375 2.208251953125,17.5872802734375 3.92578125,14.1796875 8.37890625,8.37890625 14.1796875,3.92578101158142 17.5872802734375,2.20825409889221 21.13037109375,0.981448173522949 24.8089599609375,0.245363473892212 28.623046875,0z" />
    </g>
  </g>
</svg>