<?xml version="1.0" encoding="utf-8"?>
<!DOCTYPE svg PUBLIC "-//W3C//DTD SVG 1.1//EN" "http://www.w3.org/Graphics/SVG/1.1/DTD/svg11.dtd">
<svg width="57.24609375" height="57.24609375" xmlns="http://www.w3.org/2000/svg" xmlns:xlink="http://www.w3.org/1999/xlink" xmlns:xml="http://www.w3.org/XML/1998/namespace" version="1.1">
  <g>
    <g>
      <path style="fill:#FF0000;fill-opacity:1" d="M37.67578125,26.689453125L39.5654296875,26.9458026885986 40.3125,27.0703125 40.986328125,27.48046875 40.8984375,27.7734375 40.810546875,28.0078125 40.53955078125,29.08447265625 40.3125,30.966796875 42.36328125,30.966796875 46.640625,30.908203125 46.9921875,31.201171875 46.875,33.603515625 46.6864013671875,37.4102783203125 46.38427734375,40.53955078125 45.9686279296875,42.9913330078125 45.439453125,44.765625 44.09912109375,46.5234375 41.89453125,47.109375 40.01953125,47.05078125 39.287109375,46.201171875 38.466796875,43.857421875 41.279296875,44.23828125 42.509765625,43.98193359375 43.154296875,43.212890625 43.568115234375,41.466064453125 43.8720703125,39.2724609375 44.066162109375,36.632080078125 44.150390625,33.544921875 40.1953125,33.544921875 39.4940185546875,37.7032470703125 38.26904296875,41.35986328125 36.5203857421875,44.5147705078125 34.248046875,47.16796875 33.69140625,47.578125 33.193359375,47.2265625 32.5927734375,46.63330078125 31.611328125,45.966796875 34.130859375,43.27880859375 35.888671875,40.48828125 37.02392578125,37.28759765625 37.6171875,33.544921875 36.9140625,33.544921875 34.072265625,33.662109375 33.662109375,33.1640625 33.662109375,31.259765625 34.072265625,30.908203125 36.826171875,30.966796875 37.67578125,30.966796875 37.79296875,28.53515625 37.67578125,26.689453125z M23.525390625,26.630859375L25.1074199676514,26.8725605010986 26.044921875,27.0703125 26.689453125,27.421875 26.513671875,28.0078125 26.2646465301514,29.04052734375 26.103515625,30.966796875 27.65625,30.966796875 31.875,30.908203125 32.16796875,31.201171875 32.05078125,33.486328125 31.8695068359375,37.3260498046875 31.58935546875,40.46630859375 31.2103271484375,42.9071044921875 30.732421875,44.6484375 29.4360332489014,46.494140625 27.24609375,47.109375 25.48828125,47.05078125 24.9902324676514,46.79443359375 24.7265625,46.142578125 23.994140625,43.857421875 25.5322246551514,44.14306640625 26.689453125,44.23828125 27.8027324676514,43.99658203125 28.447265625,43.271484375 28.8629131317139,41.685791015625 29.1723613739014,39.5361328125 29.3756084442139,36.822509765625 29.47265625,33.544921875 25.986328125,33.544921875 25.3051738739014,37.99072265625 24.140625,41.66015625 22.6025371551514,44.5166015625 20.5078125,47.16796875 19.951171875,47.578125 19.5703125,47.2265625 17.8125,45.966796875 20.13427734375,43.271484375 21.767578125,40.458984375 22.8369121551514,37.294921875 23.466796875,33.544921875 22.265625,33.544921875 19.453125,33.662109375 18.955078125,33.1640625 18.955078125,31.259765625 19.453125,30.908203125 22.265625,30.966796875 23.583984375,30.966796875 23.642578125,28.76953125 23.525390625,26.630859375z M13.271484375,9.609375L15.0732421875,9.7265625 16.494140625,9.90234375 17.138671875,10.400390625 17.080078125,10.6640625 16.904296875,11.396484375 16.8017578125,12.015380859375 16.728515625,13.0517578125 16.6845703125,14.505615234375 16.669921875,16.376953125 16.669921875,20.21484375 20.09765625,20.09765625 20.5078125,20.537109375 20.5078125,22.67578125 20.09765625,23.056640625 19.79736328125,23.0419940948486 19.013671875,22.998046875 16.669921875,22.939453125 16.669921875,38.056640625 16.787109375,47.16796875 16.435546875,47.578125 13.857421875,47.578125 13.505859375,47.16796875 13.623046875,38.115234375 13.623046875,22.939453125 12.59765625,22.939453125 9.2578125,23.056640625 8.876953125,22.67578125 8.876953125,20.537109375 9.2578125,20.09765625 12.48046875,20.21484375 13.623046875,20.21484375 13.623046875,16.494140625 13.5351552963257,12.69287109375 13.271484375,9.609375z M31.552734375,8.466796875L34.482421875,8.701171875 35.07568359375,8.9208984375 35.2734375,9.228515625 34.921875,10.01953125 34.453125,11.689453125 34.072265625,13.623046875 38.994140625,13.623046875 44.1796875,13.505859375 44.53125,13.857421875 44.4873046875,14.58251953125 44.35546875,16.640625 43.90869140625,20.6469745635986 43.095703125,23.525390625 41.5869140625,25.1074237823486 39.052734375,25.634765625 37.1337890625,25.5908222198486 35.888671875,25.458984375 34.921875,24.609375 34.130859375,22.5 36.5185546875,22.8295917510986 38.408203125,22.939453125 39.86572265625,22.6977558135986 40.546875,21.97265625 41.14013671875,19.37255859375 41.396484375,16.201171875 33.603515625,16.201171875 32.14599609375,19.68017578125 29.82421875,22.44140625 27.1655254364014,24.2724628448486 23.642578125,25.8984375 23.0859375,26.044921875 22.5,25.60546875 20.830078125,23.935546875 24.5928936004639,22.5402851104736 27.4731426239014,20.7861347198486 29.4708232879639,18.6730976104736 30.5859375,16.201171875 27.7734375,16.201171875 22.08984375,16.318359375 21.708984375,15.966796875 21.708984375,13.798828125 22.08984375,13.505859375 27.7734375,13.623046875 31.142578125,13.623046875 31.2890625,12.8759765625 31.435546875,11.748046875 31.58203125,9.4921875 31.552734375,8.466796875z M28.623046875,1.9921875L25.081787109375,2.22107148170471 21.6650390625,2.90771770477295 18.372802734375,4.05212593078613 15.205078125,5.654296875 9.814453125,9.814453125 5.654296875,15.205078125 4.0521240234375,18.372802734375 2.90771484375,21.6650390625 2.2210693359375,25.081787109375 1.9921875,28.623046875 2.2210693359375,32.164306640625 2.90771484375,35.5810546875 4.0521240234375,38.873291015625 5.654296875,42.041015625 9.814453125,47.431640625 15.205078125,51.591796875 18.372802734375,53.1939697265625 21.6650390625,54.33837890625 25.081787109375,55.0250244140625 28.623046875,55.25390625 32.164306640625,55.0250244140625 35.5810546875,54.33837890625 38.873291015625,53.1939697265625 42.041015625,51.591796875 47.4316368103027,47.431640625 51.591796875,42.041015625 53.1939659118652,38.873291015625 54.3383750915527,35.5810546875 55.0250205993652,32.164306640625 55.25390625,28.623046875 55.0250205993652,25.081787109375 54.3383750915527,21.6650390625 53.1939659118652,18.372802734375 51.591796875,15.205078125 47.4316368103027,9.814453125 42.041015625,5.654296875 38.873291015625,4.05212593078613 35.5810546875,2.90771770477295 32.164306640625,2.22107148170471 28.623046875,1.9921875z M28.623046875,0L32.4371337890625,0.245363473892212 36.11572265625,0.981448173522949 39.6588134765625,2.20825409889221 43.06640625,3.92578101158142 48.8671836853027,8.37890625 53.3203125,14.1796875 55.0378379821777,17.5872802734375 56.2646446228027,21.13037109375 57.0007286071777,24.8089599609375 57.24609375,28.623046875 57.0007286071777,32.4371337890625 56.2646446228027,36.11572265625 55.0378379821777,39.6588134765625 53.3203125,43.06640625 48.8671836853027,48.8671875 43.06640625,53.3203125 39.6588134765625,55.037841796875 36.11572265625,56.2646484375 32.4371337890625,57.000732421875 28.623046875,57.24609375 24.8089599609375,57.000732421875 21.13037109375,56.2646484375 17.5872802734375,55.037841796875 14.1796875,53.3203125 8.37890625,48.8671875 3.92578125,43.06640625 2.208251953125,39.6588134765625 0.9814453125,36.11572265625 0.245361328125,32.4371337890625 0,28.623046875 0.245361328125,24.8089599609375 0.9814453125,21.13037109375 2.208251953125,17.5872802734375 3.92578125,14.1796875 8.37890625,8.37890625 14.1796875,3.92578101158142 17.5872802734375,2.20825409889221 21.13037109375,0.981448173522949 24.8089599609375,0.245363473892212 28.623046875,0z" />
    </g>
  </g>
</svg>