<?xml version="1.0" encoding="utf-8"?>
<!DOCTYPE svg PUBLIC "-//W3C//DTD SVG 1.1//EN" "http://www.w3.org/Graphics/SVG/1.1/DTD/svg11.dtd">
<svg width="56.513671875" height="58.41796875" xmlns="http://www.w3.org/2000/svg" xmlns:xlink="http://www.w3.org/1999/xlink" xmlns:xml="http://www.w3.org/XML/1998/namespace" version="1.1">
  <g>
    <g>
      <path style="fill:#FF0000;fill-opacity:1" d="M22.734375,35.712890625L22.734375,48.28125 40.4296875,48.28125 40.4296875,35.712890625 22.734375,35.712890625z M25.3125,2.490234375L28.798828125,3.75 29.326171875,4.365234375 28.798828125,5.12695360183716 28.2934551239014,5.712890625 27.59765625,6.767578125 26.6015625,8.349609375 25.78125,9.638671875 37.734375,9.638671875 39.111328125,9.462890625 39.90234375,9.287109375 40.45166015625,9.57275390625 41.337890625,10.4296875 42.10693359375,11.337890625 42.36328125,12.01171875 41.748046875,12.94921875 40.4296875,14.765625 37.1484375,19.9676532745361 33.45703125,24.6752948760986 29.35546875,28.8885517120361 24.84375,32.607421875 36.064453125,32.607421875 43.623046875,32.490234375 44.033203125,32.900390625 43.916015625,39.140625 43.916015625,47.255859375 44.033203125,54.31640625 43.623046875,54.755859375 40.83984375,54.755859375 40.4296875,54.31640625 40.4296875,51.26953125 22.734375,51.26953125 22.734375,54.638671875 22.32421875,55.048828125 19.599609375,55.048828125 19.189453125,54.638671875 19.306640625,47.607421875 19.306640625,36.5625 14.72900390625,39.61669921875 10.078125,42.158203125 9.404296875,42.36328125 8.876953125,41.71875 6.94335985183716,39.4921875 16.86767578125,34.22607421875 25.546875,27.509765625 22.6098613739014,24.4921894073486 19.130859375,21.826171875 18.955078125,21.474609375 19.130859375,21.123046875 20.859375,19.482421875 21.2109375,19.27734375 21.591796875,19.482421875 24.9536113739014,21.9873065948486 28.2421875,25.048828125 33.3544921875,19.18212890625 37.3828125,12.83203125 23.642578125,12.83203125 18.0615234375,18.97705078125 11.337890625,24.638671875 10.6640625,24.90234375 10.01953125,24.345703125 8.02734375,22.44140625 12.8961181640625,18.77197265625 17.16064453125,14.794921875 20.8209228515625,10.51025390625 23.876953125,5.91796827316284 25.3125,2.490234375z M47.05078125,0L49.5172080993652,3.8873291015625 51.5844688415527,7.66845703125 53.2525596618652,11.3433837890625 54.521484375,14.912109375 56.0156211853027,21.7236328125 56.513671875,29.208984375 55.8618125915527,37.6904296875 53.90625,45.380859375 51.0937461853027,51.70166015625 47.05078125,58.41796875 45.52734375,57.5390625 49.5703086853027,50.244140625 52.20703125,43.0078125 53.4594688415527,36.45263671875 53.876953125,29.208984375 53.3276329040527,20.9619140625 51.6796875,13.564453125 49.1601524353027,7.27294921875 45.52734375,0.878906309604645 47.05078125,0z M9.4921875,0L10.986328125,0.878906309604645 6.943359375,8.173828125 4.30664110183716,15.41015625 3.05419969558716,21.96533203125 2.63671875,29.208984375 3.18603563308716,37.4560546875 4.83398485183716,44.853515625 7.353515625,51.14501953125 10.986328125,57.5390625 9.4921875,58.41796875 7.02392625808716,54.5306396484375 4.95117235183716,50.74951171875 3.27392649650574,47.0745849609375 1.99218833446503,43.505859375 0.498047202825546,36.6943359375 0,29.208984375 0.651855766773224,20.7275390625 2.60742235183716,13.037109375 5.42724609375,6.71630859375 9.4921875,0z" />
    </g>
  </g>
</svg>