<?xml version="1.0" encoding="utf-8"?>
<!DOCTYPE svg PUBLIC "-//W3C//DTD SVG 1.1//EN" "http://www.w3.org/Graphics/SVG/1.1/DTD/svg11.dtd">
<svg width="56.513671875" height="58.41796875" xmlns="http://www.w3.org/2000/svg" xmlns:xlink="http://www.w3.org/1999/xlink" xmlns:xml="http://www.w3.org/XML/1998/namespace" version="1.1">
  <g>
    <g>
      <path style="fill:#FF0000;fill-opacity:1" d="M19.5703125,4.365234375L21.9067363739014,4.6142578125 23.466796875,4.83398485183716 24.0600566864014,5.03173828125 24.2578125,5.390625 23.90625,6.533203125 23.6206035614014,8.16650390625 23.525390625,11.25 23.525390625,23.3203125 39.052734375,19.716796875 44.033203125,18.515625 45.205078125,18.2080078125 45.615234375,18.10546875 45.76171875,18.076171875 46.083984375,18.515625 46.669921875,20.9765625 46.728515625,21.26953125 46.259765625,21.591796875 45.72509765625,21.7236347198486 44.35546875,22.001953125 39.7265625,23.02734375 23.525390625,26.748046875 23.525390625,43.828125 24.0380840301514,46.3916015625 25.576171875,47.6953125 28.1616191864014,48.0908203125 32.16796875,48.22265625 34.7900390625,48.134765625 36.62109375,47.87109375 38.818359375,46.669921875 39.609375,45.3955078125 40.224609375,43.330078125 40.6640625,40.4736328125 40.927734375,36.826171875 43.505859375,38.02734375 44.208984375,38.53271484375 44.443359375,39.111328125 44.4140625,39.580078125 43.9984130859375,43.0517578125 43.36669921875,45.849609375 42.5189208984375,47.9736328125 41.455078125,49.423828125 39.931640625,50.45654296875 38.056640625,51.09375 35.58837890625,51.42333984375 32.2265625,51.533203125 29.1375713348389,51.4727783203125 26.5795879364014,51.29150390625 24.5526103973389,50.9893798828125 23.056640625,50.56640625 21.6851806640625,49.8394775390625 20.70556640625,48.68408203125 20.1177978515625,47.1002197265625 19.921875,45.087890625 19.921875,27.509765625 14.4140625,28.76953125 9.7265625,29.853515625 8.349609375,30.205078125 8.173828125,30.234375 7.85156297683716,29.853515625 7.26562547683716,27.216796875 7.67578172683716,26.689453125 10.40771484375,26.1840839385986 13.740234375,25.48828125 19.921875,24.111328125 19.921875,11.25 19.833984375,7.22900390625 19.5703125,4.365234375z M47.05078125,0L49.5172080993652,3.8873291015625 51.5844688415527,7.66845703125 53.2525596618652,11.3433837890625 54.521484375,14.912109375 56.0156211853027,21.7236328125 56.513671875,29.208984375 55.8618125915527,37.6904296875 53.90625,45.380859375 51.0937461853027,51.70166015625 47.05078125,58.41796875 45.52734375,57.5390625 49.5703086853027,50.244140625 52.20703125,43.0078125 53.4594688415527,36.45263671875 53.876953125,29.208984375 53.3276329040527,20.9619140625 51.6796875,13.564453125 49.1601524353027,7.27294921875 45.52734375,0.878906309604645 47.05078125,0z M9.4921875,0L10.986328125,0.878906309604645 6.943359375,8.173828125 4.30664110183716,15.41015625 3.05419969558716,21.96533203125 2.63671875,29.208984375 3.18603563308716,37.4560546875 4.83398485183716,44.853515625 7.353515625,51.14501953125 10.986328125,57.5390625 9.4921875,58.41796875 7.02392625808716,54.5306396484375 4.95117235183716,50.74951171875 3.27392649650574,47.0745849609375 1.99218833446503,43.505859375 0.498047202825546,36.6943359375 0,29.208984375 0.651855766773224,20.7275390625 2.60742235183716,13.037109375 5.42724609375,6.71630859375 9.4921875,0z" />
    </g>
  </g>
</svg>