<?xml version="1.0" encoding="utf-8"?>
<!DOCTYPE svg PUBLIC "-//W3C//DTD SVG 1.1//EN" "http://www.w3.org/Graphics/SVG/1.1/DTD/svg11.dtd">
<svg width="57.24609375" height="57.24609375" xmlns="http://www.w3.org/2000/svg" xmlns:xlink="http://www.w3.org/1999/xlink" xmlns:xml="http://www.w3.org/XML/1998/namespace" version="1.1">
  <g>
    <g>
      <path style="fill:#FF0000;fill-opacity:1" d="M18.10546875,33.92578125L18.427734375,34.072265625 20.302734375,36.8701171875 21.708984375,39.462890625 21.767578125,39.697265625 21.591796875,39.9609375 19.453125,40.869140625 19.189453125,40.927734375 18.955078125,40.810546875 17.7099609375,38.28369140625 15.791015625,35.15625 15.673828125,34.951171875 15.849609375,34.8046875 17.9296875,33.955078125 18.10546875,33.92578125z M38.173828125,33.603515625L40.810546875,34.62890625 41.337890625,35.15625 40.986328125,35.7421875 40.078125,36.767578125 38.5546875,39.111328125 37.20703125,40.927734375 36.591796875,41.19140625 36.005859375,41.044921875 34.189453125,40.1953125 36.17431640625,37.6904296875 37.5,35.44921875 38.173828125,33.603515625z M18.662109375,20.771484375L23.994140625,20.888671875 32.8125,20.888671875 38.232421875,20.771484375 38.642578125,21.181640625 38.642578125,23.349609375 38.232421875,23.759765625 32.75390625,23.642578125 29.765625,23.642578125 29.765625,29.150390625 38.994140625,29.150390625 45.234375,29.033203125 45.615234375,29.443359375 45.615234375,31.669921875 45.234375,32.080078125 38.994140625,31.962890625 29.765625,31.962890625 29.765625,42.83203125 38.115234375,42.83203125 44.35546875,42.71484375 44.765625,43.125 44.765625,45.3515625 44.35546875,45.76171875 38.115234375,45.64453125 18.896484375,45.64453125 12.65625,45.76171875 12.24609375,45.41015625 12.24609375,43.06640625 12.65625,42.71484375 18.896484375,42.83203125 26.396484375,42.83203125 26.396484375,31.962890625 17.98828125,31.962890625 11.806640625,32.080078125 11.455078125,31.728515625 11.455078125,29.443359375 11.806640625,29.033203125 17.98828125,29.150390625 26.396484375,29.150390625 26.396484375,23.642578125 23.818359375,23.642578125 18.662109375,23.759765625 18.310546875,23.408203125 18.310546875,21.181640625 18.662109375,20.771484375z M26.806640625,6.85546827316284L30.29296875,7.55859375 31.025390625,8.115234375 30.732421875,8.701171875 30.29296875,8.935546875 34.47509765625,13.58642578125 39.404296875,17.34375 44.04052734375,19.7900390625 49.51171875,21.9140625 47.75390625,24.2578125 47.197265625,24.697265625 46.611328125,24.609375 40.982666015625,21.9232177734375 36.0498046875,18.75732421875 31.812744140625,15.1116943359375 28.271484375,10.986328125 24.4116191864014,15.47607421875 20.15625,19.21875 15.93017578125,22.0239276885986 10.751953125,24.814453125 10.25390625,24.9609375 9.609375,24.404296875 7.734375,22.67578125 13.212890625,19.940185546875 17.98828125,16.8310546875 22.060546875,13.348388671875 25.4296875,9.4921875 26.806640625,6.85546827316284z M28.623046875,1.9921875L25.081787109375,2.22107148170471 21.6650390625,2.90771770477295 18.372802734375,4.05212593078613 15.205078125,5.654296875 9.814453125,9.814453125 5.654296875,15.205078125 4.0521240234375,18.372802734375 2.90771484375,21.6650390625 2.2210693359375,25.081787109375 1.9921875,28.623046875 2.2210693359375,32.164306640625 2.90771484375,35.5810546875 4.0521240234375,38.873291015625 5.654296875,42.041015625 9.814453125,47.431640625 15.205078125,51.591796875 18.372802734375,53.1939697265625 21.6650390625,54.33837890625 25.081787109375,55.0250244140625 28.623046875,55.25390625 32.164306640625,55.0250244140625 35.5810546875,54.33837890625 38.873291015625,53.1939697265625 42.041015625,51.591796875 47.4316368103027,47.431640625 51.591796875,42.041015625 53.1939659118652,38.873291015625 54.3383750915527,35.5810546875 55.0250205993652,32.164306640625 55.25390625,28.623046875 55.0250205993652,25.081787109375 54.3383750915527,21.6650390625 53.1939659118652,18.372802734375 51.591796875,15.205078125 47.4316368103027,9.814453125 42.041015625,5.654296875 38.873291015625,4.05212593078613 35.5810546875,2.90771770477295 32.164306640625,2.22107148170471 28.623046875,1.9921875z M28.623046875,0L32.4371337890625,0.245363473892212 36.11572265625,0.981448173522949 39.6588134765625,2.20825409889221 43.06640625,3.92578101158142 48.8671836853027,8.37890625 53.3203125,14.1796875 55.0378379821777,17.5872802734375 56.2646446228027,21.13037109375 57.0007286071777,24.8089599609375 57.24609375,28.623046875 57.0007286071777,32.4371337890625 56.2646446228027,36.11572265625 55.0378379821777,39.6588134765625 53.3203125,43.06640625 48.8671836853027,48.8671875 43.06640625,53.3203125 39.6588134765625,55.037841796875 36.11572265625,56.2646484375 32.4371337890625,57.000732421875 28.623046875,57.24609375 24.8089599609375,57.000732421875 21.13037109375,56.2646484375 17.5872802734375,55.037841796875 14.1796875,53.3203125 8.37890625,48.8671875 3.92578125,43.06640625 2.208251953125,39.6588134765625 0.9814453125,36.11572265625 0.245361328125,32.4371337890625 0,28.623046875 0.245361328125,24.8089599609375 0.9814453125,21.13037109375 2.208251953125,17.5872802734375 3.92578125,14.1796875 8.37890625,8.37890625 14.1796875,3.92578101158142 17.5872802734375,2.20825409889221 21.13037109375,0.981448173522949 24.8089599609375,0.245363473892212 28.623046875,0z" />
    </g>
  </g>
</svg>