<?xml version="1.0" encoding="utf-8"?>
<!DOCTYPE svg PUBLIC "-//W3C//DTD SVG 1.1//EN" "http://www.w3.org/Graphics/SVG/1.1/DTD/svg11.dtd">
<svg width="56.25" height="53.056640625" xmlns="http://www.w3.org/2000/svg" xmlns:xlink="http://www.w3.org/1999/xlink" xmlns:xml="http://www.w3.org/XML/1998/namespace" version="1.1">
  <g>
    <g>
      <path style="fill:#FF0000;fill-opacity:1" d="M12.01171875,10.869140625L30.29296875,10.869140625 29.9697875976563,15.245361328125 29.117431640625,19.3798828125 27.7359008789063,23.272705078125 25.8251953125,26.923828125 23.4219360351563,30.2838134765625 20.562744140625,33.30322265625 17.2476196289063,35.9820556640625 13.4765625,38.3203125 10.927734375,36.2109375 15.2838134765625,33.6090087890625 18.97705078125,30.54931640625 22.0074462890625,27.0318603515625 24.375,23.056640625 11.748046875,23.994140625 10.986328125,20.9765625 25.517578125,20.2734375 26.4038066864014,17.05810546875 26.8359375,13.798828125 12.01171875,13.798828125 12.01171875,10.869140625z M36.650390625,8.203125L39.84375,8.203125 39.84375,23.173828125 46.083984375,23.173828125 46.083984375,26.07421875 39.84375,26.07421875 39.84375,45.9375 36.650390625,45.9375 36.650390625,8.203125z M11.42578125,0.0878908634185791L13.7109375,1.7578125 9.2138671875,6.925048828125 5.80078172683716,13.0517578125 3.6474609375,19.691162109375 2.92968702316284,26.396484375 3.64379858970642,33.197021484375 5.7861328125,39.6240234375 9.356689453125,45.677490234375 14.35546875,51.357421875 12.12890625,53.056640625 9.28619384765625,49.9319458007813 6.822509765625,46.754150390625 4.73785400390625,43.5232543945313 3.0322265625,40.2392578125 1.70562744140625,36.9021606445313 0.758056581020355,33.511962890625 0.189514130353928,30.0686645507813 0,26.572265625 0.192260697484016,22.998046875 0.769042909145355,19.423828125 1.7303466796875,15.849609375 3.076171875,12.275390625 6.70166015625,5.654296875 11.42578125,0.0878908634185791z M44.267578125,0L49.2810020446777,5.540771484375 53.0712890625,12.0263671875 54.461971282959,15.5282592773438 55.4553184509277,19.075927734375 56.051326751709,22.6693725585938 56.25,26.30859375 55.5450401306152,33.2904052734375 53.4301719665527,40.05615234375 49.9053916931152,46.6058349609375 44.970703125,52.939453125 42.568359375,51.26953125 47.2979698181152,45.545654296875 50.6762657165527,39.4775390625 52.7032432556152,33.065185546875 53.37890625,26.30859375 52.6464805603027,19.56298828125 50.44921875,13.037109375 46.9262657165527,7.0166015625 42.216796875,1.78710961341858 44.267578125,0z" />
    </g>
  </g>
</svg>