<?xml version="1.0" encoding="utf-8"?>
<!DOCTYPE svg PUBLIC "-//W3C//DTD SVG 1.1//EN" "http://www.w3.org/Graphics/SVG/1.1/DTD/svg11.dtd">
<svg width="56.25" height="53.056640625" xmlns="http://www.w3.org/2000/svg" xmlns:xlink="http://www.w3.org/1999/xlink" xmlns:xml="http://www.w3.org/XML/1998/namespace" version="1.1">
  <g>
    <g>
      <path style="fill:#FF0000;fill-opacity:1" d="M11.89453125,11.396484375L32.9296875,11.396484375 32.9296875,14.326171875 23.994140625,14.326171875 23.994140625,17.63671875 24.6734600067139,22.679443359375 26.7114238739014,27.1728515625 30.1080303192139,31.116943359375 34.86328125,34.51171875 32.373046875,36.474609375 29.373779296875,34.4091796875 26.4697265625,31.552734375 24.0270977020264,28.330078125 22.412109375,25.166015625 20.8447265625,28.330078125 18.427734375,31.552734375 15.43212890625,34.5556640625 12.12890625,37.060546875 9.66796875,35.185546875 12.3458862304688,33.3078002929688 14.637451171875,31.365966796875 16.5426635742188,29.3600463867188 18.0615234375,27.2900390625 20.050048828125,22.7526874542236 20.712890625,17.548828125 20.712890625,14.326171875 11.89453125,14.326171875 11.89453125,11.396484375z M37.08984375,8.203125L40.283203125,8.203125 40.283203125,22.705078125 46.23046875,22.705078125 46.23046875,25.60546875 40.283203125,25.60546875 40.283203125,45.9375 37.08984375,45.9375 37.08984375,8.203125z M11.42578125,0.0878908634185791L13.7109375,1.7578125 9.2138671875,6.925048828125 5.80078172683716,13.0517578125 3.6474609375,19.691162109375 2.92968702316284,26.396484375 3.64379858970642,33.197021484375 5.7861328125,39.6240234375 9.356689453125,45.677490234375 14.35546875,51.357421875 12.12890625,53.056640625 9.28619384765625,49.9319458007813 6.822509765625,46.754150390625 4.73785400390625,43.5232543945313 3.0322265625,40.2392578125 1.70562744140625,36.9021606445313 0.758056581020355,33.511962890625 0.189514130353928,30.0686645507813 0,26.572265625 0.192260697484016,22.998046875 0.769042909145355,19.423828125 1.7303466796875,15.849609375 3.076171875,12.275390625 6.70166015625,5.654296875 11.42578125,0.0878908634185791z M44.267578125,0L49.2810020446777,5.540771484375 53.0712890625,12.0263671875 54.461971282959,15.5282592773438 55.4553184509277,19.075927734375 56.051326751709,22.6693725585938 56.25,26.30859375 55.5450401306152,33.2904052734375 53.4301719665527,40.05615234375 49.9053916931152,46.6058349609375 44.970703125,52.939453125 42.568359375,51.26953125 47.2979698181152,45.545654296875 50.6762657165527,39.4775390625 52.7032432556152,33.065185546875 53.37890625,26.30859375 52.6464805603027,19.56298828125 50.44921875,13.037109375 46.9262657165527,7.0166015625 42.216796875,1.78710961341858 44.267578125,0z" />
    </g>
  </g>
</svg>