<?xml version="1.0" encoding="utf-8"?>
<!DOCTYPE svg PUBLIC "-//W3C//DTD SVG 1.1//EN" "http://www.w3.org/Graphics/SVG/1.1/DTD/svg11.dtd">
<svg width="57.24609375" height="57.24609375" xmlns="http://www.w3.org/2000/svg" xmlns:xlink="http://www.w3.org/1999/xlink" xmlns:xml="http://www.w3.org/XML/1998/namespace" version="1.1">
  <g>
    <g>
      <path style="fill:#FF0000;fill-opacity:1" d="M34.189453125,9.111328125L35.64697265625,9.2138671875 37.734375,9.404296875 38.37890625,9.9609375 38.26171875,10.4296875 38.0859375,11.015625 37.957763671875,11.7242431640625 37.8662109375,12.82470703125 37.811279296875,14.3170166015625 37.79296875,16.201171875 37.79296875,22.96875 40.13671875,22.96875 46.318359375,22.91015625 46.669921875,23.26171875 46.669921875,25.48828125 46.318359375,25.83984375 40.13671875,25.72265625 37.79296875,25.72265625 37.79296875,42.71484375 40.13671875,42.71484375 46.259765625,42.59765625 46.669921875,43.0078125 46.669921875,45.17578125 46.259765625,45.52734375 40.078125,45.46875 30.087890625,45.46875 23.7890625,45.5859375 23.37890625,45.234375 23.37890625,43.0078125 23.7890625,42.59765625 30.087890625,42.71484375 34.541015625,42.71484375 34.541015625,25.72265625 32.255859375,25.72265625 26.015625,25.83984375 25.6640625,25.48828125 25.6640625,23.3203125 26.015625,22.91015625 32.255859375,22.96875 34.541015625,22.96875 34.541015625,16.259765625 34.453125,12.3046875 34.189453125,9.111328125z M15.732421875,9.111328125L16.81640625,9.19921875 18.896484375,9.404296875 19.541015625,9.9609375 19.248046875,10.8984375 19.072265625,12.01904296875 19.013671875,13.916015625 19.013671875,16.494140625 21.591796875,16.494140625 22.3828125,16.318359375 22.96875,16.201171875 23.5034160614014,16.3916015625 24.287109375,16.962890625 24.9682598114014,17.76123046875 25.1953125,18.33984375 24.638671875,19.130859375 23.818359375,20.478515625 22.08251953125,23.5766620635986 19.74609375,27.01171875 22.77099609375,29.8681640625 26.279296875,32.28515625 24.78515625,34.16015625 24.169921875,34.658203125 23.818359375,34.453125 21.09375,32.1240234375 19.013671875,29.765625 19.013671875,39.375 19.130859375,47.51953125 18.779296875,47.900390625 16.318359375,47.900390625 15.966796875,47.4609375 16.083984375,39.43359375 16.083984375,30.732421875 13.68896484375,33.36181640625 10.4296875,36.15234375 9.931640625,36.4453125 9.43359375,35.771484375 8.8330078125,34.98779296875 7.8515625,34.1015625 12.2314443588257,30.7470703125 16.171875,26.77734375 19.02099609375,23.0493183135986 21.181640625,19.248046875 14.70703125,19.248046875 10.25390625,19.365234375 9.90234375,19.013671875 9.90234375,16.728515625 10.25390625,16.376953125 14.53125,16.494140625 16.025390625,16.494140625 16.025390625,13.916015625 15.732421875,9.111328125z M28.623046875,1.9921875L25.081787109375,2.22107148170471 21.6650390625,2.90771770477295 18.372802734375,4.05212593078613 15.205078125,5.654296875 9.814453125,9.814453125 5.654296875,15.205078125 4.0521240234375,18.372802734375 2.90771484375,21.6650390625 2.2210693359375,25.081787109375 1.9921875,28.623046875 2.2210693359375,32.164306640625 2.90771484375,35.5810546875 4.0521240234375,38.873291015625 5.654296875,42.041015625 9.814453125,47.431640625 15.205078125,51.591796875 18.372802734375,53.1939697265625 21.6650390625,54.33837890625 25.081787109375,55.0250244140625 28.623046875,55.25390625 32.164306640625,55.0250244140625 35.5810546875,54.33837890625 38.873291015625,53.1939697265625 42.041015625,51.591796875 47.4316368103027,47.431640625 51.591796875,42.041015625 53.1939659118652,38.873291015625 54.3383750915527,35.5810546875 55.0250205993652,32.164306640625 55.25390625,28.623046875 55.0250205993652,25.081787109375 54.3383750915527,21.6650390625 53.1939659118652,18.372802734375 51.591796875,15.205078125 47.4316368103027,9.814453125 42.041015625,5.654296875 38.873291015625,4.05212593078613 35.5810546875,2.90771770477295 32.164306640625,2.22107148170471 28.623046875,1.9921875z M28.623046875,0L32.4371337890625,0.245363473892212 36.11572265625,0.981448173522949 39.6588134765625,2.20825409889221 43.06640625,3.92578101158142 48.8671836853027,8.37890625 53.3203125,14.1796875 55.0378379821777,17.5872802734375 56.2646446228027,21.13037109375 57.0007286071777,24.8089599609375 57.24609375,28.623046875 57.0007286071777,32.4371337890625 56.2646446228027,36.11572265625 55.0378379821777,39.6588134765625 53.3203125,43.06640625 48.8671836853027,48.8671875 43.06640625,53.3203125 39.6588134765625,55.037841796875 36.11572265625,56.2646484375 32.4371337890625,57.000732421875 28.623046875,57.24609375 24.8089599609375,57.000732421875 21.13037109375,56.2646484375 17.5872802734375,55.037841796875 14.1796875,53.3203125 8.37890625,48.8671875 3.92578125,43.06640625 2.208251953125,39.6588134765625 0.9814453125,36.11572265625 0.245361328125,32.4371337890625 0,28.623046875 0.245361328125,24.8089599609375 0.9814453125,21.13037109375 2.208251953125,17.5872802734375 3.92578125,14.1796875 8.37890625,8.37890625 14.1796875,3.92578101158142 17.5872802734375,2.20825409889221 21.13037109375,0.981448173522949 24.8089599609375,0.245363473892212 28.623046875,0z" />
    </g>
  </g>
</svg>