<?xml version="1.0" encoding="utf-8"?>
<!DOCTYPE svg PUBLIC "-//W3C//DTD SVG 1.1//EN" "http://www.w3.org/Graphics/SVG/1.1/DTD/svg11.dtd">
<svg width="57.24609375" height="57.24609375" xmlns="http://www.w3.org/2000/svg" xmlns:xlink="http://www.w3.org/1999/xlink" xmlns:xml="http://www.w3.org/XML/1998/namespace" version="1.1">
  <g>
    <g>
      <path style="fill:#FF0000;fill-opacity:1" d="M38.759765625,27.1875L37.32421875,27.4676532745361 36.064453125,28.3081073760986 34.98046875,29.7088642120361 34.072265625,31.669921875 34.1912841796875,34.3450927734375 34.46044921875,36.59912109375 34.8797607421875,38.4320068359375 35.44921875,39.84375 36.76025390625,41.35986328125 38.583984375,41.865234375 40.2886962890625,41.385498046875 41.50634765625,39.9462890625 42.2369384765625,37.547607421875 42.48046875,34.189453125 42.19482421875,31.10595703125 41.337890625,28.828125 40.2099609375,27.5976581573486 38.759765625,27.1875z M39.287109375,12.12890625L41.44775390625,12.4163818359375 43.271484375,13.27880859375 44.75830078125,14.7161865234375 45.908203125,16.728515625 42.36328125,18.369140625 41.11083984375,16.171875 39.228515625,15.439453125 38.0648803710938,15.6330871582031 37.049560546875,16.2139892578125 36.1825561523438,17.1821594238281 35.4638671875,18.53759765625 34.8934936523438,20.2803039550781 34.471435546875,22.4102783203125 34.1976928710938,24.9275207519531 34.072265625,27.83203125 35.1141357421875,26.1529560089111 36.36474609375,24.9536151885986 37.8240966796875,24.2340106964111 39.4921875,23.994140625 42.47314453125,24.7338886260986 44.677734375,26.953125 45.908203125,30.06591796875 46.318359375,34.072265625 45.732421875,38.96484375 43.974609375,42.568359375 41.6455078125,44.47998046875 38.701171875,45.1171875 36.61376953125,44.8663330078125 34.833984375,44.11376953125 33.36181640625,42.8594970703125 32.197265625,41.103515625 31.3897705078125,39.0399169921875 30.81298828125,36.51123046875 30.4669189453125,33.5174560546875 30.3515625,30.05859375 30.4911804199219,25.8563232421875 30.9100341796875,22.21435546875 31.6081237792969,19.1326904296875 32.58544921875,16.611328125 33.8420104980469,14.6502685546875 35.3778076171875,13.24951171875 37.1928405761719,12.4090576171875 39.287109375,12.12890625z M19.248046875,12.12890625L22.4853496551514,12.744140625 24.931640625,14.58984375 26.2939434051514,17.16064453125 26.748046875,20.419921875 26.4733867645264,23.0676288604736 25.6494140625,25.4443359375 24.0270977020264,28.033447265625 21.357421875,31.318359375 19.0960693359375,34.12353515625 17.29248046875,36.708984375 15.9466552734375,39.07470703125 15.05859375,41.220703125 26.748046875,41.220703125 26.748046875,44.58984375 11.103515625,44.58984375 11.103515625,41.513671875 12.271728515625,38.5162353515625 13.9013671875,35.47119140625 15.992431640625,32.3785400390625 18.544921875,29.23828125 20.82275390625,26.2646503448486 22.1484375,24.0234375 22.8515625,20.419921875 22.5805644989014,18.28857421875 21.767578125,16.69921875 20.6396484375,15.79833984375 19.189453125,15.498046875 17.5030517578125,15.875244140625 16.22314453125,17.0068359375 15.3497314453125,18.892822265625 14.8828125,21.533203125 11.162109375,20.712890625 12.0520009994507,16.9573974609375 13.6962881088257,14.27490234375 16.094970703125,12.6654052734375 19.248046875,12.12890625z M28.623046875,1.9921875L25.081787109375,2.22107148170471 21.6650390625,2.90771770477295 18.372802734375,4.05212593078613 15.205078125,5.654296875 9.814453125,9.814453125 5.654296875,15.205078125 4.0521240234375,18.372802734375 2.90771484375,21.6650390625 2.2210693359375,25.081787109375 1.9921875,28.623046875 2.2210693359375,32.164306640625 2.90771484375,35.5810546875 4.0521240234375,38.873291015625 5.654296875,42.041015625 9.814453125,47.431640625 15.205078125,51.591796875 18.372802734375,53.1939697265625 21.6650390625,54.33837890625 25.081787109375,55.0250244140625 28.623046875,55.25390625 32.164306640625,55.0250244140625 35.5810546875,54.33837890625 38.873291015625,53.1939697265625 42.041015625,51.591796875 47.4316368103027,47.431640625 51.591796875,42.041015625 53.1939659118652,38.873291015625 54.3383750915527,35.5810546875 55.0250205993652,32.164306640625 55.25390625,28.623046875 55.0250205993652,25.081787109375 54.3383750915527,21.6650390625 53.1939659118652,18.372802734375 51.591796875,15.205078125 47.4316368103027,9.814453125 42.041015625,5.654296875 38.873291015625,4.05212593078613 35.5810546875,2.90771770477295 32.164306640625,2.22107148170471 28.623046875,1.9921875z M28.623046875,0L32.4371337890625,0.245363473892212 36.11572265625,0.981448173522949 39.6588134765625,2.20825409889221 43.06640625,3.92578101158142 48.8671836853027,8.37890625 53.3203125,14.1796875 55.0378379821777,17.5872802734375 56.2646446228027,21.13037109375 57.0007286071777,24.8089599609375 57.24609375,28.623046875 57.0007286071777,32.4371337890625 56.2646446228027,36.11572265625 55.0378379821777,39.6588134765625 53.3203125,43.06640625 48.8671836853027,48.8671875 43.06640625,53.3203125 39.6588134765625,55.037841796875 36.11572265625,56.2646484375 32.4371337890625,57.000732421875 28.623046875,57.24609375 24.8089599609375,57.000732421875 21.13037109375,56.2646484375 17.5872802734375,55.037841796875 14.1796875,53.3203125 8.37890625,48.8671875 3.92578125,43.06640625 2.208251953125,39.6588134765625 0.9814453125,36.11572265625 0.245361328125,32.4371337890625 0,28.623046875 0.245361328125,24.8089599609375 0.9814453125,21.13037109375 2.208251953125,17.5872802734375 3.92578125,14.1796875 8.37890625,8.37890625 14.1796875,3.92578101158142 17.5872802734375,2.20825409889221 21.13037109375,0.981448173522949 24.8089599609375,0.245363473892212 28.623046875,0z" />
    </g>
  </g>
</svg>