<?xml version="1.0" encoding="utf-8"?>
<!DOCTYPE svg PUBLIC "-//W3C//DTD SVG 1.1//EN" "http://www.w3.org/Graphics/SVG/1.1/DTD/svg11.dtd">
<svg width="57.24609375" height="57.24609375" xmlns="http://www.w3.org/2000/svg" xmlns:xlink="http://www.w3.org/1999/xlink" xmlns:xml="http://www.w3.org/XML/1998/namespace" version="1.1">
  <g>
    <g>
      <path style="fill:#FF0000;fill-opacity:1" d="M38.37890625,15.439453125L36.56982421875,16.0107421875 35.244140625,17.724609375 34.541015625,20.09765625 34.306640625,23.173828125 34.59228515625,26.2500019073486 35.44921875,28.505859375 36.6064453125,29.71435546875 38.0859375,30.1171875 39.5068359375,29.83154296875 40.751953125,28.974609375 41.8212890625,27.54638671875 42.71484375,25.546875 42.410888671875,21.1248779296875 41.5869140625,17.96630859375 40.242919921875,16.0711669921875 38.37890625,15.439453125z M38.26171875,12.12890625L40.1774597167969,12.3660278320313 41.8377685546875,13.077392578125 43.2426452636719,14.2630004882813 44.39208984375,15.9228515625 45.2861022949219,18.0569458007813 45.9246826171875,20.665283203125 46.3078308105469,23.7478637695313 46.435546875,27.3046875 46.2799072265625,31.962890625 45.81298828125,35.888671875 45.0347900390625,39.08203125 43.9453125,41.54296875 42.7587890625,43.106689453125 41.30859375,44.2236328125 39.5947265625,44.893798828125 37.6171875,45.1171875 35.2825927734375,44.83154296875 33.43505859375,43.974609375 32.0745849609375,42.54638671875 31.201171875,40.546875 34.6875,38.876953125 35.830078125,41.1181640625 37.79296875,41.865234375 38.9547729492188,41.6734313964844 39.964599609375,41.0980224609375 40.8224487304688,40.1390075683594 41.5283203125,38.79638671875 42.0822143554688,37.0701599121094 42.484130859375,34.9603271484375 42.7340698242188,32.4668884277344 42.83203125,29.58984375 41.846923828125,31.2176513671875 40.6201171875,32.38037109375 39.151611328125,33.0780029296875 37.44140625,33.310546875 34.43115234375,32.5634765625 32.197265625,30.322265625 30.94482421875,27.1875 30.52734375,23.173828125 31.0986328125,18.27392578125 32.8125,14.70703125 35.185546875,12.7734375 38.26171875,12.12890625z M18.955078125,12.12890625L22.2509746551514,12.75146484375 24.755859375,14.619140625 26.1181621551514,17.01416015625 26.572265625,19.98046875 26.1840801239014,22.7856464385986 25.01953125,25.048828125 23.4008769989014,26.4917011260986 21.298828125,27.36328125 21.298828125,27.65625 23.8494853973389,28.7548828125 25.6713848114014,30.46875 26.7645244598389,32.7978515625 27.12890625,35.7421875 26.4843730926514,39.83642578125 24.55078125,42.919921875 22.05322265625,44.56787109375 18.955078125,45.1171875 15.9448232650757,44.7088623046875 13.5644521713257,43.48388671875 11.8139638900757,41.4422607421875 10.693359375,38.583984375 14.267578125,37.1484375 14.864501953125,39.1864013671875 15.8349609375,40.64208984375 17.178955078125,41.5155029296875 18.896484375,41.806640625 20.74951171875,41.3818359375 22.1484375,40.107421875 22.9614238739014,38.25439453125 23.232421875,35.859375 22.8973369598389,33.0780029296875 21.8920879364014,31.09130859375 20.2166728973389,29.8992919921875 17.87109375,29.501953125 15.849609375,29.501953125 15.849609375,26.044921875 17.75390625,26.044921875 19.97314453125,25.6127948760986 21.591796875,24.31640625 22.4487285614014,22.5439472198486 22.734375,20.21484375 22.4945049285889,18.1512451171875 21.7749004364014,16.67724609375 20.5755596160889,15.7928466796875 18.896484375,15.498046875 17.3822021484375,15.7672119140625 16.17919921875,16.57470703125 15.2874755859375,17.9205322265625 14.70703125,19.8046875 11.103515625,18.662109375 12.220458984375,15.8038330078125 13.9013671875,13.76220703125 16.146240234375,12.5372314453125 18.955078125,12.12890625z M28.623046875,1.9921875L25.081787109375,2.22107148170471 21.6650390625,2.90771770477295 18.372802734375,4.05212593078613 15.205078125,5.654296875 9.814453125,9.814453125 5.654296875,15.205078125 4.0521240234375,18.372802734375 2.90771484375,21.6650390625 2.2210693359375,25.081787109375 1.9921875,28.623046875 2.2210693359375,32.164306640625 2.90771484375,35.5810546875 4.0521240234375,38.873291015625 5.654296875,42.041015625 9.814453125,47.431640625 15.205078125,51.591796875 18.372802734375,53.1939697265625 21.6650390625,54.33837890625 25.081787109375,55.0250244140625 28.623046875,55.25390625 32.164306640625,55.0250244140625 35.5810546875,54.33837890625 38.873291015625,53.1939697265625 42.041015625,51.591796875 47.4316368103027,47.431640625 51.591796875,42.041015625 53.1939659118652,38.873291015625 54.3383750915527,35.5810546875 55.0250205993652,32.164306640625 55.25390625,28.623046875 55.0250205993652,25.081787109375 54.3383750915527,21.6650390625 53.1939659118652,18.372802734375 51.591796875,15.205078125 47.4316368103027,9.814453125 42.041015625,5.654296875 38.873291015625,4.05212593078613 35.5810546875,2.90771770477295 32.164306640625,2.22107148170471 28.623046875,1.9921875z M28.623046875,0L32.4371337890625,0.245363473892212 36.11572265625,0.981448173522949 39.6588134765625,2.20825409889221 43.06640625,3.92578101158142 48.8671836853027,8.37890625 53.3203125,14.1796875 55.0378379821777,17.5872802734375 56.2646446228027,21.13037109375 57.0007286071777,24.8089599609375 57.24609375,28.623046875 57.0007286071777,32.4371337890625 56.2646446228027,36.11572265625 55.0378379821777,39.6588134765625 53.3203125,43.06640625 48.8671836853027,48.8671875 43.06640625,53.3203125 39.6588134765625,55.037841796875 36.11572265625,56.2646484375 32.4371337890625,57.000732421875 28.623046875,57.24609375 24.8089599609375,57.000732421875 21.13037109375,56.2646484375 17.5872802734375,55.037841796875 14.1796875,53.3203125 8.37890625,48.8671875 3.92578125,43.06640625 2.208251953125,39.6588134765625 0.9814453125,36.11572265625 0.245361328125,32.4371337890625 0,28.623046875 0.245361328125,24.8089599609375 0.9814453125,21.13037109375 2.208251953125,17.5872802734375 3.92578125,14.1796875 8.37890625,8.37890625 14.1796875,3.92578101158142 17.5872802734375,2.20825409889221 21.13037109375,0.981448173522949 24.8089599609375,0.245363473892212 28.623046875,0z" />
    </g>
  </g>
</svg>