<?xml version="1.0" encoding="utf-8"?>
<!DOCTYPE svg PUBLIC "-//W3C//DTD SVG 1.1//EN" "http://www.w3.org/Graphics/SVG/1.1/DTD/svg11.dtd">
<svg width="57.24609375" height="57.24609375" xmlns="http://www.w3.org/2000/svg" xmlns:xlink="http://www.w3.org/1999/xlink" xmlns:xml="http://www.w3.org/XML/1998/namespace" version="1.1">
  <g>
    <g>
      <path style="fill:#FF0000;fill-opacity:1" d="M21.708984375,31.494140625L21.708984375,41.337890625 39.169921875,41.337890625 39.169921875,31.494140625 21.708984375,31.494140625z M24.462890625,8.3203125L27.83203125,9.111328125 28.4252910614014,9.345703125 28.623046875,9.697265625 28.125,10.6640625 27.7368144989014,11.7041015625 27.216796875,13.65234375 26.7480449676514,15.72509765625 26.396484375,16.962890625 39.462890625,16.962890625 46.93359375,16.845703125 47.28515625,17.197265625 47.28515625,19.921875 46.93359375,20.2734375 39.462890625,20.15625 25.4296875,20.15625 23.4887676239014,24.5581073760986 21.064453125,28.505859375 34.775390625,28.505859375 42.0703125,28.388671875 42.48046875,28.740234375 42.36328125,34.62890625 42.36328125,40.60546875 42.48046875,46.376953125 42.0703125,46.787109375 39.580078125,46.787109375 39.169921875,46.376953125 39.169921875,44.267578125 21.708984375,44.267578125 21.708984375,46.904296875 21.298828125,47.255859375 18.837890625,47.255859375 18.486328125,46.904296875 18.603515625,41.162109375 18.603515625,31.669921875 15.263671875,35.4931640625 11.396484375,38.818359375 10.693359375,39.140625 10.01953125,38.5546875 8.056640625,37.001953125 12.579345703125,33.5211181640625 16.3916015625,29.55322265625 19.493408203125,25.0982666015625 21.884765625,20.15625 16.9921875,20.15625 9.7265625,20.2734375 9.375,19.921875 9.375,17.197265625 9.7265625,16.845703125 16.9921875,16.962890625 22.79296875,16.962890625 23.3129863739014,15.34423828125 23.818359375,13.2421875 24.1406230926514,11.2060546875 24.462890625,8.3203125z M28.623046875,1.9921875L25.081787109375,2.22107148170471 21.6650390625,2.90771770477295 18.372802734375,4.05212593078613 15.205078125,5.654296875 9.814453125,9.814453125 5.654296875,15.205078125 4.0521240234375,18.372802734375 2.90771484375,21.6650390625 2.2210693359375,25.081787109375 1.9921875,28.623046875 2.2210693359375,32.164306640625 2.90771484375,35.5810546875 4.0521240234375,38.873291015625 5.654296875,42.041015625 9.814453125,47.431640625 15.205078125,51.591796875 18.372802734375,53.1939697265625 21.6650390625,54.33837890625 25.081787109375,55.0250244140625 28.623046875,55.25390625 32.164306640625,55.0250244140625 35.5810546875,54.33837890625 38.873291015625,53.1939697265625 42.041015625,51.591796875 47.4316368103027,47.431640625 51.591796875,42.041015625 53.1939659118652,38.873291015625 54.3383750915527,35.5810546875 55.0250205993652,32.164306640625 55.25390625,28.623046875 55.0250205993652,25.081787109375 54.3383750915527,21.6650390625 53.1939659118652,18.372802734375 51.591796875,15.205078125 47.4316368103027,9.814453125 42.041015625,5.654296875 38.873291015625,4.05212593078613 35.5810546875,2.90771770477295 32.164306640625,2.22107148170471 28.623046875,1.9921875z M28.623046875,0L32.4371337890625,0.245363473892212 36.11572265625,0.981448173522949 39.6588134765625,2.20825409889221 43.06640625,3.92578101158142 48.8671836853027,8.37890625 53.3203125,14.1796875 55.0378379821777,17.5872802734375 56.2646446228027,21.13037109375 57.0007286071777,24.8089599609375 57.24609375,28.623046875 57.0007286071777,32.4371337890625 56.2646446228027,36.11572265625 55.0378379821777,39.6588134765625 53.3203125,43.06640625 48.8671836853027,48.8671875 43.06640625,53.3203125 39.6588134765625,55.037841796875 36.11572265625,56.2646484375 32.4371337890625,57.000732421875 28.623046875,57.24609375 24.8089599609375,57.000732421875 21.13037109375,56.2646484375 17.5872802734375,55.037841796875 14.1796875,53.3203125 8.37890625,48.8671875 3.92578125,43.06640625 2.208251953125,39.6588134765625 0.9814453125,36.11572265625 0.245361328125,32.4371337890625 0,28.623046875 0.245361328125,24.8089599609375 0.9814453125,21.13037109375 2.208251953125,17.5872802734375 3.92578125,14.1796875 8.37890625,8.37890625 14.1796875,3.92578101158142 17.5872802734375,2.20825409889221 21.13037109375,0.981448173522949 24.8089599609375,0.245363473892212 28.623046875,0z" />
    </g>
  </g>
</svg>