<?xml version="1.0" encoding="utf-8"?>
<!DOCTYPE svg PUBLIC "-//W3C//DTD SVG 1.1//EN" "http://www.w3.org/Graphics/SVG/1.1/DTD/svg11.dtd">
<svg width="57.24609375" height="57.24609375" xmlns="http://www.w3.org/2000/svg" xmlns:xlink="http://www.w3.org/1999/xlink" xmlns:xml="http://www.w3.org/XML/1998/namespace" version="1.1">
  <g>
    <g>
      <path style="fill:#FF0000;fill-opacity:1" d="M38.4375,34.3359375L38.701171875,34.51171875 42.50244140625,38.994140625 47.05078125,42.421875 46.0107421875,43.45458984375 45.3515625,44.326171875 44.677734375,44.8828125 43.974609375,44.560546875 39.5947265625,40.634765625 36.181640625,35.947265625 36.123046875,35.68359375 36.298828125,35.33203125 38.0859375,34.423828125 38.4375,34.3359375z M18.720703125,33.896484375L20.67626953125,34.70947265625 21.62109375,35.15625 22.08984375,35.830078125 21.5625,36.533203125 20.9765625,37.1484375 20.56640625,37.67578125 17.46826171875,41.66748046875 14.033203125,44.677734375 13.30078125,45.029296875 12.65625,44.560546875 10.810546875,43.0078125 14.47998046875,40.17333984375 17.2265625,37.001953125 18.720703125,33.896484375z M10.37109375,28.564453125L18.193359375,28.681640625 39.375,28.681640625 47.16796875,28.564453125 47.51953125,28.857421875 47.51953125,31.435546875 47.16796875,31.728515625 39.375,31.611328125 30.732421875,31.611328125 30.732421875,37.96875 30.791015625,44.619140625 30.47607421875,46.58935546875 29.53125,47.9296875 28.6907939910889,48.3709716796875 27.3999004364014,48.69873046875 25.6585674285889,48.9129638671875 23.466796875,49.013671875 22.5,48.80859375 22.20703125,47.98828125 21.64306640625,46.58203125 21.064453125,45.5859375 23.3276348114014,45.76171875 25.01953125,45.8203125 26.1987285614014,45.69580078125 26.923828125,45.322265625 27.36328125,43.916015625 27.36328125,31.611328125 18.134765625,31.611328125 10.37109375,31.728515625 10.01953125,31.435546875 10.01953125,28.857421875 10.37109375,28.564453125z M18.046875,21.064453125L24.78515625,21.181640625 32.9296875,21.181640625 39.78515625,21.064453125 40.13671875,21.416015625 40.13671875,23.642578125 39.78515625,24.052734375 32.9296875,23.935546875 24.78515625,23.935546875 17.98828125,24.052734375 17.578125,23.642578125 17.578125,21.416015625 18.046875,21.064453125z M26.77734375,8.642578125L28.9526348114014,8.759765625 30.322265625,8.876953125 31.025390625,9.345703125 30.791015625,10.1953125 30.5712871551514,11.3232421875 30.498046875,12.890625 30.498046875,13.740234375 38.90625,13.740234375 46.171875,13.681640625 46.58203125,13.974609375 46.46484375,17.40234375 46.46484375,19.8046875 46.58203125,23.02734375 46.142578125,23.37890625 43.623046875,23.37890625 43.271484375,23.02734375 43.271484375,16.552734375 14.47265625,16.552734375 14.47265625,22.96875 14.0625,23.37890625 11.66015625,23.37890625 11.220703125,23.02734375 11.337890625,19.658203125 11.337890625,17.4609375 11.220703125,13.974609375 11.630859375,13.681640625 18.92578125,13.740234375 27.0703125,13.740234375 27.0703125,12.83203125 26.77734375,8.642578125z M28.623046875,1.9921875L25.081787109375,2.22107148170471 21.6650390625,2.90771770477295 18.372802734375,4.05212593078613 15.205078125,5.654296875 9.814453125,9.814453125 5.654296875,15.205078125 4.0521240234375,18.372802734375 2.90771484375,21.6650390625 2.2210693359375,25.081787109375 1.9921875,28.623046875 2.2210693359375,32.164306640625 2.90771484375,35.5810546875 4.0521240234375,38.873291015625 5.654296875,42.041015625 9.814453125,47.431640625 15.205078125,51.591796875 18.372802734375,53.1939697265625 21.6650390625,54.33837890625 25.081787109375,55.0250244140625 28.623046875,55.25390625 32.164306640625,55.0250244140625 35.5810546875,54.33837890625 38.873291015625,53.1939697265625 42.041015625,51.591796875 47.4316368103027,47.431640625 51.591796875,42.041015625 53.1939659118652,38.873291015625 54.3383750915527,35.5810546875 55.0250205993652,32.164306640625 55.25390625,28.623046875 55.0250205993652,25.081787109375 54.3383750915527,21.6650390625 53.1939659118652,18.372802734375 51.591796875,15.205078125 47.4316368103027,9.814453125 42.041015625,5.654296875 38.873291015625,4.05212593078613 35.5810546875,2.90771770477295 32.164306640625,2.22107148170471 28.623046875,1.9921875z M28.623046875,0L32.4371337890625,0.245363473892212 36.11572265625,0.981448173522949 39.6588134765625,2.20825409889221 43.06640625,3.92578101158142 48.8671836853027,8.37890625 53.3203125,14.1796875 55.0378379821777,17.5872802734375 56.2646446228027,21.13037109375 57.0007286071777,24.8089599609375 57.24609375,28.623046875 57.0007286071777,32.4371337890625 56.2646446228027,36.11572265625 55.0378379821777,39.6588134765625 53.3203125,43.06640625 48.8671836853027,48.8671875 43.06640625,53.3203125 39.6588134765625,55.037841796875 36.11572265625,56.2646484375 32.4371337890625,57.000732421875 28.623046875,57.24609375 24.8089599609375,57.000732421875 21.13037109375,56.2646484375 17.5872802734375,55.037841796875 14.1796875,53.3203125 8.37890625,48.8671875 3.92578125,43.06640625 2.208251953125,39.6588134765625 0.9814453125,36.11572265625 0.245361328125,32.4371337890625 0,28.623046875 0.245361328125,24.8089599609375 0.9814453125,21.13037109375 2.208251953125,17.5872802734375 3.92578125,14.1796875 8.37890625,8.37890625 14.1796875,3.92578101158142 17.5872802734375,2.20825409889221 21.13037109375,0.981448173522949 24.8089599609375,0.245363473892212 28.623046875,0z" />
    </g>
  </g>
</svg>