<?xml version="1.0" encoding="utf-8"?>
<!DOCTYPE svg PUBLIC "-//W3C//DTD SVG 1.1//EN" "http://www.w3.org/Graphics/SVG/1.1/DTD/svg11.dtd">
<svg width="57.24609375" height="57.24609375" xmlns="http://www.w3.org/2000/svg" xmlns:xlink="http://www.w3.org/1999/xlink" xmlns:xml="http://www.w3.org/XML/1998/namespace" version="1.1">
  <g>
    <g>
      <path style="fill:#FF0000;fill-opacity:1" d="M32.109375,26.25L32.34375,26.337890625 36.826171875,30.234375 36.9140625,30.46875 36.767578125,30.849609375 35.33203125,32.109375 35.068359375,32.16796875 34.86328125,32.021484375 32.61474609375,29.74365234375 30.615234375,28.0078125 30.439453125,27.802734375 30.52734375,27.59765625 31.845703125,26.396484375 32.109375,26.25z M29.765625,24.462890625L27.12890625,28.359375 30.02197265625,33.36181640625 33.720703125,37.353515625 38.3642578125,31.552734375 41.630859375,24.462890625 29.765625,24.462890625z M29.4140625,17.63671875L32.16796875,18.515625 32.63671875,19.013671875 32.28515625,19.599609375 31.611328125,20.5078125 31.171875,21.4233417510986 30.966796875,21.884765625 42.01171875,21.884765625 42.83203125,21.767578125 43.388671875,21.650390625 43.96728515625,21.8627948760986 44.765625,22.5 45.44677734375,23.2104511260986 45.673828125,23.701171875 45.205078125,24.404296875 44.81689453125,24.9243183135986 44.35546875,25.95703125 40.72998046875,33.18603515625 36.064453125,39.052734375 40.3125,41.7919921875 45.791015625,44.091796875 44.619140625,45.28564453125 43.916015625,46.23046875 43.41796875,46.7578125 42.7734375,46.58203125 37.69775390625,43.798828125 33.837890625,41.07421875 31.7926025390625,42.689208984375 29.20166015625,44.3701171875 26.0650634765625,46.116943359375 22.3828125,47.9296875 21.826171875,48.017578125 21.240234375,47.578125 19.74609375,45.5859375 23.3514385223389,44.1558837890625 26.5209941864014,42.61962890625 29.2547588348389,40.9771728515625 31.552734375,39.228515625 28.0590801239014,35.26611328125 25.3125,30.5859375 21.357421875,34.833984375 20.888671875,35.09765625 20.390625,34.716796875 18.837890625,33.28125 21.9873027801514,30.2728271484375 24.6679668426514,27.04833984375 26.8798809051514,23.6077880859375 28.623046875,19.951171875 29.1137676239014,18.59619140625 29.4140625,17.63671875z M18.486328125,17.51953125L19.98046875,18.193359375 21.181640625,18.720703125 21.708984375,19.423828125 21.298828125,19.921875 20.83740234375,20.4272480010986 20.2734375,21.357421875 17.40234375,25.927734375 17.40234375,39.66796875 17.51953125,47.4609375 17.2265625,47.8125 14.765625,47.8125 14.35546875,47.4609375 14.47265625,39.7265625 14.47265625,33.662109375 14.58984375,29.091796875 12.5390615463257,31.5966796875 10.078125,34.013671875 9.66796875,34.27734375 9.2578125,33.720703125 7.705078125,32.109375 10.7464599609375,29.3591327667236 13.39599609375,26.4111347198486 15.6536865234375,23.2653827667236 17.51953125,19.921875 18.486328125,17.51953125z M26.572265625,8.173828125L28.6450176239014,8.2763671875 30,8.408203125 30.673828125,8.876953125 30.615234375,9.10400390625 30.439453125,9.7265625 30.2416973114014,10.7666015625 30.17578125,12.48046875 30.17578125,13.740234375 39.287109375,13.740234375 46.787109375,13.623046875 47.16796875,13.974609375 47.16796875,16.318359375 46.787109375,16.728515625 39.287109375,16.611328125 18.046875,16.611328125 10.60546875,16.728515625 10.1953125,16.318359375 10.1953125,13.916015625 10.60546875,13.623046875 18.046875,13.740234375 26.89453125,13.740234375 26.89453125,12.48046875 26.572265625,8.173828125z M28.623046875,1.9921875L25.081787109375,2.22107148170471 21.6650390625,2.90771770477295 18.372802734375,4.05212593078613 15.205078125,5.654296875 9.814453125,9.814453125 5.654296875,15.205078125 4.0521240234375,18.372802734375 2.90771484375,21.6650390625 2.2210693359375,25.081787109375 1.9921875,28.623046875 2.2210693359375,32.164306640625 2.90771484375,35.5810546875 4.0521240234375,38.873291015625 5.654296875,42.041015625 9.814453125,47.431640625 15.205078125,51.591796875 18.372802734375,53.1939697265625 21.6650390625,54.33837890625 25.081787109375,55.0250244140625 28.623046875,55.25390625 32.164306640625,55.0250244140625 35.5810546875,54.33837890625 38.873291015625,53.1939697265625 42.041015625,51.591796875 47.4316368103027,47.431640625 51.591796875,42.041015625 53.1939659118652,38.873291015625 54.3383750915527,35.5810546875 55.0250205993652,32.164306640625 55.25390625,28.623046875 55.0250205993652,25.081787109375 54.3383750915527,21.6650390625 53.1939659118652,18.372802734375 51.591796875,15.205078125 47.4316368103027,9.814453125 42.041015625,5.654296875 38.873291015625,4.05212593078613 35.5810546875,2.90771770477295 32.164306640625,2.22107148170471 28.623046875,1.9921875z M28.623046875,0L32.4371337890625,0.245363473892212 36.11572265625,0.981448173522949 39.6588134765625,2.20825409889221 43.06640625,3.92578101158142 48.8671836853027,8.37890625 53.3203125,14.1796875 55.0378379821777,17.5872802734375 56.2646446228027,21.13037109375 57.0007286071777,24.8089599609375 57.24609375,28.623046875 57.0007286071777,32.4371337890625 56.2646446228027,36.11572265625 55.0378379821777,39.6588134765625 53.3203125,43.06640625 48.8671836853027,48.8671875 43.06640625,53.3203125 39.6588134765625,55.037841796875 36.11572265625,56.2646484375 32.4371337890625,57.000732421875 28.623046875,57.24609375 24.8089599609375,57.000732421875 21.13037109375,56.2646484375 17.5872802734375,55.037841796875 14.1796875,53.3203125 8.37890625,48.8671875 3.92578125,43.06640625 2.208251953125,39.6588134765625 0.9814453125,36.11572265625 0.245361328125,32.4371337890625 0,28.623046875 0.245361328125,24.8089599609375 0.9814453125,21.13037109375 2.208251953125,17.5872802734375 3.92578125,14.1796875 8.37890625,8.37890625 14.1796875,3.92578101158142 17.5872802734375,2.20825409889221 21.13037109375,0.981448173522949 24.8089599609375,0.245363473892212 28.623046875,0z" />
    </g>
  </g>
</svg>