<?xml version="1.0" encoding="utf-8"?>
<!DOCTYPE svg PUBLIC "-//W3C//DTD SVG 1.1//EN" "http://www.w3.org/Graphics/SVG/1.1/DTD/svg11.dtd">
<svg width="57.24609375" height="57.24609375" xmlns="http://www.w3.org/2000/svg" xmlns:xlink="http://www.w3.org/1999/xlink" xmlns:xml="http://www.w3.org/XML/1998/namespace" version="1.1">
  <g>
    <g>
      <path style="fill:#FF0000;fill-opacity:1" d="M20.15625,9.4921875L21.6925029754639,9.6240234375 22.8442363739014,9.7265625 23.6114482879639,9.7998046875 23.994140625,9.84375 24.7265625,10.400390625 24.43359375,11.279296875 24.1479473114014,12.47314453125 24.052734375,14.765625 24.052734375,23.232421875 40.13671875,20.09765625 42.235107421875,19.70947265625 43.8427734375,19.39453125 44.959716796875,19.15283203125 45.5859375,18.984375 45.76171875,18.955078125 46.083984375,19.3359375 46.611328125,21.97265625 46.640625,22.20703125 46.318359375,22.44140625 42.83935546875,23.0346698760986 40.72265625,23.408203125 24.052734375,26.6015625 24.052734375,39.31640625 24.4555644989014,41.044921875 25.6640625,41.953125 28.3300762176514,42.3486328125 32.40234375,42.48046875 34.8504638671875,42.4053955078125 36.80419921875,42.18017578125 38.2635498046875,41.8048095703125 39.228515625,41.279296875 39.8602294921875,40.338134765625 40.34912109375,38.7744140625 40.6951904296875,36.588134765625 40.8984375,33.779296875 43.681640625,35.09765625 44.4140625,35.830078125 44.384765625,36.298828125 44.01123046875,39.0069580078125 43.447265625,41.18408203125 42.69287109375,42.8302001953125 41.748046875,43.9453125 38.49609375,45.322265625 35.9033203125,45.6298828125 32.40234375,45.732421875 29.2858867645264,45.6719970703125 26.7040996551514,45.49072265625 24.6569805145264,45.1885986328125 23.14453125,44.765625 21.123046875,43.26416015625 20.44921875,40.400390625 20.44921875,27.24609375 15.1171875,28.271484375 10.8984375,29.1796875 9.98291015625,29.3994140625 9.638671875,29.47265625 9.169921875,29.12109375 8.642578125,26.337890625 8.583984375,26.1328125 8.935546875,25.927734375 9.60205078125,25.8709735870361 10.751953125,25.7006855010986 12.38525390625,25.4168720245361 14.501953125,25.01953125 20.44921875,23.876953125 20.44921875,14.8828125 20.3759765625,11.66015625 20.15625,9.4921875z M28.623046875,1.9921875L25.081787109375,2.22107148170471 21.6650390625,2.90771770477295 18.372802734375,4.05212593078613 15.205078125,5.654296875 9.814453125,9.814453125 5.654296875,15.205078125 4.0521240234375,18.372802734375 2.90771484375,21.6650390625 2.2210693359375,25.081787109375 1.9921875,28.623046875 2.2210693359375,32.164306640625 2.90771484375,35.5810546875 4.0521240234375,38.873291015625 5.654296875,42.041015625 9.814453125,47.431640625 15.205078125,51.591796875 18.372802734375,53.1939697265625 21.6650390625,54.33837890625 25.081787109375,55.0250244140625 28.623046875,55.25390625 32.164306640625,55.0250244140625 35.5810546875,54.33837890625 38.873291015625,53.1939697265625 42.041015625,51.591796875 47.4316368103027,47.431640625 51.591796875,42.041015625 53.1939659118652,38.873291015625 54.3383750915527,35.5810546875 55.0250205993652,32.164306640625 55.25390625,28.623046875 55.0250205993652,25.081787109375 54.3383750915527,21.6650390625 53.1939659118652,18.372802734375 51.591796875,15.205078125 47.4316368103027,9.814453125 42.041015625,5.654296875 38.873291015625,4.05212593078613 35.5810546875,2.90771770477295 32.164306640625,2.22107148170471 28.623046875,1.9921875z M28.623046875,0L32.4371337890625,0.245363473892212 36.11572265625,0.981448173522949 39.6588134765625,2.20825409889221 43.06640625,3.92578101158142 48.8671836853027,8.37890625 53.3203125,14.1796875 55.0378379821777,17.5872802734375 56.2646446228027,21.13037109375 57.0007286071777,24.8089599609375 57.24609375,28.623046875 57.0007286071777,32.4371337890625 56.2646446228027,36.11572265625 55.0378379821777,39.6588134765625 53.3203125,43.06640625 48.8671836853027,48.8671875 43.06640625,53.3203125 39.6588134765625,55.037841796875 36.11572265625,56.2646484375 32.4371337890625,57.000732421875 28.623046875,57.24609375 24.8089599609375,57.000732421875 21.13037109375,56.2646484375 17.5872802734375,55.037841796875 14.1796875,53.3203125 8.37890625,48.8671875 3.92578125,43.06640625 2.208251953125,39.6588134765625 0.9814453125,36.11572265625 0.245361328125,32.4371337890625 0,28.623046875 0.245361328125,24.8089599609375 0.9814453125,21.13037109375 2.208251953125,17.5872802734375 3.92578125,14.1796875 8.37890625,8.37890625 14.1796875,3.92578101158142 17.5872802734375,2.20825409889221 21.13037109375,0.981448173522949 24.8089599609375,0.245363473892212 28.623046875,0z" />
    </g>
  </g>
</svg>