<?xml version="1.0" encoding="utf-8"?>
<!DOCTYPE svg PUBLIC "-//W3C//DTD SVG 1.1//EN" "http://www.w3.org/Graphics/SVG/1.1/DTD/svg11.dtd">
<svg width="56.513671875" height="58.41796875" xmlns="http://www.w3.org/2000/svg" xmlns:xlink="http://www.w3.org/1999/xlink" xmlns:xml="http://www.w3.org/XML/1998/namespace" version="1.1">
  <g>
    <g>
      <path style="fill:#FF0000;fill-opacity:1" d="M17.9296875,40.48828125L19.10888671875,41.09619140625 20.712890625,42.041015625 21.181640625,42.744140625 20.654296875,43.4765625 19.51171875,44.677734375 16.3623046875,48.46435546875 12.65625,51.5625 12.01171875,51.85546875 11.455078125,51.26953125 10.5102529525757,50.07568359375 9.609375,49.306640625 13.42529296875,46.47216796875 16.318359375,43.359375 17.9296875,40.48828125z M38.408203125,40.224609375L38.759765625,40.48828125 42.63427734375,44.9267578125 47.28515625,48.3984375 45.52734375,50.625 44.94140625,51.328125 44.208984375,50.91796875 39.755859375,46.92626953125 36.240234375,42.275390625 36.064453125,41.982421875 36.298828125,41.748046875 38.173828125,40.37109375 38.408203125,40.224609375z M11.71875,34.658203125L19.013671875,34.775390625 38.583984375,34.775390625 45.908203125,34.658203125 46.318359375,35.009765625 46.318359375,37.587890625 45.908203125,37.998046875 38.525390625,37.880859375 30.673828125,37.880859375 30.673828125,44.794921875 30.791015625,50.2734375 30.44677734375,52.34619140625 29.4140625,53.759765625 27.5390605926514,54.44091796875 24.375,54.66796875 23.115234375,54.638671875 22.32421875,54.462890625 22.03125,53.49609375 21.005859375,50.859375 25.078125,51.181640625 26.0888652801514,51.0791015625 26.71875,50.771484375 27.12890625,49.365234375 27.12890625,37.880859375 19.1015625,37.880859375 11.71875,37.998046875 11.337890625,37.587890625 11.337890625,35.009765625 11.71875,34.658203125z M21.708984375,25.4296875L27.3046875,25.546875 30.849609375,25.546875 36.474609375,25.4296875 36.826171875,25.83984375 36.826171875,28.30078125 36.474609375,28.7109375 30.791015625,28.59375 27.36328125,28.59375 21.708984375,28.7109375 21.357421875,28.30078125 21.357421875,25.83984375 21.708984375,25.4296875z M31.58203125,4.365234375L31.845703125,4.658203125 32.9534912109375,8.843994140625 34.25537109375,12.5830078125 35.7513427734375,15.875244140625 37.44140625,18.720703125 40.4443359375,14.87548828125 42.83203125,10.546875 39.287109375,10.546875 35.21484375,10.6640625 34.86328125,10.3125 34.86328125,8.02734375 35.21484375,7.67578077316284 39.345703125,7.79296875 42.59765625,7.79296875 43.623046875,7.61718797683716 44.296875,7.5 44.94873046875,7.75634765625 45.849609375,8.525390625 46.6625938415527,9.49951171875 46.93359375,10.13671875 46.40625,10.986328125 45.791015625,11.66748046875 45.05859375,12.83203125 42.32666015625,17.21923828125 39.228515625,21.064453125 44.14306640625,26.2719745635986 50.2734375,30.3515625 49.3139610290527,31.669921875 48.779296875,32.87109375 48.28125,33.427734375 47.6953125,33.22265625 41.0614013671875,27.982177734375 35.72021484375,21.6357421875 31.6717529296875,14.183349609375 28.916015625,5.62499952316284 28.88671875,5.44921875 29.208984375,5.09765577316284 31.376953125,4.423828125 31.58203125,4.365234375z M18.310546875,2.724609375L21.240234375,3.86718797683716 21.826171875,4.482421875 21.240234375,5.33203077316284 20.57373046875,6.3427734375 19.51171875,8.26171875 25.078125,8.26171875 26.220703125,8.0859375 26.8359375,7.96874952316284 27.4731426239014,8.19580078125 28.330078125,8.876953125 29.2309551239014,9.83642578125 29.53125,10.3125 29.12109375,11.103515625 28.6157207489014,11.82861328125 27.978515625,13.18359375 24.3676738739014,20.03173828125 19.98046875,25.751953125 15.09521484375,30.2783203125 9.052734375,34.423828125 8.466796875,34.6875 7.91015672683716,34.130859375 7.30224657058716,33.1494140625 6.29882860183716,32.080078125 11.4990224838257,29.01123046875 15.849609375,25.3125 12.0703125,21.533203125 11.865234375,21.181640625 12.01171875,20.947265625 13.447265625,19.599609375 13.623046875,19.482421875 13.857421875,19.599609375 15.82763671875,21.2109394073486 17.9296875,23.408203125 20.712890625,20.0390625 18.8525390625,18.24462890625 16.552734375,16.435546875 16.40625,16.201171875 16.552734375,15.9375 17.87109375,14.443359375 18.134765625,14.267578125 18.427734375,14.384765625 20.60302734375,16.07666015625 22.32421875,17.63671875 23.7597637176514,14.9853515625 25.48828125,10.83984375 18.046875,10.83984375 14.1796875,16.0693359375 9.66796875,20.68359375 9.0234375,21.005859375 8.525390625,20.5078125 6.97265672683716,18.837890625 9.9993896484375,16.13525390625 12.63427734375,13.2421875 14.8773193359375,10.15869140625 16.728515625,6.88476610183716 18.310546875,2.724609375z M47.05078125,0L49.5172080993652,3.8873291015625 51.5844688415527,7.66845703125 53.2525596618652,11.3433837890625 54.521484375,14.912109375 56.0156211853027,21.7236328125 56.513671875,29.208984375 55.8618125915527,37.6904296875 53.90625,45.380859375 51.0937461853027,51.70166015625 47.05078125,58.41796875 45.52734375,57.5390625 49.5703086853027,50.244140625 52.20703125,43.0078125 53.4594688415527,36.45263671875 53.876953125,29.208984375 53.3276329040527,20.9619140625 51.6796875,13.564453125 49.1601524353027,7.27294921875 45.52734375,0.878906309604645 47.05078125,0z M9.4921875,0L10.986328125,0.878906309604645 6.943359375,8.173828125 4.30664110183716,15.41015625 3.05419969558716,21.96533203125 2.63671875,29.208984375 3.18603563308716,37.4560546875 4.83398485183716,44.853515625 7.353515625,51.14501953125 10.986328125,57.5390625 9.4921875,58.41796875 7.02392625808716,54.5306396484375 4.95117235183716,50.74951171875 3.27392649650574,47.0745849609375 1.99218833446503,43.505859375 0.498047202825546,36.6943359375 0,29.208984375 0.651855766773224,20.7275390625 2.60742235183716,13.037109375 5.42724609375,6.71630859375 9.4921875,0z" />
    </g>
  </g>
</svg>