<?xml version="1.0" encoding="utf-8"?>
<!DOCTYPE svg PUBLIC "-//W3C//DTD SVG 1.1//EN" "http://www.w3.org/Graphics/SVG/1.1/DTD/svg11.dtd">
<svg width="56.513671875" height="58.41796875" xmlns="http://www.w3.org/2000/svg" xmlns:xlink="http://www.w3.org/1999/xlink" xmlns:xml="http://www.w3.org/XML/1998/namespace" version="1.1">
  <g>
    <g>
      <path style="fill:#FF0000;fill-opacity:1" d="M25.986328125,3.45703125L28.3300762176514,3.58887004852295 29.853515625,3.75 30.52734375,4.27734375 30.29296875,5.24414014816284 30.0732402801514,7.36083984375 30,10.6640625 30,17.548828125 39.84375,17.548828125 46.93359375,17.431640625 47.28515625,17.841796875 47.28515625,20.7421875 46.93359375,21.03515625 39.78515625,20.9765625 31.259765625,20.9765625 34.420166015625,27.769775390625 38.3056640625,33.7353515625 42.916259765625,38.873291015625 48.251953125,43.18359375 46.9921836853027,44.7216796875 46.318359375,45.87890625 45.849609375,46.494140625 45.1171875,46.11328125 39.7265625,41.103515625 35.390625,35.68359375 32.3876953125,30.57861328125 29.82421875,24.697265625 29.9194316864014,36.32080078125 30.029296875,47.51953125 30.087890625,53.37890625 30.1098613739014,54.48486328125 30.1171875,54.873046875 29.765625,55.224609375 26.513671875,55.224609375 26.162109375,54.873046875 26.19140625,53.37890625 26.3159160614014,39.74853515625 26.396484375,24.990234375 23.616943359375,31.1920166015625 20.2294921875,36.84814453125 16.234130859375,41.9586181640625 11.630859375,46.5234375 10.869140625,46.9921875 10.37109375,46.40625 8.408203125,44.091796875 13.7200927734375,39.2303466796875 18.22998046875,33.75732421875 21.9378662109375,27.6727294921875 24.84375,20.9765625 16.93359375,20.9765625 9.7265625,21.03515625 9.43359375,20.7421875 9.43359375,17.841796875 9.7265625,17.431640625 16.93359375,17.548828125 26.279296875,17.548828125 26.279296875,10.6640625 26.2060527801514,6.4892578125 25.986328125,3.45703125z M47.05078125,0L49.5172080993652,3.8873291015625 51.5844688415527,7.66845703125 53.2525596618652,11.3433837890625 54.521484375,14.912109375 56.0156211853027,21.7236328125 56.513671875,29.208984375 55.8618125915527,37.6904296875 53.90625,45.380859375 51.0937461853027,51.70166015625 47.05078125,58.41796875 45.52734375,57.5390625 49.5703086853027,50.244140625 52.20703125,43.0078125 53.4594688415527,36.45263671875 53.876953125,29.208984375 53.3276329040527,20.9619140625 51.6796875,13.564453125 49.1601524353027,7.27294921875 45.52734375,0.878906309604645 47.05078125,0z M9.4921875,0L10.986328125,0.878906309604645 6.943359375,8.173828125 4.30664110183716,15.41015625 3.05419969558716,21.96533203125 2.63671875,29.208984375 3.18603563308716,37.4560546875 4.83398485183716,44.853515625 7.353515625,51.14501953125 10.986328125,57.5390625 9.4921875,58.41796875 7.02392625808716,54.5306396484375 4.95117235183716,50.74951171875 3.27392649650574,47.0745849609375 1.99218833446503,43.505859375 0.498047202825546,36.6943359375 0,29.208984375 0.651855766773224,20.7275390625 2.60742235183716,13.037109375 5.42724609375,6.71630859375 9.4921875,0z" />
    </g>
  </g>
</svg>