<?xml version="1.0" encoding="utf-8"?>
<!DOCTYPE svg PUBLIC "-//W3C//DTD SVG 1.1//EN" "http://www.w3.org/Graphics/SVG/1.1/DTD/svg11.dtd">
<svg width="56.513671875" height="58.41796875" xmlns="http://www.w3.org/2000/svg" xmlns:xlink="http://www.w3.org/1999/xlink" xmlns:xml="http://www.w3.org/XML/1998/namespace" version="1.1">
  <g>
    <g>
      <path style="fill:#FF0000;fill-opacity:1" d="M33.720703125,3.48632788658142L35.6689453125,3.60351848602295 37.177734375,3.77929663658142 37.8515625,4.30664110183716 37.6171875,5.27343797683716 37.353515625,7.236328125 37.265625,10.48828125 37.265625,14.765625 39.7265625,14.765625 47.34375,14.6484375 47.6953125,15 47.6953125,17.4609375 47.28515625,17.87109375 39.66796875,17.75390625 37.265625,17.75390625 37.265625,26.982421875 41.8359375,26.982421875 49.39453125,26.865234375 49.8046875,27.1875 49.8046875,29.765625 49.39453125,30.1171875 42.0703125,30 38.349609375,30 40.521240234375,34.530029296875 42.9931640625,38.5400390625 45.765380859375,42.030029296875 48.837890625,45 47.7465782165527,46.5380859375 47.16796875,47.51953125 46.728515625,48.10546875 46.142578125,47.63671875 43.5113525390625,44.62646484375 41.12548828125,41.19140625 38.9849853515625,37.33154296875 37.08984375,33.046875 37.294921875,48.984375 37.353515625,53.466796875 37.37548828125,54.33837890625 37.3828125,54.66796875 37.03125,55.078125 34.306640625,55.078125 33.955078125,54.66796875 33.96240234375,53.89892578125 33.984375,51.708984375 34.09423828125,42.3779296875 34.189453125,33.486328125 32.2210693359375,37.4853515625 29.77294921875,41.396484375 26.8450927734375,45.2197265625 23.4375,48.955078125 22.822265625,49.39453125 22.265625,48.720703125 21.6064453125,47.7685546875 20.5078125,46.787109375 24.5727519989014,42.82470703125 27.626953125,39.2578125 30.50537109375,34.86328125 32.8125,30 30.52734375,30 23.876953125,30.1171875 23.4375,29.70703125 23.4375,27.1875 23.876953125,26.865234375 30.87890625,26.982421875 34.072265625,26.982421875 34.072265625,17.75390625 28.0078125,17.75390625 26.8066387176514,20.9545917510986 25.60546875,23.583984375 25.166015625,24.169921875 24.580078125,23.818359375 23.7524394989014,23.2104511260986 22.44140625,22.55859375 25.0854473114014,16.5087890625 26.923828125,9.78515625 27.1655254364014,7.75634765625 27.24609375,6.474609375 30.498046875,7.32421922683716 31.025390625,7.91015672683716 30.673828125,8.642578125 30.38818359375,9.23583984375 30,10.37109375 29.4067363739014,12.8759765625 28.857421875,14.765625 34.072265625,14.765625 34.072265625,10.48828125 33.984375,6.35009765625 33.720703125,3.48632788658142z M14.326171875,3.1640625L16.201171875,3.33984351158142 17.27783203125,3.45703411102295 17.75390625,3.51562523841858 18.427734375,4.130859375 18.251953125,5.068359375 18.0853271484375,5.7440185546875 17.96630859375,6.86279296875 17.8948974609375,8.4246826171875 17.87109375,10.4296875 17.87109375,15.41015625 18.779296875,15.41015625 22.5,15.3515625 22.79296875,15.703125 22.79296875,18.10546875 22.5,18.45703125 18.896484375,18.3984375 18.310546875,18.3984375 20.4052734375,24.9316425323486 23.525390625,31.171875 22.08984375,33.6328125 21.708984375,34.189453125 21.240234375,33.69140625 19.21142578125,28.7109375 17.6953125,23.3203125 17.79052734375,36.15234375 17.900390625,47.75390625 17.958984375,53.49609375 17.98828125,54.873046875 17.578125,55.3125 15,55.3125 14.53125,54.873046875 14.560546875,53.525390625 14.6319580078125,47.10205078125 14.69970703125,40.078125 14.7637939453125,32.45361328125 14.82421875,24.228515625 12.3413076400757,32.45361328125 8.876953125,40.48828125 8.3203125,41.044921875 7.91015672683716,40.4296875 7.39013719558716,39.4189453125 6.47460985183716,37.96875 8.72314453125,33.746337890625 10.7519521713257,29.0771484375 12.5610342025757,23.961181640625 14.150390625,18.3984375 12.71484375,18.3984375 8.0859375,18.45703125 7.73437547683716,18.10546875 7.73437547683716,15.703125 8.0859375,15.29296875 12.71484375,15.41015625 14.70703125,15.41015625 14.70703125,10.546875 14.61181640625,6.3427734375 14.326171875,3.1640625z M47.05078125,0L49.5172080993652,3.8873291015625 51.5844688415527,7.66845703125 53.2525596618652,11.3433837890625 54.521484375,14.912109375 56.0156211853027,21.7236328125 56.513671875,29.208984375 55.8618125915527,37.6904296875 53.90625,45.380859375 51.0937461853027,51.70166015625 47.05078125,58.41796875 45.52734375,57.5390625 49.5703086853027,50.244140625 52.20703125,43.0078125 53.4594688415527,36.45263671875 53.876953125,29.208984375 53.3276329040527,20.9619140625 51.6796875,13.564453125 49.1601524353027,7.27294921875 45.52734375,0.878906309604645 47.05078125,0z M9.4921875,0L10.986328125,0.878906309604645 6.943359375,8.173828125 4.30664110183716,15.41015625 3.05419969558716,21.96533203125 2.63671875,29.208984375 3.18603563308716,37.4560546875 4.83398485183716,44.853515625 7.353515625,51.14501953125 10.986328125,57.5390625 9.4921875,58.41796875 7.02392625808716,54.5306396484375 4.95117235183716,50.74951171875 3.27392649650574,47.0745849609375 1.99218833446503,43.505859375 0.498047202825546,36.6943359375 0,29.208984375 0.651855766773224,20.7275390625 2.60742235183716,13.037109375 5.42724609375,6.71630859375 9.4921875,0z" />
    </g>
  </g>
</svg>