<?xml version="1.0" encoding="utf-8"?>
<!DOCTYPE svg PUBLIC "-//W3C//DTD SVG 1.1//EN" "http://www.w3.org/Graphics/SVG/1.1/DTD/svg11.dtd">
<svg width="56.513671875" height="58.41796875" xmlns="http://www.w3.org/2000/svg" xmlns:xlink="http://www.w3.org/1999/xlink" xmlns:xml="http://www.w3.org/XML/1998/namespace" version="1.1">
  <g>
    <g>
      <path style="fill:#FF0000;fill-opacity:1" d="M21.767578125,18.837890625L22.39013671875,19.09423828125 23.3203125,19.86328125 24.0893535614014,20.7202167510986 24.345703125,21.298828125 23.935546875,22.20703125 23.4594707489014,22.9321308135986 23.0859375,24.111328125 21.0003662109375,30.6097412109375 18.34716796875,36.42333984375 15.1263427734375,41.5521240234375 11.337890625,45.99609375 10.576171875,46.611328125 10.01953125,45.9375 7.91015672683716,44.033203125 11.846923828125,39.8382568359375 15.1611328125,34.84130859375 17.852783203125,29.0423583984375 19.921875,22.44140625 14.53125,22.44140625 9.052734375,22.55859375 8.701171875,22.20703125 8.701171875,19.423828125 9.052734375,19.072265625 14.53125,19.189453125 20.0390625,19.189453125 21.123046875,19.013671875 21.767578125,18.837890625z M26.220703125,3.63281226158142L27.9125957489014,3.74267864227295 30.17578125,3.95507836341858 30.8203125,4.482421875 30.5859375,5.44921875 30.322265625,7.32421875 30.234375,10.546875 30.234375,13.18359375 31.89697265625,19.9951171875 34.248046875,26.30859375 38.49609375,21.6577167510986 41.865234375,16.845703125 43.125,14.208984375 45.10986328125,15.60791015625 46.083984375,16.34765625 46.552734375,17.138671875 45.9375,17.9296875 44.91943359375,18.837890625 43.681640625,20.390625 40.02685546875,24.9243183135986 35.68359375,29.326171875 38.140869140625,33.746337890625 41.0595703125,37.6611328125 44.439697265625,41.070556640625 48.28125,43.974609375 46.9262657165527,45.37353515625 46.142578125,46.5234375 45.615234375,47.138671875 44.94140625,46.69921875 39.818115234375,41.8121337890625 35.6396484375,36.05712890625 32.406005859375,29.4342041015625 30.1171875,21.943359375 30.1904277801514,31.3623046875 30.29296875,41.455078125 30.318603515625,44.36279296875 30.3369140625,46.611328125 30.347900390625,48.20068359375 30.3515625,49.130859375 29.99267578125,51.46728515625 28.916015625,53.02734375 27.9565410614014,53.5272216796875 26.4550762176514,53.88427734375 24.4116191864014,54.0985107421875 21.826171875,54.169921875 20.947265625,53.96484375 20.625,53.203125 19.482421875,50.15625 21.97265625,50.3759765625 23.994140625,50.44921875 25.3710918426514,50.33935546875 26.162109375,50.009765625 26.572265625,48.57421875 26.572265625,10.6640625 26.4843730926514,6.474609375 26.220703125,3.63281226158142z M47.05078125,0L49.5172080993652,3.8873291015625 51.5844688415527,7.66845703125 53.2525596618652,11.3433837890625 54.521484375,14.912109375 56.0156211853027,21.7236328125 56.513671875,29.208984375 55.8618125915527,37.6904296875 53.90625,45.380859375 51.0937461853027,51.70166015625 47.05078125,58.41796875 45.52734375,57.5390625 49.5703086853027,50.244140625 52.20703125,43.0078125 53.4594688415527,36.45263671875 53.876953125,29.208984375 53.3276329040527,20.9619140625 51.6796875,13.564453125 49.1601524353027,7.27294921875 45.52734375,0.878906309604645 47.05078125,0z M9.4921875,0L10.986328125,0.878906309604645 6.943359375,8.173828125 4.30664110183716,15.41015625 3.05419969558716,21.96533203125 2.63671875,29.208984375 3.18603563308716,37.4560546875 4.83398485183716,44.853515625 7.353515625,51.14501953125 10.986328125,57.5390625 9.4921875,58.41796875 7.02392625808716,54.5306396484375 4.95117235183716,50.74951171875 3.27392649650574,47.0745849609375 1.99218833446503,43.505859375 0.498047202825546,36.6943359375 0,29.208984375 0.651855766773224,20.7275390625 2.60742235183716,13.037109375 5.42724609375,6.71630859375 9.4921875,0z" />
    </g>
  </g>
</svg>