<?xml version="1.0" encoding="utf-8"?>
<!DOCTYPE svg PUBLIC "-//W3C//DTD SVG 1.1//EN" "http://www.w3.org/Graphics/SVG/1.1/DTD/svg11.dtd">
<svg width="57.24609375" height="57.24609375" xmlns="http://www.w3.org/2000/svg" xmlns:xlink="http://www.w3.org/1999/xlink" xmlns:xml="http://www.w3.org/XML/1998/namespace" version="1.1">
  <g>
    <g>
      <path style="fill:#FF0000;fill-opacity:1" d="M38.291015625,12.12890625L41.62353515625,12.75146484375 44.1796875,14.619140625 45.56396484375,17.01416015625 46.025390625,19.98046875 45.62255859375,22.7856464385986 44.4140625,25.048828125 42.79541015625,26.4917011260986 40.693359375,27.36328125 40.693359375,27.65625 43.231201171875,28.7548828125 45.0439453125,30.46875 46.131591796875,32.7978515625 46.494140625,35.7421875 45.849609375,39.83642578125 43.916015625,42.919921875 41.38916015625,44.56787109375 38.26171875,45.1171875 35.262451171875,44.7088623046875 32.8857421875,43.48388671875 31.131591796875,41.4422607421875 30,38.583984375 33.544921875,37.1484375 34.200439453125,39.1864013671875 35.2001953125,40.64208984375 36.544189453125,41.5155029296875 38.232421875,41.806640625 40.0634765625,41.3818359375 41.455078125,40.107421875 42.26806640625,38.25439453125 42.5390625,35.859375 42.20947265625,33.0780029296875 41.220703125,31.09130859375 39.57275390625,29.8992919921875 37.265625,29.501953125 35.15625,29.501953125 35.15625,26.044921875 37.1484375,26.044921875 39.33837890625,25.6127948760986 40.927734375,24.31640625 41.78466796875,22.5439472198486 42.0703125,20.21484375 41.8304443359375,18.1512451171875 41.11083984375,16.67724609375 39.9114990234375,15.7928466796875 38.232421875,15.498046875 36.71630859375,15.7672119140625 35.5078125,16.57470703125 34.60693359375,17.9205322265625 34.013671875,19.8046875 30.52734375,18.662109375 31.5728759765625,15.8038330078125 33.21533203125,13.76220703125 35.4547119140625,12.5372314453125 38.291015625,12.12890625z M18.720703125,12.12890625L22.02392578125,12.75146484375 24.55078125,14.619140625 25.9350566864014,17.02880859375 26.396484375,19.98046875 25.9936504364014,22.7856464385986 24.78515625,25.048828125 23.1665019989014,26.4917011260986 21.064453125,27.36328125 21.064453125,27.65625 23.6151103973389,28.7548828125 25.4370098114014,30.46875 26.5301494598389,32.7978515625 26.89453125,35.7421875 26.2499980926514,39.82177734375 24.31640625,42.919921875 21.81884765625,44.56787109375 18.720703125,45.1171875 15.7086172103882,44.7088623046875 13.3227529525757,43.48388671875 11.5631093978882,41.4422607421875 10.4296875,38.583984375 14.033203125,37.1484375 14.630126953125,39.1864013671875 15.6005859375,40.64208984375 16.944580078125,41.5155029296875 18.662109375,41.806640625 20.51513671875,41.3818359375 21.9140625,40.107421875 22.7270488739014,38.25439453125 22.998046875,35.859375 22.6629619598389,33.0780029296875 21.6577129364014,31.09130859375 19.9822978973389,29.8992919921875 17.63671875,29.501953125 15.5859375,29.501953125 15.5859375,26.044921875 17.51953125,26.044921875 19.73876953125,25.6127948760986 21.357421875,24.31640625 22.21435546875,22.5439472198486 22.5,20.21484375 22.2601318359375,18.1512451171875 21.54052734375,16.67724609375 20.3411865234375,15.7928466796875 18.662109375,15.498046875 17.1478271484375,15.7672119140625 15.94482421875,16.57470703125 15.0531005859375,17.9205322265625 14.47265625,19.8046875 10.927734375,18.662109375 12.0080556869507,15.8038330078125 13.6669912338257,13.76220703125 15.9045400619507,12.5372314453125 18.720703125,12.12890625z M28.623046875,1.9921875L25.081787109375,2.22107148170471 21.6650390625,2.90771770477295 18.372802734375,4.05212593078613 15.205078125,5.654296875 9.814453125,9.814453125 5.654296875,15.205078125 4.0521240234375,18.372802734375 2.90771484375,21.6650390625 2.2210693359375,25.081787109375 1.9921875,28.623046875 2.2210693359375,32.164306640625 2.90771484375,35.5810546875 4.0521240234375,38.873291015625 5.654296875,42.041015625 9.814453125,47.431640625 15.205078125,51.591796875 18.372802734375,53.1939697265625 21.6650390625,54.33837890625 25.081787109375,55.0250244140625 28.623046875,55.25390625 32.164306640625,55.0250244140625 35.5810546875,54.33837890625 38.873291015625,53.1939697265625 42.041015625,51.591796875 47.4316368103027,47.431640625 51.591796875,42.041015625 53.1939659118652,38.873291015625 54.3383750915527,35.5810546875 55.0250205993652,32.164306640625 55.25390625,28.623046875 55.0250205993652,25.081787109375 54.3383750915527,21.6650390625 53.1939659118652,18.372802734375 51.591796875,15.205078125 47.4316368103027,9.814453125 42.041015625,5.654296875 38.873291015625,4.05212593078613 35.5810546875,2.90771770477295 32.164306640625,2.22107148170471 28.623046875,1.9921875z M28.623046875,0L32.4371337890625,0.245363473892212 36.11572265625,0.981448173522949 39.6588134765625,2.20825409889221 43.06640625,3.92578101158142 48.8671836853027,8.37890625 53.3203125,14.1796875 55.0378379821777,17.5872802734375 56.2646446228027,21.13037109375 57.0007286071777,24.8089599609375 57.24609375,28.623046875 57.0007286071777,32.4371337890625 56.2646446228027,36.11572265625 55.0378379821777,39.6588134765625 53.3203125,43.06640625 48.8671836853027,48.8671875 43.06640625,53.3203125 39.6588134765625,55.037841796875 36.11572265625,56.2646484375 32.4371337890625,57.000732421875 28.623046875,57.24609375 24.8089599609375,57.000732421875 21.13037109375,56.2646484375 17.5872802734375,55.037841796875 14.1796875,53.3203125 8.37890625,48.8671875 3.92578125,43.06640625 2.208251953125,39.6588134765625 0.9814453125,36.11572265625 0.245361328125,32.4371337890625 0,28.623046875 0.245361328125,24.8089599609375 0.9814453125,21.13037109375 2.208251953125,17.5872802734375 3.92578125,14.1796875 8.37890625,8.37890625 14.1796875,3.92578101158142 17.5872802734375,2.20825409889221 21.13037109375,0.981448173522949 24.8089599609375,0.245363473892212 28.623046875,0z" />
    </g>
  </g>
</svg>