<?xml version="1.0" encoding="utf-8"?>
<!DOCTYPE svg PUBLIC "-//W3C//DTD SVG 1.1//EN" "http://www.w3.org/Graphics/SVG/1.1/DTD/svg11.dtd">
<svg width="57.24609375" height="57.24609375" xmlns="http://www.w3.org/2000/svg" xmlns:xlink="http://www.w3.org/1999/xlink" xmlns:xml="http://www.w3.org/XML/1998/namespace" version="1.1">
  <g>
    <g>
      <path style="fill:#FF0000;fill-opacity:1" d="M41.865234375,13.447265625L42.48046875,13.65234375 44.326171875,15.52734375 44.619140625,16.083984375 44.35546875,16.728515625 43.95263671875,17.5634765625 43.447265625,19.013671875 40.224609375,27.73681640625 36.005859375,35.09765625 30.03662109375,42.099609375 22.91015625,47.75390625 22.177734375,48.076171875 21.474609375,47.75390625 18.955078125,46.201171875 25.8544902801514,41.27197265625 31.318359375,35.56640625 34.0576171875,31.69921875 36.357421875,27.65625 24.287109375,27.65625 20.55908203125,27.71484375 17.34375,27.890625 16.611328125,27.216796875 16.58203125,26.7407245635986 16.494140625,25.72265625 16.376953125,24.345703125 18.50830078125,24.4335956573486 21.09375,24.462890625 24.287109375,24.462890625 37.734375,24.462890625 40.078125,17.138671875 23.408203125,17.2265625 20.8392333984375,17.2412109375 18.66943359375,17.28515625 16.8988037109375,17.3583984375 15.52734375,17.4609375 14.8828125,16.845703125 14.7509765625,15.1025390625 14.70703125,13.798828125 16.2579345703125,13.9013671875 18.21533203125,13.974609375 20.5792236328125,14.0185546875 23.349609375,14.033203125 38.935546875,14.033203125 40.4150390625,13.92333984375 41.396484375,13.59375 41.865234375,13.447265625z M28.623046875,1.9921875L25.081787109375,2.22107148170471 21.6650390625,2.90771770477295 18.372802734375,4.05212593078613 15.205078125,5.654296875 9.814453125,9.814453125 5.654296875,15.205078125 4.0521240234375,18.372802734375 2.90771484375,21.6650390625 2.2210693359375,25.081787109375 1.9921875,28.623046875 2.2210693359375,32.164306640625 2.90771484375,35.5810546875 4.0521240234375,38.873291015625 5.654296875,42.041015625 9.814453125,47.431640625 15.205078125,51.591796875 18.372802734375,53.1939697265625 21.6650390625,54.33837890625 25.081787109375,55.0250244140625 28.623046875,55.25390625 32.164306640625,55.0250244140625 35.5810546875,54.33837890625 38.873291015625,53.1939697265625 42.041015625,51.591796875 47.4316368103027,47.431640625 51.591796875,42.041015625 53.1939659118652,38.873291015625 54.3383750915527,35.5810546875 55.0250205993652,32.164306640625 55.25390625,28.623046875 55.0250205993652,25.081787109375 54.3383750915527,21.6650390625 53.1939659118652,18.372802734375 51.591796875,15.205078125 47.4316368103027,9.814453125 42.041015625,5.654296875 38.873291015625,4.05212593078613 35.5810546875,2.90771770477295 32.164306640625,2.22107148170471 28.623046875,1.9921875z M28.623046875,0L32.4371337890625,0.245363473892212 36.11572265625,0.981448173522949 39.6588134765625,2.20825409889221 43.06640625,3.92578101158142 48.8671836853027,8.37890625 53.3203125,14.1796875 55.0378379821777,17.5872802734375 56.2646446228027,21.13037109375 57.0007286071777,24.8089599609375 57.24609375,28.623046875 57.0007286071777,32.4371337890625 56.2646446228027,36.11572265625 55.0378379821777,39.6588134765625 53.3203125,43.06640625 48.8671836853027,48.8671875 43.06640625,53.3203125 39.6588134765625,55.037841796875 36.11572265625,56.2646484375 32.4371337890625,57.000732421875 28.623046875,57.24609375 24.8089599609375,57.000732421875 21.13037109375,56.2646484375 17.5872802734375,55.037841796875 14.1796875,53.3203125 8.37890625,48.8671875 3.92578125,43.06640625 2.208251953125,39.6588134765625 0.9814453125,36.11572265625 0.245361328125,32.4371337890625 0,28.623046875 0.245361328125,24.8089599609375 0.9814453125,21.13037109375 2.208251953125,17.5872802734375 3.92578125,14.1796875 8.37890625,8.37890625 14.1796875,3.92578101158142 17.5872802734375,2.20825409889221 21.13037109375,0.981448173522949 24.8089599609375,0.245363473892212 28.623046875,0z" />
    </g>
  </g>
</svg>