<?xml version="1.0" encoding="utf-8"?>
<!DOCTYPE svg PUBLIC "-//W3C//DTD SVG 1.1//EN" "http://www.w3.org/Graphics/SVG/1.1/DTD/svg11.dtd">
<svg width="57.24609375" height="57.24609375" xmlns="http://www.w3.org/2000/svg" xmlns:xlink="http://www.w3.org/1999/xlink" xmlns:xml="http://www.w3.org/XML/1998/namespace" version="1.1">
  <g>
    <g>
      <path style="fill:#FF0000;fill-opacity:1" d="M41.25,11.982421875L41.953125,12.24609375 43.9453125,14.12109375 44.208984375,14.82421875 43.740234375,15.556640625 43.13232421875,16.16455078125 42.48046875,17.16796875 38.69384765625,23.4521503448486 34.013671875,29.6484375 39.052734375,33.65478515625 43.857421875,38.232421875 44.12109375,38.818359375 43.974609375,39.2578125 43.07373046875,40.3271484375 42.36328125,41.015625 41.806640625,41.279296875 41.337890625,41.015625 36.7236328125,36.328125 31.669921875,32.2265625 23.7817363739014,39.27978515625 14.4140625,45.263671875 13.916015625,45.380859375 13.212890625,45.029296875 10.693359375,43.212890625 15.8203125,40.506591796875 20.56640625,37.4267578125 24.931640625,33.973388671875 28.916015625,30.146484375 24.5800762176514,27.32666015625 18.837890625,24.19921875 19.78271484375,22.9394550323486 20.390625,22.20703125 21.005859375,21.85546875 21.416015625,21.97265625 26.5576152801514,24.7485370635986 31.142578125,27.626953125 35.654296875,21.9287128448486 39.228515625,15.615234375 23.935546875,15.615234375 19.6728515625,15.673828125 16.845703125,15.849609375 16.4501953125,15.65185546875 16.259765625,15.05859375 16.1279296875,13.8134765625 16.025390625,12.12890625 19.7607421875,12.3486328125 24.052734375,12.421875 38.291015625,12.421875 39.873046875,12.3486328125 40.751953125,12.12890625 41.25,11.982421875z M28.623046875,1.9921875L25.081787109375,2.22107148170471 21.6650390625,2.90771770477295 18.372802734375,4.05212593078613 15.205078125,5.654296875 9.814453125,9.814453125 5.654296875,15.205078125 4.0521240234375,18.372802734375 2.90771484375,21.6650390625 2.2210693359375,25.081787109375 1.9921875,28.623046875 2.2210693359375,32.164306640625 2.90771484375,35.5810546875 4.0521240234375,38.873291015625 5.654296875,42.041015625 9.814453125,47.431640625 15.205078125,51.591796875 18.372802734375,53.1939697265625 21.6650390625,54.33837890625 25.081787109375,55.0250244140625 28.623046875,55.25390625 32.164306640625,55.0250244140625 35.5810546875,54.33837890625 38.873291015625,53.1939697265625 42.041015625,51.591796875 47.4316368103027,47.431640625 51.591796875,42.041015625 53.1939659118652,38.873291015625 54.3383750915527,35.5810546875 55.0250205993652,32.164306640625 55.25390625,28.623046875 55.0250205993652,25.081787109375 54.3383750915527,21.6650390625 53.1939659118652,18.372802734375 51.591796875,15.205078125 47.4316368103027,9.814453125 42.041015625,5.654296875 38.873291015625,4.05212593078613 35.5810546875,2.90771770477295 32.164306640625,2.22107148170471 28.623046875,1.9921875z M28.623046875,0L32.4371337890625,0.245363473892212 36.11572265625,0.981448173522949 39.6588134765625,2.20825409889221 43.06640625,3.92578101158142 48.8671836853027,8.37890625 53.3203125,14.1796875 55.0378379821777,17.5872802734375 56.2646446228027,21.13037109375 57.0007286071777,24.8089599609375 57.24609375,28.623046875 57.0007286071777,32.4371337890625 56.2646446228027,36.11572265625 55.0378379821777,39.6588134765625 53.3203125,43.06640625 48.8671836853027,48.8671875 43.06640625,53.3203125 39.6588134765625,55.037841796875 36.11572265625,56.2646484375 32.4371337890625,57.000732421875 28.623046875,57.24609375 24.8089599609375,57.000732421875 21.13037109375,56.2646484375 17.5872802734375,55.037841796875 14.1796875,53.3203125 8.37890625,48.8671875 3.92578125,43.06640625 2.208251953125,39.6588134765625 0.9814453125,36.11572265625 0.245361328125,32.4371337890625 0,28.623046875 0.245361328125,24.8089599609375 0.9814453125,21.13037109375 2.208251953125,17.5872802734375 3.92578125,14.1796875 8.37890625,8.37890625 14.1796875,3.92578101158142 17.5872802734375,2.20825409889221 21.13037109375,0.981448173522949 24.8089599609375,0.245363473892212 28.623046875,0z" />
    </g>
  </g>
</svg>