<?xml version="1.0" encoding="utf-8"?>
<!DOCTYPE svg PUBLIC "-//W3C//DTD SVG 1.1//EN" "http://www.w3.org/Graphics/SVG/1.1/DTD/svg11.dtd">
<svg width="57.24609375" height="57.24609375" xmlns="http://www.w3.org/2000/svg" xmlns:xlink="http://www.w3.org/1999/xlink" xmlns:xml="http://www.w3.org/XML/1998/namespace" version="1.1">
  <g>
    <g>
      <path style="fill:#FF0000;fill-opacity:1" d="M20.712890625,21.650390625L20.712890625,32.578125 30.87890625,32.578125 30.87890625,21.650390625 20.712890625,21.650390625z M30.52734375,9.43359375L32.77587890625,9.66796875 34.482421875,9.9609375 35.009765625,10.6640625 34.833984375,11.220703125 34.4384765625,12.861328125 34.306640625,15.791015625 34.306640625,18.662109375 36.298828125,18.662109375 37.6025390625,18.65478515625 39.287109375,18.6328125 41.3525390625,18.59619140625 43.798828125,18.544921875 44.326171875,19.1015625 44.384765625,20.126953125 44.326171875,21.240234375 43.798828125,21.767578125 39.55078125,21.6796894073486 36.357421875,21.650390625 34.306640625,21.650390625 34.306640625,32.578125 38.759765625,32.578125 46.142578125,32.40234375 46.845703125,32.98828125 46.904296875,34.04296875 46.845703125,35.15625 46.142578125,35.7421875 41.8359375,35.654296875 38.759765625,35.625 34.306640625,35.625 34.306640625,38.61328125 34.3359375,42.16552734375 34.423828125,47.021484375 34.453125,47.2265625 33.896484375,47.6953125 31.23046875,47.6953125 30.76171875,47.021484375 30.849609375,42.29736328125 30.87890625,38.671875 30.87890625,35.625 16.083984375,35.625 12.2680654525757,35.6689453125 9.43359375,35.80078125 8.701171875,35.15625 8.583984375,34.1015625 8.466796875,32.34375 15.849609375,32.578125 17.34375,32.578125 17.34375,21.708984375 15.4248046875,21.7456073760986 12.0703125,21.85546875 11.89453125,21.85546875 11.337890625,21.181640625 11.2792959213257,20.3613300323486 11.162109375,18.486328125 14.2822265625,18.6181640625 18.720703125,18.662109375 30.87890625,18.662109375 30.87890625,15.732421875 30.791015625,12.12158203125 30.52734375,9.43359375z M28.623046875,1.9921875L25.081787109375,2.22107148170471 21.6650390625,2.90771770477295 18.372802734375,4.05212593078613 15.205078125,5.654296875 9.814453125,9.814453125 5.654296875,15.205078125 4.0521240234375,18.372802734375 2.90771484375,21.6650390625 2.2210693359375,25.081787109375 1.9921875,28.623046875 2.2210693359375,32.164306640625 2.90771484375,35.5810546875 4.0521240234375,38.873291015625 5.654296875,42.041015625 9.814453125,47.431640625 15.205078125,51.591796875 18.372802734375,53.1939697265625 21.6650390625,54.33837890625 25.081787109375,55.0250244140625 28.623046875,55.25390625 32.164306640625,55.0250244140625 35.5810546875,54.33837890625 38.873291015625,53.1939697265625 42.041015625,51.591796875 47.4316368103027,47.431640625 51.591796875,42.041015625 53.1939659118652,38.873291015625 54.3383750915527,35.5810546875 55.0250205993652,32.164306640625 55.25390625,28.623046875 55.0250205993652,25.081787109375 54.3383750915527,21.6650390625 53.1939659118652,18.372802734375 51.591796875,15.205078125 47.4316368103027,9.814453125 42.041015625,5.654296875 38.873291015625,4.05212593078613 35.5810546875,2.90771770477295 32.164306640625,2.22107148170471 28.623046875,1.9921875z M28.623046875,0L32.4371337890625,0.245363473892212 36.11572265625,0.981448173522949 39.6588134765625,2.20825409889221 43.06640625,3.92578101158142 48.8671836853027,8.37890625 53.3203125,14.1796875 55.0378379821777,17.5872802734375 56.2646446228027,21.13037109375 57.0007286071777,24.8089599609375 57.24609375,28.623046875 57.0007286071777,32.4371337890625 56.2646446228027,36.11572265625 55.0378379821777,39.6588134765625 53.3203125,43.06640625 48.8671836853027,48.8671875 43.06640625,53.3203125 39.6588134765625,55.037841796875 36.11572265625,56.2646484375 32.4371337890625,57.000732421875 28.623046875,57.24609375 24.8089599609375,57.000732421875 21.13037109375,56.2646484375 17.5872802734375,55.037841796875 14.1796875,53.3203125 8.37890625,48.8671875 3.92578125,43.06640625 2.208251953125,39.6588134765625 0.9814453125,36.11572265625 0.245361328125,32.4371337890625 0,28.623046875 0.245361328125,24.8089599609375 0.9814453125,21.13037109375 2.208251953125,17.5872802734375 3.92578125,14.1796875 8.37890625,8.37890625 14.1796875,3.92578101158142 17.5872802734375,2.20825409889221 21.13037109375,0.981448173522949 24.8089599609375,0.245363473892212 28.623046875,0z" />
    </g>
  </g>
</svg>