<?xml version="1.0" encoding="utf-8"?>
<!DOCTYPE svg PUBLIC "-//W3C//DTD SVG 1.1//EN" "http://www.w3.org/Graphics/SVG/1.1/DTD/svg11.dtd">
<svg width="57.24609375" height="57.24609375" xmlns="http://www.w3.org/2000/svg" xmlns:xlink="http://www.w3.org/1999/xlink" xmlns:xml="http://www.w3.org/XML/1998/namespace" version="1.1">
  <g>
    <g>
      <path style="fill:#FF0000;fill-opacity:1" d="M20.419921875,10.810546875L22.9321269989014,11.1474609375 24.55078125,11.513671875 25.13671875,12.216796875 24.990234375,12.7734375 24.5727519989014,14.20166015625 24.43359375,16.494140625 24.43359375,22.734375 37.822265625,19.482421875 39.95361328125,18.9111328125 41.19140625,18.369140625 41.77734375,18.134765625 42.333984375,18.310546875 44.560546875,20.15625 44.853515625,20.80078125 44.4140625,21.474609375 43.974609375,21.9799823760986 43.2421875,23.0859375 39.64599609375,28.8134765625 35.654296875,33.28125 34.86328125,33.69140625 34.27734375,33.515625 31.69921875,32.51953125 36.357421875,27.73681640625 39.9609375,22.001953125 24.43359375,25.927734375 24.43359375,37.1484375 24.8364238739014,39.27978515625 26.044921875,40.517578125 28.1323223114014,41.06689453125 31.46484375,41.25 36.9580078125,41.044921875 42.01171875,40.4296875 42.275390625,40.4296875 42.802734375,41.044921875 43.037109375,43.359375 42.3046875,43.974609375 31.58203125,44.443359375 28.5974102020264,44.33349609375 26.1474590301514,44.00390625 24.2321758270264,43.45458984375 22.8515625,42.685546875 21.42333984375,40.56884765625 20.947265625,37.32421875 20.947265625,26.748046875 17.16796875,27.65625 13.1835927963257,28.6962890625 10.13671875,29.6484375 9.638671875,29.765625 9.08203125,29.35546875 8.51806640625,28.07373046875 7.822265625,26.162109375 11.4843740463257,25.5908222198486 16.494140625,24.521484375 20.947265625,23.525390625 20.947265625,17.16796875 20.8154296875,13.70361328125 20.419921875,10.810546875z M28.623046875,1.9921875L25.081787109375,2.22107148170471 21.6650390625,2.90771770477295 18.372802734375,4.05212593078613 15.205078125,5.654296875 9.814453125,9.814453125 5.654296875,15.205078125 4.0521240234375,18.372802734375 2.90771484375,21.6650390625 2.2210693359375,25.081787109375 1.9921875,28.623046875 2.2210693359375,32.164306640625 2.90771484375,35.5810546875 4.0521240234375,38.873291015625 5.654296875,42.041015625 9.814453125,47.431640625 15.205078125,51.591796875 18.372802734375,53.1939697265625 21.6650390625,54.33837890625 25.081787109375,55.0250244140625 28.623046875,55.25390625 32.164306640625,55.0250244140625 35.5810546875,54.33837890625 38.873291015625,53.1939697265625 42.041015625,51.591796875 47.4316368103027,47.431640625 51.591796875,42.041015625 53.1939659118652,38.873291015625 54.3383750915527,35.5810546875 55.0250205993652,32.164306640625 55.25390625,28.623046875 55.0250205993652,25.081787109375 54.3383750915527,21.6650390625 53.1939659118652,18.372802734375 51.591796875,15.205078125 47.4316368103027,9.814453125 42.041015625,5.654296875 38.873291015625,4.05212593078613 35.5810546875,2.90771770477295 32.164306640625,2.22107148170471 28.623046875,1.9921875z M28.623046875,0L32.4371337890625,0.245363473892212 36.11572265625,0.981448173522949 39.6588134765625,2.20825409889221 43.06640625,3.92578101158142 48.8671836853027,8.37890625 53.3203125,14.1796875 55.0378379821777,17.5872802734375 56.2646446228027,21.13037109375 57.0007286071777,24.8089599609375 57.24609375,28.623046875 57.0007286071777,32.4371337890625 56.2646446228027,36.11572265625 55.0378379821777,39.6588134765625 53.3203125,43.06640625 48.8671836853027,48.8671875 43.06640625,53.3203125 39.6588134765625,55.037841796875 36.11572265625,56.2646484375 32.4371337890625,57.000732421875 28.623046875,57.24609375 24.8089599609375,57.000732421875 21.13037109375,56.2646484375 17.5872802734375,55.037841796875 14.1796875,53.3203125 8.37890625,48.8671875 3.92578125,43.06640625 2.208251953125,39.6588134765625 0.9814453125,36.11572265625 0.245361328125,32.4371337890625 0,28.623046875 0.245361328125,24.8089599609375 0.9814453125,21.13037109375 2.208251953125,17.5872802734375 3.92578125,14.1796875 8.37890625,8.37890625 14.1796875,3.92578101158142 17.5872802734375,2.20825409889221 21.13037109375,0.981448173522949 24.8089599609375,0.245363473892212 28.623046875,0z" />
    </g>
  </g>
</svg>