<?xml version="1.0" encoding="utf-8"?>
<!DOCTYPE svg PUBLIC "-//W3C//DTD SVG 1.1//EN" "http://www.w3.org/Graphics/SVG/1.1/DTD/svg11.dtd">
<svg width="57.24609375" height="57.24609375" xmlns="http://www.w3.org/2000/svg" xmlns:xlink="http://www.w3.org/1999/xlink" xmlns:xml="http://www.w3.org/XML/1998/namespace" version="1.1">
  <g>
    <g>
      <path style="fill:#FF0000;fill-opacity:1" d="M22.119140625,10.83984375L22.6171875,10.83984375 23.291015625,11.689453125 23.291015625,11.923828125 23.26171875,12.421875 23.759765625,15.5859375 25.13671875,21.416015625 39.84375,17.63671875 41.7919921875,17.04345703125 42.83203125,16.435546875 43.388671875,16.201171875 44.091796875,16.435546875 45.3515625,17.35107421875 46.201171875,18.22265625 46.494140625,18.80859375 46.083984375,19.482421875 45.56396484375,20.0244159698486 45.05859375,20.947265625 41.69677734375,27.01904296875 37.998046875,31.93359375 37.44140625,32.197265625 36.796875,31.9921875 35.73486328125,31.56005859375 34.189453125,31.083984375 38.4228515625,26.0668964385986 41.748046875,20.21484375 25.986328125,24.345703125 29.208984375,36.474609375 29.4854717254639,37.470703125 30.0512676239014,39.462890625 30.9063701629639,42.451171875 32.05078125,46.435546875 32.138671875,46.904296875 31.669921875,47.34375 30.2563457489014,47.783203125 29.296875,47.98828125 28.9453125,48.076171875 28.564453125,47.578125 28.3959941864014,46.9134521484375 28.1249980926514,45.82763671875 27.7514629364014,44.3206787109375 27.275390625,42.392578125 26.6015605926514,39.76318359375 26.044921875,37.67578125 22.734375,25.25390625 18.603515625,26.396484375 14.47265625,27.6416015625 11.279296875,28.740234375 10.634765625,28.9453125 10.01953125,28.505859375 9.45556640625,27.29736328125 8.642578125,25.3125 9.97009181976318,25.0946063995361 11.9018545150757,24.7045917510986 14.4378652572632,24.1424579620361 17.578125,23.408203125 21.97265625,22.32421875 20.21484375,16.025390625 19.32861328125,13.271484375 18.369140625,11.162109375 20.478515625,10.92041015625 22.119140625,10.83984375z M28.623046875,1.9921875L25.081787109375,2.22107148170471 21.6650390625,2.90771770477295 18.372802734375,4.05212593078613 15.205078125,5.654296875 9.814453125,9.814453125 5.654296875,15.205078125 4.0521240234375,18.372802734375 2.90771484375,21.6650390625 2.2210693359375,25.081787109375 1.9921875,28.623046875 2.2210693359375,32.164306640625 2.90771484375,35.5810546875 4.0521240234375,38.873291015625 5.654296875,42.041015625 9.814453125,47.431640625 15.205078125,51.591796875 18.372802734375,53.1939697265625 21.6650390625,54.33837890625 25.081787109375,55.0250244140625 28.623046875,55.25390625 32.164306640625,55.0250244140625 35.5810546875,54.33837890625 38.873291015625,53.1939697265625 42.041015625,51.591796875 47.4316368103027,47.431640625 51.591796875,42.041015625 53.1939659118652,38.873291015625 54.3383750915527,35.5810546875 55.0250205993652,32.164306640625 55.25390625,28.623046875 55.0250205993652,25.081787109375 54.3383750915527,21.6650390625 53.1939659118652,18.372802734375 51.591796875,15.205078125 47.4316368103027,9.814453125 42.041015625,5.654296875 38.873291015625,4.05212593078613 35.5810546875,2.90771770477295 32.164306640625,2.22107148170471 28.623046875,1.9921875z M28.623046875,0L32.4371337890625,0.245363473892212 36.11572265625,0.981448173522949 39.6588134765625,2.20825409889221 43.06640625,3.92578101158142 48.8671836853027,8.37890625 53.3203125,14.1796875 55.0378379821777,17.5872802734375 56.2646446228027,21.13037109375 57.0007286071777,24.8089599609375 57.24609375,28.623046875 57.0007286071777,32.4371337890625 56.2646446228027,36.11572265625 55.0378379821777,39.6588134765625 53.3203125,43.06640625 48.8671836853027,48.8671875 43.06640625,53.3203125 39.6588134765625,55.037841796875 36.11572265625,56.2646484375 32.4371337890625,57.000732421875 28.623046875,57.24609375 24.8089599609375,57.000732421875 21.13037109375,56.2646484375 17.5872802734375,55.037841796875 14.1796875,53.3203125 8.37890625,48.8671875 3.92578125,43.06640625 2.208251953125,39.6588134765625 0.9814453125,36.11572265625 0.245361328125,32.4371337890625 0,28.623046875 0.245361328125,24.8089599609375 0.9814453125,21.13037109375 2.208251953125,17.5872802734375 3.92578125,14.1796875 8.37890625,8.37890625 14.1796875,3.92578101158142 17.5872802734375,2.20825409889221 21.13037109375,0.981448173522949 24.8089599609375,0.245363473892212 28.623046875,0z" />
    </g>
  </g>
</svg>