<?xml version="1.0" encoding="utf-8"?>
<!DOCTYPE svg PUBLIC "-//W3C//DTD SVG 1.1//EN" "http://www.w3.org/Graphics/SVG/1.1/DTD/svg11.dtd">
<svg width="57.24609375" height="57.24609375" xmlns="http://www.w3.org/2000/svg" xmlns:xlink="http://www.w3.org/1999/xlink" xmlns:xml="http://www.w3.org/XML/1998/namespace" version="1.1">
  <g>
    <g>
      <path style="fill:#FF0000;fill-opacity:1" d="M13.7109375,22.353515625L14.033203125,22.44140625 18.21533203125,24.2358417510986 22.32421875,26.630859375 22.705078125,27.275390625 22.55859375,27.71484375 21.240234375,29.765625 20.80078125,30.1171875 20.33203125,29.8828125 16.47216796875,27.3486347198486 11.689453125,25.13671875 12.6123037338257,23.6425800323486 13.271484375,22.67578125 13.7109375,22.353515625z M46.669921875,19.51171875L47.63671875,22.822265625 47.75390625,23.349609375 47.40234375,24.169921875 41.865234375,29.86083984375 35.15625,35.5078125 28.90869140625,39.83642578125 21.416015625,44.150390625 19.9072265625,45.09521484375 19.130859375,45.703125 18.486328125,46.025390625 17.8125,45.673828125 16.8310546875,44.42138671875 15.46875,42.421875 20.5078125,40.517578125 27.1215801239014,36.80419921875 33.310546875,32.51953125 37.24365234375,29.2895526885986 40.78125,26.0449237823486 43.92333984375,22.7856464385986 46.669921875,19.51171875z M19.306640625,11.66015625L19.6875,11.748046875 24.1918926239014,14.0625 27.919921875,16.728515625 28.212890625,17.197265625 27.978515625,17.6953125 27.1508769989014,18.9404296875 26.54296875,19.74609375 26.162109375,19.951171875 25.693359375,19.658203125 21.68701171875,16.67724609375 17.28515625,14.35546875 18.10546875,13.125 18.837890625,12.0703125 19.306640625,11.66015625z M28.623046875,1.9921875L25.081787109375,2.22107148170471 21.6650390625,2.90771770477295 18.372802734375,4.05212593078613 15.205078125,5.654296875 9.814453125,9.814453125 5.654296875,15.205078125 4.0521240234375,18.372802734375 2.90771484375,21.6650390625 2.2210693359375,25.081787109375 1.9921875,28.623046875 2.2210693359375,32.164306640625 2.90771484375,35.5810546875 4.0521240234375,38.873291015625 5.654296875,42.041015625 9.814453125,47.431640625 15.205078125,51.591796875 18.372802734375,53.1939697265625 21.6650390625,54.33837890625 25.081787109375,55.0250244140625 28.623046875,55.25390625 32.164306640625,55.0250244140625 35.5810546875,54.33837890625 38.873291015625,53.1939697265625 42.041015625,51.591796875 47.4316368103027,47.431640625 51.591796875,42.041015625 53.1939659118652,38.873291015625 54.3383750915527,35.5810546875 55.0250205993652,32.164306640625 55.25390625,28.623046875 55.0250205993652,25.081787109375 54.3383750915527,21.6650390625 53.1939659118652,18.372802734375 51.591796875,15.205078125 47.4316368103027,9.814453125 42.041015625,5.654296875 38.873291015625,4.05212593078613 35.5810546875,2.90771770477295 32.164306640625,2.22107148170471 28.623046875,1.9921875z M28.623046875,0L32.4371337890625,0.245363473892212 36.11572265625,0.981448173522949 39.6588134765625,2.20825409889221 43.06640625,3.92578101158142 48.8671836853027,8.37890625 53.3203125,14.1796875 55.0378379821777,17.5872802734375 56.2646446228027,21.13037109375 57.0007286071777,24.8089599609375 57.24609375,28.623046875 57.0007286071777,32.4371337890625 56.2646446228027,36.11572265625 55.0378379821777,39.6588134765625 53.3203125,43.06640625 48.8671836853027,48.8671875 43.06640625,53.3203125 39.6588134765625,55.037841796875 36.11572265625,56.2646484375 32.4371337890625,57.000732421875 28.623046875,57.24609375 24.8089599609375,57.000732421875 21.13037109375,56.2646484375 17.5872802734375,55.037841796875 14.1796875,53.3203125 8.37890625,48.8671875 3.92578125,43.06640625 2.208251953125,39.6588134765625 0.9814453125,36.11572265625 0.245361328125,32.4371337890625 0,28.623046875 0.245361328125,24.8089599609375 0.9814453125,21.13037109375 2.208251953125,17.5872802734375 3.92578125,14.1796875 8.37890625,8.37890625 14.1796875,3.92578101158142 17.5872802734375,2.20825409889221 21.13037109375,0.981448173522949 24.8089599609375,0.245363473892212 28.623046875,0z" />
    </g>
  </g>
</svg>