<?xml version="1.0" encoding="utf-8"?>
<!DOCTYPE svg PUBLIC "-//W3C//DTD SVG 1.1//EN" "http://www.w3.org/Graphics/SVG/1.1/DTD/svg11.dtd">
<svg width="32.841796875" height="37.03125" xmlns="http://www.w3.org/2000/svg" xmlns:xlink="http://www.w3.org/1999/xlink" xmlns:xml="http://www.w3.org/XML/1998/namespace" version="1.1">
  <g>
    <g>
      <path style="fill:#FF0000;fill-opacity:1" d="M20.771484375,0L23.1188945770264,0.260009765625 25.3564453125,1.0400390625 27.410888671875,2.310791015625 29.208984375,4.04296875 30.706787109375,6.21826314926147 31.8603515625,8.818359375 32.596435546875,11.8139667510986 32.841796875,15.17578125 32.841796875,18.955078125 32.54150390625,22.752685546875 31.640625,26.2353515625 30.18310546875,29.326171875 28.212890625,31.9482421875 25.7519512176514,34.075927734375 22.822265625,35.68359375 19.4677715301514,36.6943359375 15.732421875,37.03125 12.279052734375,36.73095703125 9.1845703125,35.830078125 6.48559617996216,34.354248046875 4.21875047683716,32.3291015625 2.40966773033142,29.761962890625 1.083984375,26.66015625 0.27099609375,23.04931640625 0,18.955078125 0,0.46875 4.98046922683716,0.46875 4.98046922683716,18.57421875 5.47851610183716,23.525390625 7.20703172683716,28.037109375 8.6572265625,29.8681640625 10.546875,31.318359375 12.92724609375,32.26318359375 15.849609375,32.578125 18.673095703125,32.310791015625 21.1083984375,31.5087890625 23.1628398895264,30.2490234375 24.84375,28.6083984375 27.0849609375,24.3603515625 27.83203125,19.248046875 27.83203125,15.05859375 27.275390625,10.8984375 25.6787109375,7.529296875 23.1884765625,5.2587890625 21.6540508270264,4.63256931304932 19.951171875,4.423828125 17.021484375,4.5263671875 14.23828125,4.892578125 14.853515625,0.556640625 17.5048828125,0.1611328125 20.771484375,0z" />
    </g>
  </g>
</svg>