<?xml version="1.0" encoding="utf-8"?>
<!DOCTYPE svg PUBLIC "-//W3C//DTD SVG 1.1//EN" "http://www.w3.org/Graphics/SVG/1.1/DTD/svg11.dtd">
<svg width="28.505859375" height="51.533203125" xmlns="http://www.w3.org/2000/svg" xmlns:xlink="http://www.w3.org/1999/xlink" xmlns:xml="http://www.w3.org/XML/1998/namespace" version="1.1">
  <g>
    <g>
      <path style="fill:#FF0000;fill-opacity:1" d="M10.4296865463257,0L14.915771484375,0.260009765625 18.7060546875,1.0400390625 21.8298320770264,2.376708984375 24.31640625,4.306640625 26.1950664520264,6.84082174301147 27.4951171875,9.990234375 28.2531719207764,13.79150390625 28.505859375,18.28125 28.505859375,51.533203125 23.49609375,51.533203125 23.49609375,18.1640625 23.3203105926514,14.674072265625 22.79296875,11.7626953125 21.8774394989014,9.38598823547363 20.537109375,7.5 18.75,6.08642721176147 16.494140625,5.126953125 13.7329092025757,4.57763767242432 10.4296865463257,4.39453125 9.02343654632568,4.453125 7.51464748382568,4.599609375 6.09374904632568,4.8046875 4.92187404632568,5.0390625 4.92187404632568,17.080078125 13.1249990463257,17.080078125 12.3925771713257,21.474609375 0,21.474609375 0,1.494140625 2.32910132408142,0.908203125 4.98046779632568,0.439453125 7.74902248382568,0.1171875 10.4296865463257,0z" />
    </g>
  </g>
</svg>