<?xml version="1.0" encoding="utf-8"?>
<!DOCTYPE svg PUBLIC "-//W3C//DTD SVG 1.1//EN" "http://www.w3.org/Graphics/SVG/1.1/DTD/svg11.dtd">
<svg width="35.44921875" height="42.01171875" xmlns="http://www.w3.org/2000/svg" xmlns:xlink="http://www.w3.org/1999/xlink" xmlns:xml="http://www.w3.org/XML/1998/namespace" version="1.1">
  <g>
    <g>
      <path style="fill:#FF0000;fill-opacity:1" d="M20.302734375,4.453125L20.302734375,10.1953125 20.5224609375,13.7841796875 21.298828125,16.494140625 22.822265625,18.193359375 25.283203125,18.779296875 27.7148418426514,18.28125 29.326171875,16.787109375 30.2270488739014,14.2895526885986 30.52734375,10.78125 30.3076171875,8.2177734375 29.853515625,6.2109375 29.208984375,4.453125 20.302734375,4.453125z M5.36132717132568,0L32.75390625,0 34.1015625,3.10546875 35.0244140625,6.533203125 35.44921875,10.78125 34.81201171875,16.0913105010986 32.900390625,20.009765625 31.4666748046875,21.419677734375 29.71435546875,22.4267578125 27.6434326171875,23.031005859375 25.25390625,23.232421875 22.855224609375,23.001708984375 20.8154296875,22.3095703125 19.1162109375,21.1962890625 17.7392578125,19.7021484375 15.9521484375,15.6005859375 15.380859375,10.1953125 15.380859375,4.453125 10.283203125,4.453125 10.283203125,42.01171875 5.36132717132568,42.01171875 5.36132717132568,23.232421875 0,23.232421875 0,18.779296875 5.36132717132568,18.779296875 5.36132717132568,0z" />
    </g>
  </g>
</svg>