<?xml version="1.0" encoding="utf-8"?>
<!DOCTYPE svg PUBLIC "-//W3C//DTD SVG 1.1//EN" "http://www.w3.org/Graphics/SVG/1.1/DTD/svg11.dtd">
<svg width="42.1875" height="30.703125" xmlns="http://www.w3.org/2000/svg" xmlns:xlink="http://www.w3.org/1999/xlink" xmlns:xml="http://www.w3.org/XML/1998/namespace" version="1.1">
  <g>
    <g>
      <path style="fill:#FF0000;fill-opacity:1" d="M30.087890625,20.5078125L28.8720703125,20.7568359375 27.861328125,21.4453125 27.1728515625,22.4560546875 26.923828125,23.671875 27.1728515625,24.8876953125 27.861328125,25.8984375 28.8720703125,26.5869140625 30.087890625,26.8359375 31.318359375,26.5869140625 32.34375,25.8984375 33.0322265625,24.8876953125 33.28125,23.671875 33.0322265625,22.4560546875 32.34375,21.4453125 31.318359375,20.7568359375 30.087890625,20.5078125z M12.099609375,20.5078125L10.8837890625,20.7568359375 9.873046875,21.4453125 9.1845703125,22.4560546875 8.935546875,23.671875 9.1845703125,24.8876953125 9.873046875,25.8984375 10.8837890625,26.5869140625 12.099609375,26.8359375 13.330078125,26.5869140625 14.35546875,25.8984375 15.0439453125,24.8876953125 15.29296875,23.671875 15.0439453125,22.4560546875 14.35546875,21.4453125 13.330078125,20.7568359375 12.099609375,20.5078125z M34.921875,3.955078125L33.75,4.248046875 32.783203125,4.9365234375 32.138671875,5.9326171875 31.904296875,7.119140625 32.1533203125,8.3349609375 32.841796875,9.345703125 33.8525390625,10.0341796875 35.068359375,10.283203125 36.298828125,10.0341796875 37.32421875,9.345703125 38.0126953125,8.3349609375 38.26171875,7.119140625 38.0126953125,5.9033203125 37.32421875,4.892578125 36.298828125,4.2041015625 35.068359375,3.955078125 34.921875,3.955078125z M7.119140625,3.955078125L5.9033203125,4.2041015625 4.892578125,4.892578125 4.2041015625,5.9033203125 3.955078125,7.119140625 4.2041015625,8.3349609375 4.892578125,9.345703125 5.9033203125,10.0341796875 7.119140625,10.283203125 8.349609375,10.0341796875 9.375,9.345703125 10.0634765625,8.3349609375 10.3125,7.119140625 10.0634765625,5.9033203125 9.375,4.892578125 8.349609375,4.2041015625 7.119140625,3.955078125z M7.119140625,0L35.068359375,0 37.822265625,0.556640625 40.078125,2.080078125 41.6162109375,4.3359375 42.1875,7.08984375 41.6162109375,9.84375 40.078125,12.0849609375 37.822265625,13.59375 35.068359375,14.150390625 32.2998046875,13.59375 30.029296875,12.0849609375 28.505859375,9.84375 27.94921875,7.08984375 28.681640625,3.955078125 23.49609375,3.955078125 23.49609375,11.015625 27.7734375,16.962890625 30.087890625,16.552734375 32.841796875,17.109375 35.09765625,18.6328125 36.6357421875,20.888671875 37.20703125,23.642578125 36.6357421875,26.396484375 35.09765625,28.6376953125 32.841796875,30.146484375 30.087890625,30.703125 27.3193359375,30.146484375 25.048828125,28.6376953125 23.525390625,26.396484375 22.96875,23.642578125 23.3203125,21.4306640625 24.31640625,19.51171875 21.181640625,14.8828125 21.005859375,14.8828125 17.841796875,19.482421875 18.8671875,21.416015625 19.21875,23.642578125 18.6474609375,26.396484375 17.109375,28.6376953125 14.853515625,30.146484375 12.099609375,30.703125 9.3310546875,30.146484375 7.060546875,28.6376953125 5.537109375,26.396484375 4.98046875,23.642578125 5.5517578125,20.888671875 7.08984375,18.6328125 9.345703125,17.109375 12.099609375,16.552734375 14.4140625,16.962890625 18.69140625,11.1328125 18.69140625,3.955078125 13.505859375,3.955078125 14.23828125,7.08984375 13.6669921875,9.84375 12.12890625,12.0849609375 9.873046875,13.59375 7.119140625,14.150390625 4.35058641433716,13.59375 2.080078125,12.0849609375 0.556640625,9.84375 0,7.08984375 0.5712890625,4.3359375 2.109375,2.080078125 4.365234375,0.556640625 7.119140625,0z" />
    </g>
  </g>
</svg>