<?xml version="1.0" encoding="utf-8"?>
<!DOCTYPE svg PUBLIC "-//W3C//DTD SVG 1.1//EN" "http://www.w3.org/Graphics/SVG/1.1/DTD/svg11.dtd">
<svg width="44.326171875" height="31.435546875" xmlns="http://www.w3.org/2000/svg" xmlns:xlink="http://www.w3.org/1999/xlink" xmlns:xml="http://www.w3.org/XML/1998/namespace" version="1.1">
  <g>
    <g>
      <path style="fill:#FF0000;fill-opacity:1" d="M7.03125,21.123046875L5.8154296875,21.3720703125 4.8046875,22.060546875 4.1162109375,23.0712890625 3.8671875,24.287109375 4.1162109375,25.5322265625 4.8046875,26.54296875 5.8154296875,27.2314453125 7.03125,27.48046875 8.2470703125,27.2314453125 9.2578125,26.54296875 9.9462890625,25.5322265625 10.1953125,24.287109375 9.931640625,23.0126953125 9.228515625,22.0166015625 8.2177734375,21.357421875 7.03125,21.123046875z M17.314453125,12.59765625L16.11328125,12.83203125 15.1171875,13.4912109375 14.4287109375,14.47265625 14.150390625,15.64453125 14.150390625,15.76171875 14.3994140625,17.0068359375 15.087890625,18.017578125 16.0986328125,18.7060546875 17.314453125,18.955078125 18.5302734375,18.7060546875 19.541015625,18.017578125 20.2294921875,17.0068359375 20.478515625,15.76171875 20.2294921875,14.5458984375 19.541015625,13.53515625 18.5302734375,12.8466796875 17.314453125,12.59765625z M7.03125,3.955078125L5.8154296875,4.2041015625 4.8046875,4.892578125 4.1162109375,5.9033203125 3.8671875,7.119140625 4.1162109375,8.3642578125 4.8046875,9.375 5.8154296875,10.0634765625 7.03125,10.3125 8.2470703125,10.0634765625 9.2578125,9.375 9.9462890625,8.3642578125 10.1953125,7.119140625 9.9462890625,5.9033203125 9.2578125,4.892578125 8.2470703125,4.2041015625 7.03125,3.955078125z M7.060546875,0L9.814453125,0.5712890625 12.0703125,2.109375 13.59375,4.365234375 14.150390625,7.119140625 14.150390625,9.404296875 15.6591796875,8.84765625 17.314453125,8.642578125 18.9697265625,8.84765625 20.478515625,9.404296875 20.804443359375,7.159423828125 21.5478515625,5.2294921875 24.0966796875,2.2998046875 27.8173828125,0.5712890625 32.40234375,0 37.1044921875,0.615234375 40.8837890625,2.4609375 43.4033203125,5.56640625 44.095458984375,7.6025390625 44.326171875,9.9609375 39.4921875,9.9609375 38.9501953125,7.3095703125 37.4560546875,5.4638671875 35.2001953125,4.39453125 32.373046875,4.04296875 29.5166015625,4.39453125 27.2607421875,5.4638671875 25.7666015625,7.3095703125 25.224609375,9.9609375 25.224609375,13.65234375 36.15234375,13.65234375 36.15234375,17.75390625 25.224609375,17.75390625 25.224609375,21.474609375 25.7666015625,24.140625 27.2607421875,25.9716796875 29.5166015625,27.041015625 32.373046875,27.392578125 35.2001953125,27.041015625 37.4560546875,25.9716796875 38.9501953125,24.140625 39.4921875,21.474609375 44.326171875,21.474609375 44.095458984375,23.8330078125 43.4033203125,25.869140625 40.8837890625,28.974609375 37.1044921875,30.8203125 32.40234375,31.435546875 27.8173828125,30.87890625 24.111328125,29.1650390625 21.5771484375,26.25 20.833740234375,24.33837890625 20.5078125,22.119140625 18.97705078125,22.6904296875 17.314453125,22.880859375 15.6591796875,22.6904296875 14.150390625,22.119140625 14.150390625,24.287109375 13.59375,27.041015625 12.0703125,29.296875 9.814453125,30.8349609375 7.060546875,31.40625 4.30664110183716,30.8349609375 2.0654296875,29.296875 0.556640625,27.041015625 0,24.287109375 0.556640625,21.5185546875 2.0654296875,19.248046875 4.30664110183716,17.724609375 7.060546875,17.16796875 10.1953125,17.900390625 10.1953125,13.505859375 7.060546875,14.23828125 4.30664110183716,13.6669921875 2.0654296875,12.12890625 0.556640625,9.873046875 0,7.119140625 0.556640625,4.3505859375 2.0654296875,2.080078125 4.30664110183716,0.556640625 7.060546875,0z" />
    </g>
  </g>
</svg>