<?xml version="1.0" encoding="utf-8"?>
<!DOCTYPE svg PUBLIC "-//W3C//DTD SVG 1.1//EN" "http://www.w3.org/Graphics/SVG/1.1/DTD/svg11.dtd">
<svg width="34.833984375" height="42.744140625" xmlns="http://www.w3.org/2000/svg" xmlns:xlink="http://www.w3.org/1999/xlink" xmlns:xml="http://www.w3.org/XML/1998/namespace" version="1.1">
  <g>
    <g>
      <path style="fill:#FF0000;fill-opacity:1" d="M17.40234375,26.77734375L15.2197265625,27.216796875 13.447265625,28.41796875 12.24609375,30.205078125 11.806640625,32.373046875 12.24609375,34.541015625 13.447265625,36.3134765625 15.2197265625,37.5 17.40234375,37.939453125 19.5556640625,37.5 21.328125,36.3134765625 22.529296875,34.541015625 22.96875,32.373046875 22.529296875,30.205078125 21.328125,28.41796875 19.5556640625,27.216796875 17.40234375,26.77734375z M18.134765625,13.623046875L15.205078125,21.884765625 28.623046875,21.884765625 28.0078125,19.51171875 27.451171875,16.8896484375 26.89453125,13.623046875 18.134765625,13.623046875z M7.939453125,13.623046875L7.3681640625,16.8896484375 6.796875,19.51171875 6.2109375,21.884765625 12.626953125,21.884765625 15.8203125,13.623046875 7.939453125,13.623046875z M3.80859351158142,0L8.73046875,0 8.671875,3.92578125 8.5107421875,7.646484375 8.203125,11.513671875 26.630859375,11.513671875 26.3232421875,7.646484375 26.162109375,3.92578125 26.103515625,0 31.025390625,0 31.11328125,4.658203125 31.201171875,6.73828125 31.3330078125,8.90625 31.494140625,11.044921875 31.728515625,13.0078125 32.05078125,15.0146484375 32.5048828125,17.197265625 33.017578125,19.423828125 33.544921875,21.533203125 34.833984375,26.337890625 25.8984375,26.337890625 27.3046875,29.1357421875 27.802734375,32.314453125 27.5976543426514,34.41650390625 26.982421875,36.38671875 24.7265625,39.697265625 21.38671875,41.923828125 19.423828125,42.5390625 17.34375,42.744140625 15.24169921875,42.5390625 13.271484375,41.923828125 9.9609375,39.697265625 7.734375,36.38671875 7.119140625,34.41650390625 6.9140625,32.314453125 7.3974609375,29.1357421875 8.7890625,26.337890625 0,26.337890625 1.28906226158142,21.533203125 1.81640648841858,19.423828125 2.31445288658142,17.197265625 2.75390601158142,15.0146484375 3.10546851158142,13.0078125 3.32519507408142,11.044921875 3.50097632408142,8.90625 3.63281226158142,6.73828125 3.72070288658142,4.658203125 3.80859351158142,0z" />
    </g>
  </g>
</svg>