<?xml version="1.0" encoding="utf-8"?>
<!DOCTYPE svg PUBLIC "-//W3C//DTD SVG 1.1//EN" "http://www.w3.org/Graphics/SVG/1.1/DTD/svg11.dtd">
<svg width="29.5312500000001" height="39.228515625" xmlns="http://www.w3.org/2000/svg" xmlns:xlink="http://www.w3.org/1999/xlink" xmlns:xml="http://www.w3.org/XML/1998/namespace" version="1.1">
  <g>
    <g>
      <path style="fill:#FF0000;fill-opacity:1" d="M14.94140625,21.03515625L13.7255859375,21.2841796875 12.71484375,21.97265625 12.01171875,22.9833984375 11.748046875,24.19921875 11.9970703125,25.4150390625 12.6708984375,26.42578125 13.681640625,27.1142578125 14.94140625,27.36328125 16.1572265625,27.1142578125 17.16796875,26.42578125 17.8564453125,25.4150390625 18.10546875,24.19921875 17.8564453125,22.9833984375 17.16796875,21.97265625 16.1572265625,21.2841796875 14.94140625,21.03515625z M9.931640625,5.2734375L7.734375,7.0751953125 6.1669921875,9.5361328125 5.2294921875,12.509765625 4.921875,15.87890625 5.23681592941284,19.149169921875 6.181640625,22.0458984375 7.75634765625,24.429931640625 9.9609375,26.162109375 9.580078125,24.169921875 10.0048828125,22.0751953125 11.162109375,20.3759765625 12.861328125,19.2333984375 14.94140625,18.80859375 17.0361328125,19.2333984375 18.75,20.3759765625 19.9072265625,22.0751953125 20.33203125,24.169921875 19.921875,26.19140625 21.9360332489014,24.54345703125 23.408203125,22.236328125 24.3090801239014,19.29931640625 24.609375,15.76171875 24.3164043426514,12.198486328125 23.4375,9.2431640625 21.9873027801514,6.92505025863647 19.98046875,5.2734375 20.33203125,7.177734375 19.892578125,9.2578125 18.720703125,10.95703125 17.0068359375,12.099609375 14.970703125,12.509765625 12.8759765625,12.099609375 11.162109375,10.95703125 10.0048828125,9.2578125 9.580078125,7.177734375 9.931640625,5.2734375z M14.94140625,4.04296875L13.681640625,4.306640625 12.6708984375,5.009765625 11.9970703125,6.0205078125 11.748046875,7.20703125 11.9970703125,8.4228515625 12.685546875,9.43359375 13.6962890625,10.1220703125 14.912109375,10.37109375 16.142578125,10.1220703125 17.16796875,9.43359375 17.8564453125,8.4228515625 18.10546875,7.20703125 17.8564453125,5.9912109375 17.16796875,4.98046875 16.1572265625,4.2919921875 14.94140625,4.04296875z M15.29296875,0L18.59619140625,0.285645961761475 21.474609375,1.142578125 23.9208965301514,2.51220846176147 25.927734375,4.3359375 27.4951152801514,6.59179830551147 28.623046875,9.2578125 29.30419921875,12.275390625 29.53125,15.5859375 29.337158203125,18.497314453125 28.7548828125,21.1962890625 26.513671875,25.810546875 22.8955078125,29.1796875 20.599365234375,30.322265625 18.017578125,31.0546875 17.4462890625,32.57080078125 17.255859375,33.896484375 17.46826171875,34.97314453125 18.10546875,35.7421875 19.16748046875,36.20361328125 20.654296875,36.357421875 20.654296875,39.228515625 18.1201171875,38.9208984375 15.87890625,37.9833984375 14.2822265625,36.3720703125 13.681640625,34.013671875 14.1796875,31.376953125 11.0192861557007,31.043701171875 8.2177734375,30.1611328125 5.79345655441284,28.7841796875 3.76464819908142,26.9677734375 2.14965796470642,24.744873046875 0.966796875,22.1484375 0.241699039936066,19.2333984375 0,16.0546875 0.256347447633743,12.59033203125 1.02539038658142,9.462890625 2.28515601158142,6.71631002426147 4.013671875,4.39453125 6.1962890625,2.52685689926147 8.818359375,1.142578125 11.8579092025757,0.285645961761475 15.29296875,0z" />
    </g>
  </g>
</svg>