<?xml version="1.0" encoding="utf-8"?>
<!DOCTYPE svg PUBLIC "-//W3C//DTD SVG 1.1//EN" "http://www.w3.org/Graphics/SVG/1.1/DTD/svg11.dtd">
<svg width="21.73828125" height="42.01171875" xmlns="http://www.w3.org/2000/svg" xmlns:xlink="http://www.w3.org/1999/xlink" xmlns:xml="http://www.w3.org/XML/1998/namespace" version="1.1">
  <g>
    <g>
      <path style="fill:#FF0000;fill-opacity:1" d="M4.921875,22.265625L4.921875,37.55859375 7.44140625,37.55859375 11.30859375,37.0458984375 14.1796875,35.5078125 15.95947265625,33.046875 16.552734375,29.765625 15.9832763671875,26.484375 14.27490234375,24.140625 11.4276123046875,22.734375 7.44140625,22.265625 4.921875,22.265625z M0,0L4.921875,0 4.921875,17.8125 8.49609375,17.8125 11.4569091796875,18.0020160675049 14.06982421875,18.5705585479736 16.3348388671875,19.5181293487549 18.251953125,20.8447265625 19.7772197723389,22.5210571289063 20.8666973114014,24.517822265625 21.5203838348389,26.8350219726563 21.73828125,29.47265625 21.5093975067139,32.2210693359375 20.8227519989014,34.66552734375 19.6783428192139,36.8060302734375 18.076171875,38.642578125 16.0784912109375,40.1165771484375 13.74755859375,41.16943359375 11.0833740234375,41.8011474609375 8.0859375,42.01171875 0,42.01171875 0,0z" />
    </g>
  </g>
</svg>