<?xml version="1.0" encoding="utf-8"?>
<!DOCTYPE svg PUBLIC "-//W3C//DTD SVG 1.1//EN" "http://www.w3.org/Graphics/SVG/1.1/DTD/svg11.dtd">
<svg width="24.84375" height="30" xmlns="http://www.w3.org/2000/svg" xmlns:xlink="http://www.w3.org/1999/xlink" xmlns:xml="http://www.w3.org/XML/1998/namespace" version="1.1">
  <g>
    <g>
      <path style="fill:#FF0000;fill-opacity:1" d="M8.759765625,23.818359375L6.796875,24.085693359375 5.302734375,24.8876953125 4.35790967941284,26.158447265625 4.04296875,27.83203125 13.4765625,27.83203125 13.095703125,26.1474609375 12.0849609375,24.8876953125 10.5908203125,24.0966796875 8.759765625,23.818359375z M8.759765625,10.341796875L6.9287109375,10.7080078125 5.419921875,11.71875 4.4091796875,13.2275390625 4.04296875,15.05859375 4.4091796875,16.875 5.419921875,18.369140625 6.9287109375,19.3798828125 8.759765625,19.74609375 10.5908203125,19.3798828125 12.099609375,18.3837890625 13.1103515625,16.8896484375 13.4765625,15.029296875 13.1103515625,13.212890625 12.099609375,11.71875 10.5908203125,10.7080078125 8.759765625,10.341796875z M4.04296875,2.16796875L4.423828125,3.8671875 5.4345703125,5.15625 6.9287109375,5.9765625 8.759765625,6.26953125 10.7226552963257,5.9912109375 12.216796875,5.15625 13.16162109375,3.85254049301147 13.4765625,2.16796875 4.04296875,2.16796875z M0,0L17.51953125,0 17.303466796875,2.70996236801147 16.6552734375,4.98046875 15.633544921875,6.826171875 14.296875,8.26171875 16.6552734375,11.2646484375 17.303466796875,13.099365234375 17.51953125,15.05859375 16.787109375,18.515625 16.81640625,18.515625 20.2587890625,19.0869140625 22.7783203125,20.7421875 24.31640625,23.349609375 24.84375,26.77734375 21.15234375,26.77734375 20.8154296875,24.90234375 19.86328125,23.3203125 18.4130859375,22.236328125 16.611328125,21.826171875 14.296875,21.826171875 15.76171875,23.250732421875 16.7578125,25.0634765625 17.3291015625,27.301025390625 17.51953125,30 0,30 0.216064453125,27.301025390625 0.8642578125,25.0634765625 1.885986328125,23.250732421875 3.22265625,21.826171875 0.8642578125,18.8232421875 0.216064453125,16.988525390625 0,15.029296875 0.216064453125,13.07373046875 0.8642578125,11.25 3.22265625,8.26171875 1.7578125,6.826171875 0.76171875,4.98046875 0.1904296875,2.70996236801147 0,0z" />
    </g>
  </g>
</svg>