<?xml version="1.0" encoding="utf-8"?>
<!DOCTYPE svg PUBLIC "-//W3C//DTD SVG 1.1//EN" "http://www.w3.org/Graphics/SVG/1.1/DTD/svg11.dtd">
<svg width="40.927734375" height="31.40625" xmlns="http://www.w3.org/2000/svg" xmlns:xlink="http://www.w3.org/1999/xlink" xmlns:xml="http://www.w3.org/XML/1998/namespace" version="1.1">
  <g>
    <g>
      <path style="fill:#FF0000;fill-opacity:1" d="M29.296875,17.607421875L29.296875,22.44140625 29.4140625,23.9208984375 29.8974609375,25.576171875 30.966796875,26.9384765625 32.8125,27.509765625 34.6728515625,26.9384765625 35.7275390625,25.576171875 36.1962890625,23.9208984375 36.298828125,22.44140625 36.181640625,21.1669921875 35.712890625,19.5703125 34.7314453125,18.193359375 33.076171875,17.607421875 29.296875,17.607421875z M4.89257764816284,17.607421875L5.3759765625,20.419921875 6.26953125,22.67578125 7.44140625,24.4189453125 8.73046875,25.693359375 12.099609375,27.5390625 15.439453125,25.693359375 16.7138671875,24.4189453125 17.87109375,22.67578125 18.779296875,20.419921875 19.27734375,17.607421875 4.89257764816284,17.607421875z M12.099609375,3.896484375L8.84765625,5.888671875 7.6025390625,7.1630859375 6.4306640625,8.818359375 5.4931640625,10.8984375 4.951171875,13.41796875 19.21875,13.41796875 18.662109375,10.8984375 17.75390625,8.818359375 16.5966796875,7.1630859375 15.3515625,5.888671875 12.099609375,3.896484375z M12.099609375,0L15.06591796875,1.09863424301147 17.75390625,2.63671875 19.892578125,4.4091796875 21.826171875,6.73828125 23.3203125,9.7265625 24.111328125,13.41796875 33.3984375,13.41796875 35.225830078125,13.619384765625 36.7822265625,14.2236328125 39.1259765625,16.318359375 40.48828125,19.21875 40.927734375,22.44140625 40.48828125,25.8544921875 39.08203125,28.7109375 36.5625,30.673828125 32.783203125,31.40625 30.4541015625,31.19384765625 28.623046875,30.556640625 26.162109375,28.388671875 24.9755859375,25.48828125 24.66796875,22.44140625 24.66796875,17.607421875 24.111328125,17.607421875 23.37890625,21.4453125 21.9287109375,24.5361328125 19.9951171875,26.9384765625 17.841796875,28.740234375 15.1318359375,30.31494140625 12.099609375,31.40625 8.88427734375,30.029296875 6.03515625,28.18359375 3.80859375,26.103515625 1.875,23.3642578125 0.512695074081421,19.921875 0,15.703125 0.512695074081421,11.513671875 1.875,8.0712890625 3.80859375,5.3466796875 6.03515625,3.251953125 8.88427734375,1.38427877426147 12.099609375,0z" />
    </g>
  </g>
</svg>