<?xml version="1.0" encoding="utf-8"?>
<!DOCTYPE svg PUBLIC "-//W3C//DTD SVG 1.1//EN" "http://www.w3.org/Graphics/SVG/1.1/DTD/svg11.dtd">
<svg width="30.673828125" height="30" xmlns="http://www.w3.org/2000/svg" xmlns:xlink="http://www.w3.org/1999/xlink" xmlns:xml="http://www.w3.org/XML/1998/namespace" version="1.1">
  <g>
    <g>
      <path style="fill:#FF0000;fill-opacity:1" d="M19.04296875,4.189453125L19.04296875,9.0234375 19.16015625,10.5029296875 19.6435546875,12.158203125 20.712890625,13.5205078125 22.55859375,14.091796875 24.4189453125,13.5205078125 25.4736328125,12.158203125 25.9423828125,10.5029296875 26.044921875,9.0234375 25.927734375,7.7490234375 25.458984375,6.15234375 24.4775390625,4.775390625 22.822265625,4.189453125 19.04296875,4.189453125z M5.361328125,0L23.14453125,0 24.9719219207764,0.201417446136475 26.5283203125,0.8056640625 28.8720703125,2.900390625 30.234375,5.80078125 30.673828125,9.0234375 30.234375,12.4365234375 28.828125,15.29296875 26.30859375,17.255859375 22.529296875,17.98828125 20.2001953125,17.77587890625 18.369140625,17.138671875 15.908203125,14.970703125 14.7216796875,12.0703125 14.4140625,9.0234375 14.4140625,4.189453125 10.283203125,4.189453125 10.283203125,30 5.361328125,30 5.361328125,18.544921875 0,18.544921875 0,14.091796875 5.361328125,14.091796875 5.361328125,0z" />
    </g>
  </g>
</svg>