<?xml version="1.0" encoding="UTF-8" standalone="no"?>
<!-- Created with Inkscape (http://www.inkscape.org/) -->

<svg
   xmlns:dc="http://purl.org/dc/elements/1.1/"
   xmlns:cc="http://creativecommons.org/ns#"
   xmlns:rdf="http://www.w3.org/1999/02/22-rdf-syntax-ns#"
   xmlns:svg="http://www.w3.org/2000/svg"
   xmlns="http://www.w3.org/2000/svg"
   xmlns:sodipodi="http://sodipodi.sourceforge.net/DTD/sodipodi-0.dtd"
   xmlns:inkscape="http://www.inkscape.org/namespaces/inkscape"
   version="1.1"
   id="svg2"
   width="20"
   height="30"
   viewBox="0 0 20 30"
   sodipodi:docname="Amulet.svg"
   inkscape:version="0.92.4 (5da689c313, 2019-01-14)">
  <metadata
     id="metadata8">
    <rdf:RDF>
      <cc:Work
         rdf:about="">
        <dc:format>image/svg+xml</dc:format>
        <dc:type
           rdf:resource="http://purl.org/dc/dcmitype/StillImage" />
        <dc:title></dc:title>
      </cc:Work>
    </rdf:RDF>
  </metadata>
  <defs
     id="defs6" />
  <sodipodi:namedview
     pagecolor="#ffffff"
     bordercolor="#666666"
     borderopacity="1"
     objecttolerance="10"
     gridtolerance="10"
     guidetolerance="10"
     inkscape:pageopacity="0"
     inkscape:pageshadow="2"
     inkscape:window-width="1920"
     inkscape:window-height="1001"
     id="namedview4"
     showgrid="false"
     inkscape:zoom="31.466667"
     inkscape:cx="3.9644164"
     inkscape:cy="16.253952"
     inkscape:window-x="-9"
     inkscape:window-y="-9"
     inkscape:window-maximized="1"
     inkscape:current-layer="svg2" />
  <g
     id="g50"
     transform="scale(2)">
    <path
       style="fill:#000000;fill-opacity:0"
       d="M 0,0.5 V 0 H 0.5 1 1.5 2 L 1.875,0.375 Q 1.75,0.75 1.5,1 1.25,1.25 1,1.5 0.75,1.75 0.375,1.875 L 0,2 V 1.5 1 0.5"
       id="path32"
       inkscape:connector-curvature="0" />
    <path
       style="fill:#ffd800;fill-opacity:1"
       d="M 1.875,0.375 2,0 H 2.5 3 L 2.875,0.375 Q 2.75,0.75 2.5,1 2.25,1.25 2,1.5 1.75,1.75 1.5,2 1.25,2.25 1.125,2.625 1,3 1.125,3.375 1.25,3.75 1.5,4 1.75,4.25 2,4.5 2.25,4.75 2.5,5 2.75,5.25 3,5.5 3.25,5.75 3.625,5.875 4,6 4.5,6 5,6 5.375,6.125 5.75,6.25 6,6.5 6.25,6.75 6.5,7 6.75,7.25 6.75,7.5 6.75,7.75 6.5,8 6.25,8.25 6.125,8.625 6,9 6.125,9.375 6.25,9.75 6.5,9.75 6.75,9.75 7,9.5 7.25,9.25 7.5,9 7.75,8.75 7.875,8.375 8,8 8,7.5 8,7 8,6.5 8,6 8.125,5.625 8.25,5.25 8.5,5 8.75,4.75 8.875,4.375 9,4 9,3.5 9,3 8.875,2.625 8.75,2.25 8.5,2 8.25,1.75 8,1.5 7.75,1.25 7.5,1 7.25,0.75 7.125,0.375 L 7,0 H 7.5 8 L 8.125,0.375 Q 8.25,0.75 8.5,1 8.75,1.25 9,1.5 9.25,1.75 9.625,1.875 L 10,2 V 2.5 3 3.5 4 4.5 5 L 9.625,5.125 Q 9.25,5.25 9.125,5.625 9,6 9,6.5 9,7 9,7.5 9,8 9,8.5 9,9 8.875,9.375 8.75,9.75 8.375,9.875 8,10 7.625,10.125 7.25,10.25 7.125,10.625 7,11 6.875,11.375 6.75,11.75 6.5,12 6.25,12.25 6,12.5 5.75,12.75 5.5,13 5.25,13.25 5,13.5 4.75,13.75 4.5,14 4.25,14.25 4.125,14.625 L 4,15 H 3.5 3 2.5 2 L 1.875,14.625 Q 1.75,14.25 1.5,14 1.25,13.75 1.125,13.375 1,13 1.125,12.625 1.25,12.25 1.5,12 1.75,11.75 2,11.5 2.25,11.25 2.5,11 2.75,10.75 3,10.5 3.25,10.25 3.5,10 3.75,9.75 4,9.5 4.25,9.25 4.5,9 4.75,8.75 5,8.5 5.25,8.25 5.5,8 5.75,7.75 5.75,7.5 5.75,7.25 5.375,7.125 5,7 4.5,7 4,7 3.625,6.875 3.25,6.75 3,6.5 2.75,6.25 2.5,6 2.25,5.75 2,5.5 1.75,5.25 1.5,5 1.25,4.75 1,4.5 0.75,4.25 0.375,4.125 L 0,4 V 3.5 3 2.5 2 L 0.375,1.875 Q 0.75,1.75 1,1.5 1.25,1.25 1.5,1 1.75,0.75 1.875,0.375 M 3,13.5 q 0.25,0.25 0.5,0.25 0.25,0 0.375,-0.40625 L 4,12.9375 H 3.90625 3.8125 4 q 0.1875,0 0.375,-0.0625 L 4.5625,12.8125 4.28125,12.90625 4,13 4.375,12.875 q 0.375,-0.125 0.5,-0.5 L 5,12 4.90625,12.28125 4.8125,12.5625 4.875,12.375 Q 4.9375,12.1875 4.9375,12 V 11.8125 11.90625 12 L 5.34375,11.875 Q 5.75,11.75 5.75,11.5 5.75,11.25 5.5,11 5.25,10.75 5,10.5 4.75,10.25 4.5,10.25 q -0.25,0 -0.375,0.40625 L 4,11.0625 H 4.09375 4.1875 4 q -0.1875,0 -0.375,0.0625 L 3.4375,11.1875 3.71875,11.09375 4,11 3.625,11.125 q -0.375,0.125 -0.5,0.5 L 3,12 3.09375,11.71875 3.1875,11.4375 3.125,11.625 Q 3.0625,11.8125 3.0625,12 V 12.1875 12.09375 12 L 2.65625,12.125 Q 2.25,12.25 2.25,12.5 q 0,0.25 0.25,0.5 0.25,0.25 0.5,0.5"
       id="path34"
       inkscape:connector-curvature="0" />
    <path
       style="fill:#000000;fill-opacity:0"
       d="M 2.875,0.375 3,0 H 3.5 4 4.5 5 5.5 6 6.5 7 L 7.125,0.375 Q 7.25,0.75 7.5,1 7.75,1.25 8,1.5 8.25,1.75 8.5,2 8.75,2.25 8.875,2.625 9,3 9,3.5 9,4 8.875,4.375 8.75,4.75 8.5,5 8.25,5.25 8.125,5.625 8,6 8,6.5 8,7 8,7.5 8,8 7.875,8.375 7.75,8.75 7.5,9 7.25,9.25 7,9.5 6.75,9.75 6.5,9.75 6.25,9.75 6.125,9.375 6,9 6.125,8.625 6.25,8.25 6.5,8 6.75,7.75 6.75,7.5 6.75,7.25 6.5,7 6.25,6.75 6,6.5 5.75,6.25 5.375,6.125 5,6 4.5,6 4,6 3.625,5.875 3.25,5.75 3,5.5 2.75,5.25 2.5,5 2.25,4.75 2,4.5 1.75,4.25 1.5,4 1.25,3.75 1.125,3.375 1,3 1.125,2.625 1.25,2.25 1.5,2 1.75,1.75 2,1.5 2.25,1.25 2.5,1 2.75,0.75 2.875,0.375"
       id="path36"
       inkscape:connector-curvature="0" />
    <path
       style="fill:#000000;fill-opacity:0"
       d="M 8.125,0.375 8,0 H 8.5 9 9.5 10 V 0.5 1 1.5 2 L 9.625,1.875 Q 9.25,1.75 9,1.5 8.75,1.25 8.5,1 8.25,0.75 8.125,0.375"
       id="path38"
       inkscape:connector-curvature="0" />
    <path
       style="fill:#000000;fill-opacity:0"
       d="M 0,4.5 V 4 L 0.375,4.125 Q 0.75,4.25 1,4.5 1.25,4.75 1.5,5 1.75,5.25 2,5.5 2.25,5.75 2.5,6 2.75,6.25 3,6.5 3.25,6.75 3.625,6.875 4,7 4.5,7 5,7 5.375,7.125 5.75,7.25 5.75,7.5 5.75,7.75 5.5,8 5.25,8.25 5,8.5 4.75,8.75 4.5,9 4.25,9.25 4,9.5 3.75,9.75 3.5,10 3.25,10.25 3,10.5 2.75,10.75 2.5,11 2.25,11.25 2,11.5 1.75,11.75 1.5,12 1.25,12.25 1.125,12.625 1,13 1.125,13.375 1.25,13.75 1.5,14 1.75,14.25 1.875,14.625 L 2,15 H 1.5 1 0.5 0 V 14.5 14 13.5 13 12.5 12 11.5 11 10.5 10 9.5 9 8.5 8 7.5 7 6.5 6 5.5 5 4.5"
       id="path40"
       inkscape:connector-curvature="0" />
    <path
       style="fill:#000000;fill-opacity:0"
       d="M 9.125,5.625 Q 9.25,5.25 9.625,5.125 L 10,5 V 5.5 6 6.5 7 7.5 8 8.5 9 9.5 10 10.5 11 11.5 12 12.5 13 13.5 14 14.5 15 H 9.5 9 8.5 8 7.5 7 6.5 6 5.5 5 4.5 4 L 4.125,14.625 Q 4.25,14.25 4.5,14 4.75,13.75 5,13.5 5.25,13.25 5.5,13 5.75,12.75 6,12.5 6.25,12.25 6.5,12 6.75,11.75 6.875,11.375 7,11 7.125,10.625 7.25,10.25 7.625,10.125 8,10 8.375,9.875 8.75,9.75 8.875,9.375 9,9 9,8.5 9,8 9,7.5 9,7 9,6.5 9,6 9.125,5.625"
       id="path42"
       inkscape:connector-curvature="0" />
    <path
       style="fill:#ff706d;fill-opacity:1"
       d="M 4.125,10.65625 Q 4.25,10.25 4.5,10.25 q 0.25,0 0.5,0.25 0.25,0.25 0.5,0.5 0.25,0.25 0.25,0.5 0,0.25 -0.40625,0.375 L 4.9375,12 V 12.09375 12.1875 12 q 0,-0.1875 -0.0625,-0.375 L 4.8125,11.4375 4.90625,11.71875 5,12 4.875,11.625 Q 4.75,11.25 4.375,11.125 L 4,11 4.28125,11.09375 4.5625,11.1875 4.375,11.125 Q 4.1875,11.0625 4,11.0625 H 3.8125 3.90625 4 l 0.125,-0.40625"
       id="path44"
       inkscape:connector-curvature="0" />
    <path
       style="fill:#ff0000;fill-opacity:1"
       d="m 3.125,11.625 q 0.125,-0.375 0.5,-0.5 0.375,-0.125 0.75,0 0.375,0.125 0.5,0.5 0.125,0.375 0,0.75 -0.125,0.375 -0.5,0.5 Q 4,13 3.625,12.875 3.25,12.75 3.125,12.375 3,12 3.125,11.625"
       id="path46"
       inkscape:connector-curvature="0" />
    <path
       style="fill:#ff706d;fill-opacity:1"
       d="m 2.25,12.5 q 0,-0.25 0.40625,-0.375 L 3.0625,12 V 11.90625 11.8125 12 q 0,0.1875 0.0625,0.375 L 3.1875,12.5625 3.09375,12.28125 3,12 3.125,12.375 q 0.125,0.375 0.5,0.5 L 4,13 3.71875,12.90625 3.4375,12.8125 3.625,12.875 Q 3.8125,12.9375 4,12.9375 H 4.1875 4.09375 4 L 3.875,13.34375 Q 3.75,13.75 3.5,13.75 3.25,13.75 3,13.5 2.75,13.25 2.5,13 2.25,12.75 2.25,12.5"
       id="path48"
       inkscape:connector-curvature="0" />
  </g>
</svg>
