<?xml version="1.0" encoding="UTF-8" standalone="no"?>
<!-- Created with Inkscape (http://www.inkscape.org/) -->

<svg
   xmlns:dc="http://purl.org/dc/elements/1.1/"
   xmlns:cc="http://creativecommons.org/ns#"
   xmlns:rdf="http://www.w3.org/1999/02/22-rdf-syntax-ns#"
   xmlns:svg="http://www.w3.org/2000/svg"
   xmlns="http://www.w3.org/2000/svg"
   xmlns:sodipodi="http://sodipodi.sourceforge.net/DTD/sodipodi-0.dtd"
   xmlns:inkscape="http://www.inkscape.org/namespaces/inkscape"
   version="1.1"
   id="svg2"
   width="20"
   height="30"
   viewBox="0 0 20 30"
   sodipodi:docname="Diamond.svg"
   inkscape:version="0.92.4 (5da689c313, 2019-01-14)">
  <metadata
     id="metadata8">
    <rdf:RDF>
      <cc:Work
         rdf:about="">
        <dc:format>image/svg+xml</dc:format>
        <dc:type
           rdf:resource="http://purl.org/dc/dcmitype/StillImage" />
        <dc:title></dc:title>
      </cc:Work>
    </rdf:RDF>
  </metadata>
  <defs
     id="defs6" />
  <sodipodi:namedview
     pagecolor="#ffffff"
     bordercolor="#666666"
     borderopacity="1"
     objecttolerance="10"
     gridtolerance="10"
     guidetolerance="10"
     inkscape:pageopacity="0"
     inkscape:pageshadow="2"
     inkscape:window-width="1920"
     inkscape:window-height="1001"
     id="namedview4"
     showgrid="false"
     inkscape:zoom="15.733333"
     inkscape:cx="5"
     inkscape:cy="7.5"
     inkscape:window-x="-9"
     inkscape:window-y="-9"
     inkscape:window-maximized="1"
     inkscape:current-layer="svg2" />
  <g
     id="g20"
     transform="scale(2)">
    <path
       style="fill:#000000;fill-opacity:0"
       d="M 0,0.5 V 0 H 0.5 1 1.5 2 2.5 3 3.5 4 4.5 5 5.5 6 6.5 7 7.5 8 8.5 9 9.5 10 V 0.5 1 1.5 2 2.5 3 3.5 4 4.5 5 5.5 6 6.5 7 7.5 8 8.5 9 9.5 10 10.5 11 11.5 12 12.5 13 13.5 14 14.5 15 H 9.5 9 8.5 8 7.5 7 6.5 6 5.5 5 4.5 4 3.5 3 2.5 2 1.5 1 0.5 0 V 14.5 14 13.5 13 12.5 12 11.5 11 10.5 10 9.5 9 8.5 8 7.5 7 6.5 6 5.5 5 4.5 4 3.5 3 2.5 2 1.5 1 0.5 M 4.625,11.875 Q 5,12 5.375,11.875 5.75,11.75 6,11.5 6.25,11.25 6.5,11 6.75,10.75 7,10.5 7.25,10.25 7.5,10 7.75,9.75 8,9.5 8.25,9.25 8.5,9 8.75,8.75 8.875,8.375 9,8 9,7.5 9,7 8.875,6.625 8.75,6.25 8.5,6 8.25,5.75 8,5.5 7.75,5.25 7.5,5 7.25,4.75 7,4.5 6.75,4.25 6.5,4 6.25,3.75 6,3.5 5.75,3.25 5.375,3.125 5,3 4.625,3.125 4.25,3.25 4,3.5 3.75,3.75 3.5,4 3.25,4.25 3,4.5 2.75,4.75 2.5,5 2.25,5.25 2,5.5 1.75,5.75 1.5,6 1.25,6.25 1.125,6.625 1,7 1,7.5 1,8 1.125,8.375 1.25,8.75 1.5,9 1.75,9.25 2,9.5 2.25,9.75 2.5,10 q 0.25,0.25 0.5,0.5 0.25,0.25 0.5,0.5 0.25,0.25 0.5,0.5 0.25,0.25 0.625,0.375"
       id="path12"
       inkscape:connector-curvature="0" />
    <path
       style="fill:#ff0000;fill-opacity:0.76078431"
       d="M 4,3.5 Q 4.25,3.25 4.625,3.125 5,3 5.375,3.125 5.75,3.25 6,3.5 6.25,3.75 6.5,4 6.75,4.25 7,4.5 7.25,4.75 7.5,5 7.75,5.25 8,5.5 8.25,5.75 8.5,6 8.75,6.25 8.875,6.625 9,7 9,7.5 9,8 8.875,8.375 8.75,8.75 8.5,9 8.25,9.25 8,9.5 7.75,9.75 7.5,10 7.25,10.25 7,10.5 6.75,10.75 6.5,11 6.25,11.25 6,11.5 5.75,11.75 5.375,11.875 5,12 4.625,11.875 4.25,11.75 4,11.5 3.75,11.25 3.5,11 3.25,10.75 3,10.5 2.75,10.25 2.5,10 2.25,9.75 2,9.5 1.75,9.25 1.5,9 1.25,8.75 1.125,8.375 1,8 1,7.5 1,7 1.125,6.625 1.25,6.25 1.5,6 1.75,5.75 2,5.5 2.25,5.25 2.5,5 2.75,4.75 3,4.5 3.25,4.25 3.5,4 3.75,3.75 4,3.5 m 0.625,7.375 Q 5,11 5.375,10.875 5.75,10.75 6,10.5 6.25,10.25 6.5,10 6.75,9.75 7,9.5 7.25,9.25 7.5,9 7.75,8.75 7.875,8.375 8,8 8,7.5 8,7 7.875,6.625 7.75,6.25 7.5,6 7.25,5.75 7,5.5 6.75,5.25 6.5,5 6.25,4.75 6,4.5 5.75,4.25 5.375,4.125 5,4 4.625,4.125 4.25,4.25 4,4.5 3.75,4.75 3.5,5 3.25,5.25 3,5.5 2.75,5.75 2.5,6 2.25,6.25 2.125,6.625 2,7 2,7.5 2,8 2.125,8.375 2.25,8.75 2.5,9 2.75,9.25 3,9.5 3.25,9.75 3.5,10 q 0.25,0.25 0.5,0.5 0.25,0.25 0.625,0.375"
       id="path14"
       inkscape:connector-curvature="0" />
    <path
       style="fill:#ff0000;fill-opacity:1"
       d="M 4,4.5 Q 4.25,4.25 4.625,4.125 5,4 5.375,4.125 5.75,4.25 6,4.5 6.25,4.75 6.5,5 6.75,5.25 7,5.5 7.25,5.75 7.5,6 7.75,6.25 7.875,6.625 8,7 8,7.5 8,8 7.875,8.375 7.75,8.75 7.5,9 7.25,9.25 7,9.5 6.75,9.75 6.5,10 6.25,10.25 6,10.5 5.75,10.75 5.375,10.875 5,11 4.625,10.875 4.25,10.75 4,10.5 3.75,10.25 3.5,10 3.25,9.75 3,9.5 2.75,9.25 2.5,9 2.25,8.75 2.125,8.375 2,8 2,7.5 2,7 2.125,6.625 2.25,6.25 2.5,6 2.75,5.75 3,5.5 3.25,5.25 3.5,5 3.75,4.75 4,4.5 M 4.625,9.875 Q 5,10 5.375,9.875 5.75,9.75 6,9.5 6.25,9.25 6.5,9 6.75,8.75 6.875,8.375 7,8 7,7.5 7,7 6.875,6.625 6.75,6.25 6.5,6 6.25,5.75 6,5.5 5.75,5.25 5.375,5.125 5,5 4.625,5.125 4.25,5.25 4,5.5 3.75,5.75 3.5,6 3.25,6.25 3.125,6.625 3,7 3,7.5 3,8 3.125,8.375 3.25,8.75 3.5,9 3.75,9.25 4,9.5 4.25,9.75 4.625,9.875"
       id="path16"
       inkscape:connector-curvature="0" />
    <path
       style="fill:#d80000;fill-opacity:1"
       d="M 4,5.5 Q 4.25,5.25 4.625,5.125 5,5 5.375,5.125 5.75,5.25 6,5.5 6.25,5.75 6.5,6 6.75,6.25 6.875,6.625 7,7 7,7.5 7,8 6.875,8.375 6.75,8.75 6.5,9 6.25,9.25 6,9.5 5.75,9.75 5.375,9.875 5,10 4.625,9.875 4.25,9.75 4,9.5 3.75,9.25 3.5,9 3.25,8.75 3.125,8.375 3,8 3,7.5 3,7 3.125,6.625 3.25,6.25 3.5,6 3.75,5.75 4,5.5"
       id="path18"
       inkscape:connector-curvature="0" />
  </g>
</svg>
