<?xml version="1.0" encoding="UTF-8" standalone="no"?>
<!-- Created with Inkscape (http://www.inkscape.org/) -->

<svg
   xmlns:dc="http://purl.org/dc/elements/1.1/"
   xmlns:cc="http://creativecommons.org/ns#"
   xmlns:rdf="http://www.w3.org/1999/02/22-rdf-syntax-ns#"
   xmlns:svg="http://www.w3.org/2000/svg"
   xmlns="http://www.w3.org/2000/svg"
   xmlns:sodipodi="http://sodipodi.sourceforge.net/DTD/sodipodi-0.dtd"
   xmlns:inkscape="http://www.inkscape.org/namespaces/inkscape"
   version="1.1"
   id="svg2"
   width="20"
   height="30"
   viewBox="0 0 20 30"
   sodipodi:docname="EmptyVial.svg"
   inkscape:version="0.92.4 (5da689c313, 2019-01-14)">
  <metadata
     id="metadata8">
    <rdf:RDF>
      <cc:Work
         rdf:about="">
        <dc:format>image/svg+xml</dc:format>
        <dc:type
           rdf:resource="http://purl.org/dc/dcmitype/StillImage" />
        <dc:title></dc:title>
      </cc:Work>
    </rdf:RDF>
  </metadata>
  <defs
     id="defs6" />
  <sodipodi:namedview
     pagecolor="#ffffff"
     bordercolor="#666666"
     borderopacity="1"
     objecttolerance="10"
     gridtolerance="10"
     guidetolerance="10"
     inkscape:pageopacity="0"
     inkscape:pageshadow="2"
     inkscape:window-width="1920"
     inkscape:window-height="1001"
     id="namedview4"
     showgrid="false"
     inkscape:zoom="15.733333"
     inkscape:cx="-4.8516951"
     inkscape:cy="7.5"
     inkscape:window-x="-9"
     inkscape:window-y="-9"
     inkscape:window-maximized="1"
     inkscape:current-layer="svg2" />
  <g
     id="g2327">
    <path
       style="fill:#000000;fill-opacity:0;stroke-width:2"
       d="M 0,1 V 0 H 1 2 3 4 5 6 V 1 Q 6,2 6.125,3.125 L 6.25,4.25 6.375,4.125 6.5,4 6.25,4.25 Q 6,4.5 6,5 V 5.5 4.75 4 5 q 0,1 0,2 0,1 0,2 0,1 0,2 0,1 0,2 0,1 0,2 0,1 0,2 0,1 0,2 0,1 0,2 0,1 0,2 0,1 0,2 0,1 0,2 0,1 0,2 v 1 H 5 4 3 2 1 0 V 29 28 27 26 25 24 23 22 21 20 19 18 17 16 15 14 13 12 11 10 9 8 7 6 5 4 3 2 1"
       id="path12"
       inkscape:connector-curvature="0" />
    <path
       style="fill:#7f0037;fill-opacity:1;stroke-width:2"
       d="M 6,1 V 0 h 1 1 1 1 1 1 1 1 v 1 q 0,1 -0.125,2.125 L 13.75,4.25 13.875,4.375 14,4.5 13.75,4.25 Q 13.5,4 13,4 H 12.5 13.25 14 13 12 12.75 13.5 13 Q 12.5,4 12.25,4.25 L 12,4.5 12.125,4.375 12.25,4.25 11.125,4.125 Q 10,4 8.875,4.125 L 7.75,4.25 7.875,4.375 8,4.5 7.75,4.25 Q 7.5,4 7,4 H 6.5 7.25 8 7 6 6.75 7.5 7 Q 6.5,4 6.25,4.25 L 6,4.5 6.125,4.375 6.25,4.25 6.125,3.125 Q 6,2 6,1"
       id="path14"
       inkscape:connector-curvature="0" />
    <path
       style="fill:#000000;fill-opacity:0;stroke-width:2"
       d="M 14,1 V 0 h 1 1 1 1 1 1 v 1 1 1 1 1 1 1 1 1 1 1 1 1 1 1 1 1 1 1 1 1 1 1 1 1 1 1 1 1 1 h -1 -1 -1 -1 -1 -1 v -1 q 0,-1 0,-2 0,-1 0,-2 0,-1 0,-2 0,-1 0,-2 0,-1 0,-2 0,-1 0,-2 0,-1 0,-2 0,-1 0,-2 0,-1 0,-2 0,-1 0,-2 0,-1 0,-2 0,-1 0,-2 V 4 4.75 5.5 5 Q 14,4.5 13.75,4.25 L 13.5,4 13.625,4.125 13.75,4.25 13.875,3.125 Q 14,2 14,1"
       id="path16"
       inkscape:connector-curvature="0" />
    <path
       style="fill:#ff0000;fill-opacity:1;stroke-width:2"
       d="m 6,5 q 0,-1 1,-1 1,0 1,1 0,1 0,2 0,1 0,2 0,1 0,2 0,1 0,2 0,1 0,2 0,1 0,2 0,1 0,2 0,1 0,2 0,1 0,2 0,1 0,2 0,1 0.25,1.75 0.25,0.75 1,1 0.75,0.25 1.5,0 0.75,-0.25 1,-1 Q 12,26 12,25 q 0,-1 0,-2 0,-1 0,-2 0,-1 0,-2 0,-1 0,-2 0,-1 0,-2 0,-1 0,-2 0,-1 0,-2 0,-1 0,-2 0,-1 0,-2 0,-1 0,-2 0,-1 1,-1 1,0 1,1 0,1 0,2 0,1 0,2 0,1 0,2 0,1 0,2 0,1 0,2 0,1 0,2 0,1 0,2 0,1 0,2 0,1 0,2 0,1 0,2 0,1 0,2 0,1 0,2 v 1 H 13 12 11 10 9 8 7 6 V 29 Q 6,28 6,27 6,26 6,25 6,24 6,23 6,22 6,21 6,20 6,19 6,18 6,17 6,16 6,15 6,14 6,13 6,12 6,11 6,10 6,9 6,8 6,7 6,6 6,5"
       id="path18"
       inkscape:connector-curvature="0" />
    <path
       style="fill:#000000;fill-opacity:0;stroke-width:2"
       d="M 8,5 V 4 4.75 5.5 5 Q 8,4.5 7.75,4.25 L 7.5,4 7.625,4.125 7.75,4.25 8.875,4.125 Q 10,4 11.125,4.125 L 12.25,4.25 12.375,4.125 12.5,4 12.25,4.25 Q 12,4.5 12,5 V 5.5 4.75 4 5 q 0,1 0,2 V 8 H 11 Q 10,8 9,8 H 8 V 7 Q 8,6 8,5 M 8,7.25 V 8 8.25 8.5 8 Q 8,7.5 8,7 V 6.5 7.25 m 4,1 V 8 7.25 6.5 7 q 0,0.5 0,1 V 8.5 8.25"
       id="path20"
       inkscape:connector-curvature="0" />
  </g>
</svg>
