<?xml version="1.0" encoding="UTF-8" standalone="no"?>
<!-- Created with Inkscape (http://www.inkscape.org/) -->

<svg
   xmlns:dc="http://purl.org/dc/elements/1.1/"
   xmlns:cc="http://creativecommons.org/ns#"
   xmlns:rdf="http://www.w3.org/1999/02/22-rdf-syntax-ns#"
   xmlns:svg="http://www.w3.org/2000/svg"
   xmlns="http://www.w3.org/2000/svg"
   xmlns:sodipodi="http://sodipodi.sourceforge.net/DTD/sodipodi-0.dtd"
   xmlns:inkscape="http://www.inkscape.org/namespaces/inkscape"
   version="1.1"
   id="svg2"
   width="20"
   height="30"
   viewBox="0 0 20 30"
   sodipodi:docname="Gadget.svg"
   inkscape:version="0.92.4 (5da689c313, 2019-01-14)">
  <metadata
     id="metadata8">
    <rdf:RDF>
      <cc:Work
         rdf:about="">
        <dc:format>image/svg+xml</dc:format>
        <dc:type
           rdf:resource="http://purl.org/dc/dcmitype/StillImage" />
        <dc:title></dc:title>
      </cc:Work>
    </rdf:RDF>
  </metadata>
  <defs
     id="defs6" />
  <sodipodi:namedview
     pagecolor="#ffffff"
     bordercolor="#666666"
     borderopacity="1"
     objecttolerance="10"
     gridtolerance="10"
     guidetolerance="10"
     inkscape:pageopacity="0"
     inkscape:pageshadow="2"
     inkscape:window-width="1920"
     inkscape:window-height="1001"
     id="namedview4"
     showgrid="false"
     inkscape:zoom="15.733333"
     inkscape:cx="5"
     inkscape:cy="7.5"
     inkscape:window-x="-9"
     inkscape:window-y="-9"
     inkscape:window-maximized="1"
     inkscape:current-layer="svg2" />
  <g
     id="g192"
     transform="scale(2)">
    <path
       style="fill:#000000;fill-opacity:0"
       d="M 0,0.5 V 0 H 0.5 1 1.5 2 2.5 3 3.5 4 4.5 5 5.5 6 6.5 7 7.5 8 8.5 9 9.5 10 V 0.5 1 1.5 2 2.5 3 3.5 4 H 9.5 9 V 3.5 Q 9,3 8.625,2.875 8.25,2.75 7.96875,3.03125 L 7.6875,3.3125 7.75,3.375 7.8125,3.4375 7.6875,3.3125 Q 7.5625,3.1875 7.375,3.125 L 7.1875,3.0625 7.46875,3.15625 7.75,3.25 7.375,3.125 Q 7,3 6.5,3 6,3 5.5,3 H 5 4.5 4 3.5 Q 3,3 2.625,3.125 2.25,3.25 2.125,3.625 L 2,4 H 1.5 1 1.375 1.75 1.5 Q 1.25,4 1.125,4.125 L 1,4.25 1.0625,4.1875 1.125,4.125 0.5625,4.0625 0,4 V 3.5 3 2.5 2 1.5 1 0.5"
       id="path12"
       inkscape:connector-curvature="0" />
    <path
       style="fill:#4a4a07;fill-opacity:0.14901961"
       d="M 2.125,3.625 Q 2.25,3.25 2.625,3.125 L 3,3 2.71875,3.09375 2.4375,3.1875 2.625,3.125 Q 2.8125,3.0625 3.03125,3.03125 L 3.25,3 3.140625,3.015625 3.03125,3.03125 3.015625,3.515625 3,4 H 2.5 2 L 2.125,3.625 M 2.625,4 H 3 3.125 3.25 3 Q 2.75,4 2.5,4 H 2.25 2.625"
       id="path14"
       inkscape:connector-curvature="0" />
    <path
       style="fill:#a8a805;fill-opacity:0.43921569"
       d="M 3.015625,3.515625 3.03125,3.03125 2.921875,3.046875 2.8125,3.0625 3.03125,3.03125 Q 3.25,3 3.5,3 H 3.75 3.375 3 3.5 4 V 3.5 4 H 3.5 3 L 3.015625,3.515625 M 2.875,4 H 3 3.375 3.75 3.5 Q 3.25,4 3,4 H 2.75 2.875"
       id="path16"
       inkscape:connector-curvature="0" />
    <path
       style="fill:#b4b405;fill-opacity:0.72941176"
       d="M 4,3.5 V 3 H 4.5 5 L 4.875,3.375 Q 4.75,3.75 4.375,3.875 L 4,4 V 3.5"
       id="path18"
       inkscape:connector-curvature="0" />
    <path
       style="fill:#bebd05;fill-opacity:0.8"
       d="M 4.875,3.375 5,3 H 5.5 6 L 6.125,3.375 6.25,3.75 6.15625,3.46875 6.0625,3.1875 6.125,3.375 Q 6.1875,3.5625 6.3125,3.6875 L 6.4375,3.8125 6.375,3.75 6.3125,3.6875 6,4 5.6875,4.3125 5.71875,4.34375 5.75,4.375 5.6875,4.3125 Q 5.625,4.25 5.5,4.25 H 5.375 5.5625 5.75 5.5 5.25 5.4375 5.625 5.5 q -0.125,0 -0.25,0.0625 L 5.125,4.375 5.1875,4.34375 5.25,4.3125 4.96875,4 4.6875,3.6875 4.625,3.75 4.5625,3.8125 4.6875,3.6875 Q 4.8125,3.5625 4.875,3.375 L 4.9375,3.1875 4.84375,3.46875 4.75,3.75 4.875,3.375 M 6.125,3 H 6 5.625 5.25 5.5 Q 5.75,3 6,3 H 6.25 6.125"
       id="path20"
       inkscape:connector-curvature="0" />
    <path
       style="fill:#abab04;fill-opacity:0.50196078"
       d="M 6.125,3.375 6,3 H 6.5 7 6.625 6.25 6.5 Q 6.75,3 6.96875,3.03125 L 7.1875,3.0625 7.078125,3.046875 6.96875,3.03125 7,3.5 7.03125,3.96875 7.140625,3.984375 7.25,4 7.03125,3.96875 Q 6.8125,3.9375 6.625,3.875 L 6.4375,3.8125 6.71875,3.90625 7,4 6.625,3.875 Q 6.25,3.75 6.125,3.375 M 6.375,3 H 6 5.875 5.75 6 Q 6.25,3 6.5,3 H 6.75 6.375"
       id="path22"
       inkscape:connector-curvature="0" />
    <path
       style="fill:#757505;fill-opacity:0.19607843"
       d="M 7,3.5 6.96875,3.03125 6.859375,3.015625 6.75,3 6.96875,3.03125 Q 7.1875,3.0625 7.375,3.125 L 7.5625,3.1875 7.28125,3.09375 7,3 7.375,3.125 q 0.375,0.125 0.5,0.5 L 8,4 7.90625,3.71875 7.8125,3.4375 7.875,3.625 Q 7.9375,3.8125 8.09375,3.90625 L 8.25,4 8.171875,3.953125 8.09375,3.90625 7.546875,3.953125 7,4 H 7.375 7.75 7.5 Q 7.25,4 7.03125,3.96875 L 6.8125,3.9375 6.921875,3.953125 7.03125,3.96875 7,3.5"
       id="path24"
       inkscape:connector-curvature="0" />
    <path
       style="fill:#000000;fill-opacity:0.00392157"
       d="M 7.875,3.625 7.75,3.25 7.84375,3.53125 7.9375,3.8125 7.875,3.625 Q 7.8125,3.4375 7.6875,3.3125 L 7.5625,3.1875 7.625,3.25 7.6875,3.3125 7.96875,3.03125 Q 8.25,2.75 8.625,2.875 9,3 9,3.5 V 4 H 8.5 Q 8,4 7.875,3.625"
       id="path26"
       inkscape:connector-curvature="0" />
    <path
       style="fill:#535136;fill-opacity:0.51764706"
       d="M 0,4.5 V 4 L 0.5625,4.0625 1.125,4.125 1.1875,4.0625 1.25,4 1.125,4.125 Q 1,4.25 1,4.5 V 4.75 4.375 4 4.5 5 H 0.5 0 V 4.5"
       id="path28"
       inkscape:connector-curvature="0" />
    <path
       style="fill:#cccc03;fill-opacity:0.85882353"
       d="M 1,4.5 Q 1,4 1.5,4 H 2 V 4.5 5 H 1.5 1 V 4.5"
       id="path30"
       inkscape:connector-curvature="0" />
    <path
       style="fill:#bcbc05;fill-opacity:1"
       d="M 2,4.5 V 4 H 2.5 3 V 4.5 5 H 2.5 2 V 4.5"
       id="path32"
       inkscape:connector-curvature="0" />
    <path
       style="fill:#c3c304;fill-opacity:1"
       d="M 3,4.5 V 4 H 3.5 4 V 4.5 5 H 3.5 3 V 4.5"
       id="path34"
       inkscape:connector-curvature="0" />
    <path
       style="fill:#c2c204;fill-opacity:1"
       d="M 4,4.5 V 4 L 4.375,3.875 4.75,3.75 4.46875,3.84375 4.1875,3.9375 4.375,3.875 Q 4.5625,3.8125 4.6875,3.6875 L 4.8125,3.5625 4.75,3.625 4.6875,3.6875 4.96875,4 5.25,4.3125 5.3125,4.28125 5.375,4.25 5.25,4.3125 Q 5.125,4.375 5,4.5 L 4.875,4.625 5.0625,4.4375 5.25,4.25 5,4.5 Q 4.75,4.75 4.375,4.875 L 4,5 V 4.5"
       id="path36"
       inkscape:connector-curvature="0" />
    <path
       style="fill:#cece04;fill-opacity:1"
       d="M 5,4.5 Q 5.25,4.25 5.5,4.25 5.75,4.25 5.75,4.5 5.75,4.75 5.5,5 5.25,5.25 4.984375,4.984375 L 4.71875,4.71875 4.640625,4.765625 4.5625,4.8125 4.71875,4.71875 Q 4.875,4.625 5,4.5 L 5.125,4.375 4.9375,4.5625 4.75,4.75 5,4.5"
       id="path38"
       inkscape:connector-curvature="0" />
    <path
       style="fill:#c9c904;fill-opacity:1"
       d="M 5.75,4.5 V 4.25 4.4375 4.625 4.5 Q 5.75,4.375 5.6875,4.3125 L 5.625,4.25 5.65625,4.28125 5.6875,4.3125 6,4 6.3125,3.6875 6.25,3.625 6.1875,3.5625 6.3125,3.6875 Q 6.4375,3.8125 6.625,3.875 L 6.8125,3.9375 6.53125,3.84375 6.25,3.75 6.625,3.875 7,4 6.875,4.375 Q 6.75,4.75 6.5,5 L 6.25,5.25 6.4375,5.0625 6.625,4.875 6.5,5 Q 6.375,5.125 6.28125,5.28125 L 6.1875,5.4375 6.234375,5.359375 6.28125,5.28125 5.984375,5.015625 5.6875,4.75 5.65625,4.8125 5.625,4.875 5.6875,4.75 Q 5.75,4.625 5.75,4.5 V 4.375 4.5625 4.75 4.5"
       id="path40"
       inkscape:connector-curvature="0" />
    <path
       style="fill:#bfbf05;fill-opacity:1"
       d="M 6.875,4.375 7,4 7.546875,3.953125 8.09375,3.90625 8.046875,4.453125 8,5 7.625,5.125 7.25,5.25 7.53125,5.15625 7.8125,5.0625 7.625,5.125 Q 7.4375,5.1875 7.3125,5.3125 L 7.1875,5.4375 7.25,5.375 7.3125,5.3125 7.015625,5.015625 6.71875,4.71875 6.671875,4.796875 6.625,4.875 6.71875,4.71875 Q 6.8125,4.5625 6.875,4.375 L 6.9375,4.1875 6.84375,4.46875 6.75,4.75 6.875,4.375"
       id="path42"
       inkscape:connector-curvature="0" />
    <path
       style="fill:#caca03;fill-opacity:0.88627451"
       d="M 8.046875,4.453125 8.09375,3.90625 8.015625,3.859375 7.9375,3.8125 8.09375,3.90625 Q 8.25,4 8.5,4 H 8.75 8.375 8 8.5 9 V 4.5 5 H 8.5 8 L 8.046875,4.453125 M 9.125,4 H 9 8.625 8.25 8.5 Q 8.75,4 9,4 H 9.25 9.125"
       id="path44"
       inkscape:connector-curvature="0" />
    <path
       style="fill:#875b06;fill-opacity:0.54117647"
       d="M 9,4.5 V 4 H 9.5 10 V 4.5 5 H 9.5 9 V 4.5 M 9.375,4 H 9 8.875 8.75 9 Q 9.25,4 9.5,4 H 9.75 9.375"
       id="path46"
       inkscape:connector-curvature="0" />
    <path
       style="fill:#0000e2;fill-opacity:0.82745098"
       d="M 0,5.5 V 5 H 0.5 1 V 5.5 6 H 0.5 0 V 5.5"
       id="path48"
       inkscape:connector-curvature="0" />
    <path
       style="fill:#0a0a9f;fill-opacity:1"
       d="M 1,5.5 V 5 H 1.5 2 V 5.5 6 H 1.5 1 V 5.5"
       id="path50"
       inkscape:connector-curvature="0" />
    <path
       style="fill:#676760;fill-opacity:1"
       d="M 2,5.5 V 5 H 2.5 3 V 5.5 6 H 2.5 2 V 5.5 M 3.125,5 H 3 2.625 2.25 2.5 Q 2.75,5 3,5 H 3.25 3.125"
       id="path52"
       inkscape:connector-curvature="0" />
    <path
       style="fill:#acab08;fill-opacity:1"
       d="M 3,5.5 V 5 H 3.5 4 3.625 3.25 3.5 Q 3.75,5 3.96875,4.96875 L 4.1875,4.9375 4.078125,4.953125 3.96875,4.96875 3.984375,5.484375 4,6 H 3.5 3 V 5.5 M 3.375,5 H 3 2.875 2.75 3 Q 3.25,5 3.5,5 H 3.75 3.375"
       id="path54"
       inkscape:connector-curvature="0" />
    <path
       style="fill:#d6d503;fill-opacity:1"
       d="M 3.984375,5.484375 3.96875,4.96875 3.859375,4.984375 3.75,5 3.96875,4.96875 Q 4.1875,4.9375 4.375,4.875 L 4.5625,4.8125 4.28125,4.90625 4,5 4.375,4.875 4.75,4.75 4.46875,4.84375 4.1875,4.9375 4.375,4.875 Q 4.5625,4.8125 4.71875,4.71875 L 4.875,4.625 4.796875,4.671875 4.71875,4.71875 4.984375,4.984375 Q 5.25,5.25 5.5,5 L 5.75,4.75 5.5625,4.9375 5.375,5.125 5.5,5 Q 5.625,4.875 5.6875,4.75 L 5.75,4.625 5.71875,4.6875 5.6875,4.75 5.984375,5.015625 6.28125,5.28125 6.328125,5.203125 6.375,5.125 6.28125,5.28125 Q 6.1875,5.4375 6.125,5.625 L 6.0625,5.8125 6.15625,5.53125 6.25,5.25 6.125,5.625 6,6 H 5.5 Q 5,6 4.5,6 H 4 L 3.984375,5.484375"
       id="path56"
       inkscape:connector-curvature="0" />
    <path
       style="fill:#b7b003;fill-opacity:1"
       d="M 6.125,5.625 Q 6.25,5.25 6.5,5 L 6.75,4.75 6.5625,4.9375 6.375,5.125 6.5,5 Q 6.625,4.875 6.71875,4.71875 L 6.8125,4.5625 6.765625,4.640625 6.71875,4.71875 7.015625,5.015625 7.3125,5.3125 7.375,5.25 7.4375,5.1875 7.3125,5.3125 Q 7.1875,5.4375 7.125,5.625 L 7.0625,5.8125 7.15625,5.53125 7.25,5.25 7.125,5.625 7,6 H 6.5 6 L 6.125,5.625"
       id="path58"
       inkscape:connector-curvature="0" />
    <path
       style="fill:#c47002;fill-opacity:1"
       d="M 7.125,5.625 Q 7.25,5.25 7.625,5.125 L 8,5 7.71875,5.09375 7.4375,5.1875 7.625,5.125 Q 7.8125,5.0625 8.03125,5.03125 L 8.25,5 8.140625,5.015625 8.03125,5.03125 8.015625,5.515625 8,6 H 7.5 7 L 7.125,5.625"
       id="path60"
       inkscape:connector-curvature="0" />
    <path
       style="fill:#a51002;fill-opacity:1"
       d="M 8.015625,5.515625 8.03125,5.03125 7.921875,5.046875 7.8125,5.0625 8.03125,5.03125 Q 8.25,5 8.5,5 H 8.75 8.375 8 8.5 9 V 5.5 6 H 8.5 8 L 8.015625,5.515625"
       id="path62"
       inkscape:connector-curvature="0" />
    <path
       style="fill:#e20101;fill-opacity:0.88235294"
       d="M 9,5.5 V 5 H 9.5 10 V 5.5 6 H 9.5 9 V 5.5"
       id="path64"
       inkscape:connector-curvature="0" />
    <path
       style="fill:#0101ae;fill-opacity:0.76078431"
       d="M 0,6.5 V 6 H 0.5 1 V 6.5 7 H 0.5 0 V 6.5"
       id="path66"
       inkscape:connector-curvature="0" />
    <path
       style="fill:#0000c7;fill-opacity:1"
       d="M 1,6.5 V 6 H 1.5 2 L 2.125,6.375 2.25,6.75 2.15625,6.46875 2.0625,6.1875 2.125,6.375 Q 2.1875,6.5625 2.28125,6.65625 L 2.375,6.75 2.328125,6.703125 2.28125,6.65625 1.96875,6.96875 1.65625,7.28125 1.703125,7.328125 1.75,7.375 1.65625,7.28125 Q 1.5625,7.1875 1.375,7.125 L 1.1875,7.0625 1.46875,7.15625 1.75,7.25 1.375,7.125 1,7 V 6.5"
       id="path68"
       inkscape:connector-curvature="0" />
    <path
       style="fill:#0000fe;fill-opacity:1"
       d="M 2.125,6.375 2,6 H 2.5 3 L 2.875,6.375 Q 2.75,6.75 2.5,6.75 2.25,6.75 2.125,6.375"
       id="path70"
       inkscape:connector-curvature="0" />
    <path
       style="fill:#0000bf;fill-opacity:1"
       d="M 2.875,6.375 3,6 H 3.5 4 V 6.5 7 L 3.625,7.125 3.25,7.25 3.53125,7.15625 3.8125,7.0625 3.625,7.125 Q 3.4375,7.1875 3.3125,7.3125 L 3.1875,7.4375 3.25,7.375 3.3125,7.3125 3.015625,6.984375 2.71875,6.65625 2.671875,6.703125 2.625,6.75 2.71875,6.65625 Q 2.8125,6.5625 2.875,6.375 L 2.9375,6.1875 2.84375,6.46875 2.75,6.75 2.875,6.375"
       id="path72"
       inkscape:connector-curvature="0" />
    <path
       style="fill:#1d1da0;fill-opacity:1"
       d="M 4,6.5 V 6 H 4.5 5 V 6.5 7 H 4.5 4 V 6.5 M 4,6.625 V 7 7.125 7.25 7 Q 4,6.75 4,6.5 V 6.25 6.625 M 5.125,6 H 5 4.625 4.25 4.5 Q 4.75,6 5,6 H 5.25 5.125"
       id="path74"
       inkscape:connector-curvature="0" />
    <path
       style="fill:#b82802;fill-opacity:1"
       d="M 5,6.5 V 6 H 5.5 6 V 6.5 7 H 5.5 5 V 6.5 M 6,7.125 V 7 6.625 6.25 6.5 Q 6,6.75 6,7 V 7.25 7.125 M 5.375,6 H 5 4.875 4.75 5 Q 5.25,6 5.5,6 H 5.75 5.375"
       id="path76"
       inkscape:connector-curvature="0" />
    <path
       style="fill:#c20101;fill-opacity:1"
       d="M 6,6.5 V 6 H 6.5 7 L 7.125,6.375 7.25,6.75 7.15625,6.46875 7.0625,6.1875 7.125,6.375 Q 7.1875,6.5625 7.28125,6.65625 L 7.375,6.75 7.328125,6.703125 7.28125,6.65625 6.984375,6.984375 6.6875,7.3125 6.75,7.375 6.8125,7.4375 6.6875,7.3125 Q 6.5625,7.1875 6.375,7.125 L 6.1875,7.0625 6.46875,7.15625 6.75,7.25 6.375,7.125 6,7 V 6.5"
       id="path78"
       inkscape:connector-curvature="0" />
    <path
       style="fill:#fd0000;fill-opacity:1"
       d="M 7.125,6.375 7,6 H 7.5 8 L 7.875,6.375 Q 7.75,6.75 7.5,6.75 7.25,6.75 7.125,6.375"
       id="path80"
       inkscape:connector-curvature="0" />
    <path
       style="fill:#c90101;fill-opacity:1"
       d="M 7.875,6.375 8,6 H 8.5 9 V 6.5 7 L 8.625,7.125 8.25,7.25 8.53125,7.15625 8.8125,7.0625 8.625,7.125 Q 8.4375,7.1875 8.34375,7.28125 L 8.25,7.375 8.296875,7.328125 8.34375,7.28125 8.03125,6.96875 7.71875,6.65625 7.671875,6.703125 7.625,6.75 7.71875,6.65625 Q 7.8125,6.5625 7.875,6.375 L 7.9375,6.1875 7.84375,6.46875 7.75,6.75 7.875,6.375"
       id="path82"
       inkscape:connector-curvature="0" />
    <path
       style="fill:#b30101;fill-opacity:0.85098039"
       d="M 9,6.5 V 6 H 9.5 10 V 6.5 7 H 9.5 9 V 6.5"
       id="path84"
       inkscape:connector-curvature="0" />
    <path
       style="fill:#0101d8;fill-opacity:0.69411765"
       d="M 0,7.5 V 7 H 0.5 1 V 7.5 8 H 0.5 0 V 7.5"
       id="path86"
       inkscape:connector-curvature="0" />
    <path
       style="fill:#01009b;fill-opacity:1"
       d="M 1,7.5 V 7 L 1.375,7.125 Q 1.75,7.25 1.75,7.5 1.75,7.75 1.375,7.875 L 1,8 V 7.5"
       id="path88"
       inkscape:connector-curvature="0" />
    <path
       style="fill:#0000bd;fill-opacity:1"
       d="M 1.75,7.5 V 7.25 7.4375 7.625 7.5 Q 1.75,7.375 1.65625,7.28125 L 1.5625,7.1875 1.609375,7.234375 1.65625,7.28125 1.96875,6.96875 2.28125,6.65625 2.234375,6.609375 2.1875,6.5625 2.28125,6.65625 Q 2.375,6.75 2.5,6.75 H 2.625 2.4375 2.25 2.5 2.75 2.5625 2.375 2.5 q 0.125,0 0.21875,-0.09375 L 2.8125,6.5625 2.765625,6.609375 2.71875,6.65625 3.015625,6.984375 3.3125,7.3125 3.375,7.25 3.4375,7.1875 3.3125,7.3125 Q 3.1875,7.4375 3.125,7.625 L 3.0625,7.8125 3.15625,7.53125 3.25,7.25 3.125,7.625 3,8 2.625,8.125 2.25,8.25 2.53125,8.15625 2.8125,8.0625 2.625,8.125 Q 2.4375,8.1875 2.34375,8.28125 L 2.25,8.375 2.296875,8.328125 2.34375,8.28125 2,8 1.65625,7.71875 1.609375,7.765625 1.5625,7.8125 1.65625,7.71875 Q 1.75,7.625 1.75,7.5 V 7.375 7.5625 7.75 7.5"
       id="path90"
       inkscape:connector-curvature="0" />
    <path
       style="fill:#0000c2;fill-opacity:1"
       d="M 3.125,7.625 Q 3.25,7.25 3.625,7.125 L 4,7 V 7.5 8 H 3.5 3 L 3.125,7.625"
       id="path92"
       inkscape:connector-curvature="0" />
    <path
       style="fill:#0000f0;fill-opacity:1"
       d="M 4,7.5 V 7 H 4.5 5 V 7.5 8 H 4.5 4 V 7.5 M 4,6.875 V 7 7.375 7.75 7.5 Q 4,7.25 4,7 V 6.75 6.875"
       id="path94"
       inkscape:connector-curvature="0" />
    <path
       style="fill:#d90100;fill-opacity:1"
       d="M 5,7.5 V 7 H 5.5 6 V 7.5 8 H 5.5 5 V 7.5 M 5.625,8 H 6 6.125 6.25 6 Q 5.75,8 5.5,8 H 5.25 5.625 M 6,7.375 V 7 6.875 6.75 7 Q 6,7.25 6,7.5 V 7.75 7.375"
       id="path96"
       inkscape:connector-curvature="0" />
    <path
       style="fill:#c60101;fill-opacity:1"
       d="M 6,7.5 V 7 l 0.375,0.125 q 0.375,0.125 0.5,0.5 L 7,8 H 6.5 6 V 7.5 M 5.875,8 H 6 6.375 6.75 6.5 Q 6.25,8 6,8 H 5.75 5.875"
       id="path98"
       inkscape:connector-curvature="0" />
    <path
       style="fill:#be0101;fill-opacity:1"
       d="M 6.875,7.625 6.75,7.25 6.84375,7.53125 6.9375,7.8125 6.875,7.625 Q 6.8125,7.4375 6.6875,7.3125 L 6.5625,7.1875 6.625,7.25 6.6875,7.3125 6.984375,6.984375 7.28125,6.65625 7.234375,6.609375 7.1875,6.5625 7.28125,6.65625 Q 7.375,6.75 7.5,6.75 H 7.625 7.4375 7.25 7.5 7.75 7.5625 7.375 7.5 q 0.125,0 0.21875,-0.09375 L 7.8125,6.5625 7.765625,6.609375 7.71875,6.65625 8.03125,6.96875 8.34375,7.28125 8.390625,7.234375 8.4375,7.1875 8.34375,7.28125 Q 8.25,7.375 8.25,7.5 V 7.625 7.4375 7.25 7.5 7.75 7.5625 7.375 7.5 q 0,0.125 0.09375,0.21875 L 8.4375,7.8125 8.390625,7.765625 8.34375,7.71875 8,8 7.65625,8.28125 7.703125,8.328125 7.75,8.375 7.65625,8.28125 Q 7.5625,8.1875 7.375,8.125 L 7.1875,8.0625 7.46875,8.15625 7.75,8.25 7.375,8.125 7,8 6.875,7.625"
       id="path100"
       inkscape:connector-curvature="0" />
    <path
       style="fill:#990101;fill-opacity:1"
       d="m 8.25,7.5 q 0,-0.25 0.375,-0.375 L 9,7 V 7.5 8 L 8.625,7.875 Q 8.25,7.75 8.25,7.5"
       id="path102"
       inkscape:connector-curvature="0" />
    <path
       style="fill:#d70101;fill-opacity:0.81568627"
       d="M 9,7.5 V 7 H 9.5 10 V 7.5 8 H 9.5 9 V 7.5"
       id="path104"
       inkscape:connector-curvature="0" />
    <path
       style="fill:#0202b3;fill-opacity:0.62745098"
       d="M 0,8.5 V 8 H 0.5 1 L 0.875,8.375 Q 0.75,8.75 0.375,8.875 L 0,9 V 8.5"
       id="path106"
       inkscape:connector-curvature="0" />
    <path
       style="fill:#0000c7;fill-opacity:1"
       d="M 0.875,8.375 1,8 1.375,7.875 1.75,7.75 1.46875,7.84375 1.1875,7.9375 1.375,7.875 Q 1.5625,7.8125 1.65625,7.71875 L 1.75,7.625 1.703125,7.671875 1.65625,7.71875 2,8 2.34375,8.28125 2.390625,8.234375 2.4375,8.1875 2.34375,8.28125 Q 2.25,8.375 2.25,8.5 V 8.625 8.4375 8.25 8.5 8.75 8.5625 8.375 8.5 q 0,0.125 0.09375,0.21875 L 2.4375,8.8125 2.390625,8.765625 2.34375,8.71875 2.015625,9.015625 1.6875,9.3125 1.71875,9.34375 1.75,9.375 1.6875,9.3125 Q 1.625,9.25 1.5,9.25 H 1.375 1.5625 1.75 1.5 1.25 1.4375 1.625 1.5 q -0.125,0 -0.21875,0.09375 L 1.1875,9.4375 1.234375,9.390625 1.28125,9.34375 0.984375,9.015625 0.6875,8.6875 0.625,8.75 0.5625,8.8125 0.6875,8.6875 Q 0.8125,8.5625 0.875,8.375 L 0.9375,8.1875 0.84375,8.46875 0.75,8.75 0.875,8.375"
       id="path108"
       inkscape:connector-curvature="0" />
    <path
       style="fill:#0000fd;fill-opacity:1"
       d="m 2.25,8.5 q 0,-0.25 0.375,-0.375 L 3,8 2.71875,8.09375 2.4375,8.1875 2.625,8.125 Q 2.8125,8.0625 3.03125,8.03125 L 3.25,8 3.140625,8.015625 3.03125,8.03125 V 8.5 8.96875 L 3.140625,8.984375 3.25,9 3.03125,8.96875 Q 2.8125,8.9375 2.625,8.875 L 2.4375,8.8125 2.71875,8.90625 3,9 2.625,8.875 Q 2.25,8.75 2.25,8.5"
       id="path110"
       inkscape:connector-curvature="0" />
    <path
       style="fill:#0100a0;fill-opacity:1"
       d="M 3.03125,8.5 V 8.03125 L 2.921875,8.046875 2.8125,8.0625 3.03125,8.03125 Q 3.25,8 3.5,8 H 3.75 3.375 3 3.5 4 V 8.5 9 H 3.5 3 3.375 3.75 3.5 Q 3.25,9 3.03125,8.96875 L 2.8125,8.9375 2.921875,8.953125 3.03125,8.96875 V 8.5"
       id="path112"
       inkscape:connector-curvature="0" />
    <path
       style="fill:#0100b2;fill-opacity:1"
       d="M 4,8.5 V 8 H 4.5 5 V 8.5 9 H 4.5 4 V 8.5"
       id="path114"
       inkscape:connector-curvature="0" />
    <path
       style="fill:#a10101;fill-opacity:1"
       d="M 5,8.5 V 8 H 5.5 6 V 8.5 9 H 5.5 5 V 8.5"
       id="path116"
       inkscape:connector-curvature="0" />
    <path
       style="fill:#9c0101;fill-opacity:1"
       d="M 6,8.5 V 8 H 6.5 7 6.625 6.25 6.5 Q 6.75,8 6.96875,8.03125 L 7.1875,8.0625 7.078125,8.046875 6.96875,8.03125 V 8.5 8.96875 L 7.078125,8.953125 7.1875,8.9375 6.96875,8.96875 Q 6.75,9 6.5,9 H 6.25 6.625 7 6.5 6 V 8.5"
       id="path118"
       inkscape:connector-curvature="0" />
    <path
       style="fill:#fc0000;fill-opacity:1"
       d="M 6.96875,8.5 V 8.03125 L 6.859375,8.015625 6.75,8 6.96875,8.03125 Q 7.1875,8.0625 7.375,8.125 L 7.5625,8.1875 7.28125,8.09375 7,8 7.375,8.125 Q 7.75,8.25 7.75,8.5 7.75,8.75 7.375,8.875 L 7,9 7.28125,8.90625 7.5625,8.8125 7.375,8.875 Q 7.1875,8.9375 6.96875,8.96875 L 6.75,9 6.859375,8.984375 6.96875,8.96875 V 8.5"
       id="path120"
       inkscape:connector-curvature="0" />
    <path
       style="fill:#c90101;fill-opacity:1"
       d="M 7.75,8.5 V 8.25 8.4375 8.625 8.5 Q 7.75,8.375 7.65625,8.28125 L 7.5625,8.1875 7.609375,8.234375 7.65625,8.28125 8,8 8.34375,7.71875 8.296875,7.671875 8.25,7.625 8.34375,7.71875 Q 8.4375,7.8125 8.625,7.875 L 8.8125,7.9375 8.53125,7.84375 8.25,7.75 8.625,7.875 9,8 V 8.5 9 L 8.625,9.125 8.25,9.25 8.53125,9.15625 8.8125,9.0625 8.625,9.125 Q 8.4375,9.1875 8.34375,9.28125 L 8.25,9.375 8.296875,9.328125 8.34375,9.28125 8,9 7.65625,8.71875 7.609375,8.765625 7.5625,8.8125 7.65625,8.71875 Q 7.75,8.625 7.75,8.5 V 8.375 8.5625 8.75 8.5"
       id="path122"
       inkscape:connector-curvature="0" />
    <path
       style="fill:#b80103;fill-opacity:0.78431373"
       d="M 9,8.5 V 8 H 9.5 10 V 8.5 9 H 9.5 9 V 8.5"
       id="path124"
       inkscape:connector-curvature="0" />
    <path
       style="fill:#0202d1;fill-opacity:0.56078384"
       d="M 0,9.5 V 9 L 0.375,8.875 0.75,8.75 0.46875,8.84375 0.1875,8.9375 0.375,8.875 Q 0.5625,8.8125 0.6875,8.6875 L 0.8125,8.5625 0.75,8.625 0.6875,8.6875 0.984375,9.015625 1.28125,9.34375 1.328125,9.296875 1.375,9.25 1.28125,9.34375 Q 1.1875,9.4375 1.125,9.625 L 1.0625,9.8125 1.15625,9.53125 1.25,9.25 1.109375,9.609375 0.96875,9.96875 1.078125,9.953125 1.1875,9.9375 0.96875,9.96875 Q 0.75,10 0.5,10 H 0.25 0.625 1 0.5 0 V 9.5"
       id="path126"
       inkscape:connector-curvature="0" />
    <path
       style="fill:#01009d;fill-opacity:1"
       d="M 1.109375,9.609375 Q 1.25,9.25 1.5,9.25 q 0.25,0 0.25,0.25 0,0.25 -0.375,0.375 L 1,10 1.28125,9.90625 1.5625,9.8125 1.375,9.875 Q 1.1875,9.9375 0.96875,9.96875 L 0.75,10 0.859375,9.984375 0.96875,9.96875 1.109375,9.609375"
       id="path128"
       inkscape:connector-curvature="0" />
    <path
       style="fill:#0000bf;fill-opacity:1"
       d="M 1.75,9.5 V 9.25 9.4375 9.625 9.5 Q 1.75,9.375 1.6875,9.3125 L 1.625,9.25 1.65625,9.28125 1.6875,9.3125 2.015625,9.015625 2.34375,8.71875 2.296875,8.671875 2.25,8.625 2.34375,8.71875 Q 2.4375,8.8125 2.625,8.875 L 2.8125,8.9375 2.53125,8.84375 2.25,8.75 2.625,8.875 3,9 V 9.5 10 L 2.625,10.125 2.25,10.25 2.53125,10.15625 2.8125,10.0625 2.625,10.125 Q 2.4375,10.1875 2.34375,10.28125 L 2.25,10.375 2.296875,10.328125 2.34375,10.28125 2,10 1.65625,9.71875 1.609375,9.765625 1.5625,9.8125 1.65625,9.71875 Q 1.75,9.625 1.75,9.5 V 9.375 9.5625 9.75 9.5"
       id="path130"
       inkscape:connector-curvature="0" />
    <path
       style="fill:#0000c6;fill-opacity:1"
       d="M 3,9.5 V 9 H 3.5 4 V 9.5 10 H 3.5 3 V 9.5"
       id="path132"
       inkscape:connector-curvature="0" />
    <path
       style="fill:#0000f0;fill-opacity:1"
       d="M 4,9.5 V 9 H 4.5 5 V 9.5 10 H 4.5 4 V 9.5"
       id="path134"
       inkscape:connector-curvature="0" />
    <path
       style="fill:#d90100;fill-opacity:1"
       d="M 5,9.5 V 9 H 5.5 6 V 9.5 10 H 5.5 5 V 9.5 M 5.625,10 H 6 6.125 6.25 6 Q 5.75,10 5.5,10 H 5.25 5.625 m 0.5,-1 H 6 5.625 5.25 5.5 Q 5.75,9 6,9 H 6.25 6.125"
       id="path136"
       inkscape:connector-curvature="0" />
    <path
       style="fill:#c90101;fill-opacity:1"
       d="M 6,9.5 V 9 H 6.5 7 V 9.5 10 H 6.5 6 V 9.5 M 5.875,10 H 6 6.375 6.75 6.5 Q 6.25,10 6,10 H 5.75 5.875 m 0.5,-1 H 6 5.875 5.75 6 Q 6.25,9 6.5,9 H 6.75 6.375"
       id="path138"
       inkscape:connector-curvature="0" />
    <path
       style="fill:#c20101;fill-opacity:1"
       d="M 7,9.5 V 9 L 7.375,8.875 7.75,8.75 7.46875,8.84375 7.1875,8.9375 7.375,8.875 Q 7.5625,8.8125 7.65625,8.71875 L 7.75,8.625 7.703125,8.671875 7.65625,8.71875 8,9 8.34375,9.28125 8.390625,9.234375 8.4375,9.1875 8.34375,9.28125 Q 8.25,9.375 8.25,9.5 V 9.625 9.4375 9.25 9.5 9.75 9.5625 9.375 9.5 q 0,0.125 0.09375,0.21875 L 8.4375,9.8125 8.390625,9.765625 8.34375,9.71875 8.015625,10.015625 7.6875,10.3125 7.75,10.375 7.8125,10.4375 7.6875,10.3125 Q 7.5625,10.1875 7.375,10.125 L 7.1875,10.0625 7.46875,10.15625 7.75,10.25 7.375,10.125 7,10 V 9.5"
       id="path140"
       inkscape:connector-curvature="0" />
    <path
       style="fill:#a20102;fill-opacity:1"
       d="m 8.25,9.5 q 0,-0.25 0.375,-0.375 L 9,9 9.015625,9.484375 9.03125,9.96875 9.140625,9.984375 9.25,10 9.03125,9.96875 Q 8.8125,9.9375 8.625,9.875 L 8.4375,9.8125 8.71875,9.90625 9,10 8.625,9.875 Q 8.25,9.75 8.25,9.5"
       id="path142"
       inkscape:connector-curvature="0" />
    <path
       style="fill:#da0101;fill-opacity:0.74901961"
       d="M 9.015625,9.484375 9,9 H 9.5 10 V 9.5 10 H 9.5 9 9.375 9.75 9.5 Q 9.25,10 9.03125,9.96875 L 8.8125,9.9375 8.921875,9.953125 9.03125,9.96875 9.015625,9.484375"
       id="path144"
       inkscape:connector-curvature="0" />
    <path
       style="fill:#0000b7;fill-opacity:0.32156863"
       d="M 0,10.5 V 10 H 0.5 1 V 10.5 11 H 0.5 0 v -0.5"
       id="path146"
       inkscape:connector-curvature="0" />
    <path
       style="fill:#0101bc;fill-opacity:0.94509804"
       d="M 1,10.5 V 10 L 1.375,9.875 1.75,9.75 1.46875,9.84375 1.1875,9.9375 1.375,9.875 Q 1.5625,9.8125 1.65625,9.71875 L 1.75,9.625 1.703125,9.671875 1.65625,9.71875 2,10 2.34375,10.28125 2.390625,10.234375 2.4375,10.1875 2.34375,10.28125 Q 2.25,10.375 2.25,10.5 V 10.625 10.4375 10.25 10.5 10.75 10.5625 10.375 10.5 q 0,0.125 0.09375,0.21875 L 2.4375,10.8125 2.390625,10.765625 2.34375,10.71875 2.015625,11.015625 1.6875,11.3125 1.75,11.375 1.8125,11.4375 1.6875,11.3125 Q 1.5625,11.1875 1.375,11.125 L 1.1875,11.0625 1.46875,11.15625 1.75,11.25 1.375,11.125 1,11 v -0.5"
       id="path148"
       inkscape:connector-curvature="0" />
    <path
       style="fill:#0000fb;fill-opacity:1"
       d="m 2.25,10.5 q 0,-0.25 0.375,-0.375 L 3,10 2.71875,10.09375 2.4375,10.1875 2.625,10.125 Q 2.8125,10.0625 3.03125,10.03125 L 3.25,10 3.140625,10.015625 3.03125,10.03125 3.015625,10.484375 3,10.9375 H 3.09375 3.1875 3 q -0.1875,0 -0.375,-0.0625 L 2.4375,10.8125 2.71875,10.90625 3,11 2.625,10.875 Q 2.25,10.75 2.25,10.5"
       id="path150"
       inkscape:connector-curvature="0" />
    <path
       style="fill:#01019c;fill-opacity:1"
       d="M 3.015625,10.484375 3.03125,10.03125 2.921875,10.046875 2.8125,10.0625 3.03125,10.03125 Q 3.25,10 3.5,10 H 3.75 3.375 3 3.5 4 l -0.125,0.375 q -0.125,0.375 -0.5,0.5 L 3,11 3.28125,10.90625 3.5625,10.8125 3.375,10.875 Q 3.1875,10.9375 3,10.9375 H 2.8125 2.90625 3 l 0.015625,-0.453125"
       id="path152"
       inkscape:connector-curvature="0" />
    <path
       style="fill:#0000b2;fill-opacity:1"
       d="M 3.875,10.375 4,10 H 4.5 5 V 10.5 11 L 4.625,11.125 4.25,11.25 4.53125,11.15625 4.8125,11.0625 4.625,11.125 Q 4.4375,11.1875 4.34375,11.28125 L 4.25,11.375 4.296875,11.328125 4.34375,11.28125 4.015625,10.984375 3.6875,10.6875 3.625,10.75 3.5625,10.8125 3.6875,10.6875 Q 3.8125,10.5625 3.875,10.375 L 3.9375,10.1875 3.84375,10.46875 3.75,10.75 3.875,10.375"
       id="path154"
       inkscape:connector-curvature="0" />
    <path
       style="fill:#a20101;fill-opacity:1"
       d="M 5,10.5 V 10 H 5.5 6 V 10.5 11 H 5.5 5 v -0.5"
       id="path156"
       inkscape:connector-curvature="0" />
    <path
       style="fill:#990102;fill-opacity:1"
       d="M 6,10.5 V 10 H 6.5 7 6.625 6.25 6.5 q 0.25,0 0.46875,0.03125 L 7.1875,10.0625 7.078125,10.046875 6.96875,10.03125 6.984375,10.515625 7,11 H 6.5 6 v -0.5"
       id="path158"
       inkscape:connector-curvature="0" />
    <path
       style="fill:#f80000;fill-opacity:1"
       d="M 6.984375,10.515625 6.96875,10.03125 6.859375,10.015625 6.75,10 6.96875,10.03125 Q 7.1875,10.0625 7.375,10.125 L 7.5625,10.1875 7.28125,10.09375 7,10 7.375,10.125 q 0.375,0.125 0.5,0.5 L 8,11 H 7.5 7 L 6.984375,10.515625"
       id="path160"
       inkscape:connector-curvature="0" />
    <path
       style="fill:#bc0101;fill-opacity:0.98823529"
       d="M 7.875,10.625 7.75,10.25 7.84375,10.53125 7.9375,10.8125 7.875,10.625 Q 7.8125,10.4375 7.6875,10.3125 L 7.5625,10.1875 7.625,10.25 7.6875,10.3125 8.015625,10.015625 8.34375,9.71875 8.296875,9.671875 8.25,9.625 8.34375,9.71875 Q 8.4375,9.8125 8.625,9.875 L 8.8125,9.9375 8.53125,9.84375 8.25,9.75 8.625,9.875 9,10 V 10.5 11 H 8.5 8 L 7.875,10.625"
       id="path162"
       inkscape:connector-curvature="0" />
    <path
       style="fill:#b10202;fill-opacity:0.50196078"
       d="M 9,10.5 V 10 H 9.5 10 V 10.5 11 H 9.5 9 v -0.5"
       id="path164"
       inkscape:connector-curvature="0" />
    <path
       style="fill:#000000;fill-opacity:0"
       d="M 0,11.5 V 11 H 0.5 1 0.625 0.25 0.5 q 0.25,0 0.46875,0.03125 L 1.1875,11.0625 1.078125,11.046875 0.96875,11.03125 1.109375,11.390625 Q 1.25,11.75 1.625,11.875 2,12 2.5,12 H 3 2.625 2.25 2.5 q 0.25,0 0.46875,0.03125 L 3.1875,12.0625 3.078125,12.046875 2.96875,12.03125 3.109375,12.390625 Q 3.25,12.75 3.625,12.875 4,13 4.5,13 q 0.5,0 1,0 0.5,0 0.875,-0.125 0.375,-0.125 0.5,-0.5 L 7,12 h 0.5 q 0.5,0 0.875,-0.125 0.375,-0.125 0.5,-0.5 L 9,11 H 9.5 10 V 11.5 12 12.5 13 13.5 14 14.5 15 H 9.5 9 8.5 8 7.5 7 6.5 6 5.5 5 4.5 4 3.5 3 2.5 2 1.5 1 0.5 0 V 14.5 14 13.5 13 12.5 12 11.5 M 9.375,11 H 9 8.875 8.75 9 q 0.25,0 0.5,0 H 9.75 9.375"
       id="path166"
       inkscape:connector-curvature="0" />
    <path
       style="fill:#000043;fill-opacity:0.0745098"
       d="M 1.109375,11.390625 0.96875,11.03125 0.859375,11.015625 0.75,11 0.96875,11.03125 Q 1.1875,11.0625 1.375,11.125 L 1.5625,11.1875 1.28125,11.09375 1,11 1.375,11.125 Q 1.75,11.25 1.890625,11.609375 L 2.03125,11.96875 2.140625,11.984375 2.25,12 2.03125,11.96875 Q 1.8125,11.9375 1.625,11.875 L 1.4375,11.8125 1.71875,11.90625 2,12 1.625,11.875 Q 1.25,11.75 1.109375,11.390625"
       id="path168"
       inkscape:connector-curvature="0" />
    <path
       style="fill:#0202c9;fill-opacity:0.54117647"
       d="M 1.890625,11.609375 1.75,11.25 1.84375,11.53125 1.9375,11.8125 1.875,11.625 Q 1.8125,11.4375 1.6875,11.3125 L 1.5625,11.1875 1.625,11.25 1.6875,11.3125 2.015625,11.015625 2.34375,10.71875 2.296875,10.671875 2.25,10.625 2.34375,10.71875 Q 2.4375,10.8125 2.625,10.875 L 2.8125,10.9375 2.53125,10.84375 2.25,10.75 2.625,10.875 3,11 V 11.5 12 H 2.5 2 2.375 2.75 2.5 Q 2.25,12 2.03125,11.96875 L 1.8125,11.9375 1.921875,11.953125 2.03125,11.96875 1.890625,11.609375"
       id="path170"
       inkscape:connector-curvature="0" />
    <path
       style="fill:#0101c0;fill-opacity:0.96078431"
       d="M 3,11.5 V 11 L 3.375,10.875 3.75,10.75 3.46875,10.84375 3.1875,10.9375 3.375,10.875 Q 3.5625,10.8125 3.6875,10.6875 L 3.8125,10.5625 3.75,10.625 3.6875,10.6875 4.015625,10.984375 4.34375,11.28125 4.390625,11.234375 4.4375,11.1875 4.34375,11.28125 Q 4.25,11.375 4.25,11.5 V 11.625 11.4375 11.25 11.5 11.75 11.5625 11.375 11.5 q 0,0.125 0.09375,0.21875 L 4.4375,11.8125 4.390625,11.765625 4.34375,11.71875 4.015625,12.015625 3.6875,12.3125 3.75,12.375 3.8125,12.4375 3.6875,12.3125 Q 3.5625,12.1875 3.375,12.125 L 3.1875,12.0625 3.46875,12.15625 3.75,12.25 3.375,12.125 3,12 v -0.5"
       id="path172"
       inkscape:connector-curvature="0" />
    <path
       style="fill:#0000ef;fill-opacity:1"
       d="m 4.25,11.5 q 0,-0.25 0.375,-0.375 L 5,11 V 11.5 12 L 4.625,11.875 Q 4.25,11.75 4.25,11.5"
       id="path174"
       inkscape:connector-curvature="0" />
    <path
       style="fill:#d90100;fill-opacity:1"
       d="M 5,11.5 V 11 H 5.5 6 V 11.5 12 H 5.5 5 V 11.5 M 6.125,11 H 6 5.625 5.25 5.5 Q 5.75,11 6,11 H 6.25 6.125"
       id="path176"
       inkscape:connector-curvature="0" />
    <path
       style="fill:#c60101;fill-opacity:0.99607843"
       d="M 6,11.5 V 11 H 6.5 7 V 11.5 12 H 6.5 6 V 11.5 M 6.375,11 H 6 5.875 5.75 6 q 0.25,0 0.5,0 H 6.75 6.375"
       id="path178"
       inkscape:connector-curvature="0" />
    <path
       style="fill:#d30101;fill-opacity:0.6745098"
       d="M 7,11.5 V 11 H 7.5 8 L 7.984375,11.484375 7.96875,11.96875 8.078125,11.953125 8.1875,11.9375 7.96875,11.96875 Q 7.75,12 7.5,12 H 7.25 7.625 8 7.5 7 v -0.5"
       id="path180"
       inkscape:connector-curvature="0" />
    <path
       style="fill:#510000;fill-opacity:0.16078431"
       d="M 7.984375,11.484375 8,11 H 8.5 9 l -0.125,0.375 q -0.125,0.375 -0.5,0.5 L 8,12 8.28125,11.90625 8.5625,11.8125 8.375,11.875 Q 8.1875,11.9375 7.96875,11.96875 L 7.75,12 7.859375,11.984375 7.96875,11.96875 7.984375,11.484375 M 9.125,11 H 9 8.625 8.25 8.5 Q 8.75,11 9,11 H 9.25 9.125"
       id="path182"
       inkscape:connector-curvature="0" />
    <path
       style="fill:#000052;fill-opacity:0.09803922"
       d="M 3.109375,12.390625 2.96875,12.03125 2.859375,12.015625 2.75,12 2.96875,12.03125 Q 3.1875,12.0625 3.375,12.125 L 3.5625,12.1875 3.28125,12.09375 3,12 3.375,12.125 Q 3.75,12.25 3.890625,12.609375 L 4.03125,12.96875 4.140625,12.984375 4.25,13 4.03125,12.96875 Q 3.8125,12.9375 3.625,12.875 L 3.4375,12.8125 3.71875,12.90625 4,13 3.625,12.875 Q 3.25,12.75 3.109375,12.390625"
       id="path184"
       inkscape:connector-curvature="0" />
    <path
       style="fill:#0202b7;fill-opacity:0.58039216"
       d="M 3.890625,12.609375 3.75,12.25 3.84375,12.53125 3.9375,12.8125 3.875,12.625 Q 3.8125,12.4375 3.6875,12.3125 L 3.5625,12.1875 3.625,12.25 3.6875,12.3125 4.015625,12.015625 4.34375,11.71875 4.296875,11.671875 4.25,11.625 4.34375,11.71875 Q 4.4375,11.8125 4.625,11.875 L 4.8125,11.9375 4.53125,11.84375 4.25,11.75 4.625,11.875 5,12 V 12.5 13 H 4.5 4 4.375 4.75 4.5 Q 4.25,13 4.03125,12.96875 L 3.8125,12.9375 3.921875,12.953125 4.03125,12.96875 3.890625,12.609375 M 4.625,13 H 5 5.125 5.25 5 Q 4.75,13 4.5,13 H 4.25 4.625"
       id="path186"
       inkscape:connector-curvature="0" />
    <path
       style="fill:#a30101;fill-opacity:0.71764706"
       d="M 5,12.5 V 12 H 5.5 6 L 5.984375,12.484375 5.96875,12.96875 6.078125,12.953125 6.1875,12.9375 5.96875,12.96875 Q 5.75,13 5.5,13 H 5.25 5.625 6 5.5 5 V 12.5 M 4.875,13 H 5 5.375 5.75 5.5 Q 5.25,13 5,13 H 4.75 4.875"
       id="path188"
       inkscape:connector-curvature="0" />
    <path
       style="fill:#760005;fill-opacity:0.20392157"
       d="M 5.984375,12.484375 6,12 H 6.5 7 l -0.125,0.375 q -0.125,0.375 -0.5,0.5 L 6,13 6.28125,12.90625 6.5625,12.8125 6.375,12.875 Q 6.1875,12.9375 5.96875,12.96875 L 5.75,13 5.859375,12.984375 5.96875,12.96875 5.984375,12.484375"
       id="path190"
       inkscape:connector-curvature="0" />
  </g>
</svg>
