<?xml version="1.0" encoding="UTF-8" standalone="no"?>
<!-- Created with Inkscape (http://www.inkscape.org/) -->

<svg
   xmlns:dc="http://purl.org/dc/elements/1.1/"
   xmlns:cc="http://creativecommons.org/ns#"
   xmlns:rdf="http://www.w3.org/1999/02/22-rdf-syntax-ns#"
   xmlns:svg="http://www.w3.org/2000/svg"
   xmlns="http://www.w3.org/2000/svg"
   xmlns:sodipodi="http://sodipodi.sourceforge.net/DTD/sodipodi-0.dtd"
   xmlns:inkscape="http://www.inkscape.org/namespaces/inkscape"
   version="1.1"
   id="svg2"
   width="20"
   height="30"
   viewBox="0 0 20 30"
   sodipodi:docname="GreatAxe.svg"
   inkscape:version="0.92.4 (5da689c313, 2019-01-14)">
  <metadata
     id="metadata8">
    <rdf:RDF>
      <cc:Work
         rdf:about="">
        <dc:format>image/svg+xml</dc:format>
        <dc:type
           rdf:resource="http://purl.org/dc/dcmitype/StillImage" />
        <dc:title></dc:title>
      </cc:Work>
    </rdf:RDF>
  </metadata>
  <defs
     id="defs6" />
  <sodipodi:namedview
     pagecolor="#ffffff"
     bordercolor="#666666"
     borderopacity="1"
     objecttolerance="10"
     gridtolerance="10"
     guidetolerance="10"
     inkscape:pageopacity="0"
     inkscape:pageshadow="2"
     inkscape:window-width="1920"
     inkscape:window-height="1001"
     id="namedview4"
     showgrid="false"
     inkscape:zoom="22.250293"
     inkscape:cx="8.2547333"
     inkscape:cy="15.452587"
     inkscape:window-x="-9"
     inkscape:window-y="-9"
     inkscape:window-maximized="1"
     inkscape:current-layer="svg2" />
  <g
     id="g34"
     transform="scale(2)">
    <path
       style="fill:#000000;fill-opacity:0"
       d="M 0,0.5 V 0 H 0.5 1 1.5 2 L 1.875,0.375 Q 1.75,0.75 1.5,1 1.25,1.25 1,1.5 0.75,1.75 0.375,1.875 L 0,2 V 1.5 1 0.5"
       id="path12"
       inkscape:connector-curvature="0" />
    <path
       style="fill:#ff0000;fill-opacity:1"
       d="M 1.875,0.375 2,0 H 2.5 3 V 0.5 Q 3,1 3.125,1.375 3.25,1.75 3.5,2 3.75,2.25 3.875,2.625 L 4,3 3.625,2.875 Q 3.25,2.75 3,2.5 2.75,2.25 2.375,2.125 2,2 1.625,2.125 1.25,2.25 1.125,2.625 1,3 0.875,3.375 0.75,3.75 0.375,3.875 L 0,4 V 3.5 3 2.5 2 L 0.375,1.875 Q 0.75,1.75 1,1.5 1.25,1.25 1.5,1 1.75,0.75 1.875,0.375"
       id="path14"
       inkscape:connector-curvature="0" />
    <path
       style="fill:#000000;fill-opacity:0"
       d="M 3,0.5 V 0 H 3.5 4 4.5 5 5.5 6 6.5 7 V 0.5 Q 7,1 6.875,1.375 6.75,1.75 6.5,2 6.25,2.25 6.125,2.625 L 6,3 H 5.5 Q 5,3 4.5,3 H 4 L 3.875,2.625 Q 3.75,2.25 3.5,2 3.25,1.75 3.125,1.375 3,1 3,0.5"
       id="path16"
       inkscape:connector-curvature="0" />
    <path
       style="fill:#ff0000;fill-opacity:1"
       d="M 7,0.5 V 0 H 7.5 8 L 8.125,0.375 Q 8.25,0.75 8.5,1 8.75,1.25 9,1.5 9.25,1.75 9.625,1.875 L 10,2 V 2.5 3 3.5 4 L 9.625,3.875 Q 9.25,3.75 9.125,3.375 9,3 8.875,2.625 8.75,2.25 8.375,2.125 8,2 7.625,2.125 7.25,2.25 7,2.5 6.75,2.75 6.375,2.875 L 6,3 6.125,2.625 Q 6.25,2.25 6.5,2 6.75,1.75 6.875,1.375 7,1 7,0.5"
       id="path18"
       inkscape:connector-curvature="0" />
    <path
       style="fill:#000000;fill-opacity:0"
       d="M 8.125,0.375 8,0 H 8.5 9 9.5 10 V 0.5 1 1.5 2 L 9.625,1.875 Q 9.25,1.75 9,1.5 8.75,1.25 8.5,1 8.25,0.75 8.125,0.375"
       id="path20"
       inkscape:connector-curvature="0" />
    <path
       style="fill:#7f0000;fill-opacity:1"
       d="M 1.125,2.625 Q 1.25,2.25 1.625,2.125 2,2 2.375,2.125 2.75,2.25 3,2.5 3.25,2.75 3.625,2.875 L 4,3 V 3.5 Q 4,4 4,4.5 4,5 4,5.5 4,6 4,6.5 V 7 L 3.625,7.125 Q 3.25,7.25 3,7.5 2.75,7.75 2.375,7.875 2,8 1.625,7.875 1.25,7.75 1.125,7.375 1,7 0.875,6.625 0.75,6.25 0.375,6.125 L 0,6 V 5.5 5 4.5 4 L 0.375,3.875 Q 0.75,3.75 0.875,3.375 1,3 1.125,2.625 M 4,7.125 V 7 6.625 6.25 6.5 Q 4,6.75 4,7 V 7.25 7.125"
       id="path22"
       inkscape:connector-curvature="0" />
    <path
       style="fill:#7f0000;fill-opacity:1"
       d="M 7,2.5 Q 7.25,2.25 7.625,2.125 8,2 8.375,2.125 8.75,2.25 8.875,2.625 9,3 9.125,3.375 9.25,3.75 9.625,3.875 L 10,4 V 4.5 5 5.5 6 L 9.625,6.125 Q 9.25,6.25 9.125,6.625 9,7 8.875,7.375 8.75,7.75 8.375,7.875 8,8 7.625,7.875 7.25,7.75 7,7.5 6.75,7.25 6.375,7.125 L 6,7 V 6.5 Q 6,6 6,5.5 6,5 6,4.5 6,4 6,3.5 V 3 L 6.375,2.875 Q 6.75,2.75 7,2.5 M 6,6.625 V 7 7.125 7.25 7 Q 6,6.75 6,6.5 V 6.25 6.625"
       id="path24"
       inkscape:connector-curvature="0" />
    <path
       style="fill:#440000;fill-opacity:1"
       d="M 4,3.5 V 3 H 4.5 Q 5,3 5.5,3 H 6 v 0.5 q 0,0.5 0,1 0,0.5 0,1 0,0.5 0,1 0,0.5 0,1 0,0.5 0,1 0,0.5 0,1 0,0.5 0,1 0,0.5 0,1 0,0.5 0,1 0,0.5 -0.125,0.875 -0.125,0.375 -0.5,0.5 Q 5,14 4.625,13.875 4.25,13.75 4.125,13.375 4,13 4,12.5 4,12 4,11.5 4,11 4,10.5 4,10 4,9.5 4,9 4,8.5 4,8 4,7.5 4,7 4,6.5 4,6 4,5.5 4,5 4,4.5 4,4 4,3.5"
       id="path26"
       inkscape:connector-curvature="0" />
    <path
       style="fill:#ff0000;fill-opacity:1"
       d="M 0,6.5 V 6 L 0.375,6.125 Q 0.75,6.25 0.875,6.625 1,7 1.125,7.375 1.25,7.75 1.625,7.875 2,8 2.375,7.875 2.75,7.75 3,7.5 3.25,7.25 3.625,7.125 L 4,7 V 7.5 8 L 3.625,8.125 Q 3.25,8.25 3.125,8.625 3,9 2.875,9.375 2.75,9.75 2.5,9.75 2.25,9.75 2,9.5 1.75,9.25 1.5,9 1.25,8.75 1,8.5 0.75,8.25 0.375,8.125 L 0,8 V 7.5 7 6.5 M 4,8.125 V 8 7.625 7.25 7.5 Q 4,7.75 4,8 V 8.25 8.125 M 4,7.375 V 7 6.875 6.75 7 Q 4,7.25 4,7.5 V 7.75 7.375"
       id="path28"
       inkscape:connector-curvature="0" />
    <path
       style="fill:#ff0000;fill-opacity:1"
       d="M 9.125,6.625 Q 9.25,6.25 9.625,6.125 L 10,6 V 6.5 7 7.5 8 L 9.625,8.125 Q 9.25,8.25 9,8.5 8.75,8.75 8.5,9 8.25,9.25 8,9.5 7.75,9.75 7.5,9.75 7.25,9.75 7.125,9.375 7,9 6.875,8.625 6.75,8.25 6.375,8.125 L 6,8 V 7.5 7 L 6.375,7.125 Q 6.75,7.25 7,7.5 7.25,7.75 7.625,7.875 8,8 8.375,7.875 8.75,7.75 8.875,7.375 9,7 9.125,6.625 M 6,6.875 V 7 7.375 7.75 7.5 Q 6,7.25 6,7 V 6.75 6.875 m 0,0.75 V 8 8.125 8.25 8 Q 6,7.75 6,7.5 V 7.25 7.625"
       id="path30"
       inkscape:connector-curvature="0" />
    <path
       style="fill:#000000;fill-opacity:0"
       d="M 0,8.5 V 8 L 0.375,8.125 Q 0.75,8.25 1,8.5 1.25,8.75 1.5,9 1.75,9.25 2,9.5 2.25,9.75 2.5,9.75 2.75,9.75 2.875,9.375 3,9 3.125,8.625 3.25,8.25 3.625,8.125 L 4,8 v 0.5 q 0,0.5 0,1 0,0.5 0,1 0,0.5 0,1 0,0.5 0,1 0,0.5 0.125,0.875 0.125,0.375 0.5,0.5 0.375,0.125 0.75,0 0.375,-0.125 0.5,-0.5 Q 6,13 6,12.5 6,12 6,11.5 6,11 6,10.5 6,10 6,9.5 6,9 6,8.5 V 8 L 6.375,8.125 Q 6.75,8.25 6.875,8.625 7,9 7.125,9.375 7.25,9.75 7.5,9.75 7.75,9.75 8,9.5 8.25,9.25 8.5,9 8.75,8.75 9,8.5 9.25,8.25 9.625,8.125 L 10,8 V 8.5 9 9.5 10 10.5 11 11.5 12 12.5 13 13.5 14 14.5 15 H 9.5 9 8.5 8 7.5 7 6.5 6 5.5 5 4.5 4 3.5 3 2.5 2 1.5 1 0.5 0 V 14.5 14 13.5 13 12.5 12 11.5 11 10.5 10 9.5 9 8.5 M 6,7.875 V 8 8.375 8.75 8.5 Q 6,8.25 6,8 V 7.75 7.875 m -2,0.5 V 8 7.875 7.75 8 Q 4,8.25 4,8.5 V 8.75 8.375"
       id="path32"
       inkscape:connector-curvature="0" />
  </g>
</svg>
