<?xml version="1.0" encoding="UTF-8" standalone="no"?>
<!-- Created with Inkscape (http://www.inkscape.org/) -->

<svg
   xmlns:dc="http://purl.org/dc/elements/1.1/"
   xmlns:cc="http://creativecommons.org/ns#"
   xmlns:rdf="http://www.w3.org/1999/02/22-rdf-syntax-ns#"
   xmlns:svg="http://www.w3.org/2000/svg"
   xmlns="http://www.w3.org/2000/svg"
   xmlns:sodipodi="http://sodipodi.sourceforge.net/DTD/sodipodi-0.dtd"
   xmlns:inkscape="http://www.inkscape.org/namespaces/inkscape"
   version="1.1"
   id="svg2"
   width="20"
   height="30"
   viewBox="0 0 20 30"
   sodipodi:docname="Leaf.svg"
   inkscape:version="0.92.4 (5da689c313, 2019-01-14)">
  <metadata
     id="metadata8">
    <rdf:RDF>
      <cc:Work
         rdf:about="">
        <dc:format>image/svg+xml</dc:format>
        <dc:type
           rdf:resource="http://purl.org/dc/dcmitype/StillImage" />
        <dc:title></dc:title>
      </cc:Work>
    </rdf:RDF>
  </metadata>
  <defs
     id="defs6" />
  <sodipodi:namedview
     pagecolor="#ffffff"
     bordercolor="#666666"
     borderopacity="1"
     objecttolerance="10"
     gridtolerance="10"
     guidetolerance="10"
     inkscape:pageopacity="0"
     inkscape:pageshadow="2"
     inkscape:window-width="1920"
     inkscape:window-height="1001"
     id="namedview4"
     showgrid="false"
     inkscape:zoom="15.733333"
     inkscape:cx="5"
     inkscape:cy="7.5"
     inkscape:window-x="-9"
     inkscape:window-y="-9"
     inkscape:window-maximized="1"
     inkscape:current-layer="svg2" />
  <g
     id="g628"
     transform="scale(2)">
    <path
       style="fill:#ff4c00;fill-opacity:0.35686275"
       d="M 0,0.5 V 0 H 0.5 1 L 0.875,0.375 Q 0.75,0.75 0.375,0.875 L 0,1 V 0.5"
       id="path472"
       inkscape:connector-curvature="0" />
    <path
       style="fill:#ff4203;fill-opacity:0.33333333"
       d="M 0.875,0.375 1,0 H 1.5 2 V 0.5 1 L 1.625,1.125 1.25,1.25 1.53125,1.15625 1.8125,1.0625 1.625,1.125 Q 1.4375,1.1875 1.28125,1.28125 L 1.125,1.375 1.203125,1.328125 1.28125,1.28125 0.984375,0.984375 0.6875,0.6875 0.625,0.75 0.5625,0.8125 0.6875,0.6875 Q 0.8125,0.5625 0.875,0.375 L 0.9375,0.1875 0.84375,0.46875 0.75,0.75 0.875,0.375"
       id="path474"
       inkscape:connector-curvature="0" />
    <path
       style="fill:#000000;fill-opacity:0"
       d="M 2,0.5 V 0 H 2.5 3 3.5 4 4.5 5 5.5 6 6.5 7 7.5 8 8.5 9 9.5 10 V 0.5 1 1.5 2 2.5 3 3.5 4 4.5 5 5.5 6 6.5 7 7.5 8 8.5 9 9.5 10 10.5 11 11.5 12 12.5 13 H 9.5 Q 9,13 8.625,12.875 8.25,12.75 8.125,12.375 L 8,12 8.375,11.875 Q 8.75,11.75 8.875,11.375 9,11 9,10.5 9,10 9,9.5 V 9 8.5 Q 9,8 8.875,7.625 8.75,7.25 8.375,7.125 8,7 8,6.5 8,6 7.875,5.625 7.75,5.25 7.375,5.125 7,5 6.5,5 6,5 5.875,4.625 5.75,4.25 5.375,4.125 L 5,4 4.875,3.625 Q 4.75,3.25 4.375,3.125 4,3 3.875,2.625 3.75,2.25 3.375,2.125 3,2 2.875,1.625 2.75,1.25 2.375,1.125 L 2,1 V 0.5"
       id="path476"
       inkscape:connector-curvature="0" />
    <path
       style="fill:#ff4200;fill-opacity:0.55686275"
       d="M 0,1.5 V 1 L 0.375,0.875 0.75,0.75 0.46875,0.84375 0.1875,0.9375 0.375,0.875 Q 0.5625,0.8125 0.6875,0.6875 L 0.8125,0.5625 0.75,0.625 0.6875,0.6875 0.984375,0.984375 1.28125,1.28125 1.359375,1.234375 1.4375,1.1875 1.28125,1.28125 Q 1.125,1.375 1,1.5 L 0.875,1.625 1.0625,1.4375 1.25,1.25 1,1.5 Q 0.75,1.75 0.375,1.875 L 0,2 V 1.5"
       id="path478"
       inkscape:connector-curvature="0" />
    <path
       style="fill:#ff3300;fill-opacity:0.86666667"
       d="M 1,1.5 Q 1.25,1.25 1.625,1.125 L 2,1 2.125,1.375 2.25,1.75 2.15625,1.46875 2.0625,1.1875 2.125,1.375 Q 2.1875,1.5625 2.3125,1.6875 L 2.4375,1.8125 2.375,1.75 2.3125,1.6875 2.015625,2.015625 1.71875,2.34375 1.765625,2.390625 1.8125,2.4375 1.71875,2.34375 Q 1.625,2.25 1.5,2.25 H 1.375 1.5625 1.75 1.5 1.25 1.4375 1.625 1.5 q -0.125,0 -0.21875,0.09375 L 1.1875,2.4375 1.234375,2.390625 1.28125,2.34375 1,2.03125 0.71875,1.71875 0.640625,1.765625 0.5625,1.8125 0.71875,1.71875 Q 0.875,1.625 1,1.5 L 1.125,1.375 0.9375,1.5625 0.75,1.75 1,1.5"
       id="path480"
       inkscape:connector-curvature="0" />
    <path
       style="fill:#b66d24;fill-opacity:0.02745098"
       d="M 2.125,1.375 2,1 2.375,1.125 q 0.375,0.125 0.5,0.5 L 3,2 2.90625,1.71875 2.8125,1.4375 2.875,1.625 Q 2.9375,1.8125 3.0625,1.9375 L 3.1875,2.0625 3.125,2 3.0625,1.9375 2.65625,1.84375 Q 2.25,1.75 2.125,1.375"
       id="path482"
       inkscape:connector-curvature="0" />
    <path
       style="fill:#ff3f00;fill-opacity:0.65490196"
       d="M 0,2.5 V 2 L 0.375,1.875 0.75,1.75 0.46875,1.84375 0.1875,1.9375 0.375,1.875 Q 0.5625,1.8125 0.71875,1.71875 L 0.875,1.625 0.796875,1.671875 0.71875,1.71875 1,2.03125 1.28125,2.34375 1.328125,2.296875 1.375,2.25 1.28125,2.34375 Q 1.1875,2.4375 1.125,2.625 L 1.0625,2.8125 1.15625,2.53125 1.25,2.25 1.125,2.625 1,3 H 0.5 0 V 2.5"
       id="path484"
       inkscape:connector-curvature="0" />
    <path
       style="fill:#ff2f00;fill-opacity:1"
       d="M 1.125,2.625 Q 1.25,2.25 1.5,2.25 q 0.25,0 0.375,0.375 L 2,3 H 1.5 1 L 1.125,2.625"
       id="path486"
       inkscape:connector-curvature="0" />
    <path
       style="fill:#ff3100;fill-opacity:0.70980392"
       d="M 1.875,2.625 1.75,2.25 1.84375,2.53125 1.9375,2.8125 1.875,2.625 Q 1.8125,2.4375 1.71875,2.34375 L 1.625,2.25 1.671875,2.296875 1.71875,2.34375 2.015625,2.015625 2.3125,1.6875 2.25,1.625 2.1875,1.5625 2.3125,1.6875 Q 2.4375,1.8125 2.625,1.875 L 2.8125,1.9375 2.53125,1.84375 2.25,1.75 2.65625,1.84375 3.0625,1.9375 2.90625,2.34375 Q 2.75,2.75 2.375,2.875 L 2,3 1.875,2.625"
       id="path488"
       inkscape:connector-curvature="0" />
    <path
       style="fill:#ff2b00;fill-opacity:0.02352941"
       d="M 2.90625,2.34375 3.0625,1.9375 3,1.875 2.9375,1.8125 3.0625,1.9375 Q 3.1875,2.0625 3.375,2.125 L 3.5625,2.1875 3.28125,2.09375 3,2 3.375,2.125 q 0.375,0.125 0.5,0.5 L 4,3 3.90625,2.71875 3.8125,2.4375 3.875,2.625 Q 3.9375,2.8125 4.0625,2.9375 L 4.1875,3.0625 4.125,3 4.0625,2.9375 3.65625,3.09375 3.25,3.25 3.53125,3.15625 3.8125,3.0625 3.625,3.125 Q 3.4375,3.1875 3.3125,3.3125 L 3.1875,3.4375 3.25,3.375 3.3125,3.3125 3,3 2.6875,2.6875 2.625,2.75 2.5625,2.8125 2.6875,2.6875 Q 2.8125,2.5625 2.875,2.375 L 2.9375,2.1875 2.84375,2.46875 2.75,2.75 2.90625,2.34375"
       id="path490"
       inkscape:connector-curvature="0" />
    <path
       style="fill:#ff4300;fill-opacity:0.81176471"
       d="M 0,3.5 V 3 H 0.5 1 V 3.5 4 H 0.5 0 V 3.5"
       id="path492"
       inkscape:connector-curvature="0" />
    <path
       style="fill:#ff2a00;fill-opacity:1"
       d="M 1,3.5 V 3 H 1.5 2 V 3.5 4 H 1.5 1 V 3.5"
       id="path494"
       inkscape:connector-curvature="0" />
    <path
       style="fill:#ff2400;fill-opacity:1"
       d="M 2,3.5 V 3 L 2.375,2.875 2.75,2.75 2.46875,2.84375 2.1875,2.9375 2.375,2.875 Q 2.5625,2.8125 2.6875,2.6875 L 2.8125,2.5625 2.75,2.625 2.6875,2.6875 3,3 3.3125,3.3125 3.375,3.25 3.4375,3.1875 3.3125,3.3125 Q 3.1875,3.4375 3.125,3.625 L 3.0625,3.8125 3.15625,3.53125 3.25,3.25 3.125,3.625 3,4 H 2.5 2 V 3.5"
       id="path496"
       inkscape:connector-curvature="0" />
    <path
       style="fill:#ff2100;fill-opacity:0.77647059"
       d="M 3.125,3.625 Q 3.25,3.25 3.65625,3.09375 L 4.0625,2.9375 4.15625,3.34375 4.25,3.75 4.15625,3.46875 4.0625,3.1875 4.125,3.375 Q 4.1875,3.5625 4.3125,3.6875 L 4.4375,3.8125 4.375,3.75 4.3125,3.6875 4,4 3.6875,4.3125 3.75,4.375 3.8125,4.4375 3.6875,4.3125 Q 3.5625,4.1875 3.375,4.125 L 3.1875,4.0625 3.46875,4.15625 3.75,4.25 3.375,4.125 3,4 3.125,3.625"
       id="path498"
       inkscape:connector-curvature="0" />
    <path
       style="fill:#ff331a;fill-opacity:0.07843137"
       d="M 4.15625,3.34375 4.0625,2.9375 4,2.875 3.9375,2.8125 4.0625,2.9375 Q 4.1875,3.0625 4.375,3.125 L 4.5625,3.1875 4.28125,3.09375 4,3 4.375,3.125 q 0.375,0.125 0.5,0.5 L 5,4 4.625,3.875 Q 4.25,3.75 4.15625,3.34375"
       id="path500"
       inkscape:connector-curvature="0" />
    <path
       style="fill:#ff4400;fill-opacity:0.82745098"
       d="M 0,4.5 V 4 H 0.5 1 V 4.5 5 H 0.5 0 V 4.5"
       id="path502"
       inkscape:connector-curvature="0" />
    <path
       style="fill:#ff2900;fill-opacity:1"
       d="M 1,4.5 V 4 H 1.5 2 L 1.875,4.375 Q 1.75,4.75 2.015625,5.046875 L 2.28125,5.34375 2.328125,5.296875 2.375,5.25 2.28125,5.34375 Q 2.1875,5.4375 2.125,5.625 L 2.0625,5.8125 2.15625,5.53125 2.25,5.25 2.125,5.625 2,6 2.125,6.375 2.25,6.75 2.15625,6.46875 2.0625,6.1875 2.125,6.375 Q 2.1875,6.5625 2.28125,6.71875 L 2.375,6.875 2.328125,6.796875 2.28125,6.71875 2.015625,6.984375 Q 1.75,7.25 1.375,7.125 L 1,7 V 6.5 6 5.5 5 4.5"
       id="path504"
       inkscape:connector-curvature="0" />
    <path
       style="fill:#ff2500;fill-opacity:1"
       d="M 1.875,4.375 2,4 H 2.5 3 L 3.125,4.375 Q 3.25,4.75 2.984375,5.046875 L 2.71875,5.34375 2.765625,5.390625 2.8125,5.4375 2.71875,5.34375 Q 2.625,5.25 2.5,5.25 H 2.375 2.5625 2.75 2.5 2.25 2.4375 2.625 2.5 q -0.125,0 -0.21875,0.09375 L 2.1875,5.4375 2.234375,5.390625 2.28125,5.34375 2.015625,5.046875 Q 1.75,4.75 1.875,4.375"
       id="path506"
       inkscape:connector-curvature="0" />
    <path
       style="fill:#ff1b00;fill-opacity:1"
       d="M 3.125,4.375 3,4 3.375,4.125 q 0.375,0.125 0.5,0.5 L 4,5 V 5.5 6 H 3.5 3 L 2.875,5.625 2.75,5.25 2.84375,5.53125 2.9375,5.8125 2.875,5.625 Q 2.8125,5.4375 2.71875,5.34375 L 2.625,5.25 2.671875,5.296875 2.71875,5.34375 2.984375,5.046875 Q 3.25,4.75 3.125,4.375"
       id="path508"
       inkscape:connector-curvature="0" />
    <path
       style="fill:#ff1c00;fill-opacity:0.91764706"
       d="M 3.875,4.625 3.75,4.25 3.84375,4.53125 3.9375,4.8125 3.875,4.625 Q 3.8125,4.4375 3.6875,4.3125 L 3.5625,4.1875 3.625,4.25 3.6875,4.3125 4,4 4.3125,3.6875 4.25,3.625 4.1875,3.5625 4.3125,3.6875 Q 4.4375,3.8125 4.625,3.875 L 4.8125,3.9375 4.53125,3.84375 4.25,3.75 4.625,3.875 5,4 5.125,4.375 5.25,4.75 5.15625,4.46875 5.0625,4.1875 5.125,4.375 Q 5.1875,4.5625 5.3125,4.6875 L 5.4375,4.8125 5.375,4.75 5.3125,4.6875 5.03125,4.96875 Q 4.75,5.25 4.375,5.125 L 4,5 3.875,4.625"
       id="path510"
       inkscape:connector-curvature="0" />
    <path
       style="fill:#ff340c;fill-opacity:0.25098039"
       d="M 5.125,4.375 5,4 5.375,4.125 q 0.375,0.125 0.5,0.5 L 6,5 5.90625,4.71875 5.8125,4.4375 5.875,4.625 Q 5.9375,4.8125 6.09375,4.90625 L 6.25,5 6.171875,4.953125 6.09375,4.90625 5.671875,4.828125 Q 5.25,4.75 5.125,4.375"
       id="path512"
       inkscape:connector-curvature="0" />
    <path
       style="fill:#ff3e00;fill-opacity:0.69019608"
       d="M 0,5.5 V 5 H 0.5 1 V 5.5 6 H 0.5 0 V 5.5"
       id="path514"
       inkscape:connector-curvature="0" />
    <path
       style="fill:#ff3c04;fill-opacity:1"
       d="M 2.125,5.625 Q 2.25,5.25 2.5,5.25 q 0.25,0 0.375,0.375 L 3,6 H 2.5 2 L 2.125,5.625"
       id="path516"
       inkscape:connector-curvature="0" />
    <path
       style="fill:#ff1400;fill-opacity:1"
       d="M 4,5.5 V 5 L 4.375,5.125 Q 4.75,5.25 5.03125,4.96875 L 5.3125,4.6875 5.25,4.625 5.1875,4.5625 5.3125,4.6875 Q 5.4375,4.8125 5.625,4.875 L 5.8125,4.9375 5.53125,4.84375 5.25,4.75 5.671875,4.828125 6.09375,4.90625 6.046875,5.453125 6,6 H 5.5 Q 5,6 5,6.5 V 7 L 4.625,6.875 Q 4.25,6.75 4.125,6.375 L 4,6 V 5.5"
       id="path518"
       inkscape:connector-curvature="0" />
    <path
       style="fill:#ff1600;fill-opacity:0.49803922"
       d="M 6.046875,5.453125 6.09375,4.90625 6.015625,4.859375 5.9375,4.8125 6.09375,4.90625 Q 6.25,5 6.5,5 H 6.75 6.375 6 6.5 7 6.625 6.25 6.5 Q 6.75,5 6.96875,5.03125 L 7.1875,5.0625 7.078125,5.046875 6.96875,5.03125 6.984375,5.515625 7,6 V 5.625 5.25 5.5 Q 7,5.75 7.125,5.875 L 7.25,6 7.1875,5.9375 7.125,5.875 6.5625,5.9375 6,6 6.046875,5.453125"
       id="path520"
       inkscape:connector-curvature="0" />
    <path
       style="fill:#ff00ff;fill-opacity:0.00392157"
       d="M 6.984375,5.515625 6.96875,5.03125 6.859375,5.015625 6.75,5 6.96875,5.03125 Q 7.1875,5.0625 7.375,5.125 L 7.5625,5.1875 7.28125,5.09375 7,5 7.375,5.125 q 0.375,0.125 0.5,0.5 L 8,6 7.90625,5.71875 7.8125,5.4375 7.875,5.625 Q 7.9375,5.8125 7.96875,6.03125 L 8,6.25 7.984375,6.140625 7.96875,6.03125 7.484375,6.015625 Q 7,6 6.984375,5.515625"
       id="path522"
       inkscape:connector-curvature="0" />
    <path
       style="fill:#ff4500;fill-opacity:0.58039216"
       d="M 0,6.5 V 6 H 0.5 1 V 6.5 7 H 0.5 0 V 6.5"
       id="path524"
       inkscape:connector-curvature="0" />
    <path
       style="fill:#ff3900;fill-opacity:0.96470588"
       d="M 2.125,6.375 2,6 H 2.5 3 L 3.125,6.375 3.25,6.75 3.15625,6.46875 3.0625,6.1875 3.125,6.375 Q 3.1875,6.5625 3.28125,6.71875 L 3.375,6.875 3.328125,6.796875 3.28125,6.71875 3,7 2.71875,7.28125 2.765625,7.359375 2.8125,7.4375 2.71875,7.28125 Q 2.625,7.125 2.5,7 L 2.375,6.875 2.5625,7.0625 2.75,7.25 2.5,7 Q 2.25,6.75 2.125,6.375"
       id="path526"
       inkscape:connector-curvature="0" />
    <path
       style="fill:#ff2000;fill-opacity:0.8627451"
       d="M 3.125,6.375 3,6 H 3.5 4 L 4.125,6.375 4.25,6.75 4.15625,6.46875 4.0625,6.1875 4.125,6.375 Q 4.1875,6.5625 4.3125,6.6875 L 4.4375,6.8125 4.375,6.75 4.3125,6.6875 4.03125,6.96875 3.75,7.25 3.5,7 Q 3.25,6.75 3.125,6.375 M 3.5625,7.0625 3.75,7.25 3.8125,7.3125 3.875,7.375 3.75,7.25 Q 3.625,7.125 3.5,7 L 3.375,6.875 3.5625,7.0625"
       id="path528"
       inkscape:connector-curvature="0" />
    <path
       style="fill:#ff0a00;fill-opacity:1"
       d="M 5,6.5 Q 5,6 5.5,6 H 6 V 6.5 7 H 5.5 5 V 6.5"
       id="path530"
       inkscape:connector-curvature="0" />
    <path
       style="fill:#ff0800;fill-opacity:1"
       d="M 6,6.5 V 6 L 6.5625,5.9375 7.125,5.875 7.0625,6.4375 7,7 H 6.5 6 V 6.5"
       id="path532"
       inkscape:connector-curvature="0" />
    <path
       style="fill:#ff0300;fill-opacity:0.59215686"
       d="M 7.0625,6.4375 7.125,5.875 7.0625,5.8125 7,5.75 7.125,5.875 Q 7.25,6 7.5,6 H 7.75 7.375 7 L 7.484375,6.015625 7.96875,6.03125 7.953125,5.921875 7.9375,5.8125 7.96875,6.03125 Q 8,6.25 8,6.5 V 6.75 6.375 6 6.5 7 6.625 6.25 6.5 Q 8,6.75 8.09375,6.90625 L 8.1875,7.0625 8.140625,6.984375 8.09375,6.90625 7.546875,6.953125 7,7 7.0625,6.4375"
       id="path534"
       inkscape:connector-curvature="0" />
    <path
       style="fill:#ff4500;fill-opacity:0.31764706"
       d="M 0,7.5 V 7 H 0.5 1 V 7.5 8 H 0.5 0 V 7.5 M 1,8.125 V 8 7.625 7.25 7.5 Q 1,7.75 1,8 V 8.25 8.125"
       id="path536"
       inkscape:connector-curvature="0" />
    <path
       style="fill:#ff2a00;fill-opacity:1"
       d="M 1,7.5 V 7 L 1.375,7.125 Q 1.75,7.25 2.015625,6.984375 L 2.28125,6.71875 2.234375,6.640625 2.1875,6.5625 2.28125,6.71875 Q 2.375,6.875 2.5,7 L 2.625,7.125 2.4375,6.9375 2.25,6.75 2.5,7 Q 2.75,7.25 2.875,7.625 L 3,8 H 2.5 2 1.5 1 V 7.5"
       id="path538"
       inkscape:connector-curvature="0" />
    <path
       style="fill:#ff2f03;fill-opacity:0.61568627"
       d="M 2.875,7.625 2.75,7.25 2.84375,7.53125 2.9375,7.8125 2.875,7.625 Q 2.8125,7.4375 2.71875,7.28125 L 2.625,7.125 2.671875,7.203125 2.71875,7.28125 3,7 3.28125,6.71875 3.234375,6.640625 3.1875,6.5625 3.28125,6.71875 Q 3.375,6.875 3.5,7 L 3.625,7.125 3.4375,6.9375 3.25,6.75 3.5,7 Q 3.75,7.25 4,7.5 L 4.25,7.75 3.984375,8.015625 3.71875,8.28125 3.796875,8.328125 3.875,8.375 3.71875,8.28125 Q 3.5625,8.1875 3.375,8.125 L 3.1875,8.0625 3.46875,8.15625 3.75,8.25 3.375,8.125 3,8 2.875,7.625 M 4.3125,7.8125 4.25,7.75 4.0625,7.5625 3.875,7.375 4,7.5 Q 4.125,7.625 4.25,7.75 L 4.375,7.875 4.3125,7.8125"
       id="path540"
       inkscape:connector-curvature="0" />
    <path
       style="fill:#ff1500;fill-opacity:1"
       d="M 4,7.5 3.75,7.25 4.03125,6.96875 4.3125,6.6875 4.25,6.625 4.1875,6.5625 4.3125,6.6875 Q 4.4375,6.8125 4.625,6.875 L 4.8125,6.9375 4.53125,6.84375 4.25,6.75 4.625,6.875 5,7 5.125,7.375 5.25,7.75 5.15625,7.46875 5.0625,7.1875 5.125,7.375 Q 5.1875,7.5625 5.3125,7.6875 L 5.4375,7.8125 5.375,7.75 5.3125,7.6875 5.03125,7.96875 4.75,8.25 4.5,8 Q 4.25,7.75 4,7.5 M 4.5625,8.0625 4.75,8.25 4.8125,8.3125 4.875,8.375 4.75,8.25 Q 4.625,8.125 4.5,8 L 4.375,7.875 4.5625,8.0625 M 3.6875,7.1875 3.75,7.25 3.9375,7.4375 4.125,7.625 4,7.5 Q 3.875,7.375 3.75,7.25 L 3.625,7.125 3.6875,7.1875"
       id="path542"
       inkscape:connector-curvature="0" />
    <path
       style="fill:#ff0e00;fill-opacity:1"
       d="M 5.125,7.375 5,7 H 5.5 6 V 7.5 8 L 5.625,7.875 Q 5.25,7.75 5.125,7.375"
       id="path544"
       inkscape:connector-curvature="0" />
    <path
       style="fill:#ff0400;fill-opacity:1"
       d="M 6,7.5 V 7 H 6.5 7 V 7.5 8 H 6.5 6 V 7.5"
       id="path546"
       inkscape:connector-curvature="0" />
    <path
       style="fill:#ff0000;fill-opacity:0.99607843"
       d="M 7,7.5 V 7 L 7.546875,6.953125 8.09375,6.90625 8.171875,7.328125 8.25,7.75 8.15625,7.46875 8.0625,7.1875 8.125,7.375 Q 8.1875,7.5625 8.3125,7.6875 L 8.4375,7.8125 8.375,7.75 8.3125,7.6875 8,8 7.6875,8.3125 7.75,8.375 7.8125,8.4375 7.6875,8.3125 Q 7.5625,8.1875 7.375,8.125 L 7.1875,8.0625 7.46875,8.15625 7.75,8.25 7.375,8.125 7,8 V 7.5"
       id="path548"
       inkscape:connector-curvature="0" />
    <path
       style="fill:#ff2b13;fill-opacity:0.25882353"
       d="M 8.171875,7.328125 8.09375,6.90625 8.046875,6.828125 8,6.75 8.09375,6.90625 Q 8.1875,7.0625 8.375,7.125 L 8.5625,7.1875 8.28125,7.09375 8,7 8.375,7.125 q 0.375,0.125 0.5,0.5 L 9,8 8.90625,7.71875 8.8125,7.4375 8.875,7.625 Q 8.9375,7.8125 8.96875,8.03125 L 9,8.25 8.984375,8.140625 8.96875,8.03125 8.609375,7.890625 Q 8.25,7.75 8.171875,7.328125"
       id="path550"
       inkscape:connector-curvature="0" />
    <path
       style="fill:#ff4d4d;fill-opacity:0.03921569"
       d="M 0,8.5 V 8 H 0.5 1 L 0.953125,8.546875 0.90625,9.09375 0.984375,9.140625 1.0625,9.1875 0.90625,9.09375 Q 0.75,9 0.5,9 H 0.25 0.625 1 0.5 0 V 8.5 M 1,8.375 V 8 7.875 7.75 8 Q 1,8.25 1,8.5 V 8.75 8.375"
       id="path552"
       inkscape:connector-curvature="0" />
    <path
       style="fill:#ff3200;fill-opacity:0.91764706"
       d="M 0.953125,8.546875 1,8 H 1.5 2 L 2.125,8.375 2.25,8.75 2.15625,8.46875 2.0625,8.1875 2.125,8.375 Q 2.1875,8.5625 2.28125,8.65625 L 2.375,8.75 2.328125,8.703125 2.28125,8.65625 2,8.96875 1.71875,9.28125 1.796875,9.328125 1.875,9.375 1.71875,9.28125 Q 1.5625,9.1875 1.375,9.125 L 1.1875,9.0625 1.46875,9.15625 1.75,9.25 1.328125,9.171875 0.90625,9.09375 0.953125,8.546875"
       id="path554"
       inkscape:connector-curvature="0" />
    <path
       style="fill:#ff2400;fill-opacity:1"
       d="M 2.125,8.375 2,8 H 2.5 3 L 2.875,8.375 Q 2.75,8.75 2.5,8.75 2.25,8.75 2.125,8.375"
       id="path556"
       inkscape:connector-curvature="0" />
    <path
       style="fill:#ff2700;fill-opacity:0.88235294"
       d="M 2.875,8.375 3,8 3.375,8.125 Q 3.75,8.25 4,8.5 L 4.25,8.75 4,9.03125 3.75,9.3125 3.8125,9.34375 3.875,9.375 3.75,9.3125 Q 3.625,9.25 3.5,9.25 H 3.375 3.5625 3.75 3.5 3.25 3.4375 3.625 3.5 q -0.125,0 -0.21875,0.09375 L 3.1875,9.4375 3.234375,9.390625 3.28125,9.34375 3,9 2.71875,8.65625 2.671875,8.703125 2.625,8.75 2.71875,8.65625 Q 2.8125,8.5625 2.875,8.375 L 2.9375,8.1875 2.84375,8.46875 2.75,8.75 2.875,8.375 M 4.3125,8.8125 4.25,8.75 4.0625,8.5625 3.875,8.375 4,8.5 Q 4.125,8.625 4.25,8.75 L 4.375,8.875 4.3125,8.8125"
       id="path558"
       inkscape:connector-curvature="0" />
    <path
       style="fill:#ff2200;fill-opacity:0.68627451"
       d="M 4,8.5 3.75,8.25 3.9375,8.4375 4.125,8.625 4,8.5 Q 3.875,8.375 3.71875,8.28125 L 3.5625,8.1875 3.640625,8.234375 3.71875,8.28125 3.984375,8.015625 4.25,7.75 4.5,8 Q 4.75,8.25 5,8.5 L 5.25,8.75 4.96875,9 4.6875,9.25 4.71875,9.3125 4.75,9.375 4.6875,9.25 Q 4.625,9.125 4.5,9 L 4.375,8.875 4.5625,9.0625 4.75,9.25 4.5,9 Q 4.25,8.75 4,8.5 M 5.3125,8.8125 5.25,8.75 5.0625,8.5625 4.875,8.375 5,8.5 Q 5.125,8.625 5.25,8.75 L 5.375,8.875 5.3125,8.8125 M 4.4375,7.9375 4.25,7.75 4.1875,7.6875 4.125,7.625 4.25,7.75 Q 4.375,7.875 4.5,8 L 4.625,8.125 4.4375,7.9375"
       id="path560"
       inkscape:connector-curvature="0" />
    <path
       style="fill:#ff0f00;fill-opacity:1"
       d="M 5,8.5 4.75,8.25 5.03125,7.96875 5.3125,7.6875 5.25,7.625 5.1875,7.5625 5.3125,7.6875 Q 5.4375,7.8125 5.625,7.875 L 5.8125,7.9375 5.53125,7.84375 5.25,7.75 5.625,7.875 6,8 6.125,8.375 Q 6.25,8.75 5.984375,9.015625 L 5.71875,9.28125 5.765625,9.359375 5.8125,9.4375 5.71875,9.28125 Q 5.625,9.125 5.5,9 L 5.375,8.875 5.5625,9.0625 5.75,9.25 5.5,9 Q 5.25,8.75 5,8.5 M 4.6875,8.1875 4.75,8.25 4.9375,8.4375 5.125,8.625 5,8.5 Q 4.875,8.375 4.75,8.25 L 4.625,8.125 4.6875,8.1875"
       id="path562"
       inkscape:connector-curvature="0" />
    <path
       style="fill:#ff0200;fill-opacity:1"
       d="M 6.125,8.375 6,8 H 6.5 7 V 8.5 Q 7,9 7,9.5 V 10 H 6.5 6 L 5.875,9.625 5.75,9.25 5.84375,9.53125 5.9375,9.8125 5.875,9.625 Q 5.8125,9.4375 5.71875,9.28125 L 5.625,9.125 5.671875,9.203125 5.71875,9.28125 5.984375,9.015625 Q 6.25,8.75 6.125,8.375"
       id="path564"
       inkscape:connector-curvature="0" />
    <path
       style="fill:#ff0000;fill-opacity:1"
       d="M 7,8.5 V 8 l 0.375,0.125 q 0.375,0.125 0.5,0.5 L 8,9 7.875,9.375 Q 7.75,9.75 8.03125,10.03125 L 8.3125,10.3125 8.375,10.25 8.4375,10.1875 8.3125,10.3125 Q 8.1875,10.4375 8.125,10.625 L 8.0625,10.8125 8.15625,10.53125 8.25,10.25 8.125,10.625 8,11 7.625,10.875 Q 7.25,10.75 7.125,10.375 L 7,10 V 9.5 Q 7,9 7,8.5"
       id="path566"
       inkscape:connector-curvature="0" />
    <path
       style="fill:#ff0000;fill-opacity:0.44705882"
       d="M 7.875,8.625 7.75,8.25 7.84375,8.53125 7.9375,8.8125 7.875,8.625 Q 7.8125,8.4375 7.6875,8.3125 L 7.5625,8.1875 7.625,8.25 7.6875,8.3125 8,8 8.3125,7.6875 8.25,7.625 8.1875,7.5625 8.3125,7.6875 Q 8.4375,7.8125 8.625,7.875 L 8.8125,7.9375 8.53125,7.84375 8.25,7.75 8.609375,7.890625 8.96875,8.03125 8.953125,7.921875 8.9375,7.8125 8.96875,8.03125 Q 9,8.25 9,8.5 V 8.75 8.375 8 8.5 9 H 8.5 8 L 7.875,8.625"
       id="path568"
       inkscape:connector-curvature="0" />
    <path
       style="fill:#000000;fill-opacity:0"
       d="M 0,9.5 V 9 H 0.5 Q 1,9 1.125,9.375 1.25,9.75 1.5,10 1.75,10.25 2,10.5 L 2.25,10.75 2,11 Q 1.75,11.25 1.875,11.625 2,12 2.375,12.125 2.75,12.25 3.015625,11.984375 L 3.28125,11.71875 3.203125,11.671875 3.125,11.625 3.28125,11.71875 Q 3.4375,11.8125 3.625,11.875 L 3.8125,11.9375 3.53125,11.84375 3.25,11.75 3.625,11.875 4,12 4.125,12.375 q 0.125,0.375 0.5,0.5 Q 5,13 5.5,13 6,13 6.5,13 7,13 7.125,13.375 7.25,13.75 7.5,14 7.75,14.25 7.875,14.625 L 8,15 H 7.5 7 6.5 6 5.5 5 4.5 4 3.5 3 2.5 2 1.5 1 0.5 0 V 14.5 14 13.5 13 12.5 12 11.5 11 10.5 10 9.5 M 2.3125,10.8125 2.25,10.75 2.0625,10.5625 1.875,10.375 2,10.5 q 0.125,0.125 0.25,0.25 l 0.125,0.125 -0.0625,-0.0625"
       id="path570"
       inkscape:connector-curvature="0" />
    <path
       style="fill:#ff3e00;fill-opacity:0.41960784"
       d="M 1.125,9.375 1,9 1.09375,9.28125 1.1875,9.5625 1.125,9.375 Q 1.0625,9.1875 0.90625,9.09375 L 0.75,9 0.828125,9.046875 0.90625,9.09375 1.328125,9.171875 Q 1.75,9.25 2,9.5 L 2.25,9.75 2.0625,9.5625 1.875,9.375 2,9.5 Q 2.125,9.625 2.28125,9.71875 L 2.4375,9.8125 2.359375,9.765625 2.28125,9.71875 2.015625,9.984375 1.75,10.25 1.5,10 Q 1.25,9.75 1.125,9.375 M 1.5625,10.0625 1.75,10.25 1.8125,10.3125 1.875,10.375 1.75,10.25 Q 1.625,10.125 1.5,10 L 1.375,9.875 1.5625,10.0625"
       id="path572"
       inkscape:connector-curvature="0" />
    <path
       style="fill:#ff2a00;fill-opacity:1"
       d="M 2,9.5 1.75,9.25 1.9375,9.4375 2.125,9.625 2,9.5 Q 1.875,9.375 1.71875,9.28125 L 1.5625,9.1875 1.640625,9.234375 1.71875,9.28125 2,8.96875 2.28125,8.65625 2.234375,8.609375 2.1875,8.5625 2.28125,8.65625 Q 2.375,8.75 2.5,8.75 H 2.625 2.4375 2.25 2.5 2.75 2.5625 2.375 2.5 q 0.125,0 0.21875,-0.09375 L 2.8125,8.5625 2.765625,8.609375 2.71875,8.65625 3,9 3.28125,9.34375 3.328125,9.296875 3.375,9.25 3.28125,9.34375 Q 3.1875,9.4375 3.125,9.625 L 3.0625,9.8125 3.15625,9.53125 3.25,9.25 3.125,9.625 3,10 2.625,9.875 Q 2.25,9.75 2,9.5"
       id="path574"
       inkscape:connector-curvature="0" />
    <path
       style="fill:#ff1a00;fill-opacity:1"
       d="M 3.125,9.625 Q 3.25,9.25 3.5,9.25 3.75,9.25 4,9.5 L 4.25,9.75 4.0625,9.5625 3.875,9.375 4,9.5 Q 4.125,9.625 4.25,9.6875 L 4.375,9.75 4.3125,9.71875 4.25,9.6875 3.984375,9.984375 3.71875,10.28125 3.796875,10.328125 3.875,10.375 3.71875,10.28125 Q 3.5625,10.1875 3.375,10.125 L 3.1875,10.0625 3.46875,10.15625 3.75,10.25 3.375,10.125 3,10 3.125,9.625"
       id="path576"
       inkscape:connector-curvature="0" />
    <path
       style="fill:#ff3000;fill-opacity:0.65098039"
       d="M 4,9.5 3.75,9.25 3.9375,9.4375 4.125,9.625 4,9.5 Q 3.875,9.375 3.75,9.3125 L 3.625,9.25 3.6875,9.28125 3.75,9.3125 4,9.03125 4.25,8.75 4.5,9 Q 4.75,9.25 4.75,9.5 4.75,9.75 4.5,9.75 4.25,9.75 4,9.5 M 4.4375,8.9375 4.25,8.75 4.1875,8.6875 4.125,8.625 4.25,8.75 Q 4.375,8.875 4.5,9 L 4.625,9.125 4.4375,8.9375"
       id="path578"
       inkscape:connector-curvature="0" />
    <path
       style="fill:#ff1500;fill-opacity:0.88627451"
       d="M 4.75,9.5 V 9.25 9.4375 9.625 9.5 Q 4.75,9.375 4.6875,9.25 L 4.625,9.125 4.65625,9.1875 4.6875,9.25 4.96875,9 5.25,8.75 5.5,9 Q 5.75,9.25 5.875,9.625 L 6,10 5.625,10.125 5.25,10.25 5.53125,10.15625 5.8125,10.0625 5.625,10.125 Q 5.4375,10.1875 5.28125,10.28125 L 5.125,10.375 5.203125,10.328125 5.28125,10.28125 4.984375,9.984375 4.6875,9.6875 4.65625,9.71875 4.625,9.75 4.6875,9.6875 Q 4.75,9.625 4.75,9.5 V 9.375 9.5625 9.75 9.5 M 5.4375,8.9375 5.25,8.75 5.1875,8.6875 5.125,8.625 5.25,8.75 Q 5.375,8.875 5.5,9 L 5.625,9.125 5.4375,8.9375"
       id="path580"
       inkscape:connector-curvature="0" />
    <path
       style="fill:#ff0900;fill-opacity:0.44705882"
       d="M 7.875,9.375 8,9 H 8.5 9 V 9.5 10 L 8.625,10.125 8.25,10.25 8.53125,10.15625 8.8125,10.0625 8.625,10.125 Q 8.4375,10.1875 8.3125,10.3125 L 8.1875,10.4375 8.25,10.375 8.3125,10.3125 8.03125,10.03125 Q 7.75,9.75 7.875,9.375 M 9,10.125 V 10 9.625 9.25 9.5 Q 9,9.75 9,10 v 0.25 -0.125"
       id="path582"
       inkscape:connector-curvature="0" />
    <path
       style="fill:#ff3700;fill-opacity:0.67843137"
       d="M 2,10.5 1.75,10.25 2.015625,9.984375 2.28125,9.71875 2.203125,9.671875 2.125,9.625 2.28125,9.71875 Q 2.4375,9.8125 2.625,9.875 L 2.8125,9.9375 2.53125,9.84375 2.25,9.75 2.625,9.875 3,10 3.125,10.375 3.25,10.75 3.15625,10.46875 3.0625,10.1875 3.125,10.375 q 0.0625,0.1875 0.15625,0.34375 L 3.375,10.875 3.328125,10.796875 3.28125,10.71875 3.015625,10.984375 2.75,11.25 2.5,11 Q 2.25,10.75 2,10.5 M 2.5625,11.0625 2.75,11.25 2.8125,11.3125 2.875,11.375 2.75,11.25 Q 2.625,11.125 2.5,11 L 2.375,10.875 2.5625,11.0625 M 1.6875,10.1875 1.75,10.25 1.9375,10.4375 2.125,10.625 2,10.5 Q 1.875,10.375 1.75,10.25 l -0.125,-0.125 0.0625,0.0625"
       id="path584"
       inkscape:connector-curvature="0" />
    <path
       style="fill:#ff1b00;fill-opacity:1"
       d="M 3.125,10.375 3,10 3.375,10.125 Q 3.75,10.25 4,10.5 L 4.25,10.75 4.0625,10.5625 3.875,10.375 4,10.5 q 0.125,0.125 0.25,0.1875 L 4.375,10.75 4.3125,10.71875 4.25,10.6875 3.984375,10.984375 3.71875,11.28125 3.765625,11.359375 3.8125,11.4375 3.71875,11.28125 Q 3.625,11.125 3.5,11 L 3.375,10.875 3.5625,11.0625 3.75,11.25 3.5,11 Q 3.25,10.75 3.125,10.375"
       id="path586"
       inkscape:connector-curvature="0" />
    <path
       style="fill:#ff1400;fill-opacity:1"
       d="M 4,10.5 3.75,10.25 3.9375,10.4375 4.125,10.625 4,10.5 Q 3.875,10.375 3.71875,10.28125 L 3.5625,10.1875 3.640625,10.234375 3.71875,10.28125 3.984375,9.984375 4.25,9.6875 4.1875,9.65625 4.125,9.625 4.25,9.6875 Q 4.375,9.75 4.5,9.75 H 4.625 4.4375 4.25 4.5 4.75 4.5625 4.375 4.5 q 0.125,0 0.1875,-0.0625 L 4.75,9.625 4.71875,9.65625 4.6875,9.6875 4.984375,9.984375 5.28125,10.28125 5.359375,10.234375 5.4375,10.1875 5.28125,10.28125 Q 5.125,10.375 5,10.5 L 4.875,10.625 5.0625,10.4375 5.25,10.25 5,10.5 Q 4.75,10.75 4.5,10.75 4.25,10.75 4,10.5"
       id="path588"
       inkscape:connector-curvature="0" />
    <path
       style="fill:#ff1f04;fill-opacity:0.52156863"
       d="M 5,10.5 Q 5.25,10.25 5.625,10.125 L 6,10 6.125,10.375 6.25,10.75 6.15625,10.46875 6.0625,10.1875 6.125,10.375 q 0.0625,0.1875 0.15625,0.34375 L 6.375,10.875 6.328125,10.796875 6.28125,10.71875 5.984375,11.015625 5.6875,11.3125 5.71875,11.34375 5.75,11.375 5.6875,11.3125 Q 5.625,11.25 5.5,11.25 H 5.375 5.5625 5.75 5.5 5.25 5.4375 5.625 5.5 q -0.125,0 -0.1875,0.0625 L 5.25,11.375 5.28125,11.34375 5.3125,11.3125 5.03125,11 4.75,10.6875 4.6875,10.71875 4.625,10.75 4.75,10.6875 Q 4.875,10.625 5,10.5 L 5.125,10.375 4.9375,10.5625 4.75,10.75 5,10.5"
       id="path590"
       inkscape:connector-curvature="0" />
    <path
       style="fill:#ff0300;fill-opacity:0.91372549"
       d="M 6.125,10.375 6,10 H 6.5 7 L 7.125,10.375 7.25,10.75 7.15625,10.46875 7.0625,10.1875 7.125,10.375 q 0.0625,0.1875 0.1875,0.3125 l 0.125,0.125 L 7.375,10.75 7.3125,10.6875 7,10.96875 6.6875,11.25 6.71875,11.3125 6.75,11.375 6.6875,11.25 Q 6.625,11.125 6.5,11 L 6.375,10.875 6.5625,11.0625 6.75,11.25 6.5,11 Q 6.25,10.75 6.125,10.375"
       id="path592"
       inkscape:connector-curvature="0" />
    <path
       style="fill:#ff181c;fill-opacity:0.21176471"
       d="m 8.125,10.625 q 0.125,-0.375 0.5,-0.5 L 9,10 V 10.5 11 10.625 10.25 10.5 q 0,0.25 -0.03125,0.46875 L 8.9375,11.1875 8.953125,11.078125 8.96875,10.96875 8.5,11 8.03125,11.03125 8.015625,11.140625 8,11.25 8.03125,11.03125 Q 8.0625,10.8125 8.125,10.625 L 8.1875,10.4375 8.09375,10.71875 8,11 8.125,10.625 M 9,10.375 V 10 9.875 9.75 10 q 0,0.25 0,0.5 v 0.25 -0.375"
       id="path594"
       inkscape:connector-curvature="0" />
    <path
       style="fill:#000000;fill-opacity:0.00392157"
       d="M 1.875,11.625 Q 1.75,11.25 2,11 L 2.25,10.75 2.5,11 Q 2.75,11.25 3,11.5 L 3.25,11.75 3.0625,11.5625 2.875,11.375 3,11.5 q 0.125,0.125 0.28125,0.21875 L 3.4375,11.8125 3.359375,11.765625 3.28125,11.71875 3.015625,11.984375 Q 2.75,12.25 2.375,12.125 2,12 1.875,11.625 M 2.4375,10.9375 2.25,10.75 2.1875,10.6875 2.125,10.625 2.25,10.75 Q 2.375,10.875 2.5,11 l 0.125,0.125 -0.1875,-0.1875"
       id="path596"
       inkscape:connector-curvature="0" />
    <path
       style="fill:#ff3000;fill-opacity:0.4627451"
       d="M 3,11.5 2.75,11.25 3.015625,10.984375 3.28125,10.71875 3.234375,10.640625 3.1875,10.5625 3.28125,10.71875 Q 3.375,10.875 3.5,11 L 3.625,11.125 3.4375,10.9375 3.25,10.75 3.5,11 q 0.25,0.25 0.375,0.625 L 4,12 3.625,11.875 Q 3.25,11.75 3,11.5 M 2.6875,11.1875 2.75,11.25 2.9375,11.4375 3.125,11.625 3,11.5 Q 2.875,11.375 2.75,11.25 l -0.125,-0.125 0.0625,0.0625"
       id="path598"
       inkscape:connector-curvature="0" />
    <path
       style="fill:#ff1b00;fill-opacity:0.96862745"
       d="M 3.875,11.625 3.75,11.25 3.84375,11.53125 3.9375,11.8125 3.875,11.625 Q 3.8125,11.4375 3.71875,11.28125 L 3.625,11.125 3.671875,11.203125 3.71875,11.28125 3.984375,10.984375 4.25,10.6875 4.1875,10.65625 4.125,10.625 4.25,10.6875 Q 4.375,10.75 4.5,10.75 H 4.625 4.4375 4.25 4.5 4.75 4.5625 4.375 4.5 q 0.125,0 0.25,-0.0625 L 4.875,10.625 4.8125,10.65625 4.75,10.6875 5.03125,11 5.3125,11.3125 5.34375,11.28125 5.375,11.25 5.3125,11.3125 Q 5.25,11.375 5.25,11.5 V 11.625 11.4375 11.25 11.5 11.75 11.5625 11.375 11.5 q 0,0.125 0.0625,0.1875 L 5.375,11.75 5.34375,11.71875 5.3125,11.6875 5,12 4.6875,12.3125 4.75,12.375 4.8125,12.4375 4.6875,12.3125 Q 4.5625,12.1875 4.375,12.125 L 4.1875,12.0625 4.46875,12.15625 4.75,12.25 4.375,12.125 4,12 3.875,11.625"
       id="path600"
       inkscape:connector-curvature="0" />
    <path
       style="fill:#ff0f00;fill-opacity:0.96862745"
       d="m 5.25,11.5 q 0,-0.25 0.25,-0.25 0.25,0 0.25,0.25 0,0.25 -0.25,0.25 -0.25,0 -0.25,-0.25"
       id="path602"
       inkscape:connector-curvature="0" />
    <path
       style="fill:#ff1a00;fill-opacity:0.43137255"
       d="M 5.75,11.5 V 11.25 11.4375 11.625 11.5 q 0,-0.125 -0.0625,-0.1875 L 5.625,11.25 5.65625,11.28125 5.6875,11.3125 5.984375,11.015625 6.28125,10.71875 6.234375,10.640625 6.1875,10.5625 6.28125,10.71875 Q 6.375,10.875 6.5,11 L 6.625,11.125 6.4375,10.9375 6.25,10.75 6.5,11 q 0.25,0.25 0.25,0.5 0,0.25 -0.25,0.5 L 6.25,12.25 6.4375,12.0625 6.625,11.875 6.5,12 Q 6.375,12.125 6.28125,12.28125 L 6.1875,12.4375 6.234375,12.359375 6.28125,12.28125 5.984375,11.984375 5.6875,11.6875 5.65625,11.71875 5.625,11.75 5.6875,11.6875 Q 5.75,11.625 5.75,11.5 V 11.375 11.5625 11.75 11.5"
       id="path604"
       inkscape:connector-curvature="0" />
    <path
       style="fill:#ff0b00;fill-opacity:0.81176471"
       d="M 6.75,11.5 V 11.25 11.4375 11.625 11.5 q 0,-0.125 -0.0625,-0.25 L 6.625,11.125 6.65625,11.1875 6.6875,11.25 7,10.96875 7.3125,10.6875 7.25,10.625 7.1875,10.5625 l 0.125,0.125 q 0.125,0.125 0.3125,0.1875 L 7.8125,10.9375 7.53125,10.84375 7.25,10.75 7.625,10.875 8,11 V 11.5 12 L 7.625,12.125 7.25,12.25 7.53125,12.15625 7.8125,12.0625 7.625,12.125 Q 7.4375,12.1875 7.3125,12.3125 L 7.1875,12.4375 7.25,12.375 7.3125,12.3125 7,12.03125 6.6875,11.75 6.65625,11.8125 6.625,11.875 6.6875,11.75 Q 6.75,11.625 6.75,11.5 V 11.375 11.5625 11.75 11.5"
       id="path606"
       inkscape:connector-curvature="0" />
    <path
       style="fill:#ffaa00;fill-opacity:0.01176471"
       d="M 8,11.5 V 11 11.375 11.75 11.5 Q 8,11.25 8.03125,11.03125 L 8.0625,10.8125 8.046875,10.921875 8.03125,11.03125 8.5,11 8.96875,10.96875 8.984375,10.859375 9,10.75 8.96875,10.96875 Q 8.9375,11.1875 8.875,11.375 L 8.8125,11.5625 8.90625,11.28125 9,11 8.875,11.375 q -0.125,0.375 -0.5,0.5 L 8,12 v -0.5"
       id="path608"
       inkscape:connector-curvature="0" />
    <path
       style="fill:#ff4433;fill-opacity:0.05882353"
       d="M 4.125,12.375 4,12 4.375,12.125 Q 4.75,12.25 4.890625,12.609375 L 5.03125,12.96875 5.140625,12.984375 5.25,13 5.03125,12.96875 Q 4.8125,12.9375 4.625,12.875 L 4.4375,12.8125 4.71875,12.90625 5,13 4.625,12.875 q -0.375,-0.125 -0.5,-0.5"
       id="path610"
       inkscape:connector-curvature="0" />
    <path
       style="fill:#ff2005;fill-opacity:0.44313725"
       d="M 4.890625,12.609375 4.75,12.25 4.84375,12.53125 4.9375,12.8125 4.875,12.625 Q 4.8125,12.4375 4.6875,12.3125 L 4.5625,12.1875 4.625,12.25 4.6875,12.3125 5,12 5.3125,11.6875 5.28125,11.65625 5.25,11.625 5.3125,11.6875 Q 5.375,11.75 5.5,11.75 H 5.625 5.4375 5.25 5.5 5.75 5.5625 5.375 5.5 q 0.125,0 0.1875,-0.0625 L 5.75,11.625 5.71875,11.65625 5.6875,11.6875 5.984375,11.984375 6.28125,12.28125 6.328125,12.203125 6.375,12.125 6.28125,12.28125 Q 6.1875,12.4375 6.125,12.625 L 6.0625,12.8125 6.15625,12.53125 6.25,12.25 6.125,12.625 6,13 H 5.5 5 5.375 5.75 5.5 Q 5.25,13 5.03125,12.96875 L 4.8125,12.9375 4.921875,12.953125 5.03125,12.96875 4.890625,12.609375 M 5.625,13 H 6 6.125 6.25 6 Q 5.75,13 5.5,13 H 5.25 5.625"
       id="path612"
       inkscape:connector-curvature="0" />
    <path
       style="fill:#ff0f00;fill-opacity:0.66666667"
       d="M 6.125,12.625 Q 6.25,12.25 6.5,12 L 6.75,11.75 6.5625,11.9375 6.375,12.125 6.5,12 Q 6.625,11.875 6.6875,11.75 L 6.75,11.625 6.71875,11.6875 6.6875,11.75 7,12.03125 7.3125,12.3125 7.375,12.25 7.4375,12.1875 7.3125,12.3125 Q 7.1875,12.4375 7.125,12.625 L 7.0625,12.8125 7.15625,12.53125 7.25,12.25 7.078125,12.671875 6.90625,13.09375 6.984375,13.140625 7.0625,13.1875 6.90625,13.09375 Q 6.75,13 6.5,13 H 6.25 6.625 7 6.5 6 L 6.125,12.625 M 5.875,13 H 6 6.375 6.75 6.5 Q 6.25,13 6,13 H 5.75 5.875"
       id="path614"
       inkscape:connector-curvature="0" />
    <path
       style="fill:#ff2418;fill-opacity:0.32941176"
       d="M 7.078125,12.671875 Q 7.25,12.25 7.625,12.125 L 8,12 8.125,12.375 8.25,12.75 8.15625,12.46875 8.0625,12.1875 8.125,12.375 q 0.0625,0.1875 0.1875,0.3125 l 0.125,0.125 L 8.375,12.75 8.3125,12.6875 8.015625,12.984375 7.71875,13.28125 7.796875,13.328125 7.875,13.375 7.71875,13.28125 Q 7.5625,13.1875 7.375,13.125 L 7.1875,13.0625 7.46875,13.15625 7.75,13.25 7.328125,13.171875 6.90625,13.09375 7.078125,12.671875"
       id="path616"
       inkscape:connector-curvature="0" />
    <path
       style="fill:#ff2812;fill-opacity:0.22352941"
       d="M 7.125,13.375 7,13 7.09375,13.28125 7.1875,13.5625 7.125,13.375 Q 7.0625,13.1875 6.90625,13.09375 L 6.75,13 6.828125,13.04687 6.90625,13.09374 7.328125,13.17187 Q 7.75,13.25 8,13.5 L 8.25,13.75 7.984375,14.015625 7.71875,14.28125 7.765625,14.359375 7.8125,14.4375 7.71875,14.28125 Q 7.625,14.125 7.5,14 L 7.375,13.875 7.5625,14.0625 7.75,14.25 7.5,14 Q 7.25,13.75 7.125,13.375 M 8.3125,13.8125 8.25,13.75 8.0625,13.5625 7.875,13.375 8,13.5 q 0.125,0.125 0.25,0.25 l 0.125,0.125 -0.0625,-0.0625"
       id="path618"
       inkscape:connector-curvature="0" />
    <path
       style="fill:#ff190e;fill-opacity:0.43529412"
       d="M 8,13.5 7.75,13.25 7.9375,13.4375 8.125,13.625 8,13.5 Q 7.875,13.375 7.71875,13.28125 L 7.5625,13.1875 7.640625,13.234375 7.71875,13.28125 8.015625,12.984375 8.3125,12.6875 8.25,12.625 8.1875,12.5625 l 0.125,0.125 q 0.125,0.125 0.3125,0.1875 L 8.8125,12.9375 8.53125,12.84375 8.25,12.75 8.625,12.875 9,13 8.71875,12.90625 8.4375,12.8125 8.625,12.875 q 0.1875,0.0625 0.40625,0.09375 L 9.25,13 9.140625,12.984375 9.03125,12.96875 9.140625,13.359375 9.25,13.75 9.15625,13.46875 9.0625,13.1875 9.125,13.375 q 0.0625,0.1875 0.1875,0.3125 l 0.125,0.125 L 9.375,13.75 9.3125,13.6875 9.015625,13.984375 8.71875,14.28125 8.765625,14.359375 8.8125,14.4375 8.71875,14.28125 Q 8.625,14.125 8.5,14 L 8.375,13.875 8.5625,14.0625 8.75,14.25 8.5,14 Q 8.25,13.75 8,13.5"
       id="path620"
       inkscape:connector-curvature="0" />
    <path
       style="fill:#ff6d49;fill-opacity:0.02745098"
       d="M 9.140625,13.359375 9.03125,12.96875 8.921875,12.953125 8.8125,12.9375 9.03125,12.96875 Q 9.25,13 9.5,13 H 9.75 9.375 9 9.5 10 V 13.5 14 L 9.625,13.875 Q 9.25,13.75 9.140625,13.359375"
       id="path622"
       inkscape:connector-curvature="0" />
    <path
       style="fill:#ff291c;fill-opacity:0.14509804"
       d="M 7.875,14.625 7.75,14.25 7.84375,14.53125 7.9375,14.8125 7.875,14.625 Q 7.8125,14.4375 7.71875,14.28125 L 7.625,14.125 7.671875,14.203125 7.71875,14.28125 7.984375,14.015625 8.25,13.75 8.5,14 q 0.25,0.25 0.375,0.625 L 9,15 H 8.5 8 L 7.875,14.625 M 8.4375,13.9375 8.25,13.75 8.1875,13.6875 8.125,13.625 8.25,13.75 Q 8.375,13.875 8.5,14 l 0.125,0.125 -0.1875,-0.1875"
       id="path624"
       inkscape:connector-curvature="0" />
    <path
       style="fill:#ff170f;fill-opacity:0.4"
       d="M 8.875,14.625 8.75,14.25 8.84375,14.53125 8.9375,14.8125 8.875,14.625 Q 8.8125,14.4375 8.71875,14.28125 L 8.625,14.125 8.671875,14.203125 8.71875,14.28125 9.015625,13.984375 9.3125,13.6875 9.25,13.625 9.1875,13.5625 l 0.125,0.125 q 0.125,0.125 0.3125,0.1875 L 9.8125,13.9375 9.53125,13.84375 9.25,13.75 9.625,13.875 10,14 V 14.5 15 H 9.5 9 L 8.875,14.625"
       id="path626"
       inkscape:connector-curvature="0" />
  </g>
</svg>
