<?xml version="1.0" encoding="UTF-8" standalone="no"?>
<!-- Created with Inkscape (http://www.inkscape.org/) -->

<svg
   xmlns:dc="http://purl.org/dc/elements/1.1/"
   xmlns:cc="http://creativecommons.org/ns#"
   xmlns:rdf="http://www.w3.org/1999/02/22-rdf-syntax-ns#"
   xmlns:svg="http://www.w3.org/2000/svg"
   xmlns="http://www.w3.org/2000/svg"
   xmlns:sodipodi="http://sodipodi.sourceforge.net/DTD/sodipodi-0.dtd"
   xmlns:inkscape="http://www.inkscape.org/namespaces/inkscape"
   version="1.1"
   id="svg2"
   width="20"
   height="30"
   viewBox="0 0 20 30"
   sodipodi:docname="Mace.svg"
   inkscape:version="0.92.4 (5da689c313, 2019-01-14)">
  <metadata
     id="metadata8">
    <rdf:RDF>
      <cc:Work
         rdf:about="">
        <dc:format>image/svg+xml</dc:format>
        <dc:type
           rdf:resource="http://purl.org/dc/dcmitype/StillImage" />
        <dc:title></dc:title>
      </cc:Work>
    </rdf:RDF>
  </metadata>
  <defs
     id="defs6" />
  <sodipodi:namedview
     pagecolor="#ffffff"
     bordercolor="#666666"
     borderopacity="1"
     objecttolerance="10"
     gridtolerance="10"
     guidetolerance="10"
     inkscape:pageopacity="0"
     inkscape:pageshadow="2"
     inkscape:window-width="1920"
     inkscape:window-height="1001"
     id="namedview4"
     showgrid="false"
     inkscape:zoom="3.9333333"
     inkscape:cx="-2.7756446"
     inkscape:cy="22.167518"
     inkscape:window-x="-9"
     inkscape:window-y="-9"
     inkscape:window-maximized="1"
     inkscape:current-layer="svg2" />
  <path
     inkscape:connector-curvature="0"
     id="path12"
     d="M 0,1 V 0 h 1 1 1 1 1 1 1 1 1 1 1 1 1 1 1 1 1 1 1 1 v 1 1 1 1 1 1 1 1 1 1 1 1 1 1 1 1 1 1 1 1 1 1 1 1 1 1 1 1 1 1 h -1 -1 -1 -1 -1 -1 -1 -1 v -1 q 0,-1 0,-2 0,-1 0,-2 0,-1 0,-2 0,-1 0,-2 0,-1 0,-2 0,-1 0,-2 v -1 l 0.75,-0.25 q 0.75,-0.25 1,-1 L 14,14 13.8125,14.5625 13.625,15.125 13.75,14.75 q 0.125,-0.375 0.1875,-0.8125 L 14,13.5 13.96875,13.71875 13.9375,13.9375 14.71875,13.71875 Q 15.5,13.5 15.75,12.75 16,12 15.75,11.25 15.5,10.5 14.71875,10.28125 L 13.9375,10.0625 13.96875,10.28125 14,10.5 13.9375,10.0625 Q 13.875,9.625 13.75,9.25 L 13.625,8.875 13.8125,9.4375 14,10 13.75,9.25 q -0.25,-0.75 -1,-1 L 12,8 12.5625,8.1875 13.125,8.375 12.75,8.25 Q 12.375,8.125 11.9375,8.0625 L 11.5,8 11.71875,8.03125 11.9375,8.0625 11.71875,7.28125 Q 11.5,6.5 10.75,6.25 10,6 9.25,6.25 8.5,6.5 8.28125,7.28125 L 8.0625,8.0625 8.28125,8.03125 8.5,8 8.0625,8.0625 Q 7.625,8.125 7.25,8.25 L 6.875,8.375 7.4375,8.1875 8,8 7.25,8.25 q -0.75,0.25 -1,1 L 6,10 6.1875,9.4375 6.375,8.875 6.25,9.25 Q 6.125,9.625 6.0625,10.0625 L 6,10.5 6.03125,10.28125 6.0625,10.0625 5.28125,10.28125 Q 4.5,10.5 4.25,11.25 4,12 4.25,12.75 4.5,13.5 5.28125,13.71875 L 6.0625,13.9375 6.03125,13.71875 6,13.5 6.0625,13.9375 Q 6.125,14.375 6.25,14.75 L 6.375,15.125 6.1875,14.5625 6,14 6.25,14.75 q 0.25,0.75 1,1 L 8,16 v 1 q 0,1 0,2 0,1 0,2 0,1 0,2 0,1 0,2 0,1 0,2 0,1 0,2 v 1 H 7 6 5 4 3 2 1 0 V 29 28 27 26 25 24 23 22 21 20 19 18 17 16 15 14 13 12 11 10 9 8 7 6 5 4 3 2 1 M 4.5,7 Q 4.5,7.5 5,7.5 5.5,7.5 5.5,7 5.5,6.5 5,6.5 4.5,6.5 4.5,7 m 0,10 q 0,0.5 0.5,0.5 0.5,0 0.5,-0.5 0,-0.5 -0.5,-0.5 -0.5,0 -0.5,0.5 M 8,16.75 V 16 15.75 15.5 16 q 0,0.5 0,1 v 0.5 -0.75 M 14.5,7 q 0,0.5 0.5,0.5 0.5,0 0.5,-0.5 0,-0.5 -0.5,-0.5 -0.5,0 -0.5,0.5 M 12,15.75 V 16 16.75 17.5 17 q 0,-0.5 0,-1 v -0.5 0.25 M 14.5,17 q 0,0.5 0.5,0.5 0.5,0 0.5,-0.5 0,-0.5 -0.5,-0.5 -0.5,0 -0.5,0.5"
     style="fill:#000000;fill-opacity:0;stroke-width:2" />
  <path
     inkscape:connector-curvature="0"
     id="path14"
     d="M 4.5,7.6991525 Q 4.5,6.5 5.6991525,6.5 q 1.1991526,0 1.1991526,1.1991525 0,1.1991526 -1.1991526,1.1991526 Q 4.5,8.8983051 4.5,7.6991525"
     style="fill:#ff0000;fill-opacity:1;stroke-width:4.79661036" />
  <path
     inkscape:connector-curvature="0"
     id="path16"
     d="M 8.28125,7.28125 Q 8.5,6.5 9.25,6.25 10,6 10.75,6.25 11.5,6.5 11.71875,7.28125 L 11.9375,8.0625 12.15625,8.09375 12.375,8.125 11.9375,8.0625 Q 11.5,8 11,8 H 10.5 11.25 12 11 Q 10,8 9,8 H 8 8.75 9.5 9 Q 8.5,8 8.0625,8.0625 L 7.625,8.125 7.84375,8.09375 8.0625,8.0625 8.28125,7.28125"
     style="fill:#ff0000;fill-opacity:1;stroke-width:2" />
  <path
     inkscape:connector-curvature="0"
     id="path18"
     d="M 13.038136,7.6673729 Q 13.038136,6.5 14.269068,6.5 15.5,6.5 15.5,7.6673729 q 0,1.1673729 -1.230932,1.1673729 -1.230932,0 -1.230932,-1.1673729"
     style="fill:#ff0000;fill-opacity:1;stroke-width:4.79492521" />
  <path
     inkscape:connector-curvature="0"
     id="path20"
     d="M 6.25,9.25 Q 6.5,8.5 7.25,8.25 8,8 9,8 q 1,0 2,0 1,0 1.75,0.25 0.75,0.25 1,1 Q 14,10 14,11 q 0,1 0,2 0,1 -0.25,1.75 -0.25,0.75 -1,1 L 12,16 v -1 q 0,-1 0,-2 0,-1 -0.25,-1.75 -0.25,-0.75 -1,-1 -0.75,-0.25 -1.5,0 -0.75,0.25 -1,1 Q 8,12 8,13 q 0,1 0,2 v 1 L 7.25,15.75 Q 6.5,15.5 6.25,14.75 6,14 6,13 6,12 6,11 6,10 6.25,9.25 m 1.75,7 V 16 15.25 14.5 15 q 0,0.5 0,1 v 0.5 -0.25 m 4,-1 V 16 16.25 16.5 16 q 0,-0.5 0,-1 v -0.5 0.75"
     style="fill:#7f0000;fill-opacity:1;stroke-width:2" />
  <path
     inkscape:connector-curvature="0"
     id="path22"
     d="M 4.25,11.25 Q 4.5,10.5 5.28125,10.28125 L 6.0625,10.0625 6.09375,9.84375 6.125,9.625 6.0625,10.0625 Q 6,10.5 6,11 V 11.5 10.75 10 11 q 0,1 0,2 V 14 13.25 12.5 13 q 0,0.5 0.0625,0.9375 L 6.125,14.375 6.09375,14.15625 6.0625,13.9375 5.28125,13.71875 Q 4.5,13.5 4.25,12.75 4,12 4.25,11.25"
     style="fill:#ff0000;fill-opacity:1;stroke-width:2" />
  <path
     inkscape:connector-curvature="0"
     id="path24"
     d="m 8.25,11.25 q 0.25,-0.75 1,-1 0.75,-0.25 1.5,0 0.75,0.25 1,1 Q 12,12 12,13 v 1 h -1 q -1,0 -2,0 H 8 V 13 Q 8,12 8.25,11.25 M 8,13.25 V 14 14.25 14.5 14 q 0,-0.5 0,-1 v -0.5 0.75 m 4,1 V 14 13.25 12.5 13 q 0,0.5 0,1 v 0.5 -0.25"
     style="fill:#000000;fill-opacity:1;stroke-width:2" />
  <path
     inkscape:connector-curvature="0"
     id="path26"
     d="M 14,11 V 10 10.75 11.5 11 q 0,-0.5 -0.0625,-0.9375 L 13.875,9.625 l 0.03125,0.21875 0.03125,0.21875 0.78125,0.21875 Q 15.5,10.5 15.75,11.25 16,12 15.75,12.75 15.5,13.5 14.71875,13.71875 L 13.9375,13.9375 13.90625,14.15625 13.875,14.375 13.9375,13.9375 Q 14,13.5 14,13 V 12.5 13.25 14 13 q 0,-1 0,-2"
     style="fill:#ff0000;fill-opacity:1;stroke-width:2" />
  <path
     inkscape:connector-curvature="0"
     id="path28"
     d="m 8,15 v -1 h 1 q 1,0 2,0 h 1 v 1 q 0,1 0,2 0,1 0,2 0,1 0,2 0,1 0,2 0,1 0,2 0,1 0,2 0,1 0,2 v 1 H 11 10 9 8 v -1 q 0,-1 0,-2 0,-1 0,-2 0,-1 0,-2 0,-1 0,-2 0,-1 0,-2 0,-1 0,-2 0,-1 0,-2 m 4,-0.25 V 14 13.75 13.5 14 q 0,0.5 0,1 v 0.5 -0.75 m -4,-1 V 14 14.75 15.5 15 q 0,-0.5 0,-1 v -0.5 0.25"
     style="fill:#808080;fill-opacity:1;stroke-width:2" />
  <path
     inkscape:connector-curvature="0"
     id="path30"
     d="m 4.5,16.332627 q 0,-1.167373 1.1355932,-1.167373 1.1355932,0 1.1355932,1.167373 Q 6.7711864,17.5 5.6355932,17.5 4.5,17.5 4.5,16.332627"
     style="fill:#ff0000;fill-opacity:1;stroke-width:4.60549355" />
  <path
     inkscape:connector-curvature="0"
     id="path32"
     d="m 13.165254,16.300847 q 0,-1.199152 1.167373,-1.199152 1.167373,0 1.167373,1.199152 Q 15.5,17.5 14.332627,17.5 q -1.167373,0 -1.167373,-1.199153"
     style="fill:#ff0000;fill-opacity:1;stroke-width:4.73262405" />
</svg>
