<?xml version="1.0" encoding="UTF-8" standalone="no"?>
<!-- Created with Inkscape (http://www.inkscape.org/) -->

<svg
   xmlns:dc="http://purl.org/dc/elements/1.1/"
   xmlns:cc="http://creativecommons.org/ns#"
   xmlns:rdf="http://www.w3.org/1999/02/22-rdf-syntax-ns#"
   xmlns:svg="http://www.w3.org/2000/svg"
   xmlns="http://www.w3.org/2000/svg"
   xmlns:sodipodi="http://sodipodi.sourceforge.net/DTD/sodipodi-0.dtd"
   xmlns:inkscape="http://www.inkscape.org/namespaces/inkscape"
   version="1.1"
   id="svg2"
   width="20"
   height="30"
   viewBox="0 0 20 30"
   sodipodi:docname="Pyramid.svg"
   inkscape:version="0.92.4 (5da689c313, 2019-01-14)">
  <metadata
     id="metadata8">
    <rdf:RDF>
      <cc:Work
         rdf:about="">
        <dc:format>image/svg+xml</dc:format>
        <dc:type
           rdf:resource="http://purl.org/dc/dcmitype/StillImage" />
        <dc:title></dc:title>
      </cc:Work>
    </rdf:RDF>
  </metadata>
  <defs
     id="defs6" />
  <sodipodi:namedview
     pagecolor="#ffffff"
     bordercolor="#666666"
     borderopacity="1"
     objecttolerance="10"
     gridtolerance="10"
     guidetolerance="10"
     inkscape:pageopacity="0"
     inkscape:pageshadow="2"
     inkscape:window-width="1920"
     inkscape:window-height="1001"
     id="namedview4"
     showgrid="false"
     inkscape:zoom="15.733333"
     inkscape:cx="5"
     inkscape:cy="7.5"
     inkscape:window-x="-9"
     inkscape:window-y="-9"
     inkscape:window-maximized="1"
     inkscape:current-layer="svg2" />
  <g
     id="g20"
     transform="scale(2)">
    <path
       style="fill:#000000;fill-opacity:0"
       d="M 0,0.5 V 0 H 0.5 1 1.5 2 2.5 3 3.5 4 V 0.5 Q 4,1 4.125,1.375 4.25,1.75 4.625,1.875 5,2 5.375,1.875 5.75,1.75 5.875,1.375 6,1 6,0.5 V 0 H 6.5 7 7.5 8 8.5 9 9.5 10 V 0.5 1 1.5 2 2.5 3 3.5 4 4.5 5 5.5 6 6.5 7 7.5 8 8.5 9 9.5 10 10.5 11 11.5 12 12.5 13 13.5 14 14.5 15 H 9.5 9 8.5 8 7.5 7 6.5 6 5.5 5 4.5 4 3.5 3 2.5 2 1.5 1 0.5 0 V 14.5 14 13.5 13 12.5 12 11.5 11 10.5 10 9.5 9 8.5 8 7.5 7 6.5 6 5.5 5 4.5 4 3.5 3 2.5 2 1.5 1 0.5 M 4.625,13.875 Q 5,14 5.375,13.875 5.75,13.75 6,13.5 6.25,13.25 6.5,13 6.75,12.75 7,12.5 7.25,12.25 7.5,12 7.75,11.75 8,11.5 8.25,11.25 8.5,11 8.75,10.75 8.875,10.375 9,10 8.875,9.625 8.75,9.25 8.5,9 8.25,8.75 8.125,8.375 8,8 7.875,7.625 7.75,7.25 7.5,7 7.25,6.75 7.125,6.375 7,6 6.875,5.625 6.75,5.25 6.5,5 6.25,4.75 6.125,4.375 6,4 5.875,3.625 5.75,3.25 5.375,3.125 5,3 4.625,3.125 4.25,3.25 4.125,3.625 4,4 3.875,4.375 3.75,4.75 3.5,5 3.25,5.25 3.125,5.625 3,6 2.875,6.375 2.75,6.75 2.5,7 2.25,7.25 2.125,7.625 2,8 1.875,8.375 1.75,8.75 1.5,9 1.25,9.25 1.125,9.625 1,10 1.125,10.375 1.25,10.75 1.5,11 q 0.25,0.25 0.5,0.5 0.25,0.25 0.5,0.5 0.25,0.25 0.5,0.5 0.25,0.25 0.5,0.5 0.25,0.25 0.5,0.5 0.25,0.25 0.625,0.375"
       id="path12"
       inkscape:connector-curvature="0" />
    <path
       style="fill:#ff0000;fill-opacity:1"
       d="M 4,0.5 V 0 H 4.5 5 5.5 6 V 0.5 Q 6,1 5.875,1.375 5.75,1.75 5.375,1.875 5,2 4.625,1.875 4.25,1.75 4.125,1.375 4,1 4,0.5"
       id="path14"
       inkscape:connector-curvature="0" />
    <path
       style="fill:#7f0000;fill-opacity:1"
       d="M 4.125,3.625 Q 4.25,3.25 4.625,3.125 L 5,3 4.71875,3.09375 4.4375,3.1875 4.625,3.125 Q 4.8125,3.0625 5,3.0625 H 5.1875 5.09375 5 V 3.53125 Q 5,4 5,4.5 q 0,0.5 0,1 0,0.5 0,1 0,0.5 0,1 0,0.5 0,1 0,0.5 0,1 0,0.5 0,1 0,0.5 0,1 0,0.5 0,1 0,0.5 0,0.96875 V 13.9375 H 5.09375 5.1875 5 q -0.1875,0 -0.375,-0.0625 L 4.4375,13.8125 4.71875,13.90625 5,14 4.625,13.875 Q 4.25,13.75 4,13.5 3.75,13.25 3.5,13 3.25,12.75 3,12.5 2.75,12.25 2.5,12 2.25,11.75 2,11.5 1.75,11.25 1.5,11 1.25,10.75 1.125,10.375 1,10 1.125,9.625 1.25,9.25 1.5,9 1.75,8.75 1.875,8.375 2,8 2.125,7.625 2.25,7.25 2.5,7 2.75,6.75 2.875,6.375 3,6 3.125,5.625 3.25,5.25 3.5,5 3.75,4.75 3.875,4.375 4,4 4.125,3.625"
       id="path16"
       inkscape:connector-curvature="0" />
    <path
       style="fill:#ff0000;fill-opacity:1"
       d="M 5,3.53125 V 3.0625 H 4.90625 4.8125 5 q 0.1875,0 0.375,0.0625 L 5.5625,3.1875 5.28125,3.09375 5,3 5.375,3.125 Q 5.75,3.25 5.875,3.625 6,4 6.125,4.375 6.25,4.75 6.5,5 6.75,5.25 6.875,5.625 7,6 7.125,6.375 7.25,6.75 7.5,7 7.75,7.25 7.875,7.625 8,8 8.125,8.375 8.25,8.75 8.5,9 8.75,9.25 8.875,9.625 9,10 8.875,10.375 8.75,10.75 8.5,11 8.25,11.25 8,11.5 7.75,11.75 7.5,12 7.25,12.25 7,12.5 6.75,12.75 6.5,13 6.25,13.25 6,13.5 5.75,13.75 5.375,13.875 L 5,14 5.28125,13.90625 5.5625,13.8125 5.375,13.875 Q 5.1875,13.9375 5,13.9375 H 4.8125 4.90625 5 V 13.46875 Q 5,13 5,12.5 5,12 5,11.5 5,11 5,10.5 5,10 5,9.5 5,9 5,8.5 5,8 5,7.5 5,7 5,6.5 5,6 5,5.5 5,5 5,4.5 5,4 5,3.53125"
       id="path18"
       inkscape:connector-curvature="0" />
  </g>
</svg>
