<?xml version="1.0" encoding="UTF-8" standalone="no"?>
<!-- Created with Inkscape (http://www.inkscape.org/) -->

<svg
   xmlns:dc="http://purl.org/dc/elements/1.1/"
   xmlns:cc="http://creativecommons.org/ns#"
   xmlns:rdf="http://www.w3.org/1999/02/22-rdf-syntax-ns#"
   xmlns:svg="http://www.w3.org/2000/svg"
   xmlns="http://www.w3.org/2000/svg"
   xmlns:sodipodi="http://sodipodi.sourceforge.net/DTD/sodipodi-0.dtd"
   xmlns:inkscape="http://www.inkscape.org/namespaces/inkscape"
   version="1.1"
   id="svg2"
   width="20"
   height="30"
   viewBox="0 0 20 30"
   sodipodi:docname="Ring.svg"
   inkscape:version="0.92.4 (5da689c313, 2019-01-14)">
  <metadata
     id="metadata8">
    <rdf:RDF>
      <cc:Work
         rdf:about="">
        <dc:format>image/svg+xml</dc:format>
        <dc:type
           rdf:resource="http://purl.org/dc/dcmitype/StillImage" />
        <dc:title></dc:title>
      </cc:Work>
    </rdf:RDF>
  </metadata>
  <defs
     id="defs6" />
  <sodipodi:namedview
     pagecolor="#ffffff"
     bordercolor="#666666"
     borderopacity="1"
     objecttolerance="10"
     gridtolerance="10"
     guidetolerance="10"
     inkscape:pageopacity="0"
     inkscape:pageshadow="2"
     inkscape:window-width="1920"
     inkscape:window-height="1001"
     id="namedview4"
     showgrid="false"
     inkscape:zoom="11.125147"
     inkscape:cx="9.3850632"
     inkscape:cy="19.197804"
     inkscape:window-x="-9"
     inkscape:window-y="-9"
     inkscape:window-maximized="1"
     inkscape:current-layer="svg2" />
  <g
     id="g48"
     transform="scale(2)">
    <path
       style="fill:#000000;fill-opacity:0"
       d="M 0,0.5 V 0 H 0.5 1 1.5 2 2.5 3 3.5 4 4.5 5 5.5 6 6.5 7 7.5 8 8.5 9 9.5 10 V 0.5 1 1.5 2 2.5 3 3.5 4 4.5 5 5.5 6 6.5 7 L 9.625,6.875 Q 9.25,6.75 9,6.5 8.75,6.25 8.5,6 8.25,5.75 8.125,5.375 8,5 7.875,4.625 7.75,4.25 7.375,4.125 7,4 6.625,3.875 6.25,3.75 6,3.5 5.75,3.25 5.375,3.125 5,3 4.625,3.125 4.25,3.25 4,3.5 3.75,3.75 3.375,3.875 3,4 2.625,4.125 2.25,4.25 2.125,4.625 2,5 1.875,5.375 1.75,5.75 1.5,6 1.25,6.25 1,6.5 0.75,6.75 0.375,6.875 L 0,7 V 6.5 6 5.5 5 4.5 4 3.5 3 2.5 2 1.5 1 0.5"
       id="path12"
       inkscape:connector-curvature="0" />
    <path
       style="fill:#ff0000;fill-opacity:1"
       d="M 4,3.5 Q 4.25,3.25 4.625,3.125 5,3 5.375,3.125 5.75,3.25 6,3.5 6.25,3.75 6.625,3.875 L 7,4 6.875,4.375 Q 6.75,4.75 6.5,5 6.25,5.25 6.109375,5.609375 L 5.96875,5.96875 6.078125,5.953125 6.1875,5.9375 5.96875,5.96875 Q 5.75,6 5.5,6 H 5.25 5.625 6 5.5 Q 5,6 4.5,6 H 4 4.375 4.75 4.5 Q 4.25,6 4.03125,5.96875 L 3.8125,5.9375 3.921875,5.953125 4.03125,5.96875 3.890625,5.609375 Q 3.75,5.25 3.5,5 3.25,4.75 3.125,4.375 L 3,4 3.375,3.875 Q 3.75,3.75 4,3.5 M 3.28125,3.90625 3,4 2.90625,4.03125 2.8125,4.0625 3,4 Q 3.1875,3.9375 3.375,3.875 L 3.5625,3.8125 3.28125,3.90625 m 3.8125,0.125 L 7,4 6.71875,3.90625 6.4375,3.8125 6.625,3.875 Q 6.8125,3.9375 7,4 L 7.1875,4.0625 7.09375,4.03125"
       id="path14"
       inkscape:connector-curvature="0" />
    <path
       style="fill:#ffffff;fill-opacity:1"
       d="M 2.125,4.625 Q 2.25,4.25 2.625,4.125 L 3,4 3.125,4.375 Q 3.25,4.75 3.5,5 3.75,5.25 3.890625,5.609375 L 4.03125,5.96875 4.140625,5.984375 4.25,6 4.03125,5.96875 Q 3.8125,5.9375 3.625,5.875 L 3.4375,5.8125 3.71875,5.90625 4,6 3.625,5.875 Q 3.25,5.75 3,5.5 2.75,5.25 2.375,5.125 L 2,5 2.125,4.625 M 2.09375,4.71875 2,5 1.96875,5.09375 1.9375,5.1875 2,5 Q 2.0625,4.8125 2.125,4.625 L 2.1875,4.4375 2.09375,4.71875 m 1,-0.75 L 3,4 2.71875,4.09375 2.4375,4.1875 2.625,4.125 Q 2.8125,4.0625 3,4 L 3.1875,3.9375 3.09375,3.96875"
       id="path16"
       inkscape:connector-curvature="0" />
    <path
       style="fill:#ffffff;fill-opacity:1"
       d="M 6.875,4.375 7,4 7.375,4.125 q 0.375,0.125 0.5,0.5 L 8,5 7.625,5.125 Q 7.25,5.25 7,5.5 6.75,5.75 6.375,5.875 L 6,6 6.28125,5.90625 6.5625,5.8125 6.375,5.875 Q 6.1875,5.9375 5.96875,5.96875 L 5.75,6 5.859375,5.984375 5.96875,5.96875 6.109375,5.609375 Q 6.25,5.25 6.5,5 6.75,4.75 6.875,4.375 M 8.03125,5.09375 8,5 7.90625,4.71875 7.8125,4.4375 7.875,4.625 Q 7.9375,4.8125 8,5 L 8.0625,5.1875 8.03125,5.09375 m -0.75,-1 L 7,4 6.90625,3.96875 6.8125,3.9375 7,4 Q 7.1875,4.0625 7.375,4.125 L 7.5625,4.1875 7.28125,4.09375"
       id="path18"
       inkscape:connector-curvature="0" />
    <path
       style="fill:#ffd800;fill-opacity:1"
       d="M 1.875,5.375 2,5 2.375,5.125 Q 2.75,5.25 3,5.5 3.25,5.75 3.625,5.875 4,6 4.5,6 5,6 5.5,6 6,6 6.375,5.875 6.75,5.75 7,5.5 7.25,5.25 7.625,5.125 L 8,5 8.125,5.375 Q 8.25,5.75 8.5,6 8.75,6.25 9,6.5 9.25,6.75 9.625,6.875 L 10,7 V 7.5 8 8.5 9 9.5 10 10.5 11 11.5 12 12.5 13 L 9.625,13.125 Q 9.25,13.25 9,13.5 8.75,13.75 8.5,14 8.25,14.25 8.125,14.625 L 8,15 H 7.5 7 6.5 6 5.5 5 4.5 4 3.5 3 2.5 2 L 1.875,14.625 Q 1.75,14.25 1.5,14 1.25,13.75 1,13.5 0.75,13.25 0.375,13.125 L 0,13 V 12.5 12 11.5 11 10.5 10 9.5 9 8.5 8 7.5 7 L 0.375,6.875 Q 0.75,6.75 1,6.5 1.25,6.25 1.5,6 1.75,5.75 1.875,5.375 m 4.75,8.75 Q 7,14 7,13.5 V 13 l 0.375,-0.125 q 0.375,-0.125 0.5,-0.5 L 8,12 H 8.5 Q 9,12 9.125,11.625 9.25,11.25 8.984375,10.984375 L 8.71875,10.71875 8.671875,10.796875 8.625,10.875 8.71875,10.71875 Q 8.8125,10.5625 8.875,10.375 L 8.9375,10.1875 8.84375,10.46875 8.75,10.75 8.875,10.375 Q 9,10 8.875,9.625 L 8.75,9.25 8.84375,9.53125 8.9375,9.8125 8.875,9.625 Q 8.8125,9.4375 8.71875,9.28125 L 8.625,9.125 8.671875,9.203125 8.71875,9.28125 8.984375,9.015625 Q 9.25,8.75 9.125,8.375 9,8 8.625,7.875 8.25,7.75 8.125,7.375 8,7 7.625,6.875 7.25,6.75 6.984375,7.015625 L 6.71875,7.28125 6.796875,7.328125 6.875,7.375 6.71875,7.28125 Q 6.5625,7.1875 6.375,7.125 L 6.1875,7.0625 6.46875,7.15625 6.75,7.25 6.375,7.125 Q 6,7 5.5,7 5,7 4.5,7 4,7 3.625,7.125 L 3.25,7.25 3.53125,7.15625 3.8125,7.0625 3.625,7.125 Q 3.4375,7.1875 3.28125,7.28125 L 3.125,7.375 3.203125,7.328125 3.28125,7.28125 3.015625,7.015625 Q 2.75,6.75 2.375,6.875 2,7 1.875,7.375 1.75,7.75 1.375,7.875 1,8 1,8.5 V 9 9.5 10 10.5 11 11.5 Q 1,12 1.5,12 H 2 l 0.125,0.375 q 0.125,0.375 0.5,0.5 L 3,13 v 0.5 Q 3,14 3.375,14.125 3.75,14.25 4.015625,13.984375 L 4.28125,13.71875 4.203125,13.671875 4.125,13.625 4.28125,13.71875 Q 4.4375,13.8125 4.625,13.875 L 4.8125,13.9375 4.53125,13.84375 4.25,13.75 4.625,13.875 Q 5,14 5.375,13.875 L 5.75,13.75 5.46875,13.84375 5.1875,13.9375 5.375,13.875 Q 5.5625,13.8125 5.71875,13.71875 L 5.875,13.625 5.796875,13.671875 5.71875,13.71875 5.984375,13.984375 Q 6.25,14.25 6.625,14.125 M 8.09375,5.28125 8,5 7.96875,4.90625 7.9375,4.8125 8,5 Q 8.0625,5.1875 8.125,5.375 L 8.1875,5.5625 8.09375,5.28125 M 2.03125,4.90625 2,5 1.90625,5.28125 1.8125,5.5625 1.875,5.375 Q 1.9375,5.1875 2,5 L 2.0625,4.8125 2.03125,4.90625"
       id="path20"
       inkscape:connector-curvature="0" />
    <path
       style="fill:#ffd700;fill-opacity:0.1254902"
       d="M 1.875,7.375 Q 2,7 2.375,6.875 2.75,6.75 3.015625,7.015625 L 3.28125,7.28125 3.359375,7.234375 3.4375,7.1875 3.28125,7.28125 Q 3.125,7.375 3,7.5 L 2.875,7.625 3.0625,7.4375 3.25,7.25 3,7.5 Q 2.75,7.75 2.5,8 L 2.25,8.25 2.4375,8.0625 2.625,7.875 2.5,8 Q 2.375,8.125 2.28125,8.28125 L 2.1875,8.4375 2.234375,8.359375 2.28125,8.28125 1.984375,7.984375 1.6875,7.6875 1.625,7.75 1.5625,7.8125 1.6875,7.6875 Q 1.8125,7.5625 1.875,7.375 L 1.9375,7.1875 1.84375,7.46875 1.75,7.75 1.875,7.375"
       id="path22"
       inkscape:connector-curvature="0" />
    <path
       style="fill:#000000;fill-opacity:0"
       d="M 3,7.5 Q 3.25,7.25 3.625,7.125 4,7 4.5,7 5,7 5.5,7 6,7 6.375,7.125 6.75,7.25 7,7.5 7.25,7.75 7.5,8 7.75,8.25 8,8.5 8.25,8.75 8.5,9 8.75,9.25 8.875,9.625 9,10 8.875,10.375 8.75,10.75 8.5,11 8.25,11.25 8.125,11.625 L 8,12 7.875,12.375 q -0.125,0.375 -0.5,0.5 L 7,13 6.625,13.125 Q 6.25,13.25 6,13.5 5.75,13.75 5.375,13.875 5,14 4.625,13.875 4.25,13.75 4,13.5 3.75,13.25 3.375,13.125 L 3,13 2.625,12.875 Q 2.25,12.75 2.125,12.375 L 2,12 V 11.5 11 10.5 10 9.5 9 L 2.125,8.625 Q 2.25,8.25 2.5,8 2.75,7.75 3,7.5"
       id="path24"
       inkscape:connector-curvature="0" />
    <path
       style="fill:#ffdf00;fill-opacity:0.03137255"
       d="M 7,7.5 6.75,7.25 6.9375,7.4375 7.125,7.625 7,7.5 Q 6.875,7.375 6.71875,7.28125 L 6.5625,7.1875 6.640625,7.234375 6.71875,7.28125 6.984375,7.015625 Q 7.25,6.75 7.625,6.875 8,7 8.125,7.375 L 8.25,7.75 8.15625,7.46875 8.0625,7.1875 8.125,7.375 Q 8.1875,7.5625 8.3125,7.6875 L 8.4375,7.8125 8.375,7.75 8.3125,7.6875 8.03125,7.96875 7.75,8.25 7.5,8 Q 7.25,7.75 7,7.5 M 7.5625,8.0625 7.75,8.25 7.8125,8.3125 7.875,8.375 7.75,8.25 Q 7.625,8.125 7.5,8 L 7.375,7.875 7.5625,8.0625"
       id="path26"
       inkscape:connector-curvature="0" />
    <path
       style="fill:#ffd800;fill-opacity:0.40784314"
       d="M 1,8.5 Q 1,8 1.375,7.875 L 1.75,7.75 1.46875,7.84375 1.1875,7.9375 1.375,7.875 Q 1.5625,7.8125 1.6875,7.6875 L 1.8125,7.5625 1.75,7.625 1.6875,7.6875 1.984375,7.984375 2.28125,8.28125 2.328125,8.203125 2.375,8.125 2.28125,8.28125 Q 2.1875,8.4375 2.125,8.625 L 2.0625,8.8125 2.15625,8.53125 2.25,8.25 2.125,8.625 2,9 H 1.5 1 V 8.5"
       id="path28"
       inkscape:connector-curvature="0" />
    <path
       style="fill:#ffd600;fill-opacity:0.21960784"
       d="M 8,8.5 7.75,8.25 8.03125,7.96875 8.3125,7.6875 8.25,7.625 8.1875,7.5625 8.3125,7.6875 Q 8.4375,7.8125 8.625,7.875 L 8.8125,7.9375 8.53125,7.84375 8.25,7.75 8.625,7.875 Q 9,8 9.125,8.375 9.25,8.75 8.984375,9.015625 L 8.71875,9.28125 8.765625,9.359375 8.8125,9.4375 8.71875,9.28125 Q 8.625,9.125 8.5,9 L 8.375,8.875 8.5625,9.0625 8.75,9.25 8.5,9 Q 8.25,8.75 8,8.5 M 7.6875,8.1875 7.75,8.25 7.9375,8.4375 8.125,8.625 8,8.5 Q 7.875,8.375 7.75,8.25 L 7.625,8.125 7.6875,8.1875"
       id="path30"
       inkscape:connector-curvature="0" />
    <path
       style="fill:#ffd900;fill-opacity:0.15686275"
       d="M 1,9.5 V 9 H 1.5 2 V 9.5 10 H 1.5 1 V 9.5"
       id="path32"
       inkscape:connector-curvature="0" />
    <path
       style="fill:#ffd500;fill-opacity:0.09411765"
       d="M 1,10.5 V 10 H 1.5 2 V 10.5 11 H 1.5 1 v -0.5"
       id="path34"
       inkscape:connector-curvature="0" />
    <path
       style="fill:#ffd900;fill-opacity:0.31372549"
       d="M 1,11.5 V 11 H 1.5 2 V 11.5 12 H 1.5 Q 1,12 1,11.5"
       id="path36"
       inkscape:connector-curvature="0" />
    <path
       style="fill:#ffd700;fill-opacity:0.1254902"
       d="M 8.125,11.625 Q 8.25,11.25 8.5,11 L 8.75,10.75 8.5625,10.9375 8.375,11.125 8.5,11 Q 8.625,10.875 8.71875,10.71875 L 8.8125,10.5625 8.765625,10.640625 8.71875,10.71875 8.984375,10.984375 Q 9.25,11.25 9.125,11.625 9,12 8.5,12 H 8 l 0.125,-0.375"
       id="path38"
       inkscape:connector-curvature="0" />
    <path
       style="fill:#000000;fill-opacity:0"
       d="M 0,13.5 V 13 l 0.375,0.125 Q 0.75,13.25 1,13.5 1.25,13.75 1.5,14 1.75,14.25 1.875,14.625 L 2,15 H 1.5 1 0.5 0 V 14.5 14 13.5"
       id="path40"
       inkscape:connector-curvature="0" />
    <path
       style="fill:#ffd700;fill-opacity:0.1254902"
       d="M 3,13.5 V 13 l 0.375,0.125 Q 3.75,13.25 4,13.5 L 4.25,13.75 4.0625,13.5625 3.875,13.375 4,13.5 q 0.125,0.125 0.28125,0.21875 L 4.4375,13.8125 4.359375,13.765625 4.28125,13.71875 4.015625,13.984375 Q 3.75,14.25 3.375,14.125 3,14 3,13.5"
       id="path42"
       inkscape:connector-curvature="0" />
    <path
       style="fill:#ffd500;fill-opacity:0.09411765"
       d="M 6,13.5 Q 6.25,13.25 6.625,13.125 L 7,13 v 0.5 Q 7,14 6.625,14.125 6.25,14.25 5.984375,13.984375 L 5.71875,13.71875 5.640625,13.765625 5.5625,13.8125 5.71875,13.71875 Q 5.875,13.625 6,13.5 L 6.125,13.375 5.9375,13.5625 5.75,13.75 6,13.5"
       id="path44"
       inkscape:connector-curvature="0" />
    <path
       style="fill:#000000;fill-opacity:0"
       d="M 9,13.5 Q 9.25,13.25 9.625,13.125 L 10,13 V 13.5 14 14.5 15 H 9.5 9 8.5 8 L 8.125,14.625 Q 8.25,14.25 8.5,14 8.75,13.75 9,13.5"
       id="path46"
       inkscape:connector-curvature="0" />
  </g>
</svg>
