<?xml version="1.0" encoding="UTF-8" standalone="no"?>
<!-- Created with Inkscape (http://www.inkscape.org/) -->

<svg
   xmlns:dc="http://purl.org/dc/elements/1.1/"
   xmlns:cc="http://creativecommons.org/ns#"
   xmlns:rdf="http://www.w3.org/1999/02/22-rdf-syntax-ns#"
   xmlns:svg="http://www.w3.org/2000/svg"
   xmlns="http://www.w3.org/2000/svg"
   xmlns:sodipodi="http://sodipodi.sourceforge.net/DTD/sodipodi-0.dtd"
   xmlns:inkscape="http://www.inkscape.org/namespaces/inkscape"
   version="1.1"
   id="svg2"
   width="20"
   height="30"
   viewBox="0 0 20 30"
   sodipodi:docname="Rock.svg"
   inkscape:version="0.92.4 (5da689c313, 2019-01-14)">
  <metadata
     id="metadata8">
    <rdf:RDF>
      <cc:Work
         rdf:about="">
        <dc:format>image/svg+xml</dc:format>
        <dc:type
           rdf:resource="http://purl.org/dc/dcmitype/StillImage" />
        <dc:title />
      </cc:Work>
    </rdf:RDF>
  </metadata>
  <defs
     id="defs6" />
  <sodipodi:namedview
     pagecolor="#ffffff"
     bordercolor="#666666"
     borderopacity="1"
     objecttolerance="10"
     gridtolerance="10"
     guidetolerance="10"
     inkscape:pageopacity="0"
     inkscape:pageshadow="2"
     inkscape:window-width="1920"
     inkscape:window-height="1001"
     id="namedview4"
     showgrid="false"
     inkscape:zoom="15.733333"
     inkscape:cx="-4.8516951"
     inkscape:cy="10.042373"
     inkscape:window-x="-9"
     inkscape:window-y="-9"
     inkscape:window-maximized="1"
     inkscape:current-layer="svg2" />
  <path
     inkscape:connector-curvature="0"
     id="path12"
     d="m 0.69915256,-8.2161019 v -1 h 1.00000004 1 1 1 1 1 1 1 1 1.0000004 1 1 1 1 1 1 1 1 1 1 v 1 1 1 1 1 1 1 1 1 1 1 1 1 1 1 1 1 1 1 0.9999999 1 1 1 1 1 1 1 1 1 1 h -1 -1 -1 -1 v -1 q 0,-1 0,-2.0625 v -1.0625 h -0.1875 -0.1875 0.375 q 0.375,0 0.75,-0.125 l 0.375,-0.125 -0.5625,0.1875 -0.5625,0.1875 0.75,-0.25 q 0.75,-0.25 0.75,-0.75 0,-0.5 -0.5,-1 -0.5,-0.5 -1,-1 -0.5,-0.5 -1,-1 -0.5,-0.5 -1,-1 -0.5,-0.5 -1.25,-0.75 l -0.75,-0.25 0.5625,0.1875 0.5625,0.1875 -0.375,-0.125 q -0.375,-0.125 -0.75,-0.125 h -0.375 0.1875 0.1875 l -0.25,-0.8125 q -0.25,-0.8124999 -1,-1.0624999 -0.75,-0.25 -1.7500004,-0.25 -1,0 -1.75,0.25 -0.75,0.25 -1.25,0.75 -0.5,0.4999999 -1,0.9999999 -0.5,0.5 -1,1 -0.5,0.5 -1,1 -0.5,0.5 -0.75,1.25 -0.25,0.75 -0.25,1.75 0,1 0.25,1.75 0.25,0.75 0.75,1.25 0.5,0.5 0.75,1.25 l 0.25,0.75 h -1 -1 -1 -1.00000004 v -1 -1 -1 -1 -1 -1 -1 -1 -1 -1 -0.9999999 -1 -1 -1 -1 -1 -1 -1 -1 -1 -1 -1 -1 -1 -1 -1 -1 -1 -1"
     style="fill:#000000;fill-opacity:0;stroke-width:2" />
  <g
     id="g9734"
     transform="translate(-0.375,-0.125)">
    <path
       style="fill:#808080;fill-opacity:1;stroke-width:2"
       d="m 6.6991526,9.7838981 q 0.5,-0.5 1.25,-0.75 0.75,-0.25 1.75,-0.25 h 1.0000004 -0.7500004 -0.75 0.5 q 0.5000004,0 0.9375004,0.0625 l 0.4375,0.0625 -0.21875,-0.03125 -0.21875,-0.03125 -0.21875,0.71875 q -0.21875,0.7187499 -0.7187504,1.2187499 -0.5,0.5 -1,1 -0.5,0.5 -1,1 -0.5,0.5 -1,1 -0.5,0.5 -1,1 -0.5,0.5 -1,1 -0.5,0.5 -1.21875,0.71875 l -0.71875,0.21875 0.03125,0.21875 0.03125,0.21875 -0.0625,-0.4375 q -0.0625,-0.4375 -0.0625,-0.9375 v -0.5 0.75 0.75 -1 q 0,-1 0.25,-1.75 0.25,-0.75 0.75,-1.25 0.5,-0.5 1,-1 0.5,-0.5 1,-1 0.5,-0.5 1,-0.9999999"
       id="path14"
       inkscape:connector-curvature="0" />
    <path
       style="fill:#ff0000;fill-opacity:1;stroke-width:2"
       d="m 10.417903,9.5651481 0.21875,-0.71875 -0.21875,-0.03125 -0.21875,-0.03125 0.4375,0.0625 q 0.4375,0.0625 0.8125,0.1875 l 0.375,0.125 -0.5625,-0.1875 -0.5625,-0.1875 0.75,0.25 q 0.75,0.25 1,1.0624999 l 0.25,0.8125 h 0.1875 0.1875 -0.375 q -0.375,0 -0.75,0.125 l -0.375,0.125 0.5625,-0.1875 0.5625,-0.1875 -0.75,0.25 q -0.75,0.25 -0.75,0.75 0,0.5 0.75,0.75 0.75,0.25 1.5,0.5 0.75,0.25 1,1 0.25,0.75 0.5,1.5 0.25,0.75 1,1 l 0.75,0.25 -0.5625,-0.1875 -0.5625,-0.1875 0.375,0.125 q 0.375,0.125 0.75,0.125 h 0.375 -0.1875 -0.1875 v 1.0625 q 0,1.0625 0,2.0625 v 1 h -1 -1 -1 -1 v -1 q 0,-1 0,-2 0,-1 -0.25,-1.75 -0.25,-0.75 -1,-1 -0.75,-0.25 -1.5000004,0 -0.75,0.25 -1,1 -0.25,0.75 0,1.5 0.25,0.75 0.75,1.25 0.5000004,0.5 0.7500004,1.25 l 0.25,0.75 h -1.0000004 -1 -1 -1 -1 -1 l -0.25,-0.75 q -0.25,-0.75 -0.75,-1.25 -0.5,-0.5 -0.75,-1.25 l -0.25,-0.75 0.1875,0.5625 0.1875,0.5625 -0.125,-0.375 q -0.125,-0.375 -0.1875,-0.8125 l -0.0625,-0.4375 0.03125,0.21875 0.03125,0.21875 0.71875,-0.21875 q 0.71875,-0.21875 1.21875,-0.71875 0.5,-0.5 1,-1 0.5,-0.5 1,-1 0.5,-0.5 1,-1 0.5,-0.5 1,-1 0.5,-0.5 1,-1 0.5000004,-0.5 0.7187504,-1.2187499"
       id="path16"
       inkscape:connector-curvature="0" />
    <path
       style="fill:#808080;fill-opacity:1;stroke-width:2"
       d="m 11.199153,11.783898 q 0,-0.5 0.75,-0.75 0.75,-0.25 1.5,0 0.75,0.25 1.25,0.75 0.5,0.5 1,1 0.5,0.5 1,1 0.5,0.5 1,1 0.5,0.5 0.5,1 0,0.5 -0.75,0.75 -0.75,0.25 -1.5,0 -0.75,-0.25 -1,-1 -0.25,-0.75 -0.5,-1.5 -0.25,-0.75 -1,-1 -0.75,-0.25 -1.5,-0.5 -0.75,-0.25 -0.75,-0.75"
       id="path18"
       inkscape:connector-curvature="0" />
    <path
       style="fill:#808080;fill-opacity:1;stroke-width:2"
       d="m 8.9491526,16.033898 q 0.25,-0.75 1,-1 0.7500004,-0.25 1.5000004,0 0.75,0.25 1,1 0.25,0.75 0.25,1.75 0,1 0,2 v 1 h -1 -1 l -0.25,-0.75 q -0.25,-0.75 -0.7500004,-1.25 -0.5,-0.5 -0.75,-1.25 -0.25,-0.75 0,-1.5"
       id="path20"
       inkscape:connector-curvature="0" />
  </g>
</svg>
