<?xml version="1.0" encoding="UTF-8" standalone="no"?>
<!-- Created with Inkscape (http://www.inkscape.org/) -->

<svg
   xmlns:dc="http://purl.org/dc/elements/1.1/"
   xmlns:cc="http://creativecommons.org/ns#"
   xmlns:rdf="http://www.w3.org/1999/02/22-rdf-syntax-ns#"
   xmlns:svg="http://www.w3.org/2000/svg"
   xmlns="http://www.w3.org/2000/svg"
   xmlns:sodipodi="http://sodipodi.sourceforge.net/DTD/sodipodi-0.dtd"
   xmlns:inkscape="http://www.inkscape.org/namespaces/inkscape"
   version="1.1"
   id="svg2"
   width="20"
   height="30"
   viewBox="0 0 20 30"
   sodipodi:docname="Rock2.svg"
   inkscape:version="0.92.4 (5da689c313, 2019-01-14)">
  <metadata
     id="metadata8">
    <rdf:RDF>
      <cc:Work
         rdf:about="">
        <dc:format>image/svg+xml</dc:format>
        <dc:type
           rdf:resource="http://purl.org/dc/dcmitype/StillImage" />
        <dc:title></dc:title>
      </cc:Work>
    </rdf:RDF>
  </metadata>
  <defs
     id="defs6" />
  <sodipodi:namedview
     pagecolor="#ffffff"
     bordercolor="#666666"
     borderopacity="1"
     objecttolerance="10"
     gridtolerance="10"
     guidetolerance="10"
     inkscape:pageopacity="0"
     inkscape:pageshadow="2"
     inkscape:window-width="1920"
     inkscape:window-height="1001"
     id="namedview4"
     showgrid="false"
     inkscape:zoom="15.733333"
     inkscape:cx="5"
     inkscape:cy="7.5"
     inkscape:window-x="-9"
     inkscape:window-y="-9"
     inkscape:window-maximized="1"
     inkscape:current-layer="svg2" />
  <g
     id="g32"
     transform="scale(2)">
    <path
       style="fill:#000000;fill-opacity:0"
       d="M 0,0.5 V 0 H 0.5 1 1.5 2 2.5 3 3.5 4 4.5 5 5.5 6 6.5 7 7.5 8 8.5 9 9.5 10 V 0.5 1 1.5 2 2.5 3 3.5 4 4.5 5 5.5 6 6.5 7 7.5 8 8.5 9 9.5 10 10.5 11 11.5 12 12.5 13 13.5 14 14.5 15 H 9.5 9 V 14.5 Q 9,14 9,13.5 9,13 9,12.5 9,12 8.875,11.625 8.75,11.25 8.5,11 8.25,10.75 8.125,10.375 8,10 8,9.5 8,9 8,8.5 8,8 8,7.5 8,7 8,6.5 8,6 8,5.5 8,5 8,4.5 8,4 8,3.5 8,3 8,2.5 8,2 7.875,1.625 7.75,1.25 7.375,1.125 7,1 6.625,1.125 6.25,1.25 6,1.5 5.75,1.75 5.5,2 5.25,2.25 5.125,2.625 5,3 5,3.5 5,4 4.875,4.375 4.75,4.75 4.5,5 4.25,5.25 4.125,5.625 4,6 4,6.5 4,7 3.875,7.375 3.75,7.75 3.5,8 3.25,8.25 3.125,8.625 3,9 2.875,9.375 2.75,9.75 2.5,10 2.25,10.25 2.125,10.625 L 2,11 1.625,11.125 Q 1.25,11.25 1.125,11.625 1,12 1,12.5 1,13 1.125,13.375 1.25,13.75 1.5,14 1.75,14.25 1.875,14.625 L 2,15 H 1.5 1 0.5 0 V 14.5 14 13.5 13 12.5 12 11.5 11 10.5 10 9.5 9 8.5 8 7.5 7 6.5 6 5.5 5 4.5 4 3.5 3 2.5 2 1.5 1 0.5 M 1.71875,11.09375 2,11 2.09375,10.96875 2.1875,10.9375 2,11 q -0.1875,0.0625 -0.375,0.125 l -0.1875,0.0625 0.28125,-0.09375"
       id="path12"
       inkscape:connector-curvature="0" />
    <path
       style="fill:#ff0000;fill-opacity:1"
       d="M 6,1.5 Q 6.25,1.25 6.625,1.125 L 7,1 6.71875,1.09375 6.4375,1.1875 6.625,1.125 Q 6.8125,1.0625 7,1.0625 H 7.1875 7.09375 7 V 1.53125 2 1.625 1.25 1.5 Q 7,1.75 6.96875,1.96875 L 6.9375,2.1875 6.953125,2.078125 6.96875,1.96875 6.609375,2.109375 Q 6.25,2.25 6,2.5 5.75,2.75 5.390625,2.890625 L 5.03125,3.03125 5.015625,3.140625 5,3.25 5.03125,3.03125 Q 5.0625,2.8125 5.125,2.625 L 5.1875,2.4375 5.09375,2.71875 5,3 5.125,2.625 Q 5.25,2.25 5.5,2 5.75,1.75 6,1.5"
       id="path14"
       inkscape:connector-curvature="0" />
    <path
       style="fill:#910000;fill-opacity:1"
       d="M 7,1.53125 V 1.0625 H 6.90625 6.8125 7 q 0.1875,0 0.375,0.0625 L 7.5625,1.1875 7.28125,1.09375 7,1 7.375,1.125 Q 7.75,1.25 7.875,1.625 8,2 8,2.5 8,3 8,3.5 8,4 8,4.5 8,5 8,5.5 8,6 8,6.5 8,7 8,7.5 8,8 8,8.5 8,9 8,9.5 8,10 8.125,10.375 8.25,10.75 8.5,11 8.75,11.25 8.875,11.625 L 9,12 8.90625,11.71875 8.8125,11.4375 8.875,11.625 q 0.0625,0.1875 0.09375,0.40625 L 9,12.25 8.984375,12.140625 8.96875,12.03125 8.609375,11.890625 Q 8.25,11.75 8,11.5 7.75,11.25 7.5,11 7.25,10.75 7,10.5 6.75,10.25 6.375,10.125 6,10 5.625,9.875 5.25,9.75 5.25,9.5 5.25,9.25 5.5,9 5.75,8.75 5.875,8.375 6,8 6.125,7.625 6.25,7.25 6.5,7 6.75,6.75 6.75,6.5 6.75,6.25 6.375,6.125 L 6,6 6.28125,6.09375 6.5625,6.1875 6.375,6.125 Q 6.1875,6.0625 6,6.0625 H 5.8125 5.90625 6 V 5.53125 5 L 6.375,4.875 Q 6.75,4.75 6.75,4.5 6.75,4.25 6.5,4 6.25,3.75 6.25,3.5 6.25,3.25 6.5,3 6.75,2.75 6.875,2.375 7,2 7,1.53125 M 6.28125,4.90625 6,5 5.90625,5.03125 5.8125,5.0625 6,5 Q 6.1875,4.9375 6.375,4.875 L 6.5625,4.8125 6.28125,4.90625"
       id="path16"
       inkscape:connector-curvature="0" />
    <path
       style="fill:#c60000;fill-opacity:1"
       d="M 6,2.5 Q 6.25,2.25 6.609375,2.109375 L 6.96875,1.96875 6.984375,1.859375 7,1.75 6.96875,1.96875 Q 6.9375,2.1875 6.875,2.375 L 6.8125,2.5625 6.90625,2.28125 7,2 6.875,2.375 Q 6.75,2.75 6.5,3 6.25,3.25 6.25,3.5 6.25,3.75 6.5,4 6.75,4.25 6.75,4.5 6.75,4.75 6.375,4.875 6,5 5.625,5.125 5.25,5.25 5,5.5 4.75,5.75 4.390625,5.890625 L 4.03125,6.03125 4.015625,6.140625 4,6.25 4.03125,6.03125 Q 4.0625,5.8125 4.125,5.625 L 4.1875,5.4375 4.09375,5.71875 4,6 4.125,5.625 Q 4.25,5.25 4.5,5 4.75,4.75 4.875,4.375 5,4 5,3.5 V 3 3.375 3.75 3.5 Q 5,3.25 5.03125,3.03125 L 5.0625,2.8125 5.046875,2.921875 5.03125,3.03125 5.390625,2.890625 Q 5.75,2.75 6,2.5"
       id="path18"
       inkscape:connector-curvature="0" />
    <path
       style="fill:#ff0000;fill-opacity:1"
       d="M 5,5.5 Q 5.25,5.25 5.625,5.125 L 6,5 V 5.53125 6.0625 H 6.09375 6.1875 6 q -0.1875,0 -0.375,0.0625 L 5.4375,6.1875 5.71875,6.09375 6,6 5.625,6.125 Q 5.25,6.25 5.125,6.625 5,7 5,7.5 5,8 4.875,8.375 4.75,8.75 4.5,9 4.25,9.25 4,9.5 3.75,9.75 3.5,10 3.25,10.25 3,10.5 2.75,10.75 2.375,10.875 L 2,11 2.125,10.625 Q 2.25,10.25 2.5,10 2.75,9.75 2.875,9.375 3,9 3.125,8.625 3.25,8.25 3.5,8 3.75,7.75 3.875,7.375 4,7 4,6.5 V 6 6.375 6.75 6.5 Q 4,6.25 4.03125,6.03125 L 4.0625,5.8125 4.046875,5.921875 4.03125,6.03125 4.390625,5.890625 Q 4.75,5.75 5,5.5 M 1.90625,11.03125 2,11 2.28125,10.90625 2.5625,10.8125 2.375,10.875 Q 2.1875,10.9375 2,11 L 1.8125,11.0625 1.90625,11.03125 M 6.09375,4.96875 6,5 5.71875,5.09375 5.4375,5.1875 5.625,5.125 Q 5.8125,5.0625 6,5 L 6.1875,4.9375 6.09375,4.96875"
       id="path20"
       inkscape:connector-curvature="0" />
    <path
       style="fill:#c60000;fill-opacity:1"
       d="M 5.125,6.625 Q 5.25,6.25 5.625,6.125 6,6 6.375,6.125 6.75,6.25 6.75,6.5 6.75,6.75 6.5,7 6.25,7.25 6.125,7.625 6,8 5.875,8.375 5.75,8.75 5.5,9 5.25,9.25 5.25,9.5 5.25,9.75 5.625,9.875 6,10 6.375,10.125 6.75,10.25 7,10.5 7.25,10.75 7.5,11 7.75,11.25 8,11.5 8.25,11.75 8.609375,11.890625 L 8.96875,12.03125 8.953125,11.921875 8.9375,11.8125 8.96875,12.03125 Q 9,12.25 9,12.5 V 12.75 12.375 12 12.5 13 H 8.5 Q 8,13 7.5,13 H 7 V 12.5 Q 7,12 6.875,11.625 6.75,11.25 6.375,11.125 6,11 5.625,10.875 5.25,10.75 5,10.5 4.75,10.25 4.5,10.25 4.25,10.25 4,10.5 3.75,10.75 3.5,11 3.25,11.25 3,11.5 2.75,11.75 2.5,12 2.25,12.25 2,12.5 1.75,12.75 1.390625,12.859375 L 1.03125,12.96875 1.046875,13.078125 1.0625,13.1875 1.03125,12.96875 Q 1,12.75 1,12.5 V 12.25 12.625 13 12.5 Q 1,12 1.125,11.625 1.25,11.25 1.625,11.125 2,11 2.375,10.875 2.75,10.75 3,10.5 3.25,10.25 3.5,10 3.75,9.75 4,9.5 4.25,9.25 4.5,9 4.75,8.75 4.875,8.375 5,8 5,7.5 5,7 5.125,6.625 M 6.875,13 H 7 7.375 7.75 7.5 Q 7.25,13 7,13 H 6.75 6.875 M 9,13.125 V 13 12.625 12.25 12.5 q 0,0.25 0,0.5 v 0.25 -0.125"
       id="path22"
       inkscape:connector-curvature="0" />
    <path
       style="fill:#910000;fill-opacity:1"
       d="m 4,10.5 q 0.25,-0.25 0.5,-0.25 0.25,0 0.5,0.25 0.25,0.25 0.625,0.375 L 6,11 V 11.5 12 H 5.5 Q 5,12 4.625,12.125 4.25,12.25 4.125,12.625 4,13 4.125,13.375 4.25,13.75 4.5,14 4.75,14.25 4.875,14.625 L 5,15 H 4.5 4 3.5 3 2.5 2 L 1.875,14.625 Q 1.75,14.25 1.5,14 1.25,13.75 1.125,13.375 L 1,13 1.09375,13.28125 1.1875,13.5625 1.125,13.375 Q 1.0625,13.1875 1.03125,12.96875 L 1,12.75 1.015625,12.859375 1.03125,12.96875 1.390625,12.859375 Q 1.75,12.75 2,12.5 2.25,12.25 2.5,12 2.75,11.75 3,11.5 3.25,11.25 3.5,11 3.75,10.75 4,10.5 m 2,1.625 V 12 11.625 11.25 11.5 q 0,0.25 0,0.5 v 0.25 -0.125 M 6.09375,11.03125 6,11 5.71875,10.90625 5.4375,10.8125 5.625,10.875 Q 5.8125,10.9375 6,11 l 0.1875,0.0625 -0.09375,-0.03125"
       id="path24"
       inkscape:connector-curvature="0" />
    <path
       style="fill:#ff0000;fill-opacity:1"
       d="M 6,11.5 V 11 l 0.375,0.125 q 0.375,0.125 0.5,0.5 Q 7,12 7,12.5 V 13 H 6.5 6 v -0.5 q 0,-0.5 0,-1 m 0,1.125 V 13 13.125 13.25 13 q 0,-0.25 0,-0.5 v -0.25 0.375 M 6.625,13 H 7 7.125 7.25 7 Q 6.75,13 6.5,13 H 6.25 6.625 M 6.28125,11.09375 6,11 5.90625,10.96875 5.8125,10.9375 6,11 q 0.1875,0.0625 0.375,0.125 l 0.1875,0.0625 -0.28125,-0.09375"
       id="path26"
       inkscape:connector-curvature="0" />
    <path
       style="fill:#c60000;fill-opacity:1"
       d="M 4.125,12.625 Q 4.25,12.25 4.625,12.125 5,12 5.5,12 H 6 v 0.5 q 0,0.5 0,1 0,0.5 0,1 V 15 H 5.5 5 L 4.875,14.625 Q 4.75,14.25 4.5,14 4.25,13.75 4.125,13.375 4,13 4.125,12.625 M 6,12.375 V 12 11.875 11.75 12 q 0,0.25 0,0.5 v 0.25 -0.375"
       id="path28"
       inkscape:connector-curvature="0" />
    <path
       style="fill:#910000;fill-opacity:1"
       d="M 6,13.5 V 13 h 0.5 q 0.5,0 1,0 0.5,0 1,0 H 9 v 0.5 q 0,0.5 0,1 V 15 H 8.5 8 7.5 7 6.5 6 V 14.5 Q 6,14 6,13.5 M 9,13.375 V 13 12.875 12.75 13 q 0,0.25 0,0.5 v 0.25 -0.375 m -3,-0.5 V 13 13.375 13.75 13.5 Q 6,13.25 6,13 v -0.25 0.125"
       id="path30"
       inkscape:connector-curvature="0" />
  </g>
</svg>
