<?xml version="1.0" encoding="UTF-8" standalone="no"?>
<!-- Created with Inkscape (http://www.inkscape.org/) -->

<svg
   xmlns:dc="http://purl.org/dc/elements/1.1/"
   xmlns:cc="http://creativecommons.org/ns#"
   xmlns:rdf="http://www.w3.org/1999/02/22-rdf-syntax-ns#"
   xmlns:svg="http://www.w3.org/2000/svg"
   xmlns="http://www.w3.org/2000/svg"
   xmlns:sodipodi="http://sodipodi.sourceforge.net/DTD/sodipodi-0.dtd"
   xmlns:inkscape="http://www.inkscape.org/namespaces/inkscape"
   version="1.1"
   id="svg2"
   width="20"
   height="30"
   viewBox="0 0 20 30"
   sodipodi:docname="Sharp.svg"
   inkscape:version="0.92.4 (5da689c313, 2019-01-14)">
  <metadata
     id="metadata8">
    <rdf:RDF>
      <cc:Work
         rdf:about="">
        <dc:format>image/svg+xml</dc:format>
        <dc:type
           rdf:resource="http://purl.org/dc/dcmitype/StillImage" />
        <dc:title></dc:title>
      </cc:Work>
    </rdf:RDF>
  </metadata>
  <defs
     id="defs6" />
  <sodipodi:namedview
     pagecolor="#ffffff"
     bordercolor="#666666"
     borderopacity="1"
     objecttolerance="10"
     gridtolerance="10"
     guidetolerance="10"
     inkscape:pageopacity="0"
     inkscape:pageshadow="2"
     inkscape:window-width="1920"
     inkscape:window-height="1001"
     id="namedview4"
     showgrid="false"
     inkscape:zoom="15.733333"
     inkscape:cx="5"
     inkscape:cy="7.5"
     inkscape:window-x="-9"
     inkscape:window-y="-9"
     inkscape:window-maximized="1"
     inkscape:current-layer="svg2" />
  <g
     id="g24"
     transform="scale(2)">
    <path
       style="fill:#fc2d2d;fill-opacity:1"
       d="M 0,0.5 V 0 H 0.5 1 1.5 2 2.5 3 3.5 4 V 0.5 Q 4,1 4,1.5 4,2 3.875,2.375 3.75,2.75 3.5,3 3.25,3.25 3,3.5 2.75,3.75 2.5,4 2.25,4.25 2.125,4.625 2,5 2,5.5 2,6 2,6.5 2,7 2,7.5 2,8 2,8.5 2,9 2,9.5 2,10 2,10.5 2,11 1.875,11.375 1.75,11.75 1.5,12 1.25,12.25 1,12.5 0.75,12.75 0.375,12.875 L 0,13 V 12.5 12 11.5 11 10.5 10 9.5 9 8.5 8 7.5 7 6.5 6 5.5 5 4.5 4 3.5 3 2.5 2 1.5 1 0.5"
       id="path12"
       inkscape:connector-curvature="0" />
    <path
       style="fill:#fd7f7f;fill-opacity:1"
       d="M 4,0.5 V 0 H 4.5 5 5.5 6 V 0.5 Q 6,1 6,1.5 6,2 5.875,2.375 5.75,2.75 5.5,3 5.25,3.25 5.125,3.625 5,4 5,4.5 5,5 5,5.5 5,6 5,6.5 5,7 5,7.5 5,8 4.875,8.375 4.75,8.75 4.5,9 4.25,9.25 4,9.5 3.75,9.75 3.5,10 3.25,10.25 3,10.5 2.75,10.75 2.359375,10.859375 L 1.96875,10.96875 1.953125,11.078125 1.9375,11.1875 1.96875,10.96875 Q 2,10.75 2,10.5 V 10.25 10.625 11 10.5 Q 2,10 2,9.5 2,9 2,8.5 2,8 2,7.5 2,7 2,6.5 2,6 2,5.5 2,5 2.125,4.625 2.25,4.25 2.5,4 2.75,3.75 3,3.5 3.25,3.25 3.5,3 3.75,2.75 3.875,2.375 4,2 4,1.5 4,1 4,0.5"
       id="path14"
       inkscape:connector-curvature="0" />
    <path
       style="fill:#feafaf;fill-opacity:1"
       d="M 6,0.5 V 0 H 6.5 7 7.5 8 V 0.5 Q 8,1 8,1.5 8,2 8,2.5 8,3 8,3.5 8,4 7.875,4.375 7.75,4.75 7.5,5 7.25,5.25 7.125,5.625 7,6 6.875,6.375 6.75,6.75 6.5,7 6.25,7.25 6,7.5 5.75,7.75 5.359375,7.859375 L 4.96875,7.96875 4.953125,8.078125 4.9375,8.1875 4.96875,7.96875 Q 5,7.75 5,7.5 V 7.25 7.625 8 7.5 Q 5,7 5,6.5 5,6 5,5.5 5,5 5,4.5 5,4 5.125,3.625 5.25,3.25 5.5,3 5.75,2.75 5.875,2.375 6,2 6,1.5 6,1 6,0.5"
       id="path16"
       inkscape:connector-curvature="0" />
    <path
       style="fill:#fec1c1;fill-opacity:1"
       d="M 8,0.5 V 0 H 8.5 9 V 0.5 Q 9,1 9,1.5 9,2 9,2.5 9,3 9,3.5 9,4 9,4.5 9,5 9,5.5 9,6 8.875,6.375 8.75,6.75 8.5,7 8.25,7.25 8,7.5 7.75,7.75 7.5,8 7.25,8.25 7,8.5 6.75,8.75 6.5,9 6.25,9.25 6,9.5 5.75,9.75 5.5,10 5.25,10.25 5,10.5 4.75,10.75 4.5,11 4.25,11.25 4,11.5 3.75,11.75 3.5,12 3.25,12.25 3,12.5 2.75,12.75 2.5,13 2.25,13.25 2,13.5 1.75,13.75 1.5,14 1.25,14.25 1.125,14.625 L 1,15 H 0.5 0 V 14.5 14 13.5 13 L 0.375,12.875 Q 0.75,12.75 1,12.5 1.25,12.25 1.5,12 1.75,11.75 1.875,11.375 L 2,11 1.90625,11.28125 1.8125,11.5625 1.875,11.375 Q 1.9375,11.1875 1.96875,10.96875 L 2,10.75 1.984375,10.859375 1.96875,10.96875 2.359375,10.859375 Q 2.75,10.75 3,10.5 3.25,10.25 3.5,10 3.75,9.75 4,9.5 4.25,9.25 4.5,9 4.75,8.75 4.875,8.375 L 5,8 4.90625,8.28125 4.8125,8.5625 4.875,8.375 Q 4.9375,8.1875 4.96875,7.96875 L 5,7.75 4.984375,7.859375 4.96875,7.96875 5.359375,7.859375 Q 5.75,7.75 6,7.5 6.25,7.25 6.5,7 6.75,6.75 6.875,6.375 7,6 7.125,5.625 7.25,5.25 7.5,5 7.75,4.75 7.875,4.375 8,4 8,3.5 8,3 8,2.5 8,2 8,1.5 8,1 8,0.5"
       id="path18"
       inkscape:connector-curvature="0" />
    <path
       style="fill:#feefef;fill-opacity:1"
       d="M 9,0.5 V 0 H 9.5 10 V 0.5 1 1.5 2 2.5 3 3.5 4 4.5 5 5.5 6 6.5 7 L 9.625,7.125 Q 9.25,7.25 9,7.5 8.75,7.75 8.5,8 8.25,8.25 8,8.5 7.75,8.75 7.5,9 7.25,9.25 7,9.5 6.75,9.75 6.5,10 6.25,10.25 6,10.5 5.75,10.75 5.5,11 5.25,11.25 5,11.5 4.75,11.75 4.5,12 4.25,12.25 4,12.5 3.75,12.75 3.5,13 3.25,13.25 3,13.5 2.75,13.75 2.5,14 2.25,14.25 2.125,14.625 L 2,15 H 1.5 1 L 1.125,14.625 Q 1.25,14.25 1.5,14 1.75,13.75 2,13.5 2.25,13.25 2.5,13 2.75,12.75 3,12.5 3.25,12.25 3.5,12 3.75,11.75 4,11.5 4.25,11.25 4.5,11 4.75,10.75 5,10.5 5.25,10.25 5.5,10 5.75,9.75 6,9.5 6.25,9.25 6.5,9 6.75,8.75 7,8.5 7.25,8.25 7.5,8 7.75,7.75 8,7.5 8.25,7.25 8.5,7 8.75,6.75 8.875,6.375 9,6 9,5.5 9,5 9,4.5 9,4 9,3.5 9,3 9,2.5 9,2 9,1.5 9,1 9,0.5"
       id="path20"
       inkscape:connector-curvature="0" />
    <path
       style="fill:#000000;fill-opacity:0"
       d="M 9,7.5 Q 9.25,7.25 9.625,7.125 L 10,7 V 7.5 8 8.5 9 9.5 10 10.5 11 11.5 12 12.5 13 13.5 14 14.5 15 H 9.5 9 8.5 8 7.5 7 6.5 6 5.5 5 4.5 4 3.5 3 2.5 2 L 2.125,14.625 Q 2.25,14.25 2.5,14 2.75,13.75 3,13.5 3.25,13.25 3.5,13 3.75,12.75 4,12.5 4.25,12.25 4.5,12 4.75,11.75 5,11.5 5.25,11.25 5.5,11 5.75,10.75 6,10.5 6.25,10.25 6.5,10 6.75,9.75 7,9.5 7.25,9.25 7.5,9 7.75,8.75 8,8.5 8.25,8.25 8.5,8 8.75,7.75 9,7.5"
       id="path22"
       inkscape:connector-curvature="0" />
  </g>
</svg>
