<?xml version="1.0" encoding="UTF-8" standalone="no"?>
<!-- Created with Inkscape (http://www.inkscape.org/) -->

<svg
   xmlns:dc="http://purl.org/dc/elements/1.1/"
   xmlns:cc="http://creativecommons.org/ns#"
   xmlns:rdf="http://www.w3.org/1999/02/22-rdf-syntax-ns#"
   xmlns:svg="http://www.w3.org/2000/svg"
   xmlns="http://www.w3.org/2000/svg"
   xmlns:sodipodi="http://sodipodi.sourceforge.net/DTD/sodipodi-0.dtd"
   xmlns:inkscape="http://www.inkscape.org/namespaces/inkscape"
   version="1.1"
   id="svg2"
   width="20"
   height="30"
   viewBox="0 0 20 30"
   sodipodi:docname="Shard.svg"
   inkscape:version="0.92.4 (5da689c313, 2019-01-14)">
  <metadata
     id="metadata8">
    <rdf:RDF>
      <cc:Work
         rdf:about="">
        <dc:format>image/svg+xml</dc:format>
        <dc:type
           rdf:resource="http://purl.org/dc/dcmitype/StillImage" />
        <dc:title></dc:title>
      </cc:Work>
    </rdf:RDF>
  </metadata>
  <defs
     id="defs6" />
  <sodipodi:namedview
     pagecolor="#ffffff"
     bordercolor="#666666"
     borderopacity="1"
     objecttolerance="10"
     gridtolerance="10"
     guidetolerance="10"
     inkscape:pageopacity="0"
     inkscape:pageshadow="2"
     inkscape:window-width="1920"
     inkscape:window-height="1001"
     id="namedview4"
     showgrid="false"
     inkscape:zoom="15.733333"
     inkscape:cx="5"
     inkscape:cy="7.5"
     inkscape:window-x="-9"
     inkscape:window-y="-9"
     inkscape:window-maximized="1"
     inkscape:current-layer="svg2" />
  <g
     id="g24"
     transform="scale(2)">
    <path
       style="fill:#000000;fill-opacity:0"
       d="M 0,0.5 V 0 H 0.5 1 1.5 2 2.5 3 3.5 4 4.5 5 5.5 6 6.5 7 7.5 8 8.5 9 9.5 10 V 0.5 1 1.5 2 2.5 3 3.5 4 4.5 5 5.5 6 6.5 7 7.5 8 8.5 9 9.5 10 10.5 11 11.5 12 12.5 13 13.5 14 14.5 15 H 9.5 9 8.5 8 7.5 7 6.5 6 5.5 5 4.5 4 3.5 3 2.5 2 1.5 1 0.5 0 V 14.5 14 13.5 13 12.5 12 11.5 11 10.5 10 9.5 9 8.5 8 7.5 7 6.5 6 5.5 5 4.5 4 3.5 3 2.5 2 1.5 1 0.5 M 4.5,12 Q 5,12 5.375,11.875 5.75,11.75 5.875,11.375 6,11 6,10.5 6,10 6,9.5 6,9 5.984375,8.484375 L 5.96875,7.96875 5.859375,7.984375 5.75,8 5.96875,7.96875 Q 6.1875,7.9375 6.375,7.875 L 6.5625,7.8125 6.28125,7.90625 6,8 6.375,7.875 Q 6.75,7.75 6.875,7.375 7,7 6.875,6.625 6.75,6.25 6.375,6.125 L 6,6 6.28125,6.09375 6.5625,6.1875 6.375,6.125 Q 6.1875,6.0625 5.96875,6.03125 L 5.75,6 5.859375,6.015625 5.96875,6.03125 5.984375,5.515625 Q 6,5 6,4.5 6,4 6,3.5 6,3 5.875,2.625 5.75,2.25 5.375,2.125 5,2 4.5,2 4,2 3.625,2.125 3.25,2.25 3,2.5 2.75,2.75 2.5,3 2.25,3.25 2,3.5 1.75,3.75 1.5,4 1.25,4.25 1.125,4.625 1,5 1,5.5 1,6 1,6.5 1,7 1,7.5 1,8 1,8.5 1,9 1.125,9.375 1.25,9.75 1.5,10 1.75,10.25 2,10.5 2.25,10.75 2.5,11 2.75,11.25 3,11.5 3.25,11.75 3.625,11.875 4,12 4.5,12"
       id="path12"
       inkscape:connector-curvature="0" />
    <path
       style="fill:#ffffff;fill-opacity:1"
       d="M 3,2.5 Q 3.25,2.25 3.625,2.125 4,2 4.5,2 5,2 5.375,2.125 5.75,2.25 5.875,2.625 6,3 6,3.5 6,4 6,4.5 6,5 5.984375,5.515625 L 5.96875,6.03125 6.078125,6.046875 6.1875,6.0625 5.96875,6.03125 Q 5.75,6 5.5,6 H 5.25 5.625 6 5.5 5 V 5.5 Q 5,5 5,4.5 V 4 3.5 Q 5,3 4.5,3 4,3 4,3.5 V 4 H 3.5 Q 3,4 3,4.5 V 5 H 2.5 Q 2,5 2,5.5 V 6 6.5 Q 2,7 2,7.5 2,8 2,8.5 2,9 2.5,9 3,9 3,9.5 3,10 3.5,10 4,10 4,10.5 4,11 4.5,11 5,11 5,10.5 5,10 5,9.5 5,9 5,8.5 V 8 H 5.5 6 5.625 5.25 5.5 Q 5.75,8 5.96875,7.96875 L 6.1875,7.9375 6.078125,7.953125 5.96875,7.96875 5.984375,8.484375 Q 6,9 6,9.5 6,10 6,10.5 6,11 5.875,11.375 5.75,11.75 5.375,11.875 5,12 4.5,12 4,12 3.625,11.875 3.25,11.75 3,11.5 2.75,11.25 2.5,11 2.25,10.75 2,10.5 1.75,10.25 1.5,10 1.25,9.75 1.125,9.375 1,9 1,8.5 1,8 1,7.5 1,7 1,6.5 1,6 1,5.5 1,5 1.125,4.625 1.25,4.25 1.5,4 1.75,3.75 2,3.5 2.25,3.25 2.5,3 2.75,2.75 3,2.5"
       id="path14"
       inkscape:connector-curvature="0" />
    <path
       style="fill:#ffffff;fill-opacity:0.61568627"
       d="M 4,3.5 Q 4,3 4.5,3 5,3 5,3.5 V 4 H 4.5 4 V 3.5"
       id="path16"
       inkscape:connector-curvature="0" />
    <path
       style="fill:#ffffff;fill-opacity:0.38039216"
       d="M 3,4.5 Q 3,4 3.5,4 H 4 4.5 5 V 4.5 Q 5,5 5,5.5 V 6 L 4.625,6.125 Q 4.25,6.25 4.125,6.625 4,7 4.125,7.375 4.25,7.75 4.625,7.875 L 5,8 V 8.5 Q 5,9 5,9.5 5,10 5,10.5 5,11 4.5,11 4,11 4,10.5 4,10 3.5,10 3,10 3,9.5 3,9 2.5,9 2,9 2,8.5 2,8 2,7.5 2,7 2,6.5 V 6 H 2.5 Q 3,6 3,5.5 V 5 4.5"
       id="path18"
       inkscape:connector-curvature="0" />
    <path
       style="fill:#ffffff;fill-opacity:0.61568627"
       d="M 2,5.5 Q 2,5 2.5,5 H 3 V 5.5 Q 3,6 2.5,6 H 2 V 5.5"
       id="path20"
       inkscape:connector-curvature="0" />
    <path
       style="fill:#ff0000;fill-opacity:1"
       d="M 4.125,6.625 Q 4.25,6.25 4.625,6.125 L 5,6 H 5.5 Q 6,6 6.375,6.125 6.75,6.25 6.875,6.625 7,7 6.875,7.375 6.75,7.75 6.375,7.875 6,8 5.5,8 H 5 L 4.625,7.875 Q 4.25,7.75 4.125,7.375 4,7 4.125,6.625"
       id="path22"
       inkscape:connector-curvature="0" />
  </g>
</svg>
