<?xml version="1.0" encoding="UTF-8" standalone="no"?>
<!-- Created with Inkscape (http://www.inkscape.org/) -->

<svg
   xmlns:dc="http://purl.org/dc/elements/1.1/"
   xmlns:cc="http://creativecommons.org/ns#"
   xmlns:rdf="http://www.w3.org/1999/02/22-rdf-syntax-ns#"
   xmlns:svg="http://www.w3.org/2000/svg"
   xmlns="http://www.w3.org/2000/svg"
   xmlns:sodipodi="http://sodipodi.sourceforge.net/DTD/sodipodi-0.dtd"
   xmlns:inkscape="http://www.inkscape.org/namespaces/inkscape"
   version="1.1"
   id="svg2"
   width="20"
   height="30"
   viewBox="0 0 20 30"
   sodipodi:docname="StairsUp.svg"
   inkscape:version="0.92.4 (5da689c313, 2019-01-14)">
  <metadata
     id="metadata8">
    <rdf:RDF>
      <cc:Work
         rdf:about="">
        <dc:format>image/svg+xml</dc:format>
        <dc:type
           rdf:resource="http://purl.org/dc/dcmitype/StillImage" />
        <dc:title></dc:title>
      </cc:Work>
    </rdf:RDF>
  </metadata>
  <defs
     id="defs6" />
  <sodipodi:namedview
     pagecolor="#ffffff"
     bordercolor="#666666"
     borderopacity="1"
     objecttolerance="10"
     gridtolerance="10"
     guidetolerance="10"
     inkscape:pageopacity="0"
     inkscape:pageshadow="2"
     inkscape:window-width="1920"
     inkscape:window-height="1001"
     id="namedview4"
     showgrid="false"
     inkscape:zoom="15.733333"
     inkscape:cx="5"
     inkscape:cy="15.127119"
     inkscape:window-x="-9"
     inkscape:window-y="-9"
     inkscape:window-maximized="1"
     inkscape:current-layer="svg2" />
  <g
     id="g24"
     transform="scale(2)">
    <path
       style="fill:#000000;fill-opacity:0"
       d="M 0,0.5 V 0 H 0.5 1 1.5 2 2.5 3 3.5 4 4.5 5 5.5 6 6.5 7 7.5 8 8.5 9 9.5 10 V 0.5 1 1.5 2 2.5 3 3.5 4 4.5 5 5.5 6 6.5 7 7.5 8 8.5 9 9.5 10 10.5 11 11.5 12 12.5 13 13.5 14 14.5 15 H 9.5 9 8.5 8 7.5 7 6.5 6 5.5 5 4.5 4 3.5 3 2.5 2 1.5 1 0.5 0 V 14.5 14 13.5 13 12.5 12 11.5 11 10.5 10 9.5 9 8.5 8 7.5 7 6.5 6 5.5 5 4.5 4 3.5 3 2.5 2 1.5 1 0.5 M 7.5,14 Q 8,14 8.375,13.875 8.75,13.75 8.875,13.375 9,13 9,12.5 9,12 9,11.5 9,11 9,10.5 9,10 9,9.5 9,9 9,8.5 9,8 9,7.5 9,7 9,6.5 9,6 9,5.5 9,5 9,4.5 9,4 9,3.5 9,3 9,2.5 9,2 8.875,1.625 8.75,1.25 8.375,1.125 8,1 7.5,1 7,1 6.5,1 6,1 5.5,1 5,1 4.5,1 4,1 3.5,1 3,1 2.5,1 2,1 1.625,1.125 1.25,1.25 1.125,1.625 1,2 1,2.5 q 0,0.5 0,1 0,0.5 0,1 0,0.5 0,1 0,0.5 0,1 0,0.5 0,1 0,0.5 0,1 0,0.5 0,1 0,0.5 0,1 0,0.5 0,1 0,0.5 0,1 0,0.5 0.125,0.875 0.125,0.375 0.5,0.5 Q 2,14 2.5,14 q 0.5,0 1,0 0.5,0 1,0 0.5,0 1,0 0.5,0 1,0 0.5,0 1,0"
       id="path12"
       inkscape:connector-curvature="0" />
    <path
       style="fill:#0000ff;fill-opacity:1"
       d="M 1.125,1.625 Q 1.25,1.25 1.625,1.125 2,1 2.5,1 3,1 3.5,1 4,1 4.5,1 5,1 5.5,1 6,1 6.5,1 7,1 7.5,1 8,1 8.375,1.125 8.75,1.25 8.875,1.625 9,2 9,2.5 9,3 9,3.5 9,4 9,4.5 9,5 9,5.5 V 6 H 8.5 Q 8,6 7.5,6 7,6 6.625,6.125 6.25,6.25 6.125,6.625 6,7 6,7.5 6,8 5.875,8.375 5.75,8.75 5.375,8.875 5,9 4.5,9 4,9 3.625,9.125 3.25,9.25 3.125,9.625 3,10 3,10.5 3,11 2.875,11.375 2.75,11.75 2.375,11.875 2,12 1.5,12 H 1 V 11.5 Q 1,11 1,10.5 1,10 1,9.5 1,9 1,8.5 1,8 1,7.5 1,7 1,6.5 1,6 1,5.5 1,5 1,4.5 1,4 1,3.5 1,3 1,2.5 1,2 1.125,1.625 M 1,11.625 V 12 12.125 12.25 12 q 0,-0.25 0,-0.5 v -0.25 0.375 m 8,-5.5 V 6 5.625 5.25 5.5 Q 9,5.75 9,6 V 6.25 6.125"
       id="path14"
       inkscape:connector-curvature="0" />
    <path
       style="fill:#00ff21;fill-opacity:1"
       d="M 6.125,6.625 Q 6.25,6.25 6.625,6.125 7,6 7.5,6 8,6 8.5,6 H 9 V 6.5 7 H 8.5 Q 8,7 7.625,7.125 7.25,7.25 7.125,7.625 7,8 7.125,8.375 7.25,8.75 7.625,8.875 8,9 8.5,9 H 9 V 9.5 10 H 8.5 Q 8,10 7.5,10 7,10 6.5,10 6,10 5.5,10 5,10 4.625,10.125 4.25,10.25 4.125,10.625 4,11 4.125,11.375 4.25,11.75 4.625,11.875 5,12 5.5,12 q 0.5,0 1,0 0.5,0 1,0 0.5,0 1,0 H 9 V 12.5 13 12.625 12.25 12.5 q 0,0.25 -0.03125,0.46875 L 8.9375,13.1875 8.953125,13.078125 8.96875,12.96875 8.484375,12.984375 Q 8,13 7.5,13 7,13 6.5,13 6,13 5.5,13 5,13 4.5,13 4,13 3.5,13 3,13 2.625,13.125 2.25,13.25 2.140625,13.609375 L 2.03125,13.96875 2.140625,13.984375 2.25,14 2.03125,13.96875 Q 1.8125,13.9375 1.625,13.875 L 1.4375,13.8125 1.71875,13.90625 2,14 1.625,13.875 Q 1.25,13.75 1.125,13.375 1,13 1,12.5 V 12 H 1.5 Q 2,12 2.375,11.875 2.75,11.75 2.875,11.375 3,11 3,10.5 3,10 3.125,9.625 3.25,9.25 3.625,9.125 4,9 4.5,9 5,9 5.375,8.875 5.75,8.75 5.875,8.375 6,8 6,7.5 6,7 6.125,6.625 M 1,11.875 V 12 12.375 12.75 12.5 Q 1,12.25 1,12 v -0.25 0.125 m 8,0.5 V 12 11.875 11.75 12 q 0,0.25 0,0.5 v 0.25 -0.375 m 0,-2.25 V 10 9.625 9.25 9.5 Q 9,9.75 9,10 v 0.25 -0.125 M 9,9.375 V 9 8.875 8.75 9 Q 9,9.25 9,9.5 V 9.75 9.375 M 9,7.125 V 7 6.625 6.25 6.5 Q 9,6.75 9,7 V 7.25 7.125 M 9,6.375 V 6 5.875 5.75 6 Q 9,6.25 9,6.5 V 6.75 6.375"
       id="path16"
       inkscape:connector-curvature="0" />
    <path
       style="fill:#0000ff;fill-opacity:1"
       d="M 7.125,7.625 Q 7.25,7.25 7.625,7.125 8,7 8.5,7 H 9 V 7.5 Q 9,8 9,8.5 V 9 H 8.5 Q 8,9 7.625,8.875 7.25,8.75 7.125,8.375 7,8 7.125,7.625 M 9,9.125 V 9 8.625 8.25 8.5 Q 9,8.75 9,9 V 9.25 9.125 M 9,7.375 V 7 6.875 6.75 7 Q 9,7.25 9,7.5 V 7.75 7.375"
       id="path18"
       inkscape:connector-curvature="0" />
    <path
       style="fill:#0000ff;fill-opacity:1"
       d="M 4.125,10.625 Q 4.25,10.25 4.625,10.125 5,10 5.5,10 q 0.5,0 1,0 0.5,0 1,0 0.5,0 1,0 H 9 v 0.5 q 0,0.5 0,1 V 12 H 8.5 Q 8,12 7.5,12 7,12 6.5,12 6,12 5.5,12 5,12 4.625,11.875 4.25,11.75 4.125,11.375 4,11 4.125,10.625 M 9,12.125 V 12 11.625 11.25 11.5 q 0,0.25 0,0.5 v 0.25 -0.125 m 0,-1.75 V 10 9.875 9.75 10 q 0,0.25 0,0.5 v 0.25 -0.375"
       id="path20"
       inkscape:connector-curvature="0" />
    <path
       style="fill:#0000ff;fill-opacity:1"
       d="M 2.140625,13.609375 Q 2.25,13.25 2.625,13.125 3,13 3.5,13 q 0.5,0 1,0 0.5,0 1,0 0.5,0 1,0 0.5,0 1,0 0.5,0 0.984375,-0.01563 L 8.96875,12.96875 8.984375,12.859375 9,12.75 8.96875,12.96875 Q 8.9375,13.1875 8.875,13.375 L 8.8125,13.5625 8.90625,13.28125 9,13 8.875,13.375 Q 8.75,13.75 8.375,13.875 8,14 7.5,14 7,14 6.5,14 6,14 5.5,14 5,14 4.5,14 4,14 3.5,14 3,14 2.5,14 H 2 2.375 2.75 2.5 Q 2.25,14 2.03125,13.96875 L 1.8125,13.9375 1.921875,13.95313 2.03125,13.96876 2.140625,13.609385"
       id="path22"
       inkscape:connector-curvature="0" />
  </g>
</svg>
