<?xml version="1.0" encoding="UTF-8" standalone="no"?>
<!-- Created with Inkscape (http://www.inkscape.org/) -->

<svg
   xmlns:dc="http://purl.org/dc/elements/1.1/"
   xmlns:cc="http://creativecommons.org/ns#"
   xmlns:rdf="http://www.w3.org/1999/02/22-rdf-syntax-ns#"
   xmlns:svg="http://www.w3.org/2000/svg"
   xmlns="http://www.w3.org/2000/svg"
   xmlns:sodipodi="http://sodipodi.sourceforge.net/DTD/sodipodi-0.dtd"
   xmlns:inkscape="http://www.inkscape.org/namespaces/inkscape"
   version="1.1"
   id="svg2"
   width="20"
   height="30"
   viewBox="0 0 20 30"
   sodipodi:docname="Tree.svg"
   inkscape:version="0.92.4 (5da689c313, 2019-01-14)">
  <metadata
     id="metadata8">
    <rdf:RDF>
      <cc:Work
         rdf:about="">
        <dc:format>image/svg+xml</dc:format>
        <dc:type
           rdf:resource="http://purl.org/dc/dcmitype/StillImage" />
        <dc:title></dc:title>
      </cc:Work>
    </rdf:RDF>
  </metadata>
  <defs
     id="defs6" />
  <sodipodi:namedview
     pagecolor="#ffffff"
     bordercolor="#666666"
     borderopacity="1"
     objecttolerance="10"
     gridtolerance="10"
     guidetolerance="10"
     inkscape:pageopacity="0"
     inkscape:pageshadow="2"
     inkscape:window-width="1920"
     inkscape:window-height="1001"
     id="namedview4"
     showgrid="false"
     inkscape:zoom="15.733333"
     inkscape:cx="5"
     inkscape:cy="7.5"
     inkscape:window-x="-9"
     inkscape:window-y="-9"
     inkscape:window-maximized="1"
     inkscape:current-layer="svg2" />
  <g
     id="g16"
     transform="scale(2)">
    <path
       style="fill:#000000;fill-opacity:0"
       d="M 0,0.5 V 0 H 0.5 1 1.5 2 2.5 3 3.5 4 4.5 5 5.5 6 6.5 7 7.5 8 8.5 9 9.5 10 V 0.5 1 1.5 2 2.5 3 3.5 4 4.5 5 5.5 6 6.5 7 7.5 8 8.5 9 9.5 10 10.5 11 11.5 12 12.5 13 13.5 14 14.5 15 H 9.5 9 8.5 8 7.5 7 6.5 6 V 14.5 Q 6,14 6,13.5 6,13 6,12.5 6,12 6,11.5 6,11 5.875,10.625 5.75,10.25 5.5,10 5.25,9.75 5.125,9.375 5,9 4.875,8.625 4.75,8.25 4.5,8 4.25,7.75 4.25,7.5 4.25,7.25 4.5,7 4.75,6.75 5,6.5 5.25,6.25 5.625,6.125 6,6 6.375,5.875 6.75,5.75 7,5.5 7.25,5.25 7.625,5.125 8,5 8.375,4.875 8.75,4.75 8.75,4.5 8.75,4.25 8.375,4.125 8,4 7.625,4.125 7.25,4.25 7,4.5 6.75,4.75 6.375,4.875 6,5 5.625,5.125 5.25,5.25 5,5.5 4.75,5.75 4.5,6 4.25,6.25 4,6.5 3.75,6.75 3.5,6.75 3.25,6.75 3.125,6.375 3,6 3,5.5 3,5 3.125,4.625 3.25,4.25 3.5,4 3.75,3.75 4,3.5 4.25,3.25 4.5,3 4.75,2.75 4.875,2.375 5,2 4.875,1.625 4.75,1.25 4.5,1.25 4.25,1.25 4.125,1.625 4,2 3.875,2.375 3.75,2.75 3.5,3 3.25,3.25 3,3.5 2.75,3.75 2.5,3.75 2.25,3.75 2,3.5 1.75,3.25 1.5,3.25 1.25,3.25 1.25,3.5 1.25,3.75 1.5,4 1.75,4.25 1.875,4.625 2,5 2,5.5 2,6 2.125,6.375 2.25,6.75 2.5,7 2.75,7.25 3,7.5 3.25,7.75 3.5,8 3.75,8.25 3.875,8.625 4,9 4.125,9.375 4.25,9.75 4.5,10 4.75,10.25 4.875,10.625 5,11 5,11.5 5,12 4.875,12.375 4.75,12.75 4.5,13 4.25,13.25 4.125,13.625 4,14 4,14.5 V 15 H 3.5 3 2.5 2 1.5 1 0.5 0 V 14.5 14 13.5 13 12.5 12 11.5 11 10.5 10 9.5 9 8.5 8 7.5 7 6.5 6 5.5 5 4.5 4 3.5 3 2.5 2 1.5 1 0.5"
       id="path12"
       inkscape:connector-curvature="0" />
    <path
       style="fill:#ff0000;fill-opacity:1"
       d="M 4.125,1.625 Q 4.25,1.25 4.5,1.25 4.75,1.25 4.875,1.625 5,2 4.875,2.375 4.75,2.75 4.5,3 4.25,3.25 4,3.5 3.75,3.75 3.5,4 3.25,4.25 3.125,4.625 3,5 3,5.5 3,6 3.125,6.375 3.25,6.75 3.5,6.75 3.75,6.75 4,6.5 4.25,6.25 4.5,6 4.75,5.75 5,5.5 5.25,5.25 5.625,5.125 6,5 6.375,4.875 6.75,4.75 7,4.5 7.25,4.25 7.625,4.125 8,4 8.375,4.125 8.75,4.25 8.75,4.5 8.75,4.75 8.375,4.875 8,5 7.625,5.125 7.25,5.25 7,5.5 6.75,5.75 6.375,5.875 6,6 5.625,6.125 5.25,6.25 5,6.5 4.75,6.75 4.5,7 4.25,7.25 4.25,7.5 4.25,7.75 4.5,8 4.75,8.25 4.875,8.625 5,9 5.125,9.375 5.25,9.75 5.5,10 5.75,10.25 5.875,10.625 6,11 6,11.5 q 0,0.5 0,1 0,0.5 0,1 0,0.5 0,1 V 15 H 5.5 5 4.5 4 V 14.5 Q 4,14 4.125,13.625 4.25,13.25 4.5,13 4.75,12.75 4.875,12.375 5,12 5,11.5 5,11 4.875,10.625 4.75,10.25 4.5,10 4.25,9.75 4.125,9.375 4,9 3.875,8.625 3.75,8.25 3.5,8 3.25,7.75 3,7.5 2.75,7.25 2.5,7 2.25,6.75 2.125,6.375 2,6 2,5.5 2,5 1.875,4.625 1.75,4.25 1.5,4 1.25,3.75 1.25,3.5 1.25,3.25 1.5,3.25 1.75,3.25 2,3.5 2.25,3.75 2.5,3.75 2.75,3.75 3,3.5 3.25,3.25 3.5,3 3.75,2.75 3.875,2.375 4,2 4.125,1.625"
       id="path14"
       inkscape:connector-curvature="0" />
  </g>
</svg>
