<?xml version="1.0" encoding="UTF-8" standalone="no"?>
<!-- Created with Inkscape (http://www.inkscape.org/) -->

<svg
   xmlns:dc="http://purl.org/dc/elements/1.1/"
   xmlns:cc="http://creativecommons.org/ns#"
   xmlns:rdf="http://www.w3.org/1999/02/22-rdf-syntax-ns#"
   xmlns:svg="http://www.w3.org/2000/svg"
   xmlns="http://www.w3.org/2000/svg"
   xmlns:sodipodi="http://sodipodi.sourceforge.net/DTD/sodipodi-0.dtd"
   xmlns:inkscape="http://www.inkscape.org/namespaces/inkscape"
   version="1.1"
   id="svg2"
   width="20"
   height="30"
   viewBox="0 0 20 30"
   sodipodi:docname="Water.svg"
   inkscape:version="0.92.4 (5da689c313, 2019-01-14)">
  <metadata
     id="metadata8">
    <rdf:RDF>
      <cc:Work
         rdf:about="">
        <dc:format>image/svg+xml</dc:format>
        <dc:type
           rdf:resource="http://purl.org/dc/dcmitype/StillImage" />
        <dc:title></dc:title>
      </cc:Work>
    </rdf:RDF>
  </metadata>
  <defs
     id="defs6" />
  <sodipodi:namedview
     pagecolor="#ffffff"
     bordercolor="#666666"
     borderopacity="1"
     objecttolerance="10"
     gridtolerance="10"
     guidetolerance="10"
     inkscape:pageopacity="0"
     inkscape:pageshadow="2"
     inkscape:window-width="1920"
     inkscape:window-height="1001"
     id="namedview4"
     showgrid="false"
     inkscape:zoom="15.733333"
     inkscape:cx="5"
     inkscape:cy="7.5"
     inkscape:window-x="-9"
     inkscape:window-y="-9"
     inkscape:window-maximized="1"
     inkscape:current-layer="svg2" />
  <g
     id="g36"
     transform="scale(2)">
    <path
       style="fill:#000000;fill-opacity:0"
       d="M 0,0.5 V 0 H 0.5 1 1.5 2 2.5 3 3.5 4 4.5 5 5.5 6 6.5 7 7.5 8 8.5 9 9.5 10 V 0.5 1 1.5 2 2.5 3 3.5 4 4.5 5 5.5 6 6.5 7 H 9.5 Q 9,7 8.5,7 8,7 7.625,6.875 7.25,6.75 7,6.5 6.75,6.25 6.5,6 6.25,5.75 6,5.5 5.75,5.25 5.5,5 5.25,4.75 5.25,4.5 5.25,4.25 5.5,4 5.75,3.75 5.75,3.5 5.75,3.25 5.5,3 5.25,2.75 5.125,2.375 5,2 4.875,1.625 4.75,1.25 4.5,1.25 4.25,1.25 4.140625,1.640625 L 4.03125,2.03125 4.140625,2.015625 4.25,2 4.03125,2.03125 Q 3.8125,2.0625 3.625,2.125 L 3.4375,2.1875 3.71875,2.09375 4,2 3.625,2.125 Q 3.25,2.25 3.125,2.625 3,3 2.875,3.375 2.75,3.75 2.5,3.75 2.25,3.75 2,3.5 1.75,3.25 1.375,3.125 1,3 0.5,3 H 0 V 2.5 2 1.5 1 0.5 m 1.25,1 q 0,0.25 0.25,0.25 0.25,0 0.25,-0.25 0,-0.25 -0.25,-0.25 -0.25,0 -0.25,0.25 M 7.125,2.375 Q 7.25,2.75 7.5,2.75 7.75,2.75 7.875,2.375 8,2 7.875,1.625 7.75,1.25 7.5,1.25 7.25,1.25 7.125,1.625 7,2 7.125,2.375 M 7.25,4.5 q 0,0.25 0.25,0.25 0.25,0 0.25,-0.25 0,-0.25 -0.25,-0.25 -0.25,0 -0.25,0.25"
       id="path12"
       inkscape:connector-curvature="0" />
    <path
       style="fill:#ffffff;fill-opacity:1"
       d="m 1.25,1.5 q 0,-0.25 0.25,-0.25 0.25,0 0.25,0.25 0,0.25 -0.25,0.25 -0.25,0 -0.25,-0.25"
       id="path14"
       inkscape:connector-curvature="0" />
    <path
       style="fill:#ffffff;fill-opacity:1"
       d="M 4.140625,1.640625 Q 4.25,1.25 4.5,1.25 q 0.25,0 0.375,0.375 L 5,2 H 4.5 4 4.375 4.75 4.5 Q 4.25,2 4.03125,2.03125 L 3.8125,2.0625 3.921875,2.046875 4.03125,2.03125 4.140625,1.640625 M 5.03125,2.09375 5,2 4.90625,1.71875 4.8125,1.4375 4.875,1.625 Q 4.9375,1.8125 5,2 L 5.0625,2.1875 5.03125,2.09375"
       id="path16"
       inkscape:connector-curvature="0" />
    <path
       style="fill:#0026ff;fill-opacity:1"
       d="M 7.125,1.625 Q 7.25,1.25 7.5,1.25 q 0.25,0 0.375,0.375 L 8,2 7.90625,1.71875 7.8125,1.4375 7.875,1.625 Q 7.9375,1.8125 7.9375,2 V 2.1875 2.09375 2 H 7.5 7.0625 V 2.09375 2.1875 2 q 0,-0.1875 0.0625,-0.375 L 7.1875,1.4375 7.09375,1.71875 7,2 7.125,1.625"
       id="path18"
       inkscape:connector-curvature="0" />
    <path
       style="fill:#0026ff;fill-opacity:1"
       d="M 3.125,2.625 Q 3.25,2.25 3.625,2.125 4,2 4.5,2 H 5 L 5.125,2.375 Q 5.25,2.75 5.5,3 5.75,3.25 5.75,3.5 5.75,3.75 5.5,4 5.25,4.25 5.25,4.5 5.25,4.75 5.5,5 5.75,5.25 6,5.5 6.25,5.75 6.5,6 6.75,6.25 7,6.5 7.25,6.75 7.625,6.875 8,7 8.5,7 9,7 9.5,7 H 10 V 7.5 8 H 9.5 Q 9,8 8.625,8.125 8.25,8.25 8,8.5 7.75,8.75 7.375,8.875 7,9 6.625,9.125 6.25,9.25 6.25,9.5 6.25,9.75 6.625,9.875 7,10 7.5,10 8,10 8.375,9.875 8.75,9.75 9,9.5 9.25,9.25 9.625,9.125 L 10,9 V 9.5 10 10.5 11 11.5 12 12.5 13 13.5 14 14.5 15 H 9.5 9 8.5 8 7.5 7 6.5 6 5.5 5 4.5 4 3.5 3 2.5 2 1.5 1 0.5 0 V 14.5 14 13.5 13 L 0.375,12.875 Q 0.75,12.75 1,12.5 1.25,12.25 1.625,12.125 2,12 2.5,12 3,12 3.5,12 4,12 4.5,12 5,12 5.375,11.875 5.75,11.75 5.75,11.5 5.75,11.25 5.375,11.125 5,11 4.5,11 4,11 3.5,11 3,11 2.5,11 2,11 1.5,11 1,11 0.5,11 H 0 V 10.5 10 9.5 9 8.5 8 7.5 7 6.5 6 H 0.5 Q 1,6 1.375,5.875 1.75,5.75 1.75,5.5 1.75,5.25 1.5,5 1.25,4.75 1.125,4.375 1,4 0.984375,3.515625 L 0.96875,3.03125 0.859375,3.015625 0.75,3 0.96875,3.03125 Q 1.1875,3.0625 1.375,3.125 L 1.5625,3.1875 1.28125,3.09375 1,3 1.375,3.125 Q 1.75,3.25 2,3.5 2.25,3.75 2.5,3.75 2.75,3.75 2.875,3.375 3,3 3.125,2.625 M 2.5,9 Q 3,9 3.375,8.875 3.75,8.75 4,8.5 4.25,8.25 4.625,8.125 5,8 5.375,7.875 5.75,7.75 5.75,7.5 5.75,7.25 5.5,7 5.25,6.75 5,6.5 4.75,6.25 4.375,6.125 4,6 3.625,6.125 3.25,6.25 3,6.5 2.75,6.75 2.5,7 2.25,7.25 2,7.5 1.75,7.75 1.5,8 1.25,8.25 1.25,8.5 1.25,8.75 1.625,8.875 2,9 2.5,9 M 5.09375,2.28125 5,2 4.96875,1.90625 4.9375,1.8125 5,2 Q 5.0625,2.1875 5.125,2.375 L 5.1875,2.5625 5.09375,2.28125"
       id="path20"
       inkscape:connector-curvature="0" />
    <path
       style="fill:#ffffff;fill-opacity:1"
       d="M 7.125,2.375 7,2 7.09375,2.28125 7.1875,2.5625 7.125,2.375 Q 7.0625,2.1875 7.0625,2 V 1.8125 1.90625 2 H 7.5 7.9375 V 1.90625 1.8125 2 q 0,0.1875 -0.0625,0.375 L 7.8125,2.5625 7.90625,2.28125 8,2 7.875,2.375 Q 7.75,2.75 7.5,2.75 7.25,2.75 7.125,2.375"
       id="path22"
       inkscape:connector-curvature="0" />
    <path
       style="fill:#ffffff;fill-opacity:1"
       d="M 0,3.5 V 3 H 0.5 1 0.625 0.25 0.5 Q 0.75,3 0.96875,3.03125 L 1.1875,3.0625 1.078125,3.046875 0.96875,3.03125 0.984375,3.515625 1,4 V 3.625 3.25 3.5 Q 1,3.75 1.03125,3.96875 L 1.0625,4.1875 1.046875,4.078125 1.03125,3.96875 0.515625,3.984375 0,4 V 3.5"
       id="path24"
       inkscape:connector-curvature="0" />
    <path
       style="fill:#000000;fill-opacity:0"
       d="M 0,4.5 V 4 L 0.515625,3.984375 1.03125,3.96875 1.015625,3.859375 1,3.75 1.03125,3.96875 Q 1.0625,4.1875 1.125,4.375 L 1.1875,4.5625 1.09375,4.28125 1,4 1.125,4.375 Q 1.25,4.75 1.5,5 1.75,5.25 1.75,5.5 1.75,5.75 1.375,5.875 1,6 0.5,6 H 0 V 5.5 5 4.5"
       id="path26"
       inkscape:connector-curvature="0" />
    <path
       style="fill:#ffffff;fill-opacity:1"
       d="m 7.25,4.5 q 0,-0.25 0.25,-0.25 0.25,0 0.25,0.25 0,0.25 -0.25,0.25 -0.25,0 -0.25,-0.25"
       id="path28"
       inkscape:connector-curvature="0" />
    <path
       style="fill:#00ffff;fill-opacity:1"
       d="M 3,6.5 Q 3.25,6.25 3.625,6.125 4,6 4.375,6.125 4.75,6.25 5,6.5 5.25,6.75 5.5,7 5.75,7.25 5.75,7.5 5.75,7.75 5.375,7.875 5,8 4.625,8.125 4.25,8.25 4,8.5 3.75,8.75 3.375,8.875 3,9 2.5,9 2,9 1.625,8.875 1.25,8.75 1.25,8.5 1.25,8.25 1.5,8 1.75,7.75 2,7.5 2.25,7.25 2.5,7 2.75,6.75 3,6.5"
       id="path30"
       inkscape:connector-curvature="0" />
    <path
       style="fill:#00ffff;fill-opacity:1"
       d="M 8,8.5 Q 8.25,8.25 8.625,8.125 9,8 9.5,8 H 10 V 8.5 9 L 9.625,9.125 Q 9.25,9.25 9,9.5 8.75,9.75 8.375,9.875 8,10 7.5,10 7,10 6.625,9.875 6.25,9.75 6.25,9.5 6.25,9.25 6.625,9.125 7,9 7.375,8.875 7.75,8.75 8,8.5"
       id="path32"
       inkscape:connector-curvature="0" />
    <path
       style="fill:#00ff9f;fill-opacity:1"
       d="M 0,11.5 V 11 h 0.5 q 0.5,0 1,0 0.5,0 1,0 0.5,0 1,0 0.5,0 1,0 0.5,0 0.875,0.125 0.375,0.125 0.375,0.375 0,0.25 -0.375,0.375 Q 5,12 4.5,12 4,12 3.5,12 3,12 2.5,12 2,12 1.625,12.125 1.25,12.25 1,12.5 0.75,12.75 0.375,12.875 L 0,13 V 12.5 12 11.5"
       id="path34"
       inkscape:connector-curvature="0" />
  </g>
</svg>
