<?xml version="1.0" encoding="UTF-8" standalone="no"?>
<!-- Created with Inkscape (http://www.inkscape.org/) -->

<svg
   xmlns:dc="http://purl.org/dc/elements/1.1/"
   xmlns:cc="http://creativecommons.org/ns#"
   xmlns:rdf="http://www.w3.org/1999/02/22-rdf-syntax-ns#"
   xmlns:svg="http://www.w3.org/2000/svg"
   xmlns="http://www.w3.org/2000/svg"
   xmlns:sodipodi="http://sodipodi.sourceforge.net/DTD/sodipodi-0.dtd"
   xmlns:inkscape="http://www.inkscape.org/namespaces/inkscape"
   version="1.1"
   id="svg2"
   width="20"
   height="30"
   viewBox="0 0 20 30"
   sodipodi:docname="Well.svg"
   inkscape:version="0.92.4 (5da689c313, 2019-01-14)">
  <metadata
     id="metadata8">
    <rdf:RDF>
      <cc:Work
         rdf:about="">
        <dc:format>image/svg+xml</dc:format>
        <dc:type
           rdf:resource="http://purl.org/dc/dcmitype/StillImage" />
        <dc:title></dc:title>
      </cc:Work>
    </rdf:RDF>
  </metadata>
  <defs
     id="defs6" />
  <sodipodi:namedview
     pagecolor="#ffffff"
     bordercolor="#666666"
     borderopacity="1"
     objecttolerance="10"
     gridtolerance="10"
     guidetolerance="10"
     inkscape:pageopacity="0"
     inkscape:pageshadow="2"
     inkscape:window-width="1920"
     inkscape:window-height="1001"
     id="namedview4"
     showgrid="false"
     inkscape:zoom="15.733333"
     inkscape:cx="5"
     inkscape:cy="7.5"
     inkscape:window-x="-9"
     inkscape:window-y="-9"
     inkscape:window-maximized="1"
     inkscape:current-layer="svg2" />
  <g
     id="g18"
     transform="scale(2)">
    <path
       style="fill:#ff0000;fill-opacity:1"
       d="M 0,0.5 V 0 H 0.5 1 1.5 2 2.5 3 3.5 4 4.5 5 5.5 6 6.5 7 7.5 8 8.5 9 9.5 10 V 0.5 1 1.5 2 2.5 3 3.5 4 4.5 5 5.5 6 6.5 7 7.5 8 8.5 9 9.5 10 10.5 11 11.5 12 12.5 13 13.5 14 14.5 15 H 9.5 9 8.5 8 7.5 7 6.5 6 5.5 5 4.5 4 3.5 3 2.5 2 1.5 1 0.5 0 V 14.5 14 13.5 13 12.5 12 11.5 11 10.5 10 9.5 9 8.5 8 7.5 7 6.5 6 5.5 5 4.5 4 3.5 3 2.5 2 1.5 1 0.5 M 7.5,14 Q 8,14 8.375,13.875 8.75,13.75 8.875,13.375 9,13 9,12.5 9,12 9,11.5 9,11 9,10.5 9,10 9,9.5 9,9 9,8.5 9,8 9,7.5 9,7 9,6.5 9,6 9,5.5 9,5 9,4.5 9,4 9,3.5 9,3 9,2.5 9,2 8.875,1.625 8.75,1.25 8.375,1.125 8,1 7.5,1 7,1 6.5,1 6,1 5.5,1 5,1 4.5,1 4,1 3.5,1 3,1 2.5,1 2,1 1.625,1.125 1.25,1.25 1.125,1.625 1,2 1,2.5 q 0,0.5 0,1 0,0.5 0,1 0,0.5 0,1 0,0.5 0,1 0,0.5 0,1 0,0.5 0,1 0,0.5 0,1 0,0.5 0,1 0,0.5 0,1 0,0.5 0,1 0,0.5 0.125,0.875 0.125,0.375 0.5,0.5 Q 2,14 2.5,14 q 0.5,0 1,0 0.5,0 1,0 0.5,0 1,0 0.5,0 1,0 0.5,0 1,0"
       id="path12"
       inkscape:connector-curvature="0" />
    <path
       style="fill:#000000;fill-opacity:0"
       d="M 1.125,1.625 Q 1.25,1.25 1.625,1.125 2,1 2.5,1 3,1 3.5,1 4,1 4.5,1 5,1 5.5,1 6,1 6.5,1 7,1 7.5,1 8,1 8.375,1.125 8.75,1.25 8.875,1.625 9,2 9,2.5 q 0,0.5 0,1 0,0.5 0,1 0,0.5 0,1 0,0.5 0,1 0,0.5 0,1 0,0.5 0,1 0,0.5 0,1 0,0.5 0,1 0,0.5 0,1 0,0.5 0,1 0,0.5 -0.125,0.875 -0.125,0.375 -0.5,0.5 Q 8,14 7.5,14 7,14 6.5,14 6,14 5.5,14 5,14 4.5,14 4,14 3.5,14 3,14 2.5,14 2,14 1.625,13.875 1.25,13.75 1.125,13.375 1,13 1,12.5 1,12 1,11.5 1,11 1,10.5 1,10 1,9.5 1,9 1,8.5 1,8 1,7.5 1,7 1,6.5 1,6 1,5.5 1,5 1,4.5 1,4 1,3.5 1,3 1,2.5 1,2 1.125,1.625 M 6.5,11 Q 7,11 7.375,10.875 7.75,10.75 7.875,10.375 8,10 8,9.5 8,9 8,8.5 8,8 8,7.5 8,7 8,6.5 8,6 8,5.5 8,5 7.875,4.625 7.75,4.25 7.375,4.125 7,4 6.5,4 6,4 5.5,4 5,4 4.5,4 4,4 3.5,4 3,4 2.625,4.125 2.25,4.25 2.125,4.625 2,5 2,5.5 2,6 2,6.5 2,7 2,7.5 2,8 2,8.5 2,9 2,9.5 2,10 2.125,10.375 2.25,10.75 2.625,10.875 3,11 3.5,11 q 0.5,0 1,0 0.5,0 1,0 0.5,0 1,0"
       id="path14"
       inkscape:connector-curvature="0" />
    <path
       style="fill:#ff0000;fill-opacity:1"
       d="M 2.125,4.625 Q 2.25,4.25 2.625,4.125 3,4 3.5,4 4,4 4.5,4 5,4 5.5,4 6,4 6.5,4 7,4 7.375,4.125 7.75,4.25 7.875,4.625 8,5 8,5.5 8,6 8,6.5 8,7 8,7.5 8,8 8,8.5 8,9 8,9.5 8,10 7.875,10.375 7.75,10.75 7.375,10.875 7,11 6.5,11 6,11 5.5,11 5,11 4.5,11 4,11 3.5,11 3,11 2.625,10.875 2.25,10.75 2.125,10.375 2,10 2,9.5 2,9 2,8.5 2,8 2,7.5 2,7 2,6.5 2,6 2,5.5 2,5 2.125,4.625"
       id="path16"
       inkscape:connector-curvature="0" />
  </g>
</svg>
