<?xml version="1.0" encoding="utf-8"?>
<!DOCTYPE svg PUBLIC "-//W3C//DTD SVG 1.1//EN" "http://www.w3.org/Graphics/SVG/1.1/DTD/svg11.dtd">
<svg width="30.556640625" height="42.71484375" xmlns="http://www.w3.org/2000/svg" xmlns:xlink="http://www.w3.org/1999/xlink" xmlns:xml="http://www.w3.org/XML/1998/namespace" version="1.1">
  <g>
    <g>
      <path style="fill:#FF0000;fill-opacity:1" d="M14.091796875,0L18.4716796875,0.703125 21.796875,2.578125 23.9208984375,5.2880859375 24.66796875,8.49609375 24.287109375,11.54296875 23.2177734375,13.974609375 21.5771484375,15.908203125 19.51171875,17.40234375 22.470703125,18.076171875 24.78515625,19.658203125 26.279296875,22.3095703125 26.806640625,26.19140625 26.6162109375,29.1064453125 26.2060546875,31.611328125 25.7958984375,33.8232421875 25.60546875,35.80078125 26.07421875,37.1484375 27.2314453125,37.8955078125 28.7255859375,38.203125 30.205078125,38.26171875 30.556640625,38.26171875 30.556640625,42.71484375 27.5756816864014,42.586669921875 25.25390625,42.2021484375 23.4924297332764,41.583251953125 22.1923828125,40.751953125 20.7861328125,38.4521484375 20.44921875,35.361328125 20.6396484375,33.3251953125 21.0498046875,31.11328125 21.4599609375,28.798828125 21.650390625,26.455078125 21.298828125,24.140625 20.2734375,22.32421875 18.6328125,21.1376953125 16.435546875,20.712890625 15.17578125,20.771484375 14.12109375,20.888671875 13.125,21.064453125 13.125,16.611328125 16.12060546875,15.3002948760986 18.076171875,13.7109375 19.15283203125,11.8359394073486 19.51171875,9.66796875 19.083251953125,7.496337890625 17.7978515625,5.8447265625 15.765380859375,4.801025390625 13.095703125,4.453125 10.048828125,4.892578125 6.6943359375,6.0791015625 3.26660132408142,7.8369140625 0,9.9609375 0,5.185546875 3.00292992591858,3.22265625 6.2548828125,1.5673828125 9.90234375,0.4248046875 14.091796875,0z" />
    </g>
  </g>
</svg>