<?xml version="1.0" encoding="utf-8"?>
<!DOCTYPE svg PUBLIC "-//W3C//DTD SVG 1.1//EN" "http://www.w3.org/Graphics/SVG/1.1/DTD/svg11.dtd">
<svg width="29.70703125" height="42.01171875" xmlns="http://www.w3.org/2000/svg" xmlns:xlink="http://www.w3.org/1999/xlink" xmlns:xml="http://www.w3.org/XML/1998/namespace" version="1.1">
  <g>
    <g>
      <path style="fill:#FF0000;fill-opacity:1" d="M22.32421875,4.453125L18.724365234375,4.72412109375 15.4248046875,5.537109375 12.491455078125,6.873779296875 9.990234375,8.7158203125 7.957763671875,11.0595722198486 6.4306640625,13.9013671875 5.474853515625,17.2229022979736 5.15625,21.005859375 5.474853515625,24.788818359375 6.4306640625,28.1103515625 7.965087890625,30.9521484375 10.01953125,33.2958984375 12.557373046875,35.137939453125 15.5419921875,36.474609375 18.914794921875,37.28759765625 22.6171875,37.55859375 24.78515625,37.55859375 24.78515625,4.453125 22.32421875,4.453125z M22.20703125,0L29.70703125,0 29.70703125,42.01171875 22.67578125,42.01171875 17.98828125,41.649169921875 13.65234375,40.5615234375 9.77416896820068,38.792724609375 6.4599609375,36.38671875 3.75732398033142,33.365478515625 1.71386766433716,29.7509765625 0.428466856479645,25.579833984375 0,20.888671875 0.428466856479645,16.2744159698486 1.71386766433716,12.158203125 3.74633765220642,8.583984375 6.416015625,5.595703125 9.67162990570068,3.211669921875 13.4619140625,1.4501953125 17.677001953125,0.362548828125 22.20703125,0z" />
    </g>
  </g>
</svg>