<?xml version="1.0" encoding="utf-8"?>
<!DOCTYPE svg PUBLIC "-//W3C//DTD SVG 1.1//EN" "http://www.w3.org/Graphics/SVG/1.1/DTD/svg11.dtd">
<svg width="27.24609375" height="43.388671875" xmlns="http://www.w3.org/2000/svg" xmlns:xlink="http://www.w3.org/1999/xlink" xmlns:xml="http://www.w3.org/XML/1998/namespace" version="1.1">
  <g>
    <g>
      <path style="fill:#FF0000;fill-opacity:1" d="M13.65234375,22.060546875L10.2978515625,22.6904296875 7.6318359375,24.4482421875 5.859375,27.1435546875 5.21484375,30.5859375 5.8154296875,34.130859375 7.5146484375,36.826171875 10.1806640625,38.5400390625 13.65234375,39.140625 17.05078125,38.525390625 19.7314453125,36.796875 21.4892578125,34.1015625 22.119140625,30.5859375 21.5185546875,27.2900390625 19.8046875,24.580078125 17.138671875,22.734375 13.65234375,22.060546875z M13.65234375,4.04296875L10.8251953125,4.599609375 8.6279296875,6.1083984375 7.20703125,8.349609375 6.708984375,11.103515625 7.2509765625,13.8720703125 8.7451171875,16.0986328125 10.95703125,17.5927734375 13.65234375,18.134765625 16.3623046875,17.578125 18.57421875,16.0693359375 20.068359375,13.8427734375 20.625,11.103515625 20.0830078125,8.291015625 18.603515625,6.064453125 16.3916015625,4.5849609375 13.65234375,4.04296875z M13.623046875,0L16.07666015625,0.205078125 18.33984375,0.8203125 22.08984375,3.076171875 24.55078125,6.474609375 25.2099590301514,8.51806640625 25.4296875,10.72265625 25.0268535614014,13.5131855010986 23.818359375,16.025390625 21.9433574676514,18.1860370635986 19.541015625,19.921875 22.79296875,21.8115234375 25.2099609375,24.4921875 26.71875,27.65625 27.24609375,30.99609375 26.9970684051514,33.6328125 26.25,36.03515625 25.0524883270264,38.155517578125 23.4521484375,39.9462890625 19.1455078125,42.48046875 16.512451171875,43.16162109375 13.623046875,43.388671875 10.7592763900757,43.16162109375 8.14453125,42.48046875 3.83789086341858,39.9462890625 2.22290062904358,38.155517578125 1.01074242591858,36.03515625 0.252685755491257,33.6328125 0,30.99609375 0.527343988418579,27.65625 2.03613257408142,24.4921875 4.4677734375,21.8115234375 7.763671875,19.921875 5.299072265625,18.1860370635986 3.41308617591858,16.025390625 2.21557641029358,13.5131855010986 1.81640601158142,10.72265625 2.03979516029358,8.49609375 2.70996117591858,6.4453125 5.18554782867432,3.046875 8.935546875,0.8056640625 11.1914052963257,0.201416015625 13.623046875,0z" />
    </g>
  </g>
</svg>