<?xml version="1.0" encoding="utf-8"?>
<!DOCTYPE svg PUBLIC "-//W3C//DTD SVG 1.1//EN" "http://www.w3.org/Graphics/SVG/1.1/DTD/svg11.dtd">
<svg width="46.2890625000058" height="58.447265625" xmlns="http://www.w3.org/2000/svg" xmlns:xlink="http://www.w3.org/1999/xlink" xmlns:xml="http://www.w3.org/XML/1998/namespace" version="1.1">
  <g>
    <g>
      <path style="fill:#FF0000;fill-opacity:1" d="M20.185546875,32.75390625L20.4638671875,32.75390625 20.947265625,32.783203125 20.947265625,35.126953125 20.6689453125,35.09765625 20.5078125,35.09765625 19.0429668426514,35.3173828125 17.9296875,35.9765625 17.2265625,36.95068359375 16.9921875,38.115234375 17.3291015625,39.375 18.2080078125,40.1806640625 19.4384765625,40.6494140625 20.859375,40.8984375 22.91015625,41.2939453125 25.224609375,42.24609375 27.5244140625,44.091796875 29.560546875,47.16796875 30.384521484375,49.288330078125 31.0400390625,51.8408203125 31.490478515625,54.876708984375 31.69921875,58.447265625 26.337890625,58.447265625 26.1987285614014,55.0927734375 25.95703125,52.294921875 25.6164531707764,49.98779296875 25.1806640625,48.10546875 24.052734375,45.4833984375 22.6025390625,44.033203125 20.8447265625,43.3447265625 18.837890625,43.037109375 15.9375,42.5244140625 13.6669921875,41.630859375 12.1728515625,40.25390625 11.630859375,38.291015625 12.275390625,36.005859375 14.0625,34.2626953125 16.7724609375,33.1494140625 20.185546875,32.75390625z M7.93945264816284,0L10.341796875,0.29296875 12.12890625,1.2890625 13.2568359375,3.1640625 13.65234375,6.09375 13.65234375,21.767578125 14.091796875,24.169921875 15.6005859375,25.48828125 18.4716796875,26.044921875 20.4968242645264,26.1328125 22.96875,26.162109375 25.7153301239014,26.129150390625 27.919921875,26.0302734375 29.644775390625,25.81787109375 30.9521484375,25.4443359375 32.4755859375,24.0966796875 32.900390625,21.6796875 32.900390625,5.654296875 33.28125,2.7685546875 34.4384765625,1.0546875 36.38671875,0.2197265625 39.169921875,0 42.4072265625,0.29296875 44.619140625,1.40625 45.87890625,3.6767578125 46.1865196228027,5.343017578125 46.2890625,7.44140625 46.2890625,28.095703125 40.927734375,28.095703125 40.927734375,7.08984375 40.7958984375,4.5703125 40.3564453125,3.134765625 39.521484375,2.490234375 38.203125,2.34375 36.943359375,2.4609375 36.064453125,2.900390625 35.5517578125,3.837890625 35.390625,5.44921875 35.390625,21.6796875 35.22216796875,23.822021484375 34.716796875,25.4443359375 33.841552734375,26.63818359375 32.5634765625,27.4951171875 30.87158203125,28.0517578125 28.7548828125,28.3447265625 26.173095703125,28.465576171875 23.0859375,28.505859375 19.075927734375,28.45458984375 15.8349609375,28.30078125 13.271484375,27.97119140625 11.2939453125,27.392578125 9.86572074890137,26.531982421875 8.9501953125,25.3564453125 8.45580863952637,23.792724609375 8.291015625,21.767578125 8.291015625,5.947265625 8.1884765625,4.16015625 7.88085889816284,3.046875 7.35351514816284,2.490234375 6.56249952316284,2.34375 5.03906202316284,2.75390625 3.73535108566284,4.130859375 2.82714796066284,6.6650390625 2.490234375,10.546875 2.490234375,19.3359375 2.69531202316284,22.119140625 3.33984327316284,24.0380859375 4.49706983566284,25.4296875 6.26953077316284,26.630859375 5.80078077316284,27.6708984375 4.95117139816284,28.505859375 2.62206983566284,26.9970703125 1.08398389816284,25.1806640625 0.249022960662842,22.880859375 0,19.892578125 0,10.869140625 0.0878901481628418,8.3203125 0.454101085662842,5.830078125 1.25976467132568,3.5595703125 2.666015625,1.69921875 4.83398389816284,0.4541015625 7.93945264816284,0z" />
    </g>
  </g>
</svg>