<?xml version="1.0" encoding="utf-8"?>
<!DOCTYPE svg PUBLIC "-//W3C//DTD SVG 1.1//EN" "http://www.w3.org/Graphics/SVG/1.1/DTD/svg11.dtd">
<svg width="46.2890625" height="28.916015625" xmlns="http://www.w3.org/2000/svg" xmlns:xlink="http://www.w3.org/1999/xlink" xmlns:xml="http://www.w3.org/XML/1998/namespace" version="1.1">
  <g>
    <g>
      <path style="fill:#FF0000;fill-opacity:1" d="M24.169921875,21.09375L23.056640625,21.240234375 22.0458984375,21.7236328125 21.3134765625,22.587890625 21.03515625,23.90625 21.240234375,25.13671875 21.943359375,26.42578125 24.0380840301514,25.960693359375 25.400390625,25.2099609375 26.1474590301514,24.239501953125 26.396484375,23.115234375 25.8984375,21.6796875 24.169921875,21.09375z M24.404296875,0L26.348876953125,0.186769008636475 27.9052734375,0.7470703125 30.17578125,2.75390625 30.3515625,2.75390625 31.483154296875,1.45752096176147 32.8857421875,0.615234375 34.676513671875,0.153810024261475 36.97265625,0 40.9716796875,0.4248046875 43.9013671875,1.875 45.6884765625,4.5849609375 46.1389122009277,6.485595703125 46.2890625,8.818359375 46.2890625,28.095703125 40.927734375,28.095703125 40.927734375,8.4375 40.7080078125,5.712890625 39.9462890625,3.8232421875 38.49609375,2.7099609375 36.240234375,2.34375 33.984375,2.6806640625 32.4462890625,3.75 31.5673828125,5.6689453125 31.2890625,8.525390625 28.9453125,8.525390625 28.67431640625,5.7568359375 27.861328125,3.837890625 26.43310546875,2.71728658676147 24.31640625,2.34375 22.294921875,2.666015625 21.0498046875,3.5009765625 20.4052734375,4.6435546875 20.21484375,5.859375 20.712890625,8.203125 18.3984375,8.935546875 17.75390625,5.7421875 18.0908203125,3.720703125 19.21875,1.8603515625 21.2841796875,0.5126953125 24.404296875,0z M7.939453125,0L10.341796875,0.29296875 12.12890625,1.2890625 13.2568359375,3.1640625 13.65234375,6.09375 13.65234375,20.859375 13.828125,23.642578125 14.58984375,25.400390625 16.2744140625,26.30859375 19.189453125,26.572265625 19.6875,26.572265625 18.75,24.90234375 18.544921875,23.49609375 19.0576171875,21.474609375 20.4345703125,19.98046875 22.3974609375,19.0576171875 24.66796875,18.75 26.781005859375,19.04296875 28.3740234375,19.921875 29.373779296875,21.2841796875 29.70703125,23.02734375 29.1064453125,25.3271484375 27.1728515625,27.1875 25.6494121551514,27.89794921875 23.7451171875,28.447265625 21.4270000457764,28.798828125 18.662109375,28.916015625 14.53125,28.59375 11.25,27.4072265625 9.08203125,25.0634765625 8.48876857757568,23.375244140625 8.291015625,21.26953125 8.291015625,5.947265625 8.1884765625,4.16015625 7.880859375,3.046875 7.353515625,2.490234375 6.5625,2.34375 5.0390625,2.75390625 3.7353515625,4.130859375 2.8271484375,6.6650390625 2.490234375,10.546875 2.490234375,19.3359375 2.6953125,22.119140625 3.33984375,24.0380859375 4.4970703125,25.4296875 6.26953125,26.630859375 5.80078125,27.6708984375 4.951171875,28.505859375 2.6220703125,26.9970703125 1.083984375,25.1806640625 0.2490234375,22.880859375 0,19.892578125 0,10.869140625 0.087890625,8.3203125 0.454101085662842,5.830078125 1.25976514816284,3.5595703125 2.666015625,1.69921875 4.833984375,0.4541015625 7.939453125,0z" />
    </g>
  </g>
</svg>