<?xml version="1.0" encoding="utf-8"?>
<!DOCTYPE svg PUBLIC "-//W3C//DTD SVG 1.1//EN" "http://www.w3.org/Graphics/SVG/1.1/DTD/svg11.dtd">
<svg width="58.916015625" height="86.07421875" xmlns="http://www.w3.org/2000/svg" xmlns:xlink="http://www.w3.org/1999/xlink" xmlns:xml="http://www.w3.org/XML/1998/namespace" version="1.1">
  <g>
    <g>
      <path style="fill:#FF0000;fill-opacity:1" d="M12.5390625,0L13.4912109375,0 14.82421875,0.0146484375 16.34765625,0.0732421875 17.841796875,0.17578125 17.841796875,2.431640625 15.76171875,4.189453125 14.6044921875,6.8701171875 14.1064453125,10.048828125 14.00390625,13.30078125 14.00390625,19.775390625 14.11376953125,21.73095703125 14.443359375,23.203125 15.966796875,25.0341796875 17.2412109375,25.521240234375 18.896484375,25.78125 20.9838848114014,25.89111328125 23.5546875,25.927734375 26.5283203125,25.89111328125 28.88671875,25.78125 30.7177734375,25.528564453125 32.109375,25.0634765625 33.7060546875,23.349609375 34.024658203125,22.001953125 34.130859375,20.244140625 34.130859375,10.517578125 33.92578125,7.3828125 33.0029296875,4.833984375 30.908203125,3.1201171875 29.2822265625,2.64770650863647 27.158203125,2.490234375 26.572265625,2.490234375 25.986328125,2.51953125 25.986328125,0.17578125 28.53515625,0.1318359375 31.11328125,0.1025390625 33.45703125,0.087890625 35.302734375,0.087890625 38.624267578125,0.164796352386475 41.2646484375,0.3955078125 43.3117637634277,0.849610805511475 44.853515625,1.5966796875 45.9374961853027,2.67700338363647 46.611328125,4.130859375 46.9628868103027,6.0205078125 47.080078125,8.408203125 47.080078125,27.275390625 47.080078125,27.861328125 47.080078125,28.681640625 46.8273887634277,32.5341796875 46.0693359375,36.123046875 44.8571739196777,39.495849609375 43.2421875,42.7001953125 38.9208984375,48.6474609375 33.4130859375,54.169921875 27.01171875,59.501953125 20.0390625,64.86328125 16.175537109375,67.833251953125 12.7294921875,70.5322265625 9.73754787445068,72.978515625 7.23632907867432,75.1904296875 5.244140625,77.1826095581055 3.779296875,78.9697265625 2.87841749191284,80.5773849487305 2.578125,82.03125 2.91503858566284,83.1591796875 3.984375,83.583984375 5.386962890625,83.3312911987305 7.3095703125,82.5732421875 9.70458889007568,81.4306564331055 12.5244140625,80.0244140625 19.3212890625,76.7138671875 27.3779296875,73.4033203125 36.3720703125,70.8544921875 41.129150390625,70.096435546875 45.99609375,69.84375 49.4970703125,69.990234375 52.939453125,70.400390625 56.1328125,71.044921875 58.916015625,71.89453125 58.623046875,73.0224609375 58.154296875,73.9453125 56.1328125,73.3447265625 53.408203125,72.7734375 50.068359375,72.3486328125 46.201171875,72.1875 41.2353515625,72.44384765625 36.474609375,73.212890625 27.6416015625,75.791015625 19.8193359375,79.130859375 13.125,82.470703125 7.67578125,85.048828125 5.45654296875,85.8178634643555 3.603515625,86.07421875 2.314453125,85.869140625 1.15722608566284,85.1220703125 0.322265148162842,83.61328125 0,81.15234375 0.216064512729645,78.8049240112305 0.864258289337158,76.5673828125 3.310546875,72.3046875 7.1337890625,68.203125 12.158203125,64.130859375 18.1640625,59.9560546875 24.9609375,55.517578125 28.150634765625,53.441162109375 30.9228515625,51.6064453125 35.3466796875,48.33984375 38.4375,45.263671875 40.400390625,41.89453125 41.42578125,37.763671875 41.6455078125,35.28076171875 41.71875,32.40234375 41.71875,27.861328125 41.71875,27.275390625 41.71875,8.61328125 41.641845703125,6.632080078125 41.4111328125,5.1416015625 40.3857421875,3.2958984375 38.4814453125,2.5634765625 35.537109375,2.431640625 34.892578125,2.431640625 33.955078125,2.4609375 33.92578125,2.578125 35.361328125,4.130859375 36.1669921875,6.09375 36.533203125,8.291015625 36.62109375,10.517578125 36.62109375,20.2734375 36.448974609375,22.8076171875 35.9326171875,24.7265625 35.035400390625,26.1328125 33.720703125,27.12890625 31.97021484375,27.76611328125 29.765625,28.095703125 27.06298828125,28.2275390625 23.818359375,28.271484375 19.68017578125,28.212890625 16.34765625,28.037109375 13.721923828125,27.645263671875 11.7041015625,26.9384765625 10.2502431869507,25.869140625 9.31640625,24.3896484375 8.81103420257568,22.393798828125 8.64257717132568,19.775390625 8.64257717132568,13.447265625 8.6865234375,10.48828125 9.0234375,7.5146484375 9.9609375,4.7607421875 11.77734375,2.431640625 11.748046875,2.314453125 9.53979396820068,2.43164205551147 7.71972560882568,2.783203125 5.11230564117432,4.306640625 3.7060546875,7.08984375 3.38745069503784,9.0234375 3.28124952316284,11.3671875 3.28124952316284,19.1015625 3.48632764816284,21.884765625 4.130859375,23.8037109375 5.2880859375,25.1953125 7.06054782867432,26.396484375 6.59179782867432,27.4365234375 5.7421875,28.271484375 3.4130859375,26.7626953125 1.87500047683716,24.9462890625 1.04003953933716,22.646484375 0.791015148162842,19.658203125 0.791015148162842,11.689453125 0.93383777141571,8.807373046875 1.36230421066284,6.3720703125 2.13134717941284,4.35791015625 3.29589796066284,2.7392578125 4.881591796875,1.50879049301147 6.9140625,0.6591796875 9.44824123382568,0.164796352386475 12.5390625,0z" />
    </g>
  </g>
</svg>