<?xml version="1.0" encoding="utf-8"?>
<!DOCTYPE svg PUBLIC "-//W3C//DTD SVG 1.1//EN" "http://www.w3.org/Graphics/SVG/1.1/DTD/svg11.dtd">
<svg width="25.107421875" height="87.392578125" xmlns="http://www.w3.org/2000/svg" xmlns:xlink="http://www.w3.org/1999/xlink" xmlns:xml="http://www.w3.org/XML/1998/namespace" version="1.1">
  <g>
    <g>
      <path style="fill:#FF0000;fill-opacity:1" d="M15.0878896713257,0L17.9296875,0.3662109375 19.9951171875,1.6259765625 21.26953125,4.013671875 21.59912109375,5.6982421875 21.708984375,7.763671875 21.708984375,71.044921875 21.7529296875,75.4248046875 21.943359375,78.57421875 22.32421875,80.8154296875 22.939453125,82.5 23.84765625,83.96484375 25.107421875,85.546875 24.404296875,86.54296875 23.525390625,87.392578125 20.478515625,85.107421875 18.251953125,82.2802734375 16.875,78.3984375 16.5234375,75.8935470581055 16.40625,72.890625 16.40625,7.265625 16.3037109375,5.009765625 15.8935537338257,3.5009765625 15.0439443588257,2.666015625 13.5937490463257,2.40234375 12.3632802963257,2.490234375 12.3632802963257,0.146484375 13.8134765625,0.0439453125 15.0878896713257,0z M2.72460842132568,0L5.56640529632568,0.3662109375 7.63183450698853,1.6259765625 8.90624809265137,4.013671875 9.23583889007568,5.6982421875 9.34570217132568,7.763671875 9.34570217132568,71.044921875 9.38964748382568,75.4248046875 9.58007717132568,78.57421875 9.96093654632568,80.8154296875 10.5761699676514,82.5 11.4843740463257,83.96484375 12.7441396713257,85.546875 12.0410146713257,86.54296875 11.162109375,87.392578125 8.115234375,85.107421875 5.888671875,82.2802734375 4.51171875,78.3984375 4.16015577316284,75.8935470581055 4.04296827316284,72.890625 4.04296827316284,7.265625 3.94042921066284,5.009765625 3.5302734375,3.5009765625 2.6806640625,2.666015625 1.23046815395355,2.40234375 0,2.490234375 0,0.146484375 1.45019447803497,0.0439453125 2.72460842132568,0z" />
    </g>
  </g>
</svg>