<?xml version="1.0" encoding="utf-8"?>
<!DOCTYPE svg PUBLIC "-//W3C//DTD SVG 1.1//EN" "http://www.w3.org/Graphics/SVG/1.1/DTD/svg11.dtd">
<svg width="55.95703125" height="29.267578125" xmlns="http://www.w3.org/2000/svg" xmlns:xlink="http://www.w3.org/1999/xlink" xmlns:xml="http://www.w3.org/XML/1998/namespace" version="1.1">
  <g>
    <g>
      <path style="fill:#FF0000;fill-opacity:1" d="M38.203125,2.34375L36.943359375,2.4609375 36.064453125,2.900390625 35.5517578125,3.837890625 35.390625,5.44921875 35.390625,17.841796875 38.232421875,18.0908203125 40.927734375,18.3984375 40.927734375,7.08984375 40.7958984375,4.5703125 40.3564453125,3.134765625 39.521484375,2.490234375 38.203125,2.34375z M7.939453125,0L10.341796875,0.29296875 12.12890625,1.2890625 13.2568359375,3.1640625 13.65234375,6.09375 13.65234375,21.767578125 14.091796875,24.169921875 15.6005859375,25.48828125 18.4716796875,26.044921875 20.4968242645264,26.1328125 22.96875,26.162109375 25.7153301239014,26.129150390625 27.919921875,26.0302734375 29.644775390625,25.81787109375 30.9521484375,25.4443359375 32.4755859375,24.0966796875 32.900390625,21.6796875 32.900390625,19.951171875 28.76953125,19.599609375 24.9169921875,18.779296875 22.060546875,17.1240234375 21.2255840301514,15.875244140625 20.947265625,14.267578125 21.2109375,12.71484375 22.03125,11.3232421875 23.4521484375,10.25390625 25.517578125,9.638671875 25.9130859375,10.6787109375 26.07421875,11.865234375 24.0966796875,12.626953125 23.4375,14.23828125 23.6425762176514,15.164794921875 24.2578125,15.8935546875 26.42578125,16.875 29.4580078125,17.3876953125 32.900390625,17.666015625 32.900390625,5.654296875 33.28125,2.7685546875 34.4384765625,1.0546875 36.38671875,0.2197265625 39.169921875,0 42.4072265625,0.29296875 44.619140625,1.40625 45.87890625,3.6767578125 46.1865196228027,5.343017578125 46.2890625,7.44140625 46.2890625,19.51171875 49.98046875,20.9326171875 52.8955078125,22.91015625 54.931640625,25.546875 55.95703125,28.9453125 54.84375,29.1943359375 53.701171875,29.267578125 52.9541015625,28.1982421875 51.708984375,27.919921875 50.3173828125,28.06640625 48.837890625,28.447265625 48.3984375,27.421875 48.134765625,26.25 50.0244140625,25.751953125 51.884765625,25.458984375 49.4384765625,23.2763671875 46.2890625,21.826171875 46.2890625,28.095703125 40.927734375,28.095703125 40.927734375,20.625 38.173828125,20.33203125 35.390625,20.126953125 35.390625,21.6796875 35.22216796875,23.822021484375 34.716796875,25.4443359375 33.841552734375,26.63818359375 32.5634765625,27.4951171875 30.87158203125,28.0517578125 28.7548828125,28.3447265625 26.173095703125,28.465576171875 23.0859375,28.505859375 19.075927734375,28.45458984375 15.8349609375,28.30078125 13.271484375,27.97119140625 11.2939453125,27.392578125 9.86572170257568,26.531982421875 8.9501953125,25.3564453125 8.45580959320068,23.792724609375 8.291015625,21.767578125 8.291015625,5.947265625 8.1884765625,4.16015625 7.880859375,3.046875 7.353515625,2.490234375 6.5625,2.34375 5.0390625,2.75390625 3.7353515625,4.130859375 2.8271484375,6.6650390625 2.490234375,10.546875 2.490234375,19.3359375 2.6953125,22.119140625 3.33984375,24.0380859375 4.4970703125,25.4296875 6.26953125,26.630859375 5.80078125,27.6708984375 4.951171875,28.505859375 2.6220703125,26.9970703125 1.08398485183716,25.1806640625 0.2490234375,22.880859375 0,19.892578125 0,10.869140625 0.0878911018371582,8.3203125 0.4541015625,5.830078125 1.259765625,3.5595703125 2.66601514816284,1.69921875 4.833984375,0.4541015625 7.939453125,0z" />
    </g>
  </g>
</svg>