<?xml version="1.0" encoding="utf-8"?>
<!DOCTYPE svg PUBLIC "-//W3C//DTD SVG 1.1//EN" "http://www.w3.org/Graphics/SVG/1.1/DTD/svg11.dtd">
<svg width="72.36328125" height="42.48046875" xmlns="http://www.w3.org/2000/svg" xmlns:xlink="http://www.w3.org/1999/xlink" xmlns:xml="http://www.w3.org/XML/1998/namespace" version="1.1">
  <g>
    <g>
      <path style="fill:#FF0000;fill-opacity:1" d="M54.609375,15.556640625L53.349609375,15.673828125 52.470703125,16.11328125 51.9580078125,17.05078125 51.796875,18.662109375 51.796875,31.0546875 54.638671875,31.2890625 57.333984375,31.611328125 57.333984375,20.302734375 57.2021484375,17.783203125 56.7626953125,16.34765625 55.927734375,15.703125 54.609375,15.556640625z M55.576171875,13.212890625L58.8134765625,13.505859375 61.025390625,14.619140625 62.28515625,16.8896484375 62.5927734375,18.555908203125 62.6953125,20.654296875 62.6953125,32.724609375 66.38671875,34.1455078125 69.3017578125,36.123046875 71.337890625,38.759765625 72.36328125,42.158203125 71.25,42.4072265625 70.107421875,42.48046875 69.3603515625,41.4111328125 68.115234375,41.1328125 66.7236328125,41.279296875 65.244140625,41.66015625 64.8046875,40.634765625 64.541015625,39.462890625 66.4306640625,38.96484375 68.291015625,38.671875 65.8447265625,36.4892578125 62.6953125,35.0390625 62.6953125,41.30859375 57.333984375,41.30859375 57.333984375,33.837890625 54.580078125,33.544921875 51.796875,33.33984375 51.796875,33.8671875 51.6577110290527,36.068115234375 51.240234375,37.8662109375 49.7021484375,40.400390625 47.3876953125,41.7333984375 44.53125,42.12890625 40.2685546875,41.455078125 36.533203125,40.01953125 33.2958984375,38.759765625 29.970703125,38.203125 26.19140625,38.935546875 24.1186504364014,39.92431640625 22.001953125,41.42578125 21.2255859375,40.72265625 20.56640625,39.931640625 23.466796875,37.265625 26.25,35.5224609375 28.8427734375,34.5703125 31.171875,34.27734375 33.251953125,34.51171875 35.2001953125,35.126953125 37.060546875,36.005859375 38.84765625,37.001953125 42.1142578125,38.7451171875 43.7292442321777,39.327392578125 45.380859375,39.521484375 46.9482421875,39.2431640625 48.193359375,38.291015625 49.013671875,36.4892578125 49.306640625,33.662109375 49.306640625,33.1640625 46.4794921875,32.9443359375 43.7255859375,32.578125 41.2353515625,31.9482421875 39.2138671875,30.9521484375 37.8515625,29.501953125 37.353515625,27.48046875 37.6171875,25.927734375 38.4375,24.5361328125 39.8583984375,23.466796875 41.923828125,22.8515625 42.3193359375,23.8916015625 42.48046875,25.078125 40.5029296875,25.83984375 39.84375,27.451171875 40.048828125,28.377685546875 40.6640625,29.1064453125 42.83203125,30.087890625 45.8642578125,30.6005859375 49.306640625,30.87890625 49.306640625,18.8671875 49.6875,15.9814453125 50.8447265625,14.267578125 52.79296875,13.4326171875 55.576171875,13.212890625z M12.509765625,0L13.681640625,2.109375 11.070556640625,3.673095703125 8.8037109375,5.7861328125 5.302734375,11.2353515625 3.193359375,17.8125 2.49023389816284,24.873046875 2.65502882003784,28.209228515625 3.1494140625,31.1279296875 3.91845703125,33.6181640625 4.9072265625,35.6689453125 6.097412109375,37.276611328125 7.470703125,38.4375 8.96484279632568,39.140625 10.517578125,39.375 12.48046875,38.9208984375 13.9013671875,37.6611328125 14.765625,35.7568359375 15.05859375,33.33984375 14.725341796875,30.875244140625 13.7255859375,28.9892578125 12.008056640625,27.791748046875 9.521484375,27.392578125 9.521484375,25.048828125 11.9677734375,24.7265625 13.5205078125,23.7890625 14.326171875,22.2802734375 14.560546875,20.244140625 14.381103515625,18.358154296875 13.8427734375,16.9189453125 12.952880859375,16.0070819854736 11.71875,15.703125 9.8291015625,16.4208984375 9.01245021820068,17.3913593292236 8.34960842132568,18.8671875 6.064453125,18.076171875 7.166748046875,15.7836933135986 8.6572265625,14.296875 10.477294921875,13.4838886260986 12.568359375,13.212890625 15.732421875,13.7841796875 18.017578125,15.29296875 19.39453125,17.4755859375 19.86328125,20.0390625 19.6069316864014,21.9140625 18.837890625,23.5546875 17.5634765625,24.90966796875 15.791015625,25.927734375 15.791015625,26.162109375 17.8161602020264,27.4273681640625 19.2626934051514,29.05517578125 20.1306133270264,31.0455322265625 20.419921875,33.3984375 19.7021484375,37.001953125 17.75390625,39.755859375 14.853515625,41.513671875 11.30859375,42.12890625 8.80737209320068,41.82861328125 6.5771484375,40.927734375 4.639892578125,39.466552734375 3.017578125,37.4853515625 1.72485315799713,35.009765625 0.7763671875,32.0654296875 0.194091796875,28.692626953125 0,24.931640625 0.732422351837158,17.4169921875 1.66625952720642,13.7585468292236 3.0029296875,10.3125 4.74609375,7.1337890625 6.8994140625,4.27734375 9.48120021820068,1.8603515625 12.509765625,0z" />
    </g>
  </g>
</svg>