<?xml version="1.0" encoding="utf-8"?>
<!DOCTYPE svg PUBLIC "-//W3C//DTD SVG 1.1//EN" "http://www.w3.org/Graphics/SVG/1.1/DTD/svg11.dtd">
<svg width="86.71875" height="41.572265625" xmlns="http://www.w3.org/2000/svg" xmlns:xlink="http://www.w3.org/1999/xlink" xmlns:xml="http://www.w3.org/XML/1998/namespace" version="1.1">
  <g>
    <g>
      <path style="fill:#FF0000;fill-opacity:1" d="M81.6796875,2.34374904632568L79.833984375,3.03222560882568 79.2626953125,3.841552734375 79.072265625,4.892578125 79.775390625,6.6650390625 81.650390625,7.32421875 83.49609375,6.6943359375 84.228515625,4.892578125 83.525390625,3.0615234375 81.6796875,2.34374904632568z M81.4453125,0L83.49609375,0.322264671325684 85.1806640625,1.30371189117432 86.30859375,2.97363376617432 86.71875,5.36132907867432 86.71875,34.74609375 86.590576171875,36.888427734375 86.2060546875,38.5107421875 84.7265625,40.5615234375 82.3974609375,41.4111328125 79.3359375,41.572265625 75.3955078125,41.3671875 72.6708984375,40.458984375 71.0888671875,38.4228515625 70.704345703125,36.859130859375 70.576171875,34.833984375 70.576171875,19.74609375 70.3857421875,17.548828125 69.7265625,16.23046875 68.49609375,15.5859375 66.5625,15.41015625 64.599609375,15.5712890625 63.251953125,16.1865234375 62.4755859375,17.4462890625 62.2265625,19.541015625 62.2265625,37.3828125 61.875,39.55078125 60.8349609375,40.8251953125 59.150390625,41.42578125 56.8359375,41.572265625 54.0234375,41.3671875 52.177734375,40.6787109375 51.181640625,39.375 50.888671875,37.32421875 50.888671875,19.74609375 50.6982421875,17.548828125 50.0390625,16.23046875 48.80859375,15.5859375 46.875,15.41015625 44.912109375,15.5712890625 43.564453125,16.1865234375 42.7880859375,17.4462890625 42.5390625,19.541015625 42.5390625,37.3828125 42.1875,39.55078125 41.1474609375,40.8251953125 39.462890625,41.42578125 37.1484375,41.572265625 34.3359375,41.3671875 32.490234375,40.6787109375 31.494140625,39.375 31.201171875,37.32421875 31.201171875,19.74609375 31.0107421875,17.548828125 30.3515625,16.23046875 29.091796875,15.5859375 27.099609375,15.41015625 25.0927734375,15.5712890625 23.73046875,16.1865234375 22.9541015625,17.4462890625 22.705078125,19.541015625 22.705078125,37.3828125 22.353515625,39.55078125 21.3134765625,40.8251953125 19.62890625,41.42578125 17.373046875,41.572265625 14.6337890625,41.3671875 12.861328125,40.6787109375 11.89453125,39.375 11.6015625,37.32421875 11.6015625,23.90625 11.3525381088257,21.240234375 10.6347665786743,19.4970703125 9.4775390625,18.544921875 7.91015625,18.251953125 5.712890625,18.779296875 3.9990234375,20.4931640625 2.88574171066284,23.5986328125 2.58911085128784,25.733642578125 2.49023485183716,28.30078125 2.57446265220642,30.6005859375 2.82714891433716,32.51953125 3.837890625,35.390625 5.55175876617432,37.177734375 7.96874904632568,38.115234375 7.29492092132568,40.3125 3.96606421470642,38.98681640625 1.7138671875,36.591796875 0.428466796875,33.046875 0,28.271484375 0.527343273162842,22.8662109375 2.18261766433716,18.8232421875 3.4716796875,17.362060546875 5.0830078125,16.2890625 7.042236328125,15.6298847198486 9.375,15.41015625 12.799072265625,15.9741230010986 15.1025390625,17.666015625 16.409912109375,20.42724609375 16.845703125,24.19921875 16.845703125,37.470703125 17.197265625,38.8623046875 18.427734375,39.228515625 19.86328125,38.7890625 20.21484375,37.470703125 20.21484375,19.658203125 20.3247051239014,17.7978515625 20.654296875,16.318359375 22.060546875,14.3115234375 24.521484375,13.330078125 28.125,13.06640625 31.552734375,13.30078125 34.21875,14.2822265625 35.947265625,16.4208984375 36.40869140625,18.043212890625 36.5625,20.126953125 36.5625,37.470703125 36.9140625,38.8330078125 38.203125,39.228515625 39.6826171875,38.7451171875 40.048828125,37.470703125 40.048828125,19.658203125 40.162353515625,17.7978515625 40.5029296875,16.318359375 41.9091796875,14.3115234375 44.3408203125,13.330078125 47.900390625,13.06640625 51.2841796875,13.30078125 53.9208984375,14.2822265625 55.634765625,16.4208984375 56.0961875915527,18.043212890625 56.25,20.126953125 56.25,37.470703125 56.6015625,38.8330078125 57.890625,39.228515625 59.3701171875,38.7451171875 59.736328125,37.470703125 59.736328125,19.658203125 59.849853515625,17.7978515625 60.1904296875,16.318359375 61.5966796875,14.3115234375 64.0283203125,13.330078125 67.587890625,13.06640625 70.9716796875,13.30078125 73.6083984375,14.2822265625 75.322265625,16.4208984375 75.78369140625,18.043212890625 75.9375,20.126953125 75.9375,34.833984375 76.2158203125,37.236328125 77.021484375,38.5546875 78.310546875,39.111328125 80.009765625,39.228515625 81.85546875,39.0966796875 83.173828125,38.5107421875 83.96484375,37.1630859375 84.228515625,34.74609375 84.228515625,9.66796875 81.38671875,10.341796875 79.0869140625,9.9609375 77.255859375,8.90625 76.0546875,7.265625 75.615234375,5.15625 76.083984375,2.98828220367432 77.3583984375,1.3623046875 79.21875,0.3515625 81.4453125,0z" />
    </g>
  </g>
</svg>