<?xml version="1.0" encoding="utf-8"?>
<!DOCTYPE svg PUBLIC "-//W3C//DTD SVG 1.1//EN" "http://www.w3.org/Graphics/SVG/1.1/DTD/svg11.dtd">
<svg width="73.388671875" height="92.63671875" xmlns="http://www.w3.org/2000/svg" xmlns:xlink="http://www.w3.org/1999/xlink" xmlns:xml="http://www.w3.org/XML/1998/namespace" version="1.1">
  <g>
    <g>
      <path style="fill:#FF0000;fill-opacity:1" d="M7.939453125,5.419921875L10.341796875,5.712890625 12.12890625,6.708984375 13.2568359375,8.583984375 13.65234375,11.513671875 13.65234375,26.982421875 13.9453125,29.267578125 15.029296875,30.556640625 17.2119140625,31.11328125 18.812255859375,31.201171875 20.830078125,31.23046875 21.7822265625,31.23046875 22.8955078125,31.23046875 24.0087890625,31.2158203125 24.9609375,31.201171875 24.990234375,31.083984375 23.6865234375,29.677734375 22.1484375,28.4765625 20.0830078125,27.6416015625 17.2265625,27.333984375 17.2265625,24.990234375 20.3173828125,25.2685546875 22.6025390625,26.0009765625 24.31640625,27.01171875 25.6640625,28.125 27.451171875,29.6484375 28.974609375,30.5712890625 30.8349609375,31.0400390625 33.603515625,31.171875 33.603515625,33.515625 32.05078125,33.5302734375 30.2197265625,33.5595703125 28.2861328125,33.57421875 26.455078125,33.57421875 24.9609375,33.57421875 23.994140625,33.57421875 20.9252910614014,33.56689453125 18.28125,33.544921875 14.1064453125,33.3251953125 11.2353515625,32.7392578125 9.4482421875,31.611328125 8.5400390625,29.7509765625 8.29101657867432,26.982421875 8.29101657867432,11.3671875 8.1884765625,9.580078125 7.880859375,8.466796875 7.353515625,7.91015625 6.5625,7.763671875 5.03906345367432,8.173828125 3.73535251617432,9.55078125 2.82714939117432,12.0849609375 2.49023485183716,15.966796875 2.49023485183716,24.755859375 2.69531297683716,27.5390625 3.33984375,29.4580078125 4.4970703125,30.849609375 6.26953125,32.05078125 5.80078125,33.0908203125 4.951171875,33.92578125 2.62207078933716,32.4169921875 1.08398389816284,30.6005859375 0.249022960662842,28.30078125 0,25.3125 0,16.2890625 0.0878911018371582,13.740234375 0.4541015625,11.25 1.25976610183716,8.9794921875 2.666015625,7.119140625 4.833984375,5.8740234375 7.939453125,5.419921875z M53.173828125,2.34375L51.328125,2.9736328125 50.68359375,4.51171875 51.1962890625,6.1083984375 52.6904296875,7.646484375 55.078125,9.3017578125 58.271484375,11.220703125 58.271484375,10.634765625 57.83203125,6.8701171875 56.6748046875,4.2919921875 55.048828125,2.8125 53.173828125,2.34375z M52.96875,0L55.7958984375,0.556640625 58.2861328125,2.3876953125 59.2822265625,3.86352682113647 60.0732421875,5.7421875 60.589599609375,8.07129096984863 60.76171875,10.8984375 60.76171875,12.5390625 65.2734375,15.5126953125 69.3310546875,18.92578125 72.2607421875,22.939453125 73.106689453125,25.21728515625 73.388671875,27.71484375 72.8173828125,31.2451171875 71.1328125,34.5703125 68.3349609375,37.3681640625 64.423828125,39.31640625 63.33984375,37.236328125 65.6689453125,35.3759765625 67.119140625,32.98828125 67.8662109375,30.439453125 68.0859375,28.095703125 67.470703125,24.4482421875 65.830078125,21.4599609375 63.486328125,18.955078125 60.76171875,16.7578125 60.76171875,81.796875 60.5712890625,84.3493576049805 60,86.5576171875 57.8173828125,89.94140625 54.3896484375,91.962890625 49.892578125,92.63671875 45.263671875,92.0947265625 41.1474609375,90.8935546875 37.2509765625,89.677734375 33.310546875,89.12109375 30.7470703125,89.384765625 28.3154296875,90.029296875 25.8544921875,90.87890625 23.1884765625,91.728515625 20.1123046875,92.373046875 16.435546875,92.63671875 12.63427734375,92.3583908081055 9.31640625,91.5234375 6.492919921875,90.1904220581055 4.1748046875,88.41796875 2.36206030845642,86.2390060424805 1.0546875,83.6865234375 0.263671875,80.819091796875 0,77.6953125 0.216064512729645,74.82421875 0.864258289337158,72.24609375 3.2373046875,67.8369140625 6.81152248382568,64.248046875 11.279296875,61.259765625 16.3037109375,58.6962890625 21.5625,56.337890625 26.4111328125,54.1552734375 30.9521484375,51.826171875 34.9365234375,49.16015625 38.1005859375,45.99609375 40.1806640625,42.1875 40.927734375,37.55859375 40.927734375,13.857421875 40.7080078125,11.1328125 39.9462890625,9.2431640625 38.49609375,8.1298828125 36.240234375,7.763671875 33.99169921875,8.11523628234863 32.4609375,9.169921875 31.58203125,11.06689453125 31.2890625,13.9453125 28.9453125,13.9453125 28.67431640625,11.1767578125 27.861328125,9.2578125 26.43310546875,8.13720893859863 24.31640625,7.763671875 22.294921875,8.0859375 21.0498046875,8.9208984375 20.4052734375,10.0634765625 20.21484375,11.279296875 20.712890625,13.623046875 18.3984375,14.35546875 17.9150390625,12.7001953125 17.75390625,11.162109375 18.0908203125,9.140625 19.21875,7.2802734375 21.26953125,5.9326171875 24.375,5.419921875 26.337890625,5.60302877426147 27.890625,6.15234375 30.17578125,8.173828125 30.3515625,8.173828125 31.494140625,6.884765625 32.900390625,6.03515625 34.7021484375,5.56640625 37.03125,5.419921875 40.986328125,5.8447265625 43.88671875,7.294921875 45.673828125,10.0048828125 46.1352500915527,11.905517578125 46.2890625,14.23828125 46.2890625,37.03125 46.0913047790527,39.759521484375 45.498046875,42.2021484375 43.30078125,46.376953125 39.9755859375,49.74609375 35.80078125,52.5146484375 31.0546875,54.90234375 26.015625,57.099609375 20.91796875,59.326171875 16.0986328125,61.787109375 11.8359375,64.6875 8.43749904632568,68.232421875 6.181640625,72.626953125 5.56640625,75.21240234375 5.36132907867432,78.10546875 5.562744140625,80.892333984375 6.1669921875,83.3349609375 8.4814453125,87.1435546875 10.166015625,88.4912033081055 12.2021484375,89.4580078125 14.564208984375,90.0402755737305 17.2265625,90.234375 20.390625,89.970703125 23.173828125,89.326171875 25.7080078125,88.4765625 28.1396484375,87.626953125 30.615234375,86.982421875 33.28125,86.71875 37.3681640625,87.275390625 41.337890625,88.4912109375 45.41015625,89.6923828125 49.86328125,90.234375 53.5876426696777,89.6996994018555 56.2060546875,88.095703125 57.7551231384277,85.4516525268555 58.271484375,81.796875 58.271484375,15.146484375 54.5068359375,12.6123046875 51.240234375,10.13671875 48.9404296875,7.529296875 48.2922325134277,6.12304830551147 48.076171875,4.599609375 48.3251953125,3.017578125 49.1455078125,1.5234375 50.654296875,0.4248046875 52.96875,0z" />
    </g>
  </g>
</svg>