<?xml version="1.0" encoding="utf-8"?>
<!DOCTYPE svg PUBLIC "-//W3C//DTD SVG 1.1//EN" "http://www.w3.org/Graphics/SVG/1.1/DTD/svg11.dtd">
<svg width="84.66796875" height="87.802734375" xmlns="http://www.w3.org/2000/svg" xmlns:xlink="http://www.w3.org/1999/xlink" xmlns:xml="http://www.w3.org/XML/1998/namespace" version="1.1">
  <g>
    <g>
      <path style="fill:#FF0000;fill-opacity:1" d="M11.71875,56.25L16.69921875,61.3037109375 20.56640625,66.5478515625 23.0712890625,71.865234375 23.741455078125,74.50927734375 23.96484375,77.109375 23.763427734375,79.4714279174805 23.1591796875,81.5771484375 21.03515625,84.9462890625 18.017578125,87.0703125 14.53125,87.802734375 11.7626953125,87.2900390625 9.7119140625,85.9423828125 8.4228515625,84.0234375 7.96875,81.826171875 8.3056640625,79.9658203125 9.287109375,78.3837890625 10.869140625,77.28515625 13.037109375,76.875 15.0146484375,77.1826171875 16.69921875,78.10546875 17.87109375,79.6435546875 18.310546875,81.796875 18.22265625,82.8369140625 17.900390625,83.994140625 18.046875,84.111328125 20.4638671875,81.0791015625 21.1340312957764,79.1271896362305 21.357421875,76.875 20.6982421875,72.71484375 19.8303203582764,70.3857421875 18.544921875,67.91015625 16.8164043426514,65.291748046875 14.619140625,62.5341796875 11.9091796875,59.644775390625 8.642578125,56.630859375 11.71875,56.25z M20.625,47.958984375L29.622802734375,50.006103515625 37.2802734375,52.4560546875 43.6486778259277,55.23193359375 48.779296875,58.2568359375 52.6977500915527,61.48681640625 55.4296875,64.8779296875 57.03369140625,68.353271484375 57.568359375,71.8359375 56.8798828125,75.673828125 55.01953125,78.6474609375 52.3388671875,80.56640625 49.189453125,81.240234375 46.8896484375,80.8447265625 45.0146484375,79.74609375 43.7548828125,78.0322265625 43.30078125,75.791015625 43.7841796875,73.5791015625 45.0146484375,71.9970703125 46.6845703125,71.0595703125 48.515625,70.751953125 50.3466796875,71.0888671875 51.943359375,72.0849609375 53.0859375,73.7109375 53.583984375,75.966796875 53.759765625,76.025390625 54.5947265625,73.9453125 54.873046875,71.71875 54.1259765625,68.0712890625 53.1445274353027,66.134033203125 51.6943359375,64.16015625 49.7534141540527,62.171630859375 47.2998046875,60.1904296875 44.2858848571777,58.2568359375 40.6640625,56.4111328125 36.412353515625,54.66796875 31.5087890625,53.0419921875 25.909423828125,51.566162109375 19.5703125,50.2734375 20.625,47.958984375z M8.4375,38.203125L10.5908203125,38.642578125 12.3486328125,39.8291015625 13.53515625,41.5869140625 13.974609375,43.740234375 13.53515625,45.8935546875 12.3486328125,47.6513671875 10.5908203125,48.837890625 8.4375,49.27734375 6.28418064117432,48.837890625 4.5263671875,47.6513671875 3.33984375,45.8935546875 2.900390625,43.740234375 3.33984375,41.5869140625 4.5263671875,39.8291015625 6.28418064117432,38.642578125 8.4375,38.203125z M44.853515625,35.361328125L51.8701133728027,35.5517578125 58.095703125,36.123046875 63.57421875,37.027587890625 68.349609375,38.2177734375 72.44384765625,39.664306640625 75.87890625,41.337890625 78.695068359375,43.187255859375 80.9326171875,45.1611328125 82.6171875,47.23388671875 83.7744140625,49.3798828125 84.444580078125,51.544189453125 84.66796875,53.671875 84.052734375,57.158203125 82.3828125,60.029296875 79.892578125,61.9775390625 76.845703125,62.6953125 74.677734375,62.3291015625 72.8759765625,61.2890625 71.630859375,59.6337890625 71.162109375,57.421875 71.6162109375,55.2392578125 72.7880859375,53.6279296875 74.443359375,52.6171875 76.34765625,52.265625 77.9296875,52.5146484375 79.39453125,53.291015625 80.5810546875,54.6240234375 81.357421875,56.54296875 81.533203125,56.572265625 81.8701171875,55.1953125 81.97265625,53.7890625 81.77490234375,52.027587890625 81.181640625,50.2001953125 80.152587890625,48.358154296875 78.6474609375,46.552734375 76.63330078125,44.81689453125 74.0771484375,43.18359375 70.93505859375,41.69677734375 67.1630859375,40.400390625 62.742919921875,39.32373046875 57.65625,38.49609375 51.8481407165527,37.96875 45.263671875,37.79296875 33.1201171875,38.349609375 20.537109375,40.13671875 19.8193359375,39.08203125 19.306640625,37.79296875 25.8984375,36.6796875 32.4609375,35.91796875 38.8330078125,35.4931640625 44.853515625,35.361328125z M50.21484375,7.96875L54.931640625,8.5986328125 59.0625,10.458984375 61.9775390625,13.5498046875 62.801513671875,15.560302734375 63.076171875,17.87109375 62.51953125,20.9765625 61.083984375,23.232421875 59.091796875,24.609375 56.865234375,25.078125 54.9462890625,24.7265625 53.3056640625,23.7158203125 52.1630859375,22.1044921875 51.73828125,19.98046875 52.1337890625,17.8857421875 53.2177734375,16.23046875 54.8291015625,15.1318359375 56.77734375,14.736328125 58.3154296875,14.970703125 59.912109375,15.732421875 60.05859375,15.64453125 58.7109375,13.6083984375 56.66015625,11.982421875 53.8916015625,10.9130859375 50.419921875,10.517578125 47.2888145446777,10.78857421875 43.7548828125,11.6015625 39.8217735290527,13.048095703125 35.4931640625,15.2197265625 30.76904296875,18.160400390625 25.6494140625,21.9140625 20.1232891082764,26.572265625 14.1796875,32.2265625 12.744140625,31.875 11.513671875,31.318359375 16.93359375,26.1181640625 23.0859375,20.8154296875 29.7509765625,15.8935546875 36.6650390625,11.806640625 43.564453125,9.0087890625 46.9409141540527,8.228759765625 50.21484375,7.96875z M13.212890625,0L16.728515625,0.615234375 19.27734375,2.2265625 20.8154296875,4.482421875 21.328125,7.001953125 20.9765625,9.052734375 19.951171875,10.810546875 18.310546875,12.0263671875 16.142578125,12.48046875 14.0185546875,12.041015625 12.3779296875,10.8837890625 11.3232421875,9.2431640625 10.95703125,7.353515625 11.6015625,4.921875 12.4658203125,3.78662252426147 13.76953125,2.783203125 13.76953125,2.666015625 13.5205078125,2.63671875 13.388671875,2.63671875 11.3818359375,2.88940572738647 9.404296875,3.6474609375 7.55126905441284,4.954833984375 5.91796779632568,6.85546875 4.54101467132568,9.364013671875 3.45703125,12.4951171875 2.75390625,16.285400390625 2.51953125,20.771484375 2.783203125,25.8984375 3.63281154632568,31.81640625 2.578125,32.51953125 1.43554592132568,33.017578125 0.3369140625,26.5869140625 0,20.7421875 0.238037109375,16.17919921875 0.9521484375,12.099609375 2.098388671875,8.54736328125 3.63281154632568,5.56640625 5.54077053070068,3.18603658676147 7.8076171875,1.435546875 10.382080078125,0.358888149261475 13.212890625,0z" />
    </g>
  </g>
</svg>