<?xml version="1.0" encoding="utf-8"?>
<!DOCTYPE svg PUBLIC "-//W3C//DTD SVG 1.1//EN" "http://www.w3.org/Graphics/SVG/1.1/DTD/svg11.dtd">
<svg width="63.046875" height="87.216796875" xmlns="http://www.w3.org/2000/svg" xmlns:xlink="http://www.w3.org/1999/xlink" xmlns:xml="http://www.w3.org/XML/1998/namespace" version="1.1">
  <g>
    <g>
      <path style="fill:#FF0000;fill-opacity:1" d="M41.572265625,45.17578125L36.4306640625,45.6591796875 31.435546875,46.5234375 22.1630859375,49.306640625 14.208984375,53.408203125 10.8544921875,55.916748046875 7.99804735183716,58.6962890625 5.67993211746216,61.746826171875 3.94042921066284,65.068359375 2.852783203125,68.6279296875 2.490234375,72.392578125 3.22265625,77.7978515625 4.11254930496216,79.9365158081055 5.31738233566284,81.6943359375 6.82251024246216,83.0676193237305 8.61328125,84.052734375 10.65673828125,84.6459884643555 12.919921875,84.84375 16.376953125,84.3896484375 19.130859375,83.408203125 21.5625,82.4267578125 24.052734375,81.97265625 26.6015625,82.4267578125 29.1357421875,83.408203125 31.845703125,84.3896484375 34.921875,84.84375 37.8076171875,84.3017578125 39.8876953125,82.587890625 41.1474609375,79.5849609375 41.572265625,75.17578125 41.572265625,45.17578125z M25.048828125,0L26.993408203125,0.186769008636475 28.5498046875,0.7470703125 30.8203125,2.75390625 30.99609375,2.75390625 32.127685546875,1.45752096176147 33.5302734375,0.615234375 35.321044921875,0.153810024261475 37.6171875,0 41.6162109375,0.4248046875 44.5458984375,1.875 46.3330078125,4.5849609375 46.7834434509277,6.485595703125 46.93359375,8.818359375 46.93359375,40.810546875 50.3723106384277,41.06689453125 53.3642578125,41.6015625 55.9057579040527,42.374267578125 57.9931640625,43.3447265625 59.622802734375,44.505615234375 60.791015625,45.849609375 61.494140625,47.34375 61.728515625,48.955078125 61.45751953125,50.7275390625 60.64453125,52.236328125 57.978515625,54.375 57.978515625,54.609375 60.31494140625,55.87646484375 61.875,57.568359375 62.75390625,59.619140625 63.046875,61.962890625 62.4169921875,65.4931640625 60.703125,68.0712890625 58.1689453125,69.6533203125 55.078125,70.1953125 52.3095703125,69.814453125 49.6875,68.7890625 50.0244140625,67.6611328125 50.654296875,66.650390625 52.6025390625,67.4267578125 54.4921875,67.705078125 56.3122520446777,67.335205078125 57.6708984375,66.2255859375 58.5168418884277,64.464111328125 58.798828125,62.138671875 58.447265625,59.58984375 57.392578125,57.626953125 55.60546875,56.3525390625 53.056640625,55.8984375 53.056640625,53.5546875 55.0488243103027,53.3203125 56.455078125,52.6171875 57.2900352478027,51.50390625 57.568359375,50.0390625 56.9348106384277,47.955322265625 55.0341796875,46.4501953125 53.5775718688965,45.9091186523438 51.7419395446777,45.501708984375 49.5272789001465,45.2279663085938 46.93359375,45.087890625 46.93359375,75.17578125 46.7175254821777,78.1640548706055 46.0693359375,80.68359375 45.0439414978027,82.7600021362305 43.6962890625,84.4189453125 42.052001953125,85.6750411987305 40.13671875,86.54296875 35.7421875,87.216796875 32.0068359375,86.7626953125 29.0771484375,85.78125 26.54296875,84.7998046875 23.994140625,84.345703125 21.5478515625,84.7998046875 19.2333984375,85.78125 16.494140625,86.7626953125 12.83203125,87.216796875 9.8583984375,86.9384689331055 7.26562547683716,86.103515625 5.06103563308716,84.7631759643555 3.25195360183716,82.96875 1.83837914466858,80.7421798706055 0.820313453674316,78.10546875 0.205078601837158,75.1171875 0,71.8359375 0.450439929962158,67.261962890625 1.80175876617432,63.0322265625 3.92211961746216,59.15771484375 6.67968797683716,55.6494140625 10.015869140625,52.50732421875 13.8720703125,49.7314453125 22.6025390625,45.2783203125 27.28271484375,43.6083984375 32.0947265625,42.3193359375 36.903076171875,41.414794921875 41.572265625,40.8984375 41.572265625,8.4375 41.3525390625,5.712890625 40.5908203125,3.8232421875 39.140625,2.7099609375 36.884765625,2.34375 34.63623046875,2.69531393051147 33.10546875,3.75 32.2265625,5.64697265625 31.93359375,8.525390625 29.58984375,8.525390625 29.31884765625,5.7568359375 28.505859375,3.837890625 27.07763671875,2.71728658676147 24.9609375,2.34375 22.939453125,2.666015625 21.6943359375,3.5009765625 21.0498046875,4.6435546875 20.859375,5.859375 21.357421875,8.203125 19.04296875,8.935546875 18.5595703125,7.2802734375 18.3984375,5.7421875 18.7353515625,3.720703125 19.86328125,1.8603515625 21.9287109375,0.5126953125 25.048828125,0z M8.583984375,0L10.986328125,0.29296875 12.7734375,1.2890625 13.9013671875,3.1640625 14.296875,6.09375 14.296875,21.5625 14.6044921875,23.7744140625 15.615234375,25.0634765625 17.490234375,25.6640625 20.390625,25.810546875 23.1005859375,25.810546875 25.60546875,25.78125 25.634765625,25.6640625 24.3310546875,24.2578125 22.79296875,23.056640625 20.7275390625,22.2216796875 17.87109375,21.9140625 17.87109375,19.5703125 20.9619140625,19.8486328125 23.2470703125,20.5810546875 24.9609375,21.591796875 26.30859375,22.705078125 28.095703125,24.228515625 29.619140625,25.1513671875 31.4794921875,25.6201171875 34.248046875,25.751953125 34.248046875,28.095703125 31.2451171875,28.1396484375 28.2421875,28.154296875 24.9609375,28.154296875 21.181640625,28.154296875 18.160400390625,28.125 15.6005859375,28.037109375 13.48388671875,27.7880859375 11.7919921875,27.275390625 10.51025390625,26.46240234375 9.6240234375,25.3125 9.107666015625,23.7158203125 8.93554878234863,21.5625 8.93554878234863,5.947265625 8.8330078125,4.16015625 8.525390625,3.046875 7.99804735183716,2.490234375 7.20703172683716,2.34375 5.68359422683716,2.75390625 4.37988328933716,4.130859375 3.47168016433716,6.6650390625 3.13476610183716,10.546875 3.13476610183716,19.3359375 3.33984375,22.119140625 3.98437547683716,24.0380859375 5.14160203933716,25.4296875 6.91406297683716,26.630859375 6.44531393051147,27.6708984375 5.59570455551147,28.505859375 3.26660203933716,26.9970703125 1.72851657867432,25.1806640625 0.893555164337158,22.880859375 0.644531726837158,19.892578125 0.644531726837158,10.869140625 0.732421875,8.3203125 1.09863328933716,5.830078125 1.904296875,3.5595703125 3.31054782867432,1.69921875 5.47851610183716,0.4541015625 8.583984375,0z" />
    </g>
  </g>
</svg>