<?xml version="1.0" encoding="utf-8"?>
<!DOCTYPE svg PUBLIC "-//W3C//DTD SVG 1.1//EN" "http://www.w3.org/Graphics/SVG/1.1/DTD/svg11.dtd">
<svg width="37.5" height="44.208984375" xmlns="http://www.w3.org/2000/svg" xmlns:xlink="http://www.w3.org/1999/xlink" xmlns:xml="http://www.w3.org/XML/1998/namespace" version="1.1">
  <g>
    <g>
      <path style="fill:#FF0000;fill-opacity:1" d="M16.435546875,0L19.16015625,1.61132764816284 13.3007793426514,10.6347665786743 6.73828125,19.599609375 14.619140625,19.74609375 21.005859375,19.6875 24.36767578125,14.5092782974243 27.5390625,8.818359375 30.380859375,10.1953125 27.09228515625,16.0931396484375 22.8515625,22.50732421875 17.65869140625,29.4378662109375 11.513671875,36.884765625 17.0196533203125,36.6412353515625 21.96533203125,36.35009765625 26.3507080078125,36.0113525390625 30.17578125,35.625 25.751953125,28.974609375 28.388671875,27.48046875 33.64013671875,35.2880859375 37.5,42.59765625 34.6875,44.208984375 33.251953125,41.1767578125 31.875,38.583984375 15.4907217025757,39.77783203125 0.556640625,40.48828125 0,37.5 2.63671827316284,37.415771484375 4.68749952316284,37.3388671875 6.15234375,37.269287109375 7.03125,37.20703125 10.7135000228882,32.969970703125 13.9086894989014,29.1357421875 16.6168193817139,25.704345703125 18.837890625,22.67578125 9.404296875,22.7197265625 1.083984375,22.6171875 0.673828125,19.423828125 2.63671875,19.541015625 6.7840576171875,14.2437744140625 10.46630859375,9.22119140625 13.6834716796875,4.4732666015625 16.435546875,0z" />
    </g>
  </g>
</svg>