<?xml version="1.0" encoding="utf-8"?>
<!DOCTYPE svg PUBLIC "-//W3C//DTD SVG 1.1//EN" "http://www.w3.org/Graphics/SVG/1.1/DTD/svg11.dtd">
<svg width="26.337890625" height="45.1171875" xmlns="http://www.w3.org/2000/svg" xmlns:xlink="http://www.w3.org/1999/xlink" xmlns:xml="http://www.w3.org/XML/1998/namespace" version="1.1">
  <g>
    <g>
      <path style="fill:#FF0000;fill-opacity:1" d="M19.453125,31.787109375L19.70947265625,34.04296875 20.185546875,36.767578125 20.625,39.521484375 20.771484375,41.865234375 20.44921875,42.9638671875 19.27734375,43.564453125 17.578125,44.150390625 20.361328125,43.681640625 20.9033203125,43.8720703125 21.4453125,44.150390625 21.6796875,43.798828125 21.2841796875,41.8212890625 21.181640625,39.814453125 21.15234375,37.001953125 21.15234375,33.896484375 21.123046875,32.8271484375 20.9765625,31.787109375 19.453125,31.787109375z M15.498046875,31.787109375L14.94873046875,33.885498046875 14.58984375,36.5478515625 14.2529287338257,39.114990234375 13.76953125,40.927734375 13.1249990463257,42.12890625 12.3046875,42.861328125 11.1108388900757,43.4033203125 9.345703125,44.033203125 8.876953125,44.208984375 9.404296875,44.12109375 10.37109375,43.916015625 11.1181640625,43.798828125 11.8359375,43.681640625 12.392578125,43.974609375 13.0078125,44.1796875 13.212890625,44.150390625 13.5791015625,43.4765625 13.857421875,42.5390625 14.033203125,41.6015625 14.468994140625,40.023193359375 15.3662109375,37.3974609375 17.021484375,31.787109375 15.498046875,31.787109375z M20.15625,19.658203125L19.98046875,19.775390625 15.99609375,21.767578125 13.5498046875,26.1767578125 11.6015625,30.849609375 20.947265625,30.849609375 21.15234375,28.53515625 21.240234375,26.044921875 21.005859375,22.7197265625 20.15625,19.658203125z M21.62109375,14.296875L21.0205078125,16.5673828125 20.859375,18.92578125 21.8408203125,22.177734375 22.20703125,26.103515625 22.705078125,26.396484375 22.880859375,23.173828125 23.02734375,21.50390625 23.203125,20.068359375 22.1337890625,16.962890625 21.62109375,14.296875z M2.373046875,11.953125L2.18261694908142,12.01171875 2.10937476158142,12.158203125 2.19726514816284,12.421875 2.34374952316284,12.568359375 2.373046875,11.953125z M15.9375,3.984375L16.58203125,4.3359375 15.9375,4.62890625 15.703125,4.3359375 15.9375,3.984375z M15.5859375,3.1640625L15.556640625,3.45703125 15.498046875,3.779296875 15.234375,4.482421875 14.794921875,4.9951171875 14.47265625,5.56640625 14.619140625,5.68359375 14.794921875,5.80078125 14.970703125,6.181640625 14.94140625,6.533203125 14.94140625,6.943359375 15.439453125,7.08984375 15.9375,7.20703125 16.875,7.705078125 17.16796875,8.49609375 16.728515625,9.4482421875 15.703125,9.873046875 12.451171875,12.83203125 9.375,15.99609375 9.0234375,15.99609375 8.671875,16.0546875 6.97265625,14.765625 5.1123046875,13.59375 4.200439453125,13.0664081573486 3.77929615974426,12.83203125 3.63281178474426,12.685546875 3.51562476158142,12.5390625 3.10546851158142,11.572265625 2.72460913658142,11.3671875 2.31445288658142,11.1328125 2.43164038658142,11.220703125 3.04687476158142,11.8359375 3.10546851158142,12.01171875 3.25195288658142,12.65625 3.31054615974426,12.890625 4.8046875,14.091796875 6.8408203125,15.64453125 8.994140625,17.05078125 11.8212890625,15.205078125 14.384765625,12.978515625 15.17578125,13.330078125 15.64453125,17.28515625 15.556640625,17.724609375 15.498046875,18.1640625 15.46875,18.603515625 15.64453125,19.7021484375 15.908203125,20.771484375 19.921875,18.75 20.2587890625,15.5859375 21.416015625,12.626953125 22.294921875,12.861328125 22.6629619598389,14.9734506607056 23.0053691864014,16.6223163604736 23.3221416473389,17.8079242706299 23.61328125,18.5302734375 24.169921875,20.185546875 24.08203125,20.9033203125 23.90625,21.796875 23.84765625,22.529296875 23.759765625,23.5546875 23.701171875,24.7265625 23.671875,25.810546875 23.642578125,26.689453125 23.056640625,27.5390625 23.0859375,27.509765625 23.466796875,27.275390625 23.84765625,27.158203125 24.1845703125,27.802734375 24.4921875,29.0625 24.521484375,28.681640625 24.2138671875,27.1728515625 23.90625,26.54296875 24.0087890625,24.8583984375 24.2578125,22.880859375 24.7265625,19.541015625 24.755859375,19.189453125 24.5874004364014,17.5817890167236 24.08203125,15.2783203125 23.4741191864014,12.9455575942993 22.998046875,11.25 22.0165996551514,10.12939453125 19.892578125,9.521484375 19.6875,9.228515625 19.482421875,8.96484375 19.482421875,7.939453125 18.6328125,6.97265625 17.958984375,5.625 18.193359375,4.951171875 18.69140625,4.189453125 18.603515625,4.04296875 18.45703125,4.16015625 18.369140625,4.365234375 17.607421875,4.5703125 16.6845703125,3.75 15.5859375,3.1640625z M18.486328125,0.9375L16.787109375,1.27441453933716 15.791015625,2.255859375 16.875,2.7685546875 17.841796875,3.45703125 18.603515625,3.10546875 19.306640625,3.45703125 19.62890625,4.248046875 19.453125,4.9951171875 18.955078125,5.595703125 19.3505859375,6.3427734375 19.892578125,7.060546875 20.33203125,6.591796875 21.26953125,5.126953125 21.62109375,3.486328125 21.397705078125,2.325439453125 20.7275390625,1.5380859375 18.486328125,0.9375z M18.45703125,0L20.064697265625,0.208740234375 21.3720703125,0.8349609375 22.239990234375,1.929931640625 22.529296875,3.544921875 21.9287109375,5.9033203125 20.44921875,7.91015625 20.419921875,8.26171875 20.419921875,8.642578125 22.7343730926514,9.42626953125 23.876953125,10.8984375 24.4519023895264,12.9309091567993 25.0634765625,15.3955078125 25.5358867645264,17.6989765167236 25.693359375,19.248046875 25.0927734375,22.412109375 24.638671875,25.166015625 24.638671875,26.484375 25.01953125,27.1728515625 25.224609375,28.154296875 26.0595684051514,29.6044921875 26.337890625,30.498046875 26.30859375,30.87890625 26.220703125,31.201171875 26.103515625,31.5234375 25.4296875,31.494140625 25.3564453125,30.732421875 25.13671875,30.29296875 25.078125,30.52734375 24.31640625,30.732421875 24.111328125,30.556640625 23.876953125,30.41015625 23.73046875,30.146484375 23.671875,29.501953125 23.583984375,28.88671875 23.203125,28.505859375 22.6171875,28.3447265625 22.119140625,28.037109375 22.001953125,29.49462890625 21.884765625,30.52734375 21.9287109375,31.7138671875 22.049560546875,32.537841796875 22.08984375,34.27734375 22.08984375,37.79296875 22.1484375,41.1328125 22.177734375,41.865234375 22.265625,42.568359375 22.5,43.359375 22.587890625,43.9453125 22.353515625,44.6484375 21.474609375,45.087890625 21.1083984375,45.0146484375 20.712890625,44.853515625 20.2734375,44.619140625 17.080078125,45.05859375 15.908203125,44.82421875 15.76171875,44.033203125 16.640625,43.59375 17.841796875,43.30078125 19.0283203125,42.919921875 19.892578125,42.24609375 19.72412109375,39.935302734375 19.21875,36.9873046875 18.7060546875,34.053955078125 18.515625,31.787109375 17.958984375,31.787109375 17.6806640625,33.2080078125 17.314453125,34.5703125 17.138671875,35.185546875 15.1171875,41.1328125 14.94873046875,41.77734375 14.619140625,43.2421875 14.0258779525757,44.6484375 13.06640625,45.1171875 12.333984375,44.970703125 11.689453125,44.619140625 10.078125,44.8388671875 8.525390625,45.05859375 7.32421875,44.82421875 7.08984375,44.150390625 7.177734375,43.916015625 7.353515625,43.798828125 7.55859375,43.681640625 9.93896484375,43.1396484375 11.455078125,42.568359375 12.4108877182007,41.77734375 13.1103515625,40.576171875 13.5388174057007,38.84765625 13.681640625,36.474609375 13.916015625,34.1162109375 14.501953125,31.787109375 10.8984375,31.787109375 10.693359375,31.435546875 10.517578125,31.083984375 12.5537109375,26.0888671875 15.146484375,21.357421875 14.736328125,19.8486328125 14.560546875,18.33984375 14.619140625,17.724609375 14.70703125,17.109375 14.35546875,14.326171875 11.89453125,16.2744140625 9.2578125,17.98828125 8.818359375,18.046875 7.44140625,17.138671875 3.19335913658142,14.267578125 0.9375,45.087890625 0,45.087890625 2.255859375,13.59375 1.58203125,12.802734375 1.31835913658142,11.89453125 1.46484351158142,11.455078125 1.58203125,11.337890625 1.40624952316284,11.19140625 1.31835913658142,10.60546875 1.435546875,10.458984375 1.52343702316284,10.283203125 1.78710913658142,10.3125 2.12402296066284,10.3857421875 2.57812476158142,10.48828125 2.92968726158142,7.177734375 3.86718726158142,7.177734375 3.48632836341858,10.810546875 3.77929615974426,11.3671875 4.013671875,11.77734375 4.16015625,12.0703125 6.650390625,13.4326171875 8.935546875,15.087890625 11.484375,12.48046875 12.0520009994507,11.927490234375 13.3447265625,10.6787109375 14.718017578125,9.444580078125 15.52734375,8.935546875 15.9375,8.90625 16.11328125,8.818359375 16.201171875,8.525390625 15.95947265625,8.148193359375 15.234375,7.9541015625 14.47998046875,7.789306640625 14.150390625,7.5 14.00390625,7.060546875 13.974609375,6.357421875 13.65234375,6.123046875 13.505859375,5.68359375 14.00390625,4.6728515625 14.4873046875,3.804931640625 14.94140625,2.109375 16.0400390625,0.52734375 18.45703125,0z" />
    </g>
  </g>
</svg>