<?xml version="1.0" encoding="utf-8"?>
<!DOCTYPE svg PUBLIC "-//W3C//DTD SVG 1.1//EN" "http://www.w3.org/Graphics/SVG/1.1/DTD/svg11.dtd">
<svg width="42.685546875" height="44.58984375" xmlns="http://www.w3.org/2000/svg" xmlns:xlink="http://www.w3.org/1999/xlink" xmlns:xml="http://www.w3.org/XML/1998/namespace" version="1.1">
  <g>
    <g>
      <path style="fill:#FF0000;fill-opacity:1" d="M23.642578125,30.8203125L24.2797832489014,32.940673828125 25.3125,36.0791015625 26.3232402801514,39.437255859375 26.89453125,42.216796875 26.689453125,42.59765625 25.60546875,42.94921875 24.404296875,43.154296875 27.509765625,43.154296875 27.568359375,43.037109375 27.3706035614014,41.16943359375 26.77734375,37.8515625 25.9790019989014,34.072265625 25.166015625,30.8203125 23.642578125,30.8203125z M18.251953125,30.8203125L17.43896484375,33.28125 16.0546875,36.50390625 14.765625,39.4482421875 14.23828125,41.07421875 14.0625,42.24609375 13.9453125,42.978515625 13.740234375,43.623046875 21.943359375,43.623046875 21.826171875,43.271484375 23.9794921875,42.333984375 25.1843242645264,42.1142578125 25.8984375,41.923828125 25.3710918426514,39.437255859375 24.31640625,36.3134765625 23.2470684051514,33.218994140625 22.67578125,30.8203125 18.251953125,30.8203125z M16.23046875,30.8203125L15.0439453125,33.4130859375 14.1796875,36.181640625 13.359375,38.994140625 12.421875,41.689453125 12.099609375,42.01171875 11.19140625,42.24609375 10.224609375,42.0703125 9.404296875,41.89453125 8.671875,41.71875 10.6494140625,42.7734375 12.861328125,43.212890625 13.037109375,42.451171875 13.154296875,41.66015625 13.9965810775757,38.85498046875 15.234375,36.064453125 16.47216796875,33.36181640625 17.314453125,30.8203125 16.23046875,30.8203125z M24.08203125,19.599609375L20.126953125,20.80078125 18.3984375,25.341796875 16.640625,29.8828125 24.990234375,29.8828125 24.814453125,26.3671875 24.7045879364014,24.29443359375 24.375,21.708984375 24.08203125,19.599609375z M17.607421875,14.296875L15.91552734375,14.8498554229736 13.7109375,16.1572265625 11.8139638900757,17.4499530792236 11.044921875,17.958984375 10.751953125,18.046875 6.45996141433716,16.81640625 2.25585913658142,15.263671875 2.567138671875,23.345947265625 3.5009765625,31.0107421875 4.19952344894409,34.4302368164063 5.05004835128784,37.232666015625 6.05255079269409,39.4180297851563 7.20703125,40.986328125 7.20703125,40.8984375 7.236328125,40.83984375 7.91015625,40.6640625 8.203125,40.6640625 11.103515625,41.30859375 11.630859375,41.162109375 12.3669424057007,39.063720703125 13.2861328125,35.8740234375 14.359130859375,32.567138671875 15.556640625,30.1171875 19.27734375,20.419921875 18.5595703125,17.314453125 17.607421875,14.296875z M25.458984375,13.330078125L24.8876953125,13.9599609375 24.697265625,15.556640625 24.7265625,16.23046875 24.755859375,16.9921875 25.2392578125,21.1962890625 25.5651836395264,23.76708984375 25.751953125,26.8798828125 25.8087139129639,28.3648681640625 25.8618144989014,29.43603515625 25.9112529754639,30.0933837890625 25.95703125,30.3369140625 26.1584453582764,30.860595703125 26.5869140625,32.28515625 27.1911602020264,34.8779296875 27.919921875,38.90625 28.4765625,41.923828125 28.53515625,42.509765625 28.505859375,43.18359375 30.8340454101563,41.3580322265625 32.896728515625,39.13330078125 34.6939086914063,36.5093994140625 36.2255859375,33.486328125 37.5173950195313,29.930419921875 38.594970703125,25.7080078125 39.4583129882813,20.819091796875 40.107421875,15.263671875 37.96142578125,16.1059589385986 35.390625,16.875 33.21533203125,17.4243183135986 32.255859375,17.607421875 31.241455078125,17.2998065948486 29.4873046875,16.376953125 25.458984375,13.330078125z M18.515625,4.1015625L18.92578125,4.1015625 19.423828125,4.423828125 18.75,4.775390625 18.369140625,4.482421875 18.515625,4.1015625z M18.193359375,3.486328125L17.6953125,4.6435546875 17.16796875,5.771484375 17.490234375,5.859375 17.841796875,6.298828125 17.87109375,6.796875 17.87109375,7.08984375 17.87109375,7.2509765625 17.841796875,7.353515625 18.544921875,7.55859375 19.27734375,7.6171875 19.74609375,7.939453125 19.86328125,9.052734375 19.669189453125,10.18798828125 19.0869140625,11.07421875 17.87109375,11.9091796875 17.373046875,12.041015625 14.0185546875,13.6962890625 10.986328125,16.34765625 10.72265625,16.40625 10.4296875,16.494140625 10.103759765625,16.4007587432861 9.3603515625,16.1792011260986 8.199462890625,15.8294687271118 6.62109375,15.3515625 3.662109375,14.1577167510986 1.93359351158142,12.744140625 1.7578125,12.65625 1.28906226158142,12.421875 1.11328125,12.568359375 0.996093988418579,12.71484375 0.878906011581421,12.861328125 1.18652319908142,13.5791015625 1.55273413658142,14.267578125 2.435302734375,14.3151874542236 2.9150390625,14.4580078125 3.753662109375,14.8278827667236 5.71289110183716,15.556640625 10.693359375,17.080078125 11.4843740463257,16.5490741729736 13.388671875,15.2490234375 15.73974609375,13.9270038604736 17.87109375,13.330078125 18.33984375,13.65234375 19.2333984375,16.2451171875 19.921875,18.896484375 20.126953125,19.833984375 22.03125,19.2626953125 23.96484375,18.662109375 23.84765625,17.40234375 23.759765625,15.556640625 24.2138671875,13.212890625 24.7888164520264,12.5756845474243 25.60546875,12.36328125 26.015625,12.5390625 28.9013671875,14.8388671875 32.138671875,16.611328125 35.93994140625,15.7507343292236 38.26171875,14.9853515625 40.8984375,14.267578125 41.4404296875,13.623046875 41.71875,12.861328125 41.513671875,12.59765625 41.162109375,12.392578125 40.48828125,12.744140625 38.829345703125,14.2163105010986 36.3720703125,15.05859375 33.958740234375,15.5712909698486 32.431640625,16.0546875 31.9921875,15.9375 28.6230449676514,12.9309091567993 25.83984375,11.4111328125 23.9062480926514,10.257568359375 23.0859375,8.349609375 21.97265625,7.0166015625 21.26953125,5.419921875 21.50390625,4.74609375 21.73828125,4.599609375 21.85546875,4.365234375 21.73828125,3.7939453125 21.50390625,3.603515625 21.298828125,3.69140625 21.181640625,3.896484375 20.888671875,4.013671875 20.56640625,4.189453125 18.193359375,3.486328125z M21.474609375,0.966796875L19.833984375,1.23046875 19.130859375,1.7138671875 18.544921875,2.63671875 20.537109375,3.22265625 21.005859375,2.8271484375 21.5625,2.666015625 22.3974609375,3.1494140625 22.734375,4.21875 22.236328125,5.390625 22.79296875,6.6064453125 23.701171875,7.6171875 24.8291015625,6.97265625 25.25390625,5.0390625 25.0488262176514,3.248291015625 24.43359375,1.9775390625 23.2836894989014,1.219482421875 21.474609375,0.966796875z M21.533203125,0L23.6315898895264,0.31494140625 25.0634765625,1.259765625 25.8874492645264,2.7685546875 26.162109375,4.775390625 26.0266094207764,6.4013671875 25.6201171875,7.529296875 24.08203125,8.5546875 24.8986797332764,9.891357421875 26.7041015625,10.7958984375 29.2858867645264,12.1984872817993 32.431640625,15.029296875 33.65478515625,14.6557636260986 35.68359375,14.23828125 37.686767578125,13.7292499542236 38.8330078125,13.0810546875 40.166015625,11.89453125 40.166015625,9.0234375 41.103515625,9.0234375 41.103515625,11.42578125 42.1435546875,11.8798828125 42.685546875,12.744140625 42.2900390625,14.0478515625 41.484375,15.029296875 41.07421875,15.205078125 40.4095458984375,21.0699462890625 39.49951171875,26.21337890625 38.3441162109375,30.6353759765625 36.943359375,34.3359375 35.2606201171875,37.481689453125 33.25927734375,40.2392578125 30.9393310546875,42.608642578125 28.30078125,44.58984375 13.2421875,44.58984375 10.6356811523438,44.2474365234375 8.382568359375,43.22021484375 6.48284912109375,41.5081787109375 4.9365234375,39.111328125 3.71063232421875,36.1468505859375 2.772216796875,32.73193359375 2.12127685546875,28.8665771484375 1.7578125,24.55078125 1.28906226158142,15.205078125 0.878906011581421,14.970703125 0.249023675918579,13.88671875 0,12.890625 0.249023675918579,12.12890625 1.11328125,11.455078125 1.28906226158142,11.484375 1.28906226158142,8.5546875 2.25585913658142,8.5546875 2.25585913658142,11.865234375 2.51953101158142,12.01171875 2.84179639816284,12.392578125 3.720703125,13.06640625 4.59960985183716,13.53515625 7.5,14.6484375 10.48828125,15.52734375 12.8063955307007,13.4838886260986 14.6630859375,12.216796875 16.0693359375,11.517333984375 17.0361328125,11.1767578125 18.369140625,10.4443359375 18.955078125,8.994140625 18.955078125,8.759765625 18.92578125,8.525390625 17.84912109375,8.40087890625 17.255859375,8.14453125 16.9921875,7.60986328125 16.904296875,6.650390625 16.40625,6.533203125 16.201171875,6.181640625 16.025390625,5.830078125 16.82373046875,4.405517578125 17.63671875,2.3583984375 19.02099609375,0.589599609375 21.533203125,0z" />
    </g>
  </g>
</svg>