<?xml version="1.0" encoding="utf-8"?>
<!DOCTYPE svg PUBLIC "-//W3C//DTD SVG 1.1//EN" "http://www.w3.org/Graphics/SVG/1.1/DTD/svg11.dtd">
<svg width="29.5312500000003" height="45.029296875" xmlns="http://www.w3.org/2000/svg" xmlns:xlink="http://www.w3.org/1999/xlink" xmlns:xml="http://www.w3.org/XML/1998/namespace" version="1.1">
  <g>
    <g>
      <path style="fill:#FF0000;fill-opacity:1" d="M4.248046875,22.294921875L3.39843773841858,22.32421875 2.98828101158142,22.646484375 3.22265601158142,22.705078125 3.45703101158142,22.79296875 3.80859351158142,23.232421875 4.35058498382568,24.345703125 5.625,24.66796875 7.177734375,24.345703125 8.0859375,24.43359375 6.4306640625,22.880859375 4.248046875,22.294921875z M26.689453125,12.83203125L22.08984375,13.30078125 20.6405639648438,15.4010019302368 19.515380859375,18.0395526885986 18.7142944335938,21.2164325714111 18.2373046875,24.931640625 17.9598999023438,28.436279296875 17.757568359375,30.9814453125 17.6303100585938,32.567138671875 17.578125,33.193359375 16.69921875,33.427734375 15.3515625,31.58203125 13.0261220932007,28.670654296875 10.9716796875,26.7333984375 9.071044921875,25.645751953125 7.20703125,25.283203125 6.064453125,25.48828125 5.478515625,27.392578125 5.79711818695068,29.410400390625 6.7529296875,32.0068359375 7.708740234375,34.852294921875 8.02734375,37.6171875 7.6318359375,40.9130859375 6.474609375,44.091796875 27.978515625,44.091796875 26.6748046875,41.4990234375 26.30859375,38.818359375 26.5319805145264,35.826416015625 27.2021484375,31.5380859375 27.8723125457764,26.766357421875 28.095703125,22.32421875 27.7734375,17.63671875 26.689453125,12.83203125z M19.306640625,5.185546875L20.09765625,5.68359375 19.306640625,6.2109375 19.013671875,5.712890625 19.306640625,5.185546875z M22.6171875,4.51171875L22.32421875,4.6875 21.85546875,5.009765625 20.1416015625,4.8486328125 18.427734375,4.658203125 17.958984375,6.2255859375 17.490234375,7.412109375 18.1787109375,8.3935546875 18.427734375,9.55078125 18.944091796875,9.642333984375 20.3173828125,9.9169921875 21.719970703125,10.697021484375 22.32421875,12.3046875 24.755859375,12.099609375 23.232421875,10.2099609375 22.7124004364014,8.719482421875 22.32421875,6.73828125 22.470703125,6.298828125 22.91015625,5.712890625 23.115234375,5.0390625 23.0126953125,4.6728515625 22.6171875,4.51171875z M22.79296875,0.966796875L20.1123046875,1.494140625 19.222412109375,2.32177734375 18.6328125,3.75 21.650390625,4.04296875 22.763671875,3.57421875 23.701171875,4.013671875 24.052734375,5.0390625 23.8330078125,6.0205078125 23.291015625,6.826171875 23.8806133270264,9.2724609375 24.6533203125,10.751953125 25.6530742645264,11.5283203125 26.923828125,11.865234375 28.2568359375,10.4150390625 28.623046875,8.5546875 28.2202129364014,5.555419921875 27.01171875,3.1201171875 25.1513652801514,1.505126953125 22.79296875,0.966796875z M22.79296875,0L25.5029277801514,0.64453125 27.65625,2.578125 29.0624980926514,5.3466796875 29.53125,8.49609375 29.12109375,10.7958984375 27.59765625,12.5390625 28.7255859375,17.40234375 29.0625,22.20703125 28.8391094207764,26.630859375 28.1689453125,31.40625 27.4987773895264,35.712890625 27.275390625,38.73046875 27.685546875,41.4697265625 29.1796875,44.091796875 28.916015625,45.029296875 5.712890625,45.029296875 5.5078125,44.677734375 5.33203029632568,44.326171875 6.62109375,40.986328125 7.119140625,37.529296875 6.796875,35.013427734375 5.830078125,32.2119140625 4.86328029632568,29.542236328125 4.541015625,27.421875 4.62890625,26.455078125 4.95117092132568,25.546875 3.60351538658142,24.931640625 2.90039086341858,23.583984375 2.05078125,23.349609375 1.81640625,22.67578125 3.04687476158142,21.50390625 0.776366949081421,16.9482421875 0.194091588258743,14.6008319854736 0,12.275390625 0.49804675579071,9.0234375 4.189453125,21.357421875 5.88134670257568,21.64306640625 7.265625,22.32421875 9.375,24.755859375 10.9313955307007,25.543212890625 12.4365234375,26.7333984375 15,29.619140625 16.7578125,31.962890625 16.7953491210938,31.644287109375 16.907958984375,30.3076171875 17.0956420898438,27.952880859375 17.3583984375,24.580078125 17.8335571289063,20.9234638214111 18.658447265625,17.7172870635986 19.8330688476563,14.9615488052368 21.357421875,12.65625 21.0498046875,11.3671875 19.921875,10.83984375 18.955078125,10.60546875 17.958984375,10.400390625 17.51953125,10.01953125 17.34375,8.8916015625 16.728515625,8.02734375 16.494140625,7.353515625 16.95556640625,6.14501953125 17.578125,3.984375 18.44970703125,1.83837890625 19.658203125,0.673828601837158 22.79296875,0z" />
    </g>
  </g>
</svg>