<?xml version="1.0" encoding="utf-8"?>
<!DOCTYPE svg PUBLIC "-//W3C//DTD SVG 1.1//EN" "http://www.w3.org/Graphics/SVG/1.1/DTD/svg11.dtd">
<svg width="26.1328125000005" height="44.912109375" xmlns="http://www.w3.org/2000/svg" xmlns:xlink="http://www.w3.org/1999/xlink" xmlns:xml="http://www.w3.org/XML/1998/namespace" version="1.1">
  <g>
    <g>
      <path style="fill:#FF0000;fill-opacity:1" d="M21.62109375,16.58203125L20.91796875,17.2412109375 20.68359375,19.16015625 20.8154296875,20.9619140625 20.947265625,22.32421875 20.2880859375,23.671875 18.92578125,24.2578125 18.116455078125,23.95751953125 17.5048828125,23.056640625 16.9921875,19.98046875 17.05078125,17.958984375 16.22314453125,20.8117694854736 15.205078125,24.6826171875 14.0478506088257,28.758544921875 12.802734375,32.2265625 12.5390625,32.28515625 12.24609375,32.373046875 11.8038930892944,31.8722534179688 11.0339345932007,30.897216796875 9.93621730804443,29.4479370117188 8.5107421875,27.5244140625 7.01751661300659,25.6338500976563 5.71655178070068,24.283447265625 4.60784864425659,23.4732055664063 3.69140625,23.203125 2.43164014816284,23.8623046875 2.02148389816284,25.6640625 2.37670850753784,28.39599609375 3.44238233566284,32.080078125 4.50805568695068,35.8740234375 4.86328077316284,38.935546875 4.35058546066284,40.400390625 3.1640625,41.66015625 1.84570276737213,42.802734375 0.966796517372131,43.974609375 22.1484375,43.974609375 21.1376953125,43.359375 20.771484375,41.484375 21.046142578125,37.34619140625 21.8701171875,32.490234375 22.7746562957764,28.01513671875 23.291015625,25.01953125 22.5439453125,24.521484375 22.357177734375,23.95751953125 22.294921875,22.91015625 22.412109375,20.9033203125 22.529296875,18.92578125 22.529296875,18.310546875 22.2802734375,17.0947265625 21.62109375,16.58203125z M13.505859375,5.859375L14.0478506088257,6.05712890625 14.794921875,6.650390625 13.4765625,6.943359375 12.94921875,6.5625 13.0078125,6.298828125 13.505859375,5.859375z M13.30078125,4.39453125L12.48046875,6.2548828125 11.6015625,8.02734375 11.865234375,8.14453125 12.216796875,8.583984375 12.275390625,9.521484375 12.392578125,10.48828125 15.2490234375,11.6015625 17.109375,13.53515625 18.2080078125,9.84375 18.936767578125,8.22509765625 19.453125,7.060546875 19.013671875,6.357421875 18.369140625,6.5625 17.783203125,6.533203125 13.30078125,4.39453125z M18.45703125,0.99609375L15.7177734375,1.611328125 13.59375,3.544921875 15.9521484375,4.3798828125 18.10546875,5.625 18.896484375,5.44921875 19.9658203125,5.9033203125 20.390625,7.177734375 20.0830078125,8.19580078125 19.16015625,10.01953125 18.2373046875,12.4145517349243 17.9296875,15.146484375 17.958984375,15.29296875 17.958984375,15.8203125 17.98828125,17.109375 17.98828125,19.482421875 18.043212890625,21.075439453125 18.2080078125,22.2216796875 18.896484375,23.3203125 19.5263671875,23.0859375 19.98046875,22.55859375 19.74609375,18.984375 20.2587890625,16.58203125 20.863037109375,15.9008808135986 21.650390625,15.673828125 22.4523906707764,15.9118671417236 23.0419921875,16.6259765625 23.525390625,19.248046875 23.3642578125,21.298828125 23.203125,23.115234375 23.37890625,24.169921875 24.31640625,24.375 24.7998046875,23.9794921875 25.1953125,23.466796875 25.1953125,19.716796875 25.0881938934326,15.4541025161743 24.7668437957764,11.7187509536743 24.2312602996826,8.5107421875 23.4814453125,5.830078125 22.5265502929688,3.7152099609375 21.375732421875,2.20458984375 20.0289916992188,1.2982177734375 18.486328125,0.99609375 18.45703125,0.99609375z M18.427734375,0L20.2157592773438,0.3094482421875 21.771240234375,1.23779296875 23.0941772460938,2.7850341796875 24.1845703125,4.951171875 25.0369243621826,7.84423875808716 25.6457500457764,11.5722665786743 26.0110454559326,16.13525390625 26.1328125,21.533203125 26.0046367645264,23.2470703125 25.6201171875,24.345703125 24.287109375,25.1953125 24.19921875,25.1953125 23.6682109832764,28.41796875 22.7783203125,32.87109375 21.976318359375,37.587890625 21.708984375,41.6015625 21.93603515625,42.623291015625 22.6171875,43.1689453125 23.73046875,44.296875 23.26171875,44.912109375 0.585937142372131,44.912109375 0,44.091796875 0.490722358226776,42.872314453125 1.96289050579071,41.4404296875 3.43505811691284,40.059814453125 3.92578077316284,38.994140625 3.83605909347534,37.94677734375 3.56689405441284,36.50390625 3.11828589439392,34.66552734375 2.490234375,32.431640625 1.86218237876892,30.1922607421875 1.41357398033142,28.33740234375 1.14440894126892,26.8670654296875 1.05468738079071,25.78125 1.74316346645355,23.1591796875 2.57446241378784,22.445068359375 3.69140625,22.20703125 4.72503614425659,22.4551391601563 5.89233350753784,23.199462890625 7.19329786300659,24.4400024414063 8.6279296875,26.1767578125 9.98931789398193,27.9721069335938 11.0705556869507,29.388427734375 11.8716421127319,30.4257202148438 12.392578125,31.083984375 14.619140625,23.1298828125 16.669921875,15.146484375 16.197509765625,13.8427753448486 15.2490234375,12.744140625 13.8537588119507,11.90185546875 12.041015625,11.3671875 11.8359375,11.25 11.66015625,11.1328125 11.3671875,10.0341796875 11.30859375,8.90625 11.07421875,8.818359375 10.83984375,8.73046875 10.693359375,8.466796875 10.546875,8.203125 11.54296875,6.2255859375 12.59765625,3.5302734375 13.2788076400757,2.237548828125 14.794921875,1.083984375 16.669921875,0.27099609375 18.427734375,0z" />
    </g>
  </g>
</svg>