<?xml version="1.0" encoding="utf-8"?>
<!DOCTYPE svg PUBLIC "-//W3C//DTD SVG 1.1//EN" "http://www.w3.org/Graphics/SVG/1.1/DTD/svg11.dtd">
<svg width="30.41015625" height="44.94140625" xmlns="http://www.w3.org/2000/svg" xmlns:xlink="http://www.w3.org/1999/xlink" xmlns:xml="http://www.w3.org/XML/1998/namespace" version="1.1">
  <g>
    <g>
      <path style="fill:#FF0000;fill-opacity:1" d="M25.078125,30.234375L25.3125,31.6259765625 25.751953125,32.98828125 26.25,34.3359375 27.2021484375,37.7490234375 27.48046875,41.19140625 27.48046875,41.8359375 27.451171875,42.509765625 27.24609375,42.890625 25.810546875,43.7109375 26.044921875,43.7109375 27.861328125,43.9453125 28.0517578125,43.7548828125 28.18359375,43.41796875 27.9931640625,42.83203125 27.802734375,41.54296875 27.83203125,40.986328125 27.802734375,39.873046875 27.7734375,37.529296875 27.5390625,33.7646484375 26.66015625,30.234375 25.078125,30.234375z M19.775390625,30.234375L19.302978515625,32.193603515625 18.7646484375,35.0830078125 18.18603515625,37.994384765625 17.5927734375,40.01953125 16.99951171875,41.400146484375 16.4208984375,42.3779296875 15.509033203125,43.114013671875 13.916015625,43.76953125 14.35546875,43.740234375 14.70703125,43.740234375 16.0546875,43.8427734375 17.4609375,43.9453125 17.6953125,43.740234375 17.6220703125,43.18359375 17.548828125,42.59765625 17.548828125,42.421875 17.958984375,40.78125 18.515625,39.169921875 20.09765625,34.775390625 21.240234375,30.234375 19.775390625,30.234375z M25.72265625,19.51171875L25.13671875,19.658203125 23.935546875,20.009765625 21.708984375,20.712890625 20.859375,25.01953125 19.98046875,29.296875 26.455078125,29.296875 26.337890625,27.59765625 26.279296875,25.986328125 26.30859375,25.13671875 26.3671875,24.111328125 26.396484375,23.49609375 26.42578125,22.880859375 26.19140625,21.03515625 25.72265625,19.51171875z M15.791015625,4.365234375L16.58203125,4.716796875 15.791015625,5.068359375 15.52734375,4.716796875 15.791015625,4.365234375z M18.076171875,3.80859375L17.724609375,3.984375 17.51953125,4.248046875 15.146484375,3.8671875 15.05859375,4.423828125 14.6923828125,5.2587890625 14.326171875,5.80078125 14.970703125,6.38671875 15.205078125,7.294921875 16.5234375,7.5439453125 18.0615234375,8.0126953125 18.779296875,9.19921875 18.504638671875,9.90234375 17.6806640625,10.37109375 15.9814453125,10.78125 15.252685546875,11.158447265625 14.267578125,12.1728515625 13.1030263900757,13.8537616729736 11.8359375,16.23046875 11.513671875,16.552734375 7.060546875,17.900390625 5.83007764816284,18.251953125 5.390625,18.1640625 4.95117235183716,18.0908203125 4.453125,17.9296875 4.072265625,18.076171875 4.27734375,18.28125 4.599609375,18.896484375 5.068359375,18.896484375 5.83007764816284,18.486328125 6.62109375,18.310546875 8.96484375,17.6953125 11.77734375,17.05078125 12.0703115463257,16.8200702667236 12.59765625,16.1279296875 13.0810537338257,15.4138202667236 13.2421875,15.1171875 14.6044921875,13.4619140625 16.2890625,12.744140625 17.713623046875,13.3117694854736 19.1162109375,15.0146484375 21.5625,19.775390625 21.650390625,19.74609375 21.9140625,19.658203125 22.529296875,19.453125 25.4296875,18.603515625 25.1184062957764,17.6147480010986 24.5947265625,15.64453125 23.9465312957764,13.3959980010986 23.26171875,11.572265625 23.4375,11.220703125 23.642578125,10.869140625 24.8620586395264,11.2060546875 26.0009765625,12.041015625 27.0227031707764,13.3154315948486 27.890625,14.970703125 28.037109375,15.615234375 28.125,16.23046875 28.3154296875,18.4716796875 28.740234375,20.654296875 28.740234375,20.947265625 28.564453125,21.4599609375 28.4765625,21.796875 28.447265625,21.9287109375 28.41796875,22.177734375 28.41796875,22.5 28.6083984375,23.466796875 29.0625,24.08203125 28.974609375,23.818359375 28.916015625,23.583984375 28.76953125,22.734375 28.8134765625,22.4853515625 29.00390625,22.353515625 29.2529296875,22.763671875 29.35546875,23.37890625 29.4873046875,23.115234375 29.53125,22.470703125 29.47265625,22.1484375 29.3994140625,21.85546875 29.23828125,21.5625 29.033203125,21.03515625 28.974609375,20.419921875 28.8720684051514,17.3584003448486 28.564453125,15.322265625 27.9052715301514,13.7146015167236 26.748046875,11.9384765625 25.4589824676514,10.382080078125 24.404296875,9.43359375 21.298828125,9.43359375 21.005859375,9.31640625 20.3466796875,8.4375 20.09765625,7.470703125 20.21484375,6.85546875 18.5595703125,5.888671875 18.017578125,4.62890625 18.369140625,3.92578125 18.076171875,3.80859375z M18.603515625,0.908203601837158L16.318359375,1.3916015625 15.556640625,2.017822265625 15.205078125,2.9296875 16.0546875,3.046875 16.904296875,3.22265625 17.28515625,3.28125 18.076171875,2.87109375 18.7060546875,3.0615234375 19.3359375,3.486328125 19.365234375,3.80859375 19.248046875,4.2626953125 18.984375,4.658203125 19.5703125,5.4052734375 20.830078125,6.123046875 21.3134765625,5.2001953125 21.416015625,4.04296875 21.229248046875,2.3876953125 20.6689453125,1.46484375 18.603515625,0.908203601837158z M18.8671875,0L20.2880859375,0.205078184604645 21.38671875,0.820312976837158 22.08984375,2.13134765625 22.32421875,4.423828125 22.0751953125,5.8740234375 21.181640625,7.001953125 21.064453125,7.470703125 21.1962890625,7.9833984375 21.50390625,8.466796875 22.353515625,8.408203125 23.173828125,8.37890625 25.1953125,8.8330078125 26.0595684051514,9.63134765625 27.3046875,11.1181640625 28.5168437957764,12.8979501724243 29.2822265625,14.5751953125 29.6887187957764,16.9152851104736 29.82421875,20.68359375 30.234375,21.6943359375 30.41015625,22.91015625 30.2783203125,23.6279296875 29.82421875,24.111328125 29.82421875,24.580078125 29.560546875,24.814453125 29.326171875,25.048828125 28.6047344207764,24.840087890625 28.0224609375,24.2138671875 27.509765625,22.412109375 27.626953125,21.533203125 27.890625,20.771484375 27.5939922332764,19.6398944854736 27.3486328125,17.8857421875 27.1838359832764,16.3293476104736 27.12890625,15.791015625 26.9055156707764,15.0549335479736 26.2353515625,13.9013671875 25.3454570770264,12.7624521255493 24.462890625,12.0703125 25.0341777801514,13.7512226104736 25.634765625,15.8642578125 26.8212890625,19.8193359375 27.392578125,22.880859375 27.24609375,25.78125 27.2662334442139,27.4356079101563 27.3266582489014,28.707275390625 27.4273662567139,29.5962524414063 27.568359375,30.1025390625 27.9162578582764,31.00341796875 28.3154296875,32.4462890625 28.6340312957764,34.442138671875 28.740234375,37.001953125 28.740234375,39.84375 28.7841777801514,41.641845703125 28.916015625,42.5244140625 29.091796875,43.41796875 28.857421875,44.326171875 28.06640625,44.8828125 27.568359375,44.94140625 26.4111328125,44.794921875 25.224609375,44.6484375 24.2578125,44.765625 23.37890625,44.8828125 22.7197265625,44.70703125 22.265625,44.033203125 22.705078125,43.4765625 24.697265625,43.125 26.513671875,42.275390625 26.54296875,41.3671875 26.2499980926514,37.69775390625 25.37109375,34.599609375 24.4775371551514,32.10205078125 24.140625,30.234375 22.20703125,30.234375 21.005859375,34.951171875 19.365234375,39.55078125 18.8671875,41.015625 18.486328125,42.5390625 18.486328125,42.71484375 18.5595703125,43.2568359375 18.6328125,43.740234375 18.603515625,43.9453125 18.076171875,44.6923828125 17.16796875,44.8828125 16.46484375,44.794921875 15.849609375,44.677734375 15.3515625,44.6484375 12.744140625,44.912109375 11.865234375,44.7802734375 11.07421875,44.296875 11.220703125,43.505859375 13.564453125,42.83203125 15.76171875,41.71875 16.94091796875,38.851318359375 17.841796875,34.9951171875 18.1842041015625,33.0789184570313 18.44970703125,31.680908203125 18.6383056640625,30.8010864257813 18.75,30.439453125 18.878173828125,30.025634765625 19.1162109375,28.9892578125 19.464111328125,27.330322265625 19.921875,25.048828125 20.830078125,20.390625 20.2734375,19.248046875 18.515625,16.025390625 17.3291015625,14.2236328125 16.2890625,13.65234375 15.1611328125,14.2236328125 14.12109375,15.52734375 13.154296875,16.93359375 12.568359375,17.63671875 11.77734375,17.98828125 10.576171875,18.28125 9.78515625,18.427734375 7.822265625,18.896484375 7.119140625,19.04296875 6.181640625,19.248046875 5.712890625,19.6875 7.3828125,22.20703125 6.29882860183716,22.20703125 4.892578125,19.892578125 4.27734375,19.833984375 4.072265625,19.716796875 3.896484375,19.599609375 3.515625,18.80859375 3.017578125,18.69140625 2.724609375,18.33984375 2.6953125,18.046875 3.0908203125,17.783203125 3.515625,17.51953125 0.996094107627869,13.7109375 0.249023571610451,11.8212890625 0,10.078125 0.234375,8.5107421875 0.761719107627869,7.55859375 1.87499988079071,7.55859375 1.21582067012787,8.5986328125 0.93749988079071,10.048828125 1.20117199420929,11.597900390625 1.99218761920929,13.4912109375 4.24804639816284,17.109375 5.009765625,17.28515625 5.771484375,17.490234375 8.4228515625,16.58203125 11.07421875,15.703125 11.8359375,14.23828125 12.8320302963257,12.4996948242188 13.7988271713257,11.209716796875 14.7363271713257,10.3683471679688 15.64453125,9.9755859375 17.08740234375,9.613037109375 17.841796875,9.19921875 17.373046875,8.66455078125 16.083984375,8.408203125 14.798583984375,8.126220703125 14.3408203125,7.5146484375 13.857421875,6.62109375 13.740234375,6.62109375 13.30078125,6.064453125 13.76953125,4.86328125 14.23828125,3.22265625 14.55322265625,1.885986328125 15.498046875,0.8642578125 16.97021484375,0.216064453125 18.8671875,0z" />
    </g>
  </g>
</svg>