<?xml version="1.0" encoding="utf-8"?>
<!DOCTYPE svg PUBLIC "-//W3C//DTD SVG 1.1//EN" "http://www.w3.org/Graphics/SVG/1.1/DTD/svg11.dtd">
<svg width="37.44140625" height="45.087890625" xmlns="http://www.w3.org/2000/svg" xmlns:xlink="http://www.w3.org/1999/xlink" xmlns:xml="http://www.w3.org/XML/1998/namespace" version="1.1">
  <g>
    <g>
      <path style="fill:#FF0000;fill-opacity:1" d="M5.009765625,42.333984375L5.009765625,44.150390625 13.154296875,44.150390625 13.154296875,42.333984375 5.009765625,42.333984375z M34.74609375,37.060546875L34.716796875,37.119140625 34.41650390625,37.305908203125 33.6328125,37.7490234375 32.373046875,38.287353515625 30.64453125,38.759765625 27.568359375,39.4921875 26.30859375,39.84375 24.55078125,40.4296875 24.0234375,40.634765625 23.349609375,40.927734375 20.5517578125,42.4072265625 19.464111328125,43.011474609375 18.75,43.212890625 17.6953125,42.5830078125 16.962890625,41.279296875 16.69921875,40.60546875 16.46484375,40.8984375 16.259765625,41.19140625 15.8642578125,42.041015625 15.64453125,43.095703125 16.025390625,43.916015625 17.51953125,44.1796875 21.500244140625,43.49853515625 26.4697265625,41.455078125 31.190185546875,39.23583984375 34.423828125,38.02734375 34.86328125,38.0859375 35.302734375,38.759765625 35.419921875,39.638671875 35.478515625,40.1953125 35.5224609375,40.9423828125 35.56640625,42.216796875 35.478515625,43.3154296875 35.068359375,44.150390625 35.5810546875,43.7548828125 35.888671875,42.7734375 35.771484375,42.1435546875 35.7421875,41.513671875 35.9619140625,39.90234375 36.50390625,38.349609375 36.2548828125,37.3681640625 35.753173828125,37.137451171875 34.74609375,37.060546875z M35.244140625,30.087890625L28.4033203125,32.2705078125 26.5621929168701,33.0203247070313 24.5397930145264,34.171142578125 22.3361186981201,35.7229614257813 19.951171875,37.67578125 17.490234375,39.84375 17.63671875,40.48828125 17.841796875,41.1328125 18.28125,41.8212890625 18.92578125,42.24609375 23.96484375,39.7412109375 29.150390625,38.115234375 30.732421875,37.79296875 32.471923828125,37.31689453125 33.5888671875,36.767578125 35.009765625,35.15625 35.625,32.666015625 35.5224609375,31.3916015625 35.244140625,30.087890625z M18.955078125,21.826171875L17.431640625,24.990234375 14.443359375,29.9560546875 10.48828125,34.3359375 10.95703125,34.62890625 10.4833002090454,35.7758331298828 11.42578125,34.8779296875 11.8579092025757,33.995361328125 12.041015625,33.662109375 14.677734375,30.76171875 16.534423828125,28.641357421875 17.2412109375,27.6708984375 17.48291015625,26.9384765625 17.9443359375,25.5322265625 18.955078125,21.826171875z M20.7421875,18.662109375L20.56640625,19.306640625 20.0390625,21.357421875 19.3359375,23.876953125 17.87841796875,28.604736328125 16.552734375,31.9482421875 13.740234375,36.796875 14.00390625,36.884765625 14.267578125,36.943359375 14.296875,37.294921875 14.0814008712769,38.2573738098145 14.7802734375,37.08984375 15.1171875,35.888671875 16.376953125,33.779296875 19.16015625,28.7548828125 21.2109375,23.466796875 21.474609375,22.55859375 21.767578125,21.3720703125 21.943359375,20.009765625 20.7421875,18.662109375z M23.349609375,14.853515625L22.7819805145264,15.0952167510986 22.1337890625,15.8203125 21.09375,17.666015625 22.8515625,19.5703125 26.6162109375,24.9609375 29.94140625,30.673828125 34.6875,29.267578125 31.563720703125,24.715576171875 29.0478515625,20.8447265625 26.9128398895264,17.6843280792236 24.931640625,15.263671875 23.349609375,14.853515625z M18.955078125,11.25L19.833984375,11.8359375 18.8671875,12.158203125 18.57421875,11.865234375 18.955078125,11.25z M18.3984375,10.341796875L18.3544921875,10.7080078125 18.251953125,11.1328125 17.87109375,11.923828125 17.4609375,12.48046875 17.197265625,13.125 17.607421875,13.2421875 18.017578125,13.41796875 18.369140625,13.857421875 18.427734375,14.326171875 18.427734375,14.70703125 18.896484375,14.794921875 19.5556640625,14.736328125 20.244140625,14.677734375 20.9912109375,14.677734375 21.708984375,14.794921875 22.08984375,14.4140625 21.4599609375,14.1064453125 21.09375,13.798828125 20.91796875,13.447265625 20.80078125,12.744140625 20.9765625,11.953125 21.5625,11.3671875 21.5625,11.220703125 21.5185546875,10.810546875 21.15234375,10.4296875 21.03515625,10.576171875 20.91796875,10.751953125 20.6396484375,10.8837890625 20.302734375,11.044921875 19.4677734375,10.78125 18.3984375,10.341796875z M21.85546875,7.55859375L19.9658203125,8.115234375 18.779296875,9.404296875 19.51171875,9.7119140625 20.244140625,10.01953125 21.181640625,9.462890625 22.1484375,10.0341796875 22.55859375,11.220703125 22.3974609375,11.8505859375 21.826171875,12.275390625 21.767578125,12.71484375 21.8115234375,13.154296875 22.03125,13.271484375 22.939453125,13.740234375 23.3203125,13.9453125 24.052734375,14.033203125 24.873046875,14.267578125 25.224609375,12.7734375 25.37109375,11.25 25.1257305145264,9.84375 24.3896484375,8.671875 23.2653789520264,7.8662109375 21.85546875,7.55859375z M21.796875,6.650390625L23.4960918426514,6.983642578125 24.9609375,7.9833984375 25.9716777801514,9.459228515625 26.30859375,11.220703125 26.1328125,12.9931640625 25.72265625,14.736328125 28.359375,18.046875 30.703125,21.650390625 33.211669921875,25.506591796875 35.0537109375,28.1103515625 36.185302734375,30.230712890625 36.5625,32.63671875 36.3427734375,34.453125 35.56640625,36.15234375 36.533203125,36.427001953125 37.08984375,37.0166015625 37.44140625,38.173828125 37.44140625,38.37890625 37.412109375,38.61328125 36.943359375,40.01953125 36.6796875,41.572265625 36.6796875,41.8359375 36.708984375,42.12890625 36.796875,42.421875 36.826171875,42.744140625 36.2548828125,44.3994140625 35.0390625,45.05859375 33.1640625,45.05859375 32.724609375,44.501953125 32.9736328125,43.65234375 33.6328125,43.41796875 34.365234375,43.505859375 34.599609375,43.125 34.599609375,42.744140625 34.5703125,40.8837890625 34.365234375,39.0234375 31.204833984375,40.257568359375 26.5869140625,42.4365234375 21.602783203125,44.425048828125 17.34375,45.087890625 16.0693359375,44.945068359375 15.29296875,44.5166015625 14.765625,43.095703125 15.3515625,40.95703125 17.109375,38.876953125 22.08984375,34.7900390625 27.802734375,31.435546875 29.0625,31.0546875 28.1872539520264,29.534912109375 26.6162109375,26.7919921875 24.6789531707764,23.675537109375 22.705078125,21.03515625 21.73828125,24.931640625 20.09765625,28.9892578125 17.5048828125,33.7060546875 16.292724609375,35.77880859375 15.908203125,36.6357421875 15.5126953125,37.8076171875 14.6484375,39.228515625 13.1982421875,40.6494140625 12.041015625,41.396484375 13.59375,41.396484375 13.828125,41.630859375 14.091796875,41.865234375 14.091796875,44.619140625 13.828125,44.853515625 13.59375,45.087890625 4.51171875,45.087890625 4.072265625,44.53125 4.072265625,41.953125 4.51171875,41.396484375 11.71875,41.396484375 11.4404296875,41.25 11.19140625,41.103515625 11.044921875,40.3125 11.4990234375,39.9169921875 12.158203125,39.31640625 12.099609375,39.345703125 11.865234375,39.169921875 11.630859375,39.052734375 11.484375,38.26171875 14.1943359375,34.453125 16.171875,30.52734375 14.501953125,32.431640625 12.7734375,34.27734375 10.869140625,36.9140625 7.998046875,38.525390625 7.55859375,38.408203125 7.03125,37.96875 7.177734375,37.177734375 7.734375,36.85546875 8.466796875,36.416015625 8.291015625,36.4453125 8.115234375,36.240234375 7.880859375,36.064453125 7.880859375,35.361328125 10.7766723632813,32.7328491210938 13.282470703125,29.886474609375 15.3982543945313,26.8222045898438 17.1240234375,23.5400390625 18.5220336914063,20.5032367706299 19.654541015625,18.1750507354736 20.5215454101563,16.5554828643799 21.123046875,15.64453125 20.91796875,15.615234375 20.712890625,15.615234375 19.775390625,15.6884765625 18.984375,15.76171875 17.8857421875,15.439453125 17.4609375,14.501953125 17.4609375,14.208984375 16.9921875,14.033203125 16.5234375,13.88671875 16.376953125,13.623046875 16.23046875,13.359375 16.611328125,12.12890625 17.34375,11.044921875 17.51953125,10.400390625 17.490234375,10.25390625 17.684326171875,9.462890625 18.2666015625,8.49609375 20.21484375,6.943359375 20.654296875,6.796875 21.1669921875,6.6943359375 21.796875,6.650390625z M26.689453125,0.99609375L25.5615234375,1.2158203125 25.0744609832764,1.50146484375 24.169921875,1.9189453125 22.587890625,2.40234375 21.26953125,2.080078125 21.26953125,4.833984375 22.060546875,4.4384765625 22.8515625,4.3359375 24.4482421875,4.775390625 25.546875,5.4052734375 26.0229473114014,5.548095703125 26.923828125,5.595703125 28.828125,4.921875 29.47265625,3.1640625 29.2785625457764,2.178955078125 28.6962890625,1.5087890625 26.689453125,0.99609375z M26.689453125,0L29.2236328125,0.673827648162842 30.1135234832764,1.66259765625 30.41015625,3.28125 30.1831035614014,4.559326171875 29.501953125,5.5810546875 28.4545879364014,6.251220703125 27.12890625,6.474609375 25.6091289520264,6.324462890625 24.5068359375,5.8740234375 22.8515625,5.2734375 22.060546875,5.4638671875 21.26953125,6.09375 20.33203125,5.80078125 20.33203125,3.984375 13.7109375,3.984375 12.041015625,5.654296875 9.580078125,6.357421875 8.26171875,8.96484375 5.68359375,9.66796875 5.68359375,12.568359375 3.83789038658142,14.091796875 4.423828125,16.640625 2.49023389816284,19.5703125 2.95898413658142,22.20703125 1.14257764816284,24.404296875 2.54882788658142,27.12890625 1.14257764816284,29.970703125 2.54882788658142,32.578125 1.14257764816284,35.15625 2.95898413658142,39.375 1.55273389816284,44.619140625 0.46875,44.619140625 1.81640625,39.404296875 0,35.15625 1.43554639816284,32.578125 0,29.970703125 1.43554639816284,27.12890625 0,24.31640625 1.96289014816284,22.177734375 1.40625,19.5703125 3.45703101158142,16.640625 2.84179663658142,13.916015625 4.8046875,12.1875 4.8046875,8.935546875 7.646484375,8.291015625 8.96484375,5.419921875 11.513671875,4.8046875 12.1508779525757,4.3212890625 13.2421875,3.046875 20.33203125,3.046875 20.33203125,1.23046875 21.181640625,0.849608898162842 21.8408203125,1.3037109375 22.529296875,1.435546875 24.462890625,0.7177734375 26.689453125,0z" />
    </g>
  </g>
</svg>