<?xml version="1.0" encoding="utf-8"?>
<!DOCTYPE svg PUBLIC "-//W3C//DTD SVG 1.1//EN" "http://www.w3.org/Graphics/SVG/1.1/DTD/svg11.dtd">
<svg width="43.9453125000001" height="44.47265625" xmlns="http://www.w3.org/2000/svg" xmlns:xlink="http://www.w3.org/1999/xlink" xmlns:xml="http://www.w3.org/XML/1998/namespace" version="1.1">
  <g>
    <g>
      <path style="fill:#FF0000;fill-opacity:1" d="M24.638671875,30.76171875L25.0341796875,32.16796875 25.48828125,33.57421875 26.42578125,36.38671875 27.2900390625,39.19921875 27.861328125,42.099609375 27.65625,42.48046875 26.7626953125,42.890625 25.78125,43.125 24.4921875,43.4033203125 23.994140625,43.53515625 28.359375,43.53515625 28.30078125,42.4365234375 28.154296875,41.455078125 27.802734375,39.375 27.12890625,35.0244140625 26.1328125,30.76171875 24.638671875,30.76171875z M19.248046875,30.76171875L18.3544921875,33.544921875 17.28515625,36.26953125 16.171875,38.96484375 15.615234375,40.341796875 15.1171875,41.71875 15.1171875,42.1728515625 15.087890625,42.59765625 15.0146484375,43.095703125 14.82421875,43.53515625 22.939453125,43.53515625 22.822265625,43.18359375 23.7451171875,42.6416015625 24.814453125,42.392578125 25.8984375,42.216796875 26.89453125,41.865234375 26.30859375,39.0234375 25.4296875,36.328125 24.462890625,33.6328125 23.671875,30.76171875 19.248046875,30.76171875z M17.28515625,30.76171875L16.32568359375,32.79052734375 15.380859375,36.064453125 14.501953125,39.45556640625 13.681640625,41.77734375 13.359375,42.099609375 12.5390625,42.2900390625 11.8359375,42.333984375 10.5908203125,42.1875 9.375,42.041015625 9.08203125,42.1435546875 8.7890625,42.275390625 13.76953125,43.388671875 14.033203125,42.919921875 14.150390625,42.392578125 14.150390625,41.982421875 14.2547607421875,41.40380859375 14.56787109375,40.4296875 15.0897216796875,39.06005859375 15.8203125,37.294921875 17.28515625,33.72802734375 18.28125,30.76171875 17.28515625,30.76171875z M25.166015625,19.541015625L21.15234375,20.771484375 17.6953125,29.82421875 25.927734375,29.82421875 25.83984375,28.65234375 25.810546875,27.421875 25.810546875,24.84375 25.7666015625,23.759765625 25.634765625,22.3974609375 25.4296875,20.947265625 25.166015625,19.541015625z M18.57421875,14.267578125L17.40966796875,14.7729511260986 15.966796875,15.99609375 15.1904296875,16.7578125 14.560546875,17.373046875 13.974609375,17.9296875 13.53515625,17.98828125 6.884765625,14.6484375 5.5078125,17.724609375 4.43847560882568,20.1123046875 3.72070288658142,21.767578125 2.87109351158142,24.0234375 1.96289038658142,26.806640625 1.25976538658142,29.6923828125 1.02539014816284,32.197265625 1.46484351158142,35.36865234375 2.78320288658142,38.203125 4.91455030441284,40.49560546875 7.79296875,41.982421875 7.705078125,41.748046875 8.525390625,41.2353515625 9.462890625,41.103515625 12.0703125,41.337890625 12.890625,41.25 13.6962881088257,38.98681640625 14.47265625,35.771484375 15.40283203125,32.49755859375 16.611328125,30.05859375 20.33203125,20.361328125 19.5703125,17.28515625 18.57421875,14.267578125z M26.748046875,13.271484375L25.6494140625,13.88671875 25.458984375,15.17578125 25.517578125,16.23046875 25.6640625,17.2265625 25.83984375,18.134765625 26.3671875,21.240234375 26.5576171875,23.3203125 26.689453125,26.513671875 26.8505840301514,29.52392578125 27.158203125,31.0546875 27.5903301239014,32.60009765625 28.125,35.537109375 28.65234375,38.8037109375 29.091796875,41.279296875 29.2236328125,42.2900390625 29.296875,43.41796875 35.0830078125,41.94580078125 39.375,39.462890625 40.9515380859375,37.877197265625 42.07763671875,36.1376953125 42.7532958984375,34.244384765625 42.978515625,32.197265625 42.44384765625,27.95654296875 40.83984375,23.14453125 38.8623046875,18.4716796875 37.20703125,14.70703125 36.97265625,14.70703125 35.92529296875,15.4907245635986 34.482421875,16.845703125 32.93701171875,18.0761737823486 31.69921875,18.486328125 30.46142578125,17.8637714385986 28.798828125,15.99609375 27.3486309051514,14.0405292510986 26.748046875,13.271484375z M19.775390625,3.80859375L20.80078125,4.306640625 20.1416015625,4.8779296875 19.6875,5.068359375 19.365234375,4.482421875 19.775390625,3.80859375z M22.3828125,3.28125L22.20703125,3.3837890625 22.119140625,3.662109375 21.8701171875,3.7646484375 21.708984375,3.837890625 20.44921875,3.6328125 19.21875,3.427734375 19.013671875,4.04296875 18.7646484375,4.6142578125 18.369140625,5.244140625 18.75,5.625 18.896484375,5.7421875 18.896484375,7.265625 19.658203125,7.44140625 20.419921875,7.67578125 20.7421875,7.939453125 20.91796875,9.287109375 20.6982421875,10.3271484375 20.0390625,11.162109375 18.076171875,12.158203125 16.83837890625,12.8173837661743 15.3515625,14.326171875 13.623046875,16.435546875 13.271484375,16.58203125 10.1953125,14.9560546875 7.236328125,13.154296875 7.08984375,12.71484375 7.08984375,12.158203125 6.591796875,11.89453125 5.9765625,12.2314453125 5.654296875,12.919921875 5.94726467132568,13.76953125 6.85546875,13.76953125 13.4765625,17.16796875 15.615234375,15.1171875 17.24853515625,13.8574237823486 18.8671875,13.30078125 19.3359375,13.623046875 20.361328125,16.6845703125 21.15234375,19.8046875 24.990234375,18.6328125 24.697265625,17.021484375 24.55078125,15.205078125 25.1367168426514,13.0517587661743 26.89453125,12.333984375 27.0556640625,12.4072265625 27.3046875,12.509765625 28.1689453125,13.505859375 29.23828125,15.029296875 30.46875,16.5307636260986 31.7578125,17.51953125 32.2705078125,17.3291015625 32.9296875,16.93359375 33.6328125,16.40625 34.248046875,15.8203125 35.419921875,14.70703125 36.2255859375,14.0478515625 37.1484375,13.7109375 38.056640625,13.76953125 38.5107421875,13.18359375 38.642578125,12.7734375 38.583984375,12.509765625 38.02734375,12.12890625 37.3828125,11.89453125 36.85546875,12.158203125 36.85546875,12.802734375 36.650390625,13.18359375 36.0205078125,13.681640625 35.1708984375,14.35546875 33.8818359375,15.3955078125 31.93359375,16.962890625 31.259765625,16.81640625 29.091796875,13.4765625 27.8100566864014,12.041015625 26.1328125,11.07421875 24.6752910614014,10.02685546875 24.111328125,8.349609375 22.91015625,6.97265625 22.32421875,5.244140625 22.20703125,4.86328125 22.5,4.3359375 22.646484375,4.189453125 22.587890625,3.662109375 22.3828125,3.28125z M6.298828125,1.7578125L5.9033203125,2.197265625 5.595703125,2.63671875 5.27343654632568,3.134765625 4.8193359375,3.7060546875 3.92578148841858,4.716796875 3.09082007408142,5.6689453125 2.81249928474426,6.123046875 3.07617163658142,6.240234375 3.44238257408142,6.15234375 4.072265625,5.947265625 4.951171875,5.654296875 7.734375,4.248046875 7.8515625,3.8671875 7.998046875,2.958984375 7.4267578125,2.0654296875 6.298828125,1.7578125z M37.763671875,1.58203125L36.533203125,2.021484375 35.859375,3.046875 35.859375,3.5009765625 35.888671875,3.896484375 35.947265625,4.306640625 41.3671875,6.328125 41.630859375,6.2109375 41.484375,5.9033203125 41.19140625,5.478515625 37.763671875,1.58203125z M22.939453125,0.966796875L21.1083984375,1.3330078125 19.62890625,2.548828125 21.5625,2.87109375 22.412109375,2.373046875 23.2470703125,2.87109375 23.583984375,3.955078125 23.203125,4.951171875 23.935546875,6.73828125 24.3896465301514,7.41943359375 24.814453125,7.646484375 25.4296875,7.3974609375 25.869140625,6.73828125 26.1474609375,5.7861328125 26.25,4.62890625 26.0229473114014,3.072509765625 25.341796875,1.9189453125 24.2871074676514,1.204833984375 22.939453125,0.966796875z M22.8515625,0L24.5507793426514,0.3369140625 25.95703125,1.34765625 26.9018535614014,2.8125 27.216796875,4.62890625 27.1875,5.126953125 26.8981914520264,6.602783203125 26.4404296875,7.6318359375 25.107421875,8.5546875 25.7006816864014,9.66064453125 26.953125,10.400390625 28.5644512176514,11.4404296875 30.1171875,13.330078125 31.787109375,15.87890625 35.91796875,12.568359375 35.91796875,11.953125 36.181640625,11.455078125 35.56640625,9.8583984375 35.0537109375,7.9541015625 34.7021484375,6.03515625 34.5703125,4.365234375 34.74609375,2.63671875 35.3466796875,1.435546875 36.4892578125,0.7470703125 38.26171875,0.52734375 39.609375,2.16796875 41.396484375,4.189453125 42.392578125,5.41259765625 42.978515625,6.6796875 41.66015625,7.265625 40.59814453125,7.11181640625 39.111328125,6.650390625 37.5,6.005859375 36.474609375,5.537109375 36.15234375,6.240234375 36.23291015625,7.1484375 36.474609375,8.583984375 36.9140625,10.048828125 37.265625,10.95703125 37.44140625,10.95703125 38.173828125,11.1328125 38.8623046875,11.513671875 39.375,12.0703125 39.580078125,12.744140625 39.580078125,12.890625 39.2431640625,13.7841796875 38.642578125,14.53125 38.408203125,14.619140625 40.224609375,18.80859375 41.495361328125,21.8829345703125 42.4658203125,24.42626953125 43.135986328125,26.4385986328125 43.505859375,27.919921875 43.9453125,31.962890625 43.7045288085938,34.4430541992188 42.982177734375,36.668701171875 41.7782592773438,38.6398315429688 40.0927734375,40.3564453125 37.9440307617188,41.8057250976563 35.350341796875,42.974853515625 32.3117065429688,43.8638305664063 28.828125,44.47265625 14.1796875,44.47265625 10.8682250976563,43.9544677734375 7.99438428878784,43.16162109375 5.55816602706909,42.0941162109375 3.55957007408142,40.751953125 2.00225806236267,39.107666015625 0.889892339706421,37.1337890625 0.222473010420799,34.830322265625 0,32.197265625 0.593261480331421,27.65625 2.37304639816284,22.294921875 3.46801733970642,19.6435565948486 4.3505859375,17.490234375 5.02807521820068,15.8276386260986 5.5078125,14.6484375 5.27343654632568,14.47265625 4.71679592132568,12.83203125 5.14892482757568,11.71875 6.4453125,10.95703125 6.650390625,10.986328125 6.796875,10.1953125 6.8701171875,9.6240234375 7.08984375,8.466796875 7.33154296875,7.19970703125 7.412109375,6.4453125 7.08984375,5.7421875 6.298828125,6.1083984375 4.98046875,6.650390625 3.62548804283142,7.11181640625 2.66601538658142,7.265625 1.40624976158142,6.6796875 2.35107398033142,5.03173828125 4.248046875,2.900390625 5.68359375,0.52734375 7.2802734375,0.72509765625 8.37890625,1.318359375 9.01611328125,2.314453125 9.228515625,3.720703125 9.0966796875,5.0244140625 8.701171875,7.177734375 8.2470703125,9.5361328125 7.705078125,11.42578125 7.822265625,11.484375 8.02734375,11.865234375 8.02734375,12.568359375 10.48828125,14.1943359375 13.125,15.556640625 14.53125,13.88671875 15.69580078125,12.6232919692993 16.728515625,11.8212890625 18.1640625,11.1328125 19.3359375,10.517578125 20.009765625,9.31640625 19.892578125,8.466796875 18.3984375,8.0859375 17.958984375,7.529296875 17.958984375,6.2109375 17.4609375,6.2109375 17.080078125,5.5078125 17.8125,4.39453125 18.10546875,3.8232421875 18.33984375,3.1640625 18.6181640625,2.4609375 19.04296875,1.787109375 20.771484375,0.44677734375 22.8515625,0z" />
    </g>
  </g>
</svg>