<?xml version="1.0" encoding="utf-8"?>
<!DOCTYPE svg PUBLIC "-//W3C//DTD SVG 1.1//EN" "http://www.w3.org/Graphics/SVG/1.1/DTD/svg11.dtd">
<svg width="41.953125" height="44.70703125" xmlns="http://www.w3.org/2000/svg" xmlns:xlink="http://www.w3.org/1999/xlink" xmlns:xml="http://www.w3.org/XML/1998/namespace" version="1.1">
  <g>
    <g>
      <path style="fill:#FF0000;fill-opacity:1" d="M31.142578125,38.84765625L30.64453125,39.111328125 30.146484375,39.345703125 29.0625,39.931640625 29.5166015625,40.7666015625 29.794921875,41.8359375 29.5678691864014,42.579345703125 28.88671875,43.1103515625 26.630859375,43.53515625 26.630859375,43.564453125 27.01171875,43.59375 27.36328125,43.623046875 29.1796875,43.53515625 29.736328125,43.125 30.263671875,42.65625 30.3515625,41.8359375 30.322265625,41.3671875 30.234375,40.78125 30.380859375,40.341796875 30.8935546875,39.7119140625 31.318359375,39.0234375 31.142578125,38.84765625z M20.68359375,27.392578125L18.33984375,27.744140625 16.5234375,29.033203125 16.81640625,30.64453125 17.6953125,31.962890625 20.625,33.896484375 23.056640625,34.951171875 26.162109375,32.431640625 30.5859375,29.23828125 28.095703125,28.7109375 25.546875,28.125 23.02734375,27.6123046875 20.68359375,27.392578125z M36.240234375,26.689453125L31.60400390625,29.739990234375 26.07421875,33.7939453125 23.41552734375,35.9591674804688 21.416015625,37.899169921875 20.07568359375,39.6139526367188 19.39453125,41.103515625 20.390625,42.12890625 22.6721172332764,41.77734375 25.0048828125,40.95703125 27.7001934051514,39.66064453125 31.0693359375,37.880859375 34.031982421875,36.36474609375 35.5078125,35.859375 36.3720703125,36.03515625 37.236328125,36.62109375 37.32421875,36.9140625 37.1337890625,40.078125 36.38671875,43.154296875 36.38671875,43.330078125 37.437744140625,41.66015625 38.3642578125,39.228515625 39.012451171875,36.65771484375 39.228515625,34.5703125 39.08203125,34.2919921875 38.84765625,34.072265625 38.0126953125,34.27734375 37.5146484375,34.5263671875 37.130126953125,34.588623046875 36.064453125,34.6875 34.62890625,34.86328125 29.619140625,35.859375 27.2827129364014,36.8115234375 25.4296875,38.14453125 24.7265625,37.5 27.1435546875,35.80078125 28.3374004364014,35.29541015625 30.0146484375,34.775390625 34.072265625,33.984375 37.060546875,33.6328125 37.8955078125,32.080078125 38.203125,30.556640625 37.8955078125,29.033203125 37.327880859375,28.0078125 36.240234375,26.689453125z M3.486328125,9.140625L3.33984375,9.2578125 4.053955078125,11.048583984375 4.6728515625,11.9091796875 5.302734375,12.2607421875 5.69091749191284,12.7185077667236 6.73828125,14.1796875 8.35693359375,16.2158222198486 10.458984375,18.3984375 11.1328125,18.984375 12.3779296875,19.892578125 13.740234375,20.302734375 15.06591796875,19.998779296875 17.16796875,19.2041015625 19.43115234375,18.1750507354736 21.240234375,17.16796875 20.537109375,16.669921875 19.8046875,16.201171875 18.57421875,16.845703125 17.28515625,17.4609375 15.234375,18.017578125 14.35546875,18.45703125 13.505859375,18.8671875 12.919921875,18.837890625 9.345703125,15.791015625 5.830078125,12.685546875 5.68359375,12.24609375 5.7421875,11.953125 5.7421875,11.66015625 5.5078125,11.8359375 4.52636671066284,11.103515625 3.89648485183716,10.13671875 3.486328125,9.140625z M6.97265625,8.49609375L5.68359375,9.228515625 6.4599609375,10.3271484375 6.708984375,11.513671875 6.708984375,11.8359375 6.650390625,12.158203125 9.9609375,15.087890625 13.30078125,17.9296875 14.384765625,17.40234375 11.5576171875,13.8134765625 9.169921875,9.9609375 7.96875,9.4775390625 6.97265625,8.49609375z M20.302734375,6.826171875L21.26953125,7.1484375 20.390625,7.734375 20.009765625,7.32421875 20.302734375,6.826171875z M7.119140625,6.591796875L6.97265625,6.650390625 7.177734375,7.060546875 7.822265625,8.056640625 8.525390625,8.7451171875 9.404296875,9.08203125 9.580078125,9.08203125 10.3125,10.0927734375 10.8728017807007,11.099853515625 11.9091796875,12.685546875 13.3923330307007,14.7143573760986 15.29296875,17.05078125 16.142578125,16.81640625 15.501708984375,15.9448261260986 13.9892578125,13.857421875 12.0373525619507,11.3964853286743 10.078125,9.404296875 9.931640625,8.96484375 9.931640625,8.84765625 9.580078125,9.0234375 9.287109375,8.994140625 7.96875,7.998046875 7.96875,7.96875 7.5146484375,7.3388671875 7.119140625,6.591796875z M22.294921875,3.369140625L20.7568359375,4.1455078125 19.6875,5.2734375 19.365234375,6.2109375 19.482421875,7.08984375 19.3212890625,7.9833984375 18.92578125,9.052734375 19.3359375,9.052734375 19.74609375,9.228515625 20.244140625,10.107421875 20.859375,10.927734375 21.3427734375,10.78125 21.796875,10.693359375 22.4780254364014,10.9716796875 22.705078125,11.806640625 22.1044921875,14.0771484375 20.654296875,15.64453125 22.470703125,16.69921875 22.470703125,16.93359375 25.2941875457764,19.3652362823486 27.7294921875,22.03125 29.893798828125,25.0048828125 31.904296875,28.359375 33.80859375,27.0849609375 35.80078125,25.869140625 33.369140625,20.2661151885986 31.11328125,16.11328125 26.1328125,9.873046875 26.044921875,9.287109375 26.4990234375,8.115234375 26.630859375,7.001953125 26.3415508270264,5.562744140625 25.4736328125,4.4091796875 24.1003398895264,3.643798828125 22.294921875,3.369140625z M18.33984375,2.16796875L14.1796875,4.482421875 10.01953125,6.826171875 10.6494140625,7.8076171875 10.869140625,8.84765625 13.18359375,11.2939453125 15.263671875,13.974609375 16.142578125,15.234375 17.109375,16.5234375 18.251953125,15.99609375 20.042724609375,14.9963397979736 21.0791015625,13.9892578125 21.73828125,12.0703125 21.650390625,11.630859375 21.15234375,11.77734375 20.654296875,11.865234375 20.361328125,11.748046875 19.6728515625,10.8984375 19.1015625,9.990234375 18.3984375,9.990234375 17.958984375,9.43359375 18.046875,8.876953125 18.45703125,7.8515625 18.57421875,7.265625 18.427734375,6.298828125 18.603515625,5.625 18.80859375,5.068359375 19.27734375,4.1748046875 19.892578125,3.486328125 18.33984375,2.16796875z M19.6875,0L20.5078125,0.9375 21.2109375,1.7578125 21.884765625,2.490234375 24.3713359832764,2.808837890625 26.1474609375,3.7646484375 27.2131328582764,5.225830078125 27.568359375,7.060546875 27.01171875,9.43359375 29.6301250457764,12.3999032974243 32.0361328125,15.849609375 34.310302734375,20.0170917510986 36.533203125,25.13671875 38.408203125,22.8515625 39.111328125,22.91015625 40.078125,23.876953125 40.01953125,24.228515625 39.9609375,24.55078125 37.67578125,26.044921875 39.755859375,27.5244140625 41.8359375,28.974609375 41.865234375,29.296875 41.953125,29.6484375 41.484375,30.1171875 40.78125,30.17578125 39.755859375,29.35546875 38.701171875,28.505859375 39.140625,30.46875 38.9501953125,31.8310546875 38.37890625,33.22265625 38.73046875,33.193359375 39.78515625,33.64013671875 40.13671875,34.98046875 39.898681640625,36.767578125 39.1845703125,39.609375 38.074951171875,42.48779296875 36.650390625,44.384765625 36.064453125,44.35546875 35.6103515625,43.857421875 35.478515625,43.271484375 35.888671875,41.5283203125 36.21826171875,39.803466796875 36.38671875,37.119140625 35.537109375,36.796875 34.9951171875,36.8994140625 34.39453125,37.1484375 31.9921875,38.37890625 32.28515625,38.84765625 32.2265625,39.287109375 31.7431640625,40.1220703125 31.171875,40.869140625 31.23046875,41.396484375 31.23046875,41.89453125 30.970458984375,43.216552734375 30.1904296875,44.0771484375 27.626953125,44.70703125 26.2060546875,44.4873046875 25.546875,43.76953125 26.1328125,42.71484375 26.42578125,42.59765625 26.953125,42.59765625 28.3447265625,42.3779296875 28.828125,41.71875 28.65234375,41.103515625 28.212890625,40.400390625 24.3603515625,42.1728515625 20.2734375,43.06640625 20.126953125,43.037109375 18.9697265625,42.1728515625 18.427734375,41.07421875 18.64013671875,40.155029296875 19.27734375,39.0380859375 21.123046875,36.826171875 22.32421875,35.625 18.251953125,33.603515625 16.3623046875,31.8896484375 15.5859375,29.501953125 15.556640625,29.0625 15.955810546875,28.179931640625 17.1533203125,27.2900390625 18.878173828125,26.619873046875 20.859375,26.396484375 23.3569316864014,26.60888671875 26.455078125,27.24609375 29.2456035614014,27.9345703125 30.8203125,28.30078125 26.9677734375,22.529296875 22.03125,17.75390625 19.599609375,19.072265625 18.3251953125,19.6728534698486 17.607421875,20.009765625 16.376953125,20.537109375 13.681640625,21.181640625 11.8212890625,20.6689453125 9.814453125,19.072265625 8.73046875,17.958984375 6.73828125,15.791015625 4.833984375,13.154296875 3.6767578125,12.099609375 2.81249952316284,10.810546875 0.468749642372131,12.12890625 0,11.25 1.23046886920929,10.546875 2.490234375,9.814453125 2.431640625,9.5068359375 2.373046875,9.19921875 2.51953125,8.759765625 3.45703125,7.822265625 4.21875,8.02734375 4.3359375,8.7890625 5.390625,8.203125 6.4453125,7.587890625 5.947265625,6.6796875 6.18164110183716,6.005859375 6.6650390625,5.7861328125 7.1484375,5.537109375 7.470703125,5.68359375 7.763671875,5.830078125 8.173828125,6.62109375 13.505859375,3.57421875 15.380859375,2.490234375 19.6875,0z" />
    </g>
  </g>
</svg>