<?xml version="1.0" encoding="utf-8"?>
<!DOCTYPE svg PUBLIC "-//W3C//DTD SVG 1.1//EN" "http://www.w3.org/Graphics/SVG/1.1/DTD/svg11.dtd">
<svg width="35.56640625" height="44.853515625" xmlns="http://www.w3.org/2000/svg" xmlns:xlink="http://www.w3.org/1999/xlink" xmlns:xml="http://www.w3.org/XML/1998/namespace" version="1.1">
  <g>
    <g>
      <path style="fill:#FF0000;fill-opacity:1" d="M6.82617139816284,22.587890625L6.25488185882568,22.6171875 5.9765625,22.763671875 6.4306640625,23.0419921875 7.32421827316284,23.115234375 8.6663818359375,23.0987548828125 9.55810546875,23.04931640625 9.9993896484375,22.9669189453125 9.990234375,22.8515625 8.96484375,22.65380859375 6.82617139816284,22.587890625z M11.3671875,13.330078125L10.118408203125,13.8208026885986 8.4228515625,15.29296875 6.95434522628784,16.7944355010986 6.38671875,17.373046875 8.638916015625,16.5527362823486 10.1806640625,15.908203125 11.806640625,15.1025390625 12.24609375,14.4140625 12.041015625,13.7109375 11.3671875,13.330078125z M29.326171875,12.7734375L24.90234375,13.154296875 23.96484375,19.0283203125 22.412109375,25.1953125 21.26953125,29.150390625 20.15625,33.193359375 19.306640625,33.28125 17.51220703125,31.0226440429688 16.025390625,29.168701171875 14.84619140625,27.7194213867188 13.974609375,26.6748046875 11.484375,24.052734375 8.232421875,24.052734375 7.96874952316284,25.810546875 8.294677734375,28.011474609375 9.2724609375,30.8056640625 10.2502431869507,33.944091796875 10.576171875,37.177734375 10.2099599838257,40.634765625 9.111328125,43.916015625 33.310546875,43.916015625 29.443359375,41.982421875 29.208984375,41.30859375 31.318359375,34.51171875 32.021484375,26.982421875 31.34765625,19.5263671875 29.326171875,12.7734375z M21.73828125,5.126953125L22.33154296875,5.2587890625 22.529296875,5.654296875 21.73828125,6.181640625 21.474609375,5.654296875 21.73828125,5.126953125z M21.123046875,4.365234375L20.5810546875,6.15234375 19.892578125,7.32421875 20.1708984375,7.470703125 20.44921875,7.6171875 20.654296875,7.998046875 20.654296875,9.462890625 21.15234375,9.55078125 23.3203125,10.25390625 24.43359375,11.015625 24.873046875,12.216796875 27.3046875,12.01171875 25.7958984375,10.13671875 25.2868633270264,8.642578125 24.90234375,6.6796875 25.048828125,6.240234375 25.400390625,5.80078125 25.546875,5.302734375 25.4296875,4.98046875 25.01953125,4.8046875 24.638671875,4.98046875 24.404296875,5.15625 21.123046875,4.365234375z M25.693359375,0.908203125L23.9099102020264,1.07666015625 22.6025390625,1.58203125 21.727294921875,2.38037109375 21.240234375,3.427734375 22.79296875,3.779296875 24.31640625,4.189453125 25.166015625,3.896484375 26.0888671875,4.306640625 26.513671875,5.33203125 26.3232421875,6.0791015625 25.869140625,6.73828125 26.4660625457764,9.26513671875 27.2607421875,10.751953125 28.2897930145264,11.4990234375 29.58984375,11.806640625 30.7763671875,11.77734375 31.9921875,11.66015625 31.34033203125,7.0751953125 30.029296875,3.69140625 28.1249980926514,1.60400390625 25.693359375,0.908203125z M25.517578125,0L27.0858745574951,0.19683837890625 28.4802227020264,0.787353515625 29.7006206512451,1.77154541015625 30.7470703125,3.1494140625 32.252197265625,6.954345703125 32.9296875,12.0703125 32.75390625,12.275390625 32.578125,12.5390625 31.435546875,12.65625 30.322265625,12.744140625 32.2998046875,19.599609375 32.958984375,27.1875 32.2998046875,34.6728515625 30.234375,41.337890625 32.900390625,42.65625 35.56640625,44.00390625 35.419921875,44.4140625 35.2734375,44.853515625 8.349609375,44.853515625 8.14453125,44.501953125 7.96874952316284,44.150390625 9.169921875,40.6494140625 9.580078125,37.060546875 9.3603515625,34.4384765625 8.701171875,31.728515625 7.96874952316284,29.794921875 7.32421827316284,27.861328125 7.06054639816284,25.83984375 7.11914014816284,24.9609375 7.29492139816284,24.052734375 6.65039014816284,23.96484375 5.5224609375,23.6279296875 5.068359375,22.8515625 5.33203077316284,22.060546875 6.09374952316284,21.708984375 5.4345703125,20.6103515625 4.83398389816284,19.27734375 3.04687452316284,21.6796875 2.22656202316284,23.115234375 2.70996046066284,21.15234375 3.984375,19.013671875 0,21.4453125 1.58203113079071,19.4091796875 4.30663967132568,17.98828125 2.87841749191284,13.5498056411743 2.40234327316284,10.37109375 2.93701124191284,8.37158203125 4.54101514816284,7.705078125 4.54101514816284,8.642578125 3.69140577316284,8.96484375 3.33984327316284,10.25390625 3.83789014816284,13.41796875 5.21484279632568,17.51953125 6.92504835128784,15.4541034698486 8.5986328125,13.828125 10.125732421875,12.7734394073486 11.396484375,12.421875 12.6416015625,13.0078125 13.18359375,14.326171875 12.6599111557007,15.5419940948486 11.0888671875,16.494140625 9.268798828125,17.1899433135986 7.99804639816284,17.63671875 5.53710889816284,18.486328125 6.24023389816284,20.009765625 7.17773389816284,21.708984375 8.115234375,21.708984375 9.83642578125,21.826171875 10.78125,22.177734375 12.333984375,23.5107421875 13.7622060775757,24.986572265625 16.0546875,27.685546875 18.896484375,31.201171875 19.51171875,32.021484375 21.4453125,25.2685546875 23.115234375,18.45703125 23.701171875,15.41015625 23.8916015625,13.916015625 23.96484375,12.59765625 23.2177734375,11.3525390625 21.73828125,10.693359375 20.654296875,10.400390625 20.654296875,11.71875 19.5703125,11.71875 20.068359375,10.283203125 19.892578125,10.048828125 19.716796875,9.814453125 19.716796875,8.291015625 19.072265625,7.96875 18.837890625,7.294921875 19.6142578125,5.9765625 20.15625,4.51171875 20.15625,4.130859375 20.478515625,2.6806640625 21.4453125,1.318359375 23.1079082489014,0.32958984375 25.517578125,0z" />
    </g>
  </g>
</svg>