<?xml version="1.0" encoding="utf-8"?>
<!DOCTYPE svg PUBLIC "-//W3C//DTD SVG 1.1//EN" "http://www.w3.org/Graphics/SVG/1.1/DTD/svg11.dtd">
<svg width="18.57421875" height="23.203125" xmlns="http://www.w3.org/2000/svg" xmlns:xlink="http://www.w3.org/1999/xlink" xmlns:xml="http://www.w3.org/XML/1998/namespace" version="1.1">
  <g>
    <g>
      <path style="fill:#FF0000;fill-opacity:1" d="M11.953125,3.369140625L10.6750478744507,3.570556640625 9.5361328125,4.1748046875 8.056640625,6.298828125 8.408203125,7.6171875 9.375,8.4375 10.25390625,8.90625 10.78125,9.140625 11.2353515625,9.580078125 11.30859375,10.3125 11.0925283432007,11.480712890625 10.4443359375,12.6416015625 9.759521484375,13.568115234375 9.43359375,14.033203125 8.7890625,14.94140625 11.0119619369507,13.9013671875 13.0517578125,12.12890625 14.666748046875,9.931640625 15.615234375,7.6171875 14.296875,4.5556640625 13.2275381088257,3.665771484375 11.953125,3.369140625z M11.865234375,0.99609375L9.89501953125,1.3623046875 8.203125,2.2265625 6.9140625,3.53759765625 6.15234375,5.244140625 6.181640625,6.2109375 6.6064453125,8.4814453125 7.67578125,9.580078125 8.26171875,9.78515625 9.3017578125,10.5322265625 9.84375,11.953125 10.37109375,10.341796875 10.341796875,9.990234375 8.602294921875,9.049072265625 7.6611328125,8.2763671875 7.119140625,6.50390625 7.503662109375,5.152587890625 8.6572265625,3.7939453125 10.228271484375,2.772216796875 11.865234375,2.431640625 13.2421865463257,2.647705078125 14.384765625,3.2958984375 15.908203125,5.419921875 16.494140625,7.470703125 16.241455078125,8.646240234375 15.3076171875,10.5908203125 13.7622060775757,12.7294921875 11.6748046875,14.4873046875 9.232177734375,15.677490234375 6.62109375,16.11328125 6.416015625,15.8203125 6.2109375,15.556640625 6.2109375,14.443359375 5.91064405441284,13.18359375 5.009765625,12.861328125 3.87451171875,13.359375 2.87109375,14.560546875 2.34375,15.41015625 1.40625011920929,17.314453125 1.05468761920929,19.16015625 1.27075183391571,19.969482421875 1.91894519329071,20.9326171875 3.80859375,22.265625 6.005859375,21.2841796875 7.8662109375,19.5556640625 9.7998046875,17.666015625 12.0556640625,15.7470703125 14.150390625,13.6376953125 15.908203125,11.4111328125 17.1533203125,9.0673828125 17.607421875,6.708984375 17.215576171875,4.346923828125 16.0400390625,2.5341796875 14.212646484375,1.380615234375 11.865234375,0.99609375z M11.806640625,0L14.520263671875,0.46142578125 16.6845703125,1.845703125 18.101806640625,3.93310546875 18.57421875,6.50390625 18.2373046875,8.701171875 17.1533203125,11.0595703125 15.4248046875,13.5205078125 13.2861328125,15.87890625 10.78125,18.076171875 9.66796875,18.995361328125 9.0234375,19.7021484375 7.4560546875,21.298828125 5.361328125,22.79296875 3.896484375,23.203125 2.53051733970642,22.869873046875 1.24511706829071,21.8701171875 0.31127917766571,20.504150390625 0,19.072265625 0.413818299770355,17.208251953125 1.65527355670929,14.7216796875 3.372802734375,12.623291015625 5.21484375,11.923828125 6.62109375,12.509765625 7.119140625,14.326171875 7.119140625,15.17578125 7.55859375,15.146484375 7.998046875,14.296875 8.6279296875,12.9638671875 8.90625,11.923828125 8.572998046875,11.00830078125 7.5732421875,10.4296875 6.45263671875,9.818115234375 5.7568359375,8.8037109375 5.39428663253784,7.283935546875 5.2734375,5.15625 6.21093702316284,3.01025390625 7.79296875,1.376953125 9.74853515625,0.34423828125 11.806640625,0z" />
    </g>
  </g>
</svg>