<?xml version="1.0" encoding="utf-8"?>
<!DOCTYPE svg PUBLIC "-//W3C//DTD SVG 1.1//EN" "http://www.w3.org/Graphics/SVG/1.1/DTD/svg11.dtd">
<svg width="40.986328125" height="40.869140625" xmlns="http://www.w3.org/2000/svg" xmlns:xlink="http://www.w3.org/1999/xlink" xmlns:xml="http://www.w3.org/XML/1998/namespace" version="1.1">
  <g>
    <g>
      <path style="fill:#FF0000;fill-opacity:1" d="M4.599609375,39.052734375L3.77929639816284,39.169921875 3.017578125,39.43359375 2.19726538658142,39.7265625 1.259765625,39.931640625 3.07617139816284,39.7119140625 5.18554639816284,39.19921875 4.90722608566284,39.08203125 4.599609375,39.052734375z M6.474609375,35.830078125L5.88867139816284,36.6796875 5.71289014816284,37.880859375 6.123046875,38.466796875 6.50390625,39.052734375 7.08984375,39.2578125 7.705078125,39.462890625 10.634765625,39.345703125 13.330078125,39.140625 16.5087890625,38.90625 19.775390625,38.818359375 21.76025390625,38.935546875 24.4921875,39.287109375 27.2607402801514,39.67529296875 29.35546875,39.90234375 28.4545879364014,39.55078125 26.982421875,39.08203125 25.6127910614014,38.565673828125 25.01953125,38.0712890625 24.19921875,37.587890625 23.3642578125,37.8515625 22.470703125,38.056640625 19.2626953125,37.5732421875 17.567138671875,37.210693359375 16.318359375,37.08984375 12.4365234375,37.5 8.671875,38.49609375 8.14453125,38.26171875 7.3681640625,37.001953125 6.474609375,35.830078125z M24.609375,29.208984375L20.233154296875,30.135498046875 15.3662109375,31.6259765625 10.792236328125,33.402099609375 7.294921875,35.185546875 8.0712890625,36.3134765625 8.7890625,37.470703125 10.17333984375,36.99462890625 12.158203125,36.5625 16.171875,36.15234375 17.530517578125,36.26953125 19.4970703125,36.62109375 21.280517578125,36.97265625 22.08984375,37.08984375 22.6171875,37.08984375 23.2177734375,36.796875 23.84765625,36.6796875 24.638671875,34.8193359375 24.84375,32.87109375 24.755859375,31.0546875 24.609375,29.208984375z M9.2578125,22.55859375L8.14453125,24.814453125 8.587646484375,25.726318359375 9.0966796875,27.4072265625 9.638671875,31.494140625 9.638671875,32.16796875 9.580078125,32.87109375 13.1982421875,31.3330078125 16.962890625,30.029296875 16.226806640625,29.0771484375 14.3701171875,26.689453125 11.8835439682007,24.10400390625 9.2578125,22.55859375z M8.291015625,22.353515625L7.0166015625,22.9833984375 6.5625,24.228515625 6.7236328125,25.6201171875 7.1484375,27.802734375 7.5,29.384765625 7.939453125,31.318359375 8.4375,33.3984375 8.61328125,33.33984375 8.642578125,32.6953125 8.671875,30.8203125 8.203125,27.890625 7.20703125,25.048828125 7.20703125,24.580078125 7.763671875,23.4814453125 8.291015625,22.353515625z M17.6953125,6.064453125L18.486328125,6.591796875 17.6953125,6.884765625 17.109375,6.4453125 17.6953125,6.064453125z M20.5078125,2.197265625L18.046875,2.7978515625 17.16796875,3.570556640625 16.69921875,4.6875 20.5078125,5.21484375 21.09375,4.74609375 21.533203125,4.8046875 22.0751953125,5.390625 22.20703125,6.2109375 21.943359375,7.1484375 21.26953125,7.822265625 21.6357421875,10.048828125 22.67578125,11.19140625 24.3310546875,8.876953125 25.048828125,6.240234375 24.7521953582764,4.544677734375 23.8623046875,3.2666015625 22.4304180145264,2.464599609375 20.5078125,2.197265625z M3.69140625,1.259765625L3.95507764816284,2.138671875 4.04296875,2.578125 3.9404296875,2.8125 3.8671875,3.017578125 3.134765625,2.7392578125 2.63671875,2.34375 2.74658203125,3.36181640625 3.07617139816284,3.955078125 3.720703125,4.4677734375 3.9990234375,5.262451171875 4.423828125,7.3828125 4.96581983566284,9.88403511047363 5.595703125,11.8212890625 7.470703125,14.765625 11.8505859375,15.556640625 16.318359375,15.908203125 16.552734375,16.142578125 16.81640625,16.376953125 17.578125,23.3349609375 18.134765625,29.677734375 21.064453125,28.974609375 22.96875,28.564453125 24.4921875,28.212890625 24.2431640625,25.1220703125 24.08203125,21.708984375 24.287109375,18.7939453125 25.048828125,16.142578125 25.224609375,16.025390625 25.4296875,15.908203125 30.205078125,15.5712890625 34.951171875,14.765625 36.7822265625,11.89453125 37.489013671875,9.88037300109863 38.115234375,7.177734375 38.4375,5.947265625 38.7744140625,4.8193359375 39.08203125,4.365234375 39.7119140625,3.837890625 40.048828125,2.34375 39.55078125,2.7392578125 38.818359375,3.017578125 38.73046875,2.8125 38.642578125,2.578125 38.84765625,1.7724609375 38.994140625,1.259765625 38.5400390625,1.8310546875 38.349609375,2.431640625 38.37890625,2.841796875 38.5546875,3.80859375 38.583984375,4.072265625 38.408203125,4.7900390625 38.09326171875,5.518798828125 37.5,7.03125 35.712890625,11.689453125 35.0390625,13.4765625 34.716796875,13.798828125 31.4501953125,14.0625 27.24609375,14.1796875 25.3381328582764,14.0478534698486 23.8916015625,13.65234375 22.9138164520264,13.0004901885986 22.412109375,12.099609375 21.51123046875,11.5466327667236 20.859375,10.5908203125 20.33203125,8.02734375 20.33203125,7.6171875 20.56640625,7.1484375 21.005859375,6.85546875 21.26953125,6.064453125 21.26953125,5.947265625 21.2109375,5.859375 20.771484375,6.181640625 16.552734375,5.595703125 16.39892578125,6.6064453125 16.2890625,7.001953125 16.083984375,7.79296875 16.58203125,8.232421875 16.640625,8.8623046875 16.904296875,9.375 18.138427734375,9.51049995422363 18.8525390625,9.9169921875 19.193115234375,10.6677265167236 19.306640625,11.8359375 19.024658203125,12.6049823760986 18.1787109375,13.330078125 15.8203125,14.326171875 15.4541015625,14.2822265625 14.8828125,14.23828125 13.88671875,14.23828125 10.869140625,14.033203125 7.822265625,13.798828125 7.6171875,13.681640625 7.44140625,13.564453125 6.62109375,11.3671875 5.771484375,9.052734375 4.16015625,4.51171875 4.1015625,4.072265625 4.13085889816284,3.80859375 4.30664014816284,2.841796875 4.3359375,2.431640625 4.1455078125,1.8310546875 3.69140625,1.259765625z M3.45703125,0L4.6875,1.2158203125 5.15625,2.578125 5.09765625,3.369140625 4.98046875,4.189453125 5.830078125,6.416015625 8.173828125,12.890625 11.044921875,13.095703125 13.88671875,13.30078125 14.53125,13.30078125 15.1318359375,13.330078125 15.732421875,13.447265625 16.124267578125,13.3190937042236 17.1240234375,12.9345703125 18.101806640625,12.3376483917236 18.427734375,11.572265625 18.314208984375,10.7922382354736 17.9736328125,10.4443359375 16.669921875,10.3125 16.376953125,10.1953125 15.673828125,8.701171875 15.498046875,8.701171875 15.05859375,8.14453125 15.322265625,7.0751953125 15.5859375,5.859375 15.556640625,5.595703125 15.8935546875,3.7939453125 16.904296875,2.431640625 18.49365234375,1.57470703125 20.56640625,1.2890625 22.7966289520264,1.6259765625 24.5068359375,2.63671875 25.5944805145264,4.2919921875 25.95703125,6.5625 25.3857421875,8.90625 24.5837383270264,10.2539081573486 23.3203125,11.89453125 23.6535625457764,12.4658222198486 24.4775390625,12.890625 25.7849102020264,13.1542987823486 27.568359375,13.2421875 30.146484375,13.18359375 32.255859375,13.095703125 34.27734375,12.890625 35.91796875,8.6279296875 37.822265625,4.04296875 37.646484375,3.2958984375 37.529296875,2.578125 37.998046875,1.2158203125 39.228515625,0 39.9609375,0.29296875 39.990234375,0.64453125 39.90234375,0.908203125 39.462890625,1.7578125 39.31640625,2.05078125 40.37109375,1.40625 40.60546875,1.58203125 40.83984375,1.7578125 40.986328125,2.197265625 40.7080078125,3.7939453125 39.580078125,5.009765625 38.6572265625,9.2578125 37.119140625,13.30078125 36.767578125,13.88671875 35.972900390625,15.0695819854736 35.4052734375,15.6298828125 34.251708984375,15.9375019073486 31.69921875,16.3623046875 25.751953125,16.845703125 25.1806640625,18.984375 25.01953125,21.767578125 25.078125,23.9501953125 25.25390625,26.396484375 25.517578125,29.35546875 25.78125,32.98828125 25.60546875,34.833984375 24.90234375,36.767578125 25.927734375,37.67578125 26.8469219207764,38.016357421875 28.4326171875,38.5107421875 30.069580078125,39.195556640625 31.142578125,40.107421875 30.9375,40.48828125 30.732421875,40.869140625 28.359375,40.576171875 26.1328125,40.3125 24.2578125,40.107421875 22.470703125,39.931640625 20.888671875,39.814453125 19.716796875,39.755859375 17.05078125,39.840087890625 13.974609375,40.0927734375 11.0229482650757,40.345458984375 8.73046875,40.4296875 7.3828125,40.3271484375 6.181640625,39.9609375 1.083984375,40.869140625 0.39550793170929,40.7666015625 0,40.283203125 0.263671517372131,39.609375 0.673828125,39.111328125 0.966796636581421,38.994140625 2.90039014816284,38.5546875 4.8046875,38.115234375 4.775390625,37.939453125 4.97314405441284,36.522216796875 5.56640625,35.4345703125 7.55859375,33.837890625 7.3388671875,32.63671875 6.97265625,30.966796875 6.50390625,29.0625 5.9033203125,26.220703125 5.69457960128784,25.01220703125 5.625,24.19921875 5.81542921066284,23.177490234375 6.38671875,22.2802734375 7.236328125,21.654052734375 8.26171875,21.4453125 10.12939453125,21.888427734375 12.216796875,23.2177734375 14.55322265625,25.506591796875 17.16796875,28.828125 16.9921875,26.513671875 16.728515625,24.228515625 16.585693359375,22.921142578125 16.3916015625,20.9326171875 15.9375,16.845703125 13.740234375,16.69921875 11.513671875,16.435546875 8.9794921875,16.025390625 7.4560546875,15.8203125 6.92138671875,15.5822772979736 6.2255859375,14.8681640625 4.9658203125,12.7880859375 4.21875,10.6640625 3.57421875,7.822265625 3.07617139816284,5.126953125 1.962890625,3.8525390625 1.69921898841858,2.197265625 1.84570288658142,1.7578125 2.109375,1.58203125 2.314453125,1.40625 3.369140625,2.05078125 3.22265625,1.7578125 2.783203125,0.908203125 2.6953125,0.64453125 2.72460889816284,0.29296875 3.45703125,0z" />
    </g>
  </g>
</svg>