<?xml version="1.0" encoding="utf-8"?>
<!DOCTYPE svg PUBLIC "-//W3C//DTD SVG 1.1//EN" "http://www.w3.org/Graphics/SVG/1.1/DTD/svg11.dtd">
<svg width="26.279296875" height="44.8828125" xmlns="http://www.w3.org/2000/svg" xmlns:xlink="http://www.w3.org/1999/xlink" xmlns:xml="http://www.w3.org/XML/1998/namespace" version="1.1">
  <g>
    <g>
      <path style="fill:#FF0000;fill-opacity:1" d="M5.302734375,28.41796875L5.21484375,29.150390625 5.5078125,29.794921875 6.03515625,29.560546875 5.68359375,28.828125 5.302734375,28.41796875z M17.87109375,24.873046875L17.34375,24.990234375 15.205078125,25.60546875 14.0625,26.572265625 13.5571279525757,28.17626953125 13.330078125,30.703125 13.4765625,33.3984375 13.125,35.5078125 12.7001943588257,36.2109375 12.12890625,36.4453125 11.5576162338257,36.2548828125 10.8691396713257,35.68359375 10.0634756088257,34.7314453125 9.140625,33.3984375 7.65380859375,31.083984375 7.119140625,30.234375 6.0791015625,30.457763671875 5.41992282867432,31.0107421875 4.951171875,32.724609375 5.152587890625,34.39453125 5.7568359375,36.474609375 6.9140625,41.572265625 6.826171875,41.865234375 6.474609375,42.1875 5.888671875,42.685546875 5.33203125,43.2421875 5.09765625,43.623046875 5.625,43.9013671875 6.650390625,43.9453125 20.56640625,43.9453125 20.009765625,43.2421875 19.04296875,42.59765625 18.1494140625,41.8212890625 17.75390625,40.751953125 17.841796875,39.78515625 17.9296875,39.169921875 18.10546875,36.708984375 18.134765625,36.04248046875 18.22265625,34.3359375 18.33984375,30 18.310546875,28.76953125 18.251953125,27.421875 18.0908203125,26.0888671875 17.87109375,24.873046875z M13.095703125,18.8671875L13.828125,19.189453125 12.978515625,19.775390625 12.744140625,19.365234375 13.095703125,18.8671875z M16.2890625,17.431640625L16.0400390625,17.63671875 15.849609375,17.98828125 15.380859375,18.310546875 12.5390625,17.9296875 12.5390625,18.193359375 12.1728515625,19.3359375 11.689453125,20.419921875 12.12890625,20.947265625 12.275390625,21.73828125 13.037109375,21.73828125 14.3994140625,22.7490234375 14.912109375,24.375 16.318359375,24.169921875 17.724609375,23.90625 17.080078125,22.822265625 16.2890625,21.884765625 15.6298828125,20.91796875 15.3515625,19.775390625 15.41015625,19.16015625 15.556640625,18.896484375 15.703125,18.6328125 16.171875,18.3837890625 16.40625,17.958984375 16.376953125,17.6953125 16.34765625,17.51953125 16.2890625,17.431640625z M12.568359375,14.1796875L12.568359375,16.9921875 15.146484375,17.34375 15.6298828125,16.728515625 16.376953125,16.435546875 17.0654296875,16.8310546875 17.314453125,17.724609375 17.021484375,18.7060546875 16.318359375,19.365234375 16.318359375,19.74609375 16.5087890625,20.6103515625 17.080078125,21.4453125 18.22265625,22.822265625 21.357421875,14.1796875 12.568359375,14.1796875z M24.2578125,1.40625L23.0712890625,1.8017578125 21.97265625,2.63671875 17.98828125,13.2421875 21.6796875,13.2421875 23.701171875,7.4853515625 24.6679668426514,4.691162109375 25.341796875,2.783203125 24.9755859375,1.7138671875 24.2578125,1.40625z M20.56640625,0.87890625L19.4970703125,1.142578125 18.6328125,1.728515625 15.732421875,7.470703125 12.861328125,13.2421875 16.9921875,13.2421875 19.072265625,7.705078125 21.15234375,2.138671875 21.38671875,1.2890625 21.181640625,0.9521484375 20.56640625,0.87890625z M20.625,0L21.7529296875,0.2490234375 22.32421875,1.08398389816284 24.19921875,0.498047351837158 25.6640625,1.0546875 26.279296875,2.841796875 24.755859375,7.265625 23.26171875,11.54296875 21.650390625,16.083984375 22.9907207489014,16.5087909698486 23.4375,17.490234375 23.4375,44.8828125 22.5,44.8828125 22.5,18.427734375 22.19970703125,17.4829120635986 21.298828125,17.05078125 18.75,24.140625 19.189453125,26.8212890625 19.306640625,29.58984375 19.248046875,32.080078125 19.130859375,34.5703125 18.9697265625,37.8076171875 18.720703125,41.044921875 19.365234375,41.8359375 20.33203125,42.36328125 21.2109375,43.095703125 21.5625,44.4140625 21.298828125,44.6484375 21.064453125,44.8828125 5.478515625,44.8828125 4.6142578125,44.5458984375 4.21875,43.740234375 4.427490234375,43.037109375 5.0537109375,42.275390625 5.694580078125,41.66748046875 5.947265625,41.42578125 5.80078125,40.2099609375 5.643310546875,39.437255859375 5.1708984375,37.8515625 4.63623046875,36.0791015625 4.2919921875,34.74609375 4.04296875,32.666015625 4.2041015625,31.34765625 4.775390625,30.29296875 4.423828125,29.53125 4.3359375,29.12109375 4.541015625,28.359375 3.55957102775574,28.0810546875 3.07617211341858,27.626953125 3.32519555091858,27.451171875 4.07226657867432,27.392578125 4.07226657867432,12.3046875 3.72070336341858,11.22802734375 2.66601586341858,10.869140625 1.53076183795929,12.0483407974243 0.292969107627869,14.1796875 0,13.88671875 0.615234613418579,12.3486328125 1.07666039466858,11.414794921875 1.23046922683716,10.869140625 1.86401379108429,9.68994140625 2.29980516433716,9.19921875 3.09082055091858,8.5546875 3.922119140625,7.822265625 5.5078125,6.62109375 5.9765625,7.08984375 4.23339939117432,8.6865234375 3.51196312904358,9.517822265625 3.13476586341858,9.931640625 4.541015625,10.97900390625 5.009765625,12.3046875 5.009765625,27.392578125 5.760498046875,27.59765625 6.2548828125,28.212890625 6.884765625,29.35546875 7.119140625,29.326171875 7.353515625,29.296875 7.763671875,29.47265625 8.375244140625,30.43212890625 9.7412109375,32.607421875 11.2170400619507,34.69482421875 12.158203125,35.390625 12.4658203125,34.27734375 12.5390625,33.10546875 12.48046875,31.875 12.421875,30.380859375 12.7587890625,27.48046875 14.00390625,24.90234375 13.76953125,23.5693359375 12.861328125,22.67578125 12.041015625,24.287109375 11.2866201400757,25.462646484375 10.546875,26.0595703125 9.521484375,26.3671875 9.140625,26.103515625 9.111328125,25.95703125 9.755859375,25.517578125 11.25,24.08203125 11.923828125,22.6171875 11.4697265625,22.2509765625 11.337890625,21.298828125 11.1328125,21.26953125 10.95703125,21.064453125 10.693359375,20.712890625 11.1328125,19.365234375 11.630859375,17.431640625 11.630859375,13.798828125 11.689453125,13.4765625 14.00390625,8.876953125 15.087890625,6.6943359375 15.6884765625,5.504150390625 16.025390625,4.833984375 17.841796875,1.201171875 18.8818359375,0.3662109375 20.625,0z" />
    </g>
  </g>
</svg>