<?xml version="1.0" encoding="utf-8"?>
<!DOCTYPE svg PUBLIC "-//W3C//DTD SVG 1.1//EN" "http://www.w3.org/Graphics/SVG/1.1/DTD/svg11.dtd">
<svg width="26.865234375" height="44.970703125" xmlns="http://www.w3.org/2000/svg" xmlns:xlink="http://www.w3.org/1999/xlink" xmlns:xml="http://www.w3.org/XML/1998/namespace" version="1.1">
  <g>
    <g>
      <path style="fill:#FF0000;fill-opacity:1" d="M10.48828125,39.9609375L11.220703125,40.283203125 10.37109375,40.869140625 10.13671875,40.458984375 10.48828125,39.9609375z M14.443359375,37.236328125L13.6669921875,38.291015625 13.4765625,39.66796875 14.0185546875,40.2978515625 14.208984375,41.103515625 13.9599609375,41.8798828125 13.212890625,42.216796875 12.744140625,41.8359375 11.3671875,42.041015625 9.9609375,42.24609375 10.7958984375,43.4912109375 12.83203125,43.974609375 14.24560546875,43.773193359375 15.322265625,43.1689453125 16.00341796875,42.227783203125 16.23046875,41.015625 15.8056640625,39.140625 14.443359375,37.236328125z M10.78125,24.66796875L10.78125,24.755859375 10.400390625,29.2529296875 9.873046875,33.10546875 9.609375,33.33984375 9.375,33.57421875 6.796875,33.3251953125 4.21875,32.958984375 3.035888671875,32.991943359375 2.29980492591858,33.0908203125 1.90063464641571,33.511962890625 1.72851586341858,34.51171875 1.69921898841858,34.98046875 1.69921898841858,35.56640625 1.86035180091858,38.3349609375 2.28515625,40.83984375 1.28906273841858,42.01171875 0.849609613418579,43.564453125 1.20117163658142,43.76953125 1.376953125,42.7001953125 1.9921875,41.89453125 2.28515625,41.982421875 2.13867211341858,42.83203125 1.90429663658142,43.681640625 2.40234398841858,43.2568359375 2.60742235183716,42.158203125 2.53417992591858,41.54296875 2.40234398841858,40.83984375 2.37304711341858,40.048828125 2.34374976158142,39.404296875 2.34374976158142,34.130859375 2.9296875,33.603515625 7.4267578125,34.306640625 9.400634765625,34.775390625 10.78125,35.537109375 11.5942373275757,36.4599609375 11.865234375,37.412109375 11.4990234375,38.2763671875 10.01953125,38.61328125 9.84375,39.404296875 9.404296875,39.78515625 9.638671875,40.4296875 9.84375,41.30859375 11.396484375,41.103515625 12.978515625,40.8984375 13.1103515625,41.07421875 13.2421875,41.19140625 13.2421875,41.162109375 13.271484375,41.07421875 13.18359375,40.693359375 12.83203125,40.400390625 12.5390625,39.873046875 13.0810546875,37.705078125 14.53125,36.298828125 14.827880859375,35.44189453125 15.7177734375,34.86328125 17.666015625,34.306640625 18.85986328125,34.1455078125 20.91796875,33.896484375 23.5546875,33.57421875 23.7890625,33.80859375 24.052734375,34.04296875 24.169921875,37.734375 24.43359375,41.337890625 24.287109375,41.77734375 24.052734375,42.685546875 24.0966796875,43.2275390625 24.287109375,43.505859375 24.287109375,43.125 24.404296875,41.982421875 24.755859375,41.689453125 25.576171875,42.59765625 26.015625,43.798828125 26.1328125,43.740234375 26.1328125,43.53515625 25.4296875,41.923828125 24.55078125,41.044921875 24.7265625,36.474609375 24.66796875,35.947265625 24.697265625,35.478515625 24.580078125,34.072265625 24.169921875,33.134765625 23.49609375,33.017578125 22.763671875,32.958984375 20.1123046875,33.4130859375 17.666015625,33.720703125 16.318359375,33.544921875 16.083984375,33.33984375 15.6005859375,31.3916015625 15.439453125,29.00390625 15.439453125,26.630859375 15.439453125,25.9716796875 15.498046875,25.458984375 14.718017578125,25.323486328125 13.3154296875,25.0927734375 11.8249502182007,24.847412109375 10.78125,24.66796875z M15.99609375,15.146484375L9.521484375,15.17578125 9.7265625,16.6369647979736 10.107421875,19.3212890625 10.4736318588257,22.064208984375 10.634765625,23.701171875 15.64453125,24.4921875 15.9375,22.96875 15.556640625,20.654296875 15.76171875,17.900390625 15.99609375,15.146484375z M12.099609375,0.9375L13.8464345932007,1.446533203125 14.9267578125,1.8603515625 16.0400390625,2.5341796875 16.40625,3.75 16.2890625,5.09765625 16.11328125,6.2109375 15.52734375,9.052734375 14.8828125,11.865234375 14.619140625,13.037109375 14.443359375,14.23828125 16.083984375,14.23828125 16.669921875,6.767578125 16.875,3.046875 16.93359375,2.75390625 17.2412109375,1.9921875 17.490234375,1.142578125 17.40234375,0.996093273162842 17.28515625,0.966796875 16.5966796875,1.1865234375 15.908203125,1.435546875 14.0771484375,1.1865234375 12.099609375,0.9375z M2.9296875,0.9375L3.92578077316284,1.171875 5.91064453125,1.77978515625 6.943359375,2.255859375 7.4267578125,2.92236328125 7.763671875,4.1015625 8.3203125,7.20703125 9.287109375,13.53515625 9.375,14.23828125 10.634765625,14.23828125 10.224609375,11.982421875 9.66796875,9.755859375 9.052734375,7.55859375 8.525390625,5.33203125 8.349609375,4.16015625 8.232421875,2.98828125 8.232421875,2.841796875 8.26171875,2.548828125 8.349609375,2.021484375 8.525390625,1.11328125 8.3203125,0.9375 8.0859375,0.9375 7.412109375,1.171875 6.50390625,1.40625 4.8046875,1.171875 3.1640625,0.9375 2.9296875,0.9375z M8.056640625,0L9.0234375,0.3076171875 9.462890625,1.11328125 9.3603515625,1.8310546875 9.19921875,2.548828125 9.19921875,3.22265625 9.481201171875,5.364990234375 10.3271484375,8.8037109375 11.2023916244507,12.2058115005493 11.572265625,14.23828125 13.505859375,14.23828125 13.7109375,12.919921875 13.974609375,11.630859375 14.912109375,7.5 15.41015625,3.310546875 14.359130859375,2.666015625 12.8466796875,2.138671875 11.4953603744507,1.7724609375 10.927734375,1.611328125 10.78125,1.34765625 10.634765625,1.083984375 11.162109375,0.249023914337158 12.216796875,0.029296875 15.556640625,0.498046875 16.4794921875,0.249023914337158 17.431640625,0 18.1494140625,0.3662109375 18.427734375,1.171875 18.0322265625,2.3876953125 17.764892578125,3.460693359375 17.63671875,5.595703125 17.574462890625,7.12646484375 17.4462890625,9.052734375 17.252197265625,11.37451171875 16.9921875,14.091796875 16.34765625,20.126953125 16.318359375,20.361328125 16.318359375,20.595703125 16.40625,21.298828125 16.69921875,22.412109375 16.7578125,22.96875 16.58203125,24.375 16.40625,25.224609375 16.376953125,26.71875 16.259765625,29.208984375 16.23046875,30.52734375 16.435546875,31.904296875 16.7578125,32.75390625 17.51953125,32.75390625 22.79296875,32.05078125 23.525390625,32.05078125 24.5434551239014,32.318115234375 25.1953125,33.0029296875 25.5468730926514,34.259033203125 25.6640625,36.240234375 25.634765625,37.646484375 25.517578125,39.697265625 25.48828125,40.60546875 26.5576171875,41.982421875 26.865234375,43.681640625 26.77734375,44.0478515625 26.66015625,44.35546875 26.396484375,44.58984375 26.103515625,44.82421875 25.37109375,44.53125 25.166015625,43.740234375 24.84375,43.0078125 24.90234375,43.974609375 24.638671875,44.208984375 24.404296875,44.443359375 23.5107421875,43.916015625 23.26171875,42.7734375 23.3203125,41.89453125 23.49609375,41.162109375 23.1884765625,37.8955078125 23.115234375,34.5703125 20.537109375,34.8046875 18.533935546875,35.0390625 17.1533203125,35.33203125 15.732421875,35.830078125 15.380859375,36.5625 16.6552734375,38.6279296875 17.16796875,40.986328125 16.864013671875,42.564697265625 15.9521484375,43.8427734375 14.586181640625,44.688720703125 12.919921875,44.970703125 11.3525381088257,44.75830078125 10.107421875,44.12109375 9.2578125,43.154296875 8.876953125,41.953125 8.876953125,41.337890625 8.6572265625,40.3857421875 8.4375,39.4921875 8.876953125,38.935546875 8.935546875,38.935546875 9.4921875,37.79296875 9.873046875,37.67578125 10.107421875,37.67578125 10.7080078125,37.6025390625 10.927734375,37.294921875 10.2099609375,36.26953125 8.4375,35.44921875 3.28125047683716,34.599609375 3.28125047683716,37.6171875 3.25195264816284,39.140625 3.1640625,40.6640625 3.369140625,41.630859375 3.45703077316284,42.65625 3.2080078125,43.7109375 2.31445288658142,44.4140625 1.66992163658142,44.150390625 1.58203125,44.58984375 0.820312738418579,44.794921875 0.49804675579071,44.443359375 0.146484613418579,44.150390625 0,43.7109375 0.395507574081421,41.9384765625 1.43554663658142,40.458984375 0.937499761581421,37.9248046875 0.761718511581421,35.33203125 0.761718511581421,34.892578125 0.94482421875,33.489990234375 1.318359375,32.6220703125 2.09472632408142,32.171630859375 3.48632764816284,32.021484375 4.892578125,32.109375 7.5,32.51953125 8.994140625,32.63671875 9.0234375,32.255859375 9.462890625,29.501953125 9.84375,26.748046875 9.84375,24.404296875 8.583984375,24.78515625 8.0712890625,24.609375 7.8515625,24.111328125 8.1005859375,23.642578125 8.61328125,23.466796875 9.140625,23.583984375 9.521484375,23.671875 9.697265625,23.671875 9.0234375,17.6953125 7.5,8.02734375 6.85546875,4.3359375 6.826171875,4.072265625 6.6796875,3.310546875 5.80078125,2.6513671875 4.39453172683716,2.197265625 3.22265625,1.962890625 2.13867211341858,1.728515625 1.69921898841858,1.171875 2.21191382408142,0.2783203125 3.28125047683716,0.029296875 3.75,0.0878901481628418 4.96582078933716,0.3076171875 6.18164014816284,0.46875 7.1484375,0.234375 8.056640625,0z" />
    </g>
  </g>
</svg>