<?xml version="1.0" encoding="utf-8"?>
<!DOCTYPE svg PUBLIC "-//W3C//DTD SVG 1.1//EN" "http://www.w3.org/Graphics/SVG/1.1/DTD/svg11.dtd">
<svg width="43.916015625" height="44.970703125" xmlns="http://www.w3.org/2000/svg" xmlns:xlink="http://www.w3.org/1999/xlink" xmlns:xml="http://www.w3.org/XML/1998/namespace" version="1.1">
  <g>
    <g>
      <path style="fill:#FF0000;fill-opacity:1" d="M32.87109375,40.25390625L32.7392578125,40.517578125 32.607421875,40.78125 32.2265625,41.455078125 32.0068359375,41.7626953125 31.7578125,42.0703125 33.343505859375,42.381591796875 35.1123046875,43.0810546875 36.807861328125,43.751220703125 38.173828125,43.974609375 38.291015625,43.974609375 37.115478515625,43.721923828125 36.3427734375,43.4326171875 35.672607421875,42.879638671875 34.8046875,41.8359375 33.837890625,40.7958984375 32.87109375,40.25390625z M12.099609375,30.99609375L11.9677734375,31.2158203125 11.8359375,31.46484375 11.572265625,31.904296875 10.400390625,34.04296875 8.73779296875,37.40478515625 7.734375,39.755859375 7.196044921875,41.19140625 6.9287109375,41.806640625 6.375732421875,42.147216796875 4.98046875,42.7587890625 1.28906273841858,43.916015625 1.96289086341858,44.00390625 2.78320336341858,43.88671875 4.423828125,43.388671875 5.068359375,43.271484375 6.1669921875,43.65234375 7.353515625,44.033203125 7.8515625,43.9013671875 8.02734375,43.4765625 7.9248046875,42.890625 7.763671875,42.36328125 7.822265625,42.041015625 10.693359375,37.646484375 13.53515625,33.22265625 12.6708984375,32.2265625 12.099609375,30.99609375z M32.314453125,30.41015625L23.7744140625,34.3505859375 21.8014526367188,35.3549194335938 20.291748046875,36.156005859375 19.2453002929688,36.7538452148438 18.662109375,37.1484375 17.9296875,37.734375 15.4248046875,39.9755859375 14.4030752182007,41.488037109375 14.0625,43.2421875 14.326171875,43.828125 15.498046875,44.0625 18.427734375,43.8134765625 22.822265625,43.06640625 27.3046855926514,42.3193359375 30.498046875,42.0703125 32.5634765625,38.6865234375 33.3984375,34.892578125 32.9736328125,32.0654296875 32.314453125,30.41015625z M14.4140625,29.326171875L13.388671875,29.443359375 12.7734375,29.912109375 12.802734375,30.146484375 13.154296875,31.1865234375 14.296875,32.63671875 18.896484375,35.859375 21.123046875,34.62890625 23.3203125,33.486328125 21.229248046875,31.739501953125 18.9990234375,30.4248046875 16.702880859375,29.600830078125 14.4140625,29.326171875z M20.888671875,17.98828125L18.0029296875,22.8955078125 15.772705078125,25.587158203125 12.626953125,28.828125 14.501953125,28.388671875 16.922607421875,28.685302734375 19.3798828125,29.5751953125 23.818359375,32.63671875 24.0966796875,30.5712890625 24.19921875,28.564453125 24.0051250457764,25.77392578125 23.4228515625,23.14453125 22.4011211395264,20.5810546875 20.888671875,17.98828125z M24.43359375,5.33203125L25.341796875,5.68359375 24.375,6.240234375 24.08203125,5.80078125 24.43359375,5.33203125z M24.140625,4.013671875L23.8916015625,5.068359375 23.49609375,6.2109375 23.0859375,6.943359375 22.734375,7.67578125 23.525390625,8.2470703125 23.96484375,9.462890625 25.7958984375,9.814453125 26.513671875,10.810546875 26.0046367645264,11.84326171875 24.4775390625,12.36328125 22.60986328125,12.8503437042236 21.0791015625,13.7841796875 18.9111328125,16.5087890625 17.68798828125,18.6767597198486 15.6298828125,22.0458984375 13.3264150619507,25.477294921875 11.3671875,27.83203125 8.056640625,30.908203125 8.291015625,31.0546875 8.49609375,31.201171875 8.09155178070068,32.1380081176758 9.1845703125,31.0986328125 9.8876953125,29.94873046875 10.5029296875,29.3994140625 10.9844961166382,29.0505981445313 11.8579092025757,28.253173828125 13.1231679916382,27.0071411132813 14.7802734375,25.3125 18.035888671875,21.26220703125 20.390625,16.787109375 20.80078125,16.7578125 21.181640625,16.728515625 22.9614238739014,19.5813007354736 24.19921875,22.4560546875 24.9243144989014,25.433349609375 25.166015625,28.59375 25.048828125,30.6591796875 24.7265625,32.783203125 28.3740234375,31.0400390625 32.109375,29.443359375 32.109375,29.033203125 32.0068359375,26.630859375 31.904296875,23.232421875 32.1533203125,19.482421875 33.134765625,15.849609375 33.984375,15.9375 35.80078125,20.7421875 36.463623046875,23.14453125 36.8701171875,25.13671875 37.430419921875,27.29736328125 38.5546875,30.205078125 40.107421875,33.896484375 40.634765625,33.427734375 41.7919921875,34.7314453125 42.249755859375,35.775146484375 42.65625,37.353515625 42.919921875,37.353515625 42.0703125,34.658203125 40.9423828125,33.33984375 40.411376953125,32.7685546875 40.01953125,31.69921875 39.2578125,28.7255859375 38.4375,26.162109375 37.8515625,24.814453125 37.79296875,24.43359375 37.5732421875,20.80078125 36.5771484375,16.4501953125 35.68359375,14.6997089385986 34.5556640625,13.8134765625 31.7138671875,12.8466796875 30.516357421875,11.9421396255493 30.1171875,10.25390625 30.146484375,9.697265625 28.505859375,8.408203125 27.83203125,6.73828125 27.978515625,5.9619140625 28.2421875,5.185546875 28.30078125,4.951171875 28.330078125,4.74609375 28.212890625,4.39453125 27.978515625,4.5556640625 27.83203125,4.921875 27.509765625,5.068359375 27.216796875,5.21484375 25.224609375,4.39453125 24.140625,4.013671875z M28.330078125,0.9375L25.751953125,1.3623046875 24.8730449676514,2.003173828125 24.345703125,3.076171875 26.044921875,3.720703125 27.158203125,4.189453125 27.71484375,3.6767578125 28.41796875,3.486328125 29.033203125,3.75 29.326171875,4.599609375 29.0625,5.56640625 28.798828125,6.591796875 28.8427734375,7.0458984375 28.9453125,7.470703125 29.794921875,8.14453125 30.64453125,8.818359375 31.494140625,7.79296875 32.0068359375,6.4453125 32.255859375,4.8046875 32.0654296875,3.226318359375 31.494140625,2.0654296875 30.57861328125,1.322021484375 29.35546875,0.996093273162842 28.330078125,0.9375z M28.330078125,0L29.296875,0.05859375 31.17919921875,0.56396484375 32.373046875,1.669921875 33.01025390625,3.17138671875 33.22265625,4.86328125 32.666015625,7.6025390625 31.142578125,9.697265625 31.083984375,10.166015625 31.0546875,10.751953125 31.593017578125,11.693115234375 33.2080078125,12.2900390625 35.0830078125,12.9345722198486 36.4013671875,14.0185546875 37.342529296875,15.7617206573486 38.0859375,18.3837890625 38.73046875,24.4921875 40.1220703125,28.388671875 41.279296875,32.373046875 42.744140625,33.955078125 43.359375,35.39794921875 43.916015625,37.67578125 43.447265625,38.291015625 42.24609375,38.291015625 41.806640625,37.91015625 41.484375,36.328125 41.279296875,36.591796875 41.07421875,36.85546875 40.60546875,36.85546875 40.400390625,36.73828125 40.224609375,36.62109375 37.763671875,30.8056640625 36.54052734375,27.57568359375 35.7421875,24.3603515625 34.9072265625,21.002197265625 33.57421875,17.34375 33.017578125,20.0830078125 32.87109375,23.203125 32.87109375,25.546875 32.958984375,27.626953125 33.076171875,29.677734375 33.9990234375,32.34375 34.3359375,35.068359375 34.07958984375,37.27294921875 33.310546875,39.375 34.3212890625,39.990234375 35.09765625,40.810546875 35.830078125,41.689453125 36.89208984375,42.63427734375 38.0859375,43.0078125 39.873046875,43.447265625 39.90234375,43.76953125 39.990234375,44.12109375 39.287109375,44.6923828125 38.408203125,44.8828125 38.232421875,44.8828125 36.9287109375,44.7216796875 35.537109375,44.296875 34.130859375,43.7109375 32.724609375,43.1982421875 31.11328125,42.978515625 29.7244243621826,43.040771484375 27.9602031707764,43.2275390625 25.8206157684326,43.538818359375 23.3056640625,43.974609375 18.636474609375,44.7216796875 15.439453125,44.970703125 13.6962890625,44.47265625 13.125,42.94921875 13.3740224838257,41.55029296875 14.12109375,40.107421875 15.6005859375,38.45947265625 18.046875,36.4453125 16.0693359375,35.244140625 14.267578125,33.837890625 11.484375,38.0859375 8.73046875,42.333984375 8.759765625,42.392578125 8.876953125,42.94921875 8.935546875,43.53515625 8.4521484375,44.619140625 7.236328125,44.970703125 6.1669921875,44.7509765625 5.068359375,44.208984375 4.423828125,44.35546875 3.57421898841858,44.58984375 2.65136790275574,44.8095703125 1.69921898841858,44.912109375 0.585937738418579,44.6484375 0,43.681640625 0.439453125,43.125 3.36914086341858,42.36328125 6.181640625,41.19140625 7.734375,37.3388671875 9.580078125,33.603515625 11.044921875,30.9375 11.54296875,30.0732421875 12.01171875,29.4140625 10.3125,30.99609375 8.2763671875,33.5302734375 5.302734375,34.951171875 4.86328125,34.833984375 4.39453125,34.365234375 4.541015625,33.57421875 5.185546875,33.22265625 5.859375,32.900390625 5.7421875,32.900390625 5.56640625,32.666015625 5.361328125,32.490234375 5.361328125,31.787109375 8.759765625,29.0478515625 11.7041015625,26.0302734375 13.2202138900757,24.034423828125 15.1025390625,21.123046875 16.922607421875,18.0981464385986 18.251953125,15.76171875 19.482421875,14.0002460479736 21.005859375,12.7001953125 22.6171855926514,11.861572265625 24.111328125,11.484375 25.1879863739014,11.24267578125 25.546875,10.810546875 25.3125,10.546875 24.43359375,10.400390625 23.583984375,10.400390625 23.14453125,10.01953125 22.822265625,8.7890625 22.177734375,8.525390625 21.73828125,7.96875 21.8701171875,7.2509765625 22.20703125,6.591796875 22.587890625,5.9765625 22.55859375,5.9765625 23.0017070770264,4.844970703125 23.5693359375,2.6806640625 24.1030864715576,1.50787353515625 25.0744609832764,0.670166015625 26.4834575653076,0.16754150390625 28.330078125,0z" />
    </g>
  </g>
</svg>