<?xml version="1.0" encoding="utf-8"?>
<!DOCTYPE svg PUBLIC "-//W3C//DTD SVG 1.1//EN" "http://www.w3.org/Graphics/SVG/1.1/DTD/svg11.dtd">
<svg width="33.57421875" height="44.912109375" xmlns="http://www.w3.org/2000/svg" xmlns:xlink="http://www.w3.org/1999/xlink" xmlns:xml="http://www.w3.org/XML/1998/namespace" version="1.1">
  <g>
    <g>
      <path style="fill:#FF0000;fill-opacity:1" d="M17.548828125,32.080078125L17.490234375,32.16796875 19.541015625,36.943359375 21.2109375,41.89453125 21.15234375,42.333984375 20.126953125,43.330078125 18.92578125,43.88671875 19.951171875,43.740234375 20.595703125,43.53515625 20.859375,43.59375 21.123046875,43.681640625 21.826171875,43.9453125 22.1484375,43.76953125 22.44140625,43.53515625 22.03125,42.861328125 21.749267578125,41.971435546875 21.2548828125,39.8876953125 20.66162109375,37.44140625 20.0830078125,35.4638671875 18.603515625,32.138671875 17.548828125,32.080078125z M15.732421875,28.359375L15.322265625,28.681640625 15.05859375,29.091796875 15.146484375,30.380859375 13.76953125,41.25 13.740234375,41.71875 13.18359375,42.7880859375 11.6015625,43.4765625 11.89453125,43.447265625 12.71484375,43.6962890625 13.3666982650757,43.883056640625 14.443359375,43.9453125 14.47265625,43.681640625 14.296875,43.154296875 14.1796875,42.626953125 14.2822265625,41.8212890625 14.53125,40.78125 14.853515625,39.66796875 15.113525390625,38.6279296875 15.4833984375,37.08984375 15.955810546875,34.9365234375 16.5234375,32.05078125 16.669921875,31.728515625 16.875,31.46484375 17.87109375,31.11328125 18.1640625,31.142578125 17.75390625,30.205078125 16.8603515625,28.916015625 15.732421875,28.359375z M27.744140625,25.25390625L24.66796875,27.5390625 25.95703125,30.556640625 25.341796875,31.142578125 24.609375,30.791015625 21.2109375,29.2822265625 17.63671875,28.330078125 17.6953125,28.388671875 17.75390625,28.447265625 18.57421875,29.8095703125 19.248046875,31.318359375 21.73828125,32.607421875 24.140625,34.072265625 26.42578125,35.56640625 28.828125,36.826171875 29.970703125,36.533203125 31.201171875,36.04248046875 32.021484375,35.33203125 32.63671875,33.369140625 32.0654296875,30.8935546875 30.673828125,28.59375 28.41796875,26.07421875 28.18359375,25.810546875 27.744140625,25.25390625z M8.115234375,17.75390625L8.4375,18.662109375 9.697265625,20.33203125 9.43359375,19.833984375 8.935546875,19.013671875 8.4375,18.22265625 8.115234375,17.75390625z M19.16015625,14.6484375L18.046875,15.1904296875 16.787109375,16.8896484375 15.234375,19.189453125 12.744140625,23.056640625 12.1875,23.203125 10.6640615463257,22.276611328125 9.19921875,20.8447265625 8.09326171875,19.5227069854736 7.646484375,18.92578125 7.294921875,17.958984375 6.4306640625,17.0361328125 5.2734375,16.728515625 5.21484375,16.875 5.361328125,17.021484375 6.19629001617432,17.3583984375 6.826171875,17.900390625 6.97265625,18.10546875 7.236328125,18.896484375 6.474609375,18.8232421875 5.7421875,18.45703125 7.353515625,19.482421875 7.44140625,19.541015625 7.763671875,19.833984375 7.998046875,20.0390625 10.0634765625,22.2802734375 12.24609375,24.43359375 13.1323232650757,23.551025390625 14.560546875,22.0751953125 16.2158203125,20.5261249542236 17.783203125,19.423828125 18.076171875,19.51171875 18.33984375,19.5703125 21.3427734375,22.998046875 24.169921875,26.71875 27.158203125,24.4921875 26.1181621551514,22.97607421875 24.580078125,20.478515625 20.5078125,15.05859375 19.8046875,14.8095703125 19.16015625,14.6484375z M4.716796875,14.443359375L4.716796875,15.9375 4.98046875,15.76171875 6.650390625,16.318359375 7.91015625,17.314453125 7.32421875,16.435546875 5.84472751617432,15.5859375 4.716796875,14.443359375z M4.716796875,12.83203125L4.716796875,13.53515625 4.86328125,13.359375 5.15625,13.2421875 5.91796875,13.623046875 6.50390625,14.267578125 5.771484375,13.388671875 4.716796875,12.83203125z M5.65429782867432,12.275390625L6.9140625,13.2421875 7.55859375,14.6484375 7.353515625,15.029296875 7.0751953125,15.1611328125 6.826171875,15.263671875 7.32421875,15.52734375 7.8515625,15.8203125 8.173828125,16.2890625 9.140625,17.783203125 9.404296875,18.134765625 10.693359375,20.21484375 12.24609375,22.08984375 12.802734375,21.328125 11.2353515625,19.775390625 10.250244140625,18.6108417510986 9.0234375,17.05078125 8.0859375,15.8203125 7.939453125,15.234375 7.2802734375,13.5205078125 6.544189453125,12.6892099380493 5.65429782867432,12.275390625z M14.53125,11.044921875L15.41015625,11.630859375 14.8828125,11.865234375 14.443359375,11.953125 14.150390625,11.66015625 14.53125,11.044921875z M13.9453125,10.13671875L13.564453125,11.3671875 13.06640625,12.1142578125 12.7734375,12.919921875 13.18359375,13.037109375 13.59375,13.212890625 13.9453125,13.65234375 14.00390625,14.501953125 14.53125,14.619140625 15.439453125,14.5458984375 16.201171875,14.47265625 16.7431640625,14.501953125 17.28515625,14.58984375 17.6953125,14.1796875 17.16796875,13.857421875 16.611328125,13.505859375 16.46484375,13.0078125 16.40625,12.451171875 16.7578125,11.4697265625 17.138671875,11.1328125 17.16796875,11.07421875 17.080078125,10.6201171875 16.7578125,10.1953125 16.494140625,10.546875 16.2158203125,10.6787109375 15.87890625,10.83984375 15.46875,10.72265625 14.912109375,10.517578125 14.326171875,10.3125 13.9453125,10.13671875z M17.373046875,7.32421875L15.6591796875,7.8076171875 14.326171875,9.19921875 15.8203125,9.814453125 16.669921875,9.287109375 17.6220703125,9.7412109375 18.076171875,11.07421875 17.841796875,11.71875 17.28515625,12.099609375 17.373046875,12.919921875 17.841796875,13.212890625 18.955078125,13.740234375 20.44921875,14.0625 20.7861328125,12.59765625 20.947265625,11.103515625 20.679931640625,9.715576171875 19.8779296875,8.4814453125 18.717041015625,7.613525390625 17.373046875,7.32421875z M0.937500476837158,0.9375L0.937500476837158,14.6484375 2.34375047683716,14.6484375 2.57812523841858,14.8828125 2.84179759025574,15.1171875 2.84179759025574,23.642578125 3.77929711341858,23.642578125 3.77929711341858,4.3359375 4.21875,3.779296875 23.61328125,3.779296875 23.61328125,2.841796875 15.087890625,2.841796875 14.6484375,2.28515625 14.6484375,0.9375 0.937500476837158,0.9375z M0.439453482627869,0L15.087890625,0 15.322265625,0.234375 15.5859375,0.46875 15.5859375,1.904296875 24.052734375,1.904296875 24.287109375,2.138671875 24.55078125,2.373046875 24.55078125,4.248046875 24.287109375,4.482421875 24.052734375,4.716796875 4.716796875,4.716796875 4.716796875,11.71875 5.1708984375,11.4697265625 5.80078125,11.30859375 6.85546875,11.693115234375 7.91015625,12.8466796875 8.701171875,14.2639179229736 8.96484375,15.439453125 9.19921875,15.76171875 11.103515625,18.28125 13.30078125,20.5078125 14.8974609375,17.9150390625 16.669921875,15.439453125 14.619140625,15.556640625 13.4765625,15.2490234375 13.037109375,14.443359375 13.0078125,13.974609375 12.099609375,13.681640625 11.953125,13.41796875 11.806640625,13.154296875 12.2021484375,11.9091796875 12.919921875,10.751953125 13.154296875,9.814453125 13.7072744369507,8.463134765625 14.6630859375,7.3974609375 15.897216796875,6.705322265625 17.28515625,6.474609375 19.046630859375,6.807861328125 20.5224609375,7.8076171875 21.522216796875,9.305419921875 21.85546875,11.1328125 21.6943359375,12.8466796875 21.298828125,14.53125 23.2763671875,16.962890625 24.990234375,19.482421875 26.630859375,22.03125 28.4326152801514,24.54345703125 30.849609375,27.392578125 32.89306640625,30.35888671875 33.57421875,33.22265625 32.841796875,35.7275390625 30.673828125,37.3095703125 29.4946269989014,37.672119140625 28.828125,37.79296875 28.623046875,37.763671875 27.509765625,37.2802734375 25.869140625,36.328125 25.048828125,35.80078125 22.5439453125,34.1162109375 19.98046875,32.6953125 21.298828125,36.2109375 22.353515625,40.283203125 22.44140625,40.927734375 22.998046875,42.59765625 23.37890625,43.59375 22.8662109375,44.4580078125 21.6796875,44.82421875 21.1376953125,44.7509765625 20.625,44.501953125 20.189208984375,44.55322265625 19.2333984375,44.70703125 17.34375,44.912109375 16.23046875,44.6484375 15.5859375,44.033203125 16.025390625,43.4765625 16.56005859375,43.41064453125 17.87109375,43.212890625 19.3212890625,42.76611328125 20.2734375,41.953125 18.8525390625,37.7490234375 17.16796875,33.662109375 16.7578125,35.625 16.025390625,38.84765625 15.1171875,42.568359375 15.1171875,42.65625 15.205078125,42.919921875 15.322265625,43.18359375 15.439453125,43.828125 15.146484375,44.58984375 14.23828125,44.8828125 12.978515625,44.7509765625 12.099609375,44.4140625 9.0234375,44.8828125 8.701171875,44.853515625 8.1884765625,44.7509765625 7.763671875,44.47265625 7.646484375,44.267578125 7.55859375,44.033203125 7.763671875,43.7109375 7.998046875,43.4765625 9.0234375,43.2421875 11.1181640625,42.685546875 12.744140625,41.89453125 13.623046875,34.8046875 13.916015625,32.724609375 14.1796875,30.615234375 14.091796875,29.208984375 14.2968740463257,28.458251953125 14.912109375,27.8466796875 16.669921875,27.3046875 17.05078125,27.333984375 17.666015625,27.421875 18.720703125,27.65625 20.5078125,28.095703125 22.646484375,28.8720703125 24.7265625,29.794921875 22.763671875,26.337890625 19.8046875,22.646484375 17.87109375,20.478515625 16.45751953125,21.544189453125 14.912109375,23.0419921875 13.5424795150757,24.473876953125 12.65625,25.341796875 12.3046875,25.341796875 11.953125,25.400390625 10.7153310775757,24.345703125 9.345703125,22.880859375 8.02001953125,21.40869140625 6.9140625,20.33203125 5.712890625,19.8046875 4.716796875,18.662109375 4.716796875,24.111328125 4.453125,24.345703125 4.21875,24.580078125 2.34375047683716,24.580078125 1.90429711341858,24.0234375 1.90429711341858,15.5859375 0.439453482627869,15.5859375 0,15.029296875 0,0.556640625 0.439453482627869,0z" />
    </g>
  </g>
</svg>