<?xml version="1.0" encoding="utf-8"?>
<!DOCTYPE svg PUBLIC "-//W3C//DTD SVG 1.1//EN" "http://www.w3.org/Graphics/SVG/1.1/DTD/svg11.dtd">
<svg width="27.1875" height="46.845703125" xmlns="http://www.w3.org/2000/svg" xmlns:xlink="http://www.w3.org/1999/xlink" xmlns:xml="http://www.w3.org/XML/1998/namespace" version="1.1">
  <g>
    <g>
      <path style="fill:#FF0000;fill-opacity:1" d="M19.921875,23.056640625L19.541015625,23.4814453125 19.013671875,24.609375 18.22265625,26.689453125 17.75390625,27.978515625 18.45703125,28.2568359375 19.365234375,28.65234375 20.185546875,29.0625 20.68359375,29.326171875 21.650390625,26.30859375 21.97265625,24.755859375 21.767578125,24.17724609375 21.15234375,23.61328125 19.921875,23.056640625z M7.20703125,23.056640625L5.9619140625,23.61328125 5.357666015625,24.17724609375 5.15625,24.755859375 5.361328125,25.7666015625 5.80078125,27.3046875 6.4453125,29.326171875 8.61328125,28.30078125 9.375,27.978515625 8.90625,26.689453125 8.115234375,24.609375 7.763671875,23.818359375 7.44140625,23.2763671875 7.20703125,23.056640625z M5.595703125,19.130859375L4.541015625,20.185546875 2.65136694908142,22.2216796875 2.025146484375,23.045654296875 1.81640648841858,23.5546875 2.10937523841858,24.7412109375 2.81249976158142,26.689453125 4.21875,30.498046875 5.244140625,30.2490234375 5.5078125,29.82421875 5.15625,28.623046875 4.833984375,27.5390625 4.39453125,25.7373046875 4.189453125,24.404296875 4.54833984375,23.638916015625 5.625,22.8076171875 6.85546875,22.1594257354736 7.67578125,21.943359375 8.115234375,22.3828125 8.818359375,23.7890625 9.228515625,24.84375 10.283203125,27.71484375 11.513671875,27.48046875 11.6015625,28.41796875 9.7265625,28.798828125 6.4453125,30.263671875 6.123046875,30.9228515625 5.00976657867432,31.34765625 4.189453125,31.435546875 3.45703148841858,32.05078125 3.04687571525574,33.017578125 4.1015625,42.919921875 3.47167992591858,43.76953125 1.78710961341858,44.58984375 0.937500238418579,44.8828125 0.937500238418579,45.908203125 7.763671875,45.908203125 7.08984375,37.060546875 6.97265625,35.390625 6.9140625,34.453125 7.130126953125,34.09423828125 7.7783203125,33.720703125 9.873046875,33.017578125 11.25,32.6953125 12.83203125,32.373046875 12.83203125,44.560546875 13.0151357650757,45.5712890625 13.564453125,45.908203125 14.1137685775757,45.5712890625 14.296875,44.560546875 14.296875,32.373046875 15.849609375,32.6953125 17.2265625,33.017578125 19.365234375,33.75 19.98046875,34.1162109375 20.185546875,34.453125 20.15625,35.244140625 19.921875,38.525390625 19.74609375,40.576171875 19.3359375,45.908203125 26.25,45.908203125 26.25,44.8828125 25.400390625,44.58984375 24.609375,44.296875 23.49609375,43.681640625 22.998046875,42.919921875 24.08203125,33.017578125 23.6572265625,32.05078125 22.939453125,31.435546875 22.119140625,31.34765625 20.9912109375,30.908203125 20.68359375,30.263671875 17.34375,28.798828125 15.52734375,28.41796875 15.5859375,27.48046875 16.81640625,27.71484375 17.87109375,24.84375 18.310546875,23.7890625 18.984375,22.3828125 19.453125,21.943359375 20.2880859375,22.1594257354736 21.50390625,22.8076171875 22.5585918426514,23.638916015625 22.91015625,24.404296875 22.705078125,25.72265625 22.236328125,27.5390625 21.591796875,29.82421875 21.85546875,30.2490234375 22.880859375,30.498046875 23.49609375,28.9453125 24.3640117645264,26.715087890625 24.9169921875,25.1806640625 25.2136211395264,24.210205078125 25.3125,23.671875 24.9865703582764,23.031005859375 24.0087890625,21.8115234375 21.533203125,19.130859375 20.614013671875,20.1159687042236 18.9111328125,20.9033203125 16.519775390625,21.4196796417236 13.53515625,21.591796875 10.330810546875,21.3940448760986 7.9248046875,20.80078125 6.339111328125,19.9877948760986 5.595703125,19.130859375z M10.576171875,17.080078125L15.8203125,17.080078125 15.8203125,18.017578125 10.576171875,18.017578125 10.576171875,17.080078125z M12.802734375,12.568359375L13.740234375,12.568359375 13.740234375,15.380859375 12.802734375,15.380859375 12.802734375,12.568359375z M16.81640625,10.8984375L17.6220703125,11.220703125 17.9296875,12.041015625 17.6220703125,12.8466796875 16.81640625,13.154296875 15.99609375,12.8466796875 15.673828125,12.041015625 15.99609375,11.220703125 16.81640625,10.8984375z M10.3125,10.8984375L11.103515625,11.220703125 11.42578125,12.041015625 11.103515625,12.8466796875 10.3125,13.154296875 9.4921875,12.8466796875 9.169921875,12.041015625 9.4921875,11.220703125 10.3125,10.8984375z M20.5078125,10.693359375L20.625,13.154296875 21.2548828125,12.71484375 21.533203125,11.923828125 21.1962890625,11.1328125 20.5078125,10.693359375z M6.62109375,10.693359375L5.9033203125,11.1328125 5.595703125,11.923828125 5.8740234375,12.71484375 6.474609375,13.154296875 6.62109375,10.693359375z M7.646484375,9.4921875L7.353515625,13.388671875 7.152099609375,14.007568359375 6.5478515625,15.0439453125 5.943603515625,16.1022968292236 5.7421875,16.787109375 5.80078125,17.40234375 5.91796875,17.9296875 6.005859375,18.1640625 6.09375,18.3984375 6.357421875,18.779296875 6.708984375,17.34375 7.55859375,17.63671875 7.03125,19.365234375 7.7490234375,19.7900390625 8.90625,20.185546875 8.583984375,18.193359375 9.521484375,18.193359375 9.755859375,20.361328125 10.6494140625,20.5078125 11.71875,20.625 11.25,18.984375 12.158203125,18.984375 12.65625,20.654296875 14.443359375,20.654296875 14.94140625,18.984375 15.849609375,18.984375 15.380859375,20.625 16.494140625,20.5078125 17.373046875,20.361328125 17.607421875,18.193359375 18.515625,18.193359375 18.22265625,20.185546875 19.365234375,19.7900390625 20.068359375,19.365234375 19.5703125,17.63671875 20.390625,17.34375 20.7421875,18.779296875 20.9326171875,18.544921875 21.03515625,18.3984375 21.09375,18.1640625 21.181640625,17.9296875 21.298828125,17.40234375 21.357421875,16.787109375 21.15966796875,16.1169452667236 20.56640625,15.0439453125 19.97314453125,13.992919921875 19.775390625,13.388671875 19.423828125,9.4921875 7.646484375,9.4921875z M8.203125,8.3203125L7.96875,8.759765625 19.1015625,8.759765625 18.8671875,8.3203125 8.203125,8.3203125z M18.544921875,1.376953125L18.310546875,1.90429735183716 17.578125,3.369140625 16.81640625,5.5517578125 16.5234375,7.587890625 18.515625,7.587890625 18.984375,6.826171875 20.1416015625,4.6875 20.595703125,3.369140625 20.0830078125,2.138671875 18.544921875,1.376953125z M8.5546875,1.376953125L7.03857421875,2.138671875 6.533203125,3.369140625 6.9873046875,4.6875 8.173828125,6.826171875 8.61328125,7.587890625 10.576171875,7.587890625 10.283203125,5.5517578125 9.55078125,3.369140625 8.818359375,1.90429735183716 8.5546875,1.376953125z M13.564453125,0.9375L11.3525390625,0.981445789337158 9.55078125,1.14257860183716 10.166015625,2.40234375 11.220703125,5.390625 11.572265625,7.587890625 15.556640625,7.587890625 15.8935546875,5.4345703125 16.962890625,2.40234375 17.548828125,1.14257860183716 15.7763671875,0.981445789337158 13.564453125,0.9375z M13.564453125,0L17.08740234375,0.179443359375 19.5703125,0.7177734375 21.04248046875,1.739501953125 21.533203125,3.369140625 21.123046875,4.7900390625 20.21484375,6.6796875 19.658203125,7.734375 20.068359375,8.232421875 20.361328125,8.701171875 20.5078125,9.111328125 20.5078125,9.66796875 21.005859375,9.9609375 21.474609375,10.3125 22.1630859375,11.044921875 22.470703125,11.923828125 21.943359375,13.1689453125 20.9765625,13.974609375 21.62109375,15.146484375 22.08984375,16.083984375 22.294921875,16.787109375 22.236328125,17.63671875 22.08984375,18.3984375 23.203125,19.51171875 24.169921875,20.56640625 24.931640625,21.4453125 25.9130859375,22.7490234375 26.25,23.5546875 26.0156230926514,24.5947265625 25.3125,26.71875 24.4628887176514,29.091796875 23.7890625,30.87890625 24.404296875,31.69921875 25.01953125,33.10546875 24.0234375,42.392578125 24.2980937957764,42.919921875 25.1220703125,43.388671875 27.1875,43.9453125 27.1875,46.845703125 18.310546875,46.845703125 18.6328125,43.2421875 18.92578125,39.43359375 19.1455078125,36.4453125 19.222412109375,35.33203125 19.248046875,34.8046875 19.04296875,34.65087890625 18.427734375,34.423828125 16.552734375,33.896484375 15.234375,33.57421875 15.234375,44.560546875 14.765625,46.2890625 13.564453125,46.845703125 12.36328125,46.2890625 11.89453125,44.560546875 11.89453125,33.57421875 10.576171875,33.896484375 8.96484375,34.3359375 8.1298828125,34.6142578125 7.8515625,34.8046875 7.91015625,35.595703125 8.02734375,37.236328125 8.7890625,46.845703125 0,46.845703125 0,43.9453125 0.384521692991257,43.8720703125 1.53808617591858,43.53515625 2.69165062904358,43.01513671875 3.07617211341858,42.392578125 2.10937523841858,33.10546875 2.373046875,32.2119140625 3.01757836341858,31.259765625 3.33984398841858,30.87890625 2.66601586341858,29.091796875 1.40625,25.6201171875 1.01074242591858,24.290771484375 0.87890625,23.5546875 1.12060570716858,22.877197265625 1.845703125,21.8408203125 3.12744140625,20.3723163604736 5.0390625,18.3984375 4.8779296875,17.6513671875 4.8046875,16.787109375 5.00976657867432,16.083984375 5.478515625,15.146484375 5.80078125,14.58984375 6.15234375,13.974609375 5.185546875,13.1689453125 4.658203125,11.923828125 5.185546875,10.72265625 6.5625,9.66796875 6.591796875,9.345703125 6.591796875,9.111328125 6.8994140625,8.4228515625 7.470703125,7.734375 6.9140625,6.6796875 6.005859375,4.7900390625 5.595703125,3.369140625 6.08642578125,1.739501953125 7.55859375,0.7177734375 10.04150390625,0.179443359375 13.564453125,0z" />
    </g>
  </g>
</svg>