<?xml version="1.0" encoding="utf-8"?>
<!DOCTYPE svg PUBLIC "-//W3C//DTD SVG 1.1//EN" "http://www.w3.org/Graphics/SVG/1.1/DTD/svg11.dtd">
<svg width="31.552734375" height="44.82421875" xmlns="http://www.w3.org/2000/svg" xmlns:xlink="http://www.w3.org/1999/xlink" xmlns:xml="http://www.w3.org/XML/1998/namespace" version="1.1">
  <g>
    <g>
      <path style="fill:#FF0000;fill-opacity:1" d="M22.79296875,34.16015625L22.880859375,36.064453125 23.02734375,37.236328125 23.232421875,38.4375 23.49609375,40.25390625 23.583984375,41.07421875 23.61328125,41.865234375 23.37890625,42.861328125 22.353515625,43.41796875 21.708984375,43.6376953125 21.298828125,43.798828125 22.44140625,43.59375 22.8076171875,43.5498046875 23.115234375,43.53515625 23.642578125,43.681640625 24.19921875,43.828125 24.609375,43.447265625 24.5361328125,43.3154296875 24.404296875,43.18359375 24.228515625,43.06640625 24.08203125,41.6748046875 23.935546875,39.84375 23.84765625,37.79296875 23.7890625,35.7421875 23.7744140625,34.9658203125 23.701171875,34.16015625 22.79296875,34.16015625z M18.486328125,34.16015625L18.134765625,36.0205078125 18.046875,37.734375 17.8125,40.25390625 17.138671875,42.65625 16.435546875,43.04443359375 15.263671875,43.447265625 14.1650390625,43.7548828125 13.59375,43.916015625 13.88671875,43.9013671875 14.23828125,43.857421875 15.703125,43.59375 16.0107421875,43.5498046875 16.23046875,43.53515625 16.5087890625,43.65234375 16.904296875,43.828125 17.52685546875,43.55712890625 17.75390625,42.744140625 17.9443359375,41.2939453125 18.427734375,39.08203125 19.39453125,34.16015625 18.486328125,34.16015625z M23.14453125,24.931640625L20.009765625,25.341796875 18.69140625,33.22265625 23.642578125,33.22265625 23.84765625,31.58203125 23.8916015625,30.6884765625 23.935546875,29.501953125 23.759765625,26.865234375 23.14453125,24.931640625z M24.697265625,20.2734375L22.4560546875,21.123046875 20.068359375,22.001953125 20.185546875,22.8369140625 20.244140625,23.291015625 20.2294921875,23.61328125 20.185546875,23.96484375 20.126953125,24.375 23.0859375,23.994140625 23.96484375,22.236328125 24.375,21.26953125 24.697265625,20.2734375z M9.404296875,19.951171875L10.3125,20.44921875 10.4296875,20.126953125 9.404296875,19.951171875z M18.720703125,19.892578125L18.251953125,20.185546875 17.783203125,20.44921875 18.076171875,20.44921875 18.4423828125,20.361328125 18.75,20.2734375 18.720703125,19.892578125z M25.078125,17.841796875L22.32421875,19.541015625 19.775390625,20.859375 18.7060546875,21.0791015625 17.255859375,21.15234375 13.740234375,21.15234375 13.30078125,21.03515625 12.65625,20.537109375 12.451171875,20.390625 12.275390625,20.21484375 11.953125,19.921875 11.748046875,19.921875 12.3046875,20.625 11.044921875,20.625 11.5869140625,20.8740234375 12.421875,21.1669921875 13.2421875,21.4013671875 13.7109375,21.50390625 14.3701171875,21.50390625 15.732421875,21.474609375 17.28515625,21.4453125 18.544921875,21.4453125 19.4384765625,21.328125 21.298828125,20.712890625 22.3828125,20.185546875 23.525390625,19.7021484375 24.84375,19.248046875 24.9609375,18.662109375 25.048828125,18.22265625 25.078125,17.841796875z M0.9375,17.783203125L0.9375,18.6328125 10.72265625,18.6328125 10.72265625,17.783203125 0.9375,17.783203125z M20.888671875,10.634765625L21.591796875,10.78125 20.712890625,11.19140625 20.5078125,10.95703125 20.888671875,10.634765625z M21.09375,10.166015625L20.888671875,10.1953125 20.654296875,10.25390625 20.361328125,10.3125 19.951171875,11.015625 19.775390625,11.279296875 19.62890625,11.54296875 20.009765625,11.89453125 20.009765625,12.802734375 20.44921875,12.861328125 20.91796875,13.18359375 21.26953125,14.736328125 21.15234375,15.3076171875 21.005859375,15.5859375 20.654296875,16.0546875 19.15283203125,16.5893573760986 17.8125,17.666015625 16.69189453125,18.8085956573486 15.849609375,19.541015625 14.267578125,20.478515625 15.732421875,20.478515625 16.0107421875,20.36865234375 16.787109375,20.0390625 18.80859375,18.57421875 19.599609375,18.92578125 19.658203125,19.98046875 21.0791015625,19.3505859375 22.529296875,18.45703125 23.8916015625,17.5341796875 24.9609375,16.875 24.1992168426514,16.1206073760986 23.37890625,15.791015625 23.02734375,15.615234375 22.5439453125,15.1025390625 22.3828125,13.88671875 21.97265625,13.06640625 22.236328125,12.421875 22.9248046875,11.4697265625 23.203125,10.6640625 23.14453125,10.517578125 22.96875,10.576171875 22.763671875,10.78125 21.97265625,10.72265625 21.533203125,10.2685546875 21.09375,10.166015625z M20.15625,7.060546875L20.478515625,9.287109375 20.80078125,9.19921875 21.09375,9.140625 21.38671875,9.111328125 21.826171875,9.2138671875 22.177734375,9.462890625 22.5,9.814453125 22.91015625,9.638671875 23.2177734375,9.5068359375 23.49609375,9.43359375 24.169921875,9.7412109375 24.375,10.576171875 24.0380859375,11.513671875 23.0859375,12.978515625 23.5107421875,12.4951171875 23.90625,12.01171875 24.580078125,11.162109375 24.873046875,10.7373046875 25.078125,10.4150390625 25.25390625,10.078125 25.48828125,9.638671875 26.77734375,7.060546875 20.15625,7.060546875z M20.625,0L21.8701171875,0.4541015625 22.3828125,1.640625 22.0751953125,2.607421875 21.2109375,3.017578125 20.5224609375,2.841796875 20.068359375,2.28515625 20.478515625,1.845703125 20.7421875,2.109375 21.09375,2.2265625 21.4453125,1.69921875 21.2548828125,1.11328125 20.625,0.849609375 19.8486328125,1.23046875 19.541015625,2.080078125 20.11962890625,3.4423828125 21.85546875,4.423828125 23.291015625,4.921875 24.931640625,5.478515625 26.8359375,6.15234375 30.615234375,0.29296875 31.552734375,0.29296875 30.498046875,2.2265625 29.501953125,4.04296875 28.505859375,5.859375 27.1728515625,8.408203125 26.279296875,10.3125 25.2026348114014,12.0483407974243 23.3203125,13.974609375 23.4960918426514,14.8608417510986 24.0234375,15.234375 25.3125,16.0693359375 25.8984375,17.98828125 25.400390625,20.9619140625 23.90625,24.404296875 24.66796875,26.806640625 24.873046875,29.765625 24.814453125,31.40625 24.66796875,32.783203125 24.55078125,33.69140625 24.609375,34.4677734375 24.638671875,35.21484375 24.697265625,39.873046875 24.7998027801514,41.5869140625 24.990234375,42.744140625 25.400390625,43.18359375 25.546875,43.65234375 25.1953125,44.443359375 24.2578125,44.765625 23.642578125,44.58984375 23.02734375,44.296875 20.5078125,44.765625 20.068359375,44.384765625 20.0244140625,44.150390625 20.009765625,44.00390625 20.009765625,43.857421875 20.4345703125,43.4326171875 21.03515625,43.18359375 22.177734375,42.744140625 22.79296875,42.216796875 22.353515625,38.14453125 22.001953125,36.0791015625 21.85546875,34.16015625 20.361328125,34.16015625 20.185546875,35.185546875 19.8046875,37.0751953125 19.27734375,38.96484375 18.80859375,40.8837890625 18.544921875,42.861328125 18.08349609375,44.33349609375 17.05078125,44.82421875 16.640625,44.70703125 16.23046875,44.35546875 15.849609375,44.3701171875 15.52734375,44.4140625 14.326171875,44.6484375 14.0185546875,44.6923828125 13.65234375,44.70703125 12.451171875,44.501953125 12.216796875,43.828125 12.333984375,43.59375 14.0771484375,43.1982421875 16.318359375,42.1875 16.6845703125,41.3232421875 16.962890625,40.400390625 17.138671875,39.1845703125 17.197265625,37.529296875 17.4609375,34.658203125 17.958984375,31.9482421875 18.486328125,28.7109375 19.04296875,25.3125 18.369140625,25.3125 17.431640625,25.078125 17.109375,24.462890625 17.3583984375,23.9501953125 17.958984375,23.759765625 18.310546875,23.8330078125 18.720703125,23.96484375 19.21875,24.169921875 19.248046875,23.90625 19.306640625,23.37890625 19.16015625,22.20703125 17.138671875,22.294921875 15.439453125,22.32421875 12.7294912338257,22.1337890625 10.869140625,21.5625 9.4482421875,20.7861328125 7.91015625,19.98046875 6.09375,20.2734375 5.126953125,20.126953125 4.27734375,19.5703125 0.439453125,19.5703125 0,19.013671875 0,17.40234375 0.439453125,16.845703125 4.775390625,16.845703125 4.775390625,15.322265625 4.8046875,14.7802734375 4.9365234375,14.1943359375 5.2587890625,13.7255859375 5.859375,13.53515625 6.60644483566284,13.9746112823486 6.85546875,15.29296875 6.85546875,16.845703125 11.162109375,16.845703125 11.66015625,17.314453125 11.66015625,19.1015625 13.53515625,19.98046875 14.97802734375,19.1088886260986 16.611328125,17.607421875 18.15673828125,16.1499042510986 19.27734375,15.46875 20.00244140625,15.2270526885986 20.302734375,15.087890625 20.361328125,14.736328125 20.15625,13.798828125 19.3798828125,13.505859375 19.072265625,12.59765625 19.072265625,12.36328125 18.837890625,12.0703125 18.603515625,11.806640625 18.984375,10.78125 19.541015625,9.90234375 19.4091796875,8.2763671875 19.072265625,6.6796875 19.51171875,6.123046875 24.0234375,6.123046875 23.1884765625,5.8154296875 21.181640625,5.068359375 19.248046875,3.87451171875 18.603515625,2.28515625 19.1455078125,0.703125 20.625,0z" />
    </g>
  </g>
</svg>