<?xml version="1.0" encoding="utf-8"?>
<!DOCTYPE svg PUBLIC "-//W3C//DTD SVG 1.1//EN" "http://www.w3.org/Graphics/SVG/1.1/DTD/svg11.dtd">
<svg width="27.59765625" height="44.4140625" xmlns="http://www.w3.org/2000/svg" xmlns:xlink="http://www.w3.org/1999/xlink" xmlns:xml="http://www.w3.org/XML/1998/namespace" version="1.1">
  <g>
    <g>
      <path style="fill:#FF0000;fill-opacity:1" d="M7.939453125,32.34375L7.822265625,32.4609375 7.763671875,32.6953125 7.412109375,34.541015625 6.35742282867432,37.44140625 4.97314453125,40.34912109375 3.63281273841858,42.216796875 4.74609375,41.953125 5.009765625,41.953125 5.2734375,42.01171875 5.068359375,41.455078125 5.068359375,40.927734375 5.625,40.048828125 6.26953125,39.08203125 7.646484375,36.240234375 8.232421875,33.720703125 8.0126953125,33.076171875 7.939453125,32.490234375 7.939453125,32.34375z M9.990234375,30.8203125L9.169921875,31.494140625 8.935546875,32.34375 9.08203125,33.28125 9.287109375,34.130859375 9.580078125,36.533203125 9.814453125,38.90625 9.521484375,40.224609375 8.73046875,41.455078125 9.43359375,41.162109375 10.224609375,41.044921875 10.400390625,40.95703125 10.3125,40.517578125 10.25390625,40.1806640625 10.1953125,39.873046875 10.1953125,39.462890625 10.2978515625,37.44140625 10.458984375,35.33203125 10.576171875,34.189453125 10.634765625,33.017578125 10.5029296875,31.8603515625 9.990234375,30.8203125z M22.5,20.09765625L22.3828125,20.244140625 22.060546875,20.771484375 23.90625,23.173828125 25.634765625,25.693359375 25.693359375,26.1328125 24.4921875,28.974609375 23.3203125,31.81640625 22.939453125,32.314453125 22.44140625,33.603515625 23.14453125,33.1640625 23.291015625,33.193359375 23.6242656707764,32.706298828125 23.9794921875,31.2451171875 24.8181133270264,29.051513671875 26.6015625,26.3671875 24.9609375,22.9541015625 22.5,20.09765625z M11.07421875,15.99609375L10.25390625,16.611328125 9.580078125,17.4609375 8.1591796875,19.27734375 6.4453125,21.50390625 6.181640625,21.884765625 5.6982421875,22.6171875 5.5078125,23.173828125 5.85937595367432,23.3935546875 6.650390625,23.466796875 8.056640625,23.206787109375 10.224609375,22.4267578125 14.765625,20.302734375 14.6630859375,19.921875 14.560546875,19.541015625 10.7958984375,21.240234375 7.08984375,23.056640625 6.416015625,22.44140625 7.353515625,20.9765625 8.37890625,19.599609375 9.345703125,18.2373046875 10.1953125,16.787109375 10.37109375,16.669921875 10.576171875,16.552734375 10.986328125,16.552734375 11.396484375,16.5234375 11.07421875,15.99609375z M16.669921875,12.919921875L17.373046875,13.06640625 16.494140625,13.4765625 16.2890625,13.2421875 16.669921875,12.919921875z M16.875,12.451171875L16.611328125,12.48046875 16.142578125,12.59765625 15.732421875,13.30078125 15.556640625,13.564453125 15.41015625,13.828125 15.791015625,14.1796875 15.791015625,15.087890625 16.23046875,15.146484375 16.69921875,15.46875 17.05078125,17.021484375 16.69921875,18.57421875 16.376953125,18.896484375 15.439453125,19.189453125 15.64453125,19.716796875 15.76171875,20.21484375 16.3916015625,22.67578125 16.640625,25.13671875 16.4501953125,27.0703125 15.76171875,28.974609375 15.439453125,29.296875 13.18359375,29.8828125 10.927734375,30.498046875 11.3232421875,31.2451171875 11.513671875,32.080078125 15.2197265625,31.640625 19.27734375,31.23046875 20.09765625,28.0517578125 20.5078125,23.525390625 20.82275390625,21.49658203125 21.064453125,20.56640625 21.6796875,19.62890625 20.965576171875,19.2846698760986 19.7021484375,18.720703125 18.548583984375,17.7465839385986 18.1640625,16.171875 17.75390625,15.3515625 18.017578125,14.70703125 18.7060546875,13.7548828125 18.984375,12.94921875 18.92578125,12.802734375 18.75,12.861328125 18.544921875,13.06640625 17.75390625,13.0078125 17.314453125,12.5537109375 16.875,12.451171875z M15.9375,9.052734375L16.0546875,9.697265625 16.171875,10.546875 16.259765625,11.572265625 16.46484375,11.484375 16.7578125,11.42578125 17.16796875,11.396484375 17.783203125,11.6162109375 18.28125,12.099609375 18.603515625,11.923828125 18.92578125,11.77734375 19.27734375,11.71875 19.951171875,12.0263671875 20.15625,12.861328125 19.8193359375,13.8134765625 18.8671875,15.263671875 19.6875,14.296875 20.361328125,13.447265625 20.9033203125,12.6708984375 21.26953125,11.89453125 21.826171875,10.6640625 22.55859375,9.052734375 15.9375,9.052734375z M26.66015625,0L27.59765625,0 24.4921875,7.1484375 21.9140625,12.978515625 20.6689453125,14.6923828125 19.1015625,16.259765625 19.833984375,17.7392578125 21.796875,18.662109375 23.1408672332764,19.4421405792236 24.7119140625,21.0791015625 26.2683086395264,23.419189453125 27.568359375,26.30859375 27.509765625,26.748046875 25.927734375,28.916015625 24.638671875,32.197265625 24.0966777801514,33.66943359375 23.232421875,34.16015625 22.7416973114014,34.75341796875 21.9140625,34.951171875 21.474609375,34.39453125 22.0751953125,31.9775390625 22.5109844207764,31.31103515625 22.6171875,31.0400390625 22.8222637176514,30.413818359375 23.5546875,28.681640625 24.7265625,26.015625 23.291015625,23.90625 21.708984375,21.884765625 21.0498046875,27.4951171875 20.738525390625,29.981689453125 19.951171875,31.962890625 19.6875,32.138671875 15.615234375,32.548828125 11.54296875,33.046875 11.513671875,34.21875 11.396484375,35.419921875 11.19140625,37.734375 11.07421875,40.078125 11.396484375,41.1328125 11.0998525619507,41.715087890625 10.2099609375,41.9970703125 8.3642578125,42.8466796875 7.08984375,43.857421875 6.650390625,43.916015625 6.26953125,43.7109375 6.123046875,43.271484375 6.4013671875,42.7294921875 7.060546875,41.865234375 7.79296875,41.015625 8.7744140625,39.5654296875 8.935546875,38.73046875 8.84765625,37.32421875 8.61328125,36.15234375 7.2216796875,39.111328125 6.441650390625,40.30517578125 5.947265625,41.07421875 6.2109375,41.982421875 6.005859375,42.7001953125 5.244140625,43.0078125 4.21875,43.0078125 3.702392578125,43.22021484375 2.79785180091858,43.740234375 0.644531726837158,44.4140625 0.35156261920929,44.296875 0,43.564453125 0.117187976837158,43.18359375 0.585937976837158,43.0078125 3.19335961341858,41.2646484375 4.29931640625,39.744873046875 5.33203125,37.6171875 6.156005859375,35.379638671875 6.6357421875,33.5302734375 7.042236328125,32.091064453125 7.646484375,31.083984375 8.85498046875,30.3076171875 11.07421875,29.560546875 15,28.447265625 15.5712890625,26.806640625 15.732421875,25.13671875 15.5419921875,23.115234375 15.05859375,21.123046875 12.1032705307007,22.58056640625 9.6826171875,23.61328125 7.781982421875,24.228515625 6.38671875,24.43359375 5.15625,24.111328125 4.658203125,23.173828125 5.11962890625,21.92138671875 6.50390625,19.921875 8.155517578125,17.8271503448486 9.4189453125,16.2890625 10.389404296875,15.3442401885986 11.162109375,15.029296875 12.041015625,15.703125 12.65625,15.556640625 13.06640625,15.615234375 13.41796875,16.0546875 12.7294921875,17.1240234375 10.869140625,17.490234375 9.5068359375,19.5703125 8.056640625,21.533203125 11.3671875,19.951171875 14.677734375,18.45703125 15.29296875,18.251953125 15.908203125,18.046875 16.142578125,17.021484375 15.9375,16.083984375 15.17578125,15.791015625 14.853515625,14.8828125 14.853515625,14.6484375 14.82421875,14.6484375 14.384765625,14.091796875 14.501953125,13.5498046875 14.794921875,13.06640625 15.087890625,12.59765625 15.322265625,12.1875 15.1904296875,10.4150390625 14.853515625,8.671875 15.29296875,8.115234375 19.8046875,8.115234375 17.49755859375,7.03857421875 15.791015625,5.80078125 14.736328125,4.39453125 14.384765625,2.8125 14.9267578125,1.23046875 16.40625,0.52734375 17.6513671875,0.9814453125 18.1640625,2.16796875 17.8564453125,3.134765625 16.9921875,3.544921875 16.3037109375,3.369140625 15.849609375,2.8125 16.259765625,2.373046875 16.5234375,2.63671875 16.875,2.75390625 17.2265625,2.2265625 17.0361328125,1.640625 16.40625,1.376953125 15.6298828125,1.7578125 15.322265625,2.607421875 15.662841796875,4.046630859375 16.6845703125,5.3173828125 17.5662231445313,5.93902587890625 18.848876953125,6.617431640625 20.5325317382813,7.35260009765625 22.6171875,8.14453125 26.66015625,0z" />
    </g>
  </g>
</svg>