<?xml version="1.0" encoding="utf-8"?>
<!DOCTYPE svg PUBLIC "-//W3C//DTD SVG 1.1//EN" "http://www.w3.org/Graphics/SVG/1.1/DTD/svg11.dtd">
<svg width="29.560546875" height="45.087890625" xmlns="http://www.w3.org/2000/svg" xmlns:xlink="http://www.w3.org/1999/xlink" xmlns:xml="http://www.w3.org/XML/1998/namespace" version="1.1">
  <g>
    <g>
      <path style="fill:#FF0000;fill-opacity:1" d="M26.455078125,32.724609375L26.42578125,33.1640625 26.5795879364014,34.62158203125 27.041015625,36.474609375 27.65625,40.546875 27.6123046875,41.66015625 27.451171875,42.802734375 27.12890625,43.125 26.337890625,43.388671875 25.4296875,43.65234375 24.521484375,43.916015625 23.701171875,44.1796875 25.2099609375,43.9306640625 26.923828125,43.740234375 27.509765625,43.9306640625 28.095703125,44.091796875 28.505859375,43.9892578125 28.681640625,43.65234375 28.330078125,42.3046875 28.271484375,39.9169921875 28.18359375,37.529296875 28.154296875,36.943359375 27.978515625,34.951171875 27.71484375,33.8525390625 27.48046875,32.724609375 26.455078125,32.724609375z M24.052734375,32.548828125L23.8183574676514,35.130615234375 23.232421875,38.1298828125 22.6171875,40.740966796875 22.294921875,42.158203125 22.470703125,42.919921875 22.529296875,43.7109375 24.580078125,43.0224609375 26.6015625,42.3046875 26.71875,41.5283203125 26.748046875,40.751953125 26.572265625,38.90625 26.162109375,37.001953125 25.7373046875,34.9365234375 25.546875,32.6953125 24.052734375,32.548828125z M22.060546875,32.314453125L21.6064453125,34.3359375 21.416015625,36.38671875 21.298828125,38.466796875 21.005859375,40.546875 20.888671875,41.19140625 20.533447265625,42.451171875 20.0537109375,43.06640625 19.097900390625,43.4326171875 17.314453125,43.9453125 16.083984375,44.267578125 16.93359375,44.150390625 18.017578125,43.974609375 19.04296875,43.828125 19.6875,43.76953125 20.478515625,43.9306640625 21.298828125,44.091796875 21.4453125,44.00390625 21.62109375,43.740234375 21.328125,42.099609375 21.6943359375,40.308837890625 22.32421875,37.6904296875 22.9101543426514,34.866943359375 23.14453125,32.4609375 22.587890625,32.40234375 22.060546875,32.314453125z M28.0078125,19.16015625L24.0234375,20.771484375 22.96875,23.466796875 21.09375,28.30078125 20.0390625,30.9375 23.203125,31.5380859375 25.1074199676514,31.724853515625 27.421875,31.787109375 27.568359375,29.53125 28.18359375,24.4921875 28.330078125,22.353515625 28.212890625,20.7568359375 28.0078125,19.16015625z M10.8984375,4.775390625L10.8984375,10.546875 12.3046875,10.546875 12.3046875,15.29296875 10.8984375,15.29296875 10.8984375,21.09375 11.806640625,21.09375 13.2751455307007,20.66162109375 15.3955078125,19.365234375 17.296142578125,18.0322284698486 18.10546875,17.490234375 18.92578125,15.263671875 19.892578125,13.095703125 19.21875,13.125 17.16796875,13.2421875 16.11328125,13.271484375 14.91943359375,13.1469745635986 14.326171875,12.7734375 13.8317861557007,11.729736328125 12.9345703125,9.5947265625 11.337890625,4.775390625 10.8984375,4.775390625z M22.353515625,4.21875L23.115234375,4.5703125 22.353515625,4.951171875 22.08984375,4.5703125 22.353515625,4.21875z M2.34375,3.779296875L2.34375,42.685546875 9.9609375,42.685546875 9.9609375,3.779296875 2.34375,3.779296875z M24.66796875,3.486328125L24.3603515625,3.69140625 24.052734375,4.04296875 21.650390625,3.837890625 21.533203125,4.27734375 21.357421875,4.716796875 21.15234375,5.0390625 20.888671875,5.33203125 21.5478515625,5.947265625 21.796875,6.796875 23.291015625,7.236328125 23.701171875,8.056640625 23.2763671875,9.111328125 21.97265625,10.13671875 21.064453125,12.7734375 19.921875,15.322265625 19.339599609375,16.7175312042236 19.0576171875,17.5634765625 18.5595703125,18.2666015625 17.2265625,19.04296875 15.615234375,20.15625 13.9599609375,21.2109375 12.3046875,22.001953125 12.3046875,22.5 14.12109375,21.4453125 15.22705078125,20.892333984375 16.904296875,20.2294921875 18.603515625,19.3762226104736 19.775390625,18.251953125 21.09375,15.8203125 21.796875,13.65234375 21.796875,13.623046875 22.001953125,13.65234375 22.734375,13.740234375 23.3203125,16.7724609375 23.7963848114014,18.3068866729736 24.052734375,19.248046875 24.140625,19.716796875 26.044921875,18.9697265625 27.94921875,18.193359375 27.890625,16.69921875 27.8540019989014,15.6591815948486 27.744140625,13.53515625 27.0556621551514,11.03759765625 25.283203125,8.876953125 25.13671875,8.4375 25.2978515625,7.646484375 25.693359375,6.97265625 24.580078125,6.1962890625 23.994140625,5.009765625 24.111328125,4.62890625 24.66796875,3.486328125z M11.6015625,1.46484375L11.162109375,1.5966796875 10.869140625,1.904296875 11.806640625,1.904296875 11.8359375,3.837890625 12.24609375,4.951171875 12.568359375,5.888671875 13.65234375,8.84765625 14.3115234375,10.6494140625 15.234375,12.3046875 15.6005859375,12.333984375 16.11328125,12.36328125 17.16796875,12.333984375 19.453125,12.216796875 20.302734375,12.158203125 20.56640625,11.396484375 20.830078125,10.634765625 18.3251953125,11.396484375 15.76171875,11.8359375 15.17578125,11.455078125 14.31884765625,8.53271484375 13.388671875,6.38671875 12.6489248275757,5.0390625 12.36328125,4.51171875 12.333984375,4.27734375 12.333984375,4.04296875 12.36328125,3.515625 12.392578125,2.4609375 12.2021484375,1.7578125 11.6015625,1.46484375z M24.580078125,0.9375L22.939453125,1.34765625 22.3828125,1.9482421875 21.943359375,2.9296875 23.7890625,3.10546875 24.169921875,2.666015625 24.7265625,2.51953125 25.400390625,2.8125 25.6640625,3.515625 25.458984375,4.3359375 24.990234375,5.068359375 25.5908203125,5.8154296875 26.455078125,6.181640625 27.509765625,5.126953125 27.978515625,3.75 27.7331523895264,2.611083984375 26.9970703125,1.7138671875 25.9020977020264,1.131591796875 24.580078125,0.9375z M24.580078125,0L26.2207012176514,0.252685546875 27.626953125,1.0107421875 28.5937480926514,2.156982421875 28.916015625,3.57421875 28.5864238739014,5.10498046875 27.59765625,6.357421875 26.5576152801514,7.40478515625 26.07421875,8.3203125 27.3852519989014,9.7705078125 28.212890625,11.42578125 28.6523418426514,13.3813495635986 28.798828125,15.732421875 28.8610820770264,17.9589862823486 29.0478515625,19.658203125 29.296875,21.97265625 29.23828125,23.1298828125 29.091796875,24.814453125 28.65234375,28.798828125 28.4765625,30.6298828125 28.41796875,31.9921875 28.5205059051514,32.86376953125 28.828125,34.365234375 29.0075664520264,35.5426025390625 29.1357402801514,37.25830078125 29.2126445770264,39.5123291015625 29.23828125,42.3046875 29.4873046875,42.9931640625 29.560546875,43.623046875 29.1943359375,44.6923828125 28.18359375,45.087890625 27.5537109375,45 26.865234375,44.677734375 25.5029296875,44.8681640625 23.96484375,45.05859375 23.056640625,44.912109375 22.353515625,44.384765625 21.09375,45.029296875 20.4052734375,44.9560546875 19.62890625,44.70703125 18.017578125,44.8974609375 16.259765625,45.087890625 15.2197265625,44.9560546875 14.35546875,44.443359375 14.6484375,43.623046875 17.28515625,43.0517578125 18.61083984375,42.572021484375 19.541015625,42.275390625 20.14892578125,40.308837890625 20.44921875,37.7490234375 20.595703125,35.357666015625 20.7421875,33.896484375 20.888671875,33.017578125 21.09375,32.138671875 20.244140625,31.93359375 19.39453125,31.728515625 19.189453125,31.376953125 19.013671875,31.025390625 23.203125,20.302734375 22.8076171875,17.9443359375 22.08984375,15.673828125 20.899658203125,18.1567401885986 19.6728515625,19.62890625 18.2373046875,20.518798828125 16.4208984375,21.2548828125 14.388427734375,22.188720703125 12.3046875,23.671875 12.3046875,25.341796875 10.8984375,25.341796875 10.8984375,31.142578125 12.3046875,31.142578125 12.3046875,35.888671875 10.8984375,35.888671875 10.8984375,41.66015625 12.3046875,41.66015625 12.3046875,45 8.994140625,45 8.994140625,43.623046875 3.31054711341858,43.623046875 3.31054711341858,45.029296875 0,45.029296875 0,41.71875 1.40625,41.71875 1.40625,35.91796875 0,35.91796875 0,31.171875 1.40625,31.171875 1.40625,25.37109375 0,25.37109375 0,21.123046875 1.40625,21.123046875 1.40625,15.322265625 0,15.322265625 0,10.576171875 1.40625,10.576171875 1.40625,4.775390625 0,4.775390625 0,1.435546875 3.31054711341858,1.435546875 3.31054711341858,2.841796875 8.994140625,2.841796875 8.994140625,1.435546875 10.1953125,1.435546875 10.8691396713257,0.864257752895355 11.66015625,0.673827648162842 12.8173828125,1.2158203125 13.330078125,3.017578125 13.30078125,3.6328125 13.2421875,4.189453125 14.8681640625,7.412109375 15.99609375,10.83984375 18.328857421875,10.462646484375 20.1708984375,9.9169921875 21.478271484375,9.356689453125 22.20703125,8.935546875 22.734375,8.02734375 22.470703125,7.939453125 22.001953125,7.8515625 21.474609375,7.7490234375 21.005859375,7.470703125 20.859375,7.03125 20.80078125,6.50390625 20.5078125,6.181640625 20.33203125,6.181640625 19.892578125,5.625 20.0390625,4.9365234375 20.478515625,4.365234375 20.885009765625,3.36181640625 21.4599609375,1.81640625 22.569580078125,0.4541015625 24.580078125,0z" />
    </g>
  </g>
</svg>