<?xml version="1.0" encoding="utf-8"?>
<!DOCTYPE svg PUBLIC "-//W3C//DTD SVG 1.1//EN" "http://www.w3.org/Graphics/SVG/1.1/DTD/svg11.dtd">
<svg width="27.7734375" height="44.912109375" xmlns="http://www.w3.org/2000/svg" xmlns:xlink="http://www.w3.org/1999/xlink" xmlns:xml="http://www.w3.org/XML/1998/namespace" version="1.1">
  <g>
    <g>
      <path style="fill:#FF0000;fill-opacity:1" d="M21.9140625,14.82421875L21.265869140625,15.0585956573486 19.9658203125,15.52734375 17.373046875,16.494140625 17.1734619140625,17.2842426300049 16.86767578125,18.4533710479736 16.4556884765625,20.0015277862549 15.9375,21.9287109375 14.267578125,30.263671875 14.1796875,30.9375 13.798828125,31.787109375 12.919921875,32.109375 12.1252431869507,31.768798828125 11.3818359375,30.7470703125 9.6533203125,27.3779296875 8.62060546875,25.653076171875 7.5439453125,24.4921875 6.346435546875,23.8330078125 4.951171875,23.61328125 3.29589891433716,24.2431640625 2.75390672683716,25.986328125 3.06884765625,28.341064453125 4.013671875,31.5380859375 4.95849561691284,34.888916015625 5.2734375,37.705078125 4.9365234375,39.78515625 3.896484375,41.220703125 2.8125,41.982421875 1.77246081829071,42.8466796875 1.08398425579071,43.974609375 24.521484375,43.974609375 24.0820293426514,42.89794921875 23.056640625,41.8359375 21.96533203125,40.83984375 21.328125,39.9609375 21.26953125,39.638671875 21.3803100585938,39.114990234375 21.595458984375,38.1005859375 21.9149780273438,36.595458984375 22.3388671875,34.599609375 23.0529766082764,29.67041015625 23.291015625,23.84765625 23.2031230926514,21.14501953125 22.939453125,18.896484375 21.9140625,14.82421875z M14.58984375,7.294921875L15.17578125,7.4853515625 16.0546875,8.056640625 14.35546875,8.5546875 14.0185546875,8.408203125 13.9453125,7.880859375 14.1357421875,7.44140625 14.58984375,7.294921875z M13.65234375,5.859375L13.154296875,8.291015625 12.392578125,10.107421875 13.30078125,10.5322265625 13.65234375,11.07421875 13.5791015625,11.5576171875 13.505859375,12.0703125 13.9013671875,12.626953125 14.47265625,12.65625 15,12.685546875 15.4248046875,12.7587890625 15.736083984375,13.0444355010986 16.34765625,13.7548828125 17.373046875,15.498046875 21.5625,13.9453125 21.2109375,13.212890625 20.859375,12.421875 20.2587890625,10.95703125 20.009765625,9.521484375 20.009765625,9.31640625 20.21484375,8.349609375 20.859375,7.5 20.859375,7.236328125 20.7275390625,6.73828125 20.419921875,6.533203125 20.1708984375,6.708984375 20.009765625,7.060546875 19.6875,7.20703125 19.39453125,7.353515625 13.65234375,5.859375z M19.3359375,0.966797351837158L17.435302734375,1.226806640625 15.8349609375,2.0068359375 14.600830078125,3.255615234375 13.798828125,4.921875 19.27734375,6.357421875 19.7314453125,5.80078125 20.361328125,5.56640625 21.416015625,6.1376953125 21.796875,7.734375 21.591796875,8.115234375 21.1083984375,8.759765625 20.9765625,9.55078125 21.43798828125,11.43310546875 22.646484375,14.326171875 23.8330059051514,18.3984394073486 24.228515625,23.818359375 24.228515625,25.078125 24.169921875,26.71875 24.111328125,27.451171875 25.60546875,27.451171875 26.455078125,22.0458984375 26.806640625,16.259765625 26.2976055145264,10.045166015625 24.7705078125,5.1708984375 23.6672954559326,3.33160400390625 22.3937969207764,2.017822265625 20.9500102996826,1.22955346107483 19.3359375,0.966797351837158z M19.130859375,0L21.0790996551514,0.2838134765625 22.7929668426514,1.13525390625 24.2724590301514,2.5543212890625 25.517578125,4.541015625 27.2094707489014,9.73388671875 27.7734375,16.23046875 27.392578125,22.3095703125 26.42578125,28.06640625 25.95703125,28.388671875 24.052734375,28.388671875 23.4228515625,34.04296875 22.236328125,39.638671875 22.9724102020264,40.5029296875 24.1259765625,41.572265625 25.1477031707764,42.8759765625 25.48828125,44.443359375 25.224609375,44.677734375 24.990234375,44.912109375 0.439452767372131,44.912109375 0,44.35546875 0.681152164936066,42.828369140625 2.02148389816284,41.4111328125 3.31787109375,40.352783203125 3.8671875,39.90234375 4.189453125,38.671875 4.27734375,37.44140625 3.973388671875,35.086669921875 3.0615234375,31.8310546875 2.14965772628784,28.538818359375 1.84570276737213,26.07421875 2.35839796066284,23.935546875 3.69140625,22.880859375 2.90039014816284,11.015625 2.34374952316284,12.36328125 1.52343761920929,12.01171875 3.33984375,7.91015625 4.16015672683716,8.349609375 3.720703125,9.287109375 4.74609375,22.705078125 4.921875,22.705078125 6.412353515625,22.8982543945313 7.7197265625,23.477783203125 8.843994140625,24.4436645507813 9.78515625,25.7958984375 11.0815420150757,28.150634765625 11.572265625,29.033203125 12.1875,30.1171875 12.890625,31.201171875 13.271484375,30.99609375 14.5458984375,23.4814453125 16.494140625,16.11328125 15.9814453125,14.82421875 14.94140625,13.505859375 13.6669912338257,15.5603046417236 12.71484375,16.7431640625 11.77734375,17.548828125 11.3671875,17.578125 10.927734375,17.578125 10.224609375,17.4462890625 10.01953125,16.962890625 10.30517578125,16.7431659698486 11.162109375,16.669921875 12.5537109375,15.29296875 13.505859375,13.564453125 12.7587890625,12.8173828125 12.568359375,11.982421875 12.71484375,11.220703125 11.77734375,10.8984375 11.337890625,10.341796875 12.5390625,7.470703125 12.685546875,6.533203125 12.65625,6.005859375 13.1176748275757,3.91845703125 14.501953125,1.93359375 16.58203125,0.4833984375 19.130859375,0z" />
    </g>
  </g>
</svg>