<?xml version="1.0" encoding="utf-8"?>
<!DOCTYPE svg PUBLIC "-//W3C//DTD SVG 1.1//EN" "http://www.w3.org/Graphics/SVG/1.1/DTD/svg11.dtd">
<svg width="44.853515625" height="45" xmlns="http://www.w3.org/2000/svg" xmlns:xlink="http://www.w3.org/1999/xlink" xmlns:xml="http://www.w3.org/XML/1998/namespace" version="1.1">
  <g>
    <g>
      <path style="fill:#FF0000;fill-opacity:1" d="M25.078125,19.951171875L25.6201152801514,20.7604999542236 26.89453125,22.2509765625 28.3374004364014,23.851318359375 29.384765625,24.990234375 29.296875,25.517578125 28.0078125,26.54296875 27.59765625,26.89453125 28.828125,26.1181640625 30.05859375,25.3125 29.94140625,25.078125 29.794921875,24.90234375 29.0112285614014,24.32373046875 28.18359375,23.173828125 27.4438457489014,22.05322265625 26.923828125,21.5625 26.19140625,20.947265625 26.015625,20.44921875 25.869140625,19.951171875 25.078125,19.951171875z M19.98046875,19.951171875L19.951171875,20.0390625 18.3251953125,23.7890625 17.523193359375,25.4443359375 17.197265625,26.015625 17.0654296875,26.07421875 16.93359375,26.162109375 16.171875,25.83984375 15.263671875,25.341796875 14.794921875,25.13671875 14.384765625,24.990234375 17.197265625,26.865234375 17.255859375,26.806640625 17.83447265625,25.1513671875 18.8671875,23.291015625 19.92919921875,21.474609375 20.595703125,19.951171875 19.98046875,19.951171875z M24.111328125,14.00390625L23.0859375,14.326171875 22.060546875,14.677734375 21.26953125,16.875 20.361328125,19.013671875 25.546875,19.013671875 24.638671875,15.9521484375 24.2431621551514,14.5202655792236 24.111328125,14.00390625z M19.98046875,10.166015625L17.6953125,10.8984375 15.3515625,11.3671875 8.525390625,11.044921875 8.642578125,11.923828125 8.818359375,12.83203125 8.994140625,13.76953125 9.4427490234375,16.1755390167236 9.90966796875,18.1787128448486 10.3948974609375,19.7790546417236 10.8984375,20.9765625 13.564453125,24.375 13.59375,24.345703125 13.88671875,24.228515625 15.3076171875,24.8291015625 16.7578125,25.4296875 18.8525390625,20.3759765625 21.005859375,14.853515625 21.2109375,14.267578125 20.654296875,12.2021484375 19.98046875,10.166015625z M25.4296875,10.048828125L25.13671875,11.3818359375 25.048828125,12.509765625 25.2868633270264,14.7766132354736 26.0009765625,17.4169921875 26.7370586395264,19.6032733917236 27.041015625,20.5078125 27.9602031707764,21.18896484375 28.7255859375,22.412109375 29.3811016082764,23.572998046875 29.970703125,24.0673828125 30.8203125,24.755859375 33.5009765625,21.7236328125 34.98046875,18.1201171875 35.419921875,16.1462421417236 35.859375,13.76953125 36.328125,11.103515625 33.69140625,11.396484375 31.025390625,11.572265625 28.125,11.25 25.4296875,10.048828125z M40.166015625,7.822265625L40.341796875,8.173828125 40.01953125,8.4375 39.638671875,8.14453125 40.166015625,7.822265625z M4.599609375,7.822265625L5.15625,8.14453125 4.62890625,8.49609375 4.453125,8.14453125 4.599609375,7.822265625z M41.1328125,5.0390625L40.107421875,6.73828125 39.609375,6.73828125 39.375,6.50390625 39.140625,6.73828125 38.671875,6.73828125 38.49609375,6.650390625 38.3203125,6.826171875 38.14453125,7.03125 37.939453125,6.826171875 37.353515625,5.888671875 37.08984375,5.56640625 37.763671875,7.67578125 37.294921875,10.83984375 36.767578125,14.00390625 36.2759399414063,16.5948505401611 35.738525390625,18.7719745635986 35.1553344726563,20.5352802276611 34.5263671875,21.884765625 32.9736328125,23.994140625 30.9228515625,25.751953125 26.42578125,28.8427734375 24.6533184051514,30.355224609375 23.73046875,31.875 23.61328125,32.197265625 23.49609375,32.607421875 23.583984375,32.578125 23.818359375,31.962890625 24.228515625,31.11328125 24.7265625,31.142578125 24.638671875,31.875 25.2099609375,33.5009765625 25.78125,35.244140625 25.517578125,36.8115234375 24.78515625,38.5546875 24.580078125,40.751953125 24.404296875,42.978515625 24.7412109375,43.4912109375 24.9609375,44.0625 25.546875,44.0625 25.0927734375,43.6083984375 24.8620586395264,43.267822265625 24.78515625,42.451171875 24.8291015625,41.396484375 24.873046875,40.546875 25.5322265625,37.529296875 26.982421875,34.98046875 27.744140625,35.185546875 27.890625,39.0966796875 28.125,42.978515625 28.41796875,43.505859375 28.623046875,44.0625 28.88671875,44.0625 28.7255859375,43.623046875 28.41796875,43.125 28.2568359375,41.8505859375 28.18359375,40.400390625 28.3740234375,36.97265625 28.798828125,34.04296875 29.1650390625,33.6328125 29.4616680145264,33.486328125 30.205078125,33.046875 32.4609375,31.728515625 34.892578125,30.8203125 35.361328125,31.142578125 35.9765625,33.18603515625 36.474609375,35.91796875 36.84814453125,39.22119140625 37.08984375,42.978515625 37.412109375,43.505859375 37.6171875,44.0625 37.91015625,44.0625 37.79296875,43.65234375 37.67578125,43.330078125 37.529296875,43.125 37.119140625,38.671875 36.8408203125,35.1416015625 36.708984375,31.34765625 36.73828125,31.318359375 36.796875,31.23046875 36.884765625,31.083984375 37.44140625,31.083984375 37.646484375,31.259765625 38.0126953125,33.189697265625 38.642578125,36.4013671875 39.32373046875,39.898681640625 39.84375,42.685546875 40.546875,43.2568359375 40.986328125,44.0625 41.30859375,44.0625 41.1328125,43.681640625 40.72265625,43.2421875 40.517578125,42.685546875 40.25390625,41.923828125 40.01953125,41.1328125 39.576416015625,39.4482421875 39.0673828125,37.08984375 38.646240234375,34.84130859375 38.466796875,33.486328125 38.37890625,31.93359375 38.074951171875,29.307861328125 37.5146484375,27.5244140625 36.998291015625,26.480712890625 36.826171875,26.07421875 37.254638671875,23.64990234375 37.8369140625,20.302734375 38.1253051757813,18.5870380401611 38.331298828125,17.2485370635986 38.4548950195313,16.2872333526611 38.49609375,15.703125 38.5546875,14.94140625 38.5546875,14.1796875 38.466796875,11.923828125 38.232421875,9.66796875 38.5986328125,9.4189453125 38.96484375,9.19921875 40.1806640625,10.13671875 41.30859375,10.48828125 42.509765625,11.0302734375 43.798828125,11.572265625 43.1982421875,10.2685546875 42.041015625,8.876953125 40.8837890625,7.71240234375 40.283203125,7.08984375 41.1328125,5.0390625z M3.72070288658142,5.0390625L4.5703125,7.08984375 3.69140601158142,7.9248046875 3.22265601158142,8.96484375 2.13867139816284,10.0048828125 1.0546875,11.572265625 2.34374976158142,11.0302734375 3.54492163658142,10.48828125 4.6728515625,10.13671875 5.888671875,9.19921875 6.2548828125,9.4189453125 6.62109375,9.66796875 6.38671875,11.923828125 6.298828125,14.1796875 6.357421875,15.703125 6.4306640625,16.58203125 6.62109375,17.958984375 7.177734375,21.4453125 8.02734375,26.07421875 7.85888671875,26.480712890625 7.353515625,27.4658203125 6.80419921875,29.219970703125 6.50390625,31.93359375 6.38671875,33.486328125 6.20727443695068,34.84130859375 5.7861328125,37.08984375 5.27709865570068,39.4482421875 4.833984375,41.1328125 4.599609375,41.923828125 4.365234375,42.685546875 4.130859375,43.2421875 3.73535132408142,43.681640625 3.54492163658142,44.0625 3.86718726158142,44.0625 4.306640625,43.2568359375 5.009765625,42.685546875 5.52978420257568,39.898681640625 6.2109375,36.4013671875 6.8408203125,33.189697265625 7.20703125,31.259765625 7.412109375,31.083984375 7.96875,31.083984375 8.056640625,31.23046875 8.14453125,31.34765625 8.0126953125,35.1416015625 7.734375,38.671875 7.32421875,43.125 7.0751953125,43.505859375 6.943359375,44.0625 7.236328125,44.0625 7.470703125,43.505859375 7.763671875,42.978515625 8.00537109375,39.22119140625 8.37890625,35.91796875 8.876953125,33.18603515625 9.4921875,31.142578125 9.9609375,30.8203125 12.421875,31.728515625 14.6484375,33.046875 15.76171875,33.69140625 15.9375,33.8671875 16.0546875,34.04296875 16.4794921875,36.97265625 16.669921875,40.400390625 16.5966796875,41.8505859375 16.435546875,43.125 16.142578125,43.623046875 15.966796875,44.0625 16.23046875,44.0625 16.435546875,43.505859375 16.728515625,42.978515625 16.93359375,39.0966796875 17.109375,35.185546875 17.87109375,34.98046875 19.3212890625,37.529296875 19.98046875,40.546875 20.0244140625,41.396484375 20.068359375,42.451171875 19.991455078125,43.267822265625 19.7607421875,43.6083984375 19.306640625,44.0625 19.892578125,44.0625 20.1123046875,43.4912109375 20.44921875,42.978515625 20.2734375,40.751953125 20.068359375,38.5546875 19.365234375,36.9140625 19.072265625,35.244140625 19.6435546875,33.5009765625 20.21484375,31.875 20.126953125,31.142578125 20.625,31.11328125 21.03515625,31.962890625 21.26953125,32.578125 21.357421875,32.607421875 21.240234375,32.197265625 21.123046875,31.875 20.2001953125,30.355224609375 18.427734375,28.8427734375 13.9306640625,25.751953125 11.8798818588257,23.994140625 10.3271484375,21.884765625 9.69818115234375,20.5352802276611 9.114990234375,18.7719745635986 8.57757568359375,16.5948505401611 8.0859375,14.00390625 7.55859375,10.83984375 7.08984375,7.67578125 7.763671875,5.56640625 7.5,5.888671875 6.943359375,6.826171875 6.708984375,7.03125 6.533203125,6.826171875 6.357421875,6.650390625 6.181640625,6.73828125 5.712890625,6.73828125 5.478515625,6.50390625 5.244140625,6.73828125 4.74609375,6.73828125 3.72070288658142,5.0390625z M20.91796875,2.666015625L21.708984375,2.958984375 20.888671875,3.515625 20.625,3.046875 20.91796875,2.666015625z M22.55859375,0.966796875L21.500244140625,1.259765625 20.7861328125,2.138671875 20.328369140625,3.11279296875 20.0390625,3.69140625 20.3759765625,4.1162109375 20.44921875,4.716796875 20.5078125,5.09765625 21.650390625,5.830078125 22.03125,6.85546875 21.3720703125,8.14453125 20.009765625,8.671875 19.833984375,8.642578125 18.6767578125,8.84765625 17.255859375,9.345703125 16.40625,9.697265625 15.5859375,10.0048828125 14.94140625,10.13671875 14.12109375,10.107421875 13.2421875,10.048828125 11.630859375,9.9609375 10.3564443588257,9.95361328125 8.642578125,9.931640625 8.671875,10.224609375 12.71484375,10.4296875 15.029296875,10.517578125 17.3583984375,10.1220703125 20.09765625,9.140625 20.419921875,9.287109375 20.712890625,9.43359375 21.2109375,10.869140625 21.650390625,12.36328125 21.8115234375,12.8466796875 22.08984375,13.681640625 24.052734375,13.037109375 24.140625,11.865234375 24.19921875,11.337890625 24.609375,9.66796875 25.341796875,8.994140625 25.8801250457764,9.217529296875 26.9091796875,9.8876953125 28.5974102020264,10.557861328125 31.11328125,10.78125 33.80859375,10.60546875 36.4453125,10.3125 36.474609375,10.048828125 36.005859375,10.107421875 34.716796875,10.1953125 33.42041015625,10.21728515625 31.40625,10.224609375 30.87890625,10.224609375 29.619140625,10.341796875 27.5537109375,9.140625 25.37109375,8.232421875 23.6279296875,7.6171875 23.1774883270264,6.89208984375 23.49609375,5.947265625 24.0234375,5.185546875 24.4921875,4.3798828125 24.7265625,3.28125 24.228515625,1.611328125 22.55859375,0.966796875z M22.646484375,0L23.7927227020264,0.205078125 24.7705078125,0.8203125 25.4406719207764,1.81640625 25.6640625,3.1640625 25.4443340301514,4.57763671875 24.78515625,5.888671875 24.43359375,6.357421875 24.111328125,6.85546875 24.6752910614014,7.1484375 25.6640625,7.3828125 27.3193340301514,8.02734375 29.8828125,9.55078125 30.6884765625,9.4189453125 31.34765625,9.375 34.482421875,9.4921875 35.5517578125,9.43359375 36.591796875,9.19921875 36.796875,7.705078125 36.3427734375,6.50390625 36.123046875,5.2734375 36.416015625,4.130859375 37.265625,4.21875 37.6171875,5.244140625 37.646484375,5.126953125 38.49609375,4.921875 38.642578125,5.2001953125 38.7890625,5.478515625 38.994140625,4.98046875 39.404296875,4.951171875 39.78515625,4.921875 39.931640625,5.2734375 40.48828125,4.5703125 41.220703125,4.013671875 42.01171875,4.365234375 42.041015625,4.716796875 41.8212890625,5.771484375 41.220703125,6.708984375 41.737060546875,7.25830078125 42.9931640625,8.5546875 44.271240234375,10.23193359375 44.853515625,11.923828125 44.677734375,12.12890625 44.501953125,12.392578125 43.798828125,12.509765625 42.5537109375,12.216796875 41.396484375,11.455078125 40.2685546875,11.2353515625 39.287109375,10.693359375 39.43359375,12.5390625 39.4921875,14.384765625 38.90625,20.2294921875 37.79296875,26.015625 38.822021484375,28.729248046875 39.2724609375,32.5927734375 39.898681640625,37.393798828125 41.455078125,42.919921875 42.041015625,43.447265625 42.48046875,44.53125 42.216796875,44.765625 41.982421875,45 40.576171875,45 40.37109375,44.8828125 40.1953125,44.765625 40.01953125,44.033203125 39.609375,43.59375 39.169921875,43.212890625 38.4228515625,38.96484375 37.5,34.74609375 37.620849609375,36.654052734375 37.8662109375,39.3310546875 38.111572265625,41.766357421875 38.232421875,42.94921875 38.73046875,43.623046875 39.140625,44.384765625 38.671875,45 37.1484375,45 36.708984375,44.443359375 36.474609375,43.740234375 36.240234375,43.212890625 36.240234375,42.158203125 36.2109375,41.044921875 36.15234375,39.7265625 35.7861328125,36.2841796875 34.62890625,31.845703125 32.5634765625,32.724609375 30.64453125,33.8671875 30.17578125,34.16015625 29.6484375,34.482421875 29.0771484375,37.177734375 28.857421875,39.931640625 29.1796875,42.890625 30.17578125,44.384765625 29.70703125,45 28.212890625,45 27.7734375,44.443359375 27.392578125,43.4765625 27.24609375,43.037109375 27.24609375,41.1328125 27.2021484375,38.759765625 27.01171875,36.38671875 25.869140625,38.6572265625 25.48828125,41.19140625 25.6640625,42.861328125 26.2353515625,43.4326171875 26.66015625,44.53125 26.396484375,44.765625 26.162109375,45 24.4921875,45 24.052734375,44.443359375 23.583984375,43.037109375 23.818359375,40.6640625 24.0051250457764,38.6572265625 24.1552734375,37.96875 24.6240234375,37.1923828125 24.9609375,35.91796875 24.8291015625,35.0244140625 24.4921875,34.21875 24.169921875,33.603515625 24.0234375,32.9296875 24.0234375,32.75390625 23.4814453125,34.7314453125 22.79296875,36.650390625 22.5,36.591796875 22.5,36.005859375 22.738037109375,33.197021484375 23.4521484375,30.9814453125 24.7082500457764,29.168701171875 26.572265625,27.568359375 26.484375,27.158203125 27.568359375,26.279296875 28.53515625,25.3125 26.77734375,23.4375 25.048828125,21.533203125 24.580078125,20.888671875 24.228515625,20.3466796875 24.052734375,19.951171875 21.591796875,19.951171875 20.9619140625,21.46728515625 19.775390625,23.4375 18.64013671875,25.4443359375 18.1640625,27.0703125 17.98828125,27.392578125 18.28125,27.568359375 20.035400390625,28.93798828125 21.3134765625,30.76171875 22.093505859375,33.09814453125 22.353515625,36.005859375 22.353515625,36.591796875 22.060546875,36.650390625 21.3720703125,34.7314453125 20.830078125,32.75390625 20.830078125,32.9296875 20.68359375,33.603515625 20.361328125,34.21875 20.0244140625,35.0244140625 19.892578125,35.91796875 20.2587890625,37.236328125 20.7275390625,38.0419921875 20.863037109375,38.719482421875 21.064453125,40.6640625 21.26953125,43.037109375 20.80078125,44.443359375 20.361328125,45 18.69140625,45 18.45703125,44.765625 18.193359375,44.53125 18.6181640625,43.4326171875 19.189453125,42.861328125 19.365234375,41.19140625 18.984375,38.6572265625 17.841796875,36.38671875 17.6513671875,38.759765625 17.607421875,41.1328125 17.607421875,43.037109375 17.4609375,43.4765625 17.080078125,44.443359375 16.640625,45 15.146484375,45 14.677734375,44.384765625 15.673828125,42.890625 15.99609375,39.931640625 15.7763671875,37.177734375 15.205078125,34.482421875 14.70703125,34.16015625 14.208984375,33.8671875 12.2900390625,32.724609375 10.224609375,31.845703125 8.96484375,36.943359375 8.61328125,42.158203125 8.61328125,43.212890625 8.37890625,43.740234375 8.14453125,44.443359375 7.705078125,45 6.181640625,45 5.712890625,44.384765625 6.123046875,43.623046875 6.62109375,42.94921875 6.741943359375,41.766357421875 6.9873046875,39.3310546875 7.232666015625,36.654052734375 7.353515625,34.74609375 6.4306640625,38.96484375 5.68359375,43.212890625 5.244140625,43.59375 4.833984375,44.0771484375 4.658203125,44.765625 4.482421875,44.8828125 4.27734375,45 2.87109351158142,45 2.63671851158142,44.765625 2.373046875,44.53125 2.81249976158142,43.447265625 3.39843726158142,42.919921875 4.163818359375,40.4296875 4.8779296875,37.529296875 5.68359375,31.2158203125 6.08642482757568,28.311767578125 7.060546875,26.015625 5.947265625,20.2294921875 5.361328125,14.384765625 5.419921875,12.5390625 5.56640625,10.693359375 4.5849609375,11.2353515625 3.45703101158142,11.455078125 2.29980444908142,12.216796875 1.0546875,12.509765625 0.3515625,12.392578125 0.17578125,12.12890625 0,11.923828125 0.347900092601776,10.858154296875 1.15722632408142,9.7705078125 1.95922815799713,8.924560546875 2.28515625,8.583984375 2.88574194908142,7.353515625 3.63281226158142,6.708984375 3.03222632408142,5.771484375 2.81249976158142,4.716796875 2.84179663658142,4.365234375 3.63281226158142,4.013671875 4.365234375,4.5703125 4.921875,5.2734375 5.068359375,4.921875 5.478515625,4.951171875 5.859375,4.98046875 6.064453125,5.478515625 6.2109375,5.2001953125 6.357421875,4.921875 7.20703125,5.126953125 7.236328125,5.244140625 7.587890625,4.21875 8.4375,4.130859375 8.73046875,5.2734375 8.5107421875,6.50390625 8.056640625,7.705078125 8.14453125,8.5546875 8.232421875,9.2578125 8.291015625,9.19921875 8.9208984375,9.287109375 9.55078125,9.31640625 13.359375,9.169921875 14.1943359375,9.228515625 14.94140625,9.345703125 17.490234375,8.232421875 20.185546875,7.67578125 20.8154296875,7.3681640625 21.123046875,6.73828125 20.185546875,5.91796875 19.453125,4.921875 19.51171875,4.453125 19.365234375,4.453125 19.16015625,4.1015625 18.984375,3.75 19.365234375,2.8125 20.1123046875,1.39892578125 20.888671875,0.556640625 22.646484375,0z" />
    </g>
  </g>
</svg>