<?xml version="1.0" encoding="utf-8"?>
<!DOCTYPE svg PUBLIC "-//W3C//DTD SVG 1.1//EN" "http://www.w3.org/Graphics/SVG/1.1/DTD/svg11.dtd">
<svg width="25.400390625" height="44.4140625" xmlns="http://www.w3.org/2000/svg" xmlns:xlink="http://www.w3.org/1999/xlink" xmlns:xml="http://www.w3.org/XML/1998/namespace" version="1.1">
  <g>
    <g>
      <path style="fill:#FF0000;fill-opacity:1" d="M15.205078125,22.79296875L14.384765625,22.96875 13.505859375,23.056640625 12.65625,23.203125 11.89453125,23.525390625 11.865234375,23.525390625 10.693359375,26.5283203125 10.4296875,28.648681640625 10.341796875,31.69921875 10.220947265625,33.3251953125 9.8583984375,34.453125 9.261474609375,35.1416015625 8.4375,35.44921875 7.91015625,35.21484375 5.37963819503784,31.72119140625 3.9990234375,29.619140625 3.182373046875,28.564453125 2.34375,28.212890625 1.49414050579071,29.267578125 1.20117223262787,31.201171875 1.77246081829071,33.9990234375 2.73925733566284,37.294921875 3.035888671875,38.89892578125 3.134765625,40.078125 2.9296875,41.3232421875 2.431640625,42.041015625 1.87500011920929,42.626953125 1.40625011920929,43.4765625 17.841796875,43.4765625 17.87109375,43.271484375 17.431640625,42.71484375 16.40625,42.1875 15.3955078125,41.455078125 14.94140625,40.25390625 15,39.462890625 15.146484375,37.880859375 15.263671875,35.859375 15.322265625,33.80859375 15.1171875,30.615234375 15,28.154296875 14.94140625,26.513671875 15,24.66796875 15.05859375,23.6865234375 15.205078125,22.79296875z M10.458984375,16.201171875L11.279296875,16.552734375 10.458984375,16.904296875 10.1953125,16.552734375 10.458984375,16.201171875z M13.53515625,15.439453125L13.330078125,15.6298828125 13.271484375,15.908203125 13.0078125,16.083984375 9.66796875,15.64453125 9.4189453125,16.6259765625 8.818359375,17.724609375 9.2724609375,18.017578125 9.462890625,18.515625 9.404296875,19.013671875 9.287109375,19.51171875 11.3452138900757,20.3979511260986 12.12890625,22.470703125 13.564453125,22.2216796875 15.029296875,21.6796875 14.520263671875,20.859375 13.6376953125,19.62890625 12.8356924057007,18.2812519073486 12.568359375,17.109375 12.71484375,16.845703125 12.861328125,16.58203125 13.505859375,16.201171875 13.65234375,15.64453125 13.623046875,15.5126953125 13.53515625,15.439453125z M22.20703125,5.302734375L18.779296875,11.3671875 9.404296875,11.3671875 9.521484375,12.12890625 9.638671875,13.271484375 9.7265625,14.736328125 12.685546875,15.1171875 13.154296875,14.4580078125 13.564453125,14.296875 14.267578125,14.8095703125 14.53125,15.8203125 14.267578125,16.640625 13.53515625,17.28515625 13.9306640625,18.4716796875 14.8828125,19.921875 15.52734375,20.80078125 16.318359375,18.955078125 18.69140625,13.271484375 20.009765625,10.1953125 21.15234375,7.6025390625 22.20703125,5.302734375z M24.462890625,0L25.400390625,0 19.8046875,13.30078125 18.28125,16.875 16.083984375,21.9140625 17.9296875,27.275390625 17.4609375,27.890625 15.908203125,27.890625 16.171875,33.779296875 16.0986328125,36.9287109375 15.87890625,40.107421875 16.241455078125,40.872802734375 17.3291015625,41.5869140625 18.416748046875,42.396240234375 18.779296875,43.447265625 18.720703125,43.9453125 18.45703125,44.1796875 18.22265625,44.4140625 1.66992223262787,44.4140625 0.87890636920929,44.091796875 0.498046875,43.359375 0.710449278354645,42.681884765625 1.34765636920929,41.9384765625 1.98486328125,41.239013671875 2.19726610183716,40.693359375 1.95556640625,38.15185546875 1.23046910762787,35.390625 0.50537121295929,32.86376953125 0.263672113418579,31.025390625 0.83496081829071,28.564453125 2.10937547683716,27.36328125 1.37695324420929,16.171875 0.82031261920929,17.51953125 0,17.16796875 1.81640636920929,13.06640625 2.63671875,13.505859375 2.19726610183716,14.443359375 3.1640625,27.48046875 4.00634765625,28.1103515625 4.775390625,29.12109375 6.07910108566284,31.06201171875 8.525390625,34.482421875 9.140625,33.8671875 9.375,32.51953125 9.375,31.640625 9.4921875,28.17626953125 9.84375,25.869140625 11.162109375,22.998046875 10.7666015625,21.26953125 9.931640625,20.5078125 8.61328125,20.33203125 8.466796875,20.068359375 8.3203125,19.8046875 8.37890625,19.1748046875 8.525390625,18.544921875 8.291015625,18.515625 8.056640625,18.515625 7.8515625,18.1640625 7.67578125,17.8125 8.37890625,16.6552734375 8.7890625,14.501953125 8.6572265625,12.7294921875 8.3203125,10.986328125 8.759765625,10.4296875 15.908203125,10.4296875 13.2165517807007,9.349365234375 10.8837890625,7.7490234375 9.268798828125,5.819091796875 8.73046875,3.75 9.2724609375,2.2705078125 10.751953125,1.669921875 11.9970703125,2.1240234375 12.509765625,3.310546875 12.2021484375,4.27734375 11.337890625,4.6875 10.6494140625,4.51171875 10.1953125,3.955078125 10.60546875,3.515625 10.869140625,3.779296875 11.220703125,3.896484375 11.572265625,3.369140625 11.3818359375,2.783203125 10.751953125,2.51953125 9.9755859375,2.900390625 9.66796875,3.75 10.242919921875,5.753173828125 11.9677734375,7.6025390625 14.688720703125,9.195556640625 18.251953125,10.4296875 24.462890625,0z" />
    </g>
  </g>
</svg>