<?xml version="1.0" encoding="utf-8"?>
<!DOCTYPE svg PUBLIC "-//W3C//DTD SVG 1.1//EN" "http://www.w3.org/Graphics/SVG/1.1/DTD/svg11.dtd">
<svg width="44.765625" height="28.330078125" xmlns="http://www.w3.org/2000/svg" xmlns:xlink="http://www.w3.org/1999/xlink" xmlns:xml="http://www.w3.org/XML/1998/namespace" version="1.1">
  <g>
    <g>
      <path style="fill:#FF0000;fill-opacity:1" d="M4.71679735183716,3.369140625L5.09765625,3.603515625 4.74609375,4.248046875 4.248046875,3.57421875 4.71679735183716,3.369140625z M42.275390625,3.28125L41.77734375,4.013671875 41.337890625,4.6728515625 40.927734375,5.302734375 39.9481201171875,6.251220703125 38.47412109375,6.9287109375 36.5057373046875,7.335205078125 34.04296875,7.470703125 29.9560546875,7.119140625 24.755859375,6.09375 19.51171875,5.06103515625 15.439453125,4.716796875 14.208984375,4.833984375 13.4765625,5.009765625 12.421875,5.185546875 11.015625,5.888671875 8.5107421875,6.9287109375 6.41601610183716,7.265625 4.93286085128784,7.0458984375 3.6474609375,6.38671875 1.81640648841858,4.1015625 1.1572265625,5.302734375 0.966797113418579,6.533203125 1.46484398841858,8.73046875 2.66601610183716,10.83984375 42.5390625,10.83984375 42.5390625,3.28125 42.275390625,3.28125z M5.654296875,1.93359375L4.74609375,2.578125 3.86718797683716,3.10546875 3.22265577316284,3.22265625 2.841796875,3.310546875 2.51953148841858,3.427734375 4.07226514816284,5.5224609375 5.17089796066284,6.170654296875 6.41601610183716,6.38671875 8.6279296875,5.9619140625 10.78125,5.009765625 8.935546875,3.8671875 8.349609375,3.1787109375 7.96875,2.75390625 7.79296875,2.314453125 6.796875,2.63671875 5.654296875,1.93359375z M11.8359375,0L12.3046875,0.439453125 11.9970703125,1.318359375 11.07421875,2.109375 10.25390625,2.578125 9.814453125,2.841796875 9.375,3.076171875 9.580078125,3.28125 10.576171875,3.9697265625 11.89453125,4.21875 13.505859375,3.9990234375 15.17578125,3.779296875 19.365234375,4.130859375 24.609375,5.15625 29.853515625,6.181640625 34.04296875,6.533203125 36.2567138671875,6.427001953125 38.00537109375,6.1083984375 39.2889404296875,5.577392578125 40.107421875,4.833984375 41.07421875,3.4130859375 41.630859375,2.578125 42.01171875,2.34375 42.978515625,2.34375 43.4765625,2.8125 43.4765625,11.279296875 43.798828125,13.037109375 43.88671875,14.58984375 43.88671875,15.41015625 43.857421875,16.23046875 43.798828125,17.9296875 44.52392578125,20.60302734375 44.765625,22.177734375 44.04052734375,24.68994140625 43.798828125,26.42578125 42.861328125,26.42578125 42.744140625,27.85400390625 42.392578125,28.330078125 41.689453125,27.85400390625 41.455078125,26.42578125 40.60546875,26.42578125 41.19873046875,25.01953125 42.978515625,24.55078125 43.505859375,21.943359375 43.1396484375,19.88525390625 42.041015625,17.9296875 41.982421875,16.94091796875 41.806640625,15.498046875 41.103515625,11.77734375 5.09765625,11.77734375 4.0576171875,14.150390625 3.72070360183716,16.669921875 3.9990234375,18.7646484375 4.658203125,20.80078125 4.130859375,21.4453125 3.896484375,21.298828125 3.779296875,21.123046875 1.40625,23.02734375 1.40625,28.330078125 0,28.330078125 0,22.646484375 2.841796875,19.833984375 2.197265625,15.5859375 2.1533203125,13.6376953125 1.9921875,11.54296875 0.6005859375,9.111328125 0.0878905057907104,6.50390625 0.31127917766571,4.94384765625 0.981445074081421,3.662109375 2.06909155845642,2.72461080551147 3.544921875,2.197265625 4.5556640625,1.4794921875 5.68359375,0.908203125 5.859375,1.0107421875 6.298828125,1.201171875 6.50390625,1.5234375 6.767578125,1.7578125 7.2802734375,1.58203125 7.939453125,1.40625 8.3935546875,1.58203125 8.759765625,2.255859375 9.84375,1.81640625 10.7812490463257,1.29638814926147 11.1328125,0.673828125 11.8359375,0z" />
    </g>
  </g>
</svg>