<?xml version="1.0" encoding="utf-8"?>
<!DOCTYPE svg PUBLIC "-//W3C//DTD SVG 1.1//EN" "http://www.w3.org/Graphics/SVG/1.1/DTD/svg11.dtd">
<svg width="43.7109375" height="35.537109375" xmlns="http://www.w3.org/2000/svg" xmlns:xlink="http://www.w3.org/1999/xlink" xmlns:xml="http://www.w3.org/XML/1998/namespace" version="1.1">
  <g>
    <g>
      <path style="fill:#FF0000;fill-opacity:1" d="M35.390625,24.2578125L34.9072265625,27.158203125 34.130859375,29.82421875 33.369140625,31.787109375 32.578125,32.724609375 31.7578125,33.4423828125 31.0546875,34.599609375 31.962890625,34.599609375 32.2265625,33.720703125 33.28125,32.87109375 33.779296875,31.640625 34.306640625,30.3369140625 34.7900390625,29.1943359375 35.15625,28.447265625 36.2255859375,26.689453125 37.236328125,25.458984375 36.4013671875,25.1513671875 35.390625,24.2578125z M36.357421875,20.478515625L36.1669921875,20.4931640625 35.830078125,20.56640625 35.6103515625,20.830078125 35.537109375,21.298828125 36.15234375,23.525390625 36.9287109375,24.345703125 38.203125,24.609375 38.818359375,23.90625 36.357421875,20.478515625z M41.71875,14.8828125L41.71875,15.8203125 41.7041015625,16.640625 41.689453125,17.34375 41.6162109375,18.5595703125 41.572265625,19.3505859375 41.54296875,19.9658203125 41.54296875,20.625 41.6455078125,21.416015625 41.865234375,22.177734375 41.982421875,21.3134765625 42.099609375,20.478515625 42.1875,19.5556640625 42.24609375,18.427734375 42.099609375,16.552734375 41.71875,14.8828125z M11.19140625,6.416015625L11.923828125,6.73828125 11.07421875,7.32421875 10.869140625,6.9140625 11.19140625,6.416015625z M12.216796875,4.248046875L10.546875,5.2734375 9.169921875,6.416015625 8.3203125,7.236328125 7.939453125,7.55859375 6.708984375,8.3203125 5.71289110183716,9.345703125 5.68359327316284,9.66796875 6.48925828933716,10.400390625 7.646484375,10.517578125 12.36328125,10.517578125 12.861328125,10.986328125 12.94921875,11.630859375 13.0224609375,12.1875 13.095703125,12.685546875 13.623046875,16.11328125 14.4873046875,18.8818359375 16.2890625,20.44921875 16.640625,20.888671875 16.1572265625,23.525390625 15.439453125,26.6015625 14.6484375,29.6630859375 14.12109375,32.2265625 13.916015625,32.607421875 12.744140625,33.486328125 11.89453125,34.599609375 12.94921875,34.599609375 13.212890625,34.4091796875 13.359375,33.75 13.65234375,33.22265625 14.47265625,32.87109375 14.8681640625,30.322265625 15.87890625,27.333984375 17.2705078125,24.4921875 18.80859375,22.353515625 18.45703125,21.943359375 17.548828125,20.80078125 16.669921875,19.35791015625 16.376953125,17.958984375 17.109375,14.6484375 17.7392578125,13.125 18.134765625,12.158203125 18.984375,12.5390625 18.3837890625,13.974609375 17.841796875,15.556640625 17.46826171875,16.9921875 17.34375,17.958984375 17.5341796875,18.80126953125 18.10546875,19.98046875 19.86328125,22.03125 19.951171875,22.32421875 20.2734375,25.810546875 20.44921875,29.296875 20.419921875,30.322265625 20.33203125,31.552734375 20.1416015625,32.666015625 19.599609375,33.45703125 18.603515625,34.6875 18.8671875,34.7314453125 19.130859375,34.74609375 19.716796875,34.599609375 19.98046875,34.21875 19.9658203125,34.1162109375 19.951171875,34.013671875 19.951171875,33.896484375 20.1708984375,33.2666015625 20.91796875,32.75390625 20.91796875,21.4453125 21.85546875,21.09375 22.9833984375,21.4892578125 24.08203125,21.591796875 25.869140625,21.416015625 27.861328125,21.240234375 29.1064453125,21.3720703125 30.41015625,21.826171875 32.4755859375,21.3720703125 34.599609375,20.9765625 34.716796875,20.478515625 35.068359375,19.9658203125 35.7421875,19.6875 34.27734375,17.9296875 34.98046875,17.28515625 36.2109375,18.8671875 37.3388671875,20.33203125 38.4375,21.826171875 39.2724609375,22.9541015625 40.166015625,23.935546875 41.396484375,25.5322265625 42.1142578125,27.1435546875 42.451171875,28.5498046875 42.5390625,29.53125 42.36328125,31.376953125 41.689453125,33.22265625 40.927734375,33.8671875 40.4296875,34.189453125 39.990234375,34.599609375 41.337890625,34.599609375 41.6455078125,33.7646484375 42.158203125,33.28125 42.392578125,32.51953125 42.7734375,31.875 42.7734375,26.42578125 42.0703125,24.78515625 41.66015625,23.90625 41.455078125,23.5107421875 41.25,23.1298828125 40.869140625,22.236328125 40.6640625,21.005859375 40.634765625,19.8046875 40.6640625,18.7939453125 40.72265625,17.841796875 40.7958984375,16.69921875 40.83984375,15.05859375 40.78125,14.2822265625 40.517578125,13.41796875 39.9462890625,12.71484375 38.935546875,12.421875 38.466796875,12.421875 38.056640625,12.451171875 37.4853515625,12.509765625 36.5625,12.626953125 32.578125,12.802734375 31.640625,12.802734375 27.0703105926514,12.37060546875 22.91015625,11.25 21.15966796875,10.5688486099243 19.833984375,10.0195331573486 18.93310546875,9.60205173492432 18.45703125,9.31640625 17.7392578125,8.408203125 16.81640625,6.9140625 14.82421875,7.529296875 14.70703125,7.236328125 16.171875,5.9765625 14.443359375,4.248046875 12.216796875,4.248046875z M0.234375,0L1.0400390625,0.7470703125 1.96289086341858,1.318359375 3.076171875,1.1865234375 4.13085985183716,1.0546875 4.716796875,1.11328125 5.361328125,1.23046875 7.001953125,1.5087890625 7.96875,1.611328125 9.0966796875,1.4501953125 10.517578125,1.0546875 10.751953125,1.171875 11.07421875,1.318359375 11.513671875,1.5234375 12.1435546875,1.8310546875 12.802734375,2.2998046875 13.359375,2.958984375 13.9892578125,2.3583984375 14.794921875,1.728515625 15.703125,1.2451171875 16.58203125,1.0546875 17.080078125,1.2451171875 17.6806640625,1.5087890625 18.3251953125,1.7431640625 18.955078125,1.845703125 19.716796875,1.669921875 20.537109375,1.40625 21.62109375,1.1572265625 22.734375,1.0546875 24.228515625,1.259765625 25.3125,1.46484375 25.869140625,1.2744140625 26.54296875,0.849609375 26.748046875,1.11328125 25.224609375,2.05078125 23.4375,2.255859375 22.265625,2.255859375 20.15625,2.724609375 19.013671875,3.046875 18.0029296875,2.841796875 16.611328125,2.255859375 15.6005859375,2.9150390625 15,3.486328125 17.021484375,5.478515625 19.3359375,8.73046875 25.751953125,11.015625 29.0185527801514,11.65283203125 32.490234375,11.865234375 33.5009765625,11.8505859375 34.716796875,11.806640625 36.15234375,11.71875 37.4267578125,11.5869140625 38.642578125,11.513671875 40.68603515625,11.982421875 42.0703125,13.388671875 42.861328125,15.63720703125 43.125,18.6328125 43.037109375,20.68359375 42.83203125,22.44140625 42.626953125,23.642578125 43.4912109375,25.810546875 43.7109375,27.59765625 43.681640625,28.681640625 43.623046875,30.29296875 43.53515625,32.40234375 43.30078125,32.724609375 43.095703125,33.662109375 42.59765625,34.130859375 42.509765625,34.21875 42.36328125,34.599609375 41.9091796875,35.302734375 40.48828125,35.537109375 39.287109375,35.537109375 38.84765625,34.98046875 39.5947265625,33.69140625 40.869140625,32.841796875 41.50634765625,31.142578125 41.71875,29.560546875 41.1181640625,27.0263671875 39.462890625,24.609375 38.9208984375,25.2392578125 38.291015625,25.83984375 37.646484375,26.42578125 36.85546875,27.39990234375 35.888671875,28.974609375 34.1015625,33.310546875 33.6328125,33.6328125 33.1494140625,33.8525390625 32.958984375,34.365234375 32.841796875,34.951171875 32.4609375,35.4345703125 31.728515625,35.537109375 30.322265625,35.537109375 30.1904296875,35.3173828125 29.94140625,34.833984375 30.8642578125,33.1640625 32.373046875,31.875 33.4130859375,29.47998046875 34.072265625,27.041015625 34.599609375,21.9140625 32.2265625,22.44140625 31.03271484375,22.72705078125 30.263671875,22.822265625 29.853515625,22.7197265625 29.4140625,22.4853515625 28.7109375,22.236328125 27.509765625,22.119140625 26.8505859375,22.177734375 26.1767578125,22.294921875 25.3271484375,22.412109375 24.169921875,22.470703125 23.1591796875,22.412109375 22.44140625,22.294921875 21.85546875,22.08984375 21.85546875,33.1640625 21.357421875,33.6328125 20.9326171875,33.8818359375 20.7421875,34.658203125 20.712890625,34.833984375 20.25146484375,35.361328125 19.1015625,35.537109375 18.046875,35.537109375 17.607421875,34.98046875 17.80517578125,34.1015625 18.3984375,33.28125 19.482421875,32.080078125 19.599609375,30.5712890625 19.62890625,29.150390625 19.4970703125,26.2939453125 19.16015625,23.408203125 16.46484375,28.18359375 15.615234375,30.8349609375 15.234375,33.1640625 15.029296875,33.544921875 14.5166015625,33.8232421875 14.296875,33.955078125 13.681640625,35.244140625 12.421875,35.537109375 10.95703125,35.537109375 10.576171875,34.833984375 11.513671875,33.603515625 12.421875,32.63671875 13.388671875,31.93359375 13.6083984375,30.5859375 13.88671875,29.23828125 15.17578125,23.876953125 15.439453125,22.5439453125 15.64453125,21.2109375 14.34814453125,20.33203125 13.388671875,18.69140625 12.71484375,16.5380859375 12.3046875,14.1796875 11.982421875,11.455078125 7.646484375,11.455078125 6.533203125,11.3232421875 5.6103515625,10.95703125 4.9658203125,10.400390625 4.716796875,9.66796875 5.08300733566284,8.54736518859863 6.181640625,7.587890625 7.587890625,6.6357421875 8.818359375,5.595703125 10.2099609375,4.453125 11.689453125,3.45703125 11.19140625,2.666015625 10.48828125,2.2265625 9.755859375,2.4609375 7.939453125,2.8125 7.119140625,2.724609375 5.771484375,2.4609375 4.43847608566284,2.255859375 3.10546875,2.2265625 2.724609375,2.2265625 1.93359398841858,2.197265625 1.46484398841858,2.021484375 0.8056640625,1.3623046875 0,0.146484375 0.234375,0z" />
    </g>
  </g>
</svg>