<?xml version="1.0" encoding="utf-8"?>
<!DOCTYPE svg PUBLIC "-//W3C//DTD SVG 1.1//EN" "http://www.w3.org/Graphics/SVG/1.1/DTD/svg11.dtd">
<svg width="44.794921875" height="42.65625" xmlns="http://www.w3.org/2000/svg" xmlns:xlink="http://www.w3.org/1999/xlink" xmlns:xml="http://www.w3.org/XML/1998/namespace" version="1.1">
  <g>
    <g>
      <path style="fill:#FF0000;fill-opacity:1" d="M16.787109375,5.2734375L12.333984375,9.111328125 11.806640625,9.5947265625 11.162109375,10.25390625 9.375,10.986328125 7.20703125,10.60546875 5.478515625,9.814453125 3.67675828933716,10.01953125 2.40234398841858,10.400390625 1.5234375,10.9716796875 0.9375,11.748046875 2.34375,13.53515625 4.51171875,14.23828125 6.708984375,13.916015625 7.9833984375,13.6743183135986 8.876953125,13.59375 9.873046875,13.8500995635986 11.279296875,14.619140625 12.59765625,15.439453125 13.388671875,15.908203125 13.857421875,15.5419921875 14.208984375,15.205078125 17.2119140625,15.791015625 20.595703125,16.171875 24.1845703125,16.376953125 27.7734375,16.435546875 28.18359375,17.197265625 27.8906230926514,17.6586933135986 27.12890625,18.75 26.396484375,19.8486328125 26.103515625,20.625 26.6455078125,20.947265625 27.01171875,21.03515625 26.9677734375,20.888671875 26.923828125,20.654296875 27.099609375,19.892578125 27.568359375,19.0576171875 28.2275390625,18.22265625 28.974609375,17.431640625 29.853515625,16.552734375 30.146484375,16.435546875 32.900390625,16.9042987823486 34.951171875,17.958984375 36.61376953125,19.60693359375 38.0859375,21.85546875 40.25390625,27.509765625 40.927734375,30.1904296875 41.484375,32.490234375 42.01171875,34.98046875 42.5537109375,37.265625 43.18359375,39.55078125 42.685546875,36.62109375 42.041015625,32.98828125 41.2939453125,29.1943359375 40.48828125,25.78125 38.40087890625,20.33203125 35.361328125,16.23046875 33.68408203125,14.7656269073486 32.109375,13.76953125 30.91552734375,13.0883808135986 30.439453125,12.626953125 30.1025371551514,11.9897480010986 29.384765625,10.78125 28.6083965301514,9.3017578125 28.271484375,8.02734375 28.4619140625,7.5439453125 28.916015625,7.3388671875 29.47265625,7.294921875 29.970703125,7.265625 29.0478515625,7.060546875 28.095703125,6.943359375 27.65625,7.529296875 28.0224609375,9.1845703125 28.740234375,11.103515625 28.125,11.689453125 22.8662109375,10.458984375 17.578125,9.90234375 15.673828125,9.990234375 13.76953125,10.283203125 13.564453125,9.6533203125 13.4765625,9.375 14.677734375,8.49609375 15.732421875,7.44140625 16.318359375,6.85546875 17.05078125,5.7421875 16.9921875,5.4638671875 16.787109375,5.2734375z M12.451171875,0L12.59765625,0.029296875 12.744140625,0.087890625 12.861328125,0.146484375 13.0517578125,0.8642578125 13.330078125,1.552734375 13.65234375,2.255859375 14.0185546875,2.40234375 14.4580078125,2.5927734375 15.0439453125,2.9443359375 15.87890625,3.515625 16.904296875,4.2333984375 17.431640625,4.62890625 17.8271484375,5.21484375 17.958984375,5.80078125 17.783203125,6.5625 17.080078125,7.470703125 15.673828125,8.876953125 15.439453125,9.08203125 16.494140625,8.994140625 17.548828125,8.96484375 22.6025390625,9.4482421875 27.568359375,10.576171875 27.333984375,9.9755859375 27.0556640625,8.994140625 26.8212890625,8.0126953125 26.71875,7.3828125 27.158203125,6.4599609375 28.271484375,6.181640625 30.380859375,6.62109375 31.494140625,6.9873046875 32.578125,7.294921875 33.2666015625,7.412109375 33.955078125,7.470703125 34.9365234375,7.20703125 36.5625,6.533203125 36.8115234375,6.6943359375 36.85546875,6.85546875 36.826171875,6.9873046875 36.767578125,7.119140625 36.6796875,7.236328125 35.947265625,7.3388671875 35.5517578125,7.5146484375 35.390625,7.734375 35.361328125,7.939453125 36.064453125,8.0859375 36.4453125,8.056640625 36.826171875,7.939453125 37.08984375,8.203125 37.119140625,8.408203125 36.884765625,8.84765625 36.62109375,8.818359375 36.064453125,8.759765625 35.56640625,8.818359375 35.2734375,9.0234375 35.6689453125,9.462890625 35.947265625,9.755859375 36.03515625,10.1953125 35.712890625,10.546875 35.390625,10.48828125 35.2734375,10.4296875 34.921875,8.935546875 34.306640625,8.5546875 33.22265625,8.3056640625 31.9189453125,8.1591796875 30.64453125,8.0859375 29.912109375,8.02734375 29.208984375,7.96875 29.6044921875,9.31640625 30.234375,10.48828125 31.435546875,12.3046875 36.02783203125,15.5786151885986 39.140625,19.658203125 41.21337890625,24.86572265625 42.626953125,31.5234375 43.179931640625,35.00244140625 43.7255859375,37.939453125 44.263916015625,40.3564453125 44.794921875,42.275390625 43.9453125,42.65625 42.24609375,38.994140625 41.07421875,34.775390625 41.0009765625,34.482421875 40.8544921875,33.8818359375 40.576171875,32.6953125 40.078125,30.64453125 39.1351318359375,27.1783447265625 38.15185546875,24.30908203125 37.1282958984375,22.0367431640625 36.064453125,20.361328125 33.55224609375,18.2519550323486 30.3515625,17.373046875 29.619140625,18.1640625 28.88671875,19.072265625 28.2421875,20.0390625 27.7734375,21.005859375 28.095703125,21.2548828125 28.59375,21.5625 29.3994140625,21.9873046875 30.64453125,22.587890625 31.8310546875,22.44140625 32.51953125,22.119140625 32.7392578125,21.9287109375 32.87109375,21.767578125 32.958984375,21.591796875 33.076171875,21.591796875 33.486328125,22.177734375 32.080078125,23.056640625 32.373046875,23.3203125 32.75390625,23.4375 33.017578125,23.408203125 33.10546875,23.37890625 33.33984375,23.466796875 33.515625,23.5986328125 33.603515625,23.759765625 33.45703125,24.052734375 33.1640625,24.345703125 32.5341796875,24.0234375 31.845703125,23.7890625 31.904296875,25.048828125 31.728515625,25.4736328125 31.494140625,25.576171875 31.11328125,25.37109375 30.908203125,25.01953125 31.318359375,23.7890625 30.4248046875,23.056640625 28.7109375,22.6171875 26.5869140625,21.9287109375 25.107421875,20.712890625 25.3564453125,19.9072265625 25.810546875,19.130859375 26.953125,17.373046875 20.9912109375,17.1533203125 15.1171875,16.318359375 14.326171875,16.171875 15.05859375,16.93359375 13.9306631088257,18.2666015625 12.94921875,19.21875 11.279296875,20.537109375 10.810546875,20.859375 10.341796875,21.15234375 9.9755859375,21.4453125 9.755859375,21.767578125 10.13671875,22.880859375 9.8876953125,23.2177734375 9.609375,23.37890625 9.140625,22.763671875 9.2578125,22.236328125 9.375,21.62109375 8.96484375,21.6796875 8.61328125,21.796875 8.115234375,22.0751953125 7.6171875,22.44140625 7.119140625,21.9140625 7.177734375,21.73828125 7.3095703125,21.5625 7.587890625,21.38671875 8.1591796875,21.2548828125 8.935546875,21.005859375 8.759765625,20.80078125 8.5400390625,20.6689453125 8.173828125,20.595703125 8.0126953125,20.6103515625 7.822265625,20.654296875 7.4560546875,20.44921875 7.353515625,20.185546875 7.5146484375,19.8046875 7.79296875,19.658203125 8.8916015625,20.185546875 9.697265625,20.302734375 10.048828125,20.2734375 10.400390625,20.21484375 13.330078125,17.2265625 11.3818359375,15.76171875 9.2578125,14.560546875 6.7822265625,14.853515625 4.423828125,15.146484375 2.00683569908142,14.4580078125 0.46875,12.7734375 0,11.953125 0,11.484375 0.992431640625,10.2795419692993 2.27050757408142,9.4775390625 5.2734375,8.876953125 5.56640625,8.876953125 6.73828125,9.43359375 9.111328125,9.990234375 10.078125,9.90234375 12.9638671875,7.353515625 15.966796875,4.921875 14.560546875,4.0576171875 13.41796875,2.75390625 12.48046875,2.98828125 12.01171875,3.427734375 11.748046875,3.8671875 11.689453125,3.896484375 11.54296875,3.896484375 11.2353515625,3.837890625 10.986328125,3.45703125 11.044921875,3.251953125 11.103515625,3.134765625 12.216796875,2.255859375 11.66015625,2.021484375 11.162109375,1.875 10.6640625,1.7578125 10.60546875,1.640625 10.576171875,1.435546875 10.693359375,1.1865234375 11.1328125,1.0546875 11.513671875,1.2890625 11.9970703125,1.5234375 12.685546875,1.787109375 12.5244140625,1.34765625 12.3046875,0.849609375 12.041015625,0.263671875 12.2021484375,0.0732421875 12.451171875,0z" />
    </g>
  </g>
</svg>