<?xml version="1.0" encoding="utf-8"?>
<!DOCTYPE svg PUBLIC "-//W3C//DTD SVG 1.1//EN" "http://www.w3.org/Graphics/SVG/1.1/DTD/svg11.dtd">
<svg width="29.619140625" height="44.560546875" xmlns="http://www.w3.org/2000/svg" xmlns:xlink="http://www.w3.org/1999/xlink" xmlns:xml="http://www.w3.org/XML/1998/namespace" version="1.1">
  <g>
    <g>
      <path style="fill:#FF0000;fill-opacity:1" d="M13.59375,29.47265625L13.9599609375,30.4833984375 14.1650390625,31.259765625 14.267578125,31.9189453125 14.296875,32.578125 13.9013671875,35.1708984375 12.65625,38.49609375 11.865234375,40.1953125 11.1767578125,41.689453125 10.6494140625,42.861328125 10.341796875,43.59375 15.234375,43.59375 16.93359375,40.283203125 17.314453125,39.4775390625 17.783203125,38.3056640625 18.193359375,37.060546875 18.369140625,36.005859375 18.1787109375,34.8046875 17.578125,33.310546875 16.46484375,31.171875 15.6298828125,30.76171875 14.8095703125,30.29296875 14.091796875,29.853515625 13.59375,29.47265625z M5.537109375,3.427734375L6.181640625,3.92578125 5.478515625,4.39453125 5.27343702316284,3.92578125 5.537109375,3.427734375z M6.796875,0.9375L4.76074171066284,1.5380859375 3.10546875,2.9296875 2.4609375,3.6181640625 1.99218773841858,3.92578125 3.66210985183716,5.888671875 4.189453125,8.73046875 4.3359375,10.517578125 4.716796875,11.806640625 12.0703125,26.396484375 12.65625,27.2900390625 13.7109375,28.359375 14.3994140625,28.88671875 14.9853515625,29.2529296875 15.52734375,29.5458984375 16.11328125,29.853515625 16.8896484375,30.17578125 17.8564453125,30.4541015625 18.9111328125,30.6884765625 19.921875,30.849609375 21.6943359375,31.0107421875 23.26171875,31.0546875 25.7665996551514,30.926513671875 27.421875,30.5419921875 28.3447246551514,29.923095703125 28.65234375,29.091796875 28.4765625,28.330078125 26.0082988739014,25.75927734375 23.291015625,21.85546875 20.54443359375,17.9443378448486 17.9296875,15.3515625 14.82421875,17.314453125 15.703125,20.859375 15.17578125,22.03125 14.69970703125,22.62451171875 14.326171875,22.822265625 13.0590810775757,22.177734375 11.54296875,20.771484375 10.3271484375,19.130859375 9.375,17.2412109375 8.7451171875,15.263671875 8.525390625,13.359375 8.671875,12.568359375 9.2724609375,12.041015625 10.01953125,11.7041015625 10.751953125,11.5283203125 11.337890625,11.484375 11.337890625,12.421875 11.1328125,12.421875 10.283203125,12.6123046875 9.462890625,13.095703125 9.78515625,15.5639667510986 10.751953125,17.98828125 12.2680654525757,20.1342792510986 14.23828125,21.826171875 14.765625,20.625 14.5166015625,19.2333984375 14.12109375,18.076171875 13.798828125,17.373046875 13.88671875,16.81640625 17.34375,14.619140625 15.12451171875,11.3525390625 12.041015625,8.232421875 12.041015625,8.056640625 11.77734375,6.7529296875 11.044921875,4.599609375 9.462890625,1.93359375 8.29833984375,1.1865234375 6.796875,0.9375z M7.08984375,0L8.851318359375,0.355224609375 10.2685546875,1.4208984375 11.4074697494507,3.109130859375 12.333984375,5.33203125 13.18359375,7.91015625 16.04736328125,10.9423828125 18.310546875,14.47265625 20.58837890625,16.5380878448486 22.67578125,19.3359375 24.1845703125,21.6796875 25.7373046875,23.96484375 27.24609375,25.9130859375 28.65234375,27.24609375 29.3774394989014,28.037109375 29.619140625,29.0625 29.2016582489014,30.44677734375 27.94921875,31.318359375 25.9204082489014,31.787109375 23.173828125,31.962890625 22.2216796875,31.93359375 21.064453125,31.845703125 19.4677734375,31.669921875 17.98828125,31.435546875 18.984375,33.515625 19.2041015625,34.1162109375 19.39453125,34.775390625 19.5263671875,35.3759765625 19.5703125,35.830078125 19.130859375,38.1884765625 18.046875,40.60546875 16.552734375,43.59375 19.39453125,43.59375 20.33203125,44.560546875 1.43554663658142,44.560546875 2.40234351158142,43.59375 8.994140625,43.59375 10.72265625,39.78515625 12.3046875,35.9765625 12.94921875,32.34375 12.919921875,31.435546875 12.7880859375,30.5419921875 12.4951171875,29.5458984375 11.953125,28.330078125 3.86718702316284,12.1875 3.427734375,10.68603515625 3.22265577316284,8.525390625 2.7978515625,6.30615234375 1.69921851158142,4.8046875 1.17187523841858,4.599609375 0.615234136581421,4.365234375 0,4.1015625 0,3.75 1.669921875,3.046875 3.15673828125,1.6259765625 4.39453125,0.703125 7.08984375,0z" />
    </g>
  </g>
</svg>