<?xml version="1.0" encoding="utf-8"?>
<!DOCTYPE svg PUBLIC "-//W3C//DTD SVG 1.1//EN" "http://www.w3.org/Graphics/SVG/1.1/DTD/svg11.dtd">
<svg width="44.853515625" height="41.77734375" xmlns="http://www.w3.org/2000/svg" xmlns:xlink="http://www.w3.org/1999/xlink" xmlns:xml="http://www.w3.org/XML/1998/namespace" version="1.1">
  <g>
    <g>
      <path style="fill:#FF0000;fill-opacity:1" d="M1.171875,27.099609375L3.4716796875,30.941162109375 6.15234375,34.1455078125 9.2138671875,36.71630859375 12.65625,38.6572265625 16.99951171875,40.023193359375 22.763671875,40.869140625 22.6171875,40.83984375 27.9968242645264,40.023193359375 32.1826171875,38.6865234375 35.577392578125,36.778564453125 38.583984375,34.248046875 41.25732421875,31.0400390625 43.65234375,27.099609375 1.171875,27.099609375z M11.689453125,24.052734375L11.572265625,25.107421875 11.42578125,26.162109375 15.439453125,26.162109375 13.2568359375,25.1953125 11.689453125,24.052734375z M9.990234375,11.630859375L8.8916015625,13.154296875 8.671875,15.498046875 9.111328125,17.7978515625 9.55078125,20.56640625 9.521484375,22.9248046875 9.287109375,25.224609375 8.935546875,25.25390625 8.26171875,25.107421875 7.587890625,24.9609375 7.30224609375,25.2099609375 7.20703125,25.95703125 10.83984375,25.95703125 10.9716796875,24.7705078125 11.103515625,22.763671875 11.30859375,19.130859375 11.748046875,19.21875 11.748046875,23.203125 14.8388671875,25.2392578125 18.603515625,25.95703125 20.126953125,25.3857421875 20.5224609375,24.547119140625 20.654296875,23.173828125 20.712890625,21.97265625 19.324951171875,21.533203125 17.3291015625,20.5078125 15.28564453125,19.16015625 13.7548828125,17.75390625 12.3522939682007,15.8276386260986 10.693359375,12.919921875 9.990234375,11.630859375z M29.150390625,7.91015625L29.150390625,26.103515625 37.6171875,26.103515625 37.6171875,7.91015625 29.150390625,7.91015625z M17.6953125,7.20703125L16.611328125,7.8076171875 15,8.115234375 13.5205078125,7.9248046875 12.5390625,7.412109375 10.8837890625,9.0380859375 10.283203125,10.869140625 11.044921875,12.1875 11.015625,12.1875 13.447265625,16.201171875 16.494140625,19.2626953125 19.74609375,21.005859375 20.7421875,21.38671875 20.9033203125,18.9111328125 21.03515625,16.0546875 20.82275390625,12.7441425323486 20.185546875,10.1953125 19.13818359375,8.3642578125 17.6953125,7.20703125z M12.65625,3.310546875L12.9931640625,3.45703125 13.125,3.779296875 12.9931640625,4.0869140625 12.65625,4.21875 12.333984375,4.0869140625 12.216796875,3.779296875 12.333984375,3.45703125 12.65625,3.310546875z M11.396484375,2.34375L11.279296875,2.40234375 11.220703125,2.40234375 10.8728017807007,3.153076171875 10.1220703125,3.4716796875 8.466796875,3.57421875 7.8515625,3.57421875 8.0859375,4.365234375 8.26171875,4.98046875 8.61328125,5.537109375 9.0380859375,5.61767578125 9.90234375,5.68359375 11.015625,5.771484375 11.7626953125,5.9033203125 12.3046875,6.26953125 13.4033203125,4.892578125 14.0734853744507,4.13818359375 14.296875,3.69140625 14.0258779525757,3.402099609375 13.212890625,3.0029296875 11.396484375,2.34375z M13.974609375,1.962890625L13.154296875,2.021484375 12.333984375,2.16796875 14.033203125,2.841796875 14.62646484375,3.27392578125 14.82421875,3.69140625 14.564208984375,4.361572265625 13.7841796875,5.2001953125 13.0041494369507,6.016845703125 12.744140625,6.62109375 13.3447265625,7.3095703125 15,7.646484375 17.2998046875,6.943359375 17.991943359375,5.98388671875 18.22265625,4.51171875 17.955322265625,3.40576171875 17.1533203125,2.607421875 15.823974609375,2.1240234375 13.974609375,1.962890625z M29.150390625,1.376953125L29.150390625,6.97265625 37.6171875,6.97265625 37.6171875,1.40625 35.5224609375,3.2373046875 33.80859375,4.716796875 33.22265625,4.6875 31.201171875,3.017578125 29.150390625,1.376953125z M28.9453125,0L33.544921875,3.720703125 37.763671875,0.029296875 38.5546875,0.380859375 38.5546875,7.470703125 40.4296875,7.884521484375 41.89453125,8.8330078125 42.83935546875,10.2868671417236 43.154296875,12.216796875 43.06640625,12.216796875 42.403564453125,12.0263690948486 42.0556640625,11.455078125 41.19140625,9.638671875 40.1953125,8.73779296875 38.5546875,8.14453125 38.5546875,26.162109375 44.384765625,26.162109375 44.853515625,26.77734375 42.755126953125,30.4119873046875 40.5322265625,33.46435546875 38.184814453125,35.9344482421875 35.712890625,37.822265625 29.94140625,40.40771484375 22.763671875,41.77734375 22.6171875,41.77734375 16.9921875,40.916748046875 12.48046875,39.5068359375 8.785400390625,37.532958984375 5.6103515625,34.98046875 2.750244140625,31.53076171875 0,26.865234375 0.17578113079071,26.513671875 0.380859613418579,26.162109375 6.5625,26.162109375 6.86279296875,24.7998046875 7.587890625,24.345703125 8.49609375,24.521484375 8.61328125,24.580078125 8.73046875,24.638671875 8.876953125,22.587890625 8.876953125,20.56640625 8.4228515625,17.607421875 7.96875,14.912109375 7.96875,14.501953125 7.998046875,14.23828125 7.32421875,13.9453125 6.796875,13.740234375 8.0859375,11.6162109375 8.67919921875,11.0119647979736 9.228515625,10.810546875 9.4921875,10.83984375 9.638671875,10.83984375 9.90234375,9.5654296875 10.810546875,8.173828125 11.3671875,7.646484375 12.01171875,7.03125 11.2939453125,6.4306640625 10.5358877182007,6.361083984375 9.345703125,6.240234375 8.25439453125,5.99853515625 7.79296875,5.56640625 7.822265625,5.56640625 7.646484375,5.009765625 7.353515625,4.1015625 7.001953125,2.87109375 7.646484375,2.9296875 8.203125,2.958984375 8.61328125,2.958984375 9.664306640625,2.926025390625 10.2392578125,2.8271484375 10.576171875,1.93359375 12.275390625,1.5380859375 13.974609375,1.34765625 16.212158203125,1.552734375 17.7099609375,2.16796875 18.555908203125,3.1640625 18.837890625,4.51171875 18.6474609375,5.9912109375 18.22265625,6.826171875 19.713134765625,7.97607421875 20.7861328125,9.7265625 21.434326171875,12.2900409698486 21.650390625,15.87890625 21.591796875,18.251953125 21.357421875,21.9140625 21.298828125,23.173828125 21.26953125,24.169921875 21.005859375,25.25390625 21.2109375,25.25390625 22.3974609375,24.78515625 22.822265625,23.466796875 22.7966289520264,22.708740234375 22.7197265625,21.5478515625 22.6171875,19.130859375 23.232421875,16.7578125 23.7084941864014,15.7543964385986 23.90625,15.322265625 24.052734375,15.029296875 24.169921875,15.087890625 24.580078125,15.380859375 24.404296875,15.673828125 24.0234375,16.376953125 23.3935546875,17.75390625 23.203125,19.013671875 23.232421875,19.189453125 23.3203125,20.654296875 23.466796875,22.177734375 23.525390625,23.349609375 22.8515625,25.2978515625 20.947265625,25.986328125 20.478515625,25.95703125 20.244140625,26.162109375 28.212890625,26.162109375 28.212890625,0.46875 28.5791015625,0.2197265625 28.9453125,0z" />
    </g>
  </g>
</svg>