<?xml version="1.0" encoding="utf-8"?>
<!DOCTYPE svg PUBLIC "-//W3C//DTD SVG 1.1//EN" "http://www.w3.org/Graphics/SVG/1.1/DTD/svg11.dtd">
<svg width="34.921875" height="23.203125" xmlns="http://www.w3.org/2000/svg" xmlns:xlink="http://www.w3.org/1999/xlink" xmlns:xml="http://www.w3.org/XML/1998/namespace" version="1.1">
  <g>
    <g>
      <path style="fill:#FF0000;fill-opacity:1" d="M27.94921875,19.189453125L27.24609375,19.365234375 26.982421875,20.009765625 26.6455078125,21.5478515625 26.8835430145264,22.130126953125 27.685546875,22.32421875 29.2236328125,22.060546875 30.263671875,21.416015625 29.53125,21.5625 28.681640625,21.650390625 27.890625,21.4892578125 27.451171875,20.830078125 27.94921875,19.189453125z M12.71484375,18.10546875L12.0263671875,19.130859375 11.748046875,20.185546875 11.89453125,21.03515625 12.0703125,21.181640625 12.275390625,21.357421875 12.65625,21.533203125 13.271484375,21.796875 13.7109375,21.767578125 14.0625,21.5625 12.6708984375,20.4345703125 12.333984375,19.39453125 13.06640625,18.251953125 12.71484375,18.10546875z M19.6875,4.27734375L18.896484375,4.3359375 16.259765625,4.775390625 14.0185546875,5.5810546875 12.978515625,6.09375 10.9423828125,8.1591796875 9.375,10.60546875 9.052734375,10.927734375 8.583984375,11.103515625 8.173828125,11.19140625 7.379150390625,10.887451171875 6.8115234375,9.9755859375 6.30981397628784,9.012451171875 5.712890625,8.5546875 4.453125,8.5546875 2.05078125,8.994140625 1.25244140625,9.55078125 0.908203125,10.341796875 1.68457007408142,11.0888671875 2.724609375,11.42578125 3.57421875,11.30859375 4.39453125,11.279296875 7.734375,12.0263671875 9.140625,12.8759765625 9.90234375,13.9306640625 10.5322265625,15.054931640625 11.54296875,16.11328125 14.208984375,17.75390625 15.05859375,18.10546875 15.966796875,18.45703125 17.255859375,18.75 18.544921875,18.984375 21.2109375,19.16015625 24.052734375,18.984375 26.865234375,18.486328125 27.333984375,18.369140625 28.3483867645264,18.101806640625 28.8720703125,17.8857421875 30.1611328125,17.1533203125 31.904296875,15.908203125 33.0908203125,14.58984375 33.7646484375,13.212890625 33.984375,11.865234375 33.731689453125,10.447998046875 32.9736328125,9.0087890625 30.5859375,6.6357421875 29.4287090301514,5.826416015625 28.7109375,5.244140625 27.7734375,5.0390625 26.4074687957764,4.7607421875 24.4775390625,4.51171875 20.478515625,4.27734375 19.6875,4.27734375z M13.974609375,1.875L12.802734375,2.16796875 11.71875,2.75390625 11.630859375,3.22265625 12.041015625,4.27734375 12.802734375,5.15625 13.212890625,4.951171875 12.5537109375,4.4091796875 12.3046875,3.75 12.5830078125,2.9736328125 13.1066884994507,2.508544921875 14.12109375,2.080078125 14.0625,1.962890625 13.974609375,1.875z M27.48046875,0.99609375L26.9091796875,1.4208984375 26.54296875,2.021484375 26.7333984375,3.0322265625 27.24609375,3.955078125 27.685546875,4.04296875 27.65625,3.955078125 27.333984375,2.958984375 27.71484375,2.2998046875 28.623046875,2.109375 29.267578125,2.16796875 29.912109375,2.314453125 29.94140625,1.9921875 29.53125,1.34765625 28.359375,1.0546875 27.48046875,0.99609375z M27.568359375,0L27.802734375,0.029296875 28.447265625,0.1171875 30.1904296875,0.6591796875 30.908203125,1.9921875 30.849609375,2.490234375 30.64453125,3.046875 30.3515625,3.1640625 30.029296875,3.33984375 29.326171875,3.10546875 28.623046875,2.98828125 28.30078125,3.017578125 28.59375,3.779296875 29.091796875,4.423828125 31.798095703125,6.4453125 33.5888671875,8.349609375 34.588623046875,10.17333984375 34.921875,11.953125 34.552001953125,13.857421875 33.4423828125,15.64453125 31.629638671875,17.2998046875 29.150390625,18.80859375 28.916015625,19.658203125 28.53515625,20.68359375 28.76953125,20.712890625 29.765625,20.537109375 30.64453125,20.361328125 31.11328125,20.68359375 31.171875,21.240234375 30.9814453125,21.968994140625 30.41015625,22.5732421875 28.212890625,23.173828125 27.685546875,23.203125 26.1767578125,22.79296875 25.693359375,21.416015625 25.8251953125,20.5224609375 26.1328125,19.599609375 21.357421875,20.0390625 17.9296875,19.7900390625 14.53125,18.955078125 14.23828125,18.955078125 13.3740224838257,19.12353515625 13.30078125,19.62890625 13.8574209213257,20.29541015625 14.8828125,20.947265625 15.087890625,21.328125 14.5751953125,22.353515625 13.359375,22.734375 13.154296875,22.734375 11.7919921875,22.0751953125 11.0559072494507,21.324462890625 10.810546875,20.2734375 11.1181640625,19.0283203125 11.982421875,17.666015625 10.01953125,15.8642578125 8.5546875,13.59375 6.97265625,12.65625 5.068359375,12.3046875 4.3359375,12.333984375 3.33984375,12.36328125 1.89697241783142,12.191162109375 0.849609375,11.6748046875 0.21240234375,10.975341796875 0,10.25390625 0.325927764177322,9.19921875 1.30371117591858,8.37890625 2.838134765625,7.82958984375 4.833984375,7.587890625 5.15625,7.587890625 6.470947265625,7.8955078125 7.1923828125,8.818359375 7.628173828125,9.78515625 8.0859375,10.224609375 8.349609375,10.166015625 8.61328125,10.078125 10.0634765625,7.6904296875 12.01171875,5.68359375 11.0888671875,4.453125 10.78125,3.33984375 10.78125,3.134765625 10.83984375,2.34375 11.279296875,1.9189453125 12.3779296875,1.376953125 13.9453125,0.966796875 14.765625,1.2744140625 15.087890625,2.431640625 14.912109375,2.63671875 14.736328125,2.900390625 13.623046875,3.2666015625 13.30078125,3.75 13.5205078125,4.16015625 14.53125,4.306640625 17.5341796875,3.57421875 20.595703125,3.369140625 23.3203125,3.486328125 26.044921875,3.75 25.60546875,2.40234375 25.60546875,2.16796875 26.337890625,0.6591796875 27.568359375,0z" />
    </g>
  </g>
</svg>