<?xml version="1.0" encoding="utf-8"?>
<!DOCTYPE svg PUBLIC "-//W3C//DTD SVG 1.1//EN" "http://www.w3.org/Graphics/SVG/1.1/DTD/svg11.dtd">
<svg width="33.310546875" height="44.501953125" xmlns="http://www.w3.org/2000/svg" xmlns:xlink="http://www.w3.org/1999/xlink" xmlns:xml="http://www.w3.org/XML/1998/namespace" version="1.1">
  <g>
    <g>
      <path style="fill:#FF0000;fill-opacity:1" d="M22.412109375,31.7578125L19.716796875,32.4462890625 16.81640625,32.724609375 13.7109375,32.4462890625 11.1328125,31.81640625 11.1328125,43.037109375 22.412109375,43.037109375 22.412109375,31.7578125z M14.736328125,28.41796875L13.9453125,28.4912109375 13.18359375,28.53515625 12.36328125,28.564453125 13.7109375,28.798828125 14.9267578125,28.9599609375 16.0546875,29.033203125 17.666015625,28.9453125 18.28125,28.828125 17.724609375,28.76953125 17.2412109375,28.6962890625 16.845703125,28.53515625 16.640625,28.623046875 15.99609375,28.7109375 15.146484375,28.564453125 14.736328125,28.41796875z M11.279296875,27.626953125L10.8984375,27.65625 10.6640625,27.71484375 10.517578125,27.802734375 12.216796875,28.505859375 11.982421875,28.06640625 11.689453125,27.7734375 11.279296875,27.626953125z M12.744140625,24.2578125L12.0849599838257,25.67138671875 11.865234375,26.982421875 12.216796875,27.1875 12.626953125,27.71484375 13.212890625,27.861328125 13.6083984375,27.744140625 14.23828125,27.568359375 15.087890625,27.36328125 15.322265625,26.337890625 15.4833984375,25.3857421875 15.556640625,24.404296875 14.765625,25.224609375 14.0625,25.283203125 12.744140625,24.2578125z M18.896484375,21.591796875L18.310546875,24.375 17.6953125,24.66796875 16.40625,23.994140625 16.3037109375,24.521484375 16.23046875,25.107421875 16.171875,25.6494140625 16.142578125,26.015625 16.23046875,26.71875 16.494140625,27.48046875 17.1826171875,27.71484375 18.0029296875,27.9345703125 18.837890625,28.1103515625 19.599609375,28.18359375 19.9658203125,27.7734375 20.537109375,27.626953125 20.91796875,27.6708984375 21.181640625,27.83203125 22.5439453125,27.2021484375 23.90625,26.455078125 21.6357421875,23.90625 18.896484375,21.591796875z M20.09765625,21.38671875L22.4597148895264,23.43017578125 24.6240234375,25.869140625 26.4807109832764,28.64501953125 27.919921875,31.69921875 29.2675762176514,31.11328125 30.615234375,30 32.138671875,28.4765625 29.912109375,26.54296875 28.0078125,24.287109375 27.216796875,24.052734375 25.283203125,23.4375 22.67578125,22.470703125 20.09765625,21.38671875z M12.158203125,19.072265625L12.2314453125,19.4677734375 12.3193359375,19.8046875 12.4072265625,20.2001953125 12.5390625,20.771484375 12.6416015625,21.26953125 12.71484375,21.6650390625 12.7587890625,22.0751953125 12.802734375,22.6171875 12.8173828125,22.9248046875 12.83203125,23.232421875 12.861328125,23.583984375 13.271484375,23.49609375 14.326171875,24.31640625 14.853515625,23.7890625 13.798828125,21.767578125 12.65625,19.921875 12.421875,19.541015625 12.3193359375,19.365234375 12.2607421875,19.2626953125 12.158203125,19.072265625z M1.14257836341858,18.369140625L1.7889404296875,21.21826171875 2.87841796875,23.7890625 4.4110107421875,26.08154296875 6.38671875,28.095703125 8.68652248382568,29.7235107421875 11.1621084213257,30.88623046875 13.8134756088257,31.5838623046875 16.640625,31.81640625 21.3427734375,31.083984375 25.4296875,28.9453125 24.345703125,27.3046875 22.32421875,28.41796875 20.1708984375,29.267578125 18.076171875,29.794921875 16.201171875,29.970703125 11.9201650619507,29.267578125 7.9833984375,27.158203125 6.14410400390625,25.55419921875 4.390869140625,23.5546875 2.72369384765625,21.15966796875 1.14257836341858,18.369140625z M32.314453125,17.783203125L31.34765625,19.365234375 30.322265625,20.91796875 31.435546875,22.44140625 31.9921875,20.15625 32.314453125,17.783203125z M11.865234375,16.259765625L12.6123046875,17.9296875 13.505859375,19.51171875 13.8720703125,20.09765625 14.296875,20.771484375 14.765625,21.533203125 15.673828125,23.26171875 15.791015625,23.525390625 16.7578125,23.14453125 17.548828125,23.5546875 18.10546875,20.595703125 17.4609375,20.244140625 16.7138671875,19.8193359375 15.732421875,19.248046875 11.865234375,16.259765625z M11.982421875,7.294921875L10.341796875,7.3388671875 9.4482421875,7.5 9.0234375,7.8369140625 8.7890625,8.408203125 8.7744140625,8.5986328125 8.759765625,8.96484375 8.84765625,9.873046875 9.2724609375,11.1181640625 9.990234375,12.509765625 10.83984375,13.740234375 11.689453125,14.794921875 12.65625,15.76171875 14.208984375,17.05078125 16.025390625,18.28125 17.28515625,19.013671875 18.7646484375,19.74609375 20.185546875,20.390625 21.26953125,20.859375 23.8037109375,21.8408203125 26.396484375,22.734375 29.3115234375,23.671875 30.391845703125,24.0234375 31.083984375,24.2578125 30.087890625,22.939453125 29.4287109375,22.060546875 28.828125,21.298828125 25.458984375,17.021484375 22.822265625,13.59375 21.03515625,10.986328125 19.892578125,9.1552734375 19.16015625,8.056640625 19.1015625,8.291015625 17.4462890625,7.8662109375 15.1171875,7.470703125 13.740234375,7.353515625 11.982421875,7.294921875z M9.111328125,1.611328125L9.2578125,1.611328125 9.7998046875,1.69921875 10.341796875,2.05078125 8.994140625,2.666015625 8.61328125,2.05078125 9.111328125,1.611328125z M9.140625,0.9375L7.96875,1.23046922683716 7.646484375,2.138671875 8.0859375,3.0322265625 9.140625,3.251953125 9.609375,3.251953125 9.287109375,5.68359375 8.4375,5.654296875 8.642578125,3.984375 7.44140625,3.486328125 6.767578125,2.34375 6.26953125,2.724609375 6.03515625,3.193359375 7.1337890625,3.544921875 7.67578125,4.013671875 8.0126953125,4.599609375 8.291015625,5.5078125 8.408203125,6.4453125 8.466796875,7.5 8.642578125,7.119140625 8.876953125,6.796875 9.228515625,6.533203125 9.931640625,6.38671875 11.396484375,6.357421875 13.06640625,6.4013671875 14.47265625,6.50390625 16.376953125,6.7529296875 18.486328125,7.1484375 17.0947265625,5.712890625 15.908203125,4.892578125 15.1025390625,4.3212890625 14.58984375,3.33984375 13.828125,2.2265625 12.24609375,1.2890625 12.65625,1.611328125 13.0078125,2.05078125 13.2568359375,2.6806640625 13.359375,3.603515625 13.18359375,4.453125 12.65625,5.185546875 11.748046875,5.6982421875 10.4296875,5.888671875 10.2392578125,5.8740234375 9.873046875,5.830078125 9.873046875,4.892578125 10.166015625,4.9072265625 10.37109375,4.921875 11.4111328125,4.8193359375 12.0263671875,4.51171875 12.333984375,3.984375 12.421875,3.193359375 12.3046875,2.6513671875 12.0703125,2.05078125 11.0888671875,1.23046922683716 9.84375,0.9375 9.140625,0.9375z M10.01953125,0L11.8579092025757,0.223388671875 13.505859375,0.8935546875 14.853515625,2.047119140625 15.791015625,3.720703125 18.5009765625,5.8447265625 20.91796875,9.140625 22.393798828125,11.363525390625 24.3017578125,13.9892578125 26.6418437957764,17.0471210479736 29.4140625,20.56640625 31.0107421875,18.1494140625 32.431640625,15.64453125 33.310546875,15.87890625 33.017578125,19.7900390625 32.05078125,23.5546875 31.787109375,23.61328125 32.373046875,24.345703125 32.75390625,24.8291015625 33.017578125,25.13671875 33.22265625,25.341796875 32.578125,26.044921875 31.552734375,25.4443359375 30.380859375,24.9609375 30.05859375,25.283203125 31.5087890625,26.7333984375 33.10546875,28.037109375 33.22265625,28.7109375 31.81640625,30.146484375 29.8828125,31.7724609375 27.744140625,32.6953125 27.216796875,32.4609375 26.9091796875,31.728515625 26.6015625,31.025390625 25.95703125,29.677734375 24.931640625,30.3955078125 23.876953125,31.0546875 23.876953125,43.037109375 32.98828125,43.037109375 32.98828125,44.501953125 0.46874988079071,44.501953125 0.46874988079071,43.037109375 9.66796875,43.037109375 9.66796875,31.259765625 5.6689453125,28.721923828125 2.69531202316284,25.3271484375 0.79101550579071,21.075439453125 0,15.966796875 0.908203363418579,15.732421875 3.05419921875,19.89990234375 4.92187547683716,22.734375 6.9140625,24.9169921875 8.994140625,26.748046875 9.6240234375,26.9677734375 10.1953125,27.041015625 10.7666015625,26.7041015625 11.220703125,25.83984375 11.513671875,25.01953125 11.8359375,23.818359375 11.953125,22.96875 11.89453125,22.2509765625 11.7626953125,21.3720703125 11.5869140625,20.44921875 11.396484375,19.62890625 11.0009765625,17.9296875 10.83984375,16.435546875 10.8544921875,15.7177734375 10.869140625,15.17578125 9.0234375,12.65625 8.0859375,10.78125 7.646484375,7.177734375 7.4267578125,5.654296875 6.826171875,4.306640625 6.13769483566284,3.9111328125 5.44921875,3.837890625 5.185546875,3.662109375 5.15625,3.45703125 5.1416015625,3.310546875 5.126953125,3.193359375 5.302734375,2.7099609375 5.80078172683716,2.109375 6.3427734375,1.5673828125 6.708984375,1.171875 7.3681640625,0.600585460662842 8.14453125,0.234375 9.169921875,0.0292973518371582 10.01953125,0z" />
    </g>
  </g>
</svg>