<?xml version="1.0" encoding="utf-8"?>
<!DOCTYPE svg PUBLIC "-//W3C//DTD SVG 1.1//EN" "http://www.w3.org/Graphics/SVG/1.1/DTD/svg11.dtd">
<svg width="44.267578125" height="40.166015625" xmlns="http://www.w3.org/2000/svg" xmlns:xlink="http://www.w3.org/1999/xlink" xmlns:xml="http://www.w3.org/XML/1998/namespace" version="1.1">
  <g>
    <g>
      <path style="fill:#FF0000;fill-opacity:1" d="M19.716796875,28.037109375L19.74609375,28.4765625 19.7607421875,28.9599609375 19.775390625,29.560546875 19.74609375,30.52734375 19.658203125,31.5234375 18.251953125,39.31640625 25.25390625,39.31640625 24.55078125,31.40625 19.716796875,28.037109375z M17.724609375,26.3671875L18.955078125,29.619140625 18.779296875,27.36328125 17.724609375,26.3671875z M7.236328125,9.140625L7.6318359375,9.2724609375 7.96875,9.462890625 7.119140625,10.048828125 6.9140625,9.638671875 7.236328125,9.140625z M8.84765625,7.55859375L7.25830078125,7.6904296875 6.181640625,8.0859375 4.599609375,9.755859375 4.599609375,10.458984375 5.56640625,11.19140625 6.02050733566284,11.8798847198486 6.38671827316284,12.94921875 7.001953125,15.0146484375 7.96875,17.138671875 9.42626953125,19.19677734375 11.455078125,20.859375 12.509765625,21.50390625 13.798828125,22.265625 15.3515625,23.173828125 16.318359375,23.7890625 17.314453125,24.638671875 18.7939453125,26.0595703125 21.357421875,28.06640625 24.2578125,30.1171875 23.935546875,29.091796875 22.998046875,27.1875 23.84765625,26.806640625 24.609375,28.388671875 25.458984375,28.359375 26.2353515625,28.3154296875 26.982421875,28.30078125 31.552734375,28.9453125 32.3583984375,29.208984375 33.4716796875,29.6337890625 34.74609375,30.1611328125 36.064453125,30.703125 39.31640625,32.109375 43.154296875,29.8828125 40.78125,28.798828125 38.6865234375,27.83203125 36.826171875,26.923828125 29.58984375,26.25 21.6796875,24.814453125 17.9150390625,23.54736328125 15,21.9140625 12.8466787338257,20.26611328125 11.42578125,18.955078125 10.634765625,17.783203125 10.37109375,16.552734375 10.78125,15.6298828125 11.806640625,15.3515625 12.59765625,15.46875 14.033203125,15.732421875 16.025390625,16.11328125 15.87890625,17.021484375 13.974609375,16.640625 12.5830078125,16.376953125 11.748046875,16.259765625 11.42578125,16.2890625 11.30859375,16.7578125 11.4697265625,17.3876953125 11.8505859375,17.9736328125 12.333984375,18.486328125 12.802734375,18.896484375 15.908203125,21.4306640625 19.0576171875,23.0712890625 22.880859375,24.1845703125 25.2319316864014,24.642333984375 28.0078125,25.107421875 31.640625,25.5322265625 34.21875,25.693359375 35.9912109375,25.83984375 37.1484375,26.044921875 38.4375,26.4697265625 39.521484375,26.806640625 40.517578125,27.099609375 36.181640625,25.166015625 34.3798828125,24.345703125 32.578125,23.49609375 30.9375,22.6904296875 29.6484375,21.97265625 25.25390625,19.2919921875 20.654296875,16.34765625 18.3929443359375,14.9890146255493 16.29638671875,14.0185565948486 14.3646240234375,13.4362802505493 12.59765625,13.2421875 12.158203125,12.861328125 11.7626953125,11.6015625 11.25,9.90234375 10.60546875,7.79296875 10.107421875,7.55859375 8.84765625,7.55859375z M11.71875,0L12.4365234375,0.8642578125 12.59765625,2.40234375 12.3486328125,5.185546875 11.8359375,7.587890625 11.71875,8.056640625 13.0078125,12.3046875 15.186767578125,12.6818857192993 17.5634765625,13.5205097198486 20.137939453125,14.8205575942993 22.91015625,16.58203125 28.3740234375,20.1416015625 33.251953125,22.880859375 37.9248046875,25.078125 42.71484375,26.982421875 42.71484375,27.421875 42.0703125,27.568359375 41.396484375,27.65625 40.6640625,27.685546875 44.267578125,29.384765625 44.091796875,30.322265625 39.287109375,33.10546875 36.357421875,31.728515625 33.409423828125,30.479736328125 30.9521484375,29.7216796875 28.9782695770264,29.337158203125 27.48046875,29.208984375 26.572265625,29.2236328125 25.78125,29.267578125 24.990234375,29.296875 25.4296875,30.791015625 25.517578125,31.2890625 26.220703125,39.31640625 27.626953125,39.31640625 28.53515625,40.166015625 10.751953125,40.166015625 11.71875,39.31640625 17.314453125,39.31640625 18.720703125,31.201171875 16.171875,24.814453125 11.982421875,22.32421875 8.759765625,19.8046875 7.470703125,18.2080078125 6.50390672683716,16.40625 5.771484375,14.47265625 5.185546875,12.509765625 4.306640625,11.3818359375 2.9296875,10.927734375 1.77246069908142,11.0302734375 0,11.337890625 0.234374761581421,10.7666015625 0.805663824081421,10.1953125 1.88964867591858,9.7265625 3.63281202316284,9.462890625 5.1416015625,7.6171875 6.38671827316284,6.9140625 8.1298828125,6.6943359375 10.48828125,6.62109375 11.4404296875,3.369140625 11.71875,0z" />
    </g>
  </g>
</svg>