<?xml version="1.0" encoding="utf-8"?>
<!DOCTYPE svg PUBLIC "-//W3C//DTD SVG 1.1//EN" "http://www.w3.org/Graphics/SVG/1.1/DTD/svg11.dtd">
<svg width="44.47265625" height="29.736328125" xmlns="http://www.w3.org/2000/svg" xmlns:xlink="http://www.w3.org/1999/xlink" xmlns:xml="http://www.w3.org/XML/1998/namespace" version="1.1">
  <g>
    <g>
      <path style="fill:#FF0000;fill-opacity:1" d="M15.05859375,21.26953125L13.740234375,24.7705078125 12.509765625,28.330078125 16.259765625,28.330078125 17.9296875,23.84765625 16.787109375,22.822265625 15.8349609375,21.97265625 15.05859375,21.26953125z M6.240234375,2.314453125L7.265625,2.8125 6.15234375,3.57421875 5.830078125,2.98828125 6.240234375,2.314453125z M7.177734375,0.9375L5.361328125,1.23046875 3.63281202316284,2.373046875 3.0322265625,2.99560689926147 2.6953125,3.22265625 2.3876953125,3.33984375 1.84570288658142,3.603515625 3.15673828125,4.57031393051147 4.3359375,6.298828125 5.244140625,7.939453125 5.625,8.642578125 6.21093702316284,9.609375 8.6865234375,13.4326171875 11.806640625,17.138671875 12.8173828125,18.10546875 13.53515625,18.75 18.193359375,22.8515625 18.193359375,22.470703125 18.486328125,22.001953125 19.6875,21.6650390625 21.0498046875,21.4453125 22.3828125,21.328125 23.466796875,21.298828125 24.8583984375,21.3720703125 26.9677734375,21.6357421875 29.5166015625,22.1630859375 32.255859375,23.02734375 34.453125,23.90625 35.9619140625,24.5361328125 37.0751953125,25.0341796875 38.115234375,25.5322265625 39.3896484375,26.162109375 41.19140625,27.01171875 40.8544921875,26.0009765625 40.751953125,25.078125 41.4111328125,22.939453125 42.861328125,21.5625 38.232421875,21.005859375 36.4892578125,20.7861328125 34.921875,20.5810546875 33.75,20.4052734375 33.1640625,20.2734375 31.025390625,20.185546875 29.3591289520264,20.064697265625 27.2900390625,19.8193359375 22.470703125,18.9404296875 17.373046875,17.490234375 12.7587890625,15.4248046875 10.8874502182007,14.15771484375 9.404296875,12.7294921875 8.4375,11.129150390625 8.115234375,9.345703125 8.466796875,7.880859375 9.66796875,7.44140625 10.517578125,7.3828125 11.220703125,7.265625 11.865234375,7.119140625 12.099609375,7.998046875 11.220703125,8.232421875 10.341796875,8.3935546875 9.462890625,8.466796875 9.052734375,9.0234375 9.4189453125,10.9130859375 10.751953125,12.83203125 13.4033203125,14.7802734375 15.325927734375,15.750732421875 17.724609375,16.69921875 20.372314453125,17.508544921875 23.4521484375,18.2373046875 27.0300273895264,18.841552734375 31.171875,19.27734375 32.021484375,19.27734375 33.0322265625,19.2626953125 34.04296875,19.21875 36.064453125,19.130859375 31.4501953125,17.5048828125 27.890625,15.263671875 25.986328125,13.59375 22.939453125,11.2939453125 19.189453125,9.052734375 17.1826171875,7.998046875 15.205078125,7.08984375 13.3447256088257,5.9326171875 11.689453125,4.21875 10.3564453125,2.5048828125 9.375,1.318359375 8.291015625,1.0400390625 7.177734375,0.9375z M7.177734375,0L9.140625,0.2490234375 10.25390625,0.849609375 11.71875,2.724609375 13.8134756088257,5.06103658676147 15.703125,6.328125 17.8271484375,7.28759765625 20.5078125,8.701171875 23.2031230926514,10.34912109375 25.3125,11.89453125 26.982421875,13.30078125 29.794921875,15.5126953125 32.34375,16.9921875 35.33203125,18.02490234375 39.375,18.896484375 39.43359375,19.8046875 37.763671875,19.951171875 44.326171875,20.80078125 44.47265625,21.62109375 43.06640625,22.529296875 42.1142578125,23.5986328125 41.689453125,25.048828125 41.7919921875,25.810546875 42.1142578125,26.689453125 42.6708984375,27.509765625 43.4765625,28.154296875 42.59765625,28.76953125 39.26513671875,27.139892578125 36.474609375,25.8251953125 32.080078125,23.935546875 27.7001953125,22.6611328125 23.466796875,22.20703125 21.591796875,22.294921875 20.21484375,22.470703125 19.072265625,22.705078125 19.072265625,23.583984375 17.255859375,28.330078125 22.5,28.330078125 23.14453125,28.623046875 23.3203125,29.091796875 23.26171875,29.35546875 22.880859375,29.736328125 22.96875,29.501953125 22.822265625,29.3115234375 22.5,29.267578125 13.740234375,29.267578125 13.623046875,29.4140625 13.5205078125,29.5751953125 13.41796875,29.736328125 13.4765625,29.501953125 13.06640625,29.267578125 10.95703125,29.267578125 10.78125,29.35546875 10.6494140625,29.501953125 10.576171875,29.736328125 10.576171875,29.267578125 2.08007788658142,29.267578125 1.52343726158142,29.35546875 1.11328125,29.736328125 1.28906226158142,28.798828125 2.05078148841858,28.330078125 11.54296875,28.330078125 12.0849609375,26.982421875 12.451171875,26.103515625 12.685546875,25.458984375 13.30078125,23.525390625 13.740234375,21.9287109375 13.9453125,20.625 13.9453125,20.302734375 10.458984375,17.0654296875 7.470703125,13.359375 5.25878858566284,9.8583984375 3.63281202316284,6.9140625 2.09472680091858,4.74609375 1.175537109375,4.13086080551147 0.146484613418579,3.92578125 0,3.603515625 2.28515648841858,2.431640625 4.4970703125,0.64453125 7.177734375,0z" />
    </g>
  </g>
</svg>