<?xml version="1.0" encoding="utf-8"?>
<!DOCTYPE svg PUBLIC "-//W3C//DTD SVG 1.1//EN" "http://www.w3.org/Graphics/SVG/1.1/DTD/svg11.dtd">
<svg width="44.296875" height="22.67578125" xmlns="http://www.w3.org/2000/svg" xmlns:xlink="http://www.w3.org/1999/xlink" xmlns:xml="http://www.w3.org/XML/1998/namespace" version="1.1">
  <g>
    <g>
      <path style="fill:#FF0000;fill-opacity:1" d="M9.19921875,4.39453125L9.931640625,4.716796875 9.052734375,5.302734375 8.84765625,4.892578125 9.19921875,4.39453125z M26.923828125,3.1640625L30.8203125,11.6015625 31.025390625,11.455078125 31.1865234375,11.3671875 31.318359375,11.30859375 31.611328125,11.2939453125 31.904296875,11.337890625 32.255859375,11.42578125 32.255859375,11.1328125 32.2705078125,10.869140625 32.34375,10.6640625 32.51953125,10.458984375 32.75390625,10.3125 32.98828125,10.166015625 26.923828125,3.1640625z M10.546875,2.841796875L10.048828125,2.87109375 7.79296875,3.4130859375 6.8115234375,4.3359375 6.5478515625,4.9365234375 6.27319288253784,5.159912109375 5.537109375,5.56640625 6.09375,5.5078125 6.38671875,5.5078125 7.2509765625,5.8154296875 8.0859375,6.708984375 8.37890625,7.265625 9.2724609375,8.3203125 10.986328125,9.0234375 11.25,9.755859375 10.5908203125,11.044921875 10.37109375,12.216796875 10.623779296875,13.5205078125 11.3818359375,15.087890625 14.091796875,19.072265625 13.681640625,19.833984375 0.791015863418579,19.833984375 0.791015863418579,21.73828125 43.271484375,21.73828125 42.59033203125,21.0104370117188 41.484375,20.350341796875 39.95361328125,19.7579956054688 37.998046875,19.2333984375 34.39453125,18.270263671875 32.255859375,17.34375 31.201171875,16.669921875 26.0852031707764,13.070068359375 21.9873046875,10.0634765625 15.087890625,5.126953125 13.18359375,3.837890625 11.89453125,3.1494140625 10.78125,2.841796875 10.546875,2.841796875z M25.4296875,0L35.830078125,11.806640625 34.98779296875,11.19140625 34.1015625,10.986328125 33.22265625,11.279296875 32.9296875,12.158203125 32.98828125,12.744140625 32.080078125,12.12890625 30.9814453125,12.9345703125 30.615234375,14.1796875 25.283203125,1.7578125 19.716796875,7.265625 26.923828125,12.5390625 29.326171875,14.23828125 31.787109375,15.9375 32.724609375,16.5234375 34.16015625,17.2412109375 35.68359375,17.6953125 37.734375,18.193359375 40.62744140625,19.0283203125 42.509765625,19.833984375 43.64501953125,20.70556640625 44.296875,21.73828125 44.208984375,22.265625 43.916015625,22.67578125 0,22.67578125 0,18.896484375 12.802734375,18.896484375 10.576171875,15.498046875 9.7705078125,13.857421875 9.462890625,12.509765625 9.43359375,12.24609375 9.609375,11.0888671875 10.13671875,9.755859375 8.558349609375,8.95751953125 7.6318359375,7.79296875 6.939697265625,6.7822265625 6.064453125,6.4453125 5.859375,6.4453125 5.1708984375,6.6650390625 4.51171875,7.001953125 3.779296875,6.533203125 4.4970703125,5.2294921875 5.771484375,4.39453125 6.353759765625,3.350830078125 7.3974609375,2.5634765625 10.693359375,1.904296875 11.8359365463257,2.135009765625 13.212890625,2.8271484375 16.58203125,5.0390625 18.603515625,6.4453125 25.4296875,0z" />
    </g>
  </g>
</svg>