<?xml version="1.0" encoding="utf-8"?>
<!DOCTYPE svg PUBLIC "-//W3C//DTD SVG 1.1//EN" "http://www.w3.org/Graphics/SVG/1.1/DTD/svg11.dtd">
<svg width="43.828125" height="22.96875" xmlns="http://www.w3.org/2000/svg" xmlns:xlink="http://www.w3.org/1999/xlink" xmlns:xml="http://www.w3.org/XML/1998/namespace" version="1.1">
  <g>
    <g>
      <path style="fill:#FF0000;fill-opacity:1" d="M14.150390625,20.302734375L15.6591796875,21.4013671875 17.197265625,21.97265625 17.724609375,21.767578125 16.552734375,20.68359375 16.2890625,20.625 15.99609375,20.625 14.4140625,20.361328125 14.208984375,20.302734375 14.150390625,20.302734375z M29.94140625,17.431640625L29.3408203125,17.7099609375 28.740234375,18.017578125 30.615234375,18.515625 32.490234375,18.779296875 32.51953125,18.779296875 32.578125,18.720703125 32.4609375,18.369140625 32.431640625,18.369140625 32.40234375,18.33984375 32.34375,18.310546875 31.0986328125,17.98828125 29.94140625,17.431640625z M6.00585985183716,11.66015625L6.9140625,12.216796875 6.03515577316284,12.48046875 5.859375,12.48046875 5.68359375,12.01171875 6.00585985183716,11.66015625z M41.953125,8.14453125L39.31640625,10.01953125 36.73828125,11.89453125 36.943359375,12.48046875 37.03125,12.94921875 37.03125,13.154296875 36.884765625,14.1064453125 36.650390625,14.82421875 41.923828125,17.666015625 42.69287109375,15.3515625 42.94921875,12.802734375 42.7001953125,10.3857421875 41.953125,8.14453125z M12.568359375,7.529296875L11.923828125,7.55859375 10.6640625,7.6171875 9.375,7.705078125 7.470703125,7.939453125 5.63964796066284,8.426513671875 4.541015625,8.9501953125 3.8525390625,9.803466796875 3.251953125,11.279296875 2.4755859375,12.95654296875 1.25976538658142,14.4140625 2.578125,14.970703125 3.8671875,15.5859375 3.720703125,15.966796875 3.57421875,16.376953125 5.91796875,17.05078125 8.232421875,17.724609375 9.55078125,16.34765625 9.9609375,15.64453125 10.458984375,13.564453125 10.341796875,12.392578125 10.048828125,11.25 9.78515625,10.546875 10.634765625,10.166015625 10.83984375,10.693359375 11.2353515625,12.0556640625 11.396484375,13.447265625 11.3671875,13.857421875 10.8544921875,15.9521484375 9.31640625,18.046875 11.0302734375,18.486328125 12.744140625,18.984375 13.505859375,19.189453125 14.4287109375,19.423828125 15.3515625,19.599609375 16.259765625,19.716796875 16.5234375,19.74609375 16.7578125,19.74609375 19.189453125,19.365234375 21.62109375,18.80859375 24.052734375,18.28125 26.513671875,17.841796875 28.18359375,17.197265625 28.9892578125,16.8603515625 29.765625,16.46484375 32.75390625,15.556640625 35.712890625,14.619140625 35.712890625,14.58984375 35.9326171875,14.091796875 36.09375,13.564453125 36.123046875,13.41796875 36.123046875,13.0078125 35.9765625,12.48046875 35.9033203125,12.333984375 35.771484375,12.1875 35.2239990234375,12.0391845703125 34.22607421875,11.74072265625 32.7777099609375,11.2921142578125 30.87890625,10.693359375 22.67578125,8.5546875 21.4453125,8.3203125 19.87060546875,8.07861328125 17.841796875,7.822265625 15.87158203125,7.62451171875 14.47265625,7.55859375 13.857421875,7.529296875 12.568359375,7.529296875z M10.95703125,0.9375L8.115234375,6.884765625 9.2578125,6.767578125 11.865234375,6.591796875 13.154296875,6.5625 14.443359375,6.591796875 16.376953125,6.708984375 18.310546875,6.9140625 23.6279296875,7.8076171875 26.3195781707764,8.426513671875 28.505859375,9.0234375 30.99609375,9.755859375 31.7578125,9.990234375 32.490234375,10.224609375 37.1484375,0.9375 10.95703125,0.9375z M10.634765625,0L37.880859375,0 38.349609375,0.615234375 33.3984375,10.517578125 34.6435546875,10.927734375 35.947265625,11.25 36.95068359375,10.53955078125 38.5546875,9.404296875 41.806640625,7.119140625 42.509765625,7.177734375 43.040771484375,8.140869140625 43.4619140625,9.5068359375 43.828125,12.890625 43.53515625,15.8642578125 42.568359375,18.45703125 42.275390625,18.57421875 41.953125,18.75 35.9765625,15.498046875 33.6474609375,16.23046875 31.318359375,16.962890625 31.845703125,17.16796875 32.373046875,17.373046875 33.2080078125,17.7685546875 33.486328125,18.6328125 33.2373046875,19.39453125 32.548828125,19.74609375 32.255859375,19.716796875 29.443359375,19.248046875 27.6708965301514,18.97705078125 26.806640625,18.80859375 26.4129619598389,18.804931640625 25.6420879364014,18.9111328125 24.4940166473389,19.127197265625 22.96875,19.453125 19.95849609375,20.10498046875 17.783203125,20.537109375 18.193359375,20.91796875 18.57421875,21.298828125 18.603515625,21.4453125 18.662109375,21.591796875 18.3544921875,22.6611328125 17.548828125,22.96875 16.171875,22.6171875 14.53125,21.708984375 13.88671875,21.26953125 11.8359375,19.658203125 3.16406297683716,17.2265625 2.71728515625,17.105712890625 1.787109375,16.8603515625 0.0292969942092896,15.703125 0.0292969942092896,15.234375 0.234375,15 0.146484136581421,14.970703125 0.0878908634185791,14.5751953125 0,14.1796875 1.50878930091858,12.65625 2.49023461341858,10.72265625 2.87109375,9.755859375 4.14550828933716,8.1298828125 5.29907178878784,7.562255859375 7.03125,7.060546875 10.25390625,0.234375 10.634765625,0z" />
    </g>
  </g>
</svg>