<?xml version="1.0" encoding="utf-8"?>
<!DOCTYPE svg PUBLIC "-//W3C//DTD SVG 1.1//EN" "http://www.w3.org/Graphics/SVG/1.1/DTD/svg11.dtd">
<svg width="44.501953125" height="44.794921875" xmlns="http://www.w3.org/2000/svg" xmlns:xlink="http://www.w3.org/1999/xlink" xmlns:xml="http://www.w3.org/XML/1998/namespace" version="1.1">
  <g>
    <g>
      <path style="fill:#FF0000;fill-opacity:1" d="M7.47070360183716,11.689453125L8.525390625,12.216796875 7.47070360183716,12.744140625 7.11914110183716,12.216796875 7.47070360183716,11.689453125z M10.60546875,1.58203125L10.8984375,4.013671875 10.986328125,5.244140625 11.044921875,6.474609375 11.4697265625,5.068359375 11.806640625,3.69140625 10.60546875,1.58203125z M13.095703125,1.376953125L12.7734375,3.69140625 11.953125,6.73828125 11.4404296875,8.1591796875 10.869140625,9.521484375 10.546875,9.84375 7.36083984375,11.09619140625 4.13085985183716,13.388671875 2.73376512527466,14.6887216567993 1.73584032058716,15.8349628448486 1.13708543777466,16.8273944854736 0.937500596046448,17.666015625 0.952148795127869,17.87109375 0.996094107627869,18.076171875 1.05468761920929,18.076171875 1.47949230670929,17.6953125 1.99218761920929,17.373046875 3.04687547683716,16.845703125 5.68359422683716,15.52734375 8.49609375,14.560546875 8.7890625,14.6484375 10.7666006088257,16.6845722198486 11.953125,19.62890625 12.5463857650757,23.13720703125 12.744140625,26.865234375 12.5170888900757,31.03271484375 11.8359375,35.7421875 10.6347646713257,40.14404296875 8.90625,43.212890625 8.525390625,43.2861328125 8.349609375,43.359375 8.02734375,43.1689453125 7.67578172683716,43.037109375 7.10449266433716,43.2421875 6.97265672683716,43.857421875 9.169921875,43.857421875 9.7998046875,43.2568359375 10.576171875,42.94921875 11.5649404525757,40.10009765625 12.421875,36.591796875 13.0810546875,33.310546875 13.41796875,31.259765625 14.150390625,29.5166015625 15.673828125,28.857421875 16.728515625,29.091796875 17.7978515625,29.619140625 18.603515625,30.1318359375 18.896484375,30.3515625 20.1708984375,31.1572265625 20.625,31.40625 21.6943359375,31.875 22.529296875,32.1533203125 23.2470703125,32.3291015625 23.96484375,32.490234375 24.7265625,32.1826171875 25.634765625,31.962890625 26.19140625,32.0654296875 26.6015625,32.40234375 28.271484375,34.1015625 27.568359375,34.74609375 26.4990234375,33.7060546875 25.9130859375,33.1494140625 25.6494140625,32.9150390625 25.546875,32.87109375 24.5654296875,33.28125 24.31640625,34.306640625 24.6459941864014,36.15966796875 25.634765625,38.61328125 26.6455059051514,40.7373046875 26.982421875,41.66015625 26.484375,42.802734375 25.517578125,43.388671875 18.896484375,43.388671875 18.251953125,43.212890625 17.63671875,43.037109375 17.138671875,43.330078125 17.021484375,43.857421875 32.255859375,43.857421875 32.5048828125,42.2021484375 32.607421875,41.044921875 32.607421875,40.546875 32.021484375,36.73828125 31.494140625,35.15625 31.11328125,34.248046875 30.5859375,33.5302734375 29.6484375,32.548828125 23.14453125,26.3671875 20.1708984375,23.525390625 18.57421875,22.001953125 18.046875,21.3427734375 17.314453125,20.068359375 16.2890625,18.017578125 14.912109375,15 13.7329092025757,12.5170907974243 13.125,11.455078125 12.861328125,11.0888671875 12.7734375,10.693359375 13.212890625,9.140625 13.7109375,7.1484375 14.1064453125,5.2587890625 14.23828125,3.80859375 13.916015625,2.5927734375 13.095703125,1.376953125z M10.224609375,0L10.95703125,0.703125476837158 11.572265625,1.376953125 12.0703125,2.021484375 12.3046875,0.29296875 13.154296875,0.087890625 14.70703125,2.0654296875 15.17578125,4.130859375 15.0439453125,5.38330078125 14.6484375,7.265625 14.1650390625,9.228515625 13.740234375,10.72265625 14.853515625,12.65625 15.791015625,14.6484375 16.5673828125,16.3623046875 17.1533203125,17.6220703125 17.7099609375,18.7646484375 18.3984375,20.09765625 19.50439453125,21.5478515625 21.650390625,23.671875 24.990234375,26.7919921875 29.58984375,31.201171875 31.11328125,32.6953125 32.021484375,34.02099609375 32.75390625,35.771484375 33.2666015625,37.67578125 33.544921875,40.400390625 33.1640625,43.359375 33.837890625,41.337890625 34.833984375,38.4228515625 36.03515625,34.951171875 37.294921875,31.2890625 40.48828125,22.119140625 40.517578125,21.9140625 40.517578125,21.591796875 40.517578125,20.859375 40.6787109375,19.3798828125 40.95703125,18.1201171875 41.4111328125,17.255859375 42.12890625,16.93359375 42.12890625,15.029296875 43.06640625,16.93359375 44.501953125,15.99609375 43.53515625,17.40234375 43.740234375,17.6953125 43.828125,18.134765625 43.623046875,18.9990234375 43.0078125,20.126953125 42.3486328125,21.15234375 41.54296875,22.08984375 33.837890625,44.794921875 16.5234375,44.794921875 16.083984375,44.23828125 16.083984375,43.857421875 16.6552734375,42.509765625 17.724609375,42.041015625 19.04296875,42.451171875 25.4296875,42.451171875 25.8251953125,42.0849609375 26.015625,41.6015625 24.7412109375,38.96484375 23.935546875,36.97265625 23.408203125,34.248046875 23.49609375,33.33984375 20.70556640625,32.4755859375 18.603515625,31.23046875 17.021484375,30.17578125 15.732421875,29.82421875 15.17578125,29.94140625 14.6484375,30.380859375 13.59375,35.5078125 13.1652822494507,37.4798583984375 12.8173818588257,39.03076171875 12.5500478744507,40.1605224609375 12.36328125,40.869140625 11.9677734375,42.0263671875 11.337890625,43.53515625 10.869140625,43.857421875 10.2978515625,44.033203125 9.90234375,44.47265625 9.43359375,44.794921875 6.62109422683716,44.794921875 6.24023485183716,44.560546875 6.03515625,43.76953125 6.47460985183716,42.5830078125 7.55859422683716,42.099609375 8.408203125,42.333984375 9.6240234375,40.2978515625 10.458984375,37.734375 10.810546875,36.123046875 11.5576171875,31.58203125 11.806640625,27.216796875 11.630859375,23.7158203125 11.1328125,20.302734375 10.1220703125,17.4096698760986 8.4375,15.52734375 6.03515625,16.3330078125 3.69140672683716,17.578125 1.88232457637787,18.6547870635986 0.96679699420929,19.013671875 0.908203721046448,19.013671875 0.234375357627869,18.69140625 0,17.900390625 0.219726771116257,16.7614765167236 0.878906607627869,15.5126972198486 1.97753942012787,14.1540536880493 3.51562547683716,12.685546875 6.92138671875,10.2392578125 9.990234375,8.994140625 10.166015625,6.650390625 10.107421875,5.2880859375 9.931640625,3.6328125 9.7998046875,2.6513671875 9.66796875,1.611328125 9.4921875,0.46875 10.224609375,0z" />
    </g>
  </g>
</svg>