<?xml version="1.0" encoding="utf-8"?>
<!DOCTYPE svg PUBLIC "-//W3C//DTD SVG 1.1//EN" "http://www.w3.org/Graphics/SVG/1.1/DTD/svg11.dtd">
<svg width="40.13671875" height="44.6484375" xmlns="http://www.w3.org/2000/svg" xmlns:xlink="http://www.w3.org/1999/xlink" xmlns:xml="http://www.w3.org/XML/1998/namespace" version="1.1">
  <g>
    <g>
      <path style="fill:#FF0000;fill-opacity:1" d="M29.70703125,30.205078125L28.9599590301514,33.28857421875 28.2421875,35.80078125 27.5903301239014,37.7783203125 27.041015625,39.2578125 26.3525390625,41.1474609375 26.103515625,41.89453125 25.8984375,42.0849609375 25.48828125,42.36328125 24.2724609375,43.154296875 23.642578125,43.7109375 24.84375,43.7109375 24.990234375,43.271484375 25.224609375,42.744140625 25.4296875,42.7294921875 25.72265625,42.685546875 26.044921875,42.626953125 26.630859375,41.455078125 27.1875,40.1513671875 27.802734375,38.466796875 28.8720703125,35.2587890625 29.70703125,33.017578125 30.029296875,32.28515625 30.439453125,31.5234375 30.9375,30.703125 29.70703125,30.205078125z M7.03125,23.4375L6.767578125,23.7890625 8.37890625,25.1953125 8.642578125,24.84375 7.03125,23.4375z M8.5546875,21.4453125L7.939453125,23.3203125 8.5546875,23.876953125 9.66796875,22.55859375 8.5546875,21.4453125z M12.94921875,17.314453125L12.2314453125,19.98046875 10.78125,22.294921875 11.6015625,23.84765625 12.275390625,26.162109375 12.6489248275757,28.1396484375 12.7734375,28.916015625 12.12890625,32.578125 10.751953125,36.73828125 9.84375,39.08203125 9.5947265625,39.697265625 9.19921875,40.576171875 8.671875,41.6162109375 8.056640625,42.685546875 7.470703125,42.9052734375 6.767578125,43.1689453125 6.15234327316284,43.447265625 5.85937452316284,43.7109375 7.265625,43.7109375 7.8515625,43.037109375 8.818359375,42.48046875 14.619140625,29.47265625 13.8940420150757,27.00439453125 13.65234375,24.404296875 14.208984375,20.390625 15.1171875,20.625 14.7216796875,22.529296875 14.58984375,24.345703125 15.05859375,27.744140625 15.439453125,28.9453125 15.5859375,29.384765625 16.8017578125,33.7353515625 17.578125,36.85546875 18.017578125,39.111328125 18.1640625,40.72265625 18.134765625,41.513671875 18.017578125,42.275390625 17.63671875,42.59765625 17.080078125,43.06640625 16.34765625,43.7109375 17.138671875,43.7109375 17.4609375,42.978515625 18.486328125,42.36328125 18.515625,42.099609375 18.5302734375,41.8798828125 18.544921875,41.66015625 18.544921875,41.19140625 18.33251953125,39.26513671875 17.9296875,36.767578125 17.578125,34.29931640625 17.4609375,32.28515625 17.607421875,30.498046875 18.076171875,28.76953125 18.45703125,28.53515625 21.591796875,29.091796875 22.822265625,29.4140625 23.7890625,29.501953125 24.3493633270264,29.461669921875 25.4443359375,29.3408203125 28.740234375,29.1796875 30.49072265625,29.501953125 32.51953125,30.46875 34.3505859375,31.93359375 35.56640625,33.75 35.5078125,34.9365234375 35.3759765625,36.5625 35.2294921875,38.0126953125 35.15625,38.701171875 35.0244140625,39.84375 34.9365234375,40.5615234375 34.86328125,41.0302734375 34.8046875,41.396484375 34.482421875,42.36328125 33.8671875,43.037109375 33.28125,43.7109375 33.8671875,43.7109375 33.92578125,43.388671875 34.599609375,42.685546875 35.0390625,43.06640625 35.2734375,41.25 35.4052734375,40.0341796875 35.478515625,39.111328125 35.8154296875,35.80078125 36.4453125,32.87109375 35.595703125,31.435546875 35.068359375,29.8828125 35.25146484375,28.828125 35.80078125,27.12890625 36.2841796875,25.6640625 36.5771484375,24.4482421875 36.7529296875,23.3349609375 36.884765625,22.177734375 34.951171875,21.15234375 33.017578125,20.56640625 31.4208984375,20.4345703125 29.384765625,20.390625 24.19921875,20.2001953125 20.0390625,19.62890625 16.3916015625,18.6474609375 12.94921875,17.314453125z M4.306640625,14.326171875L5.244140625,14.794921875 4.59228515625,15.3662128448486 4.16015672683716,15.556640625 3.837890625,15 4.306640625,14.326171875z M11.6015625,11.71875L10.3857421875,12.24609375 9.31640625,13.271484375 6.85546875,12.0703125 6.2109375,11.982421875 3.955078125,13.4033203125 2.51953125,16.025390625 1.94824194908142,17.3584003448486 1.40625,18.310546875 0.9375,19.892578125 1.55273413658142,20.478515625 2.19726586341858,20.478515625 3.5302734375,19.482421875 4.98046875,18.427734375 6.1376953125,17.3876953125 6.62109375,16.40625 6.62109375,16.2890625 7.55859375,16.201171875 7.44140625,16.93359375 7.177734375,17.548828125 6.796875,18.134765625 10.25390625,21.884765625 11.748046875,19.2041015625 12.3046875,16.81640625 11.5869140625,16.23046875 10.7958984375,15.556640625 10.0634765625,14.8388671875 9.55078125,14.091796875 9.78515625,13.41796875 10.517578125,12.978515625 11.19140625,12.4658203125 11.6015625,11.71875z M16.9921875,0L17.255859375,0.146483898162842 16.6552734375,1.4794921875 15.76171875,2.724609375 13.5791015625,4.9072265625 10.927734375,6.9580078125 8.5986328125,8.9794921875 7.803955078125,10.008544921875 7.44140625,11.07421875 7.880859375,11.279296875 8.26171875,11.484375 8.90625,9.7705078125 9.7705078125,8.5546875 10.7958984375,7.7197265625 11.953125,7.08984375 12.9638671875,6.62109375 13.9892578125,6.1669921875 14.8681640625,5.7568359375 15.498046875,5.478515625 16.8017578125,4.8046875 17.9150390625,3.9990234375 18.896484375,2.9296875 19.833984375,1.494140625 20.068359375,1.58203125 19.16015625,3.57421875 17.666015625,5.2734375 16.4208984375,6.03515625 14.970703125,6.796875 13.1689453125,7.79296875 11.572265625,8.7890625 10.2099609375,10.107421875 9.287109375,11.8359375 10.224609375,11.279296875 10.927734375,10.986328125 12.12890625,10.576171875 12.744140625,11.162109375 12.3925771713257,12.2534189224243 11.982421875,12.94921875 11.4111328125,13.4619140625 10.576171875,14.033203125 11.4990234375,14.9853515625 12.568359375,15.8203125 13.06640625,16.34765625 16.40625,17.7099628448486 19.921875,18.69140625 24.111328125,19.2626953125 29.384765625,19.453125 32.14599609375,19.5263690948486 33.8671875,19.74609375 35.390625,20.33203125 36.884765625,21.123046875 37.646484375,20.4345703125 38.671875,19.306640625 39.2138671875,18.7060546875 39.609375,18.251953125 39.9609375,17.900390625 40.048828125,18.134765625 40.107421875,18.3984375 40.13671875,18.69140625 40.0048828125,19.1748046875 39.66796875,19.7314453125 39.2578125,20.2587890625 38.876953125,20.654296875 37.91015625,21.533203125 37.587890625,24.1259765625 36.9140625,26.66015625 36.298828125,28.5791015625 36.005859375,29.8828125 36.708984375,31.2890625 37.060546875,31.9921875 37.3828125,32.6953125 37.3828125,32.98828125 36.4453125,36.6796875 36.181640625,40.458984375 36.181640625,41.1328125 36.09375,42.744140625 35.830078125,43.681640625 35.2734375,43.828125 34.716796875,43.505859375 34.541015625,44.326171875 34.072265625,44.6484375 32.63671875,44.6484375 32.197265625,44.091796875 32.9296875,42.626953125 33.515625,41.982421875 33.779296875,41.689453125 34.39453125,37.79296875 34.6142578125,35.859375 34.6875,33.92578125 33.3837890625,32.3291015625 31.81640625,30.99609375 31.376953125,31.6259765625 30.8935546875,32.5927734375 30.3955078125,33.7646484375 29.912109375,35.009765625 28.828125,38.203125 28.2861328125,39.697265625 27.71484375,41.19140625 27.451171875,41.953125 26.806640625,43.18359375 26.103515625,43.623046875 25.634765625,43.447265625 25.546875,44.1796875 25.048828125,44.6484375 22.705078125,44.6484375 22.32421875,43.9453125 22.763671875,43.271484375 23.5107421875,42.568359375 24.4189453125,41.9091796875 25.341796875,41.337890625 27.2900390625,35.68359375 28.798828125,29.94140625 26.8798828125,29.9853515625 24.9609375,30.17578125 23.203125,30.439453125 22.6538066864014,30.3369140625 21.650390625,30.029296875 20.361328125,29.677734375 18.80859375,29.47265625 18.427734375,32.40234375 18.80859375,36.2548828125 19.365234375,40.107421875 19.4091796875,40.693359375 19.453125,41.630859375 19.2333984375,43.0078125 18.69140625,43.388671875 18.369140625,43.330078125 18.22265625,43.2421875 18.017578125,44.1796875 17.51953125,44.6484375 15.5859375,44.6484375 15.146484375,44.091796875 15.4541015625,43.388671875 16.142578125,42.71484375 17.138671875,42.01171875 17.197265625,41.484375 17.255859375,41.0302734375 17.28515625,40.634765625 16.962890625,38.056640625 16.3037109375,35.3759765625 15.8056640625,33.45703125 15.41015625,32.021484375 15.05859375,30.8203125 9.55078125,43.095703125 9.08203125,43.41796875 8.525390625,43.41796875 7.998046875,44.326171875 7.529296875,44.6484375 5.15625,44.6484375 4.716796875,44.091796875 5.06103467941284,43.19091796875 6.09375,42.65625 7.1630859375,42.31201171875 7.67578125,41.982421875 7.891845703125,41.52099609375 8.3056640625,40.48828125 8.924560546875,38.876953125 9.755859375,36.6796875 11.2060546875,32.2705078125 11.8359375,29.00390625 11.4331045150757,26.832275390625 11.044921875,25.1220703125 10.6347646713257,23.851318359375 10.166015625,22.998046875 9.0234375,24.287109375 9.55078125,24.7265625 8.61328125,26.162109375 7.646484375,25.3125 7.353515625,26.30859375 6.03515672683716,25.1953125 6.884765625,24.638671875 5.94726610183716,23.84765625 6.884765625,22.44140625 7.412109375,22.91015625 8.0859375,20.91796875 6.09375,18.75 5.2734375,19.39453125 4.45312452316284,20.0390625 2.22656226158142,21.6796875 2.05078125,22.32421875 1.75781226158142,23.4375 1.55273413658142,24.08203125 1.43554711341858,24.2578125 0.791015863418579,24.111328125 0.878906488418579,23.3203125 1.01074242591858,22.7197265625 1.1572265625,22.1630859375 1.23046875,21.50390625 0.43945300579071,20.7421875 0.0732424259185791,20.302734375 0,19.775390625 0.197753936052322,18.7426776885986 0.791015863418579,17.4609375 2.16796875,14.677734375 3.7060546875,12.2900390625 6.298828125,10.927734375 6.90673828125,9.2138671875 7.96875,7.763671875 9.4775390625,6.474609375 11.42578125,5.244140625 13.3850088119507,3.988037109375 14.9267578125,2.6806640625 16.9921875,0z" />
    </g>
  </g>
</svg>