<?xml version="1.0" encoding="utf-8"?>
<!DOCTYPE svg PUBLIC "-//W3C//DTD SVG 1.1//EN" "http://www.w3.org/Graphics/SVG/1.1/DTD/svg11.dtd">
<svg width="28.564453125" height="43.623046875" xmlns="http://www.w3.org/2000/svg" xmlns:xlink="http://www.w3.org/1999/xlink" xmlns:xml="http://www.w3.org/XML/1998/namespace" version="1.1">
  <g>
    <g>
      <path style="fill:#FF0000;fill-opacity:1" d="M21.474609375,21.298828125L19.3359375,21.9580078125 17.28515625,23.232421875 14.765625,25.283203125 14.765625,36.15234375 19.013671875,34.3359375 20.947265625,33.076171875 22.0751953125,31.2744140625 22.32421875,29.033203125 22.2802734375,27.4365234375 22.1484375,25.283203125 21.9140625,23.0712890625 21.50390625,21.298828125 21.474609375,21.298828125z M6.767578125,21.298828125L6.796875,21.708984375 6.708984375,22.353515625 6.416015625,23.3203125 6.15234375,24.90234375 6.09375,26.630859375 6.181640625,29.23828125 6.26953125,30.46875 6.68701171875,32.2705078125 7.646484375,33.515625 9.17724609375,34.453125 11.30859375,35.33203125 13.828125,36.181640625 13.828125,25.3125 12.59765625,24.3310546875 11.7041015625,23.642578125 10.95703125,23.1005859375 10.1953125,22.587890625 8.51806640625,21.708984375 6.767578125,21.298828125z M9.228515625,12.36328125L8.14453125,13.330078125 7.39013671875,14.1137714385986 7.060546875,14.6484375 6.8701171875,15.263671875 6.5625,16.2890625 6.24023389816284,18.33984375 6.591796875,20.33203125 9.0234375,20.830078125 11.513671875,22.32421875 13.4619140625,23.84765625 14.267578125,24.462890625 15.87890625,23.14453125 17.6953125,21.826171875 19.3212890625,20.9765625 20.6396484375,20.5078125 21.533203125,20.361328125 21.85546875,19.2919921875 21.943359375,18.076171875 21.708984375,15.849609375 21.416015625,14.4140625 20.390625,13.388671875 19.365234375,12.36328125 16.904296875,12.744140625 14.296875,12.861328125 11.6748046875,12.744140625 9.228515625,12.36328125z M14.47265625,6.591796875L12.5537099838257,6.89208984375 10.8984375,7.79296875 9.77783203125,9.111328125 9.404296875,10.6640625 9.4921875,11.455078125 14.267578125,11.923828125 19.072265625,11.455078125 19.1162109375,11.103515625 19.130859375,10.78125 18.779296875,9.16259765625 17.724609375,7.822265625 16.20849609375,6.8994140625 14.47265625,6.591796875z M10.986328125,0L11.103515625,1.40625 9.697265625,2.75390625 8.2470703125,4.3359375 6.5625,6.474609375 3.7939453125,11.1474609375 2.40234375,15.05859375 2.9443359375,14.82421875 3.7060546875,14.5166015625 4.482421875,14.1943359375 5.09765625,13.9453125 7.08984375,13.037109375 7.880859375,12.2900390625 8.583984375,11.689453125 8.466796875,10.634765625 8.9208984375,8.73046875 10.283203125,7.119140625 12.2167959213257,6.0205078125 14.384765625,5.654296875 16.3037109375,5.9912109375 18.193359375,7.001953125 19.62158203125,8.5400390625 20.09765625,10.517578125 20.09765625,10.78125 19.98046875,11.689453125 21.240234375,12.919921875 22.44140625,13.4765625 23.701171875,14.033203125 24.873046875,14.53125 25.83984375,14.94140625 24.4921875,11.103515625 23.3276348114014,8.8623046875 21.767578125,6.474609375 20.1123046875,4.2919921875 18.75,2.666015625 17.490234375,1.142578125 17.607421875,0 20.88134765625,3.01025390625 24.0234375,7.236328125 25.3436260223389,9.55078125 26.2866191864014,11.7187509536743 26.8524150848389,13.7402353286743 27.041015625,15.615234375 26.7260723114014,16.3183612823486 25.78125,16.552734375 22.5,14.677734375 22.734375,16.9775390625 22.822265625,18.28125 22.32421875,20.830078125 22.470703125,21.357421875 25.546875,24.4921875 28.4765625,28.359375 28.564453125,29.8828125 28.0078125,30.17578125 25.576171875,26.806640625 24.6533203125,25.517578125 23.818359375,24.345703125 23.173828125,23.4375 22.822265625,22.91015625 23.056640625,25.107421875 23.2177734375,27.12890625 23.291015625,29.0625 23.2763671875,29.853515625 23.232421875,30.64453125 24.6606426239014,32.84912109375 25.13671875,35.830078125 24.5507793426514,39.90966796875 22.79296875,43.4765625 22.265625,43.623046875 21.85546875,43.0078125 23.203125,39.55078125 23.671875,36.26953125 23.3935546875,34.21875 22.6171875,32.51953125 20.82275390625,34.3505859375 18.017578125,35.859375 14.4140625,37.32421875 14.12109375,37.32421875 11.77734375,36.38671875 9.8876953125,35.654296875 8.4375,35.09765625 6.77490234375,34.02099609375 5.712890625,32.255859375 4.92187452316284,33.78662109375 4.658203125,35.7421875 5.17822217941284,39.0673828125 6.73828125,43.0078125 6.328125,43.623046875 5.80078125,43.4765625 3.84521484375,39.74853515625 3.193359375,35.712890625 3.720703125,32.74658203125 5.302734375,30.5859375 5.21484375,29.6484375 5.185546875,28.681640625 5.185546875,26.8359375 5.2294921875,25.0048828125 5.478515625,23.203125 3.2958984375,26.1328125 0.527343392372131,30.1171875 0,29.8828125 0,29.12109375 0.362548768520355,27.861328125 1.45019519329071,26.1328125 3.262939453125,23.935546875 5.80078125,21.26953125 5.80078125,20.888671875 5.361328125,18.28125 5.52246046066284,16.5966796875 6.03515625,14.70703125 2.75390625,16.552734375 1.47949206829071,16.3183612823486 1.05468738079071,15.615234375 1.25061023235321,13.8024911880493 1.83837890625,11.8212900161743 2.8179931640625,9.671630859375 4.189453125,7.353515625 7.4560546875,3.14208984375 10.986328125,0z" />
    </g>
  </g>
</svg>