<?xml version="1.0" encoding="utf-8"?>
<!DOCTYPE svg PUBLIC "-//W3C//DTD SVG 1.1//EN" "http://www.w3.org/Graphics/SVG/1.1/DTD/svg11.dtd">
<svg width="45.908203125" height="33.369140625" xmlns="http://www.w3.org/2000/svg" xmlns:xlink="http://www.w3.org/1999/xlink" xmlns:xml="http://www.w3.org/XML/1998/namespace" version="1.1">
  <g>
    <g>
      <path style="fill:#FF0000;fill-opacity:1" d="M18.369140625,21.97265625L18.92578125,22.67578125 19.74609375,22.060546875 18.369140625,21.97265625z M4.36523485183716,8.90625L5.21484375,9.4921875 4.482421875,9.814453125 4.16015625,9.31640625 4.36523485183716,8.90625z M15.615234375,0.908203125L13.7036123275757,1.3037109375 11.89453125,2.490234375 10.3564453125,3.83056640625 9.2578125,4.6875 8.583984375,4.541015625 8.115234375,3.80859375 4.833984375,3.80859375 4.5703125,4.482421875 4.2919921875,5.1123046875 3.955078125,5.771484375 3.18603515625,7.63916015625 2.40234351158142,10.4296875 1.72851538658142,13.18359375 1.17187476158142,14.94140625 1.02539086341858,15.3955078125 0.966796875,15.849609375 1.40625,16.9921875 2.666015625,17.51953125 4.80468797683716,14.6630859375 6.708984375,11.630859375 6.943359375,11.42578125 7.880859375,10.927734375 8.3203125,11.748046875 7.529296875,12.1875 7.529296875,12.392578125 7.8076171875,13.4033203125 8.5546875,14.53125 9.6533203125,15.703125 10.986328125,16.845703125 12.275390625,17.841796875 13.1103515625,18.4716796875 14.00390625,19.04296875 14.00390625,19.8046875 11.0302734375,21.1083984375 8.73046875,21.50390625 7.7783203125,21.4599609375 6.5625,21.416015625 5.41992235183716,21.62109375 4.27734422683716,22.412109375 4.21875,23.408203125 4.921875,23.6279296875 6.181640625,23.7451171875 7.7197265625,23.8037109375 9.287109375,23.818359375 13.212890625,23.7451171875 16.9921875,23.671875 17.7392578125,23.7890625 18.427734375,23.90625 18.8525390625,23.8916015625 19.39453125,23.818359375 20.068359375,23.73046875 19.716796875,22.998046875 18.896484375,23.291015625 18.3984375,23.1591796875 18.046875,22.705078125 13.9453125,22.67578125 12.3779296875,22.6611328125 10.9423828125,22.6318359375 9.814453125,22.6171875 9.169921875,22.6171875 7.5,22.822265625 6.240234375,23.203125 6.064453125,23.49609375 5.2734375,22.96875 6.8701171875,22.03125 9.462890625,21.85546875 14.091796875,21.85546875 15.52734375,21.767578125 17.2705078125,21.38671875 18.984375,21.26953125 21.38671875,21.416015625 23.759765625,21.796875 24.111328125,22.236328125 24.111328125,23.525390625 24.638671875,22.470703125 24.873046875,22.265625 26.0888671875,22.03125 27.3046875,21.943359375 29.765625,22.236328125 30.6591796875,22.265625 31.787109375,22.32421875 32.98828125,22.3828125 34.1015625,22.412109375 35.888671875,22.32421875 37.353515625,21.943359375 36.650390625,21.3134765625 35.2734375,20.361328125 34.1015625,19.453125 32.8271484375,18.251953125 31.81640625,16.9921875 31.40625,15.908203125 31.5966796875,15.146484375 32.16796875,14.501953125 33.1640625,14.0625 34.62890625,13.916015625 35.5517578125,14.033203125 36.708984375,14.3408203125 37.8076171875,14.7802734375 38.5546875,15.263671875 37.91015625,15.966796875 36.3427734375,15.17578125 34.306640625,14.853515625 32.87109375,15.1171875 32.314453125,15.732421875 32.9150390625,16.9775390625 33.9111328125,18.1201171875 35.15625,19.1455078125 36.50390625,20.0390625 37.88818359375,21.09375 38.349609375,22.03125 38.0419921875,22.587890625 37.119140625,22.96875 35.859375,23.173828125 34.130859375,23.232421875 32.255859375,23.203125 29.736328125,23.173828125 28.3740234375,23.3203125 27.12890625,23.84765625 28.7109375,24.140625 29.8974609375,23.701171875 31.083984375,23.61328125 31.7724609375,23.61328125 33.134765625,23.6279296875 34.716796875,23.642578125 36.064453125,23.642578125 38.349609375,23.49609375 39.755859375,23.349609375 40.3125,23.37890625 41.455078125,23.232421875 37.03125,17.87109375 37.734375,17.2265625 42.24609375,22.734375 43.125,22.734375 43.623046875,23.203125 43.63037109375,25.059814453125 43.65234375,26.4697265625 43.7255859375,28.30078125 43.8134765625,29.1943359375 43.857421875,29.619140625 43.985595703125,30.772705078125 44.1357421875,31.5380859375 44.619140625,32.40234375 44.853515625,31.69921875 44.912109375,30.908203125 44.7802734375,28.85009765625 44.384765625,25.6640625 43.623046875,22.1044921875 42.3046875,18.896484375 40.4150390625,16.23046875 38.02734375,14.4140625 35.408935546875,13.2568359375 32.6513671875,12.5390625 26.484375,12.041015625 23.8549785614014,12.088623046875 21.884765625,12.2314453125 20.44189453125,12.425537109375 19.39453125,12.626953125 17.5927734375,13.06640625 16.5234375,13.271484375 15.6298828125,12.94921875 14.4140625,11.982421875 13.0517568588257,10.53955078125 11.6015625,8.671875 10.01953125,6.416015625 10.25390625,5.7421875 12.568359375,4.8193359375 14.3994140625,3.779296875 15.615234375,2.63671875 16.11328125,1.435546875 16.11328125,0.908203125 15.615234375,0.908203125z M15.615234375,0L16.669921875,0.087890625 17.021484375,0.52734375 17.021484375,1.40625 16.673583984375,2.772216796875 15.6298828125,4.0576171875 13.817138671875,5.269775390625 11.162109375,6.416015625 12.333984375,8.0859375 14.443359375,10.7373046875 16.58203125,12.3046875 21.2255859375,11.396484375 26.25,11.07421875 31.4208984375,11.4404296875 36.03515625,12.5390625 39.83642578125,14.5458984375 42.568359375,17.578125 44.39208984375,21.6796875 45.52734375,26.89453125 45.7177734375,28.4033203125 45.8349609375,29.4140625 45.8935546875,30.087890625 45.908203125,30.5859375 45.52734375,32.6513671875 44.58984375,33.369140625 44.014892578125,33.1640625 43.5205078125,32.548828125 43.143310546875,31.435546875 42.919921875,29.736328125 42.890625,28.212890625 42.802734375,26.19140625 42.685546875,23.671875 42.392578125,23.671875 41.484375,24.228515625 40.1953125,24.345703125 39.755859375,24.345703125 39.4921875,24.31640625 38.14453125,24.375 37.001953125,24.404296875 36.064453125,24.404296875 30.17578125,24.404296875 28.798828125,25.078125 25.986328125,24.609375 25.693359375,23.7890625 26.3525390625,23.26171875 27.0703125,22.8515625 25.37109375,23.115234375 24.08203125,25.6640625 23.173828125,25.4296875 23.173828125,22.646484375 21.767578125,22.412109375 21.357421875,22.3681640625 20.888671875,22.32421875 20.390625,22.265625 21.240234375,23.994140625 20.771484375,24.609375 19.2919921875,24.7119140625 18.22265625,24.814453125 17.8271484375,24.7705078125 17.40234375,24.697265625 16.93359375,24.609375 4.71679735183716,24.609375 3.80859375,24.31640625 3.251953125,23.349609375 3.251953125,23.1005859375 3.28125,22.763671875 3.33984375,22.32421875 3.48632860183716,21.884765625 5.0390625,20.7568359375 6.357421875,20.478515625 7.5439453125,20.56640625 8.525390625,20.654296875 10.576171875,20.3466796875 12.802734375,19.39453125 11.748046875,18.603515625 11.220703125,18.2080078125 10.72265625,17.8125 9.697265625,16.962890625 7.8955078125,15.234375 6.767578125,13.41796875 5.75683546066284,14.912109375 4.599609375,16.494140625 3.251953125,18.28125 2.841796875,18.45703125 1.534423828125,18.20068359375 0.659179449081421,17.607421875 0,15.8203125 0.0292966365814209,15.556640625 0.615234375,13.76953125 1.18652319908142,11.77734375 1.78710913658142,9.19921875 2.4609375,6.84814453125 3.076171875,5.419921875 3.66210985183716,4.3359375 4.130859375,2.98828125 3.515625,1.611328125 4.36523485183716,1.259765625 5.06835985183716,2.87109375 7.67578125,2.87109375 8.232421875,1.318359375 9.169921875,1.494140625 8.61328125,2.98828125 9.111328125,3.6328125 9.84375,3.046875 10.6201171875,2.4169921875 11.572265625,1.640625 13.5791006088257,0.410157680511475 15.615234375,0z" />
    </g>
  </g>
</svg>