<?xml version="1.0" encoding="utf-8"?>
<!DOCTYPE svg PUBLIC "-//W3C//DTD SVG 1.1//EN" "http://www.w3.org/Graphics/SVG/1.1/DTD/svg11.dtd">
<svg width="47.63671875" height="28.212890625" xmlns="http://www.w3.org/2000/svg" xmlns:xlink="http://www.w3.org/1999/xlink" xmlns:xml="http://www.w3.org/XML/1998/namespace" version="1.1">
  <g>
    <g>
      <path style="fill:#FF0000;fill-opacity:1" d="M20.33203125,25.25390625L20.9765625,25.72265625 21.5625,25.3125 20.33203125,25.25390625z M6.24023485183716,11.07421875L6.767578125,11.6015625 6.24023485183716,12.12890625 6.06445264816284,11.6015625 6.24023485183716,11.07421875z M12.099609375,7.646484375L11.220703125,7.998046875 10.400390625,8.61328125 9.78515625,9.228515625 9.111328125,8.583984375 9.521484375,8.14453125 7.529296875,8.14453125 6.123046875,8.818359375 4.658203125,10.546875 3.4423828125,12.29736328125 2.43164038658142,13.271484375 1.75048828125,13.9013671875 1.5234375,14.677734375 2.28515601158142,15.263671875 3.046875,15.87890625 3.58886766433716,15.7470703125 4.189453125,15.556640625 5.54809522628784,15.135498046875 6.5185546875,14.8681640625 7.822265625,14.677734375 7.9833984375,14.7509765625 8.232421875,14.853515625 9.755859375,17.255859375 10.78125,18.69140625 12.158203125,20.302734375 13.4912109375,21.8115234375 14.443359375,22.96875 14.384765625,23.3203125 14.326171875,23.642578125 12.7001953125,24.31640625 10.986328125,24.609375 10.72265625,24.609375 8.5546875,24.43359375 7.4560546875,24.6826171875 6.298828125,25.546875 6.24023485183716,26.54296875 7.08984375,26.689453125 8.26171875,26.77734375 9.6240234375,26.806640625 11.044921875,26.806640625 19.013671875,26.806640625 19.7607421875,26.923828125 20.44921875,27.041015625 20.888671875,27.0263671875 21.4453125,26.953125 22.08984375,26.865234375 21.73828125,26.1328125 20.91796875,26.42578125 20.419921875,26.2939453125 20.068359375,25.83984375 17.691650390625,25.836181640625 15.8349609375,25.8251953125 13.3154296875,25.7958984375 11.9677734375,25.7666015625 11.19140625,25.751953125 9.404296875,25.8544921875 8.173828125,26.513671875 7.294921875,26.103515625 8.818359375,25.1513671875 11.484375,24.90234375 17.548828125,24.90234375 19.189453125,24.5068359375 20.625,24.404296875 21.6943359375,24.47021484375 23.14453125,24.66796875 25.1440410614014,24.8583984375 27.919921875,25.01953125 29.091796875,25.078125 30.6298828125,25.2099609375 32.2119140625,25.341796875 33.486328125,25.4296875 34.365234375,25.48828125 35.126953125,25.5322265625 35.80078125,25.546875 37.880859375,25.4443359375 39.375,25.078125 38.8330078125,24.4921875 38.02734375,23.90625 37.1337890625,23.3349609375 36.328125,22.763671875 35.9326171875,22.4267578125 35.625,22.1484375 32.724609375,19.27734375 33.6328125,18.8671875 33.9111328125,19.1748046875 34.2333984375,19.4970703125 34.716796875,19.9658203125 35.478515625,20.712890625 38.583984375,23.115234375 39.92431640625,24.1552734375 40.37109375,25.107421875 40.0927734375,25.7373046875 39.08203125,26.19140625 37.734375,26.396484375 36.73828125,26.455078125 34.599609375,26.3671875 33.22265625,26.30859375 31.728515625,26.30859375 30.380859375,26.4697265625 29.150390625,26.982421875 30.732421875,27.275390625 31.611328125,26.7333984375 32.255859375,26.6015625 33.515625,26.8798828125 35.56640625,27.158203125 36.09375,27.158203125 36.50390625,27.1875 37.5146484375,27.2021484375 38.173828125,27.216796875 38.61328125,27.2314453125 38.935546875,27.24609375 43.447265625,26.982421875 45.19775390625,26.55029296875 46.5234375,25.78125 46.611328125,25.634765625 46.669921875,25.458984375 46.69921875,25.1953125 45.98876953125,20.89599609375 44.443359375,17.607421875 42.20947265625,15.164794921875 39.43359375,13.4033203125 35.99853515625,12.337646484375 31.787109375,11.982421875 26.953125,12.333984375 24.8290996551514,12.59765625 23.37890625,12.685546875 20.45654296875,12.396240234375 17.724609375,11.7041015625 12.5390625,9.31640625 11.162109375,10.72265625 10.458984375,10.078125 11.396484375,9.140625 12.216796875,8.115234375 12.333984375,7.67578125 12.216796875,7.646484375 12.099609375,7.646484375z M14.8828125,0L15,0.263671875 13.1103515625,1.875 11.748046875,3.984375 11.3232421875,5.009765625 10.9130859375,5.830078125 10.400390625,6.5478515625 9.638671875,7.236328125 10.458984375,7.294921875 11.1328125,6.9287109375 11.982421875,6.73828125 13.0810546875,7.08984375 13.30078125,7.734375 13.2275390625,8.115234375 13.06640625,8.5546875 18.0029296875,10.8251953125 20.614013671875,11.488037109375 23.37890625,11.748046875 27.3046875,11.396484375 31.81640625,11.044921875 35.2294921875,11.2774658203125 38.26171875,11.97509765625 40.9130859375,13.1378173828125 43.18359375,14.765625 45.05859375,16.8017578125 46.46484375,19.21875 47.3437461853027,22.03125 47.63671875,25.25390625 47.1386680603027,26.44775390625 45.64453125,27.392578125 43.20556640625,28.0078125 39.873046875,28.212890625 38.41552734375,28.19091796875 36.50390625,28.125 34.63623046875,28.0224609375 33.251953125,27.7734375 32.138671875,27.48046875 31.11328125,28.125 30.8203125,28.212890625 28.0078125,27.744140625 27.71484375,26.923828125 29.12109375,25.986328125 28.1616191864014,25.93505859375 26.806640625,25.8984375 25.2978515625,25.810546875 23.935546875,25.6640625 22.44140625,25.48828125 23.26171875,27.12890625 22.79296875,27.744140625 22.529296875,27.744140625 21.416015625,27.8466796875 20.244140625,27.94921875 18.955078125,27.744140625 6.73828125,27.744140625 5.83007764816284,27.451171875 5.27343797683716,26.484375 5.3173828125,26.0595703125 5.36132860183716,25.458984375 5.44921875,25.1953125 5.50781202316284,25.01953125 6.943359375,23.9794921875 8.61328125,23.5546875 9.6826171875,23.6865234375 10.634765625,23.818359375 11.689453125,23.6865234375 13.330078125,23.0859375 11.6015625,21.15234375 9.9609375,19.16015625 7.587890625,15.615234375 7.20703125,15.673828125 5.36132860183716,16.2451171875 4.1748046875,16.5966796875 3.4716796875,16.7724609375 3.046875,16.81640625 2.63671875,16.7578125 2.31445336341858,16.552734375 1.65527367591858,16.025390625 1.17187523841858,15.615234375 0.732421875,15.263671875 0.585937261581421,14.82421875 0.8642578125,13.5791015625 1.69921875,12.59765625 2.8125,11.572265625 3.837890625,10.1953125 4.4091796875,9.4189453125 5.03906297683716,8.671875 5.66894483566284,8.0126953125 6.24023485183716,7.529296875 4.74609375,6.6650390625 3.779296875,5.2734375 3.01757860183716,3.720703125 1.83105492591858,2.2998046875 0,1.318359375 0.0585939884185791,0.9375 2.53417944908142,1.8310546875 3.92578125,3.8671875 5.44921875,5.7568359375 7.822265625,6.38671875 9.61669921875,5.888671875 10.6640625,4.39453125 11.4074697494507,2.63672018051147 12.3486328125,1.40625 14.8828125,0z" />
    </g>
  </g>
</svg>