<?xml version="1.0" encoding="utf-8"?>
<!DOCTYPE svg PUBLIC "-//W3C//DTD SVG 1.1//EN" "http://www.w3.org/Graphics/SVG/1.1/DTD/svg11.dtd">
<svg width="44.501953125" height="37.79296875" xmlns="http://www.w3.org/2000/svg" xmlns:xlink="http://www.w3.org/1999/xlink" xmlns:xml="http://www.w3.org/XML/1998/namespace" version="1.1">
  <g>
    <g>
      <path style="fill:#FF0000;fill-opacity:1" d="M33.10546875,21.826171875L28.623046875,22.6171875 28.623046875,29.765625 28.564453125,30 28.037109375,30.52734375 27.3486328125,31.171875 26.3671875,32.05078125 24.6166973114014,33.720703125 23.759765625,34.86328125 23.37890625,36.03515625 23.408203125,36.85546875 25.78125,36.85546875 26.4111309051514,34.87060546875 27.94921875,32.958984375 29.4873046875,31.5087890625 30.1171875,30.908203125 33.69140625,22.3828125 33.10546875,21.826171875z M14.150390625,18.22265625L12.9638671875,21.03515625 11.572265625,24.345703125 8.232421875,31.34765625 6.44531202316284,34.21875 5.625,35.7421875 5.185546875,36.85546875 8.3203125,36.85546875 9.2138671875,32.3583984375 10.220947265625,30.230712890625 11.630859375,28.095703125 13.0773916244507,26.162109375 14.1943359375,24.638671875 14.959716796875,23.57666015625 15.3515625,23.02734375 14.94140625,18.69140625 14.150390625,18.22265625z M8.4375,3.720703125L9.228515625,4.248046875 8.4375,4.775390625 8.173828125,4.248046875 8.4375,3.720703125z M13.798828125,1.0546875L13.212890625,3.017578125 12.7587890625,5.3759765625 12.451171875,7.587890625 12.333984375,9.140625 12.59765625,10.517578125 13.2861328125,11.3525390625 14.2529296875,11.77734375 15.380859375,11.89453125 17.04345703125,11.5722675323486 18.28125,10.60546875 19.05029296875,9.02343940734863 19.306640625,6.85546875 19.21875,6.0498046875 19.04296875,5.15625 18.80859375,4.16015625 16.3916015625,2.4462890625 13.798828125,1.0546875z M12.861328125,0.908203125L12.041015625,0.9375 9.1552734375,1.5966796875 7.03125,2.958984375 5.55175828933716,4.39453125 4.482421875,5.80078125 7.587890625,7.001953125 6.943359375,7.998046875 4.013671875,6.796875 2.7392578125,11.1181640625 2.40234375,15.087890625 2.578125,17.958984375 3.10546875,17.958984375 3.10546875,13.505859375 3.427734375,11.25 4.27734422683716,9.43359375 5.9765625,8.7890625 7.91015625,9.111328125 8.82568359375,9.68261909484863 9.580078125,10.810546875 10.166015625,12.12890625 10.9350576400757,13.505859375 12.12890625,15.1171875 15.64453125,18.046875 15.849609375,18.427734375 16.171875,20.771484375 16.2744140625,21.9580078125 16.318359375,23.14453125 17.0068359375,26.4697265625 17.34375,30.029296875 17.29248046875,31.28173828125 17.138671875,32.109375 16.845703125,32.8125 16.376953125,33.6328125 15.849609375,34.453125 15.4541015625,35.625 15.380859375,36.85546875 18.22265625,36.85546875 18.22265625,35.0390625 18.251953125,34.16015625 18.3837890625,33.33984375 18.662109375,32.4755859375 19.16015625,31.494140625 19.072265625,30.1171875 18.837890625,28.681640625 18.69140625,27.65625 18.6328125,26.71875 18.69873046875,25.81787109375 18.896484375,24.287109375 19.16015625,20.390625 19.5263671875,20.1416015625 19.892578125,19.921875 23.02734375,21.357421875 26.337890625,21.85546875 29.12109375,21.5625 30.673828125,21.240234375 32.666015625,20.888671875 32.05078125,19.1015625 31.640625,17.1533203125 31.46484375,14.736328125 32.40234375,14.619140625 32.5341796875,16.40625 32.841796875,18.10546875 33.310546875,19.892578125 33.57421875,20.419921875 33.955078125,21.005859375 34.3505859375,21.533203125 34.658203125,21.9140625 39.609375,28.2421875 40.107421875,29.853515625 39.814453125,31.39892578125 38.935546875,33.33984375 38.1298828125,34.86328125 37.8515625,35.654296875 37.67578125,36.85546875 40.4296875,36.85546875 40.283203125,34.1015625 40.4736328125,32.9150390625 40.986328125,31.69921875 41.4990234375,30.732421875 41.689453125,30.029296875 41.220703125,27.48046875 40.751953125,24.521484375 40.7958984375,23.7158203125 40.95703125,22.939453125 41.30859375,21.826171875 42.12890625,19.3505859375 42.744140625,16.845703125 43.388671875,16.025390625 43.154296875,13.76953125 42.568359375,11.71875 41.513671875,10.2685565948486 39.990234375,9.140625 37.734375,8.1005859375 34.39453125,6.9140625 30.76171875,5.96923971176147 27.421875,5.654296875 26.044921875,5.68359375 24.873046875,5.712890625 23.3056640625,5.6689453125 22.119140625,5.56640625 19.98046875,4.86328125 20.09765625,5.80078125 20.185546875,6.62109375 20.21484375,7.32421875 19.94384765625,9.28711128234863 19.130859375,11.07421875 17.87109375,12.2314453125 15.99609375,12.7734375 13.9196767807007,12.5720233917236 12.4951171875,11.9677734375 11.6711416244507,10.9021015167236 11.396484375,9.31640625 11.572265625,6.9580078125 11.9970703125,4.423828125 12.48046875,2.2265625 12.861328125,0.908203125z M12.041015625,0L13.2128896713257,0.029296875 13.857421875,0.1171875 15.4833984375,0.791015625 18.046875,2.373046875 19.013671875,3.076171875 20.35400390625,3.9697265625 21.50390625,4.482421875 22.9394512176514,4.72412109375 25.01953125,4.8046875 26.748046875,4.775390625 28.125,4.74609375 31.3916015625,5.2294921875 33.607177734375,5.78247213363647 36.240234375,6.533203125 38.7982177734375,7.46887302398682 40.84716796875,8.57666206359863 42.3870849609375,9.85656833648682 43.41796875,11.30859375 44.2529296875,14.1650390625 44.501953125,17.373046875 44.4873046875,19.16015625 44.4287109375,20.185546875 44.326171875,20.654296875 44.208984375,20.771484375 43.564453125,17.40234375 43.125,19.130859375 42.85400390625,20.0244140625 42.333984375,21.533203125 41.87255859375,22.998046875 41.71875,23.935546875 41.71875,24.375 42.158203125,27.1875 42.626953125,30 41.923828125,31.962890625 41.25,34.5703125 41.30859375,36.064453125 41.3671875,37.32421875 40.869140625,37.79296875 37.08984375,37.79296875 36.650390625,37.236328125 36.884765625,35.5078125 36.97265625,35.1123046875 37.1484375,34.6875 37.4560546875,34.1015625 37.939453125,33.251953125 38.818359375,31.38427734375 39.111328125,29.8828125 39.0234375,29.0625 34.39453125,23.14453125 30.9375,31.318359375 30.234375,32.16796875 29.35546875,32.900390625 28.1103496551514,34.061279296875 27.3046875,35.1416015625 26.71875,37.32421875 26.220703125,37.79296875 22.91015625,37.79296875 22.470703125,37.236328125 22.470703125,36.38671875 23.115234375,34.189453125 24.990234375,32.05078125 26.8798828125,30.322265625 27.685546875,29.560546875 27.685546875,22.734375 26.9091796875,22.822265625 26.162109375,22.8515625 23.0419921875,22.3828125 20.09765625,21.123046875 20.0390625,22.646484375 19.8046875,24.9169921875 19.62890625,26.19140625 19.6875,26.982421875 19.8046875,27.919921875 19.98046875,29.033203125 20.09765625,30.05859375 20.15625,30.9375 19.599609375,32.841796875 19.04296875,34.86328125 19.1015625,36.1962890625 19.16015625,37.32421875 18.662109375,37.79296875 14.8828125,37.79296875 14.443359375,37.236328125 14.4873037338257,35.83740234375 14.619140625,34.98046875 15.234375,33.75 15.703125,33.10546875 16.2744140625,31.6552734375 16.40625,29.94140625 16.171875,27.0849609375 15.615234375,24.2578125 13.828125,26.71875 11.7919921875,29.560546875 10.693359375,31.2890625 9.6826171875,33.8671875 9.228515625,37.32421875 8.73046875,37.79296875 4.482421875,37.79296875 4.1015625,37.08984375 4.76074266433716,35.419921875 5.4638671875,34.0576171875 6.2255859375,32.841796875 7.03125,31.552734375 10.107421875,25.37109375 13.388671875,17.63671875 10.986328125,15.234375 9.0234375,11.748046875 7.97607421875,10.2319355010986 6.416015625,9.7265625 5.88867139816284,9.7705078125 5.21484375,9.873046875 4.1748046875,12.12890625 3.92578125,14.912109375 3.984375,16.8310546875 4.04296827316284,18.427734375 3.544921875,18.896484375 2.13867163658142,18.896484375 1.69921898841858,18.515625 1.53808617591858,16.7724609375 1.49414038658142,15 1.55273461341858,12.9345703125 1.80175757408142,10.869140625 2.314453125,8.701171875 3.16406202316284,6.357421875 2.2412109375,5.6982421875 1.611328125,5.2001953125 1.17187476158142,4.7900390625 0.849609136581421,4.39453125 0.263672113418579,3.22265625 0,1.904296875 0.981445550918579,3.427734375 2.16796875,4.51171875 3.57421875,5.390625 4.013671875,4.8046875 2.9736328125,4.04296875 1.845703125,2.607421875 1.40624976158142,0.52734375 3.07617235183716,2.87109375 4.51171922683716,4.04296875 6.5185546875,2.164306640625 8.37890625,0.9228515625 10.18798828125,0.230712890625 12.041015625,0z" />
    </g>
  </g>
</svg>