<?xml version="1.0" encoding="utf-8"?>
<!DOCTYPE svg PUBLIC "-//W3C//DTD SVG 1.1//EN" "http://www.w3.org/Graphics/SVG/1.1/DTD/svg11.dtd">
<svg width="20.419921875" height="30.263671875" xmlns="http://www.w3.org/2000/svg" xmlns:xlink="http://www.w3.org/1999/xlink" xmlns:xml="http://www.w3.org/XML/1998/namespace" version="1.1">
  <g>
    <g>
      <path style="fill:#FF0000;fill-opacity:1" d="M18.193359375,16.142578125L18.369140625,17.51953125 18.486328125,19.74609375 19.248046875,19.1455078125 19.482421875,18.134765625 19.16015625,16.8310546875 18.193359375,16.142578125z M8.583984375,2.40234375L8.583984375,10.869140625 8.37890625,11.2060546875 8.12255859375,11.480712890625 7.412109375,12.099609375 5.947265625,13.6083984375 5.21484375,14.7216796875 4.74609375,16.142578125 4.3359375,17.98828125 4.189453125,19.892578125 4.4384765625,22.7783203125 4.81567335128784,24.591064453125 5.44921875,27.01171875 6.09375,29.326171875 15.791015625,29.326171875 17.0068359375,24.6826171875 17.548828125,19.921875 17.51953125,18.92578125 17.490234375,18.369140625 17.3876953125,17.16796875 17.109375,15.673828125 16.904296875,15.17578125 15.791015625,13.623046875 14.0625,12.0703125 12.978515625,11.220703125 12.83203125,10.78125 12.83203125,2.40234375 8.583984375,2.40234375z M5.712890625,2.40234375L4.57763671875,2.72094869613647 3.57421875,3.6767578125 2.87109375,5.04272603988647 2.63671875,6.591796875 2.666015625,7.060546875 2.666015625,7.587890625 3.22265625,11.2646484375 4.482421875,14.150390625 5.8740234375,12.2314453125 7.646484375,10.634765625 7.646484375,2.40234375 5.712890625,2.40234375z M5.21484375,0.9375L3.87451171875,1.31103658676147 2.43164086341858,2.431640625 1.31103515625,4.12353658676147 0.937500238418579,6.2109375 1.102294921875,8.411865234375 1.59667992591858,11.2060546875 2.471923828125,13.985595703125 3.779296875,16.142578125 4.013671875,15.205078125 2.5634765625,12.3046875 2.05444312095642,10.37109375 1.728515625,7.67578125 1.69921875,6.73828125 2.00317358970642,4.70581197738647 2.9150390625,3.0029296875 4.215087890625,1.84936666488647 5.68359375,1.46484375 17.548828125,1.46484375 17.548828125,0.9375 5.21484375,0.9375z M5.21484375,0L17.98828125,0 18.486328125,0.46875 18.486328125,1.93359375 17.98828125,2.40234375 13.76953125,2.40234375 13.76953125,10.634765625 16.171875,12.71484375 17.34375,14.091796875 17.7685546875,14.87548828125 17.9296875,15.17578125 19.156494140625,15.567626953125 19.9072265625,16.2744140625 20.419921875,18.076171875 19.9658203125,19.7607421875 18.45703125,20.712890625 17.8125,25.37109375 16.58203125,29.94140625 16.11328125,30.263671875 5.712890625,30.263671875 5.2734375,29.8828125 5.16265821456909,29.4854736328125 4.94750928878784,28.70361328125 4.62799024581909,27.5372314453125 4.2041015625,25.986328125 3.489990234375,22.705078125 3.251953125,19.833984375 3.486328125,17.28515625 1.787109375,14.798583984375 0.732422113418579,11.6748046875 0.183105498552322,8.565673828125 0,6.123046875 0.44677734375,3.74633932113647 1.787109375,1.7724609375 3.53759765625,0.443116664886475 5.21484375,0z" />
    </g>
  </g>
</svg>