<?xml version="1.0" encoding="utf-8"?>
<!DOCTYPE svg PUBLIC "-//W3C//DTD SVG 1.1//EN" "http://www.w3.org/Graphics/SVG/1.1/DTD/svg11.dtd">
<svg width="58.06640625" height="44.912109375" xmlns="http://www.w3.org/2000/svg" xmlns:xlink="http://www.w3.org/1999/xlink" xmlns:xml="http://www.w3.org/XML/1998/namespace" version="1.1">
  <g>
    <g>
      <path style="fill:#FF0000;fill-opacity:1" d="M29.82421875,37.5L31.563720703125,40.2978515625 34.2626953125,42.3046875 37.789306640625,43.51318359375 42.01171875,43.916015625 46.2780723571777,43.51318359375 49.6435546875,42.3046875 52.1813926696777,40.2978515625 53.96484375,37.5 29.82421875,37.5z M3.427734375,37.5L5.36132764816284,40.21728515625 8.232421875,42.275390625 11.8212881088257,43.5498046875 15.966796875,43.974609375 20.17822265625,43.5205078125 23.90625,42.158203125 26.7553691864014,40.10009765625 28.447265625,37.5 3.427734375,37.5z M23.349609375,36.240234375L22.91015625,36.298828125 22.55859375,36.416015625 22.20703125,36.5625 24.31640625,36.5625 24.052734375,36.416015625 23.7451171875,36.298828125 23.349609375,36.240234375z M4.18945360183716,36.15234375L3.76464891433716,36.2255859375 3.427734375,36.357421875 3.13476610183716,36.5625 5.712890625,36.5625 5.24414014816284,36.357421875 4.74609422683716,36.2255859375 4.18945360183716,36.15234375z M38.642578125,33.515625L37.265625,34.04296875 36.884765625,35.21484375 37.236328125,36.181640625 38.3203125,36.5625 48.427734375,36.5625 50.947265625,36.09375 51.8115234375,36.1669921875 52.79296875,36.328125 53.759765625,36.4892578125 54.638671875,36.5625 55.107421875,36.884765625 55.400390625,37.763671875 55.72265625,38.61328125 56.103515625,39.4921875 56.07421875,39.140625 56.044921875,38.84765625 56.044921875,38.5546875 56.07421875,38.0859375 55.8544921875,36.298828125 55.078125,34.892578125 53.232421875,34.658203125 51.38671875,34.5703125 48.5302734375,34.74609375 46.259765625,34.98046875 45.234375,35.0537109375 44.560546875,35.09765625 44.12109375,35.126953125 43.798828125,35.126953125 41.07421875,34.7900390625 38.642578125,33.515625z M28.9453125,31.669921875L29.267578125,34.013671875 30.673828125,34.189453125 33.427734375,34.74609375 34.8046875,34.921875 33.75,32.080078125 28.9453125,31.669921875z M13.330078125,30.64453125L12.8759765625,33.5009765625 11.8359375,36.240234375 17.109375,36.240234375 17.34375,34.7021484375 17.4609375,33.1640625 17.373046875,31.93359375 17.2265625,30.703125 16.46484375,31.46484375 16.025390625,31.93359375 15.322265625,31.9921875 15.1025390625,31.7578125 15.029296875,31.640625 14.384765625,30.99609375 13.9453125,30.76171875 13.330078125,30.64453125z M43.916015625,30.439453125L43.5791015625,30.4541015625 43.18359375,30.498046875 44.384765625,30.9375 44.6923828125,30.9375 45,30.908203125 45.29296875,30.87890625 44.94140625,30.673828125 44.501953125,30.5126953125 43.916015625,30.439453125z M21.064453125,28.41796875L21.2109375,29.384765625 21.26953125,30.29296875 21.064453125,31.787109375 20.2734375,33.33984375 19.892578125,33.28125 19.482421875,33.28125 19.04296875,32.021484375 18.69140625,31.40625 18.1640625,30.791015625 18.2958984375,32.0361328125 18.369140625,33.28125 18.251953125,34.7607421875 18.046875,36.240234375 21.2109375,36.240234375 21.796875,35.80078125 22.705078125,35.595703125 24.0234375,35.8447265625 24.873046875,36.5625 36.357421875,36.5625 36.15234375,36.26953125 36.03515625,35.888671875 35.9765625,35.302734375 36.4306640625,33.720703125 37.705078125,32.724609375 36.7529296875,31.7138671875 36.38671875,31.142578125 36.4013671875,31.3916015625 36.4453125,31.640625 36.2841796875,31.787109375 35.947265625,32.109375 34.716796875,32.109375 35.91796875,35.2734375 35.44921875,35.888671875 34.00634765625,35.771484375 32.138671875,35.419921875 30.2490234375,35.0537109375 28.857421875,34.921875 28.41796875,34.541015625 28.0078125,31.552734375 27.1875,31.259765625 26.2939453125,30.908203125 25.166015625,30.439453125 22.9101543426514,29.43603515625 21.064453125,28.41796875z M11.30859375,18.33984375L12.1142578125,21.09375 12.7294921875,24.169921875 13.125,27.1875 13.271484375,29.736328125 14.619140625,30.0439453125 15.673828125,30.9375 17.021484375,29.70703125 15.7470703125,26.19140625 13.974609375,22.822265625 12.7001953125,20.6689453125 11.30859375,18.33984375z M44.501953125,5.36132860183716L41.7041015625,5.60302782058716 39.990234375,6.32812547683716 39.13330078125,7.54394578933716 38.84765625,9.2578125 38.8623046875,10.078125 38.90625,11.1328125 38.994140625,12.451171875 38.994140625,13.037109375 39.0234375,13.623046875 39.0234375,14.82421875 38.701171875,21.533203125 37.67578125,27.3046875 37.3828125,28.53515625 37.236328125,29.3115234375 37.177734375,30.05859375 37.6318359375,31.3330078125 38.994140625,32.607421875 41.162109375,33.75 43.916015625,34.16015625 45.380859375,34.1015625 47.109375,33.92578125 48.7280235290527,33.74267578125 49.716796875,33.662109375 50.390625,33.6328125 51.005859375,33.6181640625 51.5625,33.603515625 53.26171875,33.69140625 55.01953125,33.92578125 55.2392578125,33.2373046875 55.37109375,32.63671875 55.0854454040527,31.875 54.228515625,31.40625 51.9140625,31.0546875 51.533203125,31.0546875 51.15234375,31.025390625 47.197265625,31.494140625 45.47607421875,31.82373046875 44.6484375,31.93359375 42.421875,31.23046875 41.6748046875,30.2783203125 41.42578125,28.828125 41.71875,26.982421875 42.3046875,25.107421875 43.59375,21.8994140625 45.1171875,18.779296875 49.248046875,10.60546875 49.8046875,8.701171875 49.4311485290527,7.51464891433716 48.310546875,6.47460985183716 46.6406211853027,5.71289110183716 44.501953125,5.36132860183716z M9.7265625,5.36132860183716L9.6826171875,5.74218797683716 9.66796875,6.09375047683716 9.84375,6.85546922683716 9.873046875,6.44531297683716 9.7265625,5.36132860183716z M7.32421875,1.99218797683716L8.0859375,2.34375047683716 7.32421875,2.69531297683716 7.060546875,2.34375047683716 7.32421875,1.99218797683716z M42.919921875,0.966797351837158L41.484375,1.17187547683716 40.107421875,1.66992235183716 39.7412109375,1.83105516433716 39.287109375,2.05078172683716 38.73046875,2.31445360183716 37.32421875,2.84179735183716 37.177734375,3.00293016433716 37.1484375,3.19335985183716 37.412109375,3.36914110183716 37.79296875,3.39843797683716 38.056640625,3.36914110183716 39.375,3.67675828933716 41.220703125,4.68750047683716 42.919921875,4.43847703933716 43.9453125,4.39453172683716 45.8349609375,4.57031297683716 47.607421875,5.09765672683716 46.904296875,3.75000047683716 46.0546875,2.37304735183716 45.556640625,1.91894578933716 44.8095703125,1.45019578933716 43.9013671875,1.09863328933716 42.919921875,0.966797351837158z M7.763671875,0.908204078674316L6.240234375,1.43554735183716 4.92187547683716,1.93359422683716 4.775390625,1.90429735183716 4.3798828125,1.94824266433716 3.369140625,2.19726610183716 1.83105492591858,2.78320360183716 1.02539086341858,3.75000047683716 2.63671875,3.48632860183716 4.71679639816284,3.75000047683716 6.35742235183716,4.24804735183716 6.708984375,4.68750047683716 6.708984375,8.935546875 7.353515625,10.5908203125 9.0234375,11.30859375 10.458984375,10.751953125 11.1474609375,10.2685546875 11.689453125,9.931640625 12.12890625,10.751953125 11.19140625,11.3818359375 10.5322265625,11.806640625 10.01953125,12.0849609375 9.521484375,12.216796875 9.6826171875,13.505859375 10.107421875,14.619140625 10.37109375,15.0732421875 10.9423828125,15.99609375 11.689453125,17.2412109375 12.5390625,18.6328125 14.794921875,22.353515625 16.640625,25.83984375 17.9296875,29.443359375 18.45703125,29.912109375 19.013671875,30.439453125 19.482421875,30.9375 19.74609375,31.34765625 19.98046875,31.9921875 20.361328125,30.263671875 20.21484375,28.9306640625 19.921875,27.451171875 20.2880859375,27.2021484375 20.654296875,26.982421875 23.4814453125,28.6669921875 26.396484375,29.912109375 26.982421875,30.1318359375 27.685546875,30.41015625 28.53515625,30.703125 33.896484375,31.171875 35.44921875,31.171875 34.453125,28.212890625 32.40234375,25.166015625 30.966796875,23.408203125 29.8974609375,22.1337890625 29.326171875,20.9765625 29.23828125,20.15625 28.9672832489014,18.9257831573486 28.505859375,18.22265625 28.0517578125,17.8125 27.71484375,17.490234375 25.048828125,14.82421875 23.466796875,13.212890625 20.68359375,10.341796875 17.51953125,7.14843797683716 14.794921875,4.68750047683716 14.00390625,3.98437547683716 12.861328125,3.19335985183716 11.77734375,2.95898485183716 10.83251953125,3.24462938308716 10.517578125,4.10156297683716 10.634765625,5.03906297683716 10.810546875,5.94726610183716 10.810546875,6.29882860183716 10.4296875,8.14453125 9.580078125,8.232421875 8.90625,6.98730516433716 8.73046875,5.83007860183716 8.9794921875,4.21875047683716 9.4921875,2.34375047683716 9.2724609375,1.72851610183716 8.90625,1.20117235183716 7.763671875,0.908204078674316z M7.880859375,0L9.4921875,0.483399391174316 10.4296875,2.19726610183716 10.4296875,2.37304735183716 11.1328125,2.09472703933716 11.806640625,2.02148485183716 13.3154287338257,2.40234422683716 14.970703125,3.54492235183716 16.083984375,4.57031297683716 19.5703125,7.86621141433716 23.5546875,11.89453125 25.4736309051514,13.9050312042236 27.01171875,15.4833984375 28.1835918426514,16.6442890167236 29.00390625,17.40234375 29.9707012176514,18.8452167510986 30.29296875,21.064453125 32.9736328125,24.4775390625 34.62890625,26.748046875 35.625,28.4619140625 36.2109375,30.146484375 36.3427734375,28.8720703125 36.73828125,27.24609375 37.236328125,25.01220703125 37.67578125,22.177734375 37.9833984375,18.7866230010986 38.0859375,14.8828125 38.0859375,13.7109375 37.9833984375,11.2939453125 37.880859375,9.228515625 38.3935546875,6.56250047683716 40.078125,5.03906297683716 37.529296875,4.27734422683716 36.54052734375,3.97705125808716 36.2109375,3.25195360183716 36.48193359375,2.40966844558716 37.294921875,1.87500047683716 38.2177734375,1.52343797683716 38.7890625,1.28906297683716 40.13671875,0.703125 41.484375,0.219727039337158 42.890625,0.0292978286743164 44.970703125,0.498047351837158 46.7724609375,1.77246141433716 47.4938926696777,2.77954149246216 48.22265625,4.18945360183716 48.8745079040527,5.45654344558716 49.365234375,6.09375047683716 50.2734375,7.07519578933716 50.7421875,8.701171875 50.09765625,10.986328125 45.966796875,19.16015625 44.443359375,22.470703125 43.857421875,23.818359375 43.3154296875,25.107421875 42.8759765625,26.2353515625 42.626953125,27.0703125 42.451171875,27.9052734375 42.36328125,28.76953125 42.451171875,29.6484375 43.857421875,29.47265625 45.205078125,29.736328125 46.494140625,30.64453125 46.93359375,30.556640625 49.0576171875,30.2197265625 51.15234375,30.087890625 53.1738243103027,30.2197265625 54.78515625,30.615234375 55.8618125915527,31.31103515625 56.279296875,32.34375 56.162109375,33.33984375 55.83984375,34.3359375 56.748046875,36.005859375 57.041015625,37.880859375 57.041015625,38.6572265625 57.01171875,39.169921875 57.216796875,40.458984375 58.06640625,41.71875 57.509765625,42.451171875 55.78125,40.8544921875 54.609375,38.232421875 52.3535118103027,41.396484375 49.5703125,43.388671875 46.34765625,44.443359375 42.83203125,44.794921875 37.825927734375,44.388427734375 33.9404296875,43.1689453125 31.072998046875,41.129150390625 29.12109375,38.26171875 26.9677715301514,41.19873046875 23.90625,43.271484375 20.185546875,44.501953125 16.0546875,44.912109375 11.7260732650757,44.46533203125 7.763671875,43.125 4.4970703125,40.7666015625 2.314453125,37.265625 3.4423828125,35.9912109375 5.302734375,35.595703125 6.53320360183716,35.80078125 7.412109375,36.240234375 10.8984375,36.240234375 12.01171875,33.28125 12.392578125,29.8828125 11.953125,24.873046875 10.986328125,20.419921875 9.990234375,17.021484375 9.228515625,15 8.583984375,12.158203125 7.3095703125,11.689453125 6.40136671066284,10.9130859375 5.859375,9.7119140625 5.68359375,7.96875047683716 5.72753953933716,6.53320360183716 5.77148389816284,5.00976610183716 5.2294921875,4.80468797683716 4.39453172683716,4.59960985183716 2.57812452316284,4.42382860183716 1.56738257408142,4.54101610183716 0.937499761581421,4.98046922683716 0.117187738418579,4.71679735183716 0,4.16015672683716 0,4.04296922683716 0.490722596645355,2.76123094558716 1.66992163658142,1.78710985183716 3.33984375,1.14990282058716 5.126953125,0.937500953674316 6.4599609375,0.2490234375 7.880859375,0z" />
    </g>
  </g>
</svg>