<?xml version="1.0" encoding="utf-8"?>
<!DOCTYPE svg PUBLIC "-//W3C//DTD SVG 1.1//EN" "http://www.w3.org/Graphics/SVG/1.1/DTD/svg11.dtd">
<svg width="41.07421875" height="19.86328125" xmlns="http://www.w3.org/2000/svg" xmlns:xlink="http://www.w3.org/1999/xlink" xmlns:xml="http://www.w3.org/XML/1998/namespace" version="1.1">
  <g>
    <g>
      <path style="fill:#FF0000;fill-opacity:1" d="M1.171875,0.966796875L0.878906488418579,1.025390625 0.996093988418579,1.552734375 1.20117163658142,2.021484375 2.4169921875,2.3583984375 3.69140625,2.40234375 4.1015625,2.578125 4.3212890625,2.9443359375 4.8046875,3.134765625 5.09765625,3.0615234375 5.44921875,2.900390625 5.7421875,2.98828125 6.005859375,3.046875 6.4892578125,3.5595703125 6.943359375,4.04296875 7.20703125,4.189453125 7.734375,4.27734375 7.939453125,4.27734375 7.939453125,5.21484375 7.646484375,5.21484375 6.62109375,4.892578125 5.91796827316284,4.306640625 5.5078125,3.92578125 5.1416015625,4.0283203125 4.775390625,4.072265625 4.01367235183716,3.9111328125 3.45703172683716,3.33984375 2.72460985183716,3.310546875 2.22656273841858,3.28125 4.8486328125,4.874267578125 8.203125,6.7236328125 11.4331045150757,8.367919921875 13.681640625,9.345703125 14.091796875,8.466796875 14.94140625,8.056640625 15.029296875,8.056640625 15.029296875,8.994140625 14.912109375,9.0234375 14.677734375,9.345703125 14.560546875,10.078125 14.4213857650757,10.601806640625 14.23828125,11.7626953125 13.8647451400757,12.872314453125 13.154296875,13.2421875 11.513671875,13.30078125 10.4443359375,13.2568359375 9.19921875,13.740234375 14.560546875,13.740234375 15.44677734375,13.509521484375 16.23046875,12.8173828125 16.962890625,10.986328125 17.255859375,10.72265625 17.548828125,10.458984375 21.2548828125,11.0595703125 25.01953125,11.3671875 25.5908203125,9.4482421875 27.041015625,7.587890625 27.275390625,7.412109375 27.509765625,7.236328125 28.095703125,7.96875 26.66015625,9.43359375 25.927734375,11.6015625 25.927734375,12.7734375 25.6640625,13.0078125 25.4296875,13.2421875 24.1845703125,13.125 22.763671875,13.0078125 21.6943359375,13.1689453125 20.91796875,13.740234375 26.8359375,13.740234375 28.1652812957764,13.5498046875 29.1064453125,12.978515625 30.17578125,10.810546875 30.263671875,10.13671875 30.29296875,9.7265625 30.263671875,9.43359375 30.17578125,9.08203125 30.205078125,9.08203125 30.439453125,9.0234375 31.083984375,8.84765625 31.201171875,9.375 31.201171875,10.078125 31.171875,10.37109375 31.9775390625,10.283203125 32.8125,10.25390625 34.7021484375,10.693359375 35.33203125,12.01171875 35.33203125,12.275390625 34.837646484375,13.42529296875 33.5888671875,14.53125 31.505126953125,15.52001953125 28.505859375,16.318359375 26.513671875,16.728515625 22.001953125,17.6806640625 20.00244140625,18.218994140625 18.69140625,18.92578125 23.4814453125,18.8818359375 28.271484375,18.69140625 30.556640625,18.57421875 33.2107543945313,18.3535766601563 35.372314453125,17.955322265625 37.0413208007813,17.3794555664063 38.2177734375,16.6259765625 39.613037109375,14.703369140625 40.078125,12.3046875 39.5654296875,10.389404296875 38.02734375,8.4521484375 35.877685546875,6.97265625 33.5302734375,6.4306640625 31.0400390625,6.15234375 28.4619140625,5.4638671875 26.0632305145264,4.793701171875 24.111328125,4.5703125 21.1962890625,4.892578125 18.10546875,5.21484375 17.05078125,5.15625 15.29296875,4.639892578125 13.125,3.4423828125 10.9350576400757,2.288818359375 9.111328125,1.904296875 8.525390625,1.904296875 6.708984375,1.9921875 4.892578125,2.080078125 2.9736328125,1.8603515625 1.171875,0.966796875z M0.996093988418579,0L2.38769555091858,0.615234375 3.504638671875,1.07666015625 5.18554639816284,1.23046875 6.8115234375,1.0986328125 8.5546875,0.966796875 8.876953125,0.966796875 11.0046377182007,1.435546875 13.4619140625,2.666015625 15.845947265625,3.87451171875 17.75390625,4.27734375 18.28125,4.27734375 21.2548828125,3.955078125 24.111328125,3.6328125 26.1181621551514,3.8525390625 28.505859375,4.51171875 33.9697265625,5.595703125 36.661376953125,6.309814453125 38.96484375,8.0419921875 40.546875,10.250244140625 41.07421875,12.392578125 40.858154296875,13.92333984375 40.2099609375,15.5859375 39.093017578125,17.105712890625 37.470703125,18.2080078125 35.35400390625,18.929443359375 32.75390625,19.306640625 27.3486328125,19.6875 25.7949810028076,19.764404296875 23.6975078582764,19.8193359375 21.0562114715576,19.852294921875 17.87109375,19.86328125 17.431640625,19.306640625 17.490234375,19.072265625 17.6953125,18.651123046875 18.310546875,18.0322265625 19.40185546875,17.398681640625 21.03515625,16.93359375 22.265625,16.669921875 25.6640605926514,15.9228515625 28.65234375,15.322265625 31.116943359375,14.68505859375 32.9443359375,13.828125 34.075927734375,12.89794921875 34.453125,12.041015625 34.04296875,11.337890625 32.87109375,11.162109375 31.875,11.220703125 30.99609375,11.337890625 29.58984375,13.798828125 28.4033184051514,14.4580078125 26.8359375,14.677734375 20.21484375,14.677734375 19.775390625,14.12109375 20.6982421875,12.6416015625 22.1484375,12.158203125 19.9951171875,11.8359375 17.841796875,11.455078125 17.49755859375,12.572021484375 16.7578125,13.6376953125 15.73974609375,14.417724609375 14.560546875,14.677734375 8.408203125,14.677734375 8.02734375,13.974609375 9.0966796875,12.7001953125 11.337890625,12.275390625 12.216796875,12.275390625 13.037109375,12.3046875 13.388671875,11.71875 13.4765625,10.751953125 13.53515625,10.25390625 11.1328125,9.31640625 8.84765625,8.115234375 4.423828125,5.712890625 0.205078363418579,2.958984375 0.205078363418579,2.255859375 0.29296863079071,2.2265625 0.0878908634185791,1.611328125 0,0.99609375 0.2197265625,0.29296875 0.996093988418579,0z" />
    </g>
  </g>
</svg>