<?xml version="1.0" encoding="utf-8"?>
<!DOCTYPE svg PUBLIC "-//W3C//DTD SVG 1.1//EN" "http://www.w3.org/Graphics/SVG/1.1/DTD/svg11.dtd">
<svg width="43.681640625" height="37.67578125" xmlns="http://www.w3.org/2000/svg" xmlns:xlink="http://www.w3.org/1999/xlink" xmlns:xml="http://www.w3.org/XML/1998/namespace" version="1.1">
  <g>
    <g>
      <path style="fill:#FF0000;fill-opacity:1" d="M39.638671875,4.541015625L39.638671875,15.087890625 42.744140625,16.376953125 42.744140625,4.541015625 39.638671875,4.541015625z M22.177734375,0.9375L22.239990234375,1.56005859375 22.3681640625,2.783203125 22.562255859375,4.61425876617432 22.822265625,7.060546875 23.26171875,12.158203125 23.408203125,16.5234375 23.1957988739014,21.405029296875 22.55859375,25.3857421875 21.5478515625,28.450927734375 20.21484375,30.5859375 18.204345703125,32.0947265625 15.1611328125,33.33984375 10.9680166244507,34.4091796875 5.5078125,35.390625 5.478515625,35.68359375 5.9765625,36.4306640625 7.705078125,36.708984375 9.93896484375,36.55517578125 12.7734375,36.09375 15.615234375,35.6103515625 17.841796875,35.44921875 21.474609375,35.830078125 24.9609375,36.6796875 26.19140625,36.123046875 26.4111309051514,35.47119140625 26.484375,34.3359375 26.30859375,29.501953125 26.044921875,23.466796875 25.9423828125,20.4638671875 25.8984375,17.431640625 25.9423828125,13.271484375 26.044921875,9.169921875 26.337890625,0.9375 22.177734375,0.9375z M21.62109375,0L26.806640625,0 27.3046875,0.46875 27.0263671875,7.939453125 26.865234375,14.765625 28.41796875,14.736328125 29.7509765625,14.7216796875 30.908203125,14.70703125 34.6142578125,14.77294921875 38.701171875,14.970703125 38.701171875,3.603515625 43.681640625,3.603515625 43.681640625,17.314453125 26.865234375,17.314453125 26.9384746551514,22.63916015625 27.158203125,27.36328125 27.3779277801514,31.50146484375 27.451171875,35.068359375 27.1728496551514,36.42333984375 26.337890625,37.20703125 25.01953125,37.6171875 24.0673828125,37.4267578125 22.177734375,36.943359375 17.607421875,36.416015625 15.41748046875,36.5771484375 12.83203125,37.060546875 7.646484375,37.67578125 5.3173828125,37.1044921875 4.713134765625,36.419677734375 4.51171875,35.5078125 4.8193359375,34.7900390625 5.74218702316284,34.3359375 6.38671875,34.21875 7.55859375,34.013671875 9.462890625,33.75 14.53125,32.607421875 16.97021484375,31.6845703125 18.779296875,30.556640625 20.068359375,29.091796875 21.064453125,27.041015625 22.1630859375,22.3095703125 22.470703125,17.314453125 9.66796875,17.314453125 7.5146484375,17.9736328125 5.21484375,18.193359375 2.79052734375,17.9736328125 0.205078125,17.314453125 0,16.7578125 0.29296875,15.8056640625 1.14257836341858,15.439453125 3.9990234375,16.142578125 7.763671875,16.376953125 5.63232374191284,15.322265625 3.046875,14.970703125 2.69531202316284,14.736328125 3.046875,14.47265625 4.86328172683716,14.296875 7.1337890625,14.69970703125 9.66796875,15.908203125 10.45166015625,15.8642578125 12.275390625,15.732421875 13.6706533432007,15.6298828125 15.4541015625,15.498046875 17.647705078125,15.3369140625 20.2734375,15.146484375 22.44140625,15 21.9580078125,7.7490234375 21.181640625,0.556640625 21.62109375,0z" />
    </g>
  </g>
</svg>