<?xml version="1.0" encoding="utf-8"?>
<!DOCTYPE svg PUBLIC "-//W3C//DTD SVG 1.1//EN" "http://www.w3.org/Graphics/SVG/1.1/DTD/svg11.dtd">
<svg width="44.970703125" height="43.4765625" xmlns="http://www.w3.org/2000/svg" xmlns:xlink="http://www.w3.org/1999/xlink" xmlns:xml="http://www.w3.org/XML/1998/namespace" version="1.1">
  <g>
    <g>
      <path style="fill:#FF0000;fill-opacity:1" d="M8.056640625,30.673828125L7.6611328125,30.8935546875 7.294921875,31.4501953125 6.97265625,32.197265625 6.708984375,32.98828125 7.5439453125,32.8125 8.2470703125,32.4609375 8.7451171875,31.9921875 8.935546875,31.494140625 8.642578125,30.9375 8.3203125,30.7177734375 8.056640625,30.673828125z M14.53125,23.525390625L12.978515625,27.7587890625 10.1953125,30.908203125 10.458984375,31.314697265625 10.95703125,32.1240234375 12.275390625,34.541015625 13.8354482650757,37.177734375 15.5859375,39.404296875 15.3955078125,39.7265625 15.263671875,39.90234375 15.17578125,40.01953125 7.998046875,40.01953125 6.8994140625,40.1806640625 6.24023485183716,40.6494140625 5.90332078933716,41.4404296875 5.77148485183716,42.5390625 44.033203125,42.5390625 44.033203125,38.84765625 42.06298828125,35.39794921875 38.96484375,32.783203125 36.884765625,31.7193603515625 34.248046875,30.72509765625 31.0546875,29.8004150390625 27.3046875,28.9453125 23.4375,27.94921875 19.9658203125,26.66015625 16.962890625,25.166015625 14.53125,23.525390625z M5.80078125,21.005859375L6.708984375,21.73828125 5.712890625,22.236328125 5.419921875,21.796875 5.5224609375,21.2548828125 5.80078125,21.005859375z M9.931640625,18.955078125L9.521484375,19.013671875 9.1259765625,19.0576171875 8.701171875,19.072265625 8.4228515625,19.072265625 8.14453125,19.04296875 7.8515625,19.013671875 7.08984375,19.423828125 6.50390625,19.7607421875 6.123046875,19.98046875 5.33203172683716,20.7421875 4.775390625,21.884765625 4.42382764816284,22.39013671875 3.662109375,23.26171875 2.43164086341858,25.3125 2.43164086341858,25.400390625 2.4609375,25.6640625 2.490234375,25.986328125 3.193359375,26.8212890625 4.42382860183716,27.01171875 5.3466796875,26.982421875 5.947265625,26.953125 6.90673828125,27.15087890625 8.02734375,27.744140625 9.755859375,29.970703125 11.2060546875,28.7255859375 12.421875,26.7626953125 13.30078125,24.6240234375 13.740234375,22.8515625 12.9638671875,23.4375 12.158203125,24.0234375 12.041015625,23.90625 11.572265625,23.291015625 12.568359375,22.55859375 13.271484375,22.0458984375 14.091796875,21.4013671875 14.853515625,20.68359375 15.41015625,19.892578125 13.7036123275757,20.2001953125 12.568359375,20.830078125 11.71875,21.650390625 10.869140625,22.5 10.693359375,22.32421875 10.166015625,21.85546875 11.66015625,20.390625 10.927734375,19.833984375 10.48828125,19.3505859375 10.166015625,19.1015625 9.931640625,18.955078125z M32.34375,16.23046875L37.998046875,26.220703125 39.90234375,24.697265625 32.34375,16.23046875z M9.052734375,11.19140625L7.880859375,11.3525390625 6.826171875,11.89453125 6.0498046875,12.9345703125 5.74218702316284,14.560546875 5.74218702316284,14.8828125 5.99121046066284,15.9960956573486 6.62109375,16.875 7.56591796875,17.4462909698486 8.759765625,17.63671875 10.224609375,17.4353046417236 11.337890625,16.8310546875 12.0410146713257,15.7873554229736 12.275390625,14.267578125 11.9677734375,12.9931640625 11.162109375,11.953125 10.107421875,11.3525390625 9.052734375,11.19140625z M15.029296875,1.93359375L13.9892578125,2.4169921875 13.271484375,3.45703125 10.634765625,10.546875 12.451171875,11.19140625 12.9711904525757,7.77099609375 13.4765625,5.712890625 14.0332021713257,4.70947265625 14.765625,4.27734375 15.9228515625,3.8818359375 16.259765625,3.076171875 15.8203125,2.16796875 15.029296875,1.93359375z M10.751953125,0.966796875L10.0048828125,1.11328125 9.66796875,1.7578125 9.814453125,2.4609375 10.166015625,2.900390625 10.72265625,3.720703125 10.1953125,5.80078125 8.994140625,8.349609375 8.291015625,9.66796875 9.755859375,10.224609375 12.36328125,3.22265625 12.36328125,2.373046875 11.8212890625,1.259765625 10.751953125,0.966796875z M10.6640625,0L11.455078125,0.087890625 12.2314453125,0.3955078125 12.861328125,0.966796875 13.212890625,1.845703125 14.0185546875,1.2158203125 14.912109375,0.9375 16.494140625,1.58203125 17.0654296875,2.2705078125 17.255859375,3.10546875 16.669921875,4.482421875 16.171875,4.8779296875 15.732421875,5.068359375 15.29296875,5.1416015625 14.794921875,5.21484375 14.296875,6.298828125 14.00390625,7.5439453125 13.798828125,8.642578125 13.30078125,11.8359375 12.65625,12.275390625 13.0517578125,13.1982421875 13.212890625,14.1796875 13.1396484375,14.970703125 12.978515625,15.703125 13.564453125,14.9267578125 14.853515625,13.359375 16.1572265625,11.9091796875 17.197265625,10.83984375 18.2666015625,10.1806640625 19.6875,9.9609375 20.0390625,9.990234375 20.419921875,10.078125 20.830078125,10.166015625 20.7421875,10.6640625 20.478515625,10.634765625 20.1708984375,10.5908203125 19.775390625,10.517578125 18.515625,10.8837890625 17.607421875,11.806640625 14.091796875,16.23046875 12.5830078125,17.841796875 11.015625,18.720703125 12.392578125,19.775390625 14.1943359375,19.1015625 16.11328125,18.92578125 16.58203125,19.541015625 15.7177734375,21.064453125 14.501953125,22.265625 16.8310546875,24.0966796875 19.5703125,25.48828125 21.85546875,26.455078125 30.205078125,12.3046875 40.95703125,24.462890625 40.83984375,25.13671875 38.14453125,27.333984375 37.470703125,27.1875 30.205078125,14.35546875 22.763671875,26.8359375 24.7119140625,27.3779296875 26.689453125,27.83203125 28.505859375,28.212890625 29.970703125,28.564453125 32.6953125,29.326171875 34.833984375,29.94140625 36.89208984375,30.71044921875 39.31640625,31.962890625 41.6455078125,33.6328125 43.53515625,35.771484375 44.6630859375,38.0126953125 44.970703125,40.107421875 44.970703125,43.0078125 44.47265625,43.4765625 5.244140625,43.4765625 4.8046875,42.919921875 4.86328172683716,42.01171875 5.6103515625,39.873046875 6.522216796875,39.32373046875 7.939453125,39.140625 14.150390625,39.140625 12.919921875,37.5732421875 11.7333984375,35.6689453125 10.6640625,33.69140625 9.755859375,31.845703125 9.7265625,32.1240234375 9.521484375,32.431640625 8.5986328125,33.0908203125 7.646484375,33.427734375 6.591796875,33.544921875 7.998046875,34.51171875 7.060546875,35.44921875 6.123046875,34.04296875 4.6875,35.91796875 3.75000047683716,34.98046875 5.654296875,33.544921875 4.21875,32.607421875 5.15625,31.669921875 6.123046875,33.076171875 6.38671875,31.640625 6.796875,30.6884765625 7.265625,30.1611328125 7.67578125,30 8.2177734375,30.087890625 8.583984375,30.263671875 8.876953125,30.52734375 7.55859375,28.5791015625 5.390625,27.890625 4.27734375,27.890625 2.95166015625,27.70751953125 2.08007788658142,27.158203125 1.46484351158142,25.517578125 1.6552734375,24.580078125 2.2265625,23.525390625 2.9296875,22.6171875 3.45703125,22.060546875 4.3359375,20.595703125 5.0244140625,19.6142578125 6.298828125,18.837890625 4.86328172683716,18.310546875 3.8818359375,17.314453125 3.2373046875,15.966796875 2.81249952316284,14.35546875 2.32910180091858,11.42578125 1.99218773841858,8.73046875 1.43554663658142,6.5185546875 0,5.419921875 0.0878903865814209,5.068359375 1.190185546875,5.32470703125 2.03613305091858,6.09375 2.98828125,8.73046875 3.2666015625,10.5029296875 3.5302734375,12.01171875 3.7939453125,13.359375 4.072265625,14.6484375 4.29199171066284,15.3662109375 4.6728515625,16.2744140625 5.3173828125,17.138671875 6.298828125,17.75390625 5.0390625,16.025390625 4.716796875,14.326171875 4.92553663253784,12.9016132354736 5.5517578125,11.7333984375 6.485595703125,10.8874521255493 7.6171875,10.4296875 7.529296875,10.3271484375 7.412109375,10.078125 7.236328125,9.697265625 7.55859375,9.052734375 7.939453125,8.3203125 8.466796875,7.353515625 9.36767578125,5.361328125 9.78515625,3.779296875 8.994140625,2.7392578125 8.73046875,1.787109375 9.2724609375,0.4833984375 10.6640625,0z" />
    </g>
  </g>
</svg>