<?xml version="1.0" encoding="utf-8"?>
<!DOCTYPE svg PUBLIC "-//W3C//DTD SVG 1.1//EN" "http://www.w3.org/Graphics/SVG/1.1/DTD/svg11.dtd">
<svg width="37.79296875" height="44.853515625" xmlns="http://www.w3.org/2000/svg" xmlns:xlink="http://www.w3.org/1999/xlink" xmlns:xml="http://www.w3.org/XML/1998/namespace" version="1.1">
  <g>
    <g>
      <path style="fill:#FF0000;fill-opacity:1" d="M35.0390625,29.296875L33.2958984375,31.1865234375 31.318359375,32.373046875 32.197265625,34.0869140625 33.33984375,35.625 34.453125,36.7529296875 34.951171875,37.294921875 34.78271484375,38.59130859375 34.27734375,40.546875 33.68408203125,42.25341796875 33.251953125,42.978515625 32.490234375,43.53515625 32.197265625,43.916015625 33.57421875,43.916015625 33.837890625,42.978515625 34.482421875,42.24609375 34.833984375,39.55078125 35.771484375,37.03125 34.4091796875,36.1083984375 33.6328125,35.33203125 33.2373046875,34.599609375 33.076171875,33.896484375 33.3984375,32.373046875 33.984375,31.23046875 34.51171875,30.2197265625 35.0390625,29.296875z M15.64453125,4.599609375L16.201171875,5.185546875 15.703125,5.5078125 15.498046875,5.009765625 15.64453125,4.599609375z M17.4609375,2.8125L15.7470703125,3.427734375 14.560546875,4.921875 13.681640625,6.328125 12.509765625,6.943359375 11.89453125,7.08984375 11.30859375,7.32421875 11.66015625,8.466796875 17.255859375,8.466796875 17.4462890625,8.173828125 17.490234375,8.0859375 18.427734375,7.998046875 18.2373046875,8.7451171875 17.900390625,9.19921875 16.494140625,18.076171875 15.87890625,18.369140625 14.3994140625,17.5927734375 12.65625,16.435546875 10.927734375,15.1611328125 9.814453125,14.6484375 8.6279296875,15.234375 7.921142578125,16.0253925323486 7.119140625,17.2265625 5.66162061691284,19.0795917510986 4.10156297683716,20.478515625 2.8125,21.39404296875 2.10937523841858,21.796875 1.17187476158142,22.32421875 2.69531297683716,22.6171875 2.900390625,22.3095703125 3.251953125,21.826171875 4.51171827316284,21.240234375 7.1044921875,18.486328125 9.609375,15.703125 10.1953125,15.673828125 13.0517578125,17.578125 16.171875,18.896484375 16.083984375,19.833984375 14.9267578125,19.8046875 13.681640625,19.74609375 12.5244140625,19.7021484375 11.689453125,19.6875 10.517578125,19.8193359375 9.84375,20.185546875 9.345703125,20.91796875 8.6279296875,22.2216796875 7.8369140625,23.7890625 7.08984375,25.3125 6.24755811691284,26.81396484375 5.712890625,27.451171875 5.361328125,27.685546875 5.0244140625,27.94921875 4.8046875,28.330078125 6.38671875,28.330078125 6.474609375,28.0224609375 6.533203125,27.568359375 6.7822265625,27.099609375 7.236328125,26.923828125 9.990234375,21.005859375 10.37109375,20.771484375 10.927734375,20.712890625 11.396484375,20.654296875 11.8359375,20.625 14.6484375,20.9765625 17.40234375,21.708984375 17.87109375,21.5185546875 18.251953125,21.3720703125 18.6181640625,21.181640625 19.04296875,20.888671875 19.74609375,21.533203125 19.423828125,21.796875 19.1015625,22.03125 18.720703125,22.294921875 27.59765625,27.685546875 27.890625,26.806640625 28.798828125,27.041015625 28.59375,27.71484375 28.4033203125,28.330078125 28.212890625,28.916015625 27.890625,31.2890625 28.2275390625,33.603515625 29.23828125,36.2109375 29.23828125,36.50390625 27.861328125,39.345703125 26.77734375,41.484375 26.25,42.36328125 26.07421875,42.568359375 25.9130859375,42.71484375 25.751953125,42.83203125 25.2099609375,43.095703125 24.873046875,43.30078125 24.7265625,43.4912109375 24.609375,43.916015625 25.986328125,43.916015625 26.42578125,42.59765625 27.509765625,41.66015625 28.5498046875,39.1259765625 29.765625,36.6796875 29.8388671875,34.3212890625 30.234375,32.021484375 30.52734375,31.669921875 32.578125,30.673828125 33.720703125,29.70703125 34.365234375,28.8427734375 34.7607421875,28.212890625 35.068359375,27.6123046875 35.419921875,26.865234375 34.5556640625,24.9462890625 33.7353515625,23.5546875 32.841796875,22.529296875 31.7578125,21.73828125 30.029296875,20.8740234375 27.7880859375,19.892578125 25.5908203125,18.9404296875 23.994140625,18.193359375 22.2802734375,16.7871112823486 21.708984375,15.087890625 21.2109375,8.232421875 20.80078125,6.2109375 21.240234375,5.654296875 23.6572265625,5.2001953125 25.3125,4.658203125 27.5390625,3.046875 26.6015625,2.8564453125 25.634765625,2.8125 24.9755859375,3.0615234375 23.49609375,3.57421875 21.7822265625,4.423828125 20.68359375,5.478515625 19.892578125,4.951171875 20.09765625,4.716796875 20.2734375,4.482421875 20.478515625,4.27734375 19.013671875,3.4423828125 17.4609375,2.8125z M25.517578125,1.259765625L23.642578125,1.962890625 22.32421875,3.046875 25.1953125,1.962890625 25.517578125,1.259765625z M26.279296875,0L26.89453125,0.5859375 26.25,1.904296875 28.4765625,2.373046875 28.740234375,3.10546875 26.25,5.244140625 24.4262676239014,5.9765625 21.826171875,6.533203125 22.1044921875,7.9541015625 22.294921875,9.462890625 22.3681640625,10.60546875 22.44140625,11.7919921875 22.5,12.802734375 22.529296875,13.388671875 22.68310546875,15.3881855010986 23.14453125,16.5234375 24.3896465301514,17.3950214385986 26.89453125,18.603515625 29.6044921875,19.74609375 31.376953125,20.5078125 32.666015625,21.2255859375 33.837890625,22.20703125 35.068359375,23.9501953125 36.328125,26.630859375 37.79296875,25.634765625 37.79296875,27.1875 36.50390625,27.65625 36.005859375,28.76953125 35.068359375,30.908203125 34.3212890625,32.5341796875 33.984375,33.80859375 34.3505859375,34.7900390625 35.595703125,35.859375 36.298828125,36.26953125 36.650390625,36.4453125 36.826171875,36.97265625 35.80078125,39.6533203125 35.419921875,42.48046875 35.126953125,42.919921875 34.775390625,43.3154296875 34.482421875,44.384765625 33.984375,44.853515625 31.611328125,44.853515625 31.171875,44.296875 31.171875,44.091796875 31.46484375,43.2861328125 32.6953125,42.1875 33.486328125,39.90234375 33.984375,37.5 32.2998046875,35.6396484375 30.87890625,33.57421875 30.791015625,35.185546875 30.76904296875,36.24755859375 30.703125,36.85546875 30.5419921875,37.2509765625 30.29296875,37.763671875 29.82421875,38.61328125 28.7695293426514,40.93505859375 28.41796875,41.923828125 28.2275371551514,42.275390625 27.65625,42.685546875 27.1069316864014,43.330078125 26.923828125,44.384765625 26.42578125,44.853515625 24.052734375,44.853515625 23.61328125,44.296875 23.61328125,43.9453125 24.287109375,42.65625 25.60546875,41.71875 28.271484375,36.357421875 27.2900390625,33.69140625 26.953125,31.2890625 27.3046875,28.59375 17.578125,22.734375 14.619140625,21.97265625 13.2275390625,21.6650390625 11.8359375,21.533203125 11.4697265625,21.5478515625 11.103515625,21.591796875 10.693359375,21.650390625 7.998046875,27.509765625 7.529296875,27.83203125 7.3828125,27.861328125 7.3095703125,28.5205078125 7.001953125,29.091796875 6.591796875,29.267578125 4.21875,29.267578125 3.779296875,28.7109375 4.248046875,27.421875 5.33203077316284,26.54296875 7.0458984375,23.3056640625 8.671875,20.21484375 9.7265625,19.1162109375 11.513671875,18.75 13.388671875,18.837890625 11.6748046875,17.8271484375 10.01953125,16.669921875 7.55859375,19.3798828125 5.09765672683716,22.001953125 4.68750047683716,22.177734375 3.955078125,22.353515625 3.6181640625,22.8955078125 3.22265625,23.408203125 2.97363233566284,23.5107421875 2.8125,23.583984375 0.439452886581421,23.115234375 0,22.55859375 0.336914032697678,21.76025390625 1.34765601158142,21.064453125 3.955078125,19.365234375 5.03173780441284,18.4057636260986 5.68359422683716,17.63671875 6.650390625,16.23046875 7.44140625,15.205078125 8.6279296875,14.091796875 9.755859375,13.681640625 10.8032217025757,13.9746112823486 12.12890625,14.853515625 13.7841796875,16.0400390625 15.703125,17.2265625 16.93359375,9.404296875 11.30859375,9.404296875 10.927734375,9.169921875 10.517578125,8.173828125 10.3125,7.353515625 10.61279296875,6.70166015625 11.513671875,6.2109375 12.451171875,5.888671875 12.890625,5.7421875 13.18359375,5.2734375 13.88671875,4.130859375 14.9560546875,2.900390625 16.2890625,2.138671875 17.021484375,1.9189453125 17.40234375,1.875 18.6767578125,2.255859375 21.03515625,3.515625 22.20703125,1.8310546875 23.90625,0.8203125 24.8291015625,0.5126953125 25.576171875,0.234375 26.279296875,0z" />
    </g>
  </g>
</svg>