<?xml version="1.0" encoding="utf-8"?>
<!DOCTYPE svg PUBLIC "-//W3C//DTD SVG 1.1//EN" "http://www.w3.org/Graphics/SVG/1.1/DTD/svg11.dtd">
<svg width="31.34765625" height="56.25" xmlns="http://www.w3.org/2000/svg" xmlns:xlink="http://www.w3.org/1999/xlink" xmlns:xml="http://www.w3.org/XML/1998/namespace" version="1.1">
  <g>
    <g>
      <path style="fill:#FF0000;fill-opacity:1" d="M21.4453125,12.83203125L26.9091777801514,13.26416015625 31.34765625,14.560546875 31.34765625,19.8046875 26.6015605926514,17.9150390625 21.38671875,17.28515625 17.9397583007813,17.5872802734375 14.835205078125,18.49365234375 12.0730590820313,20.0042724609375 9.6533203125,22.119140625 7.68585205078125,24.7393817901611 6.28051710128784,27.7661151885986 5.43731641769409,31.1993427276611 5.15625,35.0390625 5.41900587081909,38.6819458007813 6.20727491378784,41.934814453125 7.52105712890625,44.7976684570313 9.3603515625,47.2705078125 11.6262817382813,49.2636108398438 14.219970703125,50.687255859375 17.1414184570313,51.5414428710938 20.390625,51.826171875 26.2939434051514,51.123046875 31.34765625,49.013671875 31.34765625,53.7890625 26.1181621551514,55.634765625 19.74609375,56.25 15.487060546875,55.8892822265625 11.6748046875,54.80712890625 8.309326171875,53.0035400390625 5.390625,50.478515625 3.03222632408142,47.3675537109375 1.34765601158142,43.80615234375 0.33691394329071,39.7943115234375 0,35.33203125 0.37902820110321,30.53466796875 1.51611304283142,26.220703125 3.41125464439392,22.39013671875 6.064453125,19.04296875 9.2999267578125,16.32568359375 12.94189453125,14.384765625 16.9903564453125,13.22021484375 21.4453125,12.83203125z M11.66015625,0L15.029296875,0 19.833984375,6.708984375 24.638671875,0 28.125,0 21.85546875,9.66796875 17.98828125,9.66796875 11.66015625,0z" />
    </g>
  </g>
</svg>