<?xml version="1.0" encoding="utf-8"?>
<!DOCTYPE svg PUBLIC "-//W3C//DTD SVG 1.1//EN" "http://www.w3.org/Graphics/SVG/1.1/DTD/svg11.dtd">
<svg width="23.7011718750001" height="39.580078125" xmlns="http://www.w3.org/2000/svg" xmlns:xlink="http://www.w3.org/1999/xlink" xmlns:xml="http://www.w3.org/XML/1998/namespace" version="1.1">
  <g>
    <g>
      <path style="fill:#FF0000;fill-opacity:1" d="M18.896484375,23.701171875L11.66015625,24.697265625 8.73046875,25.345458984375 6.62109375,26.3525390625 5.34667921066284,27.996826171875 4.921875,30.556640625 5.31372022628784,32.552490234375 6.4892578125,34.1455078125 8.316650390625,35.189208984375 10.6640625,35.537109375 13.927001953125,34.910888671875 16.5673828125,33.0322265625 18.314208984375,30.194091796875 18.896484375,26.689453125 18.896484375,23.701171875z M13.125,8.173828125L17.7520732879639,8.87329196929932 21.0571269989014,10.9716815948486 23.0401592254639,14.4689950942993 23.701171875,19.365234375 23.701171875,38.876953125 18.896484375,38.876953125 18.896484375,34.189453125 18.779296875,34.189453125 17.0269775390625,36.5478515625 14.90478515625,38.232421875 12.4127197265625,39.2431640625 9.55078125,39.580078125 5.55541944503784,38.98681640625 2.53417944908142,37.20703125 0.633544683456421,34.44580078125 0,30.908203125 0.61889636516571,27.1435546875 2.47558569908142,24.2578125 5.570068359375,22.2509765625 9.90234375,21.123046875 18.896484375,19.86328125 18.5101318359375,16.5179462432861 17.35107421875,14.1284198760986 15.4193115234375,12.6947031021118 12.71484375,12.216796875 10.07080078125,12.4475107192993 7.55859375,13.1396503448486 5.17822265625,14.2932138442993 2.92968726158142,15.908203125 2.92968726158142,10.986328125 7.6904296875,8.87695503234863 13.125,8.173828125z M5.91796875,0L20.80078125,0 20.80078125,3.193359375 5.91796875,3.193359375 5.91796875,0z" />
    </g>
  </g>
</svg>