<?xml version="1.0" encoding="utf-8"?>
<!DOCTYPE svg PUBLIC "-//W3C//DTD SVG 1.1//EN" "http://www.w3.org/Graphics/SVG/1.1/DTD/svg11.dtd">
<svg width="39.931640625" height="45.1171875" xmlns="http://www.w3.org/2000/svg" xmlns:xlink="http://www.w3.org/1999/xlink" xmlns:xml="http://www.w3.org/XML/1998/namespace" version="1.1">
  <g>
    <g>
      <path style="fill:#FF0000;fill-opacity:1" d="M14.35546875,17.75390625L12.2753896713257,17.9553241729736 10.4296865463257,18.5595722198486 8.81835842132568,19.5666522979736 7.44140625,20.9765625 5.55175733566284,24.814453125 4.921875,29.8828125 5.52612257003784,34.522705078125 7.3388671875,38.0712890625 8.65081691741943,39.3850708007813 10.1696767807007,40.323486328125 11.8954458236694,40.8865356445313 13.828125,41.07421875 17.464599609375,40.34912109375 20.3466796875,38.173828125 22.2253398895264,34.892578125 22.8515625,30.849609375 22.8515625,26.42578125 22.2509746551514,23.0712890625 20.44921875,20.2734375 17.724609375,18.3837909698486 14.35546875,17.75390625z M34.892578125,0L39.931640625,0 35.068359375,7.6171875 31.46484375,7.6171875 34.892578125,0z M22.8515625,0L27.65625,0 27.65625,44.4140625 22.8515625,44.4140625 22.8515625,39.31640625 22.734375,39.31640625 20.83740234375,41.854248046875 18.486328125,43.6669921875 15.68115234375,44.754638671875 12.421875,45.1171875 9.73663330078125,44.8654174804688 7.335205078125,44.110107421875 5.21759033203125,42.8512573242188 3.38378930091858,41.0888671875 1.90338134765625,38.8925170898438 0.84594714641571,36.331787109375 0.211486682295799,33.4066772460938 0,30.1171875 0.234374850988388,26.5814208984375 0.937499761581421,23.41552734375 2.10937452316284,20.6195068359375 3.74999928474426,18.193359375 5.78063917160034,16.2323017120361 8.12255859375,14.8315448760986 10.7757568359375,13.9910898208618 13.740234375,13.7109375 16.6204833984375,14.0148935317993 19.07958984375,14.9267597198486 21.1175537109375,16.4465351104736 22.734375,18.57421875 22.8515625,18.57421875 22.8515625,0z" />
    </g>
  </g>
</svg>