<?xml version="1.0" encoding="utf-8"?>
<!DOCTYPE svg PUBLIC "-//W3C//DTD SVG 1.1//EN" "http://www.w3.org/Graphics/SVG/1.1/DTD/svg11.dtd">
<svg width="37.3828125" height="53.291015625" xmlns="http://www.w3.org/2000/svg" xmlns:xlink="http://www.w3.org/1999/xlink" xmlns:xml="http://www.w3.org/XML/1998/namespace" version="1.1">
  <g>
    <g>
      <path style="fill:#FF0000;fill-opacity:1" d="M18.515625,16.376953125L18.20068359375,17.9736328125 17.841796875,19.189453125 11.30859375,37.08984375 25.869140625,37.08984375 19.27734375,19.189453125 18.955078125,18.046875 18.6328125,16.376953125 18.515625,16.376953125z M16.11328125,11.279296875L21.2109375,11.279296875 37.3828125,53.291015625 31.93359375,53.291015625 27.48046875,41.513671875 9.66796875,41.513671875 5.478515625,53.291015625 0,53.291015625 16.11328125,11.279296875z M10.576171875,0L13.505859375,0 13.95263671875,1.98669648170471 14.94140625,3.40576457977295 16.47216796875,4.25720405578613 18.544921875,4.541015625 20.394287109375,4.23340129852295 21.9580078125,3.310546875 23.0969219207764,1.86767864227295 23.671875,0 26.66015625,0 25.8654766082764,2.99194622039795 24.0673828125,5.3466796875 21.522216796875,6.873779296875 18.486328125,7.3828125 15.37353515625,6.87744140625 12.890625,5.361328125 11.22802734375,3.01025676727295 10.576171875,0z" />
    </g>
  </g>
</svg>