<?xml version="1.0" encoding="utf-8"?>
<!DOCTYPE svg PUBLIC "-//W3C//DTD SVG 1.1//EN" "http://www.w3.org/Graphics/SVG/1.1/DTD/svg11.dtd">
<svg width="37.79296875" height="23.0859375" xmlns="http://www.w3.org/2000/svg" xmlns:xlink="http://www.w3.org/1999/xlink" xmlns:xml="http://www.w3.org/XML/1998/namespace" version="1.1">
  <g>
    <g>
      <path style="fill:#FF0000;fill-opacity:1" d="M27.65625,1.845703125L25.8856182098389,2.3638916015625 24.5874004364014,3.91845703125 23.7615947723389,6.5093994140625 23.408203125,10.13671875 32.51953125,8.14453125 33.0908203125,7.8955078125 33.28125,7.3828125 33.076171875,6.324462890625 32.4609375,5.0830078125 30.3369140625,2.7978515625 29.0148906707764,2.083740234375 27.65625,1.845703125z M10.78125,1.552734375L9.019775390625,1.77978515625 7.3681640625,2.4609375 5.921630859375,3.585205078125 4.775390625,5.1416015625 4.02831983566284,7.093505859375 3.779296875,9.404296875 4.27734375,13.18359375 5.8447265625,17.16796875 8.5693359375,20.2880859375 10.3454580307007,21.177978515625 12.36328125,21.474609375 14.139404296875,21.20361328125 15.8349609375,20.390625 17.325439453125,19.061279296875 18.486328125,17.2412109375 19.2333984375,14.959716796875 19.482421875,12.24609375 19.229736328125,9.71923828125 18.4716796875,7.236328125 17.215576171875,4.98779296875 15.46875,3.1640625 13.30078125,1.95556640625 10.78125,1.552734375z M12.0492553710938,0L14.7463417053223,0.303955078125 17.2675323486328,1.2158203125 19.5542335510254,2.735595703125 21.5478515625,4.86328125 23.8746643066406,2.40234375 26.6551208496094,0.732421875 28.7480163574219,0.1171875 31.4554595947266,0.5419921875 33.5481262207031,1.81640625 35.2602767944336,3.90380859375 36.826171875,6.708984375 37.265625,7.3974609375 37.79296875,7.6171875 37.734375,8.583984375 35.5078125,8.95751953125 32.87109375,9.43359375 30.234375,9.935302734375 28.0078125,10.3857421875 24.228515625,11.220703125 23.466796875,11.396484375 23.5473613739014,13.30078125 23.671875,14.736328125 24.3310546875,16.962890625 26.044921875,18.955078125 28.681640625,20.33203125 31.201171875,20.830078125 32.8857421875,20.4931640625 33.885498046875,19.984130859375 35.390625,19.130859375 36.650390625,18.544921875 37.0751953125,18.6767578125 37.265625,19.013671875 36.8851089477539,19.661865234375 35.7435607910156,20.5517578125 32.1725463867188,22.32421875 30.2040481567383,22.8955078125 28.3964538574219,23.0859375 26.3330821990967,22.880859375 24.5915222167969,22.265625 23.2011203765869,21.412353515625 22.1912384033203,20.4931640625 20.7568359375,18.544921875 18.0155181884766,21.0791015625 14.7612762451172,22.529296875 11.6976928710938,22.96875 8.90527725219727,22.62451171875 6.15669250488281,21.591796875 3.68293762207031,19.91455078125 1.71501159667969,17.63671875 0.428752899169922,14.81689453125 0,11.513671875 0.249195098876953,8.98681640625 0.996780395507813,6.6796875 3.66462755203247,3.017578125 7.54898071289063,0.7763671875 9.7806921005249,0.194091796875 12.0492553710938,0z" />
    </g>
  </g>
</svg>