<?xml version="1.0" encoding="utf-8"?>
<!DOCTYPE svg PUBLIC "-//W3C//DTD SVG 1.1//EN" "http://www.w3.org/Graphics/SVG/1.1/DTD/svg11.dtd">
<svg width="31.259765625" height="53.96484375" xmlns="http://www.w3.org/2000/svg" xmlns:xlink="http://www.w3.org/1999/xlink" xmlns:xml="http://www.w3.org/XML/1998/namespace" version="1.1">
  <g>
    <g>
      <path style="fill:#FF0000;fill-opacity:1" d="M0,11.25L4.92187452316284,11.25 4.92187452316284,36.62109375 5.09216260910034,39.6492004394531 5.60302686691284,42.2735595703125 6.45446729660034,44.4941711425781 7.646484375,46.31103515625 9.1790771484375,47.7241516113281 11.05224609375,48.7335205078125 13.2659912109375,49.3391418457031 15.8203125,49.541015625 18.2853698730469,49.3460083007813 20.4217510223389,48.760986328125 22.2294597625732,47.7859497070313 23.7084941864014,46.4208984375 24.8588542938232,44.6658325195313 25.6805400848389,42.520751953125 26.1735534667969,39.9856567382813 26.337890625,37.060546875 26.337890625,11.25 31.259765625,11.25 31.259765625,36.26953125 31.0102844238281,40.4168701171875 30.2618408203125,44.01123046875 29.0144348144531,47.0526123046875 27.26806640625,49.541015625 25.0227355957031,51.4764404296875 22.2784423828125,52.85888671875 19.0351867675781,53.6883544921875 15.29296875,53.96484375 11.7086791992188,53.6988830566406 8.602294921875,52.9010009765625 5.97381544113159,51.5711975097656 3.82324171066284,49.70947265625 2.15057349205017,47.3158264160156 0.955810308456421,44.3902587890625 0.238952487707138,40.9327697753906 0,36.943359375 0,11.25z M7.47070264816284,0L10.400390625,0 10.8471670150757,1.98669648170471 11.8359365463257,3.40576457977295 13.36669921875,4.25720405578613 15.439453125,4.541015625 17.288818359375,4.23340129852295 18.8525390625,3.31054711341858 19.9914531707764,1.86767864227295 20.56640625,0 23.5546875,0 22.7600078582764,2.99194622039795 20.9619140625,5.3466796875 18.416748046875,6.873779296875 15.380859375,7.3828125 12.26806640625,6.87744140625 9.78515625,5.361328125 8.12255764007568,3.01025676727295 7.47070264816284,0z" />
    </g>
  </g>
</svg>