<?xml version="1.0" encoding="utf-8"?>
<!DOCTYPE svg PUBLIC "-//W3C//DTD SVG 1.1//EN" "http://www.w3.org/Graphics/SVG/1.1/DTD/svg11.dtd">
<svg width="24.90234375" height="43.76953125" xmlns="http://www.w3.org/2000/svg" xmlns:xlink="http://www.w3.org/1999/xlink" xmlns:xml="http://www.w3.org/XML/1998/namespace" version="1.1">
  <g>
    <g>
      <path style="fill:#FF0000;fill-opacity:1" d="M0,13.06640625L4.775390625,13.06640625 4.775390625,30.234375 5.2294921875,34.38720703125 6.591796875,37.353515625 8.8623046875,39.13330078125 12.041015625,39.7265625 15.245361328125,39.078369140625 17.8271484375,37.1337890625 19.5300273895264,34.141845703125 20.09765625,30.3515625 20.09765625,13.06640625 24.90234375,13.06640625 24.90234375,43.06640625 20.09765625,43.06640625 20.09765625,38.3203125 19.98046875,38.3203125 18.28125,40.704345703125 16.171875,42.4072265625 13.65234375,43.428955078125 10.72265625,43.76953125 8.20953369140625,43.5699462890625 6.031494140625,42.97119140625 4.18853759765625,41.9732666015625 2.6806640625,40.576171875 1.50787353515625,38.7799072265625 0.670166015625,36.58447265625 0.16754150390625,33.9898681640625 0,30.99609375 0,13.06640625z M4.27734375,0L7.20703125,0 7.65380859375,1.9866943359375 8.642578125,3.40576171875 10.17333984375,4.2572021484375 12.24609375,4.541015625 14.095458984375,4.2333984375 15.6591796875,3.310546875 16.798095703125,1.86767578125 17.373046875,0 20.361328125,0 19.5666484832764,2.991943359375 17.7685546875,5.3466796875 15.223388671875,6.873779296875 12.1875,7.3828125 9.07470607757568,6.87744140625 6.591796875,5.361328125 4.92919921875,3.01025390625 4.27734375,0z" />
    </g>
  </g>
</svg>