<?xml version="1.0" encoding="utf-8"?>
<!DOCTYPE svg PUBLIC "-//W3C//DTD SVG 1.1//EN" "http://www.w3.org/Graphics/SVG/1.1/DTD/svg11.dtd">
<svg width="34.74609375" height="42.1875" xmlns="http://www.w3.org/2000/svg" xmlns:xlink="http://www.w3.org/1999/xlink" xmlns:xml="http://www.w3.org/XML/1998/namespace" version="1.1">
  <g>
    <g>
      <path style="fill:#FF0000;fill-opacity:1" d="M13.76953125,15.703125L13.76953125,25.458984375 15.41015625,23.9794921875 16.2890625,22.236328125 18.017578125,22.734375 18.0908203125,23.9794921875 18.3837890625,25.2099609375 18.9990234375,26.1474609375 20.009765625,26.513671875 21.240234375,26.103515625 22.353515625,25.048828125 23.1591796875,23.6572265625 23.466796875,22.236328125 25.1953125,22.734375 25.8984375,25.458984375 26.7407207489014,26.25 27.861328125,26.513671875 28.88671875,26.220703125 29.94140625,25.2685546875 30.7763671875,23.583984375 31.11328125,21.09375 30.5859375,18.7353515625 29.1650390625,17.05078125 27.0849609375,16.0400390625 24.55078125,15.703125 13.76953125,15.703125z M6.796875,3.193359375L5.654296875,3.5302734375 4.892578125,4.4384765625 4.4677734375,5.771484375 4.3359375,7.412109375 4.5263671875,9.1552734375 5.20019578933716,10.4736328125 6.50390625,11.2939453125 8.61328125,11.572265625 8.96484375,11.572265625 8.96484375,7.998046875 8.9208984375,6.357421875 8.671875,4.8046875 8.02734375,3.6474609375 6.796875,3.193359375z M7.1484375,0L10.224609375,0.64453125 12.275390625,2.314453125 13.41796875,4.599609375 13.76953125,7.119140625 13.76953125,11.572265625 24.521484375,11.572265625 28.5205078125,12.1875 31.7578125,13.9599609375 33.9404296875,16.787109375 34.544677734375,18.57421875 34.74609375,20.595703125 34.365234375,24.169921875 33.134765625,27.3046875 30.9228515625,29.5458984375 29.4103984832764,30.194091796875 27.59765625,30.41015625 26.513671875,30.322265625 25.4150390625,29.9853515625 24.404296875,29.3408203125 23.583984375,28.330078125 23.37890625,28.330078125 21.8115234375,29.9267578125 19.833984375,30.41015625 17.98828125,29.94140625 16.40625,28.330078125 16.201171875,28.330078125 15.205078125,28.9453125 13.88671875,29.53125 14.1833486557007,31.7724609375 14.6630859375,33.57421875 16.1572265625,36.09375 18.369140625,37.3974609375 21.328125,37.763671875 23.8366680145264,37.569580078125 26.0302734375,36.9873046875 29.58984375,34.8046875 29.58984375,39.990234375 27.7294921875,40.95703125 25.576171875,41.6455078125 23.3349609375,42.0556640625 21.2109375,42.1875 16.4208984375,41.5576171875 12.7587890625,39.5654296875 11.3708486557007,38.009033203125 10.283203125,36.064453125 9.51416015625,33.7060546875 9.08203125,30.908203125 7.03125,31.34765625 5.15624952316284,31.69921875 3.57421875,31.9482421875 2.46093773841858,32.109375 2.46093773841858,29.560546875 3.3544921875,29.3994140625 4.86328125,29.0478515625 6.796875,28.5205078125 8.96484375,27.802734375 8.96484375,15.703125 7.939453125,15.703125 5.65795850753784,15.5017108917236 3.8525390625,14.8974609375 1.43554663658142,12.919921875 0.29296886920929,10.4443359375 0,8.173828125 0.541991949081421,4.6875 2.03613305091858,2.1240234375 4.2919921875,0.5419921875 7.1484375,0z" />
    </g>
  </g>
</svg>