<?xml version="1.0" encoding="utf-8"?>
<!DOCTYPE svg PUBLIC "-//W3C//DTD SVG 1.1//EN" "http://www.w3.org/Graphics/SVG/1.1/DTD/svg11.dtd">
<svg width="36.767578125" height="42.01171875" xmlns="http://www.w3.org/2000/svg" xmlns:xlink="http://www.w3.org/1999/xlink" xmlns:xml="http://www.w3.org/XML/1998/namespace" version="1.1">
  <g>
    <g>
      <path style="fill:#FF0000;fill-opacity:1" d="M23.49609375,26.630859375L27.890625,35.537109375 27.978515625,35.537109375 27.8887920379639,34.6160888671875 27.8247051239014,33.28857421875 27.7862529754639,31.5545654296875 27.7734375,29.4140625 27.7734375,26.630859375 23.49609375,26.630859375z M19.541015625,18.544921875L21.50390625,22.529296875 27.7734375,22.529296875 27.7734375,18.544921875 19.541015625,18.544921875z M8.90625,18.544921875L8.90625,22.529296875 16.845703125,22.529296875 14.853515625,18.544921875 8.90625,18.544921875z M8.701171875,6.15234375L8.85498046875,8.2470703125 8.90625,11.8359375 8.90625,14.4140625 12.802734375,14.4140625 9.990234375,8.73046875 8.84765625,6.15234375 8.701171875,6.15234375z M4.482421875,0L10.4296875,0 17.490234375,14.4140625 27.7734375,14.4140625 27.7734375,0 32.197265625,0 32.197265625,14.4140625 36.767578125,14.4140625 36.767578125,18.544921875 32.197265625,18.544921875 32.197265625,22.529296875 36.767578125,22.529296875 36.767578125,26.630859375 32.197265625,26.630859375 32.197265625,42.01171875 26.513671875,42.01171875 18.8671875,26.630859375 8.90625,26.630859375 8.90625,42.01171875 4.482421875,42.01171875 4.482421875,26.630859375 0,26.630859375 0,22.529296875 4.482421875,22.529296875 4.482421875,18.544921875 0,18.544921875 0,14.4140625 4.482421875,14.4140625 4.482421875,0z" />
    </g>
  </g>
</svg>