<?xml version="1.0" encoding="utf-8"?>
<!DOCTYPE svg PUBLIC "-//W3C//DTD SVG 1.1//EN" "http://www.w3.org/Graphics/SVG/1.1/DTD/svg11.dtd">
<svg width="28.88671875" height="42.01171875" xmlns="http://www.w3.org/2000/svg" xmlns:xlink="http://www.w3.org/1999/xlink" xmlns:xml="http://www.w3.org/XML/1998/namespace" version="1.1">
  <g>
    <g>
      <path style="fill:#FF0000;fill-opacity:1" d="M7.001953125,0L11.923828125,0 11.923828125,11.162109375 22.001953125,7.1484375 22.001953125,11.630859375 11.923828125,15.64453125 11.923828125,19.482421875 22.001953125,15.46875 22.001953125,19.951171875 11.923828125,23.935546875 11.923828125,37.587890625 12.94921875,37.587890625 15.2288818359375,37.3956298828125 17.29248046875,36.81884765625 19.1400146484375,35.8575439453125 20.771484375,34.51171875 23.0932598114014,30.849609375 24.08203125,26.015625 28.88671875,26.015625 28.3612041473389,29.53857421875 27.3706035614014,32.666015625 25.9149150848389,35.39794921875 23.994140625,37.734375 21.712646484375,39.605712890625 19.0869140625,40.9423828125 16.116943359375,41.744384765625 12.802734375,42.01171875 7.001953125,42.01171875 7.001953125,25.8984375 0,28.65234375 0,24.19921875 7.001953125,21.416015625 7.001953125,17.578125 0,20.361328125 0,15.908203125 7.001953125,13.125 7.001953125,0z" />
    </g>
  </g>
</svg>