<?xml version="1.0" encoding="utf-8"?>
<!DOCTYPE svg PUBLIC "-//W3C//DTD SVG 1.1//EN" "http://www.w3.org/Graphics/SVG/1.1/DTD/svg11.dtd">
<svg width="31.6406250000002" height="53.115234375" xmlns="http://www.w3.org/2000/svg" xmlns:xlink="http://www.w3.org/1999/xlink" xmlns:xml="http://www.w3.org/XML/1998/namespace" version="1.1">
  <g>
    <g>
      <path style="fill:#FF0000;fill-opacity:1" d="M1.61132788658142,49.62890625L26.513671875,49.62890625 26.513671875,53.115234375 1.61132788658142,53.115234375 1.61132788658142,49.62890625z M14.35546875,17.75390625L12.0190420150757,17.9992694854736 10.048828125,18.7353515625 7.119140625,21.38671875 5.44921875,25.25390625 4.921875,29.8828125 5.4345703125,34.1455078125 7.03125,37.7197265625 9.7998046875,40.166015625 11.6491689682007,40.84716796875 13.828125,41.07421875 15.809326171875,40.865478515625 17.5927734375,40.2392578125 20.4638671875,37.998046875 22.2802734375,34.74609375 22.8515625,30.849609375 22.8515625,26.42578125 22.20703125,23.02734375 20.4345703125,20.2734375 17.75390625,18.427734375 14.35546875,17.75390625z M22.8515625,0L27.65625,0 27.65625,5.2734375 31.640625,5.2734375 31.640625,9.19921875 27.65625,9.19921875 27.65625,44.4140625 22.8515625,44.4140625 22.8515625,39.31640625 22.734375,39.31640625 20.83740234375,41.854248046875 18.486328125,43.6669921875 15.68115234375,44.754638671875 12.421875,45.1171875 9.46288967132568,44.81689453125 6.9140625,43.916015625 4.77172803878784,42.506103515625 3.03222584724426,40.6787109375 1.69189429283142,38.470458984375 0.7470703125,35.91796875 0,30.1171875 0.216064244508743,26.88720703125 0.864257574081421,23.818359375 1.94091773033142,21.016845703125 3.44238305091858,18.5888671875 5.37231397628784,16.5783710479736 7.734375,15.029296875 10.5249013900757,14.0405292510986 13.740234375,13.7109375 16.5875244140625,14.0148935317993 19.03564453125,14.9267597198486 21.0845947265625,16.4465351104736 22.734375,18.57421875 22.8515625,18.57421875 22.8515625,9.19921875 13.154296875,9.19921875 13.154296875,5.2734375 22.8515625,5.2734375 22.8515625,0z" />
    </g>
  </g>
</svg>