<?xml version="1.0" encoding="utf-8"?>
<!DOCTYPE svg PUBLIC "-//W3C//DTD SVG 1.1//EN" "http://www.w3.org/Graphics/SVG/1.1/DTD/svg11.dtd">
<svg width="42.978515625" height="42.71484375" xmlns="http://www.w3.org/2000/svg" xmlns:xlink="http://www.w3.org/1999/xlink" xmlns:xml="http://www.w3.org/XML/1998/namespace" version="1.1">
  <g>
    <g>
      <path style="fill:#FF0000;fill-opacity:1" d="M35.419921875,15.99609375L38.7744140625,16.2890625 41.77734375,17.109375 41.77734375,21.884765625 38.671875,20.5078125 35.2734375,20.0390625 33.3251953125,20.2587890625 31.8017578125,20.888671875 30.8056640625,21.884765625 30.439453125,23.203125 30.7763671875,24.78515625 31.7431640625,25.8251953125 33.251953125,26.572265625 35.185546875,27.24609375 38.583984375,28.5791015625 41.015625,30.17578125 42.48046875,32.255859375 42.978515625,35.0390625 42.4658203125,37.8515625 40.7666015625,40.3125 37.646484375,42.0556640625 35.48583984375,42.550048828125 32.87109375,42.71484375 28.916015625,42.2900390625 25.400390625,41.07421875 25.400390625,35.9765625 29.1064453125,37.9248046875 32.98828125,38.642578125 35.244140625,38.441162109375 36.85546875,37.8369140625 37.822265625,36.829833984375 38.14453125,35.419921875 37.7197265625,33.8671875 36.5771484375,32.7685546875 34.921875,31.962890625 32.958984375,31.259765625 29.3994140625,29.7802734375 27.1142578125,28.0517578125 25.8984375,25.9716796875 25.546875,23.466796875 26.220703125,20.56640625 28.1689453125,18.193359375 31.2744140625,16.58203125 35.419921875,15.99609375z M4.921875,4.453125L4.921875,19.6875 9.19921875,19.6875 12.6123046875,19.130859375 15.322265625,17.5341796875 17.109375,14.9853515625 17.75390625,11.6015625 17.230224609375,8.602294921875 15.6591796875,6.3427734375 13.055419921875,4.925537109375 9.43359375,4.453125 4.921875,4.453125z M0,0L10.3125,0 15.380859375,0.6884765625 19.365234375,2.783203125 21.97265625,6.2841796875 22.6757793426514,8.558349609375 22.91015625,11.19140625 22.3095703125,15.29296875 20.56640625,18.7060546875 17.75390625,21.26953125 13.916015625,22.79296875 13.916015625,22.91015625 15.0750732421875,23.551025390625 16.17919921875,24.5947265625 17.2283935546875,26.041259765625 18.22265625,27.890625 24.609375,42.01171875 18.75,42.01171875 13.564453125,29.35546875 12.3065185546875,27.073974609375 10.81787109375,25.4443359375 9.0985107421875,24.466552734375 7.1484375,24.140625 4.921875,24.140625 4.921875,42.01171875 0,42.01171875 0,0z" />
    </g>
  </g>
</svg>