<?xml version="1.0" encoding="utf-8"?>
<!DOCTYPE svg PUBLIC "-//W3C//DTD SVG 1.1//EN" "http://www.w3.org/Graphics/SVG/1.1/DTD/svg11.dtd">
<svg width="67.3828125" height="67.3828125" xmlns="http://www.w3.org/2000/svg" xmlns:xlink="http://www.w3.org/1999/xlink" xmlns:xml="http://www.w3.org/XML/1998/namespace" version="1.1">
  <g>
    <g>
      <path style="fill:#FF0000;fill-opacity:1" d="M22.119140625,42.12890625L22.8515625,42.4365234375 23.173828125,43.154296875 22.8515625,43.88671875 22.119140625,44.208984375 21.3720703125,43.9013671875 21.064453125,43.154296875 21.38671875,42.4365234375 22.119140625,42.12890625z M24.228515625,37.91015625L24.9462890625,38.232421875 25.25390625,38.96484375 24.9462890625,39.697265625 24.228515625,40.01953125 23.4814453125,39.7119140625 23.173828125,38.96484375 23.4814453125,38.2177734375 24.228515625,37.91015625z M14.736328125,37.91015625L16.845703125,37.91015625 16.845703125,54.755859375 27.36328125,54.755859375 27.36328125,37.91015625 29.47265625,37.91015625 29.47265625,56.865234375 14.736328125,56.865234375 14.736328125,37.91015625z M20.009765625,33.69140625L20.7568359375,33.9990234375 21.064453125,34.74609375 20.7568359375,35.4931640625 20.009765625,35.80078125 19.2626953125,35.4931640625 18.955078125,34.74609375 19.2626953125,33.9990234375 20.009765625,33.69140625z M37.91015625,21.064453125L46.318359375,21.064453125 47.6220703125,21.50390625 48.369140625,22.646484375 52.060546875,37.3828125 52.119140625,37.880859375 51.50390625,39.3896484375 50.009765625,40.01953125 48.7060546875,39.5654296875 47.958984375,38.408203125 46.318359375,31.845703125 46.318359375,54.755859375 45.6884765625,56.2353515625 44.208984375,56.865234375 42.7294921875,56.2353515625 42.099609375,54.755859375 42.099609375,41.07421875 41.7919921875,40.3271484375 41.044921875,40.01953125 40.3271484375,40.341796875 40.01953125,41.07421875 40.01953125,54.755859375 39.3896484375,56.2353515625 37.91015625,56.865234375 36.4306640625,56.2353515625 35.80078125,54.755859375 35.80078125,28.2421875 33.076171875,30.966796875 31.58203125,31.58203125 23.173828125,31.58203125 21.6796875,30.966796875 21.064453125,29.47265625 21.6796875,27.978515625 23.173828125,27.36328125 30.703125,27.36328125 36.416015625,21.6796875 37.91015625,21.064453125z M41.07421875,10.517578125L42.71484375,10.8544921875 44.0478515625,11.7626953125 44.94140625,13.095703125 45.263671875,14.736328125 44.94140625,16.376953125 44.0478515625,17.7099609375 42.71484375,18.6181640625 41.07421875,18.955078125 39.4189453125,18.6328125 38.0712890625,17.7392578125 37.177734375,16.3916015625 36.85546875,14.736328125 37.1923828125,13.095703125 38.1005859375,11.7626953125 39.43359375,10.8544921875 41.07421875,10.517578125z M4.21875,4.21874952316284L4.21875,63.1640625 63.1640625,63.1640625 63.1640625,4.21874952316284 4.21875,4.21874952316284z M0,0L67.3828125,0 67.3828125,67.3828125 0,67.3828125 0,0z" />
    </g>
  </g>
</svg>