<?xml version="1.0" encoding="utf-8"?>
<!DOCTYPE svg PUBLIC "-//W3C//DTD SVG 1.1//EN" "http://www.w3.org/Graphics/SVG/1.1/DTD/svg11.dtd">
<svg width="65.2734375000017" height="65.2734375" xmlns="http://www.w3.org/2000/svg" xmlns:xlink="http://www.w3.org/1999/xlink" xmlns:xml="http://www.w3.org/XML/1998/namespace" version="1.1">
  <g>
    <g>
      <path style="fill:#FF0000;fill-opacity:1" d="M4.21875,56.865234375L4.541015625,58.505859375 5.4345703125,59.8388671875 6.767578125,60.732421875 8.408203125,61.0546875 56.865234375,61.0546875 58.505859375,60.732421875 59.8388671875,59.8388671875 60.732421875,58.505859375 61.0546875,56.865234375 4.21875,56.865234375z M46.318359375,31.58203125L54.755859375,31.58203125 54.755859375,40.01953125 46.318359375,40.01953125 46.318359375,31.58203125z M35.80078125,31.58203125L44.208984375,31.58203125 44.208984375,40.01953125 35.80078125,40.01953125 35.80078125,31.58203125z M25.25390625,31.58203125L33.69140625,31.58203125 33.69140625,40.01953125 25.25390625,40.01953125 25.25390625,31.58203125z M12.626953125,31.58203125L12.626953125,40.01953125 21.064453125,40.01953125 21.064453125,31.58203125 12.626953125,31.58203125z M12.626953125,29.47265625L21.064453125,29.47265625 22.5439453125,30.1025390625 23.173828125,31.58203125 23.173828125,48.427734375 22.5439453125,49.9072265625 21.064453125,50.537109375 12.626953125,50.537109375 11.1474609375,49.9072265625 10.517578125,48.427734375 10.517578125,31.58203125 11.1474609375,30.1025390625 12.626953125,29.47265625z M12.626953125,18.955078125L12.626953125,21.064453125 8.408203125,21.064453125 8.408203125,23.173828125 6.767578125,23.49609375 5.4345703125,24.3896484375 4.541015625,25.72265625 4.21875,27.36328125 4.21875,31.58203125 8.408203125,31.58203125 8.408203125,44.208984375 4.21875,44.208984375 4.21875,52.646484375 61.0546875,52.646484375 61.0546875,44.208984375 56.865234375,44.208984375 56.865234375,31.58203125 61.0546875,31.58203125 61.0546875,27.36328125 60.732421875,25.72265625 59.8388671875,24.3896484375 58.505859375,23.49609375 56.865234375,23.173828125 56.865234375,21.064453125 52.646484375,21.064453125 52.646484375,18.955078125 50.537109375,18.955078125 50.537109375,21.064453125 46.318359375,21.064453125 46.318359375,23.173828125 18.955078125,23.173828125 18.955078125,21.064453125 14.736328125,21.064453125 14.736328125,18.955078125 12.626953125,18.955078125z M40.01953125,10.517578125L42.099609375,10.517578125 42.099609375,12.626953125 40.01953125,12.626953125 40.01953125,10.517578125z M35.80078125,10.517578125L37.91015625,10.517578125 37.91015625,12.626953125 35.80078125,12.626953125 35.80078125,10.517578125z M31.58203125,10.517578125L33.69140625,10.517578125 33.69140625,12.626953125 31.58203125,12.626953125 31.58203125,10.517578125z M27.36328125,10.517578125L29.47265625,10.517578125 29.47265625,12.626953125 27.36328125,12.626953125 27.36328125,10.517578125z M23.173828125,10.517578125L25.25390625,10.517578125 25.25390625,12.626953125 23.173828125,12.626953125 23.173828125,10.517578125z M56.865234375,6.328125L56.865234375,10.517578125 58.9453125,10.517578125 58.9453125,12.626953125 56.865234375,12.626953125 56.865234375,14.736328125 61.0546875,14.736328125 61.0546875,6.328125 56.865234375,6.328125z M18.955078125,6.328125L18.955078125,10.517578125 21.064453125,10.517578125 21.064453125,12.626953125 18.955078125,12.626953125 18.955078125,14.736328125 46.318359375,14.736328125 46.318359375,12.626953125 44.208984375,12.626953125 44.208984375,10.517578125 46.318359375,10.517578125 46.318359375,6.328125 18.955078125,6.328125z M4.21875,6.328125L4.21875,14.736328125 8.408203125,14.736328125 8.408203125,12.626953125 6.328125,12.626953125 6.328125,10.517578125 8.408203125,10.517578125 8.408203125,6.328125 4.21875,6.328125z M50.537109375,4.21875L48.427734375,6.328125 48.427734375,14.736328125 50.537109375,16.845703125 52.646484375,16.845703125 54.755859375,14.736328125 54.755859375,6.328125 52.646484375,4.21875 50.537109375,4.21875z M12.626953125,4.21875L10.517578125,6.328125 10.517578125,14.736328125 12.626953125,16.845703125 14.736328125,16.845703125 16.845703125,14.736328125 16.845703125,6.328125 14.736328125,4.21875 12.626953125,4.21875z M10.8984375,0L16.494140625,0 18.603515625,2.10937547683716 46.69921875,2.10937547683716 48.779296875,0 54.375,0 56.484375,2.10937547683716 65.2734375,2.10937547683716 65.2734375,18.955078125 61.0546875,18.955078125 61.0546875,20.09765625 62.7978515625,21.4453125 64.1162109375,23.1884765625 64.9658203125,25.1953125 65.2734375,27.36328125 65.2734375,56.865234375 64.6142578125,60.1318359375 62.8125,62.8125 60.1318359375,64.6142578125 56.865234375,65.2734375 8.408203125,65.2734375 5.1416015625,64.6142578125 2.4609375,62.8125 0.6591796875,60.1318359375 0,56.865234375 0,27.36328125 0.3076171875,25.1953125 1.1572265625,23.1884765625 2.4755859375,21.4453125 4.21875,20.09765625 4.21875,18.955078125 0,18.955078125 0,2.10937547683716 8.7890625,2.10937547683716 10.8984375,0z" />
    </g>
  </g>
</svg>