<?xml version="1.0" encoding="utf-8"?>
<!DOCTYPE svg PUBLIC "-//W3C//DTD SVG 1.1//EN" "http://www.w3.org/Graphics/SVG/1.1/DTD/svg11.dtd">
<svg width="67.3828125" height="58.9453125" xmlns="http://www.w3.org/2000/svg" xmlns:xlink="http://www.w3.org/1999/xlink" xmlns:xml="http://www.w3.org/XML/1998/namespace" version="1.1">
  <g>
    <g>
      <path style="fill:#FF0000;fill-opacity:1" d="M4.21875,50.537109375L4.21875,52.6171875 14.736328125,52.6171875 14.736328125,50.537109375 4.21875,50.537109375z M30.52734375,48.427734375L28.681640625,49.013671875 27.5390625,50.537109375 30.52734375,50.537109375 31.2744140625,50.830078125 31.58203125,51.5625 31.2744140625,52.3095703125 30.52734375,52.6171875 27.5390625,52.6171875 28.681640625,54.140625 30.52734375,54.7265625 31.7578125,54.4775390625 32.7685546875,53.8037109375 33.4423828125,52.8076171875 33.69140625,51.5625 33.4423828125,50.3466796875 32.75390625,49.3505859375 31.7431640625,48.6767578125 30.52734375,48.427734375z M20.009765625,48.427734375L18.7939453125,48.6767578125 17.783203125,49.3505859375 17.0947265625,50.3466796875 16.845703125,51.5625 17.0947265625,52.8076171875 17.7685546875,53.8037109375 18.7646484375,54.4775390625 20.009765625,54.7265625 21.826171875,54.140625 22.96875,52.6171875 20.009765625,52.6171875 19.2626953125,52.3095703125 18.955078125,51.5625 19.2626953125,50.830078125 20.009765625,50.537109375 22.96875,50.537109375 21.826171875,49.013671875 20.009765625,48.427734375z M55.810546875,46.318359375L57.041015625,46.5673828125 58.037109375,47.2412109375 58.6962890625,48.251953125 58.9453125,49.482421875 58.6962890625,50.6982421875 58.0224609375,51.6943359375 57.0263671875,52.3681640625 55.810546875,52.6171875 54.5947265625,52.3681640625 53.583984375,51.708984375 52.8955078125,50.7275390625 52.646484375,49.482421875 52.8955078125,48.251953125 53.5693359375,47.2412109375 54.5654296875,46.5673828125 55.810546875,46.318359375z M43.154296875,46.318359375L44.384765625,46.5673828125 45.3955078125,47.2412109375 46.0693359375,48.251953125 46.318359375,49.482421875 46.0693359375,50.7275390625 45.380859375,51.708984375 44.3701171875,52.3681640625 43.154296875,52.6171875 41.9384765625,52.3681640625 40.9423828125,51.6943359375 40.2685546875,50.6982421875 40.01953125,49.482421875 40.2685546875,48.2666015625 40.927734375,47.255859375 41.9091796875,46.5673828125 43.154296875,46.318359375z M55.810546875,44.208984375L53.7451171875,44.619140625 52.0751953125,45.7470703125 50.947265625,47.431640625 50.537109375,49.482421875 50.947265625,51.5185546875 52.0751953125,53.1884765625 53.759765625,54.31640625 55.810546875,54.7265625 57.8466796875,54.31640625 59.5166015625,53.1884765625 60.64453125,51.5185546875 61.0546875,49.482421875 60.64453125,47.431640625 59.5166015625,45.7470703125 57.8466796875,44.619140625 55.810546875,44.208984375z M43.154296875,44.208984375L41.1181640625,44.619140625 39.4482421875,45.7470703125 38.3203125,47.431640625 37.91015625,49.482421875 38.3203125,51.5185546875 39.4482421875,53.1884765625 41.1181640625,54.31640625 43.154296875,54.7265625 45.205078125,54.31640625 46.8896484375,53.1884765625 48.017578125,51.5185546875 48.427734375,49.482421875 48.017578125,47.431640625 46.8896484375,45.7470703125 45.205078125,44.619140625 43.154296875,44.208984375z M7.3828125,44.208984375L5.2734375,48.427734375 14.736328125,48.427734375 14.736328125,44.208984375 7.3828125,44.208984375z M6.328125,39.990234375L6.328125,42.099609375 63.1640625,42.099609375 63.1640625,39.990234375 6.328125,39.990234375z M35.80078125,33.69140625L35.80078125,37.880859375 61.0546875,37.880859375 61.0546875,33.69140625 35.80078125,33.69140625z M25.25390625,18.92578125L25.25390625,37.880859375 27.36328125,37.880859375 27.36328125,18.92578125 25.25390625,18.92578125z M14.736328125,18.92578125L14.736328125,37.880859375 16.845703125,37.880859375 16.845703125,18.92578125 14.736328125,18.92578125z M37.91015625,10.517578125L37.91015625,18.92578125 35.80078125,18.92578125 35.80078125,29.47265625 61.0546875,29.47265625 61.0546875,10.517578125 58.9453125,10.517578125 58.9453125,23.14453125 50.537109375,23.14453125 50.537109375,10.517578125 48.427734375,10.517578125 48.427734375,23.14453125 40.01953125,23.14453125 40.01953125,10.517578125 37.91015625,10.517578125z M12.626953125,8.408203125L16.845703125,12.626953125 16.845703125,16.845703125 25.25390625,16.845703125 25.25390625,12.626953125 29.47265625,8.408203125 12.626953125,8.408203125z M33.69140625,6.29882860183716L33.69140625,8.408203125 63.1640625,8.408203125 63.1640625,6.29882860183716 33.69140625,6.29882860183716z M14.736328125,4.18945360183716L12.626953125,6.29882860183716 29.47265625,6.29882860183716 27.36328125,4.18945360183716 14.736328125,4.18945360183716z M13.0078125,0L29.12109375,0 31.23046875,2.10937595367432 67.3828125,2.10937595367432 67.3828125,12.626953125 65.2734375,12.626953125 65.2734375,35.80078125 67.3828125,35.80078125 67.3828125,46.318359375 64.921875,46.318359375 64.775390625,46.435546875 65.2734375,49.482421875 64.5263671875,53.1591796875 62.490234375,56.162109375 59.4873046875,58.1982421875 55.810546875,58.9453125 52.4267578125,58.30078125 49.482421875,56.513671875 46.5380859375,58.30078125 43.154296875,58.9453125 39.462890625,58.212890625 36.38671875,56.07421875 33.7939453125,58.18359375 32.208251953125,58.7548828125 30.52734375,58.9453125 27.7587890625,58.4033203125 25.400390625,56.8359375 25.13671875,56.8359375 22.7783203125,58.4033203125 20.009765625,58.9453125 17.2119140625,58.4033203125 14.853515625,56.8359375 0,56.8359375 0,49.541015625 1.0400390625,47.4169921875 2.109375,45.322265625 2.109375,38.291015625 0.556640625,33.9990234375 0.029296875,29.47265625 0.468749523162842,25.13671875 1.7431640625,21.416015625 3.80859375,18.0322265625 6.62109375,14.736328125 12.626953125,14.736328125 12.626953125,14.35546875 8.408203125,10.166015625 8.408203125,4.57031297683716 10.693359375,2.2705078125 13.0078125,0z" />
    </g>
  </g>
</svg>