<?xml version="1.0" encoding="utf-8"?>
<!DOCTYPE svg PUBLIC "-//W3C//DTD SVG 1.1//EN" "http://www.w3.org/Graphics/SVG/1.1/DTD/svg11.dtd">
<svg width="67.382812500001" height="37.880859375" xmlns="http://www.w3.org/2000/svg" xmlns:xlink="http://www.w3.org/1999/xlink" xmlns:xml="http://www.w3.org/XML/1998/namespace" version="1.1">
  <g>
    <g>
      <path style="fill:#FF0000;fill-opacity:1" d="M52.646484375,29.47265625L51.15234375,30.087890625 50.537109375,31.58203125 51.1669921875,33.0615234375 52.646484375,33.69140625 54.1259765625,33.0615234375 54.755859375,31.58203125 54.140625,30.087890625 52.646484375,29.47265625z M16.845703125,29.47265625L15.3515625,30.087890625 14.736328125,31.58203125 15.3662109375,33.0615234375 16.845703125,33.69140625 18.3251953125,33.0615234375 18.955078125,31.58203125 18.33984375,30.087890625 16.845703125,29.47265625z M33.69140625,6.298828125L44.208984375,6.298828125 44.208984375,16.845703125 33.69140625,16.845703125 33.69140625,6.298828125z M23.173828125,4.189453125L22.119140625,6.298828125 31.58203125,6.298828125 31.58203125,16.845703125 23.173828125,16.845703125 23.173828125,18.955078125 21.064453125,18.955078125 21.064453125,16.845703125 6.328125,16.845703125 4.833984375,17.4609375 4.21875,18.955078125 6.328125,18.955078125 6.328125,23.14453125 4.21875,23.14453125 4.21875,29.47265625 10.8984375,29.47265625 11.8212890625,27.7587890625 13.212890625,26.42578125 14.9267578125,25.5615234375 16.845703125,25.25390625 18.7646484375,25.5615234375 20.478515625,26.42578125 21.8701171875,27.7587890625 22.79296875,29.47265625 46.669921875,29.47265625 47.6220703125,27.7587890625 48.9990234375,26.42578125 50.6982421875,25.5615234375 52.646484375,25.25390625 54.5654296875,25.5615234375 56.279296875,26.42578125 57.6708984375,27.7587890625 58.59375,29.47265625 63.1640625,29.47265625 63.1640625,23.14453125 61.0546875,23.14453125 61.0546875,18.955078125 63.1640625,18.955078125 63.1640625,18.837890625 62.98828125,18.0908203125 62.51953125,17.4462890625 61.8603515625,17.0068359375 61.11328125,16.845703125 46.318359375,16.845703125 46.318359375,6.298828125 49.482421875,6.298828125 48.427734375,4.189453125 23.173828125,4.189453125z M20.56640625,0L51.03515625,0 54.2138671875,6.298828125 57.36328125,12.626953125 61.0546875,12.626953125 63.515625,13.125 65.5224609375,14.4873046875 66.884765625,16.494140625 67.3828125,18.955078125 67.3828125,33.69140625 58.59375,33.69140625 57.6416015625,35.4052734375 56.279296875,36.73828125 54.580078125,37.587890625 52.646484375,37.880859375 50.7092247009277,37.598876953125 48.9990234375,36.7529296875 47.6257286071777,35.423583984375 46.69921875,33.69140625 22.79296875,33.69140625 21.8408203125,35.4052734375 20.478515625,36.73828125 18.779296875,37.587890625 16.845703125,37.880859375 14.908447265625,37.598876953125 13.1982421875,36.7529296875 11.824951171875,35.423583984375 10.8984375,33.69140625 0,33.69140625 0,18.955078125 0.498046875,16.494140625 1.8603515625,14.4873046875 3.8671875,13.125 6.328125,12.626953125 14.23828125,12.626953125 17.3876953125,6.298828125 20.56640625,0z" />
    </g>
  </g>
</svg>