<?xml version="1.0" encoding="utf-8"?>
<!DOCTYPE svg PUBLIC "-//W3C//DTD SVG 1.1//EN" "http://www.w3.org/Graphics/SVG/1.1/DTD/svg11.dtd">
<svg width="67.3828125000004" height="67.3828125" xmlns="http://www.w3.org/2000/svg" xmlns:xlink="http://www.w3.org/1999/xlink" xmlns:xml="http://www.w3.org/XML/1998/namespace" version="1.1">
  <g>
    <g>
      <path style="fill:#FF0000;fill-opacity:1" d="M50.185546875,50.244140625L48.779296875,52.001953125 47.16796875,53.5546875 51.09375,57.451171875 52.8369140625,56.07421875 54.4921875,54.580078125 54.4921875,54.55078125 50.185546875,50.244140625z M17.197265625,50.244140625L12.890625,54.55078125 12.861328125,54.55078125 14.5166015625,56.0595703125 16.2890625,57.451171875 20.185546875,53.5546875 18.5595703125,52.0166015625 17.197265625,50.244140625z M39.990234375,42.12890625L39.990234375,44.208984375 40.01953125,44.208984375 40.634765625,45.6884765625 42.099609375,46.318359375 43.59375,45.703125 44.208984375,44.208984375 44.208984375,42.12890625 39.990234375,42.12890625z M23.14453125,42.12890625L23.14453125,44.208984375 23.173828125,44.208984375 23.7890625,45.6884765625 25.25390625,46.318359375 26.748046875,45.703125 27.36328125,44.208984375 27.36328125,42.12890625 23.14453125,42.12890625z M23.14453125,21.064453125L23.14453125,27.36328125 23.3496074676514,29.4909687042236 23.96484375,31.4794921875 26.220703125,34.8193359375 29.560546875,37.0751953125 31.5380859375,37.701416015625 33.662109375,37.91015625 35.789794921875,37.705078125 37.7783203125,37.08984375 41.1328125,34.833984375 43.388671875,31.4794921875 44.0039024353027,29.4909687042236 44.208984375,27.36328125 44.208984375,21.064453125 23.14453125,21.064453125z M23.14453125,16.845703125L44.208984375,16.845703125 45.703125,17.4609375 46.318359375,18.955078125 46.318359375,45.908203125 42.2900390625,47.783203125 37.91015625,48.427734375 29.47265625,48.427734375 25.0634765625,47.7685546875 21.03515625,45.87890625 21.03515625,18.955078125 21.650390625,17.4609375 23.14453125,16.845703125z M25.25390625,12.626953125L21.9580078125,13.2861328125 19.27734375,15.087890625 17.4755859375,17.7685546875 16.81640625,21.064453125 16.8310546875,31.5966796875 16.845703125,42.12890625 17.0654277801514,44.622802734375 17.724609375,46.8896484375 20.1416015625,50.654296875 23.7890625,53.3056640625 28.388671875,54.697265625 28.7109375,54.7412109375 29.033203125,54.755859375 38.349609375,54.755859375 38.671875,54.7412109375 38.994140625,54.697265625 43.564453125,53.291015625 47.2265625,50.6103515625 49.658203125,46.845703125 50.3173789978027,44.59716796875 50.537109375,42.12890625 50.5224609375,31.5966796875 50.5078125,21.064453125 49.8486328125,17.7685546875 48.0615234375,15.087890625 45.3955078125,13.2861328125 42.099609375,12.626953125 25.25390625,12.626953125z M33.69140625,0L38.26171875,0.300295770168304 42.65625,1.20117139816284 46.8200645446777,2.65137004852295 50.6982421875,4.59960889816284 54.2687950134277,7.0166015625 57.509765625,9.873046875 60.3662109375,13.114013671875 62.783203125,16.6845703125 64.7314453125,20.562744140625 66.181640625,24.7265625 67.08251953125,29.1210956573486 67.3828125,33.69140625 67.08251953125,38.26171875 66.181640625,42.65625 64.7314453125,46.820068359375 62.783203125,50.6982421875 60.3662109375,54.268798828125 57.509765625,57.509765625 54.2687950134277,60.3662109375 50.6982421875,62.783203125 46.8200645446777,64.7314453125 42.65625,66.181640625 38.26171875,67.08251953125 33.69140625,67.3828125 29.12109375,67.08251953125 24.7265625,66.181640625 20.5627422332764,64.7314453125 16.6845703125,62.783203125 13.114013671875,60.3662109375 9.873046875,57.509765625 7.01660060882568,54.268798828125 4.599609375,50.6982421875 2.6513671875,46.820068359375 1.201171875,42.65625 0.300292611122131,38.26171875 0,33.69140625 0.300292611122131,29.1210956573486 1.201171875,24.7265625 2.6513671875,20.562744140625 4.599609375,16.6845703125 7.01660060882568,13.114013671875 9.873046875,9.873046875 13.114013671875,7.0166015625 16.6845703125,4.59960889816284 20.5627422332764,2.65137004852295 24.7265625,1.20117139816284 29.12109375,0.300295770168304 33.69140625,0z" />
    </g>
  </g>
</svg>