<?xml version="1.0" encoding="utf-8"?>
<!DOCTYPE svg PUBLIC "-//W3C//DTD SVG 1.1//EN" "http://www.w3.org/Graphics/SVG/1.1/DTD/svg11.dtd">
<svg width="67.3828125" height="67.3828125" xmlns="http://www.w3.org/2000/svg" xmlns:xlink="http://www.w3.org/1999/xlink" xmlns:xml="http://www.w3.org/XML/1998/namespace" version="1.1">
  <g>
    <g>
      <path style="fill:#FF0000;fill-opacity:1" d="M36.85546875,25.283203125L41.07421875,25.283203125 41.806640625,25.576171875 44.794921875,28.564453125 47.724609375,29.53125 48.2373046875,29.94140625 48.427734375,30.556640625 48.1201171875,31.2744140625 47.40234375,31.58203125 47.05078125,31.5234375 45.087890625,30.9814453125 43.828125,30.4248046875 42.83203125,29.6630859375 41.66015625,28.447265625 40.986328125,27.71484375 40.01953125,31.58203125 43.154296875,37.91015625 41.806640625,37.91015625 42.01171875,38.408203125 42.099609375,38.96484375 42.099609375,43.154296875 41.7919921875,43.88671875 41.07421875,44.208984375 40.5029296875,44.0478515625 40.166015625,43.623046875 40.01953125,43.0517578125 39.990234375,42.48046875 40.0341796875,41.66015625 40.078125,40.83984375 40.0634765625,40.13671875 40.0048828125,39.3310546875 39.873046875,38.5546875 39.609375,37.91015625 37.1484375,37.91015625 35.771484375,43.41796875 35.390625,43.9892578125 34.74609375,44.208984375 33.9990234375,43.916015625 33.69140625,43.18359375 33.837890625,42.0703125 34.2041015625,40.5908203125 34.62890625,39.08203125 34.98046875,37.91015625 33.69140625,37.91015625 36.2109375,27.83203125 33.69140625,29.091796875 33.69140625,32.63671875 33.3837890625,33.3837890625 32.63671875,33.69140625 31.787109375,33.4130859375 30.4541015625,32.783203125 29.091796875,32.080078125 28.18359375,31.58203125 27.0703125,36.09375 29.1796875,38.203125 29.47265625,38.96484375 29.47265625,43.154296875 29.1650390625,43.9013671875 28.41796875,44.208984375 27.6708984375,43.9013671875 27.36328125,43.154296875 27.36328125,39.404296875 26.9677734375,38.96484375 26.513671875,38.4814453125 26.015625,38.1005859375 25.458984375,37.939453125 24.7265625,38.1591796875 24.287109375,38.759765625 23.115234375,43.41796875 22.763671875,43.9892578125 22.119140625,44.208984375 21.3720703125,43.916015625 21.064453125,43.18359375 21.328125,41.6162109375 21.767578125,40.048828125 22.822265625,35.9765625 23.84765625,31.904296875 22.880859375,32.373046875 21.474609375,35.21484375 20.537109375,35.80078125 19.8046875,35.478515625 19.482421875,34.74609375 19.51171875,34.4970703125 19.599609375,34.27734375 19.86328125,33.603515625 20.4931640625,32.197265625 21.15234375,31.171875 22.1337890625,30.3662109375 23.73046875,29.58984375 24.228515625,29.47265625 28.41796875,29.47265625 29.0625,29.6630859375 29.9853515625,30.087890625 30.908203125,30.5712890625 31.58203125,30.9375 31.58203125,28.41796875 31.728515625,27.861328125 32.16796875,27.48046875 33.10546875,26.953125 34.5263671875,26.220703125 35.947265625,25.5615234375 36.85546875,25.283203125z M27.36328125,23.173828125L28.857421875,23.7890625 29.47265625,25.283203125 28.8427734375,26.748046875 27.36328125,27.36328125 25.8837890625,26.748046875 25.25390625,25.283203125 25.8837890625,23.8037109375 27.36328125,23.173828125z M40.01953125,18.955078125L41.484375,19.5849609375 42.099609375,21.064453125 41.484375,22.5439453125 40.01953125,23.173828125 38.5400390625,22.5439453125 37.91015625,21.064453125 38.525390625,19.5703125 40.01953125,18.955078125z M33.69140625,6.328125L6.328125,33.69140625 33.69140625,61.0546875 61.0546875,33.69140625 33.69140625,6.328125z M33.69140625,0L67.3828125,33.69140625 33.69140625,67.3828125 0,33.69140625 33.69140625,0z" />
    </g>
  </g>
</svg>