<?xml version="1.0" encoding="utf-8"?>
<!DOCTYPE svg PUBLIC "-//W3C//DTD SVG 1.1//EN" "http://www.w3.org/Graphics/SVG/1.1/DTD/svg11.dtd">
<svg width="46.5234375000004" height="41.89453125" xmlns="http://www.w3.org/2000/svg" xmlns:xlink="http://www.w3.org/1999/xlink" xmlns:xml="http://www.w3.org/XML/1998/namespace" version="1.1">
  <g>
    <g>
      <path style="fill:#FF0000;fill-opacity:1" d="M23.26171875,5.625L22.3699932098389,5.91796875 21.3354473114014,6.796875 20.1580791473389,8.26171875 18.837890625,10.3125 7.119140625,30 5.5810546875,33.03955078125 5.068359375,35.185546875 5.357666015625,36.2750244140625 6.2255859375,37.05322265625 7.672119140625,37.5201416015625 9.697265625,37.67578125 36.826171875,37.67578125 38.8513145446777,37.5201416015625 40.2978477478027,37.05322265625 41.1657676696777,36.2750244140625 41.455078125,35.185546875 40.9423789978027,33.03955078125 39.404296875,30 27.65625,10.3125 26.337890625,8.26171875 25.166015625,6.796875 24.140625,5.91796875 23.26171875,5.625z M23.26171875,0L25.0726318359375,0.2435302734375 26.69677734375,0.97412109375 28.1341552734375,2.1917724609375 29.384765625,3.896484375 45.263671875,30.849609375 46.2084922790527,33.03955078125 46.5234375,35.2734375 46.0839805603027,37.822265625 44.765625,39.9609375 42.8027305603027,41.4111328125 40.4296875,41.89453125 6.09375,41.89453125 3.720703125,41.4111328125 1.7578125,39.9609375 0.439452767372131,37.822265625 0,35.2734375 0.314941108226776,33.03955078125 1.25976610183716,30.849609375 17.138671875,3.896484375 18.3782939910889,2.1917724609375 19.8120098114014,0.97412109375 21.4398174285889,0.2435302734375 23.26171875,0z" />
    </g>
  </g>
</svg>