<?xml version="1.0" encoding="utf-8"?>
<!DOCTYPE svg PUBLIC "-//W3C//DTD SVG 1.1//EN" "http://www.w3.org/Graphics/SVG/1.1/DTD/svg11.dtd">
<svg width="67.3828125000025" height="50.537109375" xmlns="http://www.w3.org/2000/svg" xmlns:xlink="http://www.w3.org/1999/xlink" xmlns:xml="http://www.w3.org/XML/1998/namespace" version="1.1">
  <g>
    <g>
      <path style="fill:#FF0000;fill-opacity:1" d="M10.517578125,40.01953125L6.328125,44.23828125 4.21875,44.23828125 4.21875,46.34765625 63.193359375,46.34765625 63.193359375,42.12890625 27.36328125,42.12890625 29.47265625,40.01953125 10.517578125,40.01953125z M8.4375,29.501953125L8.4375,31.58203125 12.65625,31.58203125 12.65625,29.501953125 8.4375,29.501953125z M63.193359375,12.65625L55.762939453125,13.1066913604736 48.5888671875,14.4580078125 41.7040977478027,16.636962890625 35.1416015625,19.5703125 28.92333984375,23.2177734375 23.0712890625,27.5390625 17.6257305145264,32.4609375 12.626953125,37.91015625 63.193359375,37.91015625 63.193359375,12.65625z M37.91015625,5.2734375L34.530029296875,5.482177734375 31.2451171875,6.1083984375 25.0634765625,8.4521484375 19.5263671875,12.099609375 14.765625,16.845703125 18.1457500457764,16.636962890625 21.4306640625,16.0107421875 27.6123046875,13.6669921875 33.1494140625,10.01953125 37.91015625,5.2734375z M48.45703125,0L67.3828125,0 67.3828125,50.537109375 0,50.537109375 0,40.01953125 4.5703125,40.01953125 4.71679592132568,39.90234375 2.75390625,38.00537109375 1.259765625,35.830078125 0.314941048622131,33.3837890625 0,30.673828125 0.205077648162842,28.388671875 0.8203125,26.3818359375 1.8310546875,24.5361328125 3.22265625,22.705078125 5.654296875,20.009765625 8.23242282867432,17.4609375 10.078125,15.8935546875 11.865234375,14.296875 13.9599609375,12.12890625 16.142578125,10.01953125 21.0424785614014,6.55883884429932 26.30859375,4.0869140625 31.93359375,2.603759765625 37.91015625,2.109375 40.4443359375,0.9521484375 43.0224609375,0.3076171875 45.6884765625,0.0439453125 48.45703125,0z" />
    </g>
  </g>
</svg>