<?xml version="1.0" encoding="utf-8"?>
<!DOCTYPE svg PUBLIC "-//W3C//DTD SVG 1.1//EN" "http://www.w3.org/Graphics/SVG/1.1/DTD/svg11.dtd">
<svg width="67.3828125" height="50.537109375" xmlns="http://www.w3.org/2000/svg" xmlns:xlink="http://www.w3.org/1999/xlink" xmlns:xml="http://www.w3.org/XML/1998/namespace" version="1.1">
  <g>
    <g>
      <path style="fill:#FF0000;fill-opacity:1" d="M10.48828125,40.01953125L6.298828125,44.23828125 4.189453125,44.23828125 4.189453125,46.34765625 63.1640625,46.34765625 63.1640625,42.12890625 27.333984375,42.12890625 29.443359375,40.01953125 10.48828125,40.01953125z M10.48828125,31.58203125L14.70703125,31.58203125 14.70703125,33.69140625 10.48828125,33.69140625 10.48828125,31.58203125z M18.92578125,4.21875L17.1240234375,4.5703125 15.46875,5.5224609375 14.1357421875,6.8994140625 13.30078125,8.525390625 13.359375,8.4375 21.064453125,8.4375 21.064453125,10.546875 14.736328125,29.501953125 6.328125,29.501953125 6.3134765625,30.5419921875 6.298828125,31.58203125 6.796875,34.04296875 8.14453125,36.0498046875 10.13671875,37.412109375 12.59765625,37.91015625 63.134765625,37.91015625 63.134765625,23.173828125 21.064453125,23.173828125 25.283203125,10.546875 63.1640625,10.546875 63.1640625,4.21875 18.92578125,4.21875z M19.306640625,0L67.3828125,0 67.3828125,50.537109375 0,50.537109375 0,40.01953125 4.541015625,40.01953125 5.361328125,39.19921875 3.69140625,37.2216796875 2.6806640625,35.0830078125 2.1826171875,32.7392578125 2.05078125,30.17578125 2.109375,29.1650390625 2.314453125,28.154296875 9.31640625,7.20703125 10.83984375,4.2626953125 13.154296875,1.9921875 16.0400390625,0.52734375 19.306640625,0z" />
    </g>
  </g>
</svg>