<?xml version="1.0" encoding="utf-8"?>
<!DOCTYPE svg PUBLIC "-//W3C//DTD SVG 1.1//EN" "http://www.w3.org/Graphics/SVG/1.1/DTD/svg11.dtd">
<svg width="67.3828125000017" height="54.755859375" xmlns="http://www.w3.org/2000/svg" xmlns:xlink="http://www.w3.org/1999/xlink" xmlns:xml="http://www.w3.org/XML/1998/namespace" version="1.1">
  <g>
    <g>
      <path style="fill:#FF0000;fill-opacity:1" d="M50.537109375,48.427734375L50.537109375,50.537109375 54.755859375,50.537109375 54.755859375,48.427734375 50.537109375,48.427734375z M6.328125,48.427734375L6.328125,50.537109375 10.517578125,50.537109375 10.517578125,48.427734375 6.328125,48.427734375z M53.5546875,27.36328125L52.4267578125,27.4365234375 51.474609375,27.7294921875 50.80078125,28.3740234375 50.537109375,29.501953125 50.537109375,40.01953125 10.517578125,40.01953125 10.517578125,29.501953125 10.1953125,28.2861328125 9.3603515625,27.6708984375 8.23242282867432,27.4365234375 7.03125,27.392578125 6.533203125,27.392578125 5.712890625,27.509765625 4.98046875,27.861328125 4.4384765625,28.447265625 4.21875,29.267578125 4.21875,44.443359375 4.4091796875,45.1904296875 4.9072265625,45.791015625 5.5810546875,46.201171875 6.328125,46.34765625 54.755859375,46.34765625 55.3857421875,46.2451171875 55.95703125,45.9375 56.30859375,45.673828125 56.6015625,45.205078125 56.7919921875,44.677734375 56.865234375,44.23828125 56.865234375,29.501953125 56.572265625,28.3154296875 55.810546875,27.6708984375 54.7412109375,27.4072265625 53.5546875,27.36328125z M32.63671875,21.064453125L31.58203125,21.357421875 31.58203125,33.984375 32.63671875,33.69140625 48.427734375,33.69140625 48.427734375,29.501953125 48.75,27.8759765625 49.658203125,26.513671875 51.0205078125,25.60546875 52.646484375,25.283203125 52.646484375,23.173828125 52.03125,21.6796875 50.537109375,21.064453125 32.63671875,21.064453125z M10.517578125,21.064453125L9.0380859375,21.6943359375 8.408203125,23.173828125 8.408203125,25.283203125 10.0341796875,25.5908203125 11.396484375,26.513671875 12.3193359375,27.8759765625 12.626953125,29.501953125 12.626953125,33.69140625 28.41796875,33.69140625 29.47265625,33.984375 29.47265625,21.357421875 28.41796875,21.064453125 10.517578125,21.064453125z M40.01953125,10.546875L36.5625,10.9423828125 33.28125,12.12890625 33.6328125,13.857421875 33.69140625,15.615234375 33.69140625,16.845703125 50.537109375,16.845703125 52.265625,17.138671875 49.892578125,14.3994140625 46.962890625,12.3193359375 43.623046875,11.0009765625 40.01953125,10.546875z M40.01953125,4.21875L35.8154296875,4.6435546875 31.7724609375,5.8740234375 28.0517578125,7.8662109375 24.814453125,10.576171875 23.3056640625,11.015625 22.119140625,11.923828125 21.3427734375,13.1982421875 21.064453125,14.736328125 21.064453125,16.845703125 29.47265625,16.845703125 29.47265625,15.703125 29.3994140625,14.296875 29.091796875,13.037109375 28.447265625,11.9677734375 27.333984375,11.07421875 30.1904296875,9.052734375 33.251953125,7.55859375 36.52587890625,6.6357421875 40.01953125,6.328125 45.0439453125,7.001953125 49.5556640625,8.9208984375 53.3935546875,11.89453125 56.3671875,15.732421875 58.271484375,20.2587890625 58.9453125,25.283203125 58.9453125,46.34765625 58.330078125,47.8125 56.865234375,48.427734375 56.865234375,50.537109375 63.1640625,50.537109375 63.1640625,48.427734375 61.6845703125,47.8271484375 61.0546875,46.34765625 61.0546875,25.283203125 60.3076171875,19.6875 58.18359375,14.6630859375 54.8876953125,10.400390625 50.625,7.1044921875 45.6005859375,4.98046875 42.8649864196777,4.4091796875 40.01953125,4.21875z M40.01953125,0L43.4399375915527,0.22705078125 46.728515625,0.908203125 52.7490234375,3.45703125 57.861328125,7.412109375 61.81640625,12.5390625 64.365234375,18.57421875 65.04638671875,21.86279296875 65.2734375,25.283203125 65.2734375,44.23828125 67.3828125,44.23828125 67.3828125,54.755859375 46.318359375,54.755859375 46.318359375,50.537109375 14.736328125,50.537109375 14.736328125,54.755859375 2.109375,54.755859375 2.109375,48.92578125 0.556640625,46.81640625 0,44.23828125 0,29.501953125 0.307617664337158,27.568359375 1.171875,25.8544921875 2.5048828125,24.4775390625 4.21875,23.525390625 4.6728515625,20.9326171875 5.947265625,18.80859375 7.939453125,17.373046875 10.517578125,16.845703125 16.845703125,16.845703125 16.845703125,14.736328125 17.2705078125,12.099609375 18.4716796875,9.78515625 20.33203125,7.939453125 22.734375,6.73828125 26.539306640625,3.84521484375 30.7470703125,1.728515625 35.269775390625,0.43212890625 40.01953125,0z" />
    </g>
  </g>
</svg>