<?xml version="1.0" encoding="utf-8"?>
<!DOCTYPE svg PUBLIC "-//W3C//DTD SVG 1.1//EN" "http://www.w3.org/Graphics/SVG/1.1/DTD/svg11.dtd">
<svg width="66.4453125" height="52.6464843750009" xmlns="http://www.w3.org/2000/svg" xmlns:xlink="http://www.w3.org/1999/xlink" xmlns:xml="http://www.w3.org/XML/1998/namespace" version="1.1">
  <g>
    <g>
      <path style="fill:#FF0000;fill-opacity:1" d="M17.9296875,37.8515625L17.109375,38.26171875 15.966796875,39.404296875 14.794921875,40.546875 9.052734375,46.318359375 4.21875,46.318359375 4.21875,48.427734375 46.318359375,48.427734375 46.318359375,46.318359375 41.484375,46.318359375 35.7421875,40.546875 33.427734375,38.26171875 32.63671875,37.91015625 31.8896484375,38.2177734375 31.552734375,38.935546875 31.904296875,39.697265625 38.525390625,46.318359375 12.01171875,46.318359375 18.6328125,39.697265625 18.984375,38.90625 18.662109375,38.173828125 17.9296875,37.8515625z M31.58203125,16.845703125L33.69140625,16.845703125 35.1708984375,17.4755859375 35.80078125,18.955078125 35.80078125,25.25390625 35.1708984375,26.7333984375 33.69140625,27.36328125 31.58203125,27.36328125 30.1025390625,26.7333984375 29.47265625,25.25390625 29.47265625,18.955078125 30.1025390625,17.4755859375 31.58203125,16.845703125z M27.36328125,4.18945264816284L25.8837890625,4.81933450698853 25.25390625,6.29882860183716 4.21875,6.29882860183716 4.21875,8.408203125 25.25390625,8.408203125 25.25390625,27.36328125 21.064453125,31.58203125 8.96484375,31.58203125 10.60546875,35.6396484375 13.2421875,39.140625 15.673828125,36.708984375 16.69921875,36.03515625 17.900390625,35.80078125 19.1162109375,36.0498046875 20.126953125,36.7236328125 20.8154296875,37.7197265625 21.064453125,38.935546875 20.8154296875,40.1220703125 20.2001953125,41.1181640625 19.3798828125,41.982421875 18.515625,42.802734375 21.796875,43.857421875 25.25390625,44.208984375 28.71826171875,43.857421875 32.021484375,42.802734375 31.1279296875,42.01171875 30.3076171875,41.1181640625 29.70703125,40.0927734375 29.47265625,38.935546875 29.7216796875,37.7197265625 30.41015625,36.7236328125 31.4208984375,36.0498046875 32.63671875,35.80078125 33.837890625,36.03515625 34.86328125,36.708984375 37.294921875,39.140625 39.378662109375,36.602783203125 40.8837890625,33.7353515625 41.7956504821777,30.626220703125 42.099609375,27.36328125 42.0556640625,26.30859375 41.953125,25.25390625 44.677734375,24.6533203125 47.34375,23.935546875 58.9453125,21.03515625 61.0546875,12.626953125 56.865234375,12.626953125 52.646484375,16.845703125 38.408203125,16.845703125 34.423828125,13.2421875 32.04345703125,11.953125 29.47265625,11.07421875 29.47265625,8.408203125 50.537109375,8.408203125 50.537109375,6.29882860183716 29.47265625,6.29882860183716 28.8427734375,4.81933450698853 27.36328125,4.18945264816284z M27.36328125,0L29.9560546875,0.541991233825684 32.080078125,2.109375 54.755859375,2.109375 54.755859375,8.7890625 55.107421875,8.408203125 66.4453125,8.408203125 64.453125,16.4794921875 62.431640625,24.521484375 46.2890625,28.564453125 45.8569297790527,31.790771484375 44.912109375,34.9072265625 43.5058555603027,37.847900390625 41.689453125,40.546875 43.2421875,42.099609375 50.537109375,42.099609375 50.537109375,52.646484375 0,52.646484375 0,42.099609375 7.294921875,42.099609375 8.84765625,40.546875 6.87744045257568,37.576904296875 5.419921875,34.3505859375 4.51904296875,30.926513671875 4.21875,27.36328125 4.60693359375,23.26171875 5.771484375,19.39453125 7.66845607757568,15.8276386260986 10.25390625,12.626953125 0,12.626953125 0,2.109375 22.67578125,2.109375 24.78515625,0.541991233825684 27.36328125,0z" />
    </g>
  </g>
</svg>