<?xml version="1.0" encoding="utf-8"?>
<!DOCTYPE svg PUBLIC "-//W3C//DTD SVG 1.1//EN" "http://www.w3.org/Graphics/SVG/1.1/DTD/svg11.dtd">
<svg width="67.3828125" height="67.3828125" xmlns="http://www.w3.org/2000/svg" xmlns:xlink="http://www.w3.org/1999/xlink" xmlns:xml="http://www.w3.org/XML/1998/namespace" version="1.1">
  <g>
    <g>
      <path style="fill:#FF0000;fill-opacity:1" d="M46.318359375,29.47265625L47.958984375,29.8095703125 49.2919921875,30.7177734375 50.2001953125,32.05078125 50.537109375,33.69140625 50.537109375,50.537109375 49.921875,52.03125 48.427734375,52.646484375 31.58203125,52.646484375 31.58203125,48.427734375 46.318359375,48.427734375 46.318359375,44.208984375 31.58203125,44.208984375 46.318359375,29.47265625z M18.955078125,29.47265625L20.44921875,30.087890625 25.25390625,34.921875 30.087890625,30.087890625 31.58203125,29.47265625 40.546875,29.47265625 31.58203125,38.4375 31.58203125,34.5703125 26.748046875,39.404296875 25.25390625,40.01953125 23.7890625,39.404296875 17.4609375,33.076171875 16.845703125,31.58203125 17.4609375,30.087890625 18.955078125,29.47265625z M33.69140625,23.173828125L44.208984375,23.173828125 43.798828125,25.2099609375 42.6708984375,26.8798828125 41.0009765625,28.0078125 38.96484375,28.41796875 36.9140625,28.0078125 35.2294921875,26.8798828125 34.1015625,25.2099609375 33.69140625,23.173828125z M33.69140625,14.736328125L44.208984375,16.845703125 44.208984375,21.064453125 31.58203125,21.064453125 31.58203125,18.955078125 33.69140625,18.955078125 33.69140625,14.736328125z M21.064453125,14.736328125L21.064453125,16.845703125 23.173828125,16.845703125 23.173828125,27.36328125 14.736328125,27.36328125 14.736328125,16.845703125 21.064453125,14.736328125z M4.21875,4.21874952316284L4.21875,63.1640625 63.1640625,63.1640625 63.1640625,4.21874952316284 4.21875,4.21874952316284z M0,0L67.3828125,0 67.3828125,67.3828125 0,67.3828125 0,0z" />
    </g>
  </g>
</svg>