<?xml version="1.0" encoding="utf-8"?>
<!DOCTYPE svg PUBLIC "-//W3C//DTD SVG 1.1//EN" "http://www.w3.org/Graphics/SVG/1.1/DTD/svg11.dtd">
<svg width="58.9453125" height="58.9453125" xmlns="http://www.w3.org/2000/svg" xmlns:xlink="http://www.w3.org/1999/xlink" xmlns:xml="http://www.w3.org/XML/1998/namespace" version="1.1">
  <g>
    <g>
      <path style="fill:#FF0000;fill-opacity:1" d="M18.955078125,42.099609375L20.419921875,42.7294921875 21.03515625,44.208984375 20.419921875,45.6884765625 18.955078125,46.318359375 17.4609375,45.703125 16.845703125,44.208984375 17.4609375,42.71484375 18.955078125,42.099609375z M21.03515625,35.80078125L22.529296875,36.416015625 23.14453125,37.91015625 22.5146484375,39.375 21.03515625,39.990234375 19.5703125,39.375 18.955078125,37.91015625 19.5703125,36.4306640625 21.03515625,35.80078125z M16.845703125,31.58203125L18.3251953125,32.2119140625 18.955078125,33.69140625 18.3251953125,35.1708984375 16.845703125,35.80078125 15.3662109375,35.1708984375 14.736328125,33.69140625 15.3515625,32.197265625 16.845703125,31.58203125z M10.1953125,13.18359375L7.613525390625,16.798095703125 5.7275390625,20.7861328125 4.57397413253784,25.0451679229736 4.189453125,29.47265625 4.41650342941284,32.89306640625 5.09765625,36.181640625 7.646484375,42.216796875 11.6015625,47.34375 16.728515625,51.298828125 22.763671875,53.84765625 26.05224609375,54.52880859375 29.47265625,54.755859375 33.900146484375,54.371337890625 38.1591796875,53.2177734375 42.1472129821777,51.331787109375 45.76171875,48.75 39.990234375,42.978515625 39.990234375,48.427734375 39.375,49.921875 37.880859375,50.537109375 36.4013671875,49.921875 35.80078125,48.427734375 35.80078125,47.6513671875 35.8154296875,46.201171875 35.830078125,44.35546875 35.830078125,42.392578125 35.830078125,41.044921875 35.8154296875,39.90234375 35.7861328125,39.0966796875 35.771484375,38.759765625 34.921875,37.91015625 34.716796875,37.880859375 33.9990234375,38.203125 33.69140625,38.935546875 33.69140625,48.427734375 33.076171875,49.921875 31.58203125,50.537109375 30.087890625,49.921875 29.47265625,48.427734375 29.47265625,32.4609375 26.25,29.208984375 25.25390625,29.47265625 18.955078125,29.47265625 17.4609375,28.857421875 16.845703125,27.36328125 17.4609375,25.869140625 18.955078125,25.25390625 22.294921875,25.25390625 10.1953125,13.18359375z M34.716796875,8.408203125L36.357421875,8.7451171875 37.6904296875,9.6533203125 38.5986328125,10.986328125 38.935546875,12.626953125 38.5986328125,14.267578125 37.6904296875,15.6005859375 36.357421875,16.5087890625 34.716796875,16.845703125 33.076171875,16.5087890625 31.7431640625,15.6005859375 30.849609375,14.267578125 30.52734375,12.626953125 30.849609375,10.986328125 31.7431640625,9.6533203125 33.076171875,8.7451171875 34.716796875,8.408203125z M29.47265625,4.21875L25.045166015625,4.599609375 20.7861328125,5.7421875 16.7980937957764,7.6171875 13.18359375,10.1953125 26.30859375,23.3203125 30.087890625,19.541015625 31.58203125,18.955078125 39.990234375,18.955078125 41.2939453125,19.39453125 42.041015625,20.537109375 45.205078125,33.1640625 45.2490234375,33.4130859375 45.263671875,33.662109375 44.6484375,35.185546875 43.154296875,35.80078125 41.8505859375,35.3466796875 41.103515625,34.189453125 39.990234375,29.736328125 39.990234375,37.001953125 48.75,45.76171875 51.3281211853027,42.147216796875 53.203125,38.1591796875 54.345703125,33.900146484375 54.7265625,29.47265625 54.49951171875,26.0522480010986 53.818359375,22.763671875 51.26953125,16.728515625 47.3291015625,11.6162109375 42.216796875,7.67578125 36.181640625,5.12695360183716 32.89306640625,4.44580078125 29.47265625,4.21875z M29.47265625,0L33.468017578125,0.263674736022949 37.3095703125,1.0546875 40.9497032165527,2.32544231414795 44.3408203125,4.0283203125 47.4645957946777,6.141357421875 50.302734375,8.642578125 52.803955078125,11.480712890625 54.9169921875,14.6044921875 56.619873046875,17.99560546875 57.890625,21.6357421875 58.681640625,25.4772968292236 58.9453125,29.47265625 58.681640625,33.468017578125 57.890625,37.3095703125 56.619873046875,40.94970703125 54.9169921875,44.3408203125 52.803955078125,47.464599609375 50.302734375,50.302734375 47.4645957946777,52.803955078125 44.3408203125,54.9169921875 40.9497032165527,56.619873046875 37.3095703125,57.890625 33.468017578125,58.681640625 29.47265625,58.9453125 25.477294921875,58.681640625 21.6357421875,57.890625 17.9956035614014,56.619873046875 14.6044921875,54.9169921875 11.480712890625,52.803955078125 8.642578125,50.302734375 6.141357421875,47.464599609375 4.0283203125,44.3408203125 2.32543873786926,40.94970703125 1.0546875,37.3095703125 0.263671875,33.468017578125 0,29.47265625 0.263671875,25.4772968292236 1.0546875,21.6357421875 2.32543873786926,17.99560546875 4.0283203125,14.6044921875 6.141357421875,11.480712890625 8.642578125,8.642578125 11.480712890625,6.141357421875 14.6044921875,4.0283203125 17.9956035614014,2.32544231414795 21.6357421875,1.0546875 25.477294921875,0.263674736022949 29.47265625,0z" />
    </g>
  </g>
</svg>