<?xml version="1.0" encoding="utf-8"?>
<!DOCTYPE svg PUBLIC "-//W3C//DTD SVG 1.1//EN" "http://www.w3.org/Graphics/SVG/1.1/DTD/svg11.dtd">
<svg width="67.4414062500007" height="67.3828125" xmlns="http://www.w3.org/2000/svg" xmlns:xlink="http://www.w3.org/1999/xlink" xmlns:xml="http://www.w3.org/XML/1998/namespace" version="1.1">
  <g>
    <g>
      <path style="fill:#FF0000;fill-opacity:1" d="M53.61328125,52.646484375L48.6328125,57.509765625 48.8818359375,58.330078125 49.248046875,59.150390625 50.390625,60.8203125 51.9580078125,62.080078125 53.8037109375,62.8857421875 55.810546875,63.1640625 58.681640625,62.5927734375 61.025390625,61.025390625 62.5927734375,58.6962890625 63.1640625,55.810546875 62.4609375,52.646484375 55.927734375,52.646484375 57.099609375,52.939453125 58.06640625,53.6279296875 58.7109375,54.6240234375 58.9453125,55.810546875 58.6962890625,57.0263671875 58.0224609375,58.037109375 57.0263671875,58.7255859375 55.810546875,58.974609375 54.5947265625,58.7255859375 53.583984375,58.037109375 52.8955078125,57.0263671875 52.646484375,55.810546875 52.880859375,54.609375 53.525390625,53.6279296875 54.4775390625,52.939453125 55.6640625,52.646484375 53.61328125,52.646484375z M11.572265625,52.646484375L12.802734375,52.8955078125 13.8134765625,53.5693359375 14.4873046875,54.580078125 14.736328125,55.810546875 14.4873046875,57.0556640625 13.8134765625,58.0517578125 12.802734375,58.7255859375 11.572265625,58.974609375 10.3564453125,58.7255859375 9.345703125,58.037109375 8.6572265625,57.0263671875 8.408203125,55.810546875 8.6572265625,54.5947265625 9.345703125,53.583984375 10.3564453125,52.8955078125 11.572265625,52.646484375z M11.572265625,48.427734375L8.701171875,49.013671875 6.35742092132568,50.595703125 4.7900390625,52.939453125 4.21875,55.810546875 4.7900390625,58.6962890625 6.35742092132568,61.025390625 8.6865234375,62.5927734375 11.572265625,63.1640625 14.4287109375,62.578125 16.7724609375,60.99609375 18.369140625,58.6669921875 18.955078125,55.810546875 18.369140625,52.939453125 16.787109375,50.595703125 14.443359375,49.013671875 11.572265625,48.427734375z M20.44921875,43.7109375L19.013671875,48.22265625 24.873046875,54.08203125 27.94921875,56.1328125 31.58203125,56.865234375 46.2890625,56.865234375 49.51171875,53.6865234375 52.734375,50.537109375 63.1640625,50.537109375 62.3583984375,48.017578125 60.64453125,46.0107421875 58.330078125,44.6923828125 55.72265625,44.208984375 53.84765625,44.4873046875 52.20703125,45.380859375 48.2373046875,48.955078125 44.4140625,52.646484375 31.2890625,52.646484375 30.1025390625,52.470703125 29.0771484375,52.001953125 28.1689453125,51.328125 27.3046875,50.537109375 20.44921875,43.7109375z M20.56640625,23.173828125L14.853515625,41.103515625 14.0478515625,43.798828125 13.154296875,46.46484375 15.1171875,47.01416015625 16.904296875,47.958984375 20.8154296875,35.5517578125 24.78515625,23.173828125 20.56640625,23.173828125z M16.845703125,4.21875L15.3515625,4.833984375 14.736328125,6.328125 15.3662109375,7.80761814117432 16.845703125,8.43750095367432 25.25390625,8.43750095367432 21.240234375,21.064453125 25.458984375,21.064453125 29.47265625,8.43750095367432 37.91015625,8.43750095367432 39.3896484375,7.80761814117432 40.01953125,6.328125 39.3896484375,4.8486328125 37.91015625,4.21875 16.845703125,4.21875z M16.845703125,0L37.91015625,0 40.37109375,0.498047828674316 42.36328125,1.86035215854645 43.7109375,3.8671875 44.208984375,6.328125 43.7109375,8.78906345367432 42.36328125,10.78125 40.37109375,12.12890625 37.91015625,12.626953125 32.548828125,12.626953125 23.583984375,40.869140625 29.033203125,46.318359375 44.765625,46.318359375 45.46875,45.615234375 47.6953125,43.4326171875 49.9951171875,41.66015625 52.6318359375,40.458984375 55.8984375,40.01953125 58.363037109375,40.257568359375 60.6005859375,40.9716796875 64.248046875,43.5791015625 66.6064453125,47.4462890625 67.232666015625,49.727783203125 67.44140625,52.1484375 67.412109375,53.9794921875 67.3828125,55.810546875 67.15576171875,58.1396484375 66.474609375,60.322265625 63.9990234375,63.9990234375 60.322265625,66.474609375 58.1396484375,67.15576171875 55.810546875,67.3828125 52.6318359375,66.943359375 49.74609375,65.68359375 47.314453125,63.69140625 45.498046875,61.0546875 31.58203125,61.0546875 29.249267578125,60.860595703125 26.9970703125,60.2783203125 22.939453125,58.0078125 21.4892578125,61.7724609375 18.9404296875,64.7314453125 15.5419921875,66.6796875 11.572265625,67.3828125 9.2431640625,67.15576171875 7.06054782867432,66.474609375 3.3837890625,63.9990234375 0.908203125,60.322265625 0.227050423622131,58.1396484375 0,55.810546875 0.703125,51.826171875 2.6513671875,48.4423828125 5.625,45.8935546875 9.404296875,44.443359375 19.51171875,12.626953125 16.845703125,12.626953125 14.384765625,12.12890625 12.3779296875,10.78125 11.015625,8.78906345367432 10.517578125,6.328125 11.015625,3.8671875 12.3779296875,1.86035215854645 14.384765625,0.498047828674316 16.845703125,0z" />
    </g>
  </g>
</svg>