<?xml version="1.0" encoding="utf-8"?>
<!DOCTYPE svg PUBLIC "-//W3C//DTD SVG 1.1//EN" "http://www.w3.org/Graphics/SVG/1.1/DTD/svg11.dtd">
<svg width="59.0625000000175" height="50.537109375" xmlns="http://www.w3.org/2000/svg" xmlns:xlink="http://www.w3.org/1999/xlink" xmlns:xml="http://www.w3.org/XML/1998/namespace" version="1.1">
  <g>
    <g>
      <path style="fill:#FF0000;fill-opacity:1" d="M21.357421875,4.18945407867432L18.57421875,4.65820407867432 16.171875,5.97656297683716 14.3115234375,7.99804735183716 13.18359375,10.576171875 6.357421875,37.880859375 22.763671875,37.880859375 22.79296875,37.470703125 22.79296875,37.060546875 22.1337890625,33.310546875 20.2880859375,30.087890625 17.4755859375,27.6708984375 13.916015625,26.337890625 17.4755859375,24.931640625 20.2880859375,22.5146484375 22.1337890625,19.3212890625 22.79296875,15.556640625 22.7490234375,14.677734375 22.646484375,13.798828125 25.9130859375,15.4541015625 29.53125,16.025390625 33.1494140625,15.4541015625 36.416015625,13.798828125 36.3134765625,14.677734375 36.26953125,15.556640625 36.9287109375,19.2919921875 38.7744140625,22.5 41.572265625,24.9169921875 45.1171875,26.279296875 41.572265625,27.65625 38.7744140625,30.087890625 36.9287109375,33.310546875 36.26953125,37.060546875 36.26953125,37.470703125 36.298828125,37.880859375 52.705078125,37.880859375 45.87890625,10.576171875 44.7509765625,7.99804735183716 42.890625,5.97656297683716 40.4736328125,4.65820407867432 37.705078125,4.18945407867432 21.357421875,4.18945407867432z M21.357421875,0L37.705078125,0 41.865234375,0.703125953674316 45.4833984375,2.68066453933716 48.2666015625,5.71289110183716 49.951171875,9.580078125 56.25,34.775390625 57.685546875,36.0791015625 58.5498046875,37.6171875 58.9599609375,39.3603515625 59.0625,41.279296875 59.033203125,42.7587890625 59.00390625,44.208984375 58.505859375,46.640625 57.1435546875,48.6474609375 55.13671875,50.0244140625 52.705078125,50.537109375 6.357421875,50.537109375 3.896484375,50.0390625 1.904296875,48.6767578125 0.556640148162842,46.669921875 0.05859375,44.208984375 0.029296875,42.744140625 0,41.279296875 0.102538585662842,39.3603515625 0.5126953125,37.6318359375 1.376953125,36.1083984375 2.8125,34.775390625 9.111328125,9.580078125 10.7958984375,5.71289110183716 13.5791015625,2.68066453933716 17.197265625,0.703125953674316 21.357421875,0z" />
    </g>
  </g>
</svg>