<?xml version="1.0" encoding="utf-8"?>
<!DOCTYPE svg PUBLIC "-//W3C//DTD SVG 1.1//EN" "http://www.w3.org/Graphics/SVG/1.1/DTD/svg11.dtd">
<svg width="18.310546875" height="39.580078125" xmlns="http://www.w3.org/2000/svg" xmlns:xlink="http://www.w3.org/1999/xlink" xmlns:xml="http://www.w3.org/XML/1998/namespace" version="1.1">
  <g>
    <g>
      <path style="fill:#FF0000;fill-opacity:1" d="M5.390625,6.73828125L12.919921875,6.73828125 13.92333984375,7.07519674301147 14.82421875,8.0859375 18.046875,13.330078125 18.310546875,14.23828125 18.0615234375,15.19775390625 17.314453125,16.435546875 14.35546875,20.56640625 13.359375,17.98828125 15.8203125,14.4140625 13.037109375,10.751953125 13.037109375,18.134765625 14.150390625,21.416015625 13.681640625,22.1484375 13.681640625,26.044921875 13.154296875,26.044921875 13.154296875,37.96875 12.76611328125,39.17724609375 11.6015625,39.580078125 10.4589824676514,39.17724609375 10.078125,37.96875 10.078125,26.044921875 9.55078125,26.044921875 9.55078125,22.1484375 8.759765625,22.1484375 8.759765625,26.044921875 8.232421875,26.044921875 8.232421875,37.96875 7.85156106948853,39.17724609375 6.708984375,39.580078125 5.56640481948853,39.17724609375 5.185546875,37.96875 5.185546875,26.044921875 4.62890625,26.044921875 4.62890625,22.1484375 4.16015625,21.416015625 5.302734375,18.134765625 5.302734375,10.751953125 2.490234375,14.4140625 4.951171875,17.98828125 3.955078125,20.56640625 0.99609375,16.435546875 0.2490234375,15.19775390625 0,14.23828125 0.263671875,13.330078125 3.486328125,8.0859375 4.38720560073853,7.07519674301147 5.390625,6.73828125z M9.140625,0L10.1733379364014,0.234375 11.044921875,0.9375 11.63818359375,1.9775390625 11.8359375,3.22265625 11.63818359375,4.449462890625 11.044921875,5.4931640625 10.1733379364014,6.20727682113647 9.140625,6.4453125 8.10790824890137,6.20727682113647 7.236328125,5.4931640625 6.64306497573853,4.449462890625 6.4453125,3.22265625 6.64306497573853,1.9775390625 7.236328125,0.9375 8.10790824890137,0.234375 9.140625,0z" />
    </g>
  </g>
</svg>