<?xml version="1.0" encoding="utf-8"?>
<!DOCTYPE svg PUBLIC "-//W3C//DTD SVG 1.1//EN" "http://www.w3.org/Graphics/SVG/1.1/DTD/svg11.dtd">
<svg width="67.3828125000005" height="56.8359375" xmlns="http://www.w3.org/2000/svg" xmlns:xlink="http://www.w3.org/1999/xlink" xmlns:xml="http://www.w3.org/XML/1998/namespace" version="1.1">
  <g>
    <g>
      <path style="fill:#FF0000;fill-opacity:1" d="M4.21875,37.91015625L4.21875,42.12890625 4.41650390625,44.322509765625 5.009765625,46.3330078125 7.20703125,49.658203125 10.546875,51.85546875 12.56103515625,52.44873046875 14.736328125,52.646484375 63.1640625,52.646484375 63.1640625,48.427734375 54.755859375,48.427734375 54.755859375,39.990234375 50.537109375,39.990234375 50.537109375,48.427734375 29.47265625,48.427734375 29.47265625,39.990234375 25.25390625,39.990234375 25.25390625,48.427734375 14.736328125,48.427734375 12.1142578125,47.98828125 10.1220703125,46.7138671875 8.84765625,44.7216796875 8.408203125,42.099609375 8.0859375,40.458984375 7.1923828125,39.1259765625 5.859375,38.232421875 4.21875,37.91015625z M61.0546875,31.58203125L61.025390625,32.7978515625 60.8642578125,33.8818359375 60.4541015625,34.86328125 59.6484375,35.80078125 59.8828125,35.80078125 61.025390625,35.8447265625 62.080078125,36.0791015625 62.8564453125,36.6943359375 63.1640625,37.880859375 63.1640625,33.69140625 62.548828125,32.197265625 61.0546875,31.58203125z M31.58203125,31.58203125L31.552734375,32.7978515625 31.3916015625,33.8818359375 30.9814453125,34.86328125 30.17578125,35.80078125 54.052734375,35.80078125 53.2470703125,34.86328125 52.8369140625,33.8818359375 52.67578125,32.7978515625 52.646484375,31.58203125 31.58203125,31.58203125z M21.064453125,31.58203125L19.4091796875,31.9189453125 18.0615234375,32.8271484375 17.16796875,34.16015625 16.845703125,35.80078125 16.845703125,39.814453125 17.2265625,38.232421875 18.1494140625,36.9580078125 19.4677734375,36.1083984375 21.064453125,35.80078125 24.580078125,35.80078125 23.7744140625,34.86328125 23.3642578125,33.8818359375 23.203125,32.7978515625 23.173828125,31.58203125 21.064453125,31.58203125z M61.0546875,27.36328125L61.0546875,29.47265625 62.5048828125,30.029296875 63.1640625,31.40625 63.1640625,29.47265625 62.5341796875,27.9931640625 61.0546875,27.36328125z M31.58203125,27.36328125L31.58203125,29.47265625 52.646484375,29.47265625 52.646484375,27.36328125 31.58203125,27.36328125z M21.064453125,27.36328125L19.423828125,27.7001953125 18.0908203125,28.6083984375 17.1826171875,29.94140625 16.845703125,31.58203125 16.845703125,33.515625 17.2119140625,31.93359375 18.1201171875,30.64453125 19.453125,29.7802734375 21.064453125,29.47265625 23.173828125,29.47265625 23.173828125,27.36328125 21.064453125,27.36328125z M4.21875,23.173828125L4.21875,27.36328125 4.41650390625,29.560546875 5.009765625,31.58203125 7.20703125,34.921875 10.5322265625,37.119140625 12.542724609375,37.71240234375 14.736328125,37.91015625 14.736328125,33.69140625 12.12890625,33.251953125 10.13671875,31.9775390625 8.8623046875,29.9853515625 8.408203125,27.36328125 8.0859375,25.72265625 7.1923828125,24.3896484375 5.859375,23.49609375 4.21875,23.173828125z M61.0546875,21.064453125L61.0546875,25.283203125 62.5341796875,25.8984375 63.1640625,27.36328125 63.1640625,23.14453125 63.017578125,22.3974609375 62.607421875,21.73828125 61.9921875,21.2548828125 61.259765625,21.064453125 61.0546875,21.064453125z M33.69140625,21.064453125L32.197265625,21.6796875 31.58203125,23.173828125 31.58203125,25.283203125 52.646484375,25.283203125 52.646484375,21.064453125 33.69140625,21.064453125z M21.064453125,21.03515625L19.541015625,21.3427734375 18.1787109375,22.177734375 17.2119140625,23.4228515625 16.845703125,24.9609375 16.845703125,29.296875 17.2265625,27.71484375 18.1494140625,26.4404296875 19.4677734375,25.5908203125 21.064453125,25.283203125 23.173828125,25.283203125 23.173828125,23.701171875 23.203125,22.3681640625 23.37890625,21.03515625 21.064453125,21.03515625z M61.0546875,4.21874952316284L59.5751953125,4.84863233566284 58.9453125,6.328125 58.9453125,14.736328125 33.69140625,14.736328125 30.3955078125,15.3955078125 27.71484375,17.197265625 25.9130859375,19.8779296875 25.25390625,23.173828125 25.25390625,32.63671875 25.8837890625,34.1162109375 27.36328125,34.74609375 28.857421875,34.130859375 29.47265625,32.63671875 29.47265625,23.173828125 29.794921875,21.533203125 30.6884765625,20.2001953125 32.0361328125,19.2919921875 33.69140625,18.955078125 54.755859375,18.955078125 54.755859375,32.63671875 55.37109375,34.130859375 56.865234375,34.74609375 58.330078125,34.1162109375 58.9453125,32.63671875 58.9453125,18.955078125 60.05859375,18.955078125 61.171875,18.896484375 62.16796875,18.6181640625 62.8857421875,17.98828125 63.1640625,16.845703125 63.1640625,6.328125 62.548828125,4.83398485183716 61.0546875,4.21874952316284z M33.69140625,4.21874952316284L30.3955078125,4.87792921066284 27.71484375,6.6796875 25.9130859375,9.345703125 25.25390625,12.626953125 25.25390625,16.845703125 27.158203125,14.912109375 29.47265625,13.505859375 29.47265625,12.626953125 29.8095703125,10.986328125 30.7177734375,9.6533203125 32.05078125,8.759765625 33.69140625,8.4375 54.755859375,8.4375 54.755859375,12.626953125 56.865234375,12.626953125 56.865234375,6.328125 57.421875,4.21874952316284 33.69140625,4.21874952316284z M33.69140625,0L61.0546875,0 63.515625,0.498046875 65.5224609375,1.84570264816284 66.884765625,3.83789110183716 67.3828125,6.298828125 67.3681640625,22.08984375 67.353515625,37.880859375 66.884765625,40.2978515625 65.595703125,42.275390625 63.6767578125,43.65234375 61.318359375,44.208984375 67.3828125,44.208984375 67.3828125,56.8359375 14.736328125,56.8359375 11.689453125,56.5576171875 8.876953125,55.72265625 6.36108303070068,54.393310546875 4.2041015625,52.6318359375 2.442626953125,50.474853515625 1.11328125,47.958984375 0.278319954872131,45.146484375 0,42.099609375 0,18.955078125 4.21875,18.955078125 7.4853515625,19.6142578125 10.166015625,21.416015625 11.9677734375,24.0966796875 12.626953125,27.36328125 12.626953125,25.25390625 13.30078125,21.97265625 15.1171875,19.306640625 17.7978515625,17.5048828125 21.064453125,16.845703125 21.064453125,12.626953125 21.3134746551514,10.096435546875 22.060546875,7.7197265625 24.7705078125,3.70605516433716 28.7841796875,0.996093511581421 31.160888671875,0.249026268720627 33.69140625,0z" />
    </g>
  </g>
</svg>