<?xml version="1.0" encoding="utf-8"?>
<!DOCTYPE svg PUBLIC "-//W3C//DTD SVG 1.1//EN" "http://www.w3.org/Graphics/SVG/1.1/DTD/svg11.dtd">
<svg width="67.3828125" height="67.3828125" xmlns="http://www.w3.org/2000/svg" xmlns:xlink="http://www.w3.org/1999/xlink" xmlns:xml="http://www.w3.org/XML/1998/namespace" version="1.1">
  <g>
    <g>
      <path style="fill:#FF0000;fill-opacity:1" d="M21.064453125,35.80078125L23.173828125,35.80078125 23.173828125,42.12890625 29.47265625,42.12890625 29.47265625,35.80078125 31.58203125,35.80078125 31.58203125,50.537109375 21.064453125,50.537109375 21.064453125,35.80078125z M32.63671875,14.736328125L41.572265625,14.736328125 42.3193359375,15.0439453125 42.626953125,15.791015625 42.3193359375,16.5380859375 41.572265625,16.845703125 37.91015625,16.845703125 37.91015625,18.955078125 46.318359375,18.955078125 46.318359375,25.283203125 33.69140625,25.283203125 32.05078125,25.60546875 30.7177734375,26.4990234375 29.8095703125,27.83203125 29.47265625,29.47265625 29.47265625,31.58203125 23.173828125,31.58203125 23.173828125,29.47265625 23.3825664520264,27.3669452667236 24.0087890625,25.3857421875 26.2646484375,22.0458984375 29.6044921875,19.7900390625 31.585693359375,19.163818359375 33.69140625,18.955078125 35.80078125,18.955078125 35.80078125,16.845703125 32.63671875,16.845703125 31.8896484375,16.5380859375 31.58203125,15.791015625 31.8896484375,15.0439453125 32.63671875,14.736328125z M4.21875,4.21874952316284L4.21875,63.1640625 63.1640625,63.1640625 63.1640625,4.21874952316284 4.21875,4.21874952316284z M0,0L67.3828125,0 67.3828125,67.3828125 0,67.3828125 0,0z" />
    </g>
  </g>
</svg>