<?xml version="1.0" encoding="utf-8"?>
<!DOCTYPE svg PUBLIC "-//W3C//DTD SVG 1.1//EN" "http://www.w3.org/Graphics/SVG/1.1/DTD/svg11.dtd">
<svg width="37.060546875" height="43.359375" xmlns="http://www.w3.org/2000/svg" xmlns:xlink="http://www.w3.org/1999/xlink" xmlns:xml="http://www.w3.org/XML/1998/namespace" version="1.1">
  <g>
    <g>
      <path style="fill:#FF0000;fill-opacity:1" d="M12.744140625,36.123046875L12.744140625,40.458984375 24.31640625,40.458984375 24.31640625,36.123046875 12.744140625,36.123046875z M9.84375,33.251953125L27.216796875,33.251953125 27.216796875,43.359375 9.84375,43.359375 9.84375,33.251953125z M9.609375,13.0078125L6.97265672683716,15.64453125 12.744140625,15.64453125 12.744140625,26.015625 24.31640625,26.015625 24.31640625,15.64453125 30.087890625,15.64453125 27.451171875,13.0078125 9.609375,13.0078125z M18.515625,4.072265625L12.509765625,10.107421875 24.55078125,10.107421875 18.515625,4.072265625z M18.515625,0L37.060546875,18.544921875 27.216796875,18.544921875 27.216796875,28.916015625 9.84375,28.916015625 9.84375,18.544921875 0,18.544921875 18.515625,0z" />
    </g>
  </g>
</svg>