<?xml version="1.0" encoding="utf-8"?>
<!DOCTYPE svg PUBLIC "-//W3C//DTD SVG 1.1//EN" "http://www.w3.org/Graphics/SVG/1.1/DTD/svg11.dtd">
<svg width="31.9921875" height="36.62109375" xmlns="http://www.w3.org/2000/svg" xmlns:xlink="http://www.w3.org/1999/xlink" xmlns:xml="http://www.w3.org/XML/1998/namespace" version="1.1">
  <g>
    <g>
      <path style="fill:#FF0000;fill-opacity:1" d="M4.453125,20.771484375L3.0560302734375,20.9381103515625 2.05810546875,21.43798828125 1.4593505859375,22.2711181640625 1.259765625,23.4375 1.259765625,34.716796875 5.80078125,32.373046875 10.4296875,34.716796875 10.4296875,20.771484375 4.453125,20.771484375z M22.177734375,3.984375L22.177734375,10.341796875 14.677734375,10.341796875 13.4326171875,10.6054706573486 12.216796875,11.396484375 3.369140625,19.51171875 22.177734375,19.51171875 22.177734375,25.927734375 30.380859375,14.94140625 30.380859375,14.8828125 22.177734375,3.984375z M20.859375,0L31.9921875,14.94140625 20.859375,29.8828125 20.859375,20.771484375 11.689453125,20.771484375 11.689453125,36.62109375 5.80078125,33.69140625 0,36.62109375 0,23.4375 0.31494140625,21.29150390625 1.259765625,19.833984375 11.279296875,10.60546875 12.8759765625,9.46289253234863 14.677734375,9.08203125 20.859375,9.08203125 20.859375,0z" />
    </g>
  </g>
</svg>