<?xml version="1.0" encoding="utf-8"?>
<!DOCTYPE svg PUBLIC "-//W3C//DTD SVG 1.1//EN" "http://www.w3.org/Graphics/SVG/1.1/DTD/svg11.dtd">
<svg width="43.359375" height="43.359375" xmlns="http://www.w3.org/2000/svg" xmlns:xlink="http://www.w3.org/1999/xlink" xmlns:xml="http://www.w3.org/XML/1998/namespace" version="1.1">
  <g>
    <g>
      <path style="fill:#FF0000;fill-opacity:1" d="M14.00390625,10.95703125L21.6796875,18.603515625 29.35546875,10.95703125 32.431640625,14.00390625 24.755859375,21.6796875 32.431640625,29.35546875 29.35546875,32.40234375 21.6796875,24.755859375 14.00390625,32.40234375 10.95703125,29.35546875 18.603515625,21.6796875 10.95703125,14.00390625 14.00390625,10.95703125z M21.6796875,4.3359375L18.2098388671875,4.6527099609375 15.00732421875,5.60302734375 12.0721435546875,7.1868896484375 9.404296875,9.404296875 7.1868896484375,12.0721445083618 5.60302734375,15.0073261260986 4.6527099609375,18.2098407745361 4.3359375,21.6796875 4.65362548828125,25.1495361328125 5.606689453125,28.35205078125 7.19512939453125,31.2872314453125 9.4189453125,33.955078125 12.0913696289063,36.1724853515625 15.025634765625,37.75634765625 18.2217407226563,38.7066650390625 21.6796875,39.0234375 25.1495361328125,38.7066650390625 28.35205078125,37.75634765625 31.2872314453125,36.1724853515625 33.955078125,33.955078125 36.1724853515625,31.2872314453125 37.75634765625,28.35205078125 38.7066650390625,25.1495361328125 39.0234375,21.6796875 38.7066650390625,18.2098407745361 37.75634765625,15.0073261260986 36.1724853515625,12.0721445083618 33.955078125,9.404296875 31.2872314453125,7.1868896484375 28.35205078125,5.60302734375 25.1495361328125,4.6527099609375 21.6796875,4.3359375z M21.6796875,0L26.0110473632813,0.39642333984375 30.010986328125,1.585693359375 33.6795043945313,3.56781005859375 37.0166015625,6.3427734375 39.791561126709,9.67987060546875 41.7736778259277,13.3483896255493 42.962947845459,17.3483276367188 43.359375,21.6796875 42.962947845459,26.0110473632813 41.7736778259277,30.010986328125 39.791561126709,33.6795043945313 37.0166015625,37.0166015625 33.6795043945313,39.7915649414063 30.010986328125,41.773681640625 26.0110473632813,42.9629516601563 21.6796875,43.359375 17.3483276367188,42.9629516601563 13.348388671875,41.773681640625 9.67987060546875,39.7915649414063 6.3427734375,37.0166015625 3.56781005859375,33.6795043945313 1.585693359375,30.010986328125 0.39642333984375,26.0110473632813 0,21.6796875 0.39642333984375,17.3483276367188 1.585693359375,13.3483896255493 3.56781005859375,9.67987060546875 6.3427734375,6.3427734375 9.67987060546875,3.56781005859375 13.348388671875,1.585693359375 17.3483276367188,0.39642333984375 21.6796875,0z" />
    </g>
  </g>
</svg>