<?xml version="1.0" encoding="utf-8"?>
<!DOCTYPE svg PUBLIC "-//W3C//DTD SVG 1.1//EN" "http://www.w3.org/Graphics/SVG/1.1/DTD/svg11.dtd">
<svg width="33.8579979379284" height="51.8404234551095" xmlns="http://www.w3.org/2000/svg" xmlns:xlink="http://www.w3.org/1999/xlink" xmlns:xml="http://www.w3.org/XML/1998/namespace" version="1.1">
  <g>
    <g>
      <path style="fill:#FF0000;fill-opacity:1" d="M8.58944129943848,0.0142526626586914L11.5337772369385,0.834565162658691 13.8335819244385,2.78280735015869 15.4302616119385,5.93222141265869 27.4712772369385,45.8345642089844 29.8443241119385,40.9419860839844 33.8579978942871,39.6529235839844 27.4126834869385,51.7818298339844 27.2369022369385,51.8404235839844 15.1372928619385,45.3951110839844 19.1216678619385,44.2525329589844 23.9263553619385,47.0650329589844 11.9732303619385,7.36776828765869 11.0357303619385,5.44882297515869 9.71737098693848,4.32089328765869 8.16463661193848,3.89608860015869 6.64119911193848,4.13046360015869 5.30819129943848,4.84823703765869 4.38534069061279,5.96151828765869 3.9312379360199,7.48495578765869 4.18026161193848,9.47714328765869 5.82088756561279,14.7212839126587 2.07088685035706,15.8931589126587 0.459558725357056,10.5904245376587 0.0347542762756348,7.10409641265869 0.869715213775635,4.23300266265869 2.86190295219421,1.81601047515869 5.55721473693848,0.380463600158691 8.58944129943848,0.0142526626586914z" />
    </g>
  </g>
</svg>