<?xml version="1.0" encoding="utf-8"?>
<!DOCTYPE svg PUBLIC "-//W3C//DTD SVG 1.1//EN" "http://www.w3.org/Graphics/SVG/1.1/DTD/svg11.dtd">
<svg width="43.447265625" height="26.77734375" xmlns="http://www.w3.org/2000/svg" xmlns:xlink="http://www.w3.org/1999/xlink" xmlns:xml="http://www.w3.org/XML/1998/namespace" version="1.1">
  <g>
    <g>
      <path style="fill:#FF0000;fill-opacity:1" d="M21.73828125,0L27.509765625,0.439453125 32.7099609375,1.6845703125 37.1044921875,3.6767578125 40.48828125,6.3427734375 42.6708984375,9.609375 43.253173828125,11.455078125 43.447265625,13.41796875 43.0224609375,16.318359375 41.748046875,18.92578125 39.737548828125,21.207275390625 37.1044921875,23.1298828125 33.907470703125,24.67529296875 30.205078125,25.8251953125 26.1108379364014,26.539306640625 21.73828125,26.77734375 17.384033203125,26.539306640625 13.2861328125,25.8251953125 9.57275295257568,24.671630859375 6.3720703125,23.115234375 3.73535108566284,21.181640625 1.7138671875,18.896484375 0.428466796875,16.29638671875 0,13.41796875 0.428466796875,10.535888671875 1.7138671875,7.9248046875 3.73535108566284,5.62866353988647 6.3720703125,3.69140625 9.57275295257568,2.13134837150574 13.2861328125,0.966796875 17.384033203125,0.24169921875 21.73828125,0z" />
    </g>
  </g>
</svg>