<?xml version="1.0" encoding="utf-8"?>
<!DOCTYPE svg PUBLIC "-//W3C//DTD SVG 1.1//EN" "http://www.w3.org/Graphics/SVG/1.1/DTD/svg11.dtd">
<svg width="43.4765625" height="43.447265625" xmlns="http://www.w3.org/2000/svg" xmlns:xlink="http://www.w3.org/1999/xlink" xmlns:xml="http://www.w3.org/XML/1998/namespace" version="1.1">
  <g>
    <g>
      <path style="fill:#FF0000;fill-opacity:1" d="M21.708984375,3.6328125L18.0853271484375,3.96514892578125 14.74365234375,4.962158203125 11.6839599609375,6.62384033203125 8.90625,8.9501953125 6.59912109375,11.7434701919556 4.951171875,14.8059101104736 3.96240234375,18.1375141143799 3.6328125,21.73828125 3.96331787109375,25.3500366210938 4.954833984375,28.685302734375 6.60736083984375,31.7440795898438 8.9208984375,34.5263671875 11.7031860351563,36.8399047851563 14.761962890625,38.492431640625 18.0972290039063,39.4839477539063 21.708984375,39.814453125 25.33447265625,39.4821166992188 28.681640625,38.485107421875 31.75048828125,36.8234252929688 34.541015625,34.4970703125 36.8609580993652,31.7056274414063 38.5180625915527,28.648681640625 39.5123252868652,25.3262329101563 39.84375,21.73828125 39.5104942321777,18.1137104034424 38.5107383728027,14.7692890167236 36.8444786071777,11.7050180435181 34.51171875,8.9208984375 31.7120361328125,6.60736083984375 28.64501953125,4.954833984375 25.3106689453125,3.96331787109375 21.708984375,3.6328125z M21.708984375,0L26.0549926757813,0.40008544921875 30.069580078125,1.600341796875 33.7527465820313,3.60076904296875 37.1044921875,6.4013671875 39.8922691345215,9.76043701171875 41.8835411071777,13.4362802505493 43.0783042907715,17.4288940429688 43.4765625,21.73828125 43.0755577087402,26.0824584960938 41.8725547790527,30.091552734375 39.8675498962402,33.7655639648438 37.060546875,37.1044921875 33.695068359375,39.8794555664063 30.0146484375,41.861572265625 26.019287109375,43.0508422851563 21.708984375,43.447265625 17.3648071289063,43.048095703125 13.355712890625,41.8505859375 9.68170166015625,39.854736328125 6.3427734375,37.060546875 3.56781005859375,33.7078857421875 1.585693359375,30.03662109375 0.39642333984375,26.0467529296875 0,21.73828125 0.399169921875,17.3931884765625 1.5966796875,13.3813486099243 3.592529296875,9.7027587890625 6.38671875,6.357421875 9.7393798828125,3.5760498046875 13.41064453125,1.58935546875 17.4005126953125,0.3973388671875 21.708984375,0z" />
    </g>
  </g>
</svg>