<?xml version="1.0" encoding="utf-8"?>
<!DOCTYPE svg PUBLIC "-//W3C//DTD SVG 1.1//EN" "http://www.w3.org/Graphics/SVG/1.1/DTD/svg11.dtd">
<svg width="43.359375" height="43.359375" xmlns="http://www.w3.org/2000/svg" xmlns:xlink="http://www.w3.org/1999/xlink" xmlns:xml="http://www.w3.org/XML/1998/namespace" version="1.1">
  <g>
    <g>
      <path style="fill:#FF0000;fill-opacity:1" d="M10.83984375,0L10.83984375,8.671875 26.015625,8.671875 29.4854736328125,8.98956298828125 32.68798828125,9.942626953125 35.6231689453125,11.5310668945313 38.291015625,13.7548828125 40.5084190368652,16.4273090362549 42.0922813415527,19.3615741729736 43.0425987243652,22.5576801300049 43.359375,26.015625 43.0416831970215,29.4735717773438 42.0886192321777,32.669677734375 40.5001792907715,35.6039428710938 38.2763671875,38.2763671875 35.6039428710938,40.5001831054688 32.669677734375,42.088623046875 29.4735717773438,43.0416870117188 26.015625,43.359375 10.83984375,43.359375 10.83984375,39.0234375 26.015625,39.0234375 28.612060546875,38.785400390625 31.0107421875,38.0712890625 33.211669921875,36.881103515625 35.21484375,35.21484375 36.881103515625,33.211669921875 38.0712890625,31.0107421875 38.785400390625,28.612060546875 39.0234375,26.015625 38.785400390625,23.419189453125 38.0712890625,21.0205078125 36.881103515625,18.819580078125 35.21484375,16.81640625 33.211669921875,15.1501474380493 31.0107421875,13.9599628448486 28.612060546875,13.2458505630493 26.015625,13.0078125 10.83984375,13.0078125 10.83984375,21.6796875 0,10.83984375 10.83984375,0z" />
    </g>
  </g>
</svg>