<?xml version="1.0" encoding="utf-8"?>
<!DOCTYPE svg PUBLIC "-//W3C//DTD SVG 1.1//EN" "http://www.w3.org/Graphics/SVG/1.1/DTD/svg11.dtd">
<svg width="42.01171875" height="42.01171875" xmlns="http://www.w3.org/2000/svg" xmlns:xlink="http://www.w3.org/1999/xlink" xmlns:xml="http://www.w3.org/XML/1998/namespace" version="1.1">
  <g>
    <g>
      <path style="fill:#FF0000;fill-opacity:1" d="M38.37890625,38.37890625L42.01171875,38.37890625 42.01171875,42.01171875 38.37890625,42.01171875 38.37890625,38.37890625z M30.703125,38.37890625L34.3359375,38.37890625 34.3359375,42.01171875 30.703125,42.01171875 30.703125,38.37890625z M23.02734375,38.37890625L26.66015625,38.37890625 26.66015625,42.01171875 23.02734375,42.01171875 23.02734375,38.37890625z M15.3515625,38.37890625L18.984375,38.37890625 18.984375,42.01171875 15.3515625,42.01171875 15.3515625,38.37890625z M7.67578125,38.37890625L11.30859375,38.37890625 11.30859375,42.01171875 7.67578125,42.01171875 7.67578125,38.37890625z M0,38.37890625L3.6328125,38.37890625 3.6328125,42.01171875 0,42.01171875 0,38.37890625z M38.37890625,30.703125L42.01171875,30.703125 42.01171875,34.3359375 38.37890625,34.3359375 38.37890625,30.703125z M0,30.703125L3.6328125,30.703125 3.6328125,34.3359375 0,34.3359375 0,30.703125z M38.37890625,23.02734375L42.01171875,23.02734375 42.01171875,26.66015625 38.37890625,26.66015625 38.37890625,23.02734375z M0,23.02734375L3.6328125,23.02734375 3.6328125,26.66015625 0,26.66015625 0,23.02734375z M38.37890625,15.3515625L42.01171875,15.3515625 42.01171875,18.984375 38.37890625,18.984375 38.37890625,15.3515625z M0,15.3515625L3.6328125,15.3515625 3.6328125,18.984375 0,18.984375 0,15.3515625z M38.37890625,7.67578125L42.01171875,7.67578125 42.01171875,11.30859375 38.37890625,11.30859375 38.37890625,7.67578125z M0,7.67578125L3.6328125,7.67578125 3.6328125,11.30859375 0,11.30859375 0,7.67578125z M38.37890625,0L42.01171875,0 42.01171875,3.6328125 38.37890625,3.6328125 38.37890625,0z M30.703125,0L34.3359375,0 34.3359375,3.6328125 30.703125,3.6328125 30.703125,0z M23.02734375,0L26.66015625,0 26.66015625,3.6328125 23.02734375,3.6328125 23.02734375,0z M15.3515625,0L18.984375,0 18.984375,3.6328125 15.3515625,3.6328125 15.3515625,0z M7.67578125,0L11.30859375,0 11.30859375,3.6328125 7.67578125,3.6328125 7.67578125,0z M0,0L3.6328125,0 3.6328125,3.6328125 0,3.6328125 0,0z" />
    </g>
  </g>
</svg>