<?xml version="1.0" encoding="utf-8"?>
<!DOCTYPE svg PUBLIC "-//W3C//DTD SVG 1.1//EN" "http://www.w3.org/Graphics/SVG/1.1/DTD/svg11.dtd">
<svg width="29.8828125" height="42.01171875" xmlns="http://www.w3.org/2000/svg" xmlns:xlink="http://www.w3.org/1999/xlink" xmlns:xml="http://www.w3.org/XML/1998/namespace" version="1.1">
  <g>
    <g>
      <path style="fill:#FF0000;fill-opacity:1" d="M24.9609375,0L29.8828125,0 29.8828125,42.01171875 24.9609375,42.01171875 24.9609375,23.408203125 22.1942138671875,24.8822021484375 19.40185546875,25.93505859375 16.5838623046875,26.5667724609375 13.740234375,26.77734375 10.751953125,26.53564453125 8.0859375,25.810546875 5.7421875,24.60205078125 3.720703125,22.91015625 2.0928955078125,20.82275390625 0.93017566204071,18.427734375 0.232543885707855,15.72509765625 0,12.71484375 0.373535096645355,9.21386814117432 1.49414074420929,5.390625 6.650390625,5.390625 5.35400342941284,9.33105564117432 4.921875,12.59765625 5.52246046066284,16.5673847198486 7.32421875,19.62890625 10.29052734375,21.650390625 14.208984375,22.32421875 16.8365478515625,22.119140625 19.50439453125,21.50390625 22.2125244140625,20.478515625 24.9609375,19.04296875 24.9609375,0z" />
    </g>
  </g>
</svg>