<?xml version="1.0" encoding="utf-8"?>
<!DOCTYPE svg PUBLIC "-//W3C//DTD SVG 1.1//EN" "http://www.w3.org/Graphics/SVG/1.1/DTD/svg11.dtd">
<svg width="44.296875" height="42.71484375" xmlns="http://www.w3.org/2000/svg" xmlns:xlink="http://www.w3.org/1999/xlink" xmlns:xml="http://www.w3.org/XML/1998/namespace" version="1.1">
  <g>
    <g>
      <path style="fill:#FF0000;fill-opacity:1" d="M12.36328125,26.6015625L9.638671875,26.9677734375 7.3828125,28.06640625 5.712890625,30.02197265625 5.15625,32.548828125 5.5682373046875,35.06103515625 6.80419921875,36.85546875 8.8641357421875,37.93212890625 11.748046875,38.291015625 14.47998046875,37.81494140625 16.5234375,36.38671875 17.75390625,34.2626953125 18.1640625,31.5234375 18.1640625,26.6015625 12.36328125,26.6015625z M23.0859375,4.453125L23.0859375,13.88671875 30,13.88671875 34.10888671875,13.6450214385986 36.826171875,12.919921875 38.5400390625,11.4550800323486 39.111328125,9.169921875 38.44482421875,6.78955078125 36.4453125,5.2734375 33.8232421875,4.658203125 30,4.453125 23.0859375,4.453125z M18.1640625,0L30.64453125,0 33.8442993164063,0.143280029296875 36.617431640625,0.5731201171875 38.9639282226563,1.28952026367188 40.8837890625,2.29248046875 42.3770141601563,3.58200073242188 43.443603515625,5.1580810546875 44.0835571289063,7.02072143554688 44.296875,9.169921875 44.0899658203125,11.3191223144531 43.46923828125,13.1817626953125 42.4346923828125,14.7578430175781 40.986328125,16.04736328125 39.1241455078125,17.0503234863281 36.84814453125,17.7667236328125 34.1583251953125,18.1965637207031 31.0546875,18.33984375 23.0859375,18.33984375 23.0859375,22.1484375 39.111328125,22.1484375 39.111328125,26.6015625 23.0859375,26.6015625 23.0859375,31.5234375 22.8982524871826,34.0274047851563 22.3352031707764,36.236572265625 21.3967876434326,38.1509399414063 20.0830078125,39.7705078125 16.497802734375,41.978759765625 11.748046875,42.71484375 6.9873046875,42.07763671875 3.310546875,40.166015625 1.8621826171875,38.67919921875 0.82763671875,36.9140625 0.2069091796875,34.87060546875 0,32.548828125 0.2362060546875,30.1812744140625 0.94482421875,28.08837890625 2.1258544921875,26.2701416015625 3.779296875,24.7265625 7.62451171875,22.79296875 12.36328125,22.1484375 18.1640625,22.1484375 18.1640625,0z" />
    </g>
  </g>
</svg>