<?xml version="1.0" encoding="utf-8"?>
<!DOCTYPE svg PUBLIC "-//W3C//DTD SVG 1.1//EN" "http://www.w3.org/Graphics/SVG/1.1/DTD/svg11.dtd">
<svg width="29.8828125" height="42.01171875" xmlns="http://www.w3.org/2000/svg" xmlns:xlink="http://www.w3.org/1999/xlink" xmlns:xml="http://www.w3.org/XML/1998/namespace" version="1.1">
  <g>
    <g>
      <path style="fill:#FF0000;fill-opacity:1" d="M0,0L4.921875,0 4.921875,18.603515625 7.68859815597534,17.1295185089111 10.48095703125,16.0766620635986 13.2989501953125,15.4449472427368 16.142578125,15.234375 19.1308574676514,15.4760751724243 21.7968730926514,16.2011737823486 24.1406230926514,17.4096698760986 26.162109375,19.1015625 27.7899169921875,21.18896484375 28.95263671875,23.583984375 29.6502685546875,26.28662109375 29.8828125,29.296875 29.8828125,42.01171875 24.9609375,42.01171875 24.9609375,29.4140625 24.3603496551514,25.4443359375 22.55859375,22.3828125 19.5922832489014,20.361328125 15.673828125,19.6875 13.0462646484375,19.892578125 10.37841796875,20.5078125 7.67028760910034,21.533203125 4.921875,22.96875 4.921875,42.01171875 0,42.01171875 0,0z" />
    </g>
  </g>
</svg>