<?xml version="1.0" encoding="utf-8"?>
<!DOCTYPE svg PUBLIC "-//W3C//DTD SVG 1.1//EN" "http://www.w3.org/Graphics/SVG/1.1/DTD/svg11.dtd">
<svg width="28.916015625" height="42.01171875" xmlns="http://www.w3.org/2000/svg" xmlns:xlink="http://www.w3.org/1999/xlink" xmlns:xml="http://www.w3.org/XML/1998/namespace" version="1.1">
  <g>
    <g>
      <path style="fill:#FF0000;fill-opacity:1" d="M11.572265625,0L27.158203125,0 27.158203125,4.453125 12.099609375,4.453125 8.9593505859375,4.8779296875 6.71630859375,6.15234375 5.3704833984375,8.2763671875 4.921875,11.25 4.921875,18.92578125 8.206787109375,17.3620624542236 11.3818359375,16.2451190948486 14.447021484375,15.5749521255493 17.40234375,15.3515625 22.1777324676514,16.0400409698486 25.78125,18.10546875 27.1527099609375,19.68017578125 28.13232421875,21.5625 28.7200927734375,23.75244140625 28.916015625,26.25 28.916015625,42.01171875 23.994140625,42.01171875 23.994140625,26.484375 23.5455303192139,23.5107421875 22.1997051239014,21.38671875 19.9566631317139,20.1123046875 16.81640625,19.6875 14.095458984375,19.888916015625 11.2060546875,20.4931640625 8.148193359375,21.500244140625 4.921875,22.91015625 4.921875,42.01171875 0,42.01171875 0,10.83984375 0.19775390625,8.3441162109375 0.791015625,6.15966796875 1.77978515625,4.2864990234375 3.1640625,2.724609375 6.77490139007568,0.68115234375 11.572265625,0z" />
    </g>
  </g>
</svg>