<?xml version="1.0" encoding="utf-8"?>
<!DOCTYPE svg PUBLIC "-//W3C//DTD SVG 1.1//EN" "http://www.w3.org/Graphics/SVG/1.1/DTD/svg11.dtd">
<svg width="29.8828125" height="42.01171875" xmlns="http://www.w3.org/2000/svg" xmlns:xlink="http://www.w3.org/1999/xlink" xmlns:xml="http://www.w3.org/XML/1998/namespace" version="1.1">
  <g>
    <g>
      <path style="fill:#FF0000;fill-opacity:1" d="M0,0L4.921875,0 4.921875,19.04296875 7.67028760910034,20.478515625 10.37841796875,21.50390625 13.0462646484375,22.119140625 15.673828125,22.32421875 19.5922832489014,21.650390625 22.55859375,19.62890625 24.3603496551514,16.5673847198486 24.9609375,12.59765625 24.9609375,0 29.8828125,0 29.8828125,12.71484375 29.6502685546875,15.72509765625 28.95263671875,18.427734375 27.7899169921875,20.82275390625 26.162109375,22.91015625 24.1406230926514,24.60205078125 21.7968730926514,25.810546875 19.1308574676514,26.53564453125 16.142578125,26.77734375 13.2989501953125,26.5667724609375 10.48095703125,25.93505859375 7.68859815597534,24.8822021484375 4.921875,23.408203125 4.921875,37.55859375 27.01171875,37.55859375 27.01171875,42.01171875 0,42.01171875 0,0z" />
    </g>
  </g>
</svg>