<?xml version="1.0" encoding="utf-8"?>
<!DOCTYPE svg PUBLIC "-//W3C//DTD SVG 1.1//EN" "http://www.w3.org/Graphics/SVG/1.1/DTD/svg11.dtd">
<svg width="36.884765625" height="31.40625" xmlns="http://www.w3.org/2000/svg" xmlns:xlink="http://www.w3.org/1999/xlink" xmlns:xml="http://www.w3.org/XML/1998/namespace" version="1.1">
  <g>
    <g>
      <path style="fill:#FF0000;fill-opacity:1" d="M18.3984375,4.04296875L14.8828125,4.59961080551147 12.1875,6.26953125 10.27587890625,9.404296875 9.638671875,13.76953125 10.235595703125,17.578125 12.0263671875,21.03515625 14.827880859375,23.91357421875 18.45703125,25.986328125 22.08251953125,23.91357421875 24.873046875,21.03515625 26.6528301239014,17.578125 27.24609375,13.76953125 26.5942363739014,9.404296875 24.638671875,6.26953125 21.93603515625,4.59961080551147 18.3984375,4.04296875z M18.3984375,0L21.2438945770264,0.206910252571106 23.8037090301514,0.827638149261475 26.0778789520264,1.86218369007111 28.06640625,3.310546875 29.86083984375,5.3375244140625 31.142578125,7.75634765625 31.91162109375,10.5670166015625 32.16796875,13.76953125 31.7431640625,17.89306640625 30.46875,21.533203125 28.3447265625,24.68994140625 25.37109375,27.36328125 28.8482666015625,27.2589111328125 31.92626953125,26.88720703125 34.6051025390625,26.2481689453125 36.884765625,25.341796875 36.884765625,29.912109375 31.9482421875,31.03271484375 25.693359375,31.40625 21.95068359375,31.1865234375 18.45703125,30.52734375 14.9560546875,31.1865234375 11.19140625,31.40625 4.9365234375,31.03271484375 0,29.912109375 0,25.341796875 2.2796630859375,26.2481689453125 4.95849609375,26.88720703125 8.0364990234375,27.2589111328125 11.513671875,27.36328125 8.5400390625,24.68994140625 6.416015625,21.533203125 5.14160108566284,17.89306640625 4.71679639816284,13.76953125 4.96948194503784,10.5670166015625 5.72753858566284,7.75634765625 6.99096632003784,5.3375244140625 8.759765625,3.310546875 10.7354726791382,1.86218369007111 13.0004873275757,0.827638149261475 15.5548086166382,0.206910252571106 18.3984375,0z" />
    </g>
  </g>
</svg>