<?xml version="1.0" encoding="utf-8"?>
<!DOCTYPE svg PUBLIC "-//W3C//DTD SVG 1.1//EN" "http://www.w3.org/Graphics/SVG/1.1/DTD/svg11.dtd">
<svg width="26.8066406250001" height="45.76171875" xmlns="http://www.w3.org/2000/svg" xmlns:xlink="http://www.w3.org/1999/xlink" xmlns:xml="http://www.w3.org/XML/1998/namespace" version="1.1">
  <g>
    <g>
      <path style="fill:#FF0000;fill-opacity:1" d="M7.529296875,0L9.65331935882568,1.787109375 12.216796875,2.9296875 12.952880859375,3.1146240234375 14.1357421875,3.34716796875 15.765380859375,3.6273193359375 17.841796875,3.955078125 21.7639141082764,4.925537109375 24.5654277801514,6.4599609375 26.2463359832764,8.558349609375 26.806640625,11.220703125 26.4074687957764,13.2495126724243 25.2099609375,15 23.3386211395264,16.3476581573486 20.91796875,17.16796875 23.4942607879639,18.0011005401611 25.3344707489014,19.2700214385986 26.4385967254639,20.9747333526611 26.806640625,23.115234375 26.4385967254639,25.242919921875 25.3344707489014,26.9384765625 23.4942607879639,28.201904296875 20.91796875,29.033203125 23.2763652801514,30 25.1953125,31.787109375 26.4038066864014,33.955078125 26.806640625,36.298828125 26.5447978973389,38.5308837890625 25.7592754364014,40.48095703125 24.4500713348389,42.1490478515625 22.6171875,43.53515625 18.24462890625,45.205078125 12.626953125,45.76171875 7.91748046875,45.12451171875 3.98437476158142,43.212890625 2.24121069908142,41.6510009765625 0.996093511581421,39.83642578125 0.249023303389549,37.7691650390625 0,35.44921875 0.300292760133743,32.81982421875 1.20117163658142,30.322265625 5.68359375,31.93359375 5.06835842132568,33.5888671875 4.86328125,35.56640625 5.48583936691284,38.232421875 7.353515625,40.25390625 9.77050685882568,41.3525390625 12.685546875,41.71875 16.7742900848389,41.3507080078125 19.6948223114014,40.24658203125 21.4471416473389,38.4063720703125 22.03125,35.830078125 21.5844707489014,34.013671875 20.244140625,32.490234375 18.134765625,31.435546875 15.556640625,31.083984375 12.744140625,31.083984375 12.744140625,27.01171875 15.556640625,27.01171875 18.197021484375,26.748046875 20.2587890625,25.95703125 21.5881328582764,24.697265625 22.03125,23.02734375 21.6265850067139,21.3610858917236 20.4125957489014,20.1709003448486 18.3892803192139,19.4567890167236 15.556640625,19.21875 12.744140625,19.21875 12.744140625,15.146484375 15.556640625,15.146484375 18.3892803192139,14.9047861099243 20.4125957489014,14.1796894073486 21.6265850067139,12.9711923599243 22.03125,11.279296875 21.4086894989014,9.5654296875 19.541015625,8.408203125 18.1494140625,8.0859375 15.322265625,7.587890625 13.1726064682007,7.2125244140625 11.4404287338257,6.87744140625 10.1257314682007,6.5826416015625 9.228515625,6.328125 6.45263671875,4.921875 4.3359375,2.8125 7.529296875,0z" />
    </g>
  </g>
</svg>