<?xml version="1.0" encoding="utf-8"?>
<!DOCTYPE svg PUBLIC "-//W3C//DTD SVG 1.1//EN" "http://www.w3.org/Graphics/SVG/1.1/DTD/svg11.dtd">
<svg width="43.7109375" height="44.82421875" xmlns="http://www.w3.org/2000/svg" xmlns:xlink="http://www.w3.org/1999/xlink" xmlns:xml="http://www.w3.org/XML/1998/namespace" version="1.1">
  <g>
    <g>
      <path style="fill:#FF0000;fill-opacity:1" d="M7.529296875,0L9.46105861663818,0.245362401008606 11.1840810775757,0.981446743011475 12.6983633041382,2.20825290679932 14.00390625,3.92578125 23.232421875,18.955078125 36.9140625,8.759765625 38.86962890625,7.03857421875 39.521484375,5.7421875 39.111328125,4.79736471176147 37.880859375,4.482421875 35.5517578125,5.14160299301147 32.138671875,7.119140625 29.560546875,3.3984375 31.9482421875,1.91162216663361 34.072265625,0.849610805511475 35.9326171875,0.212403416633606 37.529296875,0 40.107421875,0.468751430511475 42.099609375,1.875 43.30810546875,3.85986471176147 43.7109375,6.298828125 43.465576171875,8.096923828125 42.7294921875,9.7998046875 41.502685546875,11.407470703125 39.78515625,12.919921875 25.8984375,23.26171875 34.951171875,38.02734375 36.51123046875,39.98291015625 37.96875,40.634765625 38.91357421875,40.224609375 39.228515625,38.994140625 38.5693359375,36.6650390625 36.591796875,33.251953125 40.3125,30.673828125 41.79931640625,33.0615234375 42.861328125,35.185546875 43.49853515625,37.0458984375 43.7109375,38.642578125 43.2421875,41.220703125 41.8359375,43.212890625 39.85107421875,44.42138671875 37.412109375,44.82421875 35.416259765625,44.578857421875 33.6474609375,43.8427734375 32.105712890625,42.615966796875 30.791015625,40.8984375 21.85546875,26.279296875 11.66015625,33.8671875 12.7807607650757,35.888671875 13.154296875,38.671875 12.6342763900757,41.143798828125 11.07421875,43.1103515625 8.7451171875,44.395751953125 5.91796922683716,44.82421875 2.6953125,44.30419921875 0,42.744140625 1.96289038658142,38.701171875 3.83056640625,40.26123046875 5.91796922683716,40.78125 6.90673828125,40.5908203125 7.763671875,40.01953125 8.35693359375,39.1845703125 8.5546875,38.203125 8.3148193359375,36.6851806640625 7.59521484375,35.26611328125 6.3958740234375,33.9459228515625 4.71679639816284,32.724609375 19.21875,21.943359375 9.931640625,6.767578125 8.40087890625,4.83398580551147 6.97265625,4.189453125 6.02783155441284,4.59961080551147 5.71289110183716,5.830078125 6.37206983566284,8.1591796875 8.349609375,11.572265625 4.62890577316284,14.150390625 3.14208960533142,11.7626953125 2.080078125,9.638671875 1.44287109375,7.7783203125 1.23046875,6.181640625 1.69921875,3.60351705551147 3.10546875,1.611328125 5.09033203125,0.402833461761475 7.529296875,0z" />
    </g>
  </g>
</svg>