<?xml version="1.0" encoding="utf-8"?>
<!DOCTYPE svg PUBLIC "-//W3C//DTD SVG 1.1//EN" "http://www.w3.org/Graphics/SVG/1.1/DTD/svg11.dtd">
<svg width="46.7285156250002" height="45.99609375" xmlns="http://www.w3.org/2000/svg" xmlns:xlink="http://www.w3.org/1999/xlink" xmlns:xml="http://www.w3.org/XML/1998/namespace" version="1.1">
  <g>
    <g>
      <path style="fill:#FF0000;fill-opacity:1" d="M21.38671875,35.478515625L22.55859375,35.478515625 24.990234375,45.76171875 24.814453125,45.99609375 19.1015625,45.99609375 18.92578125,45.76171875 21.38671875,35.478515625z M10.283203125,25.13671875L8.349609375,25.3271484375 6.357421875,25.9716796875 4.7900390625,27.1728515625 4.16015625,29.00390625 4.7900390625,30.849609375 6.357421875,32.0361328125 8.349609375,32.6806640625 10.283203125,32.87109375 12.890625,32.578125 15.17578125,31.7724609375 17.2705078125,30.556640625 19.306640625,29.00390625 17.2705078125,27.48046875 15.17578125,26.25 12.890625,25.4296875 10.283203125,25.13671875z M7.67578125,4.5703125L6.181640625,5.2294921875 4.9365234375,6.240234375 4.0869140625,7.5732421875 3.77929639816284,9.19921875 4.1015625,10.78125 4.951171875,11.982421875 6.181640625,12.744140625 7.67578125,13.0078125 9.169921875,12.744140625 10.400390625,11.982421875 11.25,10.78125 11.572265625,9.19921875 11.2646484375,7.5732421875 10.4150390625,6.240234375 9.169921875,5.2294921875 7.67578125,4.5703125z M11.572265625,0L14.769287109375,0.333251953125 17.7978515625,1.3330078125 20.5590801239014,2.926025390625 22.9541015625,5.0390625 24.9353008270264,7.64282369613647 26.455078125,10.7080078125 27.4218730926514,14.154052734375 27.744140625,17.900390625 27.5244121551514,20.797119140625 26.865234375,23.5107421875 24.462890625,28.505859375 26.5283203125,30.05859375 28.7841796875,31.4208984375 31.318359375,32.373046875 34.248046875,32.724609375 36.046142578125,32.52685546875 37.6904296875,31.93359375 40.3857421875,29.6923828125 42.1435546875,26.162109375 42.7734375,21.50390625 42.535400390625,18.45703125 41.8212890625,15.52734375 40.675048828125,12.784423828125 39.140625,10.2978515625 34.951171875,6.2109375 32.35107421875,4.70947408676147 29.47265625,3.662109375 30,0 34.2041015625,1.3916015625 38.1298828125,3.837890625 41.5576171875,7.236328125 44.2822265625,11.4697265625 46.083984375,16.40625 46.728515625,21.943359375 46.4538536071777,25.499267578125 45.6298828125,28.5498046875 44.3591270446777,31.109619140625 42.744140625,33.193359375 40.84716796875,34.8046875 38.73046875,35.947265625 36.49658203125,36.62841796875 34.248046875,36.85546875 30.5419921875,36.4013671875 27.3193359375,35.2001953125 24.4921875,33.515625 21.97265625,31.611328125 19.541015625,33.7060546875 16.8017578125,35.361328125 13.7255859375,36.4599609375 10.283203125,36.85546875 6.4013671875,36.3427734375 3.1201171875,34.833984375 0.849609375,32.373046875 0.212402164936066,30.79833984375 0,29.00390625 0.197753727436066,27.3046875 0.791015625,25.78125 2.9296875,23.3349609375 6.0791015625,21.796875 9.931640625,21.26953125 13.6669921875,21.6796875 16.69921875,22.7490234375 19.2626953125,24.2724609375 21.591796875,26.044921875 23.232421875,22.08984375 23.818359375,17.724609375 23.5803203582764,14.74365234375 22.8662109375,12.01171875 20.3173828125,7.529296875 18.599853515625,5.85937643051147 16.640625,4.599609375 14.50927734375,3.80859375 12.275390625,3.544921875 13.7255859375,4.892578125 14.6923828125,6.38671875 15.2197265625,7.91015625 15.380859375,9.345703125 15.1904296875,11.2133808135986 14.619140625,12.7734375 12.71484375,15.05859375 10.2099609375,16.34765625 7.6171875,16.7578125 4.423828125,16.1865234375 2.0361328125,14.6337890625 0.527343273162842,12.3193359375 0,9.462890625 0.249023258686066,7.23999166488647 0.99609375,5.3173828125 3.61816453933716,2.3583984375 7.32421875,0.5859375 11.572265625,0z" />
    </g>
  </g>
</svg>