<?xml version="1.0" encoding="utf-8"?>
<!DOCTYPE svg PUBLIC "-//W3C//DTD SVG 1.1//EN" "http://www.w3.org/Graphics/SVG/1.1/DTD/svg11.dtd">
<svg width="41.7187500000007" height="48.10546875" xmlns="http://www.w3.org/2000/svg" xmlns:xlink="http://www.w3.org/1999/xlink" xmlns:xml="http://www.w3.org/XML/1998/namespace" version="1.1">
  <g>
    <g>
      <path style="fill:#FF0000;fill-opacity:1" d="M11.54296875,0L14.677734375,2.63671875 12.8173828125,5.15625 12.099609375,8.5546875 12.2900390625,10.1953125 12.744140625,11.484375 15.6884765625,12.5244140625 17.98828125,14.3115234375 19.482421875,16.728515625 20.009765625,19.62890625 19.3212890625,23.5400390625 17.51953125,26.4404296875 14.970703125,28.6083984375 12.0556640625,30.3369140625 9.140625,31.9189453125 6.591796875,33.6474609375 4.7900390625,35.8154296875 4.1015625,38.73046875 4.5703125,40.7958984375 5.888671875,42.451171875 7.9248046875,43.564453125 10.546875,43.974609375 13.7255859375,43.5205078125 16.1865234375,42.3486328125 18.017578125,40.7080078125 19.3359375,38.84765625 20.2587890625,37.0458984375 20.888671875,35.537109375 22.060546875,35.537109375 23.0712890625,37.8955078125 24.755859375,40.6787109375 27.421875,43.0078125 29.2236328125,43.73291015625 31.40625,43.974609375 34.1748046875,43.41796875 36.240234375,41.9384765625 37.529296875,39.7998046875 37.96875,37.265625 37.412109375,34.3212890625 36.005859375,31.81640625 38.73046875,29.677734375 39.5068359375,30.615234375 40.5029296875,32.2265625 41.3525390625,34.4677734375 41.71875,37.265625 40.986328125,41.3671875 38.9208984375,44.82421875 35.68359375,47.2119140625 33.662109375,47.882080078125 31.40625,48.10546875 28.06640625,47.578125 25.283203125,46.201171875 23.0712890625,44.267578125 21.474609375,42.0703125 19.9072265625,44.033203125 17.6513671875,45.99609375 14.501953125,47.5048828125 10.283203125,48.10546875 7.979736328125,47.911376953125 5.9326171875,47.3291015625 2.69531273841858,45.2783203125 0.688476324081421,42.333984375 0,38.90625 0.688476324081421,34.921875 2.50488209724426,31.9189453125 5.0830078125,29.6484375 8.02734375,27.861328125 10.9716796875,26.279296875 13.5498046875,24.6533203125 15.3662109375,22.705078125 16.0546875,20.15625 15.703125,18.1787109375 14.677734375,16.552734375 12.978515625,15.439453125 10.60546875,15.029296875 7.91015625,15.46875 5.9326171875,16.669921875 4.5556640625,18.515625 3.69140553474426,20.859375 0.146483898162842,19.921875 1.31835865974426,16.6552734375 3.29589819908142,14.0771484375 5.9033203125,12.2900390625 8.994140625,11.3671875 8.37890625,9.38232421875 8.173828125,7.353515625 8.4814453125,4.8779296875 9.2724609375,2.841796875 10.3564453125,1.23046875 11.54296875,0z" />
    </g>
  </g>
</svg>