<?xml version="1.0" encoding="utf-8"?>
<!DOCTYPE svg PUBLIC "-//W3C//DTD SVG 1.1//EN" "http://www.w3.org/Graphics/SVG/1.1/DTD/svg11.dtd">
<svg width="50.9765625000002" height="35.68359375" xmlns="http://www.w3.org/2000/svg" xmlns:xlink="http://www.w3.org/1999/xlink" xmlns:xml="http://www.w3.org/XML/1998/namespace" version="1.1">
  <g>
    <g>
      <path style="fill:#FF0000;fill-opacity:1" d="M14.4140625,3.57421875L13.1982421875,3.662109375 11.923828125,3.984375 11.2207021713257,5.77148580551147 10.986328125,7.5 11.3232421875,9.287109375 12.216796875,10.6494140625 13.505859375,11.5283203125 15.029296875,11.8359375 16.611328125,11.513671875 17.9296875,10.634765625 18.8232421875,9.31640625 19.16015625,7.67578125 18.80859375,6.0205078125 17.8125,4.7314453125 16.3037109375,3.8818359375 14.4140625,3.57421875z M14.794921875,0L18.45703125,0.703125 21.03515625,2.5341796875 22.5732421875,5.09765625 23.0859375,7.96875 22.5146484375,10.7373046875 20.888671875,13.18359375 18.3544921875,14.9267578125 15.087890625,15.5859375 11.982421875,15.0146484375 9.55078125,13.447265625 7.9541015625,11.162109375 7.3828125,8.408203125 7.44140625,7.55859375 7.55859375,6.73828125 5.91064453125,8.63159370422363 4.716796875,10.7958984375 3.99169874191284,13.333740234375 3.75,16.34765625 3.99169874191284,19.25537109375 4.716796875,21.767578125 7.32421875,25.78125 11.1328125,28.59375 15.7177734375,30.3662109375 20.654296875,31.2890625 25.48828125,31.552734375 30.3076171875,31.2890625 35.21484375,30.3662109375 39.755859375,28.59375 43.505859375,25.78125 46.0693359375,21.7529296875 46.7834434509277,19.237060546875 47.021484375,16.34765625 46.8090782165527,13.4326171875 46.171875,10.8984375 45.2014122009277,8.74511909484863 43.9892578125,6.97265625 42.5830078125,5.58838033676147 41.0302734375,4.599609375 39.429931640625,4.00634908676147 37.880859375,3.80859375 35.56640625,4.16015625 33.75,5.2001953125 32.5634765625,6.85546875 32.138671875,9.052734375 32.691650390625,12.059326171875 34.3505859375,14.6923828125 37.196044921875,16.951904296875 41.30859375,18.837890625 41.30859375,22.1484375 9.169921875,22.1484375 9.169921875,18.603515625 33.837890625,18.603515625 31.358642578125,16.669921875 29.6044921875,14.443359375 28.560791015625,11.865234375 28.212890625,8.876953125 28.8720703125,5.6103515625 30.791015625,2.7685546875 33.837890625,0.76171875 35.7421875,0.1904296875 37.880859375,0 41.0009765625,0.52734375 44.033203125,2.0361328125 46.7578125,4.453125 48.955078125,7.705078125 50.4345703125,11.7041015625 50.9765625,16.34765625 50.6652793884277,20.126953125 49.7314453125,23.37890625 48.2812461853027,26.158447265625 46.4208984375,28.5205078125 44.205322265625,30.4833984375 41.689453125,32.0654296875 36.1962890625,34.2626953125 30.5859375,35.3759765625 25.48828125,35.68359375 20.390625,35.4052734375 14.7802734375,34.3798828125 9.287109375,32.314453125 6.771240234375,30.79833984375 4.5556640625,28.88671875 2.69531202316284,26.553955078125 1.2451171875,23.7744140625 0.311279118061066,20.496826171875 0,16.669921875 0.5419921875,12.3046875 2.0654296875,8.349609375 4.423828125,4.9658203125 7.44140625,2.3291015625 10.9423828125,0.615234375 14.794921875,0z" />
    </g>
  </g>
</svg>