<?xml version="1.0" encoding="utf-8"?>
<!DOCTYPE svg PUBLIC "-//W3C//DTD SVG 1.1//EN" "http://www.w3.org/Graphics/SVG/1.1/DTD/svg11.dtd">
<svg width="43.9746093750029" height="39.638671875" xmlns="http://www.w3.org/2000/svg" xmlns:xlink="http://www.w3.org/1999/xlink" xmlns:xml="http://www.w3.org/XML/1998/namespace" version="1.1">
  <g>
    <g>
      <path style="fill:#FF0000;fill-opacity:1" d="M20.888671875,22.79296875L16.7578125,23.056640625 13.0810546875,23.9208984375 10.458984375,25.5029296875 9.71191310882568,26.597900390625 9.462890625,27.919921875 9.71191310882568,29.219970703125 10.458984375,30.3076171875 13.0810546875,31.8896484375 16.7578125,32.75390625 20.888671875,33.017578125 24.5690898895264,32.6806640625 27.8759765625,31.669921875 30.860595703125,30.05859375 33.57421875,27.919921875 30.860595703125,25.7958984375 27.8759765625,24.169921875 24.5690898895264,23.13720703125 20.888671875,22.79296875z M10.6640625,0L14.853515625,0.6884765625 17.9296875,2.3876953125 20.09765625,4.5263671875 21.5625,6.50390625 23.02734375,4.5263671875 25.1953125,2.3876953125 28.271484375,0.6884765625 32.4609375,0 34.5849609375,0.21240234375 36.6796875,0.849609375 38.642578125,1.92626953125 40.37109375,3.45703125 41.82861328125,5.44189596176147 42.978515625,7.880859375 43.7255859375,10.7885761260986 43.974609375,14.1796875 43.6083984375,17.8271484375 42.568359375,21.416015625 40.927734375,24.8291015625 38.73046875,27.978515625 41.7919921875,33.134765625 43.76953125,38.37890625 40.1953125,39.638671875 38.525390625,34.892578125 36.123046875,30.673828125 33.0322265625,33.0908203125 29.443359375,35.0537109375 25.078125,36.3720703125 19.6875,36.85546875 13.6962890625,36.181640625 11.2536611557007,35.3759765625 9.228515625,34.306640625 7.62451171875,32.999267578125 6.4453125,31.4794921875 5.72021484375,29.776611328125 5.478515625,27.919921875 5.7421875,25.968017578125 6.533203125,24.2138671875 7.818603515625,22.68310546875 9.5654296875,21.4013671875 11.7626953125,20.379638671875 14.3994140625,19.62890625 17.449951171875,19.16748046875 20.888671875,19.013671875 25.546875,19.482421875 29.58984375,20.771484375 33.0908203125,22.67578125 36.123046875,25.01953125 37.767333984375,22.554931640625 39.0087890625,19.9072265625 39.788818359375,17.164306640625 40.048828125,14.4140625 39.5361328125,10.13671875 38.0419921875,6.8994140625 35.654296875,4.8486328125 32.4609375,4.130859375 30.19775390625,4.36889791488647 28.271484375,5.0830078125 25.283203125,7.3828125 23.291015625,10.1513671875 22.1484375,12.5390625 20.9765625,12.5390625 20.2880859375,11.044921875 19.2626953125,9.228515625 17.841796875,7.3828125 15.966796875,5.7568359375 13.59375,4.5849609375 10.6640625,4.130859375 7.8369140625,4.6435546875 5.654296875,6.1083984375 4.2626953125,8.4375 3.779296875,11.513671875 3.8818359375,12.8173828125 4.13085985183716,14.150390625 0.556640625,14.8828125 0.336914300918579,14.033203125 0.1611328125,13.0078125 0.0439453125,11.9677734375 0,11.044921875 0.219726383686066,8.59863471984863 0.87890625,6.416015625 3.22265625,2.9296875 6.62109375,0.7470703125 10.6640625,0z" />
    </g>
  </g>
</svg>