<?xml version="1.0" encoding="utf-8"?>
<!DOCTYPE svg PUBLIC "-//W3C//DTD SVG 1.1//EN" "http://www.w3.org/Graphics/SVG/1.1/DTD/svg11.dtd">
<svg width="44.296875" height="36.591796875" xmlns="http://www.w3.org/2000/svg" xmlns:xlink="http://www.w3.org/1999/xlink" xmlns:xml="http://www.w3.org/XML/1998/namespace" version="1.1">
  <g>
    <g>
      <path style="fill:#FF0000;fill-opacity:1" d="M24.19921875,3.75L22.177734375,4.4091796875 20.625,5.5517578125 19.62890625,7.001953125 19.27734375,8.583984375 19.6435546875,10.25390625 20.595703125,11.513671875 21.9140625,12.3193359375 23.37890625,12.59765625 25.4296875,12.041015625 26.865234375,10.60546875 27.392578125,8.61328125 27.1838359832764,7.30224752426147 26.5576171875,6.005859375 24.19921875,3.75z M26.279296875,0L30.7177734375,0.64453125 34.9365234375,2.4755859375 38.6572265625,5.33203125 41.6162109375,9.0380859375 43.5791015625,13.4326171875 44.296875,18.369140625 44.08447265625,21.51123046875 43.447265625,24.31640625 41.1474609375,28.974609375 37.8076171875,32.4462890625 33.837890625,34.8193359375 29.619140625,36.1669921875 25.576171875,36.591796875 0,36.591796875 0,32.4609375 25.60546875,32.4609375 28.4326171875,32.2119140625 31.6259765625,31.3623046875 34.8046875,29.70703125 37.5732421875,27.041015625 39.521484375,23.1884765625 40.25390625,17.958984375 40.0341796875,15.472412109375 39.375,13.1103515625 37.001953125,8.96484375 33.544921875,5.8154296875 29.384765625,3.92578125 30.8056640625,6.26953125 31.2890625,8.73046875 30.703125,11.455078125 29.0625,13.9453125 26.513671875,15.76171875 23.203125,16.46484375 20.0830078125,15.8349609375 17.6220703125,14.1357421875 16.0107421875,11.630859375 15.439453125,8.61328125 15.684814453125,6.67236471176147 16.4208984375,4.951171875 18.955078125,2.2412109375 22.44140625,0.5712890625 26.279296875,0z" />
    </g>
  </g>
</svg>