<?xml version="1.0" encoding="utf-8"?>
<!DOCTYPE svg PUBLIC "-//W3C//DTD SVG 1.1//EN" "http://www.w3.org/Graphics/SVG/1.1/DTD/svg11.dtd">
<svg width="82.0019531250001" height="61.34765625" xmlns="http://www.w3.org/2000/svg" xmlns:xlink="http://www.w3.org/1999/xlink" xmlns:xml="http://www.w3.org/XML/1998/namespace" version="1.1">
  <g>
    <g>
      <path style="fill:#FF0000;fill-opacity:1" d="M57.36328125,50.830078125L58.53515625,50.830078125 60.966796875,61.11328125 60.791015625,61.34765625 55.078125,61.34765625 54.90234375,61.11328125 57.36328125,50.830078125z M18.486328125,18.779296875L15.538330078125,19.068603515625 12.7880859375,19.9365234375 10.3088369369507,21.3024921417236 8.173828125,23.0859375 6.419677734375,25.2502460479736 5.08300685882568,27.7587890625 4.23706007003784,30.531005859375 3.955078125,33.486328125 4.23706007003784,36.434326171875 5.08300685882568,39.1845703125 6.419677734375,41.66748046875 8.173828125,43.8134765625 10.3088369369507,45.582275390625 12.7880859375,46.93359375 15.538330078125,47.79052734375 18.486328125,48.076171875 21.4343242645264,47.79052734375 24.1845703125,46.93359375 26.6638164520264,45.582275390625 28.798828125,43.8134765625 30.552978515625,41.66748046875 31.8896484375,39.1845703125 32.735595703125,36.434326171875 33.017578125,33.486328125 32.735595703125,30.531005859375 31.8896484375,27.7587890625 30.552978515625,25.2502460479736 28.798828125,23.0859375 26.6638164520264,21.3024921417236 24.1845703125,19.9365234375 21.4343242645264,19.068603515625 18.486328125,18.779296875z M30.8203125,0L33.955078125,2.78320264816284 33.955078125,3.07617235183716 21.7150058746338,16.0038871765137 25.6640625,16.8017578125 28.817138671875,18.515625 31.5380859375,20.7568359375 33.782958984375,23.4741230010986 35.5078125,26.6162109375 36.6064453125,30.084228515625 36.97265625,33.779296875 36.9140625,35.2294921875 36.73828125,36.62109375 38.02734375,41.3525390625 40.1220703125,44.970703125 43.0517578125,47.2705078125 44.8571739196777,47.874755859375 46.904296875,48.076171875 48.7023887634277,47.87841796875 50.3466796875,47.28515625 53.0419921875,45.0439453125 54.7998046875,41.513671875 55.4296875,36.85546875 55.1916465759277,33.80859375 54.4775390625,30.87890625 53.3312950134277,28.135986328125 51.796875,25.6494140625 47.607421875,21.5625 45.0073204040527,20.0610370635986 42.12890625,19.013671875 42.65625,15.3515634536743 46.7724609375,16.7138671875 50.6396484375,19.0869140625 54.0380859375,22.3828125 56.7626953125,26.4990234375 58.6083984375,31.3037109375 59.35546875,36.6796875 60.64453125,41.396484375 62.75390625,44.9853515625 65.6982421875,47.2705078125 67.496337890625,47.874755859375 69.521484375,48.076171875 71.319580078125,47.87841796875 72.9638671875,47.28515625 75.6591796875,45.0439453125 77.4169921875,41.513671875 78.046875,36.85546875 77.808837890625,33.80859375 77.0947265625,30.87890625 75.948486328125,28.135986328125 74.4140625,25.6494140625 70.224609375,21.5625 67.62451171875,20.0610370635986 64.74609375,19.013671875 65.2734375,15.3515634536743 69.4775390625,16.7431640625 73.4033203125,19.189453125 76.8310546875,22.587890625 79.5556640625,26.8212890625 81.357421875,31.7578125 82.001953125,37.294921875 81.727294921875,40.850830078125 80.9033203125,43.9013671875 79.632568359375,46.461181640625 78.017578125,48.544921875 76.12060546875,50.15625 74.00390625,51.298828125 71.77001953125,51.97998046875 69.521484375,52.20703125 65.0244140625,51.50390625 61.7138671875,49.716796875 59.3994140625,47.2998046875 57.919921875,44.736328125 55.8544921875,48.046875 53.1884765625,50.3759765625 50.126953125,51.7529296875 46.904296875,52.20703125 43.18359375,51.73828125 40.25390625,50.5078125 38.02734375,48.75 36.416015625,46.728515625 35.2880859375,44.6923828125 34.5703125,42.861328125 31.669921875,46.6845703125 27.9052734375,49.62890625 23.4521484375,51.533203125 18.486328125,52.20703125 14.78759765625,51.844482421875 11.3085947036743,50.7568359375 8.155517578125,49.04296875 5.4345703125,46.8017578125 3.18969702720642,44.08447265625 1.46484422683716,40.9423828125 0.366210907697678,37.474365234375 0,33.779296875 0.366210907697678,30.084228515625 1.46484422683716,26.6162109375 3.18969702720642,23.4741230010986 5.4345703125,20.7568359375 8.155517578125,18.515625 11.3085947036743,16.8017578125 15.1940612792969,16.0167350769043 8.14453125,8.73046875 8.14453125,8.4375 11.2792978286743,5.65429735183716 18.486328125,14.53125 30.8203125,0z" />
    </g>
  </g>
</svg>