<?xml version="1.0" encoding="utf-8"?>
<!DOCTYPE svg PUBLIC "-//W3C//DTD SVG 1.1//EN" "http://www.w3.org/Graphics/SVG/1.1/DTD/svg11.dtd">
<svg width="32.197265625" height="35.44921875" xmlns="http://www.w3.org/2000/svg" xmlns:xlink="http://www.w3.org/1999/xlink" xmlns:xml="http://www.w3.org/XML/1998/namespace" version="1.1">
  <g>
    <g>
      <path style="fill:#FF0000;fill-opacity:1" d="M0,0L3.80859375,0 3.80859375,11.923828125 4.2626953125,14.0771484375 5.4638671875,15.673828125 7.119140625,16.6552734375 8.96484375,16.9921875 10.7958984375,16.6845703125 12.4658203125,15.8056640625 13.6669921875,14.443359375 14.12109375,12.65625 14.12109375,0 17.9296875,0 17.9296875,11.923828125 18.3984375,14.1064453125 19.6142578125,15.703125 21.26953125,16.669921875 23.0859375,16.9921875 24.8876953125,16.69921875 26.513671875,15.8642578125 27.71484375,14.560546875 28.2421875,12.861328125 28.2421875,0 32.197265625,0 32.197265625,35.44921875 28.2421875,35.44921875 28.2421875,19.39453125 25.869140625,20.5224609375 23.0859375,20.91796875 20.9216289520264,20.694580078125 18.9990234375,20.0244140625 16.025390625,17.607421875 13.037109375,20.0244140625 11.12548828125,20.694580078125 8.96484375,20.91796875 5.302734375,20.2001953125 2.4755859375,18.251953125 0.64453125,15.3955078125 0,11.923828125 0,0z" />
    </g>
  </g>
</svg>