<?xml version="1.0" encoding="utf-8"?>
<!DOCTYPE svg PUBLIC "-//W3C//DTD SVG 1.1//EN" "http://www.w3.org/Graphics/SVG/1.1/DTD/svg11.dtd">
<svg width="64.248046875" height="52.001953125" xmlns="http://www.w3.org/2000/svg" xmlns:xlink="http://www.w3.org/1999/xlink" xmlns:xml="http://www.w3.org/XML/1998/namespace" version="1.1">
  <g>
    <g>
      <path style="fill:#FF0000;fill-opacity:1" d="M9.521484375,37.060546875L7.177734375,37.5439453125 5.478515625,38.8037109375 4.45312452316284,40.5322265625 4.10156297683716,42.392578125 4.45312452316284,44.3408203125 5.478515625,46.0986328125 7.177734375,47.373046875 9.521484375,47.87109375 11.748046875,47.28515625 13.5205078125,45.849609375 14.8388671875,44.0625 15.673828125,42.392578125 14.8388671875,40.7080078125 13.53515625,38.96484375 11.7626953125,37.6025390625 9.521484375,37.060546875z M31.171875,0L34.306640625,2.78320336341858 34.306640625,3.07617211341858 22.3730945587158,15.6909627914429 24.6826171875,15.99609375 30.2783203125,18.33984375 34.892578125,21.8701171875 38.408203125,26.279296875 40.693359375,31.2451171875 41.6015625,36.474609375 42.890625,41.19140625 45,44.7802734375 47.9443359375,47.0654296875 49.7424278259277,47.669677734375 51.767578125,47.87109375 53.5656700134277,47.67333984375 55.2099609375,47.080078125 57.9052734375,44.8388671875 59.6630859375,41.30859375 60.29296875,36.650390625 60.0549278259277,33.603515625 59.3408203125,30.673828125 58.1945762634277,27.930908203125 56.66015625,25.4443359375 52.470703125,21.357421875 49.8706016540527,19.8559589385986 46.9921875,18.80859375 47.51953125,15.146484375 51.7236328125,16.5380859375 55.6494140625,18.984375 59.0771484375,22.3828125 61.8017578125,26.6162109375 63.603515625,31.552734375 64.248046875,37.08984375 63.973388671875,40.645751953125 63.1494140625,43.6962890625 61.878662109375,46.256103515625 60.263671875,48.33984375 58.3666954040527,49.951171875 56.25,51.09375 54.0161094665527,51.77490234375 51.767578125,52.001953125 47.2412109375,51.298828125 43.9453125,49.4970703125 41.6455078125,47.080078125 40.166015625,44.53125 38.0712890625,47.841796875 35.361328125,50.1708984375 32.2998046875,51.5478515625 29.150390625,52.001953125 25.693359375,51.4599609375 22.7197265625,50.009765625 20.244140625,47.9296875 18.251953125,45.498046875 16.0546875,48.75 14.82421875,49.951171875 13.330078125,50.9912109375 11.5576171875,51.7236328125 9.521484375,52.001953125 5.7568359375,51.298828125 2.73925828933716,49.3212890625 0.732421875,46.2890625 0,42.392578125 0.732421875,38.7451171875 2.724609375,35.7568359375 5.68359375,33.7353515625 9.31640625,32.98828125 12.802734375,33.6328125 15.46875,35.3173828125 17.5634765625,37.6904296875 19.365234375,40.4296875 21.15234375,43.1689453125 23.203125,45.5419921875 25.78125,47.2265625 29.150390625,47.87109375 30.948486328125,47.67333984375 32.5927734375,47.080078125 35.2880859375,44.8388671875 37.0458984375,41.30859375 37.67578125,36.650390625 36.97265625,31.9921875 34.9951171875,27.7587890625 31.93359375,24.1259765625 27.9931640625,21.298828125 23.3642578125,19.4677734375 18.251953125,18.80859375 8.49609375,8.73046875 8.49609375,8.4375 11.630859375,5.65429735183716 18.837890625,14.53125 31.171875,0z" />
    </g>
  </g>
</svg>