<?xml version="1.0" encoding="utf-8"?>
<!DOCTYPE svg PUBLIC "-//W3C//DTD SVG 1.1//EN" "http://www.w3.org/Graphics/SVG/1.1/DTD/svg11.dtd">
<svg width="82.0019531250001" height="52.001953125" xmlns="http://www.w3.org/2000/svg" xmlns:xlink="http://www.w3.org/1999/xlink" xmlns:xml="http://www.w3.org/XML/1998/namespace" version="1.1">
  <g>
    <g>
      <path style="fill:#FF0000;fill-opacity:1" d="M18.486328125,18.57421875L15.538330078125,18.863525390625 12.7880859375,19.7314453125 10.3088369369507,21.0974140167236 8.173828125,22.880859375 6.419677734375,25.0451679229736 5.08300685882568,27.5537109375 4.23706007003784,30.325927734375 3.955078125,33.28125 4.23706007003784,36.229248046875 5.08300685882568,38.9794921875 6.419677734375,41.46240234375 8.173828125,43.6083984375 10.3088369369507,45.377197265625 12.7880859375,46.728515625 15.538330078125,47.58544921875 18.486328125,47.87109375 21.4343242645264,47.58544921875 24.1845703125,46.728515625 26.6638164520264,45.377197265625 28.798828125,43.6083984375 30.552978515625,41.46240234375 31.8896484375,38.9794921875 32.735595703125,36.229248046875 33.017578125,33.28125 32.735595703125,30.325927734375 31.8896484375,27.5537109375 30.552978515625,25.0451679229736 28.798828125,22.880859375 26.6638164520264,21.0974140167236 24.1845703125,19.7314453125 21.4343242645264,18.863525390625 18.486328125,18.57421875z M55.048828125,0L58.18359375,2.78320407867432 58.18359375,3.07617259025574 45.7854194641113,16.1821155548096 46.7724609375,16.5087890625 50.6396484375,18.8818359375 54.0380859375,22.177734375 56.7626953125,26.2939453125 58.6083984375,31.0986328125 59.35546875,36.474609375 60.64453125,41.19140625 62.75390625,44.7802734375 65.6982421875,47.0654296875 67.496337890625,47.669677734375 69.521484375,47.87109375 71.319580078125,47.67333984375 72.9638671875,47.080078125 75.6591796875,44.8388671875 77.4169921875,41.30859375 78.046875,36.650390625 77.808837890625,33.603515625 77.0947265625,30.673828125 75.948486328125,27.930908203125 74.4140625,25.4443359375 70.224609375,21.357421875 67.62451171875,19.8559589385986 64.74609375,18.80859375 65.2734375,15.146484375 69.4775390625,16.5380859375 73.4033203125,18.984375 76.8310546875,22.3828125 79.5556640625,26.6162109375 81.357421875,31.552734375 82.001953125,37.08984375 81.727294921875,40.645751953125 80.9033203125,43.6962890625 79.632568359375,46.256103515625 78.017578125,48.33984375 76.12060546875,49.951171875 74.00390625,51.09375 71.77001953125,51.77490234375 69.521484375,52.001953125 65.0244140625,51.298828125 61.7138671875,49.51171875 59.3994140625,47.0947265625 57.919921875,44.53125 55.8544921875,47.841796875 53.1884765625,50.1708984375 50.126953125,51.5478515625 46.904296875,52.001953125 43.18359375,51.533203125 40.25390625,50.302734375 38.02734375,48.544921875 36.416015625,46.5234375 35.2880859375,44.4873046875 34.5703125,42.65625 31.669921875,46.4794921875 27.9052734375,49.423828125 23.4521484375,51.328125 18.486328125,52.001953125 14.78759765625,51.639404296875 11.3085947036743,50.5517578125 8.155517578125,48.837890625 5.4345703125,46.5966796875 3.18969702720642,43.87939453125 1.46484422683716,40.7373046875 0.366210907697678,37.269287109375 0,33.57421875 0.366210907697678,29.879150390625 1.46484422683716,26.4111328125 3.18969702720642,23.2690448760986 5.4345703125,20.5517578125 8.155517578125,18.310546875 11.3085947036743,16.5966796875 14.78759765625,15.509033203125 18.486328125,15.146484375 22.1850566864014,15.509033203125 25.6640625,16.5966796875 28.817138671875,18.310546875 31.5380859375,20.5517578125 33.782958984375,23.2690448760986 35.5078125,26.4111328125 36.6064453125,29.879150390625 36.97265625,33.57421875 36.9140625,35.0244140625 36.73828125,36.416015625 38.02734375,41.1474609375 40.1220703125,44.765625 43.0517578125,47.0654296875 44.8571739196777,47.669677734375 46.904296875,47.87109375 48.7023887634277,47.67333984375 50.3466796875,47.080078125 53.0419921875,44.8388671875 54.7998046875,41.30859375 55.4296875,36.650390625 55.1916465759277,33.603515625 54.4775390625,30.673828125 53.3312950134277,27.930908203125 51.796875,25.4443359375 47.607421875,21.357421875 45.0073204040527,19.8559589385986 42.12890625,18.80859375 32.373046875,8.73046970367432 32.373046875,8.43749904632568 35.5078125,5.65429735183716 42.71484375,14.5312490463257 55.048828125,0z" />
    </g>
  </g>
</svg>