<?xml version="1.0" encoding="utf-8"?>
<!DOCTYPE svg PUBLIC "-//W3C//DTD SVG 1.1//EN" "http://www.w3.org/Graphics/SVG/1.1/DTD/svg11.dtd">
<svg width="43.8867187500002" height="61.259765625" xmlns="http://www.w3.org/2000/svg" xmlns:xlink="http://www.w3.org/1999/xlink" xmlns:xml="http://www.w3.org/XML/1998/namespace" version="1.1">
  <g>
    <g>
      <path style="fill:#FF0000;fill-opacity:1" d="M20.888671875,50.7421875L22.060546875,50.7421875 24.4921875,61.025390625 24.31640625,61.259765625 18.603515625,61.259765625 18.427734375,61.025390625 20.888671875,50.7421875z M39.55078125,0L42.685546875,2.783203125 42.685546875,3.07617235183716 30.2028388977051,16.2714767456055 31.3623046875,16.6552734375 35.2880859375,19.1015625 38.73046875,22.5 41.455078125,26.7333984375 43.2421875,31.669921875 43.88671875,37.20703125 43.612060546875,40.762939453125 42.7880859375,43.8134765625 41.517333984375,46.373291015625 39.90234375,48.45703125 38.00537109375,50.068359375 35.888671875,51.2109375 33.65478515625,51.89208984375 31.40625,52.119140625 28.06640625,51.591796875 25.283203125,50.21484375 23.0712890625,48.28125 21.474609375,46.083984375 19.9072265625,48.046875 17.6513671875,50.009765625 14.501953125,51.5185546875 10.283203125,52.119140625 7.979736328125,51.925048828125 5.9326171875,51.3427734375 2.69531297683716,49.2919921875 0.688476085662842,46.34765625 0,42.919921875 0.688476085662842,38.935546875 2.50488328933716,35.9326171875 5.0830078125,33.662109375 8.02734375,31.875 10.9716796875,30.29296875 13.5498046875,28.6669921875 15.3662109375,26.71875 16.0546875,24.169921875 15.703125,22.1923828125 14.677734375,20.56640625 12.978515625,19.453125 10.60546875,19.04296875 7.91015625,19.482421875 5.9326171875,20.68359375 4.5556640625,22.529296875 3.69140672683716,24.873046875 0.146484613418579,23.935546875 1.52343797683716,20.361328125 3.85253858566284,17.6220703125 6.9140625,15.87890625 10.48828125,15.263671875 14.296875,15.8935546875 17.314453125,17.63671875 19.2919921875,20.2880859375 20.009765625,23.642578125 19.3212890625,27.5537109375 17.51953125,30.4541015625 14.970703125,32.6220703125 12.0556640625,34.3505859375 9.140625,35.9326171875 6.591796875,37.6611328125 4.7900390625,39.8291015625 4.10156297683716,42.744140625 4.5703125,44.82421875 5.888671875,46.494140625 7.9248046875,47.607421875 10.546875,48.017578125 13.7255859375,47.5634765625 16.1865234375,46.3916015625 18.017578125,44.7509765625 19.3359375,42.8759765625 20.2587890625,41.0595703125 20.888671875,39.55078125 22.060546875,39.55078125 23.0712890625,41.9091796875 24.755859375,44.6923828125 27.421875,47.021484375 29.2236328125,47.74658203125 31.40625,47.98828125 33.204345703125,47.79052734375 34.8486328125,47.197265625 37.5439453125,44.9560546875 39.3017578125,41.42578125 39.931640625,36.767578125 39.693603515625,33.71337890625 38.9794921875,30.76171875 37.833251953125,27.9931640625 36.298828125,25.48828125 32.109375,21.3720703125 29.50927734375,19.8596210479736 26.630859375,18.80859375 16.875,8.73046875 16.875,8.4375 20.009765625,5.65429735183716 27.216796875,14.53125 39.55078125,0z" />
    </g>
  </g>
</svg>