<?xml version="1.0" encoding="utf-8"?>
<!DOCTYPE svg PUBLIC "-//W3C//DTD SVG 1.1//EN" "http://www.w3.org/Graphics/SVG/1.1/DTD/svg11.dtd">
<svg width="46.875" height="52.001953125" xmlns="http://www.w3.org/2000/svg" xmlns:xlink="http://www.w3.org/1999/xlink" xmlns:xml="http://www.w3.org/XML/1998/namespace" version="1.1">
  <g>
    <g>
      <path style="fill:#FF0000;fill-opacity:1" d="M33.720703125,26.103515625L31.875,26.4404296875 30.556640625,27.3046875 29.765625,28.5205078125 29.501953125,29.912109375 29.7802734375,31.318359375 30.5419921875,32.431640625 31.69921875,33.1787109375 33.1640625,33.45703125 34.5556640625,33.2080078125 35.771484375,32.4609375 36.6357421875,31.1865234375 36.97265625,29.35546875 36.85546875,28.0517578125 36.38671875,26.689453125 35.0244140625,26.220703125 33.720703125,26.103515625z M13.2421875,26.103515625L11.8505859375,26.2353515625 10.458984375,26.66015625 9.873046875,29.35546875 10.2099609375,31.1865234375 11.103515625,32.4609375 12.3779296875,33.2080078125 13.857421875,33.45703125 15.1611328125,33.1494140625 16.23046875,32.3291015625 16.962890625,31.142578125 17.2265625,29.736328125 16.9482421875,28.238525390625 16.11328125,27.0849609375 14.8388671875,26.3488788604736 13.2421875,26.103515625z M37.08984375,0L40.224609375,2.783203125 40.224609375,3.076171875 28.3354587554932,15.6440343856812 29.443359375,15.7763671875 33.603515625,17.5341796875 36.767578125,20.2587890625 39.08203125,23.7890625 42.7294921875,26.30859375 45.1318359375,29.2529296875 46.46484375,32.4169921875 46.875,35.595703125 46.6296348571777,38.64990234375 45.8935546875,41.30859375 43.1982421875,45.6005859375 39.19921875,48.662109375 34.306640625,50.625 28.916015625,51.6796875 23.4375,52.001953125 17.958984375,51.6796875 12.568359375,50.625 7.67578125,48.662109375 3.67675852775574,45.6005859375 0.981445550918579,41.2939453125 0.245361357927322,38.631591796875 0,35.595703125 0.263671964406967,33.046875 1.05468821525574,30.615234375 2.29980492591858,28.38134765625 3.92578148841858,26.42578125 8.2177734375,23.5400390625 10.7849111557007,22.7380390167236 13.53515625,22.470703125 16.8017578125,23.1298828125 19.189453125,24.84375 20.654296875,27.24609375 21.15234375,29.94140625 20.625,32.548828125 19.1015625,34.8779296875 16.69921875,36.5625 13.53515625,37.20703125 10.634765625,36.6650390625 8.3642578125,35.185546875 6.8994140625,32.98828125 6.38671875,30.29296875 6.4306640625,29.4140625 6.62109375,28.623046875 5.654296875,29.6337890625 4.7314453125,31.2158203125 4.0283203125,33.310546875 3.75000023841858,35.859375 3.951416015625,37.965087890625 4.5556640625,39.8291015625 6.7529296875,42.9052734375 10.048828125,45.17578125 14.1357421875,46.7138671875 18.69140625,47.5927734375 23.4375,47.87109375 28.1689453125,47.5927734375 32.7392578125,46.7138671875 36.8115234375,45.17578125 40.107421875,42.9052734375 42.3193359375,39.8291015625 42.923583984375,37.965087890625 43.125,35.859375 42.9345703125,33.955078125 42.4365234375,32.138671875 41.7041015625,30.4833984375 40.810546875,29.091796875 40.517578125,29.091796875 40.546875,29.4140625 40.546875,29.736328125 40.01953125,32.51953125 38.525390625,34.9072265625 36.1962890625,36.5771484375 33.1640625,37.20703125 30.3955078125,36.7236328125 27.94921875,35.3173828125 26.19140625,33.0322265625 25.517578125,29.912109375 26.1328125,27.0556640625 27.7880859375,24.7412109375 30.2197265625,23.1884765625 33.1640625,22.6171875 33.603515625,22.6318359375 34.04296875,22.67578125 34.04296875,22.529296875 32.109375,20.8630390167236 29.82421875,19.7314453125 27.1801738739014,19.068603515625 24.169921875,18.80859375 14.4140625,8.73046875 14.4140625,8.4375 17.548828125,5.65429639816284 24.755859375,14.53125 37.08984375,0z" />
    </g>
  </g>
</svg>