<?xml version="1.0" encoding="utf-8"?>
<!DOCTYPE svg PUBLIC "-//W3C//DTD SVG 1.1//EN" "http://www.w3.org/Graphics/SVG/1.1/DTD/svg11.dtd">
<svg width="38.6132812500002" height="29.12109375" xmlns="http://www.w3.org/2000/svg" xmlns:xlink="http://www.w3.org/1999/xlink" xmlns:xml="http://www.w3.org/XML/1998/namespace" version="1.1">
  <g>
    <g>
      <path style="fill:#FF0000;fill-opacity:1" d="M13.828125,0L16.8017578125,0.41015625 19.6142578125,1.7431640625 21.708984375,4.1162109375 22.3242168426514,5.716552734375 22.529296875,7.6171875 22.3278789520264,9.466552734375 21.7236328125,11.0302734375 19.6142578125,13.4765625 16.6259765625,15.2197265625 13.1982421875,16.494140625 9.7705078125,17.548828125 6.7822265625,18.6474609375 4.6728515625,20.0244140625 4.06860303878784,20.892333984375 3.8671875,21.943359375 4.222412109375,23.492431640625 5.2880859375,24.5654296875 7.020263671875,25.191650390625 9.375,25.400390625 38.61328125,25.400390625 38.61328125,29.12109375 9.404296875,29.12109375 5.302734375,28.564453125 2.3583984375,27.0556640625 0.5859375,24.8291015625 0,22.08984375 0.201415836811066,20.328369140625 0.8056640625,18.8525390625 2.9150390625,16.58203125 5.9033203125,15.0146484375 9.3310546875,13.8720703125 12.7587890625,12.8466796875 15.7470703125,11.6455078125 17.8564453125,10.0048828125 18.460693359375,8.931884765625 18.662109375,7.6171875 18.2373046875,5.859375 17.0947265625,4.599609375 15.4248046875,3.8525390625 13.41796875,3.603515625 11.4697265625,3.7646484375 9.55078125,4.2041015625 7.79296875,4.8193359375 6.357421875,5.5078125 4.921875,2.548828125 6.73828125,1.58203125 8.9794921875,0.76171875 11.4111328125,0.205078125 13.828125,0z" />
    </g>
  </g>
</svg>