<?xml version="1.0" encoding="utf-8"?>
<!DOCTYPE svg PUBLIC "-//W3C//DTD SVG 1.1//EN" "http://www.w3.org/Graphics/SVG/1.1/DTD/svg11.dtd">
<svg width="43.681640625" height="52.763671875" xmlns="http://www.w3.org/2000/svg" xmlns:xlink="http://www.w3.org/1999/xlink" xmlns:xml="http://www.w3.org/XML/1998/namespace" version="1.1">
  <g>
    <g>
      <path style="fill:#FF0000;fill-opacity:1" d="M26.953125,15.146484375L31.1572265625,16.5380859375 35.0830078125,18.984375 38.5107421875,22.3828125 41.2353515625,26.6162109375 43.037109375,31.552734375 43.681640625,37.08984375 43.406982421875,40.645751953125 42.5830078125,43.6962890625 41.312255859375,46.256103515625 39.697265625,48.33984375 37.80029296875,49.951171875 35.68359375,51.09375 33.44970703125,51.77490234375 31.201171875,52.001953125 28.79150390625,51.807861328125 26.71875,51.2255859375 23.3642578125,49.189453125 20.8154296875,46.318359375 18.7939453125,43.037109375 16.9921875,39.755859375 15.1171875,36.884765625 12.890625,34.8486328125 11.5502920150757,34.266357421875 9.990234375,34.072265625 7.3974609375,34.6435546875 5.5810546875,36.1083984375 4.51171875,38.1298828125 4.16015625,40.37109375 4.423828125,42.978515625 5.2587890625,45.2783203125 6.7529296875,47.431640625 8.994140625,49.62890625 6.50390625,52.763671875 3.70605444908142,50.185546875 1.66992211341858,47.2412109375 0.4248046875,44.0625 0,40.78125 0.703125238418579,36.8701171875 2.70996117591858,33.45703125 5.859375,31.0400390625 7.81494140625,30.347900390625 9.990234375,30.1171875 12.10693359375,30.3076171875 13.9453125,30.87890625 16.962890625,32.8857421875 19.3212890625,35.7275390625 21.298828125,38.994140625 23.1884765625,42.2607421875 25.283203125,45.1025390625 27.861328125,47.109375 29.4140625,47.6806640625 31.201171875,47.87109375 32.999267578125,47.67333984375 34.6435546875,47.080078125 37.3388671875,44.8388671875 39.0966796875,41.30859375 39.7265625,36.650390625 39.488525390625,33.603515625 38.7744140625,30.673828125 37.628173828125,27.930908203125 36.09375,25.4443359375 31.904296875,21.357421875 29.30419921875,19.8559589385986 26.42578125,18.80859375 26.953125,15.146484375z M27.24609375,0L30.380859375,2.783203125 30.380859375,3.076171875 15.498046875,18.80859375 14.326171875,18.80859375 4.5703125,8.73046875 4.5703125,8.4375 7.705078125,5.654296875 14.912109375,14.53125 27.24609375,0z" />
    </g>
  </g>
</svg>