<?xml version="1.0" encoding="utf-8"?>
<!DOCTYPE svg PUBLIC "-//W3C//DTD SVG 1.1//EN" "http://www.w3.org/Graphics/SVG/1.1/DTD/svg11.dtd">
<svg width="31.81640625" height="48.1640625" xmlns="http://www.w3.org/2000/svg" xmlns:xlink="http://www.w3.org/1999/xlink" xmlns:xml="http://www.w3.org/XML/1998/namespace" version="1.1">
  <g>
    <g>
      <path style="fill:#FF0000;fill-opacity:1" d="M30.439453125,0L31.81640625,1.93359327316284 28.68896484375,5.306396484375 26.513671875,8.4521484375 25.2392559051514,11.348876953125 24.814453125,13.974609375 25.2465801239014,17.0031757354736 26.54296875,20.2294921875 28.7255859375,23.631591796875 31.81640625,27.1875 30.439453125,29.12109375 26.89453125,25.3125 24.4189453125,21.6650390625 22.9541015625,17.8857421875 22.470703125,13.681640625 22.4853515625,13.1103515625 22.529296875,12.509765625 16.11328125,6.5625 16.11328125,48.1640625 15.52734375,48.1640625 0,36.884765625 1.20117235183716,34.892578125 13.76953125,43.974609375 13.76953125,26.748046875 1.34765625,17.9296875 2.54882860183716,15.9375 13.76953125,23.90625 13.76953125,1.728515625 14.35546875,1.728515625 23.14453125,9.873046875 24.3017559051514,7.32421875 25.95703125,4.833984375 30.439453125,0z" />
    </g>
  </g>
</svg>