<?xml version="1.0" encoding="utf-8"?>
<!DOCTYPE svg PUBLIC "-//W3C//DTD SVG 1.1//EN" "http://www.w3.org/Graphics/SVG/1.1/DTD/svg11.dtd">
<svg width="29.58984375" height="44.82421875" xmlns="http://www.w3.org/2000/svg" xmlns:xlink="http://www.w3.org/1999/xlink" xmlns:xml="http://www.w3.org/XML/1998/namespace" version="1.1">
  <g>
    <g>
      <path style="fill:#FF0000;fill-opacity:1" d="M8.49609375,11.1328125L8.49609375,26.66015625 14.94140625,26.66015625 14.94140625,29.00390625 8.5546875,29.00390625 9.4189453125,34.248046875 11.279296875,38.5400390625 12.572021484375,40.177001953125 14.1064453125,41.42578125 15.875244140625,42.216796875 17.87109375,42.48046875 19.9804668426514,42.176513671875 21.85546875,41.2646484375 23.4704570770264,39.832763671875 24.7998046875,37.96875 26.6162109375,33.134765625 27.24609375,27.3046875 27.24609375,11.1328125 8.49609375,11.1328125z M6.15234375,0L8.49609375,0 8.49609375,8.7890625 27.24609375,8.7890625 27.24609375,0 29.58984375,0 29.58984375,27.3046875 29.395751953125,30.87158203125 28.8134765625,34.189453125 27.857666015625,37.174072265625 26.54296875,39.7412109375 24.8767070770264,41.8505859375 22.8662109375,43.4619140625 20.5261211395264,44.483642578125 17.87109375,44.82421875 15.37353515625,44.52392578125 13.154296875,43.623046875 11.220703125,42.191162109375 9.580078125,40.2978515625 8.24340724945068,37.979736328125 7.2216796875,35.2734375 6.181640625,29.00390625 0,29.00390625 0,26.66015625 6.15234375,26.66015625 6.15234375,0z" />
    </g>
  </g>
</svg>