<?xml version="1.0" encoding="utf-8"?>
<!DOCTYPE svg PUBLIC "-//W3C//DTD SVG 1.1//EN" "http://www.w3.org/Graphics/SVG/1.1/DTD/svg11.dtd">
<svg width="33.603515625" height="52.822265625" xmlns="http://www.w3.org/2000/svg" xmlns:xlink="http://www.w3.org/1999/xlink" xmlns:xml="http://www.w3.org/XML/1998/namespace" version="1.1">
  <g>
    <g>
      <path style="fill:#FF0000;fill-opacity:1" d="M22.1484375,25.1953125L24.4921875,25.1953125 24.4921875,33.984375 22.1484375,33.984375 22.1484375,25.1953125z M23.0859375,8.73046875L21.0021953582764,9.0966796875 19.2626953125,10.1953125 17.845458984375,11.949462890625 16.728515625,14.2822265625 15.897216796875,17.164306640625 15.3369140625,20.56640625 14.912109375,28.623046875 15.018310546875,33.43505859375 15.3369140625,37.734375 15.897216796875,41.473388671875 16.728515625,44.6044921875 17.845458984375,47.105712890625 19.2626953125,48.955078125 21.0021953582764,50.09765625 23.0859375,50.478515625 25.1696758270264,50.09765625 26.9091796875,48.955078125 28.326416015625,47.105712890625 29.443359375,44.6044921875 30.274658203125,41.473388671875 30.8349609375,37.734375 31.153564453125,33.43505859375 31.259765625,28.623046875 30.8349609375,20.56640625 30.274658203125,17.164306640625 29.443359375,14.2822265625 28.326416015625,11.949462890625 26.9091796875,10.1953125 25.1696758270264,9.0966796875 23.0859375,8.73046875z M23.0859375,6.38671922683716L25.5139141082764,6.6796875 27.6416015625,7.55859375 29.454345703125,9.093017578125 30.9375,11.3525390625 32.0947265625,14.381103515625 32.9296875,18.22265625 33.43505859375,22.9467792510986 33.603515625,28.623046875 33.4368896484375,34.3780517578125 32.93701171875,39.33837890625 32.1038818359375,43.5040283203125 30.9375,46.875 29.447021484375,49.4769287109375 27.6416015625,51.33544921875 25.521240234375,52.4505615234375 23.0859375,52.822265625 20.650634765625,52.4505615234375 18.5302734375,51.33544921875 16.724853515625,49.4769287109375 15.234375,46.875 14.0679931640625,43.5040283203125 13.23486328125,39.33837890625 12.7349853515625,34.3780517578125 12.568359375,28.623046875 12.65625,24.2431640625 12.94921875,20.390625 8.876953125,16.81640625 8.876953125,47.841796875 8.291015625,47.841796875 0,39.873046875 1.37695264816284,37.998046875 6.533203125,43.18359375 6.533203125,12.099609375 7.119140625,12.099609375 13.330078125,17.783203125 13.941650390625,14.93408203125 14.7216796875,12.5390625 15.677490234375,10.572509765625 16.81640625,9.0087890625 19.6142578125,7.0166015625 23.0859375,6.38671922683716z M16.728515625,0L20.5883769989014,0.659182548522949 24.43359375,2.63671875 23.5546875,4.62890672683716 20.1416015625,2.87109351158142 16.728515625,2.34374976158142 13.53515625,2.87109351158142 10.37109375,4.62890672683716 9.4921875,2.63671875 13.17626953125,0.659182548522949 16.728515625,0z" />
    </g>
  </g>
</svg>