<?xml version="1.0" encoding="utf-8"?>
<!DOCTYPE svg PUBLIC "-//W3C//DTD SVG 1.1//EN" "http://www.w3.org/Graphics/SVG/1.1/DTD/svg11.dtd">
<svg width="27.890625" height="52.822265625" xmlns="http://www.w3.org/2000/svg" xmlns:xlink="http://www.w3.org/1999/xlink" xmlns:xml="http://www.w3.org/XML/1998/namespace" version="1.1">
  <g>
    <g>
      <path style="fill:#FF0000;fill-opacity:1" d="M13.76953125,6.38671922683716L14.35546875,6.38671922683716 25.546875,16.728515625 25.546875,7.998046875 27.890625,7.998046875 27.890625,51.2109375 25.546875,51.2109375 25.546875,19.951171875 16.11328125,11.220703125 16.11328125,52.822265625 15.52734375,52.822265625 0,41.54296875 1.20117235183716,39.55078125 13.76953125,48.6328125 13.76953125,31.40625 1.34765625,22.587890625 2.548828125,20.595703125 13.76953125,28.564453125 13.76953125,6.38671922683716z M14.560546875,0L18.4204082489014,0.659182548522949 22.265625,2.63671875 21.38671875,4.62890672683716 17.9736328125,2.87109351158142 14.560546875,2.34374976158142 11.3671875,2.87109351158142 8.203125,4.62890672683716 7.32421875,2.63671875 11.00830078125,0.659182548522949 14.560546875,0z" />
    </g>
  </g>
</svg>