<?xml version="1.0" encoding="utf-8"?>
<!DOCTYPE svg PUBLIC "-//W3C//DTD SVG 1.1//EN" "http://www.w3.org/Graphics/SVG/1.1/DTD/svg11.dtd">
<svg width="27.2460937500007" height="46.435546875" xmlns="http://www.w3.org/2000/svg" xmlns:xlink="http://www.w3.org/1999/xlink" xmlns:xml="http://www.w3.org/XML/1998/namespace" version="1.1">
  <g>
    <g>
      <path style="fill:#FF0000;fill-opacity:1" d="M14.794921875,2.373046875L14.794921875,17.87109375 19.2626934051514,17.2045917510986 22.412109375,15.615234375 24.2797832489014,13.2202157974243 24.90234375,10.13671875 24.2834453582764,7.034912109375 22.4267578125,4.6435546875 19.2810039520264,3.057861328125 14.794921875,2.373046875z M12.451171875,2.373046875L7.96508646011353,3.05419921875 4.81933546066284,4.62890625 2.96264600753784,7.00927734375 2.34374952316284,10.107421875 2.96264600753784,13.2092294692993 4.81933546066284,15.6005859375 7.96508646011353,17.1862812042236 12.451171875,17.87109375 12.451171875,2.373046875z M13.623046875,0L16.7861919403076,0.16387939453125 19.5373516082764,0.655517578125 21.8765239715576,1.47491455078125 23.8037109375,2.6220703125 25.3097534179688,4.07501220703125 26.385498046875,5.811767578125 27.0309448242188,7.83233642578125 27.24609375,10.13671875 27.0501708984375,12.3358163833618 26.46240234375,14.2749042510986 25.4827880859375,15.9539804458618 24.111328125,17.373046875 22.3535137176514,18.5156269073486 20.2148418426514,19.3652362823486 17.6953105926514,19.9218769073486 14.794921875,20.185546875 14.794921875,23.935546875 13.505859375,23.935546875 9.873046875,24.228515625 7.00195264816284,25.048828125 5.11230421066284,26.2939453125 4.42382764816284,27.83203125 5.16357374191284,29.5458984375 7.38281202316284,30.87890625 10.9423828125,31.81640625 15.703125,32.34375 15.703125,34.189453125 12.9135131835938,34.4805908203125 10.5212392807007,34.88525390625 8.52630519866943,35.4034423828125 6.92871046066284,36.03515625 4.83032178878784,37.63916015625 4.13085889816284,39.697265625 4.61791944503784,41.619873046875 6.07910108566284,42.9931640625 8.49975490570068,43.817138671875 11.865234375,44.091796875 15.146484375,43.76953125 19.013671875,43.125 19.482421875,45.3515625 15.6005859375,46.0693359375 11.806640625,46.435546875 7.53295755386353,46.051025390625 4.37988233566284,44.8974609375 2.43530225753784,42.843017578125 1.78710889816284,39.755859375 2.18810987472534,37.6922607421875 3.39111280441284,35.92529296875 5.39611768722534,34.4549560546875 8.203125,33.28125 5.57006740570068,32.4462890625 3.64746046066284,31.34765625 2.47192335128784,29.853515625 2.08007764816284,27.83203125 2.75024366378784,25.374755859375 4.76074171066284,23.5107421875 8.02368068695068,22.232666015625 12.451171875,21.533203125 12.451171875,20.185546875 9.55078029632568,19.9209613800049 7.03124856948853,19.3615741729736 4.89257717132568,18.5073871612549 3.13476514816284,17.3583984375 1.76330494880676,15.9329233169556 0.783690631389618,14.2492694854736 0.195922315120697,12.3074350357056 0,10.107421875 0.215148448944092,7.803955078125 0.860595107078552,5.7861328125 1.93633985519409,4.053955078125 3.44238233566284,2.607421875 5.36956691741943,1.4666748046875 7.70873975753784,0.65185546875 10.4598999023438,0.1629638671875 13.623046875,0z" />
    </g>
  </g>
</svg>