<?xml version="1.0" encoding="utf-8"?>
<!DOCTYPE svg PUBLIC "-//W3C//DTD SVG 1.1//EN" "http://www.w3.org/Graphics/SVG/1.1/DTD/svg11.dtd">
<svg width="27.65625" height="46.435546875" xmlns="http://www.w3.org/2000/svg" xmlns:xlink="http://www.w3.org/1999/xlink" xmlns:xml="http://www.w3.org/XML/1998/namespace" version="1.1">
  <g>
    <g>
      <path style="fill:#FF0000;fill-opacity:1" d="M13.828125,15.087890625L8.84765625,15.6042499542236 5.33203125,17.1533203125 3.24462890625,19.6105976104736 2.548828125,22.8515625 3.24462890625,26.11083984375 5.33203125,28.564453125 8.84765625,30.1025390625 13.828125,30.615234375 18.8085918426514,30.098876953125 22.32421875,28.5498046875 24.4116191864014,26.099853515625 25.107421875,22.880859375 24.4189453125,19.6142578125 22.32421875,17.1533203125 18.7939453125,15.615234375 13.828125,15.087890625z M12.65625,0L13.2421875,0 27.65625,6.796875 26.77734375,9.111328125 15,3.3984375 15,12.7734375 20.3832988739014,13.6047382354736 24.287109375,15.6298828125 25.67138671875,17.0663471221924 26.66015625,18.7536640167236 27.25341796875,20.6918354034424 27.451171875,22.880859375 27.2552490234375,25.0799560546875 26.66748046875,27.01904296875 25.6878662109375,28.6981201171875 24.31640625,30.1171875 22.5585918426514,31.259765625 20.4199199676514,32.109375 17.9003887176514,32.666015625 15,32.9296875 15,46.435546875 14.4140625,46.435546875 0,39.638671875 0.87890625,37.32421875 12.65625,43.037109375 12.65625,32.9296875 9.75585842132568,32.6651000976563 7.23632717132568,32.105712890625 5.09765577316284,31.2515258789063 3.33984375,30.1025390625 1.96838355064392,28.6770629882813 0.988769233226776,26.993408203125 0.401000916957855,25.0515747070313 0.205078601837158,22.8515625 0.401000916957855,20.6515522003174 0.988769233226776,18.7097187042236 1.96838355064392,17.0260639190674 3.33984375,15.6005859375 5.09765577316284,14.4516000747681 7.23632717132568,13.5974140167236 9.75585842132568,13.0380258560181 12.65625,12.7734375 12.65625,0z" />
    </g>
  </g>
</svg>