<?xml version="1.0" encoding="utf-8"?>
<!DOCTYPE svg PUBLIC "-//W3C//DTD SVG 1.1//EN" "http://www.w3.org/Graphics/SVG/1.1/DTD/svg11.dtd">
<svg width="31.494140625" height="46.435546875" xmlns="http://www.w3.org/2000/svg" xmlns:xlink="http://www.w3.org/1999/xlink" xmlns:xml="http://www.w3.org/XML/1998/namespace" version="1.1">
  <g>
    <g>
      <path style="fill:#FF0000;fill-opacity:1" d="M18.1640625,13.41796875L16.259765625,15.3955078125 14.736328125,17.7099609375 13.7255859375,20.3466796875 13.359375,23.3203125 13.7109375,26.2646484375 14.6923828125,28.88671875 16.171875,31.171875 18.017578125,33.10546875 18.5302734375,28.06640625 18.69140625,22.236328125 18.5595703125,17.5854511260986 18.1640625,13.41796875z M10.517578125,2.34375L8.43383693695068,2.7099609375 6.6943359375,3.80859375 5.277099609375,5.562744140625 4.16015625,7.8955078125 3.32885718345642,10.777587890625 2.7685546875,14.1796875 2.34374952316284,22.236328125 2.44995069503784,27.04833984375 2.7685546875,31.34765625 3.32885718345642,35.086669921875 4.16015625,38.2177734375 5.277099609375,40.718994140625 6.6943359375,42.568359375 8.43383693695068,43.7109375 10.517578125,44.091796875 12.9638671875,43.560791015625 14.912109375,41.9677734375 16.41357421875,39.385986328125 17.51953125,35.888671875 14.8974609375,33.3544921875 12.8466796875,30.380859375 11.4990234375,27.0263671875 11.015625,23.3203125 11.4990234375,19.5849609375 12.861328125,16.1865234375 14.9560546875,13.18359375 17.63671875,10.60546875 16.552734375,7.1484375 15.029296875,4.5556640625 13.037109375,2.9150390625 10.517578125,2.34375z M10.517578125,0L13.6669921875,0.498047351837158 16.2744140625,2.0947265625 18.3251953125,4.921875 19.8046875,9.08203125 24.375,6.9140625 29.150390625,5.859375 29.150390625,1.669921875 31.494140625,1.669921875 31.494140625,13.359375 29.150390625,13.359375 29.150390625,8.408203125 27.2607421875,8.7451171875 25.0634765625,9.404296875 22.705078125,10.4150390625 20.33203125,11.77734375 20.8447265625,16.5380859375 21.03515625,22.236328125 20.7934551239014,29.02587890625 20.068359375,34.6875 22.5146484375,36.09375 24.9462890625,37.1337890625 27.2021484375,37.8076171875 29.150390625,38.14453125 29.150390625,33.193359375 31.494140625,33.193359375 31.494140625,44.8828125 29.150390625,44.8828125 29.150390625,40.693359375 24.1845703125,39.5947265625 19.482421875,37.294921875 17.977294921875,41.33056640625 15.9814453125,44.1796875 13.494873046875,45.87158203125 10.517578125,46.435546875 8.082275390625,46.0638427734375 5.9619140625,44.94873046875 4.156494140625,43.0902099609375 2.666015625,40.48828125 1.4996337890625,37.1173095703125 0.66650390625,32.95166015625 0.1666259765625,27.9913330078125 0,22.236328125 0.16845703125,16.5600605010986 0.673828125,11.8359375 1.50878870487213,7.994384765625 2.666015625,4.9658203125 4.1455078125,2.706298828125 5.947265625,1.171875 8.07128810882568,0.29296875 10.517578125,0z" />
    </g>
  </g>
</svg>