<?xml version="1.0" encoding="utf-8"?>
<!DOCTYPE svg PUBLIC "-//W3C//DTD SVG 1.1//EN" "http://www.w3.org/Graphics/SVG/1.1/DTD/svg11.dtd">
<svg width="29.267578125" height="52.822265625" xmlns="http://www.w3.org/2000/svg" xmlns:xlink="http://www.w3.org/1999/xlink" xmlns:xml="http://www.w3.org/XML/1998/namespace" version="1.1">
  <g>
    <g>
      <path style="fill:#FF0000;fill-opacity:1" d="M8.173828125,29.4140625L8.173828125,35.302734375 8.48876953125,39.57275390625 9.43359375,43.41796875 12.24609375,42.3486328125 14.3994140625,40.869140625 15.7763671875,38.935546875 16.259765625,36.50390625 15.673828125,33.8818359375 14.033203125,31.8603515625 11.484375,30.3955078125 8.173828125,29.4140625z M8.173828125,19.130859375L8.173828125,27.041015625 12.568359375,28.330078125 15.8349609375,30.3369140625 17.8857421875,33.0908203125 18.603515625,36.62109375 18.0688457489014,39.766845703125 16.46484375,42.2900390625 13.87939453125,44.227294921875 10.400390625,45.615234375 11.748046875,47.633056640625 13.388671875,49.1748046875 15.322265625,50.152587890625 17.548828125,50.478515625 19.6582012176514,50.174560546875 21.533203125,49.2626953125 23.1481914520264,47.830810546875 24.4775390625,45.966796875 26.2939453125,41.1328125 26.923828125,35.302734375 26.923828125,19.130859375 8.173828125,19.130859375z M5.83007860183716,7.998046875L8.173828125,7.998046875 8.173828125,16.787109375 26.923828125,16.787109375 26.923828125,7.998046875 29.267578125,7.998046875 29.267578125,35.302734375 29.073486328125,38.86962890625 28.4912109375,42.1875 27.535400390625,45.172119140625 26.220703125,47.7392578125 24.5544414520264,49.8486328125 22.5439453125,51.4599609375 20.2038555145264,52.481689453125 17.548828125,52.822265625 14.512939453125,52.37548828125 11.9091796875,51.03515625 9.744873046875,48.92578125 8.02734375,46.171875 4.23339891433716,46.6552734375 0,46.81640625 0,44.47265625 7.11914110183716,43.9453125 6.15234422683716,39.85107421875 5.83007860183716,35.302734375 5.83007860183716,29.00390625 3.00293016433716,28.76953125 0,28.681640625 0,26.337890625 3.03222703933716,26.42578125 5.83007860183716,26.66015625 5.83007860183716,7.998046875z M14.1796875,0L18.03955078125,0.659182548522949 21.884765625,2.63671875 21.005859375,4.62890672683716 17.5927734375,2.87109351158142 14.1796875,2.34374976158142 10.986328125,2.87109351158142 7.82226610183716,4.62890672683716 6.94335985183716,2.63671875 10.62744140625,0.659182548522949 14.1796875,0z" />
    </g>
  </g>
</svg>