<?xml version="1.0" encoding="utf-8"?>
<!DOCTYPE svg PUBLIC "-//W3C//DTD SVG 1.1//EN" "http://www.w3.org/Graphics/SVG/1.1/DTD/svg11.dtd">
<svg width="28.4765625" height="52.822265625" xmlns="http://www.w3.org/2000/svg" xmlns:xlink="http://www.w3.org/1999/xlink" xmlns:xml="http://www.w3.org/XML/1998/namespace" version="1.1">
  <g>
    <g>
      <path style="fill:#FF0000;fill-opacity:1" d="M3.04687547683716,38.90625L5.44921922683716,38.90625 6.83349561691284,43.88671875 8.759765625,47.51953125 11.30126953125,49.73876953125 14.53125,50.478515625 17.7209453582764,49.73876953125 20.4345703125,47.51953125 22.6061992645264,43.88671875 24.169921875,38.90625 26.513671875,38.90625 25.6475811004639,42.066650390625 24.6020488739014,44.8388671875 23.3770732879639,47.222900390625 21.97265625,49.21875 20.3869609832764,50.7952880859375 18.6181621551514,51.92138671875 16.6662578582764,52.5970458984375 14.53125,52.822265625 12.42919921875,52.5970458984375 10.517578125,51.92138671875 8.79638671875,50.7952880859375 7.26562547683716,49.21875 5.92529344558716,47.222900390625 4.77539110183716,44.8388671875 3.81591844558716,42.066650390625 3.04687547683716,38.90625z M13.06640625,34.16015625L15.41015625,34.16015625 15.41015625,42.94921875 13.06640625,42.94921875 13.06640625,34.16015625z M7.67578172683716,6.38671922683716L10.078125,7.0166015625 11.923828125,8.759765625 13.2861328125,11.3671875 14.23828125,14.560546875 15.1904296875,11.3671875 16.552734375,8.759765625 18.3837890625,7.0166015625 20.80078125,6.38671922683716 22.4661235809326,6.59088134765625 23.9172344207764,7.203369140625 25.1541118621826,8.22418212890625 26.1767578125,9.6533203125 27.0071411132813,11.4926147460938 27.667236328125,13.743896484375 28.1570434570313,16.4071655273438 28.4765625,19.482421875 26.1328125,19.482421875 25.535888671875,14.71435546875 24.3896484375,11.3671875 22.7819805145264,9.3896484375 20.80078125,8.73046875 19.7900371551514,8.939208984375 18.92578125,9.5654296875 17.5341796875,11.8212890625 16.552734375,15.0732421875 15.9228515625,18.8818359375 15.556640625,22.8662109375 15.41015625,26.6015625 15.41015625,29.47265625 13.06640625,29.47265625 13.06640625,26.6015625 12.919921875,22.8662109375 12.5537109375,18.8818359375 11.923828125,15.0732421875 10.9423828125,11.8212890625 9.55078125,9.5654296875 8.6865234375,8.939208984375 7.67578172683716,8.73046875 5.69458055496216,9.3896484375 4.08691453933716,11.3671875 2.94067430496216,14.71435546875 2.34375047683716,19.482421875 0,19.482421875 0.31951904296875,16.4071655273438 0.809326231479645,13.743896484375 1.46942162513733,11.4926147460938 2.29980516433716,9.6533203125 3.32244920730591,8.22418212890625 4.55932664871216,7.203369140625 6.01043748855591,6.59088134765625 7.67578172683716,6.38671922683716z M14.00390625,0L17.8637676239014,0.659182548522949 21.708984375,2.63671875 20.830078125,4.62890672683716 17.4169921875,2.87109351158142 14.00390625,2.34374976158142 10.810546875,2.87109351158142 7.64648485183716,4.62890672683716 6.76757860183716,2.63671875 10.45166015625,0.659182548522949 14.00390625,0z" />
    </g>
  </g>
</svg>