<?xml version="1.0" encoding="utf-8"?>
<!DOCTYPE svg PUBLIC "-//W3C//DTD SVG 1.1//EN" "http://www.w3.org/Graphics/SVG/1.1/DTD/svg11.dtd">
<svg width="29.7070312500008" height="46.435546875" xmlns="http://www.w3.org/2000/svg" xmlns:xlink="http://www.w3.org/1999/xlink" xmlns:xml="http://www.w3.org/XML/1998/namespace" version="1.1">
  <g>
    <g>
      <path style="fill:#FF0000;fill-opacity:1" d="M10.517578125,2.34375L8.43383693695068,2.7099609375 6.69433546066284,3.80859375 5.27709913253784,5.562744140625 4.16015577316284,7.8955078125 3.32885694503784,10.777587890625 2.76855421066284,14.1796875 2.34374952316284,22.236328125 2.44995045661926,27.04833984375 2.76855421066284,31.34765625 3.32885694503784,35.086669921875 4.16015577316284,38.2177734375 5.27709913253784,40.718994140625 6.69433546066284,42.568359375 8.43383693695068,43.7109375 10.517578125,44.091796875 12.601318359375,43.7109375 14.3408203125,42.568359375 15.758056640625,40.718994140625 16.875,38.2177734375 17.706298828125,35.086669921875 18.2666015625,31.34765625 18.5852031707764,27.04833984375 18.69140625,22.236328125 18.2666015625,14.1796875 17.706298828125,10.777587890625 16.875,7.8955078125 15.758056640625,5.562744140625 14.3408203125,3.80859375 12.601318359375,2.7099609375 10.517578125,2.34375z M10.517578125,0L12.94189453125,0.289306640625 15.05859375,1.1572265625 16.8603515625,2.6806640625 18.33984375,4.9365234375 19.4970684051514,7.957763671875 20.33203125,11.77734375 20.8447246551514,16.4648456573486 21.03515625,22.08984375 27.36328125,22.08984375 27.36328125,5.09765625 29.70703125,5.09765625 29.70703125,41.42578125 27.36328125,41.42578125 27.36328125,24.43359375 21.005859375,24.43359375 20.7376079559326,29.6676635742188 20.1672344207764,34.178466796875 19.2947368621826,37.9660034179688 18.1201171875,41.0302734375 16.6506958007813,43.3950805664063 14.893798828125,45.084228515625 12.8494262695313,46.0977172851563 10.517578125,46.435546875 8.082275390625,46.0638427734375 5.96191358566284,44.94873046875 4.15649366378784,43.0902099609375 2.66601514816284,40.48828125 1.49963331222534,37.1173095703125 0.666503489017487,32.95166015625 0.166625708341599,27.9913330078125 0,22.236328125 0.168456614017487,16.5600605010986 0.673827648162842,11.8359375 1.50878822803497,7.994384765625 2.66601514816284,4.9658203125 4.14550733566284,2.706298828125 5.94726514816284,1.171875 8.07128810882568,0.29296875 10.517578125,0z" />
    </g>
  </g>
</svg>