<?xml version="1.0" encoding="utf-8"?>
<!DOCTYPE svg PUBLIC "-//W3C//DTD SVG 1.1//EN" "http://www.w3.org/Graphics/SVG/1.1/DTD/svg11.dtd">
<svg width="27.36328125" height="44.82421875" xmlns="http://www.w3.org/2000/svg" xmlns:xlink="http://www.w3.org/1999/xlink" xmlns:xml="http://www.w3.org/XML/1998/namespace" version="1.1">
  <g>
    <g>
      <path style="fill:#FF0000;fill-opacity:1" d="M2.9296875,8.115234375L5.2734375,8.115234375 5.2734375,14.853515625 2.9296875,14.853515625 2.9296875,8.115234375z M23.349609375,0L25.693359375,0 25.693359375,12.59765625 25.107421875,12.59765625 15.673828125,5.21484375 15.673828125,25.283203125 27.36328125,25.283203125 27.36328125,27.626953125 15.673828125,27.626953125 15.673828125,44.82421875 15.087890625,44.82421875 0.732421875,36.181640625 1.93359375,34.1015625 13.330078125,41.1328125 13.330078125,27.626953125 0,27.626953125 0,25.283203125 13.330078125,25.283203125 13.330078125,17.16796875 11.209716796875,19.16015625 8.4814453125,20.68359375 5.26245021820068,21.68701171875 1.669921875,22.119140625 1.171875,19.775390625 5.6982421875,19.130859375 9.4775390625,17.3583984375 12.0556640625,14.736328125 12.769775390625,13.1835956573486 13.0078125,11.513671875 12.769775390625,9.8583984375 12.0556640625,8.291015625 9.4775390625,5.654296875 5.712890625,3.8818359375 1.171875,3.22265625 1.669921875,0.87890625 5.26611232757568,1.314697265625 8.49609375,2.3291015625 11.22802734375,3.856201171875 13.330078125,5.830078125 13.330078125,1.025390625 13.916015625,1.025390625 23.349609375,8.466796875 23.349609375,0z" />
    </g>
  </g>
</svg>