<?xml version="1.0" encoding="utf-8"?>
<!DOCTYPE svg PUBLIC "-//W3C//DTD SVG 1.1//EN" "http://www.w3.org/Graphics/SVG/1.1/DTD/svg11.dtd">
<svg width="28.3593750000005" height="46.435546875" xmlns="http://www.w3.org/2000/svg" xmlns:xlink="http://www.w3.org/1999/xlink" xmlns:xml="http://www.w3.org/XML/1998/namespace" version="1.1">
  <g>
    <g>
      <path style="fill:#FF0000;fill-opacity:1" d="M2.98828125,31.171875L4.4677734375,36.4306640625 6.8115234375,40.517578125 8.31298732757568,42.0263671875 10.0341796875,43.154296875 11.986083984375,43.857421875 14.1796875,44.091796875 16.35498046875,43.857421875 18.310546875,43.154296875 20.0427227020264,42.0263671875 21.5478515625,40.517578125 23.876953125,36.4306640625 25.341796875,31.171875 19.74609375,31.171875 19.74609375,37.646484375 17.40234375,37.646484375 17.40234375,31.171875 10.95703125,31.171875 10.95703125,37.646484375 8.61328125,37.646484375 8.61328125,31.171875 2.98828125,31.171875z M19.74609375,17.6953125L19.74609375,28.828125 25.693359375,28.828125 25.927734375,26.1181640625 26.015625,23.26171875 25.927734375,20.419921875 25.693359375,17.6953125 19.74609375,17.6953125z M10.95703125,17.6953125L10.95703125,28.828125 17.40234375,28.828125 17.40234375,17.6953125 10.95703125,17.6953125z M2.63671875,17.6953125L2.4169921875,20.419921875 2.34375,23.26171875 2.4169921875,26.1181640625 2.63671875,28.828125 8.61328125,28.828125 8.61328125,17.6953125 2.63671875,17.6953125z M14.1796875,2.34375L11.986083984375,2.581787109375 10.0341796875,3.2958984375 8.31298732757568,4.4384765625 6.8115234375,5.9619140625 4.4677734375,10.078125 2.98828125,15.3515625 8.61328125,15.3515625 8.61328125,8.7890625 10.95703125,8.7890625 10.95703125,15.3515625 17.40234375,15.3515625 17.40234375,8.7890625 19.74609375,8.7890625 19.74609375,15.3515625 25.341796875,15.3515625 23.876953125,10.078125 21.5478515625,5.9619140625 20.0463848114014,4.4384765625 18.3251953125,3.2958984375 16.373291015625,2.581787109375 14.1796875,2.34375z M14.1796875,0L17.362060546875,0.3955078125 20.1708984375,1.58203125 22.5915508270264,3.515625 24.609375,6.15234375 26.21337890625,9.473876953125 27.392578125,13.4619140625 28.11767578125,18.0725116729736 28.359375,23.26171875 28.121337890625,28.46923828125 27.4072265625,33.076171875 26.239013671875,37.0458984375 24.638671875,40.341796875 22.6171855926514,42.952880859375 20.185546875,44.8681640625 17.36572265625,46.043701171875 14.1796875,46.435546875 10.99365234375,46.043701171875 8.173828125,44.8681640625 5.7421875,42.952880859375 3.720703125,40.341796875 2.12036108970642,37.0458984375 0.9521484375,33.076171875 0.238036751747131,28.46923828125 0,23.26171875 0.238036751747131,18.0725116729736 0.9521484375,13.4619140625 2.12402319908142,9.473876953125 3.7353515625,6.15234375 5.767822265625,3.515625 8.203125,1.58203125 11.015625,0.3955078125 14.1796875,0z" />
    </g>
  </g>
</svg>