<?xml version="1.0" encoding="utf-8"?>
<!DOCTYPE svg PUBLIC "-//W3C//DTD SVG 1.1//EN" "http://www.w3.org/Graphics/SVG/1.1/DTD/svg11.dtd">
<svg width="30.703125" height="52.822265625" xmlns="http://www.w3.org/2000/svg" xmlns:xlink="http://www.w3.org/1999/xlink" xmlns:xml="http://www.w3.org/XML/1998/namespace" version="1.1">
  <g>
    <g>
      <path style="fill:#FF0000;fill-opacity:1" d="M7.236328125,8.115234375L9.287109375,11.630859375 10.5029296875,14.384765625 11.07421875,16.611328125 11.220703125,18.515625 11.0009765625,20.0830078125 10.224609375,21.6943359375 8.759765625,22.939453125 6.50390625,23.4375 4.62890625,23.14453125 3.017578125,22.294921875 1.5234375,20.9619140625 0,19.21875 1.93359375,17.75390625 2.8857421875,18.9697265625 3.9111328125,20.0390625 5.0830078125,20.80078125 6.50390625,21.09375 7.763671875,20.830078125 8.4814453125,20.1708984375 8.8037109375,19.3212890625 8.876953125,18.515625 8.63525295257568,16.50146484375 7.91015625,14.443359375 6.74560451507568,12.23876953125 5.185546875,9.78515625 7.236328125,8.115234375z M15.849609375,6.38671922683716L16.435546875,6.38671922683716 30.703125,14.794921875 29.560546875,16.81640625 18.193359375,10.166015625 18.193359375,28.59375 30.087890625,28.59375 30.087890625,30.9375 18.193359375,30.9375 18.193359375,52.822265625 17.607421875,52.822265625 3.251953125,44.1796875 4.423828125,42.275390625 15.849609375,49.130859375 15.849609375,30.9375 2.900390625,30.9375 2.900390625,28.59375 15.849609375,28.59375 15.849609375,6.38671922683716z M14.853515625,0L18.7133769989014,0.659182548522949 22.55859375,2.63671875 21.6796875,4.62890672683716 18.2666015625,2.87109351158142 14.853515625,2.34374976158142 11.66015625,2.87109351158142 8.49609375,4.62890672683716 7.6171875,2.63671875 11.30126953125,0.659182548522949 14.853515625,0z" />
    </g>
  </g>
</svg>