<?xml version="1.0" encoding="utf-8"?>
<!DOCTYPE svg PUBLIC "-//W3C//DTD SVG 1.1//EN" "http://www.w3.org/Graphics/SVG/1.1/DTD/svg11.dtd">
<svg width="31.376953125" height="44.82421875" xmlns="http://www.w3.org/2000/svg" xmlns:xlink="http://www.w3.org/1999/xlink" xmlns:xml="http://www.w3.org/XML/1998/namespace" version="1.1">
  <g>
    <g>
      <path style="fill:#FF0000;fill-opacity:1" d="M12.626953125,18.6328125L12.626953125,27.3046875 12.8173828125,33.134765625 13.564453125,37.96875 14.241943359375,39.832763671875 15.1611328125,41.2646484375 16.365966796875,42.176513671875 17.900390625,42.48046875 19.4311504364014,42.176513671875 20.625,41.2646484375 21.5368633270264,39.832763671875 22.2216796875,37.96875 22.9833984375,33.134765625 23.173828125,27.3046875 23.173828125,20.888671875 12.626953125,18.6328125z M10.283203125,0L12.626953125,0 12.626953125,16.23046875 23.173828125,18.486328125 23.173828125,0 25.517578125,0 25.517578125,18.984375 29.033203125,19.716796875 29.033203125,0 31.376953125,0 31.376953125,43.212890625 29.033203125,43.212890625 29.033203125,22.119140625 25.517578125,21.38671875 25.517578125,27.3046875 25.166015625,34.189453125 24.6862773895264,37.174072265625 23.9501953125,39.7412109375 22.9357891082764,41.8505859375 21.62109375,43.4619140625 19.9584941864014,44.483642578125 17.900390625,44.82421875 15.84228515625,44.483642578125 14.1796875,43.4619140625 12.864990234375,41.8505859375 11.8505859375,39.7412109375 11.1145000457764,37.174072265625 10.634765625,34.189453125 10.283203125,27.3046875 10.283203125,18.134765625 6.76757764816284,17.373046875 6.76757764816284,35.68359375 6.18164014816284,35.68359375 0,29.6484375 1.37695264816284,27.7734375 4.42382764816284,31.025390625 4.42382764816284,14.619140625 5.00976514816284,14.619140625 10.283203125,15.732421875 10.283203125,0z" />
    </g>
  </g>
</svg>