<?xml version="1.0" encoding="utf-8"?>
<!DOCTYPE svg PUBLIC "-//W3C//DTD SVG 1.1//EN" "http://www.w3.org/Graphics/SVG/1.1/DTD/svg11.dtd">
<svg width="32.197265625" height="46.435546875" xmlns="http://www.w3.org/2000/svg" xmlns:xlink="http://www.w3.org/1999/xlink" xmlns:xml="http://www.w3.org/XML/1998/namespace" version="1.1">
  <g>
    <g>
      <path style="fill:#FF0000;fill-opacity:1" d="M17.255859375,14.619140625L17.255859375,28.154296875 19.9768047332764,27.4951171875 21.9287109375,26.103515625 23.1042461395264,24.052734375 23.49609375,21.416015625 23.1042461395264,18.7573261260986 21.9287109375,16.69921875 19.9768047332764,15.3002948760986 17.255859375,14.619140625z M14.912109375,14.619140625L12.191162109375,15.3002948760986 10.2392578125,16.69921875 9.063720703125,18.7500019073486 8.671875,21.38671875 9.063720703125,24.04541015625 10.2392578125,26.103515625 12.191162109375,27.4951171875 14.912109375,28.154296875 14.912109375,14.619140625z M14.912109375,0L15.498046875,0 28.2421875,7.939453125 27.158203125,10.01953125 17.255859375,3.984375 17.255859375,12.275390625 20.771484375,13.212890625 23.4814453125,15.1904296875 25.224609375,17.98828125 25.83984375,21.416015625 25.224609375,24.84375 23.4814453125,27.626953125 20.771484375,29.5751953125 17.255859375,30.498046875 17.255859375,44.033203125 21.1083984375,43.037109375 24.5361328125,40.8837890625 27.509765625,37.7197265625 30,33.69140625 32.197265625,34.86328125 28.9892578125,39.8876953125 25.2978515625,43.505859375 21.03515625,45.703125 16.083984375,46.435546875 11.1474609375,45.703125 6.89941453933716,43.505859375 3.20800828933716,39.8876953125 0,34.86328125 2.19726610183716,33.69140625 4.67285203933716,37.7197265625 7.63183641433716,40.8837890625 11.0595703125,43.037109375 14.912109375,44.033203125 14.912109375,30.498046875 11.396484375,29.5751953125 8.6865234375,27.626953125 6.94335985183716,24.8291015625 6.32812547683716,21.38671875 6.94335985183716,17.958984375 8.6865234375,15.17578125 11.396484375,13.212890625 14.912109375,12.275390625 14.912109375,0z" />
    </g>
  </g>
</svg>