<?xml version="1.0" encoding="utf-8"?>
<!DOCTYPE svg PUBLIC "-//W3C//DTD SVG 1.1//EN" "http://www.w3.org/Graphics/SVG/1.1/DTD/svg11.dtd">
<svg width="24.638671875" height="43.212890625" xmlns="http://www.w3.org/2000/svg" xmlns:xlink="http://www.w3.org/1999/xlink" xmlns:xml="http://www.w3.org/XML/1998/namespace" version="1.1">
  <g>
    <g>
      <path style="fill:#FF0000;fill-opacity:1" d="M11.044921875,19.21875L13.388671875,19.21875 13.388671875,30.05859375 24.19921875,30.05859375 24.19921875,32.40234375 13.388671875,32.40234375 13.388671875,43.212890625 11.044921875,43.212890625 11.044921875,32.40234375 0.205078125,32.40234375 0.205078125,30.05859375 11.044921875,30.05859375 11.044921875,19.21875z M22.294921875,3.486328125L14.1796875,9.580078125 22.294921875,15.703125 22.294921875,3.486328125z M1.46484375,0L12.275390625,8.173828125 23.115234375,0 24.638671875,0 24.638671875,19.5703125 23.5546875,19.5703125 12.275390625,11.015625 1.46484375,19.16015625 0,17.314453125 10.37109375,9.580078125 0,1.845703125 1.46484375,0z" />
    </g>
  </g>
</svg>