<?xml version="1.0" encoding="utf-8"?>
<!DOCTYPE svg PUBLIC "-//W3C//DTD SVG 1.1//EN" "http://www.w3.org/Graphics/SVG/1.1/DTD/svg11.dtd">
<svg width="27.451171875" height="46.435546875" xmlns="http://www.w3.org/2000/svg" xmlns:xlink="http://www.w3.org/1999/xlink" xmlns:xml="http://www.w3.org/XML/1998/namespace" version="1.1">
  <g>
    <g>
      <path style="fill:#FF0000;fill-opacity:1" d="M14.94140625,15.1171875L14.94140625,30.615234375 19.4091777801514,29.94873046875 22.55859375,28.359375 24.4262676239014,25.96435546875 25.048828125,22.880859375 24.4299297332764,19.7790546417236 22.5732421875,17.3876953125 19.4274883270264,15.8020038604736 14.94140625,15.1171875z M12.59765625,15.1171875L8.11157131195068,15.7983417510986 4.96581983566284,17.373046875 3.10913038253784,19.7534198760986 2.49023389816284,22.8515625 3.10913038253784,25.953369140625 4.96581983566284,28.3447265625 8.11157131195068,29.930419921875 12.59765625,30.615234375 12.59765625,15.1171875z M12.59765625,0L13.18359375,0 27.451171875,8.408203125 26.30859375,10.4296875 14.94140625,3.779296875 14.94140625,12.7734375 20.3247051239014,13.6047382354736 24.228515625,15.6298828125 25.61279296875,17.0663471221924 26.6015625,18.7536640167236 27.19482421875,20.6918354034424 27.392578125,22.880859375 27.1966552734375,25.0799560546875 26.60888671875,27.01904296875 25.6292724609375,28.6981201171875 24.2578125,30.1171875 22.4999980926514,31.259765625 20.3613262176514,32.109375 17.8417949676514,32.666015625 14.94140625,32.9296875 14.94140625,46.435546875 14.35546875,46.435546875 0,37.79296875 1.17187452316284,35.888671875 12.59765625,42.744140625 12.59765625,32.9296875 9.69726467132568,32.6651000976563 7.17773294448853,32.105712890625 5.03906154632568,31.2515258789063 3.28124952316284,30.1025390625 1.90978932380676,28.6770629882813 0.930175006389618,26.993408203125 0.342406690120697,25.0515747070313 0.146484375,22.8515625 0.342406690120697,20.6515522003174 0.930175006389618,18.7097187042236 1.90978932380676,17.0260639190674 3.28124952316284,15.6005859375 5.03906154632568,14.4516000747681 7.17773294448853,13.5974140167236 9.69726467132568,13.0380258560181 12.59765625,12.7734375 12.59765625,0z" />
    </g>
  </g>
</svg>