<?xml version="1.0" encoding="utf-8"?>
<!DOCTYPE svg PUBLIC "-//W3C//DTD SVG 1.1//EN" "http://www.w3.org/Graphics/SVG/1.1/DTD/svg11.dtd">
<svg width="32.75390625" height="52.822265625" xmlns="http://www.w3.org/2000/svg" xmlns:xlink="http://www.w3.org/1999/xlink" xmlns:xml="http://www.w3.org/XML/1998/namespace" version="1.1">
  <g>
    <g>
      <path style="fill:#FF0000;fill-opacity:1" d="M28.212890625,40.95703125L30.556640625,40.95703125 30.556640625,49.74609375 28.212890625,49.74609375 28.212890625,40.95703125z M2.197265625,40.95703125L4.541015625,40.95703125 4.541015625,49.74609375 2.197265625,49.74609375 2.197265625,40.95703125z M8.203125,30.556640625L8.701171875,38.4228515625 9.29443264007568,41.82861328125 10.13671875,44.7509765625 11.2463369369507,47.142333984375 12.6416015625,48.955078125 14.344482421875,50.09765625 16.376953125,50.478515625 18.409423828125,50.09765625 20.1123046875,48.955078125 21.5075664520264,47.142333984375 22.6171875,44.7509765625 23.4558086395264,41.82861328125 24.0380859375,38.4228515625 24.55078125,30.556640625 8.203125,30.556640625z M28.212890625,9.462890625L30.556640625,9.462890625 30.556640625,18.251953125 28.212890625,18.251953125 28.212890625,9.462890625z M2.197265625,9.462890625L4.541015625,9.462890625 4.541015625,18.251953125 2.197265625,18.251953125 2.197265625,9.462890625z M16.376953125,8.73046875L14.3701171875,9.10400390625 12.685546875,10.224609375 11.2976064682007,12.000732421875 10.1806640625,14.3408203125 9.32739162445068,17.197265625 8.73046875,20.5224609375 8.203125,28.212890625 24.521484375,28.212890625 23.994140625,20.5078125 23.4008769989014,17.17529296875 22.55859375,14.326171875 21.4526348114014,11.9970703125 20.068359375,10.224609375 18.3837890625,9.10400390625 16.376953125,8.73046875z M16.376953125,6.38671922683716L18.75,6.697998046875 20.830078125,7.6318359375 22.6098613739014,9.228515625 24.08203125,11.5283203125 25.2465801239014,14.549560546875 26.103515625,18.310546875 26.6528301239014,22.8515644073486 26.89453125,28.212890625 32.75390625,28.212890625 32.75390625,30.556640625 26.89453125,30.556640625 26.6748027801514,36.02783203125 26.1328125,40.6640625 25.2758769989014,44.501953125 24.111328125,47.578125 22.6391582489014,49.918212890625 20.859375,51.5478515625 18.77197265625,52.503662109375 16.376953125,52.822265625 13.978271484375,52.503662109375 11.8798828125,51.5478515625 10.0891103744507,49.918212890625 8.61328125,47.578125 7.452392578125,44.501953125 6.6064453125,40.6640625 6.075439453125,36.02783203125 5.859375,30.556640625 0,30.556640625 0,28.212890625 5.859375,28.212890625 6.10107421875,22.8515644073486 6.650390625,18.310546875 7.50732421875,14.549560546875 8.671875,11.5283203125 10.1440420150757,9.228515625 11.923828125,7.6318359375 14.00390625,6.697998046875 16.376953125,6.38671922683716z M16.0546875,0L19.9145488739014,0.659182548522949 23.759765625,2.63671875 22.880859375,4.62890672683716 19.4677734375,2.87109351158142 16.0546875,2.34374976158142 12.861328125,2.87109351158142 9.697265625,4.62890672683716 8.818359375,2.63671875 12.50244140625,0.659182548522949 16.0546875,0z" />
    </g>
  </g>
</svg>