<?xml version="1.0" encoding="utf-8"?>
<!DOCTYPE svg PUBLIC "-//W3C//DTD SVG 1.1//EN" "http://www.w3.org/Graphics/SVG/1.1/DTD/svg11.dtd">
<svg width="28.271484375" height="51.2109375" xmlns="http://www.w3.org/2000/svg" xmlns:xlink="http://www.w3.org/1999/xlink" xmlns:xml="http://www.w3.org/XML/1998/namespace" version="1.1">
  <g>
    <g>
      <path style="fill:#FF0000;fill-opacity:1" d="M12.978515625,39.4921875L15.322265625,39.4921875 15.322265625,51.2109375 12.978515625,51.2109375 12.978515625,39.4921875z M0,18.22265625L0.5859375,18.22265625 25.927734375,36.73828125 25.927734375,18.955078125 28.271484375,18.955078125 28.271484375,40.83984375 27.685546875,40.83984375 2.34375,22.646484375 2.34375,40.25390625 0,40.25390625 0,18.22265625z M12.978515625,7.998046875L15.322265625,7.998046875 15.322265625,19.716796875 12.978515625,19.716796875 12.978515625,7.998046875z M13.974609375,0L17.8344707489014,0.659182548522949 21.6796875,2.63671875 20.80078125,4.62890625 17.3876953125,2.87109351158142 13.974609375,2.34375 10.78125,2.87109351158142 7.6171875,4.62890625 6.73828125,2.63671875 10.42236328125,0.659182548522949 13.974609375,0z" />
    </g>
  </g>
</svg>