<?xml version="1.0" encoding="utf-8"?>
<!DOCTYPE svg PUBLIC "-//W3C//DTD SVG 1.1//EN" "http://www.w3.org/Graphics/SVG/1.1/DTD/svg11.dtd">
<svg width="27.01171875" height="44.82421875" xmlns="http://www.w3.org/2000/svg" xmlns:xlink="http://www.w3.org/1999/xlink" xmlns:xml="http://www.w3.org/XML/1998/namespace" version="1.1">
  <g>
    <g>
      <path style="fill:#FF0000;fill-opacity:1" d="M10.810546875,0L14.35546875,0.673828125 16.9189453125,2.578125 18.486328125,5.5078125 19.013671875,9.228515625 19.013671875,19.599609375 24.66796875,19.599609375 24.66796875,7.646484375 27.01171875,7.646484375 27.01171875,36.181640625 24.66796875,36.181640625 24.66796875,21.943359375 19.013671875,21.943359375 19.013671875,35.15625 18.7683086395264,37.166748046875 18.0322265625,38.5693359375 16.8420391082764,39.393310546875 15.234375,39.66796875 13.212890625,39.19921875 10.546875,38.115234375 4.1015625,35.126953125 4.1015625,44.82421875 1.7578125,44.82421875 1.7578125,31.69921875 2.34375,31.69921875 12.48046875,36.474609375 13.7109375,36.9580078125 14.765625,37.20703125 16.1865234375,36.6357421875 16.519775390625,35.855712890625 16.669921875,34.658203125 16.669921875,9.228515625 16.2158203125,6.2841796875 14.970703125,4.130859375 13.1103515625,2.7978515625 10.810546875,2.34375 7.5439453125,3.0029296875 5.1416015625,4.6875 3.2958984375,6.943359375 1.69921875,9.31640625 0,7.939453125 2.373046875,4.39453125 4.8779296875,1.9189453125 7.646484375,0.46875 10.810546875,0z" />
    </g>
  </g>
</svg>