<?xml version="1.0" encoding="utf-8"?>
<!DOCTYPE svg PUBLIC "-//W3C//DTD SVG 1.1//EN" "http://www.w3.org/Graphics/SVG/1.1/DTD/svg11.dtd">
<svg width="31.0253906250035" height="44.82421875" xmlns="http://www.w3.org/2000/svg" xmlns:xlink="http://www.w3.org/1999/xlink" xmlns:xml="http://www.w3.org/XML/1998/namespace" version="1.1">
  <g>
    <g>
      <path style="fill:#FF0000;fill-opacity:1" d="M9.9609375,26.044921875L8.291015625,26.3525390625 6.82617139816284,27.158203125 5.59570264816284,28.3447265625 4.59960889816284,29.765625 6.44531202316284,31.3916015625 8.876953125,32.109375 10.37109375,31.904296875 11.748046875,31.2890625 12.744140625,30.3076171875 13.125,28.974609375 12.908935546875,27.784423828125 12.2607421875,26.8505859375 11.253662109375,26.246337890625 9.9609375,26.044921875z M10.13671875,12.421875L8.61694145202637,12.667236328125 7.22167921066284,13.4033203125 5.95092725753784,14.5788593292236 4.80468702316284,16.142578125 7.04589796066284,17.490234375 9.638671875,18.076171875 12.0556640625,17.3583984375 12.813720703125,16.4685077667236 13.06640625,15.234375 12.8173828125,14.1064453125 12.1435546875,13.2275390625 11.19140625,12.6416015625 10.13671875,12.421875z M18.134765625,0L18.720703125,0 31.025390625,7.03125 29.912109375,8.994140625 20.478515625,3.603515625 20.478515625,44.82421875 18.134765625,44.82421875 18.134765625,9.052734375 13.271484375,6.6064453125 10.9570302963257,5.936279296875 8.759765625,5.712890625 5.93261671066284,6.1669921875 3.95507764816284,7.412109375 2.76855421066284,9.2431640625 2.34374952316284,11.455078125 2.57812452316284,12.9638671875 3.19335889816284,14.35546875 6.21093702316284,11.2939453125 8.05663967132568,10.382080078125 10.13671875,10.078125 12.421875,10.48828125 14.0771484375,11.6015625 15.0732421875,13.2421875 15.41015625,15.234375 15.05126953125,17.5561542510986 13.974609375,19.189453125 12.1728515625,20.2148456573486 9.638671875,20.712890625 7.79296827316284,20.5517578125 6.25488233566284,20.09765625 4.89257764816284,19.39453125 3.60351514816284,18.45703125 2.92968702316284,20.6103515625 2.75390577316284,22.67578125 2.98828077316284,25.4736328125 3.54492139816284,27.5390625 4.68749952316284,26.0595703125 6.25488233566284,24.84375 8.0712890625,24.0087890625 9.9609375,23.701171875 12.4072265625,24.1552734375 14.12109375,25.3564453125 15.1318359375,27.0703125 15.46875,29.091796875 15.0732421875,31.025390625 13.857421875,32.75390625 11.806640625,33.984375 8.876953125,34.453125 7.13378858566284,34.2626953125 5.80078077316284,33.7646484375 4.70214796066284,33.0615234375 3.69140577316284,32.2265625 3.36914014816284,33.80859375 3.28124952316284,35.33203125 3.69140577316284,38.4228515625 4.98046827316284,41.8359375 2.81249952316284,42.83203125 1.40624916553497,39.07470703125 0.937499523162842,35.478515625 1.17187452316284,32.7392578125 2.05078077316284,30.05859375 0.893554210662842,27.1875 0.410155773162842,23.994140625 0.527343273162842,21.8994140625 0.791015148162842,20.068359375 1.25976514816284,18.3544921875 1.99218702316284,16.640625 1.18652296066284,15.6591796875 0.556640148162842,14.35546875 0.146484375,12.9052734375 0,11.455078125 0.673827648162842,8.0712890625 2.51953077316284,5.5224609375 5.25878858566284,3.92578125 8.642578125,3.369140625 10.9680166244507,3.577880859375 13.3154296875,4.2041015625 18.134765625,6.26953125 18.134765625,0z" />
    </g>
  </g>
</svg>