<?xml version="1.0" encoding="utf-8"?>
<!DOCTYPE svg PUBLIC "-//W3C//DTD SVG 1.1//EN" "http://www.w3.org/Graphics/SVG/1.1/DTD/svg11.dtd">
<svg width="29.296875" height="44.82421875" xmlns="http://www.w3.org/2000/svg" xmlns:xlink="http://www.w3.org/1999/xlink" xmlns:xml="http://www.w3.org/XML/1998/namespace" version="1.1">
  <g>
    <g>
      <path style="fill:#FF0000;fill-opacity:1" d="M4.86328125,18.193359375L3.5595703125,18.5302734375 2.6806640625,19.423828125 2.197265625,20.6982421875 2.05078125,22.177734375 2.197265625,23.6572265625 2.6806640625,24.931640625 3.5595703125,25.8251953125 4.86328125,26.162109375 6.1669921875,25.8251953125 7.0458984375,24.931640625 7.529296875,23.6572265625 7.67578125,22.177734375 7.529296875,20.6982421875 7.0458984375,19.423828125 6.1669921875,18.5302734375 4.86328125,18.193359375z M4.86328125,15.849609375L6.97265625,16.3916015625 8.49609375,17.8125 9.4189453125,19.833984375 9.7265625,22.177734375 9.4189453125,24.5068359375 8.49609375,26.5283203125 6.97265625,27.9638671875 4.86328125,28.505859375 2.75390625,27.9638671875 1.23046875,26.54296875 0.3076171875,24.521484375 0,22.177734375 0.3076171875,19.833984375 1.23046875,17.8125 2.75390625,16.3916015625 4.86328125,15.849609375z M16.5234375,0L17.109375,0 29.296875,7.20703125 28.125,9.31640625 18.8671875,3.603515625 18.8671875,20.537109375 18.955078125,22.265625 18.8671875,23.876953125 18.8671875,44.82421875 16.5234375,44.82421875 16.5234375,30.263671875 13.3154296875,33.57421875 9.3896484375,35.8740234375 5.185546875,37.2802734375 1.171875,37.880859375 0.64453125,35.390625 4.16015625,35.009765625 7.6318359375,33.9111328125 10.8251953125,32.1533203125 13.5205078125,29.794921875 15.498046875,26.9091796875 16.5234375,23.583984375 16.5234375,20.947265625 15.498046875,17.6220703125 13.5205078125,14.736328125 10.8251953125,12.3779296875 7.6318359375,10.60546875 4.16015625,9.4921875 0.64453125,9.111328125 1.171875,6.62109375 5.185546875,7.2216796875 9.3896484375,8.6279296875 13.3154296875,10.927734375 16.5234375,14.208984375 16.5234375,0z" />
    </g>
  </g>
</svg>