<?xml version="1.0" encoding="utf-8"?>
<!DOCTYPE svg PUBLIC "-//W3C//DTD SVG 1.1//EN" "http://www.w3.org/Graphics/SVG/1.1/DTD/svg11.dtd">
<svg width="25.83984375" height="51.2109375" xmlns="http://www.w3.org/2000/svg" xmlns:xlink="http://www.w3.org/1999/xlink" xmlns:xml="http://www.w3.org/XML/1998/namespace" version="1.1">
  <g>
    <g>
      <path style="fill:#FF0000;fill-opacity:1" d="M12.919921875,32.05078125L9.55078125,38.291015625 16.259765625,38.291015625 12.919921875,32.05078125z M9.19921875,20.185546875L12.919921875,27.12890625 16.640625,20.185546875 9.19921875,20.185546875z M0.0585932731628418,7.998046875L2.6953125,7.998046875 7.939453125,17.841796875 17.900390625,17.841796875 23.203125,7.998046875 25.83984375,7.998046875 20.537109375,17.841796875 25.048828125,17.841796875 25.048828125,20.185546875 19.27734375,20.185546875 14.23828125,29.58984375 18.896484375,38.291015625 25.048828125,38.291015625 25.048828125,40.634765625 20.15625,40.634765625 25.83984375,51.2109375 23.203125,51.2109375 17.51953125,40.634765625 8.291015625,40.634765625 2.63671875,51.2109375 0,51.2109375 5.654296875,40.634765625 0.732421875,40.634765625 0.732421875,38.291015625 6.9140625,38.291015625 11.6015625,29.58984375 6.5625,20.185546875 0.732421875,20.185546875 0.732421875,17.841796875 5.302734375,17.841796875 0.0585932731628418,7.998046875z M12.685546875,0L16.5454082489014,0.659182548522949 20.390625,2.63671875 19.51171875,4.62890625 16.0986328125,2.87109351158142 12.685546875,2.34375 9.4921875,2.87109351158142 6.328125,4.62890625 5.44921875,2.63671875 9.13330078125,0.659182548522949 12.685546875,0z" />
    </g>
  </g>
</svg>