<?xml version="1.0" encoding="utf-8"?>
<!DOCTYPE svg PUBLIC "-//W3C//DTD SVG 1.1//EN" "http://www.w3.org/Graphics/SVG/1.1/DTD/svg11.dtd">
<svg width="28.53515625" height="44.82421875" xmlns="http://www.w3.org/2000/svg" xmlns:xlink="http://www.w3.org/1999/xlink" xmlns:xml="http://www.w3.org/XML/1998/namespace" version="1.1">
  <g>
    <g>
      <path style="fill:#FF0000;fill-opacity:1" d="M17.724609375,0L18.310546875,0 28.53515625,6.62109375 27.158203125,8.466796875 20.068359375,3.779296875 20.068359375,37.6171875 19.482421875,37.6171875 3.80859375,31.611328125 3.80859375,44.82421875 1.46484375,44.82421875 1.46484375,28.505859375 2.05078125,28.505859375 17.724609375,34.423828125 17.724609375,22.96875 13.64501953125,22.108154296875 10.078125,20.6396484375 7.03491115570068,18.6218280792236 4.5263671875,16.11328125 2.55981421470642,13.1286630630493 1.142578125,9.6826171875 0.28564453125,5.826416015625 0,1.611328125 2.578125,1.611328125 2.816162109375,5.211181640625 3.5302734375,8.5107421875 4.720458984375,11.480712890625 6.38671875,14.091796875 8.52538967132568,16.3220233917236 11.1328125,18.1494140625 14.20166015625,19.5446796417236 17.724609375,20.478515625 17.724609375,11.572265625 10.400390625,11.572265625 10.400390625,9.228515625 17.724609375,9.228515625 17.724609375,0z" />
    </g>
  </g>
</svg>