<?xml version="1.0" encoding="utf-8"?>
<!DOCTYPE svg PUBLIC "-//W3C//DTD SVG 1.1//EN" "http://www.w3.org/Graphics/SVG/1.1/DTD/svg11.dtd">
<svg width="38.0859375" height="46.40625" xmlns="http://www.w3.org/2000/svg" xmlns:xlink="http://www.w3.org/1999/xlink" xmlns:xml="http://www.w3.org/XML/1998/namespace" version="1.1">
  <g>
    <g>
      <path style="fill:#FF0000;fill-opacity:1" d="M19.04296875,27.626953125L17.3876953125,28.0810546875 16.2744140625,29.2822265625 15.64453125,30.99609375 15.439453125,32.98828125 15.64453125,34.98046875 16.2744140625,36.6943359375 17.3876953125,37.8955078125 19.04296875,38.349609375 20.6982421875,37.8955078125 21.8115234375,36.6943359375 22.44140625,34.9951171875 22.646484375,33.017578125 22.44140625,31.0107421875 21.8115234375,29.2822265625 20.6982421875,28.0810546875 19.04296875,27.626953125z M19.04296875,25.283203125L21.62109375,25.9423828125 23.4814453125,27.685546875 24.609375,30.1611328125 24.990234375,33.017578125 24.609375,35.830078125 23.4814453125,38.291015625 21.62109375,40.0341796875 19.04296875,40.693359375 16.46484375,40.0341796875 14.6044921875,38.3056640625 13.4765625,35.8447265625 13.095703125,32.98828125 13.4765625,30.1318359375 14.6044921875,27.6708984375 16.46484375,25.9423828125 19.04296875,25.283203125z M19.04296875,4.04296875L17.3876953125,4.4970703125 16.2744140625,5.6982421875 15.64453125,7.412109375 15.439453125,9.404296875 15.64453125,11.396484375 16.2744140625,13.1103515625 17.3876953125,14.3115234375 19.04296875,14.765625 20.6982421875,14.3115234375 21.8115234375,13.1103515625 22.44140625,11.4111328125 22.646484375,9.43359375 22.44140625,7.4267578125 21.8115234375,5.6982421875 20.6982421875,4.4970703125 19.04296875,4.04296875z M19.04296875,1.69921875L21.62109375,2.3583984375 23.4814453125,4.1015625 24.609375,6.5771484375 24.990234375,9.43359375 24.609375,12.24609375 23.4814453125,14.70703125 21.62109375,16.4501953125 19.04296875,17.109375 16.46484375,16.4501953125 14.6044921875,14.7216796875 13.4765625,12.2607421875 13.095703125,9.404296875 13.4765625,6.5478515625 14.6044921875,4.0869140625 16.46484375,2.3583984375 19.04296875,1.69921875z M27.3046875,0L27.890625,0 38.0859375,8.26171875 36.650390625,10.166015625 29.6484375,4.541015625 29.6484375,44.82421875 27.3046875,44.82421875 27.3046875,22.353515625 10.78125,22.353515625 10.78125,46.40625 10.1953125,46.40625 0,38.14453125 1.55273461341858,36.181640625 8.4375,41.865234375 8.4375,1.611328125 10.78125,1.611328125 10.78125,20.0390625 27.3046875,20.0390625 27.3046875,0z" />
    </g>
  </g>
</svg>