<?xml version="1.0" encoding="utf-8"?>
<!DOCTYPE svg PUBLIC "-//W3C//DTD SVG 1.1//EN" "http://www.w3.org/Graphics/SVG/1.1/DTD/svg11.dtd">
<svg width="29.150390625" height="46.435546875" xmlns="http://www.w3.org/2000/svg" xmlns:xlink="http://www.w3.org/1999/xlink" xmlns:xml="http://www.w3.org/XML/1998/namespace" version="1.1">
  <g>
    <g>
      <path style="fill:#FF0000;fill-opacity:1" d="M10.517578125,2.34375L8.43383693695068,2.7099609375 6.6943359375,3.80859375 5.277099609375,5.562744140625 4.16015625,7.8955078125 3.328857421875,10.777587890625 2.7685546875,14.1796875 2.34375,22.236328125 2.449951171875,27.04833984375 2.7685546875,31.34765625 3.328857421875,35.086669921875 4.16015625,38.2177734375 5.277099609375,40.718994140625 6.6943359375,42.568359375 8.43383693695068,43.7109375 10.517578125,44.091796875 12.037353515625,43.897705078125 13.3740234375,43.3154296875 15.5419921875,41.07421875 17.0947265625,37.4853515625 18.10546875,32.63671875 12.275390625,29.501953125 12.275390625,38.818359375 9.931640625,38.818359375 9.931640625,25.927734375 10.517578125,25.927734375 18.369140625,30.234375 18.603515625,26.42578125 18.69140625,22.236328125 18.33984375,15.05859375 12.275390625,11.77734375 12.275390625,21.09375 9.931640625,21.09375 9.931640625,8.203125 10.517578125,8.203125 17.98828125,12.3046875 16.9482421875,8.173828125 15.3955078125,5.0244140625 13.2568359375,3.0322265625 10.517578125,2.34375z M10.517578125,0L14.267578125,0.747069835662842 15.8349609375,1.717529296875 17.197265625,3.134765625 18.3544902801514,5.020751953125 19.306640625,7.3974609375 20.0537090301514,10.294189453125 20.595703125,13.740234375 26.806640625,17.138671875 26.806640625,7.6171875 29.150390625,7.6171875 29.150390625,20.5078125 28.564453125,20.5078125 20.830078125,16.376953125 20.9765625,19.189453125 21.03515625,22.236328125 20.91796875,27.12890625 20.56640625,31.435546875 26.806640625,34.86328125 26.806640625,25.341796875 29.150390625,25.341796875 29.150390625,38.232421875 28.564453125,38.232421875 20.244140625,33.779296875 19.6298198699951,36.793212890625 18.8415508270264,39.3896484375 17.8793315887451,41.568603515625 16.7431640625,43.330078125 15.4367065429688,44.688720703125 13.963623046875,45.6591796875 12.3239135742188,46.241455078125 10.517578125,46.435546875 8.082275390625,46.0638427734375 5.9619140625,44.94873046875 4.156494140625,43.0902099609375 2.666015625,40.48828125 1.4996337890625,37.1173095703125 0.66650390625,32.95166015625 0.1666259765625,27.9913330078125 0,22.236328125 0.16845703125,16.5600605010986 0.673828125,11.8359375 1.50878870487213,7.994384765625 2.666015625,4.9658203125 4.1455078125,2.706298828125 5.947265625,1.171875 8.07128810882568,0.29296875 10.517578125,0z" />
    </g>
  </g>
</svg>