<?xml version="1.0" encoding="utf-8"?>
<!DOCTYPE svg PUBLIC "-//W3C//DTD SVG 1.1//EN" "http://www.w3.org/Graphics/SVG/1.1/DTD/svg11.dtd">
<svg width="30.46875" height="43.212890625" xmlns="http://www.w3.org/2000/svg" xmlns:xlink="http://www.w3.org/1999/xlink" xmlns:xml="http://www.w3.org/XML/1998/namespace" version="1.1">
  <g>
    <g>
      <path style="fill:#FF0000;fill-opacity:1" d="M27.919921875,0L30.263671875,0 30.263671875,19.306640625 29.677734375,19.306640625 16.201171875,14.35546875 16.201171875,24.4921875 19.0100078582764,24.9462890625 21.5771484375,25.95703125 23.8769512176514,27.4951171875 25.8837890625,29.53125 27.572021484375,32.05078125 28.916015625,35.0390625 29.89013671875,38.47412109375 30.46875,42.333984375 28.125,42.333984375 27.550048828125,38.748779296875 26.6455078125,35.6689453125 25.4479961395264,33.072509765625 23.994140625,30.9375 22.3095684051514,29.256591796875 20.419921875,28.0224609375 18.369140625,27.220458984375 16.201171875,26.8359375 16.201171875,43.212890625 13.857421875,43.212890625 13.857421875,26.865234375 9.6826171875,27.8759765625 7.87719631195068,28.95263671875 6.298828125,30.5126953125 4.947509765625,32.58544921875 3.8232421875,35.2001953125 2.94799780845642,38.426513671875 2.34375,42.333984375 0,42.333984375 0.703125,38.089599609375 1.69921875,34.4970703125 2.98828101158142,31.5087890625 4.5703125,29.0771484375 6.448974609375,27.1875 8.6279296875,25.8251953125 11.099853515625,24.949951171875 13.857421875,24.521484375 13.857421875,11.1328125 14.443359375,11.1328125 27.919921875,16.11328125 27.919921875,0z M5.185546875,0L7.529296875,0 8.671875,3.1494140625 10.3857421875,5.33203125 12.5537109375,6.591796875 15.029296875,7.001953125 17.490234375,6.591796875 19.775390625,5.33203125 21.650390625,3.1494140625 22.939453125,0 25.224609375,0 23.5986328125,3.9404296875 21.1962890625,6.884765625 18.251953125,8.7158203125 15.029296875,9.345703125 11.865234375,8.642578125 8.994140625,6.796875 6.6796875,3.8818359375 5.185546875,0z" />
    </g>
  </g>
</svg>