<?xml version="1.0" encoding="utf-8"?>
<!DOCTYPE svg PUBLIC "-//W3C//DTD SVG 1.1//EN" "http://www.w3.org/Graphics/SVG/1.1/DTD/svg11.dtd">
<svg width="30.46875" height="43.212890625" xmlns="http://www.w3.org/2000/svg" xmlns:xlink="http://www.w3.org/1999/xlink" xmlns:xml="http://www.w3.org/XML/1998/namespace" version="1.1">
  <g>
    <g>
      <path style="fill:#FF0000;fill-opacity:1" d="M14.00390625,1.904296875L16.34765625,1.904296875 16.34765625,10.693359375 14.00390625,10.693359375 14.00390625,1.904296875z M0,0L2.34375,0 2.99926733970642,4.178466796875 3.9697265625,7.5732421875 5.2294921875,10.2685546875 6.7529296875,12.3486328125 8.52905178070068,13.8537616729736 10.546875,14.82421875 15.234375,15.52734375 17.55615234375,15.3002948760986 19.775390625,14.619140625 21.8298320770264,13.4619159698486 23.6572265625,11.806640625 25.2355937957764,9.64599609375 26.54296875,6.97265625 27.5244140625,3.7646484375 28.125,0 30.46875,0 29.893798828125,3.834228515625 28.9306640625,7.2509765625 27.60498046875,10.2282724380493 25.9423828125,12.744140625 23.9611797332764,14.7839374542236 21.6796875,16.3330078125 19.1308574676514,17.3620624542236 16.34765625,17.841796875 16.34765625,37.353515625 15.9375,37.353515625 4.5703125,31.2890625 4.5703125,43.212890625 2.255859375,43.212890625 2.255859375,27.509765625 2.54882764816284,27.509765625 14.00390625,33.6328125 14.00390625,17.841796875 11.220703125,17.4389667510986 8.73046875,16.58203125 6.533203125,15.2307147979736 4.62890625,13.3447265625 3.02123999595642,10.9057626724243 1.7138671875,7.8955078125 0.706787109375,4.273681640625 0,0z" />
    </g>
  </g>
</svg>