<?xml version="1.0" encoding="utf-8"?>
<!DOCTYPE svg PUBLIC "-//W3C//DTD SVG 1.1//EN" "http://www.w3.org/Graphics/SVG/1.1/DTD/svg11.dtd">
<svg width="31.23046875" height="46.435546875" xmlns="http://www.w3.org/2000/svg" xmlns:xlink="http://www.w3.org/1999/xlink" xmlns:xml="http://www.w3.org/XML/1998/namespace" version="1.1">
  <g>
    <g>
      <path style="fill:#FF0000;fill-opacity:1" d="M12.1875,19.833984375L10.3125,24.580078125 15,25.95703125 12.1875,19.833984375z M20.185546875,0L20.771484375,0 31.23046875,8.173828125 29.8828125,9.931640625 22.529296875,4.27734375 22.529296875,43.037109375 21.9433574676514,45.41015625 20.185546875,46.435546875 18.33251953125,45.84228515625 16.875,44.0625 8.90625,27.626953125 5.654296875,34.833984375 3.720703125,33.92578125 7.587890625,26.015625 0,23.14453125 0.439453125,21.123046875 6.9140625,23.525390625 1.46484375,12.3046875 3.310546875,10.869140625 8.96484375,22.5 12.1875,14.677734375 12.65625,14.677734375 18.720703125,28.76953125 18.310546875,29.267578125 11.103515625,26.953125 18.69140625,42.5390625 19.2041015625,43.330078125 19.833984375,43.564453125 20.0976543426514,43.3740234375 20.185546875,42.802734375 20.185546875,0z" />
    </g>
  </g>
</svg>