<?xml version="1.0" encoding="utf-8"?>
<!DOCTYPE svg PUBLIC "-//W3C//DTD SVG 1.1//EN" "http://www.w3.org/Graphics/SVG/1.1/DTD/svg11.dtd">
<svg width="28.5937500000023" height="44.82421875" xmlns="http://www.w3.org/2000/svg" xmlns:xlink="http://www.w3.org/1999/xlink" xmlns:xml="http://www.w3.org/XML/1998/namespace" version="1.1">
  <g>
    <g>
      <path style="fill:#FF0000;fill-opacity:1" d="M3.69140625,35.0390625L6.35009670257568,38.258056640625 8.994140625,40.5908203125 11.630859375,42.008056640625 14.267578125,42.48046875 17.281494140625,42.037353515625 20.1708984375,40.7080078125 22.9577617645264,38.404541015625 25.6640625,35.0390625 27.568359375,36.474609375 24.4299297332764,40.118408203125 21.1669921875,42.7294921875 17.7795391082764,44.300537109375 14.267578125,44.82421875 11.085205078125,44.293212890625 7.9833984375,42.7001953125 4.918212890625,40.081787109375 1.845703125,36.474609375 3.69140625,35.0390625z M13.095703125,21.2109375L15.439453125,21.2109375 15.439453125,27.744140625 23.408203125,27.744140625 23.408203125,30.087890625 15.439453125,30.087890625 15.439453125,37.119140625 13.095703125,37.119140625 13.095703125,30.087890625 5.126953125,30.087890625 5.126953125,27.744140625 13.095703125,27.744140625 13.095703125,21.2109375z M0,0L2.34375,0 2.398681640625,3.922119140625 2.5634765625,7.2509765625 2.87841796875,10.008544921875 3.3837890625,12.216796875 4.097900390625,13.8940448760986 5.0390625,15.05859375 6.24023342132568,15.7397480010986 7.734375,15.966796875 9.19921779632568,15.7507343292236 10.37109375,15.1025390625 11.2939453125,13.9782733917236 12.01171875,12.333984375 12.53173828125,10.147705078125 12.861328125,7.3974609375 13.04443359375,4.031982421875 13.125,0 15.46875,0 15.523681640625,3.922119140625 15.6884765625,7.2509765625 16.00341796875,10.008544921875 16.5087890625,12.216796875 17.222900390625,13.8940448760986 18.1640625,15.05859375 19.3652324676514,15.7397480010986 20.859375,15.966796875 22.3535137176514,15.7397480010986 23.5546875,15.05859375 24.4958477020264,13.8940448760986 25.2099609375,12.216796875 25.71533203125,10.008544921875 26.0302734375,7.2509765625 26.195068359375,3.922119140625 26.25,0 28.59375,0 28.538818359375,3.9404296875 28.3740234375,7.5 28.011474609375,10.6274423599243 27.36328125,13.271484375 26.385498046875,15.4028339385986 25.0341796875,16.9921875 23.2214336395264,17.9809589385986 20.859375,18.310546875 18.427734375,17.8564453125 16.58203125,16.5673828125 15.2197265625,14.560546875 14.267578125,11.923828125 13.330078125,14.560546875 11.982421875,16.5673828125 10.13671875,17.8564453125 7.734375,18.310546875 5.372314453125,17.9809589385986 3.5595703125,16.9921875 2.20825171470642,15.4028339385986 1.23046875,13.271484375 0.582275032997131,10.6274423599243 0.2197265625,7.5 0.0549312829971313,3.9404296875 0,0z" />
    </g>
  </g>
</svg>