<?xml version="1.0" encoding="utf-8"?>
<!DOCTYPE svg PUBLIC "-//W3C//DTD SVG 1.1//EN" "http://www.w3.org/Graphics/SVG/1.1/DTD/svg11.dtd">
<svg width="24.990234375" height="51.2109375" xmlns="http://www.w3.org/2000/svg" xmlns:xlink="http://www.w3.org/1999/xlink" xmlns:xml="http://www.w3.org/XML/1998/namespace" version="1.1">
  <g>
    <g>
      <path style="fill:#FF0000;fill-opacity:1" d="M12.041015625,15.439453125L14.384765625,15.439453125 14.384765625,27.158203125 12.041015625,27.158203125 12.041015625,15.439453125z M22.646484375,7.998046875L24.990234375,7.998046875 24.990234375,44.296875 24.404296875,44.296875 5.80078125,37.998046875 5.80078125,51.2109375 3.45703125,51.2109375 3.45703125,34.892578125 4.04296875,34.892578125 22.646484375,41.103515625 22.646484375,7.998046875z M6.416015625,7.822265625L7.79296875,9.66796875 5.419921875,11.7333984375 3.720703125,14.2529296875 2.6953125,16.9482421875 2.34375,19.541015625 2.6953125,22.1484375 3.720703125,24.84375 5.419921875,27.36328125 7.79296875,29.443359375 6.416015625,31.2890625 3.9990234375,29.23828125 1.9482421875,26.54296875 0.52734375,23.291015625 0,19.5703125 0.52734375,15.849609375 1.9482421875,12.59765625 3.9990234375,9.8876953125 6.416015625,7.822265625z M12.12890625,0L15.9887676239014,0.659182548522949 19.833984375,2.63671875 18.955078125,4.62890625 15.5419921875,2.87109351158142 12.12890625,2.34375 8.935546875,2.87109351158142 5.771484375,4.62890625 4.892578125,2.63671875 8.57666015625,0.659182548522949 12.12890625,0z" />
    </g>
  </g>
</svg>