<?xml version="1.0" encoding="utf-8"?>
<!DOCTYPE svg PUBLIC "-//W3C//DTD SVG 1.1//EN" "http://www.w3.org/Graphics/SVG/1.1/DTD/svg11.dtd">
<svg width="22.587890625" height="44.82421875" xmlns="http://www.w3.org/2000/svg" xmlns:xlink="http://www.w3.org/1999/xlink" xmlns:xml="http://www.w3.org/XML/1998/namespace" version="1.1">
  <g>
    <g>
      <path style="fill:#FF0000;fill-opacity:1" d="M7.939453125,16.904296875L10.4443359375,17.4755859375 12.4365234375,18.9697265625 13.9306640625,21.09375 14.9853515625,23.5546875 15.6298828125,26.0302734375 15.908203125,28.2421875 13.564453125,28.2421875 13.1103515625,25.1220703125 12.0703125,22.2216796875 10.37109375,20.0830078125 9.25048828125,19.456787109375 7.939453125,19.248046875 6.62841749191284,19.478759765625 5.5078125,20.1708984375 3.80859375,22.4560546875 2.783203125,25.3857421875 2.34375,28.2421875 0,28.2421875 0.29296875,25.8984375 0.9521484375,23.37890625 1.9921875,20.947265625 3.4716796875,18.8818359375 5.44921875,17.4462890625 7.939453125,16.904296875z M0,2.05078125L2.34375,2.05078125 2.783203125,4.9072265625 3.80859375,7.8369140625 5.5078125,10.1220703125 6.62841749191284,10.814208984375 7.939453125,11.044921875 9.25048828125,10.836181640625 10.37109375,10.2099609375 12.0703125,8.0712890625 13.1103515625,5.1708984375 13.564453125,2.05078125 15.908203125,2.05078125 15.6298828125,4.2626953125 14.9853515625,6.73828125 13.9306640625,9.19921875 12.4365234375,11.3232421875 10.4443359375,12.8173828125 7.939453125,13.388671875 6.01318311691284,13.0993671417236 4.39453125,12.2314453125 1.9921875,9.345703125 0.5712890625,5.654296875 0,2.05078125z M20.244140625,0L22.587890625,0 22.587890625,44.82421875 22.001953125,44.82421875 0.17578125,35.361328125 1.34765625,33.251953125 20.244140625,41.513671875 20.244140625,0z" />
    </g>
  </g>
</svg>