<?xml version="1.0" encoding="utf-8"?>
<!DOCTYPE svg PUBLIC "-//W3C//DTD SVG 1.1//EN" "http://www.w3.org/Graphics/SVG/1.1/DTD/svg11.dtd">
<svg width="28.271484375" height="51.2109375" xmlns="http://www.w3.org/2000/svg" xmlns:xlink="http://www.w3.org/1999/xlink" xmlns:xml="http://www.w3.org/XML/1998/namespace" version="1.1">
  <g>
    <g>
      <path style="fill:#FF0000;fill-opacity:1" d="M23.7890625,7.998046875L26.1328125,7.998046875 26.1328125,21.123046875 25.546875,21.123046875 14.853515625,14.912109375 14.853515625,34.04296875 25.927734375,40.13671875 25.927734375,26.748046875 28.271484375,26.748046875 28.271484375,43.740234375 27.685546875,43.740234375 14.853515625,36.826171875 14.853515625,51.2109375 12.509765625,51.2109375 12.509765625,35.56640625 2.34375,30.087890625 2.34375,43.154296875 0,43.154296875 0,26.162109375 0.5859375,26.162109375 12.509765625,32.75390625 12.509765625,11.103515625 13.095703125,11.103515625 23.7890625,17.34375 23.7890625,7.998046875z M13.916015625,0L17.7758769989014,0.659182548522949 21.62109375,2.63671875 20.7421875,4.62890625 17.3291015625,2.87109351158142 13.916015625,2.34375 10.72265625,2.87109351158142 7.55859375,4.62890625 6.6796875,2.63671875 10.36376953125,0.659182548522949 13.916015625,0z" />
    </g>
  </g>
</svg>