<?xml version="1.0" encoding="utf-8"?>
<!DOCTYPE svg PUBLIC "-//W3C//DTD SVG 1.1//EN" "http://www.w3.org/Graphics/SVG/1.1/DTD/svg11.dtd">
<svg width="30.76171875" height="46.435546875" xmlns="http://www.w3.org/2000/svg" xmlns:xlink="http://www.w3.org/1999/xlink" xmlns:xml="http://www.w3.org/XML/1998/namespace" version="1.1">
  <g>
    <g>
      <path style="fill:#FF0000;fill-opacity:1" d="M15.380859375,2.34375L12.919921875,2.958984375 10.8251953125,4.6728515625 9.08203125,7.294921875 7.67578125,10.634765625 11.865234375,10.634765625 11.865234375,12.978515625 6.943359375,12.978515625 6.38671875,15.263671875 5.91796875,17.666015625 11.865234375,17.666015625 11.865234375,20.009765625 5.537109375,20.009765625 4.9072265625,26.2060546875 4.716796875,32.138671875 4.921875,36.6357421875 5.56640625,40.4443359375 6.6796875,43.095703125 7.41943264007568,43.8427734375 8.291015625,44.091796875 9.55078029632568,43.85009765625 10.693359375,43.125 12.59765625,40.576171875 13.9453125,36.97265625 14.6484375,32.841796875 16.11328125,32.841796875 17.080078125,37.265625 18.6767578125,40.83984375 20.712890625,43.2275390625 21.8481426239014,43.875732421875 23.02734375,44.091796875 23.8220195770264,43.868408203125 24.5068359375,43.1982421875 25.546875,40.7080078125 26.162109375,36.8701171875 26.3671875,31.904296875 26.220703125,26.1767578125 25.6640625,20.009765625 18.896484375,20.009765625 18.896484375,17.666015625 25.341796875,17.666015625 24.90234375,15.263671875 24.345703125,12.978515625 18.896484375,12.978515625 18.896484375,10.634765625 23.642578125,10.634765625 22.2216796875,7.294921875 20.4052734375,4.6728515625 18.134765625,2.958984375 15.380859375,2.34375z M15.615234375,0L18.9111328125,0.732421398162842 21.7236328125,2.8271484375 24.052734375,6.1669921875 25.8984375,10.634765625 30.76171875,10.634765625 30.76171875,12.978515625 26.572265625,12.978515625 27.099609375,15.2490234375 27.568359375,17.666015625 30.76171875,17.666015625 30.76171875,20.009765625 27.890625,20.009765625 28.4619140625,26.015625 28.65234375,32.578125 28.3154296875,38.173828125 27.2607421875,42.5537109375 26.4404277801514,44.183349609375 25.4150390625,45.41015625 24.1809062957764,46.17919921875 22.734375,46.435546875 20.4180908203125,45.97412109375 18.42041015625,44.58984375 16.7413330078125,42.28271484375 15.380859375,39.052734375 14.35546875,42.0263671875 12.83203125,44.3701171875 10.8251953125,45.8935546875 8.349609375,46.435546875 6.767578125,46.171875 5.478515625,45.380859375 4.449462890625,44.12109375 3.6474609375,42.451171875 2.666015625,38.056640625 2.373046875,32.578125 2.5341796875,26.6748046875 3.1640625,20.009765625 0,20.009765625 0,17.666015625 3.544921875,17.666015625 3.984375,15.29296875 4.51171875,12.978515625 0,12.978515625 0,10.634765625 5.21484375,10.634765625 6.9287109375,6.4306640625 9.1845703125,3.0615234375 12.0556640625,0.820312023162842 13.743896484375,0.205078065395355 15.615234375,0z" />
    </g>
  </g>
</svg>