<?xml version="1.0" encoding="utf-8"?>
<!DOCTYPE svg PUBLIC "-//W3C//DTD SVG 1.1//EN" "http://www.w3.org/Graphics/SVG/1.1/DTD/svg11.dtd">
<svg width="30.46875" height="51.2109375" xmlns="http://www.w3.org/2000/svg" xmlns:xlink="http://www.w3.org/1999/xlink" xmlns:xml="http://www.w3.org/XML/1998/namespace" version="1.1">
  <g>
    <g>
      <path style="fill:#FF0000;fill-opacity:1" d="M22.412109375,34.8046875L24.755859375,34.8046875 24.755859375,51.2109375 22.412109375,51.2109375 22.412109375,34.8046875z M5.712890625,34.8046875L8.056640625,34.8046875 8.056640625,51.2109375 5.712890625,51.2109375 5.712890625,34.8046875z M0,7.998046875L2.34375,7.998046875 2.999267578125,12.176513671875 3.9697265625,15.5712890625 5.2294921875,18.2666015625 6.7529296875,20.3466796875 8.52905178070068,21.8518085479736 10.546875,22.822265625 15.234375,23.525390625 17.5561504364014,23.2983417510986 19.775390625,22.6171875 21.8298320770264,21.4599628448486 23.6572265625,19.8046875 25.235595703125,17.64404296875 26.54296875,14.970703125 27.5244140625,11.7626953125 28.125,7.998046875 30.46875,7.998046875 29.8681640625,11.993408203125 28.828125,15.5419921875 27.388916015625,18.61083984375 25.5908203125,21.1669921875 23.4484844207764,23.1921405792236 20.9765625,24.66796875 18.2226543426514,25.5688495635986 15.234375,25.869140625 12.18017578125,25.6237812042236 9.462890625,24.8876953125 7.07153224945068,23.6132831573486 4.9951171875,21.7529296875 3.24462890625,19.2919921875 1.8310546875,16.2158203125 0.750732064247131,12.469482421875 0,7.998046875z M14.736328125,0L18.5961894989014,0.659182548522949 22.44140625,2.63671875 21.5625,4.62890625 18.1494140625,2.87109351158142 14.736328125,2.34375 11.54296875,2.87109351158142 8.37890625,4.62890625 7.5,2.63671875 11.18408203125,0.659182548522949 14.736328125,0z" />
    </g>
  </g>
</svg>