<?xml version="1.0" encoding="utf-8"?>
<!DOCTYPE svg PUBLIC "-//W3C//DTD SVG 1.1//EN" "http://www.w3.org/Graphics/SVG/1.1/DTD/svg11.dtd">
<svg width="28.4765625" height="51.2109375" xmlns="http://www.w3.org/2000/svg" xmlns:xlink="http://www.w3.org/1999/xlink" xmlns:xml="http://www.w3.org/XML/1998/namespace" version="1.1">
  <g>
    <g>
      <path style="fill:#FF0000;fill-opacity:1" d="M23.02734375,39.4921875L25.37109375,39.4921875 25.37109375,51.2109375 23.02734375,51.2109375 23.02734375,39.4921875z M13.06640625,39.4921875L15.41015625,39.4921875 15.41015625,51.2109375 13.06640625,51.2109375 13.06640625,39.4921875z M3.10546875,39.4921875L5.44921875,39.4921875 5.44921875,51.2109375 3.10546875,51.2109375 3.10546875,39.4921875z M7.67578125,6.38671875L10.078125,7.0166015625 11.923828125,8.759765625 13.2861328125,11.3671875 14.23828125,14.560546875 15.1904296875,11.3671875 16.552734375,8.759765625 18.3837890625,7.0166015625 20.80078125,6.38671875 22.4661235809326,6.59088134765625 23.9172344207764,7.203369140625 25.1541118621826,8.22418212890625 26.1767578125,9.6533203125 27.0071411132813,11.4926147460938 27.667236328125,13.743896484375 28.1570434570313,16.4071655273438 28.4765625,19.482421875 26.1328125,19.482421875 25.535888671875,14.71435546875 24.3896484375,11.3671875 22.7819805145264,9.3896484375 20.80078125,8.73046875 19.7900371551514,8.939208984375 18.92578125,9.5654296875 17.5341796875,11.8212890625 16.552734375,15.0732421875 15.9228515625,18.8818359375 15.556640625,22.8662109375 15.41015625,26.6015625 15.41015625,30.9375 26.396484375,30.9375 26.396484375,33.28125 2.080078125,33.28125 2.080078125,30.9375 13.06640625,30.9375 13.06640625,26.6015625 12.919921875,22.8662109375 12.5537109375,18.8818359375 11.923828125,15.0732421875 10.9423828125,11.8212890625 9.55078125,9.5654296875 8.68652248382568,8.939208984375 7.67578125,8.73046875 5.694580078125,9.3896484375 4.0869140625,11.3671875 2.940673828125,14.71435546875 2.34375,19.482421875 0,19.482421875 0.319518774747849,16.4071655273438 0.809325814247131,13.743896484375 1.46942114830017,11.4926147460938 2.2998046875,9.6533203125 3.32244873046875,8.22418212890625 4.559326171875,7.203369140625 6.01043701171875,6.59088134765625 7.67578125,6.38671875z M14.033203125,0L17.8930644989014,0.659182548522949 21.73828125,2.63671875 20.859375,4.62890625 17.4462890625,2.87109351158142 14.033203125,2.34375 10.83984375,2.87109351158142 7.67578125,4.62890625 6.796875,2.63671875 10.48095703125,0.659182548522949 14.033203125,0z" />
    </g>
  </g>
</svg>