<?xml version="1.0" encoding="utf-8"?>
<!DOCTYPE svg PUBLIC "-//W3C//DTD SVG 1.1//EN" "http://www.w3.org/Graphics/SVG/1.1/DTD/svg11.dtd">
<svg width="28.5937500000039" height="52.822265625" xmlns="http://www.w3.org/2000/svg" xmlns:xlink="http://www.w3.org/1999/xlink" xmlns:xml="http://www.w3.org/XML/1998/namespace" version="1.1">
  <g>
    <g>
      <path style="fill:#FF0000;fill-opacity:1" d="M13.095703125,32.8125L15.439453125,32.8125 15.439453125,41.6015625 13.095703125,41.6015625 13.095703125,32.8125z M14.267578125,21.6796875L13.330078125,24.31640625 11.982421875,26.3232421875 10.13671875,27.6123046875 7.734375,28.06640625 6.533203125,27.978515625 6.6064453125,32.7978515625 6.9287109375,37.8369140625 7.67578125,42.626953125 9.0234375,46.6552734375 11.162109375,49.4384765625 12.5830078125,50.218505859375 14.267578125,50.478515625 15.9521484375,50.218505859375 17.373046875,49.4384765625 19.5263671875,46.6552734375 20.888671875,42.626953125 21.6357421875,37.8515625 21.9580078125,32.8125 22.03125,27.978515625 20.859375,28.06640625 18.427734375,27.6123046875 16.58203125,26.3232421875 15.2197265625,24.31640625 14.267578125,21.6796875z M0,7.998046875L2.34375,7.998046875 2.398681640625,11.98974609375 2.5634765625,15.52734375 2.87841796875,18.57421875 3.3837890625,21.09375 4.097900390625,23.0822772979736 5.0390625,24.5361328125 6.24023342132568,25.4260272979736 7.734375,25.72265625 9.19921779632568,25.4406757354736 10.37109375,24.5947265625 11.2939453125,23.1884784698486 12.01171875,21.2255859375 12.53173828125,18.717041015625 12.861328125,15.673828125 13.04443359375,12.099609375 13.125,7.998046875 15.46875,7.998046875 15.523681640625,11.98974609375 15.6884765625,15.52734375 16.00341796875,18.57421875 16.5087890625,21.09375 17.222900390625,23.0822772979736 18.1640625,24.5361328125 19.3652324676514,25.4260272979736 20.859375,25.72265625 22.3535137176514,25.4260272979736 23.5546875,24.5361328125 24.4958477020264,23.0822772979736 25.2099609375,21.09375 25.71533203125,18.57421875 26.0302734375,15.52734375 26.195068359375,11.98974609375 26.25,7.998046875 28.59375,7.998046875 28.4619140625,14.2822265625 27.890625,19.775390625 26.630859375,24.140625 25.6640625,25.7959003448486 24.404296875,27.01171875 24.31640625,32.9443359375 23.8916015625,38.8330078125 22.91015625,44.23828125 21.1376953125,48.69140625 19.8742656707764,50.39794921875 18.33984375,51.708984375 16.48681640625,52.5439453125 14.267578125,52.822265625 12.04833984375,52.5439453125 10.1953125,51.708984375 8.66088771820068,50.394287109375 7.3974609375,48.6767578125 5.625,44.208984375 4.658203125,38.7890625 4.248046875,32.8857421875 4.16015625,26.982421875 2.900390625,25.7482929229736 1.93359375,24.0966796875 0.6884765625,19.74609375 0.1318359375,14.267578125 0,7.998046875z M13.974609375,0L17.8344707489014,0.659182548522949 21.6796875,2.63671875 20.80078125,4.62890672683716 17.3876953125,2.87109351158142 13.974609375,2.34374976158142 10.78125,2.87109351158142 7.6171875,4.62890672683716 6.73828125,2.63671875 10.42236328125,0.659182548522949 13.974609375,0z" />
    </g>
  </g>
</svg>