<?xml version="1.0" encoding="utf-8"?>
<!DOCTYPE svg PUBLIC "-//W3C//DTD SVG 1.1//EN" "http://www.w3.org/Graphics/SVG/1.1/DTD/svg11.dtd">
<svg width="27.919921875" height="46.435546875" xmlns="http://www.w3.org/2000/svg" xmlns:xlink="http://www.w3.org/1999/xlink" xmlns:xml="http://www.w3.org/XML/1998/namespace" version="1.1">
  <g>
    <g>
      <path style="fill:#FF0000;fill-opacity:1" d="M16.259765625,16.962890625L18.603515625,16.962890625 18.603515625,28.681640625 16.259765625,28.681640625 16.259765625,16.962890625z M17.40234375,2.34375L15.318603515625,2.74658203125 13.5791015625,3.955078125 12.161865234375,5.86669921875 11.044921875,8.37890625 10.213623046875,11.4404296875 9.6533203125,15 9.228515625,23.203125 9.6533203125,31.40625 10.213623046875,34.969482421875 11.044921875,38.0419921875 12.161865234375,40.565185546875 13.5791015625,42.48046875 15.318603515625,43.68896484375 17.40234375,44.091796875 19.4860820770264,43.68896484375 21.2255859375,42.48046875 22.6428203582764,40.565185546875 23.759765625,38.0419921875 24.591064453125,34.969482421875 25.1513671875,31.40625 25.576171875,23.203125 25.1513671875,15 24.591064453125,11.4404296875 23.759765625,8.37890625 22.6428203582764,5.86669921875 21.2255859375,3.955078125 19.4860820770264,2.74658203125 17.40234375,2.34375z M0,1.611328125L2.34375,1.611328125 2.34375,44.82421875 0,44.82421875 0,1.611328125z M17.40234375,0L19.8303203582764,0.32958984375 21.9580078125,1.318359375 23.7707500457764,3.01025390625 25.25390625,5.44921875 26.4111328125,8.6572265625 27.24609375,12.65625 27.75146484375,17.4902362823486 27.919921875,23.203125 27.75146484375,28.916015625 27.24609375,33.75 26.4111328125,37.752685546875 25.25390625,40.9716796875 23.7707500457764,43.421630859375 21.9580078125,45.1171875 19.8303203582764,46.10595703125 17.40234375,46.435546875 14.9560546875,46.10595703125 12.83203125,45.1171875 11.0302734375,43.421630859375 9.55078125,40.9716796875 8.3935546875,37.752685546875 7.55859375,33.75 7.05322170257568,28.916015625 6.884765625,23.203125 7.05322170257568,17.4902362823486 7.55859375,12.65625 8.3935546875,8.6572265625 9.55078125,5.44921875 11.0302734375,3.01025390625 12.83203125,1.318359375 14.9560546875,0.32958984375 17.40234375,0z" />
    </g>
  </g>
</svg>