<?xml version="1.0" encoding="utf-8"?>
<!DOCTYPE svg PUBLIC "-//W3C//DTD SVG 1.1//EN" "http://www.w3.org/Graphics/SVG/1.1/DTD/svg11.dtd">
<svg width="31.611328125" height="52.822265625" xmlns="http://www.w3.org/2000/svg" xmlns:xlink="http://www.w3.org/1999/xlink" xmlns:xml="http://www.w3.org/XML/1998/namespace" version="1.1">
  <g>
    <g>
      <path style="fill:#FF0000;fill-opacity:1" d="M7.412109375,9.375L8.37890625,11.71875 5.848388671875,13.7109375 3.9404296875,15.99609375 2.74291968345642,18.57421875 2.34375,21.4453125 2.74291968345642,24.3127460479736 3.9404296875,26.8798828125 5.848388671875,29.154052734375 8.37890625,31.142578125 7.412109375,33.486328125 4.324951171875,31.014404296875 1.9775390625,28.2275390625 0.494384765625,25.0598163604736 0,21.4453125 0.494384765625,17.8271484375 1.9775390625,14.6484375 4.324951171875,11.8505859375 7.412109375,9.375z M16.7578125,6.38671922683716L17.34375,6.38671922683716 31.611328125,14.794921875 30.46875,16.81640625 19.1015625,10.166015625 19.1015625,52.822265625 18.515625,52.822265625 4.16015625,44.1796875 5.33203125,42.275390625 16.7578125,49.130859375 16.7578125,25.60546875 6.9140625,21.767578125 7.8515625,19.599609375 16.7578125,23.14453125 16.7578125,6.38671922683716z M15.17578125,0L19.0356426239014,0.659182548522949 22.880859375,2.63671875 22.001953125,4.62890672683716 18.5888671875,2.87109351158142 15.17578125,2.34374976158142 11.982421875,2.87109351158142 8.818359375,4.62890672683716 7.939453125,2.63671875 11.62353515625,0.659182548522949 15.17578125,0z" />
    </g>
  </g>
</svg>