<?xml version="1.0" encoding="utf-8"?>
<!DOCTYPE svg PUBLIC "-//W3C//DTD SVG 1.1//EN" "http://www.w3.org/Graphics/SVG/1.1/DTD/svg11.dtd">
<svg width="28.271484375" height="43.212890625" xmlns="http://www.w3.org/2000/svg" xmlns:xlink="http://www.w3.org/1999/xlink" xmlns:xml="http://www.w3.org/XML/1998/namespace" version="1.1">
  <g>
    <g>
      <path style="fill:#FF0000;fill-opacity:1" d="M22.060546875,27.392578125L24.404296875,27.392578125 24.404296875,39.111328125 22.060546875,39.111328125 22.060546875,27.392578125z M3.89648485183716,27.392578125L6.24023485183716,27.392578125 6.24023485183716,39.111328125 3.89648485183716,39.111328125 3.89648485183716,27.392578125z M5.65429735183716,0L22.646484375,0 22.646484375,2.34375 15.322265625,2.34375 15.322265625,14.82421875 25.927734375,20.654296875 25.927734375,7.265625 28.271484375,7.265625 28.271484375,24.2578125 27.685546875,24.2578125 15.322265625,17.607421875 15.322265625,43.212890625 12.978515625,43.212890625 12.978515625,16.34765625 2.34375047683716,10.60546875 2.34375047683716,23.671875 0,23.671875 0,6.6796875 0.585937976837158,6.6796875 12.978515625,13.53515625 12.978515625,2.34375 5.65429735183716,2.34375 5.65429735183716,0z" />
    </g>
  </g>
</svg>