<?xml version="1.0" encoding="utf-8"?>
<!DOCTYPE svg PUBLIC "-//W3C//DTD SVG 1.1//EN" "http://www.w3.org/Graphics/SVG/1.1/DTD/svg11.dtd">
<svg width="24.84375" height="51.2109375" xmlns="http://www.w3.org/2000/svg" xmlns:xlink="http://www.w3.org/1999/xlink" xmlns:xml="http://www.w3.org/XML/1998/namespace" version="1.1">
  <g>
    <g>
      <path style="fill:#FF0000;fill-opacity:1" d="M12.685546875,13.59375L11.0302734375,14.0478515625 9.9169921875,15.2490234375 9.287109375,16.962890625 9.08203125,18.955078125 9.287109375,20.947265625 9.9169921875,22.6611328125 11.0302734375,23.8623046875 12.685546875,24.31640625 14.3408203125,23.8623046875 15.4541015625,22.6611328125 16.083984375,20.9619140625 16.2890625,18.984375 16.083984375,16.9775390625 15.4541015625,15.2490234375 14.3408203125,14.0478515625 12.685546875,13.59375z M12.685546875,11.25L15.263671875,11.9091796875 17.1240234375,13.65234375 18.251953125,16.1279296875 18.6328125,18.984375 18.251953125,21.796875 17.1240234375,24.2578125 15.263671875,26.0009765625 12.685546875,26.66015625 10.107421875,26.0009765625 8.2470703125,24.2724609375 7.119140625,21.8115234375 6.73828125,18.955078125 7.119140625,16.0986328125 8.2470703125,13.6376953125 10.107421875,11.9091796875 12.685546875,11.25z M22.5,7.998046875L24.84375,7.998046875 24.84375,45.1171875 24.2578125,45.41015625 8.466796875,37.5 8.466796875,51.2109375 6.123046875,51.2109375 6.123046875,34.39453125 6.708984375,34.1015625 22.5,42.158203125 22.5,7.998046875z M7.998046875,6.38671875L8.96484375,8.73046875 5.8447265625,10.7373046875 3.7939453125,13.0224609375 2.6806640625,15.6005859375 2.34375,18.45703125 2.87109375,21.9140625 4.658203125,24.931640625 2.98828125,26.689453125 1.607666015625,24.8620624542236 0.6884765625,22.8955078125 0,18.45703125 0.439453125,14.853515625 1.8310546875,11.66015625 4.306640625,8.84765625 7.998046875,6.38671875z M12.1875,0L16.0473613739014,0.659182548522949 19.892578125,2.63671875 19.013671875,4.62890625 15.6005859375,2.87109351158142 12.1875,2.34375 8.994140625,2.87109351158142 5.830078125,4.62890625 4.951171875,2.63671875 8.63525390625,0.659182548522949 12.1875,0z" />
    </g>
  </g>
</svg>