<?xml version="1.0" encoding="utf-8"?>
<!DOCTYPE svg PUBLIC "-//W3C//DTD SVG 1.1//EN" "http://www.w3.org/Graphics/SVG/1.1/DTD/svg11.dtd">
<svg width="29.384765625" height="51.2109375" xmlns="http://www.w3.org/2000/svg" xmlns:xlink="http://www.w3.org/1999/xlink" xmlns:xml="http://www.w3.org/XML/1998/namespace" version="1.1">
  <g>
    <g>
      <path style="fill:#FF0000;fill-opacity:1" d="M5.947265625,34.62890625L4.2919921875,35.0830078125 3.1787109375,36.2841796875 2.548828125,37.998046875 2.34375,39.990234375 2.548828125,41.982421875 3.1787109375,43.6962890625 4.2919921875,44.8974609375 5.947265625,45.3515625 7.6025390625,44.8974609375 8.7158203125,43.6962890625 9.345703125,41.9970703125 9.55078125,40.01953125 9.345703125,38.0126953125 8.7158203125,36.2841796875 7.6025390625,35.0830078125 5.947265625,34.62890625z M5.947265625,13.330078125L4.2919921875,13.7841796875 3.1787109375,14.9853515625 2.548828125,16.69921875 2.34375,18.69140625 2.548828125,20.68359375 3.1787109375,22.3974609375 4.2919921875,23.5986328125 5.947265625,24.052734375 7.6025390625,23.5986328125 8.7158203125,22.3974609375 9.345703125,20.6982421875 9.55078125,18.720703125 9.345703125,16.7138671875 8.7158203125,14.9853515625 7.6025390625,13.7841796875 5.947265625,13.330078125z M17.9296875,6.38671875L18.515625,6.38671875 29.384765625,15.498046875 28.0078125,17.34375 20.2734375,10.751953125 20.2734375,51.2109375 17.9296875,51.2109375 17.9296875,41.162109375 11.8359375,41.162109375 11.25,43.6376953125 10.0634765625,45.7177734375 8.291015625,47.1533203125 5.947265625,47.6953125 3.369140625,47.0361328125 1.50878953933716,45.3076171875 0.380858898162842,42.8466796875 0,39.990234375 0.380858898162842,37.1337890625 1.50878953933716,34.6728515625 3.369140625,32.9443359375 5.947265625,32.28515625 8.291015625,32.8271484375 10.0634765625,34.2626953125 11.25,36.3427734375 11.8359375,38.818359375 17.9296875,38.818359375 17.9296875,19.86328125 11.8359375,19.86328125 11.25,22.3388671875 10.0634765625,24.4189453125 8.291015625,25.8544921875 5.947265625,26.396484375 3.369140625,25.7373046875 1.50878953933716,24.0087890625 0.380858898162842,21.5478515625 0,18.69140625 0.380858898162842,15.8349609375 1.50878953933716,13.3740234375 3.369140625,11.6455078125 5.947265625,10.986328125 8.291015625,11.5283203125 10.0634765625,12.9638671875 11.25,15.0439453125 11.8359375,17.51953125 17.9296875,17.51953125 17.9296875,6.38671875z M14.47265625,0L18.3325176239014,0.659182548522949 22.177734375,2.63671875 21.298828125,4.62890625 17.8857421875,2.87109351158142 14.47265625,2.34375 11.279296875,2.87109351158142 8.115234375,4.62890625 7.236328125,2.63671875 10.92041015625,0.659182548522949 14.47265625,0z" />
    </g>
  </g>
</svg>