<?xml version="1.0" encoding="utf-8"?>
<!DOCTYPE svg PUBLIC "-//W3C//DTD SVG 1.1//EN" "http://www.w3.org/Graphics/SVG/1.1/DTD/svg11.dtd">
<svg width="32.958984375" height="44.82421875" xmlns="http://www.w3.org/2000/svg" xmlns:xlink="http://www.w3.org/1999/xlink" xmlns:xml="http://www.w3.org/XML/1998/namespace" version="1.1">
  <g>
    <g>
      <path style="fill:#FF0000;fill-opacity:1" d="M24.052734375,2.34375L21.4599609375,3.0322265625 19.658203125,4.9365234375 18.5009765625,7.8515625 17.8564453125,11.5869140625 17.5634765625,15.9228515625 17.490234375,20.625 17.52685546875,24.510498046875 17.63671875,27.9638671875 17.8857421875,30.963134765625 18.33984375,33.486328125 19.0283203125,35.533447265625 19.98046875,37.1044921875 21.2622051239014,38.177490234375 22.939453125,38.73046875 22.939453125,29.12109375 25.283203125,29.12109375 25.283203125,38.73046875 26.9128398895264,38.15185546875 28.1689453125,37.060546875 29.1064453125,35.478515625 29.7802734375,33.427734375 30.223388671875,30.908203125 30.46875,27.919921875 30.57861328125,24.48486328125 30.615234375,20.625 30.5419921875,15.8056640625 30.2490234375,11.455078125 29.6044921875,7.7490234375 28.447265625,4.86328125 26.630859375,3.0029296875 24.052734375,2.34375z M6.94335889816284,0L7.64648389816284,0 16.025390625,8.203125 17.142333984375,4.50439453125 18.7939453125,1.962890625 21.0681133270264,0.49072265625 24.052734375,0 26.4147930145264,0.289306640625 28.3447265625,1.1572265625 29.886474609375,2.6513671875 31.083984375,4.8193359375 31.959228515625,7.67578125 32.5341796875,11.2353515625 32.852783203125,15.5383319854736 32.958984375,20.625 32.867431640625,25.4296875 32.5927734375,29.53125 32.098388671875,32.962646484375 31.34765625,35.7568359375 30.318603515625,37.939453125 28.9892578125,39.5361328125 27.322998046875,40.579833984375 25.283203125,41.103515625 25.283203125,44.82421875 22.939453125,44.82421875 22.939453125,41.103515625 20.8520488739014,40.60546875 19.16015625,39.580078125 17.816162109375,37.994384765625 16.7724609375,35.8154296875 16.0107421875,33.017578125 15.5126953125,29.5751953125 15.238037109375,25.455322265625 15.146484375,20.625 15.263671875,15.3076171875 15.615234375,10.869140625 9.404296875,4.658203125 9.404296875,41.89453125 8.701171875,41.89453125 0,33.076171875 1.46484327316284,31.171875 6.94335889816284,36.796875 6.94335889816284,0z" />
    </g>
  </g>
</svg>