<?xml version="1.0" encoding="utf-8"?>
<!DOCTYPE svg PUBLIC "-//W3C//DTD SVG 1.1//EN" "http://www.w3.org/Graphics/SVG/1.1/DTD/svg11.dtd">
<svg width="20.21484375" height="44.94140625" xmlns="http://www.w3.org/2000/svg" xmlns:xlink="http://www.w3.org/1999/xlink" xmlns:xml="http://www.w3.org/XML/1998/namespace" version="1.1">
  <g>
    <g>
      <path style="fill:#FF0000;fill-opacity:1" d="M5.5078125,26.953125L4.10522365570068,27.2021484375 3.1201171875,27.94921875 2.53784108161926,29.06982421875 2.34375,30.439453125 2.7978515625,32.34375 3.92578125,34.21875 5.4052734375,35.9326171875 6.9140625,37.32421875 8.4375,34.482421875 8.935546875,30.908203125 8.734130859375,29.205322265625 8.1298828125,27.9638671875 7.071533203125,27.205810546875 5.5078125,26.953125z M3.779296875,3.57421875L6.123046875,3.57421875 6.123046875,19.98046875 3.779296875,19.98046875 3.779296875,3.57421875z M17.87109375,0L20.21484375,0 20.21484375,36.9140625 19.8193340301514,39.715576171875 18.6328125,41.6748046875 16.7724590301514,42.828369140625 14.35546875,43.212890625 10.8837890625,42.3046875 7.3828125,40.458984375 4.98046827316284,42.78076171875 1.875,44.94140625 0.556640625,43.154296875 3.33984375,41.1328125 5.595703125,39.0234375 3.544921875,37.08984375 1.7578125,35.0537109375 0.4833984375,32.7392578125 0,29.94140625 0.3515625,28.125 1.4208984375,26.396484375 3.2080078125,25.107421875 5.712890625,24.609375 7.763671875,25.01953125 9.55078125,26.2353515625 10.810546875,28.212890625 11.279296875,30.908203125 11.1181640625,33.134765625 10.6494140625,35.09765625 9.873046875,36.9140625 8.759765625,38.701171875 11.455078125,40.2099609375 14.35546875,40.869140625 15.6884765625,40.693359375 16.8017578125,40.0634765625 17.578125,38.84765625 17.87109375,36.9140625 17.87109375,0z" />
    </g>
  </g>
</svg>