<?xml version="1.0" encoding="utf-8"?>
<!DOCTYPE svg PUBLIC "-//W3C//DTD SVG 1.1//EN" "http://www.w3.org/Graphics/SVG/1.1/DTD/svg11.dtd">
<svg width="31.9921875" height="51.2109375" xmlns="http://www.w3.org/2000/svg" xmlns:xlink="http://www.w3.org/1999/xlink" xmlns:xml="http://www.w3.org/XML/1998/namespace" version="1.1">
  <g>
    <g>
      <path style="fill:#FF0000;fill-opacity:1" d="M1.552734375,26.54296875L3.486328125,28.3740234375 5.2587890625,29.501953125 6.97265625,30.087890625 8.73046875,30.263671875 10.48828125,30.1025390625 12.2021484375,29.5166015625 13.9892578125,28.3740234375 15.9375,26.54296875 17.490234375,27.919921875 15.3369140625,30.0732421875 13.2421875,31.5234375 11.07421875,32.34375 8.73046875,32.607421875 6.38671875,32.34375 4.21875,31.5087890625 2.12402296066284,30.0439453125 0,27.919921875 1.552734375,26.54296875z M7.55859375,14.443359375L9.90234375,14.443359375 9.90234375,19.130859375 14.58984375,19.130859375 14.58984375,21.474609375 9.90234375,21.474609375 9.90234375,26.162109375 7.55859375,26.162109375 7.55859375,21.474609375 2.87109375,21.474609375 2.87109375,19.130859375 7.55859375,19.130859375 7.55859375,14.443359375z M8.73046875,7.998046875L11.07421875,8.26171875 13.2421875,9.08203125 15.3369140625,10.5322265625 17.490234375,12.685546875 15.9375,14.0625 13.9892578125,12.2314453125 12.2021484375,11.0888671875 10.48828125,10.5029296875 8.73046875,10.341796875 6.97265625,10.517578125 5.2587890625,11.103515625 3.486328125,12.24609375 1.552734375,14.0625 0,12.685546875 2.12402296066284,10.546875 4.21875,9.0966796875 6.38671875,8.26171875 8.73046875,7.998046875z M21.181640625,6.38671875L21.767578125,6.38671875 31.9921875,13.0078125 30.615234375,14.853515625 23.525390625,10.166015625 23.525390625,45.087890625 22.939453125,45.087890625 7.265625,39.31640625 7.265625,51.2109375 4.921875,51.2109375 4.921875,36.064453125 5.5078125,36.064453125 21.181640625,41.8359375 21.181640625,6.38671875z M16.0546875,0L19.9145488739014,0.659182548522949 23.759765625,2.63671875 22.880859375,4.62890625 19.4677734375,2.87109351158142 16.0546875,2.34375 12.861328125,2.87109351158142 9.697265625,4.62890625 8.818359375,2.63671875 12.50244140625,0.659182548522949 16.0546875,0z" />
    </g>
  </g>
</svg>