<?xml version="1.0" encoding="utf-8"?>
<!DOCTYPE svg PUBLIC "-//W3C//DTD SVG 1.1//EN" "http://www.w3.org/Graphics/SVG/1.1/DTD/svg11.dtd">
<svg width="29.912109375" height="52.822265625" xmlns="http://www.w3.org/2000/svg" xmlns:xlink="http://www.w3.org/1999/xlink" xmlns:xml="http://www.w3.org/XML/1998/namespace" version="1.1">
  <g>
    <g>
      <path style="fill:#FF0000;fill-opacity:1" d="M25.576171875,7.998046875L27.919921875,7.998046875 27.919921875,23.3203125 27.333984375,23.3203125 11.044921875,15.703125 11.044921875,34.6875 28.828125,25.48828125 29.912109375,27.568359375 12.099609375,36.796875 29.912109375,45.99609375 28.828125,48.076171875 11.044921875,38.876953125 11.044921875,52.822265625 10.458984375,52.822265625 0,44.35546875 1.494140625,42.333984375 8.701171875,48.28125 8.701171875,12.099609375 9.287109375,12.099609375 25.576171875,19.892578125 25.576171875,7.998046875z M14.70703125,0L18.5668926239014,0.659182548522949 22.412109375,2.63671875 21.533203125,4.62890672683716 18.1201171875,2.87109351158142 14.70703125,2.34374976158142 11.513671875,2.87109351158142 8.349609375,4.62890672683716 7.470703125,2.63671875 11.15478515625,0.659182548522949 14.70703125,0z" />
    </g>
  </g>
</svg>