<?xml version="1.0" encoding="utf-8"?>
<!DOCTYPE svg PUBLIC "-//W3C//DTD SVG 1.1//EN" "http://www.w3.org/Graphics/SVG/1.1/DTD/svg11.dtd">
<svg width="30.791015625" height="51.2109375" xmlns="http://www.w3.org/2000/svg" xmlns:xlink="http://www.w3.org/1999/xlink" xmlns:xml="http://www.w3.org/XML/1998/namespace" version="1.1">
  <g>
    <g>
      <path style="fill:#FF0000;fill-opacity:1" d="M18.134765625,27.392578125L14.21630859375,27.777099609375 10.95703125,28.5205078125 8.30200099945068,29.578857421875 6.1962890625,30.908203125 4.62158203125,32.48291015625 3.5595703125,34.27734375 2.95532202720642,36.240234375 2.75390625,38.3203125 2.96630835533142,40.535888671875 3.603515625,42.4951171875 4.7021484375,44.1943359375 6.298828125,45.6298828125 8.41552639007568,46.798095703125 11.07421875,47.6953125 14.30419921875,48.310546875 18.134765625,48.6328125 18.134765625,27.392578125z M5.947265625,8.73046875L4.2919921875,9.1845703125 3.1787109375,10.3857421875 2.548828125,12.099609375 2.34375,14.091796875 2.548828125,16.083984375 3.1787109375,17.7978515625 4.2919921875,18.9990234375 5.947265625,19.453125 7.6025390625,18.9990234375 8.7158203125,17.7978515625 9.345703125,16.0986328125 9.55078125,14.12109375 9.345703125,12.1142578125 8.7158203125,10.3857421875 7.6025390625,9.1845703125 5.947265625,8.73046875z M18.134765625,6.38671875L18.720703125,6.38671875 30.791015625,14.384765625 29.82421875,16.728515625 20.478515625,10.6640625 20.478515625,51.2109375 15.46142578125,50.980224609375 11.25,50.2880859375 7.79296779632568,49.1748046875 5.0390625,47.6806640625 2.95898413658142,45.8203125 1.52343702316284,43.6083984375 0.688476502895355,41.092529296875 0.41015625,38.3203125 0.651855409145355,35.85205078125 1.37695264816284,33.486328125 2.63671851158142,31.2890625 4.482421875,29.326171875 6.925048828125,27.637939453125 9.9755859375,26.2646484375 13.692626953125,25.2795429229736 18.134765625,24.755859375 18.134765625,6.38671875z M5.947265625,6.38671875L8.525390625,7.04589891433716 10.3857421875,8.7890625 11.513671875,11.2646484375 11.89453125,14.12109375 11.513671875,16.93359375 10.3857421875,19.39453125 8.525390625,21.1376953125 5.947265625,21.796875 3.369140625,21.1376953125 1.50878858566284,19.4091796875 0.380859375,16.9482421875 0,14.091796875 0.380859375,11.2353515625 1.50878858566284,8.7744140625 3.369140625,7.04589891433716 5.947265625,6.38671875z M15.205078125,0L19.0649394989014,0.659182548522949 22.91015625,2.63671875 22.03125,4.62890625 18.6181640625,2.87109351158142 15.205078125,2.34375 12.01171875,2.87109351158142 8.84765625,4.62890625 7.96875,2.63671875 11.65283203125,0.659182548522949 15.205078125,0z" />
    </g>
  </g>
</svg>