<?xml version="1.0" encoding="utf-8"?>
<!DOCTYPE svg PUBLIC "-//W3C//DTD SVG 1.1//EN" "http://www.w3.org/Graphics/SVG/1.1/DTD/svg11.dtd">
<svg width="27.568359375" height="51.2109375" xmlns="http://www.w3.org/2000/svg" xmlns:xlink="http://www.w3.org/1999/xlink" xmlns:xml="http://www.w3.org/XML/1998/namespace" version="1.1">
  <g>
    <g>
      <path style="fill:#FF0000;fill-opacity:1" d="M21.15234375,24.814453125L23.49609375,24.814453125 23.49609375,33.603515625 21.15234375,33.603515625 21.15234375,24.814453125z M3.57421875,24.814453125L5.91796875,24.814453125 5.91796875,33.603515625 3.57421875,33.603515625 3.57421875,24.814453125z M0,7.998046875L2.40234375,7.998046875 3.92578125,12.6708984375 6.2548828125,16.3037109375 9.1552734375,18.7646484375 12.36328125,19.951171875 12.36328125,7.998046875 14.70703125,7.998046875 14.70703125,19.951171875 17.9443359375,18.7646484375 20.9912109375,16.3037109375 23.525390625,12.6708984375 25.224609375,7.998046875 27.568359375,7.998046875 25.517578125,13.6962890625 22.4853515625,18.1201171875 20.7019023895264,19.7863788604736 18.779296875,21.064453125 16.76513671875,21.9287128448486 14.70703125,22.353515625 14.70703125,37.470703125 26.42578125,37.470703125 26.42578125,39.814453125 14.70703125,39.814453125 14.70703125,48.8671875 26.42578125,48.8671875 26.42578125,51.2109375 0.644530773162842,51.2109375 0.644530773162842,48.8671875 12.36328125,48.8671875 12.36328125,39.814453125 0.644530773162842,39.814453125 0.644530773162842,37.470703125 12.36328125,37.470703125 12.36328125,22.265625 10.338134765625,21.7712421417236 8.3642578125,20.8740234375 4.775390625,17.958984375 1.8896484375,13.6376953125 0,7.998046875z M13.2421875,0L17.1020488739014,0.659182548522949 20.947265625,2.63671875 20.068359375,4.62890625 16.6552734375,2.87109351158142 13.2421875,2.34375 10.048828125,2.87109351158142 6.884765625,4.62890625 6.005859375,2.63671875 9.68994140625,0.659182548522949 13.2421875,0z" />
    </g>
  </g>
</svg>