<?xml version="1.0" encoding="utf-8"?>
<!DOCTYPE svg PUBLIC "-//W3C//DTD SVG 1.1//EN" "http://www.w3.org/Graphics/SVG/1.1/DTD/svg11.dtd">
<svg width="29.296875" height="44.82421875" xmlns="http://www.w3.org/2000/svg" xmlns:xlink="http://www.w3.org/1999/xlink" xmlns:xml="http://www.w3.org/XML/1998/namespace" version="1.1">
  <g>
    <g>
      <path style="fill:#FF0000;fill-opacity:1" d="M14.6484375,2.34375L9.66796875,2.860107421875 6.15234375,4.4091796875 4.06494140625,6.866455078125 3.369140625,10.107421875 4.06494140625,13.3667001724243 6.15234375,15.8203125 9.66796875,17.3584003448486 14.6484375,17.87109375 19.6289043426514,17.3547382354736 23.14453125,15.8056640625 25.2319316864014,13.3557138442993 25.927734375,10.13671875 25.2392578125,6.8701171875 23.14453125,4.4091796875 19.6142578125,2.87109375 14.6484375,2.34375z M14.6484375,0L17.8115825653076,0.16387939453125 20.5627422332764,0.655517578125 22.9019145965576,1.47491455078125 24.8291015625,2.6220703125 26.3351440429688,4.07501220703125 27.410888671875,5.811767578125 28.0563354492188,7.83233642578125 28.271484375,10.13671875 28.0755615234375,12.3358163833618 27.48779296875,14.2749042510986 26.5081787109375,15.9539804458618 25.13671875,17.373046875 23.3789043426514,18.5156269073486 21.2402324676514,19.3652362823486 18.7207012176514,19.9218769073486 15.8203125,20.185546875 15.8203125,26.015625 29.296875,26.015625 29.296875,28.359375 15.8203125,28.359375 15.8203125,35.126953125 29.296875,35.126953125 29.296875,37.470703125 15.8203125,37.470703125 15.8203125,44.82421875 13.4765625,44.82421875 13.4765625,37.470703125 0,37.470703125 0,35.126953125 13.4765625,35.126953125 13.4765625,28.359375 0,28.359375 0,26.015625 13.4765625,26.015625 13.4765625,20.185546875 10.5761709213257,19.9209613800049 8.05663967132568,19.3615741729736 5.91796827316284,18.5073871612549 4.16015625,17.3583984375 2.78869605064392,15.9329233169556 1.80908167362213,14.2492694854736 1.22131323814392,12.3074350357056 1.025390625,10.107421875 1.24053931236267,7.803955078125 1.88598608970642,5.7861328125 2.96173095703125,4.053955078125 4.4677734375,2.607421875 6.39495801925659,1.4666748046875 8.734130859375,0.65185546875 11.4852905273438,0.1629638671875 14.6484375,0z" />
    </g>
  </g>
</svg>