<?xml version="1.0" encoding="utf-8"?>
<!DOCTYPE svg PUBLIC "-//W3C//DTD SVG 1.1//EN" "http://www.w3.org/Graphics/SVG/1.1/DTD/svg11.dtd">
<svg width="25.83984375" height="51.2109375" xmlns="http://www.w3.org/2000/svg" xmlns:xlink="http://www.w3.org/1999/xlink" xmlns:xml="http://www.w3.org/XML/1998/namespace" version="1.1">
  <g>
    <g>
      <path style="fill:#FF0000;fill-opacity:1" d="M11.77734375,42.421875L14.12109375,42.421875 14.12109375,51.2109375 11.77734375,51.2109375 11.77734375,42.421875z M11.77734375,7.998046875L14.12109375,7.998046875 14.12109375,16.787109375 11.77734375,16.787109375 11.77734375,7.998046875z M0.0585932731628418,7.998046875L2.6953125,7.998046875 12.919921875,27.12890625 23.203125,7.998046875 25.83984375,7.998046875 14.23828125,29.58984375 25.83984375,51.2109375 23.203125,51.2109375 12.919921875,32.05078125 2.63671875,51.2109375 0,51.2109375 11.6015625,29.58984375 0.0585932731628418,7.998046875z M12.65625,0L16.5161113739014,0.659182548522949 20.361328125,2.63671875 19.482421875,4.62890625 16.0693359375,2.87109351158142 12.65625,2.34375 9.462890625,2.87109351158142 6.298828125,4.62890625 5.419921875,2.63671875 9.10400390625,0.659182548522949 12.65625,0z" />
    </g>
  </g>
</svg>