<?xml version="1.0" encoding="utf-8"?>
<!DOCTYPE svg PUBLIC "-//W3C//DTD SVG 1.1//EN" "http://www.w3.org/Graphics/SVG/1.1/DTD/svg11.dtd">
<svg width="27.65625" height="52.822265625" xmlns="http://www.w3.org/2000/svg" xmlns:xlink="http://www.w3.org/1999/xlink" xmlns:xml="http://www.w3.org/XML/1998/namespace" version="1.1">
  <g>
    <g>
      <path style="fill:#FF0000;fill-opacity:1" d="M0,29.12109375L11.42578125,29.12109375 11.42578125,31.46484375 0,31.46484375 0,29.12109375z M7.8515625,12.1875L10.1953125,12.1875 10.1953125,25.078125 7.8515625,25.078125 7.8515625,12.1875z M1.40625,12.1875L3.75,12.1875 3.75,25.078125 1.40625,25.078125 1.40625,12.1875z M13.9453125,7.998046875L16.2890625,7.998046875 16.2890625,26.572265625 25.3125,26.572265625 25.3125,7.998046875 27.65625,7.998046875 27.65625,51.2109375 25.3125,51.2109375 25.3125,28.88671875 16.2890625,28.88671875 16.2890625,52.822265625 15.703125,52.822265625 5.5078125,44.560546875 6.85546875,42.509765625 13.9453125,48.28125 13.9453125,7.998046875z M13.59375,0L17.4536113739014,0.659182548522949 21.298828125,2.63671875 20.419921875,4.62890672683716 17.0068359375,2.87109351158142 13.59375,2.34374976158142 10.400390625,2.87109351158142 7.236328125,4.62890672683716 6.357421875,2.63671875 10.04150390625,0.659182548522949 13.59375,0z" />
    </g>
  </g>
</svg>