<?xml version="1.0" encoding="utf-8"?>
<!DOCTYPE svg PUBLIC "-//W3C//DTD SVG 1.1//EN" "http://www.w3.org/Graphics/SVG/1.1/DTD/svg11.dtd">
<svg width="28.53515625" height="44.82421875" xmlns="http://www.w3.org/2000/svg" xmlns:xlink="http://www.w3.org/1999/xlink" xmlns:xml="http://www.w3.org/XML/1998/namespace" version="1.1">
  <g>
    <g>
      <path style="fill:#FF0000;fill-opacity:1" d="M0,10.4296875L2.34375,10.4296875 2.34375,27.333984375 0,27.333984375 0,10.4296875z M14.443359375,0L15.029296875,0 28.53515625,6.796875 27.59765625,9.111328125 16.787109375,3.779296875 16.787109375,13.06640625 25.72265625,13.06640625 25.72265625,15.41015625 16.787109375,15.41015625 16.787109375,22.353515625 25.72265625,22.353515625 25.72265625,24.697265625 16.787109375,24.697265625 16.787109375,39.375 16.201171875,39.375 4.921875,34.833984375 4.921875,44.82421875 2.578125,44.82421875 2.578125,31.435546875 3.1640625,31.435546875 14.443359375,36.09375 14.443359375,24.697265625 5.9765625,24.697265625 5.9765625,22.353515625 14.443359375,22.353515625 14.443359375,15.41015625 5.9765625,15.41015625 5.9765625,13.06640625 14.443359375,13.06640625 14.443359375,0z" />
    </g>
  </g>
</svg>