<?xml version="1.0" encoding="utf-8"?>
<!DOCTYPE svg PUBLIC "-//W3C//DTD SVG 1.1//EN" "http://www.w3.org/Graphics/SVG/1.1/DTD/svg11.dtd">
<svg width="28.271484375" height="43.212890625" xmlns="http://www.w3.org/2000/svg" xmlns:xlink="http://www.w3.org/1999/xlink" xmlns:xml="http://www.w3.org/XML/1998/namespace" version="1.1">
  <g>
    <g>
      <path style="fill:#FF0000;fill-opacity:1" d="M5.65429735183716,0L22.646484375,0 22.646484375,2.34375 15.322265625,2.34375 15.322265625,8.349609375 22.646484375,8.349609375 22.646484375,10.693359375 15.322265625,10.693359375 15.322265625,20.888671875 25.927734375,26.71875 25.927734375,13.330078125 28.271484375,13.330078125 28.271484375,30.322265625 27.685546875,30.322265625 15.322265625,23.671875 15.322265625,32.51953125 22.646484375,32.51953125 22.646484375,34.86328125 15.322265625,34.86328125 15.322265625,40.869140625 22.646484375,40.869140625 22.646484375,43.212890625 5.65429735183716,43.212890625 5.65429735183716,40.869140625 12.978515625,40.869140625 12.978515625,34.86328125 5.65429735183716,34.86328125 5.65429735183716,32.51953125 12.978515625,32.51953125 12.978515625,22.412109375 2.34375047683716,16.669921875 2.34375047683716,29.736328125 0,29.736328125 0,12.744140625 0.585937976837158,12.744140625 12.978515625,19.599609375 12.978515625,10.693359375 5.65429735183716,10.693359375 5.65429735183716,8.349609375 12.978515625,8.349609375 12.978515625,2.34375 5.65429735183716,2.34375 5.65429735183716,0z" />
    </g>
  </g>
</svg>