<?xml version="1.0" encoding="utf-8"?>
<!DOCTYPE svg PUBLIC "-//W3C//DTD SVG 1.1//EN" "http://www.w3.org/Graphics/SVG/1.1/DTD/svg11.dtd">
<svg width="28.41796875" height="43.212890625" xmlns="http://www.w3.org/2000/svg" xmlns:xlink="http://www.w3.org/1999/xlink" xmlns:xml="http://www.w3.org/XML/1998/namespace" version="1.1">
  <g>
    <g>
      <path style="fill:#FF0000;fill-opacity:1" d="M16.69921875,0L19.04296875,0 19.04296875,12.71484375 28.359375,12.71484375 28.359375,15.05859375 19.04296875,15.05859375 19.04296875,30.64453125 28.41796875,30.64453125 28.41796875,32.98828125 19.04296875,32.98828125 19.04296875,40.869140625 28.41796875,40.869140625 28.41796875,43.212890625 7.32421827316284,43.212890625 7.32421827316284,40.869140625 16.69921875,40.869140625 16.69921875,32.98828125 7.32421827316284,32.98828125 7.32421827316284,30.64453125 16.69921875,30.64453125 16.69921875,15.05859375 8.818359375,15.05859375 8.818359375,24.7265625 6.47460889816284,24.7265625 6.47460889816284,15.05859375 2.34374952316284,15.05859375 2.34374952316284,24.7265625 0,24.7265625 0,3.046875 2.34374952316284,3.046875 2.34374952316284,12.71484375 6.47460889816284,12.71484375 6.47460889816284,3.046875 8.818359375,3.046875 8.818359375,12.71484375 16.69921875,12.71484375 16.69921875,0z" />
    </g>
  </g>
</svg>