<?xml version="1.0" encoding="utf-8"?>
<!DOCTYPE svg PUBLIC "-//W3C//DTD SVG 1.1//EN" "http://www.w3.org/Graphics/SVG/1.1/DTD/svg11.dtd">
<svg width="28.916015625" height="51.2109375" xmlns="http://www.w3.org/2000/svg" xmlns:xlink="http://www.w3.org/1999/xlink" xmlns:xml="http://www.w3.org/XML/1998/namespace" version="1.1">
  <g>
    <g>
      <path style="fill:#FF0000;fill-opacity:1" d="M26.572265625,19.130859375L16.904296875,24.521484375 26.572265625,29.853515625 26.572265625,19.130859375z M2.75390672683716,7.998046875L26.19140625,7.998046875 26.19140625,10.341796875 15.64453125,10.341796875 15.64453125,22.55859375 28.41796875,15.41015625 28.916015625,15.41015625 28.916015625,33.779296875 28.41796875,33.779296875 15.64453125,26.455078125 15.64453125,38.0859375 26.19140625,38.0859375 26.19140625,40.4296875 15.64453125,40.4296875 15.64453125,48.8671875 26.19140625,48.8671875 26.19140625,51.2109375 2.75390672683716,51.2109375 2.75390672683716,48.8671875 13.30078125,48.8671875 13.30078125,40.4296875 2.75390672683716,40.4296875 2.75390672683716,38.0859375 13.30078125,38.0859375 13.30078125,26.54296875 0.966797351837158,33.33984375 0,31.2890625 12.041015625,24.580078125 0,17.75390625 1.25976610183716,15.791015625 13.30078125,22.44140625 13.30078125,10.341796875 2.75390672683716,10.341796875 2.75390672683716,7.998046875z M14.23828125,0L18.0981426239014,0.659182548522949 21.943359375,2.63671875 21.064453125,4.62890625 17.6513671875,2.87109351158142 14.23828125,2.34375 11.044921875,2.87109351158142 7.88085985183716,4.62890625 7.00195360183716,2.63671875 10.68603515625,0.659182548522949 14.23828125,0z" />
    </g>
  </g>
</svg>