<?xml version="1.0" encoding="utf-8"?>
<!DOCTYPE svg PUBLIC "-//W3C//DTD SVG 1.1//EN" "http://www.w3.org/Graphics/SVG/1.1/DTD/svg11.dtd">
<svg width="28.271484375" height="45.41015625" xmlns="http://www.w3.org/2000/svg" xmlns:xlink="http://www.w3.org/1999/xlink" xmlns:xml="http://www.w3.org/XML/1998/namespace" version="1.1">
  <g>
    <g>
      <path style="fill:#FF0000;fill-opacity:1" d="M2.8125,34.130859375L5.15625,34.130859375 5.15625,42.919921875 2.8125,42.919921875 2.8125,34.130859375z M21.181640625,21.73828125L23.525390625,21.73828125 23.525390625,33.45703125 21.181640625,33.45703125 21.181640625,21.73828125z M2.8125,19.921875L5.15625,19.921875 5.15625,28.7109375 2.8125,28.7109375 2.8125,19.921875z M0,0L0.5859375,0 25.927734375,13.974609375 25.927734375,0.5859375 28.271484375,0.5859375 28.271484375,17.578125 27.685546875,17.578125 14.736328125,10.60546875 14.736328125,35.44921875 15.0732421875,39.08203125 16.0986328125,41.42578125 17.8125,42.685546875 20.21484375,43.06640625 21.9726543426514,42.799072265625 23.49609375,41.9970703125 24.8290996551514,40.711669921875 26.015625,38.994140625 27.7734375,40.37109375 26.143798828125,42.557373046875 24.3603515625,44.1357421875 22.3937969207764,45.091552734375 20.21484375,45.41015625 16.5673828125,44.794921875 14.150390625,42.94921875 12.802734375,39.84375 12.392578125,35.44921875 12.392578125,9.345703125 2.34375,3.92578125 2.34375,16.9921875 0,16.9921875 0,0z" />
    </g>
  </g>
</svg>