<?xml version="1.0" encoding="utf-8"?>
<!DOCTYPE svg PUBLIC "-//W3C//DTD SVG 1.1//EN" "http://www.w3.org/Graphics/SVG/1.1/DTD/svg11.dtd">
<svg width="30.46875" height="44.82421875" xmlns="http://www.w3.org/2000/svg" xmlns:xlink="http://www.w3.org/1999/xlink" xmlns:xml="http://www.w3.org/XML/1998/namespace" version="1.1">
  <g>
    <g>
      <path style="fill:#FF0000;fill-opacity:1" d="M14.0625,8.203125L16.40625,8.203125 16.40625,14.0625 14.0625,14.0625 14.0625,8.203125z M0,0.87890625L2.34374952316284,0.87890625 2.99926686286926,5.057373046875 3.96972608566284,8.4521484375 5.22949171066284,11.1474618911743 6.75292921066284,13.2275390625 8.52905178070068,14.7326679229736 10.546875,15.703125 15.234375,16.40625 17.55615234375,16.1792011260986 19.775390625,15.498046875 21.8298320770264,14.3408222198486 23.6572265625,12.685546875 25.2355937957764,10.5249032974243 26.54296875,7.8515625 27.5244140625,4.6435546875 28.125,0.87890625 30.46875,0.87890625 29.893798828125,4.70947265625 28.9306640625,8.115234375 27.608642578125,11.0815439224243 25.95703125,13.59375 23.9904766082764,15.6335468292236 21.7236328125,17.1826171875 19.1857891082764,18.2189960479736 16.40625,18.720703125 16.40625,26.748046875 27.392578125,26.748046875 27.392578125,29.091796875 16.40625,29.091796875 16.40625,36.62109375 15.985107421875,40.10009765625 14.7216796875,42.685546875 12.593994140625,44.28955078125 9.580078125,44.82421875 6.44531202316284,44.267578125 4.11621046066284,42.71484375 2.31445264816284,40.341796875 0.820312023162842,37.32421875 2.90039014816284,36.03515625 3.76464796066284,38.1005859375 5.05371046066284,40.1953125 6.92871046066284,41.8212890625 9.580078125,42.48046875 11.396484375,42.12890625 12.802734375,41.044921875 13.7255859375,39.2138671875 14.0625,36.62109375 14.0625,29.091796875 3.07617139816284,29.091796875 3.07617139816284,26.748046875 14.0625,26.748046875 14.0625,18.720703125 11.2536611557007,18.3178730010986 8.7451171875,17.4609375 6.53686475753784,16.1096210479736 4.62890577316284,14.2236328125 3.02123951911926,11.7846689224243 1.71386671066284,8.7744140625 0.706786692142487,5.152587890625 0,0.87890625z M19.921875,0L22.265625,0 22.265625,5.859375 19.921875,5.859375 19.921875,0z M8.203125,0L10.546875,0 10.546875,5.859375 8.203125,5.859375 8.203125,0z" />
    </g>
  </g>
</svg>