<?xml version="1.0" encoding="utf-8"?>
<!DOCTYPE svg PUBLIC "-//W3C//DTD SVG 1.1//EN" "http://www.w3.org/Graphics/SVG/1.1/DTD/svg11.dtd">
<svg width="21.09375" height="43.212890625" xmlns="http://www.w3.org/2000/svg" xmlns:xlink="http://www.w3.org/1999/xlink" xmlns:xml="http://www.w3.org/XML/1998/namespace" version="1.1">
  <g>
    <g>
      <path style="fill:#FF0000;fill-opacity:1" d="M17.28515625,0L21.09375,0 21.09375,2.314453125 17.28515625,2.314453125 13.861083984375,2.464599609375 10.8544921875,2.9150390625 8.28369140625,3.6474609375 6.1669921875,4.6435546875 4.50805568695068,5.892333984375 3.310546875,7.3828125 2.58544850349426,9.08935546875 2.34375,10.986328125 2.63305592536926,12.8759784698486 3.5009765625,14.560546875 4.91821193695068,16.0290546417236 6.85546875,17.2705078125 9.298095703125,18.2849140167236 12.2314453125,19.072265625 15.6262187957764,19.62158203125 19.453125,19.921875 19.453125,22.265625 15.443115234375,22.5302124023438 11.9677734375,23.089599609375 9.027099609375,23.9437866210938 6.62109375,25.0927734375 4.74975538253784,26.5017700195313 3.41308522224426,28.135986328125 2.61108350753784,29.9954223632813 2.34375,32.080078125 2.69164967536926,34.189453125 3.7353515625,36.005859375 5.34667873382568,37.532958984375 7.3974609375,38.7744140625 12.5244140625,40.4296875 18.310546875,40.986328125 21.09375,40.986328125 21.09375,43.212890625 18.310546875,43.212890625 10.9423828125,42.509765625 7.818603515625,41.634521484375 5.15625,40.4150390625 2.99194264411926,38.851318359375 1.3623046875,36.943359375 0.340576171875,34.6875 0,32.080078125 0.604248046875,28.57177734375 2.4169921875,25.546875 5.45288038253784,23.0419921875 9.7265625,21.09375 5.50781202316284,19.47509765625 2.4609375,17.255859375 0.615234375,14.4287128448486 0,10.986328125 0.2691650390625,8.536376953125 1.07666015625,6.3720703125 2.4224853515625,4.493408203125 4.306640625,2.900390625 6.7327880859375,1.6314697265625 9.70458984375,0.72509765625 13.2220458984375,0.1812744140625 17.28515625,0z" />
    </g>
  </g>
</svg>