<?xml version="1.0" encoding="utf-8"?>
<!DOCTYPE svg PUBLIC "-//W3C//DTD SVG 1.1//EN" "http://www.w3.org/Graphics/SVG/1.1/DTD/svg11.dtd">
<svg width="27.36328125" height="44.53125" xmlns="http://www.w3.org/2000/svg" xmlns:xlink="http://www.w3.org/1999/xlink" xmlns:xml="http://www.w3.org/XML/1998/namespace" version="1.1">
  <g>
    <g>
      <path style="fill:#FF0000;fill-opacity:1" d="M1.43554639816284,0L4.65820264816284,4.0576171875 7.20703077316284,9.0966796875 8.9501953125,14.794921875 9.755859375,20.80078125 17.578125,20.80078125 18.3837890625,14.794921875 20.1416015625,9.0966796875 22.705078125,4.0576171875 25.927734375,0 27.36328125,1.93359375 24.697265625,5.3173828125 22.3974609375,9.8876953125 20.7275390625,15.1904296875 19.921875,20.80078125 26.484375,20.80078125 26.484375,23.14453125 19.892578125,23.14453125 20.6396484375,28.9013671875 22.3095703125,34.3798828125 24.638671875,39.111328125 25.97900390625,41.05224609375 27.36328125,42.59765625 25.927734375,44.53125 22.6318359375,40.37109375 20.0244140625,35.185546875 18.28125,29.3408203125 17.548828125,23.14453125 9.78515625,23.14453125 9.052734375,29.3408203125 7.30956983566284,35.185546875 4.71679639816284,40.37109375 1.43554639816284,44.53125 0,42.59765625 1.38427674770355,41.05224609375 2.72460889816284,39.111328125 5.05371046066284,34.3798828125 6.70898389816284,28.9013671875 7.44140577316284,23.14453125 0.87890625,23.14453125 0.87890625,20.80078125 7.41210889816284,20.80078125 6.60644483566284,15.1904296875 4.93652296066284,9.8876953125 2.65136671066284,5.3173828125 0,1.93359375 1.43554639816284,0z" />
    </g>
  </g>
</svg>