<?xml version="1.0" encoding="utf-8"?>
<!DOCTYPE svg PUBLIC "-//W3C//DTD SVG 1.1//EN" "http://www.w3.org/Graphics/SVG/1.1/DTD/svg11.dtd">
<svg width="24.90234375" height="51.2109375" xmlns="http://www.w3.org/2000/svg" xmlns:xlink="http://www.w3.org/1999/xlink" xmlns:xml="http://www.w3.org/XML/1998/namespace" version="1.1">
  <g>
    <g>
      <path style="fill:#FF0000;fill-opacity:1" d="M12.451171875,22.646484375L9.931640625,23.173828125 7.8662109375,24.6240234375 6.2255859375,26.8359375 4.951171875,29.619140625 6.2255859375,32.3876953125 7.8662109375,34.5849609375 9.931640625,36.03515625 12.451171875,36.5625 14.9560546875,36.03515625 17.0068359375,34.5849609375 18.662109375,32.3876953125 19.951171875,29.619140625 18.662109375,26.8359375 17.0068359375,24.6240234375 14.9560546875,23.173828125 12.451171875,22.646484375z M0,7.998046875L2.34375,7.998046875 2.347412109375,9.287109375 2.3583984375,11.044921875 2.5048828125,15.52734375 2.9736328125,20.80078125 3.92578125,26.19140625 5.48217678070068,23.7890644073486 7.3974609375,21.9140625 9.708251953125,20.7055683135986 12.451171875,20.302734375 15.194091796875,20.7055683135986 17.5048828125,21.9140625 19.4201641082764,23.7890644073486 20.9765625,26.19140625 21.9287109375,20.80078125 22.3974609375,15.52734375 22.5439453125,11.044921875 22.5549297332764,9.287109375 22.55859375,7.998046875 24.90234375,7.998046875 24.814453125,13.1103515625 24.462890625,18.69140625 23.701171875,24.345703125 22.3828125,29.619140625 23.701171875,34.8779296875 24.462890625,40.517578125 24.814453125,46.0986328125 24.90234375,51.2109375 22.55859375,51.2109375 22.5549297332764,49.94384765625 22.5439453125,48.193359375 22.3974609375,43.7109375 21.9287109375,38.4375 20.9765625,33.046875 19.4201641082764,35.42724609375 17.5048828125,37.294921875 15.194091796875,38.50341796875 12.451171875,38.90625 9.708251953125,38.50341796875 7.3974609375,37.294921875 5.48217678070068,35.42724609375 3.92578125,33.046875 2.9736328125,38.4375 2.5048828125,43.7109375 2.3583984375,48.193359375 2.347412109375,49.94384765625 2.34375,51.2109375 0,51.2109375 0.087890625,46.0986328125 0.439453125,40.517578125 1.1865234375,34.8779296875 2.490234375,29.619140625 1.1865234375,24.345703125 0.439453125,18.69140625 0.087890625,13.1103515625 0,7.998046875z M12.216796875,0L16.0766582489014,0.659182548522949 19.921875,2.63671875 19.04296875,4.62890625 15.6298828125,2.87109351158142 12.216796875,2.34375 9.0234375,2.87109351158142 5.859375,4.62890625 4.98046875,2.63671875 8.66455078125,0.659182548522949 12.216796875,0z" />
    </g>
  </g>
</svg>