<?xml version="1.0" encoding="utf-8"?>
<!DOCTYPE svg PUBLIC "-//W3C//DTD SVG 1.1//EN" "http://www.w3.org/Graphics/SVG/1.1/DTD/svg11.dtd">
<svg width="32.75390625" height="46.435546875" xmlns="http://www.w3.org/2000/svg" xmlns:xlink="http://www.w3.org/1999/xlink" xmlns:xml="http://www.w3.org/XML/1998/namespace" version="1.1">
  <g>
    <g>
      <path style="fill:#FF0000;fill-opacity:1" d="M28.212890625,34.5703125L30.556640625,34.5703125 30.556640625,43.359375 28.212890625,43.359375 28.212890625,34.5703125z M2.197265625,34.5703125L4.541015625,34.5703125 4.541015625,43.359375 2.197265625,43.359375 2.197265625,34.5703125z M8.203125,24.169921875L8.701171875,32.0361328125 9.29443264007568,35.44189453125 10.13671875,38.3642578125 11.2463369369507,40.755615234375 12.6416015625,42.568359375 14.344482421875,43.7109375 16.376953125,44.091796875 18.409423828125,43.7109375 20.1123046875,42.568359375 21.5075664520264,40.755615234375 22.6171875,38.3642578125 23.4558086395264,35.44189453125 24.0380859375,32.0361328125 24.55078125,24.169921875 8.203125,24.169921875z M28.212890625,3.076171875L30.556640625,3.076171875 30.556640625,11.865234375 28.212890625,11.865234375 28.212890625,3.076171875z M2.197265625,3.076171875L4.541015625,3.076171875 4.541015625,11.865234375 2.197265625,11.865234375 2.197265625,3.076171875z M16.376953125,2.34375L14.3701171875,2.71728515625 12.685546875,3.837890625 11.2976064682007,5.614013671875 10.1806640625,7.9541015625 9.32739162445068,10.810546875 8.73046875,14.1357421875 8.203125,21.826171875 24.521484375,21.826171875 23.994140625,14.12109375 23.4008769989014,10.78857421875 22.55859375,7.939453125 21.4526348114014,5.6103515625 20.068359375,3.837890625 18.3837890625,2.71728515625 16.376953125,2.34375z M16.376953125,0L18.75,0.311279296875 20.830078125,1.2451171875 22.6098613739014,2.841796875 24.08203125,5.1416015625 25.2465801239014,8.162841796875 26.103515625,11.923828125 26.6528301239014,16.4648456573486 26.89453125,21.826171875 32.75390625,21.826171875 32.75390625,24.169921875 26.89453125,24.169921875 26.6748027801514,29.64111328125 26.1328125,34.27734375 25.2758769989014,38.115234375 24.111328125,41.19140625 22.6391582489014,43.531494140625 20.859375,45.1611328125 18.77197265625,46.116943359375 16.376953125,46.435546875 13.978271484375,46.116943359375 11.8798828125,45.1611328125 10.0891103744507,43.531494140625 8.61328125,41.19140625 7.452392578125,38.115234375 6.6064453125,34.27734375 6.075439453125,29.64111328125 5.859375,24.169921875 0,24.169921875 0,21.826171875 5.859375,21.826171875 6.10107421875,16.4648456573486 6.650390625,11.923828125 7.50732421875,8.162841796875 8.671875,5.1416015625 10.1440420150757,2.841796875 11.923828125,1.2451171875 14.00390625,0.311279296875 16.376953125,0z" />
    </g>
  </g>
</svg>