<?xml version="1.0" encoding="utf-8"?>
<!DOCTYPE svg PUBLIC "-//W3C//DTD SVG 1.1//EN" "http://www.w3.org/Graphics/SVG/1.1/DTD/svg11.dtd">
<svg width="29.53125" height="51.2109375" xmlns="http://www.w3.org/2000/svg" xmlns:xlink="http://www.w3.org/1999/xlink" xmlns:xml="http://www.w3.org/XML/1998/namespace" version="1.1">
  <g>
    <g>
      <path style="fill:#FF0000;fill-opacity:1" d="M5.27343797683716,21.03515625L7.61718797683716,21.03515625 7.61718797683716,29.82421875 5.27343797683716,29.82421875 5.27343797683716,21.03515625z M10.546875,9.31640625L12.890625,9.31640625 12.890625,18.10546875 10.546875,18.10546875 10.546875,9.31640625z M0,9.31640625L2.34375047683716,9.31640625 2.34375047683716,18.10546875 0,18.10546875 0,9.31640625z M18.720703125,6.38671875L19.306640625,6.38671875 29.53125,13.0078125 28.154296875,14.853515625 21.064453125,10.166015625 21.064453125,44.00390625 20.478515625,44.00390625 4.80468797683716,37.998046875 4.80468797683716,51.2109375 2.46093797683716,51.2109375 2.46093797683716,34.892578125 3.04687547683716,34.892578125 18.720703125,40.810546875 18.720703125,6.38671875z M11.630859375,0L15.49072265625,0.659182548522949 19.3359375,2.63671875 18.45703125,4.62890625 15.0439453125,2.87109351158142 11.630859375,2.34375 8.4375,2.87109351158142 5.27343797683716,4.62890625 4.39453172683716,2.63671875 8.07861328125,0.659182548522949 11.630859375,0z" />
    </g>
  </g>
</svg>