<?xml version="1.0" encoding="utf-8"?>
<!DOCTYPE svg PUBLIC "-//W3C//DTD SVG 1.1//EN" "http://www.w3.org/Graphics/SVG/1.1/DTD/svg11.dtd">
<svg width="28.3593750000005" height="52.822265625" xmlns="http://www.w3.org/2000/svg" xmlns:xlink="http://www.w3.org/1999/xlink" xmlns:xml="http://www.w3.org/XML/1998/namespace" version="1.1">
  <g>
    <g>
      <path style="fill:#FF0000;fill-opacity:1" d="M14.267578125,32.34375L7.734375,47.9296875 10.6494140625,49.8193359375 14.1796875,50.478515625 17.7978515625,49.7900390625 20.7421875,47.783203125 14.267578125,32.34375z M20.712890625,25.25390625L23.056640625,25.25390625 23.056640625,34.04296875 20.712890625,34.04296875 20.712890625,25.25390625z M22.236328125,13.30078125L15.41015625,29.619140625 22.119140625,46.11328125 23.84765625,42.9052734375 25.0634765625,39.0087890625 25.78125,34.5556640625 26.015625,29.6484375 25.784912109375,24.8144550323486 25.0927734375,20.390625 23.9172344207764,16.5087890625 22.236328125,13.30078125z M6.2109375,13.125L4.500732421875,16.34765625 3.2958984375,20.2734375 2.581787109375,24.7558612823486 2.34375,29.6484375 2.589111328125,34.610595703125 3.3251953125,39.1259765625 4.566650390625,43.055419921875 6.328125,46.259765625 13.125,29.619140625 6.2109375,13.125z M14.1796875,8.73046875L10.72265625,9.3603515625 7.880859375,11.19140625 14.267578125,26.8359375 20.595703125,11.30859375 17.7099609375,9.404296875 14.1796875,8.73046875z M14.1796875,6.38671922683716L17.362060546875,6.7822265625 20.1708984375,7.96875 22.5915508270264,9.90234375 24.609375,12.5390625 26.21337890625,15.860595703125 27.392578125,19.8486328125 28.11767578125,24.4592304229736 28.359375,29.6484375 28.121337890625,34.85595703125 27.4072265625,39.462890625 26.239013671875,43.4326171875 24.638671875,46.728515625 22.6171855926514,49.339599609375 20.185546875,51.2548828125 17.36572265625,52.430419921875 14.1796875,52.822265625 10.99365234375,52.430419921875 8.173828125,51.2548828125 5.7421875,49.339599609375 3.720703125,46.728515625 2.12036108970642,43.4326171875 0.952147960662842,39.462890625 0.238036692142487,34.85595703125 0,29.6484375 0.238036692142487,24.4592304229736 0.952147960662842,19.8486328125 2.12402319908142,15.860595703125 3.7353515625,12.5390625 5.767822265625,9.90234375 8.203125,7.96875 11.015625,6.7822265625 14.1796875,6.38671922683716z M13.9453125,0L17.8051738739014,0.659182548522949 21.650390625,2.63671875 20.771484375,4.62890672683716 17.3583984375,2.87109351158142 13.9453125,2.34374976158142 10.751953125,2.87109351158142 7.587890625,4.62890672683716 6.708984375,2.63671875 10.39306640625,0.659182548522949 13.9453125,0z" />
    </g>
  </g>
</svg>