<?xml version="1.0" encoding="utf-8"?>
<!DOCTYPE svg PUBLIC "-//W3C//DTD SVG 1.1//EN" "http://www.w3.org/Graphics/SVG/1.1/DTD/svg11.dtd">
<svg width="27.48046875" height="46.435546875" xmlns="http://www.w3.org/2000/svg" xmlns:xlink="http://www.w3.org/1999/xlink" xmlns:xml="http://www.w3.org/XML/1998/namespace" version="1.1">
  <g>
    <g>
      <path style="fill:#FF0000;fill-opacity:1" d="M14.443359375,9.814453125L11.1474609375,13.4985361099243 8.935546875,17.51953125 13.18359375,17.51953125 13.18359375,19.86328125 8.232421875,19.86328125 7.85156202316284,23.203125 7.95410108566284,24.9169921875 8.232421875,26.6015625 13.18359375,26.6015625 13.18359375,28.9453125 8.96484375,28.9453125 11.1767578125,32.9736328125 14.443359375,36.650390625 17.2302227020264,33.62548828125 19.3212890625,30.3515625 20.6286602020264,26.865234375 21.064453125,23.203125 20.6286602020264,19.5629901885986 19.3212890625,16.083984375 17.2302227020264,12.8173837661743 14.443359375,9.814453125z M2.34374952316284,0L8.90625,2.841796875 14.443359375,6.474609375 20.0097637176514,2.83447265625 26.572265625,0 27.48046875,2.51953125 21.474609375,4.98046875 16.40625,8.173828125 19.3505840301514,11.513671875 21.5625,15.146484375 22.9467754364014,19.0576190948486 23.408203125,23.232421875 22.9467754364014,27.410888671875 21.5625,31.3330078125 19.3505840301514,34.969482421875 16.40625,38.291015625 21.4892578125,41.4697265625 27.48046875,43.916015625 26.572265625,46.435546875 20.0097637176514,43.60107421875 14.443359375,39.9609375 8.90625,43.59375 2.34374952316284,46.435546875 1.43554639816284,43.916015625 7.41210889816284,41.4697265625 12.509765625,38.291015625 8.7744140625,33.8818359375 6.38671827316284,28.9453125 0,28.9453125 0,26.6015625 5.80078077316284,26.6015625 5.58105421066284,24.931640625 5.50781202316284,23.232421875 5.58105421066284,21.5478515625 5.80078077316284,19.86328125 0,19.86328125 0,17.51953125 6.38671827316284,17.51953125 8.7744140625,12.59765625 12.509765625,8.173828125 7.41210889816284,4.98046875 1.43554639816284,2.51953125 2.34374952316284,0z" />
    </g>
  </g>
</svg>