<?xml version="1.0" encoding="utf-8"?>
<!DOCTYPE svg PUBLIC "-//W3C//DTD SVG 1.1//EN" "http://www.w3.org/Graphics/SVG/1.1/DTD/svg11.dtd">
<svg width="27.83203125" height="44.82421875" xmlns="http://www.w3.org/2000/svg" xmlns:xlink="http://www.w3.org/1999/xlink" xmlns:xml="http://www.w3.org/XML/1998/namespace" version="1.1">
  <g>
    <g>
      <path style="fill:#FF0000;fill-opacity:1" d="M18.1640625,24.31640625L16.45751953125,24.5068359375 14.970703125,25.078125 12.6708984375,27.1142578125 11.2939453125,30.029296875 10.83984375,33.3984375 11.279296875,36.73828125 12.626953125,39.6533203125 14.912109375,41.7041015625 16.41357421875,42.286376953125 18.1640625,42.48046875 19.6838359832764,42.2900390625 21.0791015625,41.71875 23.3935546875,39.6826171875 24.931640625,36.7822265625 25.48828125,33.3984375 24.931640625,30.029296875 23.408203125,27.1142578125 21.09375,25.078125 19.6874980926514,24.5068359375 18.1640625,24.31640625z M18.251953125,0L20.595703125,0 20.595703125,22.294921875 23.5693359375,23.759765625 25.8544921875,26.2353515625 27.3193359375,29.5166015625 27.83203125,33.3984375 27.12890625,37.91015625 25.1513671875,41.5283203125 22.0751953125,43.9453125 20.1818828582764,44.6044921875 18.10546875,44.82421875 16.036376953125,44.6044921875 14.1650390625,43.9453125 11.1328125,41.5283203125 9.1845703125,37.91015625 8.49609375,33.3984375 9.0380859375,29.384765625 10.576171875,26.0302734375 12.9931640625,23.5546875 16.171875,22.177734375 2.34375,10.95703125 2.34375,36.005859375 0,36.005859375 0,6.064453125 1.2890625,6.064453125 18.251953125,20.44921875 18.251953125,0z" />
    </g>
  </g>
</svg>