<?xml version="1.0" encoding="utf-8"?>
<!DOCTYPE svg PUBLIC "-//W3C//DTD SVG 1.1//EN" "http://www.w3.org/Graphics/SVG/1.1/DTD/svg11.dtd">
<svg width="31.376953125" height="43.212890625" xmlns="http://www.w3.org/2000/svg" xmlns:xlink="http://www.w3.org/1999/xlink" xmlns:xml="http://www.w3.org/XML/1998/namespace" version="1.1">
  <g>
    <g>
      <path style="fill:#FF0000;fill-opacity:1" d="M8.466796875,1.171875L10.810546875,1.171875 10.810546875,15.498046875 10.5029296875,17.109375 9.6826171875,18.2958984375 8.5400390625,19.0283203125 7.265625,19.27734375 5.537109375,18.9990234375 3.9697265625,18.134765625 2.2265625,16.5966796875 0,14.296875 1.435546875,12.451171875 3.35449194908142,14.3847675323486 4.833984375,15.791015625 5.9765625,16.6479511260986 6.884765625,16.93359375 8.1005859375,16.34765625 8.466796875,15.087890625 8.466796875,1.171875z M17.34375,0L19.6875,0 19.6875,14.443359375 29.53125,4.130859375 31.376953125,5.56640625 19.6875,17.75390625 19.6875,37.44140625 18.92578125,37.44140625 5.15625,29.443359375 5.15625,43.212890625 2.81249952316284,43.212890625 2.81249952316284,25.72265625 3.603515625,25.72265625 17.34375,33.720703125 17.34375,0z" />
    </g>
  </g>
</svg>