<?xml version="1.0" encoding="utf-8"?>
<!DOCTYPE svg PUBLIC "-//W3C//DTD SVG 1.1//EN" "http://www.w3.org/Graphics/SVG/1.1/DTD/svg11.dtd">
<svg width="30.05859375" height="44.82421875" xmlns="http://www.w3.org/2000/svg" xmlns:xlink="http://www.w3.org/1999/xlink" xmlns:xml="http://www.w3.org/XML/1998/namespace" version="1.1">
  <g>
    <g>
      <path style="fill:#FF0000;fill-opacity:1" d="M5.947265625,5.33203125L4.288330078125,5.76416015625 3.1787109375,7.060546875 2.55248975753784,9.19921875 2.34375,12.158203125 2.55248975753784,15.1171894073486 3.1787109375,17.255859375 4.288330078125,18.5522480010986 5.947265625,18.984375 7.60620021820068,18.5559101104736 8.7158203125,17.2705078125 9.34204006195068,15.1428241729736 9.55078125,12.1875 9.34204006195068,9.20654296875 8.7158203125,7.060546875 7.60620021820068,5.76416015625 5.947265625,5.33203125z M19.248046875,0L19.833984375,0 30.05859375,6.62109375 28.681640625,8.466796875 21.591796875,3.779296875 21.591796875,39.375 21.005859375,39.375 7.96875,33.369140625 7.96875,44.82421875 5.625,44.82421875 5.625,29.970703125 6.2109375,29.970703125 19.248046875,36.123046875 19.248046875,13.359375 11.865234375,13.359375 11.31591796875,16.6625995635986 10.13671875,19.189453125 8.34228420257568,20.79345703125 5.947265625,21.328125 3.369140625,20.68359375 1.5087890625,18.8525390625 0.380859375,15.966796875 0,12.158203125 0.380859375,8.349609375 1.5087890625,5.4638671875 3.369140625,3.6328125 5.947265625,2.98828125 8.349609375,3.544921875 10.1513671875,5.1416015625 11.337890625,7.67578125 11.865234375,11.015625 19.248046875,11.015625 19.248046875,0z" />
    </g>
  </g>
</svg>