<?xml version="1.0" encoding="utf-8"?>
<!DOCTYPE svg PUBLIC "-//W3C//DTD SVG 1.1//EN" "http://www.w3.org/Graphics/SVG/1.1/DTD/svg11.dtd">
<svg width="28.359375" height="46.435546875" xmlns="http://www.w3.org/2000/svg" xmlns:xlink="http://www.w3.org/1999/xlink" xmlns:xml="http://www.w3.org/XML/1998/namespace" version="1.1">
  <g>
    <g>
      <path style="fill:#FF0000;fill-opacity:1" d="M13.0078125,30.99609375L15.3515625,30.99609375 15.3515625,39.78515625 13.0078125,39.78515625 13.0078125,30.99609375z M14.150390625,19.5703125L13.212890625,22.3095703125 11.865234375,24.521484375 10.01953125,26.0009765625 7.6171875,26.54296875 7.060546875,26.54296875 6.591796875,26.484375 6.8408203125,30.4248046875 7.3095703125,34.4091796875 8.115234375,38.115234375 9.4189453125,41.2060546875 11.3818359375,43.3154296875 12.652587890625,43.897705078125 14.150390625,44.091796875 15.648193359375,43.897705078125 16.9189453125,43.3154296875 18.8818359375,41.220703125 20.2001953125,38.14453125 21.0205078125,34.423828125 21.474609375,30.4248046875 21.73828125,26.484375 21.240234375,26.54296875 20.7421875,26.54296875 18.310546875,26.0009765625 16.46484375,24.521484375 15.1025390625,22.3095703125 14.150390625,19.5703125z M5.56640625,1.611328125L7.880859375,1.611328125 8.173828125,5.0244140625 9.1845703125,8.349609375 11.103515625,10.869140625 12.45849609375,11.6162109375 14.12109375,11.865234375 15.787353515625,11.6162109375 17.1533203125,10.869140625 19.0869140625,8.349609375 20.1123046875,5.0244140625 20.419921875,1.611328125 22.734375,1.611328125 22.587890625,4.072265625 22.1044921875,6.708984375 21.2109375,9.2578125 19.833984375,11.4990234375 17.900390625,13.1982421875 15.3515625,14.12109375 15.908203125,17.7685546875 17.1826171875,20.9912109375 18.955078125,23.3056640625 19.9731426239014,23.975830078125 21.03515625,24.19921875 23.5986328125,23.7451171875 25.0048828125,22.236328125 25.6787109375,19.423828125 25.858154296875,17.4536151885986 26.015625,15.05859375 28.359375,15.05859375 28.037109375,18.9697265625 27.392578125,21.8701171875 26.1767578125,24.0234375 24.140625,25.693359375 23.8623046875,30.498046875 23.349609375,35.2587890625 22.3681640625,39.5947265625 20.6689453125,43.154296875 18.0029296875,45.556640625 16.241455078125,46.2158203125 14.150390625,46.435546875 12.110595703125,46.2158203125 10.3857421875,45.556640625 7.7490234375,43.154296875 6.03515625,39.5947265625 5.009765625,35.2587890625 4.4677734375,30.498046875 4.189453125,25.693359375 2.138671875,23.994140625 0.9375,21.85546875 0.3076171875,18.9697265625 0,15.05859375 2.34375,15.05859375 2.52685546875,17.4536151885986 2.783203125,19.423828125 3.6474609375,22.236328125 5.09765625,23.7451171875 7.32421875,24.19921875 8.34228420257568,23.975830078125 9.345703125,23.3056640625 11.1181640625,20.9912109375 12.4072265625,17.7685546875 12.978515625,14.12109375 10.400390625,13.2421875 8.466796875,11.5576171875 7.08984375,9.3017578125 6.1962890625,6.73828125 5.712890625,4.1015625 5.56640625,1.611328125z M13.0078125,0L15.3515625,0 15.3515625,8.7890625 13.0078125,8.7890625 13.0078125,0z" />
    </g>
  </g>
</svg>