<?xml version="1.0" encoding="utf-8"?>
<!DOCTYPE svg PUBLIC "-//W3C//DTD SVG 1.1//EN" "http://www.w3.org/Graphics/SVG/1.1/DTD/svg11.dtd">
<svg width="27.6562500000007" height="46.435546875" xmlns="http://www.w3.org/2000/svg" xmlns:xlink="http://www.w3.org/1999/xlink" xmlns:xml="http://www.w3.org/XML/1998/namespace" version="1.1">
  <g>
    <g>
      <path style="fill:#FF0000;fill-opacity:1" d="M12.12890625,17.40234375L14.47265625,17.40234375 14.47265625,27.94921875 12.12890625,27.94921875 12.12890625,17.40234375z M12.1875,9.111328125L12.65625,11.513671875 10.1513671875,12.366943359375 8.02734375,13.5205078125 4.8193359375,16.40625 2.9443359375,19.658203125 2.34375,22.734375 2.98828125,26.2646484375 4.921875,29.6484375 8.14453125,32.4169921875 12.65625,34.130859375 12.65625,36.474609375 9.642333984375,35.775146484375 7.0458984375,34.6142578125 4.86328125,33.0908203125 3.0908203125,31.3037109375 1.72485327720642,29.30419921875 0.76171875,27.1435546875 0.190429329872131,24.920654296875 0,22.734375 0.194091439247131,20.79345703125 0.7763671875,18.779296875 1.74316382408142,16.7724628448486 3.0908203125,14.853515625 6.9140625,11.4697265625 12.1875,9.111328125z M10.693359375,0L17.40234375,4.013671875 20.2990703582764,6.536865234375 22.7783203125,9.3603515625 24.80712890625,12.4658212661743 26.3525390625,15.8349609375 27.330322265625,19.4348163604736 27.65625,23.232421875 27.330322265625,27.030029296875 26.3525390625,30.6298828125 24.80712890625,33.9990234375 22.7783203125,37.1044921875 20.2990703582764,39.927978515625 17.40234375,42.451171875 14.17236328125,44.6337890625 10.693359375,46.435546875 9.78515625,44.208984375 12.95654296875,42.601318359375 15.908203125,40.5908203125 18.5595684051514,38.2470703125 20.830078125,35.6396484375 22.6904277801514,32.79052734375 24.111328125,29.7216796875 25.0122051239014,26.502685546875 25.3125,23.203125 25.0122051239014,19.9072284698486 24.111328125,16.69921875 22.6904277801514,13.6413583755493 20.830078125,10.7958984375 18.5595684051514,8.1884765625 15.908203125,5.8447265625 12.95654296875,3.834228515625 9.78515625,2.2265625 10.693359375,0z" />
    </g>
  </g>
</svg>