<?xml version="1.0" encoding="utf-8"?>
<!DOCTYPE svg PUBLIC "-//W3C//DTD SVG 1.1//EN" "http://www.w3.org/Graphics/SVG/1.1/DTD/svg11.dtd">
<svg width="29.619140625" height="52.822265625" xmlns="http://www.w3.org/2000/svg" xmlns:xlink="http://www.w3.org/1999/xlink" xmlns:xml="http://www.w3.org/XML/1998/namespace" version="1.1">
  <g>
    <g>
      <path style="fill:#FF0000;fill-opacity:1" d="M1.142578125,19.248046875L10.25390625,24.375 9.111328125,26.396484375 0,21.26953125 1.142578125,19.248046875z M1.99218797683716,10.37109375L11.103515625,15.498046875 9.9609375,17.51953125 0.849609851837158,12.392578125 1.99218797683716,10.37109375z M14.765625,6.38671922683716L15.3515625,6.38671922683716 29.619140625,14.794921875 28.4765625,16.81640625 17.109375,10.166015625 17.109375,52.822265625 16.5234375,52.822265625 2.16796922683716,44.1796875 3.33984422683716,42.275390625 14.765625,49.130859375 14.765625,6.38671922683716z M14.53125,0L18.3911113739014,0.659182548522949 22.236328125,2.63671875 21.357421875,4.62890672683716 17.9443359375,2.87109351158142 14.53125,2.34374976158142 11.337890625,2.87109351158142 8.173828125,4.62890672683716 7.29492235183716,2.63671875 10.97900390625,0.659182548522949 14.53125,0z" />
    </g>
  </g>
</svg>