<?xml version="1.0" encoding="utf-8"?>
<!DOCTYPE svg PUBLIC "-//W3C//DTD SVG 1.1//EN" "http://www.w3.org/Graphics/SVG/1.1/DTD/svg11.dtd">
<svg width="29.00390625" height="52.822265625" xmlns="http://www.w3.org/2000/svg" xmlns:xlink="http://www.w3.org/1999/xlink" xmlns:xml="http://www.w3.org/XML/1998/namespace" version="1.1">
  <g>
    <g>
      <path style="fill:#FF0000;fill-opacity:1" d="M14.501953125,37.294921875L9.375,37.8515625 5.56640672683716,39.31640625 3.17871141433716,41.42578125 2.55249071121216,42.6416015625 2.34375047683716,43.88671875 2.55249071121216,45.150146484375 3.17871141433716,46.3623046875 5.56640672683716,48.45703125 9.375,49.921875 14.501953125,50.478515625 19.6142578125,49.921875 23.4375,48.4423828125 25.8251953125,46.34765625 26.451416015625,45.15380859375 26.66015625,43.916015625 26.451416015625,42.6708984375 25.8251953125,41.455078125 23.4375,39.3310546875 19.6142578125,37.8515625 14.501953125,37.294921875z M25.048828125,25.72265625L27.392578125,25.72265625 27.392578125,33.486328125 25.048828125,33.486328125 25.048828125,25.72265625z M1.61132860183716,25.72265625L3.95507860183716,25.72265625 3.95507860183716,33.486328125 1.61132860183716,33.486328125 1.61132860183716,25.72265625z M14.501953125,8.73046875L9.375,9.287109375 5.56640672683716,10.751953125 3.17871141433716,12.861328125 2.55249071121216,14.0771484375 2.34375047683716,15.322265625 2.55249071121216,16.585693359375 3.17871141433716,17.7978515625 5.56640672683716,19.892578125 9.375,21.357421875 14.501953125,21.9140625 19.6142578125,21.357421875 23.4375,19.8779296875 25.8251953125,17.783203125 26.451416015625,16.58935546875 26.66015625,15.3515625 26.451416015625,14.1064453125 25.8251953125,12.890625 23.4375,10.7666015625 19.6142578125,9.287109375 14.501953125,8.73046875z M14.501953125,6.38671922683716L20.537109375,7.08984422683716 23.0273418426514,7.91748046875 25.107421875,8.994140625 26.766357421875,10.30517578125 27.9931640625,11.8359375 28.751220703125,13.53515625 29.00390625,15.3515625 28.773193359375,17.10205078125 28.0810546875,18.720703125 26.956787109375,20.1818866729736 25.4296875,21.4599609375 21.2255859375,23.37890625 15.673828125,24.228515625 15.673828125,34.98046875 21.2255859375,35.859375 25.4296875,37.79296875 26.956787109375,39.085693359375 28.0810546875,40.5615234375 28.773193359375,42.183837890625 29.00390625,43.916015625 28.751220703125,45.728759765625 27.9931640625,47.4169921875 26.766357421875,48.936767578125 25.107421875,50.244140625 23.0273418426514,51.317138671875 20.537109375,52.1337890625 14.501953125,52.822265625 8.466796875,52.1337890625 5.97656297683716,51.3134765625 3.89648485183716,50.2294921875 2.23754906654358,48.9111328125 1.0107421875,47.3876953125 0.252685546875,45.699462890625 0,43.88671875 0.230712890625,42.154541015625 0.9228515625,40.5322265625 2.04711937904358,39.056396484375 3.57421922683716,37.763671875 7.76367235183716,35.830078125 13.330078125,34.98046875 13.330078125,24.228515625 7.76367235183716,23.37890625 3.57421922683716,21.4599609375 2.04711937904358,20.1782245635986 0.9228515625,18.7060546875 0.230712890625,17.076416015625 0,15.322265625 0.252685546875,13.509521484375 1.0107421875,11.8212890625 2.23754906654358,10.2978515625 3.89648485183716,8.9794921875 5.97656297683716,7.8955078125 8.466796875,7.0751953125 14.501953125,6.38671922683716z M14.296875,0L18.1567363739014,0.659182548522949 22.001953125,2.63671875 21.123046875,4.62890672683716 17.7099609375,2.87109351158142 14.296875,2.34374976158142 11.103515625,2.87109351158142 7.93945360183716,4.62890672683716 7.06054735183716,2.63671875 10.74462890625,0.659182548522949 14.296875,0z" />
    </g>
  </g>
</svg>