<?xml version="1.0" encoding="utf-8"?>
<!DOCTYPE svg PUBLIC "-//W3C//DTD SVG 1.1//EN" "http://www.w3.org/Graphics/SVG/1.1/DTD/svg11.dtd">
<svg width="28.359375" height="51.2109375" xmlns="http://www.w3.org/2000/svg" xmlns:xlink="http://www.w3.org/1999/xlink" xmlns:xml="http://www.w3.org/XML/1998/namespace" version="1.1">
  <g>
    <g>
      <path style="fill:#FF0000;fill-opacity:1" d="M24.31640625,26.66015625L26.66015625,26.66015625 26.66015625,41.89453125 24.31640625,41.89453125 24.31640625,26.66015625z M0,26.66015625L2.34375047683716,26.66015625 2.34375047683716,41.89453125 0,41.89453125 0,26.66015625z M12.158203125,6.38671875L12.744140625,6.38671875 28.359375,15.615234375 27.1875,17.724609375 14.501953125,9.990234375 14.501953125,27.83203125 20.947265625,27.83203125 20.947265625,30.17578125 14.501953125,30.17578125 14.501953125,38.37890625 20.947265625,38.37890625 20.947265625,40.72265625 14.501953125,40.72265625 14.501953125,51.2109375 12.158203125,51.2109375 12.158203125,40.72265625 5.71289110183716,40.72265625 5.71289110183716,38.37890625 12.158203125,38.37890625 12.158203125,30.17578125 5.71289110183716,30.17578125 5.71289110183716,27.83203125 12.158203125,27.83203125 12.158203125,6.38671875z M14.12109375,0L17.9809551239014,0.659182548522949 21.826171875,2.63671875 20.947265625,4.62890625 17.5341796875,2.87109351158142 14.12109375,2.34375 10.927734375,2.87109351158142 7.76367235183716,4.62890625 6.88476610183716,2.63671875 10.56884765625,0.659182548522949 14.12109375,0z" />
    </g>
  </g>
</svg>