<?xml version="1.0" encoding="utf-8"?>
<!DOCTYPE svg PUBLIC "-//W3C//DTD SVG 1.1//EN" "http://www.w3.org/Graphics/SVG/1.1/DTD/svg11.dtd">
<svg width="29.091796875" height="44.82421875" xmlns="http://www.w3.org/2000/svg" xmlns:xlink="http://www.w3.org/1999/xlink" xmlns:xml="http://www.w3.org/XML/1998/namespace" version="1.1">
  <g>
    <g>
      <path style="fill:#FF0000;fill-opacity:1" d="M24.375,24.111328125L26.71875,24.111328125 26.71875,29.970703125 24.375,29.970703125 24.375,24.111328125z M3.6328125,24.111328125L5.9765625,24.111328125 5.9765625,29.970703125 3.6328125,29.970703125 3.6328125,24.111328125z M13.88671875,0L14.326171875,0 26.865234375,5.7421875 25.693359375,7.8515625 16.23046875,3.603515625 16.23046875,21.123046875 19.51171875,20.1416015625 22.6171875,17.9150390625 25.1513671875,14.326171875 26.099853515625,11.9897470474243 26.748046875,9.2578125 29.091796875,9.2578125 28.4912109375,12.3815927505493 27.451171875,15.1318359375 26.0595703125,17.5012226104736 24.404296875,19.482421875 22.5329570770264,21.07177734375 20.4931640625,22.265625 18.3654766082764,23.06396484375 16.23046875,23.466796875 16.23046875,30.615234375 18.3654766082764,31.01806640625 20.4931640625,31.81640625 22.5329570770264,33.01025390625 24.404296875,34.599609375 26.0595703125,36.580810546875 27.451171875,38.9501953125 28.4912109375,41.700439453125 29.091796875,44.82421875 26.748046875,44.82421875 26.099853515625,42.09228515625 25.1513671875,39.755859375 22.6171875,36.181640625 19.51171875,33.9697265625 16.23046875,32.98828125 16.23046875,44.82421875 13.88671875,44.82421875 13.88671875,32.958984375 10.3125,33.720703125 6.9140625,35.6982421875 5.423583984375,37.27294921875 4.1162109375,39.2724609375 3.065185546875,41.766357421875 2.34375,44.82421875 0,44.82421875 0.732421517372131,41.30859375 1.875,38.37890625 3.350830078125,35.98388671875 5.0830078125,34.072265625 7.04589748382568,32.61474609375 9.2138671875,31.58203125 13.88671875,30.615234375 13.88671875,23.49609375 9.2138671875,22.5 7.04589748382568,21.46728515625 5.0830078125,20.009765625 3.350830078125,18.0981464385986 1.875,15.703125 0.732421517372131,12.7734384536743 0,9.2578125 2.34375,9.2578125 3.065185546875,12.3193368911743 4.1162109375,14.82421875 5.423583984375,16.8347187042236 6.9140625,18.4130859375 10.3125,20.4052734375 13.88671875,21.15234375 13.88671875,0z" />
    </g>
  </g>
</svg>