<?xml version="1.0" encoding="utf-8"?>
<!DOCTYPE svg PUBLIC "-//W3C//DTD SVG 1.1//EN" "http://www.w3.org/Graphics/SVG/1.1/DTD/svg11.dtd">
<svg width="21.97265625" height="52.822265625" xmlns="http://www.w3.org/2000/svg" xmlns:xlink="http://www.w3.org/1999/xlink" xmlns:xml="http://www.w3.org/XML/1998/namespace" version="1.1">
  <g>
    <g>
      <path style="fill:#FF0000;fill-opacity:1" d="M21.064453125,6.38671922683716L21.97265625,8.90625 17.7758769989014,10.5029296875 13.974609375,12.48046875 10.623779296875,14.776611328125 7.7783203125,17.3291015625 5.47851467132568,20.11962890625 3.7646484375,23.1298828125 2.698974609375,26.3049335479736 2.34375,29.58984375 2.698974609375,32.87841796875 3.7646484375,36.064453125 5.47851467132568,39.085693359375 7.7783203125,41.8798828125 10.623779296875,44.432373046875 13.974609375,46.728515625 17.7758769989014,48.7060546875 21.97265625,50.302734375 21.064453125,52.822265625 16.5600566864014,51.0205078125 12.48046875,48.837890625 8.88427734375,46.314697265625 5.830078125,43.4912109375 3.36181569099426,40.3857421875 1.5234375,37.0166015625 0.380859375,33.416748046875 0,29.619140625 0.380859375,25.8215351104736 1.5234375,22.2216796875 3.36181569099426,18.8525390625 5.830078125,15.7470703125 8.88427734375,12.923583984375 12.48046875,10.400390625 16.5600566864014,8.21044921875 21.064453125,6.38671922683716z M9.990234375,0L13.85009765625,0.659182548522949 17.6953125,2.63671875 16.81640625,4.62890672683716 13.4033203125,2.87109351158142 9.990234375,2.34374976158142 6.796875,2.87109351158142 3.6328125,4.62890672683716 2.75390625,2.63671875 6.43798780441284,0.659182548522949 9.990234375,0z" />
    </g>
  </g>
</svg>