<?xml version="1.0" encoding="utf-8"?>
<!DOCTYPE svg PUBLIC "-//W3C//DTD SVG 1.1//EN" "http://www.w3.org/Graphics/SVG/1.1/DTD/svg11.dtd">
<svg width="30.5859375" height="46.435546875" xmlns="http://www.w3.org/2000/svg" xmlns:xlink="http://www.w3.org/1999/xlink" xmlns:xml="http://www.w3.org/XML/1998/namespace" version="1.1">
  <g>
    <g>
      <path style="fill:#FF0000;fill-opacity:1" d="M15.29296875,12.744140625L8.583984375,23.232421875 15.29296875,33.720703125 22.001953125,23.232421875 15.29296875,12.744140625z M9.9609375,0L15.29296875,8.349609375 20.625,0 22.6171875,1.2890625 16.69921875,10.546875 23.408203125,21.03515625 28.59375,12.919921875 30.5859375,14.208984375 24.814453125,23.232421875 30.5859375,32.2265625 28.59375,33.515625 23.408203125,25.4296875 16.69921875,35.91796875 22.6171875,45.146484375 20.625,46.435546875 15.29296875,38.115234375 9.9609375,46.435546875 7.96875,45.146484375 13.88671875,35.91796875 7.177734375,25.4296875 1.9921875,33.515625 0,32.2265625 5.771484375,23.232421875 0,14.208984375 1.9921875,12.919921875 7.177734375,21.03515625 13.88671875,10.546875 7.96875,1.2890625 9.9609375,0z" />
    </g>
  </g>
</svg>