<?xml version="1.0" encoding="utf-8"?>
<!DOCTYPE svg PUBLIC "-//W3C//DTD SVG 1.1//EN" "http://www.w3.org/Graphics/SVG/1.1/DTD/svg11.dtd">
<svg width="35.185546875" height="46.435546875" xmlns="http://www.w3.org/2000/svg" xmlns:xlink="http://www.w3.org/1999/xlink" xmlns:xml="http://www.w3.org/XML/1998/namespace" version="1.1">
  <g>
    <g>
      <path style="fill:#FF0000;fill-opacity:1" d="M19.013671875,16.259765625L19.013671875,26.748046875 25.751953125,26.748046875 25.751953125,16.259765625 19.013671875,16.259765625z M9.931640625,16.259765625L9.931640625,26.748046875 16.669921875,26.748046875 16.669921875,16.259765625 9.931640625,16.259765625z M25.751953125,0L26.337890625,0 35.185546875,7.20703125 33.75,9.111328125 28.095703125,4.453125 28.095703125,44.82421875 25.751953125,44.82421875 25.751953125,29.091796875 19.013671875,29.091796875 19.013671875,44.82421875 16.669921875,44.82421875 16.669921875,29.091796875 9.931640625,29.091796875 9.931640625,46.435546875 9.345703125,46.435546875 0,40.48828125 1.318359375,38.49609375 7.587890625,42.744140625 7.587890625,1.611328125 9.931640625,1.611328125 9.931640625,13.916015625 16.669921875,13.916015625 16.669921875,1.611328125 19.013671875,1.611328125 19.013671875,13.916015625 25.751953125,13.916015625 25.751953125,0z" />
    </g>
  </g>
</svg>