<?xml version="1.0" encoding="utf-8"?>
<!DOCTYPE svg PUBLIC "-//W3C//DTD SVG 1.1//EN" "http://www.w3.org/Graphics/SVG/1.1/DTD/svg11.dtd">
<svg width="28.271484375" height="43.798828125" xmlns="http://www.w3.org/2000/svg" xmlns:xlink="http://www.w3.org/1999/xlink" xmlns:xml="http://www.w3.org/XML/1998/namespace" version="1.1">
  <g>
    <g>
      <path style="fill:#FF0000;fill-opacity:1" d="M14.736328125,19.072265625L14.736328125,35.0390625 18.8122539520264,33.65478515625 21.7236309051514,31.69921875 23.4704570770264,29.17236328125 24.052734375,26.07421875 23.4997539520264,23.653564453125 21.8408203125,21.6650390625 18.9587383270264,20.130615234375 14.736328125,19.072265625z M3.69140625,18.75L6.03515625,18.75 6.03515625,36.533203125 3.69140625,36.533203125 3.69140625,18.75z M0,0L0.585937976837158,0 25.927734375,13.974609375 25.927734375,0.5859375 28.271484375,0.5859375 28.271484375,17.578125 27.685546875,17.578125 14.736328125,10.60546875 14.736328125,16.728515625 17.5286846160889,17.3254413604736 19.9291973114014,18.0908222198486 21.9378643035889,19.0246601104736 23.5546875,20.126953125 25.68603515625,22.80029296875 26.396484375,26.07421875 25.65673828125,30.252685546875 23.4375,33.5302734375 19.7827129364014,35.899658203125 14.736328125,37.353515625 14.736328125,43.798828125 12.392578125,43.798828125 12.392578125,9.345703125 2.34375,3.92578125 2.34375,16.9921875 0,16.9921875 0,0z" />
    </g>
  </g>
</svg>