<?xml version="1.0" encoding="utf-8"?>
<!DOCTYPE svg PUBLIC "-//W3C//DTD SVG 1.1//EN" "http://www.w3.org/Graphics/SVG/1.1/DTD/svg11.dtd">
<svg width="27.275390625001" height="51.2109375" xmlns="http://www.w3.org/2000/svg" xmlns:xlink="http://www.w3.org/1999/xlink" xmlns:xml="http://www.w3.org/XML/1998/namespace" version="1.1">
  <g>
    <g>
      <path style="fill:#FF0000;fill-opacity:1" d="M12.099609375,20.185546875L8.0712890625,20.859375 4.9951171875,22.1923828125 3.0322265625,24.345703125 2.34375,27.48046875 3.0615234375,30.5126953125 5.068359375,32.6513671875 8.14453125,34.0283203125 12.099609375,34.775390625 12.099609375,20.185546875z M12.099609375,6.38671875L12.685546875,6.38671875 26.103515625,12.65625 24.990234375,14.58984375 14.443359375,9.873046875 14.443359375,17.666015625 15.76171875,17.6220703125 17.138671875,17.607421875 27.275390625,17.607421875 27.275390625,19.951171875 17.138671875,19.951171875 15.76171875,19.9658203125 14.443359375,20.009765625 14.443359375,26.30859375 27.275390625,26.30859375 27.275390625,28.65234375 14.443359375,28.65234375 14.443359375,34.951171875 15.76171875,35.009765625 17.138671875,35.009765625 27.275390625,35.009765625 27.275390625,37.353515625 17.16796875,37.353515625 15.76171875,37.353515625 14.443359375,37.294921875 14.443359375,47.98828125 13.857421875,47.98828125 4.16015625,41.982421875 4.16015625,51.2109375 1.81640625,51.2109375 1.81640625,38.291015625 2.40234375,38.291015625 12.099609375,44.208984375 12.099609375,37.119140625 8.763427734375,36.610107421875 6.0791015625,35.8447265625 3.973388671875,34.852294921875 2.373046875,33.662109375 1.23413062095642,32.2998046875 0.5126953125,30.791015625 0,27.48046875 0.189513891935349,25.4251117706299 0.758056282997131,23.6242694854736 1.70562720298767,22.0779438018799 3.0322265625,20.7861328125 4.73602247238159,19.7286987304688 6.81518459320068,18.885498046875 9.26971340179443,18.2565307617188 12.099609375,17.841796875 12.099609375,6.38671875z M13.59375,0L17.4536113739014,0.659182548522949 21.298828125,2.63671875 20.419921875,4.62890625 17.0068359375,2.87109351158142 13.59375,2.34375 10.400390625,2.87109351158142 7.236328125,4.62890625 6.357421875,2.63671875 10.04150390625,0.659182548522949 13.59375,0z" />
    </g>
  </g>
</svg>