<?xml version="1.0" encoding="utf-8"?>
<!DOCTYPE svg PUBLIC "-//W3C//DTD SVG 1.1//EN" "http://www.w3.org/Graphics/SVG/1.1/DTD/svg11.dtd">
<svg width="30.52734375" height="46.435546875" xmlns="http://www.w3.org/2000/svg" xmlns:xlink="http://www.w3.org/1999/xlink" xmlns:xml="http://www.w3.org/XML/1998/namespace" version="1.1">
  <g>
    <g>
      <path style="fill:#FF0000;fill-opacity:1" d="M1.40625,36.97265625L4.6142578125,39.9609375 8.1298828125,42.2021484375 11.748046875,43.6083984375 15.263671875,44.091796875 18.779296875,43.6083984375 22.3828125,42.2021484375 25.8837890625,39.9609375 29.12109375,36.97265625 30.52734375,39.0234375 27.36328125,41.953125 23.6865234375,44.296875 19.6142578125,45.8642578125 15.263671875,46.435546875 10.9130859375,45.8642578125 6.8408203125,44.296875 3.1640625,41.953125 0,39.0234375 1.40625,36.97265625z M15.263671875,17.900390625L10.693359375,18.6474609375 7.44140625,20.625 5.5078125,23.4375 4.86328125,26.689453125 5.5078125,29.94140625 7.44140625,32.75390625 10.693359375,34.7314453125 15.263671875,35.478515625 19.8193359375,34.7314453125 23.0712890625,32.75390625 25.01953125,29.94140625 25.6640625,26.71875 25.01953125,23.466796875 23.0712890625,20.6396484375 19.8193359375,18.6474609375 15.263671875,17.900390625z M14.091796875,0L14.677734375,0 26.455078125,6.943359375 25.3125,8.96484375 16.435546875,3.779296875 16.435546875,15.615234375 19.0612773895264,15.9887714385986 21.3720703125,16.7578125 25.0048828125,19.2333984375 27.24609375,22.67578125 27.8173828125,24.6533203125 28.0078125,26.71875 27.799072265625,28.890380859375 27.1728515625,30.9521484375 26.1401348114014,32.838134765625 24.7119140625,34.482421875 20.712890625,36.9140625 18.1640625,37.59521484375 15.263671875,37.822265625 12.36328125,37.59521484375 9.814453125,36.9140625 5.8154296875,34.4677734375 4.38720703125,32.8125 3.3544921875,30.9228515625 2.72827124595642,28.861083984375 2.51953125,26.689453125 2.70996069908142,24.6240234375 3.28125,22.646484375 5.5078125,19.21875 9.140625,16.7578125 11.46240234375,15.9887714385986 14.091796875,15.615234375 14.091796875,0z" />
    </g>
  </g>
</svg>