<?xml version="1.0" encoding="utf-8"?>
<!DOCTYPE svg PUBLIC "-//W3C//DTD SVG 1.1//EN" "http://www.w3.org/Graphics/SVG/1.1/DTD/svg11.dtd">
<svg width="31.34765625" height="52.822265625" xmlns="http://www.w3.org/2000/svg" xmlns:xlink="http://www.w3.org/1999/xlink" xmlns:xml="http://www.w3.org/XML/1998/namespace" version="1.1">
  <g>
    <g>
      <path style="fill:#FF0000;fill-opacity:1" d="M13.271484375,26.162109375L13.2421875,27.890625 13.2421875,29.6484375 13.311767578125,34.420166015625 13.5205078125,38.5986328125 13.883056640625,42.169189453125 14.4140625,45.1171875 15.1171875,47.435302734375 15.99609375,49.1162109375 17.0654296875,50.137939453125 18.33984375,50.478515625 19.5373516082764,50.185546875 20.5517578125,49.306640625 21.3977031707764,47.8564453125 22.08984375,45.849609375 22.6281719207764,43.29345703125 23.0126953125,40.1953125 23.2653789520264,36.56982421875 23.408203125,32.431640625 13.271484375,26.162109375z M18.33984375,8.73046875L17.2705078125,9.005126953125 16.34765625,9.8291015625 15.560302734375,11.143798828125 14.8974609375,12.890625 13.9306640625,17.5634765625 13.388671875,23.49609375 23.4375,29.736328125 23.4375,29.6484375 23.1591796875,21.4306640625 22.7966289520264,17.860107421875 22.265625,14.794921875 21.5624980926514,12.279052734375 20.68359375,10.3564453125 19.6142559051514,9.136962890625 18.33984375,8.73046875z M18.33984375,6.38671922683716L20.2294902801514,6.719970703125 21.796875,7.7197265625 23.0712871551514,9.422607421875 24.08203125,11.865234375 24.8437480926514,15.076904296875 25.37109375,19.0869140625 25.6787090301514,23.9318866729736 25.78125,29.6484375 25.78125,31.201171875 29.00390625,33.193359375 29.00390625,13.828125 31.34765625,13.828125 31.34765625,45.46875 29.00390625,45.46875 29.00390625,35.91796875 25.72265625,33.8671875 25.5175762176514,38.521728515625 25.13671875,42.4658203125 24.5617656707764,45.732421875 23.7744140625,48.3544921875 22.7673320770264,50.350341796875 21.533203125,51.73828125 20.0610332489014,52.55126953125 18.33984375,52.822265625 16.446533203125,52.49267578125 14.8681640625,51.50390625 13.582763671875,49.815673828125 12.568359375,47.3876953125 11.810302734375,44.190673828125 11.2939453125,40.1953125 10.9973134994507,35.361328125 10.8984375,29.6484375 10.986328125,24.7265625 7.5,22.55859375 7.5,41.279296875 6.9140625,41.279296875 0,35.68359375 1.318359375,33.837890625 5.15625,37.03125 5.15625,18.75 5.7421875,18.75 11.07421875,22.08984375 11.3818359375,18.251953125 11.8359375,15 12.451171875,12.301025390625 13.2421875,10.1220703125 14.21630859375,8.455810546875 15.380859375,7.294921875 16.75048828125,6.61376953125 18.33984375,6.38671922683716z M15.498046875,0L19.3579082489014,0.659182548522949 23.203125,2.63671875 22.32421875,4.62890672683716 18.9111328125,2.87109351158142 15.498046875,2.34374976158142 12.3046875,2.87109351158142 9.140625,4.62890672683716 8.26171875,2.63671875 11.94580078125,0.659182548522949 15.498046875,0z" />
    </g>
  </g>
</svg>