<?xml version="1.0" encoding="utf-8"?>
<!DOCTYPE svg PUBLIC "-//W3C//DTD SVG 1.1//EN" "http://www.w3.org/Graphics/SVG/1.1/DTD/svg11.dtd">
<svg width="26.689453125" height="52.822265625" xmlns="http://www.w3.org/2000/svg" xmlns:xlink="http://www.w3.org/1999/xlink" xmlns:xml="http://www.w3.org/XML/1998/namespace" version="1.1">
  <g>
    <g>
      <path style="fill:#FF0000;fill-opacity:1" d="M0.99609375,15.322265625L3.33984375,15.322265625 3.33984375,32.314453125 0.99609375,32.314453125 0.99609375,15.322265625z M12.216796875,6.38671922683716L14.560546875,6.38671922683716 14.560546875,15.029296875 26.689453125,15.029296875 26.689453125,17.373046875 14.560546875,17.373046875 14.560546875,36.328125 26.689453125,36.328125 26.689453125,38.671875 14.560546875,38.671875 14.560546875,52.822265625 13.974609375,52.822265625 0,44.0625 1.171875,41.953125 12.216796875,49.21875 12.216796875,6.38671922683716z M13.095703125,0L16.9555644989014,0.659182548522949 20.80078125,2.63671875 19.921875,4.62890672683716 16.5087890625,2.87109351158142 13.095703125,2.34374976158142 9.90234375,2.87109351158142 6.73828125,4.62890672683716 5.859375,2.63671875 9.54345703125,0.659182548522949 13.095703125,0z" />
    </g>
  </g>
</svg>