<?xml version="1.0" encoding="utf-8"?>
<!DOCTYPE svg PUBLIC "-//W3C//DTD SVG 1.1//EN" "http://www.w3.org/Graphics/SVG/1.1/DTD/svg11.dtd">
<svg width="29.0625000000004" height="43.212890625" xmlns="http://www.w3.org/2000/svg" xmlns:xlink="http://www.w3.org/1999/xlink" xmlns:xml="http://www.w3.org/XML/1998/namespace" version="1.1">
  <g>
    <g>
      <path style="fill:#FF0000;fill-opacity:1" d="M7.96875,16.9921875L10.3125,16.9921875 10.3125,26.66015625 7.96875,26.66015625 7.96875,16.9921875z M14.0625,9.0234375L9.9609375,10.634765625 6.181640625,13.154296875 3.4130859375,16.8017578125 2.611083984375,19.1198749542236 2.34375,21.826171875 2.61474609375,24.55810546875 3.427734375,26.89453125 6.2109375,30.5419921875 10.0048828125,33.0322265625 14.12109375,34.62890625 14.70703125,33.046875 15.8642578125,31.494140625 17.7099609375,30.0439453125 20.302734375,28.76953125 17.724609375,27.890625 15.732421875,26.4990234375 14.4580078125,24.5068359375 14.00390625,21.826171875 14.410400390625,19.464111328125 15.6298828125,17.5927734375 17.611083984375,16.1389179229736 20.302734375,15.029296875 18.0029296875,14.267578125 16.11328125,13.0224609375 14.7509765625,11.2646484375 14.0625,9.0234375z M28.271484375,0L29.0625,0 29.0625,2.34375 28.330078125,2.34375 25.4562358856201,2.431640625 22.9870586395264,2.6953125 20.9225444793701,3.134765625 19.2626953125,3.75 17.076416015625,5.51513671875 16.34765625,7.998046875 16.54541015625,9.2578125 17.138671875,10.400390625 19.3798828125,12.2607421875 22.8369140625,13.4912109375 27.3046875,14.0625 29.0625,14.0625 29.0625,16.40625 27.24609375,16.40625 22.4047832489014,16.7944355010986 19.013671875,17.783203125 17.01416015625,19.4531269073486 16.34765625,21.884765625 16.549072265625,23.096923828125 17.1533203125,24.1552734375 19.39453125,25.83984375 22.8369140625,26.9384765625 27.24609375,27.392578125 29.0625,27.392578125 29.0625,29.736328125 27.568359375,29.736328125 24.7705059051514,29.9267578125 22.412109375,30.322265625 20.4711894989014,30.8935546875 18.92578125,31.611328125 16.962890625,33.4716796875 16.34765625,35.80078125 16.552734375,37.210693359375 17.16796875,38.3349609375 19.5263671875,39.873046875 23.291015625,40.6494140625 28.330078125,40.869140625 29.0625,40.869140625 29.0625,43.212890625 28.359375,43.212890625 22.8076171875,42.9345703125 18.45703125,41.9677734375 15.4833984375,40.078125 14.571533203125,38.7158203125 14.091796875,37.03125 9.0234375,35.2001953125 4.4970703125,32.16796875 2.6806640625,30.146484375 1.2451171875,27.7734375 0.311278939247131,25.01220703125 0,21.826171875 0.311278939247131,18.6584491729736 1.2451171875,15.8935546875 2.684326171875,13.5095233917236 4.51171875,11.484375 9.052734375,8.4375 14.12109375,6.591796875 15.428466796875,3.69873046875 18.1787109375,1.640625 20.1113872528076,0.9228515625 22.4377422332764,0.41015625 25.1577739715576,0.1025390625 28.271484375,0z" />
    </g>
  </g>
</svg>