<?xml version="1.0" encoding="utf-8"?>
<!DOCTYPE svg PUBLIC "-//W3C//DTD SVG 1.1//EN" "http://www.w3.org/Graphics/SVG/1.1/DTD/svg11.dtd">
<svg width="29.53125" height="44.82421875" xmlns="http://www.w3.org/2000/svg" xmlns:xlink="http://www.w3.org/1999/xlink" xmlns:xml="http://www.w3.org/XML/1998/namespace" version="1.1">
  <g>
    <g>
      <path style="fill:#FF0000;fill-opacity:1" d="M5.2734375,14.6484375L7.6171875,14.6484375 7.6171875,23.4375 5.2734375,23.4375 5.2734375,14.6484375z M10.546875,2.9296875L12.890625,2.9296875 12.890625,11.71875 10.546875,11.71875 10.546875,2.9296875z M0,2.9296875L2.34375,2.9296875 2.34375,11.71875 0,11.71875 0,2.9296875z M18.720703125,0L19.306640625,0 29.53125,6.62109375 28.154296875,8.466796875 21.064453125,3.779296875 21.064453125,37.6171875 20.478515625,37.6171875 4.8046875,31.611328125 4.8046875,44.82421875 2.4609375,44.82421875 2.4609375,28.505859375 3.046875,28.505859375 18.720703125,34.423828125 18.720703125,0z" />
    </g>
  </g>
</svg>