<?xml version="1.0" encoding="utf-8"?>
<!DOCTYPE svg PUBLIC "-//W3C//DTD SVG 1.1//EN" "http://www.w3.org/Graphics/SVG/1.1/DTD/svg11.dtd">
<svg width="33.3984375" height="46.435546875" xmlns="http://www.w3.org/2000/svg" xmlns:xlink="http://www.w3.org/1999/xlink" xmlns:xml="http://www.w3.org/XML/1998/namespace" version="1.1">
  <g>
    <g>
      <path style="fill:#FF0000;fill-opacity:1" d="M0.908203125,0L6.123046875,2.9150390625 10.6201171875,6.6650390625 14.208984375,11.1328125 16.69921875,16.201171875 19.16015625,11.1328125 22.7490234375,6.6650390625 27.2607421875,2.9150390625 32.490234375,0 33.3984375,2.2265625 30.22705078125,3.834228515625 27.275390625,5.8447265625 24.6240215301514,8.1884765625 22.353515625,10.7958984375 20.4931621551514,13.6413583755493 19.072265625,16.69921875 18.17138671875,19.9072284698486 17.87109375,23.203125 18.17138671875,26.502685546875 19.072265625,29.7216796875 20.4931621551514,32.79052734375 22.353515625,35.6396484375 24.6240215301514,38.2470703125 27.275390625,40.5908203125 30.22705078125,42.601318359375 33.3984375,44.208984375 32.490234375,46.435546875 27.2607421875,43.5205078125 22.7490234375,39.78515625 19.16015625,35.3466796875 16.69921875,30.263671875 14.208984375,35.3466796875 10.6201171875,39.78515625 6.123046875,43.5205078125 0.908203125,46.435546875 0,44.208984375 3.17138648033142,42.601318359375 6.123046875,40.5908203125 8.77441310882568,38.2470703125 11.044921875,35.6396484375 12.9052734375,32.79052734375 14.326171875,29.7216796875 15.22705078125,26.502685546875 15.52734375,23.203125 15.22705078125,19.9072284698486 14.326171875,16.69921875 12.9052734375,13.6413583755493 11.044921875,10.7958984375 8.77441310882568,8.1884765625 6.123046875,5.8447265625 3.17138648033142,3.834228515625 0,2.2265625 0.908203125,0z" />
    </g>
  </g>
</svg>