<?xml version="1.0" encoding="utf-8"?>
<!DOCTYPE svg PUBLIC "-//W3C//DTD SVG 1.1//EN" "http://www.w3.org/Graphics/SVG/1.1/DTD/svg11.dtd">
<svg width="30.05859375" height="44.82421875" xmlns="http://www.w3.org/2000/svg" xmlns:xlink="http://www.w3.org/1999/xlink" xmlns:xml="http://www.w3.org/XML/1998/namespace" version="1.1">
  <g>
    <g>
      <path style="fill:#FF0000;fill-opacity:1" d="M16.845703125,16.201171875L16.5234375,16.5234375 16.5234375,31.611328125 20.8740234375,30.6884765625 23.96484375,28.8720703125 25.810546875,26.4990234375 26.42578125,23.90625 25.83984375,21.357421875 24.052734375,18.984375 21.0498046875,17.1533203125 16.845703125,16.201171875z M7.470703125,4.62890625L9.814453125,4.62890625 9.814453125,16.81640625 9.7265625,18.3837890625 9.2578125,20.068359375 8.0859375,21.416015625 5.859375,21.97265625 4.0576171875,21.533203125 2.490234375,20.4052734375 1.142578125,18.8818359375 0,17.255859375 1.69921875,15.64453125 2.75390625,17.0947265625 3.7939453125,18.369140625 4.8193359375,19.27734375 5.859375,19.62890625 6.71996974945068,19.449462890625 7.1923828125,18.9111328125 7.470703125,16.81640625 7.470703125,4.62890625z M14.1796875,0L16.5234375,0 16.5234375,13.30078125 28.623046875,1.376953125 30.05859375,3.134765625 18.955078125,14.091796875 23.203125,15.4833984375 26.279296875,17.75390625 28.1396484375,20.654296875 28.76953125,23.90625 28.57177734375,25.7666015625 27.978515625,27.5390625 25.6494140625,30.64453125 21.826171875,32.900390625 16.5234375,33.955078125 16.5234375,44.82421875 15.9375,44.82421875 1.46484375,36.181640625 2.9296875,34.072265625 14.1796875,40.83984375 14.1796875,0z" />
    </g>
  </g>
</svg>