<?xml version="1.0" encoding="utf-8"?>
<!DOCTYPE svg PUBLIC "-//W3C//DTD SVG 1.1//EN" "http://www.w3.org/Graphics/SVG/1.1/DTD/svg11.dtd">
<svg width="29.033203125" height="46.435546875" xmlns="http://www.w3.org/2000/svg" xmlns:xlink="http://www.w3.org/1999/xlink" xmlns:xml="http://www.w3.org/XML/1998/namespace" version="1.1">
  <g>
    <g>
      <path style="fill:#FF0000;fill-opacity:1" d="M27.568359375,10.986328125L28.9453125,12.83203125 26.8249492645264,14.5404062271118 25.1220684051514,16.5893573760986 23.8366680145264,18.9788837432861 22.96875,21.708984375 29.033203125,21.708984375 29.033203125,24.052734375 22.96875,24.052734375 23.5070781707764,26.861572265625 24.6826152801514,29.5166015625 26.4953594207764,32.017822265625 28.9453125,34.365234375 27.568359375,36.240234375 24.7357158660889,33.446044921875 22.6245098114014,30.4833984375 21.2347393035889,27.352294921875 20.56640625,24.052734375 17.724609375,24.052734375 17.724609375,21.708984375 20.56640625,21.708984375 21.6522197723389,18.2592792510986 23.1811504364014,15.3222675323486 25.1531963348389,12.8979501724243 27.568359375,10.986328125z M28.06640625,0L29.033203125,2.34375 23.7451171875,6.4892578125 19.5849609375,11.4990234375 18.0322265625,14.2492694854736 16.8603515625,17.138671875 16.124267578125,20.1269550323486 15.87890625,23.173828125 16.124267578125,26.224365234375 16.8603515625,29.2236328125 18.0322265625,32.13134765625 19.5849609375,34.9072265625 23.7451171875,39.9609375 29.033203125,44.091796875 28.06640625,46.435546875 22.1484375,41.71875 17.5634765625,36.03515625 15.860595703125,32.958984375 14.58984375,29.765625 13.798828125,26.513671875 13.53515625,23.26171875 13.6083984375,21.533203125 13.828125,19.775390625 8.876953125,15.41015625 8.876953125,46.435546875 8.291015625,46.435546875 0,38.466796875 1.376953125,36.591796875 6.533203125,41.77734375 6.533203125,10.693359375 7.119140625,10.693359375 14.384765625,17.34375 16.3916015625,12.421875 19.423828125,7.763671875 23.3642578125,3.57421875 28.06640625,0z" />
    </g>
  </g>
</svg>