<?xml version="1.0" encoding="utf-8"?>
<!DOCTYPE svg PUBLIC "-//W3C//DTD SVG 1.1//EN" "http://www.w3.org/Graphics/SVG/1.1/DTD/svg11.dtd">
<svg width="28.6523437500005" height="46.435546875" xmlns="http://www.w3.org/2000/svg" xmlns:xlink="http://www.w3.org/1999/xlink" xmlns:xml="http://www.w3.org/XML/1998/namespace" version="1.1">
  <g>
    <g>
      <path style="fill:#FF0000;fill-opacity:1" d="M9.052734375,17.109375L11.396484375,17.109375 11.396484375,25.8984375 9.052734375,25.8984375 9.052734375,17.109375z M16.2890625,10.546875L12.9849243164063,11.1721801757813 10.133056640625,11.993408203125 7.73345899581909,13.0105590820313 5.7861328125,14.2236328125 4.28009033203125,15.6417856216431 3.204345703125,17.2741718292236 2.55889892578125,19.1207904815674 2.34375,21.181640625 2.56439208984375,23.2489013671875 3.226318359375,25.11474609375 4.32952880859375,26.7791748046875 5.8740234375,28.2421875 7.84881544113159,29.5037841796875 10.242919921875,30.56396484375 13.0563354492188,31.4227294921875 16.2890625,32.080078125 16.2890625,10.546875z M16.2890625,0L16.875,0 28.65234375,6.943359375 27.509765625,8.96484375 18.6328125,3.779296875 18.6328125,46.435546875 18.046875,46.435546875 5.595703125,38.935546875 6.767578125,37.03125 16.2890625,42.744140625 16.2890625,34.423828125 12.586669921875,33.62548828125 9.3310546875,32.578125 6.54052639007568,31.28173828125 4.2333984375,29.736328125 2.413330078125,27.94921875 1.083984375,25.927734375 0.270995736122131,23.671875 0,21.181640625 0.254516452550888,18.6973571777344 1.01806616783142,16.4593505859375 2.29064917564392,14.4676218032837 4.072265625,12.7221689224243 6.3629150390625,11.2229928970337 9.16259765625,9.9700927734375 12.4713134765625,8.96347045898438 16.2890625,8.203125 16.2890625,0z" />
    </g>
  </g>
</svg>