<?xml version="1.0" encoding="utf-8"?>
<!DOCTYPE svg PUBLIC "-//W3C//DTD SVG 1.1//EN" "http://www.w3.org/Graphics/SVG/1.1/DTD/svg11.dtd">
<svg width="29.150390625" height="46.435546875" xmlns="http://www.w3.org/2000/svg" xmlns:xlink="http://www.w3.org/1999/xlink" xmlns:xml="http://www.w3.org/XML/1998/namespace" version="1.1">
  <g>
    <g>
      <path style="fill:#FF0000;fill-opacity:1" d="M23.49609375,2.34375L21.9580078125,2.8125 20.9912109375,4.072265625 20.44921875,5.859375 20.21484375,7.8955078125 20.1708984375,9.9462890625 20.185546875,11.748046875 20.2587890625,14.3408203125 20.654296875,16.8603515625 21.6357421875,18.7646484375 23.49609375,19.51171875 24.6350078582764,19.2919940948486 25.4736328125,18.6328125 26.455078125,16.46484375 26.77734375,13.681640625 26.806640625,10.95703125 26.77734375,8.203125 26.455078125,5.4052734375 25.4736328125,3.22265625 24.6350078582764,2.5634765625 23.49609375,2.34375z M11.044921875,0L11.630859375,0 18.134765625,6.15234375 18.7353515625,3.7060546875 19.7607421875,1.7578125 21.3134765625,0.468750476837158 23.49609375,0 25.1147441864014,0.230712890625 26.396484375,0.9228515625 28.125,3.369140625 28.9453125,6.8701171875 29.150390625,10.95703125 28.9453125,15.029296875 28.125,18.5009765625 26.396484375,20.9326171875 25.1147441864014,21.624755859375 23.49609375,21.85546875 21.8774394989014,21.62841796875 20.595703125,20.947265625 18.8671875,18.515625 18.046875,15.0146484375 17.841796875,10.927734375 17.841796875,10.048828125 17.87109375,9.19921875 13.388671875,4.86328125 13.388671875,46.435546875 12.802734375,46.435546875 0,38.4375 1.17187452316284,36.533203125 11.044921875,42.744140625 11.044921875,31.083984375 0,24.521484375 1.20117139816284,22.5 11.044921875,28.359375 11.044921875,18.28125 0,11.71875 1.20117139816284,9.697265625 11.044921875,15.556640625 11.044921875,0z" />
    </g>
  </g>
</svg>