<?xml version="1.0" encoding="utf-8"?>
<!DOCTYPE svg PUBLIC "-//W3C//DTD SVG 1.1//EN" "http://www.w3.org/Graphics/SVG/1.1/DTD/svg11.dtd">
<svg width="33.2812500000008" height="52.822265625" xmlns="http://www.w3.org/2000/svg" xmlns:xlink="http://www.w3.org/1999/xlink" xmlns:xml="http://www.w3.org/XML/1998/namespace" version="1.1">
  <g>
    <g>
      <path style="fill:#FF0000;fill-opacity:1" d="M9.580078125,24.08203125L11.923828125,24.08203125 11.923828125,35.21484375 9.580078125,35.21484375 9.580078125,24.08203125z M10.517578125,8.73046875L8.43383693695068,9.0966796875 6.6943359375,10.1953125 5.277099609375,11.949462890625 4.16015625,14.2822265625 3.32885694503784,17.164306640625 2.76855444908142,20.56640625 2.34374976158142,28.623046875 2.44995069503784,33.43505859375 2.76855444908142,37.734375 3.32885694503784,41.473388671875 4.16015625,44.6044921875 5.277099609375,47.105712890625 6.6943359375,48.955078125 8.43383693695068,50.09765625 10.517578125,50.478515625 12.601318359375,50.09765625 14.3408203125,48.955078125 15.758056640625,47.105712890625 16.875,44.6044921875 17.706298828125,41.473388671875 18.2666015625,37.734375 18.585205078125,33.43505859375 18.69140625,28.623046875 18.2666015625,20.56640625 17.706298828125,17.164306640625 16.875,14.2822265625 15.758056640625,11.949462890625 14.3408203125,10.1953125 12.601318359375,9.0966796875 10.517578125,8.73046875z M10.517578125,6.38671922683716L12.94189453125,6.676025390625 15.05859375,7.5439453125 16.8603515625,9.0673828125 18.33984375,11.3232421875 19.4970703125,14.344482421875 20.33203125,18.1640625 20.8447246551514,22.8515644073486 21.03515625,28.4765625 24.31640625,28.4765625 24.31640625,18.10546875 26.66015625,18.10546875 26.66015625,28.4765625 30.9375,28.4765625 30.9375,18.10546875 33.28125,18.10546875 33.28125,41.103515625 30.9375,41.103515625 30.9375,30.8203125 26.66015625,30.8203125 26.66015625,41.103515625 24.31640625,41.103515625 24.31640625,30.8203125 21.005859375,30.8203125 20.7376079559326,36.0543823242188 20.1672344207764,40.565185546875 19.2947368621826,44.3527221679688 18.1201171875,47.4169921875 16.6506958007813,49.7817993164063 14.893798828125,51.470947265625 12.8494262695313,52.4844360351563 10.517578125,52.822265625 8.082275390625,52.4505615234375 5.9619140625,51.33544921875 4.15649366378784,49.4769287109375 2.66601490974426,46.875 1.49963331222534,43.5040283203125 0.666503548622131,39.33837890625 0.166625738143921,34.3780517578125 0,28.623046875 0.168456733226776,22.9467792510986 0.673827886581421,18.22265625 1.50878882408142,14.381103515625 2.66601490974426,11.3525390625 4.14550733566284,9.093017578125 5.947265625,7.55859375 8.0712890625,6.6796875 10.517578125,6.38671922683716z M16.376953125,0L20.2368144989014,0.659182548522949 24.08203125,2.63671875 23.203125,4.62890672683716 19.7900390625,2.87109351158142 16.376953125,2.34374976158142 13.18359375,2.87109351158142 10.01953125,4.62890672683716 9.140625,2.63671875 12.82470703125,0.659182548522949 16.376953125,0z" />
    </g>
  </g>
</svg>