<?xml version="1.0" encoding="utf-8"?>
<!DOCTYPE svg PUBLIC "-//W3C//DTD SVG 1.1//EN" "http://www.w3.org/Graphics/SVG/1.1/DTD/svg11.dtd">
<svg width="30.99609375" height="46.435546875" xmlns="http://www.w3.org/2000/svg" xmlns:xlink="http://www.w3.org/1999/xlink" xmlns:xml="http://www.w3.org/XML/1998/namespace" version="1.1">
  <g>
    <g>
      <path style="fill:#FF0000;fill-opacity:1" d="M6.533203125,5.830078125L6.9140625,5.830078125 15.41015625,12.333984375 14.033203125,14.208984375 8.876953125,9.90234375 8.876953125,33.28125 8.3203125,33.28125 0,26.77734375 1.376953125,24.90234375 6.533203125,29.208984375 6.533203125,5.830078125z M17.9296875,0L18.57421875,0 30.99609375,7.529296875 29.53125,9.7265625 20.33203125,3.984375 20.33203125,13.65234375 30.99609375,20.2734375 29.53125,22.470703125 20.302734375,16.69921875 20.302734375,26.396484375 30.99609375,33.017578125 29.53125,35.21484375 20.33203125,29.47265625 20.302734375,46.435546875 19.6875,46.435546875 7.265625,38.90625 8.73046875,36.708984375 17.9296875,42.451171875 17.9296875,0z" />
    </g>
  </g>
</svg>