<?xml version="1.0" encoding="utf-8"?>
<!DOCTYPE svg PUBLIC "-//W3C//DTD SVG 1.1//EN" "http://www.w3.org/Graphics/SVG/1.1/DTD/svg11.dtd">
<svg width="26.66015625" height="52.822265625" xmlns="http://www.w3.org/2000/svg" xmlns:xlink="http://www.w3.org/1999/xlink" xmlns:xml="http://www.w3.org/XML/1998/namespace" version="1.1">
  <g>
    <g>
      <path style="fill:#FF0000;fill-opacity:1" d="M0,12.392578125L2.34375,12.392578125 2.34375,33.837890625 0,33.837890625 0,12.392578125z M15.791015625,6.38671922683716L18.134765625,6.38671922683716 18.134765625,14.501953125 26.66015625,14.501953125 26.66015625,16.845703125 18.134765625,16.845703125 18.134765625,27.5390625 26.66015625,27.5390625 26.66015625,29.8828125 18.134765625,29.8828125 18.134765625,52.822265625 17.548828125,52.822265625 1.5234375,44.58984375 2.6953125,42.48046875 15.791015625,49.21875 15.791015625,29.8828125 7.1484375,29.8828125 7.1484375,27.5390625 15.791015625,27.5390625 15.791015625,16.845703125 7.1484375,16.845703125 7.1484375,14.501953125 15.791015625,14.501953125 15.791015625,6.38671922683716z M13.271484375,0L17.1313457489014,0.659182548522949 20.9765625,2.63671875 20.09765625,4.62890672683716 16.6845703125,2.87109351158142 13.271484375,2.34374976158142 10.078125,2.87109351158142 6.9140625,4.62890672683716 6.03515625,2.63671875 9.71923828125,0.659182548522949 13.271484375,0z" />
    </g>
  </g>
</svg>