<?xml version="1.0" encoding="utf-8"?>
<!DOCTYPE svg PUBLIC "-//W3C//DTD SVG 1.1//EN" "http://www.w3.org/Graphics/SVG/1.1/DTD/svg11.dtd">
<svg width="30.52734375" height="52.822265625" xmlns="http://www.w3.org/2000/svg" xmlns:xlink="http://www.w3.org/1999/xlink" xmlns:xml="http://www.w3.org/XML/1998/namespace" version="1.1">
  <g>
    <g>
      <path style="fill:#FF0000;fill-opacity:1" d="M24.140625,14.8828125L22.4597148895264,15.450439453125 21.2255859375,17.1533203125 20.4675273895264,19.991455078125 20.21484375,23.96484375 20.2807598114014,26.2866230010986 20.478515625,28.212890625 21.2548828125,31.025390625 22.529296875,32.578125 24.287109375,33.046875 25.986328125,32.4169921875 27.2021484375,30.6005859375 27.9345703125,27.744140625 28.18359375,23.96484375 27.88330078125,19.991455078125 27.099609375,17.1533203125 25.8471660614014,15.450439453125 24.140625,14.8828125z M10.400390625,7.998046875L12.744140625,7.998046875 12.744140625,22.79296875 17.87109375,22.79296875 18.46435546875,18.251953125 19.716796875,15.05859375 21.6357402801514,13.1689453125 24.228515625,12.5390625 27.01171875,13.271484375 28.974609375,15.46875 30.13916015625,19.0576171875 30.52734375,23.96484375 30.135498046875,28.963623046875 28.9599609375,32.5341796875 27.008056640625,34.676513671875 24.287109375,35.390625 21.5039043426514,34.7607421875 19.541015625,32.87109375 18.34716796875,29.677734375 17.87109375,25.13671875 12.744140625,25.13671875 12.744140625,52.822265625 12.158203125,52.822265625 0,44.4140625 1.37695264816284,42.5390625 10.400390625,48.92578125 10.400390625,25.13671875 1.02539014816284,25.13671875 1.02539014816284,22.79296875 10.400390625,22.79296875 10.400390625,7.998046875z M15,0L18.8598613739014,0.659182548522949 22.705078125,2.63671875 21.826171875,4.62890672683716 18.4130859375,2.87109351158142 15,2.34374976158142 11.806640625,2.87109351158142 8.642578125,4.62890672683716 7.763671875,2.63671875 11.44775390625,0.659182548522949 15,0z" />
    </g>
  </g>
</svg>