<?xml version="1.0" encoding="utf-8"?>
<!DOCTYPE svg PUBLIC "-//W3C//DTD SVG 1.1//EN" "http://www.w3.org/Graphics/SVG/1.1/DTD/svg11.dtd">
<svg width="26.865234375" height="46.435546875" xmlns="http://www.w3.org/2000/svg" xmlns:xlink="http://www.w3.org/1999/xlink" xmlns:xml="http://www.w3.org/XML/1998/namespace" version="1.1">
  <g>
    <g>
      <path style="fill:#FF0000;fill-opacity:1" d="M25.95703125,0L26.865234375,2.2265625 21.2109375,5.4931640625 16.552734375,9.90234375 26.19140625,13.388671875 25.37109375,15.615234375 15.05859375,11.865234375 12.509765625,16.7431640625 11.74072265625,19.3542499542236 11.3671875,22.060546875 24.31640625,22.060546875 24.31640625,24.404296875 11.3671875,24.404296875 12.5244140625,29.7216796875 15.05859375,34.599609375 25.37109375,30.849609375 26.19140625,33.076171875 16.552734375,36.591796875 21.2255859375,40.95703125 26.865234375,44.208984375 25.95703125,46.435546875 19.4384765625,42.5830078125 14.150390625,37.470703125 3.33984422683716,41.396484375 2.51953172683716,39.169921875 12.71484375,35.478515625 10.1513671875,30.2197265625 9.393310546875,27.381591796875 9.0234375,24.404296875 0,24.404296875 0,22.060546875 9.0234375,22.060546875 9.3896484375,19.1052265167236 10.13671875,16.2744140625 12.685546875,11.015625 2.51953172683716,7.294921875 3.33984422683716,5.068359375 14.150390625,9.0234375 19.4384765625,3.8671875 25.95703125,0z" />
    </g>
  </g>
</svg>