<?xml version="1.0" encoding="utf-8"?>
<!DOCTYPE svg PUBLIC "-//W3C//DTD SVG 1.1//EN" "http://www.w3.org/Graphics/SVG/1.1/DTD/svg11.dtd">
<svg width="28.5937500000023" height="45.41015625" xmlns="http://www.w3.org/2000/svg" xmlns:xlink="http://www.w3.org/1999/xlink" xmlns:xml="http://www.w3.org/XML/1998/namespace" version="1.1">
  <g>
    <g>
      <path style="fill:#FF0000;fill-opacity:1" d="M0,27.099609375L2.34375,27.099609375 2.398681640625,31.021728515625 2.5634765625,34.3505859375 2.87841796875,37.108154296875 3.3837890625,39.31640625 4.097900390625,40.99365234375 5.0390625,42.158203125 6.24023342132568,42.83935546875 7.734375,43.06640625 9.19921779632568,42.850341796875 10.37109375,42.2021484375 11.2939453125,41.077880859375 12.01171875,39.43359375 12.53173828125,37.247314453125 12.861328125,34.4970703125 13.04443359375,31.131591796875 13.125,27.099609375 15.46875,27.099609375 15.523681640625,31.021728515625 15.6884765625,34.3505859375 16.00341796875,37.108154296875 16.5087890625,39.31640625 17.222900390625,40.99365234375 18.1640625,42.158203125 19.3652324676514,42.83935546875 20.859375,43.06640625 22.3535137176514,42.83935546875 23.5546875,42.158203125 24.4958477020264,40.99365234375 25.2099609375,39.31640625 25.71533203125,37.108154296875 26.0302734375,34.3505859375 26.195068359375,31.021728515625 26.25,27.099609375 28.59375,27.099609375 28.538818359375,31.0400390625 28.3740234375,34.599609375 28.011474609375,37.72705078125 27.36328125,40.37109375 26.385498046875,42.50244140625 25.0341796875,44.091796875 23.2214336395264,45.08056640625 20.859375,45.41015625 18.427734375,44.9560546875 16.58203125,43.6669921875 15.2197265625,41.66015625 14.267578125,39.0234375 13.330078125,41.66015625 11.982421875,43.6669921875 10.13671875,44.9560546875 7.734375,45.41015625 5.372314453125,45.08056640625 3.5595703125,44.091796875 2.208251953125,42.50244140625 1.23046922683716,40.37109375 0.582275092601776,37.72705078125 0.2197265625,34.599609375 0.0549312829971313,31.0400390625 0,27.099609375z M13.125,16.171875L15.46875,16.171875 15.46875,23.203125 13.125,23.203125 13.125,16.171875z M0.146484375,0L0.732421875,0 26.07421875,13.974609375 26.07421875,0.5859375 28.41796875,0.5859375 28.41796875,17.578125 27.83203125,17.578125 2.490234375,3.92578125 2.490234375,16.9921875 0.146484375,16.9921875 0.146484375,0z" />
    </g>
  </g>
</svg>