<?xml version="1.0" encoding="utf-8"?>
<!DOCTYPE svg PUBLIC "-//W3C//DTD SVG 1.1//EN" "http://www.w3.org/Graphics/SVG/1.1/DTD/svg11.dtd">
<svg width="28.505859375" height="46.435546875" xmlns="http://www.w3.org/2000/svg" xmlns:xlink="http://www.w3.org/1999/xlink" xmlns:xml="http://www.w3.org/XML/1998/namespace" version="1.1">
  <g>
    <g>
      <path style="fill:#FF0000;fill-opacity:1" d="M15.322265625,25.517578125L15.322265625,31.611328125 22.470703125,31.611328125 15.322265625,25.517578125z M12.978515625,25.400390625L5.0390625,31.611328125 12.978515625,31.611328125 12.978515625,25.400390625z M15.322265625,13.828125L15.322265625,19.98046875 23.173828125,13.828125 15.322265625,13.828125z M5.15625,13.828125L12.978515625,20.068359375 12.978515625,13.828125 5.15625,13.828125z M12.978515625,0L13.564453125,0 25.341796875,6.943359375 24.19921875,8.96484375 15.322265625,3.779296875 15.322265625,11.484375 28.4765625,11.484375 28.505859375,11.923828125 15.791015625,22.705078125 27.919921875,33.515625 27.919921875,33.955078125 15.322265625,33.955078125 15.322265625,46.435546875 14.736328125,46.435546875 2.28515625,38.935546875 3.45703125,37.03125 12.978515625,42.744140625 12.978515625,33.955078125 0.029296875,33.955078125 0.029296875,33.515625 12.451171875,22.734375 0,11.923828125 0,11.484375 12.978515625,11.484375 12.978515625,0z" />
    </g>
  </g>
</svg>