<?xml version="1.0" encoding="utf-8"?>
<!DOCTYPE svg PUBLIC "-//W3C//DTD SVG 1.1//EN" "http://www.w3.org/Graphics/SVG/1.1/DTD/svg11.dtd">
<svg width="28.271484375" height="52.822265625" xmlns="http://www.w3.org/2000/svg" xmlns:xlink="http://www.w3.org/1999/xlink" xmlns:xml="http://www.w3.org/XML/1998/namespace" version="1.1">
  <g>
    <g>
      <path style="fill:#FF0000;fill-opacity:1" d="M12.978515625,45.498046875L15.322265625,45.498046875 15.322265625,52.822265625 12.978515625,52.822265625 12.978515625,45.498046875z M20.44921875,39.78515625L22.79296875,39.78515625 22.79296875,47.109375 20.44921875,47.109375 20.44921875,39.78515625z M5.5078125,39.78515625L7.8515625,39.78515625 7.8515625,47.109375 5.5078125,47.109375 5.5078125,39.78515625z M0,20.126953125L0.5859375,20.126953125 25.927734375,34.1015625 25.927734375,20.712890625 28.271484375,20.712890625 28.271484375,37.705078125 27.685546875,37.705078125 2.34375,24.052734375 2.34375,37.119140625 0,37.119140625 0,20.126953125z M20.44921875,12.099609375L22.79296875,12.099609375 22.79296875,19.423828125 20.44921875,19.423828125 20.44921875,12.099609375z M5.5078125,12.099609375L7.8515625,12.099609375 7.8515625,19.423828125 5.5078125,19.423828125 5.5078125,12.099609375z M12.978515625,6.38671922683716L15.322265625,6.38671922683716 15.322265625,13.7109375 12.978515625,13.7109375 12.978515625,6.38671922683716z M13.88671875,0L17.7465801239014,0.659182548522949 21.591796875,2.63671875 20.712890625,4.62890672683716 17.2998046875,2.87109351158142 13.88671875,2.34374976158142 10.693359375,2.87109351158142 7.529296875,4.62890672683716 6.650390625,2.63671875 10.33447265625,0.659182548522949 13.88671875,0z" />
    </g>
  </g>
</svg>