<?xml version="1.0" encoding="utf-8"?>
<!DOCTYPE svg PUBLIC "-//W3C//DTD SVG 1.1//EN" "http://www.w3.org/Graphics/SVG/1.1/DTD/svg11.dtd">
<svg width="30.234375" height="43.212890625" xmlns="http://www.w3.org/2000/svg" xmlns:xlink="http://www.w3.org/1999/xlink" xmlns:xml="http://www.w3.org/XML/1998/namespace" version="1.1">
  <g>
    <g>
      <path style="fill:#FF0000;fill-opacity:1" d="M3.046875,40.869140625L27.36328125,40.869140625 27.36328125,43.212890625 3.046875,43.212890625 3.046875,40.869140625z M3.046875,28.2421875L27.36328125,28.2421875 27.36328125,30.5859375 3.046875,30.5859375 3.046875,28.2421875z M0,0L2.314453125,0 2.92236304283142,4.039306640625 3.80859375,7.5439453125 4.951171875,10.5249032974243 6.328125,12.9931640625 7.93579006195068,14.9487323760986 9.7705078125,16.3916015625 11.810302734375,17.3400897979736 14.033203125,17.8125 14.033203125,0 16.376953125,0 16.376953125,17.783203125 18.511962890625,17.2119159698486 20.5224609375,16.083984375 22.3718242645264,14.4543476104736 24.0234375,12.3779296875 25.4516582489014,9.86572265625 26.630859375,6.9287109375 28.095703125,0 30.234375,0 29.64111328125,4.0869140625 28.623046875,7.91015625 27.216796875,11.3635263442993 25.458984375,14.3408203125 23.3569316864014,16.7871112823486 20.91796875,18.6474609375 18.18603515625,19.822998046875 15.205078125,20.21484375 12.15087890625,19.8779296875 9.43359375,18.8671875 7.04589748382568,17.2082538604736 4.98046875,14.9267578125 3.24096655845642,12.0446786880493 1.8310546875,8.583984375 0.750732421875,4.56298828125 0,0z" />
    </g>
  </g>
</svg>