<?xml version="1.0" encoding="utf-8"?>
<!DOCTYPE svg PUBLIC "-//W3C//DTD SVG 1.1//EN" "http://www.w3.org/Graphics/SVG/1.1/DTD/svg11.dtd">
<svg width="29.970703125" height="44.82421875" xmlns="http://www.w3.org/2000/svg" xmlns:xlink="http://www.w3.org/1999/xlink" xmlns:xml="http://www.w3.org/XML/1998/namespace" version="1.1">
  <g>
    <g>
      <path style="fill:#FF0000;fill-opacity:1" d="M13.798828125,38.96484375L16.142578125,38.96484375 16.142578125,44.82421875 13.798828125,44.82421875 13.798828125,38.96484375z M4.599609375,24.43359375L6.2255859375,27.48046875 8.49609375,30 11.4111328125,31.728515625 15,32.373046875 18.57421875,31.728515625 21.4892578125,30 23.759765625,27.48046875 25.400390625,24.43359375 4.599609375,24.43359375z M3.80859375,12.71484375L3.3251953125,15.1171875 3.1640625,17.40234375 3.3251953125,19.6875 3.80859375,22.08984375 26.19140625,22.08984375 26.6748046875,19.6875 26.8359375,17.40234375 26.6748046875,15.1171875 26.19140625,12.71484375 3.80859375,12.71484375z M15,2.34375L11.4111328125,3.0029296875 8.49609375,4.7607421875 6.2255859375,7.3095703125 4.599609375,10.37109375 25.400390625,10.37109375 23.759765625,7.3095703125 21.4892578125,4.7607421875 18.57421875,3.0029296875 15,2.34375z M15,0L18.18603515625,0.362548828125 21.005859375,1.4501953125 23.4374980926514,3.145751953125 25.458984375,5.33203125 27.059326171875,7.943115234375 28.2275390625,10.9130859375 28.941650390625,14.1320819854736 29.1796875,17.490234375 28.6083984375,22.55859375 26.9384765625,27.1142578125 24.2431640625,30.8642578125 20.595703125,33.486328125 23.6572265625,35.0830078125 26.3818359375,37.4560546875 28.564453125,40.6787109375 29.970703125,44.82421875 27.568359375,44.82421875 26.806640625,42.235107421875 25.634765625,40.0927734375 22.4853515625,36.9873046875 18.7353515625,35.2734375 14.970703125,34.74609375 11.2060546875,35.2734375 7.4560546875,36.9873046875 4.3212890625,40.107421875 3.160400390625,42.25341796875 2.40234375,44.82421875 0,44.82421875 1.3916015625,40.6787109375 3.5595703125,37.44140625 6.2841796875,35.0537109375 9.345703125,33.45703125 5.6982421875,30.8203125 3.017578125,27.0703125 1.376953125,22.4853515625 0.8203125,17.40234375 1.05834925174713,14.0661640167236 1.7724609375,10.8544921875 2.94067358970642,7.88818359375 4.541015625,5.2880859375 6.5625,3.116455078125 8.994140625,1.435546875 11.81396484375,0.35888671875 15,0z" />
    </g>
  </g>
</svg>