<?xml version="1.0" encoding="utf-8"?>
<!DOCTYPE svg PUBLIC "-//W3C//DTD SVG 1.1//EN" "http://www.w3.org/Graphics/SVG/1.1/DTD/svg11.dtd">
<svg width="28.9453125" height="44.82421875" xmlns="http://www.w3.org/2000/svg" xmlns:xlink="http://www.w3.org/1999/xlink" xmlns:xml="http://www.w3.org/XML/1998/namespace" version="1.1">
  <g>
    <g>
      <path style="fill:#FF0000;fill-opacity:1" d="M6.796875,24.31640625L9.140625,24.31640625 9.140625,33.10546875 9.287109375,36.38671875 9.990234375,39.404296875 11.6015625,41.6162109375 12.8466796875,42.264404296875 14.47265625,42.48046875 16.102294921875,42.264404296875 17.3583984375,41.6162109375 18.9697265625,39.404296875 19.658203125,36.38671875 19.8046875,33.10546875 19.8046875,24.31640625 22.1484375,24.31640625 22.1484375,33.10546875 21.8994140625,37.001953125 20.859375,40.7958984375 18.544921875,43.681640625 16.76513671875,44.53857421875 14.47265625,44.82421875 11.5576171875,44.296875 9.4775390625,42.8759765625 8.0859375,40.7958984375 7.2802734375,38.3056640625 6.8994140625,35.6689453125 6.796875,33.10546875 6.796875,24.31640625z M16.5234375,0L18.8671875,0 18.8671875,9.9609375 19.04296875,13.0517578125 19.658203125,15.673828125 20.8447265625,17.490234375 22.734375,18.1640625 24.6533203125,17.490234375 25.83984375,15.673828125 26.4404296875,13.0517578125 26.6015625,9.9609375 26.6015625,0 28.9453125,0 28.9453125,9.9609375 28.681640625,13.916015625 27.7294921875,17.28515625 25.8251953125,19.62890625 24.4445781707764,20.2880859375 22.734375,20.5078125 21.0278301239014,20.2880859375 19.658203125,19.62890625 17.75390625,17.28515625 16.787109375,13.916015625 16.5234375,9.9609375 16.5234375,0z M0,0L2.34375,0 2.34375,9.9609375 2.51953125,13.0517578125 3.134765625,15.673828125 4.3212890625,17.490234375 6.2109375,18.1640625 8.1298828125,17.490234375 9.31640625,15.673828125 9.9169921875,13.0517578125 10.078125,9.9609375 10.078125,0 12.421875,0 12.421875,9.9609375 12.158203125,13.916015625 11.2060546875,17.28515625 9.3017578125,19.62890625 7.92114162445068,20.2880859375 6.2109375,20.5078125 4.50439453125,20.2880859375 3.134765625,19.62890625 1.23046875,17.28515625 0.263671875,13.916015625 0,9.9609375 0,0z" />
    </g>
  </g>
</svg>