<?xml version="1.0" encoding="utf-8"?>
<!DOCTYPE svg PUBLIC "-//W3C//DTD SVG 1.1//EN" "http://www.w3.org/Graphics/SVG/1.1/DTD/svg11.dtd">
<svg width="30.439453125" height="43.212890625" xmlns="http://www.w3.org/2000/svg" xmlns:xlink="http://www.w3.org/1999/xlink" xmlns:xml="http://www.w3.org/XML/1998/namespace" version="1.1">
  <g>
    <g>
      <path style="fill:#FF0000;fill-opacity:1" d="M24.228515625,27.509765625L26.572265625,27.509765625 26.572265625,38.642578125 24.228515625,38.642578125 24.228515625,27.509765625z M15.966796875,11.103515625L11.103515625,12.71484375 7.57324171066284,15.1025390625 5.41992139816284,18.1201171875 4.68749952316284,21.650390625 5.41992139816284,25.1953125 7.57324171066284,28.2275390625 11.103515625,30.615234375 15.966796875,32.2265625 15.966796875,11.103515625z M24.228515625,4.658203125L26.572265625,4.658203125 26.572265625,15.791015625 24.228515625,15.791015625 24.228515625,4.658203125z M15.966796875,0L18.310546875,0 18.310546875,20.478515625 30.439453125,20.478515625 30.439453125,22.822265625 18.310546875,22.822265625 18.310546875,43.212890625 15.966796875,43.212890625 15.966796875,34.453125 1.31835889816284,41.865234375 0,39.9609375 12.275390625,33.75 10.1220703125,32.9296875 7.88085889816284,31.81640625 5.77148389816284,30.2783203125 4.01367139816284,28.1689453125 2.79785108566284,25.341796875 2.34374904632568,21.650390625 2.56713771820068,19.3139667510986 3.23730421066284,17.2265625 5.56640577316284,13.76953125 8.7744140625,11.2353515625 12.275390625,9.580078125 0,3.369140625 1.31835889816284,1.46484375 15.966796875,8.876953125 15.966796875,0z" />
    </g>
  </g>
</svg>