<?xml version="1.0" encoding="utf-8"?>
<!DOCTYPE svg PUBLIC "-//W3C//DTD SVG 1.1//EN" "http://www.w3.org/Graphics/SVG/1.1/DTD/svg11.dtd">
<svg width="27.626953125" height="44.82421875" xmlns="http://www.w3.org/2000/svg" xmlns:xlink="http://www.w3.org/1999/xlink" xmlns:xml="http://www.w3.org/XML/1998/namespace" version="1.1">
  <g>
    <g>
      <path style="fill:#FF0000;fill-opacity:1" d="M0.99609375,5.859375L3.33984375,5.859375 3.33984375,22.8515625 0.99609375,22.8515625 0.99609375,5.859375z M23.408203125,1.201171875L25.751953125,1.201171875 25.751953125,18.193359375 23.408203125,18.193359375 23.408203125,1.201171875z M12.216796875,0L14.560546875,0 14.560546875,19.658203125 17.3931865692139,20.0418090820313 19.8852519989014,20.899658203125 22.0367412567139,22.2317504882813 23.84765625,24.0380859375 25.3143310546875,26.3223266601563 26.43310546875,29.088134765625 27.2039794921875,32.3355102539063 27.626953125,36.064453125 25.283203125,36.064453125 24.9737529754639,32.8472900390625 24.3676738739014,30.05126953125 23.4649639129639,27.6763916015625 22.265625,25.72265625 20.7733135223389,24.1827392578125 18.9916973114014,23.04931640625 16.9207744598389,22.3223876953125 14.560546875,22.001953125 14.560546875,44.82421875 13.974609375,44.82421875 0,36.064453125 1.171875,33.955078125 12.216796875,41.220703125 12.216796875,0z" />
    </g>
  </g>
</svg>