<?xml version="1.0" encoding="utf-8"?>
<!DOCTYPE svg PUBLIC "-//W3C//DTD SVG 1.1//EN" "http://www.w3.org/Graphics/SVG/1.1/DTD/svg11.dtd">
<svg width="30.5859375" height="51.2109375" xmlns="http://www.w3.org/2000/svg" xmlns:xlink="http://www.w3.org/1999/xlink" xmlns:xml="http://www.w3.org/XML/1998/namespace" version="1.1">
  <g>
    <g>
      <path style="fill:#FF0000;fill-opacity:1" d="M4.833984375,11.54296875L7.177734375,11.54296875 7.177734375,17.841796875 12.01171875,17.841796875 12.01171875,20.185546875 7.177734375,20.185546875 7.177734375,26.484375 4.833984375,26.484375 4.833984375,20.185546875 0,20.185546875 0,17.841796875 4.833984375,17.841796875 4.833984375,11.54296875z M25.83984375,7.998046875L28.18359375,7.998046875 28.18359375,23.173828125 27.59765625,23.173828125 16.5234375,14.970703125 16.5234375,32.51953125 19.3029766082764,33.017578125 21.8408203125,34.04296875 24.1076641082764,35.5810546875 26.07421875,37.6171875 27.725830078125,40.133056640625 29.0478515625,43.1103515625 30.010986328125,46.519775390625 30.5859375,50.33203125 28.2421875,50.33203125 27.6708984375,46.79443359375 26.77734375,43.740234375 25.5981426239014,41.15478515625 24.169921875,39.0234375 22.5183086395264,37.3388671875 20.6689453125,36.09375 18.6584453582764,35.2734375 16.5234375,34.86328125 16.5234375,51.2109375 14.1796875,51.2109375 14.1796875,34.86328125 9.9169921875,35.830078125 8.08227443695068,36.89208984375 6.474609375,38.4375 5.09765625,40.5029296875 3.955078125,43.125 3.06884765625,46.376953125 2.4609375,50.33203125 0.1171875,50.33203125 0.823974311351776,46.058349609375 1.83105516433716,42.4365234375 3.138427734375,39.42626953125 4.74609375,36.9873046875 6.65405178070068,35.10498046875 8.8623046875,33.7646484375 11.370849609375,32.918701171875 14.1796875,32.51953125 14.1796875,10.48828125 14.765625,10.48828125 25.83984375,18.8671875 25.83984375,7.998046875z M14.58984375,0L18.4497051239014,0.659182548522949 22.294921875,2.63671875 21.416015625,4.62890625 18.0029296875,2.87109351158142 14.58984375,2.34375 11.396484375,2.87109351158142 8.232421875,4.62890625 7.353515625,2.63671875 11.03759765625,0.659182548522949 14.58984375,0z" />
    </g>
  </g>
</svg>