<?xml version="1.0" encoding="utf-8"?>
<!DOCTYPE svg PUBLIC "-//W3C//DTD SVG 1.1//EN" "http://www.w3.org/Graphics/SVG/1.1/DTD/svg11.dtd">
<svg width="28.974609375" height="46.435546875" xmlns="http://www.w3.org/2000/svg" xmlns:xlink="http://www.w3.org/1999/xlink" xmlns:xml="http://www.w3.org/XML/1998/namespace" version="1.1">
  <g>
    <g>
      <path style="fill:#FF0000;fill-opacity:1" d="M13.330078125,22.20703125L15.673828125,22.20703125 15.673828125,30.99609375 13.330078125,30.99609375 13.330078125,22.20703125z M8.26171875,19.86328125L7.880859375,23.203125 8.31298732757568,26.865234375 9.609375,30.3515625 11.689453125,33.62548828125 14.47265625,36.650390625 17.259521484375,33.62548828125 19.3505859375,30.3515625 20.6579570770264,26.865234375 21.09375,23.203125 20.9912109375,21.533203125 20.712890625,19.86328125 8.26171875,19.86328125z M14.47265625,9.814453125L11.1767578125,13.4985361099243 8.96484375,17.51953125 19.98046875,17.51953125 17.7685546875,13.4912109375 14.47265625,9.814453125z M2.373046875,0L8.935546875,2.841796875 14.47265625,6.474609375 20.0390605926514,2.83447265625 26.6015625,0 27.509765625,2.51953125 21.50390625,4.98046875 16.435546875,8.173828125 20.1416015625,12.59765625 22.529296875,17.51953125 28.974609375,17.51953125 28.974609375,19.86328125 23.115234375,19.86328125 23.349609375,21.5478515625 23.4375,23.232421875 22.9760723114014,27.410888671875 21.591796875,31.3330078125 19.3798809051514,34.969482421875 16.435546875,38.291015625 21.5185546875,41.4697265625 27.509765625,43.916015625 26.6015625,46.435546875 20.0390605926514,43.60107421875 14.47265625,39.9609375 8.935546875,43.59375 2.373046875,46.435546875 1.46484375,43.916015625 7.44140625,41.4697265625 12.5390625,38.291015625 9.576416015625,34.969482421875 7.3681640625,31.3330078125 5.994873046875,27.410888671875 5.537109375,23.232421875 5.6103515625,21.5478515625 5.830078125,19.86328125 0,19.86328125 0,17.51953125 6.416015625,17.51953125 8.8037109375,12.59765625 12.5390625,8.173828125 7.44140625,4.98046875 1.46484375,2.51953125 2.373046875,0z" />
    </g>
  </g>
</svg>