<?xml version="1.0" encoding="utf-8"?>
<!DOCTYPE svg PUBLIC "-//W3C//DTD SVG 1.1//EN" "http://www.w3.org/Graphics/SVG/1.1/DTD/svg11.dtd">
<svg width="27.275390625001" height="44.82421875" xmlns="http://www.w3.org/2000/svg" xmlns:xlink="http://www.w3.org/1999/xlink" xmlns:xml="http://www.w3.org/XML/1998/namespace" version="1.1">
  <g>
    <g>
      <path style="fill:#FF0000;fill-opacity:1" d="M12.099609375,13.798828125L8.0712890625,14.47265625 4.9951171875,15.8056640625 3.0322265625,17.958984375 2.34375,21.09375 3.0615234375,24.1259765625 5.068359375,26.2646484375 8.14453125,27.6416015625 12.099609375,28.388671875 12.099609375,13.798828125z M12.099609375,0L12.685546875,0 26.103515625,6.26953125 24.990234375,8.203125 14.443359375,3.486328125 14.443359375,11.279296875 15.76171875,11.2353515625 17.138671875,11.220703125 27.275390625,11.220703125 27.275390625,13.564453125 17.138671875,13.564453125 15.76171875,13.5791015625 14.443359375,13.623046875 14.443359375,19.921875 27.275390625,19.921875 27.275390625,22.265625 14.443359375,22.265625 14.443359375,28.564453125 15.76171875,28.623046875 17.138671875,28.623046875 27.275390625,28.623046875 27.275390625,30.966796875 17.16796875,30.966796875 15.76171875,30.966796875 14.443359375,30.908203125 14.443359375,41.6015625 13.857421875,41.6015625 4.16015625,35.595703125 4.16015625,44.82421875 1.81640625,44.82421875 1.81640625,31.904296875 2.40234375,31.904296875 12.099609375,37.822265625 12.099609375,30.732421875 8.763427734375,30.223388671875 6.0791015625,29.4580078125 3.973388671875,28.465576171875 2.373046875,27.275390625 1.23413062095642,25.9130859375 0.5126953125,24.404296875 0,21.09375 0.189513891935349,19.0383930206299 0.758056282997131,17.2375507354736 1.70562720298767,15.6912240982056 3.0322265625,14.3994140625 4.73602247238159,13.3419809341431 6.81518459320068,12.4987802505493 9.26971340179443,11.8698120117188 12.099609375,11.455078125 12.099609375,0z" />
    </g>
  </g>
</svg>