<?xml version="1.0" encoding="utf-8"?>
<!DOCTYPE svg PUBLIC "-//W3C//DTD SVG 1.1//EN" "http://www.w3.org/Graphics/SVG/1.1/DTD/svg11.dtd">
<svg width="29.501953125" height="43.212890625" xmlns="http://www.w3.org/2000/svg" xmlns:xlink="http://www.w3.org/1999/xlink" xmlns:xml="http://www.w3.org/XML/1998/namespace" version="1.1">
  <g>
    <g>
      <path style="fill:#FF0000;fill-opacity:1" d="M6.708984375,0L9.0234375,0 9.521484375,3.310546875 10.810546875,5.80078125 12.6123046875,7.3681640625 14.677734375,7.91015625 16.8017578125,7.3681640625 18.7353515625,5.80078125 20.1416015625,3.310546875 20.68359375,0 22.998046875,0 22.4560546875,3.6328125 20.9619140625,6.7236328125 18.69140625,8.994140625 15.791015625,10.166015625 16.669921875,14.0185546875 18.1640625,17.0068359375 20.1416015625,18.9404296875 22.470703125,19.62890625 24.5361328125,19.0869140625 25.8544921875,17.5634765625 26.6455078125,15.205078125 27.099609375,12.158203125 29.501953125,12.158203125 28.88671875,16.0986328125 27.744140625,19.2041015625 25.7080078125,21.240234375 22.470703125,21.97265625 20.5261211395264,21.690673828125 18.7353515625,20.8447265625 15.908203125,17.87109375 15.908203125,30.966796875 23.7890625,23.935546875 25.341796875,25.693359375 16.494140625,33.57421875 25.341796875,41.455078125 23.7890625,43.212890625 15.908203125,36.181640625 15.908203125,43.212890625 13.564453125,43.212890625 13.564453125,36.181640625 5.68359375,43.212890625 4.130859375,41.455078125 12.978515625,33.57421875 4.130859375,25.693359375 5.68359375,23.935546875 13.564453125,30.966796875 13.564453125,17.783203125 10.7373046875,20.8154296875 8.94653224945068,21.683349609375 7.001953125,21.97265625 3.80859375,21.2255859375 1.7724609375,19.16015625 0.6005859375,16.0546875 0,12.158203125 2.40234375,12.158203125 2.9150390625,15.263671875 3.7353515625,17.607421875 5.0244140625,19.1015625 7.001953125,19.62890625 9.2578125,18.9404296875 11.220703125,17.021484375 12.7294921875,14.0478515625 13.623046875,10.1953125 10.7958984375,9.052734375 8.61328125,6.767578125 7.20703125,3.6474609375 6.708984375,0z" />
    </g>
  </g>
</svg>