<?xml version="1.0" encoding="utf-8"?>
<!DOCTYPE svg PUBLIC "-//W3C//DTD SVG 1.1//EN" "http://www.w3.org/Graphics/SVG/1.1/DTD/svg11.dtd">
<svg width="28.65234375" height="51.2109375" xmlns="http://www.w3.org/2000/svg" xmlns:xlink="http://www.w3.org/1999/xlink" xmlns:xml="http://www.w3.org/XML/1998/namespace" version="1.1">
  <g>
    <g>
      <path style="fill:#FF0000;fill-opacity:1" d="M0.263672828674316,7.998046875L23.759765625,7.998046875 28.65234375,23.115234375 26.54296875,23.84765625 21.85546875,10.341796875 12.978515625,10.341796875 12.978515625,23.84765625 21.181640625,23.84765625 21.181640625,26.19140625 12.978515625,26.19140625 12.978515625,36.26953125 21.181640625,36.26953125 21.181640625,38.61328125 12.978515625,38.61328125 12.978515625,51.2109375 10.634765625,51.2109375 10.634765625,38.61328125 0,38.61328125 0,36.26953125 10.634765625,36.26953125 10.634765625,26.19140625 0,26.19140625 0,23.84765625 10.634765625,23.84765625 10.634765625,10.341796875 0.263672828674316,10.341796875 0.263672828674316,7.998046875z M14.267578125,0L18.1274394989014,0.659182548522949 21.97265625,2.63671875 21.09375,4.62890625 17.6806640625,2.87109351158142 14.267578125,2.34375 11.07421875,2.87109351158142 7.91015672683716,4.62890625 7.03125047683716,2.63671875 10.71533203125,0.659182548522949 14.267578125,0z" />
    </g>
  </g>
</svg>