<?xml version="1.0" encoding="utf-8"?>
<!DOCTYPE svg PUBLIC "-//W3C//DTD SVG 1.1//EN" "http://www.w3.org/Graphics/SVG/1.1/DTD/svg11.dtd">
<svg width="28.271484375" height="45.41015625" xmlns="http://www.w3.org/2000/svg" xmlns:xlink="http://www.w3.org/1999/xlink" xmlns:xml="http://www.w3.org/XML/1998/namespace" version="1.1">
  <g>
    <g>
      <path style="fill:#FF0000;fill-opacity:1" d="M3.837890625,32.2265625L5.0390625,36.4599609375 7.2509765625,39.90234375 10.3271484375,42.216796875 12.147216796875,42.85400390625 14.12109375,43.06640625 16.094970703125,42.85400390625 17.9150390625,42.216796875 21.005859375,39.90234375 23.232421875,36.4599609375 24.43359375,32.2265625 26.89453125,32.8125 26.0073852539063,35.7650756835938 24.927978515625,38.323974609375 23.6563110351563,40.4891967773438 22.1923828125,42.2607421875 20.5178813934326,43.6386108398438 18.6145000457764,44.622802734375 16.4822368621826,45.2133178710938 14.12109375,45.41015625 11.7608642578125,45.21240234375 9.63134765625,44.619140625 7.73254346847534,43.63037109375 6.064453125,42.24609375 4.60693359375,40.469970703125 3.33984375,38.3056640625 2.26318359375,35.753173828125 1.376953125,32.8125 3.837890625,32.2265625z M0,0L0.5859375,0 25.927734375,13.974609375 25.927734375,0.5859375 28.271484375,0.5859375 28.271484375,17.578125 27.685546875,17.578125 15.322265625,10.927734375 15.322265625,36.064453125 12.978515625,36.064453125 12.978515625,9.66796875 2.34375,3.92578125 2.34375,16.9921875 0,16.9921875 0,0z" />
    </g>
  </g>
</svg>