<?xml version="1.0" encoding="utf-8"?>
<!DOCTYPE svg PUBLIC "-//W3C//DTD SVG 1.1//EN" "http://www.w3.org/Graphics/SVG/1.1/DTD/svg11.dtd">
<svg width="33.662109375" height="51.2109375" xmlns="http://www.w3.org/2000/svg" xmlns:xlink="http://www.w3.org/1999/xlink" xmlns:xml="http://www.w3.org/XML/1998/namespace" version="1.1">
  <g>
    <g>
      <path style="fill:#FF0000;fill-opacity:1" d="M22.734375,6.38671875L23.3203125,6.38671875 33.544921875,13.0078125 32.16796875,14.853515625 25.078125,10.166015625 25.078125,19.482421875 33.662109375,22.529296875 32.98828125,24.66796875 25.078125,21.9140625 25.078125,31.025390625 31.728515625,31.025390625 31.728515625,33.369140625 25.078125,33.369140625 25.078125,45.76171875 24.4921875,45.76171875 12.041015625,40.048828125 12.041015625,51.2109375 9.697265625,51.2109375 9.697265625,36.650390625 10.283203125,36.650390625 22.734375,42.48046875 22.734375,33.369140625 16.171875,33.369140625 16.171875,31.025390625 22.734375,31.025390625 22.734375,21.09375 8.818359375,16.259765625 8.818359375,32.373046875 8.232421875,32.373046875 0,26.923828125 0.908202409744263,24.84375 6.474609375,28.4765625 6.474609375,13.095703125 7.060546875,13.095703125 22.734375,18.662109375 22.734375,6.38671875z M16.611328125,0L20.4711894989014,0.659182548522949 24.31640625,2.63671875 23.4375,4.62890625 20.0244140625,2.87109351158142 16.611328125,2.34375 13.41796875,2.87109351158142 10.25390625,4.62890625 9.375,2.63671875 13.05908203125,0.659182548522949 16.611328125,0z" />
    </g>
  </g>
</svg>