<?xml version="1.0" encoding="utf-8"?>
<!DOCTYPE svg PUBLIC "-//W3C//DTD SVG 1.1//EN" "http://www.w3.org/Graphics/SVG/1.1/DTD/svg11.dtd">
<svg width="28.916015625" height="46.435546875" xmlns="http://www.w3.org/2000/svg" xmlns:xlink="http://www.w3.org/1999/xlink" xmlns:xml="http://www.w3.org/XML/1998/namespace" version="1.1">
  <g>
    <g>
      <path style="fill:#FF0000;fill-opacity:1" d="M9.2578125,24.31640625L11.6015625,24.31640625 11.6015625,33.10546875 9.2578125,33.10546875 9.2578125,24.31640625z M1.93359375,24.31640625L4.27734375,24.31640625 4.27734375,33.10546875 1.93359375,33.10546875 1.93359375,24.31640625z M9.2578125,4.98046875L11.6015625,4.98046875 11.6015625,13.76953125 9.2578125,13.76953125 9.2578125,4.98046875z M1.93359375,4.98046875L4.27734375,4.98046875 4.27734375,13.76953125 1.93359375,13.76953125 1.93359375,4.98046875z M16.552734375,0L17.138671875,0 28.916015625,6.943359375 27.7734375,8.96484375 18.896484375,3.779296875 18.896484375,46.435546875 18.310546875,46.435546875 5.859375,38.935546875 7.03125,37.03125 16.552734375,42.744140625 16.552734375,20.21484375 0,20.21484375 0,17.87109375 16.552734375,17.87109375 16.552734375,0z" />
    </g>
  </g>
</svg>