<?xml version="1.0" encoding="utf-8"?>
<!DOCTYPE svg PUBLIC "-//W3C//DTD SVG 1.1//EN" "http://www.w3.org/Graphics/SVG/1.1/DTD/svg11.dtd">
<svg width="32.05078125" height="44.1796875" xmlns="http://www.w3.org/2000/svg" xmlns:xlink="http://www.w3.org/1999/xlink" xmlns:xml="http://www.w3.org/XML/1998/namespace" version="1.1">
  <g>
    <g>
      <path style="fill:#FF0000;fill-opacity:1" d="M12.1875,13.505859375L8.876953125,21.474609375 12.1875,28.505859375 12.1875,13.505859375z M14.53125,12.71484375L14.53125,30.380859375 19.248046875,21.474609375 14.53125,12.71484375z M29.70703125,6.6796875L21.884765625,21.474609375 29.70703125,36.328125 29.70703125,6.6796875z M30.76171875,0L32.05078125,0 32.05078125,43.212890625 30.76171875,43.212890625 20.537109375,23.994140625 9.755859375,44.1796875 7.91015625,42.861328125 12.7734375,33.662109375 12.65625,33.662109375 7.5,23.818359375 1.37695264816284,36.943359375 0,35.5078125 6.533203125,21.474609375 0.498046398162842,7.8515625 2.34375,6.943359375 7.5,19.130859375 11.689453125,9.78515625 12.94921875,9.78515625 8.3203125,1.171875 10.48828125,0.263671875 20.537109375,19.1015625 30.76171875,0z" />
    </g>
  </g>
</svg>