<?xml version="1.0" encoding="utf-8"?>
<!DOCTYPE svg PUBLIC "-//W3C//DTD SVG 1.1//EN" "http://www.w3.org/Graphics/SVG/1.1/DTD/svg11.dtd">
<svg width="26.513671875" height="52.822265625" xmlns="http://www.w3.org/2000/svg" xmlns:xlink="http://www.w3.org/1999/xlink" xmlns:xml="http://www.w3.org/XML/1998/namespace" version="1.1">
  <g>
    <g>
      <path style="fill:#FF0000;fill-opacity:1" d="M2.05078125,15.439453125L4.39453125,15.439453125 4.39453125,31.845703125 2.05078125,31.845703125 2.05078125,15.439453125z M13.0078125,7.998046875L15.3515625,7.998046875 15.3515625,16.845703125 24.169921875,16.845703125 24.169921875,11.572265625 26.513671875,11.572265625 26.513671875,24.462890625 24.169921875,24.462890625 24.169921875,19.189453125 15.3515625,19.189453125 15.3515625,37.998046875 24.169921875,37.998046875 24.169921875,32.724609375 26.513671875,32.724609375 26.513671875,45.615234375 24.169921875,45.615234375 24.169921875,40.341796875 15.3515625,40.341796875 15.3515625,52.822265625 14.765625,52.822265625 0,44.53125 1.171875,42.421875 13.0078125,49.21875 13.0078125,7.998046875z M13.447265625,0L17.3071269989014,0.659182548522949 21.15234375,2.63671875 20.2734375,4.62890672683716 16.8603515625,2.87109351158142 13.447265625,2.34374976158142 10.25390625,2.87109351158142 7.08984375,4.62890672683716 6.2109375,2.63671875 9.89501953125,0.659182548522949 13.447265625,0z" />
    </g>
  </g>
</svg>