<?xml version="1.0" encoding="utf-8"?>
<!DOCTYPE svg PUBLIC "-//W3C//DTD SVG 1.1//EN" "http://www.w3.org/Graphics/SVG/1.1/DTD/svg11.dtd">
<svg width="23.96484375" height="52.822265625" xmlns="http://www.w3.org/2000/svg" xmlns:xlink="http://www.w3.org/1999/xlink" xmlns:xml="http://www.w3.org/XML/1998/namespace" version="1.1">
  <g>
    <g>
      <path style="fill:#FF0000;fill-opacity:1" d="M1.611328125,33.662109375L15.966796875,33.662109375 15.966796875,36.005859375 1.611328125,36.005859375 1.611328125,33.662109375z M1.611328125,27.421875L15.966796875,27.421875 15.966796875,29.765625 1.611328125,29.765625 1.611328125,27.421875z M0,7.998046875L1.2890625,7.998046875 14.53125,18.33984375 14.53125,7.998046875 16.875,7.998046875 16.875,22.060546875 15.966796875,22.060546875 2.34375,11.71875 2.34375,22.060546875 0,22.060546875 0,7.998046875z M21.62109375,6.38671922683716L23.96484375,6.38671922683716 23.96484375,52.822265625 23.37890625,52.822265625 5.56640625,42.5390625 6.73828125,40.4296875 21.62109375,49.21875 21.62109375,6.38671922683716z M11.66015625,0L15.5200176239014,0.659182548522949 19.365234375,2.63671875 18.486328125,4.62890672683716 15.0732421875,2.87109351158142 11.66015625,2.34374976158142 8.466796875,2.87109351158142 5.302734375,4.62890672683716 4.423828125,2.63671875 8.10791015625,0.659182548522949 11.66015625,0z" />
    </g>
  </g>
</svg>