<?xml version="1.0" encoding="utf-8"?>
<!DOCTYPE svg PUBLIC "-//W3C//DTD SVG 1.1//EN" "http://www.w3.org/Graphics/SVG/1.1/DTD/svg11.dtd">
<svg width="29.736328125" height="52.822265625" xmlns="http://www.w3.org/2000/svg" xmlns:xlink="http://www.w3.org/1999/xlink" xmlns:xml="http://www.w3.org/XML/1998/namespace" version="1.1">
  <g>
    <g>
      <path style="fill:#FF0000;fill-opacity:1" d="M0,29.70703125L2.34375047683716,29.70703125 3.0322265625,31.439208984375 3.92578125,32.7685546875 5.1708984375,33.614501953125 6.9140625,33.896484375 8.64623928070068,33.61083984375 9.9169921875,32.75390625 10.821533203125,31.4208984375 11.455078125,29.70703125 13.798828125,29.70703125 12.919921875,32.34375 11.484375,34.4091796875 9.4775390625,35.7568359375 6.884765625,36.240234375 4.27734375,35.6982421875 2.2265625,34.248046875 0.7763671875,32.1533203125 0,29.70703125z M0,19.74609375L2.34375047683716,19.74609375 3.0322265625,21.4782733917236 3.92578125,22.8076171875 5.1708984375,23.6535663604736 6.9140625,23.935546875 8.64623928070068,23.6499042510986 9.9169921875,22.79296875 10.821533203125,21.4599628448486 11.455078125,19.74609375 13.798828125,19.74609375 12.919921875,22.3828125 11.484375,24.4482421875 9.4775390625,25.7958984375 6.884765625,26.279296875 4.27734375,25.7373046875 2.2265625,24.287109375 0.7763671875,22.1923828125 0,19.74609375z M0,9.78515625L2.34375047683716,9.78515625 3.0322265625,11.517333984375 3.92578125,12.8466796875 5.1708984375,13.692626953125 6.9140625,13.974609375 8.64623928070068,13.68896484375 9.9169921875,12.83203125 10.821533203125,11.4990234375 11.455078125,9.78515625 13.798828125,9.78515625 12.919921875,12.421875 11.484375,14.4873046875 9.4775390625,15.8349609375 6.884765625,16.318359375 4.27734375,15.7763671875 2.2265625,14.326171875 0.7763671875,12.2314453125 0,9.78515625z M17.373046875,6.38671922683716L17.958984375,6.38671922683716 29.736328125,13.330078125 28.59375,15.3515625 19.716796875,10.166015625 19.716796875,52.822265625 19.130859375,52.822265625 6.6796875,45.322265625 7.8515625,43.41796875 17.373046875,49.130859375 17.373046875,6.38671922683716z M13.18359375,0L17.04345703125,0.659182548522949 20.888671875,2.63671875 20.009765625,4.62890672683716 16.5966796875,2.87109351158142 13.18359375,2.34374976158142 9.990234375,2.87109351158142 6.826171875,4.62890672683716 5.947265625,2.63671875 9.63134765625,0.659182548522949 13.18359375,0z" />
    </g>
  </g>
</svg>