<?xml version="1.0" encoding="utf-8"?>
<!DOCTYPE svg PUBLIC "-//W3C//DTD SVG 1.1//EN" "http://www.w3.org/Graphics/SVG/1.1/DTD/svg11.dtd">
<svg width="28.5937500000023" height="52.822265625" xmlns="http://www.w3.org/2000/svg" xmlns:xlink="http://www.w3.org/1999/xlink" xmlns:xml="http://www.w3.org/XML/1998/namespace" version="1.1">
  <g>
    <g>
      <path style="fill:#FF0000;fill-opacity:1" d="M3.69140625,43.037109375L6.35009670257568,46.256103515625 8.994140625,48.5888671875 11.630859375,50.006103515625 14.267578125,50.478515625 17.281494140625,50.035400390625 20.1708984375,48.7060546875 22.9577617645264,46.402587890625 25.6640625,43.037109375 27.568359375,44.47265625 24.4299297332764,48.116455078125 21.1669921875,50.7275390625 17.7795391082764,52.298583984375 14.267578125,52.822265625 11.085205078125,52.291259765625 7.9833984375,50.6982421875 4.918212890625,48.079833984375 1.845703125,44.47265625 3.69140625,43.037109375z M13.095703125,29.208984375L15.439453125,29.208984375 15.439453125,35.7421875 23.408203125,35.7421875 23.408203125,38.0859375 15.439453125,38.0859375 15.439453125,45.1171875 13.095703125,45.1171875 13.095703125,38.0859375 5.126953125,38.0859375 5.126953125,35.7421875 13.095703125,35.7421875 13.095703125,29.208984375z M0,7.998046875L2.34375,7.998046875 2.398681640625,11.920166015625 2.5634765625,15.2490234375 2.87841796875,18.006591796875 3.3837890625,20.21484375 4.097900390625,21.8920917510986 5.0390625,23.056640625 6.24023342132568,23.7377948760986 7.734375,23.96484375 9.19921779632568,23.7487812042236 10.37109375,23.1005859375 11.2939453125,21.9763202667236 12.01171875,20.33203125 12.53173828125,18.145751953125 12.861328125,15.3955078125 13.04443359375,12.030029296875 13.125,7.998046875 15.46875,7.998046875 15.523681640625,11.920166015625 15.6884765625,15.2490234375 16.00341796875,18.006591796875 16.5087890625,20.21484375 17.222900390625,21.8920917510986 18.1640625,23.056640625 19.3652324676514,23.7377948760986 20.859375,23.96484375 22.3535137176514,23.7377948760986 23.5546875,23.056640625 24.4958477020264,21.8920917510986 25.2099609375,20.21484375 25.71533203125,18.006591796875 26.0302734375,15.2490234375 26.195068359375,11.920166015625 26.25,7.998046875 28.59375,7.998046875 28.538818359375,11.9384765625 28.3740234375,15.498046875 28.011474609375,18.62548828125 27.36328125,21.26953125 26.385498046875,23.4008808135986 25.0341796875,24.990234375 23.2214336395264,25.9790058135986 20.859375,26.30859375 18.427734375,25.8544921875 16.58203125,24.5654296875 15.2197265625,22.55859375 14.267578125,19.921875 13.330078125,22.55859375 11.982421875,24.5654296875 10.13671875,25.8544921875 7.734375,26.30859375 5.372314453125,25.9790058135986 3.5595703125,24.990234375 2.20825171470642,23.4008808135986 1.23046875,21.26953125 0.582275032997131,18.62548828125 0.2197265625,15.498046875 0.0549312829971313,11.9384765625 0,7.998046875z M14.033203125,0L17.8930644989014,0.659182548522949 21.73828125,2.63671875 20.859375,4.62890672683716 17.4462890625,2.87109351158142 14.033203125,2.34374976158142 10.83984375,2.87109351158142 7.67578125,4.62890672683716 6.796875,2.63671875 10.48095703125,0.659182548522949 14.033203125,0z" />
    </g>
  </g>
</svg>