<?xml version="1.0" encoding="utf-8"?>
<!DOCTYPE svg PUBLIC "-//W3C//DTD SVG 1.1//EN" "http://www.w3.org/Graphics/SVG/1.1/DTD/svg11.dtd">
<svg width="24.580078125" height="51.2109375" xmlns="http://www.w3.org/2000/svg" xmlns:xlink="http://www.w3.org/1999/xlink" xmlns:xml="http://www.w3.org/XML/1998/namespace" version="1.1">
  <g>
    <g>
      <path style="fill:#FF0000;fill-opacity:1" d="M11.103515625,41.54296875L13.447265625,41.54296875 13.447265625,50.33203125 11.103515625,50.33203125 11.103515625,41.54296875z M11.103515625,25.224609375L13.447265625,25.224609375 13.447265625,34.013671875 11.103515625,34.013671875 11.103515625,25.224609375z M11.103515625,8.876953125L13.447265625,8.876953125 13.447265625,17.666015625 11.103515625,17.666015625 11.103515625,8.876953125z M22.236328125,7.998046875L24.580078125,7.998046875 24.580078125,51.2109375 22.236328125,51.2109375 22.236328125,7.998046875z M0,7.998046875L2.34375,7.998046875 2.34375,51.2109375 0,51.2109375 0,7.998046875z M12.01171875,0L15.8715801239014,0.659182548522949 19.716796875,2.63671875 18.837890625,4.62890625 15.4248046875,2.87109351158142 12.01171875,2.34375 8.818359375,2.87109351158142 5.654296875,4.62890625 4.775390625,2.63671875 8.45947265625,0.659182548522949 12.01171875,0z" />
    </g>
  </g>
</svg>