<?xml version="1.0" encoding="utf-8"?>
<!DOCTYPE svg PUBLIC "-//W3C//DTD SVG 1.1//EN" "http://www.w3.org/Graphics/SVG/1.1/DTD/svg11.dtd">
<svg width="27.568359375" height="43.212890625" xmlns="http://www.w3.org/2000/svg" xmlns:xlink="http://www.w3.org/1999/xlink" xmlns:xml="http://www.w3.org/XML/1998/namespace" version="1.1">
  <g>
    <g>
      <path style="fill:#FF0000;fill-opacity:1" d="M12.36328125,0L14.70703125,0 14.70703125,12.83203125 17.9443359375,11.6455078125 20.9912109375,9.1845703125 23.525390625,5.5517578125 25.224609375,0.87890625 27.568359375,0.87890625 25.517578125,6.5771484375 22.4853515625,11.0009765625 20.7019023895264,12.6672382354736 18.779296875,13.9453125 16.76513671875,14.8095722198486 14.70703125,15.234375 14.70703125,20.390625 25.693359375,20.390625 25.693359375,22.734375 14.70703125,22.734375 14.70703125,28.0078125 16.76513671875,28.414306640625 18.779296875,29.2822265625 22.4853515625,32.2265625 25.517578125,36.6357421875 27.568359375,42.333984375 25.224609375,42.333984375 23.525390625,37.67578125 20.9912109375,34.0576171875 17.9443359375,31.58203125 14.70703125,30.380859375 14.70703125,43.212890625 12.36328125,43.212890625 12.36328125,30.380859375 9.1552734375,31.5673828125 6.2548828125,34.0283203125 3.92578125,37.6611328125 2.40234375,42.333984375 0,42.333984375 1.8896484375,36.7236328125 4.775390625,32.3876953125 8.3642578125,29.47265625 10.338134765625,28.5791015625 12.36328125,28.06640625 12.36328125,22.734375 1.376953125,22.734375 1.376953125,20.390625 12.36328125,20.390625 12.36328125,15.146484375 10.338134765625,14.6521015167236 8.3642578125,13.7548828125 4.775390625,10.83984375 1.8896484375,6.5185546875 0,0.87890625 2.40234375,0.87890625 3.92578125,5.5517578125 6.2548828125,9.1845703125 9.1552734375,11.6455078125 12.36328125,12.83203125 12.36328125,0z" />
    </g>
  </g>
</svg>