<?xml version="1.0" encoding="utf-8"?>
<!DOCTYPE svg PUBLIC "-//W3C//DTD SVG 1.1//EN" "http://www.w3.org/Graphics/SVG/1.1/DTD/svg11.dtd">
<svg width="28.8574218750009" height="44.82421875" xmlns="http://www.w3.org/2000/svg" xmlns:xlink="http://www.w3.org/1999/xlink" xmlns:xml="http://www.w3.org/XML/1998/namespace" version="1.1">
  <g>
    <g>
      <path style="fill:#FF0000;fill-opacity:1" d="M10.458984375,19.16015625L7.2216796875,19.9951171875 4.658203125,21.4306640625 2.958984375,23.6279296875 2.34375,26.748046875 2.958984375,29.765625 4.658203125,31.9189453125 7.236328125,33.369140625 10.458984375,34.248046875 10.458984375,19.16015625z M10.458984375,0L11.044921875,0 28.857421875,10.283203125 27.685546875,12.392578125 12.802734375,3.603515625 12.802734375,16.552734375 16.376953125,16.3037109375 20.361328125,16.23046875 25.634765625,16.23046875 25.634765625,18.57421875 20.361328125,18.57421875 16.5234375,18.6328125 12.802734375,18.837890625 12.802734375,34.5703125 16.552734375,34.8193359375 20.361328125,34.86328125 25.634765625,34.86328125 25.634765625,37.20703125 20.390625,37.20703125 16.32568359375,37.119140625 12.802734375,36.85546875 12.802734375,44.82421875 10.458984375,44.82421875 10.458984375,36.533203125 7.76367092132568,35.96923828125 5.537109375,35.21484375 3.7353515625,34.27001953125 2.314453125,33.134765625 0.5419921875,30.322265625 0,26.748046875 0.6884765625,22.7783203125 2.724609375,19.9072265625 6.005859375,17.98828125 10.458984375,16.845703125 10.458984375,0z" />
    </g>
  </g>
</svg>