<?xml version="1.0" encoding="utf-8"?>
<!DOCTYPE svg PUBLIC "-//W3C//DTD SVG 1.1//EN" "http://www.w3.org/Graphics/SVG/1.1/DTD/svg11.dtd">
<svg width="27.3046875000007" height="43.212890625" xmlns="http://www.w3.org/2000/svg" xmlns:xlink="http://www.w3.org/1999/xlink" xmlns:xml="http://www.w3.org/XML/1998/namespace" version="1.1">
  <g>
    <g>
      <path style="fill:#FF0000;fill-opacity:1" d="M6.474609375,16.93359375L8.818359375,16.93359375 8.818359375,25.72265625 6.474609375,25.72265625 6.474609375,16.93359375z M8.935546875,9.609375L6.38671875,11.806640625 4.2919921875,14.58984375 2.87109375,17.8564453125 2.34375,21.533203125 2.87109375,25.224609375 4.306640625,28.4912109375 6.416015625,31.259765625 8.96484375,33.45703125 14.53125,21.5625 8.935546875,9.609375z M4.453125,0L7.08984375,0 15.849609375,18.75 24.66796875,0 27.3046875,0 17.16796875,21.591796875 27.3046875,43.212890625 24.66796875,43.212890625 15.849609375,24.404296875 7.03125,43.212890625 4.39453125,43.212890625 7.96875,35.56640625 5.33203125,33.4130859375 2.7392578125,30.4248046875 0.776366710662842,26.4990234375 0.194091379642487,24.151611328125 0,21.533203125 0.194091379642487,18.9184589385986 0.776366710662842,16.58203125 2.7392578125,12.65625 5.3173828125,9.6533203125 7.96875,7.5 4.453125,0z" />
    </g>
  </g>
</svg>