<?xml version="1.0" encoding="utf-8"?>
<!DOCTYPE svg PUBLIC "-//W3C//DTD SVG 1.1//EN" "http://www.w3.org/Graphics/SVG/1.1/DTD/svg11.dtd">
<svg width="26.513671875" height="51.2109375" xmlns="http://www.w3.org/2000/svg" xmlns:xlink="http://www.w3.org/1999/xlink" xmlns:xml="http://www.w3.org/XML/1998/namespace" version="1.1">
  <g>
    <g>
      <path style="fill:#FF0000;fill-opacity:1" d="M16.962890625,30.64453125L24.169921875,44.326171875 24.169921875,30.64453125 16.962890625,30.64453125z M24.169921875,14.677734375L16.962890625,28.30078125 24.169921875,28.30078125 24.169921875,14.677734375z M4.716796875,7.998046875L15,27.099609375 25.224609375,7.998046875 26.513671875,7.998046875 26.513671875,51.2109375 25.224609375,51.2109375 15,31.9921875 4.716796875,51.2109375 2.87109375,49.892578125 13.095703125,30.64453125 0,30.64453125 0,28.30078125 13.06640625,28.30078125 2.548828125,8.90625 4.716796875,7.998046875z M13.037109375,0L16.8969707489014,0.659182548522949 20.7421875,2.63671875 19.86328125,4.62890625 16.4501953125,2.87109351158142 13.037109375,2.34375 9.84375,2.87109351158142 6.6796875,4.62890625 5.80078125,2.63671875 9.48486328125,0.659182548522949 13.037109375,0z" />
    </g>
  </g>
</svg>