<?xml version="1.0" encoding="utf-8"?>
<!DOCTYPE svg PUBLIC "-//W3C//DTD SVG 1.1//EN" "http://www.w3.org/Graphics/SVG/1.1/DTD/svg11.dtd">
<svg width="30.46875" height="43.212890625" xmlns="http://www.w3.org/2000/svg" xmlns:xlink="http://www.w3.org/1999/xlink" xmlns:xml="http://www.w3.org/XML/1998/namespace" version="1.1">
  <g>
    <g>
      <path style="fill:#FF0000;fill-opacity:1" d="M14.00390625,0L16.34765625,0 16.34765625,16.376953125 18.486328125,15.9704608917236 20.5078125,15.1611328125 22.3718242645264,13.9270038604736 24.0380859375,12.24609375 25.4772930145264,10.111083984375 26.66015625,7.5146484375 27.5537109375,4.442138671875 28.125,0.87890625 30.46875,0.87890625 29.893798828125,4.713134765625 28.9306640625,8.1298828125 27.60498046875,11.1071786880493 25.9423828125,13.623046875 23.9611797332764,15.6628437042236 21.6796875,17.2119140625 19.1308574676514,18.2409687042236 16.34765625,18.720703125 16.34765625,43.212890625 14.00390625,43.212890625 14.00390625,30.029296875 5.44921875,27.1875 5.44921875,42.333984375 3.134765625,42.333984375 3.134765625,24.287109375 3.603515625,23.994140625 14.00390625,27.48046875 14.00390625,18.720703125 11.220703125,18.3178730010986 8.73046875,17.4609375 6.533203125,16.1096210479736 4.62890625,14.2236328125 3.02123999595642,11.7846689224243 1.7138671875,8.7744140625 0.706787109375,5.152587890625 0,0.87890625 2.34375,0.87890625 2.94799780845642,4.833984375 3.8232421875,8.0859375 4.954833984375,10.7080087661743 6.328125,12.7734375 7.93579006195068,14.3225116729736 9.7705078125,15.3955078125 14.00390625,16.376953125 14.00390625,0z" />
    </g>
  </g>
</svg>