<?xml version="1.0" encoding="utf-8"?>
<!DOCTYPE svg PUBLIC "-//W3C//DTD SVG 1.1//EN" "http://www.w3.org/Graphics/SVG/1.1/DTD/svg11.dtd">
<svg width="31.81640625" height="45.76171875" xmlns="http://www.w3.org/2000/svg" xmlns:xlink="http://www.w3.org/1999/xlink" xmlns:xml="http://www.w3.org/XML/1998/namespace" version="1.1">
  <g>
    <g>
      <path style="fill:#FF0000;fill-opacity:1" d="M15.41015625,26.689453125L17.75390625,26.689453125 17.75390625,35.478515625 15.41015625,35.478515625 15.41015625,26.689453125z M21.4453125,18.076171875L17.0947265625,19.2333984375 13.6962890625,21.7822265625 11.484375,25.576171875 10.8911123275757,27.89794921875 10.693359375,30.46875 10.8984365463257,33.08349609375 11.513671875,35.361328125 13.7841796875,38.9501953125 17.197265625,41.25 21.4453125,42.24609375 21.4453125,18.076171875z M21.4453125,0L22.03125,0 31.81640625,9.111328125 30.439453125,10.986328125 23.7890625,4.86328125 23.7890625,44.82421875 20.2203369140625,44.505615234375 17.13134765625,43.7841796875 14.5220947265625,42.659912109375 12.392578125,41.1328125 10.7244863510132,39.2266845703125 9.49951076507568,36.96533203125 8.71765041351318,34.3487548828125 8.37890625,31.376953125 5.625,32.28515625 3.75,33.8525390625 2.6806640625,35.7421875 2.34375,37.6171875 2.6513671875,39.462890625 3.6474609375,41.2353515625 5.390625,42.71484375 7.939453125,43.65234375 7.060546875,45.76171875 3.8818359375,44.4287109375 1.6845703125,42.4658203125 0.41015625,40.107421875 0,37.6171875 0.296630859375,35.2294921875 1.1865234375,33.28125 4.306640625,30.46875 1.1865234375,27.626953125 0.296630859375,25.6787109375 0,23.291015625 0.4248046875,20.8447265625 1.6845703125,18.5009765625 3.779296875,16.5234375 6.708984375,15.146484375 7.412109375,17.373046875 4.9365234375,18.5009765625 3.38378858566284,20.068359375 2.578125,21.8115234375 2.34375,23.466796875 2.75390625,25.1513671875 3.92578125,26.982421875 5.8154296875,28.564453125 8.37890625,29.501953125 8.71948146820068,26.50634765625 9.5068359375,23.84765625 12.2314453125,19.5849609375 16.2890625,16.7724609375 21.4453125,15.439453125 21.4453125,0z" />
    </g>
  </g>
</svg>