<?xml version="1.0" encoding="utf-8"?>
<!DOCTYPE svg PUBLIC "-//W3C//DTD SVG 1.1//EN" "http://www.w3.org/Graphics/SVG/1.1/DTD/svg11.dtd">
<svg width="29.0625000000004" height="51.2109375" xmlns="http://www.w3.org/2000/svg" xmlns:xlink="http://www.w3.org/1999/xlink" xmlns:xml="http://www.w3.org/XML/1998/namespace" version="1.1">
  <g>
    <g>
      <path style="fill:#FF0000;fill-opacity:1" d="M7.96875,24.990234375L10.3125,24.990234375 10.3125,34.658203125 7.96875,34.658203125 7.96875,24.990234375z M14.0625,17.021484375L9.9609375,18.6328125 6.181640625,21.15234375 3.4130859375,24.7998046875 2.611083984375,27.1179218292236 2.34375,29.82421875 2.61474609375,32.55615234375 3.427734375,34.892578125 6.2109375,38.5400390625 10.0048828125,41.0302734375 14.12109375,42.626953125 14.70703125,41.044921875 15.8642578125,39.4921875 17.7099609375,38.0419921875 20.302734375,36.767578125 17.724609375,35.888671875 15.732421875,34.4970703125 14.4580078125,32.5048828125 14.00390625,29.82421875 14.410400390625,27.462158203125 15.6298828125,25.5908203125 17.611083984375,24.1369647979736 20.302734375,23.02734375 18.0029296875,22.265625 16.11328125,21.0205078125 14.7509765625,19.2626953125 14.0625,17.021484375z M28.271484375,7.998046875L29.0625,7.998046875 29.0625,10.341796875 28.330078125,10.341796875 25.4562358856201,10.4296875 22.9870586395264,10.693359375 20.9225444793701,11.1328125 19.2626953125,11.748046875 17.076416015625,13.51318359375 16.34765625,15.99609375 16.54541015625,17.255859375 17.138671875,18.3984375 19.3798828125,20.2587890625 22.8369140625,21.4892578125 27.3046875,22.060546875 29.0625,22.060546875 29.0625,24.404296875 27.24609375,24.404296875 22.4047832489014,24.7924823760986 19.013671875,25.78125 17.01416015625,27.4511737823486 16.34765625,29.8828125 16.549072265625,31.094970703125 17.1533203125,32.1533203125 19.39453125,33.837890625 22.8369140625,34.9365234375 27.24609375,35.390625 29.0625,35.390625 29.0625,37.734375 27.568359375,37.734375 24.7705059051514,37.9248046875 22.412109375,38.3203125 20.4711894989014,38.8916015625 18.92578125,39.609375 16.962890625,41.4697265625 16.34765625,43.798828125 16.552734375,45.208740234375 17.16796875,46.3330078125 19.5263671875,47.87109375 23.291015625,48.6474609375 28.330078125,48.8671875 29.0625,48.8671875 29.0625,51.2109375 28.359375,51.2109375 22.8076171875,50.9326171875 18.45703125,49.9658203125 15.4833984375,48.076171875 14.571533203125,46.7138671875 14.091796875,45.029296875 9.0234375,43.1982421875 4.4970703125,40.166015625 2.6806640625,38.14453125 1.24511671066284,35.771484375 0.311278879642487,33.01025390625 0,29.82421875 0.311278879642487,26.6564960479736 1.24511671066284,23.8916015625 2.684326171875,21.5075702667236 4.51171875,19.482421875 9.052734375,16.435546875 14.12109375,14.58984375 15.428466796875,11.69677734375 18.1787109375,9.638671875 20.1113872528076,8.9208984375 22.4377422332764,8.408203125 25.1577739715576,8.1005859375 28.271484375,7.998046875z M13.974609375,0L17.8344707489014,0.659182548522949 21.6796875,2.63671875 20.80078125,4.62890625 17.3876953125,2.87109351158142 13.974609375,2.34375 10.78125,2.87109351158142 7.6171875,4.62890625 6.73828125,2.63671875 10.42236328125,0.659182548522949 13.974609375,0z" />
    </g>
  </g>
</svg>