<?xml version="1.0" encoding="utf-8"?>
<!DOCTYPE svg PUBLIC "-//W3C//DTD SVG 1.1//EN" "http://www.w3.org/Graphics/SVG/1.1/DTD/svg11.dtd">
<svg width="30.498046875" height="52.822265625" xmlns="http://www.w3.org/2000/svg" xmlns:xlink="http://www.w3.org/1999/xlink" xmlns:xml="http://www.w3.org/XML/1998/namespace" version="1.1">
  <g>
    <g>
      <path style="fill:#FF0000;fill-opacity:1" d="M7.44140672683716,8.73046875L6.16699266433716,9.136962890625 5.09765672683716,10.3564453125 4.21875047683716,12.279052734375 3.51562547683716,14.794921875 2.98461961746216,17.860107421875 2.62207078933716,21.4306640625 2.34375047683716,29.6484375 2.41333055496216,34.420166015625 2.62207078933716,38.5986328125 2.98461961746216,42.169189453125 3.51562547683716,45.1171875 4.21875047683716,47.435302734375 5.09765672683716,49.1162109375 6.16699266433716,50.137939453125 7.44140672683716,50.478515625 8.7158203125,50.137939453125 9.78515625,49.1162109375 10.6640625,47.435302734375 11.3671875,45.1171875 11.898193359375,42.169189453125 12.2607421875,38.5986328125 12.469482421875,34.420166015625 12.5390625,29.6484375 12.2607421875,21.4306640625 11.898193359375,17.860107421875 11.3671875,14.794921875 10.6640625,12.279052734375 9.78515625,10.3564453125 8.7158203125,9.136962890625 7.44140672683716,8.73046875z M7.44140672683716,6.38671922683716L9.283447265625,6.70166015625 10.8251953125,7.646484375 12.088623046875,9.261474609375 13.095703125,11.5869140625 13.861083984375,14.637451171875 14.3994140625,18.427734375 14.732666015625,23.0053730010986 14.8828125,28.41796875 21.474609375,28.41796875 15.498046875,13.623046875 17.958984375,13.623046875 22.998046875,26.455078125 28.037109375,13.623046875 30.498046875,13.623046875 24.521484375,28.41796875 30.05859375,28.41796875 30.05859375,30.76171875 24.697265625,30.76171875 30.498046875,45.556640625 28.41796875,45.556640625 22.998046875,32.16796875 17.578125,45.556640625 15.498046875,45.556640625 21.298828125,30.76171875 14.8828125,30.76171875 14.75830078125,36.199951171875 14.443359375,40.7958984375 13.912353515625,44.59716796875 13.1396484375,47.6513671875 12.117919921875,49.97314453125 10.83984375,51.5771484375 9.287109375,52.510986328125 7.44140672683716,52.822265625 5.54809617996216,52.49267578125 3.96972703933716,51.50390625 2.68432664871216,49.815673828125 1.669921875,47.3876953125 0.911865234375,44.190673828125 0.3955078125,40.1953125 0.0988773107528687,35.361328125 0,29.6484375 0.0988773107528687,23.9318866729736 0.3955078125,19.0869140625 0.915527403354645,15.076904296875 1.68457078933716,11.865234375 2.70996141433716,9.422607421875 3.99902391433716,7.7197265625 5.57006883621216,6.719970703125 7.44140672683716,6.38671922683716z M14.47265625,0L18.3325176239014,0.659182548522949 22.177734375,2.63671875 21.298828125,4.62890672683716 17.8857421875,2.87109351158142 14.47265625,2.34374976158142 11.279296875,2.87109351158142 8.115234375,4.62890672683716 7.23632860183716,2.63671875 10.92041015625,0.659182548522949 14.47265625,0z" />
    </g>
  </g>
</svg>