<?xml version="1.0" encoding="utf-8"?>
<!DOCTYPE svg PUBLIC "-//W3C//DTD SVG 1.1//EN" "http://www.w3.org/Graphics/SVG/1.1/DTD/svg11.dtd">
<svg width="24.345703125" height="52.822265625" xmlns="http://www.w3.org/2000/svg" xmlns:xlink="http://www.w3.org/1999/xlink" xmlns:xml="http://www.w3.org/XML/1998/namespace" version="1.1">
  <g>
    <g>
      <path style="fill:#FF0000;fill-opacity:1" d="M22.001953125,7.998046875L24.345703125,7.998046875 24.345703125,52.822265625 23.759765625,52.822265625 2.666015625,43.916015625 3.720703125,41.513671875 22.001953125,49.21875 22.001953125,7.998046875z M8.37890625,7.998046875L8.96484375,7.998046875 18.310546875,14.150390625 16.93359375,16.025390625 10.72265625,11.806640625 10.72265625,21.26953125 18.046875,21.26953125 18.046875,23.61328125 10.72265625,23.61328125 10.72265625,38.994140625 10.13671875,38.994140625 0,31.494140625 1.435546875,29.619140625 8.37890625,34.8046875 8.37890625,23.61328125 1.0546875,23.61328125 1.0546875,21.26953125 8.37890625,21.26953125 8.37890625,7.998046875z M11.982421875,0L15.8422832489014,0.659182548522949 19.6875,2.63671875 18.80859375,4.62890672683716 15.3955078125,2.87109351158142 11.982421875,2.34374976158142 8.7890625,2.87109351158142 5.625,4.62890672683716 4.74609375,2.63671875 8.43017578125,0.659182548522949 11.982421875,0z" />
    </g>
  </g>
</svg>