<?xml version="1.0" encoding="utf-8"?>
<!DOCTYPE svg PUBLIC "-//W3C//DTD SVG 1.1//EN" "http://www.w3.org/Graphics/SVG/1.1/DTD/svg11.dtd">
<svg width="30.46875" height="43.212890625" xmlns="http://www.w3.org/2000/svg" xmlns:xlink="http://www.w3.org/1999/xlink" xmlns:xml="http://www.w3.org/XML/1998/namespace" version="1.1">
  <g>
    <g>
      <path style="fill:#FF0000;fill-opacity:1" d="M3.896484375,14.501953125L5.009765625,16.81640625 7.1923828125,18.33984375 10.2685546875,19.2333984375 14.0625,19.658203125 14.0625,14.501953125 3.896484375,14.501953125z M14.0625,7.001953125L10.25390625,7.3681640625 7.1630859375,8.232421875 4.98046875,9.7705078125 3.896484375,12.158203125 14.0625,12.158203125 14.0625,7.001953125z M14.0625,0L16.40625,0 16.40625,4.599609375 17.8857421875,4.5556640625 19.453125,4.541015625 26.3671875,4.541015625 26.3671875,0.87890625 28.7109375,0.87890625 28.7109375,6.884765625 19.453125,6.884765625 17.900390625,6.8994140625 16.40625,6.9140625 16.40625,12.158203125 28.7109375,12.158203125 28.7109375,14.501953125 16.40625,14.501953125 16.40625,19.74609375 17.900390625,19.775390625 19.453125,19.775390625 28.7109375,19.775390625 28.7109375,22.119140625 19.482421875,22.119140625 17.900390625,22.119140625 16.40625,22.08984375 16.40625,24.521484375 19.1857891082764,25.01953125 21.7236328125,26.044921875 23.9904766082764,27.5830078125 25.95703125,29.619140625 27.608642578125,32.135009765625 28.9306640625,35.1123046875 29.893798828125,38.521728515625 30.46875,42.333984375 28.125,42.333984375 27.5537109375,38.79638671875 26.66015625,35.7421875 25.4809551239014,33.15673828125 24.052734375,31.025390625 22.4011211395264,29.3408203125 20.5517578125,28.095703125 18.541259765625,27.275390625 16.40625,26.865234375 16.40625,43.212890625 14.0625,43.212890625 14.0625,26.865234375 9.7998046875,27.83203125 7.96508693695068,28.89404296875 6.357421875,30.439453125 4.98046875,32.5048828125 3.837890625,35.126953125 2.95165991783142,38.37890625 2.34375,42.333984375 0,42.333984375 0.706787109375,38.060302734375 1.7138671875,34.4384765625 3.02123999595642,31.42822265625 4.62890625,28.9892578125 6.536865234375,27.10693359375 8.7451171875,25.7666015625 11.253662109375,24.920654296875 14.0625,24.521484375 14.0625,21.97265625 10.982666015625,21.68701171875 8.3642578125,21.240234375 6.18896484375,20.592041015625 4.4384765625,19.7021484375 3.10546851158142,18.5559101104736 2.1826171875,17.138671875 1.46484422683716,13.330078125 2.1826171875,9.5361328125 3.10546851158142,8.10791015625 4.4384765625,6.9580078125 6.18896484375,6.068115234375 8.3642578125,5.419921875 10.982666015625,4.97314453125 14.0625,4.6875 14.0625,0z" />
    </g>
  </g>
</svg>