<?xml version="1.0" encoding="utf-8"?>
<!DOCTYPE svg PUBLIC "-//W3C//DTD SVG 1.1//EN" "http://www.w3.org/Graphics/SVG/1.1/DTD/svg11.dtd">
<svg width="30.46875" height="44.82421875" xmlns="http://www.w3.org/2000/svg" xmlns:xlink="http://www.w3.org/1999/xlink" xmlns:xml="http://www.w3.org/XML/1998/namespace" version="1.1">
  <g>
    <g>
      <path style="fill:#FF0000;fill-opacity:1" d="M0,0L2.34374952316284,0 2.99926686286926,4.178466796875 3.96972608566284,7.5732421875 5.22949171066284,10.2685546875 6.75292921066284,12.3486328125 8.52905178070068,13.8537616729736 10.546875,14.82421875 15.234375,15.52734375 17.55615234375,15.3002948760986 19.775390625,14.619140625 21.8298320770264,13.4619159698486 23.6572265625,11.806640625 25.2355937957764,9.64599609375 26.54296875,6.97265625 27.5244140625,3.7646484375 28.125,0 30.46875,0 29.893798828125,3.83056640625 28.9306640625,7.236328125 27.608642578125,10.20263671875 25.95703125,12.71484375 23.9904766082764,14.7546405792236 21.7236328125,16.3037109375 19.1857891082764,17.3400897979736 16.40625,17.841796875 16.40625,29.94140625 26.689453125,22.646484375 28.037109375,24.55078125 16.40625,32.8125 16.40625,36.62109375 16.717529296875,39.22119140625 17.6513671875,41.044921875 19.0832500457764,42.12158203125 20.888671875,42.48046875 23.5400390625,41.8212890625 25.4150390625,40.1953125 26.7041015625,38.1005859375 27.568359375,36.03515625 29.6484375,37.32421875 28.154296875,40.341796875 26.3525390625,42.71484375 24.0087890625,44.267578125 20.888671875,44.82421875 17.874755859375,44.28955078125 15.7470703125,42.685546875 14.483642578125,40.10009765625 14.0625,36.62109375 14.0625,17.841796875 11.2536611557007,17.4389667510986 8.7451171875,16.58203125 6.53686475753784,15.2307147979736 4.62890577316284,13.3447265625 3.02123951911926,10.9057626724243 1.71386671066284,7.8955078125 0.706786692142487,4.273681640625 0,0z" />
    </g>
  </g>
</svg>