<?xml version="1.0" encoding="utf-8"?>
<!DOCTYPE svg PUBLIC "-//W3C//DTD SVG 1.1//EN" "http://www.w3.org/Graphics/SVG/1.1/DTD/svg11.dtd">
<svg width="28.271484375" height="43.212890625" xmlns="http://www.w3.org/2000/svg" xmlns:xlink="http://www.w3.org/1999/xlink" xmlns:xml="http://www.w3.org/XML/1998/namespace" version="1.1">
  <g>
    <g>
      <path style="fill:#FF0000;fill-opacity:1" d="M4.36523485183716,0L6.70898485183716,0 7.58789110183716,2.8271484375 9.0966796875,5.6396484375 11.279296875,7.822265625 12.626953125,8.4814453125 14.150390625,8.701171875 15.673828125,8.485107421875 17.021484375,7.8369140625 19.2041015625,5.6689453125 20.712890625,2.841796875 21.591796875,0 23.935546875,0 23.701171875,1.5087890625 22.9833984375,3.603515625 21.7822265625,5.947265625 20.1123046875,8.173828125 17.958984375,9.9609375 15.322265625,10.95703125 15.322265625,21.708984375 25.927734375,27.5390625 25.927734375,14.150390625 28.271484375,14.150390625 28.271484375,31.142578125 27.685546875,31.142578125 15.322265625,24.4921875 15.322265625,40.869140625 26.279296875,40.869140625 26.279296875,43.212890625 1.96289110183716,43.212890625 1.96289110183716,40.869140625 12.978515625,40.869140625 12.978515625,23.232421875 2.34375047683716,17.490234375 2.34375047683716,30.556640625 0,30.556640625 0,13.564453125 0.585937976837158,13.564453125 12.978515625,20.419921875 12.978515625,10.95703125 10.341796875,9.9609375 8.1884765625,8.173828125 6.51855516433716,5.947265625 5.31738328933716,3.6181640625 4.59960985183716,1.5234375 4.36523485183716,0z" />
    </g>
  </g>
</svg>