<?xml version="1.0" encoding="utf-8"?>
<!DOCTYPE svg PUBLIC "-//W3C//DTD SVG 1.1//EN" "http://www.w3.org/Graphics/SVG/1.1/DTD/svg11.dtd">
<svg width="32.724609375" height="44.82421875" xmlns="http://www.w3.org/2000/svg" xmlns:xlink="http://www.w3.org/1999/xlink" xmlns:xml="http://www.w3.org/XML/1998/namespace" version="1.1">
  <g>
    <g>
      <path style="fill:#FF0000;fill-opacity:1" d="M14.853515625,23.02734375L10.751953125,26.982421875 14.853515625,30.9375 14.853515625,23.02734375z M22.03125,0L22.6171875,0 32.724609375,8.173828125 31.2890625,10.01953125 24.375,4.453125 24.375,44.82421875 22.03125,44.82421875 22.03125,11.865234375 10.3125,5.68359375 10.3125,24.31640625 16.7578125,17.98828125 17.197265625,18.193359375 17.197265625,35.771484375 16.7578125,35.9765625 10.3125,29.677734375 10.3125,44.82421875 7.96874952316284,44.82421875 7.96874952316284,29.677734375 1.40624952316284,35.9765625 0,34.39453125 7.55859327316284,26.982421875 0,19.5703125 1.40624952316284,17.98828125 7.96874952316284,24.345703125 7.96874952316284,2.080078125 8.5546875,2.080078125 22.03125,9.169921875 22.03125,0z" />
    </g>
  </g>
</svg>