<?xml version="1.0" encoding="utf-8"?>
<!DOCTYPE svg PUBLIC "-//W3C//DTD SVG 1.1//EN" "http://www.w3.org/Graphics/SVG/1.1/DTD/svg11.dtd">
<svg width="31.4941406250013" height="43.505859375" xmlns="http://www.w3.org/2000/svg" xmlns:xlink="http://www.w3.org/1999/xlink" xmlns:xml="http://www.w3.org/XML/1998/namespace" version="1.1">
  <g>
    <g>
      <path style="fill:#FF0000;fill-opacity:1" d="M19.921875,25.13671875L22.0788555145264,25.42236328125 24.0966796875,26.279296875 25.9350566864014,27.70751953125 27.5537109375,29.70703125 28.93798828125,32.28515625 30.0732421875,35.44921875 30.933837890625,39.19189453125 31.494140625,43.505859375 29.150390625,43.505859375 28.531494140625,39.5361328125 27.7294921875,36.181640625 26.7626934051514,33.4130859375 25.6494140625,31.201171875 24.3933086395264,29.527587890625 22.998046875,28.3740234375 21.4672832489014,27.703857421875 19.8046875,27.48046875 16.318359375,28.2275390625 14.7802734375,29.241943359375 13.388671875,30.791015625 12.147216796875,32.9296875 11.0595703125,35.712890625 10.1477031707764,39.2138671875 9.43359375,43.505859375 7.08984327316284,43.505859375 7.80761575698853,38.759765625 8.7890625,34.833984375 10.0305156707764,31.658935546875 11.5283203125,29.1650390625 13.275146484375,27.315673828125 15.263671875,26.07421875 17.48291015625,25.37109375 19.921875,25.13671875z M5.94726514816284,16.376953125L4.29199171066284,16.8310546875 3.17871046066284,18.0322265625 2.54882764816284,19.74609375 2.34374952316284,21.73828125 2.54882764816284,23.73046875 3.17871046066284,25.4443359375 4.29199171066284,26.6455078125 5.94726514816284,27.099609375 7.60253858566284,26.6455078125 8.7158203125,25.4443359375 9.345703125,23.7451171875 9.55078125,21.767578125 9.345703125,19.7607421875 8.7158203125,18.0322265625 7.60253858566284,16.8310546875 5.94726514816284,16.376953125z M5.94726514816284,14.033203125L8.525390625,14.6923828125 10.3857421875,16.435546875 11.513671875,18.9111328125 11.89453125,21.767578125 11.513671875,24.580078125 10.3857421875,27.041015625 8.525390625,28.7841796875 5.94726514816284,29.443359375 3.36914014816284,28.7841796875 1.50878858566284,27.0556640625 0.380859375,24.5947265625 0,21.73828125 0.380859375,18.8818359375 1.50878858566284,16.4208984375 3.36914014816284,14.6923828125 5.94726514816284,14.033203125z M7.08984327316284,0L9.43359375,0 10.1477031707764,4.310302734375 11.0595703125,7.8076171875 12.147216796875,10.579833984375 13.388671875,12.71484375 14.7802734375,14.2639179229736 16.318359375,15.2783203125 19.8046875,16.025390625 21.4672832489014,15.8020038604736 22.998046875,15.1318359375 24.3933086395264,13.9782733917236 25.6494140625,12.3046875 26.7626934051514,10.0927734375 27.7294921875,7.32421875 28.531494140625,3.9697265625 29.150390625,0 31.494140625,0 30.933837890625,4.332275390625 30.0732421875,8.0712890625 28.93798828125,11.2243661880493 27.5537109375,13.798828125 25.9350566864014,15.7983417510986 24.0966796875,17.2265625 22.0788555145264,18.0834980010986 19.921875,18.369140625 17.48291015625,18.1347675323486 15.263671875,17.431640625 13.275146484375,16.1901874542236 11.5283203125,14.3408203125 10.0305156707764,11.8469247817993 8.7890625,8.671875 7.80761575698853,4.74609375 7.08984327316284,0z" />
    </g>
  </g>
</svg>