<?xml version="1.0" encoding="utf-8"?>
<!DOCTYPE svg PUBLIC "-//W3C//DTD SVG 1.1//EN" "http://www.w3.org/Graphics/SVG/1.1/DTD/svg11.dtd">
<svg width="28.65234375" height="51.2109375" xmlns="http://www.w3.org/2000/svg" xmlns:xlink="http://www.w3.org/1999/xlink" xmlns:xml="http://www.w3.org/XML/1998/namespace" version="1.1">
  <g>
    <g>
      <path style="fill:#FF0000;fill-opacity:1" d="M15.5859375,16.93359375L10.25390625,29.619140625 15.5859375,42.3046875 15.5859375,16.93359375z M2.34375047683716,16.93359375L2.34375047683716,42.3046875 7.67578172683716,29.619140625 2.34375047683716,16.93359375z M0,7.998046875L1.171875,7.998046875 8.96484375,26.54296875 16.7578125,7.998046875 17.9296875,7.998046875 17.9296875,27.568359375 20.1086406707764,27.183837890625 21.8994140625,26.6162109375 24.4775390625,24.990234375 25.8837890625,22.79296875 26.30859375,20.15625 25.8984375,18.22265625 24.7119140625,16.58203125 22.822265625,15.1318359375 20.302734375,13.828125 20.80078125,11.484375 23.96484375,13.037109375 26.4404296875,15 28.06640625,17.373046875 28.65234375,20.15625 28.3447265625,22.79296875 27.2900390625,25.2392578125 25.3125,27.3486328125 22.236328125,28.9453125 25.3125,30.5712890625 27.2900390625,32.666015625 28.3447265625,35.09765625 28.65234375,37.734375 28.06640625,40.517578125 26.4404296875,42.890625 23.96484375,44.853515625 20.80078125,46.40625 20.302734375,44.0625 22.822265625,42.7734375 24.7119140625,41.3232421875 25.8984375,39.66796875 26.30859375,37.734375 25.8837890625,35.1123046875 24.4775390625,32.9296875 21.8994140625,31.2890625 20.1086406707764,30.71044921875 17.9296875,30.322265625 17.9296875,51.2109375 16.7578125,51.2109375 8.96484375,32.666015625 1.171875,51.2109375 0,51.2109375 0,7.998046875z M14.12109375,0L17.9809551239014,0.659182548522949 21.826171875,2.63671875 20.947265625,4.62890625 17.5341796875,2.87109351158142 14.12109375,2.34375 10.927734375,2.87109351158142 7.76367235183716,4.62890625 6.88476610183716,2.63671875 10.56884765625,0.659182548522949 14.12109375,0z" />
    </g>
  </g>
</svg>