<?xml version="1.0" encoding="utf-8"?>
<!DOCTYPE svg PUBLIC "-//W3C//DTD SVG 1.1//EN" "http://www.w3.org/Graphics/SVG/1.1/DTD/svg11.dtd">
<svg width="28.916015625" height="51.2109375" xmlns="http://www.w3.org/2000/svg" xmlns:xlink="http://www.w3.org/1999/xlink" xmlns:xml="http://www.w3.org/XML/1998/namespace" version="1.1">
  <g>
    <g>
      <path style="fill:#FF0000;fill-opacity:1" d="M26.572265625,7.998046875L28.916015625,7.998046875 28.916015625,33.046875 28.330078125,33.046875 22.3828125,29.1796875 26.89453125,51.2109375 24.55078125,51.2109375 19.130859375,25.6640625 19.951171875,25.1953125 26.572265625,29.1796875 26.572265625,7.998046875z M0.0292973518371582,7.998046875L2.66601610183716,7.998046875 11.103515625,26.572265625 19.482421875,7.998046875 22.119140625,7.998046875 12.421875,29.501953125 22.294921875,51.2109375 19.658203125,51.2109375 11.103515625,32.40234375 2.63671922683716,51.2109375 0,51.2109375 9.78515625,29.501953125 0.0292973518371582,7.998046875z M14.23828125,0L18.0981426239014,0.659182548522949 21.943359375,2.63671875 21.064453125,4.62890625 17.6513671875,2.87109351158142 14.23828125,2.34375 11.044921875,2.87109351158142 7.88085985183716,4.62890625 7.00195360183716,2.63671875 10.68603515625,0.659182548522949 14.23828125,0z" />
    </g>
  </g>
</svg>