<?xml version="1.0" encoding="utf-8"?>
<!DOCTYPE svg PUBLIC "-//W3C//DTD SVG 1.1//EN" "http://www.w3.org/Graphics/SVG/1.1/DTD/svg11.dtd">
<svg width="32.783203125001" height="44.82421875" xmlns="http://www.w3.org/2000/svg" xmlns:xlink="http://www.w3.org/1999/xlink" xmlns:xml="http://www.w3.org/XML/1998/namespace" version="1.1">
  <g>
    <g>
      <path style="fill:#FF0000;fill-opacity:1" d="M10.37109375,19.1015625L10.37109375,32.6953125 13.06640625,31.9189453125 14.8095703125,30.3955078125 15.76171875,28.3154296875 16.0546875,25.927734375 15.76171875,23.5400390625 14.8095703125,21.4599609375 13.06640625,19.9072265625 10.37109375,19.1015625z M8.02734375,19.1015625L5.31738233566284,19.892578125 3.55956983566284,21.4306640625 2.62206983566284,23.5107421875 2.34374952316284,25.927734375 2.62206983566284,28.330078125 3.55956983566284,30.3955078125 5.31738233566284,31.9189453125 8.02734375,32.6953125 8.02734375,19.1015625z M22.08984375,0L22.67578125,0 32.783203125,8.173828125 31.34765625,10.01953125 24.43359375,4.453125 24.43359375,44.82421875 22.08984375,44.82421875 22.08984375,11.865234375 10.37109375,5.68359375 10.37109375,16.7578125 13.857421875,17.783203125 16.3623046875,19.86328125 17.8857421875,22.6904296875 18.3984375,25.927734375 17.8857421875,29.1650390625 16.3623046875,31.962890625 13.857421875,34.013671875 10.37109375,35.0390625 10.37109375,44.82421875 8.02734375,44.82421875 8.02734375,35.0390625 4.52636671066284,34.013671875 2.00683546066284,31.9482421875 0.498046875,29.150390625 0,25.927734375 0.498046875,22.6611328125 2.00683546066284,19.8486328125 4.52636671066284,17.783203125 8.02734375,16.7578125 8.02734375,2.080078125 8.61328125,2.080078125 22.08984375,9.169921875 22.08984375,0z" />
    </g>
  </g>
</svg>