<?xml version="1.0" encoding="utf-8"?>
<!DOCTYPE svg PUBLIC "-//W3C//DTD SVG 1.1//EN" "http://www.w3.org/Graphics/SVG/1.1/DTD/svg11.dtd">
<svg width="28.3593750000009" height="52.822265625" xmlns="http://www.w3.org/2000/svg" xmlns:xlink="http://www.w3.org/1999/xlink" xmlns:xml="http://www.w3.org/XML/1998/namespace" version="1.1">
  <g>
    <g>
      <path style="fill:#FF0000;fill-opacity:1" d="M2.373046875,37.55859375L3.33984375,42.0849609375 5.595703125,46.2451171875 9.19921875,49.2919921875 11.513671875,50.181884765625 14.1796875,50.478515625 16.842041015625,50.181884765625 19.1455078125,49.2919921875 22.734375,46.2451171875 24.990234375,42.0849609375 25.95703125,37.55859375 2.373046875,37.55859375z M14.1796875,22.20703125L11.513671875,22.5073261260986 9.19921875,23.408203125 5.595703125,26.484375 3.33984375,30.673828125 2.373046875,35.21484375 25.95703125,35.21484375 24.990234375,30.673828125 22.734375,26.484375 19.1455078125,23.408203125 16.842041015625,22.5073261260986 14.1796875,22.20703125z M13.0078125,7.998046875L15.3515625,7.998046875 15.3515625,16.787109375 13.0078125,16.787109375 13.0078125,7.998046875z M0.644530773162842,7.998046875L3.046875,7.998046875 4.74609375,13.0078125 7.3974609375,16.728515625 10.6494140625,19.04296875 12.403564453125,19.6362323760986 14.1796875,19.833984375 15.904541015625,19.6362323760986 17.6806640625,19.04296875 21.09375,16.728515625 23.9794921875,13.0078125 25.869140625,7.998046875 28.212890625,7.998046875 26.7919921875,12.3779296875 24.755859375,15.99609375 22.2509765625,18.8232421875 19.39453125,20.830078125 23.203125,23.2470703125 26.015625,26.8359375 27.7587890625,31.34765625 28.359375,36.474609375 28.121337890625,39.766845703125 27.4072265625,42.8466796875 26.2353515625,45.6298828125 24.6240234375,48.0322265625 22.5915508270264,50.013427734375 20.15625,51.533203125 17.34375,52.5 14.1796875,52.822265625 10.99365234375,52.5 8.173828125,51.533203125 5.7421875,50.009765625 3.720703125,48.017578125 2.12036108970642,45.596923828125 0.952147960662842,42.7880859375 0.238036692142487,39.686279296875 0,36.38671875 0.600585460662842,31.259765625 2.34375,26.7626953125 5.1708984375,23.203125 9.0234375,20.830078125 6.2548828125,18.8232421875 3.8525390625,15.9814453125 1.93359375,12.3486328125 0.644530773162842,7.998046875z M13.88671875,0L17.7465801239014,0.659182548522949 21.591796875,2.63671875 20.712890625,4.62890672683716 17.2998046875,2.87109351158142 13.88671875,2.34374976158142 10.693359375,2.87109351158142 7.529296875,4.62890672683716 6.650390625,2.63671875 10.33447265625,0.659182548522949 13.88671875,0z" />
    </g>
  </g>
</svg>