<?xml version="1.0" encoding="utf-8"?>
<!DOCTYPE svg PUBLIC "-//W3C//DTD SVG 1.1//EN" "http://www.w3.org/Graphics/SVG/1.1/DTD/svg11.dtd">
<svg width="29.384765625" height="51.2109375" xmlns="http://www.w3.org/2000/svg" xmlns:xlink="http://www.w3.org/1999/xlink" xmlns:xml="http://www.w3.org/XML/1998/namespace" version="1.1">
  <g>
    <g>
      <path style="fill:#FF0000;fill-opacity:1" d="M7.8515625,7.998046875L10.1953125,7.998046875 10.1953125,31.81640625 9.609375,31.81640625 0,26.25 1.171875,24.345703125 7.8515625,28.125 7.8515625,20.419921875 0,15.99609375 1.025390625,13.974609375 7.8515625,17.724609375 7.8515625,7.998046875z M17.138671875,6.38671875L17.724609375,6.38671875 29.384765625,13.18359375 28.0078125,15.029296875 19.482421875,10.166015625 19.482421875,45.46875 18.896484375,45.46875 5.859375,40.927734375 5.859375,51.2109375 3.515625,51.2109375 3.515625,37.822265625 4.1015625,37.822265625 17.138671875,42.48046875 17.138671875,6.38671875z M12.333984375,0L16.19384765625,0.659182548522949 20.0390625,2.63671875 19.16015625,4.62890625 15.7470703125,2.87109351158142 12.333984375,2.34375 9.140625,2.87109351158142 5.9765625,4.62890625 5.09765625,2.63671875 8.78173732757568,0.659182548522949 12.333984375,0z" />
    </g>
  </g>
</svg>