<?xml version="1.0" encoding="utf-8"?>
<!DOCTYPE svg PUBLIC "-//W3C//DTD SVG 1.1//EN" "http://www.w3.org/Graphics/SVG/1.1/DTD/svg11.dtd">
<svg width="32.080078125" height="44.82421875" xmlns="http://www.w3.org/2000/svg" xmlns:xlink="http://www.w3.org/1999/xlink" xmlns:xml="http://www.w3.org/XML/1998/namespace" version="1.1">
  <g>
    <g>
      <path style="fill:#FF0000;fill-opacity:1" d="M21.38671875,0L21.97265625,0 32.080078125,8.173828125 30.64453125,10.01953125 23.73046875,4.453125 23.73046875,44.82421875 21.38671875,44.82421875 21.38671875,11.865234375 9.66796875,5.68359375 9.66796875,21.826171875 16.9921875,21.826171875 16.9921875,24.169921875 9.66796875,24.169921875 9.66796875,31.640625 16.9921875,31.640625 16.9921875,33.984375 9.66796875,33.984375 9.66796875,44.82421875 7.32421875,44.82421875 7.32421875,33.984375 0,33.984375 0,31.640625 7.32421875,31.640625 7.32421875,24.169921875 0,24.169921875 0,21.826171875 7.32421875,21.826171875 7.32421875,2.080078125 7.91015625,2.080078125 21.38671875,9.169921875 21.38671875,0z" />
    </g>
  </g>
</svg>