<?xml version="1.0" encoding="utf-8"?>
<!DOCTYPE svg PUBLIC "-//W3C//DTD SVG 1.1//EN" "http://www.w3.org/Graphics/SVG/1.1/DTD/svg11.dtd">
<svg width="30.52734375" height="46.435546875" xmlns="http://www.w3.org/2000/svg" xmlns:xlink="http://www.w3.org/1999/xlink" xmlns:xml="http://www.w3.org/XML/1998/namespace" version="1.1">
  <g>
    <g>
      <path style="fill:#FF0000;fill-opacity:1" d="M1.40625,36.97265625L4.6142578125,39.9609375 8.1298828125,42.2021484375 11.748046875,43.6083984375 15.263671875,44.091796875 18.779296875,43.6083984375 22.3828125,42.2021484375 25.8837890625,39.9609375 29.12109375,36.97265625 30.52734375,39.0234375 27.36328125,41.953125 23.6865234375,44.296875 19.6142578125,45.8642578125 15.263671875,46.435546875 10.9130859375,45.8642578125 6.8408203125,44.296875 3.1640625,41.953125 0,39.0234375 1.40625,36.97265625z M22.236328125,28.271484375L24.580078125,28.271484375 24.580078125,37.060546875 22.236328125,37.060546875 22.236328125,28.271484375z M6.474609375,28.271484375L8.818359375,28.271484375 8.818359375,37.060546875 6.474609375,37.060546875 6.474609375,28.271484375z M15.263671875,2.34375L10.660400390625,2.80517578125 7.4560546875,4.189453125 5.577392578125,6.416015625 4.951171875,9.404296875 5.577392578125,12.4108896255493 7.4560546875,14.6337890625 10.660400390625,16.0070819854736 15.263671875,16.46484375 19.8706035614014,16.0034198760986 23.0859375,14.619140625 24.9755840301514,12.3999032974243 25.60546875,9.43359375 24.9755840301514,6.42333984375 23.0859375,4.189453125 19.8706035614014,2.80517578125 15.263671875,2.34375z M15.263671875,0L18.2070903778076,0.15289306640625 20.7678203582764,0.611572265625 22.9458599090576,1.37603759765625 24.7412109375,2.4462890625 26.1447143554688,3.80035400390625 27.147216796875,5.416259765625 27.7487182617188,7.29400634765625 27.94921875,9.43359375 27.22412109375,13.2641611099243 25.048828125,16.142578125 21.4453105926514,18.0029315948486 16.435546875,18.779296875 16.435546875,22.939453125 27.421875,22.939453125 27.421875,25.283203125 16.435546875,25.283203125 16.435546875,39.43359375 14.091796875,39.43359375 14.091796875,25.283203125 3.10546875,25.283203125 3.10546875,22.939453125 14.091796875,22.939453125 14.091796875,18.779296875 9.10400295257568,18.0029315948486 5.5078125,16.142578125 3.33251929283142,13.2568368911743 2.607421875,9.404296875 2.80700659751892,7.265625 3.40576148033142,5.390625 4.4036865234375,3.779296875 5.80078125,2.431640625 7.58972120285034,1.3677978515625 9.76318359375,0.60791015625 12.3211669921875,0.1519775390625 15.263671875,0z" />
    </g>
  </g>
</svg>