<?xml version="1.0" encoding="utf-8"?>
<!DOCTYPE svg PUBLIC "-//W3C//DTD SVG 1.1//EN" "http://www.w3.org/Graphics/SVG/1.1/DTD/svg11.dtd">
<svg width="28.271484375" height="52.822265625" xmlns="http://www.w3.org/2000/svg" xmlns:xlink="http://www.w3.org/1999/xlink" xmlns:xml="http://www.w3.org/XML/1998/namespace" version="1.1">
  <g>
    <g>
      <path style="fill:#FF0000;fill-opacity:1" d="M12.978515625,36.708984375L15.322265625,36.708984375 15.322265625,45.498046875 12.978515625,45.498046875 12.978515625,36.708984375z M6.884765625,26.1328125L6.85546875,27.861328125 6.85546875,29.58984375 7.1484375,37.79296875 7.56957912445068,41.356201171875 8.2470703125,44.4287109375 9.20654201507568,46.951904296875 10.4736328125,48.8671875 12.103271484375,50.07568359375 14.150390625,50.478515625 15.955810546875,50.167236328125 17.4462890625,49.2333984375 18.6547832489014,47.750244140625 19.6142578125,45.791015625 20.3430156707764,43.385009765625 20.859375,40.5615234375 21.38671875,33.92578125 6.884765625,26.1328125z M12.978515625,13.7109375L15.322265625,13.7109375 15.322265625,22.5 12.978515625,22.5 12.978515625,13.7109375z M14.150390625,8.73046875L12.447509765625,8.997802734375 11.0302734375,9.7998046875 9.86572265625,11.085205078125 8.9208984375,12.802734375 7.6318359375,17.4169921875 7.001953125,23.291015625 21.416015625,31.259765625 21.4306640625,30.4248046875 21.4453125,29.58984375 21.15234375,21.38671875 20.7311992645264,17.8271484375 20.0537109375,14.765625 19.0942363739014,12.25341796875 17.8271484375,10.341796875 16.197509765625,9.13330078125 14.150390625,8.73046875z M14.150390625,6.38671922683716L16.541748046875,6.71630859375 18.5595703125,7.70507860183716 20.2258281707764,9.39697265625 21.5625,11.8359375 22.5732402801514,15.0439453125 23.26171875,19.04296875 23.6572246551514,23.8769550323486 23.7890625,29.58984375 23.7744140625,31.083984375 23.759765625,32.548828125 25.927734375,33.720703125 25.927734375,20.33203125 28.271484375,20.33203125 28.271484375,37.32421875 27.685546875,37.32421875 23.642578125,35.15625 23.3056621551514,39.48486328125 22.763671875,43.154296875 21.9909648895264,46.197509765625 20.9619140625,48.6474609375 19.6728496551514,50.51513671875 18.1201171875,51.8115234375 16.285400390625,52.569580078125 14.150390625,52.822265625 11.74072265625,52.49267578125 9.7265625,51.50390625 8.07128810882568,49.808349609375 6.73828125,47.3583984375 5.7275390625,44.139404296875 5.0390625,40.13671875 4.6435546875,35.302734375 4.51171875,29.58984375 4.599609375,24.90234375 2.34375,23.671875 2.34375,36.73828125 0,36.73828125 0,19.74609375 0.5859375,19.74609375 4.74609375,22.060546875 5.1416015625,18.22265625 5.7421875,14.970703125 6.55883693695068,12.275390625 7.6025390625,10.107421875 8.87329006195068,8.4521484375 10.37109375,7.294921875 12.12158203125,6.61376953125 14.150390625,6.38671922683716z M13.916015625,0L17.7758769989014,0.659182548522949 21.62109375,2.63671875 20.7421875,4.62890672683716 17.3291015625,2.87109351158142 13.916015625,2.34374976158142 10.72265625,2.87109351158142 7.55859375,4.62890672683716 6.6796875,2.63671875 10.36376953125,0.659182548522949 13.916015625,0z" />
    </g>
  </g>
</svg>