<?xml version="1.0" encoding="utf-8"?>
<!DOCTYPE svg PUBLIC "-//W3C//DTD SVG 1.1//EN" "http://www.w3.org/Graphics/SVG/1.1/DTD/svg11.dtd">
<svg width="31.904296875" height="44.82421875" xmlns="http://www.w3.org/2000/svg" xmlns:xlink="http://www.w3.org/1999/xlink" xmlns:xml="http://www.w3.org/XML/1998/namespace" version="1.1">
  <g>
    <g>
      <path style="fill:#FF0000;fill-opacity:1" d="M3.31054663658142,0L5.654296875,0 5.709228515625,3.97705078125 5.8740234375,7.470703125 6.18896484375,10.4626474380493 6.6943359375,12.9345703125 7.408447265625,14.8791522979736 8.349609375,16.2890625 9.55078029632568,17.1459980010986 11.044921875,17.431640625 12.5097646713257,17.1606464385986 13.681640625,16.34765625 14.6044921875,14.9890155792236 15.322265625,13.0810546875 15.84228515625,10.6274423599243 16.171875,7.6318359375 16.35498046875,4.090576171875 16.435546875,0 18.779296875,0 18.834228515625,3.97705078125 18.9990234375,7.470703125 19.31396484375,10.4626474380493 19.8193359375,12.9345703125 20.533447265625,14.8791522979736 21.474609375,16.2890625 22.6757793426514,17.1459980010986 24.169921875,17.431640625 25.6640605926514,17.1459980010986 26.865234375,16.2890625 27.8063945770264,14.8791522979736 28.5205078125,12.9345703125 29.02587890625,10.4626474380493 29.3408203125,7.470703125 29.505615234375,3.97705078125 29.560546875,0 31.904296875,0 31.7138671875,7.294921875 31.402587890625,10.5249032974243 30.849609375,13.359375 30.018310546875,15.7543964385986 28.8720703125,17.666015625 27.3376445770264,19.00634765625 25.341796875,19.6875 25.341796875,36.240234375 25.2465801239014,38.4521484375 24.9609375,40.283203125 23.8330078125,42.9345703125 21.97265625,44.384765625 19.39453125,44.82421875 17.9150390625,44.619140625 16.69921875,44.00390625 14.912109375,42.01171875 13.798828125,39.580078125 13.125,37.470703125 15.52734375,36.767578125 16.36962890625,39.276123046875 17.255859375,41.0595703125 18.24462890625,42.125244140625 19.39453125,42.48046875 20.6982421875,42.2607421875 21.85546875,41.3671875 22.67578125,39.4775390625 22.9174785614014,38.060302734375 22.998046875,36.240234375 22.998046875,19.6875 21.0498046875,18.988037109375 19.541015625,17.6513671875 18.40576171875,15.7580585479736 17.578125,13.388671875 16.754150390625,15.7580585479736 15.6298828125,17.6513671875 14.139404296875,18.988037109375 12.216796875,19.6875 12.216796875,36.240234375 12.1215810775757,38.4521484375 11.8359375,40.283203125 10.7080078125,42.9345703125 8.84765625,44.384765625 6.26953125,44.82421875 4.79003858566284,44.619140625 3.57421851158142,44.00390625 1.78710913658142,42.01171875 0.673828125,39.580078125 0,37.470703125 2.40234351158142,36.767578125 3.24462842941284,39.276123046875 4.130859375,41.0595703125 5.11962842941284,42.125244140625 6.26953125,42.48046875 7.5732421875,42.2607421875 8.73046875,41.3671875 9.55078125,39.4775390625 9.79247951507568,38.060302734375 9.873046875,36.240234375 9.873046875,19.6875 7.877197265625,19.00634765625 6.3427734375,17.666015625 5.19653272628784,15.7543964385986 4.365234375,13.359375 3.81225538253784,10.5249032974243 3.50097632408142,7.294921875 3.31054663658142,0z" />
    </g>
  </g>
</svg>