<?xml version="1.0" encoding="utf-8"?>
<!DOCTYPE svg PUBLIC "-//W3C//DTD SVG 1.1//EN" "http://www.w3.org/Graphics/SVG/1.1/DTD/svg11.dtd">
<svg width="26.8359375000006" height="52.822265625" xmlns="http://www.w3.org/2000/svg" xmlns:xlink="http://www.w3.org/1999/xlink" xmlns:xml="http://www.w3.org/XML/1998/namespace" version="1.1">
  <g>
    <g>
      <path style="fill:#FF0000;fill-opacity:1" d="M22.6171875,7.998046875L24.9609375,7.998046875 24.9609375,21.03515625 23.525390625,21.03515625 21.4416484832764,17.70263671875 19.0576171875,15.322265625 16.343994140625,13.89404296875 13.271484375,13.41796875 11.21337890625,13.729248046875 9.2578125,14.6630859375 7.45971584320068,16.146240234375 5.8740234375,18.10546875 4.530029296875,20.5114765167236 3.45703125,23.3349609375 2.71728515625,26.5026874542236 2.373046875,29.94140625 19.248046875,29.94140625 19.248046875,32.28515625 2.34375,32.28515625 2.6513671875,36.544189453125 3.33984375,40.2392578125 4.383544921875,43.36669921875 5.7568359375,45.9228515625 7.44872951507568,47.911376953125 9.4482421875,49.3359375 11.737060546875,50.19287109375 14.296875,50.478515625 17.6696758270264,49.75341796875 20.4638671875,47.9296875 22.7600078582764,45.05859375 24.638671875,41.19140625 26.8359375,42.158203125 24.68994140625,46.732177734375 21.943359375,50.0830078125 18.5668926239014,52.137451171875 14.53125,52.822265625 11.1474609375,52.47802734375 8.203125,51.4453125 5.70190334320068,49.75341796875 3.6474609375,47.431640625 2.047119140625,44.483642578125 0.908203125,40.9130859375 0.227050423622131,36.749267578125 0,32.021484375 0.230712532997131,27.47314453125 0.9228515625,23.37890625 2.054443359375,19.793701171875 3.603515625,16.7724609375 5.55541896820068,14.34814453125 7.8955078125,12.5537109375 10.609130859375,11.444091796875 13.681640625,11.07421875 16.14990234375,11.370849609375 18.45703125,12.2607421875 20.6103496551514,13.648681640625 22.6171875,15.439453125 22.6171875,7.998046875z M13.18359375,0L17.0434551239014,0.659182548522949 20.888671875,2.63671875 20.009765625,4.62890672683716 16.5966796875,2.87109351158142 13.18359375,2.34374976158142 9.990234375,2.87109351158142 6.826171875,4.62890672683716 5.947265625,2.63671875 9.63134765625,0.659182548522949 13.18359375,0z" />
    </g>
  </g>
</svg>