<?xml version="1.0" encoding="utf-8"?>
<!DOCTYPE svg PUBLIC "-//W3C//DTD SVG 1.1//EN" "http://www.w3.org/Graphics/SVG/1.1/DTD/svg11.dtd">
<svg width="26.044921875" height="46.435546875" xmlns="http://www.w3.org/2000/svg" xmlns:xlink="http://www.w3.org/1999/xlink" xmlns:xml="http://www.w3.org/XML/1998/namespace" version="1.1">
  <g>
    <g>
      <path style="fill:#FF0000;fill-opacity:1" d="M15.087890625,27.890625L17.431640625,27.890625 17.431640625,36.6796875 15.087890625,36.6796875 15.087890625,27.890625z M15.087890625,9.7265625L17.431640625,9.7265625 17.431640625,18.515625 15.087890625,18.515625 15.087890625,9.7265625z M21.064453125,0L21.97265625,2.51953125 14.2822265625,5.91796875 11.015625,8.067626953125 8.2177734375,10.4736328125 5.91796827316284,13.1066904067993 4.1455078125,15.9375 2.94799733161926,18.9257831573486 2.373046875,22.03125 26.044921875,22.03125 26.044921875,24.375 2.373046875,24.375 2.94799733161926,27.484130859375 4.1455078125,30.4833984375 5.91796827316284,33.3251953125 8.2177734375,35.9619140625 11.015625,38.37158203125 14.2822265625,40.5322265625 21.97265625,43.916015625 21.064453125,46.435546875 16.5600566864014,44.6337890625 12.48046875,42.451171875 8.88427734375,39.927978515625 5.830078125,37.1044921875 3.36181569099426,33.9990234375 1.5234375,30.6298828125 0.380859375,27.030029296875 0,23.232421875 0.380859375,19.4348163604736 1.5234375,15.8349609375 3.36181569099426,12.4658212661743 5.830078125,9.3603515625 8.88427734375,6.536865234375 12.48046875,4.013671875 16.5600566864014,1.82373046875 21.064453125,0z" />
    </g>
  </g>
</svg>