<?xml version="1.0" encoding="utf-8"?>
<!DOCTYPE svg PUBLIC "-//W3C//DTD SVG 1.1//EN" "http://www.w3.org/Graphics/SVG/1.1/DTD/svg11.dtd">
<svg width="21.533203125" height="51.2109375" xmlns="http://www.w3.org/2000/svg" xmlns:xlink="http://www.w3.org/1999/xlink" xmlns:xml="http://www.w3.org/XML/1998/namespace" version="1.1">
  <g>
    <g>
      <path style="fill:#FF0000;fill-opacity:1" d="M19.189453125,16.46484375L15.2124004364014,16.8896484375 11.77734375,17.75390625 8.880615234375,19.010009765625 6.5185546875,20.6103515625 4.68749904632568,22.5219745635986 3.3837890625,24.7119140625 2.60375905036926,27.1325702667236 2.34375,29.736328125 2.61474537849426,32.40966796875 3.427734375,34.86328125 4.77172756195068,37.056884765625 6.6357421875,38.9501953125 9.01611328125,40.521240234375 11.9091796875,41.748046875 15.3039531707764,42.5830078125 19.189453125,42.978515625 19.189453125,16.46484375z M19.189453125,7.96875L21.533203125,7.96875 21.533203125,51.2109375 19.21875,51.2109375 19.21875,45.498046875 14.6923809051514,45.010986328125 10.78125,44.0185546875 7.481689453125,42.57568359375 4.7900390625,40.7373046875 2.69897389411926,38.53271484375 1.201171875,35.9912109375 0.30029296875,33.167724609375 0,30.1171875 0.30029296875,26.8542499542236 1.201171875,23.8623046875 2.70263600349426,21.1889667510986 4.8046875,18.8818359375 7.503662109375,16.959228515625 10.7958984375,15.439453125 14.6887187957764,14.37744140625 19.189453125,13.828125 19.189453125,7.96875z M10.576171875,0L14.4360332489014,0.659182548522949 18.28125,2.63671875 17.40234375,4.62890625 13.9892578125,2.87109351158142 10.576171875,2.34375 7.3828125,2.87109351158142 4.21875,4.62890625 3.33984375,2.63671875 7.02392530441284,0.659182548522949 10.576171875,0z" />
    </g>
  </g>
</svg>