<?xml version="1.0" encoding="utf-8"?>
<!DOCTYPE svg PUBLIC "-//W3C//DTD SVG 1.1//EN" "http://www.w3.org/Graphics/SVG/1.1/DTD/svg11.dtd">
<svg width="28.359375" height="44.82421875" xmlns="http://www.w3.org/2000/svg" xmlns:xlink="http://www.w3.org/1999/xlink" xmlns:xml="http://www.w3.org/XML/1998/namespace" version="1.1">
  <g>
    <g>
      <path style="fill:#FF0000;fill-opacity:1" d="M26.015625,3.720703125L16.34765625,9.111328125 26.015625,14.443359375 26.015625,3.720703125z M2.34375,3.720703125L2.34375,14.443359375 12.01171875,9.111328125 2.34375,3.720703125z M0,0L0.498046875,0 14.1796875,7.705078125 27.861328125,0 28.359375,0 28.359375,18.369140625 27.861328125,18.369140625 15.3515625,11.1328125 15.3515625,29.794921875 24.9609375,21.62109375 26.30859375,23.466796875 15.8203125,32.2265625 27.1875,41.865234375 26.044921875,43.53515625 15.3515625,34.62890625 15.3515625,44.82421875 13.0078125,44.82421875 13.0078125,34.62890625 2.28515625,43.53515625 1.142578125,41.865234375 12.48046875,32.2265625 2.021484375,23.466796875 3.33984375,21.62109375 13.0078125,29.853515625 13.0078125,11.1328125 0.498046875,18.369140625 0,18.369140625 0,0z" />
    </g>
  </g>
</svg>