<?xml version="1.0" encoding="utf-8"?>
<!DOCTYPE svg PUBLIC "-//W3C//DTD SVG 1.1//EN" "http://www.w3.org/Graphics/SVG/1.1/DTD/svg11.dtd">
<svg width="29.70703125" height="46.435546875" xmlns="http://www.w3.org/2000/svg" xmlns:xlink="http://www.w3.org/1999/xlink" xmlns:xml="http://www.w3.org/XML/1998/namespace" version="1.1">
  <g>
    <g>
      <path style="fill:#FF0000;fill-opacity:1" d="M0,31.5234375L2.34374952316284,31.5234375 2.48290967941284,34.599609375 2.72460889816284,37.20703125 3.09814405441284,39.36767578125 3.63281202316284,41.103515625 4.34326124191284,42.42919921875 5.24414014816284,43.359375 7.70507764816284,44.091796875 10.107421875,43.3740234375 10.986328125,42.45849609375 11.689453125,41.1474609375 12.2314453125,39.4189453125 12.626953125,37.2509765625 12.890625,34.625244140625 13.037109375,31.5234375 15.46875,31.5234375 15.60791015625,34.62158203125 15.849609375,37.236328125 16.22314453125,39.39697265625 16.7578125,41.1328125 17.46826171875,42.454833984375 18.369140625,43.3740234375 20.830078125,44.091796875 23.291015625,43.3740234375 24.1918926239014,42.451171875 24.90234375,41.1181640625 25.4370098114014,39.371337890625 25.810546875,37.20703125 26.05224609375,34.599609375 26.19140625,31.5234375 28.53515625,31.5234375 28.125,37.67578125 27.674560546875,40.228271484375 26.9677734375,42.3779296875 25.9716796875,44.102783203125 24.6533203125,45.380859375 22.9577617645264,46.171875 20.830078125,46.435546875 18.3984375,45.9814453125 16.552734375,44.6923828125 15.1904296875,42.685546875 14.23828125,40.048828125 13.30078125,42.685546875 11.953125,44.6923828125 10.107421875,45.9814453125 7.70507764816284,46.435546875 5.57739210128784,46.171875 3.88183546066284,45.380859375 2.56347608566284,44.102783203125 1.56738233566284,42.3779296875 0.860594868659973,40.228271484375 0.410155773162842,37.67578125 0,31.5234375z M5.47851514816284,4.892578125L5.47851514816284,17.98828125 19.86328125,17.98828125 19.86328125,9.0234375 5.47851514816284,4.892578125z M19.86328125,0L20.44921875,0 29.70703125,6.796875 28.564453125,8.49609375 22.20703125,3.92578125 22.20703125,27.83203125 19.86328125,27.83203125 19.86328125,20.33203125 5.47851514816284,20.33203125 5.47851514816284,27.83203125 3.13476514816284,27.83203125 3.13476514816284,2.021484375 3.72070264816284,2.021484375 19.86328125,6.796875 19.86328125,0z" />
    </g>
  </g>
</svg>