<?xml version="1.0" encoding="utf-8"?>
<!DOCTYPE svg PUBLIC "-//W3C//DTD SVG 1.1//EN" "http://www.w3.org/Graphics/SVG/1.1/DTD/svg11.dtd">
<svg width="10.107421875" height="59.326171875" xmlns="http://www.w3.org/2000/svg" xmlns:xlink="http://www.w3.org/1999/xlink" xmlns:xml="http://www.w3.org/XML/1998/namespace" version="1.1">
  <g>
    <g>
      <path style="fill:#FF0000;fill-opacity:1" d="M2.87109422683716,14.912109375L7.44140625,14.912109375 7.44140625,59.326171875 2.87109422683716,59.326171875 2.87109422683716,14.912109375z M6.85546875,0L8.73046875,0.17578125 8.73046875,3.134765625 7.9248046875,2.98828077316284 7.03125,2.9296875 4.80468702316284,3.47167921066284 4.12353467941284,4.19311809539795 3.896484375,5.2734375 4.15649366378784,6.40136909484863 4.93652296066284,7.20703411102295 6.23657178878784,7.69043159484863 8.056640625,7.8515625 10.107421875,7.8515625 10.107421875,10.693359375 0,10.693359375 0,8.02734375 2.49023389816284,8.02734375 2.51953077316284,7.88085889816284 1.52343726158142,6.26953077316284 1.20117163658142,4.5703125 1.611328125,2.7392578125 2.7685546875,1.2890625 4.5556640625,0.3369140625 6.85546875,0z" />
    </g>
  </g>
</svg>