<?xml version="1.0" encoding="utf-8"?>
<!DOCTYPE svg PUBLIC "-//W3C//DTD SVG 1.1//EN" "http://www.w3.org/Graphics/SVG/1.1/DTD/svg11.dtd">
<svg width="28.2128925323486" height="51.416015625" xmlns="http://www.w3.org/2000/svg" xmlns:xlink="http://www.w3.org/1999/xlink" xmlns:xml="http://www.w3.org/XML/1998/namespace" version="1.1">
  <g>
    <g>
      <path style="fill:#FF0000;fill-opacity:1" d="M9.111328125,11.42578125L12.8173837661743,11.748046875 15.7763681411743,12.5537109375 18.3544940948486,13.6083984375 20.9326190948486,14.677734375 23.8916034698486,15.5126953125 27.5976581573486,15.87890625 26.6601581573486,21.357421875 20.85205078125,23.0712890625 16.0839862823486,24.873046875 12.257080078125,26.7626953125 9.2724609375,28.740234375 7.08251953125,30.81298828125 5.6396484375,32.98828125 4.837646484375,35.2587890625 4.5703125,37.6171875 5.244140625,41.25 6.11572265625,42.83935546875 7.3828125,44.208984375 9.05639553070068,45.333251953125 11.1474609375,46.1865234375 13.6926279067993,46.724853515625 16.7285175323486,46.904296875 22.4267597198486,46.34765625 28.2128925323486,44.765625 28.2128925323486,49.27734375 22.2509784698486,50.9033203125 16.5820331573486,51.416015625 12.454833984375,51.15234375 8.9794921875,50.361328125 6.119384765625,49.119873046875 3.83789086341858,47.5048828125 2.11303734779358,45.556640625 0.922851324081421,43.3154296875 0.230712860822678,40.850830078125 0,38.232421875 0.366211652755737,34.8779296875 1.62597632408142,31.435546875 3.98437523841858,28.0078125 7.6611328125,24.7119140625 10.0707998275757,23.15185546875 12.8759775161743,21.6650390625 16.1169452667236,20.269775390625 19.8339862823486,18.984375 19.8339862823486,18.75 17.2412128448486,17.8125 14.9267587661743,16.9775390625 12.2900390625,16.3916015625 8.701171875,16.171875 4.62890625,16.4794921875 1.31835913658142,17.2265625 1.31835913658142,12.626953125 4.8779296875,11.7626953125 9.111328125,11.42578125z M11.1328125,0L16.5527362823486,0 16.5527362823486,5.302734375 11.1328125,5.302734375 11.1328125,0z" />
    </g>
  </g>
</svg>