<?xml version="1.0" encoding="utf-8"?>
<!DOCTYPE svg PUBLIC "-//W3C//DTD SVG 1.1//EN" "http://www.w3.org/Graphics/SVG/1.1/DTD/svg11.dtd">
<svg width="22.265625" height="38.0859375" xmlns="http://www.w3.org/2000/svg" xmlns:xlink="http://www.w3.org/1999/xlink" xmlns:xml="http://www.w3.org/XML/1998/namespace" version="1.1">
  <g>
    <g>
      <path style="fill:#FF0000;fill-opacity:1" d="M7.412109375,32.783203125L12.83203125,32.783203125 12.83203125,38.0859375 7.412109375,38.0859375 7.412109375,32.783203125z M7.6171875,0L13.037109375,0 17.10205078125,5.064697265625 19.98046875,9.8876953125 21.6943340301514,14.476318359375 22.265625,18.837890625 22.0019512176514,21.48193359375 21.2109375,23.61328125 19.97314453125,25.2978515625 18.369140625,26.6015625 14.2382822036743,28.154296875 9.345703125,28.59375 5.390625,28.41796875 0.937500238418579,27.94921875 0,22.998046875 5.2734375,23.4814453125 7.5146484375,23.602294921875 9.375,23.642578125 13.271484375,23.3349609375 15.8203134536743,22.3828125 17.2119140625,20.7421875 17.63671875,18.369140625 17.420654296875,16.19384765625 16.7724609375,13.9453125 14.5019540786743,9.3310546875 11.2939453125,4.6435546875 7.6171875,0z" />
    </g>
  </g>
</svg>