<?xml version="1.0" encoding="utf-8"?>
<!DOCTYPE svg PUBLIC "-//W3C//DTD SVG 1.1//EN" "http://www.w3.org/Graphics/SVG/1.1/DTD/svg11.dtd">
<svg width="42.802734375" height="49.3359375" xmlns="http://www.w3.org/2000/svg" xmlns:xlink="http://www.w3.org/1999/xlink" xmlns:xml="http://www.w3.org/XML/1998/namespace" version="1.1">
  <g>
    <g>
      <path style="fill:#FF0000;fill-opacity:1" d="M37.236328125,13.7109375L37.236328125,18.45703125 32.021484375,19.3505859375 28.1542949676514,20.5810546875 26.7626934051514,21.357421875 25.751953125,22.2509765625 25.1367168426514,23.272705078125 24.931640625,24.43359375 25.6787109375,26.4697265625 27.5537090301514,27.9931640625 29.9999980926514,29.326171875 32.4462890625,30.8203125 34.3212890625,32.8271484375 35.068359375,35.68359375 34.4970703125,38.671875 32.783203125,41.748046875 29.9560527801514,44.6484375 26.044921875,47.0654296875 21.064453125,48.720703125 15.05859375,49.3359375 11.0852041244507,49.05029296875 7.83691358566284,48.193359375 5.23681592941284,46.849365234375 3.2080078125,45.1025390625 1.717529296875,42.9931640625 0.732422351837158,40.5615234375 0,35.068359375 0.5126953125,29.677734375 1.87500047683716,24.287109375 6.29882764816284,24.287109375 5.11230421066284,29.4287109375 4.59960889816284,34.482421875 5.08300733566284,38.3642578125 6.76757764816284,41.513671875 8.18847560882568,42.71484375 10.048828125,43.623046875 12.4072256088257,44.1943359375 15.322265625,44.384765625 21.2841796875,43.7109375 26.1181640625,41.9384765625 27.9638652801514,40.770263671875 29.3701152801514,39.462890625 30.2600078582764,38.07861328125 30.5566387176514,36.6796875 29.8095684051514,34.8193359375 27.9638652801514,33.427734375 25.5615234375,32.109375 23.1591796875,30.498046875 21.3134765625,28.212890625 20.56640625,24.84375 20.8740215301514,22.510986328125 21.796875,20.4931640625 23.2690410614014,18.7646503448486 25.224609375,17.2998046875 27.6379375457764,16.0839862823486 30.4833965301514,15.1025390625 37.236328125,13.7109375z M39.55078125,0L41.42578125,0.17578125 41.42578125,3.134765625 40.6201171875,2.98828125 39.7265625,2.9296875 37.5,3.4716796875 36.81884765625,4.193115234375 36.591796875,5.2734375 36.851806640625,6.4013671875 37.6318359375,7.20703125 38.931884765625,7.6904296875 40.751953125,7.8515625 42.802734375,7.8515625 42.802734375,10.693359375 32.6953125,10.693359375 32.6953125,8.02734375 35.185546875,8.02734375 35.21484375,7.880859375 34.21875,6.26953125 33.896484375,4.5703125 34.306640625,2.7392578125 35.4638671875,1.2890625 37.2509765625,0.3369140625 39.55078125,0z" />
    </g>
  </g>
</svg>