<?xml version="1.0" encoding="utf-8"?>
<!DOCTYPE svg PUBLIC "-//W3C//DTD SVG 1.1//EN" "http://www.w3.org/Graphics/SVG/1.1/DTD/svg11.dtd">
<svg width="28.2128906250014" height="56.71875" xmlns="http://www.w3.org/2000/svg" xmlns:xlink="http://www.w3.org/1999/xlink" xmlns:xml="http://www.w3.org/XML/1998/namespace" version="1.1">
  <g>
    <g>
      <path style="fill:#FF0000;fill-opacity:1" d="M9.111328125,16.728515625L12.8173837661743,17.05078125 15.7763681411743,17.8564453125 18.3544921875,18.9111328125 20.9326171875,19.98046875 23.8916015625,20.8154296875 27.59765625,21.181640625 26.66015625,26.66015625 20.8520488739014,28.3740234375 16.083984375,30.17578125 12.257080078125,32.0654296875 9.2724609375,34.04296875 7.08251953125,36.11572265625 5.6396484375,38.291015625 4.837646484375,40.5615234375 4.5703125,42.919921875 5.244140625,46.552734375 6.11572265625,48.14208984375 7.3828125,49.51171875 9.05639553070068,50.635986328125 11.1474609375,51.4892578125 13.6926279067993,52.027587890625 16.728515625,52.20703125 22.4267578125,51.650390625 28.212890625,50.068359375 28.212890625,54.580078125 22.2509765625,56.2060546875 16.58203125,56.71875 12.454833984375,56.455078125 8.9794921875,55.6640625 6.119384765625,54.422607421875 3.83788990974426,52.8076171875 2.11303687095642,50.859375 0.922851324081421,48.6181640625 0.230712503194809,46.153564453125 0,43.53515625 0.366210222244263,40.1806640625 1.62597632408142,36.73828125 3.98437523841858,33.310546875 7.6611328125,30.0146484375 10.0707998275757,28.45458984375 12.8759775161743,26.9677734375 16.116943359375,25.572509765625 19.833984375,24.287109375 19.833984375,24.052734375 17.2412109375,23.115234375 14.9267587661743,22.2802734375 12.2900390625,21.6943359375 8.701171875,21.474609375 4.62890625,21.7822265625 1.31835913658142,22.529296875 1.31835913658142,17.9296875 4.8779296875,17.0654296875 9.111328125,16.728515625z M15.3222665786743,0L17.197265625,0.17578125 17.197265625,3.134765625 16.3916015625,2.98828125 15.4980478286743,2.9296875 13.2714853286743,3.4716796875 12.5903329849243,4.193115234375 12.3632822036743,5.2734375 12.6232919692993,6.4013671875 13.4033212661743,7.20703125 14.7033700942993,7.6904296875 16.5234375,7.8515625 18.57421875,7.8515625 18.57421875,10.693359375 8.466796875,10.693359375 8.466796875,8.02734375 10.95703125,8.02734375 10.986328125,7.880859375 9.990234375,6.26953125 9.66796875,4.5703125 10.078125,2.7392578125 11.2353515625,1.2890625 13.0224618911743,0.3369140625 15.3222665786743,0z" />
    </g>
  </g>
</svg>