<?xml version="1.0" encoding="utf-8"?>
<!DOCTYPE svg PUBLIC "-//W3C//DTD SVG 1.1//EN" "http://www.w3.org/Graphics/SVG/1.1/DTD/svg11.dtd">
<svg width="24.814453125" height="32.900390625" xmlns="http://www.w3.org/2000/svg" xmlns:xlink="http://www.w3.org/1999/xlink" xmlns:xml="http://www.w3.org/XML/1998/namespace" version="1.1">
  <g>
    <g>
      <path style="fill:#FF0000;fill-opacity:1" d="M19.39453125,27.59765625L24.814453125,27.59765625 24.814453125,32.900390625 19.39453125,32.900390625 19.39453125,27.59765625z M11.71875,0L16.435546875,0 17.783203125,3.984375 18.779296875,8.1591796875 19.4091796875,12.2900390625 19.62890625,16.142578125 19.3798828125,19.951171875 18.6328125,23.291015625 17.442626953125,26.1474609375 15.8642578125,28.505859375 13.9233388900757,30.35888671875 11.6455078125,31.69921875 9.093017578125,32.51220703125 6.328125,32.783203125 3.251953125,32.4609375 0,31.46484375 0,26.630859375 3.37646484375,27.48779296875 6.240234375,27.7734375 8.53271484375,27.550048828125 10.4296875,26.8798828125 13.1396484375,24.404296875 14.58984375,20.68359375 15.029296875,16.025390625 14.7509765625,11.748046875 14.0185546875,7.67578125 12.9638671875,3.7646484375 11.71875,0z" />
    </g>
  </g>
</svg>