<?xml version="1.0" encoding="utf-8"?>
<!DOCTYPE svg PUBLIC "-//W3C//DTD SVG 1.1//EN" "http://www.w3.org/Graphics/SVG/1.1/DTD/svg11.dtd">
<svg width="70.1953125" height="58.447265625" xmlns="http://www.w3.org/2000/svg" xmlns:xlink="http://www.w3.org/1999/xlink" xmlns:xml="http://www.w3.org/XML/1998/namespace" version="1.1">
  <g>
    <g>
      <path style="fill:#FF0000;fill-opacity:1" d="M55.927734375,24.111328125L51.8408203125,24.7265625 48.1787109375,26.4111328125 44.9853515625,28.9306640625 42.3046875,32.0361328125 40.1806640625,35.478515625 38.642578125,39.0234375 41.53564453125,39.071044921875 44.82421875,39.0966796875 48.5888633728027,39.107666015625 52.91015625,39.111328125 55.8544883728027,39.07470703125 58.41796875,38.96484375 60.596923828125,38.712158203125 62.3876953125,38.2470703125 63.78662109375,37.529296875 64.7900390625,36.5185546875 65.394287109375,35.145263671875 65.595703125,33.33984375 65.41259765625,31.0107421875 64.86328125,29.0625 62.841796875,26.2060546875 59.7802734375,24.609375 55.927734375,24.111328125z M56.689453125,19.16015625L59.9853515625,19.4348163604736 62.783203125,20.2587890625 65.10498046875,21.551513671875 66.97265625,23.232421875 68.40087890625,25.264892578125 69.404296875,27.6123046875 69.99755859375,30.194091796875 70.1953125,32.9296875 70.030517578125,35.44189453125 69.5361328125,37.529296875 67.67578125,40.6494140625 64.8193359375,42.5830078125 61.171875,43.59375 56.9091796875,43.9892578125 52.265625,44.0625 47.8820762634277,44.058837890625 44.1650390625,44.0478515625 41.05224609375,44.02587890625 38.4814453125,43.9892578125 36.412353515625,43.927001953125 34.8046875,43.828125 32.724609375,43.505859375 31.23046875,42.8173828125 30.1171875,41.77734375 29.970703125,41.806640625 29.681396484375,45.479736328125 28.9892578125,48.7646484375 27.8466796875,51.62109375 26.2060546875,54.0087890625 24.0380821228027,55.909423828125 21.3134765625,57.3046875 17.977294921875,58.16162109375 13.9746084213257,58.447265625 10.3161611557007,58.194580078125 7.30957126617432,57.4365234375 4.892578125,56.21337890625 3.00293016433716,54.5654296875 1.61132824420929,52.5 0.688477039337158,50.0244140625 0,44.00390625 0.219726085662842,40.1220703125 0.849609851837158,35.830078125 5.2734375,35.830078125 4.775390625,39.8876953125 4.599609375,43.41796875 4.7314453125,45.98876953125 5.126953125,48.134765625 6.81152248382568,51.2548828125 9.814453125,52.96875 11.8579092025757,53.3642578125 14.2968740463257,53.49609375 17.142333984375,53.316650390625 19.5263671875,52.7783203125 21.4819297790527,51.837158203125 23.0419921875,50.44921875 24.2211875915527,48.585205078125 25.0341796875,46.2158203125 25.5065879821777,43.304443359375 25.6640625,39.814453125 25.400390625,34.4970703125 24.462890625,28.388671875 28.974609375,28.388671875 29.4873046875,31.904296875 29.912109375,35.2734375 30.2490234375,36.5771484375 30.9814453125,37.705078125 32.255859375,38.5107421875 34.21875,38.876953125 36.03515625,34.775390625 38.6572265625,30.3955078125 42.0556640625,26.1767578125 46.201171875,22.587890625 51.09375,20.09765625 53.8110313415527,19.3945331573486 56.689453125,19.16015625z M48.3984375,8.203125L53.818359375,8.203125 53.818359375,13.505859375 48.3984375,13.505859375 48.3984375,8.203125z M38.96484375,8.203125L44.384765625,8.203125 44.384765625,13.505859375 38.96484375,13.505859375 38.96484375,8.203125z M43.681640625,0L49.1015625,0 49.1015625,5.30273485183716 43.681640625,5.30273485183716 43.681640625,0z" />
    </g>
  </g>
</svg>