<?xml version="1.0" encoding="utf-8"?>
<!DOCTYPE svg PUBLIC "-//W3C//DTD SVG 1.1//EN" "http://www.w3.org/Graphics/SVG/1.1/DTD/svg11.dtd">
<svg width="17.255859375" height="44.4140625" xmlns="http://www.w3.org/2000/svg" xmlns:xlink="http://www.w3.org/1999/xlink" xmlns:xml="http://www.w3.org/XML/1998/namespace" version="1.1">
  <g>
    <g>
      <path style="fill:#FF0000;fill-opacity:1" d="M14.00390625,0.087890625L15.87890625,0.263672351837158 15.87890625,3.22265625 15.0732421875,3.076171875 14.1796875,3.017578125 11.953125,3.5595703125 11.27197265625,4.281005859375 11.044921875,5.361328125 11.304931640625,6.4892578125 12.0849609375,7.294921875 13.385009765625,7.7783203125 15.205078125,7.939453125 17.255859375,7.939453125 17.255859375,10.78125 7.14843797683716,10.78125 7.14843797683716,8.115234375 9.638671875,8.115234375 9.66796875,7.96875 8.671875,6.357421875 8.349609375,4.658203125 8.759765625,2.8271484375 9.9169921875,1.376953125 11.7041015625,0.424804210662842 14.00390625,0.087890625z M0,0L4.57031297683716,0 4.57031297683716,44.4140625 0,44.4140625 0,0z" />
    </g>
  </g>
</svg>