<?xml version="1.0" encoding="utf-8"?>
<!DOCTYPE svg PUBLIC "-//W3C//DTD SVG 1.1//EN" "http://www.w3.org/Graphics/SVG/1.1/DTD/svg11.dtd">
<svg width="44.736328125" height="58.857421875" xmlns="http://www.w3.org/2000/svg" xmlns:xlink="http://www.w3.org/1999/xlink" xmlns:xml="http://www.w3.org/XML/1998/namespace" version="1.1">
  <g>
    <g>
      <path style="fill:#FF0000;fill-opacity:1" d="M44.736328125,13.154296875L44.736328125,18.310546875 25.224609375,30.52734375 29.102783203125,32.486572265625 32.5927734375,34.4970703125 35.643310546875,36.573486328125 38.203125,38.73046875 40.25390625,40.986328125 41.77734375,43.359375 42.7221641540527,45.87158203125 43.037109375,48.544921875 42.8173828125,50.712890625 41.8798828125,53.2763671875 39.7998046875,55.751953125 38.199462890625,56.81396484375 36.123046875,57.65625 33.336181640625,58.30078125 30.0732421875,58.65234375 26.2390117645264,58.80615234375 21.73828125,58.857421875 15.4394521713257,58.76953125 10.3271484375,58.359375 6.298828125,57.392578125 3.251953125,55.634765625 1.69189429283142,53.86962890625 0.703125476837158,51.796875 0,46.9921875 0.263671875,43.564453125 0.849609375,40.4296875 5.361328125,40.4296875 4.8486328125,43.1689453125 4.599609375,46.23046875 5.0537109375,49.4384765625 5.738525390625,50.782470703125 6.884765625,51.9140625 8.8037109375,52.8515625 11.7626943588257,53.466796875 13.7622060775757,53.668212890625 16.1572265625,53.8037109375 19.010009765625,53.880615234375 22.3828125,53.90625 26.513671875,53.8916015625 29.8681640625,53.7890625 32.5634765625,53.5546875 34.6875,53.14453125 36.50390625,52.4267578125 37.646484375,51.4453125 38.232421875,50.244140625 38.408203125,48.837890625 38.089599609375,46.636962890625 37.1337890625,44.5458984375 35.5810546875,42.528076171875 33.4716796875,40.546875 30.831298828125,38.587646484375 27.685546875,36.6357421875 24.0747032165527,34.654541015625 20.0390625,32.607421875 20.0390625,29.150390625 44.736328125,13.154296875z M44.736328125,4.072265625L44.736328125,8.408203125 20.0390625,24.404296875 20.0390625,20.068359375 44.736328125,4.072265625z M31.23046875,0L36.650390625,0 36.650390625,5.30273485183716 31.23046875,5.30273485183716 31.23046875,0z M21.796875,0L27.216796875,0 27.216796875,5.30273485183716 21.796875,5.30273485183716 21.796875,0z" />
    </g>
  </g>
</svg>