<?xml version="1.0" encoding="utf-8"?>
<!DOCTYPE svg PUBLIC "-//W3C//DTD SVG 1.1//EN" "http://www.w3.org/Graphics/SVG/1.1/DTD/svg11.dtd">
<svg width="44.736328125" height="45.703125" xmlns="http://www.w3.org/2000/svg" xmlns:xlink="http://www.w3.org/1999/xlink" xmlns:xml="http://www.w3.org/XML/1998/namespace" version="1.1">
  <g>
    <g>
      <path style="fill:#FF0000;fill-opacity:1" d="M37.412109375,10.224609375L35.595703125,10.95703125 34.86328125,12.7734375 35.595703125,14.5166015625 37.412109375,15.234375 39.1552734375,14.5166015625 39.873046875,12.7734375 39.1552734375,10.95703125 37.412109375,10.224609375z M44.736328125,0L44.736328125,5.15625 39.0588798522949,8.7110481262207 40.693359375,9.3896484375 41.72607421875,10.916748046875 42.0703125,12.7734375 41.72607421875,14.5459003448486 40.693359375,16.0546875 39.1845703125,17.0874042510986 37.412109375,17.431640625 35.555419921875,17.0874042510986 34.0283203125,16.0546875 33.006591796875,14.5459003448486 32.666015625,12.7734375 32.6981239318848,12.6936836242676 25.224609375,17.373046875 29.102783203125,19.3322772979736 32.5927734375,21.3427734375 35.643310546875,23.419189453125 38.203125,25.576171875 40.25390625,27.83203125 41.77734375,30.205078125 42.7221641540527,32.71728515625 43.037109375,35.390625 42.8173828125,37.55859375 41.8798828125,40.1220703125 39.7998046875,42.59765625 38.199462890625,43.65966796875 36.123046875,44.501953125 33.336181640625,45.146484375 30.0732421875,45.498046875 26.2390117645264,45.65185546875 21.73828125,45.703125 15.4394521713257,45.615234375 10.3271484375,45.205078125 6.298828125,44.23828125 3.251953125,42.48046875 1.69189417362213,40.71533203125 0.703125,38.642578125 0,33.837890625 0.263672351837158,30.41015625 0.849609851837158,27.275390625 5.361328125,27.275390625 4.8486328125,30.0146484375 4.599609375,33.076171875 5.0537109375,36.2841796875 5.738525390625,37.628173828125 6.884765625,38.759765625 8.8037109375,39.697265625 11.7626943588257,40.3125 13.7622060775757,40.513916015625 16.1572265625,40.6494140625 19.010009765625,40.726318359375 22.3828125,40.751953125 26.513671875,40.7373046875 29.8681640625,40.634765625 32.5634765625,40.400390625 34.6875,39.990234375 36.50390625,39.2724609375 37.646484375,38.291015625 38.232421875,37.08984375 38.408203125,35.68359375 38.089599609375,33.482666015625 37.1337890625,31.3916015625 35.5810546875,29.373779296875 33.4716796875,27.392578125 30.831298828125,25.433349609375 27.685546875,23.4814453125 24.0747032165527,21.500244140625 20.0390625,19.453125 20.0390625,15.99609375 44.736328125,0z" />
    </g>
  </g>
</svg>