<?xml version="1.0" encoding="utf-8"?>
<!DOCTYPE svg PUBLIC "-//W3C//DTD SVG 1.1//EN" "http://www.w3.org/Graphics/SVG/1.1/DTD/svg11.dtd">
<svg width="35.15625" height="56.77734375" xmlns="http://www.w3.org/2000/svg" xmlns:xlink="http://www.w3.org/1999/xlink" xmlns:xml="http://www.w3.org/XML/1998/namespace" version="1.1">
  <g>
    <g>
      <path style="fill:#FF0000;fill-opacity:1" d="M24.55078125,26.455078125L22.8955078125,27.01171875 21.4453125,28.447265625 20.4052734375,30.439453125 20.009765625,32.666015625 20.5078125,34.6142578125 21.8408203125,36.064453125 23.759765625,36.97265625 26.015625,37.294921875 28.3007793426514,37.1044921875 30.4687480926514,36.328125 30.2050762176514,34.5849609375 29.5751934051514,32.4755859375 28.6523418426514,30.3076171875 27.4658184051514,28.3740234375 26.07421875,26.982421875 24.55078125,26.455078125z M24.814453125,21.38671875L26.8322734832764,21.6943359375 28.6669902801514,22.6171875 30.3698711395264,24.16259765625 31.9921855926514,26.337890625 33.369140625,29.091796875 34.3505859375,32.3291015625 34.951171875,35.9033203125 35.15625,39.638671875 34.88525390625,43.71826171875 34.072265625,47.2265625 32.70263671875,50.174560546875 30.7617168426514,52.5732421875 28.2238750457764,54.42626953125 25.0634765625,55.7373046875 21.2658672332764,56.517333984375 16.81640625,56.77734375 12.4768056869507,56.539306640625 8.8916015625,55.8251953125 5.99121046066284,54.656982421875 3.70605421066284,53.056640625 2.00683546066284,51.024169921875 0.8642578125,48.5595703125 0.216064453125,45.677490234375 0,42.392578125 0.2197265625,38.49609375 0.849609375,34.16015625 5.27343702316284,34.16015625 4.77539014816284,38.1884765625 4.59960889816284,41.6015625 4.75707960128784,44.17236328125 5.22949171066284,46.318359375 6.06811475753784,48.076171875 7.32421827316284,49.482421875 9.02709770202637,50.54443359375 11.2060546875,51.26953125 13.912353515625,51.68701171875 17.197265625,51.826171875 19.9987773895264,51.719970703125 22.3681640625,51.4013671875 25.986328125,50.244140625 28.3154277801514,48.486328125 29.6630840301514,46.2744140625 30.3076152801514,43.7548828125 30.5273418426514,41.07421875 28.0957012176514,41.88720703125 25.48828125,42.158203125 21.7529296875,41.5576171875 18.57421875,39.7998046875 16.3623046875,36.97265625 15.736083984375,35.17822265625 15.52734375,33.134765625 16.23046875,29.1943359375 18.1787109375,25.3857421875 21.123046875,22.5146484375 22.8955059051514,21.668701171875 24.814453125,21.38671875z M26.19140625,8.203125L31.6113262176514,8.203125 31.6113262176514,13.505859375 26.19140625,13.505859375 26.19140625,8.203125z M16.7578125,8.203125L22.177734375,8.203125 22.177734375,13.505859375 16.7578125,13.505859375 16.7578125,8.203125z M21.474609375,0L26.89453125,0 26.89453125,5.302734375 21.474609375,5.302734375 21.474609375,0z" />
    </g>
  </g>
</svg>