<?xml version="1.0" encoding="utf-8"?>
<!DOCTYPE svg PUBLIC "-//W3C//DTD SVG 1.1//EN" "http://www.w3.org/Graphics/SVG/1.1/DTD/svg11.dtd">
<svg width="64.74609375" height="58.271484375" xmlns="http://www.w3.org/2000/svg" xmlns:xlink="http://www.w3.org/1999/xlink" xmlns:xml="http://www.w3.org/XML/1998/namespace" version="1.1">
  <g>
    <g>
      <path style="fill:#FF0000;fill-opacity:1" d="M32.431640625,49.248046875L31.0400409698486,49.5263671875 29.8974609375,50.2880859375 29.1357421875,51.4306640625 28.857421875,52.822265625 29.1357421875,54.2138671875 29.8974609375,55.3564453125 31.0400409698486,56.1181640625 32.431640625,56.396484375 33.8232421875,56.1181640625 34.9658203125,55.3564453125 35.7275390625,54.2138671875 36.005859375,52.822265625 35.7275390625,51.4306640625 34.9658203125,50.2880859375 33.8232421875,49.5263671875 32.431640625,49.248046875z M37.705078125,6.73828125L37.0166015625,8.408203125 35.830078125,9.7265625 34.2626953125,10.5908203125 32.431640625,10.8984375 30.615234375,10.5908203125 29.0625,9.7412109375 27.861328125,8.4521484375 27.158203125,6.826171875 22.701416015625,7.569580078125 18.6474609375,8.8037109375 14.981689453125,10.521240234375 11.689453125,12.71484375 8.1903076171875,16.065673828125 5.69091796875,19.9072265625 4.1912841796875,24.239501953125 3.69140672683716,29.0625 4.18212890625,33.8818359375 5.654296875,38.203125 8.10791015625,42.0263671875 11.54296875,45.3515625 14.908447265625,47.581787109375 18.6181640625,49.2919921875 22.708740234375,50.504150390625 27.216796875,51.240234375 27.978515625,49.7021484375 29.150390625,48.4716796875 30.6591796875,47.666015625 32.431640625,47.373046875 34.189453125,47.666015625 35.712890625,48.4716796875 36.884765625,49.7021484375 37.646484375,51.240234375 42.22412109375,50.5224609375 46.34765625,49.365234375 50.0463829040527,47.74658203125 53.349609375,45.64453125 56.7663536071777,42.38525390625 59.1650390625,38.583984375 60.5822715759277,34.189453125 61.0546875,29.150390625 60.5804405212402,24.0399169921875 59.1577110290527,19.54833984375 56.7864952087402,15.6756591796875 53.466796875,12.421875 50.2185020446777,10.31982421875 46.5087852478027,8.671875 42.3376426696777,7.47802734375 37.705078125,6.73828125z M32.431640625,1.87499988079071L31.0400409698486,2.15331983566284 29.8974609375,2.9150390625 29.1357421875,4.05761671066284 28.857421875,5.44921827316284 29.1357421875,6.8408203125 29.8974609375,7.9833984375 31.0400409698486,8.7451171875 32.431640625,9.0234375 33.8232421875,8.7451171875 34.9658203125,7.9833984375 35.7275390625,6.8408203125 36.005859375,5.44921827316284 35.7275390625,4.05761671066284 34.9658203125,2.9150390625 33.8232421875,2.15331983566284 32.431640625,1.87499988079071z M32.431640625,0L34.141845703125,0.26001250743866 35.6396484375,1.04003894329071 36.822509765625,2.222900390625 37.587890625,3.69140577316284 42.8887901306152,4.4732666015625 47.7172813415527,5.85205078125 52.0733604431152,7.8277587890625 55.95703125,10.400390625 59.80224609375,14.1229248046875 62.548828125,18.37646484375 64.19677734375,23.1610107421875 64.74609375,28.4765625 64.193115234375,34.18212890625 62.5341796875,39.2578125 59.769287109375,43.70361328125 55.8984375,47.51953125 52.0458946228027,50.068359375 47.75390625,52.03125 42.978515625,53.4228515625 37.67578125,54.2578125 36.943359375,55.869140625 35.7568359375,57.12890625 34.21875,57.9638671875 32.431640625,58.271484375 30.64453125,57.9638671875 29.1064453125,57.12890625 27.919921875,55.869140625 27.1875,54.287109375 21.8389892578125,53.4722900390625 16.98486328125,52.08251953125 12.6251220703125,50.1177978515625 8.759765625,47.578125 4.9273681640625,43.8446044921875 2.18994140625,39.58740234375 0.5474853515625,34.8065185546875 0,29.501953125 0.552978515625,23.8568115234375 2.2119140625,18.81591796875 4.976806640625,14.3792724609375 8.84765625,10.546875 12.645263671875,8.001708984375 16.9775390625,6.0205078125 21.844482421875,4.603271484375 27.24609375,3.74999952316284 27.9931621551514,2.255859375 29.1796875,1.05468738079071 30.69580078125,0.26367461681366 32.431640625,0z" />
    </g>
  </g>
</svg>