<?xml version="1.0" encoding="utf-8"?>
<!DOCTYPE svg PUBLIC "-//W3C//DTD SVG 1.1//EN" "http://www.w3.org/Graphics/SVG/1.1/DTD/svg11.dtd">
<svg width="48.3691406250003" height="39.9609375" xmlns="http://www.w3.org/2000/svg" xmlns:xlink="http://www.w3.org/1999/xlink" xmlns:xml="http://www.w3.org/XML/1998/namespace" version="1.1">
  <g>
    <g>
      <path style="fill:#FF0000;fill-opacity:1" d="M18.57421875,14.150390625L21.357421875,18.134765625 17.98828125,20.68359375 14.7802724838257,22.7490234375 11.8359375,24.43359375 9.2578125,25.83984375 7.3388671875,26.9677734375 5.859375,28.0517578125 4.9072265625,29.1796875 4.5703125,30.46875 4.822998046875,31.69921875 5.5810546875,32.6953125 6.87744140625,33.482666015625 8.7451171875,34.0869140625 11.1987295150757,34.522705078125 14.2529287338257,34.8046875 17.947998046875,34.95849609375 22.32421875,35.009765625 29.501953125,34.9072265625 36.4306640625,34.62890625 42.8173828125,34.21875 48.369140625,33.720703125 48.369140625,38.5546875 41.3818359375,39.169921875 34.21875,39.609375 27.509765625,39.873046875 21.85546875,39.9609375 17.801513671875,39.89501953125 14.2529287338257,39.697265625 11.1730947494507,39.36767578125 8.525390625,38.90625 6.29150390625,38.316650390625 4.453125,37.6025390625 1.83105492591858,35.8154296875 0.424804449081421,33.5595703125 0,30.849609375 0.571288824081421,27.919921875 2.12402367591858,25.48828125 4.453125,23.3935546875 7.353515625,21.474609375 10.13671875,19.833984375 13.0224599838257,18.134765625 15.8789052963257,16.2744140625 18.57421875,14.150390625z M10.6640625,0L12.5390625,0.17578125 12.5390625,3.134765625 11.7333984375,2.98828125 10.83984375,2.9296875 8.61328125,3.4716796875 7.93212890625,4.193115234375 7.705078125,5.2734375 7.965087890625,6.40136766433716 8.7451171875,7.20703220367432 10.045166015625,7.69043064117432 11.865234375,7.8515625 13.9160146713257,7.8515625 13.9160146713257,10.693359375 3.80859398841858,10.693359375 3.80859398841858,8.02734375 6.298828125,8.02734375 6.328125,7.880859375 5.33203125,6.26953125 5.009765625,4.5703125 5.419921875,2.7392578125 6.5771484375,1.2890625 8.3642578125,0.3369140625 10.6640625,0z" />
    </g>
  </g>
</svg>