<?xml version="1.0" encoding="utf-8"?>
<!DOCTYPE svg PUBLIC "-//W3C//DTD SVG 1.1//EN" "http://www.w3.org/Graphics/SVG/1.1/DTD/svg11.dtd">
<svg width="49.6875" height="47.40234375" xmlns="http://www.w3.org/2000/svg" xmlns:xlink="http://www.w3.org/1999/xlink" xmlns:xml="http://www.w3.org/XML/1998/namespace" version="1.1">
  <g>
    <g>
      <path style="fill:#FF0000;fill-opacity:1" d="M39.169921875,26.455078125L37.5,27.01171875 36.03515625,28.447265625 35.009765625,30.439453125 34.62890625,32.666015625 34.98046875,34.51171875 36.298828125,36.416015625 38.9501953125,38.4814453125 40.872802734375,39.591064453125 43.271484375,40.78125 44.6630859375,38.9501953125 45.087890625,36.064453125 44.8681640625,34.1748046875 44.23828125,32.0654296875 43.271484375,29.9853515625 42.0556640625,28.18359375 40.6640625,26.923828125 39.169921875,26.455078125z M39.43359375,21.38671875L41.455078125,21.6870136260986 43.30078125,22.587890625 45.0146446228027,24.1259765625 46.640625,26.337890625 47.7978515625,28.388671875 48.7646484375,30.6884765625 49.4384765625,33.22265625 49.6875,35.947265625 49.4750938415527,38.5400390625 48.837890625,40.693359375 46.5234375,43.9013671875 43.0517578125,45.87890625 38.7451171875,46.9189453125 33.92578125,47.3291015625 28.9160175323486,47.40234375 23.49609375,47.40234375 19.7680644989014,47.384033203125 16.435546875,47.3291015625 10.810546875,46.9482421875 6.45996141433716,45.9814453125 3.25195360183716,44.1796875 1.69189429283142,42.432861328125 0.703125,40.3564453125 0,35.537109375 0.263671875,32.109375 0.849609375,28.974609375 5.36132860183716,28.974609375 4.84863328933716,31.7138671875 4.59960985183716,34.775390625 5.06835985183716,38.02734375 5.75683641433716,39.38232421875 6.88476610183716,40.458984375 8.3935546875,41.2646484375 10.3857421875,41.8212890625 13.1396484375,42.158203125 16.93359375,42.3486328125 22.0458984375,42.4365234375 25.1843242645264,42.447509765625 28.7695331573486,42.451171875 33.515625,42.421875 37.32421875,42.3046875 37.3828125,42.12890625 35.4052734375,41.220703125 33.80859375,40.25390625 31.5820331573486,38.1298828125 30.4541034698486,35.7568359375 30.1464862823486,33.134765625 30.8496112823486,29.1943359375 32.7978515625,25.3857421875 35.7421875,22.5146484375 37.5146484375,21.6687030792236 39.43359375,21.38671875z M40.810546875,8.203125L46.23046875,8.203125 46.23046875,13.505859375 40.810546875,13.505859375 40.810546875,8.203125z M31.3769550323486,8.203125L36.796875,8.203125 36.796875,13.505859375 31.3769550323486,13.505859375 31.3769550323486,8.203125z M40.810546875,0L46.23046875,0 46.23046875,5.302734375 40.810546875,5.302734375 40.810546875,0z M31.3769550323486,0L36.796875,0 36.796875,5.302734375 31.3769550323486,5.302734375 31.3769550323486,0z" />
    </g>
  </g>
</svg>