<?xml version="1.0" encoding="utf-8"?>
<!DOCTYPE svg PUBLIC "-//W3C//DTD SVG 1.1//EN" "http://www.w3.org/Graphics/SVG/1.1/DTD/svg11.dtd">
<svg width="30.322265625" height="47.724609375" xmlns="http://www.w3.org/2000/svg" xmlns:xlink="http://www.w3.org/1999/xlink" xmlns:xml="http://www.w3.org/XML/1998/namespace" version="1.1">
  <g>
    <g>
      <path style="fill:#FF0000;fill-opacity:1" d="M15.1757822036743,40.517578125L13.3593759536743,41.25 12.6269540786743,43.06640625 13.3593759536743,44.8095703125 15.1757822036743,45.52734375 16.9189453125,44.8095703125 17.63671875,43.06640625 16.9189453125,41.25 15.1757822036743,40.517578125z M24.755859375,12.041015625L29.326171875,12.041015625 30.0732421875,17.28515625 30.322265625,22.177734375 30.120849609375,26.15478515625 29.5166015625,29.70703125 28.4326171875,32.794189453125 26.7919921875,35.3759765625 24.569091796875,37.437744140625 21.73828125,38.96484375 18.5178756713867,39.8321342468262 19.833984375,43.06640625 19.48974609375,44.8388671875 18.45703125,46.34765625 16.9482421875,47.38037109375 15.1757822036743,47.724609375 13.3190927505493,47.38037109375 11.7919931411743,46.34765625 10.770263671875,44.8388671875 10.4296884536743,43.06640625 11.711932182312,39.881477355957 7.30957126617432,39.2138671875 4.89257907867432,37.99072265625 3.00293016433716,36.3427734375 1.61132860183716,34.27734375 0.688477039337158,31.8017578125 0,25.78125 0.219727039337158,21.8994140625 0.849609851837158,17.607421875 5.27343845367432,17.607421875 4.77539157867432,21.6650390625 4.59961032867432,25.1953125 4.73144626617432,27.76611328125 5.12695407867432,29.912109375 6.81152439117432,33.0322265625 9.81445407867432,34.74609375 11.8579111099243,35.1416015625 14.2968759536743,35.2734375 17.14599609375,35.093994140625 19.541015625,34.5556640625 21.51123046875,33.614501953125 23.0859375,32.2265625 24.276123046875,30.362548828125 25.0927734375,27.9931640625 25.565185546875,25.081787109375 25.72265625,21.591796875 25.4736328125,17.2705078125 24.755859375,12.041015625z M12.4218759536743,0L17.841796875,0 17.841796875,5.302734375 12.4218759536743,5.302734375 12.4218759536743,0z" />
    </g>
  </g>
</svg>