<?xml version="1.0" encoding="utf-8"?>
<!DOCTYPE svg PUBLIC "-//W3C//DTD SVG 1.1//EN" "http://www.w3.org/Graphics/SVG/1.1/DTD/svg11.dtd">
<svg width="39.638671875" height="59.091796875" xmlns="http://www.w3.org/2000/svg" xmlns:xlink="http://www.w3.org/1999/xlink" xmlns:xml="http://www.w3.org/XML/1998/namespace" version="1.1">
  <g>
    <g>
      <path style="fill:#FF0000;fill-opacity:1" d="M25.0195331573486,25.224609375L25.0195331573486,27.94921875 22.646484375,28.3776874542236 21.0351581573486,28.9599609375 20.1123046875,29.6960468292236 19.8046894073486,30.5859375 20.2880878448486,31.5234375 21.4453144073486,32.197265625 22.3535175323486,32.6953125 23.2031269073486,33.33984375 23.8183612823486,34.2333984375 24.0527362823486,35.478515625 23.5107440948486,37.294921875 21.8554706573486,38.9501953125 19.0429706573486,40.2099609375 15.0292987823486,40.83984375 15.0292987823486,38.115234375 17.5543212890625,37.84423828125 19.35791015625,37.353515625 20.4400634765625,36.64306640625 20.8007831573486,35.712890625 20.3466815948486,34.86328125 19.2773456573486,34.21875 18.3251972198486,33.69140625 17.4462909698486,33.0029296875 16.8017597198486,32.0361328125 16.5527362823486,30.673828125 17.2265644073486,28.65234375 19.0576190948486,27.0556640625 21.7529315948486,25.9130859375 25.0195331573486,25.224609375z M35.068359375,14.033203125L39.638671875,14.033203125 39.638671875,48.310546875 39.473876953125,50.7421875 38.9794921875,52.763671875 37.119140625,55.78125 34.2626953125,57.6416015625 30.6152362823486,58.623046875 26.3671894073486,59.0185546875 21.7382831573486,59.091796875 15.4394550323486,59.00390625 10.3271484375,58.59375 6.29882860183716,57.626953125 3.25195360183716,55.869140625 1.69189453125,54.10400390625 0.703125,52.03125 0,47.2265625 0.263672351837158,43.798828125 0.849609375,40.6640625 5.36132860183716,40.6640625 4.84863328933716,43.4033203125 4.59960985183716,46.46484375 5.05371141433716,49.6728515625 5.73852586746216,51.016845703125 6.88476610183716,52.1484375 8.7890625,53.0859375 11.7334003448486,53.701171875 13.7329120635986,53.902587890625 16.1279315948486,54.0380859375 18.9880390167236,54.114990234375 22.3828144073486,54.140625 25.37109375,54.10400390625 27.9492206573486,53.994140625 30.1245136260986,53.734130859375 31.9042987823486,53.2470703125 33.28857421875,52.49267578125 34.27734375,51.4306640625 34.87060546875,49.991455078125 35.068359375,48.10546875 35.068359375,14.033203125z M22.8808612823486,8.203125L28.3007831573486,8.203125 28.3007831573486,13.505859375 22.8808612823486,13.505859375 22.8808612823486,8.203125z M13.4472675323486,8.203125L18.8671894073486,8.203125 18.8671894073486,13.505859375 13.4472675323486,13.505859375 13.4472675323486,8.203125z M18.1640644073486,0L23.5839862823486,0 23.5839862823486,5.302734375 18.1640644073486,5.302734375 18.1640644073486,0z" />
    </g>
  </g>
</svg>