<?xml version="1.0" encoding="utf-8"?>
<!DOCTYPE svg PUBLIC "-//W3C//DTD SVG 1.1//EN" "http://www.w3.org/Graphics/SVG/1.1/DTD/svg11.dtd">
<svg width="24.638671875" height="56.77734375" xmlns="http://www.w3.org/2000/svg" xmlns:xlink="http://www.w3.org/1999/xlink" xmlns:xml="http://www.w3.org/XML/1998/namespace" version="1.1">
  <g>
    <g>
      <path style="fill:#FF0000;fill-opacity:1" d="M14.033203125,26.455078125L12.3779296875,27.01171875 10.927734375,28.447265625 9.8876953125,30.439453125 9.4921875,32.666015625 9.990234375,34.6142578125 11.3232421875,36.064453125 13.2421875,36.97265625 15.498046875,37.294921875 17.783203125,37.1044921875 19.951171875,36.328125 19.6875,34.5849609375 19.0576171875,32.4755859375 18.134765625,30.3076171875 16.9482421875,28.3740234375 15.556640625,26.982421875 14.033203125,26.455078125z M14.296875,21.38671875L16.314697265625,21.6943359375 18.1494140625,22.6171875 19.852294921875,24.16259765625 21.474609375,26.337890625 22.85888671875,29.073486328125 23.84765625,32.2998046875 24.4409160614014,35.870361328125 24.638671875,39.638671875 24.4482402801514,42.960205078125 23.876953125,46.1279296875 22.88818359375,49.039306640625 21.4453125,51.591796875 19.5263671875,53.72314453125 17.109375,55.37109375 14.1577138900757,56.42578125 10.634765625,56.77734375 5.44921875,56.220703125 2.8271484375,55.46630859375 0,54.31640625 0,49.453125 3.006591796875,50.548095703125 5.6982421875,51.2548828125 10.634765625,51.767578125 13.2824697494507,51.52587890625 15.3662109375,50.80078125 16.97021484375,49.69482421875 18.1787109375,48.310546875 19.5703125,44.8828125 20.009765625,41.07421875 17.5341796875,41.88720703125 14.970703125,42.158203125 11.2353515625,41.5576171875 8.056640625,39.7998046875 5.84472703933716,36.97265625 5.218505859375,35.17822265625 5.00976610183716,33.134765625 5.712890625,29.1943359375 7.6611328125,25.3857421875 10.60546875,22.5146484375 12.3779287338257,21.668701171875 14.296875,21.38671875z M15.76171875,8.203125L21.181640625,8.203125 21.181640625,13.505859375 15.76171875,13.505859375 15.76171875,8.203125z M6.328125,8.203125L11.748046875,8.203125 11.748046875,13.505859375 6.328125,13.505859375 6.328125,8.203125z M11.044921875,0L16.46484375,0 16.46484375,5.302734375 11.044921875,5.302734375 11.044921875,0z" />
    </g>
  </g>
</svg>