<?xml version="1.0" encoding="utf-8"?>
<!DOCTYPE svg PUBLIC "-//W3C//DTD SVG 1.1//EN" "http://www.w3.org/Graphics/SVG/1.1/DTD/svg11.dtd">
<svg width="39.404296875" height="44.501953125" xmlns="http://www.w3.org/2000/svg" xmlns:xlink="http://www.w3.org/1999/xlink" xmlns:xml="http://www.w3.org/XML/1998/namespace" version="1.1">
  <g>
    <g>
      <path style="fill:#FF0000;fill-opacity:1" d="M25.8984375,4.04296875L22.15576171875,4.76440572738647 19.189453125,6.9287109375 17.255859375,10.206298828125 16.611328125,14.267578125 16.611328125,26.66015625 23.291015625,26.66015625 25.9973125457764,26.4688110351563 28.3154277801514,25.894775390625 30.2453594207764,24.9380493164063 31.787109375,23.5986328125 33.80859375,19.852294921875 34.482421875,14.736328125 33.90380859375,10.2685546875 32.16796875,6.884765625 29.4433574676514,4.75341939926147 25.8984375,4.04296875z M27.099609375,0L29.81689453125,0.250855565071106 32.2265625,1.00341939926147 34.32861328125,2.25769138336182 36.123046875,4.013671875 37.55859375,6.1944580078125 38.583984375,8.72314453125 39.19921875,11.5997314453125 39.404296875,14.82421875 39.1378784179688,18.3673095703125 38.338623046875,21.49658203125 37.0065307617188,24.2120361328125 35.1416015625,26.513671875 32.7804565429688,28.3465576171875 29.959716796875,29.65576171875 26.6793823242188,30.4412841796875 22.939453125,30.703125 16.611328125,30.703125 16.611328125,44.501953125 11.806640625,44.501953125 11.806640625,30.703125 10.13671875,30.703125 7.5439453125,31.00341796875 5.625,31.904296875 4.4384765625,33.40576171875 4.04296875,35.5078125 4.248046875,37.03125 4.86328077316284,38.671875 0.527344167232513,38.671875 0.161132827401161,37.1630859375 0,35.21484375 0.64819347858429,31.636962890625 2.59277367591858,28.9306640625 5.657958984375,27.227783203125 9.66796875,26.66015625 11.806640625,26.66015625 11.806640625,0.703125 16.611328125,0.703125 16.611328125,5.9765625 16.728515625,5.9765625 18.7060546875,3.36181735992432 21.09375,1.49414205551147 23.8916015625,0.373536229133606 27.099609375,0z" />
    </g>
  </g>
</svg>