<?xml version="1.0" encoding="utf-8"?>
<!DOCTYPE svg PUBLIC "-//W3C//DTD SVG 1.1//EN" "http://www.w3.org/Graphics/SVG/1.1/DTD/svg11.dtd">
<svg width="42.24609375" height="31.40625" xmlns="http://www.w3.org/2000/svg" xmlns:xlink="http://www.w3.org/1999/xlink" xmlns:xml="http://www.w3.org/XML/1998/namespace" version="1.1">
  <g>
    <g>
      <path style="fill:#FF0000;fill-opacity:1" d="M37.44140625,15.52734375L30.205078125,16.5234375 26.9824199676514,17.266845703125 24.931640625,18.4423828125 23.8330059051514,20.123291015625 23.466796875,22.3828125 23.8879375457764,24.415283203125 25.1513671875,26.0009765625 27.0080547332764,27.022705078125 29.208984375,27.36328125 32.435302734375,26.72607421875 35.0830078125,24.814453125 36.851806640625,21.96533203125 37.44140625,18.515625 37.44140625,15.52734375z M18.896484375,15.52734375L11.66015625,16.5234375 8.4375,17.266845703125 6.38671875,18.4423828125 5.2880859375,20.123291015625 4.92187452316284,22.3828125 5.321044921875,24.47021484375 6.5185546875,26.044921875 8.353271484375,27.03369140625 10.6640625,27.36328125 13.927001953125,26.72607421875 16.5673828125,24.814453125 18.314208984375,21.96533203125 18.896484375,18.515625 18.896484375,15.52734375z M13.125,0L17.80517578125,0.714112758636475 21.005859375,2.8564453125 22.8515605926514,6.36840963363647 23.466796875,11.19140625 23.466796875,14.384765625 25.7080078125,13.505859375 28.447265625,12.94921875 37.44140625,11.689453125 37.0660400390625,8.34411716461182 35.93994140625,5.95459127426147 34.0631103515625,4.52087497711182 31.435546875,4.04296875 29.527587890625,4.31030416488647 27.4951171875,5.1123046875 25.6970195770264,6.30249166488647 24.4921875,7.734375 24.4921875,3.10546875 26.3269023895264,1.67358541488647 28.2568359375,0.7177734375 32.63671875,0 36.749267578125,0.695802211761475 39.7705078125,2.783203125 41.627197265625,6.27685689926147 42.24609375,11.19140625 42.24609375,30.703125 37.44140625,30.703125 37.44140625,26.015625 37.32421875,26.015625 35.5828857421875,28.3740234375 33.46435546875,30.05859375 30.9686279296875,31.0693359375 28.095703125,31.40625 24.9279766082764,31.072998046875 22.4560546875,30.0732421875 20.584716796875,28.363037109375 19.21875,25.8984375 19.1015625,25.8984375 17.384033203125,28.23486328125 15.1611328125,29.970703125 12.520751953125,31.04736328125 9.55078125,31.40625 5.64697265625,30.816650390625 2.607421875,29.0478515625 0.65185546875,26.290283203125 0,22.734375 0.618896484375,18.9697265625 2.4755859375,16.083984375 5.570068359375,14.0771484375 9.90234375,12.94921875 18.896484375,11.689453125 18.5101318359375,8.34411716461182 17.35107421875,5.95459127426147 15.4193115234375,4.52087497711182 12.71484375,4.04296875 10.059814453125,4.27368259429932 7.5439453125,4.96582174301147 5.167236328125,6.11938571929932 2.9296875,7.734375 2.9296875,2.8125 7.6904296875,0.703126430511475 13.125,0z" />
    </g>
  </g>
</svg>