<?xml version="1.0" encoding="utf-8"?>
<!DOCTYPE svg PUBLIC "-//W3C//DTD SVG 1.1//EN" "http://www.w3.org/Graphics/SVG/1.1/DTD/svg11.dtd">
<svg width="32.6660156250001" height="42.744140625" xmlns="http://www.w3.org/2000/svg" xmlns:xlink="http://www.w3.org/1999/xlink" xmlns:xml="http://www.w3.org/XML/1998/namespace" version="1.1">
  <g>
    <g>
      <path style="fill:#FF0000;fill-opacity:1" d="M12.36328125,0L25.6640625,0 28.828125,0.029296875 32.666015625,0.029296875 32.666015625,4.453125 21.650390625,4.453125 18.3856201171875,4.771728515625 15.35888671875,5.7275390625 12.5701904296875,7.320556640625 10.01953125,9.55078125 7.891845703125,12.2113046646118 6.37206983566284,15.0952167510986 5.46020460128784,18.2025165557861 5.15625,21.533203125 5.41992139816284,25.0332641601563 6.21093702316284,28.209228515625 7.529296875,31.0610961914063 9.375,33.5888671875 11.6473388671875,35.6588745117188 14.24560546875,37.137451171875 17.1697998046875,38.0245971679688 20.419921875,38.3203125 25.400390625,37.734375 28.1030254364014,36.884765625 31.34765625,35.5078125 31.34765625,40.283203125 26.19140625,42.12890625 20.2734375,42.744140625 15.87890625,42.38525390625 11.953125,41.30859375 8.49609375,39.51416015625 5.5078125,37.001953125 3.09814429283142,33.900146484375 1.37695288658142,30.3369140625 0.34423816204071,26.312255859375 0,21.826171875 0.483398228883743,17.6147480010986 1.93359351158142,13.4765625 4.01733350753784,9.85107517242432 6.4013671875,7.177734375 8.690185546875,5.39794921875 10.48828125,4.453125 0.380859375,4.453125 0.380859375,0.029296875 7.119140625,0.029296875 12.36328125,0z" />
    </g>
  </g>
</svg>