<?xml version="1.0" encoding="utf-8"?>
<!DOCTYPE svg PUBLIC "-//W3C//DTD SVG 1.1//EN" "http://www.w3.org/Graphics/SVG/1.1/DTD/svg11.dtd">
<svg width="54.140625" height="31.40625" xmlns="http://www.w3.org/2000/svg" xmlns:xlink="http://www.w3.org/1999/xlink" xmlns:xml="http://www.w3.org/XML/1998/namespace" version="1.1">
  <g>
    <g>
      <path style="fill:#FF0000;fill-opacity:1" d="M39.55078125,4.04296875L37.3333740234375,4.24255466461182 35.36865234375,4.84131002426147 33.6566162109375,5.83923435211182 32.197265625,7.236328125 30.19775390625,11.0009765625 29.53125,15.908203125 30.216064453125,20.69091796875 32.2705078125,24.31640625 33.7527465820313,25.6494140625 35.460205078125,26.6015625 37.3928833007813,27.1728515625 39.55078125,27.36328125 41.7691040039063,27.1737670898438 43.707275390625,26.605224609375 45.3652954101563,25.6576538085938 46.7431640625,24.3310546875 48.5998497009277,20.672607421875 49.21875,15.76171875 48.6035118103027,10.799560546875 46.7578125,7.1044921875 45.384521484375,5.76507663726807 43.7255859375,4.80835103988647 41.781005859375,4.23431491851807 39.55078125,4.04296875z M14.94140625,4.04296875L12.7239980697632,4.24255466461182 10.7592763900757,4.84131002426147 9.04724025726318,5.83923435211182 7.587890625,7.236328125 5.58837890625,10.99365234375 4.921875,15.87890625 5.60302734375,20.64697265625 7.646484375,24.287109375 9.12414455413818,25.6329345703125 10.8325185775757,26.59423828125 12.7716054916382,27.1710205078125 14.94140625,27.36328125 17.1597290039063,27.1737670898438 19.097900390625,26.605224609375 20.7559204101563,25.6576538085938 22.1337890625,24.3310546875 23.9904766082764,20.672607421875 24.609375,15.76171875 23.9941387176514,10.799560546875 22.1484375,7.1044921875 20.775146484375,5.76507663726807 19.1162109375,4.80835103988647 17.171630859375,4.23431491851807 14.94140625,4.04296875z M15.29296875,0L19.288330078125,0.428468227386475 22.7197265625,1.7138671875 25.4186992645264,3.78296041488647 27.216796875,6.5625 28.916015625,4.07592916488647 31.728515625,1.9482421875 35.45654296875,0.487061977386475 39.90234375,0 43.0847129821777,0.259095311164856 45.8935508728027,1.03637838363647 48.3288536071777,2.33184909820557 50.390625,4.1455078125 52.0312461853027,6.41510009765625 53.2031211853027,9.078369140625 53.9062461853027,12.1353149414063 54.140625,15.5859375 53.887020111084,18.9962768554688 53.1262168884277,22.049560546875 51.858211517334,24.7457885742188 50.0830078125,27.0849609375 47.881160736084,28.9755249023438 45.3332481384277,30.325927734375 42.439266204834,31.1361694335938 39.19921875,31.40625 35.04638671875,30.933837890625 31.494140625,29.5166015625 28.740234375,27.396240234375 26.982421875,24.814453125 25.1916484832764,27.396240234375 22.4560546875,29.5166015625 18.885498046875,30.933837890625 14.58984375,31.40625 11.4202880859375,31.1434936523438 8.59130859375,30.355224609375 6.1029052734375,29.0414428710938 3.955078125,27.2021484375 2.2247314453125,24.9288940429688 0.98876953125,22.313232421875 0.2471923828125,19.3551635742188 0,16.0546875 0.25726318359375,12.4942016601563 1.029052734375,9.342041015625 2.31536865234375,6.59820556640625 4.1162109375,4.2626953125 6.35833740234375,2.39776706695557 8.968505859375,1.06567525863647 11.9467163085938,0.266419529914856 15.29296875,0z" />
    </g>
  </g>
</svg>