<?xml version="1.0" encoding="utf-8"?>
<!DOCTYPE svg PUBLIC "-//W3C//DTD SVG 1.1//EN" "http://www.w3.org/Graphics/SVG/1.1/DTD/svg11.dtd">
<svg width="15.498046875" height="23.466796875" xmlns="http://www.w3.org/2000/svg" xmlns:xlink="http://www.w3.org/1999/xlink" xmlns:xml="http://www.w3.org/XML/1998/namespace" version="1.1">
  <g>
    <g>
      <path style="fill:#FF0000;fill-opacity:1" d="M7.5,0L10.8984365463257,0.699462890625 13.41796875,2.7978515625 14.97802734375,6.163330078125 15.498046875,10.6640625 14.879150390625,15.8715839385986 13.0224609375,19.951171875 11.6537475585938,21.4892578125 10.023193359375,22.587890625 8.13079833984375,23.2470703125 5.9765625,23.466796875 3.6767578125,23.2470703125 1.46484375,22.6171875 1.46484375,19.1015625 3.7353515625,19.9365234375 6.005859375,20.185546875 8.4521484375,19.588623046875 10.224609375,17.7978515625 11.3012685775757,14.8278827667236 11.66015625,10.693359375 11.3928213119507,7.313232421875 10.5908203125,5.0244140625 9.283447265625,3.717041015625 7.5,3.28125 5.96557569503784,3.592529296875 4.7607421875,4.5263671875 3.980712890625,5.943603515625 3.720703125,7.705078125 3.92578125,9.3896484375 4.541015625,10.751953125 5.61767530441284,11.6528339385986 7.20703125,11.953125 8.6279296875,11.77734375 9.90234375,11.19140625 9.90234375,14.501953125 7.177734375,15 4.1015625,14.5202655792236 1.845703125,13.0810546875 0.46142578125,10.8068857192993 0,7.822265625 0.523681640625,4.720458984375 2.0947265625,2.2119140625 4.493408203125,0.552978515625 7.5,0z" />
    </g>
  </g>
</svg>