<?xml version="1.0" encoding="utf-8"?>
<!DOCTYPE svg PUBLIC "-//W3C//DTD SVG 1.1//EN" "http://www.w3.org/Graphics/SVG/1.1/DTD/svg11.dtd">
<svg width="31.81640625" height="57.216796875" xmlns="http://www.w3.org/2000/svg" xmlns:xlink="http://www.w3.org/1999/xlink" xmlns:xml="http://www.w3.org/XML/1998/namespace" version="1.1">
  <g>
    <g>
      <path style="fill:#FF0000;fill-opacity:1" d="M10.8984375,0L13.6962890625,0.1611328125 16.23046875,0.673828125 16.201171875,5.68359375 13.8427734375,4.7900390625 11.25,4.365234375 8.85498046875,4.7900390625 6.884765625,6.064453125 5.56640625,8.00537109375 5.126953125,10.4296875 5.64697265625,13.4362812042236 7.20703125,15.6591796875 9.73388671875,17.0324726104736 13.154296875,17.490234375 27.94921875,17.490234375 27.94921875,20.009765625 18.017578125,32.05078125 20.9600811004639,32.255859375 23.6059551239014,32.87109375 25.9551982879639,33.896484375 28.0078125,35.33203125 29.674072265625,37.115478515625 30.8642578125,39.1845703125 31.578369140625,41.539306640625 31.81640625,44.1796875 31.5234375,47.0150756835938 30.64453125,49.544677734375 29.1796875,51.7684936523438 27.12890625,53.6865234375 24.6002178192139,55.2310180664063 21.7016582489014,56.334228515625 18.4332256317139,56.9961547851563 14.794921875,57.216796875 9.697265625,56.748046875 7.1484375,56.0888671875 4.599609375,55.048828125 4.599609375,50.302734375 7.203369140625,51.52587890625 9.7998046875,52.265625 14.970703125,52.763671875 19.82666015625,52.1923828125 23.5546875,50.478515625 24.9389629364014,49.21875 25.9277324676514,47.724609375 26.5209941864014,45.99609375 26.71875,44.033203125 26.0082988739014,40.3271484375 23.876953125,37.705078125 22.1942138671875,36.7950439453125 19.98779296875,36.14501953125 17.2576904296875,35.7550048828125 14.00390625,35.625 10.95703125,35.625 10.95703125,34.013671875 20.68359375,21.943359375 13.2421875,21.943359375 7.6318359375,21.207275390625 3.45703172683716,18.9990234375 1.94458031654358,17.3593158721924 0.864257872104645,15.3845233917236 0.216064453125,13.0746469497681 0,10.4296875 0.19866943359375,8.33038330078125 0.794677734375,6.397705078125 1.78802490234375,4.63165283203125 3.1787109375,3.0322265625 4.85321044921875,1.70562744140625 6.697998046875,0.758056640625 8.71307373046875,0.18951416015625 10.8984375,0z" />
    </g>
  </g>
</svg>