<?xml version="1.0" encoding="utf-8"?>
<!DOCTYPE svg PUBLIC "-//W3C//DTD SVG 1.1//EN" "http://www.w3.org/Graphics/SVG/1.1/DTD/svg11.dtd">
<svg width="54.55078125" height="56.1328125" xmlns="http://www.w3.org/2000/svg" xmlns:xlink="http://www.w3.org/1999/xlink" xmlns:xml="http://www.w3.org/XML/1998/namespace" version="1.1">
  <g>
    <g>
      <path style="fill:#FF0000;fill-opacity:1" d="M0,0L5.419921875,0 14.35546875,32.2265625 15.05859375,36.4453125 15.205078125,36.4453125 15.498046875,34.62890625 16.11328125,32.2265625 25.400390625,0 30.1171875,0 39.228515625,32.34375 39.6240234375,34.365234375 39.84375,36.38671875 39.931640625,36.38671875 40.1953125,34.4384765625 40.634765625,32.34375 49.189453125,0 54.55078125,0 42.94921875,41.015625 42.0730590820313,43.9306640625 41.202392578125,46.435546875 40.3372192382813,48.5302734375 39.4775390625,50.21484375 37.620849609375,52.803955078125 35.478515625,54.6533203125 33.03955078125,55.762939453125 30.29296875,56.1328125 28.7255859375,56.0595703125 27.158203125,55.751953125 27.158203125,51.15234375 30,51.6796875 31.673583984375,51.36474609375 33.2373046875,50.419921875 34.595947265625,48.87451171875 35.654296875,46.7578125 37.412109375,42.01171875 28.271484375,11.30859375 27.8173828125,9.2578125 27.59765625,7.03125 27.48046875,7.03125 26.71875,11.25 18.017578125,42.01171875 12.3046875,42.01171875 0,0z" />
    </g>
  </g>
</svg>