<?xml version="1.0" encoding="utf-8"?>
<!DOCTYPE svg PUBLIC "-//W3C//DTD SVG 1.1//EN" "http://www.w3.org/Graphics/SVG/1.1/DTD/svg11.dtd">
<svg width="65.771484375" height="43.41796875" xmlns="http://www.w3.org/2000/svg" xmlns:xlink="http://www.w3.org/1999/xlink" xmlns:xml="http://www.w3.org/XML/1998/namespace" version="1.1">
  <g>
    <g>
      <path style="fill:#FF0000;fill-opacity:1" d="M18.515625,5.80078125L18.2080078125,7.412109375 17.841796875,8.61328125 11.30859375,26.513671875 25.869140625,26.513671875 19.27734375,8.61328125 18.955078125,7.470703125 18.6328125,5.80078125 18.515625,5.80078125z M46.083984375,4.453125L42.9290771484375,4.75250244140625 40.08544921875,5.650634765625 37.5531005859375,7.14752197265625 35.33203125,9.2431640625 33.5247802734375,11.8222055435181 32.23388671875,14.7692890167236 31.4593505859375,18.0844135284424 31.201171875,21.767578125 31.4520263671875,25.4718017578125 32.20458984375,28.79150390625 33.4588623046875,31.7266845703125 35.21484375,34.27734375 37.3773193359375,36.3409423828125 39.85107421875,37.81494140625 42.6361083984375,38.6993408203125 45.732421875,38.994140625 49.0063438415527,38.712158203125 51.9140586853027,37.8662109375 54.4555625915527,36.456298828125 56.630859375,34.482421875 58.3740196228027,32.0013427734375 59.6191368103027,29.06982421875 60.3662071228027,25.6878662109375 60.615234375,21.85546875 60.3735313415527,17.9315204620361 59.6484336853027,14.4799823760986 58.4399375915527,11.5008554458618 56.748046875,8.994140625 54.6313438415527,7.0074462890625 52.1484336853027,5.58837890625 49.2993125915527,4.7369384765625 46.083984375,4.453125z M46.435546875,0L50.5627403259277,0.3662109375 54.2724571228027,1.46484375 57.5646934509277,3.2958984375 60.439453125,5.859375 62.772216796875,9.0142822265625 64.4384765625,12.6196298599243 65.438232421875,16.6754150390625 65.771484375,21.181640625 65.430908203125,26.0540771484375 64.4091796875,30.38818359375 62.706298828125,34.1839599609375 60.322265625,37.44140625 57.3669395446777,40.05615234375 53.9501914978027,41.923828125 50.0720176696777,43.04443359375 45.732421875,43.41796875 42.4246215820313,43.2009887695313 39.385986328125,42.550048828125 36.6165161132813,41.4651489257813 34.1162109375,39.9462890625 30.0842266082764,35.958251953125 27.451171875,30.9375 9.66796875,30.9375 5.47851514816284,42.71484375 0,42.71484375 16.11328125,0.703125 21.2109375,0.703125 25.869140625,12.83203125 26.42578125,14.4140625 26.77734375,15.703125 26.89453125,15.703125 27.6397686004639,12.5582895278931 28.9086894989014,9.65698337554932 30.7012920379639,6.99920701980591 33.017578125,4.5849609375 35.789794921875,2.57904052734375 38.9501953125,1.146240234375 42.498779296875,0.28656005859375 46.435546875,0z" />
    </g>
  </g>
</svg>