<?xml version="1.0" encoding="utf-8"?>
<!DOCTYPE svg PUBLIC "-//W3C//DTD SVG 1.1//EN" "http://www.w3.org/Graphics/SVG/1.1/DTD/svg11.dtd">
<svg width="28.154296875" height="43.41796875" xmlns="http://www.w3.org/2000/svg" xmlns:xlink="http://www.w3.org/1999/xlink" xmlns:xml="http://www.w3.org/XML/1998/namespace" version="1.1">
  <g>
    <g>
      <path style="fill:#FF0000;fill-opacity:1" d="M16.171875,0L19.0557842254639,0.0933837890625 21.5258769989014,0.37353515625 23.5821514129639,0.8404541015625 25.224609375,1.494140625 25.224609375,7.03125 20.9765625,5.09765625 15.673828125,4.453125 12.0300283432007,4.8779296875 9.1845703125,6.15234375 7.349853515625,8.1591796875 6.73828125,10.78125 7.0458984375,12.8540058135986 7.96875,14.560546875 9.41162109375,15.9851093292236 11.279296875,17.2119140625 15.205078125,19.248046875 28.154296875,14.82421875 28.154296875,19.21875 20.185546875,21.943359375 23.2873516082764,24.29443359375 25.3857421875,26.71875 26.5832500457764,29.296875 26.982421875,32.109375 26.7352275848389,34.676513671875 25.9936504364014,36.9287109375 24.7576885223389,38.865966796875 23.02734375,40.48828125 20.8575439453125,41.77001953125 18.30322265625,42.685546875 15.3643798828125,43.23486328125 12.041015625,43.41796875 9.41162109375,43.245849609375 6.328125,42.7294921875 3.4716796875,41.956787109375 1.5234375,41.015625 1.5234375,35.21484375 3.75732421875,36.73095703125 6.708984375,37.939453125 9.88769435882568,38.73046875 12.802734375,38.994140625 16.787109375,38.57666015625 19.599609375,37.32421875 21.26953125,35.2734375 21.826171875,32.4609375 21.46728515625,30.391845703125 20.390625,28.5205078125 19.442138671875,27.5820922851563 18.0322265625,26.539306640625 16.160888671875,25.3921508789063 13.828125,24.140625 0,28.857421875 0,24.462890625 8.759765625,21.474609375 5.408935546875,19.18212890625 3.20800805091858,16.81640625 1.98852550983429,14.2163105010986 1.58203125,11.220703125 1.84112548828125,8.79913330078125 2.618408203125,6.632080078125 3.91387939453125,4.71954345703125 5.7275390625,3.0615234375 7.93487548828125,1.72210693359375 10.411376953125,0.765380859375 13.1570434570313,0.19134521484375 16.171875,0z" />
    </g>
  </g>
</svg>