<?xml version="1.0" encoding="utf-8"?>
<!DOCTYPE svg PUBLIC "-//W3C//DTD SVG 1.1//EN" "http://www.w3.org/Graphics/SVG/1.1/DTD/svg11.dtd">
<svg width="30.46875" height="42.01171875" xmlns="http://www.w3.org/2000/svg" xmlns:xlink="http://www.w3.org/1999/xlink" xmlns:xml="http://www.w3.org/XML/1998/namespace" version="1.1">
  <g>
    <g>
      <path style="fill:#FF0000;fill-opacity:1" d="M9.697265625,4.453125L9.697265625,21.6796875 14.853515625,21.6796875 19.365234375,21.10107421875 22.646484375,19.365234375 24.6459941864014,16.5600605010986 25.3125,12.7734375 24.6972637176514,9.13330078125 22.8515605926514,6.533203125 19.7753887176514,4.97314453125 15.46875,4.453125 9.697265625,4.453125z M4.77539110183716,0L16.318359375,0 19.4384765625,0.2069091796875 22.20703125,0.82763671875 24.6240234375,1.8621826171875 26.689453125,3.310546875 28.3428936004639,5.1287841796875 29.5239238739014,7.27294921875 30.2325420379639,9.7430419921875 30.46875,12.5390625 30.2124004364014,15.3799438476563 29.4433574676514,17.955322265625 28.1616191864014,20.2651977539063 26.3671875,22.3095703125 24.13330078125,23.9822387695313 21.533203125,25.177001953125 18.56689453125,25.8938598632813 15.234375,26.1328125 9.697265625,26.1328125 9.697265625,30.732421875 17.578125,30.732421875 17.578125,34.62890625 9.697265625,34.62890625 9.697265625,42.01171875 4.77539110183716,42.01171875 4.77539110183716,34.62890625 0,34.62890625 0,30.732421875 4.77539110183716,30.732421875 4.77539110183716,0z" />
    </g>
  </g>
</svg>