<?xml version="1.0" encoding="utf-8"?>
<!DOCTYPE svg PUBLIC "-//W3C//DTD SVG 1.1//EN" "http://www.w3.org/Graphics/SVG/1.1/DTD/svg11.dtd">
<svg width="29.501953125" height="42.71484375" xmlns="http://www.w3.org/2000/svg" xmlns:xlink="http://www.w3.org/1999/xlink" xmlns:xml="http://www.w3.org/XML/1998/namespace" version="1.1">
  <g>
    <g>
      <path style="fill:#FF0000;fill-opacity:1" d="M14.677734375,18.57421875L12.1188354492188,19.8870849609375 10.008544921875,21.18896484375 8.34686279296875,22.4798583984375 7.1337890625,23.759765625 5.650634765625,26.53564453125 5.15625,29.765625 5.775146484375,33.321533203125 7.6318359375,36.0205078125 10.5871572494507,37.723388671875 14.501953125,38.291015625 18.55224609375,37.701416015625 21.6796875,35.9326171875 23.6791973114014,33.138427734375 24.345703125,29.47265625 24.0344219207764,27.63427734375 23.1005859375,25.869140625 20.185546875,22.822265625 17.98828125,21.123046875 16.23046875,19.8046875 15.4541015625,19.21875 14.677734375,18.57421875z M2.314453125,0L27.01171875,0 27.01171875,3.896484375 22.8771953582764,4.9951171875 19.2041015625,6.767578125 17.6980590820313,7.840576171875 16.622314453125,8.9501953125 15.9768676757813,10.096435546875 15.76171875,11.279296875 16.0409545898438,12.5189218521118 16.878662109375,13.8354511260986 18.2748413085938,15.2288827896118 20.2294921875,16.69921875 24.1809062957764,19.705810546875 27.099609375,22.6904296875 28.9013671875,25.865478515625 29.501953125,29.443359375 29.501953125,29.6484375 29.168701171875,32.5323486328125 28.3447265625,35.09033203125 27.030029296875,37.3223876953125 25.224609375,39.228515625 23.0108642578125,40.7537841796875 20.47119140625,41.84326171875 17.6055908203125,42.4969482421875 14.4140625,42.71484375 11.3571166992188,42.4978637695313 8.602294921875,41.846923828125 6.14959716796875,40.7620239257813 3.9990234375,39.2431640625 2.24945068359375,37.3672485351563 0.999755859375,35.211181640625 0.24993896484375,32.7749633789063 0,30.05859375 0.703125,25.7373046875 2.8125,21.97265625 4.442138671875,20.269775390625 6.5185546875,18.6474609375 9.041748046875,17.105712890625 12.01171875,15.64453125 10.9423828125,13.4619140625 10.60546875,11.220703125 10.9899892807007,9.217529296875 12.1435546875,7.3095703125 13.919677734375,5.650634765625 16.171875,4.39453125 2.314453125,4.39453125 2.314453125,0z" />
    </g>
  </g>
</svg>