<?xml version="1.0" encoding="utf-8"?>
<!DOCTYPE svg PUBLIC "-//W3C//DTD SVG 1.1//EN" "http://www.w3.org/Graphics/SVG/1.1/DTD/svg11.dtd">
<svg width="28.5351562500001" height="50.5078125" xmlns="http://www.w3.org/2000/svg" xmlns:xlink="http://www.w3.org/1999/xlink" xmlns:xml="http://www.w3.org/XML/1998/namespace" version="1.1">
  <g>
    <g>
      <path style="fill:#FF0000;fill-opacity:1" d="M8.408203125,0L10.7958984375,0.1611328125 13.18359375,0.8203125 13.18359375,4.98046875 10.9716796875,4.16015625 8.73046875,3.92578125 7.20703125,4.18212890625 5.9765625,4.951171875 5.16357326507568,6.13769674301147 4.89257717132568,7.646484375 5.23315334320068,9.55810737609863 6.2548828125,10.95703125 7.965087890625,11.8139667510986 10.37109375,12.099609375 24.78515625,12.099609375 24.78515625,14.53125 15.3515625,25.83984375 20.88134765625,26.9970703125 25.048828125,29.47265625 26.5740947723389,31.1773681640625 27.6635723114014,33.15673828125 28.3172588348389,35.4107666015625 28.53515625,37.939453125 28.2476787567139,40.6887817382813 27.3852519989014,43.135986328125 25.9478740692139,45.2810668945313 23.935546875,47.1240234375 21.48193359375,48.6044311523438 18.720703125,49.661865234375 15.65185546875,50.2963256835938 12.275390625,50.5078125 7.412109375,50.0537109375 2.54882788658142,48.427734375 2.54882788658142,43.681640625 5.03173732757568,44.97802734375 7.5,45.8203125 12.421875,46.435546875 16.951904296875,45.8642578125 20.5224609375,44.150390625 21.8746929168701,42.8961181640625 22.8405742645264,41.41845703125 23.4201030731201,39.7174072265625 23.61328125,37.79296875 23.4082012176514,35.797119140625 22.7929668426514,34.0576171875 21.7675762176514,32.574462890625 20.33203125,31.34765625 16.35498046875,29.69970703125 10.986328125,29.150390625 8.671875,29.150390625 8.671875,27.59765625 18.10546875,16.201171875 10.400390625,16.201171875 6.20727491378784,15.615234375 2.88574194908142,13.857421875 0.721435308456421,11.1328144073486 0,7.646484375 0.615234136581421,4.63989353179932 2.46093726158142,2.1826171875 5.17822170257568,0.545654296875 8.408203125,0z" />
    </g>
  </g>
</svg>