<?xml version="1.0" encoding="utf-8"?>
<!DOCTYPE svg PUBLIC "-//W3C//DTD SVG 1.1//EN" "http://www.w3.org/Graphics/SVG/1.1/DTD/svg11.dtd">
<svg width="28.623046875" height="44.4140625" xmlns="http://www.w3.org/2000/svg" xmlns:xlink="http://www.w3.org/1999/xlink" xmlns:xml="http://www.w3.org/XML/1998/namespace" version="1.1">
  <g>
    <g>
      <path style="fill:#FF0000;fill-opacity:1" d="M3.72070360183716,0L8.525390625,0 8.525390625,5.2734375 18.486328125,5.2734375 18.486328125,9.19921875 8.525390625,9.19921875 8.525390625,28.154296875 8.642578125,28.154296875 21.240234375,14.4140625 27.5390625,14.4140625 13.623046875,28.88671875 16.640625,32.021484375 23.37890625,25.048828125 23.37890625,30.732421875 19.39453125,34.86328125 28.623046875,44.4140625 21.884765625,44.4140625 16.142578125,38.203125 11.66015625,42.83203125 11.66015625,37.1484375 13.4765625,35.2734375 8.642578125,30 8.525390625,30 8.525390625,44.4140625 3.72070360183716,44.4140625 3.72070360183716,9.19921875 0,9.19921875 0,5.2734375 3.72070360183716,5.2734375 3.72070360183716,0z" />
    </g>
  </g>
</svg>