<?xml version="1.0" encoding="utf-8"?>
<!DOCTYPE svg PUBLIC "-//W3C//DTD SVG 1.1//EN" "http://www.w3.org/Graphics/SVG/1.1/DTD/svg11.dtd">
<svg width="43.330078125" height="51.62109375" xmlns="http://www.w3.org/2000/svg" xmlns:xlink="http://www.w3.org/1999/xlink" xmlns:xml="http://www.w3.org/XML/1998/namespace" version="1.1">
  <g>
    <g>
      <path style="fill:#FF0000;fill-opacity:1" d="M20.0390625,4.453125L16.8841552734375,4.75250244140625 14.04052734375,5.650634765625 11.5081787109375,7.14752197265625 9.287109375,9.2431640625 7.4798583984375,11.8222055435181 6.18896484375,14.7692890167236 5.4144287109375,18.0844135284424 5.15625,21.767578125 5.4071044921875,25.447998046875 6.15966796875,28.7548828125 7.4139404296875,31.688232421875 9.169921875,34.248046875 11.3323974609375,36.324462890625 13.80615234375,37.8076171875 16.5911865234375,38.697509765625 19.6875,38.994140625 22.9614238739014,38.712158203125 25.8691387176514,37.8662109375 28.4106426239014,36.456298828125 30.5859375,34.482421875 32.3291015625,32.0013427734375 33.57421875,29.06982421875 34.3212890625,25.6878662109375 34.5703125,21.85546875 34.32861328125,17.9315204620361 33.603515625,14.4799823760986 32.39501953125,11.5008554458618 30.703125,8.994140625 28.5864238739014,7.0074462890625 26.1035137176514,5.58837890625 23.2543926239014,4.7369384765625 20.0390625,4.453125z M20.390625,0L24.517822265625,0.3662109375 28.2275390625,1.46484375 31.519775390625,3.2958984375 34.39453125,5.859375 36.727294921875,9.0142822265625 38.3935546875,12.6196298599243 39.393310546875,16.6754150390625 39.7265625,21.181640625 39.136962890625,27.528076171875 37.3681640625,32.7978515625 34.727783203125,36.939697265625 31.5234375,39.90234375 33.515625,41.337890625 41.162109375,36.474609375 41.162109375,41.25 37.03125,43.857421875 43.330078125,48.369140625 34.39453125,48.369140625 32.34375,46.845703125 24.84375,51.62109375 24.84375,46.845703125 28.88671875,44.267578125 26.484375,42.451171875 23.2177715301514,43.17626953125 19.6875,43.41796875 15.4421997070313,43.0508422851563 11.641845703125,41.949462890625 8.28643798828125,40.1138305664063 5.3759765625,37.5439453125 3.02398681640625,34.3826293945313 1.343994140625,30.772705078125 0.33599853515625,26.7141723632813 0,22.20703125 0.34332275390625,17.3831176757813 1.373291015625,13.0773935317993 3.08990478515625,9.28985595703125 5.4931640625,6.0205078125 8.48419189453125,3.38653564453125 11.964111328125,1.505126953125 15.9329223632813,0.37628173828125 20.390625,0z" />
    </g>
  </g>
</svg>