<?xml version="1.0" encoding="utf-8"?>
<!DOCTYPE svg PUBLIC "-//W3C//DTD SVG 1.1//EN" "http://www.w3.org/Graphics/SVG/1.1/DTD/svg11.dtd">
<svg width="30.29296875" height="44.501953125" xmlns="http://www.w3.org/2000/svg" xmlns:xlink="http://www.w3.org/1999/xlink" xmlns:xml="http://www.w3.org/XML/1998/namespace" version="1.1">
  <g>
    <g>
      <path style="fill:#FF0000;fill-opacity:1" d="M14.765625,0L17.0938091278076,0.197754979133606 19.1271953582764,0.791017055511475 20.8657817840576,1.77978622913361 22.3095703125,3.1640625 24.2541484832764,7.04589986801147 24.90234375,12.36328125 24.90234375,22.6171875 25.0634746551514,24.935302734375 25.546875,26.3818359375 26.3525371551514,27.139892578125 27.48046875,27.392578125 28.88671875,27.24609375 30.29296875,26.689453125 30.29296875,30.8203125 28.7841796875,31.2744140625 27.216796875,31.40625 24.2211894989014,30.889892578125 21.97265625,29.3408203125 20.5664043426514,26.832275390625 20.09765625,23.4375 20.09765625,13.59375 19.6618633270264,9.41528415679932 18.3544902801514,6.43066549301147 16.1755352020264,4.63989353179932 13.125,4.04296875 9.85107326507568,4.71679830551147 7.177734375,6.73828125 5.39794921875,9.7998046875 4.8046875,13.59375 4.8046875,44.501953125 0,44.501953125 0,0.703125 4.8046875,0.703125 4.8046875,5.68359375 4.921875,5.68359375 6.81152296066284,3.19702243804932 9.08203029632568,1.42089986801147 11.7333974838257,0.355225682258606 14.765625,0z" />
    </g>
  </g>
</svg>