<?xml version="1.0" encoding="utf-8"?>
<!DOCTYPE svg PUBLIC "-//W3C//DTD SVG 1.1//EN" "http://www.w3.org/Graphics/SVG/1.1/DTD/svg11.dtd">
<svg width="54.697265625" height="55.95703125" xmlns="http://www.w3.org/2000/svg" xmlns:xlink="http://www.w3.org/1999/xlink" xmlns:xml="http://www.w3.org/XML/1998/namespace" version="1.1">
  <g>
    <g>
      <path style="fill:#FF0000;fill-opacity:1" d="M20.0390625,4.453125L16.8841552734375,4.75250244140625 14.04052734375,5.650634765625 11.5081787109375,7.14752197265625 9.287109375,9.2431640625 7.4798583984375,11.8222055435181 6.18896484375,14.7692890167236 5.41442823410034,18.0844135284424 5.15624952316284,21.767578125 5.40618848800659,25.4598999023438 6.156005859375,28.773193359375 7.40570068359375,31.7074584960938 9.1552734375,34.2626953125 11.3131713867188,36.3327026367188 13.787841796875,37.811279296875 16.5792846679688,38.6984252929688 19.6875,38.994140625 22.9614238739014,38.712158203125 25.8691387176514,37.8662109375 28.4106426239014,36.456298828125 30.5859375,34.482421875 32.3291015625,32.0013427734375 33.57421875,29.06982421875 34.3212890625,25.6878662109375 34.5703125,21.85546875 34.32861328125,17.9315204620361 33.603515625,14.4799823760986 32.39501953125,11.5008554458618 30.703125,8.994140625 28.5864238739014,7.0074462890625 26.1035137176514,5.58837890625 23.2543926239014,4.7369384765625 20.0390625,4.453125z M20.390625,0L24.517822265625,0.3662109375 28.2275390625,1.46484375 31.519775390625,3.2958984375 34.39453125,5.859375 36.727294921875,9.0142822265625 38.3935546875,12.6196298599243 39.393310546875,16.6754150390625 39.7265625,21.181640625 39.202880859375,26.953125 37.6318359375,32.197265625 35.057373046875,36.61376953125 31.5234375,39.90234375 34.74609375,42.216796875 43.88671875,30.41015625 46.4794883728027,26.905517578125 48.3984375,23.9501953125 49.5849571228027,21.573486328125 49.98046875,19.8046875 49.5812950134277,17.8564472198486 48.3837890625,16.46484375 46.2121543884277,15.6298847198486 42.890625,15.3515625 42.919921875,11.103515625 48.0175743103027,11.6308612823486 51.708984375,13.212890625 53.9501914978027,15.8349628448486 54.697265625,19.482421875 54.3713340759277,21.48193359375 53.3935546875,23.90625 51.4050254821777,27.1728515625 48.046875,31.69921875 38.02734375,44.560546875 43.330078125,48.369140625 35.09765625,48.369140625 29.208984375,55.95703125 24.08203125,55.95703125 31.58203125,46.259765625 26.484375,42.451171875 23.2177715301514,43.17626953125 19.6875,43.41796875 15.4421997070313,43.0508422851563 11.641845703125,41.949462890625 8.28643798828125,40.1138305664063 5.3759765625,37.5439453125 3.02398681640625,34.3826293945313 1.343994140625,30.772705078125 0.33599853515625,26.7141723632813 0,22.20703125 0.34332275390625,17.3831176757813 1.373291015625,13.0773935317993 3.08990478515625,9.28985595703125 5.4931640625,6.0205078125 8.48419189453125,3.38653564453125 11.964111328125,1.505126953125 15.9329223632813,0.37628173828125 20.390625,0z" />
    </g>
  </g>
</svg>