<?xml version="1.0" encoding="utf-8"?>
<!DOCTYPE svg PUBLIC "-//W3C//DTD SVG 1.1//EN" "http://www.w3.org/Graphics/SVG/1.1/DTD/svg11.dtd">
<svg width="29.384765625" height="55.01953125" xmlns="http://www.w3.org/2000/svg" xmlns:xlink="http://www.w3.org/1999/xlink" xmlns:xml="http://www.w3.org/XML/1998/namespace" version="1.1">
  <g>
    <g>
      <path style="fill:#FF0000;fill-opacity:1" d="M0,0L4.8046875,0 4.8046875,19.39453125 4.921875,19.39453125 6.83349561691284,16.9079608917236 9.11132717132568,15.1318378448486 11.7553701400757,14.0661630630493 14.765625,13.7109375 17.1414184570313,13.9018259048462 19.2004375457764,14.4744882583618 20.9426860809326,15.4289255142212 22.3681621551514,16.7651386260986 23.4768657684326,18.4831256866455 24.2687969207764,20.5828876495361 24.7439575195313,23.0644226074219 24.90234375,25.927734375 24.90234375,42.861328125 29.384765625,42.861328125 29.384765625,46.34765625 28.828125,49.940185546875 27.158203125,52.6904296875 24.5581035614014,54.437255859375 21.2109375,55.01953125 17.9296875,54.345703125 17.9296875,50.0390625 19.5117168426514,50.72021484375 21.2109375,50.947265625 22.8259258270264,50.6597900390625 23.9794902801514,49.79736328125 24.6716289520264,48.3599853515625 24.90234375,46.34765625 24.90234375,44.4140625 20.09765625,44.4140625 20.09765625,27.12890625 19.6618633270264,23.0273456573486 18.3544902801514,20.0976581573486 16.1755352020264,18.3398456573486 13.125,17.75390625 9.88769435882568,18.4313983917236 7.20703125,20.4638671875 5.4052734375,23.558349609375 4.8046875,27.421875 4.8046875,44.4140625 0,44.4140625 0,0z" />
    </g>
  </g>
</svg>