<?xml version="1.0" encoding="utf-8"?>
<!DOCTYPE svg PUBLIC "-//W3C//DTD SVG 1.1//EN" "http://www.w3.org/Graphics/SVG/1.1/DTD/svg11.dtd">
<svg width="67.3828125000004" height="67.3828125" xmlns="http://www.w3.org/2000/svg" xmlns:xlink="http://www.w3.org/1999/xlink" xmlns:xml="http://www.w3.org/XML/1998/namespace" version="1.1">
  <g>
    <g>
      <path style="fill:#FF0000;fill-opacity:1" d="M33.69140625,40.01953125L30.838623046875,40.29052734375 28.1396484375,41.103515625 25.645751953125,42.421875 23.408203125,44.208984375 43.974609375,44.208984375 41.7370567321777,42.421875 39.2431640625,41.103515625 36.544189453125,40.29052734375 33.69140625,40.01953125z M33.69140625,37.91015625L37.0751953125,38.23974609375 40.25390625,39.228515625 43.1323204040527,40.78857421875 45.615234375,42.83203125 47.6586875915527,45.31494140625 49.21875,48.193359375 50.2075157165527,51.3720703125 50.537109375,54.755859375 16.845703125,54.755859375 17.1752910614014,51.3720703125 18.1640625,48.193359375 19.7241191864014,45.31494140625 21.767578125,42.83203125 24.25048828125,40.78857421875 27.12890625,39.228515625 30.3076171875,38.23974609375 33.69140625,37.91015625z M54.755859375,21.064453125L54.755859375,23.173828125 44.70703125,30.52734375 54.755859375,37.91015625 54.755859375,40.01953125 39.052734375,32.431640625 38.2177734375,31.6552734375 37.91015625,30.52734375 38.2177734375,29.4287109375 39.052734375,28.65234375 54.755859375,21.064453125z M12.626953125,21.064453125L28.30078125,28.65234375 29.150390625,29.4287109375 29.47265625,30.52734375 29.150390625,31.640625 28.30078125,32.431640625 12.626953125,40.01953125 12.626953125,37.91015625 22.67578125,30.52734375 12.626953125,23.173828125 12.626953125,21.064453125z M39.990234375,8.4375L40.9277305603027,8.642578125 41.689453125,9.2578125 42.48046875,10.224609375 43.359375,11.1328125 45.3845176696777,12.681884765625 47.6513671875,13.8134765625 50.0939903259277,14.505615234375 52.646484375,14.736328125 54.140625,15.3515625 54.755859375,16.845703125 54.140625,18.33984375 52.646484375,18.955078125 48.5302734375,18.4716796875 44.6337890625,17.080078125 41.162109375,14.8388671875 38.3203125,11.806640625 37.91015625,10.546875 38.5107421875,9.052734375 39.990234375,8.4375z M27.392578125,8.4375L28.8720703125,9.052734375 29.47265625,10.546875 29.0625,11.806640625 26.220703125,14.8388671875 22.7490234375,17.080078125 18.837890625,18.4716796875 14.736328125,18.955078125 13.2421875,18.33984375 12.626953125,16.845703125 13.2421875,15.3515625 14.736328125,14.736328125 17.2888164520264,14.505615234375 19.7314453125,13.8134765625 21.9982891082764,12.681884765625 24.0234375,11.1328125 24.90234375,10.224609375 25.693359375,9.2578125 26.455078125,8.642578125 27.392578125,8.4375z M33.69140625,4.21874952316284L29.696044921875,4.48242473602295 25.8544921875,5.2734375 22.2106914520264,6.54419231414795 18.80859375,8.2470703125 15.677490234375,10.3564453125 12.8466796875,12.8466796875 10.3564453125,15.677490234375 8.2470703125,18.80859375 6.54418849945068,22.210693359375 5.2734375,25.8544921875 4.482421875,29.6960468292236 4.21875,33.69140625 4.482421875,37.686767578125 5.2734375,41.5283203125 6.54418849945068,45.172119140625 8.2470703125,48.57421875 10.3564453125,51.705322265625 12.8466796875,54.5361328125 15.677490234375,57.0263671875 18.80859375,59.1357421875 22.2106914520264,60.838623046875 25.8544921875,62.109375 29.696044921875,62.900390625 33.69140625,63.1640625 37.686767578125,62.900390625 41.5283203125,62.109375 45.1721153259277,60.838623046875 48.57421875,59.1357421875 51.7053184509277,57.0263671875 54.5361328125,54.5361328125 57.0263671875,51.705322265625 59.1357421875,48.57421875 60.838623046875,45.172119140625 62.109375,41.5283203125 62.900390625,37.686767578125 63.1640625,33.69140625 62.900390625,29.6960468292236 62.109375,25.8544921875 60.838623046875,22.210693359375 59.1357421875,18.80859375 57.0263671875,15.677490234375 54.5361328125,12.8466796875 51.7053184509277,10.3564453125 48.57421875,8.2470703125 45.1721153259277,6.54419231414795 41.5283203125,5.2734375 37.686767578125,4.48242473602295 33.69140625,4.21874952316284z M33.69140625,0L38.26171875,0.300295770168304 42.65625,1.20117139816284 46.8200645446777,2.65137004852295 50.6982421875,4.59960889816284 54.2687950134277,7.0166015625 57.509765625,9.873046875 60.3662109375,13.114013671875 62.783203125,16.6845703125 64.7314453125,20.562744140625 66.181640625,24.7265625 67.08251953125,29.1210956573486 67.3828125,33.69140625 67.08251953125,38.26171875 66.181640625,42.65625 64.7314453125,46.820068359375 62.783203125,50.6982421875 60.3662109375,54.268798828125 57.509765625,57.509765625 54.2687950134277,60.3662109375 50.6982421875,62.783203125 46.8200645446777,64.7314453125 42.65625,66.181640625 38.26171875,67.08251953125 33.69140625,67.3828125 29.12109375,67.08251953125 24.7265625,66.181640625 20.5627422332764,64.7314453125 16.6845703125,62.783203125 13.114013671875,60.3662109375 9.873046875,57.509765625 7.01660060882568,54.268798828125 4.599609375,50.6982421875 2.6513671875,46.820068359375 1.201171875,42.65625 0.300292611122131,38.26171875 0,33.69140625 0.300292611122131,29.1210956573486 1.201171875,24.7265625 2.6513671875,20.562744140625 4.599609375,16.6845703125 7.01660060882568,13.114013671875 9.873046875,9.873046875 13.114013671875,7.0166015625 16.6845703125,4.59960889816284 20.5627422332764,2.65137004852295 24.7265625,1.20117139816284 29.12109375,0.300295770168304 33.69140625,0z" />
    </g>
  </g>
</svg>