<?xml version="1.0" encoding="utf-8"?>
<!DOCTYPE svg PUBLIC "-//W3C//DTD SVG 1.1//EN" "http://www.w3.org/Graphics/SVG/1.1/DTD/svg11.dtd">
<svg width="67.3828125000004" height="67.3828125" xmlns="http://www.w3.org/2000/svg" xmlns:xlink="http://www.w3.org/1999/xlink" xmlns:xml="http://www.w3.org/XML/1998/namespace" version="1.1">
  <g>
    <g>
      <path style="fill:#FF0000;fill-opacity:1" d="M44.208984375,43.447265625L45.6884765625,44.0771484375 46.318359375,45.556640625 46.201171875,46.2744140625 45.849609375,46.904296875 43.53515625,49.2919921875 40.4296875,51.1083984375 36.9873046875,52.2509765625 33.662109375,52.646484375 30.3369140625,52.265625 26.89453125,51.15234375 23.8037109375,49.3505859375 21.50390625,46.93359375 21.15234375,46.318359375 21.03515625,45.615234375 21.650390625,44.12109375 23.14453125,43.505859375 24.19921875,43.8720703125 25.3564453125,44.7802734375 26.7626953125,45.966796875 28.53515625,47.1533203125 30.791015625,48.0615234375 33.662109375,48.427734375 36.5185546875,48.0615234375 38.7890625,47.138671875 40.576171875,45.9375 42.01171875,44.736328125 43.18359375,43.8134765625 44.208984375,43.447265625z M44.208984375,27.36328125L46.318359375,27.36328125 48.779296875,27.861328125 50.7861328125,29.2236328125 52.1484375,31.23046875 52.646484375,33.69140625 50.537109375,33.69140625 49.921875,32.197265625 48.427734375,31.58203125 42.099609375,31.58203125 40.6201171875,32.2119140625 40.01953125,33.69140625 37.91015625,33.69140625 38.408203125,31.23046875 39.755859375,29.2236328125 41.748046875,27.861328125 44.208984375,27.36328125z M22.119140625,25.283203125L23.3349609375,25.5322265625 24.345703125,26.2060546875 25.0341796875,27.2021484375 25.283203125,28.41796875 25.283203125,32.63671875 25.0341796875,33.8525390625 24.345703125,34.86328125 23.3349609375,35.5517578125 22.119140625,35.80078125 20.8740234375,35.5517578125 19.8779296875,34.8779296875 19.2041015625,33.8818359375 18.955078125,32.63671875 18.955078125,28.41796875 19.2041015625,27.1875 19.892578125,26.19140625 20.9033203125,25.5322265625 22.119140625,25.283203125z M45.263671875,18.984375L46.6552734375,19.1015625 48.427734375,19.4384765625 50.302734375,19.9951171875 52.001953125,20.80078125 53.232421875,21.85546875 53.701171875,23.14453125 53.0859375,24.6533203125 51.591796875,25.283203125 50.5224609375,24.9609375 49.0283203125,24.2431640625 47.2265625,23.525390625 45.263671875,23.203125 43.271484375,23.525390625 41.4697265625,24.2431640625 39.9755859375,24.9609375 38.935546875,25.283203125 37.470703125,24.6533203125 36.85546875,23.173828125 37.32421875,21.8701171875 38.5400390625,20.80078125 40.224609375,19.9951171875 42.099609375,19.4384765625 43.8720703125,19.1015625 45.263671875,18.984375z M21.5625,14.736328125L23.0419921875,15.3662109375 23.671875,16.845703125 23.2763671875,18.0615234375 22.265625,18.837890625 20.185546875,19.9658203125 18.69140625,20.888671875 17.578125,21.8115234375 16.669921875,22.9248046875 15.7470703125,24.4189453125 14.619140625,26.484375 13.828125,27.509765625 12.626953125,27.890625 11.162109375,27.2607421875 10.546875,25.78125 10.6640625,25.078125 12.2900390625,21.73828125 14.619140625,18.837890625 17.51953125,16.494140625 20.859375,14.853515625 21.5625,14.736328125z M33.69140625,4.21874952316284L29.696044921875,4.48242473602295 25.8544921875,5.2734375 22.2106914520264,6.54419231414795 18.80859375,8.2470703125 15.677490234375,10.3564453125 12.8466796875,12.8466796875 10.3564453125,15.677490234375 8.2470703125,18.80859375 6.54418849945068,22.210693359375 5.2734375,25.8544921875 4.482421875,29.6960468292236 4.21875,33.69140625 4.482421875,37.686767578125 5.2734375,41.5283203125 6.54418849945068,45.172119140625 8.2470703125,48.57421875 10.3564453125,51.705322265625 12.8466796875,54.5361328125 15.677490234375,57.0263671875 18.80859375,59.1357421875 22.2106914520264,60.838623046875 25.8544921875,62.109375 29.696044921875,62.900390625 33.69140625,63.1640625 37.686767578125,62.900390625 41.5283203125,62.109375 45.1721153259277,60.838623046875 48.57421875,59.1357421875 51.7053184509277,57.0263671875 54.5361328125,54.5361328125 57.0263671875,51.705322265625 59.1357421875,48.57421875 60.838623046875,45.172119140625 62.109375,41.5283203125 62.900390625,37.686767578125 63.1640625,33.69140625 62.900390625,29.6960468292236 62.109375,25.8544921875 60.838623046875,22.210693359375 59.1357421875,18.80859375 57.0263671875,15.677490234375 54.5361328125,12.8466796875 51.7053184509277,10.3564453125 48.57421875,8.2470703125 45.1721153259277,6.54419231414795 41.5283203125,5.2734375 37.686767578125,4.48242473602295 33.69140625,4.21874952316284z M33.69140625,0L38.26171875,0.300295770168304 42.65625,1.20117139816284 46.8200645446777,2.65137004852295 50.6982421875,4.59960889816284 54.2687950134277,7.0166015625 57.509765625,9.873046875 60.3662109375,13.114013671875 62.783203125,16.6845703125 64.7314453125,20.562744140625 66.181640625,24.7265625 67.08251953125,29.1210956573486 67.3828125,33.69140625 67.08251953125,38.26171875 66.181640625,42.65625 64.7314453125,46.820068359375 62.783203125,50.6982421875 60.3662109375,54.268798828125 57.509765625,57.509765625 54.2687950134277,60.3662109375 50.6982421875,62.783203125 46.8200645446777,64.7314453125 42.65625,66.181640625 38.26171875,67.08251953125 33.69140625,67.3828125 29.12109375,67.08251953125 24.7265625,66.181640625 20.5627422332764,64.7314453125 16.6845703125,62.783203125 13.114013671875,60.3662109375 9.873046875,57.509765625 7.01660060882568,54.268798828125 4.599609375,50.6982421875 2.6513671875,46.820068359375 1.201171875,42.65625 0.300292611122131,38.26171875 0,33.69140625 0.300292611122131,29.1210956573486 1.201171875,24.7265625 2.6513671875,20.562744140625 4.599609375,16.6845703125 7.01660060882568,13.114013671875 9.873046875,9.873046875 13.114013671875,7.0166015625 16.6845703125,4.59960889816284 20.5627422332764,2.65137004852295 24.7265625,1.20117139816284 29.12109375,0.300295770168304 33.69140625,0z" />
    </g>
  </g>
</svg>