<?xml version="1.0" encoding="utf-8"?>
<!DOCTYPE svg PUBLIC "-//W3C//DTD SVG 1.1//EN" "http://www.w3.org/Graphics/SVG/1.1/DTD/svg11.dtd">
<svg width="67.3828125000023" height="67.3828125" xmlns="http://www.w3.org/2000/svg" xmlns:xlink="http://www.w3.org/1999/xlink" xmlns:xml="http://www.w3.org/XML/1998/namespace" version="1.1">
  <g>
    <g>
      <path style="fill:#FF0000;fill-opacity:1" d="M33.69140625,31.58203125L36.97265625,32.2412109375 39.638671875,34.04296875 41.4404296875,36.7236328125 42.099609375,40.01953125 42.099609375,46.318359375 41.4404296875,49.6142578125 39.638671875,52.294921875 36.97265625,54.0966796875 33.69140625,54.755859375 30.3955078125,54.0966796875 27.71484375,52.294921875 25.9130859375,49.6142578125 25.25390625,46.318359375 25.25390625,40.01953125 25.9130859375,36.7236328125 27.71484375,34.04296875 30.3955078125,32.2412109375 33.69140625,31.58203125z M59.94140625,25.283203125L58.80615234375,25.4772968292236 57.861328125,26.0595703125 56.8359375,28.037109375 56.7626953125,28.9306640625 56.7626953125,29.9853515625 56.7919921875,31.0400390625 56.806640625,31.93359375 56.806640625,40.83984375 50.5078125,47.16796875 49.5849609375,48.369140625 48.9404296875,49.7900390625 48.5595703125,51.3134765625 48.427734375,52.822265625 48.427734375,63.1640625 58.9453125,63.1640625 58.9013671875,59.9560546875 58.9306640625,56.7626953125 59.23828125,53.5986328125 60.05859375,50.478515625 61.0986328125,47.9150390625 62.109375,45.4248046875 62.87109375,42.8466796875 63.1640625,40.01953125 63.134765625,28.41796875 62.8857421875,27.2021484375 62.197265625,26.2060546875 61.171875,25.5322265625 59.94140625,25.283203125z M7.44140625,25.283203125L6.26220607757568,25.4846210479736 5.302734375,26.0888671875 4.248046875,28.125 4.1748046875,28.9453125 4.1748046875,29.912109375 4.2041015625,30.87890625 4.21875,31.69921875 4.21875,40.01953125 4.39453125,42.099609375 4.8779296875,44.267578125 5.5810546875,46.3916015625 6.416015625,48.310546875 7.6611328125,51.591796875 8.3203125,55.048828125 8.466796875,59.091796875 8.408203125,63.1640625 18.955078125,63.1640625 18.955078125,52.822265625 18.486328125,49.9658203125 17.138671875,47.431640625 16.0546875,46.2890625 14.912109375,45.17578125 10.576171875,40.83984375 10.576171875,28.41796875 10.3271484375,27.2021484375 9.6533203125,26.2060546875 8.6572265625,25.5322265625 7.44140625,25.283203125z M33.69140625,23.173828125L27.36328125,23.61328125 27.36328125,27.36328125 26.865234375,29.82421875 25.517578125,31.8310546875 23.525390625,33.193359375 21.064453125,33.69140625 18.5888671875,33.193359375 16.58203125,31.8310546875 15.234375,29.8095703125 14.736328125,27.333984375 13.6962890625,27.83203125 12.65625,28.359375 12.65625,39.9609375 18.369140625,45.673828125 19.5263671875,47.197265625 20.3759765625,48.9990234375 20.888671875,50.9326171875 21.064453125,52.822265625 21.064453125,60.3515625 27.216796875,62.4755859375 33.69140625,63.1640625 40.1513671875,62.4609375 46.318359375,60.3515625 46.318359375,52.822265625 46.494140625,50.9326171875 47.0068359375,48.9990234375 47.841796875,47.197265625 49.013671875,45.673828125 54.697265625,39.9609375 54.697265625,28.359375 53.6865234375,27.83203125 52.646484375,27.333984375 52.1484375,29.8095703125 50.80078125,31.8310546875 48.7939453125,33.193359375 46.318359375,33.69140625 43.857421875,33.193359375 41.865234375,31.8310546875 40.517578125,29.82421875 40.01953125,27.36328125 40.01953125,23.61328125 33.69140625,23.173828125z M46.318359375,16.845703125L44.677734375,17.1826171875 43.3447265625,18.0908203125 42.451171875,19.423828125 42.12890625,21.064453125 42.12890625,27.36328125 42.451171875,29.0185546875 43.3447265625,30.3662109375 44.677734375,31.259765625 46.318359375,31.58203125 47.958984375,31.259765625 49.2919921875,30.3662109375 50.2001953125,29.0185546875 50.537109375,27.36328125 50.537109375,21.064453125 50.2001953125,19.423828125 49.2919921875,18.0908203125 47.958984375,17.1826171875 46.318359375,16.845703125z M21.064453125,16.845703125L19.4091796875,17.1826171875 18.0615234375,18.0908203125 17.16796875,19.423828125 16.845703125,21.064453125 16.845703125,27.36328125 17.16796875,29.0185546875 18.0615234375,30.3662109375 19.4091796875,31.259765625 21.064453125,31.58203125 22.705078125,31.259765625 24.0380859375,30.3662109375 24.931640625,29.0185546875 25.25390625,27.36328125 25.25390625,21.064453125 24.931640625,19.423828125 24.0380859375,18.0908203125 22.705078125,17.1826171875 21.064453125,16.845703125z M33.69140625,0L38.111572265625,0.285647392272949 42.4072265625,1.142578125 46.5197715759277,2.53784465789795 50.390625,4.43847703933716 53.9831504821777,6.81885051727295 57.2607421875,9.6533203125 60.172119140625,12.916259765625 62.666015625,16.58203125 65.09765625,21.5625 65.537109375,22.91015625 66.005859375,24.228515625 66.2841796875,24.697265625 66.5625,25.166015625 67.15576171875,26.7260761260986 67.353515625,28.41796875 67.3828125,39.990234375 67.181396484375,42.6123046875 66.5771484375,45.205078125 64.74609375,50.15625 63.6181640625,53.291015625 63.1640625,56.572265625 63.1640625,67.3828125 44.208984375,67.3828125 44.208984375,65.68359375 39.0087890625,66.9580078125 33.69140625,67.3828125 28.3740234375,66.9580078125 23.173828125,65.68359375 23.173828125,67.3828125 4.21875,67.3828125 4.21875,56.513671875 3.7646484375,53.2470703125 2.63671875,50.15625 1.6552734375,47.75390625 0.8056640625,45.2490234375 0.219726085662842,42.6708984375 0,40.048828125 0.029296875,28.41796875 0.227050423622131,26.7334003448486 0.8203125,25.13671875 1.0986328125,24.66796875 1.376953125,24.19921875 1.845703125,22.880859375 2.28515625,21.533203125 3.3837890625,18.984375 4.6875,16.552734375 7.18505764007568,12.9052734375 10.107421875,9.638671875 13.39599609375,6.79687786102295 16.9921875,4.423828125 20.8630352020264,2.53418254852295 24.9755859375,1.142578125 29.271240234375,0.285647392272949 33.69140625,0z" />
    </g>
  </g>
</svg>