<?xml version="1.0" encoding="utf-8"?>
<!DOCTYPE svg PUBLIC "-//W3C//DTD SVG 1.1//EN" "http://www.w3.org/Graphics/SVG/1.1/DTD/svg11.dtd">
<svg width="67.3828125000004" height="67.3828125" xmlns="http://www.w3.org/2000/svg" xmlns:xlink="http://www.w3.org/1999/xlink" xmlns:xml="http://www.w3.org/XML/1998/namespace" version="1.1">
  <g>
    <g>
      <path style="fill:#FF0000;fill-opacity:1" d="M33.69140625,46.318359375L29.47265625,46.845703125 29.47265625,56.865234375 29.0478515625,59.8388671875 27.7734375,62.578125 30.7177734375,63.0322265625 33.69140625,63.1640625 36.650390625,63.0322265625 39.580078125,62.578125 38.32763671875,59.86083984375 37.91015625,56.865234375 37.91015625,46.845703125 33.69140625,46.318359375z M40.01953125,40.01953125L40.01953125,56.865234375 40.6787109375,60.146484375 42.48046875,62.8125 45.146484375,64.6142578125 48.427734375,65.2734375 50.3576622009277,65.050048828125 52.1630859375,64.3798828125 55.13671875,61.904296875 56.6748046875,61.171875 57.890625,60.0146484375 58.681640625,58.5498046875 58.974609375,56.865234375 58.5498046875,54.8291015625 57.4072265625,53.1591796875 55.7373046875,52.0166015625 53.701171875,51.591796875 52.44140625,51.767578125 52.587890625,51.15234375 52.646484375,50.537109375 52.3095703125,48.896484375 51.4013671875,47.5634765625 50.068359375,46.6552734375 48.427734375,46.318359375 46.69921875,46.69921875 40.01953125,40.01953125z M27.36328125,40.01953125L20.68359375,46.69921875 18.955078125,46.318359375 17.314453125,46.6552734375 15.9814453125,47.5634765625 15.0732421875,48.896484375 14.736328125,50.537109375 14.794921875,51.15234375 14.94140625,51.767578125 13.681640625,51.591796875 11.6162109375,52.001953125 9.9609375,53.1298828125 8.84765625,54.814453125 8.4375,56.865234375 8.7158203125,58.5498046875 9.4921875,60.029296875 10.693359375,61.1865234375 12.24609375,61.904296875 15.2197265625,64.3798828125 17.0251445770264,65.050048828125 18.955078125,65.2734375 22.236328125,64.6142578125 24.90234375,62.8125 26.7041015625,60.146484375 27.36328125,56.865234375 27.36328125,40.01953125z M37.91015625,27.36328125L40.01953125,27.36328125 40.4296875,29.4287109375 41.54296875,31.0986328125 43.1982421875,32.2265625 45.263671875,32.63671875 47.314453125,32.2265625 48.9990234375,31.0986328125 50.126953125,29.4287109375 50.537109375,27.36328125 52.646484375,27.36328125 52.646484375,28.41796875 52.060546875,31.2890625 50.478515625,33.6328125 48.134765625,35.21484375 45.263671875,35.80078125 42.392578125,35.21484375 40.048828125,33.6328125 38.4814453125,31.2890625 37.91015625,28.41796875 37.91015625,27.36328125z M14.736328125,27.36328125L16.845703125,27.36328125 17.255859375,29.4287109375 18.3837890625,31.0986328125 20.0537109375,32.2265625 22.119140625,32.63671875 24.169921875,32.2265625 25.83984375,31.0986328125 26.953125,29.4287109375 27.36328125,27.36328125 29.47265625,27.36328125 29.47265625,28.41796875 28.9013671875,31.2890625 27.333984375,33.6328125 24.990234375,35.21484375 22.119140625,35.80078125 19.248046875,35.21484375 16.904296875,33.6328125 15.322265625,31.2890625 14.736328125,28.41796875 14.736328125,27.36328125z M46.318359375,12.626953125L47.7978515625,13.2568359375 48.427734375,14.736328125 47.8125,16.23046875 39.404296875,24.66796875 37.91015625,25.283203125 36.416015625,24.66796875 35.80078125,23.173828125 36.416015625,21.6796875 44.82421875,13.2421875 46.318359375,12.626953125z M21.064453125,12.626953125L22.55859375,13.2421875 30.966796875,21.6796875 31.58203125,23.173828125 30.966796875,24.66796875 29.47265625,25.283203125 27.978515625,24.66796875 19.5703125,16.23046875 18.955078125,14.736328125 19.5703125,13.2421875 21.064453125,12.626953125z M33.69140625,4.21874952316284L29.696044921875,4.48242473602295 25.8544921875,5.2734375 22.2143535614014,6.54419231414795 18.8232421875,8.2470703125 15.699462890625,10.360107421875 12.861328125,12.861328125 10.360107421875,15.699462890625 8.2470703125,18.8232421875 6.54418849945068,22.21435546875 5.2734375,25.8544921875 4.482421875,29.6960468292236 4.21875,33.69140625 4.559326171875,38.22509765625 5.5810546875,42.626953125 7.26928615570068,46.81640625 9.609375,50.712890625 11.1181640625,49.9365234375 12.71484375,49.541015625 13.4765625,47.4169921875 14.853515625,45.732421875 16.7138671875,44.6337890625 18.955078125,44.23828125 20.068359375,44.326171875 29.47265625,34.921875 29.47265625,42.5390625 33.69140625,42.12890625 37.91015625,42.5390625 37.91015625,34.921875 47.314453125,44.326171875 48.427734375,44.23828125 50.654296875,44.6337890625 52.529296875,45.732421875 53.90625,47.40234375 54.66796875,49.541015625 56.2646484375,49.9365234375 57.7734375,50.712890625 60.113525390625,46.81640625 61.8017578125,42.626953125 62.823486328125,38.22509765625 63.1640625,33.69140625 62.900390625,29.6960468292236 62.109375,25.8544921875 60.838623046875,22.21435546875 59.1357421875,18.8232421875 57.022705078125,15.699462890625 54.521484375,12.861328125 51.6833457946777,10.360107421875 48.5595703125,8.2470703125 45.1684532165527,6.54419231414795 41.5283203125,5.2734375 37.686767578125,4.48242473602295 33.69140625,4.21874952316284z M33.69140625,0L38.26171875,0.300295770168304 42.65625,1.20117139816284 46.8200645446777,2.65137004852295 50.6982421875,4.59960889816284 54.2687950134277,7.0166015625 57.509765625,9.873046875 60.3662109375,13.114013671875 62.783203125,16.6845703125 64.7314453125,20.562744140625 66.181640625,24.7265625 67.08251953125,29.1210956573486 67.3828125,33.69140625 66.947021484375,39.166259765625 65.6396484375,44.4580078125 63.489990234375,49.464111328125 60.52734375,54.08203125 61.0546875,56.865234375 60.7177734375,59.0625 59.7802734375,61.0107421875 58.3154296875,62.5927734375 56.396484375,63.69140625 54.7558555603027,65.25146484375 52.822265625,66.416015625 50.6835899353027,67.14111328125 48.427734375,67.3828125 45.7397422790527,67.03857421875 43.2421875,66.005859375 38.49609375,67.03857421875 33.69140625,67.3828125 28.88671875,67.03857421875 24.140625,66.005859375 21.6430644989014,67.03857421875 18.955078125,67.3828125 16.6992168426514,67.14111328125 14.560546875,66.416015625 12.626953125,65.25146484375 10.986328125,63.69140625 9.0673828125,62.5927734375 7.587890625,61.0107421875 6.650390625,59.0625 6.328125,56.865234375 6.85546875,54.08203125 3.892822265625,49.464111328125 1.7431640625,44.4580078125 0.435790836811066,39.166259765625 0,33.69140625 0.300292611122131,29.1210956573486 1.201171875,24.7265625 2.6513671875,20.562744140625 4.599609375,16.6845703125 7.01660060882568,13.114013671875 9.873046875,9.873046875 13.114013671875,7.0166015625 16.6845703125,4.59960889816284 20.5627422332764,2.65137004852295 24.7265625,1.20117139816284 29.12109375,0.300295770168304 33.69140625,0z" />
    </g>
  </g>
</svg>