<?xml version="1.0" encoding="utf-8"?>
<!DOCTYPE svg PUBLIC "-//W3C//DTD SVG 1.1//EN" "http://www.w3.org/Graphics/SVG/1.1/DTD/svg11.dtd">
<svg width="67.3828125000004" height="67.3828125" xmlns="http://www.w3.org/2000/svg" xmlns:xlink="http://www.w3.org/1999/xlink" xmlns:xml="http://www.w3.org/XML/1998/namespace" version="1.1">
  <g>
    <g>
      <path style="fill:#FF0000;fill-opacity:1" d="M33.69140625,44.23828125L36.62109375,44.4580078125 39.84375,45.1025390625 42.9052734375,46.171875 45.380859375,47.6953125 46.083984375,48.45703125 46.318359375,49.453125 45.6884765625,50.9326171875 44.208984375,51.5625 43.6083984375,51.4599609375 43.037109375,51.2109375 42.626953125,51.005859375 40.4443359375,49.951171875 38.3935546875,49.1455078125 36.2255859375,48.6181640625 33.69140625,48.427734375 31.025390625,48.6328125 28.798828125,49.2041015625 26.689453125,50.0830078125 24.345703125,51.2109375 23.7744140625,51.4599609375 23.173828125,51.5625 21.6943359375,50.9326171875 21.064453125,49.453125 21.298828125,48.4716796875 22.001953125,47.6953125 24.5068359375,46.171875 27.5537109375,45.087890625 30.7470703125,44.443359375 33.69140625,44.23828125z M52.646484375,23.173828125L54.1259765625,23.8037109375 54.755859375,25.283203125 54.5434532165527,26.2280292510986 53.90625,26.953125 48.427734375,31.0546875 48.427734375,36.85546875 48.1787109375,38.0712890625 47.490234375,39.08203125 46.4794921875,39.7705078125 45.263671875,40.01953125 44.0478515625,39.7705078125 43.037109375,39.08203125 42.3486328125,38.0712890625 42.099609375,36.85546875 42.099609375,31.58203125 42.3486328125,30.64453125 42.94921875,29.912109375 51.38671875,23.583984375 52.646484375,23.173828125z M14.736328125,23.173828125L15.99609375,23.583984375 24.43359375,29.912109375 25.02685546875,30.6225605010986 25.224609375,31.58203125 25.25390625,36.85546875 25.0048828125,38.0712890625 24.3310546875,39.08203125 23.3349609375,39.7705078125 22.119140625,40.01953125 20.9033203125,39.7705078125 19.892578125,39.08203125 19.2041015625,38.0712890625 18.955078125,36.85546875 18.955078125,31.0546875 13.4765625,26.953125 12.83935546875,26.2280292510986 12.626953125,25.283203125 13.2421875,23.7890625 14.736328125,23.173828125z M33.69140625,4.21874952316284L29.696044921875,4.48242473602295 25.8544921875,5.2734375 22.2106914520264,6.54419231414795 18.80859375,8.2470703125 15.677490234375,10.3564453125 12.8466796875,12.8466796875 10.3564453125,15.677490234375 8.2470703125,18.80859375 6.54418849945068,22.210693359375 5.2734375,25.8544921875 4.482421875,29.6960468292236 4.21875,33.69140625 4.482421875,37.686767578125 5.2734375,41.5283203125 6.54418849945068,45.172119140625 8.2470703125,48.57421875 10.3564453125,51.705322265625 12.8466796875,54.5361328125 15.677490234375,57.0263671875 18.80859375,59.1357421875 22.2106914520264,60.838623046875 25.8544921875,62.109375 29.696044921875,62.900390625 33.69140625,63.1640625 37.686767578125,62.900390625 41.5283203125,62.109375 45.1721153259277,60.838623046875 48.57421875,59.1357421875 51.7053184509277,57.0263671875 54.5361328125,54.5361328125 57.0263671875,51.705322265625 59.1357421875,48.57421875 60.838623046875,45.172119140625 62.109375,41.5283203125 62.900390625,37.686767578125 63.1640625,33.69140625 62.900390625,29.6960468292236 62.109375,25.8544921875 60.838623046875,22.210693359375 59.1357421875,18.80859375 57.0263671875,15.677490234375 54.5361328125,12.8466796875 51.7053184509277,10.3564453125 48.57421875,8.2470703125 45.1721153259277,6.54419231414795 41.5283203125,5.2734375 37.686767578125,4.48242473602295 33.69140625,4.21874952316284z M33.69140625,0L38.26171875,0.300295770168304 42.65625,1.20117139816284 46.8200645446777,2.65137004852295 50.6982421875,4.59960889816284 54.2687950134277,7.0166015625 57.509765625,9.873046875 60.3662109375,13.114013671875 62.783203125,16.6845703125 64.7314453125,20.562744140625 66.181640625,24.7265625 67.08251953125,29.1210956573486 67.3828125,33.69140625 67.08251953125,38.26171875 66.181640625,42.65625 64.7314453125,46.820068359375 62.783203125,50.6982421875 60.3662109375,54.268798828125 57.509765625,57.509765625 54.2687950134277,60.3662109375 50.6982421875,62.783203125 46.8200645446777,64.7314453125 42.65625,66.181640625 38.26171875,67.08251953125 33.69140625,67.3828125 29.12109375,67.08251953125 24.7265625,66.181640625 20.5627422332764,64.7314453125 16.6845703125,62.783203125 13.114013671875,60.3662109375 9.873046875,57.509765625 7.01660060882568,54.268798828125 4.599609375,50.6982421875 2.6513671875,46.820068359375 1.201171875,42.65625 0.300292611122131,38.26171875 0,33.69140625 0.300292611122131,29.1210956573486 1.201171875,24.7265625 2.6513671875,20.562744140625 4.599609375,16.6845703125 7.01660060882568,13.114013671875 9.873046875,9.873046875 13.114013671875,7.0166015625 16.6845703125,4.59960889816284 20.5627422332764,2.65137004852295 24.7265625,1.20117139816284 29.12109375,0.300295770168304 33.69140625,0z" />
    </g>
  </g>
</svg>