<?xml version="1.0" encoding="utf-8"?>
<!DOCTYPE svg PUBLIC "-//W3C//DTD SVG 1.1//EN" "http://www.w3.org/Graphics/SVG/1.1/DTD/svg11.dtd">
<svg width="67.3828125000004" height="67.3828125" xmlns="http://www.w3.org/2000/svg" xmlns:xlink="http://www.w3.org/1999/xlink" xmlns:xml="http://www.w3.org/XML/1998/namespace" version="1.1">
  <g>
    <g>
      <path style="fill:#FF0000;fill-opacity:1" d="M33.69140625,44.208984375L37.353515625,44.765625 40.751953125,46.3916015625 43.2421875,49.04296875 43.9672813415527,50.73486328125 44.208984375,52.646484375 43.59375,54.140625 42.099609375,54.755859375 40.576171875,54.6240234375 39.052734375,54.31640625 33.69140625,53.73046875 28.330078125,54.31640625 26.806640625,54.6240234375 25.25390625,54.755859375 23.7890625,54.1259765625 23.173828125,52.646484375 23.4155254364014,50.73486328125 24.140625,49.04296875 26.6162109375,46.3916015625 30,44.765625 33.69140625,44.208984375z M42.099609375,40.01953125L48.427734375,40.01953125 50.830078125,40.1806640625 53.203125,40.60546875 56.9677734375,41.8212890625 60.146484375,43.7841796875 62.34375,46.6259765625 62.958984375,48.431396484375 63.1640625,50.537109375 62.578125,53.3935546875 60.99609375,55.7373046875 58.6669921875,57.333984375 55.810546875,57.919921875 53.0419921875,57.36328125 50.6982421875,55.8544921875 49.072265625,53.61328125 48.427734375,50.859375 48.427734375,48.427734375 47.9296875,45.966796875 46.5673828125,43.9599609375 44.560546875,42.59765625 42.099609375,42.099609375 42.099609375,40.01953125z M37.91015625,29.47265625L40.01953125,29.47265625 40.4296875,31.5234375 41.54296875,33.2080078125 43.1982421875,34.3359375 45.263671875,34.74609375 47.314453125,34.3359375 48.9990234375,33.2080078125 50.126953125,31.5380859375 50.537109375,29.47265625 52.646484375,29.47265625 52.646484375,30.52734375 52.060546875,33.3984375 50.478515625,35.7421875 48.134765625,37.3095703125 45.263671875,37.880859375 42.3779296875,37.3095703125 40.048828125,35.7421875 38.4814453125,33.4130859375 37.91015625,30.52734375 37.91015625,29.47265625z M14.736328125,29.47265625L16.845703125,29.47265625 17.255859375,31.5380859375 18.3837890625,33.2080078125 20.0537109375,34.3359375 22.119140625,34.74609375 24.169921875,34.3359375 25.83984375,33.2080078125 26.953125,31.5234375 27.36328125,29.47265625 29.47265625,29.47265625 29.47265625,30.52734375 28.9013671875,33.4130859375 27.333984375,35.7421875 24.990234375,37.3095703125 22.119140625,37.880859375 19.248046875,37.3095703125 16.904296875,35.7421875 15.322265625,33.3984375 14.736328125,30.52734375 14.736328125,29.47265625z M40.01953125,16.845703125L43.974609375,17.2705078125 47.8125,18.515625 51.298828125,20.537109375 54.228515625,23.26171875 54.755859375,24.66796875 54.580078125,25.458984375 54.1259765625,26.1328125 53.466796875,26.6015625 52.646484375,26.77734375 51.064453125,26.044921875 48.6584434509277,23.9392108917236 46.0693359375,22.3681640625 43.2165489196777,21.390380859375 40.01953125,21.064453125 38.525390625,20.44921875 37.91015625,18.955078125 38.525390625,17.4609375 40.01953125,16.845703125z M27.36328125,16.845703125L28.857421875,17.4609375 29.47265625,18.955078125 28.857421875,20.44921875 27.36328125,21.064453125 24.16259765625,21.390380859375 21.298828125,22.3681640625 18.7060527801514,23.9392108917236 16.318359375,26.044921875 14.736328125,26.77734375 13.2421875,26.1474609375 12.626953125,24.66796875 13.154296875,23.26171875 16.0693359375,20.537109375 19.5703125,18.515625 23.408203125,17.2705078125 27.36328125,16.845703125z M33.69140625,0L38.23974609375,0.300295770168304 42.626953125,1.20117139816284 46.7944297790527,2.65137004852295 50.68359375,4.59960889816284 54.2651329040527,7.0166015625 57.509765625,9.873046875 60.3662109375,13.11767578125 62.783203125,16.69921875 64.7314453125,20.58837890625 66.181640625,24.755859375 67.08251953125,29.1430683135986 67.3828125,33.69140625 66.708984375,40.400390625 64.716796875,46.845703125 63.544921875,44.47265625 61.845703125,42.451171875 62.83447265625,38.13720703125 63.1640625,33.69140625 62.900390625,29.6960468292236 62.109375,25.8544921875 60.838623046875,22.210693359375 59.1357421875,18.80859375 57.0263671875,15.677490234375 54.5361328125,12.8466796875 51.7053184509277,10.3564453125 48.57421875,8.2470703125 45.1721153259277,6.54419231414795 41.5283203125,5.2734375 37.686767578125,4.48242473602295 33.69140625,4.21874952316284 29.696044921875,4.48242473602295 25.8544921875,5.2734375 22.2106914520264,6.54419231414795 18.80859375,8.2470703125 15.677490234375,10.3564453125 12.8466796875,12.8466796875 10.3564453125,15.677490234375 8.2470703125,18.80859375 6.54418849945068,22.210693359375 5.2734375,25.8544921875 4.482421875,29.6960468292236 4.21875,33.69140625 4.482421875,37.686767578125 5.2734375,41.5283203125 6.54418849945068,45.172119140625 8.2470703125,48.57421875 10.3564453125,51.705322265625 12.8466796875,54.5361328125 15.677490234375,57.0263671875 18.80859375,59.1357421875 22.2106914520264,60.838623046875 25.8544921875,62.109375 29.696044921875,62.900390625 33.69140625,63.1640625 38.074951171875,62.84912109375 42.3193359375,61.904296875 46.3659629821777,60.3369140625 50.15625,58.154296875 52.3168907165527,59.35546875 54.755859375,59.970703125 50.0097618103027,63.167724609375 44.853515625,65.4931640625 39.38232421875,66.910400390625 33.69140625,67.3828125 29.124755859375,67.08251953125 24.7412109375,66.181640625 20.5847148895264,64.7314453125 16.69921875,62.783203125 13.11767578125,60.3662109375 9.873046875,57.509765625 7.01660060882568,54.26513671875 4.599609375,50.68359375 2.6513671875,46.79443359375 1.201171875,42.626953125 0.300292611122131,38.23974609375 0,33.69140625 0.300292611122131,29.1430683135986 1.201171875,24.755859375 2.6513671875,20.58837890625 4.599609375,16.69921875 7.01660060882568,13.11767578125 9.873046875,9.873046875 13.11767578125,7.0166015625 16.69921875,4.59960889816284 20.5847148895264,2.65137004852295 24.7412109375,1.20117139816284 29.124755859375,0.300295770168304 33.69140625,0z" />
    </g>
  </g>
</svg>