<?xml version="1.0" encoding="utf-8"?>
<!DOCTYPE svg PUBLIC "-//W3C//DTD SVG 1.1//EN" "http://www.w3.org/Graphics/SVG/1.1/DTD/svg11.dtd">
<svg width="67.3828125000004" height="67.3828125" xmlns="http://www.w3.org/2000/svg" xmlns:xlink="http://www.w3.org/1999/xlink" xmlns:xml="http://www.w3.org/XML/1998/namespace" version="1.1">
  <g>
    <g>
      <path style="fill:#FF0000;fill-opacity:1" d="M33.69140625,44.208984375L35.797119140625,44.417724609375 37.7783203125,45.0439453125 41.1181640625,47.314453125 43.3740234375,50.6689453125 44.0002403259277,52.650146484375 44.208984375,54.755859375 23.173828125,54.755859375 23.3789043426514,52.628173828125 23.994140625,50.6396484375 26.25,47.2998046875 29.58984375,45.0439453125 31.5673828125,44.417724609375 33.69140625,44.208984375z M12.626953125,33.69140625L19.775390625,46.083984375 20.712890625,48.2958984375 21.064453125,50.68359375 20.390625,53.9794921875 18.544921875,56.5869140625 15.8349609375,58.3154296875 12.5390625,58.9453125 9.2578125,58.30078125 6.6064453125,56.54296875 4.833984375,53.90625 4.189453125,50.625 4.423828125,48.662109375 5.09765625,46.81640625 5.712890625,45.732421875 6.328125,44.6484375 10.546875,37.265625 11.5576171875,35.4638671875 12.626953125,33.69140625z M45.29296875,29.47265625L46.5234375,29.7216796875 47.51953125,30.41015625 48.1787109375,31.4208984375 48.427734375,32.63671875 48.427734375,36.85546875 48.1787109375,38.1005859375 47.490234375,39.08203125 46.4794921875,39.7412109375 45.263671875,39.990234375 44.0478515625,39.7412109375 43.0517578125,39.0673828125 42.3779296875,38.0712890625 42.12890625,36.85546875 42.12890625,32.63671875 42.3779296875,31.40625 43.0517578125,30.3955078125 44.0478515625,29.7216796875 45.29296875,29.47265625z M22.119140625,29.47265625L23.349609375,29.7216796875 24.3603515625,30.3955078125 25.0341796875,31.40625 25.283203125,32.63671875 25.283203125,36.85546875 25.0341796875,38.1005859375 24.345703125,39.08203125 23.3349609375,39.7412109375 22.119140625,39.990234375 20.9033203125,39.7412109375 19.892578125,39.0673828125 19.2041015625,38.0712890625 18.955078125,36.85546875 18.955078125,32.63671875 19.2041015625,31.4208984375 19.892578125,30.41015625 20.9033203125,29.7216796875 22.119140625,29.47265625z M42.0703125,13.2421875L40.60546875,13.8720703125 39.990234375,15.3515625 40.517578125,16.7578125 43.4326171875,19.482421875 46.9482421875,21.50390625 50.80078125,22.7490234375 54.755859375,23.173828125 56.220703125,22.5439453125 56.8359375,21.064453125 56.220703125,19.5849609375 54.755859375,18.955078125 52.2436485290527,18.74267578125 49.8046875,18.10546875 47.5122032165527,17.0654296875 45.439453125,15.64453125 44.53125,14.8095703125 43.681640625,13.9453125 42.0703125,13.2421875z M25.25390625,13.2421875L23.671875,13.9453125 22.822265625,14.8095703125 21.9140625,15.64453125 19.8449687957764,17.0654296875 17.5634765625,18.10546875 15.135498046875,18.74267578125 12.626953125,18.955078125 11.1328125,19.5703125 10.517578125,21.064453125 11.1474609375,22.5439453125 12.626953125,23.173828125 16.58203125,22.7490234375 20.4345703125,21.50390625 23.935546875,19.482421875 26.8359375,16.7578125 27.392578125,15.322265625 26.748046875,13.857421875 25.25390625,13.2421875z M33.69140625,0L38.23974609375,0.300295770168304 42.626953125,1.20117139816284 46.7944297790527,2.65137004852295 50.68359375,4.59960889816284 54.2651329040527,7.0166015625 57.509765625,9.873046875 60.3662109375,13.11767578125 62.783203125,16.69921875 64.7314453125,20.58837890625 66.181640625,24.755859375 67.08251953125,29.1430683135986 67.3828125,33.69140625 67.08251953125,38.258056640625 66.181640625,42.6416015625 64.7314453125,46.798095703125 62.783203125,50.68359375 60.3662109375,54.26513671875 57.509765625,57.509765625 54.2651329040527,60.3662109375 50.68359375,62.783203125 46.7944297790527,64.7314453125 42.626953125,66.181640625 38.23974609375,67.08251953125 33.69140625,67.3828125 28.421630859375,66.97265625 23.3349609375,65.7421875 18.4973125457764,63.7353515625 13.974609375,60.99609375 16.5014629364014,60.37353515625 18.80859375,59.150390625 22.2985820770264,60.91552734375 25.9716796875,62.16796875 29.783935546875,62.9150390625 33.69140625,63.1640625 37.686767578125,62.900390625 41.5283203125,62.109375 45.1684532165527,60.84228515625 48.5595703125,59.150390625 51.6833457946777,57.052001953125 54.521484375,54.5654296875 57.022705078125,51.734619140625 59.1357421875,48.603515625 60.838623046875,45.205078125 62.109375,41.572265625 62.900390625,37.74169921875 63.1640625,33.75 56.59423828125,29.1687030792236 49.365234375,25.8544921875 41.6674766540527,23.8439960479736 33.69140625,23.173828125 25.71533203125,23.8439960479736 18.017578125,25.8544921875 10.78857421875,29.1687030792236 4.21875,33.75 4.4970703125,37.9248046875 5.390625,42.01171875 3.9697265625,44.47265625 2.75390625,47.021484375 0.688476383686066,40.49560546875 0,33.69140625 0.300292611122131,29.1430683135986 1.201171875,24.755859375 2.6513671875,20.58837890625 4.599609375,16.69921875 7.01660060882568,13.11767578125 9.873046875,9.873046875 13.11767578125,7.0166015625 16.69921875,4.59960889816284 20.5847148895264,2.65137004852295 24.7412109375,1.20117139816284 29.124755859375,0.300295770168304 33.69140625,0z" />
    </g>
  </g>
</svg>