<?xml version="1.0" encoding="utf-8"?>
<!DOCTYPE svg PUBLIC "-//W3C//DTD SVG 1.1//EN" "http://www.w3.org/Graphics/SVG/1.1/DTD/svg11.dtd">
<svg width="67.3828125000004" height="67.3828125" xmlns="http://www.w3.org/2000/svg" xmlns:xlink="http://www.w3.org/1999/xlink" xmlns:xml="http://www.w3.org/XML/1998/namespace" version="1.1">
  <g>
    <g>
      <path style="fill:#FF0000;fill-opacity:1" d="M45.263671875,35.80078125L46.494140625,36.0498046875 47.5048828125,36.7236328125 48.1787109375,37.734375 48.427734375,38.96484375 48.427734375,43.154296875 48.1787109375,44.3994140625 47.5048828125,45.3955078125 46.494140625,46.0693359375 45.263671875,46.318359375 44.0478515625,46.0693359375 43.037109375,45.380859375 42.3486328125,44.3701171875 42.099609375,43.154296875 42.099609375,38.96484375 42.3486328125,37.7490234375 43.037109375,36.73828125 44.0478515625,36.0498046875 45.263671875,35.80078125z M22.119140625,35.80078125L23.349609375,36.0498046875 24.345703125,36.73828125 25.0048828125,37.7490234375 25.25390625,38.96484375 25.25390625,43.154296875 25.0048828125,44.3701171875 24.345703125,45.380859375 23.349609375,46.0693359375 22.119140625,46.318359375 20.8740234375,46.0693359375 19.8779296875,45.3955078125 19.2041015625,44.3994140625 18.955078125,43.154296875 18.955078125,38.96484375 19.2041015625,37.734375 19.8779296875,36.7236328125 20.8740234375,36.0498046875 22.119140625,35.80078125z M33.69140625,16.845703125L37.3095703125,17.138671875 41.044921875,18.017578125 44.5751953125,19.4677734375 47.578125,21.474609375 48.2153282165527,22.2509765625 48.427734375,23.173828125 47.7978515625,24.638671875 46.318359375,25.25390625 45.5126953125,25.0634765625 44.6484375,24.609375 43.8134765625,24.052734375 43.06640625,23.5546875 38.5400390625,21.68701171875 33.69140625,21.064453125 28.8134765625,21.6943359375 24.287109375,23.5546875 23.525390625,24.052734375 22.6904296875,24.6240234375 21.8408203125,25.0927734375 21.03515625,25.283203125 19.5703125,24.6533203125 18.955078125,23.173828125 19.1674785614014,22.2509765625 19.8046875,21.474609375 22.8076171875,19.4677734375 26.337890625,18.017578125 30.0732421875,17.138671875 33.69140625,16.845703125z M33.69140625,4.21874952316284L29.696044921875,4.48242473602295 25.8544921875,5.2734375 22.2106914520264,6.54419231414795 18.80859375,8.2470703125 15.677490234375,10.3564453125 12.8466796875,12.8466796875 10.3564453125,15.677490234375 8.2470703125,18.80859375 6.54418849945068,22.210693359375 5.2734375,25.8544921875 4.482421875,29.6960468292236 4.21875,33.69140625 4.482421875,37.686767578125 5.2734375,41.5283203125 6.54418849945068,45.172119140625 8.2470703125,48.57421875 10.3564453125,51.705322265625 12.8466796875,54.5361328125 15.677490234375,57.0263671875 18.80859375,59.1357421875 22.2106914520264,60.838623046875 25.8544921875,62.109375 29.696044921875,62.900390625 33.69140625,63.1640625 37.686767578125,62.900390625 41.5283203125,62.109375 45.1721153259277,60.838623046875 48.57421875,59.1357421875 51.7053184509277,57.0263671875 54.5361328125,54.5361328125 57.0263671875,51.705322265625 59.1357421875,48.57421875 60.838623046875,45.172119140625 62.109375,41.5283203125 62.900390625,37.686767578125 63.1640625,33.69140625 62.900390625,29.6960468292236 62.109375,25.8544921875 60.838623046875,22.210693359375 59.1357421875,18.80859375 57.0263671875,15.677490234375 54.5361328125,12.8466796875 51.7053184509277,10.3564453125 48.57421875,8.2470703125 45.1721153259277,6.54419231414795 41.5283203125,5.2734375 37.686767578125,4.48242473602295 33.69140625,4.21874952316284z M33.69140625,0L38.26171875,0.300295770168304 42.65625,1.20117139816284 46.8200645446777,2.65137004852295 50.6982421875,4.59960889816284 54.2687950134277,7.0166015625 57.509765625,9.873046875 60.3662109375,13.114013671875 62.783203125,16.6845703125 64.7314453125,20.562744140625 66.181640625,24.7265625 67.08251953125,29.1210956573486 67.3828125,33.69140625 67.08251953125,38.26171875 66.181640625,42.65625 64.7314453125,46.820068359375 62.783203125,50.6982421875 60.3662109375,54.268798828125 57.509765625,57.509765625 54.2687950134277,60.3662109375 50.6982421875,62.783203125 46.8200645446777,64.7314453125 42.65625,66.181640625 38.26171875,67.08251953125 33.69140625,67.3828125 29.12109375,67.08251953125 24.7265625,66.181640625 20.5627422332764,64.7314453125 16.6845703125,62.783203125 13.114013671875,60.3662109375 9.873046875,57.509765625 7.01660060882568,54.268798828125 4.599609375,50.6982421875 2.6513671875,46.820068359375 1.201171875,42.65625 0.300292611122131,38.26171875 0,33.69140625 0.300292611122131,29.1210956573486 1.201171875,24.7265625 2.6513671875,20.562744140625 4.599609375,16.6845703125 7.01660060882568,13.114013671875 9.873046875,9.873046875 13.114013671875,7.0166015625 16.6845703125,4.59960889816284 20.5627422332764,2.65137004852295 24.7265625,1.20117139816284 29.12109375,0.300295770168304 33.69140625,0z" />
    </g>
  </g>
</svg>