<?xml version="1.0" encoding="utf-8"?>
<!DOCTYPE svg PUBLIC "-//W3C//DTD SVG 1.1//EN" "http://www.w3.org/Graphics/SVG/1.1/DTD/svg11.dtd">
<svg width="67.3828125000004" height="67.3828125" xmlns="http://www.w3.org/2000/svg" xmlns:xlink="http://www.w3.org/1999/xlink" xmlns:xml="http://www.w3.org/XML/1998/namespace" version="1.1">
  <g>
    <g>
      <path style="fill:#FF0000;fill-opacity:1" d="M8.18524837493896,48.427734375L8.2470703125,48.57421875 10.3564453125,51.705322265625 12.8466796875,54.5361328125 15.677490234375,57.0263671875 18.80859375,59.1357421875 22.2106914520264,60.838623046875 25.8544921875,62.109375 29.696044921875,62.900390625 33.69140625,63.1640625 37.686767578125,62.900390625 41.5283203125,62.109375 45.1721153259277,60.838623046875 48.57421875,59.1357421875 51.7053184509277,57.0263671875 54.5361328125,54.5361328125 57.0263671875,51.705322265625 59.1357421875,48.57421875 59.1975631713867,48.427734375 50.537109375,48.427734375 50.537109375,50.537109375 50.0390625,52.998046875 48.6767578125,55.0048828125 46.669921875,56.3671875 44.208984375,56.865234375 23.173828125,56.865234375 20.712890625,56.3671875 18.7060546875,55.0048828125 17.34375,52.998046875 16.845703125,50.537109375 16.845703125,48.427734375 8.18524837493896,48.427734375z M63.1640625,33.69140625L50.537109375,40.01953125 50.537109375,44.208984375 60.9780349731445,44.208984375 62.109375,41.5283203125 62.900390625,37.686767578125 63.1640625,33.69140625z M4.21875,33.69140625L4.482421875,37.686767578125 5.2734375,41.5283203125 6.40477752685547,44.208984375 16.845703125,44.208984375 16.845703125,40.01953125 4.21875,33.69140625z M37.91015625,25.283203125L40.01953125,25.283203125 40.4296875,27.3193359375 41.5576171875,28.9892578125 43.2275390625,30.1171875 45.263671875,30.52734375 47.314453125,30.1171875 48.9990234375,29.00390625 50.126953125,27.3486328125 50.537109375,25.283203125 52.646484375,25.283203125 52.646484375,26.30859375 52.060546875,29.1796875 50.478515625,31.5234375 48.134765625,33.10546875 45.263671875,33.69140625 42.392578125,33.10546875 40.048828125,31.5234375 38.4814453125,29.1796875 37.91015625,26.30859375 37.91015625,25.283203125z M14.736328125,25.283203125L16.845703125,25.283203125 17.255859375,27.3486328125 18.3837890625,29.00390625 20.0537109375,30.1171875 22.119140625,30.52734375 24.1552734375,30.1171875 25.8251953125,28.9892578125 26.953125,27.3193359375 27.36328125,25.283203125 29.47265625,25.283203125 29.47265625,26.30859375 28.9013671875,29.1796875 27.333984375,31.5234375 24.990234375,33.10546875 22.119140625,33.69140625 19.248046875,33.10546875 16.904296875,31.5234375 15.322265625,29.1796875 14.736328125,26.30859375 14.736328125,25.283203125z M42.12890625,8.4375L45.703125,14.6484365463257 46.34765625,16.93359375 46.0107421875,18.57421875 45.1025390625,19.892578125 43.76953125,20.771484375 42.12890625,21.09375 40.48828125,20.771484375 39.140625,19.892578125 38.2177734375,18.57421875 37.880859375,16.93359375 38.056640625,15.7470703125 38.5546875,14.6484365463257 42.12890625,8.4375z M33.69140625,4.21874952316284L29.696044921875,4.48242473602295 25.8544921875,5.2734375 22.2106914520264,6.54419231414795 18.80859375,8.2470703125 15.677490234375,10.3564453125 12.8466796875,12.8466796875 10.3564453125,15.677490234375 8.2470703125,18.80859375 6.54418849945068,22.210693359375 5.2734375,25.8544921875 4.74705219268799,29.7658252716064 16.845703125,35.80078125 50.537109375,35.80078125 62.6357574462891,29.7658252716064 62.109375,25.8544921875 60.838623046875,22.210693359375 59.1357421875,18.80859375 57.0263671875,15.677490234375 54.5361328125,12.8466796875 51.7053184509277,10.3564453125 48.57421875,8.2470703125 45.1721153259277,6.54419231414795 41.5283203125,5.2734375 37.686767578125,4.48242473602295 33.69140625,4.21874952316284z M33.69140625,0L38.26171875,0.300295770168304 42.65625,1.20117139816284 46.8200645446777,2.65137004852295 50.6982421875,4.59960889816284 54.2687950134277,7.0166015625 57.509765625,9.873046875 60.3662109375,13.114013671875 62.783203125,16.6845703125 64.7314453125,20.562744140625 66.181640625,24.7265625 67.08251953125,29.1210956573486 67.3828125,33.69140625 67.08251953125,38.26171875 66.181640625,42.65625 64.7314453125,46.820068359375 62.783203125,50.6982421875 60.3662109375,54.268798828125 57.509765625,57.509765625 54.2687950134277,60.3662109375 50.6982421875,62.783203125 46.8200645446777,64.7314453125 42.65625,66.181640625 38.26171875,67.08251953125 33.69140625,67.3828125 29.12109375,67.08251953125 24.7265625,66.181640625 20.5627422332764,64.7314453125 16.6845703125,62.783203125 13.114013671875,60.3662109375 9.873046875,57.509765625 7.01660060882568,54.268798828125 4.599609375,50.6982421875 2.6513671875,46.820068359375 1.201171875,42.65625 0.300292611122131,38.26171875 0,33.69140625 0.300292611122131,29.1210956573486 1.201171875,24.7265625 2.6513671875,20.562744140625 4.599609375,16.6845703125 7.01660060882568,13.114013671875 9.873046875,9.873046875 13.114013671875,7.0166015625 16.6845703125,4.59960889816284 20.5627422332764,2.65137004852295 24.7265625,1.20117139816284 29.12109375,0.300295770168304 33.69140625,0z" />
    </g>
  </g>
</svg>