<?xml version="1.0" encoding="utf-8"?>
<!DOCTYPE svg PUBLIC "-//W3C//DTD SVG 1.1//EN" "http://www.w3.org/Graphics/SVG/1.1/DTD/svg11.dtd">
<svg width="67.3828125000004" height="67.3828125" xmlns="http://www.w3.org/2000/svg" xmlns:xlink="http://www.w3.org/1999/xlink" xmlns:xml="http://www.w3.org/XML/1998/namespace" version="1.1">
  <g>
    <g>
      <path style="fill:#FF0000;fill-opacity:1" d="M21.064453125,48.427734375L21.884765625,48.6181640625 22.7490234375,49.0869140625 23.5693359375,49.658203125 24.287109375,50.15625 26.4111328125,51.240234375 28.8134765625,52.0166015625 31.3037109375,52.4853515625 33.69140625,52.646484375 36.1083984375,52.4853515625 38.5693359375,52.0166015625 40.9423828125,51.240234375 43.095703125,50.15625 43.8427734375,49.658203125 44.6630859375,49.0869140625 45.5126953125,48.6181640625 46.34765625,48.427734375 47.8271484375,49.04296875 48.427734375,50.537109375 48.193359375,51.4892578125 47.578125,52.236328125 44.736328125,54.2138671875 41.0595703125,55.6640625 37.1630859375,56.54296875 33.69140625,56.8359375 30.17578125,56.54296875 26.30859375,55.6640625 22.6611328125,54.228515625 19.8046875,52.236328125 19.1748046875,51.474609375 18.955078125,50.537109375 19.5849609375,49.0576171875 21.064453125,48.427734375z M37.91015625,33.69140625L40.01953125,33.69140625 40.4296875,35.7568359375 41.54296875,37.4267578125 43.1982421875,38.5546875 45.263671875,38.96484375 47.314453125,38.5546875 48.9990234375,37.4267578125 50.126953125,35.7568359375 50.537109375,33.69140625 52.646484375,33.69140625 52.646484375,34.74609375 52.060546875,37.6171875 50.478515625,39.9609375 48.134765625,41.54296875 45.263671875,42.12890625 42.392578125,41.54296875 40.048828125,39.9609375 38.4814453125,37.6171875 37.91015625,34.74609375 37.91015625,33.69140625z M14.736328125,33.69140625L16.845703125,33.69140625 17.255859375,35.7568359375 18.3837890625,37.4267578125 20.0537109375,38.5546875 22.119140625,38.96484375 24.169921875,38.5546875 25.83984375,37.4267578125 26.953125,35.7568359375 27.36328125,33.69140625 29.47265625,33.69140625 29.47265625,34.74609375 28.9013671875,37.6171875 27.333984375,39.9609375 24.990234375,41.54296875 22.119140625,42.12890625 19.248046875,41.54296875 16.904296875,39.9609375 15.322265625,37.6171875 14.736328125,34.74609375 14.736328125,33.69140625z M40.01953125,21.064453125L43.88671875,21.50390625 47.841796875,22.763671875 51.4453125,24.78515625 54.228515625,27.48046875 54.609375,28.125 54.755859375,28.857421875 54.1259765625,30.3515625 52.6171875,30.966796875 51.767578125,30.791015625 51.064453125,30.263671875 48.5302734375,28.1689453125 46.0693359375,26.6015625 43.330078125,25.6201171875 40.01953125,25.283203125 38.5400390625,24.6533203125 37.91015625,23.173828125 38.525390625,21.6796875 40.01953125,21.064453125z M27.36328125,21.064453125L28.857421875,21.6796875 29.47265625,23.173828125 28.8427734375,24.6533203125 27.36328125,25.283203125 24.0380859375,25.6201171875 21.3134765625,26.6015625 18.8525390625,28.1689453125 16.318359375,30.263671875 15.615234375,30.791015625 14.765625,30.966796875 13.271484375,30.3662109375 12.626953125,28.88671875 12.7734375,28.1396484375 13.154296875,27.48046875 15.9228515625,24.7998046875 19.541015625,22.7783203125 23.5107421875,21.50390625 27.36328125,21.064453125z M33.69140625,4.21874952316284L29.696044921875,4.48242473602295 25.8544921875,5.2734375 22.2106914520264,6.54419231414795 18.80859375,8.2470703125 15.677490234375,10.3564453125 12.8466796875,12.8466796875 10.3564453125,15.677490234375 8.2470703125,18.80859375 6.54418849945068,22.210693359375 5.2734375,25.8544921875 4.482421875,29.6960468292236 4.21875,33.69140625 4.482421875,37.686767578125 5.2734375,41.5283203125 6.54418849945068,45.172119140625 8.2470703125,48.57421875 10.3564453125,51.705322265625 12.8466796875,54.5361328125 15.677490234375,57.0263671875 18.80859375,59.1357421875 22.2106914520264,60.838623046875 25.8544921875,62.109375 29.696044921875,62.900390625 33.69140625,63.1640625 37.686767578125,62.900390625 41.5283203125,62.109375 45.1721153259277,60.838623046875 48.57421875,59.1357421875 51.7053184509277,57.0263671875 54.5361328125,54.5361328125 57.0263671875,51.705322265625 59.1357421875,48.57421875 60.838623046875,45.172119140625 62.109375,41.5283203125 62.900390625,37.686767578125 63.1640625,33.69140625 62.900390625,29.6960468292236 62.109375,25.8544921875 60.838623046875,22.210693359375 59.1357421875,18.80859375 57.0263671875,15.677490234375 54.5361328125,12.8466796875 51.7053184509277,10.3564453125 48.57421875,8.2470703125 45.1721153259277,6.54419231414795 41.5283203125,5.2734375 37.686767578125,4.48242473602295 33.69140625,4.21874952316284z M33.69140625,0L38.26171875,0.300295770168304 42.65625,1.20117139816284 46.8200645446777,2.65137004852295 50.6982421875,4.59960889816284 54.2687950134277,7.0166015625 57.509765625,9.873046875 60.3662109375,13.114013671875 62.783203125,16.6845703125 64.7314453125,20.562744140625 66.181640625,24.7265625 67.08251953125,29.1210956573486 67.3828125,33.69140625 67.08251953125,38.26171875 66.181640625,42.65625 64.7314453125,46.820068359375 62.783203125,50.6982421875 60.3662109375,54.268798828125 57.509765625,57.509765625 54.2687950134277,60.3662109375 50.6982421875,62.783203125 46.8200645446777,64.7314453125 42.65625,66.181640625 38.26171875,67.08251953125 33.69140625,67.3828125 29.12109375,67.08251953125 24.7265625,66.181640625 20.5627422332764,64.7314453125 16.6845703125,62.783203125 13.114013671875,60.3662109375 9.873046875,57.509765625 7.01660060882568,54.268798828125 4.599609375,50.6982421875 2.6513671875,46.820068359375 1.201171875,42.65625 0.300292611122131,38.26171875 0,33.69140625 0.300292611122131,29.1210956573486 1.201171875,24.7265625 2.6513671875,20.562744140625 4.599609375,16.6845703125 7.01660060882568,13.114013671875 9.873046875,9.873046875 13.114013671875,7.0166015625 16.6845703125,4.59960889816284 20.5627422332764,2.65137004852295 24.7265625,1.20117139816284 29.12109375,0.300295770168304 33.69140625,0z" />
    </g>
  </g>
</svg>