<?xml version="1.0" encoding="utf-8"?>
<!DOCTYPE svg PUBLIC "-//W3C//DTD SVG 1.1//EN" "http://www.w3.org/Graphics/SVG/1.1/DTD/svg11.dtd">
<svg width="36.181640625" height="43.0659484863281" xmlns="http://www.w3.org/2000/svg" xmlns:xlink="http://www.w3.org/1999/xlink" xmlns:xml="http://www.w3.org/XML/1998/namespace" version="1.1">
  <g>
    <g>
      <path style="fill:#FF0000;fill-opacity:1" d="M27.83203125,20.8589172363281L30.142822265625,21.1848449707031 32.0361328125,22.1626281738281 33.299560546875,23.6750793457031 33.720703125,25.6050109863281 33.380126953125,27.5679016113281 32.3583984375,29.4136047363281 30.487060546875,31.5303039550781 27.59765625,34.3061828613281 23.408203125,38.1440734863281 28.271484375,38.2026672363281 30.3369140625,38.1697082519531 31.669921875,38.0708312988281 33.3544921875,37.3091125488281 34.119873046875,36.4558410644531 34.98046875,35.1557922363281 36.181640625,35.7417297363281 34.130859375,39.1108703613281 33.39111328125,40.3559875488281 32.8125,41.2202453613281 31.728515625,41.2202453613281 31.318359375,40.5464172363281 30.3515625,40.4878234863281 22.20703125,40.4878234863281 19.5703125,40.6050109863281 19.130859375,40.0776672363281 21.884765625,37.6167297363281 25.2099590301514,34.4929504394531 27.978515625,31.5083312988281 29.84619140625,28.7873840332031 30.46875,26.4546203613281 30.186767578125,24.9568176269531 29.3408203125,23.8618469238281 28.070068359375,23.1916809082031 26.513671875,22.9682922363281 24.0893535614014,23.4370422363281 22.08984375,24.8432922363281 21.005859375,23.9936828613281 23.876953125,21.7817687988281 25.6567363739014,21.0896301269531 27.83203125,20.8589172363281z M9.9609375,2.75344848632813L10.25390625,3.72024536132813 8.71215724945068,4.08645629882813 7.8955078125,4.36477661132813 7.32421875,5.27297973632813 6.884765625,9.40383911132813 6.8408203125,11.8428058624268 6.826171875,14.8823547363281 6.851806640625,16.3472003936768 6.9287109375,18.2807922363281 7.064208984375,20.0093078613281 7.265625,20.8589172363281 7.6007080078125,21.1024475097656 8.31298828125,21.3056945800781 9.4024658203125,21.4686584472656 10.869140625,21.5913391113281 10.810546875,22.6167297363281 8.2470703125,22.4848937988281 6.884765625,22.4409484863281 4.910888671875,22.4482727050781 3.44238305091858,22.4702453613281 1.98852562904358,22.5215148925781 0.0585942268371582,22.6167297363281 0,21.5034484863281 1.36596703529358,21.4669418334961 2.29980492591858,21.298828125 3.31054711341858,20.4798889160156 3.541259765625,19.5879364013672 3.70605492591858,17.8477478027344 3.86718726158142,13.6216735839844 3.89648461341858,9.6295166015625 3.878173828125,7.75225639343262 3.82324194908142,6.36119842529297 3.73168921470642,5.45634269714355 3.60351538658142,5.03768920898438 2.57080054283142,4.70878601074219 0.175781488418579,4.59915161132813 0.1171875,3.66165161132813 2.35839915275574,3.54446411132813 4.74609375,3.39797973632813 7.236328125,3.11965942382813 9.9609375,2.75344848632813z M29.8841857910156,0L27.9212951660156,3.5009765625 26.690767288208,5.599365234375 25.1085662841797,8.291015625 23.5703067779541,10.9130878448486 22.4716186523438,12.802734375 21.4974956512451,14.5312519073486 20.3329467773438,16.669921875 13.9750671386719,28.6225891113281 13.5502481460571,29.4108581542969 12.8031349182129,30.8381652832031 11.7337274551392,32.9045104980469 10.3420257568359,35.6098937988281 8.97778987884521,38.2695007324219 7.99077987670898,40.1985168457031 7.38099575042725,41.3969421386719 7.1484375,41.8647766113281 4.62890625,43.0659484863281 3.77929711341858,42.7143859863281 4.6929931640625,41.3227844238281 5.88134765625,39.4038391113281 7.3443603515625,36.9575500488281 9.08203125,33.9839172363281 13.095703125,26.9197082519531 17.63671875,18.6763000488281 27.12890625,0.526885986328125 29.8841857910156,0z" />
    </g>
  </g>
</svg>