<?xml version="1.0" encoding="utf-8"?>
<!DOCTYPE svg PUBLIC "-//W3C//DTD SVG 1.1//EN" "http://www.w3.org/Graphics/SVG/1.1/DTD/svg11.dtd">
<svg width="20.3040580749512" height="57.041015625" xmlns="http://www.w3.org/2000/svg" xmlns:xlink="http://www.w3.org/1999/xlink" xmlns:xml="http://www.w3.org/XML/1998/namespace" version="1.1">
  <g>
    <g>
      <path style="fill:#FF0000;fill-opacity:1" d="M5.38009643554688,15.3364562988281L3.25698924064636,17.9006195068359 2.65995049476624,19.2961692810059 2.46093773841858,20.9921264648438 3.18534874916077,24.0250396728516 5.31692504882813,27.3948669433594 8.63525390625,31.3938903808594 10.7757568359375,33.9358520507813 11.1860837936401,34.4005393981934 11.8988800048828,35.2489471435547 13.9329528808594,37.7529144287109 14.8492813110352,38.8867378234863 15.2581787109375,39.3608093261719 16.9020080566406,37.2303771972656 17.2772598266602,36.0704040527344 17.40234375,34.3995666503906 17.186279296875,32.2364044189453 16.5380859375,30.1826477050781 15.4456901550293,28.0880355834961 13.8970184326172,25.8023071289063 11.6610136032104,22.9475784301758 8.50662231445313,19.1459655761719 6.36428833007813,16.6431446075439 5.38009643554688,15.3364562988281z M12.685546875,0L15.439453125,0.41015625 16.73583984375,1.00341796875 17.16796875,1.962890625 16.69921875,3.6181640625 16.13525390625,4.222412109375 15.380859375,4.423828125 14.608154296875,4.237060546875 12.8173828125,3.6767578125 10.9826650619507,3.116455078125 10.078125,2.9296875 7.67578125,3.5302734375 6.09375,5.1123046875 5.537109375,7.060546875 5.88083267211914,8.81469821929932 6.91200256347656,10.7373046875 8.91202926635742,13.3923358917236 12.1623229980469,17.34375 15.9750938415527,21.93603515625 18.4888458251953,25.576171875 19.874439239502,28.6962890625 20.302734375,31.728515625 20.017204284668,34.47509765625 19.1606140136719,36.62109375 17.805290222168,38.5107421875 16.0235595703125,40.48828125 17.5190734863281,43.43994140625 18.017578125,46.376953125 17.574462890625,48.9404296875 16.2451171875,51.474609375 14.278564453125,53.7451171875 11.923828125,55.517578125 9.48486232757568,56.66015625 7.265625,57.041015625 5.10498046875,56.79931640625 3.01757836341858,56.07421875 1.47949242591858,55.14404296875 0.966797351837158,54.287109375 1.16455101966858,53.5546875 1.75781273841858,52.646484375 2.58544945716858,51.8994140625 3.48632836341858,51.650390625 5.09765625,52.32421875 6.705322265625,53.345947265625 7.8369140625,53.9501953125 9.7265625,54.345703125 11.1877431869507,54.140625 12.4658203125,53.525390625 14.267578125,51.357421875 14.8828125,48.3984375 14.67041015625,46.611328125 14.033203125,44.70703125 12.7734375,42.5390625 10.693359375,39.9609375 8.056640625,36.884765625 5.21484375,33.62548828125 3.13476586341858,30.99609375 1.68090844154358,28.80615234375 0.7177734375,26.865234375 0,23.0859375 0.241699457168579,21.02783203125 0.966797351837158,18.955078125 2.35107445716858,16.7578125 4.5703125,14.326171875 3.49365210533142,12.2680683135986 3.13476586341858,10.078125 3.44604468345642,7.65014743804932 4.3798828125,5.2880859375 5.86669921875,3.17138671875 7.8369140625,1.4794921875 10.1550283432007,0.369873046875 12.685546875,0z" />
    </g>
  </g>
</svg>