<?xml version="1.0" encoding="utf-8"?>
<!DOCTYPE svg PUBLIC "-//W3C//DTD SVG 1.1//EN" "http://www.w3.org/Graphics/SVG/1.1/DTD/svg11.dtd">
<svg width="10.869140625" height="19.86328125" xmlns="http://www.w3.org/2000/svg" xmlns:xlink="http://www.w3.org/1999/xlink" xmlns:xml="http://www.w3.org/XML/1998/namespace" version="1.1">
  <g>
    <g>
      <path style="fill:#FF0000;fill-opacity:1" d="M9.9609375,0L10.25390625,0.966796875 8.71215724945068,1.3330078125 7.8955078125,1.611328125 7.32421875,2.51953125 7.119140625,4.17480516433716 6.97265625,6.32812595367432 6.884765625,8.97949314117432 6.85546875,12.12890625 6.881103515625,14.490966796875 6.9580078125,16.2744140625 7.086181640625,17.479248046875 7.265625,18.10546875 7.6007080078125,18.3489990234375 8.31298828125,18.55224609375 9.4024658203125,18.7152099609375 10.869140625,18.837890625 10.810546875,19.86328125 8.25439453125,19.7314453125 6.9140625,19.6875 0.05859375,19.86328125 0,18.75 1.365966796875,18.717155456543 2.2998046875,18.5600280761719 3.310546875,17.7264404296875 3.54125928878784,16.8344879150391 3.7060546875,15.0942993164063 3.8671875,10.8682250976563 3.896484375,6.87606811523438 3.87817358970642,4.99880790710449 3.82324171066284,3.60774993896484 3.73168921470642,2.70289421081543 3.603515625,2.28424072265625 2.57080030441284,1.95533752441406 0.17578125,1.845703125 0.1171875,0.908203125 2.3583984375,0.791015625 4.7900390625,0.64453125 7.2216796875,0.3662109375 9.9609375,0z" />
    </g>
  </g>
</svg>