<?xml version="1.0" encoding="utf-8"?>
<!DOCTYPE svg PUBLIC "-//W3C//DTD SVG 1.1//EN" "http://www.w3.org/Graphics/SVG/1.1/DTD/svg11.dtd">
<svg width="36.767578125" height="38.1227684020996" xmlns="http://www.w3.org/2000/svg" xmlns:xlink="http://www.w3.org/1999/xlink" xmlns:xml="http://www.w3.org/XML/1998/namespace" version="1.1">
  <g>
    <g>
      <path style="fill:#FF0000;fill-opacity:1" d="M24.7265625,0L27.1875,0.1171875 27.8173809051514,0.1318359375 29.12109375,0.17578125 30.41748046875,0.2197265625 31.025390625,0.234375 31.94091796875,0.2197265625 33.8671875,0.17578125 35.80810546875,0.1318359375 36.767578125,0.1171875 36.708984375,1.318359375 33.33984375,1.93359375 31.944580078125,2.8271484375 30.3955078125,4.453125 28.6267070770264,6.92871236801147 26.572265625,10.37109375 23.935546875,15.1171875 22.8515625,17.16796875 22.1337890625,18.544921875 21.123046875,20.44921875 33.955078125,20.44921875 33.955078125,22.20703125 21.123046875,22.20703125 21.181640625,27.0703125 33.955078125,27.0703125 33.955078125,28.798828125 21.181640625,28.798828125 21.181640625,29.6484375 21.207275390625,32.574462890625 21.2841796875,34.3212890625 21.456298828125,35.284423828125 21.767578125,35.859375 22.3388671875,36.21826171875 23.291015625,36.533203125 24.9755859375,36.9580078125 26.396484375,37.32421875 26.337890625,38.0859375 25.8984355926514,38.0419921875 24.111328125,37.91015625 22.32421875,37.79296875 20.390625,37.67578125 18.91845703125,37.734375 15.966796875,37.91015625 13.1103515625,38.115234375 12.2863759994507,37.94677734375 12.01171875,37.265625 14.150390625,36.9873046875 15.52734375,36.4453125 16.3330078125,35.577392578125 16.7578125,34.3212890625 16.9482421875,32.215576171875 17.05078125,28.798828125 4.62890625,28.798828125 4.62890625,27.0703125 17.05078125,27.0703125 17.05078125,22.20703125 4.62890625,22.20703125 4.62890625,20.44921875 16.9921875,20.44921875 14.8828125,16.962890625 13.8793935775757,15.29296875 12.392578125,12.744140625 10.90576171875,10.2832050323486 9.90234375,8.876953125 7.02392578125,5.40161228179932 5.244140625,3.3544921875 4.07958984375,2.24853515625 3.046875,1.5966796875 1.84570276737213,1.256103515625 0.17578125,1.083984375 0,0.05859375 2.87109375,0.05859375 3.75,0.0732421875 4.86328125,0.1171875 6.328125,0.1904296875 7.32421875,0.234375 9.43359375,0.17578125 12.71484375,0.05859375 14.091796875,0.1171875 13.974609375,1.259765625 12.2497549057007,1.435546875 11.1767578125,1.611328125 10.4296875,2.40234375 10.704345703125,3.2080078125 11.5283203125,4.74609375 13.974609375,8.7451171875 15.54931640625,11.1621112823486 17.578125,14.2236328125 19.365234375,16.929931640625 20.21484375,18.28125 22.265625,14.8828125 24.4921875,10.986328125 26.25,8.056640625 27.8759765625,5.1416015625 28.564453125,3.046875 28.3172588348389,2.1368408203125 27.5756816864014,1.51611328125 26.3397197723389,1.1846923828125 24.609375,1.142578125 24.7265625,0z" />
    </g>
  </g>
</svg>