<?xml version="1.0" encoding="utf-8"?>
<!DOCTYPE svg PUBLIC "-//W3C//DTD SVG 1.1//EN" "http://www.w3.org/Graphics/SVG/1.1/DTD/svg11.dtd">
<svg width="27.0703125" height="39.19921875" xmlns="http://www.w3.org/2000/svg" xmlns:xlink="http://www.w3.org/1999/xlink" xmlns:xml="http://www.w3.org/XML/1998/namespace" version="1.1">
  <g>
    <g>
      <path style="fill:#FF0000;fill-opacity:1" d="M20.361328125,0L22.37548828125,0.3515625 24.66796875,1.40625 25.341796875,1.69921875 26.337890625,1.142578125 27.0703125,1.875 26.5209941864014,2.49755859375 25.283203125,3.662109375 24.0527324676514,4.8046875 23.525390625,5.361328125 20.302734375,3.046875 18.50830078125,2.34375 16.81640625,2.109375 15.831298828125,2.314453125 14.6337890625,2.9296875 12.59765625,4.921875 11.9165029525757,6.66870212554932 11.455078125,9.3310546875 11.103515625,15.263671875 11.162109375,18.017578125 16.025390625,17.9013061523438 20.6689453125,17.6317977905273 23.935546875,17.1730041503906 23.9208965301514,18.0353164672852 23.349609375,18.9266967773438 18.072509765625,19.1057395935059 14.2529296875,19.2336273193359 11.890869140625,19.310359954834 10.986328125,19.3359375 10.9533681869507,23.206787109375 10.6787109375,26.0302734375 9.169921875,30.0732421875 7.67578125,32.098388671875 5.419921875,34.6875 9.1259765625,34.74609375 10.4882802963257,34.779052734375 11.3818359375,34.8193359375 12.7001953125,34.921875 13.5607900619507,35.01708984375 14.82421875,35.185546875 17.08740234375,35.361328125 18.603515625,35.419921875 20.830078125,35.2587890625 22.0166015625,34.7607421875 22.998046875,33.720703125 24.66796875,31.640625 25.751953125,32.16796875 25.2905254364014,32.96630859375 24.19921875,34.482421875 23.1445293426514,35.93994140625 22.79296875,36.5625 21.240234375,38.203125 19.16015625,38.759765625 16.640625,38.466796875 14.296875,38.056640625 9.375,37.646484375 4.716796875,37.96875 2.6220703125,38.408203125 1.142578125,39.08203125 0.908203125,39.19921875 0,38.466796875 2.40234375,36.053581237793 5.2734375,32.7333068847656 6.181640625,31.2416839599609 6.796875,29.2817687988281 7.1484375,26.634407043457 7.265625,23.0804443359375 7.20703125,19.541015625 6.273193359375,19.5268249511719 4.5849609375,19.6014404296875 2.933349609375,19.6907043457031 2.10937476158142,19.720458984375 1.69921851158142,19.6905899047852 0.117187261581421,19.6009826660156 0.909118890762329,18.0473327636719 2.63717651367188,18.3760070800781 3.71383666992188,18.3721733093262 4.36569213867188,18.3606719970703 5.6545262336731,18.2997894287109 7.1484375,18.193359375 7.276611328125,14.0954608917236 7.6025390625,11.0009765625 8.096923828125,8.73413276672363 8.73046875,7.119140625 10.576171875,4.6875 13.1872549057007,2.4169921875 15.8642578125,0.99609375 18.343505859375,0.2490234375 20.361328125,0z" />
    </g>
  </g>
</svg>