<?xml version="1.0" encoding="utf-8"?>
<!DOCTYPE svg PUBLIC "-//W3C//DTD SVG 1.1//EN" "http://www.w3.org/Graphics/SVG/1.1/DTD/svg11.dtd">
<svg width="15.087890625" height="13.681640625" xmlns="http://www.w3.org/2000/svg" xmlns:xlink="http://www.w3.org/1999/xlink" xmlns:xml="http://www.w3.org/XML/1998/namespace" version="1.1">
  <g>
    <g>
      <path style="fill:#FF0000;fill-opacity:1" d="M6.9305419921875,1.142578125L5.23269605636597,1.490478515625 3.878173828125,2.5341796875 2.99102783203125,4.083251953125 2.6953125,5.947265625 3.07502746582031,8.32397651672363 4.21417236328125,10.5322265625 5.87905883789063,12.1252460479736 7.83599853515625,12.65625 9.62499618530273,12.2973651885986 11.0781097412109,11.220703125 12.0419874191284,9.55810737609863 12.36328125,7.44140625 11.6331481933594,4.39453125 9.66156005859375,2.05078125 8.35807800292969,1.36962890625 6.9305419921875,1.142578125z M7.822265625,0L9.730224609375,0.22705078125 11.4697265625,0.908203125 14.1064453125,3.3251953125 14.842529296875,4.918212890625 15.087890625,6.6796875 14.571533203125,9.29443550109863 13.0224609375,11.572265625 10.6457509994507,13.1542987823486 7.646484375,13.681640625 4.87792921066284,13.2495136260986 2.373046875,11.953125 0.593261659145355,9.84375190734863 0,6.97265625 0.267333924770355,4.991455078125 1.0693359375,3.2666015625 2.325439453125,1.8603515625 3.955078125,0.8349609375 5.830078125,0.208740234375 7.822265625,0z" />
    </g>
  </g>
</svg>