<?xml version="1.0" encoding="utf-8"?>
<!DOCTYPE svg PUBLIC "-//W3C//DTD SVG 1.1//EN" "http://www.w3.org/Graphics/SVG/1.1/DTD/svg11.dtd">
<svg width="8.20312500000218" height="35.21484375" xmlns="http://www.w3.org/2000/svg" xmlns:xlink="http://www.w3.org/1999/xlink" xmlns:xml="http://www.w3.org/XML/1998/namespace" version="1.1">
  <g>
    <g>
      <path style="fill:#FF0000;fill-opacity:1" d="M3.779296875,10.927734375L4.98046875,11.103515625 4.78271436691284,17.7392578125 4.716796875,25.751953125 4.74609327316284,28.70361328125 4.833984375,30.46875 5.11962842941284,31.435546875 5.625,31.9921875 6.298828125,32.6953125 5.68359375,33.193359375 5.00976514816284,33.4405517578125 3.89648389816284,33.85986328125 2.34374976158142,34.4512939453125 0.35156238079071,35.21484375 0,34.8046875 0.0585938692092896,34.248046875 2.8125,17.51953125 2.9315185546875,16.7742919921875 3.11279296875,15.53466796875 3.3563232421875,13.8006591796875 3.662109375,11.572265625 3.779296875,10.927734375z M4.43847703933716,0L5.343017578125,0.612945556640625 6.30615234375,2.04277038574219 7.56088256835938,2.91824340820313 8.203125,3.7646484375 8.01338195800781,4.19837951660156 7.44415283203125,4.676513671875 6.24767303466797,5.61744689941406 5.22628784179688,7.0880126953125 4.43847703933716,7.55859375 3.68843078613281,7.0733642578125 3.40896606445313,6.41189575195313 2.3573682308197,5.16929626464844 1.49688708782196,4.50027465820313 0.835189461708069,4.05921936035156 0.76171863079071,3.6474609375 1.26159632205963,2.91778564453125 2.48989105224609,2.06451416015625 3.58566284179688,0.67108154296875 4.43847703933716,0z" />
    </g>
  </g>
</svg>