<?xml version="1.0" encoding="utf-8"?>
<!DOCTYPE svg PUBLIC "-//W3C//DTD SVG 1.1//EN" "http://www.w3.org/Graphics/SVG/1.1/DTD/svg11.dtd">
<svg width="28.4179687500002" height="35.9765625" xmlns="http://www.w3.org/2000/svg" xmlns:xlink="http://www.w3.org/1999/xlink" xmlns:xml="http://www.w3.org/XML/1998/namespace" version="1.1">
  <g>
    <g>
      <path style="fill:#FF0000;fill-opacity:1" d="M1.81640601158142,0L5.771484375,0 5.771484375,14.033203125 6.00528621673584,16.9189453125 6.70669555664063,18.779296875 8.32168579101563,20.16357421875 10.6526184082031,20.625 12.1904172897339,20.4345703125 13.7065887451172,19.86328125 15.5443382263184,18.62548828125 18.046875,16.435546875 18.046875,0 21.9140625,0 21.9140625,14.794921875 21.9561767578125,16.6928100585938 22.08251953125,18.197021484375 22.2930908203125,19.3075561523438 22.587890625,20.0244140625 23.3715801239014,20.804443359375 24.375,21.064453125 25.8984375,20.390625 26.5356426239014,19.24072265625 27.158203125,17.138671875 28.41796875,17.138671875 27.9272441864014,19.89990234375 26.982421875,21.796875 25.0927715301514,23.40087890625 22.763671875,23.935546875 21.024169921875,23.616943359375 19.6142578125,22.6611328125 18.599853515625,20.914306640625 18.046875,18.22265625 15.5286598205566,20.66162109375 13.1201934814453,22.412109375 10.8213605880737,23.466796875 8.63204956054688,23.818359375 6.82634305953979,23.594970703125 5.38627624511719,22.9248046875 4.23139572143555,21.807861328125 3.28124976158142,20.244140625 3.28124976158142,21.416015625 3.33984351158142,24.609375 3.51562476158142,27.333984375 3.68408179283142,28.26416015625 4.072265625,29.765625 4.55566310882568,31.79443359375 4.71679592132568,33.134765625 4.013671875,35.2001953125 3.25927710533142,35.782470703125 2.40234327316284,35.9765625 1.51611304283142,35.782470703125 0.732421398162842,35.2001953125 0,33.193359375 0.153808400034904,31.93359375 0.61523425579071,29.970703125 1.23046851158142,27.1875 1.69921875,21.26953125 1.81640601158142,12.451171875 1.81640601158142,0z" />
    </g>
  </g>
</svg>