<?xml version="1.0" encoding="utf-8"?>
<!DOCTYPE svg PUBLIC "-//W3C//DTD SVG 1.1//EN" "http://www.w3.org/Graphics/SVG/1.1/DTD/svg11.dtd">
<svg width="19.2480468750001" height="19.189453125" xmlns="http://www.w3.org/2000/svg" xmlns:xlink="http://www.w3.org/1999/xlink" xmlns:xml="http://www.w3.org/XML/1998/namespace" version="1.1">
  <g>
    <g>
      <path style="fill:#FF0000;fill-opacity:1" d="M9.580078125,2.578125L6.93603515625,3.0897331237793 4.6875,4.62455749511719 3.1494140625,6.87566900253296 2.63671875,9.5361328125 3.145751953125,12.1819515228271 4.6728515625,14.4477081298828 6.917724609375,16.0045051574707 9.580078125,16.5234375 12.24609375,16.0118293762207 14.501953125,14.4770050048828 16.0400390625,12.2185726165771 16.552734375,9.5361328125 16.314697265625,7.7090277671814 15.6005859375,6.02806091308594 13.0078125,3.4991455078125 11.3305654525757,2.80838012695313 9.580078125,2.578125z M9.638671875,0L13.359375,0.7470703125 16.4501953125,2.783203125 18.5009765625,5.830078125 19.248046875,9.609375 18.515625,13.330078125 16.4208984375,16.3916015625 13.3154296875,18.45703125 9.638671875,19.189453125 7.1484375,18.870849609375 4.833984375,17.9150390625 2.838134765625,16.41357421875 1.3037109375,14.4580078125 0.325927555561066,12.1545429229736 0,9.609375 0.325927555561066,7.07885885238647 1.3037109375,4.7607421875 2.838134765625,2.783203125 4.833984375,1.2744140625 7.1484375,0.318603515625 9.638671875,0z" />
    </g>
  </g>
</svg>