<?xml version="1.0" encoding="utf-8"?>
<!DOCTYPE svg PUBLIC "-//W3C//DTD SVG 1.1//EN" "http://www.w3.org/Graphics/SVG/1.1/DTD/svg11.dtd">
<svg width="17.021484375" height="20.33203125" xmlns="http://www.w3.org/2000/svg" xmlns:xlink="http://www.w3.org/1999/xlink" xmlns:xml="http://www.w3.org/XML/1998/namespace" version="1.1">
  <g>
    <g>
      <path style="fill:#FF0000;fill-opacity:1" d="M8.701171875,0L11.689453125,0.5859375 13.798828125,2.255859375 14.3701162338257,3.42041015625 14.560546875,4.74609375 14.2199697494507,6.70898580551147 13.1982421875,8.5546875 11.3269033432007,10.6713886260986 8.4375,13.447265625 4.248046875,17.28515625 9.111328125,17.34375 11.1767568588257,17.30712890625 12.509765625,17.197265625 14.1796875,16.4501953125 14.9414052963257,15.604248046875 15.8203125,14.267578125 17.021484375,14.8828125 15,18.251953125 14.1577138900757,19.63623046875 13.681640625,20.33203125 12.59765625,20.33203125 12.24609375,19.74609375 11.220703125,19.62890625 3.04687523841858,19.62890625 0.410156190395355,19.74609375 0,19.189453125 2.75390625,16.728515625 6.50939893722534,13.2293710708618 9.19189357757568,10.2026386260986 10.8013906478882,7.64831638336182 11.337890625,5.56640625 11.0485830307007,4.10888671875 10.1806640625,3.017578125 8.895263671875,2.33642578125 7.353515625,2.109375 4.7900390625,2.607421875 2.9296875,3.955078125 1.845703125,3.10546875 3.4716796875,1.746826171875 5.15625,0.7763671875 6.8994140625,0.194091796875 8.701171875,0z" />
    </g>
  </g>
</svg>