<?xml version="1.0" encoding="utf-8"?>
<!DOCTYPE svg PUBLIC "-//W3C//DTD SVG 1.1//EN" "http://www.w3.org/Graphics/SVG/1.1/DTD/svg11.dtd">
<svg width="31.259765625" height="51.328125" xmlns="http://www.w3.org/2000/svg" xmlns:xlink="http://www.w3.org/1999/xlink" xmlns:xml="http://www.w3.org/XML/1998/namespace" version="1.1">
  <g>
    <g>
      <path style="fill:#FF0000;fill-opacity:1" d="M28.88671875,12.890625L28.359375,17.9296875 27.9272441864014,19.8193378448486 27.392578125,20.44921875 26.66015625,20.009765625 26.6894512176514,19.6435565948486 26.77734375,18.896484375 26.8652324676514,18.15673828125 26.89453125,17.8125 26.2536602020264,16.06201171875 24.3310546875,15.087890625 21.514892578125,14.6484375 18.193359375,14.501953125 9.19921875,15.087890625 8.8037109375,19.56298828125 8.671875,23.26171875 8.701171875,28.2421875 8.72314453125,30.3076171875 8.73046875,30.87890625 10.15869140625,30.9228515625 13.037109375,30.9375 15.8990478515625,30.9228515625 18.27392578125,30.87890625 20.1617431640625,30.8056640625 21.5625,30.703125 22.6647930145264,30.5419921875 23.3349609375,30.3515625 24.19921875,29.3115234375 24.6313457489014,28.253173828125 25.107421875,26.748046875 25.95703125,26.806640625 25.9423828125,32.255859375 25.8984375,37.763671875 24.873046875,37.763671875 24.6276836395264,35.478515625 24.0673828125,34.013671875 23.0163555145264,33.1494140625 21.298828125,32.666015625 20.0738525390625,32.537841796875 18.44970703125,32.4462890625 16.4263916015625,32.391357421875 14.00390625,32.373046875 11.0009765625,32.4462890625 8.73046875,32.666015625 8.61328125,36.826171875 8.5693359375,40.4168701171875 8.642578125,43.57177734375 8.8330078125,46.2908935546875 9.140625,48.57421875 10.3985595703125,48.896484375 11.788330078125,49.1748046875 13.6754608154297,49.3798828125 16.7472839355469,49.482421875 20.8467864990234,49.31396484375 23.9588928222656,48.80859375 26.2701396942139,47.9296875 27.9670715332031,46.640625 29.25807762146,44.81689453125 30.3515625,42.333984375 31.259765625,42.333984375 30.76904296875,45.120849609375 30.234375,47.3876953125 28.798828125,51.2109375 26.162109375,51.0791015625 24.1552715301514,51.046142578125 21.474609375,51.03515625 17.578125,50.9765625 16.09130859375,50.9326171875 15.791015625,50.91796875 11.3525390625,50.9619140625 8.558349609375,51.024169921875 5.244140625,51.123046875 2.14599609375,51.23291015625 0,51.328125 0.0590516328811646,50.33203125 1.91780066490173,49.8779296875 3.20114183425903,49.3359375 3.68797302246094,48.6181640625 3.98300123214722,47.080078125 4.15615081787109,45.516357421875 4.32128953933716,43.0517578125 4.5849609375,36.50390625 4.654541015625,33.55224609375 4.658203125,31.962890625 4.453125,22.646484375 4.324951171875,19.013671875 4.11621141433716,16.787109375 3.753662109375,15.52001953125 3.1640625,14.765625 2.14599585533142,14.296875 0.498047232627869,13.88671875 0.55664074420929,13.125 19.3359375,13.125 21.119384765625,13.1103515625 23.3056640625,13.06640625 25.894775390625,12.9931640625 28.88671875,12.890625z M14.8068237304688,0L17.4490356445313,0 23.291015625,10.4296875 21.9113159179688,10.4296875 16.1865234375,4.13085985183716 10.3445434570313,10.4296875 8.96484375,10.4296875 14.8068237304688,0z" />
    </g>
  </g>
</svg>