<?xml version="1.0" encoding="utf-8"?>
<!DOCTYPE svg PUBLIC "-//W3C//DTD SVG 1.1//EN" "http://www.w3.org/Graphics/SVG/1.1/DTD/svg11.dtd">
<svg width="26.162109375" height="32.841796875" xmlns="http://www.w3.org/2000/svg" xmlns:xlink="http://www.w3.org/1999/xlink" xmlns:xml="http://www.w3.org/XML/1998/namespace" version="1.1">
  <g>
    <g>
      <path style="fill:#FF0000;fill-opacity:1" d="M7.11776733398438,9.19921875L7.529296875,9.7265625 7.1630859375,14.765625 7.00286817550659,17.46826171875 6.88842725753784,19.599609375 6.81976270675659,21.15966796875 6.796875,22.1484375 7.01608610153198,25.177001953125 7.67372131347656,27.6416015625 9.13496017456055,29.278564453125 11.7649841308594,29.82421875 13.8839721679688,29.4873046875 16.4263916015625,28.4619140625 18.69140625,27.36328125 18.71337890625,25.554084777832 18.779296875,24.5036315917969 18.955078125,18.5220336914063 18.955078125,16.2059783935547 18.779296875,14.68505859375 18.394775390625,13.762264251709 17.7685546875,13.2405853271484 16.776123046875,12.9852104187012 15.29296875,12.861328125 15.234375,11.7333984375 23.056640625,9.90234375 22.7490234375,14.9267578125 22.4560546875,20.0390625 22.357177734375,22.412109375 22.32421875,24.08203125 22.46337890625,27.71484375 22.880859375,30.05859375 26.162109375,29.35546875 26.162109375,30.673828125 19.4297790527344,32.841796875 18.9793395996094,30.9814453125 18.6323547363281,28.681640625 15.3244962692261,30.2838134765625 12.5649251937866,31.42822265625 10.3536405563354,32.1148681640625 8.69064331054688,32.34375 6.81930541992188,31.8976593017578 4.94796752929688,30.5593872070313 4.14004325866699,29.4587802886963 3.58806610107422,27.9413223266602 3.29203605651855,26.0070133209229 3.251953125,23.6558532714844 3.486328125,17.0745849609375 3.482666015625,15.5279159545898 3.3544921875,14.3980407714844 2.977294921875,13.7069320678711 2.22656297683716,13.4765625 1.40625011920929,13.67431640625 0,14.267578125 0,13.0517578125 6.529541015625,9.43450927734375 7.11776733398438,9.19921875z M18.251953125,0L19.8779296875,0.6884765625 20.537109375,2.28515625 19.86328125,3.837890625 18.251953125,4.51171875 16.6845703125,3.8525390625 16.025390625,2.28515625 16.69921875,0.673828125 18.251953125,0z M8.994140625,0L10.60546875,0.6884765625 11.220703125,2.28515625 10.5908203125,3.8232421875 8.994140625,4.51171875 7.3828125,3.837890625 6.708984375,2.28515625 7.3681640625,0.6884765625 8.994140625,0z" />
    </g>
  </g>
</svg>