<?xml version="1.0" encoding="utf-8"?>
<!DOCTYPE svg PUBLIC "-//W3C//DTD SVG 1.1//EN" "http://www.w3.org/Graphics/SVG/1.1/DTD/svg11.dtd">
<svg width="26.162109375" height="37.32421875" xmlns="http://www.w3.org/2000/svg" xmlns:xlink="http://www.w3.org/1999/xlink" xmlns:xml="http://www.w3.org/XML/1998/namespace" version="1.1">
  <g>
    <g>
      <path style="fill:#FF0000;fill-opacity:1" d="M7.11776733398438,13.681640625L7.529296875,14.208984375 7.1630859375,19.248046875 7.00286817550659,21.95068359375 6.88842725753784,24.08203125 6.81976270675659,25.64208984375 6.796875,26.630859375 7.01608610153198,29.659423828125 7.67372131347656,32.1240234375 9.13496017456055,33.760986328125 11.7649841308594,34.306640625 13.8839721679688,33.9697265625 16.4263916015625,32.9443359375 18.69140625,31.845703125 18.71337890625,30.036506652832 18.779296875,28.9860534667969 18.955078125,23.0044555664063 18.955078125,20.6884002685547 18.779296875,19.16748046875 18.394775390625,18.244686126709 17.7685546875,17.7230072021484 16.776123046875,17.4676322937012 15.29296875,17.34375 15.234375,16.2158203125 23.056640625,14.384765625 22.7490234375,19.4091796875 22.4560546875,24.521484375 22.357177734375,26.89453125 22.32421875,28.564453125 22.46337890625,32.197265625 22.880859375,34.541015625 26.162109375,33.837890625 26.162109375,35.15625 19.4297790527344,37.32421875 18.9793395996094,35.4638671875 18.6323547363281,33.1640625 15.3244962692261,34.7662353515625 12.5649251937866,35.91064453125 10.3536405563354,36.5972900390625 8.69064331054688,36.826171875 6.81930541992188,36.3800811767578 4.94796752929688,35.0418090820313 4.14004325866699,33.9412002563477 3.58806610107422,32.4237442016602 3.29203605651855,30.4894351959229 3.251953125,28.1382751464844 3.48632860183716,21.5570068359375 3.482666015625,20.0103378295898 3.3544921875,18.8804626464844 2.977294921875,18.1893539428711 2.22656297683716,17.958984375 1.40625011920929,18.15673828125 0,18.75 0,17.5341796875 6.529541015625,13.9169311523438 7.11776733398438,13.681640625z M16.376953125,0L20.44921875,0 12.01171875,10.4296875 10.60546875,10.4296875 16.376953125,0z" />
    </g>
  </g>
</svg>