<?xml version="1.0" encoding="utf-8"?>
<!DOCTYPE svg PUBLIC "-//W3C//DTD SVG 1.1//EN" "http://www.w3.org/Graphics/SVG/1.1/DTD/svg11.dtd">
<svg width="23.583984375" height="32.28515625" xmlns="http://www.w3.org/2000/svg" xmlns:xlink="http://www.w3.org/1999/xlink" xmlns:xml="http://www.w3.org/XML/1998/namespace" version="1.1">
  <g>
    <g>
      <path style="fill:#FF0000;fill-opacity:1" d="M10.78125,10.986328125L8.8916015625,11.25732421875 7.20703125,12.0703125 5.797119140625,13.36669921875 4.7314453125,15.087890625 4.061279296875,17.13134765625 3.83789086341858,19.39453125 4.10888671875,22.11181640625 4.921875,24.814453125 6.221923828125,27.26806640625 7.9541015625,29.23828125 10.0012197494507,30.53466796875 12.24609375,30.966796875 14.20166015625,30.684814453125 15.966796875,29.8388671875 17.46826171875,28.472900390625 18.6328125,26.630859375 19.3798828125,24.41162109375 19.62890625,21.9140625 19.339599609375,19.281005859375 18.4716796875,16.7138671875 17.0947265625,14.4140625 15.2783203125,12.5830078125 13.135986328125,11.385498046875 10.78125,10.986328125z M12.24609375,9.55078125L14.498291015625,9.76318359375 16.6259765625,10.400390625 20.244140625,12.744140625 22.6904296875,16.2744140625 23.3605937957764,18.387451171875 23.583984375,20.654296875 23.2214336395264,23.60595703125 22.1337890625,26.3671875 20.38330078125,28.773193359375 18.0322265625,30.6591796875 15.179443359375,31.878662109375 11.923828125,32.28515625 9.276123046875,31.99951171875 6.5478515625,31.142578125 3.9990234375,29.652099609375 1.88964867591858,27.4658203125 0.472412317991257,24.583740234375 0,21.005859375 0.238037317991257,18.548583984375 0.952148675918579,16.3330078125 3.57421898841858,12.71484375 7.470703125,10.37109375 9.77783203125,9.755859375 12.24609375,9.55078125z M16.435546875,0L18.0615234375,0.6884765625 18.720703125,2.28515625 18.046875,3.837890625 16.435546875,4.51171875 14.8681640625,3.8525390625 14.208984375,2.28515625 14.8828125,0.673828125 16.435546875,0z M7.177734375,0L8.7890625,0.6884765625 9.404296875,2.28515625 8.7744140625,3.8232421875 7.177734375,4.51171875 5.56640625,3.837890625 4.892578125,2.28515625 5.5517578125,0.6884765625 7.177734375,0z" />
    </g>
  </g>
</svg>