<?xml version="1.0" encoding="utf-8"?>
<!DOCTYPE svg PUBLIC "-//W3C//DTD SVG 1.1//EN" "http://www.w3.org/Graphics/SVG/1.1/DTD/svg11.dtd">
<svg width="44.8828125" height="39.19921875" xmlns="http://www.w3.org/2000/svg" xmlns:xlink="http://www.w3.org/1999/xlink" xmlns:xml="http://www.w3.org/XML/1998/namespace" version="1.1">
  <g>
    <g>
      <path style="fill:#FF0000;fill-opacity:1" d="M41.07421875,14.619140625L42.333984375,14.8681640625 43.359375,15.556640625 44.0478515625,16.58203125 44.296875,17.841796875 44.0478515625,19.1015625 43.359375,20.126953125 42.333984375,20.8154296875 41.07421875,21.064453125 39.814453125,20.8154296875 38.7890625,20.126953125 38.1005859375,19.1015625 37.8515625,17.841796875 38.1005859375,16.58203125 38.7890625,15.556640625 39.814453125,14.8681640625 41.07421875,14.619140625z M3.80859327316284,14.619140625L5.068359375,14.8681640625 6.09375,15.556640625 6.7822265625,16.58203125 7.03125,17.841796875 6.7822265625,19.1015625 6.09375,20.126953125 5.068359375,20.8154296875 3.80859327316284,21.064453125 2.54882836341858,20.8154296875 1.52343773841858,20.126953125 0.8349609375,19.1015625 0.58593761920929,17.841796875 0.8349609375,16.58203125 1.52343773841858,15.556640625 2.54882836341858,14.8681640625 3.80859327316284,14.619140625z M22.44140625,8.671875L7.587890625,34.8046875 37.294921875,34.8046875 22.44140625,8.671875z M21.708984375,0L23.173828125,0 44.8828125,38.291015625 44.8828125,39.19921875 0,39.19921875 0,38.291015625 21.708984375,0z" />
    </g>
  </g>
</svg>