<?xml version="1.0" encoding="utf-8"?>
<!DOCTYPE svg PUBLIC "-//W3C//DTD SVG 1.1//EN" "http://www.w3.org/Graphics/SVG/1.1/DTD/svg11.dtd">
<svg width="53.935546875" height="51.62109375" xmlns="http://www.w3.org/2000/svg" xmlns:xlink="http://www.w3.org/1999/xlink" xmlns:xml="http://www.w3.org/XML/1998/namespace" version="1.1">
  <g>
    <g>
      <path style="fill:#FF0000;fill-opacity:1" d="M41.54296875,0L46.611328125,0.571288466453552 50.5224609375,2.28515625 53.0419921875,5.14160060882568 53.7121543884277,6.998291015625 53.935546875,9.140625 53.61328125,11.3818359375 52.67578125,13.828125 48.10546875,12.158203125 48.5888671875,10.83984375 48.779296875,9.462890625 48.4130859375,7.64648342132568 47.16796875,6.09374904632568 44.794921875,5.0244140625 43.10302734375,4.727783203125 41.015625,4.62890625 35.68359375,5.0244140625 30.8935546875,6.03515625 26.7626953125,7.3828125 23.4375,8.7890625 23.4375,19.658203125 27.24609375,17.9296875 31.0546875,16.640625 34.6728515625,15.849609375 37.91015625,15.5859375 42.5390625,16.23046875 46.0400390625,18.0615234375 48.2666015625,20.947265625 48.8488731384277,22.7490253448486 49.04296875,24.755859375 48.7646446228027,26.9165058135986 47.9296875,29.23828125 43.359375,27.65625 43.740234375,26.396484375 43.88671875,25.078125 43.5205078125,23.26171875 42.275390625,21.708984375 39.90234375,20.625 38.21044921875,20.3173847198486 36.123046875,20.21484375 32.3876953125,20.56640625 28.974609375,21.4453125 25.9716796875,22.6171875 23.4375,23.876953125 23.4375,47.2265625 32.98828125,47.2265625 32.98828125,51.62109375 8.96484375,51.62109375 8.96484375,47.2265625 18.515625,47.2265625 18.515625,8.23242092132568 15.5126953125,7.353515625 13.406982421875,7.02392578125 10.810546875,6.9140625 8.2470703125,7.32421875 6.4892578125,8.408203125 5.47851514816284,9.9609375 5.15625,11.77734375 5.302734375,13.095703125 5.68359375,14.35546875 1.11328125,15.9375 0.278320252895355,13.61572265625 0,11.455078125 0.194091811776161,9.4482421875 0.776367664337158,7.64648342132568 3.0029296875,4.76074123382568 6.50390625,2.92968678474426 11.1328125,2.28515625 13.5791015625,2.431640625 16.0693359375,2.88574194908142 18.75,3.70605444908142 21.767578125,4.921875 26.89453125,2.82714819908142 32.1826171875,1.27441382408142 37.20703125,0.322265326976776 41.54296875,0z" />
    </g>
  </g>
</svg>