<?xml version="1.0" encoding="utf-8"?>
<!DOCTYPE svg PUBLIC "-//W3C//DTD SVG 1.1//EN" "http://www.w3.org/Graphics/SVG/1.1/DTD/svg11.dtd">
<svg width="49.6875" height="50.91796875" xmlns="http://www.w3.org/2000/svg" xmlns:xlink="http://www.w3.org/1999/xlink" xmlns:xml="http://www.w3.org/XML/1998/namespace" version="1.1">
  <g>
    <g>
      <path style="fill:#FF0000;fill-opacity:1" d="M38.349609375,35.859375L39.609375,36.1083984375 40.634765625,36.796875 41.3232421875,37.822265625 41.572265625,39.08203125 41.3232421875,40.341796875 40.634765625,41.3671875 39.609375,42.0556640625 38.349609375,42.3046875 37.08984375,42.0556640625 36.064453125,41.3671875 35.3759765625,40.341796875 35.126953125,39.08203125 35.3759765625,37.822265625 36.064453125,36.796875 37.08984375,36.1083984375 38.349609375,35.859375z M38.349609375,18.45703125L39.609375,18.7060546875 40.634765625,19.39453125 41.3232421875,20.419921875 41.572265625,21.6796875 41.3232421875,22.939453125 40.634765625,23.96484375 39.609375,24.6533203125 38.349609375,24.90234375 37.08984375,24.6533203125 36.064453125,23.96484375 35.3759765625,22.939453125 35.126953125,21.6796875 35.3759765625,20.419921875 36.064453125,19.39453125 37.08984375,18.7060546875 38.349609375,18.45703125z M0,0L24.609375,0 24.609375,4.39453125 14.765625,4.39453125 14.765625,28.154296875 44.765625,28.154296875 44.765625,20.80078125 49.6875,20.80078125 49.6875,39.9609375 44.765625,39.9609375 44.765625,32.548828125 31.93359375,32.548828125 31.93359375,46.5234375 41.77734375,46.5234375 41.77734375,50.91796875 17.16796875,50.91796875 17.16796875,46.5234375 27.01171875,46.5234375 27.01171875,32.548828125 9.84375,32.548828125 9.84375,4.39453125 0,4.39453125 0,0z" />
    </g>
  </g>
</svg>