<?xml version="1.0" encoding="utf-8"?>
<!DOCTYPE svg PUBLIC "-//W3C//DTD SVG 1.1//EN" "http://www.w3.org/Graphics/SVG/1.1/DTD/svg11.dtd">
<svg width="54.755859375" height="47.2265625" xmlns="http://www.w3.org/2000/svg" xmlns:xlink="http://www.w3.org/1999/xlink" xmlns:xml="http://www.w3.org/XML/1998/namespace" version="1.1">
  <g>
    <g>
      <path style="fill:#FF0000;fill-opacity:1" d="M51.533203125,40.78125L52.79296875,41.0302734375 53.818359375,41.71875 54.5068359375,42.744140625 54.755859375,44.00390625 54.5068359375,45.263671875 53.818359375,46.2890625 52.79296875,46.9775390625 51.533203125,47.2265625 50.2734375,46.9775390625 49.248046875,46.2890625 48.5595703125,45.263671875 48.310546875,44.00390625 48.5595703125,42.744140625 49.248046875,41.71875 50.2734375,41.0302734375 51.533203125,40.78125z M51.533203125,10.107421875L52.79296875,10.3564453125 53.818359375,11.044921875 54.5068359375,12.0703125 54.755859375,13.330078125 54.5068359375,14.58984375 53.818359375,15.615234375 52.79296875,16.3037109375 51.533203125,16.552734375 50.2734375,16.3037109375 49.248046875,15.615234375 48.5595703125,14.58984375 48.310546875,13.330078125 48.5595703125,12.0703125 49.248046875,11.044921875 50.2734375,10.3564453125 51.533203125,10.107421875z M26.953125,4.62890625L25.3747539520264,4.85595703125 23.9794921875,5.537109375 22.7746562957764,6.639404296875 21.767578125,8.1298828125 20.390625,12.2021484375 19.921875,17.548828125 20.390625,22.2454833984375 21.796875,26.43310546875 24.140625,30.1116943359375 27.421875,33.28125 30.29296875,29.9908447265625 32.34375,26.27197265625 33.57421875,22.1246337890625 33.984375,17.548828125 33.515625,12.2021484375 32.138671875,8.1298828125 31.131591796875,6.639404296875 29.9267578125,5.537109375 28.5314922332764,4.85595703125 26.953125,4.62890625z M26.953125,0L29.6044921875,0.314941346645355 31.9921875,1.25976514816284 34.07958984375,2.779541015625 35.830078125,4.8193359375 37.232666015625,7.353515625 38.2763671875,10.3564453125 38.924560546875,13.7731943130493 39.140625,17.548828125 38.61328125,22.763671875 37.119140625,27.802734375 34.74609375,32.40234375 31.58203125,36.26953125 34.541015625,37.20703125 37.5,37.470703125 39.638671875,37.254638671875 41.66015625,36.6064453125 45.1904296875,34.1748046875 47.8564453125,30.3955078125 49.453125,25.458984375 54.609375,25.458984375 53.7048301696777,29.08447265625 52.3974609375,32.34375 50.7128868103027,35.196533203125 48.6767578125,37.6025390625 46.3110313415527,39.532470703125 43.6376953125,40.95703125 40.689697265625,41.8359375 37.5,42.12890625 34.87060546875,41.934814453125 32.314453125,41.3525390625 27.3046875,39.08203125 22.294921875,41.3525390625 19.73876953125,41.934814453125 17.109375,42.12890625 13.919677734375,41.8359375 10.9716796875,40.95703125 8.29833984375,39.532470703125 5.93261766433716,37.6025390625 3.896484375,35.196533203125 2.21191382408142,32.34375 0.904541015625,29.08447265625 0,25.458984375 5.15625,25.458984375 6.7236328125,30.3955078125 9.3896484375,34.1748046875 12.9345703125,36.6064453125 14.967041015625,37.254638671875 17.109375,37.470703125 20.068359375,37.20703125 23.02734375,36.26953125 19.412841796875,32.5506591796875 16.8310546875,28.19091796875 15.281982421875,23.1903076171875 14.765625,17.548828125 14.981689453125,13.7951669692993 15.6298828125,10.3857421875 16.67724609375,7.3828125 18.0908203125,4.8486328125 19.8486328125,2.80517578125 21.9287109375,1.27441453933716 24.3054180145264,0.318603575229645 26.953125,0z" />
    </g>
  </g>
</svg>