<?xml version="1.0" encoding="utf-8"?>
<!DOCTYPE svg PUBLIC "-//W3C//DTD SVG 1.1//EN" "http://www.w3.org/Graphics/SVG/1.1/DTD/svg11.dtd">
<svg width="52.3828125" height="50.91796875" xmlns="http://www.w3.org/2000/svg" xmlns:xlink="http://www.w3.org/1999/xlink" xmlns:xml="http://www.w3.org/XML/1998/namespace" version="1.1">
  <g>
    <g>
      <path style="fill:#FF0000;fill-opacity:1" d="M41.044921875,35.859375L42.3046875,36.1083984375 43.330078125,36.796875 44.0185546875,37.822265625 44.267578125,39.08203125 44.0185546875,40.341796875 43.330078125,41.3671875 42.3046875,42.0556640625 41.044921875,42.3046875 39.78515625,42.0556640625 38.759765625,41.3671875 38.0712890625,40.341796875 37.822265625,39.08203125 38.0712890625,37.822265625 38.759765625,36.796875 39.78515625,36.1083984375 41.044921875,35.859375z M41.044921875,18.45703125L42.3046875,18.7060546875 43.330078125,19.39453125 44.0185546875,20.419921875 44.267578125,21.6796875 44.0185546875,22.939453125 43.330078125,23.96484375 42.3046875,24.6533203125 41.044921875,24.90234375 39.78515625,24.6533203125 38.759765625,23.96484375 38.0712890625,22.939453125 37.822265625,21.6796875 38.0712890625,20.419921875 38.759765625,19.39453125 39.78515625,18.7060546875 41.044921875,18.45703125z M0,0L4.921875,0 4.921875,7.35351514816284 34.62890625,7.35351514816284 34.62890625,28.154296875 47.4609375,28.154296875 47.4609375,20.80078125 52.3828125,20.80078125 52.3828125,39.9609375 47.4609375,39.9609375 47.4609375,32.548828125 34.62890625,32.548828125 34.62890625,46.5234375 44.47265625,46.5234375 44.47265625,50.91796875 19.86328125,50.91796875 19.86328125,46.5234375 29.70703125,46.5234375 29.70703125,11.748046875 4.921875,11.748046875 4.921875,19.16015625 0,19.16015625 0,0z" />
    </g>
  </g>
</svg>