<?xml version="1.0" encoding="utf-8"?>
<!DOCTYPE svg PUBLIC "-//W3C//DTD SVG 1.1//EN" "http://www.w3.org/Graphics/SVG/1.1/DTD/svg11.dtd">
<svg width="48.515625" height="52.32421875" xmlns="http://www.w3.org/2000/svg" xmlns:xlink="http://www.w3.org/1999/xlink" xmlns:xml="http://www.w3.org/XML/1998/namespace" version="1.1">
  <g>
    <g>
      <path style="fill:#FF0000;fill-opacity:1" d="M24.2578125,6.15234375L21.80419921875,8.49609375 20.068359375,11.484375 19.03564453125,14.99267578125 18.69140625,18.896484375 19.1455078125,22.55859375 20.361328125,25.458984375 22.1337890625,27.3779296875 24.2578125,28.06640625 26.3818359375,27.3779296875 28.154296875,25.458984375 29.3701171875,22.55859375 29.82421875,18.896484375 29.4799785614014,14.99267578125 28.447265625,11.484375 26.7114238739014,8.49609375 24.2578125,6.15234375z M16.9921875,0L20.771484375,0.380859076976776 24.2578125,1.43554711341858 27.744140625,0.380859076976776 31.5234375,0 34.683837890625,0.245364189147949 37.6025390625,0.981445372104645 40.24658203125,2.19360637664795 42.5830078125,3.86718773841858 44.600830078125,6.009521484375 46.2890625,8.6279296875 47.6074180603027,11.700439453125 48.515625,15.205078125 43.59375,15.205078125 41.8359375,10.51025390625 39.140625,7.1484375 35.654296875,5.126953125 31.5234375,4.45312547683716 29.443359375,4.62890577316284 31.8658447265625,7.4542236328125 33.59619140625,10.77392578125 34.6343994140625,14.5880126953125 34.98046875,18.896484375 34.39453125,23.5986328125 32.724609375,27.4951171875 30.1171875,30.41015625 26.71875,32.16796875 26.71875,41.015625 27.0703125,44.208984375 28.125,46.2744140625 29.853515625,47.373046875 32.197265625,47.6953125 34.62890625,47.16796875 36.328125,45.732421875 37.32421875,43.6376953125 37.646484375,41.162109375 37.646484375,38.4375 42.099609375,38.4375 42.099609375,41.3671875 41.455078125,45.5126953125 39.55078125,48.9990234375 36.4453125,51.416015625 34.46044921875,52.09716796875 32.197265625,52.32421875 28.1689453125,51.7529296875 24.8583984375,49.86328125 23.5876445770264,48.336181640625 22.6171875,46.3916015625 22.001953125,43.985595703125 21.796875,41.07421875 21.796875,32.16796875 18.3984375,30.41015625 15.791015625,27.4951171875 14.12109375,23.5986328125 13.53515625,18.896484375 13.8812255859375,14.5880126953125 14.91943359375,10.77392578125 16.6497802734375,7.4542236328125 19.072265625,4.62890577316284 16.9921875,4.45312547683716 12.83203125,5.12695360183716 9.345703125,7.1484375 6.6650390625,10.517578125 4.921875,15.205078125 0,15.205078125 0.90820300579071,11.700439453125 2.22656202316284,8.6279296875 3.914794921875,6.009521484375 5.93261766433716,3.86718773841858 8.26904296875,2.19360637664795 10.9130859375,0.981445372104645 13.831787109375,0.245364189147949 16.9921875,0z" />
    </g>
  </g>
</svg>