<?xml version="1.0" encoding="utf-8"?>
<!DOCTYPE svg PUBLIC "-//W3C//DTD SVG 1.1//EN" "http://www.w3.org/Graphics/SVG/1.1/DTD/svg11.dtd">
<svg width="61.7578125" height="36.50390625" xmlns="http://www.w3.org/2000/svg" xmlns:xlink="http://www.w3.org/1999/xlink" xmlns:xml="http://www.w3.org/XML/1998/namespace" version="1.1">
  <g>
    <g>
      <path style="fill:#FF0000;fill-opacity:1" d="M51.328125,4.39453125L49.072265625,4.86328125 47.2265625,6.1376953125 45.9814453125,8.0126953125 45.52734375,10.283203125 45.9814453125,12.5537109375 47.2265625,14.4287109375 49.072265625,15.703125 51.328125,16.171875 53.61328125,15.703125 55.4443359375,14.443359375 56.6748046875,12.5830078125 57.12890625,10.283203125 56.6748046875,8.0126953125 55.4296875,6.1376953125 53.583984375,4.86328125 51.328125,4.39453125z M10.4296875,4.39453125L8.173828125,4.86328125 6.328125,6.1376953125 5.0830078125,8.0126953125 4.62890577316284,10.283203125 5.0830078125,12.5830078125 6.3134765625,14.443359375 8.14453125,15.703125 10.4296875,16.171875 12.685546875,15.703125 14.53125,14.4287109375 15.7763671875,12.5537109375 16.23046875,10.283203125 15.7763671875,8.0126953125 14.53125,6.1376953125 12.685546875,4.86328125 10.4296875,4.39453125z M10.4296875,0L14.0478515625,0.615234375 17.080078125,2.3291015625 19.3359375,4.9072265625 20.625,8.0859375 41.1328125,8.0859375 42.421875,4.9072265625 44.677734375,2.3291015625 47.7099609375,0.615234375 51.328125,0 53.5693321228027,0.216064453125 55.60546875,0.8642578125 58.9013671875,3.1494140625 61.0107421875,6.4306640625 61.7578125,10.283203125 61.5417442321777,12.4951171875 60.8935546875,14.501953125 58.59375,17.75390625 55.2685546875,19.833984375 51.328125,20.56640625 47.7099609375,19.951171875 44.677734375,18.251953125 42.421875,15.6884765625 41.1328125,12.48046875 38.73046875,12.48046875 40.5615234375,18.4716796875 41.143798828125,21.712646484375 41.337890625,25.1953125 41.143798828125,27.45849609375 40.5615234375,29.501953125 38.3935546875,32.8857421875 35.068359375,35.2587890625 30.8203125,36.50390625 29.794921875,32.34375 32.548828125,31.552734375 34.62890625,30.2783203125 35.947265625,28.2275390625 36.416015625,25.107421875 36.20361328125,21.84814453125 35.56640625,18.69140625 33.544921875,12.48046875 27.3046875,12.48046875 29.1357421875,18.4716796875 29.7180156707764,21.712646484375 29.912109375,25.1953125 29.7180156707764,27.45849609375 29.1357421875,29.501953125 26.9677734375,32.8857421875 23.642578125,35.2587890625 19.39453125,36.50390625 18.369140625,32.34375 21.123046875,31.552734375 23.203125,30.2783203125 24.521484375,28.2275390625 24.990234375,25.107421875 24.7741680145264,21.84814453125 24.1259765625,18.69140625 22.119140625,12.48046875 20.625,12.48046875 19.3359375,15.6884765625 17.080078125,18.251953125 14.0478515625,19.951171875 10.4296875,20.56640625 6.650390625,19.833984375 3.2958984375,17.75390625 0.908203125,14.501953125 0.227050736546516,12.4951171875 0,10.283203125 0.747070550918579,6.4306640625 2.8564453125,3.1494140625 6.15234375,0.8642578125 8.1884765625,0.216064453125 10.4296875,0z" />
    </g>
  </g>
</svg>