<?xml version="1.0" encoding="utf-8"?>
<!DOCTYPE svg PUBLIC "-//W3C//DTD SVG 1.1//EN" "http://www.w3.org/Graphics/SVG/1.1/DTD/svg11.dtd">
<svg width="78.603515625" height="42.83203125" xmlns="http://www.w3.org/2000/svg" xmlns:xlink="http://www.w3.org/1999/xlink" xmlns:xml="http://www.w3.org/XML/1998/namespace" version="1.1">
  <g>
    <g>
      <path style="fill:#FF0000;fill-opacity:1" d="M52.294921875,13.7109355926514L50.3723106384277,14.2822256088257 48.9990234375,15.9960927963257 48.1750450134277,18.78662109375 47.900390625,22.587890625 48.1512413024902,26.6180419921875 48.9038047790527,30.03662109375 50.1580772399902,32.8436279296875 51.9140625,35.0390625 54.0032920837402,32.8985595703125 55.4956016540527,30.10986328125 56.3909873962402,26.6729736328125 56.689453125,22.587890625 56.4147911071777,18.78662109375 55.5908203125,15.9960927963257 54.2175254821777,14.2822256088257 52.294921875,13.7109355926514z M26.30859375,13.7109355926514L24.3859844207764,14.2822256088257 23.0126953125,15.9960927963257 22.188720703125,18.78662109375 21.9140625,22.587890625 22.210693359375,26.685791015625 23.1005859375,30.1318359375 24.583740234375,32.926025390625 26.66015625,35.068359375 28.428955078125,32.87109375 29.6923828125,30.05859375 30.450439453125,26.630859375 30.703125,22.587890625 30.428466796875,18.78662109375 29.6044921875,15.9960927963257 28.2311992645264,14.2822256088257 26.30859375,13.7109355926514z M26.30859375,9.08203029632568L28.3557109832764,9.32372951507568 30.2197265625,10.0488271713257 31.8603515625,11.2170400619507 33.2373046875,12.7880849838257 35.1708984375,17.05078125 35.859375,22.587890625 35.56640625,27.0867919921875 34.6875,31.03271484375 33.22265625,34.4256591796875 31.171875,37.265625 34.833984375,37.99072265625 39.2578125,38.232421875 43.74755859375,37.9833984375 47.431640625,37.236328125 45.380859375,34.398193359375 43.916015625,31.0107421875 43.037109375,27.073974609375 42.744140625,22.587890625 43.4326171875,17.05078125 45.3662109375,12.7880849838257 46.7394981384277,11.2170400619507 48.369140625,10.0488271713257 50.2294883728027,9.32372951507568 52.294921875,9.08203029632568 54.4079551696777,9.32739162445068 56.2939453125,10.0634756088257 57.9309043884277,11.2426748275757 59.296875,12.8173828125 61.1865234375,17.080078125 61.845703125,22.587890625 61.5106163024902,27.2808837890625 60.5053672790527,31.34033203125 58.8299522399902,34.7662353515625 56.484375,37.55859375 58.8354454040527,38.0419921875 61.611328125,38.203125 65.7421875,37.525634765625 69.228515625,35.4931640625 71.923828125,32.113037109375 73.681640625,27.392578125 78.603515625,27.392578125 77.625732421875,30.948486328125 76.2744140625,34.0576171875 74.5751953125,36.708984375 72.5537109375,38.8916015625 70.220947265625,40.601806640625 67.587890625,41.8359375 64.6875,42.5830078125 61.552734375,42.83203125 56.279296875,42.216796875 51.767578125,40.546875 46.1865234375,42.216796875 39.345703125,42.83203125 32.4609375,42.216796875 26.865234375,40.546875 22.3681640625,42.216796875 17.05078125,42.83203125 13.897705078125,42.5830078125 11.0009756088257,41.8359375 8.37890625,40.601806640625 6.04980421066284,38.8916015625 4.0283203125,36.708984375 2.32910108566284,34.0576171875 0.977783143520355,30.948486328125 0,27.392578125 4.92187452316284,27.392578125 6.6796875,32.113037109375 9.375,35.4931640625 12.8613271713257,37.525634765625 16.9921875,38.203125 19.7900390625,38.0419921875 22.1484375,37.55859375 19.7900390625,34.7662353515625 18.10546875,31.34033203125 17.0947265625,27.2808837890625 16.7578125,22.587890625 17.40234375,17.0947265625 19.27734375,12.8320302963257 20.643310546875,11.2463369369507 22.2802734375,10.0634756088257 24.1735820770264,9.32739162445068 26.30859375,9.08203029632568z M52.294921875,0L53.5546875,0.249023109674454 54.580078125,0.937498927116394 55.2685546875,1.96288990974426 55.517578125,3.22265577316284 55.2685546875,4.482421875 54.580078125,5.50781154632568 53.5546875,6.19628858566284 52.294921875,6.44531154632568 51.03515625,6.19628858566284 50.009765625,5.50781154632568 49.3212890625,4.482421875 49.072265625,3.22265577316284 49.3212890625,1.96288990974426 50.009765625,0.937498927116394 51.03515625,0.249023109674454 52.294921875,0z M26.30859375,0L27.568359375,0.249023109674454 28.59375,0.937498927116394 29.2822265625,1.96288990974426 29.53125,3.22265577316284 29.2822265625,4.482421875 28.59375,5.50781154632568 27.568359375,6.19628858566284 26.30859375,6.44531154632568 25.048828125,6.19628858566284 24.0234375,5.50781154632568 23.3349609375,4.482421875 23.0859375,3.22265577316284 23.3349609375,1.96288990974426 24.0234375,0.937498927116394 25.048828125,0.249023109674454 26.30859375,0z" />
    </g>
  </g>
</svg>