<?xml version="1.0" encoding="utf-8"?>
<!DOCTYPE svg PUBLIC "-//W3C//DTD SVG 1.1//EN" "http://www.w3.org/Graphics/SVG/1.1/DTD/svg11.dtd">
<svg width="40.869140625" height="52.32421875" xmlns="http://www.w3.org/2000/svg" xmlns:xlink="http://www.w3.org/1999/xlink" xmlns:xml="http://www.w3.org/XML/1998/namespace" version="1.1">
  <g>
    <g>
      <path style="fill:#FF0000;fill-opacity:1" d="M37.646484375,34.892578125L38.90625,35.1416015625 39.931640625,35.830078125 40.6201171875,36.85546875 40.869140625,38.115234375 40.6201171875,39.375 39.931640625,40.400390625 38.90625,41.0888671875 37.646484375,41.337890625 36.38671875,41.0888671875 35.361328125,40.400390625 34.6728515625,39.375 34.423828125,38.115234375 34.6728515625,36.85546875 35.361328125,35.830078125 36.38671875,35.1416015625 37.646484375,34.892578125z M3.22265625,34.892578125L4.482421875,35.1416015625 5.5078125,35.830078125 6.19628858566284,36.85546875 6.4453125,38.115234375 6.19628858566284,39.375 5.5078125,40.400390625 4.482421875,41.0888671875 3.22265625,41.337890625 1.96289074420929,41.0888671875 0.937500357627869,40.400390625 0.24902331829071,39.375 0,38.115234375 0.24902331829071,36.85546875 0.937500357627869,35.830078125 1.96289074420929,35.1416015625 3.22265625,34.892578125z M20.478515625,27.94921875L19.19677734375,28.172607421875 18.046875,28.8427734375 16.2158203125,31.259765625 15.05859375,34.7607421875 14.6484375,38.876953125 15.032958984375,42.762451171875 16.1865234375,45.5126953125 18.006591796875,47.149658203125 20.390625,47.6953125 22.8222637176514,47.135009765625 24.66796875,45.4541015625 25.8325176239014,42.689208984375 26.220703125,38.876953125 25.810546875,34.6728515625 24.6533203125,31.201171875 22.8515625,28.828125 21.73095703125,28.1689453125 20.478515625,27.94921875z M37.646484375,10.95703125L38.90625,11.2060546875 39.931640625,11.89453125 40.6201171875,12.919921875 40.869140625,14.1796875 40.6201171875,15.439453125 39.931640625,16.46484375 38.90625,17.1533203125 37.646484375,17.40234375 36.38671875,17.1533203125 35.361328125,16.46484375 34.6728515625,15.439453125 34.423828125,14.1796875 34.6728515625,12.919921875 35.361328125,11.89453125 36.38671875,11.2060546875 37.646484375,10.95703125z M3.22265625,10.95703125L4.482421875,11.2060546875 5.5078125,11.89453125 6.19628858566284,12.919921875 6.4453125,14.1796875 6.19628858566284,15.439453125 5.5078125,16.46484375 4.482421875,17.1533203125 3.22265625,17.40234375 1.96289074420929,17.1533203125 0.937500357627869,16.46484375 0.24902331829071,15.439453125 0,14.1796875 0.24902331829071,12.919921875 0.937500357627869,11.89453125 1.96289074420929,11.2060546875 3.22265625,10.95703125z M20.390625,4.62890577316284L17.8125,5.2880859375 16.025390625,7.119140625 14.9853515625,9.931640625 14.6484375,13.505859375 15.029296875,17.8125 16.171875,20.947265625 17.98828125,22.8588886260986 20.390625,23.49609375 22.8039531707764,22.8405780792236 24.6533203125,20.8740234375 25.8288555145264,17.698974609375 26.220703125,13.41796875 25.8544921875,9.8291015625 24.7705078125,7.0458984375 22.9541015625,5.2587890625 20.390625,4.62890577316284z M20.419921875,0L22.9321269989014,0.238039970397949 25.13671875,0.952148497104645 27.0227031707764,2.10205364227295 28.5791015625,3.64746141433716 30.673828125,7.880859375 31.376953125,13.447265625 31.0546875,17.197265625 30.05859375,20.595703125 28.3740234375,23.4814453125 25.95703125,25.72265625 28.4912109375,28.095703125 30.17578125,31.2744140625 31.0986328125,34.9658203125 31.376953125,38.84765625 30.673828125,44.5751953125 29.7985820770264,46.88232421875 28.5791015625,48.7939453125 27.0263652801514,50.306396484375 25.1513671875,51.416015625 22.9577617645264,52.09716796875 20.44921875,52.32421875 17.940673828125,52.1054077148438 15.7470703125,51.448974609375 13.868408203125,50.3549194335938 12.3046875,48.8232421875 10.1953125,44.578857421875 9.4921875,38.84765625 9.7705078125,34.9658203125 10.693359375,31.2744140625 12.3779296875,28.095703125 14.912109375,25.72265625 12.4951171875,23.4814453125 10.810546875,20.595703125 9.814453125,17.197265625 9.4921875,13.447265625 10.2099609375,7.822265625 12.3046875,3.58886742591858 13.85009765625,2.05078411102295 15.732421875,0.9228515625 17.9296875,0.230715751647949 20.419921875,0z" />
    </g>
  </g>
</svg>