<?xml version="1.0" encoding="utf-8"?>
<!DOCTYPE svg PUBLIC "-//W3C//DTD SVG 1.1//EN" "http://www.w3.org/Graphics/SVG/1.1/DTD/svg11.dtd">
<svg width="30.8203125000003" height="51.50390625" xmlns="http://www.w3.org/2000/svg" xmlns:xlink="http://www.w3.org/1999/xlink" xmlns:xml="http://www.w3.org/XML/1998/namespace" version="1.1">
  <g>
    <g>
      <path style="fill:#FF0000;fill-opacity:1" d="M6.12304592132568,0L9.755859375,2.958984375 7.69775342941284,5.14892578125 6.26953029632568,7.5 5.43456935882568,10.01220703125 5.15625,12.685546875 5.65429639816284,15.2783203125 7.07519483566284,17.2998046875 9.3017578125,18.603515625 12.1875,19.072265625 16.3330078125,18.720703125 19.98046875,17.75390625 23.1591796875,16.3037109375 25.8984375,14.501953125 30.8203125,14.501953125 30.8203125,51.50390625 25.8984375,51.50390625 25.8984375,19.39453125 22.8369140625,21.2548828125 19.3505859375,22.6025390625 15.6005859375,23.4228515625 11.77734375,23.701171875 9.283447265625,23.4960956573486 7.01660108566284,22.880859375 3.29589796066284,20.595703125 0.864257216453552,17.109375 0.216064110398293,14.99267578125 0,12.685546875 0.384521186351776,9.26513671875 1.53808557987213,5.9765625 3.45336866378784,2.87109661102295 6.12304592132568,0z" />
    </g>
  </g>
</svg>