<?xml version="1.0" encoding="utf-8"?>
<!DOCTYPE svg PUBLIC "-//W3C//DTD SVG 1.1//EN" "http://www.w3.org/Graphics/SVG/1.1/DTD/svg11.dtd">
<svg width="56.484375" height="50.91796875" xmlns="http://www.w3.org/2000/svg" xmlns:xlink="http://www.w3.org/1999/xlink" xmlns:xml="http://www.w3.org/XML/1998/namespace" version="1.1">
  <g>
    <g>
      <path style="fill:#FF0000;fill-opacity:1" d="M35.947265625,30.732421875L35.947265625,46.46484375 51.5625,46.46484375 51.5625,30.732421875 35.947265625,30.732421875z M0,0L4.92187452316284,0 4.92187452316284,5.09765577316284 5.20019578933716,8.818359375 6.09375,11.66015625 7.646484375,13.4765625 9.90234375,14.12109375 11.7260732650757,13.868408203125 13.095703125,13.1103515625 14.088134765625,11.890869140625 14.7802734375,10.25390625 15.21240234375,8.2177734375 15.4248046875,5.80078077316284 15.52734375,0 20.419921875,0 20.5224609375,5.80078077316284 20.73486328125,8.2177734375 21.1669921875,10.25390625 21.8591289520264,11.890869140625 22.8515625,13.1103515625 24.2211894989014,13.868408203125 26.044921875,14.12109375 28.30078125,13.4765625 29.853515625,11.66015625 30.7470703125,8.818359375 31.025390625,5.09765577316284 31.025390625,0 35.947265625,0 35.947265625,26.279296875 56.484375,26.279296875 56.484375,50.91796875 31.025390625,50.91796875 31.025390625,16.9921875 28.4912109375,18.2958984375 25.6640625,18.75 23.056640625,18.3837890625 20.8447265625,17.314453125 19.130859375,15.5859375 18.017578125,13.212890625 16.875,15.3515625 15,17.109375 12.5830078125,18.310546875 9.84375,18.75 6.123046875,18.134765625 4.44213819503784,17.318115234375 2.97363233566284,16.0986328125 1.75048804283142,14.443359375 0.805663824081421,12.3193359375 0.201415985822678,9.678955078125 0,6.474609375 0,0z" />
    </g>
  </g>
</svg>