<?xml version="1.0" encoding="utf-8"?>
<!DOCTYPE svg PUBLIC "-//W3C//DTD SVG 1.1//EN" "http://www.w3.org/Graphics/SVG/1.1/DTD/svg11.dtd">
<svg width="27.59765625" height="50.91796875" xmlns="http://www.w3.org/2000/svg" xmlns:xlink="http://www.w3.org/1999/xlink" xmlns:xml="http://www.w3.org/XML/1998/namespace" version="1.1">
  <g>
    <g>
      <path style="fill:#FF0000;fill-opacity:1" d="M15.234375,33.8671875L16.494140625,34.1162109375 17.51953125,34.8046875 18.2080078125,35.830078125 18.45703125,37.08984375 18.2080078125,38.349609375 17.51953125,39.375 16.494140625,40.0634765625 15.234375,40.3125 13.974609375,40.0634765625 12.94921875,39.375 12.2607421875,38.349609375 12.01171875,37.08984375 12.2607421875,35.830078125 12.94921875,34.8046875 13.974609375,34.1162109375 15.234375,33.8671875z M15.234375,10.634765625L16.494140625,10.8837890625 17.51953125,11.572265625 18.2080078125,12.59765625 18.45703125,13.857421875 18.2080078125,15.1171875 17.51953125,16.142578125 16.494140625,16.8310546875 15.234375,17.080078125 13.974609375,16.8310546875 12.94921875,16.142578125 12.2607421875,15.1171875 12.01171875,13.857421875 12.2607421875,12.59765625 12.94921875,11.572265625 13.974609375,10.8837890625 15.234375,10.634765625z M0,0L27.59765625,0 27.59765625,4.39453125 4.92187404632568,4.39453125 4.92187404632568,23.232421875 27.59765625,23.232421875 27.59765625,27.626953125 4.92187404632568,27.626953125 4.92187404632568,46.5234375 27.59765625,46.5234375 27.59765625,50.91796875 0,50.91796875 0,0z" />
    </g>
  </g>
</svg>