<?xml version="1.0" encoding="utf-8"?>
<!DOCTYPE svg PUBLIC "-//W3C//DTD SVG 1.1//EN" "http://www.w3.org/Graphics/SVG/1.1/DTD/svg11.dtd">
<svg width="40.986328125" height="52.32421875" xmlns="http://www.w3.org/2000/svg" xmlns:xlink="http://www.w3.org/1999/xlink" xmlns:xml="http://www.w3.org/XML/1998/namespace" version="1.1">
  <g>
    <g>
      <path style="fill:#FF0000;fill-opacity:1" d="M29.794921875,31.58203125L31.0546875,31.8310546875 32.080078125,32.51953125 32.7685546875,33.544921875 33.017578125,34.8046875 32.7685546875,36.064453125 32.080078125,37.08984375 31.0546875,37.7783203125 29.794921875,38.02734375 28.53515625,37.7783203125 27.509765625,37.08984375 26.8212890625,36.064453125 26.572265625,34.8046875 26.8212890625,33.544921875 27.509765625,32.51953125 28.53515625,31.8310546875 29.794921875,31.58203125z M10.986328125,27.94921875L9.70458984375,28.172607421875 8.5546875,28.8427734375 6.7236328125,31.259765625 5.56640625,34.7607421875 5.15625,38.876953125 5.540771484375,42.762451171875 6.6943359375,45.5126953125 8.514404296875,47.149658203125 10.8984375,47.6953125 13.330078125,47.135009765625 15.17578125,45.4541015625 16.34033203125,42.689208984375 16.728515625,38.876953125 16.318359375,34.6728515625 15.1611328125,31.201171875 13.359375,28.828125 12.2387685775757,28.1689453125 10.986328125,27.94921875z M29.794921875,13.65234375L31.0546875,13.9013671875 32.080078125,14.58984375 32.7685546875,15.615234375 33.017578125,16.875 32.7685546875,18.134765625 32.080078125,19.16015625 31.0546875,19.8486328125 29.794921875,20.09765625 28.53515625,19.8486328125 27.509765625,19.16015625 26.8212890625,18.134765625 26.572265625,16.875 26.8212890625,15.615234375 27.509765625,14.58984375 28.53515625,13.9013671875 29.794921875,13.65234375z M10.8984375,4.62890577316284L8.3203125,5.2880859375 6.533203125,7.119140625 5.49316501617432,9.931640625 5.15625,13.505859375 5.537109375,17.8125 6.6796875,20.947265625 8.49609375,22.8588886260986 10.8984375,23.49609375 13.311767578125,22.8405780792236 15.1611328125,20.8740234375 16.336669921875,17.698974609375 16.728515625,13.41796875 16.3623046875,9.8291015625 15.2783203125,7.0458984375 13.4619140625,5.2587890625 10.8984375,4.62890577316284z M10.927734375,0L13.43994140625,0.238039970397949 15.64453125,0.952148497104645 17.530517578125,2.10205364227295 19.0869140625,3.64746141433716 21.181640625,7.880859375 21.884765625,13.447265625 21.15234375,18.9697265625 20.21484375,21.3977069854736 18.8671875,23.49609375 36.064453125,23.49609375 36.064453125,14.4140625 40.986328125,14.4140625 40.986328125,37.265625 36.064453125,37.265625 36.064453125,27.890625 18.837890625,27.890625 20.244140625,30.234375 21.1962890625,32.9443359375 21.7236328125,35.859375 21.884765625,38.84765625 21.181640625,44.5751953125 20.306396484375,46.88232421875 19.0869140625,48.7939453125 17.5341796875,50.306396484375 15.6591796875,51.416015625 13.465576171875,52.09716796875 10.95703125,52.32421875 8.448486328125,52.1054077148438 6.2548828125,51.448974609375 4.37622117996216,50.3549194335938 2.81250071525574,48.8232421875 0.703125238418579,44.578857421875 0,38.84765625 0.2783203125,34.9658203125 1.201171875,31.2744140625 2.88574242591858,28.095703125 5.419921875,25.72265625 3.00292992591858,23.4814453125 1.31835961341858,20.595703125 0.322266101837158,17.197265625 0,13.447265625 0.717774152755737,7.822265625 2.81250071525574,3.58886742591858 4.35791015625,2.05078411102295 6.240234375,0.9228515625 8.4375,0.230715751647949 10.927734375,0z" />
    </g>
  </g>
</svg>