<?xml version="1.0" encoding="utf-8"?>
<!DOCTYPE svg PUBLIC "-//W3C//DTD SVG 1.1//EN" "http://www.w3.org/Graphics/SVG/1.1/DTD/svg11.dtd">
<svg width="37.3828125" height="58.2421875" xmlns="http://www.w3.org/2000/svg" xmlns:xlink="http://www.w3.org/1999/xlink" xmlns:xml="http://www.w3.org/XML/1998/namespace" version="1.1">
  <g>
    <g>
      <path style="fill:#FF0000;fill-opacity:1" d="M11.8359375,47.2265625L14.619140625,47.6953125 17.1533203125,48.8818359375 19.5263671875,50.419921875 21.826171875,51.9580078125 24.1259765625,53.14453125 26.54296875,53.61328125 27.9895000457764,53.382568359375 29.2236328125,52.6904296875 30.128173828125,51.580810546875 30.5859375,50.09765625 35.068359375,50.09765625 34.3212890625,53.4814453125 32.373046875,56.044921875 29.6923828125,57.6708984375 26.748046875,58.2421875 23.6572265625,57.7734375 20.9033203125,56.5869140625 18.4130859375,55.048828125 16.142578125,53.5107421875 14.033203125,52.32421875 12.041015625,51.85546875 10.5944814682007,52.086181640625 9.3603515625,52.7783203125 8.455810546875,53.887939453125 7.998046875,55.37109375 3.51562523841858,55.37109375 4.26269435882568,51.9873046875 6.2109375,49.423828125 8.8916015625,47.7978515625 11.8359375,47.2265625z M0,0L4.92187404632568,0 4.92187404632568,18.3984375 25.01953125,18.3984375 27.9885864257813,18.5430927276611 30.538330078125,18.9770526885986 32.6687622070313,19.7003192901611 34.3798828125,20.712890625 35.6936645507813,22.0074462890625 36.632080078125,23.57666015625 37.1951293945313,25.4205322265625 37.3828125,27.5390625 36.9580078125,30.1904296875 35.771484375,33.046875 31.552734375,30.9375 32.080078125,29.296875 32.28515625,27.626953125 32.021484375,25.8544921875 30.966796875,24.3017578125 28.7255859375,23.203125 27.0446758270264,22.8955078125 24.90234375,22.79296875 4.92187404632568,22.79296875 4.92187404632568,42.0703125 0,42.0703125 0,0z" />
    </g>
  </g>
</svg>