<?xml version="1.0" encoding="utf-8"?>
<!DOCTYPE svg PUBLIC "-//W3C//DTD SVG 1.1//EN" "http://www.w3.org/Graphics/SVG/1.1/DTD/svg11.dtd">
<svg width="40.6933593750005" height="52.1484375" xmlns="http://www.w3.org/2000/svg" xmlns:xlink="http://www.w3.org/1999/xlink" xmlns:xml="http://www.w3.org/XML/1998/namespace" version="1.1">
  <g>
    <g>
      <path style="fill:#FF0000;fill-opacity:1" d="M15.380859375,0L16.904296875,4.3359375 13.927001953125,5.21484375 11.4404296875,6.26953077316284 9.41162109375,7.459716796875 7.80761671066284,8.7451171875 6.60644435882568,10.107421875 5.78613185882568,11.5283203125 5.15624952316284,14.35546875 5.771484375,17.51953125 7.44140577316284,19.6728515625 9.90234375,20.9033203125 12.861328125,21.298828125 16.8310546875,20.7568359375 20.6689453125,19.248046875 23.8623046875,16.962890625 25.927734375,14.0625 25.927734375,1.23046910762787 30.849609375,1.23046910762787 30.849609375,47.75390625 40.693359375,47.75390625 40.693359375,52.1484375 16.083984375,52.1484375 16.083984375,47.75390625 25.927734375,47.75390625 25.927734375,20.830078125 23.1005859375,22.9833984375 19.8779296875,24.5947265625 16.40625,25.5908203125 12.861328125,25.927734375 8.0126953125,25.2099609375 3.896484375,23.0419921875 2.29247999191284,21.3977069854736 1.05468666553497,19.365234375 0.263671457767487,16.9482421875 0,14.150390625 0.263671457767487,11.978759765625 1.05468666553497,9.7998046875 2.34008741378784,7.68310546875 4.08691358566284,5.6982421875 6.28417921066284,3.88550090789795 8.9208984375,2.28515672683716 15.380859375,0z" />
    </g>
  </g>
</svg>