<?xml version="1.0" encoding="utf-8"?>
<!DOCTYPE svg PUBLIC "-//W3C//DTD SVG 1.1//EN" "http://www.w3.org/Graphics/SVG/1.1/DTD/svg11.dtd">
<svg width="56.5136718750006" height="62.63671875" xmlns="http://www.w3.org/2000/svg" xmlns:xlink="http://www.w3.org/1999/xlink" xmlns:xml="http://www.w3.org/XML/1998/namespace" version="1.1">
  <g>
    <g>
      <path style="fill:#FF0000;fill-opacity:1" d="M12.421875,51.62109375L15.205078125,52.08984375 17.7392578125,53.2763671875 20.1123046875,54.814453125 22.412109375,56.3525390625 24.7119140625,57.5390625 27.12890625,58.0078125 28.5754375457764,57.777099609375 29.8095703125,57.0849609375 30.714111328125,55.975341796875 31.171875,54.4921875 35.654296875,54.4921875 34.9072265625,57.8759765625 32.958984375,60.439453125 30.2783203125,62.0654296875 27.333984375,62.63671875 24.2431640625,62.16796875 21.4892578125,60.9814453125 18.9990234375,59.443359375 16.728515625,57.9052734375 14.619140625,56.71875 12.626953125,56.25 11.1804180145264,56.480712890625 9.9462890625,57.1728515625 9.041748046875,58.282470703125 8.583984375,59.765625 4.10156202316284,59.765625 4.8486328125,56.3818359375 6.79687452316284,53.818359375 9.4775390625,52.1923828125 12.421875,51.62109375z M0,0L4.92187452316284,0 4.92187452316284,5.09765577316284 5.20019483566284,8.818359375 6.09374952316284,11.66015625 7.64648389816284,13.4765625 9.90234375,14.12109375 11.7260723114014,13.868408203125 13.095703125,13.1103515625 14.088134765625,11.890869140625 14.7802734375,10.25390625 15.21240234375,8.2177734375 15.4248046875,5.80078125 15.52734375,0 20.419921875,0 20.5224609375,5.80078125 20.73486328125,8.2177734375 21.1669921875,10.25390625 21.8591289520264,11.890869140625 22.8515625,13.1103515625 24.2211894989014,13.868408203125 26.044921875,14.12109375 28.30078125,13.4765625 29.853515625,11.66015625 30.7470703125,8.818359375 31.025390625,5.09765577316284 31.025390625,0 35.947265625,0 35.947265625,28.359375 51.591796875,28.359375 51.591796875,19.27734375 56.513671875,19.27734375 56.513671875,42.12890625 51.591796875,42.12890625 51.591796875,32.75390625 35.947265625,32.75390625 35.947265625,50.91796875 31.025390625,50.91796875 31.025390625,16.9921875 28.4912109375,18.2958984375 25.6640625,18.75 23.056640625,18.3837890625 20.8447265625,17.314453125 19.130859375,15.5859375 18.017578125,13.212890625 16.875,15.3515625 15,17.109375 12.5830078125,18.310546875 9.84375,18.75 6.12304639816284,18.134765625 4.44213771820068,17.318115234375 2.97363233566284,16.0986328125 1.75048768520355,14.443359375 0.805663108825684,12.3193359375 0.201415538787842,9.678955078125 0,6.47460889816284 0,0z" />
    </g>
  </g>
</svg>