<?xml version="1.0" encoding="utf-8"?>
<!DOCTYPE svg PUBLIC "-//W3C//DTD SVG 1.1//EN" "http://www.w3.org/Graphics/SVG/1.1/DTD/svg11.dtd">
<svg width="45.99609375" height="50.91796875" xmlns="http://www.w3.org/2000/svg" xmlns:xlink="http://www.w3.org/1999/xlink" xmlns:xml="http://www.w3.org/XML/1998/namespace" version="1.1">
  <g>
    <g>
      <path style="fill:#FF0000;fill-opacity:1" d="M31.81640625,21.85546875L27.4365234375,23.671875 22.1484375,24.31640625 18.45703125,24.052734375 18.45703125,30.087890625 31.81640625,30.087890625 31.81640625,21.85546875z M0,0L23.73046875,0 23.73046875,4.39453125 14.1796875,4.39453125 14.1796875,9.08203125 23.73046875,9.08203125 23.73046875,13.4765625 14.208984375,13.4765625 14.8828125,16.5234375 16.435546875,18.5009765625 18.8818359375,19.5849609375 22.265625,19.921875 25.3271484375,19.6435546875 28.154296875,18.80859375 30.3369140625,17.4169921875 31.494140625,15.46875 36.73828125,15.46875 36.73828125,38.49609375 45.99609375,38.49609375 45.99609375,42.890625 36.73828125,42.890625 36.73828125,46.5234375 45.99609375,46.5234375 45.99609375,50.91796875 22.265625,50.91796875 22.265625,46.5234375 31.81640625,46.5234375 31.81640625,42.890625 22.265625,42.890625 22.265625,38.49609375 31.81640625,38.49609375 31.81640625,34.482421875 13.53515625,34.482421875 13.53515625,22.353515625 11.6455068588257,20.7312030792236 10.37109375,18.6767578125 9.609375,16.241455078125 9.2578125,13.4765625 0,13.4765625 0,9.08203125 9.2578125,9.08203125 9.2578125,4.39453125 0,4.39453125 0,0z" />
    </g>
  </g>
</svg>