<?xml version="1.0" encoding="utf-8"?>
<!DOCTYPE svg PUBLIC "-//W3C//DTD SVG 1.1//EN" "http://www.w3.org/Graphics/SVG/1.1/DTD/svg11.dtd">
<svg width="27.36328125" height="50.91796875" xmlns="http://www.w3.org/2000/svg" xmlns:xlink="http://www.w3.org/1999/xlink" xmlns:xml="http://www.w3.org/XML/1998/namespace" version="1.1">
  <g>
    <g>
      <path style="fill:#FF0000;fill-opacity:1" d="M24.140625,34.189453125L25.400390625,34.4384765625 26.42578125,35.126953125 27.1142578125,36.15234375 27.36328125,37.412109375 27.1142578125,38.671875 26.42578125,39.697265625 25.400390625,40.3857421875 24.140625,40.634765625 22.880859375,40.3857421875 21.85546875,39.697265625 21.1669921875,38.671875 20.91796875,37.412109375 21.1669921875,36.15234375 21.85546875,35.126953125 22.880859375,34.4384765625 24.140625,34.189453125z M3.22265672683716,34.189453125L4.48242235183716,34.4384765625 5.50781297683716,35.126953125 6.1962890625,36.15234375 6.44531297683716,37.412109375 6.1962890625,38.671875 5.50781297683716,39.697265625 4.48242235183716,40.3857421875 3.22265672683716,40.634765625 1.96289098262787,40.3857421875 0.937500596046448,39.697265625 0.24902355670929,38.671875 0,37.412109375 0.24902355670929,36.15234375 0.937500596046448,35.126953125 1.96289098262787,34.4384765625 3.22265672683716,34.189453125z M24.140625,10.25390625L25.400390625,10.5029296875 26.42578125,11.19140625 27.1142578125,12.216796875 27.36328125,13.4765625 27.1142578125,14.736328125 26.42578125,15.76171875 25.400390625,16.4501953125 24.140625,16.69921875 22.880859375,16.4501953125 21.85546875,15.76171875 21.1669921875,14.736328125 20.91796875,13.4765625 21.1669921875,12.216796875 21.85546875,11.19140625 22.880859375,10.5029296875 24.140625,10.25390625z M3.22265672683716,10.25390625L4.48242235183716,10.5029296875 5.50781297683716,11.19140625 6.1962890625,12.216796875 6.44531297683716,13.4765625 6.1962890625,14.736328125 5.50781297683716,15.76171875 4.48242235183716,16.4501953125 3.22265672683716,16.69921875 1.96289098262787,16.4501953125 0.937500596046448,15.76171875 0.24902355670929,14.736328125 0,13.4765625 0.24902355670929,12.216796875 0.937500596046448,11.19140625 1.96289098262787,10.5029296875 3.22265672683716,10.25390625z M11.07421875,0L15.99609375,0 15.99609375,50.91796875 11.07421875,50.91796875 11.07421875,0z" />
    </g>
  </g>
</svg>