<?xml version="1.0" encoding="utf-8"?>
<!DOCTYPE svg PUBLIC "-//W3C//DTD SVG 1.1//EN" "http://www.w3.org/Graphics/SVG/1.1/DTD/svg11.dtd">
<svg width="52.939453125" height="51.62109375" xmlns="http://www.w3.org/2000/svg" xmlns:xlink="http://www.w3.org/1999/xlink" xmlns:xml="http://www.w3.org/XML/1998/namespace" version="1.1">
  <g>
    <g>
      <path style="fill:#FF0000;fill-opacity:1" d="M26.484375,26.220703125L27.744140625,26.4697265625 28.76953125,27.158203125 29.4580078125,28.18359375 29.70703125,29.443359375 29.4580078125,30.703125 28.76953125,31.728515625 27.744140625,32.4169921875 26.484375,32.666015625 25.224609375,32.4169921875 24.19921875,31.728515625 23.5107421875,30.703125 23.26171875,29.443359375 23.5107421875,28.18359375 24.19921875,27.158203125 25.224609375,26.4697265625 26.484375,26.220703125z M0,0.703125298023224L4.921875,0.703125298023224 4.95483350753784,3.739013671875 5.05371141433716,6.28417921066284 5.23315382003784,8.338623046875 5.5078125,9.90234375 6.181640625,12.10693359375 7.08984375,13.623046875 8.32763671875,14.501953125 9.990234375,14.794921875 12.5756826400757,14.23828125 14.296875,12.568359375 15.263671875,9.8583984375 15.5859375,6.18164014816284 15.5859375,0.703125298023224 20.5078125,0.703125298023224 20.5078125,6.18164014816284 20.8447265625,9.7998046875 21.8994140625,12.509765625 23.7451171875,14.208984375 26.484375,14.794921875 29.1943359375,14.1943359375 31.0400390625,12.48046875 32.0947265625,9.7705078125 32.431640625,6.18164014816284 32.431640625,0.703125298023224 37.353515625,0.703125298023224 37.353515625,6.18164014816284 37.6904296875,10.1953125 38.701171875,12.861328125 40.4296875,14.3408203125 42.94921875,14.794921875 44.58984375,14.501953125 45.8203125,13.623046875 46.7358360290527,12.10693359375 47.431640625,9.90234375 47.7026329040527,8.3203125 47.87109375,6.26953125 47.9663047790527,3.73535180091858 48.017578125,0.703125298023224 52.939453125,0.703125298023224 52.8076133728027,5.350341796875 52.412109375,9.2724609375 51.7236289978027,12.506103515625 50.712890625,15.087890625 49.3652305603027,17.039794921875 47.666015625,18.3837890625 45.5859336853027,19.163818359375 43.095703125,19.423828125 39.9755859375,18.8232421875 37.353515625,17.197265625 37.353515625,51.62109375 32.431640625,51.62109375 32.431640625,17.40234375 31.171875,18.1787109375 29.70703125,18.8232421875 28.125,19.2626953125 26.484375,19.423828125 23.232421875,18.8232421875 20.5078125,17.40234375 20.5078125,51.62109375 15.5859375,51.62109375 15.5859375,17.197265625 12.7880859375,18.8232421875 9.4921875,19.423828125 7.012939453125,19.163818359375 4.9658203125,18.3837890625 3.31787109375,17.039794921875 2.0361328125,15.087890625 1.09497046470642,12.506103515625 0.468749761581421,9.2724609375 0.117187470197678,5.350341796875 0,0.703125298023224z M26.484375,0L27.744140625,0.249023944139481 28.76953125,0.93750011920929 29.4580078125,1.96289098262787 29.70703125,3.22265696525574 29.4580078125,4.48242139816284 28.76953125,5.5078125 27.744140625,6.19628858566284 26.484375,6.4453125 25.224609375,6.19628858566284 24.19921875,5.5078125 23.5107421875,4.48242139816284 23.26171875,3.22265696525574 23.5107421875,1.96289098262787 24.19921875,0.93750011920929 25.224609375,0.249023944139481 26.484375,0z" />
    </g>
  </g>
</svg>