<?xml version="1.0" encoding="utf-8"?>
<!DOCTYPE svg PUBLIC "-//W3C//DTD SVG 1.1//EN" "http://www.w3.org/Graphics/SVG/1.1/DTD/svg11.dtd">
<svg width="65.56640625" height="20.56640625" xmlns="http://www.w3.org/2000/svg" xmlns:xlink="http://www.w3.org/1999/xlink" xmlns:xml="http://www.w3.org/XML/1998/namespace" version="1.1">
  <g>
    <g>
      <path style="fill:#FF0000;fill-opacity:1" d="M55.13671875,4.39453125L52.880859375,4.86328125 51.03515625,6.1376953125 49.7900390625,8.0126953125 49.3359375,10.283203125 49.7900390625,12.5537109375 51.03515625,14.4287109375 52.880859375,15.703125 55.13671875,16.171875 57.421875,15.703125 59.2529296875,14.443359375 60.4833984375,12.5830078125 60.9375,10.283203125 60.4833984375,8.0126953125 59.23828125,6.1376953125 57.392578125,4.86328125 55.13671875,4.39453125z M10.4296875,4.39453125L8.173828125,4.86328125 6.328125,6.1376953125 5.0830078125,8.0126953125 4.62890625,10.283203125 5.0830078125,12.5830078125 6.3134765625,14.443359375 8.14453125,15.703125 10.4296875,16.171875 12.685546875,15.703125 14.53125,14.4287109375 15.7763671875,12.5537109375 16.23046875,10.283203125 15.7763671875,8.0126953125 14.53125,6.1376953125 12.685546875,4.86328125 10.4296875,4.39453125z M10.4296875,0L14.0478515625,0.615234375 17.080078125,2.3291015625 19.3359375,4.9072265625 20.625,8.0859375 44.94140625,8.0859375 46.23046875,4.9072265625 48.486328125,2.3291015625 51.5185546875,0.615234375 55.13671875,0 57.3779258728027,0.216064453125 59.4140625,0.8642578125 62.7099609375,3.1494140625 64.8193359375,6.4306640625 65.56640625,10.283203125 65.350341796875,12.4951171875 64.7021484375,14.501953125 62.40234375,17.75390625 59.0771484375,19.833984375 55.13671875,20.56640625 51.5185546875,19.951171875 48.486328125,18.251953125 46.23046875,15.6884765625 44.94140625,12.48046875 20.625,12.48046875 19.3359375,15.6884765625 17.080078125,18.251953125 14.0478515625,19.951171875 10.4296875,20.56640625 6.650390625,19.833984375 3.2958984375,17.75390625 0.908203363418579,14.501953125 0.227050766348839,12.4951171875 0,10.283203125 0.747070074081421,6.4306640625 2.85644578933716,3.1494140625 6.15234327316284,0.8642578125 8.1884765625,0.216064453125 10.4296875,0z" />
    </g>
  </g>
</svg>