<?xml version="1.0" encoding="utf-8"?>
<!DOCTYPE svg PUBLIC "-//W3C//DTD SVG 1.1//EN" "http://www.w3.org/Graphics/SVG/1.1/DTD/svg11.dtd">
<svg width="54.55078125" height="51.62109375" xmlns="http://www.w3.org/2000/svg" xmlns:xlink="http://www.w3.org/1999/xlink" xmlns:xml="http://www.w3.org/XML/1998/namespace" version="1.1">
  <g>
    <g>
      <path style="fill:#FF0000;fill-opacity:1" d="M0,0L4.921875,0 4.921875,1.17187476158142 5.15624952316284,4.29199266433716 5.947265625,6.81152391433716 7.3974609375,8.5107421875 9.609375,9.140625 12.4365234375,8.61328125 14.150390625,7.06054735183716 15,4.49707078933716 15.234375,0.9375 15.234375,0 20.15625,0 20.15625,0.878905892372131 20.390625,4.51171875 21.2255859375,7.08984375 22.8515625,8.6279296875 25.48828125,9.140625 27.8466796875,8.5107421875 29.3701171875,6.796875 30.1904296875,4.2333984375 30.439453125,1.05468738079071 30.439453125,0 35.361328125,0 35.361328125,24.931640625 35.45654296875,30.25634765625 35.7421875,34.8046875 36.251220703125,38.602294921875 37.0166015625,41.6748046875 38.04931640625,44.033203125 39.3603515625,45.6884765625 40.975341796875,46.666259765625 42.919921875,46.9921875 45.3369140625,46.494140625 47.40234375,44.765625 48.2299766540527,43.3154296875 48.896484375,41.42578125 49.3725547790527,39.0380859375 49.62890625,36.09375 54.55078125,36.09375 54.1625938415527,40.089111328125 53.291015625,43.4033203125 52.0422325134277,46.087646484375 50.5224609375,48.193359375 48.7792930603027,49.757080078125 46.8603515625,50.8154296875 44.871826171875,51.419677734375 42.919921875,51.62109375 39.61669921875,51.192626953125 36.9140625,49.9072265625 34.75341796875,47.84912109375 33.076171875,45.1025390625 31.849365234375,41.7041015625 31.0400390625,37.6904296875 30.589599609375,33.145751953125 30.439453125,28.154296875 30.439453125,26.89453125 27.94921875,28.271484375 25.37109375,28.7109375 22.763671875,28.3447265625 20.5517578125,27.275390625 18.837890625,25.546875 17.724609375,23.173828125 16.58203125,25.3125 14.6630859375,27.0703125 12.1435546875,28.271484375 9.19921875,28.7109375 5.7275390625,28.095703125 4.16747999191284,27.279052734375 2.7978515625,26.0595703125 1.65161120891571,24.4042987823486 0.761718511581421,22.2802734375 0.190429657697678,19.639892578125 0,16.435546875 0,14.94140625 4.921875,14.94140625 4.921875,16.11328125 5.15624952316284,19.2333984375 5.947265625,21.7529296875 7.3974609375,23.4521484375 9.609375,24.08203125 12.4365234375,23.5546875 14.150390625,22.001953125 15,19.4384765625 15.234375,15.87890625 15.234375,14.94140625 20.15625,14.94140625 20.15625,15.8203125 20.390625,19.453125 21.2255859375,22.03125 22.8515625,23.5693359375 25.48828125,24.08203125 27.8466796875,23.4521484375 29.3701171875,21.73828125 30.1904296875,19.1748046875 30.439453125,15.99609375 30.439453125,11.953125 27.94921875,13.330078125 25.37109375,13.76953125 22.763671875,13.4033203125 20.5517578125,12.333984375 18.837890625,10.60546875 17.724609375,8.232421875 16.58203125,10.37109375 14.6630859375,12.12890625 12.1435546875,13.330078125 9.19921875,13.76953125 5.7275390625,13.154296875 4.16747999191284,12.337646484375 2.7978515625,11.1181640625 1.65161120891571,9.462890625 0.761718511581421,7.3388671875 0.190429657697678,4.698486328125 0,1.49414038658142 0,0z" />
    </g>
  </g>
</svg>