<?xml version="1.0" encoding="utf-8"?>
<!DOCTYPE svg PUBLIC "-//W3C//DTD SVG 1.1//EN" "http://www.w3.org/Graphics/SVG/1.1/DTD/svg11.dtd">
<svg width="38.583984375" height="50.91796875" xmlns="http://www.w3.org/2000/svg" xmlns:xlink="http://www.w3.org/1999/xlink" xmlns:xml="http://www.w3.org/XML/1998/namespace" version="1.1">
  <g>
    <g>
      <path style="fill:#FF0000;fill-opacity:1" d="M19.306640625,37.060546875L20.56640625,37.3095703125 21.591796875,37.998046875 22.2802734375,39.0234375 22.529296875,40.283203125 22.2802734375,41.54296875 21.591796875,42.568359375 20.56640625,43.2568359375 19.306640625,43.505859375 18.046875,43.2568359375 17.021484375,42.568359375 16.3330078125,41.54296875 16.083984375,40.283203125 16.3330078125,39.0234375 17.021484375,37.998046875 18.046875,37.3095703125 19.306640625,37.060546875z M19.306640625,5.185546875L20.56640625,5.4345703125 21.591796875,6.123046875 22.2802734375,7.14843797683716 22.529296875,8.408203125 22.2802734375,9.66796875 21.591796875,10.693359375 20.56640625,11.3818359375 19.306640625,11.630859375 18.046875,11.3818359375 17.021484375,10.693359375 16.3330078125,9.66796875 16.083984375,8.408203125 16.3330078125,7.14843797683716 17.021484375,6.123046875 18.046875,5.4345703125 19.306640625,5.185546875z M33.662109375,0L38.583984375,0 38.583984375,50.91796875 33.662109375,50.91796875 33.662109375,32.4609375 31.00341796875,34.2626953125 27.7734375,34.86328125 24.990234375,34.4091796875 22.5146484375,33.1494140625 20.5517578125,31.2158203125 19.3359375,28.740234375 18.1787109375,30.9814453125 16.142578125,32.9443359375 13.3154296875,34.3359375 9.78515625,34.86328125 6.2841796875,34.248046875 4.625244140625,33.431396484375 3.13476634025574,32.2119140625 1.86401391029358,30.556640625 0.864258289337158,28.4326171875 0.216064691543579,25.7922382354736 0,22.587890625 0,16.11328125 4.921875,16.11328125 4.921875,21.2109375 5.302734375,25.2978515625 6.38671875,28.1103515625 8.0712890625,29.7216796875 10.25390625,30.234375 13.201904296875,29.652099609375 15.2490234375,27.9052734375 16.446533203125,25.0744647979736 16.845703125,21.240234375 16.845703125,16.11328125 21.767578125,16.11328125 21.767578125,21.15234375 22.1520977020264,25.2172870635986 23.3056640625,28.037109375 25.2795391082764,29.68505859375 28.125,30.234375 30.439453125,29.7216796875 32.1826171875,28.1103515625 33.28125,25.2978515625 33.662109375,21.2109375 33.662109375,0z" />
    </g>
  </g>
</svg>