<?xml version="1.0" encoding="utf-8"?>
<!DOCTYPE svg PUBLIC "-//W3C//DTD SVG 1.1//EN" "http://www.w3.org/Graphics/SVG/1.1/DTD/svg11.dtd">
<svg width="32.255859375" height="52.32421875" xmlns="http://www.w3.org/2000/svg" xmlns:xlink="http://www.w3.org/1999/xlink" xmlns:xml="http://www.w3.org/XML/1998/namespace" version="1.1">
  <g>
    <g>
      <path style="fill:#FF0000;fill-opacity:1" d="M16.11328125,11.953125L13.956298828125,14.996337890625 12.3486328125,18.4423828125 11.3488759994507,22.1960468292236 11.015625,26.162109375 11.3452138900757,30.025634765625 12.333984375,33.7646484375 13.93798828125,37.254638671875 16.11328125,40.37109375 18.292236328125,37.254638671875 19.9072265625,33.7646484375 20.906982421875,30.025634765625 21.240234375,26.162109375 20.9033203125,22.1960468292236 19.892578125,18.4423828125 18.27392578125,14.996337890625 16.11328125,11.953125z M0,0L4.48974609375,0.366213858127594 8.701171875,1.46484410762787 12.59033203125,3.20801067352295 16.11328125,5.5078125 19.658203125,3.20801067352295 23.5546875,1.46484410762787 27.7661113739014,0.366213858127594 32.255859375,0 32.255859375,4.51171922683716 28.740234375,4.88525390625 25.458984375,5.77148485183716 22.4340801239014,7.1044921875 19.6875,8.818359375 22.5036602020264,12.564697265625 24.6240234375,16.7724609375 25.9533672332764,21.3317890167236 26.396484375,26.1328125 25.9643535614014,31.12060546875 24.66796875,35.771484375 22.5878887176514,40.0048828125 19.8046875,43.740234375 22.5183086395264,45.4248046875 25.5029296875,46.728515625 28.751220703125,47.5634765625 32.255859375,47.841796875 32.255859375,52.32421875 27.7221660614014,51.968994140625 23.49609375,50.9033203125 19.6142578125,49.215087890625 16.11328125,46.9921875 12.63427734375,49.215087890625 8.759765625,50.9033203125 4.53369140625,51.968994140625 0,52.32421875 0,47.841796875 3.5009765625,47.5634765625 6.73828125,46.728515625 9.71191310882568,45.4248046875 12.421875,43.740234375 9.66064453125,40.0048828125 7.587890625,35.771484375 6.29150390625,31.12060546875 5.859375,26.1328125 6.302490234375,21.3317890167236 7.6318359375,16.7724609375 9.752197265625,12.564697265625 12.568359375,8.818359375 9.82177639007568,7.1044921875 6.796875,5.77148485183716 3.515625,4.88525390625 0,4.51171922683716 0,0z" />
    </g>
  </g>
</svg>