<?xml version="1.0" encoding="utf-8"?>
<!DOCTYPE svg PUBLIC "-//W3C//DTD SVG 1.1//EN" "http://www.w3.org/Graphics/SVG/1.1/DTD/svg11.dtd">
<svg width="25.693359375" height="52.32421875" xmlns="http://www.w3.org/2000/svg" xmlns:xlink="http://www.w3.org/1999/xlink" xmlns:xml="http://www.w3.org/XML/1998/namespace" version="1.1">
  <g>
    <g>
      <path style="fill:#FF0000;fill-opacity:1" d="M10.751953125,0L14.1064453125,0.186770409345627 17.080078125,0.747070074081421 19.6435546875,1.64062786102295 21.767578125,2.8271484375 23.4484844207764,4.281005859375 24.6826171875,5.9765625 25.4406719207764,7.8662109375 25.693359375,9.90234375 25.4333477020264,12.125244140625 24.6533203125,14.0478515625 23.4118633270264,15.6884765625 21.767578125,17.0654296875 17.3876953125,19.0576171875 11.8359375,20.126953125 11.8359375,32.197265625 17.3876953125,33.2666015625 21.767578125,35.2587890625 23.4118633270264,36.6357421875 24.6533203125,38.2763671875 25.4333477020264,40.198974609375 25.693359375,42.421875 25.4406719207764,44.4580078125 24.6826171875,46.34765625 23.4484844207764,48.043212890625 21.767578125,49.4970703125 19.6435546875,50.68359375 17.080078125,51.5771484375 14.1064453125,52.137451171875 10.751953125,52.32421875 8.583984375,52.2509765625 5.9326171875,52.0166015625 3.00292944908142,51.6357421875 0,51.123046875 0.64453125,46.58203125 5.537109375,47.373046875 10.869140625,47.666015625 15.205078125,47.2265625 18.2080078125,46.0546875 19.9658203125,44.3701171875 20.537109375,42.421875 20.269775390625,41.015625 19.4677734375,39.78515625 18.204345703125,38.726806640625 16.552734375,37.8369140625 12.216796875,36.6064453125 6.9140625,36.15234375 6.9140625,16.171875 12.216796875,15.7177734375 16.552734375,14.4873046875 18.204345703125,13.597412109375 19.4677734375,12.5390625 20.269775390625,11.30859375 20.537109375,9.90234375 19.9658203125,7.95410108566284 18.2080078125,6.26953125 15.205078125,5.09765672683716 10.869140625,4.65820264816284 5.537109375,4.951171875 0.64453125,5.74218797683716 0,1.201171875 3.00292944908142,0.688476264476776 5.9326171875,0.3076171875 8.583984375,0.0732418894767761 10.751953125,0z" />
    </g>
  </g>
</svg>