<?xml version="1.0" encoding="utf-8"?>
<!DOCTYPE svg PUBLIC "-//W3C//DTD SVG 1.1//EN" "http://www.w3.org/Graphics/SVG/1.1/DTD/svg11.dtd">
<svg width="52.939453125" height="50.91796875" xmlns="http://www.w3.org/2000/svg" xmlns:xlink="http://www.w3.org/1999/xlink" xmlns:xml="http://www.w3.org/XML/1998/namespace" version="1.1">
  <g>
    <g>
      <path style="fill:#FF0000;fill-opacity:1" d="M42.509765625,36.298828125L43.76953125,36.5478515625 44.794921875,37.236328125 45.4833984375,38.26171875 45.732421875,39.521484375 45.4833984375,40.78125 44.794921875,41.806640625 43.76953125,42.4951171875 42.509765625,42.744140625 41.25,42.4951171875 40.224609375,41.806640625 39.5361328125,40.78125 39.287109375,39.521484375 39.5361328125,38.26171875 40.224609375,37.236328125 41.25,36.5478515625 42.509765625,36.298828125z M10.4296875,36.298828125L11.689453125,36.5478515625 12.71484375,37.236328125 13.4033203125,38.26171875 13.65234375,39.521484375 13.4033203125,40.78125 12.71484375,41.806640625 11.689453125,42.4951171875 10.4296875,42.744140625 9.169921875,42.4951171875 8.14453125,41.806640625 7.4560546875,40.78125 7.20703125,39.521484375 7.4560546875,38.26171875 8.14453125,37.236328125 9.169921875,36.5478515625 10.4296875,36.298828125z M42.509765625,8.203125L43.76953125,8.4521484375 44.794921875,9.140625 45.4833984375,10.166015625 45.732421875,11.42578125 45.4833984375,12.685546875 44.794921875,13.7109375 43.76953125,14.3994140625 42.509765625,14.6484375 41.25,14.3994140625 40.224609375,13.7109375 39.5361328125,12.685546875 39.287109375,11.42578125 39.5361328125,10.166015625 40.224609375,9.140625 41.25,8.4521484375 42.509765625,8.203125z M10.4296875,8.203125L11.689453125,8.4521484375 12.71484375,9.140625 13.4033203125,10.166015625 13.65234375,11.42578125 13.4033203125,12.685546875 12.71484375,13.7109375 11.689453125,14.3994140625 10.4296875,14.6484375 9.169921875,14.3994140625 8.14453125,13.7109375 7.4560546875,12.685546875 7.20703125,11.42578125 7.4560546875,10.166015625 8.14453125,9.140625 9.169921875,8.4521484375 10.4296875,8.203125z M14.1796875,0L38.7890625,0 38.7890625,4.39453077316284 28.9453125,4.39453077316284 28.9453125,26.953125 30.289306640625,25.9533710479736 31.2744140625,24.3017578125 31.878662109375,21.9982929229736 32.080078125,19.04296875 36.9140625,19.04296875 37.236328125,22.939453125 38.232421875,25.5029296875 39.9609375,26.9091796875 42.509765625,27.333984375 45.47607421875,26.66748046875 47.28515625,24.66796875 47.8344688415527,22.4414081573486 48.017578125,19.04296875 52.939453125,19.04296875 52.7856407165527,22.1246356964111 52.3242149353027,24.7778339385986 51.5551719665527,27.0025653839111 50.478515625,28.798828125 49.0759239196777,30.18310546875 47.3290977478027,31.171875 45.2380332946777,31.76513671875 42.802734375,31.962890625 40.29052734375,31.669921875 38.0859375,30.791015625 36.2548828125,29.43603515625 34.86328125,27.71484375 32.3876953125,30.234375 28.9453125,31.58203125 28.9453125,46.5234375 38.7890625,46.5234375 38.7890625,50.91796875 14.1796875,50.91796875 14.1796875,46.5234375 24.0234375,46.5234375 24.0234375,31.611328125 20.537109375,30.2490234375 18.076171875,27.71484375 16.6845703125,29.43603515625 14.853515625,30.791015625 12.6489248275757,31.669921875 10.13671875,31.962890625 7.701416015625,31.76513671875 5.6103515625,31.171875 3.86352515220642,30.18310546875 2.4609375,28.798828125 1.38427734375,27.0025653839111 0.615234315395355,24.7778339385986 0.153808549046516,22.1246356964111 0,19.04296875 4.921875,19.04296875 5.10497999191284,22.4853534698486 5.654296875,24.66796875 7.43408203125,26.66748046875 10.4296875,27.333984375 13.0078125,26.89453125 14.736328125,25.458984375 15.7177734375,22.880859375 16.025390625,19.04296875 20.859375,19.04296875 21.060791015625,22.0202655792236 21.6650390625,24.3310546875 22.6574687957764,25.9753437042236 24.0234375,26.953125 24.0234375,4.39453077316284 14.1796875,4.39453077316284 14.1796875,0z" />
    </g>
  </g>
</svg>