<?xml version="1.0" encoding="utf-8"?>
<!DOCTYPE svg PUBLIC "-//W3C//DTD SVG 1.1//EN" "http://www.w3.org/Graphics/SVG/1.1/DTD/svg11.dtd">
<svg width="36.5332031250004" height="52.32421875" xmlns="http://www.w3.org/2000/svg" xmlns:xlink="http://www.w3.org/1999/xlink" xmlns:xml="http://www.w3.org/XML/1998/namespace" version="1.1">
  <g>
    <g>
      <path style="fill:#FF0000;fill-opacity:1" d="M21.884765625,28.681640625L19.98046875,28.875732421875 18.193359375,29.4580078125 15.1904296875,31.5380859375 13.18359375,34.5703125 12.451171875,38.203125 12.6415996551514,40.0634765625 13.212890625,41.8359375 15.263671875,44.8681640625 18.2666015625,46.93359375 20.028076171875,47.5048828125 21.884765625,47.6953125 23.7451152801514,47.49755859375 25.517578125,46.904296875 28.5498046875,44.794921875 30.615234375,41.7626953125 31.1865234375,40.015869140625 31.376953125,38.203125 30.6298828125,34.62890625 28.59375,31.58203125 25.576171875,29.47265625 23.7890605926514,28.87939453125 21.884765625,28.681640625z M18.310546875,0L21.416015625,3.83789086341858 17.5634765625,6.976318359375 14.2382802963257,10.1806640625 11.4404287338257,13.450927734375 9.169921875,16.787109375 7.41393995285034,20.1837177276611 6.15966749191284,23.6352558135986 5.40710401535034,27.1417255401611 5.15624952316284,30.703125 5.85937452316284,36.5478515625 6.76025342941284,39.532470703125 8.056640625,42.59765625 7.51464796066284,40.37109375 7.29492139816284,38.0859375 7.57690382003784,35.25146484375 8.4228515625,32.607421875 9.766845703125,30.2197265625 11.54296875,28.154296875 13.7145986557007,26.4514179229736 16.2451171875,25.1513671875 19.075927734375,24.3273944854736 22.1484375,24.052734375 24.9755840301514,24.3237323760986 27.65625,25.13671875 30.106201171875,26.4184589385986 32.2412109375,28.095703125 34.013671875,30.135498046875 35.3759765625,32.5048828125 36.243896484375,35.130615234375 36.533203125,37.939453125 36.240234375,40.94970703125 35.361328125,43.7109375 33.944091796875,46.16455078125 32.0361328125,48.251953125 29.666748046875,49.951171875 26.865234375,51.240234375 23.6791973114014,52.05322265625 20.15625,52.32421875 16.025390625,51.968994140625 12.1875,50.9033203125 8.741455078125,49.1455078125 5.78613233566284,46.7138671875 3.36914014816284,43.619384765625 1.53808498382568,39.873046875 0.384521007537842,35.50048828125 0,30.52734375 0.289306223392487,26.6564960479736 1.15722608566284,22.7197265625 2.60375928878784,18.7646484375 4.62890577316284,14.8388671875 7.218017578125,10.96435546875 10.3564453125,7.1630859375 14.0515127182007,3.48999309539795 18.310546875,0z" />
    </g>
  </g>
</svg>