<?xml version="1.0" encoding="utf-8"?>
<!DOCTYPE svg PUBLIC "-//W3C//DTD SVG 1.1//EN" "http://www.w3.org/Graphics/SVG/1.1/DTD/svg11.dtd">
<svg width="50.0390625" height="50.91796875" xmlns="http://www.w3.org/2000/svg" xmlns:xlink="http://www.w3.org/1999/xlink" xmlns:xml="http://www.w3.org/XML/1998/namespace" version="1.1">
  <g>
    <g>
      <path style="fill:#FF0000;fill-opacity:1" d="M25.01953125,36.123046875L26.279296875,36.3720703125 27.3046875,37.060546875 27.9931640625,38.0859375 28.2421875,39.345703125 27.9931640625,40.60546875 27.3046875,41.630859375 26.279296875,42.3193359375 25.01953125,42.568359375 23.759765625,42.3193359375 22.734375,41.630859375 22.0458984375,40.60546875 21.796875,39.345703125 22.0458984375,38.0859375 22.734375,37.060546875 23.759765625,36.3720703125 25.01953125,36.123046875z M4.921875,21.796875L4.921875,43.916015625 20.947265625,26.6015625 4.921875,21.796875z M25.01953125,8.349609375L26.279296875,8.5986328125 27.3046875,9.287109375 27.9931640625,10.3125 28.2421875,11.572265625 27.9931640625,12.83203125 27.3046875,13.857421875 26.279296875,14.5458984375 25.01953125,14.794921875 23.759765625,14.5458984375 22.734375,13.857421875 22.0458984375,12.83203125 21.796875,11.572265625 22.0458984375,10.3125 22.734375,9.287109375 23.759765625,8.5986328125 25.01953125,8.349609375z M45.1171875,7.001953125L29.23828125,24.375 45.1171875,29.091796875 45.1171875,7.001953125z M45.322265625,0L50.0390625,0 50.0390625,33.955078125 45.41015625,33.955078125 25.6640625,28.037109375 4.62890625,50.91796875 0,50.91796875 0,16.962890625 4.482421875,16.962890625 24.287109375,22.8515625 45.322265625,0z" />
    </g>
  </g>
</svg>