<?xml version="1.0" encoding="utf-8"?>
<!DOCTYPE svg PUBLIC "-//W3C//DTD SVG 1.1//EN" "http://www.w3.org/Graphics/SVG/1.1/DTD/svg11.dtd">
<svg width="45.99609375" height="50.91796875" xmlns="http://www.w3.org/2000/svg" xmlns:xlink="http://www.w3.org/1999/xlink" xmlns:xml="http://www.w3.org/XML/1998/namespace" version="1.1">
  <g>
    <g>
      <path style="fill:#FF0000;fill-opacity:1" d="M31.81640625,21.85546875L27.4365234375,23.671875 22.1484375,24.31640625 18.45703125,24.052734375 18.45703125,30.087890625 31.81640625,30.087890625 31.81640625,21.85546875z M0,0L23.73046875,0 23.73046875,4.39453125 14.1796875,4.39453125 14.1796875,12.3046875 14.6630859375,15.908203125 16.142578125,18.2666015625 18.662109375,19.541015625 22.265625,19.921875 25.3271484375,19.6435546875 28.154296875,18.80859375 30.3369140625,17.4169921875 31.494140625,15.46875 36.73828125,15.46875 36.73828125,15.5859375 36.73828125,46.5234375 45.99609375,46.5234375 45.99609375,50.91796875 22.265625,50.91796875 22.265625,46.5234375 31.81640625,46.5234375 31.81640625,34.482421875 13.53515625,34.482421875 13.53515625,22.353515625 11.4990224838257,20.5517597198486 10.1953125,18.251953125 9.4921875,15.5126953125 9.2578125,12.392578125 9.2578125,4.39453125 0,4.39453125 0,0z" />
    </g>
  </g>
</svg>