<?xml version="1.0" encoding="utf-8"?>
<!DOCTYPE svg PUBLIC "-//W3C//DTD SVG 1.1//EN" "http://www.w3.org/Graphics/SVG/1.1/DTD/svg11.dtd">
<svg width="29.23828125" height="49.98046875" xmlns="http://www.w3.org/2000/svg" xmlns:xlink="http://www.w3.org/1999/xlink" xmlns:xml="http://www.w3.org/XML/1998/namespace" version="1.1">
  <g>
    <g>
      <path style="fill:#FF0000;fill-opacity:1" d="M14.58984375,26.337890625L10.8984375,27.0849609375 7.8955078125,29.1357421875 5.888671875,32.16796875 5.15625,35.859375 5.888671875,39.55078125 7.8955078125,42.568359375 10.8984375,44.6044921875 14.58984375,45.3515625 18.28125,44.6044921875 21.298828125,42.568359375 23.3349609375,39.55078125 24.08203125,35.859375 23.3349609375,32.16796875 21.298828125,29.1357421875 18.28125,27.0849609375 14.58984375,26.337890625z M0,12.041015625L5.15625,12.041015625 5.888671875,15.76171875 7.8955078125,18.837890625 10.8984375,20.9326171875 12.685546875,21.5148944854736 14.58984375,21.708984375 16.4941387176514,21.5148944854736 18.28125,20.9326171875 21.298828125,18.837890625 23.3349609375,15.76171875 24.08203125,12.041015625 29.23828125,12.041015625 28.7548828125,15.6884765625 27.392578125,18.9404296875 25.2685546875,21.708984375 22.529296875,23.876953125 25.2685546875,26.0302734375 27.392578125,28.76953125 28.7548828125,31.9921875 29.23828125,35.595703125 28.948974609375,38.48876953125 28.0810546875,41.19140625 26.715087890625,43.6376953125 24.931640625,45.76171875 22.774658203125,47.515869140625 20.2880859375,48.8525390625 17.5451641082764,49.698486328125 14.619140625,49.98046875 11.693115234375,49.698486328125 8.9501953125,48.8525390625 6.46362209320068,47.515869140625 4.306640625,45.76171875 2.523193359375,43.6376953125 1.1572265625,41.19140625 0.289306640625,38.48876953125 0,35.595703125 0.4833984375,31.9921875 1.845703125,28.76953125 3.955078125,26.0302734375 6.6796875,23.876953125 3.955078125,21.708984375 1.845703125,18.9404296875 0.4833984375,15.6884765625 0,12.041015625z M23.90625,0L25.166015625,0.249023199081421 26.19140625,0.9375 26.8798828125,1.96289086341858 27.12890625,3.22265625 26.8798828125,4.482421875 26.19140625,5.50781297683716 25.166015625,6.1962890625 23.90625,6.4453125 22.646484375,6.1962890625 21.62109375,5.50781297683716 20.9326171875,4.482421875 20.68359375,3.22265625 20.9326171875,1.96289086341858 21.62109375,0.9375 22.646484375,0.249023199081421 23.90625,0z M5.33203125,0L6.591796875,0.249023199081421 7.6171875,0.9375 8.3056640625,1.96289086341858 8.5546875,3.22265625 8.3056640625,4.482421875 7.6171875,5.50781297683716 6.591796875,6.1962890625 5.33203125,6.4453125 4.072265625,6.1962890625 3.046875,5.50781297683716 2.3583984375,4.482421875 2.109375,3.22265625 2.3583984375,1.96289086341858 3.046875,0.9375 4.072265625,0.249023199081421 5.33203125,0z" />
    </g>
  </g>
</svg>