<?xml version="1.0" encoding="utf-8"?>
<!DOCTYPE svg PUBLIC "-//W3C//DTD SVG 1.1//EN" "http://www.w3.org/Graphics/SVG/1.1/DTD/svg11.dtd">
<svg width="35.9472656250002" height="50.91796875" xmlns="http://www.w3.org/2000/svg" xmlns:xlink="http://www.w3.org/1999/xlink" xmlns:xml="http://www.w3.org/XML/1998/namespace" version="1.1">
  <g>
    <g>
      <path style="fill:#FF0000;fill-opacity:1" d="M27.24609375,26.865234375L28.505859375,27.1142578125 29.53125,27.802734375 30.2197265625,28.828125 30.46875,30.087890625 30.2197265625,31.34765625 29.53125,32.373046875 28.505859375,33.0615234375 27.24609375,33.310546875 25.986328125,33.0615234375 24.9609375,32.373046875 24.2724609375,31.34765625 24.0234375,30.087890625 24.2724609375,28.828125 24.9609375,27.802734375 25.986328125,27.1142578125 27.24609375,26.865234375z M8.5546875,26.865234375L9.814453125,27.1142578125 10.83984375,27.802734375 11.5283203125,28.828125 11.77734375,30.087890625 11.5283203125,31.34765625 10.83984375,32.373046875 9.814453125,33.0615234375 8.5546875,33.310546875 7.294921875,33.0615234375 6.26953125,32.373046875 5.5810546875,31.34765625 5.33203125,30.087890625 5.5810546875,28.828125 6.26953125,27.802734375 7.294921875,27.1142578125 8.5546875,26.865234375z M0,0L4.92187404632568,0 4.92187404632568,5.09765625 5.185546875,8.818359375 6.005859375,11.66015625 7.44140625,13.4765625 9.521484375,14.12109375 12.36328125,13.564453125 14.208984375,11.923828125 15.2197265625,9.2138671875 15.52734375,5.41992235183716 15.52734375,0 20.44921875,0 20.44921875,5.33203077316284 20.7421875,9.345703125 21.73828125,12.0703125 23.5986328125,13.623046875 26.484375,14.12109375 28.5205078125,13.4765625 29.94140625,11.66015625 30.76171875,8.818359375 31.025390625,5.09765625 31.025390625,0 35.947265625,0 35.947265625,5.03906297683716 35.537109375,10.0927734375 34.4091796875,13.76953125 32.7685546875,16.259765625 30.8056640625,17.783203125 28.6962890625,18.544921875 26.630859375,18.75 23.1591796875,18.017578125 20.361328125,16.0546875 20.361328125,37.734375 29.501953125,37.734375 29.501953125,42.12890625 20.361328125,42.12890625 20.361328125,46.5234375 29.501953125,46.5234375 29.501953125,50.91796875 6.4453125,50.91796875 6.4453125,46.5234375 15.439453125,46.5234375 15.439453125,42.12890625 6.4453125,42.12890625 6.4453125,37.734375 15.439453125,37.734375 15.439453125,16.083984375 12.685546875,17.98828125 11.0742177963257,18.5595703125 9.345703125,18.75 5.9033203125,18.134765625 4.31396436691284,17.318115234375 2.91503882408142,16.0986328125 1.73583960533142,14.443359375 0.8056640625,12.3193359375 0.201415836811066,9.678955078125 0,6.47460985183716 0,0z" />
    </g>
  </g>
</svg>