<?xml version="1.0" encoding="utf-8"?>
<!DOCTYPE svg PUBLIC "-//W3C//DTD SVG 1.1//EN" "http://www.w3.org/Graphics/SVG/1.1/DTD/svg11.dtd">
<svg width="49.921875" height="50.91796875" xmlns="http://www.w3.org/2000/svg" xmlns:xlink="http://www.w3.org/1999/xlink" xmlns:xml="http://www.w3.org/XML/1998/namespace" version="1.1">
  <g>
    <g>
      <path style="fill:#FF0000;fill-opacity:1" d="M17.2265625,22.236328125L18.486328125,22.4853515625 19.51171875,23.173828125 20.2001953125,24.19921875 20.44921875,25.458984375 20.2001953125,26.71875 19.51171875,27.744140625 18.486328125,28.4326171875 17.2265625,28.681640625 15.966796875,28.4326171875 14.94140625,27.744140625 14.2529296875,26.71875 14.00390625,25.458984375 14.2529296875,24.19921875 14.94140625,23.173828125 15.966796875,22.4853515625 17.2265625,22.236328125z M34.453125,19.716796875L34.453125,31.201171875 45,31.201171875 45,19.716796875 34.453125,19.716796875z M4.921875,4.45312547683716L4.921875,46.46484375 29.53125,46.46484375 29.53125,4.45312547683716 4.921875,4.45312547683716z M0,0L34.453125,0 34.453125,15.263671875 49.921875,15.263671875 49.921875,35.654296875 34.453125,35.654296875 34.453125,50.91796875 0,50.91796875 0,0z" />
    </g>
  </g>
</svg>