<?xml version="1.0" encoding="utf-8"?>
<!DOCTYPE svg PUBLIC "-//W3C//DTD SVG 1.1//EN" "http://www.w3.org/Graphics/SVG/1.1/DTD/svg11.dtd">
<svg width="51.005859375" height="52.32421875" xmlns="http://www.w3.org/2000/svg" xmlns:xlink="http://www.w3.org/1999/xlink" xmlns:xml="http://www.w3.org/XML/1998/namespace" version="1.1">
  <g>
    <g>
      <path style="fill:#FF0000;fill-opacity:1" d="M51.005859375,0L51.005859375,4.51171922683716 45.17578125,5.40527391433716 40.0634765625,7.6318359375 35.80078125,11.0302734375 32.548828125,15.380859375 30.4833984375,20.478515625 29.765625,26.162109375 30.46875,31.669921875 32.4755859375,36.7822265625 35.6689453125,41.220703125 39.9169921875,44.7216796875 45.0732421875,47.021484375 47.9553184509277,47.63671875 51.005859375,47.841796875 51.005859375,52.32421875 47.2924766540527,52.093505859375 43.76953125,51.4013671875 40.46630859375,50.284423828125 37.412109375,48.779296875 32.109375,44.6923828125 28.06640625,39.404296875 26.5905742645264,36.38671875 25.5029296875,33.134765625 24.8327617645264,29.69970703125 24.609375,26.1328125 24.8400859832764,22.6721210479736 25.5322265625,19.3212890625 26.6491680145264,16.12060546875 28.154296875,13.1103515625 32.255859375,7.79296875 37.587890625,3.64746141433716 40.634765625,2.10205364227295 43.916015625,0.952148497104645 47.3876914978027,0.238039970397949 51.005859375,0z M26.396484375,0L26.396484375,4.51171922683716 20.56640625,5.40527391433716 15.4541015625,7.6318359375 11.19140625,11.0302734375 7.939453125,15.380859375 5.8740234375,20.478515625 5.15625,26.162109375 5.859375,31.669921875 7.8662109375,36.7822265625 11.0595703125,41.220703125 15.3076171875,44.7216796875 20.4638671875,47.021484375 23.3459453582764,47.63671875 26.396484375,47.841796875 26.396484375,52.32421875 22.6831035614014,52.093505859375 19.16015625,51.4013671875 15.85693359375,50.284423828125 12.802734375,48.779296875 7.5,44.6923828125 3.45703148841858,39.404296875 1.98120129108429,36.38671875 0.8935546875,33.134765625 0.223388850688934,29.69970703125 0,26.1328125 0.230713069438934,22.6721210479736 0.9228515625,19.3212890625 2.03979516029358,16.12060546875 3.54492259025574,13.1103515625 7.646484375,7.79296875 12.978515625,3.64746141433716 16.025390625,2.10205364227295 19.306640625,0.952148497104645 22.7783184051514,0.238039970397949 26.396484375,0z" />
    </g>
  </g>
</svg>