<?xml version="1.0" encoding="utf-8"?>
<!DOCTYPE svg PUBLIC "-//W3C//DTD SVG 1.1//EN" "http://www.w3.org/Graphics/SVG/1.1/DTD/svg11.dtd">
<svg width="44.8828125" height="50.91796875" xmlns="http://www.w3.org/2000/svg" xmlns:xlink="http://www.w3.org/1999/xlink" xmlns:xml="http://www.w3.org/XML/1998/namespace" version="1.1">
  <g>
    <g>
      <path style="fill:#FF0000;fill-opacity:1" d="M41.66015625,37.705078125L42.919921875,37.9541015625 43.9453125,38.642578125 44.6337890625,39.66796875 44.8828125,40.927734375 44.6337890625,42.1875 43.9453125,43.212890625 42.919921875,43.9013671875 41.66015625,44.150390625 40.400390625,43.9013671875 39.375,43.212890625 38.6865234375,42.1875 38.4375,40.927734375 38.6865234375,39.66796875 39.375,38.642578125 40.400390625,37.9541015625 41.66015625,37.705078125z M18.22265625,37.705078125L19.482421875,37.9541015625 20.5078125,38.642578125 21.1962890625,39.66796875 21.4453125,40.927734375 21.1962890625,42.1875 20.5078125,43.212890625 19.482421875,43.9013671875 18.22265625,44.150390625 16.962890625,43.9013671875 15.9375,43.212890625 15.2490234375,42.1875 15,40.927734375 15.2490234375,39.66796875 15.9375,38.642578125 16.962890625,37.9541015625 18.22265625,37.705078125z M27.48046875,28.125L32.40234375,28.125 32.40234375,50.91796875 27.48046875,50.91796875 27.48046875,28.125z M39.19921875,0L44.12109375,0 44.12109375,30.41015625 39.19921875,30.41015625 39.19921875,6.09375047683716 26.396484375,16.7578125 23.4375,13.125 39.19921875,0z M15.76171875,0L20.68359375,0 20.68359375,30.41015625 15.76171875,30.41015625 15.76171875,6.09375047683716 2.95898389816284,16.7578125 0,13.125 15.76171875,0z" />
    </g>
  </g>
</svg>