<?xml version="1.0" encoding="utf-8"?>
<!DOCTYPE svg PUBLIC "-//W3C//DTD SVG 1.1//EN" "http://www.w3.org/Graphics/SVG/1.1/DTD/svg11.dtd">
<svg width="43.154296875" height="50.91796875" xmlns="http://www.w3.org/2000/svg" xmlns:xlink="http://www.w3.org/1999/xlink" xmlns:xml="http://www.w3.org/XML/1998/namespace" version="1.1">
  <g>
    <g>
      <path style="fill:#FF0000;fill-opacity:1" d="M31.58203125,39.169921875L31.58203125,46.5234375 38.232421875,46.5234375 38.232421875,39.169921875 31.58203125,39.169921875z M20.361328125,39.169921875L20.361328125,46.5234375 27.01171875,46.5234375 27.01171875,39.169921875 20.361328125,39.169921875z M31.58203125,27.59765625L31.58203125,35.009765625 38.232421875,35.009765625 38.232421875,27.59765625 31.58203125,27.59765625z M20.361328125,27.59765625L20.361328125,35.009765625 27.01171875,35.009765625 27.01171875,27.59765625 20.361328125,27.59765625z M0,0L4.921875,0 4.921875,5.09765625 5.185546875,8.818359375 6.005859375,11.66015625 7.44140625,13.4765625 9.521484375,14.12109375 12.36328125,13.564453125 14.208984375,11.923828125 15.2197265625,9.2138671875 15.52734375,5.41992235183716 15.52734375,0 20.44921875,0 20.44921875,5.33203077316284 20.7421875,9.345703125 21.73828125,12.0703125 23.5986328125,13.623046875 26.484375,14.12109375 28.5205078125,13.4765625 29.94140625,11.66015625 30.76171875,8.818359375 31.025390625,5.09765625 31.025390625,0 35.947265625,0 35.947265625,5.03906297683716 35.537109375,10.0927734375 34.4091796875,13.76953125 32.7685546875,16.259765625 30.8056640625,17.783203125 28.6962890625,18.544921875 26.630859375,18.75 23.1591796875,18.017578125 20.361328125,16.0546875 20.361328125,23.203125 43.154296875,23.203125 43.154296875,50.91796875 15.439453125,50.91796875 15.439453125,16.083984375 12.685546875,17.98828125 11.0742177963257,18.5595703125 9.345703125,18.75 5.9033203125,18.134765625 4.31396436691284,17.318115234375 2.9150390625,16.0986328125 1.73583972454071,14.443359375 0.805663824081421,12.3193359375 0.201415985822678,9.678955078125 0,6.47460985183716 0,0z" />
    </g>
  </g>
</svg>