<?xml version="1.0" encoding="utf-8"?>
<!DOCTYPE svg PUBLIC "-//W3C//DTD SVG 1.1//EN" "http://www.w3.org/Graphics/SVG/1.1/DTD/svg11.dtd">
<svg width="43.447265625" height="43.447265625" xmlns="http://www.w3.org/2000/svg" xmlns:xlink="http://www.w3.org/1999/xlink" xmlns:xml="http://www.w3.org/XML/1998/namespace" version="1.1">
  <g>
    <g>
      <path style="fill:#FF0000;fill-opacity:1" d="M21.708984375,0L22.9760723114014,0.238037109375 24.0234375,0.9521484375 24.7265605926514,2.032470703125 24.9609375,3.369140625 24.6240234375,6.5771484375 23.84765625,10.166015625 23.02734375,14.443359375 22.55859375,19.6875 25.9423828125,15.6298828125 28.4033203125,11.982421875 30.380859375,8.876953125 32.34375,6.416015625 33.4716796875,5.625 34.74609375,5.390625 36.0498046875,5.654296875 37.08984375,6.357421875 37.7783203125,7.3974609375 38.02734375,8.642578125 37.7783203125,9.931640625 37.03125,11.044921875 34.5263671875,13.06640625 31.4208984375,15.0439453125 27.8173828125,17.490234375 23.818359375,20.888671875 29.0478515625,20.4052734375 33.3251953125,19.5703125 36.9140625,18.779296875 40.078125,18.427734375 41.42578125,18.69140625 42.4951171875,19.39453125 43.1982421875,20.4345703125 43.447265625,21.708984375 43.1982421875,22.9833984375 42.4951171875,24.0380859375 41.42578125,24.755859375 40.078125,25.01953125 36.9140625,24.66796875 33.3251953125,23.876953125 29.0478515625,23.0419921875 23.818359375,22.55859375 27.8173828125,25.927734375 31.4208984375,28.3740234375 34.5263671875,30.3662109375 37.03125,32.40234375 37.7783203125,33.5009765625 38.02734375,34.8046875 37.7783203125,36.03515625 37.08984375,37.060546875 36.0498046875,37.763671875 34.74609375,38.02734375 33.4716796875,37.79296875 32.34375,37.001953125 30.380859375,34.541015625 28.4033203125,31.435546875 25.9423828125,27.802734375 22.55859375,23.759765625 23.02734375,28.9892578125 23.84765625,33.2666015625 24.6240234375,36.8701171875 24.9609375,40.078125 24.7119140625,41.396484375 24.0234375,42.4658203125 22.9833984375,43.18359375 21.708984375,43.447265625 20.44921875,43.18359375 19.423828125,42.4658203125 18.7353515625,41.396484375 18.486328125,40.078125 18.8232421875,36.8701171875 19.5849609375,33.2666015625 20.4052734375,28.9892578125 20.888671875,23.759765625 17.490234375,27.802734375 15.0439453125,31.435546875 13.06640625,34.541015625 11.103515625,37.001953125 9.9609375,37.79296875 8.701171875,38.02734375 7.3681640625,37.763671875 6.328125,37.060546875 5.6396484375,36.03515625 5.390625,34.8046875 5.654296875,33.5009765625 6.416015625,32.40234375 8.90625,30.3662109375 11.9970703125,28.3740234375 15.6005859375,25.927734375 19.62890625,22.55859375 14.384765625,23.0419921875 10.107421875,23.876953125 6.533203125,24.66796875 3.369140625,25.01953125 2.021484375,24.755859375 0.9521484375,24.0380859375 0.2490234375,22.9833984375 0,21.708984375 0.2490234375,20.4345703125 0.9521484375,19.39453125 2.021484375,18.69140625 3.369140625,18.427734375 6.533203125,18.779296875 10.107421875,19.5703125 14.384765625,20.4052734375 19.62890625,20.888671875 15.6005859375,17.490234375 11.9970703125,15.0439453125 8.90625,13.06640625 6.416015625,11.044921875 5.654296875,9.931640625 5.390625,8.642578125 5.6396484375,7.3974609375 6.328125,6.357421875 7.3681640625,5.654296875 8.701171875,5.390625 9.9609375,5.625 11.103515625,6.416015625 13.06640625,8.876953125 15.0439453125,11.982421875 17.490234375,15.6298828125 20.888671875,19.6875 20.4052734375,14.443359375 19.5849609375,10.166015625 18.8232421875,6.5771484375 18.486328125,3.369140625 18.7353515625,2.021484375 19.423828125,0.9521484375 20.44921875,0.2490234375 21.708984375,0z" />
    </g>
  </g>
</svg>