<?xml version="1.0" encoding="utf-8"?>
<!DOCTYPE svg PUBLIC "-//W3C//DTD SVG 1.1//EN" "http://www.w3.org/Graphics/SVG/1.1/DTD/svg11.dtd">
<svg width="42.099609375" height="67.3828125" xmlns="http://www.w3.org/2000/svg" xmlns:xlink="http://www.w3.org/1999/xlink" xmlns:xml="http://www.w3.org/XML/1998/namespace" version="1.1">
  <g>
    <g>
      <path style="fill:#FF0000;fill-opacity:1" d="M21.064453125,52.646484375L18.9990234375,53.056640625 17.3291015625,54.1845703125 16.201171875,55.869140625 15.791015625,57.919921875 16.201171875,59.9560546875 17.3291015625,61.6259765625 19.013671875,62.75390625 21.064453125,63.1640625 23.1005859375,62.75390625 24.7705078125,61.6259765625 25.8984375,59.9560546875 26.30859375,57.919921875 25.8984375,55.869140625 24.7705078125,54.1845703125 23.1005859375,53.056640625 21.064453125,52.646484375z M21.064453125,4.21874952316284L17.6843242645264,4.55200481414795 14.5166015625,5.5517578125 11.649169921875,7.122802734375 9.169921875,9.169921875 7.12280225753784,11.65283203125 5.55175828933716,14.53125 4.55200242996216,17.70263671875 4.21875047683716,21.064453125 12.626953125,21.064453125 13.2861328125,17.7685546875 15.087890625,15.087890625 17.7685546875,13.2861328125 21.064453125,12.626953125 24.31640625,13.30078125 26.982421875,15.1171875 28.798828125,17.7978515625 29.47265625,21.064453125 29.212646484375,23.2470703125 28.4326171875,25.107421875 25.751953125,28.330078125 22.060546875,32.197265625 19.2626953125,36.3427734375 17.4755859375,40.986328125 16.845703125,46.318359375 25.25390625,46.318359375 25.6787109375,42.890625 26.8798828125,39.9169921875 28.740234375,37.2802734375 31.11328125,34.833984375 33.92578125,31.8896484375 36.064453125,28.6962890625 37.4267578125,25.1220703125 37.91015625,21.064453125 37.576904296875,17.70263671875 36.5771484375,14.53125 35.006103515625,11.65283203125 32.958984375,9.169921875 30.47607421875,7.122802734375 27.59765625,5.5517578125 24.42626953125,4.55200481414795 21.064453125,4.21874952316284z M21.064453125,0L23.909912109375,0.190432548522949 26.6455078125,0.76171875 31.669921875,2.8857421875 35.9326171875,6.181640625 39.228515625,10.4443359375 41.3525390625,15.46875 42.099609375,21.064453125 41.5283203125,26.0888671875 39.8876953125,30.498046875 37.2802734375,34.453125 33.80859375,38.0859375 32.080078125,39.8291015625 30.7177734375,41.7333984375 29.8095703125,43.8720703125 29.47265625,46.318359375 29.47265625,53.671875 30.263671875,55.72265625 30.52734375,57.919921875 29.7802734375,61.5966796875 27.744140625,64.599609375 24.7412109375,66.6357421875 21.064453125,67.3828125 17.373046875,66.6357421875 14.35546875,64.599609375 12.3193359375,61.5966796875 11.572265625,57.919921875 11.8505859375,55.7373046875 12.626953125,53.671875 12.626953125,46.318359375 13.0810546875,41.4111328125 14.443359375,36.708984375 16.64794921875,32.3291015625 19.62890625,28.388671875 21.3134765625,26.71875 23.056640625,25.107421875 24.609375,23.3203125 25.25390625,21.064453125 24.931640625,19.423828125 24.0380859375,18.0908203125 22.705078125,17.1826171875 21.064453125,16.845703125 19.423828125,17.1826171875 18.0908203125,18.0908203125 17.1826171875,19.423828125 16.845703125,21.064453125 16.845703125,25.283203125 0,25.283203125 0,21.064453125 0.190429747104645,18.21533203125 0.761719226837158,15.46875 2.88574171066284,10.4443359375 6.18164110183716,6.181640625 10.4443359375,2.8857421875 15.46875,0.76171875 18.2153301239014,0.190432548522949 21.064453125,0z" />
    </g>
  </g>
</svg>