<?xml version="1.0" encoding="utf-8"?>
<!DOCTYPE svg PUBLIC "-//W3C//DTD SVG 1.1//EN" "http://www.w3.org/Graphics/SVG/1.1/DTD/svg11.dtd">
<svg width="17.05078125" height="43.447265625" xmlns="http://www.w3.org/2000/svg" xmlns:xlink="http://www.w3.org/1999/xlink" xmlns:xml="http://www.w3.org/XML/1998/namespace" version="1.1">
  <g>
    <g>
      <path style="fill:#FF0000;fill-opacity:1" d="M13.564453125,0L17.05078125,0 17.05078125,3.837890625 16.81640625,3.837890625 14.83154296875,4.163818359375 13.447265625,5.1416015625 12.6342763900757,6.697998046875 12.36328125,8.759765625 12.36328125,15.234375 12.0904531478882,17.6129150390625 11.2719717025757,19.47509765625 9.90783596038818,20.8209228515625 7.998046875,21.650390625 7.998046875,21.708984375 9.90783596038818,22.5457763671875 11.2719717025757,23.88427734375 12.0904531478882,25.7244873046875 12.36328125,28.06640625 12.36328125,34.423828125 12.6159658432007,36.73828125 13.3740234375,38.349609375 14.739990234375,39.29443359375 16.81640625,39.609375 17.05078125,39.609375 17.05078125,43.447265625 13.564453125,43.447265625 9.60205078125,42.923583984375 6.796875,41.4697265625 5.126953125,39.093017578125 4.57031297683716,35.80078125 4.57031297683716,28.623046875 4.28466796875,26.4404296875 3.42773413658142,24.84375 1.99951148033142,23.8330078125 0,23.408203125 0,20.0390625 1.99951148033142,19.60693359375 3.42773413658142,18.57421875 4.28466796875,16.94091796875 4.57031297683716,14.70703125 4.57031297683716,7.734375 5.126953125,4.368896484375 6.796875,1.9482421875 9.60205078125,0.487060546875 13.564453125,0z" />
    </g>
  </g>
</svg>