<?xml version="1.0" encoding="utf-8"?>
<!DOCTYPE svg PUBLIC "-//W3C//DTD SVG 1.1//EN" "http://www.w3.org/Graphics/SVG/1.1/DTD/svg11.dtd">
<svg width="43.447265625" height="43.447265625" xmlns="http://www.w3.org/2000/svg" xmlns:xlink="http://www.w3.org/1999/xlink" xmlns:xml="http://www.w3.org/XML/1998/namespace" version="1.1">
  <g>
    <g>
      <path style="fill:#FF0000;fill-opacity:1" d="M21.708984375,0L23.1079082489014,0.27099609375 24.19921875,1.083984375 24.9023418426514,2.4169921875 25.13671875,4.248046875 24.814453125,7.6025390625 24.0673828125,11.1328125 23.203125,15.380859375 22.8222637176514,17.9296894073486 22.55859375,20.888671875 25.5175762176514,20.60302734375 28.06640625,20.21484375 32.314453125,19.3505859375 35.8447265625,18.603515625 39.169921875,18.28125 41.004638671875,18.5192890167236 42.3486328125,19.2333984375 43.1726036071777,20.328369140625 43.447265625,21.708984375 43.1726036071777,23.10791015625 42.3486328125,24.19921875 41.004638671875,24.90234375 39.169921875,25.13671875 35.8447265625,24.814453125 32.314453125,24.0673828125 28.06640625,23.2177734375 25.5175762176514,22.840576171875 22.55859375,22.55859375 22.8222637176514,25.517578125 23.203125,28.06640625 24.0673828125,32.314453125 24.814453125,35.8447265625 25.13671875,39.169921875 24.9023418426514,41.004638671875 24.19921875,42.3486328125 23.1079082489014,43.172607421875 21.708984375,43.447265625 20.3320293426514,43.172607421875 19.248046875,42.3486328125 18.544921875,41.004638671875 18.310546875,39.169921875 18.6328125,35.8447265625 19.3798828125,32.314453125 20.2294921875,28.06640625 20.6066875457764,25.517578125 20.888671875,22.55859375 17.9296875,22.840576171875 15.380859375,23.2177734375 11.1328125,24.0673828125 7.587890625,24.814453125 4.248046875,25.13671875 2.41699171066284,24.90234375 1.083984375,24.19921875 0.27099609375,23.10791015625 0,21.708984375 0.27099609375,20.328369140625 1.083984375,19.2333984375 2.41699171066284,18.5192890167236 4.248046875,18.28125 7.587890625,18.603515625 11.1328125,19.3505859375 15.380859375,20.21484375 17.9296875,20.60302734375 20.888671875,20.888671875 20.6066875457764,17.9296894073486 20.2294921875,15.380859375 19.3798828125,11.1328125 18.6328125,7.6025390625 18.310546875,4.248046875 18.544921875,2.4169921875 19.248046875,1.083984375 20.3320293426514,0.27099609375 21.708984375,0z" />
    </g>
  </g>
</svg>