<?xml version="1.0" encoding="utf-8"?>
<!DOCTYPE svg PUBLIC "-//W3C//DTD SVG 1.1//EN" "http://www.w3.org/Graphics/SVG/1.1/DTD/svg11.dtd">
<svg width="26.220703125" height="21.4453125" xmlns="http://www.w3.org/2000/svg" xmlns:xlink="http://www.w3.org/1999/xlink" xmlns:xml="http://www.w3.org/XML/1998/namespace" version="1.1">
  <g>
    <g>
      <path style="fill:#FF0000;fill-opacity:1" d="M11.513671875,0L11.513671875,3.134765625 9.111328125,4.1162109375 7.1923828125,5.302734375 5.7421875,6.884765625 4.74609375,9.0234375 5.8154296875,8.7890625 6.9140625,8.701171875 9.228515625,9.0673828125 11.0888671875,10.0927734375 12.4072265625,11.7041015625 13.095703125,13.828125 13.740234375,9.43359375 15.7177734375,5.478515625 17.28515625,3.760986328125 19.2626953125,2.2412109375 21.6906719207764,0.970458984375 24.609375,0 24.609375,3.134765625 22.20703125,4.1162109375 20.2734375,5.302734375 18.8232421875,6.884765625 17.841796875,9.0234375 18.8818359375,8.7890625 19.98046875,8.701171875 22.5,9.140625 24.4775390625,10.3857421875 25.7666015625,12.3193359375 26.220703125,14.82421875 25.78125,17.4462890625 24.5068359375,19.5556640625 22.4853515625,20.947265625 19.8046875,21.4453125 17.3291015625,20.9912109375 15.29296875,19.7021484375 13.857421875,17.666015625 13.154296875,15 12.6708984375,17.548828125 11.3818359375,19.5849609375 9.375,20.947265625 6.73828125,21.4453125 4.072265625,20.91796875 1.93359375,19.423828125 0.512695074081421,17.0947265625 0,14.0625 0.600585699081421,9.5947265625 1.39160144329071,7.496337890625 2.5634765625,5.56640625 4.13452100753784,3.8232421875 6.123046875,2.28515625 8.5693359375,0.99609375 11.513671875,0z" />
    </g>
  </g>
</svg>