<?xml version="1.0" encoding="utf-8"?>
<!DOCTYPE svg PUBLIC "-//W3C//DTD SVG 1.1//EN" "http://www.w3.org/Graphics/SVG/1.1/DTD/svg11.dtd">
<svg width="44.8828125" height="43.447265625" xmlns="http://www.w3.org/2000/svg" xmlns:xlink="http://www.w3.org/1999/xlink" xmlns:xml="http://www.w3.org/XML/1998/namespace" version="1.1">
  <g>
    <g>
      <path style="fill:#FF0000;fill-opacity:1" d="M29.0625,25.869140625L28.271484375,26.8798828125 27.36328125,27.7734375 32.51953125,35.33203125 31.318359375,36.123046875 26.220703125,28.505859375 24.7119140625,29.150390625 22.998046875,29.443359375 23.5986328125,34.0283203125 25.048828125,37.587890625 27.568359375,39.90234375 29.296875,40.517578125 31.376953125,40.72265625 33.837890625,40.3271484375 35.8447265625,39.169921875 37.20703125,37.2509765625 37.705078125,34.541015625 37.353515625,32.1240234375 36.0498046875,29.7216796875 33.4130859375,27.568359375 31.483154296875,26.6455078125 29.0625,25.869140625z M15.849609375,25.869140625L13.406982421875,26.6455078125 11.4697265625,27.568359375 8.84765625,29.7216796875 7.55859375,32.1240234375 7.20703125,34.541015625 7.705078125,37.2509765625 9.052734375,39.169921875 11.044921875,40.3271484375 13.505859375,40.72265625 15.604248046875,40.517578125 17.3291015625,39.90234375 19.8486328125,37.587890625 21.298828125,34.0283203125 21.9140625,29.443359375 20.2001953125,29.150390625 18.662109375,28.505859375 13.564453125,36.123046875 12.36328125,35.33203125 17.51953125,27.7734375 16.611328125,26.8798828125 15.849609375,25.869140625z M36.064453125,11.572265625L33.9404296875,11.8615741729736 31.787109375,12.7294921875 29.7216796875,14.1760272979736 27.861328125,16.201171875 28.9599609375,17.548828125 29.765625,19.130859375 37.32421875,17.2265625 37.705078125,18.603515625 30.1171875,20.5078125 30.1904296875,21.15234375 30.205078125,21.708984375 30.029296875,23.3642578125 29.53125,24.90234375 31.40625,25.224609375 33.369140625,25.3125 36.650390625,24.9462890625 39.462890625,23.7451171875 41.4404296875,21.5625 42.1875,18.28125 41.7041015625,15.3955078125 40.3857421875,13.30078125 38.4375,12.01171875 36.064453125,11.572265625z M8.818359375,11.572265625L6.4599609375,12.01171875 4.5263671875,13.30078125 3.2080078125,15.3955078125 2.724609375,18.28125 3.4716796875,21.5625 5.44921875,23.7451171875 8.26171875,24.9462890625 11.54296875,25.3125 13.505859375,25.224609375 15.380859375,24.90234375 14.70703125,21.708984375 14.70703125,21.15234375 14.765625,20.5078125 7.20703125,18.603515625 7.55859375,17.2265625 15.1171875,19.130859375 17.05078125,16.201171875 15.1904296875,14.1760272979736 13.125,12.7294921875 10.9643545150757,11.8615741729736 8.818359375,11.572265625z M22.44140625,2.6953125L19.4091796875,3.1787109375 17.28515625,4.4970703125 16.025390625,6.4599609375 15.615234375,8.876953125 16.23046875,12.1435546875 17.958984375,15.46875 19.716796875,14.501953125 21.73828125,14.033203125 21.73828125,6.943359375 23.173828125,6.943359375 23.173828125,14.033203125 25.1953125,14.501953125 26.953125,15.46875 28.681640625,12.1435546875 29.296875,8.876953125 28.88671875,6.4599609375 27.626953125,4.4970703125 25.48828125,3.1787109375 22.44140625,2.6953125z M22.44140625,0L25.9716796875,0.5859375 28.76953125,2.2265625 30.6005859375,4.7314453125 31.259765625,7.91015625 31.0546875,9.9169921875 30.263671875,12.12890625 33.310546875,10.25390625 36.5625,9.66796875 39.7412109375,10.25390625 42.392578125,11.9384765625 44.208984375,14.6337890625 44.8828125,18.28125 44.6594200134277,20.48583984375 43.9892578125,22.294921875 41.6162109375,24.8876953125 38.2470703125,26.279296875 34.39453125,26.630859375 37.012939453125,28.157958984375 38.8916015625,30.1025390625 40.023193359375,32.384033203125 40.400390625,34.921875 39.84375,38.3349609375 38.1591796875,41.0302734375 35.3466796875,42.802734375 31.376953125,43.447265625 29.190673828125,43.253173828125 27.3779296875,42.6708984375 24.7119140625,40.6787109375 23.14453125,37.9541015625 22.44140625,34.98046875 21.767578125,37.9541015625 20.185546875,40.6787109375 17.5048828125,42.6708984375 15.692138671875,43.253173828125 13.505859375,43.447265625 9.5361328125,42.802734375 6.73828125,41.0302734375 5.068359375,38.3349609375 4.51171875,34.921875 4.888916015625,32.384033203125 6.0205078125,30.1025390625 7.899169921875,28.157958984375 10.517578125,26.630859375 6.6357421875,26.279296875 3.28125,24.8876953125 0.908203125,22.294921875 0.22705078125,20.48583984375 0,18.28125 0.673828125,14.6337890625 2.490234375,11.9384765625 5.1416015625,10.25390625 8.349609375,9.66796875 11.6015625,10.25390625 14.6484375,12.12890625 13.8427734375,9.9169921875 13.623046875,7.91015625 14.2822265625,4.7314453125 16.11328125,2.2265625 18.9111328125,0.5859375 22.44140625,0z" />
    </g>
  </g>
</svg>