<?xml version="1.0" encoding="utf-8"?>
<!DOCTYPE svg PUBLIC "-//W3C//DTD SVG 1.1//EN" "http://www.w3.org/Graphics/SVG/1.1/DTD/svg11.dtd">
<svg width="43.447265625" height="43.447265625" xmlns="http://www.w3.org/2000/svg" xmlns:xlink="http://www.w3.org/1999/xlink" xmlns:xml="http://www.w3.org/XML/1998/namespace" version="1.1">
  <g>
    <g>
      <path style="fill:#FF0000;fill-opacity:1" d="M21.474609375,21.73828125L19.6728515625,22.177734375 18.369140625,23.3349609375 17.5634765625,24.9609375 17.28515625,26.8359375 17.51953125,28.9453125 18.2666015625,30.9814453125 19.5703125,32.51953125 21.50390625,33.134765625 23.349609375,32.6220703125 24.5947265625,31.2890625 25.3125,29.4580078125 25.546875,27.451171875 25.341796875,25.37109375 24.66796875,23.5400390625 23.408203125,22.236328125 21.474609375,21.73828125z M23.232421875,8.96484375L25.3564453125,9.140625 27.01171875,9.697265625 27.01171875,12.421875 25.1953125,11.6748046875 23.291015625,11.42578125 21.123046875,11.9677734375 19.51171875,13.41796875 18.369140625,15.5126953125 17.63671875,17.958984375 17.255859375,20.4931640625 17.138671875,22.822265625 17.197265625,22.822265625 18.046875,21.258544921875 19.130859375,20.1416015625 20.44921875,19.471435546875 22.001953125,19.248046875 24.7705078125,19.9072265625 26.7333984375,21.650390625 27.9052734375,24.140625 28.30078125,27.041015625 27.8466796875,30.1171875 26.513671875,32.841796875 24.345703125,34.775390625 21.416015625,35.5078125 19.515380859375,35.2294921875 17.9736328125,34.39453125 15.8056640625,31.5673828125 14.677734375,27.8173828125 14.35546875,23.935546875 14.5458984375,20.7861328125 15.1611328125,17.431640625 16.2744140625,14.23828125 17.9443359375,11.54296875 20.244140625,9.66796875 23.232421875,8.96484375z M21.73828125,2.63671875L17.75390625,3.01025390625 14.12109375,4.130859375 10.9094228744507,5.899658203125 8.1884765625,8.2177734375 5.987548828125,11.0302743911743 4.3359375,14.2822265625 3.30322265625,17.8747577667236 2.958984375,21.708984375 3.63281202316284,26.7919921875 5.537109375,31.3623046875 8.49609375,35.21484375 12.3046875,38.1884765625 16.7724609375,40.107421875 21.73828125,40.78125 25.7665996551514,40.40771484375 29.4140625,39.287109375 32.6220703125,37.52197265625 35.33203125,35.21484375 37.518310546875,32.40966796875 39.1552734375,29.150390625 40.177001953125,25.546875 40.517578125,21.708984375 40.169677734375,17.8747577667236 39.1259765625,14.2822265625 37.46337890625,11.0302743911743 35.2587890625,8.2177734375 32.537841796875,5.899658203125 29.326171875,4.130859375 25.7006816864014,3.01025390625 21.73828125,2.63671875z M21.73828125,0L24.7961406707764,0.194091796875 27.7001953125,0.7763671875 32.9443359375,2.958984375 37.294921875,6.357421875 40.60546875,10.751953125 42.71484375,15.9375 43.447265625,21.708984375 42.71484375,27.4951171875 40.60546875,32.6806640625 37.294921875,37.0751953125 32.9443359375,40.4736328125 27.7001953125,42.6708984375 24.7961406707764,43.253173828125 21.73828125,43.447265625 18.68408203125,43.253173828125 15.791015625,42.6708984375 10.5615234375,40.4736328125 6.1962890625,37.0751953125 2.87109375,32.6806640625 0.747070550918579,27.48046875 0,21.708984375 0.747070550918579,15.9375 2.87109375,10.751953125 6.1962890625,6.357421875 10.5615234375,2.958984375 15.8056640625,0.7763671875 18.702392578125,0.194091796875 21.73828125,0z" />
    </g>
  </g>
</svg>