<?xml version="1.0" encoding="utf-8"?>
<!DOCTYPE svg PUBLIC "-//W3C//DTD SVG 1.1//EN" "http://www.w3.org/Graphics/SVG/1.1/DTD/svg11.dtd">
<svg width="42.0703125" height="42.01171875" xmlns="http://www.w3.org/2000/svg" xmlns:xlink="http://www.w3.org/1999/xlink" xmlns:xml="http://www.w3.org/XML/1998/namespace" version="1.1">
  <g>
    <g>
      <path style="fill:#FF0000;fill-opacity:1" d="M18.662109375,3.193359375L23.466796875,3.193359375 23.466796875,18.603515625 38.935546875,18.603515625 38.935546875,23.408203125 23.466796875,23.408203125 23.466796875,38.90625 18.662109375,38.90625 18.662109375,23.408203125 3.1640625,23.408203125 3.1640625,18.603515625 18.662109375,18.603515625 18.662109375,3.193359375z M16.9921875,1.5234375L16.9921875,16.93359375 1.494140625,16.93359375 1.494140625,25.078125 16.9921875,25.078125 16.9921875,40.517578125 25.13671875,40.517578125 25.13671875,25.078125 40.546875,25.078125 40.546875,16.93359375 25.13671875,16.93359375 25.13671875,1.5234375 16.9921875,1.5234375z M15.46875,0L26.630859375,0 26.630859375,15.439453125 42.0703125,15.439453125 42.0703125,26.6015625 26.630859375,26.6015625 26.630859375,42.01171875 15.46875,42.01171875 15.46875,26.6015625 0,26.6015625 0,15.439453125 15.46875,15.439453125 15.46875,0z" />
    </g>
  </g>
</svg>