<?xml version="1.0" encoding="utf-8"?>
<!DOCTYPE svg PUBLIC "-//W3C//DTD SVG 1.1//EN" "http://www.w3.org/Graphics/SVG/1.1/DTD/svg11.dtd">
<svg width="43.447265625" height="43.447265625" xmlns="http://www.w3.org/2000/svg" xmlns:xlink="http://www.w3.org/1999/xlink" xmlns:xml="http://www.w3.org/XML/1998/namespace" version="1.1">
  <g>
    <g>
      <path style="fill:#FF0000;fill-opacity:1" d="M21.005859375,27.48046875L22.44140625,27.48046875 24.140625,31.2158203125 25.2099609375,34.1015625 25.7666015625,36.4599609375 25.927734375,38.583984375 25.6677227020264,40.51025390625 24.8876953125,42.0703125 23.5729961395264,43.10302734375 21.708984375,43.447265625 19.8669414520264,43.10302734375 18.5595703125,42.0703125 17.779541015625,40.51025390625 17.51953125,38.583984375 17.6806640625,36.4599609375 18.2373046875,34.1015625 19.306640625,31.2158203125 21.005859375,27.48046875z M26.513671875,25.25390625L39.287109375,37.6171875 37.55859375,39.287109375 25.25390625,26.513671875 26.513671875,25.25390625z M16.904296875,25.25390625L18.1640625,26.513671875 5.888671875,39.287109375 4.130859375,37.6171875 16.904296875,25.25390625z M38.583984375,17.51953125L40.51025390625,17.7795429229736 42.0703125,18.5595703125 43.1030235290527,19.866943359375 43.447265625,21.708984375 43.1030235290527,23.5546875 42.0703125,24.873046875 40.51025390625,25.6640625 38.583984375,25.927734375 36.4599609375,25.7666015625 34.1015625,25.2099609375 31.2158203125,24.140625 27.48046875,22.44140625 27.48046875,21.005859375 31.2158203125,19.27734375 34.1015625,18.2080078125 36.4599609375,17.666015625 38.583984375,17.51953125z M4.86328125,17.51953125L6.9873046875,17.666015625 9.3310546875,18.2080078125 12.216796875,19.27734375 15.966796875,21.005859375 15.966796875,22.44140625 12.216796875,24.140625 9.3310546875,25.2099609375 6.9873046875,25.7666015625 4.86328125,25.927734375 2.93701148033142,25.6640625 1.376953125,24.873046875 0.34423828125,23.5546875 0,21.708984375 0.34423828125,19.866943359375 1.376953125,18.5595703125 2.93701148033142,17.7795429229736 4.86328125,17.51953125z M21.708984375,17.4609375L23.3642578125,17.783203125 24.7265625,18.662109375 25.6494140625,20.009765625 25.986328125,21.708984375 25.6494140625,23.408203125 24.7265625,24.7412109375 23.3642578125,25.6201171875 21.708984375,25.927734375 20.068359375,25.60546875 18.7353515625,24.7119140625 17.841796875,23.3642578125 17.51953125,21.708984375 17.841796875,20.009765625 18.7353515625,18.662109375 20.068359375,17.783203125 21.708984375,17.4609375z M37.55859375,4.130859375L39.287109375,5.80078125 26.513671875,18.1640625 25.25390625,16.904296875 37.55859375,4.130859375z M5.888671875,4.130859375L18.1640625,16.904296875 16.904296875,18.1640625 4.130859375,5.80078125 5.888671875,4.130859375z M21.708984375,0L23.5729961395264,0.340576171875 24.8876953125,1.3623046875 25.6677227020264,2.918701171875 25.927734375,4.86328125 25.7666015625,6.9873046875 25.2099609375,9.3310546875 24.140625,12.216796875 22.44140625,15.966796875 21.005859375,15.966796875 19.306640625,12.216796875 18.2373046875,9.3310546875 17.6806640625,6.9873046875 17.51953125,4.86328125 17.779541015625,2.918701171875 18.5595703125,1.3623046875 19.8669414520264,0.340576171875 21.708984375,0z" />
    </g>
  </g>
</svg>