<?xml version="1.0" encoding="utf-8"?>
<!DOCTYPE svg PUBLIC "-//W3C//DTD SVG 1.1//EN" "http://www.w3.org/Graphics/SVG/1.1/DTD/svg11.dtd">
<svg width="44.033203125" height="42.01171875" xmlns="http://www.w3.org/2000/svg" xmlns:xlink="http://www.w3.org/1999/xlink" xmlns:xml="http://www.w3.org/XML/1998/namespace" version="1.1">
  <g>
    <g>
      <path style="fill:#FF0000;fill-opacity:1" d="M22.03125,11.162109375L24.7265625,19.453125 33.427734375,19.453125 26.396484375,24.7265625 29.091796875,32.900390625 22.03125,28.037109375 14.94140625,32.900390625 17.63671875,24.7265625 10.60546875,19.453125 19.306640625,19.453125 22.03125,11.162109375z M22.03125,5.478515625L17.9296875,17.578125 5.2734375,17.578125 15.41015625,25.458984375 11.513671875,37.5 22.03125,30.439453125 32.51953125,37.5 28.623046875,25.458984375 38.759765625,17.578125 26.103515625,17.578125 22.03125,5.478515625z M22.03125,0L27.48046875,15.849609375 44.033203125,15.849609375 30.849609375,26.220703125 36.005859375,42.01171875 22.03125,32.666015625 8.02734375,42.01171875 13.212890625,26.220703125 0,15.849609375 16.552734375,15.849609375 22.03125,0z" />
    </g>
  </g>
</svg>