<?xml version="1.0" encoding="utf-8"?>
<!DOCTYPE svg PUBLIC "-//W3C//DTD SVG 1.1//EN" "http://www.w3.org/Graphics/SVG/1.1/DTD/svg11.dtd">
<svg width="50.21484375" height="28.18359375" xmlns="http://www.w3.org/2000/svg" xmlns:xlink="http://www.w3.org/1999/xlink" xmlns:xml="http://www.w3.org/XML/1998/namespace" version="1.1">
  <g>
    <g>
      <path style="fill:#FF0000;fill-opacity:1" d="M32.28515625,0L34.04296875,0.3515625 35.537109375,1.787109375 38.1884765625,5.91796875 41.42578125,9.19921875 45.3955078125,11.8359375 50.21484375,14.033203125 50.21484375,14.150390625 45.3955078125,16.34765625 41.42578125,18.984375 38.1884765625,22.265625 35.537109375,26.396484375 34.87060546875,27.315673828125 34.04296875,27.8466796875 32.28515625,28.18359375 30.9228515625,27.9052734375 29.736328125,27.158203125 28.88671875,26.0595703125 28.564453125,24.7265625 28.9013671875,23.115234375 29.94140625,21.650390625 32.52685546875,19.573974609375 35.830078125,17.7978515625 39.95361328125,16.256103515625 45,14.8828125 39.7265625,14.8828125 33.0908203125,15.003662109375 27.24609375,15.3662109375 22.0935039520264,15.875244140625 17.5341796875,16.435546875 13.52783203125,16.995849609375 10.0341796875,17.5048828125 4.21875,17.98828125 2.44628882408142,17.728271484375 1.11328125,16.9482421875 0.2783203125,15.714111328125 0,14.091796875 0.2783203125,12.469482421875 1.11328125,11.2353515625 2.44628882408142,10.4553241729736 4.21875,10.1953125 10.0341796875,10.6787109375 13.52783203125,11.19140625 17.5341796875,11.7626953125 22.0935039520264,12.333984375 27.24609375,12.8466796875 33.0908203125,13.209228515625 39.7265625,13.330078125 45,13.330078125 39.95361328125,11.9384765625 35.830078125,10.400390625 32.52685546875,8.62793159484863 29.94140625,6.533203125 28.9013671875,5.0830078125 28.564453125,3.486328125 28.88671875,2.1240234375 29.736328125,1.025390625 30.9228515625,0.2783203125 32.28515625,0z" />
    </g>
  </g>
</svg>