<?xml version="1.0" encoding="utf-8"?>
<!DOCTYPE svg PUBLIC "-//W3C//DTD SVG 1.1//EN" "http://www.w3.org/Graphics/SVG/1.1/DTD/svg11.dtd">
<svg width="43.505859375" height="43.447265625" xmlns="http://www.w3.org/2000/svg" xmlns:xlink="http://www.w3.org/1999/xlink" xmlns:xml="http://www.w3.org/XML/1998/namespace" version="1.1">
  <g>
    <g>
      <path style="fill:#FF0000;fill-opacity:1" d="M17.87109375,33.10546875L21.708984375,41.923828125 25.546875,33.10546875 23.671875,33.57421875 21.708984375,33.720703125 19.7314453125,33.57421875 17.87109375,33.10546875z M32.4609375,27.041015625L30.205078125,30.205078125 26.982421875,32.51953125 36.005859375,36.005859375 32.4609375,27.041015625z M10.927734375,27.041015625L7.44140625,36.005859375 16.376953125,32.51953125 13.2275390625,30.205078125 10.927734375,27.041015625z M33.046875,17.87109375L33.720703125,21.708984375 33.046875,25.546875 41.923828125,21.708984375 33.046875,17.87109375z M10.3125,17.87109375L1.494140625,21.708984375 10.3125,25.546875 9.7265625,21.708984375 9.8583984375,19.74609375 10.3125,17.87109375z M21.708984375,11.220703125L19.6069316864014,11.4294452667236 17.63671875,12.0556640625 14.3115234375,14.3115234375 12.0556640625,17.6513671875 11.429443359375,19.625244140625 11.220703125,21.708984375 11.429443359375,23.814697265625 12.0556640625,25.7958984375 14.3115234375,29.1357421875 17.63671875,31.3916015625 19.6069316864014,32.017822265625 21.708984375,32.2265625 23.8146953582764,32.017822265625 25.7958984375,31.3916015625 29.1357421875,29.1357421875 31.3916015625,25.7958984375 32.017822265625,23.814697265625 32.2265625,21.708984375 32.017822265625,19.625244140625 31.3916015625,17.6513671875 29.1357421875,14.3115234375 25.7958984375,12.0556640625 23.8146953582764,11.4294452667236 21.708984375,11.220703125z M36.005859375,7.44140625L26.982421875,10.986328125 30.205078125,13.2275390625 32.4609375,16.435546875 36.005859375,7.44140625z M7.44140625,7.44140625L10.927734375,16.435546875 13.2275390625,13.2275390625 16.376953125,10.986328125 7.44140625,7.44140625z M21.708984375,1.494140625L17.87109375,10.37109375 19.7314453125,9.8876953125 21.708984375,9.7265625 25.546875,10.37109375 21.708984375,1.494140625z M21.708984375,0L24.6459941864014,0.194091796875 27.48046875,0.7763671875 32.6953125,2.9736328125 37.119140625,6.38671875 40.5322265625,10.78125 42.7294921875,15.9521484375 43.3117637634277,18.775634765625 43.505859375,21.708984375 43.3117637634277,24.66796875 42.7294921875,27.509765625 40.5322265625,32.7099609375 37.119140625,37.1044921875 32.6953125,40.48828125 27.48046875,42.6708984375 24.6459941864014,43.253173828125 21.708984375,43.447265625 18.77197265625,43.253173828125 15.9375,42.6708984375 10.751953125,40.48828125 6.357421875,37.1044921875 2.95898485183716,32.7099609375 0.776367664337158,27.509765625 0.194091856479645,24.66796875 0,21.708984375 0.194091856479645,18.775634765625 0.776367664337158,15.9521484375 2.95898485183716,10.78125 6.357421875,6.38671875 10.751953125,2.9736328125 15.9375,0.7763671875 18.77197265625,0.194091796875 21.708984375,0z" />
    </g>
  </g>
</svg>