<?xml version="1.0" encoding="utf-8"?>
<!DOCTYPE svg PUBLIC "-//W3C//DTD SVG 1.1//EN" "http://www.w3.org/Graphics/SVG/1.1/DTD/svg11.dtd">
<svg width="38.876953125" height="43.447265625" xmlns="http://www.w3.org/2000/svg" xmlns:xlink="http://www.w3.org/1999/xlink" xmlns:xml="http://www.w3.org/XML/1998/namespace" version="1.1">
  <g>
    <g>
      <path style="fill:#FF0000;fill-opacity:1" d="M20.33203125,23.203125L20.5078125,30.966796875 26.455078125,34.248046875 26.455078125,26.923828125 20.33203125,23.203125z M18.544921875,23.203125L12.421875,26.923828125 12.421875,34.248046875 18.33984375,30.966796875 18.544921875,23.203125z M27.5390625,18.22265625L21.298828125,21.708984375 27.5390625,25.1953125 33.33984375,21.708984375 27.5390625,18.22265625z M11.337890625,18.22265625L5.5078125,21.708984375 11.337890625,25.1953125 17.578125,21.708984375 11.337890625,18.22265625z M26.455078125,9.169921875L20.5078125,12.48046875 20.33203125,20.21484375 26.455078125,16.494140625 26.455078125,9.169921875z M12.421875,9.169921875L12.421875,16.494140625 18.544921875,20.21484375 18.33984375,12.48046875 12.421875,9.169921875z M18.1640625,0L20.68359375,0 20.5078125,10.78125 27.94921875,6.650390625 27.94921875,15.5859375 37.6171875,9.78515625 38.876953125,11.923828125 28.974609375,17.4609375 36.123046875,21.708984375 28.974609375,25.986328125 38.876953125,31.494140625 37.6171875,33.662109375 27.94921875,27.83203125 27.94921875,36.767578125 20.5078125,32.63671875 20.68359375,43.447265625 18.1640625,43.447265625 18.33984375,32.63671875 10.8984375,36.767578125 10.8984375,27.83203125 1.259765625,33.662109375 0,31.494140625 9.90234375,25.986328125 2.75390625,21.708984375 9.90234375,17.4609375 0,11.923828125 1.259765625,9.78515625 10.8984375,15.5859375 10.8984375,6.650390625 18.33984375,10.78125 18.1640625,0z" />
    </g>
  </g>
</svg>