<?xml version="1.0" encoding="utf-8"?>
<!DOCTYPE svg PUBLIC "-//W3C//DTD SVG 1.1//EN" "http://www.w3.org/Graphics/SVG/1.1/DTD/svg11.dtd">
<svg width="60.703125" height="67.3828125" xmlns="http://www.w3.org/2000/svg" xmlns:xlink="http://www.w3.org/1999/xlink" xmlns:xml="http://www.w3.org/XML/1998/namespace" version="1.1">
  <g>
    <g>
      <path style="fill:#FF0000;fill-opacity:1" d="M19.1015625,4.21874952316284L16.116943359375,4.51172161102295 13.3154296875,5.390625 10.77392578125,6.77490520477295 8.5693359375,8.583984375 6.74926710128784,10.777587890625 5.36132860183716,13.3154296875 4.48242235183716,16.116943359375 4.18945360183716,19.1015625 4.77539110183716,23.408203125 6.37207078933716,26.865234375 8.7451171875,29.853515625 11.66015625,32.75390625 12.626953125,33.69140625 11.66015625,34.62890625 8.7451171875,37.5439453125 6.37207078933716,40.546875 4.77539110183716,44.00390625 4.18945360183716,48.28125 4.48242235183716,51.265869140625 5.36132860183716,54.0673828125 6.74926710128784,56.605224609375 8.5693359375,58.798828125 10.77392578125,60.60791015625 13.3154296875,61.9921875 16.116943359375,62.87109375 19.1015625,63.1640625 22.0202617645264,62.882080078125 24.7998046875,62.0361328125 27.359619140625,60.662841796875 29.619140625,58.798828125 54.7265625,33.69140625 29.619140625,8.583984375 27.359619140625,6.71997356414795 24.7998046875,5.34667921066284 22.0202617645264,4.50073528289795 19.1015625,4.21874952316284z M19.1015625,0L22.8625469207764,0.355227500200272 26.4111328125,1.42089867591858 29.681396484375,3.17505168914795 32.607421875,5.59570264816284 60.703125,33.69140625 32.607421875,61.787109375 29.681396484375,64.207763671875 26.4111328125,65.9619140625 22.8625469207764,67.027587890625 19.1015625,67.3828125 14.0185546875,66.708984375 9.4482421875,64.7900390625 5.58105516433716,61.8017578125 2.59277391433716,57.9345703125 0.673828601837158,53.3642578125 0,48.28125 0.454102039337158,44.033203125 1.75781297683716,40.2685546875 3.85253953933716,36.8701171875 6.67968797683716,33.69140625 3.85253953933716,30.5126953125 1.74316453933716,27.1142578125 0.439453601837158,23.349609375 0,19.1015625 0.688477039337158,14.0185537338257 2.60742235183716,9.462890625 5.59570360183716,5.59570264816284 9.462890625,2.60742163658142 14.0185546875,0.688477039337158 19.1015625,0z" />
    </g>
  </g>
</svg>