<?xml version="1.0" encoding="utf-8"?>
<!DOCTYPE svg PUBLIC "-//W3C//DTD SVG 1.1//EN" "http://www.w3.org/Graphics/SVG/1.1/DTD/svg11.dtd">
<svg width="41.1328125" height="41.162109375" xmlns="http://www.w3.org/2000/svg" xmlns:xlink="http://www.w3.org/1999/xlink" xmlns:xml="http://www.w3.org/XML/1998/namespace" version="1.1">
  <g>
    <g>
      <path style="fill:#FF0000;fill-opacity:1" d="M22.060546875,20.15625L23.203125,27.59765625 9.697265625,41.162109375 8.49609375,33.779296875 22.060546875,20.15625z M13.53515625,17.9296875L20.9765625,19.072265625 7.353515625,32.63671875 0,31.435546875 13.53515625,17.9296875z M41.015625,0L41.1328125,0.1171875 39.90234375,3.017578125 39.287109375,5.6396484375 39.1845703125,8.3056640625 39.521484375,11.279296875 37.8076171875,10.4443359375 36.240234375,9.169921875 35.4931640625,8.26171875 34.98046875,7.236328125 22.119140625,20.15625 20.9765625,19.013671875 33.896484375,6.181640625 32.8857421875,5.654296875 31.962890625,4.921875 30.6884765625,3.33984375 29.853515625,1.611328125 32.8271484375,1.962890625 35.4931640625,1.875 38.115234375,1.2451171875 41.015625,0z" />
    </g>
  </g>
</svg>