<?xml version="1.0" encoding="utf-8"?>
<!DOCTYPE svg PUBLIC "-//W3C//DTD SVG 1.1//EN" "http://www.w3.org/Graphics/SVG/1.1/DTD/svg11.dtd">
<svg width="43.447265625" height="43.447265625" xmlns="http://www.w3.org/2000/svg" xmlns:xlink="http://www.w3.org/1999/xlink" xmlns:xml="http://www.w3.org/XML/1998/namespace" version="1.1">
  <g>
    <g>
      <path style="fill:#FF0000;fill-opacity:1" d="M21.767578125,21.767578125L33.955078125,33.955078125 28.681640625,24.609375 21.767578125,21.767578125z M21.708984375,21.767578125L21.708984375,39.052734375 24.609375,28.681640625 21.708984375,21.767578125z M21.650390625,21.767578125L9.4921875,33.955078125 18.837890625,28.681640625 21.650390625,21.767578125z M4.365234375,21.708984375L14.765625,24.609375 21.650390625,21.708984375 4.365234375,21.708984375z M28.681640625,18.837890625L21.767578125,21.708984375 39.052734375,21.708984375 28.681640625,18.837890625z M33.955078125,9.462890625L24.609375,14.765625 21.767578125,21.650390625 33.955078125,9.462890625z M9.4921875,9.462890625L14.765625,18.837890625 21.650390625,21.650390625 9.4921875,9.462890625z M21.708984375,4.365234375L18.837890625,14.765625 21.708984375,21.650390625 21.708984375,4.365234375z M21.591796875,0L21.826171875,0 25.4296875,12.5390625 37.03125,6.298828125 37.1484375,6.416015625 30.849609375,17.8125 43.447265625,21.591796875 43.447265625,21.826171875 30.966796875,25.48828125 37.1484375,37.001953125 37.03125,37.1484375 25.4296875,30.908203125 21.826171875,43.447265625 21.591796875,43.447265625 17.8125,30.908203125 6.416015625,37.1484375 6.298828125,37.001953125 12.48046875,25.48828125 0,21.826171875 0,21.591796875 12.48046875,17.8125 6.298828125,6.416015625 6.416015625,6.298828125 17.8125,12.5390625 21.591796875,0z" />
    </g>
  </g>
</svg>