<?xml version="1.0" encoding="utf-8"?>
<!DOCTYPE svg PUBLIC "-//W3C//DTD SVG 1.1//EN" "http://www.w3.org/Graphics/SVG/1.1/DTD/svg11.dtd">
<svg width="43.447265625" height="43.447265625" xmlns="http://www.w3.org/2000/svg" xmlns:xlink="http://www.w3.org/1999/xlink" xmlns:xml="http://www.w3.org/XML/1998/namespace" version="1.1">
  <g>
    <g>
      <path style="fill:#FF0000;fill-opacity:1" d="M21.708984375,0L24.638671875,0.556640625 26.9091796875,2.0947265625 28.388671875,4.4091796875 28.916015625,7.265625 28.4765625,9.9169921875 27.36328125,12.01171875 25.8984375,13.8720703125 24.3896484375,15.7763671875 23.173828125,18.0322265625 22.55859375,20.947265625 25.4296875,20.302734375 27.6708984375,19.0576171875 29.5751953125,17.5341796875 31.435546875,16.0546875 33.544921875,14.94140625 36.181640625,14.501953125 39.0380859375,15.0439453125 41.3525390625,16.552734375 42.890625,18.8525390625 43.447265625,21.767578125 42.890625,24.697265625 41.3525390625,26.9677734375 39.0380859375,28.447265625 36.181640625,28.974609375 33.544921875,28.53515625 31.435546875,27.4365234375 29.5751953125,25.9716796875 27.6708984375,24.462890625 25.4296875,23.2470703125 22.55859375,22.6171875 23.1884765625,25.4443359375 24.404296875,27.6708984375 25.9130859375,29.5751953125 27.3779296875,31.435546875 28.4765625,33.544921875 28.916015625,36.181640625 28.388671875,39.0380859375 26.9091796875,41.3525390625 24.638671875,42.890625 21.708984375,43.447265625 18.7939453125,42.890625 16.5234375,41.3525390625 15.05859375,39.0380859375 14.53125,36.181640625 14.970703125,33.544921875 16.0693359375,31.435546875 17.51953125,29.5751953125 19.013671875,27.6708984375 20.244140625,25.4443359375 20.888671875,22.6171875 18.017578125,23.2470703125 15.7763671875,24.462890625 13.8720703125,25.9716796875 12.01171875,27.4365234375 9.90234375,28.53515625 7.265625,28.974609375 4.39453125,28.447265625 2.0947265625,26.9677734375 0.556640625,24.697265625 0,21.767578125 0.556640625,18.8525390625 2.0947265625,16.552734375 4.39453125,15.0439453125 7.265625,14.501953125 9.90234375,14.94140625 12.01171875,16.0546875 13.8720703125,17.5341796875 15.7763671875,19.0576171875 18.017578125,20.302734375 20.888671875,20.947265625 20.2587890625,18.0322265625 19.04296875,15.7763671875 17.548828125,13.8720703125 16.083984375,12.01171875 14.970703125,9.90234375 14.53125,7.265625 15.05859375,4.4091796875 16.5234375,2.0947265625 18.7939453125,0.556640625 21.708984375,0z" />
    </g>
  </g>
</svg>