<?xml version="1.0" encoding="utf-8"?>
<!DOCTYPE svg PUBLIC "-//W3C//DTD SVG 1.1//EN" "http://www.w3.org/Graphics/SVG/1.1/DTD/svg11.dtd">
<svg width="53.4082031250005" height="29.033203125" xmlns="http://www.w3.org/2000/svg" xmlns:xlink="http://www.w3.org/1999/xlink" xmlns:xml="http://www.w3.org/XML/1998/namespace" version="1.1">
  <g>
    <g>
      <path style="fill:#FF0000;fill-opacity:1" d="M33.310546875,1.494140625L32.255859375,1.69189453125 31.142578125,2.28515625 28.828125,4.4384765625 26.513671875,7.587890625 24.31640625,11.396484375 23.232421875,11.396484375 21.8701171875,8.5107421875 20.56640625,6.7236328125 19.2626953125,5.8154296875 17.87109375,5.56640625 4.39453125,5.56640625 3.76098585128784,5.78247213363647 3.20800733566284,6.4306640625 2.31445264816284,8.61328125 1.7431640625,11.513671875 1.552734375,14.501953125 1.7431640625,17.490234375 2.31445264816284,20.390625 3.20800733566284,22.5732421875 3.76098585128784,23.221435546875 4.39453125,23.4375 17.87109375,23.4375 19.2626953125,23.1884765625 20.56640625,22.2802734375 21.8701171875,20.5078125 23.232421875,17.63671875 24.31640625,17.63671875 26.513671875,21.4306640625 28.828125,24.5947265625 31.142578125,26.748046875 32.255859375,27.34130859375 33.310546875,27.5390625 35.9326171875,26.953125 39.31640625,25.224609375 43.2421875,22.412109375 47.51953125,18.57421875 47.51953125,15.234375 40.48828125,15.234375 39.9462890625,16.962890625 38.8623046875,18.33984375 37.3388671875,19.2626953125 35.5078125,19.599609375 33.5302734375,19.2041015625 31.93359375,18.10546875 30.8642578125,16.4794921875 30.46875,14.501953125 30.8642578125,12.5244140625 31.93359375,10.8984375 33.5302734375,9.7998046875 35.5078125,9.404296875 37.3388671875,9.7412109375 38.8623046875,10.6787109375 39.9462890625,12.0849609375 40.48828125,13.798828125 47.51953125,13.798828125 47.51953125,10.4296875 43.2421875,6.591796875 39.31640625,3.7939453125 35.9326171875,2.080078125 33.310546875,1.494140625z M33.310546875,0L36.123046875,0.5126953125 38.016357421875,1.26708984375 40.2392578125,2.5048828125 42.81005859375,4.27368259429932 45.7470703125,6.62109375 49.0685997009277,9.65332221984863 52.79296875,13.4765625 53.3056640625,14.1357421875 53.408203125,14.501953125 53.3056640625,14.8828125 52.79296875,15.52734375 49.0685997009277,19.354248046875 45.7470703125,22.3974609375 42.81005859375,24.752197265625 40.2392578125,26.513671875 38.016357421875,27.744140625 36.123046875,28.505859375 33.310546875,29.033203125 31.153564453125,28.4765625 28.8427734375,26.806640625 26.4074687957764,23.935546875 23.876953125,19.775390625 22.5769023895264,22.1630859375 21.1962890625,23.759765625 19.683837890625,24.66064453125 17.98828125,24.9609375 4.248046875,24.9609375 3.23730421066284,24.722900390625 2.373046875,24.0087890625 1.05468797683716,21.5478515625 0.263671875,18.1787109375 0,14.501953125 0.263671875,10.8251953125 1.05468797683716,7.470703125 2.373046875,5.0244140625 3.23730421066284,4.31030416488647 4.248046875,4.072265625 17.98828125,4.072265625 19.683837890625,4.36889791488647 21.1962890625,5.2587890625 22.5769023895264,6.84448385238647 23.876953125,9.228515625 26.4074687957764,5.09033346176147 28.8427734375,2.2265625 31.153564453125,0.556640625 33.310546875,0z" />
    </g>
  </g>
</svg>