<?xml version="1.0" encoding="utf-8"?>
<!DOCTYPE svg PUBLIC "-//W3C//DTD SVG 1.1//EN" "http://www.w3.org/Graphics/SVG/1.1/DTD/svg11.dtd">
<svg width="32.75390625" height="48.310546875" xmlns="http://www.w3.org/2000/svg" xmlns:xlink="http://www.w3.org/1999/xlink" xmlns:xml="http://www.w3.org/XML/1998/namespace" version="1.1">
  <g>
    <g>
      <path style="fill:#FF0000;fill-opacity:1" d="M14.384765625,3.193359375L18.310546875,3.193359375 18.310546875,15.205078125 29.765625,15.205078125 29.765625,19.1015625 18.310546875,19.1015625 18.310546875,45.205078125 14.384765625,45.205078125 14.384765625,19.1015625 2.98828172683716,19.1015625 2.98828172683716,15.205078125 14.384765625,15.205078125 14.384765625,3.193359375z M12.71484375,1.5234375L12.71484375,13.505859375 1.49414110183716,13.505859375 1.49414110183716,20.771484375 12.71484375,20.771484375 12.71484375,46.81640625 19.98046875,46.81640625 19.98046875,20.771484375 31.259765625,20.771484375 31.259765625,13.505859375 19.98046875,13.505859375 19.98046875,1.5234375 12.71484375,1.5234375z M11.220703125,0L21.474609375,0 21.474609375,12.01171875 32.75390625,12.01171875 32.75390625,22.265625 21.474609375,22.265625 21.474609375,48.310546875 11.220703125,48.310546875 11.220703125,22.265625 0,22.265625 0,12.01171875 11.220703125,12.01171875 11.220703125,0z" />
    </g>
  </g>
</svg>