<?xml version="1.0" encoding="utf-8"?>
<!DOCTYPE svg PUBLIC "-//W3C//DTD SVG 1.1//EN" "http://www.w3.org/Graphics/SVG/1.1/DTD/svg11.dtd">
<svg width="67.3828125000014" height="52.6171875" xmlns="http://www.w3.org/2000/svg" xmlns:xlink="http://www.w3.org/1999/xlink" xmlns:xml="http://www.w3.org/XML/1998/namespace" version="1.1">
  <g>
    <g>
      <path style="fill:#FF0000;fill-opacity:1" d="M33.69140625,15.8203125L30.1611328125,18.8671875 27.509765625,22.646484375 25.83984375,26.953125 25.25390625,31.58203125 25.927734375,34.833984375 27.7587890625,37.5 30.439453125,39.31640625 33.69140625,39.990234375 36.9580078125,39.3310546875 39.638671875,37.529296875 41.4404296875,34.8486328125 42.099609375,31.58203125 41.5283203125,26.9384765625 39.8876953125,22.6318359375 37.2509765625,18.8671875 33.69140625,15.8203125z M33.69140625,10.95703125L38.9208984375,14.6337890625 42.9052734375,19.4970703125 44.3664512634277,22.2766132354736 45.439453125,25.25390625 46.0986289978027,28.3740234375 46.318359375,31.58203125 46.0693321228027,34.112548828125 45.322265625,36.4892578125 42.6123046875,40.5029296875 38.5986328125,43.212890625 36.221923828125,43.9599609375 33.69140625,44.208984375 31.160888671875,43.9599609375 28.7841796875,43.212890625 24.7705078125,40.5029296875 22.060546875,36.4892578125 21.3134746551514,34.112548828125 21.064453125,31.58203125 21.2841777801514,28.3740234375 21.943359375,25.25390625 23.0163555145264,22.2766132354736 24.4775390625,19.4970703125 28.4619140625,14.6337890625 33.69140625,10.95703125z M23.173828125,4.18945360183716L18.7023906707764,4.61059617996216 14.6044921875,5.87402391433716 10.814208984375,7.913818359375 7.265625,10.6640625 6.38671875,11.4697265625 5.3759765625,12.4951171875 4.5556640625,13.623046875 4.21875,14.70703125 4.833984375,16.201171875 6.328125,16.81640625 7.20703125,16.6259765625 7.939453125,16.083984375 9.0234375,14.9560546875 10.107421875,13.798828125 12.94189453125,11.513671875 16.11328125,9.814453125 19.5483379364014,8.759765625 23.173828125,8.408203125 28.65234375,9.08203125 23.701171875,13.4765625 19.98046875,18.8818359375 17.6513671875,25.01953125 17.0471172332764,28.271484375 16.845703125,31.58203125 17.1789531707764,34.962158203125 18.1787109375,38.1298828125 19.7497539520264,40.997314453125 21.796875,43.4765625 24.276123046875,45.523681640625 27.1435546875,47.0947265625 30.311279296875,48.094482421875 33.69140625,48.427734375 37.05322265625,48.094482421875 40.224609375,47.0947265625 43.1030235290527,45.523681640625 45.5859375,43.4765625 47.6330528259277,40.997314453125 49.2041015625,38.1298828125 50.2038536071777,34.962158203125 50.537109375,31.58203125 50.3356895446777,28.271484375 49.7314453125,25.01953125 47.40234375,18.896484375 43.681640625,13.4912109375 38.73046875,9.08203125 44.208984375,8.408203125 47.8344688415527,8.759765625 51.26953125,9.814453125 54.4409141540527,11.513671875 57.275390625,13.798828125 58.359375,14.9560546875 59.443359375,16.083984375 60.17578125,16.6259765625 61.0546875,16.81640625 62.548828125,16.201171875 63.1640625,14.70703125 62.8564453125,13.7255859375 62.109375,12.65625 61.171875,11.66015625 60.29296875,10.83984375 60.1171875,10.6640625 56.6015625,7.913818359375 52.79296875,5.87402391433716 48.6694297790527,4.61059617996216 44.208984375,4.18945360183716 38.84765625,4.73144578933716 33.69140625,6.29882860183716 28.53515625,4.73144578933716 23.173828125,4.18945360183716z M23.173828125,0L28.505859375,0.439453601837158 33.69140625,1.78710985183716 38.876953125,0.439453601837158 44.208984375,0 47.1862754821777,0.190430104732513 50.2587890625,0.761719226837158 56.279296875,2.91503953933716 61.6845703125,6.28418016433716 63.995361328125,8.375244140625 65.91796875,10.693359375 67.001953125,12.5830078125 67.3828125,14.736328125 66.884765625,17.197265625 65.5224609375,19.189453125 63.515625,20.537109375 61.0546875,21.03515625 59.5751953125,20.888671875 58.3447265625,20.44921875 57.2607421875,19.7314453125 56.19140625,18.75 54.55078125,17.1240234375 52.9248046875,15.7177734375 51.15234375,14.501953125 49.04296875,13.505859375 51.5331993103027,17.6770038604736 53.3203125,22.1044921875 54.3969688415527,26.751708984375 54.755859375,31.58203125 54.5654258728027,34.427490234375 53.994140625,37.1630859375 51.8701171875,42.1875 48.57421875,46.4501953125 44.3115234375,49.74609375 39.287109375,51.8701171875 33.69140625,52.6171875 29.461669921875,52.203369140625 25.5029296875,50.9619140625 21.9177227020264,49.00634765625 18.80859375,46.4501953125 16.241455078125,43.35205078125 14.2822265625,39.7705078125 13.040771484375,35.811767578125 12.626953125,31.58203125 12.98583984375,26.751708984375 14.0625,22.1044921875 15.849609375,17.6770038604736 18.33984375,13.505859375 16.2890625,14.4140625 14.58984375,15.52734375 13.06640625,16.8603515625 11.54296875,18.369140625 10.2685546875,19.5703125 9.0673828125,20.4052734375 7.8076171875,20.888671875 6.328125,21.03515625 3.8671875,20.537109375 1.8603515625,19.189453125 0.498046875,17.197265625 0,14.736328125 0.380859375,12.5830078125 1.46484375,10.693359375 3.387451171875,8.375244140625 5.6982421875,6.28418016433716 11.103515625,2.91503953933716 17.109375,0.761719226837158 20.1782207489014,0.190430104732513 23.173828125,0z" />
    </g>
  </g>
</svg>