<?xml version="1.0" encoding="utf-8"?>
<!DOCTYPE svg PUBLIC "-//W3C//DTD SVG 1.1//EN" "http://www.w3.org/Graphics/SVG/1.1/DTD/svg11.dtd">
<svg width="54.4921875" height="35.44921875" xmlns="http://www.w3.org/2000/svg" xmlns:xlink="http://www.w3.org/1999/xlink" xmlns:xml="http://www.w3.org/XML/1998/namespace" version="1.1">
  <g>
    <g>
      <path style="fill:#FF0000;fill-opacity:1" d="M13.505859375,25.25390625L5.888671875,26.923828125 4.52636671066284,27.3193359375 3.4423828125,27.9052734375 2.724609375,28.798828125 2.4609375,30.05859375 2.71728515625,31.256103515625 3.486328125,32.2119140625 4.64355421066284,32.838134765625 6.064453125,33.046875 8.642578125,32.3583984375 10.751953125,30.6005859375 12.36328125,28.212890625 13.388671875,25.6640625 13.505859375,25.25390625z M11.89453125,2.34375L10.7995595932007,2.5341796875 9.9169921875,3.10546875 9.334716796875,3.984375 9.140625,5.09765625 9.5361328125,6.5771484375 10.927734375,8.14453125 16.69921875,13.447265625 17.0654296875,11.71875 17.16796875,9.9609375 16.8896484375,7.2802734375 15.99609375,4.8193359375 14.3701171875,3.0322265625 11.89453125,2.34375z M11.8359375,0L15.0146484375,0.615234375 17.34375,2.34375 18.896484375,4.98046875 19.74609375,8.3203125 20.079345703125,10.4956064224243 20.3759765625,12.275390625 20.9765625,14.9560546875 21.7822265625,16.787109375 23.056640625,18.22265625 23.994140625,19.072265625 48.544921875,18.1640625 49.892578125,18.10546875 50.419921875,18.10546875 53.1005859375,18.57421875 53.9831504821777,19.2919921875 54.4921875,20.5078125 29.47265625,23.14453125 36.416015625,28.06640625 29.23828125,28.06640625 22.67578125,23.994140625 21.416015625,24.228515625 19.599609375,24.84375 17.9736328125,26.044921875 16.1279296875,28.0810546875 13.623046875,31.201171875 11.8505849838257,33.087158203125 10.048828125,34.4091796875 8.14453125,35.189208984375 6.064453125,35.44921875 3.80859327316284,35.1123046875 1.875,34.0869140625 0.512695550918579,32.3876953125 0,30.05859375 0.322265684604645,28.077392578125 1.28906297683716,26.5283203125 2.900390625,25.382080078125 5.15625,24.609375 21.357421875,21.005859375 9.19921875,10.01953125 7.957763671875,8.7890625 7.1630859375,7.6171875 6.591796875,5.09765625 6.9580078125,3.046875 8.0126953125,1.435546875 9.66796875,0.380859375 11.8359375,0z" />
    </g>
  </g>
</svg>