<?xml version="1.0" encoding="utf-8"?>
<!DOCTYPE svg PUBLIC "-//W3C//DTD SVG 1.1//EN" "http://www.w3.org/Graphics/SVG/1.1/DTD/svg11.dtd">
<svg width="19.2773437500001" height="43.681640625" xmlns="http://www.w3.org/2000/svg" xmlns:xlink="http://www.w3.org/1999/xlink" xmlns:xml="http://www.w3.org/XML/1998/namespace" version="1.1">
  <g>
    <g>
      <path style="fill:#FF0000;fill-opacity:1" d="M6.24023389816284,3.720703125L4.423828125,4.39453125 3.75,6.09375 4.119873046875,7.510986328125 5.22949266433716,8.7744140625 7.093505859375,9.935302734375 9.7265625,11.044921875 9.873046875,10.95703125 9.873046875,9.052734375 9.580078125,6.6650390625 8.7890625,4.9951171875 7.6318359375,4.0283203125 6.24023389816284,3.720703125z M6.5625,0L9.609375,0.6005859375 11.953125,2.3583984375 13.447265625,5.2001953125 13.974609375,9.052734375 13.974609375,12.509765625 16.640625,13.388671875 19.248046875,14.208984375 19.27734375,14.384765625 17.9296875,17.841796875 13.974609375,16.435546875 13.974609375,43.681640625 9.873046875,43.681640625 9.873046875,14.970703125 6.35742235183716,13.623046875 3.193359375,11.8798828125 0.893554329872131,9.4921875 0.223388537764549,7.9833984375 0,6.2109375 0.45410144329071,3.7646484375 1.75781261920929,1.8017578125 3.8232421875,0.4833984375 6.5625,0z" />
    </g>
  </g>
</svg>