<?xml version="1.0" encoding="utf-8"?>
<!DOCTYPE svg PUBLIC "-//W3C//DTD SVG 1.1//EN" "http://www.w3.org/Graphics/SVG/1.1/DTD/svg11.dtd">
<svg width="19.16015625" height="47.138671875" xmlns="http://www.w3.org/2000/svg" xmlns:xlink="http://www.w3.org/1999/xlink" xmlns:xml="http://www.w3.org/XML/1998/namespace" version="1.1">
  <g>
    <g>
      <path style="fill:#FF0000;fill-opacity:1" d="M11.279296875,32.05078125L9.697265625,32.3583984375 8.49609375,33.193359375 7.734375,34.423828125 7.470703125,35.947265625 7.7783203125,37.5732421875 8.6279296875,38.84765625 9.8876953125,39.6826171875 11.455078125,39.990234375 12.978515625,39.6826171875 14.1943359375,38.84765625 14.9853515625,37.587890625 15.263671875,36.005859375 14.9560546875,34.39453125 14.1064453125,33.134765625 12.83203125,32.3291015625 11.279296875,32.05078125z M6.533203125,0L10.634765625,0 10.634765625,20.361328125 10.546875,22.412109375 10.224609375,24.287109375 9.5947265625,26.220703125 8.61328125,28.4765625 8.73046875,28.59375 11.25,28.154296875 14.267578125,28.7109375 16.787109375,30.322265625 18.515625,32.8564453125 19.16015625,36.181640625 18.900146484375,38.441162109375 18.1201171875,40.5322265625 15.3076171875,44.00390625 11.162109375,46.3037109375 8.72314453125,46.929931640625 6.15234375,47.138671875 3.07617235183716,46.8896484375 0,46.171875 0.322265803813934,44.736328125 0.60058605670929,43.6083984375 0.791015863418579,42.802734375 0.966797471046448,42.802734375 4.013671875,43.6376953125 6.796875,43.857421875 8.1591796875,43.798828125 9.609375,43.564453125 9.609375,43.388671875 7.060546875,42.4072265625 5.0390625,40.6787109375 3.72070336341858,38.3203125 3.25195336341858,35.419921875 3.76464915275574,32.0654296875 4.892578125,28.65234375 6.0205078125,24.78515625 6.533203125,20.068359375 6.533203125,0z" />
    </g>
  </g>
</svg>