<?xml version="1.0" encoding="utf-8"?>
<!DOCTYPE svg PUBLIC "-//W3C//DTD SVG 1.1//EN" "http://www.w3.org/Graphics/SVG/1.1/DTD/svg11.dtd">
<svg width="36.416015625" height="43.681640625" xmlns="http://www.w3.org/2000/svg" xmlns:xlink="http://www.w3.org/1999/xlink" xmlns:xml="http://www.w3.org/XML/1998/namespace" version="1.1">
  <g>
    <g>
      <path style="fill:#FF0000;fill-opacity:1" d="M29.853515625,13.125L28.212890625,13.828125 27.568359375,15.615234375 28.212890625,17.3583984375 29.794921875,18.046875 31.40625,17.3291015625 32.05078125,15.52734375 31.4208984375,13.7841796875 29.853515625,13.125z M27.7734375,0L29.5751934051514,0.208740234375 31.23046875,0.8349609375 33.9697265625,3.22265625 35.771484375,6.9580078125 36.416015625,11.865234375 35.9033203125,16.1279296875 34.482421875,19.1748046875 32.373046875,20.9912109375 29.82421875,21.591796875 27.4951171875,21.09375 25.7080078125,19.775390625 24.55078125,17.87109375 24.140625,15.615234375 24.55078125,13.388671875 25.693359375,11.6162109375 27.392578125,10.4443359375 29.47265625,10.01953125 31.435546875,10.4296875 32.783203125,11.484375 32.9296875,11.42578125 32.4462890625,8.349609375 31.40625,6.1376953125 29.8828125,4.7900390625 28.0078125,4.3359375 26.2353496551514,4.68017578125 24.609375,5.712890625 23.1225566864014,7.31689453125 21.767578125,9.375 19.4970703125,14.6337890625 17.841796875,20.7861328125 16.81640625,27.1435546875 16.46484375,33.017578125 16.46484375,43.681640625 12.36328125,43.681640625 12.36328125,11.19140625 12.1875,11.19140625 10.7958984375,14.58984375 9.375,18.1201171875 7.9833984375,21.6064453125 6.6796875,24.873046875 3.837890625,32.021484375 0,30.322265625 12.36328125,1.0546875 15.908203125,1.0546875 15.908203125,14.150390625 16.083984375,14.150390625 17.347412109375,10.484619140625 18.6767578125,7.4560546875 20.068359375,5.009765625 21.5185546875,3.0908203125 23.0200176239014,1.669921875 24.5654296875,0.7177734375 27.7734375,0z" />
    </g>
  </g>
</svg>