<?xml version="1.0" encoding="utf-8"?>
<!DOCTYPE svg PUBLIC "-//W3C//DTD SVG 1.1//EN" "http://www.w3.org/Graphics/SVG/1.1/DTD/svg11.dtd">
<svg width="25.7812500000009" height="44.736328125" xmlns="http://www.w3.org/2000/svg" xmlns:xlink="http://www.w3.org/1999/xlink" xmlns:xml="http://www.w3.org/XML/1998/namespace" version="1.1">
  <g>
    <g>
      <path style="fill:#FF0000;fill-opacity:1" d="M7.79296875,26.54296875L6.4599609375,26.8798828125 5.2880859375,27.9052734375 4.45312404632568,29.619140625 4.130859375,32.021484375 4.3798828125,34.2041015625 5.068359375,35.888671875 6.1083984375,36.97265625 7.3828125,37.353515625 8.7744140625,36.943359375 9.990234375,35.7568359375 10.8544921875,33.896484375 11.19140625,31.494140625 10.9130859375,29.3408203125 10.1513671875,27.802734375 9.052734375,26.865234375 7.79296875,26.54296875z M8.96484375,5.009765625L8.056640625,5.244140625 7.353515625,5.8447265625 6.8994140625,6.6943359375 6.73828125,7.67578125 7.3681640625,9.4482421875 8.111572265625,10.030517578125 9.08203125,10.224609375 10.0195302963257,10.0341796875 10.72265625,9.462890625 11.30859375,7.67578125 10.60546875,5.771484375 9.84374904632568,5.2001953125 8.96484375,5.009765625z M12.099609375,0L16.083984375,0.7177734375 19.27734375,2.7099609375 21.38671875,5.7568359375 21.9580059051514,7.606201171875 22.1484375,9.609375 21.9177227020264,11.7443857192993 21.2255859375,13.9892578125 19.932861328125,16.3366718292236 17.900390625,18.779296875 17.900390625,18.955078125 21.15234375,20.947265625 23.642578125,23.7744140625 25.224609375,27.3046875 25.78125,31.435546875 25.5761699676514,34.013671875 24.9609375,36.474609375 22.5732421875,40.72265625 20.8300762176514,42.3779296875 18.7353515625,43.65234375 16.307373046875,44.46533203125 13.564453125,44.736328125 10.9094228744507,44.490966796875 8.3935546875,43.7548828125 4.072265625,41.044921875 2.39135718345642,39.14794921875 1.09863209724426,36.9140625 0.274657756090164,34.39453125 0,31.640625 0.585937023162842,27.890625 2.18261694908142,24.990234375 4.5849609375,23.1298828125 7.55859375,22.470703125 10.48828125,23.1005859375 12.9052734375,24.90234375 14.5458984375,27.7294921875 15.146484375,31.40625 14.7509765625,34.4677734375 13.65234375,37.0751953125 11.9384765625,39.0380859375 9.697265625,40.166015625 9.697265625,40.3125 11.0888671875,40.72265625 12.59765625,40.83984375 16.2890625,40.13671875 19.16015625,38.1884765625 21.0205078125,35.185546875 21.6796875,31.318359375 21.1376953125,27.7880859375 19.5849609375,24.931640625 17.1533203125,22.8662109375 13.974609375,21.708984375 12.24609375,18.80859375 12.24609375,18.6328125 14.94873046875,16.2744159698486 16.728515625,13.9453125 17.71728515625,11.6894540786743 18.046875,9.55078125 17.7099609375,7.4853515625 16.69921875,5.7275390625 15.029296875,4.4384765625 12.71484375,3.75 12.626953125,3.896484375 14.1064453125,5.771484375 14.6484375,8.203125 14.2529296875,10.2978515625 13.125,12.041015625 11.3671875,13.2421875 9.08203125,13.681640625 6.6943359375,13.212890625 4.7900390625,11.9091796875 3.53027319908142,9.9462890625 3.07617163658142,7.5 3.77929615974426,4.482421875 5.6982421875,2.109375 8.5546875,0.556640625 12.099609375,0z" />
    </g>
  </g>
</svg>