<?xml version="1.0" encoding="utf-8"?>
<!DOCTYPE svg PUBLIC "-//W3C//DTD SVG 1.1//EN" "http://www.w3.org/Graphics/SVG/1.1/DTD/svg11.dtd">
<svg width="34.4238281250004" height="43.095703125" xmlns="http://www.w3.org/2000/svg" xmlns:xlink="http://www.w3.org/1999/xlink" xmlns:xml="http://www.w3.org/XML/1998/namespace" version="1.1">
  <g>
    <g>
      <path style="fill:#FF0000;fill-opacity:1" d="M13.65234375,22.001953125L11.9384765625,23.4375 10.048828125,24.990234375 11.923828125,27.8466796875 13.65234375,31.318359375 13.828125,31.2890625 13.828125,22.060546875 13.65234375,22.001953125z M28.564453125,3.28125L26.71875,4.013671875 26.1474590301514,4.84130859375 25.95703125,5.859375 26.1511211395264,6.884765625 26.7333984375,7.734375 27.5939922332764,8.3056640625 28.623046875,8.49609375 30.46875,7.7490234375 31.201171875,5.888671875 30.9814453125,4.7900390625 30.3955078125,3.9697265625 29.5458984375,3.45703125 28.564453125,3.28125z M28.30078125,0L30.7763671875,0.46875 32.724609375,1.7578125 33.984375,3.69140625 34.423828125,6.064453125 33.984375,8.4228515625 32.783203125,10.2392578125 31.025390625,11.396484375 28.9453125,11.806640625 26.513671875,11.2060546875 24.697265625,9.404296875 24.521484375,9.462890625 24.3017578125,11.337890625 24.228515625,13.4765625 24.2431640625,14.619140625 24.31640625,15.615234375 25.8801250457764,16.4868183135986 26.9970703125,17.63671875 27.6672344207764,18.9404315948486 27.890625,20.2734375 27.6855449676514,21.522216796875 27.0703125,22.5146484375 26.1254863739014,23.162841796875 24.931640625,23.37890625 23.6755352020264,23.126220703125 22.5439453125,22.3681640625 21.6320781707764,21.046142578125 21.03515625,19.1015625 20.126953125,19.013671875 17.51953125,19.62890625 17.51953125,43.095703125 13.53515625,43.095703125 12.861328125,38.1298828125 11.455078125,33.6474609375 9.3896484375,29.794921875 6.73828125,26.71875 4.541015625,27.041015625 2.65136694908142,26.7333984375 1.2158203125,25.8984375 0.3076171875,24.66796875 0,23.14453125 0.292968511581421,21.6796875 1.0986328125,20.5078125 2.31445336341858,19.7314453125 3.86718726158142,19.453125 5.888671875,19.951171875 6.884765625,20.654296875 7.822265625,21.767578125 9.2578125,20.80078125 10.6640625,19.62890625 12.0849609375,18.427734375 13.59375,17.373046875 13.59375,5.771484375 13.41796875,5.771484375 5.06835842132568,11.89453125 2.69531226158142,8.73046875 14.58984375,0.46875 17.51953125,0.46875 17.51953125,15.439453125 19.0283203125,15.087890625 20.7421875,14.970703125 20.870361328125,11.3635263442993 21.2548828125,8.2763671875 21.8811016082764,5.694580078125 22.734375,3.603515625 23.8110332489014,1.99951171875 25.107421875,0.87890625 26.6088848114014,0.2197265625 28.30078125,0z" />
    </g>
  </g>
</svg>