<?xml version="1.0" encoding="utf-8"?>
<!DOCTYPE svg PUBLIC "-//W3C//DTD SVG 1.1//EN" "http://www.w3.org/Graphics/SVG/1.1/DTD/svg11.dtd">
<svg width="43.4765625" height="43.447265625" xmlns="http://www.w3.org/2000/svg" xmlns:xlink="http://www.w3.org/1999/xlink" xmlns:xml="http://www.w3.org/XML/1998/namespace" version="1.1">
  <g>
    <g>
      <path style="fill:#FF0000;fill-opacity:1" d="M21.474609375,22.470703125L19.9072265625,22.8369140625 18.603515625,23.8623046875 17.724609375,25.4296875 17.40234375,27.421875 17.684326171875,29.75830078125 18.5302734375,31.435546875 19.830322265625,32.4609375 21.474609375,32.841796875 21.50390625,32.841796875 23.0126953125,32.4755859375 24.3017578125,31.4208984375 25.2099609375,29.7216796875 25.546875,27.421875 25.224609375,25.4296875 24.345703125,23.8623046875 23.0419921875,22.8369140625 21.474609375,22.470703125z M21.474609375,11.1328125L20.244140625,11.4111328125 19.2041015625,12.216796875 18.4716796875,13.53515625 18.193359375,15.322265625 18.424072265625,17.0800800323486 19.1162109375,18.427734375 20.1672344207764,19.28466796875 21.474609375,19.5703125 22.7673320770264,19.2919921875 23.8330078125,18.45703125 24.5471172332764,17.1167011260986 24.78515625,15.322265625 24.5507793426514,13.4985370635986 23.84765625,12.1875 22.7856426239014,11.3964862823486 21.474609375,11.1328125z M21.4453125,8.701171875L23.701171875,9.169921875 25.60546875,10.5029296875 26.923828125,12.568359375 27.421875,15.263671875 26.6748046875,18.3984375 24.43359375,20.859375 26.162109375,22.0751953125 27.3779296875,23.7451171875 28.1103515625,25.693359375 28.359375,27.7734375 27.7734375,30.8203125 26.220703125,33.1640625 23.994140625,34.6728515625 21.357421875,35.21484375 18.8232421875,34.7314453125 16.6552734375,33.2958984375 15.1318359375,30.9228515625 14.560546875,27.65625 14.853515625,25.458984375 15.673828125,23.525390625 16.9189453125,21.9580078125 18.486328125,20.859375 16.2890625,18.515625 15.65185546875,16.9628925323486 15.439453125,15.234375 15.9228515625,12.5830078125 17.2265625,10.517578125 19.1455078125,9.1845703125 21.4453125,8.701171875z M21.708984375,3.6328125L18.094482421875,3.99169921875 14.6923828125,5.068359375 11.605224609375,6.76025390625 8.935546875,8.96484375 6.734619140625,11.6345224380493 5.0537109375,14.7216796875 3.98803687095642,18.1237812042236 3.6328125,21.73828125 3.98803687095642,25.352783203125 5.0537109375,28.7548828125 6.734619140625,31.842041015625 8.935546875,34.51171875 11.605224609375,36.712646484375 14.6923828125,38.3935546875 18.094482421875,39.459228515625 21.708984375,39.814453125 25.3234844207764,39.45556640625 28.7255859375,38.37890625 31.81640625,36.68701171875 34.4970703125,34.482421875 36.712646484375,31.81640625 38.408203125,28.740234375 39.48486328125,25.34912109375 39.84375,21.73828125 39.1845703125,16.9482421875 37.3388671875,12.626953125 34.482421875,8.9501953125 30.8056640625,6.1083984375 26.4990234375,4.27734375 21.708984375,3.6328125z M21.708984375,0L24.6203594207764,0.19775390625 27.4365234375,0.791015625 32.6220703125,3.0029296875 37.0458984375,6.416015625 40.4736328125,10.8251953125 42.685546875,16.0107421875 43.27880859375,18.826904296875 43.4765625,21.73828125 43.27880859375,24.66796875 42.685546875,27.48046875 40.4736328125,32.6513671875 37.0458984375,37.060546875 32.6220703125,40.4736328125 27.4365234375,42.6708984375 24.6203594207764,43.253173828125 21.708984375,43.447265625 18.779296875,43.253173828125 15.966796875,42.6708984375 10.7958984375,40.4736328125 6.38671875,37.060546875 2.9736328125,32.6513671875 0.776367664337158,27.4658203125 0.194091856479645,24.649658203125 0,21.73828125 0.197753846645355,18.826904296875 0.791015148162842,16.0107421875 3.0029296875,10.8251953125 6.416015625,6.416015625 10.810546875,3.0029296875 15.9814453125,0.791015625 18.797607421875,0.19775390625 21.708984375,0z" />
    </g>
  </g>
</svg>