<?xml version="1.0" encoding="utf-8"?>
<!DOCTYPE svg PUBLIC "-//W3C//DTD SVG 1.1//EN" "http://www.w3.org/Graphics/SVG/1.1/DTD/svg11.dtd">
<svg width="43.4765625" height="30.966796875" xmlns="http://www.w3.org/2000/svg" xmlns:xlink="http://www.w3.org/1999/xlink" xmlns:xml="http://www.w3.org/XML/1998/namespace" version="1.1">
  <g>
    <g>
      <path style="fill:#FF0000;fill-opacity:1" d="M27.861328125,2.841796875L30.3076171875,3.310546875 32.2412109375,4.599609375 33.515625,6.5478515625 33.984375,8.994140625 33.68408203125,11.2939472198486 32.783203125,13.212890625 31.35498046875,14.6923828125 29.47265625,15.673828125 29.47265625,15.732421875 31.6259765625,16.3916015625 33.28125,17.7099609375 34.3359375,19.5556640625 34.716796875,21.767578125 34.1455078125,24.8583984375 32.548828125,27.2607421875 30.1171875,28.828125 27.041015625,29.384765625 24.3749980926514,29.04052734375 22.294921875,28.0078125 22.294921875,24.90234375 24.5800762176514,26.4404296875 27.158203125,26.953125 29.132080078125,26.619873046875 30.6591796875,25.6201171875 31.636962890625,24.056396484375 31.962890625,22.03125 31.5985107421875,19.8651123046875 30.50537109375,18.31787109375 28.6834716796875,17.3895263671875 26.1328125,17.080078125 24.375,17.080078125 24.375,14.6484375 26.044921875,14.6484375 28.32275390625,14.322509765625 29.94140625,13.3447265625 30.908203125,11.7810077667236 31.23046875,9.697265625 30.985107421875,7.81128072738647 30.2490234375,6.4306640625 29.014892578125,5.58471822738647 27.275390625,5.302734375 25.1293926239014,5.75683736801147 23.0859375,7.119140625 23.0859375,4.306640625 25.3051738739014,3.2080078125 27.861328125,2.841796875z M14.794921875,2.841796875L16.142578125,2.841796875 16.142578125,28.798828125 13.359375,28.798828125 13.359375,6.708984375 12.3193359375,7.705078125 11.0888671875,8.5400390625 9.8291015625,9.169921875 8.73046875,9.55078125 8.73046875,6.826171875 11.9384765625,5.21484375 14.794921875,2.841796875z M34.306640625,0L38.0859375,0 40.4443359375,3.40393090248108 42.12890625,7.14111423492432 43.1396484375,11.2115488052368 43.4765625,15.615234375 43.1396484375,20.00244140625 42.12890625,24.0234375 40.4443359375,27.67822265625 38.0859375,30.966796875 34.365234375,30.966796875 36.749267578125,27.557373046875 38.4521484375,23.8623046875 39.473876953125,19.881591796875 39.814453125,15.615234375 39.47021484375,11.3104257583618 38.4375,7.27295017242432 36.71630859375,3.50280785560608 34.306640625,0z M5.390625,0L9.169921875,0 6.76025390625,3.50280785560608 5.0390625,7.27295017242432 4.00634765625,11.3104257583618 3.662109375,15.615234375 4.002685546875,19.881591796875 5.0244140625,23.8623046875 6.727294921875,27.557373046875 9.111328125,30.966796875 5.390625,30.966796875 3.0322265625,27.67822265625 1.34765625,24.0234375 0.3369140625,20.00244140625 0,15.615234375 0.3369140625,11.2115488052368 1.34765625,7.14111423492432 3.0322265625,3.40393090248108 5.390625,0z" />
    </g>
  </g>
</svg>