<?xml version="1.0" encoding="utf-8"?>
<!DOCTYPE svg PUBLIC "-//W3C//DTD SVG 1.1//EN" "http://www.w3.org/Graphics/SVG/1.1/DTD/svg11.dtd">
<svg width="43.4765625" height="43.447265625" xmlns="http://www.w3.org/2000/svg" xmlns:xlink="http://www.w3.org/1999/xlink" xmlns:xml="http://www.w3.org/XML/1998/namespace" version="1.1">
  <g>
    <g>
      <path style="fill:#FF0000;fill-opacity:1" d="M17.724609375,9.90234375L27.3046875,9.90234375 27.3046875,12.48046875 19.921875,12.48046875 19.130859375,19.921875 20.068359375,19.8486328125 20.91796875,19.8046875 23.994140625,20.3466796875 26.30859375,21.884765625 27.7587890625,24.287109375 28.271484375,27.392578125 27.7294921875,30.64453125 26.19140625,33.22265625 23.759765625,34.9072265625 20.537109375,35.5078125 17.8564453125,35.244140625 15.908203125,34.482421875 15.908203125,31.435546875 18.22265625,32.6953125 20.56640625,33.10546875 22.6611328125,32.6806640625 24.228515625,31.5087890625 25.1953125,29.7509765625 25.517578125,27.568359375 25.1586894989014,25.301513671875 24.08203125,23.6572265625 22.3828105926514,22.657470703125 20.15625,22.32421875 18.75,22.3681640625 16.552734375,22.529296875 17.724609375,9.90234375z M21.708984375,3.6328125L18.094482421875,3.99169921875 14.6923828125,5.068359375 11.605224609375,6.76025390625 8.935546875,8.96484375 6.734619140625,11.6345224380493 5.0537109375,14.7216796875 3.98803687095642,18.1237812042236 3.6328125,21.73828125 3.98803687095642,25.352783203125 5.0537109375,28.7548828125 6.734619140625,31.842041015625 8.935546875,34.51171875 11.605224609375,36.712646484375 14.6923828125,38.3935546875 18.094482421875,39.459228515625 21.708984375,39.814453125 25.3234844207764,39.45556640625 28.7255859375,38.37890625 31.81640625,36.68701171875 34.4970703125,34.482421875 36.712646484375,31.81640625 38.408203125,28.740234375 39.48486328125,25.34912109375 39.84375,21.73828125 39.1845703125,16.9482421875 37.3388671875,12.626953125 34.482421875,8.9501953125 30.8056640625,6.1083984375 26.4990234375,4.27734375 21.708984375,3.6328125z M21.708984375,0L24.6203594207764,0.19775390625 27.4365234375,0.791015625 32.6220703125,3.0029296875 37.0458984375,6.416015625 40.4736328125,10.8251953125 42.685546875,16.0107421875 43.27880859375,18.826904296875 43.4765625,21.73828125 43.27880859375,24.66796875 42.685546875,27.48046875 40.4736328125,32.6513671875 37.0458984375,37.060546875 32.6220703125,40.4736328125 27.4365234375,42.6708984375 24.6203594207764,43.253173828125 21.708984375,43.447265625 18.779296875,43.253173828125 15.966796875,42.6708984375 10.7958984375,40.4736328125 6.38671875,37.060546875 2.9736328125,32.6513671875 0.776367664337158,27.4658203125 0.194091856479645,24.649658203125 0,21.73828125 0.197753846645355,18.826904296875 0.791015148162842,16.0107421875 3.0029296875,10.8251953125 6.416015625,6.416015625 10.810546875,3.0029296875 15.9814453125,0.791015625 18.797607421875,0.19775390625 21.708984375,0z" />
    </g>
  </g>
</svg>