<?xml version="1.0" encoding="utf-8"?>
<!DOCTYPE svg PUBLIC "-//W3C//DTD SVG 1.1//EN" "http://www.w3.org/Graphics/SVG/1.1/DTD/svg11.dtd">
<svg width="43.4765625" height="43.447265625" xmlns="http://www.w3.org/2000/svg" xmlns:xlink="http://www.w3.org/1999/xlink" xmlns:xml="http://www.w3.org/XML/1998/namespace" version="1.1">
  <g>
    <g>
      <path style="fill:#FF0000;fill-opacity:1" d="M29.6484375,11.337890625L27.4072265625,12.0300312042236 25.8984375,14.1064453125 25.0415019989014,17.5891132354736 24.755859375,22.5 25.0598125457764,27.07763671875 25.9716796875,30.322265625 27.476806640625,32.255859375 29.560546875,32.900390625 31.611328125,32.2393798828125 33.076171875,30.25634765625 33.955078125,26.9512939453125 34.248046875,22.32421875 33.955078125,17.4902362823486 33.076171875,14.0625 31.63330078125,12.0190448760986 29.6484375,11.337890625z M15.791015625,8.96484375L18.046875,9.4775390625 19.833984375,10.8984375 21.0205078125,13.095703125 21.4453125,15.908203125 20.9912109375,18.7353515625 19.8193359375,21.240234375 18.22265625,23.408203125 16.494140625,25.1953125 15,26.7041015625 13.6083984375,28.41796875 12.5830078125,30.322265625 12.1875,32.34375 21.298828125,32.34375 21.298828125,34.921875 9.638671875,34.921875 9.638671875,33.6328125 10.0048828125,30.4541015625 11.0009765625,27.8466796875 12.5244140625,25.634765625 14.47265625,23.642578125 16.1279296875,22.060546875 17.4609375,20.419921875 18.33984375,18.515625 18.662109375,16.142578125 18.416748046875,14.1796894073486 17.6806640625,12.685546875 16.549072265625,11.7407245635986 15.1171875,11.42578125 13.798828125,11.66015625 12.4365234375,12.3193359375 11.19140625,13.30078125 10.1953125,14.47265625 10.1953125,11.279296875 11.396484375,10.2978515625 12.861328125,9.580078125 14.3994140625,9.1259765625 15.791015625,8.96484375z M29.82421875,8.84765625L31.4794921875,9.05364990234375 32.9296875,9.671630859375 34.1748046875,10.7015991210938 35.21484375,12.1435546875 36.03515625,13.9956674575806 36.62109375,16.2561054229736 36.97265625,18.9248676300049 37.08984375,22.001953125 36.943359375,25.048828125 36.4599609375,28.095703125 35.5517578125,30.908203125 34.1162109375,33.22265625 32.05078125,34.8046875 29.267578125,35.390625 26.66015625,34.833984375 24.7412109375,33.3251953125 23.3935546875,31.0986328125 22.529296875,28.4033203125 22.0751953125,25.48828125 21.943359375,22.6171875 22.0458984375,19.4677734375 22.4560546875,16.318359375 23.3056640625,13.4326171875 24.7265625,11.0595703125 26.8505859375,9.4482421875 29.82421875,8.84765625z M21.708984375,3.6328125L18.094482421875,3.99169921875 14.6923828125,5.068359375 11.605224609375,6.76025390625 8.935546875,8.96484375 6.734619140625,11.6345224380493 5.0537109375,14.7216796875 3.98803687095642,18.1237812042236 3.6328125,21.73828125 3.98803687095642,25.352783203125 5.0537109375,28.7548828125 6.734619140625,31.842041015625 8.935546875,34.51171875 11.605224609375,36.712646484375 14.6923828125,38.3935546875 18.094482421875,39.459228515625 21.708984375,39.814453125 25.3234844207764,39.45556640625 28.7255859375,38.37890625 31.81640625,36.68701171875 34.4970703125,34.482421875 36.712646484375,31.81640625 38.408203125,28.740234375 39.48486328125,25.34912109375 39.84375,21.73828125 39.1845703125,16.9482421875 37.3388671875,12.626953125 34.482421875,8.9501953125 30.8056640625,6.1083984375 26.4990234375,4.27734375 21.708984375,3.6328125z M21.708984375,0L24.6203594207764,0.19775390625 27.4365234375,0.791015625 32.6220703125,3.0029296875 37.0458984375,6.416015625 40.4736328125,10.8251953125 42.685546875,16.0107421875 43.27880859375,18.826904296875 43.4765625,21.73828125 43.27880859375,24.66796875 42.685546875,27.48046875 40.4736328125,32.6513671875 37.0458984375,37.060546875 32.6220703125,40.4736328125 27.4365234375,42.6708984375 24.6203594207764,43.253173828125 21.708984375,43.447265625 18.779296875,43.253173828125 15.966796875,42.6708984375 10.7958984375,40.4736328125 6.38671875,37.060546875 2.9736328125,32.6513671875 0.776367664337158,27.4658203125 0.194091856479645,24.649658203125 0,21.73828125 0.197753846645355,18.826904296875 0.791015148162842,16.0107421875 3.0029296875,10.8251953125 6.416015625,6.416015625 10.810546875,3.0029296875 15.9814453125,0.791015625 18.797607421875,0.19775390625 21.708984375,0z" />
    </g>
  </g>
</svg>