<?xml version="1.0" encoding="utf-8"?>
<!DOCTYPE svg PUBLIC "-//W3C//DTD SVG 1.1//EN" "http://www.w3.org/Graphics/SVG/1.1/DTD/svg11.dtd">
<svg width="43.4765625" height="30.966796875" xmlns="http://www.w3.org/2000/svg" xmlns:xlink="http://www.w3.org/1999/xlink" xmlns:xml="http://www.w3.org/XML/1998/namespace" version="1.1">
  <g>
    <g>
      <path style="fill:#FF0000;fill-opacity:1" d="M23.203125,9.43359375L25.5322246551514,9.64599800109863 27.59765625,10.283203125 27.59765625,13.330078125 25.3417949676514,12.3193378448486 22.79296875,11.982421875 21.2548828125,12.1728515625 20.0830078125,12.71484375 19.3359375,13.5498046875 19.072265625,14.619140625 19.3359375,15.87890625 20.1123046875,16.7578125 21.3720703125,17.4609375 23.056640625,18.134765625 25.3125,19.130859375 26.9970703125,20.2734375 28.06640625,21.73828125 28.447265625,23.701171875 27.83203125,26.1474609375 26.19140625,27.861328125 23.818359375,28.8720703125 20.9765625,29.208984375 18.2666015625,28.9306640625 15.9375,28.095703125 15.9375,24.84375 18.52294921875,26.2060546875 21.357421875,26.66015625 23.1005840301514,26.4935302734375 24.3457012176514,25.99365234375 25.0927715301514,25.1605224609375 25.341796875,23.994140625 25.0048828125,22.734375 24.08203125,21.796875 22.7197265625,21.064453125 21.03515625,20.390625 18.8232421875,19.3798828125 17.2412109375,18.2373046875 16.2890625,16.787109375 15.966796875,14.8828125 16.5673828125,12.5390625 18.193359375,10.8251953125 20.5078125,9.78515625 23.203125,9.43359375z M34.306640625,0L38.0859375,0 40.4443359375,3.40393090248108 42.12890625,7.14111423492432 43.1396484375,11.2115488052368 43.4765625,15.615234375 43.1396484375,20.00244140625 42.12890625,24.0234375 40.4443359375,27.67822265625 38.0859375,30.966796875 34.365234375,30.966796875 36.749267578125,27.557373046875 38.4521484375,23.8623046875 39.473876953125,19.881591796875 39.814453125,15.615234375 39.47021484375,11.3104257583618 38.4375,7.27295017242432 36.71630859375,3.50280785560608 34.306640625,0z M5.390625,0L9.169921875,0 6.76025390625,3.50280785560608 5.0390625,7.27295017242432 4.00634765625,11.3104257583618 3.662109375,15.615234375 4.002685546875,19.881591796875 5.0244140625,23.8623046875 6.727294921875,27.557373046875 9.111328125,30.966796875 5.390625,30.966796875 3.0322265625,27.67822265625 1.34765625,24.0234375 0.3369140625,20.00244140625 0,15.615234375 0.3369140625,11.2115488052368 1.34765625,7.14111423492432 3.0322265625,3.40393090248108 5.390625,0z" />
    </g>
  </g>
</svg>