<?xml version="1.0" encoding="utf-8"?>
<!DOCTYPE svg PUBLIC "-//W3C//DTD SVG 1.1//EN" "http://www.w3.org/Graphics/SVG/1.1/DTD/svg11.dtd">
<svg width="43.4765625" height="30.966796875" xmlns="http://www.w3.org/2000/svg" xmlns:xlink="http://www.w3.org/1999/xlink" xmlns:xml="http://www.w3.org/XML/1998/namespace" version="1.1">
  <g>
    <g>
      <path style="fill:#FF0000;fill-opacity:1" d="M15.029296875,0.791015625L18.046875,0.791015625 18.046875,13.0078125 18.10546875,13.0078125 19.3176250457764,11.4440927505493 20.7568340301514,10.3271503448486 22.4230937957764,9.65698337554932 24.31640625,9.43359375 27.110595703125,9.91333103179932 29.1064453125,11.3525409698486 30.303955078125,13.7512216567993 30.703125,17.109375 30.703125,28.76953125 27.685546875,28.76953125 27.685546875,17.87109375 27.4108867645264,15.2948007583618 26.5869121551514,13.4545917510986 25.2136211395264,12.3504648208618 23.291015625,11.982421875 21.2438945770264,12.4072284698486 19.5556640625,13.681640625 18.424072265625,15.6298828125 18.046875,18.076171875 18.046875,28.76953125 15.029296875,28.76953125 15.029296875,0.791015625z M34.306640625,0L38.0859375,0 40.4443359375,3.40393090248108 42.12890625,7.14111423492432 43.1396484375,11.2115488052368 43.4765625,15.615234375 43.1396484375,20.00244140625 42.12890625,24.0234375 40.4443359375,27.67822265625 38.0859375,30.966796875 34.365234375,30.966796875 36.749267578125,27.557373046875 38.4521484375,23.8623046875 39.473876953125,19.881591796875 39.814453125,15.615234375 39.47021484375,11.3104257583618 38.4375,7.27295017242432 36.71630859375,3.50280785560608 34.306640625,0z M5.390625,0L9.169921875,0 6.76025390625,3.50280785560608 5.0390625,7.27295017242432 4.00634765625,11.3104257583618 3.662109375,15.615234375 4.002685546875,19.881591796875 5.0244140625,23.8623046875 6.727294921875,27.557373046875 9.111328125,30.966796875 5.390625,30.966796875 3.0322265625,27.67822265625 1.34765625,24.0234375 0.3369140625,20.00244140625 0,15.615234375 0.3369140625,11.2115488052368 1.34765625,7.14111423492432 3.0322265625,3.40393090248108 5.390625,0z" />
    </g>
  </g>
</svg>