<?xml version="1.0" encoding="utf-8"?>
<!DOCTYPE svg PUBLIC "-//W3C//DTD SVG 1.1//EN" "http://www.w3.org/Graphics/SVG/1.1/DTD/svg11.dtd">
<svg width="43.4765625" height="30.966796875" xmlns="http://www.w3.org/2000/svg" xmlns:xlink="http://www.w3.org/1999/xlink" xmlns:xml="http://www.w3.org/XML/1998/namespace" version="1.1">
  <g>
    <g>
      <path style="fill:#FF0000;fill-opacity:1" d="M21.943359375,2.841796875L24.19921875,3.3544921875 25.986328125,4.775390625 27.1728515625,6.97265625 27.59765625,9.78515625 27.1435546875,12.6123046875 25.9716796875,15.1171875 24.375,17.28515625 22.646484375,19.072265625 21.15234375,20.5810546875 19.7607421875,22.294921875 18.7353515625,24.19921875 18.33984375,26.220703125 27.451171875,26.220703125 27.451171875,28.798828125 15.791015625,28.798828125 15.791015625,27.509765625 16.1572265625,24.3310546875 17.1533203125,21.7236328125 18.6767578125,19.51171875 20.625,17.51953125 22.2802734375,15.9375 23.61328125,14.296875 24.4921875,12.392578125 24.814453125,10.01953125 24.5690898895264,8.05664253234863 23.8330078125,6.5625 22.7014141082764,5.61767721176147 21.26953125,5.302734375 19.951171875,5.537109375 18.5888671875,6.1962890625 17.34375,7.177734375 16.34765625,8.349609375 16.34765625,5.15625 17.548828125,4.1748046875 19.013671875,3.45703125 20.5517578125,3.0029296875 21.943359375,2.841796875z M34.306640625,0L38.0859375,0 40.4443359375,3.40393090248108 42.12890625,7.14111423492432 43.1396484375,11.2115488052368 43.4765625,15.615234375 43.1396484375,20.00244140625 42.12890625,24.0234375 40.4443359375,27.67822265625 38.0859375,30.966796875 34.365234375,30.966796875 36.749267578125,27.557373046875 38.4521484375,23.8623046875 39.473876953125,19.881591796875 39.814453125,15.615234375 39.47021484375,11.3104257583618 38.4375,7.27295017242432 36.71630859375,3.50280785560608 34.306640625,0z M5.390625,0L9.169921875,0 6.76025390625,3.50280785560608 5.0390625,7.27295017242432 4.00634765625,11.3104257583618 3.662109375,15.615234375 4.002685546875,19.881591796875 5.0244140625,23.8623046875 6.727294921875,27.557373046875 9.111328125,30.966796875 5.390625,30.966796875 3.0322265625,27.67822265625 1.34765625,24.0234375 0.3369140625,20.00244140625 0,15.615234375 0.3369140625,11.2115488052368 1.34765625,7.14111423492432 3.0322265625,3.40393090248108 5.390625,0z" />
    </g>
  </g>
</svg>