<?xml version="1.0" encoding="utf-8"?>
<!DOCTYPE svg PUBLIC "-//W3C//DTD SVG 1.1//EN" "http://www.w3.org/Graphics/SVG/1.1/DTD/svg11.dtd">
<svg width="43.4765625" height="30.966796875" xmlns="http://www.w3.org/2000/svg" xmlns:xlink="http://www.w3.org/1999/xlink" xmlns:xml="http://www.w3.org/XML/1998/namespace" version="1.1">
  <g>
    <g>
      <path style="fill:#FF0000;fill-opacity:1" d="M20.947265625,15.615234375L19.1455078125,16.0546875 17.841796875,17.2119140625 17.0361328125,18.837890625 16.7578125,20.712890625 16.9921875,22.822265625 17.7392578125,24.8583984375 19.04296875,26.396484375 20.9765625,27.01171875 22.822265625,26.4990234375 24.0673828125,25.166015625 24.78515625,23.3349609375 25.01953125,21.328125 24.814453125,19.248046875 24.140625,17.4169921875 22.880859375,16.11328125 20.947265625,15.615234375z M22.705078125,2.841796875L24.8291015625,3.017578125 26.484375,3.57421875 26.484375,6.298828125 24.66796875,5.5517578125 22.763671875,5.302734375 20.595703125,5.8447265625 18.984375,7.294921875 17.841796875,9.3896484375 17.109375,11.8359375 16.728515625,14.3701171875 16.611328125,16.69921875 16.669921875,16.69921875 17.51953125,15.135498046875 18.603515625,14.0185546875 19.921875,13.348388671875 21.474609375,13.125 24.2431640625,13.7841796875 26.2060546875,15.52734375 27.3779296875,18.017578125 27.7734375,20.91796875 27.3193359375,23.994140625 25.986328125,26.71875 23.818359375,28.65234375 20.888671875,29.384765625 18.988037109375,29.1064453125 17.4462890625,28.271484375 15.2783203125,25.4443359375 14.150390625,21.6943359375 13.828125,17.8125 14.0185546875,14.6630859375 14.6337890625,11.30859375 15.7470703125,8.115234375 17.4169921875,5.419921875 19.716796875,3.544921875 22.705078125,2.841796875z M34.306640625,0L38.0859375,0 40.4443359375,3.40393090248108 42.12890625,7.14111423492432 43.1396484375,11.2115488052368 43.4765625,15.615234375 43.1396484375,20.00244140625 42.12890625,24.0234375 40.4443359375,27.67822265625 38.0859375,30.966796875 34.365234375,30.966796875 36.749267578125,27.557373046875 38.4521484375,23.8623046875 39.473876953125,19.881591796875 39.814453125,15.615234375 39.47021484375,11.3104257583618 38.4375,7.27295017242432 36.71630859375,3.50280785560608 34.306640625,0z M5.390625,0L9.169921875,0 6.76025390625,3.50280785560608 5.0390625,7.27295017242432 4.00634765625,11.3104257583618 3.662109375,15.615234375 4.002685546875,19.881591796875 5.0244140625,23.8623046875 6.727294921875,27.557373046875 9.111328125,30.966796875 5.390625,30.966796875 3.0322265625,27.67822265625 1.34765625,24.0234375 0.3369140625,20.00244140625 0,15.615234375 0.3369140625,11.2115488052368 1.34765625,7.14111423492432 3.0322265625,3.40393090248108 5.390625,0z" />
    </g>
  </g>
</svg>