<?xml version="1.0" encoding="utf-8"?>
<!DOCTYPE svg PUBLIC "-//W3C//DTD SVG 1.1//EN" "http://www.w3.org/Graphics/SVG/1.1/DTD/svg11.dtd">
<svg width="43.4765625" height="37.470703125" xmlns="http://www.w3.org/2000/svg" xmlns:xlink="http://www.w3.org/1999/xlink" xmlns:xml="http://www.w3.org/XML/1998/namespace" version="1.1">
  <g>
    <g>
      <path style="fill:#FF0000;fill-opacity:1" d="M23.90625,11.982421875L21.5258769989014,12.4401874542236 19.658203125,13.8134765625 18.44970703125,15.882568359375 18.046875,18.427734375 18.046875,21.064453125 18.427734375,23.228759765625 19.5703125,25.0341796875 21.2988262176514,26.253662109375 23.4375,26.66015625 25.8911113739014,26.136474609375 27.744140625,24.5654296875 28.90869140625,22.056884765625 29.296875,18.720703125 28.934326171875,15.90087890625 27.8466796875,13.76953125 26.1364727020264,12.4292011260986 23.90625,11.982421875z M24.638671875,9.43359375L27.89794921875,10.0671405792236 30.3515625,11.9677734375 31.8896484375,14.937744140625 32.40234375,18.779296875 31.827392578125,23.031005859375 30.1025390625,26.3525390625 27.374267578125,28.494873046875 23.7890625,29.208984375 22.0495586395264,29.01123046875 20.5224590301514,28.41796875 19.2077617645264,27.42919921875 18.10546875,26.044921875 18.046875,26.044921875 18.046875,37.470703125 15.029296875,37.470703125 15.029296875,9.873046875 18.046875,9.873046875 18.046875,13.18359375 18.10546875,13.18359375 19.3597393035889,11.5429697036743 20.8666973114014,10.3710956573486 22.6263408660889,9.66796970367432 24.638671875,9.43359375z M34.306640625,0L38.0859375,0 40.4443359375,3.40393090248108 42.12890625,7.14111423492432 43.1396484375,11.2115488052368 43.4765625,15.615234375 43.1396484375,20.00244140625 42.12890625,24.0234375 40.4443359375,27.67822265625 38.0859375,30.966796875 34.365234375,30.966796875 36.749267578125,27.557373046875 38.4521484375,23.8623046875 39.473876953125,19.881591796875 39.814453125,15.615234375 39.47021484375,11.3104257583618 38.4375,7.27295017242432 36.71630859375,3.50280785560608 34.306640625,0z M5.390625,0L9.169921875,0 6.76025390625,3.50280785560608 5.0390625,7.27295017242432 4.00634765625,11.3104257583618 3.662109375,15.615234375 4.002685546875,19.881591796875 5.0244140625,23.8623046875 6.727294921875,27.557373046875 9.111328125,30.966796875 5.390625,30.966796875 3.0322265625,27.67822265625 1.34765625,24.0234375 0.3369140625,20.00244140625 0,15.615234375 0.3369140625,11.2115488052368 1.34765625,7.14111423492432 3.0322265625,3.40393090248108 5.390625,0z" />
    </g>
  </g>
</svg>