<?xml version="1.0" encoding="utf-8"?>
<!DOCTYPE svg PUBLIC "-//W3C//DTD SVG 1.1//EN" "http://www.w3.org/Graphics/SVG/1.1/DTD/svg11.dtd">
<svg width="43.4765625" height="43.447265625" xmlns="http://www.w3.org/2000/svg" xmlns:xlink="http://www.w3.org/1999/xlink" xmlns:xml="http://www.w3.org/XML/1998/namespace" version="1.1">
  <g>
    <g>
      <path style="fill:#FF0000;fill-opacity:1" d="M27.568359375,8.96484375L29.82421875,9.4775390625 31.611328125,10.8984375 32.7978515625,13.095703125 33.22265625,15.908203125 32.7685546875,18.7353515625 31.5966796875,21.240234375 30,23.408203125 28.271484375,25.1953125 26.77734375,26.7041015625 25.3857421875,28.41796875 24.3603515625,30.322265625 23.96484375,32.34375 33.076171875,32.34375 33.076171875,34.921875 21.416015625,34.921875 21.416015625,33.6328125 21.7822265625,30.4541015625 22.7783203125,27.8466796875 24.3017578125,25.634765625 26.25,23.642578125 27.9052734375,22.060546875 29.23828125,20.419921875 30.1171875,18.515625 30.439453125,16.142578125 30.194091796875,14.1796894073486 29.4580078125,12.685546875 28.326416015625,11.7407245635986 26.89453125,11.42578125 25.576171875,11.66015625 24.2138671875,12.3193359375 22.96875,13.30078125 21.97265625,14.47265625 21.97265625,11.279296875 23.173828125,10.2978515625 24.638671875,9.580078125 26.1767578125,9.1259765625 27.568359375,8.96484375z M14.853515625,8.96484375L16.201171875,8.96484375 16.201171875,34.921875 13.41796875,34.921875 13.41796875,12.83203125 12.3779296875,13.828125 11.1474609375,14.6630859375 9.8876953125,15.29296875 8.7890625,15.673828125 8.7890625,12.94921875 11.9970703125,11.337890625 14.853515625,8.96484375z M21.708984375,3.6328125L18.094482421875,3.99169921875 14.6923828125,5.068359375 11.605224609375,6.76025390625 8.935546875,8.96484375 6.734619140625,11.6345224380493 5.0537109375,14.7216796875 3.98803687095642,18.1237812042236 3.6328125,21.73828125 3.98803687095642,25.352783203125 5.0537109375,28.7548828125 6.734619140625,31.842041015625 8.935546875,34.51171875 11.605224609375,36.712646484375 14.6923828125,38.3935546875 18.094482421875,39.459228515625 21.708984375,39.814453125 25.3234844207764,39.45556640625 28.7255859375,38.37890625 31.81640625,36.68701171875 34.4970703125,34.482421875 36.712646484375,31.81640625 38.408203125,28.740234375 39.48486328125,25.34912109375 39.84375,21.73828125 39.1845703125,16.9482421875 37.3388671875,12.626953125 34.482421875,8.9501953125 30.8056640625,6.1083984375 26.4990234375,4.27734375 21.708984375,3.6328125z M21.708984375,0L24.6203594207764,0.19775390625 27.4365234375,0.791015625 32.6220703125,3.0029296875 37.0458984375,6.416015625 40.4736328125,10.8251953125 42.685546875,16.0107421875 43.27880859375,18.826904296875 43.4765625,21.73828125 43.27880859375,24.66796875 42.685546875,27.48046875 40.4736328125,32.6513671875 37.0458984375,37.060546875 32.6220703125,40.4736328125 27.4365234375,42.6708984375 24.6203594207764,43.253173828125 21.708984375,43.447265625 18.779296875,43.253173828125 15.966796875,42.6708984375 10.7958984375,40.4736328125 6.38671875,37.060546875 2.9736328125,32.6513671875 0.776367664337158,27.4658203125 0.194091856479645,24.649658203125 0,21.73828125 0.197753846645355,18.826904296875 0.791015148162842,16.0107421875 3.0029296875,10.8251953125 6.416015625,6.416015625 10.810546875,3.0029296875 15.9814453125,0.791015625 18.797607421875,0.19775390625 21.708984375,0z" />
    </g>
  </g>
</svg>