<?xml version="1.0" encoding="utf-8"?>
<!DOCTYPE svg PUBLIC "-//W3C//DTD SVG 1.1//EN" "http://www.w3.org/Graphics/SVG/1.1/DTD/svg11.dtd">
<svg width="43.4765625" height="37.67578125" xmlns="http://www.w3.org/2000/svg" xmlns:xlink="http://www.w3.org/1999/xlink" xmlns:xml="http://www.w3.org/XML/1998/namespace" version="1.1">
  <g>
    <g>
      <path style="fill:#FF0000;fill-opacity:1" d="M21.474609375,9.873046875L24.4921875,9.873046875 24.4921875,27.978515625 24.0234355926514,32.10205078125 22.6171875,35.15625 20.3393535614014,37.0458984375 17.255859375,37.67578125 14.736328125,37.08984375 14.736328125,34.248046875 16.0693359375,34.86328125 17.314453125,35.068359375 19.1345195770264,34.6563720703125 20.4345684051514,33.42041015625 21.2145977020264,31.3604736328125 21.474609375,28.4765625 21.474609375,9.873046875z M22.998046875,1.142578125L24.43359375,1.69921875 25.01953125,3.10546875 24.43359375,4.4970703125 22.998046875,5.068359375 21.6357421875,4.51171875 21.064453125,3.10546875 21.6357421875,1.69921875 22.998046875,1.142578125z M34.306640625,0L38.0859375,0 40.4443359375,3.40393090248108 42.12890625,7.14111423492432 43.1396484375,11.2115488052368 43.4765625,15.615234375 43.1396484375,20.00244140625 42.12890625,24.0234375 40.4443359375,27.67822265625 38.0859375,30.966796875 34.365234375,30.966796875 36.749267578125,27.557373046875 38.4521484375,23.8623046875 39.473876953125,19.881591796875 39.814453125,15.615234375 39.47021484375,11.3104257583618 38.4375,7.27295017242432 36.71630859375,3.50280785560608 34.306640625,0z M5.390625,0L9.169921875,0 6.76025390625,3.50280785560608 5.0390625,7.27295017242432 4.00634765625,11.3104257583618 3.662109375,15.615234375 4.002685546875,19.881591796875 5.0244140625,23.8623046875 6.727294921875,27.557373046875 9.111328125,30.966796875 5.390625,30.966796875 3.0322265625,27.67822265625 1.34765625,24.0234375 0.3369140625,20.00244140625 0,15.615234375 0.3369140625,11.2115488052368 1.34765625,7.14111423492432 3.0322265625,3.40393090248108 5.390625,0z" />
    </g>
  </g>
</svg>