<?xml version="1.0" encoding="utf-8"?>
<!DOCTYPE svg PUBLIC "-//W3C//DTD SVG 1.1//EN" "http://www.w3.org/Graphics/SVG/1.1/DTD/svg11.dtd">
<svg width="43.4765625" height="43.447265625" xmlns="http://www.w3.org/2000/svg" xmlns:xlink="http://www.w3.org/1999/xlink" xmlns:xml="http://www.w3.org/XML/1998/namespace" version="1.1">
  <g>
    <g>
      <path style="fill:#FF0000;fill-opacity:1" d="M27.83203125,22.470703125L29.3994140625,22.8369140625 30.703125,23.8623046875 31.58203125,25.4296875 31.904296875,27.421875 31.5673828125,29.7216796875 30.6591796875,31.4208984375 29.3701171875,32.4755859375 27.861328125,32.841796875 27.83203125,32.841796875 26.1877422332764,32.4609375 24.8876953125,31.435546875 24.0417461395264,29.75830078125 23.759765625,27.421875 24.08203125,25.4296875 24.9609375,23.8623046875 26.2646484375,22.8369140625 27.83203125,22.470703125z M27.83203125,11.1328125L29.14306640625,11.3964862823486 30.205078125,12.1875 30.908203125,13.4985370635986 31.142578125,15.322265625 30.904541015625,17.1167011260986 30.1904296875,18.45703125 29.124755859375,19.2919921875 27.83203125,19.5703125 26.5246562957764,19.28466796875 25.4736328125,18.427734375 24.7814922332764,17.0800800323486 24.55078125,15.322265625 24.8291015625,13.53515625 25.5615234375,12.216796875 26.6015625,11.4111328125 27.83203125,11.1328125z M14.853515625,8.96484375L11.9970703125,11.337890625 8.7890625,12.94921875 8.7890625,15.673828125 9.8876953125,15.29296875 11.1474609375,14.6630859375 12.3779296875,13.828125 13.41796875,12.83203125 13.41796875,34.921875 16.201171875,34.921875 16.201171875,8.96484375 14.853515625,8.96484375z M27.802734375,8.701171875L25.5029296875,9.1845703125 23.583984375,10.517578125 22.2802734375,12.5830078125 21.796875,15.234375 22.0092754364014,16.9628925323486 22.646484375,18.515625 24.84375,20.859375 23.2763671875,21.9580078125 22.03125,23.525390625 21.2109375,25.458984375 20.91796875,27.65625 21.4892578125,30.9228515625 23.0126953125,33.2958984375 25.1806640625,34.7314453125 27.71484375,35.21484375 30.3515625,34.6728515625 32.578125,33.1640625 34.130859375,30.8203125 34.716796875,27.7734375 34.4677734375,25.693359375 33.7353515625,23.7451171875 32.51953125,22.0751953125 30.791015625,20.859375 33.0322265625,18.3984375 33.779296875,15.263671875 33.28125,12.568359375 31.962890625,10.5029296875 30.05859375,9.169921875 27.802734375,8.701171875z M21.708984375,0L24.6203594207764,0.19775390625 27.4365234375,0.791015625 32.6220703125,3.0029296875 37.0458984375,6.416015625 40.4736328125,10.8251953125 42.685546875,16.0107421875 43.27880859375,18.826904296875 43.4765625,21.73828125 43.27880859375,24.66796875 42.685546875,27.48046875 40.4736328125,32.6513671875 37.0458984375,37.060546875 32.6220703125,40.4736328125 27.4365234375,42.6708984375 24.6203594207764,43.253173828125 21.708984375,43.447265625 18.779296875,43.253173828125 15.966796875,42.6708984375 10.7958984375,40.4736328125 6.38671875,37.060546875 2.9736328125,32.6513671875 0.776367664337158,27.4658203125 0.194091856479645,24.649658203125 0,21.73828125 0.197753846645355,18.826904296875 0.791015148162842,16.0107421875 3.0029296875,10.8251953125 6.416015625,6.416015625 10.810546875,3.0029296875 15.9814453125,0.791015625 18.797607421875,0.19775390625 21.708984375,0z" />
    </g>
  </g>
</svg>