<?xml version="1.0" encoding="utf-8"?>
<!DOCTYPE svg PUBLIC "-//W3C//DTD SVG 1.1//EN" "http://www.w3.org/Graphics/SVG/1.1/DTD/svg11.dtd">
<svg width="48.3984375" height="48.369140625" xmlns="http://www.w3.org/2000/svg" xmlns:xlink="http://www.w3.org/1999/xlink" xmlns:xml="http://www.w3.org/XML/1998/namespace" version="1.1">
  <g>
    <g>
      <path style="fill:#FF0000;fill-opacity:1" d="M23.935546875,24.990234375L22.3681640625,25.3564453125 21.064453125,26.3818359375 20.185546875,27.94921875 19.86328125,29.94140625 20.145263671875,32.27783203125 20.9912109375,33.955078125 22.291259765625,34.98046875 23.935546875,35.361328125 23.96484375,35.361328125 25.4736328125,34.9951171875 26.7626953125,33.9404296875 27.6708984375,32.2412109375 28.0078125,29.94140625 27.685546875,27.94921875 26.806640625,26.3818359375 25.5029296875,25.3564453125 23.935546875,24.990234375z M23.935546875,13.65234375L22.705078125,13.9306640625 21.6650390625,14.736328125 20.9326171875,16.0546875 20.654296875,17.841796875 20.885009765625,19.5996112823486 21.5771484375,20.947265625 22.6281719207764,21.80419921875 23.935546875,22.08984375 25.2282695770264,21.8115234375 26.2939453125,20.9765625 27.0080547332764,19.6362323760986 27.24609375,17.841796875 27.0117168426514,16.0180683135986 26.30859375,14.70703125 25.2465801239014,13.9160175323486 23.935546875,13.65234375z M23.90625,11.220703125L26.162109375,11.689453125 28.06640625,13.0224609375 29.384765625,15.087890625 29.8828125,17.783203125 29.1357421875,20.91796875 26.89453125,23.37890625 28.623046875,24.5947265625 29.8388671875,26.2646484375 30.5712890625,28.212890625 30.8203125,30.29296875 30.234375,33.33984375 28.681640625,35.68359375 26.455078125,37.1923828125 23.818359375,37.734375 21.2841796875,37.2509765625 19.1162109375,35.8154296875 17.5927734375,33.4423828125 17.021484375,30.17578125 17.314453125,27.978515625 18.134765625,26.044921875 19.3798828125,24.4775390625 20.947265625,23.37890625 18.75,21.03515625 18.11279296875,19.4824237823486 17.900390625,17.75390625 18.3837890625,15.1025390625 19.6875,13.037109375 21.6064453125,11.7041015625 23.90625,11.220703125z M24.169921875,5.91796922683716L20.526123046875,6.28051805496216 17.0947265625,7.36816453933716 13.978271484375,9.078369140625 11.279296875,11.30859375 9.052734375,14.0075693130493 7.353515625,17.1240234375 6.27685546875,20.5554218292236 5.91796827316284,24.19921875 6.5771484375,29.033203125 8.4228515625,33.3837890625 11.279296875,37.08984375 14.9853515625,39.9462890625 19.3505859375,41.7919921875 24.169921875,42.451171875 29.00390625,41.7919921875 33.369140625,39.931640625 37.0751953125,37.060546875 39.9609375,33.369140625 41.8212890625,29.0185546875 42.48046875,24.19921875 41.8212890625,19.3798828125 39.9609375,15.0146484375 37.0751953125,11.30859375 33.3544921875,8.4375 28.9892578125,6.57714891433716 24.169921875,5.91796922683716z M24.169921875,4.04296922683716L29.501953125,4.76074266433716 34.3212890625,6.79687547683716 38.408203125,9.9609375 41.572265625,14.0478515625 43.623046875,18.8671875 44.35546875,24.19921875 43.623046875,29.5166015625 41.572265625,34.3212890625 38.408203125,38.408203125 34.3212890625,41.572265625 29.501953125,43.6083984375 24.169921875,44.326171875 20.13427734375,43.9306640625 16.34765625,42.744140625 12.9162588119507,40.872802734375 9.9462890625,38.4228515625 7.496337890625,35.452880859375 5.62499952316284,32.021484375 4.4384765625,28.23486328125 4.04296875,24.19921875 4.7607421875,18.8818359375 6.796875,14.0771484375 9.9609375,9.990234375 14.033203125,6.82617235183716 18.837890625,4.77539110183716 24.169921875,4.04296922683716z M24.169921875,2.25585985183716L21.229248046875,2.45361375808716 18.3837890625,3.04687547683716 13.154296875,5.27343797683716 8.7158203125,8.7158203125 5.2734375,13.1689453125 3.046875,18.4130859375 2.45361328125,21.2585468292236 2.25585961341858,24.19921875 2.45361328125,27.158203125 3.046875,30 5.2734375,35.21484375 8.7158203125,39.6533203125 13.154296875,43.095703125 18.3837890625,45.322265625 21.229248046875,45.91552734375 24.169921875,46.11328125 27.1105937957764,45.91552734375 29.9560546875,45.322265625 35.2001953125,43.095703125 39.6533203125,39.6533203125 43.1103515625,35.21484375 45.3515625,29.9853515625 45.94482421875,27.139892578125 46.142578125,24.19921875 45.94482421875,21.2585468292236 45.3515625,18.4130859375 43.1103515625,13.18359375 39.6533203125,8.73046875 35.2001953125,5.27343797683716 29.9560546875,3.04687547683716 27.1105937957764,2.45361375808716 24.169921875,2.25585985183716z M24.169921875,0L27.4035625457764,0.219726920127869 30.5419921875,0.87890625 36.3134765625,3.33984422683716 41.220703125,7.14843797683716 45.0439453125,12.0703125 47.51953125,17.841796875 48.1787071228027,20.9692401885986 48.3984375,24.19921875 48.1787071228027,27.451171875 47.51953125,30.5859375 45.0439453125,36.3427734375 41.220703125,41.2353515625 36.3134765625,45.029296875 30.5419921875,47.490234375 27.4035625457764,48.1494140625 24.169921875,48.369140625 20.91796875,48.1494140625 17.783203125,47.490234375 12.0263671875,45.029296875 7.1337890625,41.2353515625 3.33984375,36.3427734375 0.87890625,30.5859375 0.219726473093033,27.451171875 0,24.19921875 0.219726473093033,20.9472675323486 0.87890625,17.8125 3.33984375,12.0556640625 7.1337890625,7.14843797683716 12.041015625,3.33984422683716 17.8125,0.87890625 20.93994140625,0.219726920127869 24.169921875,0z" />
    </g>
  </g>
</svg>