<?xml version="1.0" encoding="utf-8"?>
<!DOCTYPE svg PUBLIC "-//W3C//DTD SVG 1.1//EN" "http://www.w3.org/Graphics/SVG/1.1/DTD/svg11.dtd">
<svg width="43.4765625" height="43.447265625" xmlns="http://www.w3.org/2000/svg" xmlns:xlink="http://www.w3.org/1999/xlink" xmlns:xml="http://www.w3.org/XML/1998/namespace" version="1.1">
  <g>
    <g>
      <path style="fill:#FF0000;fill-opacity:1" d="M21.97265625,18.10546875L19.3505859375,18.5998554229736 17.34375,20.0830078125 16.0693359375,22.437744140625 15.64453125,25.546875 16.072998046875,28.55712890625 17.3583984375,30.849609375 19.368896484375,32.2998046875 21.97265625,32.783203125 24.5654277801514,32.30712890625 26.484375,30.87890625 27.6708984375,28.5791015625 28.06640625,25.48828125 27.6708984375,22.349853515625 26.484375,20.0244140625 24.5654277801514,18.5852069854736 21.97265625,18.10546875z M22.177734375,15.556640625L25.9570293426514,16.2048358917236 28.798828125,18.1494140625 30.57861328125,21.251220703125 31.171875,25.37109375 30.531005859375,29.43603515625 28.6083984375,32.607421875 25.6091289520264,34.65087890625 21.73828125,35.33203125 17.969970703125,34.669189453125 15.0439453125,32.6806640625 13.165283203125,29.600830078125 12.5390625,25.6640625 13.19091796875,21.416015625 15.146484375,18.22265625 18.2080078125,16.2231464385986 22.177734375,15.556640625z M21.708984375,3.6328125L18.094482421875,3.99169921875 14.6923828125,5.068359375 11.605224609375,6.76025390625 8.935546875,8.96484375 6.734619140625,11.6345224380493 5.0537109375,14.7216796875 3.98803687095642,18.1237812042236 3.6328125,21.73828125 3.98803687095642,25.352783203125 5.0537109375,28.7548828125 6.734619140625,31.842041015625 8.935546875,34.51171875 11.605224609375,36.712646484375 14.6923828125,38.3935546875 18.094482421875,39.459228515625 21.708984375,39.814453125 25.3234844207764,39.45556640625 28.7255859375,38.37890625 31.81640625,36.68701171875 34.4970703125,34.482421875 36.712646484375,31.81640625 38.408203125,28.740234375 39.48486328125,25.34912109375 39.84375,21.73828125 39.1845703125,16.9482421875 37.3388671875,12.626953125 34.482421875,8.9501953125 30.8056640625,6.1083984375 26.4990234375,4.27734375 21.708984375,3.6328125z M21.708984375,0L24.6203594207764,0.19775390625 27.4365234375,0.791015625 32.6220703125,3.0029296875 37.0458984375,6.416015625 40.4736328125,10.8251953125 42.685546875,16.0107421875 43.27880859375,18.826904296875 43.4765625,21.73828125 43.27880859375,24.66796875 42.685546875,27.48046875 40.4736328125,32.6513671875 37.0458984375,37.060546875 32.6220703125,40.4736328125 27.4365234375,42.6708984375 24.6203594207764,43.253173828125 21.708984375,43.447265625 18.779296875,43.253173828125 15.966796875,42.6708984375 10.7958984375,40.4736328125 6.38671875,37.060546875 2.9736328125,32.6513671875 0.776367664337158,27.4658203125 0.194091856479645,24.649658203125 0,21.73828125 0.197753846645355,18.826904296875 0.791015148162842,16.0107421875 3.0029296875,10.8251953125 6.416015625,6.416015625 10.810546875,3.0029296875 15.9814453125,0.791015625 18.797607421875,0.19775390625 21.708984375,0z" />
    </g>
  </g>
</svg>