<?xml version="1.0" encoding="utf-8"?>
<!DOCTYPE svg PUBLIC "-//W3C//DTD SVG 1.1//EN" "http://www.w3.org/Graphics/SVG/1.1/DTD/svg11.dtd">
<svg width="43.4765625" height="43.447265625" xmlns="http://www.w3.org/2000/svg" xmlns:xlink="http://www.w3.org/1999/xlink" xmlns:xml="http://www.w3.org/XML/1998/namespace" version="1.1">
  <g>
    <g>
      <path style="fill:#FF0000;fill-opacity:1" d="M27.919921875,8.96484375L25.3637676239014,9.3310546875 23.14453125,10.4296875 23.14453125,13.2421875 25.1879863739014,11.8798847198486 27.333984375,11.42578125 29.073486328125,11.7077655792236 30.3076171875,12.5537109375 31.043701171875,13.9343280792236 31.2890625,15.8203125 30.966796875,17.9040546417236 30,19.4677734375 28.38134765625,20.445556640625 26.103515625,20.771484375 24.43359375,20.771484375 24.43359375,23.203125 26.19140625,23.203125 28.7420654296875,23.5125732421875 30.56396484375,24.44091796875 31.6571044921875,25.9881591796875 32.021484375,28.154296875 31.695556640625,30.179443359375 30.7177734375,31.7431640625 29.190673828125,32.742919921875 27.216796875,33.076171875 24.6386699676514,32.5634765625 22.353515625,31.025390625 22.353515625,34.130859375 24.4335918426514,35.16357421875 27.099609375,35.5078125 30.17578125,34.951171875 32.607421875,33.3837890625 34.2041015625,30.9814453125 34.775390625,27.890625 34.39453125,25.6787109375 33.33984375,23.8330078125 31.6845703125,22.5146484375 29.53125,21.85546875 29.53125,21.796875 31.41357421875,20.8154296875 32.841796875,19.3359375 33.74267578125,17.4169940948486 34.04296875,15.1171875 33.57421875,12.6708984375 32.2998046875,10.72265625 30.3662109375,9.43359375 27.919921875,8.96484375z M14.853515625,8.96484375L11.9970703125,11.337890625 8.7890625,12.94921875 8.7890625,15.673828125 9.8876953125,15.29296875 11.1474609375,14.6630859375 12.3779296875,13.828125 13.41796875,12.83203125 13.41796875,34.921875 16.201171875,34.921875 16.201171875,8.96484375 14.853515625,8.96484375z M21.708984375,0L24.6203594207764,0.19775390625 27.4365234375,0.791015625 32.6220703125,3.0029296875 37.0458984375,6.416015625 40.4736328125,10.8251953125 42.685546875,16.0107421875 43.27880859375,18.826904296875 43.4765625,21.73828125 43.27880859375,24.66796875 42.685546875,27.48046875 40.4736328125,32.6513671875 37.0458984375,37.060546875 32.6220703125,40.4736328125 27.4365234375,42.6708984375 24.6203594207764,43.253173828125 21.708984375,43.447265625 18.779296875,43.253173828125 15.966796875,42.6708984375 10.7958984375,40.4736328125 6.38671875,37.060546875 2.9736328125,32.6513671875 0.776367664337158,27.4658203125 0.194091856479645,24.649658203125 0,21.73828125 0.197753846645355,18.826904296875 0.791015148162842,16.0107421875 3.0029296875,10.8251953125 6.416015625,6.416015625 10.810546875,3.0029296875 15.9814453125,0.791015625 18.797607421875,0.19775390625 21.708984375,0z" />
    </g>
  </g>
</svg>