<?xml version="1.0" encoding="utf-8"?>
<!DOCTYPE svg PUBLIC "-//W3C//DTD SVG 1.1//EN" "http://www.w3.org/Graphics/SVG/1.1/DTD/svg11.dtd">
<svg width="29.1796875" height="55.4296875" xmlns="http://www.w3.org/2000/svg" xmlns:xlink="http://www.w3.org/1999/xlink" xmlns:xml="http://www.w3.org/XML/1998/namespace" version="1.1">
  <g>
    <g>
      <path style="fill:#FF0000;fill-opacity:1" d="M7.734375,45.234375L9.5068359375,45.8935546875 10.1953125,47.607421875 10.0048828125,48.5888671875 9.4775390625,49.3798828125 8.701171875,49.921875 7.734375,50.126953125 6.7822265625,49.9365234375 6.0205078125,49.4091796875 5.4931640625,48.6328125 5.302734375,47.666015625 5.9912109375,45.9228515625 7.734375,45.234375z M21.4453125,31.46484375L23.1884765625,32.138671875 23.876953125,33.8671875 23.6865234375,34.8486328125 23.1591796875,35.6396484375 22.3974609375,36.181640625 21.4453125,36.38671875 20.478515625,36.1962890625 19.7021484375,35.6689453125 19.1748046875,34.892578125 18.984375,33.92578125 19.6728515625,32.16796875 21.4453125,31.46484375z M6.5625,26.8359375L22.6171875,26.8359375 22.6171875,28.623046875 6.5625,28.623046875 6.5625,26.8359375z M1.845703125,1.84570264816284L1.845703125,53.583984375 27.333984375,53.583984375 27.333984375,1.84570264816284 1.845703125,1.84570264816284z M0,0L29.1796875,0 29.1796875,55.4296875 0,55.4296875 0,0z" />
    </g>
  </g>
</svg>