<?xml version="1.0" encoding="UTF-8" standalone="no"?>
<!-- Created with Inkscape (http://www.inkscape.org/) -->

<svg
   xmlns:dc="http://purl.org/dc/elements/1.1/"
   xmlns:cc="http://creativecommons.org/ns#"
   xmlns:rdf="http://www.w3.org/1999/02/22-rdf-syntax-ns#"
   xmlns:svg="http://www.w3.org/2000/svg"
   xmlns="http://www.w3.org/2000/svg"
   xmlns:sodipodi="http://sodipodi.sourceforge.net/DTD/sodipodi-0.dtd"
   xmlns:inkscape="http://www.inkscape.org/namespaces/inkscape"
   version="1.1"
   id="svg2"
   width="20"
   height="30"
   viewBox="0 0 20 30"
   sodipodi:docname="Equip.svg"
   inkscape:version="0.92.4 (5da689c313, 2019-01-14)">
  <metadata
     id="metadata8">
    <rdf:RDF>
      <cc:Work
         rdf:about="">
        <dc:format>image/svg+xml</dc:format>
        <dc:type
           rdf:resource="http://purl.org/dc/dcmitype/StillImage" />
        <dc:title></dc:title>
      </cc:Work>
    </rdf:RDF>
  </metadata>
  <defs
     id="defs6" />
  <sodipodi:namedview
     pagecolor="#ffffff"
     bordercolor="#666666"
     borderopacity="1"
     objecttolerance="10"
     gridtolerance="10"
     guidetolerance="10"
     inkscape:pageopacity="0"
     inkscape:pageshadow="2"
     inkscape:window-width="1920"
     inkscape:window-height="1001"
     id="namedview4"
     showgrid="false"
     inkscape:zoom="13.111111"
     inkscape:cx="-4.604953"
     inkscape:cy="10.525001"
     inkscape:window-x="-9"
     inkscape:window-y="-9"
     inkscape:window-maximized="1"
     inkscape:current-layer="svg2" />
  <g
     id="g62"
     transform="matrix(1.1111111,0,0,1.1111111,0,5.0000002)">
    <path
       style="fill:#000000;fill-opacity:0"
       d="M 0,0.5 V 0 H 0.5 1 1.5 2 2.5 3 3.5 4 4.5 5 5.5 6 6.5 7 7.5 8 8.5 9 9.5 10 10.5 11 11.5 12 12.5 13 13.5 14 14.5 15 15.5 16 16.5 17 17.5 18 V 0.5 1 1.5 2 2.5 3 3.5 4 4.5 5 5.5 6 6.5 7 7.5 8 8.5 9 9.5 10 10.5 11 11.5 12 12.5 13 13.5 14 14.5 15 15.5 16 16.5 17 17.5 18 H 17.5 17 16.5 16 15.5 15 14.5 14 13.5 13 12.5 12 11.5 11 10.5 10 9.5 9 8.5 8 7.5 7 6.5 6 5.5 5 4.5 4 3.5 3 2.5 2 1.5 1 0.5 0 V 17.5 17 16.5 16 15.5 15 14.5 14 13.5 13 12.5 12 11.5 11 10.5 10 9.5 9 8.5 8 7.5 7 6.5 6 5.5 5 4.5 4 3.5 3 2.5 2 1.5 1 0.5 M 11.5,16 q 0.5,0 0.875,-0.125 0.375,-0.125 0.375,-0.375 0,-0.25 -0.25,-0.5 -0.25,-0.25 -0.25,-0.5 0,-0.25 0.25,-0.5 0.25,-0.25 0.25,-0.5 0,-0.25 -0.375,-0.375 L 12,13 V 12.5 12 l 0.375,-0.125 Q 12.75,11.75 12.75,11.5 12.75,11.25 12.5,11 12.25,10.75 12.109375,10.359375 L 11.96875,9.96875 11.859375,9.984375 11.75,10 11.96875,9.96875 Q 12.1875,9.9375 12.375,9.875 L 12.5625,9.8125 12.28125,9.90625 12,10 12.375,9.875 Q 12.75,9.75 12.875,9.375 13,9 13.375,8.875 13.75,8.75 13.875,8.375 14,8 13.875,7.625 13.75,7.25 13.375,7.125 L 13,7 13.125,6.625 Q 13.25,6.25 13.5,6 13.75,5.75 13.75,5.5 13.75,5.25 13.5,5 13.25,4.75 13,4.5 12.75,4.25 12.5,4 12.25,3.75 12,3.5 11.75,3.25 11.5,3 11.25,2.75 11,2.5 10.75,2.25 10.375,2.125 10,2 9.5,2 9,2 8.5,2 8,2 7.625,2.125 7.25,2.25 7,2.5 6.75,2.75 6.5,3 6.25,3.25 6,3.5 5.75,3.75 5.5,4 5.25,4.25 5,4.5 4.75,4.75 4.5,5 4.25,5.25 4.25,5.5 4.25,5.75 4.5,6 4.75,6.25 4.875,6.625 L 5,7 4.625,7.125 Q 4.25,7.25 4.125,7.625 4,8 4.125,8.375 4.25,8.75 4.625,8.875 5,9 5.125,9.375 5.25,9.75 5.625,9.875 L 6,10 5.71875,9.90625 5.4375,9.8125 5.625,9.875 Q 5.8125,9.9375 6.03125,9.96875 L 6.25,10 6.140625,9.984375 6.03125,9.96875 5.890625,10.359375 Q 5.75,10.75 5.5,11 q -0.25,0.25 -0.25,0.5 0,0.25 0.375,0.375 L 6,12 V 12.5 13 L 5.625,13.125 Q 5.25,13.25 5.25,13.5 q 0,0.25 0.25,0.5 0.25,0.25 0.25,0.5 0,0.25 -0.25,0.5 -0.25,0.25 -0.25,0.5 0,0.25 0.375,0.375 Q 6,16 6.5,16 q 0.5,0 1,0 0.5,0 1,0 0.5,0 1,0 0.5,0 1,0 0.5,0 1,0"
       id="path12"
       inkscape:connector-curvature="0" />
    <path
       style="fill:#d3d3d3;fill-opacity:1"
       d="M 7,2.5 Q 7.25,2.25 7.625,2.125 8,2 8.5,2 9,2 9.5,2 10,2 10.375,2.125 10.75,2.25 11,2.5 q 0.25,0.25 0.5,0.5 0.25,0.25 0.5,0.5 0.25,0.25 0.5,0.5 0.25,0.25 0.5,0.5 0.25,0.25 0.5,0.5 0.25,0.25 0.25,0.5 0,0.25 -0.25,0.5 L 13.25,6.25 13.4375,6.0625 13.625,5.875 13.5,6 Q 13.375,6.125 13.28125,6.28125 L 13.1875,6.4375 13.234375,6.359375 13.28125,6.28125 13.015625,6.015625 Q 12.75,5.75 12.75,5.5 12.75,5.25 12.375,5.125 12,5 11.875,4.625 11.75,4.25 11.5,4.25 H 11.25 11.4375 11.625 11.5 q -0.125,0 -0.25,0.0625 L 11.125,4.375 11.1875,4.34375 11.25,4.3125 10.953125,4.015625 10.65625,3.71875 10.609375,3.765625 10.5625,3.8125 10.65625,3.71875 Q 10.75,3.625 10.75,3.5 V 3.375 3.5625 3.75 3.5 Q 10.75,3.25 10.375,3.125 10,3 9.5,3 9,3 8.5,3 8,3 7.625,3.125 7.25,3.25 7.25,3.5 V 3.75 3.5625 3.375 3.5 q 0,0.125 0.09375,0.21875 L 7.4375,3.8125 7.390625,3.765625 7.34375,3.71875 7.046875,4.015625 6.75,4.3125 6.8125,4.34375 6.875,4.375 6.75,4.3125 Q 6.625,4.25 6.5,4.25 H 6.375 6.5625 6.75 6.5 Q 6.25,4.25 6.125,4.625 6,5 5.625,5.125 5.25,5.25 5.25,5.5 5.25,5.75 4.984375,6.015625 L 4.71875,6.28125 4.765625,6.359375 4.8125,6.4375 4.71875,6.28125 Q 4.625,6.125 4.5,6 L 4.375,5.875 4.5625,6.0625 4.75,6.25 4.5,6 Q 4.25,5.75 4.25,5.5 4.25,5.25 4.5,5 4.75,4.75 5,4.5 5.25,4.25 5.5,4 5.75,3.75 6,3.5 6.25,3.25 6.5,3 6.75,2.75 7,2.5"
       id="path14"
       inkscape:connector-curvature="0" />
    <path
       style="fill:#000000;fill-opacity:0"
       d="M 7.25,3.5 Q 7.25,3.25 7.625,3.125 8,3 8.5,3 9,3 9.5,3 10,3 10.375,3.125 10.75,3.25 10.75,3.5 q 0,0.25 -0.375,0.375 L 10,4 H 9.5 Q 9,4 8.5,4 H 8 L 7.625,3.875 Q 7.25,3.75 7.25,3.5"
       id="path16"
       inkscape:connector-curvature="0" />
    <path
       style="fill:#c6c6c6;fill-opacity:1"
       d="M 6.125,4.625 Q 6.25,4.25 6.5,4.25 6.75,4.25 7,4.5 7.25,4.75 7.5,5 7.75,5.25 7.875,5.625 8,6 8,6.5 V 7 H 7.5 7 L 6.875,6.625 Q 6.75,6.25 6.5,6.25 6.25,6.25 6.125,6.625 L 6,7 H 5.5 5 L 4.875,6.625 4.75,6.25 4.84375,6.53125 4.9375,6.8125 4.875,6.625 Q 4.8125,6.4375 4.71875,6.28125 L 4.625,6.125 4.671875,6.203125 4.71875,6.28125 4.984375,6.015625 Q 5.25,5.75 5.25,5.5 5.25,5.25 5.625,5.125 6,5 6.125,4.625 M 5.625,7 H 6 6.125 6.25 6 Q 5.75,7 5.5,7 H 5.25 5.625 m 1.25,0 H 7 7.375 7.75 7.5 Q 7.25,7 7,7 H 6.75 6.875 m 0.75,0 H 8 8.125 8.25 8 Q 7.75,7 7.5,7 H 7.25 7.625"
       id="path18"
       inkscape:connector-curvature="0" />
    <path
       style="fill:#fff6ef;fill-opacity:1"
       d="M 7,4.5 6.75,4.25 6.9375,4.4375 7.125,4.625 7,4.5 Q 6.875,4.375 6.75,4.3125 L 6.625,4.25 6.6875,4.28125 6.75,4.3125 7.046875,4.015625 7.34375,3.71875 7.296875,3.671875 7.25,3.625 7.34375,3.71875 Q 7.4375,3.8125 7.625,3.875 L 7.8125,3.9375 7.53125,3.84375 7.25,3.75 7.625,3.875 8,4 8.125,4.375 8.25,4.75 8.15625,4.46875 8.0625,4.1875 8.125,4.375 Q 8.1875,4.5625 8.3125,4.6875 L 8.4375,4.8125 8.375,4.75 8.3125,4.6875 8.015625,4.984375 7.71875,5.28125 7.765625,5.359375 7.8125,5.4375 7.71875,5.28125 Q 7.625,5.125 7.5,5 L 7.375,4.875 7.5625,5.0625 7.75,5.25 7.5,5 Q 7.25,4.75 7,4.5"
       id="path20"
       inkscape:connector-curvature="0" />
    <path
       style="fill:#d3d3d3;fill-opacity:1"
       d="M 8.125,4.375 8,4 H 8.5 Q 9,4 9.5,4 H 10 L 9.875,4.375 Q 9.75,4.75 9.375,4.875 9,5 8.625,4.875 8.25,4.75 8.125,4.375"
       id="path22"
       inkscape:connector-curvature="0" />
    <path
       style="fill:#fff6ef;fill-opacity:1"
       d="M 9.875,4.375 10,4 10.375,3.875 10.75,3.75 10.46875,3.84375 10.1875,3.9375 10.375,3.875 Q 10.5625,3.8125 10.65625,3.71875 L 10.75,3.625 10.703125,3.671875 10.65625,3.71875 10.953125,4.015625 11.25,4.3125 11.3125,4.28125 11.375,4.25 11.25,4.3125 Q 11.125,4.375 11,4.5 L 10.875,4.625 11.0625,4.4375 11.25,4.25 11,4.5 Q 10.75,4.75 10.5,5 L 10.25,5.25 10.4375,5.0625 10.625,4.875 10.5,5 Q 10.375,5.125 10.28125,5.28125 L 10.1875,5.4375 10.234375,5.359375 10.28125,5.28125 9.984375,4.984375 9.6875,4.6875 9.625,4.75 9.5625,4.8125 9.6875,4.6875 Q 9.8125,4.5625 9.875,4.375 L 9.9375,4.1875 9.84375,4.46875 9.75,4.75 9.875,4.375"
       id="path24"
       inkscape:connector-curvature="0" />
    <path
       style="fill:#c6c6c6;fill-opacity:1"
       d="m 11,4.5 q 0.25,-0.25 0.5,-0.25 0.25,0 0.375,0.375 Q 12,5 12.375,5.125 12.75,5.25 12.75,5.5 q 0,0.25 0.265625,0.515625 L 13.28125,6.28125 13.328125,6.203125 13.375,6.125 13.28125,6.28125 Q 13.1875,6.4375 13.125,6.625 L 13.0625,6.8125 13.15625,6.53125 13.25,6.25 13.125,6.625 13,7 H 12.5 12 L 11.875,6.625 Q 11.75,6.25 11.5,6.25 q -0.25,0 -0.375,0.375 L 11,7 H 10.5 10 V 6.5 Q 10,6 10.125,5.625 10.25,5.25 10.5,5 10.75,4.75 11,4.5 M 9.875,7 H 10 10.375 10.75 10.5 Q 10.25,7 10,7 H 9.75 9.875 m 0.75,0 H 11 11.125 11.25 11 q -0.25,0 -0.5,0 h -0.25 0.375 m 1.25,0 H 12 12.375 12.75 12.5 Q 12.25,7 12,7 h -0.25 0.125"
       id="path26"
       inkscape:connector-curvature="0" />
    <path
       style="fill:#ffffff;fill-opacity:1"
       d="M 7.875,5.625 7.75,5.25 7.84375,5.53125 7.9375,5.8125 7.875,5.625 Q 7.8125,5.4375 7.71875,5.28125 L 7.625,5.125 7.671875,5.203125 7.71875,5.28125 8.015625,4.984375 8.3125,4.6875 8.25,4.625 8.1875,4.5625 8.3125,4.6875 Q 8.4375,4.8125 8.625,4.875 L 8.8125,4.9375 8.53125,4.84375 8.25,4.75 8.625,4.875 Q 9,5 9.375,4.875 L 9.75,4.75 9.46875,4.84375 9.1875,4.9375 9.375,4.875 Q 9.5625,4.8125 9.6875,4.6875 L 9.8125,4.5625 9.75,4.625 9.6875,4.6875 9.984375,4.984375 10.28125,5.28125 10.328125,5.203125 10.375,5.125 10.28125,5.28125 Q 10.1875,5.4375 10.125,5.625 L 10.0625,5.8125 10.15625,5.53125 10.25,5.25 10.125,5.625 10,6 10.09375,5.71875 10.1875,5.4375 10.125,5.625 Q 10.0625,5.8125 10.03125,6.03125 L 10,6.25 10.015625,6.140625 10.03125,6.03125 9.515625,6.015625 Q 9,6 8.484375,6.015625 L 7.96875,6.03125 7.984375,6.140625 8,6.25 7.96875,6.03125 Q 7.9375,5.8125 7.875,5.625 L 7.8125,5.4375 7.90625,5.71875 8,6 7.875,5.625"
       id="path28"
       inkscape:connector-curvature="0" />
    <path
       style="fill:#828282;fill-opacity:1"
       d="M 6.125,6.625 Q 6.25,6.25 6.5,6.25 q 0.25,0 0.375,0.375 L 7,7 H 6.5 6 L 6.125,6.625 M 5.875,7 H 6 6.375 6.75 6.5 Q 6.25,7 6,7 H 5.75 5.875 m 0.75,0 H 7 7.125 7.25 7 Q 6.75,7 6.5,7 H 6.25 6.625"
       id="path30"
       inkscape:connector-curvature="0" />
    <path
       style="fill:#828282;fill-opacity:1"
       d="M 8,6.5 V 6 6.375 6.75 6.5 Q 8,6.25 7.96875,6.03125 L 7.9375,5.8125 7.953125,5.921875 7.96875,6.03125 8.484375,6.015625 Q 9,6 9.515625,6.015625 L 10.03125,6.03125 10.046875,5.921875 10.0625,5.8125 10.03125,6.03125 Q 10,6.25 10,6.5 V 6.75 6.375 6 6.5 7 H 9.5 Q 9,7 8.5,7 H 8 V 6.5 M 7.875,7 H 8 8.375 8.75 8.5 Q 8.25,7 8,7 H 7.75 7.875 m 1.75,0 H 10 10.125 10.25 10 Q 9.75,7 9.5,7 H 9.25 9.625"
       id="path32"
       inkscape:connector-curvature="0" />
    <path
       style="fill:#828282;fill-opacity:1"
       d="M 11.125,6.625 Q 11.25,6.25 11.5,6.25 q 0.25,0 0.375,0.375 L 12,7 H 11.5 11 L 11.125,6.625 M 10.875,7 H 11 11.375 11.75 11.5 Q 11.25,7 11,7 h -0.25 0.125 m 0.75,0 H 12 12.125 12.25 12 q -0.25,0 -0.5,0 h -0.25 0.375"
       id="path34"
       inkscape:connector-curvature="0" />
    <path
       style="fill:#828282;fill-opacity:1"
       d="M 4.125,7.625 Q 4.25,7.25 4.625,7.125 L 5,7 4.875,7.375 Q 4.75,7.75 4.40625,7.875 L 4.0625,8 V 8.09375 8.1875 8 q 0,-0.1875 0.0625,-0.375 L 4.1875,7.4375 4.09375,7.71875 4,8 4.125,7.625"
       id="path36"
       inkscape:connector-curvature="0" />
    <path
       style="fill:#ffffff;fill-opacity:1"
       d="M 4.875,7.375 5,7 h 0.5 q 0.5,0 1,0 0.5,0 1,0 0.5,0 1,0 0.5,0 1,0 0.5,0 1,0 0.5,0 1,0 0.5,0 1,0 H 13 L 13.125,7.375 13.25,7.75 13.15625,7.46875 13.0625,7.1875 13.125,7.375 q 0.0625,0.1875 0.1875,0.3125 l 0.125,0.125 L 13.375,7.75 13.3125,7.6875 13.03125,7.96875 Q 12.75,8.25 12.5,8 12.25,7.75 12,8.03125 L 11.75,8.3125 11.8125,8.34375 11.875,8.375 11.75,8.3125 Q 11.625,8.25 11.5,8.25 H 11.375 11.5625 11.75 11.5 Q 11.25,8.25 11,8.5 10.75,8.75 10.375,8.875 10,9 9.5,9 9,9 8.5,9 8,9 7.625,8.875 7.25,8.75 7,8.5 6.75,8.25 6.5,8.25 H 6.25 6.4375 6.625 6.5 q -0.125,0 -0.25,0.0625 L 6.125,8.375 6.1875,8.34375 6.25,8.3125 6,8.03125 Q 5.75,7.75 5.5,8 5.25,8.25 4.96875,7.96875 L 4.6875,7.6875 4.625,7.75 4.5625,7.8125 4.6875,7.6875 Q 4.8125,7.5625 4.875,7.375 L 4.9375,7.1875 4.84375,7.46875 4.75,7.75 4.875,7.375"
       id="path38"
       inkscape:connector-curvature="0" />
    <path
       style="fill:#828282;fill-opacity:1"
       d="M 13.125,7.375 13,7 13.375,7.125 q 0.375,0.125 0.5,0.5 L 14,8 13.90625,7.71875 13.8125,7.4375 13.875,7.625 Q 13.9375,7.8125 13.9375,8 V 8.1875 8.09375 8 L 13.59375,7.875 Q 13.25,7.75 13.125,7.375"
       id="path40"
       inkscape:connector-curvature="0" />
    <path
       style="fill:#d3d3d3;fill-opacity:1"
       d="M 4.125,8.375 4,8 4.09375,8.28125 4.1875,8.5625 4.125,8.375 Q 4.0625,8.1875 4.0625,8 V 7.8125 7.90625 8 L 4.40625,7.875 4.75,7.75 4.46875,7.84375 4.1875,7.9375 4.375,7.875 Q 4.5625,7.8125 4.6875,7.6875 L 4.8125,7.5625 4.75,7.625 4.6875,7.6875 4.96875,7.96875 Q 5.25,8.25 5.5,8 5.75,7.75 6,8.03125 L 6.25,8.3125 6.3125,8.28125 6.375,8.25 6.25,8.3125 Q 6.125,8.375 6,8.5 L 5.875,8.625 6.0625,8.4375 6.25,8.25 6,8.5 Q 5.75,8.75 5.34375,8.90625 L 4.9375,9.0625 5,9.125 5.0625,9.1875 4.9375,9.0625 Q 4.8125,8.9375 4.625,8.875 L 4.4375,8.8125 4.71875,8.90625 5,9 4.625,8.875 Q 4.25,8.75 4.125,8.375"
       id="path42"
       inkscape:connector-curvature="0" />
    <path
       style="fill:#808080;fill-opacity:1"
       d="M 6,8.5 Q 6.25,8.25 6.5,8.25 6.75,8.25 7,8.5 7.25,8.75 7.625,8.875 8,9 8.5,9 9,9 9.5,9 10,9 10.375,8.875 10.75,8.75 11,8.5 q 0.25,-0.25 0.5,-0.25 0.25,0 0.5,0.25 0.25,0.25 0.65625,0.40625 L 13.0625,9.0625 13.125,9 13.1875,8.9375 13.0625,9.0625 Q 12.9375,9.1875 12.875,9.375 L 12.8125,9.5625 12.90625,9.28125 13,9 12.875,9.375 Q 12.75,9.75 12.375,9.875 12,10 11.5,10 11,10 10.5,10 10,10 9.5,10 9,10 8.5,10 8,10 7.5,10 7,10 6.5,10 6,10 5.625,9.875 5.25,9.75 5.125,9.375 L 5,9 5.09375,9.28125 5.1875,9.5625 5.125,9.375 Q 5.0625,9.1875 4.9375,9.0625 L 4.8125,8.9375 4.875,9 4.9375,9.0625 5.34375,8.90625 Q 5.75,8.75 6,8.5"
       id="path44"
       inkscape:connector-curvature="0" />
    <path
       style="fill:#d3d3d3;fill-opacity:1"
       d="M 12,8.5 11.75,8.25 11.9375,8.4375 12.125,8.625 12,8.5 Q 11.875,8.375 11.75,8.3125 L 11.625,8.25 11.6875,8.28125 11.75,8.3125 12,8.03125 Q 12.25,7.75 12.5,8 12.75,8.25 13.03125,7.96875 L 13.3125,7.6875 13.25,7.625 13.1875,7.5625 l 0.125,0.125 q 0.125,0.125 0.3125,0.1875 L 13.8125,7.9375 13.53125,7.84375 13.25,7.75 13.59375,7.875 13.9375,8 V 7.90625 7.8125 8 q 0,0.1875 -0.0625,0.375 L 13.8125,8.5625 13.90625,8.28125 14,8 13.875,8.375 q -0.125,0.375 -0.5,0.5 L 13,9 13.28125,8.90625 13.5625,8.8125 13.375,8.875 Q 13.1875,8.9375 13.0625,9.0625 L 12.9375,9.1875 13,9.125 13.0625,9.0625 12.65625,8.90625 Q 12.25,8.75 12,8.5"
       id="path46"
       inkscape:connector-curvature="0" />
    <path
       style="fill:#ffffff;fill-opacity:1"
       d="M 5.890625,10.359375 6.03125,9.96875 5.921875,9.953125 5.8125,9.9375 6.03125,9.96875 Q 6.25,10 6.5,10 H 6.75 6.375 6 6.5 7 l 0.125,0.375 q 0.125,0.375 0.5,0.5 Q 8,11 8.5,11 q 0.5,0 1,0 0.5,0 0.875,-0.125 0.375,-0.125 0.5,-0.5 L 11,10 H 11.5 12 11.625 11.25 11.5 q 0.25,0 0.46875,-0.03125 L 12.1875,9.9375 12.078125,9.953125 11.96875,9.96875 12.109375,10.359375 Q 12.25,10.75 12.5,11 q 0.25,0.25 0.25,0.5 0,0.25 -0.375,0.375 L 12,12 H 11.5 11 11.375 11.75 11.5 q -0.25,0 -0.375,0.125 L 11,12.25 11.0625,12.1875 11.125,12.125 10.5625,12.0625 Q 10,12 9.5,12 9,12 8.5,12 8,12 7.4375,12.0625 L 6.875,12.125 6.9375,12.1875 7,12.25 6.875,12.125 Q 6.75,12 6.5,12 H 6.25 6.625 7 6.5 6 L 5.625,11.875 Q 5.25,11.75 5.25,11.5 5.25,11.25 5.5,11 5.75,10.75 5.890625,10.359375 M 11.375,10 H 11 10.875 10.75 11 q 0.25,0 0.5,0 h 0.25 -0.375 m -4.25,0 H 7 6.625 6.25 6.5 Q 6.75,10 7,10 H 7.25 7.125"
       id="path48"
       inkscape:connector-curvature="0" />
    <path
       style="fill:#c6c6c6;fill-opacity:1"
       d="M 7.125,10.375 7,10 h 0.5 q 0.5,0 1,0 0.5,0 1,0 0.5,0 1,0 H 11 l -0.125,0.375 q -0.125,0.375 -0.5,0.5 Q 10,11 9.5,11 9,11 8.5,11 8,11 7.625,10.875 7.25,10.75 7.125,10.375 m 4,-0.375 H 11 10.625 10.25 10.5 q 0.25,0 0.5,0 h 0.25 -0.125 m -3.75,0 H 7 6.875 6.75 7 q 0.25,0 0.5,0 H 7.75 7.375"
       id="path50"
       inkscape:connector-curvature="0" />
    <path
       style="fill:#000000;fill-opacity:1"
       d="M 6,12.5 V 12 H 6.5 Q 7,12 7,12.5 7,13 6.5,13 H 6 v -0.5"
       id="path52"
       inkscape:connector-curvature="0" />
    <path
       style="fill:#c6c6c6;fill-opacity:1"
       d="M 7,12.5 V 12 12.375 12.75 12.5 Q 7,12.25 6.875,12.125 L 6.75,12 6.8125,12.0625 6.875,12.125 7.4375,12.0625 Q 8,12 8.5,12 q 0.5,0 1,0 0.5,0 1.0625,0.0625 L 11.125,12.125 11.1875,12.0625 11.25,12 11.125,12.125 Q 11,12.25 11,12.5 V 12.75 12.375 12 12.5 13 12.625 12.25 12.5 q 0,0.25 0.125,0.375 L 11.25,13 11.1875,12.9375 11.125,12.875 10.5625,12.9375 Q 10,13 9.5,13 9,13 8.5,13 8,13 7.4375,12.9375 L 6.875,12.875 6.8125,12.9375 6.75,13 6.875,12.875 Q 7,12.75 7,12.5 V 12.25 12.625 13 12.5"
       id="path54"
       inkscape:connector-curvature="0" />
    <path
       style="fill:#000000;fill-opacity:1"
       d="M 11,12.5 Q 11,12 11.5,12 H 12 V 12.5 13 H 11.5 Q 11,13 11,12.5"
       id="path56"
       inkscape:connector-curvature="0" />
    <path
       style="fill:#ffffff;fill-opacity:1"
       d="m 5.25,13.5 q 0,-0.25 0.375,-0.375 L 6,13 H 6.5 7 6.625 6.25 6.5 q 0.25,0 0.375,-0.125 L 7,12.75 6.9375,12.8125 6.875,12.875 7.4375,12.9375 Q 8,13 8.5,13 q 0.5,0 1,0 0.5,0 1.0625,-0.0625 L 11.125,12.875 11.0625,12.8125 11,12.75 11.125,12.875 Q 11.25,13 11.5,13 H 11.75 11.375 11 11.5 12 l 0.375,0.125 q 0.375,0.125 0.375,0.375 0,0.25 -0.25,0.5 -0.25,0.25 -0.25,0.5 0,0.25 0.25,0.5 0.25,0.25 0.25,0.5 0,0.25 -0.375,0.375 Q 12,16 11.5,16 11,16 10.5,16 10,16 9.5,16 9,16 8.5,16 8,16 7.5,16 7,16 6.5,16 6,16 5.625,15.875 5.25,15.75 5.25,15.5 5.25,15.25 5.5,15 5.75,14.75 5.75,14.5 5.75,14.25 5.5,14 5.25,13.75 5.25,13.5 M 9.5,15 Q 10,15 10.375,14.875 10.75,14.75 10.75,14.5 10.75,14.25 10.375,14.125 10,14 9.5,14 9,14 8.5,14 8,14 7.625,14.125 7.25,14.25 7.25,14.5 q 0,0.25 0.375,0.375 Q 8,15 8.5,15 q 0.5,0 1,0"
       id="path58"
       inkscape:connector-curvature="0" />
    <path
       style="fill:#c6c6c6;fill-opacity:1"
       d="m 7.25,14.5 q 0,-0.25 0.375,-0.375 Q 8,14 8.5,14 q 0.5,0 1,0 0.5,0 0.875,0.125 0.375,0.125 0.375,0.375 0,0.25 -0.375,0.375 Q 10,15 9.5,15 9,15 8.5,15 8,15 7.625,14.875 7.25,14.75 7.25,14.5"
       id="path60"
       inkscape:connector-curvature="0" />
  </g>
</svg>
