<?xml version="1.0" encoding="utf-8"?>
<!DOCTYPE svg PUBLIC "-//W3C//DTD SVG 1.1//EN" "http://www.w3.org/Graphics/SVG/1.1/DTD/svg11.dtd">
<svg width="61.0546875" height="67.3828125" xmlns="http://www.w3.org/2000/svg" xmlns:xlink="http://www.w3.org/1999/xlink" xmlns:xml="http://www.w3.org/XML/1998/namespace" version="1.1">
  <g>
    <g>
      <path style="fill:#FF0000;fill-opacity:1" d="M46.318359375,42.12890625L42.099609375,46.318359375 45.556640625,49.7900390625 48.22265625,53.818359375 49.9365234375,58.3154296875 50.537109375,63.1640625 56.865234375,63.1640625 56.1181640625,57.0849609375 53.9794921875,51.474609375 50.6396484375,46.4501953125 46.318359375,42.12890625z M40.634765625,31.58203125L41.6748046875,32.021484375 42.099609375,33.076171875 41.689453125,34.130859375 34.130859375,41.689453125 33.076171875,42.12890625 32.021484375,41.689453125 31.58203125,40.634765625 32.021484375,39.580078125 39.580078125,32.021484375 40.634765625,31.58203125z M36.416015625,27.36328125L37.470703125,27.802734375 37.91015625,28.857421875 37.470703125,29.912109375 29.912109375,37.470703125 28.857421875,37.91015625 27.802734375,37.470703125 27.36328125,36.416015625 27.802734375,35.361328125 35.361328125,27.802734375 36.416015625,27.36328125z M32.8125,14.736328125L31.669921875,14.9560546875 30.703125,15.615234375 23.173828125,23.173828125 15.615234375,30.703125 14.9560546875,31.67724609375 14.736328125,32.841796875 14.970703125,33.984375 15.615234375,34.921875 16.5673828125,35.56640625 17.724609375,35.80078125 18.9990234375,35.5224609375 20.009765625,34.74609375 32.197265625,46.93359375 33.779296875,47.607421875 34.833984375,47.2265625 35.771484375,46.40625 36.8408203125,45.3515625 37.880859375,44.267578125 38.759765625,43.359375 46.318359375,35.80078125 47.1826171875,34.8779296875 47.548828125,33.69140625 46.93359375,32.197265625 34.74609375,20.009765625 35.5078125,18.9990234375 35.80078125,17.783203125 35.56640625,16.611328125 34.9365234375,15.6298828125 33.9990234375,14.970703125 32.8125,14.736328125z M8.408203125,14.736328125L6.32812404632568,16.845703125 16.40625,26.953125 18.515625,24.84375 8.408203125,14.736328125z M16.845703125,6.328125L14.736328125,8.4375 24.84375,18.515625 26.923828125,16.40625 16.845703125,6.328125z M16.845703125,0L28.681640625,11.8359375 30.64453125,10.869140625 32.8125,10.517578125 35.6103515625,11.0888671875 37.880859375,12.626953125 39.4189453125,14.8974599838257 39.990234375,17.6953125 39.9462890625,18.4423828125 39.84375,19.16015625 49.921875,29.23828125 51.3061485290527,31.2744140625 51.767578125,33.69140625 51.4453125,35.6689453125 50.537109375,37.44140625 50.537109375,40.1953125 54.8876953125,45.05859375 58.212890625,50.5810546875 60.322265625,56.66015625 61.0546875,63.1640625 61.0546875,67.3828125 46.318359375,67.3828125 46.318359375,63.1640625 45.9265098571777,59.578857421875 44.7509765625,56.2646484375 42.9089317321777,53.243408203125 40.517578125,50.537109375 37.44140625,50.537109375 35.6689453125,51.4453125 33.69140625,51.767578125 31.259765625,51.298828125 29.208984375,49.921875 19.16015625,39.873046875 18.4423828125,39.9755859375 17.724609375,40.01953125 14.9267578125,39.4482421875 12.6416015625,37.91015625 11.103515625,35.625 10.546875,32.8125 10.869140625,30.6591796875 11.8359375,28.7109375 0,16.845703125 16.845703125,0z" />
    </g>
  </g>
</svg>