<?xml version="1.0" encoding="utf-8"?>
<!DOCTYPE svg PUBLIC "-//W3C//DTD SVG 1.1//EN" "http://www.w3.org/Graphics/SVG/1.1/DTD/svg11.dtd">
<svg width="56.8652343750005" height="67.3828125" xmlns="http://www.w3.org/2000/svg" xmlns:xlink="http://www.w3.org/1999/xlink" xmlns:xml="http://www.w3.org/XML/1998/namespace" version="1.1">
  <g>
    <g>
      <path style="fill:#FF0000;fill-opacity:1" d="M4.21875,48.427734375L4.21875,63.1640625 8.408203125,63.1640625 9.4921875,57.919921875 10.517578125,52.646484375 18.92578125,57.919921875 27.36328125,63.1640625 52.646484375,63.1640625 52.646484375,58.974609375 29.47265625,58.974609375 20.009765625,53.671875 10.517578125,48.427734375 4.21875,48.427734375z M8.408203125,4.21874952316284L8.408203125,33.75 6.1669921875,35.9326171875 4.9072265625,38.3203125 4.3505859375,41.0009765625 4.21875,44.0625 4.21875,46.318359375 11.07421875,46.318359375 20.5224609375,51.62109375 30.029296875,56.865234375 52.08984375,56.865234375 50.5224609375,55.341796875 48.427734375,54.755859375 46.318359375,54.755859375 42.9382286071777,54.422607421875 39.7705078125,53.4228515625 36.903076171875,51.851806640625 34.423828125,49.8046875 32.376708984375,47.325439453125 30.8056640625,44.4580078125 29.805908203125,41.290283203125 29.47265625,37.91015625 29.47265625,35.80078125 35.830078125,4.21874952316284 16.845703125,4.21874952316284 16.845703125,25.283203125 16.2158203125,26.748046875 14.736328125,27.36328125 13.2568359375,26.748046875 12.626953125,25.283203125 12.626953125,4.21874952316284 8.408203125,4.21874952316284z M4.21875,0L40.95703125,0 33.69140625,36.2109375 33.69140625,37.91015625 33.9404296875,40.440673828125 34.6875,42.8173828125 37.3974609375,46.8310546875 41.4111328125,49.541015625 43.7878379821777,50.2880859375 46.318359375,50.537109375 48.427734375,50.537109375 51.7236328125,51.1962890625 54.404296875,52.998046875 56.2060546875,55.6787109375 56.865234375,58.974609375 56.865234375,67.3828125 26.162109375,67.3828125 13.447265625,59.443359375 11.865234375,67.3828125 0,67.3828125 0,42.12890625 0.274657845497131,39.276123046875 1.0986328125,36.5771484375 2.427978515625,34.083251953125 4.21875,31.845703125 4.21875,0z" />
    </g>
  </g>
</svg>