<?xml version="1.0" encoding="utf-8"?>
<!DOCTYPE svg PUBLIC "-//W3C//DTD SVG 1.1//EN" "http://www.w3.org/Graphics/SVG/1.1/DTD/svg11.dtd">
<svg width="30.3515625" height="37.44140625" xmlns="http://www.w3.org/2000/svg" xmlns:xlink="http://www.w3.org/1999/xlink" xmlns:xml="http://www.w3.org/XML/1998/namespace" version="1.1">
  <g>
    <g>
      <path style="fill:#FF0000;fill-opacity:1" d="M6.064453125,8.525390625L4.500732421875,8.63891792297363 3.3837890625,8.9794921875 2.71362257003784,9.54712104797363 2.490234375,10.341796875 2.87109375,11.337890625 4.27734375,10.8764667510986 6.2109375,10.72265625 7.763671875,10.72265625 12.12890625,12.685546875 13.4619140625,12.0556640625 14.58984375,10.927734375 9.169921875,8.525390625 6.064453125,8.525390625z M8.02734375,5.009765625L6.5277099609375,5.11779880523682 5.45654296875,5.44189596176147 4.8138427734375,5.98205661773682 4.599609375,6.73828125 4.6875,7.119140625 9.43359375,7.08984375 13.916015625,9.08203125 15.5859375,7.79296875 15.8203125,7.5 10.224609375,5.009765625 8.02734375,5.009765625z M10.6640625,1.376953125L8.53271389007568,1.86767578125 7.822265625,3.33984375 7.822265625,3.515625 10.517578125,3.515625 14.70703125,5.390625 16.11328125,3.955078125 16.435546875,3.544921875 11.630859375,1.376953125 10.6640625,1.376953125z M16.435546875,1.171875L14.94140625,1.34765625 18.544921875,2.958984375 17.490234375,4.72412252426147 16.142578125,6.03515625 17.958984375,6.884765625 16.76513671875,8.63525581359863 15.46875,9.78515625 16.611328125,10.283203125 15.40283203125,12.2021484375 13.76953125,13.447265625 14.765625,13.916015625 13.7750244140625,15.582275390625 12.53173828125,16.7724609375 11.0357666015625,17.486572265625 9.287109375,17.724609375 7.734375,17.51953125 5.859375,16.875 3.486328125,16.845703125 4.86328125,15.380859375 6.240234375,15.439453125 8.173828125,16.142578125 9.521484375,16.376953125 11.337890625,15.9228515625 12.744140625,14.560546875 7.44140625,12.158203125 5.654296875,12.1875 4.031982421875,12.4804706573486 2.6806640625,13.359375 1.76879847049713,14.6630859375 1.46484375,16.23046875 2.05078077316284,17.867431640625 3.80859375,19.0283203125 6.73095703125,19.720458984375 10.810546875,19.951171875 11.865234375,19.951171875 11.8359375,20.771484375 11.2646484375,24.31640625 9.55078125,28.037109375 9.169921875,28.681640625 8.42285060882568,30.29296875 8.173828125,31.787109375 8.90624904632568,34.1015625 11.103515625,35.537109375 12.275390625,30.1171875 18.1640625,23.84765625 19.4750957489014,22.18505859375 20.419921875,20.947265625 22.0605449676514,18.85986328125 23.232421875,17.87109375 24.8583965301514,17.54150390625 27.861328125,17.431640625 28.6083984375,14.62646484375 28.857421875,11.77734375 28.63037109375,9.28711128234863 27.94921875,6.6796875 23.90625,6.6796875 21.1083965301514,3.69873118400574 17.578125,1.201171875 16.435546875,1.171875z M10.6640625,0L11.923828125,0 12.978515625,0.52734375 16.376953125,0 18.017578125,0.087890625 21.4086894989014,2.16064453125 24.55078125,5.15625 28.916015625,5.15625 29.99267578125,8.63525581359863 30.3515625,12.099609375 29.9560546875,15.6005859375 28.76953125,19.013671875 25.341796875,19.013671875 23.5986328125,19.4091796875 22.8625469207764,20.152587890625 21.73828125,21.591796875 20.91796875,22.67578125 19.7460918426514,24.22119140625 18.984375,25.166015625 13.564453125,30.9375 12.099609375,37.44140625 11.25,37.236328125 9.2376708984375,36.4892578125 7.80029296875,35.33203125 6.9378662109375,33.7646484375 6.650390625,31.787109375 7.03125,29.87548828125 8.173828125,27.3046875 8.642578125,26.484375 9.67529201507568,23.9794921875 10.25390625,21.38671875 9.521484375,21.38671875 5.6396484375,21.0205078125 2.607421875,19.921875 0.65185546875,18.22265625 0,16.0546875 0.395507752895355,14.06982421875 1.58203077316284,12.275390625 0.9375,10.341796875 1.5380859375,8.49609375 3.310546875,7.44140625 3.251953125,6.62109375 3.44970703125,5.39978122711182 4.04296875,4.48974704742432 5.03173828125,3.89099144935608 6.416015625,3.603515625 6.357421875,3.076171875 6.6265869140625,1.7303466796875 7.43408203125,0.76904296875 8.7799072265625,0.1922607421875 10.6640625,0z" />
    </g>
  </g>
</svg>