<?xml version="1.0" encoding="utf-8"?>
<!DOCTYPE svg PUBLIC "-//W3C//DTD SVG 1.1//EN" "http://www.w3.org/Graphics/SVG/1.1/DTD/svg11.dtd">
<svg width="67.382812500001" height="54.7265625" xmlns="http://www.w3.org/2000/svg" xmlns:xlink="http://www.w3.org/1999/xlink" xmlns:xml="http://www.w3.org/XML/1998/namespace" version="1.1">
  <g>
    <g>
      <path style="fill:#FF0000;fill-opacity:1" d="M40.01953125,4.18945217132568L37.891845703125,4.398193359375 35.9033203125,5.0244140625 32.5634765625,7.2802734375 30.3076171875,10.6201171875 29.681396484375,12.608642578125 29.47265625,14.736328125 33.69140625,14.736328125 33.3544921875,16.376953125 32.4462890625,17.7099609375 31.11328125,18.6181640625 29.47265625,18.955078125 6.328125,18.955078125 4.8486328125,19.5703125 4.21875,21.03515625 4.833984375,22.529296875 6.328125,23.14453125 36.85546875,23.14453125 37.6025390625,23.4521484375 37.91015625,24.19921875 37.6025390625,24.9462890625 36.85546875,25.25390625 10.517578125,25.25390625 9.052734375,25.8837890625 8.4375,27.36328125 9.052734375,28.8427734375 10.517578125,29.47265625 36.85546875,29.47265625 37.6025390625,29.7802734375 37.91015625,30.52734375 37.6025390625,31.2744140625 36.85546875,31.58203125 6.328125,31.58203125 4.833984375,32.197265625 4.21875,33.69140625 4.8486328125,35.1708984375 6.328125,35.80078125 29.47265625,35.80078125 31.11328125,36.123046875 32.4462890625,37.0166015625 33.3544921875,38.349609375 33.69140625,39.990234375 29.47265625,39.990234375 29.681396484375,42.117919921875 30.3076171875,44.1064453125 32.5634765625,47.4462890625 35.9033203125,49.7021484375 37.891845703125,50.328369140625 40.01953125,50.537109375 42.4401817321777,50.2587890625 44.7216796875,49.423828125 46.7541465759277,48.0908203125 48.427734375,46.318359375 50.5334434509277,46.11328125 52.5146484375,45.498046875 55.869140625,43.2421875 58.1396484375,39.8876953125 58.765869140625,37.906494140625 58.974609375,35.80078125 60.743408203125,34.12353515625 62.0654296875,32.080078125 62.889404296875,29.78759765625 63.1640625,27.36328125 62.889404296875,24.942626953125 62.0654296875,22.6611328125 60.743408203125,20.6286640167236 58.974609375,18.955078125 58.765869140625,16.827392578125 58.1396484375,14.8388671875 55.8837890625,11.4990234375 52.5439453125,9.2431640625 50.5554161071777,8.616943359375 48.427734375,8.408203125 46.7541465759277,6.6357421875 44.7216796875,5.30273342132568 42.4401817321777,4.4677734375 40.01953125,4.18945217132568z M40.01953125,0L42.9272422790527,0.278322994709015 45.673828125,1.11328125 48.2006797790527,2.47558569908142 50.44921875,4.3359375 52.8112754821777,4.852294921875 55.0341796875,5.7568359375 58.857421875,8.525390625 61.6259765625,12.3486328125 62.530517578125,14.571533203125 63.046875,16.93359375 64.9072265625,19.1821308135986 66.26953125,21.708984375 67.1044921875,24.4555683135986 67.3828125,27.36328125 67.100830078125,30.32958984375 66.2548828125,33.017578125 64.888916015625,35.4931640625 63.046875,37.822265625 61.5966796875,42.4072265625 58.8427734375,46.2158203125 55.048828125,48.9697265625 52.8295860290527,49.874267578125 50.44921875,50.390625 48.2006797790527,52.2509765625 45.673828125,53.61328125 42.9272422790527,54.4482421875 40.01953125,54.7265625 37.060546875,54.437255859375 34.27734375,53.5693359375 31.754150390625,52.203369140625 29.5751953125,50.419921875 27.78076171875,48.251953125 26.4111328125,45.732421875 25.543212890625,42.94921875 25.25390625,39.990234375 6.328125,39.990234375 3.8671875,39.4921875 1.8603515625,38.14453125 0.498046875,36.15234375 0,33.69140625 0.285644173622131,31.680908203125 1.142578125,30.0439453125 2.48291015625,28.736572265625 4.21875,27.71484375 4.21875,27.01171875 2.48291015625,26.00830078125 1.142578125,24.697265625 0.285644173622131,23.0493183135986 0,21.03515625 0.498046875,18.57421875 1.8603515625,16.58203125 3.8671875,15.234375 6.328125,14.736328125 25.283203125,14.736328125 25.572509765625,11.759033203125 26.4404296875,8.9794921875 27.806396484375,6.470947265625 29.58984375,4.30663967132568 31.754150390625,2.52319288253784 34.2626953125,1.15722584724426 37.042236328125,0.289309233427048 40.01953125,0z" />
    </g>
  </g>
</svg>