<?xml version="1.0" encoding="utf-8"?>
<!DOCTYPE svg PUBLIC "-//W3C//DTD SVG 1.1//EN" "http://www.w3.org/Graphics/SVG/1.1/DTD/svg11.dtd">
<svg width="57.83203125" height="43.359375" xmlns="http://www.w3.org/2000/svg" xmlns:xlink="http://www.w3.org/1999/xlink" xmlns:xml="http://www.w3.org/XML/1998/namespace" version="1.1">
  <g>
    <g>
      <path style="fill:#FF0000;fill-opacity:1" d="M8.671875,34.6875L8.671875,41.923828125 49.16015625,41.923828125 49.16015625,34.6875 8.671875,34.6875z M40.48828125,15.17578125L39.100341796875,15.4431171417236 37.9248046875,16.2451171875 37.122802734375,17.4206562042236 36.85546875,18.80859375 37.119140625,20.19287109375 37.91015625,21.357421875 39.07470703125,22.1484375 40.458984375,22.412109375 41.846923828125,22.144775390625 43.0224609375,21.3427734375 43.8244590759277,20.174560546875 44.091796875,18.80859375 43.8244590759277,17.4206562042236 43.0224609375,16.2451171875 41.854248046875,15.4431171417236 40.48828125,15.17578125z M17.34375,15.17578125L15.95947265625,15.4394550323486 14.794921875,16.23046875 14.00390625,17.3950214385986 13.740234375,18.779296875 14.00390625,20.167236328125 14.794921875,21.3427734375 15.95947265625,22.144775390625 17.34375,22.412109375 18.72802734375,22.144775390625 19.892578125,21.3427734375 20.6835918426514,20.167236328125 20.947265625,18.779296875 20.6835918426514,17.3950214385986 19.892578125,16.23046875 18.72802734375,15.4394550323486 17.34375,15.17578125z M40.48828125,11.572265625L43.2568321228027,12.0996112823486 45.5859375,13.681640625 47.1679649353027,16.0107440948486 47.6953125,18.779296875 47.1679649353027,21.551513671875 45.5859375,23.8916015625 43.2568321228027,25.484619140625 40.48828125,26.015625 37.69775390625,25.48828125 35.361328125,23.90625 33.779296875,21.56982421875 33.251953125,18.779296875 33.779296875,16.0107440948486 35.361328125,13.681640625 37.69775390625,12.0996112823486 40.48828125,11.572265625z M17.34375,8.671875L21.2292461395264,9.41162109375 24.5068359375,11.630859375 26.737060546875,14.9047870635986 27.48046875,18.80859375 26.737060546875,22.672119140625 24.5068359375,25.9423828125 21.2292461395264,28.172607421875 17.34375,28.916015625 13.4619140625,28.17626953125 10.1953125,25.95703125 7.97607326507568,22.68310546875 7.236328125,18.779296875 7.97607326507568,14.8974628448486 10.1953125,11.630859375 13.4619140625,9.41162109375 17.34375,8.671875z M1.435546875,1.435546875L1.435546875,41.923828125 7.236328125,41.923828125 7.236328125,33.251953125 50.595703125,33.251953125 50.595703125,41.923828125 56.396484375,41.923828125 56.396484375,1.435546875 50.595703125,1.435546875 47.6953125,7.20703125 33.779296875,7.20703125 30.908203125,1.435546875 1.435546875,1.435546875z M0,0L31.81640625,0 34.6875,5.771484375 46.259765625,5.771484375 49.16015625,0 57.83203125,0 57.83203125,43.359375 0,43.359375 0,0z" />
    </g>
  </g>
</svg>