<?xml version="1.0" encoding="utf-8"?>
<!DOCTYPE svg PUBLIC "-//W3C//DTD SVG 1.1//EN" "http://www.w3.org/Graphics/SVG/1.1/DTD/svg11.dtd">
<svg width="43.359375" height="43.359375" xmlns="http://www.w3.org/2000/svg" xmlns:xlink="http://www.w3.org/1999/xlink" xmlns:xml="http://www.w3.org/XML/1998/namespace" version="1.1">
  <g>
    <g>
      <path style="fill:#FF0000;fill-opacity:1" d="M16.318359375,7.412109375L17.65869140625,11.8945322036743 20.33203125,16.259765625 21.2109375,17.373046875 21.9140625,16.46484375 24.3035888671875,13.7347421646118 26.57958984375,11.7846689224243 28.7420654296875,10.6146240234375 30.791015625,10.224609375 32.2503662109375,10.5194091796875 33.52294921875,11.4038095474243 34.6087646484375,12.8778085708618 35.5078125,14.94140625 34.8046875,14.8828125 33.134765625,15.3552265167236 30.87890625,16.7724609375 28.52783203125,18.7829608917236 26.572265625,21.03515625 25.6640625,22.236328125 26.54296875,23.056640625 28.9251708984375,25.05615234375 31.35498046875,26.484375 33.8323974609375,27.34130859375 36.357421875,27.626953125 34.9786376953125,30.062255859375 33.56689453125,31.8017578125 32.1221923828125,32.845458984375 30.64453125,33.193359375 29.146728515625,32.896728515625 27.3486328125,32.0068359375 25.250244140625,30.523681640625 22.8515625,28.447265625 21.50390625,27.216796875 21.064453125,27.83203125 18.8818359375,30.85693359375 16.904296875,33.017578125 15.1318359375,34.31396484375 13.564453125,34.74609375 11.88720703125,34.4036865234375 10.224609375,33.37646484375 8.57666015625,31.6644287109375 6.943359375,29.267578125 7.587890625,29.296875 9.561767578125,28.9306640625 11.6455078125,27.83203125 13.839111328125,26.0009765625 16.142578125,23.4375 16.93359375,22.44140625 15.908203125,21.328125 14.01123046875,19.1290302276611 12.65625,17.1020526885986 11.84326171875,15.2471933364868 11.572265625,13.564453125 11.868896484375,12.2021493911743 12.7587890625,10.7226572036743 14.241943359375,9.1259765625 16.318359375,7.412109375z M4.3359375,4.3359375L4.3359375,39.0234375 39.0234375,39.0234375 39.0234375,4.3359375 4.3359375,4.3359375z M0,0L43.359375,0 43.359375,43.359375 0,43.359375 0,0z" />
    </g>
  </g>
</svg>