<?xml version="1.0" encoding="utf-8"?>
<!DOCTYPE svg PUBLIC "-//W3C//DTD SVG 1.1//EN" "http://www.w3.org/Graphics/SVG/1.1/DTD/svg11.dtd">
<svg width="67.3828125000008" height="52.646484375" xmlns="http://www.w3.org/2000/svg" xmlns:xlink="http://www.w3.org/1999/xlink" xmlns:xml="http://www.w3.org/XML/1998/namespace" version="1.1">
  <g>
    <g>
      <path style="fill:#FF0000;fill-opacity:1" d="M4.21875,31.58203125L4.21875,44.23828125 4.541015625,45.87890625 5.4345703125,47.2119140625 6.767578125,48.10546875 8.408203125,48.427734375 58.9453125,48.427734375 60.5859375,48.10546875 61.9189453125,47.2119140625 62.8271484375,45.87890625 63.1640625,44.23828125 63.1640625,31.58203125 42.099609375,31.58203125 41.4404296875,34.8779296875 39.638671875,37.55859375 36.97265625,39.3603515625 33.69140625,40.01953125 30.3955078125,39.3603515625 27.71484375,37.55859375 25.9130859375,34.8779296875 25.25390625,31.58203125 4.21875,31.58203125z M31.58203125,4.21875L31.58203125,21.064453125 25.25390625,21.064453125 33.69140625,29.47265625 42.099609375,21.064453125 35.80078125,21.064453125 35.80078125,4.21875 31.58203125,4.21875z M27.36328125,0L40.01953125,0 40.01953125,16.845703125 46.318359375,16.845703125 46.318359375,21.064453125 51.533203125,21.064453125 67.3828125,28.974609375 67.3828125,44.23828125 66.708984375,47.490234375 64.8779296875,50.15625 62.1826171875,51.97265625 58.9453125,52.646484375 8.408203125,52.646484375 5.1416015625,51.9873046875 2.4609375,50.185546875 0.6591796875,47.5048828125 0,44.23828125 0,28.974609375 15.849609375,21.064453125 21.064453125,21.064453125 21.064453125,16.845703125 27.36328125,16.845703125 27.36328125,0z" />
    </g>
  </g>
</svg>