<?xml version="1.0" encoding="utf-8"?>
<!DOCTYPE svg PUBLIC "-//W3C//DTD SVG 1.1//EN" "http://www.w3.org/Graphics/SVG/1.1/DTD/svg11.dtd">
<svg width="67.3828125000016" height="63.1640625" xmlns="http://www.w3.org/2000/svg" xmlns:xlink="http://www.w3.org/1999/xlink" xmlns:xml="http://www.w3.org/XML/1998/namespace" version="1.1">
  <g>
    <g>
      <path style="fill:#FF0000;fill-opacity:1" d="M56.865234375,35.80078125L58.505859375,36.1376953125 59.8388671875,37.0458984375 60.732421875,38.37890625 61.0546875,40.01953125 60.732421875,41.66015625 59.8388671875,42.9931640625 58.505859375,43.88671875 56.865234375,44.208984375 55.224609375,43.88671875 53.8916015625,42.9931640625 52.9833984375,41.66015625 52.646484375,40.01953125 52.96875,38.37890625 53.8623046875,37.0458984375 55.2099609375,36.1376953125 56.865234375,35.80078125z M56.865234375,23.173828125L58.505859375,23.49609375 59.8388671875,24.3896484375 60.732421875,25.72265625 61.0546875,27.36328125 60.732421875,29.00390625 59.8388671875,30.3369140625 58.505859375,31.2451171875 56.865234375,31.58203125 55.2099609375,31.259765625 53.8623046875,30.3662109375 52.96875,29.0185546875 52.646484375,27.36328125 52.9833984375,25.72265625 53.8916015625,24.3896484375 55.224609375,23.49609375 56.865234375,23.173828125z M10.517578125,21.064453125L48.544921875,21.064453125 49.9658203125,21.708984375 50.537109375,23.173828125 50.537109375,50.537109375 50.390625,51.2841796875 50.009765625,51.943359375 49.3359375,52.4560546875 48.544921875,52.646484375 10.517578125,52.646484375 9.0380859375,52.0166015625 8.408203125,50.537109375 8.408203125,23.173828125 9.0380859375,21.6943359375 10.517578125,21.064453125z M22.1484375,4.21875047683716L21.4013671875,4.541015625 21.064453125,5.302734375 21.357421875,6.005859375 30.087890625,14.736328125 29.0625,14.8388671875 28.1982421875,15.1757822036743 27.59765625,15.8203125 27.36328125,16.845703125 6.328125,16.845703125 4.833984375,17.4755859375 4.21875,18.984375 4.21875,54.7265625 4.6875,56.044921875 5.68359375,56.7626953125 6.85546875,56.923828125 7.6318359375,56.89453125 8.408203125,56.865234375 8.408203125,58.9453125 58.9453125,58.9453125 58.9453125,56.865234375 59.736328125,56.89453125 60.52734375,56.923828125 61.5087890625,56.7919921875 62.3583984375,56.3818359375 62.9443359375,55.693359375 63.1640625,54.7265625 63.1640625,18.984375 62.548828125,17.4755859375 61.0546875,16.845703125 40.01953125,16.845703125 39.78515625,15.8203125 39.1845703125,15.1757822036743 38.3203125,14.8388671875 37.294921875,14.736328125 46.025390625,6.005859375 46.34765625,5.302734375 45.99609375,4.541015625 45.234375,4.21875047683716 44.53125,4.51171875 34.306640625,14.736328125 33.076171875,14.736328125 22.8515625,4.51171875 22.1484375,4.21875047683716z M22.119140625,0L24.1259765625,0.395507991313934 25.83984375,1.55273473262787 33.69140625,9.404296875 41.54296875,1.55273473262787 43.2495079040527,0.388186693191528 45.263671875,0 47.2998046875,0.410156548023224 48.9697265625,1.53808617591858 50.09765625,3.22265672683716 50.5078125,5.2734375 50.09765625,7.2802734375 48.984375,8.99414157867432 47.1826171875,10.8251953125 45.3515625,12.626953125 61.0546875,12.626953125 63.515625,13.125 65.5224609375,14.4873046875 66.884765625,16.5087890625 67.3828125,18.984375 67.3828125,54.7265625 67.0458984375,56.6162109375 66.1376953125,58.330078125 64.8046875,59.736328125 63.1640625,60.703125 63.1640625,63.1640625 4.21875,63.1640625 4.21875,60.703125 2.5634765625,59.736328125 1.2158203125,58.330078125 0.322265148162842,56.6162109375 0,54.7265625 0,18.984375 0.498046875,16.5087890625 1.8603515625,14.4873046875 3.8671875,13.125 6.328125,12.626953125 22.03125,12.626953125 20.2001953125,10.8251953125 18.3984375,8.99414157867432 17.2705078125,7.2802734375 16.845703125,5.2734375 17.255859375,3.22265672683716 18.3837890625,1.53808617591858 20.0537109375,0.410156548023224 22.119140625,0z" />
    </g>
  </g>
</svg>