<?xml version="1.0" encoding="utf-8"?>
<!DOCTYPE svg PUBLIC "-//W3C//DTD SVG 1.1//EN" "http://www.w3.org/Graphics/SVG/1.1/DTD/svg11.dtd">
<svg width="67.382812500001" height="67.3828125" xmlns="http://www.w3.org/2000/svg" xmlns:xlink="http://www.w3.org/1999/xlink" xmlns:xml="http://www.w3.org/XML/1998/namespace" version="1.1">
  <g>
    <g>
      <path style="fill:#FF0000;fill-opacity:1" d="M26.30859375,52.646484375L27.5390625,52.8955078125 28.5498046875,53.5693359375 29.2236328125,54.580078125 29.47265625,55.810546875 29.2236328125,57.0263671875 28.53515625,58.037109375 27.5244140625,58.7255859375 26.30859375,58.974609375 25.0927734375,58.7255859375 24.0966796875,58.037109375 23.4228515625,57.0263671875 23.173828125,55.810546875 23.4228515625,54.5947265625 24.08203125,53.583984375 25.0634765625,52.8955078125 26.30859375,52.646484375z M54.755859375,23.173828125L56.396484375,23.49609375 57.7294921875,24.3896484375 58.623046875,25.72265625 58.9453125,27.36328125 58.623046875,29.00390625 57.7294921875,30.3369140625 56.396484375,31.2451171875 54.755859375,31.58203125 53.1005859375,31.259765625 51.7529296875,30.3662109375 50.859375,29.0185546875 50.537109375,27.36328125 50.8740234375,25.72265625 51.7822265625,24.3896484375 53.115234375,23.49609375 54.755859375,23.173828125z M53.701171875,14.736328125L54.9169921875,14.9853515625 55.927734375,15.673828125 56.6162109375,16.6845703125 56.865234375,17.900390625 56.6162109375,19.1162109375 55.927734375,20.126953125 54.9169921875,20.8154296875 53.701171875,21.064453125 52.4560546875,20.8154296875 51.4599609375,20.1416015625 50.7861328125,19.1455078125 50.537109375,17.900390625 50.7861328125,16.669921875 51.4599609375,15.6591796875 52.4560546875,14.9853515625 53.701171875,14.736328125z M48.427734375,4.21874952316284L46.9482421875,4.83398485183716 46.34765625,6.328125 46.494140625,7.11914014816284 47.2265625,9.521484375 47.841796875,11.923828125 48.2666015625,14.35546875 48.427734375,16.845703125 48.1457481384277,21.126708984375 47.2998046875,25.2392578125 45.9374961853027,29.1357440948486 44.1064453125,32.7685546875 41.8359336853027,36.11572265625 39.1552734375,39.1552734375 36.11572265625,41.8359375 32.7685546875,44.1064453125 29.132080078125,45.9375 25.224609375,47.2998046875 21.1083965301514,48.145751953125 16.845703125,48.427734375 11.89453125,47.8857421875 7.119140625,46.494140625 6.72363376617432,46.376953125 6.328125,46.318359375 4.833984375,46.9482421875 4.21875,48.45703125 4.833984375,49.921875 8.73046875,53.818359375 13.597412109375,57.843017578125 19.0576171875,60.7763671875 24.993896484375,62.567138671875 31.2890625,63.1640625 36.005859375,62.81982421875 40.6640625,61.787109375 40.01953125,58.974609375 40.517578125,56.513671875 41.865234375,54.5068359375 43.857421875,53.14453125 46.318359375,52.646484375 47.9370079040527,52.8515625 49.453125,53.466796875 51.767578125,55.72265625 56.634521484375,50.61767578125 60.2197265625,44.794921875 62.427978515625,38.32763671875 63.1640625,31.2890625 62.567138671875,24.9938983917236 60.7763671875,19.0576171875 57.843017578125,13.597412109375 53.818359375,8.73046875 49.921875,4.83398485183716 48.427734375,4.21874952316284z M48.427734375,0L50.8447265625,0.468749761581421 52.880859375,1.84570276737213 54.8876953125,3.74999976158142 56.806640625,5.771484375 61.351318359375,11.392822265625 64.6728515625,17.4755859375 66.705322265625,24.085693359375 67.3828125,31.2890625 67.060546875,36.177978515625 66.09375,40.8837890625 64.541015625,45.347900390625 62.4609375,49.51171875 59.879150390625,53.345947265625 56.8212890625,56.8212890625 53.3459434509277,59.879150390625 49.51171875,62.4609375 45.3478965759277,64.541015625 40.8837890625,66.09375 36.177978515625,67.060546875 31.2890625,67.3828125 24.0087890625,66.708984375 17.4755859375,64.6875 11.4697265625,61.376953125 5.771484375,56.806640625 3.8525390625,55.048828125 1.9775390625,53.115234375 0.556640625,50.9326171875 0,48.3984375 0.498046875,45.9375 1.8603515625,43.9453125 3.8671875,42.59765625 6.328125,42.099609375 7.5732421875,42.24609375 8.759765625,42.59765625 12.744140625,43.740234375 16.845703125,44.208984375 20.5517559051514,43.963623046875 24.111328125,43.2275390625 27.48779296875,42.044677734375 30.64453125,40.458984375 36.181640625,36.181640625 40.458984375,30.64453125 42.0446739196777,27.4877948760986 43.2275390625,24.111328125 43.9636192321777,20.5517578125 44.208984375,16.845703125 43.7255859375,12.744140625 42.59765625,8.759765625 42.24609375,7.57324266433716 42.099609375,6.328125 42.59765625,3.86718726158142 43.9599609375,1.86035132408142 45.966796875,0.498046875 48.427734375,0z" />
    </g>
  </g>
</svg>