<?xml version="1.0" encoding="utf-8"?>
<!DOCTYPE svg PUBLIC "-//W3C//DTD SVG 1.1//EN" "http://www.w3.org/Graphics/SVG/1.1/DTD/svg11.dtd">
<svg width="67.3828125000008" height="67.3828125" xmlns="http://www.w3.org/2000/svg" xmlns:xlink="http://www.w3.org/1999/xlink" xmlns:xml="http://www.w3.org/XML/1998/namespace" version="1.1">
  <g>
    <g>
      <path style="fill:#FF0000;fill-opacity:1" d="M4.21875,50.537109375L4.21875,63.1640625 56.865234375,63.1640625 56.513671875,61.58203125 55.576171875,60.234375 54.228515625,59.3115234375 52.646484375,58.974609375 37.91015625,58.974609375 37.55859375,57.3779296875 36.6357421875,56.0302734375 35.2880859375,55.107421875 33.69140625,54.755859375 16.845703125,54.755859375 16.494140625,53.1591796875 15.5712890625,51.8115234375 14.2236328125,50.888671875 12.626953125,50.537109375 4.21875,50.537109375z M54.755859375,46.318359375L52.7783203125,46.845703125 51.26953125,48.22265625 51.0498046875,48.8232421875 50.80078125,49.3212890625 50.6103515625,49.8486328125 50.537109375,50.537109375 34.833984375,50.537109375 33.3984375,50.595703125 32.1240234375,50.8740234375 31.025390625,51.50390625 30.087890625,52.646484375 31.34765625,52.6318359375 32.607421875,52.6171875 34.86328125,52.8369140625 36.8701171875,53.5693359375 38.49609375,54.8876953125 39.609375,56.865234375 45.5712890625,56.8359375 51.533203125,56.806640625 54.66796875,57.216796875 56.0229454040527,57.861328125 57.275390625,58.974609375 58.4912109375,60.9228515625 58.9453125,63.1640625 63.1640625,63.1640625 63.1640625,46.318359375 54.755859375,46.318359375z M23.173828125,46.318359375L23.173828125,50.537109375 27.36328125,50.537109375 27.36328125,46.318359375 23.173828125,46.318359375z M14.736328125,46.318359375L14.736328125,48.80859375 16.0986328125,49.5263671875 17.255859375,50.537109375 18.955078125,50.537109375 18.955078125,46.318359375 14.736328125,46.318359375z M6.328125,46.318359375L6.328125,48.427734375 10.517578125,48.427734375 10.517578125,46.318359375 6.328125,46.318359375z M56.865234375,37.91015625L56.865234375,42.12890625 61.0546875,42.12890625 61.0546875,37.91015625 56.865234375,37.91015625z M48.427734375,37.91015625L52.646484375,37.91015625 52.646484375,42.12890625 48.427734375,42.12890625 48.427734375,37.91015625z M40.01953125,37.91015625L44.208984375,37.91015625 44.208984375,42.12890625 40.01953125,42.12890625 40.01953125,37.91015625z M31.58203125,37.91015625L35.80078125,37.91015625 35.80078125,42.12890625 31.58203125,42.12890625 31.58203125,37.91015625z M23.173828125,37.91015625L23.173828125,42.12890625 27.36328125,42.12890625 27.36328125,37.91015625 23.173828125,37.91015625z M14.736328125,37.91015625L14.736328125,42.12890625 18.955078125,42.12890625 18.955078125,37.91015625 14.736328125,37.91015625z M6.328125,37.91015625L6.328125,42.12890625 10.517578125,42.12890625 10.517578125,37.91015625 6.328125,37.91015625z M56.865234375,29.47265625L56.865234375,33.69140625 61.0546875,33.69140625 61.0546875,29.47265625 56.865234375,29.47265625z M48.427734375,29.47265625L48.427734375,33.69140625 52.646484375,33.69140625 52.646484375,29.47265625 48.427734375,29.47265625z M40.01953125,29.47265625L44.208984375,29.47265625 44.208984375,33.69140625 40.01953125,33.69140625 40.01953125,29.47265625z M31.58203125,29.47265625L35.80078125,29.47265625 35.80078125,33.69140625 31.58203125,33.69140625 31.58203125,29.47265625z M23.173828125,29.47265625L23.173828125,33.69140625 27.36328125,33.69140625 27.36328125,29.47265625 23.173828125,29.47265625z M14.736328125,29.47265625L14.736328125,31.58203125 16.845703125,33.69140625 18.955078125,33.69140625 18.955078125,29.47265625 14.736328125,29.47265625z M29.47265625,27.36328125L29.47265625,50.126953125 30.4833984375,49.3798828125 31.58203125,48.80859375 31.58203125,46.318359375 35.80078125,46.318359375 35.80078125,48.427734375 40.01953125,48.427734375 40.01953125,46.318359375 44.208984375,46.318359375 44.208984375,48.427734375 48.427734375,48.427734375 48.427734375,46.318359375 50.126953125,46.318359375 51.03515625,45.4541015625 52.2216796875,44.7802734375 53.5107421875,44.35546875 54.755859375,44.208984375 54.755859375,35.80078125 46.318359375,35.80078125 46.318359375,27.36328125 29.47265625,27.36328125z M56.865234375,21.064453125L56.865234375,25.283203125 61.0546875,25.283203125 61.0546875,21.064453125 56.865234375,21.064453125z M48.427734375,21.064453125L48.427734375,25.283203125 52.646484375,25.283203125 52.646484375,21.064453125 48.427734375,21.064453125z M31.58203125,21.064453125L31.58203125,25.283203125 35.80078125,25.283203125 35.80078125,21.064453125 31.58203125,21.064453125z M23.173828125,21.064453125L23.173828125,25.283203125 27.36328125,25.283203125 27.36328125,21.064453125 23.173828125,21.064453125z M14.736328125,21.064453125L14.736328125,25.283203125 18.955078125,25.283203125 18.955078125,21.064453125 14.736328125,21.064453125z M56.865234375,12.626953125L56.865234375,16.845703125 61.0546875,16.845703125 61.0546875,12.626953125 56.865234375,12.626953125z M4.21875,4.21874952316284L4.541015625,5.85937452316284 5.4345703125,7.1923828125 6.767578125,8.1005859375 8.408203125,8.4375 21.064453125,8.4375 21.064453125,8.583984375 21.416015625,10.166015625 22.3388671875,11.455078125 23.671875,12.3193359375 25.25390625,12.626953125 42.099609375,12.626953125 42.4365234375,14.2675790786743 43.3447265625,15.6005859375 44.677734375,16.5087890625 46.318359375,16.845703125 54.755859375,16.845703125 54.755859375,8.4375 63.1640625,8.4375 63.1640625,4.21874952316284 4.21875,4.21874952316284z M0,0L67.3828125,0 67.3828125,67.3828125 0,67.3828125 0,36.15234375 8.408203125,27.744140625 8.408203125,12.626953125 5.1416015625,11.9677734375 2.4609375,10.166015625 0.6591796875,7.48535108566284 0,4.21874952316284 0,0z" />
    </g>
  </g>
</svg>