<?xml version="1.0" encoding="utf-8"?>
<!DOCTYPE svg PUBLIC "-//W3C//DTD SVG 1.1//EN" "http://www.w3.org/Graphics/SVG/1.1/DTD/svg11.dtd">
<svg width="58.9453125" height="67.3828125" xmlns="http://www.w3.org/2000/svg" xmlns:xlink="http://www.w3.org/1999/xlink" xmlns:xml="http://www.w3.org/XML/1998/namespace" version="1.1">
  <g>
    <g>
      <path style="fill:#FF0000;fill-opacity:1" d="M8.408203125,54.755859375L16.845703125,54.755859375 16.845703125,56.865234375 8.408203125,56.865234375 8.408203125,54.755859375z M8.408203125,48.427734375L44.208984375,48.427734375 44.208984375,50.537109375 8.408203125,50.537109375 8.408203125,48.427734375z M8.408203125,42.12890625L42.099609375,42.12890625 42.099609375,44.208984375 8.408203125,44.208984375 8.408203125,42.12890625z M8.408203125,35.80078125L40.01953125,35.80078125 40.01953125,37.91015625 8.408203125,37.91015625 8.408203125,35.80078125z M8.408203125,29.47265625L44.208984375,29.47265625 44.208984375,31.58203125 8.408203125,31.58203125 8.408203125,29.47265625z M8.408203125,23.173828125L42.099609375,23.173828125 42.099609375,25.283203125 8.408203125,25.283203125 8.408203125,23.173828125z M8.408203125,16.845703125L46.318359375,16.845703125 46.318359375,18.955078125 8.408203125,18.955078125 8.408203125,16.845703125z M8.408203125,10.517578125L27.36328125,10.517578125 27.36328125,12.626953125 8.408203125,12.626953125 8.408203125,10.517578125z M4.21875047683716,4.21874952316284L4.21875047683716,63.1640625 50.537109375,63.1640625 50.537109375,42.12890625 47.8125,42.12890625 47.021484375,41.953125 46.318359375,41.484375 42.48046875,37.734375 42.099609375,36.85546875 42.48046875,35.9765625 46.318359375,32.197265625 47.8125,31.58203125 50.537109375,31.58203125 50.537109375,12.626953125 42.099609375,12.626953125 42.099609375,4.21874952316284 4.21875047683716,4.21874952316284z M0,0L43.857421875,0 54.755859375,10.8984375 54.755859375,31.58203125 58.9453125,31.58203125 58.9453125,42.12890625 54.755859375,42.12890625 54.755859375,67.3828125 0,67.3828125 0,0z" />
    </g>
  </g>
</svg>