<?xml version="1.0" encoding="utf-8"?>
<!DOCTYPE svg PUBLIC "-//W3C//DTD SVG 1.1//EN" "http://www.w3.org/Graphics/SVG/1.1/DTD/svg11.dtd">
<svg width="48.75" height="50.244140625" xmlns="http://www.w3.org/2000/svg" xmlns:xlink="http://www.w3.org/1999/xlink" xmlns:xml="http://www.w3.org/XML/1998/namespace" version="1.1">
  <g>
    <g>
      <path style="fill:#FF0000;fill-opacity:1" d="M18.3984375,32.373046875L21.2768535614014,33.80126953125 24.345703125,34.27734375 27.42919921875,33.80126953125 30.3515625,32.373046875 48.75,50.244140625 0,50.244140625 18.3984375,32.373046875z M48.75,12.802734375L48.75,48.134765625 31.5234375,31.171875 48.75,12.802734375z M0,12.802734375L11.396484375,24.90234375 1.28906202316284,38.4375 13.53515625,27.3046875 17.2265625,31.171875 0,48.134765625 0,12.802734375z M47.255859375,0L40.107421875,10.810546875 48.75,10.810546875 30.703125,29.58984375 29.1961669921875,31.051025390625 27.63427734375,32.0947265625 26.0174560546875,32.720947265625 24.345703125,32.9296875 22.6776103973389,32.720947265625 21.0717754364014,32.0947265625 19.5281963348389,31.051025390625 18.046875,29.58984375 14.82421875,26.19140625 20.56640625,22.001953125 23.876953125,31.640625 44.267578125,3.3984375 25.37109375,20.068359375 21.123046875,11.806640625 12.392578125,23.642578125 0,10.810546875 34.86328125,10.810546875 47.255859375,0z" />
    </g>
  </g>
</svg>