<?xml version="1.0" encoding="utf-8"?>
<!DOCTYPE svg PUBLIC "-//W3C//DTD SVG 1.1//EN" "http://www.w3.org/Graphics/SVG/1.1/DTD/svg11.dtd">
<svg width="47.75390625" height="21.416015625" xmlns="http://www.w3.org/2000/svg" xmlns:xlink="http://www.w3.org/1999/xlink" xmlns:xml="http://www.w3.org/XML/1998/namespace" version="1.1">
  <g>
    <g>
      <path style="fill:#FF0000;fill-opacity:1" d="M32.2265625,16.34765625L38.056640625,16.34765625 38.056640625,17.8125 32.2265625,17.8125 32.2265625,16.34765625z M6.50390625,12.158203125L41.25,12.158203125 41.25,13.59375 6.50390625,13.59375 6.50390625,12.158203125z M6.50390625,7.236328125L41.25,7.236328125 41.25,8.671875 6.50390625,8.671875 6.50390625,7.236328125z M4.3359375,1.435546875L2.764892578125,1.56005859375 1.9189453125,1.93359375 1.55639624595642,2.783203125 1.435546875,4.3359375 1.435546875,17.080078125 1.56005835533142,18.6328125 1.93359327316284,19.482421875 2.783203125,19.85595703125 4.3359375,19.98046875 43.41796875,19.98046875 44.970703125,19.85595703125 45.8203125,19.482421875 46.1938438415527,18.6328125 46.318359375,17.080078125 46.318359375,4.3359375 46.1938438415527,2.783203125 45.8203125,1.93359375 44.970703125,1.56005859375 43.41796875,1.435546875 4.3359375,1.435546875z M4.3359375,0L43.41796875,0 45.9008750915527,0.15380859375 47.138671875,0.615234375 47.6000938415527,1.85302734375 47.75390625,4.3359375 47.75390625,17.080078125 47.6000938415527,19.56298828125 47.138671875,20.80078125 45.9008750915527,21.26220703125 43.41796875,21.416015625 4.3359375,21.416015625 1.85302734375,21.26220703125 0.615234613418579,20.80078125 0.153808623552322,19.56298828125 0,17.080078125 0,4.3359375 0.153808623552322,1.85302734375 0.615234613418579,0.615234375 1.85302734375,0.15380859375 4.3359375,0z" />
    </g>
  </g>
</svg>