<?xml version="1.0" encoding="utf-8"?>
<!DOCTYPE svg PUBLIC "-//W3C//DTD SVG 1.1//EN" "http://www.w3.org/Graphics/SVG/1.1/DTD/svg11.dtd">
<svg width="67.3828125000007" height="67.3828125" xmlns="http://www.w3.org/2000/svg" xmlns:xlink="http://www.w3.org/1999/xlink" xmlns:xml="http://www.w3.org/XML/1998/namespace" version="1.1">
  <g>
    <g>
      <path style="fill:#FF0000;fill-opacity:1" d="M9.78515625,37.939453125L12.041015625,39.462890625 14.736328125,40.01953125 23.173828125,40.01953125 23.173828125,37.939453125 9.78515625,37.939453125z M14.736328125,27.36328125L12.630615234375,27.5720233917236 10.6494140625,28.1982421875 7.294921875,30.46875 5.0390625,33.8232421875 4.423828125,35.804443359375 4.21875,37.91015625 8.4375,35.830078125 27.36328125,35.830078125 18.955078125,27.36328125 14.736328125,27.36328125z M32.63671875,23.173828125L33.8525390625,23.4228515625 34.86328125,24.08203125 35.5517578125,25.078125 35.80078125,26.30859375 35.80078125,30.52734375 35.5517578125,31.7724609375 34.8779296875,32.7685546875 33.8671875,33.4423828125 32.63671875,33.69140625 31.3916015625,33.4423828125 30.3955078125,32.7685546875 29.7216796875,31.7724609375 29.47265625,30.52734375 29.47265625,26.30859375 29.7216796875,25.078125 30.41015625,24.08203125 31.4208984375,23.4228515625 32.63671875,23.173828125z M31.58203125,18.955078125L28.18359375,19.5849609375 25.341796875,21.2109375 22.8369140625,23.4521484375 20.44921875,25.8984375 28.857421875,34.306640625 29.47265625,35.80078125 28.857421875,37.294921875 35.80078125,44.208984375 37.412109375,46.611328125 37.91015625,49.482421875 37.32421875,52.353515625 35.7421875,54.697265625 33.3984375,56.279296875 30.52734375,56.865234375 28.154296875,56.455078125 25.25390625,63.1640625 56.865234375,63.1640625 56.865234375,54.755859375 61.0546875,54.755859375 62.548828125,54.140625 63.1640625,52.646484375 56.865234375,46.318359375 61.0546875,46.318359375 62.548828125,45.703125 63.1640625,44.208984375 56.865234375,37.91015625 56.19140625,32.87109375 54.2724609375,28.3447265625 51.298828125,24.521484375 47.4755859375,21.5478515625 42.94921875,19.62890625 37.91015625,18.955078125 31.58203125,18.955078125z M35.80078125,0L44.208984375,0 44.208984375,14.736328125 44.208984375,15.17578125 44.1796875,15.615234375 47.5341758728027,16.8310546875 50.625,18.544921875 53.3935508728027,20.694580078125 55.78125,23.2177734375 57.769775390625,26.0705585479736 59.3408203125,29.208984375 60.435791015625,32.57080078125 60.99609375,36.09375 67.3828125,42.48046875 67.3828125,42.685546875 67.3388671875,44.47265625 67.08984375,46.0400390625 66.474609375,47.4755859375 65.33203125,48.8671875 67.3828125,50.888671875 67.3828125,52.646484375 66.884765625,55.107421875 65.5224609375,57.1142578125 63.515625,58.4765625 61.0546875,58.974609375 61.0546875,67.3828125 18.8671875,67.3828125 22.8515625,58.125 20.7421875,55.7373046875 19.5556640625,53.2177734375 19.04296875,50.537109375 18.92578125,47.6953125 18.9404296875,45.9814453125 18.955078125,44.208984375 16.025390625,44.208984375 13.53515625,44.1064453125 11.2646484375,43.6669921875 9.1259765625,42.744140625 7.08984375,41.19140625 0,44.70703125 0,37.91015625 0.190429329872131,35.5224609375 0.76171875,33.22265625 2.9150390625,29.1064453125 6.240234375,25.869140625 10.517578125,23.7890625 10.517578125,15.791015625 11.103515625,12.919921875 12.685546875,10.576171875 15.029296875,9.0087890625 17.900390625,8.4375 19.658203125,8.4375 20.8154296875,6.6943359375 22.3681640625,5.3759765625 24.2431640625,4.5263671875 26.30859375,4.21874952316284 28.505859375,4.21874952316284 29.84619140625,2.46460247039795 31.58203125,1.1279296875 33.603515625,0.281985282897949 35.80078125,0z" />
    </g>
  </g>
</svg>