<?xml version="1.0" encoding="utf-8"?>
<!DOCTYPE svg PUBLIC "-//W3C//DTD SVG 1.1//EN" "http://www.w3.org/Graphics/SVG/1.1/DTD/svg11.dtd">
<svg width="65.2734375000005" height="65.2734375" xmlns="http://www.w3.org/2000/svg" xmlns:xlink="http://www.w3.org/1999/xlink" xmlns:xml="http://www.w3.org/XML/1998/namespace" version="1.1">
  <g>
    <g>
      <path style="fill:#FF0000;fill-opacity:1" d="M45.29296875,47.138671875L47.783203125,49.62890625 33.955078125,56.42578125 33.955078125,52.79296875 45.29296875,47.138671875z M19.98046875,47.138671875L31.318359375,52.79296875 31.318359375,56.42578125 17.548828125,49.5703125 19.98046875,47.138671875z M41.07421875,42.919921875L43.53515625,45.380859375 33.955078125,50.09765625 33.955078125,46.494140625 41.07421875,42.919921875z M24.19921875,42.919921875L31.318359375,46.494140625 31.318359375,50.09765625 21.826171875,45.322265625 24.19921875,42.919921875z M33.955078125,35.80078125L39.287109375,41.1328125 33.955078125,43.798828125 33.955078125,35.80078125z M31.318359375,35.80078125L31.318359375,43.798828125 26.015625,41.1328125 31.318359375,35.80078125z M52.79296875,33.955078125L56.42578125,33.955078125 49.62890625,47.783203125 47.138671875,45.263671875 52.79296875,33.955078125z M46.494140625,33.955078125L50.09765625,33.955078125 45.380859375,43.53515625 42.919921875,41.07421875 46.494140625,33.955078125z M35.80078125,33.955078125L43.798828125,33.955078125 41.1328125,39.287109375 35.80078125,33.955078125z M21.474609375,33.955078125L29.47265625,33.955078125 24.140625,39.2578125 21.474609375,33.955078125z M15.17578125,33.955078125L18.779296875,33.955078125 22.353515625,41.07421875 19.951171875,43.447265625 15.17578125,33.955078125z M8.84765625,33.955078125L12.48046875,33.955078125 18.134765625,45.263671875 15.703125,47.724609375 8.84765625,33.955078125z M24.169921875,26.015625L29.47265625,31.318359375 21.474609375,31.318359375 24.169921875,26.015625z M41.19140625,25.95703125L43.798828125,31.318359375 35.80078125,31.318359375 41.19140625,25.95703125z M45.29296875,21.826171875L50.09765625,31.318359375 46.494140625,31.318359375 42.919921875,24.19921875 45.29296875,21.826171875z M19.951171875,21.796875L22.353515625,24.19921875 18.779296875,31.318359375 15.17578125,31.318359375 19.951171875,21.796875z M33.955078125,21.474609375L39.31640625,24.08203125 33.955078125,29.47265625 33.955078125,21.474609375z M31.318359375,21.474609375L31.318359375,29.47265625 26.015625,24.169921875 31.318359375,21.474609375z M49.5703125,17.578125L56.42578125,31.318359375 52.79296875,31.318359375 47.16796875,19.98046875 49.5703125,17.578125z M15.5859375,17.431640625L18.134765625,19.98046875 12.48046875,31.318359375 8.84765625,31.318359375 15.5859375,17.431640625z M33.955078125,15.17578125L43.447265625,19.98046875 41.07421875,22.353515625 33.955078125,18.779296875 33.955078125,15.17578125z M31.318359375,15.17578125L31.318359375,18.779296875 24.19921875,22.353515625 21.796875,19.951171875 31.318359375,15.17578125z M33.955078125,8.84765625L47.6953125,15.703125 45.234375,18.1640625 33.955078125,12.48046875 33.955078125,8.84765625z M31.318359375,8.84765625L31.318359375,12.48046875 19.98046875,18.134765625 17.431640625,15.5859375 31.318359375,8.84765625z M32.63671875,3.95507788658142L31.875,4.16015625 31.4794921875,4.6875 31.3330078125,5.390625 31.318359375,6.15234375 15.791015625,13.916015625 12.509765625,10.634765625 11.572265625,10.25390625 10.634765625,10.634765625 10.25390625,11.572265625 10.634765625,12.509765625 13.916015625,15.791015625 6.15234375,31.318359375 5.390625,31.3330078125 4.6875,31.4794921875 4.16015625,31.875 3.955078125,32.63671875 4.16015625,33.3984375 4.6875,33.7939453125 5.390625,33.9404296875 6.15234375,33.955078125 13.916015625,49.482421875 10.634765625,52.763671875 10.25390625,53.701171875 10.6494140625,54.6240234375 11.572265625,54.990234375 12.509765625,54.609375 15.791015625,51.357421875 31.318359375,59.12109375 31.3330078125,59.8828125 31.4794921875,60.5859375 31.875,61.11328125 32.63671875,61.318359375 33.3984375,61.11328125 33.7939453125,60.5859375 33.9404296875,59.8828125 33.955078125,59.12109375 49.482421875,51.357421875 52.763671875,54.609375 53.701171875,54.990234375 54.6240234375,54.6240234375 55.01953125,53.701171875 54.638671875,52.763671875 51.357421875,49.482421875 59.12109375,33.955078125 59.8828125,33.9404296875 60.5859375,33.7939453125 61.11328125,33.3984375 61.318359375,32.63671875 61.11328125,31.875 60.5859375,31.4794921875 59.8828125,31.3330078125 59.12109375,31.318359375 51.357421875,15.791015625 54.609375,12.509765625 55.01953125,11.572265625 54.638671875,10.634765625 53.701171875,10.25390625 52.763671875,10.634765625 49.482421875,13.916015625 33.955078125,6.15234375 33.9404296875,5.390625 33.7939453125,4.6875 33.3984375,4.16015625 32.63671875,3.95507788658142z M32.63671875,0L34.251708984375,0.245364233851433 35.6982421875,0.981445670127869 36.859130859375,2.12036418914795 37.6171875,3.57421851158142 48.720703125,9.111328125 49.8046875,8.0126953125 50.9033203125,7.13378858566284 52.1630859375,6.5478515625 53.701171875,6.328125 55.751953125,6.73828077316284 57.421875,7.86621046066284 58.53515625,9.55078125 58.9453125,11.6015625 58.7255859375,13.154296875 58.1396484375,14.3994140625 57.2607421875,15.4833984375 56.162109375,16.552734375 61.69921875,27.65625 63.153076171875,28.4143085479736 64.2919921875,29.5751953125 65.028076171875,31.021728515625 65.2734375,32.63671875 65.028076171875,34.251708984375 64.2919921875,35.6982421875 63.153076171875,36.859130859375 61.69921875,37.6171875 56.162109375,48.720703125 56.337890625,48.896484375 57.36328125,49.9365234375 58.18359375,50.9912109375 58.740234375,52.1923828125 58.9453125,53.701171875 58.53515625,55.7666015625 57.421875,57.421875 55.751953125,58.53515625 53.701171875,58.9453125 52.1484375,58.740234375 50.9033203125,58.154296875 49.8046875,57.2607421875 48.720703125,56.162109375 37.6171875,61.69921875 36.859130859375,63.153076171875 35.6982421875,64.2919921875 34.251708984375,65.028076171875 32.63671875,65.2734375 31.021728515625,65.028076171875 29.5751953125,64.2919921875 28.414306640625,63.153076171875 27.65625,61.69921875 16.552734375,56.162109375 16.376953125,56.337890625 15.3369140625,57.36328125 14.2822265625,58.18359375 13.0810546875,58.740234375 11.572265625,58.9453125 9.5068359375,58.53515625 7.8369140625,57.421875 6.708984375,55.7666015625 6.298828125,53.701171875 6.50390625,52.2216796875 7.060546875,51.005859375 7.880859375,49.951171875 8.876953125,48.92578125 9.111328125,48.720703125 3.57421875,37.6171875 2.120361328125,36.859130859375 0.9814453125,35.6982421875 0.245360970497131,34.251708984375 0,32.63671875 0.245360970497131,31.021728515625 0.9814453125,29.5751953125 2.120361328125,28.4143085479736 3.57421875,27.65625 9.111328125,16.552734375 8.876953125,16.34765625 7.880859375,15.322265625 7.060546875,14.2822265625 6.5185546875,13.095703125 6.328125,11.6015625 6.73828125,9.55078125 7.8515625,7.86621046066284 9.5068359375,6.73828077316284 11.572265625,6.328125 13.0810546875,6.53320360183716 14.2822265625,7.08984327316284 15.3369140625,7.91015577316284 16.376953125,8.935546875 16.552734375,9.111328125 27.65625,3.57421851158142 28.414306640625,2.12036418914795 29.5751953125,0.981445670127869 31.021728515625,0.245364233851433 32.63671875,0z" />
    </g>
  </g>
</svg>