<?xml version="1.0" encoding="utf-8"?>
<!DOCTYPE svg PUBLIC "-//W3C//DTD SVG 1.1//EN" "http://www.w3.org/Graphics/SVG/1.1/DTD/svg11.dtd">
<svg width="67.3828125000009" height="67.3828125" xmlns="http://www.w3.org/2000/svg" xmlns:xlink="http://www.w3.org/1999/xlink" xmlns:xml="http://www.w3.org/XML/1998/namespace" version="1.1">
  <g>
    <g>
      <path style="fill:#FF0000;fill-opacity:1" d="M56.865234375,56.865234375L56.865234375,58.9453125 55.224609375,59.2822265625 53.8916015625,60.1904296875 52.9833984375,61.5234375 52.646484375,63.1640625 58.9453125,63.1640625 61.0546875,56.865234375 56.865234375,56.865234375z M44.912109375,56.865234375L44.208984375,58.9453125 42.568359375,59.2822265625 41.2353515625,60.1904296875 40.341796875,61.5234375 40.01953125,63.1640625 46.318359375,63.1640625 49.921875,56.865234375 44.912109375,56.865234375z M18.955078125,56.865234375L18.955078125,58.9453125 17.314453125,59.2822265625 15.9814453125,60.1904296875 15.0732421875,61.5234375 14.736328125,63.1640625 21.064453125,63.1640625 23.4375,56.865234375 18.955078125,56.865234375z M46.318359375,48.427734375L46.3330078125,49.86328125 46.34765625,51.298828125 46.1865234375,53.0712890625 45.615234375,54.755859375 51.123046875,54.755859375 53.90625,49.892578125 52.44140625,48.427734375 46.318359375,48.427734375z M11.572265625,23.173828125L12.3193359375,23.4814453125 12.626953125,24.228515625 12.626953125,26.30859375 12.3193359375,27.0556640625 11.572265625,27.36328125 10.8251953125,27.0556640625 10.517578125,26.30859375 10.517578125,24.228515625 10.8251953125,23.4814453125 11.572265625,23.173828125z M11.572265625,14.736328125L10.8251953125,15.0439453125 10.517578125,15.791015625 10.517578125,21.064453125 4.21875,27.36328125 7.3828125,27.36328125 4.21875,30.52734375 4.4677734375,31.7724609375 5.1416015625,32.7685546875 6.1376953125,33.4423828125 7.3828125,33.69140625 14.736328125,33.69140625 18.955078125,44.208984375 18.955078125,54.755859375 24.19921875,54.755859375 27.36328125,46.318359375 52.646484375,46.318359375 56.865234375,50.537109375 56.865234375,54.755859375 61.7578125,54.755859375 62.0361328125,53.8623046875 62.5048828125,52.4560546875 62.958984375,51.15234375 63.1640625,50.537109375 63.1640625,37.91015625 62.6220703125,34.6142578125 61.0546875,31.640625 61.0546875,27.36328125 60.845947265625,25.2575702667236 60.2197265625,23.2763671875 57.9638671875,19.9365234375 54.6240234375,17.6806640625 52.6428184509277,17.054443359375 50.537109375,16.845703125 40.01953125,16.845703125 40.01953125,21.064453125 50.537109375,21.064453125 52.998046875,21.5625 55.0048828125,22.91015625 56.3671875,24.90234375 56.865234375,27.36328125 56.865234375,28.271484375 54.052734375,27.509765625 51.123046875,27.333984375 49.775390625,27.3486328125 48.427734375,27.36328125 48.427734375,33.69140625 47.8125,35.185546875 46.318359375,35.80078125 44.82421875,35.185546875 44.208984375,33.69140625 44.208984375,27.36328125 40.01953125,27.36328125 40.01953125,35.80078125 39.3896484375,37.2802734375 37.91015625,37.91015625 36.416015625,37.294921875 35.80078125,35.80078125 35.80078125,27.36328125 31.58203125,27.36328125 31.58203125,33.69140625 30.966796875,35.185546875 29.47265625,35.80078125 27.978515625,35.185546875 27.36328125,33.69140625 27.36328125,27.36328125 25.25390625,27.36328125 12.392578125,15.1464853286743 12.0263671875,14.853515625 11.572265625,14.736328125z M33.69140625,4.21874952316284L30.439453125,4.892578125 27.7587890625,6.70898485183716 25.927734375,9.3896484375 25.25390625,12.626953125 25.9130859375,15.9228515625 27.71484375,18.603515625 30.3955078125,20.4052734375 33.69140625,21.064453125 37.91015625,21.064453125 37.91015625,16.845703125 33.69140625,16.845703125 32.05078125,16.5087890625 30.7177734375,15.6005859375 29.8095703125,14.2675790786743 29.47265625,12.626953125 29.8095703125,10.986328125 30.7177734375,9.6533203125 32.05078125,8.759765625 33.69140625,8.4375 35.1708984375,7.8076171875 35.80078125,6.328125 35.185546875,4.83398485183716 33.69140625,4.21874952316284z M33.69140625,0L36.15234375,0.498046875 38.1591796875,1.86035132408142 39.521484375,3.86718726158142 40.01953125,6.328125 39.55078125,8.7158203125 38.26171875,10.7080078125 36.328125,12.0849609375 33.955078125,12.626953125 50.537109375,12.626953125 53.4924278259277,12.916259765625 56.2646484375,13.7841796875 58.77685546875,15.15380859375 60.9521484375,16.9482421875 62.74658203125,19.12353515625 64.1162109375,21.6357421875 64.984130859375,24.4079608917236 65.2734375,27.36328125 65.2734375,30.380859375 66.8408203125,33.9990234375 67.3828125,37.91015625 67.3828125,51.2109375 67.294921875,51.59912109375 67.03125,52.470703125 66.15234375,55.2099609375 64.98046875,58.7548828125 63.75,62.431640625 62.7099609375,65.537109375 62.332763671875,66.67236328125 62.109375,67.3828125 35.80078125,67.3828125 35.80078125,63.1640625 36.1669921875,60.7177734375 37.20703125,58.5205078125 38.8330078125,56.7041015625 40.95703125,55.400390625 41.30859375,54.462890625 41.689453125,53.466796875 41.982421875,52.470703125 42.099609375,51.50390625 42.099609375,50.537109375 30.29296875,50.537109375 24.08203125,67.3828125 10.517578125,67.3828125 10.517578125,63.1640625 10.799560546875,60.966796875 11.6455078125,58.9453125 12.982177734375,57.20947265625 14.736328125,55.869140625 14.736328125,45.029296875 11.89453125,37.91015625 7.3828125,37.91015625 4.51171875,37.32421875 2.16796875,35.7421875 0.5859375,33.3984375 0,30.52734375 0,25.634765625 6.328125,19.306640625 6.328125,15.791015625 6.73828125,13.740234375 7.8662109375,12.0556640625 9.5361328125,10.927734375 11.572265625,10.517578125 13.6962890625,10.95703125 15.439453125,12.216796875 23.0859375,19.482421875 21.5625,16.2158203125 21.064453125,12.626953125 21.3134746551514,10.096435546875 22.060546875,7.71972703933716 24.7705078125,3.70605516433716 28.7841796875,0.99609375 31.160888671875,0.249026298522949 33.69140625,0z" />
    </g>
  </g>
</svg>