<?xml version="1.0" encoding="utf-8"?>
<!DOCTYPE svg PUBLIC "-//W3C//DTD SVG 1.1//EN" "http://www.w3.org/Graphics/SVG/1.1/DTD/svg11.dtd">
<svg width="67.3828125000008" height="60.703125" xmlns="http://www.w3.org/2000/svg" xmlns:xlink="http://www.w3.org/1999/xlink" xmlns:xml="http://www.w3.org/XML/1998/namespace" version="1.1">
  <g>
    <g>
      <path style="fill:#FF0000;fill-opacity:1" d="M8.4375,4.18945360183716L6.796875,4.5263671875 5.4638671875,5.43457078933716 4.5556640625,6.76757860183716 4.21875,8.408203125 4.21875,37.880859375 4.541015625,39.5361328125 5.4345703125,40.8837890625 6.7822265625,41.77734375 8.4375,42.099609375 46.318359375,42.099609375 54.755859375,50.537109375 54.755859375,42.099609375 58.9453125,42.099609375 60.5859375,41.77734375 61.9189453125,40.8837890625 62.8271484375,39.5361328125 63.1640625,37.880859375 63.1640625,8.408203125 62.8271484375,6.76757860183716 61.9189453125,5.43457078933716 60.5859375,4.5263671875 58.9453125,4.18945360183716 8.4375,4.18945360183716z M8.4375,0L58.9453125,0 62.1826171875,0.673828601837158 64.8779296875,2.49023532867432 66.708984375,5.1708984375 67.3828125,8.408203125 67.3828125,37.880859375 66.6943359375,41.07421875 64.833984375,43.76953125 62.138671875,45.6298828125 58.9453125,46.318359375 58.9453125,60.703125 44.58984375,46.318359375 8.4375,46.318359375 5.1416015625,45.6591796875 2.4609375,43.857421875 0.6591796875,41.1767578125 0,37.880859375 0,8.408203125 0.673828125,5.1708984375 2.5048828125,2.49023532867432 5.185546875,0.673828601837158 8.4375,0z" />
    </g>
  </g>
</svg>