<?xml version="1.0" encoding="utf-8"?>
<!DOCTYPE svg PUBLIC "-//W3C//DTD SVG 1.1//EN" "http://www.w3.org/Graphics/SVG/1.1/DTD/svg11.dtd">
<svg width="64.4824218750011" height="64.482421875" xmlns="http://www.w3.org/2000/svg" xmlns:xlink="http://www.w3.org/1999/xlink" xmlns:xml="http://www.w3.org/XML/1998/namespace" version="1.1">
  <g>
    <g>
      <path style="fill:#FF0000;fill-opacity:1" d="M9.638671875,45.966796875L3.984375,57.275390625 3.779296875,58.212890625 4.3798828125,59.6923828125 5.859375,60.29296875 6.767578125,60.05859375 18.076171875,54.404296875 9.638671875,45.966796875z M13.857421875,41.77734375L11.748046875,43.88671875 20.15625,52.294921875 22.265625,50.185546875 13.857421875,41.77734375z M43.330078125,12.275390625L15.966796875,39.66796875 24.375,48.076171875 51.767578125,20.712890625 43.330078125,12.275390625z M49.658203125,5.9765625L45.439453125,10.1953125 53.84765625,18.603515625 58.06640625,14.384765625 49.658203125,5.9765625z M50.09765625,0L64.482421875,14.384765625 27.7734375,51.064453125 24.55078125,54.19921875 22.646484375,56.1181640625 20.625,57.890625 19.189453125,58.7109375 17.666015625,59.4140625 9.140625,63.80859375 6.26953125,64.482421875 3.80859375,63.9990234375 1.81640625,62.666015625 0.4833984375,60.673828125 0,58.212890625 0.673828125,55.400390625 4.951171875,46.81640625 5.6982421875,45.1171875 6.62109375,43.505859375 8.3056640625,41.7041015625 10.078125,40.01953125 50.09765625,0z" />
    </g>
  </g>
</svg>