<?xml version="1.0" encoding="utf-8"?>
<!DOCTYPE svg PUBLIC "-//W3C//DTD SVG 1.1//EN" "http://www.w3.org/Graphics/SVG/1.1/DTD/svg11.dtd">
<svg width="67.3828125000013" height="67.3828125" xmlns="http://www.w3.org/2000/svg" xmlns:xlink="http://www.w3.org/1999/xlink" xmlns:xml="http://www.w3.org/XML/1998/namespace" version="1.1">
  <g>
    <g>
      <path style="fill:#FF0000;fill-opacity:1" d="M55.78125,54.755859375L55.048828125,55.078125 54.7265625,55.810546875 55.048828125,56.54296875 57.158203125,58.65234375 57.890625,58.974609375 58.623046875,58.65234375 58.9453125,57.919921875 58.65234375,57.158203125 56.54296875,55.048828125 55.78125,54.755859375z M9.462890625,54.755859375L8.73046875,55.048828125 6.62109375,57.158203125 6.298828125,57.919921875 6.62109375,58.65234375 7.35351657867432,58.974609375 8.115234375,58.65234375 10.224609375,56.54296875 10.517578125,55.810546875 10.2099609375,55.0634765625 9.462890625,54.755859375z M41.07421875,50.537109375L40.3271484375,50.8447265625 40.01953125,51.591796875 40.3271484375,52.3388671875 41.07421875,52.646484375 41.806640625,52.3388671875 42.099609375,51.591796875 41.806640625,50.8447265625 41.07421875,50.537109375z M24.228515625,50.537109375L23.4814453125,50.8447265625 23.173828125,51.591796875 23.4814453125,52.3388671875 24.228515625,52.646484375 24.9462890625,52.32421875 25.25390625,51.591796875 24.9462890625,50.859375 24.228515625,50.537109375z M32.63671875,44.912109375L31.1279296875,46.494140625 29.47265625,47.87109375 29.47265625,63.1640625 35.80078125,63.1640625 35.80078125,47.87109375 34.1455078125,46.494140625 32.63671875,44.912109375z M45.263671875,44.23828125L44.53125,44.560546875 44.208984375,45.29296875 44.53125,46.025390625 50.859375,52.32421875 51.591796875,52.646484375 52.3095703125,52.32421875 52.6171875,51.591796875 52.32421875,50.859375 46.025390625,44.53125 45.263671875,44.23828125z M20.009765625,44.23828125L19.248046875,44.53125 12.94921875,50.859375 12.626953125,51.591796875 12.94921875,52.32421875 13.681640625,52.646484375 14.443359375,52.32421875 20.7421875,46.025390625 21.03515625,45.29296875 20.7275390625,44.560546875 20.009765625,44.23828125z M53.701171875,40.01953125L52.9541015625,40.3271484375 52.646484375,41.07421875 52.9541015625,41.8212890625 53.701171875,42.12890625 54.4482421875,41.8212890625 54.755859375,41.07421875 54.4482421875,40.3271484375 53.701171875,40.01953125z M11.572265625,40.01953125L10.8251953125,40.3271484375 10.517578125,41.07421875 10.8251953125,41.8212890625 11.572265625,42.12890625 12.3193359375,41.8212890625 12.626953125,41.07421875 12.3193359375,40.3271484375 11.572265625,40.01953125z M60,31.58203125L59.2822265625,31.904296875 58.974609375,32.63671875 59.2822265625,33.369140625 60,33.69140625 62.109375,33.69140625 62.8564453125,33.3837890625 63.1640625,32.63671875 62.8564453125,31.8896484375 62.109375,31.58203125 60,31.58203125z M49.482421875,31.58203125L48.7353515625,31.8896484375 48.427734375,32.63671875 48.7353515625,33.3837890625 49.482421875,33.69140625 53.701171875,33.69140625 54.4482421875,33.3837890625 54.755859375,32.63671875 54.4482421875,31.8896484375 53.701171875,31.58203125 49.482421875,31.58203125z M11.572265625,31.58203125L10.8251953125,31.8896484375 10.517578125,32.63671875 10.8251953125,33.3837890625 11.572265625,33.69140625 15.791015625,33.69140625 16.5380859375,33.3837890625 16.845703125,32.63671875 16.5380859375,31.8896484375 15.791015625,31.58203125 11.572265625,31.58203125z M5.2734375,31.58203125L4.5263671875,31.8896484375 4.21875,32.63671875 4.5263671875,33.3837890625 5.2734375,33.69140625 7.35351657867432,33.69140625 8.115234375,33.3837890625 8.4375,32.63671875 8.115234375,31.8896484375 7.35351657867432,31.58203125 5.2734375,31.58203125z M32.63671875,29.47265625L31.4208984375,29.7216796875 30.41015625,30.41015625 29.7216796875,31.4208984375 29.47265625,32.63671875 29.7216796875,33.8818359375 30.3955078125,34.8779296875 31.3916015625,35.5517578125 32.63671875,35.80078125 33.8671875,35.5517578125 34.8779296875,34.8779296875 35.5517578125,33.8818359375 35.80078125,32.63671875 35.5517578125,31.4208984375 34.86328125,30.41015625 33.8525390625,29.7216796875 32.63671875,29.47265625z M53.701171875,23.173828125L52.9541015625,23.4814453125 52.646484375,24.228515625 52.96875,24.9609375 53.701171875,25.283203125 54.43359375,24.9609375 54.755859375,24.228515625 54.4482421875,23.4814453125 53.701171875,23.173828125z M28.41796875,23.173828125L29.1796875,23.466796875 32.63671875,26.953125 36.09375,23.466796875 36.85546875,23.173828125 37.587890625,23.49609375 37.91015625,24.228515625 37.91015625,27.36328125 41.07421875,27.36328125 41.7919921875,27.685546875 42.099609375,28.41796875 41.806640625,29.1796875 38.349609375,32.63671875 41.806640625,36.09375 42.099609375,36.85546875 41.7919921875,37.587890625 41.07421875,37.91015625 37.91015625,37.91015625 37.91015625,41.07421875 37.587890625,41.7919921875 36.85546875,42.099609375 36.09375,41.806640625 32.63671875,38.349609375 29.1796875,41.806640625 28.41796875,42.099609375 27.685546875,41.7919921875 27.36328125,41.07421875 27.36328125,37.91015625 24.228515625,37.91015625 23.4814453125,37.6025390625 23.173828125,36.85546875 23.466796875,36.09375 26.953125,32.63671875 23.466796875,29.1796875 23.173828125,28.41796875 23.49609375,27.685546875 24.228515625,27.36328125 27.36328125,27.36328125 27.36328125,24.228515625 27.685546875,23.49609375 28.41796875,23.173828125z M11.572265625,23.173828125L10.8251953125,23.4814453125 10.517578125,24.228515625 10.83984375,24.9609375 11.572265625,25.283203125 12.3046875,24.9609375 12.626953125,24.228515625 12.3193359375,23.4814453125 11.572265625,23.173828125z M27.392578125,18.955078125L25.8837890625,19.5703125 25.25390625,21.064453125 25.25390625,25.283203125 21.064453125,25.283203125 19.5703125,25.8837890625 18.955078125,27.36328125 19.5703125,28.857421875 23.173828125,32.783203125 19.5703125,36.416015625 18.955078125,37.91015625 19.5849609375,39.3896484375 21.064453125,40.01953125 25.25390625,40.01953125 25.25390625,44.23828125 25.8837890625,45.703125 27.36328125,46.318359375 28.564453125,45.9521484375 29.47265625,45.087890625 31.58203125,42.978515625 32.1240234375,42.48046875 32.63671875,41.923828125 33.1494140625,42.48046875 33.69140625,42.978515625 35.80078125,45.087890625 36.708984375,45.9521484375 37.880859375,46.318359375 39.375,45.7177734375 40.01953125,44.23828125 40.01953125,40.01953125 44.208984375,40.01953125 45.6884765625,39.3896484375 46.318359375,37.91015625 45.703125,36.416015625 42.099609375,32.783203125 45.703125,28.857421875 46.171875,28.1982421875 46.318359375,27.392578125 45.703125,25.8984375 44.208984375,25.283203125 40.01953125,25.283203125 40.01953125,21.064453125 39.3896484375,19.5849609375 37.91015625,18.955078125 36.416015625,19.5703125 32.63671875,23.173828125 28.857421875,19.5703125 28.18359375,19.1162109375 27.392578125,18.955078125z M49.482421875,14.765625L48.75,15.05859375 44.53125,19.27734375 44.208984375,20.009765625 44.53125,20.7421875 45.263671875,21.064453125 46.025390625,20.7421875 50.244140625,16.552734375 50.537109375,15.791015625 50.2294921875,15.05859375 49.482421875,14.765625z M15.791015625,14.765625L15.05859375,15.0732421875 14.736328125,15.791015625 15.05859375,16.552734375 19.248046875,20.7421875 20.009765625,21.064453125 20.7275390625,20.7421875 21.03515625,20.009765625 20.7421875,19.27734375 16.5234375,15.05859375 15.791015625,14.765625z M41.07421875,12.626953125L40.3271484375,12.9345703125 40.01953125,13.681640625 40.3271484375,14.4287109375 41.07421875,14.736328125 41.806640625,14.4287109375 42.099609375,13.681640625 41.806640625,12.9345703125 41.07421875,12.626953125z M24.228515625,12.626953125L23.4814453125,12.9345703125 23.173828125,13.681640625 23.4814453125,14.4287109375 24.228515625,14.736328125 24.9462890625,14.4140625 25.25390625,13.681640625 24.9462890625,12.94921875 24.228515625,12.626953125z M32.63671875,10.517578125L31.904296875,10.83984375 31.58203125,11.572265625 31.58203125,15.791015625 31.8896484375,16.5380859375 32.63671875,16.845703125 33.3837890625,16.5380859375 33.69140625,15.791015625 33.69140625,11.572265625 33.369140625,10.83984375 32.63671875,10.517578125z M55.78125,8.4375L55.048828125,8.73046875 52.939453125,10.83984375 52.6171875,11.6015625 52.939453125,12.333984375 53.671875,12.65625 54.43359375,12.333984375 56.54296875,10.224609375 56.8359375,9.4921875 56.5283203125,8.7451171875 55.78125,8.4375z M9.462890625,8.4375L8.73046875,8.759765625 8.408203125,9.4921875 8.73046875,10.224609375 10.83984375,12.333984375 11.572265625,12.65625 12.3046875,12.333984375 12.626953125,11.6015625 12.333984375,10.83984375 10.224609375,8.73046875 9.462890625,8.4375z M32.63671875,4.21874952316284L31.8896484375,4.5263671875 31.58203125,5.2734375 31.58203125,7.3828125 31.8896484375,8.1298828125 32.63671875,8.4375 33.3837890625,8.1298828125 33.69140625,7.3828125 33.69140625,5.2734375 33.3837890625,4.5263671875 32.63671875,4.21874952316284z M32.63671875,0L34.6875,0.410156488418579 36.3720703125,1.53808617591858 37.5,3.22265577316284 37.91015625,5.2734375 37.91015625,9.521484375 39.404296875,8.70849609375 41.07421875,8.4375 42.6562461853027,8.671875 44.0625,9.375 45.966796875,11.865234375 52.08984375,5.7421875 53.8037109375,4.6142578125 55.810546875,4.21874952316284 57.861328125,4.62890625 59.53125,5.7568359375 60.64453125,7.44140625 61.0546875,9.4921875 60.66650390625,11.50634765625 59.501953125,13.212890625 53.759765625,18.955078125 55.7958984375,19.3798828125 57.451171875,20.5224609375 58.564453125,22.1923828125 58.974609375,24.228515625 58.681640625,25.8837890625 57.861328125,27.36328125 62.109375,27.36328125 64.16015625,27.7734375 65.8447265625,28.9013671875 66.97265625,30.5859375 67.3828125,32.63671875 66.97265625,34.7021484375 65.8447265625,36.3720703125 64.16015625,37.5 62.109375,37.91015625 57.861328125,37.91015625 58.681640625,39.404296875 58.974609375,41.07421875 58.564453125,43.1103515625 57.451171875,44.7802734375 55.7958984375,45.908203125 53.759765625,46.318359375 61.640625,54.19921875 62.783203125,55.9130859375 63.1640625,57.919921875 62.75390625,59.9560546875 61.6259765625,61.6259765625 59.9560546875,62.75390625 57.919921875,63.1640625 55.927734375,62.783203125 54.228515625,61.669921875 45.966796875,53.4375 44.0625,55.927734375 42.6562461853027,56.630859375 41.07421875,56.865234375 40.01953125,56.748046875 40.01953125,67.3828125 25.25390625,67.3828125 25.25390625,56.748046875 24.228515625,56.865234375 22.6428203582764,56.630859375 21.2255859375,55.927734375 19.306640625,53.4375 11.103515625,61.640625 9.375,62.783203125 7.35351657867432,63.1640625 5.3173828125,62.75390625 3.6474609375,61.6259765625 2.51953125,59.9560546875 2.109375,57.919921875 2.6806640625,55.546875 4.21875,53.61328125 11.513671875,46.318359375 9.4921875,45.908203125 7.8515625,44.7802734375 6.73828125,43.1103515625 6.328125,41.07421875 6.59912014007568,39.404296875 7.412109375,37.91015625 5.2734375,37.91015625 3.20800685882568,37.5 1.5380859375,36.3720703125 0.410156726837158,34.7021484375 0,32.63671875 0.410156726837158,30.5859375 1.5380859375,28.9013671875 3.20800685882568,27.7734375 5.2734375,27.36328125 7.412109375,27.36328125 6.59912014007568,25.8764667510986 6.328125,24.228515625 6.72363376617432,22.1923828125 7.822265625,20.5224609375 9.4775390625,19.3798828125 11.513671875,18.955078125 5.7421875,13.212890625 4.6142578125,11.4990234375 4.21875,9.4921875 4.62890625,7.44140625 5.7568359375,5.7568359375 7.4267578125,4.62890625 9.462890625,4.21874952316284 11.4697265625,4.59960889816284 13.18359375,5.71289110183716 19.306640625,11.865234375 21.2255859375,9.375 22.6428203582764,8.671875 24.228515625,8.4375 25.8837890625,8.73046875 27.36328125,9.521484375 27.36328125,5.2734375 27.7734375,3.22265577316284 28.9013671875,1.53808617591858 30.5712890625,0.410156488418579 32.63671875,0z" />
    </g>
  </g>
</svg>