<?xml version="1.0" encoding="utf-8"?>
<!DOCTYPE svg PUBLIC "-//W3C//DTD SVG 1.1//EN" "http://www.w3.org/Graphics/SVG/1.1/DTD/svg11.dtd">
<svg width="46.3183593750006" height="67.3828125" xmlns="http://www.w3.org/2000/svg" xmlns:xlink="http://www.w3.org/1999/xlink" xmlns:xml="http://www.w3.org/XML/1998/namespace" version="1.1">
  <g>
    <g>
      <path style="fill:#FF0000;fill-opacity:1" d="M23.173828125,12.626953125L25.279541015625,12.835693359375 27.2607421875,13.4619140625 30.6005859375,15.732421875 32.8564453125,19.0869140625 33.482666015625,21.068115234375 33.69140625,23.173828125 33.0615234375,24.6533203125 31.58203125,25.283203125 30.1025390625,24.6533203125 29.47265625,23.173828125 28.974609375,20.7421875 27.6123046875,18.7353515625 25.60546875,17.3583984375 23.173828125,16.845703125 21.6796875,16.23046875 21.064453125,14.736328125 21.6796875,13.2421875 23.173828125,12.626953125z M23.173828125,10.517578125L20.5737285614014,10.770263671875 18.1640625,11.5283203125 14.150390625,14.296875 11.484375,18.4130859375 10.75927734375,20.848388671875 10.517578125,23.4375 13.06640625,24.5654296875 15.0732421875,26.42578125 16.376953125,28.828125 16.845703125,31.58203125 16.376953125,34.3359375 15.0732421875,36.73828125 13.0810546875,38.61328125 10.517578125,39.755859375 10.517578125,43.095703125 12.5537109375,42.37060546875 14.736328125,42.12890625 16.9042949676514,42.37060546875 18.955078125,43.095703125 18.955078125,40.01953125 19.453125,37.5732421875 20.80078125,35.5517578125 22.8076171875,34.189453125 25.25390625,33.69140625 31.58203125,33.69140625 33.2373046875,33.369140625 34.5849609375,32.4755859375 35.478515625,31.1279296875 35.80078125,29.47265625 35.80078125,23.173828125 35.5517578125,20.643310546875 34.8046875,18.2666015625 32.0947265625,14.23828125 28.0810546875,11.513671875 25.704345703125,10.7666015625 23.173828125,10.517578125z M22.646484375,8.4375L27.0703125,8.9501953125 29.091796875,9.656982421875 31.11328125,10.751953125 33.955078125,13.1103515625 36.09375,16.083984375 37.44140625,19.4970703125 37.91015625,23.173828125 37.91015625,29.47265625 37.2802734375,32.28515625 35.419921875,34.51171875 34.541015625,35.0390625 33.603515625,35.478515625 31.93359375,35.7861328125 29.443359375,35.859375 27.041015625,35.830078125 25.25390625,35.80078125 23.61328125,36.1376953125 22.2802734375,37.0458984375 21.38671875,38.37890625 21.064453125,40.01953125 21.064453125,47.841796875 18.369140625,45.205078125 16.6113262176514,44.4580078125 14.736328125,44.208984375 12.843017578125,44.45068359375 11.0888671875,45.17578125 8.408203125,47.841796875 8.408203125,23.173828125 8.6865234375,20.33203125 9.521484375,17.607421875 10.83984375,15.098876953125 12.568359375,12.9052734375 14.666748046875,11.07421875 17.0947265625,9.6533203125 19.7790508270264,8.741455078125 22.646484375,8.4375z M23.173828125,4.21874952316284L18.1201171875,4.892578125 13.59375,6.796875 9.755859375,9.755859375 6.796875,13.59375 4.892578125,18.134765625 4.21875,23.173828125 4.21875,52.646484375 4.423828125,54.752197265625 5.0390625,56.7333984375 7.294921875,60.087890625 10.6494140625,62.34375 12.630615234375,62.958984375 14.736328125,63.1640625 16.8420391082764,62.955322265625 18.8232421875,62.3291015625 22.1630859375,60.0732421875 24.4189453125,56.7333984375 25.045166015625,54.752197265625 25.25390625,52.646484375 25.25390625,50.537109375 30.380859375,46.2158203125 35.419921875,41.806640625 38.250732421875,38.72314453125 40.3564453125,35.33203125 41.6638145446777,31.5673828125 42.099609375,27.36328125 42.099609375,23.173828125 41.7297325134277,19.365234375 40.6201171875,15.791015625 38.865966796875,12.557373046875 36.5625,9.7705078125 33.768310546875,7.474365234375 30.5419921875,5.71289110183716 26.978759765625,4.59228801727295 23.173828125,4.21874952316284z M23.173828125,0L26.30859375,0.208743035793304 29.326171875,0.834960460662842 34.8486328125,3.17871117591858 39.5361328125,6.796875 43.1689453125,11.484375 45.498046875,17.021484375 46.1132774353027,20.0390625 46.318359375,23.173828125 46.318359375,27.36328125 45.7910118103027,32.51953125 44.208984375,37.08984375 41.6381797790527,41.2060546875 38.14453125,45 33.8525390625,48.779296875 29.47265625,52.470703125 29.18701171875,55.455322265625 28.330078125,58.2568359375 26.97509765625,60.79833984375 25.1953125,63.0029296875 23.0310039520264,64.822998046875 20.5224609375,66.2109375 17.7355937957764,67.08984375 14.736328125,67.3828125 11.781005859375,67.093505859375 9.0087890625,66.2255859375 6.49658107757568,64.85595703125 4.3212890625,63.0615234375 2.52685546875,60.88623046875 1.1572265625,58.3740234375 0.289306282997131,55.601806640625 0,52.646484375 0,23.173828125 0.208739876747131,20.0390625 0.8349609375,17.021484375 3.1787109375,11.484375 6.796875,6.796875 11.484375,3.17871117591858 17.021484375,0.834960460662842 20.0390605926514,0.208743035793304 23.173828125,0z" />
    </g>
  </g>
</svg>