<?xml version="1.0" encoding="utf-8"?>
<!DOCTYPE svg PUBLIC "-//W3C//DTD SVG 1.1//EN" "http://www.w3.org/Graphics/SVG/1.1/DTD/svg11.dtd">
<svg width="67.3828125" height="50.537109375" xmlns="http://www.w3.org/2000/svg" xmlns:xlink="http://www.w3.org/1999/xlink" xmlns:xml="http://www.w3.org/XML/1998/namespace" version="1.1">
  <g>
    <g>
      <path style="fill:#FF0000;fill-opacity:1" d="M56.865234375,10.517578125L56.865234375,44.208984375 58.9453125,44.208984375 58.9453125,10.517578125 56.865234375,10.517578125z M61.0546875,8.408203125L61.0546875,42.099609375 63.1640625,42.099609375 63.1640625,8.408203125 61.0546875,8.408203125z M10.517578125,8.408203125L9.3896484375,8.6865234375 8.7451171875,9.404296875 8.466796875,10.4150390625 8.408203125,11.54296875 8.408203125,12.626953125 4.21875,12.626953125 4.21875,46.318359375 54.755859375,46.318359375 54.755859375,12.626953125 21.064453125,12.626953125 21.064453125,11.572265625 21.005859375,10.4443359375 20.7275390625,9.4189453125 20.0830078125,8.6865234375 18.955078125,8.408203125 10.517578125,8.408203125z M29.47265625,6.298828125L27.9931640625,6.9287109375 27.36328125,8.408203125 27.36328125,10.517578125 40.01953125,10.517578125 40.01953125,8.408203125 39.3896484375,6.9287109375 37.91015625,6.298828125 29.47265625,6.298828125z M48.427734375,4.189453125L46.9482421875,4.8193359375 46.318359375,6.298828125 46.318359375,8.408203125 58.9453125,8.408203125 58.9453125,6.298828125 58.330078125,4.8193359375 56.865234375,4.189453125 48.427734375,4.189453125z M48.427734375,0L56.865234375,0 58.7841796875,0.307617664337158 60.4833984375,1.1572265625 61.8603515625,2.47558546066284 62.8125,4.189453125 67.3828125,4.189453125 67.3828125,46.318359375 63.1640625,46.318359375 63.1640625,48.427734375 58.9453125,48.427734375 58.9453125,50.537109375 0,50.537109375 0,8.408203125 4.5703125,8.408203125 5.5224609375,6.72363376617432 6.8994140625,5.390625 8.5986328125,4.51171875 10.517578125,4.189453125 24.78515625,4.189453125 26.89453125,2.6220703125 29.47265625,2.08007764816284 37.91015625,2.08007764816284 40.4296875,2.6220703125 42.509765625,4.1015625 43.4619140625,2.43164110183716 44.8388671875,1.1279296875 46.5234375,0.292969226837158 48.427734375,0z" />
    </g>
  </g>
</svg>