<?xml version="1.0" encoding="utf-8"?>
<!DOCTYPE svg PUBLIC "-//W3C//DTD SVG 1.1//EN" "http://www.w3.org/Graphics/SVG/1.1/DTD/svg11.dtd">
<svg width="43.359375" height="43.359375" xmlns="http://www.w3.org/2000/svg" xmlns:xlink="http://www.w3.org/1999/xlink" xmlns:xml="http://www.w3.org/XML/1998/namespace" version="1.1">
  <g>
    <g>
      <path style="fill:#FF0000;fill-opacity:1" d="M13.0078125,28.916015625L13.0078125,41.923828125 20.244140625,41.923828125 20.244140625,28.916015625 13.0078125,28.916015625z M8.671875,1.435546875L8.671875,18.779296875 9.0380859375,19.8486328125 10.107421875,20.21484375 33.251953125,20.244140625 34.32861328125,19.8779296875 34.6875,18.779296875 34.6875,1.435546875 8.671875,1.435546875z M2.900390625,1.435546875L1.80175757408142,1.79443359375 1.43554735183716,2.87109375 1.43554735183716,37.001953125 6.357421875,41.923828125 11.572265625,41.923828125 11.572265625,28.916015625 11.93115234375,27.8173828125 13.0078125,27.451171875 30.3515625,27.451171875 31.4501953125,27.8173828125 31.81640625,28.916015625 31.81640625,41.923828125 40.48828125,41.923828125 41.572265625,41.5576171875 41.923828125,40.48828125 41.923828125,2.87109375 41.56494140625,1.79443359375 40.48828125,1.435546875 36.15234375,1.435546875 36.15234375,18.779296875 35.93994140625,19.892578125 35.302734375,20.830078125 34.365234375,21.46728515625 33.251953125,21.6796875 10.107421875,21.6796875 8.99780178070068,21.46728515625 8.0712890625,20.830078125 7.44506740570068,19.892578125 7.236328125,18.779296875 7.236328125,1.435546875 2.900390625,1.435546875z M2.900390625,0L40.48828125,0 41.597900390625,0.208740234375 42.5244140625,0.8349609375 43.1506309509277,1.761474609375 43.359375,2.87109375 43.359375,40.458984375 43.1506309509277,41.572265625 42.5244140625,42.509765625 41.597900390625,43.14697265625 40.48828125,43.359375 5.771484375,43.359375 0,37.587890625 0,2.87109375 0.21240234375,1.761474609375 0.849609375,0.8349609375 1.78710901737213,0.208740234375 2.900390625,0z" />
    </g>
  </g>
</svg>