<?xml version="1.0" encoding="utf-8"?>
<!DOCTYPE svg PUBLIC "-//W3C//DTD SVG 1.1//EN" "http://www.w3.org/Graphics/SVG/1.1/DTD/svg11.dtd">
<svg width="35.21484375" height="42.099609375" xmlns="http://www.w3.org/2000/svg" xmlns:xlink="http://www.w3.org/1999/xlink" xmlns:xml="http://www.w3.org/XML/1998/namespace" version="1.1">
  <g>
    <g>
      <path style="fill:#FF0000;fill-opacity:1" d="M35.21484375,0L35.21484375,25.693359375 35.0152587890625,26.97509765625 34.41650390625,28.154296875 33.4185791015625,29.23095703125 32.021484375,30.205078125 29.208984375,31.3916015625 26.337890625,31.787109375 24.16259765625,31.58203125 22.265625,30.966796875 20.5517559051514,29.67041015625 19.98046875,27.890625 20.1947002410889,26.689453125 20.8374004364014,25.60546875 21.9085674285889,24.638671875 23.408203125,23.7890625 26.18408203125,22.822265625 29.00390625,22.5 32.578125,23.115234375 32.578125,9.990234375 15.05859375,17.75390625 15.05859375,35.888671875 14.8626699447632,37.1612548828125 14.2749004364014,38.34228515625 13.2952871322632,39.4317626953125 11.923828125,40.4296875 9.14794921875,41.68212890625 6.328125,42.099609375 4.17480373382568,41.89453125 2.28515625,41.279296875 0.5712890625,39.99755859375 0,38.203125 0.21240234375,37.012939453125 0.849609375,35.9326171875 1.91162109375,34.962158203125 3.3984375,34.1015625 6.17431592941284,33.134765625 8.994140625,32.8125 12.451171875,33.3984375 12.451171875,10.01953125 35.21484375,0z" />
    </g>
  </g>
</svg>