<?xml version="1.0" encoding="utf-8"?>
<!DOCTYPE svg PUBLIC "-//W3C//DTD SVG 1.1//EN" "http://www.w3.org/Graphics/SVG/1.1/DTD/svg11.dtd">
<svg width="67.3828125000349" height="67.3828125" xmlns="http://www.w3.org/2000/svg" xmlns:xlink="http://www.w3.org/1999/xlink" xmlns:xml="http://www.w3.org/XML/1998/namespace" version="1.1">
  <g>
    <g>
      <path style="fill:#FF0000;fill-opacity:1" d="M47.197265625,42.12890625L46.318359375,42.978515625 46.318359375,47.724609375 37.91015625,58.974609375 37.91015625,63.1640625 42.099609375,63.1640625 42.099609375,58.974609375 53.994140625,48.544921875 47.548828125,42.12890625 47.197265625,42.12890625z M12.626953125,40.01953125L11.1328125,40.634765625 10.517578125,42.12890625 10.517578125,50.537109375 11.07421875,51.9580078125 12.1875,53.0859375 14.296875,55.1953125 16.875,52.6171875 16.9921875,51.9140625 14.736328125,49.658203125 14.736328125,44.208984375 21.064453125,44.208984375 21.064453125,40.517578125 20.80078125,40.01953125 12.626953125,40.01953125z M42.099609375,29.47265625L42.099609375,33.69140625 40.634765625,34.3212890625 40.01953125,35.80078125 46.318359375,35.80078125 46.318359375,29.47265625 42.099609375,29.47265625z M54.755859375,27.36328125L54.755859375,42.12890625 50.537109375,42.12890625 58.9453125,50.537109375 50.537109375,63.1640625 54.755859375,63.1640625 63.1640625,50.537109375 63.1640625,35.478515625 62.4609375,32.314453125 60.6005859375,29.765625 57.919921875,28.0517578125 54.755859375,27.36328125z M39.43359375,27.36328125L38.5546875,28.4912109375 37.470703125,29.1357421875 36.240234375,29.4140625 34.921875,29.47265625 33.69140625,29.47265625 33.69140625,40.01953125 52.646484375,40.01953125 52.646484375,27.36328125 48.45703125,27.36328125 48.45703125,37.91015625 37.91015625,37.91015625 37.91015625,35.80078125 38.466796875,33.6767578125 40.01953125,32.138671875 40.01953125,27.36328125 39.43359375,27.36328125z M16.845703125,27.36328125L23.173828125,40.01953125 23.173828125,47.9296875 19.5703125,51.50390625 18.955078125,52.998046875 19.5703125,54.4921875 25.517578125,60.439453125 27.01171875,61.0546875 31.58203125,61.0546875 31.58203125,56.865234375 27.890625,56.865234375 24.0234375,52.998046875 28.59375,48.427734375 31.58203125,48.427734375 34.3798828125,48.1201171875 37.2216796875,47.2705078125 39.873046875,45.9521484375 42.099609375,44.208984375 44.208984375,42.12890625 31.58203125,42.12890625 31.58203125,29.47265625 28.330078125,29.47265625 26.923828125,29.4140625 25.6640625,29.1357421875 24.5947265625,28.4912109375 23.73046875,27.36328125 16.845703125,27.36328125z M27.36328125,23.173828125L25.8984375,23.818359375 25.25390625,25.283203125 25.4736328125,26.2060546875 26.044921875,26.8798828125 26.8505859375,27.2900390625 27.7734375,27.421875 28.623046875,27.392578125 29.47265625,27.36328125 29.47265625,23.173828125 27.36328125,23.173828125z M7.5,22.236328125L5.56640625,24.2578125 4.5703125,25.6640625 4.21875,27.36328125 4.541015625,29.00390625 5.4345703125,30.3369140625 6.767578125,31.2451171875 8.408203125,31.58203125 10.048828125,31.259765625 11.3818359375,30.3662109375 12.2900390625,29.0185546875 12.626953125,27.36328125 7.5,22.236328125z M13.681640625,18.955078125L14.4287109375,19.2626953125 14.736328125,20.009765625 14.736328125,22.119140625 14.4287109375,22.8662109375 13.681640625,23.173828125 12.9345703125,22.8662109375 12.626953125,22.119140625 12.626953125,20.009765625 12.9345703125,19.2626953125 13.681640625,18.955078125z M21.064453125,16.552734375L21.064453125,25.283203125 23.173828125,25.283203125 23.3972148895264,23.8732929229736 24.0673828125,22.6318359375 25.111083984375,21.683349609375 26.455078125,21.15234375 25.4736328125,20.4052734375 23.90625,19.0283203125 22.265625,17.578125 21.064453125,16.552734375z M61.0546875,12.626953125L59.4140625,12.9638671875 58.0810546875,13.8720703125 57.1875,15.205078125 56.865234375,16.845703125 56.865234375,23.173828125 56.455078125,25.400390625 58.2861328125,25.8837890625 60,26.66015625 60.791015625,25.0048828125 61.0546875,23.173828125 61.0546875,14.736328125 63.1640625,14.736328125 62.5341796875,13.2568359375 61.0546875,12.626953125z M44.208984375,12.626953125L44.208984375,21.064453125 45.439453125,21.064453125 43.359375,23.173828125 42.48046875,24.0966796875 42.099609375,25.283203125 42.099609375,27.392578125 46.318359375,27.392578125 46.318359375,26.1328125 47.05078125,25.751953125 49.16015625,24.5947265625 50.947265625,23.232421875 52.177734375,21.4453125 52.646484375,18.955078125 52.1484375,16.494140625 50.7861328125,14.4873046875 48.779296875,13.125 46.318359375,12.626953125 44.208984375,12.626953125z M37.734375,12.626953125L36.15234375,12.978515625 34.8779296875,13.9306640625 34.013671875,15.29296875 33.69140625,16.845703125 33.69140625,23.173828125 31.58203125,23.173828125 31.58203125,27.36328125 36.09375,27.36328125 36.796875,27.1875 37.3681640625,26.71875 37.763671875,26.07421875 37.91015625,25.37109375 37.91015625,21.064453125 42.099609375,21.064453125 42.099609375,12.626953125 37.734375,12.626953125z M14.736328125,10.517578125L14.736328125,15.263671875 13.59375,15.9375 12.59765625,16.845703125 8.525390625,21.15234375 12.626953125,25.283203125 18.955078125,25.283203125 18.955078125,14.736328125 18.6181640625,13.095703125 17.7099609375,11.7626953125 16.376953125,10.8544921875 14.736328125,10.517578125z M27.36328125,8.4375L27.36328125,10.517578125 27.7294921875,12.275390625 28.7255859375,13.6083984375 30.1904296875,14.443359375 31.962890625,14.736328125 32.5048828125,13.5205078125 33.427734375,12.392578125 34.5703125,11.4697265625 35.771484375,10.8984375 35.80078125,10.7080078125 35.80078125,10.517578125 35.80078125,8.4375 27.36328125,8.4375z M31.58203125,0L34.8779296875,0.659179925918579 37.55859375,2.46093702316284 39.3603515625,5.1416015625 40.01953125,8.4375 46.318359375,8.4375 48.5449180603027,8.668212890625 50.654296875,9.3603515625 52.5659141540527,10.477294921875 54.19921875,11.982421875 57.2021484375,9.375 59.080810546875,8.671875 61.0546875,8.4375 63.4716796875,8.935546875 65.4931640625,10.2978515625 66.8701171875,12.3046875 67.3828125,14.736328125 67.3828125,18.955078125 65.2734375,18.955078125 65.2880859375,20.2880859375 65.302734375,21.62109375 65.126953125,24.638671875 64.306640625,27.5390625 66.591796875,31.3916015625 67.18505859375,33.555908203125 67.3828125,35.80078125 67.3828125,51.826171875 57.01171875,67.3828125 33.69140625,67.3828125 33.69140625,65.2734375 31.3623046875,65.2880859375 29.033203125,65.302734375 28.76953125,65.302734375 26.8505859375,65.2587890625 24.990234375,64.951171875 23.0419921875,63.8232421875 20.9033203125,61.9189453125 18.8818359375,59.8388671875 17.28515625,58.154296875 14.296875,61.142578125 8.173828125,54.990234375 6.78954982757568,52.9248046875 6.328125,50.537109375 6.328125,42.12890625 6.796875,39.7412109375 8.0859375,37.763671875 10.0048828125,36.38671875 12.36328125,35.80078125 8.408203125,35.80078125 5.15625,35.126953125 2.490234375,33.2958984375 0.673828125,30.615234375 0,27.36328125 0.0146484375,26.923828125 0.0585942268371582,26.3671875 0.1318359375,25.8251953125 0.234375,25.400390625 0.556640625,24.8291015625 0.9375,24.287109375 1.94824314117432,22.705078125 2.841796875,21.03515625 3.9111328125,18.2666015625 4.833984375,15.439453125 7.060546875,11.7919921875 10.517578125,9.31640625 10.517578125,6.328125 11.9677734375,6.3134765625 13.41796875,6.298828125 17.0654296875,6.6943359375 18.7243633270264,7.327880859375 20.2734375,8.4375 21.416015625,8.4375 23.408203125,6.4453125 24.5361328125,3.85253858566284 26.396484375,1.81640672683716 28.798828125,0.483398199081421 31.58203125,0z" />
    </g>
  </g>
</svg>