<?xml version="1.0" encoding="utf-8"?>
<!DOCTYPE svg PUBLIC "-//W3C//DTD SVG 1.1//EN" "http://www.w3.org/Graphics/SVG/1.1/DTD/svg11.dtd">
<svg width="50.888671875" height="38.90625" xmlns="http://www.w3.org/2000/svg" xmlns:xlink="http://www.w3.org/1999/xlink" xmlns:xml="http://www.w3.org/XML/1998/namespace" version="1.1">
  <g>
    <g>
      <path style="fill:#FF0000;fill-opacity:1" d="M13.447265625,31.376953125L36.123046875,31.376953125 36.123046875,34.62890625 13.447265625,34.62890625 13.447265625,31.376953125z M39.4921875,25.83984375L42.744140625,25.83984375 42.744140625,29.091796875 39.4921875,29.091796875 39.4921875,25.83984375z M32.87109375,25.83984375L36.123046875,25.83984375 36.123046875,29.091796875 32.87109375,29.091796875 32.87109375,25.83984375z M26.42578125,25.83984375L29.677734375,25.83984375 29.677734375,29.091796875 26.42578125,29.091796875 26.42578125,25.83984375z M19.921875,25.83984375L23.173828125,25.83984375 23.173828125,29.091796875 19.921875,29.091796875 19.921875,25.83984375z M13.447265625,25.83984375L16.69921875,25.83984375 16.69921875,29.091796875 13.447265625,29.091796875 13.447265625,25.83984375z M7.001953125,25.83984375L10.25390625,25.83984375 10.25390625,29.091796875 7.001953125,29.091796875 7.001953125,25.83984375z M39.4921875,19.62890625L42.744140625,19.62890625 42.744140625,22.880859375 39.4921875,22.880859375 39.4921875,19.62890625z M32.87109375,19.62890625L36.123046875,19.62890625 36.123046875,22.880859375 32.87109375,22.880859375 32.87109375,19.62890625z M26.42578125,19.62890625L29.677734375,19.62890625 29.677734375,22.880859375 26.42578125,22.880859375 26.42578125,19.62890625z M19.921875,19.62890625L23.173828125,19.62890625 23.173828125,22.880859375 19.921875,22.880859375 19.921875,19.62890625z M13.447265625,19.62890625L16.69921875,19.62890625 16.69921875,22.880859375 13.447265625,22.880859375 13.447265625,19.62890625z M7.001953125,19.62890625L10.25390625,19.62890625 10.25390625,22.880859375 7.001953125,22.880859375 7.001953125,19.62890625z M1.69921898841858,16.728515625L1.69921898841858,37.236328125 49.16015625,37.236328125 49.16015625,16.728515625 1.69921898841858,16.728515625z M22.265625,0L22.67578125,0.087890625 22.822265625,0.615234375 22.63916015625,1.6259765625 22.08984375,3.017578125 21.5625,5.244140625 21.8701171875,6.8408203125 22.734375,8.173828125 24.0234375,9.0966796875 25.634765625,9.43359375 27.4035625457764,9.32739448547363 29.6044921875,9.0087890625 32.288818359375,8.47046089172363 35.5078125,7.705078125 38.45947265625,7.11181735992432 40.986328125,6.9140625 44.2236328125,7.5146484375 46.494140625,9.19921875 47.8564453125,11.7626953125 48.33984375,15.029296875 50.888671875,15.029296875 50.888671875,38.90625 0,38.90625 0,15.029296875 46.083984375,15.029296875 45.7177734375,12.59765625 44.7802734375,10.751953125 43.1689453125,9.5654296875 40.751953125,9.140625 37.39013671875,9.44824409484863 32.98828125,10.37109375 29.2382793426514,11.1401386260986 26.19140625,11.396484375 23.4814453125,11.0009765625 21.4013671875,9.8583984375 20.068359375,8.02734375 19.599609375,5.537109375 19.951171875,3.310546875 20.4803466796875,1.8621826171875 21.04248046875,0.82763671875 21.6375732421875,0.2069091796875 22.265625,0z" />
    </g>
  </g>
</svg>