<?xml version="1.0" encoding="utf-8"?>
<!DOCTYPE svg PUBLIC "-//W3C//DTD SVG 1.1//EN" "http://www.w3.org/Graphics/SVG/1.1/DTD/svg11.dtd">
<svg width="58.30078125" height="47.548828125" xmlns="http://www.w3.org/2000/svg" xmlns:xlink="http://www.w3.org/1999/xlink" xmlns:xml="http://www.w3.org/XML/1998/namespace" version="1.1">
  <g>
    <g>
      <path style="fill:#FF0000;fill-opacity:1" d="M35.68359375,42.48046875L36.62109375,44.1796875 39.375,44.1796875 38.173828125,42.48046875 35.68359375,42.48046875z M32.197265625,42.48046875L32.724609375,44.1796875 35.712890625,44.1796875 34.921875,42.48046875 32.197265625,42.48046875z M28.76953125,42.48046875L28.76953125,44.1796875 31.904296875,44.1796875 31.435546875,42.48046875 28.76953125,42.48046875z M25.72265625,42.48046875L25.3125,44.1796875 28.212890625,44.1796875 28.2421875,42.48046875 25.72265625,42.48046875z M22.705078125,42.48046875L21.943359375,44.1796875 24.697265625,44.1796875 25.1953125,42.48046875 22.705078125,42.48046875z M19.62890625,42.48046875L18.310546875,44.1796875 21.2109375,44.1796875 22.1484375,42.48046875 19.62890625,42.48046875z M22.734375,30.322265625L22.734375,33.8671875 35.15625,33.8671875 35.15625,30.322265625 22.734375,30.322265625z M19.74609375,27.890625L37.44140625,27.890625 38.16650390625,28.06640625 38.408203125,28.59375 38.408203125,39.9609375 37.734375,40.6640625 19.74609375,40.6640625 19.072265625,39.9609375 19.072265625,28.59375 19.74609375,27.890625z M19.5703125,27.48046875L18.8232421875,27.7294921875 18.57421875,28.4765625 18.57421875,40.078125 18.8232421875,40.8251953125 19.5703125,41.07421875 37.91015625,41.07421875 38.6572265625,40.8251953125 38.90625,40.078125 38.90625,28.4765625 38.583984375,27.7294921875 37.6171875,27.48046875 19.5703125,27.48046875z M48.310546875,23.84765625L50.6542930603027,24.342041015625 52.587890625,25.8251953125 53.8842735290527,27.960205078125 54.31640625,30.41015625 53.8915977478027,32.841796875 52.6171875,34.921875 50.6616172790527,36.43798828125 48.310546875,36.943359375 45.9521484375,36.4453125 43.974609375,34.951171875 42.72216796875,32.84912109375 42.3046875,30.41015625 42.72216796875,27.97119140625 43.974609375,25.869140625 45.9521484375,24.35302734375 48.310546875,23.84765625z M9.55078125,23.84765625L11.8945302963257,24.342041015625 13.828125,25.8251953125 15.12451171875,27.960205078125 15.556640625,30.41015625 15.1318359375,32.841796875 13.857421875,34.921875 11.9018545150757,36.43798828125 9.55078125,36.943359375 7.18505859375,36.45263671875 5.24414014816284,34.98046875 3.94775390625,32.8564453125 3.51562547683716,30.41015625 3.94775390625,27.960205078125 5.24414014816284,25.8251953125 7.18505859375,24.342041015625 9.55078125,23.84765625z M48.310546875,22.96875L45.618896484375,23.5290546417236 43.4033203125,25.2099609375 41.920166015625,27.630615234375 41.42578125,30.41015625 41.9091796875,33.17138671875 43.359375,35.537109375 45.60791015625,37.2509765625 48.310546875,37.822265625 51.0131797790527,37.2509765625 53.26171875,35.537109375 54.7119102478027,33.17138671875 55.1953125,30.41015625 54.7119102478027,27.6416015625 53.26171875,25.25390625 51.0131797790527,23.5400409698486 48.310546875,22.96875z M9.55078125,22.96875L6.85546875,23.5290546417236 4.62890577316284,25.2099609375 3.13476538658142,27.630615234375 2.63671851158142,30.41015625 3.12744116783142,33.17138671875 4.59960889816284,35.537109375 6.84814453125,37.2509765625 9.55078125,37.822265625 12.2534170150757,37.2509765625 14.501953125,35.537109375 15.9521484375,33.17138671875 16.435546875,30.41015625 15.9521484375,27.6416015625 14.501953125,25.25390625 12.2534170150757,23.5400409698486 9.55078125,22.96875z M24.638671875,22.67578125L25.1953125,22.67578125 25.1953125,25.576171875 25.986328125,25.576171875 25.986328125,24.55078125 26.279296875,24.55078125 26.279296875,25.576171875 28.798828125,25.576171875 28.798828125,24.55078125 29.091796875,24.55078125 29.091796875,25.576171875 31.318359375,25.576171875 31.318359375,24.55078125 31.611328125,24.55078125 31.611328125,25.576171875 33.779296875,25.576171875 33.779296875,24.55078125 34.072265625,24.55078125 34.072265625,25.576171875 36.767578125,25.576171875 36.767578125,24.55078125 37.060546875,24.55078125 37.060546875,25.869140625 25.1953125,25.869140625 25.1953125,26.455078125 24.638671875,26.455078125 24.638671875,25.869140625 19.86328125,25.869140625 19.86328125,24.55078125 20.15625,24.55078125 20.15625,25.576171875 22.939453125,25.576171875 22.939453125,24.55078125 23.232421875,24.55078125 23.232421875,25.576171875 24.638671875,25.576171875 24.638671875,22.67578125z M18.984375,22.001953125L18.984375,26.689453125 38.0859375,26.689453125 38.0859375,22.001953125 18.984375,22.001953125z M46.904296875,10.224609375L50.625,13.564453125 50.361328125,13.828125 46.669921875,10.458984375 46.904296875,10.224609375z M41.865234375,10.13671875L42.099609375,10.37109375 38.408203125,13.740234375 38.14453125,13.4765625 41.865234375,10.13671875z M47.87109375,7.55859375L53.203125,7.55859375 53.203125,8.02734375 47.87109375,8.02734375 47.87109375,7.55859375z M36.181640625,7.55859375L41.513671875,7.55859375 41.513671875,8.02734375 36.181640625,8.02734375 36.181640625,7.55859375z M44.8828125,6.5625L45.9375,6.9140625 46.2890625,7.96875 45.9375,9.0380859375 44.8828125,9.375 44.82421875,9.375 40.869140625,20.888671875 43.4454345703125,21.0406513214111 46.69189453125,21.2915058135986 50.6085205078125,21.6412372589111 55.1953125,22.08984375 56.5539512634277,24.554443359375 57.5244102478027,27.2021484375 58.1066856384277,30.032958984375 58.30078125,33.046875 58.1066856384277,36.21826171875 57.5244102478027,39.31640625 56.5539512634277,42.34130859375 55.1953125,45.29296875 46.69921875,45.29296875 47.1826133728027,45.732421875 47.34375,46.69921875 47.1313438415527,47.33642578125 46.494140625,47.548828125 38.935546875,47.548828125 38.29833984375,47.18994140625 38.0859375,46.11328125 38.73046875,45.29296875 18.427734375,45.29296875 18.9111328125,45.732421875 19.072265625,46.69921875 18.85986328125,47.33642578125 18.22265625,47.548828125 10.6640625,47.548828125 10.02685546875,47.18994140625 9.814453125,46.11328125 10.458984375,45.29296875 3.33984327316284,45.29296875 1.87866187095642,42.1014404296875 0.834960877895355,38.94287109375 0.208740204572678,35.8172607421875 0,32.724609375 0.208740204572678,29.8187255859375 0.834960877895355,27.07763671875 1.87866187095642,24.5013427734375 3.33984327316284,22.08984375 15.05126953125,20.9472675323486 27.333984375,20.56640625 39.7265625,20.830078125 44.150390625,9.140625 43.505859375,7.96875 43.85009765625,6.9140625 44.8828125,6.5625z M49.98046875,1.66992211341858L50.244140625,1.93359351158142 46.5234375,5.2734375 46.2890625,5.0390625 49.98046875,1.66992211341858z M39.697265625,1.66992211341858L43.388671875,5.0390625 43.154296875,5.2734375 39.43359375,1.93359351158142 39.697265625,1.66992211341858z M44.677734375,0L45.17578125,0 45.17578125,3.83789038658142 44.677734375,3.83789038658142 44.677734375,0z" />
    </g>
  </g>
</svg>