<?xml version="1.0" encoding="utf-8"?>
<!DOCTYPE svg PUBLIC "-//W3C//DTD SVG 1.1//EN" "http://www.w3.org/Graphics/SVG/1.1/DTD/svg11.dtd">
<svg width="63.515625" height="63.1640625" xmlns="http://www.w3.org/2000/svg" xmlns:xlink="http://www.w3.org/1999/xlink" xmlns:xml="http://www.w3.org/XML/1998/namespace" version="1.1">
  <g>
    <g>
      <path style="fill:#FF0000;fill-opacity:1" d="M17.021484375,12.626953125L14.560546875,13.125 12.5537109375,14.4873046875 11.19140625,16.494140625 10.693359375,18.955078125 10.693359375,29.47265625 4.39453125,35.80078125 5.244140625,39.9755859375 6.767578125,43.9453125 8.748779296875,47.574462890625 11.1181640625,50.6689453125 13.839111328125,53.250732421875 16.875,55.341796875 20.2075176239014,56.94580078125 23.818359375,58.06640625 27.67822265625,58.7255859375 31.7578125,58.9453125 35.859375,58.7255859375 39.7265625,58.06640625 43.3373985290527,56.949462890625 46.669921875,55.3564453125 49.7021446228027,53.2763671875 52.412109375,50.6982421875 54.77783203125,47.596435546875 56.77734375,43.9453125 58.2861328125,39.9609375 59.12109375,35.80078125 52.822265625,29.47265625 52.822265625,18.955078125 52.32421875,16.494140625 50.9619140625,14.4873046875 48.955078125,13.125 46.494140625,12.626953125 17.021484375,12.626953125z M28.59375,4.21874952316284L26.953125,4.54101514816284 25.6201171875,5.43456935882568 24.7119140625,6.767578125 24.375,8.408203125 12.802734375,8.408203125 10.341796875,8.90625 8.349609375,10.2685546875 7.001953125,12.275390625 6.50390625,14.736328125 6.50390625,30.703125 8.583984375,28.59375 8.583984375,18.955078125 9.2138671875,15.732421875 11.07421875,13.0078125 13.798828125,11.1474609375 17.021484375,10.517578125 46.494140625,10.517578125 49.716796875,11.162109375 52.470703125,13.0078125 54.287109375,15.732421875 54.931640625,18.955078125 54.931640625,28.59375 57.041015625,30.703125 57.041015625,14.736328125 56.54296875,12.275390625 55.1806640625,10.2685546875 53.173828125,8.90625 50.712890625,8.408203125 39.140625,8.408203125 38.8037109375,6.767578125 37.8955078125,5.43456935882568 36.5625,4.54101514816284 34.921875,4.21874952316284 33.1787109375,4.599609375 31.7578125,5.65429592132568 30.3369140625,4.599609375 28.59375,4.21874952316284z M28.59375,0L31.7578125,0.615233659744263 34.921875,0 37.119140625,0.281984955072403 39.140625,1.12792921066284 40.8764610290527,2.46460199356079 42.216796875,4.21874952316284 50.712890625,4.21874952316284 52.8185997009277,4.42749261856079 54.7998046875,5.0537109375 58.1396484375,7.30956983566284 60.3955078125,10.6494140625 61.021728515625,12.630615234375 61.23046875,14.736328125 61.23046875,31.93359375 63.515625,34.21875 63.33984375,36.181640625 62.2412109375,41.71875 60.087890625,46.93359375 57.718505859375,50.819091796875 54.9462890625,54.1552734375 51.8115196228027,56.949462890625 48.3544921875,59.208984375 44.5935020446777,60.948486328125 40.546875,62.1826171875 36.2548828125,62.918701171875 31.7578125,63.1640625 27.242431640625,62.918701171875 22.9541015625,62.1826171875 18.9184551239014,60.948486328125 15.1611328125,59.208984375 11.7041015625,56.949462890625 8.5693359375,54.1552734375 5.79711866378784,50.819091796875 3.427734375,46.93359375 1.2744140625,41.71875 0.17578125,36.181640625 0,34.21875 2.28515625,31.93359375 2.28515625,14.736328125 2.493896484375,12.630615234375 3.1201171875,10.6494140625 5.3759765625,7.30956983566284 8.7158203125,5.0537109375 10.697021484375,4.42749261856079 12.802734375,4.21874952316284 21.298828125,4.21874952316284 22.63916015625,2.46460199356079 24.375,1.12792921066284 26.396484375,0.281984955072403 28.59375,0z" />
    </g>
  </g>
</svg>