<?xml version="1.0" encoding="utf-8"?>
<!DOCTYPE svg PUBLIC "-//W3C//DTD SVG 1.1//EN" "http://www.w3.org/Graphics/SVG/1.1/DTD/svg11.dtd">
<svg width="63.1640625000015" height="67.3828125" xmlns="http://www.w3.org/2000/svg" xmlns:xlink="http://www.w3.org/1999/xlink" xmlns:xml="http://www.w3.org/XML/1998/namespace" version="1.1">
  <g>
    <g>
      <path style="fill:#FF0000;fill-opacity:1" d="M50.537109375,37.91015625L49.04296875,38.525390625 48.427734375,40.01953125 49.0576171875,41.4990234375 50.537109375,42.12890625 52.646484375,42.12890625 52.646484375,37.91015625 50.537109375,37.91015625z M40.01953125,37.91015625L40.01953125,42.12890625 42.099609375,42.12890625 43.5791015625,41.4990234375 44.208984375,40.01953125 43.59375,38.525390625 42.099609375,37.91015625 40.01953125,37.91015625z M21.064453125,37.91015625L19.5703125,38.525390625 18.955078125,40.01953125 19.5849609375,41.4990234375 21.064453125,42.12890625 23.173828125,42.12890625 23.173828125,37.91015625 21.064453125,37.91015625z M10.517578125,37.91015625L10.517578125,42.12890625 12.626953125,42.12890625 14.1064453125,41.4990234375 14.736328125,40.01953125 14.12109375,38.525390625 12.626953125,37.91015625 10.517578125,37.91015625z M38.37890625,25.986328125L36.383056640625,28.0004901885986 34.9072265625,30.3515625 33.995361328125,32.9736328125 33.69140625,35.80078125 33.69140625,54.755859375 34.0283203125,56.396484375 34.9365234375,57.7294921875 36.26953125,58.6376953125 37.91015625,58.974609375 54.755859375,58.974609375 56.396484375,58.6376953125 57.7294921875,57.7294921875 58.623046875,56.396484375 58.9453125,54.755859375 58.9453125,35.80078125 58.641357421875,32.9736328125 57.7294921875,30.3515625 56.253662109375,28.0004901885986 54.2578125,25.986328125 52.9907188415527,28.2531757354736 51.240234375,30.0146484375 49.0576133728027,31.160888671875 46.494140625,31.58203125 48.2739219665527,31.83837890625 49.921875,32.490234375 52.646484375,34.74609375 51.591796875,35.80078125 56.865234375,35.80078125 56.865234375,52.646484375 56.2353515625,54.1259765625 54.755859375,54.755859375 53.26171875,54.140625 52.646484375,52.646484375 52.646484375,48.427734375 40.01953125,48.427734375 40.01953125,52.646484375 39.3896484375,54.1259765625 37.91015625,54.755859375 36.416015625,54.140625 35.80078125,52.646484375 35.80078125,35.80078125 41.07421875,35.80078125 40.01953125,34.74609375 42.71484375,32.490234375 44.3554649353027,31.83837890625 46.11328125,31.58203125 43.5534629821777,31.1572265625 41.3818359375,30 39.642333984375,28.2348651885986 38.37890625,25.986328125z M8.90625,25.986328125L6.91039943695068,28.0004901885986 5.4345703125,30.3515625 4.522705078125,32.9736328125 4.21875,35.80078125 4.21875,54.755859375 4.541015625,56.396484375 5.4345703125,57.7294921875 6.767578125,58.6376953125 8.408203125,58.974609375 25.25390625,58.974609375 26.89453125,58.6376953125 28.2275390625,57.7294921875 29.1357421875,56.396484375 29.47265625,54.755859375 29.47265625,35.80078125 29.168701171875,32.9736328125 28.2568359375,30.3515625 26.781005859375,28.0004901885986 24.78515625,25.986328125 23.5253887176514,28.2165546417236 21.796875,29.9853515625 19.6435527801514,31.153564453125 17.109375,31.58203125 21.064453125,31.58203125 19.716796875,36.005859375 21.064453125,35.80078125 27.36328125,35.80078125 27.36328125,52.646484375 26.748046875,54.140625 25.25390625,54.755859375 23.7890625,54.1259765625 23.173828125,52.646484375 23.173828125,48.427734375 10.517578125,48.427734375 10.517578125,52.646484375 9.90234375,54.140625 8.408203125,54.755859375 6.943359375,54.1259765625 6.328125,52.646484375 6.328125,35.80078125 12.626953125,35.80078125 13.974609375,36.005859375 12.626953125,31.58203125 16.552734375,31.58203125 14.022216796875,31.153564453125 11.8798828125,29.9853515625 10.162353515625,28.2165546417236 8.90625,25.986328125z M40.01953125,18.955078125L40.01953125,23.173828125 40.5029296875,25.634765625 41.8505859375,27.6416015625 43.857421875,28.9892578125 46.318359375,29.47265625 48.779296875,28.974609375 50.7861328125,27.626953125 52.1484375,25.634765625 52.646484375,23.173828125 52.646484375,18.955078125 40.01953125,18.955078125z M10.517578125,18.955078125L10.517578125,23.173828125 11.015625,25.634765625 12.3779296875,27.626953125 14.384765625,28.974609375 16.845703125,29.47265625 19.306640625,28.974609375 21.3134765625,27.626953125 22.67578125,25.634765625 23.173828125,23.173828125 23.173828125,18.955078125 10.517578125,18.955078125z M21.064453125,8.4375L21.064453125,10.517578125 24.228515625,10.517578125 24.9462890625,10.1953125 25.25390625,9.462890625 24.9462890625,8.7451171875 24.228515625,8.4375 21.064453125,8.4375z M9.462890625,8.4375L8.73046875,8.7451171875 8.408203125,9.462890625 8.73046875,10.1953125 9.462890625,10.517578125 12.626953125,10.517578125 12.626953125,8.4375 9.462890625,8.4375z M42.099609375,6.328125L42.099609375,8.49609375 42.451171875,10.0927734375 43.3740234375,11.4111328125 44.70703125,12.3046875 46.318359375,12.626953125 47.9296875,12.3046875 49.27734375,11.42578125 50.2001953125,10.107421875 50.537109375,8.49609375 50.537109375,6.328125 48.427734375,8.4375 46.318359375,6.328125 44.208984375,8.4375 42.099609375,6.328125z M16.845703125,0L19.0429668426514,0.281985282897949 21.064453125,1.1279296875 22.8002910614014,2.46460247039795 24.140625,4.21874952316284 26.2353515625,4.6142578125 27.9345703125,5.6982421875 29.0625,7.33886766433716 29.47265625,9.43359375 29.443359375,9.9755859375 29.35546875,10.517578125 32.900390625,10.517578125 35.0390625,7.646484375 37.91015625,5.5078125 37.91015625,2.87109351158142 38.111572265625,1.79077434539795 38.7158203125,0.8935546875 39.613037109375,0.289309471845627 40.693359375,0.0878903865814209 41.689453125,0.292968988418579 42.5830078125,0.820312023162842 43.3740234375,1.53808617591858 44.0625,2.31445360183716 44.150390625,2.3876953125 44.208984375,2.46093702316284 46.318359375,0.351562261581421 48.427734375,2.46093702316284 49.16015625,1.66992211341858 49.98046875,0.908203363418579 50.9033203125,0.322265148162842 51.97265625,0.0878903865814209 53.0529747009277,0.289309471845627 53.9501953125,0.8935546875 54.5544395446777,1.79077434539795 54.755859375,2.87109351158142 54.755859375,5.5078125 57.3486328125,7.33886766433716 59.326171875,9.7705078125 60.6005859375,12.6416015625 61.0546875,15.791015625 60.85693359375,17.9443359375 60.263671875,20.009765625 57.978515625,23.642578125 60.18310546875,26.2170429229736 61.81640625,29.1943359375 62.8271484375,32.435302734375 63.1640625,35.80078125 63.1640625,54.755859375 62.8125,57.158203125 61.81640625,59.3408203125 60.263671875,61.142578125 58.212890625,62.431640625 56.923828125,64.482421875 55.1220703125,66.03515625 52.939453125,67.03125 50.537109375,67.3828125 42.099609375,67.3828125 39.7119140625,67.03125 37.55859375,66.03515625 35.7568359375,64.4677734375 34.423828125,62.431640625 31.58203125,60.322265625 28.740234375,62.431640625 27.451171875,64.482421875 25.6494140625,66.03515625 23.466796875,67.03125 21.064453125,67.3828125 12.626953125,67.3828125 10.224609375,67.03125 8.0419921875,66.03515625 6.240234375,64.482421875 4.951171875,62.431640625 2.900390625,61.142578125 1.34765720367432,59.3408203125 0.351562023162842,57.158203125 0,54.755859375 0,35.80078125 0.377197086811066,32.197265625 1.5087890625,28.76953125 3.350830078125,25.6640644073486 5.859375,23.02734375 4.62890625,20.0537109375 4.21875,16.845703125 4.43115234375,14.560546875 5.068359375,12.333984375 4.43115234375,10.9716796875 4.21875,9.462890625 4.62890625,7.36816358566284 5.7568359375,5.71289110183716 7.4560546875,4.6142578125 9.55078125,4.21874952316284 10.89111328125,2.46460247039795 12.626953125,1.1279296875 14.6484375,0.281985282897949 16.845703125,0z" />
    </g>
  </g>
</svg>