<?xml version="1.0" encoding="utf-8"?>
<!DOCTYPE svg PUBLIC "-//W3C//DTD SVG 1.1//EN" "http://www.w3.org/Graphics/SVG/1.1/DTD/svg11.dtd">
<svg width="54.7558593750021" height="67.3828125" xmlns="http://www.w3.org/2000/svg" xmlns:xlink="http://www.w3.org/1999/xlink" xmlns:xml="http://www.w3.org/XML/1998/namespace" version="1.1">
  <g>
    <g>
      <path style="fill:#FF0000;fill-opacity:1" d="M21.064453125,25.283203125L4.423828125,52.03125 4.21875,52.646484375 4.86328125,53.759765625 6.3720703125,55.2685546875 8.056640625,56.71875 9.228515625,57.65625 16.962890625,42.7734375 17.900390625,42.1875 18.6328125,42.4951171875 18.955078125,43.212890625 18.955078125,62.16796875 20.5810546875,62.51953125 22.20703125,62.8125 26.3671875,43.0078125 26.71875,42.421875 27.36328125,42.1875 28.0224609375,42.421875 28.388671875,43.0078125 32.578125,62.75390625 34.2041015625,62.4755859375 35.80078125,62.109375 35.80078125,43.212890625 36.123046875,42.4951171875 36.85546875,42.1875 37.79296875,42.7734375 45.498046875,57.626953125 46.201171875,57.0849609375 47.2265625,56.25 48.369140625,55.25390625 49.4384765625,54.2431640625 50.2294921875,53.3349609375 50.537109375,52.646484375 50.33203125,52.03125 33.69140625,25.283203125 21.064453125,25.283203125z M16.845703125,4.21874952316284L16.845703125,8.4375 17.16796875,11.572265625 18.017578125,14.5458984375 19.2333984375,17.40234375 20.625,20.21484375 21.064453125,21.064453125 33.69140625,21.064453125 34.130859375,20.21484375 35.5224609375,17.40234375 36.73828125,14.5458984375 37.587890625,11.572265625 37.91015625,8.4375 37.91015625,4.21874952316284 35.80078125,4.21874952316284 33.28125,10.546875 32.3291015625,12.279052734375 30.99609375,13.6083984375 29.326171875,14.454345703125 27.36328125,14.736328125 25.433349609375,14.447021484375 23.7451171875,13.5791015625 22.3864727020264,12.242431640625 21.4453125,10.546875 19.013671875,4.21874952316284 16.845703125,4.21874952316284z M12.626953125,0L21.9140625,0 25.37109375,9.052734375 26.1328125,10.107421875 27.36328125,10.517578125 28.564453125,10.1513671875 29.326171875,9.140625 32.9296875,0 42.099609375,0 42.099609375,8.4375 41.748046875,12.0849609375 40.8251953125,15.498046875 39.4921875,18.779296875 37.91015625,22.060546875 37.91015625,24.08203125 53.84765625,49.74609375 54.5068359375,51.15234375 54.755859375,52.646484375 54.3310546875,54.6533203125 53.173828125,56.3671875 47.724609375,61.2158203125 41.4111328125,64.658203125 34.4970703125,66.708984375 27.24609375,67.3828125 19.8889141082764,66.697998046875 13.1103515625,64.6435546875 6.94702100753784,61.168212890625 1.435546875,56.220703125 1.0546875,55.78125 0.263672351837158,54.3017578125 0,52.646484375 0.2490234375,51.15234375 0.908203125,49.74609375 16.845703125,24.08203125 16.845703125,22.060546875 15.234375,18.7939453125 13.88671875,15.498046875 12.9638671875,12.0849609375 12.626953125,8.4375 12.626953125,0z" />
    </g>
  </g>
</svg>