<?xml version="1.0" encoding="utf-8"?>
<!DOCTYPE svg PUBLIC "-//W3C//DTD SVG 1.1//EN" "http://www.w3.org/Graphics/SVG/1.1/DTD/svg11.dtd">
<svg width="67.382812500007" height="61.0546875" xmlns="http://www.w3.org/2000/svg" xmlns:xlink="http://www.w3.org/1999/xlink" xmlns:xml="http://www.w3.org/XML/1998/namespace" version="1.1">
  <g>
    <g>
      <path style="fill:#FF0000;fill-opacity:1" d="M6.97265625,33.75L4.9365234375,36.767578125 4.21875,40.3125 4.51171875,41.9970703125 5.126953125,43.59375 6.9140625,46.201171875 9.4189453125,48.4130859375 12.421875,50.244140625 15.673828125,51.6943359375 18.9404296875,52.79296875 22.001953125,53.5546875 27.83935546875,54.45556640625 33.69140625,54.755859375 38.26171875,54.5654296875 43.3154296875,53.9208984375 48.5009765625,52.7490234375 53.4375,51.005859375 57.7587890625,48.603515625 61.083984375,45.439453125 62.548828125,43.0517578125 63.1640625,40.3125 62.4462890625,36.767578125 60.41015625,33.75 58.17626953125,37.203369140625 55.517578125,40.2978515625 52.4999961853027,42.9931640625 49.189453125,45.2490234375 45.6115684509277,47.05078125 41.7919921875,48.3837890625 37.796630859375,49.207763671875 33.69140625,49.482421875 29.608154296875,49.207763671875 25.6201171875,48.3837890625 21.7932109832764,47.05078125 18.193359375,45.2490234375 14.86083984375,42.9931640625 11.8359375,40.2978515625 9.1845703125,37.203369140625 6.97265625,33.75z M17.021484375,11.162109375L14.5458984375,12.2607421875 11.8798828125,13.857421875 9.6533203125,15.8789072036743 8.49609375,18.251953125 10.4443359375,16.46484375 12.7001953125,15.029296875 15.1318359375,13.8720693588257 17.607421875,12.94921875 17.2412109375,12.0849609375 17.021484375,11.162109375z M44.208984375,9.43359375L44.7509765625,10.7958984375 45.8203125,11.8359375 49.2919921875,12.7734375 52.8369140625,14.1210947036743 56.1328125,15.9375 58.88671875,18.251953125 57.7734375,15.8642578125 55.634765625,13.8720693588257 52.8515625,12.2607421875 49.775390625,10.986328125 46.7724609375,10.048828125 44.208984375,9.43359375z M27.451171875,8.759765625L25.2978515625,9.0087890625 23.173828125,9.43359375 23.4521484375,10.5029296875 24.19921875,11.30859375 25.83984375,11.0595703125 27.48046875,10.83984375 27.392578125,10.1513671875 27.36328125,9.462890625 27.451171875,8.759765625z M30.46875,8.4375L29.7509765625,8.73046779632568 29.47265625,9.462890625 29.8681640625,11.7626953125 30.8349609375,13.212890625 32.0654296875,14.443359375 33.251953125,16.0546875 33.5595703125,17.1240234375 33.779296875,18.22265625 34.6875,18.955078125 35.4931640625,18.6767578125 35.80078125,17.900390625 35.2880859375,15.4541015625 33.8671875,13.388671875 32.87109375,12.4365234375 32.05078125,11.3671875 31.7431640625,10.3564453125 31.552734375,9.287109375 31.201171875,8.61328029632568 30.46875,8.4375z M41.07421875,8.408203125L40.3271484375,8.7158203125 40.01953125,9.462890625 40.3271484375,11.455078125 41.0888671875,12.9052734375 42.0703125,14.0478515625 43.06640625,15.1171875 43.857421875,16.3330078125 44.208984375,17.900390625 44.5092735290527,18.66943359375 45.29296875,18.92578125 46.0620079040527,18.66943359375 46.318359375,17.900390625 45.849609375,15.439453125 44.736328125,13.857421875 43.41796875,12.5390625 42.36328125,10.83984375 42.2021484375,10.13671875 42.0556640625,9.34570217132568 41.7333984375,8.6865234375 41.07421875,8.408203125z M33.515625,8.408203125L33.69140625,9.4775390625 34.013671875,10.517578125 36.005859375,10.576171875 37.998046875,10.693359375 37.91015625,9.462890625 38.02734375,8.583984375 33.515625,8.408203125z M20.009765625,8.408203125L19.2626953125,8.7158203125 18.955078125,9.462890625 19.16015625,11.2353515625 19.7021484375,12.48046875 20.44921875,13.41796875 21.2841796875,14.23828125 22.1044921875,15.1171875 22.79296875,16.23046875 22.9833984375,17.0068359375 23.1591796875,17.900390625 23.49609375,18.6474609375 24.228515625,18.955078125 24.9609375,18.6474609375 25.25390625,17.900390625 24.9462890625,15.9228515625 24.169921875,14.443359375 23.1591796875,13.271484375 22.1484375,12.2021484375 21.3720703125,11.0009765625 21.064453125,9.462890625 20.7421875,8.73046779632568 20.009765625,8.408203125z M20.009765625,6.32812452316284L21.328125,6.62109375 22.412109375,7.44140672683716 27.8759765625,6.60644483566284 33.3984375,6.35742139816284 36.5478515625,6.4013671875 39.697265625,6.62109375 41.07421875,6.32812452316284 42.1728515625,6.533203125 43.125,7.08984327316284 46.4501953125,7.7783203125 50.33203125,8.9501953125 54.2578125,10.634765625 57.7001953125,12.83203125 60.1318359375,15.6005859375 60.823974609375,17.208251953125 61.0546875,18.955078125 60.831298828125,20.643310546875 60.1611328125,22.1923828125 57.9052734375,24.8583984375 54.931640625,26.923828125 51.884765625,28.388671875 48.10546875,29.677734375 43.974609375,30.6884765625 39.7705078125,31.3330078125 35.80078125,31.552734375 35.80078125,35.80078125 37.91015625,37.91015625 37.91015625,44.208984375 31.58203125,44.208984375 31.58203125,37.91015625 33.69140625,35.80078125 33.69140625,31.58203125 24.43359375,30.87890625 19.8999004364014,29.90478515625 15.498046875,28.388671875 12.48046875,26.9091796875 9.5068359375,24.8291015625 7.236328125,22.177734375 6.55517482757568,20.6396484375 6.328125,18.955078125 6.8115234375,16.5234375 8.1298828125,14.3994140625 10.0341796875,12.59765625 12.275390625,11.0888671875 14.6337890625,9.873046875 16.875,8.96484375 17.958984375,7.07519578933716 20.009765625,6.32812452316284z M33.69140625,4.21874952316284L27.7587890625,4.51171875 21.884765625,5.44921827316284 18.3837890625,6.38671875 14.501953125,7.82226610183716 10.6787109375,9.78515625 7.3828125,12.275390625 5.0830078125,15.322265625 4.434814453125,17.0654296875 4.21875,18.955078125 4.5849609375,21.328125 5.625,23.466796875 6.37573146820068,26.8359394073486 7.5146484375,30.029296875 10.7958984375,35.7861328125 15.263671875,40.576171875 20.712890625,44.2236328125 26.923828125,46.552734375 30.25634765625,47.16796875 33.69140625,47.373046875 37.12646484375,47.16796875 40.458984375,46.552734375 46.669921875,44.2236328125 52.119140625,40.576171875 56.5869140625,35.7861328125 59.8681640625,30.029296875 61.007080078125,26.8359394073486 61.7578125,23.466796875 62.7978515625,21.328125 63.1640625,18.955078125 62.947998046875,17.0654296875 62.2998046875,15.322265625 60,12.275390625 56.7041015625,9.78515625 52.880859375,7.82226610183716 48.9990234375,6.38671875 45.498046875,5.44921827316284 39.6240234375,4.51171875 33.69140625,4.21874952316284z M33.69140625,0L40.1806640625,0.322265267372131 46.58203125,1.31835889816284 51.064453125,2.56347608566284 55.751953125,4.43847703933716 60.17578125,6.98730421066284 63.8818359375,10.2392578125 66.4306640625,14.2236328125 67.144775390625,16.497802734375 67.3828125,18.955078125 66.708984375,25.751953125 64.62890625,32.255859375 66.1376953125,34.5849609375 66.9580078125,36.8994140625 67.3095703125,39.3603515625 67.3828125,42.099609375 67.144775390625,44.556884765625 66.4306640625,46.8310546875 63.8818359375,50.8154296875 60.17578125,54.0673828125 55.751953125,56.6162109375 51.064453125,58.4912109375 46.58203125,59.736328125 40.1806640625,60.732421875 33.69140625,61.0546875 27.2021484375,60.732421875 20.80078125,59.736328125 16.3037109375,58.4912109375 11.630859375,56.6162109375 7.20703125,54.0673828125 3.5009765625,50.8154296875 0.9521484375,46.8310546875 0.238036751747131,44.556884765625 0,42.099609375 0.0732417106628418,39.3603515625 0.424805164337158,36.9140625 1.2451171875,34.599609375 2.724609375,32.255859375 0.688477516174316,25.751953125 0,18.955078125 0.238036751747131,16.497802734375 0.9521484375,14.2236328125 3.5009765625,10.2392578125 7.20703125,6.98730421066284 11.630859375,4.43847703933716 16.318359375,2.56347608566284 20.80078125,1.31835889816284 27.2021484375,0.322265267372131 33.69140625,0z" />
    </g>
  </g>
</svg>