<?xml version="1.0" encoding="utf-8"?>
<!DOCTYPE svg PUBLIC "-//W3C//DTD SVG 1.1//EN" "http://www.w3.org/Graphics/SVG/1.1/DTD/svg11.dtd">
<svg width="67.3828125000005" height="67.3828125" xmlns="http://www.w3.org/2000/svg" xmlns:xlink="http://www.w3.org/1999/xlink" xmlns:xml="http://www.w3.org/XML/1998/namespace" version="1.1">
  <g>
    <g>
      <path style="fill:#FF0000;fill-opacity:1" d="M30.52734375,61.0546875L30.263671875,61.845703125 29.47265625,62.109375 30.263671875,62.373046875 30.52734375,63.1640625 30.791015625,62.373046875 31.58203125,62.109375 30.791015625,61.845703125 30.52734375,61.0546875z M25.25390625,58.974609375L24.7265625,60.52734375 23.173828125,61.0546875 24.7265625,61.58203125 25.25390625,63.1640625 25.78125,61.58203125 27.36328125,61.0546875 25.78125,60.52734375 25.25390625,58.974609375z M46.318359375,48.427734375L46.845703125,50.009765625 48.427734375,50.537109375 46.845703125,51.064453125 46.318359375,52.646484375 45.791015625,51.064453125 44.208984375,50.537109375 45.791015625,50.009765625 46.318359375,48.427734375z M41.07421875,48.427734375L41.30859375,49.21875 42.099609375,49.482421875 41.30859375,49.74609375 41.07421875,50.537109375 40.810546875,49.74609375 40.01953125,49.482421875 40.810546875,49.21875 41.07421875,48.427734375z M31.58203125,23.173828125L29.94140625,23.49609375 28.6083984375,24.3896484375 27.7001953125,25.72265625 27.36328125,27.36328125 27.6123046875,29.9157733917236 28.359375,32.2998046875 31.0693359375,36.3134765625 35.0830078125,39.0234375 37.467041015625,39.7705078125 40.01953125,40.01953125 41.66015625,39.6826171875 42.9931640625,38.7744140625 43.88671875,37.44140625 44.208984375,35.80078125 43.9599571228027,33.270263671875 43.212890625,30.8935546875 40.5029296875,26.8798828125 36.4892578125,24.169921875 34.112548828125,23.4228534698486 31.58203125,23.173828125z M30.52734375,18.955078125L30.263671875,19.74609375 29.47265625,20.009765625 30.263671875,20.2734375 30.52734375,21.064453125 30.791015625,20.2734375 31.58203125,20.009765625 30.791015625,19.74609375 30.52734375,18.955078125z M25.25390625,18.955078125L24.7265625,20.537109375 23.173828125,21.064453125 24.7265625,21.591796875 25.25390625,23.173828125 25.78125,21.591796875 27.36328125,21.064453125 25.78125,20.537109375 25.25390625,18.955078125z M8.408203125,12.626953125L8.935546875,14.208984375 10.517578125,14.736328125 8.935546875,15.263671875 8.408203125,16.845703125 7.880859375,15.263671875 6.328125,14.736328125 7.880859375,14.208984375 8.408203125,12.626953125z M11.572265625,8.4375L11.8359375,9.228515625 12.626953125,9.462890625 11.8359375,9.7265625 11.572265625,10.517578125 11.30859375,9.7265625 10.517578125,9.462890625 11.30859375,9.228515625 11.572265625,8.4375z M42.099609375,4.21874952316284L41.572265625,5.80078125 40.01953125,6.328125 41.572265625,6.85546827316284 42.099609375,8.4375 42.626953125,6.85546827316284 44.208984375,6.328125 42.626953125,5.80078125 42.099609375,4.21874952316284z M36.85546875,4.21874952316284L36.591796875,5.009765625 35.80078125,5.2734375 36.591796875,5.537109375 36.85546875,6.328125 37.119140625,5.537109375 37.91015625,5.2734375 37.119140625,5.009765625 36.85546875,4.21874952316284z M16.845703125,4.21874952316284L14.315185546875,4.46777629852295 11.9384765625,5.21484422683716 7.9248046875,7.9248046875 5.21484470367432,11.9384765625 4.4677734375,14.315185546875 4.21875,16.845703125 4.21875,23.173828125 4.7900390625,30.655517578125 6.50390625,37.8076171875 9.32373046875,44.608154296875 13.212890625,51.03515625 16.1865234375,54.9169921875 19.62890625,58.388671875 21.064453125,58.974609375 22.5439453125,58.3447265625 23.173828125,56.865234375 23.0126953125,56.0302734375 22.529296875,55.3125 21.4599609375,54.228515625 20.361328125,53.173828125 18.1494140625,50.6396484375 16.171875,47.9296875 19.6179180145264,51.38671875 23.3935546875,54.43359375 27.447509765625,57.04833984375 31.728515625,59.208984375 36.2109375,60.911865234375 40.869140625,62.1533203125 45.6591758728027,62.911376953125 50.537109375,63.1640625 53.0676231384277,62.9150390625 55.4443359375,62.16796875 59.4580078125,59.4580078125 62.16796875,55.4443359375 62.9150390625,53.067626953125 63.1640625,50.537109375 62.98828125,46.494140625 62.354736328125,49.0869140625 61.2744140625,51.474609375 58.0224609375,55.4296875 53.61328125,58.037109375 51.0864219665527,58.740234375 48.427734375,58.974609375 43.2861289978027,58.634033203125 38.349609375,57.6123046875 33.66943359375,55.975341796875 29.296875,53.7890625 25.2685546875,51.0791015625 21.62109375,47.87109375 18.4130840301514,44.2236328125 15.703125,40.1953125 13.516845703125,35.82275390625 11.8798828125,31.142578125 10.858154296875,26.2060565948486 10.517578125,21.064453125 10.726318359375,18.958740234375 11.3525390625,16.9775390625 13.623046875,13.623046875 16.9775390625,11.3525390625 18.9587383270264,10.726318359375 21.064453125,10.517578125 25.418701171875,10.83984375 29.6337890625,11.806640625 33.6328125,13.363037109375 37.3388671875,15.4541015625 40.7080039978027,18.05419921875 43.6962890625,21.1376953125 46.2268028259277,24.6496601104736 48.22265625,28.53515625 49.951171875,34.1748046875 50.537109375,40.01953125 50.5078125,40.25390625 50.478515625,40.48828125 50.5078125,41.30859375 50.537109375,42.12890625 50.2001953125,43.76953125 49.2919921875,45.1025390625 47.958984375,45.99609375 46.318359375,46.318359375 42.8942832946777,46.094970703125 39.5947265625,45.4248046875 36.46728515625,44.3408203125 33.5595703125,42.8759765625 28.4619140625,38.9208984375 24.5068359375,33.8232421875 23.0419902801514,30.91552734375 21.9580078125,27.7880859375 21.2878398895264,24.4885272979736 21.064453125,21.064453125 21.38671875,19.423828125 22.2802734375,18.0908203125 23.61328125,17.1826171875 25.25390625,16.845703125 29.8828125,17.26318359375 34.3359375,18.515625 31.234130859375,16.8896484375 27.9638671875,15.703125 24.561767578125,14.97802734375 21.064453125,14.736328125 18.603515625,15.234375 16.5966796875,16.5966796875 15.234375,18.603515625 14.736328125,21.064453125 15.03662109375,25.6311054229736 15.9375,30.0146484375 17.3876934051514,34.171142578125 19.3359375,38.056640625 21.7529277801514,41.63818359375 24.609375,44.8828125 27.85400390625,47.7392578125 31.435546875,50.15625 35.321044921875,52.1044921875 39.4775390625,53.5546875 43.8610801696777,54.45556640625 48.427734375,54.755859375 50.5334434509277,54.547119140625 52.5146484375,53.9208984375 55.8544921875,51.650390625 58.1103515625,48.2958984375 58.736572265625,46.314697265625 58.9453125,44.208984375 58.60107421875,38.62060546875 57.568359375,33.33984375 55.86181640625,28.2348651885986 53.49609375,23.173828125 52.470703125,21.3134765625 51.26953125,19.541015625 49.189453125,17.28515625 46.875,15.263671875 40.147705078125,10.49560546875 32.8564453125,7.03125 25.067138671875,4.92187786102295 16.845703125,4.21874952316284z M16.845703125,0L24.7265625,0.615234375 32.40234375,2.46093702316284 34.306640625,0.659179925918579 36.85546875,0 42.099609375,0 44.1064453125,0.336913824081421 45.849609375,1.259765625 47.2412109375,2.66601586341858 48.1640625,4.48242139816284 50.15625,5.58105516433716 52.1484375,7.32421875 53.9794921875,9.31640625 55.48828125,11.1328125 60.618896484375,18.643798828125 64.3505859375,26.6455078125 65.6771850585938,30.8358764648438 66.624755859375,35.159912109375 67.1932983398438,39.6176147460938 67.3828125,44.208984375 67.3828125,50.537109375 67.049560546875,53.917236328125 66.0498046875,57.0849609375 64.478759765625,59.952392578125 62.431640625,62.431640625 59.94873046875,64.478759765625 57.0703125,66.0498046875 53.8989219665527,67.049560546875 50.537109375,67.3828125 42.65625,66.767578125 34.98046875,64.921875 33.076171875,66.7236328125 30.52734375,67.3828125 25.25390625,67.3828125 23.26171875,67.060546875 21.50390625,66.1376953125 20.1123046875,64.716796875 19.21875,62.900390625 17.900390625,62.2998046875 16.728515625,61.435546875 12.982177734375,57.769775390625 9.6533203125,53.5693359375 6.77856349945068,48.96240234375 4.39453125,44.0771484375 2.508544921875,38.968505859375 1.1279296875,33.69140625 0.281982064247131,28.3813495635986 0,23.173828125 0,16.845703125 0.333251595497131,13.48388671875 1.3330078125,10.3125 2.904052734375,7.43408203125 4.951171875,4.95117235183716 7.43041896820068,2.90405559539795 10.2978515625,1.33300733566284 13.465576171875,0.333254754543304 16.845703125,0z" />
    </g>
  </g>
</svg>