<?xml version="1.0" encoding="utf-8"?>
<!DOCTYPE svg PUBLIC "-//W3C//DTD SVG 1.1//EN" "http://www.w3.org/Graphics/SVG/1.1/DTD/svg11.dtd">
<svg width="64.248046875" height="65.2734375" xmlns="http://www.w3.org/2000/svg" xmlns:xlink="http://www.w3.org/1999/xlink" xmlns:xml="http://www.w3.org/XML/1998/namespace" version="1.1">
  <g>
    <g>
      <path style="fill:#FF0000;fill-opacity:1" d="M10.25390625,27.451171875L18.662109375,60.99609375 48.017578125,60.99609375 56.396484375,27.451171875 48.1640625,27.451171875 47.8308067321777,30.4284687042236 46.9482421875,33.2080078125 45.5786094665527,35.716552734375 43.7841796875,37.880859375 41.6088829040527,39.664306640625 39.0966796875,41.0302734375 36.317138671875,41.898193359375 33.33984375,42.1875 30.362548828125,41.898193359375 27.5830078125,41.0302734375 25.07080078125,39.664306640625 22.8955078125,37.880859375 21.0974102020264,35.712890625 19.716796875,33.193359375 18.8305644989014,30.4101581573486 18.515625,27.451171875 10.25390625,27.451171875z M46.201171875,21.064453125L40.693359375,37.55859375 42.9016075134277,35.5517578125 44.5458984375,33.10546875 45.5676231384277,30.3369159698486 45.908203125,27.36328125 45.908203125,25.1953125 49.248046875,25.1953125 50.185546875,22.3828125 48.193359375,21.6943359375 46.201171875,21.064453125z M54.84375,18.955078125L51.708984375,25.1953125 56.42578125,25.1953125 58.623046875,20.830078125 56.71875,19.921875 54.84375,18.955078125z M8.935546875,18.955078125L5.9765625,21.943359375 9.228515625,25.1953125 14.6484375,25.1953125 14.12109375,24.140625 8.935546875,18.955078125z M17.548828125,16.845703125L15.6591796875,17.7685546875 13.76953125,18.720703125 14.7216796875,20.859375 15.849609375,22.880859375 16.962890625,24.0673828125 18.1640625,25.1953125 20.771484375,25.1953125 20.771484375,27.36328125 21.328125,31.083984375 22.91015625,34.39453125 25.3857421875,37.1044921875 28.623046875,39.0234375 17.548828125,16.845703125z M46.2890625,15.46875L45.791015625,16.9921875 45.263671875,18.515625 47.05078125,19.130859375 48.076171875,16.083984375 46.2890625,15.46875z M52.734375,14.736328125L50.0390625,20.126953125 51.62109375,20.654296875 53.90625,16.11328125 55.0341796875,16.728515625 56.19140625,17.255859375 56.513671875,16.611328125 52.734375,14.736328125z M39.873046875,14.736328125L33.076171875,35.185546875 29.00390625,18.955078125 26.9677734375,19.5263671875 24.90234375,19.98046875 29.794921875,39.43359375 33.33984375,39.931640625 36.005859375,39.638671875 43.857421875,16.083984375 41.89453125,15.3515625 39.873046875,14.736328125z M11.8359375,14.736328125L9.08203125,16.11328125 11.1328125,18.1640625 10.95703125,17.783203125 12.890625,16.81640625 11.8359375,14.736328125z M29.12109375,12.626953125L29.12109375,16.7578125 30.52734375,16.40625 31.962890625,22.001953125 33.33984375,27.59765625 33.33984375,12.626953125 29.12109375,12.626953125z M37.67578125,10.517578125L33.544921875,27.041015625 36.0205078125,19.5556640625 38.5546875,12.0703125 41.396484375,13.037109375 41.748046875,11.54296875 37.67578125,10.517578125z M22.67578125,10.517578125L18.603515625,11.54296875 19.04296875,13.330078125 19.2333984375,14.1943359375 19.453125,15.17578125 19.6875,16.142578125 19.951171875,16.93359375 20.537109375,18.193359375 21.26953125,19.62890625 22.0166015625,21.0791015625 22.67578125,22.353515625 24.0234375,25.078125 23.203125,21.7529296875 22.353515625,18.427734375 24.521484375,17.900390625 22.67578125,10.517578125z M33.33984375,0L36.617431640625,0.194094657897949 39.8291015625,0.7763671875 45.8642578125,3.0322265625 51.1962890625,6.6357421875 55.60546875,11.455078125 58.8720703125,13.1103515625 62.16796875,14.736328125 60.87890625,17.255859375 64.248046875,18.955078125 62.490234375,22.5439453125 60.673828125,26.103515625 60.7177734375,26.630859375 60.732421875,27.158203125 60.703125,27.7734375 60.5859375,28.388671875 54.2578125,53.671875 52.822265625,59.47265625 51.357421875,65.2734375 15.322265625,65.2734375 13.857421875,59.47265625 12.421875,53.671875 5.9765625,27.890625 0,21.943359375 4.013671875,17.9296875 2.431640625,14.736328125 12.392578125,9.755859375 16.728515625,5.62500047683716 21.7822265625,2.5634765625 27.3779296875,0.659179449081421 33.33984375,0z" />
    </g>
  </g>
</svg>