<?xml version="1.0" encoding="utf-8"?>
<!DOCTYPE svg PUBLIC "-//W3C//DTD SVG 1.1//EN" "http://www.w3.org/Graphics/SVG/1.1/DTD/svg11.dtd">
<svg width="67.412109375001" height="61.0546875" xmlns="http://www.w3.org/2000/svg" xmlns:xlink="http://www.w3.org/1999/xlink" xmlns:xml="http://www.w3.org/XML/1998/namespace" version="1.1">
  <g>
    <g>
      <path style="fill:#FF0000;fill-opacity:1" d="M63.1640625,24.873046875L16.7578125,51.796875 15.24169921875,52.43408203125 13.623046875,52.646484375 11.5283203125,52.3388671875 10.048828125,51.5625 8.994140625,50.537109375 8.1591796875,49.51171875 7.3388671875,48.7353515625 6.328125,48.427734375 4.8193359375,49.04296875 4.189453125,50.537109375 4.2626953125,51.09375 4.482421875,51.591796875 6.123046875,53.7744140625 8.349609375,55.4296875 10.927734375,56.4697265625 13.623046875,56.8359375 16.34033203125,56.484375 18.8671875,55.4296875 63.1640625,29.736328125 63.1640625,24.873046875z M37.91015625,20.2734375L37.91015625,27.36328125 37.5732421875,29.0185546875 36.6650390625,30.3662109375 35.33203125,31.259765625 33.69140625,31.58203125 27.421875,31.58203125 27.8173828125,32.255859375 28.4326171875,33.251953125 29.12109375,34.4384765625 29.765625,35.6396484375 30.2490234375,36.6796875 30.439453125,37.3828125 29.8095703125,38.8623046875 28.330078125,39.4921875 27.275390625,39.2138671875 26.513671875,38.4375 24.404296875,34.8046875 23.0859375,36.767578125 23.61328125,37.6171875 24.228515625,38.6279296875 24.7412109375,39.6533203125 24.9609375,40.546875 24.3310546875,42.0263671875 22.8515625,42.65625 21.416015625,42.0556640625 20.5078125,40.693359375 19.21875,42.65625 21.50390625,46.611328125 45.17578125,32.87109375 37.91015625,20.2734375z M62.138671875,15.99609375L61.611328125,16.142578125 44.47265625,26.07421875 44.00390625,26.630859375 44.82421875,28.037109375 44.970703125,28.037109375 45.498046875,27.890625 62.63671875,17.958984375 63.193359375,17.05078125 62.87109375,16.318359375 62.138671875,15.99609375z M32.373046875,10.72265625L19.62890625,18.10546875 22.79296875,23.5546875 28.2421875,20.419921875 29.296875,20.126953125 30.7763671875,20.7421875 31.40625,22.20703125 31.142578125,23.2983417510986 30.3515625,24.052734375 24.90234375,27.216796875 26.19140625,29.47265625 33.69140625,29.47265625 35.185546875,28.857421875 35.80078125,27.36328125 35.80078125,16.640625 32.373046875,10.72265625z M60.05859375,9.931640625L59.53125,10.078125 41.30859375,20.625 40.83984375,21.15234375 41.66015625,22.55859375 41.8359375,22.55859375 42.36328125,22.44140625 60.5859375,11.89453125 61.11328125,10.986328125 60.791015625,10.25390625 60.05859375,9.931640625z M52.353515625,7.08984375L51.826171875,7.236328125 38.14453125,15.146484375 37.67578125,15.673828125 38.49609375,17.080078125 38.583984375,17.0947265625 38.671875,17.109375 39.19921875,16.962890625 52.880859375,9.052734375 53.408203125,8.14453125 53.1005859375,7.3974609375 52.353515625,7.08984375z M27.421875,4.18945264816284L26.3671875,4.482421875 24.580078125,5.82275390625 23.26171875,7.55859375 22.4487285614014,9.580078125 22.177734375,11.77734375 22.177734375,12.216796875 22.20703125,12.65625 18.369140625,12.65625 17.490234375,12.8759765625 17.109375,13.681640625 17.28515625,14.267578125 17.6953125,15 18.1640625,15.732421875 18.544921875,16.2890625 31.34765625,8.90625 29.23828125,5.244140625 28.4765625,4.46777391433716 27.421875,4.18945264816284z M27.392578125,0L29.014892578125,0.208743125200272 30.5419921875,0.834961175918579 32.87109375,3.134765625 37.265625,10.78125 49.716796875,3.60351610183716 52.353515625,2.90039014816284 54.0014610290527,3.145751953125 55.4296875,3.8818359375 57.333984375,6.474609375 57.421875,6.4453125 57.5390625,6.38671875 58.7548828125,5.91796875 60.05859375,5.7421875 62.0947265625,6.15234375 63.7646484375,7.265625 64.9072265625,8.9208984375 65.33203125,10.95703125 65.2587890625,11.8359375 65.009765625,12.685546875 66.7822265625,14.6044921875 67.412109375,17.16796875 67.3974609375,24.375 67.3828125,31.58203125 20.9765625,59.091796875 17.431640625,60.556640625 13.623046875,61.0546875 9.78515625,60.5419921875 6.2548828125,59.0771484375 3.2080078125,56.7626953125 0.849610328674316,53.671875 0.212402105331421,52.15576171875 0,50.537109375 0.498046398162842,48.0908203125 1.845703125,46.0693359375 3.8525390625,44.70703125 6.298828125,44.208984375 8.37890625,44.5166015625 9.8583984375,45.29296875 10.927734375,46.318359375 11.7626953125,47.34375 12.59765625,48.1201171875 13.623046875,48.427734375 14.3994140625,48.251953125 15.2490234375,47.841796875 16.0693359375,47.34375 16.787109375,46.904296875 14.267578125,42.509765625 22.03125,30.703125 17.8857421875,23.5107421875 13.65234375,16.376953125 13.0810546875,15.06591796875 12.890625,13.65234375 13.330078125,11.513671875 14.5166015625,9.873046875 16.259765625,8.818359375 18.3984375,8.4375 19.6435546875,5.5078125 21.6943359375,2.783203125 24.345703125,0.776367425918579 25.83984375,0.194094687700272 27.392578125,0z" />
    </g>
  </g>
</svg>