<?xml version="1.0" encoding="utf-8"?>
<!DOCTYPE svg PUBLIC "-//W3C//DTD SVG 1.1//EN" "http://www.w3.org/Graphics/SVG/1.1/DTD/svg11.dtd">
<svg width="67.3828125" height="48.45703125" xmlns="http://www.w3.org/2000/svg" xmlns:xlink="http://www.w3.org/1999/xlink" xmlns:xml="http://www.w3.org/XML/1998/namespace" version="1.1">
  <g>
    <g>
      <path style="fill:#FF0000;fill-opacity:1" d="M50.537109375,33.720703125L46.318359375,44.23828125 50.537109375,44.23828125 55.048828125,33.720703125 50.537109375,33.720703125z M15.791015625,14.765625L16.5380859375,15.0732421875 16.845703125,15.8203125 16.845703125,17.9296875 16.5380859375,18.6767578125 15.791015625,18.984375 15.0439453125,18.6767578125 14.736328125,17.9296875 14.736328125,15.8203125 15.0439453125,15.0732421875 15.791015625,14.765625z M16.845703125,4.248046875L16.845703125,11.25 13.7255859375,13.3447265625 10.60546875,15.41015625 8.994140625,16.259765625 7.529296875,16.6845703125 6.005859375,16.845703125 4.21875,16.875 4.21875,23.203125 8.408203125,23.203125 8.408203125,25.283203125 12.626953125,25.283203125 25.25390625,30.703125 25.25390625,44.23828125 29.47265625,44.23828125 29.47265625,37.939453125 31.58203125,35.830078125 31.58203125,31.611328125 54.755859375,31.611328125 56.865234375,33.720703125 56.865234375,44.23828125 61.0546875,44.23828125 61.0546875,29.501953125 59.47265625,27.919921875 61.051025390625,26.0009765625 62.2119140625,23.818359375 62.926025390625,21.45263671875 63.1640625,18.984375 62.6220703125,15.3515625 61.0546875,12.01171875 61.0546875,6.357421875 60.439453125,4.86328125 58.9453125,4.248046875 58.9453125,9.580078125 57.09228515625,8.18847846984863 55.048828125,7.177734375 52.8515586853027,6.56250143051147 50.537109375,6.357421875 29.47265625,6.357421875 27.36328125,6.4892578125 25.13671875,6.8701171875 22.96875,7.5146484375 21.064453125,8.4375 20.7275390625,6.796875 19.8193359375,5.4638671875 18.486328125,4.5703125 16.845703125,4.248046875z M15.41015625,0L17.6806640625,0.1171875 19.716796875,0.556640625 21.5625,1.46484375 23.26171875,3.017578125 26.3232421875,2.3583984375 29.47265625,2.138671875 50.537109375,2.138671875 54.755859375,2.666015625 54.755859375,0.0292959213256836 58.9453125,0.0292959213256836 61.40625,0.52734375 63.4130859375,1.8896484375 64.775390625,3.896484375 65.2734375,6.357421875 65.2734375,10.810546875 66.8408203125,14.765625 67.3828125,18.984375 66.8408203125,23.173828125 65.2734375,27.099609375 65.2734375,48.45703125 40.107421875,48.45703125 45.146484375,35.830078125 35.80078125,35.830078125 35.80078125,37.55859375 33.69140625,39.66796875 33.69140625,48.45703125 21.064453125,48.45703125 21.064453125,33.486328125 11.77734375,29.501953125 4.21875,29.501953125 4.21875,27.392578125 0,27.392578125 0,12.65625 2.109375,12.6708984375 4.21875,12.685546875 5.888671875,12.6416015625 7.10449123382568,12.4365234375 8.2177734375,11.953125 9.609375,11.044921875 11.1181640625,10.0048828125 12.626953125,8.994140625 12.626953125,0.0292959213256836 14.0185546875,0.0146484375 15.41015625,0z" />
    </g>
  </g>
</svg>