<?xml version="1.0" encoding="utf-8"?>
<!DOCTYPE svg PUBLIC "-//W3C//DTD SVG 1.1//EN" "http://www.w3.org/Graphics/SVG/1.1/DTD/svg11.dtd">
<svg width="67.3828125000015" height="65.2734375" xmlns="http://www.w3.org/2000/svg" xmlns:xlink="http://www.w3.org/1999/xlink" xmlns:xml="http://www.w3.org/XML/1998/namespace" version="1.1">
  <g>
    <g>
      <path style="fill:#FF0000;fill-opacity:1" d="M54.755859375,42.099609375L53.2763671875,42.7294921875 52.646484375,44.208984375 53.26171875,45.703125 54.755859375,46.318359375 56.2353515625,45.6884765625 56.865234375,44.208984375 56.2353515625,42.7294921875 54.755859375,42.099609375z M42.099609375,42.099609375L40.634765625,42.7294921875 40.01953125,44.208984375 40.634765625,45.6884765625 42.099609375,46.318359375 43.59375,45.703125 44.208984375,44.208984375 43.5791015625,42.7294921875 42.099609375,42.099609375z M54.755859375,40.01953125L56.396484375,40.341796875 57.7294921875,41.2353515625 58.623046875,42.568359375 58.9453125,44.208984375 58.623046875,45.849609375 57.7294921875,47.1826171875 56.396484375,48.0908203125 54.755859375,48.427734375 53.1005859375,48.10546875 51.7529296875,47.2119140625 50.859375,45.8642578125 50.537109375,44.208984375 50.8740234375,42.568359375 51.7822265625,41.2353515625 53.115234375,40.341796875 54.755859375,40.01953125z M42.099609375,40.01953125L43.740234375,40.341796875 45.0732421875,41.2353515625 45.9814453125,42.568359375 46.318359375,44.208984375 45.9814453125,45.8642578125 45.0732421875,47.2119140625 43.740234375,48.10546875 42.099609375,48.427734375 40.458984375,48.0908203125 39.1259765625,47.1826171875 38.232421875,45.849609375 37.91015625,44.208984375 38.232421875,42.568359375 39.1259765625,41.2353515625 40.458984375,40.341796875 42.099609375,40.01953125z M37.91015625,25.25390625L37.91015625,35.80078125 44.208984375,35.80078125 44.208984375,29.47265625 46.318359375,29.47265625 46.318359375,35.80078125 58.9453125,35.80078125 58.9453125,25.25390625 37.91015625,25.25390625z M35.80078125,23.173828125L61.0546875,23.173828125 61.0546875,37.91015625 35.80078125,37.91015625 35.80078125,23.173828125z M38.96484375,4.21874952316284L38.572998046875,4.36157464981079 37.6318359375,4.7900390625 34.482421875,6.31347560882568 30.0732421875,8.49609375 24.9755859375,11.044921875 19.7607421875,13.6669921875 14.970703125,16.083984375 11.162109375,18.0029296875 9.79248046875,18.680419921875 8.90625,19.1015625 8.49609375,19.716796875 8.408203125,20.654296875 8.408203125,21.064453125 6.767578125,21.38671875 5.4345703125,22.2802734375 4.541015625,23.61328125 4.21875,25.25390625 28.41796875,25.25390625 29.150390625,25.576171875 29.47265625,26.30859375 29.1650390625,27.0556640625 28.41796875,27.36328125 4.21875,27.36328125 4.21875,29.47265625 28.41796875,29.47265625 29.1650390625,29.7802734375 29.47265625,30.52734375 29.1650390625,31.2744140625 28.41796875,31.58203125 4.21875,31.58203125 4.21875,33.69140625 28.41796875,33.69140625 29.1650390625,33.9990234375 29.47265625,34.74609375 29.1650390625,35.4931640625 28.41796875,35.80078125 4.21875,35.80078125 4.21875,37.91015625 28.41796875,37.91015625 29.1650390625,38.2177734375 29.47265625,38.96484375 29.150390625,39.697265625 28.41796875,40.01953125 4.21875,40.01953125 4.21875,42.099609375 28.41796875,42.099609375 29.150390625,42.421875 29.47265625,43.154296875 29.1650390625,43.9013671875 28.41796875,44.208984375 4.21875,44.208984375 4.21875,46.318359375 28.41796875,46.318359375 29.1650390625,46.6259765625 29.47265625,47.373046875 29.1650390625,48.1201171875 28.41796875,48.427734375 4.21875,48.427734375 4.21875,50.537109375 28.41796875,50.537109375 29.1650390625,50.8447265625 29.47265625,51.591796875 29.1650390625,52.3388671875 28.41796875,52.646484375 4.21875,52.646484375 4.541015625,54.287109375 5.4345703125,55.6201171875 6.767578125,56.5283203125 8.408203125,56.865234375 58.9453125,56.865234375 60.5859375,56.5283203125 61.9189453125,55.6201171875 62.8271484375,54.287109375 63.1640625,52.646484375 63.1640625,25.25390625 62.8271484375,23.61328125 61.9189453125,22.2802734375 60.5859375,21.38671875 58.9453125,21.064453125 10.517578125,21.064453125 10.517578125,20.654296875 39.43359375,6.21093702316284 39.84375,5.80078029632568 40.01953125,5.24414014816284 39.697265625,4.5263671875 38.96484375,4.21874952316284z M38.96484375,0L41.0009765625,0.410155534744263 42.6708984375,1.53808522224426 43.798828125,3.22265577316284 44.208984375,5.2734375 44.0112266540527,6.70898389816284 43.41796875,8.02734375 41.30859375,9.9609375 27.568359375,16.845703125 58.9453125,16.845703125 62.1826171875,17.51953125 64.8779296875,19.3359375 66.708984375,22.0166015625 67.3828125,25.25390625 67.3828125,52.646484375 67.100830078125,54.84375 66.2548828125,56.865234375 64.918212890625,58.60107421875 63.1640625,59.94140625 63.1640625,65.2734375 50.537109375,65.2734375 50.537109375,61.0546875 16.845703125,61.0546875 16.845703125,65.2734375 4.21875,65.2734375 4.21875,59.94140625 2.464599609375,58.60107421875 1.1279296875,56.865234375 0.281982064247131,54.84375 0,52.646484375 0,25.25390625 0.336913585662842,22.939453125 1.2890625,20.80078125 2.7685546875,19.013671875 4.71679592132568,17.6953125 5.7275390625,16.3330078125 7.08984375,15.322265625 36.591796875,0.556640088558197 38.96484375,0z" />
    </g>
  </g>
</svg>