<?xml version="1.0" encoding="utf-8"?>
<!DOCTYPE svg PUBLIC "-//W3C//DTD SVG 1.1//EN" "http://www.w3.org/Graphics/SVG/1.1/DTD/svg11.dtd">
<svg width="65.2734375000017" height="61.0546875" xmlns="http://www.w3.org/2000/svg" xmlns:xlink="http://www.w3.org/1999/xlink" xmlns:xml="http://www.w3.org/XML/1998/namespace" version="1.1">
  <g>
    <g>
      <path style="fill:#FF0000;fill-opacity:1" d="M6.328125,52.646484375L4.8486328125,53.26171875 4.21875,54.7265625 4.833984375,56.220703125 6.328125,56.8359375 7.8076171875,56.2060546875 8.4375,54.7265625 7.8076171875,53.26171875 6.328125,52.646484375z M11.572265625,46.318359375L10.3271484375,46.5673828125 9.345703125,47.255859375 8.6865234375,48.2666015625 8.4375,49.482421875 8.6865234375,50.6982421875 9.3603515625,51.708984375 10.3564453125,52.3974609375 11.572265625,52.646484375 12.7880859375,52.3974609375 13.798828125,51.708984375 14.4873046875,50.6982421875 14.736328125,49.482421875 14.4873046875,48.251953125 13.8134765625,47.2412109375 12.802734375,46.5673828125 11.572265625,46.318359375z M33.69140625,4.18945264816284L31.25244140625,4.46411085128784 28.974609375,5.28808546066284 26.94580078125,6.61743116378784 25.25390625,8.408203125 21.064453125,8.408203125 18.9367656707764,8.616943359375 16.9482421875,9.2431640625 13.6083984375,11.4990234375 11.3525390625,14.8388671875 10.726318359375,16.827392578125 10.517578125,18.955078125 8.748779296875,20.6286640167236 7.4267578125,22.6611328125 6.60278224945068,24.942626953125 6.328125,27.36328125 6.60278224945068,29.78759765625 7.4267578125,32.080078125 8.748779296875,34.12353515625 10.517578125,35.80078125 10.726318359375,37.906494140625 11.3525390625,39.8876953125 13.623046875,43.2421875 16.9775390625,45.498046875 18.9587383270264,46.11328125 21.064453125,46.318359375 25.25390625,46.318359375 26.94580078125,48.109130859375 28.974609375,49.4384765625 31.25244140625,50.262451171875 33.69140625,50.537109375 36.112060546875,50.262451171875 38.3935546875,49.4384765625 40.4260215759277,48.109130859375 42.099609375,46.318359375 46.318359375,46.318359375 48.4240684509277,46.11328125 50.4052734375,45.498046875 53.759765625,43.2421875 56.0302734375,39.8876953125 56.656494140625,37.906494140625 56.865234375,35.80078125 58.634033203125,34.12353515625 59.9560546875,32.080078125 60.780029296875,29.78759765625 61.0546875,27.36328125 60.78369140625,24.942626953125 59.970703125,22.6611328125 58.65234375,20.6286640167236 56.865234375,18.955078125 56.656494140625,16.827392578125 56.0302734375,14.8388671875 53.7744140625,11.4990234375 50.4345703125,9.2431640625 48.4460411071777,8.616943359375 46.318359375,8.408203125 42.099609375,8.408203125 40.4260215759277,6.61743116378784 38.3935546875,5.28808546066284 36.112060546875,4.46411085128784 33.69140625,4.18945264816284z M33.69140625,0L36.5478515625,0.270998597145081 39.2578125,1.083984375 41.7626914978027,2.40234327316284 44.00390625,4.18945264816284 46.318359375,4.18945264816284 49.0026817321777,4.43115186691284 51.5478515625,5.15624904632568 55.986328125,7.82226514816284 59.2529296875,11.8505859375 60.325927734375,14.278564453125 60.9375,16.904296875 62.7978515625,19.1564960479736 64.16015625,21.6943359375 64.9951171875,24.4519062042236 65.2734375,27.36328125 64.9951171875,30.274658203125 64.16015625,33.0322265625 62.7978515625,35.570068359375 60.9375,37.822265625 60.325927734375,40.447998046875 59.2529296875,42.8759765625 56.0009765625,46.904296875 51.5625,49.5703125 49.0063438415527,50.29541015625 46.318359375,50.537109375 44.00390625,50.537109375 41.7626914978027,52.32421875 39.2578125,53.642578125 36.5478515625,54.45556640625 33.69140625,54.7265625 30.8349609375,54.45556640625 28.125,53.642578125 25.6201171875,52.32421875 23.37890625,50.537109375 21.884765625,50.537109375 20.390625,50.5078125 18.896484375,50.361328125 18.1787109375,52.7783203125 16.728515625,54.755859375 14.70703125,56.1474609375 12.275390625,56.806640625 11.3525390625,58.53515625 9.9755859375,59.8828125 8.26171875,60.7470703125 6.328125,61.0546875 3.8671875,60.556640625 1.8603515625,59.1943359375 0.498046398162842,57.1875 0,54.7265625 0.3076171875,52.79296875 1.171875,51.0791015625 2.51953125,49.7021484375 4.248046875,48.779296875 4.639892578125,46.98486328125 5.4638671875,45.3515625 8.173828125,42.94921875 7.08251857757568,40.48095703125 6.4453125,37.822265625 4.5849609375,35.570068359375 3.22265625,33.0322265625 2.3876953125,30.274658203125 2.109375,27.36328125 2.3876953125,24.4519062042236 3.22265625,21.6943359375 4.5849609375,19.1564960479736 6.4453125,16.904296875 7.05688381195068,14.278564453125 8.1298828125,11.8505859375 11.396484375,7.82226514816284 15.8349609375,5.15624904632568 18.3801250457764,4.43115186691284 21.064453125,4.18945264816284 23.37890625,4.18945264816284 25.6201171875,2.40234327316284 28.125,1.083984375 30.8349609375,0.270998597145081 33.69140625,0z" />
    </g>
  </g>
</svg>