<?xml version="1.0" encoding="utf-8"?>
<!DOCTYPE svg PUBLIC "-//W3C//DTD SVG 1.1//EN" "http://www.w3.org/Graphics/SVG/1.1/DTD/svg11.dtd">
<svg width="67.382812500001" height="50.361328125" xmlns="http://www.w3.org/2000/svg" xmlns:xlink="http://www.w3.org/1999/xlink" xmlns:xml="http://www.w3.org/XML/1998/namespace" version="1.1">
  <g>
    <g>
      <path style="fill:#FF0000;fill-opacity:1" d="M25.25390625,38.818359375L26.748046875,39.43359375 27.36328125,40.927734375 26.748046875,42.421875 25.25390625,43.037109375 23.7890625,42.4072265625 23.173828125,40.927734375 23.7890625,39.4482421875 25.25390625,38.818359375z M32.666015625,32.490234375L33.8818359375,32.7392578125 34.8779296875,33.427734375 35.5517578125,34.4384765625 35.80078125,35.654296875 35.5517578125,36.8701171875 34.892578125,37.880859375 33.896484375,38.5693359375 32.666015625,38.818359375 31.4208984375,38.5693359375 30.4248046875,37.8955078125 29.7509765625,36.8994140625 29.501953125,35.654296875 29.7509765625,34.4384765625 30.439453125,33.427734375 31.4501953125,32.7392578125 32.666015625,32.490234375z M17.900390625,32.490234375L19.1162109375,32.7392578125 20.126953125,33.427734375 20.8154296875,34.4384765625 21.064453125,35.654296875 20.8154296875,36.8701171875 20.126953125,37.880859375 19.1162109375,38.5693359375 17.900390625,38.818359375 16.6552734375,38.5693359375 15.6591796875,37.8955078125 14.9853515625,36.8994140625 14.736328125,35.654296875 14.9853515625,34.4384765625 15.673828125,33.427734375 16.6845703125,32.7392578125 17.900390625,32.490234375z M37.91015625,28.30078125L39.3896484375,28.9306640625 40.01953125,30.41015625 39.3896484375,31.875 37.91015625,32.490234375 36.4306640625,31.875 35.80078125,30.41015625 36.4013671875,28.9013671875 37.91015625,28.30078125z M25.25390625,28.30078125L26.748046875,28.916015625 27.36328125,30.41015625 26.7333984375,31.875 25.25390625,32.490234375 23.7890625,31.875 23.173828125,30.41015625 23.7890625,28.9306640625 25.25390625,28.30078125z M12.626953125,28.30078125L14.12109375,28.916015625 14.736328125,30.41015625 14.1064453125,31.875 12.626953125,32.490234375 11.1474609375,31.875 10.517578125,30.41015625 11.1328125,28.916015625 12.626953125,28.30078125z M33.69140625,15.673828125L35.4052734375,16.6552734375 36.73828125,18.1787109375 37.6025390625,20.0244140625 37.91015625,21.97265625 37.6025390625,23.96484375 36.73828125,25.7666015625 35.4052734375,27.2607421875 33.69140625,28.30078125 27.36328125,24.08203125 27.36328125,19.86328125 33.69140625,15.673828125z M17.900390625,15.673828125L19.2114238739014,15.8825702667236 20.21484375,16.5087890625 20.8520488739014,17.5012226104736 21.064453125,18.80859375 21.064453125,23.02734375 20.7421875,24.404296875 19.86328125,25.517578125 17.900390625,26.19140625 16.6845703125,25.9423828125 15.673828125,25.25390625 14.9853515625,24.2431640625 14.736328125,23.02734375 14.736328125,18.80859375 14.9853515625,17.5927734375 15.673828125,16.5966796875 16.6845703125,15.9228515625 17.900390625,15.673828125z M33.427734375,13.30078125L29.3408203125,16.025390625 25.25390625,18.75 25.25390625,19.86328125 23.173828125,19.86328125 23.173828125,19.21875 22.8076171875,17.021484375 21.7529296875,15.234375 20.09765625,14.0185546875 17.900390625,13.564453125 16.3623046875,13.7841796875 14.9853515625,14.4287109375 13.8427734375,15.439453125 13.037109375,16.7578125 12.6708984375,18.2080078125 12.626953125,19.658203125 12.626953125,19.86328125 7.5,19.86328125 8.1591796875,20.244140625 8.4375,20.91796875 8.2763671875,21.5185546875 7.8515625,21.8408203125 7.265625,21.9580078125 6.650390625,21.97265625 6.328125,21.97265625 4.833984375,22.587890625 4.21875,24.08203125 4.8046875,25.60546875 6.328125,26.19140625 7.236328125,31.2890625 9.3603515625,35.830078125 12.5244140625,39.6533203125 16.5380859375,42.5830078125 21.1962890625,44.47265625 26.30859375,45.146484375 29.4287109375,44.82421875 32.4169921875,43.9306640625 35.244140625,42.59765625 37.91015625,40.927734375 42.099609375,45.146484375 43.7841796875,43.857421875 45.1318359375,42.1728515625 46.0107421875,40.2099609375 46.318359375,38.115234375 45.8642578125,35.4931640625 44.6484375,33.134765625 45.76171875,29.7509765625 46.318359375,26.19140625 46.7138633728027,24.45556640625 47.490234375,23.115234375 48.7353477478027,22.25830078125 50.537109375,21.97265625 54.755859375,21.97265625 54.755859375,19.86328125 39.755859375,19.86328125 38.876953125,17.5634765625 37.470703125,15.76171875 35.625,14.3701171875 33.427734375,13.30078125z M41.279296875,0L42.6416015625,0.659180164337158 44.00390625,1.34765720367432 46.1169395446777,2.80517625808716 47.8271484375,4.71679735183716 49.1271934509277,6.94335985183716 50.009765625,9.345703125 52.998046875,9.345703125 58.125,4.21875047683716 59.4873046875,4.87792921066284 60.849609375,5.56640672683716 63.720703125,7.77832078933716 65.7568359375,10.72265625 66.97265625,14.150390625 67.3828125,17.75390625 66.97265625,21.328125 65.7568359375,24.7705078125 63.720703125,27.744140625 60.849609375,29.94140625 58.125,31.318359375 52.998046875,26.19140625 50.537109375,26.19140625 50.1708984375,29.53125 49.306640625,32.783203125 50.21484375,35.3759765625 50.537109375,38.115234375 50.068359375,41.3232421875 48.7646484375,44.296875 46.7431640625,46.8603515625 44.150390625,48.80859375 41.3671875,50.361328125 37.294921875,46.2890625 31.9921875,48.515625 29.1943359375,49.130859375 26.30859375,49.3359375 21.9653301239014,48.958740234375 17.841796875,47.8271484375 14.033203125,46.021728515625 10.634765625,43.623046875 7.70141553878784,40.675048828125 5.2880859375,37.2216796875 3.489990234375,33.343505859375 2.40234375,29.12109375 0.6298828125,26.8798828125 0,24.08203125 0.212401986122131,22.44140625 0.849609375,20.91796875 0.212401986122131,19.3945331573486 0,17.75390625 0.498046875,15.29296875 1.8603515625,13.2861328125 3.8818359375,11.9384765625 6.357421875,11.455078125 10.2685546875,7.04589891433716 15.0439453125,3.73535203933716 20.4638671875,1.640625 26.30859375,0.908203601837158 29.234619140625,1.10229539871216 32.0361328125,1.68457078933716 37.353515625,3.95507860183716 41.279296875,0z" />
    </g>
  </g>
</svg>