<?xml version="1.0" encoding="utf-8"?>
<!DOCTYPE svg PUBLIC "-//W3C//DTD SVG 1.1//EN" "http://www.w3.org/Graphics/SVG/1.1/DTD/svg11.dtd">
<svg width="50.537109375001" height="58.9453125" xmlns="http://www.w3.org/2000/svg" xmlns:xlink="http://www.w3.org/1999/xlink" xmlns:xml="http://www.w3.org/XML/1998/namespace" version="1.1">
  <g>
    <g>
      <path style="fill:#FF0000;fill-opacity:1" d="M42.626953125,20.537109375L39.66796875,23.525390625 39.78515625,23.642578125 40.2392578125,24.111328125 40.60546875,24.66796875 41.748046875,26.953125 42.12890625,29.47265625 41.748046875,31.9921875 40.634765625,34.27734375 40.1953125,34.8779296875 39.66796875,35.419921875 41.103515625,36.9287109375 42.626953125,38.408203125 43.2568359375,37.7783203125 43.59375,37.32421875 45.5126953125,33.5302734375 46.1169395446777,31.541748046875 46.318359375,29.47265625 45.6298828125,25.3271484375 43.623046875,21.62109375 43.1103515625,21.0791015625 42.626953125,20.537109375z M5.9765625,16.845703125L5.2734375,17.05078125 4.716796875,17.578125 4.3505859375,18.2666015625 4.21875,18.955078125 4.21875,39.990234375 4.3505859375,40.693359375 4.7314453125,41.3818359375 5.302734375,41.89453125 5.9765625,42.099609375 16.845703125,42.099609375 16.845703125,16.845703125 5.9765625,16.845703125z M31.611328125,4.21875L18.955078125,16.81640625 18.955078125,42.12890625 31.611328125,54.755859375 35.80078125,54.755859375 35.80078125,4.21875 31.611328125,4.21875z M29.853515625,0L40.01953125,0 40.01953125,17.197265625 42.626953125,14.58984375 45.615234375,17.548828125 47.7319297790527,20.1013202667236 49.27734375,23.0126953125 50.2221641540527,26.1730976104736 50.537109375,29.47265625 50.2221641540527,32.772216796875 49.27734375,35.9326171875 47.7319297790527,38.843994140625 45.615234375,41.396484375 42.626953125,44.35546875 40.01953125,41.748046875 40.01953125,58.9453125 29.853515625,58.9453125 17.2265625,46.318359375 6.328125,46.318359375 3.8671875,45.8203125 1.8603515625,44.4580078125 0.498046875,42.451171875 0,39.990234375 0,18.955078125 0.498046875,16.494140625 1.8603515625,14.4873046875 3.8671875,13.125 6.328125,12.626953125 17.2265625,12.626953125 29.853515625,0z" />
    </g>
  </g>
</svg>