<?xml version="1.0" encoding="utf-8"?>
<!DOCTYPE svg PUBLIC "-//W3C//DTD SVG 1.1//EN" "http://www.w3.org/Graphics/SVG/1.1/DTD/svg11.dtd">
<svg width="59.0625" height="46.201171875" xmlns="http://www.w3.org/2000/svg" xmlns:xlink="http://www.w3.org/1999/xlink" xmlns:xml="http://www.w3.org/XML/1998/namespace" version="1.1">
  <g>
    <g>
      <path style="fill:#FF0000;fill-opacity:1" d="M47.9296875,4.5703125L44.9761962890625,6.8426513671875 41.33056640625,9.67529296875 36.9927978515625,13.0682373046875 31.962890625,17.021484375 29.53125,10.48828125 13.18359375,37.646484375 29.384765625,23.876953125 32.197265625,31.46484375 47.9296875,4.5703125z M52.119140625,0L46.40625,9.55078125 52.6171875,6.6796875 50.15625,14.384765625 56.3671875,14.970703125 52.001953125,21.328125 59.0625,25.48828125 52.001953125,29.794921875 56.25,36.416015625 50.15625,36.826171875 52.6171875,44.560546875 43.88671875,40.83984375 39.990234375,45.615234375 34.892578125,41.748046875 29.501953125,46.201171875 24.140625,41.748046875 19.072265625,45.615234375 15.17578125,40.83984375 6.4453125,44.560546875 8.90625,36.826171875 2.81249976158142,36.416015625 7.06054735183716,29.794921875 0,25.48828125 7.06054735183716,21.328125 2.69531273841858,14.970703125 8.90625,14.384765625 6.4453125,6.6796875 15.17578125,10.400390625 19.072265625,5.595703125 24.140625,9.4921875 29.560546875,5.009765625 34.892578125,9.4921875 39.990234375,5.595703125 41.71875,7.705078125 52.119140625,0z" />
    </g>
  </g>
</svg>