<?xml version="1.0" encoding="utf-8"?>
<!DOCTYPE svg PUBLIC "-//W3C//DTD SVG 1.1//EN" "http://www.w3.org/Graphics/SVG/1.1/DTD/svg11.dtd">
<svg width="25.25390625" height="67.3828125" xmlns="http://www.w3.org/2000/svg" xmlns:xlink="http://www.w3.org/1999/xlink" xmlns:xml="http://www.w3.org/XML/1998/namespace" version="1.1">
  <g>
    <g>
      <path style="fill:#FF0000;fill-opacity:1" d="M12.626953125,4.21874952316284L9.345703125,4.8779296875 6.67968797683716,6.6796875 4.87793016433716,9.345703125 4.21875047683716,12.626953125 4.21875047683716,56.865234375 4.71679735183716,59.326171875 6.06445360183716,61.318359375 8.056640625,62.666015625 10.517578125,63.1640625 12.9638671875,62.666015625 14.9853515625,61.318359375 16.34765625,59.3115234375 16.845703125,56.865234375 16.845703125,23.173828125 16.5087890625,21.5478515625 15.6005859375,20.2001953125 14.2529296875,19.2919921875 12.626953125,18.955078125 11.0009765625,19.2919921875 9.6533203125,20.2001953125 8.7451171875,21.5478515625 8.408203125,23.173828125 8.408203125,48.427734375 10.517578125,48.427734375 10.517578125,23.173828125 11.1328125,21.6796875 12.626953125,21.064453125 14.12109375,21.6796875 14.736328125,23.173828125 14.736328125,56.865234375 14.3994140625,58.505859375 13.4912109375,59.8388671875 12.158203125,60.732421875 10.517578125,61.0546875 8.876953125,60.732421875 7.54394578933716,59.8388671875 6.65039110183716,58.505859375 6.32812547683716,56.865234375 6.32812547683716,12.626953125 6.82617235183716,10.166015625 8.173828125,8.173828125 10.166015625,6.826171875 12.626953125,6.328125 15.087890625,6.826171875 17.0947265625,8.173828125 18.45703125,10.166015625 18.955078125,12.626953125 18.955078125,48.427734375 21.064453125,48.427734375 21.064453125,12.626953125 20.4052734375,9.345703125 18.603515625,6.6796875 15.9228515625,4.8779296875 12.626953125,4.21874952316284z M12.626953125,0L15.157470703125,0.249026298522949 17.5341796875,0.99609375 21.5478515625,3.70605516433716 24.2578125,7.71972703933716 25.0048828125,10.096435546875 25.25390625,12.626953125 25.25390625,52.646484375 21.064453125,52.646484375 21.064453125,56.865234375 20.8557109832764,58.96728515625 20.2294921875,60.9375 17.9443359375,64.27734375 14.5751953125,66.5478515625 12.601318359375,67.174072265625 10.517578125,67.3828125 8.411865234375,67.177734375 6.43066453933716,66.5625 3.07617235183716,64.306640625 0.820312976837158,60.9521484375 0.205078184604645,58.970947265625 0,56.865234375 0,12.626953125 0.249023616313934,10.096435546875 0.996095180511475,7.71972703933716 3.70605516433716,3.70605516433716 7.71972703933716,0.99609375 10.096435546875,0.249026298522949 12.626953125,0z" />
    </g>
  </g>
</svg>