<?xml version="1.0" encoding="utf-8"?>
<!DOCTYPE svg PUBLIC "-//W3C//DTD SVG 1.1//EN" "http://www.w3.org/Graphics/SVG/1.1/DTD/svg11.dtd">
<svg width="67.3828125000013" height="46.34765625" xmlns="http://www.w3.org/2000/svg" xmlns:xlink="http://www.w3.org/1999/xlink" xmlns:xml="http://www.w3.org/XML/1998/namespace" version="1.1">
  <g>
    <g>
      <path style="fill:#FF0000;fill-opacity:1" d="M33.69140625,15.791015625L30.8203125,16.376953125 28.4765625,17.958984375 26.89453125,20.302734375 26.30859375,23.173828125 26.89453125,26.044921875 28.4765625,28.388671875 30.8203125,29.970703125 33.69140625,30.556640625 36.5625,29.970703125 38.90625,28.388671875 40.48828125,26.044921875 41.07421875,23.173828125 40.48828125,20.302734375 38.90625,17.958984375 36.5625,16.376953125 33.69140625,15.791015625z M40.13671875,12.12890625L39.052734375,12.3486328125 38.1884765625,12.9345703125 37.6025390625,13.8134765625 37.3828125,14.8828125 37.6025390625,15.966796875 38.1884765625,16.8310546875 39.052734375,17.4169921875 40.13671875,17.63671875 41.2060546875,17.4169921875 42.0849609375,16.8310546875 42.6708984375,15.966796875 42.890625,14.8828125 42.6708984375,13.8134765625 42.0849609375,12.9345703125 41.2060546875,12.3486328125 40.13671875,12.12890625z M33.69140625,8.4375L36.646728515625,8.726806640625 39.4189453125,9.5947265625 41.9311485290527,10.96435546875 44.1064453125,12.7587890625 45.9008750915527,14.9340839385986 47.2705078125,17.4462890625 48.1384239196777,20.2185077667236 48.427734375,23.173828125 48.1384239196777,26.129150390625 47.2705078125,28.9013671875 45.9008750915527,31.41357421875 44.1064453125,33.5888671875 41.9311485290527,35.38330078125 39.4189453125,36.7529296875 36.646728515625,37.620849609375 33.69140625,37.91015625 30.732421875,37.620849609375 27.94921875,36.7529296875 25.4296875,35.386962890625 23.26171875,33.603515625 21.4782695770264,31.435546875 20.1123046875,28.916015625 19.2443828582764,26.1328125 18.955078125,23.173828125 19.2443828582764,20.2185077667236 20.1123046875,17.4462890625 21.4819316864014,14.9340839385986 23.2763671875,12.7587890625 25.45166015625,10.96435546875 27.9638671875,9.5947265625 30.736083984375,8.726806640625 33.69140625,8.4375z M33.69140625,4.21875047683716L29.71435546875,4.48608446121216 25.810546875,5.28808641433716 22.0349102020264,6.57348680496216 18.4423828125,8.291015625 11.9091796875,12.890625 6.533203125,18.75 5.8740234375,19.6728515625 5.1123046875,20.888671875 4.482421875,22.1337890625 4.21875,23.173828125 4.482421875,24.19921875 5.126953125,25.458984375 5.888671875,26.6748046875 6.533203125,27.59765625 11.9091796875,33.45703125 18.4423828125,38.056640625 22.0349102020264,39.774169921875 25.810546875,41.0595703125 29.71435546875,41.861572265625 33.69140625,42.12890625 37.47802734375,41.883544921875 41.220703125,41.1474609375 44.8608360290527,39.96826171875 48.33984375,38.3935546875 54.7119140625,34.1455078125 60.029296875,28.7109375 60.87890625,27.568359375 61.9189453125,26.0302734375 62.7978515625,24.4482421875 63.1640625,23.173828125 62.7978515625,21.9140625 61.9189453125,20.3173828125 60.87890625,18.779296875 60.029296875,17.63671875 54.7119140625,12.2021484375 48.3251953125,7.95410203933716 44.8388633728027,6.37939500808716 41.2060546875,5.20019578933716 37.474365234375,4.46411180496216 33.69140625,4.21875047683716z M33.69140625,0L37.998046875,0.281982839107513 42.24609375,1.12793016433716 46.3732872009277,2.48291063308716 50.3173828125,4.29199266433716 54.0490684509277,6.52221727371216 57.5390625,9.140625 63.544921875,15.322265625 64.7607421875,16.9921875 66.005859375,19.0283203125 66.9873046875,21.181640625 67.3828125,23.173828125 66.9873046875,25.166015625 66.005859375,27.3193359375 64.7607421875,29.35546875 63.544921875,31.025390625 57.5390625,37.20703125 54.0490684509277,39.825439453125 50.3173828125,42.0556640625 46.3732872009277,43.86474609375 42.24609375,45.2197265625 37.998046875,46.065673828125 33.69140625,46.34765625 29.384765625,46.065673828125 25.13671875,45.2197265625 21.0095195770264,43.86474609375 17.0654296875,42.0556640625 13.333740234375,39.825439453125 9.84375,37.20703125 3.837890625,31.025390625 2.6220703125,29.35546875 1.376953125,27.3193359375 0.3955078125,25.166015625 0,23.173828125 0.3955078125,21.181640625 1.376953125,19.0283203125 2.6220703125,16.9921875 3.837890625,15.322265625 9.84375,9.140625 13.333740234375,6.52221727371216 17.0654296875,4.29199266433716 21.0095195770264,2.48291063308716 25.13671875,1.12793016433716 29.384765625,0.281982839107513 33.69140625,0z" />
    </g>
  </g>
</svg>