<?xml version="1.0" encoding="utf-8"?>
<!DOCTYPE svg PUBLIC "-//W3C//DTD SVG 1.1//EN" "http://www.w3.org/Graphics/SVG/1.1/DTD/svg11.dtd">
<svg width="29.443359375" height="27.333984375" xmlns="http://www.w3.org/2000/svg" xmlns:xlink="http://www.w3.org/1999/xlink" xmlns:xml="http://www.w3.org/XML/1998/namespace" version="1.1">
  <g>
    <g>
      <path style="fill:#FF0000;fill-opacity:1" d="M9.375,0L10.7153310775757,4.48242282867432 13.388671875,8.84765625 14.267578125,9.9609375 14.970703125,9.052734375 17.3602275848389,6.32263278961182 19.6362285614014,4.37255954742432 21.7987041473389,3.20251488685608 23.84765625,2.8125 25.3070049285889,3.10730004310608 26.5795879364014,3.99169993400574 27.6654033660889,5.46569919586182 28.564453125,7.529296875 27.890625,7.470703125 26.1987285614014,7.94311666488647 23.935546875,9.3603515625 21.5844707489014,11.3708515167236 19.62890625,13.623046875 18.75,14.82421875 19.599609375,15.64453125 21.9836406707764,17.64404296875 24.4189434051514,19.072265625 26.9055156707764,19.92919921875 29.443359375,20.21484375 28.0517559051514,22.650146484375 26.6308574676514,24.3896484375 25.1806621551514,25.433349609375 23.701171875,25.78125 22.2033672332764,25.484619140625 20.4052715301514,24.5947265625 18.3068828582764,23.111572265625 15.908203125,21.03515625 14.560546875,19.8046875 14.12109375,20.419921875 11.9384756088257,23.44482421875 9.96093654632568,25.60546875 8.18847560882568,26.90185546875 6.62109375,27.333984375 4.94384765625,26.9915771484375 3.28124976158142,25.96435546875 1.63330054283142,24.2523193359375 0,21.85546875 0.64453125,21.884765625 2.61840796470642,21.5185546875 4.7021484375,20.419921875 6.895751953125,18.5888671875 9.19921875,16.025390625 9.990234375,15.029296875 8.96484375,13.916015625 7.0806884765625,11.7169198989868 5.73486328125,9.68994331359863 4.9273681640625,7.83508396148682 4.658203125,6.15234375 4.9530029296875,4.79004001617432 5.83740234375,3.31054759025574 7.3114013671875,1.71386742591858 9.375,0z" />
    </g>
  </g>
</svg>