<?xml version="1.0" encoding="utf-8"?>
<!DOCTYPE svg PUBLIC "-//W3C//DTD SVG 1.1//EN" "http://www.w3.org/Graphics/SVG/1.1/DTD/svg11.dtd">
<svg width="65.2734375000016" height="65.2734375" xmlns="http://www.w3.org/2000/svg" xmlns:xlink="http://www.w3.org/1999/xlink" xmlns:xml="http://www.w3.org/XML/1998/namespace" version="1.1">
  <g>
    <g>
      <path style="fill:#FF0000;fill-opacity:1" d="M15.3515625,45.703125L14.736328125,46.318359375 8.408203125,48.427734375 4.951171875,58.828125 10.60546875,53.203125 10.517578125,52.646484375 11.1474609375,51.1669921875 12.626953125,50.537109375 14.12109375,51.15234375 14.736328125,52.646484375 14.12109375,54.140625 12.626953125,54.755859375 12.099609375,54.66796875 6.4453125,60.322265625 16.845703125,56.865234375 18.955078125,50.537109375 19.5703125,49.921875 15.3515625,45.703125z M31.58203125,27.36328125L23.173828125,35.80078125 21.005859375,37.8515625 18.955078125,40.01953125 18.369140625,40.927734375 17.8564453125,42.041015625 17.3583984375,43.1982421875 16.845703125,44.208984375 21.064453125,48.427734375 25.25390625,46.318359375 26.4111328125,45.2490234375 27.4072265625,44.2529296875 28.3740234375,43.2421875 29.47265625,42.099609375 37.880859375,33.69140625 31.58203125,27.36328125z M51.15234375,12.626953125L52.646484375,14.12109375 41.806640625,24.9609375 41.07421875,25.283203125 40.3271484375,24.9755859375 39.990234375,24.228515625 40.3125,23.466796875 51.15234375,12.626953125z M51.15234375,7.79296922683716L33.69140625,25.283203125 39.990234375,31.58203125 57.48046875,14.12109375 51.15234375,7.79296922683716z M56.54296875,4.248046875L54.3310546875,4.79003858566284 52.646484375,6.328125 58.9453125,12.626953125 60.498046875,10.869140625 61.0546875,8.61328125 60.703125,6.8701171875 59.736328125,5.478515625 58.30078125,4.57031202316284 56.54296875,4.248046875z M56.6015625,0L59.970703125,0.688476800918579 62.724609375,2.54882836341858 64.5849609375,5.302734375 65.2734375,8.671875 64.6142578125,12.01171875 62.724609375,14.82421875 27.7734375,49.775390625 26.6015625,50.4931640625 24.9755859375,51.181640625 23.466796875,51.9287109375 22.6171875,52.822265625 20.185546875,60.17578125 8.671875,64.013671875 7.08984375,64.951171875 5.27343845367432,65.2734375 3.2080078125,64.86328125 1.5380859375,63.7353515625 0.410155773162842,62.0654296875 0,60 0.322265148162842,58.18359375 1.259765625,56.6015625 5.09765625,45.1171875 12.451171875,42.65625 13.3154296875,41.8359375 14.0625,40.3271484375 14.765625,38.701171875 15.498046875,37.529296875 50.44921875,2.54882836341858 53.2763671875,0.659179449081421 56.6015625,0z" />
    </g>
  </g>
</svg>