<?xml version="1.0" encoding="utf-8"?>
<!DOCTYPE svg PUBLIC "-//W3C//DTD SVG 1.1//EN" "http://www.w3.org/Graphics/SVG/1.1/DTD/svg11.dtd">
<svg width="63.1640625000005" height="63.1640625" xmlns="http://www.w3.org/2000/svg" xmlns:xlink="http://www.w3.org/1999/xlink" xmlns:xml="http://www.w3.org/XML/1998/namespace" version="1.1">
  <g>
    <g>
      <path style="fill:#FF0000;fill-opacity:1" d="M31.58203125,27.36328125L33.22265625,27.7001953125 34.5556640625,28.6083984375 35.4638671875,29.94140625 35.80078125,31.58203125 35.4638671875,33.22265625 34.5556640625,34.5556640625 33.22265625,35.4638671875 31.58203125,35.80078125 29.94140625,35.4638671875 28.6083984375,34.5556640625 27.7001953125,33.22265625 27.36328125,31.58203125 27.7001953125,29.94140625 28.6083984375,28.6083984375 29.94140625,27.7001953125 31.58203125,27.36328125z M31.58203125,23.173828125L28.30078125,23.8330078125 25.634765625,25.634765625 23.8330078125,28.30078125 23.173828125,31.58203125 23.8330078125,34.8779296875 25.634765625,37.55859375 28.30078125,39.3603515625 31.58203125,40.01953125 34.8779296875,39.3603515625 37.55859375,37.55859375 39.3603515625,34.8779296875 40.01953125,31.58203125 39.3603515625,28.30078125 37.55859375,25.634765625 34.8779296875,23.8330078125 31.58203125,23.173828125z M31.58203125,21.064453125L33.687744140625,21.2731952667236 35.6689453125,21.8994140625 39.0087890625,24.1552734375 41.2646484375,27.4951171875 41.8908653259277,29.476318359375 42.099609375,31.58203125 41.8945274353027,33.7060546875 41.279296875,35.68359375 39.0234375,39.0234375 35.68359375,41.279296875 33.7060546875,41.89453125 31.58203125,42.099609375 29.476318359375,41.89453125 27.4951171875,41.279296875 24.140625,39.0234375 21.884765625,35.6689453125 21.2695293426514,33.687744140625 21.064453125,31.58203125 21.2731914520264,29.476318359375 21.8994140625,27.4951171875 24.1552734375,24.1552734375 27.4951171875,21.8994140625 29.476318359375,21.2731952667236 31.58203125,21.064453125z M31.58203125,4.21875L27.872314453125,4.46411418914795 24.3017578125,5.20019483566284 20.9179668426514,6.37939453125 17.7685546875,7.9541015625 12.2314453125,12.2314453125 7.9541015625,17.7685546875 6.37939357757568,20.91796875 5.2001953125,24.3017578125 4.464111328125,27.8723163604736 4.21875,31.58203125 4.464111328125,35.291748046875 5.2001953125,38.8623046875 6.37939357757568,42.24609375 7.9541015625,45.3955078125 12.2314453125,50.9326171875 17.7685546875,55.2099609375 20.9179668426514,56.78466796875 24.3017578125,57.9638671875 27.872314453125,58.699951171875 31.58203125,58.9453125 35.291748046875,58.699951171875 38.8623046875,57.9638671875 42.2460899353027,56.78466796875 45.3955078125,55.2099609375 50.9326171875,50.9326171875 55.2099609375,45.3955078125 56.78466796875,42.24609375 57.9638671875,38.8623046875 58.699951171875,35.291748046875 58.9453125,31.58203125 58.699951171875,27.8723163604736 57.9638671875,24.3017578125 56.78466796875,20.91796875 55.2099609375,17.7685546875 50.9326171875,12.2314453125 45.3955078125,7.9541015625 42.2460899353027,6.37939453125 38.8623046875,5.20019483566284 35.291748046875,4.46411418914795 31.58203125,4.21875z M31.58203125,0L35.863037109375,0.281985342502594 39.9755859375,1.12793016433716 43.8757286071777,2.48657512664795 47.51953125,4.306640625 50.8776817321777,6.566162109375 53.9208984375,9.2431640625 56.597900390625,12.286376953125 58.857421875,15.64453125 60.677490234375,19.288330078125 62.0361328125,23.1884765625 62.882080078125,27.3010272979736 63.1640625,31.58203125 62.882080078125,35.863037109375 62.0361328125,39.9755859375 60.677490234375,43.875732421875 58.857421875,47.51953125 56.597900390625,50.877685546875 53.9208984375,53.9208984375 50.8776817321777,56.597900390625 47.51953125,58.857421875 43.8757286071777,60.677490234375 39.9755859375,62.0361328125 35.863037109375,62.882080078125 31.58203125,63.1640625 27.301025390625,62.882080078125 23.1884765625,62.0361328125 19.2883281707764,60.677490234375 15.64453125,58.857421875 12.286376953125,56.597900390625 9.2431640625,53.9208984375 6.56616115570068,50.877685546875 4.306640625,47.51953125 2.486572265625,43.875732421875 1.1279296875,39.9755859375 0.281982064247131,35.863037109375 0,31.58203125 0.281982064247131,27.3010272979736 1.1279296875,23.1884765625 2.486572265625,19.288330078125 4.306640625,15.64453125 6.56616115570068,12.286376953125 9.2431640625,9.2431640625 12.286376953125,6.566162109375 15.64453125,4.306640625 19.2883281707764,2.48657512664795 23.1884765625,1.12793016433716 27.301025390625,0.281985342502594 31.58203125,0z" />
    </g>
  </g>
</svg>