<?xml version="1.0" encoding="utf-8"?>
<!DOCTYPE svg PUBLIC "-//W3C//DTD SVG 1.1//EN" "http://www.w3.org/Graphics/SVG/1.1/DTD/svg11.dtd">
<svg width="65.2734375" height="67.3828125" xmlns="http://www.w3.org/2000/svg" xmlns:xlink="http://www.w3.org/1999/xlink" xmlns:xml="http://www.w3.org/XML/1998/namespace" version="1.1">
  <g>
    <g>
      <path style="fill:#FF0000;fill-opacity:1" d="M18.955078125,52.55859375L18.955078125,63.1640625 23.173828125,63.1640625 23.173828125,52.55859375 21.064453125,52.646484375 18.955078125,52.55859375z M35.80078125,47.197265625L33.7646484375,48.720703125 31.58203125,50.009765625 31.58203125,63.1640625 35.80078125,63.1640625 35.80078125,47.197265625z M6.32812452316284,47.16796875L6.32812452316284,63.1640625 10.517578125,63.1640625 10.517578125,50.009765625 6.32812452316284,47.16796875z M48.427734375,34.5703125L44.208984375,38.7890625 44.208984375,63.1640625 48.427734375,63.1640625 48.427734375,34.5703125z M37.91015625,27.36328125L36.03515625,29.1796875 34.27734375,31.0107421875 32.8271484375,33.0615234375 31.875,35.5078125 38.96484375,28.41796875 37.91015625,27.36328125z M33.69140625,27.36328125L32.197265625,28.857421875 33.69140625,29.47265625 35.185546875,28.857421875 35.80078125,27.36328125 33.69140625,27.36328125z M32.607421875,23.173828125L31.8896484375,23.4814453125 31.58203125,24.19921875 31.81640625,25.048828125 32.255859375,25.83984375 32.9150390625,25.4150390625 33.69140625,25.283203125 34.39453125,25.400390625 34.1015625,24.7265625 33.75,23.994140625 33.28125,23.408203125 32.607421875,23.173828125z M61.0546875,21.943359375L56.865234375,26.1328125 56.865234375,63.1640625 61.0546875,63.1640625 61.0546875,21.943359375z M34.74609375,21.064453125L34.013671875,21.38671875 33.69140625,22.119140625 33.8232421875,22.8515625 34.130859375,23.818359375 34.4970703125,24.7998046875 34.775390625,25.576171875 35.185546875,25.8984375 36.62109375,24.43359375 35.7421875,21.767578125 35.3466796875,21.2548828125 34.74609375,21.064453125z M46.318359375,18.955078125L40.01953125,25.283203125 41.07421875,26.30859375 47.373046875,20.009765625 46.318359375,18.955078125z M42.099609375,18.955078125L40.634765625,20.44921875 42.12890625,21.064453125 43.59375,20.4345703125 44.208984375,18.955078125 42.099609375,18.955078125z M61.0546875,15.966796875L36.26953125,40.78125 35.56640625,41.5576171875 34.892578125,42.333984375 31.962890625,44.8681640625 28.5791015625,46.787109375 24.90234375,48.0029296875 21.064453125,48.427734375 17.1643047332764,48.021240234375 13.5498046875,46.8017578125 10.235595703125,44.871826171875 7.23632764816284,42.333984375 5.72753858566284,40.7373046875 4.21874952316284,39.140625 4.21874952316284,42.12890625 7.66113233566284,45.5859375 11.7041015625,48.2373046875 16.2158203125,49.9365234375 21.064453125,50.537109375 25.13671875,50.126953125 29.033203125,48.896484375 32.62939453125,46.9482421875 35.80078125,44.384765625 36.85546875,43.2568359375 37.91015625,42.12890625 61.0546875,18.955078125 61.0546875,15.966796875z M41.07421875,14.736328125L40.3125,15.05859375 40.01953125,15.8203125 40.25390625,16.640625 40.693359375,17.40234375 41.3525390625,16.9775390625 42.12890625,16.845703125 42.83203125,16.962890625 42.5390625,16.318359375 42.1875,15.5859375 41.71875,14.9853515625 41.07421875,14.736328125z M56.865234375,12.626953125L50.537109375,18.955078125 52.646484375,21.064453125 50.537109375,23.173828125 48.427734375,21.064453125 42.099609375,27.36328125 44.208984375,29.47265625 42.099609375,31.58203125 40.01953125,29.47265625 31.58203125,37.91015625 31.8603515625,39.052734375 32.578125,39.6826171875 33.57421875,39.9609375 34.6875,40.01953125 35.80078125,40.01953125 36.09375,39.697265625 35.80078125,38.96484375 36.1083984375,38.2177734375 36.85546875,37.91015625 37.587890625,38.203125 40.3125,35.478515625 40.01953125,34.74609375 40.3271484375,33.9990234375 41.07421875,33.69140625 41.806640625,34.013671875 43.1396484375,32.607421875 44.53125,31.2890625 44.208984375,30.52734375 44.5166015625,29.7802734375 45.263671875,29.47265625 46.025390625,29.794921875 48.75,27.0703125 48.427734375,26.30859375 48.75,25.5908203125 49.482421875,25.283203125 50.21484375,25.576171875 51.62109375,24.2431640625 52.939453125,22.8515625 52.646484375,22.119140625 52.9541015625,21.3720703125 53.701171875,21.064453125 54.43359375,21.357421875 55.83984375,20.0244140625 57.158203125,18.6328125 56.865234375,17.900390625 57.1728515625,17.1533203125 57.919921875,16.845703125 58.65234375,17.16796875 58.9453125,16.845703125 58.9453125,14.736328125 56.865234375,12.626953125z M43.154296875,12.626953125L42.4072265625,12.94921875 42.099609375,13.7109375 42.2314453125,14.443359375 42.5537109375,15.41015625 42.9345703125,16.3916015625 43.212890625,17.16796875 43.41796875,17.314453125 43.59375,17.4609375 45.05859375,16.025390625 44.150390625,13.359375 43.154296875,12.626953125z M54.755859375,10.517578125L48.427734375,16.845703125 49.482421875,17.900390625 55.810546875,11.572265625 54.755859375,10.517578125z M50.537109375,10.517578125L49.04296875,12.01171875 50.537109375,12.626953125 52.03125,12.01171875 52.646484375,10.517578125 50.537109375,10.517578125z M49.453125,6.328125L48.7353515625,6.6357421875 48.427734375,7.35351610183716 48.662109375,8.203125 49.1015625,8.994140625 49.7314453125,8.5546875 50.5078125,8.408203125 51.240234375,8.5546875 50.947265625,7.88085889816284 50.595703125,7.1484375 50.126953125,6.5625 49.453125,6.328125z M51.591796875,4.21874952316284L50.859375,4.541015625 50.537109375,5.2734375 50.6689453125,6.005859375 50.9765625,6.97265672683716 51.3427734375,7.95410203933716 51.62109375,8.73046875 52.03125,9.052734375 53.466796875,7.58789110183716 52.587890625,4.921875 52.1923828125,4.4091796875 51.591796875,4.21874952316284z M51.591796875,0L54.375,0.732421636581421 56.0888671875,2.60742163658142 57.1435546875,5.1416015625 57.978515625,7.822265625 60.615234375,10.458984375 65.2734375,5.80078125 65.2734375,67.3828125 2.10937452316284,67.3828125 2.10937452316284,49.072265625 0,46.93359375 0,28.974609375 9.08203125,38.0859375 11.7041015625,40.517578125 14.4580078125,42.451171875 17.51953125,43.740234375 21.064453125,44.208984375 25.0927734375,43.6083984375 28.798828125,41.89453125 27.744140625,40.01953125 27.36328125,37.91015625 27.75146484375,34.60693359375 28.916015625,31.494140625 27.7587890625,29.560546875 27.36328125,27.36328125 27.59765625,25.72265625 27.392578125,24.228515625 28.125,21.533203125 30.1171875,19.599609375 32.0361328125,17.5634765625 34.74609375,16.845703125 35.947265625,16.9921875 35.80078125,15.791015625 36.5185546875,13.0810546875 38.5546875,11.162109375 40.458984375,9.140625 43.154296875,8.4375 43.76953125,8.466796875 44.35546875,8.5546875 44.208984375,7.3828125 44.9267578125,4.6728515625 46.962890625,2.75390625 48.8818359375,0.717773199081421 51.591796875,0z" />
    </g>
  </g>
</svg>