<?xml version="1.0" encoding="utf-8"?>
<!DOCTYPE svg PUBLIC "-//W3C//DTD SVG 1.1//EN" "http://www.w3.org/Graphics/SVG/1.1/DTD/svg11.dtd">
<svg width="67.3828125000006" height="56.8359375" xmlns="http://www.w3.org/2000/svg" xmlns:xlink="http://www.w3.org/1999/xlink" xmlns:xml="http://www.w3.org/XML/1998/namespace" version="1.1">
  <g>
    <g>
      <path style="fill:#FF0000;fill-opacity:1" d="M21.064453125,29.47265625L22.5439453125,30.1025390625 23.173828125,31.58203125 18.955078125,31.58203125 19.5703125,30.087890625 21.064453125,29.47265625z M18.955078125,23.14453125L20.595703125,23.4814453125 21.9287109375,24.3896484375 22.8369140625,25.72265625 23.173828125,27.36328125 14.736328125,27.36328125 15.0732421875,25.72265625 15.9814453125,24.3896484375 17.314453125,23.4814453125 18.955078125,23.14453125z M52.646484375,21.064453125L54.755859375,23.14453125 52.646484375,25.25390625 50.537109375,23.14453125 52.646484375,21.064453125z M40.01953125,21.064453125L48.427734375,25.25390625 48.427734375,29.47265625 44.208984375,31.58203125 35.80078125,31.58203125 27.36328125,27.36328125 40.01953125,21.064453125z M28.41796875,21.064453125L29.150390625,21.3720703125 29.47265625,22.08984375 29.1650390625,22.8369140625 28.41796875,23.14453125 27.6708984375,22.8369140625 27.36328125,22.08984375 27.685546875,21.3720703125 28.41796875,21.064453125z M23.173828125,16.845703125L25.25390625,18.955078125 21.064453125,18.955078125 23.173828125,16.845703125z M34.74609375,15.791015625L35.9619140625,16.0400390625 36.97265625,16.728515625 37.6611328125,17.7392578125 37.91015625,18.955078125 31.58203125,18.955078125 31.8310546875,17.724609375 32.5048828125,16.7138671875 33.5009765625,16.0400390625 34.74609375,15.791015625z M33.69140625,14.736328125L29.560546875,14.8974609375 24.990234375,15.41015625 20.2880859375,16.3623046875 15.76171875,17.8125 11.71875,19.8193359375 8.49609375,22.470703125 8.4375,22.822265625 8.4375,23.173828125 8.7744140625,24.7998046875 9.6533203125,26.2353515625 10.869140625,27.4658203125 12.1875,28.4765625 15.205078125,30.17578125 18.515625,31.4794921875 21.9580078125,32.431640625 25.37109375,33.076171875 26.1181640625,31.9921875 27.36328125,31.58203125 28.8134765625,32.138671875 29.47265625,33.544921875 31.5673828125,33.6474609375 33.662109375,33.69140625 39.0966796875,33.427734375 44.8388671875,32.548828125 50.3759765625,30.9375 55.1953125,28.4765625 56.513671875,27.4658203125 57.7294921875,26.220703125 58.6083984375,24.78515625 58.9453125,23.14453125 58.9453125,22.8076171875 58.88671875,22.470703125 55.6494140625,19.8193359375 51.62109375,17.8125 47.0947265625,16.3623046875 42.392578125,15.41015625 37.822265625,14.8974609375 33.69140625,14.736328125z M33.662109375,10.517578125L38.5107421875,10.7080078125 43.447265625,11.337890625 48.28125,12.4658203125 52.822265625,14.12109375 55.60546875,15.6005859375 58.271484375,17.5927734375 60.263671875,20.1123046875 60.85693359375,21.5661640167236 61.0546875,23.14453125 60.76171875,25.0341796875 59.9560546875,26.71875 58.76953125,28.212890625 57.36328125,29.501953125 52.177734375,32.5048828125 46.0546875,34.453125 39.6533203125,35.4931640625 33.662109375,35.80078125 29.5166015625,35.6396484375 24.90234375,35.1123046875 20.126953125,34.1455078125 15.556640625,32.666015625 11.5283203125,30.6298828125 8.349609375,27.94921875 6.8994140625,25.72265625 6.328125,23.14453125 6.708984375,21.03515625 7.7197265625,19.1748046875 9.1552734375,17.578125 10.810546875,16.23046875 15.9228515625,13.53515625 21.7822265625,11.77734375 27.8759765625,10.810546875 33.662109375,10.517578125z M27.36328125,4.21874952316284L26.2353515625,4.49706983566284 25.5908203125,5.21484422683716 25.2978515625,6.22558641433716 25.224609375,7.3828125 25.2392578125,8.2470703125 25.25390625,9.0234375 21.298828125,9.7998046875 16.7431640625,11.1474609375 12.158203125,13.125 8.14453125,15.76171875 5.302734375,19.0869140625 4.48974609375,21.0168476104736 4.21875,23.14453125 4.7900390625,26.07421875 6.3134765625,28.6376953125 8.5107421875,30.8203125 11.1328125,32.63671875 13.916015625,34.1015625 16.58203125,35.185546875 20.8740234375,36.4599609375 25.25390625,37.294921875 25.2392578125,38.0712890625 25.224609375,38.935546875 25.2978515625,40.0927734375 25.5908203125,41.103515625 26.2353515625,41.8212890625 27.36328125,42.099609375 40.01953125,42.099609375 41.1328125,41.8212890625 41.7626953125,41.0888671875 42.0556640625,40.078125 42.12890625,38.935546875 42.1142578125,38.0712890625 42.099609375,37.294921875 46.494140625,36.4599609375 50.771484375,35.185546875 53.4521484375,34.1015625 56.25,32.63671875 58.8720703125,30.8203125 61.0693359375,28.6376953125 62.5927734375,26.07421875 63.1640625,23.14453125 62.89306640625,21.0168476104736 62.080078125,19.0869140625 59.23828125,15.76171875 55.224609375,13.125 50.625,11.1474609375 46.0546875,9.78515625 42.099609375,9.0234375 42.1142578125,8.2470703125 42.12890625,7.3828125 42.0556640625,6.25488233566284 41.7626953125,5.22949171066284 41.1328125,4.49706983566284 40.01953125,4.21874952316284 27.36328125,4.21874952316284z M27.36328125,0L40.01953125,0 42.2607421875,0.410156548023224 44.1650390625,1.55273461341858 45.556640625,3.2958984375 46.259765625,5.47851514816284 50.80078125,6.6943359375 55.546875,8.5400390625 60.029296875,11.07421875 63.80859375,14.326171875 66.416015625,18.33984375 67.14111328125,20.6396503448486 67.3828125,23.14453125 67.3828125,31.58203125 67.15576171875,35.00244140625 66.474609375,38.291015625 63.92578125,44.326171875 59.970703125,49.4384765625 54.84375,53.37890625 48.80859375,55.927734375 45.5200157165527,56.60888671875 42.099609375,56.8359375 25.25390625,56.8359375 21.8334941864014,56.60888671875 18.544921875,55.927734375 12.5244140625,53.37890625 7.412109375,49.423828125 3.45703220367432,44.3115234375 0.908203125,38.291015625 0.227050423622131,35.00244140625 0,31.58203125 0,23.14453125 0.241698861122131,20.6396503448486 0.966796875,18.33984375 3.57421875,14.326171875 7.35351657867432,11.07421875 11.8359375,8.5400390625 16.58203125,6.6943359375 21.123046875,5.47851514816284 21.826171875,3.2958984375 23.2177734375,1.55273461341858 25.107421875,0.410156548023224 27.36328125,0z" />
    </g>
  </g>
</svg>