<?xml version="1.0" encoding="utf-8"?>
<!DOCTYPE svg PUBLIC "-//W3C//DTD SVG 1.1//EN" "http://www.w3.org/Graphics/SVG/1.1/DTD/svg11.dtd">
<svg width="67.3242187500013" height="67.3828125" xmlns="http://www.w3.org/2000/svg" xmlns:xlink="http://www.w3.org/1999/xlink" xmlns:xml="http://www.w3.org/XML/1998/namespace" version="1.1">
  <g>
    <g>
      <path style="fill:#FF0000;fill-opacity:1" d="M39.990234375,58.974609375L38.5107421875,59.58984375 37.880859375,61.0546875 38.49609375,62.548828125 39.990234375,63.1640625 41.484375,62.548828125 42.099609375,61.0546875 41.4697265625,59.58984375 39.990234375,58.974609375z M48.3984375,50.537109375L46.9189453125,51.1669921875 46.2890625,52.646484375 46.9189453125,54.1259765625 48.3984375,54.755859375 49.892578125,54.140625 50.5078125,52.646484375 49.892578125,51.15234375 48.3984375,50.537109375z M33.662109375,50.537109375L32.16796875,51.15234375 31.552734375,52.646484375 32.16796875,54.140625 33.662109375,54.755859375 35.15625,54.140625 35.771484375,52.646484375 35.15625,51.15234375 33.662109375,50.537109375z M52.6171875,42.12890625L51.123046875,42.744140625 50.5078125,44.23828125 51.1376953125,45.703125 52.6171875,46.318359375 54.0966796875,45.703125 54.7265625,44.23828125 54.111328125,42.744140625 52.6171875,42.12890625z M14.70703125,42.12890625L13.2421875,42.7587890625 12.626953125,44.23828125 13.2421875,45.703125 14.70703125,46.318359375 16.1865234375,45.703125 16.81640625,44.23828125 16.201171875,42.744140625 14.70703125,42.12890625z M26.30859375,40.01953125L25.4296875,40.48828125 25.224609375,41.54296875 25.25390625,42.1875 25.283203125,42.744140625 24.873046875,44.0185546875 23.7890625,44.296875 22.998046875,44.267578125 22.08984375,44.23828125 20.8740234375,44.4873046875 19.86328125,45.1611328125 19.1748046875,46.1572265625 18.92578125,47.373046875 19.1748046875,48.5888671875 19.86328125,49.599609375 20.8740234375,50.2880859375 22.08984375,50.537109375 22.7783203125,50.5078125 23.466796875,50.478515625 24.0673828125,50.5078125 24.638671875,50.654296875 25.078125,50.9912109375 25.25390625,51.591796875 25.078125,52.1923828125 24.638671875,52.529296875 24.0673828125,52.67578125 23.466796875,52.705078125 22.7783203125,52.67578125 22.08984375,52.646484375 20.8740234375,52.8955078125 19.86328125,53.583984375 19.1748046875,54.5947265625 18.92578125,55.810546875 19.1748046875,57.0263671875 19.86328125,58.037109375 20.8740234375,58.7255859375 22.08984375,58.974609375 24.19921875,58.974609375 25.0927734375,59.4873046875 25.283203125,60.615234375 25.2685546875,61.1279296875 25.25390625,61.58203125 25.283203125,62.1533203125 25.4150390625,62.6513671875 25.7373046875,63.017578125 26.30859375,63.1640625 27.216796875,62.607421875 27.421875,61.376953125 27.392578125,60.615234375 27.36328125,60.029296875 27.1142578125,58.8134765625 26.42578125,57.802734375 25.4150390625,57.1142578125 24.19921875,56.865234375 23.5107421875,56.89453125 22.822265625,56.923828125 22.2216796875,56.89453125 21.650390625,56.748046875 21.2109375,56.4111328125 21.03515625,55.810546875 21.2109375,55.2099609375 21.650390625,54.873046875 22.2216796875,54.7265625 22.822265625,54.697265625 23.5107421875,54.7265625 24.19921875,54.755859375 25.4150390625,54.5068359375 26.42578125,53.818359375 27.1142578125,52.8076171875 27.36328125,51.591796875 27.1142578125,50.3759765625 26.42578125,49.365234375 25.4150390625,48.6767578125 24.19921875,48.427734375 23.5107421875,48.45703125 22.822265625,48.486328125 22.2216796875,48.45703125 21.650390625,48.310546875 21.2109375,47.9736328125 21.03515625,47.373046875 21.5771484375,46.46484375 22.79296875,46.259765625 23.5693359375,46.2890625 24.19921875,46.318359375 25.8984375,45.9375 26.8798828125,44.9267578125 27.3193359375,43.4765625 27.421875,41.806640625 27.392578125,41.2060546875 27.24609375,40.634765625 26.9091796875,40.1953125 26.30859375,40.01953125z M33.662109375,37.91015625L32.16796875,38.525390625 31.552734375,40.01953125 32.16796875,41.513671875 33.662109375,42.12890625 35.15625,41.513671875 35.771484375,40.01953125 35.15625,38.525390625 33.662109375,37.91015625z M25.25390625,31.58203125L23.759765625,32.197265625 23.14453125,33.69140625 23.759765625,35.185546875 25.25390625,35.80078125 26.7333984375,35.1708984375 27.36328125,33.69140625 26.7333984375,32.2119140625 25.25390625,31.58203125z M38.935546875,29.47265625L38.02734375,30.0146484375 37.822265625,31.23046875 37.8515625,32.0068359375 37.880859375,32.63671875 38.1005859375,33.9111328125 38.759765625,34.921875 39.7705078125,35.5810546875 41.044921875,35.80078125 41.7333984375,35.771484375 42.421875,35.7421875 43.0224609375,35.771484375 43.59375,35.91796875 44.033203125,36.2548828125 44.208984375,36.85546875 44.033203125,37.4560546875 43.59375,37.79296875 43.0224609375,37.939453125 42.421875,37.96875 41.7333984375,37.939453125 41.044921875,37.91015625 39.7998046875,38.1591796875 38.8037109375,38.8330078125 38.1298828125,39.84375 37.880859375,41.07421875 38.1298828125,42.2900390625 38.818359375,43.30078125 39.8291015625,43.9892578125 41.044921875,44.23828125 41.7041015625,44.208984375 42.36328125,44.1796875 42.94921875,44.208984375 43.5498046875,44.35546875 44.0185546875,44.6923828125 44.208984375,45.263671875 44.033203125,45.8642578125 43.59375,46.201171875 43.0224609375,46.34765625 42.421875,46.376953125 41.7333984375,46.34765625 41.044921875,46.318359375 39.8291015625,46.5673828125 38.818359375,47.255859375 38.1298828125,48.2666015625 37.880859375,49.482421875 37.8515625,50.1708984375 37.822265625,50.859375 37.8515625,51.4599609375 37.998046875,52.03125 38.3349609375,52.470703125 38.935546875,52.646484375 39.8291015625,52.1337890625 40.01953125,51.005859375 40.0048828125,50.4931640625 39.990234375,50.0390625 40.1513671875,48.9404296875 41.044921875,48.427734375 43.154296875,48.427734375 44.3701171875,48.1787109375 45.3662109375,47.490234375 46.0400390625,46.4794921875 46.2890625,45.263671875 46.0400390625,44.0478515625 45.3662109375,43.0517578125 44.3701171875,42.3779296875 43.154296875,42.12890625 42.4658203125,42.158203125 41.77734375,42.1875 41.1767578125,42.158203125 40.60546875,42.01171875 40.166015625,41.6748046875 39.990234375,41.07421875 40.166015625,40.4736328125 40.60546875,40.13671875 41.1767578125,39.990234375 41.77734375,39.9609375 42.4658203125,39.990234375 43.154296875,40.01953125 44.3701171875,39.7705078125 45.3662109375,39.08203125 46.0400390625,38.0712890625 46.2890625,36.85546875 46.0400390625,35.6396484375 45.3662109375,34.62890625 44.3701171875,33.9404296875 43.154296875,33.69140625 41.044921875,33.69140625 40.13671875,33.2080078125 39.931640625,32.138671875 39.9609375,31.5087890625 39.990234375,30.966796875 39.814453125,29.9267578125 38.935546875,29.47265625z M33.662109375,25.283203125L32.1826171875,25.8984375 31.552734375,27.36328125 32.16796875,28.857421875 33.662109375,29.47265625 35.15625,28.857421875 35.771484375,27.36328125 35.1416015625,25.8984375 33.662109375,25.283203125z M48.662109375,14.677734375L45.9228515625,14.970703125 43.1689453125,15.8056640625 40.634765625,17.1533203125 38.5546875,18.955078125 38.0712890625,19.6728515625 37.880859375,20.5078125 38.056640625,21.298828125 38.525390625,21.943359375 39.9169921875,23.408203125 41.3671875,24.814453125 52.412109375,36.064453125 53.9794921875,37.734375 55.634765625,39.345703125 56.337890625,39.8291015625 57.158203125,40.01953125 57.94921875,39.8291015625 58.59375,39.345703125 60.498046875,37.20703125 61.93359375,34.5263671875 62.841796875,31.6259765625 63.1640625,28.76953125 62.867431640625,25.9313983917236 61.9775390625,23.2763671875 60.5859375,20.877685546875 58.7841796875,18.80859375 56.62353515625,17.10205078125 54.1552734375,15.791015625 51.4709434509277,14.9560546875 48.662109375,14.677734375z M18.662109375,14.677734375L15.853271484375,14.9560546875 13.1689453125,15.791015625 10.704345703125,17.10205078125 8.5546875,18.80859375 6.76391506195068,20.88134765625 5.3759765625,23.291015625 4.486083984375,25.9497089385986 4.189453125,28.76953125 4.4970703125,31.611328125 5.4052734375,34.5263671875 6.8408203125,37.20703125 8.73046875,39.345703125 9.375,39.8291015625 10.166015625,40.01953125 11.0009765625,39.8291015625 11.71875,39.345703125 13.3740234375,37.7490234375 14.94140625,36.064453125 26.572265625,24.19921875 27.71484375,23.0859375 28.798828125,21.943359375 28.857421875,21.85546875 29.3115234375,21.2255859375 29.47265625,20.5078125 29.2822265625,19.6728515625 28.798828125,18.955078125 26.6748046875,17.1533203125 24.169921875,15.8056640625 21.4306640625,14.970703125 18.662109375,14.677734375z M33.662109375,4.21874952316284L32.9150390625,4.5263671875 32.607421875,5.2734375 32.1240234375,8.26171875 30.76171875,10.8837890625 28.6669921875,12.9638671875 25.95703125,14.326171875 27.099609375,14.9560546875 28.18359375,15.673828125 31.4208984375,13.3447265625 33.662109375,10.048828125 35.9033203125,13.3447265625 39.140625,15.673828125 40.25390625,14.9560546875 41.396484375,14.326171875 38.671875,12.9638671875 36.5625,10.8837890625 35.2001953125,8.26171875 34.716796875,5.2734375 34.4091796875,4.5263671875 33.662109375,4.21874952316284z M33.662109375,0L35.712890625,0.410156488418579 37.3974609375,1.53808617591858 38.525390625,3.22265577316284 38.935546875,5.2734375 39.345703125,7.3095703125 40.4736328125,8.9794921875 42.158203125,10.107421875 44.208984375,10.517578125 48.3984375,10.517578125 53.3349609375,11.1474609375 57.83203125,12.94921875 61.6845703125,15.76171875 64.6875,19.4384765625 66.6357421875,23.8330078125 67.32421875,28.798828125 66.9287109375,32.4755859375 65.80078125,36.15234375 63.9990234375,39.5361328125 61.58203125,42.333984375 60.3955078125,43.2421875 59.150390625,44.0625 59.0185546875,44.1357421875 58.9453125,44.23828125 58.681640625,46.2744140625 57.890625,48.134765625 56.572265625,49.6142578125 54.7265625,50.537109375 54.7265625,52.646484375 54.228515625,55.107421875 52.8662109375,57.1142578125 50.859375,58.4765625 48.3984375,58.974609375 46.2890625,58.974609375 46.2890625,61.0546875 45.791015625,63.515625 44.443359375,65.5224609375 42.451171875,66.884765625 39.990234375,67.3828125 37.529296875,66.884765625 35.5224609375,65.5224609375 34.16015625,63.515625 33.662109375,61.0546875 33.662109375,58.974609375 31.552734375,58.974609375 31.552734375,62.109375 31.142578125,64.16015625 30.0146484375,65.8447265625 28.3447265625,66.97265625 26.30859375,67.3828125 24.5068359375,67.060546875 22.9541015625,66.1669921875 21.7822265625,64.8193359375 21.123046875,63.10546875 18.57421875,62.28515625 16.552734375,60.6591796875 15.205078125,58.4326171875 14.70703125,55.810546875 15.03662109375,53.5986328125 16.025390625,51.591796875 14.70703125,50.537109375 12.2607421875,50.0390625 10.25390625,48.69140625 8.90625,46.6845703125 8.408203125,44.23828125 8.3349609375,44.1357421875 8.20312595367432,44.0625 6.9580078125,43.2421875 5.771484375,42.333984375 3.3544921875,39.5068359375 1.5380859375,36.1376953125 0.395508289337158,32.490234375 0,28.798828125 0.380859196186066,25.0415058135986 1.5234375,21.5625 3.314208984375,18.4423828125 5.6396484375,15.76171875 8.441162109375,13.568115234375 11.66015625,11.9091796875 15.1904296875,10.865478515625 18.92578125,10.517578125 23.14453125,10.517578125 25.1953125,10.107421875 26.8798828125,8.9794921875 28.0078125,7.3095703125 28.41796875,5.2734375 28.828125,3.22265577316284 29.9560546875,1.53808617591858 31.6259765625,0.410156488418579 33.662109375,0z" />
    </g>
  </g>
</svg>