<?xml version="1.0" encoding="utf-8"?>
<!DOCTYPE svg PUBLIC "-//W3C//DTD SVG 1.1//EN" "http://www.w3.org/Graphics/SVG/1.1/DTD/svg11.dtd">
<svg width="29.501953125" height="45.52734375" xmlns="http://www.w3.org/2000/svg" xmlns:xlink="http://www.w3.org/1999/xlink" xmlns:xml="http://www.w3.org/XML/1998/namespace" version="1.1">
  <g>
    <g>
      <path style="fill:#FF0000;fill-opacity:1" d="M2.431640625,26.484375L3.20800757408142,26.7041015625 4.189453125,27.36328125 5.38330078125,28.46923828125 6.796875,30.029296875 10.5029296875,31.53076171875 14.8828125,33.6328125 17.5048828125,32.33642578125 21.5625,30.556640625 21.9873027801514,30.3662109375 22.79296875,30.029296875 24.3457012176514,28.516845703125 25.60546875,27.4365234375 26.5649394989014,26.788330078125 27.216796875,26.572265625 28.125,26.953125 28.41796875,28.125 28.212890625,30.029296875 29.15771484375,31.40625 29.47265625,32.373046875 29.12109375,33.3544921875 28.06640625,33.69140625 26.9970703125,33.3251953125 25.166015625,32.255859375 21.8847637176514,33.25927734375 17.431640625,35.2734375 18.369140625,35.830078125 20.3320293426514,36.99462890625 22.705078125,38.49609375 23.2324199676514,38.818359375 24.169921875,39.375 26.502685546875,39.774169921875 28.1689453125,40.3564453125 29.168701171875,41.121826171875 29.501953125,42.0703125 28.7841796875,43.1982421875 26.630859375,43.88671875 25.4003887176514,45.1171875 24.404296875,45.52734375 23.3642559051514,44.8388671875 22.353515625,42.7734375 22.03125,41.923828125 18.134765625,38.96484375 14.6484375,36.826171875 10.78125,39.3017578125 7.20703125,42.216796875 6.90673828125,43.6651611328125 6.474609375,44.69970703125 5.91064453125,45.3204345703125 5.21484375,45.52734375 4.1748046875,45.05859375 2.98828125,43.65234375 0.7470703125,43.2421875 0,42.01171875 0.2783203125,40.975341796875 1.11328125,40.2685546875 2.84179663658142,39.730224609375 5.80078125,39.19921875 8.71581935882568,37.236328125 12.12890625,35.2734375 7.66113185882568,33.28857421875 4.1015625,32.255859375 2.75390577316284,33.22265625 1.611328125,33.544921875 0.454102039337158,33.22265625 0.0585942268371582,32.28515625 0.380859434604645,31.44287109375 1.34765625,30.029296875 1.0546875,28.212890625 1.40625,26.9091796875 2.431640625,26.484375z M10.166015625,21.26953125L10.4296875,21.943359375 11.136474609375,23.232421875 11.9091796875,23.994140625 12.982177734375,24.36767578125 14.58984375,24.4921875 16.373291015625,24.375 17.5048828125,24.0234375 18.277587890625,23.26904296875 18.984375,21.943359375 19.248046875,21.26953125 20.302734375,21.533203125 19.5703125,24.43359375 17.783203125,25.986328125 16.5380859375,27.3486328125 14.70703125,27.802734375 12.88330078125,27.3486328125 11.630859375,25.986328125 9.84375,24.43359375 9.111328125,21.533203125 10.166015625,21.26953125z M14.794921875,15.9375L13.7109375,17.490234375 13.0078125,18.720703125 13.2861328125,19.423828125 14.091796875,19.658203125 14.794921875,19.423828125 15.498046875,19.658203125 16.31103515625,19.4165058135986 16.58203125,18.69140625 15.87890625,17.490234375 14.794921875,15.9375z M19.248046875,10.869140625L17.3583984375,11.54296875 16.728515625,13.564453125 17.34375,15.6738300323486 19.189453125,16.376953125 20.2661113739014,16.1883563995361 21.0351543426514,15.6225605010986 21.4965801239014,14.6795663833618 21.650390625,13.359375 21.0498046875,11.484375 19.248046875,10.869140625z M10.576171875,10.869140625L8.6865234375,11.54296875 8.056640625,13.564453125 8.66454982757568,15.6738300323486 10.48828125,16.376953125 11.56494140625,16.1883563995361 12.333984375,15.6225605010986 12.79541015625,14.6795663833618 12.94921875,13.359375 12.35595703125,11.49169921875 10.576171875,10.869140625z M14.765625,0L18.9038066864014,0.60791015625 22.177734375,2.431640625 24.3090801239014,5.23681640625 25.01953125,8.7890625 24.5507793426514,12.1215829849243 23.14453125,15.380859375 22.8515625,16.435546875 22.470703125,18.896484375 18.369140625,20.859375 17.783203125,22.353515625 16.47216796875,22.63916015625 14.765625,22.734375 13.06640625,22.6318359375 11.748046875,22.353515625 11.162109375,20.859375 7.060546875,18.896484375 6.6796875,16.435546875 6.32080078125,15.3955097198486 5.419921875,13.681640625 4.73876953125,11.6967782974243 4.51171875,8.7890625 5.22216796875,5.23681640625 7.353515625,2.431640625 10.62744140625,0.60791015625 14.765625,0z" />
    </g>
  </g>
</svg>