<?xml version="1.0" encoding="utf-8"?>
<!DOCTYPE svg PUBLIC "-//W3C//DTD SVG 1.1//EN" "http://www.w3.org/Graphics/SVG/1.1/DTD/svg11.dtd">
<svg width="62.841796875" height="66.181640625" xmlns="http://www.w3.org/2000/svg" xmlns:xlink="http://www.w3.org/1999/xlink" xmlns:xml="http://www.w3.org/XML/1998/namespace" version="1.1">
  <g>
    <g>
      <path style="fill:#FF0000;fill-opacity:1" d="M7.20703125,53.5546875L7.20703125,55.6640625 17.75390625,55.6640625 17.75390625,61.962890625 19.833984375,61.962890625 19.833984375,55.6640625 57.744140625,55.6640625 57.744140625,53.5546875 7.20703125,53.5546875z M45.1171875,36.708984375L45.1171875,43.0078125 7.20703125,43.0078125 7.20703125,45.1171875 57.744140625,45.1171875 57.744140625,43.0078125 47.2265625,43.0078125 47.2265625,36.708984375 45.1171875,36.708984375z M49.3359375,26.162109375L40.8984375,34.599609375 49.3359375,34.599609375 57.744140625,26.162109375 49.3359375,26.162109375z M32.490234375,26.162109375L24.052734375,34.599609375 32.490234375,34.599609375 40.8984375,26.162109375 32.490234375,26.162109375z M15.64453125,26.162109375L7.20703125,34.599609375 15.64453125,34.599609375 24.052734375,26.162109375 15.64453125,26.162109375z M11.42578125,24.08203125L9.9462890625,24.697265625 9.31640625,26.162109375 9.931640625,27.65625 11.42578125,28.271484375 12.919921875,27.65625 13.53515625,26.162109375 12.9052734375,24.697265625 11.42578125,24.08203125z M13.53515625,15.64453125L5.09765625,17.75390625 15.64453125,24.08203125 19.8486328125,22.998046875 24.052734375,21.97265625 13.53515625,15.64453125z M30.380859375,11.42578125L21.943359375,13.53515625 32.490234375,19.86328125 36.6943359375,18.779296875 40.8984375,17.75390625 30.380859375,11.42578125z M47.2265625,7.236328125L38.7890625,9.31640625 49.3359375,15.64453125 57.744140625,13.53515625 47.2265625,7.236328125z M58.7109375,0L60.791015625,8.3056640625 62.841796875,16.611328125 56.6015625,18.193359375 50.361328125,19.74609375 41.923828125,21.826171875 41.42578125,21.97265625 61.962890625,21.97265625 61.962890625,59.853515625 61.46484375,62.314453125 60.1025390625,64.3212890625 58.095703125,65.68359375 55.634765625,66.181640625 9.31640625,66.181640625 6.85546875,65.68359375 4.8486328125,64.3212890625 3.48632907867432,62.314453125 2.98828125,59.853515625 3.017578125,43.7255859375 3.046875,27.59765625 2.8125,25.810546875 2.34375,24.052734375 0,14.677734375 29.3701171875,7.3681640625 58.7109375,0z" />
    </g>
  </g>
</svg>