<?xml version="1.0" encoding="utf-8"?>
<!DOCTYPE svg PUBLIC "-//W3C//DTD SVG 1.1//EN" "http://www.w3.org/Graphics/SVG/1.1/DTD/svg11.dtd">
<svg width="40.0195312500013" height="67.3828125" xmlns="http://www.w3.org/2000/svg" xmlns:xlink="http://www.w3.org/1999/xlink" xmlns:xml="http://www.w3.org/XML/1998/namespace" version="1.1">
  <g>
    <g>
      <path style="fill:#FF0000;fill-opacity:1" d="M18.955078125,58.974609375L21.064453125,58.974609375 21.064453125,61.0546875 18.955078125,61.0546875 18.955078125,58.974609375z M21.064453125,50.537109375L21.064453125,54.755859375 31.58203125,54.755859375 31.58203125,50.537109375 21.064453125,50.537109375z M8.408203125,50.537109375L8.408203125,54.755859375 18.955078125,54.755859375 18.955078125,50.537109375 8.408203125,50.537109375z M8.408203125,37.91015625L8.408203125,48.427734375 31.58203125,48.427734375 31.58203125,37.91015625 8.408203125,37.91015625z M21.064453125,25.283203125L21.064453125,35.80078125 31.58203125,35.80078125 31.58203125,25.283203125 21.064453125,25.283203125z M8.408203125,25.283203125L8.408203125,35.80078125 18.955078125,35.80078125 18.955078125,25.283203125 8.408203125,25.283203125z M27.36328125,18.955078125L27.36328125,23.173828125 31.58203125,23.173828125 31.58203125,18.955078125 27.36328125,18.955078125z M21.064453125,18.955078125L21.064453125,23.173828125 25.25390625,23.173828125 25.25390625,18.955078125 21.064453125,18.955078125z M27.36328125,12.626953125L27.36328125,16.845703125 31.58203125,16.845703125 31.58203125,12.626953125 27.36328125,12.626953125z M21.064453125,12.626953125L21.064453125,16.845703125 25.25390625,16.845703125 25.25390625,12.626953125 21.064453125,12.626953125z M8.408203125,12.626953125L8.408203125,23.173828125 18.955078125,23.173828125 18.955078125,12.626953125 8.408203125,12.626953125z M6.328125,10.517578125L33.69140625,10.517578125 33.69140625,56.865234375 6.328125,56.865234375 6.328125,10.517578125z M15.791015625,6.328125L24.228515625,6.328125 24.9462890625,6.650390625 25.25390625,7.3828125 24.9462890625,8.115234375 24.228515625,8.4375 15.791015625,8.4375 15.05859375,8.115234375 14.736328125,7.3828125 15.0439453125,6.6357421875 15.791015625,6.328125z M5.419921875,4.21874952316284L4.5703125,4.57031297683716 4.21875,5.419921875 4.21875,61.962890625 4.5703125,62.8125 5.419921875,63.1640625 34.599609375,63.1640625 35.44921875,62.8125 35.80078125,61.962890625 35.80078125,5.419921875 35.44921875,4.57031297683716 34.599609375,4.21874952316284 5.419921875,4.21874952316284z M5.2734375,0L34.74609375,0 36.796875,0.410156488418579 38.4814453125,1.53808617591858 39.609375,3.22265577316284 40.01953125,5.2734375 40.01953125,62.109375 39.609375,64.1748046875 38.4814453125,65.8447265625 36.796875,66.97265625 34.74609375,67.3828125 5.2734375,67.3828125 3.2080078125,66.97265625 1.5380859375,65.8447265625 0.41015625,64.1748046875 0,62.109375 0,5.2734375 0.41015625,3.22265577316284 1.5380859375,1.53808617591858 3.2080078125,0.410156488418579 5.2734375,0z" />
    </g>
  </g>
</svg>