<?xml version="1.0" encoding="utf-8"?>
<!DOCTYPE svg PUBLIC "-//W3C//DTD SVG 1.1//EN" "http://www.w3.org/Graphics/SVG/1.1/DTD/svg11.dtd">
<svg width="50.302734375" height="48.57421875" xmlns="http://www.w3.org/2000/svg" xmlns:xlink="http://www.w3.org/1999/xlink" xmlns:xml="http://www.w3.org/XML/1998/namespace" version="1.1">
  <g>
    <g>
      <path style="fill:#FF0000;fill-opacity:1" d="M27.041015625,31.69921875L24.9975566864014,34.31396484375 24.31640625,37.939453125 24.5782451629639,39.8199462890625 25.3637676239014,41.44775390625 26.6729717254639,42.8228759765625 28.505859375,43.9453125 28.0755596160889,43.0572509765625 27.6049785614014,41.74072265625 27.0941143035889,39.9957275390625 26.54296875,37.822265625 26.455078125,36.298828125 26.5869140625,34.1455078125 27.041015625,31.69921875z M27.158203125,22.294921875L50.302734375,22.294921875 50.302734375,23.232421875 50.1635704040527,27.139892578125 49.7460899353027,30.6298828125 49.0502891540527,33.702392578125 48.076171875,36.357421875 46.5898132324219,39.2207336425781 44.9285888671875,41.7022705078125 43.0924987792969,43.8020324707031 41.08154296875,45.52001953125 38.8957214355469,46.8562316894531 36.5350341796875,47.8106689453125 33.9994812011719,48.3833312988281 31.2890625,48.57421875 27.1655254364014,47.83447265625 23.818359375,45.615234375 21.59912109375,42.22412109375 20.859375,37.96875 21.0479736328125,35.8099365234375 21.61376953125,33.61083984375 22.5567626953125,31.3714599609375 23.876953125,29.091796875 26.2646465301514,24.9609375 27.158203125,22.294921875z M38.935546875,7.470703125L42.6708984375,7.6611328125 46.787109375,8.232421875 47.8198204040527,9.810791015625 48.7499961853027,12.4658203125 49.5776329040527,16.197509765625 50.302734375,21.005859375 38.935546875,21.005859375 38.935546875,7.470703125z M27.509765625,0L31.81640625,0.4669189453125 34.892578125,1.86767578125 36.73828125,4.2022705078125 37.353515625,7.470703125 37.353515625,21.005859375 27.158203125,21.005859375 27.2021484375,19.833984375 27.216796875,18.69140625 27.0556640625,15.1611328125 26.89453125,11.806640625 27.0922832489014,9.39697265625 27.685546875,8.203125 28.4088115692139,7.869873046875 29.5532207489014,7.6318359375 31.1187725067139,7.489013671875 33.10546875,7.44140625 34.5703125,7.44140625 34.130859375,5.13427734375 32.8125,3.544921875 30.60791015625,2.6220703125 27.509765625,2.31445264816284 23.7213134765625,2.52685523033142 20.17822265625,3.1640625 16.8804931640625,4.22607421875 13.828125,5.712890625 11.0723876953125,7.664794921875 9.10400390625,9.8583984375 7.9229736328125,12.293701171875 7.529296875,14.970703125 7.77099609375,16.6333026885986 8.49609375,18.0761737823486 9.70458984375,19.2993183135986 11.396484375,20.302734375 13.0883779525757,21.2786865234375 14.2968740463257,22.39013671875 15.0219717025757,23.6370849609375 15.263671875,25.01953125 15.0425720214844,26.4079284667969 14.3792715072632,27.8045654296875 13.2737722396851,29.2094421386719 11.7260732650757,30.62255859375 9.73617458343506,32.0439147949219 7.30407667160034,33.4735107421875 4.42977857589722,34.9113464355469 1.11328113079071,36.357421875 0,34.013671875 2.87017798423767,32.6953125 5.35766553878784,31.435546875 7.46246290206909,30.234375 9.18456935882568,29.091796875 10.5239858627319,28.0078125 11.4807119369507,26.982421875 12.0547485351563,26.015625 12.24609375,25.107421875 11.7700185775757,23.79638671875 10.341796875,22.734375 8.02734375,21.4892597198486 6.767578125,20.625 5.3173828125,18.2446308135986 4.833984375,14.970703125 5.2789306640625,11.839599609375 6.61376953125,8.9794921875 8.8385009765625,6.390380859375 11.953125,4.072265625 15.4083251953125,2.2906494140625 19.15283203125,1.01806640625 23.1866455078125,0.2545166015625 27.509765625,0z" />
    </g>
  </g>
</svg>