<?xml version="1.0" encoding="utf-8"?>
<!DOCTYPE svg PUBLIC "-//W3C//DTD SVG 1.1//EN" "http://www.w3.org/Graphics/SVG/1.1/DTD/svg11.dtd">
<svg width="67.3828125000004" height="67.3828125" xmlns="http://www.w3.org/2000/svg" xmlns:xlink="http://www.w3.org/1999/xlink" xmlns:xml="http://www.w3.org/XML/1998/namespace" version="1.1">
  <g>
    <g>
      <path style="fill:#FF0000;fill-opacity:1" d="M11.513671875,53.115234375L15.908203125,57.2021484375 20.9912109375,60.29296875 26.572265625,62.314453125 32.51953125,63.1640625 33.57421875,60.322265625 34.39453125,57.392578125 33.92578125,57.392578125 28.1689453125,57.12890625 22.5,56.337890625 16.9409160614014,55.0048828125 11.513671875,53.115234375z M4.39453125,37.119140625L5.625,42.7294921875 7.91015625,47.98828125 13.9599609375,50.672607421875 20.2734375,52.6318359375 26.77001953125,53.829345703125 33.369140625,54.228515625 34.16015625,54.2138671875 34.951171875,54.19921875 35.185546875,51.85546875 35.2734375,49.482421875 35.244140625,48.1640625 35.15625,46.845703125 32.9150390625,46.8310546875 30.673828125,46.7578125 23.63525390625,45.8349609375 16.81640625,43.88671875 10.3564453125,40.96435546875 4.39453125,37.119140625z M40.01953125,27.216796875L37.5,30.7470703125 35.419921875,34.5703125 37.67578125,41.8798828125 38.2470703125,45.662841796875 38.4375,49.482421875 37.822265625,56.396484375 35.947265625,63.076171875 40.166015625,62.4609375 44.267578125,61.201171875 45.4101524353027,55.4150390625 45.791015625,49.482421875 45.4321250915527,43.65966796875 44.35546875,37.96875 42.5537071228027,32.46826171875 40.01953125,27.216796875z M5.7421875,24.287109375L4.658203125,28.564453125 4.21875,32.958984375 10.81787109375,37.59521484375 18.017578125,40.95703125 25.70068359375,43.00048828125 33.75,43.681640625 34.8046875,43.681640625 33.9697265625,39.931640625 32.724609375,36.298828125 25.140380859375,35.372314453125 18.0322265625,33.0029296875 11.524658203125,29.2785663604736 5.7421875,24.287109375z M48.017578125,20.009765625L42.24609375,24.7265625 45.1538047790527,30.56396484375 47.255859375,36.650390625 48.5302696228027,42.9638671875 48.955078125,49.482421875 48.7060546875,54.521484375 47.9296875,59.501953125 52.3974609375,56.4697265625 56.25,52.67578125 56.337890625,49.62890625 55.8178672790527,41.795654296875 54.2578125,34.2333984375 51.6577110290527,26.9641132354736 48.017578125,20.009765625z M57.0703125,15.732421875L53.818359375,16.904296875 50.712890625,18.3984375 54.3823204040527,25.3088397979736 57.0703125,32.6220703125 58.76953125,40.228271484375 59.47265625,48.017578125 61.087646484375,44.6484375 62.2412109375,41.103515625 62.933349609375,37.43408203125 63.1640625,33.69140625 62.77587890625,28.8757343292236 61.611328125,24.2138671875 59.69970703125,19.801025390625 57.0703125,15.732421875z M48.076171875,7.939453125L40.667724609375,12.275390625 34.2626953125,17.841796875 28.992919921875,24.4921875 24.990234375,32.080078125 28.74755859375,32.8271484375 32.578125,33.134765625 36.5478515625,26.5576171875 41.689453125,20.9033203125 47.8564453125,16.376953125 54.84375,13.154296875 51.650390625,10.3125 48.076171875,7.939453125z M28.212890625,4.71679639816284L24.8291015625,5.58105754852295 21.591796875,6.826171875 15.703125,10.3564453125 10.78125,15.1611328125 7.060546875,21.03515625 12.626953125,26.19140625 15.618896484375,20.167236328125 19.2041015625,14.5751953125 23.397216796875,9.422607421875 28.212890625,4.71679639816284z M33.8671875,4.21874952316284L28.01513671875,9.19189453125 22.939453125,14.853515625 18.6840801239014,21.14501953125 15.29296875,28.0078125 21.97265625,31.171875 25.869140625,23.525390625 31.0107421875,16.728515625 37.236328125,10.9130859375 44.443359375,6.24023389816284 39.2431640625,4.74609375 33.8671875,4.21874952316284z M33.69140625,0L38.26171875,0.300295770168304 42.65625,1.20117139816284 46.8200645446777,2.65137004852295 50.6982421875,4.59960889816284 54.2687950134277,7.0166015625 57.509765625,9.873046875 60.3662109375,13.114013671875 62.783203125,16.6845703125 64.7314453125,20.562744140625 66.181640625,24.7265625 67.08251953125,29.1210956573486 67.3828125,33.69140625 67.08251953125,38.26171875 66.181640625,42.65625 64.7314453125,46.820068359375 62.783203125,50.6982421875 60.3662109375,54.268798828125 57.509765625,57.509765625 54.2687950134277,60.3662109375 50.6982421875,62.783203125 46.8200645446777,64.7314453125 42.65625,66.181640625 38.26171875,67.08251953125 33.69140625,67.3828125 29.12109375,67.08251953125 24.7265625,66.181640625 20.5627422332764,64.7314453125 16.6845703125,62.783203125 13.114013671875,60.3662109375 9.873046875,57.509765625 7.01660060882568,54.268798828125 4.599609375,50.6982421875 2.6513671875,46.820068359375 1.201171875,42.65625 0.300292611122131,38.26171875 0,33.69140625 0.300292611122131,29.1210956573486 1.201171875,24.7265625 2.6513671875,20.562744140625 4.599609375,16.6845703125 7.01660060882568,13.114013671875 9.873046875,9.873046875 13.114013671875,7.0166015625 16.6845703125,4.59960889816284 20.5627422332764,2.65137004852295 24.7265625,1.20117139816284 29.12109375,0.300295770168304 33.69140625,0z" />
    </g>
  </g>
</svg>