<?xml version="1.0" encoding="utf-8"?>
<!DOCTYPE svg PUBLIC "-//W3C//DTD SVG 1.1//EN" "http://www.w3.org/Graphics/SVG/1.1/DTD/svg11.dtd">
<svg width="58.9453125000012" height="66.650390625" xmlns="http://www.w3.org/2000/svg" xmlns:xlink="http://www.w3.org/1999/xlink" xmlns:xml="http://www.w3.org/XML/1998/namespace" version="1.1">
  <g>
    <g>
      <path style="fill:#FF0000;fill-opacity:1" d="M44.677734375,37.939453125L40.1953125,42.421875 41.6162109375,43.9453125 42.099609375,45.966796875 42.7294921875,47.4462890625 44.208984375,48.076171875 44.208984375,49.16015625 44.267578125,50.2734375 44.5458984375,51.26953125 45.1904296875,51.9873046875 46.318359375,52.265625 46.3037109375,52.8515625 46.2890625,53.4375 46.3623046875,54.5654296875 46.6552734375,55.5322265625 47.2998046875,56.220703125 48.427734375,56.484375 49.921875,55.869140625 50.537109375,54.375 50.537109375,45.966796875 50.1123046875,43.3447265625 48.9111328125,40.986328125 47.0654296875,39.111328125 44.677734375,37.939453125z M6.328125,37.529296875L6.328125,39.638671875 25.25390625,58.59375 37.91015625,45.966796875 37.91015625,44.736328125 37.470703125,44.296875 25.25390625,56.484375 15.8056640625,46.9921875 6.328125,37.529296875z M23.173828125,35.419921875L24.638671875,36.0498046875 25.25390625,37.529296875 24.638671875,39.0087890625 23.173828125,39.638671875 21.6796875,39.0234375 21.064453125,37.529296875 21.6796875,36.03515625 23.173828125,35.419921875z M21.591796875,28.41796875L18.92578125,31.1865234375 16.171875,33.8671875 15.5126953125,33.4716796875 14.736328125,33.310546875 13.2568359375,33.9404296875 12.626953125,35.419921875 13.2421875,36.9140625 14.736328125,37.529296875 16.23046875,36.9140625 23.7890625,44.47265625 23.173828125,45.966796875 23.7890625,47.431640625 25.25390625,48.046875 26.7333984375,47.431640625 27.36328125,45.966796875 26.748046875,44.47265625 31.58203125,39.638671875 31.58203125,38.408203125 30.64453125,37.470703125 28.7255859375,36.85546875 27.12890625,35.68359375 25.95703125,34.0869140625 25.341796875,32.16796875 23.4814453125,30.2783203125 21.591796875,28.41796875z M54.755859375,27.01171875L45.703125,36.064453125 46.4501953125,36.3427734375 47.138671875,36.708984375 54.755859375,29.12109375 54.755859375,27.01171875z M17.4609375,24.287109375L6.328125,35.419921875 25.25390625,54.375 36.416015625,43.2421875 34.306640625,41.1328125 25.25390625,50.15625 10.517578125,35.419921875 19.5703125,26.396484375 17.4609375,24.287109375z M38.525390625,20.68359375L40.01953125,22.177734375 37.294921875,24.90234375 35.80078125,23.408203125 38.525390625,20.68359375z M23.173828125,18.57421875L18.955078125,22.79296875 37.91015625,41.748046875 40.0048828125,39.6240234375 42.099609375,37.529296875 32.63671875,28.0517578125 23.173828125,18.57421875z M35.80078125,12.275390625L34.3212890625,12.890625 33.69140625,14.35546875 34.306640625,15.849609375 31.552734375,18.544921875 28.828125,21.26953125 32.51953125,24.9609375 34.4677734375,25.576171875 36.0498046875,26.748046875 37.1923828125,28.3447265625 37.822265625,30.263671875 38.759765625,31.201171875 40.01953125,31.201171875 42.421875,28.8134765625 44.82421875,26.396484375 46.318359375,27.01171875 47.8125,26.396484375 48.427734375,24.90234375 47.8125,23.408203125 46.318359375,22.79296875 44.82421875,23.408203125 37.294921875,15.849609375 37.91015625,14.35546875 37.2802734375,12.890625 35.80078125,12.275390625z M6.328125,10.166015625L4.833984375,10.78125 4.21875,12.275390625 4.49707126617432,13.4033203125 5.21484375,14.0478515625 6.2109375,14.326171875 7.32421875,14.384765625 8.408203125,14.384765625 8.671875,15.5126953125 9.375,16.142578125 10.37109375,16.40625 11.484375,16.46484375 12.626953125,16.46484375 13.2421875,17.958984375 14.736328125,18.57421875 16.7431640625,19.1015625 18.28125,20.5078125 22.763671875,15.99609375 21.5625,13.6376953125 19.7021484375,11.7919921875 17.3583984375,10.5908203125 14.736328125,10.166015625 6.328125,10.166015625z M35.80078125,5.94726610183716L24.638671875,17.080078125 26.748046875,19.189453125 35.80078125,10.166015625 50.537109375,24.90234375 41.484375,33.92578125 43.037109375,35.478515625 44.033203125,35.595703125 49.4091796875,30.263671875 54.755859375,24.90234375 35.80078125,5.94726610183716z M35.80078125,0L58.9453125,23.14453125 58.9453125,32.958984375 52.763671875,39.169921875 54.2431640625,42.421875 54.755859375,45.966796875 54.755859375,54.375 54.2578125,56.8359375 52.8955078125,58.8427734375 50.888671875,60.205078125 48.427734375,60.703125 46.0986328125,60.2490234375 44.150390625,59.0185546875 42.7587890625,57.1875 42.12890625,54.90234375 40.9277305603027,53.44482421875 40.1953125,51.708984375 25.25390625,66.650390625 2.109375,43.4765625 2.109375,33.69140625 13.18359375,22.587890625 11.4404296875,21.85546875 10.01953125,20.654296875 7.70507717132568,20.0244140625 5.80078125,18.57421875 3.515625,17.9443359375 1.669921875,16.552734375 0.439453125,14.6044921875 0,12.275390625 0.498047351837158,9.814453125 1.8603515625,7.8076171875 3.8671875,6.44531202316284 6.328125,5.94726610183716 14.736328125,5.94726610183716 17.6513652801514,6.27685832977295 20.361328125,7.26562547683716 22.7783184051514,8.84765625 24.814453125,10.95703125 35.80078125,0z" />
    </g>
  </g>
</svg>