<?xml version="1.0" encoding="utf-8"?>
<!DOCTYPE svg PUBLIC "-//W3C//DTD SVG 1.1//EN" "http://www.w3.org/Graphics/SVG/1.1/DTD/svg11.dtd">
<svg width="43.359375" height="44.82421875" xmlns="http://www.w3.org/2000/svg" xmlns:xlink="http://www.w3.org/1999/xlink" xmlns:xml="http://www.w3.org/XML/1998/namespace" version="1.1">
  <g>
    <g>
      <path style="fill:#FF0000;fill-opacity:1" d="M5.771484375,36.15234375L26.015625,36.15234375 26.015625,37.587890625 5.771484375,37.587890625 5.771484375,36.15234375z M5.771484375,30.3515625L26.015625,30.3515625 26.015625,31.81640625 5.771484375,31.81640625 5.771484375,30.3515625z M5.771484375,24.580078125L26.015625,24.580078125 26.015625,26.015625 5.771484375,26.015625 5.771484375,24.580078125z M5.771484375,18.80859375L26.015625,18.80859375 26.015625,20.244140625 5.771484375,20.244140625 5.771484375,18.80859375z M1.435546875,13.0078125L1.435546875,43.388671875 30.3515625,43.388671875 30.3515625,13.0078125 1.435546875,13.0078125z M7.236328125,7.236328125L7.236328125,11.572265625 31.81640625,11.572265625 31.81640625,37.587890625 36.15234375,37.587890625 36.15234375,7.236328125 7.236328125,7.236328125z M13.0078125,1.435546875L13.0078125,5.771484375 37.587890625,5.771484375 37.587890625,31.81640625 41.923828125,31.81640625 41.923828125,1.435546875 13.0078125,1.435546875z M11.572265625,0L43.359375,0 43.359375,33.251953125 37.587890625,33.251953125 37.587890625,39.0234375 31.81640625,39.0234375 31.81640625,44.82421875 0,44.82421875 0,11.572265625 5.771484375,11.572265625 5.771484375,5.771484375 11.572265625,5.771484375 11.572265625,0z" />
    </g>
  </g>
</svg>