<?xml version="1.0" encoding="utf-8"?>
<!DOCTYPE svg PUBLIC "-//W3C//DTD SVG 1.1//EN" "http://www.w3.org/Graphics/SVG/1.1/DTD/svg11.dtd">
<svg width="63.1640625000005" height="63.1640625" xmlns="http://www.w3.org/2000/svg" xmlns:xlink="http://www.w3.org/1999/xlink" xmlns:xml="http://www.w3.org/XML/1998/namespace" version="1.1">
  <g>
    <g>
      <path style="fill:#FF0000;fill-opacity:1" d="M34.74609375,10.517578125L33.984375,10.8544921875 33.69140625,11.5869140625 33.3984375,12.3046875 32.63671875,12.626953125 31.9482421875,12.59765625 31.259765625,12.568359375 30.6591796875,12.59765625 30.087890625,12.744140625 29.6484375,13.0810546875 29.47265625,13.681640625 29.6484375,14.2822265625 30.087890625,14.619140625 30.6591796875,14.765625 31.259765625,14.794921875 31.9482421875,14.765625 32.63671875,14.736328125 33.3984375,15.0732421875 33.69140625,15.8056640625 33.984375,16.5234375 34.74609375,16.845703125 35.6396484375,16.376953125 35.80078125,15.3515625 35.80078125,14.736328125 36.328125,13.3154296875 37.67578125,12.626953125 36.85546875,12.626953125 36.09375,12.3046875 35.8154296875,11.5869140625 35.5224609375,10.8544921875 34.74609375,10.517578125z M37.20703125,8.408203125L36.240234375,8.6279296875 35.80078125,9.462890625 36.3134765625,10.3564453125 37.44140625,10.546875 37.9541015625,10.5322265625 38.408203125,10.517578125 38.9794921875,10.546875 39.4921875,10.6787109375 39.873046875,11.0009765625 40.01953125,11.572265625 39.8583984375,12.2021484375 39.43359375,12.5244140625 38.8623046875,12.6416015625 38.26171875,12.65625 39.2724609375,13.1103515625 40.107421875,13.8134765625 40.9716796875,14.4580078125 42.099609375,14.736328125 43.154296875,14.736328125 43.9013671875,15.0439453125 44.208984375,15.791015625 43.7548828125,16.669921875 42.7734375,16.845703125 42.099609375,16.845703125 41.3818359375,17.16796875 41.07421875,17.900390625 40.83984375,18.544921875 40.25390625,18.8671875 39.4921875,19.0869140625 38.73046875,19.39453125 38.14453125,19.98046875 37.91015625,21.064453125 37.5732421875,22.294921875 36.8408203125,23.1591796875 36.123046875,24.0234375 35.80078125,25.25390625 35.80078125,25.83984375 35.771484375,26.3818359375 35.6396484375,26.8798828125 35.3173828125,27.2314453125 34.74609375,27.36328125 33.984375,27.041015625 33.69140625,26.3232421875 33.3984375,25.5908203125 32.63671875,25.25390625 29.47265625,25.25390625 27.9931640625,25.8837890625 27.36328125,27.36328125 27.36328125,28.4765625 27.421875,29.619140625 27.7001953125,30.615234375 28.3447265625,31.318359375 29.47265625,31.58203125 30.234375,31.259765625 30.52734375,30.5419921875 30.8203125,29.8095703125 31.58203125,29.47265625 32.34375,29.8095703125 32.63671875,30.5419921875 32.9296875,31.259765625 33.69140625,31.58203125 34.4677734375,31.9189453125 34.74609375,32.6513671875 35.0244140625,33.369140625 35.80078125,33.69140625 42.099609375,33.69140625 43.740234375,34.0283203125 45.0732421875,34.9365234375 45.9814453125,36.26953125 46.318359375,37.91015625 46.9482421875,39.3896484375 48.427734375,40.01953125 49.9072265625,40.634765625 50.537109375,42.099609375 49.951171875,44.4287109375 48.427734375,46.318359375 42.099609375,52.646484375 40.986328125,53.671875 39.9462890625,54.31640625 38.759765625,54.6533203125 37.236328125,54.755859375 36.240234375,54.5654296875 35.80078125,53.701171875 36.123046875,52.939453125 36.8408203125,52.646484375 37.5732421875,52.353515625 37.91015625,51.591796875 37.91015625,46.318359375 37.294921875,44.82421875 35.80078125,44.208984375 34.6728515625,43.9453125 34.0283203125,43.2421875 33.75,42.2607421875 33.69140625,41.19140625 33.75,39.580078125 34.0283203125,38.203125 34.658203125,36.97265625 35.80078125,35.80078125 33.45703125,35.21484375 31.58203125,33.69140625 30.234375,32.4755859375 28.974609375,31.8603515625 27.626953125,31.6259765625 26.044921875,31.58203125 25.25390625,31.58203125 23.7890625,30.9521484375 23.173828125,29.47265625 22.8662109375,27.7001953125 22.08984375,26.3671875 21.064453125,25.25390625 20.0390625,24.140625 19.2626953125,22.822265625 18.955078125,21.064453125 18.45703125,18.603515625 17.0947265625,16.5966796875 15.087890625,15.234375 12.626953125,14.736328125 10.01953125,14.736328125 7.51830959320068,18.55224609375 5.6982421875,22.67578125 4.588623046875,27.0410175323486 4.21875,31.58203125 4.464111328125,35.291748046875 5.2001953125,38.8623046875 6.37939357757568,42.24609375 7.9541015625,45.3955078125 12.2314453125,50.9326171875 17.7685546875,55.2099609375 20.9179668426514,56.78466796875 24.3017578125,57.9638671875 27.872314453125,58.699951171875 31.58203125,58.9453125 35.291748046875,58.699951171875 38.8623046875,57.9638671875 42.2460899353027,56.78466796875 45.3955078125,55.2099609375 50.9326171875,50.9326171875 55.2099609375,45.3955078125 56.78466796875,42.24609375 57.9638671875,38.8623046875 58.699951171875,35.291748046875 58.9453125,31.58203125 58.5791015625,27.0410175323486 57.48046875,22.67578125 55.67138671875,18.55224609375 53.173828125,14.736328125 50.537109375,14.736328125 47.8564453125,14.267578125 45.8642578125,13.095703125 44.208984375,11.572265625 42.568359375,10.048828125 40.576171875,8.876953125 37.91015625,8.408203125 37.20703125,8.408203125z M31.58203125,4.21875L25.2392578125,4.951171875 19.248046875,7.14843797683716 21.064453125,8.408203125 25.25390625,8.408203125 26.0302734375,8.7451171875 26.2646484375,9.4775390625 26.5283203125,10.1953125 27.36328125,10.517578125 28.1689453125,10.224609375 28.53515625,9.462890625 28.916015625,8.37890625 29.560546875,7.3681640625 30.4541015625,6.62109422683716 31.58203125,6.328125 42.12890625,6.328125 36.9580078125,4.74609375 31.58203125,4.21875z M31.58203125,0L35.863037109375,0.281985342502594 39.9755859375,1.12793016433716 43.8757286071777,2.48657512664795 47.51953125,4.306640625 50.8776817321777,6.566162109375 53.9208984375,9.2431640625 56.597900390625,12.286376953125 58.857421875,15.64453125 60.677490234375,19.288330078125 62.0361328125,23.1884765625 62.882080078125,27.3010272979736 63.1640625,31.58203125 62.882080078125,35.863037109375 62.0361328125,39.9755859375 60.677490234375,43.875732421875 58.857421875,47.51953125 56.597900390625,50.877685546875 53.9208984375,53.9208984375 50.8776817321777,56.597900390625 47.51953125,58.857421875 43.8757286071777,60.677490234375 39.9755859375,62.0361328125 35.863037109375,62.882080078125 31.58203125,63.1640625 27.301025390625,62.882080078125 23.1884765625,62.0361328125 19.2883281707764,60.677490234375 15.64453125,58.857421875 12.286376953125,56.597900390625 9.2431640625,53.9208984375 6.56616115570068,50.877685546875 4.306640625,47.51953125 2.486572265625,43.875732421875 1.1279296875,39.9755859375 0.281982064247131,35.863037109375 0,31.58203125 0.281982064247131,27.3010272979736 1.1279296875,23.1884765625 2.486572265625,19.288330078125 4.306640625,15.64453125 6.56616115570068,12.286376953125 9.2431640625,9.2431640625 12.286376953125,6.566162109375 15.64453125,4.306640625 19.2883281707764,2.48657512664795 23.1884765625,1.12793016433716 27.301025390625,0.281985342502594 31.58203125,0z" />
    </g>
  </g>
</svg>