<?xml version="1.0" encoding="utf-8"?>
<!DOCTYPE svg PUBLIC "-//W3C//DTD SVG 1.1//EN" "http://www.w3.org/Graphics/SVG/1.1/DTD/svg11.dtd">
<svg width="58.06640625" height="44.35546875" xmlns="http://www.w3.org/2000/svg" xmlns:xlink="http://www.w3.org/1999/xlink" xmlns:xml="http://www.w3.org/XML/1998/namespace" version="1.1">
  <g>
    <g>
      <path style="fill:#FF0000;fill-opacity:1" d="M1.93359398841858,23.3203125L1.11328101158142,23.876953125 0.908203125,26.07421875 1.1865234375,27.568359375 2.02148413658142,29.35546875 2.75390577316284,29.619140625 1.96289038658142,27.45849609375 1.69921922683716,26.015625 1.93359398841858,23.3203125z M3.544921875,22.646484375L2.87109375,22.822265625 2.51953125,25.693359375 2.77587890625,27.3486328125 3.544921875,29.794921875 4.36523485183716,29.794921875 3.50830078125,26.94580078125 3.22265625,24.78515625 3.544921875,22.646484375z M5.59570264816284,20.44921875L4.56298828125,22.412109375 4.21875047683716,25.1953125 4.8046875,28.58642578125 6.5625,31.025390625 3.85986328125,30.7177734375 2.08007836341858,30.205078125 0.52001953125,28.76220703125 0,26.484375 0.417480438947678,24.16259765625 1.66992163658142,22.529296875 1.93725562095642,22.3773193359375 2.68066382408142,21.97998046875 3.90014624595642,21.3372802734375 5.59570264816284,20.44921875z M30.8203125,12.94921875L31.4520263671875,17.838134765625 32.23388671875,22.0751953125 33.1658935546875,25.660400390625 34.248046875,28.59375 34.88525390625,25.92041015625 35.09765625,23.056640625 34.833984375,20.04638671875 34.04296875,17.2265625 32.6513671875,14.6337890625 30.8203125,12.94921875z M40.107421875,8.232421875L43.4033203125,9.87671089172363 45.849609375,12.4072265625 47.3657188415527,15.633544921875 47.87109375,19.365234375 47.6586875915527,22.108154296875 47.0214805603027,24.7412109375 45.9594688415527,27.264404296875 44.47265625,29.677734375 45.72509765625,25.92041015625 46.142578125,21.73828125 45.8056640625,17.783203125 44.794921875,14.12109375 42.8173828125,10.5102558135986 40.107421875,8.232421875z M29.94140625,7.6171875L27.6123027801514,10.0854511260986 24.55078125,12.392578125 18.369140625,16.11328125 16.77978515625,17.2869873046875 15.64453125,18.55224609375 14.96337890625,19.9090576171875 14.736328125,21.357421875 14.970703125,23.7890625 15.673828125,25.869140625 17.1240234375,27.72216796875 19.130859375,28.59375 20.009765625,28.64501953125 22.353515625,28.740234375 29.1796875,29.59716796875 35.068359375,31.58203125 32.75390625,27.13623046875 30.966796875,21.650390625 29.9121074676514,16.20849609375 29.560546875,10.95703125 29.94140625,7.6171875z M42.978515625,4.453125L47.1313438415527,6.51855611801147 50.21484375,9.7265625 52.0825157165527,13.70361328125 52.705078125,18.369140625 52.4414024353027,21.7877197265625 51.6503868103027,25.07080078125 50.3320274353027,28.2183837890625 48.486328125,31.23046875 50.0244102478027,26.5576171875 50.537109375,21.328125 50.1196250915527,16.38427734375 48.8671875,11.806640625 47.7410850524902,9.33654880523682 46.3842735290527,7.28759908676147 44.7967491149902,5.65979099273682 42.978515625,4.453125z M33.486328125,1.318359375L34.9090576171875,1.7138671875 36.30615234375,2.900390625 37.6776123046875,4.8779296875 39.0234375,7.646484375 40.59814453125,12.0336933135986 41.748046875,16.640625 42.38525390625,20.859375 42.59765625,25.01953125 42.44384765625,28.07373046875 41.982421875,30.732421875 41.4385986328125,32.42431640625 40.74462890625,33.6328125 39.9005126953125,34.35791015625 38.90625,34.599609375 38.02001953125,34.28466796875 36.474609375,33.33984375 35.072021484375,32.596435546875 33.1494140625,31.9189453125 30.706787109375,31.307373046875 27.744140625,30.76171875 22.74169921875,30.1025390625 18.3984375,29.8828125 17.5634765625,30.32958984375 17.28515625,31.669921875 17.75390625,33.4130859375 18.22265625,35.185546875 18.4130859375,35.86669921875 18.984375,36.62109375 19.5556640625,37.33154296875 19.74609375,37.880859375 19.6728515625,38.232421875 19.599609375,38.583984375 20.2880859375,39.755859375 20.9765625,41.07421875 20.7568359375,41.748046875 20.537109375,42.392578125 20.888671875,43.1982421875 21.240234375,43.828125 20.888671875,44.2236328125 19.833984375,44.35546875 17.2119140625,43.9013671875 15.498046875,42.5390625 14.72900390625,40.81787109375 14.00390625,37.880859375 13.1945791244507,34.984130859375 12.1435537338257,32.9150390625 10.8508291244507,31.673583984375 9.31640625,31.259765625 8.96484375,31.3037109375 8.61328125,31.34765625 6.97265577316284,30.919189453125 5.80078077316284,29.6337890625 5.09765577316284,27.491455078125 4.86328077316284,24.4921875 5.10314893722534,22.6666259765625 5.82275342941284,21.11572265625 7.02209424972534,19.8394775390625 8.701171875,18.837890625 11.1840810775757,17.89306640625 14.6484375,16.5234375 19.00634765625,14.296875 23.759765625,11.1328125 27.7075176239014,8.00537300109863 30.29296875,5.361328125 30.7781982421875,3.592529296875 31.47216796875,2.3291015625 32.3748779296875,1.571044921875 33.486328125,1.318359375z M45.9375,0L51.1303672790527,2.578125 54.990234375,6.5625 56.3360557556152,8.95385837554932 57.2973594665527,11.5576190948486 57.8741416931152,14.3737802505493 58.06640625,17.40234375 57.7368125915527,21.6705322265625 56.7480430603027,25.77392578125 55.1000938415527,29.7125244140625 52.79296875,33.486328125 54.7265586853027,27.63427734375 55.37109375,21.09375 54.8510704040527,14.90478515625 53.291015625,9.169921875 51.8756065368652,6.0919189453125 50.1782188415527,3.53759765625 48.1988487243652,1.5069580078125 45.9375,0z" />
    </g>
  </g>
</svg>