<?xml version="1.0" encoding="utf-8"?>
<!DOCTYPE svg PUBLIC "-//W3C//DTD SVG 1.1//EN" "http://www.w3.org/Graphics/SVG/1.1/DTD/svg11.dtd">
<svg width="67.3828125000017" height="48.486328125" xmlns="http://www.w3.org/2000/svg" xmlns:xlink="http://www.w3.org/1999/xlink" xmlns:xml="http://www.w3.org/XML/1998/namespace" version="1.1">
  <g>
    <g>
      <path style="fill:#FF0000;fill-opacity:1" d="M44.208984375,27.421875L42.7294921875,28.0517578125 42.099609375,29.53125 42.099609375,31.640625 45.1025390625,30.0732421875 48.427734375,29.53125 51.7529296875,30.0732421875 54.755859375,31.640625 54.755859375,29.53125 54.140625,28.037109375 52.646484375,27.421875 44.208984375,27.421875z M14.736328125,27.421875L13.2421875,28.037109375 12.626953125,29.53125 12.626953125,31.640625 15.6298828125,30.0732421875 18.955078125,29.53125 22.265625,30.0732421875 25.25390625,31.640625 25.25390625,29.53125 24.638671875,28.0517578125 23.173828125,27.421875 14.736328125,27.421875z M44.208984375,25.3125L52.646484375,25.3125 54.287109375,25.6494140625 55.6201171875,26.5576171875 56.5283203125,27.890625 56.865234375,29.53125 56.865234375,33.75 56.19140625,37.001953125 54.375,39.66796875 51.6943359375,41.484375 48.427734375,42.158203125 45.1611328125,41.4990234375 42.48046875,39.697265625 40.6787109375,37.0166015625 40.01953125,33.75 40.01953125,29.53125 40.341796875,27.890625 41.2353515625,26.5576171875 42.568359375,25.6494140625 44.208984375,25.3125z M14.736328125,25.3125L23.173828125,25.3125 24.814453125,25.6494140625 26.1474609375,26.5576171875 27.041015625,27.890625 27.36328125,29.53125 27.36328125,33.75 26.7041015625,37.0166015625 24.90234375,39.697265625 22.2216796875,41.4990234375 18.955078125,42.158203125 15.6884765625,41.484375 13.0078125,39.66796875 11.19140625,37.001953125 10.517578125,33.75 10.517578125,29.53125 10.8544921875,27.890625 11.7626953125,26.5576171875 13.095703125,25.6494140625 14.736328125,25.3125z M21.064453125,4.248046875L20.0830078125,4.5263671875 19.3359375,5.21484375 7.294921875,23.203125 6.328125,23.203125 4.833984375,23.818359375 4.21875,25.3125 4.833984375,26.806640625 6.328125,27.421875 7.8076171875,28.0517578125 8.4375,29.53125 8.4375,33.92578125 8.646240234375,36.024169921875 9.2724609375,37.9833984375 11.54296875,41.2646484375 14.8974609375,43.4619140625 16.8713359832764,44.066162109375 18.955078125,44.267578125 22.5439453125,43.65234375 25.6494140625,41.9091796875 27.9931640625,39.228515625 29.296875,35.830078125 29.384765625,35.8447265625 29.47265625,35.859375 30.6005859375,35.5810546875 31.2451171875,34.86328125 31.5234375,33.8671875 31.58203125,32.724609375 31.58203125,31.640625 32.197265625,30.146484375 33.69140625,29.53125 34.833984375,29.794921875 35.4638671875,30.498046875 35.7421875,31.494140625 35.80078125,32.607421875 35.80078125,33.75 36.4453125,35.2587890625 37.96875,35.830078125 38.0859375,35.830078125 39.3896484375,39.228515625 41.7333984375,41.9091796875 44.8388671875,43.65234375 48.427734375,44.267578125 50.5114707946777,44.066162109375 52.4853515625,43.4619140625 55.83984375,41.2646484375 58.125,37.9833984375 58.76220703125,36.024169921875 58.974609375,33.92578125 58.974609375,29.53125 59.58984375,28.0517578125 61.0546875,27.421875 62.548828125,26.806640625 63.1640625,25.3125 62.548828125,23.818359375 61.0546875,23.203125 60.087890625,23.203125 48.076171875,5.185546875 47.2998046875,4.51171875 46.318359375,4.248046875 42.099609375,4.248046875 40.634765625,4.8779296875 40.01953125,6.357421875 40.634765625,7.83691501617432 42.099609375,8.46679592132568 45.205078125,8.46679592132568 55.01953125,23.203125 40.01953125,23.203125 38.525390625,23.818359375 37.91015625,25.3125 29.47265625,25.3125 28.857421875,23.818359375 27.36328125,23.203125 12.36328125,23.203125 22.177734375,8.46679592132568 25.25390625,8.46679592132568 26.748046875,7.8515625 27.36328125,6.357421875 26.748046875,4.86328125 25.25390625,4.248046875 21.064453125,4.248046875z M44.970703125,0L46.93359375,0.1025390625 48.7060546875,0.5126953125 50.2587890625,1.3916015625 51.591796875,2.87109375 62.431640625,19.16015625 64.423828125,19.9658203125 65.9912109375,21.357421875 67.0166015625,23.1884765625 67.3828125,25.3125 67.0751953125,27.2607421875 66.2255859375,28.9599609375 64.9072265625,30.322265625 63.1640625,31.259765625 63.1640625,33.92578125 62.87109375,36.873779296875 61.9921875,39.6240234375 60.611572265625,42.10693359375 58.8134765625,44.2529296875 56.63818359375,46.01806640625 54.1259765625,47.3583984375 51.3610801696777,48.204345703125 48.427734375,48.486328125 44.0478515625,47.8271484375 40.1220703125,45.9521484375 36.9140625,43.0078125 34.6875,39.169921875 33.69140625,38.4375 32.6953125,39.169921875 30.46875,43.0078125 27.2607421875,45.9521484375 23.3349609375,47.8271484375 18.955078125,48.486328125 16.021728515625,48.204345703125 13.2568359375,47.3583984375 10.74462890625,46.01806640625 8.5693359375,44.2529296875 6.77123928070068,42.10693359375 5.390625,39.6240234375 4.51171875,36.873779296875 4.21875,33.92578125 4.21875,31.259765625 2.4755859375,30.322265625 1.1572265625,28.9599609375 0.307617664337158,27.2607421875 0,25.3125 0.3662109375,23.1884765625 1.3916015625,21.357421875 2.958984375,19.9658203125 4.951171875,19.16015625 15.791015625,2.87109375 17.16796875,1.3623046875 18.779296875,0.498046875 20.5517578125,0.1171875 22.44140625,0.0292973518371582 23.84765625,0.0439448356628418 25.25390625,0.0585932731628418 27.71484375,0.556640148162842 29.7216796875,1.90429735183716 31.083984375,3.896484375 31.58203125,6.357421875 31.083984375,8.818359375 29.7216796875,10.8251953125 27.71484375,12.1875 25.25390625,12.685546875 24.43359375,12.685546875 20.21484375,18.984375 27.392578125,18.984375 29.9560546875,19.541015625 32.080078125,21.09375 35.302734375,21.09375 37.44140625,19.541015625 40.01953125,18.984375 47.16796875,18.984375 42.94921875,12.685546875 42.099609375,12.685546875 39.6533203125,12.1875 37.646484375,10.8251953125 36.298828125,8.8037109375 35.80078125,6.357421875 36.298828125,3.92578125 37.6611328125,1.91894578933716 39.66796875,0.556640148162842 42.099609375,0.0585932731628418 43.5498046875,0.0292973518371582 44.970703125,0z" />
    </g>
  </g>
</svg>