<?xml version="1.0" encoding="utf-8"?>
<!DOCTYPE svg PUBLIC "-//W3C//DTD SVG 1.1//EN" "http://www.w3.org/Graphics/SVG/1.1/DTD/svg11.dtd">
<svg width="67.3828125000009" height="67.3828125" xmlns="http://www.w3.org/2000/svg" xmlns:xlink="http://www.w3.org/1999/xlink" xmlns:xml="http://www.w3.org/XML/1998/namespace" version="1.1">
  <g>
    <g>
      <path style="fill:#FF0000;fill-opacity:1" d="M21.064453125,42.12890625L22.5439453125,42.7587890625 23.173828125,44.23828125 22.5439453125,45.703125 21.064453125,46.318359375 19.5849609375,45.703125 18.955078125,44.23828125 19.5703125,42.744140625 21.064453125,42.12890625z M47.373046875,40.01953125L48.1201171875,40.3271484375 48.427734375,41.07421875 48.427734375,47.373046875 48.1201171875,48.1201171875 47.373046875,48.427734375 46.6259765625,48.1201171875 46.318359375,47.373046875 46.318359375,41.07421875 46.6259765625,40.3271484375 47.373046875,40.01953125z M43.18359375,40.01953125L43.9013671875,40.341796875 44.208984375,41.07421875 44.208984375,47.373046875 43.9013671875,48.10546875 43.18359375,48.427734375 42.421875,48.1201171875 42.099609375,47.373046875 42.099609375,41.07421875 42.421875,40.3271484375 43.18359375,40.01953125z M38.96484375,40.01953125L39.7119140625,40.3271484375 40.01953125,41.07421875 40.01953125,47.373046875 39.7119140625,48.1201171875 38.96484375,48.427734375 38.2177734375,48.1201171875 37.91015625,47.373046875 37.91015625,41.07421875 38.2177734375,40.3271484375 38.96484375,40.01953125z M34.74609375,40.01953125L35.4931640625,40.3271484375 35.80078125,41.07421875 35.80078125,47.373046875 35.4931640625,48.1201171875 34.74609375,48.427734375 33.9990234375,48.1201171875 33.69140625,47.373046875 33.69140625,41.07421875 33.9990234375,40.3271484375 34.74609375,40.01953125z M15.791015625,35.80078125L15.0439453125,36.1083984375 14.736328125,36.85546875 14.736328125,51.591796875 15.0439453125,52.3388671875 15.791015625,52.646484375 16.6845703125,52.177734375 16.845703125,51.15234375 16.845703125,50.537109375 21.064453125,50.537109375 23.525390625,50.0390625 25.517578125,48.69140625 26.865234375,46.69921875 27.36328125,44.23828125 26.865234375,41.77734375 25.517578125,39.7705078125 23.525390625,38.408203125 21.064453125,37.91015625 16.845703125,37.91015625 16.845703125,37.236328125 16.6552734375,36.2255859375 15.791015625,35.80078125z M28.41796875,33.69140625L27.158203125,33.955078125 26.162109375,34.658203125 25.517578125,35.6982421875 25.283203125,36.943359375 27.0556640625,38.291015625 28.3740234375,40.01953125 29.1943359375,42.0263671875 29.47265625,44.23828125 28.7548828125,47.6953125 26.630859375,50.537109375 27.36328125,50.537109375 30.41015625,53.818359375 31.435546875,54.5068359375 32.63671875,54.755859375 33.8525390625,54.5068359375 34.86328125,53.818359375 35.5517578125,52.8076171875 35.80078125,51.591796875 35.625,50.537109375 52.646484375,50.537109375 55.4443359375,51.240234375 57.744140625,52.96875 58.1689453125,53.466796875 58.59375,53.96484375 59.46533203125,54.55810546875 60.498046875,54.755859375 61.527099609375,54.561767578125 62.3876953125,53.9794921875 62.969970703125,53.118896484375 63.1640625,52.08984375 62.9736328125,51.0498046875 62.40234375,50.185546875 61.376953125,48.9404296875 60.263671875,47.373046875 59.35546875,45.732421875 58.974609375,44.23828125 59.35546875,42.7587890625 60.263671875,41.0888671875 61.376953125,39.5068359375 62.40234375,38.26171875 62.9736328125,37.3828125 63.1640625,36.357421875 62.969970703125,35.328369140625 62.3876953125,34.4677734375 61.527099609375,33.885498046875 60.498046875,33.69140625 59.46533203125,33.88916015625 58.59375,34.482421875 58.1689453125,34.98046875 57.744140625,35.478515625 55.4443359375,37.20703125 52.646484375,37.91015625 40.01953125,37.91015625 29.765625,33.984375 29.12109375,33.7646484375 28.41796875,33.69140625z M21.064453125,16.845703125L22.5439453125,17.4755859375 23.173828125,18.955078125 22.5439453125,20.4345703125 21.064453125,21.064453125 19.5703125,20.44921875 18.955078125,18.955078125 19.5703125,17.4609375 21.064453125,16.845703125z M47.373046875,14.736328125L48.1201171875,15.0439453125 48.427734375,15.791015625 48.427734375,22.119140625 48.1201171875,22.8662109375 47.373046875,23.173828125 46.6259765625,22.8662109375 46.318359375,22.119140625 46.318359375,15.791015625 46.6259765625,15.0439453125 47.373046875,14.736328125z M43.18359375,14.736328125L43.9013671875,15.05859375 44.208984375,15.791015625 44.208984375,22.119140625 43.9013671875,22.8515625 43.18359375,23.173828125 42.421875,22.8662109375 42.099609375,22.119140625 42.099609375,15.791015625 42.421875,15.0439453125 43.18359375,14.736328125z M38.96484375,14.736328125L39.7119140625,15.0439453125 40.01953125,15.791015625 40.01953125,22.119140625 39.7119140625,22.8662109375 38.96484375,23.173828125 38.2177734375,22.8662109375 37.91015625,22.119140625 37.91015625,15.791015625 38.2177734375,15.0439453125 38.96484375,14.736328125z M34.74609375,14.736328125L35.4931640625,15.0439453125 35.80078125,15.791015625 35.80078125,22.119140625 35.4931640625,22.8662109375 34.74609375,23.173828125 33.9990234375,22.8662109375 33.69140625,22.119140625 33.69140625,15.791015625 33.9990234375,15.0439453125 34.74609375,14.736328125z M15.791015625,10.517578125L15.05859375,10.83984375 14.736328125,11.572265625 14.736328125,26.30859375 15.0439453125,27.0556640625 15.791015625,27.36328125 16.3916015625,27.2021484375 16.7138671875,26.77734375 16.8310546875,26.2060546875 16.845703125,25.60546875 16.845703125,25.283203125 21.064453125,25.283203125 23.525390625,24.78515625 25.517578125,23.4228515625 26.865234375,21.416015625 27.36328125,18.955078125 26.865234375,16.494140625 25.517578125,14.4873046875 23.525390625,13.125 21.064453125,12.626953125 16.845703125,12.626953125 16.845703125,12.1875 16.81640625,11.6015625 16.6845703125,11.07421875 16.3623046875,10.6787109375 15.791015625,10.517578125z M28.41796875,8.4375L27.1728515625,8.701171875 26.1767578125,9.404296875 25.517578125,10.4296875 25.283203125,11.66015625 27.03369140625,13.04443359375 28.359375,14.736328125 29.1943359375,16.7138671875 29.47265625,18.955078125 28.7548828125,22.4267578125 26.630859375,25.283203125 27.36328125,25.283203125 30.41015625,28.564453125 31.435546875,29.2529296875 32.63671875,29.501953125 33.8525390625,29.2529296875 34.86328125,28.564453125 35.5517578125,27.5537109375 35.80078125,26.337890625 35.625,25.283203125 52.646484375,25.283203125 55.4443359375,25.986328125 57.744140625,27.71484375 58.1689453125,28.212890625 58.59375,28.7109375 59.47265625,29.2822265625 60.498046875,29.47265625 61.527099609375,29.2785663604736 62.3876953125,28.6962890625 62.969970703125,27.8356952667236 63.1640625,26.806640625 62.958984375,25.78125 62.40234375,24.90234375 61.376953125,23.671875 60.263671875,22.1044921875 59.35546875,20.44921875 58.974609375,18.955078125 59.35546875,17.4609375 60.263671875,15.8056640625 61.376953125,14.23828125 62.40234375,13.0078125 62.958984375,12.1289072036743 63.1640625,11.103515625 62.969970703125,10.074462890625 62.3876953125,9.2138671875 61.527099609375,8.631591796875 60.498046875,8.4375 59.47265625,8.6279296875 58.59375,9.19921875 58.1689453125,9.697265625 57.744140625,10.1953125 55.4443359375,11.923828125 52.646484375,12.626953125 40.01953125,12.626953125 29.765625,8.73046875 29.12109375,8.5107421875 28.41796875,8.4375z M7.35351657867432,4.21874952316284L6.1083984375,4.46777296066284 5.126953125,5.15625 4.4677734375,6.1669921875 4.21875,7.3828125 4.8046875,9.2138671875 6.328125,10.341796875 6.328125,62.109375 6.6357421875,62.841796875 7.35351657867432,63.1640625 8.115234375,62.8564453125 8.4375,62.109375 8.4375,46.7578125 12.626953125,49.27734375 12.626953125,46.787109375 8.4375,44.23828125 12.626953125,41.66015625 12.626953125,39.169921875 8.4375,41.689453125 8.4375,21.474609375 12.626953125,23.994140625 12.626953125,21.50390625 8.4375,18.955078125 12.626953125,16.40625 12.626953125,13.916015625 8.4375,16.435546875 8.4375,10.341796875 9.9462890625,9.19921875 10.517578125,7.3828125 10.2685546875,6.15234375 9.5947265625,5.1416015625 8.583984375,4.46777296066284 7.35351657867432,4.21874952316284z M7.35351657867432,0L9.9755859375,0.498046875 12.216796875,1.86035132408142 13.857421875,3.9111328125 14.677734375,6.4453125 15.791015625,6.328125 18.1494140625,6.884765625 20.009765625,8.4375 21.767578125,8.4375 22.939453125,6.6943359375 24.5068359375,5.3759765625 26.3818359375,4.5263671875 28.447265625,4.21874952316284 29.9560546875,4.39453125 31.40625,4.83398485183716 40.78125,8.4375 52.646484375,8.4375 53.642578125,8.1298828125 54.580078125,7.35351610183716 55.5908203125,6.328125 56.8212890625,5.302734375 58.4033203125,4.5263671875 60.498046875,4.21874952316284 63.1787109375,4.7607421875 65.361328125,6.24023389816284 66.8408203125,8.4228515625 67.3828125,11.103515625 66.9580078125,13.5205078125 65.9033203125,15.3369140625 64.5556640625,17.0068359375 63.28125,18.955078125 64.5556640625,20.9033203125 65.9033203125,22.5732421875 66.9580078125,24.3896484375 67.3828125,26.806640625 66.884765625,29.384765625 65.44921875,31.58203125 66.884765625,33.7939453125 67.3828125,36.38671875 66.943359375,38.8330078125 65.8740234375,40.634765625 64.541015625,42.275390625 63.28125,44.23828125 64.5849609375,46.1865234375 65.91796875,47.8564453125 66.9580078125,49.6728515625 67.3828125,52.060546875 66.8408203125,54.755859375 65.361328125,56.953125 63.1787109375,58.4326171875 60.498046875,58.974609375 57.5830078125,58.3154296875 55.60546875,56.865234375 54.111328125,55.4150390625 52.646484375,54.755859375 39.287109375,54.755859375 38.14453125,56.4990234375 36.5625,57.8173828125 34.6875,58.6669921875 32.63671875,58.974609375 30.380859375,58.65234375 28.59375,57.7587890625 27.041015625,56.4111328125 25.517578125,54.755859375 20.009765625,54.755859375 18.134765625,56.2939453125 15.791015625,56.865234375 14.12109375,56.5869140625 12.626953125,55.810546875 12.626953125,62.109375 12.216796875,64.1748046875 11.0888671875,65.8447265625 9.404296875,66.97265625 7.35351657867432,67.3828125 5.3173828125,66.97265625 3.6474609375,65.8447265625 2.51953125,64.16015625 2.109375,62.109375 2.109375,12.5097646713257 0.556640625,10.1513671875 0,7.3828125 0.5859375,4.5263671875 2.16796875,2.18261766433716 4.4970703125,0.585937261581421 7.35351657867432,0z" />
    </g>
  </g>
</svg>