<?xml version="1.0" encoding="utf-8"?>
<!DOCTYPE svg PUBLIC "-//W3C//DTD SVG 1.1//EN" "http://www.w3.org/Graphics/SVG/1.1/DTD/svg11.dtd">
<svg width="67.3828125000279" height="68.61328125" xmlns="http://www.w3.org/2000/svg" xmlns:xlink="http://www.w3.org/1999/xlink" xmlns:xml="http://www.w3.org/XML/1998/namespace" version="1.1">
  <g>
    <g>
      <path style="fill:#FF0000;fill-opacity:1" d="M33.69140625,43.359375L35.1708984375,43.974609375 35.80078125,45.439453125 35.185546875,46.93359375 33.69140625,47.548828125 32.197265625,46.93359375 31.58203125,45.439453125 32.2119140625,43.974609375 33.69140625,43.359375z M42.099609375,34.921875L43.59375,35.537109375 44.208984375,37.03125 43.59375,38.525390625 42.099609375,39.140625 40.634765625,38.5107421875 40.01953125,37.03125 40.634765625,35.5517578125 42.099609375,34.921875z M33.69140625,34.921875L35.185546875,35.537109375 35.80078125,37.03125 35.185546875,38.525390625 33.69140625,39.140625 32.197265625,38.525390625 31.58203125,37.03125 32.197265625,35.537109375 33.69140625,34.921875z M25.25390625,34.921875L26.748046875,35.537109375 27.36328125,37.03125 26.748046875,38.525390625 25.25390625,39.140625 23.7890625,38.5107421875 23.173828125,37.03125 23.7890625,35.5517578125 25.25390625,34.921875z M42.099609375,26.513671875L43.5791015625,27.12890625 44.208984375,28.59375 43.59375,30.087890625 42.099609375,30.703125 40.634765625,30.0732421875 40.01953125,28.59375 40.634765625,27.12890625 42.099609375,26.513671875z M33.69140625,26.513671875L35.1708984375,27.12890625 35.80078125,28.59375 35.185546875,30.087890625 33.69140625,30.703125 32.197265625,30.087890625 31.58203125,28.59375 32.2119140625,27.12890625 33.69140625,26.513671875z M25.25390625,26.513671875L26.7333984375,27.12890625 27.36328125,28.59375 26.748046875,30.087890625 25.25390625,30.703125 23.7890625,30.0732421875 23.173828125,28.59375 23.7890625,27.12890625 25.25390625,26.513671875z M28.798828125,8.232421875L27.3046875,9.31640625 26.19140625,10.546875 25.48828125,12.0263671875 25.25390625,13.857421875 25.25390625,25.341796875 17.40234375,22.734375 14.736328125,22.294921875 12.802734375,22.5732421875 10.95703125,23.203125 12.1728515625,26.982421875 13.447265625,30.703125 6.50390577316284,30.703125 7.13378858566284,33.1494140625 8.24706840515137,35.4931640625 9.8876953125,37.44140625 12.0703125,38.701171875 19.951171875,41.337890625 14.326171875,48.80859375 13.3740234375,50.4931640625 12.8759765625,52.2509765625 12.6708984375,54.08203125 12.626953125,55.986328125 18.955078125,55.986328125 18.955078125,62.28515625 21.03515625,62.28515625 22.9760723114014,62.061767578125 24.814453125,61.3916015625 27.802734375,58.916015625 33.69140625,51.064453125 39.580078125,58.916015625 42.5537109375,61.3916015625 44.3810997009277,62.061767578125 46.318359375,62.28515625 48.427734375,62.28515625 48.427734375,55.986328125 54.755859375,55.986328125 54.5947265625,52.734375 53.61328125,49.658203125 52.587890625,48.1787109375 51.474609375,46.7578125 47.431640625,41.337890625 55.3125,38.701171875 57.4658203125,37.4267578125 59.1064453125,35.4638671875 60.234375,33.1201171875 60.87890625,30.703125 53.935546875,30.703125 56.42578125,23.203125 54.580078125,22.5146484375 52.6171875,22.294921875 49.98046875,22.734375 42.099609375,25.341796875 42.099609375,13.857421875 41.8762168884277,12.000732421875 41.2060546875,10.5322265625 40.103759765625,9.320068359375 38.583984375,8.232421875 33.69140625,15.966796875 28.798828125,8.232421875z M30.908203125,0L33.69140625,4.16015672683716 36.4453125,0 37.6171875,0.5859375 40.2392578125,1.93359398841858 42.7294921875,3.42773461341858 44.9560546875,5.25878953933716 46.787109375,7.587890625 51.09375,8.2470703125 54.7119140625,10.166015625 57.392578125,13.2421875 58.828125,17.373046875 61.4794921875,18.8671875 63.896484375,20.7421875 62.6953125,24.404296875 67.3828125,24.404296875 67.3828125,25.25390625 67.3095703125,29.0771484375 66.9140625,32.578125 65.9326171875,35.9326171875 64.1015625,39.345703125 64.98046875,41.806640625 65.2734375,44.384765625 64.9951171875,46.966552734375 64.16015625,49.3798828125 62.8125,51.544189453125 60.99609375,53.37890625 61.083984375,55.6640625 61.083984375,62.28515625 54.755859375,62.28515625 54.755859375,68.61328125 46.318359375,68.61328125 42.94921875,68.2177734375 39.755859375,67.060546875 36.8115234375,68.2177734375 33.69140625,68.61328125 30.5712890625,68.2177734375 27.626953125,67.060546875 24.43359375,68.2177734375 21.03515625,68.61328125 12.626953125,68.61328125 12.626953125,62.28515625 6.32812452316284,62.28515625 6.32812452316284,57.01171875 6.31347608566284,56.3525390625 6.29882860183716,55.693359375 6.38671827316284,53.37890625 4.57031202316284,51.544189453125 3.22265577316284,49.3798828125 2.38769483566284,46.966552734375 2.10937356948853,44.384765625 2.40234327316284,41.806640625 3.25195264816284,39.345703125 1.42089700698853,35.9326171875 0.4541015625,32.578125 0.0732417106628418,29.0771484375 0,25.25390625 0,24.404296875 4.68749952316284,24.404296875 3.45703077316284,20.7421875 5.90331983566284,18.896484375 8.5546875,17.373046875 9.9609375,13.30078125 12.59765625,10.2099609375 16.171875,8.26171875 20.390625,7.587890625 20.595703125,7.587890625 22.4267578125,5.25878953933716 24.6533203125,3.41308546066284 27.158203125,1.90429663658142 29.794921875,0.556641101837158 30.908203125,0z" />
    </g>
  </g>
</svg>