<?xml version="1.0" encoding="utf-8"?>
<!DOCTYPE svg PUBLIC "-//W3C//DTD SVG 1.1//EN" "http://www.w3.org/Graphics/SVG/1.1/DTD/svg11.dtd">
<svg width="59.794921875" height="45.5859375" xmlns="http://www.w3.org/2000/svg" xmlns:xlink="http://www.w3.org/1999/xlink" xmlns:xml="http://www.w3.org/XML/1998/namespace" version="1.1">
  <g>
    <g>
      <path style="fill:#FF0000;fill-opacity:1" d="M11.54296875,0L20.830078125,5.09765625 25.693359375,0.615234375 32.607421875,5.888671875 36.474609375,0.234375 40.95703125,6.357421875 52.412109375,4.013671875 49.51171875,12.48046875 58.154296875,10.224609375 54.228515625,16.81640625 59.794921875,20.0390625 55.3125,26.484375 59.6484375,32.28515625 51.15234375,34.189453125 58.7109375,45.5859375 39.84375,37.412109375 34.1015625,42.041015625 33.076171875,37.412109375 25.83984375,42.275390625 24.521484375,36.85546875 17.51953125,41.806640625 16.435546875,35.9765625 6.12304639816284,38.26171875 8.408203125,31.58203125 0,32.51953125 4.24804735183716,26.015625 0,21.4453125 8.0859375,17.197265625 1.49414098262787,8.5546875 11.25,9.19921875 11.54296875,0z" />
    </g>
  </g>
</svg>