<?xml version="1.0" encoding="utf-8"?>
<!DOCTYPE svg PUBLIC "-//W3C//DTD SVG 1.1//EN" "http://www.w3.org/Graphics/SVG/1.1/DTD/svg11.dtd">
<svg width="67.3828125" height="67.3828125" xmlns="http://www.w3.org/2000/svg" xmlns:xlink="http://www.w3.org/1999/xlink" xmlns:xml="http://www.w3.org/XML/1998/namespace" version="1.1">
  <g>
    <g>
      <path style="fill:#FF0000;fill-opacity:1" d="M51.591796875,40.01953125L52.8076171875,40.2685546875 53.818359375,40.9423828125 54.5068359375,41.9384765625 54.755859375,43.154296875 54.755859375,56.865234375 48.427734375,56.865234375 48.427734375,43.154296875 48.6767578125,41.923828125 49.365234375,40.927734375 50.3759765625,40.2685546875 51.591796875,40.01953125z M29.47265625,40.01953125L29.47265625,56.865234375 37.91015625,56.865234375 37.91015625,40.01953125 29.47265625,40.01953125z M15.791015625,40.01953125L17.0068359375,40.2685546875 18.017578125,40.927734375 18.7060546875,41.923828125 18.955078125,43.154296875 18.955078125,56.865234375 12.626953125,56.865234375 12.626953125,43.154296875 12.8759765625,41.923828125 13.564453125,40.927734375 14.5751953125,40.2685546875 15.791015625,40.01953125z M46.318359375,37.91015625L46.318359375,63.1640625 56.865234375,63.1640625 56.865234375,37.91015625 46.318359375,37.91015625z M10.517578125,37.91015625L10.517578125,63.1640625 21.064453125,63.1640625 21.064453125,37.91015625 10.517578125,37.91015625z M58.9453125,35.80078125L58.9453125,63.1640625 63.1640625,63.1640625 63.1640625,35.80078125 58.9453125,35.80078125z M4.21875,35.80078125L4.21875,63.1640625 8.408203125,63.1640625 8.408203125,35.80078125 4.21875,35.80078125z M46.318359375,27.36328125L46.318359375,35.80078125 56.865234375,35.80078125 56.865234375,27.36328125 46.318359375,27.36328125z M10.517578125,27.36328125L10.517578125,35.80078125 21.064453125,35.80078125 21.064453125,27.36328125 10.517578125,27.36328125z M33.69140625,18.955078125L32.28515625,21.064453125 29.47265625,21.064453125 30.87890625,23.173828125 29.47265625,25.283203125 32.28515625,25.283203125 33.69140625,27.36328125 35.09765625,25.283203125 37.91015625,25.283203125 36.50390625,23.173828125 37.91015625,21.064453125 35.09765625,21.064453125 33.69140625,18.955078125z M33.69140625,16.845703125L36.15234375,17.34375 38.1591796875,18.7060546875 39.521484375,20.712890625 40.01953125,23.173828125 39.521484375,25.634765625 38.1591796875,27.626953125 36.15234375,28.974609375 33.69140625,29.47265625 31.23046875,28.974609375 29.2236328125,27.626953125 27.861328125,25.634765625 27.36328125,23.173828125 27.861328125,20.712890625 29.2236328125,18.7060546875 31.23046875,17.34375 33.69140625,16.845703125z M33.69140625,13.505859375L23.173828125,24.0234375 23.173828125,58.974609375 25.25390625,58.974609375 25.25390625,56.865234375 27.36328125,56.865234375 27.36328125,37.91015625 33.69140625,33.69140625 40.01953125,37.91015625 40.01953125,56.865234375 42.099609375,56.865234375 42.099609375,58.974609375 44.208984375,58.974609375 44.208984375,24.0234375 33.69140625,13.505859375z M51.591796875,6.328125L52.8076171875,6.5771484375 53.818359375,7.2509765625 54.5068359375,8.2470703125 54.755859375,9.462890625 54.755859375,12.626953125 48.427734375,12.626953125 48.427734375,9.462890625 48.6767578125,8.232421875 49.365234375,7.23632764816284 50.3759765625,6.5771484375 51.591796875,6.328125z M33.69140625,6.328125L23.173828125,16.845703125 23.173828125,21.064453125 33.69140625,10.517578125 44.208984375,21.064453125 44.208984375,16.845703125 33.69140625,6.328125z M15.791015625,6.328125L17.0068359375,6.5771484375 18.017578125,7.23632764816284 18.7060546875,8.232421875 18.955078125,9.462890625 18.955078125,12.626953125 12.626953125,12.626953125 12.626953125,9.462890625 12.8759765625,8.232421875 13.564453125,7.23632764816284 14.5751953125,6.5771484375 15.791015625,6.328125z M51.591796875,4.21874952316284L49.541015625,4.62890625 47.8564453125,5.7568359375 46.728515625,7.4267578125 46.318359375,9.462890625 46.318359375,25.283203125 56.865234375,25.283203125 56.865234375,9.462890625 56.455078125,7.4267578125 55.3271484375,5.7568359375 53.642578125,4.62890625 51.591796875,4.21874952316284z M15.791015625,4.21874952316284L13.740234375,4.62890625 12.0556640625,5.7568359375 10.927734375,7.4267578125 10.517578125,9.462890625 10.517578125,25.283203125 21.064453125,25.283203125 21.064453125,9.462890625 20.654296875,7.4267578125 19.5263671875,5.7568359375 17.841796875,4.62890625 15.791015625,4.21874952316284z M15.791015625,0L19.306640625,0.688477039337158 22.2509765625,2.56347703933716 24.3310546875,5.36132764816284 25.25390625,8.818359375 33.69140625,0.351562261581421 42.12890625,8.818359375 43.0517578125,5.36132764816284 45.1318359375,2.56347703933716 48.076171875,0.688477039337158 51.591796875,0 55.2685546875,0.7470703125 58.271484375,2.783203125 60.3076171875,5.7861328125 61.0546875,9.462890625 61.0546875,31.58203125 67.3828125,31.58203125 67.3828125,67.3828125 0,67.3828125 0,31.58203125 6.328125,31.58203125 6.328125,9.462890625 7.0751953125,5.7861328125 9.111328125,2.783203125 12.1142578125,0.7470703125 15.791015625,0z" />
    </g>
  </g>
</svg>