<?xml version="1.0" encoding="utf-8"?>
<!DOCTYPE svg PUBLIC "-//W3C//DTD SVG 1.1//EN" "http://www.w3.org/Graphics/SVG/1.1/DTD/svg11.dtd">
<svg width="54.931640625" height="44.4433593750005" xmlns="http://www.w3.org/2000/svg" xmlns:xlink="http://www.w3.org/1999/xlink" xmlns:xml="http://www.w3.org/XML/1998/namespace" version="1.1">
  <g>
    <g>
      <path style="fill:#FF0000;fill-opacity:1" d="M31.81640625,28.18359375L35.419921875,28.18359375 35.419921875,30.703125 31.81640625,30.703125 31.81640625,28.18359375z M25.6640625,28.18359375L29.267578125,28.18359375 29.267578125,30.703125 25.6640625,30.703125 25.6640625,28.18359375z M19.51171875,28.18359375L23.14453125,28.18359375 23.14453125,30.703125 19.51171875,30.703125 19.51171875,28.18359375z M31.81640625,23.84765625L35.419921875,23.84765625 35.419921875,26.3671875 31.81640625,26.3671875 31.81640625,23.84765625z M25.6640625,23.84765625L29.267578125,23.84765625 29.267578125,26.3671875 25.6640625,26.3671875 25.6640625,23.84765625z M19.51171875,23.84765625L23.14453125,23.84765625 23.14453125,26.3671875 19.51171875,26.3671875 19.51171875,23.84765625z M31.81640625,19.51171875L35.419921875,19.51171875 35.419921875,22.03125 31.81640625,22.03125 31.81640625,19.51171875z M25.6640625,19.51171875L29.267578125,19.51171875 29.267578125,22.03125 25.6640625,22.03125 25.6640625,19.51171875z M19.51171875,19.51171875L23.14453125,19.51171875 23.14453125,22.03125 19.51171875,22.03125 19.51171875,19.51171875z M42.275390625,12.83203125L42.275390625,14.58984375 42.7880859375,16.1315937042236 44.326171875,17.3583984375 46.6845664978027,18.1604022979736 49.658203125,18.427734375 51.5478477478027,18.2592792510986 52.705078125,17.75390625 53.2983360290527,16.7578144073486 53.49609375,15.1171875 53.49609375,14.267578125 52.1044883728027,14.6630878448486 50.2734375,14.794921875 46.0766563415527,14.3042011260986 42.275390625,12.83203125z M12.65625,12.83203125L9.05273342132568,14.3261737823486 5.2734375,14.82421875 3.12744116783142,14.6777362823486 1.43554639816284,14.23828125 1.43554639816284,15.17578125 1.68090772628784,16.7431659698486 2.4169921875,17.87109375 3.636474609375,18.5522480010986 5.33203125,18.779296875 8.45947170257568,18.4570331573486 10.927734375,17.490234375 12.22412109375,16.0913105010986 12.65625,13.9453125 12.65625,12.83203125z M18.076171875,10.83984375L18.076171875,16.69921875 11.25,27.5390625 9.18090724945068,30.963134765625 8.1298828125,33.2080078125 7.72338771820068,35.386962890625 7.587890625,38.61328125 7.587890625,43.0078125 47.34375,43.0078125 47.34375,38.642578125 47.2448692321777,35.196533203125 46.9482421875,33.2373046875 46.6012535095215,32.4270629882813 45.9558067321777,31.212158203125 45.0118980407715,29.5925903320313 43.76953125,27.568359375 36.85546875,16.46484375 36.85546875,10.83984375 33.251953125,10.83984375 33.251953125,16.259765625 21.6796875,16.259765625 21.6796875,10.83984375 18.076171875,10.83984375z M16.640625,9.375L23.14453125,9.375 23.14453125,14.794921875 31.81640625,14.794921875 31.81640625,9.375 38.3203125,9.375 38.3203125,16.259765625 45.41015625,27.568359375 47.3547325134277,30.85693359375 48.3251953125,32.98828125 48.6877403259277,35.1708984375 48.80859375,38.61328125 48.80859375,44.443359375 6.15234375,44.443359375 6.15234375,38.61328125 6.317138671875,35.4345703125 6.8115234375,32.9296875 7.81860256195068,30.49072265625 9.521484375,27.509765625 16.640625,16.259765625 16.640625,9.375z M27.216796875,1.43554639816284L20.8007793426514,1.67724561691284 14.794921875,2.40234327316284 9.20654201507568,3.61816358566284 4.04296875,5.33203077316284 2.62939429283142,9.08203125 1.66992139816284,12.83203125 4.892578125,13.359375 8.56201076507568,12.8466815948486 12.65625,11.30859375 12.65625,10.83984375 12.8837585449219,9.39788818359375 13.5662841796875,8.148193359375 14.7038269042969,7.09075880050659 16.29638671875,6.22558546066284 18.3439636230469,5.55267286300659 20.8465576171875,5.07202100753784 23.8041687011719,4.78362989425659 27.216796875,4.68749952316284 30.7461547851563,4.78362989425659 33.804931640625,5.07202100753784 36.3931274414063,5.55267286300659 38.5107421875,6.22558546066284 40.1577758789063,7.09075880050659 41.334228515625,8.148193359375 42.0401000976563,9.39788818359375 42.275390625,10.83984375 42.275390625,11.30859375 46.4941368103027,12.8466815948486 50.185546875,13.359375 53.232421875,12.83203125 52.1923789978027,8.8330078125 50.771484375,5.33203077316284 45.4760704040527,3.61816358566284 39.78515625,2.40234327316284 33.69873046875,1.67724561691284 27.216796875,1.43554639816284z M27.275390625,0L34.1162109375,0.256347179412842 40.458984375,1.02538967132568 46.3037071228027,2.30712842941284 51.650390625,4.10156202316284 53.0859336853027,6.81701612472534 54.1113243103027,9.39697265625 54.7265586853027,11.8414306640625 54.931640625,14.150390625 54.931640625,15.29296875 54.6313438415527,17.6293964385986 53.73046875,19.130859375 52.0678672790527,19.9438495635986 49.482421875,20.21484375 45.7012939453125,19.8266620635986 43.00048828125,18.6621112823486 41.3800048828125,16.7211933135986 40.83984375,14.00390625 40.83984375,12.158203125 40.689697265625,10.34912109375 40.2392578125,9.140625 39.305419921875,8.26904296875 37.705078125,7.47070264816284 35.7989501953125,6.88110303878784 33.44970703125,6.45996046066284 30.6573486328125,6.20727491378784 27.421875,6.12304639816284 24.1479473114014,6.21276807785034 21.3281230926514,6.48193311691284 18.9624004364014,6.93054151535034 17.05078125,7.55859327316284 14.83154296875,9.33837890625 14.091796875,12.099609375 14.091796875,13.857421875 13.5443115234375,16.6387958526611 11.90185546875,18.6254901885986 9.1644287109375,19.8175067901611 5.33203125,20.21484375 2.81616187095642,19.9621601104736 1.18652296066284,19.2041015625 0.296630799770355,17.8234882354736 0,15.703125 0,14.35546875 0.2032470703125,12.099609375 0.81298828125,9.638671875 1.8292236328125,6.97265625 3.251953125,4.10156202316284 8.51074123382568,2.30712842941284 14.267578125,1.02538967132568 20.5224590301514,0.256347179412842 27.275390625,0z" />
    </g>
  </g>
</svg>