<?xml version="1.0" encoding="utf-8"?>
<!DOCTYPE svg PUBLIC "-//W3C//DTD SVG 1.1//EN" "http://www.w3.org/Graphics/SVG/1.1/DTD/svg11.dtd">
<svg width="24.9609375" height="44.560546875" xmlns="http://www.w3.org/2000/svg" xmlns:xlink="http://www.w3.org/1999/xlink" xmlns:xml="http://www.w3.org/XML/1998/namespace" version="1.1">
  <g>
    <g>
      <path style="fill:#FF0000;fill-opacity:1" d="M13.2421875,5.7421875L10.4296875,7.03125 14.326171875,21.708984375 16.376953125,20.712890625 17.80517578125,19.4384765625 18.28125,18.193359375 18.193359375,17.87109375 13.2421875,5.7421875z M11.162109375,0L12.8668203353882,0.157470703125 14.0844707489014,0.6298828125 14.8150625228882,1.417236328125 15.05859375,2.51953125 14.7729473114014,3.53759765625 13.916015625,5.126953125 18.69140625,17.109375 20.91796875,17.49755859375 22.8515625,18.427734375 24.43359375,20.01708984375 24.9609375,22.03125 24.2138671875,24.45556640625 21.97265625,26.865234375 16.81640625,29.765625 20.0390625,44.560546875 14.70703125,30.46875 9.66796875,31.201171875 6.6558837890625,30.9100341796875 4.50439453125,30.03662109375 3.2135009765625,28.5809326171875 2.783203125,26.54296875 2.9718017578125,24.931640625 3.53759765625,23.466796875 4.4805908203125,22.1484375 5.80078125,20.9765625 3.017578125,8.876953125 1.70654296875,8.291015625 1.0546875,7.939453125 0.263671875,7.0458984375 0,5.888671875 0.2655029296875,4.720458984375 1.06201171875,3.6181640625 2.3895263671875,2.581787109375 4.248046875,1.611328125 7.822265625,0.40283203125 11.162109375,0z" />
    </g>
  </g>
</svg>