<?xml version="1.0" encoding="utf-8"?>
<!DOCTYPE svg PUBLIC "-//W3C//DTD SVG 1.1//EN" "http://www.w3.org/Graphics/SVG/1.1/DTD/svg11.dtd">
<svg width="44.2089843750009" height="67.3828125" xmlns="http://www.w3.org/2000/svg" xmlns:xlink="http://www.w3.org/1999/xlink" xmlns:xml="http://www.w3.org/XML/1998/namespace" version="1.1">
  <g>
    <g>
      <path style="fill:#FF0000;fill-opacity:1" d="M22.119140625,4.21874952316284L20.8740234375,4.46777296066284 19.8779296875,5.1416015625 19.2041015625,6.15234375 18.955078125,7.3828125 18.955078125,30.52734375 18.6474609375,31.2744140625 17.900390625,31.58203125 17.1533203125,31.2744140625 16.845703125,30.52734375 16.845703125,23.173828125 14.736328125,23.173828125 13.095703125,23.49609375 11.7626953125,24.3896484375 10.8544921875,25.72265625 10.517578125,27.36328125 8.408203125,27.36328125 6.767578125,27.7001953125 5.4345703125,28.6083984375 4.541015625,29.94140625 4.21875,31.58203125 4.21875,44.208984375 4.57031154632568,45.8935546875 5.56640625,47.314453125 10.517578125,52.265625 10.517578125,63.1640625 33.69140625,63.1640625 33.69140625,52.265625 38.642578125,47.314453125 39.638671875,45.908203125 40.01953125,44.208984375 40.01953125,31.58203125 39.6826171875,29.94140625 38.7744140625,28.6083984375 37.44140625,27.7001953125 35.80078125,27.36328125 33.69140625,27.36328125 33.3544921875,25.72265625 32.4462890625,24.3896484375 31.11328125,23.49609375 29.47265625,23.173828125 27.36328125,23.173828125 27.36328125,29.736328125 27.333984375,30.322265625 27.1875,30.9228515625 26.865234375,31.3916015625 26.30859375,31.58203125 25.5615234375,31.2744140625 25.25390625,30.52734375 25.25390625,7.3828125 25.0048828125,6.1669921875 24.3310546875,5.15625 23.3349609375,4.46777296066284 22.119140625,4.21874952316284z M22.119140625,0L24.9755859375,0.585937261581421 27.3046875,2.18261766433716 28.88671875,4.5263671875 29.47265625,7.3828125 29.47265625,18.955078125 31.67724609375,19.237060546875 33.720703125,20.0830078125 35.47119140625,21.434326171875 36.796875,23.232421875 39.7412109375,24.140625 42.0849609375,26.0009765625 43.6376953125,28.564453125 44.208984375,31.58203125 44.208984375,44.208984375 43.5205078125,47.578125 41.513671875,50.390625 37.91015625,53.994140625 37.91015625,67.3828125 6.32812404632568,67.3828125 6.32812404632568,54.0234375 2.578125,50.2734375 0.6591796875,47.5048828125 0,44.208984375 0,31.58203125 0.5712890625,28.564453125 2.138671875,26.0009765625 4.4970703125,24.1552734375 7.44140625,23.26171875 8.763427734375,21.4599609375 10.5029296875,20.09765625 12.535400390625,19.24072265625 14.736328125,18.955078125 14.736328125,7.3828125 15.322265625,4.51171875 16.904296875,2.16796898841858 19.248046875,0.585937261581421 22.119140625,0z" />
    </g>
  </g>
</svg>