<?xml version="1.0" encoding="utf-8"?>
<!DOCTYPE svg PUBLIC "-//W3C//DTD SVG 1.1//EN" "http://www.w3.org/Graphics/SVG/1.1/DTD/svg11.dtd">
<svg width="46.34765625" height="67.3828125" xmlns="http://www.w3.org/2000/svg" xmlns:xlink="http://www.w3.org/1999/xlink" xmlns:xml="http://www.w3.org/XML/1998/namespace" version="1.1">
  <g>
    <g>
      <path style="fill:#FF0000;fill-opacity:1" d="M10.546875,22.32421875L10.546875,40.01953125 10.7958984375,42.550048828125 11.54296875,44.9267578125 14.2529296875,48.9404296875 18.2666015625,51.650390625 20.6433086395264,52.3974609375 23.173828125,52.646484375 25.704345703125,52.3974609375 28.0810546875,51.650390625 32.0947265625,48.9404296875 34.8046875,44.9267578125 35.5517578125,42.550048828125 35.80078125,40.01953125 35.80078125,22.32421875 33.22265625,24.6533203125 30.087890625,26.2060546875 26.6455078125,27.0849609375 23.173828125,27.36328125 19.6875,27.0849609375 16.2890625,26.19140625 13.1689453125,24.6240234375 10.546875,22.32421875z M9.052734375,12.65625L6.96533155441284,15.457763671875 5.44921922683716,18.5302734375 4.52636766433716,21.822509765625 4.21875047683716,25.283203125 4.21875047683716,44.208984375 4.89257860183716,49.248046875 6.81152391433716,53.7744140625 9.78515625,57.59765625 13.6083984375,60.5712890625 18.134765625,62.490234375 23.173828125,63.1640625 28.212890625,62.490234375 32.7392578125,60.5712890625 36.5625,57.59765625 39.5361328125,53.7744140625 41.455078125,49.248046875 42.12890625,44.208984375 42.12890625,25.283203125 41.8212852478027,21.822509765625 40.8984375,18.5302734375 39.38232421875,15.457763671875 37.294921875,12.65625 37.91015625,16.845703125 37.91015625,40.01953125 37.620849609375,42.974853515625 36.7529296875,45.7470703125 35.38330078125,48.25927734375 33.5888671875,50.4345703125 31.41357421875,52.22900390625 28.9013671875,53.5986328125 26.129150390625,54.466552734375 23.173828125,54.755859375 20.2148418426514,54.466552734375 17.431640625,53.5986328125 14.912109375,52.232666015625 12.744140625,50.44921875 10.960693359375,48.28125 9.5947265625,45.76171875 8.726806640625,42.978515625 8.4375,40.01953125 8.4375,16.845703125 9.052734375,12.65625z M23.173828125,4.21874952316284L20.7128887176514,4.46045207977295 18.369140625,5.185546875 14.3408203125,7.83691453933716 11.572265625,11.7626953125 10.80322265625,14.080810546875 10.546875,16.552734375 11.1328125,19.3505859375 12.685546875,21.5771484375 14.94140625,23.2470703125 17.6220703125,24.3896484375 20.44921875,25.0634765625 23.173828125,25.283203125 25.8984375,25.0634765625 28.7255859375,24.3896484375 31.40625,23.2470703125 33.662109375,21.5771484375 35.21484375,19.3505859375 35.80078125,16.552734375 35.54443359375,14.080810546875 34.775390625,11.7626953125 32.0068359375,7.83691453933716 27.978515625,5.185546875 25.634765625,4.46045207977295 23.173828125,4.21874952316284z M23.173828125,0L26.21337890625,0.270998895168304 29.12109375,1.08398389816284 31.83837890625,2.40967082977295 34.306640625,4.21874952316284 35.185546875,5.08300828933716 36.03515625,5.97656202316284 36.4599609375,6.298828125 36.884765625,6.62109375 40.8691368103027,10.477294921875 43.857421875,14.8388671875 45.7250938415527,19.757080078125 46.34765625,25.283203125 46.34765625,44.208984375 46.1389122009277,47.34375 45.5126953125,50.361328125 43.1689453125,55.8984375 39.55078125,60.5859375 34.86328125,64.2041015625 29.326171875,66.5478515625 26.30859375,67.174072265625 23.173828125,67.3828125 20.0390605926514,67.174072265625 17.021484375,66.5478515625 11.484375,64.2041015625 6.79687547683716,60.5859375 3.17871141433716,55.8984375 0.834961414337158,50.361328125 0.208740293979645,47.34375 0,44.208984375 0,25.283203125 0.622558832168579,19.757080078125 2.49023485183716,14.8388671875 5.47851514816284,10.477294921875 9.462890625,6.62109375 9.8876953125,6.298828125 10.3125,5.97656202316284 11.162109375,5.08300828933716 12.041015625,4.21874952316284 14.50927734375,2.40967082977295 17.2265625,1.08398389816284 20.1342754364014,0.270998895168304 23.173828125,0z" />
    </g>
  </g>
</svg>