<?xml version="1.0" encoding="utf-8"?>
<!DOCTYPE svg PUBLIC "-//W3C//DTD SVG 1.1//EN" "http://www.w3.org/Graphics/SVG/1.1/DTD/svg11.dtd">
<svg width="67.3828125000007" height="60.703125" xmlns="http://www.w3.org/2000/svg" xmlns:xlink="http://www.w3.org/1999/xlink" xmlns:xml="http://www.w3.org/XML/1998/namespace" version="1.1">
  <g>
    <g>
      <path style="fill:#FF0000;fill-opacity:1" d="M63.1640625,19.716796875L30.908203125,51.97265625 33.69140625,54.755859375 58.798828125,29.619140625 60.574951171875,27.491455078125 61.9189453125,25.0927734375 62.794189453125,22.4816913604736 63.1640625,19.716796875z M61.728515625,12.71484375L26.689453125,47.75390625 30.17578125,51.2109375 63.134765625,18.22265625 62.7099609375,15.41015625 61.728515625,12.71484375z M58.095703125,7.91015768051147L22.470703125,43.53515625 25.95703125,46.9921875 61.23046875,11.71875 58.095703125,7.91015768051147z M26.279296875,6.03515625L6.064453125,26.279296875 7.44140625,28.330078125 9.111328125,30.146484375 30.17578125,9.111328125 28.3447265625,7.42675828933716 26.279296875,6.03515625z M42.158203125,5.50781345367432L39.755859375,6.9287109375 37.6318359375,8.671875 35.654296875,10.6201171875 33.69140625,12.626953125 30.908203125,9.84375 9.84375,30.908203125 13.30078125,34.365234375 42.158203125,5.50781345367432z M52.705078125,4.89257907867432L18.28125,39.31640625 21.73828125,42.802734375 57.275390625,7.23632860183716 55.0927696228027,5.85937547683716 52.705078125,4.89257907867432z M18.193359375,4.24804782867432L15.465087890625,4.66186571121216 12.9052734375,5.5517578125 8.5693359375,8.5546875 5.56640625,12.890625 4.66552734375,15.439453125 4.248046875,18.1640625 18.193359375,4.24804782867432z M48.310546875,4.21875047683716L44.47265625,4.71679735183716 14.0625,35.09765625 17.51953125,38.583984375 51.533203125,4.57031297683716 48.310546875,4.21875047683716z M19.6875,4.21875047683716L4.21875,19.6875 4.6142578125,22.55859375 5.56640625,25.283203125 25.283203125,5.537109375 22.5659160614014,4.62158250808716 19.6875,4.21875047683716z M19.1015625,0L23.3642578125,0.454102218151093 27.1142578125,1.7578125 30.5126953125,3.85253953933716 33.69140625,6.6796875 36.85546875,3.85253953933716 40.25390625,1.7578125 44.0185546875,0.454102218151093 48.28125,0 52.1154747009277,0.377200424671173 55.7080078125,1.5087890625 58.9599609375,3.28857469558716 61.7724609375,5.61035203933716 64.09423828125,8.4228515625 65.8740234375,11.6748046875 67.005615234375,15.267333984375 67.3828125,19.1015625 67.02392578125,22.8479022979736 65.947265625,26.4111328125 64.189453125,29.696044921875 61.787109375,32.607421875 33.69140625,60.703125 5.59570217132568,32.607421875 3.193359375,29.696044921875 1.435546875,26.4111328125 0.358886361122131,22.8479022979736 0,19.1015625 0.688477516174316,14.0185546875 2.607421875,9.462890625 5.59570217132568,5.59570360183716 9.462890625,2.60742259025574 14.0185546875,0.688476979732513 19.1015625,0z" />
    </g>
  </g>
</svg>