<?xml version="1.0" encoding="utf-8"?>
<!DOCTYPE svg PUBLIC "-//W3C//DTD SVG 1.1//EN" "http://www.w3.org/Graphics/SVG/1.1/DTD/svg11.dtd">
<svg width="58.9453125" height="67.3828125" xmlns="http://www.w3.org/2000/svg" xmlns:xlink="http://www.w3.org/1999/xlink" xmlns:xml="http://www.w3.org/XML/1998/namespace" version="1.1">
  <g>
    <g>
      <path style="fill:#FF0000;fill-opacity:1" d="M33.69140625,44.208984375L42.099609375,44.208984375 42.099609375,52.646484375 33.69140625,52.646484375 33.69140625,44.208984375z M16.845703125,44.208984375L25.25390625,44.208984375 25.25390625,61.0546875 16.845703125,61.0546875 16.845703125,44.208984375z M33.69140625,27.36328125L42.099609375,27.36328125 42.099609375,35.80078125 33.69140625,35.80078125 33.69140625,27.36328125z M16.845703125,27.36328125L25.25390625,27.36328125 25.25390625,35.80078125 16.845703125,35.80078125 16.845703125,27.36328125z M29.47265625,13.505859375L9.287109375,33.69140625 8.408203125,33.69140625 8.408203125,58.974609375 10.0634765625,58.9599609375 11.71875,58.9453125 13.3740234375,59.1357421875 14.2822265625,59.677734375 14.6630859375,60.556640625 14.736328125,61.787109375 14.736328125,63.1640625 27.36328125,63.1640625 27.36328125,62.080078125 27.421875,60.966796875 27.7001953125,59.970703125 28.3447265625,59.2529296875 29.47265625,58.974609375 50.537109375,58.974609375 50.537109375,33.69140625 49.658203125,33.69140625 29.47265625,13.505859375z M29.47265625,6.328125L4.21875047683716,31.58203125 8.408203125,31.58203125 29.47265625,10.517578125 50.537109375,31.58203125 54.755859375,31.58203125 29.47265625,6.328125z M29.47265625,0L58.9453125,29.47265625 58.9453125,35.80078125 54.755859375,35.80078125 54.755859375,54.2578125 55.3857421875,54.9169921875 55.927734375,55.6640625 58.1396484375,57.94921875 58.743896484375,59.443359375 58.9453125,61.0546875 58.9453125,67.3828125 0,67.3828125 0,61.0546875 0.201416075229645,59.443359375 0.805664539337158,57.94921875 3.01757860183716,55.6640625 4.21875047683716,54.2578125 4.21875047683716,35.80078125 0,35.80078125 0,29.47265625 29.47265625,0z" />
    </g>
  </g>
</svg>