<?xml version="1.0" encoding="utf-8"?>
<!DOCTYPE svg PUBLIC "-//W3C//DTD SVG 1.1//EN" "http://www.w3.org/Graphics/SVG/1.1/DTD/svg11.dtd">
<svg width="67.3828125" height="67.3828125" xmlns="http://www.w3.org/2000/svg" xmlns:xlink="http://www.w3.org/1999/xlink" xmlns:xml="http://www.w3.org/XML/1998/namespace" version="1.1">
  <g>
    <g>
      <path style="fill:#FF0000;fill-opacity:1" d="M48.427734375,56.865234375L58.9453125,56.865234375 58.9453125,58.974609375 48.427734375,58.974609375 48.427734375,56.865234375z M52.646484375,50.537109375L58.9453125,50.537109375 58.9453125,52.646484375 52.646484375,52.646484375 52.646484375,50.537109375z M10.517578125,37.91015625L16.845703125,44.208984375 16.845703125,52.646484375 10.517578125,46.318359375 10.517578125,37.91015625z M21.064453125,21.064453125L21.064453125,63.1640625 63.1640625,63.1640625 63.1640625,21.064453125 46.318359375,21.064453125 46.318359375,27.36328125 37.91015625,27.36328125 37.91015625,21.064453125 21.064453125,21.064453125z M4.21875,5.71289110183716L4.21875,46.318359375 18.955078125,61.0546875 18.955078125,20.44921875 4.21875,5.71289110183716z M29.47265625,4.21874952316284L44.208984375,18.955078125 61.0546875,18.955078125 46.318359375,4.21874952316284 29.47265625,4.21874952316284z M5.712890625,4.21874952316284L20.44921875,18.955078125 35.80078125,18.955078125 21.064453125,4.21874952316284 5.712890625,4.21874952316284z M0,0L48.076171875,0 67.3828125,19.306640625 67.3828125,67.3828125 19.306640625,67.3828125 0,48.076171875 0,0z" />
    </g>
  </g>
</svg>