<?xml version="1.0" encoding="utf-8"?>
<!DOCTYPE svg PUBLIC "-//W3C//DTD SVG 1.1//EN" "http://www.w3.org/Graphics/SVG/1.1/DTD/svg11.dtd">
<svg width="65.2734375000048" height="67.3828125" xmlns="http://www.w3.org/2000/svg" xmlns:xlink="http://www.w3.org/1999/xlink" xmlns:xml="http://www.w3.org/XML/1998/namespace" version="1.1">
  <g>
    <g>
      <path style="fill:#FF0000;fill-opacity:1" d="M52.646484375,49.74609375L50.2001953125,50.9326171875 47.783203125,52.177734375 48.22265625,52.646484375 52.646484375,52.646484375 52.646484375,49.74609375z M10.517578125,46.318359375L10.517578125,48.603515625 13.505859375,51.591796875 10.95703125,54.140625 11.572265625,54.755859375 14.736328125,51.591796875 12.626953125,49.482421875 12.626953125,48.427734375 13.681640625,46.318359375 10.517578125,46.318359375z M27.36328125,42.12890625L27.36328125,63.1640625 29.47265625,63.1640625 29.47265625,42.12890625 27.36328125,42.12890625z M50.2734375,29.47265625L50.537109375,31.58203125 52.03125,32.197265625 52.646484375,33.69140625 52.646484375,40.01953125 52.96875,41.66015625 53.8623046875,42.9931640625 55.1953125,43.9013671875 56.8359375,44.23828125 58.9453125,44.23828125 60.4248046875,43.6083984375 61.0546875,42.12890625 59.970703125,42.12890625 58.828125,42.0703125 57.83203125,41.7919921875 57.1142578125,41.1474609375 56.8359375,40.01953125 56.8359375,33.69140625 56.513671875,32.05078125 55.6201171875,30.7177734375 54.287109375,29.8095703125 52.646484375,29.47265625 50.2734375,29.47265625z M23.173828125,25.283203125L22.9248027801514,27.8356952667236 22.177734375,30.2197265625 19.4677734375,34.2333984375 15.4541015625,36.9287109375 13.070068359375,37.664794921875 10.517578125,37.91015625 10.517578125,40.01953125 6.29882860183716,40.01953125 4.83398389816284,40.6494140625 4.21874952316284,42.12890625 4.21874952316284,50.947265625 4.59960889816284,51.884765625 5.49316358566284,52.939453125 6.53320264816284,53.9501953125 7.35351514816284,54.755859375 10.517578125,51.591796875 8.408203125,49.482421875 8.408203125,44.23828125 21.064453125,44.23828125 23.173828125,40.01953125 36.85546875,40.01953125 44.208984375,47.373046875 40.517578125,51.064453125 40.3125,51.416015625 40.107421875,51.796875 40.048828125,52.294921875 40.01953125,52.79296875 40.5029296875,54.1845703125 41.572265625,55.283203125 43.154296875,56.865234375 46.318359375,53.701171875 44.208984375,51.591796875 47.373046875,50.0244140625 50.537109375,48.427734375 45.263671875,37.91015625 47.5634765625,35.09765625 48.2116661071777,33.4130859375 48.427734375,31.58203125 47.9296875,29.12109375 46.5673828125,27.12890625 44.560546875,25.78125 42.099609375,25.283203125 42.099609375,33.69140625 37.79296875,33.69140625 37.1337890625,35.3759765625 35.9619140625,36.708984375 34.4091796875,37.587890625 32.63671875,37.91015625 30.849609375,37.587890625 29.3115234375,36.708984375 28.1396484375,35.3759765625 27.48046875,33.69140625 23.173828125,33.69140625 23.173828125,25.283203125z M4.21874952316284,25.283203125L4.21874952316284,26.66015625 4.51171827316284,27.744140625 5.25878858566284,28.6376953125 6.26953077316284,29.2529296875 7.35351514816284,29.47265625 8.466796875,29.2529296875 9.4775390625,28.65234375 10.224609375,27.7587890625 10.517578125,26.66015625 10.517578125,25.283203125 4.21874952316284,25.283203125z M37.91015625,23.173828125L37.2802734375,24.6533203125 35.80078125,25.283203125 25.25390625,25.283203125 25.25390625,31.58203125 29.47265625,31.58203125 29.47265625,32.28515625 29.501953125,33.0029296875 29.6484375,33.69140625 30.791015625,35.21484375 32.63671875,35.80078125 33.9990234375,35.5224609375 34.9951171875,34.7607421875 35.595703125,33.6474609375 35.80078125,32.28515625 35.80078125,31.58203125 40.01953125,31.58203125 40.01953125,25.283203125 39.3896484375,23.8037109375 37.91015625,23.173828125z M21.474609375,16.845703125L22.3388671875,18.6767578125 22.91015625,20.625 24.638671875,19.0869140625 25.25390625,16.845703125 21.474609375,16.845703125z M4.21874952316284,16.845703125L4.21874952316284,23.173828125 10.517578125,23.173828125 10.01953125,20.712890625 8.671875,18.7060546875 6.67968606948853,17.34375 4.21874952316284,16.845703125z M17.51953125,12.626953125L19.4824199676514,14.23828125 21.09375,16.259765625 22.6025390625,14.70703125 23.173828125,12.626953125 17.51953125,12.626953125z M4.21874952316284,12.626953125L4.21874952316284,14.736328125 7.47070264816284,15.41015625 10.13671875,17.2265625 11.953125,19.9072265625 12.626953125,23.173828125 12.568359375,23.4521484375 12.4365234375,23.994140625 12.2900390625,24.55078125 12.216796875,24.84375 12.01171875,25.60546875 11.6748046875,26.865234375 11.279296875,28.359375 10.8984375,29.82421875 10.6201171875,30.9814453125 10.517578125,31.58203125 10.517578125,33.69140625 12.623291015625,33.482666015625 14.6044921875,32.8564453125 17.958984375,30.6005859375 20.2294921875,27.2607421875 20.8557109832764,25.2795429229736 21.064453125,23.173828125 20.9619140625,22.0458984375 20.80078125,20.888671875 20.0537109375,18.779296875 18.955078125,16.845703125 17.2778301239014,15.0732421875 15.234375,13.740234375 12.94189453125,12.9052734375 10.517578125,12.626953125 8.173828125,13.212890625 6.29882860183716,14.736328125 5.69824171066284,13.2568359375 4.21874952316284,12.626953125z M27.36328125,4.21874952316284L27.36328125,21.064453125 22.998046875,21.064453125 23.115234375,22.119140625 23.173828125,23.173828125 29.47265625,23.173828125 29.47265625,4.21874952316284 27.36328125,4.21874952316284z M23.173828125,0L33.69140625,0 33.69140625,18.955078125 35.1123046875,18.92578125 36.533203125,18.896484375 38.173828125,18.9697265625 39.755859375,19.27734375 41.2353515625,19.9365234375 42.59765625,21.064453125 44.8937950134277,21.427001953125 47.0361328125,22.2802734375 48.9367637634277,23.5803241729736 50.5078125,25.283203125 52.646484375,25.283203125 55.9130859375,25.9423828125 58.59375,27.744140625 60.3955078125,30.4248046875 61.0546875,33.69140625 61.0546875,37.91015625 65.2734375,37.91015625 65.2734375,42.12890625 64.775390625,44.5751953125 63.4130859375,46.58203125 61.3916015625,47.9296875 58.9453125,48.427734375 56.8359375,48.427734375 56.8359375,56.865234375 49.130859375,56.865234375 43.154296875,62.8125 37.55859375,57.216796875 36.2255859375,55.107421875 35.80078125,52.646484375 36.416015625,49.7314453125 38.26171875,47.373046875 35.09765625,44.23828125 33.69140625,44.23828125 33.69140625,67.3828125 23.173828125,67.3828125 23.173828125,48.427734375 17.51953125,48.427734375 20.68359375,51.591796875 11.572265625,60.703125 9.462890625,58.59375 7.35351514816284,60.703125 1.75781202316284,55.107421875 0.424804210662842,52.998046875 0,50.537109375 0,42.12890625 0.498046398162842,39.697265625 1.84570264816284,37.6904296875 3.85253858566284,36.3134765625 6.29882860183716,35.80078125 6.29882860183716,33.603515625 3.79394483566284,32.7685546875 1.80175733566284,31.1279296875 0.483397960662842,28.9013671875 0,26.30859375 0,8.4375 1.42089796066284,8.408203125 2.90039014816284,8.37890625 5.05371046066284,8.5107421875 7.06054639816284,9.111328125 10.517578125,8.4375 23.173828125,8.4375 23.173828125,0z" />
    </g>
  </g>
</svg>