<?xml version="1.0" encoding="utf-8"?>
<!DOCTYPE svg PUBLIC "-//W3C//DTD SVG 1.1//EN" "http://www.w3.org/Graphics/SVG/1.1/DTD/svg11.dtd">
<svg width="57.48046875" height="45.52734375" xmlns="http://www.w3.org/2000/svg" xmlns:xlink="http://www.w3.org/1999/xlink" xmlns:xml="http://www.w3.org/XML/1998/namespace" version="1.1">
  <g>
    <g>
      <path style="fill:#FF0000;fill-opacity:1" d="M13.30078125,30.673828125L11.9384756088257,30.95947265625 10.48828125,31.81640625 5.390625,39.84375 7.060546875,41.953125 16.171875,39.2578125 17.666015625,37.72705078125 18.1640625,36.650390625 17.9736328125,36.1376953125 17.373046875,35.9765625 16.2158203125,36.23291015625 14.443359375,37.001953125 15.76171875,35.47119140625 16.201171875,34.21875 15.8935546875,33.3837890625 14.94140625,33.10546875 13.916015625,33.3544921875 12.1875,34.1015625 13.57177734375,32.61474609375 14.033203125,31.318359375 13.857421875,30.8349609375 13.30078125,30.673828125z M42.451171875,16.46484375L18.251953125,35.009765625 19.072265625,35.2880859375 19.3359375,36.005859375 18.955078125,37.20703125 43.212890625,18.662109375 42.451171875,16.46484375z M40.576171875,13.447265625L16.0546875,32.138671875 17.0654296875,32.73193359375 17.40234375,33.8671875 41.806640625,15.17578125 40.576171875,13.447265625z M37.587890625,11.279296875L13.2421875,29.736328125 14.0625,29.619140625 14.94140625,29.8974609375 15.234375,30.732421875 15.205078125,31.025390625 39.4921875,12.421875 37.587890625,11.279296875z M50.244140625,1.669921875L42.7734375,7.294921875 44.7766075134277,8.638916015625 46.3623008728027,10.3271484375 47.5305137634277,12.359619140625 48.28125,14.736328125 55.810546875,9.0234375 55.0781211853027,6.5423583984375 53.9062461853027,4.48974609375 52.2949180603027,2.8656005859375 50.244140625,1.669921875z M49.951171875,0L53.0145225524902,1.3897705078125 55.2905235290527,3.47900390625 56.7791709899902,6.2677001953125 57.48046875,9.755859375 17.080078125,40.4296875 0,45.52734375 9.66796875,30.673828125 49.951171875,0z" />
    </g>
  </g>
</svg>