<?xml version="1.0" encoding="utf-8"?>
<!DOCTYPE svg PUBLIC "-//W3C//DTD SVG 1.1//EN" "http://www.w3.org/Graphics/SVG/1.1/DTD/svg11.dtd">
<svg width="67.3828125" height="46.34765625" xmlns="http://www.w3.org/2000/svg" xmlns:xlink="http://www.w3.org/1999/xlink" xmlns:xml="http://www.w3.org/XML/1998/namespace" version="1.1">
  <g>
    <g>
      <path style="fill:#FF0000;fill-opacity:1" d="M34.74609375,29.501953125L33.5302734375,29.7509765625 32.51953125,30.41015625 31.8310546875,31.40625 31.58203125,32.63671875 31.8896484375,33.3837890625 32.63671875,33.69140625 33.8525390625,33.4423828125 34.86328125,32.7685546875 35.5517578125,31.7724609375 35.80078125,30.556640625 35.4931640625,29.8095703125 34.74609375,29.501953125z M26.513671875,19.833984375L4.21875,42.12890625 63.1640625,42.12890625 40.869140625,19.833984375 34.16015625,23.173828125 37.2802734375,23.96484375 39.7998046875,25.810546875 41.484375,28.447265625 42.099609375,31.611328125 42.099609375,32.63671875 41.8505859375,33.8525390625 41.1767578125,34.86328125 40.1806640625,35.5517578125 38.96484375,35.80078125 37.44140625,35.4052734375 36.298828125,34.3359375 34.599609375,35.4052734375 32.63671875,35.80078125 31.4208984375,35.5517578125 30.41015625,34.86328125 29.7216796875,33.8525390625 29.47265625,32.63671875 29.8828125,30.6005859375 31.0107421875,28.9306640625 32.6953125,27.802734375 34.74609375,27.392578125 35.9619140625,27.6416015625 36.97265625,28.330078125 37.6611328125,29.3408203125 37.91015625,30.556640625 37.880859375,31.2451171875 37.8515625,31.93359375 37.880859375,32.5341796875 38.02734375,33.10546875 38.3642578125,33.5302734375 38.96484375,33.69140625 39.5361328125,33.544921875 39.8583984375,33.1494140625 39.990234375,32.607421875 40.01953125,32.05078125 39.580078125,29.443359375 38.3056640625,27.2900390625 36.298828125,25.8251953125 33.69140625,25.283203125 31.23046875,25.78125 29.2236328125,27.1435546875 27.861328125,29.150390625 27.36328125,31.611328125 27.861328125,34.0576171875 29.2236328125,36.064453125 31.2451171875,37.412109375 33.69140625,37.91015625 37.91015625,37.91015625 37.91015625,40.01953125 33.69140625,40.01953125 30.439453125,39.345703125 27.7587890625,37.529296875 25.927734375,34.86328125 25.25390625,31.611328125 25.869140625,28.447265625 27.568359375,25.8251953125 30.1025390625,23.994140625 33.22265625,23.203125 26.513671875,19.833984375z M63.1640625,8.671875L42.861328125,18.837890625 63.1640625,39.140625 63.1640625,8.671875z M4.21875,8.671875L4.21875,39.140625 24.521484375,18.837890625 4.21875,8.671875z M4.21875,4.21875047683716L4.21875,6.32812547683716 18.955078125,13.7109375 33.69140625,21.064453125 48.427734375,13.7109375 63.1640625,6.32812547683716 63.1640625,4.21875047683716 4.21875,4.21875047683716z M0,0L67.3828125,0 67.3828125,46.34765625 0,46.34765625 0,0z" />
    </g>
  </g>
</svg>