<?xml version="1.0" encoding="utf-8"?>
<!DOCTYPE svg PUBLIC "-//W3C//DTD SVG 1.1//EN" "http://www.w3.org/Graphics/SVG/1.1/DTD/svg11.dtd">
<svg width="36.26953125" height="47.578125" xmlns="http://www.w3.org/2000/svg" xmlns:xlink="http://www.w3.org/1999/xlink" xmlns:xml="http://www.w3.org/XML/1998/namespace" version="1.1">
  <g>
    <g>
      <path style="fill:#FF0000;fill-opacity:1" d="M20.537109375,28.037109375L22.705078125,28.4765625 24.4921875,29.677734375 25.693359375,31.46484375 26.1328125,33.6328125 25.693359375,35.80078125 24.4921875,37.587890625 22.705078125,38.7890625 20.537109375,39.228515625 18.369140625,38.7890625 16.58203125,37.587890625 15.380859375,35.80078125 14.94140625,33.6328125 15.380859375,31.46484375 16.58203125,29.677734375 18.369140625,28.4765625 20.537109375,28.037109375z M5.595703125,18.076171875L7.763671875,18.515625 9.55078125,19.716796875 10.751953125,21.50390625 11.19140625,23.671875 10.751953125,25.83984375 9.55078125,27.626953125 7.763671875,28.828125 5.595703125,29.267578125 3.42773485183716,28.828125 1.640625,27.626953125 0.439453125,25.83984375 0,23.671875 0.439453125,21.50390625 1.640625,19.716796875 3.42773485183716,18.515625 5.595703125,18.076171875z M20.537109375,8.056640625L22.705078125,8.49609375 24.4921875,9.697265625 25.693359375,11.484375 26.1328125,13.65234375 25.693359375,15.8203125 24.4921875,17.607421875 22.705078125,18.80859375 20.537109375,19.248046875 18.369140625,18.80859375 16.58203125,17.607421875 15.380859375,15.8203125 14.94140625,13.65234375 15.380859375,11.484375 16.58203125,9.697265625 18.369140625,8.49609375 20.537109375,8.056640625z M19.072265625,0L23.115234375,0.2783203125 27.0703125,1.1865234375 30.6591796875,2.8564453125 33.5888671875,5.4052734375 35.5517578125,8.96484375 36.26953125,13.681640625 35.80078125,17.2998046875 34.62890625,20.1416015625 33.076171875,22.2802734375 31.46484375,23.7890625 33.076171875,25.2978515625 34.62890625,27.4365234375 35.80078125,30.29296875 36.26953125,33.896484375 35.5517578125,38.61328125 33.5888671875,42.1728515625 30.6591796875,44.7216796875 27.0703125,46.3916015625 23.115234375,47.2998046875 19.072265625,47.578125 15.3955078125,47.2412109375 12.275390625,46.3623046875 9.6826171875,45.1171875 7.6171875,43.681640625 4.072265625,39.755859375 4.1015625,44.35546875 0.9375,44.35546875 0.9375,35.595703125 4.072265625,35.595703125 5.58837890625,38.13720703125 7.5,40.37109375 9.5654296875,42.1142578125 12.158203125,43.6376953125 15.322265625,44.70703125 19.072265625,45.1171875 22.3352031707764,44.930419921875 25.2099609375,44.3701171875 27.67822265625,43.458251953125 29.7216796875,42.216796875 31.3330078125,40.6494140625 32.5048828125,38.759765625 33.218994140625,36.5625 33.45703125,34.072265625 32.8271484375,30 31.4208984375,27.275390625 29.9853515625,25.72265625 29.23828125,25.166015625 29.208984375,25.166015625 29.208984375,22.412109375 29.23828125,22.412109375 29.9853515625,21.884765625 31.4208984375,20.33203125 32.8271484375,17.5927734375 33.45703125,13.505859375 33.218994140625,11.0156269073486 32.5048828125,8.818359375 31.3330078125,6.9287109375 29.7216796875,5.361328125 27.67822265625,4.119873046875 25.2099609375,3.2080078125 22.3352031707764,2.647705078125 19.072265625,2.4609375 15.322265625,2.87109375 12.158203125,3.955078125 9.5654296875,5.4931640625 7.5,7.236328125 5.58837890625,9.46289157867432 4.072265625,11.982421875 0.9375,11.982421875 0.9375,3.22265625 4.1015625,3.22265625 4.072265625,7.822265625 7.6171875,3.92578125 9.6826171875,2.490234375 12.275390625,1.23046875 15.3955078125,0.3369140625 19.072265625,0z" />
    </g>
  </g>
</svg>