<?xml version="1.0" encoding="utf-8"?>
<!DOCTYPE svg PUBLIC "-//W3C//DTD SVG 1.1//EN" "http://www.w3.org/Graphics/SVG/1.1/DTD/svg11.dtd">
<svg width="67.3828125000012" height="50.537109375" xmlns="http://www.w3.org/2000/svg" xmlns:xlink="http://www.w3.org/1999/xlink" xmlns:xml="http://www.w3.org/XML/1998/namespace" version="1.1">
  <g>
    <g>
      <path style="fill:#FF0000;fill-opacity:1" d="M13.681640625,37.91015625L53.701171875,37.91015625 57.216796875,41.455078125 57.333984375,41.748046875 56.953125,42.12890625 41.07421875,42.12890625 42.099609375,44.23828125 25.25390625,44.23828125 26.30859375,42.12890625 10.4296875,42.12890625 10.13671875,41.9970703125 10.01953125,41.71875 10.5322265625,41.0009765625 11.6748046875,39.8291015625 12.9052734375,38.642578125 13.681640625,37.91015625z M12.626953125,6.328125L54.755859375,6.328125 54.755859375,35.80078125 12.626953125,35.80078125 12.626953125,6.328125z M12.626953125,4.21875L11.1474609375,4.8486328125 10.517578125,6.328125 10.517578125,37.91015625 4.658203125,43.798828125 4.21875,44.82421875 4.658203125,45.908203125 5.712890625,46.34765625 61.669921875,46.34765625 62.724609375,45.908203125 63.1640625,44.82421875 62.724609375,43.798828125 56.865234375,37.91015625 56.865234375,6.328125 56.2353515625,4.8486328125 54.755859375,4.21875 12.626953125,4.21875z M12.626953125,0L54.755859375,0 57.216796875,0.498046875 59.208984375,1.8603515625 60.556640625,3.8671875 61.0546875,6.328125 61.0546875,36.181640625 65.712890625,40.810546875 66.943359375,42.65625 67.3828125,44.82421875 66.9287109375,47.0654296875 65.712890625,48.8671875 63.896484375,50.0830078125 61.669921875,50.537109375 5.712890625,50.537109375 3.4716796875,50.0830078125 1.669921875,48.8671875 0.454101085662842,47.0654296875 0,44.82421875 0.439453601837158,42.65625 1.669921875,40.810546875 6.328125,36.181640625 6.328125,6.328125 6.826171875,3.8671875 8.173828125,1.8603515625 10.166015625,0.498046875 12.626953125,0z" />
    </g>
  </g>
</svg>