<?xml version="1.0" encoding="utf-8"?>
<!DOCTYPE svg PUBLIC "-//W3C//DTD SVG 1.1//EN" "http://www.w3.org/Graphics/SVG/1.1/DTD/svg11.dtd">
<svg width="61.0546875000047" height="65.2734375" xmlns="http://www.w3.org/2000/svg" xmlns:xlink="http://www.w3.org/1999/xlink" xmlns:xml="http://www.w3.org/XML/1998/namespace" version="1.1">
  <g>
    <g>
      <path style="fill:#FF0000;fill-opacity:1" d="M30.52734375,4.21875L29.3115234375,4.4677734375 28.30078125,5.14160108566284 27.6123046875,6.13769483566284 27.36328125,7.35351514816284 27.36328125,27.36328125 27.0263671875,28.212890625 26.19140625,28.564453125 25.283203125,28.2861328125 24.931640625,27.392578125 21.884765625,9.0234375 20.830078125,7.06054735183716 18.75,6.328125 17.5048828125,6.57714891433716 16.5087890625,7.23632860183716 15.8349609375,8.232421875 15.5859375,9.462890625 15.615234375,9.90234375 18.662109375,29.6484375 18.662109375,29.794921875 18.1640625,30.7177734375 17.16796875,31.11328125 16.2451171875,30.791015625 15.76171875,29.94140625 15.7470703125,29.8974609375 15.732421875,29.853515625 10.341796875,16.845703125 9.169921875,15.322265625 7.35351514816284,14.736328125 6.13769483566284,14.9853515625 5.12695264816284,15.6591796875 4.43847608566284,16.6552734375 4.18945264816284,17.87109375 4.39453077316284,18.955078125 12.626953125,40.986328125 12.626953125,45.263671875 12.938232421875,48.4423828125 13.8720703125,51.416015625 15.340576171875,54.10400390625 17.255859375,56.42578125 19.5776348114014,58.341064453125 22.265625,59.8095703125 25.2392578125,60.743408203125 28.41796875,61.0546875 31.5234375,60.758056640625 34.453125,59.8681640625 37.15576171875,58.421630859375 39.580078125,56.455078125 55.634765625,40.869140625 56.54296875,39.5068359375 56.865234375,37.91015625 56.5283203125,36.26953125 55.6201171875,34.9365234375 54.287109375,34.0283203125 52.646484375,33.69140625 51.03515625,34.013671875 49.658203125,34.921875 43.916015625,39.78515625 42.509765625,40.341796875 41.982421875,40.2685546875 41.484375,40.01953125 34.74609375,40.01953125 31.0546875,40.7666015625 28.037109375,42.802734375 26.0009765625,45.8056640625 25.25390625,49.482421875 24.9462890625,50.2294921875 24.19921875,50.537109375 23.4814453125,50.21484375 23.173828125,49.482421875 23.4008769989014,47.1533203125 24.08203125,44.970703125 26.5576171875,41.2939453125 30.234375,38.818359375 32.4169921875,38.13720703125 34.74609375,37.91015625 41.044921875,37.91015625 46.259765625,12.24609375 46.3037109375,11.9384765625 46.318359375,11.630859375 46.0693359375,10.400390625 45.3955078125,9.375 44.384765625,8.671875 43.154296875,8.408203125 41.1767578125,9.111328125 40.078125,10.927734375 36.26953125,27.36328125 35.7861328125,28.2421875 34.86328125,28.564453125 34.0283203125,28.212890625 33.69140625,27.36328125 33.69140625,7.35351514816284 33.4423828125,6.123046875 32.75390625,5.126953125 31.7431640625,4.4677734375 30.52734375,4.21875z M30.52734375,0L33.1787109375,0.498046398162842 35.4052734375,1.86035168170929 37.03125,3.9111328125 37.8515625,6.474609375 40.2685546875,4.8193359375 43.154296875,4.21875 45.99609375,4.79003858566284 48.3544921875,6.35742139816284 49.951171875,8.671875 50.537109375,11.513671875 50.361328125,13.125 46.5234375,32.05078125 47.958984375,30.9521484375 49.3359375,30.146484375 50.830078125,29.6484375 52.646484375,29.47265625 55.927734375,30.1318359375 58.59375,31.93359375 60.3955078125,34.6142578125 61.0546875,37.91015625 60.439453125,41.1328125 58.59375,43.857421875 42.509765625,59.47265625 39.429931640625,61.973876953125 36.0498046875,63.7939453125 32.376708984375,64.903564453125 28.41796875,65.2734375 23.115234375,64.5556640625 18.33984375,62.5341796875 14.2822265625,59.3994140625 11.1474609375,55.341796875 9.1259765625,50.56640625 8.408203125,45.263671875 8.408203125,41.748046875 0.439453125,20.419921875 0,17.841796875 0.585937023162842,15.0146484375 2.18261671066284,12.685546875 4.52636671066284,11.103515625 7.35351514816284,10.517578125 9.6240234375,10.8837890625 11.66015625,11.923828125 11.484375,10.7373046875 11.396484375,9.521484375 11.9677734375,6.6357421875 13.5205078125,4.27734422683716 15.849609375,2.6953125 18.75,2.10937547683716 21.5185546875,2.6513671875 23.876953125,4.18945360183716 25.048828125,2.4755859375 26.6162109375,1.15722692012787 28.4765625,0.30761706829071 30.52734375,0z" />
    </g>
  </g>
</svg>