<?xml version="1.0" encoding="utf-8"?>
<!DOCTYPE svg PUBLIC "-//W3C//DTD SVG 1.1//EN" "http://www.w3.org/Graphics/SVG/1.1/DTD/svg11.dtd">
<svg width="63.1640625000015" height="63.1640625" xmlns="http://www.w3.org/2000/svg" xmlns:xlink="http://www.w3.org/1999/xlink" xmlns:xml="http://www.w3.org/XML/1998/namespace" version="1.1">
  <g>
    <g>
      <path style="fill:#FF0000;fill-opacity:1" d="M58.9453125,10.517578125L50.537109375,14.736328125 49.1162109375,15.556640625 48.0322265625,16.4501953125 47.138671875,17.5341796875 46.318359375,18.955078125 42.099609375,27.36328125 41.4697265625,28.65234375 40.83984375,29.94140625 38.748779296875,33.211669921875 36.1669921875,36.1669921875 33.197021484375,38.734130859375 29.94140625,40.83984375 28.65234375,41.484375 27.36328125,42.099609375 18.955078125,46.318359375 17.5341796875,47.138671875 16.4501953125,48.0322265625 15.556640625,49.1162109375 14.736328125,50.537109375 10.517578125,58.9453125 21.064453125,58.9453125 26.2060546875,58.6083984375 31.142578125,57.59765625 35.82275390625,55.9716796875 40.1953125,53.7890625 44.2236289978027,51.0791015625 47.87109375,47.87109375 51.0790977478027,44.2236328125 53.7890625,40.1953125 55.9716796875,35.82275390625 57.59765625,31.142578125 58.6083984375,26.2060565948486 58.9453125,21.064453125 58.9453125,10.517578125z M29.47265625,4.21875L27.099609375,4.6142578125 25.0048828125,5.71289014816284 23.3056640625,7.3828125 22.119140625,9.462890625 20.478515625,14.1796875 18.955078125,18.955078125 14.1796875,20.478515625 9.462890625,22.119140625 7.3828125,23.3056640625 5.712890625,25.0048828125 4.6142578125,27.099609375 4.21875,29.47265625 4.21875,54.755859375 6.25854396820068,54.47021484375 7.9833984375,53.61328125 9.400634765625,52.27294921875 10.517578125,50.537109375 20.009765625,31.58203125 24.0673828125,30.087890625 27.509765625,27.509765625 30.087890625,24.08203125 31.58203125,20.009765625 50.537109375,10.517578125 52.2729454040527,9.400634765625 53.61328125,7.98339891433716 54.4702110290527,6.258544921875 54.755859375,4.21875 29.47265625,4.21875z M29.47265625,0L54.755859375,0 56.396484375,0.336913585662842 57.7294921875,1.24511742591858 58.623046875,2.57812476158142 58.9453125,4.21875 58.740234375,6.328125 60.4541015625,6.6357421875 61.8603515625,7.4853515625 62.8125,8.8037109375 63.1640625,10.517578125 63.1640625,21.064453125 62.786865234375,26.7590351104736 61.6552734375,32.2412109375 59.8388671875,37.44140625 57.4072265625,42.2900390625 54.3896446228027,46.7578125 50.8154296875,50.8154296875 46.7578086853027,54.3896484375 42.2900390625,57.4072265625 37.44140625,59.8388671875 32.2412109375,61.6552734375 26.759033203125,62.786865234375 21.064453125,63.1640625 10.517578125,63.1640625 8.8037109375,62.8125 7.470703125,61.8603515625 6.62109375,60.4541015625 6.328125,58.740234375 4.21875,58.9453125 2.578125,58.623046875 1.2451171875,57.7294921875 0.336913585662842,56.396484375 0,54.755859375 0,29.47265625 0.5859375,25.751953125 2.2265625,22.646484375 4.74609375,20.126953125 7.939453125,18.193359375 15.615234375,15.615234375 16.845703125,11.748046875 18.251953125,7.96874952316284 20.0390625,4.775390625 22.646484375,2.255859375 25.8544921875,0.600585460662842 29.47265625,0z" />
    </g>
  </g>
</svg>