<?xml version="1.0" encoding="utf-8"?>
<!DOCTYPE svg PUBLIC "-//W3C//DTD SVG 1.1//EN" "http://www.w3.org/Graphics/SVG/1.1/DTD/svg11.dtd">
<svg width="66.826171875" height="66.826171875" xmlns="http://www.w3.org/2000/svg" xmlns:xlink="http://www.w3.org/1999/xlink" xmlns:xml="http://www.w3.org/XML/1998/namespace" version="1.1">
  <g>
    <g>
      <path style="fill:#FF0000;fill-opacity:1" d="M10.6640625,47.021484375L5.771484375,52.646484375 14.1796875,61.0546875 19.775390625,56.19140625 10.6640625,47.021484375z M34.365234375,29.47265625L35.5224609375,29.70703125 36.474609375,30.3515625 37.119140625,31.3037109375 37.353515625,32.4609375 37.1630859375,33.5009765625 36.6650390625,34.3359375 35.9912109375,35.068359375 35.244140625,35.80078125 34.51171875,36.5478515625 33.779296875,37.2216796875 32.9443359375,37.7197265625 31.904296875,37.91015625 30.7470703125,37.67578125 29.794921875,37.03125 29.150390625,36.0791015625 28.916015625,34.921875 29.1064453125,33.8818359375 29.6044921875,33.046875 30.2783203125,32.314453125 31.025390625,31.58203125 31.7578125,30.8349609375 32.490234375,30.1611328125 33.3251953125,29.6630859375 34.365234375,29.47265625z M35.244140625,18.955078125L12.626953125,44.794921875 22.060546875,54.19921875 47.87109375,31.58203125 35.244140625,18.955078125z M49.98046875,10.517578125L52.08984375,10.517578125 52.08984375,12.626953125 49.98046875,12.626953125 49.98046875,10.517578125z M40.048828125,9.0234375L38.0419921875,12.71484375 37.353515625,16.845703125 49.98046875,29.47265625 54.111328125,28.7841796875 57.802734375,26.77734375 40.048828125,9.0234375z M49.98046875,6.32812547683716L52.08984375,6.32812547683716 52.08984375,8.4375 49.98046875,8.4375 49.98046875,6.32812547683716z M45.76171875,6.32812547683716L47.87109375,6.32812547683716 47.87109375,8.4375 45.76171875,8.4375 45.76171875,6.32812547683716z M49.98046875,4.21874952316284L45.849609375,4.90722608566284 42.158203125,6.9140625 59.912109375,24.66796875 61.9189453125,20.9765625 62.607421875,16.845703125 62.3583984375,14.315185546875 61.611328125,11.9384765625 58.9013671875,7.92480516433716 54.8876953125,5.21484375 52.5109825134277,4.46777629852295 49.98046875,4.21874952316284z M49.98046875,0L53.3422813415527,0.333254843950272 56.513671875,1.33300805091858 59.39208984375,2.90405559539795 61.875,4.95117235183716 63.922119140625,7.43408203125 65.4931640625,10.3125 66.492919921875,13.48388671875 66.826171875,16.845703125 66.54052734375,19.984130859375 65.68359375,22.9541015625 64.3212890625,25.6823749542236 62.51953125,28.095703125 60.318603515625,30.1501483917236 57.7587890625,31.8017578125 54.9060020446777,32.977294921875 51.826171875,33.603515625 51.298828125,34.1455078125 50.7421875,34.658203125 14.00390625,66.826171875 0,52.822265625 32.16796875,16.083984375 32.6806640625,15.52734375 33.251953125,15 33.878173828125,11.920166015625 35.0537109375,9.0673828125 36.705322265625,6.50757122039795 38.759765625,4.306640625 41.1694297790527,2.50488567352295 43.88671875,1.14257860183716 46.8456993103027,0.285647451877594 49.98046875,0z" />
    </g>
  </g>
</svg>