<?xml version="1.0" encoding="utf-8"?>
<!DOCTYPE svg PUBLIC "-//W3C//DTD SVG 1.1//EN" "http://www.w3.org/Graphics/SVG/1.1/DTD/svg11.dtd">
<svg width="67.3828125" height="67.3828125" xmlns="http://www.w3.org/2000/svg" xmlns:xlink="http://www.w3.org/1999/xlink" xmlns:xml="http://www.w3.org/XML/1998/namespace" version="1.1">
  <g>
    <g>
      <path style="fill:#FF0000;fill-opacity:1" d="M58.9453125,31.58203125L31.58203125,58.9453125 33.69140625,61.0546875 61.0546875,33.69140625 58.9453125,31.58203125z M54.7265625,27.36328125L27.36328125,54.755859375 29.501953125,56.865234375 56.865234375,29.501953125 54.7265625,27.36328125z M50.537109375,23.14453125L23.14453125,50.537109375 25.283203125,52.646484375 52.646484375,25.283203125 50.537109375,23.14453125z M46.318359375,18.955078125L18.955078125,46.318359375 21.064453125,48.45703125 48.45703125,21.064453125 46.318359375,18.955078125z M42.099609375,14.736328125L14.736328125,42.099609375 16.845703125,44.23828125 44.23828125,16.845703125 42.099609375,14.736328125z M37.91015625,10.517578125L10.517578125,37.91015625 12.65625,40.01953125 40.01953125,12.65625 37.91015625,10.517578125z M33.69140625,6.328125L6.328125,33.69140625 8.4375,35.80078125 35.80078125,8.4375 33.69140625,6.328125z M33.69140625,0L67.3828125,33.69140625 33.69140625,67.3828125 0,33.69140625 33.69140625,0z" />
    </g>
  </g>
</svg>