<?xml version="1.0" encoding="utf-8"?>
<!DOCTYPE svg PUBLIC "-//W3C//DTD SVG 1.1//EN" "http://www.w3.org/Graphics/SVG/1.1/DTD/svg11.dtd">
<svg width="44.2089843750006" height="67.3828125" xmlns="http://www.w3.org/2000/svg" xmlns:xlink="http://www.w3.org/1999/xlink" xmlns:xml="http://www.w3.org/XML/1998/namespace" version="1.1">
  <g>
    <g>
      <path style="fill:#FF0000;fill-opacity:1" d="M22.119140625,12.626953125L23.5986328125,13.2568359375 24.228515625,14.736328125 24.228515625,18.955078125 23.5986328125,20.4345703125 22.119140625,21.064453125 20.625,20.44921875 20.009765625,18.955078125 20.009765625,14.736328125 20.625,13.2421875 22.119140625,12.626953125z M18.955078125,4.21874952316284L18.955078125,26.455078125 19.21875,27.626953125 19.921875,28.6083984375 20.9326171875,29.267578125 22.119140625,29.501953125 23.349609375,29.2529296875 24.345703125,28.564453125 25.0048828125,27.5537109375 25.25390625,26.30859375 25.25390625,4.21874952316284 18.955078125,4.21874952316284z M14.736328125,4.21874952316284L12.630615234375,4.42749309539795 10.6494140625,5.0537109375 7.294921875,7.3095703125 5.0390625,10.6494140625 4.423828125,12.630615234375 4.21875,14.736328125 4.21875,45.263671875 4.5703125,48.8671875 5.625,52.236328125 7.28759670257568,55.283203125 9.462890625,57.919921875 12.099609375,60.09521484375 15.146484375,61.7578125 18.5156230926514,62.8125 22.119140625,63.1640625 25.704345703125,62.8125 29.0771484375,61.7578125 32.135009765625,60.09521484375 34.775390625,57.919921875 36.95068359375,55.279541015625 38.61328125,52.2216796875 39.66796875,48.848876953125 40.01953125,45.263671875 40.01953125,14.736328125 39.810791015625,12.6123046875 39.1845703125,10.634765625 36.9140625,7.294921875 33.5595703125,5.0390625 31.578369140625,4.42383098602295 29.47265625,4.21874952316284 27.36328125,4.21874952316284 27.36328125,26.30859375 26.953125,28.3740234375 25.83984375,30.0439453125 24.1845703125,31.171875 22.1484375,31.58203125 20.0830078125,31.171875 18.3984375,30.0439453125 17.255859375,28.3740234375 16.845703125,26.30859375 16.845703125,4.21874952316284 14.736328125,4.21874952316284z M14.736328125,0L29.47265625,0 32.427978515625,0.289309531450272 35.2001953125,1.15722680091858 37.71240234375,2.52685832977295 39.8876953125,4.32128953933716 41.6821250915527,6.49658489227295 43.0517578125,9.0087890625 43.9196739196777,11.781005859375 44.208984375,14.736328125 44.208984375,45.263671875 44.0112266540527,48.255615234375 43.41796875,51.1376953125 41.19140625,56.42578125 37.734375,60.8935546875 33.2666015625,64.3505859375 27.9931640625,66.591796875 25.111083984375,67.18505859375 22.119140625,67.3828125 19.1271953582764,67.18505859375 16.2451171875,66.591796875 10.95703125,64.3505859375 6.4892578125,60.8935546875 3.0322265625,56.42578125 0.791015625,51.1376953125 0.197753548622131,48.255615234375 0,45.263671875 0,14.736328125 0.289306282997131,11.781005859375 1.1572265625,9.0087890625 2.52685546875,6.49658489227295 4.3212890625,4.32128953933716 6.49658107757568,2.52685832977295 9.0087890625,1.15722680091858 11.781005859375,0.289309531450272 14.736328125,0z" />
    </g>
  </g>
</svg>