<?xml version="1.0" encoding="utf-8"?>
<!DOCTYPE svg PUBLIC "-//W3C//DTD SVG 1.1//EN" "http://www.w3.org/Graphics/SVG/1.1/DTD/svg11.dtd">
<svg width="67.3828125" height="67.3828125" xmlns="http://www.w3.org/2000/svg" xmlns:xlink="http://www.w3.org/1999/xlink" xmlns:xml="http://www.w3.org/XML/1998/namespace" version="1.1">
  <g>
    <g>
      <path style="fill:#FF0000;fill-opacity:1" d="M21.064453125,50.537109375L42.099609375,50.537109375 42.099609375,54.755859375 21.064453125,54.755859375 21.064453125,50.537109375z M18.955078125,46.318359375L17.4609375,46.93359375 16.845703125,48.427734375 16.845703125,63.1640625 46.318359375,63.1640625 46.318359375,48.427734375 45.703125,46.93359375 44.208984375,46.318359375 18.955078125,46.318359375z M44.208984375,35.80078125L42.7294921875,36.4306640625 42.099609375,37.91015625 42.7294921875,39.3896484375 44.208984375,40.01953125 45.6884765625,39.3896484375 46.318359375,37.91015625 45.703125,36.416015625 44.208984375,35.80078125z M10.517578125,33.69140625L10.517578125,42.12890625 33.69140625,42.12890625 35.33203125,41.7919921875 36.6650390625,40.8837890625 37.5732421875,39.55078125 37.91015625,37.91015625 37.5732421875,36.26953125 36.6650390625,34.9365234375 35.33203125,34.0283203125 33.69140625,33.69140625 10.517578125,33.69140625z M4.21875,31.58203125L4.21875,44.208984375 6.328125,44.208984375 8.408203125,42.12890625 8.408203125,33.69140625 6.328125,31.58203125 4.21875,31.58203125z M61.0546875,29.47265625L52.646484375,33.69140625 52.646484375,54.755859375 61.0546875,58.974609375 63.1640625,58.974609375 63.1640625,29.47265625 61.0546875,29.47265625z M44.208984375,14.736328125L45.703125,15.3515625 46.318359375,16.845703125 45.703125,18.33984375 44.208984375,18.955078125 42.7294921875,18.3251953125 42.099609375,16.845703125 42.7294921875,15.3662109375 44.208984375,14.736328125z M18.955078125,14.736328125L20.44921875,15.3515625 21.064453125,16.845703125 20.44921875,18.33984375 18.955078125,18.955078125 17.4609375,18.33984375 16.845703125,16.845703125 17.4609375,15.3515625 18.955078125,14.736328125z M18.955078125,4.21874952316284L16.424560546875,4.46777629852295 14.0478515625,5.21484422683716 10.0341796875,7.9248046875 7.32421875,11.9384765625 6.57714748382568,14.315185546875 6.328125,16.845703125 6.57714748382568,19.376220703125 7.32421875,21.7529296875 10.0341796875,25.7666015625 14.0478515625,28.4765625 16.424560546875,29.2236347198486 18.955078125,29.47265625 44.208984375,29.47265625 46.7394981384277,29.2236347198486 49.1162109375,28.4765625 53.14453125,25.7666015625 55.869140625,21.7529296875 56.6162109375,19.376220703125 56.865234375,16.845703125 56.6162109375,14.315185546875 55.869140625,11.9384765625 53.14453125,7.9248046875 49.1162109375,5.21484422683716 46.7394981384277,4.46777629852295 44.208984375,4.21874952316284 41.6784629821777,4.46777629852295 39.3017578125,5.21484422683716 35.2880859375,7.9248046875 32.578125,11.9384765625 31.8310546875,14.315185546875 31.58203125,16.845703125 31.3330078125,14.315185546875 30.5859375,11.9384765625 27.8759765625,7.9248046875 23.8623046875,5.21484422683716 21.4855937957764,4.46777629852295 18.955078125,4.21874952316284z M18.955078125,0L22.5219707489014,0.369875878095627 25.8984375,1.47949194908142 28.9599609375,3.27759075164795 31.58203125,5.71289110183716 34.251708984375,3.27759075164795 37.2802734375,1.47949194908142 40.616455078125,0.369875878095627 44.208984375,0 47.5707969665527,0.333254754543304 50.7421875,1.33300733566284 53.6206016540527,2.90405559539795 56.103515625,4.95117235183716 58.150634765625,7.43408203125 59.7216796875,10.3125 60.721435546875,13.48388671875 61.0546875,16.845703125 60.4541015625,21.2109375 58.740234375,25.283203125 67.3828125,25.283203125 67.3828125,63.1640625 60.05859375,63.1640625 54.609375,60.439453125 53.583984375,63.2080078125 51.708984375,65.4052734375 49.21875,66.85546875 46.318359375,67.3828125 16.845703125,67.3828125 13.59375,66.708984375 10.9130859375,64.892578125 9.08203125,62.2265625 8.408203125,58.974609375 8.408203125,48.427734375 0,48.427734375 0,27.36328125 5.771484375,27.36328125 4.19677734375,25.0158710479736 3.046875,22.4267578125 2.34375,19.676513671875 2.109375,16.845703125 2.442626953125,13.48388671875 3.4423828125,10.3125 5.01342678070068,7.43408203125 7.060546875,4.95117235183716 9.539794921875,2.90405559539795 12.4072265625,1.33300733566284 15.574951171875,0.333254754543304 18.955078125,0z" />
    </g>
  </g>
</svg>