<?xml version="1.0" encoding="utf-8"?>
<!DOCTYPE svg PUBLIC "-//W3C//DTD SVG 1.1//EN" "http://www.w3.org/Graphics/SVG/1.1/DTD/svg11.dtd">
<svg width="67.3828125000014" height="48.486328125" xmlns="http://www.w3.org/2000/svg" xmlns:xlink="http://www.w3.org/1999/xlink" xmlns:xml="http://www.w3.org/XML/1998/namespace" version="1.1">
  <g>
    <g>
      <path style="fill:#FF0000;fill-opacity:1" d="M40.01953125,27.421875L56.865234375,27.421875 56.865234375,33.75 56.19140625,37.001953125 54.3603515625,39.66796875 51.6650390625,41.484375 48.427734375,42.158203125 45.1611328125,41.4990234375 42.48046875,39.697265625 40.6787109375,37.0166015625 40.01953125,33.75 40.01953125,27.421875z M10.517578125,27.421875L27.36328125,27.421875 27.36328125,33.75 26.7041015625,37.0166015625 24.90234375,39.697265625 22.2216796875,41.4990234375 18.955078125,42.158203125 15.703125,41.484375 13.0224609375,39.66796875 11.19140625,37.001953125 10.517578125,33.75 10.517578125,27.421875z M21.064453125,4.248046875L20.0830078125,4.5263671875 19.3359375,5.21484375 7.294921875,23.203125 6.328125,23.203125 4.833984375,23.818359375 4.21875,25.3125 4.4970703125,26.4404296875 5.21484470367432,27.0849609375 6.2109375,27.36328125 7.32421875,27.421875 8.408203125,27.421875 8.408203125,33.75 8.62060546875,35.921630859375 9.2578125,37.9248046875 11.572265625,41.25 14.9853515625,43.4619140625 17.0031719207764,44.066162109375 19.16015625,44.267578125 22.646484375,43.6083984375 25.6787109375,41.806640625 27.978515625,39.1259765625 29.267578125,35.830078125 30.52734375,35.5810546875 31.23046875,34.921875 31.5380859375,33.984375 31.611328125,32.87109375 31.5966796875,32.255859375 31.58203125,31.640625 32.197265625,30.146484375 33.69140625,29.53125 35.185546875,30.146484375 35.80078125,31.640625 35.7861328125,32.255859375 35.771484375,32.87109375 35.859375,34.0576171875 36.1962890625,34.9951171875 36.8994140625,35.6103515625 38.115234375,35.830078125 39.404296875,39.1259765625 41.689453125,41.806640625 44.6923828125,43.6083984375 48.1640625,44.267578125 50.3247032165527,44.06982421875 52.353515625,43.4765625 55.78125,41.279296875 58.095703125,37.939453125 58.73291015625,35.92529296875 58.9453125,33.75 58.9453125,27.421875 59.5458984375,27.4365234375 60.146484375,27.451171875 61.259765625,27.3779296875 62.2265625,27.0849609375 62.900390625,26.4404296875 63.1640625,25.3125 62.548828125,23.818359375 61.0546875,23.203125 60.087890625,23.203125 48.076171875,5.185546875 47.2998046875,4.51171875 46.318359375,4.248046875 42.099609375,4.248046875 40.634765625,4.8779296875 40.01953125,6.357421875 40.634765625,7.83691501617432 42.099609375,8.46679592132568 45.205078125,8.46679592132568 55.01953125,23.203125 40.01953125,23.203125 38.525390625,23.818359375 37.91015625,25.3125 29.47265625,25.3125 28.857421875,23.818359375 27.36328125,23.203125 12.36328125,23.203125 22.177734375,8.46679592132568 25.25390625,8.46679592132568 26.748046875,7.8515625 27.36328125,6.357421875 26.748046875,4.86328125 25.25390625,4.248046875 21.064453125,4.248046875z M44.970703125,0L46.93359375,0.1025390625 48.7060546875,0.5126953125 50.2587890625,1.3916015625 51.591796875,2.87109375 62.431640625,19.16015625 64.423828125,19.9658203125 65.9912109375,21.357421875 67.0166015625,23.1884765625 67.3828125,25.3125 67.09716796875,27.249755859375 66.240234375,28.9599609375 64.89990234375,30.333251953125 63.1640625,31.259765625 63.1640625,33.92578125 62.87109375,36.873779296875 61.9921875,39.6240234375 60.611572265625,42.10693359375 58.8134765625,44.2529296875 56.63818359375,46.01806640625 54.1259765625,47.3583984375 51.3610801696777,48.204345703125 48.427734375,48.486328125 44.0478515625,47.8271484375 40.1220703125,45.9521484375 36.9140625,43.0078125 34.6875,39.169921875 33.69140625,38.4375 32.6953125,39.169921875 30.46875,43.0078125 27.2607421875,45.9521484375 23.3349609375,47.8271484375 18.955078125,48.486328125 16.021728515625,48.204345703125 13.2568359375,47.3583984375 10.74462890625,46.01806640625 8.5693359375,44.2529296875 6.77123928070068,42.10693359375 5.390625,39.6240234375 4.51171875,36.873779296875 4.21875,33.92578125 4.21875,31.259765625 2.48291015625,30.333251953125 1.142578125,28.9599609375 0.285644173622131,27.249755859375 0,25.3125 0.3662109375,23.1884765625 1.3916015625,21.357421875 2.958984375,19.9658203125 4.951171875,19.16015625 15.791015625,2.87109375 17.138671875,1.40625047683716 18.7060546875,0.541992664337158 20.4638671875,0.1318359375 22.412109375,0.0292973518371582 23.84765625,0.0439448356628418 25.25390625,0.0585932731628418 27.71484375,0.556640148162842 29.7216796875,1.90429735183716 31.083984375,3.896484375 31.58203125,6.357421875 31.083984375,8.818359375 29.7216796875,10.8251953125 27.71484375,12.1875 25.25390625,12.685546875 24.43359375,12.685546875 20.21484375,18.984375 27.36328125,18.984375 29.94140625,19.541015625 32.080078125,21.09375 35.302734375,21.09375 37.4267578125,19.5263671875 40.01953125,18.984375 47.16796875,18.984375 42.94921875,12.685546875 42.099609375,12.685546875 39.6533203125,12.1875 37.646484375,10.8251953125 36.298828125,8.8037109375 35.80078125,6.357421875 36.298828125,3.92578125 37.6611328125,1.91894578933716 39.66796875,0.556640148162842 42.099609375,0.0585932731628418 43.53515625,0.0292973518371582 44.970703125,0z" />
    </g>
  </g>
</svg>