<?xml version="1.0" encoding="utf-8"?>
<!DOCTYPE svg PUBLIC "-//W3C//DTD SVG 1.1//EN" "http://www.w3.org/Graphics/SVG/1.1/DTD/svg11.dtd">
<svg width="63.1640625000023" height="67.3828125" xmlns="http://www.w3.org/2000/svg" xmlns:xlink="http://www.w3.org/1999/xlink" xmlns:xml="http://www.w3.org/XML/1998/namespace" version="1.1">
  <g>
    <g>
      <path style="fill:#FF0000;fill-opacity:1" d="M22.5,42.12890625L19.6838359832764,42.403564453125 17.0361328125,43.2275390625 14.6337890625,44.527587890625 12.5537109375,46.23046875 10.836181640625,48.299560546875 9.521484375,50.6982421875 8.6865234375,53.345947265625 8.408203125,56.162109375 8.408203125,63.1640625 54.755859375,63.1640625 54.755859375,56.162109375 54.4775352478027,53.32763671875 53.642578125,50.68359375 52.3315391540527,48.2958984375 50.625,46.23046875 48.5559043884277,44.527587890625 46.1572265625,43.2275390625 43.5021934509277,42.403564453125 40.6640625,42.12890625 35.9765625,42.12890625 37.3388671875,42.7880859375 37.91015625,44.208984375 37.8369140625,44.677734375 37.646484375,45.146484375 33.427734375,53.583984375 32.666015625,54.43359375 31.58203125,54.755859375 30.4833984375,54.43359375 29.70703125,53.583984375 25.517578125,45.146484375 25.3271484375,44.677734375 25.25390625,44.208984375 25.810546875,42.7880859375 27.1875,42.12890625 22.5,42.12890625z M27.36328125,31.58203125L35.80078125,31.58203125 35.4638671875,33.2373046875 34.5556640625,34.5849609375 33.22265625,35.478515625 31.58203125,35.80078125 29.94140625,35.4638671875 28.6083984375,34.5556640625 27.7001953125,33.22265625 27.36328125,31.58203125z M29.47265625,27.36328125L33.69140625,27.36328125 33.076171875,28.857421875 31.58203125,29.47265625 30.087890625,28.857421875 29.47265625,27.36328125z M37.91015625,21.064453125L39.3896484375,21.6943359375 40.01953125,23.173828125 40.01953125,25.283203125 39.3896484375,26.748046875 37.91015625,27.36328125 36.4306640625,26.748046875 35.80078125,25.283203125 35.80078125,23.173828125 36.416015625,21.6796875 37.91015625,21.064453125z M25.25390625,21.064453125L26.748046875,21.6796875 27.36328125,23.173828125 27.36328125,25.283203125 26.7333984375,26.748046875 25.25390625,27.36328125 23.7890625,26.748046875 23.173828125,25.283203125 23.173828125,23.173828125 23.7890625,21.6943359375 25.25390625,21.064453125z M33.69140625,14.736328125L33.69140625,18.955078125 31.1865234375,18.7646484375 28.8134765625,18.0908203125 26.7626953125,16.81640625 25.224609375,14.794921875 23.9501953125,17.28515625 22.0166015625,19.2626953125 19.599609375,20.5810546875 16.845703125,21.064453125 16.845703125,25.224609375 17.1350078582764,28.1835956573486 18.0029296875,30.966796875 19.3688945770264,33.489990234375 21.15234375,35.6689453125 23.3203105926514,37.467041015625 25.83984375,38.84765625 28.623046875,39.7265625 31.58203125,40.01953125 34.537353515625,39.7265625 37.3095703125,38.84765625 39.82177734375,37.467041015625 41.9970703125,35.6689453125 43.7915000915527,33.489990234375 45.1611328125,30.966796875 46.0290489196777,28.1835956573486 46.318359375,25.224609375 46.318359375,21.064453125 42.6123046875,20.7421875 39.0087890625,19.6728515625 35.9033203125,17.724609375 33.69140625,14.736328125z M20.537109375,6.298828125L17.4792461395264,6.54785442352295 14.8095703125,7.294921875 10.517578125,9.990234375 7.4853515625,13.9892578125 5.5517578125,18.8818359375 4.5263671875,24.2578125 4.21875,29.70703125 4.21875,52.646484375 4.775390625,54.7705078125 6.328125,56.337890625 6.72729396820068,52.6025390625 7.9248046875,49.130859375 9.891357421875,46.03271484375 12.59765625,43.41796875 12.59765625,23.173828125 12.92724609375,19.60693359375 13.916015625,16.23046875 15.52734375,13.10302734375 17.724609375,10.283203125 20.859375,11.9677734375 24.3603515625,13.095703125 27.9931640625,13.7255859375 31.552734375,13.916015625 35.1416015625,13.7255859375 38.9208984375,13.154296875 42.6123046875,12.1875 45.908203125,10.810546875 47.9150352478027,13.538818359375 49.365234375,16.5673828125 50.2441368103027,19.808349609375 50.537109375,23.173828125 50.537109375,43.388671875 53.2507286071777,46.00341796875 55.2392578125,49.1015625 56.458740234375,52.58056640625 56.865234375,56.337890625 58.388671875,54.7705078125 58.9453125,52.646484375 58.9453125,29.70703125 58.6376953125,24.2724609375 57.59765625,18.9111328125 55.6640625,14.033203125 52.6611328125,10.0341796875 48.3837890625,7.32421875 45.7214317321777,6.57715129852295 42.685546875,6.328125 41.6015625,6.35742139816284 40.517578125,6.47460889816284 42.158203125,7.5 43.7109375,8.671875 40.8837890625,9.6826171875 37.7490234375,10.400390625 34.5556640625,10.8251953125 31.552734375,10.95703125 28.6083984375,10.7958984375 25.60546875,10.3125 22.6904296875,9.462890625 20.0390625,8.173828125 22.6171875,6.4453125 21.5771484375,6.34277391433716 20.537109375,6.298828125z M31.58203125,0L36.5625,0.541992425918579 41.30859375,2.138671875 41.982421875,2.1240234375 42.65625,2.10937476158142 46.7724609375,2.54882836341858 50.712890625,3.83789014816284 55.107421875,6.6650390625 58.388671875,10.3564453125 60.6884765625,14.736328125 62.16796875,19.5703125 62.9443359375,24.6240234375 63.1640625,29.70703125 63.1640625,52.646484375 62.8857421875,54.873046875 62.0654296875,56.923828125 60.732421875,58.681640625 58.9453125,60.029296875 58.9453125,67.3828125 4.21875,67.3828125 4.21875,60.029296875 2.4462890625,58.681640625 1.1279296875,56.923828125 0.29296875,54.8583984375 0,52.646484375 0,29.70703125 0.219726085662842,24.6240234375 0.99609375,19.5703125 2.4755859375,14.736328125 4.775390625,10.3564453125 8.0419921875,6.6650390625 12.451171875,3.83789014816284 16.3916015625,2.54882836341858 20.5078125,2.10937476158142 21.1669921875,2.1240234375 21.826171875,2.138671875 26.572265625,0.527343988418579 31.58203125,0z" />
    </g>
  </g>
</svg>