<?xml version="1.0" encoding="utf-8"?>
<!DOCTYPE svg PUBLIC "-//W3C//DTD SVG 1.1//EN" "http://www.w3.org/Graphics/SVG/1.1/DTD/svg11.dtd">
<svg width="67.3828125000014" height="67.353515625" xmlns="http://www.w3.org/2000/svg" xmlns:xlink="http://www.w3.org/1999/xlink" xmlns:xml="http://www.w3.org/XML/1998/namespace" version="1.1">
  <g>
    <g>
      <path style="fill:#FF0000;fill-opacity:1" d="M33.69140625,53.26171875L36.240234375,55.48828125 39.404296875,56.66015625 36.767578125,58.3447265625 33.69140625,58.9453125 30.615234375,58.359375 27.978515625,56.66015625 31.1279296875,55.4736328125 33.69140625,53.26171875z M25.283203125,42.12890625L42.099609375,42.12890625 35.654296875,49.6875 34.775390625,50.3173828125 33.69140625,50.537109375 32.5927734375,50.3173828125 31.69921875,49.6875 25.283203125,42.12890625z M52.646484375,39.990234375L54.19921875,46.259765625 56.07421875,43.212890625 57.48046875,39.990234375 52.646484375,39.990234375z M9.873046875,39.990234375L11.279296875,43.212890625 13.154296875,46.259765625 14.736328125,39.990234375 9.873046875,39.990234375z M47.373046875,23.14453125L48.603515625,23.3935546875 49.6142578125,24.0673828125 50.2880859375,25.078125 50.537109375,26.30859375 50.537109375,30.52734375 50.2880859375,31.7724609375 49.599609375,32.75390625 48.5888671875,33.4130859375 47.373046875,33.662109375 46.1572265625,33.4130859375 45.146484375,32.75390625 44.4580078125,31.7724609375 44.208984375,30.52734375 44.208984375,26.30859375 44.4580078125,25.078125 45.1318359375,24.0673828125 46.1279296875,23.3935546875 47.373046875,23.14453125z M20.009765625,23.14453125L21.240234375,23.3935546875 22.236328125,24.08203125 22.8955078125,25.0927734375 23.14453125,26.30859375 23.14453125,30.52734375 22.8955078125,31.7431640625 22.2216796875,32.7392578125 21.2255859375,33.4130859375 20.009765625,33.662109375 18.7939453125,33.4130859375 17.783203125,32.75390625 17.0947265625,31.7724609375 16.845703125,30.52734375 16.845703125,26.30859375 17.0947265625,25.078125 17.7685546875,24.0673828125 18.7646484375,23.3935546875 20.009765625,23.14453125z M16.845703125,18.92578125L15.205078125,19.2626953125 13.8720703125,20.1708984375 12.9638671875,21.50390625 12.626953125,23.14453125 12.626953125,31.58203125 12.919921875,33.134765625 13.76953125,34.453125 19.8046875,40.48828125 17.6220703125,43.6376953125 17.0397930145264,45.472412109375 16.845703125,47.373046875 17.2998046875,50.2587890625 18.5888671875,52.8076171875 20.5810546875,54.8583984375 23.14453125,56.25 23.14453125,56.8359375 23.642578125,59.296875 25.0048828125,61.3037109375 27.01171875,62.666015625 29.47265625,63.1640625 37.91015625,63.1640625 40.37109375,62.666015625 42.36328125,61.3037109375 43.7109375,59.296875 44.208984375,56.8359375 44.208984375,56.25 46.7724609375,54.8583984375 48.7646484375,52.79296875 50.068359375,50.244140625 50.537109375,47.373046875 50.3393516540527,45.472412109375 49.74609375,43.6376953125 47.548828125,40.48828125 53.583984375,34.453125 54.4482421875,33.134765625 54.755859375,31.58203125 54.755859375,23.14453125 54.4189453125,21.50390625 53.5107421875,20.1708984375 52.177734375,19.2626953125 50.537109375,18.92578125 42.099609375,18.92578125 42.099609375,40.01953125 25.25390625,40.01953125 25.25390625,18.92578125 16.845703125,18.92578125z M54.755859375,8.408203125L52.79296875,8.8916015625 51.2109375,10.1953125 55.283203125,18.046875 57.71484375,15.5859375 58.6376953125,14.23095703125 58.9453125,12.626953125 58.623046875,10.986328125 57.7294921875,9.6533203125 56.396484375,8.7451171875 54.755859375,8.408203125z M12.626953125,8.408203125L10.986328125,8.7451171875 9.6533203125,9.6533203125 8.7451171875,10.986328125 8.408203125,12.626953125 8.7158203125,14.23095703125 9.638671875,15.5859375 12.099609375,18.046875 16.171875,10.1953125 14.6044921875,8.90625 12.626953125,8.408203125z M27.36328125,6.298828125L31.58203125,10.517578125 23.14453125,10.517578125 33.69140625,21.03515625 44.208984375,10.517578125 35.80078125,10.517578125 39.990234375,6.298828125 27.36328125,6.298828125z M12.568359375,0L16.201171875,0.527343988418579 19.541015625,2.08007764816284 47.8125,2.08007764816284 51.1669921875,0.527343988418579 54.78515625,0 57.315673828125,0.249026298522949 59.6923828125,0.99609375 63.7060546875,3.70605421066284 66.4013671875,7.71972608566284 67.137451171875,10.096435546875 67.3828125,12.626953125 67.001953125,15.87890625 65.9033203125,18.5595703125 64.189453125,20.9326171875 61.962890625,23.26171875 62.86376953125,27.4145526885986 63.1640625,31.611328125 62.611083984375,37.489013671875 60.9521484375,42.8759765625 58.238525390625,47.830810546875 54.521484375,52.412109375 53.203125,53.642578125 51.064453125,56.6748046875 48.193359375,59.00390625 46.8603515625,62.34375 44.53125,64.98046875 41.455078125,66.7236328125 37.91015625,67.353515625 29.47265625,67.353515625 25.8984375,66.73828125 22.8369140625,65.009765625 20.5078125,62.3583984375 19.16015625,59.00390625 16.2890625,56.66015625 14.150390625,53.642578125 9.9169921875,49.0576171875 6.7822265625,43.681640625 4.8486328125,37.763671875 4.189453125,31.552734375 4.48974609375,27.3852558135986 5.390625,23.26171875 3.1640625,20.9326171875 1.46484375,18.5595703125 0.380859375,15.87890625 0,12.626953125 0.245360970497131,10.096435546875 0.9814453125,7.71972608566284 3.662109375,3.70605421066284 7.6611328125,0.99609375 10.037841796875,0.249026298522949 12.568359375,0z" />
    </g>
  </g>
</svg>