<?xml version="1.0" encoding="utf-8"?>
<!DOCTYPE svg PUBLIC "-//W3C//DTD SVG 1.1//EN" "http://www.w3.org/Graphics/SVG/1.1/DTD/svg11.dtd">
<svg width="50.91796875" height="38.818359375" xmlns="http://www.w3.org/2000/svg" xmlns:xlink="http://www.w3.org/1999/xlink" xmlns:xml="http://www.w3.org/XML/1998/namespace" version="1.1">
  <g>
    <g>
      <path style="fill:#FF0000;fill-opacity:1" d="M24.0234375,28.154296875L39.580078125,28.154296875 39.580078125,29.619140625 24.0234375,29.619140625 24.0234375,28.154296875z M3.662109375,27.685546875L17.4609375,27.685546875 17.4609375,29.150390625 3.662109375,29.150390625 3.662109375,27.685546875z M24.0234375,23.525390625L39.580078125,23.525390625 39.580078125,24.990234375 24.0234375,24.990234375 24.0234375,23.525390625z M24.0234375,19.365234375L33.134765625,19.365234375 33.134765625,20.830078125 24.0234375,20.830078125 24.0234375,19.365234375z M3.662109375,19.365234375L16.58203125,19.365234375 16.58203125,20.830078125 3.662109375,20.830078125 3.662109375,19.365234375z M31.376953125,14.70703125L34.5355224609375,14.9212656021118 37.44873046875,15.5639667510986 40.1165771484375,16.6351337432861 42.5390625,18.134765625 41.689453125,18.955078125 39.3621826171875,17.51953125 36.77490234375,16.494140625 33.9276123046875,15.87890625 30.8203125,15.673828125 26.89453125,16.0986328125 23.671875,17.373046875 22.1594219207764,18.5211181640625 21.0790996551514,19.91455078125 20.4309062957764,21.5533447265625 20.21484375,23.4375 20.4721050262451,25.3390502929688 21.2438945770264,27.205810546875 22.5302104949951,29.0377807617188 24.3310546875,30.8349609375 26.4907836914063,32.3922729492188 28.853759765625,33.504638671875 31.4199829101563,34.1720581054688 34.189453125,34.39453125 37.7655029296875,33.804931640625 40.31982421875,32.0361328125 41.8524169921875,29.088134765625 42.36328125,24.9609375 42.008056640625,22.4066162109375 40.9423828125,20.45654296875 39.166259765625,19.1107177734375 36.6796875,18.369140625 37.587890625,17.431640625 40.10009765625,18.2080078125 41.89453125,19.62890625 42.97119140625,21.6943359375 43.330078125,24.404296875 42.69287109375,28.58642578125 40.78125,32.05078125 39.2999267578125,33.4991455078125 37.60986328125,34.53369140625 35.7110595703125,35.1544189453125 33.603515625,35.361328125 28.95263671875,34.658203125 24.55078125,32.548828125 22.4652080535889,30.9228515625 20.8959941864014,29.12109375 19.8431377410889,27.1435546875 19.306640625,24.990234375 3.662109375,24.990234375 3.662109375,23.525390625 19.27734375,23.525390625 19.617919921875,21.5863037109375 20.4345703125,19.84130859375 21.727294921875,18.2904052734375 23.49609375,16.93359375 27.22412109375,15.2636737823486 31.376953125,14.70703125z M24.0234375,11.953125L39.580078125,11.953125 39.580078125,13.41796875 24.0234375,13.41796875 24.0234375,11.953125z M3.662109375,11.953125L20.09765625,11.953125 20.09765625,13.41796875 3.662109375,13.41796875 3.662109375,11.953125z M24.0234375,7.79296875L39.580078125,7.79296875 39.580078125,9.2578125 24.0234375,9.2578125 24.0234375,7.79296875z M3.662109375,7.79296875L20.09765625,7.79296875 20.09765625,9.2578125 3.662109375,9.2578125 3.662109375,7.79296875z M24.0234375,3.6328125L30.205078125,3.6328125 30.205078125,5.09765625 24.0234375,5.09765625 24.0234375,3.6328125z M3.662109375,3.6328125L10.72265625,3.6328125 10.72265625,5.09765625 3.662109375,5.09765625 3.662109375,3.6328125z M0.87890625,0.87890625L0.87890625,30.05859375 0.963134765625,32.29248046875 1.2158203125,34.1015625 1.636962890625,35.48583984375 2.2265625,36.4453125 3.09997534751892,37.0989990234375 4.37255859375,37.56591796875 6.0443115234375,37.8460693359375 8.115234375,37.939453125 45.615234375,37.939453125 45.615234375,0.87890625 0.87890625,0.87890625z M0,0L46.494140625,0 46.494140625,3.779296875 50.91796875,3.779296875 50.91796875,29.82421875 50.5590782165527,33.5595703125 49.482421875,36.50390625 48.0908164978027,38.23974609375 46.494140625,38.818359375 8.115234375,38.818359375 5.86212158203125,38.7075805664063 4.024658203125,38.375244140625 2.60284399986267,37.8213500976563 1.5966796875,37.0458984375 0.89813232421875,35.9445190429688 0.399169921875,34.412841796875 0.09979248046875,32.4508666992188 0,30.05859375 0,0z" />
    </g>
  </g>
</svg>