<?xml version="1.0" encoding="utf-8"?>
<!DOCTYPE svg PUBLIC "-//W3C//DTD SVG 1.1//EN" "http://www.w3.org/Graphics/SVG/1.1/DTD/svg11.dtd">
<svg width="46.259765625" height="43.359375" xmlns="http://www.w3.org/2000/svg" xmlns:xlink="http://www.w3.org/1999/xlink" xmlns:xml="http://www.w3.org/XML/1998/namespace" version="1.1">
  <g>
    <g>
      <path style="fill:#FF0000;fill-opacity:1" d="M28.388671875,34.365234375L28.388671875,35.7421875 31.962890625,35.7421875 31.962890625,34.365234375 28.388671875,34.365234375z M21.181640625,34.365234375L21.181640625,35.7421875 24.7265625,35.7421875 24.7265625,34.365234375 21.181640625,34.365234375z M13.9453125,34.365234375L13.9453125,35.7421875 17.490234375,35.7421875 17.490234375,34.365234375 13.9453125,34.365234375z M6.6796875,32.87109375L10.283203125,32.87109375 10.283203125,34.306640625 13.9453125,34.306640625 13.9453125,32.87109375 17.490234375,32.87109375 17.490234375,34.306640625 21.181640625,34.306640625 21.181640625,32.87109375 24.7265625,32.87109375 24.7265625,34.306640625 28.388671875,34.306640625 28.388671875,32.87109375 31.962890625,32.87109375 31.962890625,34.306640625 35.625,34.306640625 35.625,32.87109375 39.228515625,32.87109375 39.228515625,34.306640625 35.654296875,34.306640625 35.654296875,35.80078125 39.228515625,35.80078125 39.228515625,37.20703125 35.625,37.20703125 35.625,35.80078125 31.962890625,35.80078125 31.962890625,37.20703125 28.388671875,37.20703125 28.388671875,35.80078125 24.7265625,35.80078125 24.7265625,37.20703125 21.181640625,37.20703125 21.181640625,35.80078125 17.490234375,35.80078125 17.490234375,37.20703125 13.9453125,37.20703125 13.9453125,35.80078125 10.283203125,35.80078125 10.283203125,37.20703125 6.6796875,37.20703125 6.6796875,35.80078125 10.25390625,35.80078125 10.25390625,34.306640625 6.6796875,34.306640625 6.6796875,32.87109375z M4.453125,31.083984375L2.607421875,35.0390625 1.72851526737213,37.31689453125 1.435546875,39.111328125 1.435546875,41.923828125 44.82421875,41.923828125 44.82421875,40.83984375 44.4873008728027,37.91015625 43.4765625,34.98046875 41.689453125,31.083984375 4.453125,31.083984375z M3.603515625,29.619140625L42.65625,29.619140625 44.736328125,33.955078125 45.8789024353027,37.03857421875 46.259765625,40.01953125 46.259765625,43.359375 0,43.359375 0,40.01953125 0.380859375,37.05322265625 1.5234375,33.955078125 3.603515625,29.619140625z M11.015625,4.3359375L9.34936428070068,4.456787109375 8.4521484375,4.8193359375 8.06762599945068,5.694580078125 7.939453125,7.353515625 7.939453125,20.830078125 8.06762599945068,22.470703125 8.4521484375,23.349609375 9.34936428070068,23.72314453125 11.015625,23.84765625 35.15625,23.84765625 36.8701171875,23.726806640625 37.79296875,23.3642578125 38.1884765625,22.510986328125 38.3203125,20.91796875 38.3203125,7.294921875 38.184814453125,5.6982421875 37.7783203125,4.833984375 36.851806640625,4.46044921875 35.15625,4.3359375 11.015625,4.3359375z M11.015625,2.87109375L35.244140625,2.87109375 37.71240234375,3.05419921875 39.0234375,3.603515625 39.57275390625,4.89990234375 39.755859375,7.32421875 39.755859375,20.859375 39.569091796875,23.26171875 39.0087890625,24.55078125 37.694091796875,25.10009765625 35.244140625,25.283203125 11.015625,25.283203125 8.56567287445068,25.10009765625 7.2509765625,24.55078125 6.690673828125,23.26171875 6.50390625,20.859375 6.50390625,7.32421875 6.68701171875,4.89990234375 7.236328125,3.603515625 8.54736232757568,3.05419921875 11.015625,2.87109375z M5.068359375,1.435546875L5.068359375,26.71875 41.19140625,26.71875 41.19140625,1.435546875 5.068359375,1.435546875z M3.603515625,0L42.65625,0 42.65625,28.18359375 3.603515625,28.18359375 3.603515625,0z" />
    </g>
  </g>
</svg>