<?xml version="1.0" encoding="utf-8"?>
<!DOCTYPE svg PUBLIC "-//W3C//DTD SVG 1.1//EN" "http://www.w3.org/Graphics/SVG/1.1/DTD/svg11.dtd">
<svg width="58.9453125000015" height="58.9453125" xmlns="http://www.w3.org/2000/svg" xmlns:xlink="http://www.w3.org/1999/xlink" xmlns:xml="http://www.w3.org/XML/1998/namespace" version="1.1">
  <g>
    <g>
      <path style="fill:#FF0000;fill-opacity:1" d="M31.58203125,12.626953125L35.80078125,12.626953125 32.4169921875,12.95654296875 29.23828125,13.9453125 26.35986328125,15.50537109375 23.876953125,17.548828125 21.8334941864014,20.0317401885986 20.2734375,22.91015625 19.2846660614014,26.0888690948486 18.955078125,29.47265625 19.2040996551514,32.003173828125 19.951171875,34.3798828125 22.6611328125,38.3935546875 26.6748046875,41.103515625 29.051513671875,41.8505859375 31.58203125,42.099609375 34.8779296875,41.4404296875 37.55859375,39.638671875 39.3603515625,36.97265625 40.01953125,33.69140625 39.3603515625,30.3955078125 37.55859375,27.71484375 34.8779296875,25.9130859375 31.58203125,25.25390625 29.94140625,25.5908203125 28.6083984375,26.4990234375 27.7001953125,27.83203125 27.36328125,29.47265625 27.9931640625,32.6806640625 29.70703125,35.33203125 32.2705078125,37.1630859375 35.44921875,37.91015625 31.58203125,37.91015625 28.30078125,37.2509765625 25.634765625,35.44921875 23.8330078125,32.7685546875 23.173828125,29.47265625 23.8330078125,26.19140625 25.634765625,23.525390625 28.30078125,21.7236328125 31.58203125,21.064453125 34.112548828125,21.3134784698486 36.4892578125,22.060546875 40.5029296875,24.7705078125 43.212890625,28.7841796875 43.9599571228027,31.160888671875 44.208984375,33.69140625 43.9599571228027,36.221923828125 43.212890625,38.5986328125 40.5029296875,42.6123046875 36.4892578125,45.322265625 34.112548828125,46.0693359375 31.58203125,46.318359375 28.1982421875,45.98876953125 25.01953125,45 22.1411113739014,43.43994140625 19.658203125,41.396484375 17.6147441864014,38.91357421875 16.0546875,36.03515625 15.06591796875,32.8564453125 14.736328125,29.47265625 15.06591796875,26.0888690948486 16.0546875,22.91015625 17.6147441864014,20.0317401885986 19.658203125,17.548828125 22.1411113739014,15.50537109375 25.01953125,13.9453125 28.1982421875,12.95654296875 31.58203125,12.626953125z M25.1953125,4.189453125L23.8623046875,4.45312547683716 22.8955078125,5.11230421066284 22.1044921875,5.96191358566284 21.3134765625,6.8115234375 20.3466796875,7.470703125 19.013671875,7.734375 18.10546875,7.6171875 17.197265625,7.5 15.831298828125,7.716064453125 14.8388671875,8.3642578125 13.65234375,10.60546875 13.2275390625,11.8505859375 12.6708984375,12.6708984375 11.8359375,13.2275390625 10.60546875,13.65234375 9.3310546875,14.1357421875 8.349609375,14.8388671875 7.7197265625,15.8349609375 7.5,17.197265625 7.6171875,18.0908203125 7.734375,18.984375 7.470703125,20.361328125 6.8115234375,21.328125 5.9619140625,22.0751953125 5.1123046875,22.822265625 4.453125,23.7744140625 4.189453125,25.166015625 4.423828125,26.279296875 4.921875,27.3193359375 5.419921875,28.359375 5.654296875,29.47265625 5.419921875,30.5859375 4.921875,31.6259765625 4.423828125,32.666015625 4.189453125,33.779296875 4.453125,35.1416015625 5.1123046875,36.1083984375 5.9619140625,36.8701171875 6.8115234375,37.6318359375 7.470703125,38.5986328125 7.734375,39.9609375 7.6171875,40.8544921875 7.5,41.748046875 7.7197265625,43.1396484375 8.349609375,44.12109375 9.3310546875,44.8095703125 10.60546875,45.29296875 11.8212890625,45.76171875 12.6416015625,46.3330078125 13.1982421875,47.1533203125 13.65234375,48.369140625 14.150390625,49.6142578125 14.8681640625,50.595703125 15.8642578125,51.2255859375 17.197265625,51.4453125 18.10546875,51.328125 19.013671875,51.2109375 20.3466796875,51.474609375 21.3134765625,52.1337890625 22.1044921875,52.9833984375 22.8955078125,53.8330078125 23.8623046875,54.4921875 25.1953125,54.755859375 26.30859375,54.521484375 27.333984375,54.0234375 28.359375,53.525390625 29.47265625,53.291015625 30.5859375,53.525390625 31.6259765625,54.0234375 32.666015625,54.521484375 33.779296875,54.755859375 35.15625,54.4921875 36.123046875,53.8330078125 36.8701171875,52.9833984375 37.6171875,52.1337890625 38.583984375,51.474609375 39.9609375,51.2109375 40.869140625,51.328125 41.77734375,51.4453125 43.1213340759277,51.229248046875 44.1064453125,50.5810546875 45.322265625,48.369140625 45.76171875,47.138671875 46.318359375,46.318359375 47.1240234375,45.76171875 48.369140625,45.29296875 50.5810546875,44.091796875 51.2292442321777,43.1103515625 51.4453125,41.748046875 51.328125,40.8544921875 51.2109375,39.9609375 51.474609375,38.61328125 52.1337890625,37.646484375 52.9833984375,36.8701171875 53.8330078125,36.09375 54.4921875,35.126953125 54.755859375,33.779296875 54.521484375,32.666015625 54.0234375,31.6259765625 53.525390625,30.5859375 53.291015625,29.47265625 53.525390625,28.359375 54.0234375,27.3193359375 54.521484375,26.279296875 54.755859375,25.166015625 54.4921875,23.818359375 53.8330078125,22.8515625 52.9833984375,22.0751953125 52.1337890625,21.298828125 51.474609375,20.33203125 51.2109375,18.984375 51.328125,18.0908203125 51.4453125,17.197265625 51.2292442321777,15.8349609375 50.5810546875,14.853515625 48.369140625,13.65234375 47.1826171875,13.212890625 46.3623046875,12.6416015625 45.7763671875,11.8212890625 45.322265625,10.60546875 44.12109375,8.37890625 43.1396446228027,7.7197265625 41.77734375,7.5 40.869140625,7.6171875 39.9609375,7.734375 38.583984375,7.470703125 37.6171875,6.8115234375 36.8701171875,5.96191358566284 36.123046875,5.11230421066284 35.15625,4.45312547683716 33.779296875,4.189453125 32.666015625,4.423828125 31.6259765625,4.92187452316284 30.5859375,5.41992235183716 29.47265625,5.654296875 28.359375,5.41992235183716 27.333984375,4.92187452316284 26.30859375,4.423828125 25.1953125,4.189453125z M25.166015625,0L27.4072265625,0.336914539337158 29.47265625,1.28906202316284 31.5380859375,0.336914539337158 33.779296875,0 35.66162109375,0.230715796351433 37.44140625,0.922851920127869 40.25390625,3.45703125 41.77734375,3.28124976158142 44.4140625,3.75 46.69921875,5.0537109375 48.427734375,7.04589891433716 49.39453125,9.55078125 51.8994140625,10.5322265625 53.8916015625,12.275390625 55.1953125,14.5751953125 55.6640625,17.2265625 55.6201171875,17.9736328125 55.517578125,18.69140625 58.0517578125,21.5185546875 58.721923828125,23.2946796417236 58.9453125,25.1953125 58.623046875,27.4365234375 57.65625,29.47265625 58.623046875,31.5087890625 58.9453125,33.75 58.721923828125,35.650634765625 58.0517578125,37.4267578125 55.517578125,40.25390625 55.6640625,41.748046875 55.1953125,44.3994140625 53.8916015625,46.69921875 51.8994140625,48.427734375 49.39453125,49.39453125 48.427734375,51.8994140625 46.69921875,53.8916015625 44.4140625,55.1953125 41.77734375,55.6640625 40.25390625,55.517578125 37.44140625,58.0224609375 35.66162109375,58.714599609375 33.779296875,58.9453125 31.5380859375,58.6083984375 29.47265625,57.65625 27.421875,58.623046875 25.166015625,58.9453125 23.2836894989014,58.714599609375 21.50390625,58.0224609375 18.69140625,55.517578125 17.197265625,55.6640625 14.5458984375,55.1953125 12.24609375,53.8916015625 10.517578125,51.9140625 9.55078125,49.39453125 7.060546875,48.427734375 5.0830078125,46.7138671875 3.779296875,44.443359375 3.310546875,41.806640625 3.33984375,41.015625 3.45703125,40.25390625 0.9228515625,37.44140625 0.230712532997131,35.66162109375 0,33.779296875 0.336914539337158,31.5380859375 1.2890625,29.47265625 0.336914539337158,27.4072265625 0,25.166015625 0.230712532997131,23.2836933135986 0.9228515625,21.50390625 3.45703125,18.69140625 3.33984375,17.9296875 3.310546875,17.138671875 3.779296875,14.501953125 5.0830078125,12.2314453125 7.060546875,10.517578125 9.55078125,9.55078125 10.517578125,7.04589891433716 12.24609375,5.0537109375 14.5458984375,3.75 17.197265625,3.28124976158142 18.69140625,3.45703125 21.50390625,0.922851920127869 23.2836894989014,0.230715796351433 25.166015625,0z" />
    </g>
  </g>
</svg>