<?xml version="1.0" encoding="utf-8"?>
<!DOCTYPE svg PUBLIC "-//W3C//DTD SVG 1.1//EN" "http://www.w3.org/Graphics/SVG/1.1/DTD/svg11.dtd">
<svg width="67.3828125" height="67.3828125" xmlns="http://www.w3.org/2000/svg" xmlns:xlink="http://www.w3.org/1999/xlink" xmlns:xml="http://www.w3.org/XML/1998/namespace" version="1.1">
  <g>
    <g>
      <path style="fill:#FF0000;fill-opacity:1" d="M27.36328125,48.427734375L40.01953125,48.427734375 35.185546875,54.140625 34.4970703125,54.609375 33.69140625,54.755859375 32.8857421875,54.609375 32.197265625,54.140625 27.36328125,48.427734375z M11.572265625,40.48828125L11.337890625,40.986328125 9.9755859375,43.6962890625 8.4375,46.318359375 16.845703125,46.318359375 18.4863262176514,46.53076171875 20.009765625,47.16796875 20.712890625,45.6591796875 21.474609375,44.150390625 18.603515625,44.00390625 16.0986328125,43.447265625 13.798828125,42.3193359375 11.572265625,40.48828125z M8.876953125,35.771484375L6.796875,39.990234375 11.1328125,39.990234375 9.78515625,37.998046875 8.876953125,35.771484375z M58.41796875,35.595703125L56.4404296875,38.935546875 53.3935546875,41.5869140625 49.7314453125,43.3740234375 45.908203125,44.12109375 47.373046875,47.16796875 48.8964805603027,46.53076171875 50.537109375,46.318359375 58.9453125,46.318359375 57.9931640625,44.94140625 57.1142578125,43.2861328125 56.2939453125,41.5576171875 55.546875,39.990234375 60.5859375,39.990234375 58.41796875,35.595703125z M33.69140625,31.58203125L32.548828125,31.9189453125 31.787109375,32.841796875 26.19140625,44.150390625 25.166015625,46.1279296875 24.19921875,48.1201171875 23.466796875,50.2001953125 23.173828125,52.412109375 23.3715801239014,54.57275390625 23.96484375,56.6015625 26.162109375,60.0146484375 29.501953125,62.314453125 31.51611328125,62.95166015625 33.69140625,63.1640625 35.797119140625,62.955322265625 37.7783203125,62.3291015625 41.1181640625,60.0732421875 43.3740234375,56.7333984375 44.0002403259277,54.752197265625 44.208984375,52.646484375 43.9306640625,50.3759765625 43.212890625,48.2373046875 42.2314453125,46.1865234375 41.19140625,44.150390625 35.654296875,32.958984375 34.86328125,31.9775390625 33.69140625,31.58203125z M45.263671875,25.283203125L46.4794921875,25.5322265625 47.490234375,26.19140625 48.1787109375,27.1875 48.427734375,28.41796875 48.427734375,32.63671875 48.1787109375,33.8525390625 47.490234375,34.86328125 46.4794921875,35.5517578125 45.263671875,35.80078125 44.0478515625,35.5517578125 43.037109375,34.86328125 42.3486328125,33.8525390625 42.099609375,32.63671875 42.099609375,28.41796875 42.3486328125,27.2021484375 43.037109375,26.2060546875 44.0478515625,25.5322265625 45.263671875,25.283203125z M22.119140625,25.283203125L23.3349609375,25.5322265625 24.3310546875,26.2060546875 25.0048828125,27.2021484375 25.25390625,28.41796875 25.25390625,32.63671875 25.0048828125,33.8525390625 24.3310546875,34.86328125 23.3349609375,35.5517578125 22.119140625,35.80078125 20.9033203125,35.5517578125 19.892578125,34.86328125 19.2041015625,33.8525390625 18.955078125,32.63671875 18.955078125,28.41796875 19.2041015625,27.1875 19.892578125,26.19140625 20.9033203125,25.5322265625 22.119140625,25.283203125z M14.736328125,4.21874952316284L13.721923828125,4.42016887664795 13.0810546875,5.0244140625 12.626953125,6.884765625 21.9140625,15.263671875 22.294921875,15.8349609375 22.412109375,16.494140625 22.1484375,17.431640625 21.474609375,18.10546875 12.626953125,23.173828125 12.626953125,32.548828125 13.212890625,35.4052734375 14.8095703125,37.7490234375 17.1533203125,39.345703125 20.009765625,39.931640625 23.5546875,39.931640625 27.978515625,30.99609375 30.322265625,28.3447265625 31.91162109375,27.6086444854736 33.69140625,27.36328125 35.57373046875,27.6232929229736 37.177734375,28.4033203125 39.4921875,31.201171875 43.798828125,39.931640625 45.263671875,39.931640625 48.3251953125,39.375 51.416015625,37.822265625 53.8037109375,35.478515625 54.5178184509277,34.072265625 54.755859375,32.548828125 54.755859375,23.173828125 45.87890625,18.10546875 45.2197265625,17.431640625 44.970703125,16.494140625 45.087890625,15.8349609375 45.46875,15.263671875 54.7265625,6.884765625 54.609375,5.9033203125 54.2578125,5.0537109375 53.61328125,4.45312547683716 52.646484375,4.21874952316284 51.884765625,4.35058546066284 51.240234375,4.775390625 49.0576171875,6.6943359375 46.93359375,8.671875 37.880859375,16.845703125 29.443359375,16.845703125 24.931640625,12.7880859375 20.44921875,8.701171875 18.3544921875,6.70898485183716 16.171875,4.8046875 15.5126953125,4.3798828125 14.736328125,4.21874952316284z M14.736328125,0L17.0214824676514,0.417483359575272 19.013671875,1.66992211341858 31.0546875,12.626953125 36.240234375,12.626953125 48.3984375,1.640625 50.3686485290527,0.410159111022949 52.646484375,0 55.107421875,0.498046875 57.099609375,1.86035132408142 58.447265625,3.86718726158142 58.9453125,6.328125 58.9453125,27.1875 67.3828125,44.208984375 62.607421875,44.208984375 66.005859375,50.537109375 50.537109375,50.537109375 49.0869140625,51.0791015625 48.427734375,52.5 48.427734375,52.646484375 48.1420860290527,55.5908203125 47.28515625,58.388671875 45.0146484375,62.109375 41.8505859375,64.951171875 37.998046875,66.7529296875 33.69140625,67.3828125 29.3701171875,66.7529296875 25.5322265625,64.951171875 22.3681640625,62.1240234375 20.09765625,58.388671875 19.2407207489014,55.5908203125 18.955078125,52.646484375 18.955078125,52.5 18.2958984375,51.0791015625 16.845703125,50.537109375 1.376953125,50.537109375 4.775390625,44.208984375 0,44.208984375 8.408203125,27.1875 8.408203125,6.328125 8.90625,3.86718726158142 10.2685546875,1.86035132408142 12.275390625,0.498046875 14.736328125,0z" />
    </g>
  </g>
</svg>