<?xml version="1.0" encoding="utf-8"?>
<!DOCTYPE svg PUBLIC "-//W3C//DTD SVG 1.1//EN" "http://www.w3.org/Graphics/SVG/1.1/DTD/svg11.dtd">
<svg width="58.9453125" height="67.001953125" xmlns="http://www.w3.org/2000/svg" xmlns:xlink="http://www.w3.org/1999/xlink" xmlns:xml="http://www.w3.org/XML/1998/namespace" version="1.1">
  <g>
    <g>
      <path style="fill:#FF0000;fill-opacity:1" d="M33.662109375,43.828125L42.12890625,43.828125 42.12890625,45.966796875 33.92578125,45.966796875 42.12890625,48.017578125 42.12890625,52.294921875 33.662109375,52.294921875 33.662109375,50.126953125 41.865234375,50.126953125 33.662109375,48.046875 33.662109375,43.828125z M16.81640625,43.828125L25.283203125,43.828125 25.283203125,48.046875 17.080078125,50.126953125 25.283203125,50.126953125 25.283203125,56.484375 17.080078125,58.564453125 25.283203125,58.564453125 25.283203125,60.703125 16.81640625,60.703125 16.81640625,56.455078125 25.01953125,54.404296875 16.81640625,54.404296875 16.81640625,48.017578125 25.01953125,45.966796875 16.81640625,45.966796875 16.81640625,43.828125z M33.662109375,26.982421875L42.12890625,26.982421875 42.12890625,31.201171875 33.92578125,33.251953125 42.12890625,33.251953125 42.12890625,35.44921875 33.662109375,35.44921875 33.662109375,31.171875 41.865234375,29.150390625 33.662109375,29.150390625 33.662109375,26.982421875z M16.81640625,26.982421875L25.283203125,26.982421875 25.283203125,31.201171875 17.080078125,33.251953125 25.283203125,33.251953125 25.283203125,35.44921875 16.81640625,35.44921875 16.81640625,31.171875 25.01953125,29.150390625 16.81640625,29.150390625 16.81640625,26.982421875z M29.47265625,13.125L9.31640625,33.28125 8.408203125,33.28125 8.408203125,58.59375 10.517578125,60.673828125 12.626953125,58.59375 14.736328125,60.673828125 14.736328125,62.783203125 27.36328125,62.783203125 27.36328125,60.673828125 29.47265625,58.59375 31.58203125,60.673828125 33.69140625,58.59375 35.80078125,60.673828125 37.880859375,58.59375 39.990234375,60.673828125 42.099609375,58.59375 44.208984375,60.673828125 46.318359375,58.59375 48.427734375,60.673828125 50.537109375,58.59375 50.537109375,33.28125 49.658203125,33.28125 29.47265625,13.125z M29.47265625,5.947265625L21.064453125,14.3847665786743 21.064453125,18.57421875 16.845703125,18.57421875 10.517578125,24.90234375 10.517578125,27.01171875 8.408203125,27.01171875 4.21875,31.201171875 8.408203125,31.201171875 21.064453125,18.57421875 29.47265625,10.13671875 50.537109375,31.201171875 54.7265625,31.201171875 46.34765625,22.79296875 44.208984375,22.79296875 44.208984375,20.654296875 29.47265625,5.947265625z M29.47265625,0L58.9453125,29.47265625 58.9453125,35.419921875 54.7265625,35.419921875 54.7265625,54.375 58.9453125,54.375 58.9453125,67.001953125 0,67.001953125 0,54.375 4.21875,54.375 4.21875,35.419921875 0,35.419921875 0,29.47265625 15.087890625,14.3847665786743 16.845703125,14.3847665786743 16.845703125,12.626953125 29.47265625,0z" />
    </g>
  </g>
</svg>