<?xml version="1.0" encoding="utf-8"?>
<!DOCTYPE svg PUBLIC "-//W3C//DTD SVG 1.1//EN" "http://www.w3.org/Graphics/SVG/1.1/DTD/svg11.dtd">
<svg width="65.2734375000013" height="65.2734375" xmlns="http://www.w3.org/2000/svg" xmlns:xlink="http://www.w3.org/1999/xlink" xmlns:xml="http://www.w3.org/XML/1998/namespace" version="1.1">
  <g>
    <g>
      <path style="fill:#FF0000;fill-opacity:1" d="M49.453125,40.01953125L49.072265625,40.13671875 48.720703125,40.3125 48.515625,40.6640625 48.427734375,41.07421875 49.013671875,42.01171875 59.53125,47.255859375 60,47.373046875 60.732421875,47.0654296875 61.0546875,46.34765625 60.908203125,45.7763671875 60.46875,45.380859375 49.951171875,40.107421875 49.892578125,40.107421875 49.453125,40.01953125z M15.76171875,40.01953125L14.8388671875,40.37109375 12.919921875,41.2646484375 10.4736328125,42.451171875 7.998046875,43.6962890625 5.947265625,44.765625 4.8046875,45.380859375 4.365234375,45.7763671875 4.21875,46.34765625 4.541015625,47.0654296875 5.27343845367432,47.373046875 6.1669921875,47.021484375 8.0712890625,46.1279296875 10.517578125,44.94140625 13.0224609375,43.6962890625 15.087890625,42.6416015625 16.259765625,42.01171875 16.69921875,41.630859375 16.845703125,41.07421875 16.69921875,40.546875 16.552734375,40.37109375 16.2890625,40.2099609375 15.99609375,40.078125 15.76171875,40.01953125z M51.591796875,12.626953125L50.830078125,12.94921875 42.421875,21.357421875 42.099609375,22.119140625 42.421875,22.8515625 43.154296875,23.173828125 43.916015625,22.8515625 52.32421875,14.443359375 52.6171875,13.7109375 52.32421875,12.9638671875 51.591796875,12.626953125z M13.681640625,12.626953125L12.9345703125,12.9638671875 12.626953125,13.7109375 12.94921875,14.443359375 21.357421875,22.8515625 22.119140625,23.173828125 22.8369140625,22.8515625 23.14453125,22.119140625 22.8515625,21.357421875 14.443359375,12.94921875 13.681640625,12.626953125z M32.63671875,8.759765625L26.923828125,25.927734375 26.1328125,26.982421875 24.90234375,27.36328125 8.466796875,27.36328125 21.650390625,37.20703125 22.2875957489014,37.93212890625 22.5,38.876953125 22.3828125,39.55078125 16.40625,57.48046875 31.376953125,46.318359375 32.63671875,45.908203125 33.896484375,46.318359375 48.8671875,57.48046875 42.890625,39.55078125 42.7734375,38.90625 43.0078125,37.96875 43.65234375,37.20703125 56.806640625,27.36328125 40.37109375,27.36328125 39.140625,26.982421875 38.349609375,25.927734375 32.63671875,8.759765625z M32.63671875,0L33.8525390625,0.3955078125 34.62890625,1.435546875 40.078125,17.75390625 47.87109375,9.9609375 49.5849609375,8.818359375 51.591796875,8.4375 53.642578125,8.84765625 55.3271484375,9.9609375 56.455078125,11.630859375 56.865234375,13.681640625 56.4697265625,15.703125 55.3125,17.40234375 49.5703125,23.173828125 63.1640625,23.173828125 64.658203125,23.7890625 65.2734375,25.283203125 65.06103515625,26.2280292510986 64.423828125,26.953125 51.826171875,36.357421875 62.373046875,41.630859375 64.482421875,43.5791015625 65.07568359375,44.908447265625 65.2734375,46.34765625 64.86328125,48.3837890625 63.7353515625,50.0537109375 62.05078125,51.181640625 60,51.591796875 57.65625,51.03515625 49.86328125,47.138671875 50.3173828125,48.4716796875 51.0205078125,50.478515625 51.8701171875,52.9248046875 52.7783203125,55.5615234375 53.6572265625,58.154296875 54.404296875,60.439453125 54.9169921875,62.1826171875 55.107421875,63.1640625 54.4921875,64.658203125 52.998046875,65.2734375 51.73828125,64.86328125 32.63671875,50.625 13.53515625,64.86328125 12.275390625,65.2734375 10.78125,64.658203125 10.166015625,63.1640625 10.250244140625,62.633056640625 10.5029296875,61.6845703125 11.3525390625,58.9599609375 12.4951171875,55.576171875 13.6962890625,52.08984375 14.736328125,49.0869140625 15.41015625,47.138671875 7.6171875,51.03515625 5.27343845367432,51.591796875 3.22265625,51.181640625 1.5380859375,50.0537109375 0.410155773162842,48.3837890625 0,46.34765625 0.197753548622131,44.908447265625 0.791015625,43.5791015625 2.900390625,41.630859375 13.447265625,36.357421875 0.849609375,26.953125 0.212401986122131,26.2280292510986 0,25.283203125 0.615234375,23.7890625 2.109375,23.173828125 15.703125,23.173828125 9.9609375,17.40234375 8.8037109375,15.703125 8.408203125,13.681640625 8.818359375,11.630859375 9.9462890625,9.9609375 11.6162109375,8.84765625 13.681640625,8.4375 15.6884765625,8.818359375 17.40234375,9.9609375 25.1953125,17.75390625 30.64453125,1.435546875 31.4208984375,0.3955078125 32.63671875,0z" />
    </g>
  </g>
</svg>