<?xml version="1.0" encoding="utf-8"?>
<!DOCTYPE svg PUBLIC "-//W3C//DTD SVG 1.1//EN" "http://www.w3.org/Graphics/SVG/1.1/DTD/svg11.dtd">
<svg width="67.3828125000007" height="60.703125" xmlns="http://www.w3.org/2000/svg" xmlns:xlink="http://www.w3.org/1999/xlink" xmlns:xml="http://www.w3.org/XML/1998/namespace" version="1.1">
  <g>
    <g>
      <path style="fill:#FF0000;fill-opacity:1" d="M63.017578125,21.181640625L31.58203125,52.6171875 33.69140625,54.755859375 58.798828125,29.619140625 61.611328125,25.7519550323486 63.017578125,21.181640625z M62.138671875,13.65234375L27.36328125,48.427734375 29.501953125,50.537109375 63.017578125,17.021484375 62.138671875,13.65234375z M31.58203125,10.517578125L10.517578125,31.58203125 12.65625,33.69140625 33.69140625,12.626953125 31.58203125,10.517578125z M58.798828125,8.5546875L23.14453125,44.208984375 25.283203125,46.318359375 60.703125,10.8984375 58.798828125,8.5546875z M27.12890625,6.533203125L6.5625,27.099609375 8.4375,29.47265625 29.501953125,8.4375 27.12890625,6.533203125z M53.701171875,5.21484422683716L18.955078125,39.990234375 21.064453125,42.12890625 56.513671875,6.6796875 53.701171875,5.21484422683716z M16.669921875,4.39453125L12.2607421875,5.87402439117432 8.5693359375,8.5546875 5.8740234375,12.2314453125 4.423828125,16.669921875 16.669921875,4.39453125z M20.91796875,4.30664110183716L4.33593845367432,20.91796875 4.62890625,22.646484375 5.15625,24.345703125 24.345703125,5.15625 20.91796875,4.30664110183716z M48.28125,4.21875047683716L47.197265625,4.24804782867432 46.142578125,4.36523532867432 14.736328125,35.771484375 16.845703125,37.91015625 50.419921875,4.36523532867432 49.3505859375,4.26269626617432 48.28125,4.21875047683716z M19.1015625,0L23.3642578125,0.454102218151093 27.1142578125,1.7578125 30.5126953125,3.85253953933716 33.69140625,6.6796875 36.85546875,3.85253953933716 40.25390625,1.7578125 44.0185546875,0.454102218151093 48.28125,0 52.1154747009277,0.377200424671173 55.7080078125,1.5087890625 58.9599609375,3.28857469558716 61.7724609375,5.61035203933716 64.09423828125,8.4228515625 65.8740234375,11.6748046875 67.005615234375,15.267333984375 67.3828125,19.1015625 67.02392578125,22.8479022979736 65.947265625,26.4111328125 64.189453125,29.696044921875 61.787109375,32.607421875 33.69140625,60.703125 5.59570217132568,32.607421875 3.193359375,29.696044921875 1.435546875,26.4111328125 0.358886361122131,22.8479022979736 0,19.1015625 0.688477516174316,14.0185546875 2.607421875,9.462890625 5.59570217132568,5.59570360183716 9.462890625,2.60742259025574 14.0185546875,0.688476979732513 19.1015625,0z" />
    </g>
  </g>
</svg>