<?xml version="1.0" encoding="utf-8"?>
<!DOCTYPE svg PUBLIC "-//W3C//DTD SVG 1.1//EN" "http://www.w3.org/Graphics/SVG/1.1/DTD/svg11.dtd">
<svg width="67.3828125000013" height="67.3828125" xmlns="http://www.w3.org/2000/svg" xmlns:xlink="http://www.w3.org/1999/xlink" xmlns:xml="http://www.w3.org/XML/1998/namespace" version="1.1">
  <g>
    <g>
      <path style="fill:#FF0000;fill-opacity:1" d="M57.890625,35.80078125L54.7412071228027,36.02783203125 51.6796875,36.708984375 46.0546875,39.2724609375 41.3525390625,43.2861328125 37.91015625,48.544921875 37.91015625,42.12890625 33.69140625,42.12890625 33.69140625,61.0546875 34.306640625,62.548828125 35.80078125,63.1640625 37.2802734375,62.5341796875 37.91015625,61.0546875 37.91015625,60.849609375 37.9541015625,58.9892578125 38.1884765625,57.24609375 38.8037109375,55.634765625 40.01953125,54.169921875 58.681640625,37.55859375 58.88671875,37.2216796875 58.9453125,36.85546875 58.6376953125,36.1083984375 57.890625,35.80078125z M5.2734375,27.36328125L4.5263671875,27.6708984375 4.21875,28.41796875 4.5263671875,29.1650390625 5.2734375,29.47265625 9.144287109375,29.8425312042236 12.7880859375,30.9521484375 16.109619140625,32.70263671875 19.013671875,34.9951171875 21.4489727020264,37.78564453125 23.3642578125,41.0302734375 24.656982421875,44.622802734375 25.224609375,48.45703125 21.7529296875,43.2421875 17.0654296875,39.2431640625 14.3701171875,37.7783203125 11.4697265625,36.6943359375 8.419189453125,36.024169921875 5.2734375,35.80078125 4.5263671875,36.1083984375 4.21875,36.85546875 4.27734375,37.2216796875 4.482421875,37.55859375 23.14453125,54.169921875 24.521484375,56.015625 25.0927734375,58.0224609375 25.25390625,59.9560546875 25.4150390625,61.5966796875 25.986328125,62.7392578125 27.36328125,63.1640625 28.857421875,62.548828125 29.47265625,61.0546875 29.47265625,27.36328125 25.25390625,27.36328125 25.25390625,40.13671875 21.7822265625,34.8779296875 17.0947265625,30.849609375 14.395751953125,29.3701190948486 11.484375,28.271484375 8.4228515625,27.5903339385986 5.2734375,27.36328125z M48.427734375,18.955078125L45.4724082946777,19.244384765625 42.7001953125,20.1123046875 40.18798828125,21.48193359375 38.0126953125,23.2763671875 36.21826171875,25.4516620635986 34.8486328125,27.9638671875 33.980712890625,30.7360858917236 33.69140625,33.69140625 33.69140625,40.01953125 37.91015625,40.01953125 37.91015625,37.91015625 38.5693359375,34.6142578125 40.37109375,31.93359375 43.037109375,30.1318359375 46.318359375,29.47265625 53.701171875,29.47265625 54.4482421875,29.1650390625 54.755859375,28.41796875 54.4482421875,27.6708984375 53.701171875,27.36328125 45.263671875,27.36328125 44.5166015625,27.0556640625 44.208984375,26.30859375 44.53125,25.5908203125 45.263671875,25.283203125 57.890625,25.283203125 58.623046875,24.9609375 58.9453125,24.228515625 58.6376953125,23.4814453125 57.890625,23.173828125 49.482421875,23.173828125 48.7353515625,22.8662109375 48.427734375,22.119140625 48.7353515625,21.3720703125 49.482421875,21.064453125 62.109375,21.064453125 62.8564453125,20.7568359375 63.1640625,20.009765625 62.8564453125,19.2626953125 62.109375,18.955078125 48.427734375,18.955078125z M40.01953125,4.21874952316284L37.064208984375,4.50805950164795 34.2919921875,5.3759765625 31.77978515625,6.74560832977295 29.6044921875,8.5400390625 27.806396484375,10.71533203125 26.42578125,13.2275390625 25.546875,15.999755859375 25.25390625,18.955078125 25.25390625,25.283203125 29.47265625,25.283203125 29.47265625,23.173828125 30.1318359375,19.8779296875 31.93359375,17.197265625 34.6142578125,15.3955078125 37.91015625,14.736328125 49.482421875,14.736328125 50.2294921875,14.4287109375 50.537109375,13.681640625 50.2294921875,12.9345703125 49.482421875,12.626953125 38.96484375,12.626953125 38.2177734375,12.3193359375 37.91015625,11.572265625 38.2177734375,10.8251953125 38.96484375,10.517578125 53.701171875,10.517578125 54.4482421875,10.2099609375 54.755859375,9.462890625 54.43359375,8.7451171875 53.701171875,8.4375 43.154296875,8.4375 42.421875,8.115234375 42.099609375,7.3828125 42.4072265625,6.6357421875 43.154296875,6.328125 57.890625,6.328125 58.6376953125,6.0205078125 58.9453125,5.2734375 58.6376953125,4.5263671875 57.890625,4.21874952316284 40.01953125,4.21874952316284z M40.01953125,0L57.890625,0 59.94140625,0.410156488418579 61.6259765625,1.53808617591858 62.75390625,3.22265577316284 63.1640625,5.2734375 62.841796875,7.0751953125 61.93359375,8.6279296875 60.556640625,9.78515625 58.857421875,10.4296875 58.348388671875,11.9091796875 57.4072265625,13.18359375 56.143798828125,14.1357421875 54.66796875,14.6484365463257 54.638671875,14.736328125 62.109375,14.736328125 64.16015625,15.1464853286743 65.8447265625,16.2744140625 66.97265625,17.958984375 67.3828125,20.009765625 67.060546875,21.8115234375 66.15234375,23.3642578125 64.775390625,24.5361328125 63.076171875,25.1953125 62.5634765625,26.6711444854736 61.611328125,27.9345703125 60.3369140625,28.8757343292236 58.857421875,29.384765625 57.890625,31.58203125 59.94140625,31.9921875 61.6259765625,33.1201171875 62.75390625,34.8046875 63.1640625,36.85546875 62.7685546875,38.84765625 61.640625,40.546875 42.802734375,57.3046875 42.275390625,58.06640625 42.099609375,58.974609375 42.099609375,61.0546875 41.6015625,63.515625 40.25390625,65.5224609375 38.26171875,66.884765625 35.80078125,67.3828125 33.5302734375,66.943359375 31.58203125,65.7421875 29.6337890625,66.943359375 27.36328125,67.3828125 24.90234375,66.884765625 22.91015625,65.5224609375 21.5625,63.515625 21.064453125,61.0546875 21.064453125,58.974609375 20.8447265625,58.06640625 20.302734375,57.275390625 1.5234375,40.546875 0.3955078125,38.84765625 0,36.85546875 0.556640625,34.4970703125 2.109375,32.63671875 0.556640625,30.7763671875 0,28.41796875 0.410156726837158,26.3818359375 1.5380859375,24.7119140625 3.22265625,23.583984375 5.2734375,23.173828125 9.4921875,23.5144062042236 13.59375,24.5361328125 17.4829082489014,26.2023944854736 21.064453125,28.4765625 21.064453125,18.955078125 21.73828125,13.916015625 23.6572265625,9.3896484375 26.630859375,5.56640625 30.4541015625,2.59277296066284 34.98046875,0.673828601837158 40.01953125,0z" />
    </g>
  </g>
</svg>