<?xml version="1.0" encoding="utf-8"?>
<!DOCTYPE svg PUBLIC "-//W3C//DTD SVG 1.1//EN" "http://www.w3.org/Graphics/SVG/1.1/DTD/svg11.dtd">
<svg width="58.9453125000004" height="67.03125" xmlns="http://www.w3.org/2000/svg" xmlns:xlink="http://www.w3.org/1999/xlink" xmlns:xml="http://www.w3.org/XML/1998/namespace" version="1.1">
  <g>
    <g>
      <path style="fill:#FF0000;fill-opacity:1" d="M27.36328125,48.92578125L27.36328125,60.703125 27.978515625,62.197265625 29.47265625,62.8125 30.966796875,62.197265625 31.58203125,60.703125 31.58203125,48.92578125 30.5419921875,50.009765625 29.47265625,51.064453125 28.4033203125,50.009765625 27.36328125,48.92578125z M48.427734375,45.966796875L45.673828125,46.3623046875 43.125,47.4609375 33.69140625,53.14453125 33.69140625,58.623046875 42.099609375,58.623046875 44.6520957946777,58.3740234375 47.0361328125,57.626953125 51.0498046875,54.9169921875 53.759765625,50.9033203125 54.5068321228027,48.519287109375 54.755859375,45.966796875 48.427734375,45.966796875z M4.21875,45.966796875L4.464111328125,48.5009765625 5.20019626617432,50.888671875 7.8955078125,54.9169921875 11.9091796875,57.626953125 14.293212890625,58.3740234375 16.845703125,58.623046875 25.25390625,58.623046875 25.25390625,53.14453125 15.8203125,47.4609375 13.271484375,46.34765625 10.517578125,45.966796875 4.21875,45.966796875z M29.47265625,18.603515625L26.2060546875,19.2626953125 23.525390625,21.064453125 21.7236328125,23.7451171875 21.064453125,27.01171875 21.7236328125,30.3076171875 23.525390625,32.98828125 26.19140625,34.7900390625 29.47265625,35.44921875 32.7685546875,34.7900390625 35.44921875,32.98828125 37.2509765625,30.3076171875 37.91015625,27.01171875 37.236328125,23.7451171875 35.419921875,21.064453125 32.7392578125,19.2626953125 29.47265625,18.603515625z M29.47265625,16.494140625L31.578369140625,16.69921875 33.5595703125,17.314453125 36.9140625,19.5703125 39.1845703125,22.91015625 39.810791015625,24.8876972198486 40.01953125,27.01171875 39.810791015625,29.1394062042236 39.1845703125,31.1279296875 36.9287109375,34.4677734375 33.5888671875,36.7236328125 31.600341796875,37.349853515625 29.47265625,37.55859375 27.3486328125,37.349853515625 25.37109375,36.7236328125 22.03125,34.453125 19.775390625,31.0986328125 19.1601543426514,29.1174335479736 18.955078125,27.01171875 19.1601543426514,24.9060077667236 19.775390625,22.9248046875 22.03125,19.5849609375 25.3857421875,17.3291015625 27.366943359375,16.702880859375 29.47265625,16.494140625z M29.47265625,5.97656297683716L27.0849609375,8.994140625 25.60546875,12.5390625 22.5439453125,10.2099609375 18.955078125,8.7890625 18.5302734375,10.83984375 18.369140625,12.919921875 18.8671875,16.40625 17.1240234375,16.0546875 15.3515625,15.9375 13.2861328125,16.083984375 11.25,16.494140625 12.6708984375,20.0830078125 15,23.14453125 11.455078125,24.6240234375 8.408203125,27.01171875 11.4404296875,29.4140625 15,30.908203125 12.6708984375,33.9697265625 11.25,37.55859375 13.2568359375,37.96875 15.29296875,38.115234375 17.0947265625,37.998046875 18.8671875,37.6171875 18.369140625,41.1328125 18.5302734375,43.212890625 18.955078125,45.263671875 22.529296875,43.8427734375 25.60546875,41.513671875 27.0849609375,45.05859375 29.47265625,48.076171875 31.875,45.05859375 33.369140625,41.513671875 36.4453125,43.8427734375 40.01953125,45.263671875 40.4296875,43.212890625 40.576171875,41.162109375 40.078125,37.6171875 41.8359375,37.998046875 43.65234375,38.115234375 45.703125,37.96875 47.724609375,37.55859375 46.2890625,33.9697265625 43.974609375,30.908203125 47.51953125,29.4287109375 50.537109375,27.01171875 47.51953125,24.638671875 43.974609375,23.14453125 46.3037109375,20.0830078125 47.724609375,16.494140625 45.673828125,16.083984375 43.59375,15.9375 41.8212890625,16.0546875 40.078125,16.40625 40.458984375,14.6630859375 40.576171875,12.861328125 40.4296875,10.810546875 40.01953125,8.7890625 36.4306640625,10.2099609375 33.369140625,12.5390625 31.8603515625,8.994140625 29.47265625,5.97656297683716z M29.47265625,0L32.431640625,2.9443359375 35.068359375,6.15234327316284 38.96484375,4.68750047683716 42.978515625,3.63281273841858 44.0625,7.646484375 44.765625,11.748046875 48.8671875,12.4365234375 52.880859375,13.5058603286743 51.8115234375,17.5341796875 50.33203125,21.4453125 53.5400390625,24.052734375 56.484375,27.01171875 53.5546875,29.9853515625 50.33203125,32.607421875 51.796875,36.50390625 52.880859375,40.517578125 50.5517578125,41.1474609375 48.22265625,41.77734375 58.9453125,41.77734375 58.9453125,45.966796875 58.612060546875,49.346923828125 57.6123046875,52.5146484375 56.041259765625,55.382080078125 53.994140625,57.861328125 51.5148887634277,59.908447265625 48.6474609375,61.4794921875 45.4797325134277,62.479248046875 42.099609375,62.8125 35.419921875,62.8125 34.508056640625,64.530029296875 33.1201171875,65.8740234375 31.395263671875,66.741943359375 29.47265625,67.03125 27.5537109375,66.7236328125 25.83984375,65.859375 24.462890625,64.5263671875 23.525390625,62.8125 16.845703125,62.8125 13.465576171875,62.479248046875 10.2978515625,61.4794921875 7.43041896820068,59.908447265625 4.951171875,57.861328125 2.904052734375,55.382080078125 1.3330078125,52.5146484375 0.333251595497131,49.346923828125 0,45.966796875 0,41.77734375 10.72265625,41.77734375 8.4228515625,41.1328125 6.09375,40.517578125 7.1630859375,36.50390625 8.61328125,32.607421875 5.4052734375,29.9853515625 2.4609375,27.01171875 5.4052734375,24.0673828125 8.61328125,21.4453125 7.1630859375,17.5341796875 6.09375,13.5058603286743 10.107421875,12.4365234375 14.208984375,11.748046875 14.8974609375,7.646484375 15.966796875,3.63281273841858 19.9951171875,4.68750047683716 23.876953125,6.15234327316284 26.513671875,2.9443359375 29.47265625,0z" />
    </g>
  </g>
</svg>