<?xml version="1.0" encoding="utf-8"?>
<!DOCTYPE svg PUBLIC "-//W3C//DTD SVG 1.1//EN" "http://www.w3.org/Graphics/SVG/1.1/DTD/svg11.dtd">
<svg width="67.3828125000008" height="67.3828125" xmlns="http://www.w3.org/2000/svg" xmlns:xlink="http://www.w3.org/1999/xlink" xmlns:xml="http://www.w3.org/XML/1998/namespace" version="1.1">
  <g>
    <g>
      <path style="fill:#FF0000;fill-opacity:1" d="M25.25390625,50.537109375L42.099609375,50.537109375 43.740234375,50.8740234375 45.0732421875,51.7822265625 45.9814453125,53.115234375 46.318359375,54.755859375 46.318359375,56.865234375 48.427734375,58.974609375 18.955078125,58.974609375 21.064453125,56.865234375 21.064453125,54.755859375 21.38671875,53.115234375 22.2802734375,51.7822265625 23.61328125,50.8740234375 25.25390625,50.537109375z M4.21875,44.384765625L4.21875,54.755859375 4.541015625,56.396484375 5.4345703125,57.7294921875 6.767578125,58.6376953125 8.408203125,58.974609375 18.955078125,58.974609375 18.955078125,63.1640625 48.427734375,63.1640625 48.427734375,58.974609375 58.9453125,58.974609375 60.5859375,58.6376953125 61.9189453125,57.7294921875 62.8271484375,56.396484375 63.1640625,54.755859375 63.1640625,44.384765625 62.783203125,45.966796875 61.8603515625,47.255859375 60.5419921875,48.1201171875 58.9453125,48.427734375 46.318359375,48.427734375 45.46875,48.3251953125 44.560546875,48.046875 43.740234375,47.607421875 43.154296875,46.9921875 41.7626953125,48.0615234375 40.01953125,48.427734375 27.36328125,48.427734375 26.5576171875,48.3251953125 25.60546875,48.0322265625 24.7412109375,47.578125 24.228515625,46.9921875 22.8076171875,48.0615234375 21.064453125,48.427734375 8.408203125,48.427734375 6.8115234375,48.1201171875 5.4931640625,47.255859375 4.5849609375,45.966796875 4.21875,44.384765625z M51.591796875,42.12890625L50.3759765625,42.3779296875 49.365234375,43.037109375 48.6767578125,44.033203125 48.427734375,45.263671875 48.486328125,45.791015625 48.6328125,46.318359375 56.66015625,46.318359375 56.806640625,45.791015625 56.865234375,45.263671875 56.6162109375,44.0478515625 55.927734375,43.0517578125 54.9169921875,42.3779296875 53.701171875,42.12890625 52.646484375,42.3046875 51.591796875,42.12890625z M32.63671875,42.12890625L31.4208984375,42.3779296875 30.41015625,43.037109375 29.7216796875,44.033203125 29.47265625,45.263671875 29.53125,45.791015625 29.677734375,46.318359375 37.705078125,46.318359375 37.8515625,45.791015625 37.91015625,45.263671875 37.6611328125,44.0478515625 36.97265625,43.0517578125 35.9619140625,42.3779296875 34.74609375,42.12890625 33.69140625,42.3046875 32.63671875,42.12890625z M13.681640625,42.12890625L12.4658203125,42.3779296875 11.455078125,43.0517578125 10.7666015625,44.0478515625 10.517578125,45.263671875 10.576171875,45.791015625 10.72265625,46.318359375 18.75,46.318359375 18.896484375,45.791015625 18.955078125,45.263671875 18.7060546875,44.033203125 18.017578125,43.037109375 17.0068359375,42.3779296875 15.791015625,42.12890625 14.736328125,42.3046875 13.681640625,42.12890625z M48.6328125,23.173828125L56.865234375,23.173828125 56.865234375,24.66796875 54.43359375,29.619140625 52.96875,34.951171875 50.244140625,34.951171875 51.7529296875,29.9560546875 54.111328125,25.283203125 48.6328125,25.283203125 48.6328125,23.173828125z M29.677734375,23.173828125L37.91015625,23.173828125 37.91015625,24.66796875 35.478515625,29.619140625 34.013671875,34.951171875 31.318359375,34.951171875 32.7685546875,29.9267578125 35.15625,25.283203125 29.677734375,25.283203125 29.677734375,23.173828125z M10.751953125,23.173828125L18.955078125,23.173828125 18.955078125,24.66796875 16.5087890625,29.6337890625 15.05859375,34.951171875 12.36328125,34.951171875 13.798828125,29.912109375 16.23046875,25.283203125 10.751953125,25.283203125 10.751953125,23.173828125z M44.208984375,18.955078125L44.208984375,40.01953125 61.0546875,40.01953125 61.0546875,18.955078125 44.208984375,18.955078125z M25.25390625,18.955078125L25.25390625,40.01953125 42.099609375,40.01953125 42.099609375,18.955078125 25.25390625,18.955078125z M6.328125,18.955078125L6.328125,40.01953125 23.173828125,40.01953125 23.173828125,18.955078125 6.328125,18.955078125z M48.427734375,12.626953125L48.75,14.2822265625 49.6435546875,15.6298828125 50.9912109375,16.5234375 52.646484375,16.845703125 54.287109375,16.5087890625 55.6201171875,15.6005859375 56.5283203125,14.2675790786743 56.865234375,12.626953125 48.427734375,12.626953125z M29.47265625,12.626953125L29.8095703125,14.2675790786743 30.7177734375,15.6005859375 32.05078125,16.5087890625 33.69140625,16.845703125 35.33203125,16.5087890625 36.6650390625,15.6005859375 37.5732421875,14.2675790786743 37.91015625,12.626953125 29.47265625,12.626953125z M10.517578125,12.626953125L10.8544921875,14.2675790786743 11.7626953125,15.6005859375 13.095703125,16.5087890625 14.736328125,16.845703125 16.376953125,16.5087890625 17.7099609375,15.6005859375 18.6181640625,14.2675790786743 18.955078125,12.626953125 10.517578125,12.626953125z M8.408203125,4.21874952316284L6.767578125,4.5556640625 5.4345703125,5.46386766433716 4.541015625,6.796875 4.21875,8.4375 4.21875,14.560546875 4.5849609375,12.9931640625 5.4931640625,11.7041015625 6.8115234375,10.83984375 8.408203125,10.517578125 21.064453125,10.517578125 22.8076171875,10.8984375 24.228515625,11.953125 25.6494140625,10.8984375 27.36328125,10.517578125 40.01953125,10.517578125 41.7333984375,10.8984375 43.154296875,11.953125 44.58984375,10.8984375 46.318359375,10.517578125 58.9453125,10.517578125 60.52734375,10.83984375 61.8603515625,11.7041015625 62.783203125,12.9931640625 63.1640625,14.560546875 63.1640625,8.4375 62.8271484375,6.796875 61.9189453125,5.46386766433716 60.5859375,4.5556640625 58.9453125,4.21874952316284 8.408203125,4.21874952316284z M8.408203125,0L58.9453125,0 62.2412109375,0.659179925918579 64.921875,2.46093702316284 66.7236328125,5.1416015625 67.3828125,8.4375 67.3828125,54.755859375 66.708984375,58.0078125 64.8779296875,60.673828125 62.1826171875,62.490234375 58.9453125,63.1640625 52.646484375,63.1640625 52.646484375,67.3828125 14.736328125,67.3828125 14.736328125,63.1640625 8.408203125,63.1640625 5.1416015625,62.5048828125 2.4609375,60.703125 0.6591796875,58.0224609375 0,54.755859375 0,8.4375 0.673828125,5.20019578933716 2.490234375,2.5048828125 5.15625,0.673828601837158 8.408203125,0z" />
    </g>
  </g>
</svg>