<?xml version="1.0" encoding="utf-8"?>
<!DOCTYPE svg PUBLIC "-//W3C//DTD SVG 1.1//EN" "http://www.w3.org/Graphics/SVG/1.1/DTD/svg11.dtd">
<svg width="50.5371093750009" height="67.3828125" xmlns="http://www.w3.org/2000/svg" xmlns:xlink="http://www.w3.org/1999/xlink" xmlns:xml="http://www.w3.org/XML/1998/namespace" version="1.1">
  <g>
    <g>
      <path style="fill:#FF0000;fill-opacity:1" d="M25.25390625,52.646484375L22.79296875,53.14453125 20.80078125,54.5068359375 19.453125,56.513671875 18.955078125,58.974609375 18.955078125,62.197265625 22.0751934051514,62.92236328125 25.283203125,63.1640625 28.48388671875,62.92236328125 31.58203125,62.197265625 31.58203125,56.865234375 25.25390625,58.974609375 25.25390625,52.646484375z M14.296875,8.4375L12.8466796875,8.818359375 11.6455078125,9.7998046875 10.8251953125,11.1474609375 10.517578125,12.626953125 10.517578125,16.845703125 12.158203125,16.5087890625 13.4912109375,15.6005859375 14.3994140625,14.2675790786743 14.736328125,12.626953125 14.736328125,8.4375 14.296875,8.4375z M21.064453125,4.21874952316284L21.064453125,4.51171875 20.56640625,9.2724609375 19.1162109375,13.974609375 16.81640625,18.3251953125 13.798828125,22.03125 12.4365234375,23.3349609375 11.103515625,24.66796875 8.2763671875,28.41796875 6.09375,32.5927734375 4.7021484375,37.0751953125 4.21875,41.748046875 4.74609375,46.783447265625 6.328125,51.4013671875 8.95751953125,55.499267578125 12.626953125,58.974609375 12.626953125,52.646484375 13.095703125,49.5703125 14.267578125,47.2412109375 15.791015625,45.2783203125 17.314453125,43.3154296875 18.486328125,40.986328125 18.955078125,37.91015625 21.4855937957764,38.1591796875 23.8623046875,38.90625 27.8759765625,41.6162109375 30.5859375,45.6298828125 31.3330078125,48.006591796875 31.58203125,50.537109375 34.5703125,48.9404296875 37.91015625,48.427734375 37.91015625,58.974609375 41.396484375,55.6787109375 44.0478515625,51.6650390625 45.732421875,47.16796875 46.318359375,42.392578125 46.318359375,27.36328125 43.8940391540527,27.6452655792236 41.71875,28.4912109375 37.998046875,31.46484375 37.91015625,31.58203125 37.91015625,21.064453125 37.79296875,19.189453125 37.470703125,17.314453125 36.62109375,14.560546875 35.302734375,12.041015625 31.552734375,7.8955078125 29.23095703125,6.34643840789795 26.66015625,5.185546875 23.91357421875,4.46045207977295 21.064453125,4.21874952316284z M16.845703125,0L19.39453125,0 22.353515625,0.0732417106628418 25.283203125,0.439453601837158 28.267822265625,1.25244426727295 31.0693359375,2.51953125 35.9326171875,6.1669921875 39.580078125,11.044921875 40.8544883728027,13.85009765625 41.689453125,16.81640625 42.041015625,19.5849609375 42.099609375,22.3828125 42.099609375,23.7890625 45.41015625,23.291015625 48.720703125,23.173828125 50.537109375,23.173828125 50.537109375,42.12890625 50.3100547790527,45.54931640625 49.62890625,48.837890625 47.080078125,54.873046875 43.125,59.9853515625 37.998046875,63.92578125 31.962890625,66.474609375 28.67431640625,67.15576171875 25.25390625,67.3828125 21.8334941864014,67.15576171875 18.544921875,66.474609375 12.509765625,63.92578125 7.3974609375,59.9853515625 3.45703220367432,54.873046875 0.908203125,48.837890625 0.227050423622131,45.54931640625 0,42.12890625 0.5859375,36.3134765625 2.2998046875,30.732421875 5.0537109375,25.5908203125 8.759765625,21.064453125 6.328125,21.064453125 6.328125,12.626953125 6.6943359375,10.1953125 7.73437404632568,7.96875047683716 9.345703125,6.1376953125 11.455078125,4.86328077316284 13.5205078125,4.32128953933716 15.52734375,4.21874952316284 16.845703125,4.21874952316284 16.845703125,0z" />
    </g>
  </g>
</svg>