<?xml version="1.0" encoding="utf-8"?>
<!DOCTYPE svg PUBLIC "-//W3C//DTD SVG 1.1//EN" "http://www.w3.org/Graphics/SVG/1.1/DTD/svg11.dtd">
<svg width="67.4414062500349" height="63.1640625" xmlns="http://www.w3.org/2000/svg" xmlns:xlink="http://www.w3.org/1999/xlink" xmlns:xml="http://www.w3.org/XML/1998/namespace" version="1.1">
  <g>
    <g>
      <path style="fill:#FF0000;fill-opacity:1" d="M27.392578125,36.38671875L26.30859375,36.8701171875 25.283203125,37.44140625 23.5400390625,38.9208984375 22.2216796875,40.8251953125 21.38671875,42.9931640625 21.09375,45.263671875 21.8408203125,48.955078125 23.8623046875,51.97265625 26.865234375,54.0087890625 30.556640625,54.755859375 36.884765625,54.755859375 40.576171875,54.0087890625 43.5791015625,51.97265625 45.6005859375,48.955078125 46.34765625,45.263671875 45.8935546875,42.4072265625 44.6044921875,39.8291015625 42.6123046875,37.7490234375 40.048828125,36.38671875 40.048828125,42.099609375 39.55078125,44.560546875 38.1884765625,46.5673828125 36.181640625,47.9296875 33.720703125,48.427734375 31.259765625,47.9296875 29.2529296875,46.5673828125 27.890625,44.560546875 27.392578125,42.099609375 27.392578125,36.38671875z M33.720703125,29.47265625L32.0654296875,29.8095703125 30.7177734375,30.7177734375 29.82421875,32.05078125 29.501953125,33.69140625 29.501953125,39.609375 33.28125,44.0625 33.486328125,44.1650390625 33.720703125,44.208984375 34.16015625,44.0625 37.939453125,39.609375 37.939453125,33.69140625 37.6025390625,32.05078125 36.6943359375,30.7177734375 35.361328125,29.8095703125 33.720703125,29.47265625z M33.720703125,27.36328125L36.357421875,27.9052734375 38.349609375,29.3701171875 39.609375,31.5380859375 40.048828125,34.189453125 43.447265625,35.7861328125 46.11328125,38.3203125 47.841796875,41.5576171875 48.45703125,45.263671875 48.2299766540527,47.5927734375 47.548828125,49.775390625 45.0732421875,53.466796875 41.396484375,55.95703125 39.2138671875,56.63818359375 36.884765625,56.865234375 30.556640625,56.865234375 28.2275390625,56.63818359375 26.044921875,55.95703125 22.3681640625,53.466796875 19.892578125,49.775390625 19.2114238739014,47.5927734375 18.984375,45.263671875 19.599609375,41.5576171875 21.328125,38.3203125 23.994140625,35.7861328125 27.392578125,34.189453125 27.83203125,31.552734375 29.091796875,29.384765625 31.083984375,27.9052734375 33.720703125,27.36328125z M47.40234375,25.25390625L48.6181640625,25.5029296875 49.62890625,26.19140625 50.3173828125,27.2021484375 50.56640625,28.41796875 50.56640625,32.63671875 50.3173828125,33.8818359375 49.6435546875,34.8779296875 48.6328125,35.5517578125 47.40234375,35.80078125 46.1865234375,35.5517578125 45.17578125,34.86328125 44.4873046875,33.8525390625 44.23828125,32.63671875 44.23828125,28.41796875 44.4873046875,27.2021484375 45.17578125,26.19140625 46.1865234375,25.5029296875 47.40234375,25.25390625z M20.0390625,25.25390625L21.2548828125,25.5029296875 22.265625,26.19140625 22.9541015625,27.2021484375 23.203125,28.41796875 23.203125,32.63671875 22.9541015625,33.8525390625 22.265625,34.86328125 21.2548828125,35.5517578125 20.0390625,35.80078125 18.7939453125,35.5517578125 17.7978515625,34.8779296875 17.1240234375,33.8818359375 16.875,32.63671875 16.875,28.41796875 17.1240234375,27.2021484375 17.8125,26.19140625 18.8232421875,25.5029296875 20.0390625,25.25390625z M51.62109375,4.21875L48.8525390625,4.62890625 46.318359375,5.830078125 48.1494140625,7.2216796875 49.892578125,8.701171875 51.62109375,8.408203125 56.89453125,8.408203125 56.89453125,13.681640625 56.513671875,15.6298828125 55.458984375,17.28515625 56.2060546875,19.3505859375 57.158203125,21.38671875 59.267578125,19.3359375 60.46875,17.0654296875 60.99609375,14.58984375 61.11328125,11.923828125 61.0986328125,10.1953125 61.083984375,8.408203125 62.607421875,6.54785251617432 63.193359375,4.21875 51.62109375,4.21875z M33.720703125,4.21875L28.212890625,4.89257860183716 23.6572265625,6.79687547683716 19.921875,9.7265625 16.845703125,13.4912109375 14.2529296875,17.900390625 12.01171875,22.734375 11.748046875,23.349609375 11.484375,23.994140625 9.8876953125,27.7734375 8.203125,32.109375 6.884765625,36.38671875 6.35742092132568,40.01953125 6.72729396820068,43.824462890625 7.8369140625,47.3876953125 9.591064453125,50.614013671875 11.89453125,53.408203125 14.688720703125,55.711669921875 17.9150390625,57.4658203125 21.4782695770264,58.575439453125 25.283203125,58.9453125 43.125,58.9453125 47.900390625,58.212890625 52.1923828125,56.19140625 55.83984375,53.115234375 58.6376953125,49.21875 60.439453125,44.765625 61.083984375,40.01953125 60.6884765625,36.38671875 59.6630859375,32.8857421875 58.2861328125,29.4873046875 56.8359375,26.1328125 56.3671875,25.01953125 54.0673828125,19.6875 51.5478515625,14.765625 48.5302734375,10.517578125 44.736328125,7.17773532867432 39.8876953125,4.99511814117432 36.990966796875,4.41284513473511 33.720703125,4.21875z M4.248046875,4.21875L4.833984375,6.54785251617432 6.35742092132568,8.408203125 6.3427734375,10.1513671875 6.328125,11.89453125 6.4599609375,14.70703125 7.0166015625,17.197265625 8.2177734375,19.4091796875 10.283203125,21.38671875 11.982421875,17.28515625 10.927734375,15.6298828125 10.546875,13.681640625 10.546875,8.408203125 15.8203125,8.408203125 17.548828125,8.701171875 19.27734375,7.19238328933716 21.123046875,5.830078125 18.5888671875,4.62890625 15.8203125,4.21875 4.248046875,4.21875z M0.0292963981628418,0L15.8203125,0 19.716796875,0.571289956569672 23.291015625,2.25586032867432 28.388671875,0.571289956569672 33.720703125,0 39.052734375,0.571289956569672 44.150390625,2.25586032867432 47.724609375,0.571289956569672 51.62109375,0 67.412109375,0 67.4267578125,1.46484398841858 67.44140625,2.92968797683716 67.353515625,4.9072265625 67.03125,6.73828125 66.38671875,8.466796875 65.302734375,10.13671875 65.302734375,13.681640625 64.9951171875,16.61865234375 64.072265625,19.39453125 62.578125,21.9067401885986 60.556640625,24.052734375 62.2119140625,27.919921875 63.7353515625,31.8310546875 64.86328125,35.8447265625 65.302734375,40.01953125 65.093994140625,43.154296875 64.4677734375,46.171875 62.1240234375,51.6943359375 58.505859375,56.3818359375 53.818359375,60.0146484375 48.28125,62.34375 45.2636680603027,62.958984375 42.12890625,63.1640625 25.283203125,63.1640625 20.6286602020264,62.7099609375 16.2744140625,61.34765625 12.333984375,59.197998046875 8.9208984375,56.3818359375 6.10473537445068,52.96875 3.955078125,49.0283203125 2.5927734375,44.674072265625 2.138671875,40.01953125 2.56347560882568,35.7861328125 3.662109375,31.8017578125 5.185546875,27.9345703125 6.884765625,24.052734375 4.86328029632568,21.9067401885986 3.369140625,19.39453125 2.4462890625,16.61865234375 2.138671875,13.681640625 2.138671875,10.13671875 1.0400390625,8.466796875 0.380858898162842,6.72363328933716 0.0732421875,4.87793064117432 0,2.90039134025574 0.0146484375,1.45019567012787 0.0292963981628418,0z" />
    </g>
  </g>
</svg>