<?xml version="1.0" encoding="utf-8"?>
<!DOCTYPE svg PUBLIC "-//W3C//DTD SVG 1.1//EN" "http://www.w3.org/Graphics/SVG/1.1/DTD/svg11.dtd">
<svg width="67.3828125000024" height="67.412109375" xmlns="http://www.w3.org/2000/svg" xmlns:xlink="http://www.w3.org/1999/xlink" xmlns:xml="http://www.w3.org/XML/1998/namespace" version="1.1">
  <g>
    <g>
      <path style="fill:#FF0000;fill-opacity:1" d="M48.046875,41.396484375L47.2119140625,42.0263671875 46.318359375,42.568359375 46.318359375,48.45703125 42.099609375,59.00390625 40.458984375,59.326171875 39.1259765625,60.2197265625 38.232421875,61.552734375 37.91015625,63.193359375 44.208984375,63.193359375 52.353515625,48.57421875 48.046875,41.396484375z M15.791015625,8.466796875L16.5234375,8.7744140625 16.845703125,9.4921875 16.845703125,11.6015625 16.5380859375,12.3486328125 15.791015625,12.65625 15.0439453125,12.3486328125 14.736328125,11.6015625 14.736328125,9.4921875 15.05859375,8.7744140625 15.791015625,8.466796875z M21.064453125,4.24804735183716L18.984375,4.833984375 17.431640625,6.357421875 10.517578125,6.357421875 8.056640625,6.85546875 6.06445264816284,8.203125 4.71679639816284,10.1953125 4.21874952316284,12.65625 4.21874952316284,14.765625 8.7890625,10.83984375 9.462890625,10.576171875 10.2099609375,10.8837890625 10.517578125,11.630859375 10.166015625,12.421875 7.47070264816284,14.765625 10.517578125,14.765625 12.158203125,15.1025390625 13.4912109375,16.0107421875 14.3994140625,17.34375 14.736328125,18.984375 14.736328125,31.611328125 15.29296875,34.599609375 16.875,37.177734375 23.173828125,44.23828125 23.173828125,59.00390625 21.533203125,59.326171875 20.2001953125,60.2197265625 19.2919921875,61.552734375 18.955078125,63.193359375 25.25390625,63.193359375 27.36328125,61.083984375 27.36328125,42.158203125 40.01953125,42.158203125 42.4401817321777,41.883544921875 44.7216796875,41.0595703125 46.7541465759277,39.730224609375 48.427734375,37.939453125 51.5771484375,43.212890625 54.755859375,48.45703125 54.755859375,59.00390625 53.115234375,59.326171875 51.7822265625,60.2197265625 50.8740234375,61.552734375 50.537109375,63.193359375 56.865234375,63.193359375 58.9453125,61.083984375 58.9453125,33.720703125 62.109375,33.720703125 62.8564453125,33.4130859375 63.1640625,32.666015625 62.724609375,31.81640625 58.9453125,29.00390625 58.4912109375,25.9130859375 56.8359375,23.291015625 48.076171875,15.146484375 45.322265625,13.30078125 42.099609375,12.65625 38.876953125,13.2861328125 36.15234375,15.146484375 25.01953125,26.42578125 24.6533203125,26.71875 24.228515625,26.8359375 23.4814453125,26.5283203125 23.173828125,25.78125 23.173828125,12.65625 22.6171875,10.107421875 21.064453125,7.99804735183716 21.064453125,4.24804735183716z M22.32421875,0L23.759765625,0.0146489143371582 25.25390625,0.029296875 25.25390625,6.38671875 26.40380859375,8.316650390625 27.041015625,10.2978515625 27.421875,14.4140625 27.392578125,16.201171875 27.36328125,18.046875 33.1640625,12.1875 35.093994140625,10.56884765625 37.2509765625,9.404296875 39.598388671875,8.701171875 42.099609375,8.466796875 44.6704063415527,8.701171875 46.93359375,9.404296875 49.0136680603027,10.5615234375 51.03515625,12.158203125 59.70703125,20.21484375 61.93359375,23.2177734375 63.046875,26.806640625 64.6435546875,27.978515625 66.03515625,29.1943359375 67.0166015625,30.6884765625 67.3828125,32.666015625 67.060546875,34.453125 66.181640625,35.9912109375 64.8486328125,37.1630859375 63.1640625,37.822265625 63.1640625,62.841796875 58.59375,67.412109375 33.69140625,67.412109375 33.69140625,63.193359375 34.072265625,60.7177734375 35.15625,58.4765625 36.8408203125,56.6455078125 39.0234375,55.37109375 42.099609375,47.666015625 42.099609375,46.201171875 41.07421875,46.318359375 40.01953125,46.34765625 31.58203125,46.34765625 31.58203125,62.841796875 27.01171875,67.412109375 14.736328125,67.412109375 14.736328125,63.193359375 15.018310546875,60.99609375 15.8642578125,58.974609375 17.2009258270264,57.23876953125 18.955078125,55.8984375 18.955078125,45.849609375 13.7109375,39.9609375 11.3525390625,36.0791015625 10.726318359375,33.870849609375 10.517578125,31.611328125 10.517578125,18.984375 0,18.984375 0,12.65625 0.208739578723907,10.550537109375 0.834961414337158,8.5693359375 3.09081983566284,5.2294921875 6.43066358566284,2.97363257408142 8.41186428070068,2.34741497039795 10.517578125,2.13867139816284 15.498046875,2.13867139816284 17.0947265625,1.01074171066284 18.75,0.366211414337158 20.4931640625,0.0732424259185791 22.32421875,0z" />
    </g>
  </g>
</svg>