<?xml version="1.0" encoding="utf-8"?>
<!DOCTYPE svg PUBLIC "-//W3C//DTD SVG 1.1//EN" "http://www.w3.org/Graphics/SVG/1.1/DTD/svg11.dtd">
<svg width="46.669921875" height="19.248046875" xmlns="http://www.w3.org/2000/svg" xmlns:xlink="http://www.w3.org/1999/xlink" xmlns:xml="http://www.w3.org/XML/1998/namespace" version="1.1">
  <g>
    <g>
      <path style="fill:#FF0000;fill-opacity:1" d="M19.658203125,0L46.669921875,1.7578125 46.669921875,2.28515625 46.1572227478027,4.88525533676147 44.619140625,6.533203125 43.3795166015625,7.04589939117432 41.71142578125,7.41211080551147 39.6148681640625,7.63183689117432 37.08984375,7.705078125 28.271484375,7.67578125 27.51708984375,8.17383003234863 26.3671875,8.84765625 28.06640625,8.759765625 30.399169921875,8.97216796875 32.0654296875,9.609375 33.065185546875,10.67138671875 33.3984375,12.158203125 33.0596923828125,13.773193359375 32.04345703125,14.9267578125 30.3497314453125,15.618896484375 27.978515625,15.849609375 26.89453125,15.76171875 25.4003887176514,17.7392578125 23.0859375,18.3984375 21.416015625,17.9296875 20.1635723114014,18.91845703125 18.80859375,19.248046875 17.21923828125,18.8818359375 15.556640625,17.783203125 13.49853515625,18.12744140625 11.953125,18.33984375 6.181640625,15.9375 0.908203125,16.5234375 0.22705078125,13.92333984375 0,11.220703125 0.21240234375,8.20312690734863 0.849609375,5.771484375 2.04345655441284,5.41259908676147 2.63671875,5.21484375 11.68212890625,2.28515768051147 19.658203125,0z" />
    </g>
  </g>
</svg>