<?xml version="1.0" encoding="utf-8"?>
<!DOCTYPE svg PUBLIC "-//W3C//DTD SVG 1.1//EN" "http://www.w3.org/Graphics/SVG/1.1/DTD/svg11.dtd">
<svg width="50.5664062500013" height="67.3828125" xmlns="http://www.w3.org/2000/svg" xmlns:xlink="http://www.w3.org/1999/xlink" xmlns:xml="http://www.w3.org/XML/1998/namespace" version="1.1">
  <g>
    <g>
      <path style="fill:#FF0000;fill-opacity:1" d="M25.25390625,54.755859375L26.748046875,55.37109375 27.36328125,56.865234375 26.7333984375,58.3447265625 25.25390625,58.974609375 23.7890625,58.3447265625 23.173828125,56.865234375 23.7890625,55.3857421875 25.25390625,54.755859375z M31.58203125,48.427734375L33.076171875,49.04296875 33.69140625,50.537109375 33.076171875,52.03125 31.58203125,52.646484375 30.087890625,52.03125 29.47265625,50.537109375 30.087890625,49.04296875 31.58203125,48.427734375z M18.955078125,48.427734375L20.44921875,49.04296875 21.064453125,50.537109375 20.44921875,52.03125 18.955078125,52.646484375 17.4609375,52.03125 16.845703125,50.537109375 17.4609375,49.04296875 18.955078125,48.427734375z M40.01953125,42.12890625L41.484375,42.744140625 42.099609375,44.208984375 41.484375,45.6884765625 40.01953125,46.318359375 38.525390625,45.703125 37.91015625,44.208984375 38.5400390625,42.744140625 40.01953125,42.12890625z M25.25390625,42.12890625L26.7333984375,42.744140625 27.36328125,44.208984375 26.748046875,45.703125 25.25390625,46.318359375 23.7890625,45.6884765625 23.173828125,44.208984375 23.7890625,42.744140625 25.25390625,42.12890625z M10.517578125,42.12890625L11.9970703125,42.744140625 12.626953125,44.208984375 12.01171875,45.703125 10.517578125,46.318359375 9.0380859375,45.6884765625 8.408203125,44.208984375 9.0380859375,42.744140625 10.517578125,42.12890625z M4.21875,40.01953125L4.21875,46.318359375 4.5556640625,47.98828125 5.478515625,49.3212890625 6.85546875,50.21484375 8.525390625,50.537109375 11.099853515625,50.77880859375 13.4912109375,51.50390625 17.4755859375,54.169921875 20.1123046875,58.18359375 20.8264141082764,60.5859375 21.064453125,63.1640625 29.47265625,63.1640625 29.710693359375,60.5859375 30.4248046875,58.18359375 33.046875,54.169921875 37.001953125,51.50390625 39.3896484375,50.77880859375 41.982421875,50.537109375 43.65234375,50.21484375 45.0439453125,49.3212890625 45.9814453125,47.98828125 46.318359375,46.318359375 46.318359375,40.01953125 4.21875,40.01953125z M35.80078125,29.47265625L37.294921875,30.087890625 37.91015625,31.58203125 37.294921875,33.076171875 35.80078125,33.69140625 34.306640625,33.076171875 33.69140625,31.58203125 34.306640625,30.087890625 35.80078125,29.47265625z M14.736328125,29.47265625L16.23046875,30.087890625 16.845703125,31.58203125 16.23046875,33.076171875 14.736328125,33.69140625 13.2421875,33.076171875 12.626953125,31.58203125 13.2421875,30.087890625 14.736328125,29.47265625z M42.099609375,25.283203125L43.5791015625,25.8984375 44.208984375,27.36328125 43.59375,28.857421875 42.099609375,29.47265625 40.634765625,28.8427734375 40.01953125,27.36328125 40.634765625,25.8984375 42.099609375,25.283203125z M8.408203125,25.283203125L9.8876953125,25.8984375 10.517578125,27.36328125 9.90234375,28.857421875 8.408203125,29.47265625 6.943359375,28.8427734375 6.328125,27.36328125 6.943359375,25.8984375 8.408203125,25.283203125z M37.91015625,18.955078125L39.3896484375,19.5849609375 40.01953125,21.064453125 39.3896484375,22.5439453125 37.91015625,23.173828125 36.416015625,22.55859375 35.80078125,21.064453125 36.416015625,19.5703125 37.91015625,18.955078125z M12.626953125,18.955078125L14.12109375,19.5703125 14.736328125,21.064453125 14.12109375,22.55859375 12.626953125,23.173828125 11.1474609375,22.5439453125 10.517578125,21.064453125 11.1474609375,19.5849609375 12.626953125,18.955078125z M12.626953125,4.21874952316284L9.169921875,18.017578125 7.1044921875,19.51171875 5.5224609375,21.474609375 4.51171875,23.7744140625 4.16015625,26.30859375 4.9072265625,30 6.943359375,33.017578125 9.9609375,35.0537109375 13.65234375,35.80078125 15.897216796875,35.51513671875 17.8857421875,34.658203125 19.6105937957764,33.31787109375 21.064453125,31.58203125 29.47265625,31.58203125 30.9228515625,33.31787109375 32.63671875,34.658203125 34.6142578125,35.51513671875 36.85546875,35.80078125 40.546875,35.0537109375 43.5498046875,33.017578125 45.5712890625,30 46.318359375,26.30859375 45.966796875,23.8037109375 44.970703125,21.50390625 43.4033203125,19.541015625 41.3671875,18.046875 37.91015625,4.21874952316284 35.80078125,4.21874952316284 35.80078125,16.962890625 31.58203125,27.36328125 18.955078125,27.36328125 14.736328125,16.845703125 14.736328125,4.21874952316284 12.626953125,4.21874952316284z M9.404296875,0L18.984375,0 18.984375,16.025390625 21.85546875,23.173828125 28.798828125,23.173828125 31.640625,16.142578125 31.640625,0 41.220703125,0 45.087890625,15.41015625 47.3583984375,17.607421875 49.0869140625,20.244140625 50.185546875,23.1884765625 50.56640625,26.30859375 50.3173789978027,28.9636249542236 49.5703125,31.4208984375 48.3618125915527,33.695068359375 46.728515625,35.80078125 50.56640625,35.80078125 50.56640625,46.318359375 49.8779296875,49.6142578125 48.0322265625,52.294921875 45.322265625,54.0966796875 42.01171875,54.755859375 38.671875,55.400390625 36.0498046875,57.158203125 34.3359375,59.82421875 33.720703125,63.1640625 33.720703125,67.3828125 16.875,67.3828125 16.875,63.1640625 16.259765625,59.8095703125 14.5458984375,57.1435546875 11.9091796875,55.3857421875 8.5546875,54.755859375 5.21484375,54.111328125 2.5048828125,52.32421875 0.6884765625,49.6435546875 0.029296875,46.318359375 0.029296875,35.80078125 3.837890625,35.80078125 2.186279296875,33.74267578125 0.9814453125,31.435546875 0.245360970497131,28.9379901885986 0,26.30859375 0.380859375,23.14453125 1.46484375,20.185546875 3.193359375,17.5634765625 5.5078125,15.380859375 9.404296875,0z" />
    </g>
  </g>
</svg>