<?xml version="1.0" encoding="utf-8"?>
<!DOCTYPE svg PUBLIC "-//W3C//DTD SVG 1.1//EN" "http://www.w3.org/Graphics/SVG/1.1/DTD/svg11.dtd">
<svg width="67.3828125000021" height="67.3828125" xmlns="http://www.w3.org/2000/svg" xmlns:xlink="http://www.w3.org/1999/xlink" xmlns:xml="http://www.w3.org/XML/1998/namespace" version="1.1">
  <g>
    <g>
      <path style="fill:#FF0000;fill-opacity:1" d="M33.69140625,40.01953125L30.556640625,40.60546875 27.861328125,42.333984375 25.9423828125,45.1171875 25.25390625,48.427734375 25.9130859375,51.7236328125 27.71484375,54.404296875 30.3955078125,56.2060546875 33.69140625,56.865234375 36.9287109375,56.25 39.638671875,54.404296875 40.693359375,53.14453125 41.4697265625,51.650390625 41.9384765625,50.0390625 42.099609375,48.427734375 41.4404296875,45.146484375 39.638671875,42.48046875 36.97265625,40.6787109375 33.69140625,40.01953125z M33.69140625,37.91015625L35.8154296875,38.115234375 37.79296875,38.73046875 41.1328125,40.986328125 43.388671875,44.326171875 44.0039024353027,46.3037109375 44.208984375,48.427734375 44.0039024353027,50.5517578125 43.388671875,52.529296875 41.1328125,55.869140625 37.79296875,58.125 35.8154296875,58.740234375 33.69140625,58.9453125 31.585693359375,58.736572265625 29.6044921875,58.1103515625 26.25,55.8544921875 23.9794921875,52.5146484375 23.3532695770264,50.533447265625 23.14453125,48.427734375 23.3532695770264,46.322021484375 23.9794921875,44.3408203125 26.25,41.0009765625 29.6044921875,38.7451171875 31.585693359375,38.118896484375 33.69140625,37.91015625z M33.69140625,33.69140625L30.736083984375,33.980712890625 27.9638671875,34.8486328125 25.45166015625,36.21826171875 23.2763671875,38.0126953125 21.4819316864014,40.18798828125 20.1123046875,42.7001953125 19.2443828582764,45.472412109375 18.955078125,48.427734375 19.2443828582764,51.38671875 20.1123046875,54.169921875 21.4782695770264,56.689453125 23.26171875,58.857421875 25.4296875,60.640869140625 27.94921875,62.0068359375 30.732421875,62.874755859375 33.69140625,63.1640625 36.646728515625,62.874755859375 39.4189453125,62.0068359375 41.9311485290527,60.63720703125 44.1064453125,58.8427734375 45.9008750915527,56.66748046875 47.2705078125,54.1552734375 48.1384239196777,51.383056640625 48.427734375,48.427734375 48.1347618103027,45.49072265625 47.255859375,42.71484375 45.8789024353027,40.1953125 44.091796875,38.02734375 41.9238243103027,36.240234375 39.404296875,34.86328125 36.62841796875,33.984375 33.69140625,33.69140625z M58.095703125,4.21874952316284L41.015625,33.251953125 43.388671875,34.6435546875 45.498046875,36.416015625 62.8125,7.412109375 63.0615234375,6.8994140625 63.1640625,6.328125 62.548828125,4.83398485183716 61.0546875,4.21874952316284 58.095703125,4.21874952316284z M22.265625,4.21874952316284L27.216796875,12.626953125 40.166015625,12.626953125 45.1171875,4.21874952316284 22.265625,4.21874952316284z M13.505859375,4.21874952316284L29.853515625,32.021484375 33.69140625,31.58203125 37.529296875,32.021484375 53.876953125,4.21874952316284 47.578125,4.21874952316284 33.69140625,27.802734375 26.7333984375,16.0107421875 19.8046875,4.21874952316284 13.505859375,4.21874952316284z M6.328125,4.21874952316284L4.833984375,4.83398485183716 4.21875,6.328125 4.541015625,7.412109375 21.884765625,36.416015625 24.0234375,34.6728515625 26.3671875,33.251953125 9.287109375,4.21874952316284 6.328125,4.21874952316284z M6.328125,0L61.0546875,0 63.515625,0.498046875 65.5224609375,1.86035132408142 66.884765625,3.86718726158142 67.3828125,6.328125 67.1337890625,8.056640625 66.38671875,9.638671875 49.482421875,37.96875 50.8666954040527,40.3857421875 51.85546875,42.94921875 52.4487266540527,45.63720703125 52.646484375,48.427734375 51.97265625,53.466796875 50.0537109375,57.9931640625 47.080078125,61.81640625 43.2568359375,64.7900390625 38.73046875,66.708984375 33.69140625,67.3828125 28.65234375,66.708984375 24.1259765625,64.7900390625 20.302734375,61.81640625 17.3291015625,57.9931640625 15.41015625,53.466796875 14.736328125,48.427734375 14.93408203125,45.63720703125 15.52734375,42.94921875 16.51611328125,40.3857421875 17.900390625,37.96875 0.9375,9.55078125 0.2490234375,7.99804639816284 0,6.328125 0.498046875,3.86718726158142 1.8603515625,1.86035132408142 3.8671875,0.498046875 6.328125,0z" />
    </g>
  </g>
</svg>