<?xml version="1.0" encoding="utf-8"?>
<!DOCTYPE svg PUBLIC "-//W3C//DTD SVG 1.1//EN" "http://www.w3.org/Graphics/SVG/1.1/DTD/svg11.dtd">
<svg width="58.9453125" height="67.3828125" xmlns="http://www.w3.org/2000/svg" xmlns:xlink="http://www.w3.org/1999/xlink" xmlns:xml="http://www.w3.org/XML/1998/namespace" version="1.1">
  <g>
    <g>
      <path style="fill:#FF0000;fill-opacity:1" d="M35.80078125,50.537109375L37.294921875,51.15234375 37.91015625,52.646484375 37.5732421875,54.287109375 36.6650390625,55.6201171875 35.33203125,56.5283203125 33.69140625,56.865234375 32.197265625,56.25 31.58203125,54.755859375 31.904296875,53.115234375 32.7978515625,51.7822265625 34.1455078125,50.8740234375 35.80078125,50.537109375z M21.064453125,46.318359375L22.705078125,46.6552734375 24.0380859375,47.5634765625 24.931640625,48.896484375 25.25390625,50.537109375 24.638671875,52.0166015625 23.173828125,52.646484375 21.5185546875,52.32421875 20.1708984375,51.4306640625 19.27734375,50.0830078125 18.955078125,48.427734375 19.5703125,46.93359375 21.064453125,46.318359375z M43.154296875,38.96484375L44.6484375,39.580078125 45.263671875,41.07421875 44.94140625,42.71484375 44.0478515625,44.0478515625 42.71484375,44.94140625 41.07421875,45.263671875 39.580078125,44.6484375 38.96484375,43.154296875 39.287109375,41.513671875 40.1806640625,40.1806640625 41.513671875,39.287109375 43.154296875,38.96484375z M10.517578125,31.58203125L12.158203125,31.9189453125 13.4912109375,32.8271484375 14.3994140625,34.16015625 14.736328125,35.80078125 14.12109375,37.294921875 12.626953125,37.91015625 10.986328125,37.5732421875 9.6533203125,36.6650390625 8.7451171875,35.33203125 8.408203125,33.69140625 9.0380859375,32.2119140625 10.517578125,31.58203125z M50.537109375,27.36328125L52.0166015625,27.9931640625 52.646484375,29.47265625 52.3095703125,31.1279296875 51.4013671875,32.4755859375 50.068359375,33.369140625 48.427734375,33.69140625 46.93359375,33.076171875 46.318359375,31.58203125 46.6552734375,29.94140625 47.5634765625,28.6083984375 48.896484375,27.7001953125 50.537109375,27.36328125z M54.755859375,22.32421875L30.52734375,38.466796875 30.52734375,62.4609375 54.755859375,46.318359375 54.755859375,22.32421875z M4.21875047683716,22.32421875L4.21875047683716,46.318359375 28.41796875,62.4609375 28.41796875,38.466796875 4.21875047683716,22.32421875z M29.47265625,17.900390625L30.8642578125,18.10546875 32.2412109375,18.720703125 33.28125,19.716796875 33.69140625,21.064453125 33.28125,22.412109375 32.2412109375,23.408203125 30.8642578125,24.0234375 29.47265625,24.228515625 28.06640625,24.0234375 26.7041015625,23.408203125 25.6640625,22.412109375 25.25390625,21.064453125 25.6640625,19.716796875 26.7041015625,18.720703125 28.06640625,18.10546875 29.47265625,17.900390625z M29.47265625,4.21874952316284L5.15625047683716,20.419921875 29.47265625,36.650390625 53.7890625,20.419921875 29.47265625,4.21874952316284z M29.47265625,0L58.9453125,18.955078125 58.9453125,48.427734375 29.47265625,67.3828125 0,48.427734375 0,18.955078125 29.47265625,0z" />
    </g>
  </g>
</svg>