<?xml version="1.0" encoding="utf-8"?>
<!DOCTYPE svg PUBLIC "-//W3C//DTD SVG 1.1//EN" "http://www.w3.org/Graphics/SVG/1.1/DTD/svg11.dtd">
<svg width="67.3828125000007" height="67.3828125" xmlns="http://www.w3.org/2000/svg" xmlns:xlink="http://www.w3.org/1999/xlink" xmlns:xml="http://www.w3.org/XML/1998/namespace" version="1.1">
  <g>
    <g>
      <path style="fill:#FF0000;fill-opacity:1" d="M27.36328125,48.427734375L28.4326171875,48.7646484375 29.8681640625,49.4970703125 31.6259765625,50.21484375 33.69140625,50.537109375 35.7421875,50.21484375 37.5146484375,49.4970703125 38.9501953125,48.7646484375 40.01953125,48.427734375 41.4990234375,49.0576171875 42.12890625,50.537109375 41.66015625,51.826171875 40.4296875,52.880859375 38.73046875,53.701171875 36.85546875,54.287109375 35.0830078125,54.638671875 33.69140625,54.755859375 32.2998046875,54.638671875 30.52734375,54.287109375 28.65234375,53.701171875 26.953125,52.880859375 25.72265625,51.826171875 25.25390625,50.537109375 25.8837890625,49.0576171875 27.36328125,48.427734375z M53.701171875,39.990234375L51.8115234375,41.5283203125 49.453125,42.099609375 41.044921875,42.099609375 39.31640625,41.8212890625 37.763671875,40.986328125 37.1923828125,42.275390625 36.2548828125,43.30078125 35.0537109375,43.974609375 33.662109375,44.208984375 32.2705078125,43.974609375 31.0693359375,43.30078125 30.1318359375,42.275390625 29.560546875,40.986328125 28.037109375,41.8212890625 26.30859375,42.099609375 17.87109375,42.099609375 15.5419921875,41.54296875 13.681640625,40.048828125 13.681640625,50.56640625 17.16796875,55.869140625 21.826171875,59.8388671875 24.510498046875,61.270751953125 27.4072265625,62.314453125 30.479736328125,62.95166015625 33.69140625,63.1640625 36.903076171875,62.95166015625 39.9755859375,62.314453125 42.8723106384277,61.270751953125 45.556640625,59.8388671875 50.21484375,55.869140625 53.701171875,50.56640625 53.701171875,39.990234375z M37.880859375,35.80078125L37.880859375,36.85546875 38.1298828125,38.0712890625 38.818359375,39.08203125 39.8291015625,39.7705078125 41.044921875,40.01953125 49.453125,40.01953125 50.6689453125,39.7705078125 51.6796875,39.08203125 52.3681640625,38.0712890625 52.6171875,36.85546875 52.6171875,35.80078125 37.880859375,35.80078125z M14.70703125,35.80078125L14.70703125,36.85546875 14.9560546875,38.0712890625 15.64453125,39.08203125 16.6552734375,39.7705078125 17.87109375,40.01953125 26.30859375,40.01953125 27.5244140625,39.7705078125 28.5205078125,39.08203125 29.1943359375,38.0712890625 29.443359375,36.85546875 29.443359375,35.80078125 14.70703125,35.80078125z M33.662109375,33.69140625L32.16796875,34.306640625 31.552734375,35.80078125 31.552734375,36.85546875 31.2890625,38.525390625 30.498046875,40.01953125 36.826171875,40.01953125 36.03515625,38.525390625 35.771484375,36.85546875 35.771484375,35.80078125 35.15625,34.306640625 33.662109375,33.69140625z M37.060546875,14.091796875L29.560546875,20.595703125 25.95703125,23.232421875 22.1923828125,25.0048828125 18.134765625,26.015625 13.681640625,26.337890625 13.681640625,33.69140625 18.92578125,33.69140625 18.92578125,30.52734375 19.1748046875,29.3115234375 19.86328125,28.30078125 20.8740234375,27.6123046875 22.08984375,27.36328125 23.3056640625,27.6123046875 24.31640625,28.30078125 25.0048828125,29.3115234375 25.25390625,30.52734375 25.25390625,33.69140625 30.029296875,33.69140625 31.58203125,32.16796875 33.662109375,31.58203125 35.7421875,32.16796875 37.294921875,33.69140625 42.099609375,33.69140625 42.099609375,30.52734375 42.3486328125,29.3115234375 43.037109375,28.30078125 44.0478515625,27.6123046875 45.263671875,27.36328125 46.4794921875,27.6123046875 47.4755859375,28.30078125 48.1494140625,29.3115234375 48.3984375,30.52734375 48.3984375,33.69140625 53.701171875,33.69140625 53.701171875,26.07421875 48.5595703125,24.6533203125 43.9306640625,22.1044921875 40.01953125,18.544921875 37.060546875,14.091796875z M33.69140625,4.21874952316284L30.179443359375,4.48242473602295 26.7919921875,5.2734375 23.587646484375,6.54419231414795 20.625,8.2470703125 17.9479961395264,10.367431640625 15.6005859375,12.890625 13.641357421875,15.76904296875 12.12890625,18.955078125 9.462890625,18.955078125 7.4267578125,19.365234375 5.7568359375,20.4931640625 4.62890625,22.177734375 4.21875,24.228515625 4.21875,43.154296875 4.41650390625,45.523681640625 5.009765625,47.7685546875 7.236328125,51.73828125 10.6494140625,54.7705078125 14.970703125,56.54296875 13.06640625,53.90625 11.572265625,51.03515625 11.572265625,24.228515625 14.736328125,24.228515625 18.6987285614014,23.8513202667236 22.32421875,22.7197265625 25.67138671875,20.892333984375 28.798828125,18.427734375 37.8515625,10.60546875 40.8251953125,16.080322265625 44.765625,20.1416015625 49.7387657165527,22.833251953125 55.810546875,24.19921875 55.810546875,51.03515625 54.990234375,52.4560546875 54.2431640625,53.818359375 53.4375,55.166015625 52.412109375,56.54296875 56.7333984375,54.755859375 60.1318359375,51.7236328125 62.3583984375,47.75390625 62.962646484375,45.50537109375 63.1640625,43.154296875 63.1640625,24.228515625 62.75390625,22.177734375 61.6259765625,20.4931640625 59.9560546875,19.365234375 57.919921875,18.955078125 55.25390625,18.955078125 53.7414512634277,15.76904296875 51.7822265625,12.890625 49.4348106384277,10.367431640625 46.7578125,8.2470703125 43.7951622009277,6.54419231414795 40.5908203125,5.2734375 37.203369140625,4.48242473602295 33.69140625,4.21874952316284z M33.69140625,0L37.452392578125,0.256350547075272 41.1181640625,1.02539086341858 44.6191368103027,2.27417278289795 47.8857421875,3.96972608566284 50.8923301696777,6.09009075164795 53.61328125,8.61328125 55.986328125,11.50634765625 57.94921875,14.736328125 61.6259765625,15.4833984375 64.6142578125,17.5341796875 66.6357421875,20.56640625 67.3828125,24.228515625 67.3828125,43.154296875 67.0751953125,46.497802734375 66.15234375,49.6728515625 64.6875,52.591552734375 62.75390625,55.166015625 60.391845703125,57.352294921875 57.6416015625,59.1064453125 54.5764122009277,60.340576171875 51.26953125,60.966796875 47.3510704040527,63.709716796875 43.037109375,65.7275390625 38.44482421875,66.968994140625 33.69140625,67.3828125 28.93798828125,66.968994140625 24.345703125,65.7275390625 20.0317363739014,63.709716796875 16.11328125,60.966796875 12.806396484375,60.340576171875 9.7412109375,59.1064453125 6.99096584320068,57.352294921875 4.62890625,55.166015625 2.6953125,52.591552734375 1.23046875,49.6728515625 0.307616829872131,46.497802734375 0,43.154296875 0,24.228515625 0.7470703125,20.56640625 2.7685546875,17.5341796875 5.7568359375,15.4833984375 9.43359375,14.736328125 11.396484375,11.50634765625 13.76953125,8.61328125 16.490478515625,6.09009075164795 19.4970703125,3.96972608566284 22.7600078582764,2.27417278289795 26.25,1.02539086341858 29.912109375,0.256350547075272 33.69140625,0z" />
    </g>
  </g>
</svg>