<?xml version="1.0" encoding="utf-8"?>
<!DOCTYPE svg PUBLIC "-//W3C//DTD SVG 1.1//EN" "http://www.w3.org/Graphics/SVG/1.1/DTD/svg11.dtd">
<svg width="67.3828125000011" height="67.3828125" xmlns="http://www.w3.org/2000/svg" xmlns:xlink="http://www.w3.org/1999/xlink" xmlns:xml="http://www.w3.org/XML/1998/namespace" version="1.1">
  <g>
    <g>
      <path style="fill:#FF0000;fill-opacity:1" d="M53.26171875,46.318359375L54.755859375,47.8125 47.8125,54.755859375 46.318359375,53.26171875 53.26171875,46.318359375z M46.318359375,44.208984375L47.7978515625,44.8388671875 48.427734375,46.318359375 47.8125,47.8125 46.318359375,48.427734375 44.8388671875,47.7978515625 44.208984375,46.318359375 44.8388671875,44.8388671875 46.318359375,44.208984375z M44.82421875,37.91015625L46.318359375,39.404296875 39.404296875,46.318359375 37.91015625,44.82421875 44.82421875,37.91015625z M45.263671875,34.74609375L34.74609375,45.263671875 47.373046875,57.919921875 57.919921875,47.373046875 45.263671875,34.74609375z M33.69140625,31.58203125L35.185546875,32.197265625 35.80078125,33.69140625 35.185546875,35.185546875 33.69140625,35.80078125 32.197265625,35.185546875 31.58203125,33.69140625 32.197265625,32.197265625 33.69140625,31.58203125z M37.91015625,29.47265625L41.7041015625,30.2197265625 44.970703125,32.28515625 45.6591796875,32.9736328125 46.318359375,33.69140625 62.548828125,49.921875 63.1640625,51.416015625 62.548828125,52.91015625 52.91015625,62.548828125 51.416015625,63.1640625 49.921875,62.548828125 33.69140625,46.318359375 32.9736328125,45.6591796875 32.28515625,44.970703125 30.2197265625,41.7041015625 29.47265625,37.91015625 30.703125,36.6796875 32.0654296875,37.587890625 33.69140625,37.91015625 35.33203125,37.5732421875 36.6650390625,36.6650390625 37.5732421875,35.33203125 37.91015625,33.69140625 37.587890625,32.0654296875 36.6796875,30.703125 37.91015625,29.47265625z M24.228515625,18.955078125L24.9755859375,19.2626953125 25.283203125,20.009765625 24.9609375,20.7421875 28.125,23.90625 20.7421875,24.9609375 20.009765625,25.283203125 19.2626953125,24.9755859375 18.955078125,24.228515625 19.248046875,23.466796875 22.96875,19.74609375 23.5107421875,19.2041015625 24.228515625,18.955078125z M18.955078125,16.845703125L17.4609375,17.4609375 16.845703125,18.955078125 17.16796875,20.009765625 16.845703125,21.064453125 16.845703125,26.30859375 17.1533203125,27.0556640625 17.900390625,27.36328125 18.7353515625,26.9384765625 18.955078125,25.986328125 19.5703125,26.25 20.244140625,26.30859375 20.537109375,26.25 24.609375,30.29296875 25.25390625,30.9228515625 25.8984375,31.552734375 27.7734375,34.482421875 28.41796875,37.91015625 28.61572265625,40.023193359375 29.208984375,42.0263671875 31.40625,45.5859375 32.16796875,46.34765625 32.958984375,47.080078125 49.189453125,63.310546875 50.21484375,63.984375 51.416015625,64.21875 52.6171875,63.984375 53.642578125,63.310546875 63.310546875,53.642578125 63.984375,52.6171875 64.21875,51.416015625 63.984375,50.21484375 63.310546875,49.189453125 47.138671875,33.017578125 46.376953125,32.2119140625 45.615234375,31.435546875 42.041015625,29.2236328125 40.01220703125,28.6193866729736 37.91015625,28.41796875 34.482421875,27.7587890625 31.5234375,25.869140625 30.8642578125,25.1953125 30.234375,24.521484375 28.2421875,22.5146484375 26.25,20.537109375 26.30859375,20.2734375 26.30859375,20.009765625 25.72265625,18.5302734375 24.228515625,17.900390625 23.5986328125,18.017578125 23.02734375,18.310546875 22.2802734375,17.2412109375 21.064453125,16.845703125 20.009765625,17.16796875 18.955078125,16.845703125z M10.546875,4.21874952316284L9.052734375,4.83398485183716 4.833984375,9.052734375 4.21875,10.546875 4.8486328125,12.01171875 6.328125,12.626953125 7.529296875,12.1875 12.626953125,14.736328125 14.736328125,12.626953125 12.1875,7.529296875 12.626953125,6.26953125 12.01171875,4.81933641433716 10.546875,4.21874952316284z M10.517578125,0L12.978515625,0.483398199081421 14.9853515625,1.81640672683716 16.34765625,3.80859398841858 16.845703125,6.26953125 16.7578125,7.23632764816284 19.482421875,12.685546875 20.009765625,12.744140625 21.064453125,12.626953125 23.8330078125,13.271484375 26.044921875,15.05859375 28.30078125,16.6845703125 29.4140625,19.248046875 32.724609375,22.587890625 35.009765625,24.521484375 36.36474609375,25.0927753448486 37.91015625,25.283203125 40.5322227478027,25.5212421417236 43.06640625,26.2353515625 45.4321250915527,27.3889179229736 47.548828125,28.9453125 48.5009765625,29.8828125 49.423828125,30.849609375 65.537109375,46.93359375 66.8994140625,48.984375 67.3828125,51.416015625 66.92138671875,53.8330078125 65.537109375,55.869140625 55.869140625,65.537109375 53.8330039978027,66.92138671875 51.416015625,67.3828125 48.984375,66.8994140625 46.93359375,65.537109375 30.849609375,49.423828125 29.8828125,48.5009765625 28.9453125,47.548828125 27.388916015625,45.43212890625 26.2353515625,43.06640625 25.521240234375,40.5322265625 25.283203125,37.91015625 24.84375,35.7568359375 23.73046875,33.9404296875 22.236328125,32.34375 20.654296875,30.8203125 19.3359355926514,31.3916015625 17.900390625,31.58203125 15.8349609375,31.171875 14.1650390625,30.0439453125 13.037109375,28.3740234375 12.626953125,26.30859375 12.6123046875,23.9501953125 12.59765625,21.591796875 12.6708984375,20.80078125 12.744140625,20.009765625 12.7294921875,19.74609375 12.685546875,19.482421875 9.9755859375,18.1201171875 7.265625,16.7578125 6.328125,16.845703125 3.8525390625,16.34765625 1.845703125,15 0.498046875,12.9931640625 0,10.517578125 0.4833984375,8.1005859375 1.845703125,6.064453125 6.064453125,1.84570276737213 8.1005859375,0.483398199081421 10.517578125,0z" />
    </g>
  </g>
</svg>