<?xml version="1.0" encoding="utf-8"?>
<!DOCTYPE svg PUBLIC "-//W3C//DTD SVG 1.1//EN" "http://www.w3.org/Graphics/SVG/1.1/DTD/svg11.dtd">
<svg width="12.2167968750008" height="41.3671875" xmlns="http://www.w3.org/2000/svg" xmlns:xlink="http://www.w3.org/1999/xlink" xmlns:xml="http://www.w3.org/XML/1998/namespace" version="1.1">
  <g>
    <g>
      <path style="fill:#FF0000;fill-opacity:1" d="M9.111328125,0L10.4150390625,0.64453125 12.216796875,1.69921875 11.54296875,10.13671875 7.1484375,12.978515625 6.01318264007568,15.12451171875 5.419921875,17.28515625 5.28808498382568,18.99169921875 5.244140625,22.001953125 5.59570217132568,25.49560546875 6.650390625,27.7734375 7.18688917160034,28.275146484375 8.18115139007568,29.0185546875 9.63317775726318,30.003662109375 11.54296875,31.23046875 12.216796875,39.697265625 10.927734375,40.42236328125 9.111328125,41.3671875 5.69824123382568,40.9716796875 2.431640625,39.78515625 1.36779773235321,36.123046875 0.607909977436066,31.845703125 0.151977330446243,26.953125 0,21.4453125 0.153808236122131,16.7724609375 0.615234375,11.3671875 1.00341796875,8.2086181640625 1.435546875,5.52978515625 1.91162109375,3.3306884765625 2.431640625,1.611328125 5.69824123382568,0.41748046875 9.111328125,0z" />
    </g>
  </g>
</svg>