<?xml version="1.0" encoding="utf-8"?>
<!DOCTYPE svg PUBLIC "-//W3C//DTD SVG 1.1//EN" "http://www.w3.org/Graphics/SVG/1.1/DTD/svg11.dtd">
<svg width="42.59765625" height="43.037109375" xmlns="http://www.w3.org/2000/svg" xmlns:xlink="http://www.w3.org/1999/xlink" xmlns:xml="http://www.w3.org/XML/1998/namespace" version="1.1">
  <g>
    <g>
      <path style="fill:#FF0000;fill-opacity:1" d="M1.93359375,22.001953125L1.11328125,22.55859375 0.908203125,24.755859375 1.19384765625,26.25 2.05078125,28.037109375 2.75390625,28.30078125 1.962890625,26.14013671875 1.69921875,24.697265625 1.93359375,22.001953125z M3.544921875,21.328125L2.900390625,21.50390625 2.51953125,24.375 2.77587890625,26.0302734375 3.544921875,28.4765625 4.365234375,28.4765625 3.50830006599426,25.62744140625 3.22265625,23.466796875 3.544921875,21.328125z M5.625,19.130859375L4.57031154632568,21.09375 4.21875,23.876953125 4.80468654632568,27.26806640625 6.5625,29.70703125 3.85986256599426,29.3994140625 2.080078125,28.88671875 0.52001953125,27.44384765625 0,25.166015625 0.4248046875,22.84423828125 1.69921875,21.2109375 1.966552734375,21.0589599609375 2.7099609375,20.66162109375 3.929443359375,20.0189208984375 5.625,19.130859375z M30.8203125,11.630859375L31.46484375,16.519775390625 32.255859375,20.7568359375 33.193359375,24.342041015625 34.27734375,27.275390625 34.91455078125,24.60205078125 35.126953125,21.73828125 34.86328125,18.72802734375 34.072265625,15.908203125 32.65869140625,13.3154296875 30.8203125,11.630859375z M29.970703125,6.298828125L27.61962890625,8.76709175109863 24.55078125,11.07421875 18.369140625,14.794921875 16.77978515625,15.9686279296875 15.64453125,17.23388671875 14.96337890625,18.5906982421875 14.736328125,20.0390625 14.970703125,22.470703125 15.673828125,24.55078125 17.1240215301514,26.40380859375 19.130859375,27.275390625 20.0317363739014,27.32666015625 22.3828125,27.421875 29.1943359375,28.27880859375 35.09765625,30.263671875 32.76123046875,25.81787109375 30.966796875,20.33203125 29.912109375,14.89013671875 29.560546875,9.638671875 29.970703125,6.298828125z M33.486328125,0L34.9090576171875,0.3955078125 36.30615234375,1.58203125 37.6776123046875,3.5595703125 39.0234375,6.328125 40.6127891540527,10.7153339385986 41.748046875,15.322265625 42.3852500915527,19.541015625 42.59765625,23.701171875 42.4438438415527,26.75537109375 41.982421875,29.4140625 41.4385948181152,31.10595703125 40.7446250915527,32.314453125 39.9005088806152,33.03955078125 38.90625,33.28125 38.02001953125,32.96630859375 36.474609375,32.021484375 35.072021484375,31.278076171875 33.1494140625,30.6005859375 30.706787109375,29.989013671875 27.744140625,29.443359375 22.74169921875,28.7841796875 18.3984375,28.564453125 17.5854473114014,29.01123046875 17.314453125,30.3515625 17.783203125,32.0947265625 18.251953125,33.8671875 18.9990234375,35.302734375 19.74609375,36.5625 19.6728515625,36.9140625 19.599609375,37.265625 20.2880859375,38.4375 20.9765625,39.755859375 20.7568359375,40.4296875 20.537109375,41.07421875 20.9033203125,41.8798828125 21.26953125,42.509765625 20.9179668426514,42.9052734375 19.86328125,43.037109375 17.2192363739014,42.5830078125 15.498046875,41.220703125 14.74365234375,39.49951171875 14.00390625,36.5625 13.2073974609375,33.665771484375 12.16552734375,31.5966796875 10.8782958984375,30.355224609375 9.345703125,29.94140625 8.96484375,29.9853515625 8.61328125,30.029296875 6.97265577316284,29.600830078125 5.80078029632568,28.3154296875 5.09765577316284,26.173095703125 4.86328125,23.173828125 5.10314893722534,21.3482666015625 5.82275295257568,19.79736328125 7.02209424972534,18.5211181640625 8.701171875,17.51953125 11.18408203125,16.57470703125 14.6484375,15.205078125 19.0063457489014,12.978515625 23.759765625,9.814453125 27.72216796875,6.68701314926147 30.29296875,4.04296875 30.7891845703125,2.274169921875 31.48681640625,1.0107421875 32.3858642578125,0.252685546875 33.486328125,0z" />
    </g>
  </g>
</svg>