<?xml version="1.0" encoding="utf-8"?>
<!DOCTYPE svg PUBLIC "-//W3C//DTD SVG 1.1//EN" "http://www.w3.org/Graphics/SVG/1.1/DTD/svg11.dtd">
<svg width="12.216796875" height="41.3671875" xmlns="http://www.w3.org/2000/svg" xmlns:xlink="http://www.w3.org/1999/xlink" xmlns:xml="http://www.w3.org/XML/1998/namespace" version="1.1">
  <g>
    <g>
      <path style="fill:#FF0000;fill-opacity:1" d="M3.10546875,0L6.51855373382568,0.3955078125 9.78515625,1.58203125 10.8489990234375,5.24414110183716 11.60888671875,9.52148532867432 12.0648193359375,14.4140634536743 12.216796875,19.921875 12.06298828125,24.5947265625 11.6015625,30 11.21337890625,33.1585693359375 10.78125,35.83740234375 10.30517578125,38.0364990234375 9.78515625,39.755859375 6.51855373382568,40.94970703125 3.10546875,41.3671875 1.8017578125,40.72265625 0,39.66796875 0.673828125,31.23046875 5.068359375,28.388671875 6.20361232757568,26.24267578125 6.796875,24.08203125 6.92870998382568,22.37548828125 6.97265625,19.365234375 6.62109279632568,15.87158203125 5.56640625,13.59375 5.02990674972534,13.0920419692993 4.03564357757568,12.3486347198486 2.58361768722534,11.3635263442993 0.673828125,10.13671875 0,1.669921875 1.28906226158142,0.94482421875 3.10546875,0z" />
    </g>
  </g>
</svg>