<?xml version="1.0" encoding="utf-8"?>
<!DOCTYPE svg PUBLIC "-//W3C//DTD SVG 1.1//EN" "http://www.w3.org/Graphics/SVG/1.1/DTD/svg11.dtd">
<svg width="56.8652343750004" height="67.3828125" xmlns="http://www.w3.org/2000/svg" xmlns:xlink="http://www.w3.org/1999/xlink" xmlns:xml="http://www.w3.org/XML/1998/namespace" version="1.1">
  <g>
    <g>
      <path style="fill:#FF0000;fill-opacity:1" d="M4.21875,46.318359375L4.21875,51.181640625 4.48974609375,53.551025390625 5.302734375,55.7958984375 8.173828125,59.619140625 12.216796875,62.2119140625 14.501953125,62.926025390625 16.845703125,63.1640625 19.1931133270264,62.926025390625 21.4892578125,62.2119140625 25.5322265625,59.6337890625 28.388671875,55.8251953125 29.20166015625,53.572998046875 29.47265625,51.181640625 29.47265625,46.318359375 4.21875,46.318359375z M4.21875,42.12890625L4.21875,44.208984375 29.47265625,44.208984375 29.47265625,42.12890625 4.21875,42.12890625z M31.58203125,40.01953125L31.58203125,50.537109375 31.38427734375,53.00537109375 30.791015625,55.37109375 29.80224609375,57.59765625 28.41796875,59.6484375 29.8388671875,60.6884765625 31.58203125,61.0546875 48.427734375,61.0546875 50.068359375,60.732421875 51.4013671875,59.8388671875 52.3095703125,58.505859375 52.646484375,56.865234375 52.646484375,40.01953125 31.58203125,40.01953125z M4.21875,37.91015625L4.21875,40.01953125 29.47265625,40.01953125 29.47265625,37.91015625 4.21875,37.91015625z M31.58203125,35.80078125L31.58203125,37.91015625 52.646484375,37.91015625 52.646484375,35.80078125 31.58203125,35.80078125z M29.47265625,4.21874952316284L28.7255859375,4.5263671875 28.41796875,5.2734375 28.7255859375,6.0205078125 29.47265625,6.328125 29.47265625,12.626953125 29.7802734375,14.8974599838257 30.556640625,16.58203125 31.58203125,17.87109375 32.607421875,18.92578125 33.3837890625,19.9365234375 33.69140625,21.064453125 33.3984375,22.236328125 32.63671875,23.173828125 30.46875,25.458984375 28.8134765625,27.861328125 27.744140625,30.556640625 27.36328125,33.69140625 52.646484375,33.69140625 52.265625,30.556640625 51.181640625,27.861328125 49.51171875,25.458984375 47.373046875,23.173828125 46.611328125,22.236328125 46.318359375,21.064453125 46.6259765625,19.9365234375 47.40234375,18.92578125 48.427734375,17.87109375 49.453125,16.58203125 50.2294921875,14.8974599838257 50.537109375,12.626953125 50.537109375,6.328125 51.2841796875,6.0205078125 51.591796875,5.2734375 51.2841796875,4.5263671875 50.537109375,4.21874952316284 29.47265625,4.21874952316284z M29.47265625,0L50.537109375,0 52.587890625,0.410156488418579 54.2724609375,1.53808617591858 55.400390625,3.22265577316284 55.810546875,5.2734375 55.5322265625,6.9287109375 54.755859375,8.408203125 54.755859375,10.546875 54.66796875,13.3886709213257 54.228515625,16.0107421875 53.1884765625,18.5302734375 51.298828125,21.03515625 53.6608848571777,23.748779296875 55.4150390625,26.7919921875 56.502685546875,30.1208515167236 56.865234375,33.69140625 56.865234375,56.865234375 56.19140625,60.1171875 54.3603515625,62.783203125 51.6650390625,64.599609375 48.427734375,65.2734375 31.58203125,65.2734375 29.208984375,64.9365234375 27.041015625,63.92578125 24.737548828125,65.401611328125 22.2216796875,66.4892578125 19.5666484832764,67.159423828125 16.845703125,67.3828125 13.465576171875,67.049560546875 10.2978515625,66.0498046875 7.43041896820068,64.478759765625 4.951171875,62.431640625 2.904052734375,59.952392578125 1.3330078125,57.0849609375 0.333251595497131,53.917236328125 0,50.537109375 0,33.69140625 23.173828125,33.69140625 23.5327129364014,30.1245136260986 24.609375,26.806640625 26.3525390625,23.76708984375 28.7109375,21.03515625 26.8212890625,18.5302734375 25.78125,16.0107421875 25.341796875,13.3886709213257 25.25390625,10.546875 25.25390625,8.408203125 24.4921875,6.9287109375 24.228515625,5.2734375 24.638671875,3.22265577316284 25.7666015625,1.53808617591858 27.4365234375,0.410156488418579 29.47265625,0z" />
    </g>
  </g>
</svg>