<?xml version="1.0" encoding="utf-8"?>
<!DOCTYPE svg PUBLIC "-//W3C//DTD SVG 1.1//EN" "http://www.w3.org/Graphics/SVG/1.1/DTD/svg11.dtd">
<svg width="61.0546875000006" height="67.3828125" xmlns="http://www.w3.org/2000/svg" xmlns:xlink="http://www.w3.org/1999/xlink" xmlns:xml="http://www.w3.org/XML/1998/namespace" version="1.1">
  <g>
    <g>
      <path style="fill:#FF0000;fill-opacity:1" d="M8.408203125,52.646484375L16.845703125,52.646484375 16.845703125,54.755859375 8.408203125,54.755859375 8.408203125,52.646484375z M8.408203125,46.318359375L44.208984375,46.318359375 44.208984375,48.427734375 8.408203125,48.427734375 8.408203125,46.318359375z M8.408203125,40.01953125L42.099609375,40.01953125 42.099609375,42.12890625 8.408203125,42.12890625 8.408203125,40.01953125z M8.408203125,33.69140625L46.318359375,33.69140625 46.318359375,35.80078125 8.408203125,35.80078125 8.408203125,33.69140625z M8.408203125,27.36328125L44.208984375,27.36328125 44.208984375,29.47265625 8.408203125,29.47265625 8.408203125,27.36328125z M8.408203125,21.064453125L42.099609375,21.064453125 42.099609375,23.173828125 8.408203125,23.173828125 8.408203125,21.064453125z M8.408203125,14.736328125L46.318359375,14.736328125 46.318359375,16.845703125 8.408203125,16.845703125 8.408203125,14.736328125z M8.408203125,8.4375L27.36328125,8.4375 27.36328125,10.517578125 8.408203125,10.517578125 8.408203125,8.4375z M4.21875,4.21874952316284L4.21875,56.865234375 4.716796875,59.326171875 6.064453125,61.318359375 8.056640625,62.666015625 10.517578125,63.1640625 12.978515625,62.666015625 14.9853515625,61.318359375 16.34765625,59.326171875 16.845703125,56.865234375 50.537109375,56.865234375 50.537109375,4.21874952316284 4.21875,4.21874952316284z M0,0L54.755859375,0 54.755859375,56.865234375 61.0546875,56.865234375 60.849609375,58.9892578125 60.234375,60.966796875 57.978515625,64.306640625 54.638671875,66.5625 52.6611289978027,67.177734375 50.537109375,67.3828125 10.517578125,67.3828125 8.3935546875,67.177734375 6.416015625,66.5625 3.076171875,64.306640625 0.8203125,60.966796875 0.205077767372131,58.9892578125 0,56.865234375 0,0z" />
    </g>
  </g>
</svg>