<?xml version="1.0" encoding="utf-8"?>
<!DOCTYPE svg PUBLIC "-//W3C//DTD SVG 1.1//EN" "http://www.w3.org/Graphics/SVG/1.1/DTD/svg11.dtd">
<svg width="43.9453125000012" height="66.97265625" xmlns="http://www.w3.org/2000/svg" xmlns:xlink="http://www.w3.org/1999/xlink" xmlns:xml="http://www.w3.org/XML/1998/namespace" version="1.1">
  <g>
    <g>
      <path style="fill:#FF0000;fill-opacity:1" d="M31.40625,52.32421875L32.87109375,52.9541015625 33.486328125,54.43359375 32.87109375,55.8984375 31.40625,56.513671875 29.9267578125,55.8984375 29.296875,54.43359375 29.912109375,52.939453125 31.40625,52.32421875z M25.107421875,46.0546875L26.5869140625,46.669921875 27.216796875,48.134765625 26.6015625,49.62890625 25.107421875,50.244140625 23.642578125,49.6142578125 23.02734375,48.134765625 23.642578125,46.669921875 25.107421875,46.0546875z M18.837890625,39.78515625L20.302734375,40.400390625 20.91796875,41.865234375 20.302734375,43.3447265625 18.837890625,43.974609375 17.3583984375,43.359375 16.7578125,41.865234375 17.373046875,40.400390625 18.837890625,39.78515625z M10.458984375,33.486328125L11.1474609375,39.43359375 13.1396484375,44.765625 16.2890625,49.5263671875 20.44921875,53.7890625 22.3388671875,55.693359375 23.818359375,57.802734375 24.7705078125,60.1611328125 25.107421875,62.8125 39.755859375,62.8125 39.0673828125,56.865234375 37.08984375,51.5478515625 33.955078125,46.787109375 29.794921875,42.509765625 27.9052734375,40.6201171875 26.42578125,38.525390625 25.458984375,36.15234375 25.107421875,33.486328125 20.91796875,33.486328125 20.947265625,34.5703125 20.9765625,35.654296875 20.830078125,37.1630859375 20.302734375,38.49609375 19.306640625,39.43359375 17.783203125,39.78515625 16.259765625,39.43359375 15.2783203125,38.49609375 14.7509765625,37.1630859375 14.58984375,35.654296875 14.619140625,34.5703125 14.6484375,33.486328125 10.458984375,33.486328125z M21.97265625,10.458984375L24.7998046875,11.044921875 27.12890625,12.626953125 28.7109375,14.9560546875 29.296875,17.783203125 28.9892578125,18.5302734375 28.2421875,18.837890625 27.5244140625,18.515625 27.216796875,17.783203125 26.806640625,15.7470703125 25.6787109375,14.0917978286743 24.0087890625,12.978515625 21.97265625,12.568359375 21.2255859375,12.2607421875 20.91796875,11.513671875 21.2255859375,10.7666015625 21.97265625,10.458984375z M16.7578125,8.37890625L18.837890625,8.37890625 18.837890625,27.216796875 16.7578125,27.216796875 16.7578125,8.37890625z M17.783203125,4.18945360183716L17.05078125,4.49706983566284 16.7578125,5.244140625 16.7578125,8.37890625 13.59375,8.37890625 9.9462890625,9.1259765625 6.9580078125,11.1474609375 4.9365234375,14.1357421875 4.189453125,17.783203125 4.9365234375,21.4306640625 6.9580078125,24.43359375 9.9462890625,26.4697265625 13.59375,27.216796875 16.7578125,27.216796875 16.7578125,36.650390625 17.0654296875,37.3681640625 17.783203125,37.67578125 18.515625,37.3681640625 18.837890625,36.650390625 18.837890625,27.216796875 21.97265625,27.216796875 25.6494140625,26.4697265625 28.6376953125,24.4482421875 30.6591796875,21.4599609375 31.40625,17.783203125 30.6591796875,14.1357421875 28.623046875,11.1474609375 25.6201171875,9.1259765625 21.97265625,8.37890625 18.837890625,8.37890625 18.837890625,5.244140625 18.5302734375,4.49706983566284 17.783203125,4.18945360183716z M17.783203125,0L19.5556640625,0.322265625 21.1083984375,1.20117211341858 22.2802734375,2.53418016433716 22.939453125,4.21875 25.517578125,4.63623332977295 27.919921875,5.537109375 31.93359375,8.5107421875 34.6142578125,12.7294921875 35.350341796875,15.186767578125 35.595703125,17.783203125 35.15625,21.2109375 33.9111328125,24.3603515625 31.93359375,27.099609375 29.296875,29.296875 29.296875,33.486328125 29.5458984375,35.2001953125 30.234375,36.7236328125 31.2451171875,38.0712890625 32.4609375,39.287109375 34.27734375,40.927734375 36.005859375,42.65625 39.415283203125,47.0947265625 41.9091796875,51.97265625 43.4362754821777,57.2314453125 43.9453125,62.8125 43.9453125,66.97265625 20.91796875,66.97265625 20.91796875,62.8125 20.6689453125,61.11328125 19.9951171875,59.6044921875 18.9990234375,58.2421875 17.783203125,57.01171875 15.966796875,55.37109375 14.23828125,53.642578125 10.8251953125,49.2041015625 8.3203125,44.326171875 6.78222560882568,39.0673828125 6.26953125,33.486328125 6.26953125,29.296875 3.6474609375,27.099609375 1.6845703125,24.345703125 0.439453125,21.1962890625 0,17.783203125 0.245360970497131,15.186767578125 0.9814453125,12.7294921875 3.662109375,8.5107421875 7.67578125,5.537109375 10.078125,4.63623332977295 12.65625,4.21875 13.3154296875,2.53418016433716 14.47265625,1.20117211341858 15.99609375,0.322265625 17.783203125,0z" />
    </g>
  </g>
</svg>