<?xml version="1.0" encoding="utf-8"?>
<!DOCTYPE svg PUBLIC "-//W3C//DTD SVG 1.1//EN" "http://www.w3.org/Graphics/SVG/1.1/DTD/svg11.dtd">
<svg width="67.3828125000017" height="67.3828125" xmlns="http://www.w3.org/2000/svg" xmlns:xlink="http://www.w3.org/1999/xlink" xmlns:xml="http://www.w3.org/XML/1998/namespace" version="1.1">
  <g>
    <g>
      <path style="fill:#FF0000;fill-opacity:1" d="M50.537109375,54.755859375L49.04296875,55.37109375 48.427734375,56.865234375 48.427734375,61.0546875 49.04296875,62.548828125 50.537109375,63.1640625 52.03125,62.548828125 52.646484375,61.0546875 52.646484375,56.865234375 52.03125,55.37109375 50.537109375,54.755859375z M16.845703125,54.755859375L15.3515625,55.37109375 14.736328125,56.865234375 14.736328125,61.0546875 15.3515625,62.548828125 16.845703125,63.1640625 18.33984375,62.548828125 18.955078125,61.0546875 18.955078125,56.865234375 18.33984375,55.37109375 16.845703125,54.755859375z M56.865234375,48.427734375L55.37109375,49.04296875 54.755859375,50.537109375 55.37109375,52.03125 56.865234375,52.646484375 61.0546875,52.646484375 62.548828125,52.03125 63.1640625,50.537109375 62.548828125,49.04296875 61.0546875,48.427734375 56.865234375,48.427734375z M6.328125,48.427734375L4.833984375,49.04296875 4.21875,50.537109375 4.833984375,52.03125 6.328125,52.646484375 10.517578125,52.646484375 12.01171875,52.03125 12.626953125,50.537109375 12.01171875,49.04296875 10.517578125,48.427734375 6.328125,48.427734375z M23.056640625,18.955078125L19.8193359375,19.6142578125 17.1826171875,21.4013671875 15.3955078125,24.052734375 14.736328125,27.275390625 15.3662109375,30.46875 17.16796875,33.1640625 33.69140625,49.658203125 50.21484375,33.1640625 52.0166015625,30.46875 52.646484375,27.275390625 51.9873046875,24.052734375 50.2001953125,21.4013671875 47.548828125,19.6142578125 44.326171875,18.955078125 41.1328125,19.5849609375 38.4375,21.38671875 36.064453125,23.759765625 33.69140625,26.1328125 31.318359375,23.759765625 28.9453125,21.38671875 26.25,19.5849609375 23.056640625,18.955078125z M23.056640625,16.845703125L26.103515625,17.28515625 28.59375,18.45703125 30.7470703125,20.185546875 32.8125,22.265625 33.69140625,23.173828125 34.599609375,22.236328125 36.650390625,20.1708984375 38.7890625,18.4423828125 41.2646484375,17.2705078125 44.326171875,16.845703125 46.4245567321777,17.05078125 48.3837890625,17.666015625 51.6796875,19.9072265625 53.90625,23.232421875 54.5214805603027,25.1953144073486 54.7265625,27.275390625 54.5324668884277,29.2932147979736 53.9501953125,31.2451171875 51.708984375,34.62890625 33.69140625,52.646484375 15.673828125,34.62890625 13.4033203125,31.259765625 12.821044921875,29.3261737823486 12.626953125,27.275390625 12.83203125,25.1953144073486 13.447265625,23.232421875 15.6884765625,19.9072265625 18.9990234375,17.666015625 20.9582500457764,17.05078125 23.056640625,16.845703125z M56.865234375,14.736328125L55.37109375,15.3515625 54.755859375,16.845703125 55.37109375,18.33984375 56.865234375,18.955078125 61.0546875,18.955078125 62.548828125,18.33984375 63.1640625,16.845703125 62.548828125,15.3515625 61.0546875,14.736328125 56.865234375,14.736328125z M6.328125,14.736328125L4.833984375,15.3515625 4.21875,16.845703125 4.833984375,18.33984375 6.328125,18.955078125 10.517578125,18.955078125 12.01171875,18.33984375 12.626953125,16.845703125 12.01171875,15.3515625 10.517578125,14.736328125 6.328125,14.736328125z M8.4375,8.4375L8.4375,12.626953125 10.517578125,12.626953125 12.158203125,12.9638671875 13.4912109375,13.8720703125 14.3994140625,15.205078125 14.736328125,16.845703125 14.3994140625,18.5009765625 13.4912109375,19.8486328125 12.158203125,20.7421875 10.517578125,21.064453125 8.4375,21.064453125 8.4375,46.318359375 10.517578125,46.318359375 12.158203125,46.6552734375 13.4912109375,47.5634765625 14.3994140625,48.896484375 14.736328125,50.537109375 14.3994140625,52.1923828125 13.4912109375,53.5400390625 12.158203125,54.43359375 10.517578125,54.755859375 8.4375,54.755859375 8.4375,58.974609375 12.626953125,58.974609375 12.626953125,56.865234375 12.9638671875,55.224609375 13.8720703125,53.8916015625 15.205078125,52.9833984375 16.845703125,52.646484375 18.486328125,52.9833984375 19.8193359375,53.8916015625 20.7275390625,55.224609375 21.064453125,56.865234375 21.064453125,58.974609375 46.318359375,58.974609375 46.318359375,56.865234375 46.6552734375,55.224609375 47.5634765625,53.8916015625 48.896484375,52.9833984375 50.537109375,52.646484375 52.177734375,52.9833984375 53.5107421875,53.8916015625 54.4189453125,55.224609375 54.755859375,56.865234375 54.755859375,58.974609375 58.974609375,58.974609375 58.974609375,54.755859375 58.1982421875,54.7705078125 57.421875,54.78515625 55.576171875,54.521484375 54.052734375,53.7158203125 53.02734375,52.3828125 52.646484375,50.537109375 52.9833984375,48.896484375 53.8916015625,47.5634765625 55.224609375,46.6552734375 56.865234375,46.318359375 58.974609375,46.318359375 58.974609375,21.064453125 58.1982421875,21.0791015625 57.421875,21.09375 55.576171875,20.830078125 54.052734375,20.0244140625 53.02734375,18.69140625 52.646484375,16.845703125 52.9833984375,15.205078125 53.8916015625,13.8720703125 55.224609375,12.9638671875 56.865234375,12.626953125 58.974609375,12.626953125 58.974609375,8.4375 54.755859375,8.4375 54.755859375,10.517578125 54.4189453125,12.1728515625 53.5107421875,13.5205078125 52.177734375,14.4140625 50.537109375,14.736328125 48.8818359375,14.4140625 47.5341796875,13.5205078125 46.640625,12.1728515625 46.318359375,10.517578125 46.318359375,8.4375 21.064453125,8.4375 21.064453125,10.517578125 20.7275390625,12.1728515625 19.8193359375,13.5205078125 18.486328125,14.4140625 16.845703125,14.736328125 15.1904296875,14.4140625 13.8427734375,13.5205078125 12.94921875,12.1728515625 12.626953125,10.517578125 12.626953125,8.4375 8.4375,8.4375z M50.537109375,4.21874952316284L49.04296875,4.83398485183716 48.427734375,6.328125 48.427734375,10.517578125 49.04296875,12.01171875 50.537109375,12.626953125 52.03125,12.01171875 52.646484375,10.517578125 52.646484375,6.328125 52.03125,4.83398485183716 50.537109375,4.21874952316284z M16.845703125,4.21874952316284L15.3515625,4.83398485183716 14.736328125,6.328125 14.736328125,10.517578125 15.3515625,12.01171875 16.845703125,12.626953125 18.33984375,12.01171875 18.955078125,10.517578125 18.955078125,6.328125 18.33984375,4.83398485183716 16.845703125,4.21874952316284z M16.845703125,0L18.7353515625,0.307617664337158 20.4931640625,1.17187523841858 21.9140625,2.5048828125 22.79296875,4.21874952316284 44.58984375,4.21874952316284 45.4541015625,2.5048828125 46.875,1.17187523841858 48.6474609375,0.307617664337158 50.537109375,0 52.4267578125,0.307617664337158 54.1845703125,1.17187523841858 55.60546875,2.5048828125 56.484375,4.21874952316284 63.1640625,4.21874952316284 63.1640625,10.8984375 64.8779296875,11.77734375 66.2109375,13.1982421875 67.0751953125,14.9560546875 67.3828125,16.845703125 67.0751953125,18.7353515625 66.2109375,20.5078125 64.8779296875,21.9287109375 63.1640625,22.79296875 63.1640625,44.58984375 64.8779296875,45.46875 66.2109375,46.8896484375 67.0751953125,48.6474609375 67.3828125,50.537109375 67.0751953125,52.4267578125 66.2109375,54.19921875 64.8779296875,55.6201171875 63.1640625,56.484375 63.1640625,63.1640625 56.484375,63.1640625 55.60546875,64.8779296875 54.1845703125,66.2109375 52.4267578125,67.0751953125 50.537109375,67.3828125 48.6474609375,67.0751953125 46.875,66.2109375 45.4541015625,64.8779296875 44.58984375,63.1640625 22.79296875,63.1640625 21.9140625,64.8779296875 20.4931640625,66.2109375 18.7353515625,67.0751953125 16.845703125,67.3828125 14.9560546875,67.0751953125 13.18359375,66.2109375 11.7626953125,64.8779296875 10.8984375,63.1640625 4.21875,63.1640625 4.21875,56.484375 2.5048828125,55.6201171875 1.171875,54.19921875 0.307617664337158,52.4267578125 0,50.537109375 0.307617664337158,48.6474609375 1.171875,46.8896484375 2.5048828125,45.46875 4.21875,44.58984375 4.21875,22.79296875 2.5048828125,21.9287109375 1.171875,20.5078125 0.307617664337158,18.7353515625 0,16.845703125 0.307617664337158,14.9560546875 1.171875,13.1982421875 2.5048828125,11.77734375 4.21875,10.8984375 4.21875,4.21874952316284 10.8984375,4.21874952316284 11.7626953125,2.5048828125 13.18359375,1.17187523841858 14.9560546875,0.307617664337158 16.845703125,0z" />
    </g>
  </g>
</svg>