<?xml version="1.0" encoding="utf-8"?>
<!DOCTYPE svg PUBLIC "-//W3C//DTD SVG 1.1//EN" "http://www.w3.org/Graphics/SVG/1.1/DTD/svg11.dtd">
<svg width="67.3828125000027" height="48.4277343750116" xmlns="http://www.w3.org/2000/svg" xmlns:xlink="http://www.w3.org/1999/xlink" xmlns:xml="http://www.w3.org/XML/1998/namespace" version="1.1">
  <g>
    <g>
      <path style="fill:#FF0000;fill-opacity:1" d="M19.16015625,34.130859375L31.2890625,37.67578125 30.380859375,39.4921875 29.00390625,40.8837890625 27.2607421875,41.77734375 25.25390625,42.099609375 22.8076171875,41.6015625 20.7861328125,40.2392578125 19.423828125,38.2177734375 18.92578125,35.771484375 19.16015625,34.130859375z M44.4140625,6.91406202316284L6.796875,17.87109375 6.357421875,17.958984375 5.9765625,18.193359375 5.09765625,19.423828125 4.5556640625,20.9912109375 4.2919921875,22.6611328125 4.21875,24.19921875 4.2919921875,25.7373046875 4.5556640625,27.4072265625 5.09765625,28.974609375 5.9765625,30.205078125 6.357421875,30.439453125 6.796875,30.52734375 17.138671875,33.544921875 16.845703125,35.771484375 17.51953125,39.0234375 19.3359375,41.7041015625 22.001953125,43.53515625 25.25390625,44.208984375 27.919921875,43.76953125 30.263671875,42.5537109375 32.109375,40.6787109375 33.310546875,38.26171875 44.4140625,41.513671875 42.509765625,39.580078125 41.07421875,36.826171875 40.0634765625,33.5888671875 39.4189453125,30.1904296875 39.0673828125,26.953125 38.96484375,24.19921875 39.0673828125,21.4453125 39.4189453125,18.2080078125 40.0634765625,14.82421875 41.07421875,11.6015625 42.509765625,8.84765625 44.4140625,6.91406202316284z M53.701171875,6.29882860183716L55.546875,6.85546827316284 57.099609375,8.3203125 58.359375,10.37109375 59.326171875,12.6708984375 60,14.912109375 60.41015625,16.787109375 60.8935546875,20.478515625 61.0546875,24.19921875 60.8935546875,27.919921875 60.41015625,31.611328125 60,33.486328125 59.326171875,35.7275390625 58.359375,38.02734375 57.099609375,40.078125 55.546875,41.54296875 53.701171875,42.099609375 51.767578125,41.513671875 50.185546875,39.990234375 48.9404296875,37.8515625 47.98828125,35.44921875 47.314453125,33.1201171875 46.904296875,31.171875 46.4501953125,27.685546875 46.318359375,24.19921875 46.4501953125,20.712890625 46.904296875,17.2265625 47.314453125,15.2783203125 47.98828125,12.94921875 48.9404296875,10.546875 50.185546875,8.408203125 51.767578125,6.88476514816284 53.701171875,6.29882860183716z M51.591796875,4.18945264816284L49.7534141540527,4.46044874191284 48.1640625,5.27343702316284 45.64453125,8.1005859375 43.9013671875,12.041015625 42.8173828125,16.46484375 42.2607421875,20.7275390625 42.099609375,24.19921875 42.2607421875,27.6708984375 42.8173828125,31.93359375 43.9013671875,36.357421875 45.64453125,40.2978515625 48.1640625,43.125 49.7534141540527,43.93798828125 51.591796875,44.208984375 53.701171875,44.208984375 55.5139122009277,43.93798828125 57.0849609375,43.125 59.58984375,40.283203125 61.3330078125,36.328125 62.431640625,31.904296875 63.0029296875,27.6416015625 63.1640625,24.19921875 63.0029296875,20.7568359375 62.431640625,16.494140625 61.3330078125,12.0703125 59.58984375,8.115234375 57.0849609375,5.27343702316284 55.5139122009277,4.46044874191284 53.701171875,4.18945264816284 51.591796875,4.18945264816284z M53.701171875,0L56.290283203125,0.300292551517487 58.5498046875,1.20117139816284 60.501708984375,2.60009717941284 62.16796875,4.39453077316284 64.6875,8.935546875 66.2841796875,14.1796875 67.1337890625,19.482421875 67.3828125,24.19921875 67.1337890625,28.9306640625 66.2841796875,34.2333984375 64.6875,39.4775390625 62.16796875,44.0185546875 60.501708984375,45.8056640625 58.5498046875,47.2119140625 56.290283203125,48.123779296875 53.701171875,48.427734375 51.416015625,48.3837890625 49.3798828125,48.134765625 47.4462890625,47.5048828125 45.46875,46.2890625 44.3701171875,46.0107421875 43.30078125,45.673828125 43.037109375,45.5419921875 42.7734375,45.41015625 35.419921875,43.271484375 33.409423828125,45.4541015625 30.9521484375,47.080078125 28.187255859375,48.0908203125 25.25390625,48.427734375 22.8112773895264,48.20068359375 20.5224609375,47.51953125 16.6259765625,45.0146484375 13.88671875,41.2646484375 13.0517578125,39.027099609375 12.65625,36.62109375 9.345703125,35.6103515625 6.03515625,34.6875 5.1416015625,34.4970703125 4.306640625,34.130859375 2.19726657867432,32.2998046875 0.87890625,29.8095703125 0.190429210662842,26.982421875 0,24.19921875 0.205077648162842,21.4453125 0.908203125,18.603515625 2.2265625,16.083984375 4.306640625,14.267578125 5.15625,13.9599609375 6.03515625,13.740234375 42.7734375,2.98828077316284 43.037109375,2.85644483566284 43.30078125,2.72460889816284 44.3701171875,2.40234375 45.46875,2.138671875 47.4462890625,0.908202171325684 49.3798828125,0.278319358825684 51.416015625,0.0439443588256836 53.701171875,0z" />
    </g>
  </g>
</svg>