<?xml version="1.0" encoding="utf-8"?>
<!DOCTYPE svg PUBLIC "-//W3C//DTD SVG 1.1//EN" "http://www.w3.org/Graphics/SVG/1.1/DTD/svg11.dtd">
<svg width="66.6796875" height="65.80078125" xmlns="http://www.w3.org/2000/svg" xmlns:xlink="http://www.w3.org/1999/xlink" xmlns:xml="http://www.w3.org/XML/1998/namespace" version="1.1">
  <g>
    <g>
      <path style="fill:#FF0000;fill-opacity:1" d="M33.33984375,5.9765625L24.90234375,14.384765625 27.890625,17.373046875 31.23046875,14.033203125 31.23046875,40.400390625 28.20556640625,39.744873046875 25.400390625,38.5400390625 22.8845195770264,36.8701171875 20.7275390625,34.8193359375 18.9624004364014,32.42431640625 17.6220703125,29.7216796875 16.7761211395264,26.7883319854736 16.494140625,23.701171875 16.494140625,22.44140625 19.833984375,25.78125 22.822265625,22.822265625 14.384765625,14.384765625 5.9765625,22.822265625 8.935546875,25.78125 12.275390625,22.44140625 12.275390625,23.701171875 12.9345703125,28.916015625 14.8095703125,33.6767578125 17.7392578125,37.822265625 21.5478515625,41.1474609375 26.103515625,43.4765625 31.23046875,44.6484375 31.23046875,61.58203125 35.44921875,61.58203125 35.44921875,44.6484375 40.576171875,43.4765625 45.1318359375,41.1474609375 48.9404296875,37.822265625 51.8701171875,33.6767578125 53.7451171875,28.916015625 54.404296875,23.701171875 54.404296875,22.44140625 57.744140625,25.78125 60.703125,22.822265625 52.294921875,14.384765625 43.857421875,22.822265625 46.845703125,25.78125 50.185546875,22.44140625 50.185546875,23.701171875 49.9035606384277,26.7883319854736 49.0576171875,29.7216796875 47.7172813415527,32.42431640625 45.9521484375,34.8193359375 43.7951622009277,36.8701171875 41.279296875,38.5400390625 38.47412109375,39.744873046875 35.44921875,40.400390625 35.44921875,14.033203125 38.7890625,17.373046875 41.748046875,14.384765625 33.33984375,5.9765625z M33.33984375,0L47.021484375,13.7109375 52.294921875,8.4375 66.6796875,22.822265625 57.744140625,31.7578125 57.421875,31.435546875 54.7119140625,37.236328125 50.712890625,42.099609375 45.6298828125,45.8203125 42.7404747009277,47.1826171875 39.66796875,48.1640625 39.66796875,65.80078125 27.01171875,65.80078125 27.01171875,48.1640625 23.939208984375,47.1826171875 21.0498046875,45.8203125 15.966796875,42.099609375 11.9677734375,37.236328125 9.2578125,31.435546875 8.935546875,31.7578125 0,22.822265625 14.384765625,8.4375 19.658203125,13.7109375 33.33984375,0z" />
    </g>
  </g>
</svg>