<?xml version="1.0" encoding="utf-8"?>
<!DOCTYPE svg PUBLIC "-//W3C//DTD SVG 1.1//EN" "http://www.w3.org/Graphics/SVG/1.1/DTD/svg11.dtd">
<svg width="24.404296875" height="46.376953125" xmlns="http://www.w3.org/2000/svg" xmlns:xlink="http://www.w3.org/1999/xlink" xmlns:xml="http://www.w3.org/XML/1998/namespace" version="1.1">
  <g>
    <g>
      <path style="fill:#FF0000;fill-opacity:1" d="M11.923828125,0L15.73974609375,0.38818359375 18.984375,1.552734375 18.984375,7.822265625 22.2143535614014,15.0512704849243 24.404296875,21.328125 20.91796875,27.685546875 20.68359375,37.880859375 20.68359375,40.01953125 20.4730205535889,42.8009033203125 19.8413066864014,44.78759765625 18.7884502410889,45.9796142578125 17.314453125,46.376953125 15.9814453125,46.0162353515625 15.029296875,44.93408203125 14.4580078125,43.1304931640625 14.267578125,40.60546875 14.296875,38.876953125 14.12109375,29.443359375 12.421875,29.443359375 9.84375,28.83544921875 8.37890625,27.01171875 7.29492235183716,27.01171875 5.86120653152466,26.806640625 4.78271532058716,26.19140625 4.05944871902466,25.166015625 3.69140672683716,23.73046875 3.01757860183716,23.7890625 1.54174816608429,23.375244140625 0.629883289337158,22.1337890625 0.157471120357513,19.7497577667236 0,15.908203125 0.0585941672325134,13.7109384536743 0.234375476837158,11.923828125 2.66601586341858,8.2177734375 5.44921922683716,5.654296875 5.44921922683716,1.318359375 8.48876953125,0.32958984375 11.923828125,0z" />
    </g>
  </g>
</svg>