<?xml version="1.0" encoding="utf-8"?>
<!DOCTYPE svg PUBLIC "-//W3C//DTD SVG 1.1//EN" "http://www.w3.org/Graphics/SVG/1.1/DTD/svg11.dtd">
<svg width="63.1640625000016" height="67.3828125" xmlns="http://www.w3.org/2000/svg" xmlns:xlink="http://www.w3.org/1999/xlink" xmlns:xml="http://www.w3.org/XML/1998/namespace" version="1.1">
  <g>
    <g>
      <path style="fill:#FF0000;fill-opacity:1" d="M23.14453125,48.427734375L23.6572265625,48.5009765625 24.140625,48.69140625 25.986328125,49.4384765625 27.7587890625,50.009765625 29.58984375,50.3759765625 31.58203125,50.5078125 33.57421875,50.3759765625 35.4052734375,50.009765625 37.177734375,49.4384765625 39.0234375,48.69140625 39.5068359375,48.5009765625 40.01953125,48.427734375 41.4990234375,49.0576171875 42.12890625,50.537109375 41.513671875,51.9287109375 39.9169921875,52.998046875 37.734375,53.8037109375 35.361328125,54.345703125 33.1787109375,54.6533203125 31.58203125,54.755859375 30,54.6533203125 27.83203125,54.345703125 25.4443359375,53.8037109375 23.2470703125,52.998046875 21.650390625,51.9140625 21.03515625,50.537109375 21.6650390625,49.0576171875 23.14453125,48.427734375z M27.36328125,40.01953125L35.80078125,40.01953125 35.4638671875,41.66015625 34.5556640625,42.9931640625 33.22265625,43.88671875 31.58203125,44.208984375 29.94140625,43.88671875 28.6083984375,42.9931640625 27.7001953125,41.66015625 27.36328125,40.01953125z M43.154296875,27.392578125L44.3701171875,27.6416015625 45.380859375,28.30078125 46.0693359375,29.296875 46.318359375,30.52734375 46.318359375,34.74609375 46.0693359375,35.9912109375 45.3955078125,36.9873046875 44.384765625,37.6611328125 43.154296875,37.91015625 41.9091796875,37.6611328125 40.927734375,36.97265625 40.2685546875,35.9619140625 40.01953125,34.74609375 40.01953125,30.52734375 40.2685546875,29.3115234375 40.9423828125,28.3154296875 41.9384765625,27.6416015625 43.154296875,27.392578125z M20.009765625,27.392578125L21.2255859375,27.6416015625 22.236328125,28.3154296875 22.9248046875,29.3115234375 23.173828125,30.52734375 23.173828125,34.74609375 22.9248046875,35.9619140625 22.236328125,36.97265625 21.2255859375,37.6611328125 20.009765625,37.91015625 18.7646484375,37.6611328125 17.7685546875,36.9873046875 17.0947265625,35.9912109375 16.845703125,34.74609375 16.845703125,30.52734375 17.0947265625,29.296875 17.783203125,28.30078125 18.7939453125,27.6416015625 20.009765625,27.392578125z M49.482421875,18.69140625L45.8642578125,19.74609375 42.099609375,20.009765625 34.130859375,20.009765625 40.458984375,26.337890625 37.91015625,26.337890625 33.17138671875,25.9204120635986 28.623046875,24.66796875 24.345703125,22.66845703125 20.419921875,20.009765625 13.681640625,20.009765625 13.681640625,30.52734375 6.26953125,30.52734375 6.26953125,27.568359375 4.775390625,28.7255859375 4.21875,30.52734375 4.21875,36.85546875 4.4677734375,38.0712890625 5.15625,39.08203125 6.1669921875,39.7705078125 7.38281154632568,40.01953125 8.408203125,40.01953125 8.616943359375,43.154296875 9.2431640625,46.171875 11.5869140625,51.6943359375 15.205078125,56.3818359375 19.892578125,60.0146484375 25.4296875,62.34375 28.447265625,62.958984375 31.58203125,63.1640625 34.716796875,62.958984375 37.734375,62.34375 43.271484375,60.0146484375 47.958984375,56.3818359375 51.5771484375,51.6943359375 53.9208984375,46.171875 54.5471153259277,43.154296875 54.755859375,40.01953125 55.810546875,40.01953125 57.0263671875,39.7705078125 58.0224609375,39.08203125 58.6962890625,38.0712890625 58.9453125,36.85546875 58.9453125,30.52734375 58.3740234375,28.681640625 56.8359375,27.5390625 56.8359375,30.52734375 49.482421875,30.52734375 49.482421875,18.69140625z M27.71484375,4.21874952316284L22.2509765625,4.96581983566284 17.2998046875,7.11914014816284 13.125,10.5322265625 9.931640625,15.029296875 9.5361328125,15.8642578125 9.052734375,16.9921875 8.6279296875,18.1201171875 8.408203125,18.955078125 8.37890625,19.306640625 8.37890625,19.658203125 8.37890625,28.41796875 11.572265625,28.41796875 11.572265625,17.900390625 21.15234375,17.900390625 24.305419921875,20.15625 27.7294921875,22.001953125 31.380615234375,23.3349628448486 35.21484375,24.052734375 29.033203125,17.900390625 42.099609375,17.900390625 44.94140625,17.783203125 47.138671875,17.3291015625 49.189453125,16.40625 51.591796875,14.8828125 51.591796875,28.41796875 54.7265625,28.41796875 54.7265625,19.1015625 54.5068359375,18.076171875 53.9794921875,16.7431640625 53.349609375,15.41015625 52.822265625,14.35546875 52.763671875,14.2675790786743 54.4921875,12.1435546875 55.78125,9.6533203125 56.5869140625,6.9580078125 56.865234375,4.21874952316284 27.71484375,4.21874952316284z M27.71484375,0L61.0546875,0 61.0546875,1.34765601158142 60.966796875,5.0390625 60.556640625,8.3935546875 59.5751953125,11.6015625 57.7734375,14.853515625 58.06640625,15.6005859375 58.4619140625,16.6552734375 58.798828125,17.6953125 58.9453125,18.3984375 58.9453125,23.876953125 60.68115234375,25.0085468292236 62.021484375,26.5869140625 62.87841796875,28.4729022979736 63.1640625,30.52734375 63.1640625,36.85546875 62.860107421875,38.9794921875 61.9482421875,40.8984375 60.531005859375,42.48779296875 58.7109375,43.623046875 58.07373046875,46.94091796875 57.041015625,50.09765625 53.935546875,55.8251953125 49.6142578125,60.6005859375 44.296875,64.2333984375 38.2177734375,66.5625 34.954833984375,67.177734375 31.58203125,67.3828125 28.209228515625,67.177734375 24.9462890625,66.5625 18.8671875,64.2333984375 13.5498046875,60.5859375 9.228515625,55.810546875 6.12304782867432,50.09765625 5.09033155441284,46.94091796875 4.453125,43.623046875 2.63671875,42.48046875 1.23046875,40.8984375 0.322266101837158,38.994140625 0,36.85546875 0,30.52734375 0.285644173622131,28.4729022979736 1.142578125,26.5869140625 2.48291015625,25.0085468292236 4.21875,23.876953125 4.21875,18.3984375 4.2626953125,18.1201171875 4.36523342132568,17.841796875 5.4638671875,14.9267578125 6.85546875,12.099609375 10.72265625,7.0166015625 15.6298828125,3.22265577316284 21.357421875,0.834960460662842 24.47021484375,0.208743035793304 27.71484375,0z" />
    </g>
  </g>
</svg>