<?xml version="1.0" encoding="utf-8"?>
<!DOCTYPE svg PUBLIC "-//W3C//DTD SVG 1.1//EN" "http://www.w3.org/Graphics/SVG/1.1/DTD/svg11.dtd">
<svg width="67.3828125000006" height="67.3828125" xmlns="http://www.w3.org/2000/svg" xmlns:xlink="http://www.w3.org/1999/xlink" xmlns:xml="http://www.w3.org/XML/1998/namespace" version="1.1">
  <g>
    <g>
      <path style="fill:#FF0000;fill-opacity:1" d="M18.955078125,48.427734375L17.080078125,48.8671875 20.5041484832764,52.100830078125 24.2138671875,54.9462890625 28.172607421875,57.392578125 32.34375,59.4287109375 36.697998046875,61.0400390625 41.2060546875,62.2119140625 45.8312950134277,62.926025390625 50.537109375,63.1640625 56.865234375,63.1640625 58.7841796875,62.8564453125 60.4833984375,62.0068359375 61.8603515625,60.6884765625 62.8125,58.974609375 56.865234375,58.974609375 49.2626953125,58.271484375 41.806640625,56.220703125 34.8193359375,52.91015625 28.65234375,48.427734375 18.955078125,48.427734375z M35.80078125,21.064453125L31.787109375,21.7236328125 28.2568359375,23.5693359375 25.4736328125,26.42578125 23.671875,30.087890625 23.291015625,31.8603515625 23.173828125,33.69140625 23.173828125,40.01953125 17.197265625,40.01953125 14.586181640625,40.257568359375 12.1435546875,40.9716796875 8.02734375,43.6083984375 5.244140625,47.607421875 4.47509765625,50.0244140625 4.21875,52.646484375 4.21875,54.755859375 4.8779296875,58.037109375 6.6796875,60.703125 9.345703125,62.5048828125 12.626953125,63.1640625 14.736328125,63.1640625 16.376953125,62.841796875 17.7099609375,61.9482421875 18.6181640625,60.615234375 18.955078125,58.974609375 12.626953125,58.974609375 12.626953125,52.646484375 13.125,50.2001953125 14.4873046875,48.1787109375 16.5087890625,46.81640625 18.955078125,46.318359375 29.47265625,46.318359375 31.6259765625,48.193359375 33.955078125,49.833984375 39.327392578125,52.87353515625 44.8974609375,55.078125 50.7238731384277,56.41845703125 56.865234375,56.865234375 63.1640625,56.865234375 62.7685546875,54.6826171875 61.669921875,52.8076171875 60.0146484375,51.4013671875 57.919921875,50.654296875 49.9951171875,48.2080078125 42.509765625,44.6630859375 35.6689453125,40.0341796875 29.677734375,34.306640625 30.4833984375,32.40234375 31.9189453125,30.8642578125 33.7646484375,29.8388671875 35.80078125,29.47265625 42.099609375,29.47265625 42.099609375,35.80078125 43.740234375,35.478515625 45.0732421875,34.5849609375 45.9814453125,33.2373046875 46.318359375,31.58203125 46.318359375,29.47265625 45.6591796875,26.19140625 43.857421875,23.525390625 41.19140625,21.7236328125 37.91015625,21.064453125 35.80078125,21.064453125z M10.517578125,4.21874952316284L8.056640625,4.71679639816284 6.064453125,6.064453125 4.71679592132568,8.056640625 4.21875,10.517578125 4.21875,16.845703125 4.59228515625,22.763671875 5.712890625,28.564453125 7.56591701507568,34.1748046875 10.13671875,39.521484375 12.183837890625,38.638916015625 14.2236328125,38.1591796875 18.3984375,37.880859375 19.7314453125,37.8955078125 21.064453125,37.91015625 21.0498046875,36.416015625 21.03515625,34.921875 21.123046875,32.431640625 21.4599609375,30.1611328125 22.1630859375,27.978515625 23.349609375,25.751953125 19.951171875,19.189453125 17.4609375,12.24609375 17.080078125,10.7080078125 16.69921875,9.169921875 15.8056640625,7.159423828125 14.47265625,5.58105516433716 12.70751953125,4.55932903289795 10.517578125,4.21874952316284z M10.517578125,0L14.091796875,0.615234375 17.0947265625,2.32910108566284 19.365234375,4.95117235183716 20.80078125,8.291015625 21.123046875,9.609375 21.4453125,10.927734375 23.1005859375,15.8349609375 25.283203125,20.537109375 28.2421875,18.603515625 31.23046875,17.4755859375 34.39453125,16.962890625 37.91015625,16.845703125 40.4406700134277,17.0947265625 42.8173828125,17.841796875 46.8310546875,20.5517578125 49.541015625,24.5654296875 50.2880821228027,26.9421405792236 50.537109375,29.47265625 50.537109375,31.58203125 49.951171875,34.6728515625 48.3251953125,37.265625 45.87890625,39.1259765625 42.861328125,39.990234375 46.494140625,41.953125 50.302734375,43.65234375 54.2138671875,45.1318359375 58.125,46.46484375 60.3662109375,47.16796875 62.548828125,48.017578125 64.62890625,49.5849609375 66.15234375,51.767578125 67.0751953125,54.287109375 67.3828125,56.865234375 67.174072265625,58.970947265625 66.5478515625,60.9521484375 64.2919921875,64.2919921875 60.9521484375,66.5478515625 58.970947265625,67.174072265625 56.865234375,67.3828125 50.537109375,67.3828125 43.2714805603027,66.873779296875 36.240234375,65.3466796875 29.50927734375,62.816162109375 23.14453125,59.296875 22.3974609375,62.4609375 20.56640625,65.0244140625 17.9296875,66.7529296875 14.736328125,67.3828125 12.626953125,67.3828125 10.096435546875,67.1337890625 7.7197265625,66.38671875 3.70605564117432,63.6767578125 0.99609375,59.6630859375 0.249023079872131,57.286376953125 0,54.755859375 0,52.646484375 0.362548470497131,49.083251953125 1.4501953125,45.7177734375 3.226318359375,42.667236328125 5.654296875,40.048828125 3.17138671875,34.541015625 1.40625,28.798828125 0.351562142372131,22.880859375 0,16.845703125 0,10.517578125 0.208739876747131,8.411865234375 0.8349609375,6.4306640625 3.0908203125,3.09081983566284 6.4306640625,0.834960460662842 8.411865234375,0.208743035793304 10.517578125,0z" />
    </g>
  </g>
</svg>