<?xml version="1.0" encoding="utf-8"?>
<!DOCTYPE svg PUBLIC "-//W3C//DTD SVG 1.1//EN" "http://www.w3.org/Graphics/SVG/1.1/DTD/svg11.dtd">
<svg width="67.3828125000022" height="67.3828125" xmlns="http://www.w3.org/2000/svg" xmlns:xlink="http://www.w3.org/1999/xlink" xmlns:xml="http://www.w3.org/XML/1998/namespace" version="1.1">
  <g>
    <g>
      <path style="fill:#FF0000;fill-opacity:1" d="M27.36328125,48.427734375L28.4326171875,48.7646484375 29.8681640625,49.4970703125 31.6259765625,50.21484375 33.69140625,50.537109375 35.7421875,50.21484375 37.5146484375,49.4970703125 38.9501953125,48.7646484375 40.01953125,48.427734375 41.513671875,49.072265625 42.12890625,50.56640625 41.9091796875,51.4892578125 41.279296875,52.20703125 37.705078125,54.111328125 33.69140625,54.755859375 29.677734375,54.111328125 26.103515625,52.20703125 25.4736328125,51.4892578125 25.25390625,50.56640625 25.869140625,49.072265625 27.36328125,48.427734375z M29.47265625,40.01953125L37.91015625,40.01953125 37.5732421875,41.66015625 36.6650390625,42.9931640625 35.33203125,43.9013671875 33.69140625,44.23828125 32.05078125,43.9013671875 30.7177734375,42.9931640625 29.8095703125,41.66015625 29.47265625,40.01953125z M45.263671875,27.392578125L46.4794921875,27.6416015625 47.490234375,28.30078125 48.1787109375,29.296875 48.427734375,30.52734375 48.427734375,34.74609375 48.1787109375,35.9912109375 47.5048828125,36.9873046875 46.494140625,37.6611328125 45.263671875,37.91015625 44.0185546875,37.6611328125 43.037109375,36.97265625 42.3779296875,35.9619140625 42.12890625,34.74609375 42.12890625,30.52734375 42.3779296875,29.3115234375 43.0517578125,28.3154296875 44.0478515625,27.6416015625 45.263671875,27.392578125z M22.119140625,27.392578125L23.3349609375,27.6416015625 24.3310546875,28.3154296875 25.0048828125,29.3115234375 25.25390625,30.52734375 25.25390625,34.74609375 25.0048828125,35.9619140625 24.345703125,36.97265625 23.349609375,37.6611328125 22.119140625,37.91015625 20.8740234375,37.6611328125 19.8779296875,36.9873046875 19.2041015625,35.9912109375 18.955078125,34.74609375 18.955078125,30.52734375 19.2041015625,29.296875 19.892578125,28.30078125 20.9033203125,27.6416015625 22.119140625,27.392578125z M26.8359375,23.173828125L23.258056640625,25.8837909698486 19.2626953125,27.861328125 14.974365234375,29.0698261260986 10.517578125,29.47265625 10.517578125,40.01953125 10.726318359375,43.154296875 11.3525390625,46.171875 13.6962890625,51.6943359375 17.314453125,56.3818359375 22.001953125,60.0146484375 27.5390625,62.34375 30.556640625,62.958984375 33.69140625,63.1640625 36.826171875,62.958984375 39.84375,62.34375 45.380859375,60.0146484375 50.068359375,56.3818359375 53.6865234375,51.6943359375 56.0302734375,46.171875 56.656494140625,43.154296875 56.865234375,40.01953125 56.865234375,29.47265625 52.4084434509277,29.0698261260986 48.1201171875,27.861328125 44.1247520446777,25.8837909698486 40.546875,23.173828125 26.8359375,23.173828125z M40.01953125,10.517578125L41.484375,11.1474609375 42.099609375,12.626953125 42.099609375,16.845703125 41.484375,18.3251953125 40.01953125,18.955078125 38.525390625,18.33984375 37.91015625,16.845703125 37.91015625,12.626953125 38.5400390625,11.1474609375 40.01953125,10.517578125z M27.36328125,10.517578125L28.8427734375,11.1474609375 29.47265625,12.626953125 29.47265625,16.845703125 28.857421875,18.33984375 27.36328125,18.955078125 25.8837890625,18.3251953125 25.25390625,16.845703125 25.25390625,12.626953125 25.8837890625,11.1474609375 27.36328125,10.517578125z M33.69140625,6.328125L35.185546875,6.943359375 35.80078125,8.4375 35.80078125,14.736328125 35.185546875,16.23046875 33.69140625,16.845703125 32.197265625,16.23046875 31.58203125,14.736328125 31.58203125,8.4375 32.197265625,6.943359375 33.69140625,6.328125z M33.69140625,4.21874952316284L32.05078125,4.5556640625 30.7177734375,5.46386766433716 29.8095703125,6.796875 29.47265625,8.4375 27.36328125,8.4375 25.72265625,8.759765625 24.3896484375,9.6533203125 23.49609375,10.986328125 23.173828125,12.626953125 23.173828125,16.845703125 9.521484375,16.845703125 8.2177734375,18.896484375 7.08984375,21.064453125 60.29296875,21.064453125 59.1650390625,18.896484375 57.861328125,16.845703125 44.208984375,16.845703125 44.208984375,12.626953125 43.88671875,10.986328125 42.9931640625,9.6533203125 41.66015625,8.759765625 40.01953125,8.4375 37.91015625,8.4375 37.5732421875,6.796875 36.6650390625,5.46386766433716 35.33203125,4.5556640625 33.69140625,4.21874952316284z M33.69140625,0L38.23974609375,0.300295770168304 42.626953125,1.20117139816284 46.7944297790527,2.65137004852295 50.68359375,4.59960889816284 54.2651329040527,7.0166015625 57.509765625,9.873046875 60.3662109375,13.11767578125 62.783203125,16.69921875 64.7314453125,20.58837890625 66.181640625,24.755859375 67.08251953125,29.1430683135986 67.3828125,33.69140625 67.119140625,38.1591796875 66.3720703125,42.1875 65.2001953125,46.11328125 63.6328125,50.2734375 63.515625,50.537109375 67.3828125,50.537109375 67.3828125,54.755859375 67.1337890625,57.286376953125 66.38671875,59.6630859375 63.6767578125,63.6767578125 59.6630859375,66.38671875 57.286376953125,67.1337890625 54.755859375,67.3828125 52.5036582946777,67.181396484375 50.3173828125,66.5771484375 46.435546875,64.21875 43.4106407165527,65.60302734375 40.25390625,66.591796875 37.001953125,67.18505859375 33.69140625,67.3828125 30.380859375,67.18505859375 27.12890625,66.591796875 23.97216796875,65.60302734375 20.947265625,64.21875 17.0654296875,66.5771484375 14.879150390625,67.181396484375 12.626953125,67.3828125 10.096435546875,67.1337890625 7.7197265625,66.38671875 3.70605564117432,63.6767578125 0.99609375,59.6630859375 0.249023079872131,57.286376953125 0,54.755859375 0,50.537109375 3.837890625,50.537109375 2.1533203125,46.40625 0.9521484375,42.333984375 0.234375,38.14453125 0,33.69140625 0.300292611122131,29.1430683135986 1.201171875,24.755859375 2.6513671875,20.58837890625 4.599609375,16.69921875 7.01660060882568,13.11767578125 9.873046875,9.873046875 13.11767578125,7.0166015625 16.69921875,4.59960889816284 20.5847148895264,2.65137004852295 24.7412109375,1.20117139816284 29.124755859375,0.300295770168304 33.69140625,0z" />
    </g>
  </g>
</svg>