<?xml version="1.0" encoding="utf-8"?>
<!DOCTYPE svg PUBLIC "-//W3C//DTD SVG 1.1//EN" "http://www.w3.org/Graphics/SVG/1.1/DTD/svg11.dtd">
<svg width="67.3828125000008" height="46.34765625" xmlns="http://www.w3.org/2000/svg" xmlns:xlink="http://www.w3.org/1999/xlink" xmlns:xml="http://www.w3.org/XML/1998/namespace" version="1.1">
  <g>
    <g>
      <path style="fill:#FF0000;fill-opacity:1" d="M52.646484375,31.611328125L56.865234375,31.611328125 58.330078125,32.2265625 58.9453125,33.69140625 58.330078125,35.1708984375 56.865234375,35.80078125 52.646484375,35.80078125 51.15234375,35.185546875 50.537109375,33.69140625 51.1669921875,32.2265625 52.646484375,31.611328125z M44.208984375,29.501953125L45.703125,30.1171875 46.318359375,31.611328125 45.6884765625,33.076171875 44.208984375,33.69140625 42.7294921875,33.076171875 42.099609375,31.611328125 42.7294921875,30.1318359375 44.208984375,29.501953125z M10.517578125,27.392578125L33.69140625,27.392578125 35.185546875,28.0078125 35.80078125,29.501953125 35.1708984375,30.9814453125 33.69140625,31.611328125 10.517578125,31.611328125 9.0380859375,30.9814453125 8.408203125,29.501953125 9.0380859375,28.0224609375 10.517578125,27.392578125z M44.208984375,21.064453125L45.703125,21.6796875 46.318359375,23.173828125 45.703125,24.66796875 44.208984375,25.283203125 42.7294921875,24.6533203125 42.099609375,23.173828125 42.7294921875,21.6943359375 44.208984375,21.064453125z M10.517578125,18.955078125L27.36328125,18.955078125 28.857421875,19.5703125 29.47265625,21.064453125 28.857421875,22.55859375 27.36328125,23.173828125 10.517578125,23.173828125 9.0380859375,22.5439453125 8.408203125,21.064453125 9.0380859375,19.5849609375 10.517578125,18.955078125z M44.208984375,12.65625L45.703125,13.271484375 46.318359375,14.765625 45.6884765625,16.23046875 44.208984375,16.845703125 42.7294921875,16.23046875 42.099609375,14.765625 42.7294921875,13.2861328125 44.208984375,12.65625z M52.646484375,10.546875L56.865234375,10.546875 58.330078125,11.1767578125 58.9453125,12.65625 58.9453125,25.283203125 58.330078125,26.7626953125 56.865234375,27.392578125 52.646484375,27.392578125 51.15234375,26.77734375 50.537109375,25.283203125 50.537109375,12.65625 51.15234375,11.162109375 52.646484375,10.546875z M10.517578125,10.546875L33.69140625,10.546875 35.185546875,11.162109375 35.80078125,12.65625 35.1708984375,14.1357421875 33.69140625,14.765625 10.517578125,14.765625 9.0380859375,14.1357421875 8.408203125,12.65625 9.0380859375,11.1767578125 10.517578125,10.546875z M8.408203125,4.21875047683716L6.767578125,4.55566453933716 5.4345703125,5.46386766433716 4.541015625,6.79687547683716 4.21875,8.4375 4.21875,37.91015625 4.541015625,39.55078125 5.4345703125,40.8837890625 6.767578125,41.7919921875 8.408203125,42.12890625 40.01953125,42.12890625 42.685546875,38.61328125 43.359375,38.0859375 44.208984375,37.91015625 45.05859375,38.1005859375 45.76171875,38.61328125 48.427734375,42.12890625 58.9453125,42.12890625 60.5859375,41.806640625 61.9189453125,40.9130859375 62.8271484375,39.5654296875 63.1640625,37.91015625 63.1640625,8.4375 62.8271484375,6.79687547683716 61.9189453125,5.46386766433716 60.5859375,4.55566453933716 58.9453125,4.21875047683716 48.427734375,4.21875047683716 45.76171875,7.76367235183716 45.05859375,8.27636909484863 44.208984375,8.4375 43.3740234375,8.26171875 42.685546875,7.73437547683716 40.01953125,4.21875047683716 8.408203125,4.21875047683716z M8.408203125,0L58.9453125,0 62.2412109375,0.659180164337158 64.921875,2.46093797683716 66.7236328125,5.14160203933716 67.3828125,8.4375 67.3828125,37.91015625 66.7236328125,41.2060546875 64.921875,43.88671875 62.2412109375,45.6884765625 58.9453125,46.34765625 8.408203125,46.34765625 5.15625,45.673828125 2.490234375,43.8427734375 0.673828125,41.162109375 0,37.91015625 0,8.4375 0.673828125,5.20019578933716 2.490234375,2.50488328933716 5.15625,0.673828601837158 8.408203125,0z" />
    </g>
  </g>
</svg>