<?xml version="1.0" encoding="utf-8"?>
<!DOCTYPE svg PUBLIC "-//W3C//DTD SVG 1.1//EN" "http://www.w3.org/Graphics/SVG/1.1/DTD/svg11.dtd">
<svg width="63.1640625000007" height="63.1640625" xmlns="http://www.w3.org/2000/svg" xmlns:xlink="http://www.w3.org/1999/xlink" xmlns:xml="http://www.w3.org/XML/1998/namespace" version="1.1">
  <g>
    <g>
      <path style="fill:#FF0000;fill-opacity:1" d="M16.845703125,4.21875L13.916015625,4.9658203125 11.044921875,5.80078125 8.26171875,7.25097703933716 6.1083984375,9.4189453125 4.716796875,12.158203125 4.21875,15.263671875 4.21875,16.845703125 4.595947265625,22.5622577667236 5.7275390625,28.0517578125 7.54394435882568,33.251953125 9.9755859375,38.1005859375 12.989501953125,42.564697265625 16.552734375,46.611328125 20.5993633270264,50.174560546875 25.0634765625,53.1884765625 29.912109375,55.6201171875 35.1123046875,57.4365234375 40.601806640625,58.568115234375 46.318359375,58.9453125 47.900390625,58.9453125 51.005859375,58.447265625 53.7451171875,57.0556640625 55.9130859375,54.90234375 57.36328125,52.119140625 58.1982421875,49.248046875 58.9453125,46.318359375 40.01953125,40.01953125 38.408203125,45.8203125 37.3828125,46.81640625 36.328125,47.6513671875 35.126953125,48.22265625 33.69140625,48.427734375 31.34765625,47.841796875 29.47265625,46.318359375 16.845703125,33.69140625 15.322265625,31.81640625 14.736328125,29.47265625 15.4833984375,26.806640625 17.373046875,24.755859375 23.173828125,23.173828125 16.845703125,4.21875z M16.0546875,0L18.0029296875,0.32226550579071 19.74609375,1.21582007408142 21.1376953125,2.59277391433716 22.060546875,4.3359375 27.041015625,19.27734375 27.36328125,21.26953125 26.9970703125,23.5986328125 25.9423828125,25.3125 24.3017578125,26.5869140625 22.20703125,27.568359375 20.830078125,28.0078125 19.51171875,28.53515625 19.130859375,28.9453125 18.955078125,29.47265625 19.2041015625,30.1171875 19.6875,30.5859375 32.607421875,43.4765625 33.0615234375,43.9599609375 33.69140625,44.208984375 34.21875,44.033203125 34.62890625,43.65234375 35.15625,42.333984375 35.595703125,40.986328125 36.5771484375,38.8916015625 37.8515625,37.2509765625 39.5654296875,36.181640625 41.89453125,35.80078125 43.88671875,36.123046875 58.828125,41.103515625 60.5712890625,42.0263671875 61.9482421875,43.41796875 62.841796875,45.1611328125 63.1640625,47.109375 62.9736328125,48.603515625 62.51953125,50.2734375 61.9482421875,51.9580078125 61.376953125,53.49609375 60.28564453125,55.909423828125 58.9453125,57.9345703125 55.576171875,60.9375 51.3427734375,62.63671875 46.318359375,63.1640625 40.048828125,62.750244140625 34.013671875,61.5087890625 28.2861328125,59.512939453125 22.939453125,56.8359375 18.0175762176514,53.51806640625 13.564453125,49.599609375 9.64599609375,45.146484375 6.328125,40.224609375 3.651123046875,34.8779296875 1.6552734375,29.150390625 0.413818180561066,23.1152362823486 0,16.845703125 0,15.263671875 0.703125,10.810546875 2.6806640625,7.001953125 5.7421875,3.95507836341858 9.697265625,1.81640648841858 11.162109375,1.25976550579071 12.8466796875,0.659180045127869 14.5458984375,0.190430045127869 16.0546875,0z" />
    </g>
  </g>
</svg>