<?xml version="1.0" encoding="utf-8"?>
<!DOCTYPE svg PUBLIC "-//W3C//DTD SVG 1.1//EN" "http://www.w3.org/Graphics/SVG/1.1/DTD/svg11.dtd">
<svg width="63.1640625000009" height="67.3828125" xmlns="http://www.w3.org/2000/svg" xmlns:xlink="http://www.w3.org/1999/xlink" xmlns:xml="http://www.w3.org/XML/1998/namespace" version="1.1">
  <g>
    <g>
      <path style="fill:#FF0000;fill-opacity:1" d="M25.25390625,42.12890625L33.69140625,42.12890625 35.771484375,42.158203125 37.8515625,42.275390625 35.009765625,43.7255859375 31.81640625,44.208984375 25.25390625,44.208984375 21.6650390625,43.9892578125 18.1640625,43.154296875 21.6650390625,42.3486328125 25.25390625,42.12890625z M50.537109375,36.298828125L50.5517578125,37.587890625 50.56640625,38.7890625 50.3759765625,42.0703125 49.453125,45.380859375 50.21484375,46.259765625 50.537109375,47.373046875 50.2880821228027,48.896484375 49.541015625,50.185546875 46.962890625,52.1630859375 43.388671875,53.466796875 39.43359375,54.2431640625 35.712890625,54.6240234375 32.8125,54.7265625 27.7587890625,54.755859375 22.705078125,54.755859375 12.626953125,54.755859375 9.3603515625,55.4150390625 6.6796875,57.216796875 4.8779296875,59.8974609375 4.21875,63.1640625 31.58203125,63.1640625 37.20703125,62.9443359375 43.2861328125,62.109375 49.1455078125,60.41015625 54.1552734375,57.568359375 56.1181640625,55.623779296875 57.6416015625,53.3056640625 58.619384765625,50.570068359375 58.9453125,47.373046875 58.30078125,43.59375 56.54296875,40.5322265625 53.876953125,38.115234375 50.537109375,36.298828125z M27.36328125,6.328125L28.857421875,6.943359375 29.47265625,8.4375 29.47265625,10.517578125 28.857421875,12.01171875 27.36328125,12.626953125 25.8837890625,11.9970703125 25.25390625,10.517578125 25.25390625,8.4375 25.8837890625,6.9580078125 27.36328125,6.328125z M14.736328125,4.21874952316284L14.736328125,5.654296875 14.736328125,6.35742139816284 14.765625,7.060546875 15.3955078125,10.751953125 16.9189453125,13.8720703125 19.4677734375,16.0400390625 21.1633281707764,16.644287109375 23.173828125,16.845703125 37.353515625,16.845703125 38.62060546875,18.9990234375 39.43359375,21.357421875 40.01953125,26.30859375 40.01953125,33.80859375 38.4375,33.720703125 36.85546875,33.69140625 25.25390625,33.69140625 21.97265625,33.8525390625 18.28125,34.423828125 14.6337890625,35.5224609375 11.4697265625,37.2509765625 9.2431640625,39.755859375 8.616943359375,41.337890625 8.408203125,43.154296875 8.61328125,44.96337890625 9.228515625,46.5234375 11.4111328125,49.013671875 14.5166015625,50.771484375 18.10546875,51.884765625 21.7529296875,52.470703125 25.01953125,52.646484375 31.58203125,52.646484375 34.757080078125,52.393798828125 37.8369140625,51.6357421875 40.7006797790527,50.4052734375 43.2275390625,48.7353515625 45.3515586853027,46.63330078125 47.0068359375,44.1064453125 48.0725059509277,41.187744140625 48.427734375,37.91015625 48.427734375,26.30859375 48.076171875,21.5625 46.875,16.962890625 44.326171875,12.099609375 40.6787109375,8.1884765625 36.09375,5.47851514816284 33.49365234375,4.65820598602295 30.732421875,4.248046875 30.263671875,4.21874952316284 29.794921875,4.21874952316284 14.736328125,4.21874952316284z M9.462890625,4.21874952316284L8.73046875,4.541015625 8.408203125,5.2734375 8.90625,8.056640625 10.3125,10.517578125 7.38281154632568,10.517578125 6.6357421875,10.8251953125 6.328125,11.572265625 6.6357421875,12.3193359375 7.38281154632568,12.626953125 13.828125,12.626953125 13.125,10.341796875 11.2060546875,8.1298828125 10.517578125,5.2734375 10.2099609375,4.5263671875 9.462890625,4.21874952316284z M9.462890625,0L30.05859375,0 34.4091796875,0.541992425918579 38.5546875,1.96289026737213 41.9421348571777,3.83423137664795 44.8388671875,6.1669921875 47.2595176696777,8.8916015625 49.21875,11.9384765625 50.7275352478027,15.260009765625 51.796875,18.80859375 52.4340782165527,22.5146484375 52.646484375,26.30859375 52.646484375,32.63671875 56.89453125,35.1123046875 60.2197265625,38.4228515625 62.3876953125,42.5390625 62.969970703125,44.87548828125 63.1640625,47.373046875 62.6220703125,51.7236328125 60.99609375,55.810546875 57.59765625,60.0732421875 53.1591796875,63.1640625 48.0029296875,65.2734375 42.4658203125,66.5625 36.884765625,67.20703125 31.58203125,67.3828125 0,67.3828125 0,63.1640625 0.556640625,59.443359375 2.1533203125,56.1328125 4.6435546875,53.408203125 7.8515625,51.474609375 6.29882717132568,49.69482421875 5.15625,47.6953125 4.453125,45.50537109375 4.21875,43.154296875 4.46044921875,40.64208984375 5.185546875,38.4375 7.7783203125,34.86328125 11.54296875,32.2998046875 16.025390625,30.6298828125 20.7421875,29.736328125 25.25390625,29.47265625 28.271484375,29.4580078125 31.2890625,29.443359375 33.544921875,29.4580078125 35.80078125,29.501953125 35.80078125,27.392578125 35.654296875,24.19921875 34.892578125,21.064453125 23.173828125,21.064453125 20.5151348114014,20.804443359375 18.046875,20.0244140625 15.82763671875,18.709716796875 13.916015625,16.845703125 7.38281154632568,16.845703125 5.33203125,16.435546875 3.6474609375,15.3076171875 2.51953125,13.623046875 2.109375,11.572265625 2.6953125,9.1259765625 4.36523342132568,7.265625 4.2626953125,6.26953125 4.21875,5.2734375 4.62890625,3.22265577316284 5.7568359375,1.53808617591858 7.4267578125,0.410156488418579 9.462890625,0z" />
    </g>
  </g>
</svg>