<?xml version="1.0" encoding="utf-8"?>
<!DOCTYPE svg PUBLIC "-//W3C//DTD SVG 1.1//EN" "http://www.w3.org/Graphics/SVG/1.1/DTD/svg11.dtd">
<svg width="67.4121093750008" height="56.865234375001" xmlns="http://www.w3.org/2000/svg" xmlns:xlink="http://www.w3.org/1999/xlink" xmlns:xml="http://www.w3.org/XML/1998/namespace" version="1.1">
  <g>
    <g>
      <path style="fill:#FF0000;fill-opacity:1" d="M25.25390625,44.23828125L25.25390625,52.646484375 29.47265625,52.646484375 29.47265625,46.34765625 31.58203125,44.23828125 25.25390625,44.23828125z M48.427734375,40.01953125L48.427734375,42.12890625 44.208984375,52.646484375 48.427734375,52.646484375 52.587890625,42.94921875 49.658203125,40.01953125 48.427734375,40.01953125z M58.9453125,39.140625L57.744140625,39.638671875 56.1181640625,39.90234375 54.3896484375,40.0048828125 52.91015625,40.01953125 52.646484375,40.01953125 54.755859375,42.12890625 54.755859375,52.646484375 58.9453125,52.646484375 58.9453125,39.140625z M17.900390625,10.546875L17.0068359375,10.576171875 16.11328125,10.60546875 16.845703125,11.6015625 16.845703125,13.7109375 16.40625,14.53125 17.900390625,14.765625 19.3798828125,14.1357421875 20.009765625,12.65625 19.39453125,11.162109375 17.900390625,10.546875z M11.89453125,9.43359375L11.25,9.90234375 12.01171875,11.07421875 12.7587890625,12.0703125 13.623046875,12.9638671875 14.736328125,13.798828125 14.736328125,11.6015625 14.9267578125,11.0009765625 15.439453125,10.60546875 13.5498046875,10.3564453125 11.89453125,9.43359375z M28.59375,8.4375L29.2822265625,10.48828125 29.47265625,12.65625 29.267578125,14.7802753448486 28.65234375,16.7578125 26.396484375,20.09765625 23.056640625,22.353515625 21.0790996551514,22.96875 18.955078125,23.173828125 15.64453125,22.646484375 12.626953125,21.064453125 10.836181640625,19.3798847198486 9.5068359375,17.373046875 8.682861328125,15.1098651885986 8.408203125,12.65625 6.328125,14.7802734375 4.21875,16.845703125 8.408203125,16.845703125 8.1005859375,18.0615234375 7.294921875,18.69140625 6.181640625,18.92578125 4.98046875,18.955078125 4.8046875,18.955078125 6.328125,20.4931640625 8.408203125,21.064453125 12.626953125,21.064453125 12.626953125,25.283203125 13.2568359375,28.5205078125 15.1171875,31.23046875 15.9814453125,31.904296875 16.845703125,32.548828125 16.845703125,35.80078125 17.34375,38.26171875 18.7060546875,40.2685546875 20.712890625,41.630859375 23.173828125,42.12890625 35.80078125,42.12890625 37.7197265625,41.8212890625 39.4189453125,40.95703125 40.78125,39.6240234375 41.71875,37.91015625 54.755859375,37.91015625 58.0224609375,37.2509765625 60.703125,35.44921875 62.5048828125,32.7685546875 63.1640625,29.501953125 63.1640625,24.228515625 62.783203125,21.50390625 61.611328125,19.04296875 60.054931640625,17.2265644073486 58.1982421875,15.87890625 56.070556640625,15.0439472198486 53.701171875,14.765625 41.806640625,14.765625 40.6787109375,12.216796875 38.818359375,10.2099609375 36.4306640625,8.90625 33.69140625,8.4375 28.59375,8.4375z M14.736328125,4.21874952316284L13.2568359375,4.84863233566284 12.626953125,6.32812452316284 12.8759765625,7.44140577316284 13.5205078125,8.0712890625 14.4287109375,8.349609375 15.46875,8.408203125 16.2744140625,8.3935546875 17.021484375,8.37890625 18.9404296875,8.6279296875 20.56640625,9.404296875 21.6943359375,10.7373046875 22.119140625,12.65625 21.7822265625,14.296875 20.8740234375,15.6298828125 19.541015625,16.5234375 17.900390625,16.845703125 15.732421875,16.5234375 13.7255859375,15.6298828125 11.953125,14.296875 10.517578125,12.65625 11.19140625,15.908203125 13.0078125,18.57421875 15.6884765625,20.390625 18.955078125,21.064453125 22.236328125,20.4052734375 24.90234375,18.603515625 26.7041015625,15.9375 27.36328125,12.65625 26.7041015625,9.3603515625 24.90234375,6.67968702316284 22.236328125,4.87792921066284 18.955078125,4.21874952316284 14.736328125,4.21874952316284z M14.736328125,0L18.955078125,0 21.5734844207764,0.274657785892487 24.0966796875,1.09863233566284 26.392822265625,2.42797803878784 28.330078125,4.21874952316284 33.69140625,4.21874952316284 36.9873046875,4.65820264816284 39.990234375,5.91796827316284 42.568359375,7.91015577316284 44.58984375,10.546875 53.701171875,10.546875 56.43310546875,10.81787109375 59.00390625,11.630859375 61.336669921875,12.9089374542236 63.3544921875,14.5751953125 65.020751953125,16.5930194854736 66.298828125,18.92578125 67.11181640625,21.49658203125 67.3828125,24.228515625 67.3974609375,25.7666015625 67.412109375,27.3046875 67.265625,30.64453125 66.6796875,33.6181640625 65.4052734375,36.328125 63.1640625,38.876953125 63.1640625,56.865234375 37.998046875,56.865234375 43.623046875,42.83203125 41.8615684509277,44.425048828125 39.9169921875,45.5126953125 37.774658203125,46.138916015625 35.419921875,46.34765625 33.69140625,48.076171875 33.69140625,56.865234375 21.064453125,56.865234375 21.064453125,46.34765625 20.009765625,46.34765625 17.138671875,45.76171875 14.794921875,44.1796875 13.212890625,41.8359375 12.626953125,38.96484375 12.626953125,34.658203125 10.836181640625,32.706298828125 9.5068359375,30.4248046875 8.682861328125,27.916259765625 8.408203125,25.283203125 5.15625,24.609375 2.490234375,22.7783203125 0.673828125,20.09765625 0,16.845703125 0,15.1171875 7.55859375,7.55859327316284 7.96875095367432,7.14843702316284 8.408203125,6.76757764816284 8.3935546875,6.53320264816284 8.37890625,6.29882764816284 8.876953125,3.86718702316284 10.224609375,1.86035108566284 12.24609375,0.498046398162842 14.736328125,0z" />
    </g>
  </g>
</svg>