<?xml version="1.0" encoding="utf-8"?>
<!DOCTYPE svg PUBLIC "-//W3C//DTD SVG 1.1//EN" "http://www.w3.org/Graphics/SVG/1.1/DTD/svg11.dtd">
<svg width="67.382812500001" height="58.974609375" xmlns="http://www.w3.org/2000/svg" xmlns:xlink="http://www.w3.org/1999/xlink" xmlns:xml="http://www.w3.org/XML/1998/namespace" version="1.1">
  <g>
    <g>
      <path style="fill:#FF0000;fill-opacity:1" d="M50.537109375,46.318359375L49.04296875,46.93359375 48.427734375,48.427734375 49.04296875,49.921875 50.537109375,50.537109375 52.03125,49.921875 52.646484375,48.427734375 52.03125,46.93359375 50.537109375,46.318359375z M35.185546875,34.306640625L35.80078125,35.80078125 35.185546875,37.294921875 33.69140625,37.91015625 32.197265625,37.294921875 35.185546875,34.306640625z M32.900390625,27.421875L29.8974609375,28.2861328125 27.4658203125,30.1318359375 25.83984375,32.724609375 25.25390625,35.80078125 25.9130859375,39.08203125 27.71484375,41.748046875 30.3955078125,43.5498046875 33.69140625,44.208984375 36.97265625,43.5498046875 39.638671875,41.748046875 41.4404296875,39.08203125 42.099609375,35.80078125 41.513671875,32.724609375 39.90234375,30.1318359375 37.4853515625,28.2861328125 34.482421875,27.421875 33.69140625,29.82421875 32.900390625,27.421875z M30.966796875,21.62109375L27.0556640625,23.642578125 23.0859375,25.546875 21.3061504364014,27.7807636260986 20.009765625,30.263671875 19.2187480926514,32.95166015625 18.955078125,35.80078125 19.2443828582764,38.759765625 20.1123046875,41.54296875 21.4782695770264,44.0625 23.26171875,46.23046875 25.4296875,48.013916015625 27.94921875,49.3798828125 30.732421875,50.247802734375 33.69140625,50.537109375 36.646728515625,50.247802734375 39.4189453125,49.3798828125 41.9311485290527,48.01025390625 44.1064453125,46.2158203125 45.9008750915527,44.04052734375 47.2705078125,41.5283203125 48.1384239196777,38.756103515625 48.427734375,35.80078125 48.1640586853027,32.95166015625 47.373046875,30.263671875 46.0766563415527,27.7807636260986 44.296875,25.546875 40.3271484375,23.642578125 36.416015625,21.62109375 35.859375,23.349609375 38.031005859375,23.9209003448486 40.0341796875,24.873046875 43.3447265625,27.685546875 45.52734375,31.435546875 46.1206016540527,33.56689453125 46.318359375,35.80078125 46.0693321228027,38.331298828125 45.322265625,40.7080078125 42.6123046875,44.7216796875 38.5986328125,47.431640625 36.221923828125,48.1787109375 33.69140625,48.427734375 31.160888671875,48.1787109375 28.7841796875,47.431640625 24.7705078125,44.7216796875 22.060546875,40.7080078125 21.3134746551514,38.331298828125 21.064453125,35.80078125 21.2622051239014,33.56689453125 21.85546875,31.435546875 24.0380859375,27.685546875 27.3486328125,24.873046875 29.351806640625,23.9209003448486 31.5234375,23.349609375 30.966796875,21.62109375z M8.408203125,18.955078125L12.626953125,18.955078125 12.626953125,23.173828125 8.408203125,23.173828125 8.408203125,18.955078125z M38.5546875,18.134765625L37.470703125,18.515625 37.08984375,19.599609375 40.01953125,21.064453125 38.5546875,18.134765625z M28.828125,18.134765625L27.36328125,21.064453125 30.29296875,19.599609375 29.912109375,18.515625 28.828125,18.134765625z M8.408203125,14.736328125L8.408203125,16.845703125 4.21875,16.845703125 4.21875,25.283203125 22.91015625,25.283203125 24.873046875,21.3720703125 26.806640625,17.4609375 23.61328125,16.40625 23.173828125,16.845703125 16.845703125,16.845703125 16.845703125,14.736328125 8.408203125,14.736328125z M49.921875,14.677734375L48.076171875,14.9267578125 46.318359375,15.556640625 46.318359375,16.845703125 44.208984375,16.845703125 43.76953125,16.40625 40.576171875,17.4609375 42.509765625,21.3720703125 44.47265625,25.283203125 63.1640625,25.283203125 63.1640625,16.845703125 58.9453125,16.845703125 58.9453125,14.736328125 54.755859375,14.736328125 54.755859375,16.845703125 50.537109375,16.845703125 50.537109375,14.736328125 50.2294921875,14.6923828125 49.921875,14.677734375z M33.69140625,12.626953125L35.80078125,14.736328125 33.69140625,16.845703125 31.58203125,14.736328125 33.69140625,12.626953125z M40.01953125,8.43749904632568L37.08984375,9.873046875 37.470703125,10.9570302963257 38.5546875,11.3378896713257 40.01953125,8.43749904632568z M27.36328125,8.43749904632568L28.828125,11.3378896713257 29.912109375,10.9570302963257 30.29296875,9.873046875 27.36328125,8.43749904632568z M33.69140625,6.32812404632568L32.6513671875,9.4775390625 31.58203125,12.626953125 25.25390625,14.736328125 28.41796875,15.8056640625 31.58203125,16.845703125 33.69140625,23.173828125 35.80078125,16.845703125 42.099609375,14.736328125 38.9501953125,13.6962890625 35.80078125,12.626953125 34.7314453125,9.4775390625 33.69140625,6.32812404632568z M33.57421875,0L33.80859375,0 35.1123046875,3.92578053474426 36.416015625,7.85156202316284 44.70703125,3.72070264816284 42.158203125,8.81835842132568 43.857421875,10.517578125 67.3828125,10.517578125 67.3828125,52.646484375 66.884765625,55.107421875 65.5224609375,57.1142578125 63.515625,58.4765625 61.0546875,58.974609375 6.328125,58.974609375 3.8671875,58.4765625 1.8603515625,57.1142578125 0.498046875,55.107421875 0,52.646484375 0,10.517578125 23.525390625,10.517578125 25.224609375,8.81835842132568 22.67578125,3.72070264816284 26.806640625,5.7861328125 30.966796875,7.85156202316284 32.2705078125,3.92578053474426 33.57421875,0z" />
    </g>
  </g>
</svg>