<?xml version="1.0" encoding="utf-8"?>
<!DOCTYPE svg PUBLIC "-//W3C//DTD SVG 1.1//EN" "http://www.w3.org/Graphics/SVG/1.1/DTD/svg11.dtd">
<svg width="67.1191406250008" height="51.03515625" xmlns="http://www.w3.org/2000/svg" xmlns:xlink="http://www.w3.org/1999/xlink" xmlns:xml="http://www.w3.org/XML/1998/namespace" version="1.1">
  <g>
    <g>
      <path style="fill:#FF0000;fill-opacity:1" d="M19.86328125,38.37890625L18.80859375,38.5546875 17.2998046875,39.755859375 16.69921875,41.54296875 16.69921875,44.70703125 17.75390625,43.65234375 18.80859375,44.70703125 19.86328125,43.65234375 20.91796875,44.70703125 21.97265625,43.65234375 23.02734375,44.70703125 23.02734375,41.54296875 22.734375,40.1953125 21.884765625,39.111328125 21.62109375,38.9501953125 21.38671875,38.759765625 20.947265625,38.583984375 19.86328125,38.37890625z M54.609375,26.015625L33.544921875,36.533203125 27.2314453125,33.369140625 20.91796875,30.205078125 20.91796875,36.38671875 22.6025390625,37.0166015625 23.935546875,38.203125 24.814453125,39.7705078125 25.13671875,41.54296875 25.13671875,43.330078125 30.791015625,46.142578125 32.1240234375,46.640625 33.544921875,46.81640625 36.328125,46.142578125 51.181640625,38.73046875 53.6865234375,36.4453125 54.3786582946777,34.88525390625 54.609375,33.193359375 54.609375,26.015625z M12.509765625,26.015625L12.509765625,33.193359375 12.71484375,34.79736328125 13.330078125,36.26953125 15.556640625,38.525390625 16.9775390625,37.1484375 18.80859375,36.38671875 18.80859375,29.150390625 12.509765625,26.015625z M33.544921875,4.6875L4.072265625,19.423828125 11.4404296875,23.115234375 18.80859375,26.806640625 18.80859375,26.162109375 20.361328125,25.37109375 22.96875,24.0380859375 26.044921875,22.470703125 29.033203125,20.9765625 31.376953125,19.86328125 32.138671875,19.5336933135986 32.490234375,19.423828125 33.251953125,19.7314453125 33.57421875,20.478515625 33.33984375,21.15234375 32.75390625,21.533203125 20.91796875,27.451171875 20.91796875,27.861328125 33.544921875,34.189453125 48.2958984375,26.806640625 63.046875,19.423828125 33.544921875,4.6875z M33.544921875,0L64.74609375,15.5859375 66.4892578125,17.1826171875 67.119140625,19.453125 66.50390625,21.708984375 64.74609375,23.291015625 61.8017578125,24.78515625 58.828125,26.25 58.828125,33.193359375 58.41796875,36.0498046875 57.2607421875,38.6572265625 55.458984375,40.8544921875 53.0859375,42.48046875 38.203125,49.921875 35.95458984375,50.7568359375 33.544921875,51.03515625 31.81640625,50.888671875 30.2783203125,50.4931640625 28.8134765625,49.892578125 27.3046875,49.130859375 26.89453125,48.92578125 12.509765625,48.92578125 12.509765625,41.513671875 10.755615234375,39.85107421875 9.4189453125,37.8515625 8.572998046875,35.60302734375 8.291015625,33.193359375 8.291015625,26.25 5.3173828125,24.78515625 2.373046875,23.291015625 0.615234375,21.708984375 0,19.453125 0.6298828125,17.1826171875 2.373046875,15.5859375 33.544921875,0z" />
    </g>
  </g>
</svg>