<?xml version="1.0" encoding="utf-8"?>
<!DOCTYPE svg PUBLIC "-//W3C//DTD SVG 1.1//EN" "http://www.w3.org/Graphics/SVG/1.1/DTD/svg11.dtd">
<svg width="67.3828125000007" height="60.703125" xmlns="http://www.w3.org/2000/svg" xmlns:xlink="http://www.w3.org/1999/xlink" xmlns:xml="http://www.w3.org/XML/1998/namespace" version="1.1">
  <g>
    <g>
      <path style="fill:#FF0000;fill-opacity:1" d="M27.01171875,21.064453125L24.697265625,21.533203125 22.8076171875,22.8076171875 21.533203125,24.697265625 21.064453125,27.01171875 21.50390625,29.296875 22.79296875,31.23046875 33.69140625,42.099609375 44.58984375,31.23046875 45.87890625,29.296875 46.318359375,27.01171875 45.849609375,24.697265625 44.5751953125,22.8076171875 42.685546875,21.533203125 40.37109375,21.064453125 38.291015625,21.4453125 36.6064453125,22.412109375 35.126953125,23.759765625 33.69140625,25.25390625 32.2412109375,23.759765625 30.7763671875,22.412109375 29.091796875,21.4453125 27.01171875,21.064453125z M27.01171875,18.955078125L29.033203125,19.189453125 30.7177734375,19.86328125 32.2119140625,20.91796875 33.69140625,22.294921875 35.15625,20.91796875 36.6796875,19.86328125 38.3642578125,19.189453125 40.37109375,18.955078125 43.505859375,19.5849609375 46.0693359375,21.3134765625 47.7978515625,23.876953125 48.427734375,27.01171875 47.7978515625,30.1171875 46.0546875,32.724609375 33.69140625,45.087890625 21.298828125,32.724609375 19.5703125,30.1025390625 18.955078125,27.01171875 19.5849609375,23.8623046875 21.298828125,21.298828125 23.8623046875,19.5849609375 27.01171875,18.955078125z M23.056640625,12.626953125L20.9582500457764,12.83203125 18.9990234375,13.447265625 15.6884765625,15.6884765625 13.447265625,19.013671875 12.83203125,20.9765644073486 12.626953125,23.056640625 12.821044921875,25.1074237823486 13.4033203125,27.041015625 15.673828125,30.41015625 33.69140625,48.427734375 51.708984375,30.41015625 53.9501953125,27.0263671875 54.5324668884277,25.0744647979736 54.7265625,23.056640625 54.5214805603027,20.9765644073486 53.90625,19.013671875 51.6796875,15.6884765625 48.3837890625,13.447265625 46.4245567321777,12.83203125 44.326171875,12.626953125 41.2646484375,13.0517578125 38.7890625,14.2236328125 36.650390625,15.9521484375 34.599609375,18.017578125 33.69140625,18.955078125 32.783203125,18.017578125 30.732421875,15.9521484375 28.59375,14.2236328125 26.103515625,13.0517578125 23.056640625,12.626953125z M23.056640625,10.517578125L26.279296875,10.9130859375 28.9599609375,12.041015625 31.34765625,13.76953125 33.69140625,15.966796875 36.03515625,13.76953125 38.4228515625,12.041015625 41.103515625,10.9130859375 44.326171875,10.517578125 46.8310508728027,10.7666015625 49.189453125,11.513671875 53.173828125,14.208984375 55.869140625,18.193359375 56.6162109375,20.5517597198486 56.865234375,23.056640625 56.62353515625,25.5175800323486 55.8984375,27.861328125 54.7338829040527,30.0146484375 53.173828125,31.904296875 33.69140625,51.416015625 14.208984375,31.904296875 12.64892578125,30.0146484375 11.484375,27.861328125 10.75927734375,25.5175800323486 10.517578125,23.056640625 10.7666015625,20.5517597198486 11.513671875,18.193359375 14.208984375,14.208984375 18.193359375,11.513671875 20.5517559051514,10.7666015625 23.056640625,10.517578125z M19.1015625,4.21875047683716L16.116943359375,4.51171922683716 13.3154296875,5.39062595367432 10.777587890625,6.77490282058716 8.583984375,8.583984375 6.77490139007568,10.777587890625 5.390625,13.3154306411743 4.51171875,16.116943359375 4.21875,19.1015625 4.500732421875,22.0202655792236 5.3466796875,24.7998046875 6.71996974945068,27.359619140625 8.583984375,29.619140625 33.69140625,54.755859375 58.798828125,29.619140625 60.662841796875,27.359619140625 62.0361328125,24.7998046875 62.882080078125,22.0202655792236 63.1640625,19.1015625 62.87109375,16.116943359375 61.9921875,13.3154306411743 60.60791015625,10.777587890625 58.798828125,8.583984375 56.605224609375,6.77490282058716 54.0673828125,5.39062595367432 51.2658653259277,4.51171922683716 48.28125,4.21875047683716 44.033203125,4.775390625 40.634765625,6.31347703933716 37.6904296875,8.6279296875 34.8046875,11.484375 33.69140625,12.626953125 32.490234375,11.396484375 29.6337890625,8.5986328125 26.689453125,6.31347703933716 23.3056640625,4.775390625 19.1015625,4.21875047683716z M19.1015625,0L23.349609375,0.454102218151093 27.12890625,1.7578125 30.5419921875,3.85253953933716 33.69140625,6.6796875 36.8408203125,3.85253953933716 40.25390625,1.7578125 44.033203125,0.454102218151093 48.28125,0 53.349609375,0.688476979732513 57.9052734375,2.62207126617432 61.7724609375,5.61035203933716 64.7607421875,9.4775390625 66.6943359375,14.033203125 67.3828125,19.1015625 67.020263671875,22.8515644073486 65.9326171875,26.42578125 64.171142578125,29.71435546875 61.787109375,32.607421875 33.69140625,60.703125 5.59570217132568,32.607421875 3.211669921875,29.71435546875 1.4501953125,26.42578125 0.362548470497131,22.8515644073486 0,19.1015625 0.688477516174316,14.0185546875 2.607421875,9.462890625 5.59570217132568,5.59570360183716 9.462890625,2.60742259025574 14.0185546875,0.688476979732513 19.1015625,0z" />
    </g>
  </g>
</svg>