<?xml version="1.0" encoding="utf-8"?>
<!DOCTYPE svg PUBLIC "-//W3C//DTD SVG 1.1//EN" "http://www.w3.org/Graphics/SVG/1.1/DTD/svg11.dtd">
<svg width="58.9746093750015" height="67.3828125" xmlns="http://www.w3.org/2000/svg" xmlns:xlink="http://www.w3.org/1999/xlink" xmlns:xml="http://www.w3.org/XML/1998/namespace" version="1.1">
  <g>
    <g>
      <path style="fill:#FF0000;fill-opacity:1" d="M27.36328125,48.076171875L27.36328125,61.0546875 27.978515625,62.548828125 29.47265625,63.1640625 30.966796875,62.548828125 31.58203125,61.0546875 31.58203125,48.076171875 29.47265625,48.427734375 27.36328125,48.076171875z M48.427734375,46.318359375L45.673828125,46.7138671875 43.125,47.8125 33.69140625,53.49609375 33.69140625,58.974609375 42.099609375,58.974609375 44.6520957946777,58.7255859375 47.0361328125,57.978515625 51.0498046875,55.2685546875 53.759765625,51.2548828125 54.5068321228027,48.870849609375 54.755859375,46.318359375 48.427734375,46.318359375z M4.21874952316284,46.318359375L4.46411085128784,48.870849609375 5.20019483566284,51.2548828125 7.89550733566284,55.2685546875 11.9091796875,57.978515625 14.293212890625,58.7255859375 16.845703125,58.974609375 25.25390625,58.974609375 25.25390625,53.49609375 15.8203125,47.8125 13.27880859375,46.69189453125 10.517578125,46.318359375 4.21874952316284,46.318359375z M29.47265625,16.845703125L32.7685546875,17.5048828125 35.44921875,19.306640625 37.2509765625,21.9873046875 37.91015625,25.283203125 37.2509765625,28.564453125 35.44921875,31.23046875 32.7685546875,33.0322265625 29.47265625,33.69140625 26.19140625,33.0322265625 23.525390625,31.23046875 21.7236328125,28.564453125 21.064453125,25.283203125 21.7236328125,21.9873046875 23.525390625,19.306640625 26.19140625,17.5048828125 29.47265625,16.845703125z M29.47265625,4.21874952316284L27.83203125,4.5556640625 26.4990234375,5.46386766433716 25.5908203125,6.796875 25.25390625,8.4375 25.25390625,15.1171875 20.537109375,10.400390625 19.1674785614014,9.45556640625 17.578125,9.140625 15.9228515625,9.4775390625 14.5751953125,10.400390625 13.681640625,11.748046875 13.359375,13.3886709213257 13.6669921875,14.99267578125 14.58984375,16.34765625 19.306640625,21.064453125 12.626953125,21.064453125 10.986328125,21.4013671875 9.6533203125,22.3095703125 8.759765625,23.642578125 8.4375,25.283203125 8.759765625,26.923828125 9.6533203125,28.2568359375 10.986328125,29.150390625 12.626953125,29.47265625 19.306640625,29.47265625 14.58984375,34.21875 13.681640625,35.5810546875 13.359375,37.20703125 13.6962890625,38.84765625 14.6044921875,40.1806640625 15.9375,41.07421875 17.578125,41.396484375 19.1821269989014,41.0888671875 20.537109375,40.166015625 25.25390625,35.44921875 25.25390625,42.12890625 25.5908203125,43.76953125 26.4990234375,45.1025390625 27.83203125,45.99609375 29.47265625,46.318359375 31.11328125,45.99609375 32.4462890625,45.1025390625 33.3544921875,43.76953125 33.69140625,42.12890625 33.69140625,35.44921875 38.408203125,40.166015625 39.7705078125,41.07421875 41.396484375,41.396484375 43.0224609375,41.0595703125 44.3701171875,40.1513671875 45.2783203125,38.818359375 45.615234375,37.20703125 45.2783203125,35.5810546875 44.35546875,34.21875 39.638671875,29.47265625 46.318359375,29.47265625 47.958984375,29.150390625 49.2919921875,28.2568359375 50.2001953125,26.923828125 50.537109375,25.283203125 50.2001953125,23.642578125 49.2919921875,22.3095703125 47.958984375,21.4013671875 46.318359375,21.064453125 39.638671875,21.064453125 44.35546875,16.34765625 45.2783203125,15 45.615234375,13.3886709213257 45.2783203125,11.7626953125 44.3701171875,10.400390625 43.0224609375,9.4775390625 41.396484375,9.140625 39.78515625,9.45556640625 38.408203125,10.400390625 33.69140625,15.1171875 33.69140625,8.4375 33.3544921875,6.796875 32.4462890625,5.46386766433716 31.11328125,4.5556640625 29.47265625,4.21874952316284z M29.47265625,0L32.1240234375,0.424805164337158 34.453125,1.62597644329071 36.298828125,3.48632788658142 37.5,5.888671875 39.38232421875,5.18554973602295 41.396484375,4.95117235183716 44.677734375,5.61035108566284 47.34375,7.412109375 49.1455078125,10.078125 49.8046875,13.359375 49.5703086853027,15.37353515625 48.8671875,17.255859375 51.26953125,18.45703125 53.1298828125,20.302734375 54.3310546875,22.6318359375 54.755859375,25.283203125 54.3310546875,27.9345703125 53.1298828125,30.263671875 51.26953125,32.109375 48.8671875,33.310546875 49.5703086853027,35.185546875 49.8046875,37.177734375 49.39453125,39.7705078125 48.22265625,42.12890625 58.974609375,42.12890625 58.974609375,46.318359375 58.3740234375,50.7861328125 56.6748046875,54.814453125 54.0234375,58.2275390625 50.595703125,60.8642578125 46.5673828125,62.5634765625 42.099609375,63.1640625 35.44921875,63.1640625 34.4970703125,64.8779296875 33.1201171875,66.2109375 31.40625,67.0751953125 29.47265625,67.3828125 27.5537109375,67.0751953125 25.8544921875,66.1962890625 24.4775390625,64.86328125 23.525390625,63.1640625 16.845703125,63.1640625 13.465576171875,62.830810546875 10.2978515625,61.8310546875 7.43041849136353,60.260009765625 4.95117139816284,58.212890625 2.90405225753784,55.733642578125 1.33300733566284,52.8662109375 0.333251178264618,49.698486328125 0,46.318359375 0,42.12890625 10.751953125,42.12890625 9.54345703125,39.80712890625 9.140625,37.177734375 9.375,35.185546875 10.078125,33.310546875 7.69042921066284,32.109375 5.84472608566284,30.2490234375 4.64355421066284,27.919921875 4.21874952316284,25.283203125 4.64355421066284,22.6318359375 5.83007764816284,20.302734375 7.67578172683716,18.45703125 10.078125,17.255859375 9.375,15.380859375 9.140625,13.3886709213257 9.7998046875,10.0927734375 11.6015625,7.412109375 14.2822265625,5.61035108566284 17.578125,4.95117235183716 19.5703105926514,5.18554973602295 21.4453125,5.888671875 22.646484375,3.48632788658142 24.4921875,1.62597644329071 26.8212890625,0.424805164337158 29.47265625,0z" />
    </g>
  </g>
</svg>