<?xml version="1.0" encoding="utf-8"?>
<!DOCTYPE svg PUBLIC "-//W3C//DTD SVG 1.1//EN" "http://www.w3.org/Graphics/SVG/1.1/DTD/svg11.dtd">
<svg width="67.3828125" height="67.3828125" xmlns="http://www.w3.org/2000/svg" xmlns:xlink="http://www.w3.org/1999/xlink" xmlns:xml="http://www.w3.org/XML/1998/namespace" version="1.1">
  <g>
    <g>
      <path style="fill:#FF0000;fill-opacity:1" d="M33.69140625,42.12890625L30.3955078125,42.7880859375 27.71484375,44.58984375 25.9130859375,47.255859375 25.25390625,50.537109375 25.25390625,63.1640625 42.099609375,63.1640625 42.099609375,50.537109375 41.4404296875,47.255859375 39.638671875,44.58984375 36.97265625,42.7880859375 33.69140625,42.12890625z M21.064453125,29.47265625L46.318359375,29.47265625 46.318359375,33.69140625 21.064453125,33.69140625 21.064453125,29.47265625z M4.21875,25.283203125L4.21875,63.1640625 8.408203125,63.1640625 8.408203125,50.537109375 8.7451171875,48.896484375 9.6533203125,47.5634765625 10.986328125,46.6552734375 12.626953125,46.318359375 14.267578125,46.6552734375 15.6005859375,47.5634765625 16.5087890625,48.896484375 16.845703125,50.537109375 16.845703125,63.1640625 21.064453125,63.1640625 21.064453125,37.91015625 46.318359375,37.91015625 46.318359375,63.1640625 50.537109375,63.1640625 50.537109375,50.537109375 50.8740234375,48.896484375 51.7822265625,47.5634765625 53.115234375,46.6552734375 54.755859375,46.318359375 56.396484375,46.6552734375 57.7294921875,47.5634765625 58.623046875,48.896484375 58.9453125,50.537109375 58.9453125,63.1640625 63.1640625,63.1640625 63.1640625,25.283203125 4.21875,25.283203125z M4.21875,21.064453125L4.21875,23.173828125 63.1640625,23.173828125 63.1640625,21.064453125 4.21875,21.064453125z M56.865234375,12.626953125L56.865234375,16.845703125 61.0546875,14.736328125 56.865234375,12.626953125z M48.427734375,12.626953125L48.427734375,16.845703125 52.646484375,14.736328125 48.427734375,12.626953125z M14.736328125,12.626953125L14.736328125,16.845703125 18.955078125,14.736328125 14.736328125,12.626953125z M6.328125,12.626953125L6.328125,16.845703125 10.517578125,14.736328125 6.328125,12.626953125z M42.099609375,10.517578125L44.208984375,10.517578125 44.208984375,12.626953125 42.099609375,12.626953125 42.099609375,10.517578125z M33.69140625,10.517578125L37.91015625,10.517578125 37.91015625,14.736328125 33.69140625,14.736328125 33.69140625,10.517578125z M25.25390625,10.517578125L29.47265625,10.517578125 29.47265625,14.736328125 25.25390625,14.736328125 25.25390625,10.517578125z M42.099609375,6.328125L44.208984375,6.328125 44.208984375,8.4375 42.099609375,8.4375 42.099609375,6.328125z M33.69140625,6.328125L35.80078125,6.328125 35.80078125,8.4375 33.69140625,8.4375 33.69140625,6.328125z M25.25390625,6.328125L27.36328125,6.328125 27.36328125,8.4375 25.25390625,8.4375 25.25390625,6.328125z M21.064453125,4.21874952316284L21.064453125,16.845703125 23.173828125,16.845703125 23.173828125,18.955078125 25.25390625,18.955078125 25.25390625,16.845703125 42.099609375,16.845703125 42.099609375,18.955078125 44.208984375,18.955078125 44.208984375,16.845703125 46.318359375,16.845703125 46.318359375,4.21874952316284 21.064453125,4.21874952316284z M16.845703125,0L50.537109375,0 50.537109375,10.517578125 65.2734375,10.517578125 65.2734375,14.736328125 67.3828125,14.736328125 67.3828125,67.3828125 0,67.3828125 0,14.736328125 2.109375,14.736328125 2.109375,10.517578125 16.845703125,10.517578125 16.845703125,0z" />
    </g>
  </g>
</svg>