<?xml version="1.0" encoding="utf-8"?>
<!DOCTYPE svg PUBLIC "-//W3C//DTD SVG 1.1//EN" "http://www.w3.org/Graphics/SVG/1.1/DTD/svg11.dtd">
<svg width="46.318359375" height="46.0546875" xmlns="http://www.w3.org/2000/svg" xmlns:xlink="http://www.w3.org/1999/xlink" xmlns:xml="http://www.w3.org/XML/1998/namespace" version="1.1">
  <g>
    <g>
      <path style="fill:#FF0000;fill-opacity:1" d="M23.173828125,7.998046875L20.225830078125,8.27178955078125 17.5048828125,9.093017578125 15.010986328125,10.4617309570313 12.744140625,12.3779296875 10.8599853515625,14.6859750747681 9.51416015625,17.2302265167236 8.7066650390625,20.0106830596924 8.4375,23.02734375 8.7066650390625,26.0440063476563 9.51416015625,28.824462890625 10.8599853515625,31.3687133789063 12.744140625,33.6767578125 15.010986328125,35.5929565429688 17.5048828125,36.961669921875 20.225830078125,37.7828979492188 23.173828125,38.056640625 26.1346435546875,37.7828979492188 28.86474609375,36.961669921875 31.3641357421875,35.5929565429688 33.6328125,33.6767578125 35.5169677734375,31.3687133789063 36.86279296875,28.824462890625 37.6702880859375,26.0440063476563 37.939453125,23.02734375 37.6702880859375,20.0106830596924 36.86279296875,17.2302265167236 35.5169677734375,14.6859750747681 33.6328125,12.3779296875 31.3641357421875,10.4617309570313 28.86474609375,9.093017578125 26.1346435546875,8.27178955078125 23.173828125,7.998046875z M27.48046875,0L30.146484375,5.654296875 35.771484375,3.369140625 36.181640625,9.462890625 42.36328125,9.462890625 40.458984375,15.615234375 46.318359375,17.666015625 42.392578125,23.02734375 46.318359375,28.359375 40.458984375,30.439453125 42.36328125,36.591796875 36.181640625,36.591796875 35.771484375,42.685546875 30.146484375,40.400390625 27.48046875,46.0546875 23.232421875,41.689453125 18.837890625,46.025390625 16.11328125,40.1953125 10.517578125,42.71484375 10.048828125,36.416015625 4.04296875,36.416015625 5.830078125,30.322265625 0,28.095703125 3.896484375,23.02734375 0,17.9296875 5.830078125,15.732421875 4.04296875,9.755859375 10.048828125,9.755859375 10.517578125,3.310546875 16.11328125,5.859375 18.837890625,0.029296875 23.232421875,4.365234375 27.48046875,0z" />
    </g>
  </g>
</svg>