<?xml version="1.0" encoding="utf-8"?>
<!DOCTYPE svg PUBLIC "-//W3C//DTD SVG 1.1//EN" "http://www.w3.org/Graphics/SVG/1.1/DTD/svg11.dtd">
<svg width="63.1640625000015" height="67.3828125" xmlns="http://www.w3.org/2000/svg" xmlns:xlink="http://www.w3.org/1999/xlink" xmlns:xml="http://www.w3.org/XML/1998/namespace" version="1.1">
  <g>
    <g>
      <path style="fill:#FF0000;fill-opacity:1" d="M28.41796875,50.537109375L27.6708984375,50.8447265625 27.36328125,51.591796875 27.36328125,53.701171875 27.5830078125,54.9755859375 28.2421875,55.986328125 29.2529296875,56.6455078125 30.52734375,56.865234375 32.63671875,56.865234375 33.9111328125,56.6455078125 34.921875,55.986328125 35.5810546875,54.9755859375 35.80078125,53.701171875 35.80078125,51.591796875 35.4931640625,50.8447265625 34.74609375,50.537109375 33.8671875,50.9912109375 33.662109375,52.03125 33.69140625,52.6904296875 33.720703125,53.26171875 33.5302734375,54.3017578125 32.63671875,54.755859375 30.52734375,54.755859375 29.619140625,54.2578125 29.4140625,53.173828125 29.443359375,52.5439453125 29.47265625,52.001953125 29.296875,50.9765625 28.41796875,50.537109375z M26.30859375,48.427734375L36.85546875,48.427734375 38.8916015625,48.837890625 40.5615234375,49.9658203125 41.689453125,51.650390625 42.099609375,53.701171875 41.689453125,55.751953125 40.5615234375,57.4365234375 38.8916015625,58.564453125 36.85546875,58.974609375 26.30859375,58.974609375 24.2724609375,58.564453125 22.6025390625,57.4365234375 21.474609375,55.751953125 21.064453125,53.701171875 21.474609375,51.650390625 22.6025390625,49.9658203125 24.2724609375,48.837890625 26.30859375,48.427734375z M27.36328125,42.099609375L35.80078125,42.099609375 35.4638671875,43.740234375 34.5556640625,45.0732421875 33.22265625,45.9814453125 31.58203125,46.318359375 29.94140625,45.9814453125 28.6083984375,45.0732421875 27.7001953125,43.740234375 27.36328125,42.099609375z M43.154296875,29.47265625L44.3701171875,29.7216796875 45.380859375,30.41015625 46.0693359375,31.4208984375 46.318359375,32.63671875 46.318359375,36.85546875 46.0693359375,38.0712890625 45.380859375,39.08203125 44.3701171875,39.7705078125 43.154296875,40.01953125 41.9384765625,39.7705078125 40.9423828125,39.08203125 40.2685546875,38.0712890625 40.01953125,36.85546875 40.01953125,32.63671875 40.2685546875,31.4208984375 40.9423828125,30.41015625 41.9384765625,29.7216796875 43.154296875,29.47265625z M20.009765625,29.47265625L21.2255859375,29.7216796875 22.236328125,30.41015625 22.9248046875,31.4208984375 23.173828125,32.63671875 23.173828125,36.85546875 22.9248046875,38.0712890625 22.236328125,39.08203125 21.2255859375,39.7705078125 20.009765625,40.01953125 18.7939453125,39.7705078125 17.783203125,39.08203125 17.0947265625,38.0712890625 16.845703125,36.85546875 16.845703125,32.63671875 17.0947265625,31.4208984375 17.783203125,30.41015625 18.7939453125,29.7216796875 20.009765625,29.47265625z M27.685546875,8.759765625L23.9501953125,9.708251953125 20.478515625,11.2646484375 17.3364238739014,13.3447265625 14.58984375,15.8642578125 12.28271484375,18.790283203125 10.458984375,22.08984375 9.1845703125,25.6787128448486 8.525390625,29.47265625 7.38281154632568,29.47265625 6.1669921875,29.7216796875 5.15625,30.41015625 4.4677734375,31.4208984375 4.21875,32.63671875 4.21875,38.96484375 4.4677734375,40.1806640625 5.15625,41.19140625 6.1669921875,41.8798828125 7.38281154632568,42.12890625 8.525390625,42.12890625 9.7705078125,47.8271484375 12.3193359375,52.8662109375 15.9814453125,57.099609375 20.5517578125,60.3515625 25.810546875,62.431640625 31.58203125,63.1640625 37.353515625,62.431640625 42.6123046875,60.3515625 47.1826171875,57.099609375 50.8447265625,52.8662109375 53.3935546875,47.8125 54.638671875,42.12890625 55.810546875,42.12890625 57.0263671875,41.8798828125 58.0224609375,41.19140625 58.6962890625,40.1806640625 58.9453125,38.96484375 58.9453125,32.63671875 58.6962890625,31.4208984375 58.0224609375,30.41015625 57.0263671875,29.7216796875 55.810546875,29.47265625 54.638671875,29.47265625 54.0673789978027,26.0412616729736 52.998046875,22.7783203125 51.4746055603027,19.73876953125 49.541015625,16.9775390625 44.5458984375,12.4072265625 41.5612754821777,10.689697265625 38.3203125,9.43359375 38.8037109375,11.0009765625 38.96484375,12.626953125 38.3056640625,15.9228515625 36.50390625,18.603515625 33.8232421875,20.4052734375 30.52734375,21.064453125 29.5166015625,20.9619140625 28.4912109375,20.6103515625 27.685546875,19.9658203125 27.36328125,18.984375 27.744140625,18.984375 28.681640625,18.9697265625 30.52734375,18.955078125 32.16796875,18.6328125 33.5009765625,17.7392578125 34.4091796875,16.3916015625 34.74609375,14.736328125 34.4091796875,13.095703125 33.5009765625,11.7626953125 32.16796875,10.8544921875 30.52734375,10.517578125 28.857421875,10.0341796875 27.685546875,8.759765625z M30.52734375,0L33.720703125,0.410156488418579 36.6650390625,1.59667932987213 39.228515625,3.48632788658142 41.279296875,5.97656202316284 47.314453125,9.169921875 52.3095703125,13.681640625 56.0595703125,19.27734375 57.396240234375,22.412109375 58.330078125,25.72265625 60.3076171875,26.8212890625 61.8310546875,28.41796875 62.8125,30.3955078125 63.1640625,32.63671875 63.1640625,38.96484375 62.8125,41.19140625 61.81640625,43.18359375 60.29296875,44.794921875 58.330078125,45.87890625 56.9384765625,50.42724609375 54.814453125,54.580078125 52.0605430603027,58.2568359375 48.779296875,61.376953125 45.0183067321777,63.90380859375 40.8251953125,65.80078125 36.309814453125,66.9873046875 31.58203125,67.3828125 25.3125,66.6650390625 19.5263671875,64.6142578125 14.3994140625,61.3623046875 10.1220703125,57.0556640625 6.884765625,51.85546875 4.86328125,45.87890625 2.8857421875,44.794921875 1.34765720367432,43.18359375 0.351562023162842,41.19140625 0,38.96484375 0,32.63671875 0.351562023162842,30.3955078125 1.34765720367432,28.41796875 2.8857421875,26.8212890625 4.86328125,25.72265625 5.87768459320068,22.24365234375 7.3388671875,18.955078125 11.42578125,13.125 16.8603515625,8.525390625 20.0134258270264,6.78222942352295 23.408203125,5.47851514816284 24.404296875,3.2666015625 26.0302734375,1.53808617591858 28.125,0.410156488418579 30.52734375,0z" />
    </g>
  </g>
</svg>