<?xml version="1.0" encoding="utf-8"?>
<!DOCTYPE svg PUBLIC "-//W3C//DTD SVG 1.1//EN" "http://www.w3.org/Graphics/SVG/1.1/DTD/svg11.dtd">
<svg width="54.7265625" height="67.3828125" xmlns="http://www.w3.org/2000/svg" xmlns:xlink="http://www.w3.org/1999/xlink" xmlns:xml="http://www.w3.org/XML/1998/namespace" version="1.1">
  <g>
    <g>
      <path style="fill:#FF0000;fill-opacity:1" d="M29.443359375,54.755859375L27.1728515625,55.4296875 25.634765625,57.216796875 24.19921875,56.865234375 22.3681640625,57.451171875 21.240234375,58.974609375 19.86328125,58.9599609375 18.427734375,59.091796875 17.2998046875,59.6923828125 16.845703125,61.0546875 17.4609375,62.548828125 18.955078125,63.1640625 42.099609375,63.1640625 43.59375,62.548828125 44.208984375,61.0546875 43.59375,59.5751953125 42.099609375,58.974609375 38.759765625,58.974609375 37.587890625,57.451171875 35.7421875,56.865234375 34.541015625,57.099609375 33.515625,57.802734375 31.9775390625,55.60546875 30.780029296875,54.96826171875 29.443359375,54.755859375z M27.3046875,12.626953125L22.705078125,12.8173828125 17.5634765625,13.4619140625 12.5830078125,14.6630859375 8.4375,16.5234375 7.5732421875,17.138671875 6.9873046875,17.6806640625 6.50390625,18.310546875 5.947265625,19.16015625 10.7080078125,18.017578125 16.0107421875,17.314453125 21.3720703125,16.9482421875 26.30859375,16.845703125 27.802734375,17.4609375 28.41796875,18.955078125 27.802734375,20.44921875 26.30859375,21.064453125 17.021484375,21.4599609375 7.8515625,22.998046875 11.689453125,27.2900390625 15.99609375,31.11328125 19.04296875,33.5888671875 22.2509765625,36.298828125 25.2099609375,39.2138671875 27.5390625,42.3046875 27.890625,42.24609375 32.3583984375,41.630859375 36.85546875,41.42578125 38.3203125,42.0263671875 38.935546875,43.505859375 38.3642578125,45.029296875 36.85546875,45.64453125 32.8857421875,45.791015625 28.9453125,46.318359375 29.033203125,47.4609375 28.8720703125,50.1123046875 28.41796875,52.734375 29.47265625,52.646484375 32.16796875,53.26171875 34.3359375,54.9609375 35.830078125,54.755859375 37.79296875,55.13671875 39.462890625,56.25 41.806640625,53.4521484375 43.7548828125,50.3466796875 45.0732421875,46.9482421875 45.556640625,43.330078125 45.439453125,41.1328125 45.087890625,39.19921875 44.501953125,37.32421875 43.7109375,35.302734375 36.9140625,34.013671875 30,33.69140625 28.505859375,33.076171875 27.890625,31.58203125 28.505859375,30.087890625 30,29.47265625 36.1669921875,29.736328125 42.275390625,30.615234375 42.2607421875,30.3515625 42.24609375,30.087890625 42.7880859375,26.5576171875 44.1943359375,23.671875 46.142578125,21.064453125 48.310546875,18.33984375 47.900390625,17.841796875 45.5126953125,15.99609375 42.158203125,14.6337890625 38.2470703125,13.6669921875 34.189453125,13.0517578125 30.3955078125,12.7294921875 27.3046875,12.626953125z M27.041015625,4.21874952316284L21.796875,4.43847703933716 16.0400390625,5.22949171066284 10.5322265625,6.8115234375 6.03515625,9.375 4.7607421875,10.810546875 4.189453125,12.626953125 4.8046875,17.021484375 7.2509765625,14.7216796875 10.8837890625,13.0078125 15.2197265625,11.806640625 19.74609375,11.044921875 23.9794921875,10.634765625 27.421875,10.517578125 30.8349609375,10.6201171875 34.7607421875,10.9716796875 38.876953125,11.6308584213257 42.861328125,12.65625 46.40625,14.12109375 49.189453125,16.11328125 49.365234375,16.2890625 49.51171875,16.494140625 50.244140625,14.7216796875 50.537109375,12.83203125 50.3210411071777,11.524658203125 49.6728515625,10.3564453125 47.548828125,8.4228515625 44.853515625,7.0458984375 42.3046875,6.21093797683716 38.4814453125,5.33203172683716 34.7607421875,4.70214891433716 30.99609375,4.33593797683716 27.0703125,4.21874952316284 27.041015625,4.21874952316284z M27.36328125,0L32.4609375,0.197756797075272 37.5,0.791015863418579 40.869140625,1.47949194908142 44.6484375,2.56347703933716 48.369140625,4.16015625 51.6064453125,6.328125 53.876953125,9.1259765625 54.51416015625,10.784912109375 54.7265625,12.626953125 54.111328125,16.435546875 52.587890625,19.5556640625 50.595703125,22.236328125 48.603515625,24.7265625 47.080078125,27.2607421875 46.46484375,30.087890625 46.58203125,31.0107421875 46.875,31.904296875 48.5009765625,32.666015625 50.0244140625,33.720703125 51.15234375,35.09765625 51.591796875,36.826171875 51.0205078125,38.8037109375 49.5703125,40.341796875 49.7314453125,41.8359375 49.775390625,43.330078125 49.4787559509277,46.673583984375 48.5888671875,49.8486328125 47.2009239196777,52.855224609375 45.41015625,55.693359375 47.6220703125,57.978515625 48.2263145446777,59.45068359375 48.427734375,61.0546875 47.9296875,63.515625 46.5673828125,65.5224609375 44.560546875,66.884765625 42.099609375,67.3828125 18.955078125,67.3828125 16.494140625,66.884765625 14.4873046875,65.5224609375 13.125,63.515625 12.626953125,61.0546875 13.1396484375,58.5791015625 14.53125,56.572265625 16.5673828125,55.2392578125 19.04296875,54.755859375 21.298828125,53.2470703125 23.935546875,52.646484375 24.140625,52.5 24.4921875,50.859375 23.26171875,50.2734375 22.1484375,49.453125 21.3427734375,48.3837890625 21.03515625,47.05078125 21.73828125,45.0439453125 23.4375,43.7109375 21.6943359375,41.5869140625 19.6435546875,39.580078125 17.4462890625,37.705078125 15.29296875,35.947265625 11.7626953125,33.0322265625 8.37890625,29.94140625 5.91796875,29.2822265625 3.16406154632568,28.18359375 0.9228515625,26.5283203125 0.230712890625,25.4553241729736 0,24.19921875 0.52734375,22.412109375 1.81640625,21.03515625 0.4541015625,16.91162109375 0,12.626953125 0.216064453125,10.784912109375 0.8642578125,9.1259765625 3.134765625,6.328125 6.357421875,4.16015625 10.078125,2.56347703933716 13.857421875,1.47949194908142 17.2265625,0.791015863418579 22.265625,0.197756797075272 27.36328125,0z" />
    </g>
  </g>
</svg>