<?xml version="1.0" encoding="utf-8"?>
<!DOCTYPE svg PUBLIC "-//W3C//DTD SVG 1.1//EN" "http://www.w3.org/Graphics/SVG/1.1/DTD/svg11.dtd">
<svg width="65.2734375000011" height="65.2734375" xmlns="http://www.w3.org/2000/svg" xmlns:xlink="http://www.w3.org/1999/xlink" xmlns:xml="http://www.w3.org/XML/1998/namespace" version="1.1">
  <g>
    <g>
      <path style="fill:#FF0000;fill-opacity:1" d="M16.845703125,33.69140625L18.33984375,34.306640625 18.955078125,35.80078125 18.33984375,37.294921875 16.845703125,37.91015625 16.845703125,33.69140625z M28.857421875,24.638671875L24.638671875,28.857421875 52.646484375,56.865234375 53.2763671875,57.216796875 54.697265625,57.919921875 56.54296875,58.828125 58.447265625,59.765625 60.0732421875,60.556640625 61.0546875,61.0546875 60.556640625,60.0732421875 59.765625,58.447265625 58.828125,56.54296875 57.919921875,54.697265625 57.216796875,53.2763671875 56.865234375,52.646484375 28.857421875,24.638671875z M31.58203125,10.517578125L31.58203125,14.736328125 30.087890625,14.12109375 29.47265625,12.626953125 30.1025390625,11.1474609375 31.58203125,10.517578125z M31.58203125,8.4375L30,8.759765625 28.65234375,9.638671875 27.71484375,10.9423828125 27.36328125,12.509765625 28.0224609375,14.8681640625 29.853515625,16.46484375 14.736328125,31.58203125 13.212890625,33.4716796875 12.626953125,35.80078125 12.94921875,37.3828125 13.8427734375,38.73046875 15.146484375,39.66796875 16.728515625,40.01953125 18.2666015625,39.697265625 19.658203125,38.8330078125 20.6689453125,37.55859375 21.064453125,36.005859375 20.44921875,33.603515625 18.57421875,31.962890625 33.69140625,16.845703125 35.185546875,14.9560546875 35.80078125,12.626953125 35.4638671875,10.986328125 34.5556640625,9.6533203125 33.22265625,8.759765625 31.58203125,8.4375z M8.408203125,4.21875L6.767578125,4.5556640625 5.4345703125,5.4638671875 4.541015625,6.79687547683716 4.21875,8.4375 4.541015625,10.078125 5.4345703125,11.4111328125 6.767578125,12.3046875 8.408203125,12.626953125 12.626953125,8.4375 12.2900390625,6.7822265625 11.3818359375,5.4345703125 10.048828125,4.54101610183716 8.408203125,4.21875z M8.408203125,0L11.220703125,0.468750238418579 13.6083984375,1.78710925579071 15.4541015625,3.8232421875 16.611328125,6.44531297683716 19.892578125,9.755859375 23.173828125,13.0078125 23.7890625,9.580078125 25.517578125,6.7822265625 28.1689453125,4.9072265625 31.58203125,4.21875 34.8486328125,4.892578125 37.529296875,6.70898485183716 39.345703125,9.375 40.01953125,12.626953125 39.4189453125,15.8642578125 37.8515625,18.5595703125 35.6982421875,20.91796875 33.33984375,23.173828125 59.82421875,49.658203125 60.615234375,50.771484375 64.833984375,59.1796875 65.2734375,61.0546875 64.9365234375,62.7099609375 64.0283203125,64.0576171875 62.6953125,64.951171875 61.0546875,65.2734375 59.1796875,64.833984375 50.771484375,60.615234375 49.658203125,59.82421875 25.25390625,35.419921875 24.638671875,38.84765625 22.91015625,41.6455078125 20.2587890625,43.5205078125 16.845703125,44.208984375 13.5791015625,43.53515625 10.8984375,41.71875 9.08203125,39.052734375 8.408203125,35.80078125 9.0234375,32.578125 10.60546875,29.8974609375 12.7587890625,27.5390625 15.087890625,25.283203125 10.810546875,20.91796875 6.4453125,16.611328125 3.8525390625,15.46875 1.8017578125,13.6376953125 0.46875,11.25 0,8.4375 0.673828125,5.1708984375 2.490234375,2.49023389816284 5.15625,0.673828601837158 8.408203125,0z" />
    </g>
  </g>
</svg>