<?xml version="1.0" encoding="utf-8"?>
<!DOCTYPE svg PUBLIC "-//W3C//DTD SVG 1.1//EN" "http://www.w3.org/Graphics/SVG/1.1/DTD/svg11.dtd">
<svg width="67.3828125000004" height="67.3828125" xmlns="http://www.w3.org/2000/svg" xmlns:xlink="http://www.w3.org/1999/xlink" xmlns:xml="http://www.w3.org/XML/1998/namespace" version="1.1">
  <g>
    <g>
      <path style="fill:#FF0000;fill-opacity:1" d="M62.666015625,39.169921875L39.140625,62.666015625 43.4619102478027,61.5234375 47.51953125,59.736328125 51.2365684509277,57.38525390625 54.5361328125,54.55078125 57.3779296875,51.26220703125 59.7216796875,47.548828125 61.505126953125,43.4912109375 62.666015625,39.169921875z M62.98828125,30.41015625L30.41015625,62.98828125 33.69140625,63.1640625 35.537109375,63.1201171875 37.3828125,62.958984375 62.9296875,37.3828125 63.10546875,35.537109375 63.1640625,33.69140625 62.98828125,30.41015625z M61.40625,23.583984375L23.583984375,61.40625 29.091796875,62.8125 62.8125,29.091796875 62.2265625,26.30859375 61.40625,23.583984375z M58.623046875,17.9296875L17.9296875,58.623046875 22.5,60.966796875 60.966796875,22.5 58.623046875,17.9296875z M54.90234375,13.212890625L13.212890625,54.90234375 15.0732421875,56.54296875 17.05078125,58.037109375 58.0078125,17.05078125 56.54296875,15.0732421875 54.90234375,13.212890625z M50.33203125,9.375L9.345703125,50.33203125 10.83984375,52.3095703125 12.48046875,54.169921875 54.169921875,12.48046875 52.3095703125,10.83984375 50.33203125,9.375z M44.8828125,6.416015625L6.416015625,44.8828125 8.759765625,49.453125 49.453125,8.759765625 44.8828125,6.416015625z M28.2421875,4.71679639816284L23.902587890625,5.87768840789795 19.8486328125,7.6611328125 16.142578125,10.0048828125 12.8466796875,12.8466796875 10.001220703125,16.142578125 7.646484375,19.8486328125 5.85937404632568,23.902587890625 4.71679592132568,28.2421875 28.2421875,4.71679639816284z M38.291015625,4.57031297683716L4.5703125,38.291015625 5.9765625,43.798828125 43.798828125,6.005859375 41.07421875,5.15625 38.291015625,4.57031297683716z M33.69140625,4.21874952316284L31.845703125,4.27734375 30,4.45312547683716 4.453125,30 4.2626953125,31.845703125 4.21875,33.69140625 4.39453125,36.97265625 36.97265625,4.39453125 33.69140625,4.21874952316284z M33.69140625,0L38.26171875,0.300295770168304 42.65625,1.20117139816284 46.8200645446777,2.65137004852295 50.6982421875,4.59960889816284 54.2687950134277,7.0166015625 57.509765625,9.873046875 60.3662109375,13.114013671875 62.783203125,16.6845703125 64.7314453125,20.562744140625 66.181640625,24.7265625 67.08251953125,29.1210956573486 67.3828125,33.69140625 67.08251953125,38.26171875 66.181640625,42.65625 64.7314453125,46.820068359375 62.783203125,50.6982421875 60.3662109375,54.268798828125 57.509765625,57.509765625 54.2687950134277,60.3662109375 50.6982421875,62.783203125 46.8200645446777,64.7314453125 42.65625,66.181640625 38.26171875,67.08251953125 33.69140625,67.3828125 29.12109375,67.08251953125 24.7265625,66.181640625 20.5627422332764,64.7314453125 16.6845703125,62.783203125 13.114013671875,60.3662109375 9.873046875,57.509765625 7.01660060882568,54.268798828125 4.599609375,50.6982421875 2.6513671875,46.820068359375 1.201171875,42.65625 0.300292611122131,38.26171875 0,33.69140625 0.300292611122131,29.1210956573486 1.201171875,24.7265625 2.6513671875,20.562744140625 4.599609375,16.6845703125 7.01660060882568,13.114013671875 9.873046875,9.873046875 13.114013671875,7.0166015625 16.6845703125,4.59960889816284 20.5627422332764,2.65137004852295 24.7265625,1.20117139816284 29.12109375,0.300295770168304 33.69140625,0z" />
    </g>
  </g>
</svg>