<?xml version="1.0" encoding="utf-8"?>
<!DOCTYPE svg PUBLIC "-//W3C//DTD SVG 1.1//EN" "http://www.w3.org/Graphics/SVG/1.1/DTD/svg11.dtd">
<svg width="58.9453125" height="61.0546875" xmlns="http://www.w3.org/2000/svg" xmlns:xlink="http://www.w3.org/1999/xlink" xmlns:xml="http://www.w3.org/XML/1998/namespace" version="1.1">
  <g>
    <g>
      <path style="fill:#FF0000;fill-opacity:1" d="M31.58203125,50.537109375L31.58203125,52.646484375 31.9189453125,54.287109375 32.8271484375,55.6201171875 34.16015625,56.513671875 35.80078125,56.8359375 46.318359375,56.8359375 47.958984375,56.513671875 49.2919921875,55.6201171875 50.2001953125,54.287109375 50.537109375,52.646484375 50.537109375,50.537109375 31.58203125,50.537109375z M31.58203125,42.099609375L31.58203125,48.427734375 50.537109375,48.427734375 52.177734375,48.0908203125 53.5107421875,47.1826171875 54.4189453125,45.849609375 54.755859375,44.208984375 54.755859375,42.099609375 31.58203125,42.099609375z M31.58203125,33.69140625L31.58203125,39.990234375 54.755859375,39.990234375 54.755859375,37.880859375 54.4189453125,36.240234375 53.5107421875,34.9072265625 52.177734375,34.013671875 50.537109375,33.69140625 31.58203125,33.69140625z M34.453125,25.25390625L33.69140625,25.48828125 33.017578125,25.95703125 31.9189453125,27.5537109375 31.58203125,29.47265625 31.58203125,31.58203125 50.537109375,31.58203125 50.537109375,29.47265625 50.2001953125,27.83203125 49.2919921875,26.4990234375 47.958984375,25.5908203125 46.318359375,25.25390625 34.453125,25.25390625z M33.69140625,4.189453125L32.05078125,4.52636671066284 30.7177734375,5.4345703125 29.8095703125,6.767578125 29.47265625,8.408203125 29.47265625,15.439453125 15.791015625,33.69140625 4.21875,33.69140625 4.21875,56.8359375 31.11328125,56.8359375 29.912109375,54.90234375 29.47265625,52.646484375 29.47265625,29.47265625 29.970703125,26.9677734375 31.34765625,24.9609375 33.3984375,23.6279296875 35.888671875,23.14453125 36.5625,22.177734375 37.2216796875,21.181640625 37.7197265625,20.126953125 37.91015625,18.955078125 37.91015625,8.408203125 37.5732421875,6.767578125 36.6650390625,5.4345703125 35.33203125,4.52636671066284 33.69140625,4.189453125z M33.69140625,0L36.9580078125,0.6591796875 39.638671875,2.4609375 41.4404296875,5.1416015625 42.099609375,8.408203125 42.099609375,18.955078125 41.8359375,21.03515625 46.318359375,21.03515625 49.6142578125,21.6943359375 52.294921875,23.49609375 54.0966796875,26.1767578125 54.755859375,29.47265625 54.755859375,30.615234375 56.5283203125,31.9482421875 57.8466796875,33.6767578125 58.6669921875,35.68359375 58.9453125,37.880859375 58.9453125,44.208984375 58.6669921875,46.40625 57.83203125,48.427734375 56.50634765625,50.16357421875 54.755859375,51.50390625 54.755859375,52.646484375 54.0966796875,55.927734375 52.294921875,58.59375 49.6142578125,60.3955078125 46.318359375,61.0546875 0,61.0546875 0,29.47265625 13.681640625,29.47265625 25.25390625,14.033203125 25.25390625,8.408203125 25.9130859375,5.12695264816284 27.71484375,2.4609375 30.3955078125,0.6591796875 33.69140625,0z" />
    </g>
  </g>
</svg>