<?xml version="1.0" encoding="utf-8"?>
<!DOCTYPE svg PUBLIC "-//W3C//DTD SVG 1.1//EN" "http://www.w3.org/Graphics/SVG/1.1/DTD/svg11.dtd">
<svg width="19.6875" height="42.01171875" xmlns="http://www.w3.org/2000/svg" xmlns:xlink="http://www.w3.org/1999/xlink" xmlns:xml="http://www.w3.org/XML/1998/namespace" version="1.1">
  <g>
    <g>
      <path style="fill:#FF0000;fill-opacity:1" d="M9.84375,15.615234375L7.7490234375,16.0400390625 6.03515625,17.197265625 4.8779296875,18.9111328125 4.453125,21.005859375 4.8779296875,23.1005859375 6.03515625,24.814453125 7.7490234375,25.9716796875 9.84375,26.396484375 11.9384765625,25.9716796875 13.65234375,24.814453125 14.8095703125,23.1005859375 15.234375,21.005859375 14.8095703125,18.9111328125 13.65234375,17.197265625 11.9384765625,16.0400390625 9.84375,15.615234375z M7.3828125,0L12.3046875,0 12.3046875,11.484375 15.2490234375,12.7880859375 17.5927734375,14.9267578125 19.130859375,17.724609375 19.6875,21.005859375 19.130859375,24.287109375 17.5927734375,27.099609375 15.2490234375,29.2529296875 12.3046875,30.556640625 12.3046875,42.01171875 7.3828125,42.01171875 7.3828125,30.556640625 4.43847751617432,29.2529296875 2.09472680091858,27.099609375 0.556640625,24.287109375 0,21.005859375 0.556640625,17.724609375 2.09472680091858,14.9267578125 4.43847751617432,12.7880859375 7.3828125,11.484375 7.3828125,0z" />
    </g>
  </g>
</svg>