<?xml version="1.0" encoding="UTF-8" standalone="no"?>
<!-- Created with Inkscape (http://www.inkscape.org/) -->

<svg
   xmlns:dc="http://purl.org/dc/elements/1.1/"
   xmlns:cc="http://creativecommons.org/ns#"
   xmlns:rdf="http://www.w3.org/1999/02/22-rdf-syntax-ns#"
   xmlns:svg="http://www.w3.org/2000/svg"
   xmlns="http://www.w3.org/2000/svg"
   xmlns:sodipodi="http://sodipodi.sourceforge.net/DTD/sodipodi-0.dtd"
   xmlns:inkscape="http://www.inkscape.org/namespaces/inkscape"
   width="20mm"
   height="30mm"
   viewBox="0 0 20 30"
   version="1.1"
   id="svg8"
   inkscape:version="0.92.4 (5da689c313, 2019-01-14)"
   sodipodi:docname="Arrow.svg">
  <defs
     id="defs2" />
  <sodipodi:namedview
     id="base"
     pagecolor="#ffffff"
     bordercolor="#666666"
     borderopacity="1.0"
     inkscape:pageopacity="0.0"
     inkscape:pageshadow="2"
     inkscape:zoom="2.8"
     inkscape:cx="11.108818"
     inkscape:cy="65.519672"
     inkscape:document-units="mm"
     inkscape:current-layer="layer1"
     showgrid="false"
     inkscape:window-width="1920"
     inkscape:window-height="1001"
     inkscape:window-x="-9"
     inkscape:window-y="-9"
     inkscape:window-maximized="1" />
  <metadata
     id="metadata5">
    <rdf:RDF>
      <cc:Work
         rdf:about="">
        <dc:format>image/svg+xml</dc:format>
        <dc:type
           rdf:resource="http://purl.org/dc/dcmitype/StillImage" />
        <dc:title></dc:title>
      </cc:Work>
    </rdf:RDF>
  </metadata>
  <g
     inkscape:label="Layer 1"
     inkscape:groupmode="layer"
     id="layer1"
     transform="translate(0,-267)">
    <g
       transform="translate(0,267)"
       id="g64">
      <path
         style="fill:#000000;fill-opacity:0"
         d="M 0,0.5 V 0 H 0.5 1 1.5 2 2.5 3 3.5 4 4.5 5 5.5 6 6.5 7 7.5 8 8.5 9 9.5 10 10.5 11 11.5 12 12.5 13 13.5 14 14.5 15 15.5 16 16.5 17 17.5 18 18.5 19 19.5 20 V 0.5 1 1.5 2 2.5 3 3.5 4 4.5 5 5.5 6 6.5 7 7.5 8 8.5 9 9.5 10 10.5 11 11.5 12 12.5 13 13.5 14 14.5 15 15.5 16 16.5 17 17.5 18 18.5 19 19.5 20 20.5 21 21.5 22 22.5 23 23.5 24 24.5 25 25.5 26 26.5 27 27.5 28 28.5 29 29.5 30 H 19.5 19 18.5 18 17.5 17 16.5 16 15.5 15 14.5 14 V 29.5 Q 14,29 14,28.5 14,28 13.875,27.625 13.75,27.25 13.5,27 13.25,26.75 13.125,26.375 13,26 12.875,25.625 12.75,25.25 12.5,25 12.25,24.75 12.125,24.375 12,24 11.875,23.625 11.75,23.25 11.5,23 11.25,22.75 11.125,22.375 11,22 11,21.5 q 0,-0.5 0,-1 0,-0.5 0,-1 0,-0.5 0,-1 0,-0.5 0,-1 0,-0.5 0,-1 0,-0.5 0,-1 0,-0.5 0,-1 0,-0.5 0,-1 0,-0.5 0,-1 0,-0.5 0,-1 0,-0.5 0,-1 0,-0.5 0,-1 0,-0.5 0,-1 V 8 8.375 8.75 8.5 Q 11,8.25 10.96875,8.03125 L 10.9375,7.8125 10.95313,7.921875 10.96876,8.03125 11.359385,8.140625 Q 11.75,8.25 12,8.5 12.25,8.75 12.625,8.875 13,9 13.375,8.875 13.75,8.75 13.875,8.375 14,8 14,7.5 14,7 13.875,6.625 13.75,6.25 13.5,6 13.25,5.75 13.125,5.375 13,5 12.875,4.625 12.75,4.25 12.5,4 12.25,3.75 12.125,3.375 12,3 11.875,2.625 11.75,2.25 11.5,2 11.25,1.75 11,1.5 10.75,1.25 10.375,1.125 10,1 9.625,1.125 9.25,1.25 9,1.5 8.75,1.75 8.5,2 8.25,2.25 8.125,2.625 8,3 7.875,3.375 7.75,3.75 7.5,4 7.25,4.25 7.125,4.625 7,5 6.875,5.375 6.75,5.75 6.5,6 6.25,6.25 6.125,6.625 6,7 6,7.5 6,8 6.125,8.375 6.25,8.75 6.625,8.875 7,9 7.375,8.875 7.75,8.75 8,8.5 8.25,8.25 8.640625,8.140625 L 9.03125,8.03125 9.046875,7.921875 9.0625,7.8125 9.03125,8.03125 Q 9,8.25 9,8.5 V 8.75 8.375 8 8.5 q 0,0.5 0,1 0,0.5 0,1 0,0.5 0,1 0,0.5 0,1 0,0.5 0,1 0,0.5 0,1 0,0.5 0,1 0,0.5 0,1 0,0.5 0,1 0,0.5 0,1 0,0.5 0,1 0,0.5 0,1 0,0.5 0,1 Q 9,22 8.875,22.375 8.75,22.75 8.5,23 8.25,23.25 8.125,23.625 8,24 7.875,24.375 7.75,24.75 7.5,25 7.25,25.25 7.125,25.625 7,26 6.875,26.375 6.75,26.75 6.5,27 6.25,27.25 6.125,27.625 6,28 6,28.5 6,29 6,29.5 V 30 H 5.5 5 4.5 4 3.5 3 2.5 2 1.5 1 0.5 0 V 29.5 29 28.5 28 27.5 27 26.5 26 25.5 25 24.5 24 23.5 23 22.5 22 21.5 21 20.5 20 19.5 19 18.5 18 17.5 17 16.5 16 15.5 15 14.5 14 13.5 13 12.5 12 11.5 11 10.5 10 9.5 9 8.5 8 7.5 7 6.5 6 5.5 5 4.5 4 3.5 3 2.5 2 1.5 1 0.5"
         id="path50"
         inkscape:connector-curvature="0" />
      <path
         style="fill:#808080;fill-opacity:1"
         d="M 9,1.5 Q 9.25,1.25 9.625,1.125 10,1 10.375,1.125 10.75,1.25 11,1.5 11.25,1.75 11.5,2 11.75,2.25 11.875,2.625 12,3 12.125,3.375 12.25,3.75 12.5,4 12.75,4.25 12.875,4.625 13,5 13.125,5.375 13.25,5.75 13.5,6 13.75,6.25 13.875,6.625 14,7 14,7.5 14,8 13.875,8.375 13.75,8.75 13.375,8.875 L 13,9 13.28125,8.90625 13.5625,8.8125 13.375,8.875 Q 13.1875,8.9375 13,8.9375 H 12.8125 12.90625 13 L 12.875,8.59375 Q 12.75,8.25 12.5,8 12.25,7.75 12,7.5 11.75,7.25 11.5,7 11.25,6.75 11,6.5 10.75,6.25 10.375,6.125 10,6 9.625,6.125 9.25,6.25 9,6.5 8.75,6.75 8.5,7 8.25,7.25 8,7.5 7.75,7.75 7.5,8 7.25,8.25 7.125,8.59375 L 7,8.9375 H 7.09375 7.1875 7 q -0.1875,0 -0.375,-0.0625 L 6.4375,8.8125 6.71875,8.90625 7,9 6.625,8.875 Q 6.25,8.75 6.125,8.375 6,8 6,7.5 6,7 6.125,6.625 6.25,6.25 6.5,6 6.75,5.75 6.875,5.375 7,5 7.125,4.625 7.25,4.25 7.5,4 7.75,3.75 7.875,3.375 8,3 8.125,2.625 8.25,2.25 8.5,2 8.75,1.75 9,1.5"
         id="path52"
         inkscape:connector-curvature="0" />
      <path
         style="fill:#b2b2b2;fill-opacity:1"
         d="M 9,6.5 Q 9.25,6.25 9.625,6.125 10,6 10.375,6.125 10.75,6.25 11,6.5 11.25,6.75 11.5,7 11.75,7.25 12,7.5 12.25,7.75 12.5,8 12.75,8.25 12.875,8.59375 L 13,8.9375 H 13.09375 13.1875 13 q -0.1875,0 -0.375,-0.0625 L 12.4375,8.8125 12.71875,8.90625 13,9 12.625,8.875 Q 12.25,8.75 12,8.5 11.75,8.25 11.359375,8.140625 L 10.96875,8.03125 10.984375,8.140625 11,8.25 10.96875,8.03125 Q 10.9375,7.8125 10.875,7.625 L 10.8125,7.4375 10.90625,7.71875 11,8 10.875,7.625 Q 10.75,7.25 10.375,7.125 10,7 9.625,7.125 9.25,7.25 9.125,7.625 L 9,8 9.09375,7.71875 9.1875,7.4375 9.125,7.625 Q 9.0625,7.8125 9.03125,8.03125 L 9,8.25 9.015625,8.140625 9.03125,8.03125 8.640625,8.140625 Q 8.25,8.25 8,8.5 7.75,8.75 7.375,8.875 L 7,9 7.28125,8.90625 7.5625,8.8125 7.375,8.875 Q 7.1875,8.9375 7,8.9375 H 6.8125 6.90625 7 L 7.125,8.59375 Q 7.25,8.25 7.5,8 7.75,7.75 8,7.5 8.25,7.25 8.5,7 8.75,6.75 9,6.5"
         id="path54"
         inkscape:connector-curvature="0" />
      <path
         style="fill:#ff0000;fill-opacity:1"
         d="M 9.125,7.625 Q 9.25,7.25 9.625,7.125 10,7 10.375,7.125 10.75,7.25 10.875,7.625 11,8 11,8.5 q 0,0.5 0,1 0,0.5 0,1 0,0.5 0,1 0,0.5 0,1 0,0.5 0,1 0,0.5 0,1 0,0.5 0,1 0,0.5 0,1 0,0.5 0,1 0,0.5 0,1 0,0.5 0,1 0,0.5 0,1 0,0.5 0,1 V 22 21.625 21.25 21.5 q 0,0.25 0.03125,0.46875 L 11.0625,22.1875 11.04687,22.078125 11.03124,21.96875 10.515615,21.98438 Q 10,22 9.484375,21.984375 L 8.96875,21.96875 8.953125,22.078125 8.9375,22.1875 8.96875,21.96875 Q 9,21.75 9,21.5 V 21.25 21.625 22 21.5 Q 9,21 9,20.5 9,20 9,19.5 9,19 9,18.5 9,18 9,17.5 9,17 9,16.5 9,16 9,15.5 9,15 9,14.5 9,14 9,13.5 9,13 9,12.5 9,12 9,11.5 9,11 9,10.5 9,10 9,9.5 9,9 9,8.5 9,8 9.125,7.625"
         id="path56"
         inkscape:connector-curvature="0" />
      <path
         style="fill:#7f0000;fill-opacity:1"
         d="M 8.875,22.375 9,22 8.90625,22.28125 8.8125,22.5625 8.875,22.375 Q 8.9375,22.1875 8.96875,21.96875 L 9,21.75 8.984375,21.859375 8.96875,21.96875 9.484375,21.984375 Q 10,22 10.515625,21.984375 L 11.03125,21.96875 11.015625,21.859375 11,21.75 11.03125,21.96875 Q 11.0625,22.1875 11.125,22.375 L 11.1875,22.5625 11.09375,22.28125 11,22 11.125,22.375 Q 11.25,22.75 11.5,23 11.75,23.25 11.875,23.625 12,24 12.125,24.375 12.25,24.75 12.5,25 12.75,25.25 12.875,25.625 13,26 13.125,26.375 13.25,26.75 13.5,27 13.75,27.25 13.875,27.625 14,28 14,28.5 q 0,0.5 0,1 V 30 H 13.5 13 V 29.5 Q 13,29 13,28.5 13,28 12.5,28 12,28 12,27.5 12,27 12,26.5 12,26 11.5,26 11,26 10.5,26 10,26 9.5,26 9,26 8.5,26 8,26 8,26.5 8,27 8,27.5 8,28 7.5,28 7,28 7,28.5 7,29 7,29.5 V 30 H 6.5 6 V 29.5 Q 6,29 6,28.5 6,28 6.125,27.625 6.25,27.25 6.5,27 6.75,26.75 6.875,26.375 7,26 7.125,25.625 7.25,25.25 7.5,25 7.75,24.75 7.875,24.375 8,24 8.125,23.625 8.25,23.25 8.5,23 8.75,22.75 8.875,22.375"
         id="path58"
         inkscape:connector-curvature="0" />
      <path
         style="fill:#800000;fill-opacity:0.58823529"
         d="M 8,26.5 Q 8,26 8.5,26 q 0.5,0 1,0 0.5,0 1,0 0.5,0 1,0 0.5,0 0.5,0.5 0,0.5 0,1 0,0.5 0.5,0.5 0.5,0 0.5,0.5 0,0.5 0,1 V 30 H 12.5 12 L 11.875,29.625 Q 11.75,29.25 11.5,29 11.25,28.75 11.125,28.375 11,28 10.875,27.625 10.75,27.25 10.375,27.125 10,27 9.625,27.125 9.25,27.25 9.125,27.625 9,28 8.875,28.375 8.75,28.75 8.5,29 8.25,29.25 8.125,29.625 L 8,30 H 7.5 7 V 29.5 Q 7,29 7,28.5 7,28 7.5,28 8,28 8,27.5 8,27 8,26.5"
         id="path60"
         inkscape:connector-curvature="0" />
      <path
         style="fill:#000000;fill-opacity:0"
         d="m 9.125,27.625 q 0.125,-0.375 0.5,-0.5 0.375,-0.125 0.75,0 0.375,0.125 0.5,0.5 Q 11,28 11.125,28.375 11.25,28.75 11.5,29 q 0.25,0.25 0.375,0.625 L 12,30 H 11.5 11 10.5 10 9.5 9 8.5 8 L 8.125,29.625 Q 8.25,29.25 8.5,29 8.75,28.75 8.875,28.375 9,28 9.125,27.625"
         id="path62"
         inkscape:connector-curvature="0" />
    </g>
  </g>
</svg>
