<?xml version="1.0" encoding="utf-8"?>
<!DOCTYPE svg PUBLIC "-//W3C//DTD SVG 1.1//EN" "http://www.w3.org/Graphics/SVG/1.1/DTD/svg11.dtd">
<svg width="54.697265625" height="33.22265625" xmlns="http://www.w3.org/2000/svg" xmlns:xlink="http://www.w3.org/1999/xlink" xmlns:xml="http://www.w3.org/XML/1998/namespace" version="1.1">
  <g>
    <g>
      <path style="fill:#FF0000;fill-opacity:1" d="M36.650390625,0L40.880126953125,3.79028415679932 44.5458984375,7.28027486801147 47.647705078125,10.4699716567993 50.185546875,13.359375 52.1594200134277,15.97412109375 53.5693321228027,18.33984375 54.4152793884277,20.45654296875 54.697265625,22.32421875 54.1259765625,24.6240234375 52.6025390625,27.0556640625 50.419921875,29.384765625 47.8857421875,31.34765625 45.29296875,32.7099609375 42.94921875,33.22265625 41.49169921875,33.021240234375 39.990234375,32.4169921875 36.9140625,30.2783203125 33.7939453125,27.2607421875 30.732421875,23.8037109375 27.83203125,20.3466796875 25.1513671875,17.3291015625 22.8076171875,15.1904296875 21.793212890625,14.586181640625 20.888671875,14.384765625 19.9951171875,14.61181640625 18.837890625,15.29296875 15.966796875,17.6953125 12.6416015625,21.1376953125 9.228515625,25.1806640625 6.064453125,29.35546875 3.486328125,33.193359375 0,30 2.5927734375,26.162109375 6.04980516433716,21.7236328125 10.0048828125,17.255859375 14.0625,13.330078125 17.8564453125,10.546875 19.544677734375,9.755859375 21.005859375,9.4921875 22.4267559051514,9.693603515625 23.876953125,10.2978515625 26.8505859375,12.4365234375 29.853515625,15.4541015625 32.8271484375,18.9111328125 35.7275390625,22.3681640625 38.466796875,25.3857421875 40.986328125,27.5244140625 42.1435546875,28.128662109375 43.212890625,28.330078125 45.4541015625,27.6416015625 47.578125,25.986328125 49.1748046875,24.0087890625 49.8046875,22.32421875 49.5227012634277,20.972900390625 48.6767578125,19.2626953125 47.2998008728027,17.23388671875 45.4248046875,14.9267578125 43.07373046875,12.366943359375 40.2685546875,9.580078125 37.042236328125,6.59912252426147 33.427734375,3.45703125 36.650390625,0z" />
    </g>
  </g>
</svg>