<?xml version="1.0" encoding="utf-8"?>
<!DOCTYPE svg PUBLIC "-//W3C//DTD SVG 1.1//EN" "http://www.w3.org/Graphics/SVG/1.1/DTD/svg11.dtd">
<svg width="24.8144531250002" height="25.8984375" xmlns="http://www.w3.org/2000/svg" xmlns:xlink="http://www.w3.org/1999/xlink" xmlns:xml="http://www.w3.org/XML/1998/namespace" version="1.1">
  <g>
    <g>
      <path style="fill:#FF0000;fill-opacity:1" d="M10.48828125,6.064453125L9.052734375,6.591796875 7.55859375,7.880859375 6.38671875,9.5361328125 5.91796875,11.1328125 6.416015625,12.4658203125 7.705078125,14.2822265625 9.4482421875,16.2744140625 11.337890625,18.10546875 13.06640625,19.4384765625 14.296875,19.951171875 15.673828125,19.4384765625 17.1826171875,18.1640625 18.3984375,16.5234375 18.896484375,14.8828125 18.3984375,13.564453125 17.109375,11.7333984375 15.3515625,9.7412109375 13.447265625,7.91015625 11.71875,6.5771484375 10.48828125,6.064453125z M10.341796875,0L11.2353506088257,0.223390102386475 12.451171875,0.8935546875 15.4248046875,3.2080078125 18.69140625,6.3720703125 21.7236328125,9.814453125 23.9501953125,12.9638671875 24.5983867645264,14.256591796875 24.814453125,15.234375 24.2431640625,17.2412109375 22.7490234375,19.5556640625 20.6689453125,21.884765625 18.3544921875,23.9208984375 16.1572265625,25.3564453125 14.443359375,25.8984375 13.5314931869507,25.675048828125 12.3193359375,25.0048828125 9.3603515625,22.6904296875 6.09375,19.5263671875 3.076171875,16.0986328125 0.86425769329071,12.94921875 0.216064304113388,11.6455078125 0,10.6640625 0.55664074420929,8.73046875 2.021484375,6.4306640625 4.072265625,4.1015625 6.357421875,2.0361328125 8.5546875,0.556640625 10.341796875,0z" />
    </g>
  </g>
</svg>