<?xml version="1.0" encoding="utf-8"?>
<!DOCTYPE svg PUBLIC "-//W3C//DTD SVG 1.1//EN" "http://www.w3.org/Graphics/SVG/1.1/DTD/svg11.dtd">
<svg width="42.8906250000003" height="54.43359375" xmlns="http://www.w3.org/2000/svg" xmlns:xlink="http://www.w3.org/1999/xlink" xmlns:xml="http://www.w3.org/XML/1998/namespace" version="1.1">
  <g>
    <g>
      <path style="fill:#FF0000;fill-opacity:1" d="M3.28124952316284,30.146484375L4.55566358566284,30.41015625 5.59570264816284,31.11328125 6.298828125,32.1533203125 6.5625,33.427734375 6.298828125,34.7021484375 5.59570264816284,35.7421875 4.55566358566284,36.4453125 3.28124952316284,36.708984375 2.00683522224426,36.4453125 0.966797053813934,35.7421875 0.26367199420929,34.7021484375 0,33.427734375 0.26367199420929,32.1533203125 0.966797053813934,31.11328125 2.00683522224426,30.41015625 3.28124952316284,30.146484375z M21.884765625,22.412109375L8.466796875,49.62890625 35.302734375,49.62890625 21.884765625,22.412109375z M21.591796875,12.421875L22.177734375,12.421875 42.890625,54.43359375 0.878906190395355,54.43359375 21.591796875,12.421875z M21.884765625,0L23.1591796875,0.263672113418579 24.19921875,0.966797113418579 24.90234375,2.00683617591858 25.166015625,3.28125023841858 24.90234375,4.55566453933716 24.19921875,5.59570360183716 23.1591796875,6.29882764816284 21.884765625,6.5625 20.6103515625,6.29882764816284 19.5703125,5.59570360183716 18.8671875,4.55566453933716 18.603515625,3.28125023841858 18.8671875,2.00683617591858 19.5703125,0.966797113418579 20.6103515625,0.263672113418579 21.884765625,0z" />
    </g>
  </g>
</svg>