<?xml version="1.0" encoding="utf-8"?>
<!DOCTYPE svg PUBLIC "-//W3C//DTD SVG 1.1//EN" "http://www.w3.org/Graphics/SVG/1.1/DTD/svg11.dtd">
<svg width="51.5039062500009" height="54.43359375" xmlns="http://www.w3.org/2000/svg" xmlns:xlink="http://www.w3.org/1999/xlink" xmlns:xml="http://www.w3.org/XML/1998/namespace" version="1.1">
  <g>
    <g>
      <path style="fill:#FF0000;fill-opacity:1" d="M3.28124952316284,30.146484375L4.55566358566284,30.41015625 5.59570264816284,31.11328125 6.29882764816284,32.1533203125 6.56249952316284,33.427734375 6.29882764816284,34.7021484375 5.59570264816284,35.7421875 4.55566358566284,36.4453125 3.28124952316284,36.708984375 2.00683546066284,36.4453125 0.966796159744263,35.7421875 0.263671189546585,34.7021484375 0,33.427734375 0.263671189546585,32.1533203125 0.966796159744263,31.11328125 2.00683546066284,30.41015625 3.28124952316284,30.146484375z M14.296875,20.009765625L14.296875,46.845703125 41.513671875,33.427734375 14.296875,20.009765625z M9.4921875,12.421875L51.50390625,33.134765625 51.50390625,33.720703125 9.4921875,54.43359375 9.4921875,12.421875z M11.89453125,0L13.1689453125,0.263672113418579 14.208984375,0.966797113418579 14.912109375,2.00683617591858 15.17578125,3.28125023841858 14.912109375,4.55566453933716 14.208984375,5.59570360183716 13.1689453125,6.29882764816284 11.89453125,6.5625 10.6201171875,6.29882764816284 9.580078125,5.59570360183716 8.876953125,4.55566453933716 8.61328125,3.28125023841858 8.876953125,2.00683617591858 9.580078125,0.966797113418579 10.6201171875,0.263672113418579 11.89453125,0z" />
    </g>
  </g>
</svg>