<?xml version="1.0" encoding="utf-8"?>
<!DOCTYPE svg PUBLIC "-//W3C//DTD SVG 1.1//EN" "http://www.w3.org/Graphics/SVG/1.1/DTD/svg11.dtd">
<svg width="35.419921875" height="54.43359375" xmlns="http://www.w3.org/2000/svg" xmlns:xlink="http://www.w3.org/1999/xlink" xmlns:xml="http://www.w3.org/XML/1998/namespace" version="1.1">
  <g>
    <g>
      <path style="fill:#FF0000;fill-opacity:1" d="M32.138671875,30.146484375L33.4130859375,30.41015625 34.453125,31.11328125 35.15625,32.1533203125 35.419921875,33.427734375 35.15625,34.7021484375 34.453125,35.7421875 33.4130859375,36.4453125 32.138671875,36.708984375 30.8642578125,36.4453125 29.82421875,35.7421875 29.12109375,34.7021484375 28.857421875,33.427734375 29.12109375,32.1533203125 29.82421875,31.11328125 30.8642578125,30.41015625 32.138671875,30.146484375z M0,12.421875L25.927734375,12.421875 25.927734375,17.2265625 4.92187452316284,17.2265625 4.92187452316284,54.43359375 0,54.43359375 0,12.421875z M12.94921875,0L14.2236328125,0.263672113418579 15.263671875,0.966797113418579 15.966796875,2.00683617591858 16.23046875,3.28125023841858 15.966796875,4.55566453933716 15.263671875,5.59570360183716 14.2236328125,6.29882764816284 12.94921875,6.5625 11.6748046875,6.29882764816284 10.634765625,5.59570360183716 9.931640625,4.55566453933716 9.66796875,3.28125023841858 9.931640625,2.00683617591858 10.634765625,0.966797113418579 11.6748046875,0.263672113418579 12.94921875,0z" />
    </g>
  </g>
</svg>