<?xml version="1.0" encoding="utf-8"?>
<!DOCTYPE svg PUBLIC "-//W3C//DTD SVG 1.1//EN" "http://www.w3.org/Graphics/SVG/1.1/DTD/svg11.dtd">
<svg width="51.5039062500001" height="54.43359375" xmlns="http://www.w3.org/2000/svg" xmlns:xlink="http://www.w3.org/1999/xlink" xmlns:xml="http://www.w3.org/XML/1998/namespace" version="1.1">
  <g>
    <g>
      <path style="fill:#FF0000;fill-opacity:1" d="M48.22265625,30.146484375L49.4970703125,30.41015625 50.537109375,31.11328125 51.240234375,32.1533203125 51.50390625,33.427734375 51.240234375,34.7021484375 50.537109375,35.7421875 49.4970703125,36.4453125 48.22265625,36.708984375 46.9482421875,36.4453125 45.908203125,35.7421875 45.205078125,34.7021484375 44.94140625,33.427734375 45.205078125,32.1533203125 45.908203125,31.11328125 46.9482421875,30.41015625 48.22265625,30.146484375z M20.830078125,12.421875L42.01171875,12.421875 42.01171875,17.34375 20.830078125,17.34375 17.662353515625,17.578125 14.6630859375,18.28125 11.9274892807007,19.478759765625 9.55078125,21.1962890625 7.584228515625,23.4375019073486 6.0791015625,26.2060546875 5.12329053878784,29.5275897979736 4.8046875,33.427734375 5.12329053878784,37.37548828125 6.0791015625,40.72265625 7.584228515625,43.494873046875 9.55078125,45.7177734375 11.9274892807007,47.40966796875 14.6630859375,48.5888671875 17.662353515625,49.281005859375 20.830078125,49.51171875 42.01171875,49.51171875 42.01171875,54.43359375 20.830078125,54.43359375 16.695556640625,54.11865234375 12.7880859375,53.173828125 9.232177734375,51.58447265625 6.15234375,49.3359375 3.60717701911926,46.41357421875 1.65527319908142,42.802734375 0.413818150758743,38.4814453125 0,33.427734375 0.413818150758743,28.3483905792236 1.65527319908142,24.0087890625 3.60717701911926,20.386962890625 6.15234375,17.4609375 9.232177734375,15.2197265625 12.7880859375,13.65234375 16.695556640625,12.7294921875 20.830078125,12.421875z M31.5234375,0L32.7978515625,0.263672113418579 33.837890625,0.966797113418579 34.541015625,2.00683617591858 34.8046875,3.28125023841858 34.541015625,4.55566453933716 33.837890625,5.59570360183716 32.7978515625,6.29882764816284 31.5234375,6.5625 30.2490234375,6.29882764816284 29.208984375,5.59570360183716 28.505859375,4.55566453933716 28.2421875,3.28125023841858 28.505859375,2.00683617591858 29.208984375,0.966797113418579 30.2490234375,0.263672113418579 31.5234375,0z" />
    </g>
  </g>
</svg>