<?xml version="1.0" encoding="utf-8"?>
<!DOCTYPE svg PUBLIC "-//W3C//DTD SVG 1.1//EN" "http://www.w3.org/Graphics/SVG/1.1/DTD/svg11.dtd">
<svg width="42.01171875" height="54.43359375" xmlns="http://www.w3.org/2000/svg" xmlns:xlink="http://www.w3.org/1999/xlink" xmlns:xml="http://www.w3.org/XML/1998/namespace" version="1.1">
  <g>
    <g>
      <path style="fill:#FF0000;fill-opacity:1" d="M0,12.421875L21.181640625,12.421875 25.3161602020264,12.7294921875 29.2236328125,13.65234375 32.779541015625,15.2197265625 35.859375,17.4609375 38.404541015625,20.386962890625 40.3564453125,24.0087890625 41.597900390625,28.3483905792236 42.01171875,33.427734375 41.597900390625,38.4814453125 40.3564453125,42.802734375 38.404541015625,46.41357421875 35.859375,49.3359375 32.779541015625,51.58447265625 29.2236328125,53.173828125 25.3161602020264,54.11865234375 21.181640625,54.43359375 0,54.43359375 0,49.51171875 21.181640625,49.51171875 24.3493633270264,49.281005859375 27.3486328125,48.5888671875 30.084228515625,47.40966796875 32.4609375,45.7177734375 34.427490234375,43.494873046875 35.9326171875,40.72265625 36.888427734375,37.37548828125 37.20703125,33.427734375 36.888427734375,29.5275897979736 35.9326171875,26.2060546875 34.427490234375,23.4375019073486 32.4609375,21.1962890625 30.084228515625,19.478759765625 27.3486328125,18.28125 24.3493633270264,17.578125 21.181640625,17.34375 0,17.34375 0,12.421875z M21.005859375,0L22.2802734375,0.263672113418579 23.3203125,0.966797113418579 24.0234375,2.00683617591858 24.287109375,3.28125023841858 24.0234375,4.55566453933716 23.3203125,5.59570360183716 22.2802734375,6.29882764816284 21.005859375,6.5625 19.7314453125,6.29882764816284 18.69140625,5.59570360183716 17.98828125,4.55566453933716 17.724609375,3.28125023841858 17.98828125,2.00683617591858 18.69140625,0.966797113418579 19.7314453125,0.263672113418579 21.005859375,0z M10.48828125,0L11.7626953125,0.263672113418579 12.802734375,0.966797113418579 13.505859375,2.00683617591858 13.76953125,3.28125023841858 13.505859375,4.55566453933716 12.802734375,5.59570360183716 11.7626953125,6.29882764816284 10.48828125,6.5625 9.2138671875,6.29882764816284 8.173828125,5.59570360183716 7.470703125,4.55566453933716 7.20703125,3.28125023841858 7.470703125,2.00683617591858 8.173828125,0.966797113418579 9.2138671875,0.263672113418579 10.48828125,0z" />
    </g>
  </g>
</svg>