<?xml version="1.0" encoding="utf-8"?>
<!DOCTYPE svg PUBLIC "-//W3C//DTD SVG 1.1//EN" "http://www.w3.org/Graphics/SVG/1.1/DTD/svg11.dtd">
<svg width="48.57421875" height="42.01171875" xmlns="http://www.w3.org/2000/svg" xmlns:xlink="http://www.w3.org/1999/xlink" xmlns:xml="http://www.w3.org/XML/1998/namespace" version="1.1">
  <g>
    <g>
      <path style="fill:#FF0000;fill-opacity:1" d="M44.94140625,0L48.57421875,0 48.57421875,21.005859375 44.94140625,21.005859375 44.94140625,0z M20.830078125,0L42.01171875,0 42.01171875,4.921875 20.830078125,4.921875 17.662353515625,5.15625 14.6630859375,5.859375 11.9274892807007,7.056884765625 9.55078125,8.7744140625 7.584228515625,11.0156269073486 6.0791015625,13.7841796875 5.123291015625,17.1057147979736 4.8046875,21.005859375 5.123291015625,24.95361328125 6.0791015625,28.30078125 7.584228515625,31.072998046875 9.55078125,33.2958984375 11.9274892807007,34.98779296875 14.6630859375,36.1669921875 17.662353515625,36.859130859375 20.830078125,37.08984375 42.01171875,37.08984375 42.01171875,42.01171875 20.830078125,42.01171875 16.695556640625,41.69677734375 12.7880859375,40.751953125 9.232177734375,39.16259765625 6.15234375,36.9140625 3.60717725753784,33.99169921875 1.6552734375,30.380859375 0.413818359375,26.0595703125 0,21.005859375 0.413818359375,15.9265155792236 1.6552734375,11.5869140625 3.60717725753784,7.965087890625 6.15234375,5.0390625 9.232177734375,2.7978515625 12.7880859375,1.23046875 16.695556640625,0.3076171875 20.830078125,0z" />
    </g>
  </g>
</svg>