<?xml version="1.0" encoding="utf-8"?>
<!DOCTYPE svg PUBLIC "-//W3C//DTD SVG 1.1//EN" "http://www.w3.org/Graphics/SVG/1.1/DTD/svg11.dtd">
<svg width="35.419921875" height="54.43359375" xmlns="http://www.w3.org/2000/svg" xmlns:xlink="http://www.w3.org/1999/xlink" xmlns:xml="http://www.w3.org/XML/1998/namespace" version="1.1">
  <g>
    <g>
      <path style="fill:#FF0000;fill-opacity:1" d="M12.919921875,33.427734375L9.78515625,34.04296875 7.236328125,35.7421875 5.537109375,38.291015625 4.92187452316284,41.455078125 5.537109375,44.6630859375 7.236328125,47.2119140625 9.78515625,48.896484375 12.919921875,49.51171875 16.0546875,48.896484375 18.6181640625,47.2119140625 20.361328125,44.6630859375 21.005859375,41.455078125 21.005859375,33.427734375 12.919921875,33.427734375z M32.138671875,30.146484375L33.4130859375,30.41015625 34.453125,31.11328125 35.15625,32.1533203125 35.419921875,33.427734375 35.15625,34.7021484375 34.453125,35.7421875 33.4130859375,36.4453125 32.138671875,36.708984375 30.8642578125,36.4453125 29.82421875,35.7421875 29.12109375,34.7021484375 28.857421875,33.427734375 29.12109375,32.1533203125 29.82421875,31.11328125 30.8642578125,30.41015625 32.138671875,30.146484375z M21.005859375,12.421875L25.927734375,12.421875 25.927734375,41.455078125 25.6713848114014,44.066162109375 24.90234375,46.5087890625 22.119140625,50.625 18.0029296875,53.408203125 15.567626953125,54.17724609375 12.978515625,54.43359375 10.3674306869507,54.17724609375 7.9248046875,53.408203125 3.80859375,50.625 1.02539014816284,46.5087890625 0.256347596645355,44.066162109375 0,41.455078125 0.256347596645355,38.865966796875 1.02539014816284,36.4306640625 3.80859375,32.314453125 7.9248046875,29.53125 10.3674306869507,28.7622089385986 12.978515625,28.505859375 21.005859375,28.505859375 21.005859375,12.421875z M23.466796875,0L24.7412109375,0.263672113418579 25.78125,0.966797113418579 26.484375,2.00683617591858 26.748046875,3.28125023841858 26.484375,4.55566453933716 25.78125,5.59570360183716 24.7412109375,6.29882764816284 23.466796875,6.5625 22.1923828125,6.29882764816284 21.15234375,5.59570360183716 20.44921875,4.55566453933716 20.185546875,3.28125023841858 20.44921875,2.00683617591858 21.15234375,0.966797113418579 22.1923828125,0.263672113418579 23.466796875,0z" />
    </g>
  </g>
</svg>