<?xml version="1.0" encoding="utf-8"?>
<!DOCTYPE svg PUBLIC "-//W3C//DTD SVG 1.1//EN" "http://www.w3.org/Graphics/SVG/1.1/DTD/svg11.dtd">
<svg width="36.2402343750005" height="54.43359375" xmlns="http://www.w3.org/2000/svg" xmlns:xlink="http://www.w3.org/1999/xlink" xmlns:xml="http://www.w3.org/XML/1998/namespace" version="1.1">
  <g>
    <g>
      <path style="fill:#FF0000;fill-opacity:1" d="M5.7421875,33.427734375L5.7421875,41.455078125 6.38671875,44.6630859375 8.1298828125,47.2119140625 10.693359375,48.896484375 13.828125,49.51171875 16.962890625,48.896484375 19.51171875,47.2119140625 21.2109375,44.6630859375 21.826171875,41.455078125 21.2109375,38.291015625 19.51171875,35.7421875 16.962890625,34.04296875 13.828125,33.427734375 5.7421875,33.427734375z M32.958984375,30.146484375L34.2333984375,30.41015625 35.2734375,31.11328125 35.9765625,32.1533203125 36.240234375,33.427734375 35.9765625,34.7021484375 35.2734375,35.7421875 34.2333984375,36.4453125 32.958984375,36.708984375 31.6845703125,36.4453125 30.64453125,35.7421875 29.94140625,34.7021484375 29.677734375,33.427734375 29.94140625,32.1533203125 30.64453125,31.11328125 31.6845703125,30.41015625 32.958984375,30.146484375z M0.820312261581421,12.421875L5.7421875,12.421875 5.7421875,28.505859375 13.76953125,28.505859375 16.3623046875,28.7622089385986 18.80859375,29.53125 22.939453125,32.314453125 25.72265625,36.4306640625 26.4916973114014,38.865966796875 26.748046875,41.455078125 26.4916973114014,44.066162109375 25.72265625,46.5087890625 22.939453125,50.625 18.80859375,53.408203125 16.3623046875,54.17724609375 13.76953125,54.43359375 11.1584463119507,54.17724609375 8.7158203125,53.408203125 4.599609375,50.625 1.83105421066284,46.5087890625 1.07299780845642,44.066162109375 0.820312261581421,41.455078125 0.820312261581421,12.421875z M3.28124928474426,0L4.55566310882568,0.263672113418579 5.595703125,0.966797113418579 6.298828125,2.00683617591858 6.5625,3.28125023841858 6.298828125,4.55566453933716 5.595703125,5.59570360183716 4.55566310882568,6.29882764816284 3.28124928474426,6.5625 2.00683522224426,6.29882764816284 0.966796159744263,5.59570360183716 0.263671875,4.55566453933716 0,3.28125023841858 0.263671875,2.00683617591858 0.966796159744263,0.966797113418579 2.00683522224426,0.263672113418579 3.28124928474426,0z" />
    </g>
  </g>
</svg>