<?xml version="1.0" encoding="utf-8"?>
<!DOCTYPE svg PUBLIC "-//W3C//DTD SVG 1.1//EN" "http://www.w3.org/Graphics/SVG/1.1/DTD/svg11.dtd">
<svg width="35.4199218750001" height="42.01171875" xmlns="http://www.w3.org/2000/svg" xmlns:xlink="http://www.w3.org/1999/xlink" xmlns:xml="http://www.w3.org/XML/1998/namespace" version="1.1">
  <g>
    <g>
      <path style="fill:#FF0000;fill-opacity:1" d="M4.921875,21.005859375L4.921875,29.033203125 5.56640625,32.2412109375 7.3095703125,34.7900390625 9.873046875,36.474609375 13.0078125,37.08984375 16.142578125,36.474609375 18.69140625,34.7900390625 20.390625,32.2412109375 21.005859375,29.033203125 20.390625,25.869140625 18.69140625,23.3203125 16.142578125,21.62109375 13.0078125,21.005859375 4.921875,21.005859375z M32.138671875,17.724609375L33.4130859375,17.98828125 34.453125,18.69140625 35.15625,19.7314453125 35.419921875,21.005859375 35.15625,22.2802734375 34.453125,23.3203125 33.4130859375,24.0234375 32.138671875,24.287109375 30.8642578125,24.0234375 29.82421875,23.3203125 29.12109375,22.2802734375 28.857421875,21.005859375 29.12109375,19.7314453125 29.82421875,18.69140625 30.8642578125,17.98828125 32.138671875,17.724609375z M0,0L4.921875,0 4.921875,16.083984375 12.94921875,16.083984375 15.5419921875,16.3403339385986 17.98828125,17.109375 22.119140625,19.892578125 24.90234375,24.0087890625 25.6713848114014,26.444091796875 25.927734375,29.033203125 25.6713848114014,31.644287109375 24.90234375,34.0869140625 22.119140625,38.203125 17.98828125,40.986328125 15.5419921875,41.75537109375 12.94921875,42.01171875 10.3381338119507,41.75537109375 7.8955078125,40.986328125 3.77929711341858,38.203125 1.0107421875,34.0869140625 0.252685368061066,31.644287109375 0,29.033203125 0,0z" />
    </g>
  </g>
</svg>