<?xml version="1.0" encoding="utf-8"?>
<!DOCTYPE svg PUBLIC "-//W3C//DTD SVG 1.1//EN" "http://www.w3.org/Graphics/SVG/1.1/DTD/svg11.dtd">
<svg width="35.4199218750003" height="42.01171875" xmlns="http://www.w3.org/2000/svg" xmlns:xlink="http://www.w3.org/1999/xlink" xmlns:xml="http://www.w3.org/XML/1998/namespace" version="1.1">
  <g>
    <g>
      <path style="fill:#FF0000;fill-opacity:1" d="M3.28124952316284,17.724609375L4.55566358566284,17.98828125 5.59570360183716,18.69140625 6.29882764816284,19.7314453125 6.5625,21.005859375 6.29882764816284,22.2802734375 5.59570360183716,23.3203125 4.55566358566284,24.0234375 3.28124952316284,24.287109375 2.00683569908142,24.0234375 0.966796696186066,23.3203125 0.263671636581421,22.2802734375 0,21.005859375 0.263671636581421,19.7314453125 0.966796696186066,18.69140625 2.00683569908142,17.98828125 3.28124952316284,17.724609375z M22.412109375,4.921875L19.27734375,5.537109375 16.728515625,7.2216796875 15.029296875,9.7705078125 14.4140625,12.978515625 15.029296875,16.142578125 16.728515625,18.69140625 19.27734375,20.390625 22.412109375,21.005859375 30.498046875,21.005859375 30.498046875,12.978515625 29.853515625,9.7705078125 28.1103515625,7.2216796875 25.546875,5.537109375 22.412109375,4.921875z M22.470703125,0L25.0598125457764,0.25634765625 27.4951171875,1.025390625 31.611328125,3.80859375 34.39453125,7.939453125 35.16357421875,10.3857431411743 35.419921875,12.978515625 35.419921875,42.01171875 30.498046875,42.01171875 30.498046875,25.927734375 22.470703125,25.927734375 19.859619140625,25.675048828125 17.4169921875,24.9169921875 13.30078125,22.1484375 10.517578125,18.0322265625 9.74853515625,15.5896015167236 9.4921875,12.978515625 9.74853515625,10.3857431411743 10.517578125,7.939453125 13.30078125,3.80859375 17.4169921875,1.025390625 19.859619140625,0.25634765625 22.470703125,0z" />
    </g>
  </g>
</svg>