<?xml version="1.0" encoding="utf-8"?>
<!DOCTYPE svg PUBLIC "-//W3C//DTD SVG 1.1//EN" "http://www.w3.org/Graphics/SVG/1.1/DTD/svg11.dtd">
<svg width="52.177734375" height="38.96484375" xmlns="http://www.w3.org/2000/svg" xmlns:xlink="http://www.w3.org/1999/xlink" xmlns:xml="http://www.w3.org/XML/1998/namespace" version="1.1">
  <g>
    <g>
      <path style="fill:#FF0000;fill-opacity:1" d="M11.455078125,12.744140625L14.285888671875,13.0004901885986 16.8017578125,13.76953125 21.09375,16.4208984375 24.638671875,20.0244140625 27.71484375,23.935546875 30.3076171875,27.421875 33.1787109375,30.7470703125 36.5185546875,33.2373046875 38.426513671875,33.973388671875 40.546875,34.21875 43.355712890625,33.702392578125 45.3955078125,32.1533203125 46.6369590759277,29.703369140625 47.05078125,26.484375 46.7724609375,24.0380859375 46.025390625,21.9580078125 44.9853515625,20.21484375 43.798828125,18.80859375 40.576171875,16.34765625 43.4765625,12.744140625 47.8125,16.142578125 49.4091796875,18.076171875 50.80078125,20.478515625 51.796875,23.3349609375 52.177734375,26.66015625 51.9580039978027,29.498291015625 51.298828125,31.9775390625 48.8818359375,35.830078125 47.2045860290527,37.1923828125 45.2490234375,38.173828125 43.070068359375,38.76708984375 40.72265625,38.96484375 37.891845703125,38.70849609375 35.3759765625,37.939453125 31.0693359375,35.3173828125 27.509765625,31.728515625 24.462890625,27.802734375 22.7783203125,25.5029296875 20.9912109375,23.173828125 19.04296875,20.9912109375 16.8603515625,19.1748046875 14.4140625,17.9443359375 11.630859375,17.490234375 8.822021484375,18.006591796875 6.7822265625,19.5556640625 5.540771484375,22.005615234375 5.126953125,25.224609375 5.4052734375,27.6708984375 6.1376953125,29.7509765625 7.1630859375,31.494140625 8.349609375,32.900390625 11.6015625,35.361328125 8.701171875,38.96484375 4.3359375,35.56640625 2.7392578125,33.6328125 1.34765625,31.23046875 0.366211414337158,28.3740234375 0,25.048828125 0.219726532697678,22.210693359375 0.878906011581421,19.7314453125 3.29589891433716,15.87890625 4.97314453125,14.5166034698486 6.9287109375,13.53515625 9.107666015625,12.9418964385986 11.455078125,12.744140625z M26.07421875,0L27.3486328125,0.263671875 28.388671875,0.966796875 29.091796875,2.0068359375 29.35546875,3.28125 29.091796875,4.5556640625 28.388671875,5.595703125 27.3486328125,6.298828125 26.07421875,6.5625 24.7998046875,6.298828125 23.759765625,5.595703125 23.056640625,4.5556640625 22.79296875,3.28125 23.056640625,2.0068359375 23.759765625,0.966796875 24.7998046875,0.263671875 26.07421875,0z" />
    </g>
  </g>
</svg>