<?xml version="1.0" encoding="utf-8"?>
<!DOCTYPE svg PUBLIC "-//W3C//DTD SVG 1.1//EN" "http://www.w3.org/Graphics/SVG/1.1/DTD/svg11.dtd">
<svg width="27.216796875" height="57.36328125" xmlns="http://www.w3.org/2000/svg" xmlns:xlink="http://www.w3.org/1999/xlink" xmlns:xml="http://www.w3.org/XML/1998/namespace" version="1.1">
  <g>
    <g>
      <path style="fill:#FF0000;fill-opacity:1" d="M18.544921875,15.3515625L23.466796875,15.3515625 23.466796875,20.33203125 23.1921367645264,24.2431640625 22.3681640625,27.94921875 20.9765605926514,31.34765625 18.9990234375,34.3359375 16.4208984375,36.8701171875 13.2275390625,38.90625 9.40063381195068,40.341796875 4.921875,41.07421875 4.921875,57.36328125 0,57.36328125 0,36.357421875 2.46093773841858,36.357421875 6.361083984375,36.038818359375 9.6826171875,35.0830078125 12.451171875,33.577880859375 14.6923828125,31.611328125 16.409912109375,29.2346210479736 17.607421875,26.4990234375 18.310546875,23.499755859375 18.544921875,20.33203125 18.544921875,15.3515625z M21.005859375,2.9296875L19.7314453125,3.19335961341858 18.69140625,3.89648413658142 17.98828125,4.9365234375 17.724609375,6.2109375 17.98828125,7.48535203933716 18.69140625,8.525390625 19.7314453125,9.228515625 21.005859375,9.4921875 22.2802734375,9.228515625 23.3203125,8.525390625 24.0234375,7.48535203933716 24.287109375,6.2109375 24.0234375,4.9365234375 23.3203125,3.89648413658142 22.2802734375,3.19335961341858 21.005859375,2.9296875z M20.9765625,0L23.3642578125,0.4833984375 25.3564453125,1.80175828933716 26.71875,3.74999976158142 27.216796875,6.12304735183716 26.71875,8.525390625 25.3564453125,10.5322265625 23.3642578125,11.9091796875 20.9765625,12.421875 18.5888671875,11.9091796875 16.6259765625,10.5322265625 15.29296875,8.525390625 14.794921875,6.12304735183716 15.29296875,3.74999976158142 16.6259765625,1.80175828933716 18.5888671875,0.4833984375 20.9765625,0z" />
    </g>
  </g>
</svg>