<?xml version="1.0" encoding="utf-8"?>
<!DOCTYPE svg PUBLIC "-//W3C//DTD SVG 1.1//EN" "http://www.w3.org/Graphics/SVG/1.1/DTD/svg11.dtd">
<svg width="52.177734375" height="26.220703125" xmlns="http://www.w3.org/2000/svg" xmlns:xlink="http://www.w3.org/1999/xlink" xmlns:xml="http://www.w3.org/XML/1998/namespace" version="1.1">
  <g>
    <g>
      <path style="fill:#FF0000;fill-opacity:1" d="M11.455078125,0L14.285888671875,0.256349086761475 16.8017578125,1.025390625 21.09375,3.6767578125 24.638671875,7.2802734375 27.71484375,11.19140625 30.3076171875,14.677734375 33.1787109375,18.0029296875 36.5185546875,20.4931640625 38.426513671875,21.229248046875 40.546875,21.474609375 43.355712890625,20.958251953125 45.3955078125,19.4091796875 46.6369590759277,16.959228515625 47.05078125,13.740234375 46.7724609375,11.2939453125 46.025390625,9.2138671875 44.9853515625,7.470703125 43.798828125,6.064453125 40.576171875,3.603515625 43.4765625,0 47.8125,3.3984375 49.4091796875,5.33203125 50.80078125,7.734375 51.796875,10.5908203125 52.177734375,13.916015625 51.9580039978027,16.754150390625 51.298828125,19.2333984375 48.8818359375,23.0859375 47.2045860290527,24.4482421875 45.2490234375,25.4296875 43.070068359375,26.02294921875 40.72265625,26.220703125 37.891845703125,25.96435546875 35.3759765625,25.1953125 31.0693359375,22.5732421875 27.509765625,18.984375 24.462890625,15.05859375 22.7783203125,12.7587890625 20.9912109375,10.4296875 19.04296875,8.2470703125 16.8603515625,6.4306640625 14.4140625,5.2001953125 11.630859375,4.74609375 8.822021484375,5.262451171875 6.7822265625,6.8115234375 5.540771484375,9.261474609375 5.126953125,12.48046875 5.4052734375,14.9267578125 6.1376953125,17.0068359375 7.1630859375,18.75 8.349609375,20.15625 11.6015625,22.6171875 8.701171875,26.220703125 4.3359375,22.822265625 2.7392578125,20.888671875 1.34765625,18.486328125 0.366211414337158,15.6298828125 0,12.3046875 0.219726532697678,9.466552734375 0.878906011581421,6.9873046875 3.29589891433716,3.134765625 4.97314453125,1.77246236801147 6.9287109375,0.791015625 9.107666015625,0.197755336761475 11.455078125,0z" />
    </g>
  </g>
</svg>