<?xml version="1.0" encoding="utf-8"?>
<!DOCTYPE svg PUBLIC "-//W3C//DTD SVG 1.1//EN" "http://www.w3.org/Graphics/SVG/1.1/DTD/svg11.dtd">
<svg width="32.958984375" height="42.01171875" xmlns="http://www.w3.org/2000/svg" xmlns:xlink="http://www.w3.org/1999/xlink" xmlns:xml="http://www.w3.org/XML/1998/namespace" version="1.1">
  <g>
    <g>
      <path style="fill:#FF0000;fill-opacity:1" d="M29.677734375,17.724609375L30.9521484375,17.98828125 31.9921875,18.69140625 32.6953125,19.7314453125 32.958984375,21.005859375 32.6953125,22.2802734375 31.9921875,23.3203125 30.9521484375,24.0234375 29.677734375,24.287109375 28.4033203125,24.0234375 27.36328125,23.3203125 26.66015625,22.2802734375 26.396484375,21.005859375 26.66015625,19.7314453125 27.36328125,18.69140625 28.4033203125,17.98828125 29.677734375,17.724609375z M0,0L4.921875,0 4.921875,16.2890625 9.40063381195068,17.0214862823486 13.2275390625,18.45703125 16.4208984375,20.496826171875 18.9990234375,23.0419921875 20.9765605926514,26.03759765625 22.3681640625,29.4287109375 23.1921367645264,33.123779296875 23.466796875,37.03125 23.466796875,42.01171875 18.544921875,42.01171875 18.544921875,37.03125 18.310546875,33.863525390625 17.607421875,30.8642578125 16.409912109375,28.128662109375 14.6923828125,25.751953125 12.451171875,23.785400390625 9.6826171875,22.2802734375 6.361083984375,21.324462890625 2.46093726158142,21.005859375 0,21.005859375 0,0z" />
    </g>
  </g>
</svg>