<?xml version="1.0" encoding="utf-8"?>
<!DOCTYPE svg PUBLIC "-//W3C//DTD SVG 1.1//EN" "http://www.w3.org/Graphics/SVG/1.1/DTD/svg11.dtd">
<svg width="24.287109375" height="42.01171875" xmlns="http://www.w3.org/2000/svg" xmlns:xlink="http://www.w3.org/1999/xlink" xmlns:xml="http://www.w3.org/XML/1998/namespace" version="1.1">
  <g>
    <g>
      <path style="fill:#FF0000;fill-opacity:1" d="M3.28125023841858,7.236328125L4.5556640625,7.5 5.595703125,8.203125 6.298828125,9.2431640625 6.5625,10.517578125 6.298828125,11.7919921875 5.595703125,12.83203125 4.5556640625,13.53515625 3.28125023841858,13.798828125 2.00683617591858,13.53515625 0.966796875,12.83203125 0.263672351837158,11.7919921875 0,10.517578125 0.263672351837158,9.2431640625 0.966796875,8.203125 2.00683617591858,7.5 3.28125023841858,7.236328125z M19.365234375,0L24.287109375,0 24.287109375,21.005859375 21.826171875,21.005859375 17.926025390625,21.324462890625 14.6044921875,22.2802734375 11.8359365463257,23.785400390625 9.5947265625,25.751953125 7.877197265625,28.128662109375 6.6796875,30.8642578125 5.9765625,33.863525390625 5.7421875,37.03125 5.7421875,42.01171875 0.820312976837158,42.01171875 0.820312976837158,37.03125 1.09497106075287,33.123779296875 1.91894602775574,29.4287109375 3.31054711341858,26.03759765625 5.2880859375,23.0419921875 7.8662109375,20.496826171875 11.0595703125,18.45703125 14.886474609375,17.0214862823486 19.365234375,16.2890625 19.365234375,0z" />
    </g>
  </g>
</svg>