<?xml version="1.0" encoding="utf-8"?>
<!DOCTYPE svg PUBLIC "-//W3C//DTD SVG 1.1//EN" "http://www.w3.org/Graphics/SVG/1.1/DTD/svg11.dtd">
<svg width="33.779296875" height="54.43359375" xmlns="http://www.w3.org/2000/svg" xmlns:xlink="http://www.w3.org/1999/xlink" xmlns:xml="http://www.w3.org/XML/1998/namespace" version="1.1">
  <g>
    <g>
      <path style="fill:#FF0000;fill-opacity:1" d="M3.28125023841858,30.146484375L4.55566453933716,30.41015625 5.59570360183716,31.11328125 6.29882860183716,32.1533203125 6.56250095367432,33.427734375 6.29882860183716,34.7021484375 5.59570360183716,35.7421875 4.55566453933716,36.4453125 3.28125023841858,36.708984375 2.00683617591858,36.4453125 0.96679699420929,35.7421875 0.263671964406967,34.7021484375 0,33.427734375 0.263671964406967,32.1533203125 0.96679699420929,31.11328125 2.00683617591858,30.41015625 3.28125023841858,30.146484375z M28.037109375,12.421875L32.958984375,12.421875 32.958984375,17.40234375 32.684326171875,21.3134765625 31.8603515625,25.01953125 30.4687480926514,28.4179706573486 28.4912109375,31.40625 25.9130840301514,33.9404296875 22.7197265625,35.9765625 18.892822265625,37.412109375 14.4140625,38.14453125 14.4140625,54.43359375 9.4921875,54.43359375 9.4921875,33.427734375 11.953125,33.427734375 15.853271484375,33.109130859375 19.1748046875,32.1533203125 21.943359375,30.648193359375 24.1845703125,28.681640625 25.9020977020264,26.3049335479736 27.099609375,23.5693359375 27.8027324676514,20.570068359375 28.037109375,17.40234375 28.037109375,12.421875z M30.498046875,0L31.7724609375,0.263672113418579 32.8125,0.966797113418579 33.515625,2.00683617591858 33.779296875,3.28125023841858 33.515625,4.55566453933716 32.8125,5.59570360183716 31.7724609375,6.29882764816284 30.498046875,6.5625 29.2236328125,6.29882764816284 28.18359375,5.59570360183716 27.48046875,4.55566453933716 27.216796875,3.28125023841858 27.48046875,2.00683617591858 28.18359375,0.966797113418579 29.2236328125,0.263672113418579 30.498046875,0z" />
    </g>
  </g>
</svg>