<?xml version="1.0" encoding="utf-8"?>
<!DOCTYPE svg PUBLIC "-//W3C//DTD SVG 1.1//EN" "http://www.w3.org/Graphics/SVG/1.1/DTD/svg11.dtd">
<svg width="25.927734375" height="42.01171875" xmlns="http://www.w3.org/2000/svg" xmlns:xlink="http://www.w3.org/1999/xlink" xmlns:xml="http://www.w3.org/XML/1998/namespace" version="1.1">
  <g>
    <g>
      <path style="fill:#FF0000;fill-opacity:1" d="M12.978515625,0L15.567626953125,0.252685546875 18.0029296875,1.0107421875 22.119140625,3.779296875 24.90234375,7.91015625 25.6713848114014,10.3637704849243 25.927734375,12.978515625 25.5395488739014,17.0031757354736 24.375,20.6396484375 22.5659160614014,23.946533203125 20.244140625,26.982421875 17.471923828125,29.783935546875 14.3115234375,32.3876953125 7.353515625,37.20703125 25.927734375,37.20703125 25.927734375,42.01171875 0,42.01171875 0,37.20703125 3.74267530441284,34.69482421875 7.060546875,32.373046875 9.97192287445068,30.21240234375 12.4951171875,28.18359375 16.4501953125,24.404296875 19.0869140625,20.771484375 20.5517578125,17.05078125 21.005859375,12.978515625 20.361328125,9.7412109375 18.6181640625,7.1923828125 16.0546875,5.5224609375 12.919921875,4.921875 9.78515625,5.537109375 7.236328125,7.2216796875 5.537109375,9.7705078125 4.921875,12.978515625 0,12.978515625 0.25634765625,10.3857431411743 1.025390625,7.939453125 3.80859375,3.80859375 7.9248046875,1.025390625 10.3674306869507,0.25634765625 12.978515625,0z" />
    </g>
  </g>
</svg>