<?xml version="1.0" encoding="utf-8"?>
<!DOCTYPE svg PUBLIC "-//W3C//DTD SVG 1.1//EN" "http://www.w3.org/Graphics/SVG/1.1/DTD/svg11.dtd">
<svg width="51.50390625" height="38.349609375" xmlns="http://www.w3.org/2000/svg" xmlns:xlink="http://www.w3.org/1999/xlink" xmlns:xml="http://www.w3.org/XML/1998/namespace" version="1.1">
  <g>
    <g>
      <path style="fill:#FF0000;fill-opacity:1" d="M3.28125047683716,14.0625L4.5556640625,14.326171875 5.59570264816284,15.029296875 6.298828125,16.0693359375 6.5625,17.34375 6.298828125,18.6181640625 5.59570264816284,19.658203125 4.5556640625,20.361328125 3.28125047683716,20.625 2.0068359375,20.361328125 0.966797113418579,19.658203125 0.263672053813934,18.6181640625 0,17.34375 0.263672053813934,16.0693359375 0.966797113418579,15.029296875 2.0068359375,14.326171875 3.28125047683716,14.0625z M22.470703125,12.421875L51.50390625,12.421875 51.50390625,17.34375 22.470703125,17.34375 19.2626953125,17.98828125 16.7138671875,19.7314453125 15.029296875,22.294921875 14.4140625,25.4296875 15.029296875,28.564453125 16.7138671875,31.11328125 19.2626953125,32.8125 22.470703125,33.427734375 25.13671875,33.427734375 25.13671875,38.349609375 22.470703125,38.349609375 19.859619140625,38.09326171875 17.4169921875,37.32421875 13.30078125,34.541015625 10.517578125,30.4248046875 9.74853515625,27.982177734375 9.4921875,25.37109375 9.74853515625,22.781982421875 10.517578125,20.3466796875 13.30078125,16.23046875 17.4169921875,13.447265625 19.859619140625,12.6782245635986 22.470703125,12.421875z M22.470703125,0L23.7451171875,0.263671875 24.78515625,0.966796875 25.48828125,2.0068359375 25.751953125,3.28125 25.48828125,4.5556640625 24.78515625,5.595703125 23.7451171875,6.298828125 22.470703125,6.5625 21.1962890625,6.298828125 20.15625,5.595703125 19.453125,4.5556640625 19.189453125,3.28125 19.453125,2.0068359375 20.15625,0.966796875 21.1962890625,0.263671875 22.470703125,0z" />
    </g>
  </g>
</svg>