<?xml version="1.0" encoding="utf-8"?>
<!DOCTYPE svg PUBLIC "-//W3C//DTD SVG 1.1//EN" "http://www.w3.org/Graphics/SVG/1.1/DTD/svg11.dtd">
<svg width="36.2402343750004" height="54.43359375" xmlns="http://www.w3.org/2000/svg" xmlns:xlink="http://www.w3.org/1999/xlink" xmlns:xml="http://www.w3.org/XML/1998/namespace" version="1.1">
  <g>
    <g>
      <path style="fill:#FF0000;fill-opacity:1" d="M3.28124952316284,30.146484375L4.55566358566284,30.41015625 5.595703125,31.11328125 6.298828125,32.1533203125 6.5625,33.427734375 6.298828125,34.7021484375 5.595703125,35.7421875 4.55566358566284,36.4453125 3.28124952316284,36.708984375 2.00683522224426,36.4453125 0.966796278953552,35.7421875 0.263672024011612,34.7021484375 0,33.427734375 0.263672024011612,32.1533203125 0.966796278953552,31.11328125 2.00683522224426,30.41015625 3.28124952316284,30.146484375z M30.498046875,12.421875L35.419921875,12.421875 35.419921875,54.43359375 9.4921875,54.43359375 9.4921875,49.62890625 30.498046875,49.62890625 30.498046875,12.421875z M32.958984375,0L34.2333984375,0.263672113418579 35.2734375,0.966797113418579 35.9765625,2.00683617591858 36.240234375,3.28125023841858 35.9765625,4.55566453933716 35.2734375,5.59570360183716 34.2333984375,6.29882764816284 32.958984375,6.5625 31.6845703125,6.29882764816284 30.64453125,5.59570360183716 29.94140625,4.55566453933716 29.677734375,3.28125023841858 29.94140625,2.00683617591858 30.64453125,0.966797113418579 31.6845703125,0.263672113418579 32.958984375,0z" />
    </g>
  </g>
</svg>