<?xml version="1.0" encoding="utf-8"?>
<!DOCTYPE svg PUBLIC "-//W3C//DTD SVG 1.1//EN" "http://www.w3.org/Graphics/SVG/1.1/DTD/svg11.dtd">
<svg width="51.50390625" height="25.927734375" xmlns="http://www.w3.org/2000/svg" xmlns:xlink="http://www.w3.org/1999/xlink" xmlns:xml="http://www.w3.org/XML/1998/namespace" version="1.1">
  <g>
    <g>
      <path style="fill:#FF0000;fill-opacity:1" d="M30.498046875,4.921875L30.498046875,13.0078125 31.11328125,16.142578125 32.8125,18.69140625 35.361328125,20.390625 38.525390625,21.005859375 41.7333984375,20.390625 44.2822265625,18.69140625 45.966796875,16.142578125 46.58203125,13.0078125 45.966796875,9.873046875 44.2822265625,7.3095703125 41.7333984375,5.56640625 38.525390625,4.921875 30.498046875,4.921875z M3.28125047683716,1.640625L4.5556640625,1.904296875 5.59570264816284,2.607421875 6.298828125,3.6474609375 6.5625,4.921875 6.298828125,6.1962890625 5.59570264816284,7.236328125 4.5556640625,7.939453125 3.28125047683716,8.203125 2.0068359375,7.939453125 0.966797113418579,7.236328125 0.263672053813934,6.1962890625 0,4.921875 0.263672053813934,3.6474609375 0.966797113418579,2.607421875 2.0068359375,1.904296875 3.28125047683716,1.640625z M9.4921875,0L38.525390625,0 41.1181640625,0.256349086761475 43.564453125,1.025390625 47.6953125,3.80859375 50.478515625,7.9248046875 51.2475547790527,10.360107421875 51.50390625,12.94921875 51.2475547790527,15.560302734375 50.478515625,18.0029296875 47.6953125,22.119140625 43.564453125,24.90234375 41.1181640625,25.67138671875 38.525390625,25.927734375 35.914306640625,25.67138671875 33.4716796875,24.90234375 29.35546875,22.119140625 26.5869140625,18.0029296875 25.8288555145264,15.560302734375 25.576171875,12.94921875 25.576171875,4.921875 9.4921875,4.921875 9.4921875,0z" />
    </g>
  </g>
</svg>