<?xml version="1.0" encoding="utf-8"?>
<!DOCTYPE svg PUBLIC "-//W3C//DTD SVG 1.1//EN" "http://www.w3.org/Graphics/SVG/1.1/DTD/svg11.dtd">
<svg width="49.39453125" height="54.43359375" xmlns="http://www.w3.org/2000/svg" xmlns:xlink="http://www.w3.org/1999/xlink" xmlns:xml="http://www.w3.org/XML/1998/namespace" version="1.1">
  <g>
    <g>
      <path style="fill:#FF0000;fill-opacity:1" d="M46.11328125,30.146484375L47.3876953125,30.41015625 48.427734375,31.11328125 49.130859375,32.1533203125 49.39453125,33.427734375 49.130859375,34.7021484375 48.427734375,35.7421875 47.3876953125,36.4453125 46.11328125,36.708984375 44.8388671875,36.4453125 43.798828125,35.7421875 43.095703125,34.7021484375 42.83203125,33.427734375 43.095703125,32.1533203125 43.798828125,31.11328125 44.8388671875,30.41015625 46.11328125,30.146484375z M28.681640625,12.421875L31.204833984375,12.67822265625 33.4423828125,13.447265625 36.97265625,16.23046875 39.1552734375,20.361328125 39.90234375,25.400390625 34.98046875,25.400390625 34.62890625,22.1923828125 33.5302734375,19.6435546875 31.5966796875,17.958984375 28.740234375,17.34375 25.8837890625,17.958984375 23.9208984375,19.6435546875 22.7783203125,22.1923828125 22.412109375,25.400390625 22.412109375,41.455078125 21.6650390625,46.5087890625 19.4970703125,50.625 15.9814453125,53.408203125 13.743896484375,54.17724609375 11.220703125,54.43359375 8.67919921875,54.17724609375 6.4453125,53.408203125 2.9296875,50.625 0.747070074081421,46.5087890625 0,41.455078125 4.92187452316284,41.455078125 5.2734375,44.6630859375 6.3720703125,47.2119140625 8.3056640625,48.896484375 11.162109375,49.51171875 14.0185546875,48.896484375 15.9814453125,47.2119140625 17.1240234375,44.6630859375 17.490234375,41.455078125 17.490234375,25.400390625 18.2373046875,20.361328125 20.4052734375,16.23046875 23.90625,13.447265625 26.1401348114014,12.67822265625 28.681640625,12.421875z M28.681640625,0L29.9560546875,0.263672113418579 30.99609375,0.966797113418579 31.69921875,2.00683617591858 31.962890625,3.28125023841858 31.69921875,4.55566453933716 30.99609375,5.59570360183716 29.9560546875,6.29882764816284 28.681640625,6.5625 27.4072265625,6.29882764816284 26.3671875,5.59570360183716 25.6640625,4.55566453933716 25.400390625,3.28125023841858 25.6640625,2.00683617591858 26.3671875,0.966797113418579 27.4072265625,0.263672113418579 28.681640625,0z" />
    </g>
  </g>
</svg>