<?xml version="1.0" encoding="utf-8"?>
<!DOCTYPE svg PUBLIC "-//W3C//DTD SVG 1.1//EN" "http://www.w3.org/Graphics/SVG/1.1/DTD/svg11.dtd">
<svg width="32.958984375" height="54.43359375" xmlns="http://www.w3.org/2000/svg" xmlns:xlink="http://www.w3.org/1999/xlink" xmlns:xml="http://www.w3.org/XML/1998/namespace" version="1.1">
  <g>
    <g>
      <path style="fill:#FF0000;fill-opacity:1" d="M29.677734375,30.146484375L30.9521484375,30.41015625 31.9921875,31.11328125 32.6953125,32.1533203125 32.958984375,33.427734375 32.6953125,34.7021484375 31.9921875,35.7421875 30.9521484375,36.4453125 29.677734375,36.708984375 28.4033203125,36.4453125 27.36328125,35.7421875 26.66015625,34.7021484375 26.396484375,33.427734375 26.66015625,32.1533203125 27.36328125,31.11328125 28.4033203125,30.41015625 29.677734375,30.146484375z M6.38671827316284,12.421875L23.466796875,37.939453125 23.466796875,38.232421875 4.92187452316284,38.232421875 4.92187452316284,54.43359375 0,54.43359375 0,33.427734375 14.53125,33.427734375 2.46093702316284,15.205078125 6.38671827316284,12.421875z M4.42382764816284,0L5.69824171066284,0.263672113418579 6.73828077316284,0.966797113418579 7.44140577316284,2.00683617591858 7.70507764816284,3.28125023841858 7.44140577316284,4.55566453933716 6.73828077316284,5.59570360183716 5.69824171066284,6.29882764816284 4.42382764816284,6.5625 3.14941358566284,6.29882764816284 2.10937404632568,5.59570360183716 1.40624904632568,4.55566453933716 1.142578125,3.28125023841858 1.40624904632568,2.00683617591858 2.10937404632568,0.966797113418579 3.14941358566284,0.263672113418579 4.42382764816284,0z" />
    </g>
  </g>
</svg>