<?xml version="1.0" encoding="utf-8"?>
<!DOCTYPE svg PUBLIC "-//W3C//DTD SVG 1.1//EN" "http://www.w3.org/Graphics/SVG/1.1/DTD/svg11.dtd">
<svg width="25.25390625" height="57.36328125" xmlns="http://www.w3.org/2000/svg" xmlns:xlink="http://www.w3.org/1999/xlink" xmlns:xml="http://www.w3.org/XML/1998/namespace" version="1.1">
  <g>
    <g>
      <path style="fill:#FF0000;fill-opacity:1" d="M8.173828125,15.3515625L25.25390625,40.869140625 25.25390625,41.162109375 6.70898485183716,41.162109375 6.70898485183716,57.36328125 1.78710973262787,57.36328125 1.78710973262787,36.357421875 16.318359375,36.357421875 4.24804735183716,18.134765625 8.173828125,15.3515625z M6.21093702316284,2.9296875L4.9365234375,3.19335961341858 3.89648389816284,3.89648413658142 3.193359375,4.9365234375 2.9296875,6.2109375 3.193359375,7.48535203933716 3.89648389816284,8.525390625 4.9365234375,9.228515625 6.21093702316284,9.4921875 7.4853515625,9.228515625 8.525390625,8.525390625 9.228515625,7.48535203933716 9.4921875,6.2109375 9.228515625,4.9365234375 8.525390625,3.89648413658142 7.4853515625,3.19335961341858 6.21093702316284,2.9296875z M6.181640625,0L8.5693359375,0.4833984375 10.5615234375,1.80175828933716 11.923828125,3.74999976158142 12.421875,6.12304735183716 11.923828125,8.525390625 10.5615234375,10.5322265625 8.5693359375,11.9091796875 6.181640625,12.421875 3.79394578933716,11.9091796875 1.83105480670929,10.5322265625 0.49804675579071,8.525390625 0,6.12304735183716 0.49804675579071,3.74999976158142 1.83105480670929,1.80175828933716 3.79394578933716,0.4833984375 6.181640625,0z" />
    </g>
  </g>
</svg>