<?xml version="1.0" encoding="utf-8"?>
<!DOCTYPE svg PUBLIC "-//W3C//DTD SVG 1.1//EN" "http://www.w3.org/Graphics/SVG/1.1/DTD/svg11.dtd">
<svg width="61.669921875" height="38.96484375" xmlns="http://www.w3.org/2000/svg" xmlns:xlink="http://www.w3.org/1999/xlink" xmlns:xml="http://www.w3.org/XML/1998/namespace" version="1.1">
  <g>
    <g>
      <path style="fill:#FF0000;fill-opacity:1" d="M3.28125,14.0625L4.5556640625,14.326171875 5.595703125,15.029296875 6.29882860183716,16.0693359375 6.5625,17.34375 6.29882860183716,18.6181640625 5.595703125,19.658203125 4.5556640625,20.361328125 3.28125,20.625 2.00683617591858,20.361328125 0.966796875,19.658203125 0.263671636581421,18.6181640625 0,17.34375 0.263671636581421,16.0693359375 0.966796875,15.029296875 2.00683617591858,14.326171875 3.28125,14.0625z M20.947265625,12.744140625L23.7780742645264,13.0004901885986 26.2939453125,13.76953125 30.5859375,16.4208984375 34.130859375,20.0244140625 37.20703125,23.935546875 39.7998046875,27.421875 42.6708984375,30.7470703125 46.0107421875,33.2373046875 47.9186973571777,33.973388671875 50.0390625,34.21875 52.8478965759277,33.702392578125 54.8876953125,32.1533203125 56.1291465759277,29.703369140625 56.54296875,26.484375 56.2646484375,24.0380859375 55.517578125,21.9580078125 54.4775390625,20.21484375 53.291015625,18.80859375 50.068359375,16.34765625 52.96875,12.744140625 57.3046875,16.142578125 58.9013671875,18.076171875 60.29296875,20.478515625 61.2890625,23.3349609375 61.669921875,26.66015625 61.4501914978027,29.498291015625 60.791015625,31.9775390625 58.3740234375,35.830078125 56.6967735290527,37.1923828125 54.7412109375,38.173828125 52.5622520446777,38.76708984375 50.21484375,38.96484375 47.384033203125,38.70849609375 44.8681640625,37.939453125 40.5615234375,35.3173828125 37.001953125,31.728515625 33.955078125,27.802734375 32.2705078125,25.5029296875 30.4833984375,23.173828125 28.53515625,20.9912109375 26.3525390625,19.1748046875 23.90625,17.9443359375 21.123046875,17.490234375 18.314208984375,18.006591796875 16.2744140625,19.5556640625 15.0329580307007,22.005615234375 14.619140625,25.224609375 14.8974609375,27.6708984375 15.6298828125,29.7509765625 16.6552734375,31.494140625 17.841796875,32.900390625 21.09375,35.361328125 18.193359375,38.96484375 13.828125,35.56640625 12.2314453125,33.6328125 10.83984375,31.23046875 9.8583984375,28.3740234375 9.4921875,25.048828125 9.7119140625,22.210693359375 10.37109375,19.7314453125 12.7880859375,15.87890625 14.4653310775757,14.5166034698486 16.4208984375,13.53515625 18.599853515625,12.9418964385986 20.947265625,12.744140625z M35.56640625,0L36.8408203125,0.263671875 37.880859375,0.966796875 38.583984375,2.0068359375 38.84765625,3.28125 38.583984375,4.5556640625 37.880859375,5.595703125 36.8408203125,6.298828125 35.56640625,6.5625 34.2919921875,6.298828125 33.251953125,5.595703125 32.548828125,4.5556640625 32.28515625,3.28125 32.548828125,2.0068359375 33.251953125,0.966796875 34.2919921875,0.263671875 35.56640625,0z" />
    </g>
  </g>
</svg>