<?xml version="1.0" encoding="utf-8"?>
<!DOCTYPE svg PUBLIC "-//W3C//DTD SVG 1.1//EN" "http://www.w3.org/Graphics/SVG/1.1/DTD/svg11.dtd">
<svg width="42.01171875" height="42.01171875" xmlns="http://www.w3.org/2000/svg" xmlns:xlink="http://www.w3.org/1999/xlink" xmlns:xml="http://www.w3.org/XML/1998/namespace" version="1.1">
  <g>
    <g>
      <path style="fill:#FF0000;fill-opacity:1" d="M0,10.517578125L10.517578125,10.517578125 12.623291015625,10.7226581573486 14.6044921875,11.337890625 17.9443359375,13.59375 20.185546875,16.93359375 20.80078125,18.9111328125 21.005859375,21.03515625 20.80078125,23.140869140625 20.185546875,25.1220703125 17.9443359375,28.4619140625 14.6044921875,30.703125 12.623291015625,31.318359375 10.517578125,31.5234375 0,31.5234375 0,26.66015625 10.517578125,26.66015625 12.685546875,26.3232421875 14.4873046875,25.283203125 15.732421875,23.525390625 16.201171875,21.03515625 15.732421875,18.5302734375 14.4873046875,16.7578125 12.685546875,15.7177734375 10.517578125,15.380859375 0,15.380859375 0,10.517578125z M0,0L21.181640625,0 25.3161602020264,0.31494140625 29.2236328125,1.259765625 32.779541015625,2.84912109375 35.859375,5.09765625 38.404541015625,8.023681640625 40.3564453125,11.6455078125 41.597900390625,15.9704608917236 42.01171875,21.005859375 41.597900390625,26.085205078125 40.3564453125,30.4248046875 38.404541015625,34.046630859375 35.859375,36.97265625 32.779541015625,39.2138671875 29.2236328125,40.78125 25.3161602020264,41.7041015625 21.181640625,42.01171875 0,42.01171875 0,37.08984375 21.181640625,37.08984375 24.3493633270264,36.85546875 27.3486328125,36.15234375 30.084228515625,34.954833984375 32.4609375,33.2373046875 34.427490234375,30.99609375 35.9326171875,28.2275390625 36.888427734375,24.906005859375 37.20703125,21.005859375 36.888427734375,17.0617694854736 35.9326171875,13.7255859375 34.427490234375,10.9606952667236 32.4609375,8.73046875 30.084228515625,7.027587890625 27.3486328125,5.8447265625 24.3493633270264,5.152587890625 21.181640625,4.921875 0,4.921875 0,0z" />
    </g>
  </g>
</svg>