<?xml version="1.0" encoding="utf-8"?>
<!DOCTYPE svg PUBLIC "-//W3C//DTD SVG 1.1//EN" "http://www.w3.org/Graphics/SVG/1.1/DTD/svg11.dtd">
<svg width="29.033203125" height="54.43359375" xmlns="http://www.w3.org/2000/svg" xmlns:xlink="http://www.w3.org/1999/xlink" xmlns:xml="http://www.w3.org/XML/1998/namespace" version="1.1">
  <g>
    <g>
      <path style="fill:#FF0000;fill-opacity:1" d="M0,12.421875L14.58984375,12.421875 17.7392578125,12.7001953125 20.56640625,13.53515625 23.0383281707764,14.853515625 25.1220703125,16.58203125 26.7919902801514,18.687744140625 28.0224609375,21.1376953125 28.7805156707764,23.8659687042236 29.033203125,26.806640625 28.7805156707764,29.8864765167236 28.0224609375,32.6806640625 26.7956523895264,35.137939453125 25.13671875,37.20703125 23.0639629364014,38.86962890625 20.595703125,40.107421875 17.76123046875,40.87646484375 14.58984375,41.1328125 4.92187452316284,41.1328125 4.92187452316284,54.43359375 0,54.43359375 0,36.2109375 14.58984375,36.2109375 18.720703125,35.5224609375 21.708984375,33.5888671875 23.5107421875,30.6005859375 24.111328125,26.748046875 23.5107421875,22.91015625 21.708984375,19.9365234375 18.720703125,18.017578125 14.58984375,17.34375 0,17.34375 0,12.421875z M12.94921875,0L14.2236328125,0.263672113418579 15.263671875,0.966797113418579 15.966796875,2.00683617591858 16.23046875,3.28125023841858 15.966796875,4.55566453933716 15.263671875,5.59570360183716 14.2236328125,6.29882764816284 12.94921875,6.5625 11.6748046875,6.29882764816284 10.634765625,5.59570360183716 9.931640625,4.55566453933716 9.66796875,3.28125023841858 9.931640625,2.00683617591858 10.634765625,0.966797113418579 11.6748046875,0.263672113418579 12.94921875,0z" />
    </g>
  </g>
</svg>