<?xml version="1.0" encoding="utf-8"?>
<!DOCTYPE svg PUBLIC "-//W3C//DTD SVG 1.1//EN" "http://www.w3.org/Graphics/SVG/1.1/DTD/svg11.dtd">
<svg width="42.01171875" height="48.3984375" xmlns="http://www.w3.org/2000/svg" xmlns:xlink="http://www.w3.org/1999/xlink" xmlns:xml="http://www.w3.org/XML/1998/namespace" version="1.1">
  <g>
    <g>
      <path style="fill:#FF0000;fill-opacity:1" d="M9.9609375,17.16796875L7.8662109375,17.578125 6.2109375,18.7060546875 5.1123046875,20.3759765625 4.716796875,22.412109375 5.1123046875,24.43359375 6.2109375,26.07421875 7.8662109375,27.1728515625 9.931640625,27.568359375 12.01171875,27.1728515625 13.681640625,26.07421875 14.7802734375,24.43359375 15.17578125,22.412109375 14.7802734375,20.3759765625 13.681640625,18.7060546875 12.0263671875,17.578125 9.9609375,17.16796875z M9.931640625,12.421875L12.12890625,12.6416015625 14.033203125,13.271484375 42.01171875,27.099609375 42.01171875,27.685546875 0,48.3984375 0,43.18359375 32.021484375,27.392578125 19.892578125,21.357421875 19.921875,21.8701171875 19.921875,22.3828125 19.72412109375,24.375 19.130859375,26.25 16.9921875,29.4140625 13.8134765625,31.5380859375 11.9274892807007,32.120361328125 9.931640625,32.314453125 7.939453125,32.120361328125 6.064453125,31.5380859375 2.900390625,29.4140625 0.776366949081421,26.25 0.194091767072678,24.375 0,22.3828125 0.194091767072678,20.3906269073486 0.776366949081421,18.515625 2.900390625,15.3369140625 6.064453125,13.1982421875 7.939453125,12.615966796875 9.931640625,12.421875z M9.931640625,0L11.2060546875,0.263671636581421 12.24609375,0.966796636581421 12.94921875,2.0068359375 13.212890625,3.28124952316284 12.94921875,4.5556640625 12.24609375,5.595703125 11.2060546875,6.298828125 9.931640625,6.5625 8.6572265625,6.298828125 7.6171875,5.595703125 6.9140625,4.5556640625 6.650390625,3.28124952316284 6.9140625,2.0068359375 7.6171875,0.966796636581421 8.6572265625,0.263671636581421 9.931640625,0z" />
    </g>
  </g>
</svg>