<?xml version="1.0" encoding="utf-8"?>
<!DOCTYPE svg PUBLIC "-//W3C//DTD SVG 1.1//EN" "http://www.w3.org/Graphics/SVG/1.1/DTD/svg11.dtd">
<svg width="21.005859375" height="21.005859375" xmlns="http://www.w3.org/2000/svg" xmlns:xlink="http://www.w3.org/1999/xlink" xmlns:xml="http://www.w3.org/XML/1998/namespace" version="1.1">
  <g>
    <g>
      <path style="fill:#FF0000;fill-opacity:1" d="M11.689453125,3.6328125L11.689453125,6.50390625 11.923828125,7.6318359375 12.5537109375,8.525390625 13.4619140625,9.111328125 14.53125,9.31640625 15.6005859375,9.111328125 16.5087890625,8.525390625 17.138671875,7.6318359375 17.373046875,6.50390625 17.1240234375,5.1416015625 16.494140625,4.248046875 15.6298828125,3.779296875 14.70703125,3.6328125 11.689453125,3.6328125z M10.48828125,0L14.53125,0 17.05078125,0.5126953125 19.1015625,1.904296875 20.4931640625,3.955078125 21.005859375,6.474609375 20.4931640625,8.994140625 19.1015625,11.044921875 17.05078125,12.4365234375 14.53125,12.94921875 12.01171875,12.4365234375 9.9609375,11.044921875 8.5693359375,8.994140625 8.056640625,6.474609375 8.056640625,4.072265625 6.240234375,5.0830078125 4.8193359375,6.5771484375 3.92578125,8.408203125 3.6328125,10.48828125 4.16015625,13.1689453125 5.6103515625,15.3662109375 7.822265625,16.845703125 10.48828125,17.373046875 21.005859375,17.373046875 21.005859375,21.005859375 10.48828125,21.005859375 8.382568359375,20.80078125 6.4013671875,20.185546875 3.0615234375,17.9296875 0.8203125,14.58984375 0.205078125,12.6123065948486 0,10.48828125 0.205078125,8.382568359375 0.8203125,6.4013671875 3.0615234375,3.0615234375 6.4013671875,0.8203125 8.382568359375,0.205078125 10.48828125,0z" />
    </g>
  </g>
</svg>