<?xml version="1.0" encoding="utf-8"?>
<!DOCTYPE svg PUBLIC "-//W3C//DTD SVG 1.1//EN" "http://www.w3.org/Graphics/SVG/1.1/DTD/svg11.dtd">
<svg width="42.01171875" height="38.349609375" xmlns="http://www.w3.org/2000/svg" xmlns:xlink="http://www.w3.org/1999/xlink" xmlns:xml="http://www.w3.org/XML/1998/namespace" version="1.1">
  <g>
    <g>
      <path style="fill:#FF0000;fill-opacity:1" d="M14.384765625,9.31640625L17.464599609375,9.56909370422363 20.2587890625,10.3271484375 22.7160625457764,11.5539569854736 24.78515625,13.212890625 26.4477519989014,15.28564453125 27.685546875,17.75390625 28.4545879364014,20.58837890625 28.7109375,23.759765625 28.7109375,33.427734375 42.01171875,33.427734375 42.01171875,38.349609375 23.7890625,38.349609375 23.7890625,23.759765625 23.1005859375,19.62890625 21.1669921875,16.640625 18.1787109375,14.8388671875 14.326171875,14.23828125 10.48828125,14.8388671875 7.5146484375,16.640625 5.595703125,19.62890625 4.921875,23.759765625 4.921875,38.349609375 0,38.349609375 0,23.759765625 0.2783203125,20.6103515625 1.11328125,17.783203125 2.431640625,15.311279296875 4.16015625,13.2275390625 6.265869140625,11.5576190948486 8.7158203125,10.3271484375 11.4440908432007,9.56909370422363 14.384765625,9.31640625z M14.384765625,0L15.6591796875,0.263671875 16.69921875,0.966796875 17.40234375,2.0068359375 17.666015625,3.28125 17.40234375,4.5556640625 16.69921875,5.595703125 15.6591796875,6.298828125 14.384765625,6.5625 13.1103515625,6.298828125 12.0703125,5.595703125 11.3671875,4.5556640625 11.103515625,3.28125 11.3671875,2.0068359375 12.0703125,0.966796875 13.1103515625,0.263671875 14.384765625,0z" />
    </g>
  </g>
</svg>