<?xml version="1.0" encoding="utf-8"?>
<!DOCTYPE svg PUBLIC "-//W3C//DTD SVG 1.1//EN" "http://www.w3.org/Graphics/SVG/1.1/DTD/svg11.dtd">
<svg width="37.3242187500001" height="54.43359375" xmlns="http://www.w3.org/2000/svg" xmlns:xlink="http://www.w3.org/1999/xlink" xmlns:xml="http://www.w3.org/XML/1998/namespace" version="1.1">
  <g>
    <g>
      <path style="fill:#FF0000;fill-opacity:1" d="M25.48828125,35.771484375L22.998046875,36.298828125 20.80078125,37.7490234375 19.248046875,39.931640625 18.662109375,42.626953125 19.248046875,45.4248046875 20.7861328125,47.607421875 22.96875,49.013671875 25.48828125,49.51171875 28.0810546875,49.013671875 30.29296875,47.607421875 31.8310546875,45.4248046875 32.40234375,42.626953125 32.40234375,35.771484375 25.48828125,35.771484375z M18.662109375,12.421875L23.3276348114014,12.835693359375 27.24609375,14.0771484375 30.465087890625,16.029052734375 33.0322265625,18.57421875 34.969482421875,21.654052734375 36.298828125,25.2099609375 37.06787109375,29.1174335479736 37.32421875,33.251953125 37.32421875,42.626953125 37.078857421875,45.032958984375 36.3427734375,47.2705078125 33.720703125,51.0205078125 29.9560546875,53.525390625 27.7917461395264,54.20654296875 25.546875,54.43359375 23.2763652801514,54.20654296875 21.09375,53.525390625 17.3291015625,51.03515625 14.7216796875,47.2998046875 13.985595703125,45.054931640625 13.740234375,42.626953125 13.985595703125,40.177001953125 14.7216796875,37.9248046875 17.3291015625,34.2041015625 21.09375,31.7431640625 23.2763652801514,31.072998046875 25.546875,30.849609375 32.28515625,30.849609375 31.11328125,25.517578125 28.6669921875,21.181640625 26.8579082489014,19.53369140625 24.6240234375,18.28125 21.9103984832764,17.490234375 18.662109375,17.2265625 15.1025390625,17.545166015625 12.158203125,18.5009765625 9.77783107757568,20.006103515625 7.91015625,21.97265625 6.529541015625,24.3493671417236 5.6103515625,27.0849609375 4.921875,33.251953125 4.921875,54.43359375 0,54.43359375 0,33.251953125 0.260009616613388,29.1174335479736 1.04003930091858,25.2099609375 2.38037085533142,21.654052734375 4.3212890625,18.57421875 6.888427734375,16.029052734375 10.107421875,14.0771484375 14.0185546875,12.835693359375 18.662109375,12.421875z M18.662109375,0L19.9365234375,0.263672113418579 20.9765625,0.966797113418579 21.6796875,2.00683617591858 21.943359375,3.28125023841858 21.6796875,4.55566453933716 20.9765625,5.59570360183716 19.9365234375,6.29882764816284 18.662109375,6.5625 17.3876953125,6.29882764816284 16.34765625,5.59570360183716 15.64453125,4.55566453933716 15.380859375,3.28125023841858 15.64453125,2.00683617591858 16.34765625,0.966797113418579 17.3876953125,0.263672113418579 18.662109375,0z" />
    </g>
  </g>
</svg>