<?xml version="1.0" encoding="utf-8"?>
<!DOCTYPE svg PUBLIC "-//W3C//DTD SVG 1.1//EN" "http://www.w3.org/Graphics/SVG/1.1/DTD/svg11.dtd">
<svg width="28.857421875" height="42.01171875" xmlns="http://www.w3.org/2000/svg" xmlns:xlink="http://www.w3.org/1999/xlink" xmlns:xml="http://www.w3.org/XML/1998/namespace" version="1.1">
  <g>
    <g>
      <path style="fill:#FF0000;fill-opacity:1" d="M0,0L4.92187595367432,0 12.71484375,4.8046875 12.71484375,15.322265625 13.0517578125,17.490234375 14.091796875,19.2919921875 15.849609375,20.537109375 18.33984375,21.005859375 20.8447265625,20.537109375 22.6171875,19.2919921875 23.6572265625,17.490234375 23.994140625,15.322265625 23.994140625,4.8046875 28.857421875,4.8046875 28.857421875,15.322265625 28.6523418426514,17.4279804229736 28.037109375,19.4091796875 25.78125,22.7490234375 22.44140625,24.990234375 20.4638671875,25.60546875 18.33984375,25.810546875 16.234130859375,25.60546875 14.2529296875,24.990234375 10.9130859375,22.7490234375 8.671875,19.4091796875 8.056640625,17.4279804229736 7.8515625,15.322265625 7.8515625,7.529296875 4.92187595367432,5.478515625 4.92187595367432,42.01171875 0,42.01171875 0,0z" />
    </g>
  </g>
</svg>