<?xml version="1.0" encoding="utf-8"?>
<!DOCTYPE svg PUBLIC "-//W3C//DTD SVG 1.1//EN" "http://www.w3.org/Graphics/SVG/1.1/DTD/svg11.dtd">
<svg width="28.857421875" height="42.01171875" xmlns="http://www.w3.org/2000/svg" xmlns:xlink="http://www.w3.org/1999/xlink" xmlns:xml="http://www.w3.org/XML/1998/namespace" version="1.1">
  <g>
    <g>
      <path style="fill:#FF0000;fill-opacity:1" d="M0,0L4.86328125,0 4.86328125,10.517578125 5.2001953125,12.685546875 6.240234375,14.4873046875 8.0126953125,15.732421875 10.517578125,16.201171875 13.0078125,15.732421875 14.765625,14.4873046875 15.8056640625,12.685546875 16.142578125,10.517578125 16.142578125,0 28.857421875,0 28.857421875,42.01171875 23.935546875,42.01171875 23.935546875,4.8046875 21.005859375,4.8046875 21.005859375,10.517578125 20.80078125,12.6232929229736 20.185546875,14.6044921875 17.9443359375,17.9443359375 14.6044921875,20.185546875 12.623291015625,20.80078125 10.517578125,21.005859375 8.3935546875,20.80078125 6.416015625,20.185546875 3.07617211341858,17.9443359375 0.820312976837158,14.6044921875 0.205078363418579,12.6232929229736 0,10.517578125 0,0z" />
    </g>
  </g>
</svg>