<?xml version="1.0" encoding="utf-8"?>
<!DOCTYPE svg PUBLIC "-//W3C//DTD SVG 1.1//EN" "http://www.w3.org/Graphics/SVG/1.1/DTD/svg11.dtd">
<svg width="28.857421875" height="42.01171875" xmlns="http://www.w3.org/2000/svg" xmlns:xlink="http://www.w3.org/1999/xlink" xmlns:xml="http://www.w3.org/XML/1998/namespace" version="1.1">
  <g>
    <g>
      <path style="fill:#FF0000;fill-opacity:1" d="M23.935546875,0L28.857421875,0 28.857421875,42.01171875 23.935546875,42.01171875 16.142578125,37.20703125 16.142578125,26.689453125 15.8056640625,24.521484375 14.765625,22.7197265625 13.0078125,21.474609375 10.517578125,21.005859375 8.0126953125,21.474609375 6.240234375,22.7197265625 5.2001953125,24.521484375 4.86328125,26.689453125 4.86328125,37.20703125 0,37.20703125 0,26.689453125 0.205078363418579,24.583740234375 0.820312976837158,22.6025390625 3.07617211341858,19.2626953125 6.416015625,17.021484375 8.3935546875,16.4062519073486 10.517578125,16.201171875 12.623291015625,16.4062519073486 14.6044921875,17.021484375 17.9443359375,19.2626953125 20.185546875,22.6025390625 20.80078125,24.583740234375 21.005859375,26.689453125 21.005859375,34.482421875 23.935546875,36.533203125 23.935546875,0z" />
    </g>
  </g>
</svg>