<?xml version="1.0" encoding="utf-8"?>
<!DOCTYPE svg PUBLIC "-//W3C//DTD SVG 1.1//EN" "http://www.w3.org/Graphics/SVG/1.1/DTD/svg11.dtd">
<svg width="21.005859375" height="19.62890625" xmlns="http://www.w3.org/2000/svg" xmlns:xlink="http://www.w3.org/1999/xlink" xmlns:xml="http://www.w3.org/XML/1998/namespace" version="1.1">
  <g>
    <g>
      <path style="fill:#FF0000;fill-opacity:1" d="M6.474609375,10.3125L5.4052734375,10.517578125 4.4970703125,11.103515625 3.8671875,11.9970703125 3.6328125,13.125 3.896484375,14.5166015625 4.5849609375,15.3955078125 5.5078125,15.8642578125 6.474609375,15.99609375 9.31640625,15.99609375 9.31640625,13.125 9.08203125,11.9970703125 8.4521484375,11.103515625 7.5439453125,10.517578125 6.474609375,10.3125z M6.474609375,6.6796875L8.994140625,7.1923828125 11.044921875,8.583984375 12.4365234375,10.634765625 12.94921875,13.154296875 12.94921875,15.99609375 21.005859375,15.99609375 21.005859375,19.62890625 6.474609375,19.62890625 3.955078125,19.1162109375 1.904296875,17.724609375 0.5126953125,15.673828125 0,13.154296875 0.5126953125,10.634765625 1.904296875,8.583984375 3.955078125,7.1923828125 6.474609375,6.6796875z M3.6328125,0L21.005859375,0 21.005859375,3.6328125 3.6328125,3.6328125 3.6328125,0z" />
    </g>
  </g>
</svg>