<?xml version="1.0" encoding="utf-8"?>
<!DOCTYPE svg PUBLIC "-//W3C//DTD SVG 1.1//EN" "http://www.w3.org/Graphics/SVG/1.1/DTD/svg11.dtd">
<svg width="42.041015625" height="42.01171875" xmlns="http://www.w3.org/2000/svg" xmlns:xlink="http://www.w3.org/1999/xlink" xmlns:xml="http://www.w3.org/XML/1998/namespace" version="1.1">
  <g>
    <g>
      <path style="fill:#FF0000;fill-opacity:1" d="M5.830078125,4.8046875L5.14892578125,8.86962985992432 4.92187452316284,13.212890625 5.3466796875,19.2919921875 6.62109375,24.931640625 8.7890625,29.853515625 11.89453125,33.7353515625 15.966796875,36.2841796875 18.37646484375,36.976318359375 21.03515625,37.20703125 23.6938457489014,36.976318359375 26.103515625,36.2841796875 30.17578125,33.7353515625 33.2666015625,29.8681640625 35.4345703125,24.9755859375 36.708984375,19.3505859375 37.119140625,13.30078125 36.8994140625,8.8916015625 36.2109375,4.8046875 5.830078125,4.8046875z M1.904296875,0L40.13671875,0 41.4990234375,6.3134765625 42.041015625,13.30078125 41.4990234375,20.80078125 39.8291015625,27.626953125 36.9873046875,33.45703125 32.9443359375,37.998046875 30.450439453125,39.68994140625 27.626953125,40.95703125 24.4775371551514,41.748046875 21.005859375,42.01171875 17.537841796875,41.748046875 14.3994140625,40.95703125 11.5869131088257,39.68994140625 9.0966796875,37.998046875 5.05371046066284,33.45703125 2.2119140625,27.626953125 0.541992425918579,20.80078125 0,13.30078125 0.541992425918579,6.3134765625 1.904296875,0z" />
    </g>
  </g>
</svg>