<?xml version="1.0" encoding="utf-8"?>
<!DOCTYPE svg PUBLIC "-//W3C//DTD SVG 1.1//EN" "http://www.w3.org/Graphics/SVG/1.1/DTD/svg11.dtd">
<svg width="42.01171875" height="38.61328125" xmlns="http://www.w3.org/2000/svg" xmlns:xlink="http://www.w3.org/1999/xlink" xmlns:xml="http://www.w3.org/XML/1998/namespace" version="1.1">
  <g>
    <g>
      <path style="fill:#FF0000;fill-opacity:1" d="M29.384765625,0L42.01171875,12.685546875 42.01171875,17.607421875 12.978515625,17.607421875 9.7705078125,18.251953125 7.2216796875,19.9951171875 5.537109375,22.55859375 4.921875,25.693359375 5.537109375,28.828125 7.2216796875,31.376953125 9.7705078125,33.076171875 12.978515625,33.69140625 15.64453125,33.69140625 15.64453125,38.61328125 12.978515625,38.61328125 10.3674306869507,38.35693359375 7.9248046875,37.587890625 3.80859375,34.8046875 1.025390625,30.6884765625 0.25634765625,28.245849609375 0,25.634765625 0.25634765625,23.045654296875 1.025390625,20.6103515625 3.80859375,16.494140625 7.9248046875,13.7109375 10.3674306869507,12.9418964385986 12.978515625,12.685546875 35.068359375,12.685546875 25.927734375,3.486328125 29.384765625,0z" />
    </g>
  </g>
</svg>