<?xml version="1.0" encoding="utf-8"?>
<!DOCTYPE svg PUBLIC "-//W3C//DTD SVG 1.1//EN" "http://www.w3.org/Graphics/SVG/1.1/DTD/svg11.dtd">
<svg width="44.150390625" height="21.005859375" xmlns="http://www.w3.org/2000/svg" xmlns:xlink="http://www.w3.org/1999/xlink" xmlns:xml="http://www.w3.org/XML/1998/namespace" version="1.1">
  <g>
    <g>
      <path style="fill:#FF0000;fill-opacity:1" d="M23.056640625,3.6328125L21.9873046875,3.837890625 21.0791015625,4.423828125 20.44921875,5.3173828125 20.21484375,6.4453125 20.478515625,7.8369140625 21.1669921875,8.7158203125 22.08984375,9.1845703125 23.056640625,9.31640625 25.8984375,9.31640625 25.8984375,6.4453125 25.6640625,5.3173828125 25.0341796875,4.423828125 24.1259765625,3.837890625 23.056640625,3.6328125z M6.474609375,3.6328125L5.4052734375,3.837890625 4.49706983566284,4.423828125 3.8671875,5.3173828125 3.6328125,6.4453125 3.896484375,7.8369140625 4.5849609375,8.7158203125 5.5078125,9.1845703125 6.474609375,9.31640625 9.31640625,9.31640625 9.31640625,6.4453125 9.08203125,5.3173828125 8.4521484375,4.423828125 7.5439453125,3.837890625 6.474609375,3.6328125z M6.474609375,0L8.994140625,0.5126953125 11.044921875,1.904296875 12.4365234375,3.955078125 12.94921875,6.474609375 12.94921875,9.31640625 17.2265625,9.31640625 16.58203125,6.474609375 17.0947265625,3.955078125 18.486328125,1.904296875 20.537109375,0.5126953125 23.056640625,0 25.576171875,0.5126953125 27.626953125,1.904296875 29.0185546875,3.955078125 29.53125,6.474609375 29.53125,9.31640625 34.833984375,9.31640625 34.833984375,14.53125 34.9658203125,15.498046875 35.4345703125,16.4208984375 36.3134765625,17.109375 37.705078125,17.373046875 38.8330078125,17.138671875 39.7265625,16.5087890625 40.3125,15.6005859375 40.517578125,14.53125 44.150390625,14.53125 43.6376953125,17.05078125 42.24609375,19.1015625 40.1953125,20.4931640625 37.67578125,21.005859375 35.15625,20.4931640625 33.10546875,19.1015625 31.7138671875,17.05078125 31.201171875,14.53125 31.201171875,12.94921875 6.474609375,12.94921875 3.955078125,12.4365234375 1.904296875,11.044921875 0.5126953125,8.994140625 0,6.474609375 0.5126953125,3.955078125 1.904296875,1.904296875 3.955078125,0.5126953125 6.474609375,0z" />
    </g>
  </g>
</svg>