<?xml version="1.0" encoding="utf-8"?>
<!DOCTYPE svg PUBLIC "-//W3C//DTD SVG 1.1//EN" "http://www.w3.org/Graphics/SVG/1.1/DTD/svg11.dtd">
<svg width="56.42578125" height="57.36328125" xmlns="http://www.w3.org/2000/svg" xmlns:xlink="http://www.w3.org/1999/xlink" xmlns:xml="http://www.w3.org/XML/1998/namespace" version="1.1">
  <g>
    <g>
      <path style="fill:#FF0000;fill-opacity:1" d="M6.474609375,18.984375L5.4052734375,19.189453125 4.4970703125,19.775390625 3.8671875,20.6689453125 3.63281297683716,21.796875 3.89648389816284,23.1884765625 4.5849609375,24.0673828125 5.5078125,24.5361328125 6.474609375,24.66796875 9.31640625,24.66796875 9.31640625,21.796875 9.08203125,20.6689453125 8.4521484375,19.775390625 7.5439453125,19.189453125 6.474609375,18.984375z M43.447265625,15.3515625L46.0400352478027,15.60791015625 48.486328125,16.376953125 52.6171875,19.16015625 55.400390625,23.291015625 56.1694297790527,25.7373046875 56.42578125,28.330078125 56.42578125,30.99609375 51.50390625,30.99609375 51.50390625,28.330078125 50.888671875,25.1220703125 49.189453125,22.5732421875 46.640625,20.888671875 43.505859375,20.2734375 40.37109375,20.888671875 37.8076171875,22.5732421875 36.064453125,25.1220703125 35.419921875,28.330078125 35.419921875,57.36328125 30.498046875,57.36328125 30.498046875,28.330078125 30.750732421875,25.7373046875 31.5087890625,23.291015625 34.27734375,19.16015625 38.3935546875,16.376953125 40.836181640625,15.60791015625 43.447265625,15.3515625z M6.474609375,15.3515625L8.994140625,15.8642578125 11.044921875,17.255859375 12.4365234375,19.306640625 12.94921875,21.826171875 12.94921875,24.66796875 18.251953125,24.66796875 18.251953125,29.8828125 18.3837890625,30.849609375 18.8525390625,31.7724609375 19.7314453125,32.4609375 21.123046875,32.724609375 22.2509765625,32.490234375 23.14453125,31.8603515625 23.73046875,30.9521484375 23.935546875,29.8828125 27.568359375,29.8828125 27.0556640625,32.40234375 25.6640625,34.453125 23.61328125,35.8447265625 21.09375,36.357421875 18.57421875,35.8447265625 16.5234375,34.453125 15.1318359375,32.40234375 14.619140625,29.8828125 14.619140625,28.30078125 6.474609375,28.30078125 3.95507860183716,27.7880859375 1.90429639816284,26.396484375 0.512695074081421,24.345703125 0,21.826171875 0.512695074081421,19.306640625 1.90429639816284,17.255859375 3.95507860183716,15.8642578125 6.474609375,15.3515625z M43.4765625,2.9296875L42.2021484375,3.19335961341858 41.162109375,3.89648413658142 40.458984375,4.9365234375 40.1953125,6.2109375 40.458984375,7.48535203933716 41.162109375,8.525390625 42.2021484375,9.228515625 43.4765625,9.4921875 44.7509765625,9.228515625 45.791015625,8.525390625 46.494140625,7.48535203933716 46.7578125,6.2109375 46.494140625,4.9365234375 45.791015625,3.89648413658142 44.7509765625,3.19335961341858 43.4765625,2.9296875z M43.447265625,0L45.8349609375,0.4833984375 47.8271484375,1.80175828933716 49.189453125,3.74999976158142 49.6875,6.12304735183716 49.189453125,8.525390625 47.8271484375,10.5322265625 45.8349609375,11.9091796875 43.447265625,12.421875 41.0595703125,11.9091796875 39.0966796875,10.5322265625 37.763671875,8.525390625 37.265625,6.12304735183716 37.763671875,3.74999976158142 39.0966796875,1.80175828933716 41.0595703125,0.4833984375 43.447265625,0z" />
    </g>
  </g>
</svg>