<?xml version="1.0" encoding="utf-8"?>
<!DOCTYPE svg PUBLIC "-//W3C//DTD SVG 1.1//EN" "http://www.w3.org/Graphics/SVG/1.1/DTD/svg11.dtd">
<svg width="27.12890625" height="54.43359375" xmlns="http://www.w3.org/2000/svg" xmlns:xlink="http://www.w3.org/1999/xlink" xmlns:xml="http://www.w3.org/XML/1998/namespace" version="1.1">
  <g>
    <g>
      <path style="fill:#FF0000;fill-opacity:1" d="M3.66210913658142,12.421875L8.583984375,12.421875 8.583984375,20.185546875 19.658203125,20.185546875 19.658203125,24.990234375 8.583984375,24.990234375 8.583984375,28.623046875 27.12890625,28.623046875 27.12890625,28.916015625 10.048828125,54.43359375 6.123046875,51.650390625 18.193359375,33.427734375 3.66210913658142,33.427734375 3.66210913658142,24.990234375 0,24.990234375 0,20.185546875 3.66210913658142,20.185546875 3.66210913658142,12.421875z M6.123046875,0L7.3974609375,0.263672113418579 8.4375,0.966797113418579 9.140625,2.00683617591858 9.404296875,3.28125023841858 9.140625,4.55566453933716 8.4375,5.59570360183716 7.3974609375,6.29882764816284 6.123046875,6.5625 4.84863376617432,6.29882764816284 3.80859446525574,5.59570360183716 3.10546898841858,4.55566453933716 2.84179711341858,3.28125023841858 3.10546898841858,2.00683617591858 3.80859446525574,0.966797113418579 4.84863376617432,0.263672113418579 6.123046875,0z" />
    </g>
  </g>
</svg>