<?xml version="1.0" encoding="utf-8"?>
<!DOCTYPE svg PUBLIC "-//W3C//DTD SVG 1.1//EN" "http://www.w3.org/Graphics/SVG/1.1/DTD/svg11.dtd">
<svg width="27.3925781250002" height="42.01171875" xmlns="http://www.w3.org/2000/svg" xmlns:xlink="http://www.w3.org/1999/xlink" xmlns:xml="http://www.w3.org/XML/1998/namespace" version="1.1">
  <g>
    <g>
      <path style="fill:#FF0000;fill-opacity:1" d="M13.7109375,0L16.512451171875,0.252685546875 19.1162109375,1.0107421875 21.4526348114014,2.21923828125 23.4521484375,3.8232421875 25.0891094207764,5.797119140625 26.337890625,8.115234375 27.1289043426514,10.7226572036743 27.392578125,13.564453125 27.392578125,42.01171875 22.470703125,42.01171875 22.470703125,13.564453125 21.7822265625,9.990234375 19.892578125,7.265625 17.0947265625,5.537109375 13.65234375,4.921875 10.1513671875,5.6103515625 7.3974609375,7.5146484375 5.5810546875,10.400390625 4.921875,14.00390625 5.3759765625,16.9482421875 6.6064453125,19.1455078125 8.408203125,20.5224609375 10.576171875,21.005859375 11.9750967025757,20.79345703125 13.0078125,20.15625 13.64501953125,19.19677734375 13.857421875,18.017578125 13.59375,17.0361328125 12.8759765625,16.171875 11.8212890625,15.556640625 10.546875,15.322265625 10.546875,10.400390625 14.0625,11.0888671875 16.669921875,12.861328125 18.251953125,15.3076171875 18.779296875,18.017578125 18.28125,20.9912109375 16.7724609375,23.5107421875 14.208984375,25.2685546875 10.546875,25.927734375 8.3056640625,25.704345703125 6.26953125,25.0341796875 2.94433569908142,22.5439453125 0.776366710662842,18.7646484375 0.194091558456421,16.4831562042236 0,14.00390625 0.263671666383743,11.1438007354736 1.05468726158142,8.4814453125 2.30712866783142,6.08642578125 3.95507788658142,4.0283203125 5.965576171875,2.34375 8.3056640625,1.0693359375 10.9094228744507,0.267333984375 13.7109375,0z" />
    </g>
  </g>
</svg>