<?xml version="1.0" encoding="utf-8"?>
<!DOCTYPE svg PUBLIC "-//W3C//DTD SVG 1.1//EN" "http://www.w3.org/Graphics/SVG/1.1/DTD/svg11.dtd">
<svg width="43.1542968750002" height="54.43359375" xmlns="http://www.w3.org/2000/svg" xmlns:xlink="http://www.w3.org/1999/xlink" xmlns:xml="http://www.w3.org/XML/1998/namespace" version="1.1">
  <g>
    <g>
      <path style="fill:#FF0000;fill-opacity:1" d="M30.234375,17.34375L27.099609375,17.958984375 24.5361328125,19.6435546875 22.79296875,22.1923828125 22.1484375,25.400390625 22.1484375,33.427734375 30.234375,33.427734375 33.369140625,32.8125 35.91796875,31.11328125 37.6171875,28.564453125 38.232421875,25.400390625 37.6171875,22.1923828125 35.91796875,19.6435546875 33.369140625,17.958984375 30.234375,17.34375z M30.17578125,12.421875L32.7685546875,12.67822265625 35.21484375,13.447265625 39.345703125,16.23046875 42.12890625,20.361328125 42.89794921875,22.8076171875 43.154296875,25.400390625 42.89794921875,28.0114765167236 42.12890625,30.4541015625 39.345703125,34.5703125 35.21484375,37.3388671875 32.7685546875,38.096923828125 30.17578125,38.349609375 22.1484375,38.349609375 22.1484375,54.43359375 17.2265625,54.43359375 17.2265625,25.400390625 17.479248046875,22.8076171875 18.2373046875,20.361328125 21.005859375,16.23046875 25.1220703125,13.447265625 27.5646953582764,12.67822265625 30.17578125,12.421875z M8.173828125,12.421875L14.296875,12.421875 14.296875,16.0546875 8.115234375,16.0546875 6.5625,16.259765625 5.126953125,16.8896484375 4.0576171875,17.9296875 3.63281226158142,19.599609375 4.04296875,21.3134765625 5.1123046875,22.3681640625 6.5625,22.9248046875 8.115234375,23.0859375 14.296875,23.0859375 14.296875,33.427734375 10.6640625,33.427734375 10.6640625,26.71875 8.173828125,26.71875 4.68749904632568,26.2353515625 2.12402319908142,24.814453125 0.541991949081421,22.55859375 0,19.62890625 0.541991949081421,16.787109375 2.12402319908142,14.501953125 4.68749904632568,12.978515625 8.173828125,12.421875z M30.17578125,0L31.4501953125,0.263672113418579 32.490234375,0.966797113418579 33.193359375,2.00683617591858 33.45703125,3.28125023841858 33.193359375,4.55566453933716 32.490234375,5.59570360183716 31.4501953125,6.29882764816284 30.17578125,6.5625 28.9013671875,6.29882764816284 27.861328125,5.59570360183716 27.158203125,4.55566453933716 26.89453125,3.28125023841858 27.158203125,2.00683617591858 27.861328125,0.966797113418579 28.9013671875,0.263672113418579 30.17578125,0z" />
    </g>
  </g>
</svg>