<?xml version="1.0" encoding="utf-8"?>
<!DOCTYPE svg PUBLIC "-//W3C//DTD SVG 1.1//EN" "http://www.w3.org/Graphics/SVG/1.1/DTD/svg11.dtd">
<svg width="43.1542968750002" height="54.43359375" xmlns="http://www.w3.org/2000/svg" xmlns:xlink="http://www.w3.org/1999/xlink" xmlns:xml="http://www.w3.org/XML/1998/namespace" version="1.1">
  <g>
    <g>
      <path style="fill:#FF0000;fill-opacity:1" d="M22.1484375,33.427734375L22.1484375,41.455078125 22.79296875,44.6630859375 24.5361328125,47.2119140625 27.099609375,48.896484375 30.234375,49.51171875 33.369140625,48.896484375 35.91796875,47.2119140625 37.6171875,44.6630859375 38.232421875,41.455078125 37.6171875,38.291015625 35.91796875,35.7421875 33.369140625,34.04296875 30.234375,33.427734375 22.1484375,33.427734375z M17.2265625,12.421875L22.1484375,12.421875 22.1484375,28.505859375 30.17578125,28.505859375 32.7685546875,28.7622089385986 35.21484375,29.53125 39.345703125,32.314453125 42.12890625,36.4306640625 42.89794921875,38.865966796875 43.154296875,41.455078125 42.89794921875,44.066162109375 42.12890625,46.5087890625 39.345703125,50.625 35.21484375,53.408203125 32.7685546875,54.17724609375 30.17578125,54.43359375 27.5646953582764,54.17724609375 25.1220703125,53.408203125 21.005859375,50.625 18.2373046875,46.5087890625 17.479248046875,44.066162109375 17.2265625,41.455078125 17.2265625,12.421875z M8.173828125,12.421875L14.296875,12.421875 14.296875,16.0546875 8.115234375,16.0546875 6.5625,16.259765625 5.126953125,16.8896484375 4.0576171875,17.9296875 3.63281226158142,19.599609375 4.04296875,21.3134765625 5.1123046875,22.3681640625 6.5625,22.9248046875 8.115234375,23.0859375 14.296875,23.0859375 14.296875,33.427734375 10.6640625,33.427734375 10.6640625,26.71875 8.173828125,26.71875 4.68749904632568,26.2353515625 2.12402319908142,24.814453125 0.541991949081421,22.55859375 0,19.62890625 0.541991949081421,16.787109375 2.12402319908142,14.501953125 4.68749904632568,12.978515625 8.173828125,12.421875z M19.6875,0L20.9619140625,0.263672113418579 22.001953125,0.966797113418579 22.705078125,2.00683617591858 22.96875,3.28125023841858 22.705078125,4.55566453933716 22.001953125,5.59570360183716 20.9619140625,6.29882764816284 19.6875,6.5625 18.4130859375,6.29882764816284 17.373046875,5.59570360183716 16.669921875,4.55566453933716 16.40625,3.28125023841858 16.669921875,2.00683617591858 17.373046875,0.966797113418579 18.4130859375,0.263672113418579 19.6875,0z" />
    </g>
  </g>
</svg>