<?xml version="1.0" encoding="utf-8"?>
<!DOCTYPE svg PUBLIC "-//W3C//DTD SVG 1.1//EN" "http://www.w3.org/Graphics/SVG/1.1/DTD/svg11.dtd">
<svg width="42.01171875" height="29.296875" xmlns="http://www.w3.org/2000/svg" xmlns:xlink="http://www.w3.org/1999/xlink" xmlns:xml="http://www.w3.org/XML/1998/namespace" version="1.1">
  <g>
    <g>
      <path style="fill:#FF0000;fill-opacity:1" d="M3.486328125,0L8.203125,4.6875 11.4587392807007,2.69165182113647 15.1318359375,1.2158203125 19.178466796875,0.303956508636475 23.5546875,0 28.077392578125,0.358888149261475 31.9189453125,1.435546875 35.10498046875,3.09082174301147 37.6611328125,5.185546875 39.605712890625,7.642822265625 40.95703125,10.3857421875 41.748046875,13.275146484375 42.01171875,16.171875 41.810302734375,18.720703125 41.2060546875,21.15234375 38.8623046875,25.341796875 35.1123046875,28.2275390625 32.742919921875,29.029541015625 30.05859375,29.296875 26.162109375,28.6669921875 22.9248046875,26.7626953125 20.712890625,23.5693359375 20.09765625,21.485595703125 19.892578125,19.072265625 20.185546875,16.7138671875 20.830078125,14.912109375 21.796875,13.388671875 25.869140625,15.673828125 25.341796875,16.611328125 24.9755859375,17.666015625 24.814453125,19.04296875 25.1806640625,21.1669921875 26.2353515625,22.8515625 27.890625,23.96484375 30.05859375,24.375 33.134765625,23.6572265625 35.33203125,21.7822265625 36.650390625,19.16015625 37.08984375,16.23046875 36.826171875,13.6962890625 35.947265625,11.1328125 34.306640625,8.7451171875 31.787109375,6.767578125 28.2568359375,5.419921875 23.5546875,4.921875 19.87060546875,5.20752096176147 16.376953125,6.064453125 13.18359375,7.44873046875 10.400390625,9.31640625 8.089599609375,11.65283203125 6.3134765625,14.443359375 5.181884765625,17.64404296875 4.8046875,21.2109375 5.0537109375,24.3896484375 5.625,26.953125 6.4453125,29.296875 1.14257764816284,29.296875 0.556640625,27.216796875 0.1611328125,24.697265625 0,21.26953125 0.30029296875,17.51953125 1.201171875,14.0625 2.6513671875,10.9130859375 4.599609375,8.0859375 0,3.486328125 3.486328125,0z" />
    </g>
  </g>
</svg>