<?xml version="1.0" encoding="utf-8"?>
<!DOCTYPE svg PUBLIC "-//W3C//DTD SVG 1.1//EN" "http://www.w3.org/Graphics/SVG/1.1/DTD/svg11.dtd">
<svg width="32.548828125" height="42.01171875" xmlns="http://www.w3.org/2000/svg" xmlns:xlink="http://www.w3.org/1999/xlink" xmlns:xml="http://www.w3.org/XML/1998/namespace" version="1.1">
  <g>
    <g>
      <path style="fill:#FF0000;fill-opacity:1" d="M20.33203125,0L32.548828125,0 32.548828125,4.8046875 29.033203125,4.8046875 29.033203125,12.94921875 14.443359375,12.94921875 10.3125,13.4912109375 7.32421875,15.1904296875 5.5224609375,18.1640625 5.072021484375,20.1708984375 4.921875,22.55859375 5.072021484375,24.9462890625 5.5224609375,26.953125 7.32421875,29.9267578125 10.3125,31.6259765625 14.443359375,32.16796875 29.033203125,32.16796875 29.033203125,42.01171875 24.111328125,42.01171875 24.111328125,37.08984375 14.443359375,37.08984375 11.2719717025757,36.859130859375 8.4375,36.1669921875 5.96923828125,35.01708984375 3.896484375,33.4130859375 2.237548828125,31.3623046875 1.01074242591858,28.8720703125 0.252685576677322,25.938720703125 0,22.55859375 0.252685576677322,19.178466796875 1.01074242591858,16.2451171875 2.237548828125,13.7548847198486 3.896484375,11.7041015625 5.96923828125,10.1000986099243 8.4375,8.9501953125 11.2719717025757,8.258056640625 14.443359375,8.02734375 24.111328125,8.02734375 24.111328125,4.8046875 20.33203125,4.8046875 20.33203125,0z" />
    </g>
  </g>
</svg>