<?xml version="1.0" encoding="utf-8"?>
<!DOCTYPE svg PUBLIC "-//W3C//DTD SVG 1.1//EN" "http://www.w3.org/Graphics/SVG/1.1/DTD/svg11.dtd">
<svg width="32.40234375" height="42.01171875" xmlns="http://www.w3.org/2000/svg" xmlns:xlink="http://www.w3.org/1999/xlink" xmlns:xml="http://www.w3.org/XML/1998/namespace" version="1.1">
  <g>
    <g>
      <path style="fill:#FF0000;fill-opacity:1" d="M20.2734375,4.921875L17.54150390625,5.15625 14.794921875,5.859375 12.1728506088257,7.056884765625 9.814453125,8.7744140625 7.796630859375,11.0156269073486 6.1962890625,13.7841796875 5.152587890625,17.1057147979736 4.8046875,21.005859375 5.44921875,26.07421875 7.20703125,30.146484375 9.8291015625,33.2373046875 13.06640625,35.4052734375 16.6552734375,36.6796875 20.361328125,37.08984375 22.646484375,37.001953125 22.646484375,5.0390625 21.474609375,4.951171875 20.2734375,4.921875z M20.2734375,0L23.6572265625,0.146484375 26.6748046875,0.5419921875 29.5166015625,1.142578125 32.40234375,1.904296875 32.40234375,7.001953125 30.2490234375,6.4453125 27.568359375,5.80078125 27.568359375,36.240234375 30.2490234375,35.5810546875 32.40234375,35.009765625 32.40234375,40.107421875 29.5166015625,40.869140625 26.6748046875,41.4697265625 23.6572265625,41.865234375 20.2734375,42.01171875 16.5087890625,41.7041015625 12.83203125,40.78125 9.39330959320068,39.2138671875 6.3427734375,36.97265625 3.76464796066284,34.046630859375 1.7431640625,30.4248046875 0.435791015625,26.077880859375 0,20.9765625 0.435791015625,15.8972187042236 1.7431640625,11.5576171875 3.76464796066284,7.939453125 6.3427734375,5.0244140625 9.39330959320068,2.794189453125 12.83203125,1.23046875 16.5087890625,0.3076171875 20.2734375,0z" />
    </g>
  </g>
</svg>