<?xml version="1.0" encoding="utf-8"?>
<!DOCTYPE svg PUBLIC "-//W3C//DTD SVG 1.1//EN" "http://www.w3.org/Graphics/SVG/1.1/DTD/svg11.dtd">
<svg width="47.51953125" height="42.01171875" xmlns="http://www.w3.org/2000/svg" xmlns:xlink="http://www.w3.org/1999/xlink" xmlns:xml="http://www.w3.org/XML/1998/namespace" version="1.1">
  <g>
    <g>
      <path style="fill:#FF0000;fill-opacity:1" d="M32.9296875,4.8046875L30.1318359375,5.44921875 28.2568359375,7.1484375 27.099609375,9.55078125 26.4990234375,12.3193359375 26.2646484375,15.1025390625 26.220703125,17.548828125 26.220703125,37.20703125 41.71875,37.20703125 42.030029296875,34.66552734375 42.3193359375,31.611328125 42.528076171875,28.05908203125 42.59765625,24.0234375 42.0263671875,16.669921875 41.30126953125,13.3959980010986 40.2685546875,10.546875 38.924560546875,8.18115234375 37.265625,6.357421875 35.2734375,5.19287109375 32.9296875,4.8046875z M14.58984375,4.8046875L12.2460927963257,5.19287109375 10.25390625,6.357421875 8.594970703125,8.18115234375 7.2509765625,10.546875 6.21826171875,13.3959980010986 5.4931640625,16.669921875 4.92187452316284,24.0234375 4.98779249191284,28.077392578125 5.185546875,31.6259765625 5.4638671875,34.669189453125 5.771484375,37.20703125 21.298828125,37.20703125 21.298828125,17.548828125 21.240234375,15.087890625 20.9619140625,12.2900390625 20.3173828125,9.521484375 19.1455078125,7.1337890625 17.28515625,5.44921875 14.58984375,4.8046875z M14.560546875,0L17.724609375,0.3955078125 20.2587890625,1.494140625 22.2509765625,3.1787109375 23.759765625,5.33203125 25.2685546875,3.1787109375 27.2607421875,1.494140625 29.794921875,0.3955078125 32.958984375,0 36.046142578125,0.3955078125 38.8623046875,1.58203125 41.3525390625,3.5302734375 43.4619140625,6.2109375 45.1684532165527,9.61670017242432 46.4501953125,13.740234375 47.2521934509277,18.55224609375 47.51953125,24.0234375 47.4426231384277,28.17626953125 47.2119140625,31.787109375 46.8933067321777,34.86328125 46.552734375,37.412109375 46.1132774353027,39.90966796875 45.615234375,42.01171875 1.90429639816284,42.01171875 1.38427734375,39.90966796875 0.937500238418579,37.412109375 0.600585758686066,34.86328125 0.292968511581421,31.787109375 0.0732421576976776,28.17626953125 0,24.0234375 0.267333954572678,18.55224609375 1.06933569908142,13.740234375 2.35107421875,9.61670017242432 4.0576171875,6.2109375 6.1669921875,3.5302734375 8.6572265625,1.58203125 11.4733877182007,0.3955078125 14.560546875,0z" />
    </g>
  </g>
</svg>