<?xml version="1.0" encoding="utf-8"?>
<!DOCTYPE svg PUBLIC "-//W3C//DTD SVG 1.1//EN" "http://www.w3.org/Graphics/SVG/1.1/DTD/svg11.dtd">
<svg width="42.01171875" height="29.296875" xmlns="http://www.w3.org/2000/svg" xmlns:xlink="http://www.w3.org/1999/xlink" xmlns:xml="http://www.w3.org/XML/1998/namespace" version="1.1">
  <g>
    <g>
      <path style="fill:#FF0000;fill-opacity:1" d="M3.486328125,0L8.203125,4.6875 11.4587392807007,2.69165182113647 15.1318359375,1.2158203125 19.178466796875,0.303956508636475 23.5546875,0 28.077392578125,0.358888149261475 31.9189453125,1.435546875 35.10498046875,3.09082174301147 37.6611328125,5.185546875 39.605712890625,7.642822265625 40.95703125,10.3857421875 41.748046875,13.275146484375 42.01171875,16.171875 41.79931640625,18.720703125 41.162109375,21.15234375 40.11474609375,23.38623046875 38.671875,25.341796875 34.6435546875,28.2275390625 32.083740234375,29.029541015625 29.1796875,29.296875 25.4296875,28.6962890625 22.5,26.982421875 20.5810546875,24.31640625 19.892578125,20.830078125 20.2001953125,18.779296875 21.09375,16.845703125 22.529296875,15.2197265625 24.462890625,14.0625 25.2392578125,12.9345703125 26.30859375,12.041015625 27.5537109375,11.455078125 28.88671875,11.25 30.791015625,11.6455078125 32.373046875,12.71484375 33.4423828125,14.296875 33.837890625,16.23046875 33.4423828125,18.1494140625 32.373046875,19.7314453125 30.791015625,20.8154296875 28.88671875,21.2109375 26.8505859375,20.771484375 25.224609375,19.5703125 24.90234375,20.21484375 24.814453125,20.80078125 25.0964336395264,22.181396484375 25.9423828125,23.3349609375 27.3156719207764,24.114990234375 29.1796875,24.375 32.75390625,23.6572265625 35.21484375,21.7822265625 36.6357421875,19.16015625 37.08984375,16.23046875 36.826171875,13.6962890625 35.947265625,11.1328125 34.306640625,8.7451171875 31.787109375,6.767578125 28.2568359375,5.419921875 23.5546875,4.921875 19.87060546875,5.20752096176147 16.376953125,6.064453125 13.18359375,7.44873046875 10.400390625,9.31640625 8.089599609375,11.65283203125 6.3134765625,14.443359375 5.181884765625,17.64404296875 4.8046875,21.2109375 5.0537109375,24.3896484375 5.625,26.953125 6.4453125,29.296875 1.14257764816284,29.296875 0.556640625,27.216796875 0.1611328125,24.697265625 0,21.26953125 0.30029296875,17.51953125 1.201171875,14.0625 2.6513671875,10.9130859375 4.599609375,8.0859375 0,3.486328125 3.486328125,0z" />
    </g>
  </g>
</svg>