<?xml version="1.0" encoding="utf-8"?>
<!DOCTYPE svg PUBLIC "-//W3C//DTD SVG 1.1//EN" "http://www.w3.org/Graphics/SVG/1.1/DTD/svg11.dtd">
<svg width="26.3671875" height="42.01171875" xmlns="http://www.w3.org/2000/svg" xmlns:xlink="http://www.w3.org/1999/xlink" xmlns:xml="http://www.w3.org/XML/1998/namespace" version="1.1">
  <g>
    <g>
      <path style="fill:#FF0000;fill-opacity:1" d="M13.125,0L15.908203125,0.252685546875 18.45703125,1.0107421875 20.72021484375,2.222900390625 22.646484375,3.837890625 24.2102031707764,5.83740234375 25.3857421875,8.203125 26.1218242645264,10.8911142349243 26.3671875,13.857421875 26.1694316864014,16.8750019073486 25.576171875,19.658203125 23.49609375,24.5361328125 20.5517578125,28.53515625 17.197265625,31.728515625 12.9052734375,34.70947265625 8.056640625,37.08984375 26.3671875,37.08984375 26.3671875,42.01171875 0,42.01171875 0,37.08984375 4.27001953125,34.84130859375 7.939453125,32.724609375 11.0595693588257,30.714111328125 13.681640625,28.7841796875 15.84228515625,26.91650390625 17.578125,25.0927734375 19.951171875,21.474609375 21.123046875,17.783203125 21.4453125,13.857421875 20.830078125,10.2392578125 19.1015625,7.412109375 16.4501953125,5.5810546875 13.06640625,4.921875 10.13671875,5.361328125 7.5146484375,6.6796875 5.6396484375,8.876953125 4.921875,11.953125 5.33203125,14.12109375 6.4453125,15.7763671875 8.1298828125,16.8310546875 10.25390625,17.197265625 11.630859375,17.0361328125 12.685546875,16.669921875 13.623046875,16.142578125 15.908203125,20.21484375 14.384765625,21.181640625 12.5830078125,21.826171875 10.224609375,22.119140625 7.811279296875,21.9140625 5.7275390625,21.298828125 2.5341796875,19.0869140625 0.6298828125,15.849609375 0,11.953125 0.267334014177322,9.26879978179932 1.06933617591858,6.8994140625 3.955078125,3.1494140625 8.14453125,0.8056640625 10.5761709213257,0.201416015625 13.125,0z" />
    </g>
  </g>
</svg>