<?xml version="1.0" encoding="utf-8"?>
<!DOCTYPE svg PUBLIC "-//W3C//DTD SVG 1.1//EN" "http://www.w3.org/Graphics/SVG/1.1/DTD/svg11.dtd">
<svg width="26.3671875" height="42.01171875" xmlns="http://www.w3.org/2000/svg" xmlns:xlink="http://www.w3.org/1999/xlink" xmlns:xml="http://www.w3.org/XML/1998/namespace" version="1.1">
  <g>
    <g>
      <path style="fill:#FF0000;fill-opacity:1" d="M0,0L26.3671875,0 26.3671875,4.921875 8.056640625,4.921875 12.9052734375,7.30224609375 17.197265625,10.283203125 20.5517578125,13.4765625 23.49609375,17.490234375 25.576171875,22.3681640625 26.1694316864014,25.140380859375 26.3671875,28.154296875 26.1218242645264,31.12060546875 25.3857421875,33.80859375 24.2102031707764,36.177978515625 22.646484375,38.1884765625 20.72021484375,39.810791015625 18.45703125,41.015625 15.908203125,41.7626953125 13.125,42.01171875 10.5761709213257,41.810302734375 8.14453125,41.2060546875 3.955078125,38.8623046875 1.06933617591858,35.1123046875 0.267334014177322,32.742919921875 0,30.05859375 0.6298828125,26.162109375 2.5341796875,22.9248046875 5.7275390625,20.712890625 7.811279296875,20.09765625 10.224609375,19.892578125 12.5830078125,20.2001953125 14.384765625,20.859375 15.908203125,21.796875 13.623046875,25.869140625 12.685546875,25.341796875 11.630859375,24.9755859375 10.25390625,24.814453125 8.1298828125,25.1806640625 6.4453125,26.2353515625 5.33203125,27.890625 4.921875,30.05859375 5.6396484375,33.134765625 7.5146484375,35.33203125 10.13671875,36.650390625 13.06640625,37.08984375 16.4501953125,36.4306640625 19.1015625,34.599609375 20.830078125,31.787109375 21.4453125,28.154296875 21.123046875,24.228515625 19.951171875,20.537109375 17.578125,16.9189453125 15.84228515625,15.0952167510986 13.681640625,13.2275390625 11.0595693588257,11.2976093292236 7.939453125,9.287109375 4.27001953125,7.17041015625 0,4.921875 0,0z" />
    </g>
  </g>
</svg>