<?xml version="1.0" encoding="utf-8"?>
<!DOCTYPE svg PUBLIC "-//W3C//DTD SVG 1.1//EN" "http://www.w3.org/Graphics/SVG/1.1/DTD/svg11.dtd">
<svg width="42.01171875" height="26.3671875" xmlns="http://www.w3.org/2000/svg" xmlns:xlink="http://www.w3.org/1999/xlink" xmlns:xml="http://www.w3.org/XML/1998/namespace" version="1.1">
  <g>
    <g>
      <path style="fill:#FF0000;fill-opacity:1" d="M0,0L4.921875,0 4.921875,18.310546875 7.30224609375,13.4619140625 10.283203125,9.169921875 13.4765625,5.8154296875 17.4755859375,2.87109375 22.353515625,0.791015625 25.1367168426514,0.197755336761475 28.154296875,0 31.12060546875,0.245362758636475 33.80859375,0.9814453125 36.17431640625,2.15698385238647 38.173828125,3.720703125 39.788818359375,5.64697265625 41.0009765625,7.91015625 41.759033203125,10.458984375 42.01171875,13.2421875 41.810302734375,15.791015625 41.2060546875,18.22265625 38.8623046875,22.412109375 35.1123046875,25.2978515625 32.742919921875,26.099853515625 30.05859375,26.3671875 26.162109375,25.7373046875 22.9248046875,23.8330078125 20.712890625,20.6396484375 20.09765625,18.555908203125 19.892578125,16.142578125 20.185546875,13.7841796875 20.830078125,11.982421875 21.796875,10.458984375 25.869140625,12.744140625 25.341796875,13.681640625 24.9755859375,14.736328125 24.814453125,16.11328125 25.1806640625,18.2373046875 26.2353515625,19.921875 27.890625,21.03515625 30.05859375,21.4453125 33.134765625,20.7275390625 35.33203125,18.8525390625 36.650390625,16.23046875 37.08984375,13.30078125 36.4306640625,9.9169921875 34.599609375,7.265625 31.7724609375,5.537109375 28.154296875,4.921875 24.228515625,5.244140625 20.537109375,6.416015625 16.9189453125,8.7890625 15.09521484375,10.52490234375 13.2275390625,12.685546875 11.2976064682007,15.3076171875 9.287109375,18.427734375 7.17041015625,22.09716796875 4.921875,26.3671875 0,26.3671875 0,0z" />
    </g>
  </g>
</svg>