<?xml version="1.0" encoding="utf-8"?>
<!DOCTYPE svg PUBLIC "-//W3C//DTD SVG 1.1//EN" "http://www.w3.org/Graphics/SVG/1.1/DTD/svg11.dtd">
<svg width="32.958984375" height="42.01171875" xmlns="http://www.w3.org/2000/svg" xmlns:xlink="http://www.w3.org/1999/xlink" xmlns:xml="http://www.w3.org/XML/1998/namespace" version="1.1">
  <g>
    <g>
      <path style="fill:#FF0000;fill-opacity:1" d="M29.677734375,17.724609375L30.9521484375,17.98828125 31.9921875,18.69140625 32.6953125,19.7314453125 32.958984375,21.005859375 32.6953125,22.2802734375 31.9921875,23.3203125 30.9521484375,24.0234375 29.677734375,24.287109375 28.4033203125,24.0234375 27.36328125,23.3203125 26.66015625,22.2802734375 26.396484375,21.005859375 26.66015625,19.7314453125 27.36328125,18.69140625 28.4033203125,17.98828125 29.677734375,17.724609375z M18.544921875,0L23.466796875,0 23.466796875,7.763671875 27.12890625,7.763671875 27.12890625,12.568359375 23.466796875,12.568359375 23.466796875,21.005859375 8.935546875,21.005859375 21.005859375,39.228515625 17.080078125,42.01171875 0,16.494140625 0,16.201171875 18.544921875,16.201171875 18.544921875,12.568359375 7.470703125,12.568359375 7.470703125,7.763671875 18.544921875,7.763671875 18.544921875,0z" />
    </g>
  </g>
</svg>