<?xml version="1.0" encoding="utf-8"?>
<!DOCTYPE svg PUBLIC "-//W3C//DTD SVG 1.1//EN" "http://www.w3.org/Graphics/SVG/1.1/DTD/svg11.dtd">
<svg width="36.73828125" height="42.01171875" xmlns="http://www.w3.org/2000/svg" xmlns:xlink="http://www.w3.org/1999/xlink" xmlns:xml="http://www.w3.org/XML/1998/namespace" version="1.1">
  <g>
    <g>
      <path style="fill:#FF0000;fill-opacity:1" d="M13.2421875,23.466796875L13.2421875,34.716796875 15.6591796875,35.126953125 18.0615234375,35.625 20.5517578125,36.03515625 23.26171875,36.2109375 24.638671875,36.1669921875 26.455078125,35.947265625 28.4033203125,35.390625 30.1611328125,34.306640625 31.435546875,32.548828125 31.93359375,29.970703125 31.702880859375,28.385009765625 31.0107421875,27.0849609375 28.6669921875,25.1953125 25.5029296875,24.0966796875 22.119140625,23.583984375 22.119140625,27.12890625 17.314453125,27.12890625 17.314453125,23.466796875 13.2421875,23.466796875z M23.26171875,5.80078125L20.5517578125,5.9765625 18.0615234375,6.4013671875 15.6591796875,6.8994140625 13.2421875,7.294921875 13.2421875,18.544921875 17.314453125,18.544921875 17.314453125,14.912109375 22.119140625,14.912109375 22.119140625,18.427734375 25.5029296875,17.9443359375 28.6669921875,16.845703125 31.0107421875,14.94140625 31.702880859375,13.6303730010986 31.93359375,12.041015625 31.435546875,9.462890625 30.1611328125,7.705078125 28.4033203125,6.62109375 26.455078125,6.064453125 24.638671875,5.8447265625 23.26171875,5.80078125z M2.69531321525574,0L7.5,0 7.939453125,1.201171875 8.9794921875,2.0068359375 11.015625,2.373046875 14.0625,2.138671875 16.9775390625,1.6259765625 19.9658203125,1.11328125 23.26171875,0.87890625 28.2421875,1.4501953125 32.5634765625,3.3251953125 34.266357421875,4.837646484375 35.595703125,6.767578125 36.45263671875,9.1552734375 36.73828125,12.041015625 36.298828125,15.17578125 35.09765625,17.63671875 33.310546875,19.541015625 31.11328125,21.005859375 33.310546875,22.470703125 35.09765625,24.375 36.298828125,26.8359375 36.73828125,29.970703125 36.45263671875,32.8564453125 35.595703125,35.244140625 34.266357421875,37.174072265625 32.5634765625,38.6865234375 28.2421875,40.5615234375 23.26171875,41.1328125 19.9658203125,40.8984375 16.9775390625,40.3857421875 14.0625,39.873046875 11.015625,39.638671875 8.9794921875,40.01953125 7.939453125,40.83984375 7.5,42.01171875 2.69531321525574,42.01171875 3.39843726158142,38.96484375 4.072265625,37.7490234375 5.06836032867432,36.591796875 6.4599609375,35.595703125 8.3203125,34.892578125 8.3203125,23.466796875 4.8046875,23.466796875 4.8046875,27.275390625 0,27.275390625 0,15.05859375 4.8046875,15.05859375 4.8046875,18.544921875 8.3203125,18.544921875 8.3203125,7.1484375 6.4599609375,6.4306640625 5.06836032867432,5.4345703125 4.072265625,4.27734375 3.39843726158142,3.046875 2.69531321525574,0z" />
    </g>
  </g>
</svg>