<?xml version="1.0" encoding="utf-8"?>
<!DOCTYPE svg PUBLIC "-//W3C//DTD SVG 1.1//EN" "http://www.w3.org/Graphics/SVG/1.1/DTD/svg11.dtd">
<svg width="36.73828125" height="42.01171875" xmlns="http://www.w3.org/2000/svg" xmlns:xlink="http://www.w3.org/1999/xlink" xmlns:xml="http://www.w3.org/XML/1998/namespace" version="1.1">
  <g>
    <g>
      <path style="fill:#FF0000;fill-opacity:1" d="M17.548828125,23.466796875L15.1025390625,23.5546875 12.3193359375,23.876953125 9.55078125,24.5654296875 7.1484375,25.7373046875 5.44921875,27.4951171875 4.8046875,29.970703125 5.302734375,32.548828125 6.5771484375,34.306640625 8.3349609375,35.390625 10.283203125,35.947265625 12.099609375,36.1669921875 13.4765625,36.2109375 16.2451171875,35.9765625 18.9990234375,35.4638671875 22.0166015625,34.951171875 25.546875,34.716796875 22.03125,23.466796875 17.548828125,23.466796875z M13.4765625,5.80078125L12.099609375,5.8447265625 10.283203125,6.064453125 8.3349609375,6.62109375 6.5771484375,7.705078125 5.302734375,9.462890625 4.8046875,12.041015625 5.44921875,14.5166015625 7.1484375,16.2744140625 9.55078125,17.4462890625 12.3193359375,18.134765625 15.1025390625,18.45703125 17.548828125,18.544921875 22.03125,18.544921875 25.546875,7.294921875 22.03125,7.060546875 19.013671875,6.5478515625 16.2451171875,6.03515625 13.4765625,5.80078125z M29.23828125,0L34.04296875,0 33.515625,2.51953125 32.4462890625,4.599609375 30.46875,6.26953125 26.953125,18.544921875 31.93359375,18.544921875 31.93359375,15.05859375 36.73828125,15.05859375 36.73828125,27.275390625 31.93359375,27.275390625 31.93359375,23.466796875 26.953125,23.466796875 30.46875,35.771484375 32.5048828125,37.587890625 33.57421875,39.638671875 34.04296875,42.01171875 29.23828125,42.01171875 28.798828125,40.83984375 27.7587890625,40.01953125 25.72265625,39.638671875 22.67578125,39.873046875 19.7607421875,40.3857421875 16.7724609375,40.8984375 13.4765625,41.1328125 8.49609375,40.5615234375 4.1748046875,38.6865234375 2.47192406654358,37.174072265625 1.14257836341858,35.244140625 0.285644739866257,32.8564453125 0,29.970703125 0.439453363418579,26.8359375 1.64062523841858,24.375 3.42773461341858,22.470703125 5.625,21.005859375 3.42773461341858,19.541015625 1.64062523841858,17.63671875 0.439453363418579,15.17578125 0,12.041015625 0.285644739866257,9.1552734375 1.14257836341858,6.767578125 2.47192406654358,4.837646484375 4.1748046875,3.3251953125 8.49609375,1.4501953125 13.4765625,0.87890625 16.7724609375,1.11328125 19.7607421875,1.6259765625 22.67578125,2.138671875 25.72265625,2.373046875 27.7587890625,2.0068359375 28.798828125,1.201171875 29.23828125,0z" />
    </g>
  </g>
</svg>