<?xml version="1.0" encoding="utf-8"?>
<!DOCTYPE svg PUBLIC "-//W3C//DTD SVG 1.1//EN" "http://www.w3.org/Graphics/SVG/1.1/DTD/svg11.dtd">
<svg width="23.37890625" height="37.6171875" xmlns="http://www.w3.org/2000/svg" xmlns:xlink="http://www.w3.org/1999/xlink" xmlns:xml="http://www.w3.org/XML/1998/namespace" version="1.1">
  <g>
    <g>
      <path style="fill:#FF0000;fill-opacity:1" d="M16.025390625,0L16.259765625,0.146484375 16.34765625,0.46875 16.23046875,1.23046875 15.2783203125,4.061279296875 13.76953125,6.5185546875 11.7626943588257,8.660888671875 9.31640625,10.546875 12.139892578125,11.568603515625 14.6923828125,13.2275390625 16.973876953125,15.523681640625 18.984375,18.45703125 19.833984375,20.3173828125 20.33203125,22.734375 21.6064453125,30.29296875 23.3203125,36.97265625 23.3642578125,37.20703125 23.37890625,37.32421875 23.173828125,37.6171875 22.67578125,37.08984375 20.877685546875,31.904296875 19.2333984375,27.5390625 17.698974609375,23.9501953125 16.23046875,21.09375 13.9782705307007,17.786865234375 11.4404296875,15.4248046875 8.587646484375,14.007568359375 5.390625,13.53515625 3.046875,13.740234375 0.703125357627869,14.35546875 0.23437511920929,14.443359375 0,14.296875 0.05859375,14.0478515625 0.35156261920929,13.65234375 3.076171875,11.8505859375 6.328125,10.6640625 8.02001953125,9.88037109375 9.404296875,8.525390625 10.49560546875,6.59912109375 11.30859375,4.1015625 11.7626943588257,3.0029296875 12.890625,2.16796875 13.9013671875,1.46484375 14.7802734375,0.76171875 15.498046875,0.2197265625 16.025390625,0z" />
    </g>
  </g>
</svg>