<?xml version="1.0" encoding="utf-8"?>
<!DOCTYPE svg PUBLIC "-//W3C//DTD SVG 1.1//EN" "http://www.w3.org/Graphics/SVG/1.1/DTD/svg11.dtd">
<svg width="54.0234375" height="24.931640625" xmlns="http://www.w3.org/2000/svg" xmlns:xlink="http://www.w3.org/1999/xlink" xmlns:xml="http://www.w3.org/XML/1998/namespace" version="1.1">
  <g>
    <g>
      <path style="fill:#FF0000;fill-opacity:1" d="M48.92578125,16.318359375L47.479248046875,16.556396484375 46.3623046875,17.2705078125 45.648193359375,18.402099609375 45.41015625,19.892578125 45.648193359375,21.346435546875 46.3623046875,22.4853515625 47.479248046875,23.221435546875 48.92578125,23.466796875 50.4162559509277,23.221435546875 51.5478515625,22.4853515625 52.2619590759277,21.346435546875 52.5,19.892578125 52.2619590759277,18.402099609375 51.5478515625,17.2705078125 50.4162559509277,16.556396484375 48.92578125,16.318359375z M48.92578125,14.853515625L51.0461387634277,15.194091796875 52.6611328125,16.2158203125 53.6828575134277,17.816162109375 54.0234375,19.892578125 53.6828575134277,21.968994140625 52.6611328125,23.5693359375 51.0461387634277,24.591064453125 48.92578125,24.931640625 46.849365234375,24.591064453125 45.2490234375,23.5693359375 44.227294921875,21.968994140625 43.88671875,19.892578125 44.227294921875,17.816162109375 45.2490234375,16.2158203125 46.849365234375,15.194091796875 48.92578125,14.853515625z M38.994140625,9.111328125L37.547607421875,9.349365234375 36.4306640625,10.0634765625 35.716552734375,11.195068359375 35.478515625,12.685546875 35.716552734375,14.139404296875 36.4306640625,15.2783203125 37.547607421875,16.014404296875 38.994140625,16.259765625 40.484619140625,16.014404296875 41.6162109375,15.2783203125 42.330322265625,14.139404296875 42.568359375,12.685546875 42.330322265625,11.195068359375 41.6162109375,10.0634765625 40.484619140625,9.349365234375 38.994140625,9.111328125z M38.994140625,7.646484375L41.114501953125,7.987060546875 42.7294921875,9.0087890625 43.751220703125,10.609130859375 44.091796875,12.685546875 43.751220703125,14.761962890625 42.7294921875,16.3623046875 41.114501953125,17.384033203125 38.994140625,17.724609375 36.917724609375,17.384033203125 35.3173828125,16.3623046875 34.295654296875,14.761962890625 33.955078125,12.685546875 34.295654296875,10.609130859375 35.3173828125,9.0087890625 36.917724609375,7.987060546875 38.994140625,7.646484375z M48.92578125,1.46484375L47.479248046875,1.702880859375 46.3623046875,2.4169921875 45.648193359375,3.548583984375 45.41015625,5.0390625 45.648193359375,6.492919921875 46.3623046875,7.6318359375 47.479248046875,8.367919921875 48.92578125,8.61328125 50.4162559509277,8.367919921875 51.5478515625,7.6318359375 52.2619590759277,6.492919921875 52.5,5.0390625 52.2619590759277,3.548583984375 51.5478515625,2.4169921875 50.4162559509277,1.702880859375 48.92578125,1.46484375z M1.552734375,0.322265625L3.40209937095642,0.552978515625 5.31738233566284,1.2451171875 9.1552734375,3.75 12.7587890625,7.470703125 15.849609375,12.0703125 17.523193359375,14.55322265625 19.4091796875,16.318359375 21.507568359375,17.36572265625 23.818359375,17.6953125 26.5356426239014,17.362060546875 28.53515625,16.3623046875 29.8315410614014,14.725341796875 30.439453125,12.48046875 30.0219707489014,10.089111328125 28.9453125,8.3642578125 27.2094707489014,7.320556640625 24.814453125,6.97265625 23.5400390625,7.09716796875 22.646484375,7.470703125 21.943359375,8.818359375 22.6904296875,10.400390625 24.4921875,10.95703125 26.1181640625,10.5322265625 27.0703125,9.78515625 27.4658203125,10.224609375 27.568359375,10.986328125 27.2314453125,12.3486328125 26.3818359375,13.3740234375 25.2392578125,14.033203125 24.052734375,14.267578125 22.379150390625,13.948974609375 21.0498046875,12.9931640625 20.152587890625,11.480712890625 19.775390625,9.4921875 20.244140625,7.210693359375 21.298828125,5.5517578125 22.939453125,4.515380859375 25.166015625,4.1015625 28.231201171875,4.815673828125 30.4541015625,6.4306640625 31.834716796875,8.946533203125 32.373046875,12.36328125 31.79443359375,16.160888671875 30.05859375,18.9404296875 27.2753887176514,20.643310546875 23.5546875,21.2109375 20.56640625,20.73486328125 17.87109375,19.306640625 15.52001953125,16.94091796875 13.564453125,13.65234375 11.11083984375,9.33837890625 8.02734375,5.771484375 4.3212890625,2.93701171875 0,0.8203125 0.58593761920929,0.4541015625 1.552734375,0.322265625z M48.92578125,0L51.0461387634277,0.340576171875 52.6611328125,1.3623046875 53.6828575134277,2.962646484375 54.0234375,5.0390625 53.6828575134277,7.115478515625 52.6611328125,8.7158203125 51.0461387634277,9.737548828125 48.92578125,10.078125 46.849365234375,9.737548828125 45.2490234375,8.7158203125 44.227294921875,7.115478515625 43.88671875,5.0390625 44.227294921875,2.962646484375 45.2490234375,1.3623046875 46.849365234375,0.340576171875 48.92578125,0z" />
    </g>
  </g>
</svg>