<?xml version="1.0" encoding="utf-8"?>
<!DOCTYPE svg PUBLIC "-//W3C//DTD SVG 1.1//EN" "http://www.w3.org/Graphics/SVG/1.1/DTD/svg11.dtd">
<svg width="24.375" height="33.310546875" xmlns="http://www.w3.org/2000/svg" xmlns:xlink="http://www.w3.org/1999/xlink" xmlns:xml="http://www.w3.org/XML/1998/namespace" version="1.1">
  <g>
    <g>
      <path style="fill:#FF0000;fill-opacity:1" d="M17.75390625,0L18.017578125,0.322265625 17.9443359375,0.76171875 17.63671875,1.40625 16.0693359375,4.74609375 15.556640625,8.173828125 15.81298828125,10.74462890625 16.58203125,14.00390625 17.9296875,18.046875 19.921875,22.96875 20.244140625,25.506591796875 21.03515625,27.9052734375 22.294921875,30.164794921875 24.0234375,32.28515625 24.375,32.98828125 24.0234375,33.310546875 23.5546875,33.10546875 20.2734375,30.10986328125 17.40234375,25.72265625 14.94140625,19.94384765625 12.890625,12.7734375 10.0543212890625,14.6063232421875 7.69775390625,15.91552734375 5.8209228515625,16.7010498046875 4.423828125,16.962890625 3.380126953125,16.76513671875 2.4755859375,16.171875 1.0986328125,14.12109375 0.2783203125,11.279296875 0,8.115234375 0.1171875,5.91796875 0.46875,3.69140625 1.58203101158142,2.9150390625 2.53417992591858,2.138671875 3.251953125,1.5380859375 3.69140625,1.2890625 3.896484375,1.5087890625 3.955078125,2.021484375 3.779296875,5.2734375 3.603515625,8.02734375 3.662109375,9.9462890625 3.984375,11.806640625 4.8046875,13.212890625 6.38671875,13.76953125 9.0234375,13.1982421875 12.65625,11.484375 12.5537109375,9.9609375 12.509765625,8.583984375 12.685546875,6.005859375 13.3154296875,3.9697265625 14.560546875,2.2412109375 16.58203125,0.5859375 17.75390625,0z" />
    </g>
  </g>
</svg>