<?xml version="1.0" encoding="utf-8"?>
<!DOCTYPE svg PUBLIC "-//W3C//DTD SVG 1.1//EN" "http://www.w3.org/Graphics/SVG/1.1/DTD/svg11.dtd">
<svg width="18.33984375" height="36.6796875" xmlns="http://www.w3.org/2000/svg" xmlns:xlink="http://www.w3.org/1999/xlink" xmlns:xml="http://www.w3.org/XML/1998/namespace" version="1.1">
  <g>
    <g>
      <path style="fill:#FF0000;fill-opacity:1" d="M16.025390625,0L17.6513671875,0.4248046875 18.33984375,1.93359375 18.046875,3.2373046875 17.16796875,4.5703125 16.1279296875,5.712890625 15.46875,6.6796875 15,8.232421875 15.5126953125,9.61669921875 17.05078125,11.3671875 16.552734375,12.568359375 16.9482421875,13.7841796875 18.046875,15.17578125 18.28125,15.5126953125 18.33984375,15.8203125 18.046875,16.11328125 17.51953125,15.9375 14.80224609375,14.329833984375 12.978515625,12.8466796875 11.9457998275757,11.444091796875 11.6015625,10.078125 12.0117177963257,8.5107421875 13.2421875,6.6796875 14.2309560775757,5.28076171875 14.560546875,4.130859375 14.2236328125,3.28125 13.359375,2.958984375 12.3632802963257,3.20068359375 11.19140625,3.92578125 8.056640625,7.532958984375 5.7421875,12.2314453125 4.248046875,18.021240234375 3.57421875,24.90234375 2.8271484375,27.95654296875 2.578125,30.791015625 2.8857421875,33.43505859375 3.80859375,35.5078125 4.21875,36.38671875 3.896484375,36.6796875 3.17138671875,36.375732421875 2.46093773841858,35.5810546875 1.2158203125,33.0029296875 0.33691394329071,29.6923828125 0,26.3671875 0.0732420682907104,24.638671875 0.29296863079071,22.96875 1.86767578125,15.999755859375 4.013671875,10.2685546875 6.81884765625,5.745849609375 10.37109375,2.40234375 13.53515625,0.6005859375 16.025390625,0z" />
    </g>
  </g>
</svg>