<?xml version="1.0" encoding="utf-8"?>
<!DOCTYPE svg PUBLIC "-//W3C//DTD SVG 1.1//EN" "http://www.w3.org/Graphics/SVG/1.1/DTD/svg11.dtd">
<svg width="32.900390625" height="33.6328125" xmlns="http://www.w3.org/2000/svg" xmlns:xlink="http://www.w3.org/1999/xlink" xmlns:xml="http://www.w3.org/XML/1998/namespace" version="1.1">
  <g>
    <g>
      <path style="fill:#FF0000;fill-opacity:1" d="M17.7083797454834,19.8125953674316L11.6748046875,24.580078125 11.4901885986328,24.736156463623 11.6949462890625,25.107421875 12.9971685409546,26.6070556640625 14.4703664779663,27.67822265625 16.1145401000977,28.3209228515625 17.9296875,28.53515625 19.248046875,28.2568359375 20.185546875,27.5390625 20.7421875,26.5869140625 20.91796875,25.576171875 20.7263946533203,24.3844985961914 20.1516723632813,23.0506896972656 19.1938018798828,21.5747451782227 17.852783203125,19.9566650390625 17.7083797454834,19.8125953674316z M12.24609375,0L10.634765625,3.017578125 9.3896484375,6.4306640625 8.583984375,10.048828125 8.291015625,13.681640625 8.4521484375,15.9814453125 8.876953125,18.310546875 9.4921875,20.5078125 10.224609375,22.44140625 10.5120687484741,22.9626274108887 11.103515625,22.44140625 16.2765846252441,18.3840980529785 15.46875,17.578125 17.5190601348877,17.4096069335938 21.5625,14.23828125 22.5431137084961,13.656379699707 23.349609375,12.45849609375 25.13671875,9.609375 29.70703125,9.609375 28.2421875,11.4990234375 27.7543678283691,12.181209564209 30.029296875,12.5390625 31.7138671875,13.6376953125 32.6220703125,15.234375 32.900390625,17.138671875 32.3876953125,19.892578125 31.0400390625,22.5732421875 29.1064453125,25.048828125 26.865234375,27.1875 26.07421875,27.568359375 25.634765625,27.0703125 26.015625,26.4697265625 26.953125,25.25390625 28.18359375,23.583984375 29.4140625,21.6064453125 30.3515625,19.482421875 30.732421875,17.373046875 30.439453125,16.025390625 29.677734375,15.1025390625 28.623046875,14.560546875 27.451171875,14.384765625 25.8859577178955,14.6996078491211 25.0085430145264,15.75439453125 23.5693359375,16.845703125 22.064208984375,17.46826171875 20.5078125,17.6953125 22.1356182098389,19.8175048828125 23.2983379364014,21.76025390625 23.9959697723389,23.5235595703125 24.228515625,25.107421875 23.7451171875,26.923828125 22.32421875,28.4912109375 19.9951171875,29.6044921875 16.81640625,30.029296875 14.7585296630859,29.8016738891602 12.8695678710938,29.1188049316406 11.1495208740234,27.9806900024414 9.598388671875,26.3873291015625 9.57692909240723,26.3536605834961 0.966797113418579,33.6328125 0.527343988418579,33.2373046875 0,32.2265625 8.52930450439453,24.7099723815918 7.79296875,23.5546875 6.6650390625,20.9912109375 5.7275390625,18.10546875 5.09765625,15.0732421875 4.86328125,12.0703125 5.068359375,8.818359375 5.654296875,5.7421875 6.5771484375,3.0029296875 7.79296875,0.76171875 12.24609375,0z" />
    </g>
  </g>
</svg>