<?xml version="1.0" encoding="utf-8"?>
<!DOCTYPE svg PUBLIC "-//W3C//DTD SVG 1.1//EN" "http://www.w3.org/Graphics/SVG/1.1/DTD/svg11.dtd">
<svg width="56.484375" height="56.77734375" xmlns="http://www.w3.org/2000/svg" xmlns:xlink="http://www.w3.org/1999/xlink" xmlns:xml="http://www.w3.org/XML/1998/namespace" version="1.1">
  <g>
    <g>
      <path style="fill:#FF0000;fill-opacity:1" d="M25.869140625,26.044921875L29.970703125,26.044921875 28.798828125,29.267578125 28.798828125,56.07421875 28.6083984375,56.5869140625 28.125,56.77734375 27.6416015625,56.5869140625 27.451171875,56.103515625 27.451171875,48.310546875 27.4365215301514,47.5341796875 27.392578125,46.259765625 27.2021484375,42.7587890625 26.8505859375,38.583984375 26.3232421875,34.4384765625 25.6201171875,31.083984375 25.1916484832764,29.9267578125 24.697265625,29.267578125 25.869140625,26.044921875z M24.697265625,18.837890625L25.927734375,19.0283203125 26.9384765625,19.51171875 27.7880859375,20.1416015625 28.53515625,20.7421875 29.4287109375,21.4892578125 30.1025390625,21.9873046875 30.703125,22.265625 31.435546875,22.353515625 32.77587890625,21.71630859375 33.3984375,19.8046875 33.80859375,19.39453125 34.248046875,19.8779296875 34.365234375,20.80078125 34.365234375,21.298828125 34.16015625,22.6611328125 33.603515625,23.6865234375 32.8271484375,24.3310546875 31.962890625,24.55078125 30.029296875,24.0673828125 28.9160137176514,23.382568359375 27.626953125,22.294921875 26.396484375,21.4453125 25.224609375,21.09375 24.43359375,21.2109375 23.7744140625,21.650390625 23.173828125,22.5146484375 22.5,23.90625 22.2802734375,24.3017578125 21.97265625,24.43359375 21.5625,23.90625 21.859130859375,21.64306640625 22.3974609375,20.068359375 23.3020000457764,19.1455078125 24.697265625,18.837890625z M42.24609375,14.296875L43.4619140625,15.2490234375 44.677734375,15.908203125 56.484375,16.845703125 56.484375,17.607421875 44.677734375,18.544921875 43.7548828125,18.8232421875 43.125,19.2626953125 42.65625,19.74609375 42.24609375,20.15625 42.24609375,14.296875z M14.23828125,14.296875L14.23828125,20.15625 13.8134765625,19.74609375 13.359375,19.2626953125 12.7294921875,18.8232421875 11.806640625,18.544921875 0,17.607421875 0,16.845703125 11.806640625,15.908203125 13.0224609375,15.2490234375 14.23828125,14.296875z M37.470703125,13.65234375L38.9794921875,13.8427734375 39.66796875,14.443359375 39.1552734375,15.6298828125 37.587890625,17.2265625 36.5185546875,16.387939453125 35.830078125,15.6884765625 35.33203125,14.501953125 35.9765625,13.828125 37.470703125,13.65234375z M31.201171875,13.65234375L32.7099609375,13.8427734375 33.3984375,14.443359375 32.8857421875,15.6298828125 31.318359375,17.2265625 30.2490215301514,16.387939453125 29.560546875,15.6884765625 29.0625,14.501953125 29.70703125,13.828125 31.201171875,13.65234375z M24.9609375,13.65234375L26.4697265625,13.8427734375 27.158203125,14.443359375 26.6455078125,15.6298828125 25.078125,17.2265625 24.0087871551514,16.387939453125 23.3203125,15.6884765625 22.822265625,14.501953125 23.466796875,13.828125 24.9609375,13.65234375z M18.69140625,13.65234375L20.2001953125,13.8427734375 20.888671875,14.443359375 20.3759765625,15.6298828125 18.80859375,17.2265625 17.7392578125,16.387939453125 17.05078125,15.6884765625 16.552734375,14.501953125 17.197265625,13.828125 18.69140625,13.65234375z M21.796875,6.09375L22.1484375,6.2109375 23.4704570770264,8.13720893859863 24.9169921875,9.462890625 26.5173320770264,10.23193359375 28.30078125,10.48828125 29.8901348114014,10.24658203125 31.318359375,9.521484375 32.60009765625,8.35693550109863 33.75,6.796875 34.3359375,6.38671875 34.5703125,6.796875 34.5703125,6.9140625 33.61083984375,9.169921875 32.197265625,10.78125 30.32958984375,11.748046875 28.0078125,12.0703125 25.3784160614014,11.634521484375 23.466796875,10.4443359375 22.21435546875,8.63159370422363 21.5625,6.328125 21.796875,6.09375z M28.125,3.57421875L26.8505859375,3.955078125 26.3671875,5.068359375 26.8359375,6.1083984375 28.125,6.5625 29.5751934051514,6.16699361801147 30.05859375,4.98046875 29.5751934051514,3.95507955551147 28.125,3.57421875z M28.271484375,0L28.623046875,0.1171875 28.828125,0.439453125 29.0185546875,1.6552734375 29.58984375,2.34375 31.025390625,3.17871236801147 31.58203125,4.86328125 31.336669921875,6.28784322738647 30.6005859375,7.2802734375 29.4763164520264,7.86255025863647 28.06640625,8.056640625 26.7370586395264,7.85888814926147 25.7373046875,7.265625 25.1110820770264,6.34277486801147 24.90234375,5.15625 25.4150390625,3.3837890625 26.953125,2.4609375 27.5537109375,1.6552734375 27.7734375,0.52734375 27.9052734375,0.1611328125 28.271484375,0z" />
    </g>
  </g>
</svg>