<?xml version="1.0" encoding="utf-8"?>
<!DOCTYPE svg PUBLIC "-//W3C//DTD SVG 1.1//EN" "http://www.w3.org/Graphics/SVG/1.1/DTD/svg11.dtd">
<svg width="39.7558593750001" height="51.328125" xmlns="http://www.w3.org/2000/svg" xmlns:xlink="http://www.w3.org/1999/xlink" xmlns:xml="http://www.w3.org/XML/1998/namespace" version="1.1">
  <g>
    <g>
      <path style="fill:#FF0000;fill-opacity:1" d="M31.11328125,38.583984375L30.146484375,38.7158203125 29.2236328125,39.1259765625 28.53515625,39.84375 28.271484375,40.8984375 28.6962890625,42.2900390625 29.8974609375,43.8427734375 31.728515625,45.1171875 34.072265625,45.64453125 35.0390625,45.52734375 35.9619140625,45.1318359375 36.650390625,44.3994140625 36.9140625,43.271484375 36.328125,41.5283203125 34.86328125,40.0341796875 32.9736328125,38.9794921875 31.11328125,38.583984375z M32.783203125,36.005859375L34.8779296875,36.4453125 36.73828125,37.6904296875 38.056640625,39.6240234375 38.5546875,42.12890625 38.0419921875,44.619140625 36.708984375,46.5234375 34.86328125,47.7392578125 32.783203125,48.1640625 30.6298828125,47.7392578125 28.7109375,46.5234375 27.333984375,44.619140625 26.806640625,42.12890625 27.3046875,39.5947265625 28.6376953125,37.6611328125 30.556640625,36.4306640625 32.783203125,36.005859375z M25.634765625,30.99609375L39.755859375,30.99609375 39.755859375,32.87109375 25.634765625,32.87109375 25.634765625,30.99609375z M31.11328125,18.310546875L30.146484375,18.4423828125 29.2236328125,18.8525390625 28.53515625,19.5703125 28.271484375,20.625 28.6962890625,22.0166015625 29.8974609375,23.5693359375 31.728515625,24.84375 34.072265625,25.37109375 35.0390625,25.25390625 35.9619140625,24.8583984375 36.650390625,24.1259765625 36.9140625,22.998046875 36.328125,21.2548828125 34.86328125,19.7607421875 32.9736328125,18.7060546875 31.11328125,18.310546875z M32.783203125,15.732421875L34.8779296875,16.171875 36.73828125,17.4169921875 38.056640625,19.3505859375 38.5546875,21.85546875 38.0419921875,24.345703125 36.708984375,26.25 34.86328125,27.4658203125 32.783203125,27.890625 30.6298828125,27.4658203125 28.7109375,26.25 27.333984375,24.345703125 26.806640625,21.85546875 27.3046875,19.3212890625 28.6376953125,17.3876953125 30.556640625,16.1572265625 32.783203125,15.732421875z M8.5546875,15.5859375L21.26953125,15.5859375 19.453125,18.80859375 20.22216796875,21.20361328125 20.478515625,23.291015625 19.892578125,26.337890625 19.07958984375,27.98583984375 17.8125,29.82421875 19.63623046875,31.5325927734375 21.2109375,33.93310546875 22.53662109375,37.0257568359375 23.61328125,40.810546875 24.6130352020264,41.5191650390625 25.3271465301514,42.61962890625 25.7556133270264,44.1119384765625 25.8984375,45.99609375 25.3271465301514,48.328857421875 24.0234355926514,49.9951171875 21.9873027801514,50.994873046875 19.21875,51.328125 17.05078125,50.987548828125 14.94140625,49.9658203125 12.7880849838257,48.233642578125 10.48828125,45.76171875 6.1962890625,41.6162109375 0.82031238079071,37.734375 0.61523425579071,37.353515625 0.791015625,36.884765625 1.20117175579071,36.650390625 1.52343714237213,36.73828125 7.060546875,40.400390625 11.6015625,44.4140625 13.6376953125,46.3623046875 15.4541015625,47.5341796875 17.4609375,48.1201171875 20.0390625,48.28125 22.093505859375,48.138427734375 23.5107421875,47.7099609375 24.3347148895264,46.966552734375 24.609375,45.87890625 24.0087890625,43.9599609375 22.08984375,43.359375 19.9951171875,43.76953125 18.3984375,45.1171875 18.621826171875,43.092041015625 19.2919921875,41.6455078125 20.408935546875,40.777587890625 21.97265625,40.48828125 22.353515625,40.5029296875 22.587890625,40.546875 20.7733154296875,36.80419921875 18.55224609375,34.130859375 15.9246826171875,32.52685546875 12.890625,31.9921875 10.546875,32.2265625 7.734375,32.9296875 8.22509765625,31.0400390625 9.228515625,29.619140625 10.74462890625,28.6669921875 12.7734375,28.18359375 14.8974609375,28.388671875 16.69921875,29.00390625 17.73193359375,26.78466796875 18.076171875,24.638671875 17.8729248046875,23.0767822265625 17.26318359375,21.58447265625 16.2469482421875,20.1617431640625 14.82421875,18.80859375 7.96875,18.80859375 6.251220703125,19.9072265625 4.8486328125,21.474609375 3.760986328125,23.5107421875 2.98828125,26.015625 2.91503858566284,26.6162109375 2.90039014816284,27.1875 3.24462890625,29.53125 4.27734375,31.875 3.2958984375,33.7353515625 1.75781261920929,35.56640625 0.439453065395355,31.9775390625 0,28.30078125 0.62988269329071,24.228515625 2.3876953125,20.712890625 5.0830078125,17.8125 8.5546875,15.5859375z M5.625,4.1015625L6.2109375,4.62890625 7.3828125,8.0859375 9.0380859375,10.3564453125 11.2060546875,11.6015625 13.9453125,11.982421875 16.7138671875,11.56494140625 18.984375,10.3125 20.712890625,8.21777534484863 21.85546875,5.2734375 22.55859375,4.74609375 23.02734375,5.390625 22.00927734375,9.38598823547363 20.126953125,12.2314453125 17.4169921875,13.934326171875 13.916015625,14.501953125 10.517578125,14.00390625 7.9248046875,12.36328125 6.15234422683716,9.3896484375 5.58105421066284,7.34253072738647 5.21484375,4.86328125 5.302734375,4.3212890625 5.625,4.1015625z M14.0625,0L15.87890625,0 15.732421875,1.435546875 15.64453125,2.51953125 15.673828125,3.0322265625 15.8056640625,3.4716796875 16.0986328125,3.9404296875 16.640625,4.5703125 17.548828125,5.7275390625 17.9296875,6.9140625 17.67333984375,8.52539253234863 16.904296875,9.7265625 15.65185546875,10.4736347198486 13.9453125,10.72265625 12.3303213119507,10.5102558135986 11.1181640625,9.873046875 10.360107421875,8.80371284484863 10.107421875,7.294921875 10.3564453125,6.03515625 10.95703125,5.15625 12.421875,5.15625 12.0556640625,6.123046875 11.953125,7.1484375 12.509765625,8.3349609375 14.033203125,8.73046875 15.50537109375,8.30566596984863 15.99609375,7.03125 15.732421875,6.2841796875 15.087890625,5.478515625 14.1064453125,3.955078125 13.828125,2.548828125 13.8427734375,2.28515625 13.88671875,1.69921875 13.9599609375,0.908203125 14.0625,0z" />
    </g>
  </g>
</svg>