<?xml version="1.0" encoding="utf-8"?>
<!DOCTYPE svg PUBLIC "-//W3C//DTD SVG 1.1//EN" "http://www.w3.org/Graphics/SVG/1.1/DTD/svg11.dtd">
<svg width="24.4921875" height="23.671875" xmlns="http://www.w3.org/2000/svg" xmlns:xlink="http://www.w3.org/1999/xlink" xmlns:xml="http://www.w3.org/XML/1998/namespace" version="1.1">
  <g>
    <g>
      <path style="fill:#FF0000;fill-opacity:1" d="M2.98828125,0L8.02734375,0 5.4345703125,4.013671875 3.3984375,7.4853515625 2.0654296875,10.576171875 1.58203125,13.447265625 1.9482421875,15.46875 2.958984375,16.728515625 4.482421875,17.373046875 6.416015625,17.548828125 7.9541015625,17.314453125 9.1259765625,16.669921875 9.873046875,15.732421875 10.13671875,14.58984375 9.891357421875,13.509521484375 9.1552734375,12.5537109375 7.840576171875,11.722412109375 5.859375,11.015625 8.6865234375,6.9580078125 11.953125,3.22265625 9.08203125,3.22265625 10.546875,0 18.603515625,0 17.34375,3.22265625 16.0546875,3.22265625 14.12109375,4.6875 17.80517578125,8.73779296875 20.888671875,13.974609375 21.4453125,15.146484375 22.1923828125,16.7578125 22.998046875,18.57421875 23.7451171875,20.3466796875 24.287109375,21.85546875 24.4921875,22.8515625 24.43359375,23.4375 24.140625,23.671875 23.84765625,23.583984375 23.5546875,23.203125 20.474853515625,17.120361328125 17.4462890625,12.4072265625 14.395751953125,9.034423828125 11.25,6.97265625 9.4775390625,8.5400390625 7.91015625,10.1953125 10.1806640625,10.90576171875 11.8359375,11.923828125 12.8466787338257,13.26416015625 13.18359375,14.94140625 12.7001953125,17.3291015625 11.3671875,19.1748046875 9.3017578125,20.361328125 6.650390625,20.771484375 3.71337890625,20.302734375 1.64062523841858,18.896484375 0.410156279802322,16.60400390625 0,13.4765625 0.43945300579071,10.6787109375 1.52343773841858,7.9248046875 2.9150390625,5.390625 4.27734375,3.22265625 1.52343773841858,3.22265625 2.98828125,0z" />
    </g>
  </g>
</svg>