<?xml version="1.0" encoding="utf-8"?>
<!DOCTYPE svg PUBLIC "-//W3C//DTD SVG 1.1//EN" "http://www.w3.org/Graphics/SVG/1.1/DTD/svg11.dtd">
<svg width="14.58984375" height="14.58984375" xmlns="http://www.w3.org/2000/svg" xmlns:xlink="http://www.w3.org/1999/xlink" xmlns:xml="http://www.w3.org/XML/1998/namespace" version="1.1">
  <g>
    <g>
      <path style="fill:#FF0000;fill-opacity:1" d="M7.265625,2.05078125L5.1123046875,2.4169921875 3.5009765625,3.45703125 2.4755859375,5.0830078125 2.109375,7.20703125 2.45727515220642,9.36767578125 3.5009765625,11.044921875 5.13793897628784,12.12158203125 7.265625,12.48046875 9.481201171875,12.132568359375 11.1474609375,11.0888671875 12.1911611557007,9.422607421875 12.5390625,7.20703125 12.158203125,5.0830078125 11.0888671875,3.45703125 9.4189453125,2.4169921875 7.265625,2.05078125z M7.265625,0L10.283203125,0.5126953125 12.59765625,1.962890625 14.0771484375,4.2333984375 14.58984375,7.20703125 14.0771484375,10.2392578125 12.6123046875,12.568359375 10.2978515625,14.0625 7.265625,14.58984375 4.27734375,14.0625 1.9775390625,12.568359375 0.5126953125,10.2392578125 0,7.20703125 0.5126953125,4.2333984375 1.9775390625,1.962890625 4.27734375,0.5126953125 7.265625,0z" />
    </g>
  </g>
</svg>