<?xml version="1.0" encoding="utf-8"?>
<!DOCTYPE svg PUBLIC "-//W3C//DTD SVG 1.1//EN" "http://www.w3.org/Graphics/SVG/1.1/DTD/svg11.dtd">
<svg width="32.900390625" height="36.6796875" xmlns="http://www.w3.org/2000/svg" xmlns:xlink="http://www.w3.org/1999/xlink" xmlns:xml="http://www.w3.org/XML/1998/namespace" version="1.1">
  <g>
    <g>
      <path style="fill:#FF0000;fill-opacity:1" d="M19.39453125,2.958984375L18.3984375,3.20068359375 17.2265625,3.92578125 14.091796875,7.532958984375 11.77734375,12.2314453125 10.6888313293457,16.4494323730469 11.103515625,16.083984375 17.8222637176514,10.814380645752 17.63671875,10.078125 18.046875,8.5107421875 19.27734375,6.6796875 20.26611328125,5.28076171875 20.595703125,4.130859375 20.2587890625,3.28125 19.39453125,2.958984375z M22.060546875,0L23.6865234375,0.4248046875 24.375,1.93359375 24.0820293426514,3.2373046875 23.203125,4.5703125 22.1630859375,5.712890625 21.50390625,6.6796875 21.03515625,8.232421875 21.0529613494873,8.28049850463867 21.5625,7.880859375 22.8955078125,7.08984375 24.19921875,6.416015625 25.6494140625,5.947265625 27.421875,5.771484375 30.029296875,6.181640625 31.7138671875,7.2802734375 32.6220703125,8.876953125 32.900390625,10.78125 32.3876953125,13.53515625 31.0400390625,16.2158203125 29.1064453125,18.69140625 26.865234375,20.830078125 26.07421875,21.2109375 25.634765625,20.712890625 26.015625,20.1123046875 26.953125,18.896484375 28.18359375,17.2265625 29.4140625,15.2490234375 30.3515625,13.125 30.732421875,11.015625 30.439453125,9.66796875 29.677734375,8.7451171875 28.623046875,8.203125 27.451171875,8.02734375 24.90234375,8.5400390625 21.9899654388428,10.1198654174805 23.0859375,11.3671875 22.587890625,12.568359375 22.9833984375,13.7841796875 24.08203125,15.17578125 24.31640625,15.5126953125 24.375,15.8203125 24.08203125,16.11328125 23.5546875,15.9375 20.83740234375,14.329833984375 19.013671875,12.8466796875 18.816822052002,12.5793266296387 11.6748046875,18.22265625 10.1360950469971,19.523509979248 9.609375,24.90234375 8.8623046875,27.95654296875 8.61328125,30.791015625 8.9208984375,33.43505859375 9.84375,35.5078125 10.25390625,36.38671875 9.931640625,36.6796875 9.20654296875,36.375732421875 8.49609375,35.5810546875 7.2509765625,33.0029296875 6.3720703125,29.6923828125 6.03515672683716,26.3671875 6.1083984375,24.638671875 6.328125,22.96875 6.39122819900513,22.6894836425781 0.96679699420929,27.275390625 0.52734375,26.8798828125 0,25.869140625 7.08324241638184,19.6269149780273 7.90283203125,15.999755859375 10.048828125,10.2685546875 12.8540029525757,5.745849609375 16.40625,2.40234375 19.5703125,0.6005859375 22.060546875,0z" />
    </g>
  </g>
</svg>