<?xml version="1.0" encoding="utf-8"?>
<!DOCTYPE svg PUBLIC "-//W3C//DTD SVG 1.1//EN" "http://www.w3.org/Graphics/SVG/1.1/DTD/svg11.dtd">
<svg width="23.2324218750001" height="39.814453125" xmlns="http://www.w3.org/2000/svg" xmlns:xlink="http://www.w3.org/1999/xlink" xmlns:xml="http://www.w3.org/XML/1998/namespace" version="1.1">
  <g>
    <g>
      <path style="fill:#FF0000;fill-opacity:1" d="M8.583984375,0L22.44140625,0 20.91796875,2.98828125 21.474609375,5.33203125 21.05712890625,7.3974609375 19.8046875,9.43359375 21.3043193817139,10.828857421875 22.3754863739014,12.4658203125 23.0181865692139,14.344482421875 23.232421875,16.46484375 22.67578125,19.2919921875 21.0791015625,22.470703125 18.5595703125,26.1474609375 15.263671875,30.439453125 13.65234375,32.51953125 12.041015625,34.6435546875 10.2099609375,36.9287109375 7.998046875,39.4921875 7.44140625,39.814453125 7.1630859375,39.7412109375 7.03125,39.462890625 7.294921875,38.818359375 10.9716796875,33.8232421875 14.033203125,29.619140625 16.611328125,25.72265625 18.3984375,22.5 19.4384765625,19.7900390625 19.775390625,17.431640625 19.453125,14.7216796875 18.3544921875,12.626953125 16.2744140625,11.2646484375 13.037109375,10.78125 11.103515625,11.0009765625 9.43359375,11.6455078125 8.2470703125,12.71484375 7.79296875,14.208984375 7.9833984375,15.1318359375 8.6279296875,16.0107421875 9.814453125,16.669921875 11.66015625,16.93359375 12.2607421875,16.9189453125 12.919921875,16.875 12.1142578125,18.7939453125 10.869140625,20.91796875 10.576171875,20.91796875 8.8037109375,20.6103515625 7.177734375,19.7021484375 5.9912109375,18.22265625 5.53710985183716,16.23046875 6.19628858566284,13.4033203125 8.0859375,10.7666015625 11.0302734375,8.8330078125 14.853515625,8.0859375 18.515625,8.73046875 18.80859375,6.708984375 18.28125,4.65087890625 16.69921875,3.22265625 6.943359375,3.22265625 4.0869140625,5.068359375 3.284912109375,6.357421875 3.017578125,7.880859375 3.28125,9.38232421875 4.072265625,10.8984375 3.01757788658142,12.421875 1.55273425579071,14.00390625 0.46875,11.89453125 0,9.08203125 0.483398199081421,6.5625 1.99218738079071,4.248046875 4.658203125,2.080078125 8.583984375,0z" />
    </g>
  </g>
</svg>