<?xml version="1.0" encoding="utf-8"?>
<!DOCTYPE svg PUBLIC "-//W3C//DTD SVG 1.1//EN" "http://www.w3.org/Graphics/SVG/1.1/DTD/svg11.dtd">
<svg width="23.2324218750003" height="43.06640625" xmlns="http://www.w3.org/2000/svg" xmlns:xlink="http://www.w3.org/1999/xlink" xmlns:xml="http://www.w3.org/XML/1998/namespace" version="1.1">
  <g>
    <g>
      <path style="fill:#FF0000;fill-opacity:1" d="M7.646484375,9.90234375L5.390625,10.0927734375 3.32519459724426,10.7666015625 1.81640625,12.041015625 1.23046875,14.00390625 1.88964796066284,15.8349609375 3.51562476158142,16.962890625 5.56640529632568,17.548828125 7.529296875,17.724609375 9.697265625,17.314453125 11.6162109375,16.1865234375 13.06640625,14.501953125 13.828125,12.421875 11.103515625,10.60546875 7.646484375,9.90234375z M2.431640625,0L21.97265625,0 20.5078125,3.22265625 14.091796875,3.22265625 14.47265625,4.39453125 14.794921875,5.9765625 15.0439453125,7.67578125 15.205078125,9.19921875 17.841796875,12.1142578125 19.6728515625,16.318359375 20.888671875,21.533203125 21.708984375,27.48046875 22.3681640625,33.8671875 23.0859375,40.400390625 23.1884765625,41.3232421875 23.232421875,42.24609375 23.1298828125,42.83203125 22.79296875,43.06640625 22.3388671875,42.83203125 22.08984375,42.24609375 21.943359375,41.4697265625 21.85546875,40.6640625 21.1669921875,35.7421875 20.5078125,31.23046875 19.833984375,27.15087890625 19.1015625,23.525390625 18.292236328125,20.357666015625 17.3876953125,17.6513671875 16.343994140625,15.421142578125 15.1171875,13.681640625 14.3115234375,16.34765625 12.7880859375,18.6474609375 10.48828125,20.2587890625 7.3828125,20.859375 4.24804592132568,20.2587890625 1.93359375,18.69140625 0.498046875,16.494140625 0,14.00390625 0.62988269329071,10.7373046875 2.37304663658142,8.49609375 5.05370998382568,7.1923828125 8.466796875,6.767578125 11.0009765625,7.08984375 13.125,7.91015625 11.6015625,5.009765625 9.84375,3.22265625 0.966796636581421,3.22265625 2.431640625,0z" />
    </g>
  </g>
</svg>