<?xml version="1.0" encoding="utf-8"?>
<!DOCTYPE svg PUBLIC "-//W3C//DTD SVG 1.1//EN" "http://www.w3.org/Graphics/SVG/1.1/DTD/svg11.dtd">
<svg width="25.60546875" height="42.626953125" xmlns="http://www.w3.org/2000/svg" xmlns:xlink="http://www.w3.org/1999/xlink" xmlns:xml="http://www.w3.org/XML/1998/namespace" version="1.1">
  <g>
    <g>
      <path style="fill:#FF0000;fill-opacity:1" d="M1.87500023841858,0L23.642578125,0 22.177734375,3.22265625 8.0859375,3.22265625 5.68359375,5.654296875 4.10156345367432,8.2470703125 3.13476586341858,10.634765625 2.60742211341858,12.421875 3.85253930091858,12.24609375 5.3466796875,12.099609375 6.87011814117432,11.9970703125 8.232421875,11.953125 11.162109375,12.0263671875 13.857421875,12.4072265625 16.318359375,13.3447265625 18.544921875,15.087890625 20.5078125,17.87109375 22.20703125,21.943359375 23.0126953125,24.8876953125 23.701171875,28.1689453125 24.2724609375,31.552734375 24.7412109375,34.7900390625 25.1220703125,37.6171875 25.4296875,39.78515625 25.458984375,40.13671875 25.517578125,40.7958984375 25.576171875,41.484375 25.60546875,41.923828125 25.5029296875,42.4072265625 25.1953125,42.626953125 24.5654296875,42.2021484375 24.169921875,41.1767578125 23.935546875,39.9609375 23.7890625,38.96484375 22.79296875,33.45703125 21.8701171875,28.9453125 20.9619140625,25.3125 20.009765625,22.412109375 18.91845703125,20.072021484375 17.6953125,18.3251953125 14.912109375,16.171875 11.748046875,15.322265625 8.3203125,15.17578125 4.248046875,15.5712890625 0,16.5234375 0.322266101837158,13.7255859375 0.791015625,10.751953125 1.728515625,7.32421875 3.45703148841858,3.22265625 0.41015625,3.22265625 1.87500023841858,0z" />
    </g>
  </g>
</svg>