<?xml version="1.0" encoding="utf-8"?>
<!DOCTYPE svg PUBLIC "-//W3C//DTD SVG 1.1//EN" "http://www.w3.org/Graphics/SVG/1.1/DTD/svg11.dtd">
<svg width="23.232421875" height="23.203125" xmlns="http://www.w3.org/2000/svg" xmlns:xlink="http://www.w3.org/1999/xlink" xmlns:xml="http://www.w3.org/XML/1998/namespace" version="1.1">
  <g>
    <g>
      <path style="fill:#FF0000;fill-opacity:1" d="M2.6953125,7.763671875L2.31445288658142,13.2568359375 2.080078125,19.1015625 2.080078125,20.5078125 5.8154296875,17.578125 9.5068359375,15.8056640625 13.271484375,14.94140625 17.255859375,14.70703125 18.3544921875,14.7216796875 18.9990234375,14.765625 19.423828125,14.8095703125 19.892578125,14.853515625 18.2958984375,13.0517578125 16.552734375,11.8359375 15.0439453125,12.0556640625 13.59375,12.12890625 10.72265625,11.8798828125 7.79296875,11.0888671875 5.0390625,9.7265625 2.6953125,7.763671875z M4.74609375,3.22265625L3.6474609375,4.3505859375 3.017578125,6.298828125 5.05371046066284,7.576904296875 7.294921875,8.3642578125 12.12890625,8.90625 14.5751953125,8.818359375 16.7431640625,8.3935546875 18.28125,7.353515625 18.8671875,5.419921875 18.720703125,4.3212890625 18.251953125,3.22265625 4.74609375,3.22265625z M0,0L22.32421875,0 21.357421875,3.22265625 20.126953125,3.22265625 20.68359375,4.892578125 20.859375,6.5625 20.3759765625,8.5400390625 18.955078125,10.4296875 20.2734375,12.36328125 21.416015625,14.2529296875 22.3974609375,16.3623046875 23.232421875,18.955078125 20.595703125,18.18603515625 17.841796875,17.9296875 13.8134765625,18.046875 9.609375,18.6474609375 5.4345703125,20.126953125 1.5234375,22.8515625 0.9375,23.203125 0.76171886920929,22.67578125 0.76171886920929,3.22265625 0,0z" />
    </g>
  </g>
</svg>