<?xml version="1.0" encoding="utf-8"?>
<!DOCTYPE svg PUBLIC "-//W3C//DTD SVG 1.1//EN" "http://www.w3.org/Graphics/SVG/1.1/DTD/svg11.dtd">
<svg width="21.5625" height="23.203125" xmlns="http://www.w3.org/2000/svg" xmlns:xlink="http://www.w3.org/1999/xlink" xmlns:xml="http://www.w3.org/XML/1998/namespace" version="1.1">
  <g>
    <g>
      <path style="fill:#FF0000;fill-opacity:1" d="M1.93359363079071,0L21.5625,0 20.390625,3.22265625 20.390625,22.529296875 20.2880859375,22.9833984375 19.98046875,23.203125 19.775390625,23.173828125 19.453125,22.998046875 16.0986328125,20.712890625 12.83203125,19.04296875 9.4921875,18.017578125 5.947265625,17.666015625 2.80517554283142,17.98095703125 0,18.92578125 0.791015625,16.58203125 1.72851550579071,15.1611328125 2.9296875,14.4580078125 4.541015625,14.267578125 7.880859375,14.6923828125 11.3232421875,15.9521484375 15,18.046875 19.072265625,20.9765625 19.072265625,17.40234375 18.955078125,13.4033203125 18.69140625,10.72265625 0.820312261581421,10.72265625 2.28515625,7.5 18.33984375,7.5 17.841796875,5.185546875 16.93359375,3.22265625 0.468749761581421,3.22265625 1.93359363079071,0z" />
    </g>
  </g>
</svg>