<?xml version="1.0" encoding="utf-8"?>
<!DOCTYPE svg PUBLIC "-//W3C//DTD SVG 1.1//EN" "http://www.w3.org/Graphics/SVG/1.1/DTD/svg11.dtd">
<svg width="25.78125" height="26.6015625" xmlns="http://www.w3.org/2000/svg" xmlns:xlink="http://www.w3.org/1999/xlink" xmlns:xml="http://www.w3.org/XML/1998/namespace" version="1.1">
  <g>
    <g>
      <path style="fill:#FF0000;fill-opacity:1" d="M15.1171875,11.953125L12.3046875,14.3115234375 10.13671875,17.607421875 10.37109375,17.5634765625 11.044921875,17.548828125 14.1174306869507,17.947998046875 17.1240234375,19.1455078125 20.152587890625,21.163330078125 23.291015625,24.0234375 23.291015625,14.53125 19.1162109375,12.7294921875 15.1171875,11.953125z M7.265625,0L14.8828125,0 13.359375,3.22265625 14.0844717025757,4.78271484375 14.326171875,6.650390625 14.0625,8.84765625 18.7939453125,10.3564453125 23.291015625,13.06640625 23.056640625,9.093017578125 22.353515625,6.1376953125 21.24755859375,4.156494140625 19.8046875,3.10546875 21.09375,0 25.78125,0 24.609375,3.22265625 24.609375,25.95703125 24.521484375,26.4111328125 24.287109375,26.6015625 24.0380859375,26.54296875 23.73046875,26.30859375 20.2587890625,23.6572265625 17.197265625,21.943359375 14.2822265625,21.0205078125 11.25,20.7421875 9.5361328125,20.8154296875 7.734375,21.03515625 9.3310546875,16.1279296875 11.54296875,11.953125 9.6533203125,12.158203125 7.734375,12.71484375 8.1280517578125,10.894775390625 8.95751953125,9.5947265625 10.2227783203125,8.814697265625 11.923828125,8.5546875 12.333984375,8.5693359375 12.7734375,8.61328125 12.0849609375,5.361328125 11.151123046875,4.16748046875 9.7265625,3.22265625 5.21484375,3.22265625 3.3251953125,4.97314453125 2.69531273841858,6.943359375 2.958984375,8.75244140625 3.75000023841858,10.4296875 1.52343761920929,13.53515625 0.380859434604645,11.52099609375 0,9.228515625 0.476074308156967,6.456298828125 1.90429711341858,3.9990234375 4.19677734375,1.849365234375 7.265625,0z" />
    </g>
  </g>
</svg>