<?xml version="1.0" encoding="utf-8"?>
<!DOCTYPE svg PUBLIC "-//W3C//DTD SVG 1.1//EN" "http://www.w3.org/Graphics/SVG/1.1/DTD/svg11.dtd">
<svg width="27.65625" height="29.8828125" xmlns="http://www.w3.org/2000/svg" xmlns:xlink="http://www.w3.org/1999/xlink" xmlns:xml="http://www.w3.org/XML/1998/namespace" version="1.1">
  <g>
    <g>
      <path style="fill:#FF0000;fill-opacity:1" d="M21.09375,14.70703125L22.3681640625,15.1904296875 22.8515625,16.46484375 22.3681640625,17.6953125 21.09375,18.1640625 19.86328125,17.6953125 19.39453125,16.46484375 19.86328125,15.1904296875 21.09375,14.70703125z M6.38671875,14.70703125L7.6611328125,15.1904296875 8.14453125,16.46484375 7.6611328125,17.6953125 6.38671875,18.1640625 5.15625,17.6953125 4.6875,16.46484375 5.15625,15.1904296875 6.38671875,14.70703125z M3.984375,10.546875L3.10546875,10.5615234375 2.16796875,10.60546875 1.8310546875,12.12890625 1.669921875,14.150390625 1.875,17.281494140625 2.490234375,20.0537109375 3.49731397628784,22.44140625 4.8779296875,24.4189453125 6.624755859375,25.982666015625 8.73046875,27.12890625 11.1694326400757,27.83203125 13.916015625,28.06640625 16.99951171875,27.685546875 19.6875,26.54296875 21.9726543426514,24.697265625 23.84765625,22.20703125 22.880859375,22.294921875 21.943359375,22.32421875 19.1162109375,21.943359375 17.0068359375,20.830078125 15.3662109375,19.04296875 13.9453125,16.640625 12.850341796875,14.68505859375 11.8505859375,13.212890625 10.9020986557007,12.19482421875 9.9609375,11.6015625 7.3828125,10.810546875 3.984375,10.546875z M13.41796875,1.875L9.82910060882568,2.34375 6.85546875,3.75 4.4384765625,6.0205078125 2.51953125,9.08203125 3.7646484375,8.994140625 4.951171875,8.96484375 8.0419921875,9.1552734375 10.5615234375,9.9609375 12.7294921875,11.748046875 13.743896484375,13.11767578125 14.765625,14.8828125 16.23046875,17.5048828125 17.7099609375,19.248046875 19.5556640625,20.2294921875 22.1484375,20.537109375 23.4228515625,20.4931640625 24.78515625,20.33203125 25.72265625,17.490234375 25.95703125,14.82421875 25.7409648895264,12.095947265625 25.0927734375,9.5947265625 24.0380840301514,7.37548828125 22.6025390625,5.4931640625 20.804443359375,3.9697265625 18.662109375,2.8271484375 16.19384765625,2.113037109375 13.41796875,1.875z M13.88671875,0L16.89697265625,0.25634765625 19.599609375,1.025390625 21.9580059051514,2.259521484375 23.935546875,3.9111328125 25.5175762176514,5.965576171875 26.689453125,8.408203125 27.4145488739014,11.18408203125 27.65625,14.23828125 27.4145488739014,17.36572265625 26.689453125,20.302734375 25.5139141082764,22.96875 23.9208984375,25.283203125 21.9177227020264,27.19482421875 19.51171875,28.65234375 16.7431640625,29.5751953125 13.65234375,29.8828125 10.5578603744507,29.619140625 7.8369140625,28.828125 5.50048828125,27.535400390625 3.5595703125,25.7666015625 2.025146484375,23.543701171875 0.908202886581421,20.888671875 0.227050751447678,17.81982421875 0,14.35546875 0.289306640625,11.22802734375 1.0400390625,8.408203125 2.222900390625,5.943603515625 3.80859375,3.8818359375 5.7861328125,2.23388671875 8.14453125,1.0107421875 10.8544912338257,0.252685546875 13.88671875,0z" />
    </g>
  </g>
</svg>