<?xml version="1.0" encoding="utf-8"?>
<!DOCTYPE svg PUBLIC "-//W3C//DTD SVG 1.1//EN" "http://www.w3.org/Graphics/SVG/1.1/DTD/svg11.dtd">
<svg width="34.921875" height="14.58984375" xmlns="http://www.w3.org/2000/svg" xmlns:xlink="http://www.w3.org/1999/xlink" xmlns:xml="http://www.w3.org/XML/1998/namespace" version="1.1">
  <g>
    <g>
      <path style="fill:#FF0000;fill-opacity:1" d="M27.59765625,2.05078125L25.4443359375,2.4169921875 23.8330078125,3.45703125 22.8076171875,5.0830078125 22.44140625,7.20703125 22.789306640625,9.36767578125 23.8330078125,11.044921875 25.4699687957764,12.12158203125 27.59765625,12.48046875 29.8132305145264,12.132568359375 31.4794921875,11.0888671875 32.523193359375,9.422607421875 32.87109375,7.20703125 32.490234375,5.0830078125 31.4208984375,3.45703125 29.7509765625,2.4169921875 27.59765625,2.05078125z M1.40624976158142,0.64453125L6.6796875,5.9765625 11.953125,0.64453125 13.18359375,1.81640625 7.79296875,7.20703125 13.30078125,12.71484375 12.0703125,14.00390625 6.6796875,8.61328125 1.2890625,14.00390625 0,12.71484375 5.390625,7.20703125 0,1.81640625 1.40624976158142,0.64453125z M27.59765625,0L30.615234375,0.5126953125 32.9296875,1.962890625 34.4091796875,4.2333984375 34.921875,7.20703125 34.4091796875,10.2392578125 32.9443359375,12.568359375 30.6298828125,14.0625 27.59765625,14.58984375 24.609375,14.0625 22.3095703125,12.568359375 20.8447265625,10.2392578125 20.33203125,7.20703125 20.8447265625,4.2333984375 22.3095703125,1.962890625 24.609375,0.5126953125 27.59765625,0z" />
    </g>
  </g>
</svg>