<?xml version="1.0" encoding="utf-8"?>
<!DOCTYPE svg PUBLIC "-//W3C//DTD SVG 1.1//EN" "http://www.w3.org/Graphics/SVG/1.1/DTD/svg11.dtd">
<svg width="33.22265625" height="28.740234375" xmlns="http://www.w3.org/2000/svg" xmlns:xlink="http://www.w3.org/1999/xlink" xmlns:xml="http://www.w3.org/XML/1998/namespace" version="1.1">
  <g>
    <g>
      <path style="fill:#FF0000;fill-opacity:1" d="M21.328125,15.380859375L26.6015625,20.712890625 31.875,15.380859375 33.10546875,16.552734375 27.71484375,21.943359375 33.22265625,27.451171875 31.9921875,28.740234375 26.6015625,23.349609375 21.2109375,28.740234375 19.921875,27.451171875 25.3125,21.943359375 19.921875,16.552734375 21.328125,15.380859375z M1.40625,15.380859375L6.6796875,20.712890625 11.953125,15.380859375 13.18359375,16.552734375 7.79296875,21.943359375 13.30078125,27.451171875 12.0703125,28.740234375 6.6796875,23.349609375 1.28906226158142,28.740234375 0,27.451171875 5.390625,21.943359375 0,16.552734375 1.40625,15.380859375z M11.630859375,0L16.904296875,5.33203125 22.177734375,0 23.408203125,1.171875 18.017578125,6.5625 23.525390625,12.0703125 22.294921875,13.359375 16.904296875,7.96875 11.513671875,13.359375 10.224609375,12.0703125 15.615234375,6.5625 10.224609375,1.171875 11.630859375,0z" />
    </g>
  </g>
</svg>