<?xml version="1.0" encoding="utf-8"?>
<!DOCTYPE svg PUBLIC "-//W3C//DTD SVG 1.1//EN" "http://www.w3.org/Graphics/SVG/1.1/DTD/svg11.dtd">
<svg width="28.359375" height="29.53125" xmlns="http://www.w3.org/2000/svg" xmlns:xlink="http://www.w3.org/1999/xlink" xmlns:xml="http://www.w3.org/XML/1998/namespace" version="1.1">
  <g>
    <g>
      <path style="fill:#FF0000;fill-opacity:1" d="M17.197265625,19.8046875L18.2080078125,20.1416015625 18.544921875,21.15234375 18.193359375,22.177734375 17.197265625,22.55859375 16.171875,22.177734375 15.791015625,21.15234375 16.171875,20.15625 17.197265625,19.8046875z M6.9140625,13.330078125L7.9248046875,13.6669921875 8.26171875,14.677734375 7.91015625,15.703125 6.9140625,16.083984375 5.888671875,15.703125 5.5078125,14.677734375 5.888671875,13.681640625 6.9140625,13.330078125z M6.97265625,11.1328125L4.3798828125,11.572265625 1.81640625,12.890625 2.00042724609375,16.3742065429688 2.552490234375,19.383544921875 3.47259521484375,21.9186401367188 4.7607421875,23.9794921875 6.42791748046875,25.5807495117188 8.485107421875,26.737060546875 10.9323120117188,27.4484252929688 13.76953125,27.71484375 12.421875,24.7998046875 11.923828125,21.005859375 12.2094717025757,18.08349609375 13.06640625,15.64453125 12.1508779525757,13.817138671875 10.810546875,12.3779296875 9.07470607757568,11.444091796875 6.97265625,11.1328125z M17.16796875,8.291015625L18.1787109375,8.6279296875 18.515625,9.638671875 18.1640625,10.6640625 17.16796875,11.044921875 16.142578125,10.6640625 15.76171875,9.638671875 16.142578125,8.642578125 17.16796875,8.291015625z M23.73046875,5.7421875L23.73046875,6.50390625 23.2141094207764,10.53955078125 21.6650390625,13.505859375 19.010009765625,15.43212890625 15.17578125,16.34765625 14.033203125,18.7646484375 13.65234375,21.38671875 14.3408203125,24.814453125 16.2890625,27.48046875 18.6767578125,27.13623046875 20.7421875,26.337890625 23.90625,23.6572265625 25.7958984375,19.833984375 26.42578125,15.263671875 25.7373046875,10.4443359375 23.73046875,5.7421875z M14.033203125,1.845703125L9.814453125,2.3291015625 6.533203125,3.8671875 4.013671875,6.591796875 2.05078125,10.60546875 4.68017578125,9.61669921875 7.236328125,9.287109375 9.77416896820068,9.620361328125 11.8798828125,10.6201171875 13.502197265625,12.191162109375 14.58984375,14.23828125 17.816162109375,13.7255859375 20.1123046875,12.1875 21.4855937957764,9.58740234375 21.943359375,5.888671875 21.9140625,5.09765625 21.85546875,4.306640625 20.386962890625,3.22998046875 18.5009765625,2.4609375 14.033203125,1.845703125z M13.76953125,0L17.156982421875,0.263671875 20.1123046875,1.0546875 22.6245098114014,2.318115234375 24.6826171875,3.9990234375 26.2866191864014,6.0791015625 27.4365234375,8.5400390625 28.1286602020264,11.319580078125 28.359375,14.35546875 28.1249980926514,17.808837890625 27.421875,20.8447265625 26.2756328582764,23.448486328125 24.7119140625,25.60546875 22.7453594207764,27.3046875 20.390625,28.53515625 17.666015625,29.2822265625 14.58984375,29.53125 11.1703491210938,29.2941284179688 8.206787109375,28.582763671875 5.69915771484375,27.3971557617188 3.6474609375,25.7373046875 2.05169677734375,23.6032104492188 0.911865234375,20.994873046875 0.22796630859375,17.9122924804688 0,14.35546875 0.234375,11.14013671875 0.9375,8.291015625 2.083740234375,5.830078125 3.6474609375,3.779296875 5.61767578125,2.1533203125 7.9833984375,0.966796875 10.7116689682007,0.24169921875 13.76953125,0z" />
    </g>
  </g>
</svg>