<?xml version="1.0" encoding="utf-8"?>
<!DOCTYPE svg PUBLIC "-//W3C//DTD SVG 1.1//EN" "http://www.w3.org/Graphics/SVG/1.1/DTD/svg11.dtd">
<svg width="31.376953125" height="42.01171875" xmlns="http://www.w3.org/2000/svg" xmlns:xlink="http://www.w3.org/1999/xlink" xmlns:xml="http://www.w3.org/XML/1998/namespace" version="1.1">
  <g>
    <g>
      <path style="fill:#FF0000;fill-opacity:1" d="M0,0L4.921875,0 4.921875,13.154296875 9.3017578125,11.572265625 12.9052734375,8.759765625 15.3369140625,4.951171875 16.007080078125,2.73193359375 16.23046875,0.3515625 16.23046875,0 21.064453125,0 21.064453125,0.46875 20.7678203582764,3.56689453125 19.8779296875,6.474609375 18.4570293426514,9.15527439117432 16.5673828125,11.572265625 14.23095703125,13.6962909698486 11.4697265625,15.498046875 8.34594631195068,16.9482440948486 4.921875,18.017578125 4.921875,23.525390625 10.6201171875,21.8115234375 15.76171875,19.072265625 20.15625,15.4248046875 23.5693359375,11.015625 25.7666015625,5.947265625 26.348876953125,3.20068359375 26.54296875,0.3515625 26.54296875,0 31.376953125,0 31.376953125,0.46875 31.16455078125,3.687744140625 30.52734375,6.8408203125 28.0810546875,12.802734375 24.169921875,18.134765625 18.9111328125,22.6318359375 12.451171875,26.07421875 4.921875,28.271484375 4.921875,42.01171875 0,42.01171875 0,0z" />
    </g>
  </g>
</svg>