<?xml version="1.0" encoding="utf-8"?>
<!DOCTYPE svg PUBLIC "-//W3C//DTD SVG 1.1//EN" "http://www.w3.org/Graphics/SVG/1.1/DTD/svg11.dtd">
<svg width="28.740234375" height="42.01171875" xmlns="http://www.w3.org/2000/svg" xmlns:xlink="http://www.w3.org/1999/xlink" xmlns:xml="http://www.w3.org/XML/1998/namespace" version="1.1">
  <g>
    <g>
      <path style="fill:#FF0000;fill-opacity:1" d="M4.130859375,0L9.052734375,0 9.052734375,14.560546875 10.8984375,15.6884765625 12.275390625,17.34375 16.7578125,14.8828125 20.3466796875,11.2939453125 22.7197265625,6.50390625 23.3679180145264,3.6474609375 23.583984375,0.46875 23.583984375,0 28.740234375,0 28.740234375,0.3515625 28.4582500457764,4.031982421875 27.6123046875,7.5146484375 26.2536602020264,10.7556161880493 24.43359375,13.7109375 22.17041015625,16.3513202667236 19.482421875,18.6474609375 16.4208984375,20.555419921875 13.037109375,22.03125 11.6455078125,24.9609375 9.052734375,26.806640625 9.052734375,42.01171875 4.130859375,42.01171875 4.130859375,26.806640625 2.46093726158142,25.83984375 1.15722680091858,24.43359375 0.3076171875,22.6904296875 0,20.68359375 0.285644501447678,18.69140625 1.14257788658142,16.93359375 2.4609375,15.5200214385986 4.130859375,14.560546875 4.130859375,0z" />
    </g>
  </g>
</svg>