<?xml version="1.0" encoding="utf-8"?>
<!DOCTYPE svg PUBLIC "-//W3C//DTD SVG 1.1//EN" "http://www.w3.org/Graphics/SVG/1.1/DTD/svg11.dtd">
<svg width="27.275390625" height="42.01171875" xmlns="http://www.w3.org/2000/svg" xmlns:xlink="http://www.w3.org/1999/xlink" xmlns:xml="http://www.w3.org/XML/1998/namespace" version="1.1">
  <g>
    <g>
      <path style="fill:#FF0000;fill-opacity:1" d="M8.37890625,15.703125L5.361328125,20.888671875 8.349609375,25.8984375 11.220703125,20.888671875 8.37890625,15.703125z M19.189453125,15.673828125L16.2890625,20.830078125 19.189453125,26.015625 22.236328125,20.888671875 19.189453125,15.673828125z M0.644531190395355,0L6.18164110183716,0 12.626953125,13.828125 13.2568359375,15.29296875 13.798828125,16.787109375 13.88671875,16.787109375 14.5458984375,15.0732421875 15.146484375,13.7109375 21.796875,0 27.099609375,0 21.03515625,12.01171875 26.279296875,20.888671875 20.9765625,29.53125 27.275390625,42.01171875 21.6796875,42.01171875 14.384765625,26.923828125 14.0478515625,26.0302734375 13.65234375,24.814453125 13.564453125,24.814453125 13.2861328125,25.6787109375 12.7734375,26.923828125 5.30273389816284,42.01171875 0,42.01171875 6.50390625,29.4140625 1.31835961341858,20.888671875 6.56249952316284,12.01171875 0.644531190395355,0z" />
    </g>
  </g>
</svg>