<?xml version="1.0" encoding="utf-8"?>
<!DOCTYPE svg PUBLIC "-//W3C//DTD SVG 1.1//EN" "http://www.w3.org/Graphics/SVG/1.1/DTD/svg11.dtd">
<svg width="27.275390625" height="42.01171875" xmlns="http://www.w3.org/2000/svg" xmlns:xlink="http://www.w3.org/1999/xlink" xmlns:xml="http://www.w3.org/XML/1998/namespace" version="1.1">
  <g>
    <g>
      <path style="fill:#FF0000;fill-opacity:1" d="M8.37890625,15.703125L5.361328125,20.888671875 8.349609375,25.8984375 11.220703125,20.888671875 8.37890625,15.703125z M19.189453125,15.673828125L16.2890625,20.830078125 19.189453125,26.015625 22.236328125,20.888671875 19.189453125,15.673828125z M0.644531190395355,0L6.18164110183716,0 9.111328125,6.26953125 10.5908203125,9.990234375 11.689453125,13.65234375 11.806640625,13.65234375 11.806640625,0 15.64453125,0 15.64453125,13.65234375 15.76171875,13.65234375 17.1240234375,9.990234375 18.75,6.298828125 21.796875,0 27.099609375,0 21.03515625,12.01171875 26.279296875,20.888671875 20.9765625,29.53125 27.275390625,42.01171875 21.6796875,42.01171875 18.603515625,35.625 16.93359375,31.6259765625 15.76171875,27.626953125 15.64453125,27.626953125 15.64453125,42.01171875 11.806640625,42.01171875 11.806640625,27.626953125 11.689453125,27.626953125 10.283203125,31.5966796875 8.466796875,35.625 5.30273389816284,42.01171875 0,42.01171875 6.533203125,29.384765625 1.31835961341858,20.888671875 6.56249952316284,12.01171875 0.644531190395355,0z" />
    </g>
  </g>
</svg>