<?xml version="1.0" encoding="utf-8"?>
<!DOCTYPE svg PUBLIC "-//W3C//DTD SVG 1.1//EN" "http://www.w3.org/Graphics/SVG/1.1/DTD/svg11.dtd">
<svg width="58.9453125000011" height="65.2734375" xmlns="http://www.w3.org/2000/svg" xmlns:xlink="http://www.w3.org/1999/xlink" xmlns:xml="http://www.w3.org/XML/1998/namespace" version="1.1">
  <g>
    <g>
      <path style="fill:#FF0000;fill-opacity:1" d="M46.46484375,42.099609375L44.35546875,44.208984375 44.35546875,61.0546875 48.544921875,44.208984375 46.46484375,42.099609375z M38.02734375,42.099609375L35.91796875,44.208984375 35.91796875,61.0546875 40.13671875,61.0546875 40.13671875,44.208984375 38.02734375,42.099609375z M29.619140625,42.099609375L27.509765625,44.208984375 27.509765625,61.0546875 31.69921875,61.0546875 31.69921875,44.208984375 29.619140625,42.099609375z M21.181640625,42.099609375L19.072265625,44.208984375 19.072265625,61.0546875 23.291015625,61.0546875 23.291015625,44.208984375 21.181640625,42.099609375z M12.7734375,42.099609375L10.6640625,44.208984375 14.853515625,61.0546875 14.853515625,44.208984375 12.7734375,42.099609375z M35.80078125,4.306640625L35.80078125,4.775390625 35.80078125,5.33203125 35.7421875,6.4306640625 35.4638671875,7.412109375 34.8193359375,8.1298828125 33.69140625,8.408203125 23.173828125,8.408203125 20.712890625,8.90625 18.7060546875,10.25390625 17.34375,12.2607431411743 16.845703125,14.736328125 16.93359375,15.8056640625 17.2265625,16.845703125 15.157470703125,17.109375 13.3447265625,17.900390625 11.890869140625,19.21875 10.8984375,21.064453125 10.576171875,22.470703125 10.517578125,23.90625 10.517578125,25.25390625 9.462890625,25.25390625 7.4267578125,25.6640625 5.7568359375,26.7919921875 4.62890625,28.4765625 4.21875,30.52734375 4.427490234375,32.04345703125 5.0537109375,33.427734375 7.3828125,35.361328125 7.998046875,33.046875 9.375,31.171875 11.337890625,29.9267578125 13.681640625,29.47265625 54.638671875,29.47265625 53.9794921875,27.7880859375 52.8076171875,26.4404296875 51.26953125,25.5615234375 49.482421875,25.25390625 12.626953125,25.25390625 12.9638671875,23.61328125 13.8720703125,22.2802734375 15.205078125,21.38671875 16.845703125,21.064453125 48.046875,21.064453125 46.1279296875,18.251953125 44.6813926696777,17.3876953125 43.0078125,16.904296875 42.099609375,16.81640625 41.07421875,16.787109375 39.4775390625,16.81640625 38.056640625,16.845703125 18.955078125,16.845703125 19.27734375,15.205078125 20.1708984375,13.8720703125 21.5185546875,12.9638671875 23.173828125,12.626953125 33.310546875,12.626953125 35.126953125,12.24609375 36.6064453125,11.220703125 37.587890625,9.7265625 37.939453125,7.91015577316284 37.3974609375,5.84472703933716 35.888671875,4.3359375 35.8447265625,4.32128953933716 35.80078125,4.306640625z M31.58203125,0L35.80078125,0 38.331298828125,0.249026298522949 40.7080078125,0.996093809604645 44.7216796875,3.70605421066284 47.431640625,7.7197265625 48.1787071228027,10.096435546875 48.427734375,12.626953125 48.3837890625,13.6376953125 48.28125,14.6484375 51.09375,17.6806640625 52.0092735290527,19.552001953125 52.529296875,21.5625 55.1513671875,22.939453125 57.1728515625,25.0048828125 58.4765625,27.59765625 58.9453125,30.52734375 58.677978515625,32.801513671875 57.8759765625,34.9365234375 56.590576171875,36.815185546875 54.873046875,38.3203125 54.8876953125,39.580078125 54.90234375,40.810546875 54.814453125,42.6416015625 54.4482421875,44.3701171875 53.61328125,45.9375 52.119140625,47.314453125 47.63671875,65.2734375 11.572265625,65.2734375 7.08984375,47.314453125 5.595703125,45.9375 4.7607421875,44.3994140625 4.39453125,42.7001953125 4.306640625,40.869140625 4.3212890625,39.697265625 4.3359375,38.49609375 2.530517578125,36.983642578125 1.1572265625,35.0830078125 0.289306282997131,32.904052734375 0,30.556640625 0.468750476837158,27.6123046875 1.7724609375,25.0048828125 3.7939453125,22.9248046875 6.4453125,21.533203125 7.1923828125,18.9697265625 8.5400390625,16.7138671875 10.4150390625,14.8388671875 12.71484375,13.4765625 13.857421875,9.814453125 16.171875,6.87011671066284 19.3798828125,4.92187452316284 23.173828125,4.21875 31.58203125,4.21875 31.58203125,0z" />
    </g>
  </g>
</svg>