<?xml version="1.0" encoding="utf-8"?>
<!DOCTYPE svg PUBLIC "-//W3C//DTD SVG 1.1//EN" "http://www.w3.org/Graphics/SVG/1.1/DTD/svg11.dtd">
<svg width="67.3828125000029" height="67.3828125" xmlns="http://www.w3.org/2000/svg" xmlns:xlink="http://www.w3.org/1999/xlink" xmlns:xml="http://www.w3.org/XML/1998/namespace" version="1.1">
  <g>
    <g>
      <path style="fill:#FF0000;fill-opacity:1" d="M25.1953125,48.45703125L14.595100402832,53.7425346374512 18.33984375,57.36328125 23.525390625,60.52734375 29.267578125,62.490234375 35.390625,63.1640625 35.80078125,63.1787109375 36.240234375,63.193359375 37.08984375,63.10546875 38.9208984375,61.9921875 39.638671875,59.970703125 39.3896484375,58.7109375 38.7158203125,57.685546875 37.705078125,56.9970703125 36.4453125,56.748046875 32.724609375,56.1474609375 29.443359375,54.462890625 26.8505859375,51.8408203125 25.1953125,48.45703125z M5.59570217132568,31.318359375L5.4931640625,32.8125 5.44921875,34.306640625 5.66162014007568,37.825927734375 6.298828125,41.2939453125 7.35351467132568,44.659423828125 8.818359375,47.87109375 9.462890625,49.0283203125 10.166015625,50.126953125 11.07421875,50.625 11.513671875,50.5224609375 11.923828125,50.302734375 19.5263671875,46.4794921875 27.12890625,42.71484375 28.857421875,39.08203125 17.255859375,35.15625 5.59570217132568,31.318359375z M53.759765625,14.53125L48.427734375,25.1953125 51.8115234375,26.8505859375 54.4482421875,29.443359375 56.1474609375,32.724609375 56.748046875,36.4453125 56.9970703125,37.705078125 57.685546875,38.73046875 58.7109375,39.4189453125 59.970703125,39.66796875 61.23046875,39.4189453125 62.2412109375,38.73046875 62.9150390625,37.705078125 63.1640625,36.4453125 63.1640625,35.390625 62.5341796875,29.501953125 60.703125,23.9501953125 57.7587890625,18.9111328125 53.759765625,14.53125z M34.306640625,5.44921922683716L32.8125,5.49316358566284 31.318359375,5.59570264816284 39.08203125,28.88671875 39.7412109375,28.447265625 40.7666015625,27.861328125 41.8359375,27.3486328125 42.626953125,27.12890625 43.7109375,25.0927734375 45.322265625,21.97265625 47.1533203125,18.3837890625 48.8671875,14.9560546875 50.126953125,12.3193359375 50.5004844665527,11.473388671875 50.625,11.07421875 50.126953125,10.166015625 49.0283203125,9.462890625 47.87109375,8.818359375 44.6594200134277,7.353515625 41.2939453125,6.298828125 37.825927734375,5.66162395477295 34.306640625,5.44921922683716z M25.576171875,4.21874952316284L25.3125,4.248046875 21.5881328582764,5.51513957977295 18.0908203125,7.265625 11.982421875,11.982421875 7.2802734375,18.0908203125 5.53344631195068,21.588134765625 4.248046875,25.3125 4.21875,25.576171875 4.423828125,26.19140625 4.951171875,26.6015625 32.16796875,35.68359375 32.8564453125,35.888671875 33.544921875,35.9765625 35.2587890625,35.2880859375 35.9765625,33.57421875 35.859375,32.783203125 26.6015625,4.95117235183716 26.19140625,4.423828125 25.576171875,4.21874952316284z M25.546875,0L27.6123046875,0.424805164337158 29.35546875,1.61132788658142 34.306640625,1.259765625 39.0234375,1.59667932987213 43.76953125,2.60742163658142 48.3251953125,4.2919921875 52.44140625,6.650390625 53.8842735290527,8.04931640625 54.697265625,9.84375 60.0732421875,14.9853515625 64.0576171875,21.123046875 65.489501953125,24.4848651885986 66.533203125,28.0078125 67.17041015625,31.6552734375 67.3828125,35.390625 67.3828125,35.9765625 67.353515625,37.0458984375 67.20703125,38.0859375 66.2109375,40.4296875 64.599609375,42.24609375 62.4755859375,43.4326171875 59.970703125,43.857421875 57.0703125,43.271484375 54.7265625,41.689453125 53.14453125,39.345703125 52.55859375,36.4453125 52.1044921875,33.8671875 50.830078125,31.6552734375 48.896484375,29.9853515625 46.46484375,29.033203125 45.5859375,30.76171875 45.17578125,30.849609375 43.65234375,31.23046875 42.509765625,31.6845703125 41.455078125,32.40234375 40.224609375,33.603515625 39.697265625,36.1669921875 38.26171875,38.26171875 36.15234375,39.6826171875 33.603515625,40.1953125 32.3876953125,41.455078125 31.669921875,42.509765625 31.23046875,43.681640625 30.849609375,45.263671875 30.76171875,45.615234375 29.033203125,46.46484375 29.9853515625,48.896484375 31.6552734375,50.830078125 33.8671875,52.1044921875 36.4453125,52.55859375 39.3310546875,53.14453125 41.689453125,54.7265625 43.271484375,57.0849609375 43.857421875,59.970703125 43.271484375,62.87109375 41.6748046875,65.21484375 39.31640625,66.796875 36.4453125,67.3828125 35.390625,67.3828125 31.6552734375,67.17041015625 28.0078125,66.533203125 24.48486328125,65.489501953125 21.123046875,64.0576171875 14.9853515625,60.0732421875 9.84375,54.697265625 8.04931640625,53.88427734375 6.650390625,52.44140625 4.3212890625,48.310546875 2.6220703125,43.7841796875 1.5966796875,39.052734375 1.259765625,34.306640625 1.611328125,29.35546875 0.424805164337158,27.6123046875 0,25.546875 0.175781726837158,24.19921875 1.622314453125,19.98046875 3.6181640625,15.99609375 6.10107326507568,12.315673828125 9.0087890625,9.0087890625 12.31201171875,6.10107707977295 15.9814453125,3.61816382408142 19.9621562957764,1.62231731414795 24.19921875,0.175781726837158 25.546875,0z" />
    </g>
  </g>
</svg>