<?xml version="1.0" encoding="utf-8"?>
<!DOCTYPE svg PUBLIC "-//W3C//DTD SVG 1.1//EN" "http://www.w3.org/Graphics/SVG/1.1/DTD/svg11.dtd">
<svg width="67.3828125000005" height="67.3828125" xmlns="http://www.w3.org/2000/svg" xmlns:xlink="http://www.w3.org/1999/xlink" xmlns:xml="http://www.w3.org/XML/1998/namespace" version="1.1">
  <g>
    <g>
      <path style="fill:#FF0000;fill-opacity:1" d="M21.826171875,46.875L23.0419921875,47.1240234375 24.0380859375,47.7978515625 24.7119140625,48.7939453125 24.9609375,50.009765625 24.7119140625,51.2255859375 24.0380859375,52.236328125 23.0419921875,52.9248046875 21.826171875,53.173828125 20.6103515625,52.9248046875 19.599609375,52.236328125 18.9111328125,51.2255859375 18.662109375,50.009765625 18.9111328125,48.7939453125 19.599609375,47.7978515625 20.6103515625,47.1240234375 21.826171875,46.875z M30.703125,43.447265625L32.197265625,44.0771484375 32.8125,45.556640625 32.197265625,47.0361328125 30.703125,47.666015625 29.23828125,47.0361328125 28.623046875,45.556640625 29.23828125,44.0771484375 30.703125,43.447265625z M12.919921875,43.447265625L14.4140625,44.0771484375 15.029296875,45.556640625 14.4140625,47.0361328125 12.919921875,47.666015625 11.455078125,47.0361328125 10.83984375,45.556640625 11.455078125,44.0771484375 12.919921875,43.447265625z M23.291015625,39.0234375L24.78515625,39.6240234375 25.400390625,41.103515625 24.78515625,42.5830078125 23.291015625,43.212890625 21.826171875,42.5830078125 21.2109375,41.103515625 21.826171875,39.6240234375 23.291015625,39.0234375z M33.69140625,34.5703125L35.1708984375,35.185546875 35.80078125,36.6796875 35.1708984375,38.14453125 33.69140625,38.759765625 32.2119140625,38.14453125 31.58203125,36.6796875 32.2119140625,35.185546875 33.69140625,34.5703125z M11.42578125,33.076171875L12.919921875,33.69140625 13.53515625,35.185546875 12.919921875,36.650390625 11.42578125,37.265625 9.9609375,36.650390625 9.345703125,35.185546875 9.9609375,33.69140625 11.42578125,33.076171875z M44.0625,30.556640625L45.2783203125,30.8056640625 46.2744140625,31.4794921875 46.9482421875,32.4755859375 47.197265625,33.69140625 46.9482421875,34.9072265625 46.2744140625,35.91796875 45.2783203125,36.6064453125 44.0625,36.85546875 42.8466796875,36.6064453125 41.8359375,35.91796875 41.1474609375,34.9072265625 40.8984375,33.69140625 41.1474609375,32.4755859375 41.8359375,31.4794921875 42.8466796875,30.8056640625 44.0625,30.556640625z M29.23828125,27.158203125L30.7177734375,27.7734375 31.34765625,29.267578125 30.7177734375,30.732421875 29.23828125,31.34765625 27.7734375,30.732421875 27.158203125,29.267578125 27.7734375,27.7734375 29.23828125,27.158203125z M18.8671875,26.103515625L20.0830078125,26.3525390625 21.0791015625,27.0263671875 21.7529296875,28.0224609375 22.001953125,29.23828125 21.7529296875,30.4541015625 21.0791015625,31.46484375 20.0830078125,32.1533203125 18.8671875,32.40234375 17.6513671875,32.1533203125 16.640625,31.46484375 15.9521484375,30.4541015625 15.703125,29.23828125 15.9521484375,28.0224609375 16.640625,27.0263671875 17.6513671875,26.3525390625 18.8671875,26.103515625z M52.96875,21.2109375L54.4482421875,21.826171875 55.048828125,23.3203125 54.4482421875,24.78515625 52.96875,25.400390625 51.4892578125,24.78515625 50.859375,23.3203125 51.4892578125,21.826171875 52.96875,21.2109375z M44.0625,21.2109375L45.556640625,21.826171875 46.171875,23.3203125 45.556640625,24.78515625 44.0625,25.400390625 42.59765625,24.78515625 41.982421875,23.3203125 42.59765625,21.826171875 44.0625,21.2109375z M35.15625,18.251953125L36.650390625,18.8671875 37.265625,20.361328125 36.650390625,21.826171875 35.15625,22.44140625 33.69140625,21.826171875 33.076171875,20.361328125 33.69140625,18.8671875 35.15625,18.251953125z M26.279296875,18.251953125L27.7587890625,18.8671875 28.359375,20.361328125 27.7587890625,21.826171875 26.279296875,22.44140625 24.7998046875,21.826171875 24.169921875,20.361328125 24.7998046875,18.8671875 26.279296875,18.251953125z M58.7109375,17.197265625L59.384765625,21.85546875 59.1650390625,24.5910663604736 58.505859375,27.1728515625 56.0888671875,31.787109375 52.470703125,35.6103515625 47.98828125,38.5546875 45.46875,40.078125 43.212890625,41.982421875 41.806640625,43.4033203125 40.60546875,44.765625 39.5361328125,46.2451171875 38.525390625,47.98828125 35.56640625,52.5 31.7578125,56.103515625 27.1435546875,58.505859375 24.554443359375,59.1650390625 21.796875,59.384765625 17.197265625,58.740234375 19.4567852020264,60.618896484375 22.0166015625,62.0361328125 24.803466796875,62.926025390625 27.744140625,63.22265625 30.186767578125,63.021240234375 32.4755859375,62.4169921875 36.5771484375,60.2197265625 39.9755859375,56.9677734375 42.59765625,52.96875 44.2822265625,50.1708984375 46.40625,47.666015625 47.958984375,46.142578125 49.453125,44.8388671875 51.064453125,43.6962890625 52.96875,42.59765625 56.9677734375,39.9755859375 60.205078125,36.591796875 62.3876953125,32.5048828125 62.991943359375,30.2160663604736 63.193359375,27.7734375 62.896728515625,24.8291034698486 62.0068359375,22.03125 60.589599609375,19.46044921875 58.7109375,17.197265625z M45.556640625,10.83984375L47.021484375,11.455078125 47.63671875,12.94921875 47.021484375,14.4140625 45.556640625,15.029296875 44.0771484375,14.4140625 43.447265625,12.94921875 44.0771484375,11.455078125 45.556640625,10.83984375z M36.650390625,8.3203125L37.8662109375,8.5693359375 38.8623046875,9.2431640625 39.5361328125,10.2392578125 39.78515625,11.455078125 39.5361328125,12.6708984375 38.8623046875,13.681640625 37.8662109375,14.3701171875 36.650390625,14.619140625 35.4345703125,14.3701171875 34.423828125,13.681640625 33.7353515625,12.6708984375 33.486328125,11.455078125 33.7353515625,10.2392578125 34.423828125,9.2431640625 35.4345703125,8.5693359375 36.650390625,8.3203125z M39.638671875,4.18945360183716L36.767578125,4.46777629852295 34.013671875,5.302734375 31.47216796875,6.65771770477295 29.23828125,8.49609375 27.451171875,10.400390625 25.8984375,12.48046875 24.55078125,14.82421875 23.173828125,17.138671875 22.119140625,18.45703125 20.9765625,19.716796875 19.423828125,21.2548828125 17.9296875,22.5439453125 16.318359375,23.6865234375 14.4140625,24.78515625 10.4150390625,27.4072265625 7.1630859375,30.791015625 4.98046875,34.8779296875 4.38720703125,37.166748046875 4.189453125,39.609375 4.453125,42.333984375 5.21484470367432,45.0146484375 6.4453125,47.5048828125 8.14453125,49.658203125 9.78515625,51.3134765625 11.455078125,52.96875 13.699951171875,54.80712890625 16.2158203125,56.162109375 18.9440898895264,56.9970703125 21.826171875,57.275390625 25.360107421875,56.8798828125 28.4619140625,55.693359375 31.234130859375,53.81103515625 33.779296875,51.328125 35.4638671875,49.0576171875 36.85546875,46.7431640625 38.2763671875,44.4140625 40.078125,42.12890625 43.3154296875,39.0673828125 47.021484375,36.650390625 51.03515625,34.0576171875 54.3017578125,30.673828125 56.484375,26.572265625 57.07763671875,24.2724628448486 57.275390625,21.826171875 56.9970703125,18.958740234375 56.162109375,16.2158203125 54.8071250915527,13.685302734375 52.96875,11.455078125 50.009765625,8.49609375 47.7648887634277,6.65771770477295 45.2490234375,5.302734375 42.5207481384277,4.46777629852295 39.638671875,4.18945360183716z M39.609375,0L43.3520469665527,0.355227500200272 46.845703125,1.42089867591858 50.0610313415527,3.15307903289795 52.96875,5.5078125 57.4658203125,9.931640625 61.875,14.4140625 64.229736328125,17.325439453125 65.9619140625,20.5517578125 67.027587890625,24.0490741729736 67.3828125,27.7734375 67.144775390625,30.838623046875 66.4306640625,33.7060546875 63.80859375,38.818359375 59.8388671875,43.0517578125 54.84375,46.34765625 51.9140625,48.251953125 49.365234375,50.625 47.7099609375,52.6025390625 46.34765625,54.84375 43.037109375,59.82421875 38.7890625,63.7939453125 33.6767578125,66.4306640625 30.809326171875,67.144775390625 27.744140625,67.3828125 24.0673828125,67.027587890625 20.537109375,65.9619140625 17.2778301239014,64.229736328125 14.4140625,61.875 5.5078125,52.96875 3.153076171875,50.10498046875 1.4208984375,46.845703125 0.355224251747131,43.3154296875 0,39.638671875 0.238036751747131,36.573486328125 0.9521484375,33.7060546875 3.57421875,28.5791015625 7.5439453125,24.3310546875 12.5390625,21.03515625 14.150390625,20.09765625 15.46875,19.130859375 16.6845703125,18.0615234375 17.98828125,16.7578125 19.6728515625,14.765625 21.03515625,12.5390625 24.345703125,7.57324266433716 28.59375,3.58886671066284 33.7060546875,0.952147960662842 36.566162109375,0.238039910793304 39.609375,0z" />
    </g>
  </g>
</svg>