<?xml version="1.0" encoding="utf-8"?>
<!DOCTYPE svg PUBLIC "-//W3C//DTD SVG 1.1//EN" "http://www.w3.org/Graphics/SVG/1.1/DTD/svg11.dtd">
<svg width="37.9101562500006" height="67.3828125" xmlns="http://www.w3.org/2000/svg" xmlns:xlink="http://www.w3.org/1999/xlink" xmlns:xml="http://www.w3.org/XML/1998/namespace" version="1.1">
  <g>
    <g>
      <path style="fill:#FF0000;fill-opacity:1" d="M4.21875,52.646484375L4.21875,56.865234375 4.716796875,59.326171875 6.064453125,61.318359375 8.056640625,62.666015625 10.517578125,63.1640625 27.36328125,63.1640625 29.82421875,62.666015625 31.8310546875,61.318359375 33.193359375,59.326171875 33.69140625,56.865234375 33.69140625,52.646484375 4.21875,52.646484375z M17.900390625,40.01953125L17.1533203125,40.3271484375 16.845703125,41.07421875 17.16796875,41.806640625 17.900390625,42.12890625 18.6328125,41.806640625 18.955078125,41.07421875 18.6474609375,40.3271484375 17.900390625,40.01953125z M18.955078125,32.900390625L22.79296875,40.60546875 23.173828125,42.12890625 22.8369140625,43.76953125 21.9287109375,45.1025390625 20.595703125,45.99609375 18.955078125,46.318359375 17.314453125,45.99609375 15.9814453125,45.1025390625 15.0732421875,43.76953125 14.736328125,42.12890625 15.087890625,40.60546875 18.955078125,32.900390625z M8.408203125,31.58203125L8.408203125,48.427734375 29.47265625,48.427734375 29.47265625,31.58203125 8.408203125,31.58203125z M12.626953125,14.736328125L7.91015625,19.453125 5.3759765625,23.0712890625 4.617919921875,25.1623554229736 4.248046875,27.36328125 33.662109375,27.36328125 32.51953125,23.0859375 30,19.453125 25.25390625,14.736328125 12.626953125,14.736328125z M14.736328125,4.21874952316284L13.2421875,4.83398485183716 12.626953125,6.328125 12.626953125,10.517578125 25.25390625,10.517578125 25.25390625,6.328125 24.638671875,4.84863233566284 23.173828125,4.21874952316284 14.736328125,4.21874952316284z M14.736328125,0L23.173828125,0 25.60546875,0.498046875 27.6123046875,1.86035132408142 28.974609375,3.8818359375 29.47265625,6.328125 29.47265625,13.0078125 32.958984375,16.494140625 35.079345703125,19.053955078125 36.6357421875,21.9287109375 37.591552734375,25.0598163604736 37.91015625,28.388671875 37.91015625,56.865234375 37.701416015625,58.970947265625 37.0751953125,60.9521484375 34.8046875,64.306640625 31.4501953125,66.5625 29.468994140625,67.177734375 27.36328125,67.3828125 10.517578125,67.3828125 8.411865234375,67.177734375 6.4306640625,66.5625 3.076171875,64.306640625 0.8203125,60.9521484375 0.205077767372131,58.970947265625 0,56.865234375 0,28.388671875 0.318603157997131,25.0964374542236 1.2744140625,21.9580078125 2.823486328125,19.061279296875 4.921875,16.494140625 8.408203125,13.0078125 8.408203125,6.328125 8.90625,3.86718726158142 10.2685546875,1.86035132408142 12.275390625,0.498046875 14.736328125,0z" />
    </g>
  </g>
</svg>