<?xml version="1.0" encoding="utf-8"?>
<!DOCTYPE svg PUBLIC "-//W3C//DTD SVG 1.1//EN" "http://www.w3.org/Graphics/SVG/1.1/DTD/svg11.dtd">
<svg width="67.3828125" height="67.412109375" xmlns="http://www.w3.org/2000/svg" xmlns:xlink="http://www.w3.org/1999/xlink" xmlns:xml="http://www.w3.org/XML/1998/namespace" version="1.1">
  <g>
    <g>
      <path style="fill:#FF0000;fill-opacity:1" d="M10.517578125,32.16796875L6.32812452316284,40.01953125 11.806640625,40.01953125 8.4375,46.34765625 18.955078125,46.34765625 21.38671875,46.845703125 23.3935546875,48.2080078125 24.7705078125,50.21484375 25.283203125,52.646484375 25.283203125,54.755859375 25.9423828125,58.0517578125 27.744140625,60.732421875 30.41015625,62.5341796875 33.69140625,63.193359375 36.9873046875,62.5341796875 39.66796875,60.732421875 41.4697265625,58.0517578125 42.12890625,54.755859375 42.12890625,52.646484375 42.626953125,50.21484375 43.9892578125,48.2080078125 45.99609375,46.845703125 48.427734375,46.34765625 58.974609375,46.34765625 55.576171875,40.01953125 61.083984375,40.01953125 56.865234375,32.16796875 56.865234375,34.892578125 42.1875,43.916015625 41.455078125,44.3701171875 40.751953125,44.8681640625 40.224609375,45.5126953125 40.01953125,46.34765625 40.01953125,52.646484375 35.185546875,58.359375 34.51171875,58.8134765625 33.69140625,58.974609375 32.87109375,58.8134765625 32.197265625,58.359375 27.392578125,52.646484375 27.392578125,46.34765625 27.216796875,45.6005859375 26.7626953125,44.9853515625 26.1328125,44.4873046875 25.458984375,44.0625 23.84765625,43.037109375 17.2119140625,38.90625 10.517578125,34.892578125 10.517578125,32.16796875z M45.263671875,25.283203125L46.4208984375,25.517578125 47.431640625,26.1474609375 48.1494140625,27.0849609375 48.427734375,28.2421875 48.427734375,32.63671875 48.1787109375,33.8818359375 47.5048828125,34.8779296875 46.494140625,35.5517578125 45.263671875,35.80078125 44.0185546875,35.5517578125 43.037109375,34.86328125 42.3779296875,33.8525390625 42.12890625,32.63671875 42.12890625,28.2421875 42.392578125,27.0849609375 43.095703125,26.1474609375 44.1064453125,25.517578125 45.263671875,25.283203125z M22.119140625,25.283203125L23.3349609375,25.5322265625 24.345703125,26.220703125 25.0341796875,27.2314453125 25.283203125,28.447265625 25.283203125,32.63671875 25.0341796875,33.8525390625 24.345703125,34.86328125 23.3349609375,35.5517578125 22.119140625,35.80078125 20.8740234375,35.5517578125 19.8779296875,34.8779296875 19.2041015625,33.8818359375 18.955078125,32.63671875 18.955078125,28.2421875 19.2333984375,27.0849609375 19.951171875,26.1474609375 20.9619140625,25.517578125 22.119140625,25.283203125z M14.736328125,4.21874952316284L13.7109375,4.453125 13.06640625,5.05371046066284 12.7294921875,5.9033203125 12.626953125,6.91406202316284 21.884765625,15.263671875 22.2509765625,15.849609375 22.3828125,16.5234375 22.1337890625,17.431640625 21.474609375,18.10546875 12.626953125,23.14453125 12.626953125,33.720703125 26.337890625,42.12890625 27.7734375,43.0810546875 28.76953125,44.0771484375 29.3408203125,45.322265625 29.53125,47.021484375 29.501953125,48.7939453125 29.47265625,50.56640625 37.91015625,50.56640625 37.880859375,49.2626953125 37.8515625,47.724609375 37.91015625,46.0986328125 38.203125,44.736328125 39.3896484375,43.271484375 40.986328125,42.1875 41.07421875,42.12890625 54.755859375,33.720703125 54.755859375,23.173828125 45.908203125,18.10546875 45.234375,17.4462890625 44.970703125,16.5234375 45.1025390625,15.849609375 45.46875,15.263671875 54.755859375,6.884765625 54.755859375,6.328125 54.140625,4.833984375 52.646484375,4.21874952316284 51.240234375,4.775390625 44.560546875,10.810546875 37.880859375,16.845703125 29.443359375,16.845703125 16.171875,4.775390625 15.498046875,4.37988233566284 14.736328125,4.21874952316284z M14.736328125,0L17.0361328125,0.439452886581421 19.013671875,1.69921875 31.083984375,12.65625 36.240234375,12.65625 48.427734375,1.66992199420929 50.4052696228027,0.417483329772949 52.646484375,0 55.107421875,0.498046398162842 57.1142578125,1.8603515625 58.4765625,3.86718702316284 58.974609375,6.328125 58.974609375,27.392578125 67.3828125,44.23828125 62.607421875,44.23828125 66.005859375,50.56640625 48.427734375,50.56640625 46.9482421875,51.181640625 46.318359375,52.646484375 46.318359375,54.755859375 46.0693321228027,57.286376953125 45.322265625,59.6630859375 42.6123046875,63.69140625 38.5986328125,66.416015625 36.221923828125,67.1630859375 33.69140625,67.412109375 31.160888671875,67.1630859375 28.7841796875,66.416015625 24.7705078125,63.69140625 22.060546875,59.6630859375 21.3134746551514,57.286376953125 21.064453125,54.755859375 21.064453125,52.646484375 20.4345703125,51.181640625 18.955078125,50.56640625 1.37695264816284,50.56640625 4.77539014816284,44.23828125 0,44.23828125 8.4375,27.392578125 8.4375,6.328125 8.935546875,3.86718702316284 10.283203125,1.8603515625 12.275390625,0.498046398162842 14.736328125,0z" />
    </g>
  </g>
</svg>