<?xml version="1.0" encoding="utf-8"?>
<!DOCTYPE svg PUBLIC "-//W3C//DTD SVG 1.1//EN" "http://www.w3.org/Graphics/SVG/1.1/DTD/svg11.dtd">
<svg width="58.9453125" height="67.3828125" xmlns="http://www.w3.org/2000/svg" xmlns:xlink="http://www.w3.org/1999/xlink" xmlns:xml="http://www.w3.org/XML/1998/namespace" version="1.1">
  <g>
    <g>
      <path style="fill:#FF0000;fill-opacity:1" d="M17.900390625,8.4375L21.0498046875,8.7890625 24.0234375,9.873046875 24.375,10.048828125 25.60546875,10.6787109375 26.7919921875,11.1474609375 28.0224609375,11.455078125 29.443359375,11.572265625 30.849609375,11.4697265625 32.0654296875,11.162109375 33.2080078125,10.7080078125 34.423828125,10.13671875 35.009765625,9.84375 37.9541015625,8.7890625 41.07421875,8.4375 42.5390625,9.052734375 43.154296875,10.517578125 42.5390625,11.9970703125 41.07421875,12.626953125 39.521484375,12.7587900161743 38.173828125,13.1103515625 36.8994140625,13.623046875 35.56640625,14.2675790786743 35.09765625,14.501953125 32.34375,15.46875 29.47265625,15.791015625 26.6162109375,15.4833984375 23.90625,14.53125 23.4375,14.296875 22.1044921875,13.6376962661743 20.830078125,13.1103515625 19.4677734375,12.7587900161743 17.900390625,12.626953125 16.40625,12.01171875 15.791015625,10.517578125 16.4208984375,9.052734375 17.900390625,8.4375z M15.791015625,4.21874952316284L13.4619140625,4.44580364227295 11.279296875,5.126953125 7.60253953933716,7.60253953933716 5.12695360183716,11.279296875 4.44580125808716,13.4619140625 4.21875047683716,15.791015625 4.39453077316284,20.888671875 5.03906297683716,25.6494140625 6.31347703933716,30.2783203125 8.408203125,34.951171875 9.375,36.62109375 10.400390625,38.26171875 11.4697265625,39.7119140625 12.568359375,41.162109375 13.037109375,42.48046875 12.4365234375,43.9892578125 10.95703125,44.619140625 9.55078125,44.0478515625 8.466796875,42.919921875 8.8916015625,46.6845703125 9.697265625,50.390625 10.2978515625,52.3974609375 11.2646484375,55.0634765625 12.5537109375,57.919921875 14.12109375,60.52734375 15.908203125,62.431640625 17.87109375,63.1640625 19.1308574676514,62.9443359375 20.15625,62.28515625 20.8374004364014,61.2744140625 21.064453125,60 21.064453125,50.91796875 21.62109375,47.7685546875 23.1884765625,45.0732421875 25.576171875,43.1103515625 28.623046875,42.158203125 29.0478515625,42.12890625 29.47265625,42.12890625 29.8974609375,42.12890625 30.322265625,42.158203125 33.3837890625,43.1103515625 35.7861328125,45.0732421875 37.353515625,47.7685546875 37.91015625,50.91796875 37.91015625,60 38.14453125,61.1865234375 38.7744140625,62.197265625 39.7119140625,62.900390625 40.8984375,63.1640625 41.07421875,63.1640625 43.0517578125,62.431640625 44.853515625,60.5126953125 46.4208984375,57.8759765625 47.7099609375,55.0048828125 48.6767578125,52.32421875 49.27734375,50.302734375 50.0756797790527,46.552734375 50.478515625,42.802734375 50.361328125,42.978515625 49.365234375,44.091796875 48.017578125,44.619140625 46.5087890625,43.9892578125 45.908203125,42.48046875 46.376953125,41.162109375 47.4755859375,39.7119140625 48.544921875,38.26171875 49.5703125,36.62109375 50.537109375,34.951171875 52.3828086853027,30.9228515625 53.701171875,26.689453125 54.4921836853027,22.32421875 54.755859375,17.900390625 54.755859375,15.791015625 54.5288047790527,13.4619140625 53.84765625,11.279296875 51.357421875,7.60253953933716 47.666015625,5.126953125 45.4833946228027,4.44580364227295 43.154296875,4.21874952316284 40.4736328125,4.2626953125 37.9833984375,4.4970703125 35.56640625,5.06835985183716 33.076171875,6.09375047683716 31.3330078125,6.9580078125 29.47265625,7.3828125 27.6123046875,6.9580078125 25.869140625,6.09375047683716 22.001953125,4.6875 17.900390625,4.21874952316284 15.791015625,4.21874952316284z M15.791015625,0L19.5849609375,0.1171875 22.822265625,0.585937261581421 25.9423828125,1.55273473262787 29.4140625,3.16406273841858 30.322265625,2.84179639816284 31.142578125,2.34374952316284 35.9619140625,0.600585699081421 41.07421875,0 43.154296875,0 46.3146934509277,0.311282157897949 49.2919921875,1.2451171875 51.9909629821777,2.71362590789795 54.31640625,4.62890625 56.231689453125,6.954345703125 57.7001953125,9.6533203125 58.634033203125,12.630615234375 58.9453125,15.791015625 58.7548828125,21.15234375 58.095703125,26.1474609375 56.8212890625,31.0107421875 54.755859375,35.9765625 54.755859375,41.07421875 54.4482421875,45.3515625 53.5400390625,50.4052734375 52.001953125,55.6640625 49.8046875,60.556640625 46.9482421875,64.51171875 45.2673301696777,65.96923828125 43.41796875,66.943359375 42.2900390625,67.2509765625 41.1328125,67.3828125 40.8984375,67.3828125 38.056640625,66.7236328125 35.771484375,65.185546875 34.248046875,62.900390625 33.69140625,60 33.69140625,50.91796875 33.438720703125,49.25537109375 32.6806640625,47.900390625 31.483154296875,46.91162109375 29.912109375,46.34765625 29.6923828125,46.318359375 29.47265625,46.318359375 27.7587890625,46.69921875 26.42578125,47.724609375 25.5615234375,49.189453125 25.25390625,50.91796875 25.25390625,60 24.697265625,62.8125 23.173828125,65.1708984375 20.9033203125,66.7822265625 18.10546875,67.3828125 17.87109375,67.3828125 16.124267578125,67.09716796875 14.5166015625,66.416015625 11.6748046875,64.1162109375 9.31640625,60.8349609375 7.42675828933716,56.8798828125 5.99121141433716,52.587890625 4.99511766433716,48.310546875 4.40918016433716,44.3701171875 4.21875047683716,41.07421875 4.21875047683716,35.9765625 2.39135789871216,31.669921875 1.06933641433716,27.1875 0.267334043979645,22.58056640625 0,17.900390625 0,15.791015625 0.311279356479645,12.630615234375 1.24511766433716,9.6533203125 2.71362352371216,6.954345703125 4.62890672683716,4.62890625 6.95434522628784,2.71362590789795 9.6533203125,1.2451171875 12.630615234375,0.311282157897949 15.791015625,0z" />
    </g>
  </g>
</svg>