<?xml version="1.0" encoding="utf-8"?>
<!DOCTYPE svg PUBLIC "-//W3C//DTD SVG 1.1//EN" "http://www.w3.org/Graphics/SVG/1.1/DTD/svg11.dtd">
<svg width="64.9218750000016" height="67.3828125" xmlns="http://www.w3.org/2000/svg" xmlns:xlink="http://www.w3.org/1999/xlink" xmlns:xml="http://www.w3.org/XML/1998/namespace" version="1.1">
  <g>
    <g>
      <path style="fill:#FF0000;fill-opacity:1" d="M21.03515625,46.318359375L22.119140625,46.6259765625 22.91015625,47.431640625 24.547119140625,49.5849609375 26.5283203125,51.240234375 28.868408203125,52.294921875 31.58203125,52.646484375 33.076171875,53.26171875 33.69140625,54.755859375 33.076171875,56.25 31.58203125,56.865234375 27.861328125,56.337890625 24.3896484375,54.84375 21.4306640625,52.5146484375 19.21875,49.453125 18.955078125,48.427734375 19.5703125,46.93359375 21.03515625,46.318359375z M27.36328125,40.01953125L35.80078125,40.01953125 35.44921875,41.6162109375 34.51171875,42.94921875 33.1640625,43.8720703125 31.58203125,44.208984375 30,43.8720703125 28.65234375,42.94921875 27.71484375,41.6162109375 27.36328125,40.01953125z M43.154296875,27.392578125L44.3701171875,27.6416015625 45.380859375,28.30078125 46.0693359375,29.296875 46.318359375,30.52734375 46.318359375,34.74609375 46.0693359375,35.9912109375 45.3955078125,36.9873046875 44.384765625,37.6611328125 43.154296875,37.91015625 41.9091796875,37.6611328125 40.927734375,36.97265625 40.2685546875,35.9619140625 40.01953125,34.74609375 40.01953125,30.52734375 40.2685546875,29.3115234375 40.9423828125,28.3154296875 41.9384765625,27.6416015625 43.154296875,27.392578125z M20.009765625,27.392578125L21.2255859375,27.6416015625 22.236328125,28.3154296875 22.9248046875,29.3115234375 23.173828125,30.52734375 23.173828125,34.74609375 22.9248046875,35.9619140625 22.236328125,36.97265625 21.2255859375,37.6611328125 20.009765625,37.91015625 18.7646484375,37.6611328125 17.7685546875,36.9873046875 17.0947265625,35.9912109375 16.845703125,34.74609375 16.845703125,30.52734375 17.0947265625,29.296875 17.783203125,28.30078125 18.7939453125,27.6416015625 20.009765625,27.392578125z M38.876953125,16.171875L36.62109375,19.951171875 33.4716796875,22.8076171875 29.6044921875,24.6240234375 25.25390625,25.25390625 25.25390625,17.080078125 23.701171875,19.9951171875 21.328125,22.5 18.369140625,24.55078125 15.05859375,26.07421875 11.66015625,27.0263671875 8.408203125,27.36328125 7.38281154632568,27.36328125 6.1669921875,27.6123046875 5.15625,28.30078125 4.4677734375,29.3115234375 4.21875,30.52734375 4.21875,36.85546875 4.4677734375,38.0712890625 5.15625,39.08203125 6.1669921875,39.7705078125 7.38281154632568,40.01953125 8.408203125,40.01953125 8.616943359375,43.154296875 9.2431640625,46.171875 11.5869140625,51.708984375 15.205078125,56.396484375 19.892578125,60.0146484375 25.4296875,62.34375 28.447265625,62.958984375 31.58203125,63.1640625 34.716796875,62.958984375 37.734375,62.34375 43.271484375,60.0146484375 47.958984375,56.3818359375 51.5771484375,51.6943359375 53.9208984375,46.171875 54.5471153259277,43.154296875 54.755859375,40.01953125 55.810546875,40.01953125 57.0263671875,39.7705078125 58.0224609375,39.08203125 58.6962890625,38.0712890625 58.9453125,36.85546875 58.9453125,30.52734375 58.6962890625,29.3115234375 58.0224609375,28.30078125 57.0263671875,27.6123046875 55.810546875,27.36328125 54.755859375,27.36328125 52.2692832946777,27.1472187042236 49.7900390625,26.4990234375 45.1611328125,24.1259765625 41.3525390625,20.56640625 39.906005859375,18.4423828125 38.876953125,16.171875z M31.58203125,0L62.8125,0 58.59375,4.21874952316284 64.921875,4.21874952316284 56.044921875,13.06640625 59.0478515625,18.7939453125 60.703125,25.048828125 62.51953125,27.509765625 63.1640625,30.52734375 63.1640625,36.85546875 62.841796875,38.994140625 61.9482421875,40.8984375 60.5419921875,42.48046875 58.7109375,43.623046875 58.0078125,47.1240234375 56.865234375,50.5078125 57.0263671875,51.0791015625 57.421875,51.50390625 60.673828125,54.19921875 57.978515625,57.451171875 55.5212364196777,59.886474609375 52.7197265625,61.6845703125 49.5886192321777,62.794189453125 46.142578125,63.1640625 42.7587852478027,64.991455078125 39.169921875,66.3134765625 35.42724609375,67.115478515625 31.58203125,67.3828125 27.73681640625,67.115478515625 23.994140625,66.3134765625 20.4052715301514,64.991455078125 17.021484375,63.1640625 13.575439453125,62.794189453125 10.4443359375,61.6845703125 7.64282131195068,59.886474609375 5.185546875,57.451171875 2.490234375,54.19921875 5.7421875,51.50390625 6.15234375,51.09375 6.328125,50.537109375 5.17089748382568,47.16796875 4.453125,43.623046875 2.63671875,42.48046875 1.23046875,40.8984375 0.322266101837158,38.994140625 0,36.85546875 0,30.52734375 0.64453125,27.509765625 2.4609375,25.048828125 3.218994140625,21.55517578125 4.3798828125,18.22265625 7.7783203125,12.1875 12.421875,7.1630859375 18.0908203125,3.32519578933716 24.5654296875,0.864257574081421 28.026123046875,0.216067284345627 31.58203125,0z" />
    </g>
  </g>
</svg>