<?xml version="1.0" encoding="utf-8"?>
<!DOCTYPE svg PUBLIC "-//W3C//DTD SVG 1.1//EN" "http://www.w3.org/Graphics/SVG/1.1/DTD/svg11.dtd">
<svg width="67.3828125" height="67.3828125" xmlns="http://www.w3.org/2000/svg" xmlns:xlink="http://www.w3.org/1999/xlink" xmlns:xml="http://www.w3.org/XML/1998/namespace" version="1.1">
  <g>
    <g>
      <path style="fill:#FF0000;fill-opacity:1" d="M44.208984375,63.1640625L52.646484375,63.1640625 52.646484375,67.3828125 44.208984375,67.3828125 44.208984375,63.1640625z M29.47265625,63.1640625L37.91015625,63.1640625 37.91015625,67.3828125 29.47265625,67.3828125 29.47265625,63.1640625z M14.736328125,63.1640625L23.173828125,63.1640625 23.173828125,67.3828125 14.736328125,67.3828125 14.736328125,63.1640625z M63.1640625,58.974609375L67.3828125,58.974609375 67.3828125,67.3828125 58.9453125,67.3828125 58.9453125,63.1640625 63.1640625,63.1640625 63.1640625,58.974609375z M0,58.974609375L4.21875,58.974609375 4.21875,63.1640625 8.408203125,63.1640625 8.408203125,67.3828125 0,67.3828125 0,58.974609375z M63.1640625,44.208984375L67.3828125,44.208984375 67.3828125,52.646484375 63.1640625,52.646484375 63.1640625,44.208984375z M0,44.208984375L4.21875,44.208984375 4.21875,52.646484375 0,52.646484375 0,44.208984375z M63.1640625,29.47265625L67.3828125,29.47265625 67.3828125,37.91015625 63.1640625,37.91015625 63.1640625,29.47265625z M0,29.47265625L4.21875,29.47265625 4.21875,37.91015625 0,37.91015625 0,29.47265625z M25.869140625,17.4609375L23.2763671875,20.1416015625 21.826171875,23.056640625 21.181640625,26.2060546875 21.03515625,29.58984375 21.0498046875,31.611328125 21.064453125,33.69140625 16.845703125,33.69140625 16.845703125,27.36328125 15.791015625,27.36328125 14.5751953125,27.6123046875 13.564453125,28.30078125 12.8759765625,29.3115234375 12.626953125,30.52734375 12.626953125,36.85546875 12.8759765625,38.0712890625 13.564453125,39.08203125 14.5751953125,39.7705078125 15.791015625,40.01953125 16.845703125,40.01953125 17.1789531707764,43.399658203125 18.1787109375,46.5673828125 19.7497539520264,49.434814453125 21.796875,51.9140625 24.276123046875,53.961181640625 27.1435546875,55.5322265625 30.311279296875,56.531982421875 33.69140625,56.865234375 37.071533203125,56.531982421875 40.2392578125,55.5322265625 43.1066856384277,53.961181640625 45.5859375,51.9140625 47.6330528259277,49.434814453125 49.2041015625,46.5673828125 50.2038536071777,43.399658203125 50.537109375,40.01953125 51.591796875,40.01953125 52.8076171875,39.7705078125 53.818359375,39.08203125 54.5068359375,38.0712890625 54.755859375,36.85546875 54.755859375,30.52734375 54.5068359375,29.3115234375 53.818359375,28.30078125 52.8076171875,27.6123046875 51.591796875,27.36328125 50.537109375,27.36328125 50.537109375,33.69140625 46.318359375,33.69140625 46.318359375,27.36328125 46.142578125,25.283203125 38.056640625,25.283203125 36.01318359375,25.0817890167236 34.04296875,24.4775390625 30.615234375,22.20703125 25.869140625,17.4609375z M63.1640625,14.736328125L67.3828125,14.736328125 67.3828125,23.173828125 63.1640625,23.173828125 63.1640625,14.736328125z M0,14.736328125L4.21875,14.736328125 4.21875,23.173828125 0,23.173828125 0,14.736328125z M33.69140625,6.328125L37.415771484375,6.65405559539795 40.9716796875,7.63183546066284 44.2675743103027,9.19189453125 47.2119140625,11.2646484375 49.7607383728027,13.80615234375 51.8701171875,16.7724609375 53.4558067321777,20.101318359375 54.43359375,23.73046875 56.2939453125,24.8583984375 57.71484375,26.4404296875 58.623046875,28.3740234375 58.9453125,30.52734375 58.9453125,36.85546875 58.623046875,39.0087890625 57.71484375,40.9423828125 56.2939453125,42.5244140625 54.43359375,43.65234375 53.4558067321777,47.281494140625 51.8701171875,50.6103515625 49.7607383728027,53.57666015625 47.2119140625,56.1181640625 44.2675743103027,58.19091796875 40.9716796875,59.7509765625 37.415771484375,60.728759765625 33.69140625,61.0546875 29.945068359375,60.728759765625 26.3818359375,59.7509765625 23.0859355926514,58.19091796875 20.1416015625,56.1181640625 17.5927715301514,53.57666015625 15.4833984375,50.6103515625 13.905029296875,47.281494140625 12.94921875,43.65234375 11.0888671875,42.5244140625 9.6533203125,40.9423828125 8.73046875,39.0087890625 8.408203125,36.85546875 8.408203125,30.52734375 8.73046875,28.3740234375 9.6533203125,26.4404296875 11.0888671875,24.8583984375 12.94921875,23.73046875 13.905029296875,20.101318359375 15.4833984375,16.7724609375 17.5927715301514,13.80615234375 20.1416015625,11.2646484375 23.0859355926514,9.19189453125 26.3818359375,7.63183546066284 29.945068359375,6.65405559539795 33.69140625,6.328125z M58.9453125,0L67.3828125,0 67.3828125,8.4375 63.1640625,8.4375 63.1640625,4.21874952316284 58.9453125,4.21874952316284 58.9453125,0z M44.208984375,0L52.646484375,0 52.646484375,4.21874952316284 44.208984375,4.21874952316284 44.208984375,0z M29.47265625,0L37.91015625,0 37.91015625,4.21874952316284 29.47265625,4.21874952316284 29.47265625,0z M14.736328125,0L23.173828125,0 23.173828125,4.21874952316284 14.736328125,4.21874952316284 14.736328125,0z M0,0L8.408203125,0 8.408203125,4.21874952316284 4.21875,4.21874952316284 4.21875,8.4375 0,8.4375 0,0z" />
    </g>
  </g>
</svg>