<?xml version="1.0" encoding="utf-8"?>
<!DOCTYPE svg PUBLIC "-//W3C//DTD SVG 1.1//EN" "http://www.w3.org/Graphics/SVG/1.1/DTD/svg11.dtd">
<svg width="67.3828125000013" height="67.3828125" xmlns="http://www.w3.org/2000/svg" xmlns:xlink="http://www.w3.org/1999/xlink" xmlns:xml="http://www.w3.org/XML/1998/namespace" version="1.1">
  <g>
    <g>
      <path style="fill:#FF0000;fill-opacity:1" d="M31.318359375,61.0546875L31.58203125,63.1640625 56.865234375,63.1640625 57.12890625,61.0546875 31.318359375,61.0546875z M12.36328125,61.0546875L12.626953125,63.1640625 29.47265625,63.1640625 29.208984375,61.0546875 12.36328125,61.0546875z M46.318359375,46.318359375L52.646484375,49.482421875 49.833984375,51.7822265625 48.1347618103027,52.430419921875 46.318359375,52.646484375 44.5056114196777,52.430419921875 42.8173828125,51.7822265625 40.01953125,49.482421875 46.318359375,46.318359375z M46.318359375,42.12890625L50.537109375,44.208984375 48.662109375,45.732421875 46.318359375,46.318359375 43.974609375,45.732421875 42.099609375,44.208984375 46.318359375,42.12890625z M46.318359375,40.01953125L48.427734375,41.07421875 47.490234375,41.8359375 46.318359375,42.12890625 45.1611328125,41.8359375 44.208984375,41.07421875 46.318359375,40.01953125z M28.154296875,35.80078125L29.4873046875,46.318359375 30.791015625,56.865234375 57.65625,56.865234375 58.916015625,46.3330078125 60.263671875,35.80078125 28.154296875,35.80078125z M23.173828125,35.80078125L23.173828125,40.01953125 23.8037109375,41.4990234375 25.283203125,42.12890625 26.0888671875,42.2021484375 26.865234375,42.421875 26.044921875,35.80078125 23.173828125,35.80078125z M9.19921875,35.80078125L11.8359375,56.865234375 28.681640625,56.865234375 27.275390625,45.703125 27.01171875,45.1318359375 26.513671875,44.6484375 25.8984375,44.326171875 25.283203125,44.208984375 23.6865234375,43.9013671875 22.3681640625,43.0517578125 21.4453125,41.77734375 21.064453125,40.1953125 20.68359375,41.77734375 19.7607421875,43.0517578125 18.4423828125,43.9013671875 16.845703125,44.208984375 16.845703125,42.12890625 18.3251953125,41.4990234375 18.955078125,40.01953125 18.955078125,35.80078125 9.19921875,35.80078125z M25.25390625,29.47265625L23.7890625,30.1171875 23.173828125,31.58203125 25.517578125,31.58203125 25.25390625,29.47265625z M8.4375,29.47265625L8.701171875,31.58203125 18.955078125,31.58203125 19.306640625,29.47265625 8.4375,29.47265625z M7.822265625,21.650390625L6.328125,23.173828125 7.73437404632568,27.36328125 10.693359375,27.36328125 7.822265625,21.650390625z M12.626953125,16.845703125L12.5390625,16.962890625 14.1796875,20.21484375 13.330078125,16.845703125 12.626953125,16.845703125z M35.80078125,14.736328125L29.47265625,21.064453125 28.447265625,25.2685546875 27.36328125,29.47265625 27.626953125,31.58203125 60.791015625,31.58203125 60.8935546875,30.52734375 61.0546875,29.47265625 63.1640625,21.064453125 56.865234375,14.736328125 35.80078125,14.736328125z M21.064453125,14.736328125L19.658203125,16.142578125 22.1484375,26.07421875 23.6352519989014,25.4809589385986 25.283203125,25.283203125 25.7666015625,25.283203125 26.25,25.341796875 27.568359375,19.98046875 31.142578125,16.40625 29.47265625,14.736328125 21.064453125,14.736328125z M5.244140625,8.4375L4.4970703125,8.759765625 4.21875,9.521484375 4.5703125,10.3564453125 5.4931640625,12.2900390625 6.796875,14.970703125 8.3203125,18.0322265625 9.8876953125,21.15234375 11.3232421875,23.9794921875 12.4365234375,26.162109375 13.037109375,27.36328125 15.380859375,27.36328125 7.08984375,10.751953125 6.650390625,9.84375 6.181640625,8.96484375 5.244140625,8.4375z M13.681640625,4.21874952316284L12.9345703125,4.541015625 12.626953125,5.2734375 12.65625,5.5078125 13.916015625,10.693359375 15.234375,15.849609375 16.6552734375,21.62109375 18.134765625,27.36328125 20.302734375,27.36328125 15.966796875,10.078125 15.7470703125,9.1552734375 15.322265625,7.412109375 14.8828125,5.6982421875 14.6484375,4.83398485183716 13.681640625,4.21874952316284z M13.59375,0L15.322265625,0.292968988418579 16.81640625,1.1279296875 17.958984375,2.40234375 18.662109375,4.013671875 20.302734375,10.517578125 31.025390625,10.517578125 32.431640625,11.953125 33.837890625,10.517578125 58.212890625,10.517578125 67.3828125,19.775390625 65.654296875,26.77734375 65.390625,27.7001953125 65.15625,28.5205078125 64.951171875,29.326171875 64.775390625,30.263671875 64.3212890625,33.5595703125 63.9697265625,36.4453125 63.6328125,39.345703125 63.251953125,42.626953125 60.17578125,67.3828125 8.84765625,67.3828125 4.27734375,30.41015625 4.08691310882568,29.7216796875 3.603515625,28.2568359375 2.9736328125,26.3818359375 2.3291015625,24.4775390625 1.787109375,22.91015625 1.494140625,22.03125 4.248046875,19.248046875 0.556640625,11.8359375 0,9.4921875 0.410156726837158,7.44140625 1.5234375,5.7568359375 3.1787109375,4.62890625 5.244140625,4.21874952316284 6.88476467132568,4.48242473602295 8.349609375,5.2734375 8.7744140625,3.251953125 9.90234375,1.56738328933716 11.5576171875,0.424805164337158 13.59375,0z" />
    </g>
  </g>
</svg>