<?xml version="1.0" encoding="utf-8"?>
<!DOCTYPE svg PUBLIC "-//W3C//DTD SVG 1.1//EN" "http://www.w3.org/Graphics/SVG/1.1/DTD/svg11.dtd">
<svg width="60" height="60" xmlns="http://www.w3.org/2000/svg" xmlns:xlink="http://www.w3.org/1999/xlink" xmlns:xml="http://www.w3.org/XML/1998/namespace" version="1.1">
  <g>
    <g>
      <path style="fill:#FF0000;fill-opacity:1" d="M54.55078125,14.53125L55.95703125,14.82421875 57.1142578125,15.615234375 57.890625,16.7724609375 58.18359375,18.193359375 57.890625,19.6142578125 57.1142578125,20.7568359375 55.95703125,21.533203125 54.55078125,21.826171875 53.1298828125,21.533203125 51.97265625,20.7568359375 51.1962890625,19.6142578125 50.91796875,18.193359375 51.1962890625,16.7724609375 51.97265625,15.615234375 53.1298828125,14.82421875 54.55078125,14.53125z M44.091796875,14.53125L45.498046875,14.82421875 46.6552734375,15.615234375 47.431640625,16.7724609375 47.724609375,18.193359375 47.431640625,19.6142578125 46.6552734375,20.7568359375 45.498046875,21.533203125 44.091796875,21.826171875 42.6708984375,21.533203125 41.513671875,20.7568359375 40.7373046875,19.6142578125 40.458984375,18.193359375 40.7373046875,16.7724609375 41.513671875,15.615234375 42.6708984375,14.82421875 44.091796875,14.53125z M23.14453125,14.53125L24.5068359375,14.53125 25.986328125,14.560546875 28.0883769989014,14.6337890625 29.765625,14.736328125 32.109375,15.0146484375 33.427734375,15.380859375 34.130859375,15.791015625 34.716796875,16.34765625 35.654296875,17.9150390625 36.243896484375,19.324951171875 36.8994140625,21.240234375 37.620849609375,23.7744140625 38.408203125,27.041015625 38.115234375,28.7255859375 36.708984375,29.70703125 36.4599609375,29.7509765625 36.240234375,29.765625 34.8486328125,29.2822265625 34.04296875,28.0078125 33.427734375,25.4296875 32.724609375,22.9248046875 32.05078125,20.80078125 31.46484375,19.423828125 30.3662109375,19.248046875 28.7548828125,19.1162109375 26.748046875,19.0283203125 24.521484375,18.984375 30.29296875,29.0625 30.5712890625,29.560546875 30.9521484375,30.322265625 31.3037109375,31.0986328125 31.494140625,31.669921875 32.2705078125,35.5810546875 33.1494140625,39.3896484375 34.04296875,42.626953125 34.833984375,44.82421875 36.6357421875,44.35546875 39.1552734375,43.4619140625 42.0849609375,42.2314453125 45.1171875,40.78125 46.318359375,40.48828125 47.6953125,40.8837890625 48.69140625,41.953125 48.984375,43.154296875 48.5888671875,44.560546875 47.51953125,45.556640625 46.962890625,45.8349609375 45.6591796875,46.4501953125 43.7841796875,47.28515625 41.572265625,48.22265625 39.136962890625,49.1455078125 37.1630859375,49.74609375 34.248046875,50.185546875 32.900390625,50.0244140625 31.875,49.541015625 31.0400390625,48.80859375 30.1171875,47.2998046875 29.0478515625,44.4873046875 28.4436016082764,42.440185546875 27.7734375,39.84375 27.01171875,36.474609375 23.6279296875,38.6865234375 20.56640625,40.751953125 18.1201171875,42.509765625 16.552734375,43.76953125 16.875,45.9375 17.5927734375,49.1015625 18.5595703125,52.79296875 19.6875,56.54296875 19.775390625,57.59765625 19.482421875,58.5791015625 18.8525390625,59.3701171875 17.9296875,59.8828125 17.109375,60 15.556640625,59.4873046875 14.58984375,58.125 14.384765625,57.48046875 13.9306640625,55.95703125 13.3154296875,53.818359375 12.65625,51.328125 11.964111328125,48.49365234375 11.5283203125,46.318359375 11.297607421875,44.677734375 11.220703125,43.447265625 11.337890625,42.24609375 11.630859375,41.455078125 12.0263671875,40.7958984375 13.1689453125,39.6533203125 14.2272939682007,38.792724609375 15.673828125,37.705078125 17.62939453125,36.32080078125 20.21484375,34.5703125 20.9912109375,34.04296875 21.73828125,33.544921875 17.021484375,25.283203125 16.2451171875,27.744140625 15.46875,30.029296875 14.736328125,31.875 14.091796875,33.046875 13.41796875,33.720703125 12.24609375,34.16015625 10.2685546875,34.4384765625 7.119140625,34.599609375 4.8486328125,34.6728515625 3.076171875,34.6875 2.197265625,34.6875 0.6298828125,34.013671875 0,32.431640625 0.64453125,30.8642578125 2.2265625,30.234375 3.22265625,30.234375 5.44921875,30.2197265625 7.5732421875,30.1611328125 9.404296875,30.05859375 10.751953125,29.94140625 11.30859375,28.41796875 12.0849609375,26.044921875 12.9345703125,23.3056640625 13.7255859375,20.6982421875 14.326171875,18.7353515625 14.58984375,17.900390625 15.4248046875,16.34765625 16.787109375,15.17578125 18.45703125,14.6337890625 20.09765625,14.560546875 20.350341796875,14.556884765625 20.9912109375,14.5458984375 23.14453125,14.53125z M56.3671875,5.44921875L57.7734375,5.7421875 58.9306640625,6.5185546875 59.70703125,7.67578125 60,9.08203125 59.70703125,10.5029296875 58.9306640625,11.66015625 57.7734375,12.4365234375 56.3671875,12.71484375 54.9462890625,12.4365234375 53.7890625,11.66015625 53.0126953125,10.5029296875 52.734375,9.08203125 53.0126953125,7.67578125 53.7890625,6.5185546875 54.9462890625,5.7421875 56.3671875,5.44921875z M41.806640625,5.44921875L43.2275390625,5.7421875 44.384765625,6.5185546875 45.17578125,7.67578125 45.46875,9.08203125 45.17578125,10.5029296875 44.384765625,11.66015625 43.2275390625,12.4365234375 41.806640625,12.71484375 40.3857421875,12.4365234375 39.2431640625,11.66015625 38.466796875,10.5029296875 38.173828125,9.08203125 38.466796875,7.67578125 39.2431640625,6.5185546875 40.3857421875,5.7421875 41.806640625,5.44921875z M11.806640625,4.541015625L13.5791015625,4.9072265625 15.029296875,5.888671875 15.99609375,7.32421875 16.34765625,9.08203125 16.34765625,10.8984375 16.3330078125,11.3232421875 16.2890625,11.748046875 15.732421875,13.212890625 14.736328125,14.3994140625 13.388671875,15.1904296875 11.806640625,15.46875 10.048828125,15.1025390625 8.61328125,14.12109375 7.6318359375,12.6708984375 7.265625,10.8984375 7.265625,9.08203125 7.353515625,8.173828125 7.9248046875,6.7236328125 8.9208984375,5.5810546875 10.25390625,4.8193359375 11.806640625,4.541015625z M49.39453125,0L50.80078125,0.29296875 51.9580078125,1.0693359375 52.734375,2.2265625 53.02734375,3.6328125 52.734375,5.0537109375 51.9580078125,6.2109375 50.80078125,6.9873046875 49.39453125,7.265625 47.9736328125,6.9873046875 46.81640625,6.2109375 46.025390625,5.0537109375 45.732421875,3.6328125 46.025390625,2.2265625 46.81640625,1.0693359375 47.9736328125,0.29296875 49.39453125,0z" />
    </g>
  </g>
</svg>