<?xml version="1.0" encoding="utf-8"?>
<!DOCTYPE svg PUBLIC "-//W3C//DTD SVG 1.1//EN" "http://www.w3.org/Graphics/SVG/1.1/DTD/svg11.dtd">
<svg width="66.8554687500014" height="63.134765625" xmlns="http://www.w3.org/2000/svg" xmlns:xlink="http://www.w3.org/1999/xlink" xmlns:xml="http://www.w3.org/XML/1998/namespace" version="1.1">
  <g>
    <g>
      <path style="fill:#FF0000;fill-opacity:1" d="M22.294921875,26.162109375L20.595703125,26.2353515625 18.7060546875,26.4990234375 16.845703125,27.041015625 15.234375,27.919921875 14.1064453125,29.208984375 13.681640625,30.99609375 13.8134765625,32.1533203125 14.1796875,33.251953125 15.311279296875,35.408935546875 16.8896484375,37.4267578125 21.0498046875,41.0009765625 26.162109375,43.916015625 31.728515625,46.083984375 37.2216796875,47.431640625 42.158203125,47.900390625 44.7509765625,47.7099609375 47.4755859375,46.9921875 49.62890625,45.52734375 50.2880821228027,44.443359375 50.5078125,43.06640625 50.2001953125,41.2939453125 49.39453125,39.5654296875 48.2958984375,37.96875 47.109375,36.591796875 44.7399864196777,34.376220703125 41.9677734375,32.3583984375 35.68359375,29.0625 28.916015625,26.923828125 25.5322265625,26.3525409698486 22.294921875,26.162109375z M22.470703125,24.052734375L25.916748046875,24.2614765167236 29.5166015625,24.8876953125 36.708984375,27.2314453125 43.3740234375,30.8056640625 46.3073692321777,32.969970703125 48.80859375,35.33203125 50.2001953125,36.9873046875 51.4306640625,38.876953125 52.3095703125,40.9423828125 52.646484375,43.095703125 52.1337890625,45.52734375 50.771484375,47.34375 48.80859375,48.6181640625 46.4794921875,49.423828125 44.033203125,49.8486328125 41.71875,49.98046875 38.199462890625,49.771728515625 34.6728515625,49.1455078125 27.919921875,46.9921875 24.7119140625,45.4833984375 21.123046875,43.388671875 17.5927734375,40.810546875 14.53125,37.822265625 12.3779296875,34.51171875 11.773681640625,32.76123046875 11.572265625,30.966796875 11.84326171875,29.0698261260986 12.65625,27.5390625 15.380859375,25.4150390625 18.92578125,24.345703125 22.470703125,24.052734375z M20.33203125,20.91796875L16.8017578125,21.1376953125 13.2861328125,21.8701171875 9.990234375,23.232421875 7.1484375,25.341796875 6.767578125,25.751953125 6.2841796875,26.3232421875 5.830078125,26.923828125 5.537109375,27.392578125 5.4345703125,27.802734375 5.361328125,28.4326171875 5.3173828125,29.0625 5.302734375,29.501953125 5.9765625,33.3984375 7.7783203125,37.08984375 10.4150390625,40.5029296875 13.5791015625,43.5498046875 16.93359375,46.1572265625 20.185546875,48.251953125 24.8876953125,50.7275390625 29.82421875,52.67578125 36.6943359375,54.4921875 43.76953125,55.166015625 47.1533203125,54.9755859375 50.625,54.3310546875 53.876953125,53.0859375 56.630859375,51.09375 56.9677734375,50.7421875 57.4072265625,50.244140625 57.802734375,49.7314453125 58.037109375,49.3359375 58.154296875,48.80859375 58.2568359375,48.0615234375 58.3154296875,47.314453125 58.330078125,46.7578125 57.7294921875,42.8759765625 56.1181640625,39.2724609375 53.8037109375,36.0205078125 51.09375,33.193359375 46.9921875,29.970703125 42.099609375,27.041015625 36.6943359375,24.55078125 31.083984375,22.6171875 25.5322265625,21.357421875 20.33203125,20.91796875z M61.611328125,4.21875L52.5,4.4677734375 42.7587890625,5.39062452316284 32.9443359375,7.265625 23.6279296875,10.3857421875 19.3505840301514,12.509765625 15.3955078125,15.0439453125 11.854248046875,18.028564453125 8.818359375,21.50390625 11.502685546875,20.233154296875 14.3408203125,19.4091796875 20.244140625,18.80859375 24.462890625,19.072265625 26.986083984375,16.4208984375 29.8095703125,14.150390625 36.123046875,10.634765625 43.037109375,8.3349609375 50.185546875,7.001953125 45.4541015625,9.50683498382568 41.1767578125,12.8466796875 37.96875,17.0654296875 36.9287109375,19.508056640625 36.38671875,22.177734375 42.216796875,24.7265625 47.724609375,27.919921875 46.3330078125,24.2724609375 45.791015625,20.419921875 46.435546875,16.5673828125 48.2080078125,13.1689453125 50.859375,10.341796875 54.140625,8.1884765625 57.8173828125,6.8115234375 61.640625,6.32812404632568 62.40234375,6.03515577316284 62.6953125,5.2734375 62.3876953125,4.51171875 61.611328125,4.21875z M61.640625,0L63.75,0.395508050918579 65.4052734375,1.49413990974426 66.474609375,3.16406273841858 66.85546875,5.2734375 66.474609375,7.38281154632568 65.4052734375,9.0380859375 63.75,10.1220703125 61.640625,10.5175771713257 59.3408203125,10.810546875 57.12890625,11.513671875 54.404296875,12.9345712661743 52.1337890625,14.8681640625 50.5810546875,17.3583984375 50.009765625,20.419921875 50.4638671875,23.4375 51.6650390625,26.4111328125 53.3349609375,29.1796875 55.1953125,31.58203125 56.0302734375,32.51953125 56.30859375,32.7685546875 56.5869140625,33.0615234375 57.451171875,34.1015625 59.4873046875,36.8994140625 61.1572265625,39.9755859375 62.28515625,43.271484375 62.6953125,46.728515625 62.5634765625,48.57421875 62.197265625,50.2734375 61.640625,51.8994140625 60.9375,53.583984375 59.520263671875,56.1328125 57.7294921875,58.212890625 53.291015625,61.1572265625 48.046875,62.6953125 42.451171875,63.134765625 34.9658203125,62.4755859375 27.65625,60.673828125 21.533203125,58.3154296875 15.263671875,55.0048828125 9.4189453125,50.7861328125 4.5556640625,45.703125 2.677001953125,42.85400390625 1.23046875,39.814453125 0.307617008686066,36.58447265625 0,33.1640625 0.380859375,29.4580078125 1.494140625,25.869140625 3.44970703125,21.89208984375 5.859375,18.33984375 11.8212890625,12.4072265625 19.04296875,7.880859375 27.1728515625,4.5703125 35.8447265625,2.29980444908142 44.70703125,0.893554449081421 53.4228515625,0.190429449081421 61.640625,0z" />
    </g>
  </g>
</svg>