<?xml version="1.0" encoding="utf-8"?>
<!DOCTYPE svg PUBLIC "-//W3C//DTD SVG 1.1//EN" "http://www.w3.org/Graphics/SVG/1.1/DTD/svg11.dtd">
<svg width="67.4121093750013" height="54.7265625" xmlns="http://www.w3.org/2000/svg" xmlns:xlink="http://www.w3.org/1999/xlink" xmlns:xml="http://www.w3.org/XML/1998/namespace" version="1.1">
  <g>
    <g>
      <path style="fill:#FF0000;fill-opacity:1" d="M62.75390625,37.353515625L59.9267578125,39.6533203125 56.484375,41.42578125 52.646484375,42.71484375 48.662109375,43.564453125 44.736328125,44.033203125 41.103515625,44.1796875 35.625,43.857421875 29.8095703125,42.7880859375 24.3017578125,40.7958984375 19.775390625,37.705078125 19.51171875,37.734375 21.3720703125,41.89453125 24.3017578125,45.1611328125 28.0078125,47.5927734375 32.2265625,49.248046875 36.6796875,50.2001953125 41.103515625,50.5078125 45.6005859375,50.185546875 50.1123046875,49.2041015625 54.3603515625,47.490234375 58.06640625,44.9853515625 60.9521484375,41.630859375 62.75390625,37.353515625z M41.1328125,31.552734375L39.9755859375,31.58203125 38.642578125,31.69921875 37.32421875,31.9189453125 36.240234375,32.255859375 35.830078125,32.4609375 35.419921875,32.6953125 38.203125,33.4716796875 41.103515625,33.69140625 44.0771484375,33.45703125 46.93359375,32.63671875 44.091796875,31.8017578125 41.1328125,31.552734375z M47.4609375,21.474609375L45.5859375,24.6826171875 43.06640625,27.451171875 45.1025390625,27.7880859375 47.5927734375,28.5205078125 49.6875,29.7509765625 50.3466758728027,30.574951171875 50.56640625,31.552734375 50.0244140625,33.0322265625 48.6328125,34.130859375 46.7138671875,34.921875 44.58984375,35.4345703125 42.6123046875,35.6982421875 41.103515625,35.771484375 39.0673828125,35.6689453125 36.9287109375,35.3466796875 34.86328125,34.74609375 33.076171875,33.80859375 27.9052734375,35.8740234375 22.529296875,37.294921875 26.630859375,39.580078125 31.3037109375,41.0595703125 36.1669921875,41.865234375 40.869140625,42.099609375 44.4873046875,41.9384765625 48.7939453125,41.3818359375 53.2763671875,40.341796875 57.451171875,38.7158203125 60.8203125,36.416015625 62.05078125,34.9951171875 62.87109375,33.369140625 63.193359375,31.552734375 62.98828125,30.0146484375 62.373046875,28.623046875 60.205078125,26.2353515625 57.158203125,24.3603515625 53.701171875,22.96875 50.302734375,22.0166015625 47.4609375,21.474609375z M28.59375,14.677734375L25.869140625,15 23.02734375,15.8935546875 20.3759765625,17.255859375 18.22265625,18.955078125 18.45703125,18.955078125 21.1669921875,18.6181640625 24.0087890625,17.7099609375 26.66015625,16.3623046875 28.828125,14.677734375 28.59375,14.677734375z M27.83203125,10.751953125L29.091796875,10.83984375 30.4248046875,11.19140625 31.4794921875,11.923828125 31.904296875,13.125 31.5234375,14.53125 30.52734375,15.87890625 29.150390625,17.109375 27.5830078125,18.1787109375 26.0302734375,19.0283203125 24.7265625,19.62890625 21.6357421875,20.6103515625 18.427734375,21.005859375 17.138671875,20.91796875 15.8203125,20.56640625 14.7802734375,19.8486328125 14.35546875,18.6328125 14.556884765625,17.5634784698486 15.1611328125,16.5234375 17.109375,14.6337890625 19.4677734375,13.125 21.533203125,12.12890625 24.6240234375,11.1474609375 27.83203125,10.751953125z M30.234375,4.189453125L24.638671875,4.83398342132568 18.7939453125,6.6796875 13.271484375,9.6240234375 8.6279296875,13.5791015625 6.82250881195068,15.9008808135986 5.419921875,18.4423828125 4.51904296875,21.185302734375 4.21875,24.111328125 4.5263671875,26.982421875 5.419921875,29.70703125 7.3828125,32.5927734375 10.0634765625,34.453125 13.2421875,35.4638671875 16.69921875,35.771484375 20.5224609375,35.4931640625 24.375,34.716796875 28.1396484375,33.5595703125 31.69921875,32.138671875 34.7900390625,30.615234375 38.0712890625,28.6376953125 41.19140625,26.25 43.828125,23.4814453125 45.6591796875,20.3466796875 46.34765625,16.904296875 46.142578125,15.0146484375 45.556640625,13.18359375 42.978515625,9.140625 39.345703125,6.3427734375 34.98046875,4.716796875 30.234375,4.189453125z M30.322265625,0L36.4013671875,0.703125 41.7919921875,2.841796875 44.1430625915527,4.4677734375 46.2451171875,6.474609375 48.0432090759277,8.876953125 49.482421875,11.689453125 50.2880859375,14.2529296875 50.56640625,16.93359375 50.56640625,17.3291015625 50.537109375,17.724609375 54.140625,18.6474609375 57.919921875,20.0537109375 61.5234375,22.0166015625 64.5556640625,24.5654296875 66.6357421875,27.7294921875 67.218017578125,29.556884765625 67.412109375,31.552734375 67.412109375,33.662109375 67.144775390625,37.1044921875 66.3427734375,40.224609375 65.07568359375,43.02978515625 63.4130859375,45.52734375 59.033203125,49.599609375 53.583984375,52.470703125 47.4755859375,54.169921875 41.103515625,54.7265625 37.2216796875,54.517822265625 33.310546875,53.8916015625 29.505615234375,52.822265625 25.9423828125,51.2841796875 22.6904277801514,49.25537109375 19.8193359375,46.7138671875 17.4719219207764,43.626708984375 15.791015625,39.9609375 11.3232421875,39.345703125 7.294921875,37.763671875 3.9404296875,35.1123046875 1.52343654632568,31.2890625 0.395508289337158,27.7294921875 0,24.0234375 0.336913704872131,20.504150390625 1.34765625,17.2119140625 2.933349609375,14.1577167510986 4.9951171875,11.3525390625 10.3271484375,6.5625 16.728515625,3.0029296875 23.5986328125,0.7763671875 27.030029296875,0.194091796875 30.322265625,0z" />
    </g>
  </g>
</svg>