<?xml version="1.0" encoding="utf-8"?>
<!DOCTYPE svg PUBLIC "-//W3C//DTD SVG 1.1//EN" "http://www.w3.org/Graphics/SVG/1.1/DTD/svg11.dtd">
<svg width="67.3828125000008" height="67.3828125" xmlns="http://www.w3.org/2000/svg" xmlns:xlink="http://www.w3.org/1999/xlink" xmlns:xml="http://www.w3.org/XML/1998/namespace" version="1.1">
  <g>
    <g>
      <path style="fill:#FF0000;fill-opacity:1" d="M52.646484375,50.537109375L54.140625,51.15234375 58.330078125,55.37109375 58.9453125,56.865234375 58.3154296875,58.3447265625 56.8359375,58.974609375 56.044921875,58.7841796875 55.37109375,58.330078125 51.15234375,54.140625 50.537109375,52.646484375 51.1669921875,51.1669921875 52.646484375,50.537109375z M31.58203125,44.208984375L33.0615234375,44.8388671875 33.69140625,46.318359375 33.486328125,47.2265625 32.9736328125,47.98828125 32.2998046875,48.6474609375 31.611328125,49.27734375 22.55859375,58.330078125 21.064453125,58.974609375 19.5849609375,58.3447265625 18.955078125,56.865234375 19.5703125,55.37109375 30.087890625,44.82421875 31.58203125,44.208984375z M42.099609375,40.01953125L43.59375,40.634765625 47.8125,44.82421875 48.427734375,46.318359375 47.7978515625,47.7978515625 46.318359375,48.427734375 44.82421875,47.8125 40.634765625,43.59375 40.1806640625,42.919921875 39.990234375,42.12890625 40.6201171875,40.6494140625 42.099609375,40.01953125z M29.736328125,39.990234375L26.572265625,40.634765625 23.90625,42.421875 17.138671875,49.189453125 15.3662109375,51.826171875 14.736328125,54.9609375 15.380859375,58.212890625 17.138671875,60.8056640625 19.7607421875,62.5341796875 22.998046875,63.1640625 26.1181640625,62.578125 28.7109375,60.76171875 34.04296875,55.458984375 35.537109375,53.9501953125 36.767578125,52.3681640625 37.6025390625,50.56640625 37.91015625,48.3984375 37.2802734375,45.17578125 35.5517578125,42.4951171875 32.958984375,40.6640625 29.736328125,39.990234375z M48.427734375,33.69140625L49.921875,34.306640625 54.140625,38.525390625 54.755859375,40.01953125 54.1259765625,41.4990234375 52.646484375,42.12890625 51.15234375,41.484375 46.93359375,37.294921875 46.318359375,35.80078125 46.93359375,34.306640625 48.427734375,33.69140625z M31.58203125,29.47265625L33.076171875,30.087890625 37.294921875,34.306640625 37.91015625,35.80078125 37.2802734375,37.2802734375 35.80078125,37.91015625 34.306640625,37.294921875 30.087890625,33.076171875 29.47265625,31.58203125 30.087890625,30.087890625 31.58203125,29.47265625z M14.736328125,25.283203125L16.23046875,25.8984375 20.44921875,30.087890625 21.064453125,31.58203125 20.4345703125,33.0615234375 18.955078125,33.69140625 17.4609375,33.076171875 13.2421875,28.857421875 12.626953125,27.392578125 13.2568359375,25.9130859375 14.736328125,25.283203125z M21.064453125,18.955078125L22.55859375,19.5703125 26.748046875,23.7890625 27.36328125,25.283203125 26.7333984375,26.748046875 25.25390625,27.36328125 23.7890625,26.748046875 19.5703125,22.55859375 18.955078125,21.064453125 19.5849609375,19.5849609375 21.064453125,18.955078125z M27.36328125,12.626953125L28.857421875,13.2421875 33.076171875,17.4609375 33.69140625,18.955078125 33.076171875,20.44921875 31.58203125,21.064453125 30.087890625,20.44921875 25.869140625,16.23046875 25.25390625,14.736328125 25.8837890625,13.2568359375 27.36328125,12.626953125z M10.517578125,8.4375L12.01171875,9.052734375 16.23046875,13.2421875 16.845703125,14.736328125 16.23046875,16.23046875 14.736328125,16.845703125 13.2421875,16.23046875 9.0234375,12.01171875 8.408203125,10.546875 9.0380859375,9.0673828125 10.517578125,8.4375z M12.626953125,4.21874952316284L9.3603515625,4.8779296875 6.6796875,6.6796875 4.8779296875,9.3603515625 4.21875,12.626953125 4.21875,14.736328125 5.712890625,15.3515625 9.90234375,19.5703125 10.517578125,21.064453125 9.8876953125,22.5439453125 8.408203125,23.173828125 6.943359375,22.55859375 4.21875,19.833984375 4.21875,21.064453125 4.508056640625,24.0234394073486 5.3759765625,26.806640625 6.74194240570068,29.3261737823486 8.525390625,31.494140625 10.693359375,33.277587890625 13.212890625,34.6435546875 15.99609375,35.511474609375 18.955078125,35.80078125 22.2802734375,36.0498046875 25.4296875,37.1484375 26.1767578125,36.1669921875 27.36328125,35.80078125 28.271484375,36.0205078125 29.033203125,36.5771484375 29.7216796875,37.2802734375 30.380859375,37.939453125 34.16015625,38.9208984375 37.2216796875,41.1767578125 39.2724609375,44.3701171875 40.01953125,48.193359375 39.990234375,48.8818359375 39.90234375,49.5703125 40.60546875,50.21484375 41.3232421875,50.91796875 41.8798828125,51.7236328125 42.099609375,52.646484375 41.4697265625,54.1259765625 39.990234375,54.755859375 39.052734375,54.54345703125 38.291015625,53.90625 36.650390625,55.8544921875 34.833984375,57.65625 37.166748046875,60.010986328125 39.9462890625,61.7431640625 43.0407676696777,62.808837890625 46.318359375,63.1640625 47.548828125,63.1640625 44.82421875,60.439453125 44.208984375,58.974609375 44.8388671875,57.4951171875 46.318359375,56.865234375 47.8125,57.48046875 52.03125,61.669921875 52.646484375,63.1640625 54.755859375,63.1640625 58.0224609375,62.5048828125 60.703125,60.703125 62.5048828125,58.0224609375 63.1640625,54.755859375 63.1640625,52.646484375 61.669921875,52.03125 57.48046875,47.8125 56.8359375,46.318359375 57.4658203125,44.8388671875 58.9453125,44.208984375 60.439453125,44.82421875 63.1640625,47.548828125 63.1640625,46.318359375 62.874755859375,43.363037109375 62.0068359375,40.5908203125 60.63720703125,38.07861328125 58.8427734375,35.9033203125 56.66748046875,34.10888671875 54.1552734375,32.7392578125 51.3830528259277,31.871337890625 48.427734375,31.58203125 45.1025390625,31.3330078125 41.953125,30.234375 41.19140625,31.2158203125 39.990234375,31.58203125 39.1845703125,31.435546875 38.525390625,30.966796875 38.349609375,30.8203125 37.55859375,30.1171875 36.7236328125,29.2529296875 36.064453125,28.3154296875 35.80078125,27.392578125 36.1669921875,26.19140625 37.1484375,25.4296875 36.0498046875,22.2802734375 35.80078125,18.955078125 35.511474609375,15.999755859375 34.6435546875,13.2275390625 33.27392578125,10.71533203125 31.4794921875,8.5400390625 29.30419921875,6.74560832977295 26.7919921875,5.3759765625 24.019775390625,4.50805950164795 21.064453125,4.21874952316284 19.833984375,4.21874952316284 22.55859375,6.943359375 23.173828125,8.4375 22.5439453125,9.90234375 21.064453125,10.517578125 19.5703125,9.90234375 15.3515625,5.71289110183716 14.736328125,4.21874952316284 12.626953125,4.21874952316284z M12.626953125,0L21.064453125,0 26.0888671875,0.673828601837158 30.615234375,2.59277296066284 34.453125,5.56640625 37.4267578125,9.404296875 39.345703125,13.9306640625 40.01953125,18.955078125 40.01953125,20.009765625 40.5908203125,22.8955078125 42.158203125,25.224609375 44.4873046875,26.7919921875 47.373046875,27.36328125 48.427734375,27.36328125 53.4521484375,28.037109375 57.978515625,29.9560546875 61.81640625,32.9296875 64.7900390625,36.767578125 66.708984375,41.2939453125 67.3828125,46.318359375 67.3828125,54.755859375 67.1337890625,57.286376953125 66.38671875,59.6630859375 63.6767578125,63.6767578125 59.6630859375,66.38671875 57.286376953125,67.1337890625 54.755859375,67.3828125 46.318359375,67.3828125 42.7331504821777,67.042236328125 39.3017578125,66.0205078125 36.119384765625,64.376220703125 33.28125,62.16796875 31.0546875,64.3212890625 28.681640625,65.9619140625 26.015625,67.0166015625 22.939453125,67.3828125 20.4418926239014,67.14111328125 18.10546875,66.416015625 14.1650390625,63.7646484375 11.4990234375,59.82421875 10.762939453125,57.48779296875 10.517578125,54.990234375 10.751953125,52.452392578125 11.455078125,50.2294921875 12.59765625,48.189697265625 14.150390625,46.201171875 17.197265625,43.06640625 20.361328125,40.01953125 18.955078125,40.01953125 13.916015625,39.345703125 9.3896484375,37.4267578125 5.56640625,34.453125 2.5927734375,30.6298828125 0.673828125,26.103515625 0,21.064453125 0,12.626953125 0.249023079872131,10.096435546875 0.99609375,7.71972703933716 3.70605564117432,3.70605516433716 7.7197265625,0.99609375 10.096435546875,0.249026298522949 12.626953125,0z" />
    </g>
  </g>
</svg>