<?xml version="1.0" encoding="utf-8"?>
<!DOCTYPE svg PUBLIC "-//W3C//DTD SVG 1.1//EN" "http://www.w3.org/Graphics/SVG/1.1/DTD/svg11.dtd">
<svg width="67.3828125000041" height="67.412109375" xmlns="http://www.w3.org/2000/svg" xmlns:xlink="http://www.w3.org/1999/xlink" xmlns:xml="http://www.w3.org/XML/1998/namespace" version="1.1">
  <g>
    <g>
      <path style="fill:#FF0000;fill-opacity:1" d="M6.32812452316284,61.083984375L4.84863233566284,61.7138671875 4.21874952316284,63.193359375 10.517578125,63.193359375 11.103515625,61.083984375 6.32812452316284,61.083984375z M16.845703125,50.888671875L16.845703125,59.00390625 21.064453125,59.00390625 21.064453125,54.08203125 16.845703125,50.888671875z M31.58203125,40.048828125L29.12109375,40.546875 27.1142578125,41.89453125 25.751953125,43.88671875 25.25390625,46.34765625 25.25390625,61.083984375 16.845703125,61.083984375 15.732421875,61.083984375 14.619140625,61.142578125 13.623046875,61.4208984375 12.9052734375,62.05078125 12.626953125,63.193359375 27.36328125,63.193359375 28.857421875,62.578125 29.47265625,61.083984375 29.47265625,56.044921875 32.0361328125,57.7734375 34.423828125,59.70703125 35.91796875,61.083984375 37.3388671875,62.197265625 38.96484375,62.9296875 41.07421875,63.193359375 62.109375,63.193359375 62.8564453125,62.8857421875 63.1640625,62.138671875 62.8564453125,61.3916015625 62.109375,61.083984375 46.318359375,61.083984375 43.8720703125,60.5859375 41.865234375,59.23828125 40.517578125,57.2314453125 40.01953125,54.78515625 40.01953125,47.40234375 39.43359375,44.53125 37.8515625,42.1875 35.5078125,40.6201171875 32.63671875,40.048828125 31.58203125,40.048828125z M10.517578125,32.2265625L6.62109327316284,36.123046875 6.32812452316284,36.884765625 6.32812452316284,37.939453125 6.85546827316284,39.3310546875 8.173828125,40.01953125 8.408203125,39.78515625 8.408203125,37.32421875 10.517578125,35.21484375 10.517578125,32.2265625z M12.626953125,22.294921875L12.626953125,35.830078125 12.802734375,38.37890625 8.73046875,42.451171875 8.49609375,42.7880859375 8.408203125,43.18359375 8.408203125,44.23828125 9.0380859375,45.7177734375 10.517578125,46.34765625 10.517578125,43.65234375 14.6044921875,39.6240234375 18.6328125,35.5078125 18.955078125,34.775390625 18.955078125,28.447265625 21.064453125,28.447265625 21.064453125,34.775390625 20.8300762176514,35.9765625 20.126953125,37.001953125 14.0625,43.06640625 14.12109375,43.18359375 15.750732421875,46.190185546875 17.7685546875,48.8232421875 20.2258281707764,51.038818359375 23.173828125,52.79296875 23.173828125,46.34765625 23.8330078125,43.0810546875 25.634765625,40.400390625 28.3154296875,38.5986328125 31.58203125,37.939453125 33.80859375,38.056640625 35.830078125,38.49609375 37.6904296875,39.375 39.43359375,40.810546875 38.03466796875,38.12255859375 36.005859375,35.9765625 33.45703125,34.48974609375 30.498046875,33.779296875 29.5458984375,33.720703125 28.59375,33.662109375 26.4111328125,33.134765625 24.462890625,32.0654296875 22.8515625,30.52734375 21.708984375,28.59375 21.15234375,26.513671875 21.03515625,24.375 21.0498046875,23.3349609375 21.064453125,22.294921875 19.1748046875,23.73046875 16.845703125,24.2578125 14.5166015625,23.7451171875 12.626953125,22.294921875z M14.765625,17.9296875L18.92578125,17.9296875 18.9404296875,18.017578125 18.955078125,18.10546875 18.80859375,18.7060546875 18.4130859375,19.3359375 17.8564453125,19.833984375 17.255859375,20.0390625 16.435546875,20.0390625 15.8203125,19.833984375 15.2783203125,19.3359375 14.8828125,18.7060546875 14.736328125,18.10546875 14.7509765625,18.017578125 14.765625,17.9296875z M20.009765625,10.546875L20.7421875,10.869140625 21.064453125,11.6015625 21.064453125,13.7109375 20.7568359375,14.4580078125 20.009765625,14.765625 19.27734375,14.4580078125 18.955078125,13.740234375 18.955078125,11.6015625 19.27734375,10.869140625 20.009765625,10.546875z M13.681640625,10.546875L14.4140625,10.869140625 14.736328125,11.6015625 14.736328125,13.7109375 14.4287109375,14.4580078125 13.65234375,14.765625 12.9345703125,14.443359375 12.626953125,13.7109375 12.626953125,11.6015625 12.94921875,10.869140625 13.681640625,10.546875z M6.32812452316284,4.24804735183716L6.32812452316284,5.30273485183716 6.63574171066284,7.08984375 7.49999952316284,8.6279296875 8.8330078125,9.7998046875 10.517578125,10.458984375 10.517578125,11.71875 11.19140625,14.970703125 12.4365234375,17.63671875 13.798828125,20.2734375 15.05859375,21.62109375 16.845703125,22.119140625 18.6181640625,21.62109375 19.892578125,20.2734375 21.1083984375,17.9296875 22.265625,15.52734375 22.9467754364014,13.6376953125 23.173828125,11.71875 23.173828125,10.458984375 24.8583984375,9.7998046875 26.19140625,8.6279296875 27.0556640625,7.08984375 27.36328125,5.30273485183716 27.36328125,4.24804735183716 26.30859375,4.24804735183716 24.521484375,4.57031202316284 22.9833984375,5.44921875 21.8115234375,6.78222703933716 21.15234375,8.466796875 12.5390625,8.466796875 11.8798828125,6.78222703933716 10.7080078125,5.44921875 9.169921875,4.57031202316284 7.38281202316284,4.24804735183716 6.32812452316284,4.24804735183716z M5.50781202316284,0L8.291015625,0.117187261581421 10.869140625,0.673828125 13.1982421875,1.96289086341858 15.234375,4.24804735183716 18.45703125,4.24804735183716 19.9658184051514,2.47558879852295 21.85546875,1.14257764816284 24.0087890625,0.307619988918304 26.30859375,0.029296875 31.58203125,0.029296875 31.5966796875,1.71386766433716 31.611328125,3.33984398841858 31.4794921875,6.1669921875 30.908203125,8.7744140625 29.6044921875,11.1474609375 27.275390625,13.2421875 26.54296875,16.1865234375 25.25390625,18.92578125 25.25390625,25.3125 25.60546875,26.953125 26.5283203125,28.30078125 27.890625,29.208984375 29.47265625,29.501953125 33.75,30.1318359375 37.6025390625,31.93359375 40.7666015625,34.7607421875 43.037109375,38.466796875 43.9160118103027,41.30126953125 44.208984375,44.23828125 44.208984375,54.78515625 44.8388671875,56.2646484375 46.318359375,56.89453125 62.109375,56.89453125 64.16015625,57.3046875 65.8447265625,58.4326171875 66.97265625,60.1025390625 67.3828125,62.138671875 66.97265625,64.189453125 65.8447265625,65.8740234375 64.16015625,67.001953125 62.109375,67.412109375 41.07421875,67.412109375 38.836669921875,67.19970703125 36.6943359375,66.5625 34.705810546875,65.5224609375 32.9296875,64.1015625 30.6005859375,66.5185546875 29.051513671875,67.188720703125 27.36328125,67.412109375 0,67.412109375 0,63.193359375 0.498046398162842,60.732421875 1.86035108566284,58.740234375 3.86718702316284,57.392578125 6.32812452316284,56.89453125 12.626953125,56.89453125 12.626953125,50.56640625 10.517578125,50.56640625 8.056640625,50.068359375 6.06445264816284,48.7060546875 4.71679639816284,46.69921875 4.21874952316284,44.23828125 4.20410108566284,43.7841796875 4.18945264816284,43.330078125 4.20410108566284,42.978515625 4.24804639816284,42.65625 2.66601514816284,40.5322265625 2.10937452316284,37.939453125 2.13867139816284,36.5771484375 2.32910108566284,35.3759765625 2.79785108566284,34.2626953125 3.66210889816284,33.1640625 8.408203125,28.388671875 8.408203125,18.92578125 7.13378858566284,16.171875 6.41601419448853,13.2421875 4.63256788253784,11.72607421875 3.26660108566284,9.814453125 2.39868116378784,7.6318359375 2.10937452316284,5.30273485183716 2.10937452316284,0.029296875 3.83789014816284,0.0146489143371582 5.50781202316284,0z" />
    </g>
  </g>
</svg>