<?xml version="1.0" encoding="utf-8"?>
<!DOCTYPE svg PUBLIC "-//W3C//DTD SVG 1.1//EN" "http://www.w3.org/Graphics/SVG/1.1/DTD/svg11.dtd">
<svg width="67.3828125000005" height="67.3828125" xmlns="http://www.w3.org/2000/svg" xmlns:xlink="http://www.w3.org/1999/xlink" xmlns:xml="http://www.w3.org/XML/1998/namespace" version="1.1">
  <g>
    <g>
      <path style="fill:#FF0000;fill-opacity:1" d="M48.837890625,53.466796875L43.974609375,58.330078125 42.48046875,58.974609375 33.69140625,58.974609375 32.2119140625,58.3447265625 31.58203125,56.865234375 27.36328125,56.865234375 27.861328125,59.326171875 29.2236328125,61.318359375 31.23046875,62.666015625 33.69140625,63.1640625 42.48046875,63.1640625 44.8974571228027,62.70263671875 46.93359375,61.318359375 51.796875,56.455078125 50.3466796875,54.9609375 48.837890625,53.466796875z M25.25390625,50.537109375L23.7890625,51.1669921875 23.173828125,52.646484375 23.7890625,54.1259765625 25.25390625,54.755859375 33.69140625,54.755859375 35.185546875,54.140625 35.80078125,52.646484375 35.185546875,51.15234375 33.69140625,50.537109375 25.25390625,50.537109375z M48.662109375,47.6953125L46.7724609375,48.1640625 44.82421875,48.3984375 42.3852500915527,49.8486328125 39.638671875,50.5078125 39.990234375,52.6171875 39.638671875,54.755859375 41.6015625,54.755859375 48.662109375,47.6953125z M15,23.173828125L43.974609375,23.173828125 46.5234375,23.6865234375 48.6181640625,25.0927734375 50.0244140625,27.1875 50.537109375,29.736328125 50.537109375,33.427734375 50.0390625,35.9033203125 48.69140625,37.998046875 46.6845703125,39.462890625 44.208984375,40.01953125 42.83203125,40.01953125 40.5615234375,39.66796875 38.8623046875,38.6865234375 37.5146484375,37.20703125 36.26953125,35.361328125 34.954833984375,33.77197265625 33.3544921875,32.578125 31.512451171875,31.8310546875 29.47265625,31.58203125 27.44384765625,31.8310546875 25.576171875,32.578125 23.9575176239014,33.77197265625 22.67578125,35.361328125 21.708984375,36.9140625 19.3359375,39.19921875 17.8198223114014,39.814453125 16.142578125,40.01953125 15,40.01953125 12.4365234375,39.5068359375 10.341796875,38.0859375 8.9208984375,35.9912109375 8.408203125,33.427734375 8.408203125,29.736328125 8.9208984375,27.1875 10.341796875,25.0927734375 12.4365234375,23.6865234375 15,23.173828125z M14.58984375,18.955078125L12.491455078125,19.178466796875 10.5322265625,19.8486328125 7.236328125,22.236328125 5.0244140625,25.6787109375 4.420166015625,27.6672382354736 4.21875,29.736328125 4.21875,33.310546875 4.427490234375,35.50048828125 5.0537109375,37.55859375 7.3388671875,41.0302734375 10.751953125,43.359375 12.79541015625,43.99658203125 15,44.208984375 16.23046875,44.208984375 18.6474609375,43.916015625 20.91796875,43.095703125 22.9541015625,41.7919921875 24.66796875,40.048828125 25.4736328125,38.8330078125 26.25,37.587890625 27.6416015625,36.26953125 29.501953125,35.80078125 31.34765625,36.26953125 32.6953125,37.587890625 33.28125,38.525390625 33.8671875,39.462890625 35.595703125,41.455078125 37.7490234375,42.94921875 40.1953125,43.88671875 42.83203125,44.208984375 43.974609375,44.208984375 47.8857421875,43.4765625 51.1376953125,41.4697265625 53.4814453125,38.4375 54.66796875,34.62890625 54.755859375,33.5009765625 54.78515625,32.34375 54.7705078125,31.025390625 54.755859375,29.736328125 54.5507774353027,27.6672382354736 53.935546875,25.6787109375 51.6943359375,22.236328125 48.369140625,19.8486328125 46.4062461853027,19.178466796875 44.326171875,18.955078125 14.58984375,18.955078125z M56.8359375,4.21874952316284L55.3564453125,4.83398485183716 54.755859375,6.328125 55.0634765625,7.55859375 55.83984375,9.140625 56.8505859375,11.015625 57.861328125,13.095703125 58.6376953125,15.3515625 58.9453125,17.724609375 58.9453125,38.994140625 58.74755859375,41.055908203125 58.154296875,43.0224609375 55.869140625,46.435546875 50.33203125,52.001953125 53.291015625,54.9609375 58.857421875,49.423828125 60.714111328125,47.186279296875 62.0654296875,44.6337890625 62.889404296875,41.868896484375 63.1640625,38.994140625 63.1640625,17.724609375 62.77587890625,14.33349609375 61.611328125,11.1328125 58.740234375,5.390625 57.94921875,4.5263671875 56.8359375,4.21874952316284z M56.865234375,0L58.619384765625,0.234377920627594 60.1904296875,0.937500476837158 62.490234375,3.48632788658142 65.390625,9.2578125 66.8701171875,13.3740234375 67.3828125,17.724609375 67.3828125,38.994140625 67.027587890625,42.725830078125 65.9619140625,46.2451171875 64.215087890625,49.486083984375 61.81640625,52.3828125 49.921875,64.306640625 46.5087890625,66.591796875 44.5422325134277,67.18505859375 42.48046875,67.3828125 33.69140625,67.3828125 30.0439453125,66.7236328125 26.9091796875,64.9072265625 24.580078125,62.1533203125 23.3203125,58.65234375 21.5478515625,57.744140625 20.1708984375,56.3671875 19.27734375,54.6240234375 18.955078125,52.646484375 19.3359375,50.5078125 16.58203125,49.833984375 14.150390625,48.3984375 11.2646484375,47.977294921875 8.583984375,47.0068359375 6.17065334320068,45.567626953125 4.08691310882568,43.740234375 2.376708984375,41.561279296875 1.083984375,39.0673828125 0.270995736122131,36.331787109375 0,33.427734375 0,29.736328125 0.292968392372131,26.7224140167236 1.171875,23.8916015625 2.559814453125,21.328125 4.3798828125,19.1162109375 6.59179592132568,17.296142578125 9.1552734375,15.908203125 11.986083984375,15.029296875 15,14.736328125 43.974609375,14.736328125 46.9775352478027,15.032958984375 49.833984375,15.9228515625 52.4560508728027,17.362060546875 54.755859375,19.306640625 54.755859375,18.22265625 54.6533203125,16.611328125 54.08203125,14.912109375 51.2109375,9.140625 50.537109375,6.328125 51.03515625,3.85253858566284 52.3974609375,1.84570276737213 54.404296875,0.498046875 56.865234375,0z" />
    </g>
  </g>
</svg>