<?xml version="1.0" encoding="utf-8"?>
<!DOCTYPE svg PUBLIC "-//W3C//DTD SVG 1.1//EN" "http://www.w3.org/Graphics/SVG/1.1/DTD/svg11.dtd">
<svg width="67.3828125000009" height="67.3828125" xmlns="http://www.w3.org/2000/svg" xmlns:xlink="http://www.w3.org/1999/xlink" xmlns:xml="http://www.w3.org/XML/1998/namespace" version="1.1">
  <g>
    <g>
      <path style="fill:#FF0000;fill-opacity:1" d="M48.427734375,54.755859375L48.427734375,63.1640625 54.755859375,63.1640625 54.755859375,54.755859375 48.427734375,54.755859375z M27.36328125,39.990234375L33.69140625,52.646484375 40.01953125,39.990234375 27.36328125,39.990234375z M14.736328125,39.697265625L14.736328125,46.640625 15.6884765625,45.263671875 16.845703125,44.033203125 16.845703125,39.84375 16.025390625,39.9609375 14.736328125,39.697265625z M30.46875,30.3515625L31.0400390625,30.556640625 31.669921875,31.0107421875 32.5048828125,31.46484375 33.69140625,31.669921875 34.8779296875,31.46484375 35.712890625,31.0107421875 36.328125,30.556640625 36.884765625,30.3515625 37.6171875,30.64453125 37.91015625,31.34765625 37.412109375,32.34375 36.240234375,33.0908203125 34.8486328125,33.5595703125 33.69140625,33.720703125 32.5341796875,33.5595703125 31.142578125,33.0908203125 29.970703125,32.34375 29.47265625,31.34765625 29.765625,30.64453125 30.46875,30.3515625z M13.681640625,28.388671875L12.890625,28.828125 12.1142578125,30.17578125 11.3671875,31.5234375 10.83984375,31.494140625 10.13671875,31.46484375 8.9794921875,31.640625 8.4375,32.431640625 8.671875,33.046875 9.580078125,33.80859375 10.517578125,34.541015625 10.517578125,36.97265625 10.7958984375,37.587890625 11.42578125,37.8515625 12.0263671875,37.5732421875 12.6708984375,36.9140625 13.2568359375,36.15234375 13.681640625,35.595703125 14.091796875,36.15234375 14.6923828125,36.8994140625 15.380859375,37.55859375 16.025390625,37.8515625 16.5966796875,37.5732421875 16.845703125,36.97265625 16.845703125,34.541015625 18.69140625,33.046875 18.8818359375,32.75390625 18.955078125,32.40234375 18.7060546875,31.8017578125 18.10546875,31.552734375 15.99609375,31.46484375 14.47265625,28.828125 13.681640625,28.388671875z M31.58203125,25.283203125L35.80078125,25.283203125 35.1708984375,26.748046875 33.69140625,27.36328125 32.2119140625,26.748046875 31.58203125,25.283203125z M63.1640625,21.064453125L56.689453125,21.767578125 50.537109375,23.876953125 50.537109375,44.00390625 51.9580078125,45.6298828125 53.115234375,47.4609375 57.3779296875,42.8173828125 60.52734375,37.4560546875 62.490234375,31.552734375 63.1640625,25.283203125 63.1640625,21.064453125z M4.21875,21.064453125L4.21875,25.283203125 4.775390625,30.99609375 6.4013671875,36.4306640625 9.0380859375,41.455078125 12.626953125,45.908203125 12.626953125,39.697265625 11.396484375,39.9609375 10.2392578125,39.7265625 9.287109375,39.0966796875 8.642578125,38.14453125 8.408203125,36.97265625 8.408203125,35.537109375 7.6171875,34.892578125 6.943359375,34.2626953125 6.47460842132568,33.486328125 6.298828125,32.431640625 6.533203125,31.2744140625 7.177734375,30.322265625 8.1298828125,29.677734375 9.287109375,29.443359375 10.13671875,29.443359375 10.7666015625,28.3154296875 11.455078125,27.2900390625 12.36328125,26.5576171875 13.681640625,26.279296875 14.794921875,26.455078125 15.6005859375,26.9384765625 16.201171875,27.6708984375 16.7578125,28.59375 16.845703125,28.740234375 16.845703125,23.876953125 10.693359375,21.767578125 4.21875,21.064453125z M40.01953125,18.955078125L41.484375,19.5849609375 42.099609375,21.064453125 42.099609375,23.173828125 41.484375,24.6533203125 40.01953125,25.283203125 38.5400390625,24.6533203125 37.91015625,23.173828125 37.91015625,21.064453125 38.525390625,19.5703125 40.01953125,18.955078125z M27.36328125,18.955078125L28.857421875,19.5703125 29.47265625,21.064453125 29.47265625,23.173828125 28.8427734375,24.6533203125 27.36328125,25.283203125 25.8837890625,24.6533203125 25.25390625,23.173828125 25.25390625,21.064453125 25.8837890625,19.5849609375 27.36328125,18.955078125z M35.80078125,10.517578125L35.80078125,16.845703125 33.427734375,16.5966796875 30.99609375,15.8349609375 28.8427734375,14.5458984375 27.3046875,12.685546875 26.08154296875,15.296630859375 24.228515625,17.2705078125 21.8261699676514,18.519287109375 18.955078125,18.955078125 18.955078125,23.115234375 19.2443828582764,26.0742206573486 20.1123046875,28.857421875 21.4782695770264,31.380615234375 23.26171875,33.5595703125 25.426025390625,35.357666015625 27.9345703125,36.73828125 30.714111328125,37.6171875 33.69140625,37.91015625 36.668701171875,37.6171875 39.4482421875,36.73828125 41.9567832946777,35.357666015625 44.12109375,33.5595703125 45.9045372009277,31.380615234375 47.2705078125,28.857421875 48.1384239196777,26.0742206573486 48.427734375,23.115234375 48.427734375,18.955078125 44.35546875,18.3544921875 40.8544921875,16.6552734375 37.9833984375,14.00390625 35.80078125,10.517578125z M33.69140625,0L37.496337890625,0.340579003095627 41.1181640625,1.36230444908142 44.4653282165527,2.98462200164795 47.4462890625,5.126953125 50.0060997009277,7.752685546875 52.08984375,10.8251953125 53.6206016540527,14.263916015625 54.521484375,17.98828125 58.79150390625,17.13134765625 63.1640625,16.845703125 67.3828125,16.845703125 67.3828125,25.283203125 66.767578125,31.6552734375 64.9658203125,37.763671875 62.05078125,43.4326171875 58.095703125,48.486328125 58.73291015625,51.23291015625 58.9453125,54.0234375 58.9453125,67.3828125 8.408203125,67.3828125 5.1416015625,66.650390625 2.4609375,64.7021484375 0.6591796875,61.9189453125 0,58.65234375 0.6005859375,55.4443359375 2.34375,52.67578125 7.822265625,46.81640625 4.464111328125,42.0263671875 2.0068359375,36.73828125 0.501708805561066,31.10595703125 0,25.283203125 0,16.845703125 0.64453125,16.845703125 6.7822265625,17.0068359375 12.861328125,17.98828125 13.743896484375,14.263916015625 15.2783203125,10.8251953125 17.3730449676514,7.752685546875 19.9365234375,5.126953125 22.9138164520264,2.98462200164795 26.25,1.36230444908142 29.8681640625,0.340579003095627 33.69140625,0z" />
    </g>
  </g>
</svg>