<?xml version="1.0" encoding="utf-8"?>
<!DOCTYPE svg PUBLIC "-//W3C//DTD SVG 1.1//EN" "http://www.w3.org/Graphics/SVG/1.1/DTD/svg11.dtd">
<svg width="67.3828125000004" height="67.3828125" xmlns="http://www.w3.org/2000/svg" xmlns:xlink="http://www.w3.org/1999/xlink" xmlns:xml="http://www.w3.org/XML/1998/namespace" version="1.1">
  <g>
    <g>
      <path style="fill:#FF0000;fill-opacity:1" d="M15.439453125,56.865234375L19.5483379364014,59.5751953125 24.0234375,61.552734375 28.76953125,62.76123046875 33.69140625,63.1640625 38.61328125,62.76123046875 43.359375,61.552734375 47.8344688415527,59.5751953125 51.943359375,56.865234375 15.439453125,56.865234375z M48.92578125,50.15625L47.7392578125,50.5517578125 47.2265625,51.6796875 47.7392578125,52.8076171875 48.92578125,53.232421875 50.1123046875,52.822265625 50.595703125,51.6796875 50.09765625,50.56640625 48.92578125,50.15625z M21.298828125,44.794921875L23.4375,44.794921875 22.91015625,47.080078125 20.80078125,47.080078125 21.298828125,44.794921875z M36.884765625,44.677734375L37.8515625,45.1904296875 38.14453125,46.2890625 38.0712890625,47.314453125 37.79296875,48.4423828125 37.2216796875,49.3505859375 36.26953125,49.716796875 35.6689453125,49.541015625 35.2734375,49.0869140625 35.068359375,48.4716796875 35.009765625,47.841796875 35.09765625,46.8896484375 35.4052734375,45.849609375 35.9912109375,45.0146484375 36.884765625,44.677734375z M20.44921875,39.814453125L19.74609375,43.125 17.87109375,43.125 17.548828125,44.794921875 19.423828125,44.794921875 18.92578125,47.080078125 17.197265625,47.080078125 16.845703125,48.75 18.57421875,48.75 17.900390625,51.943359375 19.74609375,51.943359375 20.44921875,48.75 22.55859375,48.75 21.884765625,51.943359375 23.73046875,51.943359375 24.462890625,48.75 26.30859375,48.75 26.71875,47.080078125 24.814453125,47.080078125 25.3125,44.794921875 27.01171875,44.794921875 27.392578125,43.125 25.6640625,43.125 26.3671875,39.814453125 24.4921875,39.814453125 23.7890625,43.125 21.650390625,43.125 22.353515625,39.814453125 20.44921875,39.814453125z M47.373046875,39.755859375L47.6953125,48.896484375 50.068359375,48.896484375 50.44921875,39.755859375 47.373046875,39.755859375z M37.1484375,39.580078125L33.92578125,40.1513671875 31.3330078125,41.77734375 29.6044921875,44.296875 28.974609375,47.51953125 29.560546875,50.595703125 31.171875,52.8662109375 33.603515625,54.2724609375 36.6796875,54.755859375 38.7451171875,54.6240234375 40.751953125,54.08203125 40.751953125,52.294921875 38.9208984375,52.91015625 36.943359375,53.115234375 34.5703125,52.7490234375 32.724609375,51.6796875 31.5380859375,49.951171875 31.11328125,47.578125 31.5673828125,45.087890625 32.841796875,43.06640625 34.7900390625,41.71875 37.265625,41.220703125 39.3603515625,41.54296875 41.0009765625,42.4951171875 42.0849609375,44.0478515625 42.48046875,46.142578125 42.421875,47.1533203125 42.1875,48.310546875 41.6748046875,49.27734375 40.78125,49.6875 40.400390625,49.5556640625 40.1806640625,49.21875 40.0927734375,48.7939453125 40.078125,48.3984375 40.2099609375,45.8203125 40.48828125,43.2421875 38.408203125,43.2421875 38.3203125,44.150390625 37.6171875,43.330078125 36.5625,43.095703125 34.9072265625,43.53515625 33.7646484375,44.6630859375 33.0908203125,46.201171875 32.87109375,47.87109375 33.0322265625,49.1748046875 33.5302734375,50.2880859375 34.4091796875,51.064453125 35.712890625,51.357421875 37.177734375,50.859375 38.056640625,49.5703125 38.7744140625,50.888671875 40.224609375,51.357421875 42.12890625,50.888671875 43.4912109375,49.6728515625 44.3115234375,47.9736328125 44.58984375,46.0546875 43.9892578125,43.2275390625 42.36328125,41.2060546875 39.990234375,39.990234375 37.1484375,39.580078125z M45.263671875,23.173828125L46.4794921875,23.4228515625 47.490234375,24.08203125 48.1787109375,25.078125 48.427734375,26.30859375 48.427734375,30.52734375 48.1787109375,31.7724609375 47.5048828125,32.7685546875 46.494140625,33.4423828125 45.263671875,33.69140625 44.0478515625,33.4423828125 43.037109375,32.75390625 42.3486328125,31.7431640625 42.099609375,30.52734375 42.099609375,26.30859375 42.3486328125,25.0927734375 43.037109375,24.0966796875 44.0478515625,23.4228515625 45.263671875,23.173828125z M22.119140625,23.173828125L23.3349609375,23.4228515625 24.3310546875,24.0966796875 25.0048828125,25.0927734375 25.25390625,26.30859375 25.25390625,30.52734375 25.0048828125,31.7431640625 24.345703125,32.75390625 23.349609375,33.4423828125 22.119140625,33.69140625 20.8740234375,33.4423828125 19.8779296875,32.7685546875 19.2041015625,31.7724609375 18.955078125,30.52734375 18.955078125,26.30859375 19.2041015625,25.078125 19.892578125,24.08203125 20.9033203125,23.4228515625 22.119140625,23.173828125z M48.427734375,10.517578125L49.9072265625,11.1474609375 50.537109375,12.626953125 49.921875,14.12109375 41.484375,22.55859375 40.01953125,23.173828125 38.525390625,22.55859375 37.91015625,21.064453125 38.525390625,19.5703125 46.93359375,11.1328125 48.427734375,10.517578125z M18.955078125,10.517578125L20.44921875,11.1328125 28.857421875,19.5703125 29.47265625,21.064453125 28.857421875,22.55859375 27.36328125,23.173828125 25.8984375,22.55859375 17.4609375,14.12109375 16.845703125,12.626953125 17.4755859375,11.1474609375 18.955078125,10.517578125z M33.69140625,4.21874952316284L29.696044921875,4.48242473602295 25.8544921875,5.2734375 22.2106914520264,6.54419231414795 18.80859375,8.2470703125 15.677490234375,10.3564453125 12.8466796875,12.8466796875 10.3564453125,15.677490234375 8.2470703125,18.80859375 6.54418849945068,22.210693359375 5.2734375,25.8544921875 4.482421875,29.6960468292236 4.21875,33.69140625 4.62158203125,38.61328125 5.830078125,43.359375 7.80761623382568,47.83447265625 10.517578125,51.943359375 10.517578125,37.91015625 56.865234375,37.91015625 56.865234375,51.943359375 59.5751953125,47.83447265625 61.552734375,43.359375 62.76123046875,38.61328125 63.1640625,33.69140625 62.900390625,29.6960468292236 62.109375,25.8544921875 60.838623046875,22.210693359375 59.1357421875,18.80859375 57.0263671875,15.677490234375 54.5361328125,12.8466796875 51.7053184509277,10.3564453125 48.57421875,8.2470703125 45.1721153259277,6.54419231414795 41.5283203125,5.2734375 37.686767578125,4.48242473602295 33.69140625,4.21874952316284z M33.69140625,0L38.26171875,0.300295770168304 42.65625,1.20117139816284 46.8200645446777,2.65137004852295 50.6982421875,4.59960889816284 54.2687950134277,7.0166015625 57.509765625,9.873046875 60.3662109375,13.114013671875 62.783203125,16.6845703125 64.7314453125,20.562744140625 66.181640625,24.7265625 67.08251953125,29.1210956573486 67.3828125,33.69140625 67.08251953125,38.26171875 66.181640625,42.65625 64.7314453125,46.820068359375 62.783203125,50.6982421875 60.3662109375,54.268798828125 57.509765625,57.509765625 54.2687950134277,60.3662109375 50.6982421875,62.783203125 46.8200645446777,64.7314453125 42.65625,66.181640625 38.26171875,67.08251953125 33.69140625,67.3828125 29.12109375,67.08251953125 24.7265625,66.181640625 20.5627422332764,64.7314453125 16.6845703125,62.783203125 13.114013671875,60.3662109375 9.873046875,57.509765625 7.01660060882568,54.268798828125 4.599609375,50.6982421875 2.6513671875,46.820068359375 1.201171875,42.65625 0.300292611122131,38.26171875 0,33.69140625 0.300292611122131,29.1210956573486 1.201171875,24.7265625 2.6513671875,20.562744140625 4.599609375,16.6845703125 7.01660060882568,13.114013671875 9.873046875,9.873046875 13.114013671875,7.0166015625 16.6845703125,4.59960889816284 20.5627422332764,2.65137004852295 24.7265625,1.20117139816284 29.12109375,0.300295770168304 33.69140625,0z" />
    </g>
  </g>
</svg>