<?xml version="1.0" encoding="utf-8"?>
<!DOCTYPE svg PUBLIC "-//W3C//DTD SVG 1.1//EN" "http://www.w3.org/Graphics/SVG/1.1/DTD/svg11.dtd">
<svg width="67.3828125000011" height="54.7265625" xmlns="http://www.w3.org/2000/svg" xmlns:xlink="http://www.w3.org/1999/xlink" xmlns:xml="http://www.w3.org/XML/1998/namespace" version="1.1">
  <g>
    <g>
      <path style="fill:#FF0000;fill-opacity:1" d="M47.373046875,4.18945217132568L46.318359375,4.39453125 46.318359375,24.19921875 46.0107421875,24.9462890625 45.263671875,25.25390625 44.5166015625,24.9462890625 44.208984375,24.19921875 44.208984375,9.462890625 43.9599609375,8.2470703125 43.2861328125,7.236328125 42.2900390625,6.5478515625 41.07421875,6.298828125 40.01953125,6.474609375 40.01953125,24.19921875 39.697265625,24.931640625 38.96484375,25.25390625 38.2177734375,24.9462890625 37.91015625,24.19921875 37.91015625,14.736328125 37.294921875,13.2421875 35.80078125,12.626953125 35.80078125,44.35546875 37.9541015625,46.962890625 40.6494140625,48.896484375 43.7255859375,50.1123046875 47.080078125,50.537109375 51.3134765625,49.8779296875 54.697265625,48.10546875 57.6708984375,45.5419921875 60.703125,42.48046875 62.5341796875,39.7265625 63.1640625,36.50390625 63.1640625,26.30859375 62.9150390625,25.0927734375 62.2265625,24.08203125 61.2158203125,23.3935546875 60,23.14453125 58.9453125,23.3203125 58.9453125,33.69140625 50.537109375,33.69140625 48.076171875,34.189453125 46.0693359375,35.537109375 44.70703125,37.529296875 44.208984375,39.990234375 44.208984375,41.044921875 43.9013671875,41.7919921875 43.154296875,42.099609375 42.421875,41.77734375 42.099609375,41.044921875 42.099609375,39.990234375 42.7587890625,36.708984375 44.560546875,34.04296875 47.2412109375,32.2412109375 50.537109375,31.58203125 56.865234375,31.58203125 56.865234375,11.572265625 56.6162109375,10.3564453125 55.927734375,9.345703125 54.9169921875,8.6572265625 53.701171875,8.408203125 52.646484375,8.583984375 52.646484375,24.19921875 52.3388671875,24.9462890625 51.591796875,25.25390625 50.8447265625,24.9462890625 50.537109375,24.19921875 50.537109375,7.353515625 50.2880859375,6.1376953125 49.599609375,5.126953125 48.5888671875,4.43847560882568 47.373046875,4.18945217132568z M20.009765625,4.18945217132568L18.955078125,4.39453125 18.955078125,24.19921875 18.6474609375,24.9462890625 17.900390625,25.25390625 17.1533203125,24.9462890625 16.845703125,24.19921875 16.845703125,11.572265625 16.5966796875,10.341796875 15.9228515625,9.3310546875 14.912109375,8.6572265625 13.681640625,8.408203125 12.626953125,8.583984375 12.626953125,31.58203125 16.845703125,31.58203125 20.126953125,32.2412109375 22.79296875,34.04296875 24.5947265625,36.708984375 25.25390625,39.990234375 25.25390625,40.576171875 25.0927734375,41.6162109375 24.228515625,42.099609375 23.4814453125,41.7919921875 23.173828125,41.044921875 23.173828125,39.990234375 22.67578125,37.529296875 21.3134765625,35.537109375 19.306640625,34.189453125 16.845703125,33.69140625 10.517578125,33.69140625 10.517578125,26.30859375 10.2685546875,25.0927734375 9.5947265625,24.08203125 8.5986328125,23.3935546875 7.3828125,23.14453125 6.1669921875,23.3935546875 5.15625,24.08203125 4.4677734375,25.0927734375 4.21875,26.30859375 4.21875,36.50390625 4.8486328125,39.7265625 6.6796875,42.48046875 9.7119140625,45.5419921875 12.6708984375,48.10546875 16.025390625,49.8779296875 20.2734375,50.537109375 22.9504375457764,50.2734375 25.4736328125,49.482421875 27.76611328125,48.2373046875 29.7509765625,46.611328125 31.387939453125,44.64111328125 32.63671875,42.36328125 33.427734375,39.84375 33.69140625,37.1484375 33.69140625,14.736328125 33.076171875,13.2421875 31.58203125,12.626953125 31.58203125,24.19921875 31.2744140625,24.9462890625 30.52734375,25.25390625 29.7802734375,24.9462890625 29.47265625,24.19921875 29.47265625,9.462890625 29.2236328125,8.2470703125 28.53515625,7.236328125 27.5244140625,6.5478515625 26.30859375,6.298828125 25.25390625,6.474609375 25.25390625,24.19921875 24.9462890625,24.931640625 24.228515625,25.25390625 23.4814453125,24.9462890625 23.173828125,24.19921875 23.173828125,7.353515625 22.9248046875,6.1376953125 22.236328125,5.126953125 21.2255859375,4.43847560882568 20.009765625,4.18945217132568z M20.0390625,0L22.880859375,0.571288824081421 25.25390625,2.16796803474426 26.337890625,2.08007788658142 29.0185546875,2.59277319908142 31.2744140625,4.013671875 32.8857421875,6.1376953125 33.662109375,8.759765625 34.482421875,6.1376953125 36.1083984375,4.013671875 38.3642578125,2.59277319908142 41.044921875,2.08007788658142 42.12890625,2.16796803474426 44.501953125,0.571288824081421 47.34375,0 49.4165000915527,0.281985104084015 51.298828125,1.1279296875 52.8735313415527,2.46459937095642 54.0234375,4.21875 56.7626953125,4.892578125 58.9892578125,6.50390625 60.498046875,8.8037109375 61.0546875,11.572265625 61.0546875,19.013671875 63.5595703125,19.86328125 65.5517578125,21.4892578125 66.8701171875,23.701171875 67.353515625,26.30859375 67.3681640625,31.40625 67.3828125,36.50390625 66.73828125,40.60546875 65.009765625,43.8427734375 62.5048828125,46.6845703125 59.53125,49.5703125 56.832275390625,51.78955078125 53.8330078125,53.408203125 50.5700645446777,54.39697265625 47.080078125,54.7265625 43.2861289978027,54.32373046875 39.697265625,53.115234375 36.45263671875,51.1669921875 33.69140625,48.544921875 30.93017578125,51.1669921875 27.685546875,53.115234375 24.0966796875,54.32373046875 20.302734375,54.7265625 16.8127422332764,54.39697265625 13.5498046875,53.408203125 10.550537109375,51.78955078125 7.8515625,49.5703125 4.8779296875,46.6845703125 2.373046875,43.8427734375 0.64453125,40.60546875 0,36.50390625 0,26.30859375 0.4833984375,23.701171875 1.81640625,21.4892578125 3.8232421875,19.86328125 6.328125,19.013671875 6.328125,11.572265625 6.8701171875,8.7890625 8.3642578125,6.4892578125 10.60546875,4.892578125 13.359375,4.21875 14.50927734375,2.48290991783142 16.083984375,1.14257836341858 17.9663066864014,0.285647243261337 20.0390625,0z" />
    </g>
  </g>
</svg>