<?xml version="1.0" encoding="utf-8"?>
<!DOCTYPE svg PUBLIC "-//W3C//DTD SVG 1.1//EN" "http://www.w3.org/Graphics/SVG/1.1/DTD/svg11.dtd">
<svg width="65.2734375" height="65.2734375" xmlns="http://www.w3.org/2000/svg" xmlns:xlink="http://www.w3.org/1999/xlink" xmlns:xml="http://www.w3.org/XML/1998/namespace" version="1.1">
  <g>
    <g>
      <path style="fill:#FF0000;fill-opacity:1" d="M42.099609375,37.91015625L52.646484375,37.91015625 52.646484375,42.12890625 46.318359375,42.12890625 46.318359375,48.427734375 42.099609375,48.427734375 42.099609375,37.91015625z M27.36328125,37.91015625L37.91015625,37.91015625 37.91015625,42.12890625 31.58203125,42.12890625 31.58203125,48.427734375 27.36328125,48.427734375 27.36328125,37.91015625z M12.626953125,37.91015625L23.173828125,37.91015625 23.173828125,42.12890625 16.845703125,42.12890625 16.845703125,48.427734375 12.626953125,48.427734375 12.626953125,37.91015625z M32.63671875,16.845703125L30.849609375,17.1826171875 29.267578125,18.134765625 27.4365234375,19.86328125 25.693359375,21.6796875 24.609375,23.3349609375 24.228515625,25.283203125 24.55078125,27.099609375 25.517578125,28.681640625 29.033203125,32.197265625 30.6884765625,33.310546875 32.63671875,33.69140625 34.4677734375,33.369140625 36.03515625,32.373046875 37.8515625,30.64453125 39.580078125,28.857421875 40.6787109375,27.2021484375 41.07421875,25.25390625 40.7373046875,23.4375 39.755859375,21.85546875 36.240234375,18.33984375 34.599609375,17.2412109375 32.63671875,16.845703125z M42.099609375,8.4375L52.646484375,8.4375 52.646484375,12.626953125 46.318359375,12.626953125 46.318359375,18.955078125 42.099609375,18.955078125 42.099609375,8.4375z M27.36328125,8.4375L37.91015625,8.4375 37.91015625,12.626953125 31.58203125,12.626953125 31.58203125,14.82421875 32.63671875,14.736328125 35.3759765625,15.2783203125 37.705078125,16.845703125 41.07421875,20.185546875 42.1435546875,21.5625 42.861328125,23.173828125 52.646484375,23.173828125 52.646484375,27.36328125 46.318359375,27.36328125 46.318359375,33.69140625 42.099609375,33.69140625 42.099609375,29.00390625 41.19140625,30.234375 40.01953125,31.46484375 38.7890625,32.6513671875 37.705078125,33.69140625 35.390625,35.2587890625 32.63671875,35.80078125 29.8828125,35.2587890625 27.568359375,33.69140625 24.19921875,30.3515625 23.1298828125,28.9599609375 22.412109375,27.36328125 16.845703125,27.36328125 16.845703125,33.69140625 12.626953125,33.69140625 12.626953125,23.173828125 22.412109375,23.173828125 23.1298828125,21.5625 24.19921875,20.185546875 27.36328125,17.021484375 27.36328125,8.4375z M12.626953125,8.4375L23.173828125,8.4375 23.173828125,12.626953125 16.845703125,12.626953125 16.845703125,18.955078125 12.626953125,18.955078125 12.626953125,8.4375z M8.408203125,4.21875L4.21875,8.4375 4.21875,56.865234375 61.0546875,56.865234375 56.865234375,52.646484375 56.865234375,4.21875 8.408203125,4.21875z M6.6796875,0L58.59375,0 65.2734375,6.6796875 65.2734375,58.59375 58.59375,65.2734375 6.6796875,65.2734375 0,58.59375 0,6.6796875 3.2958984375,3.31054663658142 6.6796875,0z" />
    </g>
  </g>
</svg>