<?xml version="1.0" encoding="utf-8"?>
<!DOCTYPE svg PUBLIC "-//W3C//DTD SVG 1.1//EN" "http://www.w3.org/Graphics/SVG/1.1/DTD/svg11.dtd">
<svg width="67.382812500001" height="54.7265625" xmlns="http://www.w3.org/2000/svg" xmlns:xlink="http://www.w3.org/1999/xlink" xmlns:xml="http://www.w3.org/XML/1998/namespace" version="1.1">
  <g>
    <g>
      <path style="fill:#FF0000;fill-opacity:1" d="M32.63671875,18.955078125L33.2958984375,19.2041015625 33.69140625,19.833984375 34.0576171875,19.189453125 34.74609375,18.955078125 35.478515625,19.2626953125 35.80078125,19.98046875 35.4931640625,20.7275390625 34.74609375,21.03515625 34.0283203125,20.8154296875 33.69140625,20.185546875 33.3251953125,20.8154296875 32.63671875,21.03515625 31.8896484375,20.7275390625 31.58203125,19.98046875 31.904296875,19.2626953125 32.63671875,18.955078125z M36.85546875,14.736328125L37.6025390625,15.0439453125 37.91015625,15.791015625 37.91015625,17.900390625 37.587890625,18.6328125 36.85546875,18.955078125 36.123046875,18.6328125 35.80078125,17.900390625 35.80078125,15.791015625 36.1083984375,15.0439453125 36.85546875,14.736328125z M30.52734375,14.736328125L31.2744140625,15.0439453125 31.58203125,15.791015625 31.58203125,17.900390625 31.259765625,18.6328125 30.52734375,18.955078125 29.794921875,18.6328125 29.47265625,17.900390625 29.47265625,15.791015625 29.7802734375,15.0439453125 30.52734375,14.736328125z M63.1640625,6.298828125L42.099609375,27.36328125 42.099609375,32.138671875 42.568359375,31.9775390625 43.037109375,31.7578125 43.447265625,31.611328125 43.828125,31.58203125 45.64453125,31.8603515625 47.197265625,32.8125 50.537109375,35.80078125 50.537109375,33.6328125 50.8740234375,32.0068359375 51.7822265625,30.6884765625 53.1298828125,29.794921875 54.755859375,29.47265625 56.33056640625,29.7802734375 57.71484375,30.703125 63.1640625,35.80078125 63.1640625,6.298828125z M4.21875,6.298828125L4.21875,35.80078125 9.66796875,30.703125 11.0302734375,29.794921875 12.626953125,29.47265625 14.267578125,29.8095703125 15.6005859375,30.7177734375 16.5087890625,32.05078125 16.845703125,33.69140625 16.845703125,35.80078125 20.185546875,32.8125 21.5625,31.904296875 23.14453125,31.58203125 24.228515625,31.7431640625 25.25390625,32.16796875 25.25390625,27.36328125 4.21875,6.298828125z M6.328125,4.18945217132568L5.33203125,4.45312404632568 27.36328125,26.484375 27.36328125,35.80078125 19.775390625,43.125 19.072265625,44.4287109375 18.955078125,45.908203125 19.453125,47.666015625 20.1049785614014,48.2373046875 21.064453125,48.427734375 21.064453125,45.263671875 21.3720703125,44.5166015625 22.119140625,44.208984375 23.0126953125,44.677734375 23.173828125,45.703125 23.173828125,46.318359375 23.90625,46.171875 24.580078125,45.7763671875 25.0634765625,45.1904296875 25.25390625,44.47265625 25.1953125,43.7109375 24.84375,43.037109375 27.36328125,40.517578125 32.021484375,45.146484375 32.2705078125,47.490234375 32.6953125,49.8046875 33.0615234375,50.33203125 33.69140625,50.537109375 34.5556640625,50.09765625 34.8046875,49.1015625 35.361328125,45.146484375 40.01953125,40.517578125 42.509765625,43.037109375 42.2314453125,43.59375 42.099609375,44.208984375 42.2900390625,45 42.71484375,45.703125 43.41796875,46.1279296875 44.208984375,46.318359375 44.208984375,45.703125 44.3701171875,44.677734375 45.263671875,44.208984375 46.0107421875,44.5166015625 46.318359375,45.263671875 46.318359375,48.427734375 47.314453125,48.2080078125 47.9736328125,47.607421875 48.3251953125,46.7578125 48.427734375,45.76171875 48.2958984375,44.3408203125 47.578125,43.125 40.01953125,35.80078125 40.01953125,26.484375 62.05078125,4.42382717132568 61.025390625,4.18945217132568 59.677734375,4.716796875 55.986328125,8.349609375 51.0791015625,13.30078125 46.142578125,18.251953125 44.853515625,19.2919921875 43.3154296875,20.185546875 41.66015625,20.80078125 40.01953125,21.03515625 38.37890625,21.03515625 39.580078125,19.1015625 40.01953125,16.845703125 40.01953125,9.462890625 39.7119140625,8.7158203125 38.96484375,8.408203125 38.349609375,8.7158203125 37.412109375,9.4921875 36.3134765625,10.5322265625 35.2294921875,11.6455078125 34.306640625,12.6123046875 33.69140625,13.2421875 29.091796875,8.671875 28.76953125,8.4814453125 28.41796875,8.408203125 27.6708984375,8.7158203125 27.36328125,9.462890625 27.36328125,16.845703125 27.802734375,19.0869140625 29.00390625,21.03515625 28.7109375,21.03515625 27.4365234375,21.005859375 26.07421875,20.8740234375 24.7705078125,20.5517578125 23.671875,19.951171875 23.1298828125,19.7021484375 22.412109375,19.21875 21.708984375,18.6767578125 21.240234375,18.251953125 7.79296875,4.80468654632568 6.328125,4.18945217132568z M6.328125,0L8.7451171875,0.4833984375 10.78125,1.84570288658142 23.173828125,14.208984375 23.173828125,9.462890625 23.583984375,7.412109375 24.7119140625,5.7275390625 26.3818359375,4.599609375 28.41796875,4.18945217132568 29.970703125,4.43847560882568 31.2744140625,5.0830078125 32.4169921875,6.005859375 33.486328125,7.08984375 33.69140625,7.294921875 34.8486328125,6.123046875 35.9912109375,5.1416015625 37.3095703125,4.45312404632568 38.96484375,4.18945217132568 41.0009765625,4.599609375 42.6708984375,5.7275390625 43.798828125,7.412109375 44.208984375,9.462890625 44.208984375,14.23828125 56.6015625,1.84570288658142 58.6376953125,0.4833984375 61.0546875,0 63.5009765625,0.498046875 65.5224609375,1.84570288658142 66.884765625,3.83789038658142 67.3828125,6.298828125 67.3828125,45.46875 54.84375,33.779296875 54.755859375,36.4599609375 54.7265625,39.111328125 54.7412109375,42.1435546875 54.755859375,45.17578125 52.646484375,45.17578125 52.646484375,46.318359375 52.1484375,48.779296875 50.7861328125,50.7861328125 48.779296875,52.1484375 46.318359375,52.646484375 42.099609375,52.646484375 42.099609375,50.15625 40.48095703125,49.306640625 39.19921875,48.046875 38.935546875,49.892578125 38.3642578125,51.8408203125 37.265625,53.3642578125 35.68359375,54.3603515625 33.69140625,54.7265625 31.6845703125,54.3603515625 30.1171875,53.3642578125 29.0185546875,51.8408203125 28.447265625,49.892578125 28.18359375,48.046875 26.865234375,49.306640625 25.25390625,50.15625 25.25390625,52.646484375 21.064453125,52.646484375 18.603515625,52.1484375 16.5966796875,50.7861328125 15.234375,48.779296875 14.736328125,46.318359375 14.736328125,45.17578125 12.626953125,45.17578125 12.626953125,33.69140625 0,45.46875 0,6.298828125 0.498046875,3.83789038658142 1.8603515625,1.83105444908142 3.8671875,0.4833984375 6.328125,0z" />
    </g>
  </g>
</svg>