<?xml version="1.0" encoding="utf-8"?>
<!DOCTYPE svg PUBLIC "-//W3C//DTD SVG 1.1//EN" "http://www.w3.org/Graphics/SVG/1.1/DTD/svg11.dtd">
<svg width="67.4414062500013" height="67.3828125" xmlns="http://www.w3.org/2000/svg" xmlns:xlink="http://www.w3.org/1999/xlink" xmlns:xml="http://www.w3.org/XML/1998/namespace" version="1.1">
  <g>
    <g>
      <path style="fill:#FF0000;fill-opacity:1" d="M25.8984375,47.373046875L23.3349609375,48.955078125 21.1962890625,50.947265625 19.2041015625,53.056640625 17.080078125,54.9609375 14.5751953125,56.337890625 11.42578125,56.865234375 5.2734375,56.865234375 4.5263671875,57.1728515625 4.21875,57.919921875 4.541015625,58.65234375 5.2734375,58.974609375 11.42578125,58.974609375 15.1171875,58.4033203125 18.0322265625,56.865234375 20.595703125,54.638671875 23.203125,51.97265625 23.49609375,50.9619140625 23.994140625,50.0390625 25.8984375,47.373046875z M29.47265625,45.908203125L27.568359375,48.5302734375 25.751953125,51.2109375 25.48828125,51.650390625 25.2978515625,52.3388671875 25.25390625,53.14453125 25.25390625,56.865234375 25.927734375,58.6083984375 27.685546875,60.0146484375 30.1025390625,61.0986328125 32.724609375,61.8896484375 35.15625,62.4169921875 36.97265625,62.6953125 40.60546875,63.046875 44.267578125,63.1640625 47.0068359375,63.076171875 50.712890625,62.7392578125 54.755859375,62.080078125 58.5498046875,61.025390625 61.5380859375,59.47265625 62.552490234375,58.48388671875 63.10546875,57.333984375 63.1640625,56.982421875 63.1640625,56.6015625 63.1640625,56.162109375 63.193359375,55.1220703125 63.22265625,53.96484375 63.1201171875,52.44140625 62.666015625,51.2109375 58.9453125,45.908203125 58.9453125,46.318359375 58.359375,47.51953125 56.8798828125,48.4716796875 54.873046875,49.21875 52.705078125,49.7607421875 50.771484375,50.09765625 49.423828125,50.2734375 44.267578125,50.537109375 42.2021484375,50.478515625 39.19921875,50.244140625 35.830078125,49.775390625 32.6953125,48.984375 30.380859375,47.783203125 29.69970703125,47.01416015625 29.47265625,46.11328125 29.47265625,45.908203125z M29.47265625,43.388671875L29.47265625,45.498046875 29.677734375,45.64453125 32.900390625,47.0361328125 36.73828125,47.8857421875 40.693359375,48.310546875 44.23828125,48.427734375 47.75390625,48.310546875 51.708984375,47.87109375 55.5615234375,47.021484375 58.76953125,45.64453125 58.857421875,45.5712890625 58.9453125,45.498046875 58.9453125,43.388671875 55.751953125,44.8388671875 51.8408203125,45.732421875 47.7978515625,46.1865234375 44.208984375,46.318359375 40.634765625,46.1865234375 36.591796875,45.7177734375 32.666015625,44.82421875 29.47265625,43.388671875z M29.47265625,39.19921875L29.47265625,40.01953125 30.05859375,41.2060546875 31.46484375,42.1142578125 33.134765625,42.7734375 34.482421875,43.154296875 39.3017578125,43.9892578125 44.208984375,44.208984375 47.28515625,44.1064453125 50.859375,43.7548828125 54.345703125,43.0810546875 57.1875,42.01171875 57.7587890625,41.66015625 58.330078125,41.2060546875 58.76953125,40.6640625 58.9453125,40.01953125 58.9453125,39.19921875 55.751953125,40.6201171875 51.826171875,41.5283203125 47.783203125,41.9970703125 44.208984375,42.12890625 40.6494140625,41.9970703125 36.591796875,41.5283203125 32.666015625,40.6201171875 29.47265625,39.19921875z M29.47265625,34.98046875L29.47265625,35.80078125 30.0146484375,36.9580078125 31.4208984375,37.880859375 33.3251953125,38.61328125 35.361328125,39.1552734375 37.1923828125,39.5068359375 38.466796875,39.697265625 41.337890625,39.9462890625 44.208984375,40.01953125 47.080078125,39.9462890625 49.951171875,39.697265625 51.2255859375,39.5068359375 53.056640625,39.1552734375 55.0927734375,38.61328125 56.9970703125,37.880859375 58.4033203125,36.9580078125 58.9453125,35.80078125 58.9453125,34.98046875 55.751953125,36.416015625 51.8408203125,37.3095703125 47.7978515625,37.7783203125 44.208984375,37.91015625 40.6201171875,37.7783203125 36.5771484375,37.3095703125 32.666015625,36.416015625 29.47265625,34.98046875z M29.47265625,30.76171875L29.47265625,31.58203125 30.0146484375,32.7392578125 31.4208984375,33.662109375 33.3251953125,34.39453125 35.361328125,34.9365234375 37.1923828125,35.2880859375 38.466796875,35.478515625 41.337890625,35.7275390625 44.208984375,35.80078125 47.080078125,35.7275390625 49.951171875,35.478515625 51.2255859375,35.2880859375 53.056640625,34.9365234375 55.0927734375,34.39453125 56.9970703125,33.662109375 58.4033203125,32.7392578125 58.9453125,31.58203125 58.9453125,30.76171875 55.751953125,32.197265625 51.8408203125,33.0908203125 47.7978515625,33.5595703125 44.208984375,33.69140625 40.6201171875,33.5595703125 36.5771484375,33.0908203125 32.666015625,32.197265625 29.47265625,30.76171875z M29.47265625,26.54296875L29.47265625,27.36328125 30.0146484375,28.5205078125 31.4208984375,29.443359375 33.3251953125,30.17578125 35.361328125,30.7177734375 37.1923828125,31.0693359375 38.466796875,31.259765625 41.337890625,31.5087890625 44.208984375,31.58203125 47.080078125,31.5087890625 49.951171875,31.259765625 51.2255859375,31.0693359375 53.056640625,30.7177734375 55.0927734375,30.17578125 56.9970703125,29.443359375 58.4033203125,28.5205078125 58.9453125,27.36328125 58.9453125,26.54296875 55.751953125,27.9931640625 51.85546875,28.88671875 47.8271484375,29.3408203125 44.208984375,29.47265625 40.5908203125,29.3408203125 36.5625,28.88671875 32.666015625,27.9931640625 29.47265625,26.54296875z M29.47265625,21.474609375L29.47265625,23.173828125 30.0146484375,24.3310546875 31.4208984375,25.25390625 33.3251953125,25.986328125 35.361328125,26.513671875 37.1923828125,26.8505859375 38.466796875,27.041015625 41.337890625,27.2900390625 44.208984375,27.36328125 47.080078125,27.2900390625 49.951171875,27.041015625 51.2255859375,26.8505859375 53.056640625,26.513671875 55.0927734375,25.986328125 56.9970703125,25.25390625 58.4033203125,24.3310546875 58.9453125,23.173828125 58.9453125,21.474609375 57.4658203125,22.8955078125 55.048828125,23.9208984375 52.119140625,24.609375 49.072265625,25.01953125 46.2890625,25.224609375 44.208984375,25.283203125 42.041015625,25.2392578125 39.3017578125,25.048828125 36.328125,24.638671875 33.4716796875,23.9501953125 31.0693359375,22.9248046875 29.47265625,21.474609375z M44.208984375,8.43750095367432L45.2197265625,8.466796875 46.904296875,8.58398532867432 48.8525390625,8.818359375 50.712890625,9.1845703125 52.1044921875,9.7412109375 52.646484375,10.517578125 52.1044921875,11.30859375 50.712890625,11.865234375 48.8525390625,12.24609375 46.904296875,12.48046875 45.234375,12.59765625 44.208984375,12.626953125 43.18359375,12.59765625 41.513671875,12.48046875 39.5654296875,12.24609375 37.7197265625,11.865234375 36.3427734375,11.30859375 35.80078125,10.517578125 36.3427734375,9.7412109375 37.734375,9.1845703125 39.5947265625,8.818359375 41.54296875,8.58398532867432 43.1982421875,8.466796875 44.208984375,8.43750095367432z M44.208984375,4.21875L40.517578125,4.33593797683716 36.826171875,4.71679782867432 35.0390625,5.00976657867432 32.6513671875,5.5517578125 30.05859375,6.34277439117432 27.6708984375,7.41210985183716 25.927734375,8.80371189117432 25.25390625,10.517578125 25.25390625,14.736328125 25.3857421875,15.498046875 25.751953125,16.171875 27.7880859375,17.9296875 30.791015625,19.2333984375 34.3359375,20.126953125 38.02734375,20.68359375 41.455078125,20.9765625 44.208984375,21.064453125 47.51953125,20.9765625 50.9326171875,20.6689453125 54.3017578125,20.09765625 57.509765625,19.248046875 59.1796875,18.6181640625 61.0400390625,17.666015625 62.548828125,16.376953125 63.1640625,14.736328125 63.1640625,10.517578125 62.490234375,8.80371189117432 60.7470703125,7.41210985183716 58.359375,6.328125 55.7666015625,5.537109375 53.3642578125,5.00976657867432 51.591796875,4.71679782867432 47.900390625,4.33593797683716 44.208984375,4.21875z M44.208984375,0L47.05078125,0.0732421875 50.537109375,0.3515625 54.3603515625,0.908203363418579 58.212890625,1.81640648841858 61.7431640625,3.1640625 64.658203125,5.00976657867432 66.650390625,7.4267578125 67.3828125,10.517578125 67.412109375,11.9677734375 67.44140625,13.388671875 67.20703125,16.0693359375 66.123046875,18.603515625 64.658203125,20.712890625 63.1640625,22.822265625 63.1640625,44.560546875 64.658203125,46.669921875 66.123046875,48.779296875 67.0458984375,50.6103515625 67.3828125,52.646484375 67.3828125,56.865234375 66.650390625,59.9560546875 64.658203125,62.373046875 61.7431640625,64.21875 58.212890625,65.56640625 54.3603515625,66.474609375 50.537109375,67.03125 47.05078125,67.3095703125 44.208984375,67.3828125 40.546875,67.265625 36.2109375,66.826171875 31.6552734375,65.947265625 27.36328125,64.51171875 23.84765625,62.3876953125 22.5219707489014,61.036376953125 21.591796875,59.47265625 19.3359355926514,61.0693359375 16.845703125,62.2265625 14.18701171875,62.9296875 11.42578125,63.1640625 5.2734375,63.1640625 3.22265625,62.75390625 1.5380859375,61.6259765625 0.41015625,59.9560546875 0,57.919921875 0.41015625,55.869140625 1.5380859375,54.1845703125 3.22265625,53.056640625 5.2734375,52.646484375 11.42578125,52.646484375 13.4326171875,52.2509765625 15.146484375,51.09375 17.4462890625,48.7353515625 19.775390625,46.494140625 22.3095703125,44.5458984375 25.25390625,43.06640625 25.25390625,22.822265625 22.32421875,18.603515625 21.4013671875,16.7724609375 21.064453125,14.736328125 21.064453125,10.517578125 21.796875,7.4267578125 23.7744140625,5.00976657867432 26.689453125,3.1640625 30.234375,1.81640648841858 34.072265625,0.908203363418579 37.880859375,0.3515625 41.3671875,0.0732421875 44.208984375,0z" />
    </g>
  </g>
</svg>