<?xml version="1.0" encoding="utf-8"?>
<!DOCTYPE svg PUBLIC "-//W3C//DTD SVG 1.1//EN" "http://www.w3.org/Graphics/SVG/1.1/DTD/svg11.dtd">
<svg width="67.3828125000004" height="67.3828125" xmlns="http://www.w3.org/2000/svg" xmlns:xlink="http://www.w3.org/1999/xlink" xmlns:xml="http://www.w3.org/XML/1998/namespace" version="1.1">
  <g>
    <g>
      <path style="fill:#FF0000;fill-opacity:1" d="M33.75,35.80078125L32.490234375,36.0205078125 31.46484375,36.73828125 13.06640625,54.7265625 12.1142578125,55.6201171875 11.30859375,56.5283203125 10.7373046875,57.5830078125 10.517578125,58.88671875 10.8544921875,60.5126953125 11.77734375,61.875 13.1396484375,62.8125 14.765625,63.1640625 16.2890625,62.87109375 17.607421875,62.05078125 18.3544921875,61.376953125 19.4677734375,60.3076171875 20.5078125,59.2529296875 21.064453125,58.59375 27.36328125,46.318359375 27.36328125,63.1640625 27.65625,63.1640625 29.1357421875,62.7978515625 30.3515625,61.93359375 33.69140625,58.59375 35.361328125,60.263671875 36.3720703125,61.318359375 37.3828125,62.255859375 38.5400390625,62.9150390625 40.01953125,63.1640625 40.01953125,46.318359375 40.37109375,47.0068359375 41.103515625,48.4423828125 42.0849609375,50.390625 43.1982421875,52.587890625 44.3115234375,54.7705078125 45.29296875,56.6748046875 46.0107421875,58.037109375 46.318359375,58.59375 47.578125,59.9560546875 49.0576171875,61.4501953125 50.68359375,62.666015625 52.412109375,63.1640625 54.0966796875,62.87109375 55.517578125,62.0361328125 56.4990234375,60.7470703125 56.865234375,59.0625 56.66015625,57.685546875 56.103515625,56.6162109375 55.2978515625,55.6787109375 54.31640625,54.7265625 35.91796875,36.73828125 34.9072265625,36.064453125 33.75,35.80078125z M52.646484375,21.064453125L52.646484375,23.173828125 42.59765625,30.52734375 52.646484375,37.91015625 52.646484375,40.01953125 36.97265625,32.431640625 36.123046875,31.640625 35.80078125,30.52734375 36.123046875,29.4287109375 36.97265625,28.65234375 52.646484375,21.064453125z M14.736328125,21.064453125L30.41015625,28.65234375 31.259765625,29.4287109375 31.58203125,30.52734375 31.259765625,31.640625 30.41015625,32.431640625 14.736328125,40.01953125 14.736328125,37.91015625 24.755859375,30.52734375 14.736328125,23.173828125 14.736328125,21.064453125z M37.91015625,8.408203125L38.7744140625,8.61328125 39.4921875,9.140625 42.01171875,11.2353515625 44.501953125,12.802734375 47.2412109375,13.7841796875 50.537109375,14.12109375 52.03125,14.736328125 52.646484375,16.23046875 52.03125,17.724609375 50.537109375,18.33984375 46.6552734375,17.900390625 42.7001953125,16.640625 39.1259765625,14.6337890625 36.328125,11.923828125 35.947265625,11.2646484375 35.80078125,10.517578125 36.4306640625,9.0380859375 37.91015625,8.408203125z M29.47265625,8.408203125L30.9521484375,9.0380859375 31.58203125,10.517578125 31.0546875,11.923828125 28.2421875,14.6044921875 24.6533203125,16.6259765625 20.712890625,17.900390625 16.845703125,18.33984375 15.3515625,17.724609375 14.736328125,16.23046875 15.3662109375,14.7509765625 16.845703125,14.12109375 20.1416015625,13.7841796875 22.880859375,12.802734375 25.37109375,11.2353515625 27.890625,9.140625 28.6083984375,8.61328125 29.47265625,8.408203125z M33.69140625,4.21874952316284L29.696044921875,4.48242473602295 25.8544921875,5.2734375 22.2106914520264,6.54419231414795 18.80859375,8.2470703125 15.677490234375,10.3564453125 12.8466796875,12.8466796875 10.3564453125,15.677490234375 8.2470703125,18.80859375 6.54418849945068,22.210693359375 5.2734375,25.8544921875 4.482421875,29.6960468292236 4.21875,33.69140625 4.6875,39.041748046875 6.09375,44.1357421875 8.408203125,48.885498046875 11.6015625,53.203125 29.970703125,35.21484375 31.69921875,34.0869140625 33.69140625,33.69140625 35.68359375,34.0869140625 37.412109375,35.21484375 55.78125,53.203125 58.974609375,48.885498046875 61.2890625,44.1357421875 62.6953125,39.041748046875 63.1640625,33.69140625 62.900390625,29.6960468292236 62.109375,25.8544921875 60.838623046875,22.210693359375 59.1357421875,18.80859375 57.0263671875,15.677490234375 54.5361328125,12.8466796875 51.7053184509277,10.3564453125 48.57421875,8.2470703125 45.1721153259277,6.54419231414795 41.5283203125,5.2734375 37.686767578125,4.48242473602295 33.69140625,4.21874952316284z M33.69140625,0L38.23974609375,0.300295770168304 42.626953125,1.20117139816284 46.7944297790527,2.65137004852295 50.68359375,4.59960889816284 54.2651329040527,7.0166015625 57.509765625,9.873046875 60.3662109375,13.11767578125 62.783203125,16.69921875 64.7314453125,20.58837890625 66.181640625,24.755859375 67.08251953125,29.1430683135986 67.3828125,33.69140625 66.910400390625,39.422607421875 65.4931640625,44.8974609375 63.160400390625,50.042724609375 59.94140625,54.78515625 60.7763671875,56.7919921875 61.0546875,58.974609375 60.3955078125,62.2412109375 58.59375,64.921875 55.9130859375,66.7236328125 52.646484375,67.3828125 49.1748046875,66.650390625 46.318359375,64.5703125 43.4765625,66.650390625 40.01953125,67.3828125 36.5478515625,66.650390625 33.69140625,64.5703125 30.8349609375,66.650390625 27.36328125,67.3828125 23.90625,66.650390625 21.064453125,64.5703125 18.1787109375,66.6357421875 14.736328125,67.3828125 11.455078125,66.7236328125 8.7890625,64.921875 6.9873046875,62.255859375 6.328125,58.974609375 6.6064453125,56.7919921875 7.44140625,54.78515625 4.222412109375,50.042724609375 1.8896484375,44.8974609375 0.472411930561066,39.422607421875 0,33.69140625 0.300292611122131,29.1430683135986 1.201171875,24.755859375 2.6513671875,20.58837890625 4.599609375,16.69921875 7.01660060882568,13.11767578125 9.873046875,9.873046875 13.11767578125,7.0166015625 16.69921875,4.59960889816284 20.5847148895264,2.65137004852295 24.7412109375,1.20117139816284 29.124755859375,0.300295770168304 33.69140625,0z" />
    </g>
  </g>
</svg>