<?xml version="1.0" encoding="utf-8"?>
<!DOCTYPE svg PUBLIC "-//W3C//DTD SVG 1.1//EN" "http://www.w3.org/Graphics/SVG/1.1/DTD/svg11.dtd">
<svg width="50.537109375001" height="67.3828125" xmlns="http://www.w3.org/2000/svg" xmlns:xlink="http://www.w3.org/1999/xlink" xmlns:xml="http://www.w3.org/XML/1998/namespace" version="1.1">
  <g>
    <g>
      <path style="fill:#FF0000;fill-opacity:1" d="M37.91015625,4.18945360183716L35.9912109375,4.423828125 34.189453125,5.06835985183716 9.2578125,17.40234375 7.10449123382568,19.3359375 6.50024318695068,20.66162109375 6.298828125,22.119140625 6.5625,23.701171875 13.916015625,45.966796875 14.23828125,47.958984375 13.564453125,50.771484375 10.048828125,57.802734375 8.96484375,58.798828125 7.529296875,59.00390625 6.9140625,58.9892578125 6.328125,58.974609375 4.8486328125,59.58984375 4.21875,61.0546875 4.833984375,62.548828125 6.328125,63.1640625 10.517578125,63.1640625 23.7890625,56.54296875 25.60546875,54.9609375 26.30859375,52.67578125 25.60546875,50.302734375 23.671875,48.75 22.20703125,47.7685546875 21.416015625,46.494140625 21.09375,44.970703125 21.03515625,43.2421875 21.0498046875,41.953125 21.064453125,40.6640625 20.8740234375,36.8408203125 20.244140625,32.7685546875 19.1162109375,28.828125 17.431640625,25.4296875 21.2255859375,24.08203125 24.8291015625,23.1298828125 28.4912109375,22.4267578125 32.4609375,21.826171875 35.3759765625,21.416015625 38.291015625,21.03515625 39.55078125,20.859375 40.78125,20.537109375 43.037109375,19.2919921875 44.794921875,17.4609375 45.9228515625,15.1904296875 46.318359375,12.626953125 45.673828125,9.3310546875 43.88671875,6.650390625 41.2060546875,4.84863233566284 37.91015625,4.18945360183716z M37.880859375,0L40.4150390625,0.245364159345627 42.802734375,0.981445074081421 46.8310546875,3.6474609375 49.541015625,7.61718702316284 50.2880821228027,9.990234375 50.537109375,12.5390625 49.951171875,16.3330078125 48.310546875,19.7314453125 45.76171875,22.5146484375 42.451171875,24.43359375 40.60546875,24.9609375 38.701171875,25.25390625 35.9619140625,25.60546875 33.22265625,26.015625 32.314453125,26.1328125 27.7587890625,26.8212890625 23.26171875,27.83203125 24.169921875,31.494140625 24.7998046875,34.5849609375 25.1513671875,37.7197265625 25.25390625,41.484375 25.2392578125,42.4072265625 25.224609375,43.330078125 25.25390625,44.1357421875 25.341796875,44.94140625 27.48046875,46.201171875 29.12109375,48.0029296875 30.1611328125,50.21484375 30.52734375,52.67578125 30.19775390625,55.0634765625 29.208984375,57.1875 27.66357421875,58.9599609375 25.6640625,60.29296875 11.513671875,67.3828125 6.328125,67.3828125 3.8671875,66.884765625 1.8603515625,65.5224609375 0.498046875,63.515625 0,61.0546875 0.498046875,58.623046875 1.8603515625,56.6162109375 3.8818359375,55.25390625 6.328125,54.755859375 6.884765625,54.755859375 7.6171875,53.3349609375 8.671875,51.2841796875 9.609375,49.2626953125 10.01953125,47.9296875 9.931640625,47.28515625 2.57812404632568,25.01953125 2.109375,22.119140625 2.4609375,19.48974609375 3.515625,17.109375 5.18554592132568,15.10986328125 7.3828125,13.623046875 32.314453125,1.28906273841858 35.0244140625,0.322268515825272 37.880859375,0z" />
    </g>
  </g>
</svg>