<?xml version="1.0" encoding="utf-8"?>
<!DOCTYPE svg PUBLIC "-//W3C//DTD SVG 1.1//EN" "http://www.w3.org/Graphics/SVG/1.1/DTD/svg11.dtd">
<svg width="58.9453125" height="67.44140625" xmlns="http://www.w3.org/2000/svg" xmlns:xlink="http://www.w3.org/1999/xlink" xmlns:xml="http://www.w3.org/XML/1998/namespace" version="1.1">
  <g>
    <g>
      <path style="fill:#FF0000;fill-opacity:1" d="M19.013671875,59.736328125L20.2734375,62.021484375 21.3647441864014,62.7685546875 22.646484375,63.134765625 21.357421875,60.908203125 20.185546875,60.3369140625 19.013671875,59.736328125z M24.66796875,48.427734375L29.47265625,50.859375 34.306640625,48.427734375 24.66796875,48.427734375z M45.9375,44.970703125L31.845703125,52.03125 33.076171875,52.646484375 35.80078125,52.646484375 37.6611328125,52.9248046875 39.31640625,53.7158203125 40.6787109375,54.9462890625 41.630859375,56.54296875 47.63671875,53.5546875 49.0869140625,52.8515625 50.5078125,52.08984375 51.4013671875,51.4013671875 52.08984375,50.5078125 51.8408203125,50.537109375 51.591796875,50.537109375 49.5849609375,50.1416015625 47.9150390625,49.04296875 46.7724609375,47.3876953125 46.318359375,45.3515625 45.9375,44.970703125z M13.0078125,44.970703125L12.626953125,45.3515625 12.2021484375,47.373046875 11.0595703125,49.013671875 9.3896484375,50.126953125 7.35351610183716,50.537109375 7.11914110183716,50.537109375 6.85546922683716,50.5078125 7.61718797683716,51.4892578125 8.642578125,52.20703125 12.0849609375,53.9794921875 15.5859375,55.693359375 22.529296875,59.1650390625 29.501953125,62.607421875 29.8681640625,62.783203125 30.234375,62.958984375 30.8203125,63.10546875 31.435546875,63.1640625 35.80078125,63.1640625 37.44140625,62.8271484375 38.7744140625,61.9189453125 39.6826171875,60.5859375 40.01953125,58.9453125 39.6826171875,57.3046875 38.7744140625,55.9716796875 37.4267578125,55.078125 35.80078125,54.755859375 32.578125,54.755859375 22.8076171875,49.833984375 13.0078125,44.970703125z M37.91015625,25.458984375L37.91015625,33.955078125 48.427734375,44.47265625 48.427734375,45.263671875 48.6767578125,46.5087890625 49.3505859375,47.5048828125 50.3466796875,48.1787109375 51.591796875,48.427734375 52.8076171875,48.1787109375 53.818359375,47.5048828125 54.5068359375,46.5087890625 54.755859375,45.263671875 54.7705078125,44.6044921875 54.78515625,43.9453125 54.6240234375,42.333984375 53.818359375,40.927734375 39.08203125,26.19140625 37.91015625,25.458984375z M21.064453125,25.458984375L19.86328125,26.19140625 5.15625047683716,40.95703125 4.46777391433716,41.9677734375 4.21875143051147,43.154296875 4.21875143051147,45.263671875 4.46777391433716,46.5087890625 5.14160203933716,47.5048828125 6.13769578933716,48.1787109375 7.38281297683716,48.427734375 8.61328125,48.1787109375 9.609375,47.490234375 10.2685546875,46.4794921875 10.517578125,45.263671875 10.517578125,44.47265625 15.791015625,39.2138671875 21.064453125,33.955078125 21.064453125,25.458984375z M23.173828125,25.283203125L23.173828125,27.36328125 23.671875,29.82421875 25.01953125,31.8310546875 27.01171875,33.193359375 29.47265625,33.69140625 31.93359375,33.193359375 33.9404296875,31.8310546875 35.302734375,29.82421875 35.80078125,27.36328125 35.80078125,25.283203125 23.173828125,25.283203125z M32.63671875,14.736328125L33.3837890625,15.0439453125 33.69140625,15.791015625 33.3837890625,16.5380859375 32.63671875,16.845703125 31.8896484375,16.5380859375 31.58203125,15.791015625 31.8896484375,15.0439453125 32.63671875,14.736328125z M26.30859375,14.736328125L27.0556640625,15.0439453125 27.36328125,15.791015625 27.0556640625,16.5380859375 26.30859375,16.845703125 25.576171875,16.5234375 25.25390625,15.791015625 25.576171875,15.05859375 26.30859375,14.736328125z M27.0703125,7.82226514816284L25.1806640625,8.203125 23.5986328125,9.228515625 22.5146484375,10.751953125 22.119140625,12.626953125 22.119140625,14.736328125 21.064453125,14.736328125 21.7236328125,18.0322265625 23.525390625,20.712890625 26.19140625,22.5146484375 29.47265625,23.173828125 32.7685546875,22.5146484375 35.44921875,20.712890625 37.2509765625,18.0322265625 37.91015625,14.736328125 36.85546875,14.736328125 36.85546875,12.626953125 31.875,12.626953125 30,12.24609375 28.4765625,11.220703125 27.451171875,9.697265625 27.0703125,7.82226514816284z M29.47265625,0L32.003173828125,0.249026268720627 34.3798828125,0.996093511581421 38.3935546875,3.70605492591858 41.103515625,7.7197265625 41.8505821228027,10.096435546875 42.099609375,12.626953125 42.099609375,23.26171875 56.806640625,37.96875 58.388671875,40.341796875 58.9453125,43.154296875 58.9453125,43.564453125 58.9013671875,45.5712890625 58.623046875,47.40234375 57.9052734375,49.1015625 56.54296875,50.712890625 54.931640625,53.7890625 52.20703125,55.95703125 44.150390625,60 43.2421875,62.9296875 41.3818359375,65.2734375 38.818359375,66.826171875 35.80078125,67.3828125 34.3359375,67.412109375 32.724609375,67.44140625 31.0107421875,67.3828125 29.47265625,67.119140625 28.41796875,67.3095703125 27.36328125,67.3828125 23.173828125,67.3828125 20.15625,66.826171875 17.5927734375,65.2734375 15.732421875,62.9296875 14.794921875,60 6.76757860183716,55.95703125 4.04296922683716,53.8037109375 2.43164110183716,50.712890625 0.629883289337158,48.2666015625 0,45.263671875 0,43.88671875 0.205078125,41.455078125 1.28906297683716,39.0234375 2.02148485183716,38.0859375 9.4482421875,30.673828125 16.845703125,23.26171875 16.845703125,12.626953125 17.0947246551514,10.096435546875 17.841796875,7.7197265625 20.5517578125,3.70605492591858 24.5654296875,0.996093511581421 26.942138671875,0.249026268720627 29.47265625,0z" />
    </g>
  </g>
</svg>