<?xml version="1.0" encoding="utf-8"?>
<!DOCTYPE svg PUBLIC "-//W3C//DTD SVG 1.1//EN" "http://www.w3.org/Graphics/SVG/1.1/DTD/svg11.dtd">
<svg width="67.3828125000009" height="67.3828125" xmlns="http://www.w3.org/2000/svg" xmlns:xlink="http://www.w3.org/1999/xlink" xmlns:xml="http://www.w3.org/XML/1998/namespace" version="1.1">
  <g>
    <g>
      <path style="fill:#FF0000;fill-opacity:1" d="M46.34765625,46.318359375L47.8125,46.9482421875 48.427734375,48.427734375 48.2080078125,49.365234375 47.578125,50.126953125 44.6484375,52.1337890625 41.0595703125,53.583984375 37.2509765625,54.462890625 33.69140625,54.755859375 30.1318359375,54.462890625 26.337890625,53.583984375 22.7490234375,52.1337890625 19.8046875,50.126953125 19.1748046875,49.365234375 18.955078125,48.427734375 19.5849609375,46.962890625 21.064453125,46.34765625 21.8701171875,46.5380859375 22.7197265625,46.9921875 23.5546875,47.548828125 24.287109375,48.046875 28.8134765625,49.921875 33.69140625,50.537109375 38.5546875,49.9072265625 43.095703125,48.046875 43.828125,47.548828125 44.6630859375,46.9775390625 45.5126953125,46.5087890625 46.34765625,46.318359375z M11.748046875,32.6953125L10.84716796875,36.33544921875 10.546875,40.048828125 10.755615234375,43.18359375 11.3818359375,46.201171875 13.7255859375,51.7236328125 17.3583984375,56.396484375 22.0458984375,60.0146484375 27.568359375,62.34375 30.5859375,62.958984375 33.720703125,63.1640625 36.85546875,62.958984375 39.873046875,62.34375 45.3955078125,60.0146484375 50.0830078125,56.396484375 53.7158203125,51.7236328125 56.0595703125,46.201171875 56.685791015625,43.18359375 56.89453125,40.048828125 56.59423828125,36.33544921875 55.693359375,32.6953125 52.1044921875,33.4716796875 48.427734375,33.69140625 48.427734375,36.85546875 48.1787109375,38.1005859375 47.5048828125,39.0966796875 46.494140625,39.7705078125 45.263671875,40.01953125 44.0478515625,39.7705078125 43.037109375,39.08203125 42.3486328125,38.0712890625 42.099609375,36.85546875 42.099609375,33.69140625 25.3125,33.69140625 25.3125,36.85546875 25.0634765625,38.0712890625 24.375,39.08203125 23.3642578125,39.7705078125 22.1484375,40.01953125 20.9033203125,39.7705078125 19.9072265625,39.0966796875 19.2333984375,38.1005859375 18.984375,36.85546875 18.984375,33.69140625 15.322265625,33.486328125 11.748046875,32.6953125z M8.408203125,12.626953125L6.767578125,12.9638671875 5.4345703125,13.8720703125 4.541015625,15.205078125 4.21875,16.845703125 4.21875,21.064453125 4.3505859375,22.3681640625 4.6875,23.61328125 5.63598537445068,25.7299823760986 6.9580078125,27.451171875 10.400390625,29.8974609375 14.5458984375,31.201171875 18.955078125,31.58203125 48.427734375,31.58203125 51.5771484375,31.40625 54.755859375,30.791015625 57.7001953125,29.58984375 60.205078125,27.65625 61.34765625,26.25 62.28515625,24.6240234375 62.9296875,22.8662109375 63.1640625,21.064453125 63.1640625,16.845703125 62.8271484375,15.205078125 61.9189453125,13.8720703125 60.5859375,12.9638671875 58.9453125,12.626953125 57.3046875,12.9638671875 55.9716796875,13.8720703125 55.078125,15.205078125 54.755859375,16.845703125 54.4189453125,18.486328125 53.5107421875,19.8193359375 52.177734375,20.7275390625 50.537109375,21.064453125 16.58203125,21.064453125 15.1904296875,20.7568359375 14.00390625,19.9365234375 13.125,18.7646484375 12.685546875,17.40234375 12.5537109375,16.2451171875 12.275390625,15.1171875 10.7080078125,13.3154296875 8.408203125,12.626953125z M28.76953125,4.21874952316284L27.0703125,4.4091796875 25.458984375,4.98046827316284 22.412109375,7.0751953125 20.419921875,9.873046875 19.3212890625,13.1982421875 18.984375,16.845703125 48.45703125,16.845703125 48.22265625,14.0625 47.63671875,11.396484375 46.5380859375,8.9501953125 44.765625,6.767578125 43.447265625,5.771484375 41.9091796875,4.96581983566284 40.2685546875,4.423828125 38.642578125,4.21874952316284 36.8994140625,4.62890625 35.947265625,6.123046875 35.654296875,6.97265672683716 35.21484375,7.70507860183716 34.5849609375,8.232421875 33.69140625,8.4375 32.783203125,8.2470703125 32.138671875,7.71972703933716 31.728515625,6.9580078125 31.494140625,6.09375047683716 30.4833984375,4.6875 28.76953125,4.21874952316284z M28.798828125,0L31.435546875,0.468749761581421 33.69140625,1.87499988079071 35.9765625,0.468749761581421 38.642578125,0 41.1364707946777,0.238039910793304 43.4619140625,0.952147960662842 47.4609375,3.5302734375 50.419921875,7.3095703125 52.1484375,11.89453125 55.13671875,9.345703125 56.9677734375,8.66455078125 58.9453125,8.4375 62.1826171875,9.111328125 64.8779296875,10.927734375 66.708984375,13.6083984375 67.3828125,16.845703125 67.3828125,21.064453125 66.826171875,24.6240234375 65.302734375,27.919921875 63.017578125,30.7763671875 60.17578125,32.98828125 60.85693359375,36.46728515625 61.083984375,40.048828125 60.838623046875,43.7548828125 60.1025390625,47.314453125 58.919677734375,50.687255859375 57.333984375,53.8330078125 53.0419921875,59.3701171875 47.5048828125,63.6474609375 44.3554649353027,65.22216796875 40.9716796875,66.4013671875 37.408447265625,67.137451171875 33.720703125,67.3828125 30.0146484375,67.137451171875 26.455078125,66.4013671875 23.0822734832764,65.22216796875 19.9365234375,63.6474609375 14.3994140625,59.3701171875 10.107421875,53.8330078125 8.521728515625,50.68359375 7.3388671875,47.2998046875 6.60278224945068,43.736572265625 6.357421875,40.048828125 6.5771484375,36.50390625 7.265625,33.017578125 4.3798828125,30.8203125 2.080078125,27.9638671875 0.556640625,24.6533203125 0,21.064453125 0,16.845703125 0.6591796875,13.5791015625 2.4609375,10.8984375 5.1416015625,9.0966796875 8.408203125,8.4375 10.396728515625,8.668212890625 12.2607421875,9.3603515625 15.263671875,11.953125 17.0068359375,7.36816358566284 19.98046875,3.55957055091858 23.9794921875,0.966796636581421 26.304931640625,0.241702049970627 28.798828125,0z" />
    </g>
  </g>
</svg>