<?xml version="1.0" encoding="utf-8"?>
<!DOCTYPE svg PUBLIC "-//W3C//DTD SVG 1.1//EN" "http://www.w3.org/Graphics/SVG/1.1/DTD/svg11.dtd">
<svg width="67.382812500001" height="63.1640625" xmlns="http://www.w3.org/2000/svg" xmlns:xlink="http://www.w3.org/1999/xlink" xmlns:xml="http://www.w3.org/XML/1998/namespace" version="1.1">
  <g>
    <g>
      <path style="fill:#FF0000;fill-opacity:1" d="M33.69140625,48.427734375L31.585693359375,48.636474609375 29.6044921875,49.2626953125 26.2646484375,51.5185546875 24.0087890625,54.8583984375 23.3825664520264,56.839599609375 23.173828125,58.9453125 40.01953125,58.9453125 40.01953125,48.427734375 33.69140625,48.427734375z M47.98828125,42.685546875L47.1240234375,44.4140625 45.966796875,45.966796875 45.3955078125,46.4501953125 44.82421875,46.93359375 52.91015625,55.01953125 57.4365234375,51.0791015625 60.76171875,46.083984375 47.98828125,42.685546875z M57.392578125,20.5078125L44.82421875,33.10546875 46.7431640625,34.951171875 47.98828125,37.32421875 63.046875,33.310546875 62.398681640625,29.813232421875 61.2158203125,26.4697265625 59.534912109375,23.3459491729736 57.392578125,20.5078125z M22.119140625,18.955078125L23.349609375,19.2041015625 24.345703125,19.892578125 25.0048828125,20.9033203125 25.25390625,22.119140625 25.25390625,26.30859375 25.0048828125,27.5244140625 24.345703125,28.53515625 23.349609375,29.2236328125 22.119140625,29.47265625 20.8740234375,29.2236328125 19.8779296875,28.5498046875 19.2041015625,27.5537109375 18.955078125,26.30859375 18.955078125,22.119140625 19.2041015625,20.888671875 19.8779296875,19.8779296875 20.8740234375,19.2041015625 22.119140625,18.955078125z M33.69140625,12.626953125L30.604248046875,12.83935546875 27.4365234375,13.4765625 21.181640625,15.7763671875 15.380859375,19.1455078125 10.517578125,23.173828125 14.736328125,27.36328125 10.517578125,31.58203125 19.5703125,31.58203125 10.83984375,40.3125 10.517578125,41.07421875 10.83984375,41.806640625 11.572265625,42.12890625 12.4658203125,41.66015625 13.6376953125,40.576171875 14.794921875,39.3603515625 15.615234375,38.49609375 22.55859375,31.58203125 25.8984375,31.58203125 24.8583984375,32.5927734375 23.3642578125,34.04296875 21.9580078125,35.4638671875 21.181640625,36.38671875 21.064453125,36.85546875 21.064453125,45.263671875 21.3427734375,45.99609375 22.060546875,46.318359375 22.79296875,46.083984375 23.173828125,45.263671875 23.173828125,37.294921875 28.857421875,31.58203125 32.197265625,31.58203125 31.611328125,32.138671875 30.673828125,33.0322265625 29.58984375,34.0869140625 28.564453125,35.1123046875 27.7734375,35.9619140625 27.451171875,36.474609375 27.36328125,36.85546875 27.36328125,45.263671875 27.6708984375,45.99609375 28.388671875,46.318359375 29.20166015625,46.0546875 29.47265625,45.263671875 29.47265625,37.294921875 35.185546875,31.58203125 36.298828125,31.58203125 44.47265625,23.408203125 45.8349609375,21.3720703125 46.318359375,18.955078125 45.8203125,16.494140625 44.47265625,14.4873046875 42.48046875,13.125 40.01953125,12.626953125 33.69140625,12.626953125z M33.69140625,4.21875047683716L27.2021484375,4.83398485183716 20.947265625,6.5771484375 15.0439453125,9.31640625 9.609375,12.919921875 9.169921875,13.2421875 7.470703125,14.58984375 5.8740234375,16.1572265625 4.6875,17.958984375 4.21875,20.009765625 4.6435546875,22.119140625 5.8154296875,23.7744140625 7.55859375,24.8583984375 9.66796875,25.25390625 7.55859375,23.173828125 7.939453125,22.763671875 6.73828125,21.6064453125 6.298828125,20.009765625 6.533203125,18.80859375 7.236328125,17.783203125 11.015625,14.501953125 12.744140625,13.2275390625 14.58984375,12.0703125 19.0869121551514,9.66796875 23.73046875,7.8515625 28.5791015625,6.708984375 33.69140625,6.328125 40.01953125,6.328125 45.46875,6.796875 50.2734375,8.1884765625 54.755859375,10.458984375 59.23828125,13.53515625 59.58984375,13.76953125 60,13.857421875 60.7470703125,13.5498046875 61.0546875,12.802734375 60.966796875,12.333984375 60.64453125,11.982421875 56.1328125,8.6572265625 51.0498046875,6.2109375 45.615234375,4.71679735183716 40.01953125,4.21875047683716 33.69140625,4.21875047683716z M33.69140625,0L40.01953125,0 45.3185997009277,0.384524554014206 50.4345703125,1.53808617591858 55.316162109375,3.44604802131653 59.912109375,6.09375095367432 61.7431640625,7.36816501617432 63.4716796875,8.86230564117432 64.7607421875,10.6494150161743 65.2734375,12.802734375 64.9365234375,14.6630859375 63.9990234375,16.2451171875 62.578125,17.40234375 60.791015625,18.017578125 63.61083984375,21.983642578125 65.68359375,26.3232421875 66.9580078125,30.955810546875 67.3828125,35.80078125 67.137451171875,39.5068359375 66.4013671875,43.06640625 65.218505859375,46.44287109375 63.6328125,49.599609375 59.35546875,55.13671875 53.818359375,59.4140625 50.6616172790527,60.999755859375 47.28515625,62.1826171875 43.7255821228027,62.918701171875 40.01953125,63.1640625 18.955078125,63.1640625 18.955078125,60.791015625 19.04296875,57.978515625 19.423828125,55.4296875 20.2294921875,52.998046875 21.62109375,50.5078125 19.7314453125,49.9658203125 18.22265625,48.80859375 17.2119140625,47.197265625 16.845703125,45.263671875 16.845703125,43.2421875 15.732421875,44.4140625 14.5458984375,45.3955078125 13.18359375,46.0693359375 11.572265625,46.318359375 9.5068359375,45.908203125 7.8369140625,44.7802734375 6.708984375,43.1103515625 6.298828125,41.044921875 6.5625,39.4482421875 7.2509765625,38.1005859375 8.23242282867432,36.8994140625 9.404296875,35.80078125 0,35.80078125 7.001953125,29.150390625 4.1748046875,27.861328125 1.962890625,25.7666015625 0.5126953125,23.0712890625 0,20.009765625 0.194091439247131,18.017578125 0.7763671875,16.259765625 2.958984375,13.125 5.95458889007568,10.279541015625 9.375,7.7197265625 17.05078125,3.58886766433716 21.1486797332764,2.06909489631653 25.3564453125,0.937500476837158 29.571533203125,0.234378099441528 33.69140625,0z" />
    </g>
  </g>
</svg>