<?xml version="1.0" encoding="utf-8"?>
<!DOCTYPE svg PUBLIC "-//W3C//DTD SVG 1.1//EN" "http://www.w3.org/Graphics/SVG/1.1/DTD/svg11.dtd">
<svg width="67.3828125000044" height="63.1640625" xmlns="http://www.w3.org/2000/svg" xmlns:xlink="http://www.w3.org/1999/xlink" xmlns:xml="http://www.w3.org/XML/1998/namespace" version="1.1">
  <g>
    <g>
      <path style="fill:#FF0000;fill-opacity:1" d="M34.248046875,42.12890625L32.1533203125,42.421875 30.1171875,43.0078125 22.412109375,46.7578125 14.736328125,50.537109375 16.0546875,47.2265625 12.685546875,45.5126953125 9.31640625,43.798828125 4.39453125,54.31640625 4.248046875,54.873046875 4.189453125,55.458984375 4.4677734375,56.806640625 5.2294921875,57.919921875 6.357421875,58.6669921875 7.705078125,58.9453125 63.1640625,58.9453125 63.1640625,56.220703125 62.911376953125,53.514404296875 62.1533203125,50.9619140625 60.948486328125,48.629150390625 59.35546875,46.58203125 55.166015625,43.4912109375 52.6684532165527,42.557373046875 49.98046875,42.12890625 50.537109375,44.208984375 50.068359375,46.083984375 45.849609375,54.4921875 44.326171875,56.2060546875 42.12890625,56.8359375 39.90234375,56.220703125 38.349609375,54.521484375 34.16015625,46.083984375 33.69140625,44.208984375 34.248046875,42.12890625z M37.91015625,42.099609375L36.416015625,42.7294921875 35.80078125,44.23828125 36.0791015625,45.1025390625 36.796875,46.728515625 37.763671875,48.75 38.7744140625,50.8154296875 39.6533203125,52.5439453125 40.224609375,53.583984375 41.015625,54.43359375 42.12890625,54.755859375 43.2275390625,54.43359375 43.974609375,53.5546875 45.2490234375,51.1376953125 46.435546875,48.69140625 47.3291015625,46.9189453125 48.193359375,45.146484375 48.369140625,44.677734375 48.427734375,44.1796875 47.8271484375,42.744140625 46.40625,42.099609375 37.91015625,42.099609375z M37.880859375,31.58203125L46.2890625,31.58203125 45.966796875,33.22265625 45.0732421875,34.5556640625 43.740234375,35.4638671875 42.099609375,35.80078125 40.458984375,35.4638671875 39.1259765625,34.5556640625 38.2177734375,33.22265625 37.880859375,31.58203125z M23.173828125,29.47265625L21.9140625,29.9267578125 20.9912109375,31.0400390625 20.302734375,32.4169921875 19.74609375,33.69140625 15.76171875,33.69140625 14.4140625,33.9697265625 13.4619140625,34.7021484375 12.802734375,35.7421875 12.275390625,36.943359375 10.224609375,41.865234375 13.53515625,43.564453125 16.845703125,45.263671875 17.900390625,42.099609375 20.009765625,42.099609375 21.2255859375,41.8505859375 22.236328125,41.1767578125 22.9248046875,40.1806640625 23.173828125,38.96484375 23.173828125,36.298828125 23.701171875,35.244140625 24.404296875,33.9111328125 25.01953125,32.5927734375 25.283203125,31.58203125 24.66796875,30.087890625 23.173828125,29.47265625z M39.990234375,27.36328125L44.208984375,27.36328125 43.5791015625,28.8427734375 42.099609375,29.47265625 40.60546875,28.857421875 39.990234375,27.36328125z M48.427734375,21.064453125L49.9072265625,21.6796875 50.537109375,23.14453125 50.537109375,25.25390625 49.921875,26.748046875 48.427734375,27.36328125 46.93359375,26.748046875 46.318359375,25.25390625 46.318359375,23.14453125 46.9482421875,21.6796875 48.427734375,21.064453125z M35.80078125,21.064453125L37.2802734375,21.6796875 37.91015625,23.14453125 37.91015625,25.25390625 37.294921875,26.748046875 35.80078125,27.36328125 34.306640625,26.748046875 33.69140625,25.25390625 33.69140625,23.14453125 34.3212890625,21.6796875 35.80078125,21.064453125z M11.572265625,18.955078125L10.8251953125,19.2626953125 10.517578125,20.009765625 10.78125,22.6171875 11.5576171875,25.25390625 12.8173828125,27.685546875 14.53125,29.677734375 14.853515625,29.912109375 15.263671875,30 15.99609375,29.677734375 16.318359375,28.9453125 16.2451171875,28.5498046875 16.025390625,28.18359375 14.6044921875,26.279296875 13.53515625,24.4189453125 12.861328125,22.3974609375 12.626953125,20.009765625 12.3193359375,19.2626953125 11.572265625,18.955078125z M5.2734375,18.955078125L4.5263671875,19.2626953125 4.21875,20.009765625 4.599609375,23.84765625 5.7275390625,27.6708984375 7.5732421875,31.201171875 10.078125,34.130859375 10.810546875,34.453125 11.5576171875,34.1455078125 11.865234375,33.3984375 11.6015625,32.75390625 11.0009765625,31.962890625 10.3125,31.1865234375 9.78515625,30.5859375 8.291015625,28.19091796875 7.20703125,25.576171875 6.54785060882568,22.8222675323486 6.328125,20.009765625 6.0205078125,19.2626953125 5.2734375,18.955078125z M44.208984375,12.978515625L44.208984375,18.955078125 41.7919921875,18.603515625 39.6240234375,17.5927734375 37.822265625,16.0107421875 36.533203125,13.9453125 35.2587890625,16.8310546875 33.1787109375,19.072265625 30.46875,20.537109375 27.36328125,21.064453125 25.869140625,21.6796875 25.224609375,23.14453125 25.224609375,24.345703125 25.3125,25.4736328125 25.634765625,26.4404296875 26.3232421875,27.1142578125 27.509765625,27.36328125 28.121337890625,29.981689453125 29.1943359375,32.3876953125 32.4462890625,36.38671875 36.884765625,39.0380859375 39.43359375,39.752197265625 42.099609375,39.990234375 45.0585899353027,39.700927734375 47.841796875,38.8330078125 50.3649864196777,37.467041015625 52.5439453125,35.68359375 54.3383750915527,33.519287109375 55.7080078125,31.0107421875 56.575927734375,28.231201171875 56.865234375,25.25390625 56.865234375,21.064453125 52.646484375,21.064453125 49.4384765625,20.4345703125 46.787109375,18.7060546875 44.9560546875,16.142578125 44.208984375,12.978515625z M42.099609375,0L45.2343711853027,0.208743363618851 48.251953125,0.834961652755737 53.7890625,3.17871117591858 58.4765625,6.796875 62.0947265625,11.484375 64.4384765625,17.021484375 65.064697265625,20.0390644073486 65.2734375,23.173828125 65.2734375,47.6953125 66.8408203125,51.826171875 67.3828125,56.220703125 67.3828125,63.1640625 7.705078125,63.1640625 4.71679592132568,62.5634765625 2.255859375,60.908203125 0.6005859375,58.447265625 0,55.458984375 0.1171875,54.1552734375 0.439453601837158,52.91015625 1.2890625,50.830078125 2.314453125,48.80859375 4.96581935882568,43.1689453125 7.5,37.5 7.2802734375,37.32421875 7.08984375,37.119140625 4.04296875,33.3251953125 1.81640625,29.267578125 0.454101383686066,24.8584003448486 0,20.009765625 0.410156726837158,17.958984375 1.5380859375,16.2744140625 3.22265625,15.146484375 5.2734375,14.736328125 6.9287109375,15.0146484375 8.408203125,15.791015625 9.90234375,15.0146484375 11.572265625,14.736328125 13.623046875,15.146484375 15.3076171875,16.2744140625 16.435546875,17.958984375 16.845703125,20.009765625 17.3876953125,22.79296875 18.955078125,25.166015625 18.955078125,23.173828125 19.1601543426514,20.0390644073486 19.775390625,17.021484375 22.1044921875,11.484375 25.7373046875,6.796875 30.4248046875,3.17871117591858 35.947265625,0.834961652755737 38.96484375,0.208743363618851 42.099609375,0z" />
    </g>
  </g>
</svg>