<?xml version="1.0" encoding="utf-8"?>
<!DOCTYPE svg PUBLIC "-//W3C//DTD SVG 1.1//EN" "http://www.w3.org/Graphics/SVG/1.1/DTD/svg11.dtd">
<svg width="67.3828125000006" height="48.427734375" xmlns="http://www.w3.org/2000/svg" xmlns:xlink="http://www.w3.org/1999/xlink" xmlns:xml="http://www.w3.org/XML/1998/namespace" version="1.1">
  <g>
    <g>
      <path style="fill:#FF0000;fill-opacity:1" d="M46.318359375,35.80078125L45.732421875,35.8447265625 45.0439453125,36.0205078125 44.4580078125,36.357421875 44.208984375,36.85546875 44.4580078125,37.3681640625 45.0439453125,37.6904296875 45.732421875,37.8662109375 46.318359375,37.91015625 46.8896484375,37.8662109375 47.5927734375,37.6904296875 48.1787109375,37.3681640625 48.427734375,36.85546875 48.1787109375,36.357421875 47.5927734375,36.0205078125 46.8896484375,35.8447265625 46.318359375,35.80078125z M17.16796875,31.171875L25.2392578125,33.076171875 33.515625,33.69140625 32.197265625,35.6396484375 30.0732421875,36.9580078125 27.59765625,37.6904296875 25.25390625,37.91015625 22.6904296875,37.6171875 19.9365234375,36.6943359375 17.724609375,35.068359375 17.0434551239014,33.9697265625 16.81640625,32.666015625 16.9189453125,31.8896484375 17.16796875,31.171875z M25.166015625,27.36328125L27.5537109375,27.5830078125 30.0439453125,28.30078125 32.1826171875,29.6044921875 33.515625,31.58203125 25.95703125,31.083984375 18.57421875,29.443359375 21.6943359375,27.8466796875 25.166015625,27.36328125z M7.587890625,25.810546875L11.1767578125,28.4912109375 15.205078125,30.439453125 14.736328125,32.666015625 15,34.464111328125 15.791015625,35.9912109375 18.427734375,38.2763671875 21.85546875,39.5947265625 25.3125,40.01953125 28.5205078125,39.6533203125 31.6845703125,38.525390625 34.2626953125,36.5478515625 35.712890625,33.662109375 41.923828125,33.076171875 48.486328125,31.6845703125 54.6826171875,29.326171875 57.432861328125,27.7294921875 59.794921875,25.810546875 60.703125,27.5537109375 61.0546875,29.47265625 60.849609375,31.0546875 60.234375,32.51953125 58.06640625,35.09765625 55.0048828125,37.2216796875 51.533203125,38.90625 48.1201171875,40.1513671875 45.205078125,40.927734375 39.4921875,41.8212890625 33.69140625,42.099609375 27.890625,41.8212890625 22.177734375,40.927734375 19.2626953125,40.1513671875 15.849609375,38.90625 12.3779296875,37.2216796875 9.31640625,35.09765625 7.1484375,32.51953125 6.53320217132568,31.0546875 6.328125,29.47265625 6.6796875,27.5537109375 7.587890625,25.810546875z M41.103515625,21.064453125L42.3779296875,21.1376953125 43.623046875,21.38671875 44.3115234375,21.6064453125 45.205078125,22.0166015625 45.9814453125,22.55859375 46.318359375,23.173828125 46.0693359375,23.6572265625 45.4833984375,24.1259765625 44.8095703125,24.5068359375 44.296875,24.7265625 42.71484375,25.13671875 41.044921875,25.25390625 38.759765625,25.0048828125 36.62109375,24.140625 36.1083984375,23.7158203125 35.80078125,23.173828125 36.2255859375,22.470703125 37.20703125,21.884765625 38.3203125,21.4599609375 39.140625,21.240234375 41.103515625,21.064453125z M23.173828125,21.064453125L22.587890625,21.1083984375 21.8994140625,21.2841796875 21.3134765625,21.62109375 21.064453125,22.119140625 21.3134765625,22.6171875 21.8994140625,22.939453125 22.587890625,23.115234375 23.173828125,23.173828125 23.7451171875,23.115234375 24.43359375,22.939453125 25.0048828125,22.6171875 25.25390625,22.119140625 25.0048828125,21.62109375 24.43359375,21.2841796875 23.7451171875,21.1083984375 23.173828125,21.064453125z M41.07421875,18.955078125L38.9208984375,19.1748046875 36.4892578125,19.892578125 34.51171875,21.1962890625 33.896484375,22.093505859375 33.69140625,23.173828125 33.896484375,24.25048828125 34.51171875,25.13671875 36.4892578125,26.42578125 38.90625,27.1435546875 41.044921875,27.36328125 43.1982421875,27.1435546875 45.6298828125,26.42578125 47.607421875,25.13671875 48.2226524353027,24.25048828125 48.427734375,23.173828125 48.2226524353027,22.08984375 47.607421875,21.181640625 45.6298828125,19.8779296875 43.212890625,19.1748046875 41.07421875,18.955078125z M33.69140625,16.845703125L37.8369140625,16.9921875 42.275390625,17.490234375 46.787109375,18.3984375 51.1376953125,19.775390625 55.0927734375,21.708984375 58.41796875,24.228515625 56.202392578125,26.041259765625 53.5986328125,27.5537109375 47.724609375,29.765625 41.513671875,31.0400390625 35.68359375,31.552734375 35.1416015625,29.97802734375 34.21875,28.65234375 31.611328125,26.7041015625 28.41796875,25.60546875 25.1953125,25.25390625 22.7783203125,25.4443359375 20.4052734375,26.044921875 18.2080078125,27.099609375 16.34765625,28.65234375 12.4365234375,26.806640625 8.96484375,24.228515625 12.2900390625,21.708984375 16.2451171875,19.775390625 20.595703125,18.3984375 25.107421875,17.490234375 29.5458984375,16.9921875 33.69140625,16.845703125z M33.69140625,4.21875L27.919921875,4.4970703125 22.20703125,5.361328125 18.6767578125,6.2841796875 14.736328125,7.705078125 10.8544921875,9.6533203125 7.4853515625,12.158203125 5.1123046875,15.263671875 4.442138671875,17.0361328125 4.21875,18.955078125 4.21875,29.47265625 4.442138671875,31.409912109375 5.1123046875,33.1787109375 7.4853515625,36.26953125 10.8544921875,38.7744140625 14.736328125,40.72265625 18.6767578125,42.158203125 22.20703125,43.06640625 27.919921875,43.9306640625 33.69140625,44.208984375 39.462890625,43.9306640625 45.17578125,43.06640625 48.7060546875,42.158203125 52.646484375,40.72265625 56.5283203125,38.7744140625 59.8974609375,36.26953125 62.2705078125,33.1640625 62.940673828125,31.3916015625 63.1640625,29.47265625 63.1640625,18.955078125 62.940673828125,17.0361328125 62.2705078125,15.263671875 59.8974609375,12.158203125 56.5283203125,9.6533203125 52.646484375,7.705078125 48.7060546875,6.2841796875 45.17578125,5.361328125 39.462890625,4.4970703125 33.69140625,4.21875z M33.69140625,0L40.4150390625,0.3369140625 47.05078125,1.435546875 51.4599609375,2.7099609375 56.044921875,4.5849609375 60.3515625,7.1044921875 63.9697265625,10.3125 66.4599609375,14.2529296875 67.152099609375,16.505126953125 67.3828125,18.955078125 67.3828125,29.47265625 67.152099609375,31.922607421875 66.4599609375,34.1748046875 63.9697265625,38.115234375 60.3515625,41.3232421875 56.044921875,43.8427734375 51.4599609375,45.7177734375 47.05078125,46.9921875 40.4150390625,48.0908203125 33.69140625,48.427734375 26.9677734375,48.0908203125 20.33203125,46.9921875 15.908203125,45.732421875 11.337890625,43.8427734375 7.03125,41.3232421875 3.4130859375,38.115234375 0.9228515625,34.1748046875 0.230712532997131,31.922607421875 0,29.47265625 0,18.955078125 0.230712532997131,16.505126953125 0.9228515625,14.2529296875 3.4130859375,10.3125 7.03125,7.1044921875 11.337890625,4.5849609375 15.908203125,2.7099609375 20.33203125,1.435546875 26.9677734375,0.3369140625 33.69140625,0z" />
    </g>
  </g>
</svg>