<?xml version="1.0" encoding="utf-8"?>
<!DOCTYPE svg PUBLIC "-//W3C//DTD SVG 1.1//EN" "http://www.w3.org/Graphics/SVG/1.1/DTD/svg11.dtd">
<svg width="67.3828125000005" height="67.3828125" xmlns="http://www.w3.org/2000/svg" xmlns:xlink="http://www.w3.org/1999/xlink" xmlns:xml="http://www.w3.org/XML/1998/namespace" version="1.1">
  <g>
    <g>
      <path style="fill:#FF0000;fill-opacity:1" d="M49.27734375,50.09765625L46.318359375,58.974609375 44.677734375,59.296875 43.3447265625,60.1904296875 42.4365234375,61.5234375 42.099609375,63.1640625 48.427734375,63.1640625 53.408203125,53.203125 51.3427734375,51.6357421875 49.27734375,50.09765625z M31.58203125,40.95703125L29.5458984375,41.8212890625 27.36328125,42.12890625 17.98828125,42.12890625 19.5922832489014,44.09912109375 21.708984375,45.498046875 25.25390625,52.646484375 25.25390625,58.974609375 23.61328125,59.296875 22.2802734375,60.1904296875 21.38671875,61.5234375 21.064453125,63.1640625 27.36328125,63.1640625 29.501953125,58.974609375 29.501953125,46.318359375 31.58203125,46.318359375 31.58203125,40.95703125z M22.119140625,16.845703125L24.814453125,21.533203125 25.283203125,23.232421875 25.0341796875,24.4775390625 24.3603515625,25.4736328125 23.349609375,26.1328125 22.119140625,26.3671875 20.9033203125,26.1328125 19.892578125,25.4736328125 19.2041015625,24.4921875 18.955078125,23.26171875 19.423828125,21.533203125 22.119140625,16.845703125z M15.791015625,16.845703125L16.5380859375,17.1533203125 16.845703125,17.900390625 16.845703125,20.009765625 16.5380859375,20.7568359375 15.791015625,21.064453125 15.0439453125,20.7568359375 14.736328125,20.009765625 14.736328125,17.900390625 15.0439453125,17.1533203125 15.791015625,16.845703125z M16.845703125,14.736328125L15.029296875,15.17578125 13.3447265625,16.2451171875 11.8359375,17.607421875 10.517578125,18.955078125 8.408203125,18.955078125 4.951171875,22.412109375 6.26953125,24.462890625 8.056640625,26.015625 10.2099609375,27.01171875 12.626953125,27.36328125 16.845703125,27.36328125 16.845703125,37.91015625 27.36328125,37.91015625 29.00390625,37.5732421875 30.3369140625,36.6650390625 31.2451171875,35.33203125 31.58203125,33.69140625 31.58203125,27.36328125 23.173828125,14.736328125 16.845703125,14.736328125z M52.646484375,10.517578125L51.005859375,10.8544921875 49.6728515625,11.7626953125 48.7646484375,13.095703125 48.427734375,14.736328125 50.126953125,14.70703125 52.08984375,14.677734375 54.169921875,14.765625 56.07421875,15.322265625 57.59765625,16.4501953125 58.6083984375,18.046875 58.974609375,20.009765625 58.6669921875,21.7529296875 57.802734375,23.3203125 57.0556640625,24.1259765625 56.25,24.90234375 53.759765625,27.36328125 41.220703125,27.36328125 40.8984375,28.3447265625 40.2685546875,30.2490234375 39.4775390625,32.5927734375 38.7158203125,34.892578125 38.14453125,36.650390625 37.91015625,37.353515625 37.91015625,46.318359375 40.01953125,46.318359375 41.9165000915527,46.072998046875 43.681640625,45.3369140625 46.376953125,42.65625 47.0654296875,45 48.57421875,46.93359375 50.3173828125,48.28125 52.08984375,49.5703125 58.9453125,54.755859375 58.9453125,58.974609375 57.3046875,59.296875 55.9716796875,60.1904296875 55.0634765625,61.5234375 54.7265625,63.1640625 61.0546875,63.1640625 63.1640625,58.974609375 63.1787109375,57.0703125 63.193359375,55.166015625 63.193359375,53.90625 63.134765625,52.646484375 58.9453125,46.318359375 58.9453125,40.01953125 58.9599609375,38.6572265625 58.974609375,37.32421875 58.88671875,35.1416015625 58.4912109375,33.0908203125 57.59765625,31.1865234375 56.015625,29.4140625 55.78125,29.23828125 58.7548828125,28.0224609375 61.0986328125,25.927734375 62.6220703125,23.1884765625 63.1640625,20.009765625 62.51953125,16.5966796875 60.7470703125,13.6962890625 58.0810546875,11.6015625 54.755859375,10.576171875 54.1259765625,10.517578125 53.49609375,10.517578125 52.646484375,10.517578125z M43.125,8.4375L36.796875,27.36328125 35.7275390625,30.5859375 34.658203125,33.80859375 34.4091796875,34.482421875 34.0869140625,35.33203125 33.80859375,36.1669921875 33.69140625,36.826171875 33.9990234375,37.587890625 34.74609375,37.91015625 35.3466796875,37.705078125 35.7421875,37.177734375 36.6796875,34.365234375 37.8515625,30.8642578125 39.0234375,27.36328125 42.1728515625,17.900390625 45.322265625,8.4375 43.125,8.4375z M34.6875,8.4375L30.29296875,21.62109375 31.7578125,23.818359375 36.9140625,8.4375 34.6875,8.4375z M36.85546875,4.21874952316284L36.2109375,4.43847703933716 35.830078125,4.98046827316284 35.595703125,5.6689453125 35.390625,6.328125 46.025390625,6.328125 46.2158203125,5.8154296875 46.318359375,5.2734375 46.0546875,4.58496141433716 45.46875,4.21874952316284 36.85546875,4.21874952316284z M36.85546875,0L45.263671875,0 47.2998046875,0.410156488418579 48.9697265625,1.53808617591858 50.1123046875,3.20800733566284 50.537109375,5.244140625 50.361328125,6.62109375 51.97265625,6.35742139816284 53.61328125,6.328125 53.876953125,6.328125 56.6015625,6.60278606414795 59.150390625,7.4267578125 61.453857421875,8.719482421875 63.4423828125,10.400390625 65.079345703125,12.42919921875 66.328125,14.765625 67.119140625,17.32177734375 67.3828125,20.009765625 67.034912109375,23.089599609375 65.9912109375,26.0009765625 64.324951171875,28.6047382354736 62.109375,30.76171875 62.900390625,33.2080078125 63.1640625,35.80078125 63.1640625,45.05859375 67.353515625,51.357421875 67.353515625,59.970703125 63.6328125,67.3828125 37.91015625,67.3828125 37.91015625,63.1640625 38.2763671875,60.7177734375 39.31640625,58.5205078125 40.9423828125,56.7041015625 43.06640625,55.400390625 45.05859375,49.423828125 42.59765625,50.244140625 40.01953125,50.537109375 33.720703125,50.537109375 33.720703125,59.970703125 29.970703125,67.3828125 16.845703125,67.3828125 16.845703125,63.1640625 17.1276836395264,60.966796875 17.9736328125,58.9453125 19.3103008270264,57.20947265625 21.064453125,55.869140625 21.064453125,53.642578125 18.515625,48.544921875 16.083984375,46.5234375 14.2236328125,43.974609375 13.037109375,41.0595703125 12.626953125,37.91015625 12.626953125,31.58203125 10.10009765625,31.3330078125 7.73437404632568,30.5859375 3.720703125,27.861328125 0.99609375,23.84765625 0.249023079872131,21.48193359375 0,18.955078125 0,14.736328125 8.7890625,14.736328125 10.517578125,13.154296875 12.421875,11.806640625 14.5166015625,10.869140625 16.845703125,10.517578125 25.4296875,10.517578125 28.18359375,14.677734375 31.875,3.60351538658142 32.61474609375,2.14599895477295 33.779296875,0.99609375 35.23681640625,0.249026298522949 36.85546875,0z" />
    </g>
  </g>
</svg>