<?xml version="1.0" encoding="utf-8"?>
<!DOCTYPE svg PUBLIC "-//W3C//DTD SVG 1.1//EN" "http://www.w3.org/Graphics/SVG/1.1/DTD/svg11.dtd">
<svg width="42.099609375" height="67.3828125" xmlns="http://www.w3.org/2000/svg" xmlns:xlink="http://www.w3.org/1999/xlink" xmlns:xml="http://www.w3.org/XML/1998/namespace" version="1.1">
  <g>
    <g>
      <path style="fill:#FF0000;fill-opacity:1" d="M6.88476610183716,32.138671875L5.97656297683716,40.83984375 5.00976610183716,49.541015625 4.48242235183716,54.2578125 4.32128953933716,55.576171875 4.21875047683716,56.865234375 4.79003953933716,58.5498046875 6.28418016433716,59.912109375 8.3642578125,60.99609375 10.6640625,61.8017578125 12.8173828125,62.34375 14.501953125,62.666015625 17.7685546875,63.046875 21.064453125,63.1640625 24.3603515625,63.046875 27.626953125,62.666015625 29.296875,62.3583984375 31.46484375,61.8017578125 33.75,60.99609375 35.8154296875,59.912109375 37.32421875,58.53515625 37.91015625,56.865234375 37.8076171875,55.576171875 37.646484375,54.2578125 36.97265625,48.134765625 36.15234375,40.13671875 35.21484375,32.138671875 35.15625,32.63671875 33.896484375,34.5703125 31.7431640625,35.9765625 29.033203125,36.943359375 26.1181640625,37.529296875 23.349609375,37.822265625 21.064453125,37.91015625 18.779296875,37.822265625 16.0107421875,37.529296875 13.095703125,36.943359375 10.3857421875,35.9765625 8.232421875,34.5703125 7.00195360183716,32.63671875 6.88476610183716,32.138671875z M20.9765625,27.36328125L17.0068359375,27.59765625 13.125,28.41796875 13.06640625,28.4326171875 13.0078125,28.447265625 11.953125,28.828125 10.869140625,29.296875 9.90234375,29.912109375 9.19921875,30.732421875 9.08203125,30.8935546875 9.0234375,31.083984375 9.0234375,32.080078125 9.5361328125,32.958984375 10.6640625,33.75 11.9384765625,34.3505859375 12.919921875,34.716796875 16.9189453125,35.56640625 21.005859375,35.80078125 23.5107421875,35.712890625 26.2646484375,35.390625 28.9453125,34.7900390625 31.259765625,33.837890625 31.7431640625,33.544921875 32.34375,33.0908203125 32.8564453125,32.578125 33.076171875,32.080078125 33.076171875,31.083984375 32.8271484375,30.6005859375 32.4609375,30.17578125 30.1318359375,28.7841796875 26.9970703125,27.919921875 23.73046875,27.48046875 20.9765625,27.36328125z M8.408203125,17.666015625L8.408203125,20.009765625 8.8330078125,21.4013671875 9.9609375,22.5439453125 11.54296875,23.4521484375 13.30078125,24.140625 15,24.6240234375 16.376953125,24.90234375 18.69140625,25.1953125 21.064453125,25.283203125 24.0087890625,25.1220703125 27.4658203125,24.5361328125 30.7177734375,23.408203125 33.046875,21.650390625 33.515625,20.888671875 33.69140625,20.009765625 33.69140625,17.666015625 30.9375,19.2919921875 27.685546875,20.3466796875 24.2724609375,20.9033203125 21.064453125,21.064453125 17.8564453125,20.9033203125 14.4287109375,20.3466796875 11.1474609375,19.2919921875 8.408203125,17.666015625z M23.173828125,12.626953125L25.25390625,12.626953125 26.0009765625,12.9345703125 26.30859375,13.681640625 26.0009765625,14.4287109375 25.25390625,14.736328125 23.173828125,14.736328125 22.4267578125,14.4287109375 22.119140625,13.681640625 22.4267578125,12.9345703125 23.173828125,12.626953125z M16.845703125,12.626953125L18.955078125,12.626953125 19.7021484375,12.9345703125 20.009765625,13.681640625 19.7021484375,14.4287109375 18.955078125,14.736328125 16.845703125,14.736328125 16.0986328125,14.4287109375 15.791015625,13.681640625 16.0986328125,12.9345703125 16.845703125,12.626953125z M26.30859375,8.4375L28.41796875,8.4375 29.150390625,8.7451171875 29.47265625,9.462890625 29.1650390625,10.2099609375 28.41796875,10.517578125 26.30859375,10.517578125 25.576171875,10.1953125 25.25390625,9.462890625 25.576171875,8.7451171875 26.30859375,8.4375z M20.009765625,8.4375L22.119140625,8.4375 22.8515625,8.7451171875 23.173828125,9.462890625 22.8662109375,10.2099609375 22.119140625,10.517578125 20.009765625,10.517578125 19.2626953125,10.2099609375 18.955078125,9.462890625 19.27734375,8.7451171875 20.009765625,8.4375z M13.681640625,8.4375L15.791015625,8.4375 16.5234375,8.7451171875 16.845703125,9.462890625 16.5380859375,10.2099609375 15.791015625,10.517578125 13.681640625,10.517578125 12.9345703125,10.2099609375 12.626953125,9.462890625 12.94921875,8.7451171875 13.681640625,8.4375z M20.1708984375,4.21874952316284L19.306640625,4.27734375 19.8193359375,4.6728515625 20.009765625,5.2734375 19.7021484375,6.0205078125 18.955078125,6.328125 18.3251953125,6.35742139816284 17.548828125,6.38671875 16.3330078125,6.181640625 15.791015625,5.2734375 15.849609375,4.892578125 13.037109375,6.1376953125 10.6640625,8.115234375 9.0234375,10.6640625 8.408203125,13.681640625 9.1552734375,15.5712890625 11.07421875,16.962890625 13.7109375,17.9296875 16.5966796875,18.5302734375 19.248046875,18.837890625 21.2109375,18.92578125 24.169921875,18.7646484375 27.568359375,18.193359375 30.7470703125,17.0947265625 33.076171875,15.322265625 33.69140625,13.623046875 33.076171875,10.60546875 31.4208984375,8.0712890625 29.033203125,6.123046875 26.25,4.892578125 26.30859375,5.08300828933716 26.30859375,5.2734375 26.0009765625,6.0205078125 25.25390625,6.328125 24.6533203125,6.35742139816284 23.876953125,6.38671875 22.6611328125,6.181640625 22.119140625,5.2734375 22.294921875,4.6728515625 22.79296875,4.27734375 21.9140625,4.21874952316284 21.03515625,4.21874952316284 20.1708984375,4.21874952316284z M21.03515625,0L24.2578125,0.190429210662842 27.421875,0.849609136581421 30.677490234375,2.19360637664795 33.4716796875,4.1162109375 35.694580078125,6.65405559539795 37.236328125,9.84375 37.6904296875,11.572265625 37.91015625,13.359375 37.91015625,13.857421875 37.8955078125,15.1171875 37.880859375,16.376953125 37.880859375,17.0068359375 37.91015625,17.63671875 41.748046875,53.115234375 41.9677734375,54.9462890625 42.099609375,56.77734375 41.8212852478027,58.861083984375 40.986328125,60.6591796875 38.0712890625,63.5009765625 33.9990234375,65.4345703125 29.384765625,66.62109375 24.8583984375,67.2216796875 21.064453125,67.3828125 17.2705078125,67.2216796875 12.744140625,66.62109375 8.115234375,65.4345703125 4.02832078933716,63.5009765625 1.11328172683716,60.6591796875 0.278320372104645,58.861083984375 0,56.77734375 0.1318359375,54.9462890625 0.380859375,53.115234375 4.21875047683716,17.63671875 4.24804735183716,17.0361328125 4.24804735183716,16.435546875 4.23339891433716,15.205078125 4.21875047683716,13.974609375 4.21875047683716,13.359375 4.42382860183716,11.572265625 4.89257955551147,9.814453125 6.4306640625,6.64673137664795 8.642578125,4.1162109375 11.42578125,2.19360637664795 14.677734375,0.849609136581421 17.8271484375,0.190429210662842 21.03515625,0z" />
    </g>
  </g>
</svg>