<?xml version="1.0" encoding="utf-8"?>
<!DOCTYPE svg PUBLIC "-//W3C//DTD SVG 1.1//EN" "http://www.w3.org/Graphics/SVG/1.1/DTD/svg11.dtd">
<svg width="67.3828125000008" height="67.3828125" xmlns="http://www.w3.org/2000/svg" xmlns:xlink="http://www.w3.org/1999/xlink" xmlns:xml="http://www.w3.org/XML/1998/namespace" version="1.1">
  <g>
    <g>
      <path style="fill:#FF0000;fill-opacity:1" d="M48.427734375,54.755859375L46.93359375,55.37109375 46.318359375,56.865234375 46.9482421875,58.3447265625 48.427734375,58.974609375 49.9072265625,58.3447265625 50.537109375,56.865234375 49.921875,55.37109375 48.427734375,54.755859375z M35.80078125,54.755859375L34.306640625,55.37109375 33.69140625,56.865234375 34.3212890625,58.3447265625 35.80078125,58.974609375 37.2802734375,58.3447265625 37.91015625,56.865234375 37.294921875,55.37109375 35.80078125,54.755859375z M25.25390625,50.537109375L23.7890625,51.1669921875 23.173828125,52.646484375 23.7890625,54.1259765625 25.25390625,54.755859375 26.748046875,54.140625 27.36328125,52.646484375 26.748046875,51.15234375 25.25390625,50.537109375z M54.755859375,46.318359375L53.26171875,46.93359375 52.646484375,48.427734375 53.26171875,49.921875 54.755859375,50.537109375 56.2353515625,49.9072265625 56.865234375,48.427734375 56.2353515625,46.9482421875 54.755859375,46.318359375z M42.099609375,46.318359375L40.634765625,46.9482421875 40.01953125,48.427734375 40.634765625,49.9072265625 42.099609375,50.537109375 43.59375,49.921875 44.208984375,48.427734375 43.59375,46.93359375 42.099609375,46.318359375z M31.58203125,44.208984375L30.1025390625,44.8388671875 29.47265625,46.318359375 30.087890625,47.8125 31.58203125,48.427734375 33.076171875,47.8125 33.69140625,46.318359375 33.0615234375,44.8388671875 31.58203125,44.208984375z M23.173828125,37.91015625L21.6796875,38.525390625 21.064453125,40.01953125 21.6943359375,41.4990234375 23.173828125,42.12890625 24.638671875,41.4990234375 25.25390625,40.01953125 24.638671875,38.5400390625 23.173828125,37.91015625z M18.955078125,29.47265625L17.4609375,30.087890625 16.845703125,31.58203125 17.4609375,33.076171875 18.955078125,33.69140625 20.44921875,33.076171875 21.064453125,31.58203125 20.44921875,30.087890625 18.955078125,29.47265625z M12.626953125,21.064453125L11.1328125,21.6796875 10.517578125,23.173828125 11.1474609375,24.6533203125 12.626953125,25.283203125 14.1064453125,24.6533203125 14.736328125,23.173828125 14.12109375,21.6796875 12.626953125,21.064453125z M40.01953125,18.955078125L38.3642578125,19.2919921875 37.0166015625,20.2001953125 36.123046875,21.533203125 35.80078125,23.173828125 36.1376953125,24.814453125 37.0458984375,26.1474609375 38.37890625,27.041015625 40.01953125,27.36328125 41.66015625,27.041015625 42.9931640625,26.1474609375 43.88671875,24.814453125 44.208984375,23.173828125 43.88671875,21.533203125 42.9931640625,20.2001953125 41.66015625,19.2919921875 40.01953125,18.955078125z M14.736328125,4.21874952316284L12.56103515625,4.44214153289795 10.48828125,5.11230421066284 8.5986328125,6.19995403289795 6.97265625,7.67578125 25.927734375,33.603515625 26.3525390625,34.27734375 26.77734375,34.951171875 28.974609375,37.67578125 32.21923828125,40.48828125 35.91796875,42.5390625 39.95361328125,43.79150390625 44.208984375,44.208984375 63.076171875,44.208984375 63.1640625,42.392578125 62.625732421875,37.386474609375 61.0107421875,32.7978515625 58.355712890625,28.7219257354736 54.697265625,25.25390625 54.7412109375,25.7958984375 54.755859375,26.337890625 54.5288047790527,28.6669940948486 53.84765625,30.849609375 51.357421875,34.5263671875 47.666015625,37.001953125 45.4833946228027,37.68310546875 43.154296875,37.91015625 40.8251914978027,37.68310546875 38.642578125,37.001953125 34.9658203125,34.51171875 32.490234375,30.8203125 31.80908203125,28.6376972198486 31.58203125,26.30859375 32.05078125,23.056640625 33.3837890625,20.1123046875 35.478515625,17.6513671875 38.232421875,15.849609375 19.5703125,5.44921922683716 17.2265625,4.5263671875 14.736328125,4.21874952316284z M14.736328125,0L18.2958984375,0.439453601837158 21.62109375,1.7578125 45.205078125,14.912109375 45.7470703125,15.087890625 46.2890625,15.17578125 47.34375,15.5273427963257 48.369140625,15.966796875 49.775390625,16.787109375 51.03515625,17.8125 51.416015625,18.22265625 51.796875,18.603515625 53.232421875,19.4677734375 54.7265625,20.244140625 60,24.2724609375 63.984375,29.4873046875 65.4345703125,32.435302734375 66.50390625,35.56640625 67.1630859375,38.818359375 67.3828125,42.12890625 67.15576171875,45.552978515625 66.474609375,48.8525390625 63.92578125,54.8876953125 59.9853515625,59.9853515625 54.873046875,63.9404296875 51.9543418884277,65.4052734375 48.8232421875,66.4892578125 45.5236778259277,67.159423828125 42.099609375,67.3828125 37.91015625,67.3828125 34.48974609375,67.15576171875 31.201171875,66.474609375 25.166015625,63.92578125 20.0390625,59.970703125 16.083984375,54.8583984375 13.53515625,48.837890625 12.85400390625,45.54931640625 12.626953125,42.12890625 12.6416015625,41.015625 12.65625,39.90234375 12.5537109375,38.0859375 12.216796875,36.650390625 11.572265625,35.3173828125 10.546875,33.80859375 3.720703125,24.4921875 3.0615234375,23.6279296875 2.40234375,22.763671875 0.615234375,18.92578125 0,14.736328125 0.292968392372131,11.802978515625 1.171875,9.0380859375 2.552490234375,6.52588176727295 4.3505859375,4.35058546066284 6.52587795257568,2.55249309539795 9.0380859375,1.17187523841858 11.802978515625,0.292971640825272 14.736328125,0z" />
    </g>
  </g>
</svg>