<?xml version="1.0" encoding="utf-8"?>
<!DOCTYPE svg PUBLIC "-//W3C//DTD SVG 1.1//EN" "http://www.w3.org/Graphics/SVG/1.1/DTD/svg11.dtd">
<svg width="42.1309965625406" height="67.3828125" xmlns="http://www.w3.org/2000/svg" xmlns:xlink="http://www.w3.org/1999/xlink" xmlns:xml="http://www.w3.org/XML/1998/namespace" version="1.1">
  <g>
    <g>
      <path style="fill:#FF0000;fill-opacity:1" d="M34.3212890625,35.888671875L35.7568359375,41.6015625 37.32421875,40.078125 37.9248046875,37.91015625 35.830078125,37.353515625 34.3212890625,35.888671875z M28.9892578125,23.056640625L7.95410203933716,44.091796875 6.54785203933716,49.7021484375 5.36132860183716,54.4482421875 4.89990234375,56.304931640625 4.54101610183716,57.744140625 4.31030321121216,58.6669921875 4.23339891433716,58.974609375 8.3203125,60.838623046875 12.5537109375,62.1533203125 16.8713359832764,62.9296875 21.2109375,63.1787109375 25.535888671875,62.904052734375 29.8095703125,62.109375 33.96240234375,60.79833984375 37.9248046875,58.974609375 36.27685546875,52.364501953125 34.8486328125,46.6552734375 33.621826171875,41.759033203125 32.578125,37.587890625 31.70654296875,34.105224609375 30.99609375,31.2744140625 30.4248046875,29.0075702667236 29.970703125,27.216796875 29.62646484375,25.8544940948486 29.384765625,24.873046875 29.12109375,23.73046875 29.033203125,23.3056640625 28.9892578125,23.056640625z M32.7685546875,12.626953125L32.1240234375,13.9306640625 31.5966796875,15.29296875 31.5966796875,17.6953125 31.40625,19.28466796875 30.8349609375,20.771484375 31.0986328125,22.939453125 31.5380859375,24.755859375 33.7060546875,33.427734375 33.7060546875,12.626953125 32.7685546875,12.626953125z M31.5966796875,4.21874952316284L31.5966796875,10.517578125 35.8154296875,10.517578125 35.8154296875,8.4375 35.478515625,6.796875 34.5703125,5.46386766433716 33.2373046875,4.5556640625 31.5966796875,4.21874952316284z M28.4326171875,4.21874952316284L27.3779296875,5.2734375 24.345703125,8.3056640625 20.8154296875,10.634765625 16.8896484375,12.1142578125 12.6416015625,12.626953125 11.7333984375,12.626953125 12.799072265625,15.41015625 13.359375,18.310546875 13.399658203125,21.26220703125 12.9052734375,24.19921875 12.73681640625,24.9023456573486 12.4072265625,26.25 11.942138671875,28.1286640167236 11.3671875,30.4248046875 9.9609375,36.03515625 8.3642578125,42.392578125 9.20654296875,40.27587890625 10.5615234375,38.49609375 28.1689453125,20.888671875 29.15771484375,19.43115234375 29.4873046875,17.6953125 29.4873046875,4.21874952316284 28.4326171875,4.21874952316284z M10.2392578125,4.21874952316284L9.9755859375,4.248046875 8.697509765625,4.61792278289795 7.61718797683716,5.3759765625 6.40136766433716,7.67578125 6.35742235183716,7.99804639816284 6.34277391433716,8.4228515625 6.34277391433716,9.1845703125 6.34277391433716,10.517578125 12.6416015625,10.517578125 16.6845703125,9.990234375 16.168212890625,8.44482421875 15.791015625,7.32421875 15.3515625,6.0205078125 15.205078125,5.58105516433716 15.1611328125,5.47851514816284 14.3994140625,4.5556640625 13.2275390625,4.21874952316284 11.5576171875,4.21874952316284 10.6640625,4.21874952316284 10.2392578125,4.21874952316284z M10.5322265625,0L13.2275390625,0 15.1611328125,0.307617664337158 16.875,1.15722680091858 18.251953125,2.47558546066284 19.1748046875,4.18945360183716 20.654296875,2.97363233566284 22.0458984375,1.52343761920929 23.3056640625,0 31.5966796875,0 34.892578125,0.659179925918579 37.5732421875,2.46093702316284 39.375,5.1416015625 40.0341796875,8.4375 40.0341796875,16.845703125 37.9248046875,16.845703125 37.9248046875,33.69140625 42.1142578125,33.69140625 42.1142578125,37.91015625 41.8835411071777,39.931640625 41.19140625,41.77734375 38.6865234375,44.677734375 41.9970703125,57.94921875 42.1179161071777,59.33349609375 41.77734375,60.673828125 39.8876953125,62.666015625 35.394287109375,64.73876953125 30.703125,66.2109375 25.894775390625,67.08984375 21.0498046875,67.3828125 16.20849609375,67.086181640625 11.4111328125,66.1962890625 6.73095703125,64.720458984375 2.24121141433716,62.666015625 0.366211414337158,60.673828125 0.0146485567092896,59.33349609375 0.131836414337158,57.94921875 8.8330078125,23.203125 9.228515625,20.0244140625 8.8037109375,16.845703125 2.12402391433716,16.845703125 2.12402391433716,8.4375 2.78320360183716,5.1416015625 4.58496141433716,2.46093702316284 7.26562547683716,0.659179925918579 10.5322265625,0z" />
    </g>
  </g>
</svg>