<?xml version="1.0" encoding="utf-8"?>
<!DOCTYPE svg PUBLIC "-//W3C//DTD SVG 1.1//EN" "http://www.w3.org/Graphics/SVG/1.1/DTD/svg11.dtd">
<svg width="34.16015625" height="43.41796875" xmlns="http://www.w3.org/2000/svg" xmlns:xlink="http://www.w3.org/1999/xlink" xmlns:xml="http://www.w3.org/XML/1998/namespace" version="1.1">
  <g>
    <g>
      <path style="fill:#FF0000;fill-opacity:1" d="M14.0625,0L18.3444194793701,0.362548828125 22.1960430145264,1.4501953125 25.6173686981201,3.262939453125 28.6083984375,5.80078125 31.0372924804688,8.935546875 32.772216796875,12.5390634536743 33.8131713867188,16.611328125 34.16015625,21.15234375 33.7747192382813,25.8114624023438 32.618408203125,30.032958984375 30.6912231445313,33.8168334960938 27.9931640625,37.1630859375 24.7036724090576,39.8995971679688 21.0021953582764,41.854248046875 16.8887310028076,43.0270385742188 12.36328125,43.41796875 6.05712890625,42.861328125 0.849609851837158,41.19140625 0.849609851837158,35.7421875 3.51562523841858,37.152099609375 6.416015625,38.1591796875 9.55078125,38.763427734375 12.919921875,38.96484375 16.2908916473389,38.660888671875 19.3432598114014,37.7490234375 22.0770244598389,36.229248046875 24.4921875,34.1015625 26.466064453125,31.490478515625 27.8759765625,28.5205078125 28.721923828125,25.191650390625 29.00390625,21.50390625 28.7420654296875,17.7328510284424 27.95654296875,14.3884296417236 26.6473388671875,11.4706430435181 24.814453125,8.9794921875 22.5329570770264,6.98638916015625 19.8779277801514,5.562744140625 16.8493633270264,4.70855712890625 13.447265625,4.423828125 8.85497951507568,4.91455078125 4.921875,6.38671875 4.921875,18.1640625 14.12109375,18.1640625 14.12109375,22.6171875 0,22.6171875 0,3.57421875 3.251953125,2.010498046875 6.6796875,0.8935546875 10.283203125,0.223388671875 14.0625,0z" />
    </g>
  </g>
</svg>