<?xml version="1.0" encoding="utf-8"?>
<!DOCTYPE svg PUBLIC "-//W3C//DTD SVG 1.1//EN" "http://www.w3.org/Graphics/SVG/1.1/DTD/svg11.dtd">
<svg width="38.4375" height="39.55078125" xmlns="http://www.w3.org/2000/svg" xmlns:xlink="http://www.w3.org/1999/xlink" xmlns:xml="http://www.w3.org/XML/1998/namespace" version="1.1">
  <g>
    <g>
      <path style="fill:#FF0000;fill-opacity:1" d="M2.4755859375,0L3.52981567382813,0.8349609375 4.78912353515625,1.142578125 6.02451324462891,1.2451171875 7.85659790039063,1.318359375 10.2853775024414,1.3623046875 13.3108520507813,1.376953125 28.1291198730469,1.376953125 29.3003635406494,1.3623046875 31.7017364501953,1.318359375 34.0738105773926,1.2744140625 35.1571655273438,1.259765625 36.1821556091309,1.219482421875 36.7971038818359,1.0986328125 37.67578125,0.41015625 38.4375,1.142578125 36.826171875,7.1484375 35.56640625,7.32421875 35.80078125,4.6875 34.7314453125,4.053955078125 33.1640625,3.5595703125 30.79833984375,3.240966796875 27.333984375,3.134765625 24.9023418426514,3.145751953125 23.466796875,3.1787109375 22.294921875,3.41331481933594 22.001953125,4.24896240234375 21.826171875,8.17794799804688 21.815185546875,8.85240650177002 21.7822265625,9.93736457824707 21.727294921875,11.4328203201294 21.650390625,13.3387756347656 21.6357421875,14.0947303771973 21.62109375,15.3069896697998 21.6064453125,16.9755516052246 21.591796875,19.1004180908203 21.5625,23.4948921203613 21.533203125,27.2662353515625 21.55517578125,31.0083961486816 21.62109375,33.4384918212891 21.78955078125,35.0035858154297 22.119140625,36.1507415771484 23.3642578125,37.3823547363281 24.4958477020264,37.668342590332 26.220703125,37.939453125 27.2094707489014,38.0892562866211 27.5390625,38.3106994628906 27.48046875,38.9955139160156 26.337890625,39.052734375 23.203125,38.876953125 21.4306640625,38.7451171875 20.0390625,38.701171875 13.798828125,39.228515625 12.3486318588257,39.47021484375 11.748046875,39.55078125 11.1181640625,39.345703125 10.72265625,38.583984375 11.3671875,38.408203125 12.5390625,38.115234375 14.3005361557007,37.66845703125 15.4833984375,37.265625 16.611328125,36.328125 16.845703125,34.5703125 17.080078125,31.259765625 17.083740234375,31.1077880859375 17.0947265625,30.47607421875 17.113037109375,29.3646240234375 17.138671875,27.7734375 17.18994140625,24.642333984375 17.2265625,22.5732421875 17.255859375,18.896484375 17.2531127929688,15.9851083755493 17.244873046875,13.5205097198486 17.2311401367188,11.5026865005493 17.2119140625,9.931640625 17.142333984375,7.54028463363647 17.021484375,5.7568359375 16.552734375,3.427734375 11.015625,3.193359375 8.206787109375,3.24462890625 6.1083984375,3.3984375 4.56298828125,3.66943359375 3.41308641433716,4.072265625 2.0654296875,5.126953125 1.600341796875,5.93994140625 0.996093690395355,7.20703125 0,6.97265625 2.4755859375,0z" />
    </g>
  </g>
</svg>