<?xml version="1.0" encoding="utf-8"?>
<!DOCTYPE svg PUBLIC "-//W3C//DTD SVG 1.1//EN" "http://www.w3.org/Graphics/SVG/1.1/DTD/svg11.dtd">
<svg width="37.6171875" height="38.701171875" xmlns="http://www.w3.org/2000/svg" xmlns:xlink="http://www.w3.org/1999/xlink" xmlns:xml="http://www.w3.org/XML/1998/namespace" version="1.1">
  <g>
    <g>
      <path style="fill:#FF0000;fill-opacity:1" d="M22.32421875,0L25.4150390625,0.205078125 28.0078125,0.6591796875 28.9233379364014,0.875244140625 29.443359375,1.025390625 30.4833984375,1.44287109375 31.083984375,1.58203125 32.30712890625,0.59326171875 32.87109375,0.263671875 33.1787109375,0.5419921875 33.28125,1.376953125 33.380126953125,2.7099609375 33.6767578125,5.009765625 33.973388671875,7.35351705551147 34.072265625,8.818359375 33.720703125,9.2578125 33.3837890625,9.169921875 33.10546875,8.583984375 31.549072265625,6.14135837554932 29.0478515625,3.8525390625 25.5358867645264,2.193603515625 20.947265625,1.640625 16.3623046875,2.252197265625 12.333984375,4.0869140625 9.0234375,6.92138767242432 6.591796875,10.5322265625 5.09765577316284,14.593505859375 4.599609375,18.779296875 4.88159132003784,21.837158203125 5.7275390625,24.9755859375 7.1484375,28.06640625 9.1552734375,30.9814453125 11.7041006088257,33.519287109375 14.7509765625,35.478515625 18.211669921875,36.73095703125 22.001953125,37.1484375 25.0891094207764,36.9140625 27.6708984375,36.2109375 29.593505859375,35.2880859375 30.703125,34.39453125 31.11328125,33.10546875 31.17919921875,31.53076171875 31.201171875,28.564453125 31.131591796875,25.5322265625 30.9228515625,23.583984375 30.450439453125,22.412109375 29.58984375,21.708984375 28.1249980926514,21.357421875 25.83984375,21.240234375 23.994140625,21.357421875 24.111328125,20.09765625 31.6259765625,19.9951171875 34.859619140625,19.881591796875 37.6171875,19.6875 37.6171875,20.80078125 36.683349609375,21.1332893371582 36.1669921875,21.3709259033203 35.625,22.1749877929688 35.4345703125,23.1985473632813 35.361328125,25.1284790039063 35.33935546875,26.9780731201172 35.33203125,29.9533081054688 35.361328125,32.1829032897949 35.44921875,33.6669158935547 35.8154296875,35.2020263671875 36.650390625,36.123046875 36.357421875,36.796875 35.9271240234375,36.85546875 35.10498046875,37.001953125 33.8909912109375,37.236328125 32.28515625,37.55859375 27.685546875,38.2763671875 25.7080059051514,38.50341796875 24.169921875,38.6279296875 21.064453125,38.701171875 15.99609375,38.28369140625 11.630859375,37.03125 7.96875,35.064697265625 5.009765625,32.5048828125 2.75390625,29.52392578125 1.201171875,26.2939453125 0.30029296875,22.921142578125 0,19.51171875 0.457763731479645,15.223388671875 1.83105516433716,11.3232421875 3.9990234375,7.91015768051147 6.8408203125,5.0830078125 10.2319326400757,2.86376953125 14.0478515625,1.2744140625 18.131103515625,0.318603515625 22.32421875,0z" />
    </g>
  </g>
</svg>