<?xml version="1.0" encoding="utf-8"?>
<!DOCTYPE svg PUBLIC "-//W3C//DTD SVG 1.1//EN" "http://www.w3.org/Graphics/SVG/1.1/DTD/svg11.dtd">
<svg width="42.36328125" height="38.935546875" xmlns="http://www.w3.org/2000/svg" xmlns:xlink="http://www.w3.org/1999/xlink" xmlns:xml="http://www.w3.org/XML/1998/namespace" version="1.1">
  <g>
    <g>
      <path style="fill:#FF0000;fill-opacity:1" d="M0.146484375,0L2.51953101158142,0.05859375 7.32421875,0.234375 8.5546875,0.1904296875 10.224609375,0.17578125 13.154296875,0.234375 13.212890625,1.171875 11.129150390625,1.34765625 10.0341796875,1.5234375 9.43359375,2.255859375 9.73789215087891,3.61083984375 10.6507873535156,6.09375 12.0073118209839,9.37133979797363 13.6425018310547,13.1103515625 15.1713752746582,16.527099609375 16.2089538574219,18.837890625 20.3150939941406,27.65625 21.1363220214844,29.326171875 21.8475723266602,30.8056640625 22.3388671875,31.845703125 23.4286880493164,29.827880859375 24.7087097167969,27.2900390625 27.2980499267578,21.884765625 28.2380084991455,19.86328125 28.6294555664063,19.013671875 32.4618530273438,10.60546875 34.1455078125,6.5771484375 34.771728515625,4.705810546875 34.98046875,3.45703125 34.779052734375,2.5946044921875 34.1748046875,1.94091796875 33.167724609375,1.4959716796875 31.7578125,1.259765625 31.93359375,0.05859375 38.84765625,0.3515625 40.517578125,0.3076171875 42.36328125,0.29296875 42.36328125,1.11328125 40.67138671875,1.783447265625 39.462890625,2.5048828125 38.49609375,3.475341796875 37.529296875,4.892578125 36.9598388671875,5.90698289871216 36.21826171875,7.30957126617432 35.3045654296875,9.10034275054932 34.21875,11.279296875 27.6365661621094,24.404296875 23.9339447021484,32.373046875 22.4879264831543,36.15234375 21.8106079101563,38.818359375 20.8973693847656,38.935546875 19.4023132324219,35.2734375 17.4092102050781,30.87890625 16.3389587402344,28.3154296875 14.9464416503906,25.3125 10.0218200683594,14.912109375 7.56863594055176,9.87670993804932 5.66150665283203,6.10839939117432 4.3004322052002,3.60717797279358 3.48541259765625,2.373046875 2.05032348632813,1.3623046875 0,1.0546875 0.146484375,0z" />
    </g>
  </g>
</svg>