<?xml version="1.0" encoding="utf-8"?>
<!DOCTYPE svg PUBLIC "-//W3C//DTD SVG 1.1//EN" "http://www.w3.org/Graphics/SVG/1.1/DTD/svg11.dtd">
<svg width="12.3632812500002" height="36.298828125" xmlns="http://www.w3.org/2000/svg" xmlns:xlink="http://www.w3.org/1999/xlink" xmlns:xml="http://www.w3.org/XML/1998/namespace" version="1.1">
  <g>
    <g>
      <path style="fill:#FF0000;fill-opacity:1" d="M4.5849609375,28.740234375L5.32905578613281,29.1927337646484 5.57693481445313,29.8786926269531 6.62738800048828,31.0970306396484 7.50274658203125,31.7756652832031 8.13034057617188,32.1551513671875 8.232421875,32.6220703125 7.7362060546875,33.3279418945313 6.59843444824219,34.0633392333984 5.40206909179688,35.6222534179688 4.5849609375,36.298828125 3.67309498786926,35.6813049316406 2.67333960533142,34.2253875732422 1.4378354549408,33.3283996582031 0.937957286834717,32.9754638671875 0.791015148162842,32.5048828125 0.982131481170654,32.0743560791016 1.55548071861267,31.600341796875 2.76134467124939,30.6662750244141 3.7907407283783,29.2071533203125 4.5849609375,28.740234375z M1.37695288658142,0L1.87133765220642,1.44287109375 2.41699194908142,2.197265625 3.22631812095642,2.55615234375 4.51171875,2.8125 7.236328125,3.63281321525574 9.84375,5.390625 11.7333974838257,8.13720893859863 12.36328125,11.923828125 12.0629873275757,14.827880859375 11.162109375,17.5048828125 9.66064357757568,19.779052734375 7.55859375,21.474609375 6.507568359375,22.166748046875 5.9326171875,22.7197265625 5.628662109375,23.551025390625 5.390625,25.078125 5.2587890625,26.0009765625 4.8046875,26.162109375 4.34326076507568,25.96435546875 4.189453125,25.37109375 4.51171875,20.21484375 4.9658203125,19.0576171875 5.75317335128784,18.775634765625 7.265625,18.427734375 8.67919921875,18.017578125 9.638671875,17.431640625 10.5322265625,15.8203125 10.6530752182007,14.6484375 10.693359375,13.0078125 9.9609375,9.7705078125 8.9501953125,8.58398628234863 7.3828125,7.6318359375 5.24414014816284,6.92505025863647 2.51953053474426,6.474609375 0.64453125,6.1083984375 0,5.15625 0.366210758686066,3.41308665275574 0.52734375,2.51953125 0.556640148162842,1.494140625 0.52734375,0.05859375 1.37695288658142,0z" />
    </g>
  </g>
</svg>