<?xml version="1.0" encoding="utf-8"?>
<!DOCTYPE svg PUBLIC "-//W3C//DTD SVG 1.1//EN" "http://www.w3.org/Graphics/SVG/1.1/DTD/svg11.dtd">
<svg width="39.9609375" height="38.3203125" xmlns="http://www.w3.org/2000/svg" xmlns:xlink="http://www.w3.org/1999/xlink" xmlns:xml="http://www.w3.org/XML/1998/namespace" version="1.1">
  <g>
    <g>
      <path style="fill:#FF0000;fill-opacity:1" d="M0.849609136581421,0L4.189453125,0.263671875 8.291015625,0.3515625 11.6088857650757,0.3076171875 14.12109375,0.17578125 14.296875,1.318359375 12.9510498046875,1.38427734375 11.98974609375,1.58203125 11.4129638671875,1.91162109375 11.220703125,2.373046875 11.4150810241699,3.10157775878906 11.9982147216797,4.17388916015625 13.7880706787109,6.77925109863281 15.7978820800781,9.45785522460938 21.1070251464844,16.0812377929688 23.2517185211182,13.2118043899536 25.0230197906494,10.7970447540283 26.4209308624268,8.83695697784424 27.4454498291016,7.33154296875 28.7021808624268,5.0555419921875 29.12109375,3.33984375 28.8684062957764,2.26318359375 28.1103515625,1.611328125 26.8762187957764,1.25244140625 25.1953125,1.0546875 25.3125,0.05859375 26.3305644989014,0.087890625 28.505859375,0.17578125 30.7104473114014,0.263671875 31.81640625,0.29296875 37.880859375,0.29296875 37.880859375,1.259765625 35.390625,1.8017578125 33.45703125,3.0029296875 31.2746429443359,5.30250549316406 29.8137454986572,7.08944463729858 27.9208374023438,9.46243286132813 25.6361389160156,12.4795532226563 23.6439514160156,15.1744079589844 22.7799224853516,16.3462829589844 22.0330810546875,17.3130798339844 31.8777465820313,30.4083251953125 33.9559364318848,33.1207466125488 35.3867340087891,34.8676300048828 36.4173316955566,35.9137916564941 37.294921875,36.5240478515625 38.3326721191406,36.8909454345703 39.84375,37.20703125 39.9609375,38.3203125 37.32421875,38.203125 33.369140625,38.0859375 30.1757793426514,38.14453125 26.162109375,38.3203125 25.986328125,37.20703125 27.5793437957764,36.877613067627 28.7255859375,36.5265655517578 29.4177227020264,36.0887718200684 29.6484375,35.4991149902344 29.066162109375,33.5856628417969 27.8727722167969,31.5440368652344 26.0741882324219,29.0738010406494 24.6092586517334,27.0793533325195 23.4779815673828,25.5606937408447 22.6803588867188,24.517822265625 19.5121765136719,20.5068969726563 18.3842182159424,21.8582725524902 16.7288589477539,23.9788055419922 14.5460987091064,26.8684959411621 11.8359375,30.52734375 10.107421875,33.1787109375 9.55078125,34.892578125 9.83642578125,35.89599609375 10.693359375,36.5625 13.623046875,37.294921875 13.623046875,38.3203125 11.484375,38.232421875 8.935546875,38.203125 7.03125,38.14453125 6.50024366378784,38.155517578125 5.2001953125,38.1884765625 1.8310546875,38.2763671875 0.531005859375,38.309326171875 0,38.3203125 0.0585936903953552,37.412109375 2.26318359375,36.859130859375 4.189453125,35.9033203125 5.98726224899292,34.519214630127 7.80647277832031,32.6813507080078 10.0132942199707,30.0492668151855 12.9739379882813,26.2825012207031 16.4291381835938,21.8312072753906 17.1464538574219,20.9671783447266 18.0393218994141,19.7518157958984 18.4785461425781,19.1368103027344 15.7154846191406,15.7159423828125 12.0020484924316,10.9386081695557 9.22416687011719,7.45925903320313 7.13636350631714,4.99958038330078 5.4931640625,3.28125 4.19677734375,2.171630859375 3.1494140625,1.5380859375 0.79101550579071,0.99609375 0.849609136581421,0z" />
    </g>
  </g>
</svg>