<?xml version="1.0" encoding="utf-8"?>
<!DOCTYPE svg PUBLIC "-//W3C//DTD SVG 1.1//EN" "http://www.w3.org/Graphics/SVG/1.1/DTD/svg11.dtd">
<svg width="36.591796875" height="40.078125" xmlns="http://www.w3.org/2000/svg" xmlns:xlink="http://www.w3.org/1999/xlink" xmlns:xml="http://www.w3.org/XML/1998/namespace" version="1.1">
  <g>
    <g>
      <path style="fill:#FF0000;fill-opacity:1" d="M2.51953101158142,0L2.958984375,0.2984619140625 3.75732421875,1.05262756347656 5.0390625,1.40350341796875 6.95800828933716,1.58798217773438 9.2431640625,1.64657592773438 10.946044921875,1.66408538818359 13.505859375,1.669921875 35.33203125,1.376953125 35.33203125,1.904296875 33.409423828125,4.442138671875 31.9189453125,6.3720703125 28.828125,10.2685546875 27.2058086395264,12.2900409698486 25.9716796875,13.8134765625 25.1257305145264,14.849853515625 24.66796875,15.41015625 18.134765625,23.701171875 17.34375,24.66796875 15.849609375,26.630859375 14.1064453125,28.7255859375 11.9970703125,31.376953125 9.755859375,34.21875 7.3828125,37.119140625 10.7080078125,37.53662109375 15.1171875,37.67578125 18.4158325195313,37.650146484375 21.221923828125,37.5732421875 23.5354614257813,37.445068359375 25.3564453125,37.265625 31.259765625,35.7421875 32.9150390625,34.932861328125 34.072265625,34.0283203125 34.9365234375,32.816162109375 35.712890625,31.083984375 36.591796875,31.611328125 35.9033203125,33.2958984375 34.833984375,35.947265625 33.779296875,38.54736328125 33.134765625,40.078125 32.578125,40.01953125 32.2119140625,39.569091796875 31.23046875,39.2724609375 30.3186016082764,39.1763305664063 28.8720684051514,39.107666015625 26.8908672332764,39.0664672851563 24.375,39.052734375 9.2578125,39.052734375 0,39.404296875 0.0439451485872269,39.08203125 0.0585941225290298,38.701171875 7.74993896484375,30.3515625 11.4344787597656,26.063232421875 14.7235107421875,22.0458984375 17.9905700683594,17.852783203125 21.6091918945313,13.037109375 28.450927734375,3.3984375 23.4551239013672,3.22265625 17.2288513183594,3.1640625 14.2300701141357,3.18695068359375 11.6799545288086,3.255615234375 9.57850456237793,3.37005615234375 7.92572021484375,3.5302734375 5.42776107788086,4.083251953125 3.64769005775452,5.009765625 2.28155136108398,6.4892578125 1.02539098262787,8.701171875 0.175781175494194,8.26171875 0.834960758686066,6.0205078125 1.24511730670929,4.3505859375 1.43554675579071,3.544921875 2.05078101158142,0.703125 2.22656226158142,0.17578125 2.51953101158142,0z" />
    </g>
  </g>
</svg>