<?xml version="1.0" encoding="utf-8"?>
<!DOCTYPE svg PUBLIC "-//W3C//DTD SVG 1.1//EN" "http://www.w3.org/Graphics/SVG/1.1/DTD/svg11.dtd">
<svg width="33.2519531250001" height="38.935546875" xmlns="http://www.w3.org/2000/svg" xmlns:xlink="http://www.w3.org/1999/xlink" xmlns:xml="http://www.w3.org/XML/1998/namespace" version="1.1">
  <g>
    <g>
      <path style="fill:#FF0000;fill-opacity:1" d="M21.240234375,0L25.2392559051514,0.35888671875 29.091796875,1.435546875 30.6298828125,1.85302734375 31.728515625,1.9921875 32.3291015625,1.875 32.8125,1.81640625 33.193359375,2.05078125 32.75390625,3.720703125 32.17529296875,6.21826267242432 31.669921875,9.31640625 30.966796875,8.9501953125 30.791015625,8.056640625 30.63720703125,6.50390720367432 30.29296875,5.537109375 28.90869140625,4.2333984375 26.337890625,2.900390625 23.1665019989014,1.8896484375 19.98046875,1.552734375 15.963134765625,2.076416015625 12.3486328125,3.6474609375 9.29443359375,6.22924900054932 6.9580078125,9.78515625 5.47485303878784,14.1796894073486 4.98046875,19.27734375 5.41625928878784,23.939208984375 6.7236328125,27.9052734375 8.6865234375,31.146240234375 11.0888671875,33.6328125 13.73291015625,35.44921875 16.4208984375,36.6796875 18.951416015625,37.3828125 21.123046875,37.6171875 24.0161113739014,37.357177734375 26.3671875,36.5771484375 28.2238750457764,35.4345703125 29.6337890625,34.0869140625 31.93359375,30.615234375 32.34375,29.97802734375 32.6953125,29.765625 33.251953125,30.29296875 33.11279296875,31.0693359375 32.6953125,32.63671875 32.5616455078125,33.050537109375 32.30712890625,33.9111328125 31.9317626953125,35.218505859375 31.435546875,36.97265625 25.693359375,38.4228515625 20.09765625,38.935546875 16.46484375,38.61328125 12.83203125,37.646484375 9.38232421875,36.046142578125 6.298828125,33.8232421875 3.69873046875,31.0107421875 1.69921851158142,27.6416015625 0.424804478883743,23.741455078125 0,19.3359375 0.196838244795799,16.2670917510986 0.787353277206421,13.4472675323486 1.77154517173767,10.8764657974243 3.14941382408142,8.5546875 6.73095655441284,4.73876953125 11.1767578125,2.080078125 16.131591796875,0.52001953125 21.240234375,0z" />
    </g>
  </g>
</svg>