<?xml version="1.0" encoding="utf-8"?>
<!DOCTYPE svg PUBLIC "-//W3C//DTD SVG 1.1//EN" "http://www.w3.org/Graphics/SVG/1.1/DTD/svg11.dtd">
<svg width="43.740234375" height="38.642578125" xmlns="http://www.w3.org/2000/svg" xmlns:xlink="http://www.w3.org/1999/xlink" xmlns:xml="http://www.w3.org/XML/1998/namespace" version="1.1">
  <g>
    <g>
      <path style="fill:#FF0000;fill-opacity:1" d="M31.025390625,0L33.720703125,0.322265625 37.55859375,0.498046875 38.583984375,0.46875 40.60546875,0.380859375 42.66357421875,0.29296875 43.564453125,0.263671875 43.681640625,1.083984375 43.125,1.259765625 41.30859375,2.021484375 40.4150390625,3.5009765625 40.048828125,5.80078125 40.0030517578125,6.67602634429932 39.95361328125,8.01269721984863 39.9005126953125,9.81079196929932 39.84375,12.0703125 39.580078125,25.576171875 39.5333862304688,28.1634521484375 39.539794921875,30.35888671875 39.5993041992188,32.1624755859375 39.7119140625,33.57421875 40.12939453125,35.5810546875 40.8251953125,36.73828125 41.971435546875,37.34619140625 43.740234375,37.705078125 43.681640625,38.583984375 40.83984375,38.232421875 38.37890625,38.173828125 37.236328125,38.203125 34.86328125,38.291015625 32.76123046875,38.4228515625 31.201171875,38.466796875 31.083984375,37.44140625 32.783203125,37.12646484375 33.896484375,36.650390625 34.98046875,34.86328125 35.2001953125,33.18603515625 35.33203125,30.615234375 35.5078125,23.96484375 35.44921875,20.126953125 32.197265625,19.98046875 15.46875,19.86328125 9.111328125,19.921875 9.034423828125,21.8463134765625 8.9794921875,24.19189453125 8.946533203125,26.9586181640625 8.935546875,30.146484375 8.95751953125,32.069091796875 9.0234375,33.5888671875 9.13330078125,34.705810546875 9.287109375,35.419921875 9.7998046875,36.357421875 11.015625,37.0458984375 12.0922842025757,37.364501953125 13.623046875,37.705078125 13.564453125,38.642578125 12.7185049057007,38.59130859375 11.4111328125,38.49609375 8.4375,38.3056640625 5.859375,38.232421875 3.57421875,38.3056640625 0.41015625,38.525390625 0,37.412109375 2.49755859375,36.9218444824219 3.77929735183716,36.1532592773438 4.0155029296875,35.4845085144043 4.22607421875,34.1809272766113 4.4110107421875,32.2425117492676 4.5703125,29.6692657470703 4.7900390625,24.2794990539551 4.86328125,19.6728515625 4.921875,10.0126647949219 4.852294921875,6.61697483062744 4.6435546875,4.33364868164063 4.215087890625,2.89558410644531 3.48632860183716,2.03567504882813 2.35107398033142,1.59290313720703 0.70312488079071,1.40625 0.76171863079071,0.439453125 3.72070360183716,0.146484375 4.6875,0.17578125 6.767578125,0.263671875 8.54736328125,0.3955078125 9.90234375,0.439453125 14.150390625,0.380859375 14.208984375,1.40625 12.65625,1.640625 11.4257802963257,1.86767578125 10.6640625,2.138671875 9.8876953125,3.3251953125 9.627685546875,4.683837890625 9.345703125,6.97265625 9.1259765625,9.85107612609863 9.052734375,13.212890625 9.0673828125,15.87890625 9.111328125,17.900390625 22.96875,17.900390625 26.5594482421875,17.8985595703125 29.39208984375,17.89306640625 31.4666748046875,17.8839111328125 32.783203125,17.87109375 34.40185546875,17.80517578125 35.5078125,17.666015625 35.56640625,11.495361328125 35.5599975585938,9.21506977081299 35.540771484375,7.40455722808838 35.5087280273438,6.06382417678833 35.4638671875,5.19287109375 35.0390625,3.218994140625 33.984375,1.94664001464844 32.841796875,1.57018661499023 30.87890625,1.11328125 31.025390625,0z" />
    </g>
  </g>
</svg>