<?xml version="1.0" encoding="utf-8"?>
<!DOCTYPE svg PUBLIC "-//W3C//DTD SVG 1.1//EN" "http://www.w3.org/Graphics/SVG/1.1/DTD/svg11.dtd">
<svg width="25.7226562500001" height="39.345703125" xmlns="http://www.w3.org/2000/svg" xmlns:xlink="http://www.w3.org/1999/xlink" xmlns:xml="http://www.w3.org/XML/1998/namespace" version="1.1">
  <g>
    <g>
      <path style="fill:#FF0000;fill-opacity:1" d="M11.630859375,2.109375L9.591064453125,2.40966796875 7.7490234375,3.310546875 6.17797803878784,4.76806640625 4.951171875,6.73828125 4.16015577316284,9.13330078125 3.89648413658142,11.865234375 4.19677686691284,14.549560546875 5.09765625,16.9189453125 6.50390625,18.870849609375 8.3203125,20.302734375 10.3857412338257,21.181640625 12.5390625,21.474609375 15.5126953125,21.0205078125 17.98828125,19.74609375 18.10546875,17.021484375 18.22265625,11.806640625 18.2080078125,8.9007568359375 18.1640625,6.77490234375 18.0908203125,5.4290771484375 17.98828125,4.86328125 17.1533203125,3.988037109375 15.52734375,3.0615234375 13.54248046875,2.347412109375 11.630859375,2.109375z M22.67578125,0L23.0859375,0.29296875 22.79296875,1.201171875 22.1044921875,4.0283203125 21.9323711395264,6.024169921875 21.796875,9.052734375 21.68701171875,13.13232421875 21.591796875,18.28125 21.591796875,28.18359375 21.650390625,32.28515625 21.683349609375,33.984375 21.7236328125,35.2734375 21.8701171875,36.9140625 22.119140625,37.6171875 22.5622539520264,37.705078125 23.6572265625,37.8515625 24.8840312957764,38.0126953125 25.72265625,38.14453125 25.72265625,39.111328125 24.5361309051514,39.0673828125 22.8515625,39.052734375 22.2106914520264,39.06005859375 21.1669902801514,39.08203125 19.7204570770264,39.11865234375 17.87109375,39.169921875 15.21240234375,39.3017578125 13.564453125,39.345703125 13.447265625,38.349609375 14.981689453125,38.115234375 16.0693359375,37.763671875 17.2998046875,36.4306640625 17.60009765625,35.302734375 17.7685546875,33.7646484375 17.845458984375,31.483154296875 17.87109375,28.125 17.87109375,21.474609375 14.560546875,22.5 12.1508779525757,23.13720703125 10.13671875,23.349609375 7.532958984375,23.00537109375 5.1123046875,21.97265625 3.01757788658142,20.33935546875 1.3916015625,18.193359375 0.347900211811066,15.69580078125 0,13.0078125 0.512695074081421,9.60205078125 2.05078053474426,6.533203125 4.39819240570068,3.955078125 7.3388671875,2.021484375 10.6457509994507,0.81298828125 14.091796875,0.41015625 16.32568359375,0.62255859375 18.28125,1.259765625 19.98046875,1.904296875 20.474853515625,1.666259765625 21.3720703125,0.9521484375 22.2473125457764,0.238037109375 22.67578125,0z" />
    </g>
  </g>
</svg>