<?xml version="1.0" encoding="utf-8"?>
<!DOCTYPE svg PUBLIC "-//W3C//DTD SVG 1.1//EN" "http://www.w3.org/Graphics/SVG/1.1/DTD/svg11.dtd">
<svg width="22.705078125" height="40.3125" xmlns="http://www.w3.org/2000/svg" xmlns:xlink="http://www.w3.org/1999/xlink" xmlns:xml="http://www.w3.org/XML/1998/namespace" version="1.1">
  <g>
    <g>
      <path style="fill:#FF0000;fill-opacity:1" d="M17.666015625,0L21.03515625,0.607223510742188 22.2875957489014,1.2700080871582 22.705078125,2.04391479492188 22.060546875,3.45428466796875 21.4306640625,4.15946960449219 20.830078125,4.39453125 18.486328125,3.57421875 16.28173828125,2.89306640625 14.58984375,2.666015625 12.5024404525757,3.00230026245117 10.869140625,4.01115417480469 9.63134765625,5.87533950805664 8.73046875,8.77761840820313 8.15185546875,12.8641910552979 7.880859375,18.28125 15.849609375,18.28125 15.849609375,20.15625 7.880859375,20.21484375 7.763671875,28.564453125 7.78564453125,32.93701171875 7.8515625,35.9765625 8.02001953125,37.85888671875 8.349609375,38.759765625 9.228515625,39.0234375 10.4296875,39.08935546875 12.802734375,39.169921875 12.802734375,40.3125 10.4699697494507,40.26123046875 6.9287109375,40.224609375 3.12377905845642,40.20263671875 0,40.1953125 0,39.228515625 1.35864222049713,39.085693359375 2.32910132408142,38.8330078125 3.47167944908142,37.7490234375 3.94042944908142,35.5224609375 4.017333984375,33.775634765625 4.04296875,31.435546875 4.1015625,21.650390625 4.04296875,20.82275390625 3.86718678474426,20.44921875 2.67333960533142,20.185546875 0.205077648162842,20.09765625 0.205077648162842,18.33984375 4.1015625,18.28125 4.3359375,13.7109394073486 4.98046875,10.1953125 6.02050733566284,7.4853515625 7.44140625,5.33203125 10.6640625,2.5927734375 14.501953125,0.673828125 17.666015625,0z" />
    </g>
  </g>
</svg>