<?xml version="1.0" encoding="utf-8"?>
<!DOCTYPE svg PUBLIC "-//W3C//DTD SVG 1.1//EN" "http://www.w3.org/Graphics/SVG/1.1/DTD/svg11.dtd">
<svg width="9.521484375" height="53.994140625" xmlns="http://www.w3.org/2000/svg" xmlns:xlink="http://www.w3.org/1999/xlink" xmlns:xml="http://www.w3.org/XML/1998/namespace" version="1.1">
  <g>
    <g>
      <path style="fill:#FF0000;fill-opacity:1" d="M8.525390625,13.095703125L8.994140625,13.5072326660156 8.44482421875,16.3928604125977 8.26171875,20.4794311523438 8.26171875,29.6493530273438 8.37890625,39.7270202636719 8.360595703125,42.2721862792969 8.1884765625,44.1069030761719 7.730712890625,45.5643653869629 6.85546827316284,46.9777679443359 5.37597560882568,48.563289642334 3.10546875,50.537109375 2.09838819503784,51.43798828125 1.53808569908142,52.1484375 1.02539038658142,53.935546875 0.878906071186066,53.994140625 0,53.1742858886719 0.585936844348907,50.7302856445313 2.197265625,48.2565307617188 3.32519483566284,46.5662956237793 4.07226514816284,45.0075531005859 4.74609375,41.5239715576172 4.83398389816284,38.8820457458496 4.86328077316284,34.9374389648438 4.74609375,26.4777374267578 4.57763624191284,23.067569732666 4.30664014816284,20.9161376953125 3.61816358566284,19.1304016113281 2.197265625,18.515625 1.66259729862213,18.5888671875 0.644530832767487,18.80859375 0.234374344348907,17.9150390625 4.76806545257568,15.7257843017578 8.525390625,13.095703125z M7.26562452316284,0L8.3935546875,0.2783203125 9.228515625,1.083984375 9.521484375,2.16796875 9.320068359375,3.043212890625 8.7158203125,3.8525390625 7.855224609375,4.434814453125 6.88476514816284,4.62890625 5.34667921066284,4.0576171875 4.74609375,2.578125 4.93652296066284,1.5234375 5.50781154632568,0.703125 7.26562452316284,0z" />
    </g>
  </g>
</svg>