<?xml version="1.0" encoding="utf-8"?>
<!DOCTYPE svg PUBLIC "-//W3C//DTD SVG 1.1//EN" "http://www.w3.org/Graphics/SVG/1.1/DTD/svg11.dtd">
<svg width="24.140625" height="38.37890625" xmlns="http://www.w3.org/2000/svg" xmlns:xlink="http://www.w3.org/1999/xlink" xmlns:xml="http://www.w3.org/XML/1998/namespace" version="1.1">
  <g>
    <g>
      <path style="fill:#FF0000;fill-opacity:1" d="M15.17578125,0L18.43505859375,0.263671875 21.240234375,0.3515625 22.91748046875,0.3076171875 24.140625,0.17578125 24.08203125,1.142578125 22.6611328125,1.7431640625 21.4892578125,3.0908203125 20.3036499023438,5.2734375 17.1153259277344,11.865234375 16.9543933868408,12.191162109375 16.5301895141602,13.0224609375 15.8427143096924,14.359130859375 14.8919677734375,16.201171875 12.1548261642456,21.7236328125 10.2028656005859,25.986328125 8.85160446166992,29.3115234375 7.91656494140625,32.021484375 7.13401746749878,34.81201171875 6.240234375,38.37890625 0,38.37890625 0,37.3828125 1.74522399902344,36.822509765625 3.10913109779358,36.0205078125 5.22102355957031,33.5009765625 6.27702665328979,31.497802734375 7.5677490234375,28.681640625 9.85565185546875,23.583984375 8.24821472167969,17.666015625 6.7730712890625,12.509765625 5.40069580078125,8.18115234375 4.1015625,4.74609375 3.511962890625,3.416748046875 2.9150390625,2.4755859375 1.80175817012787,1.5380859375 0.263671725988388,1.142578125 0.263671725988388,0.234375 1.98486328125,0.3662109375 4.27734375,0.41015625 10.283203125,0.05859375 10.1953125,1.142578125 8.466796875,1.6845703125 7.939453125,2.87109375 8.01846027374268,3.779296875 8.2554817199707,5.09765625 8.65051746368408,6.826171875 9.20356750488281,8.96484375 12.2021484375,18.28125 14.1316223144531,14.82421875 15.505542755127,12.2314453125 17.1132659912109,8.7890625 18.4067344665527,5.52978515625 18.837890625,3.486328125 18.5833740234375,2.5579833984375 17.81982421875,1.82373046875 16.5472412109375,1.2835693359375 14.765625,0.9375 15.17578125,0z" />
    </g>
  </g>
</svg>