<?xml version="1.0" encoding="utf-8"?>
<!DOCTYPE svg PUBLIC "-//W3C//DTD SVG 1.1//EN" "http://www.w3.org/Graphics/SVG/1.1/DTD/svg11.dtd">
<svg width="26.455078125" height="40.37109375" xmlns="http://www.w3.org/2000/svg" xmlns:xlink="http://www.w3.org/1999/xlink" xmlns:xml="http://www.w3.org/XML/1998/namespace" version="1.1">
  <g>
    <g>
      <path style="fill:#FF0000;fill-opacity:1" d="M7.67578077316284,0L8.5546875,0 8.2470703125,1.512451171875 7.96874952316284,3.9404296875 7.73071241378784,7.23632907867432 7.54394483566284,11.3525390625 7.41210889816284,15.5529804229736 7.33886671066284,19.1015625 7.30590772628784,21.708984375 7.29492139816284,23.0859375 7.23632764816284,27.099609375 8.184814453125,26.60888671875 9.8583984375,25.546875 13.447265625,22.7490234375 14.6118154525757,21.434326171875 15,20.390625 14.4580078125,19.39453125 12.83203125,19.013671875 12.83203125,18.1640625 15.52734375,18.22265625 16.92626953125,18.2666015625 19.423828125,18.28125 21.38671875,18.2666015625 24.287109375,18.22265625 24.169921875,19.3359375 20.6982421875,20.2132415771484 18.724365234375,21.2398338317871 16.0546875,22.91015625 11.015625,26.279296875 11.8450918197632,27.1080207824707 13.3959951400757,28.6260223388672 15.6683340072632,30.8333015441895 18.662109375,33.7298583984375 21.632080078125,36.566219329834 23.6279296875,38.1520843505859 26.455078125,39.345703125 26.455078125,40.37109375 25.5908203125,40.2685546875 24.7998046875,40.2099609375 24.2468242645264,40.198974609375 23.26171875,40.1953125 20.9765625,40.1953125 18.10546875,40.2392578125 15.8203125,40.37109375 15.8203125,39.345703125 16.8017578125,39.169921875 17.841796875,38.9794921875 18.22265625,38.701171875 17.98828125,38.199462890625 17.28515625,37.2802734375 15.76171875,35.56640625 11.396484375,31.259765625 9.462890625,29.501953125 8.5986328125,28.7255859375 7.73437452316284,28.18359375 7.36083936691284,28.43994140625 7.23632764816284,29.208984375 7.23632764816284,32.34375 7.24731397628784,34.705810546875 7.28027296066284,36.2841796875 7.47070264816284,38.0419921875 7.96874952316284,38.759765625 9.0234375,39.052734375 10.78125,39.345703125 10.72265625,40.37109375 7.00195264816284,40.13671875 0,40.37109375 0,39.404296875 2.05078101158142,38.9797210693359 3.01757764816284,38.1893920898438 3.45703101158142,36.6526794433594 3.63281226158142,33.8644981384277 3.74999976158142,30.0080108642578 3.89648413658142,21.2118530273438 3.94042944908142,17.2784042358398 3.95507788658142,14.2890930175781 3.92028784751892,11.3051614761353 3.81591773033142,8.88107395172119 3.64196753501892,7.0168309211731 3.39843726158142,5.71243286132813 2.84912061691284,4.76795196533203 2.021484375,4.453125 0.981445014476776,4.658203125 0.117187023162842,5.009765625 0.175781190395355,4.0283203125 0.893554151058197,3.63143920898438 1.7138671875,3.21968078613281 2.6220703125,2.79327392578125 3.72070288658142,2.29339599609375 5.31738185882568,1.58414840698242 6.41601467132568,1.04393005371094 7.67578077316284,0z" />
    </g>
  </g>
</svg>