<?xml version="1.0" encoding="utf-8"?>
<!DOCTYPE svg PUBLIC "-//W3C//DTD SVG 1.1//EN" "http://www.w3.org/Graphics/SVG/1.1/DTD/svg11.dtd">
<svg width="41.89453125" height="22.8515625" xmlns="http://www.w3.org/2000/svg" xmlns:xlink="http://www.w3.org/1999/xlink" xmlns:xml="http://www.w3.org/XML/1998/namespace" version="1.1">
  <g>
    <g>
      <path style="fill:#FF0000;fill-opacity:1" d="M7.001953125,0L7.474365234375,0.380859375 7.7197265625,1.5234375 7.734375,4.189453125 8.587646484375,3.717041015625 9.9169921875,3.0029296875 12.3779296875,1.7431640625 14.677734375,0.8642578125 17.138671875,0.41015625 18.651123046875,0.626220703125 20.1416015625,1.2744140625 21.390380859375,2.420654296875 22.177734375,4.130859375 27.2411708831787,1.9775390625 31.5705871582031,1.259765625 34.0069770812988,1.57470703125 35.6801605224609,2.51953125 36.7185401916504,3.958740234375 37.2505187988281,5.7568359375 37.459602355957,8.170166015625 37.529296875,11.455078125 37.529296875,16.669921875 37.470703125,18.570556640625 37.470703125,19.7607421875 37.7490234375,20.8447265625 38.671875,21.181640625 39.195556640625,21.27685546875 40.2978515625,21.50390625 41.392822265625,21.73095703125 41.89453125,21.826171875 41.4834594726563,22.6171875 30.3520202636719,22.6171875 30.17578125,21.826171875 31.70654296875,21.33544921875 32.666015625,20.80078125 33.240966796875,19.92919921875 33.6181640625,18.427734375 33.826904296875,15.93017578125 33.896484375,12.0703125 33.782958984375,9.580078125 33.4423828125,7.5 32.808837890625,5.841064453125 31.81640625,4.6142578125 30.4174785614014,3.856201171875 28.564453125,3.603515625 25.7153301239014,4.00634765625 22.44140625,5.21484375 22.56591796875,6.888427734375 22.646484375,9.4482421875 22.763671875,15.6298828125 22.81494140625,18.248291015625 22.8515625,19.74609375 23.115234375,20.8447265625 23.8916015625,21.298828125 24.7888164520264,21.474609375 26.337890625,21.708984375 26.337890625,22.6171875 22.67578125,22.6171875 21.50390625,22.646484375 18.984375,22.734375 16.435546875,22.822265625 15.17578125,22.8515625 15,21.943359375 16.66259765625,21.500244140625 17.783203125,20.9326171875 18.489990234375,20.06103515625 18.9111328125,18.7060546875 19.105224609375,16.549072265625 19.130859375,13.271484375 19.072265625,10.4296875 18.768310546875,7.254638671875 17.9736328125,4.9365234375 16.600341796875,3.519287109375 14.560546875,3.046875 12.158203125,3.45703125 9.755859375,4.4384765625 7.79296875,5.44921875 7.763671875,6.331787109375 7.734375,7.9833984375 7.67578125,11.337890625 7.67578125,14.326171875 7.708740234375,16.6497802734375 7.7490234375,18.37646484375 7.796630859375,19.5062255859375 7.8515625,20.0390625 8.701171875,20.9912109375 9.8583984375,21.397705078125 11.865234375,21.767578125 11.865234375,22.79296875 11.0595693588257,22.763671875 9.345703125,22.67578125 7.6171875,22.587890625 6.767578125,22.55859375 0,22.67578125 0.0585940480232239,21.767578125 1.57470715045929,21.3067817687988 2.60742211341858,20.7437896728516 3.292236328125,19.7859764099121 3.7646484375,18.1407165527344 4.039306640625,15.6326293945313 4.130859375,12.0863342285156 4.031982421875,8.70803833007813 3.7353515625,6.47048950195313 3.24462890625,5.11774063110352 2.56347680091858,4.39384460449219 1.534423828125,4.07209396362305 0,3.92578125 0,2.9443359375 3.17138671875,1.89914703369141 6.416015625,0.235748291015625 7.001953125,0z" />
    </g>
  </g>
</svg>