<?xml version="1.0" encoding="utf-8"?>
<!DOCTYPE svg PUBLIC "-//W3C//DTD SVG 1.1//EN" "http://www.w3.org/Graphics/SVG/1.1/DTD/svg11.dtd">
<svg width="30.205078125" height="42.71484375" xmlns="http://www.w3.org/2000/svg" xmlns:xlink="http://www.w3.org/1999/xlink" xmlns:xml="http://www.w3.org/XML/1998/namespace" version="1.1">
  <g>
    <g>
      <path style="fill:#FF0000;fill-opacity:1" d="M17.87109375,17.255859375L13.0114736557007,20.771484375 8.8037109375,25.048828125 7.10540723800659,27.32666015625 5.89233350753784,29.501953125 5.16448926925659,31.57470703125 4.92187452316284,33.544921875 5.25512647628784,35.489501953125 6.2548828125,36.9873046875 7.811279296875,37.943115234375 9.814453125,38.26171875 15.88623046875,37.58056640625 20.859375,35.537109375 22.7947978973389,34.0887451171875 24.1772441864014,32.46826171875 25.0067119598389,30.6756591796875 25.283203125,28.7109375 24.8657207489014,26.25732421875 23.61328125,23.642578125 21.3427734375,20.6982421875 17.87109375,17.255859375z M11.1328125,0L25.78125,0 21.298828125,13.359375 24.7265625,17.16796875 26.9494609832764,19.881591796875 28.6962890625,22.6904296875 29.8278789520264,25.594482421875 30.205078125,28.59375 29.8324565887451,31.48681640625 28.7145977020264,34.130859375 26.8514995574951,36.52587890625 24.2431640625,38.671875 21.0946655273438,40.440673828125 17.611083984375,41.7041015625 13.7924194335938,42.462158203125 9.638671875,42.71484375 5.43090772628784,42.125244140625 2.4169921875,40.3564453125 0.60424792766571,37.474365234375 0,33.544921875 0.291137635707855,31.0968017578125 1.16455066204071,28.52783203125 2.6202392578125,25.8380126953125 4.658203125,23.02734375 9.8583984375,17.7685565948486 16.142578125,13.4765625 19.1015625,4.453125 9.638671875,4.453125 11.1328125,0z" />
    </g>
  </g>
</svg>