<?xml version="1.0" encoding="utf-8"?>
<!DOCTYPE svg PUBLIC "-//W3C//DTD SVG 1.1//EN" "http://www.w3.org/Graphics/SVG/1.1/DTD/svg11.dtd">
<svg width="24.84375" height="44.82421875" xmlns="http://www.w3.org/2000/svg" xmlns:xlink="http://www.w3.org/1999/xlink" xmlns:xml="http://www.w3.org/XML/1998/namespace" version="1.1">
  <g>
    <g>
      <path style="fill:#FF0000;fill-opacity:1" d="M14.1796875,0L18.57421875,0.7177734375 20.3942852020264,1.629638671875 21.9287109375,2.9296875 23.1628398895264,4.632568359375 24.08203125,6.7529296875 24.6533203125,9.305419921875 24.84375,12.3046875 24.84375,35.15625 24.598388671875,37.166748046875 23.8623046875,38.5693359375 22.6721172332764,39.393310546875 21.064453125,39.66796875 20.302734375,39.638671875 19.62890625,39.5068359375 18.7939453125,39.19921875 17.578125,38.671875 3.896484375,32.490234375 3.896484375,44.82421875 1.552734375,44.82421875 1.552734375,29.0625 2.138671875,29.0625 18.310546875,36.474609375 19.5263671875,36.97265625 20.595703125,37.20703125 22.0166015625,36.6357421875 22.3498516082764,35.855712890625 22.5,34.658203125 22.5,12.3046875 22.03125,8.3349609375 20.5517578125,5.1708984375 17.9736328125,3.0908203125 14.1796875,2.34375 10.60546875,2.841796875 7.412109375,4.3798828125 4.482421875,7.0166015625 1.69921875,10.810546875 0,9.43359375 2.7392578125,5.4931640625 6.03515625,2.5341796875 9.8583984375,0.6591796875 14.1796875,0z" />
    </g>
  </g>
</svg>