<?xml version="1.0" encoding="utf-8"?>
<!DOCTYPE svg PUBLIC "-//W3C//DTD SVG 1.1//EN" "http://www.w3.org/Graphics/SVG/1.1/DTD/svg11.dtd">
<svg width="30.46875" height="20.068359375" xmlns="http://www.w3.org/2000/svg" xmlns:xlink="http://www.w3.org/1999/xlink" xmlns:xml="http://www.w3.org/XML/1998/namespace" version="1.1">
  <g>
    <g>
      <path style="fill:#FF0000;fill-opacity:1" d="M0,0L2.34375,0 2.34375,9.814453125 2.607421875,13.388671875 3.33984375,15.849609375 4.453125,17.2705078125 5.859375,17.724609375 7.32421875,17.1533203125 8.4228515625,15.5419921875 9.1259765625,13.037109375 9.375,9.814453125 9.375,0 11.71875,0 11.71875,9.814453125 11.982421875,13.388671875 12.71484375,15.849609375 13.828125,17.2705078125 15.234375,17.724609375 16.58203125,17.2998046875 17.7099609375,15.9375 18.4716796875,13.4912109375 18.75,9.814453125 18.75,0 21.09375,0 21.09375,9.814453125 21.357421875,13.388671875 22.08984375,15.849609375 23.203125,17.2705078125 24.609375,17.724609375 25.9716796875,17.314453125 27.0849609375,16.025390625 27.8466796875,13.798828125 28.125,10.60546875 28.125,9.814453125 28.125,0 30.46875,0 30.46875,9.814453125 30.08056640625,14.3920917510986 28.916015625,17.578125 27.06298828125,19.44580078125 24.609375,20.068359375 23.1298809051514,19.874267578125 21.85546875,19.2919921875 20.7861309051514,18.2922382354736 19.921875,16.845703125 19.0576152801514,18.2922382354736 17.98828125,19.2919921875 16.7138671875,19.874267578125 15.234375,20.068359375 13.7548828125,19.874267578125 12.48046875,19.2919921875 11.4111328125,18.2922382354736 10.546875,16.845703125 9.68261623382568,18.2922382354736 8.61328125,19.2919921875 7.33886623382568,19.874267578125 5.859375,20.068359375 3.40576148033142,19.44580078125 1.552734375,17.578125 0.38818359375,14.3920917510986 0,9.814453125 0,0z" />
    </g>
  </g>
</svg>