<?xml version="1.0" encoding="utf-8"?>
<!DOCTYPE svg PUBLIC "-//W3C//DTD SVG 1.1//EN" "http://www.w3.org/Graphics/SVG/1.1/DTD/svg11.dtd">
<svg width="30.46875" height="17.87109375" xmlns="http://www.w3.org/2000/svg" xmlns:xlink="http://www.w3.org/1999/xlink" xmlns:xml="http://www.w3.org/XML/1998/namespace" version="1.1">
  <g>
    <g>
      <path style="fill:#FF0000;fill-opacity:1" d="M15.234375,0L18.22265625,0.30029296875 20.9765625,1.201171875 23.4484844207764,2.677001953125 25.5908203125,4.7021484375 27.388916015625,7.25830078125 28.828125,10.3271484375 29.8681640625,13.875732421875 30.46875,17.87109375 28.125,17.87109375 27.5244140625,14.1064453125 26.54296875,10.8984375 25.2355937957764,8.22509765625 23.6572265625,6.064453125 21.8298320770264,4.4091796875 19.775390625,3.251953125 17.55615234375,2.57080078125 15.234375,2.34375 10.546875,3.046875 8.52905178070068,4.017333984375 6.7529296875,5.5224609375 5.2294921875,7.6025390625 3.9697265625,10.2978515625 2.99926733970642,13.692626953125 2.34375,17.87109375 0,17.87109375 0.750732421875,13.399658203125 1.8310546875,9.6533203125 3.24462866783142,6.5771484375 4.9951171875,4.1162109375 7.07153224945068,2.255859375 9.462890625,0.9814453125 12.18017578125,0.245361328125 15.234375,0z" />
    </g>
  </g>
</svg>