<?xml version="1.0" encoding="utf-8"?>
<!DOCTYPE svg PUBLIC "-//W3C//DTD SVG 1.1//EN" "http://www.w3.org/Graphics/SVG/1.1/DTD/svg11.dtd">
<svg width="25.3417968750008" height="46.875" xmlns="http://www.w3.org/2000/svg" xmlns:xlink="http://www.w3.org/1999/xlink" xmlns:xml="http://www.w3.org/XML/1998/namespace" version="1.1">
  <g>
    <g>
      <path style="fill:#FF0000;fill-opacity:1" d="M9.521484375,28.59375L6.5185546875,29.0478515625 4.2626953125,30.3662109375 2.841796875,32.4462890625 2.34375,35.15625 2.816162109375,38.016357421875 4.2333984375,40.1513671875 6.50024318695068,41.480712890625 9.521484375,41.923828125 12.3046875,41.458740234375 14.794921875,40.0634765625 17.0141582489014,37.818603515625 18.984375,34.8046875 17.0141582489014,32.142333984375 14.794921875,30.1904296875 12.3046875,28.992919921875 9.521484375,28.59375z M9.08203125,5.09765625L6.38671875,5.56640625 4.2626953125,6.8994140625 2.8564453125,8.96484375 2.34375,11.66015625 2.794189453125,14.2382831573486 4.1455078125,16.11328125 6.29516506195068,17.3071308135986 9.140625,17.841796875 11.78466796875,17.4206562042236 14.208984375,16.1572284698486 16.41357421875,14.0515146255493 18.3984375,11.103515625 16.3696269989014,8.5400390625 14.150390625,6.650390625 11.72607421875,5.48583984375 9.08203125,5.09765625z M22.529296875,0L24.873046875,0.498046875 23.1591796875,6.1669921875 21.03515625,11.103515625 23.1665019989014,16.8310565948486 23.876953125,23.583984375 23.2763671875,29.296875 21.5625,34.8046875 23.67919921875,40.01220703125 25.341796875,46.376953125 22.998046875,46.875 21.8408184051514,41.6748046875 20.302734375,37.265625 18.0688457489014,40.283203125 15.5859375,42.48046875 12.744140625,43.82080078125 9.43359375,44.267578125 5.419921875,43.623046875 2.4609375,41.77734375 0.6298828125,38.8623046875 0,34.98046875 0.6591796875,31.3037109375 2.578125,28.564453125 5.625,26.8505859375 9.697265625,26.25 12.674560546875,26.630859375 15.3955078125,27.7734375 17.8601055145264,29.6630859375 20.068359375,32.28515625 21.181640625,28.154296875 21.533203125,23.466796875 21.064453125,18.1640625 19.658203125,13.505859375 17.3345947265625,16.4282245635986 14.81689453125,18.5156269073486 12.1051025390625,19.7680683135986 9.19921875,20.185546875 5.361328125,19.599609375 2.4755859375,17.9150390625 0.64453125,15.2197265625 0,11.6015625 0.673828125,8.0126953125 2.548828125,5.21484375 5.4052734375,3.3984375 9.0234375,2.75390625 11.94580078125,3.14208984375 14.677734375,4.306640625 17.2265605926514,6.1962890625 19.599609375,8.759765625 21.1376953125,4.7607421875 22.529296875,0z" />
    </g>
  </g>
</svg>