<?xml version="1.0" encoding="utf-8"?>
<!DOCTYPE svg PUBLIC "-//W3C//DTD SVG 1.1//EN" "http://www.w3.org/Graphics/SVG/1.1/DTD/svg11.dtd">
<svg width="32.490234375" height="46.435546875" xmlns="http://www.w3.org/2000/svg" xmlns:xlink="http://www.w3.org/1999/xlink" xmlns:xml="http://www.w3.org/XML/1998/namespace" version="1.1">
  <g>
    <g>
      <path style="fill:#FF0000;fill-opacity:1" d="M5.53710889816284,0L8.49609375,0.527344226837158 10.4443359375,2.3291015625 11.0888652801514,3.819580078125 11.5283203125,5.7421875 11.781005859375,8.1591796875 11.865234375,11.1328125 11.865234375,36.943359375 12.24609375,40.166015625 13.2421875,42.392578125 14.6484375,43.681640625 16.259765625,44.091796875 17.87109375,43.681640625 19.27734375,42.4072265625 20.2587890625,40.1953125 20.625,36.943359375 20.625,11.1328125 20.7055644989014,8.1591796875 20.947265625,5.7421875 21.3757305145264,3.819580078125 22.0166015625,2.3291015625 23.9794921875,0.527344226837158 26.953125,0 29.007568359375,0.384521484375 30.6005859375,1.5380859375 31.754150390625,3.387451171875 32.490234375,5.859375 30.1171875,6.064453125 29.61181640625,4.4110107421875 28.916015625,3.22998046875 28.02978515625,2.5213623046875 26.953125,2.28515625 24.9609375,2.7685546875 23.759765625,4.3212890625 23.1591796875,7.0751953125 22.998046875,11.1328125 22.96875,36.943359375 22.44140625,41.2939453125 21.005859375,44.23828125 18.8671875,45.908203125 16.259765625,46.435546875 13.6669921875,45.908203125 11.5283203125,44.23828125 10.0634765625,41.2939453125 9.521484375,36.943359375 9.4921875,11.1328125 9.3310546875,7.0751953125 8.73046875,4.3212890625 7.52929639816284,2.7685546875 5.53710889816284,2.28515625 4.46044874191284,2.5213623046875 3.57421803474426,3.22998046875 2.87841725349426,4.4110107421875 2.37304639816284,6.064453125 0,5.859375 0.736083567142487,3.387451171875 1.88964796066284,1.5380859375 3.48266530036926,0.384521484375 5.53710889816284,0z" />
    </g>
  </g>
</svg>