<?xml version="1.0" encoding="utf-8"?>
<!DOCTYPE svg PUBLIC "-//W3C//DTD SVG 1.1//EN" "http://www.w3.org/Graphics/SVG/1.1/DTD/svg11.dtd">
<svg width="41.3671875" height="40.693359375" xmlns="http://www.w3.org/2000/svg" xmlns:xlink="http://www.w3.org/1999/xlink" xmlns:xml="http://www.w3.org/XML/1998/namespace" version="1.1">
  <g>
    <g>
      <path style="fill:#FF0000;fill-opacity:1" d="M10.341796875,0L13.388671875,0 13.388671875,12.0703125 29.00390625,12.0703125 29.1796875,0.175780773162842 32.2265625,0.175780773162842 32.2705078125,6.7529296875 32.16796875,12.0703125 41.3671875,12.0703125 41.3671875,15.234375 32.05078125,15.234375 30.40283203125,23.525390625 27.626953125,30.41015625 24.90234375,28.974609375 27.568359375,22.41943359375 28.828125,15.234375 13.388671875,15.234375 13.388671875,35.21484375 13.58642578125,36.09375 14.1796875,36.85546875 15.966796875,37.55859375 36.97265625,37.55859375 36.97265625,40.693359375 16.142578125,40.693359375 13.80615234375,40.341796875 11.953125,39.287109375 10.74462890625,37.59521484375 10.341796875,35.33203125 10.341796875,15.234375 0,15.234375 0,12.0703125 10.341796875,12.0703125 10.341796875,0z" />
    </g>
  </g>
</svg>