<?xml version="1.0" encoding="utf-8"?>
<!DOCTYPE svg PUBLIC "-//W3C//DTD SVG 1.1//EN" "http://www.w3.org/Graphics/SVG/1.1/DTD/svg11.dtd">
<svg width="40.546875" height="40.25390625" xmlns="http://www.w3.org/2000/svg" xmlns:xlink="http://www.w3.org/1999/xlink" xmlns:xml="http://www.w3.org/XML/1998/namespace" version="1.1">
  <g>
    <g>
      <path style="fill:#FF0000;fill-opacity:1" d="M0,0L40.546875,0 40.546875,3.134765625 16.962890625,3.134765625 15.5126934051514,8.48876953125 13.798828125,14.23828125 34.6875,14.23828125 34.39453125,21.9580078125 33.80859375,28.7109375 33.431396484375,31.5609741210938 33.0322265625,33.841552734375 32.611083984375,35.5526733398438 32.16796875,36.6943359375 31.080322265625,38.21044921875 29.6337890625,39.3310546875 27.674560546875,40.023193359375 25.048828125,40.25390625 21.78955078125,40.078125 18.10546875,39.55078125 17.51953125,36.181640625 21.5625,36.95068359375 25.546875,37.20703125 27.1051025390625,36.9863891601563 28.35205078125,36.324462890625 29.2877197265625,35.2212524414063 29.912109375,33.6767578125 30.362548828125,31.3320922851563 30.7763671875,27.828369140625 31.153564453125,23.1655883789063 31.494140625,17.34375 9.521484375,17.34375 11.66015625,10.6127939224243 13.681640625,3.134765625 0,3.134765625 0,0z" />
    </g>
  </g>
</svg>