<?xml version="1.0" encoding="utf-8"?>
<!DOCTYPE svg PUBLIC "-//W3C//DTD SVG 1.1//EN" "http://www.w3.org/Graphics/SVG/1.1/DTD/svg11.dtd">
<svg width="41.71875" height="40.1953125" xmlns="http://www.w3.org/2000/svg" xmlns:xlink="http://www.w3.org/1999/xlink" xmlns:xml="http://www.w3.org/XML/1998/namespace" version="1.1">
  <g>
    <g>
      <path style="fill:#FF0000;fill-opacity:1" d="M1.201171875,0L40.986328125,0 40.986328125,3.10546875 29.12109375,3.10546875 29.12109375,33.955078125 29.59716796875,35.25146484375 31.025390625,35.68359375 41.71875,35.68359375 41.71875,38.701171875 31.201171875,38.701171875 28.89404296875,38.41552734375 27.24609375,37.55859375 26.25732421875,36.13037109375 25.927734375,34.130859375 25.927734375,3.10546875 16.875,3.10546875 16.7367534637451,9.18731689453125 16.4978008270264,14.3078622817993 16.1581401824951,18.4671020507813 15.7177734375,21.6650390625 14.154052734375,26.91650390625 11.42578125,31.8017578125 7.48535108566284,36.251220703125 2.28515625,40.1953125 0,37.79296875 4.44579982757568,34.56298828125 8.115234375,30.615234375 10.83984375,26.173095703125 12.451171875,21.4599609375 12.923583984375,18.4945678710938 13.2861328125,14.4470224380493 13.538818359375,9.31732177734375 13.681640625,3.10546875 1.201171875,3.10546875 1.201171875,0z" />
    </g>
  </g>
</svg>