<?xml version="1.0" encoding="utf-8"?>
<!DOCTYPE svg PUBLIC "-//W3C//DTD SVG 1.1//EN" "http://www.w3.org/Graphics/SVG/1.1/DTD/svg11.dtd">
<svg width="10.634765625" height="28.623046875" xmlns="http://www.w3.org/2000/svg" xmlns:xlink="http://www.w3.org/1999/xlink" xmlns:xml="http://www.w3.org/XML/1998/namespace" version="1.1">
  <g>
    <g>
      <path style="fill:#FF0000;fill-opacity:1" d="M0,19.306640625L3.819580078125,19.837646484375 6.8408203125,21.3134765625 9.078369140625,23.792724609375 10.546875,27.333984375 10.634765625,27.94921875 10.5908203125,28.3740234375 10.37109375,28.623046875 9.7265625,28.271484375 7.060546875,25.6640625 4.8486328125,24.0966796875 2.63671922683716,23.3203125 0,23.115234375 0,19.306640625z M0,10.517578125L3.819580078125,11.048583984375 6.8408203125,12.5244140625 9.078369140625,15.003662109375 10.546875,18.544921875 10.634765625,19.16015625 10.5908203125,19.5849609375 10.37109375,19.833984375 9.7265625,19.482421875 7.060546875,16.875 4.8486328125,15.3076171875 2.63671922683716,14.53125 0,14.326171875 0,10.517578125z M2.28515625,0L8.291015625,0 5.91796875,4.599609375 4.62890625,4.599609375 2.28515625,0z" />
    </g>
  </g>
</svg>