<?xml version="1.0" encoding="utf-8"?>
<!DOCTYPE svg PUBLIC "-//W3C//DTD SVG 1.1//EN" "http://www.w3.org/Graphics/SVG/1.1/DTD/svg11.dtd">
<svg width="32.900390625" height="40.13671875" xmlns="http://www.w3.org/2000/svg" xmlns:xlink="http://www.w3.org/1999/xlink" xmlns:xml="http://www.w3.org/XML/1998/namespace" version="1.1">
  <g>
    <g>
      <path style="fill:#FF0000;fill-opacity:1" d="M24.84375,0L23.5107421875,2.783203125 23.0859375,4.74609375 22.59521484375,8.170166015625 21.3884906768799,11.0056190490723 21.5625,10.869140625 22.8955078125,10.078125 24.19921875,9.404296875 25.6494140625,8.935546875 27.421875,8.759765625 30.029296875,9.169921875 31.7138671875,10.2685546875 32.6220703125,11.865234375 32.900390625,13.76953125 32.3876953125,16.5234375 31.0400390625,19.2041015625 29.1064453125,21.6796875 26.865234375,23.818359375 26.07421875,24.19921875 25.634765625,23.701171875 26.015625,23.1005859375 26.953125,21.884765625 28.18359375,20.21484375 29.4140625,18.2373046875 30.3515625,16.11328125 30.732421875,14.00390625 30.439453125,12.65625 29.677734375,11.7333984375 28.623046875,11.19140625 27.451171875,11.015625 24.90234375,11.5283203125 21.796875,13.212890625 17.57985496521,16.5450096130371 20.28076171875,18.4423828125 21.9525146484375,20.452880859375 23.466796875,22.91015625 24.43359375,24.990234375 25.5029296875,27.744140625 26.5576171875,30.8935546875 27.4658203125,34.1162109375 28.1103515625,37.08984375 28.359375,39.4921875 28.271484375,39.9462890625 28.06640625,40.13671875 27.48046875,39.43359375 25.9497051239014,34.874267578125 24.287109375,30.7470703125 22.510986328125,27.125244140625 20.6396484375,24.08203125 18.673095703125,21.639404296875 16.611328125,19.8193359375 14.7094879150391,18.8130531311035 11.6748046875,21.2109375 0.966796934604645,30.263671875 0.527343571186066,29.8681640625 0,28.857421875 5.66162109375,23.7158203125 11.103515625,19.072265625 12.0277233123779,18.3473968505859 10.15869140625,18.62548828125 7.96875,19.5703125 8.6865234375,17.607421875 9.931640625,16.0986328125 11.54296875,15.1318359375 13.359375,14.794921875 15.29296875,15.17578125 17.098388671875,13.2568359375 18.4130859375,10.72265625 19.237060546875,7.5732421875 19.5703125,3.80859375 17.4609375,3.4423828125 15.64453125,3.310546875 13.9306640625,3.4771728515625 12.626953125,3.97705078125 11.7333984375,4.8101806640625 11.25,5.9765625 10.517578125,8.6572265625 9.43359375,11.25 7.6611328125,12.48046875 5.390625,13.4765625 6.89941358566284,9.7265625 7.8515625,6.09375 8.408203125,4.8486328125 9.55078125,4.04296875 11.2646484375,3.1494140625 13.2421875,1.7578125 15.27099609375,0.615234375 17.431640625,0.234375 18.427734375,0.3515625 19.423828125,0.6005859375 20.419921875,0.8349609375 21.416015625,0.9375 23.00537109375,0.703125 24.84375,0z" />
    </g>
  </g>
</svg>