<?xml version="1.0" encoding="utf-8"?>
<!DOCTYPE svg PUBLIC "-//W3C//DTD SVG 1.1//EN" "http://www.w3.org/Graphics/SVG/1.1/DTD/svg11.dtd">
<svg width="30.41015625" height="32.40234375" xmlns="http://www.w3.org/2000/svg" xmlns:xlink="http://www.w3.org/1999/xlink" xmlns:xml="http://www.w3.org/XML/1998/namespace" version="1.1">
  <g>
    <g>
      <path style="fill:#FF0000;fill-opacity:1" d="M21.62109375,16.611328125L20.38330078125,19.090576171875 18.896484375,20.8740234375 17.16064453125,21.961669921875 15.17578125,22.353515625 12.3889150619507,22.452392578125 10.0634765625,22.6318359375 8.199462890625,22.877197265625 6.796875,23.173828125 5.859375,23.525390625 6.298828125,24.931640625 6.6796875,25.810546875 11.3085927963257,24.7998046875 14.6484375,24.462890625 15.615234375,24.5361328125 16.494140625,24.609375 18.5394287109375,24.1094970703125 20.07568359375,22.60986328125 21.1029052734375,20.1104736328125 21.62109375,16.611328125z M19.27734375,15.087890625L15.7012929916382,16.051025390625 13.1469717025757,17.1240234375 11.6143789291382,18.306884765625 11.103515625,19.599609375 11.1328125,19.833984375 12.0263671875,19.8486328125 13.2861328125,19.892578125 14.53125,19.9365234375 15.41015625,19.951171875 16.75048828125,19.537353515625 17.841796875,18.5888671875 18.68408203125,17.105712890625 19.27734375,15.087890625z M29.677734375,0L30.2490234375,0.2783203125 30.41015625,0.966796875 29.9816875457764,3.59619140625 29.1064453125,6.50390625 27.7990703582764,9.77783203125 26.07421875,13.505859375 24.2138671875,18.1201171875 22.96875,22.939453125 22.1978759765625,24.6826171875 21.20361328125,25.927734375 19.9859619140625,26.6748046875 18.544921875,26.923828125 17.255859375,26.865234375 16.025390625,26.806640625 12.6727294921875,27.095947265625 9.70458984375,27.9638671875 7.1209716796875,29.410400390625 4.921875,31.435546875 4.1455078125,32.16064453125 3.515625,32.40234375 3.0322265625,32.18994140625 2.63671875,31.552734375 1.49414074420929,26.77734375 0.67382824420929,22.998046875 0.175781309604645,20.21484375 0,18.427734375 0.117187857627869,17.4755859375 0.439453482627869,17.05078125 0.77636730670929,17.138671875 1.27441442012787,17.5341796875 2.05078172683716,18.4423828125 3.22265625,20.068359375 3.486328125,17.958984375 3.92578125,15.64453125 4.51171875,12.685546875 5.21484375,8.642578125 5.4345703125,7.8369140625 5.859375,7.55859375 6.43432569503784,7.752685546875 6.9287109375,8.3349609375 7.3828125,10.4296875 7.1337890625,12.83203125 6.533203125,15.791015625 5.80078125,18.9111328125 5.15625,21.767578125 7.1630859375,18.69140625 8.96484375,16.259765625 10.1220703125,10.3857421875 10.6640625,4.072265625 10.810546875,3.5009765625 11.25,3.310546875 11.9970703125,4.189453125 12.6708984375,6.1083984375 13.2275390625,8.90625 13.65234375,12.451171875 14.208984375,8.8916015625 14.82421875,5.56640625 15.5126953125,3.10546875 15.889892578125,2.38037109375 16.2890625,2.138671875 16.768798828125,2.4609375 17.2119140625,3.251953125 17.63671875,5.947265625 17.3291015625,8.7890625 16.40625,12.333984375 16.259765625,12.744140625 16.171875,13.037109375 16.58203125,13.06640625 17.3876953125,12.9638671875 18.3984375,12.685546875 20.21484375,7.6318359375 21.6943359375,3.8525390625 22.8369140625,1.494140625 23.2873516082764,0.87890625 23.671875,0.673828125 24.140625,1.083984375 24.2578125,2.021484375 24.1589336395264,3.006591796875 23.8623046875,4.4384765625 23.3972148895264,6.346435546875 22.79296875,8.759765625 22.5146484375,9.90234375 22.3828125,10.517578125 23.4374980926514,9.30908203125 24.8437480926514,7.265625 26.6015605926514,4.38720703125 28.7109375,0.673828125 29.677734375,0z" />
    </g>
  </g>
</svg>