<?xml version="1.0" encoding="utf-8"?>
<!DOCTYPE svg PUBLIC "-//W3C//DTD SVG 1.1//EN" "http://www.w3.org/Graphics/SVG/1.1/DTD/svg11.dtd">
<svg width="13.4765625" height="43.125" xmlns="http://www.w3.org/2000/svg" xmlns:xlink="http://www.w3.org/1999/xlink" xmlns:xml="http://www.w3.org/XML/1998/namespace" version="1.1">
  <g>
    <g>
      <path style="fill:#FF0000;fill-opacity:1" d="M9.375,0L13.4765625,0 12.3046875,3.22265625 12.3046875,42.421875 12.1142578125,42.9345703125 11.630859375,43.125 11.1474609375,42.9345703125 10.95703125,42.451171875 10.95703125,22.265625 10.9423818588257,21.4892578125 10.8984375,20.21484375 10.7080078125,16.7138671875 10.3564453125,12.5390625 9.8291015625,8.3935546875 9.1259765625,5.0390625 8.697509765625,3.8818359375 8.203125,3.22265625 9.375,0z M1.17187476158142,0L5.2734375,0 4.10156297683716,3.22265625 4.10156297683716,42.421875 3.9111328125,42.9345703125 3.42773485183716,43.125 2.9443359375,42.9345703125 2.75390672683716,42.451171875 2.75390672683716,22.265625 2.7392578125,21.4892578125 2.6953125,20.21484375 2.50488257408142,16.7138671875 2.1533203125,12.5390625 1.62597632408142,8.3935546875 0.922851324081421,5.0390625 0.494384706020355,3.8818359375 0,3.22265625 1.17187476158142,0z" />
    </g>
  </g>
</svg>