<?xml version="1.0" encoding="utf-8"?>
<!DOCTYPE svg PUBLIC "-//W3C//DTD SVG 1.1//EN" "http://www.w3.org/Graphics/SVG/1.1/DTD/svg11.dtd">
<svg width="37.734375" height="24.84375" xmlns="http://www.w3.org/2000/svg" xmlns:xlink="http://www.w3.org/1999/xlink" xmlns:xml="http://www.w3.org/XML/1998/namespace" version="1.1">
  <g>
    <g>
      <path style="fill:#FF0000;fill-opacity:1" d="M27.451171875,5.595703125L24.90234375,6.1083984375 21.796875,7.79296875 20.7714920043945,8.60318374633789 22.1978759765625,9.488525390625 24.7865295410156,10.6118774414063 27.7734375,11.66015625 27.65625,12.626953125 28.2202129364014,14.033203125 28.5932445526123,14.1365547180176 29.4140625,12.8173828125 30.3515625,10.693359375 30.732421875,8.583984375 30.439453125,7.236328125 29.677734375,6.3134765625 28.623046875,5.771484375 27.451171875,5.595703125z M12.1875,5.21484375L10.2978515625,7.5146484375 8.37890625,10.3125 11.7696571350098,13.1298789978027 16.0450706481934,9.77661514282227 15.867919921875,9.649658203125 12.1875,5.21484375z M14.58984375,0L14.9560546875,0.2197265625 15.05859375,0.76171875 15.0439453125,0.966796875 15.029296875,1.171875 15.2284240722656,2.74566650390625 15.8258056640625,4.244384765625 16.8214416503906,5.66802978515625 18.21533203125,7.0166015625 18.9682464599609,7.48392868041992 21.5625,5.44921875 22.8955078125,4.658203125 24.19921875,3.984375 25.6494140625,3.515625 27.421875,3.33984375 30.029296875,3.75 31.7138671875,4.8486328125 32.6220703125,6.4453125 32.900390625,8.349609375 32.3876953125,11.103515625 31.0400390625,13.7841796875 30.5217361450195,14.4477653503418 30.5712890625,14.443359375 31.259765625,14.384765625 31.845703125,14.8828125 31.34765625,15.3515625 29.9343528747559,15.1997909545898 29.1064453125,16.259765625 26.865234375,18.3984375 26.07421875,18.779296875 25.634765625,18.28125 26.015625,17.6806640625 26.953125,16.46484375 28.0355167388916,14.9958839416504 25.447998046875,14.718017578125 20.2880859375,12.8173828125 17.744815826416,10.9947395324707 13.4812211990356,14.3636589050293 17.2412109375,16.640625 22.166748046875,18.662109375 27.421875,19.921875 29.0277080535889,21.40869140625 30.7104473114014,22.470703125 32.4700927734375,23.10791015625 34.306640625,23.3203125 36.97265625,22.91015625 37.177734375,22.8662109375 37.353515625,22.8515625 37.734375,23.0859375 37.0751953125,23.5986328125 35.5078125,23.8916015625 33.6328125,24.0380859375 32.05078125,24.08203125 27.1865844726563,23.6782836914063 22.239990234375,22.467041015625 17.2109985351563,20.4483032226563 12.0996084213257,17.6220703125 10.7037343978882,16.6119766235352 0.96679675579071,24.84375 0.52734386920929,24.4482421875 0,23.4375 9.07913112640381,15.4363670349121 5.15625,12.59765625 9.404296875,5.888671875 13.76953125,0.41015625 14.1796875,0.0732421875 14.58984375,0z" />
    </g>
  </g>
</svg>