<?xml version="1.0" encoding="utf-8"?>
<!DOCTYPE svg PUBLIC "-//W3C//DTD SVG 1.1//EN" "http://www.w3.org/Graphics/SVG/1.1/DTD/svg11.dtd">
<svg width="32.900390625" height="37.5" xmlns="http://www.w3.org/2000/svg" xmlns:xlink="http://www.w3.org/1999/xlink" xmlns:xml="http://www.w3.org/XML/1998/namespace" version="1.1">
  <g>
    <g>
      <path style="fill:#FF0000;fill-opacity:1" d="M14.6484375,0L16.640625,0.3662109375 18.69140625,1.46484375 19.9072265625,0.4833984375 21.2109375,0.05859375 20.5224609375,2.0947265625 20.15625,4.21875 19.8193359375,5.5810546875 19.1015625,6.85546875 16.69921875,9.2578125 17.7409191131592,9.44263076782227 21.5625,6.4453125 22.8955078125,5.654296875 24.19921875,4.98046875 25.6494140625,4.51171875 27.421875,4.3359375 30.029296875,4.74609375 31.7138671875,5.8447265625 32.6220703125,7.44140625 32.900390625,9.345703125 32.3876953125,12.099609375 31.0400390625,14.7802734375 29.1064453125,17.255859375 26.865234375,19.39453125 26.07421875,19.775390625 25.634765625,19.27734375 26.015625,18.6767578125 26.953125,17.4609375 28.18359375,15.791015625 29.4140625,13.8134765625 30.3515625,11.689453125 30.732421875,9.580078125 30.439453125,8.232421875 29.677734375,7.3095703125 28.623046875,6.767578125 27.451171875,6.591796875 24.90234375,7.1044921875 21.796875,8.7890625 19.7655467987061,10.3941345214844 20.244140625,11.30859375 20.1708984375,12.12890625 19.8046875,13.1396484375 18.92578125,14.6044921875 17.28515625,16.7578125 19.19677734375,17.6806640625 20.712890625,19.248046875 21.83349609375,21.4599609375 22.55859375,24.31640625 23.3349609375,29.677734375 23.935546875,34.951171875 24.0380859375,35.771484375 24.08203125,36.591796875 23.9794921875,37.236328125 23.61328125,37.5 22.998046875,37.001953125 22.6171875,35.390625 21.756591796875,31.29638671875 20.9326171875,27.919921875 20.057373046875,25.1953125 19.04296875,23.056640625 17.852783203125,21.470947265625 16.4501953125,20.4052734375 14.747314453125,19.801025390625 12.65625,19.599609375 10.8837890625,19.8193359375 9.287109375,20.0390625 9.0087890625,19.98046875 8.876953125,19.8046875 8.9794921875,19.453125 9.375,19.04296875 12.1362295150757,17.1533203125 15.380859375,16.5234375 15.9375,16.5234375 16.2890625,14.208984375 16.0596866607666,13.3223533630371 11.6748046875,16.787109375 0.966796636581421,25.83984375 0.527343511581421,25.4443359375 0,24.43359375 5.66162109375,19.2919921875 11.103515625,14.6484375 13.9456233978271,12.4193344116211 12.685546875,12.685546875 10.546875,13.9453125 9.873046875,14.296875 9.580078125,14.00390625 9.9609375,13.18359375 12.36328125,10.7666015625 15.46875,9.375 16.10595703125,7.19970703125 16.318359375,4.716796875 16.2890625,3.7646484375 16.23046875,3.515625 14.150390625,3.8671875 12.6489248275757,3.662109375 11.30859375,3.046875 10.6640625,3.9111328125 10.078125,6.03515625 9.254150390625,7.987060546875 7.8369140625,9.6240234375 5.92895460128784,10.989990234375 3.6328125,12.12890625 3.076171875,12.24609375 2.783203125,12.01171875 3.28124952316284,11.30859375 4.9951171875,9.2431640625 5.91796875,6.85546875 7.2509765625,4.1748046875 10.078125,2.4609375 12.2753896713257,0.615234375 14.6484375,0z" />
    </g>
  </g>
</svg>