<?xml version="1.0" encoding="utf-8"?>
<!DOCTYPE svg PUBLIC "-//W3C//DTD SVG 1.1//EN" "http://www.w3.org/Graphics/SVG/1.1/DTD/svg11.dtd">
<svg width="30.1171875" height="41.30859375" xmlns="http://www.w3.org/2000/svg" xmlns:xlink="http://www.w3.org/1999/xlink" xmlns:xml="http://www.w3.org/XML/1998/namespace" version="1.1">
  <g>
    <g>
      <path style="fill:#FF0000;fill-opacity:1" d="M12.48046875,24.31640625L17.40234375,24.7119140625 21.1376953125,25.8984375 24.0087890625,28.0810546875 26.30859375,31.46484375 26.6748046875,32.1826171875 27.0263671875,33.0029296875 27.3046875,33.8232421875 27.421875,34.51171875 27.0703125,35.33203125 26.19140625,35.68359375 25.6201152801514,35.4931640625 25.1953125,34.921875 24.2614727020264,32.713623046875 23.2177734375,30.8935546875 20.5810546875,28.2861328125 16.9921875,26.89453125 14.7509765625,26.5869140625 12.12890625,26.484375 11.2060537338257,26.19140625 10.8984375,25.3125 11.3818349838257,24.5947265625 12.48046875,24.31640625z M18.076171875,5.361328125L21.03515625,5.771484375 23.349609375,7.0166015625 24.84375,9.0966796875 25.37109375,11.982421875 24.9609375,14.1796875 23.818359375,16.1572265625 22.060546875,17.87109375 19.8046875,19.27734375 22.8955078125,20.4345703125 25.7666015625,22.1923828125 28.154296875,24.4482421875 29.794921875,27.099609375 30.087890625,28.564453125 29.94140625,29.3701171875 29.326171875,29.765625 28.7841777801514,29.50927734375 28.212890625,28.740234375 26.7846660614014,26.6455078125 25.1953125,24.931640625 21.6796875,22.470703125 17.900390625,21.1376953125 14.12109375,20.7421875 13.388671875,20.7421875 13.125,20.771484375 12.451171875,19.98046875 12.744140625,19.04296875 13.53515625,18.720703125 14.35546875,18.720703125 15.2197265625,18.603515625 16.81640625,18.2080078125 18.7353515625,17.4755859375 20.5810546875,16.3623046875 21.97265625,14.8095703125 22.529296875,12.7734375 22.236328125,10.792236328125 21.357421875,9.4189453125 19.92919921875,8.616943359375 17.98828125,8.349609375 16.3916015625,8.408203125 14.8974609375,8.671875 13.1689453125,9.2578125 10.869140625,10.283203125 9.5947265625,10.927734375 8.49609375,11.19140625 7.96875,10.986328125 7.763671875,10.458984375 8.14453125,9.3017578125 9.43359375,8.26171875 11.2353515625,7.1923828125 13.3154296875,6.26953125 15.6005859375,5.6103515625 18.076171875,5.361328125z M25.927734375,0L27.4072265625,0.05859375 28.7548828125,0.29296875 29.736328125,0.8203125 30.1171875,1.787109375 29.9267559051514,2.55615377426147 29.35546875,2.8125 28.7255859375,2.7978515625 27.71484375,2.783203125 26.71875,2.7685546875 26.103515625,2.75390625 20.6446838378906,2.97409129142761 15.9136962890625,3.63464450836182 11.9105529785156,4.73556661605835 8.63525390625,6.27685689926147 6.08779907226563,8.25851535797119 4.2681884765625,10.6805429458618 3.17642211914063,13.5429391860962 2.8125,16.845703125 3.21533203125,21.20361328125 4.423828125,25.13671875 6.331787109375,28.612060546875 8.8330078125,31.5966796875 11.8725576400757,34.072265625 15.3955078125,36.0205078125 19.302978515625,37.408447265625 23.49609375,38.203125 24.7265625,38.3642578125 25.751953125,38.408203125 26.6748027801514,38.338623046875 27.216796875,38.1298828125 27.568359375,37.44140625 27.568359375,36.9140625 27.685546875,36.3427734375 28.359375,36.03515625 29.1357421875,36.4306640625 29.560546875,37.353515625 29.736328125,38.4375 29.765625,39.287109375 29.4140605926514,40.80322265625 28.359375,41.30859375 22.37548828125,40.609130859375 16.904296875,39.1552734375 12.0520009994507,36.983642578125 7.9248046875,34.130859375 4.581298828125,30.611572265625 2.08007836341858,26.4404296875 0.520019769668579,21.646728515625 0,16.259765625 0.402832239866257,12.784423828125 1.61132836341858,9.6240234375 3.629150390625,6.837158203125 6.4599609375,4.482421875 10.103759765625,2.58545064926147 14.560546875,1.171875 19.833984375,0.292970180511475 25.927734375,0z" />
    </g>
  </g>
</svg>