<?xml version="1.0" encoding="utf-8"?>
<!DOCTYPE svg PUBLIC "-//W3C//DTD SVG 1.1//EN" "http://www.w3.org/Graphics/SVG/1.1/DTD/svg11.dtd">
<svg width="18.369140625" height="15.439453125" xmlns="http://www.w3.org/2000/svg" xmlns:xlink="http://www.w3.org/1999/xlink" xmlns:xml="http://www.w3.org/XML/1998/namespace" version="1.1">
  <g>
    <g>
      <path style="fill:#FF0000;fill-opacity:1" d="M7.470703125,3.310546875L5.9912109375,3.92578125 4.5703125,5.390625 3.5009765625,7.1923828125 3.076171875,8.7890625 3.8232421875,10.5908203125 4.822998046875,11.231689453125 6.328125,11.77734375 7.9833984375,12.1728515625 9.7998046875,12.451171875 11.630859375,12.626953125 13.30078125,12.685546875 15.146484375,12.1728515625 15.703125,11.162109375 15.4248046875,9.9609375 14.6630859375,8.5546875 13.53515625,7.08984375 12.158203125,5.68359375 9.78515625,3.984375 7.470703125,3.310546875z M9.0234375,0L9.9755859375,0.29296875 11.3525390625,1.0693359375 12.978515625,2.197265625 14.6484375,3.57421875 16.0693359375,4.9365234375 17.255859375,6.298828125 18.0615234375,7.5732421875 18.369140625,8.642578125 18.1787109375,9.5654296875 17.6953125,10.6201171875 17.05078125,11.6748046875 16.40625,12.59765625 15.205078125,14.033203125 14.0185546875,14.8974609375 12.59765625,15.322265625 10.693359375,15.439453125 7.91015625,15.2783203125 5.185546875,14.794921875 3.1494140625,14.12109375 1.494140625,13.154296875 0.39550793170929,11.8798828125 0,10.283203125 0.205078125,8.85498046875 0.8203125,7.3828125 3.017578125,4.39453125 4.21875,3.1494140625 5.830078125,1.69921875 7.529296875,0.498046875 9.0234375,0z" />
    </g>
  </g>
</svg>