<?xml version="1.0" encoding="utf-8"?>
<!DOCTYPE svg PUBLIC "-//W3C//DTD SVG 1.1//EN" "http://www.w3.org/Graphics/SVG/1.1/DTD/svg11.dtd">
<svg width="23.232421875" height="43.59375" xmlns="http://www.w3.org/2000/svg" xmlns:xlink="http://www.w3.org/1999/xlink" xmlns:xml="http://www.w3.org/XML/1998/namespace" version="1.1">
  <g>
    <g>
      <path style="fill:#FF0000;fill-opacity:1" d="M3.33984375,16.46484375L16.875,16.46484375 15.41015625,19.6875 9.78515625,19.6875 7.08984375,21.2548828125 4.921875,23.3203125 7.3974609375,24.3896484375 9.43359375,26.07421875 12.01171875,23.6572265625 13.5937490463257,22.965087890625 15.46875,22.734375 17.6953125,23.173828125 19.248046875,24.3603515625 20.15625,26.1181640625 20.44921875,28.30078125 19.9365234375,31.787109375 18.6767578125,35.859375 17.05078125,39.8876953125 15.46875,43.212890625 14.94140625,43.59375 14.384765625,43.095703125 14.58984375,42.2607421875 14.94140625,41.396484375 16.0107421875,38.349609375 16.9921875,35.15625 17.724609375,32.0947265625 18.017578125,29.4140625 17.77587890625,27.82470703125 17.05078125,26.572265625 15.84228515625,25.75927734375 14.150390625,25.48828125 11.9091796875,25.8837890625 10.01953125,27.0703125 11.572265625,30.9375 11.630859375,31.142578125 11.66015625,31.34765625 11.5283203125,31.669921875 11.19140625,31.81640625 10.6640625,31.46484375 8.9337158203125,29.15771484375 6.99462890625,27.509765625 4.8468017578125,26.52099609375 2.49023461341858,26.19140625 2.16796875,26.19140625 3.5302734375,22.7197265625 5.625,19.6875 1.75781273841858,19.6875 3.33984375,16.46484375z M6.796875,3.22265625L4.365234375,5.21484375 2.87109375,7.060546875 5.39794874191284,7.745361328125 7.822265625,8.9208984375 10.12939453125,10.609130859375 12.3046875,12.83203125 12.1545400619507,9.32373046875 11.7626953125,6.591796875 11.1291494369507,4.57763671875 10.25390625,3.22265625 6.796875,3.22265625z M1.46484375,0L23.232421875,0 22.060546875,3.22265625 22.060546875,21.826171875 21.884765625,22.646484375 21.4453125,22.91015625 20.8740234375,22.529296875 20.7421875,21.884765625 20.7421875,16.46484375 20.537109375,11.220703125 19.9951171875,7.353515625 19.189453125,4.7314453125 18.193359375,3.22265625 13.18359375,3.22265625 13.53515625,5.6103515625 13.65234375,8.26171875 13.59375,15.498046875 10.9240713119507,13.363037109375 8.0712890625,11.7041015625 5.02075147628784,10.638427734375 1.75781273841858,10.283203125 0.79101550579071,10.2978515625 0.351562142372131,10.341796875 1.65527319908142,6.73828125 3.92578125,3.22265625 0,3.22265625 1.46484375,0z" />
    </g>
  </g>
</svg>