<?xml version="1.0" encoding="utf-8"?>
<!DOCTYPE svg PUBLIC "-//W3C//DTD SVG 1.1//EN" "http://www.w3.org/Graphics/SVG/1.1/DTD/svg11.dtd">
<svg width="24.2578125" height="24.08203125" xmlns="http://www.w3.org/2000/svg" xmlns:xlink="http://www.w3.org/1999/xlink" xmlns:xml="http://www.w3.org/XML/1998/namespace" version="1.1">
  <g>
    <g>
      <path style="fill:#FF0000;fill-opacity:1" d="M2.05078125,0L22.265625,0 20.80078125,3.22265625 12.978515625,3.22265625 13.0810546875,4.130859375 13.125,4.98046875 13.06640625,6.2109375 12.890625,7.5 12.6123046875,8.7158203125 12.275390625,9.7265625 15.0732421875,10.8984375 18.22265625,13.3154296875 19.815673828125,15.084228515625 21.3720703125,17.255859375 22.833251953125,19.87060546875 24.140625,22.96875 24.2578125,23.525390625 23.818359375,24.08203125 23.291015625,23.583984375 21.507568359375,20.548095703125 19.6728515625,18.1201171875 17.80517578125,16.22314453125 15.9228515625,14.7802734375 14.0295400619507,13.7548828125 12.12890625,13.1103515625 8.349609375,12.65625 3.6328125,13.2275390625 1.69921875,14.029541015625 0,15.29296875 0.80566394329071,13.2275390625 2.431640625,11.279296875 4.892578125,9.84375 8.203125,9.287109375 9.404296875,9.31640625 10.72265625,9.43359375 10.869140625,8.6572265625 10.927734375,7.96875 10.400390625,5.44921875 8.818359375,3.22265625 0.5859375,3.22265625 2.05078125,0z" />
    </g>
  </g>
</svg>