<?xml version="1.0" encoding="utf-8"?>
<!DOCTYPE svg PUBLIC "-//W3C//DTD SVG 1.1//EN" "http://www.w3.org/Graphics/SVG/1.1/DTD/svg11.dtd">
<svg width="22.587890625" height="28.76953125" xmlns="http://www.w3.org/2000/svg" xmlns:xlink="http://www.w3.org/1999/xlink" xmlns:xml="http://www.w3.org/XML/1998/namespace" version="1.1">
  <g>
    <g>
      <path style="fill:#FF0000;fill-opacity:1" d="M13.7109375,3.22265625L11.044921875,6.591796875 9.2578125,10.3125 12.0300283432007,10.78125 14.8388671875,12.1875 17.728271484375,14.56787109375 20.7421875,17.958984375 20.419921875,12.615966796875 19.8046875,8.4228515625 18.85986328125,5.313720703125 17.548828125,3.22265625 13.7109375,3.22265625z M2.607421875,0L22.587890625,0 21.474609375,3.22265625 21.767578125,5.5224609375 21.943359375,8.203125 22.03125,11.6162109375 22.060546875,16.083984375 22.060546875,21.2109375 18.3544921875,18.0908203125 15.4541015625,15.9521484375 12.6708984375,14.7216796875 9.287109375,14.326171875 8.1591796875,14.3701171875 6.97265625,14.47265625 8.408203125,8.203125 10.95703125,3.22265625 4.74609375,3.22265625 3.834228515625,3.91845703125 3.0908203125,5.068359375 2.0361328125,8.4228515625 1.47949230670929,12.8466796875 1.31835901737213,17.87109375 1.31835901737213,27.83203125 1.10595691204071,28.5205078125 0.585937261581421,28.76953125 0.17578113079071,28.505859375 0,27.83203125 0,4.27734375 2.607421875,0z" />
    </g>
  </g>
</svg>