<?xml version="1.0" encoding="utf-8"?>
<!DOCTYPE svg PUBLIC "-//W3C//DTD SVG 1.1//EN" "http://www.w3.org/Graphics/SVG/1.1/DTD/svg11.dtd">
<svg width="23.232421875" height="21.4453125" xmlns="http://www.w3.org/2000/svg" xmlns:xlink="http://www.w3.org/1999/xlink" xmlns:xml="http://www.w3.org/XML/1998/namespace" version="1.1">
  <g>
    <g>
      <path style="fill:#FF0000;fill-opacity:1" d="M17.080078125,9.66796875L14.9853515625,10.0341796875 13.505859375,11.0009765625 12.626953125,12.392578125 12.333984375,14.033203125 12.6416006088257,15.780029296875 13.564453125,17.1533203125 15.05859375,18.043212890625 17.080078125,18.33984375 18.7646484375,18.0615234375 20.33203125,17.255859375 21.4892578125,15.9521484375 21.943359375,14.150390625 21.6650390625,12.421875 20.80078125,10.986328125 19.2919921875,10.01953125 17.080078125,9.66796875z M5.7421875,9.66796875L3.75,10.13671875 2.3583984375,11.2939453125 1.552734375,12.7587890625 1.2890625,14.150390625 1.669921875,16.083984375 2.7099609375,17.373046875 4.2041015625,18.10546875 5.9765625,18.33984375 7.8515625,18.017578125 9.3017578125,17.109375 10.2392578125,15.703125 10.576171875,13.916015625 10.25390625,12.36328125 9.31640625,11.0009765625 7.79296875,10.0341796875 5.7421875,9.66796875z M2.9296875,0L22.646484375,0 21.181640625,3.22265625 13.2421875,3.22265625 13.30078125,4.189453125 13.30078125,5.2734375 13.154296875,6.97265625 12.451171875,9.345703125 13.212890625,8.5107421875 14.296875,7.6025390625 15.6591796875,6.8701171875 17.28515625,6.5625 20.006103515625,7.064208984375 21.8408203125,8.5693359375 22.8845195770264,10.968017578125 23.232421875,14.150390625 22.79296875,17.197265625 21.5478515625,19.4970703125 19.6142578125,20.947265625 17.080078125,21.4453125 15.289306640625,21.192626953125 13.7841796875,20.4345703125 12.5280752182007,19.207763671875 11.484375,17.548828125 10.4736328125,19.207763671875 9.31640625,20.4345703125 7.8955078125,21.192626953125 6.09375,21.4453125 3.46435546875,20.9765625 1.552734375,19.5703125 0.38818359375,17.24853515625 0,14.033203125 0.40283203125,10.8837890625 1.611328125,8.525390625 3.56689453125,7.05322265625 6.2109375,6.5625 7.825927734375,6.771240234375 9.0966796875,7.3974609375 10.125732421875,8.492431640625 11.015625,10.107421875 10.7666015625,7.3681640625 10.4296875,5.5517578125 9.9169921875,4.27734375 9.169921875,3.22265625 1.46484375,3.22265625 2.9296875,0z" />
    </g>
  </g>
</svg>