<?xml version="1.0" encoding="utf-8"?>
<!DOCTYPE svg PUBLIC "-//W3C//DTD SVG 1.1//EN" "http://www.w3.org/Graphics/SVG/1.1/DTD/svg11.dtd">
<svg width="21.796875" height="18.3984375" xmlns="http://www.w3.org/2000/svg" xmlns:xlink="http://www.w3.org/1999/xlink" xmlns:xml="http://www.w3.org/XML/1998/namespace" version="1.1">
  <g>
    <g>
      <path style="fill:#FF0000;fill-opacity:1" d="M19.6875,0L21.591796875,1.69921875 17.6806640625,5.2880859375 13.59375,9.140625 17.2119140625,12.890625 20.888671875,16.640625 21.5185546875,17.2998046875 21.796875,17.841796875 21.240234375,18.33984375 20.6396484375,18.076171875 19.2041015625,16.9921875 16.435546875,14.6923828125 14.4140625,12.974853515625 11.865234375,10.78125 8.935546875,13.5498046875 6.4892578125,15.87890625 4.716796875,17.5634765625 3.80859375,18.3984375 2.51953101158142,16.962890625 4.04296875,15.5419921875 5.9619140625,13.798828125 8.1591796875,11.806640625 10.517578125,9.638671875 7.734375,7.265625 4.9658203125,4.8779296875 2.34375,2.5634765625 0,0.439453125 5.859375,0.439453125 8.759765625,3.984375 12.36328125,7.880859375 14.58984375,5.7568359375 16.611328125,3.6767578125 18.33984375,1.728515625 19.6875,0z" />
    </g>
  </g>
</svg>