<?xml version="1.0" encoding="utf-8"?>
<!DOCTYPE svg PUBLIC "-//W3C//DTD SVG 1.1//EN" "http://www.w3.org/Graphics/SVG/1.1/DTD/svg11.dtd">
<svg width="33.544921875" height="39.66796875" xmlns="http://www.w3.org/2000/svg" xmlns:xlink="http://www.w3.org/1999/xlink" xmlns:xml="http://www.w3.org/XML/1998/namespace" version="1.1">
  <g>
    <g>
      <path style="fill:#FF0000;fill-opacity:1" d="M16.9921875,10.400390625L12.744140625,11.1328125 9.4921875,13.18359375 7.4267578125,16.3330078125 6.708984375,20.361328125 7.353515625,24.9169921875 9.287109375,28.271484375 12.50244140625,30.3369140625 16.9921875,31.025390625 19.31396484375,30.802001953125 21.357421875,30.1904296875 24.5654296875,27.9638671875 26.54296875,24.5947265625 27.216796875,20.361328125 26.923828125,18.28125 26.0595703125,16.0546875 24.6240234375,13.9306640625 22.6171875,12.12890625 20.068359375,10.869140625 16.9921875,10.400390625z M16.34765625,0L16.8603515625,0.029296875 17.255859375,0.05859375 21.3024883270264,0.640870571136475 24.7119140625,1.5087890625 27.5207500457764,2.662353515625 29.765625,4.1015625 31.46484375,5.830078125 32.63671875,7.8515625 33.31787109375,10.17333984375 33.544921875,12.802734375 33.28857421875,15.41748046875 32.578125,17.578125 31.32568359375,19.29931640625 29.443359375,20.595703125 28.2275390625,25.927734375 25.751953125,29.8974609375 24.0417461395264,31.3330078125 22.0166015625,32.3876953125 19.669189453125,33.035888671875 16.9921875,33.251953125 12.220458984375,32.5341796875 8.6279296875,30.380859375 6.177978515625,26.89453125 4.833984375,22.177734375 3.629150390625,23.433837890625 2.7685546875,25.2392578125 2.252197265625,27.593994140625 2.080078125,30.498046875 2.3016357421875,32.1597290039063 2.96630859375,33.599853515625 4.0740966796875,34.8184204101563 5.625,35.8154296875 7.61535596847534,36.5908813476563 10.0415029525757,37.144775390625 12.9034414291382,37.4771118164063 16.201171875,37.587890625 17.373046875,37.587890625 18.2080078125,37.822265625 18.486328125,38.525390625 17.958984375,39.4775390625 16.494140625,39.66796875 15.64453125,39.66796875 11.9778442382813,39.5283508300781 8.800048828125,39.1094970703125 6.11114501953125,38.4114074707031 3.9111328125,37.43408203125 2.20001220703125,36.1775207519531 0.977783203125,34.6417236328125 0.24444580078125,32.8266906738281 0,30.732421875 0.2783203125,26.905517578125 1.11328125,23.7451171875 2.60009765625,21.192626953125 4.833984375,19.189453125 5.064697265625,17.047119140625 5.7568359375,15.0146484375 8.3203125,11.54296875 12.1728515625,9.169921875 14.483642578125,8.5107421875 16.9921875,8.291015625 21.298828125,8.9501953125 24.6826171875,10.83984375 27.24609375,13.8427734375 29.091796875,17.841796875 30.322265625,16.9189453125 30.966796875,15.7470703125 31.2158203125,14.4287109375 31.259765625,13.037109375 30.64453125,8.9501953125 29.761962890625,7.353515625 28.3447265625,5.9912109375 26.3378887176514,4.833984375 23.6865234375,3.8525390625 20.284423828125,2.999267578125 16.025390625,2.2265625 15.263671875,1.875 14.970703125,1.259765625 15.3662109375,0.29296875 16.34765625,0z" />
    </g>
  </g>
</svg>