<?xml version="1.0" encoding="utf-8"?>
<!DOCTYPE svg PUBLIC "-//W3C//DTD SVG 1.1//EN" "http://www.w3.org/Graphics/SVG/1.1/DTD/svg11.dtd">
<svg width="30.732421875" height="16.81640625" xmlns="http://www.w3.org/2000/svg" xmlns:xlink="http://www.w3.org/1999/xlink" xmlns:xml="http://www.w3.org/XML/1998/namespace" version="1.1">
  <g>
    <g>
      <path style="fill:#FF0000;fill-opacity:1" d="M6.97265625,14.6484375L8.4375,14.82421875 9.9609375,14.6484375 10.3125,16.640625 8.4375,16.81640625 6.5625,16.640625 6.97265625,14.6484375z M14.0625,11.6015625L15.703125,12.7734375 13.06640625,15.3515625 11.953125,13.7109375 14.0625,11.6015625z M2.8125,11.6015625L4.98046875,13.7109375 3.80859375,15.3515625 1.171875,12.7734375 2.8125,11.6015625z M16.69921875,6.62109375L16.875,8.4375 16.69921875,10.1953125 14.6484375,9.84375 14.82421875,8.4375 14.6484375,6.85546875 16.69921875,6.62109375z M0.17578125,6.62109375L2.2265625,6.85546875 2.05078125,8.4375 2.2265625,9.84375 0.17578125,10.1953125 0,8.4375 0.17578125,6.62109375z M13.06640625,1.40625L15.703125,3.984375 14.0625,5.21484375 11.953125,3.10546875 13.06640625,1.40625z M3.80859375,1.40625L4.98046875,3.10546875 2.8125,5.21484375 1.171875,3.984375 3.80859375,1.40625z M8.4375,0L9.345703125,0.05859375 10.3125,0.234375 9.9609375,2.16796875 8.4375,1.9921875 6.97265625,2.16796875 6.5625,0.234375 7.529296875,0.05859375 8.4375,0z" />
      <path style="fill:#FF0000;fill-opacity:1" d="M23.02734375,2.4609375L22.5732421875,2.783203125 21.9287109375,3.544921875 21.298828125,4.453125 20.859375,5.21484375 20.8447265625,5.8154296875 20.8154296875,6.943359375 20.7861328125,8.115234375 20.771484375,8.818359375 21.4306640625,8.701171875 21.97265625,8.49609375 22.529296875,8.2177734375 23.26171875,7.8515625 22.939453125,6.8994140625 22.79296875,5.9765625 22.91015625,5.3466796875 23.349609375,4.98046875 23.759765625,5.2294921875 24.0234375,5.80078125 24.2431640625,6.474609375 24.4921875,7.03125 25.13671875,6.2841796875 25.8984375,5.33203125 25.1220703125,4.423828125 24.287109375,3.486328125 23.5400390625,2.75390625 23.02734375,2.4609375z M7.67578125,2.4609375L7.1630859375,2.75390625 6.416015625,3.486328125 5.5810546875,4.423828125 4.8046875,5.33203125 5.56640625,6.2841796875 6.2109375,7.03125 6.4599609375,6.474609375 6.6796875,5.80078125 6.943359375,5.2294921875 7.353515625,4.98046875 7.79296875,5.3466796875 7.91015625,5.9765625 7.763671875,6.8994140625 7.44140625,7.8515625 8.2177734375,8.2177734375 8.8623046875,8.49609375 9.4921875,8.701171875 10.224609375,8.818359375 10.2099609375,8.115234375 10.1806640625,6.943359375 10.1513671875,5.8154296875 10.13671875,5.21484375 9.6533203125,4.453125 8.9208984375,3.544921875 8.173828125,2.783203125 7.67578125,2.4609375z M15.52734375,1.69921875L14.6923828125,2.0947265625 13.6962890625,3.0615234375 12.685546875,4.2919921875 11.806640625,5.44921875 11.9091796875,6.2109375 11.9677734375,7.20703125 11.9970703125,8.26171875 12.01171875,9.19921875 13.0810556411743,9.375 14.765625,9.43359375 14.765625,6.5625 14.82421875,6.2109375 14.970703125,5.7421875 15.205078125,5.33203125 15.52734375,5.15625 15.8349609375,5.361328125 16.0693359375,5.7568359375 16.2158203125,6.2109375 16.259765625,6.5625 16.259765625,9.43359375 17.9443359375,9.375 19.013671875,9.19921875 19.013671875,8.26171875 19.072265625,6.6943359375 19.21875,5.44921875 18.33984375,4.3359375 17.34375,3.10546875 16.3623046875,2.109375 15.52734375,1.69921875z M15.498046875,0L16.5380859375,0.3662109375 17.6953125,1.2890625 18.8671875,2.4755859375 19.951171875,3.6328125 20.830078125,2.63671875 21.6357421875,1.728515625 22.412109375,1.0693359375 23.173828125,0.8203125 24.111328125,1.2451171875 25.2099609375,2.2265625 26.2060546875,3.2958984375 26.8359375,3.984375 27.65625,3.017578125 28.212890625,2.197265625 28.65234375,1.6259765625 29.12109375,1.40625 29.6337890625,1.69921875 29.82421875,2.2265625 29.6044921875,2.900390625 29.1064453125,3.7646484375 28.5205078125,4.62890625 28.037109375,5.302734375 28.857421875,6.15234375 29.736328125,7.0751953125 30.439453125,7.9248046875 30.732421875,8.583984375 30.1171875,9.31640625 29.4873046875,9.0234375 28.6962890625,8.3203125 27.8466796875,7.44140625 27.0703125,6.62109375 25.4296875,8.5546875 25.8251953125,9.19921875 26.3525390625,9.8291015625 26.8798828125,10.400390625 27.275390625,10.83984375 27.685546875,11.337890625 27.978515625,11.953125 27.6416015625,12.4951171875 27.1875,12.71484375 26.54296875,12.451171875 25.7373046875,11.7626953125 24.84375,10.7958984375 23.935546875,9.66796875 23.203125,10.048828125 22.7197265625,10.3857421875 22.08984375,10.6787109375 20.947265625,10.8984375 21.15234375,12.3779296875 21.357421875,13.18359375 21.5185546875,13.6962890625 21.591796875,14.296875 21.4453125,14.7216796875 20.91796875,14.912109375 20.068359375,14.501953125 19.5556640625,13.4912109375 19.27734375,12.2314453125 19.130859375,11.07421875 16.259765625,11.25 16.23046875,14.091796875 16.1572265625,14.8681640625 15.498046875,15.234375 14.8681640625,14.8681640625 14.794921875,14.091796875 14.765625,11.25 11.89453125,11.07421875 11.748046875,12.2314453125 11.4697265625,13.4912109375 10.95703125,14.501953125 10.107421875,14.912109375 9.580078125,14.7216796875 9.43359375,14.296875 9.5068359375,13.6962890625 9.66796875,13.18359375 9.873046875,12.3779296875 10.078125,10.8984375 8.8916015625,10.6787109375 8.173828125,10.400390625 7.587890625,10.0634765625 6.796875,9.66796875 5.888671875,10.7958984375 4.9951171875,11.7626953125 4.189453125,12.451171875 3.544921875,12.71484375 3.0908203125,12.4951171875 2.75390601158142,11.953125 3.046875,11.337890625 3.45703148841858,10.83984375 3.8525390625,10.400390625 4.3798828125,9.8291015625 4.9072265625,9.19921875 5.302734375,8.5546875 3.66210913658142,6.62109375 2.8857421875,7.44140625 2.0361328125,8.3203125 1.24511742591858,9.0234375 0.61523449420929,9.31640625 0,8.583984375 0.29296863079071,7.9248046875 0.996093511581421,7.0751953125 1.87499976158142,6.15234375 2.6953125,5.302734375 2.2119140625,4.62890625 1.61132800579071,3.7646484375 1.11328125,2.900390625 0.908203125,2.2265625 1.0986328125,1.69921875 1.61132800579071,1.40625 2.10937476158142,1.640625 2.54882788658142,2.2412109375 3.0908203125,3.076171875 3.89648413658142,3.984375 4.51171875,3.2958984375 5.4931640625,2.2265625 6.591796875,1.2451171875 7.55859375,0.8203125 8.7890625,1.34765625 10.13671875,2.63671875 11.07421875,3.6328125 12.12890625,2.4755859375 13.30078125,1.2890625 14.4580078125,0.3662109375 15.498046875,0z" />
    </g>
  </g>
</svg>