<?xml version="1.0" encoding="utf-8"?>
<!DOCTYPE svg PUBLIC "-//W3C//DTD SVG 1.1//EN" "http://www.w3.org/Graphics/SVG/1.1/DTD/svg11.dtd">
<svg width="33.5742187500005" height="43.41796875" xmlns="http://www.w3.org/2000/svg" xmlns:xlink="http://www.w3.org/1999/xlink" xmlns:xml="http://www.w3.org/XML/1998/namespace" version="1.1">
  <g>
    <g>
      <path style="fill:#FF0000;fill-opacity:1" d="M22.060546875,0L24.052734375,0.6298828125 25.986328125,2.021484375 27.6123046875,3.4130859375 28.7109375,4.04296875 30.029296875,3.4130859375 30.90087890625,2.574462890625 31.9921875,1.318359375 32.490234375,0.703125 33.57421875,1.669921875 31.728515625,3.9697265625 29.7216796875,6.064453125 27.7880859375,7.587890625 26.19140625,8.173828125 24.638671875,7.529296875 22.79296875,5.9765625 20.80078125,4.1015625 18.80859375,2.51953125 17.373046875,3.6474609375 16.0400390625,5.595703125 15.0439453125,8.115234375 14.6484375,10.927734375 14.853515625,12.1398944854736 15.46875,13.4326171875 17.5048828125,16.142578125 20.15625,18.8818359375 22.8076171875,21.50390625 24.84375,23.8623046875 25.4589824676514,24.891357421875 25.6640625,25.78125 25.01953125,28.1103515625 23.4521484375,30.29296875 21.5478515625,32.1533203125 19.892578125,33.515625 18.69140625,32.34375 20.068359375,31.0107421875 20.8740234375,30.05859375 21.2548828125,29.296875 21.357421875,28.53515625 20.6103515625,26.71875 18.75,24.55078125 16.34765625,22.177734375 13.9453125,19.716796875 12.0849609375,17.2998046875 11.337890625,15.029296875 11.7333984375,11.7919921875 12.7734375,8.5986328125 14.1796875,5.7568359375 15.703125,3.515625 13.9892578125,4.4091796875 11.748046875,5.9033203125 9.345703125,8.14453125 7.177734375,11.3232421875 5.595703125,15.615234375 4.98046875,21.15234375 5.625,27.158203125 7.3974609375,31.7724609375 10.048828125,35.126953125 13.3154296875,37.3681640625 16.962890625,38.61328125 20.7421875,38.994140625 23.466796875,38.818359375 25.9716796875,38.349609375 28.1689453125,37.67578125 29.912109375,36.85546875 31.81640625,34.453125 33.017578125,35.44921875 31.5966796875,37.353515625 30.1904296875,39.111328125 28.8720703125,40.60546875 27.744140625,41.748046875 26.0009765625,42.4658203125 24.169921875,42.978515625 22.119140625,43.30078125 19.716796875,43.41796875 15.377197265625,43.0517578125 11.4990234375,41.953125 8.126220703125,40.191650390625 5.302734375,37.8369140625 3.04687428474426,34.918212890625 1.37695240974426,31.46484375 0.344237834215164,27.5537109375 0,23.26171875 0.281982034444809,19.8779296875 1.12792944908142,16.69921875 4.1015625,11.0302734375 8.3056640625,6.4013671875 13.125,2.9443359375 17.9150390625,0.76171875 20.115966796875,0.1904296875 22.060546875,0z" />
    </g>
  </g>
</svg>