<?xml version="1.0" encoding="utf-8"?>
<!DOCTYPE svg PUBLIC "-//W3C//DTD SVG 1.1//EN" "http://www.w3.org/Graphics/SVG/1.1/DTD/svg11.dtd">
<svg width="25.546875" height="45.439453125" xmlns="http://www.w3.org/2000/svg" xmlns:xlink="http://www.w3.org/1999/xlink" xmlns:xml="http://www.w3.org/XML/1998/namespace" version="1.1">
  <g>
    <g>
      <path style="fill:#FF0000;fill-opacity:1" d="M4.54101514816284,0L6.357421875,0 5.185546875,2.724609375 25.546875,2.724609375 25.546875,3.984375 23.3056640625,7.060546875 20.56640625,10.458984375 17.5341796875,13.88671875 14.443359375,17.021484375 14.443359375,17.138671875 16.8310546875,17.6953144073486 18.955078125,18.662109375 22.32421875,21.474609375 24.4189453125,25.0634765625 25.13671875,28.9453125 24.9243144989014,31.402587890625 24.287109375,33.6767578125 21.9580078125,37.67578125 18.486328125,40.9130859375 14.1796875,43.3154296875 9.3603515625,44.8388671875 4.365234375,45.439453125 0,41.015625 3.57421875,37.470703125 9.0234375,42.94921875 11.42578125,42.4951171875 14.0185546875,41.5576171875 16.5234375,40.048828125 18.662109375,37.8955078125 20.15625,35.0390625 20.712890625,31.40625 20.06103515625,27.39990234375 18.10546875,24.169921875 14.8681640625,21.86279296875 10.37109375,20.625 6.41601610183716,23.49609375 5.302734375,22.001953125 9.931640625,18.544921875 14.0625,14.82421875 17.6513671875,10.986328125 20.68359375,7.20703125 9.287109375,7.20703125 7.445068359375,7.2216796875 6.0205078125,7.265625 4.05761671066284,7.470703125 2.87109375,7.8662109375 1.93359339237213,8.525390625 1.05468714237213,7.8515625 4.54101514816284,0z" />
    </g>
  </g>
</svg>