<?xml version="1.0" encoding="utf-8"?>
<!DOCTYPE svg PUBLIC "-//W3C//DTD SVG 1.1//EN" "http://www.w3.org/Graphics/SVG/1.1/DTD/svg11.dtd">
<svg width="28.916015625" height="44.4140625" xmlns="http://www.w3.org/2000/svg" xmlns:xlink="http://www.w3.org/1999/xlink" xmlns:xml="http://www.w3.org/XML/1998/namespace" version="1.1">
  <g>
    <g>
      <path style="fill:#FF0000;fill-opacity:1" d="M9.4921875,0L14.296875,0 13.154296875,5.302734375 22.880859375,5.302734375 22.060546875,9.19921875 12.333984375,9.19921875 9.7265625,21.4453125 9.84375,21.4453125 12.216796875,18.3544921875 14.9560546875,15.8935546875 18.0029296875,14.267578125 21.298828125,13.681640625 24.5947246551514,14.2346210479736 26.982421875,15.8935546875 28.4326152801514,18.5192890167236 28.916015625,21.97265625 28.8134765625,23.1298828125 28.5791015625,24.78515625 28.2861328125,26.5283203125 27.978515625,27.978515625 24.4921875,44.4140625 19.62890625,44.4140625 23.291015625,26.8359375 23.525390625,25.751953125 23.73046875,24.521484375 23.876953125,23.3935546875 23.935546875,22.587890625 23.6755352020264,20.5590839385986 22.8955078125,19.04296875 21.573486328125,18.0981464385986 19.6875,17.783203125 17.8125,18.0578632354736 15.9375,18.8818359375 12.451171875,21.7236328125 9.6533203125,25.6201171875 7.998046875,29.8828125 4.86328125,44.4140625 0,44.4140625 7.529296875,9.19921875 3.57421851158142,9.19921875 4.39453125,5.302734375 8.349609375,5.302734375 9.4921875,0z" />
    </g>
  </g>
</svg>