<?xml version="1.0" encoding="utf-8"?>
<!DOCTYPE svg PUBLIC "-//W3C//DTD SVG 1.1//EN" "http://www.w3.org/Graphics/SVG/1.1/DTD/svg11.dtd">
<svg width="41.015625" height="43.18359375" xmlns="http://www.w3.org/2000/svg" xmlns:xlink="http://www.w3.org/1999/xlink" xmlns:xml="http://www.w3.org/XML/1998/namespace" version="1.1">
  <g>
    <g>
      <path style="fill:#FF0000;fill-opacity:1" d="M32.63671875,24.7265625L31.116943359375,24.9188232421875 29.7216796875,25.49560546875 28.450927734375,26.4569091796875 27.3046875,27.802734375 25.6787090301514,31.025390625 25.13671875,34.541015625 25.4296855926514,36.8994140625 26.3085918426514,38.583984375 27.7734355926514,39.5947265625 29.82421875,39.931640625 32.633056640625,39.20654296875 34.9658203125,37.03125 36.536865234375,33.87451171875 37.060546875,30.205078125 36.7840576171875,27.8082275390625 35.95458984375,26.09619140625 34.5721435546875,25.0689697265625 32.63671875,24.7265625z M32.724609375,21.50390625L36.15966796875,22.0751953125 38.7890625,23.7890625 40.458984375,26.4990234375 41.015625,30.05859375 40.8132934570313,32.6229858398438 40.206298828125,35.013427734375 39.1946411132813,37.2299194335938 37.7783203125,39.2724609375 36.0598754882813,40.9835815429688 34.141845703125,42.205810546875 32.0242309570313,42.9391479492188 29.70703125,43.18359375 26.0632305145264,42.5830078125 23.3935546875,40.78125 21.7565898895264,38.0126953125 21.2109375,34.51171875 21.4160137176514,31.9866943359375 22.0312480926514,29.62646484375 23.0566387176514,27.4310302734375 24.4921875,25.400390625 26.2371826171875,23.6956787109375 28.19091796875,22.47802734375 30.3533935546875,21.7474365234375 32.724609375,21.50390625z M35.9765625,0.5859375L40.3125,0.5859375 4.306640625,42.59765625 0,42.59765625 35.9765625,0.5859375z M13.30078125,0L16.34033203125,0.3662109375 18.779296875,1.46484375 17.841796875,5.361328125 15.44677734375,3.88916015625 12.890625,3.3984375 9.77416896820068,4.112548828125 7.3388671875,6.2548828125 5.767822265625,9.327392578125 5.244140625,12.83203125 5.526123046875,15.2417001724243 6.3720703125,16.9628925323486 7.781982421875,17.9956073760986 9.755859375,18.33984375 12.509765625,17.7612323760986 15.732421875,16.025390625 14.82421875,20.15625 11.9091796875,21.32080078125 9.140625,21.708984375 5.80810546875,21.126708984375 3.310546875,19.3798828125 1.75048828125,16.6442890167236 1.23046875,13.095703125 1.439208984375,10.4132080078125 2.0654296875,7.96142578125 3.109130859375,5.7403564453125 4.5703125,3.75 6.36840772628784,2.109375 8.42285060882568,0.9375 10.7336416244507,0.234375 13.30078125,0z" />
    </g>
  </g>
</svg>