<?xml version="1.0" encoding="utf-8"?>
<!DOCTYPE svg PUBLIC "-//W3C//DTD SVG 1.1//EN" "http://www.w3.org/Graphics/SVG/1.1/DTD/svg11.dtd">
<svg width="31.025390625" height="33.134765625" xmlns="http://www.w3.org/2000/svg" xmlns:xlink="http://www.w3.org/1999/xlink" xmlns:xml="http://www.w3.org/XML/1998/namespace" version="1.1">
  <g>
    <g>
      <path style="fill:#FF0000;fill-opacity:1" d="M15.3515625,2.109375L12.8924551010132,2.33459568023682 10.6420888900757,3.01025533676147 8.60046291351318,4.13635349273682 6.767578125,5.712890625 6.767578125,14.4140625 24.228515625,14.4140625 24.228515625,5.712890625 22.2454833984375,4.13635349273682 20.10498046875,3.01025533676147 17.8070068359375,2.33459568023682 15.3515625,2.109375z M15.380859375,0L18.4277324676514,0.260010033845901 21.2402324676514,1.04003977775574 23.8183574676514,2.34008860588074 26.162109375,4.16015625 28.135986328125,6.49658203125 29.6044921875,9.345703125 30.567626953125,12.70751953125 31.025390625,16.58203125 6.767578125,16.58203125 6.796875,27.421875 8.65722560882568,28.9727783203125 10.7226552963257,30.08056640625 12.9931631088257,30.7452392578125 15.46875,30.966796875 18.9935283660889,30.5181884765625 22.0971660614014,29.17236328125 24.7796611785889,26.9293212890625 27.041015625,23.7890625 29.150390625,25.01953125 26.0632305145264,28.817138671875 22.8955078125,31.3037109375 19.442138671875,32.677001953125 15.498046875,33.134765625 12.1810913085938,32.8390502929688 9.202880859375,31.951904296875 6.56341552734375,30.4733276367188 4.2626953125,28.4033203125 2.39776611328125,25.8901977539063 1.065673828125,23.082275390625 0.26641845703125,19.9795532226563 0,16.58203125 0.27191162109375,13.040771484375 1.087646484375,9.8583984375 2.44720458984375,7.034912109375 4.3505859375,4.5703125 6.67144775390625,2.57080149650574 9.283447265625,1.14257884025574 12.1865844726563,0.285644799470901 15.380859375,0z" />
    </g>
  </g>
</svg>