<?xml version="1.0" encoding="utf-8"?>
<!DOCTYPE svg PUBLIC "-//W3C//DTD SVG 1.1//EN" "http://www.w3.org/Graphics/SVG/1.1/DTD/svg11.dtd">
<svg width="43.798828125" height="40.634765625" xmlns="http://www.w3.org/2000/svg" xmlns:xlink="http://www.w3.org/1999/xlink" xmlns:xml="http://www.w3.org/XML/1998/namespace" version="1.1">
  <g>
    <g>
      <path style="fill:#FF0000;fill-opacity:1" d="M24.4921875,3.251953125L20.771484375,20.068359375 25.72265625,20.68359375 28.9746074676514,20.350341796875 31.58203125,19.3505859375 33.55224609375,17.794189453125 34.892578125,15.791015625 35.66162109375,13.4252948760986 35.91796875,10.78125 35.3173828125,7.55127048492432 33.515625,5.185546875 32.08740234375,4.339599609375 30.2050762176514,3.7353515625 27.8686504364014,3.372802734375 25.078125,3.251953125 24.4921875,3.251953125z M22.79296875,0L24.345703125,0 28.5974102020264,0.113525390625 31.9189453125,0.4541015625 36.9287109375,2.0947265625 38.818359375,3.475341796875 40.1806640625,5.244140625 41.004638671875,7.37548828125 41.279296875,9.84375 40.5908203125,13.916015625 38.671875,17.431640625 35.6689453125,20.3173828125 32.16796875,22.265625 29.443359375,22.96875 31.4208984375,28.53515625 32.43896484375,31.138916015625 33.2373046875,32.9736328125 34.4970703125,35.3173828125 35.654296875,36.6064453125 37.001953125,37.001953125 39.19921875,36.357421875 40.400390625,35.36865234375 42.0703125,33.69140625 43.798828125,35.244140625 41.5576171875,37.63916015625 39.404296875,39.31640625 37.1484375,40.30517578125 34.599609375,40.634765625 31.7138671875,40.0634765625 29.7216796875,38.5107421875 28.271484375,36.0205078125 27.4804668426514,34.017333984375 26.396484375,31.025390625 23.935546875,23.4375 20.068359375,23.173828125 18.720703125,29.912109375 18.233642578125,31.9775390625 17.6513671875,33.662109375 16.259765625,36.181640625 14.6044921875,37.939453125 12.3779296875,39.375 9.7705078125,40.3564453125 7.119140625,40.634765625 5.009765625,40.323486328125 3.13476538658142,39.3896484375 1.47216796875,37.818603515625 0,35.595703125 3.98437523841858,33.310546875 5.19287109375,35.423583984375 6.357421875,36.8994140625 7.55859327316284,37.767333984375 8.876953125,38.056640625 10.283203125,37.7783203125 11.5576171875,36.6796875 12.5537109375,34.365234375 13.0480947494507,32.40966796875 13.681640625,29.53125 17.4609375,11.25 18.6767578125,7.1923828125 20.5078125,3.603515625 20.44921875,3.310546875 17.4142456054688,3.3856201171875 14.842529296875,3.61083984375 12.7340698242188,3.9862060546875 11.0888671875,4.51171875 8.968505859375,6.1376953125 8.26171875,8.61328125 8.51806640625,10.2685565948486 9.287109375,12.24609375 4.775390625,14.00390625 3.85253930091858,12.0263671875 3.57421851158142,9.990234375 4.306640625,7.470703125 5.50048828125,5.899658203125 7.265625,4.2919921875 11.4990234375,1.6845703125 16.376953125,0.322265625 19.06494140625,0.08056640625 22.79296875,0z" />
    </g>
  </g>
</svg>