<?xml version="1.0" encoding="utf-8"?>
<!DOCTYPE svg PUBLIC "-//W3C//DTD SVG 1.1//EN" "http://www.w3.org/Graphics/SVG/1.1/DTD/svg11.dtd">
<svg width="30.205078125" height="44.4140625" xmlns="http://www.w3.org/2000/svg" xmlns:xlink="http://www.w3.org/1999/xlink" xmlns:xml="http://www.w3.org/XML/1998/namespace" version="1.1">
  <g>
    <g>
      <path style="fill:#FF0000;fill-opacity:1" d="M15.322265625,9.052734375L15.322265625,24.08203125 16.552734375,24.08203125 19.8486328125,23.701171875 22.587890625,22.44140625 24.4482421875,20.1123046875 25.13671875,16.552734375 24.462890625,13.0078125 22.5146484375,10.693359375 19.423828125,9.43359375 15.322265625,9.052734375z M10.400390625,0L15.322265625,0 15.322265625,4.599609375 19.0393047332764,4.808349609375 22.1630859375,5.4345703125 24.7265605926514,6.4453125 26.7626953125,7.8076171875 28.297119140625,9.510498046875 29.35546875,11.54296875 29.970703125,13.8793964385986 30.17578125,16.494140625 29.945068359375,19.0905780792236 29.2529296875,21.4306640625 28.121337890625,23.4814453125 26.572265625,25.2099609375 24.6203594207764,26.6015625 22.2802734375,27.6416015625 19.5812969207764,28.289794921875 16.552734375,28.505859375 15.322265625,28.505859375 15.322265625,39.9609375 30.205078125,39.9609375 30.205078125,44.4140625 10.400390625,44.4140625 10.400390625,9.052734375 4.921875,9.052734375 4.921875,33.28125 0,33.28125 0,4.599609375 10.400390625,4.599609375 10.400390625,0z" />
    </g>
  </g>
</svg>