<?xml version="1.0" encoding="utf-8"?>
<!DOCTYPE svg PUBLIC "-//W3C//DTD SVG 1.1//EN" "http://www.w3.org/Graphics/SVG/1.1/DTD/svg11.dtd">
<svg width="39.287109375" height="42.01171875" xmlns="http://www.w3.org/2000/svg" xmlns:xlink="http://www.w3.org/1999/xlink" xmlns:xml="http://www.w3.org/XML/1998/namespace" version="1.1">
  <g>
    <g>
      <path style="fill:#FF0000;fill-opacity:1" d="M33.662109375,7.44140625L27.94921875,34.3359375 31.494140625,30.2490234375 33.9404296875,25.4150390625 35.3466796875,20.2001953125 35.80078125,14.970703125 35.2294921875,10.6640625 33.662109375,7.44140625z M17.783203125,2.9296875L10.078125,39.08203125 14.4140625,39.08203125 19.921875,38.4521484375 24.521484375,36.708984375 31.201171875,5.09765625 27.2607421875,3.427734375 22.79296875,2.9296875 17.783203125,2.9296875z M11.25,2.9296875L3.54492211341858,39.08203125 7.1484375,39.08203125 14.853515625,2.9296875 11.25,2.9296875z M8.935546875,0L23.02734375,0 26.4807109832764,0.24169921875 29.6337890625,0.966796875 32.420654296875,2.16064453125 34.775390625,3.80859375 36.676025390625,5.906982421875 38.1005859375,8.4521484375 38.990478515625,11.4294452667236 39.287109375,14.82421875 38.822021484375,20.738525390625 37.4267578125,26.0595703125 35.189208984375,30.714111328125 32.197265625,34.62890625 28.4912090301514,37.767333984375 24.111328125,40.0927734375 19.15283203125,41.531982421875 13.7109375,42.01171875 0,42.01171875 8.935546875,0z" />
    </g>
  </g>
</svg>