<?xml version="1.0" encoding="utf-8"?>
<!DOCTYPE svg PUBLIC "-//W3C//DTD SVG 1.1//EN" "http://www.w3.org/Graphics/SVG/1.1/DTD/svg11.dtd">
<svg width="36.03515625" height="33.603515625" xmlns="http://www.w3.org/2000/svg" xmlns:xlink="http://www.w3.org/1999/xlink" xmlns:xml="http://www.w3.org/XML/1998/namespace" version="1.1">
  <g>
    <g>
      <path style="fill:#FF0000;fill-opacity:1" d="M0.146484136581421,0L6.357421875,0 20.244140625,15.732421875 22.9980449676514,14.864501953125 25.107421875,13.8427734375 26.6857891082764,12.659912109375 27.8466796875,11.30859375 29.1650390625,8.0859375 29.765625,4.1015625 30.205078125,0 35.09765625,0 34.716796875,3.896484375 34.266357421875,6.92138814926147 33.5595703125,9.55078125 31.2890625,13.7841796875 27.7880859375,16.81640625 22.939453125,18.837890625 36.03515625,33.603515625 30.029296875,33.603515625 12.12890625,13.41796875 10.3051748275757,14.296875 8.876953125,15.234375 6.943359375,17.5927734375 5.91796875,20.9326171875 5.63232421875,23.096923828125 5.419921875,25.693359375 4.892578125,33.603515625 0,33.603515625 0.5859375,25.693359375 1.1865234375,20.6396484375 2.607421875,16.4794921875 5.2734375,13.1396484375 7.19970703125,11.751708984375 9.638671875,10.546875 0.146484136581421,0z" />
    </g>
  </g>
</svg>