<?xml version="1.0" encoding="utf-8"?>
<!DOCTYPE svg PUBLIC "-//W3C//DTD SVG 1.1//EN" "http://www.w3.org/Graphics/SVG/1.1/DTD/svg11.dtd">
<svg width="20.126953125" height="35.15625" xmlns="http://www.w3.org/2000/svg" xmlns:xlink="http://www.w3.org/1999/xlink" xmlns:xml="http://www.w3.org/XML/1998/namespace" version="1.1">
  <g>
    <g>
      <path style="fill:#FF0000;fill-opacity:1" d="M2.431640625,0L10.869140625,2.28515625 13.1103515625,3.369140625 14.384765625,5.126953125 14.970703125,7.6318359375 15.1171875,10.927734375 15.1171875,17.16796875 15.4541015625,20.09765625 16.23046875,22.91015625 20.126953125,34.453125 15.322265625,34.453125 11.865234375,23.818359375 11.1328125,26.0595703125 10.224609375,27.8759765625 8.9794921875,29.4287109375 7.265625,30.87890625 4.951171875,32.3876953125 1.87499988079071,34.130859375 0,35.15625 0,29.794921875 1.61132824420929,28.88671875 4.83398389816284,26.9677734375 7.1923828125,25.2685546875 8.818359375,23.5546875 9.8291015625,21.591796875 10.341796875,19.16015625 10.48828125,16.025390625 10.48828125,11.8359375 10.4443359375,9.5947265625 10.2099609375,8.0712890625 9.638671875,7.1337890625 8.61328125,6.62109375 2.431640625,5.0390625 2.431640625,0z" />
    </g>
  </g>
</svg>