<?xml version="1.0" encoding="utf-8"?>
<!DOCTYPE svg PUBLIC "-//W3C//DTD SVG 1.1//EN" "http://www.w3.org/Graphics/SVG/1.1/DTD/svg11.dtd">
<svg width="43.30078125" height="43.388671875" xmlns="http://www.w3.org/2000/svg" xmlns:xlink="http://www.w3.org/1999/xlink" xmlns:xml="http://www.w3.org/XML/1998/namespace" version="1.1">
  <g>
    <g>
      <path style="fill:#FF0000;fill-opacity:1" d="M29.033203125,26.77734375L25.8288555145264,28.14697265625 23.5400390625,29.736328125 22.166748046875,31.67724609375 21.708984375,34.1015625 22.2509765625,36.5771484375 23.6279296875,38.2763671875 25.5029296875,39.2431640625 27.5390625,39.55078125 30.146484375,39.140625 32.138671875,37.9833984375 33.3984375,36.1669921875 33.837890625,33.779296875 33.4716796875,31.5380859375 32.4462890625,29.560546875 30.908203125,27.94921875 29.033203125,26.77734375z M29.033203125,4.16015625L24.9169921875,4.6435546875 21.4892578125,5.947265625 18.6328125,7.822265625 16.259765625,10.01953125 17.955322265625,12.6086444854736 19.5263671875,14.8095703125 22.587890625,18.2666015625 25.8984375,20.7421875 29.94140625,22.587890625 33.3251953125,20.9619140625 35.9912109375,18.8525390625 37.7490234375,16.025390625 38.37890625,12.24609375 37.646484375,8.73046875 35.654296875,6.1962890625 32.6953125,4.6728515625 29.033203125,4.16015625z M4.42382860183716,0L7.3828125,0.4541015625 9.7705078125,1.7431640625 11.8798828125,3.779296875 13.974609375,6.50390625 16.669921875,4.072265625 20.068359375,1.9921875 24.1845703125,0.5419921875 29.033203125,0 32.0654296875,0.19775390625 34.833984375,0.791015625 37.2802734375,1.768798828125 39.345703125,3.1201171875 41.011962890625,4.833984375 42.2607421875,6.8994140625 43.040771484375,9.312744140625 43.30078125,12.0703125 42.66357421875,16.2487812042236 40.751953125,19.7607421875 37.66845703125,22.650146484375 33.515625,24.9609375 35.2880859375,26.484375 36.8408203125,28.41796875 37.9541015625,30.8349609375 38.37890625,33.779296875 38.173828125,35.93994140625 37.55859375,37.8515625 35.2880859375,40.869140625 31.845703125,42.744140625 27.5390625,43.388671875 23.3642578125,42.7587890625 20.09765625,40.9716796875 17.958984375,38.1591796875 17.3876953125,36.405029296875 17.197265625,34.453125 17.698974609375,31.256103515625 19.2041015625,28.6376953125 21.719970703125,26.480712890625 25.25390625,24.66796875 21.533203125,22.734375 18.515625,20.185546875 15.9375,17.16796875 13.53515625,13.828125 11.4807119369507,17.2851581573486 10.0048828125,21.09375 9.114990234375,25.1806640625 8.818359375,29.47265625 8.935546875,31.5673828125 9.287109375,33.486328125 4.599609375,33.486328125 4.3212890625,31.669921875 4.248046875,29.58984375 4.8046875,24.2578125 6.298828125,19.013671875 8.466796875,14.1650390625 11.07421875,10.01953125 9.228515625,7.55859375 7.5146484375,5.8154296875 5.712890625,4.7900390625 3.6328125,4.453125 1.84570300579071,4.6875 0,5.302734375 0,0.791015625 2.1826171875,0.2197265625 4.42382860183716,0z" />
    </g>
  </g>
</svg>