<?xml version="1.0" encoding="utf-8"?>
<!DOCTYPE svg PUBLIC "-//W3C//DTD SVG 1.1//EN" "http://www.w3.org/Graphics/SVG/1.1/DTD/svg11.dtd">
<svg width="28.798828125" height="58.2421875" xmlns="http://www.w3.org/2000/svg" xmlns:xlink="http://www.w3.org/1999/xlink" xmlns:xml="http://www.w3.org/XML/1998/namespace" version="1.1">
  <g>
    <g>
      <path style="fill:#FF0000;fill-opacity:1" d="M19.248046875,17.080078125L11.513671875,53.642578125 13.1982421875,52.265625 14.6337890625,50.4638671875 15.8203125,48.076171875 16.728515625,44.912109375 22.646484375,17.080078125 19.248046875,17.080078125z M16.962890625,14.150390625L26.220703125,14.150390625 19.541015625,45.322265625 18.779296875,48.0615234375 17.490234375,50.947265625 15.5712890625,53.701171875 12.890625,56.0302734375 9.345703125,57.6416015625 4.833984375,58.2421875 2.41699266433716,58.0517578125 0,57.3046875 0.673828125,54.111328125 2.38769578933716,54.697265625 4.27734422683716,54.931640625 5.84472703933716,54.697265625 7.2802734375,53.90625 8.4521484375,52.3974609375 9.287109375,50.0390625 16.962890625,14.150390625z M23.466796875,2.63671875L22.5439453125,2.7685546875 21.73828125,3.1787109375 21.181640625,3.8818359375 20.9765625,4.86328125 21.6064453125,6.2548828125 23.3203125,6.796875 25.2099609375,6.181640625 25.869140625,4.541015625 25.166015625,3.134765625 23.466796875,2.63671875z M23.701171875,0L25.6494140625,0.322266101837158 27.275390625,1.23046875 28.388671875,2.6513671875 28.798828125,4.482421875 28.30078125,6.6650390625 26.9970703125,8.203125 25.166015625,9.1259765625 23.0859375,9.43359375 21.26953125,9.1259765625 19.6435546875,8.2470703125 18.486328125,6.85546875 18.046875,4.98046875 18.4716796875,2.9150390625 19.6435546875,1.34765625 21.4306640625,0.351562976837158 23.701171875,0z" />
    </g>
  </g>
</svg>