<?xml version="1.0" encoding="utf-8"?>
<!DOCTYPE svg PUBLIC "-//W3C//DTD SVG 1.1//EN" "http://www.w3.org/Graphics/SVG/1.1/DTD/svg11.dtd">
<svg width="28.359375" height="46.259765625" xmlns="http://www.w3.org/2000/svg" xmlns:xlink="http://www.w3.org/1999/xlink" xmlns:xml="http://www.w3.org/XML/1998/namespace" version="1.1">
  <g>
    <g>
      <path style="fill:#FF0000;fill-opacity:1" d="M15.1171884536743,0L17.2998046875,0.1171875 19.6875,0.498046875 19.6875,5.478515625 17.28515625,5.0830078125 14.7949228286743,4.921875 11.7333984375,5.244140625 9.1259765625,6.38671875 7.3095703125,8.5693359375 6.62109375,11.982421875 6.822509765625,14.117431640625 7.4267578125,16.0693359375 9.7265625,19.189453125 15.1611337661743,16.669921875 18.460693359375,15.50537109375 22.236328125,14.4140625 22.236328125,19.21875 17.54150390625,20.60302734375 13.7109384536743,22.060546875 10.6530752182007,23.5986328125 8.2763671875,25.224609375 6.54052734375,26.934814453125 5.4052734375,28.7255859375 4.779052734375,30.604248046875 4.5703125,32.578125 5.244140625,36.123046875 6.112060546875,37.686767578125 7.3681640625,39.0380859375 9.034423828125,40.155029296875 11.1328125,41.015625 13.6962890625,41.56494140625 16.7578125,41.748046875 22.5146484375,41.19140625 28.359375,39.609375 28.359375,44.12109375 22.3681640625,45.7470703125 16.640625,46.259765625 12.513427734375,45.99609375 9.0380859375,45.205078125 6.17431640625,43.963623046875 3.88183641433716,42.3486328125 2.14233446121216,40.400390625 0.937500238418579,38.1591796875 0.234375208616257,35.701904296875 0,33.10546875 0.292968988418579,30.205078125 1.30371141433716,27.2607421875 3.23730516433716,24.31640625 6.298828125,21.4453125 4.37988328933716,19.2041015625 3.06152391433716,16.7724609375 2.29980564117432,14.267578125 2.05078172683716,11.806640625 2.27417039871216,9.5361328125 2.94433689117432,7.353515625 4.031982421875,5.33935689926147 5.5078125,3.57421875 7.3681640625,2.10205221176147 9.609375,0.966796875 12.2021484375,0.241700649261475 15.1171884536743,0z" />
    </g>
  </g>
</svg>