<?xml version="1.0" encoding="utf-8"?>
<!DOCTYPE svg PUBLIC "-//W3C//DTD SVG 1.1//EN" "http://www.w3.org/Graphics/SVG/1.1/DTD/svg11.dtd">
<svg width="22.265625" height="53.583984375" xmlns="http://www.w3.org/2000/svg" xmlns:xlink="http://www.w3.org/1999/xlink" xmlns:xml="http://www.w3.org/XML/1998/namespace" version="1.1">
  <g>
    <g>
      <path style="fill:#FF0000;fill-opacity:1" d="M7.61718702316284,24.990234375L13.037109375,24.990234375 17.10205078125,30.054931640625 19.98046875,34.8779296875 21.6943340301514,39.466552734375 22.265625,43.828125 22.0019512176514,46.47216796875 21.2109375,48.603515625 19.97314453125,50.2880859375 18.369140625,51.591796875 14.23828125,53.14453125 9.345703125,53.583984375 5.390625,53.408203125 0.937500238418579,52.939453125 0,47.98828125 5.2734375,48.4716796875 7.5146484375,48.592529296875 9.375,48.6328125 13.271484375,48.3251953125 15.8203125,47.373046875 17.2119140625,45.732421875 17.63671875,43.359375 17.420654296875,41.18408203125 16.7724609375,38.935546875 14.501953125,34.3212890625 11.2939453125,29.6337890625 7.61718702316284,24.990234375z M13.2421875,9.375L11.2939453125,9.8291015625 9.5947265625,11.0302734375 8.203125,12.7587890625 7.14843702316284,14.794921875 11.103515625,14.794921875 13.6962890625,14.765625 15.3515625,14.53125 16.23046875,13.916015625 16.494140625,12.744140625 16.256103515625,11.24267578125 15.5419921875,10.1953125 14.490966796875,9.580078125 13.2421875,9.375z M4.62890577316284,0L7.23632764816284,0 7.23632764816284,10.166015625 7.32421827316284,10.1953125 8.536376953125,8.57666015625 9.9462890625,7.35351610183716 11.6052227020264,6.58447265625 13.564453125,6.328125 15.9814453125,6.85546875 17.63671875,8.2763671875 18.5888671875,10.341796875 18.896484375,12.802734375 18.753662109375,14.46533203125 18.3251953125,15.703125 16.7431640625,17.2119140625 14.384765625,17.783203125 11.455078125,17.87109375 7.79296827316284,17.8564453125 4.9951171875,17.7978515625 2.88574266433716,17.6953125 1.28906202316284,17.548828125 0.908202886581421,14.53125 2.50488233566284,14.6337890625 4.62890577316284,14.736328125 4.62890577316284,0z" />
    </g>
  </g>
</svg>