<?xml version="1.0" encoding="utf-8"?>
<!DOCTYPE svg PUBLIC "-//W3C//DTD SVG 1.1//EN" "http://www.w3.org/Graphics/SVG/1.1/DTD/svg11.dtd">
<svg width="14.0625" height="59.47265625" xmlns="http://www.w3.org/2000/svg" xmlns:xlink="http://www.w3.org/1999/xlink" xmlns:xml="http://www.w3.org/XML/1998/namespace" version="1.1">
  <g>
    <g>
      <path style="fill:#FF0000;fill-opacity:1" d="M10.810546875,48.779296875L12.685546875,48.955078125 12.685546875,51.9140625 11.8798828125,51.767578125 10.986328125,51.708984375 8.75976657867432,52.265625 8.07861328125,52.9541015625 7.85156297683716,53.90625 8.10791015625,55.125732421875 8.876953125,55.9716796875 10.17333984375,56.466064453125 12.01171875,56.630859375 14.0625,56.630859375 14.0625,59.47265625 8.23242282867432,59.47265625 5.859375,59.2529296875 4.2919921875,58.7841796875 3.22265625,58.3154296875 2.34374976158142,58.095703125 1.32568371295929,58.388671875 0.0878909826278687,59.267578125 0,59.23828125 0,56.71875 1.31835949420929,55.869140625 2.40234422683716,55.634765625 3.3251953125,55.810546875 4.20410203933716,56.2060546875 5.185546875,56.6015625 6.4453125,56.806640625 6.47460889816284,56.66015625 5.47851610183716,55.048828125 5.15625047683716,53.349609375 5.56640625,51.5185546875 6.7236328125,50.068359375 8.5107421875,49.1162109375 10.810546875,48.779296875z M6.826171875,0L11.396484375,0 11.396484375,44.4140625 6.826171875,44.4140625 6.826171875,0z" />
    </g>
  </g>
</svg>