<?xml version="1.0" encoding="utf-8"?>
<!DOCTYPE svg PUBLIC "-//W3C//DTD SVG 1.1//EN" "http://www.w3.org/Graphics/SVG/1.1/DTD/svg11.dtd">
<svg width="25.13671875" height="31.58203125" xmlns="http://www.w3.org/2000/svg" xmlns:xlink="http://www.w3.org/1999/xlink" xmlns:xml="http://www.w3.org/XML/1998/namespace" version="1.1">
  <g>
    <g>
      <path style="fill:#FF0000;fill-opacity:1" d="M12.275390625,4.74609375L11.0595693588257,5.01709127426147 9.755859375,5.830078125 8.45947265625,7.13012838363647 7.265625,8.8623046875 6.21826171875,11.0083026885986 5.361328125,13.5498046875 4.7900390625,16.424560546875 4.599609375,19.5703125 5.21484375,22.822265625 6.884765625,25.01953125 9.3310546875,26.25 12.3046875,26.630859375 16.025390625,26.1328125 18.5888671875,24.7265625 20.068359375,22.529296875 20.537109375,19.62890625 20.321044921875,16.322021484375 19.6728515625,13.3740234375 18.709716796875,10.8178730010986 17.548828125,8.6865234375 16.2451171875,6.99463033676147 14.853515625,5.7568359375 13.4912109375,4.99878072738647 12.275390625,4.74609375z M12.333984375,0L14.461669921875,0.311279296875 16.6845703125,1.2451171875 18.856201171875,2.783203125 20.830078125,4.9072265625 22.5402812957764,7.60620260238647 23.9208984375,10.869140625 24.8327617645264,14.67041015625 25.13671875,18.984375 24.9133281707764,21.676025390625 24.2431640625,24.1259765625 23.1555156707764,26.28662109375 21.6796875,28.1103515625 17.607421875,30.673828125 15.05126953125,31.35498046875 12.1875,31.58203125 9.400634765625,31.376953125 6.9580078125,30.76171875 3.13476586341858,28.447265625 1.77246117591858,26.79931640625 0.791016101837158,24.84375 0.197754144668579,22.60986328125 0,20.126953125 0.571289300918579,14.3701171875 2.09472680091858,9.4482421875 4.306640625,5.44921875 6.943359375,2.490234375 9.7119140625,0.64453125 12.333984375,0z" />
    </g>
  </g>
</svg>