<?xml version="1.0" encoding="utf-8"?>
<!DOCTYPE svg PUBLIC "-//W3C//DTD SVG 1.1//EN" "http://www.w3.org/Graphics/SVG/1.1/DTD/svg11.dtd">
<svg width="19.62890625" height="53.4375" xmlns="http://www.w3.org/2000/svg" xmlns:xlink="http://www.w3.org/1999/xlink" xmlns:xml="http://www.w3.org/XML/1998/namespace" version="1.1">
  <g>
    <g>
      <path style="fill:#FF0000;fill-opacity:1" d="M11.71875,20.654296875L16.435546875,20.654296875 17.783203125,24.638671875 18.779296875,28.8134765625 19.4091796875,32.9443359375 19.62890625,36.796875 19.3798828125,40.60546875 18.6328125,43.9453125 17.442626953125,46.8017578125 15.8642578125,49.16015625 13.9233388900757,51.01318359375 11.6455078125,52.353515625 9.093017578125,53.16650390625 6.32812452316284,53.4375 3.25195264816284,53.115234375 0,52.119140625 0,47.28515625 3.37646436691284,48.14208984375 6.240234375,48.427734375 8.53271484375,48.204345703125 10.4296875,47.5341796875 13.1396484375,45.05859375 14.58984375,41.337890625 15.029296875,36.6796875 14.7509765625,32.40234375 14.0185546875,28.330078125 12.9638671875,24.4189453125 11.71875,20.654296875z M14.033203125,8.203125L19.453125,8.203125 19.453125,13.505859375 14.033203125,13.505859375 14.033203125,8.203125z M4.599609375,8.203125L10.01953125,8.203125 10.01953125,13.505859375 4.599609375,13.505859375 4.599609375,8.203125z M14.033203125,0L19.453125,0 19.453125,5.302734375 14.033203125,5.302734375 14.033203125,0z M4.599609375,0L10.01953125,0 10.01953125,5.302734375 4.599609375,5.302734375 4.599609375,0z" />
    </g>
  </g>
</svg>