<?xml version="1.0" encoding="utf-8"?>
<!DOCTYPE svg PUBLIC "-//W3C//DTD SVG 1.1//EN" "http://www.w3.org/Graphics/SVG/1.1/DTD/svg11.dtd">
<svg width="22.265625" height="49.072265625" xmlns="http://www.w3.org/2000/svg" xmlns:xlink="http://www.w3.org/1999/xlink" xmlns:xml="http://www.w3.org/XML/1998/namespace" version="1.1">
  <g>
    <g>
      <path style="fill:#FF0000;fill-opacity:1" d="M7.6171875,20.478515625L13.037109375,20.478515625 17.10205078125,25.543212890625 19.98046875,30.3662109375 21.6943340301514,34.954833984375 22.265625,39.31640625 22.0019512176514,41.96044921875 21.2109375,44.091796875 19.97314453125,45.7763671875 18.369140625,47.080078125 14.2382822036743,48.6328125 9.345703125,49.072265625 5.390625,48.896484375 0.937500238418579,48.427734375 0,43.4765625 5.2734375,43.9599609375 7.5146484375,44.080810546875 9.375,44.12109375 13.271484375,43.8134765625 15.8203134536743,42.861328125 17.2119140625,41.220703125 17.63671875,38.84765625 17.420654296875,36.67236328125 16.7724609375,34.423828125 14.5019540786743,29.8095703125 11.2939453125,25.1220703125 7.6171875,20.478515625z M12.12890625,8.203125L17.548828125,8.203125 17.548828125,13.505859375 12.12890625,13.505859375 12.12890625,8.203125z M2.69531273841858,8.203125L8.115234375,8.203125 8.115234375,13.505859375 2.69531273841858,13.505859375 2.69531273841858,8.203125z M12.12890625,0L17.548828125,0 17.548828125,5.302734375 12.12890625,5.302734375 12.12890625,0z M2.69531273841858,0L8.115234375,0 8.115234375,5.302734375 2.69531273841858,5.302734375 2.69531273841858,0z" />
    </g>
  </g>
</svg>