<?xml version="1.0" encoding="utf-8"?>
<!DOCTYPE svg PUBLIC "-//W3C//DTD SVG 1.1//EN" "http://www.w3.org/Graphics/SVG/1.1/DTD/svg11.dtd">
<svg width="28.2128906250014" height="59.619140625" xmlns="http://www.w3.org/2000/svg" xmlns:xlink="http://www.w3.org/1999/xlink" xmlns:xml="http://www.w3.org/XML/1998/namespace" version="1.1">
  <g>
    <g>
      <path style="fill:#FF0000;fill-opacity:1" d="M9.111328125,19.62890625L12.8173837661743,19.951171875 15.7763681411743,20.7568359375 18.3544921875,21.8115234375 20.9326171875,22.880859375 23.8916015625,23.7158203125 27.59765625,24.08203125 26.66015625,29.560546875 20.8520488739014,31.2744140625 16.083984375,33.076171875 12.257080078125,34.9658203125 9.2724609375,36.943359375 7.08251953125,39.01611328125 5.6396484375,41.19140625 4.837646484375,43.4619140625 4.5703125,45.8203125 5.244140625,49.453125 6.11572265625,51.04248046875 7.3828125,52.412109375 9.05639553070068,53.536376953125 11.1474609375,54.3896484375 13.6926279067993,54.927978515625 16.728515625,55.107421875 22.4267578125,54.55078125 28.212890625,52.96875 28.212890625,57.48046875 22.2509765625,59.1064453125 16.58203125,59.619140625 12.454833984375,59.35546875 8.9794921875,58.564453125 6.119384765625,57.322998046875 3.83789038658142,55.7080078125 2.11303687095642,53.759765625 0.922851800918579,51.5185546875 0.230712562799454,49.053955078125 0,46.435546875 0.366210222244263,43.0810546875 1.62597584724426,39.638671875 3.98437428474426,36.2109375 7.6611328125,32.9150390625 10.0707998275757,31.35498046875 12.8759775161743,29.8681640625 16.116943359375,28.472900390625 19.833984375,27.1875 19.833984375,26.953125 17.2412109375,26.015625 14.9267587661743,25.1806640625 12.2900390625,24.5947265625 8.701171875,24.375 4.62890625,24.6826171875 1.31835865974426,25.4296875 1.31835865974426,20.830078125 4.8779296875,19.9658203125 9.111328125,19.62890625z M11.1328125,8.203125L16.552734375,8.203125 16.552734375,13.505859375 11.1328125,13.505859375 11.1328125,8.203125z M11.1328125,0L16.552734375,0 16.552734375,5.302734375 11.1328125,5.302734375 11.1328125,0z" />
    </g>
  </g>
</svg>