<?xml version="1.0" encoding="utf-8"?>
<!DOCTYPE svg PUBLIC "-//W3C//DTD SVG 1.1//EN" "http://www.w3.org/Graphics/SVG/1.1/DTD/svg11.dtd">
<svg width="24.638671875" height="48.57421875" xmlns="http://www.w3.org/2000/svg" xmlns:xlink="http://www.w3.org/1999/xlink" xmlns:xml="http://www.w3.org/XML/1998/namespace" version="1.1">
  <g>
    <g>
      <path style="fill:#FF0000;fill-opacity:1" d="M14.033203125,18.251953125L12.3779296875,18.80859375 10.927734375,20.244140625 9.8876953125,22.236328125 9.4921875,24.462890625 9.990234375,26.4111328125 11.3232421875,27.861328125 13.2421875,28.76953125 15.498046875,29.091796875 17.783203125,28.9013671875 19.951171875,28.125 19.6875,26.3818359375 19.0576171875,24.2724609375 18.134765625,22.1044921875 16.9482421875,20.1708984375 15.556640625,18.779296875 14.033203125,18.251953125z M14.296875,13.18359375L16.314697265625,13.4912109375 18.1494140625,14.4140625 19.852294921875,15.95947265625 21.474609375,18.134765625 22.85888671875,20.870361328125 23.84765625,24.0966796875 24.4409160614014,27.667236328125 24.638671875,31.435546875 24.4482402801514,34.757080078125 23.876953125,37.9248046875 22.88818359375,40.836181640625 21.4453125,43.388671875 19.5263671875,45.52001953125 17.109375,47.16796875 14.1577138900757,48.22265625 10.634765625,48.57421875 5.44921827316284,48.017578125 2.82714819908142,47.26318359375 0,46.11328125 0,41.25 3.00659155845642,42.344970703125 5.6982421875,43.0517578125 10.634765625,43.564453125 13.2824697494507,43.32275390625 15.3662109375,42.59765625 16.97021484375,41.49169921875 18.1787109375,40.107421875 19.5703125,36.6796875 20.009765625,32.87109375 17.5341796875,33.68408203125 14.970703125,33.955078125 11.2353515625,33.3544921875 8.056640625,31.5966796875 5.84472703933716,28.76953125 5.218505859375,26.97509765625 5.00976610183716,24.931640625 5.71289110183716,20.9912109375 7.6611328125,17.1826171875 10.60546875,14.3115234375 12.3779287338257,13.465576171875 14.296875,13.18359375z M15.76171875,0L21.181640625,0 21.181640625,5.302734375 15.76171875,5.302734375 15.76171875,0z M6.328125,0L11.748046875,0 11.748046875,5.302734375 6.328125,5.302734375 6.328125,0z" />
    </g>
  </g>
</svg>