<?xml version="1.0" encoding="utf-8"?>
<!DOCTYPE svg PUBLIC "-//W3C//DTD SVG 1.1//EN" "http://www.w3.org/Graphics/SVG/1.1/DTD/svg11.dtd">
<svg width="30.322265625" height="48.427734375" xmlns="http://www.w3.org/2000/svg" xmlns:xlink="http://www.w3.org/1999/xlink" xmlns:xml="http://www.w3.org/XML/1998/namespace" version="1.1">
  <g>
    <g>
      <path style="fill:#FF0000;fill-opacity:1" d="M24.755859375,20.244140625L29.326171875,20.244140625 30.0732421875,25.48828125 30.322265625,30.380859375 30.120849609375,34.35791015625 29.5166015625,37.91015625 28.4326171875,40.997314453125 26.7919921875,43.5791015625 24.5690898895264,45.640869140625 21.73828125,47.16796875 18.22998046875,48.11279296875 13.974609375,48.427734375 10.316162109375,48.175048828125 7.30957078933716,47.4169921875 4.89257860183716,46.19384765625 3.0029296875,44.5458984375 1.611328125,42.48046875 0.6884765625,40.0048828125 0,33.984375 0.219727039337158,30.1025390625 0.849609375,25.810546875 5.27343797683716,25.810546875 4.77539110183716,29.8681640625 4.59960985183716,33.3984375 4.73144578933716,35.96923828125 5.12695360183716,38.115234375 6.81152391433716,41.2353515625 9.814453125,42.94921875 11.85791015625,43.3447265625 14.296875,43.4765625 17.14599609375,43.297119140625 19.541015625,42.7587890625 21.5112285614014,41.817626953125 23.0859375,40.4296875 24.2761211395264,38.565673828125 25.0927734375,36.1962890625 25.5651836395264,33.284912109375 25.72265625,29.794921875 25.4736328125,25.4736328125 24.755859375,20.244140625z M17.138671875,8.203125L22.55859375,8.203125 22.55859375,13.505859375 17.138671875,13.505859375 17.138671875,8.203125z M7.70507860183716,8.203125L13.125,8.203125 13.125,13.505859375 7.70507860183716,13.505859375 7.70507860183716,8.203125z M12.421875,0L17.841796875,0 17.841796875,5.302734375 12.421875,5.302734375 12.421875,0z" />
    </g>
  </g>
</svg>