<?xml version="1.0" encoding="utf-8"?>
<!DOCTYPE svg PUBLIC "-//W3C//DTD SVG 1.1//EN" "http://www.w3.org/Graphics/SVG/1.1/DTD/svg11.dtd">
<svg width="39.638671875" height="61.025390625" xmlns="http://www.w3.org/2000/svg" xmlns:xlink="http://www.w3.org/1999/xlink" xmlns:xml="http://www.w3.org/XML/1998/namespace" version="1.1">
  <g>
    <g>
      <path style="fill:#FF0000;fill-opacity:1" d="M18.193359375,55.72265625L23.61328125,55.72265625 23.61328125,61.025390625 18.193359375,61.025390625 18.193359375,55.72265625z M22.91015625,47.51953125L28.330078125,47.51953125 28.330078125,52.822265625 22.91015625,52.822265625 22.91015625,47.51953125z M13.4765634536743,47.51953125L18.896484375,47.51953125 18.896484375,52.822265625 13.4765634536743,52.822265625 13.4765634536743,47.51953125z M25.01953125,11.19140625L25.01953125,13.916015625 22.646484375,14.3444843292236 21.03515625,14.9267578125 20.1123046875,15.6628437042236 19.8046875,16.552734375 20.2880859375,17.490234375 21.4453125,18.1640625 22.353515625,18.662109375 23.203125,19.306640625 23.818359375,20.2001953125 24.052734375,21.4453125 23.5107421875,23.26171875 21.85546875,24.9169921875 19.04296875,26.1767578125 15.0292978286743,26.806640625 15.0292978286743,24.08203125 17.5543212890625,23.81103515625 19.35791015625,23.3203125 20.4400634765625,22.60986328125 20.80078125,21.6796875 20.3466796875,20.830078125 19.27734375,20.185546875 18.3251953125,19.658203125 17.4462890625,18.9697265625 16.8017578125,18.0029296875 16.552734375,16.640625 17.2265625,14.619140625 19.0576171875,13.0224609375 21.7529296875,11.8798828125 25.01953125,11.19140625z M35.068359375,0L39.638671875,0 39.638671875,34.27734375 39.473876953125,36.708984375 38.9794921875,38.73046875 37.119140625,41.748046875 34.2626953125,43.6083984375 30.615234375,44.58984375 26.3671875,44.9853515625 21.73828125,45.05859375 15.4394540786743,44.970703125 10.3271484375,44.560546875 6.298828125,43.59375 3.251953125,41.8359375 1.69189417362213,40.07080078125 0.703125,37.998046875 0,33.193359375 0.263672351837158,29.765625 0.849609375,26.630859375 5.361328125,26.630859375 4.8486328125,29.3701171875 4.599609375,32.431640625 5.0537109375,35.6396484375 5.738525390625,36.983642578125 6.884765625,38.115234375 8.7890625,39.052734375 11.7333993911743,39.66796875 13.7329111099243,39.869384765625 16.1279296875,40.0048828125 18.988037109375,40.081787109375 22.3828125,40.107421875 25.37109375,40.07080078125 27.94921875,39.9609375 30.12451171875,39.700927734375 31.904296875,39.2138671875 33.28857421875,38.45947265625 34.27734375,37.3974609375 34.87060546875,35.958251953125 35.068359375,34.072265625 35.068359375,0z" />
    </g>
  </g>
</svg>