<?xml version="1.0" encoding="utf-8"?>
<!DOCTYPE svg PUBLIC "-//W3C//DTD SVG 1.1//EN" "http://www.w3.org/Graphics/SVG/1.1/DTD/svg11.dtd">
<svg width="20.0390625000008" height="46.171875" xmlns="http://www.w3.org/2000/svg" xmlns:xlink="http://www.w3.org/1999/xlink" xmlns:xml="http://www.w3.org/XML/1998/namespace" version="1.1">
  <g>
    <g>
      <path style="fill:#FF0000;fill-opacity:1" d="M10.1660146713257,25.48828125L7.92480373382568,27.5390625 6.12304592132568,30.146484375 4.93652248382568,33.1494140625 4.51171779632568,36.38671875 4.93652248382568,38.61328125 6.09374904632568,40.107421875 7.79296779632568,40.95703125 9.84374904632568,41.220703125 12.421875,40.8984375 14.1796875,39.931640625 15.1904296875,38.41552734375 15.52734375,36.4453125 15.263671875,33.779296875 14.3701171875,31.11328125 12.71484375,28.3740234375 10.1660146713257,25.48828125z M7.14843654632568,16.9921875L10.3527822494507,19.2883319854736 13.0517578125,21.6064453125 15.274658203125,23.95751953125 17.05078125,26.3525390625 18.394775390625,28.787841796875 19.3212890625,31.259765625 20.0390625,36.357421875 19.3359375,40.3564453125 17.314453125,43.4619140625 14.0771484375,45.46875 9.72656154632568,46.171875 5.53710842132568,45.5419921875 2.49023389816284,43.740234375 0.629881858825684,40.927734375 0,37.265625 0.615234375,32.63671875 2.21191358566284,28.5791015625 4.45312404632568,25.2392578125 7.00195217132568,22.734375 5.72753810882568,21.73828125 4.33593654632568,20.712890625 7.14843654632568,16.9921875z M12.12890625,0L14.00390625,0.175781726837158 14.00390625,3.134765625 13.1982421875,2.98828125 12.3046875,2.9296875 10.0781240463257,3.4716796875 9.39697074890137,4.193115234375 9.16992092132568,5.2734375 9.42992973327637,6.4013671875 10.2099590301514,7.20703125 11.5100088119507,7.6904296875 13.330078125,7.8515625 15.380859375,7.8515625 15.380859375,10.693359375 5.27343654632568,10.693359375 5.27343654632568,8.02734375 7.76367092132568,8.02734375 7.79296779632568,7.880859375 6.79687404632568,6.26953125 6.47460842132568,4.5703125 6.88476467132568,2.7392578125 8.04199123382568,1.2890625 9.82910060882568,0.3369140625 12.12890625,0z" />
    </g>
  </g>
</svg>