<?xml version="1.0" encoding="utf-8"?>
<!DOCTYPE svg PUBLIC "-//W3C//DTD SVG 1.1//EN" "http://www.w3.org/Graphics/SVG/1.1/DTD/svg11.dtd">
<svg width="30.29296875" height="65.478515625" xmlns="http://www.w3.org/2000/svg" xmlns:xlink="http://www.w3.org/1999/xlink" xmlns:xml="http://www.w3.org/XML/1998/namespace" version="1.1">
  <g>
    <g>
      <path style="fill:#FF0000;fill-opacity:1" d="M25.517578125,11.103515625L30.087890625,11.103515625 30.087890625,47.431640625 29.8828125,51.40869140625 29.267578125,54.9609375 28.179931640625,58.048095703125 26.5576171875,60.6298828125 24.364013671875,62.691650390625 21.5625,64.21875 18.08349609375,65.16357421875 13.8574228286743,65.478515625 10.224609375,65.225830078125 7.23632907867432,64.4677734375 4.83764743804932,63.24462890625 2.97363376617432,61.5966796875 1.60400438308716,59.53125 0.6884765625,57.0556640625 0,51.03515625 0.190430641174316,47.2705078125 0.791015625,43.154296875 5.24414157867432,43.154296875 4.76074314117432,47.05078125 4.59961032867432,50.44921875 4.72778415679932,53.02001953125 5.11230564117432,55.166015625 6.78222751617432,58.2861328125 9.77050876617432,60 11.7956552505493,60.3955078125 14.2089853286743,60.52734375 17.010498046875,60.347900390625 19.3798828125,59.8095703125 21.33544921875,58.868408203125 22.8955078125,57.48046875 24.07470703125,55.616455078125 24.8876953125,53.2470703125 25.360107421875,50.335693359375 25.517578125,46.845703125 25.517578125,11.103515625z M24.873046875,0L30.29296875,0 30.29296875,5.302734375 24.873046875,5.302734375 24.873046875,0z" />
    </g>
  </g>
</svg>