<?xml version="1.0" encoding="utf-8"?>
<!DOCTYPE svg PUBLIC "-//W3C//DTD SVG 1.1//EN" "http://www.w3.org/Graphics/SVG/1.1/DTD/svg11.dtd">
<svg width="24.697265625" height="38.37890625" xmlns="http://www.w3.org/2000/svg" xmlns:xlink="http://www.w3.org/1999/xlink" xmlns:xml="http://www.w3.org/XML/1998/namespace" version="1.1">
  <g>
    <g>
      <path style="fill:#FF0000;fill-opacity:1" d="M14.00390625,5.068359375L12.3779296875,5.625 10.927734375,7.0751953125 9.8876953125,9.052734375 9.4921875,11.19140625 9.9609375,13.18359375 11.279296875,14.6630859375 13.271484375,15.5859375 15.791015625,15.908203125 17.6806640625,15.732421875 20.009765625,14.970703125 19.8193359375,13.3740234375 19.453125,11.8359375 18.3984375,9.0966796875 17.05078125,6.9580078125 15.5419921875,5.56640625 14.00390625,5.068359375z M14.35546875,0L16.270751953125,0.289306640625 18.1494140625,1.1572265625 19.9072265625,2.603759765625 21.4599609375,4.62890625 22.77099609375,7.236328125 23.8037109375,10.4296875 24.4738750457764,14.208984375 24.697265625,18.57421875 24.4189453125,23.3203125 23.49609375,27.890625 21.7822265625,32.0068359375 19.1015625,35.3466796875 15.29296875,37.5732421875 12.9272451400757,38.177490234375 10.224609375,38.37890625 5.11230516433716,37.734375 0,35.859375 0,30.99609375 5.52246141433716,32.7978515625 10.048828125,33.33984375 13.271484375,32.9443359375 15.732421875,31.8310546875 17.5341796875,30.1318359375 18.779296875,27.978515625 5.00976657867432,27.978515625 5.00976657867432,24.78515625 19.658203125,24.78515625 19.9951171875,22.236328125 20.126953125,19.62890625 17.4609375,20.5224609375 14.970703125,20.771484375 11.2353515625,20.1708984375 8.056640625,18.4130859375 5.84472751617432,15.5859375 5.21850633621216,13.80615234375 5.00976657867432,11.806640625 5.71289110183716,7.822265625 7.66113328933716,3.9990234375 10.6201171875,1.1279296875 12.4108877182007,0.281982421875 14.35546875,0z" />
    </g>
  </g>
</svg>