<?xml version="1.0" encoding="utf-8"?>
<!DOCTYPE svg PUBLIC "-//W3C//DTD SVG 1.1//EN" "http://www.w3.org/Graphics/SVG/1.1/DTD/svg11.dtd">
<svg width="27.919921875" height="42.421875" xmlns="http://www.w3.org/2000/svg" xmlns:xlink="http://www.w3.org/1999/xlink" xmlns:xml="http://www.w3.org/XML/1998/namespace" version="1.1">
  <g>
    <g>
      <path style="fill:#FF0000;fill-opacity:1" d="M10.517578125,5.068359375L8.1298828125,5.625 6.2255859375,7.119140625 4.95117282867432,9.345703125 4.482421875,12.0703125 5.068359375,14.94140625 6.6796875,17.080078125 9.1259765625,18.4130859375 12.216796875,18.8671875 15.1318359375,18.5302734375 18.1640625,17.51953125 17.9296875,15.322265625 17.666015625,13.53515625 17.314453125,11.982421875 16.81640625,10.48828125 15.640869140625,8.199462890625 14.1650390625,6.4892578125 12.4401845932007,5.423583984375 10.517578125,5.068359375z M11.044921875,0L13.4948720932007,0.296630859375 15.6884765625,1.1865234375 17.677001953125,2.764892578125 19.51171875,5.126953125 21.005859375,8.0712890625 21.884765625,11.1181640625 22.3828125,14.5166015625 22.734375,18.45703125 23.232421875,23.5107421875 24.08203125,29.1357421875 25.546875,35.419921875 27.919921875,42.421875 23.26171875,42.421875 21.26953125,36.8115234375 19.951171875,31.4501953125 19.1162109375,26.4697265625 18.57421875,21.97265625 14.9267578125,23.26904296875 11.3671875,23.701171875 9.093017578125,23.5107421875 6.9580078125,22.939453125 3.35449242591858,20.7568359375 0.908203125,17.255859375 0.227050930261612,15.0366230010986 0,12.5390625 0.747070670127869,7.939453125 2.90039110183716,3.92578125 6.357421875,1.083984375 8.5546875,0.27099609375 11.044921875,0z" />
    </g>
  </g>
</svg>