<?xml version="1.0" encoding="utf-8"?>
<!DOCTYPE svg PUBLIC "-//W3C//DTD SVG 1.1//EN" "http://www.w3.org/Graphics/SVG/1.1/DTD/svg11.dtd">
<svg width="24.638671875" height="55.13671875" xmlns="http://www.w3.org/2000/svg" xmlns:xlink="http://www.w3.org/1999/xlink" xmlns:xml="http://www.w3.org/XML/1998/namespace" version="1.1">
  <g>
    <g>
      <path style="fill:#FF0000;fill-opacity:1" d="M14.033203125,24.814453125L12.3779296875,25.37109375 10.927734375,26.806640625 9.8876953125,28.798828125 9.4921875,31.025390625 9.990234375,32.9736328125 11.3232421875,34.423828125 13.2421875,35.33203125 15.498046875,35.654296875 17.783203125,35.4638671875 19.951171875,34.6875 19.6875,32.9443359375 19.0576171875,30.8349609375 18.134765625,28.6669921875 16.9482421875,26.7333984375 15.556640625,25.341796875 14.033203125,24.814453125z M14.296875,19.74609375L16.314697265625,20.0537109375 18.1494140625,20.9765625 19.852294921875,22.52197265625 21.474609375,24.697265625 22.85888671875,27.432861328125 23.84765625,30.6591796875 24.4409160614014,34.229736328125 24.638671875,37.998046875 24.4482402801514,41.319580078125 23.876953125,44.4873046875 22.88818359375,47.398681640625 21.4453125,49.951171875 19.5263671875,52.08251953125 17.109375,53.73046875 14.1577138900757,54.78515625 10.634765625,55.13671875 5.44921970367432,54.580078125 2.8271484375,53.82568359375 0,52.67578125 0,47.8125 3.00659203529358,48.907470703125 5.69824266433716,49.6142578125 10.634765625,50.126953125 13.2824697494507,49.88525390625 15.3662109375,49.16015625 16.97021484375,48.05419921875 18.1787109375,46.669921875 19.5703125,43.2421875 20.009765625,39.43359375 17.5341796875,40.24658203125 14.970703125,40.517578125 11.2353515625,39.9169921875 8.056640625,38.1591796875 5.84472703933716,35.33203125 5.21850633621216,33.53759765625 5.009765625,31.494140625 5.71289110183716,27.5537109375 7.66113328933716,23.7451171875 10.60546875,20.8740234375 12.3779287338257,20.028076171875 14.296875,19.74609375z M12.451171875,0L16.142578125,0 16.142578125,11.484375 12.451171875,11.484375 12.451171875,0z" />
    </g>
  </g>
</svg>