<?xml version="1.0" encoding="utf-8"?>
<!DOCTYPE svg PUBLIC "-//W3C//DTD SVG 1.1//EN" "http://www.w3.org/Graphics/SVG/1.1/DTD/svg11.dtd">
<svg width="20.0390625" height="29.1796875" xmlns="http://www.w3.org/2000/svg" xmlns:xlink="http://www.w3.org/1999/xlink" xmlns:xml="http://www.w3.org/XML/1998/namespace" version="1.1">
  <g>
    <g>
      <path style="fill:#FF0000;fill-opacity:1" d="M10.166015625,8.49609375L7.92480421066284,10.546875 6.12304639816284,13.154296875 4.93652296066284,16.1572265625 4.51171827316284,19.39453125 4.93652296066284,21.62109375 6.09374952316284,23.115234375 7.79296827316284,23.96484375 9.84375,24.228515625 12.421875,23.90625 14.1796875,22.939453125 15.1904296875,21.42333984375 15.52734375,19.453125 15.263671875,16.787109375 14.3701171875,14.12109375 12.71484375,11.3818359375 10.166015625,8.49609375z M7.14843702316284,0L10.3527822494507,2.29614400863647 13.0517578125,4.6142578125 15.274658203125,6.96533203125 17.05078125,9.3603515625 18.394775390625,11.795654296875 19.3212890625,14.267578125 20.0390625,19.365234375 19.3359375,23.3642578125 17.314453125,26.4697265625 14.0771484375,28.4765625 9.7265625,29.1796875 5.53710889816284,28.5498046875 2.490234375,26.748046875 0.6298828125,23.935546875 0,20.2734375 0.615234375,15.64453125 2.2119140625,11.5869140625 4.45312452316284,8.2470703125 7.00195264816284,5.7421875 5.72753858566284,4.74609375 4.33593702316284,3.720703125 7.14843702316284,0z" />
    </g>
  </g>
</svg>