<?xml version="1.0" encoding="utf-8"?>
<!DOCTYPE svg PUBLIC "-//W3C//DTD SVG 1.1//EN" "http://www.w3.org/Graphics/SVG/1.1/DTD/svg11.dtd">
<svg width="39.638671875" height="50.888671875" xmlns="http://www.w3.org/2000/svg" xmlns:xlink="http://www.w3.org/1999/xlink" xmlns:xml="http://www.w3.org/XML/1998/namespace" version="1.1">
  <g>
    <g>
      <path style="fill:#FF0000;fill-opacity:1" d="M25.01953125,17.021484375L25.01953125,19.74609375 22.646484375,20.1745624542236 21.03515625,20.7568359375 20.1123046875,21.4929218292236 19.8046875,22.3828125 20.2880859375,23.3203125 21.4453125,23.994140625 22.353515625,24.4921875 23.203125,25.13671875 23.818359375,26.0302734375 24.052734375,27.275390625 23.5107421875,29.091796875 21.85546875,30.7470703125 19.04296875,32.0068359375 15.0292978286743,32.63671875 15.0292978286743,29.912109375 17.5543212890625,29.64111328125 19.35791015625,29.150390625 20.4400634765625,28.43994140625 20.80078125,27.509765625 20.3466796875,26.66015625 19.27734375,26.015625 18.3251953125,25.48828125 17.4462890625,24.7998046875 16.8017578125,23.8330078125 16.552734375,22.470703125 17.2265625,20.44921875 19.0576171875,18.8525390625 21.7529296875,17.7099609375 25.01953125,17.021484375z M35.068359375,5.830078125L39.638671875,5.830078125 39.638671875,40.107421875 39.473876953125,42.5390625 38.9794921875,44.560546875 37.119140625,47.578125 34.2626953125,49.4384765625 30.615234375,50.419921875 26.3671875,50.8154296875 21.73828125,50.888671875 15.4394540786743,50.80078125 10.3271484375,50.390625 6.298828125,49.423828125 3.251953125,47.666015625 1.69189417362213,45.90087890625 0.703125,43.828125 0,39.0234375 0.263671875,35.595703125 0.849609375,32.4609375 5.361328125,32.4609375 4.8486328125,35.2001953125 4.599609375,38.26171875 5.0537109375,41.4697265625 5.738525390625,42.813720703125 6.884765625,43.9453125 8.7890625,44.8828125 11.7333993911743,45.498046875 13.7329111099243,45.699462890625 16.1279296875,45.8349609375 18.988037109375,45.911865234375 22.3828125,45.9375 25.37109375,45.90087890625 27.94921875,45.791015625 30.12451171875,45.531005859375 31.904296875,45.0439453125 33.28857421875,44.28955078125 34.27734375,43.2275390625 34.87060546875,41.788330078125 35.068359375,39.90234375 35.068359375,5.830078125z M18.1640625,0L23.583984375,0 23.583984375,5.30273389816284 18.1640625,5.30273389816284 18.1640625,0z" />
    </g>
  </g>
</svg>