<?xml version="1.0" encoding="utf-8"?>
<!DOCTYPE svg PUBLIC "-//W3C//DTD SVG 1.1//EN" "http://www.w3.org/Graphics/SVG/1.1/DTD/svg11.dtd">
<svg width="30.322265625" height="50.361328125" xmlns="http://www.w3.org/2000/svg" xmlns:xlink="http://www.w3.org/1999/xlink" xmlns:xml="http://www.w3.org/XML/1998/namespace" version="1.1">
  <g>
    <g>
      <path style="fill:#FF0000;fill-opacity:1" d="M12.4218759536743,45.05859375L17.841796875,45.05859375 17.841796875,50.361328125 12.4218759536743,50.361328125 12.4218759536743,45.05859375z M24.755859375,12.041015625L29.326171875,12.041015625 30.0732421875,17.28515625 30.322265625,22.177734375 30.120849609375,26.15478515625 29.5166015625,29.70703125 28.4326171875,32.794189453125 26.7919921875,35.3759765625 24.569091796875,37.437744140625 21.73828125,38.96484375 18.22998046875,39.90966796875 13.9746103286743,40.224609375 10.316162109375,39.971923828125 7.30957126617432,39.2138671875 4.89257907867432,37.99072265625 3.00293016433716,36.3427734375 1.61132860183716,34.27734375 0.688477039337158,31.8017578125 0,25.78125 0.219727516174316,21.8994140625 0.849609851837158,17.607421875 5.27343845367432,17.607421875 4.77539157867432,21.6650390625 4.59961032867432,25.1953125 4.73144626617432,27.76611328125 5.12695407867432,29.912109375 6.81152439117432,33.0322265625 9.81445407867432,34.74609375 11.8579111099243,35.1416015625 14.2968759536743,35.2734375 17.14599609375,35.093994140625 19.541015625,34.5556640625 21.51123046875,33.614501953125 23.0859375,32.2265625 24.276123046875,30.362548828125 25.0927734375,27.9931640625 25.565185546875,25.081787109375 25.72265625,21.591796875 25.4736328125,17.2705078125 24.755859375,12.041015625z M12.4218759536743,0L17.841796875,0 17.841796875,5.302734375 12.4218759536743,5.302734375 12.4218759536743,0z" />
    </g>
  </g>
</svg>