<?xml version="1.0" encoding="utf-8"?>
<!DOCTYPE svg PUBLIC "-//W3C//DTD SVG 1.1//EN" "http://www.w3.org/Graphics/SVG/1.1/DTD/svg11.dtd">
<svg width="22.265625" height="45.791015625" xmlns="http://www.w3.org/2000/svg" xmlns:xlink="http://www.w3.org/1999/xlink" xmlns:xml="http://www.w3.org/XML/1998/namespace" version="1.1">
  <g>
    <g>
      <path style="fill:#FF0000;fill-opacity:1" d="M7.6171875,17.197265625L13.037109375,17.197265625 17.10205078125,22.261962890625 19.98046875,27.0849609375 21.6943340301514,31.673583984375 22.265625,36.03515625 22.0019512176514,38.67919921875 21.2109375,40.810546875 19.97314453125,42.4951171875 18.369140625,43.798828125 14.23828125,45.3515625 9.345703125,45.791015625 5.390625,45.615234375 0.937500238418579,45.146484375 0,40.1953125 5.2734375,40.6787109375 7.5146484375,40.799560546875 9.375,40.83984375 13.271484375,40.5322265625 15.8203125,39.580078125 17.2119140625,37.939453125 17.63671875,35.56640625 17.420654296875,33.39111328125 16.7724609375,31.142578125 14.501953125,26.5283203125 11.2939453125,21.8408203125 7.6171875,17.197265625z M8.37890625,0L11.865234375,0 18.779296875,10.3125 15.1171875,10.3125 10.107421875,2.841796875 5.18554782867432,10.3125 1.64062571525574,10.3125 8.37890625,0z" />
    </g>
  </g>
</svg>