<?xml version="1.0" encoding="utf-8"?>
<!DOCTYPE svg PUBLIC "-//W3C//DTD SVG 1.1//EN" "http://www.w3.org/Graphics/SVG/1.1/DTD/svg11.dtd">
<svg width="25.0932788848877" height="42.744140625" xmlns="http://www.w3.org/2000/svg" xmlns:xlink="http://www.w3.org/1999/xlink" xmlns:xml="http://www.w3.org/XML/1998/namespace" version="1.1">
  <g>
    <g>
      <path style="fill:#FF0000;fill-opacity:1" d="M13.798828125,15.380859375L13.798828125,15.908203125 14.296875,17.1826171875 15.5712890625,18.3837890625 17.34375,19.599609375 19.3212890625,20.9619140625 21.2109375,22.587890625 22.734375,24.55078125 23.1298809051514,23.001708984375 23.14453125,21.5771484375 22.7490215301514,20.277099609375 21.9140625,19.1015625 20.6213359832764,18.0358905792236 18.8525390625,17.0654296875 16.585693359375,16.1828632354736 13.798828125,15.380859375z M13.798828125,8.173828125L13.798828125,8.583984375 14.02587890625,9.503173828125 14.70703125,10.3271484375 16.9482421875,11.89453125 19.8193359375,13.5498046875 22.587890625,15.52734375 22.939453125,13.154296875 22.7270488739014,12.0886249542236 22.08984375,11.1181640625 20.9655742645264,10.2392587661743 19.2919921875,9.4482421875 16.944580078125,8.756103515625 13.798828125,8.173828125z M10.78125,0L13.798828125,0 13.798828125,0.791015625 14.443359375,2.4609375 16.083984375,3.6767578125 18.2958984375,4.716796875 20.68359375,5.8447265625 22.8369140625,7.32421875 24.3310546875,9.43359375 24.7412109375,12.451171875 24.4226055145264,14.3774433135986 23.671875,16.640625 24.697265625,18.3837890625 25.0927734375,20.478515625 24.697265625,22.9833984375 23.349609375,25.95703125 23.6572265625,28.41796875 23.0712890625,31.40625 21.4013671875,34.98046875 18.427734375,39.228515625 17.63671875,38.583984375 19.2333984375,35.888671875 20.537109375,33.0322265625 21.0791015625,30.1611328125 20.4345703125,27.4072265625 19.522705078125,26.107177734375 18.1640625,24.873046875 16.28173828125,23.73046875 13.798828125,22.705078125 13.798828125,33.544921875 13.2275390625,37.060546875 11.630859375,39.990234375 9.169921875,41.9970703125 6.005859375,42.744140625 3.42407202720642,42.366943359375 1.5380859375,41.2353515625 0.384521484375,39.437255859375 0,37.060546875 0.673828125,33.9990234375 2.5048828125,31.5380859375 5.185546875,29.8974609375 8.408203125,29.296875 10.78125,29.619140625 10.78125,0z" />
    </g>
  </g>
</svg>