<?xml version="1.0" encoding="utf-8"?>
<!DOCTYPE svg PUBLIC "-//W3C//DTD SVG 1.1//EN" "http://www.w3.org/Graphics/SVG/1.1/DTD/svg11.dtd">
<svg width="20.126953125" height="43.18359375" xmlns="http://www.w3.org/2000/svg" xmlns:xlink="http://www.w3.org/1999/xlink" xmlns:xml="http://www.w3.org/XML/1998/namespace" version="1.1">
  <g>
    <g>
      <path style="fill:#FF0000;fill-opacity:1" d="M13.828125,0L16.376953125,0 16.1572265625,1.259765625 15.8349609375,3.779296875 15.5419921875,7.2802734375 15.41015625,11.484375 15.615234375,17.373046875 16.142578125,22.79296875 16.8896484375,27.65625 17.75390625,31.845703125 18.85986328125,36.13037109375 20.126953125,40.01953125 13.974609375,43.18359375 13.095703125,35.80078125 12.7844228744507,32.05078125 12.4951171875,27.71484375 12.216796875,17.724609375 8.115234375,17.578125 4.16015625,17.255859375 0,16.787109375 1.34765648841858,6.5625 4.658203125,7.060546875 8.291015625,7.412109375 12.744140625,7.55859375 12.83203125,6.8994140625 13.0224609375,5.5224609375 13.2421875,3.779296875 13.4765625,2.0361328125 13.6962890625,0.6591796875 13.828125,0z" />
    </g>
  </g>
</svg>