<?xml version="1.0" encoding="utf-8"?>
<!DOCTYPE svg PUBLIC "-//W3C//DTD SVG 1.1//EN" "http://www.w3.org/Graphics/SVG/1.1/DTD/svg11.dtd">
<svg width="16.259765625" height="16.259765625" xmlns="http://www.w3.org/2000/svg" xmlns:xlink="http://www.w3.org/1999/xlink" xmlns:xml="http://www.w3.org/XML/1998/namespace" version="1.1">
  <g>
    <g>
      <path style="fill:#FF0000;fill-opacity:1" d="M8.14453125,0L9.2431640625,0.4541015625 9.697265625,1.58203125 9.3603515625,2.607421875 8.4375,3.134765625 8.4375,6.5625 8.73046875,6.6650390625 9.0234375,6.826171875 11.42578125,4.39453125 11.2353515625,3.984375 11.162109375,3.486328125 11.6162109375,2.3583984375 12.744140625,1.904296875 13.88671875,2.3583984375 14.35546875,3.486328125 13.88671875,4.6435546875 12.744140625,5.09765625 11.865234375,4.8046875 9.462890625,7.236328125 9.580078125,7.5146484375 9.697265625,7.822265625 13.154296875,7.822265625 13.681640625,6.884765625 14.70703125,6.533203125 15.8056640625,6.9873046875 16.259765625,8.115234375 15.8056640625,9.2724609375 14.70703125,9.7265625 13.681640625,9.375 13.154296875,8.4375 9.697265625,8.4375 9.580078125,8.73046875 9.43359375,9.0234375 11.865234375,11.42578125 12.744140625,11.19140625 13.88671875,11.630859375 14.35546875,12.744140625 13.88671875,13.9013671875 12.744140625,14.35546875 11.6162109375,13.9013671875 11.162109375,12.744140625 11.2353515625,12.275390625 11.42578125,11.8359375 9.0234375,9.462890625 8.4375,9.697265625 8.4375,13.125 9.3603515625,13.6376953125 9.697265625,14.677734375 9.2431640625,15.8056640625 8.14453125,16.259765625 7.001953125,15.8056640625 6.533203125,14.677734375 6.8994140625,13.6376953125 7.822265625,13.125 7.822265625,9.697265625 7.5,9.5947265625 7.236328125,9.462890625 4.8046875,11.8359375 5.0244140625,12.275390625 5.09765625,12.744140625 4.62890625,13.9013671875 3.486328125,14.35546875 2.373046875,13.9013671875 1.93359375,12.744140625 2.373046875,11.630859375 3.486328125,11.19140625 3.955078125,11.25 4.39453125,11.42578125 6.826171875,9.0234375 6.591796875,8.4375 3.134765625,8.4375 2.578125,9.375 1.552734375,9.7265625 0.4541015625,9.2724609375 0,8.115234375 0.4541015625,6.9873046875 1.552734375,6.533203125 2.578125,6.884765625 3.134765625,7.822265625 6.591796875,7.822265625 6.796875,7.236328125 4.39453125,4.8046875 3.486328125,5.09765625 2.373046875,4.6435546875 1.93359375,3.486328125 2.373046875,2.3583984375 3.486328125,1.904296875 4.62890625,2.3583984375 5.09765625,3.486328125 5.0244140625,3.984375 4.8046875,4.39453125 7.236328125,6.826171875 7.5,6.6650390625 7.822265625,6.5625 7.822265625,3.134765625 6.8994140625,2.607421875 6.533203125,1.58203125 7.001953125,0.4541015625 8.14453125,0z" />
    </g>
  </g>
</svg>