<?xml version="1.0" encoding="utf-8"?>
<!DOCTYPE svg PUBLIC "-//W3C//DTD SVG 1.1//EN" "http://www.w3.org/Graphics/SVG/1.1/DTD/svg11.dtd">
<svg width="15.5487433579559" height="43.740234375" xmlns="http://www.w3.org/2000/svg" xmlns:xlink="http://www.w3.org/1999/xlink" xmlns:xml="http://www.w3.org/XML/1998/namespace" version="1.1">
  <g>
    <g>
      <path style="fill:#FF0000;fill-opacity:1" d="M9.23233699798584,0L11.7079229354858,3.4423828125 13.8172979354858,7.03125 15.1942510604858,10.1806640625 15.5018682479858,12.333984375 14.5643682479858,13.974609375 12.8212041854858,15.3955078125 10.6825323104858,16.669921875 8.55850887298584,17.900390625 6.84464168548584,19.130859375 5.98038387298584,20.44921875 6.18546199798584,22.470703125 7.32804012298584,25.1806640625 9.11514949798584,28.271484375 11.2245244979858,31.40625 13.3631963729858,34.2333984375 15.2674932479858,36.416015625 14.0956182479858,37.32421875 11.3453731536865,36.214599609375 8.95401668548584,35.7568359375 6.98013973236084,35.870361328125 5.48233699798584,36.474609375 4.50089073181152,37.532958984375 4.07608699798584,39.0087890625 4.27383995056152,40.828857421875 5.16007041931152,42.919921875 3.49014925956726,43.740234375 1.13175058364868,39.873046875 0.0624151229858398,36.2841796875 0.32608699798584,33.3837890625 1.96671175956726,31.5673828125 3.31803011894226,31.204833984375 5.02823543548584,31.259765625 7.10465145111084,31.8017578125 9.55460262298584,32.900390625 6.06827449798584,28.1396484375 3.41690754890442,23.232421875 1.87882113456726,18.75 1.60782504081726,16.8457050323486 1.73233675956726,15.29296875 2.64053988456726,13.623046875 4.29581356048584,12.2900390625 6.31729793548584,11.1474609375 8.32413387298584,10.0341796875 9.95011043548584,8.84765625 10.8143682479858,7.44140625 10.6385869979858,6.3134765625 9.89151668548584,4.716796875 8.77823543548584,2.841796875 7.50382137298584,0.87890625 9.23233699798584,0z" />
    </g>
  </g>
</svg>