<?xml version="1.0" encoding="utf-8"?>
<!DOCTYPE svg PUBLIC "-//W3C//DTD SVG 1.1//EN" "http://www.w3.org/Graphics/SVG/1.1/DTD/svg11.dtd">
<svg width="18.2226562500001" height="17.109375" xmlns="http://www.w3.org/2000/svg" xmlns:xlink="http://www.w3.org/1999/xlink" xmlns:xml="http://www.w3.org/XML/1998/namespace" version="1.1">
  <g>
    <g>
      <path style="fill:#FF0000;fill-opacity:1" d="M7.998046875,0L9.990234375,0.2197265625 11.5576171875,0.791015625 12.7734375,1.58203125 13.7109375,2.4609375 18.22265625,7.294921875 14.58984375,10.400390625 10.4296875,5.80078125 9.2138671875,4.7314453125 7.6171875,4.248046875 6.024169921875,4.544677734375 4.8193359375,5.4345703125 4.061279296875,6.837158203125 3.80859375,8.671875 4.141845703125,10.9533700942993 5.1416015625,12.7001953125 6.734619140625,13.8098163604736 8.84765625,14.1796875 10.7958974838257,13.8208026885986 12.59765625,12.744140625 12.59765625,15.908203125 10.4663076400757,16.8090839385986 7.998046875,17.109375 4.6728515625,16.4794921875 2.1533203125,14.7509765625 0.556640625,12.158203125 0,8.935546875 0.5126953125,5.2734375 2.021484375,2.4609375 4.51171875,0.64453125 7.998046875,0z" />
    </g>
  </g>
</svg>