<?xml version="1.0" encoding="utf-8"?>
<!DOCTYPE svg PUBLIC "-//W3C//DTD SVG 1.1//EN" "http://www.w3.org/Graphics/SVG/1.1/DTD/svg11.dtd">
<svg width="44.384765625" height="43.65234375" xmlns="http://www.w3.org/2000/svg" xmlns:xlink="http://www.w3.org/1999/xlink" xmlns:xml="http://www.w3.org/XML/1998/namespace" version="1.1">
  <g>
    <g>
      <path style="fill:#FF0000;fill-opacity:1" d="M37.55859375,12.744140625L40.7373046875,13.037109375 42.861328125,13.65234375 44.384765625,14.560546875 44.384765625,25.48828125 44.033203125,25.1953125 42.8466796875,24.55078125 40.7373046875,23.9208984375 37.55859375,23.642578125 34.21875,23.935546875 32.021484375,24.55078125 30.46875,25.458984375 30.46875,14.560546875 32.021484375,13.65234375 34.21875,13.037109375 37.55859375,12.744140625z M6.826171875,12.744140625L10.1513671875,13.037109375 12.333984375,13.65234375 13.916015625,14.560546875 13.916015625,39.0234375 0,39.0234375 0,28.095703125 11.484375,28.095703125 11.484375,25.517578125 10.13671875,24.580078125 8.466796875,23.935546875 6.123046875,23.642578125 3.4716796875,23.9208984375 1.552734375,24.55078125 0.41015625,25.1953125 0,25.48828125 0,14.560546875 1.52343797683716,13.65234375 3.6328125,13.037109375 6.826171875,12.744140625z M23.37890625,0L26.7041015625,0.292969226837158 28.88671875,0.908203601837158 30.46875,1.81640672683716 30.46875,12.744140625 30.1171875,12.451171875 28.9013671875,11.806640625 26.7041015625,11.1767578125 23.37890625,10.8984375 20.830078125,11.220703125 18.984375,11.77734375 18.984375,43.65234375 16.552734375,43.65234375 16.552734375,1.81640672683716 18.076171875,0.908203601837158 20.185546875,0.292969226837158 23.37890625,0z" />
    </g>
  </g>
</svg>