<?xml version="1.0" encoding="utf-8"?>
<!DOCTYPE svg PUBLIC "-//W3C//DTD SVG 1.1//EN" "http://www.w3.org/Graphics/SVG/1.1/DTD/svg11.dtd">
<svg width="23.2031250000002" height="15.556640625" xmlns="http://www.w3.org/2000/svg" xmlns:xlink="http://www.w3.org/1999/xlink" xmlns:xml="http://www.w3.org/XML/1998/namespace" version="1.1">
  <g>
    <g>
      <path style="fill:#FF0000;fill-opacity:1" d="M14.23828125,8.935546875L13.564453125,9.1552734375 13.06640625,9.7265625 12.7587890625,10.4736328125 12.65625,11.220703125 12.7734375,12.158203125 15.146484375,10.546875 15.380859375,10.01953125 15.0732421875,9.2724609375 14.23828125,8.935546875z M20.9765625,8.642578125L20.33203125,9.0087890625 19.51171875,9.697265625 18.779296875,10.7666015625 18.45703125,12.24609375 18.9111328125,13.88671875 19.951171875,14.501953125 21.1962890625,13.7841796875 21.591796875,12.0703125 20.9765625,8.642578125z M7.880859375,0L9.4921875,0.1611328125 10.8837890625,0.64453125 11.8505859375,1.494140625 12.216796875,2.724609375 11.6748046875,4.189453125 10.107421875,4.86328125 9.2724609375,4.658203125 8.701171875,4.189453125 8.26171875,3.515625 8.642578125,3.134765625 8.935546875,3.310546875 9.287109375,3.427734375 9.78515625,3.486328125 10.6494140625,3.1787109375 10.927734375,2.34375 10.7116689682007,1.629638671875 10.0634765625,1.1279296875 7.96875,0.732421875 7.646484375,0.7470703125 7.32421875,0.76171875 6.7529296875,1.9921875 6.650390625,2.841796875 7.0751953125,3.7060546875 7.763671875,4.6435546875 8.408203125,5.625 8.701171875,6.62109375 8.5400390625,7.353515625 8.1005859375,8.5400390625 7.4267578125,10.01953125 6.5625,11.6015625 7.91015625,11.3671875 9.5361328125,11.66015625 10.546875,12.3046875 11.19140625,13.212890625 11.630859375,12.919921875 11.4697265625,12.333984375 11.42578125,11.77734375 11.5869140625,10.48828125 12.0849609375,9.3603515625 12.94921875,8.5693359375 14.208984375,8.26171875 15.9228515625,8.8623046875 16.58203125,10.1953125 16.259765625,10.810546875 13.125,12.978515625 13.7841796875,13.6376953125 14.736328125,13.88671875 15.849609375,13.59375 16.93359375,12.7734375 16.93359375,12.392578125 17.4755859375,10.517578125 18.69140625,9.19921875 19.98046875,8.3935546875 20.7421875,8.056640625 19.54833984375,6.17431640625 17.841796875,4.51171875 15.56396484375,3.1201171875 12.65625,2.05078125 12.65625,1.435546875 17.9296875,3.310546875 19.86328125,4.6142578125 21.5478515625,6.3427734375 22.7490234375,8.5693359375 23.203125,11.3671875 23.0126953125,12.83203125 22.4267578125,14.1357421875 21.4013671875,15.05859375 19.921875,15.41015625 18.3251953125,14.9560546875 17.138671875,13.564453125 15.8056640625,14.912109375 14.560546875,15.41015625 13.0810546875,14.9267578125 12.01171875,13.740234375 9.7265625,15.322265625 9.609375,15.322265625 9.111328125,13.798828125 8.3056640625,12.744140625 7.001953125,12.275390625 6.09375,12.36328125 4.189453125,14.619140625 3.1640625,15.3222675323486 2.138671875,15.556640625 2.138671875,15.2197265625 2.7392578125,14.384765625 3.7939453125,13.3154296875 5.185546875,12.275390625 5.91796875,11.1767578125 6.533203125,10.0634765625 6.9140625,9.0673828125 6.97265625,8.349609375 6.591796875,7.529296875 5.947265625,6.533203125 5.2734375,5.478515625 4.833984375,4.482421875 4.8779296875,3.8671875 5.185546875,2.9736328125 5.6982421875,1.9482421875 6.38671875,0.87890625 4.6728515625,1.3330078125 3.1787109375,2.0947265625 2.12402367591858,3.134765625 1.72851538658142,4.423828125 1.9921875,5.15625 2.578125,5.390625 3.2373046875,5.126953125 3.544921875,4.3359375 4.16015625,4.3359375 3.9697265625,5.1708984375 3.4716796875,5.80078125 2.7685546875,6.2109375 1.9921875,6.357421875 1.31835961341858,6.2548828125 0.673828363418579,5.91796875 0.19042956829071,5.33203125 0,4.482421875 0.190429642796516,3.548583984375 0.76171875,2.6806640625 2.6806640625,1.259765625 5.2294921875,0.3369140625 7.880859375,0z" />
    </g>
  </g>
</svg>