<?xml version="1.0" encoding="utf-8"?>
<!DOCTYPE svg PUBLIC "-//W3C//DTD SVG 1.1//EN" "http://www.w3.org/Graphics/SVG/1.1/DTD/svg11.dtd">
<svg width="22.5" height="42.83203125" xmlns="http://www.w3.org/2000/svg" xmlns:xlink="http://www.w3.org/1999/xlink" xmlns:xml="http://www.w3.org/XML/1998/namespace" version="1.1">
  <g>
    <g>
      <path style="fill:#FF0000;fill-opacity:1" d="M12.36328125,10.576171875L9.254150390625,12.008056640625 6.8994140625,14.4873046875 5.416259765625,17.838134765625 4.921875,21.884765625 5.419921875,25.90576171875 6.9140625,29.1796875 9.2724609375,31.552734375 12.36328125,32.87109375 12.36328125,10.576171875z M12.36328125,0L16.025390625,0 16.025390625,5.94726514816284 19.44580078125,6.35009765625 22.5,7.44140625 22.5,12.48046875 19.40185546875,10.869140625 16.025390625,10.1953125 16.025390625,33.193359375 19.43115234375,32.3876953125 22.5,30.673828125 22.5,35.2734375 19.47509765625,36.64306640625 16.025390625,37.294921875 16.025390625,42.83203125 12.36328125,42.83203125 12.36328125,37.236328125 9.67987060546875,36.6998291015625 7.283935546875,35.73486328125 5.17547607421875,34.3414306640625 3.35449242591858,32.51953125 1.88690209388733,30.35888671875 0.838623285293579,27.94921875 0.209655895829201,25.29052734375 0,22.3828125 0.209655895829201,19.3057250976563 0.838623285293579,16.490478515625 1.88690209388733,13.9370727539063 3.35449242591858,11.6455078125 5.17547607421875,9.68719482421875 7.283935546875,8.133544921875 9.67987060546875,6.98455810546875 12.36328125,6.24023389816284 12.36328125,0z" />
    </g>
  </g>
</svg>