<?xml version="1.0" encoding="utf-8"?>
<!DOCTYPE svg PUBLIC "-//W3C//DTD SVG 1.1//EN" "http://www.w3.org/Graphics/SVG/1.1/DTD/svg11.dtd">
<svg width="36.8847656250003" height="71.162109375" xmlns="http://www.w3.org/2000/svg" xmlns:xlink="http://www.w3.org/1999/xlink" xmlns:xml="http://www.w3.org/XML/1998/namespace" version="1.1">
  <g>
    <g>
      <path style="fill:#FF0000;fill-opacity:1" d="M24.873046875,0L26.6711406707764,0.307620078325272 28.0810546875,1.23046898841858 28.9929180145264,2.65869426727295 29.296875,4.48242139816284 29.150390625,5.6396484375 28.76953125,6.591796875 30.6005859375,5.8740234375 31.962890625,4.77539014816284 33.0029296875,3.310546875 33.896484375,1.49414014816284 34.39453125,0.263672113418579 36.884765625,0.263672113418579 7.763671875,71.162109375 5.33203125,71.162109375 11.3671875,56.3671875 8.642578125,57.7880859375 5.5078125,58.2421875 3.29589819908142,57.890625 1.55273461341858,56.9091796875 0.410155534744263,55.4150390625 0,53.525390625 0.366210460662842,51.591796875 1.37695336341858,50.1416015625 2.88574194908142,49.2333984375 4.775390625,48.92578125 6.573486328125,49.2333984375 7.9833984375,50.15625 8.895263671875,51.58447265625 9.19921875,53.408203125 9.052734375,54.5654296875 8.671875,55.517578125 10.5029296875,54.7998046875 11.865234375,53.701171875 12.9052734375,52.236328125 13.798828125,50.419921875 16.40625,44.150390625 13.681640625,45.5712890625 10.546875,46.025390625 8.3349609375,45.673828125 6.591796875,44.6923828125 5.44921779632568,43.1982421875 5.0390625,41.30859375 5.4052734375,39.375 6.416015625,37.9248046875 7.9248046875,37.0166015625 9.814453125,36.708984375 11.6125478744507,37.0166015625 13.0224609375,37.939453125 13.934326171875,39.36767578125 14.23828125,41.19140625 14.091796875,42.3486328125 13.7109375,43.30078125 15.5419921875,42.5830078125 16.904296875,41.484375 17.9443359375,40.01953125 18.837890625,38.203125 21.4453125,31.904296875 18.720703125,33.3251953125 15.5859375,33.779296875 13.3740234375,33.427734375 11.630859375,32.4462890625 10.4882802963257,30.9521484375 10.078125,29.0625 10.4443359375,27.12890625 11.455078125,25.6787109375 12.9638671875,24.7705078125 14.853515625,24.462890625 16.651611328125,24.7705097198486 18.0615234375,25.693359375 18.973388671875,27.1215839385986 19.27734375,28.9453125 19.130859375,30.1025390625 18.75,31.0546875 20.5810546875,30.3369140625 21.943359375,29.23828125 22.9833984375,27.7734375 23.876953125,25.95703125 26.455078125,19.658203125 23.73046875,21.0791015625 20.595703125,21.533203125 18.3837890625,21.181640625 16.640625,20.2001953125 15.498046875,18.7060546875 15.087890625,16.81640625 15.4541015625,14.8828134536743 16.46484375,13.4326171875 17.9736328125,12.5244140625 19.86328125,12.216796875 21.6613750457764,12.5244140625 23.0712890625,13.447265625 23.9831523895264,14.87548828125 24.287109375,16.69921875 24.140625,17.8564453125 23.759765625,18.80859375 25.5908203125,18.0908203125 26.953125,16.9921875 27.9931640625,15.52734375 28.88671875,13.7109375 31.46484375,7.44140577316284 28.740234375,8.8623046875 25.60546875,9.31640625 23.3935546875,8.96484375 21.650390625,7.98339891433716 20.5078125,6.4892578125 20.09765625,4.599609375 20.4638671875,2.666015625 21.474609375,1.21582055091858 22.9833984375,0.3076171875 24.873046875,0z" />
    </g>
  </g>
</svg>