<?xml version="1.0" encoding="utf-8"?>
<!DOCTYPE svg PUBLIC "-//W3C//DTD SVG 1.1//EN" "http://www.w3.org/Graphics/SVG/1.1/DTD/svg11.dtd">
<svg width="26.8066406250003" height="46.69921875" xmlns="http://www.w3.org/2000/svg" xmlns:xlink="http://www.w3.org/1999/xlink" xmlns:xml="http://www.w3.org/XML/1998/namespace" version="1.1">
  <g>
    <g>
      <path style="fill:#FF0000;fill-opacity:1" d="M14.794921875,0L16.593017578125,0.3076171875 18.0029296875,1.23046875 18.914794921875,2.65869140625 19.21875,4.482421875 19.072265625,5.6396484375 18.69140625,6.591796875 20.5224609375,5.8740234375 21.884765625,4.775390625 22.9248046875,3.310546875 23.818359375,1.494140625 24.31640625,0.263671875 26.806640625,0.263671875 7.763671875,46.69921875 5.33203125,46.69921875 11.3671875,31.904296875 8.642578125,33.3251953125 5.5078125,33.779296875 3.29589819908142,33.427734375 1.55273365974426,32.4462890625 0.41015625,30.9521484375 0,29.0625 0.366210460662842,27.12890625 1.37695288658142,25.6787109375 2.88574194908142,24.7705078125 4.775390625,24.462890625 6.573486328125,24.7705078125 7.9833984375,25.693359375 8.895263671875,27.12158203125 9.19921875,28.9453125 9.052734375,30.1025390625 8.671875,31.0546875 10.5029296875,30.3369140625 11.865234375,29.23828125 12.9052734375,27.7734375 13.798828125,25.95703125 16.376953125,19.658203125 13.65234375,21.0791015625 10.517578125,21.533203125 8.3056640625,21.181640625 6.5625,20.2001953125 5.419921875,18.7060546875 5.009765625,16.81640625 5.3759765625,14.8828125 6.38671875,13.4326171875 7.8955078125,12.5244140625 9.78515625,12.216796875 11.5832509994507,12.5244159698486 12.9931640625,13.447265625 13.905029296875,14.8754901885986 14.208984375,16.69921875 14.0625,17.8564453125 13.681640625,18.80859375 15.5126953125,18.0908203125 16.875,16.9921875 17.9150390625,15.52734375 18.80859375,13.7109375 21.38671875,7.44140625 18.662109375,8.8623046875 15.52734375,9.31640625 13.3154296875,8.96484375 11.572265625,7.9833984375 10.4296875,6.4892578125 10.01953125,4.599609375 10.3857421875,2.666015625 11.396484375,1.2158203125 12.9052734375,0.307617664337158 14.794921875,0z" />
    </g>
  </g>
</svg>