<?xml version="1.0" encoding="utf-8"?>
<!DOCTYPE svg PUBLIC "-//W3C//DTD SVG 1.1//EN" "http://www.w3.org/Graphics/SVG/1.1/DTD/svg11.dtd">
<svg width="12.1875" height="39.287109375" xmlns="http://www.w3.org/2000/svg" xmlns:xlink="http://www.w3.org/1999/xlink" xmlns:xml="http://www.w3.org/XML/1998/namespace" version="1.1">
  <g>
    <g>
      <path style="fill:#FF0000;fill-opacity:1" d="M0.585937559604645,18.017578125L0.585937559604645,18.427734375 0.820312321186066,19.390869140625 1.52343726158142,20.2880859375 3.76464796066284,22.060546875 6.4599609375,24.0380859375 8.759765625,26.513671875 9.3017578125,24.287109375 9.100341796875,23.243408203125 8.466796875,22.2216796875 7.36083936691284,21.207275390625 5.7421875,20.185546875 3.51562476158142,19.130859375 0.585937559604645,18.017578125z M0.585937559604645,12.158203125L0.585937559604645,12.392578125 1.0986328125,13.6669921875 2.41699194908142,14.765625 4.26269578933716,15.791015625 6.3427734375,16.845703125 8.349609375,18.076171875 10.01953125,19.599609375 10.2685546875,18.28125 10.13671875,17.138671875 9.609375,16.1315937042236 8.671875,15.2197265625 7.31323194503784,14.3884296417236 5.5224609375,13.623046875 3.28491187095642,12.8906269073486 0.585937559604645,12.158203125z M0.585937559604645,6.328125L0.585937559604645,6.533203125 1.05468738079071,7.7197265625 2.31445264816284,8.671875 4.1162109375,9.5068359375 6.181640625,10.3271484375 8.26171875,11.2646484375 10.13671875,12.421875 10.0927734375,10.634765625 9.67529296875,9.77783298492432 8.8623046875,8.96484375 7.60986328125,8.203125 5.8740234375,7.5 3.56323218345642,6.8701171875 0.585937559604645,6.328125z M0,0L0.585937559604645,0 0.585937559604645,0.205078125 1.21581995487213,1.845703125 2.8564453125,2.9443359375 5.09765672683716,3.779296875 7.5146484375,4.62890625 9.7265625,5.7421875 11.337890625,7.3828125 11.923828125,9.8291015625 11.71875,11.4367694854736 11.103515625,13.359375 11.89453125,14.7216796875 12.1875,16.3916015625 11.865234375,18.427734375 10.810546875,20.888671875 11.1474609375,22.283935546875 11.103515625,23.8916015625 10.576171875,25.748291015625 9.462890625,27.890625 9.814453125,30.05859375 9.345703125,32.63671875 7.880859375,35.6982421875 5.21484375,39.287109375 4.423828125,38.642578125 5.888671875,36.09375 6.8994140625,33.5888671875 7.1337890625,31.1279296875 6.2841796875,28.7109375 5.343017578125,27.520751953125 4.01367139816284,26.3525390625 2.24853491783142,25.198974609375 0,24.052734375 0,0z" />
    </g>
  </g>
</svg>