<?xml version="1.0" encoding="utf-8"?>
<!DOCTYPE svg PUBLIC "-//W3C//DTD SVG 1.1//EN" "http://www.w3.org/Graphics/SVG/1.1/DTD/svg11.dtd">
<svg width="19.04296875" height="54.609375" xmlns="http://www.w3.org/2000/svg" xmlns:xlink="http://www.w3.org/1999/xlink" xmlns:xml="http://www.w3.org/XML/1998/namespace" version="1.1">
  <g>
    <g>
      <path style="fill:#FF0000;fill-opacity:1" d="M9.609375,24.521484375L7.0458984375,25.0927734375 4.716796875,26.54296875 4.716796875,40.4296875 8.7744140625,39.3017578125 11.6748046875,37.0166015625 13.4033203125,33.80859375 13.974609375,29.8828125 13.7109375,27.7880859375 12.9052734375,26.0888671875 11.54296875,24.9462890625 9.609375,24.521484375z M1.69921875,0L4.716796875,0 4.716796875,24.78515625 8.0859375,22.4853515625 9.96093654632568,21.859130859375 12.12890625,21.650390625 15.087890625,22.2509765625 17.255859375,23.935546875 18.5888671875,26.54296875 19.04296875,29.8828125 18.4130859375,33.7060546875 16.7138671875,36.6943359375 14.2236328125,38.935546875 11.220703125,40.5029296875 7.9541015625,41.484375 4.716796875,41.953125 4.716796875,47.6953125 6.4453125,47.6953125 3.22265625,54.609375 0,47.6953125 1.69921875,47.6953125 1.69921875,0z" />
    </g>
  </g>
</svg>