<?xml version="1.0" encoding="utf-8"?>
<!DOCTYPE svg PUBLIC "-//W3C//DTD SVG 1.1//EN" "http://www.w3.org/Graphics/SVG/1.1/DTD/svg11.dtd">
<svg width="30.1171875" height="13.916015625" xmlns="http://www.w3.org/2000/svg" xmlns:xlink="http://www.w3.org/1999/xlink" xmlns:xml="http://www.w3.org/XML/1998/namespace" version="1.1">
  <g>
    <g>
      <path style="fill:#FF0000;fill-opacity:1" d="M13.740234375,1.552734375L11.54296875,1.904296875 10.2099609375,2.8271484375 9.5361328125,4.0869140625 9.345703125,5.44921875 9.375,6.09375 9.462890625,6.708984375 10.1953125,9.08203125 11.455078125,10.8544921875 13.447265625,11.9677734375 16.40625,12.36328125 18.603515625,12.01171875 19.9365234375,11.103515625 20.6103515625,9.84375 20.80078125,8.466796875 20.771484375,7.822265625 20.68359375,7.20703125 19.9658203125,4.8486328125 18.7060546875,3.076171875 16.69921875,1.9482421875 13.740234375,1.552734375z M28.41796875,0L30.1171875,0 30.1171875,13.916015625 28.41796875,13.916015625 28.41796875,0z M3.603515625,0L5.302734375,0 5.302734375,4.86328125 6.2109375,2.9736328125 7.8955078125,1.4208984375 10.37109375,0.380859375 13.623046875,0 18.017578125,0.5126953125 21.3427734375,1.8896484375 23.5986328125,3.8671875 24.814453125,6.181640625 24.814453125,0 26.513671875,0 26.513671875,13.916015625 24.814453125,13.916015625 24.814453125,9.169921875 23.8623046875,11.0009765625 22.177734375,12.509765625 19.7314453125,13.53515625 16.5234375,13.916015625 12.0556640625,13.388671875 8.7158203125,11.982421875 6.4599609375,9.9609375 5.302734375,7.6171875 5.302734375,13.916015625 3.603515625,13.916015625 3.603515625,0z M0,0L1.69921875,0 1.69921875,13.916015625 0,13.916015625 0,0z" />
    </g>
  </g>
</svg>