<?xml version="1.0" encoding="utf-8"?>
<!DOCTYPE svg PUBLIC "-//W3C//DTD SVG 1.1//EN" "http://www.w3.org/Graphics/SVG/1.1/DTD/svg11.dtd">
<svg width="25.0891094207764" height="42.744140625" xmlns="http://www.w3.org/2000/svg" xmlns:xlink="http://www.w3.org/1999/xlink" xmlns:xml="http://www.w3.org/XML/1998/namespace" version="1.1">
  <g>
    <g>
      <path style="fill:#FF0000;fill-opacity:1" d="M13.798828125,9.052734375L13.798828125,9.2578125 14.267578125,10.5322265625 15.4833984375,11.8505859375 17.197265625,13.3154296875 19.1748046875,15.0146484375 21.123046875,17.021484375 22.79296875,19.39453125 23.232421875,16.5966796875 23.0383281707764,15.1684589385986 22.3974609375,13.7841796875 21.2438945770264,12.4548358917236 19.51171875,11.19140625 17.07275390625,10.0415048599243 13.798828125,9.052734375z M10.78125,0L13.798828125,0 13.798828125,0.791015625 14.4873046875,2.548828125 16.259765625,3.92578125 18.6474609375,5.21484375 21.1669921875,6.7236328125 23.37890625,8.759765625 24.814453125,11.5869140625 24.990234375,15.5126953125 24.4775371551514,17.9772968292236 23.466796875,20.830078125 24.228515625,24.2724609375 23.8623046875,28.4326171875 23.1518535614014,30.81298828125 22.0458984375,33.4130859375 20.4895000457764,36.243896484375 18.427734375,39.31640625 17.63671875,38.671875 18.8671875,36.6943359375 20.1416015625,34.1748046875 21.1669921875,31.318359375 21.6943359375,28.271484375 21.474609375,25.1953125 20.2587890625,22.2802734375 17.783203125,19.6728515625 15.99609375,18.526611328125 13.798828125,17.51953125 13.798828125,33.544921875 13.2275390625,37.060546875 11.630859375,39.990234375 9.169921875,41.9970703125 6.005859375,42.744140625 3.42407202720642,42.366943359375 1.5380859375,41.2353515625 0.384521484375,39.437255859375 0,37.060546875 0.673828125,33.9990234375 2.5048828125,31.5380859375 5.185546875,29.8974609375 8.408203125,29.296875 10.78125,29.619140625 10.78125,0z" />
    </g>
  </g>
</svg>