<?xml version="1.0" encoding="utf-8"?>
<!DOCTYPE svg PUBLIC "-//W3C//DTD SVG 1.1//EN" "http://www.w3.org/Graphics/SVG/1.1/DTD/svg11.dtd">
<svg width="25.400390625" height="42.744140625" xmlns="http://www.w3.org/2000/svg" xmlns:xlink="http://www.w3.org/1999/xlink" xmlns:xml="http://www.w3.org/XML/1998/namespace" version="1.1">
  <g>
    <g>
      <path style="fill:#FF0000;fill-opacity:1" d="M13.798828125,18.017578125L13.798828125,18.427734375 14.033203125,19.390869140625 14.736328125,20.2880859375 16.9775390625,22.060546875 19.6728515625,24.0380859375 21.97265625,26.513671875 22.5146484375,24.287109375 22.3132305145264,23.243408203125 21.6796875,22.2216796875 20.5737285614014,21.207275390625 18.955078125,20.185546875 16.728515625,19.130859375 13.798828125,18.017578125z M13.798828125,12.158203125L13.798828125,12.392578125 14.3115234375,13.6669921875 15.6298828125,14.765625 17.4755859375,15.791015625 19.5556640625,16.845703125 21.5625,18.076171875 23.232421875,19.599609375 23.4814434051514,18.28125 23.349609375,17.138671875 22.8222637176514,16.1315937042236 21.884765625,15.2197265625 20.5261211395264,14.3884296417236 18.7353515625,13.623046875 16.497802734375,12.8906269073486 13.798828125,12.158203125z M13.798828125,6.328125L13.798828125,6.533203125 14.267578125,7.7197265625 15.52734375,8.671875 17.3291015625,9.5068359375 19.39453125,10.3271484375 21.4892578125,11.2646484375 23.349609375,12.421875 23.3056640625,10.634765625 22.8881816864014,9.77783298492432 22.0751953125,8.96484375 20.8227519989014,8.203125 19.0869140625,7.5 16.776123046875,6.8701171875 13.798828125,6.328125z M10.78125,0L13.798828125,0 13.798828125,0.205078125 14.4287109375,1.845703125 16.0693359375,2.9443359375 18.310546875,3.779296875 20.7275390625,4.62890625 22.939453125,5.7421875 24.55078125,7.3828125 25.13671875,9.8291015625 24.9316387176514,11.4367694854736 24.31640625,13.359375 25.107421875,14.7216796875 25.400390625,16.3916015625 25.078125,18.427734375 24.0234375,20.888671875 24.3603496551514,22.283935546875 24.31640625,23.8916015625 23.7890605926514,25.748291015625 22.67578125,27.890625 23.02734375,30.05859375 22.55859375,32.63671875 21.09375,35.6982421875 18.427734375,39.287109375 17.63671875,38.642578125 19.1455078125,36.09375 20.2734375,33.5888671875 20.654296875,31.1279296875 19.9365234375,28.7109375 19.05029296875,27.520751953125 17.7685546875,26.3525390625 16.036376953125,25.198974609375 13.798828125,24.052734375 13.798828125,33.544921875 13.2275390625,37.060546875 11.630859375,39.990234375 9.169921875,41.9970703125 6.005859375,42.744140625 3.42407202720642,42.366943359375 1.5380859375,41.2353515625 0.384521484375,39.437255859375 0,37.060546875 0.673828125,33.9990234375 2.5048828125,31.5380859375 5.185546875,29.8974609375 8.408203125,29.296875 10.78125,29.619140625 10.78125,0z" />
    </g>
  </g>
</svg>