<?xml version="1.0" encoding="utf-8"?>
<!DOCTYPE svg PUBLIC "-//W3C//DTD SVG 1.1//EN" "http://www.w3.org/Graphics/SVG/1.1/DTD/svg11.dtd">
<svg width="55.25390625" height="41.982421875" xmlns="http://www.w3.org/2000/svg" xmlns:xlink="http://www.w3.org/1999/xlink" xmlns:xml="http://www.w3.org/XML/1998/namespace" version="1.1">
  <g>
    <g>
      <path style="fill:#FF0000;fill-opacity:1" d="M50.44921875,0L55.25390625,0 55.25390625,41.982421875 0,41.982421875 0,37.67578125 22.470703125,37.67578125 24.7558574676514,35.709228515625 26.455078125,33.3251953125 27.5097637176514,30.538330078125 27.861328125,27.36328125 27.4072265625,24.375 26.044921875,21.9873046875 23.7890625,20.4052734375 20.654296875,19.833984375 17.4462890625,20.361328125 15.029296875,21.826171875 13.4912109375,24.0673828125 12.94921875,26.923828125 13.0810546875,28.88671875 13.53515625,30.76171875 8.818359375,30.76171875 8.37890625,28.5498046875 8.232421875,26.513671875 8.466796875,24.17724609375 9.169921875,22.03125 11.77734375,18.5009765625 15.7763671875,16.1865234375 18.218994140625,15.5603046417236 20.888671875,15.3515625 23.5510234832764,15.5712909698486 25.9130859375,16.23046875 29.6484375,18.662109375 31.962890625,22.3974609375 32.55615234375,24.678955078125 32.75390625,27.158203125 32.3876953125,30.4833984375 31.376953125,33.3837890625 29.8974609375,35.80078125 28.154296875,37.67578125 50.44921875,37.67578125 50.44921875,0z" />
    </g>
  </g>
</svg>