<?xml version="1.0" encoding="utf-8"?>
<!DOCTYPE svg PUBLIC "-//W3C//DTD SVG 1.1//EN" "http://www.w3.org/Graphics/SVG/1.1/DTD/svg11.dtd">
<svg width="40.1660156250001" height="43.505859375" xmlns="http://www.w3.org/2000/svg" xmlns:xlink="http://www.w3.org/1999/xlink" xmlns:xml="http://www.w3.org/XML/1998/namespace" version="1.1">
  <g>
    <g>
      <path style="fill:#FF0000;fill-opacity:1" d="M28.447265625,4.482421875L25.400390625,5.068359375 22.96875,6.8115234375 21.3720703125,9.66796875 20.80078125,13.59375 21.0498046875,16.4208984375 21.6943359375,19.3505859375 22.55859375,22.3388671875 23.466796875,25.37109375 28.4033203125,23.671875 32.109375,20.830078125 34.453125,17.0947265625 35.068359375,14.9670429229736 35.2734375,12.71484375 34.775390625,9.3603515625 33.3837890625,6.767578125 31.23046875,5.0830078125 28.447265625,4.482421875z M5.771484375,0L9.90234375,2.05078125 7.664794921875,4.8046875 6.1083984375,7.55859375 5.19653272628784,10.4150400161743 4.892578125,13.4765625 5.12695264816284,15.9411640167236 5.830078125,18.2373046875 6.97998046875,20.306396484375 8.5546875,22.08984375 10.5358877182007,23.56201171875 12.9052734375,24.697265625 15.633544921875,25.4443359375 18.69140625,25.751953125 17.7685546875,22.7197265625 16.8603515625,19.599609375 16.171875,16.34765625 15.908203125,12.890625 16.175537109375,9.89135837554932 16.9775390625,7.2802734375 18.21533203125,5.064697265625 19.7900390625,3.251953125 21.6577129364014,1.83837890625 23.7744140625,0.8203125 26.0412578582764,0.205078125 28.359375,0 30.87890625,0.230712890625 33.1640625,0.9228515625 35.17822265625,2.0361328125 36.884765625,3.5302734375 39.3017578125,7.55859375 39.949951171875,10.0268564224243 40.166015625,12.744140625 39.869384765625,15.8129901885986 38.9794921875,18.69140625 37.562255859375,21.324462890625 35.68359375,23.6572265625 33.3837890625,25.67138671875 30.703125,27.3486328125 27.7075176239014,28.641357421875 24.462890625,29.501953125 24.7119140625,31.2890625 24.814453125,33.046875 24.169921875,36.85546875 22.1484375,40.2099609375 20.57373046875,41.546630859375 18.603515625,42.59765625 16.20849609375,43.27880859375 13.359375,43.505859375 7.79296875,42.7880859375 5.33203077316284,41.927490234375 3.28124976158142,40.78125 3.28124976158142,35.419921875 5.53710889816284,36.968994140625 7.96875,38.1005859375 10.5029287338257,38.792724609375 13.06640625,39.0234375 16.34765625,38.5400390625 18.45703125,37.1923828125 19.5849609375,35.185546875 19.921875,32.724609375 19.86328125,31.3330078125 19.6875,29.94140625 15.2783203125,29.62646484375 11.3671875,28.681640625 7.987060546875,27.1875 5.1708984375,25.224609375 2.94067358970642,22.825927734375 1.31835913658142,20.0244140625 0.329589635133743,16.9006366729736 0,13.53515625 0.388183385133743,9.63134860992432 1.55273413658142,6.064453125 3.38378882408142,2.84912109375 5.771484375,0z" />
    </g>
  </g>
</svg>