<?xml version="1.0" encoding="utf-8"?>
<!DOCTYPE svg PUBLIC "-//W3C//DTD SVG 1.1//EN" "http://www.w3.org/Graphics/SVG/1.1/DTD/svg11.dtd">
<svg width="60.234375" height="43.505859375" xmlns="http://www.w3.org/2000/svg" xmlns:xlink="http://www.w3.org/1999/xlink" xmlns:xml="http://www.w3.org/XML/1998/namespace" version="1.1">
  <g>
    <g>
      <path style="fill:#FF0000;fill-opacity:1" d="M13.623046875,24.31640625L10.751953125,24.9169921875 8.466796875,26.54296875 6.9580078125,28.9453125 6.416015625,31.904296875 6.9580078125,35.0537109375 8.466796875,37.4853515625 10.7373046875,39.052734375 13.59375,39.609375 16.171875,39.111328125 18.251953125,37.6318359375 19.6435546875,35.185546875 20.15625,31.81640625 19.716796875,28.916015625 18.4423828125,26.5283203125 16.3916015625,24.9169921875 13.623046875,24.31640625z M19.599609375,0L24.0930156707764,0.4833984375 27.7880859375,1.93359375 30.648193359375,4.38720703125 32.63671875,7.880859375 32.87109375,7.880859375 34.7607421875,4.4091796875 37.5,1.9482421875 40.8984375,0.4833984375 44.765625,0 47.7026329040527,0.30029296875 50.537109375,1.201171875 53.1628379821777,2.750244140625 55.4736328125,4.9951171875 57.4145469665527,7.950439453125 58.9306640625,11.630859375 59.9084434509277,16.0913105010986 60.234375,21.38671875 59.7509765625,27.0556640625 58.330078125,32.900390625 56.044921875,38.5107421875 52.96875,43.505859375 48.427734375,41.89453125 51.5625,36.943359375 53.7158203125,31.6845703125 54.9462890625,26.4697265625 55.341796875,21.62109375 55.1440391540527,17.5195331573486 54.55078125,14.00390625 53.6022911071777,11.0559091567993 52.3388671875,8.6572265625 50.7714805603027,6.807861328125 48.9111328125,5.5078125 46.7980918884277,4.73876953125 44.47265625,4.482421875 42.550048828125,4.6728515625 40.7666015625,5.244140625 39.166259765625,6.23291015625 37.79296875,7.67578125 36.6650390625,9.583740234375 35.80078125,11.9677734375 35.25146484375,14.8645038604736 35.068359375,18.310546875 35.068359375,42.744140625 30.263671875,42.744140625 30.263671875,18.310546875 30.069580078125,14.7509784698486 29.4873046875,11.806640625 28.5498027801514,9.422607421875 27.2900390625,7.5439453125 25.7263164520264,6.14501953125 23.876953125,5.2001953125 19.482421875,4.482421875 16.40625,4.833984375 13.564453125,5.888671875 11.0266103744507,7.58056640625 8.8623046875,9.84375 7.09716796875,12.6489276885986 5.7568359375,15.966796875 4.91088819503784,19.7314453125 4.62890672683716,23.876953125 4.658203125,25.078125 4.775390625,26.513671875 4.98046922683716,26.513671875 6.38671875,23.994140625 8.4814453125,22.0458984375 11.2353515625,20.7861328125 14.619140625,20.33203125 16.669921875,20.526123046875 18.603515625,21.1083984375 21.884765625,23.3349609375 24.111328125,26.8359375 24.7265605926514,29.01123046875 24.931640625,31.435546875 24.7338848114014,33.900146484375 24.140625,36.1962890625 21.8701171875,40.0341796875 18.3251953125,42.5830078125 16.138916015625,43.275146484375 13.7109375,43.505859375 10.2905263900757,43.114013671875 7.412109375,41.9384765625 5.04638671875,40.081787109375 3.1640625,37.646484375 1.7431640625,34.6728515625 0.76171875,31.201171875 0.1904296875,27.333984375 0,23.173828125 0.369873046875,18.1018085479736 1.4794921875,13.5498046875 3.240966796875,9.580078125 5.56640625,6.2548828125 8.4228515625,3.59619140625 11.77734375,1.6259765625 15.53466796875,0.406494140625 19.599609375,0z" />
    </g>
  </g>
</svg>