<?xml version="1.0" encoding="utf-8"?>
<!DOCTYPE svg PUBLIC "-//W3C//DTD SVG 1.1//EN" "http://www.w3.org/Graphics/SVG/1.1/DTD/svg11.dtd">
<svg width="76.142578125" height="43.505859375" xmlns="http://www.w3.org/2000/svg" xmlns:xlink="http://www.w3.org/1999/xlink" xmlns:xml="http://www.w3.org/XML/1998/namespace" version="1.1">
  <g>
    <g>
      <path style="fill:#FF0000;fill-opacity:1" d="M16.025390625,0L20.01708984375,0.49804675579071 23.26171875,1.99218654632568 25.7592754364014,4.51171875 27.509765625,8.0859375 27.7734375,8.0859375 29.82421875,4.541015625 32.783203125,2.0068359375 36.38671875,0.498046875 40.400390625,0 43.16162109375,0.234375 45.5859375,0.9375 47.6696739196777,2.138671875 49.4091796875,3.86718845367432 50.7971153259277,6.1376953125 51.826171875,8.96484375 52.4853477478027,12.3706073760986 52.763671875,16.376953125 52.8369140625,18.515625 52.880859375,20.830078125 52.880859375,25.224609375 52.8955078125,26.77734375 52.939453125,28.447265625 53.5784873962402,33.0743408203125 55.0854454040527,36.37939453125 57.4603233337402,38.3624267578125 60.703125,39.0234375 62.926025390625,38.7158203125 64.9658203125,37.79296875 66.77490234375,36.331787109375 68.3056640625,34.4091796875 69.54345703125,32.054443359375 70.4736328125,29.296875 71.055908203125,26.220703125 71.25,22.91015625 70.8837890625,17.783203125 69.697265625,12.451171875 67.55859375,7.03125 64.3359375,1.611328125 68.876953125,0 72.12890625,5.59570217132568 74.3994140625,11.42578125 75.7177734375,17.2265625 76.142578125,22.705078125 75.85693359375,26.8359375 75,30.732421875 73.626708984375,34.27734375 71.7919921875,37.353515625 69.525146484375,39.898681640625 66.85546875,41.8505859375 63.83056640625,43.092041015625 60.498046875,43.505859375 57.6672325134277,43.267822265625 55.2099609375,42.5537109375 53.1225547790527,41.38916015625 51.4013671875,39.7998046875 50.0463829040527,37.789306640625 49.0576171875,35.361328125 48.193359375,29.35546875 48.1201171875,26.77734375 48.076171875,24.31640625 48.076171875,21.09375 48.0615234375,19.306640625 47.98828125,17.255859375 47.40234375,11.7333984375 46.8749961853027,9.539794921875 46.11328125,7.734375 45.0915489196777,6.32080078125 43.7841796875,5.302734375 42.147216796875,4.6875 40.13671875,4.482421875 37.9541015625,4.713134765625 35.9765625,5.4052734375 34.237060546875,6.5771484375 32.7685546875,8.2470703125 31.585693359375,10.4113779067993 30.703125,13.06640625 30.15380859375,16.2304706573486 29.970703125,19.921875 29.970703125,42.744140625 25.166015625,42.744140625 25.166015625,19.189453125 24.462890625,12.9638671875 23.6206035614014,10.4370126724243 22.5,8.3349609375 21.1267070770264,6.67236328125 19.5263671875,5.4638671875 17.735595703125,4.727783203125 15.791015625,4.482421875 13.51318359375,4.73876953125 11.42578125,5.5078125 9.56909084320068,6.78955078125 7.9833984375,8.583984375 6.690673828125,10.8947763442993 5.712890625,13.7255859375 5.09765625,17.0837421417236 4.89257764816284,20.9765625 5.2587890625,25.8251953125 6.4453125,30.9228515625 8.583984375,36.2841796875 11.806640625,41.89453125 7.265625,43.505859375 4.24804735183716,38.2470703125 1.94824266433716,32.40234375 0.498047351837158,26.4990234375 0,21.064453125 0.318603515625,15.9594745635986 1.2744140625,11.6015625 2.77587890625,7.96875 4.73144578933716,5.0390625 7.09716796875,2.7978515625 9.82910060882568,1.23046875 12.835693359375,0.3076171875 16.025390625,0z" />
    </g>
  </g>
</svg>