<?xml version="1.0" encoding="utf-8"?>
<!DOCTYPE svg PUBLIC "-//W3C//DTD SVG 1.1//EN" "http://www.w3.org/Graphics/SVG/1.1/DTD/svg11.dtd">
<svg width="103.388671875" height="43.65234375" xmlns="http://www.w3.org/2000/svg" xmlns:xlink="http://www.w3.org/1999/xlink" xmlns:xml="http://www.w3.org/XML/1998/namespace" version="1.1">
  <g>
    <g>
      <path style="fill:#FF0000;fill-opacity:1" d="M29.853515625,7.99804782867432L26.4697265625,11.7480478286743 24.0234375,16.259765625 22.529296875,21.064453125 22.03125,25.72265625 22.1667461395264,28.7841796875 22.5732421875,31.46484375 23.2360820770264,33.75 24.140625,35.625 25.2685527801514,37.093505859375 26.6015625,38.1591796875 28.1323223114014,38.807373046875 29.853515625,39.0234375 31.556396484375,38.800048828125 33.0908203125,38.1298828125 34.43115234375,37.034912109375 35.5517578125,35.537109375 36.448974609375,33.6474609375 37.119140625,31.376953125 37.67578125,25.751953125 37.1923828125,21.0791015625 35.7421875,16.259765625 33.2958984375,11.7480478286743 29.853515625,7.99804782867432z M20.68359375,0L25.5908203125,0.6591796875 30,2.51953315734863 34.6435546875,0.6591796875 39.84375,0 43.692626953125,0.333252668380737 47.0361328125,1.3330078125 49.8706016540527,2.91870212554932 52.1923828125,5.00976657867432 54.0051231384277,7.56591892242432 55.3125,10.5468759536743 56.1254844665527,13.8720722198486 56.455078125,17.4609375 56.4990234375,19.6875 56.513671875,21.884765625 56.513671875,23.876953125 56.5283203125,26.103515625 56.54296875,28.095703125 56.684871673584,30.758056640625 57.1105918884277,33.0322265625 57.820125579834,34.918212890625 58.8134765625,36.416015625 61.556396484375,38.37158203125 65.244140625,39.0234375 67.14111328125,38.82568359375 68.84765625,38.232421875 70.338134765625,37.2509765625 71.5869140625,35.888671875 73.330078125,32.0361328125 73.9453125,26.689453125 73.9453125,0.761719703674316 78.75,0.761719703674316 78.75,26.6015625 78.9111328125,29.901123046875 79.39453125,32.5927734375 80.167236328125,34.73876953125 81.1962890625,36.4013671875 82.470703125,37.6171875 83.9794921875,38.4228515625 87.5390625,39.0234375 89.93408203125,38.741455078125 92.080078125,37.8955078125 93.9550704956055,36.5185546875 95.537109375,34.6435546875 96.8041915893555,32.28515625 97.734375,29.4580078125 98.3056564331055,26.202392578125 98.49609375,22.55859375 98.0712890625,17.0947265625 96.7822265625,11.8505868911743 94.6142578125,6.70898532867432 91.552734375,1.58203220367432 96.123046875,0 99.140625,4.93652439117432 101.42578125,10.4150400161743 102.8759765625,16.171875 103.388671875,21.9140625 103.08470916748,26.9677734375 102.1728515625,31.34765625 100.73363494873,35.057373046875 98.84765625,38.1005859375 96.5588302612305,40.469970703125 93.9111328125,42.158203125 90.985107421875,43.1689453125 87.861328125,43.505859375 83.994140625,43.0517578125 80.6982421875,41.6748046875 78.10546875,39.345703125 76.376953125,36.03515625 76.11328125,36.03515625 74.28955078125,39.312744140625 71.748046875,41.6455078125 68.60595703125,43.040771484375 64.98046875,43.505859375 62.288818359375,43.311767578125 59.7802734375,42.7294921875 57.5170860290527,41.685791015625 55.5615234375,40.107421875 53.9538536071777,37.957763671875 52.734375,35.2001953125 51.9653282165527,31.761474609375 51.708984375,27.568359375 51.708984375,22.060546875 51.6943359375,19.98046875 51.62109375,18.017578125 50.6396484375,12.3339853286743 49.6252403259277,10.0085458755493 48.251953125,8.07129001617432 46.5197715759277,6.53320407867432 44.4287109375,5.40527534484863 41.978759765625,4.71313571929932 39.169921875,4.48242282867432 36.50390625,4.73144626617432 34.013671875,5.47851753234863 37.6025390625,9.68261814117432 40.2978515625,14.6191415786743 41.982421875,20.009765625 42.568359375,25.60546875 42.337646484375,29.483642578125 41.6455078125,32.9736328125 40.535888671875,36.031494140625 39.052734375,38.61328125 37.21435546875,40.689697265625 35.0390625,42.2314453125 32.57080078125,43.187255859375 29.853515625,43.505859375 27.0666484832764,43.187255859375 24.5654296875,42.2314453125 22.3864727020264,40.689697265625 20.56640625,38.61328125 19.112548828125,36.02783203125 18.0322265625,32.958984375 17.362060546875,29.4580078125 17.138671875,25.576171875 17.724609375,20.0390625 19.4091796875,14.6630868911743 22.1044921875,9.75586032867432 25.751953125,5.56640720367432 23.0126953125,4.76074314117432 20.009765625,4.48242282867432 16.812744140625,4.78637790679932 13.9013671875,5.69824409484863 11.3232412338257,7.18505954742432 9.12597751617432,9.21386814117432 7.342529296875,11.7626972198486 6.00585842132568,14.8095712661743 5.17089796066284,18.3215370178223 4.89257764816284,22.265625 5.2587890625,27.1142578125 6.47461032867432,31.7431640625 8.7158203125,36.4013671875 12.1582040786743,41.337890625 7.96875,43.65234375 4.62890625,38.800048828125 2.10937547683716,33.6181640625 0.527343809604645,28.026123046875 0,21.943359375 0.340576112270355,17.4023456573486 1.36230421066284,13.2128915786743 3.043212890625,9.46655368804932 5.36132907867432,6.25488376617432 8.302001953125,3.63281345367432 11.8505849838257,1.65527439117432 15.985107421875,0.413819193840027 20.68359375,0z" />
    </g>
  </g>
</svg>