<?xml version="1.0" encoding="utf-8"?>
<!DOCTYPE svg PUBLIC "-//W3C//DTD SVG 1.1//EN" "http://www.w3.org/Graphics/SVG/1.1/DTD/svg11.dtd">
<svg width="88.828125" height="43.65234375" xmlns="http://www.w3.org/2000/svg" xmlns:xlink="http://www.w3.org/1999/xlink" xmlns:xml="http://www.w3.org/XML/1998/namespace" version="1.1">
  <g>
    <g>
      <path style="fill:#FF0000;fill-opacity:1" d="M81.708984375,12.36328125L76.69921875,14.6923828125 72.5537109375,18.3984375 69.7412109375,23.3349609375 68.961181640625,26.217041015625 68.701171875,29.326171875 69.11865234375,33.526611328125 70.37109375,36.5771484375 72.42919921875,38.433837890625 75.263671875,39.052734375 77.113037109375,38.759765625 78.7939453125,37.880859375 80.277099609375,36.492919921875 81.533203125,34.6728515625 83.3056640625,29.8828125 83.935546875,23.935546875 83.408203125,17.8564453125 81.708984375,12.36328125z M31.81640625,6.38671970367432L27.4658203125,9.6240234375 24.3017578125,14.033203125 22.3828125,19.2333984375 21.73828125,24.873046875 22.3974609375,30.5712890625 24.375,35.09765625 25.8544902801514,36.796875 27.65625,38.0859375 29.77294921875,38.89892578125 32.197265625,39.169921875 35.2001953125,38.671875 37.3974609375,37.2802734375 38.759765625,35.126953125 39.228515625,32.373046875 38.671875,29.23828125 37.1337890625,27.1435546875 34.7900390625,25.95703125 31.845703125,25.576171875 29.0625,25.576171875 29.0625,21.181640625 30.87890625,21.181640625 33.57421875,20.80078125 35.625,19.599609375 36.9287109375,17.5048828125 37.3828125,14.47265625 37.001953125,11.9824237823486 35.859375,9.78515625 34.0869140625,7.91015625 31.81640625,6.38671970367432z M23.173828125,0L27.83203125,0.439453125 31.93359375,1.552734375 35.9912109375,0.395508766174316 40.400390625,0 45.5419921875,0.6005859375 49.716796875,2.28515625 52.91015625,4.8486328125 55.107421875,8.115234375 55.341796875,8.115234375 57.8173828125,4.76074314117432 61.171875,2.197265625 65.2734375,0.5712890625 69.9609375,0 73.92333984375,0.421142578125 77.548828125,1.6845703125 80.767822265625,3.724365234375 83.5107421875,6.474609375 85.740966796875,9.89135837554932 87.421875,13.9306640625 88.4765625,18.5192890167236 88.828125,23.583984375 88.41796875,28.505859375 87.216796875,33.1640625 85.2392578125,37.2802734375 82.5146484375,40.546875 79.072265625,42.71484375 77.08740234375,43.30810546875 74.94140625,43.505859375 72.39990234375,43.24951171875 70.166015625,42.48046875 68.25439453125,41.25 66.6796875,39.609375 64.541015625,35.21484375 63.80859375,29.619140625 64.1015625,25.986328125 64.98046875,22.529296875 66.383056640625,19.31396484375 68.2470703125,16.40625 73.18359375,11.6455078125 76.14990234375,9.884033203125 79.365234375,8.61328125 77.52685546875,6.888427734375 75.3515625,5.58105373382568 72.8173828125,4.757080078125 69.90234375,4.482421875 67.43408203125,4.6875 65.126953125,5.302734375 63.03955078125,6.3427734375 61.23046875,7.822265625 59.7363243103027,9.755859375 58.59375,12.158203125 57.8686485290527,15.0439472198486 57.626953125,18.427734375 57.626953125,42.744140625 52.822265625,42.744140625 52.822265625,18.427734375 52.5842247009277,15.0439472198486 51.8701171875,12.158203125 50.7385215759277,9.755859375 49.248046875,7.822265625 47.4243125915527,6.3427734375 45.29296875,5.302734375 42.91259765625,4.6875 40.341796875,4.482421875 38.642578125,4.5263671875 37.32421875,4.658203125 39.407958984375,6.771240234375 40.9716796875,9.1845703125 41.949462890625,11.8469257354736 42.275390625,14.70703125 41.8505859375,17.607421875 40.634765625,20.0537109375 38.73046875,21.943359375 36.2109375,23.14453125 36.2109375,23.3203125 39.4921875,24.228515625 41.982421875,26.1328125 43.564453125,28.8720703125 44.12109375,32.255859375 43.8720703125,34.757080078125 43.125,36.9873046875 40.4296875,40.5322265625 36.5185546875,42.744140625 34.251708984375,43.3154296875 31.875,43.505859375 27.0703125,42.7587890625 23.26171875,40.7080078125 20.3759765625,37.6171875 18.3837890625,33.75 17.2265625,29.384765625 16.845703125,24.814453125 17.490234375,18.8525390625 19.3505859375,13.4033203125 22.3095703125,8.642578125 26.25,4.74609375 24.43359375,4.541015625 22.763671875,4.482421875 19.090576171875,4.786376953125 15.6884765625,5.69824314117432 12.637939453125,7.1923828125 10.0195302963257,9.2431640625 7.877197265625,11.8286151885986 6.2548828125,14.9267578125 5.233154296875,18.5119647979736 4.89257860183716,22.55859375 5.27343654632568,27.7294921875 6.51855564117432,32.4609375 8.7890625,36.9287109375 12.216796875,41.337890625 8.02734375,43.65234375 4.70214891433716,39.111328125 2.16796827316284,34.130859375 0.556640625,28.6376953125 0,22.529296875 0.424804747104645,17.8015155792236 1.69921922683716,13.4619140625 3.73535132408142,9.605712890625 6.4453125,6.32812404632568 9.79614162445068,3.66943359375 13.7548828125,1.669921875 18.240966796875,0.41748046875 23.173828125,0z" />
    </g>
  </g>
</svg>