<?xml version="1.0" encoding="utf-8"?>
<!DOCTYPE svg PUBLIC "-//W3C//DTD SVG 1.1//EN" "http://www.w3.org/Graphics/SVG/1.1/DTD/svg11.dtd">
<svg width="80.625" height="43.505859375" xmlns="http://www.w3.org/2000/svg" xmlns:xlink="http://www.w3.org/1999/xlink" xmlns:xml="http://www.w3.org/XML/1998/namespace" version="1.1">
  <g>
    <g>
      <path style="fill:#FF0000;fill-opacity:1" d="M13.623046875,24.31640625L10.751953125,24.931640625 8.466796875,26.572265625 6.95800685882568,28.9892578125 6.416015625,31.904296875 6.95800685882568,35.1123046875 8.4375,37.529296875 10.634765625,39.0673828125 13.359375,39.609375 16.0693359375,39.111328125 18.22265625,37.6318359375 19.6435546875,35.185546875 20.15625,31.81640625 19.716796875,28.857421875 18.4423828125,26.4697265625 16.3916015625,24.8876953125 13.623046875,24.31640625z M66.09375,0L69.7998046875,0.413818359375 72.890625,1.6552734375 75.406494140625,3.607177734375 77.3876953125,6.15234279632568 78.863525390625,9.239501953125 79.86328125,12.8173828125 80.4345703125,16.7614765167236 80.625,20.947265625 80.244140625,26.7333984375 79.072265625,32.0654296875 77.0654296875,36.6796875 74.208984375,40.2978515625 70.458984375,42.65625 68.232421875,43.29345703125 65.771484375,43.505859375 61.4208984375,42.8466796875 58.0224609375,41.0595703125 55.48828125,38.3935546875 53.759765625,35.09765625 52.763671875,31.4208984375 52.44140625,27.626953125 56.8359375,27.626953125 57.48046875,32.373046875 59.2822265625,35.9619140625 62.0654296875,38.232421875 63.775634765625,38.82568359375 65.654296875,39.0234375 68.338623046875,38.660888671875 70.5322265625,37.5732421875 72.28271484375,35.8740234375 73.6376953125,33.6767578125 74.622802734375,31.03271484375 75.263671875,27.9931640625 75.732421875,21.181640625 75.17578125,14.677734375 74.454345703125,11.8249530792236 73.4033203125,9.3603515625 72.01904296875,7.33154296875 70.2978515625,5.7861328125 68.221435546875,4.808349609375 65.771484375,4.482421875 63.84521484375,4.713134765625 62.109375,5.40527248382568 60.5859336853027,6.533203125 59.296875,8.0712890625 57.48046875,12.3046875 56.8359375,17.9296875 52.44140625,17.9296875 52.6684532165527,14.3188495635986 53.349609375,10.927734375 54.4665489196777,7.862548828125 56.0009765625,5.22949314117432 57.9455528259277,3.065185546875 60.29296875,1.40625 63.017578125,0.3515625 66.09375,0z M25.37109375,0L29.652099609375,0.252685546875 33.4716796875,1.0107421875 36.7822265625,2.2119140625 39.5361328125,3.7939453125 41.722412109375,5.738525390625 43.330078125,8.02734375 44.31884765625,10.5981454849243 44.6484375,13.388671875 44.267578125,16.11328125 43.1396484375,18.5595703125 41.279296875,20.56640625 38.73046875,21.97265625 38.73046875,22.1484375 42.0263671875,22.9833984375 44.8388671875,24.873046875 46.787109375,27.8173828125 47.51953125,31.845703125 47.2888145446777,34.541015625 46.5966796875,36.884765625 44.0625,40.5322265625 40.224609375,42.7587890625 35.419921875,43.505859375 31.2890625,43.18359375 27.861328125,42.333984375 27.861328125,37.3828125 31.552734375,38.61328125 35.068359375,39.052734375 38.173828125,38.6572265625 40.5615234375,37.3974609375 42.0849609375,35.2001953125 42.626953125,31.962890625 41.953125,28.5498046875 40.0048828125,26.2353515625 36.8701171875,24.931640625 32.63671875,24.521484375 29.326171875,24.521484375 29.326171875,20.126953125 32.021484375,20.126953125 35.496826171875,19.735107421875 37.8955078125,18.5595703125 39.290771484375,16.5637226104736 39.755859375,13.7109375 39.4482421875,11.4038095474243 38.525390625,9.462890625 37.093505859375,7.869873046875 35.2587890625,6.60644626617432 30.5859375,4.9951171875 25.13671875,4.482421875 20.9033203125,4.833984375 16.9921875,5.888671875 13.4912109375,7.58056640625 10.48828125,9.84375 8.03466796875,12.6489276885986 6.181640625,15.966796875 5.01708984375,19.7314453125 4.62890625,23.876953125 4.65820360183716,25.078125 4.77539110183716,26.513671875 4.98046875,26.513671875 6.357421875,23.994140625 8.4375,22.0458984375 11.1767578125,20.7861328125 14.53125,20.33203125 16.607666015625,20.526123046875 18.5595703125,21.1083984375 21.8701171875,23.3349609375 24.111328125,26.8359375 24.7265605926514,29.01123046875 24.931640625,31.435546875 24.7338848114014,33.900146484375 24.140625,36.1962890625 21.8701171875,40.0341796875 18.251953125,42.5830078125 15.97412109375,43.275146484375 13.41796875,43.505859375 10.1916494369507,43.128662109375 7.4267578125,41.9970703125 5.115966796875,40.2099609375 3.25195264816284,37.8662109375 1.820068359375,35.0244140625 0.8056640625,31.7431640625 0.201416015625,28.128662109375 0,24.287109375 0.230712920427322,20.390625 0.922851800918579,16.845703125 2.0361328125,13.6413593292236 3.53027296066284,10.7666015625 7.55859375,6.03515529632568 12.71484375,2.6806640625 18.7353515625,0.673828125 25.37109375,0z" />
    </g>
  </g>
</svg>