<?xml version="1.0" encoding="utf-8"?>
<!DOCTYPE svg PUBLIC "-//W3C//DTD SVG 1.1//EN" "http://www.w3.org/Graphics/SVG/1.1/DTD/svg11.dtd">
<svg width="55.13671875" height="43.505859375" xmlns="http://www.w3.org/2000/svg" xmlns:xlink="http://www.w3.org/1999/xlink" xmlns:xml="http://www.w3.org/XML/1998/namespace" version="1.1">
  <g>
    <g>
      <path style="fill:#FF0000;fill-opacity:1" d="M7.265625,0L11.806640625,1.611328125 8.671875,6.5625 6.5185546875,11.8212890625 5.2880859375,17.0361328125 4.892578125,21.884765625 5.10498046875,25.986328125 5.7421875,29.501953125 6.756591796875,32.449951171875 8.1005859375,34.8486328125 9.74487209320068,36.697998046875 11.66015625,37.998046875 13.79150390625,38.76708984375 16.083984375,39.0234375 18.1292724609375,38.807373046875 19.92919921875,38.1591796875 21.4837646484375,37.078857421875 22.79296875,35.56640625 23.8311748504639,33.6163330078125 24.5727519989014,31.22314453125 25.0176982879639,28.3868408203125 25.166015625,25.107421875 25.166015625,0.76171875 29.970703125,0.76171875 29.970703125,25.107421875 30.1190185546875,28.3868408203125 30.56396484375,31.22314453125 31.3055419921875,33.6163330078125 32.34375,35.56640625 33.6529541015625,37.078857421875 35.20751953125,38.1591796875 37.0074462890625,38.807373046875 39.052734375,39.0234375 41.480712890625,38.76708984375 43.6669921875,37.998046875 45.5822715759277,36.697998046875 47.197265625,34.8486328125 48.4936485290527,32.449951171875 49.453125,29.501953125 50.0463829040527,25.986328125 50.244140625,21.884765625 49.8486328125,17.0361328125 48.6181640625,11.8212890625 46.46484375,6.5625 43.330078125,1.611328125 47.87109375,0 50.947265625,4.98046875 53.232421875,10.517578125 54.6533203125,16.201171875 55.13671875,21.591796875 54.9865684509277,25.323486328125 54.5361328125,28.6669921875 52.8662109375,34.2626953125 50.302734375,38.4521484375 47.021484375,41.3232421875 43.2275390625,42.978515625 39.111328125,43.505859375 35.108642578125,43.004150390625 31.8896484375,41.4990234375 29.425048828125,39.056396484375 27.685546875,35.7421875 27.421875,35.7421875 25.6384258270264,39.056396484375 23.1591796875,41.4990234375 19.954833984375,43.004150390625 15.99609375,43.505859375 12.784423828125,43.187255859375 9.7705078125,42.2314453125 7.042236328125,40.60546875 4.6875,38.2763671875 2.74658203125,35.233154296875 1.25976610183716,31.46484375 0.314941465854645,26.93115234375 0,21.591796875 0.483397960662842,16.201171875 1.90429735183716,10.517578125 4.18945360183716,4.98046875 7.265625,0z" />
    </g>
  </g>
</svg>