<?xml version="1.0" encoding="utf-8"?>
<!DOCTYPE svg PUBLIC "-//W3C//DTD SVG 1.1//EN" "http://www.w3.org/Graphics/SVG/1.1/DTD/svg11.dtd">
<svg width="38.1445312500001" height="43.505859375" xmlns="http://www.w3.org/2000/svg" xmlns:xlink="http://www.w3.org/1999/xlink" xmlns:xml="http://www.w3.org/XML/1998/namespace" version="1.1">
  <g>
    <g>
      <path style="fill:#FF0000;fill-opacity:1" d="M21.796875,0L27.48046875,0.7470703125 32.2998046875,2.9150390625 34.185791015625,4.48974609375 35.654296875,6.3720703125 36.59912109375,8.543701171875 36.9140625,10.986328125 36.474609375,13.916015625 35.0244140625,16.4794921875 32.3876953125,18.28125 28.388671875,18.955078125 26.8212890625,18.92578125 25.1513671875,18.8525390625 23.5107421875,18.7646484375 22.03125,18.720703125 19.8046875,18.984375 18.45703125,19.7021484375 17.783203125,20.7568359375 17.607421875,22.03125 17.86376953125,23.360595703125 18.6328125,24.4189453125 19.9658203125,25.111083984375 21.9140625,25.341796875 23.0712890625,25.3125 24.84375,25.2685546875 26.923828125,25.224609375 28.974609375,25.1953125 32.6513671875,25.6787109375 35.5517578125,27.158203125 37.4560546875,29.677734375 38.14453125,33.28125 37.85888671875,35.76416015625 37.001953125,37.880859375 35.665283203125,39.642333984375 33.9404296875,41.0595703125 29.53125,42.9052734375 24.31640625,43.505859375 21.148681640625,43.436279296875 18.5595703125,43.2275390625 14.677734375,42.451171875 14.677734375,37.412109375 18.837890625,38.5986328125 23.96484375,39.0234375 27.7880859375,38.759765625 30.7177734375,37.880859375 32.5927734375,36.240234375 33.251953125,33.720703125 32.900390625,31.5087890625 31.8896484375,30.146484375 30.263671875,29.4580078125 28.06640625,29.267578125 26.3818359375,29.296875 24.5947265625,29.3408203125 22.8662109375,29.384765625 21.328125,29.4140625 17.6220703125,28.88671875 14.9267578125,27.392578125 13.271484375,25.078125 12.71484375,22.119140625 13.359375,19.04296875 15.1611328125,16.69921875 17.9296875,15.205078125 21.50390625,14.677734375 23.0859375,14.70703125 24.7998046875,14.7509765625 26.455078125,14.794921875 27.861328125,14.82421875 29.6630859375,14.6081562042236 30.966796875,13.9599609375 31.7578125,12.8137226104736 32.021484375,11.103515625 31.820068359375,9.700927734375 31.2158203125,8.4228515625 28.974609375,6.328125 25.60546875,4.9658203125 21.38671875,4.482421875 17.266845703125,4.801025390625 13.8134765625,5.7568359375 10.9753408432007,7.294921875 8.701171875,9.3603515625 6.97998046875,11.9238300323486 5.80078125,14.9560546875 5.11962842941284,18.3947772979736 4.892578125,22.177734375 5.15625,27.041015625 5.9912109375,31.8603515625 7.4560546875,36.767578125 9.638671875,41.89453125 5.185546875,43.505859375 2.90771460533142,37.96142578125 1.28906178474426,32.51953125 0.322265356779099,27.26806640625 0,22.294921875 0.388183385133743,16.9848651885986 1.55273413658142,12.421875 3.43139576911926,8.587646484375 5.9619140625,5.4638671875 9.111328125,3.050537109375 12.8466796875,1.34765625 17.098388671875,0.3369140625 21.796875,0z" />
    </g>
  </g>
</svg>