<?xml version="1.0" encoding="utf-8"?>
<!DOCTYPE svg PUBLIC "-//W3C//DTD SVG 1.1//EN" "http://www.w3.org/Graphics/SVG/1.1/DTD/svg11.dtd">
<svg width="79.775390625" height="43.505859375" xmlns="http://www.w3.org/2000/svg" xmlns:xlink="http://www.w3.org/1999/xlink" xmlns:xml="http://www.w3.org/XML/1998/namespace" version="1.1">
  <g>
    <g>
      <path style="fill:#FF0000;fill-opacity:1" d="M15.9375,0L19.74609375,0.498047828674316 23.0712890625,1.99218654632568 25.7080078125,4.482421875 27.451171875,7.998046875 27.685546875,7.998046875 29.512939453125,4.508056640625 32.1826171875,2.0068359375 35.555419921875,0.501708984375 39.4921875,0 43.3447265625,0.52734375 47.0068359375,2.16796875 50.2294921875,4.9951171875 52.8076171875,9.08203125 54.521484375,14.5166015625 55.13671875,21.38671875 54.8583984375,25.5908203125 54.052734375,29.9267578125 52.734375,34.2626953125 50.947265625,38.4375 79.775390625,38.4375 79.775390625,42.744140625 44.501953125,42.744140625 44.501953125,39.9609375 47.021484375,35.361328125 48.8232421875,30.615234375 49.892578125,25.95703125 50.244140625,21.62109375 50.0463829040527,17.5195331573486 49.453125,14.00390625 48.4936485290527,11.0559091567993 47.197265625,8.6572265625 45.5822715759277,6.807861328125 43.6669921875,5.5078125 41.480712890625,4.73876953125 39.052734375,4.482421875 37.119140625,4.698486328125 35.361328125,5.3466796875 33.80859375,6.4306640625 32.490234375,7.9541015625 31.424560546875,9.913330078125 30.6298828125,12.3046875 30.135498046875,15.1391620635986 29.970703125,18.427734375 29.970703125,42.744140625 25.166015625,42.744140625 25.166015625,18.427734375 25.0176982879639,15.1474008560181 24.5727519989014,12.3083505630493 23.8311748504639,9.91058349609375 22.79296875,7.9541015625 21.4837646484375,6.43524169921875 19.92919921875,5.350341796875 18.1292724609375,4.69940185546875 16.083984375,4.482421875 13.656005859375,4.73876953125 11.4697275161743,5.5078125 9.55444240570068,6.807861328125 7.939453125,8.6572265625 6.64306640625,11.0559091567993 5.68359375,14.00390625 5.09033203125,17.5195331573486 4.89257764816284,21.62109375 5.28808689117432,26.4697265625 6.5185546875,31.6845703125 8.67187595367432,36.943359375 11.806640625,41.89453125 7.265625,43.505859375 4.18945360183716,38.49609375 1.90429735183716,32.87109375 0.483398675918579,27.041015625 0,21.416015625 0.3369140625,16.1169452667236 1.34765625,11.6455078125 2.918701171875,7.9541015625 4.93652296066284,4.9951171875 7.33154296875,2.750244140625 10.0341796875,1.201171875 12.938232421875,0.30029296875 15.9375,0z" />
    </g>
  </g>
</svg>