<?xml version="1.0" encoding="utf-8"?>
<!DOCTYPE svg PUBLIC "-//W3C//DTD SVG 1.1//EN" "http://www.w3.org/Graphics/SVG/1.1/DTD/svg11.dtd">
<svg width="45.9375000000012" height="59.12109375" xmlns="http://www.w3.org/2000/svg" xmlns:xlink="http://www.w3.org/1999/xlink" xmlns:xml="http://www.w3.org/XML/1998/namespace" version="1.1">
  <g>
    <g>
      <path style="fill:#FF0000;fill-opacity:1" d="M34.013671875,25.341796875L29.3115234375,29.501953125 25.9716796875,33.9697265625 23.9794921875,38.8623046875 23.3203125,44.326171875 23.8330078125,48.80859375 25.2392578125,52.0458984375 27.36328125,54.0087890625 30.029296875,54.66796875 31.878662109375,54.375 33.5595703125,53.49609375 35.042724609375,52.108154296875 36.298828125,50.2880859375 38.0712890625,45.498046875 38.701171875,39.55078125 38.4228515625,35.6103515625 37.55859375,31.845703125 36.09375,28.3740234375 34.013671875,25.341796875z M34.423828125,0L39.228515625,0.732421398162842 42.861328125,2.783203125 45.146484375,5.9033203125 45.7397422790527,7.78198528289795 45.9375,9.814453125 45.263671875,13.681640625 43.4619140625,17.021484375 40.8837890625,19.921875 37.880859375,22.470703125 40.316162109375,25.8837890625 42.1142578125,29.853515625 43.223876953125,34.31396484375 43.59375,39.19921875 43.18359375,44.12109375 41.982421875,48.779296875 40.0048828125,52.8955078125 37.2802734375,56.162109375 33.837890625,58.330078125 31.85302734375,58.92333984375 29.70703125,59.12109375 27.3449687957764,58.857421875 25.1806640625,58.06640625 23.2580547332764,56.788330078125 21.62109375,55.0634765625 20.2880859375,52.921142578125 19.27734375,50.390625 18.64013671875,47.51220703125 18.427734375,44.326171875 18.6236572265625,41.1859130859375 19.21142578125,38.18115234375 20.1910400390625,35.3118896484375 21.5625,32.578125 23.3203105926514,29.9560546875 25.4589824676514,27.421875 27.9785137176514,24.9755859375 30.87890625,22.6171875 26.8798828125,20.80078125 22.001953125,20.15625 17.7978515625,20.6103515625 13.8134765625,22.001953125 10.283203125,24.404296875 7.45605421066284,27.861328125 5.58105421066284,32.431640625 4.89257764816284,38.203125 5.14160108566284,42.3486328125 6.09374952316284,46.875 8.056640625,51.8701171875 9.50683403015137,54.569091796875 11.337890625,57.421875 6.97265577316284,59.12109375 3.91113233566284,53.8330078125 1.74316358566284,48.427734375 0.439453125,43.1103515625 0,38.115234375 0.230712443590164,34.248046875 0.922850847244263,30.791015625 3.44238233566284,25.0341796875 7.19238233566284,20.7421875 11.7919921875,17.8125 16.875,16.142578125 22.060546875,15.615234375 25.7226543426514,15.882568359375 29.091796875,16.6845703125 32.16064453125,17.977294921875 34.921875,19.716796875 37.2802734375,17.7685546875 39.2431640625,15.6005859375 40.576171875,13.125 41.07421875,10.25390625 40.631103515625,7.69775676727295 39.3017578125,5.771484375 37.078857421875,4.56299114227295 33.955078125,4.16015625 29.3701171875,4.599609375 24.755859375,5.888671875 23.90625,1.84570360183716 28.8134765625,0.498046398162842 34.423828125,0z" />
    </g>
  </g>
</svg>