<?xml version="1.0" encoding="utf-8"?>
<!DOCTYPE svg PUBLIC "-//W3C//DTD SVG 1.1//EN" "http://www.w3.org/Graphics/SVG/1.1/DTD/svg11.dtd">
<svg width="31.171875" height="43.41796875" xmlns="http://www.w3.org/2000/svg" xmlns:xlink="http://www.w3.org/1999/xlink" xmlns:xml="http://www.w3.org/XML/1998/namespace" version="1.1">
  <g>
    <g>
      <path style="fill:#FF0000;fill-opacity:1" d="M10.810546875,0L15.12451171875,0.37994384765625 19.013671875,1.519775390625 22.47802734375,3.41949462890625 25.517578125,6.0791015625 27.9913330078125,9.37408447265625 29.75830078125,13.1799325942993 30.8184814453125,17.4966430664063 31.171875,22.32421875 30.8322143554688,26.7800903320313 29.813232421875,30.802001953125 28.1149291992188,34.3899536132813 25.7373046875,37.5439453125 22.8048706054688,40.1138305664063 19.442138671875,41.949462890625 15.6491088867188,43.0508422851563 11.42578125,43.41796875 5.18554639816284,42.802734375 0,40.95703125 0,36.181640625 5.09765577316284,38.291015625 11.19140625,38.994140625 14.1842651367188,38.7460327148438 16.893310546875,38.001708984375 19.3185424804688,36.7611694335938 21.4599609375,35.0244140625 23.2388286590576,32.8463745117188 24.5764141082764,30.281982421875 25.4727153778076,27.3312377929688 25.927734375,23.994140625 7.32421875,23.994140625 7.32421875,19.5703125 25.869140625,19.5703125 25.2877788543701,16.1819477081299 24.3054180145264,13.1945819854736 22.9220561981201,10.6082162857056 21.1376953125,8.4228515625 19.0036010742188,6.68609619140625 16.571044921875,5.445556640625 13.8400268554688,4.70123291015625 10.810546875,4.453125 5.13427686691284,5.0830078125 0,6.97265625 0,1.81640625 4.95849561691284,0.4541015625 10.810546875,0z" />
    </g>
  </g>
</svg>