<?xml version="1.0" encoding="utf-8"?>
<!DOCTYPE svg PUBLIC "-//W3C//DTD SVG 1.1//EN" "http://www.w3.org/Graphics/SVG/1.1/DTD/svg11.dtd">
<svg width="22.55859375" height="42.71484375" xmlns="http://www.w3.org/2000/svg" xmlns:xlink="http://www.w3.org/1999/xlink" xmlns:xml="http://www.w3.org/XML/1998/namespace" version="1.1">
  <g>
    <g>
      <path style="fill:#FF0000;fill-opacity:1" d="M15.5859375,0L19.306640625,0.366212368011475 22.55859375,1.46484375 22.55859375,6.38671875 19.1015625,4.62890768051147 15.41015625,4.04296875 13.2138051986694,4.24896335601807 11.2243642807007,4.86694478988647 9.44183254241943,5.89691257476807 7.8662109375,7.3388671875 5.657958984375,11.151123046875 4.921875,15.99609375 5.614013671875,20.712890625 7.6904296875,24.31640625 9.19280910491943,25.6494140625 10.9313955307007,26.6015625 12.9061880111694,27.1728515625 15.1171875,27.36328125 17.16796875,27.099609375 17.16796875,42.71484375 12.421875,42.71484375 12.421875,31.23046875 9.74853515625,30.7058715820313 7.353515625,29.747314453125 5.23681688308716,28.3547973632813 3.39843821525574,26.5283203125 1.91162157058716,24.3630981445313 0.849609613418579,21.954345703125 0.212402492761612,19.3020629882813 0,16.40625 0.26550304889679,12.8823852539063 1.06201195716858,9.722900390625 2.38952660560608,6.92779541015625 4.248046875,4.4970703125 6.5496826171875,2.52960300445557 9.20654296875,1.12426900863647 12.2186279296875,0.281067967414856 15.5859375,0z" />
    </g>
  </g>
</svg>