<?xml version="1.0" encoding="utf-8"?>
<!DOCTYPE svg PUBLIC "-//W3C//DTD SVG 1.1//EN" "http://www.w3.org/Graphics/SVG/1.1/DTD/svg11.dtd">
<svg width="35.625" height="31.40625" xmlns="http://www.w3.org/2000/svg" xmlns:xlink="http://www.w3.org/1999/xlink" xmlns:xml="http://www.w3.org/XML/1998/namespace" version="1.1">
  <g>
    <g>
      <path style="fill:#FF0000;fill-opacity:1" d="M28.30078125,0L32.0654296875,0.366212368011475 35.33203125,1.46484375 35.33203125,6.2109375 32.0654296875,4.58496236801147 28.125,4.04296875 24.2285137176514,4.68750143051147 21.15234375,6.62109375 19.0576171875,9.638671875 18.10546875,13.53515625 30.87890625,13.53515625 30.87890625,17.63671875 18.046875,17.63671875 18.87451171875,21.617431640625 20.888671875,24.7119140625 23.9282207489014,26.700439453125 27.83203125,27.36328125 31.9189453125,26.69677734375 35.625,24.697265625 35.625,29.384765625 31.9482421875,30.90087890625 27.59765625,31.40625 24.6139507293701,31.1764526367188 21.9323711395264,30.487060546875 19.5529155731201,29.3380737304688 17.4755859375,27.7294921875 15.7626342773438,25.7199096679688 14.476318359375,23.367919921875 13.6166381835938,20.6735229492188 13.18359375,17.63671875 4.8046875,17.63671875 4.8046875,30.703125 0,30.703125 0,0.703125 4.8046875,0.703125 4.8046875,13.53515625 13.2421875,13.53515625 13.7969970703125,10.5056762695313 14.75830078125,7.833251953125 16.1260986328125,5.51788330078125 17.900390625,3.5595703125 20.0335674285889,2.00225925445557 22.4780254364014,0.889894008636475 25.2337627410889,0.222474217414856 28.30078125,0z" />
    </g>
  </g>
</svg>