<?xml version="1.0" encoding="utf-8"?>
<!DOCTYPE svg PUBLIC "-//W3C//DTD SVG 1.1//EN" "http://www.w3.org/Graphics/SVG/1.1/DTD/svg11.dtd">
<svg width="62.2265625" height="60.849609375" xmlns="http://www.w3.org/2000/svg" xmlns:xlink="http://www.w3.org/1999/xlink" xmlns:xml="http://www.w3.org/XML/1998/namespace" version="1.1">
  <g>
    <g>
      <path style="fill:#FF0000;fill-opacity:1" d="M19.453125,17.431640625L23.7304668426514,17.74658203125 27.3046875,18.69140625 27.3046875,23.90625 23.7744121551514,22.39013671875 19.39453125,21.884765625 16.2954711914063,22.1832275390625 13.531494140625,23.07861328125 11.1026000976563,24.5709228515625 9.0087890625,26.66015625 7.32330322265625,29.2437744140625 6.119384765625,32.21923828125 5.39703369140625,35.5865478515625 5.15625,39.345703125 5.4034423828125,43.17626953125 6.14501953125,46.552734375 7.3809814453125,49.47509765625 9.111328125,51.943359375 11.2811279296875,53.9044189453125 13.83544921875,55.30517578125 16.7742919921875,56.1456298828125 20.09765625,56.42578125 26.0815410614014,55.72265625 31.083984375,53.61328125 36.10107421875,55.72265625 42.12890625,56.42578125 45.4522666931152,56.1465454101563 48.3911094665527,55.308837890625 50.9454307556152,53.9126586914063 53.115234375,51.9580078125 54.8455772399902,49.4943237304688 56.0815391540527,46.571044921875 56.8231163024902,43.1881713867188 57.0703125,39.345703125 56.8304405212402,35.5984497070313 56.1108360290527,32.237548828125 54.9114952087402,29.2630004882813 53.232421875,26.6748046875 51.1431846618652,24.5791625976563 48.7133750915527,23.082275390625 45.9429893493652,22.1841430664063 42.83203125,21.884765625 38.4521484375,22.39013671875 34.921875,23.90625 34.921875,18.69140625 38.49609375,17.74658203125 42.7734375,17.431640625 47.0114097595215,17.8143310546875 50.7897911071777,18.96240234375 54.1085777282715,20.8758544921875 56.9677734375,23.5546875 59.2684936523438,26.8414306640625 60.911865234375,30.57861328125 61.8978881835938,34.7662353515625 62.2265625,39.404296875 61.8923950195313,44.02587890625 60.889892578125,48.1640625 59.2190551757813,51.81884765625 56.8798828125,54.990234375 53.989559173584,57.5537109375 50.6652793884277,59.384765625 46.907039642334,60.4833984375 42.71484375,60.849609375 36.89208984375,60.2197265625 31.142578125,58.330078125 25.3930644989014,60.2197265625 19.51171875,60.849609375 15.3195190429688,60.4852294921875 11.561279296875,59.39208984375 8.23699951171875,57.5701904296875 5.3466796875,55.01953125 3.00750732421875,51.8609619140625 1.336669921875,48.21533203125 0.33416748046875,44.0826416015625 0,39.462890625 0.3277587890625,34.822998046875 1.31103515625,30.6298828125 2.94982886314392,26.883544921875 5.24414014816284,23.583984375 8.09875392913818,20.892333984375 11.41845703125,18.9697265625 15.2032470703125,17.816162109375 19.453125,17.431640625z M31.11328125,7.47070360183716L32.39501953125,7.70874309539795 33.427734375,8.4228515625 34.10888671875,9.48852825164795 34.3359375,10.78125 34.017333984375,12.70751953125 33.0615234375,14.23828125 31.468505859375,15.37353515625 29.23828125,16.11328125 28.59375,14.560546875 30.52734375,13.65234375 31.2890625,12.216796875 29.1796875,11.630859375 28.4765625,9.873046875 29.1357421875,8.07129192352295 31.11328125,7.47070360183716z M27.3046875,0L30.908203125,0.556640625 34.3798828125,1.78710985183716 37.8955078125,3.017578125 41.630859375,3.57421875 42.744140625,3.57421875 42.744140625,7.29492235183716 41.54296875,7.29492235183716 37.4267578125,6.73828125 33.720703125,5.50781202316284 30.3955078125,4.27734375 27.421875,3.72070264816284 26.279296875,3.99902391433716 25.4296875,4.7607421875 24.90234375,5.9033203125 24.7265625,7.29492235183716 20.9765625,7.29492235183716 21.328125,4.59960985183716 22.4267578125,2.255859375 24.3896484375,0.615234375 27.3046875,0z" />
    </g>
  </g>
</svg>