<?xml version="1.0" encoding="utf-8"?>
<!DOCTYPE svg PUBLIC "-//W3C//DTD SVG 1.1//EN" "http://www.w3.org/Graphics/SVG/1.1/DTD/svg11.dtd">
<svg width="25.986328125" height="54.0234375" xmlns="http://www.w3.org/2000/svg" xmlns:xlink="http://www.w3.org/1999/xlink" xmlns:xml="http://www.w3.org/XML/1998/namespace" version="1.1">
  <g>
    <g>
      <path style="fill:#FF0000;fill-opacity:1" d="M0,0L21.09375,0 21.09375,4.51171875 4.921875,4.51171875 4.921875,17.8125 7.08984375,17.8125 11.19140625,18.1430072784424 14.853515625,19.1345233917236 18.076171875,20.7870502471924 20.859375,23.1005859375 23.1024150848389,25.9469604492188 24.7045879364014,29.197998046875 25.6658916473389,32.8536987304688 25.986328125,36.9140625 25.7162456512451,40.4598999023438 24.9060039520264,43.685302734375 23.5556011199951,46.5902709960938 21.6650390625,49.1748046875 19.2837524414063,51.2960815429688 16.461181640625,52.811279296875 13.1973266601563,53.7203979492188 9.4921875,54.0234375 4.5849609375,53.466796875 0.0585932731628418,51.796875 0.0585932731628418,46.40625 2.44262671470642,47.79052734375 4.7900390625,48.779296875 7.100830078125,49.37255859375 9.375,49.5703125 11.982421875,49.3661499023438 14.267578125,48.753662109375 16.23046875,47.7328491210938 17.87109375,46.3037109375 20.0903301239014,42.366943359375 20.830078125,37.08984375 20.5975322723389,34.0914916992188 19.8999004364014,31.336669921875 18.7371807098389,28.8253784179688 17.109375,26.5576171875 15.08056640625,24.6798706054688 12.71484375,23.338623046875 10.01220703125,22.5338745117188 6.97265625,22.265625 4.921875,22.265625 4.921875,42.01171875 0,42.01171875 0,0z" />
    </g>
  </g>
</svg>