<?xml version="1.0" encoding="utf-8"?>
<!DOCTYPE svg PUBLIC "-//W3C//DTD SVG 1.1//EN" "http://www.w3.org/Graphics/SVG/1.1/DTD/svg11.dtd">
<svg width="23.5546875" height="30" xmlns="http://www.w3.org/2000/svg" xmlns:xlink="http://www.w3.org/1999/xlink" xmlns:xml="http://www.w3.org/XML/1998/namespace" version="1.1">
  <g>
    <g>
      <path style="fill:#FF0000;fill-opacity:1" d="M13.06640625,4.1015625L10.4132080078125,4.38903903961182 8.51806640625,5.25146627426147 7.3809814453125,6.68884372711182 7.001953125,8.701171875 7.3699951171875,10.828857421875 8.47412109375,12.3486328125 10.3143310546875,13.260498046875 12.890625,13.564453125 18.75,13.564453125 18.75,4.1015625 13.06640625,4.1015625z M13.06640625,0L23.5546875,0 23.5546875,30 18.75,30 18.75,17.578125 14.736328125,17.578125 13.3190908432007,17.87109375 11.9677724838257,18.75 10.6823720932007,20.21484375 9.462890625,22.265625 5.56640625,30 0,30 5.0390625,20.7421875 6.97998046875,18.06884765625 9.287109375,16.494140625 6.18896484375,15.615234375 3.92578125,13.916015625 2.54150390625,11.54296875 2.080078125,8.642578125 2.801513671875,5.07202291488647 4.9658203125,2.3291015625 8.433837890625,0.582276821136475 13.06640625,0z" />
    </g>
  </g>
</svg>