<?xml version="1.0" encoding="utf-8"?>
<!DOCTYPE svg PUBLIC "-//W3C//DTD SVG 1.1//EN" "http://www.w3.org/Graphics/SVG/1.1/DTD/svg11.dtd">
<svg width="40.13671875" height="42.01171875" xmlns="http://www.w3.org/2000/svg" xmlns:xlink="http://www.w3.org/1999/xlink" xmlns:xml="http://www.w3.org/XML/1998/namespace" version="1.1">
  <g>
    <g>
      <path style="fill:#FF0000;fill-opacity:1" d="M0,0L4.8046875,0 9.4921875,19.74609375 10.5212392807007,22.774658203125 11.9091796875,24.7705078125 13.890380859375,25.880126953125 16.69921875,26.25 18.427734375,26.25 18.427734375,0 22.998046875,0 22.998046875,26.25 24.66796875,26.25 29.2822265625,25.5816650390625 32.578125,23.57666015625 34.5556640625,20.2349853515625 35.21484375,15.556640625 35.21484375,0 40.13671875,0 40.13671875,15.556640625 39.8739624023438,18.6813354492188 39.085693359375,21.522216796875 37.7719116210938,24.0792846679688 35.9326171875,26.3525390625 33.6520385742188,28.2174682617188 31.014404296875,29.549560546875 28.0197143554688,30.3488159179688 24.66796875,30.615234375 22.998046875,30.615234375 22.998046875,42.01171875 18.427734375,42.01171875 18.427734375,30.615234375 15.966796875,30.615234375 12.0318603515625,29.9725341796875 8.86962890625,28.04443359375 6.4801025390625,24.8309326171875 4.86328077316284,20.33203125 0,0z" />
    </g>
  </g>
</svg>