<?xml version="1.0" encoding="utf-8"?>
<!DOCTYPE svg PUBLIC "-//W3C//DTD SVG 1.1//EN" "http://www.w3.org/Graphics/SVG/1.1/DTD/svg11.dtd">
<svg width="27.6855468750001" height="62.958984375" xmlns="http://www.w3.org/2000/svg" xmlns:xlink="http://www.w3.org/1999/xlink" xmlns:xml="http://www.w3.org/XML/1998/namespace" version="1.1">
  <g>
    <g>
      <path style="fill:#FF0000;fill-opacity:1" d="M5.859375,0L9.228515625,0 14.033203125,6.70898389816284 18.837890625,0 22.32421875,0 16.787109375,8.525390625 18.1292724609375,8.5748291015625 19.57763671875,9.01611328125 21.1322021484375,9.8492431640625 22.79296875,11.07421875 24.2926006317139,12.6068115234375 25.3637676239014,14.36279296875 26.0064678192139,16.3421630859375 26.220703125,18.544921875 25.7226543426514,22.2546405792236 24.2285137176514,25.2099628448486 21.7382793426514,27.4108905792236 18.251953125,28.857421875 18.251953125,28.974609375 22.1411113739014,30.03662109375 25.13671875,32.2265625 27.0483379364014,35.31005859375 27.685546875,39.052734375 27.4850444793701,41.5667724609375 26.8835430145264,43.83544921875 25.8810405731201,45.8587646484375 24.4775390625,47.63671875 22.7279663085938,49.0850830078125 20.687255859375,50.11962890625 18.3554077148438,50.7403564453125 15.732421875,50.947265625 14.560546875,50.9033203125 12.451171875,50.771484375 10.341796875,50.6396484375 9.169921875,50.595703125 7.28576612472534,50.8465576171875 5.93994045257568,51.59912109375 5.13244533538818,52.8533935546875 4.86328029632568,54.609375 5.17822170257568,56.28662109375 6.123046875,57.626953125 7.62451171875,58.505859375 9.609375,58.798828125 11.4550771713257,58.52783203125 14.47265625,57.71484375 17.71728515625,56.90185546875 20.244140625,56.630859375 23.3074932098389,57.0263671875 25.4956035614014,58.212890625 26.8084697723389,60.1904296875 27.24609375,62.958984375 21.884765625,62.958984375 21.32080078125,61.2890625 19.62890625,60.732421875 17.84912109375,61.0107421875 15.087890625,61.845703125 12.1215810775757,62.6806640625 9.78515625,62.958984375 5.504150390625,62.4261474609375 2.44628882408142,60.82763671875 0.61157214641571,58.1634521484375 0,54.43359375 0.60791003704071,51.090087890625 2.43164086341858,48.5595703125 5.42724561691284,46.966552734375 9.55078125,46.435546875 10.60546875,46.4794921875 12.421875,46.611328125 14.24560546875,46.7431640625 15.322265625,46.787109375 18.299560546875,46.285400390625 20.5517578125,44.7802734375 21.968994140625,42.418212890625 22.44140625,39.345703125 21.7584228515625,35.80810546875 19.70947265625,33.28125 16.2945556640625,31.76513671875 11.513671875,31.259765625 7.1484375,31.259765625 7.1484375,27.1875 11.162109375,27.1875 15.296630859375,26.68212890625 18.3837890625,25.166015625 20.306396484375,22.7270526885986 20.947265625,19.453125 20.416259765625,16.60400390625 18.8232421875,14.384765625 16.300048828125,12.95654296875 12.978515625,12.48046875 10.360107421875,12.6873779296875 7.77831983566284,13.30810546875 5.23315382003784,14.3426513671875 2.72460913658142,15.791015625 2.72460913658142,10.810546875 6.76757764816284,9.13330078125 11.279296875,8.3203125 5.859375,0z" />
    </g>
  </g>
</svg>