<?xml version="1.0" encoding="utf-8"?>
<!DOCTYPE svg PUBLIC "-//W3C//DTD SVG 1.1//EN" "http://www.w3.org/Graphics/SVG/1.1/DTD/svg11.dtd">
<svg width="31.34765625" height="52.6171875" xmlns="http://www.w3.org/2000/svg" xmlns:xlink="http://www.w3.org/1999/xlink" xmlns:xml="http://www.w3.org/XML/1998/namespace" version="1.1">
  <g>
    <g>
      <path style="fill:#FF0000;fill-opacity:1" d="M21.4453125,0L26.9091777801514,0.43212890625 31.34765625,1.728515625 31.34765625,6.97265625 26.6015605926514,5.0830078125 21.38671875,4.453125 17.9397583007813,4.7552490234375 14.835205078125,5.66162109375 12.0730590820313,7.1722412109375 9.6533203125,9.287109375 7.68585205078125,11.9073495864868 6.28051710128784,14.9340839385986 5.43731594085693,18.3673114776611 5.15624904632568,22.20703125 5.41900539398193,25.8499145507813 6.20727491378784,29.102783203125 7.52105712890625,31.9656372070313 9.3603515625,34.4384765625 11.6262817382813,36.4315795898438 14.219970703125,37.855224609375 17.1414184570313,38.7094116210938 20.390625,38.994140625 26.2939434051514,38.291015625 31.34765625,36.181640625 31.34765625,40.95703125 27.5683574676514,42.4072265625 22.91015625,43.2421875 24.0527324676514,45.556640625 24.43359375,47.578125 24.1040019989014,49.63623046875 23.115234375,51.240234375 21.5698223114014,52.27294921875 19.5703125,52.6171875 15.849609375,51.97265625 15.849609375,48.779296875 18.720703125,49.51171875 20.21484375,49.0283203125 20.712890625,47.578125 20.38330078125,45.6298828125 19.39453125,43.41796875 15.1821899414063,43.0068969726563 11.422119140625,41.890869140625 8.11431884765625,40.0698852539063 5.2587890625,37.5439453125 2.95806860923767,34.4448852539063 1.31469702720642,30.904541015625 0.32867419719696,26.9229125976563 0,22.5 0.37902820110321,17.70263671875 1.51611304283142,13.3886728286743 3.41125464439392,9.55810546875 6.064453125,6.2109375 9.2999267578125,3.49365234375 12.94189453125,1.552734375 16.9903564453125,0.38818359375 21.4453125,0z" />
    </g>
  </g>
</svg>