<?xml version="1.0" encoding="utf-8"?>
<!DOCTYPE svg PUBLIC "-//W3C//DTD SVG 1.1//EN" "http://www.w3.org/Graphics/SVG/1.1/DTD/svg11.dtd">
<svg width="36.240234375" height="30" xmlns="http://www.w3.org/2000/svg" xmlns:xlink="http://www.w3.org/1999/xlink" xmlns:xml="http://www.w3.org/XML/1998/namespace" version="1.1">
  <g>
    <g>
      <path style="fill:#FF0000;fill-opacity:1" d="M21.591796875,3.896484375L21.1889629364014,6.15966796875 20.625,7.96875 18.22265625,13.974609375 21.85546875,18.10546875 25.01953125,14.23828125 22.734375,8.0859375 21.73828125,3.896484375 21.591796875,3.896484375z M0,0L4.8046875,0 4.8046875,12.421875 14.35546875,12.421875 19.5703125,0 24.31640625,0 36.240234375,30 31.083984375,30 26.630859375,18.3984375 23.818359375,21.85546875 23.818359375,30 19.453125,30 19.453125,21.85546875 16.494140625,18.33984375 11.953125,30 7.03125,30 12.71484375,16.259765625 4.8046875,16.259765625 4.8046875,30 0,30 0,0z" />
    </g>
  </g>
</svg>