<?xml version="1.0" encoding="utf-8"?>
<!DOCTYPE svg PUBLIC "-//W3C//DTD SVG 1.1//EN" "http://www.w3.org/Graphics/SVG/1.1/DTD/svg11.dtd">
<svg width="23.7011718750001" height="42.158203125" xmlns="http://www.w3.org/2000/svg" xmlns:xlink="http://www.w3.org/1999/xlink" xmlns:xml="http://www.w3.org/XML/1998/namespace" version="1.1">
  <g>
    <g>
      <path style="fill:#FF0000;fill-opacity:1" d="M18.896484375,26.279296875L11.66015625,27.275390625 8.73046875,27.923583984375 6.62109375,28.9306640625 5.34667921066284,30.574951171875 4.921875,33.134765625 5.31372022628784,35.130615234375 6.4892578125,36.7236328125 8.316650390625,37.767333984375 10.6640625,38.115234375 13.927001953125,37.489013671875 16.5673828125,35.6103515625 18.314208984375,32.772216796875 18.896484375,29.267578125 18.896484375,26.279296875z M13.125,10.751953125L17.7520732879639,11.4514169692993 21.0571269989014,13.5498065948486 23.0401592254639,17.0471210479736 23.701171875,21.943359375 23.701171875,41.455078125 18.896484375,41.455078125 18.896484375,36.767578125 18.779296875,36.767578125 17.0269775390625,39.1259765625 14.90478515625,40.810546875 12.4127197265625,41.8212890625 9.55078125,42.158203125 5.55541944503784,41.56494140625 2.53417944908142,39.78515625 0.633544683456421,37.02392578125 0,33.486328125 0.61889636516571,29.7216796875 2.47558569908142,26.8359375 5.570068359375,24.8291015625 9.90234375,23.701171875 18.896484375,22.44140625 18.5101318359375,19.0960712432861 17.35107421875,16.7065448760986 15.4193115234375,15.2728281021118 12.71484375,14.794921875 10.07080078125,15.0256357192993 7.55859375,15.7177753448486 5.17822265625,16.8713397979736 2.92968726158142,18.486328125 2.92968726158142,13.564453125 7.6904296875,11.4550800323486 13.125,10.751953125z M18.046875,0L19.18212890625,0.208740234375 20.126953125,0.8349609375 20.76416015625,1.761474609375 20.9765625,2.87109375 20.771484375,3.984375 20.15625,4.921875 19.2333984375,5.55908203125 18.10546875,5.771484375 17.01416015625,5.56640625 16.083984375,4.951171875 15.44677734375,4.02099609375 15.234375,2.87109375 15.439453125,1.7431640625 16.0546875,0.8203125 16.962890625,0.205078125 18.046875,0z M6.767578125,0L7.88818359375,0.208740234375 8.84765625,0.8349609375 9.50683498382568,1.761474609375 9.7265625,2.87109375 9.51415920257568,3.984375 8.876953125,4.921875 7.94677734375,5.55908203125 6.85546875,5.771484375 5.71655225753784,5.555419921875 4.7607421875,4.9072265625 4.11254835128784,3.966064453125 3.89648413658142,2.87109375 4.10522365570068,1.7431640625 4.73144435882568,0.8203125 5.65795850753784,0.205078125 6.767578125,0z" />
    </g>
  </g>
</svg>