<?xml version="1.0" encoding="utf-8"?>
<!DOCTYPE svg PUBLIC "-//W3C//DTD SVG 1.1//EN" "http://www.w3.org/Graphics/SVG/1.1/DTD/svg11.dtd">
<svg width="32.6953125" height="40.927734375" xmlns="http://www.w3.org/2000/svg" xmlns:xlink="http://www.w3.org/1999/xlink" xmlns:xml="http://www.w3.org/XML/1998/namespace" version="1.1">
  <g>
    <g>
      <path style="fill:#FF0000;fill-opacity:1" d="M10.517578125,0L26.279296875,0 26.279296875,25.60546875 32.6953125,25.60546875 27.5390625,40.927734375 22.265625,40.927734375 27.041015625,30 21.50390625,30 21.50390625,4.072265625 14.53125,4.072265625 13.8235464096069,10.810546875 12.9016103744507,16.46484375 11.7654409408569,21.03515625 10.4150390625,24.521484375 8.83209228515625,27.0977783203125 6.998291015625,28.93798828125 4.91363525390625,30.0421142578125 2.578125,30.41015625 0,30 0,25.869140625 2.2265625,26.396484375 3.76602149009705,25.9840393066406 5.1617431640625,24.7467041015625 6.41372680664063,22.6844787597656 7.52197265625,19.79736328125 8.48648071289063,16.0853576660156 9.3072509765625,11.5484619140625 9.98428344726563,6.18667602539063 10.517578125,0z" />
    </g>
  </g>
</svg>