<?xml version="1.0" encoding="utf-8"?>
<!DOCTYPE svg PUBLIC "-//W3C//DTD SVG 1.1//EN" "http://www.w3.org/Graphics/SVG/1.1/DTD/svg11.dtd">
<svg width="32.8125" height="41.455078125" xmlns="http://www.w3.org/2000/svg" xmlns:xlink="http://www.w3.org/1999/xlink" xmlns:xml="http://www.w3.org/XML/1998/namespace" version="1.1">
  <g>
    <g>
      <path style="fill:#FF0000;fill-opacity:1" d="M4.8046875,27.099609375L4.8046875,37.353515625 12.01171875,37.353515625 14.62646484375,37.02392578125 16.494140625,36.03515625 17.61474609375,34.38720703125 17.98828125,32.080078125 17.611083984375,29.901123046875 16.4794921875,28.3447265625 14.593505859375,27.410888671875 11.953125,27.099609375 4.8046875,27.099609375z M28.06640625,11.455078125L32.8125,11.455078125 32.8125,41.455078125 28.06640625,41.455078125 28.06640625,11.455078125z M0,11.455078125L4.8046875,11.455078125 4.8046875,22.96875 12.890625,22.96875 17.017822265625,23.5693359375 20.2001953125,25.37109375 22.2326641082764,28.24951171875 22.91015625,32.080078125 22.2290019989014,35.9619140625 20.185546875,38.935546875 17.10205078125,40.8251953125 13.30078125,41.455078125 0,41.455078125 0,11.455078125z M21.943359375,0L23.0786113739014,0.208740234375 24.0234375,0.8349609375 24.6606426239014,1.761474609375 24.873046875,2.87109375 24.6679668426514,3.984375 24.052734375,4.921875 23.1298809051514,5.55908203125 22.001953125,5.771484375 20.9106426239014,5.56640625 19.98046875,4.951171875 19.34326171875,4.02099609375 19.130859375,2.87109375 19.3359375,1.7431640625 19.951171875,0.8203125 20.8593730926514,0.205078125 21.943359375,0z M10.6640625,0L11.78466796875,0.208740234375 12.744140625,0.8349609375 13.4033203125,1.761474609375 13.623046875,2.87109375 13.41064453125,3.984375 12.7734375,4.921875 11.84326171875,5.55908203125 10.751953125,5.771484375 9.61303615570068,5.555419921875 8.6572265625,4.9072265625 8.00903224945068,3.966064453125 7.79296875,2.87109375 8.00170803070068,1.7431640625 8.6279296875,0.8203125 9.55444240570068,0.205078125 10.6640625,0z" />
    </g>
  </g>
</svg>