<?xml version="1.0" encoding="utf-8"?>
<!DOCTYPE svg PUBLIC "-//W3C//DTD SVG 1.1//EN" "http://www.w3.org/Graphics/SVG/1.1/DTD/svg11.dtd">
<svg width="26.162109375" height="31.40625" xmlns="http://www.w3.org/2000/svg" xmlns:xlink="http://www.w3.org/1999/xlink" xmlns:xml="http://www.w3.org/XML/1998/namespace" version="1.1">
  <g>
    <g>
      <path style="fill:#FF0000;fill-opacity:1" d="M4.921875,18.57421875L5.45654296875,22.291259765625 6.943359375,25.0634765625 9.29443359375,26.788330078125 12.421875,27.36328125 15.56396484375,26.75537109375 18.193359375,24.931640625 20.1123046875,22.12646484375 21.123046875,18.57421875 4.921875,18.57421875z M12.5390625,0L15.5474853515625,0.255433201789856 18.21533203125,1.02172994613647 20.5426025390625,2.29889011383057 22.529296875,4.0869140625 24.1186504364014,6.33819580078125 25.2539043426514,9.005126953125 25.9350566864014,12.0877075195313 26.162109375,15.5859375 25.9139995574951,18.9486694335938 25.1696758270264,21.976318359375 23.9291362762451,24.6688842773438 22.1923828125,27.0263671875 20.0894165039063,28.9425659179688 17.750244140625,30.311279296875 15.1748657226563,31.1325073242188 12.36328125,31.40625 9.56085205078125,31.1663818359375 7.100830078125,30.44677734375 4.98321533203125,29.2474365234375 3.2080078125,27.568359375 1.80450439453125,25.469970703125 0.802001953125,23.0126953125 0.20050048828125,20.196533203125 0,17.021484375 0,14.501953125 21.181640625,14.501953125 20.4345703125,10.0634765625 18.486328125,6.767578125 15.439453125,4.72412252426147 11.396484375,4.04296875 8.9154052734375,4.25170993804932 6.54052734375,4.87793111801147 4.2718505859375,5.92163181304932 2.109375,7.3828125 2.109375,2.87109375 6.6796875,0.717774868011475 12.5390625,0z" />
    </g>
  </g>
</svg>