<?xml version="1.0" encoding="utf-8"?>
<!DOCTYPE svg PUBLIC "-//W3C//DTD SVG 1.1//EN" "http://www.w3.org/Graphics/SVG/1.1/DTD/svg11.dtd">
<svg width="26.66015625" height="54.0234375" xmlns="http://www.w3.org/2000/svg" xmlns:xlink="http://www.w3.org/1999/xlink" xmlns:xml="http://www.w3.org/XML/1998/namespace" version="1.1">
  <g>
    <g>
      <path style="fill:#FF0000;fill-opacity:1" d="M0,0L4.86328077316284,0 4.86328077316284,17.8125 20.537109375,0 26.66015625,0 10.1953125,18.076171875 13.6605834960938,18.8204956054688 16.732177734375,20.086669921875 19.4100952148438,21.8746948242188 21.6943359375,24.1845703125 23.5208110809326,26.9082641601563 24.8254375457764,29.937744140625 25.6082134246826,33.2730102539063 25.869140625,36.9140625 25.5963115692139,40.4837036132813 24.7778301239014,43.721923828125 23.4136943817139,46.6287231445313 21.50390625,49.2041015625 19.112548828125,51.3125610351563 16.3037109375,52.818603515625 13.077392578125,53.7222290039063 9.43359375,54.0234375 4.52636671066284,53.466796875 0,51.796875 0,46.69921875 2.38403296470642,48.08349609375 4.73144483566284,49.072265625 7.04223585128784,49.66552734375 9.31640625,49.86328125 11.9137573242188,49.6490478515625 14.197998046875,49.00634765625 16.1691284179688,47.9351806640625 17.8271484375,46.435546875 19.1409282684326,44.5660400390625 20.0793437957764,42.38525390625 20.6423931121826,39.8931884765625 20.830078125,37.08984375 20.5947856903076,34.0777587890625 19.8889141082764,31.31103515625 18.7124614715576,28.7896728515625 17.0654296875,26.513671875 15.0192260742188,24.6295166015625 12.645263671875,23.28369140625 9.94354248046875,22.4761962890625 6.91406202316284,22.20703125 4.86328077316284,22.20703125 4.86328077316284,42.01171875 0,42.01171875 0,0z" />
    </g>
  </g>
</svg>