<?xml version="1.0" encoding="utf-8"?>
<!DOCTYPE svg PUBLIC "-//W3C//DTD SVG 1.1//EN" "http://www.w3.org/Graphics/SVG/1.1/DTD/svg11.dtd">
<svg width="31.171875" height="52.3828125" xmlns="http://www.w3.org/2000/svg" xmlns:xlink="http://www.w3.org/1999/xlink" xmlns:xml="http://www.w3.org/XML/1998/namespace" version="1.1">
  <g>
    <g>
      <path style="fill:#FF0000;fill-opacity:1" d="M10.810546875,8.96484375L15.12451171875,9.34478759765625 19.013671875,10.484619140625 22.47802734375,12.3843383789063 25.517578125,15.0439453125 27.9913330078125,18.3389282226563 29.75830078125,22.144775390625 30.8184814453125,26.4614868164063 31.171875,31.2890625 30.8322143554688,35.7449340820313 29.813232421875,39.766845703125 28.1149291992188,43.3547973632813 25.7373046875,46.5087890625 22.8048706054688,49.0786743164063 19.442138671875,50.914306640625 15.6491088867188,52.0156860351563 11.42578125,52.3828125 5.18554639816284,51.767578125 0,49.921875 0,45.146484375 5.09765577316284,47.255859375 11.19140625,47.958984375 14.1842651367188,47.7108764648438 16.893310546875,46.966552734375 19.3185424804688,45.7260131835938 21.4599609375,43.9892578125 23.2388286590576,41.8112182617188 24.5764141082764,39.246826171875 25.4727153778076,36.2960815429688 25.927734375,32.958984375 7.32421875,32.958984375 7.32421875,28.53515625 25.869140625,28.53515625 25.2877788543701,25.1467914581299 24.3054180145264,22.1594257354736 22.9220561981201,19.5730609893799 21.1376953125,17.3876953125 19.0036010742188,15.6509399414063 16.571044921875,14.410400390625 13.8400268554688,13.6660766601563 10.810546875,13.41796875 5.13427686691284,14.0478515625 0,15.9375 0,10.78125 4.95849561691284,9.4189453125 10.810546875,8.96484375z M18.22265625,0L19.35791015625,0.208743065595627 20.302734375,0.834960699081421 20.9399394989014,1.76147747039795 21.15234375,2.87109351158142 20.9472637176514,3.984375 20.33203125,4.921875 19.4091796875,5.55908203125 18.28125,5.77148485183716 17.18994140625,5.56640625 16.259765625,4.951171875 15.62255859375,4.02099609375 15.41015625,2.87109351158142 15.615234375,1.74316692352295 16.23046875,0.82031261920929 17.138671875,0.20508100092411 18.22265625,0z M6.943359375,0L8.06396484375,0.208743065595627 9.0234375,0.834960699081421 9.68261623382568,1.76147747039795 9.90234375,2.87109351158142 9.68994045257568,3.984375 9.052734375,4.921875 8.12255859375,5.55908203125 7.03125,5.77148485183716 5.892333984375,5.555419921875 4.9365234375,4.90722608566284 4.28832912445068,3.966064453125 4.072265625,2.87109351158142 4.28100490570068,1.74316692352295 4.9072265625,0.82031261920929 5.833740234375,0.20508100092411 6.943359375,0z" />
    </g>
  </g>
</svg>