<?xml version="1.0" encoding="utf-8"?>
<!DOCTYPE svg PUBLIC "-//W3C//DTD SVG 1.1//EN" "http://www.w3.org/Graphics/SVG/1.1/DTD/svg11.dtd">
<svg width="26.279296875" height="42.71484375" xmlns="http://www.w3.org/2000/svg" xmlns:xlink="http://www.w3.org/1999/xlink" xmlns:xml="http://www.w3.org/XML/1998/namespace" version="1.1">
  <g>
    <g>
      <path style="fill:#FF0000;fill-opacity:1" d="M0.703124523162842,0L25.72265625,0 25.72265625,1.171875 14.296875,17.8125 16.9564819335938,18.0139179229736 19.310302734375,18.6181659698486 21.3583374023438,19.6252460479736 23.1005859375,21.03515625 24.4912700653076,22.7783203125 25.4846172332764,24.78515625 26.0806255340576,27.0556640625 26.279296875,29.58984375 26.0284404754639,32.4041748046875 25.2758769989014,34.92919921875 24.0216045379639,37.1649169921875 22.265625,39.111328125 20.0537109375,40.6878662109375 17.431640625,41.81396484375 14.3994140625,42.4896240234375 10.95703125,42.71484375 7.613525390625,42.56103515625 4.67285108566284,42.099609375 2.13500952720642,41.33056640625 0,40.25390625 0,34.921875 2.54333472251892,36.4984130859375 5.25146436691284,37.62451171875 8.1243896484375,38.3001708984375 11.162109375,38.525390625 15.311279296875,37.9248046875 18.4423828125,36.123046875 20.408935546875,33.36181640625 21.064453125,29.8828125 20.4217529296875,26.217041015625 18.49365234375,23.5986328125 15.2801513671875,22.027587890625 10.78125,21.50390625 6.533203125,21.50390625 18.22265625,4.453125 0.703124523162842,4.453125 0.703124523162842,0z" />
    </g>
  </g>
</svg>