<?xml version="1.0" encoding="utf-8"?>
<!DOCTYPE svg PUBLIC "-//W3C//DTD SVG 1.1//EN" "http://www.w3.org/Graphics/SVG/1.1/DTD/svg11.dtd">
<svg width="27.83203125" height="43.41796875" xmlns="http://www.w3.org/2000/svg" xmlns:xlink="http://www.w3.org/1999/xlink" xmlns:xml="http://www.w3.org/XML/1998/namespace" version="1.1">
  <g>
    <g>
      <path style="fill:#FF0000;fill-opacity:1" d="M14.794921875,0L17.567138671875,0.260009765625 20.0830078125,1.0400390625 22.3059062957764,2.303466796875 24.19921875,4.013671875 25.7336406707764,6.148681640625 26.8798828125,8.6865234375 27.5939922332764,11.5905771255493 27.83203125,14.82421875 27.5646953582764,18.0029315948486 26.7626953125,21.328125 25.4077129364014,24.78515625 23.4814453125,28.359375 20.972900390625,32.02880859375 17.87109375,35.771484375 14.15771484375,39.57275390625 9.814453125,43.41796875 6.9140625,40.048828125 11.1914052963257,36.163330078125 14.6484375,32.5341796875 17.38037109375,29.1357421875 19.482421875,25.9423828125 20.99853515625,22.939453125 21.97265625,20.1123046875 22.67578125,14.82421875 22.1044921875,10.634765625 20.4638671875,7.353515625 17.87109375,5.21484375 16.259765625,4.6435546875 14.47265625,4.453125 11.630859375,4.8486328125 8.8330078125,6.1083984375 6.240234375,8.349609375 4.072265625,11.66015625 0,9.873046875 2.60742163658142,5.859375 5.91796875,2.7392578125 9.9755859375,0.7177734375 14.794921875,0z" />
    </g>
  </g>
</svg>