<?xml version="1.0" encoding="utf-8"?>
<!DOCTYPE svg PUBLIC "-//W3C//DTD SVG 1.1//EN" "http://www.w3.org/Graphics/SVG/1.1/DTD/svg11.dtd">
<svg width="32.724609375" height="43.447265625" xmlns="http://www.w3.org/2000/svg" xmlns:xlink="http://www.w3.org/1999/xlink" xmlns:xml="http://www.w3.org/XML/1998/namespace" version="1.1">
  <g>
    <g>
      <path style="fill:#FF0000;fill-opacity:1" d="M20.185546875,4.833984375L17.74658203125,5.130615234375 15.52734375,6.0205078125 13.524169921875,7.40478515625 11.7333984375,9.1845703125 8.8037109375,13.6962890625 6.73828125,18.9111328125 5.5078125,24.2138671875 5.09765720367432,28.974609375 5.6689453125,33.310546875 7.2509765625,36.298828125 9.6826171875,38.0419921875 12.83203125,38.61328125 15.194091796875,38.316650390625 17.3583984375,37.4267578125 19.317626953125,36.0498046875 21.064453125,34.2919921875 23.935546875,29.82421875 25.986328125,24.6533203125 27.216796875,19.39453125 27.626953125,14.6484375 27.0703125,10.25390625 25.5322265625,7.20703125 23.173828125,5.419921875 20.185546875,4.833984375z M20.888671875,0L23.0895977020264,0.19775390625 25.2392578125,0.791015625 27.2497539520264,1.776123046875 29.033203125,3.1494140625 30.538330078125,4.91455078125 31.7138671875,7.0751953125 32.471923828125,9.627685546875 32.724609375,12.568359375 32.2119140625,19.248046875 30.615234375,26.19140625 27.861328125,32.7392578125 23.876953125,38.2470703125 21.39404296875,40.389404296875 18.57421875,42.041015625 15.41015625,43.095703125 11.89453125,43.447265625 7.9541015625,42.919921875 4.8779296875,41.455078125 2.62207055091858,39.2431640625 1.11328148841858,36.4599609375 0.263672113418579,33.2958984375 0,29.912109375 0.556640863418579,23.408203125 2.25585961341858,16.6552734375 5.1123046875,10.3125 9.1552734375,5.009765625 11.6345205307007,2.955322265625 14.4140625,1.3623046875 17.49755859375,0.340576171875 20.888671875,0z" />
    </g>
  </g>
</svg>