<?xml version="1.0" encoding="utf-8"?>
<!DOCTYPE svg PUBLIC "-//W3C//DTD SVG 1.1//EN" "http://www.w3.org/Graphics/SVG/1.1/DTD/svg11.dtd">
<svg width="30.498046875" height="42.71484375" xmlns="http://www.w3.org/2000/svg" xmlns:xlink="http://www.w3.org/1999/xlink" xmlns:xml="http://www.w3.org/XML/1998/namespace" version="1.1">
  <g>
    <g>
      <path style="fill:#FF0000;fill-opacity:1" d="M22.44140625,0L25.9570293426514,0.439453125 28.4765625,1.7578125 29.9926738739014,3.9111328125 30.498046875,6.85546875 30.3369140625,8.5546875 29.9853515625,10.693359375 29.6044921875,12.685546875 29.35546875,13.88671875 23.14453125,42.71484375 18.22265625,42.71484375 20.56640625,31.81640625 19.16015625,30.8349609375 17.2998046875,29.8974609375 15.029296875,29.208984375 12.421875,28.9453125 10.316162109375,29.263916015625 8.6865234375,30.2197265625 7.518310546875,31.768798828125 6.796875,33.8671875 4.921875,42.71484375 0,42.71484375 2.109375,32.63671875 2.78320264816284,30.289306640625 3.74999976158142,28.4033203125 6.28418016433716,25.7958984375 9.31640625,24.4775390625 12.48046875,24.111328125 15.263671875,24.43359375 17.900390625,25.224609375 20.09765625,26.2060546875 21.591796875,27.0703125 24.43359375,13.88671875 24.6240234375,12.94921875 24.9609375,11.3232421875 25.2685546875,9.4921875 25.400390625,7.91015625 25.1916484832764,6.55517578125 24.5654296875,5.595703125 23.4484844207764,5.0244140625 21.767578125,4.833984375 19.7607421875,5.11962890625 18.193359375,5.9765625 17.0361328125,7.37548828125 16.259765625,9.287109375 11.279296875,9.287109375 12.5244140625,5.595703125 14.6484375,2.6513671875 17.8857421875,0.703125 22.44140625,0z" />
    </g>
  </g>
</svg>