<?xml version="1.0" encoding="utf-8"?>
<!DOCTYPE svg PUBLIC "-//W3C//DTD SVG 1.1//EN" "http://www.w3.org/Graphics/SVG/1.1/DTD/svg11.dtd">
<svg width="29.1210937500004" height="42.744140625" xmlns="http://www.w3.org/2000/svg" xmlns:xlink="http://www.w3.org/1999/xlink" xmlns:xml="http://www.w3.org/XML/1998/namespace" version="1.1">
  <g>
    <g>
      <path style="fill:#FF0000;fill-opacity:1" d="M11.044921875,30.52734375L8.5107421875,30.732421875 6.5771484375,31.3916015625 5.3466796875,32.5927734375 4.921875,34.39453125 5.390625,35.9619140625 6.6064453125,37.060546875 8.2763671875,37.705078125 10.13671875,37.91015625 13.3447265625,37.353515625 15.439453125,35.80078125 16.7724609375,33.45703125 17.724609375,30.52734375 11.044921875,30.52734375z M8.5546875,0L13.4765625,0 10.83984375,12.83203125 10.6640625,14.35546875 10.9167470932007,15.7324237823486 11.6748046875,16.81640625 12.9309072494507,17.5195331573486 14.677734375,17.75390625 16.1279296875,17.607421875 17.7392578125,17.109375 19.4384765625,16.142578125 21.15234375,14.58984375 24.19921875,0 29.12109375,0 23.671875,26.07421875 28.53515625,26.07421875 27.5390625,30.52734375 22.705078125,30.52734375 21.917724609375,33.52294921875 20.9619140625,36.064453125 19.801025390625,38.170166015625 18.3984375,39.8583984375 16.739501953125,41.143798828125 14.8095703125,42.041015625 9.931640625,42.744140625 5.68359375,42.0703125 2.57812476158142,40.2392578125 0.659179210662842,37.5439453125 0,34.27734375 0.699462652206421,30.889892578125 2.79785132408142,28.2861328125 6.29516553878784,26.627197265625 11.19140625,26.07421875 18.75,26.07421875 19.921875,20.888671875 16.875,22.20703125 13.65234375,22.587890625 10.4296875,22.1044921875 7.880859375,20.712890625 6.1962890625,18.486328125 5.595703125,15.52734375 5.6396484375,14.443359375 5.830078125,13.30078125 8.5546875,0z" />
    </g>
  </g>
</svg>