<?xml version="1.0" encoding="utf-8"?>
<!DOCTYPE svg PUBLIC "-//W3C//DTD SVG 1.1//EN" "http://www.w3.org/Graphics/SVG/1.1/DTD/svg11.dtd">
<svg width="38.7597656250027" height="42.744140625" xmlns="http://www.w3.org/2000/svg" xmlns:xlink="http://www.w3.org/1999/xlink" xmlns:xml="http://www.w3.org/XML/1998/namespace" version="1.1">
  <g>
    <g>
      <path style="fill:#FF0000;fill-opacity:1" d="M6.62109327316284,0L11.54296875,0 6.53320264816284,23.701171875 6.38671827316284,24.3603515625 6.10839796066284,25.6201171875 5.77148389816284,27.275390625 5.44921827316284,29.1064453125 5.20019483566284,30.908203125 5.09765577316284,32.4609375 5.27343702316284,34.599609375 5.97656202316284,36.328125 7.47070264816284,37.4853515625 10.01953125,37.91015625 12.8466796875,37.3681640625 14.8095703125,35.7421875 16.171875,33.0029296875 17.197265625,29.150390625 23.37890625,0.029296875 28.30078125,0.029296875 21.85546875,30.3515625 21.50390625,32.197265625 21.328125,33.955078125 21.6357421875,35.4345703125 22.5,36.708984375 23.8623046875,37.587890625 25.634765625,37.91015625 27.740478515625,37.591552734375 29.3701171875,36.6357421875 30.538330078125,35.086669921875 31.259765625,32.98828125 33.837890625,21.005859375 38.759765625,21.005859375 36.15234375,33.369140625 34.98046875,37.1044921875 32.9736328125,40.0634765625 29.7509765625,42.0263671875 27.579345703125,42.564697265625 24.9609375,42.744140625 22.7197246551514,42.498779296875 20.859375,41.7626953125 18.22265625,39.19921875 16.636962890625,40.704345703125 14.6923828125,41.8212890625 12.2937002182007,42.513427734375 9.345703125,42.744140625 5.52246046066284,42.0263671875 2.57812452316284,40.078125 0.673827648162842,37.20703125 0,33.720703125 0.190429210662842,31.0693359375 0.629882335662842,28.271484375 1.1572265625,25.693359375 1.61132764816284,23.701171875 6.62109327316284,0z" />
    </g>
  </g>
</svg>