<?xml version="1.0" encoding="utf-8"?>
<!DOCTYPE svg PUBLIC "-//W3C//DTD SVG 1.1//EN" "http://www.w3.org/Graphics/SVG/1.1/DTD/svg11.dtd">
<svg width="26.3671875" height="43.447265625" xmlns="http://www.w3.org/2000/svg" xmlns:xlink="http://www.w3.org/1999/xlink" xmlns:xml="http://www.w3.org/XML/1998/namespace" version="1.1">
  <g>
    <g>
      <path style="fill:#FF0000;fill-opacity:1" d="M13.271484375,4.833984375L9.9169921875,5.4638671875 7.3388671875,7.3095703125 5.68359375,10.2685546875 5.09765625,14.23828125 5.68359375,18.046875 7.353515625,20.859375 9.931640625,22.6025390625 13.271484375,23.203125 16.8017578125,22.5732421875 19.2919921875,20.7568359375 20.771484375,17.8857421875 21.26953125,14.12109375 20.7421855926514,10.1220712661743 19.16015625,7.20703125 16.63330078125,5.42724609375 13.271484375,4.833984375z M13.65234375,0L16.48681640625,0.238037109375 19.013671875,0.9521484375 21.1999492645264,2.11669921875 23.0126953125,3.7060546875 24.4482402801514,5.701904296875 25.5029296875,8.0859375 26.1511211395264,10.8325204849243 26.3671875,13.916015625 26.0302734375,20.5078125 24.84375,27.1435546875 22.587890625,33.28125 20.9912090301514,36.009521484375 19.013671875,38.3935546875 16.644287109375,40.389404296875 13.8720703125,41.953125 10.6530752182007,43.00048828125 6.943359375,43.447265625 6.474609375,39.287109375 9.25048732757568,38.851318359375 11.66015625,37.9541015625 15.498046875,35.0830078125 18.1787109375,31.0986328125 19.892578125,26.396484375 16.7138671875,27.6123046875 13.037109375,28.037109375 10.2136220932007,27.791748046875 7.6611328125,27.0556640625 5.423583984375,25.869140625 3.544921875,24.2724609375 2.039794921875,22.28759765625 0.9228515625,19.9365234375 0.230712890625,17.2668476104736 0,14.326171875 0.238037109375,11.1364755630493 0.9521484375,8.3056640625 2.11303663253784,5.855712890625 3.69140625,3.80859375 5.66162109375,2.178955078125 7.998046875,0.9814453125 10.6713857650757,0.245361328125 13.65234375,0z" />
    </g>
  </g>
</svg>