<?xml version="1.0" encoding="utf-8"?>
<!DOCTYPE svg PUBLIC "-//W3C//DTD SVG 1.1//EN" "http://www.w3.org/Graphics/SVG/1.1/DTD/svg11.dtd">
<svg width="60.732421875" height="43.447265625" xmlns="http://www.w3.org/2000/svg" xmlns:xlink="http://www.w3.org/1999/xlink" xmlns:xml="http://www.w3.org/XML/1998/namespace" version="1.1">
  <g>
    <g>
      <path style="fill:#FF0000;fill-opacity:1" d="M11.162109375,0L14.677734375,0.439453125 17.197265625,1.7578125 18.71337890625,3.9111328125 19.21875,6.85546875 19.0576171875,8.5546875 18.7060546875,10.693359375 18.3251953125,12.685546875 18.076171875,13.88671875 17.34375,17.255859375 20.2587890625,16.201171875 23.349609375,15.8203125 25.4956035614014,16.0290546417236 27.36328125,16.6552734375 28.9013652801514,17.6696796417236 30.05859375,19.04296875 31.669921875,17.87109375 33.57421875,16.8310546875 35.830078125,16.0986328125 38.5546875,15.8203125 41.7333984375,16.318359375 44.1796875,17.7392578125 45.76171875,19.9951171875 46.318359375,22.96875 46.2451171875,24.0673828125 46.025390625,25.224609375 44.853515625,30.322265625 44.6630859375,31.142578125 44.3701171875,32.490234375 44.091796875,34.072265625 43.974609375,35.537109375 44.183349609375,36.89208984375 44.8095703125,37.8515625 45.926513671875,38.4228515625 47.607421875,38.61328125 49.7131309509277,38.294677734375 51.3427734375,37.3388671875 52.5109825134277,35.789794921875 53.232421875,33.69140625 55.810546875,21.708984375 60.732421875,21.708984375 58.125,34.072265625 56.8798828125,37.8076171875 54.7412109375,40.7666015625 51.4892578125,42.7294921875 46.93359375,43.447265625 43.428955078125,43.0078125 40.9423828125,41.689453125 39.459228515625,39.5361328125 38.96484375,36.591796875 39.0966796875,34.9951171875 39.404296875,33.0908203125 39.7412109375,31.3623046875 39.9609375,30.263671875 41.162109375,25.1953125 41.337890625,23.671875 41.121826171875,22.294921875 40.4736328125,21.2109375 39.327392578125,20.5078125 37.6171875,20.2734375 35.8447265625,20.537109375 34.1015625,21.2548828125 32.490234375,22.32421875 31.083984375,23.61328125 30.8203125,25.224609375 27.158203125,42.71484375 22.236328125,42.71484375 25.95703125,25.1953125 26.1328125,23.671875 25.9167461395264,22.294921875 25.2685546875,21.2109375 24.1223125457764,20.5078125 22.412109375,20.2734375 20.2587890625,20.56640625 18.3251953125,21.4013671875 16.7724609375,22.7490234375 15.76171875,24.609375 11.865234375,42.71484375 6.943359375,42.71484375 13.154296875,13.88671875 13.3447265625,12.94921875 13.681640625,11.3232421875 13.9892578125,9.4921875 14.12109375,7.91015625 13.912353515625,6.55517578125 13.2861328125,5.595703125 12.1691884994507,5.0244140625 10.48828125,4.833984375 8.4814453125,5.11962890625 6.9140625,5.9765625 5.7568359375,7.37548828125 4.98046875,9.287109375 0,9.287109375 1.2451171875,5.595703125 3.369140625,2.6513671875 6.6064453125,0.703125 11.162109375,0z" />
    </g>
  </g>
</svg>