<?xml version="1.0" encoding="utf-8"?>
<!DOCTYPE svg PUBLIC "-//W3C//DTD SVG 1.1//EN" "http://www.w3.org/Graphics/SVG/1.1/DTD/svg11.dtd">
<svg width="29.6191406250001" height="43.916015625" xmlns="http://www.w3.org/2000/svg" xmlns:xlink="http://www.w3.org/1999/xlink" xmlns:xml="http://www.w3.org/XML/1998/namespace" version="1.1">
  <g>
    <g>
      <path style="fill:#FF0000;fill-opacity:1" d="M17.34375,13.505859375L15.05859375,15.5859375 10.927734375,19.5703125 7.8369140625,23.3056640625 5.888671875,27.12890625 5.21484375,31.34765625 5.6982421875,34.39453125 7.177734375,36.8994140625 9.6826171875,38.583984375 13.2421875,39.19921875 15.758056640625,38.946533203125 17.9736328125,38.1884765625 21.474609375,35.5224609375 23.6572265625,31.7578125 24.404296875,27.421875 24.052734375,24.5361328125 23.02734375,21.7529296875 21.38671875,18.92578125 19.189453125,15.908203125 17.34375,13.505859375z M13.857421875,0L18.515625,6.005859375 25.107421875,0 28.505859375,3.28125 21.416015625,9.755859375 23.5546875,12.5390625 26.1474609375,16.0986328125 28.0517578125,19.3798828125 29.2236328125,22.67578125 29.619140625,26.25 29.34814453125,29.871826171875 28.53515625,33.2373046875 27.1838359832764,36.258544921875 25.2978515625,38.84765625 22.8845195770264,40.96435546875 19.951171875,42.568359375 16.50146484375,43.5791015625 12.5390625,43.916015625 7.4267578125,43.1982421875 3.47167944908142,41.0595703125 0.908202648162842,37.5146484375 0.227050542831421,35.225830078125 0,32.607421875 0.263671666383743,29.241943359375 1.05468726158142,26.1767578125 2.30712866783142,23.3349609375 3.95507836341858,20.6396484375 8.2763671875,15.5712890625 13.59375,10.517578125 14.4140625,9.755859375 9.404296875,3.28125 13.857421875,0z" />
    </g>
  </g>
</svg>