<?xml version="1.0" encoding="utf-8"?>
<!DOCTYPE svg PUBLIC "-//W3C//DTD SVG 1.1//EN" "http://www.w3.org/Graphics/SVG/1.1/DTD/svg11.dtd">
<svg width="26.30859375" height="31.23046875" xmlns="http://www.w3.org/2000/svg" xmlns:xlink="http://www.w3.org/1999/xlink" xmlns:xml="http://www.w3.org/XML/1998/namespace" version="1.1">
  <g>
    <g>
      <path style="fill:#FF0000;fill-opacity:1" d="M8.583984375,19.951171875L6.73828125,20.2734375 5.4345703125,21.123046875 4.6728515625,22.3388671875 4.423828125,23.759765625 4.62158203125,25.155029296875 5.21484375,26.2353515625 6.20361280441284,26.927490234375 7.587890625,27.158203125 8.961181640625,26.865234375 9.9169921875,25.986328125 10.477294921875,24.61669921875 10.6640625,22.8515625 10.6640625,19.951171875 8.583984375,19.951171875z M23.4375,0L25.0634746551514,0.102540493011475 26.30859375,0.41015625 26.30859375,5.390625 24.7558574676514,4.66552877426147 22.67578125,4.423828125 19.833984375,5.14892721176147 17.51953125,7.32421875 15.9814453125,10.7373046875 15.46875,15.234375 15.46875,16.69921875 18.28125,16.69921875 18.28125,19.951171875 15.46875,19.951171875 15.46875,22.8515625 14.8828125,26.4697265625 13.2275390625,29.091796875 10.6494140625,30.6884765625 7.294921875,31.23046875 4.3359375,30.6591796875 2.02148461341858,29.0771484375 0.527343571186066,26.689453125 0,23.701171875 0.615234315395355,20.6396484375 2.31445336341858,18.45703125 4.892578125,17.138671875 8.14453125,16.69921875 10.6640625,16.69921875 10.6640625,0.52734375 15.46875,0.52734375 15.46875,6.708984375 15.5859375,6.708984375 16.904296875,3.8818359375 18.720703125,1.7724609375 20.9326171875,0.4541015625 23.4375,0z" />
    </g>
  </g>
</svg>