<?xml version="1.0" encoding="utf-8"?>
<!DOCTYPE svg PUBLIC "-//W3C//DTD SVG 1.1//EN" "http://www.w3.org/Graphics/SVG/1.1/DTD/svg11.dtd">
<svg width="15.1171875" height="44.4140625" xmlns="http://www.w3.org/2000/svg" xmlns:xlink="http://www.w3.org/1999/xlink" xmlns:xml="http://www.w3.org/XML/1998/namespace" version="1.1">
  <g>
    <g>
      <path style="fill:#FF0000;fill-opacity:1" d="M9.9609375,18.427734375L9.9609375,25.078125 11.19140625,23.6572265625 11.66015625,21.767578125 11.19140625,19.86328125 9.9609375,18.427734375z M5.15625,18.251953125L3.79394578933716,19.7314453125 3.28125023841858,21.767578125 3.75000023841858,24.07470703125 5.15625,25.4296875 5.15625,18.251953125z M5.15625,0L9.9609375,0 9.9609375,14.970703125 12.0703115463257,15.9008808135986 13.7109375,17.40234375 14.7656240463257,19.3652362823486 15.1171875,21.6796875 14.736328125,23.994140625 13.6669921875,25.95703125 12.0263671875,27.4951171875 9.9609375,28.505859375 9.9609375,44.4140625 5.15625,44.4140625 5.15625,28.59375 3.0615234375,27.685546875 1.435546875,26.220703125 0.380859524011612,24.287109375 0,21.9140625 0.351562678813934,19.4677753448486 1.40625011920929,17.4609375 3.04687523841858,15.9521503448486 5.15625,15 5.15625,0z" />
    </g>
  </g>
</svg>