<?xml version="1.0" encoding="utf-8"?>
<!DOCTYPE svg PUBLIC "-//W3C//DTD SVG 1.1//EN" "http://www.w3.org/Graphics/SVG/1.1/DTD/svg11.dtd">
<svg width="27.71484375" height="31.40625" xmlns="http://www.w3.org/2000/svg" xmlns:xlink="http://www.w3.org/1999/xlink" xmlns:xml="http://www.w3.org/XML/1998/namespace" version="1.1">
  <g>
    <g>
      <path style="fill:#FF0000;fill-opacity:1" d="M18.017578125,20.126953125L16.171875,20.44921875 14.8681640625,21.298828125 14.1064453125,22.5146484375 13.857421875,23.935546875 14.05517578125,25.330810546875 14.6484375,26.4111328125 15.63720703125,27.103271484375 17.021484375,27.333984375 18.394775390625,27.041015625 19.3505859375,26.162109375 19.9108867645264,24.79248046875 20.09765625,23.02734375 20.09765625,20.126953125 18.017578125,20.126953125z M14.765625,0L17.0938091278076,0.197754979133606 19.1271953582764,0.791017055511475 20.8657817840576,1.77978622913361 22.3095703125,3.1640625 24.2541484832764,7.04589986801147 24.90234375,12.36328125 24.90234375,16.875 27.71484375,16.875 27.71484375,20.126953125 24.90234375,20.126953125 24.90234375,23.02734375 24.31640625,26.6455078125 22.6611328125,29.267578125 20.0830078125,30.8642578125 16.728515625,31.40625 13.76953125,30.8349609375 11.455078125,29.2529296875 9.9609375,26.865234375 9.43359375,23.876953125 10.048828125,20.8154296875 11.748046875,18.6328125 14.326171875,17.314453125 17.578125,16.875 20.09765625,16.875 20.09765625,13.59375 19.6618633270264,9.41528415679932 18.3544902801514,6.43066549301147 16.1755352020264,4.63989353179932 13.125,4.04296875 9.82910060882568,4.72412252426147 7.1484375,6.767578125 5.390625,9.82177734375 4.8046875,13.59375 4.8046875,30.703125 0,30.703125 0,0.703125 4.8046875,0.703125 4.8046875,5.68359375 4.921875,5.68359375 6.81152296066284,3.19702243804932 9.08203029632568,1.42089986801147 11.7333974838257,0.355225682258606 14.765625,0z" />
    </g>
  </g>
</svg>