<?xml version="1.0" encoding="utf-8"?>
<!DOCTYPE svg PUBLIC "-//W3C//DTD SVG 1.1//EN" "http://www.w3.org/Graphics/SVG/1.1/DTD/svg11.dtd">
<svg width="34.541015625" height="31.40625" xmlns="http://www.w3.org/2000/svg" xmlns:xlink="http://www.w3.org/1999/xlink" xmlns:xml="http://www.w3.org/XML/1998/namespace" version="1.1">
  <g>
    <g>
      <path style="fill:#FF0000;fill-opacity:1" d="M22.119140625,4.04296875L20.3173828125,4.23339986801147 18.720703125,4.8046875 16.1279296875,6.796875 14.35546875,9.609375 13.41796875,12.83203125 29.619140625,12.83203125 29.1064434051514,9.114990234375 27.626953125,6.3427734375 25.2685527801514,4.61792135238647 22.119140625,4.04296875z M22.20703125,0L25.2319316864014,0.292970180511475 27.802734375,1.171875 29.9340801239014,2.54882955551147 31.640625,4.3359375 32.93701171875,6.48193502426147 33.837890625,8.935546875 34.541015625,14.384765625 34.541015625,16.904296875 13.359375,16.904296875 14.0881338119507,21.361083984375 16.0400390625,24.6533203125 19.097900390625,26.685791015625 23.14453125,27.36328125 25.6164531707764,27.154541015625 27.9931621551514,26.5283203125 30.2746562957764,25.484619140625 32.4609375,24.0234375 32.4609375,28.53515625 27.8540019989014,30.6884765625 22.001953125,31.40625 18.804931640625,31.12060546875 16.0693359375,30.263671875 13.7731924057007,28.912353515625 11.89453125,27.1435546875 10.4296875,25.001220703125 9.375,22.529296875 8.408203125,16.904296875 7.998046875,16.904296875 6.229248046875,17.1221923828125 4.9658203125,17.77587890625 4.207763671875,18.8653564453125 3.955078125,20.390625 4.25537109375,22.53662109375 5.15624952316284,24.638671875 1.142578125,24.638671875 0.28564453125,22.40478515625 0,19.98046875 0.5419921875,17.021484375 2.080078125,14.765625 4.482421875,13.330078125 7.6171875,12.83203125 8.61328125,12.83203125 10.13671875,7.8369140625 12.9931640625,3.7646484375 17.0654296875,1.0107421875 19.515380859375,0.252686977386475 22.20703125,0z" />
    </g>
  </g>
</svg>