<?xml version="1.0" encoding="utf-8"?>
<!DOCTYPE svg PUBLIC "-//W3C//DTD SVG 1.1//EN" "http://www.w3.org/Graphics/SVG/1.1/DTD/svg11.dtd">
<svg width="13.095703125" height="23.759765625" xmlns="http://www.w3.org/2000/svg" xmlns:xlink="http://www.w3.org/1999/xlink" xmlns:xml="http://www.w3.org/XML/1998/namespace" version="1.1">
  <g>
    <g>
      <path style="fill:#FF0000;fill-opacity:1" d="M4.62890625,0L8.5546875,0 8.5546875,7.763671875 9.43359375,7.880859375 10.810546875,7.2802734375 11.30859375,5.478515625 13.095703125,5.478515625 12.8173818588257,7.364501953125 12.099609375,8.8623046875 10.986328125,9.840087890625 9.521484375,10.166015625 8.5546875,10.078125 8.5546875,13.623046875 9.43359375,13.740234375 10.810546875,13.1396503448486 11.30859375,11.337890625 13.095703125,11.337890625 12.8173818588257,13.2238788604736 12.099609375,14.7216796875 10.986328125,15.6994647979736 9.521484375,16.025390625 8.5546875,15.9375 8.5546875,23.759765625 4.62890625,23.759765625 4.62890625,14.23828125 3.662109375,14.0625 2.21923828125,14.6484394073486 1.69921875,16.40625 0,16.40625 0.2783203125,14.4836444854736 0.996093809604645,12.9931640625 2.13134765625,12.0373554229736 3.662109375,11.71875 4.62890625,11.8359375 4.62890625,8.37890625 3.662109375,8.203125 2.21923828125,8.7890625 1.69921875,10.546875 0,10.546875 0.2783203125,8.624267578125 0.996093809604645,7.1337890625 2.13134765625,6.177978515625 3.662109375,5.859375 4.62890625,5.9765625 4.62890625,0z" />
    </g>
  </g>
</svg>