<?xml version="1.0" encoding="utf-8"?>
<!DOCTYPE svg PUBLIC "-//W3C//DTD SVG 1.1//EN" "http://www.w3.org/Graphics/SVG/1.1/DTD/svg11.dtd">
<svg width="16.083984375" height="18.22265625" xmlns="http://www.w3.org/2000/svg" xmlns:xlink="http://www.w3.org/1999/xlink" xmlns:xml="http://www.w3.org/XML/1998/namespace" version="1.1">
  <g>
    <g>
      <path style="fill:#FF0000;fill-opacity:1" d="M7.91015625,10.83984375L10.95703125,11.3818359375 13.4765625,12.890625 15.2490234375,15.2197265625 16.083984375,18.22265625 13.095703125,18.22265625 12.5244131088257,16.3366718292236 11.396484375,14.8974609375 9.83642578125,13.9855976104736 7.96875,13.681640625 5.89599609375,13.9654550552368 4.365234375,14.8168964385986 3.37646484375,16.2359638214111 2.9296875,18.22265625 0,18.22265625 0.67382824420929,15.1904296875 2.3291015625,12.861328125 4.7900390625,11.3671875 7.91015625,10.83984375z M0,0L2.9296875,0 3.37646484375,1.9866943359375 4.365234375,3.40576171875 5.89599609375,4.2572021484375 7.96875,4.541015625 9.83642578125,4.237060546875 11.396484375,3.3251953125 12.5244131088257,1.885986328125 13.095703125,0 16.083984375,0 15.263671875,2.98828125 13.505859375,5.3173828125 11.0009765625,6.8408203125 7.91015625,7.3828125 4.7900390625,6.85546875 2.3291015625,5.361328125 0.67382824420929,3.0322265625 0,0z" />
    </g>
  </g>
</svg>