<?xml version="1.0" encoding="utf-8"?>
<!DOCTYPE svg PUBLIC "-//W3C//DTD SVG 1.1//EN" "http://www.w3.org/Graphics/SVG/1.1/DTD/svg11.dtd">
<svg width="54.140625" height="31.40625" xmlns="http://www.w3.org/2000/svg" xmlns:xlink="http://www.w3.org/1999/xlink" xmlns:xml="http://www.w3.org/XML/1998/namespace" version="1.1">
  <g>
    <g>
      <path style="fill:#FF0000;fill-opacity:1" d="M39.55078125,4.04296875L37.371826171875,4.24438619613647 35.4052734375,4.8486328125 32.2412109375,7.1923828125 30.234375,10.927734375 29.53125,15.87890625 30.234375,20.6396484375 32.255859375,24.2578125 35.419921875,26.5576171875 37.37548828125,27.161865234375 39.55078125,27.36328125 41.7572021484375,27.1755981445313 43.68896484375,26.612548828125 45.3460693359375,25.6741333007813 46.728515625,24.3603515625 48.5961875915527,20.709228515625 49.21875,15.76171875 48.5961875915527,10.762939453125 46.728515625,7.0751953125 45.3460693359375,5.74859714508057 43.68896484375,4.80102682113647 41.7572021484375,4.23248386383057 39.55078125,4.04296875z M15.29296875,0L16.025390625,0.0146484375 16.728515625,0.05859375 15.99609375,4.072265625 15.46875,4.04296875 14.94140625,4.04296875 12.762451171875,4.24438619613647 10.7958984375,4.8486328125 7.6318359375,7.1923828125 5.625,10.927734375 4.921875,15.87890625 5.625,20.6396484375 7.646484375,24.2578125 10.810546875,26.5576171875 12.76611328125,27.161865234375 14.94140625,27.36328125 17.1478271484375,27.1755981445313 19.07958984375,26.612548828125 20.7366943359375,25.6741333007813 22.119140625,24.3603515625 23.9868144989014,20.709228515625 24.609375,15.76171875 24.8803691864014,12.2607421875 25.693359375,9.140625 27.0080547332764,6.43432760238647 28.7841796875,4.1748046875 30.992431640625,2.38037252426147 33.603515625,1.0693359375 36.58447265625,0.267335414886475 39.90234375,0 43.08837890625,0.267335414886475 45.908203125,1.0693359375 48.3435020446777,2.37671041488647 50.3759765625,4.16015625 51.9909629821777,6.39770650863647 53.173828125,9.0673828125 53.8989219665527,12.139892578125 54.140625,15.5859375 53.8769493103027,18.973388671875 53.0859375,22.0458984375 51.8115196228027,24.752197265625 50.09765625,27.041015625 47.9553184509277,28.88671875 45.3955078125,30.263671875 42.462158203125,31.12060546875 39.19921875,31.40625 35.321044921875,30.992431640625 31.9482421875,29.7509765625 29.146728515625,27.762451171875 26.982421875,25.107421875 24.7485332489014,27.762451171875 21.9140625,29.7509765625 18.515625,30.992431640625 14.58984375,31.40625 11.4331045150757,31.131591796875 8.583984375,30.3076171875 6.08642578125,28.978271484375 3.98437547683716,27.1875 2.296142578125,24.964599609375 1.04003882408142,22.3388671875 0.260009735822678,19.354248046875 0,16.0546875 0.267334014177322,12.476806640625 1.06933617591858,9.3017578125 2.369384765625,6.55517721176147 4.130859375,4.2626953125 6.331787109375,2.43896627426147 8.9501953125,1.0986328125 11.9494619369507,0.274659633636475 15.29296875,0z" />
    </g>
  </g>
</svg>