<?xml version="1.0" encoding="utf-8"?>
<!DOCTYPE svg PUBLIC "-//W3C//DTD SVG 1.1//EN" "http://www.w3.org/Graphics/SVG/1.1/DTD/svg11.dtd">
<svg width="44.94140625" height="31.40625" xmlns="http://www.w3.org/2000/svg" xmlns:xlink="http://www.w3.org/1999/xlink" xmlns:xml="http://www.w3.org/XML/1998/namespace" version="1.1">
  <g>
    <g>
      <path style="fill:#FF0000;fill-opacity:1" d="M23.818359375,18.57421875L24.8583984375,22.1484375 26.748046875,24.9169921875 29.35546875,26.71875 32.51953125,27.36328125 35.6689453125,26.788330078125 38.02734375,25.0634765625 39.5068359375,22.291259765625 40.01953125,18.57421875 23.818359375,18.57421875z M18.896484375,16.845703125L12.94921875,17.197265625 9.393310546875,17.67333984375 6.8701171875,18.6328125 5.364990234375,20.2294921875 4.86328172683716,22.6171875 5.25878953933716,24.55078125 6.4013671875,26.0595703125 8.2177734375,27.0263671875 10.60546875,27.36328125 13.8427734375,26.7041015625 16.4794921875,24.873046875 18.251953125,22.119140625 18.896484375,18.69140625 18.896484375,16.845703125z M13.125,0L16.0638427734375,0.324097752571106 18.46435546875,1.29638814926147 20.3265380859375,2.91687107086182 21.650390625,5.185546875 23.6425762176514,2.96264791488647 26.103515625,1.3330078125 29.02587890625,0.333253383636475 32.40234375,0 38.25439453125,0.717774868011475 42.861328125,2.87109375 42.861328125,7.3828125 40.675048828125,5.92163181304932 38.3935546875,4.87793111801147 36.016845703125,4.25170993804932 33.544921875,4.04296875 29.498291015625,4.72046041488647 26.4404296875,6.7529296875 24.4885234832764,10.045166015625 23.759765625,14.501953125 44.94140625,14.501953125 44.94140625,17.021484375 44.736328125,20.21484375 44.12109375,23.056640625 43.114013671875,25.521240234375 41.7333984375,27.5830078125 39.98291015625,29.2236328125 37.8662109375,30.4248046875 35.401611328125,31.160888671875 32.607421875,31.40625 29.0478515625,30.94482421875 25.869140625,29.560546875 23.1738262176514,27.37060546875 21.064453125,24.4921875 21.064453125,24.697265625 20.947265625,24.697265625 18.6456298828125,27.6324462890625 15.98876953125,29.72900390625 12.9766845703125,30.9869384765625 9.609375,31.40625 5.5810546875,30.791015625 2.56347703933716,29.0478515625 0.659179925918579,26.3232421875 0,22.734375 0.7012939453125,18.84521484375 2.80517578125,15.966796875 6.3116455078125,14.09912109375 11.220703125,13.2421875 18.896484375,12.7734375 18.5028076171875,8.95385837554932 17.32177734375,6.22558736801147 15.3533935546875,4.58862400054932 12.59765625,4.04296875 10.07080078125,4.26635837554932 7.6171875,4.93652486801147 5.23681640625,6.05346775054932 2.9296875,7.6171875 2.9296875,2.8125 7.646484375,0.703126430511475 13.125,0z" />
    </g>
  </g>
</svg>