<?xml version="1.0" encoding="utf-8"?>
<!DOCTYPE svg PUBLIC "-//W3C//DTD SVG 1.1//EN" "http://www.w3.org/Graphics/SVG/1.1/DTD/svg11.dtd">
<svg width="35.15625" height="44.736328125" xmlns="http://www.w3.org/2000/svg" xmlns:xlink="http://www.w3.org/1999/xlink" xmlns:xml="http://www.w3.org/XML/1998/namespace" version="1.1">
  <g>
    <g>
      <path style="fill:#FF0000;fill-opacity:1" d="M29.208984375,35.888671875L28.037109375,36.123046875 27.0556640625,36.7822265625 26.396484375,37.763671875 26.162109375,38.935546875 26.396484375,40.107421875 27.0556640625,41.0888671875 28.037109375,41.748046875 29.208984375,41.982421875 30.380859375,41.748046875 31.3623046875,41.0888671875 32.021484375,40.107421875 32.255859375,38.935546875 32.021484375,37.763671875 31.3623046875,36.7822265625 30.380859375,36.123046875 29.208984375,35.888671875z M4.716796875,0L6.97265577316284,0.3076171875 8.8037109375,1.34765625 10.37109375,3.2666015625 11.865234375,6.2109375 15.966796875,15.87890625 23.96484375,0.703125 29.384765625,0.703125 18.3984375,20.625 24.84375,34.921875 26.77734375,33.7646484375 29.208984375,33.369140625 31.58203125,33.7939453125 33.45703125,34.9658203125 34.7021484375,36.73828125 35.15625,38.994140625 34.6728515625,41.279296875 33.3544921875,43.095703125 31.3916015625,44.296875 29.00390625,44.736328125 27.3046855926514,44.53125 25.83984375,43.916015625 23.671875,41.689453125 22.0751953125,38.701171875 20.390625,35.15625 15.703125,25.13671875 5.419921875,44.384765625 0,44.384765625 13.30078125,20.244140625 8.203125,8.73046875 7.22534132003784,6.83349704742432 6.22558546066284,5.47851705551147 5.203857421875,4.66552829742432 4.16015672683716,4.39453125 1.58203089237213,4.8046875 1.58203089237213,0.29296875 2.84912085533142,0.0732436180114746 4.716796875,0z" />
    </g>
  </g>
</svg>