<?xml version="1.0" encoding="utf-8"?>
<!DOCTYPE svg PUBLIC "-//W3C//DTD SVG 1.1//EN" "http://www.w3.org/Graphics/SVG/1.1/DTD/svg11.dtd">
<svg width="39.697265625" height="42.01171875" xmlns="http://www.w3.org/2000/svg" xmlns:xlink="http://www.w3.org/1999/xlink" xmlns:xml="http://www.w3.org/XML/1998/namespace" version="1.1">
  <g>
    <g>
      <path style="fill:#FF0000;fill-opacity:1" d="M18.6328125,0L23.5546875,0 23.5546875,19.013671875 37.8515625,19.013671875 39.697265625,32.87109375 34.86328125,32.87109375 33.544921875,23.466796875 23.5546875,23.466796875 23.5546875,32.87109375 18.6328125,32.87109375 18.6328125,23.4375 15.574951171875,23.6572265625 13.0224609375,24.140625 10.9130849838257,24.949951171875 9.1845703125,26.1474609375 7.818603515625,27.755126953125 6.796875,29.794921875 6.064453125,32.3291015625 5.56640625,35.419921875 4.833984375,42.01171875 0,42.01171875 0.820312261581421,34.6875 1.58569300174713,30.450439453125 2.82714772224426,27.0556640625 4.50805568695068,24.385986328125 6.591796875,22.32421875 9.0673828125,20.826416015625 11.923828125,19.8486328125 18.6328125,19.013671875 18.6328125,0z" />
    </g>
  </g>
</svg>