<?xml version="1.0" encoding="utf-8"?>
<!DOCTYPE svg PUBLIC "-//W3C//DTD SVG 1.1//EN" "http://www.w3.org/Graphics/SVG/1.1/DTD/svg11.dtd">
<svg width="69.140625" height="27.392578125" xmlns="http://www.w3.org/2000/svg" xmlns:xlink="http://www.w3.org/1999/xlink" xmlns:xml="http://www.w3.org/XML/1998/namespace" version="1.1">
  <g>
    <g>
      <path style="fill:#FF0000;fill-opacity:1" d="M36.884765625,4.423828125L36.884765625,18.3984375 48.6328125,18.3984375 48.720703125,15.673828125 48.2958984375,11.4404296875 47.109375,8.4228515625 45.263671875,6.416015625 42.861328125,5.2294921875 40.0341796875,4.62890625 36.884765625,4.423828125z M18.046875,4.423828125L14.5458984375,4.68750095367432 11.396484375,5.44921875 8.7451171875,7.0166015625 6.6943359375,9.66796875 5.361328125,13.6962890625 5.009765625,16.3146991729736 4.892578125,19.39453125 4.921875,21.1376953125 5.0390625,22.998046875 18.046875,22.998046875 18.046875,4.423828125z M19.51171875,0L35.419921875,0 41.0009765625,0.3076171875 45.99609375,1.5966796875 48.1420860290527,2.794189453125 50.009765625,4.423828125 51.5405235290527,6.5771484375 52.67578125,9.345703125 67.763671875,9.345703125 67.705078125,10.60546875 68.0419921875,14.091796875 69.140625,17.34375 64.6875,19.16015625 63.6181640625,16.46484375 62.98828125,13.564453125 53.466796875,13.564453125 53.5693359375,15.0146484375 53.61328125,16.552734375 53.49609375,19.4970703125 53.14453125,22.79296875 32.021484375,22.79296875 32.021484375,4.423828125 22.91015625,4.423828125 22.91015625,27.392578125 0.498046398162842,27.392578125 0.1318359375,23.4375 0,19.892578125 0.186767578125,15.7983417510986 0.7470703125,12.3046875 1.644287109375,9.35669040679932 2.841796875,6.8994140625 4.310302734375,4.903564453125 6.0205078125,3.33984375 10.01953125,1.2451171875 14.6044921875,0.2490234375 19.51171875,0z" />
    </g>
  </g>
</svg>