<?xml version="1.0" encoding="utf-8"?>
<!DOCTYPE svg PUBLIC "-//W3C//DTD SVG 1.1//EN" "http://www.w3.org/Graphics/SVG/1.1/DTD/svg11.dtd">
<svg width="40.8398437500004" height="42.392578125" xmlns="http://www.w3.org/2000/svg" xmlns:xlink="http://www.w3.org/1999/xlink" xmlns:xml="http://www.w3.org/XML/1998/namespace" version="1.1">
  <g>
    <g>
      <path style="fill:#FF0000;fill-opacity:1" d="M10.25390625,0L11.3232421875,2.6953125 11.953125,5.595703125 34.6875,5.595703125 35.3173828125,2.6953125 36.38671875,0 40.83984375,1.81640625 39.7412109375,5.068359375 39.404296875,8.5546875 39.462890625,9.814453125 24.9609375,9.814453125 23.4521484375,13.4033203125 21.0205078125,16.4501953125 17.98828125,19.1455078125 14.677734375,21.650390625 11.0595703125,24.404296875 7.96875,27.275390625 5.8154296875,30.556640625 5.211181640625,32.42431640625 5.009765625,34.51171875 5.625,38.115234375 17.138671875,38.115234375 18.065185546875,34.222412109375 19.4384765625,31.0986328125 21.2402324676514,28.648681640625 23.4521484375,26.77734375 26.0632305145264,25.440673828125 29.0625,24.5947265625 36.09375,23.994140625 38.26171875,23.994140625 38.203125,25.4296875 38.5400390625,28.916015625 39.638671875,32.16796875 35.185546875,33.984375 34.1162109375,31.318359375 33.486328125,28.388671875 30.465087890625,28.7255859375 28.0224609375,29.384765625 26.0705547332764,30.41748046875 24.521484375,31.875 23.3386211395264,33.77197265625 22.4853515625,36.123046875 21.8811016082764,38.9794921875 21.4453125,42.392578125 1.23046875,42.392578125 0.292968511581421,38.61328125 0,35.302734375 0.212402164936066,32.62939453125 0.849609375,30.234375 3.10546875,26.103515625 6.3427734375,22.646484375 10.13671875,19.5703125 13.125,17.3583984375 16.083984375,15.029296875 18.486328125,12.5244140625 19.833984375,9.814453125 7.177734375,9.814453125 7.236328125,8.5546875 6.8994140625,5.068359375 5.80078125,1.81640625 10.25390625,0z" />
    </g>
  </g>
</svg>