<?xml version="1.0" encoding="utf-8"?>
<!DOCTYPE svg PUBLIC "-//W3C//DTD SVG 1.1//EN" "http://www.w3.org/Graphics/SVG/1.1/DTD/svg11.dtd">
<svg width="51.826171875" height="42.01171875" xmlns="http://www.w3.org/2000/svg" xmlns:xlink="http://www.w3.org/1999/xlink" xmlns:xml="http://www.w3.org/XML/1998/namespace" version="1.1">
  <g>
    <g>
      <path style="fill:#FF0000;fill-opacity:1" d="M39.521484375,32.431640625L40.1953125,37.79296875 43.2421875,37.79296875 45.040283203125,37.62451171875 46.2158203125,37.119140625 46.8640098571777,36.2841796875 47.080078125,35.126953125 46.8456993103027,33.9111328125 46.142578125,33.076171875 44.89013671875,32.5927734375 43.0078125,32.431640625 39.521484375,32.431640625z M18.6328125,0L23.5546875,0 23.5546875,19.013671875 37.8515625,19.013671875 38.994140625,28.212890625 43.095703125,28.212890625 47.0068321228027,28.634033203125 49.716796875,29.8974609375 51.2988243103027,32.003173828125 51.826171875,34.951171875 51.2768516540527,38.04931640625 49.62890625,40.25390625 46.8090782165527,41.572265625 42.744140625,42.01171875 35.888671875,42.01171875 33.544921875,23.466796875 23.5546875,23.466796875 23.5546875,42.01171875 18.6328125,42.01171875 18.6328125,23.4375 15.574951171875,23.6572265625 13.0224609375,24.140625 10.9130849838257,24.949951171875 9.1845703125,26.1474609375 7.818603515625,27.755126953125 6.796875,29.794921875 6.064453125,32.3291015625 5.56640625,35.419921875 4.83398389816284,42.01171875 0,42.01171875 0.820312261581421,34.6875 1.58569312095642,30.450439453125 2.82714796066284,27.0556640625 4.50805616378784,24.385986328125 6.591796875,22.32421875 9.0673828125,20.826416015625 11.923828125,19.8486328125 18.6328125,19.013671875 18.6328125,0z" />
    </g>
  </g>
</svg>