<?xml version="1.0" encoding="utf-8"?>
<!DOCTYPE svg PUBLIC "-//W3C//DTD SVG 1.1//EN" "http://www.w3.org/Graphics/SVG/1.1/DTD/svg11.dtd">
<svg width="31.4648437500011" height="43.681640625" xmlns="http://www.w3.org/2000/svg" xmlns:xlink="http://www.w3.org/1999/xlink" xmlns:xml="http://www.w3.org/XML/1998/namespace" version="1.1">
  <g>
    <g>
      <path style="fill:#FF0000;fill-opacity:1" d="M5.302734375,34.1015625L5.0390625,36.73828125 4.921875,39.462890625 8.3203125,39.462890625 10.1184072494507,39.29443359375 11.2939453125,38.7890625 11.9421377182007,37.9541015625 12.158203125,36.796875 11.9238271713257,35.5810546875 11.220703125,34.74609375 9.96826076507568,34.2626953125 8.0859375,34.1015625 5.302734375,34.1015625z M13.41796875,0L18.427734375,0 31.46484375,43.681640625 26.484375,43.681640625 17.9296875,15.146484375 13.330078125,17.5341796875 9.9609375,20.6982421875 7.5439453125,24.78515625 5.947265625,29.8828125 8.173828125,29.8828125 12.0849609375,30.303955078125 14.794921875,31.5673828125 16.376953125,33.673095703125 16.904296875,36.62109375 16.35498046875,39.71923828125 14.70703125,41.923828125 11.88720703125,43.2421875 7.822265625,43.681640625 0,43.681640625 0.113525003194809,38.8330078125 0.454101324081421,34.482421875 1.02539038658142,30.589599609375 1.83105444908142,27.1142578125 2.87109303474426,24.0380859375 4.14550685882568,21.3427734375 7.3828125,16.904296875 11.5283203125,13.5498046875 16.728515625,11.044921875 13.41796875,0z" />
    </g>
  </g>
</svg>