<?xml version="1.0" encoding="utf-8"?>
<!DOCTYPE svg PUBLIC "-//W3C//DTD SVG 1.1//EN" "http://www.w3.org/Graphics/SVG/1.1/DTD/svg11.dtd">
<svg width="34.04296875" height="42.01171875" xmlns="http://www.w3.org/2000/svg" xmlns:xlink="http://www.w3.org/1999/xlink" xmlns:xml="http://www.w3.org/XML/1998/namespace" version="1.1">
  <g>
    <g>
      <path style="fill:#FF0000;fill-opacity:1" d="M16.083984375,0L21.240234375,0 20.9728984832764,2.508544921875 20.2880859375,4.7021484375 18.0029296875,8.349609375 14.9267578125,11.2060546875 11.572265625,13.53515625 9.111328125,15.1904296875 7.0458984375,16.8603515625 5.625,18.662109375 5.09765625,20.712890625 5.185546875,22.236328125 5.68359375,23.935546875 32.666015625,23.935546875 32.607421875,25.1953125 32.9443359375,28.7548828125 34.04296875,31.9921875 29.58984375,33.80859375 28.5205078125,31.11328125 27.890625,28.212890625 18.8671875,28.212890625 18.8671875,42.01171875 13.9453125,42.01171875 13.9453125,28.212890625 1.49414086341858,28.212890625 0.351562738418579,24.3603515625 0,21.15234375 0.659179925918579,17.373046875 2.40234398841858,14.501953125 4.892578125,12.2314453125 7.763671875,10.283203125 10.6201171875,8.3935546875 13.18359375,6.2548828125 15.1171875,3.5595703125 16.083984375,0z" />
    </g>
  </g>
</svg>