<?xml version="1.0" encoding="utf-8"?>
<!DOCTYPE svg PUBLIC "-//W3C//DTD SVG 1.1//EN" "http://www.w3.org/Graphics/SVG/1.1/DTD/svg11.dtd">
<svg width="60.64453125" height="46.58203125" xmlns="http://www.w3.org/2000/svg" xmlns:xlink="http://www.w3.org/1999/xlink" xmlns:xml="http://www.w3.org/XML/1998/namespace" version="1.1">
  <g>
    <g>
      <path style="fill:#FF0000;fill-opacity:1" d="M35.390625,4.423828125L35.390625,16.2890625 46.46484375,16.2890625 46.728515625,13.037109375 46.23046875,9.43359375 44.8828125,7.0166015625 42.9052734375,5.5517578125 40.517578125,4.7900390625 37.939453125,4.4970703125 35.390625,4.423828125z M17.2265625,4.423828125L12.48046875,4.8486328125 10.3967275619507,5.416259765625 8.5986328125,6.38671875 7.119140625,7.818603515625 5.9912109375,9.7705078125 5.277099609375,12.3596210479736 5.0390625,15.703125 5.068359375,17.0361328125 5.185546875,18.45703125 17.2265625,18.45703125 17.2265625,4.423828125z M18.544921875,0L36.416015625,0 40.0927696228027,0.20050048828125 43.2421836853027,0.802001953125 45.8642539978027,1.80450439453125 47.958984375,3.2080078125 49.5611534118652,5.00152587890625 50.7055625915527,7.174072265625 51.3922080993652,9.72564697265625 51.62109375,12.65625 51.4013633728027,16.0034198760986 50.7421875,19.716796875 46.9921875,36.767578125 59.267578125,36.767578125 59.208984375,38.02734375 59.5458984375,41.513671875 60.64453125,44.765625 56.19140625,46.58203125 55.1220703125,43.88671875 54.4921875,40.986328125 41.162109375,40.986328125 45.5859375,20.654296875 30.380859375,20.654296875 30.380859375,4.423828125 21.943359375,4.423828125 21.943359375,22.822265625 0.46875,22.822265625 0.1171875,19.51171875 0,16.552734375 0.179443418979645,13.1433124542236 0.717773914337158,10.2392578125 1.57470703125,7.79296875 2.7099609375,5.7568359375 5.7275390625,2.783203125 9.5361328125,1.025390625 13.88671875,0.205078125 18.544921875,0z" />
    </g>
  </g>
</svg>