<?xml version="1.0" encoding="utf-8"?>
<!DOCTYPE svg PUBLIC "-//W3C//DTD SVG 1.1//EN" "http://www.w3.org/Graphics/SVG/1.1/DTD/svg11.dtd">
<svg width="29.5898437500004" height="47.607421875" xmlns="http://www.w3.org/2000/svg" xmlns:xlink="http://www.w3.org/1999/xlink" xmlns:xml="http://www.w3.org/XML/1998/namespace" version="1.1">
  <g>
    <g>
      <path style="fill:#FF0000;fill-opacity:1" d="M21.328125,0L26.484375,0 25.7958984375,4.7314453125 24.287109375,8.7744140625 22.1337890625,12.2314453125 19.541015625,15.2197265625 16.69921875,17.8857421875 13.798828125,20.361328125 10.458984375,23.3056640625 7.6611328125,26.3525390625 5.7275390625,29.7509765625 5.009765625,33.720703125 5.625,37.734375 28.212890625,37.734375 28.154296875,38.994140625 28.4912109375,42.5537109375 29.58984375,45.791015625 25.13671875,47.607421875 24.0673828125,44.912109375 23.4375,42.01171875 1.23046875,42.01171875 0.292968988418579,37.9248046875 0,34.3359375 0.219726383686066,31.4501953125 0.87890625,28.88671875 3.193359375,24.4921875 6.474609375,20.8154296875 10.25390625,17.4609375 14.12109375,14.0478515625 17.5634765625,10.2392578125 20.126953125,5.68359375 20.9399394989014,3.017578125 21.328125,0z" />
    </g>
  </g>
</svg>