<?xml version="1.0" encoding="utf-8"?>
<!DOCTYPE svg PUBLIC "-//W3C//DTD SVG 1.1//EN" "http://www.w3.org/Graphics/SVG/1.1/DTD/svg11.dtd">
<svg width="54.462890625" height="27.59765625" xmlns="http://www.w3.org/2000/svg" xmlns:xlink="http://www.w3.org/1999/xlink" xmlns:xml="http://www.w3.org/XML/1998/namespace" version="1.1">
  <g>
    <g>
      <path style="fill:#FF0000;fill-opacity:1" d="M0,0L4.921875,0 4.921875,16.611328125 5.15625,19.6728515625 6.0205078125,21.6796875 7.79296875,22.79296875 10.751953125,23.14453125 13.76953125,22.8076171875 15.7470703125,21.6796875 16.81640625,19.62890625 17.138671875,16.5234375 17.138671875,0 22.001953125,0 22.001953125,11.923828125 22.2216796875,14.8974609375 23.056640625,16.962890625 24.755859375,18.1640625 27.568359375,18.544921875 28.095703125,18.544921875 31.025390625,18.134765625 32.8125,16.8896484375 33.69140625,14.82421875 33.92578125,11.923828125 33.92578125,0 38.84765625,0 38.84765625,9.580078125 53.0859375,9.580078125 53.02734375,10.83984375 53.3642578125,14.326171875 54.462890625,17.578125 50.009765625,19.39453125 48.9404296875,16.69921875 48.310546875,13.798828125 38.759765625,13.798828125 37.8955078125,17.900390625 35.9912109375,20.771484375 32.87109375,22.4560546875 28.41796875,22.998046875 27.509765625,22.998046875 25.13671875,22.8076171875 23.3349609375,22.2802734375 22.060546875,21.5185546875 21.26953125,20.625 21.064453125,20.625 19.86328125,23.6572265625 17.8564453125,25.83984375 14.94140625,27.158203125 10.986328125,27.59765625 10.25390625,27.59765625 7.54394435882568,27.447509765625 5.33203125,26.9970703125 3.56323218345642,26.217041015625 2.18261671066284,25.078125 1.168212890625,23.5693359375 0.498047351837158,21.6796875 0.124511778354645,19.37255859375 0,16.611328125 0,0z" />
    </g>
  </g>
</svg>