<?xml version="1.0" encoding="utf-8"?>
<!DOCTYPE svg PUBLIC "-//W3C//DTD SVG 1.1//EN" "http://www.w3.org/Graphics/SVG/1.1/DTD/svg11.dtd">
<svg width="26.42578125" height="42.71484375" xmlns="http://www.w3.org/2000/svg" xmlns:xlink="http://www.w3.org/1999/xlink" xmlns:xml="http://www.w3.org/XML/1998/namespace" version="1.1">
  <g>
    <g>
      <path style="fill:#FF0000;fill-opacity:1" d="M0.087890625,0L5.33203125,0 5.33203125,9.521484375 10.83984375,9.521484375 10.83984375,11.015625 7.8515625,15.732421875 6.3134765625,18.33984375 5.4345703125,20.44921875 5.0244140625,22.6171875 4.921875,25.341796875 4.921875,27.099609375 5.04913330078125,29.81689453125 5.430908203125,32.138671875 6.06719970703125,34.06494140625 6.9580078125,35.595703125 9.53979396820068,37.59521484375 13.212890625,38.26171875 16.79443359375,37.56591796875 19.39453125,35.478515625 20.3173809051514,33.885498046875 20.9765605926514,31.8896484375 21.3720684051514,29.490966796875 21.50390625,26.689453125 21.50390625,0 26.42578125,0 26.42578125,25.8984375 26.2097148895264,29.9349975585938 25.5615215301514,33.402099609375 24.4811992645264,36.2997436523438 22.96875,38.6279296875 21.0351543426514,40.4159545898438 18.6914043426514,41.693115234375 15.9374990463257,42.4594116210938 12.7734375,42.71484375 9.755859375,42.4822998046875 7.1484375,41.78466796875 4.951171875,40.6219482421875 3.1640625,38.994140625 1.77978515625,36.8701171875 0.791015625,34.21875 0.19775390625,31.0400390625 0,27.333984375 0,24.990234375 0.087890625,22.3388671875 0.46875,20.0830078125 1.3037109375,17.8564453125 2.724609375,15.263671875 5.33203125,11.015625 0.087890625,11.015625 0.087890625,0z" />
    </g>
  </g>
</svg>