<?xml version="1.0" encoding="utf-8"?>
<!DOCTYPE svg PUBLIC "-//W3C//DTD SVG 1.1//EN" "http://www.w3.org/Graphics/SVG/1.1/DTD/svg11.dtd">
<svg width="33.779296875" height="51.2109375" xmlns="http://www.w3.org/2000/svg" xmlns:xlink="http://www.w3.org/1999/xlink" xmlns:xml="http://www.w3.org/XML/1998/namespace" version="1.1">
  <g>
    <g>
      <path style="fill:#FF0000;fill-opacity:1" d="M4.45312452316284,0L5.5224609375,2.69531202316284 6.15234375,5.59570360183716 23.90625,5.59570360183716 24.5361328125,2.69531202316284 25.60546875,0 30.05859375,1.81640660762787 28.9599609375,5.068359375 28.623046875,8.5546875 28.681640625,9.814453125 17.4609375,9.814453125 23.671875,17.578125 26.0348491668701,18.1686401367188 28.0847148895264,19.149169921875 29.8214702606201,20.5197143554688 31.2451171875,22.2802734375 32.3538208007813,24.4491596221924 33.145751953125,27.0446796417236 33.6209106445313,30.0668354034424 33.779296875,33.515625 33.779296875,51.2109375 28.857421875,51.2109375 28.857421875,33.837890625 28.7255840301514,30.9274291992188 28.3300762176514,28.436279296875 27.6708965301514,26.3644409179688 26.748046875,24.7119140625 24.1113262176514,22.5476093292236 20.419921875,21.826171875 16.856689453125,22.5219745635986 14.3115234375,24.609375 13.4207143783569,26.202392578125 12.7844228744507,28.1982421875 12.4026479721069,30.596923828125 12.275390625,33.3984375 12.275390625,51.2109375 7.35351610183716,51.2109375 7.35351610183716,34.189453125 7.51373291015625,30.6417865753174 7.994384765625,27.5280780792236 8.79547119140625,24.8483295440674 9.9169921875,22.6025390625 11.3607778549194,20.7705688476563 13.1286611557007,19.332275390625 15.2206411361694,18.2876586914063 17.63671875,17.63671875 11.6015625,9.814453125 1.37695348262787,9.814453125 1.435546875,8.5546875 1.09863328933716,5.068359375 0,1.81640660762787 4.45312452316284,0z" />
    </g>
  </g>
</svg>