<?xml version="1.0" encoding="utf-8"?>
<!DOCTYPE svg PUBLIC "-//W3C//DTD SVG 1.1//EN" "http://www.w3.org/Graphics/SVG/1.1/DTD/svg11.dtd">
<svg width="45.87890625" height="42.392578125" xmlns="http://www.w3.org/2000/svg" xmlns:xlink="http://www.w3.org/1999/xlink" xmlns:xml="http://www.w3.org/XML/1998/namespace" version="1.1">
  <g>
    <g>
      <path style="fill:#FF0000;fill-opacity:1" d="M34.1015625,0L39.0234375,0 31.93359375,32.578125 44.501953125,32.578125 44.443359375,33.837890625 44.7802734375,37.32421875 45.87890625,40.576171875 41.42578125,42.392578125 40.3564453125,39.697265625 39.7265625,36.796875 16.2890625,36.796875 15.6591796875,39.697265625 14.58984375,42.392578125 10.13671875,40.576171875 11.2353515625,37.32421875 11.572265625,33.837890625 11.513671875,32.578125 27.01171875,32.578125 30,18.80859375 27.041015625,18.80859375 24.8657207489014,18.6328125 23.203125,18.10546875 22.0019512176514,17.34375 21.2109375,16.46484375 21.005859375,16.46484375 19.8193359375,19.2626953125 17.841796875,21.298828125 14.94140625,22.5439453125 10.986328125,22.96875 10.25390625,22.96875 7.5439453125,22.825927734375 5.33203125,22.3974609375 3.56323218345642,21.650390625 2.1826171875,20.5517578125 0.498047351837158,17.255859375 0.124511778354645,15.00732421875 0,12.3046875 0,0.029296875 4.921875,0.029296875 4.921875,11.982421875 5.1416015625,15.1025390625 5.9912109375,17.109375 7.763671875,18.193359375 10.751953125,18.515625 13.76953125,18.1787109375 15.7470703125,17.05078125 16.81640625,15 17.138671875,11.89453125 17.138671875,0.029296875 22.001953125,0.029296875 22.001953125,7.734375 22.236328125,10.7080078125 23.1005859375,12.7734375 24.84375,13.974609375 27.71484375,14.35546875 30.966796875,14.35546875 34.1015625,0z" />
    </g>
  </g>
</svg>