<?xml version="1.0" encoding="utf-8"?>
<!DOCTYPE svg PUBLIC "-//W3C//DTD SVG 1.1//EN" "http://www.w3.org/Graphics/SVG/1.1/DTD/svg11.dtd">
<svg width="34.1015625" height="45.99609375" xmlns="http://www.w3.org/2000/svg" xmlns:xlink="http://www.w3.org/1999/xlink" xmlns:xml="http://www.w3.org/XML/1998/namespace" version="1.1">
  <g>
    <g>
      <path style="fill:#FF0000;fill-opacity:1" d="M19.51171875,13.798828125L19.51171875,22.998046875 22.734375,22.998046875 25.7592754364014,22.708740234375 27.802734375,21.8408203125 28.96728515625,20.4016132354736 29.35546875,18.3984375 28.9599609375,16.3220233917236 27.7734375,14.8974609375 25.7446269989014,14.0734872817993 22.822265625,13.798828125 19.51171875,13.798828125z M11.3671875,13.798828125L8.34228515625,14.0881357192993 6.298828125,14.9560546875 5.13427734375,16.3952655792236 4.74609375,18.3984375 5.1416015625,20.4748554229736 6.328125,21.8994140625 8.35693359375,22.723388671875 11.279296875,22.998046875 14.58984375,22.998046875 14.58984375,13.798828125 11.3671875,13.798828125z M14.58984375,0L19.51171875,0 19.51171875,9.580078125 23.173828125,9.580078125 28.055419921875,10.107421875 31.4501953125,11.689453125 33.438720703125,14.3408212661743 34.1015625,18.076171875 33.394775390625,22.0751953125 31.2744140625,24.931640625 29.6676635742188,25.931396484375 27.674560546875,26.6455078125 25.2951049804688,27.073974609375 22.529296875,27.216796875 19.51171875,27.216796875 19.51171875,32.197265625 29.35546875,32.197265625 29.35546875,45.99609375 24.43359375,45.99609375 24.43359375,36.38671875 7.91015625,36.38671875 7.2802734375,39.287109375 6.2109375,41.982421875 1.75781273841858,40.166015625 2.85644555091858,36.9287109375 3.19335961341858,33.45703125 3.13476586341858,32.197265625 14.58984375,32.197265625 14.58984375,27.216796875 10.927734375,27.216796875 6.046142578125,26.689453125 2.65136790275574,25.107421875 0.662841975688934,22.4560546875 0,18.720703125 0.706787288188934,14.7216806411743 2.82714915275574,11.865234375 4.43389940261841,10.865478515625 6.427001953125,10.1513671875 8.80645751953125,9.722900390625 11.572265625,9.580078125 14.58984375,9.580078125 14.58984375,0z" />
    </g>
  </g>
</svg>