<?xml version="1.0" encoding="utf-8"?>
<!DOCTYPE svg PUBLIC "-//W3C//DTD SVG 1.1//EN" "http://www.w3.org/Graphics/SVG/1.1/DTD/svg11.dtd">
<svg width="40.5175781250002" height="51.591796875" xmlns="http://www.w3.org/2000/svg" xmlns:xlink="http://www.w3.org/1999/xlink" xmlns:xml="http://www.w3.org/XML/1998/namespace" version="1.1">
  <g>
    <g>
      <path style="fill:#FF0000;fill-opacity:1" d="M32.28515625,41.42578125L30.63720703125,41.6015625 29.560546875,42.12890625 28.96728515625,42.9931640625 28.76953125,44.1796875 28.970947265625,45.428466796875 29.5751953125,46.3037109375 30.662841796875,46.820068359375 32.314453125,46.9921875 33.96240234375,46.81640625 35.0390625,46.2890625 35.63232421875,45.4248046875 35.830078125,44.23828125 35.628662109375,42.989501953125 35.0244140625,42.1142578125 33.936767578125,41.597900390625 32.28515625,41.42578125z M19.51171875,19.775390625L19.51171875,28.974609375 22.734375,28.974609375 25.7592754364014,28.685302734375 27.802734375,27.8173828125 28.96728515625,26.3781757354736 29.35546875,24.375 28.9599609375,22.2985858917236 27.7734375,20.8740234375 25.7446269989014,20.0500507354736 22.822265625,19.775390625 19.51171875,19.775390625z M11.3671875,19.775390625L8.34228515625,20.0646991729736 6.298828125,20.9326171875 5.13427734375,22.3718280792236 4.74609375,24.375 5.1416015625,26.4514179229736 6.328125,27.8759765625 8.35693359375,28.699951171875 11.279296875,28.974609375 14.58984375,28.974609375 14.58984375,19.775390625 11.3671875,19.775390625z M4.775390625,0L5.8447265625,2.69531226158142 6.474609375,5.59570264816284 27.626953125,5.59570264816284 28.2568359375,2.69531226158142 29.326171875,0 33.779296875,1.81640636920929 32.6806640625,5.06835889816284 32.34375,8.5546875 32.40234375,9.814453125 19.51171875,9.814453125 19.51171875,15.556640625 23.173828125,15.556640625 28.055419921875,16.083984375 31.4501953125,17.666015625 33.438720703125,20.3173828125 34.1015625,24.052734375 33.394775390625,28.0517578125 31.2744140625,30.908203125 29.6676635742188,31.907958984375 27.674560546875,32.6220703125 25.2951049804688,33.050537109375 22.529296875,33.193359375 19.51171875,33.193359375 19.51171875,37.265625 32.2265625,37.265625 35.95458984375,37.6904296875 38.525390625,38.96484375 40.01953125,41.09619140625 40.517578125,44.091796875 40.01953125,47.171630859375 38.525390625,49.3798828125 35.96923828125,50.709228515625 32.28515625,51.15234375 28.4326171875,50.654296875 25.9130859375,49.27734375 24.55078125,47.2265625 24.140625,44.70703125 24.287109375,43.125 24.755859375,41.484375 19.51171875,41.484375 19.51171875,51.591796875 14.58984375,51.591796875 14.58984375,33.193359375 10.927734375,33.193359375 6.04614210128784,32.666015625 2.65136694908142,31.083984375 0.662841498851776,28.4326171875 0,24.697265625 0.706786870956421,20.6982421875 2.82714867591858,17.841796875 4.43389892578125,16.842041015625 6.427001953125,16.1279296875 8.80645751953125,15.699462890625 11.572265625,15.556640625 14.58984375,15.556640625 14.58984375,9.814453125 1.69921851158142,9.814453125 1.75781273841858,8.5546875 1.42089819908142,5.06835889816284 0.322265625,1.81640636920929 4.775390625,0z" />
    </g>
  </g>
</svg>