<?xml version="1.0" encoding="utf-8"?>
<!DOCTYPE svg PUBLIC "-//W3C//DTD SVG 1.1//EN" "http://www.w3.org/Graphics/SVG/1.1/DTD/svg11.dtd">
<svg width="42.12890625" height="45.99609375" xmlns="http://www.w3.org/2000/svg" xmlns:xlink="http://www.w3.org/1999/xlink" xmlns:xml="http://www.w3.org/XML/1998/namespace" version="1.1">
  <g>
    <g>
      <path style="fill:#FF0000;fill-opacity:1" d="M10.751953125,0L15.673828125,0 15.673828125,9.31640625 20.0830059051514,10.6201171875 23.349609375,13.359375 24.5489482879639,15.2819833755493 25.4516582489014,17.5927753448486 26.0577373504639,20.2917499542236 26.3671875,23.37890625 40.751953125,23.37890625 40.693359375,24.638671875 41.0302734375,28.125 42.12890625,31.376953125 37.67578125,33.193359375 36.6064453125,30.498046875 35.9765625,27.59765625 26.42578125,27.59765625 26.42578125,45.99609375 21.50390625,45.99609375 21.50390625,25.6640625 21.3720684051514,22.7536029815674 20.9765605926514,20.2624530792236 20.3173809051514,18.1906147003174 19.39453125,16.5380859375 16.7578125,14.3737802505493 13.06640625,13.65234375 9.50317287445068,14.3481454849243 6.9580078125,16.435546875 6.06719970703125,18.0285663604736 5.430908203125,20.0244159698486 5.04913330078125,22.4230976104736 4.921875,25.224609375 4.921875,45.99609375 0,45.99609375 0,26.015625 0.16754150390625,22.4020404815674 0.670166075229645,19.2370624542236 1.50787377357483,16.5206928253174 2.68066453933716,14.2529296875 4.19036865234375,12.4172973632813 6.038818359375,10.997314453125 8.22601318359375,9.99298095703125 10.751953125,9.404296875 10.751953125,0z" />
    </g>
  </g>
</svg>