<?xml version="1.0" encoding="utf-8"?>
<!DOCTYPE svg PUBLIC "-//W3C//DTD SVG 1.1//EN" "http://www.w3.org/Graphics/SVG/1.1/DTD/svg11.dtd">
<svg width="26.42578125" height="45.99609375" xmlns="http://www.w3.org/2000/svg" xmlns:xlink="http://www.w3.org/1999/xlink" xmlns:xml="http://www.w3.org/XML/1998/namespace" version="1.1">
  <g>
    <g>
      <path style="fill:#FF0000;fill-opacity:1" d="M2.75390625,0L8.5546875,0 14.853515625,9.2578125 17.5479106903076,9.6697998046875 19.8889141082764,10.52490234375 21.8765239715576,11.8231201171875 23.5107421875,13.564453125 24.7860698699951,15.7727060317993 25.6970195770264,18.4716815948486 26.2435894012451,21.6613788604736 26.42578125,25.341796875 26.42578125,45.99609375 21.50390625,45.99609375 21.50390625,25.6640625 21.3720684051514,22.7536029815674 20.9765605926514,20.2624530792236 20.3173809051514,18.1906147003174 19.39453125,16.5380859375 16.7578125,14.3737802505493 13.06640625,13.65234375 9.50317287445068,14.3481454849243 6.9580078125,16.435546875 6.06719970703125,18.0285663604736 5.430908203125,20.0244159698486 5.04913330078125,22.4230976104736 4.921875,25.224609375 4.921875,45.99609375 0,45.99609375 0,26.015625 0.146484375,22.6235980987549 0.5859375,19.6252460479736 1.318359375,17.0205707550049 2.34375,14.8095703125 5.2734375,11.510009765625 9.375,9.66796875 2.75390625,0z" />
    </g>
  </g>
</svg>