<?xml version="1.0" encoding="utf-8"?>
<!DOCTYPE svg PUBLIC "-//W3C//DTD SVG 1.1//EN" "http://www.w3.org/Graphics/SVG/1.1/DTD/svg11.dtd">
<svg width="28.8281250000027" height="46.9921875" xmlns="http://www.w3.org/2000/svg" xmlns:xlink="http://www.w3.org/1999/xlink" xmlns:xml="http://www.w3.org/XML/1998/namespace" version="1.1">
  <g>
    <g>
      <path style="fill:#FF0000;fill-opacity:1" d="M25.517578125,0L27.421875,0 27.36328125,1.435546875 27.7001953125,4.921875 28.798828125,8.173828125 24.345703125,9.990234375 23.2763671875,7.32421875 22.646484375,4.39453125 16.9482421875,4.98046875 12.4365234375,6.6064453125 9.0380859375,9.5654296875 7.74169921875,11.6235370635986 6.69433546066284,14.1357421875 5.89233350753784,17.1203632354736 5.33203077316284,20.595703125 5.00244092941284,24.609375 4.89257764816284,29.208984375 4.99511671066284,33.0615234375 5.24414014816284,37.177734375 27.451171875,37.177734375 27.392578125,38.4375 27.7294921875,41.923828125 28.828125,45.17578125 24.375,46.9921875 23.3056640625,44.296875 22.67578125,41.396484375 0.615233898162842,41.396484375 0.190428733825684,35.68359375 0,30.205078125 0.208739817142487,23.88427734375 0.834960460662842,18.515625 1.85302662849426,14.0112323760986 3.2373046875,10.283203125 4.97680616378784,7.27294921875 7.06054639816284,4.921875 9.46288871765137,3.134765625 12.158203125,1.81640625 18.369140625,0.380859375 25.517578125,0z" />
    </g>
  </g>
</svg>