<?xml version="1.0" encoding="utf-8"?>
<!DOCTYPE svg PUBLIC "-//W3C//DTD SVG 1.1//EN" "http://www.w3.org/Graphics/SVG/1.1/DTD/svg11.dtd">
<svg width="56.3964843750001" height="42.01171875" xmlns="http://www.w3.org/2000/svg" xmlns:xlink="http://www.w3.org/1999/xlink" xmlns:xml="http://www.w3.org/XML/1998/namespace" version="1.1">
  <g>
    <g>
      <path style="fill:#FF0000;fill-opacity:1" d="M19.51171875,14.4140625L19.51171875,23.61328125 22.734375,23.61328125 25.7592754364014,23.323974609375 27.802734375,22.4560546875 28.96728515625,21.016845703125 29.35546875,19.013671875 28.9599609375,16.9372577667236 27.7734375,15.5126953125 25.7446269989014,14.6887226104736 22.822265625,14.4140625 19.51171875,14.4140625z M11.3671875,14.4140625L8.34228515625,14.7033710479736 6.298828125,15.5712890625 5.13427734375,17.0104999542236 4.74609375,19.013671875 5.1416015625,21.090087890625 6.328125,22.5146484375 8.35693359375,23.338623046875 11.279296875,23.61328125 14.58984375,23.61328125 14.58984375,14.4140625 11.3671875,14.4140625z M14.58984375,0L19.51171875,0 19.51171875,10.1953125 23.173828125,10.1953125 26.9567852020264,10.4809589385986 29.8681640625,11.337890625 31.981201171875,12.7734394073486 33.369140625,14.794921875 40.166015625,14.794921875 40.166015625,9.521484375 45.087890625,9.521484375 45.087890625,19.6875 55.01953125,19.6875 54.9609375,20.947265625 55.2978515625,24.43359375 56.396484375,27.685546875 51.85546875,29.501953125 50.7861328125,26.806640625 50.15625,23.90625 40.166015625,23.90625 40.166015625,19.013671875 34.1015625,19.013671875 33.292236328125,22.880859375 31.1572265625,25.634765625 29.5687866210938,26.5960693359375 27.601318359375,27.28271484375 25.2548217773438,27.6947021484375 22.529296875,27.83203125 19.51171875,27.83203125 19.51171875,42.01171875 14.58984375,42.01171875 14.58984375,27.83203125 10.927734375,27.83203125 6.046142578125,27.3046875 2.6513671875,25.72265625 0.66284167766571,23.0712890625 0,19.3359375 0.706787109375,15.3369159698486 2.82714891433716,12.48046875 4.43389892578125,11.4807138442993 6.427001953125,10.7666034698486 8.80645751953125,10.3381357192993 11.572265625,10.1953125 14.58984375,10.1953125 14.58984375,0z" />
    </g>
  </g>
</svg>