<?xml version="1.0" encoding="utf-8"?>
<!DOCTYPE svg PUBLIC "-//W3C//DTD SVG 1.1//EN" "http://www.w3.org/Graphics/SVG/1.1/DTD/svg11.dtd">
<svg width="42.568359375" height="55.810546875" xmlns="http://www.w3.org/2000/svg" xmlns:xlink="http://www.w3.org/1999/xlink" xmlns:xml="http://www.w3.org/XML/1998/namespace" version="1.1">
  <g>
    <g>
      <path style="fill:#FF0000;fill-opacity:1" d="M27.978515625,28.212890625L27.978515625,37.412109375 31.201171875,37.412109375 34.22607421875,37.122802734375 36.26953125,36.2548828125 37.43408203125,34.815673828125 37.822265625,32.8125 37.4267578125,30.7360858917236 36.240234375,29.3115234375 34.21142578125,28.4875507354736 31.2890625,28.212890625 27.978515625,28.212890625z M19.833984375,28.212890625L16.8090801239014,28.5021991729736 14.765625,29.3701171875 13.60107421875,30.8093280792236 13.212890625,32.8125 13.6083984375,34.888916015625 14.794921875,36.3134765625 16.8237285614014,37.137451171875 19.74609375,37.412109375 23.056640625,37.412109375 23.056640625,28.212890625 19.833984375,28.212890625z M4.453125,0L5.52245998382568,2.6953125 6.15234327316284,5.595703125 23.90625,5.595703125 24.5361328125,2.6953125 25.60546875,0 30.05859375,1.81640672683716 28.9599609375,5.068359375 28.623046875,8.5546875 28.681640625,9.814453125 17.490234375,9.814453125 17.490234375,13.798828125 27.978515625,13.798828125 27.978515625,23.994140625 31.640625,23.994140625 36.522216796875,24.5214862823486 39.9169921875,26.103515625 41.905517578125,28.7548847198486 42.568359375,32.490234375 41.861572265625,36.4892578125 39.7412109375,39.345703125 38.1344604492188,40.345458984375 36.141357421875,41.0595703125 33.7619018554688,41.488037109375 30.99609375,41.630859375 27.978515625,41.630859375 27.978515625,55.810546875 23.056640625,55.810546875 23.056640625,41.630859375 19.39453125,41.630859375 14.512939453125,41.103515625 11.1181640625,39.521484375 9.129638671875,36.8701171875 8.46679592132568,33.134765625 9.173583984375,29.1357440948486 11.2939453125,26.279296875 12.9006958007813,25.2795429229736 14.893798828125,24.5654315948486 17.2732543945313,24.1369647979736 20.0390625,23.994140625 23.056640625,23.994140625 23.056640625,18.017578125 12.568359375,18.017578125 12.568359375,9.814453125 1.37695276737213,9.814453125 1.43554615974426,8.5546875 1.09863221645355,5.068359375 0,1.81640672683716 4.453125,0z" />
    </g>
  </g>
</svg>