<?xml version="1.0" encoding="utf-8"?>
<!DOCTYPE svg PUBLIC "-//W3C//DTD SVG 1.1//EN" "http://www.w3.org/Graphics/SVG/1.1/DTD/svg11.dtd">
<svg width="37.5" height="46.69921875" xmlns="http://www.w3.org/2000/svg" xmlns:xlink="http://www.w3.org/1999/xlink" xmlns:xml="http://www.w3.org/XML/1998/namespace" version="1.1">
  <g>
    <g>
      <path style="fill:#FF0000;fill-opacity:1" d="M19.013671875,4.39453125L16.6552734375,4.647216796875 15.087890625,5.4052734375 14.208984375,6.602783203125 13.916015625,8.173828125 14.296875,10.01953125 15.2783203125,11.2646484375 16.6259765625,12.1728515625 18.134765625,13.0078125 21.1669921875,12.1728515625 22.9541015625,11.0888671875 23.7890625,9.78515625 23.994140625,8.3203125 23.7084941864014,6.62109375 22.8515625,5.390625 21.3207988739014,4.6435546875 19.013671875,4.39453125z M19.189453125,0L21.7199687957764,0.157470703125 23.8037109375,0.6298828125 26.806640625,2.34374952316284 28.4326171875,4.892578125 28.916015625,8.02734375 28.4216289520264,11.12548828125 26.9384765625,13.447265625 24.4372539520264,15.1025409698486 20.888671875,16.201171875 21.26953125,18.720703125 21.26953125,19.482421875 36.123046875,19.482421875 36.064453125,20.7421875 36.4013671875,24.228515625 37.5,27.48046875 33.046875,29.296875 31.9775390625,26.6015625 31.34765625,23.701171875 21.26953125,23.701171875 21.26953125,46.69921875 16.34765625,46.69921875 16.34765625,23.701171875 6.15234375,23.701171875 5.5224609375,26.6015625 4.453125,29.296875 0,27.48046875 1.09863328933716,24.228515625 1.435546875,20.7421875 1.376953125,19.482421875 16.40625,19.482421875 16.40625,18.837890625 15.8642578125,17.34375 14.4873046875,16.2744140625 12.7001953125,15.1904296875 10.9130859375,13.740234375 9.5361328125,11.572265625 8.994140625,8.349609375 9.627685546875,4.779052734375 11.5283203125,2.15332078933716 14.710693359375,0.538330137729645 19.189453125,0z" />
    </g>
  </g>
</svg>