<?xml version="1.0" encoding="utf-8"?>
<!DOCTYPE svg PUBLIC "-//W3C//DTD SVG 1.1//EN" "http://www.w3.org/Graphics/SVG/1.1/DTD/svg11.dtd">
<svg width="43.9453125" height="51.2109375" xmlns="http://www.w3.org/2000/svg" xmlns:xlink="http://www.w3.org/1999/xlink" xmlns:xml="http://www.w3.org/XML/1998/namespace" version="1.1">
  <g>
    <g>
      <path style="fill:#FF0000;fill-opacity:1" d="M15.322265625,14.560546875L18.1512432098389,14.7747802734375 20.6323223114014,15.41748046875 22.7655010223389,16.4886474609375 24.55078125,17.98828125 25.9863262176514,19.9365253448486 27.0703105926514,22.3535175323486 27.8027324676514,25.2392597198486 28.18359375,28.59375 42.568359375,28.59375 42.509765625,29.853515625 42.8466796875,33.33984375 43.9453125,36.591796875 39.4921875,38.408203125 38.4228515625,35.712890625 37.79296875,32.8125 28.2421875,32.8125 28.2421875,51.2109375 23.3203125,51.2109375 23.3203125,31.025390625 23.1884746551514,28.1149311065674 22.7929668426514,25.6237812042236 22.1337871551514,23.5519428253174 21.2109375,21.8994140625 18.57421875,19.735107421875 14.8828125,19.013671875 11.3195791244507,19.70947265625 8.7744140625,21.796875 7.88360595703125,23.3898944854736 7.247314453125,25.3857440948486 6.86553955078125,27.7844257354736 6.73828125,30.5859375 6.73828125,51.2109375 1.81640672683716,51.2109375 1.81640672683716,31.376953125 2.02789330482483,27.3403949737549 2.662353515625,23.8732929229736 3.71978759765625,20.9756488800049 5.2001953125,18.6474609375 7.10174560546875,16.8594360351563 9.422607421875,15.582275390625 12.1627807617188,14.8159790039063 15.322265625,14.560546875z M4.45312452316284,0L5.5224609375,2.69531202316284 6.15234375,5.59570360183716 23.90625,5.59570360183716 24.5361328125,2.69531202316284 25.60546875,0 30.05859375,1.81640660762787 28.9599609375,5.068359375 28.623046875,8.5546875 28.6376953125,9.111328125 28.681640625,9.814453125 1.37695360183716,9.814453125 1.435546875,8.5546875 1.09863233566284,5.068359375 0,1.81640660762787 4.45312452316284,0z" />
    </g>
  </g>
</svg>