<?xml version="1.0" encoding="utf-8"?>
<!DOCTYPE svg PUBLIC "-//W3C//DTD SVG 1.1//EN" "http://www.w3.org/Graphics/SVG/1.1/DTD/svg11.dtd">
<svg width="39.873046875" height="51.591796875" xmlns="http://www.w3.org/2000/svg" xmlns:xlink="http://www.w3.org/1999/xlink" xmlns:xml="http://www.w3.org/XML/1998/namespace" version="1.1">
  <g>
    <g>
      <path style="fill:#FF0000;fill-opacity:1" d="M0,0L4.921875,0 4.921875,13.9453125 6.74194288253784,11.868896484375 9.03808498382568,10.3857421875 11.8103017807007,9.495849609375 15.05859375,9.19921875 17.9434185028076,9.444580078125 20.4455547332764,10.1806640625 22.5650005340576,11.407470703125 24.3017578125,13.125 25.6539916992188,15.3607187271118 26.619873046875,18.1420917510986 27.1994018554688,21.4691181182861 27.392578125,25.341796875 27.392578125,41.77734375 38.49609375,41.77734375 38.4375,43.037109375 38.7744140625,46.5234375 39.873046875,49.775390625 35.419921875,51.591796875 34.3505859375,48.896484375 33.720703125,45.99609375 11.748046875,45.99609375 11.1181640625,48.896484375 10.048828125,51.591796875 5.595703125,49.775390625 6.6943359375,46.5234375 7.03125,43.037109375 6.97265625,41.77734375 22.470703125,41.77734375 22.470703125,25.6640625 22.3480205535889,22.7536029815674 21.9799785614014,20.2624530792236 21.3665752410889,18.1906147003174 20.5078125,16.5380859375 18.05419921875,14.3737802505493 14.619140625,13.65234375 11.312255859375,14.3481454849243 8.9501953125,16.435546875 8.12347316741943,18.0285663604736 7.53295803070068,20.0244159698486 7.17864942550659,22.4230976104736 7.060546875,25.224609375 7.060546875,35.09765625 2.138671875,35.09765625 2.138671875,26.015625 2.51220655441284,20.7202167510986 3.6328125,16.435546875 0,16.435546875 0,0z" />
    </g>
  </g>
</svg>