<?xml version="1.0" encoding="utf-8"?>
<!DOCTYPE svg PUBLIC "-//W3C//DTD SVG 1.1//EN" "http://www.w3.org/Graphics/SVG/1.1/DTD/svg11.dtd">
<svg width="37.5" height="47.607421875" xmlns="http://www.w3.org/2000/svg" xmlns:xlink="http://www.w3.org/1999/xlink" xmlns:xml="http://www.w3.org/XML/1998/namespace" version="1.1">
  <g>
    <g>
      <path style="fill:#FF0000;fill-opacity:1" d="M21.26953125,38.02734375L21.26953125,43.388671875 24.345703125,43.388671875 26.1437969207764,43.22021484375 27.3193359375,42.71484375 27.9675273895264,41.8798828125 28.18359375,40.72265625 27.9492168426514,39.5068359375 27.24609375,38.671875 25.9936504364014,38.1884765625 24.111328125,38.02734375 21.26953125,38.02734375z M6.50390625,0L7.5732421875,2.6953125 8.203125,5.595703125 29.384765625,5.595703125 30.0146484375,2.6953125 31.083984375,0 35.537109375,1.81640625 34.4384765625,5.068359375 34.1015625,8.5546875 34.16015625,9.814453125 21.26953125,9.814453125 21.26953125,20.390625 36.123046875,20.390625 36.064453125,21.650390625 36.4013671875,25.13671875 37.5,28.388671875 33.046875,30.205078125 31.9775390625,27.509765625 31.34765625,24.609375 21.26953125,24.609375 21.26953125,33.80859375 24.19921875,33.80859375 28.1103496551514,34.229736328125 30.8203125,35.4931640625 32.40234375,37.598876953125 32.9296875,40.546875 32.38037109375,43.64501953125 30.732421875,45.849609375 27.9125957489014,47.16796875 23.84765625,47.607421875 16.34765625,47.607421875 16.34765625,24.609375 6.15234375,24.609375 5.5224609375,27.509765625 4.453125,30.205078125 0,28.388671875 1.0986328125,25.13671875 1.43554663658142,21.650390625 1.376953125,20.390625 16.34765625,20.390625 16.34765625,9.814453125 3.427734375,9.814453125 3.486328125,8.5546875 3.14941358566284,5.068359375 2.05078077316284,1.81640625 6.50390625,0z" />
    </g>
  </g>
</svg>