<?xml version="1.0" encoding="utf-8"?>
<!DOCTYPE svg PUBLIC "-//W3C//DTD SVG 1.1//EN" "http://www.w3.org/Graphics/SVG/1.1/DTD/svg11.dtd">
<svg width="37.5" height="47.607421875" xmlns="http://www.w3.org/2000/svg" xmlns:xlink="http://www.w3.org/1999/xlink" xmlns:xml="http://www.w3.org/XML/1998/namespace" version="1.1">
  <g>
    <g>
      <path style="fill:#FF0000;fill-opacity:1" d="M6.533203125,0L7.6025390625,2.6953125 8.232421875,5.595703125 21.26953125,5.595703125 21.26953125,20.390625 36.123046875,20.390625 36.064453125,21.650390625 36.4013671875,25.13671875 37.5,28.388671875 33.046875,30.205078125 31.9775390625,27.509765625 31.34765625,24.609375 21.26953125,24.609375 21.26953125,47.607421875 16.34765625,47.607421875 16.34765625,24.609375 6.15234375,24.609375 5.5224609375,27.509765625 4.453125,30.205078125 0,28.388671875 1.0986328125,25.13671875 1.43554639816284,21.650390625 1.376953125,20.390625 16.34765625,20.390625 16.34765625,9.814453125 3.45703125,9.814453125 3.51562547683716,8.5546875 3.1787109375,5.068359375 2.080078125,1.81640625 6.533203125,0z" />
    </g>
  </g>
</svg>