<?xml version="1.0" encoding="utf-8"?>
<!DOCTYPE svg PUBLIC "-//W3C//DTD SVG 1.1//EN" "http://www.w3.org/Graphics/SVG/1.1/DTD/svg11.dtd">
<svg width="39.375" height="51.2109375" xmlns="http://www.w3.org/2000/svg" xmlns:xlink="http://www.w3.org/1999/xlink" xmlns:xml="http://www.w3.org/XML/1998/namespace" version="1.1">
  <g>
    <g>
      <path style="fill:#FF0000;fill-opacity:1" d="M4.453125,0L5.5224609375,2.69531202316284 6.15234375,5.59570360183716 23.90625,5.59570360183716 24.5361328125,2.69531202316284 25.60546875,0 30.05859375,1.81640660762787 28.9599609375,5.068359375 28.623046875,8.5546875 28.681640625,9.814453125 16.904296875,9.814453125 16.904296875,19.16015625 18.724365234375,17.083740234375 21.0205078125,15.6005859375 23.792724609375,14.710693359375 27.041015625,14.4140625 29.9258422851563,14.659423828125 32.427978515625,15.3955078125 34.5474243164063,16.622314453125 36.2841796875,18.33984375 37.6364135742188,20.5755634307861 38.602294921875,23.3569355010986 39.1818237304688,26.6839618682861 39.375,30.556640625 39.375,51.2109375 34.453125,51.2109375 34.453125,30.87890625 34.3304443359375,27.9684467315674 33.96240234375,25.4772968292236 33.3489990234375,23.4054584503174 32.490234375,21.7529296875 30.03662109375,19.588623046875 26.6015625,18.8671875 23.6352519989014,19.390869140625 21.416015625,20.9619140625 19.92919921875,23.6608905792236 19.16015625,27.568359375 24.580078125,27.568359375 24.580078125,29.0625 21.591796875,33.779296875 20.0537109375,36.38671875 19.1748046875,38.49609375 18.7646484375,40.6640625 18.662109375,43.388671875 18.662109375,51.2109375 13.740234375,51.2109375 13.740234375,43.037109375 13.828125,40.3857421875 14.208984375,38.1298828125 15.0439453125,35.9033203125 16.46484375,33.310546875 19.072265625,29.0625 14.1796875,29.0625 14.677734375,24.9609375 15.5859375,21.650390625 11.982421875,21.650390625 11.982421875,9.814453125 1.37695336341858,9.814453125 1.435546875,8.5546875 1.09863317012787,5.068359375 0,1.81640660762787 4.453125,0z" />
    </g>
  </g>
</svg>