<?xml version="1.0" encoding="utf-8"?>
<!DOCTYPE svg PUBLIC "-//W3C//DTD SVG 1.1//EN" "http://www.w3.org/Graphics/SVG/1.1/DTD/svg11.dtd">
<svg width="37.001953125" height="51.796875" xmlns="http://www.w3.org/2000/svg" xmlns:xlink="http://www.w3.org/1999/xlink" xmlns:xml="http://www.w3.org/XML/1998/namespace" version="1.1">
  <g>
    <g>
      <path style="fill:#FF0000;fill-opacity:1" d="M27.0703125,17.841796875L24.7302227020264,18.094482421875 23.2177734375,18.8525390625 22.3937969207764,20.093994140625 22.119140625,21.796875 22.4011211395264,23.5583515167236 23.2470703125,24.7998046875 24.7668437957764,25.5358905792236 27.0703125,25.78125 29.417724609375,25.5322284698486 30.9521484375,24.78515625 31.798095703125,23.5473651885986 32.080078125,21.826171875 31.790771484375,20.04638671875 30.9228515625,18.80859375 29.381103515625,18.08349609375 27.0703125,17.841796875z M4.45312595367432,0L5.5224609375,2.69531226158142 6.15234375,5.595703125 27.333984375,5.595703125 27.9638671875,2.69531226158142 29.033203125,0 33.486328125,1.81640613079071 32.3876953125,5.068359375 32.05078125,8.5546875 32.109375,9.814453125 18.6328125,9.814453125 18.6328125,14.970703125 19.50439453125,14.8974609375 20.947265625,14.794921875 23.7597637176514,13.7841796875 27.275390625,13.447265625 29.783935546875,13.60107421875 31.8603515625,14.0625 34.86328125,15.7763671875 36.50390625,18.3984375 37.001953125,21.708984375 36.38671875,25.3125019073486 34.541015625,27.978515625 31.41357421875,29.62646484375 26.953125,30.17578125 24.4445781707764,30.02197265625 22.3681640625,29.560546875 19.3505859375,27.8466796875 17.6953125,25.2392578125 17.197265625,21.943359375 17.51953125,19.3359375 14.600830078125,19.81201171875 12.1142578125,20.537109375 10.0415029525757,21.5368671417236 8.3642578125,22.8369140625 7.0751953125,24.4592304229736 6.1669921875,26.42578125 5.628662109375,28.76220703125 5.44921875,31.494140625 5.625,33.3984375 20.126953125,33.3984375 20.126953125,51.796875 15.205078125,51.796875 15.205078125,37.705078125 1.08398461341858,37.705078125 0.717773675918579,35.0390625 0.5859375,32.87109375 0.8349609375,28.9599609375 1.58203101158142,25.6640625 2.76855492591858,22.9211444854736 4.33593845367432,20.6689453125 6.2548828125,18.8671875 8.49609375,17.4755859375 13.7109375,15.703125 13.7109375,9.814453125 1.37695336341858,9.814453125 1.43554711341858,8.5546875 1.09863328933716,5.068359375 0,1.81640613079071 4.45312595367432,0z" />
    </g>
  </g>
</svg>