<?xml version="1.0" encoding="utf-8"?>
<!DOCTYPE svg PUBLIC "-//W3C//DTD SVG 1.1//EN" "http://www.w3.org/Graphics/SVG/1.1/DTD/svg11.dtd">
<svg width="39.90234375" height="51.2109375" xmlns="http://www.w3.org/2000/svg" xmlns:xlink="http://www.w3.org/1999/xlink" xmlns:xml="http://www.w3.org/XML/1998/namespace" version="1.1">
  <g>
    <g>
      <path style="fill:#FF0000;fill-opacity:1" d="M28.2421875,41.630859375L28.2421875,46.9921875 31.318359375,46.9921875 33.116455078125,46.82373046875 34.2919921875,46.318359375 34.940185546875,45.4833984375 35.15625,44.326171875 34.921875,43.1103515625 34.21875,42.275390625 32.96630859375,41.7919921875 31.083984375,41.630859375 28.2421875,41.630859375z M15.322265625,14.560546875L18.3444194793701,14.805908203125 20.9655742645264,15.5419921875 23.1857280731201,16.768798828125 25.0048828125,18.486328125 26.4212017059326,20.7220478057861 27.4328594207764,23.5034198760986 28.0398540496826,26.8304462432861 28.2421875,30.703125 28.2421875,37.412109375 31.171875,37.412109375 35.0830078125,37.833251953125 37.79296875,39.0966796875 39.375,41.202392578125 39.90234375,44.150390625 39.35302734375,47.24853515625 37.705078125,49.453125 34.88525390625,50.771484375 30.8203125,51.2109375 23.3203125,51.2109375 23.3203125,31.025390625 23.1884746551514,28.1149311065674 22.7929668426514,25.6237812042236 22.1337871551514,23.5519428253174 21.2109375,21.8994140625 18.57421875,19.735107421875 14.8828125,19.013671875 11.3195791244507,19.70947265625 8.7744140625,21.796875 7.88360595703125,23.3898944854736 7.247314453125,25.3857440948486 6.86553955078125,27.7844257354736 6.73828125,30.5859375 6.73828125,51.2109375 1.81640672683716,51.2109375 1.81640672683716,31.376953125 2.02789330482483,27.3403949737549 2.662353515625,23.8732929229736 3.71978759765625,20.9756488800049 5.2001953125,18.6474609375 7.10174560546875,16.8594360351563 9.422607421875,15.582275390625 12.1627807617188,14.8159790039063 15.322265625,14.560546875z M4.45312547683716,0L5.5224609375,2.69531202316284 6.15234375,5.59570360183716 23.90625,5.59570360183716 24.5361328125,2.69531202316284 25.60546875,0 30.05859375,1.81640660762787 28.9599609375,5.068359375 28.623046875,8.5546875 28.6376953125,9.111328125 28.681640625,9.814453125 1.37695360183716,9.814453125 1.435546875,8.5546875 1.09863328933716,5.068359375 0,1.81640660762787 4.45312547683716,0z" />
    </g>
  </g>
</svg>