<?xml version="1.0" encoding="utf-8"?>
<!DOCTYPE svg PUBLIC "-//W3C//DTD SVG 1.1//EN" "http://www.w3.org/Graphics/SVG/1.1/DTD/svg11.dtd">
<svg width="27.978515625" height="47.373046875" xmlns="http://www.w3.org/2000/svg" xmlns:xlink="http://www.w3.org/1999/xlink" xmlns:xml="http://www.w3.org/XML/1998/namespace" version="1.1">
  <g>
    <g>
      <path style="fill:#FF0000;fill-opacity:1" d="M7.119140625,0L8.1884765625,2.69531202316284 8.818359375,5.595703125 17.9296875,5.595703125 11.865234375,15.05859375 20.537109375,15.05859375 16.69921875,19.7314453125 13.359375,24.375 22.3828125,24.375 27.978515625,47.373046875 23.056640625,47.373046875 18.486328125,28.681640625 10.751953125,28.681640625 8.64990234375,33.013916015625 6.97265625,37.5146484375 5.7275390625,42.271728515625 4.921875,47.373046875 0,47.373046875 1.66992163658142,39.287109375 4.1015625,32.1826171875 7.470703125,25.5908203125 11.982421875,19.013671875 4.189453125,19.013671875 10.166015625,9.609375 4.04296875,9.609375 4.1015625,8.349609375 3.76464819908142,4.9658203125 2.66601538658142,1.81640625 7.119140625,0z" />
    </g>
  </g>
</svg>