<?xml version="1.0" encoding="utf-8"?>
<!DOCTYPE svg PUBLIC "-//W3C//DTD SVG 1.1//EN" "http://www.w3.org/Graphics/SVG/1.1/DTD/svg11.dtd">
<svg width="36.6796875" height="47.373046875" xmlns="http://www.w3.org/2000/svg" xmlns:xlink="http://www.w3.org/1999/xlink" xmlns:xml="http://www.w3.org/XML/1998/namespace" version="1.1">
  <g>
    <g>
      <path style="fill:#FF0000;fill-opacity:1" d="M25.283203125,37.79296875L24.111328125,43.154296875 28.095703125,43.154296875 29.893798828125,42.98583984375 31.0693359375,42.48046875 31.717529296875,41.6455078125 31.93359375,40.48828125 31.69921875,39.2724609375 30.99609375,38.4375 29.74365234375,37.9541015625 27.861328125,37.79296875 25.283203125,37.79296875z M4.453125,0L5.5224609375,2.69531202316284 6.15234375,5.595703125 26.8359375,5.595703125 27.4658203125,2.69531202316284 28.53515625,0 32.98828125,1.81640625 31.8896484375,5.068359375 31.552734375,8.5546875 31.611328125,9.814453125 18.369140625,9.814453125 18.369140625,17.9296875 29.58984375,17.9296875 26.19140625,33.57421875 27.94921875,33.57421875 31.8603515625,33.995361328125 34.5703125,35.2587890625 36.15234375,37.364501953125 36.6796875,40.3125 36.13037109375,43.41064453125 34.482421875,45.615234375 31.66259765625,46.93359375 27.59765625,47.373046875 18.28125,47.373046875 23.73046875,22.265625 13.447265625,22.265625 13.447265625,9.814453125 1.37695240974426,9.814453125 1.43554711341858,8.5546875 1.0986328125,5.068359375 0,1.81640625 4.453125,0z" />
    </g>
  </g>
</svg>