<?xml version="1.0" encoding="utf-8"?>
<!DOCTYPE svg PUBLIC "-//W3C//DTD SVG 1.1//EN" "http://www.w3.org/Graphics/SVG/1.1/DTD/svg11.dtd">
<svg width="37.5" height="47.607421875" xmlns="http://www.w3.org/2000/svg" xmlns:xlink="http://www.w3.org/1999/xlink" xmlns:xml="http://www.w3.org/XML/1998/namespace" version="1.1">
  <g>
    <g>
      <path style="fill:#FF0000;fill-opacity:1" d="M16.34765625,0L21.26953125,0 21.26953125,14.794921875 36.123046875,14.794921875 36.064453125,16.0546875 36.4013671875,19.541015625 37.5,22.79296875 33.046875,24.609375 31.9775390625,21.9140625 31.34765625,19.013671875 21.26953125,19.013671875 21.26953125,37.79296875 32.373046875,37.79296875 32.314453125,39.052734375 32.6513671875,42.5390625 33.75,45.791015625 29.296875,47.607421875 28.2275390625,44.912109375 27.59765625,42.01171875 10.01953125,42.01171875 9.3896484375,44.912109375 8.3203125,47.607421875 3.8671875,45.791015625 4.9658203125,42.5390625 5.302734375,39.052734375 5.244140625,37.79296875 16.34765625,37.79296875 16.34765625,19.013671875 6.15234375,19.013671875 5.5224609375,21.9140625 4.453125,24.609375 0,22.79296875 1.0986328125,19.541015625 1.43554639816284,16.0546875 1.376953125,14.794921875 16.34765625,14.794921875 16.34765625,0z" />
    </g>
  </g>
</svg>