<?xml version="1.0" encoding="utf-8"?>
<!DOCTYPE svg PUBLIC "-//W3C//DTD SVG 1.1//EN" "http://www.w3.org/Graphics/SVG/1.1/DTD/svg11.dtd">
<svg width="40.283203125" height="35.15625" xmlns="http://www.w3.org/2000/svg" xmlns:xlink="http://www.w3.org/1999/xlink" xmlns:xml="http://www.w3.org/XML/1998/namespace" version="1.1">
  <g>
    <g>
      <path style="fill:#FF0000;fill-opacity:1" d="M22.822265625,7.353515625L22.822265625,28.154296875 34.423828125,28.154296875 35.2001953125,22.9833984375 35.390625,18.603515625 35.203857421875,15.6774921417236 34.6435546875,13.2861328125 33.69873046875,11.3708515167236 32.3583984375,9.873046875 30.611572265625,8.76342964172363 28.447265625,8.0126953125 25.8544902801514,7.562255859375 22.822265625,7.353515625z M17.958984375,4.423828125L14.40673828125,4.749755859375 11.54296875,5.6103515625 9.28344631195068,6.947021484375 7.5439453125,8.701171875 6.29150390625,10.8471698760986 5.4931640625,13.359375 4.921875,19.21875 5.185546875,24.697265625 6.03515625,30.76171875 17.958984375,30.76171875 17.958984375,4.423828125z M19.482421875,0L21.1083984375,0.0146484375 22.822265625,0.087890625 22.822265625,2.958984375 26.846923828125,3.218994140625 30.3662109375,3.8818359375 33.365478515625,4.9951171875 35.830078125,6.6064453125 37.760009765625,8.74145698547363 39.1552734375,11.42578125 40.001220703125,14.7070331573486 40.283203125,18.6328125 39.8291015625,24.931640625 39.232177734375,28.5498046875 38.349609375,32.548828125 22.822265625,32.548828125 22.822265625,35.15625 1.728515625,35.15625 0.43212890625,27.00439453125 0,19.833984375 0.25634765625,15.3735370635986 1.025390625,11.42578125 2.36938428878784,8.02368259429932 4.3505859375,5.2001953125 7.005615234375,2.96630859375 10.37109375,1.3330078125 14.50927734375,0.333251953125 19.482421875,0z" />
    </g>
  </g>
</svg>