<?xml version="1.0" encoding="utf-8"?>
<!DOCTYPE svg PUBLIC "-//W3C//DTD SVG 1.1//EN" "http://www.w3.org/Graphics/SVG/1.1/DTD/svg11.dtd">
<svg width="55.60546875" height="51.2109375" xmlns="http://www.w3.org/2000/svg" xmlns:xlink="http://www.w3.org/1999/xlink" xmlns:xml="http://www.w3.org/XML/1998/namespace" version="1.1">
  <g>
    <g>
      <path style="fill:#FF0000;fill-opacity:1" d="M4.45312452316284,0L5.52246046066284,2.69531154632568 6.15234327316284,5.59570264816284 23.90625,5.59570264816284 24.5361328125,2.69531154632568 25.60546875,0 30.05859375,1.81640565395355 28.9599609375,5.06835889816284 28.623046875,8.5546875 28.681640625,9.814453125 16.904296875,9.814453125 16.904296875,21.796875 18.724365234375,19.720458984375 21.0205078125,18.2373046875 23.792724609375,17.347412109375 27.041015625,17.05078125 31.3623046875,17.63671875 34.716796875,19.39453125 40.83984375,19.39453125 40.83984375,13.828125 45.76171875,13.828125 45.76171875,19.39453125 54.228515625,19.39453125 54.169921875,20.654296875 54.5068359375,24.140625 55.60546875,27.392578125 51.15234375,29.208984375 50.0830078125,26.513671875 49.453125,23.61328125 37.79296875,23.61328125 38.9794921875,27.85400390625 39.375,33.193359375 39.375,51.2109375 34.453125,51.2109375 34.453125,33.515625 34.3304443359375,30.6051635742188 33.96240234375,28.114013671875 33.3489990234375,26.0421752929688 32.490234375,24.3896484375 30.03662109375,22.2253437042236 26.6015625,21.50390625 23.294677734375,22.1997089385986 20.9326171875,24.287109375 20.1058959960938,25.8801288604736 19.515380859375,27.8759784698486 19.1610717773438,30.2746601104736 19.04296875,33.076171875 19.04296875,51.2109375 14.12109375,51.2109375 14.12109375,33.8671875 14.4946279525757,28.57177734375 15.615234375,24.287109375 11.982421875,24.287109375 11.982421875,9.814453125 1.37695336341858,9.814453125 1.435546875,8.5546875 1.09863305091858,5.06835889816284 0,1.81640565395355 4.45312452316284,0z" />
    </g>
  </g>
</svg>