<?xml version="1.0" encoding="utf-8"?>
<!DOCTYPE svg PUBLIC "-//W3C//DTD SVG 1.1//EN" "http://www.w3.org/Graphics/SVG/1.1/DTD/svg11.dtd">
<svg width="41.484375" height="38.232421875" xmlns="http://www.w3.org/2000/svg" xmlns:xlink="http://www.w3.org/1999/xlink" xmlns:xml="http://www.w3.org/XML/1998/namespace" version="1.1">
  <g>
    <g>
      <path style="fill:#FF0000;fill-opacity:1" d="M12.7734375,4.365234375L9.3017578125,4.98046875 6.8408203125,6.943359375 5.980224609375,8.48510932922363 5.361328125,10.4150390625 4.98779296875,12.7551288604736 4.86328125,15.52734375 4.86328125,22.265625 4.991455078125,25.166015625 5.3759765625,27.59765625 6.01318359375,29.593505859375 6.8994140625,31.1865234375 9.4482421875,33.22265625 13.0078125,33.8671875 16.46484375,33.251953125 18.9404296875,31.2890625 19.8010234832764,29.747314453125 20.419921875,27.8173828125 20.7934551239014,25.477294921875 20.91796875,22.705078125 20.91796875,15.966796875 20.7897930145264,13.0847187042236 20.4052734375,10.6494140625 19.7644023895264,8.64258003234863 18.8671875,7.0458984375 16.318359375,5.009765625 12.7734375,4.365234375z M13.18359375,0L16.0693359375,0.21240234375 18.57421875,0.849609375 20.7019023895264,1.94091796875 22.4560546875,3.515625 23.8403301239014,5.58105564117432 24.8583984375,8.14453125 25.5065898895264,11.2426776885986 25.78125,14.912109375 40.107421875,14.912109375 40.048828125,16.171875 40.3857421875,19.658203125 41.484375,22.91015625 37.03125,24.7265625 35.9619140625,22.03125 35.33203125,19.130859375 25.78125,19.130859375 25.78125,21.85546875 25.5725078582764,25.858154296875 24.9462890625,29.2529296875 23.9099102020264,32.07275390625 22.470703125,34.3505859375 20.6213359832764,36.090087890625 18.3544921875,37.294921875 15.677490234375,37.998046875 12.59765625,38.232421875 9.63500881195068,38.009033203125 7.0751953125,37.3388671875 4.91455078125,36.18896484375 3.1494140625,34.5263671875 1.77612268924713,32.34375 0.791015625,29.6337890625 0.19775390625,26.370849609375 0,22.529296875 0,16.376953125 0.208740234375,12.3742694854736 0.8349609375,8.9794921875 1.87133753299713,6.15966892242432 3.310546875,3.8818359375 5.159912109375,2.142333984375 7.4267578125,0.9375 10.1037588119507,0.234375 13.18359375,0z" />
    </g>
  </g>
</svg>