<?xml version="1.0" encoding="utf-8"?>
<!DOCTYPE svg PUBLIC "-//W3C//DTD SVG 1.1//EN" "http://www.w3.org/Graphics/SVG/1.1/DTD/svg11.dtd">
<svg width="43.41796875" height="52.412109375" xmlns="http://www.w3.org/2000/svg" xmlns:xlink="http://www.w3.org/1999/xlink" xmlns:xml="http://www.w3.org/XML/1998/namespace" version="1.1">
  <g>
    <g>
      <path style="fill:#FF0000;fill-opacity:1" d="M19.04296875,12.919921875L16.60400390625,13.194580078125 14.794921875,14.0185546875 13.6743154525757,15.523681640625 13.30078125,17.841796875 13.388671875,21.73828125 13.76953125,25.283203125 18.896484375,25.283203125 21.5332012176514,24.9682636260986 23.466796875,24.0234375 24.6533184051514,22.3535175323486 25.048828125,19.86328125 25.048828125,18.310546875 24.6240234375,15.791015625 23.408203125,14.1357421875 21.50390625,13.212890625 19.04296875,12.919921875z M16.669921875,0L21.591796875,0 21.591796875,8.84765625 25.1037578582764,9.66064453125 27.6123046875,11.279296875 29.1613750457764,13.76953125 29.794921875,17.197265625 42.041015625,17.197265625 41.982421875,18.45703125 42.3193359375,21.943359375 43.41796875,25.1953125 38.96484375,27.01171875 37.8955078125,24.31640625 37.265625,21.416015625 29.765625,21.416015625 28.8354473114014,25.0451679229736 26.689453125,27.5537109375 23.2690410614014,29.014892578125 18.515625,29.501953125 14.560546875,29.501953125 17.51953125,42.59765625 32.900390625,42.59765625 32.841796875,43.857421875 33.1787109375,47.34375 34.27734375,50.595703125 29.82421875,52.412109375 28.7548828125,49.716796875 28.125,46.81640625 6.15234375,46.81640625 5.5224609375,49.716796875 4.453125,52.412109375 0,50.595703125 1.0986328125,47.34375 1.43554663658142,43.857421875 1.37695288658142,42.59765625 12.59765625,42.59765625 9.375,28.18359375 8.876953125,25.751953125 8.61328125,23.61328125 8.49609375,21.2841796875 8.466796875,18.310546875 8.975830078125,14.4873046875 10.5029296875,11.689453125 13.062744140625,9.85107421875 16.669921875,8.90625 16.669921875,0z" />
    </g>
  </g>
</svg>