<?xml version="1.0" encoding="utf-8"?>
<!DOCTYPE svg PUBLIC "-//W3C//DTD SVG 1.1//EN" "http://www.w3.org/Graphics/SVG/1.1/DTD/svg11.dtd">
<svg width="50.595703125" height="42.01171875" xmlns="http://www.w3.org/2000/svg" xmlns:xlink="http://www.w3.org/1999/xlink" xmlns:xml="http://www.w3.org/XML/1998/namespace" version="1.1">
  <g>
    <g>
      <path style="fill:#FF0000;fill-opacity:1" d="M34.833984375,4.21875L34.833984375,19.39453125 39.228515625,19.39453125 42.25341796875,18.914794921875 44.296875,17.4755859375 45.4614219665527,15.0915546417236 45.849609375,11.77734375 45.4540977478027,8.34228515625 44.267578125,6.005859375 42.23876953125,4.66552734375 39.31640625,4.21875 34.833984375,4.21875z M25.517578125,4.21875L22.4926738739014,4.691162109375 20.44921875,6.1083984375 19.28466796875,8.470458984375 18.896484375,11.77734375 19.2919921875,15.2197284698486 20.478515625,17.578125 22.5073223114014,18.9404296875 25.4296875,19.39453125 29.912109375,19.39453125 29.912109375,4.21875 25.517578125,4.21875z M25.72265625,0L39.66796875,0 44.5495567321777,0.699462890625 47.9443359375,2.7978515625 49.9328575134277,6.331787109375 50.595703125,11.337890625 50.419002532959,14.2089853286743 49.8889122009277,16.6992206573486 49.005428314209,18.8085956573486 47.7685546875,20.537109375 46.1618041992188,21.8829345703125 44.168701171875,22.84423828125 41.7892456054688,23.4210205078125 39.0234375,23.61328125 34.716796875,23.61328125 32.2265625,25.83984375 29.6923828125,28.41796875 27.333984375,31.3623046875 25.3564453125,34.62890625 23.9501953125,38.1884765625 23.349609375,42.01171875 18.33984375,42.01171875 18.541259765625,39.437255859375 19.1455078125,36.9287109375 21.328125,32.138671875 24.521484375,27.7001953125 28.388671875,23.701171875 28.330078125,23.61328125 25.078125,23.61328125 20.48583984375,23.00537109375 17.197265625,21.181640625 15.1318359375,18.12744140625 14.208984375,13.828125 6.15234375,13.828125 5.5224609375,16.728515625 4.45312547683716,19.423828125 0,17.607421875 1.0986328125,14.35546875 1.435546875,11.015625 1.376953125,9.78515625 14.267578125,9.78515625 15.362548828125,5.5224609375 17.5927734375,2.4609375 21.024169921875,0.615234375 25.72265625,0z" />
    </g>
  </g>
</svg>