<?xml version="1.0" encoding="utf-8"?>
<!DOCTYPE svg PUBLIC "-//W3C//DTD SVG 1.1//EN" "http://www.w3.org/Graphics/SVG/1.1/DTD/svg11.dtd">
<svg width="45.673828125" height="37.5" xmlns="http://www.w3.org/2000/svg" xmlns:xlink="http://www.w3.org/1999/xlink" xmlns:xml="http://www.w3.org/XML/1998/namespace" version="1.1">
  <g>
    <g>
      <path style="fill:#FF0000;fill-opacity:1" d="M25.810546875,0L25.810546875,4.306640625 29.6044921875,4.47509765625 32.900390625,4.921875 35.738525390625,5.65795993804932 38.1591796875,6.6943359375 40.1806640625,8.02734565734863 41.8212890625,9.6533203125 44.12109375,13.8134765625 45.322265625,19.21875 45.673828125,25.8984375 45.6298828125,31.494140625 45.41015625,37.5 40.546875,37.5 40.7373046875,31.58203125 40.78125,26.220703125 40.6201171875,21.6943359375 40.13671875,17.958984375 39.23583984375,14.945068359375 37.822265625,12.5830078125 35.8447265625,10.8288593292236 33.251953125,9.638671875 29.94140625,8.93554878234863 25.810546875,8.642578125 25.810546875,28.359375 20.888671875,28.359375 20.888671875,4.62890625 17.080078125,5.16357421875 13.798828125,6.123046875 11.0375967025757,7.61352682113647 8.7890625,9.7412109375 7.049560546875,12.5720233917236 5.8154296875,16.171875 5.079345703125,20.64697265625 4.833984375,26.103515625 4.86328125,28.359375 0.029296875,28.359375 0.00732421875,27.25341796875 0,26.572265625 0.208740234375,21.317138671875 0.8349609375,16.8017578125 1.85302734375,12.9565448760986 3.23730516433716,9.7119140625 4.98046875,7.03491353988647 7.0751953125,4.892578125 9.49218654632568,3.218994140625 12.2021484375,1.9482421875 18.486328125,0.4541015625 25.810546875,0z" />
    </g>
  </g>
</svg>