<?xml version="1.0" encoding="utf-8"?>
<!DOCTYPE svg PUBLIC "-//W3C//DTD SVG 1.1//EN" "http://www.w3.org/Graphics/SVG/1.1/DTD/svg11.dtd">
<svg width="45.322265625" height="52.119140625" xmlns="http://www.w3.org/2000/svg" xmlns:xlink="http://www.w3.org/1999/xlink" xmlns:xml="http://www.w3.org/XML/1998/namespace" version="1.1">
  <g>
    <g>
      <path style="fill:#FF0000;fill-opacity:1" d="M37.08984375,42.392578125L35.44189453125,42.568359375 34.365234375,43.095703125 33.77197265625,43.9599609375 33.57421875,45.146484375 33.775634765625,46.395263671875 34.3798828125,47.2705078125 35.467529296875,47.786865234375 37.119140625,47.958984375 38.76708984375,47.783203125 39.84375,47.255859375 40.43701171875,46.3916015625 40.634765625,45.205078125 40.433349609375,43.956298828125 39.8291015625,43.0810546875 38.741455078125,42.564697265625 37.08984375,42.392578125z M19.04296875,12.919921875L16.60400390625,13.194580078125 14.794921875,14.0185546875 13.67431640625,15.523681640625 13.30078125,17.841796875 13.388671875,21.73828125 13.76953125,25.283203125 18.896484375,25.283203125 21.5332012176514,24.9682636260986 23.466796875,24.0234375 24.6533184051514,22.3535175323486 25.048828125,19.86328125 25.048828125,18.310546875 24.6240234375,15.791015625 23.408203125,14.1357421875 21.50390625,13.212890625 19.04296875,12.919921875z M16.669921875,0L21.591796875,0 21.591796875,8.84765625 25.2209453582764,9.708251953125 27.7880859375,11.4697265625 29.315185546875,14.190673828125 29.82421875,17.9296875 29.82421875,20.2734375 29.12841796875,24.4116230010986 27.041015625,27.275390625 23.5180644989014,28.9453125 18.515625,29.501953125 14.560546875,29.501953125 16.5234375,38.232421875 37.03125,38.232421875 40.75927734375,38.6572265625 43.330078125,39.931640625 44.82421875,42.06298828125 45.322265625,45.05859375 44.82421875,48.138427734375 43.330078125,50.3466796875 40.77392578125,51.676025390625 37.08984375,52.119140625 33.2373046875,51.62109375 30.7177734375,50.244140625 29.35546875,48.193359375 28.9453125,45.673828125 29.091796875,44.091796875 29.619140625,42.451171875 6.15234375,42.451171875 5.5224609375,45.3515625 4.453125,48.046875 0,46.23046875 1.0986328125,42.978515625 1.43554663658142,39.4921875 1.37695336341858,38.232421875 11.630859375,38.232421875 9.375,28.18359375 8.876953125,25.7666015625 8.61328125,23.61328125 8.49609375,21.2841796875 8.466796875,18.310546875 8.975830078125,14.4873046875 10.5029296875,11.689453125 13.062744140625,9.85107421875 16.669921875,8.90625 16.669921875,0z" />
    </g>
  </g>
</svg>