<?xml version="1.0" encoding="utf-8"?>
<!DOCTYPE svg PUBLIC "-//W3C//DTD SVG 1.1//EN" "http://www.w3.org/Graphics/SVG/1.1/DTD/svg11.dtd">
<svg width="40.634765625" height="42.685546875" xmlns="http://www.w3.org/2000/svg" xmlns:xlink="http://www.w3.org/1999/xlink" xmlns:xml="http://www.w3.org/XML/1998/namespace" version="1.1">
  <g>
    <g>
      <path style="fill:#FF0000;fill-opacity:1" d="M20.09765625,4.189453125L17.65869140625,4.464111328125 15.849609375,5.2880859375 14.72900390625,6.793212890625 14.35546875,9.111328125 14.443359375,13.0078125 14.82421875,16.552734375 19.951171875,16.552734375 22.5878887176514,16.2377948760986 24.521484375,15.29296875 25.7080059051514,13.6230487823486 26.103515625,11.1328125 26.103515625,9.580078125 25.6787109375,7.060546875 24.462890625,5.4052734375 22.55859375,4.482421875 20.09765625,4.189453125z M20.44921875,0L25.0488262176514,0.552978515625 28.30078125,2.2119140625 30.234375,5.064697265625 30.87890625,9.19921875 30.87890625,11.54296875 30.18310546875,15.6811542510986 28.095703125,18.544921875 24.5727519989014,20.21484375 19.5703125,20.771484375 15.615234375,20.771484375 16.435546875,24.404296875 18.0615234375,24.31640625 19.775390625,24.287109375 39.2578125,24.287109375 39.19921875,25.546875 39.5361328125,29.033203125 40.634765625,32.28515625 36.181640625,34.1015625 35.1123046875,31.40625 34.482421875,28.505859375 18.92578125,28.505859375 15.743408203125,28.663330078125 13.0517578125,29.1357421875 10.8068838119507,29.959716796875 8.96484375,31.171875 7.503662109375,32.794189453125 6.4013671875,34.8486328125 5.61401271820068,37.371826171875 5.09765625,40.400390625 4.833984375,42.685546875 0,42.685546875 0.322265148162842,39.990234375 0.875243842601776,36.712646484375 1.71386671066284,33.9111328125 2.81249976158142,31.54541015625 4.1455078125,29.5751953125 7.5,26.7333984375 11.689453125,25.078125 10.4296875,19.453125 9.931640625,17.021484375 9.66796875,14.8828125 9.55078125,12.5537109375 9.521484375,9.580078125 10.198974609375,5.269775390625 12.2314453125,2.2998046875 15.640869140625,0.574951171875 20.44921875,0z" />
    </g>
  </g>
</svg>