<?xml version="1.0" encoding="utf-8"?>
<!DOCTYPE svg PUBLIC "-//W3C//DTD SVG 1.1//EN" "http://www.w3.org/Graphics/SVG/1.1/DTD/svg11.dtd">
<svg width="40.8984375000002" height="42.71484375" xmlns="http://www.w3.org/2000/svg" xmlns:xlink="http://www.w3.org/1999/xlink" xmlns:xml="http://www.w3.org/XML/1998/namespace" version="1.1">
  <g>
    <g>
      <path style="fill:#FF0000;fill-opacity:1" d="M29.501953125,33.134765625L28.330078125,38.49609375 32.314453125,38.49609375 34.112548828125,38.32763671875 35.2880859375,37.822265625 35.936279296875,36.9873046875 36.15234375,35.830078125 35.91796875,34.6142578125 35.21484375,33.779296875 33.96240234375,33.2958984375 32.080078125,33.134765625 29.501953125,33.134765625z M11.337890625,4.365234375L8.6572265625,4.6728515625 6.62109375,5.6396484375 5.3173828125,7.3681640625 4.86328125,9.9609375 4.86328125,14.150390625 5.33203125,16.8310546875 6.6650390625,18.6328125 8.759765625,19.6435546875 11.54296875,19.951171875 14.23828125,19.6435546875 16.2744140625,18.6767578125 17.5634765625,16.9482421875 18.017578125,14.35546875 18.017578125,10.1953125 17.548828125,7.5 16.201171875,5.6982421875 14.091796875,4.6875 11.337890625,4.365234375z M11.689453125,0L16.435546875,0.556640625 19.951171875,2.2998046875 22.1337890625,5.3173828125 22.880859375,9.697265625 22.880859375,14.619140625 22.470703125,17.6806640625 21.240234375,20.126953125 32.34375,20.126953125 30.41015625,28.916015625 32.16796875,28.916015625 36.0791015625,29.337158203125 38.7890625,30.6005859375 40.37109375,32.706298828125 40.8984375,35.654296875 40.34912109375,38.75244140625 38.701171875,40.95703125 35.88134765625,42.275390625 31.81640625,42.71484375 22.44140625,42.71484375 26.455078125,24.31640625 11.220703125,24.31640625 6.4453125,23.759765625 2.92968797683716,22.03125 0.747070789337158,19.013671875 0,14.619140625 0,10.107421875 0.19775378704071,7.6318359375 0.791016101837158,5.537109375 3.076171875,2.40234375 6.73828125,0.5859375 11.689453125,0z" />
    </g>
  </g>
</svg>