<?xml version="1.0" encoding="utf-8"?>
<!DOCTYPE svg PUBLIC "-//W3C//DTD SVG 1.1//EN" "http://www.w3.org/Graphics/SVG/1.1/DTD/svg11.dtd">
<svg width="60.966796875" height="37.529296875" xmlns="http://www.w3.org/2000/svg" xmlns:xlink="http://www.w3.org/1999/xlink" xmlns:xml="http://www.w3.org/XML/1998/namespace" version="1.1">
  <g>
    <g>
      <path style="fill:#FF0000;fill-opacity:1" d="M25.810546875,0L25.810546875,4.306640625 30.1611328125,4.559326171875 33.837890625,5.2587890625 36.910400390625,6.40869283676147 39.4482421875,8.0126953125 41.480712890625,10.0781269073486 43.037109375,12.6123046875 44.1796836853027,15.626220703125 44.970703125,19.130859375 59.58984375,19.130859375 59.53125,20.390625 59.8681640625,23.876953125 60.966796875,27.12890625 56.513671875,28.9453125 55.4443359375,26.25 54.814453125,23.349609375 45.46875,23.349609375 45.615234375,26.2646484375 45.673828125,29.4140625 45.6298828125,33.310546875 45.46875,37.529296875 40.60546875,37.529296875 40.7373046875,33.34716796875 40.78125,29.58984375 40.6201171875,24.202880859375 40.13671875,19.7607421875 39.23583984375,16.171875 37.822265625,13.3447265625 35.8447265625,11.2390155792236 33.251953125,9.814453125 29.94140625,8.97949409484863 25.810546875,8.642578125 25.810546875,37.529296875 20.888671875,37.529296875 20.888671875,4.62890625 15.9228515625,5.5517578125 11.89453125,7.4560546875 8.7890625,10.576171875 7.58056640625,12.6562519073486 6.591796875,15.146484375 5.82275390625,18.0615234375 5.2734375,21.416015625 4.94384765625,25.25390625 4.833984375,29.619140625 5.09765625,37.529296875 0.234375,37.529296875 0.05859375,33.7939453125 0,30.322265625 0.208740293979645,24.327392578125 0.834961414337158,19.1748046875 1.85302710533142,14.78759765625 3.2373046875,11.0888671875 4.98046875,8.03833198547363 7.0751953125,5.595703125 9.49218654632568,3.68408203125 12.2021484375,2.2265625 18.486328125,0.5126953125 25.810546875,0z" />
    </g>
  </g>
</svg>