<?xml version="1.0" encoding="utf-8"?>
<!DOCTYPE svg PUBLIC "-//W3C//DTD SVG 1.1//EN" "http://www.w3.org/Graphics/SVG/1.1/DTD/svg11.dtd">
<svg width="61.962890625" height="51.2109375" xmlns="http://www.w3.org/2000/svg" xmlns:xlink="http://www.w3.org/1999/xlink" xmlns:xml="http://www.w3.org/XML/1998/namespace" version="1.1">
  <g>
    <g>
      <path style="fill:#FF0000;fill-opacity:1" d="M53.73046875,32.373046875L52.0825157165527,32.548828125 51.005859375,33.076171875 50.4125938415527,33.9404296875 50.21484375,35.126953125 50.4162559509277,36.375732421875 51.0205078125,37.2509765625 52.1081504821777,37.767333984375 53.759765625,37.939453125 55.4077110290527,37.763671875 56.484375,37.236328125 57.0776329040527,36.3720703125 57.275390625,35.185546875 57.0739707946777,33.936767578125 56.4697265625,33.0615234375 55.3820762634277,32.545166015625 53.73046875,32.373046875z M4.453125,0L5.52246046066284,2.69531226158142 6.15234327316284,5.59570264816284 23.90625,5.59570264816284 24.5361328125,2.69531226158142 25.60546875,0 30.05859375,1.81640577316284 28.9599609375,5.068359375 28.623046875,8.5546875 28.681640625,9.814453125 16.904296875,9.814453125 16.904296875,21.796875 18.724365234375,19.720458984375 21.0205078125,18.2373046875 23.792724609375,17.347412109375 27.041015625,17.05078125 31.673583984375,17.73193359375 35.2001953125,19.775390625 37.642822265625,23.2470722198486 39.0234375,28.212890625 53.671875,28.212890625 57.3998985290527,28.6376953125 59.970703125,29.912109375 61.4648399353027,32.04345703125 61.962890625,35.0390625 61.4648399353027,38.118896484375 59.970703125,40.3271484375 57.4145469665527,41.656494140625 53.73046875,42.099609375 49.8779296875,41.6015625 47.3583984375,40.224609375 45.99609375,38.173828125 45.5859375,35.654296875 45.732421875,34.072265625 46.259765625,32.431640625 39.375,32.431640625 39.375,51.2109375 34.453125,51.2109375 34.453125,33.515625 34.3304443359375,30.6051635742188 33.96240234375,28.114013671875 33.3489990234375,26.0421752929688 32.490234375,24.3896484375 30.03662109375,22.2253437042236 26.6015625,21.50390625 23.294677734375,22.1997089385986 20.9326171875,24.287109375 20.1058959960938,25.8801288604736 19.515380859375,27.8759784698486 19.1610717773438,30.2746601104736 19.04296875,33.076171875 19.04296875,51.2109375 14.12109375,51.2109375 14.12109375,33.8671875 14.4946279525757,28.57177734375 15.615234375,24.287109375 11.982421875,24.287109375 11.982421875,9.814453125 1.376953125,9.814453125 1.435546875,8.5546875 1.09863233566284,5.068359375 0,1.81640577316284 4.453125,0z" />
    </g>
  </g>
</svg>