<?xml version="1.0" encoding="utf-8"?>
<!DOCTYPE svg PUBLIC "-//W3C//DTD SVG 1.1//EN" "http://www.w3.org/Graphics/SVG/1.1/DTD/svg11.dtd">
<svg width="49.951171875" height="52.5" xmlns="http://www.w3.org/2000/svg" xmlns:xlink="http://www.w3.org/1999/xlink" xmlns:xml="http://www.w3.org/XML/1998/namespace" version="1.1">
  <g>
    <g>
      <path style="fill:#FF0000;fill-opacity:1" d="M19.04296875,4.189453125L16.60400390625,4.464111328125 14.794921875,5.2880859375 13.6743154525757,6.793212890625 13.30078125,9.111328125 13.388671875,13.0078125 13.76953125,16.552734375 18.896484375,16.552734375 21.5332012176514,16.2377948760986 23.466796875,15.29296875 24.6533184051514,13.6230487823486 25.048828125,11.1328125 25.048828125,9.580078125 24.6240234375,7.060546875 23.408203125,5.4052734375 21.50390625,4.482421875 19.04296875,4.189453125z M19.39453125,0L23.9941387176514,0.552978515625 27.24609375,2.2119140625 29.1796875,5.064697265625 29.82421875,9.19921875 29.82421875,11.54296875 29.12841796875,15.6811542510986 27.041015625,18.544921875 23.5180644989014,20.21484375 18.515625,20.771484375 14.560546875,20.771484375 17.51953125,33.8671875 32.900390625,33.8671875 32.841796875,35.126953125 32.9296875,36.9140625 33.2373046875,38.8330078125 33.80859375,40.78125 34.716796875,42.685546875 48.57421875,42.685546875 48.515625,43.9453125 48.8525390625,47.431640625 49.951171875,50.68359375 45.498046875,52.5 44.4287109375,49.8046875 43.798828125,46.904296875 22.705078125,46.904296875 22.0751953125,49.8046875 21.005859375,52.5 16.552734375,50.68359375 17.6513671875,47.431640625 17.98828125,43.9453125 17.9296875,42.685546875 29.326171875,42.685546875 28.6083984375,40.4443359375 28.125,38.0859375 6.15234375,38.0859375 5.5224609375,40.986328125 4.45312404632568,43.681640625 0,41.865234375 1.0986328125,38.61328125 1.435546875,35.126953125 1.37695264816284,33.8671875 12.59765625,33.8671875 9.375,19.453125 8.876953125,17.021484375 8.61328125,14.8828125 8.49609375,12.5537109375 8.466796875,9.580078125 9.144287109375,5.269775390625 11.1767578125,2.2998046875 14.586181640625,0.574951171875 19.39453125,0z" />
    </g>
  </g>
</svg>