<?xml version="1.0" encoding="utf-8"?>
<!DOCTYPE svg PUBLIC "-//W3C//DTD SVG 1.1//EN" "http://www.w3.org/Graphics/SVG/1.1/DTD/svg11.dtd">
<svg width="48.046875" height="42.01171875" xmlns="http://www.w3.org/2000/svg" xmlns:xlink="http://www.w3.org/1999/xlink" xmlns:xml="http://www.w3.org/XML/1998/namespace" version="1.1">
  <g>
    <g>
      <path style="fill:#FF0000;fill-opacity:1" d="M30.263671875,0L46.669921875,0 46.611328125,1.259765625 46.9482421875,4.74609375 48.046875,7.998046875 43.59375,9.814453125 42.5244140625,7.119140625 41.89453125,4.21875 35.185546875,4.21875 35.185546875,14.794921875 46.669921875,14.794921875 46.611328125,16.0546875 46.9482421875,19.541015625 48.046875,22.79296875 43.59375,24.609375 42.5244140625,21.9140625 41.89453125,19.013671875 35.185546875,19.013671875 35.185546875,42.01171875 30.263671875,42.01171875 30.263671875,19.013671875 17.87109375,19.013671875 17.87109375,42.01171875 12.94921875,42.01171875 12.94921875,9.78515625 6.15234375,9.78515625 5.52246046066284,12.685546875 4.453125,15.380859375 0,13.564453125 1.09863257408142,10.3125 1.435546875,6.826171875 1.376953125,5.56640625 17.87109375,5.56640625 17.87109375,14.794921875 30.263671875,14.794921875 30.263671875,0z" />
    </g>
  </g>
</svg>