<?xml version="1.0" encoding="utf-8"?>
<!DOCTYPE svg PUBLIC "-//W3C//DTD SVG 1.1//EN" "http://www.w3.org/Graphics/SVG/1.1/DTD/svg11.dtd">
<svg width="22.060546875" height="45.99609375" xmlns="http://www.w3.org/2000/svg" xmlns:xlink="http://www.w3.org/1999/xlink" xmlns:xml="http://www.w3.org/XML/1998/namespace" version="1.1">
  <g>
    <g>
      <path style="fill:#FF0000;fill-opacity:1" d="M10.3125,0L15.234375,0 15.234375,9.287109375 18.22998046875,9.90234375 20.361328125,11.220703125 21.6357402801514,13.16162109375 22.060546875,15.64453125 21.9873046875,16.8017578125 21.767578125,18.017578125 15.673828125,45.99609375 10.693359375,45.99609375 16.611328125,18.80859375 16.787109375,17.8857421875 16.845703125,16.93359375 16.622314453125,15.5932636260986 15.9521484375,14.560546875 14.732666015625,13.9013671875 12.861328125,13.681640625 9.6533203125,14.1064453125 6.2109375,15.146484375 5.61035203933716,18.4130859375 4.453125,21.416015625 0,19.599609375 1.09863305091858,16.3916015625 1.43554663658142,13.212890625 1.37695288658142,11.923828125 5.9619140625,10.5322265625 10.3125,9.55078125 10.3125,0z" />
    </g>
  </g>
</svg>