<?xml version="1.0" encoding="utf-8"?>
<!DOCTYPE svg PUBLIC "-//W3C//DTD SVG 1.1//EN" "http://www.w3.org/Graphics/SVG/1.1/DTD/svg11.dtd">
<svg width="48.046875" height="42.01171875" xmlns="http://www.w3.org/2000/svg" xmlns:xlink="http://www.w3.org/1999/xlink" xmlns:xml="http://www.w3.org/XML/1998/namespace" version="1.1">
  <g>
    <g>
      <path style="fill:#FF0000;fill-opacity:1" d="M35.185546875,32.431640625L35.185546875,37.79296875 38.26171875,37.79296875 40.059814453125,37.62451171875 41.2353515625,37.119140625 41.883544921875,36.2841796875 42.099609375,35.126953125 41.865234375,33.9111328125 41.162109375,33.076171875 39.90966796875,32.5927734375 38.02734375,32.431640625 35.185546875,32.431640625z M30.263671875,0L46.669921875,0 46.611328125,1.259765625 46.9482421875,4.74609375 48.046875,7.998046875 43.59375,9.814453125 42.5244140625,7.119140625 41.89453125,4.21875 35.185546875,4.21875 35.185546875,28.212890625 38.115234375,28.212890625 42.0263671875,28.634033203125 44.736328125,29.8974609375 46.3183555603027,32.003173828125 46.845703125,34.951171875 46.2963829040527,38.04931640625 44.6484375,40.25390625 41.82861328125,41.572265625 37.763671875,42.01171875 30.263671875,42.01171875 30.263671875,19.013671875 17.87109375,19.013671875 17.87109375,42.01171875 12.94921875,42.01171875 12.94921875,9.78515625 6.15234375,9.78515625 5.52246046066284,12.685546875 4.453125,15.380859375 0,13.564453125 1.09863257408142,10.3125 1.435546875,6.826171875 1.376953125,5.56640625 17.87109375,5.56640625 17.87109375,14.794921875 30.263671875,14.794921875 30.263671875,0z" />
    </g>
  </g>
</svg>