<?xml version="1.0" encoding="utf-8"?>
<!DOCTYPE svg PUBLIC "-//W3C//DTD SVG 1.1//EN" "http://www.w3.org/Graphics/SVG/1.1/DTD/svg11.dtd">
<svg width="37.5" height="36.416015625" xmlns="http://www.w3.org/2000/svg" xmlns:xlink="http://www.w3.org/1999/xlink" xmlns:xml="http://www.w3.org/XML/1998/namespace" version="1.1">
  <g>
    <g>
      <path style="fill:#FF0000;fill-opacity:1" d="M21.26953125,26.8359375L21.26953125,32.197265625 24.345703125,32.197265625 26.1437969207764,32.02880859375 27.3193359375,31.5234375 27.9675273895264,30.6884765625 28.18359375,29.53125 27.9492168426514,28.3154296875 27.24609375,27.48046875 25.9936504364014,26.9970703125 24.111328125,26.8359375 21.26953125,26.8359375z M1.37695336341858,0L36.123046875,0 36.064453125,1.259765625 36.4013671875,4.74609375 37.5,7.998046875 33.046875,9.814453125 31.9775390625,7.119140625 31.34765625,4.21875 21.26953125,4.21875 21.26953125,22.6171875 24.19921875,22.6171875 28.1103496551514,23.038330078125 30.8203125,24.3017578125 32.40234375,26.407470703125 32.9296875,29.35546875 32.38037109375,32.45361328125 30.732421875,34.658203125 27.9125957489014,35.9765625 23.84765625,36.416015625 16.34765625,36.416015625 16.34765625,4.21875 6.15234375,4.21875 5.5224609375,7.119140625 4.453125,9.814453125 0,7.998046875 1.0986328125,4.74609375 1.435546875,1.259765625 1.37695336341858,0z" />
    </g>
  </g>
</svg>