<?xml version="1.0" encoding="utf-8"?>
<!DOCTYPE svg PUBLIC "-//W3C//DTD SVG 1.1//EN" "http://www.w3.org/Graphics/SVG/1.1/DTD/svg11.dtd">
<svg width="36.97265625" height="47.75390625" xmlns="http://www.w3.org/2000/svg" xmlns:xlink="http://www.w3.org/1999/xlink" xmlns:xml="http://www.w3.org/XML/1998/namespace" version="1.1">
  <g>
    <g>
      <path style="fill:#FF0000;fill-opacity:1" d="M13.388671875,12.7734375L11.1730947494507,13.062744140625 9.5654296875,13.9306640625 8.580322265625,15.4870615005493 8.232421875,17.841796875 8.5693359375,20.3283710479736 9.580078125,21.9873046875 11.2499990463257,22.9211444854736 13.564453125,23.232421875 15.78369140625,22.9357929229736 17.40234375,22.0458984375 18.39111328125,20.4528827667236 18.720703125,18.046875 18.365478515625,15.6115732192993 17.3583984375,13.9892578125 15.699462890625,13.077392578125 13.388671875,12.7734375z M11.015625,0L15.9375,0 15.9375,8.876953125 18.922119140625,9.613037109375 21.1376953125,11.0009765625 22.6135234832764,13.092041015625 23.37890625,15.9375 35.595703125,15.9375 35.537109375,17.197265625 35.8740234375,20.68359375 36.97265625,23.935546875 32.51953125,25.751953125 31.4501953125,23.056640625 30.8203125,20.15625 23.3203125,20.15625 22.7490234375,22.3095703125 21.7236328125,24.0234375 20.2294921875,25.576171875 18.251953125,27.216796875 16.8017578125,28.4033203125 15.205078125,29.736328125 23.7890625,29.736328125 28.18359375,47.75390625 23.26171875,47.75390625 19.892578125,33.955078125 10.986328125,33.955078125 8.7158203125,36.8994140625 6.826171875,40.1953125 5.5078125,43.8134765625 4.951171875,47.75390625 0,47.75390625 0.230712860822678,44.75830078125 0.922851324081421,41.865234375 3.3837890625,36.4453125 6.943359375,31.5673828125 11.19140625,27.24609375 7.789306640625,26.396484375 5.3759765625,24.66796875 3.93676710128784,21.9799823760986 3.45703125,18.251953125 3.45703125,18.1640625 3.92578077316284,14.4580078125 5.33203125,11.71875 7.6904296875,9.8876953125 11.015625,8.90625 11.015625,0z" />
    </g>
  </g>
</svg>