<?xml version="1.0" encoding="utf-8"?>
<!DOCTYPE svg PUBLIC "-//W3C//DTD SVG 1.1//EN" "http://www.w3.org/Graphics/SVG/1.1/DTD/svg11.dtd">
<svg width="38.056640625" height="44.619140625" xmlns="http://www.w3.org/2000/svg" xmlns:xlink="http://www.w3.org/1999/xlink" xmlns:xml="http://www.w3.org/XML/1998/namespace" version="1.1">
  <g>
    <g>
      <path style="fill:#FF0000;fill-opacity:1" d="M11.3671875,4.04296875L9.14794826507568,4.339599609375 7.529296875,5.2294921875 6.54052734375,6.82251071929932 6.2109375,9.228515625 6.5625,11.6638202667236 7.55859375,13.2861328125 9.21386623382568,14.1979999542236 11.54296875,14.501953125 13.780517578125,14.2126483917236 15.3955078125,13.3447265625 16.373291015625,11.7883319854736 16.69921875,9.43359375 16.3623046875,6.94702243804932 15.3515625,5.2880859375 13.681640625,4.354248046875 11.3671875,4.04296875z M11.66015625,0L15.999755859375,0.5419921875 19.0576171875,2.16796875 20.8703594207764,4.97314453125 21.474609375,9.052734375 21.181640625,12.275390625 20.2587890625,14.619140625 18.6474609375,16.5380859375 16.318359375,18.45703125 14.7216796875,19.658203125 13.212890625,20.91796875 13.212890625,21.005859375 21.6796875,21.005859375 25.048828125,34.8046875 36.6796875,34.8046875 36.62109375,36.064453125 36.9580078125,39.55078125 38.056640625,42.802734375 33.603515625,44.619140625 32.5341796875,41.923828125 31.904296875,39.0234375 9.931640625,39.0234375 9.3017578125,41.923828125 8.232421875,44.619140625 3.779296875,42.802734375 4.8779296875,39.55078125 5.21484375,36.064453125 5.15625,34.8046875 20.09765625,34.8046875 17.783203125,25.224609375 8.73046875,25.224609375 6.5771484375,28.4033203125 5.302734375,31.494140625 0,31.494140625 1.2451171875,27.83203125 3.3251953125,24.521484375 6.03515625,21.4599609375 9.169921875,18.515625 5.767822265625,17.666015625 3.35449266433716,15.9375 1.915283203125,13.2495136260986 1.435546875,9.521484375 1.435546875,9.43359375 2.076416015625,5.21484375 3.9990234375,2.28515625 7.196044921875,0.5712890625 11.66015625,0z" />
    </g>
  </g>
</svg>