<?xml version="1.0" encoding="utf-8"?>
<!DOCTYPE svg PUBLIC "-//W3C//DTD SVG 1.1//EN" "http://www.w3.org/Graphics/SVG/1.1/DTD/svg11.dtd">
<svg width="39.7265625" height="47.75390625" xmlns="http://www.w3.org/2000/svg" xmlns:xlink="http://www.w3.org/1999/xlink" xmlns:xml="http://www.w3.org/XML/1998/namespace" version="1.1">
  <g>
    <g>
      <path style="fill:#FF0000;fill-opacity:1" d="M13.388671875,12.7734375L11.1730947494507,13.062744140625 9.5654296875,13.9306640625 8.580322265625,15.4870615005493 8.232421875,17.841796875 8.5693359375,20.3283710479736 9.580078125,21.9873046875 11.2499990463257,22.9211444854736 13.564453125,23.232421875 15.78369140625,22.9357929229736 17.40234375,22.0458984375 18.39111328125,20.4528827667236 18.720703125,18.046875 18.365478515625,15.6115732192993 17.3583984375,13.9892578125 15.699462890625,13.077392578125 13.388671875,12.7734375z M11.015625,0L15.9375,0 15.9375,8.876953125 19.259033203125,9.744873046875 21.6064453125,11.4697265625 23.0090312957764,14.110107421875 23.49609375,17.724609375 23.1884765625,20.947265625 22.236328125,23.3056640625 20.595703125,25.2392578125 18.251953125,27.216796875 16.8017578125,28.4033203125 15.205078125,29.736328125 23.7890625,29.736328125 24.90234375,34.3359375 38.349609375,34.3359375 38.291015625,35.595703125 38.6279296875,39.08203125 39.7265625,42.333984375 35.2734375,44.150390625 34.2041015625,41.455078125 33.57421875,38.5546875 25.927734375,38.5546875 28.18359375,47.75390625 23.26171875,47.75390625 19.892578125,33.955078125 10.986328125,33.955078125 8.7158203125,36.8994140625 6.826171875,40.1953125 5.5078125,43.8134765625 4.951171875,47.75390625 0,47.75390625 0.230713069438934,44.75830078125 0.9228515625,41.865234375 3.38378930091858,36.4453125 6.943359375,31.5673828125 11.19140625,27.24609375 7.789306640625,26.396484375 5.3759765625,24.66796875 3.936767578125,21.9799823760986 3.45703148841858,18.251953125 3.45703148841858,18.1640625 3.92578125,14.4580078125 5.33203125,11.71875 7.6904296875,9.8876953125 11.015625,8.90625 11.015625,0z" />
    </g>
  </g>
</svg>