<?xml version="1.0" encoding="utf-8"?>
<!DOCTYPE svg PUBLIC "-//W3C//DTD SVG 1.1//EN" "http://www.w3.org/Graphics/SVG/1.1/DTD/svg11.dtd">
<svg width="43.76953125" height="52.91015625" xmlns="http://www.w3.org/2000/svg" xmlns:xlink="http://www.w3.org/1999/xlink" xmlns:xml="http://www.w3.org/XML/1998/namespace" version="1.1">
  <g>
    <g>
      <path style="fill:#FF0000;fill-opacity:1" d="M9.580078125,48.69140625L33.251953125,48.69140625 33.251953125,52.91015625 9.580078125,52.91015625 9.580078125,48.69140625z M33.8671875,13.76953125L31.79443359375,14.0185565948486 30.263671875,14.765625 29.31884765625,16.1279315948486 29.00390625,18.22265625 29.091796875,21.7529296875 29.47265625,24.9609375 33.80859375,24.9609375 36.0498046875,24.678955078125 37.67578125,23.8330078125 38.66455078125,22.327880859375 38.994140625,20.068359375 38.994140625,18.662109375 38.6279296875,16.376953125 37.587890625,14.8681640625 35.9765625,14.033203125 33.8671875,13.76953125z M9.697265625,13.76953125L7.62451171875,14.0185565948486 6.09375,14.765625 5.14892578125,16.1279315948486 4.833984375,18.22265625 4.921875,21.7529296875 5.302734375,24.9609375 9.638671875,24.9609375 11.8798828125,24.678955078125 13.505859375,23.8330078125 14.49462890625,22.327880859375 14.82421875,20.068359375 14.82421875,18.662109375 14.4580078125,16.376953125 13.41796875,14.8681640625 11.806640625,14.033203125 9.697265625,13.76953125z M10.048828125,9.580078125L14.263916015625,10.10009765625 17.2412109375,11.66015625 19.0100078582764,14.3481464385986 19.599609375,18.251953125 19.599609375,20.478515625 18.9880352020264,24.385986328125 17.1533203125,27.0849609375 14.044189453125,28.656005859375 9.609375,29.1796875 6.09375,29.1796875 7.119140625,33.720703125 26.396484375,33.720703125 25.078125,27.861328125 24.609375,25.576171875 24.3310546875,23.5693359375 24.19921875,21.38671875 24.169921875,18.57421875 24.7924785614014,14.5202655792236 26.66015625,11.7333984375 29.794921875,10.118408203125 34.21875,9.580078125 38.433837890625,10.10009765625 41.4111328125,11.66015625 43.1799278259277,14.3481464385986 43.76953125,18.251953125 43.76953125,20.478515625 43.1579551696777,24.385986328125 41.3232421875,27.0849609375 38.214111328125,28.656005859375 33.779296875,29.1796875 30.263671875,29.1796875 33.369140625,42.890625 28.447265625,42.890625 27.333984375,37.939453125 8.056640625,37.939453125 9.19921875,42.890625 4.27734375,42.890625 0.908203125,27.861328125 0.439453601837158,25.576171875 0.161133289337158,23.5693359375 0.029296875,21.38671875 0,18.57421875 0.62255859375,14.5202655792236 2.490234375,11.7333984375 5.625,10.118408203125 10.048828125,9.580078125z M9.580078125,0L33.251953125,0 33.251953125,4.21875 9.580078125,4.21875 9.580078125,0z" />
    </g>
  </g>
</svg>