<?xml version="1.0" encoding="utf-8"?>
<!DOCTYPE svg PUBLIC "-//W3C//DTD SVG 1.1//EN" "http://www.w3.org/Graphics/SVG/1.1/DTD/svg11.dtd">
<svg width="23.671875" height="52.91015625" xmlns="http://www.w3.org/2000/svg" xmlns:xlink="http://www.w3.org/1999/xlink" xmlns:xml="http://www.w3.org/XML/1998/namespace" version="1.1">
  <g>
    <g>
      <path style="fill:#FF0000;fill-opacity:1" d="M0,48.69140625L23.671875,48.69140625 23.671875,52.91015625 0,52.91015625 0,48.69140625z M11.71875,13.974609375L8.8916015625,14.501953125 6.8701171875,16.171875 5.654296875,19.130859375 5.3466796875,21.1376953125 5.244140625,23.525390625 5.244140625,29.296875 5.350341796875,31.768798828125 5.6689453125,33.8525390625 6.9287109375,36.9287109375 9.0087890625,38.671875 11.923828125,39.228515625 14.7509765625,38.701171875 16.7724609375,37.0166015625 17.98828125,34.04296875 18.2958984375,32.0361328125 18.3984375,29.6484375 18.3984375,23.90625 18.292236328125,21.434326171875 17.9736328125,19.3505859375 16.7138671875,16.259765625 14.6337890625,14.5166015625 11.71875,13.974609375z M12.099609375,9.609375L14.732666015625,9.810791015625 17.0068359375,10.4150390625 18.9257793426514,11.4440937042236 20.4931640625,12.919921875 21.7126445770264,14.8535175323486 22.587890625,17.255859375 23.1152324676514,20.15625 23.291015625,23.583984375 23.291015625,29.033203125 23.1079082489014,32.60009765625 22.55859375,35.625 21.6430644989014,38.133544921875 20.361328125,40.1513671875 18.7133769989014,41.689453125 16.69921875,42.7587890625 14.31884765625,43.385009765625 11.572265625,43.59375 8.93920803070068,43.392333984375 6.6650390625,42.7880859375 4.74609375,41.7626953125 3.1787109375,40.2978515625 1.95922815799713,38.375244140625 1.083984375,35.9765625 0.556640625,33.076171875 0.380859375,29.6484375 0.380859375,24.169921875 0.56396484375,20.625 1.11328125,17.607421875 2.02880811691284,15.0952167510986 3.310546875,13.06640625 4.95849609375,11.5173358917236 6.97265625,10.4443359375 9.35302639007568,9.818115234375 12.099609375,9.609375z M0,0L23.671875,0 23.671875,4.21875 0,4.21875 0,0z" />
    </g>
  </g>
</svg>