<?xml version="1.0" encoding="utf-8"?>
<!DOCTYPE svg PUBLIC "-//W3C//DTD SVG 1.1//EN" "http://www.w3.org/Graphics/SVG/1.1/DTD/svg11.dtd">
<svg width="39.55078125" height="36.416015625" xmlns="http://www.w3.org/2000/svg" xmlns:xlink="http://www.w3.org/1999/xlink" xmlns:xml="http://www.w3.org/XML/1998/namespace" version="1.1">
  <g>
    <g>
      <path style="fill:#FF0000;fill-opacity:1" d="M3.42773485183716,0L38.173828125,0 38.115234375,1.259765625 38.4521484375,4.74609375 39.55078125,7.998046875 35.09765625,9.814453125 34.0283203125,7.119140625 33.3984375,4.21875 23.3203125,4.21875 23.1115703582764,6.78589010238647 22.4853515625,9.2138671875 20.2880859375,13.7548828125 17.2119140625,17.958984375 13.740234375,21.943359375 10.546875,25.517578125 7.79296875,29.0478515625 5.830078125,32.6513671875 5.0390625,36.416015625 0,36.416015625 0.24169921875,33.951416015625 0.908203125,31.5966796875 3.1640625,27.158203125 6.26953125,23.0126953125 9.755859375,19.04296875 12.9345703125,15.439453125 15.673828125,11.8359375 17.5927734375,8.1298828125 18.310546875,4.21875 8.203125,4.21875 7.5732421875,7.119140625 6.50390625,9.814453125 2.05078125,7.998046875 3.1494140625,4.74609375 3.486328125,1.259765625 3.42773485183716,0z" />
    </g>
  </g>
</svg>