<?xml version="1.0" encoding="utf-8"?>
<!DOCTYPE svg PUBLIC "-//W3C//DTD SVG 1.1//EN" "http://www.w3.org/Graphics/SVG/1.1/DTD/svg11.dtd">
<svg width="24.90234375" height="52.91015625" xmlns="http://www.w3.org/2000/svg" xmlns:xlink="http://www.w3.org/1999/xlink" xmlns:xml="http://www.w3.org/XML/1998/namespace" version="1.1">
  <g>
    <g>
      <path style="fill:#FF0000;fill-opacity:1" d="M1.23046946525574,48.69140625L24.90234375,48.69140625 24.90234375,52.91015625 1.23046946525574,52.91015625 1.23046946525574,48.69140625z M12.7734375,9.609375L16.31103515625,10.04150390625 18.837890625,11.337890625 20.35400390625,13.3740253448486 20.859375,16.025390625 20.7861328125,17.1826171875 20.56640625,18.3984375 19.541015625,23.115234375 23.349609375,23.115234375 19.04296875,42.890625 14.12109375,42.890625 18.28125,23.73046875 14.443359375,23.73046875 15.41015625,19.189453125 15.5859375,18.2666015625 15.64453125,17.314453125 15.421142578125,15.9741230010986 14.7509765625,14.94140625 13.531494140625,14.2822284698486 11.66015625,14.0625 9.0234375,14.3701171875 6.2109375,15.146484375 5.6103515625,18.4130859375 4.453125,21.416015625 0,19.599609375 1.09863328933716,16.3916015625 1.43554663658142,13.212890625 1.37695336341858,11.923828125 7.353515625,10.283203125 12.7734375,9.609375z M1.23046946525574,0L24.90234375,0 24.90234375,4.21875 1.23046946525574,4.21875 1.23046946525574,0z" />
    </g>
  </g>
</svg>