<?xml version="1.0" encoding="utf-8"?>
<!DOCTYPE svg PUBLIC "-//W3C//DTD SVG 1.1//EN" "http://www.w3.org/Graphics/SVG/1.1/DTD/svg11.dtd">
<svg width="27.2460937500001" height="20.21484375" xmlns="http://www.w3.org/2000/svg" xmlns:xlink="http://www.w3.org/1999/xlink" xmlns:xml="http://www.w3.org/XML/1998/namespace" version="1.1">
  <g>
    <g>
      <path style="fill:#FF0000;fill-opacity:1" d="M13.623046875,2.34375L8.642578125,2.860107421875 5.126953125,4.4091796875 3.03955078125,6.866455078125 2.34375,10.107421875 3.03955078125,13.3667001724243 5.126953125,15.8203125 8.642578125,17.3584003448486 13.623046875,17.87109375 18.6035137176514,17.3547382354736 22.119140625,15.8056640625 24.2065410614014,13.3557138442993 24.90234375,10.13671875 24.2138671875,6.8701171875 22.119140625,4.4091796875 18.5888671875,2.87109375 13.623046875,2.34375z M13.623046875,0L16.7861919403076,0.16387939453125 19.5373516082764,0.655517578125 21.8765239715576,1.47491455078125 23.8037109375,2.6220703125 25.3097534179688,4.07501220703125 26.385498046875,5.811767578125 27.0309448242188,7.83233642578125 27.24609375,10.13671875 27.0309448242188,12.4392709732056 26.385498046875,14.4543476104736 25.3097534179688,16.1819477081299 23.8037109375,17.6220703125 21.8765239715576,18.7564105987549 19.5373516082764,19.5666522979736 16.7861919403076,20.0527973175049 13.623046875,20.21484375 10.4598999023438,20.0518817901611 7.70873975753784,19.5629901885986 5.36956739425659,18.7481708526611 3.4423828125,17.607421875 1.93634021282196,16.1608905792236 0.860595524311066,14.4287128448486 0.215148717164993,12.4108896255493 0,10.107421875 0.215148717164993,7.803955078125 0.860595524311066,5.7861328125 1.93634021282196,4.053955078125 3.4423828125,2.607421875 5.36956739425659,1.4666748046875 7.70873975753784,0.65185546875 10.4598999023438,0.1629638671875 13.623046875,0z" />
    </g>
  </g>
</svg>