<?xml version="1.0" encoding="utf-8"?>
<!DOCTYPE svg PUBLIC "-//W3C//DTD SVG 1.1//EN" "http://www.w3.org/Graphics/SVG/1.1/DTD/svg11.dtd">
<svg width="21.03515625" height="46.435546875" xmlns="http://www.w3.org/2000/svg" xmlns:xlink="http://www.w3.org/1999/xlink" xmlns:xml="http://www.w3.org/XML/1998/namespace" version="1.1">
  <g>
    <g>
      <path style="fill:#FF0000;fill-opacity:1" d="M10.517578125,2.34375L8.433837890625,2.74658203125 6.6943359375,3.955078125 5.27709865570068,5.86669921875 4.16015625,8.37890625 3.32885670661926,11.4404296875 2.7685546875,15 2.34375,23.203125 2.7685546875,31.40625 3.32885670661926,34.969482421875 4.16015625,38.0419921875 5.27709865570068,40.565185546875 6.6943359375,42.48046875 8.433837890625,43.68896484375 10.517578125,44.091796875 12.601318359375,43.68896484375 14.3408203125,42.48046875 15.7580547332764,40.565185546875 16.875,38.0419921875 17.7062969207764,34.969482421875 18.2666015625,31.40625 18.69140625,23.203125 18.2666015625,15 17.7062969207764,11.4404296875 16.875,8.37890625 15.7580547332764,5.86669921875 14.3408203125,3.955078125 12.601318359375,2.74658203125 10.517578125,2.34375z M10.517578125,0L12.945556640625,0.32958984375 15.0732421875,1.318359375 16.8859844207764,3.01025390625 18.369140625,5.44921875 19.5263652801514,8.6572265625 20.361328125,12.65625 20.8666973114014,17.4902362823486 21.03515625,23.203125 20.8666973114014,28.916015625 20.361328125,33.75 19.5263652801514,37.752685546875 18.369140625,40.9716796875 16.8859844207764,43.421630859375 15.0732421875,45.1171875 12.945556640625,46.10595703125 10.517578125,46.435546875 8.0712890625,46.10595703125 5.947265625,45.1171875 4.14550685882568,43.421630859375 2.666015625,40.9716796875 1.5087890625,37.752685546875 0.673828125,33.75 0.16845703125,28.916015625 0,23.203125 0.16845703125,17.4902362823486 0.673828125,12.65625 1.5087890625,8.6572265625 2.666015625,5.44921875 4.14550685882568,3.01025390625 5.947265625,1.318359375 8.0712890625,0.32958984375 10.517578125,0z" />
    </g>
  </g>
</svg>