<?xml version="1.0" encoding="utf-8"?>
<!DOCTYPE svg PUBLIC "-//W3C//DTD SVG 1.1//EN" "http://www.w3.org/Graphics/SVG/1.1/DTD/svg11.dtd">
<svg width="27.7734375" height="46.93359375" xmlns="http://www.w3.org/2000/svg" xmlns:xlink="http://www.w3.org/1999/xlink" xmlns:xml="http://www.w3.org/XML/1998/namespace" version="1.1">
  <g>
    <g>
      <path style="fill:#FF0000;fill-opacity:1" d="M9.814453125,2.841796875L7.822265625,3.251953125 6.5478515625,4.3212890625 5.8740234375,5.830078125 5.68359375,7.529296875 6.064453125,9.43359375 7.2802734375,11.19140625 9.4482421875,12.48046875 12.685546875,12.978515625 13.828125,12.919921875 15.087890625,12.626953125 14.9560546875,9.3896484375 14.296875,6.2255859375 12.71484375,3.80859375 11.46240234375,3.08349609375 9.814453125,2.841796875z M25.458984375,0L27.7734375,0.498047351837158 26.25,5.537109375 23.671875,9.6533203125 20.56640625,12.7001953125 17.431640625,14.53125 17.40234375,38.349609375 17.332763671875,40.792236328125 17.1826171875,42.7294921875 16.435546875,45.3515625 14.8828125,46.611328125 12.275390625,46.93359375 9.415283203125,46.556396484375 6.3427734375,45.4248046875 3.16772437095642,43.428955078125 0,40.458984375 1.43554639816284,38.583984375 4.306640625,41.2646484375 7.2509765625,43.1396484375 10.0048828125,44.23828125 12.275390625,44.58984375 13.564453125,44.384765625 14.4287109375,43.53515625 14.912109375,41.66015625 15.02197265625,40.21728515625 15.05859375,38.349609375 15.087890625,15.087890625 14.1796875,15.29296875 13.271484375,15.3515625 12.685546875,15.3369140625 12.099609375,15.322265625 8.349609375,14.765625 5.595703125,13.18359375 3.9111328125,10.72265625 3.33984375,7.529296875 3.6474609375,5.2734375 4.7021484375,2.98828125 6.6943359375,1.2158203125 9.814453125,0.498047351837158 12.7880859375,1.01074171066284 14.8828125,2.3876953125 16.23046875,4.39453125 16.9921875,6.7822265625 17.34375,9.3017578125 17.431640625,11.71875 19.482421875,10.48828125 21.85546875,8.056640625 24.0234375,4.5263671875 25.458984375,0z" />
    </g>
  </g>
</svg>