<?xml version="1.0" encoding="utf-8"?>
<!DOCTYPE svg PUBLIC "-//W3C//DTD SVG 1.1//EN" "http://www.w3.org/Graphics/SVG/1.1/DTD/svg11.dtd">
<svg width="27.59765625" height="36.943359375" xmlns="http://www.w3.org/2000/svg" xmlns:xlink="http://www.w3.org/1999/xlink" xmlns:xml="http://www.w3.org/XML/1998/namespace" version="1.1">
  <g>
    <g>
      <path style="fill:#FF0000;fill-opacity:1" d="M25.078125,0L27.59765625,0.556640625 27.59765625,4.306640625 25.634765625,3.779296875 24.3402080535889,4.03930711746216 23.4155254364014,4.81933689117432 22.8607158660889,6.11938571929932 22.67578125,7.939453125 22.7343730926514,10.1220722198486 22.91015625,11.748046875 22.734375,11.865234375 18.5888671875,10.1513690948486 14.765625,9.580078125 12.6846303939819,9.78424167633057 10.8068838119507,10.3967304229736 9.13238430023193,11.4175424575806 7.6611328125,12.8466796875 5.606689453125,16.651611328125 4.921875,21.533203125 5.614013671875,26.25 7.6904296875,29.853515625 9.19280910491943,31.1865234375 10.9313955307007,32.138671875 12.9061880111694,32.7099609375 15.1171875,32.900390625 18.92578125,32.24853515625 22.5,30.29296875 22.5,34.86328125 18.720703125,36.42333984375 14.296875,36.943359375 11.2197875976563,36.6806030273438 8.463134765625,35.892333984375 6.02691650390625,34.5785522460938 3.91113233566284,32.7392578125 2.20001196861267,30.4806518554688 0.977783143520355,27.908935546875 0.24444580078125,25.0241088867188 0,21.826171875 0.2581787109375,18.4725952148438 1.03271484375,15.413818359375 2.3236083984375,12.6498413085938 4.130859375,10.1806640625 6.3482666015625,8.14910984039307 8.86962890625,6.69799947738647 11.6949462890625,5.82733249664307 14.82421875,5.537109375 18.92578125,6.123046875 19.405517578125,3.76464915275574 20.7275390625,1.787109375 22.6867656707764,0.44677734375 25.078125,0z" />
    </g>
  </g>
</svg>