<?xml version="1.0" encoding="utf-8"?>
<!DOCTYPE svg PUBLIC "-//W3C//DTD SVG 1.1//EN" "http://www.w3.org/Graphics/SVG/1.1/DTD/svg11.dtd">
<svg width="44.1796875" height="42.01171875" xmlns="http://www.w3.org/2000/svg" xmlns:xlink="http://www.w3.org/1999/xlink" xmlns:xml="http://www.w3.org/XML/1998/namespace" version="1.1">
  <g>
    <g>
      <path style="fill:#FF0000;fill-opacity:1" d="M15.29296875,4.453125L15.29296875,37.55859375 21.5625,37.55859375 25.4635601043701,37.2821044921875 28.9050273895264,36.45263671875 31.8868999481201,35.0701904296875 34.4091796875,33.134765625 36.4151000976563,30.692138671875 37.847900390625,27.7880859375 38.7075805664063,24.422607421875 38.994140625,20.595703125 38.7263488769531,16.8122863769531 37.9229736328125,13.5333251953125 36.5840148925781,10.7588195800781 34.70947265625,8.48876953125 32.2993469238281,6.72317504882813 29.3536376953125,5.4620361328125 25.8723449707031,4.70535278320313 21.85546875,4.453125 15.29296875,4.453125z M10.4296875,0L21.97265625,0 27.1774291992188,0.319976806640625 31.688232421875,1.2799072265625 35.5050659179688,2.87979125976563 38.6279296875,5.11962890625 41.0568237304688,7.99942016601563 42.791748046875,11.5191650390625 43.8327026367188,15.6788635253906 44.1796875,20.478515625 43.7942504882813,25.1028442382813 42.637939453125,29.249267578125 40.7107543945313,32.9177856445313 38.0126953125,36.1083984375 34.6664428710938,38.6911010742188 30.794677734375,40.535888671875 26.3973999023438,41.6427612304688 21.474609375,42.01171875 10.37109375,42.01171875 10.37109375,4.453125 9.66796875,4.453125 7.562255859375,4.793701171875 5.9912109375,5.8154296875 5.013427734375,7.401123046875 4.6875,9.43359375 5.2734375,12.5390625 0.64453136920929,12.5390625 0,8.96484375 0.714111387729645,5.42724609375 2.8564453125,2.548828125 6.177978515625,0.63720703125 10.4296875,0z" />
    </g>
  </g>
</svg>