<?xml version="1.0" encoding="utf-8"?>
<!DOCTYPE svg PUBLIC "-//W3C//DTD SVG 1.1//EN" "http://www.w3.org/Graphics/SVG/1.1/DTD/svg11.dtd">
<svg width="27.59765625" height="45.1171875" xmlns="http://www.w3.org/2000/svg" xmlns:xlink="http://www.w3.org/1999/xlink" xmlns:xml="http://www.w3.org/XML/1998/namespace" version="1.1">
  <g>
    <g>
      <path style="fill:#FF0000;fill-opacity:1" d="M14.033203125,17.75390625L10.25390625,18.4826679229736 7.294921875,20.6689453125 5.38330078125,23.953857421875 4.74609375,27.978515625 4.74609375,32.16796875 5.3466796875,35.606689453125 7.1484375,38.4814453125 9.88769435882568,40.426025390625 13.30078125,41.07421875 15.355224609375,40.8682250976563 17.1826171875,40.250244140625 18.782958984375,39.2202758789063 20.15625,37.7783203125 22.0458965301514,33.863525390625 22.67578125,28.7109375 22.0971660614014,24.136962890625 20.361328125,20.6689453125 17.6220703125,18.4826679229736 14.033203125,17.75390625z M0,0L23.583984375,0 23.583984375,4.1015625 4.74609375,4.1015625 4.74609375,19.6875 4.86328125,19.6875 6.84081983566284,17.0727558135986 9.22851467132568,15.2050800323486 12.0263662338257,14.0844736099243 15.234375,13.7109375 17.9653911590576,13.9608774185181 20.3869609832764,14.7106952667236 22.4990825653076,15.9603891372681 24.3017578125,17.7099609375 25.7437133789063,19.8861694335938 26.773681640625,22.415771484375 27.3916625976563,25.2987670898438 27.59765625,28.53515625 27.3678588867188,32.1002197265625 26.678466796875,35.29541015625 25.5294799804688,38.1207275390625 23.9208984375,40.576171875 21.9131450653076,42.5628662109375 19.5666484832764,43.98193359375 16.8814067840576,44.8333740234375 13.857421875,45.1171875 11.1090078353882,44.80224609375 8.69384670257568,43.857421875 6.61193799972534,42.28271484375 4.86328125,40.078125 4.74609375,40.078125 4.74609375,44.4140625 0,44.4140625 0,0z" />
    </g>
  </g>
</svg>