<?xml version="1.0" encoding="utf-8"?>
<!DOCTYPE svg PUBLIC "-//W3C//DTD SVG 1.1//EN" "http://www.w3.org/Graphics/SVG/1.1/DTD/svg11.dtd">
<svg width="24.90234375" height="52.32421875" xmlns="http://www.w3.org/2000/svg" xmlns:xlink="http://www.w3.org/1999/xlink" xmlns:xml="http://www.w3.org/XML/1998/namespace" version="1.1">
  <g>
    <g>
      <path style="fill:#FF0000;fill-opacity:1" d="M0,21.62109375L4.77539110183716,21.62109375 4.77539110183716,38.7890625 5.22949266433716,42.94189453125 6.59179735183716,45.908203125 8.8623046875,47.68798828125 12.041015625,48.28125 15.245361328125,47.633056640625 17.8271484375,45.6884765625 19.5300273895264,42.696533203125 20.09765625,38.90625 20.09765625,21.62109375 24.90234375,21.62109375 24.90234375,51.62109375 20.09765625,51.62109375 20.09765625,46.875 19.98046875,46.875 18.28125,49.259033203125 16.171875,50.9619140625 13.65234375,51.983642578125 10.72265625,52.32421875 8.20953369140625,52.1246337890625 6.03149461746216,51.52587890625 4.18853807449341,50.5279541015625 2.68066453933716,49.130859375 1.50787389278412,47.3345947265625 0.670166254043579,45.13916015625 0.167541652917862,42.5445556640625 0,39.55078125 0,21.62109375z M18.33984375,10.166015625L19.471435546875,10.374755859375 20.4052734375,11.0009765625 21.0314922332764,11.927490234375 21.240234375,13.037109375 21.0205059051514,14.168701171875 20.361328125,15.1025390625 19.40185546875,15.728759765625 18.28125,15.9375 17.171630859375,15.72509765625 16.2451171875,15.087890625 15.618896484375,14.150390625 15.41015625,13.037109375 15.626220703125,11.927490234375 16.2744140625,11.0009765625 17.222900390625,10.374755859375 18.33984375,10.166015625z M7.08984422683716,10.166015625L8.155517578125,10.37109375 9.0673828125,10.986328125 9.693603515625,11.9091796875 9.90234375,13.037109375 9.68994140625,14.18701171875 9.052734375,15.1171875 8.12255859375,15.732421875 7.03125047683716,15.9375 5.89965867996216,15.72509765625 4.96582078933716,15.087890625 4.33960008621216,14.150390625 4.13085985183716,13.037109375 4.34692430496216,11.927490234375 4.99511766433716,11.0009765625 5.95092821121216,10.374755859375 7.08984422683716,10.166015625z M3.57421970367432,0L8.4375,0 15,9.609375 11.279296875,9.609375 3.57421970367432,0z" />
    </g>
  </g>
</svg>