<?xml version="1.0" encoding="utf-8"?>
<!DOCTYPE svg PUBLIC "-//W3C//DTD SVG 1.1//EN" "http://www.w3.org/Graphics/SVG/1.1/DTD/svg11.dtd">
<svg width="67.5" height="42.01171875" xmlns="http://www.w3.org/2000/svg" xmlns:xlink="http://www.w3.org/1999/xlink" xmlns:xml="http://www.w3.org/XML/1998/namespace" version="1.1">
  <g>
    <g>
      <path style="fill:#FF0000;fill-opacity:1" d="M4.921875,4.453125L4.921875,37.55859375 11.19140625,37.55859375 15.0933828353882,37.2821044921875 18.5375957489014,36.45263671875 21.5240459442139,35.0701904296875 24.052734375,33.134765625 26.0650634765625,30.692138671875 27.50244140625,27.7880859375 28.3648681640625,24.422607421875 28.65234375,20.595703125 28.3840942382813,16.8122863769531 27.579345703125,13.5333251953125 26.2380981445313,10.7588195800781 24.3603515625,8.48876953125 21.9461059570313,6.72317504882813 18.995361328125,5.4620361328125 15.5081167221069,4.70535278320313 11.484375,4.453125 4.921875,4.453125z M37.5,0L67.5,0 67.5,1.171875 42.890625,37.55859375 66.9140625,37.55859375 66.9140625,42.01171875 35.537109375,42.01171875 35.537109375,40.634765625 59.94140625,4.453125 37.5,4.453125 37.5,0z M0,0L11.6015625,0 16.8063354492188,0.319976806640625 21.317138671875,1.2799072265625 25.1339721679688,2.87979125976563 28.2568359375,5.11962890625 30.6857299804688,7.99942016601563 32.420654296875,11.5191650390625 33.4616088867188,15.6788635253906 33.80859375,20.478515625 33.4231567382813,25.1028442382813 32.266845703125,29.249267578125 30.3396606445313,32.9177856445313 27.6416015625,36.1083984375 24.2971782684326,38.6911010742188 20.4309062957764,40.535888671875 16.0427837371826,41.6427612304688 11.1328125,42.01171875 0,42.01171875 0,0z" />
    </g>
  </g>
</svg>