<?xml version="1.0" encoding="utf-8"?>
<!DOCTYPE svg PUBLIC "-//W3C//DTD SVG 1.1//EN" "http://www.w3.org/Graphics/SVG/1.1/DTD/svg11.dtd">
<svg width="32.51953125" height="44.82421875" xmlns="http://www.w3.org/2000/svg" xmlns:xlink="http://www.w3.org/1999/xlink" xmlns:xml="http://www.w3.org/XML/1998/namespace" version="1.1">
  <g>
    <g>
      <path style="fill:#FF0000;fill-opacity:1" d="M14.4140625,4.04296875L12.3202505111694,4.23889255523682 10.4626455307007,4.82666158676147 8.84124660491943,5.80627536773682 7.4560546875,7.177734375 5.55541944503784,10.89111328125 4.921875,15.76171875 5.53344678878784,19.932861328125 7.3681640625,23.2470703125 10.1843252182007,25.411376953125 13.740234375,26.1328125 17.406005859375,25.42236328125 20.3173828125,23.291015625 22.2180156707764,20.03173828125 22.8515625,15.9375 22.8515625,12.71484375 22.2473125457764,9.39697265625 20.4345703125,6.591796875 17.720947265625,4.68017721176147 14.4140625,4.04296875z M13.740234375,0L16.5765380859375,0.303956151008606 19.02099609375,1.21582174301147 21.0736083984375,2.73559665679932 22.734375,4.86328125 22.8515625,4.86328125 22.8515625,0.703125 27.65625,0.703125 27.65625,28.30078125 27.3046875,32.75390625 32.51953125,32.75390625 32.51953125,36.826171875 26.103515625,36.826171875 23.9044170379639,40.3253173828125 20.7934551239014,42.82470703125 16.7706279754639,44.3243408203125 11.8359375,44.82421875 6.62109327316284,44.296875 2.10937476158142,42.71484375 2.10937476158142,37.91015625 7.060546875,40.01953125 11.77734375,40.72265625 14.7418212890625,40.4791259765625 17.24853515625,39.74853515625 19.2974853515625,38.5308837890625 20.888671875,36.826171875 11.162109375,36.826171875 11.162109375,32.75390625 22.5,32.75390625 22.8515625,28.9453125 22.8515625,24.462890625 22.734375,24.462890625 20.804443359375,26.9879150390625 18.4423828125,28.79150390625 15.648193359375,29.8736572265625 12.421875,30.234375 9.78424072265625,29.989013671875 7.408447265625,29.2529296875 5.29449462890625,28.026123046875 3.44238257408142,26.30859375 1.93634009361267,24.195556640625 0.860595464706421,21.7822265625 0.215148791670799,19.068603515625 0,16.0546875 0.234374865889549,12.6370239257813 0.937499761581421,9.561767578125 2.10937476158142,6.82891845703125 3.74999976158142,4.4384765625 5.7806396484375,2.49664402008057 8.12255859375,1.10962057113647 10.7757568359375,0.277405858039856 13.740234375,0z" />
    </g>
  </g>
</svg>