<?xml version="1.0" encoding="utf-8"?>
<!DOCTYPE svg PUBLIC "-//W3C//DTD SVG 1.1//EN" "http://www.w3.org/Graphics/SVG/1.1/DTD/svg11.dtd">
<svg width="48.515625" height="57.978515625" xmlns="http://www.w3.org/2000/svg" xmlns:xlink="http://www.w3.org/1999/xlink" xmlns:xml="http://www.w3.org/XML/1998/namespace" version="1.1">
  <g>
    <g>
      <path style="fill:#FF0000;fill-opacity:1" d="M42.890625,13.857421875L47.6953125,13.857421875 47.6953125,42.59765625 47.5094566345215,46.0775756835938 46.9519004821777,49.134521484375 46.0226402282715,51.7684936523438 44.7216796875,53.9794921875 43.0746459960938,55.7290649414063 41.107177734375,56.978759765625 38.8192749023438,57.7285766601563 36.2109375,57.978515625 34.189453125,57.744140625 32.2265625,57.041015625 32.2265625,52.55859375 34.3359375,53.54736328125 36.328125,53.876953125 39.1992149353027,53.221435546875 41.2499961853027,51.2548828125 42.4804649353027,47.977294921875 42.890625,43.388671875 42.890625,13.857421875z M0,1.845703125L6.38671922683716,1.845703125 27.421875,34.8046875 28.505859375,36.533203125 29.12109375,37.6171875 29.23828125,37.6171875 29.0185546875,35.16357421875 28.9453125,31.435546875 28.9453125,1.845703125 33.8671875,1.845703125 33.8671875,43.857421875 27.83203125,43.857421875 6.21093797683716,10.37109375 4.86328172683716,7.734375 4.68750047683716,7.734375 4.79003953933716,8.6004638671875 4.86328172683716,9.85107421875 4.90722703933716,11.4862060546875 4.92187547683716,13.505859375 4.92187547683716,43.857421875 0,43.857421875 0,1.845703125z M45.3515625,0L46.5710411071777,0.223388671875 47.5927734375,0.8935546875 48.2849082946777,1.900634765625 48.515625,3.134765625 48.2849082946777,4.32861328125 47.5927734375,5.33203125 46.5710411071777,6.01318359375 45.3515625,6.240234375 44.1577110290527,6.0205078125 43.154296875,5.361328125 42.47314453125,4.365234375 42.24609375,3.134765625 42.47314453125,1.900634765625 43.154296875,0.8935546875 44.1577110290527,0.223388671875 45.3515625,0z" />
    </g>
  </g>
</svg>