<?xml version="1.0" encoding="utf-8"?>
<!DOCTYPE svg PUBLIC "-//W3C//DTD SVG 1.1//EN" "http://www.w3.org/Graphics/SVG/1.1/DTD/svg11.dtd">
<svg width="43.9453125" height="47.51953125" xmlns="http://www.w3.org/2000/svg" xmlns:xlink="http://www.w3.org/1999/xlink" xmlns:xml="http://www.w3.org/XML/1998/namespace" version="1.1">
  <g>
    <g>
      <path style="fill:#FF0000;fill-opacity:1" d="M20.0390625,8.5546875L16.8841552734375,8.8531494140625 14.04052734375,9.74853515625 11.5081787109375,11.2408447265625 9.287109375,13.330078125 7.4798583984375,15.9045419692993 6.18896484375,18.8525409698486 5.41442823410034,22.1740741729736 5.15624952316284,25.869140625 5.40801954269409,29.5614624023438 6.163330078125,32.874755859375 7.42218017578125,35.8090209960938 9.1845703125,38.3642578125 11.3516235351563,40.4342651367188 13.824462890625,41.912841796875 16.6030883789063,42.7999877929688 19.6875,43.095703125 22.9614238739014,42.813720703125 25.8691387176514,41.9677734375 28.4106426239014,40.557861328125 30.5859375,38.583984375 32.3291015625,36.1029052734375 33.57421875,33.17138671875 34.3212890625,29.7894287109375 34.5703125,25.95703125 34.32861328125,22.0330829620361 33.603515625,18.5815448760986 32.39501953125,15.6024179458618 30.703125,13.095703125 28.5864238739014,11.1090087890625 26.1035137176514,9.68994140625 23.2543926239014,8.8385009765625 20.0390625,8.5546875z M39.43359375,0L43.41796875,0 43.8134765625,1.7724609375 43.9453125,3.92578125 43.4326171875,6.78955078125 41.89453125,9.052734375 39.462890625,10.52490234375 36.26953125,11.015625 35.2734375,11.015625 37.2216796875,14.0386962890625 38.61328125,17.42431640625 39.4482421875,21.1724853515625 39.7265625,25.283203125 39.385986328125,30.1556396484375 38.3642578125,34.48974609375 36.661376953125,38.2855224609375 34.27734375,41.54296875 31.322021484375,44.15771484375 27.9052734375,46.025390625 24.027099609375,47.14599609375 19.6875,47.51953125 15.4421997070313,47.1514892578125 11.641845703125,46.04736328125 8.28643798828125,44.2071533203125 5.3759765625,41.630859375 3.02398681640625,38.4649658203125 1.343994140625,34.85595703125 0.33599853515625,30.8038330078125 0,26.30859375 0.3424072265625,21.49658203125 1.36962890625,17.197265625 3.0816650390625,13.41064453125 5.478515625,10.13671875 8.4649658203125,7.496337890625 11.94580078125,5.6103515625 15.9210205078125,4.478759765625 20.390625,4.1015625 23.4539775848389,4.3048095703125 26.3159160614014,4.91455078125 28.9764385223389,5.9307861328125 31.435546875,7.353515625 33.779296875,7.6171875 36.522216796875,7.379150390625 38.4814453125,6.6650390625 39.656982421875,5.474853515625 40.048828125,3.80859375 39.43359375,0z" />
    </g>
  </g>
</svg>