<?xml version="1.0" encoding="utf-8"?>
<!DOCTYPE svg PUBLIC "-//W3C//DTD SVG 1.1//EN" "http://www.w3.org/Graphics/SVG/1.1/DTD/svg11.dtd">
<svg width="24.9609375" height="42.71484375" xmlns="http://www.w3.org/2000/svg" xmlns:xlink="http://www.w3.org/1999/xlink" xmlns:xml="http://www.w3.org/XML/1998/namespace" version="1.1">
  <g>
    <g>
      <path style="fill:#FF0000;fill-opacity:1" d="M0,0L23.056640625,0 23.056640625,4.3359375 9.140625,4.3359375 7.646484375,16.640625 10.83984375,16.5234375 14.0304565429688,16.7340106964111 16.834716796875,17.3657245635986 19.2526245117188,18.4185810089111 21.2841796875,19.892578125 22.8927593231201,21.7364501953125 24.0417461395264,23.89892578125 24.7311382293701,26.3800048828125 24.9609375,29.1796875 24.7128276824951,32.0782470703125 23.9685039520264,34.68017578125 22.7279644012451,36.9854736328125 20.9912109375,38.994140625 18.8223266601563,40.6219482421875 16.285400390625,41.78466796875 13.3804321289063,42.4822998046875 10.107421875,42.71484375 5.16357421875,42.28271484375 1.40625023841858,40.986328125 1.40625023841858,35.888671875 5.74951171875,37.97607421875 10.166015625,38.671875 14.205322265625,38.038330078125 17.3583984375,36.1376953125 19.390869140625,33.204345703125 20.068359375,29.47265625 19.37255859375,25.777587890625 17.28515625,23.0126953125 13.9013671875,21.287841796875 9.31640625,20.712890625 7.65380859375,20.74951171875 5.595703125,20.859375 3.45703101158142,21.01318359375 2.60742211341858,21.064453125 4.62890625,4.3359375 0,4.3359375 0,0z" />
    </g>
  </g>
</svg>