<?xml version="1.0" encoding="utf-8"?>
<!DOCTYPE svg PUBLIC "-//W3C//DTD SVG 1.1//EN" "http://www.w3.org/Graphics/SVG/1.1/DTD/svg11.dtd">
<svg width="57.333984375" height="46.0546875" xmlns="http://www.w3.org/2000/svg" xmlns:xlink="http://www.w3.org/1999/xlink" xmlns:xml="http://www.w3.org/XML/1998/namespace" version="1.1">
  <g>
    <g>
      <path style="fill:#FF0000;fill-opacity:1" d="M14.35546875,18.69140625L12.2753896713257,18.8928241729736 10.4296865463257,19.4970722198486 8.81835842132568,20.5041522979736 7.44140625,21.9140625 5.5517578125,25.751953125 4.921875,30.8203125 5.526123046875,35.460205078125 7.3388671875,39.0087890625 8.65081691741943,40.3225708007813 10.1696767807007,41.260986328125 11.8954458236694,41.8240356445313 13.828125,42.01171875 17.464599609375,41.28662109375 20.3466796875,39.111328125 22.2253398895264,35.830078125 22.8515625,31.787109375 22.8515625,27.36328125 22.2509746551514,24.0087890625 20.44921875,21.2109375 17.724609375,19.3212909698486 14.35546875,18.69140625z M34.189453125,15.3515625L57.333984375,15.3515625 57.333984375,16.728515625 39.580078125,41.25 57.158203125,41.25 57.158203125,45.3515625 32.51953125,45.3515625 32.51953125,43.857421875 50.2734375,19.453125 34.189453125,19.453125 34.189453125,15.3515625z M22.8515625,0.937499523162842L27.65625,0.937499523162842 27.65625,45.3515625 22.8515625,45.3515625 22.8515625,40.25390625 22.734375,40.25390625 20.83740234375,42.791748046875 18.486328125,44.6044921875 15.68115234375,45.692138671875 12.421875,46.0546875 9.73663330078125,45.8029174804688 7.335205078125,45.047607421875 5.21759033203125,43.7887573242188 3.3837890625,42.0263671875 1.90338134765625,39.8300170898438 0.845947265625,37.269287109375 0.21148681640625,34.3441772460938 0,31.0546875 0.234375,27.5189208984375 0.9375,24.35302734375 2.109375,21.5570068359375 3.75,19.130859375 5.7806396484375,17.1698017120361 8.12255859375,15.7690448760986 10.7757568359375,14.9285898208618 13.740234375,14.6484375 16.6204833984375,14.9523935317993 19.07958984375,15.8642597198486 21.1175537109375,17.3840351104736 22.734375,19.51171875 22.8515625,19.51171875 22.8515625,0.937499523162842z M38.02734375,0L41.396484375,0 46.201171875,6.708984375 51.005859375,0 54.4921875,0 48.22265625,9.66796875 44.35546875,9.66796875 38.02734375,0z" />
    </g>
  </g>
</svg>