<?xml version="1.0" encoding="utf-8"?>
<!DOCTYPE svg PUBLIC "-//W3C//DTD SVG 1.1//EN" "http://www.w3.org/Graphics/SVG/1.1/DTD/svg11.dtd">
<svg width="38.61328125" height="50.09765625" xmlns="http://www.w3.org/2000/svg" xmlns:xlink="http://www.w3.org/1999/xlink" xmlns:xml="http://www.w3.org/XML/1998/namespace" version="1.1">
  <g>
    <g>
      <path style="fill:#FF0000;fill-opacity:1" d="M34.1015625,0L38.0859375,0 38.61328125,3.984375 38.1536865234375,6.7327880859375 36.77490234375,8.82568359375 34.4769287109375,10.2630615234375 31.259765625,11.044921875 31.259765625,32.40234375 31.0102844238281,36.5496826171875 30.2618408203125,40.14404296875 29.0144348144531,43.1854248046875 27.26806640625,45.673828125 25.0227355957031,47.6092529296875 22.2784423828125,48.99169921875 19.0351867675781,49.8211669921875 15.29296875,50.09765625 11.7086791992188,49.8316955566406 8.602294921875,49.0338134765625 5.97381591796875,47.7040100097656 3.8232421875,45.84228515625 2.15057373046875,43.4486389160156 0.955810546875,40.5230712890625 0.23895263671875,37.0655822753906 0,33.076171875 0,7.3828125 4.921875,7.3828125 4.921875,32.75390625 5.0921630859375,35.7820129394531 5.60302734375,38.4063720703125 6.4544677734375,40.6269836425781 7.646484375,42.44384765625 9.1790771484375,43.8569641113281 11.05224609375,44.8663330078125 13.2659912109375,45.4719543457031 15.8203125,45.673828125 18.2853698730469,45.4788208007813 20.4217510223389,44.893798828125 22.2294597625732,43.9187622070313 23.7084941864014,42.5537109375 24.8588542938232,40.7986450195313 25.6805400848389,38.653564453125 26.1735534667969,36.1184692382813 26.337890625,33.193359375 26.337890625,7.3828125 30.64453125,7.3828125 32.252197265625,7.122802734375 33.5595703125,6.3427734375 34.427490234375,5.203857421875 34.716796875,3.86718702316284 34.1015625,0z" />
    </g>
  </g>
</svg>