<?xml version="1.0" encoding="utf-8"?>
<!DOCTYPE svg PUBLIC "-//W3C//DTD SVG 1.1//EN" "http://www.w3.org/Graphics/SVG/1.1/DTD/svg11.dtd">
<svg width="36.2109375" height="56.1328125" xmlns="http://www.w3.org/2000/svg" xmlns:xlink="http://www.w3.org/1999/xlink" xmlns:xml="http://www.w3.org/XML/1998/namespace" version="1.1">
  <g>
    <g>
      <path style="fill:#FF0000;fill-opacity:1" d="M17.87109375,43.154296875L16.39892578125,46.75048828125 15.908203125,49.27734375 16.39892578125,51.2109375 17.87109375,51.85546875 19.365234375,51.2109375 19.86328125,49.27734375 19.365234375,46.75048828125 17.87109375,43.154296875z M0,0L5.478515625,0 17.109375,31.9921875 17.958984375,35.2734375 18.076171875,35.2734375 19.04296875,31.9921875 30.908203125,0 36.2109375,0 21.15234375,39.140625 21.328125,39.4921875 22.7893047332764,42.615966796875 23.8330059051514,45.3076171875 24.4592266082764,47.567138671875 24.66796875,49.39453125 24.1662578582764,52.012939453125 22.6611328125,54.1845703125 20.430908203125,55.645751953125 17.75390625,56.1328125 15.16845703125,55.65673828125 13.037109375,54.228515625 11.60888671875,52.06787109375 11.1328125,49.39453125 11.7333984375,45.8935546875 12.7478017807007,43.480224609375 14.58984375,39.66796875 14.82421875,39.19921875 0,0z" />
    </g>
  </g>
</svg>