<?xml version="1.0" encoding="utf-8"?>
<!DOCTYPE svg PUBLIC "-//W3C//DTD SVG 1.1//EN" "http://www.w3.org/Graphics/SVG/1.1/DTD/svg11.dtd">
<svg width="39.7265625" height="31.40625" xmlns="http://www.w3.org/2000/svg" xmlns:xlink="http://www.w3.org/1999/xlink" xmlns:xml="http://www.w3.org/XML/1998/namespace" version="1.1">
  <g>
    <g>
      <path style="fill:#FF0000;fill-opacity:1" d="M15.234375,4.04296875L13.0316152572632,4.23980808258057 11.0522451400757,4.83032369613647 9.29626369476318,5.81451511383057 7.763671875,7.1923828125 5.63232421875,10.938720703125 4.92187547683716,15.87890625 5.643310546875,20.68359375 7.8076171875,24.31640625 9.37591457366943,25.6494140625 11.1950674057007,26.6015625 13.2650747299194,27.1728515625 15.5859375,27.36328125 18.55224609375,27.0849609375 21.005859375,26.25 21.005859375,4.921875 17.70263671875,4.26269674301147 15.234375,4.04296875z M15.5859375,0L18.544921875,0.241700649261475 22.5,0.966796875 26.4550762176514,1.71386861801147 29.4140625,1.962890625 34.599609375,1.47216939926147 39.7265625,0 39.7265625,30.703125 34.921875,30.703125 34.921875,5.33203125 29.296875,6.03515625 25.693359375,5.80078125 25.693359375,28.88671875 20.50048828125,30.7763671875 15.17578125,31.40625 11.8927001953125,31.1471557617188 8.95751953125,30.369873046875 6.3702392578125,29.0744018554688 4.130859375,27.2607421875 2.3236083984375,25.0021362304688 1.03271484375,22.371826171875 0.2581787109375,19.3698120117188 0,15.99609375 0.27099609375,12.520751953125 1.083984375,9.4189453125 2.43896484375,6.690673828125 4.3359375,4.3359375 6.6650390625,2.43896579742432 9.31640625,1.08398580551147 12.2900390625,0.270997166633606 15.5859375,0z" />
    </g>
  </g>
</svg>