<?xml version="1.0" encoding="utf-8"?>
<!DOCTYPE svg PUBLIC "-//W3C//DTD SVG 1.1//EN" "http://www.w3.org/Graphics/SVG/1.1/DTD/svg11.dtd">
<svg width="23.7011718750001" height="46.0546875" xmlns="http://www.w3.org/2000/svg" xmlns:xlink="http://www.w3.org/1999/xlink" xmlns:xml="http://www.w3.org/XML/1998/namespace" version="1.1">
  <g>
    <g>
      <path style="fill:#FF0000;fill-opacity:1" d="M18.896484375,30.17578125L11.66015625,31.171875 8.73046875,31.820068359375 6.62109375,32.8271484375 5.34667873382568,34.471435546875 4.921875,37.03125 5.31371974945068,39.027099609375 6.4892578125,40.6201171875 8.316650390625,41.663818359375 10.6640625,42.01171875 13.927001953125,41.385498046875 16.5673828125,39.5068359375 18.314208984375,36.668701171875 18.896484375,33.1640625 18.896484375,30.17578125z M13.125,14.6484375L17.7520732879639,15.3479013442993 21.0571269989014,17.4462909698486 23.0401592254639,20.9436054229736 23.701171875,25.83984375 23.701171875,45.3515625 18.896484375,45.3515625 18.896484375,40.6640625 18.779296875,40.6640625 17.0269775390625,43.0224609375 14.90478515625,44.70703125 12.4127197265625,45.7177734375 9.55078125,46.0546875 5.55541944503784,45.46142578125 2.53417944908142,43.681640625 0.633544683456421,40.92041015625 0,37.3828125 0.61889636516571,33.6181640625 2.47558569908142,30.732421875 5.570068359375,28.7255859375 9.90234375,27.59765625 18.896484375,26.337890625 18.5101318359375,22.9925556182861 17.35107421875,20.6030292510986 15.4193115234375,19.1693134307861 12.71484375,18.69140625 10.07080078125,18.9221210479736 7.55859375,19.6142597198486 5.17822217941284,20.7678241729736 2.92968678474426,22.3828125 2.92968678474426,17.4609375 7.6904296875,15.3515644073486 13.125,14.6484375z M4.306640625,0L7.67578125,0 12.48046875,6.708984375 17.28515625,0 20.771484375,0 14.501953125,9.66796875 10.634765625,9.66796875 4.306640625,0z" />
    </g>
  </g>
</svg>