<?xml version="1.0" encoding="utf-8"?>
<!DOCTYPE svg PUBLIC "-//W3C//DTD SVG 1.1//EN" "http://www.w3.org/Graphics/SVG/1.1/DTD/svg11.dtd">
<svg width="39.580078125" height="57.978515625" xmlns="http://www.w3.org/2000/svg" xmlns:xlink="http://www.w3.org/1999/xlink" xmlns:xml="http://www.w3.org/XML/1998/namespace" version="1.1">
  <g>
    <g>
      <path style="fill:#FF0000;fill-opacity:1" d="M33.955078125,13.857421875L38.759765625,13.857421875 38.759765625,42.59765625 38.5739135742188,46.0775756835938 38.016357421875,49.134521484375 37.0870971679688,51.7684936523438 35.7861328125,53.9794921875 34.1390991210938,55.7290649414063 32.171630859375,56.978759765625 29.8837280273438,57.7285766601563 27.275390625,57.978515625 25.2539043426514,57.744140625 23.291015625,57.041015625 23.291015625,52.55859375 25.4003887176514,53.54736328125 27.392578125,53.876953125 30.263671875,53.221435546875 32.314453125,51.2548828125 33.544921875,47.977294921875 33.955078125,43.388671875 33.955078125,13.857421875z M14.765625,13.154296875L17.0819072723389,13.3529672622681 19.1088848114014,13.9489765167236 20.8465557098389,14.9423227310181 22.294921875,16.3330078125 24.2504863739014,20.2185077667236 24.90234375,25.517578125 24.90234375,43.857421875 20.09765625,43.857421875 20.09765625,26.748046875 19.6618633270264,22.5695819854736 18.3544902801514,19.5849628448486 16.1755352020264,17.7941913604736 13.125,17.197265625 9.83276176452637,17.8747577667236 7.16308546066284,19.9072265625 5.39428663253784,22.972412109375 4.80468702316284,26.748046875 4.80468702316284,43.857421875 0,43.857421875 0,13.857421875 4.80468702316284,13.857421875 4.80468702316284,18.837890625 4.92187452316284,18.837890625 6.81152248382568,16.3513202667236 9.08203029632568,14.5751972198486 11.7333974838257,13.5095224380493 14.765625,13.154296875z M36.416015625,0L37.635498046875,0.223388671875 38.6572265625,0.8935546875 39.349365234375,1.900634765625 39.580078125,3.134765625 39.349365234375,4.32861328125 38.6572265625,5.33203125 37.635498046875,6.01318359375 36.416015625,6.240234375 35.22216796875,6.0205078125 34.21875,5.361328125 33.53759765625,4.365234375 33.310546875,3.134765625 33.53759765625,1.900634765625 34.21875,0.8935546875 35.22216796875,0.223388671875 36.416015625,0z" />
    </g>
  </g>
</svg>