<?xml version="1.0" encoding="utf-8"?>
<!DOCTYPE svg PUBLIC "-//W3C//DTD SVG 1.1//EN" "http://www.w3.org/Graphics/SVG/1.1/DTD/svg11.dtd">
<svg width="61.494140625" height="45.3515625" xmlns="http://www.w3.org/2000/svg" xmlns:xlink="http://www.w3.org/1999/xlink" xmlns:xml="http://www.w3.org/XML/1998/namespace" version="1.1">
  <g>
    <g>
      <path style="fill:#FF0000;fill-opacity:1" d="M38.349609375,15.3515625L61.494140625,15.3515625 61.494140625,16.728515625 43.740234375,41.25 61.318359375,41.25 61.318359375,45.3515625 36.6796875,45.3515625 36.6796875,43.857421875 54.43359375,19.453125 38.349609375,19.453125 38.349609375,15.3515625z M4.921875,7.79296875L4.921875,40.8984375 11.19140625,40.8984375 15.0933828353882,40.6219482421875 18.5375957489014,39.79248046875 21.5240459442139,38.4100341796875 24.052734375,36.474609375 26.0650634765625,34.031982421875 27.50244140625,31.1279296875 28.3648681640625,27.762451171875 28.65234375,23.935546875 28.3840942382813,20.1521301269531 27.579345703125,16.8731689453125 26.2380981445313,14.0986633300781 24.3603515625,11.82861328125 21.9461059570313,10.0630187988281 18.995361328125,8.8018798828125 15.5081167221069,8.04519653320313 11.484375,7.79296875 4.921875,7.79296875z M0,3.33984375L11.6015625,3.33984375 16.8063354492188,3.65982055664063 21.317138671875,4.6197509765625 25.1339721679688,6.21963500976563 28.2568359375,8.45947265625 30.6857299804688,11.3392639160156 32.420654296875,14.8590087890625 33.4616088867188,19.0187072753906 33.80859375,23.818359375 33.4231567382813,28.4426879882813 32.266845703125,32.589111328125 30.3396606445313,36.2576293945313 27.6416015625,39.4482421875 24.2971782684326,42.0309448242188 20.4309062957764,43.875732421875 16.0427837371826,44.9826049804688 11.1328125,45.3515625 0,45.3515625 0,3.33984375z M42.158203125,0L45.52734375,0 50.33203125,6.708984375 55.13671875,0 58.623046875,0 52.353515625,9.66796875 48.486328125,9.66796875 42.158203125,0z" />
    </g>
  </g>
</svg>