<?xml version="1.0" encoding="utf-8"?>
<!DOCTYPE svg PUBLIC "-//W3C//DTD SVG 1.1//EN" "http://www.w3.org/Graphics/SVG/1.1/DTD/svg11.dtd">
<svg width="16.40625" height="43.0078125" xmlns="http://www.w3.org/2000/svg" xmlns:xlink="http://www.w3.org/1999/xlink" xmlns:xml="http://www.w3.org/XML/1998/namespace" version="1.1">
  <g>
    <g>
      <path style="fill:#FF0000;fill-opacity:1" d="M13.125,12.48046875L14.7802734375,12.5830097198486 15.99609375,12.890625 15.99609375,17.87109375 14.4580078125,17.1459980010986 12.36328125,16.904296875 9.53979396820068,17.6293964385986 7.2216796875,19.8046875 5.672607421875,23.232421875 5.15625,27.71484375 5.15625,43.0078125 0.3515625,43.0078125 0.3515625,13.0078125 5.15625,13.0078125 5.15625,19.189453125 5.2734375,19.189453125 6.56982421875,16.3732929229736 8.408203125,14.2529296875 10.6420888900757,12.9235858917236 13.125,12.48046875z M8.203125,0L11.31591796875,0.487060546875 13.857421875,1.9482421875 15.62255859375,4.178466796875 16.40625,6.97265625 13.30078125,6.97265625 12.718505859375,5.1910400390625 11.6748046875,3.91845703125 10.169677734375,3.1549072265625 8.203125,2.900390625 6.236572265625,3.1549072265625 4.7314453125,3.91845703125 3.68774437904358,5.1910400390625 3.10546922683716,6.97265625 0,6.97265625 0.783691346645355,4.16015625 2.54882764816284,1.93359375 5.09033203125,0.4833984375 8.203125,0z" />
    </g>
  </g>
</svg>