<?xml version="1.0" encoding="utf-8"?>
<!DOCTYPE svg PUBLIC "-//W3C//DTD SVG 1.1//EN" "http://www.w3.org/Graphics/SVG/1.1/DTD/svg11.dtd">
<svg width="29.35546875" height="42.01171875" xmlns="http://www.w3.org/2000/svg" xmlns:xlink="http://www.w3.org/1999/xlink" xmlns:xml="http://www.w3.org/XML/1998/namespace" version="1.1">
  <g>
    <g>
      <path style="fill:#FF0000;fill-opacity:1" d="M17.255859375,9.462890625L15.0595083236694,9.66888523101807 13.0700674057007,10.2868671417236 11.2875356674194,11.3168344497681 9.7119140625,12.7587890625 7.503662109375,16.571044921875 6.767578125,21.416015625 7.459716796875,26.1328125 8.46586990356445,27.8789405822754 19.3028812408447,9.78781509399414 17.255859375,9.462890625z M25.166015625,0L29.35546875,0 24.404296875,8.2750358581543 24.404296875,11.806640625 22.7841472625732,10.982837677002 10.961935043335,30.741641998291 12.777099609375,32.021484375 14.7518920898438,32.5927734375 16.962890625,32.783203125 20.771484375,32.13134765625 24.345703125,30.17578125 24.345703125,34.74609375 20.56640625,36.30615234375 16.142578125,36.826171875 13.0892944335938,36.5652465820313 10.345458984375,35.782470703125 8.64470958709717,34.6144866943359 4.21875047683716,42.01171875 0,42.01171875 5.69531536102295,32.5040550231934 2.83081078529358,27.857666015625 2.09197998046875,24.9966430664063 1.84570336341858,21.826171875 2.1112060546875,18.3023071289063 2.90771484375,15.142822265625 4.2352294921875,12.3477172851563 6.09375,9.9169921875 8.3953857421875,7.94952487945557 11.05224609375,6.54419088363647 14.0643310546875,5.70098972320557 17.431640625,5.419921875 21.15234375,5.78613471984863 21.6078109741211,5.94000816345215 25.166015625,0z" />
    </g>
  </g>
</svg>