<?xml version="1.0" encoding="utf-8"?>
<!DOCTYPE svg PUBLIC "-//W3C//DTD SVG 1.1//EN" "http://www.w3.org/Graphics/SVG/1.1/DTD/svg11.dtd">
<svg width="28.30078125" height="45.05859375" xmlns="http://www.w3.org/2000/svg" xmlns:xlink="http://www.w3.org/1999/xlink" xmlns:xml="http://www.w3.org/XML/1998/namespace" version="1.1">
  <g>
    <g>
      <path style="fill:#FF0000;fill-opacity:1" d="M11.220703125,0L15.289306640625,0.18310546875 18.7939453125,0.732421875 21.734619140625,1.64794921875 24.111328125,2.9296875 25.9442119598389,4.48974609375 27.2534160614014,6.240234375 28.0389385223389,8.18115234375 28.30078125,10.3125 27.9455547332764,12.8942880630493 26.8798828125,15.3076171875 25.9689311981201,16.5518207550049 24.6569805145264,17.9553241729736 22.9440288543701,19.5181293487549 20.830078125,21.240234375 18.372802734375,23.411865234375 16.8017578125,25.4150390625 15.955810546875,27.667236328125 15.673828125,30.5859375 15.673828125,45.05859375 10.8984375,45.05859375 10.8984375,30.5859375 11.2390127182007,27.0263671875 12.2607421875,24.2578125 14.278564453125,21.68701171875 17.607421875,18.720703125 20.716552734375,16.0107440948486 22.4267578125,14.033203125 23.1848125457764,12.37060546875 23.4375,10.60546875 22.7307109832764,8.04931640625 20.6103515625,5.947265625 18.9614868164063,5.126953125 16.842041015625,4.541015625 14.2520141601563,4.189453125 11.19140625,4.072265625 5.22949171066284,4.62890625 0,6.298828125 0,1.875 5.16357374191284,0.46875 11.220703125,0z" />
    </g>
  </g>
</svg>