<?xml version="1.0" encoding="utf-8"?>
<!DOCTYPE svg PUBLIC "-//W3C//DTD SVG 1.1//EN" "http://www.w3.org/Graphics/SVG/1.1/DTD/svg11.dtd">
<svg width="34.8046875" height="42.01171875" xmlns="http://www.w3.org/2000/svg" xmlns:xlink="http://www.w3.org/1999/xlink" xmlns:xml="http://www.w3.org/XML/1998/namespace" version="1.1">
  <g>
    <g>
      <path style="fill:#FF0000;fill-opacity:1" d="M9.609375,4.453125L9.609375,19.6875 16.2890625,19.6875 19.7021484375,19.130859375 22.412109375,17.5341796875 24.19921875,14.9853515625 24.84375,11.6015625 24.2980937957764,8.602294921875 22.6611328125,6.3427734375 19.991455078125,4.925537109375 16.34765625,4.453125 9.609375,4.453125z M4.6875,0L17.2265625,0 22.3095703125,0.6884765625 26.3525390625,2.783203125 29.033203125,6.2841796875 29.7582988739014,8.558349609375 30,11.19140625 29.3408203125,15.2197265625 27.4658203125,18.486328125 24.5361328125,20.9326171875 20.68359375,22.5 20.68359375,22.6171875 22.5146484375,23.6865234375 23.994140625,25.107421875 25.3857421875,26.9677734375 26.923828125,29.384765625 34.8046875,42.01171875 28.9453125,42.01171875 21.9140625,30.234375 20.0390625,27.4365234375 18.1787109375,25.546875 16.1279296875,24.4775390625 13.65234375,24.140625 9.609375,24.140625 9.609375,42.01171875 4.6875,42.01171875 4.6875,24.140625 0,24.140625 0,19.6875 4.6875,19.6875 4.6875,0z" />
    </g>
  </g>
</svg>