<?xml version="1.0" encoding="utf-8"?>
<!DOCTYPE svg PUBLIC "-//W3C//DTD SVG 1.1//EN" "http://www.w3.org/Graphics/SVG/1.1/DTD/svg11.dtd">
<svg width="24.90234375" height="45.29296875" xmlns="http://www.w3.org/2000/svg" xmlns:xlink="http://www.w3.org/1999/xlink" xmlns:xml="http://www.w3.org/XML/1998/namespace" version="1.1">
  <g>
    <g>
      <path style="fill:#FF0000;fill-opacity:1" d="M14.765625,14.58984375L17.0819072723389,14.7885141372681 19.1088848114014,15.3845233917236 20.8465557098389,16.3778705596924 22.294921875,17.7685546875 24.2504863739014,21.6540546417236 24.90234375,26.953125 24.90234375,45.29296875 20.09765625,45.29296875 20.09765625,28.18359375 19.6618633270264,24.0051288604736 18.3544902801514,21.0205097198486 16.1755352020264,19.2297382354736 13.125,18.6328125 9.83276176452637,19.3103046417236 7.16308546066284,21.3427734375 5.39428663253784,24.407958984375 4.80468702316284,28.18359375 4.80468702316284,45.29296875 0,45.29296875 0,15.29296875 4.80468702316284,15.29296875 4.80468702316284,20.2734375 4.92187452316284,20.2734375 6.81152248382568,17.7868671417236 9.08203029632568,16.0107440948486 11.7333974838257,14.9450693130493 14.765625,14.58984375z M3.48632764816284,0L8.408203125,0 14.8828125,9.609375 11.162109375,9.609375 3.48632764816284,0z" />
    </g>
  </g>
</svg>