<?xml version="1.0" encoding="utf-8"?>
<!DOCTYPE svg PUBLIC "-//W3C//DTD SVG 1.1//EN" "http://www.w3.org/Graphics/SVG/1.1/DTD/svg11.dtd">
<svg width="19.51171875" height="57.978515625" xmlns="http://www.w3.org/2000/svg" xmlns:xlink="http://www.w3.org/1999/xlink" xmlns:xml="http://www.w3.org/XML/1998/namespace" version="1.1">
  <g>
    <g>
      <path style="fill:#FF0000;fill-opacity:1" d="M10.6640625,13.857421875L15.46875,13.857421875 15.46875,27.333984375 19.51171875,27.333984375 19.51171875,31.2890625 15.46875,31.2890625 15.46875,42.59765625 15.2828979492188,46.0775756835938 14.725341796875,49.134521484375 13.7960815429688,51.7684936523438 12.4951171875,53.9794921875 10.8480834960938,55.7290649414063 8.880615234375,56.978759765625 6.59271240234375,57.7285766601563 3.984375,57.978515625 1.96289074420929,57.744140625 0,57.041015625 0,52.55859375 2.109375,53.54736328125 4.1015625,53.876953125 6.97265625,53.221435546875 9.0234375,51.2548828125 10.25390625,47.977294921875 10.6640625,43.388671875 10.6640625,31.2890625 6.62109327316284,31.2890625 6.62109327316284,27.333984375 10.6640625,27.333984375 10.6640625,13.857421875z M13.125,0L14.344482421875,0.223388671875 15.3662109375,0.8935546875 16.058349609375,1.900634765625 16.2890625,3.134765625 16.058349609375,4.32861328125 15.3662109375,5.33203125 14.344482421875,6.01318359375 13.125,6.240234375 11.93115234375,6.0205078125 10.927734375,5.361328125 10.24658203125,4.365234375 10.01953125,3.134765625 10.24658203125,1.900634765625 10.927734375,0.8935546875 11.93115234375,0.223388671875 13.125,0z" />
    </g>
  </g>
</svg>