<?xml version="1.0" encoding="utf-8"?>
<!DOCTYPE svg PUBLIC "-//W3C//DTD SVG 1.1//EN" "http://www.w3.org/Graphics/SVG/1.1/DTD/svg11.dtd">
<svg width="34.16015625" height="56.25" xmlns="http://www.w3.org/2000/svg" xmlns:xlink="http://www.w3.org/1999/xlink" xmlns:xml="http://www.w3.org/XML/1998/namespace" version="1.1">
  <g>
    <g>
      <path style="fill:#FF0000;fill-opacity:1" d="M21.796875,12.83203125L28.10302734375,13.388671875 33.310546875,15.05859375 33.310546875,20.5078125 30.64453125,19.097900390625 27.744140625,18.0908203125 24.609375,17.486572265625 21.240234375,17.28515625 17.8692626953125,17.589111328125 14.81689453125,18.5009765625 12.0831298828125,20.020751953125 9.66796875,22.1484375 7.694091796875,24.7595233917236 6.2841796875,27.7294940948486 5.438232421875,31.0583515167236 5.15625,34.74609375 5.4180908203125,38.5171508789063 6.20361328125,41.861572265625 7.5128173828125,44.7793579101563 9.345703125,47.2705078125 11.627197265625,49.2636108398438 14.2822265625,50.687255859375 17.310791015625,51.5414428710938 20.712890625,51.826171875 25.3051738739014,51.33544921875 29.23828125,49.86328125 29.23828125,38.0859375 20.0390625,38.0859375 20.0390625,33.6328125 34.16015625,33.6328125 34.16015625,52.67578125 30.908203125,54.239501953125 27.48046875,55.3564453125 23.876953125,56.026611328125 20.09765625,56.25 15.8157348632813,55.887451171875 11.964111328125,54.7998046875 8.54278564453125,52.987060546875 5.5517578125,50.44921875 3.12286376953125,47.314453125 1.387939453125,43.7109375 0.34698486328125,39.638671875 0,35.09765625 0.38543701171875,30.4385375976563 1.541748046875,26.217041015625 3.46893310546875,22.4331665039063 6.1669921875,19.0869140625 9.45648193359375,16.3504028320313 13.157958984375,14.395751953125 17.2714233398438,13.2229614257813 21.796875,12.83203125z M23.876953125,0L28.740234375,0 21.064453125,9.609375 17.34375,9.609375 23.876953125,0z" />
    </g>
  </g>
</svg>