<?xml version="1.0" encoding="utf-8"?>
<!DOCTYPE svg PUBLIC "-//W3C//DTD SVG 1.1//EN" "http://www.w3.org/Graphics/SVG/1.1/DTD/svg11.dtd">
<svg width="31.962890625" height="42.71484375" xmlns="http://www.w3.org/2000/svg" xmlns:xlink="http://www.w3.org/1999/xlink" xmlns:xml="http://www.w3.org/XML/1998/namespace" version="1.1">
  <g>
    <g>
      <path style="fill:#FF0000;fill-opacity:1" d="M15.9375,19.21875L11.6967763900757,19.859619140625 8.232421875,21.7822265625 6.88659620285034,23.1765747070313 5.92529249191284,24.796142578125 5.34851026535034,26.6409301757813 5.15625,28.7109375 5.35400390625,30.78369140625 5.947265625,32.63671875 6.93603515625,34.27001953125 8.3203125,35.68359375 11.8066396713257,37.63916015625 15.9375,38.291015625 20.20751953125,37.642822265625 23.701171875,35.6982421875 25.0598125457764,34.2892456054688 26.0302715301514,32.655029296875 26.6125469207764,30.7955932617188 26.806640625,28.7109375 26.6070537567139,26.6409301757813 26.0082988739014,24.796142578125 25.0103740692139,23.1765747070313 23.61328125,21.7822265625 20.09765625,19.859619140625 15.9375,19.21875z M3.80859422683716,0L8.84765625,0 7.55126953125,3.3544921875 7.119140625,6.85546875 7.7197265625,9.95361423492432 9.521484375,12.451171875 12.3266592025757,14.0991230010986 15.9375,14.6484375 19.57763671875,14.0991230010986 22.412109375,12.451171875 24.2358379364014,9.95361423492432 24.84375,6.85546875 24.3896465301514,3.4130859375 23.02734375,0 28.125,0 29.3334941864014,3.5888671875 29.736328125,7.08984375 29.3536357879639,9.95361423492432 28.2055644989014,12.5097675323486 26.2921123504639,14.7583017349243 23.61328125,16.69921875 27.1105937957764,18.62548828125 29.7509765625,21.357421875 31.409912109375,24.7265625 31.962890625,28.564453125 31.67724609375,31.5655517578125 30.8203125,34.27001953125 29.39208984375,36.6778564453125 27.392578125,38.7890625 24.9554424285889,40.506591796875 22.2143535614014,41.7333984375 19.1693096160889,42.469482421875 15.8203125,42.71484375 12.4456787109375,42.4795532226563 9.41162109375,41.773681640625 6.7181396484375,40.5972290039063 4.365234375,38.9501953125 2.4554443359375,36.9058227539063 1.09130859375,34.537353515625 0.272827088832855,31.8447875976563 0,28.828125 0.512695252895355,24.927978515625 2.05078125,21.6064453125 4.6142578125,18.863525390625 8.203125,16.69921875 5.5755615234375,14.9340829849243 3.69873046875,12.7441425323486 2.5726318359375,10.1293954849243 2.197265625,7.08984375 2.60009765625,3.5595703125 3.80859422683716,0z" />
    </g>
  </g>
</svg>