<?xml version="1.0" encoding="utf-8"?>
<!DOCTYPE svg PUBLIC "-//W3C//DTD SVG 1.1//EN" "http://www.w3.org/Graphics/SVG/1.1/DTD/svg11.dtd">
<svg width="36.2109375" height="41.30859375" xmlns="http://www.w3.org/2000/svg" xmlns:xlink="http://www.w3.org/1999/xlink" xmlns:xml="http://www.w3.org/XML/1998/namespace" version="1.1">
  <g>
    <g>
      <path style="fill:#FF0000;fill-opacity:1" d="M14.35546875,4.04296875L12.2753896713257,4.24438571929932 10.4296865463257,4.84863424301147 8.81835842132568,5.85571384429932 7.44140625,7.265625 5.55175733566284,11.103515625 4.92187404632568,16.171875 5.52246046066284,20.8154296875 7.32421875,24.375 10.1660146713257,26.6162109375 13.828125,27.36328125 17.4609375,26.63818359375 20.33203125,24.462890625 22.2216777801514,21.1669921875 22.8515625,17.138671875 22.8515625,12.71484375 22.2509746551514,9.345703125 20.44921875,6.5625 17.7099609375,4.67285299301147 14.35546875,4.04296875z M13.740234375,0L16.6204833984375,0.303956151008606 19.07958984375,1.21582174301147 21.1175537109375,2.73559665679932 22.734375,4.86328125 22.8515625,4.86328125 22.8515625,0.703125 27.65625,0.703125 27.65625,29.150390625 27.982177734375,32.5341796875 28.9599609375,34.951171875 30.589599609375,36.4013671875 32.87109375,36.884765625 34.6142578125,36.67236328125 36.2109375,36.03515625 36.2109375,40.72265625 32.63671875,41.30859375 30.4339599609375,41.1016845703125 28.48388671875,40.48095703125 26.7864990234375,39.4464111328125 25.341796875,37.998046875 23.4375,34.130859375 22.8515625,29.150390625 22.8515625,25.60546875 22.734375,25.60546875 20.83740234375,28.143310546875 18.486328125,29.9560546875 15.68115234375,31.043701171875 12.421875,31.40625 9.7357177734375,31.1553955078125 7.33154296875,30.40283203125 5.2093505859375,29.1485595703125 3.36914038658142,27.392578125 1.89514136314392,25.2008056640625 0.842284917831421,22.63916015625 0.210571154952049,19.7076416015625 0,16.40625 0.234374865889549,12.8814697265625 0.937499761581421,9.71923828125 2.10937476158142,6.9195556640625 3.74999976158142,4.482421875 5.7806396484375,2.52136325836182 8.12255859375,1.12060689926147 10.7757568359375,0.280152440071106 13.740234375,0z" />
    </g>
  </g>
</svg>