<?xml version="1.0" encoding="utf-8"?>
<!DOCTYPE svg PUBLIC "-//W3C//DTD SVG 1.1//EN" "http://www.w3.org/Graphics/SVG/1.1/DTD/svg11.dtd">
<svg width="29.53125" height="48.193359375" xmlns="http://www.w3.org/2000/svg" xmlns:xlink="http://www.w3.org/1999/xlink" xmlns:xml="http://www.w3.org/XML/1998/namespace" version="1.1">
  <g>
    <g>
      <path style="fill:#FF0000;fill-opacity:1" d="M14.94140625,20.830078125L12.7478017807007,21.0269184112549 10.7958974838257,21.6174335479736 9.08569240570068,22.6016254425049 7.6171875,23.9794921875 5.595703125,27.725830078125 4.92187595367432,32.666015625 5.60302734375,37.43408203125 7.646484375,41.07421875 9.12414455413818,42.4200439453125 10.8325185775757,43.38134765625 12.7716054916382,43.9581298828125 14.94140625,44.150390625 17.1359252929688,43.9617919921875 19.061279296875,43.39599609375 20.7174682617188,42.4530029296875 22.1044921875,41.1328125 23.9831523895264,37.47802734375 24.609375,32.548828125 23.9831523895264,27.568359375 22.1044921875,23.876953125 20.7174682617188,22.5439472198486 19.061279296875,21.5917987823486 17.1359252929688,21.0205097198486 14.94140625,20.830078125z M15.29296875,16.787109375L18.4634380340576,17.0452899932861 21.2658672332764,17.8198261260986 23.7002544403076,19.1107196807861 25.7666015625,20.91796875 27.4136352539063,23.1829833984375 28.590087890625,25.84716796875 29.2959594726563,28.9105224609375 29.53125,32.373046875 29.2776489257813,35.7833862304688 28.516845703125,38.836669921875 27.2488403320313,41.5328979492188 25.4736328125,43.8720703125 23.2717876434326,45.7626342773438 20.7238750457764,47.113037109375 17.8298931121826,47.9232788085938 14.58984375,48.193359375 11.4321899414063,47.9306030273438 8.609619140625,47.142333984375 6.12213182449341,45.8285522460938 3.96972727775574,43.9892578125 2.23297166824341,41.7160034179688 0.992431879043579,39.100341796875 0.248108059167862,36.1422729492188 0,32.841796875 0.25817883014679,29.2694091796875 1.03271508216858,26.11083984375 2.32360863685608,23.3660888671875 4.130859375,21.03515625 6.3775634765625,19.1766376495361 8.98681640625,17.8491230010986 11.9586181640625,17.0526142120361 15.29296875,16.787109375z M21.62109375,4.775390625L24.4921875,4.775390625 24.1406230926514,7.569580078125 23.0859375,9.7998046875 21.4306621551514,11.260986328125 19.27734375,11.748046875 17.05078125,11.3671875 14.53125,10.224609375 12.5317373275757,9.27978515625 11.044921875,8.96484375 9.9169921875,9.1717529296875 9.111328125,9.79248046875 8.6279296875,10.8270263671875 8.466796875,12.275390625 5.712890625,12.275390625 6.064453125,9.451904296875 7.119140625,7.2509765625 8.8037109375,5.833740234375 11.044921875,5.361328125 13.08837890625,5.7421875 15.41015625,6.884765625 17.431640625,7.8515625 19.16015625,8.173828125 20.2368144989014,7.96142578125 21.0058574676514,7.32421875 21.4672832489014,6.26220703125 21.62109375,4.775390625z M7.5,0L22.3828125,0 22.3828125,3.193359375 7.5,3.193359375 7.5,0z" />
    </g>
  </g>
</svg>