<?xml version="1.0" encoding="utf-8"?>
<!DOCTYPE svg PUBLIC "-//W3C//DTD SVG 1.1//EN" "http://www.w3.org/Graphics/SVG/1.1/DTD/svg11.dtd">
<svg width="25.341796875" height="52.998046875" xmlns="http://www.w3.org/2000/svg" xmlns:xlink="http://www.w3.org/1999/xlink" xmlns:xml="http://www.w3.org/XML/1998/namespace" version="1.1">
  <g>
    <g>
      <path style="fill:#FF0000;fill-opacity:1" d="M17.841796875,42.7734375L16.3348388671875,42.9803466796875 14.97802734375,43.60107421875 13.7713623046875,44.6356201171875 12.71484375,46.083984375 14.59716796875,47.11669921875 16.787109375,47.4609375 18.658447265625,47.30712890625 19.9951171875,46.845703125 20.797119140625,46.07666015625 21.064453125,45 20.863037109375,44.02587890625 20.2587890625,43.330078125 19.251708984375,42.91259765625 17.841796875,42.7734375z M9.9609375,0L9.9609375,8.876953125 17.51953125,8.876953125 17.51953125,12.978515625 9.9609375,12.978515625 9.9609375,38.291015625 10.517578125,42.48046875 12.103271484375,40.9039306640625 13.8720703125,39.77783203125 15.823974609375,39.1021728515625 17.958984375,38.876953125 20.914306640625,39.305419921875 23.2763671875,40.5908203125 24.8254375457764,42.550048828125 25.341796875,45 24.7412090301514,47.530517578125 22.939453125,49.6142578125 20.2001953125,51.009521484375 16.787109375,51.474609375 13.7402334213257,51.10107421875 11.103515625,49.98046875 10.634765625,52.998046875 6.357421875,52.998046875 6.81884765625,50.0244140625 7.734375,47.080078125 5.80078077316284,43.125 5.15625,38.291015625 5.15625,12.978515625 0,12.978515625 0,8.876953125 5.15625,8.876953125 5.15625,1.552734375 9.9609375,0z" />
    </g>
  </g>
</svg>