<?xml version="1.0" encoding="utf-8"?>
<!DOCTYPE svg PUBLIC "-//W3C//DTD SVG 1.1//EN" "http://www.w3.org/Graphics/SVG/1.1/DTD/svg11.dtd">
<svg width="19.892578125" height="41.42578125" xmlns="http://www.w3.org/2000/svg" xmlns:xlink="http://www.w3.org/1999/xlink" xmlns:xml="http://www.w3.org/XML/1998/namespace" version="1.1">
  <g>
    <g>
      <path style="fill:#FF0000;fill-opacity:1" d="M11.54296875,0L15.234375,0.336915493011475 18.515625,1.34765625 18.515625,6.2109375 14.9560546875,4.58496236801147 10.8984375,4.04296875 8.466796875,4.3505859375 6.6064453125,5.21484375 5.4052734375,6.5478515625 4.98046875,8.26171875 5.4052734375,10.224609375 6.650390625,11.630859375 8.642578125,12.744140625 11.30859375,13.828125 14.8828125,15.3955078125 17.578125,17.2119140625 19.2919921875,19.541015625 19.892578125,22.67578125 19.647216796875,24.755859375 18.9111328125,26.54296875 16.2890625,29.267578125 12.509765625,30.87890625 8.642578125,31.40625 10.4296875,34.013671875 11.1547842025757,35.4620361328125 11.9238271713257,36.49658203125 12.7368154525757,37.1173095703125 13.59375,37.32421875 15.69580078125,37.03125 17.783203125,36.15234375 17.783203125,40.341796875 15.8349609375,41.15478515625 13.388671875,41.42578125 11.4660634994507,41.12548828125 9.79980373382568,40.224609375 8.38989162445068,38.72314453125 7.236328125,36.62109375 4.82666015625,32.90771484375 1.17187523841858,30.205078125 0,29.619140625 0,24.462890625 4.12353515625,26.63818359375 8.642578125,27.36328125 11.4111328125,27.099609375 13.388671875,26.30859375 14.5751953125,24.990234375 14.970703125,23.14453125 14.4287109375,21.1083984375 12.9638671875,19.62890625 10.7958984375,18.4716796875 8.115234375,17.40234375 4.6142578125,15.8056640625 2.09472680091858,13.9892578125 0.571289300918579,11.689453125 0.0585942268371582,8.671875 0.300293058156967,6.68335103988647 1.02539086341858,4.9365234375 3.60351586341858,2.2119140625 7.2802734375,0.556640625 11.54296875,0z" />
    </g>
  </g>
</svg>