<?xml version="1.0" encoding="utf-8"?>
<!DOCTYPE svg PUBLIC "-//W3C//DTD SVG 1.1//EN" "http://www.w3.org/Graphics/SVG/1.1/DTD/svg11.dtd">
<svg width="29.53125" height="47.255859375" xmlns="http://www.w3.org/2000/svg" xmlns:xlink="http://www.w3.org/1999/xlink" xmlns:xml="http://www.w3.org/XML/1998/namespace" version="1.1">
  <g>
    <g>
      <path style="fill:#FF0000;fill-opacity:1" d="M14.94140625,19.892578125L12.7478017807007,20.0894184112549 10.7958974838257,20.6799335479736 9.08569240570068,21.6641254425049 7.6171875,23.0419921875 5.595703125,26.788330078125 4.921875,31.728515625 5.60302734375,36.49658203125 7.646484375,40.13671875 9.12414455413818,41.4825439453125 10.8325185775757,42.44384765625 12.7716054916382,43.0206298828125 14.94140625,43.212890625 17.1359252929688,43.0242919921875 19.061279296875,42.45849609375 20.7174682617188,41.5155029296875 22.1044921875,40.1953125 23.9831523895264,36.54052734375 24.609375,31.611328125 23.9831523895264,26.630859375 22.1044921875,22.939453125 20.7174682617188,21.6064472198486 19.061279296875,20.6542987823486 17.1359252929688,20.0830097198486 14.94140625,19.892578125z M15.29296875,15.849609375L18.4634380340576,16.1077899932861 21.2658672332764,16.8823261260986 23.7002544403076,18.1732196807861 25.7666015625,19.98046875 27.4136352539063,22.2454833984375 28.590087890625,24.90966796875 29.2959594726563,27.9730224609375 29.53125,31.435546875 29.2776489257813,34.8458862304688 28.516845703125,37.899169921875 27.2488403320313,40.5953979492188 25.4736328125,42.9345703125 23.2717876434326,44.8251342773438 20.7238750457764,46.175537109375 17.8298931121826,46.9857788085938 14.58984375,47.255859375 11.4321899414063,46.9931030273438 8.609619140625,46.204833984375 6.12213134765625,44.8910522460938 3.96972680091858,43.0517578125 2.23297142982483,40.7785034179688 0.992431879043579,38.162841796875 0.248108044266701,35.2047729492188 0,31.904296875 0.25817883014679,28.3319091796875 1.03271508216858,25.17333984375 2.32360863685608,22.4285888671875 4.130859375,20.09765625 6.3775634765625,18.2391376495361 8.98681640625,16.9116230010986 11.9586181640625,16.1151142120361 15.29296875,15.849609375z M14.765625,5.15625L15.875244140625,5.357666015625 16.8017578125,5.9619140625 17.427978515625,6.866455078125 17.63671875,7.96875 17.427978515625,9.08203125 16.8017578125,10.01953125 15.875244140625,10.65673828125 14.765625,10.869140625 13.67431640625,10.660400390625 12.744140625,10.0341796875 12.1069326400757,9.100341796875 11.89453125,7.96875 12.1069326400757,6.866455078125 12.744140625,5.9619140625 13.67431640625,5.357666015625 14.765625,5.15625z M7.32421875,0L22.20703125,0 22.20703125,3.193359375 7.32421875,3.193359375 7.32421875,0z" />
    </g>
  </g>
</svg>