<?xml version="1.0" encoding="utf-8"?>
<!DOCTYPE svg PUBLIC "-//W3C//DTD SVG 1.1//EN" "http://www.w3.org/Graphics/SVG/1.1/DTD/svg11.dtd">
<svg width="39.7265625" height="57.71484375" xmlns="http://www.w3.org/2000/svg" xmlns:xlink="http://www.w3.org/1999/xlink" xmlns:xml="http://www.w3.org/XML/1998/namespace" version="1.1">
  <g>
    <g>
      <path style="fill:#FF0000;fill-opacity:1" d="M20.0390625,18.75L16.8841552734375,19.0484619140625 14.04052734375,19.94384765625 11.5081787109375,21.4361572265625 9.287109375,23.525390625 7.4798583984375,26.0998554229736 6.18896436691284,29.0478534698486 5.41442823410034,32.369384765625 5.15625,36.064453125 5.40801954269409,39.7567749023438 6.16332960128784,43.070068359375 7.42218017578125,46.0043334960938 9.1845703125,48.5595703125 11.3516235351563,50.6295776367188 13.824462890625,52.108154296875 16.6030883789063,52.9953002929688 19.6875,53.291015625 22.9614238739014,53.009033203125 25.8691387176514,52.1630859375 28.4106426239014,50.753173828125 30.5859375,48.779296875 32.3291015625,46.2982177734375 33.57421875,43.36669921875 34.3212890625,39.9847412109375 34.5703125,36.15234375 34.32861328125,32.2283935546875 33.603515625,28.7768573760986 32.39501953125,25.7977313995361 30.703125,23.291015625 28.5864238739014,21.3043212890625 26.1035137176514,19.88525390625 23.2543926239014,19.0338134765625 20.0390625,18.75z M20.390625,14.296875L24.5297241210938,14.6630859375 28.245849609375,15.76171875 31.5390014648438,17.5927734375 34.4091796875,20.15625 36.7355346679688,23.3111572265625 38.397216796875,26.91650390625 39.3942260742188,30.9722900390625 39.7265625,35.478515625 39.385986328125,40.3509521484375 38.3642578125,44.68505859375 36.661376953125,48.4808349609375 34.27734375,51.73828125 31.322021484375,54.35302734375 27.9052734375,56.220703125 24.027099609375,57.34130859375 19.6875,57.71484375 15.4421997070313,57.3468017578125 11.641845703125,56.24267578125 8.28643798828125,54.4024658203125 5.3759765625,51.826171875 3.02398657798767,48.6602783203125 1.34399390220642,45.05126953125 0.33599841594696,40.9991455078125 0,36.50390625 0.34240710735321,31.69189453125 1.36962866783142,27.392578125 3.08166480064392,23.60595703125 5.478515625,20.33203125 8.4649658203125,17.691650390625 11.94580078125,15.8056640625 15.9210205078125,14.674072265625 20.390625,14.296875z M19.86328125,5.15625L20.972900390625,5.35766887664795 21.8994140625,5.96191453933716 22.5256328582764,6.86645793914795 22.734375,7.96875 22.5256328582764,9.08203125 21.8994140625,10.01953125 20.972900390625,10.65673828125 19.86328125,10.869140625 18.77197265625,10.660400390625 17.841796875,10.0341796875 17.20458984375,9.100341796875 16.9921875,7.96875 17.20458984375,6.86645793914795 17.841796875,5.96191453933716 18.77197265625,5.35766887664795 19.86328125,5.15625z M12.421875,0L27.3046875,0 27.3046875,3.193359375 12.421875,3.193359375 12.421875,0z" />
    </g>
  </g>
</svg>