<?xml version="1.0" encoding="utf-8"?>
<!DOCTYPE svg PUBLIC "-//W3C//DTD SVG 1.1//EN" "http://www.w3.org/Graphics/SVG/1.1/DTD/svg11.dtd">
<svg width="19.951171875" height="42.71484375" xmlns="http://www.w3.org/2000/svg" xmlns:xlink="http://www.w3.org/1999/xlink" xmlns:xml="http://www.w3.org/XML/1998/namespace" version="1.1">
  <g>
    <g>
      <path style="fill:#FF0000;fill-opacity:1" d="M10.751953125,0L15.673828125,0 15.673828125,18.779296875 19.951171875,18.779296875 19.951171875,23.232421875 15.673828125,23.232421875 15.673828125,26.953125 15.47607421875,30.4806518554688 14.8828125,33.592529296875 13.89404296875,36.2887573242188 12.509765625,38.5693359375 10.7940673828125,40.3829956054688 8.81103515625,41.678466796875 6.56066846847534,42.4557495117188 4.04296779632568,42.71484375 1.80175745487213,42.5390625 0,42.01171875 0,37.1484375 1.81640589237213,38.00537109375 4.10156154632568,38.291015625 7.01110792160034,37.5860595703125 9.08935546875,35.47119140625 10.3363037109375,31.9464111328125 10.751953125,27.01171875 10.751953125,23.232421875 4.423828125,23.232421875 4.423828125,18.779296875 10.751953125,18.779296875 10.751953125,0z" />
    </g>
  </g>
</svg>