<?xml version="1.0" encoding="utf-8"?>
<!DOCTYPE svg PUBLIC "-//W3C//DTD SVG 1.1//EN" "http://www.w3.org/Graphics/SVG/1.1/DTD/svg11.dtd">
<svg width="49.51171875" height="42.24609375" xmlns="http://www.w3.org/2000/svg" xmlns:xlink="http://www.w3.org/1999/xlink" xmlns:xml="http://www.w3.org/XML/1998/namespace" version="1.1">
  <g>
    <g>
      <path style="fill:#FF0000;fill-opacity:1" d="M46.69921875,0L47.9296875,0.087890625 48.80859375,0.263671875 49.51171875,0.498046875 49.51171875,4.74609375 48.984375,4.482421875 48.33984375,4.306640625 47.4609375,4.21875 46.2158203125,4.4677734375 45.1171875,5.2587890625 43.9453125,6.6796875 42.509765625,8.7890625 20.33203125,42.24609375 14.35546875,42.24609375 38.671875,5.830078125 40.546875,3.2958984375 42.4072265625,1.46484375 44.4140625,0.3662109375 46.69921875,0z M32.34375,0L33.57421875,0.087890625 34.453125,0.263671875 35.15625,0.498046875 35.15625,4.74609375 34.62890625,4.482421875 33.984375,4.306640625 33.10546875,4.21875 31.8603515625,4.4677734375 30.76171875,5.2587890625 29.58984375,6.6796875 28.154296875,8.7890625 5.9765625,42.24609375 0,42.24609375 24.31640625,5.830078125 26.19140625,3.2958984375 28.0517578125,1.46484375 30.05859375,0.3662109375 32.34375,0z" />
    </g>
  </g>
</svg>