<?xml version="1.0" encoding="utf-8"?>
<!DOCTYPE svg PUBLIC "-//W3C//DTD SVG 1.1//EN" "http://www.w3.org/Graphics/SVG/1.1/DTD/svg11.dtd">
<svg width="35.5078125" height="56.8359375" xmlns="http://www.w3.org/2000/svg" xmlns:xlink="http://www.w3.org/1999/xlink" xmlns:xml="http://www.w3.org/XML/1998/namespace" version="1.1">
  <g>
    <g>
      <path style="fill:#FF0000;fill-opacity:1" d="M19.921875,16.0546875L19.921875,39.375 20.56640625,39.375 22.7362041473389,39.1818237304688 24.6752910614014,38.602294921875 26.3836650848389,37.6364135742188 27.861328125,36.2841796875 29.90478515625,32.640380859375 30.5859375,27.890625 29.915771484375,22.93212890625 27.9052734375,19.189453125 26.4504985809326,17.8179950714111 24.7668437957764,16.8383808135986 22.8543071746826,16.2506122589111 20.712890625,16.0546875 19.921875,16.0546875z M14.8828125,16.0546875L12.7386465072632,16.2515277862549 10.8178701400757,16.8420429229736 9.12048244476318,17.8262348175049 7.646484375,19.2041015625 5.60302734375,22.950439453125 4.92187452316284,27.890625 5.606689453125,32.603759765625 7.6611328125,36.2548828125 9.14703273773193,37.6199340820313 10.8654775619507,38.594970703125 12.8164663314819,39.1799926757813 15,39.375 15.5859375,39.375 15.5859375,16.0546875 14.8828125,16.0546875z M15.5859375,0L19.921875,0 19.921875,12.01171875 20.56640625,12.01171875 23.7826519012451,12.2836313247681 26.6638164520264,13.0993671417236 29.2098979949951,14.4589242935181 31.4208984375,16.3623046875 33.2089233398438,18.7252807617188 34.486083984375,21.463623046875 35.2523803710938,24.5773315429688 35.5078125,28.06640625 35.2569580078125,31.3311767578125 34.50439453125,34.27001953125 33.2501220703125,36.8829345703125 31.494140625,39.169921875 29.3298320770264,41.0284423828125 26.8505840301514,42.35595703125 24.0563945770264,43.1524658203125 20.947265625,43.41796875 19.921875,43.41796875 19.921875,56.8359375 15.5859375,56.8359375 15.5859375,43.41796875 14.6484375,43.41796875 11.524658203125,43.1524658203125 8.7158203125,42.35595703125 6.221923828125,41.0284423828125 4.04296827316284,39.169921875 2.27416968345642,36.8829345703125 1.0107421875,34.27001953125 0.252685546875,31.3311767578125 0,28.06640625 0.25543212890625,24.6011352539063 1.021728515625,21.500244140625 2.29888939857483,18.7637329101563 4.08691453933716,16.3916015625 6.29425048828125,14.4754037857056 8.829345703125,13.1066913604736 11.6921997070313,12.2854623794556 14.8828125,12.01171875 15.5859375,12.01171875 15.5859375,0z" />
    </g>
  </g>
</svg>