<?xml version="1.0" encoding="utf-8"?>
<!DOCTYPE svg PUBLIC "-//W3C//DTD SVG 1.1//EN" "http://www.w3.org/Graphics/SVG/1.1/DTD/svg11.dtd">
<svg width="31.728515625" height="44.23828125" xmlns="http://www.w3.org/2000/svg" xmlns:xlink="http://www.w3.org/1999/xlink" xmlns:xml="http://www.w3.org/XML/1998/namespace" version="1.1">
  <g>
    <g>
      <path style="fill:#FF0000;fill-opacity:1" d="M13.271484375,14.267578125L11.162109375,14.5458984375 9.0966796875,15.52734375 7.5146484375,17.431640625 6.884765625,20.44921875 7.294921875,23.173828125 8.37890625,25.048828125 9.90234375,26.1328125 11.66015625,26.484375 13.6083984375,26.044921875 15.1611328125,24.78515625 16.1865234375,22.79296875 16.552734375,20.15625 16.552734375,14.94140625 14.8388671875,14.4140625 13.271484375,14.267578125z M0,0L31.728515625,0 31.728515625,8.671875 26.923828125,8.671875 26.923828125,4.1015625 21.357421875,4.1015625 21.357421875,12.978515625 23.408203125,14.970703125 25.0341796875,17.5634765625 26.103515625,20.7861328125 26.484375,24.66796875 26.2390117645264,28.7548828125 25.5029296875,32.2265625 24.3530254364014,35.145263671875 22.8662109375,37.5732421875 21.082763671875,39.5361328125 19.04296875,41.0595703125 14.501953125,43.0810546875 9.6826171875,44.0185546875 5.06835985183716,44.23828125 5.06835985183716,40.1953125 8.5107421875,40.0634765625 12.2314453125,39.43359375 15.8203125,37.9541015625 18.8818359375,35.2880859375 20.079345703125,33.39111328125 21.005859375,31.0693359375 21.59912109375,28.275146484375 21.796875,24.9609375 21.6796875,22.7783203125 21.328125,20.888671875 20.56640625,24.5361328125 18.7353515625,27.6708984375 15.7763671875,29.8681640625 13.8610830307007,30.494384765625 11.66015625,30.703125 8.02734375,30.1025390625 5.009765625,28.2568359375 2.958984375,25.078125 2.3876953125,22.9541015625 2.197265625,20.44921875 2.431640625,18.057861328125 3.13476514816284,15.9814453125 5.6103515625,12.7880859375 9.1552734375,10.8837890625 13.271484375,10.25390625 16.552734375,10.6640625 16.552734375,4.1015625 4.8046875,4.1015625 4.8046875,8.671875 0,8.671875 0,0z" />
    </g>
  </g>
</svg>