<?xml version="1.0" encoding="utf-8"?>
<!DOCTYPE svg PUBLIC "-//W3C//DTD SVG 1.1//EN" "http://www.w3.org/Graphics/SVG/1.1/DTD/svg11.dtd">
<svg width="28.740234375" height="56.8359375" xmlns="http://www.w3.org/2000/svg" xmlns:xlink="http://www.w3.org/1999/xlink" xmlns:xml="http://www.w3.org/XML/1998/namespace" version="1.1">
  <g>
    <g>
      <path style="fill:#FF0000;fill-opacity:1" d="M25.693359375,0L25.693359375,4.68750047683716 21.4562969207764,5.16723918914795 17.5341796875,6.60644578933716 14.022216796875,8.983154296875 11.015625,12.275390625 8.56201171875,16.483154296875 6.708984375,21.6064453125 5.54443359375,27.6232929229736 5.15625,34.51171875 5.33203125,38.917236328125 5.859375,42.6416015625 6.712646484375,45.721435546875 7.8662109375,48.193359375 9.305419921875,50.072021484375 11.015625,51.3720703125 12.97119140625,52.130126953125 15.146484375,52.3828125 18.4423828125,51.826171875 21.123046875,50.1123046875 22.9248046875,47.197265625 23.583984375,43.06640625 23.3715801239014,40.865478515625 22.734375,39.0087890625 20.6396484375,36.2548828125 18.017578125,34.6875 15.5859375,34.189453125 15.5859375,29.970703125 18.043212890625,30.1977558135986 20.4345703125,30.87890625 22.6647930145264,31.98486328125 24.638671875,33.486328125 27.6123046875,37.6171875 28.4582500457764,40.1953125 28.740234375,43.06640625 28.4802227020264,46.12060546875 27.7001953125,48.837890625 26.4624004364014,51.192626953125 24.8291015625,53.1591796875 22.8369121551514,54.7265625 20.5224609375,55.8837890625 17.940673828125,56.597900390625 15.146484375,56.8359375 11.8066396713257,56.49169921875 8.818359375,55.458984375 6.221923828125,53.73779296875 4.05761671066284,51.328125 2.332763671875,48.22998046875 1.0546875,44.443359375 0.263671875,39.96826171875 0,34.8046875 0.44677734375,26.8542499542236 1.787109375,19.8779296875 3.96240186691284,13.90869140625 6.9140625,8.9794921875 10.6054677963257,5.10132122039795 15,2.28515577316284 20.04638671875,0.571291863918304 25.693359375,0z" />
    </g>
  </g>
</svg>