<?xml version="1.0" encoding="utf-8"?>
<!DOCTYPE svg PUBLIC "-//W3C//DTD SVG 1.1//EN" "http://www.w3.org/Graphics/SVG/1.1/DTD/svg11.dtd">
<svg width="27.24609375" height="30.703125" xmlns="http://www.w3.org/2000/svg" xmlns:xlink="http://www.w3.org/1999/xlink" xmlns:xml="http://www.w3.org/XML/1998/namespace" version="1.1">
  <g>
    <g>
      <path style="fill:#FF0000;fill-opacity:1" d="M8.37890625,21.474609375L6.588134765625,21.668701171875 5.3173828125,22.2509765625 4.559326171875,23.148193359375 4.306640625,24.287109375 4.4970703125,25.272216796875 5.068359375,26.0595703125 7.119140625,26.748046875 8.73046875,26.2939453125 9.6826171875,25.107421875 10.13671875,23.4228515625 10.25390625,21.474609375 8.37890625,21.474609375z M10.25390625,0L15.05859375,0 15.05859375,17.373046875 27.24609375,17.373046875 27.24609375,21.474609375 15.05859375,21.474609375 14.6923828125,24.5947265625 13.41796875,27.5830078125 10.9716796875,29.82421875 9.239501953125,30.4833984375 7.119140625,30.703125 3.896484375,30.146484375 1.68457043170929,28.6669921875 0.410156488418579,26.5576171875 0,24.111328125 0.556640863418579,21.3720703125 2.16796875,19.2333984375 4.775390625,17.8564453125 8.3203125,17.373046875 10.25390625,17.373046875 10.25390625,0z" />
    </g>
  </g>
</svg>