<?xml version="1.0" encoding="utf-8"?>
<!DOCTYPE svg PUBLIC "-//W3C//DTD SVG 1.1//EN" "http://www.w3.org/Graphics/SVG/1.1/DTD/svg11.dtd">
<svg width="28.7109375" height="42.01171875" xmlns="http://www.w3.org/2000/svg" xmlns:xlink="http://www.w3.org/1999/xlink" xmlns:xml="http://www.w3.org/XML/1998/namespace" version="1.1">
  <g>
    <g>
      <path style="fill:#FF0000;fill-opacity:1" d="M0,0L26.3671875,0 26.3671875,1.171875 13.41796875,16.728515625 15.87890625,16.904296875 18.69140625,17.5048828125 21.50390625,18.6328125 23.96484375,20.390625 25.7080078125,22.8955078125 26.3671875,26.25 26.1767559051514,28.018798828125 25.60546875,29.6923828125 23.5400390625,32.7392578125 20.4931640625,35.361328125 16.7578125,37.55859375 28.7109375,37.55859375 28.7109375,42.01171875 0,42.01171875 0,39.0234375 4.541015625,38.0712890625 9.3017578125,36.533203125 13.8134765625,34.4970703125 17.607421875,32.0654296875 20.21484375,29.2822265625 20.9399394989014,27.784423828125 21.181640625,26.25 20.9893779754639,24.9234008789063 20.4125957489014,23.756103515625 19.4512920379639,22.7481079101563 18.10546875,21.8994140625 16.376953125,21.2265014648438 14.267578125,20.745849609375 11.77734375,20.4574584960938 8.90625,20.361328125 5.771484375,20.361328125 5.771484375,18.984375 17.63671875,4.453125 0,4.453125 0,0z" />
    </g>
  </g>
</svg>