<?xml version="1.0" encoding="utf-8"?>
<!DOCTYPE svg PUBLIC "-//W3C//DTD SVG 1.1//EN" "http://www.w3.org/Graphics/SVG/1.1/DTD/svg11.dtd">
<svg width="28.7695312500001" height="44.82421875" xmlns="http://www.w3.org/2000/svg" xmlns:xlink="http://www.w3.org/1999/xlink" xmlns:xml="http://www.w3.org/XML/1998/namespace" version="1.1">
  <g>
    <g>
      <path style="fill:#FF0000;fill-opacity:1" d="M9.9609375,0L13.9453125,0.5712890625 17.1240234375,1.8310546875 19.7021484375,3.0908203125 21.9140625,3.662109375 23.14453125,3.369140625 23.994140625,2.578125 24.4775390625,1.4208984375 24.638671875,0 28.76953125,1.40625 28.2861328125,4.130859375 26.923828125,6.123046875 24.814453125,7.353515625 22.060546875,7.763671875 18.8525390625,7.177734375 16.0546875,5.888671875 13.2275390625,4.599609375 9.9609375,4.013671875 8.26171875,4.2626953125 6.650390625,5.1416015625 5.44921875,6.85546875 4.98046875,9.609375 5.712890625,13.1689453125 7.6025390625,16.376953125 10.224609375,19.2919921875 13.18359375,21.943359375 15.435791015625,23.990478515625 17.2705078125,25.9130859375 19.8779296875,29.53125 21.26953125,33.0322265625 21.6796875,36.62109375 21.1083984375,40.048828125 19.86328125,42.626953125 18.046875,44.82421875 12.158203125,44.82421875 14.47265625,42.568359375 15.322265625,41.3818359375 16.0546875,39.9755859375 16.58203125,38.3935546875 16.787109375,36.62109375 16.2451171875,33.2080078125 14.765625,30.3955078125 12.568359375,27.890625 9.84375,25.400390625 6.298828125,22.1337890625 3.13476538658142,18.544921875 0.8642578125,14.443359375 0.216064274311066,12.13623046875 0,9.609375 0.230712711811066,7.060546875 0.9228515625,4.98046875 3.28124976158142,2.021484375 6.4892578125,0.4541015625 9.9609375,0z" />
    </g>
  </g>
</svg>