<?xml version="1.0" encoding="utf-8"?>
<!DOCTYPE svg PUBLIC "-//W3C//DTD SVG 1.1//EN" "http://www.w3.org/Graphics/SVG/1.1/DTD/svg11.dtd">
<svg width="35.6835937500003" height="43.0078125" xmlns="http://www.w3.org/2000/svg" xmlns:xlink="http://www.w3.org/1999/xlink" xmlns:xml="http://www.w3.org/XML/1998/namespace" version="1.1">
  <g>
    <g>
      <path style="fill:#FF0000;fill-opacity:1" d="M16.669921875,19.306640625L10.166015625,23.056640625 8.1591796875,24.462890625 6.5478515625,26.162109375 5.478515625,28.125 5.09765625,30.322265625 5.3759765625,32.255859375 6.26953125,34.306640625 7.606201171875,36.17431640625 9.0966796875,37.44140625 10.7336416244507,38.16650390625 12.509765625,38.408203125 15.205078125,37.96875 18.046875,36.6796875 24.55078125,32.9296875 16.669921875,19.306640625z M7.3828125,0L8.9794921875,0.19775390625 10.546875,0.791015625 12.0043935775757,1.8896484375 13.271484375,3.603515625 32.51953125,37.001953125 33.6767578125,38.0859375 34.921875,38.3203125 35.3466796875,38.3056640625 35.68359375,38.26171875 35.68359375,42.71484375 35.21484375,42.83203125 34.1015625,42.919921875 30.9375,42.1728515625 29.4873046875,41.107177734375 28.2421875,39.404296875 26.748046875,36.767578125 20.244140625,40.517578125 16.0546875,42.36328125 11.89453125,43.0078125 9.0087890625,42.630615234375 6.26953125,41.4990234375 3.78662037849426,39.532470703125 1.66992163658142,36.650390625 0.410155773162842,33.662109375 0,30.76171875 0.571288824081421,27.3779296875 2.18261694908142,24.2724609375 4.6875,21.5185546875 7.939453125,19.21875 14.443359375,15.46875 8.994140625,6.005859375 7.8369140625,4.921875 6.591796875,4.6875 6.1669921875,4.7021484375 5.830078125,4.74609375 5.830078125,0.146484375 6.298828125,0.087890625 6.796875,0.029296875 7.3828125,0z" />
    </g>
  </g>
</svg>