<?xml version="1.0" encoding="utf-8"?>
<!DOCTYPE svg PUBLIC "-//W3C//DTD SVG 1.1//EN" "http://www.w3.org/Graphics/SVG/1.1/DTD/svg11.dtd">
<svg width="52.1484375" height="51.474609375" xmlns="http://www.w3.org/2000/svg" xmlns:xlink="http://www.w3.org/1999/xlink" xmlns:xml="http://www.w3.org/XML/1998/namespace" version="1.1">
  <g>
    <g>
      <path style="fill:#FF0000;fill-opacity:1" d="M0,48.427734375L52.1484375,48.427734375 52.1484375,51.474609375 0,51.474609375 0,48.427734375z M39.84375,0.234374403953552L42.65625,1.49414050579071 39.7796630859375,7.269287109375 36.83349609375,12.5244140625 33.8177490234375,17.259521484375 30.732421875,21.474609375 42.0703125,19.921875 47.578125,11.044921875 50.478515625,12.36328125 45.047607421875,21.265869140625 39.9462890625,28.7255859375 35.174560546875,34.742431640625 30.732421875,39.31640625 34.7369384765625,38.7908935546875 39.33837890625,38.00537109375 44.5367431640625,36.9598388671875 50.33203125,35.654296875 50.947265625,38.466796875 45.8441162109375,39.6551513671875 40.11474609375,40.75927734375 33.7591552734375,41.7791748046875 26.77734375,42.71484375 25.810546875,39.90234375 29.2913818359375,36.5606689453125 32.79052734375,32.68798828125 36.3079833984375,28.2843017578125 39.84375,23.349609375 35.58837890625,23.8934345245361 32.05078125,24.3237323760986 29.23095703125,24.6405048370361 27.12890625,24.84375 26.279296875,22.32421875 29.7967529296875,17.74658203125 33.22998046875,12.5390625 36.5789794921875,6.70165967941284 39.84375,0.234374403953552z M13.916015625,0L16.875,1.20117104053497 14.2767333984375,6.93603467941284 11.66748046875,12.12890625 9.0472412109375,16.77978515625 6.416015625,20.888671875 16.7578125,19.3359375 21.9140625,10.869140625 24.78515625,12.24609375 20.1947021484375,20.0482177734375 15.56396484375,27.07763671875 10.8929443359375,33.3343505859375 6.181640625,38.818359375 14.150390625,37.822265625 23.583984375,36.123046875 24.2578125,38.994140625 13.4619140625,40.87646484375 2.16796875,42.12890625 1.31835889816284,39.55078125 4.6234130859375,36.075439453125 7.94677734375,32.1240234375 11.2884521484375,27.696533203125 14.6484375,22.79296875 2.81249952316284,24.2578125 2.16796875,21.474609375 5.11047315597534,17.1771240234375 8.04931545257568,12.16552734375 10.9844961166382,6.4398193359375 13.916015625,0z" />
    </g>
  </g>
</svg>