<?xml version="1.0" encoding="utf-8"?>
<!DOCTYPE svg PUBLIC "-//W3C//DTD SVG 1.1//EN" "http://www.w3.org/Graphics/SVG/1.1/DTD/svg11.dtd">
<svg width="54.169921875" height="47.4609375" xmlns="http://www.w3.org/2000/svg" xmlns:xlink="http://www.w3.org/1999/xlink" xmlns:xml="http://www.w3.org/XML/1998/namespace" version="1.1">
  <g>
    <g>
      <path style="fill:#FF0000;fill-opacity:1" d="M20.771484375,24.140625L18.896484375,33.28857421875 16.435546875,43.798828125 35.2734375,43.798828125 36.046142578125,37.7911376953125 36.6943359375,32.51220703125 37.218017578125,27.9620361328125 37.6171875,24.140625 20.771484375,24.140625z M23.935546875,3.662109375L22.7050762176514,12.3339853286743 21.357421875,20.595703125 37.96875,20.595703125 38.759765625,12.6416025161743 39.4921875,3.662109375 23.935546875,3.662109375z M7.32421875,0L15.673828125,0.117187976837158 34.8046875,0.117187976837158 43.212890625,0 43.740234375,0.556640625 43.670654296875,1.19384765625 43.5498046875,2.34375 43.377685546875,4.00634765625 43.154296875,6.181640625 42.56103515625,13.1982431411743 41.89453125,20.595703125 46.201171875,20.595703125 53.759765625,20.478515625 54.169921875,20.947265625 54.169921875,23.7890625 53.759765625,24.2578125 46.201171875,24.140625 41.513671875,24.140625 40.517578125,33.61083984375 39.287109375,43.798828125 44.4140625,43.798828125 52.32421875,43.681640625 52.79296875,44.208984375 52.79296875,46.9921875 52.32421875,47.4609375 44.4140625,47.34375 9.609375,47.34375 1.669921875,47.4609375 1.201171875,46.9921875 1.201171875,44.208984375 1.669921875,43.681640625 9.609375,43.798828125 12.421875,43.798828125 16.669921875,24.140625 7.96875,24.140625 0.410156726837158,24.2578125 0,23.7890625 0,20.947265625 0.410156726837158,20.478515625 7.96875,20.595703125 17.34375,20.595703125 18.7060546875,12.5537118911743 19.98046875,3.662109375 15.673828125,3.662109375 7.32421875,3.779296875 6.826171875,3.310546875 6.826171875,0.46875 7.32421875,0z" />
    </g>
  </g>
</svg>