<?xml version="1.0" encoding="utf-8"?>
<!DOCTYPE svg PUBLIC "-//W3C//DTD SVG 1.1//EN" "http://www.w3.org/Graphics/SVG/1.1/DTD/svg11.dtd">
<svg width="52.08984375" height="52.646484375" xmlns="http://www.w3.org/2000/svg" xmlns:xlink="http://www.w3.org/1999/xlink" xmlns:xml="http://www.w3.org/XML/1998/namespace" version="1.1">
  <g>
    <g>
      <path style="fill:#FF0000;fill-opacity:1" d="M38.818359375,33.369140625L45.9741172790527,40.4296875 52.08984375,48.076171875 49.62890625,50.09765625 43.5058555603027,42.45849609375 36.5625,35.654296875 38.818359375,33.369140625z M15.05859375,33.134765625L17.900390625,34.62890625 15.0421142578125,38.6517333984375 11.47705078125,42.69287109375 7.2052001953125,46.7523193359375 2.22656297683716,50.830078125 0,48.486328125 5.02807569503784,44.329833984375 9.2138671875,40.3857421875 12.557373046875,36.654052734375 15.05859375,33.134765625z M23.349609375,0L26.54296875,0.966796875 25.0415019989014,3.75732421875 22.939453125,7.32421875 51.240234375,7.32421875 51.240234375,10.341796875 21.064453125,10.341796875 18.0780029296875,15.0311279296875 15.21240234375,19.31396484375 12.4676513671875,23.1903076171875 9.84375,26.66015625 25.693359375,26.66015625 25.693359375,15.791015625 28.857421875,15.791015625 28.857421875,26.66015625 48.310546875,26.66015625 48.310546875,29.6484375 28.857421875,29.6484375 28.857421875,48.369140625 28.48388671875,50.4052734375 27.36328125,51.708984375 25.2978496551514,52.412109375 22.08984375,52.646484375 17.958984375,52.5 16.7578125,49.3359375 19.8193359375,49.423828125 24.2578125,49.453125 25.2392578125,48.9990234375 25.693359375,48.017578125 25.693359375,29.6484375 5.419921875,29.6484375 5.419921875,26.66015625 11.27197265625,19.07958984375 17.2265625,10.341796875 0.673828601837158,10.341796875 0.673828601837158,7.32421875 19.04296875,7.32421875 23.349609375,0z" />
    </g>
  </g>
</svg>