<?xml version="1.0" encoding="utf-8"?>
<!DOCTYPE svg PUBLIC "-//W3C//DTD SVG 1.1//EN" "http://www.w3.org/Graphics/SVG/1.1/DTD/svg11.dtd">
<svg width="52.0898437500003" height="49.74609375" xmlns="http://www.w3.org/2000/svg" xmlns:xlink="http://www.w3.org/1999/xlink" xmlns:xml="http://www.w3.org/XML/1998/namespace" version="1.1">
  <g>
    <g>
      <path style="fill:#FF0000;fill-opacity:1" d="M0.46875,0L8.349609375,0.1171875 43.740234375,0.1171875 51.62109375,0 52.08984375,0.46875 52.08984375,3.251953125 51.62109375,3.720703125 43.740234375,3.603515625 27.71484375,3.603515625 27.12890625,13.06640625 39.66796875,13.06640625 48.134765625,12.94921875 48.603515625,13.505859375 48.486328125,21.884765625 48.486328125,34.8046875 48.603515625,44.296875 48.2592735290527,46.61865234375 47.2265625,48.251953125 46.2853965759277,48.7261962890625 44.7802696228027,49.06494140625 42.7111778259277,49.2681884765625 40.078125,49.3359375 38.701171875,49.3359375 37.9541015625,49.28466796875 37.587890625,49.130859375 37.20703125,48.134765625 36.005859375,45.29296875 42.12890625,45.673828125 43.4765625,45.53466796875 44.296875,45.1171875 44.765625,43.388671875 44.765625,16.376953125 27.7734375,16.376953125 30.52734375,22.4853515625 34.16015625,27.509765625 38.19580078125,31.1572265625 43.154296875,34.248046875 41.279296875,36.474609375 40.8837890625,37.06787109375 40.576171875,37.265625 39.66796875,36.85546875 34.9639892578125,33.4130859375 31.10595703125,29.4140625 28.0938720703125,24.8583984375 25.927734375,19.74609375 23.8183574676514,25.546875 20.771484375,30.3515625 17.36572265625,33.7646484375 12.94921875,36.97265625 11.982421875,37.44140625 11.6308584213257,37.21435546875 11.103515625,36.533203125 9.228515625,34.62890625 12.20947265625,32.9022216796875 14.794921875,31.03271484375 16.98486328125,29.0203857421875 18.779296875,26.865234375 21.3061504364014,22.177734375 22.96875,16.376953125 7.67578125,16.376953125 7.67578125,41.337890625 7.79296875,49.248046875 7.32421875,49.74609375 4.423828125,49.74609375 3.89648389816284,49.248046875 4.01367139816284,41.220703125 4.01367139816284,21.591796875 3.89648389816284,13.505859375 4.423828125,12.94921875 12.890625,13.06640625 23.525390625,13.06640625 23.8769512176514,8.63525390625 24.052734375,3.603515625 8.349609375,3.603515625 0.46875,3.720703125 0,3.251953125 0,0.46875 0.46875,0z" />
    </g>
  </g>
</svg>