<?xml version="1.0" encoding="utf-8"?>
<!DOCTYPE svg PUBLIC "-//W3C//DTD SVG 1.1//EN" "http://www.w3.org/Graphics/SVG/1.1/DTD/svg11.dtd">
<svg width="52.7343750000003" height="47.6953125" xmlns="http://www.w3.org/2000/svg" xmlns:xlink="http://www.w3.org/1999/xlink" xmlns:xml="http://www.w3.org/XML/1998/namespace" version="1.1">
  <g>
    <g>
      <path style="fill:#FF0000;fill-opacity:1" d="M0.46875,43.916015625L8.291015625,44.033203125 44.47265625,44.033203125 52.20703125,43.916015625 52.734375,44.384765625 52.734375,47.2265625 52.20703125,47.6953125 44.47265625,47.578125 8.291015625,47.578125 0.46875,47.6953125 0,47.2265625 0,44.384765625 0.46875,43.916015625z M12.83203125,25.13671875L12.83203125,33.779296875 40.01953125,33.779296875 40.01953125,25.13671875 12.83203125,25.13671875z M12.83203125,13.740234375L12.83203125,21.767578125 40.01953125,21.767578125 40.01953125,13.740234375 12.83203125,13.740234375z M9.462890625,10.1953125L17.75390625,10.3125 35.09765625,10.3125 43.388671875,10.1953125 43.916015625,10.6640625 43.798828125,17.28515625 43.798828125,30.234375 43.916015625,36.85546875 43.388671875,37.32421875 35.09765625,37.20703125 17.75390625,37.20703125 9.462890625,37.32421875 8.994140625,36.85546875 9.111328125,30.234375 9.111328125,17.28515625 8.994140625,10.6640625 9.462890625,10.1953125z M2.10937547683716,0L10.25390625,0.117187976837158 42.48046875,0.117187976837158 50.56640625,0 51.064453125,0.468750953674316 51.064453125,3.25195360183716 50.56640625,3.72070360183716 42.48046875,3.60351610183716 10.25390625,3.60351610183716 2.10937547683716,3.72070360183716 1.61132860183716,3.25195360183716 1.61132860183716,0.468750953674316 2.10937547683716,0z" />
    </g>
  </g>
</svg>