<?xml version="1.0" encoding="utf-8"?>
<!DOCTYPE svg PUBLIC "-//W3C//DTD SVG 1.1//EN" "http://www.w3.org/Graphics/SVG/1.1/DTD/svg11.dtd">
<svg width="51.9140625" height="54.580078125" xmlns="http://www.w3.org/2000/svg" xmlns:xlink="http://www.w3.org/1999/xlink" xmlns:xml="http://www.w3.org/XML/1998/namespace" version="1.1">
  <g>
    <g>
      <path style="fill:#FF0000;fill-opacity:1" d="M8.525390625,42.392578125L8.525390625,48.57421875 42.890625,48.57421875 42.890625,42.392578125 8.525390625,42.392578125z M8.525390625,33.8671875L8.525390625,39.521484375 42.890625,39.521484375 42.890625,33.8671875 8.525390625,33.8671875z M5.2734375,30.76171875L13.857421875,30.87890625 37.6171875,30.87890625 46.201171875,30.76171875 46.669921875,31.23046875 46.552734375,36.943359375 46.552734375,42.919921875 46.669921875,54.08203125 46.201171875,54.580078125 43.41796875,54.580078125 42.890625,54.08203125 42.890625,51.50390625 8.525390625,51.50390625 8.525390625,54.08203125 8.115234375,54.580078125 5.2734375,54.580078125 4.8046875,54.08203125 4.921875,42.919921875 4.921875,37.646484375 4.8046875,31.23046875 5.2734375,30.76171875z M12.890625,17.28515625L12.890625,23.671875 38.408203125,23.671875 38.408203125,17.28515625 12.890625,17.28515625z M9.697265625,14.12109375L17.75390625,14.23828125 33.603515625,14.23828125 41.66015625,14.12109375 42.12890625,14.58984375 42.01171875,18.427734375 42.01171875,22.587890625 42.12890625,26.3671875 41.66015625,26.8359375 33.603515625,26.71875 17.75390625,26.71875 9.697265625,26.8359375 9.228515625,26.3671875 9.345703125,22.587890625 9.345703125,18.427734375 9.228515625,14.58984375 9.697265625,14.12109375z M23.232421875,0L27.158203125,0.322265386581421 27.890625,0.791015386581421 27.5390625,1.87500023841858 27.3193340301514,3.37646484375 27.24609375,6.06445264816284 27.24609375,6.85546922683716 43.505859375,6.85546922683716 51.416015625,6.73828125 51.9140625,7.265625 51.9140625,9.814453125 51.416015625,10.283203125 43.505859375,10.166015625 8.408203125,10.166015625 0.52734375,10.283203125 0,9.814453125 0,7.265625 0.52734375,6.73828125 8.408203125,6.85546922683716 23.642578125,6.85546922683716 23.642578125,6.06445264816284 23.5400371551514,2.36572551727295 23.232421875,0z" />
    </g>
  </g>
</svg>