<?xml version="1.0" encoding="utf-8"?>
<!DOCTYPE svg PUBLIC "-//W3C//DTD SVG 1.1//EN" "http://www.w3.org/Graphics/SVG/1.1/DTD/svg11.dtd">
<svg width="15.17578125" height="48.6328125" xmlns="http://www.w3.org/2000/svg" xmlns:xlink="http://www.w3.org/1999/xlink" xmlns:xml="http://www.w3.org/XML/1998/namespace" version="1.1">
  <g>
    <g>
      <path style="fill:#FF0000;fill-opacity:1" d="M10.13671875,0L12.4877910614014,0.146484375 14.443359375,0.3515625 15.17578125,0.908203125 14.794921875,2.05078125 14.64111328125,2.669677734375 14.53125,3.7353515625 14.46533203125,5.247802734375 14.443359375,7.20703125 14.443359375,33.603515625 14.560546875,42.65625 14.11376953125,45.615234375 12.7734375,47.4609375 11.6015615463257,47.9736328125 9.99023246765137,48.33984375 7.93945217132568,48.5595703125 5.44921875,48.6328125 2.6953125,48.603515625 1.58203125,48.369140625 1.259765625,47.51953125 0.71044921875,45.7470703125 0,44.4140625 7.060546875,44.82421875 8.85497856140137,44.67041015625 9.90234375,44.208984375 10.3857402801514,43.35205078125 10.546875,41.953125 10.546875,7.265625 10.4443340301514,2.9736328125 10.13671875,0z" />
    </g>
  </g>
</svg>