<?xml version="1.0" encoding="utf-8"?>
<!DOCTYPE svg PUBLIC "-//W3C//DTD SVG 1.1//EN" "http://www.w3.org/Graphics/SVG/1.1/DTD/svg11.dtd">
<svg width="53.583984375" height="49.62890625" xmlns="http://www.w3.org/2000/svg" xmlns:xlink="http://www.w3.org/1999/xlink" xmlns:xml="http://www.w3.org/XML/1998/namespace" version="1.1">
  <g>
    <g>
      <path style="fill:#FF0000;fill-opacity:1" d="M38.583984375,0L40.80322265625,0.695801258087158 42.48046875,1.31836032867432 43.11767578125,1.72119188308716 43.330078125,2.16796922683716 42.7734375,3.16406297683716 42.24609375,4.02832078933716 41.77734375,5.44921922683716 39.393310546875,12.7587900161743 36.5771484375,19.3945331573486 33.328857421875,25.3564472198486 29.6484375,30.64453125 34.5611572265625,35.123291015625 40.18798828125,39.0966796875 46.5289306640625,42.564697265625 53.583984375,45.52734375 52.6904258728027,46.6552734375 51.767578125,48.3984375 51.3720664978027,49.16748046875 51.005859375,49.423828125 50.15625,49.130859375 43.23486328125,45.79833984375 37.060546875,42.12890625 31.63330078125,38.12255859375 26.953125,33.779296875 22.2088623046875,38.3258056640625 16.73583984375,42.44384765625 10.5340576171875,46.1334228515625 3.603515625,49.39453125 2.75390672683716,49.62890625 2.33642578125,49.37255859375 1.84570264816284,48.603515625 0,46.142578125 7.27477979660034,43.07373046875 13.74755859375,39.4921875 19.4183349609375,35.39794921875 24.287109375,30.791015625 20.0885009765625,24.884033203125 16.39892578125,18.0615234375 13.2183837890625,10.323486328125 10.546875,1.66992235183716 10.517578125,1.46484375 10.7519521713257,1.16455125808716 11.455078125,0.908204078674316 13.388671875,0.351562976837158 13.9453125,0.263671875 14.4140625,0.732421875 16.636962890625,8.5565185546875 19.4677734375,15.6518564224243 22.906494140625,22.0184326171875 26.953125,27.65625 30.30029296875,22.7325439453125 33.22265625,17.21923828125 35.72021484375,11.1163330078125 37.79296875,4.42382860183716 38.583984375,0z" />
    </g>
  </g>
</svg>