<?xml version="1.0" encoding="utf-8"?>
<!DOCTYPE svg PUBLIC "-//W3C//DTD SVG 1.1//EN" "http://www.w3.org/Graphics/SVG/1.1/DTD/svg11.dtd">
<svg width="52.67578125" height="53.408203125" xmlns="http://www.w3.org/2000/svg" xmlns:xlink="http://www.w3.org/1999/xlink" xmlns:xml="http://www.w3.org/XML/1998/namespace" version="1.1">
  <g>
    <g>
      <path style="fill:#FF0000;fill-opacity:1" d="M29.443359375,29.4140625L31.318359375,31.552734375 29.765625,32.8125 33.05419921875,37.02392578125 36.123046875,40.458984375 41.8212890625,37.3828125 46.904296875,33.779296875 49.189453125,36.064453125 44.3261680603027,39.51416015625 38.583984375,42.65625 41.2005615234375,44.7784423828125 44.42138671875,46.83837890625 48.2464599609375,48.8360595703125 52.67578125,50.771484375 51.005859375,53.408203125 45.1098594665527,50.709228515625 39.375,47.1826171875 36.50390625,44.9093627929688 33.544921875,42.030029296875 30.498046875,38.5446166992188 27.36328125,34.453125 22.1997051239014,37.4560546875 16.318359375,40.1953125 16.318359375,49.27734375 22.4414043426514,47.490234375 29.326171875,45.1171875 29.94140625,48.134765625 21.4233379364014,50.95458984375 13.857421875,52.79296875 12.65625,50.537109375 13.2421875,48.779296875 13.2421875,41.513671875 7.05322265625,43.48388671875 1.66992139816284,44.8828125 0,42.12890625 8.8494873046875,39.774169921875 16.70654296875,36.8701171875 23.5711669921875,33.416748046875 29.443359375,29.4140625z M32.75390625,9.90234375L35.888671875,9.90234375 35.625,13.798828125 45.5859375,13.798828125 45.779109954834,17.5021381378174 46.0656700134277,20.6726093292236 46.445613861084,23.3102436065674 46.9189453125,25.4150390625 47.4105796813965,27.0236206054688 47.8454551696777,28.172607421875 48.2235679626465,28.8619995117188 48.544921875,29.091796875 48.8616905212402,28.743896484375 49.1967735290527,27.7001953125 49.5501670837402,25.960693359375 49.921875,23.525390625 52.6171875,24.90234375 52.2601280212402,27.1783447265625 51.8627891540527,28.96728515625 51.4251670837402,30.2691650390625 50.947265625,31.083984375 49.8486289978027,31.94091796875 48.544921875,32.2265625 47.2924766540527,31.95556640625 46.11328125,31.142578125 45.5465660095215,30.4119873046875 44.9890098571777,29.30419921875 44.4406089782715,27.8192138671875 43.9013671875,25.95703125 43.070068359375,21.5917987823486 42.71484375,16.69921875 35.2734375,16.69921875 34.248046875,20.3393573760986 32.98828125,23.173828125 35.745849609375,24.5892333984375 37.9541015625,25.75927734375 39.613037109375,26.6839599609375 40.72265625,27.36328125 39.287109375,29.94140625 35.5078125,27.69287109375 31.083984375,25.576171875 28.3593730926514,27.7642822265625 25.4296855926514,29.55322265625 22.2949199676514,30.9429931640625 18.955078125,31.93359375 17.2265625,29.150390625 22.9687480926514,27.16552734375 27.7734375,24.2578125 23.935546875,22.67578125 25.6640625,20.21484375 28.212890625,21.2109394073486 30.1171875,21.97265625 31.3916015625,19.3359394073486 32.109375,16.69921875 24.78515625,16.69921875 24.78515625,13.798828125 32.51953125,13.798828125 32.75390625,9.90234375z M11.337890625,9.84375L14.326171875,9.84375 14.326171875,13.681640625 22.265625,13.681640625 22.265625,16.552734375 14.326171875,16.552734375 14.326171875,20.654296875 22.32421875,19.453125 22.8515625,22.08984375 19.15283203125,22.8002948760986 14.326171875,23.583984375 14.326171875,27.7734375 13.9892578125,29.879150390625 12.978515625,31.2158203125 11.0449209213257,31.929931640625 7.939453125,32.16796875 4.541015625,32.109375 3.66210889816284,29.150390625 7.03125,29.296875 9.08935451507568,29.2529296875 10.400390625,29.12109375 11.1035146713257,28.6669921875 11.337890625,27.65625 11.337890625,24.052734375 1.49414014816284,25.13671875 0.761718273162842,22.265625 5.36865234375,21.8627948760986 11.337890625,21.181640625 11.337890625,16.552734375 1.49414014816284,16.552734375 1.49414014816284,13.681640625 11.337890625,13.681640625 11.337890625,9.84375z M25.546875,0L28.505859375,5.39062452316284 52.44140625,5.39062452316284 52.44140625,8.232421875 0.3515625,8.232421875 0.3515625,5.39062452316284 24.90234375,5.39062452316284 23.9648418426514,3.43505859375 22.5,1.083984375 25.546875,0z" />
    </g>
  </g>
</svg>