<?xml version="1.0" encoding="utf-8"?>
<!DOCTYPE svg PUBLIC "-//W3C//DTD SVG 1.1//EN" "http://www.w3.org/Graphics/SVG/1.1/DTD/svg11.dtd">
<svg width="51.181640625" height="52.08984375" xmlns="http://www.w3.org/2000/svg" xmlns:xlink="http://www.w3.org/1999/xlink" xmlns:xml="http://www.w3.org/XML/1998/namespace" version="1.1">
  <g>
    <g>
      <path style="fill:#FF0000;fill-opacity:1" d="M6.416015625,28.359375L43.916015625,28.359375 43.916015625,31.318359375 35.0994873046875,34.2205810546875 27.63427734375,36.86279296875 21.5203857421875,39.2449951171875 16.7578125,41.3671875 13.1817617416382,43.2220458984375 10.6274404525757,44.80224609375 9.09484767913818,46.1077880859375 8.583984375,47.138671875 9.2431640625,48.310546875 9.82910060882568,48.5202026367188 10.9277334213257,48.709716796875 12.5390615463257,48.8790893554688 14.6630859375,49.0283203125 19.962158203125,49.237060546875 26.337890625,49.306640625 30.0119018554688,49.2997741699219 33.284912109375,49.2791748046875 36.1569213867188,49.2448425292969 38.6279296875,49.19677734375 40.6979370117188,49.1349792480469 42.366943359375,49.0594482421875 43.6349487304688,48.9701843261719 44.501953125,48.8671875 45.7360801696777,48.211669921875 46.7724571228027,46.6845703125 47.6110801696777,44.285888671875 48.251953125,41.015625 51.181640625,42.83203125 50.3942832946777,46.614990234375 49.0869140625,49.2919921875 47.2521934509277,50.96923828125 44.8828125,51.7529296875 42.85400390625,51.9003295898438 39.404296875,52.005615234375 34.53369140625,52.0687866210938 28.2421875,52.08984375 21.2475566864014,52.027587890625 15.029296875,51.8408203125 12.4081411361694,51.6989135742188 10.3747549057007,51.522216796875 8.92913722991943,51.3107299804688 8.0712890625,51.064453125 6.1669921875,49.4091796875 5.584716796875,48.262939453125 5.390625,47.080078125 5.819091796875,45.4165649414063 7.1044921875,43.707275390625 9.246826171875,41.9522094726563 12.24609375,40.1513671875 16.23046875,38.2315063476563 21.328125,36.119384765625 27.5390625,33.8150024414063 34.86328125,31.318359375 6.416015625,31.318359375 6.416015625,28.359375z M33.720703125,5.85937547683716L33.720703125,20.68359375 47.40234375,20.68359375 47.40234375,5.85937547683716 33.720703125,5.85937547683716z M30.615234375,2.87109375L50.44921875,2.87109375 50.44921875,23.61328125 30.615234375,23.61328125 30.615234375,2.87109375z M11.279296875,0L14.4140625,0 14.150390625,5.21484375 26.513671875,5.21484375 26.2902812957764,11.806640625 25.9130859375,17.109375 25.6805400848389,19.2123432159424 25.4370098114014,20.8630390167236 25.1824932098389,22.0614643096924 24.9169921875,22.8076171875 23.173828125,24.375 21.2402324676514,24.7705097198486 17.841796875,24.90234375 15,24.814453125 14.033203125,21.826171875 17.900390625,21.97265625 20.4821758270264,21.8884296417236 21.8408203125,21.6357421875 22.1932964324951,21.1770648956299 22.5036602020264,20.1379413604736 22.7719097137451,18.5183734893799 22.998046875,16.318359375 23.2910137176514,11.78466796875 23.349609375,8.14453125 13.857421875,8.14453125 12.8887939453125,13.516845703125 10.62744140625,18.2373046875 7.0733642578125,22.305908203125 2.22656321525574,25.72265625 0,23.61328125 4.48425245285034,20.416259765625 7.77099514007568,16.7724609375 9.86022853851318,12.681884765625 10.751953125,8.14453125 1.20117211341858,8.14453125 1.20117211341858,5.21484375 11.044921875,5.21484375 11.279296875,0z" />
    </g>
  </g>
</svg>