<?xml version="1.0" encoding="utf-8"?>
<!DOCTYPE svg PUBLIC "-//W3C//DTD SVG 1.1//EN" "http://www.w3.org/Graphics/SVG/1.1/DTD/svg11.dtd">
<svg width="48.427734375" height="52.44140625" xmlns="http://www.w3.org/2000/svg" xmlns:xlink="http://www.w3.org/1999/xlink" xmlns:xml="http://www.w3.org/XML/1998/namespace" version="1.1">
  <g>
    <g>
      <path style="fill:#FF0000;fill-opacity:1" d="M33.427734375,27.890625L33.427734375,35.390625 45.322265625,35.390625 45.322265625,27.890625 33.427734375,27.890625z M19.51171875,27.890625L19.2260723114014,31.8310546875 18.779296875,35.390625 30.380859375,35.390625 30.380859375,27.890625 19.51171875,27.890625z M4.39453077316284,27.890625L4.39453077316284,35.390625 15.498046875,35.390625 16.376953125,27.890625 4.39453077316284,27.890625z M19.62890625,19.013671875L19.62890625,25.13671875 30.380859375,25.13671875 30.380859375,19.013671875 19.62890625,19.013671875z M33.427734375,9.111328125L33.427734375,16.142578125 43.447265625,16.142578125 43.447265625,9.111328125 33.427734375,9.111328125z M19.62890625,9.111328125L19.62890625,16.142578125 30.380859375,16.142578125 30.380859375,9.111328125 19.62890625,9.111328125z M5.94726514816284,9.111328125L5.94726514816284,16.142578125 16.58203125,16.142578125 16.58203125,9.111328125 5.94726514816284,9.111328125z M16.58203125,0L19.62890625,0 19.62890625,6.357421875 30.380859375,6.357421875 30.380859375,0 33.427734375,0 33.427734375,6.357421875 46.58203125,6.357421875 46.58203125,19.013671875 33.427734375,19.013671875 33.427734375,25.13671875 48.427734375,25.13671875 48.427734375,38.26171875 33.427734375,38.26171875 33.427734375,52.44140625 30.380859375,52.44140625 30.380859375,38.26171875 17.841796875,38.26171875 15.4779052734375,43.01513671875 11.9897451400757,46.93359375 7.37731838226318,50.01708984375 1.640625,52.265625 0,49.482421875 5.15624952316284,47.7044677734375 9.28710842132568,45.24169921875 12.392578125,42.0941162109375 14.47265625,38.26171875 1.08398389816284,38.26171875 1.08398389816284,25.13671875 16.58203125,25.13671875 16.58203125,19.013671875 2.84179639816284,19.013671875 2.84179639816284,6.357421875 16.58203125,6.357421875 16.58203125,0z" />
    </g>
  </g>
</svg>