<?xml version="1.0" encoding="utf-8"?>
<!DOCTYPE svg PUBLIC "-//W3C//DTD SVG 1.1//EN" "http://www.w3.org/Graphics/SVG/1.1/DTD/svg11.dtd">
<svg width="54.873046875" height="52.55859375" xmlns="http://www.w3.org/2000/svg" xmlns:xlink="http://www.w3.org/1999/xlink" xmlns:xml="http://www.w3.org/XML/1998/namespace" version="1.1">
  <g>
    <g>
      <path style="fill:#FF0000;fill-opacity:1" d="M21.005859375,0L22.6391582489014,0.102541714906693 25.25390625,0.351562261581421 25.8911113739014,0.600588619709015 26.103515625,0.996093988418579 26.0009746551514,1.38428008556366 25.693359375,2.255859375 25.4077129364014,3.9404296875 25.25390625,7.119140625 25.078125,13.681640625 31.787109375,13.564453125 35.4345703125,13.49853515625 38.525390625,13.41796875 39.9609375,13.359375 40.400390625,13.359375 40.810546875,13.828125 40.75927734375,15.0238037109375 40.72265625,16.67724609375 40.70068359375,18.7884521484375 40.693359375,21.357421875 40.37109375,43.974609375 40.56884765625,46.35498046875 41.162109375,47.51953125 42.63427734375,47.958984375 45.41015625,48.10546875 48.3105430603027,47.80517578125 49.921875,46.904296875 50.5462608337402,45.69580078125 51.0131797790527,43.681640625 51.3226280212402,40.86181640625 51.474609375,37.236328125 53.759765625,38.583984375 54.5947227478027,39.07470703125 54.873046875,39.78515625 54.84375,40.37109375 54.5214805603027,44.28955078125 54.0234375,46.904296875 53.3642539978027,48.5009765625 52.3828125,49.716796875 51.1999473571777,50.562744140625 49.5849571228027,51.1669921875 47.5378379821777,51.529541015625 45.05859375,51.650390625 42.7020263671875,51.5826416015625 40.78857421875,51.37939453125 39.3182373046875,51.0406494140625 38.291015625,50.56640625 36.884765625,48.779296875 36.6064453125,47.38037109375 36.533203125,45.46875 36.9140625,16.962890625 24.84375,17.138671875 24.3457012176514,21.64306640625 23.7011699676514,25.6640625 22.9101543426514,29.20166015625 21.97265625,32.255859375 25.4663066864014,35.4931640625 29.267578125,39.287109375 29.53125,39.7265625 29.091796875,40.4296875 27.71484375,42.041015625 27.041015625,42.626953125 26.630859375,42.333984375 23.4741191864014,38.86962890625 20.390625,35.80078125 17.255859375,41.05224609375 13.359375,45.556640625 9.22119045257568,48.99169921875 4.18945360183716,52.20703125 3.310546875,52.55859375 2.93701124191284,52.36083984375 2.40234375,51.767578125 1.3916015625,50.76416015625 0,49.8046875 5.77148389816284,46.640625 10.60546875,42.802734375 14.501953125,38.291015625 17.4609375,33.10546875 8.701171875,26.689453125 8.408203125,26.396484375 8.818359375,25.72265625 10.13671875,24.169921875 10.458984375,23.96484375 10.810546875,24.111328125 15.0146484375,26.865234375 18.837890625,29.677734375 20.2148418426514,24.0527362823486 21.064453125,17.197265625 12.36328125,17.34375 8.83300685882568,17.39501953125 5.859375,17.490234375 4.482421875,17.548828125 4.013671875,17.578125 3.544921875,17.080078125 3.544921875,14.267578125 4.013671875,13.798828125 9.2578125,13.857421875 10.4003896713257,13.857421875 12.36328125,13.857421875 21.240234375,13.740234375 21.3574199676514,11.044921875 21.474609375,7.177734375 21.3574199676514,3.22998046875 21.005859375,0z" />
    </g>
  </g>
</svg>