<?xml version="1.0" encoding="utf-8"?>
<!DOCTYPE svg PUBLIC "-//W3C//DTD SVG 1.1//EN" "http://www.w3.org/Graphics/SVG/1.1/DTD/svg11.dtd">
<svg width="53.349609375" height="50.185546875001" xmlns="http://www.w3.org/2000/svg" xmlns:xlink="http://www.w3.org/1999/xlink" xmlns:xml="http://www.w3.org/XML/1998/namespace" version="1.1">
  <g>
    <g>
      <path style="fill:#FF0000;fill-opacity:1" d="M15.46875,5.88867139816284L17.63671875,6.07910108566284 19.3359375,6.29882764816284 20.068359375,6.82617139816284 19.74609375,7.85156202316284 19.5922832489014,8.5675048828125 19.4824199676514,9.83642578125 19.4165019989014,11.6583251953125 19.39453125,14.033203125 19.39453125,16.435546875 25.458984375,16.435546875 33.486328125,16.318359375 34.013671875,16.845703125 34.013671875,19.27734375 33.486328125,19.8046875 25.458984375,19.6875 19.39453125,19.6875 19.39453125,29.765625 26.77734375,29.765625 35.09765625,29.6484375 35.654296875,30.17578125 35.654296875,32.607421875 35.09765625,33.134765625 26.77734375,33.017578125 19.39453125,33.017578125 19.39453125,39.609375 19.51171875,49.62890625 18.955078125,50.185546875 16.318359375,50.185546875 15.791015625,49.62890625 15.908203125,39.609375 15.908203125,33.017578125 8.876953125,33.017578125 0.527344226837158,33.134765625 0,32.607421875 0,30.17578125 0.527344226837158,29.6484375 8.876953125,29.765625 15.908203125,29.765625 15.908203125,19.6875 10.60546875,19.6875 2.57812452316284,19.8046875 2.05078125,19.27734375 2.05078125,16.845703125 2.57812452316284,16.318359375 10.60546875,16.435546875 15.908203125,16.435546875 15.908203125,14.208984375 15.79833984375,9.3310546875 15.46875,5.88867139816284z M1.201171875,0L9.7265625,0.1171875 33.28125,0.1171875 41.923828125,0 42.48046875,0.673827648162842 42.36328125,10.1953125 42.4713134765625,17.889404296875 42.79541015625,24.6826171875 43.3355712890625,30.574951171875 44.091796875,35.56640625 45.0933799743652,39.898681640625 46.1059532165527,42.9931640625 47.1295127868652,44.849853515625 48.1640625,45.46875 48.9404258728027,44.8699951171875 49.5410118103027,43.07373046875 49.9658164978027,40.0799560546875 50.21484375,35.888671875 51.0644493103027,36.68701171875 52.5,37.6171875 53.1372032165527,38.21044921875 53.349609375,38.935546875 53.3203125,39.287109375 53.0328330993652,42.041015625 52.6098594665527,44.35546875 52.0513877868652,46.23046875 51.357421875,47.666015625 49.9291954040527,49.1162109375 48.046875,49.599609375 46.7925987243652,49.3780517578125 45.6372032165527,48.71337890625 44.5806846618652,47.6055908203125 43.623046875,46.0546875 42.8778076171875,44.3536376953125 42.16552734375,42.26806640625 41.4862060546875,39.7979736328125 40.83984375,36.943359375 39.9554443359375,31.32568359375 39.32373046875,24.755859375 38.9447021484375,17.23388671875 38.818359375,8.759765625 38.818359375,3.42773389816284 9.7265625,3.42773389816284 1.201171875,3.54492139816284 0.644531726837158,3.01757764816284 0.644531726837158,0.527343273162842 1.201171875,0z" />
    </g>
  </g>
</svg>