<?xml version="1.0" encoding="utf-8"?>
<!DOCTYPE svg PUBLIC "-//W3C//DTD SVG 1.1//EN" "http://www.w3.org/Graphics/SVG/1.1/DTD/svg11.dtd">
<svg width="52.32421875" height="53.26171875" xmlns="http://www.w3.org/2000/svg" xmlns:xlink="http://www.w3.org/1999/xlink" xmlns:xml="http://www.w3.org/XML/1998/namespace" version="1.1">
  <g>
    <g>
      <path style="fill:#FF0000;fill-opacity:1" d="M32.8125,24.404296875L36.357421875,25.95703125 37.08984375,26.806640625 36.357421875,27.83203125 35.33935546875,28.9599609375 34.21875,30.64453125 31.22314453125,35.19287109375 28.330078125,38.876953125 32.8509521484375,42.2021484375 38.35693359375,45.087890625 44.8480224609375,47.5341796875 52.32421875,49.541015625 50.56640625,52.236328125 50.1562461853027,53.00537109375 49.6875,53.26171875 48.837890625,53.0859375 41.737060546875,50.8135986328125 35.5224609375,48.12744140625 30.194091796875,45.0274658203125 25.751953125,41.513671875 21.474609375,44.9505615234375 16.34765625,48.02490234375 10.37109375,50.7366943359375 3.54492235183716,53.0859375 2.578125,53.26171875 2.14599561691284,53.02001953125 1.66992139816284,52.294921875 0,50.09765625 7.01293897628784,48.0120849609375 13.1982421875,45.44677734375 18.555908203125,42.4017333984375 23.0859375,38.876953125 18.9990234375,33.427734375 15.234375,26.806640625 15.146484375,26.455078125 15.791015625,25.8984375 17.63671875,25.01953125 18.10546875,24.84375 18.427734375,25.13671875 21.8847637176514,31.35498046875 25.693359375,36.298828125 30.46875,29.560546875 31.8310546875,26.9384765625 32.8125,24.404296875z M35.7421875,13.88671875L36.181640625,14.150390625 39.473876953125,17.8216571807861 43.0810546875,21.0131855010986 47.003173828125,23.7249774932861 51.240234375,25.95703125 49.306640625,28.18359375 48.8671836853027,28.82080078125 48.544921875,29.033203125 47.578125,28.681640625 39.68994140625,23.0346698760986 33.251953125,15.99609375 33.076171875,15.64453125 33.662109375,15.05859375 35.09765625,14.150390625 35.7421875,13.88671875z M14.58984375,13.65234375L17.75390625,15.3515625 18.427734375,16.259765625 17.841796875,16.962890625 17.05078125,17.62939453125 16.025390625,18.80859375 10.75927734375,24.3237323760986 4.39453125,29.267578125 3.48632764816284,29.677734375 2.6953125,28.9453125 0.732421875,27.041015625 7.41943264007568,22.3388690948486 12.890625,16.728515625 14.58984375,13.65234375z M23.291015625,0L25.5322246551514,0.117190390825272 27.275390625,0.292968988418579 28.0078125,0.761718988418579 27.65625,1.84570336341858 27.4804668426514,3.22265625 27.421875,6.064453125 27.421875,7.734375 43.154296875,7.734375 51.064453125,7.6171875 51.533203125,8.0859375 51.533203125,10.810546875 51.064453125,11.279296875 43.154296875,11.162109375 8.818359375,11.162109375 0.908203601837158,11.279296875 0.41015625,10.810546875 0.41015625,8.0859375 0.908203601837158,7.6171875 8.818359375,7.734375 23.701171875,7.734375 23.701171875,6.064453125 23.5986309051514,2.35107421875 23.291015625,0z" />
    </g>
  </g>
</svg>