<?xml version="1.0" encoding="utf-8"?>
<!DOCTYPE svg PUBLIC "-//W3C//DTD SVG 1.1//EN" "http://www.w3.org/Graphics/SVG/1.1/DTD/svg11.dtd">
<svg width="51.416015625" height="47.34375" xmlns="http://www.w3.org/2000/svg" xmlns:xlink="http://www.w3.org/1999/xlink" xmlns:xml="http://www.w3.org/XML/1998/namespace" version="1.1">
  <g>
    <g>
      <path style="fill:#FF0000;fill-opacity:1" d="M38.935546875,0L39.66064453125,0.270996510982513 40.6640625,1.08398485183716 41.52099609375,2.07275438308716 41.806640625,2.75390672683716 41.337890625,3.48632860183716 40.58349609375,4.24072313308716 40.13671875,5.39062547683716 38.759765625,11.5722665786743 37.265625,17.34375 45.52734375,17.34375 50.888671875,17.2265625 51.416015625,17.75390625 50.947265625,23.232421875 50.4968223571777,28.3319091796875 49.9951133728027,32.81982421875 49.4421348571777,36.6961669921875 48.837890625,39.9609375 47.6147422790527,43.48388671875 45.703125,45.732421875 43.388671875,46.76513671875 40.3125,47.109375 36.92138671875,47.021484375 33.955078125,46.7578125 32.87109375,46.40625 32.51953125,45.322265625 31.552734375,42.5390625 36.13037109375,43.22021484375 40.25390625,43.447265625 42.13623046875,43.18359375 43.447265625,42.392578125 44.34814453125,41.0009765625 45,38.876953125 45.6628379821777,35.240478515625 46.2451133728027,31.0107421875 46.7468223571777,26.187744140625 47.16796875,20.771484375 36.240234375,20.771484375 35.2734375,23.84765625 34.62890625,24.375 33.193359375,24.19921875 31.7431640625,23.876953125 31.259765625,23.49609375 31.318359375,23.173828125 34.248046875,13.6376962661743 36.474609375,3.89648485183716 23.02734375,3.89648485183716 22.6135234832764,11.4038095474243 21.8701152801514,17.9589862823486 20.7971172332764,23.5620136260986 19.39453125,28.212890625 16.63330078125,34.27001953125 13.271484375,39.19921875 9.34570217132568,43.125 4.30664014816284,46.875 3.369140625,47.34375 2.99560499191284,47.14599609375 2.4609375,46.552734375 0,44.765625 5.91796875,40.81787109375 10.48828125,36.298828125 13.36669921875,31.98486328125 15.673828125,26.89453125 16.973876953125,22.4688739776611 17.9736328125,17.1606464385986 18.673095703125,10.9698495864868 19.072265625,3.89648485183716 12.7734375,3.89648485183716 4.39453077316284,4.01367235183716 3.896484375,3.60351610183716 3.896484375,0.761719226837158 4.39453077316284,0.292969226837158 12.7734375,0.410156726837158 36.767578125,0.410156726837158 37.7490234375,0.351563036441803 38.349609375,0.175782203674316 38.935546875,0z" />
    </g>
  </g>
</svg>