<?xml version="1.0" encoding="utf-8"?>
<!DOCTYPE svg PUBLIC "-//W3C//DTD SVG 1.1//EN" "http://www.w3.org/Graphics/SVG/1.1/DTD/svg11.dtd">
<svg width="49.658203125" height="50.80078125" xmlns="http://www.w3.org/2000/svg" xmlns:xlink="http://www.w3.org/1999/xlink" xmlns:xml="http://www.w3.org/XML/1998/namespace" version="1.1">
  <g>
    <g>
      <path style="fill:#FF0000;fill-opacity:1" d="M24.90234375,17.40234375L27.37060546875,18.1274433135986 28.857421875,18.662109375 29.53125,19.423828125 29.033203125,20.2734375 28.29345703125,21.4160175323486 27.421875,23.14453125 22.4047832489014,33.66943359375 16.435546875,44.208984375 40.869140625,41.513671875 37.412109375,36.533203125 33.427734375,31.552734375 33.22265625,31.201171875 33.544921875,30.8203125 35.654296875,29.443359375 36.005859375,29.296875 36.416015625,29.560546875 43.5278282165527,38.63525390625 49.5703125,48.33984375 49.658203125,48.69140625 49.306640625,49.130859375 46.669921875,50.68359375 46.34765625,50.80078125 45.966796875,50.44921875 42.71484375,44.443359375 35.185546875,45.5694580078125 27.158203125,46.60400390625 18.6328125,47.5469970703125 9.609375,48.3984375 7.20703172683716,49.013671875 6.41601610183716,49.306640625 5.77148485183716,48.6328125 4.80468797683716,44.677734375 6.91406297683716,44.736328125 11.455078125,44.560546875 12.12890625,44.501953125 18.1640625,33.837890625 22.91015625,23.583984375 24.1552715301514,20.1782245635986 24.90234375,17.40234375z M19.98046875,0L22.0092754364014,0.695800840854645 23.642578125,1.43554735183716 24.345703125,2.28515625 23.935546875,2.9296875 22.8515625,4.248046875 19.0557861328125,10.8160400390625 14.58251953125,16.80908203125 9.4317626953125,22.2271728515625 3.60351610183716,27.0703125 2.81250047683716,27.48046875 2.16796922683716,26.748046875 0,24.580078125 6.298828125,19.8120136260986 12.01171875,13.9453125 15.93017578125,8.701171875 18.896484375,3.3984375 19.98046875,0z" />
    </g>
  </g>
</svg>