<?xml version="1.0" encoding="utf-8"?>
<!DOCTYPE svg PUBLIC "-//W3C//DTD SVG 1.1//EN" "http://www.w3.org/Graphics/SVG/1.1/DTD/svg11.dtd">
<svg width="55.458984375" height="52.44140625" xmlns="http://www.w3.org/2000/svg" xmlns:xlink="http://www.w3.org/1999/xlink" xmlns:xml="http://www.w3.org/XML/1998/namespace" version="1.1">
  <g>
    <g>
      <path style="fill:#FF0000;fill-opacity:1" d="M23.49609375,38.056640625L23.876953125,38.291015625 27.2387676239014,42.3486328125 30.17578125,46.669921875 30.3515625,47.080078125 30.05859375,47.4609375 28.271484375,48.779296875 27.94921875,48.92578125 27.59765625,48.603515625 24.5214824676514,43.68896484375 21.50390625,39.84375 21.298828125,39.521484375 21.591796875,39.169921875 23.0859375,38.232421875 23.49609375,38.056640625z M7.3828125,37.6171875L9.10400390625,38.22509765625 10.341796875,38.759765625 10.927734375,39.4921875 10.400390625,40.25390625 9.140625,41.748046875 6.65771484375,45.498046875 3.662109375,48.896484375 2.8125,49.51171875 1.93359375,48.955078125 0,47.87109375 3.43505859375,44.42138671875 6.005859375,40.869140625 6.87744140625,39.04541015625 7.3828125,37.6171875z M14.208984375,15.1171875L16.9921875,16.728515625 17.40234375,17.34375 16.728515625,18.046875 15.29296875,19.306640625 13.1469717025757,21.7236347198486 11.337890625,23.583984375 15.3515625,27.12890625 17.65869140625,24.8510761260986 19.072265625,23.349609375 21.01318359375,21.1816425323486 22.20703125,19.306640625 23.3642559051514,19.9218769073486 25.078125,20.947265625 25.546875,21.591796875 25.01953125,22.32421875 24.0820293426514,22.8002948760986 23.02734375,23.701171875 17.99560546875,28.4326171875 13.857421875,31.904296875 19.92919921875,31.552734375 25.37109375,31.083984375 24.1918926239014,29.501953125 23.291015625,28.388671875 23.0859375,28.0078125 23.408203125,27.65625 24.78515625,26.865234375 25.166015625,26.71875 25.60546875,26.982421875 28.7475566864014,30.94482421875 31.376953125,34.98046875 31.552734375,35.361328125 31.259765625,35.771484375 29.53125,36.884765625 29.1796875,37.03125 28.857421875,36.708984375 27.8686504364014,34.8779296875 27.12890625,33.603515625 21.85546875,34.12353515625 17.4609375,34.51171875 17.4609375,46.142578125 17.578125,51.884765625 17.05078125,52.44140625 14.560546875,52.44140625 14.033203125,51.884765625 14.150390625,46.142578125 14.150390625,34.74609375 9.580078125,35.0390625 7.33154296875,35.1708984375 5.5078125,35.2734375 3.75,35.41259765625 2.92968702316284,35.654296875 2.34375,35.888671875 1.787109375,35.21484375 1.08398413658142,32.109375 5.36132860183716,32.2265625 9.404296875,32.16796875 11.6967763900757,30.27099609375 13.06640625,29.091796875 9.140625,25.68603515625 4.6875,22.44140625 4.36523485183716,22.060546875 4.541015625,21.708984375 5.80078172683716,20.33203125 6.240234375,20.068359375 6.591796875,20.21484375 7.3095703125,20.7055683135986 9.111328125,21.943359375 11.3159170150757,19.4458026885986 13.125,17.109375 14.208984375,15.1171875z M16.23046875,7.6171875L16.611328125,7.939453125 18.955078125,13.681640625 19.013671875,13.9453125 18.544921875,14.326171875 16.376953125,15 16.083984375,15.05859375 15.732421875,14.6484375 14.9267578125,11.53564453125 13.798828125,8.818359375 13.7109375,8.49609375 14.091796875,8.14453125 15.849609375,7.67578125 16.23046875,7.6171875z M26.42578125,7.20703125L26.89453125,7.5 29.3408203125,11.09619140625 31.7578125,15.615234375 31.845703125,15.9375 31.494140625,16.376953125 29.70703125,17.578125 29.35546875,17.75390625 29.033203125,17.40234375 26.6821269989014,12.65625 24.31640625,9.0234375 24.111328125,8.642578125 24.43359375,8.291015625 26.044921875,7.32421875 26.42578125,7.20703125z M34.013671875,0.41015625L37.8515625,0.908203125 38.48876953125,1.08398413658142 38.701171875,1.43554663658142 38.26171875,2.69531273841858 38.10791015625,3.511962890625 37.998046875,5.0537109375 37.93212890625,7.320556640625 37.91015625,10.3125 37.91015625,43.916015625 37.9833984375,45.703125 38.203125,46.845703125 39.111328125,47.900390625 40.986328125,48.2958984375 44.150390625,48.427734375 46.1956748962402,48.3489990234375 47.8491172790527,48.11279296875 49.1107139587402,47.7191162109375 49.98046875,47.16796875 50.7550010681152,46.0272216796875 51.3500938415527,44.15771484375 51.7657432556152,41.5594482421875 52.001953125,38.232421875 54.462890625,39.78515625 55.2099571228027,40.224609375 55.458984375,40.72265625 55.4296875,41.220703125 54.8876914978027,45.1611328125 54.140625,47.841796875 52.3828125,50.244140625 51.0552940368652,51.0260009765625 49.2114219665527,51.58447265625 46.8511924743652,51.9195556640625 43.974609375,52.03125 41.3232421875,51.9708251953125 39.19921875,51.78955078125 37.6025390625,51.4874267578125 36.533203125,51.064453125 34.921875,49.306640625 34.54833984375,47.70263671875 34.423828125,45.46875 34.423828125,10.13671875 34.398193359375,6.89208984375 34.3212890625,4.189453125 34.193115234375,2.02880859375 34.013671875,0.41015625z M26.337890625,0L28.798828125,2.28515601158142 29.150390625,3.04687428474426 28.9233379364014,3.46435523033142 28.2421875,3.60351586341858 25.986328125,4.013671875 17.783203125,5.95458984375 8.232421875,7.08984375 6.50390625,12.94189453125 3.779296875,17.900390625 3.10546875,18.544921875 2.28515625,17.98828125 0.351562738418579,16.9921875 3.32519507408142,12.04833984375 5.09765625,6.181640625 5.44921875,2.69531273841858 8.818359375,4.013671875 16.69921875,2.98828101158142 23.583984375,1.25976586341858 25.2685527801514,0.54931914806366 26.337890625,0z" />
    </g>
  </g>
</svg>