<?xml version="1.0" encoding="utf-8"?>
<!DOCTYPE svg PUBLIC "-//W3C//DTD SVG 1.1//EN" "http://www.w3.org/Graphics/SVG/1.1/DTD/svg11.dtd">
<svg width="52.55859375" height="52.91015625" xmlns="http://www.w3.org/2000/svg" xmlns:xlink="http://www.w3.org/1999/xlink" xmlns:xml="http://www.w3.org/XML/1998/namespace" version="1.1">
  <g>
    <g>
      <path style="fill:#FF0000;fill-opacity:1" d="M1.52343797683716,33.896484375L23.232421875,33.896484375 23.232421875,36.650390625 13.974609375,36.650390625 13.974609375,41.71875 24.43359375,41.71875 24.43359375,44.58984375 13.974609375,44.58984375 13.974609375,52.91015625 10.869140625,52.91015625 10.869140625,44.58984375 0,44.58984375 0,41.71875 10.869140625,41.71875 10.869140625,36.650390625 1.52343797683716,36.650390625 1.52343797683716,33.896484375z M5.595703125,22.5L5.595703125,26.953125 18.896484375,26.953125 18.896484375,22.5 5.595703125,22.5z M27.3046875,21.298828125L49.27734375,21.298828125 49.27734375,24.052734375 41.473388671875,31.201171875 34.8779296875,38.408203125 32.2567749023438,41.6693115234375 30.384521484375,44.21630859375 29.2611694335938,46.0491943359375 28.88671875,47.16796875 29.132080078125,48.057861328125 29.8681640625,48.6181640625 30.6747436523438,48.7911987304688 32.113037109375,48.914794921875 34.1830444335938,48.9889526367188 36.884765625,49.013671875 40.5670127868652,48.9697265625 43.4985313415527,48.837890625 45.6793174743652,48.6181640625 47.109375,48.310546875 48.0615196228027,47.4884033203125 48.8085899353027,45.72509765625 49.3505821228027,43.0206298828125 49.6875,39.375 52.55859375,40.25390625 52.1887168884277,44.498291015625 51.4306640625,47.6220703125 50.2221641540527,49.775390625 48.5009765625,51.1083984375 47.0150718688965,51.5121459960938 44.5349082946777,51.800537109375 41.0604820251465,51.9735717773438 36.591796875,52.03125 33.45703125,51.97998046875 30.732421875,51.826171875 28.53515625,51.353759765625 26.982421875,50.3466796875 26.0595684051514,48.922119140625 25.751953125,47.197265625 26.0435485839844,45.6605529785156 26.9183349609375,43.7457275390625 28.3763122558594,41.4527893066406 30.41748046875,38.78173828125 33.0418395996094,35.7325744628906 36.2493896484375,32.3052978515625 40.0401306152344,28.4999084472656 44.4140625,24.31640625 27.3046875,24.31640625 27.3046875,21.298828125z M5.595703125,15.41015625L5.595703125,19.62890625 18.896484375,19.62890625 18.896484375,15.41015625 5.595703125,15.41015625z M10.693359375,0.498046636581421L13.681640625,0.498046636581421 13.681640625,5.654296875 23.818359375,5.654296875 23.818359375,8.408203125 13.681640625,8.408203125 13.681640625,12.65625 22.03125,12.65625 22.03125,29.765625 2.51953125,29.765625 2.51953125,12.65625 10.693359375,12.65625 10.693359375,8.408203125 0.556640625,8.408203125 0.556640625,5.654296875 10.693359375,5.654296875 10.693359375,0.498046636581421z M33.603515625,0L36.5625,1.02539038658142 34.95849609375,4.73876953125 32.783203125,9.43359375 52.08984375,9.43359375 52.08984375,12.421875 31.083984375,12.421875 29.0771484375,15.76171875 25.869140625,20.2734375 23.291015625,18.427734375 28.9306640625,9.89501953125 33.603515625,0z" />
    </g>
  </g>
</svg>