<?xml version="1.0" encoding="utf-8"?>
<!DOCTYPE svg PUBLIC "-//W3C//DTD SVG 1.1//EN" "http://www.w3.org/Graphics/SVG/1.1/DTD/svg11.dtd">
<svg width="46.93359375" height="50.68359375" xmlns="http://www.w3.org/2000/svg" xmlns:xlink="http://www.w3.org/1999/xlink" xmlns:xml="http://www.w3.org/XML/1998/namespace" version="1.1">
  <g>
    <g>
      <path style="fill:#FF0000;fill-opacity:1" d="M36.62109375,23.935546875L37.763671875,27.099609375 29.94873046875,31.2213134765625 21.26953125,35.20751953125 11.7260732650757,39.0582275390625 1.318359375,42.7734375 0,39.66796875 19.013671875,32.45361328125 36.62109375,23.935546875z M9.375,7.265625L14.6264638900757,10.7684326171875 19.3945293426514,14.3042001724243 23.6791973114014,17.8729248046875 27.48046875,21.474609375 25.01953125,23.759765625 21.1669902801514,20.1690673828125 16.9042949676514,16.63330078125 12.2314443588257,13.1524658203125 7.1484375,9.7265625 9.375,7.265625z M0.263671875,0L46.93359375,0 46.6589317321777,15.1391611099243 45.9521484375,29.736328125 45.4769859313965,36.1669921875 44.9743614196777,41.1328125 44.4442710876465,44.6337890625 43.88671875,46.669921875 42.4584922790527,48.80126953125 40.458984375,49.98046875 37.4267578125,50.5078125 32.900390625,50.68359375 27.48046875,50.68359375 26.220703125,47.34375 33.779296875,47.51953125 35.89599609375,47.4911499023438 37.529296875,47.406005859375 38.67919921875,47.2640991210938 39.345703125,47.0654296875 40.7080078125,45.7470703125 40.968017578125,45.062255859375 41.2353515625,43.8720703125 41.510009765625,42.176513671875 41.7919921875,39.9755859375 42.0785484313965,37.0559692382813 42.3669395446777,33.204345703125 42.6571617126465,28.4207153320313 42.94921875,22.705078125 43.2073936462402,16.8438720703125 43.3959922790527,11.62353515625 43.5150108337402,7.0440673828125 43.564453125,3.10546922683716 0.263671875,3.10546922683716 0.263671875,0z" />
    </g>
  </g>
</svg>