<?xml version="1.0" encoding="utf-8"?>
<!DOCTYPE svg PUBLIC "-//W3C//DTD SVG 1.1//EN" "http://www.w3.org/Graphics/SVG/1.1/DTD/svg11.dtd">
<svg width="52.44140625" height="53.115234375" xmlns="http://www.w3.org/2000/svg" xmlns:xlink="http://www.w3.org/1999/xlink" xmlns:xml="http://www.w3.org/XML/1998/namespace" version="1.1">
  <g>
    <g>
      <path style="fill:#FF0000;fill-opacity:1" d="M9.08203125,3.662109375L12.4566650390625,12.94189453125 16.39892578125,21.09375 20.9088134765625,28.11767578125 25.986328125,34.013671875 31.00341796875,28.271484375 35.537109375,21.298828125 39.58740234375,13.095703125 43.154296875,3.662109375 46.142578125,4.98046875 42.396240234375,14.4927988052368 38.1884765625,22.8735370635986 33.519287109375,30.1226825714111 28.388671875,36.240234375 33.1439208984375,40.250244140625 38.73779296875,43.9599609375 45.1702880859375,47.369384765625 52.44140625,50.478515625 50.654296875,53.115234375 43.83544921875,50.32470703125 37.470703125,46.962890625 31.56005859375,43.02978515625 26.103515625,38.525390625 20.9930419921875,42.6104736328125 15.24169921875,46.34033203125 8.8494873046875,49.7149658203125 1.81640672683716,52.734375 0,49.98046875 7.02941846847534,47.1075439453125 13.32275390625,43.85009765625 18.8800048828125,40.2081298828125 23.701171875,36.181640625 18.489990234375,30.1300067901611 13.8427734375,22.9028339385986 9.759521484375,14.5001230239868 6.240234375,4.921875 9.08203125,3.662109375z M22.3828125,0L27.22412109375,8.232421875 31.083984375,16.69921875 28.330078125,18.134765625 26.1602764129639,13.231201171875 23.9575176239014,8.8330078125 21.7217998504639,4.940185546875 19.453125,1.55273461341858 22.3828125,0z" />
    </g>
  </g>
</svg>