<?xml version="1.0" encoding="utf-8"?>
<!DOCTYPE svg PUBLIC "-//W3C//DTD SVG 1.1//EN" "http://www.w3.org/Graphics/SVG/1.1/DTD/svg11.dtd">
<svg width="52.734375" height="52.734375" xmlns="http://www.w3.org/2000/svg" xmlns:xlink="http://www.w3.org/1999/xlink" xmlns:xml="http://www.w3.org/XML/1998/namespace" version="1.1">
  <g>
    <g>
      <path style="fill:#FF0000;fill-opacity:1" d="M36.474609375,36.97265625L41.3250694274902,40.23193359375 45.6518516540527,43.41796875 49.4549522399902,46.53076171875 52.734375,49.5703125 50.44921875,51.796875 42.66357421875,45.17578125 34.248046875,39.43359375 36.474609375,36.97265625z M16.142578125,36.357421875L18.603515625,38.408203125 15.4998779296875,41.6217041015625 11.72607421875,44.90478515625 7.28210401535034,48.2574462890625 2.16796875,51.6796875 0,49.21875 4.78820753097534,46.1627197265625 9.07470607757568,43.00048828125 12.8594961166382,39.7320556640625 16.142578125,36.357421875z M14.53125,9.90234375L15.6298828125,11.9000244140625 16.962890625,14.43603515625 18.5302734375,17.5103759765625 20.33203125,21.123046875 32.51953125,21.123046875 35.74951171875,15.60791015625 38.583984375,9.90234375 14.53125,9.90234375z M25.3125,0L26.5594482421875,2.3876953125 27.54638671875,4.3359375 28.2733154296875,5.8447265625 28.740234375,6.9140625 48.369140625,6.9140625 48.369140625,9.90234375 38.994140625,9.90234375 41.396484375,11.513671875 39.345703125,15.5712890625 36.181640625,21.123046875 50.33203125,21.123046875 50.33203125,24.052734375 27.94921875,24.052734375 27.94921875,31.201171875 52.3828125,31.201171875 52.3828125,34.27734375 27.94921875,34.27734375 27.94921875,52.734375 24.7265625,52.734375 24.7265625,34.27734375 0.351562023162842,34.27734375 0.351562023162842,31.201171875 24.7265625,31.201171875 24.7265625,24.052734375 2.4609375,24.052734375 2.4609375,21.123046875 16.787109375,21.123046875 14.4873046875,16.3037109375 11.513671875,11.103515625 13.505859375,9.90234375 4.39453125,9.90234375 4.39453125,6.9140625 25.25390625,6.9140625 24.2871074676514,4.59228515625 22.3828125,1.083984375 25.3125,0z" />
    </g>
  </g>
</svg>