<?xml version="1.0" encoding="utf-8"?>
<!DOCTYPE svg PUBLIC "-//W3C//DTD SVG 1.1//EN" "http://www.w3.org/Graphics/SVG/1.1/DTD/svg11.dtd">
<svg width="53.203125" height="52.939453125" xmlns="http://www.w3.org/2000/svg" xmlns:xlink="http://www.w3.org/1999/xlink" xmlns:xml="http://www.w3.org/XML/1998/namespace" version="1.1">
  <g>
    <g>
      <path style="fill:#FF0000;fill-opacity:1" d="M34.74609375,19.98046875L36.80419921875,20.1269550323486 38.408203125,20.33203125 39.04541015625,20.5737323760986 39.2578125,20.888671875 38.876953125,21.97265625 38.61328125,23.3569355010986 38.525390625,26.103515625 38.525390625,29.58984375 42.7001953125,27.6123046875 46.435546875,25.3125 48.486328125,23.466796875 50.888671875,25.693359375 51.357421875,26.572265625 50.625,27.0703125 49.130859375,27.5390625 44.1357421875,30.439453125 38.525390625,32.98828125 38.525390625,40.810546875 38.81103515625,42.26806640625 39.66796875,42.94921875 41.03759765625,43.125 43.505859375,43.18359375 45.3222618103027,43.1231689453125 46.7578086853027,42.94189453125 47.8124961853027,42.6397705078125 48.486328125,42.216796875 49.5190391540527,40.2392578125 49.921875,36.826171875 52.3828125,38.0859375 52.9980430603027,38.466796875 53.203125,38.96484375 53.173828125,39.609375 52.3242149353027,42.8466796875 50.712890625,45.1171875 49.5812950134277,45.7196044921875 47.9736289978027,46.14990234375 45.8898887634277,46.4080810546875 43.330078125,46.494140625 41.0723876953125,46.461181640625 39.27978515625,46.3623046875 37.9522705078125,46.197509765625 37.08984375,45.966796875 35.595703125,44.56787109375 35.09765625,42.0703125 35.09765625,26.044921875 35.009765625,22.5219745635986 34.74609375,19.98046875z M13.154296875,19.98046875L16.9921875,20.33203125 17.666015625,20.888671875 17.28515625,22.08984375 17.156982421875,22.7288837432861 17.0654296875,23.9135761260986 17.010498046875,25.6439228057861 16.9921875,27.919921875 16.9921875,40.458984375 17.109375,47.51953125 16.69921875,47.98828125 13.916015625,47.98828125 13.447265625,47.51953125 13.564453125,40.458984375 13.564453125,39.609375 8.66455078125,41.75537109375 4.45312452316284,43.330078125 3.22265577316284,43.77685546875 2.57812452316284,44.12109375 1.728515625,44.58984375 1.083984375,43.857421875 0,40.576171875 3.427734375,39.90234375 8.86230373382568,38.16650390625 13.564453125,36.357421875 13.564453125,29.4140625 6.416015625,29.4140625 1.845703125,29.53125 1.37695264816284,29.0625 1.37695264816284,26.513671875 1.845703125,26.044921875 6.416015625,26.162109375 13.564453125,26.162109375 13.494873046875,24.0289325714111 13.4033203125,22.2875995635986 13.289794921875,20.9381122589111 13.154296875,19.98046875z M42.65625,0L45.234375,2.28515625 45.76171875,3.193359375 45.5200157165527,3.5888671875 44.794921875,3.720703125 43.916015625,3.83056640625 42.216796875,4.16015625 27.7734375,6.474609375 27.7734375,13.388671875 44.091796875,13.388671875 51.943359375,13.271484375 52.44140625,13.740234375 52.44140625,16.34765625 51.943359375,16.81640625 44.091796875,16.69921875 27.7734375,16.69921875 27.7734375,42.5390625 27.890625,52.44140625 27.421875,52.939453125 24.521484375,52.939453125 24.052734375,52.44140625 24.169921875,42.5390625 24.169921875,16.69921875 8.73046875,16.69921875 0.878906726837158,16.81640625 0.41015625,16.34765625 0.41015625,13.740234375 0.878906726837158,13.271484375 8.73046875,13.388671875 24.169921875,13.388671875 24.169921875,6.9140625 15.3369140625,7.646484375 7.412109375,8.0859375 6.943359375,8.115234375 6.2109375,7.8515625 5.80078125,6.97265625 4.599609375,4.74609422683716 13.60107421875,4.44580078125 23.73046875,3.66210985183716 28.3209228515625,3.09448266029358 32.48291015625,2.4755859375 36.2164306640625,1.805419921875 39.521484375,1.083984375 42.65625,0z" />
    </g>
  </g>
</svg>