<?xml version="1.0" encoding="utf-8"?>
<!DOCTYPE svg PUBLIC "-//W3C//DTD SVG 1.1//EN" "http://www.w3.org/Graphics/SVG/1.1/DTD/svg11.dtd">
<svg width="49.130859375" height="52.763671875" xmlns="http://www.w3.org/2000/svg" xmlns:xlink="http://www.w3.org/1999/xlink" xmlns:xml="http://www.w3.org/XML/1998/namespace" version="1.1">
  <g>
    <g>
      <path style="fill:#FF0000;fill-opacity:1" d="M27.01171875,0L29.6484375,1.69921875 26.0760478973389,5.4107666015625 21.8041973114014,9.36767578125 16.8328838348389,13.5699462890625 11.162109375,18.017578125 20.6542949676514,17.38037109375 29.033203125,16.58203125 39.7265625,7.705078125 42.3046875,9.55078125 33.6419677734375,16.8896503448486 25.49560546875,23.1152362823486 17.8656005859375,28.2275409698486 10.751953125,32.2265625 18.936767578125,31.77978515625 26.2939453125,31.259765625 32.823486328125,30.66650390625 38.525390625,30 42.36328125,25.59814453125 46.201171875,20.185546875 49.130859375,21.73828125 44.9958801269531,27.5230407714844 40.3546142578125,32.7630615234375 35.2070617675781,37.4583435058594 29.55322265625,41.60888671875 23.3930969238281,45.2146911621094 16.7266845703125,48.2757568359375 9.55398464202881,50.7920837402344 1.875,52.763671875 0,49.8046875 10.6347646713257,47.0050048828125 20.0390605926514,43.32275390625 28.2128887176514,38.7579345703125 35.15625,33.310546875 3.720703125,35.654296875 3.134765625,32.958984375 8.3624267578125,30.4193115234375 13.67431640625,27.39990234375 19.0704345703125,23.9007568359375 24.55078125,19.921875 18.3123779296875,20.4821796417236 13.13232421875,20.9326190948486 9.0106201171875,21.2731952667236 5.947265625,21.50390625 5.33203125,18.544921875 10.323486328125,15.0677490234375 15.6005859375,10.81787109375 21.163330078125,5.7952880859375 27.01171875,0z" />
    </g>
  </g>
</svg>