<?xml version="1.0" encoding="utf-8"?>
<!DOCTYPE svg PUBLIC "-//W3C//DTD SVG 1.1//EN" "http://www.w3.org/Graphics/SVG/1.1/DTD/svg11.dtd">
<svg width="52.32421875" height="51.533203125" xmlns="http://www.w3.org/2000/svg" xmlns:xlink="http://www.w3.org/1999/xlink" xmlns:xml="http://www.w3.org/XML/1998/namespace" version="1.1">
  <g>
    <g>
      <path style="fill:#FF0000;fill-opacity:1" d="M33.251953125,36.826171875L43.05908203125,42.5244140625 52.20703125,49.072265625 50.2734375,51.533203125 41.05224609375,44.94140625 31.494140625,39.287109375 33.251953125,36.826171875z M6.240234375,16.669921875L11.37451171875,18.4497089385986 15.87890625,20.1855487823486 19.75341796875,21.8774433135986 22.998046875,23.525390625 21.533203125,26.220703125 13.90869140625,22.6318378448486 4.921875,19.482421875 6.240234375,16.669921875z M8.759765625,7.060546875L13.3538818359375,8.5162353515625 17.49755859375,10.04150390625 21.1907958984375,11.6363525390625 24.43359375,13.30078125 22.998046875,15.966796875 15.24169921875,12.41455078125 7.44140625,9.84375 8.759765625,7.060546875z M27.890625,5.625L31.025390625,5.625 31.0491943359375,14.01123046875 30.76904296875,20.947265625 30.1849365234375,26.43310546875 29.296875,30.46875 52.32421875,30.46875 52.32421875,33.720703125 28.212890625,33.720703125 26.5635681152344,37.0010375976563 24.4427471160889,39.971923828125 21.8504314422607,42.6333618164063 18.7866191864014,44.9853515625 15.2513113021851,47.0278930664063 11.2445058822632,48.760986328125 6.76620435714722,50.1846313476563 1.81640625,51.298828125 0,48.28125 4.541015625,47.4192810058594 8.671875,46.2835693359375 12.392578125,44.8741149902344 15.703125,43.19091796875 18.603515625,41.2339782714844 21.09375,39.0032958984375 23.173828125,36.4988708496094 24.84375,33.720703125 0.05859375,33.720703125 0.05859375,30.46875 25.986328125,30.46875 26.8579082489014,26.7773456573486 27.4804668426514,22.4121112823486 27.8540019989014,17.3730487823486 27.978515625,11.66015625 27.9565410614014,9.0673828125 27.890625,5.625z M1.49414110183716,0L51.357421875,0 50.4492149353027,7.03857421875 48.662109375,14.619140625 45.615234375,13.974609375 46.9555625915527,8.59130859375 47.87109375,3.046875 1.49414110183716,3.046875 1.49414110183716,0z" />
    </g>
  </g>
</svg>