<?xml version="1.0" encoding="utf-8"?>
<!DOCTYPE svg PUBLIC "-//W3C//DTD SVG 1.1//EN" "http://www.w3.org/Graphics/SVG/1.1/DTD/svg11.dtd">
<svg width="52.3828125" height="54.31640625" xmlns="http://www.w3.org/2000/svg" xmlns:xlink="http://www.w3.org/1999/xlink" xmlns:xml="http://www.w3.org/XML/1998/namespace" version="1.1">
  <g>
    <g>
      <path style="fill:#FF0000;fill-opacity:1" d="M15.556640625,18.6328125L16.025390625,18.984375 18.21533203125,22.1411151885986 20.09765625,25.751953125 20.185546875,26.103515625 19.8046875,26.484375 17.40234375,27.48046875 17.080078125,27.59765625 16.728515625,27.1875 14.84619140625,23.4155292510986 12.7734375,20.244140625 12.626953125,19.892578125 12.94921875,19.62890625 15.17578125,18.720703125 15.556640625,18.6328125z M35.2734375,18.486328125L36.70166015625,18.9331073760986 38.759765625,19.6875 39.287109375,20.361328125 38.701171875,21.123046875 38.13720703125,21.7089862823486 37.5,22.763671875 33.896484375,28.623046875 40.01953125,28.623046875 48.486328125,28.505859375 49.013671875,29.033203125 49.013671875,31.40625 48.486328125,31.93359375 40.01953125,31.81640625 27.59765625,31.81640625 27.59765625,39.228515625 42.890625,39.228515625 51.005859375,39.111328125 51.533203125,39.638671875 51.533203125,42.0703125 51.005859375,42.59765625 42.890625,42.48046875 27.59765625,42.48046875 27.59765625,47.2265625 27.71484375,53.759765625 27.1875,54.31640625 24.228515625,54.31640625 23.701171875,53.759765625 23.818359375,47.2265625 23.818359375,42.48046875 9.66796875,42.48046875 1.55273509025574,42.59765625 1.02539086341858,42.0703125 1.02539086341858,39.638671875 1.55273509025574,39.111328125 9.66796875,39.228515625 23.818359375,39.228515625 23.818359375,31.81640625 12.65625,31.81640625 4.189453125,31.93359375 3.66210961341858,31.40625 3.66210961341858,29.033203125 4.189453125,28.505859375 12.65625,28.623046875 29.94140625,28.623046875 32.29248046875,24.9682636260986 34.130859375,21.50390625 35.2734375,18.486328125z M18.310546875,0L22.20703125,0.351562857627869 22.880859375,0.820312261581421 22.55859375,1.84570288658142 22.4047832489014,2.589111328125 22.2949199676514,3.7353515625 22.2290019989014,5.284423828125 22.20703125,7.236328125 22.20703125,14.150390625 29.6484375,14.150390625 29.6484375,7.5 29.622802734375,5.0537109375 29.5458984375,2.98828125 29.417724609375,1.3037109375 29.23828125,0 33.10546875,0.351562857627869 33.779296875,0.820312261581421 33.544921875,1.84570288658142 33.39111328125,2.589111328125 33.28125,3.7353515625 33.21533203125,5.284423828125 33.193359375,7.236328125 33.193359375,14.150390625 40.458984375,14.150390625 40.458984375,10.37109375 40.34912109375,6.26953125 40.01953125,3.10546922683716 43.857421875,3.39843797683716 44.53125,3.955078125 44.23828125,4.98046875 43.95263671875,6.796875 43.857421875,10.078125 43.857421875,14.150390625 44.00390625,14.150390625 51.85546875,14.033203125 52.3828125,14.560546875 52.3828125,16.93359375 51.85546875,17.4609375 43.9453125,17.34375 8.466796875,17.34375 0.527343988418579,17.4609375 0,16.93359375 0,14.560546875 0.527343988418579,14.033203125 8.408203125,14.150390625 8.408203125,10.37109375 8.29833889007568,6.0498046875 7.96875,3.10546922683716 9.64599514007568,3.2080078125 11.748046875,3.39843797683716 12.421875,3.955078125 12.12890625,4.98046875 11.9879140853882,5.628662109375 11.8872060775757,6.6943359375 11.8267812728882,8.177490234375 11.806640625,10.078125 11.806640625,14.150390625 18.720703125,14.150390625 18.720703125,7.5 18.695068359375,5.0537109375 18.6181640625,2.98828125 18.489990234375,1.3037109375 18.310546875,0z" />
    </g>
  </g>
</svg>