<?xml version="1.0" encoding="utf-8"?>
<!DOCTYPE svg PUBLIC "-//W3C//DTD SVG 1.1//EN" "http://www.w3.org/Graphics/SVG/1.1/DTD/svg11.dtd">
<svg width="52.265625" height="52.705078125" xmlns="http://www.w3.org/2000/svg" xmlns:xlink="http://www.w3.org/1999/xlink" xmlns:xml="http://www.w3.org/XML/1998/namespace" version="1.1">
  <g>
    <g>
      <path style="fill:#FF0000;fill-opacity:1" d="M47.578125,0L49.3359375,2.72460985183716 44.9853515625,3.85803246498108 39.931640625,4.91455078125 34.1748046875,5.8941650390625 27.71484375,6.796875 27.71484375,16.142578125 46.93359375,16.142578125 46.93359375,19.04296875 27.71484375,19.04296875 27.71484375,28.330078125 52.265625,28.330078125 52.265625,31.201171875 26.513671875,31.201171875 21.3189697265625,37.1356201171875 16.42822265625,42.10693359375 11.8414306640625,46.1151123046875 7.55859375,49.16015625 25.8544921875,47.93701171875 42.7734375,45.380859375 38.3056640625,41.0302734375 32.578125,36.123046875 34.86328125,34.21875 39.9279747009277,38.3880615234375 44.4287071228027,42.54638671875 48.3654747009277,46.6937255859375 51.73828125,50.830078125 49.21875,52.705078125 45.17578125,47.783203125 33.3929443359375,49.6307373046875 22.47802734375,51.01318359375 12.4310293197632,51.9305419921875 3.251953125,52.3828125 2.10937452316284,49.51171875 7.33886671066284,45.9722900390625 12.421875,41.74072265625 17.3583984375,36.8170166015625 22.1484375,31.201171875 0,31.201171875 0,28.330078125 24.55078125,28.330078125 24.55078125,19.04296875 5.478515625,19.04296875 5.478515625,16.142578125 24.55078125,16.142578125 24.55078125,7.265625 13.80615234375,8.03466796875 3.89648389816284,8.349609375 2.6953125,5.302734375 15.1025381088257,4.8944091796875 26.71875,3.87451171875 37.5439453125,2.2430419921875 47.578125,0z" />
    </g>
  </g>
</svg>