<?xml version="1.0" encoding="utf-8"?>
<!DOCTYPE svg PUBLIC "-//W3C//DTD SVG 1.1//EN" "http://www.w3.org/Graphics/SVG/1.1/DTD/svg11.dtd">
<svg width="46.083984375" height="53.994140625" xmlns="http://www.w3.org/2000/svg" xmlns:xlink="http://www.w3.org/1999/xlink" xmlns:xml="http://www.w3.org/XML/1998/namespace" version="1.1">
  <g>
    <g>
      <path style="fill:#FF0000;fill-opacity:1" d="M24.31640625,30.99609375L24.31640625,39.052734375 42.36328125,39.052734375 42.36328125,30.99609375 24.31640625,30.99609375z M3.72070360183716,30.99609375L3.72070360183716,39.052734375 20.654296875,39.052734375 20.654296875,30.99609375 3.72070360183716,30.99609375z M24.31640625,10.72265625L24.31640625,18.486328125 39.7265625,18.486328125 39.7265625,10.72265625 24.31640625,10.72265625z M6.41601610183716,10.72265625L6.41601610183716,18.486328125 20.654296875,18.486328125 20.654296875,10.72265625 6.41601610183716,10.72265625z M20.244140625,0L24.2578125,0.292968392372131 24.90234375,0.849609136581421 24.66796875,1.90429711341858 24.5141582489014,2.6202392578125 24.4042949676514,3.77197265625 24.3383769989014,5.3594970703125 24.31640625,7.3828125 24.31640625,7.67578125 34.39453125,7.67578125 42.919921875,7.55859375 43.388671875,8.02734375 43.271484375,12.421875 43.271484375,16.787109375 43.388671875,21.123046875 42.919921875,21.650390625 34.39453125,21.533203125 24.31640625,21.533203125 24.31640625,27.890625 37.1484375,27.890625 45.615234375,27.7734375 46.083984375,28.2421875 45.966796875,32.373046875 45.966796875,36.181640625 46.083984375,44.47265625 45.615234375,44.94140625 42.83203125,44.94140625 42.36328125,44.47265625 42.36328125,42.24609375 24.31640625,42.24609375 24.31640625,42.71484375 24.43359375,53.525390625 23.90625,53.994140625 21.005859375,53.994140625 20.537109375,53.525390625 20.654296875,42.7734375 20.654296875,42.24609375 3.72070360183716,42.24609375 3.72070360183716,44.70703125 3.31054735183716,45.17578125 0.468750476837158,45.17578125 0,44.70703125 0.117187976837158,36.357421875 0.117187976837158,33.10546875 0,28.2421875 0.468750476837158,27.7734375 8.935546875,27.890625 20.654296875,27.890625 20.654296875,21.533203125 11.8359375,21.533203125 3.22265672683716,21.650390625 2.75390672683716,21.123046875 2.87109422683716,16.787109375 2.87109422683716,12.421875 2.75390672683716,8.02734375 3.22265672683716,7.55859375 11.8359375,7.67578125 20.654296875,7.67578125 20.654296875,7.5 20.6286602020264,5.0537109375 20.5517559051514,2.98828125 20.4235820770264,1.3037109375 20.244140625,0z" />
    </g>
  </g>
</svg>