<?xml version="1.0" encoding="utf-8"?>
<!DOCTYPE svg PUBLIC "-//W3C//DTD SVG 1.1//EN" "http://www.w3.org/Graphics/SVG/1.1/DTD/svg11.dtd">
<svg width="53.02734375" height="52.67578125" xmlns="http://www.w3.org/2000/svg" xmlns:xlink="http://www.w3.org/1999/xlink" xmlns:xml="http://www.w3.org/XML/1998/namespace" version="1.1">
  <g>
    <g>
      <path style="fill:#FF0000;fill-opacity:1" d="M14.208984375,48.544921875L52.8515625,48.544921875 52.8515625,51.474609375 14.208984375,51.474609375 14.208984375,48.544921875z M22.119140625,30.46875L22.119140625,39.7265625 45.29296875,39.7265625 45.29296875,30.46875 22.119140625,30.46875z M22.119140625,18.662109375L22.119140625,27.48046875 45.29296875,27.48046875 45.29296875,18.662109375 22.119140625,18.662109375z M18.896484375,15.732421875L48.3984375,15.732421875 48.3984375,42.65625 18.896484375,42.65625 18.896484375,15.732421875z M13.4765625,12.3046875L16.142578125,13.916015625 14.00390625,18.18603515625 11.337890625,22.734375 11.337890625,52.67578125 8.26171875,52.67578125 8.26171875,27.5390625 4.82666015625,31.875 1.72851610183716,35.21484375 0,32.63671875 3.665771484375,28.3447284698486 7.1337890625,23.5253925323486 10.404052734375,18.1787128448486 13.4765625,12.3046875z M25.48828125,0L27.2973613739014,2.92968773841858 29.208984375,6.85546875 53.02734375,6.85546875 53.02734375,9.78515625 0.76171875,9.78515625 0.76171875,6.85546875 25.72265625,6.85546875 24.3749980926514,4.16748046875 22.55859375,1.20117211341858 25.48828125,0z" />
    </g>
  </g>
</svg>