<?xml version="1.0" encoding="utf-8"?>
<!DOCTYPE svg PUBLIC "-//W3C//DTD SVG 1.1//EN" "http://www.w3.org/Graphics/SVG/1.1/DTD/svg11.dtd">
<svg width="22.55859375" height="16.2890625" xmlns="http://www.w3.org/2000/svg" xmlns:xlink="http://www.w3.org/1999/xlink" xmlns:xml="http://www.w3.org/XML/1998/namespace" version="1.1">
  <g>
    <g>
      <path style="fill:#FF0000;fill-opacity:1" d="M14.443359375,0L15.673828125,0.498046875 18.6859130859375,2.41516208648682 20.83740234375,4.27002096176147 22.1282958984375,6.06262302398682 22.55859375,7.79296875 21.85546875,10.166015625 20.09765625,12.4072265625 17.8271484375,14.3701171875 15.5859375,15.849609375 14.208984375,16.2890625 13.5791015625,15.9375 13.359375,15.087890625 13.65234375,14.150390625 15.234375,12.2314453125 16.34765625,10.6201171875 17.0068359375,9.1845703125 17.2265625,7.822265625 17.0361328125,6.71631002426147 16.46484375,5.33203125 14.208984375,1.962890625 13.59375,0.87890625 13.8061504364014,0.219727993011475 14.443359375,0z M1.083984375,0L2.314453125,0.498046875 5.32653713226318,2.41516208648682 7.47802591323853,4.27002096176147 8.76891994476318,6.06262302398682 9.19921875,7.79296875 8.49609375,10.166015625 6.73828125,12.4072265625 4.4677734375,14.3701171875 2.2265625,15.849609375 0.849609375,16.2890625 0.2197265625,15.9375 0,15.087890625 0.29296875,14.150390625 1.875,12.2314453125 2.98828125,10.6201171875 3.6474609375,9.1845703125 3.8671875,7.822265625 3.6767578125,6.71631002426147 3.10546875,5.33203125 0.849609375,1.962890625 0.234375,0.87890625 0.44677734375,0.219727993011475 1.083984375,0z" />
    </g>
  </g>
</svg>