<?xml version="1.0" encoding="utf-8"?>
<!DOCTYPE svg PUBLIC "-//W3C//DTD SVG 1.1//EN" "http://www.w3.org/Graphics/SVG/1.1/DTD/svg11.dtd">
<svg width="11.279296875" height="20.185546875" xmlns="http://www.w3.org/2000/svg" xmlns:xlink="http://www.w3.org/1999/xlink" xmlns:xml="http://www.w3.org/XML/1998/namespace" version="1.1">
  <g>
    <g>
      <path style="fill:#FF0000;fill-opacity:1" d="M0,0L11.279296875,0 11.279296875,5.33203125 2.109375,5.33203125 2.7392578125,7.5732421875 4.21875,10.048828125 5.302734375,11.6748046875 6.298828125,13.359375 7.03125,15.0732421875 7.32421875,16.7578125 7.0166015625,18.57421875 6.1962890625,19.6142578125 5.0244140625,20.0830078125 3.662109375,20.185546875 1.90429699420929,19.8046875 0.498047113418579,18.837890625 1.01074206829071,17.98828125 2.138671875,17.2412109375 3.2666015625,16.3037109375 3.779296875,14.82421875 3.662109375,13.9892578125 3.3251953125,13.1396484375 2.7685546875,12.12890625 1.99218761920929,10.78125 1.21582043170929,9.2724609375 0.644531488418579,7.7783203125 0.2490234375,6.416015625 0,5.33203125 0,0z" />
    </g>
  </g>
</svg>