<?xml version="1.0" encoding="utf-8"?>
<!DOCTYPE svg PUBLIC "-//W3C//DTD SVG 1.1//EN" "http://www.w3.org/Graphics/SVG/1.1/DTD/svg11.dtd">
<svg width="14.208984375" height="35.5078125" xmlns="http://www.w3.org/2000/svg" xmlns:xlink="http://www.w3.org/1999/xlink" xmlns:xml="http://www.w3.org/XML/1998/namespace" version="1.1">
  <g>
    <g>
      <path style="fill:#FF0000;fill-opacity:1" d="M11.30859375,0L12.421875,0.732421875 13.3447265625,2.7392578125 13.974609375,5.7421875 14.208984375,9.43359375 13.7255859375,17.783203125 12.216796875,25.634765625 11.103515625,29.1943359375 9.5361328125,32.373046875 7.5,34.6435546875 6.29882764816284,35.291748046875 4.98046875,35.5078125 3.914794921875,35.277099609375 2.9443359375,34.5849609375 1.36230456829071,32.080078125 0.35156238079071,28.41796875 0,24.052734375 0.37353527545929,19.4018573760986 1.49414074420929,15.234375 3.4130859375,11.4404296875 6.240234375,7.880859375 6.650390625,7.5439453125 7.060546875,7.44140625 7.470703125,7.646484375 7.6171875,8.115234375 7.1484375,8.96484375 5.9912109375,10.4736328125 4.4970703125,12.6708984375 3.017578125,15.5859375 1.83105480670929,19.7607421875 1.40625011920929,24.404296875 1.64062535762787,27.8759765625 2.34375,30.9228515625 3.515625,33.076171875 4.27734375,33.69140625 5.15625,33.896484375 6.6650390625,33.28125 8.14453125,31.5087890625 9.4775390625,28.7109375 10.60546875,24.990234375 11.4624013900757,19.4677734375 11.748046875,12.744140625 11.3525390625,7.236328125 10.048828125,3.076171875 9.55078125,1.435546875 9.7265625,0.87890625 10.166015625,0.41015625 10.7373046875,0.1025390625 11.30859375,0z" />
    </g>
  </g>
</svg>