<?xml version="1.0" encoding="utf-8"?>
<!DOCTYPE svg PUBLIC "-//W3C//DTD SVG 1.1//EN" "http://www.w3.org/Graphics/SVG/1.1/DTD/svg11.dtd">
<svg width="21.73828125" height="31.58203125" xmlns="http://www.w3.org/2000/svg" xmlns:xlink="http://www.w3.org/1999/xlink" xmlns:xml="http://www.w3.org/XML/1998/namespace" version="1.1">
  <g>
    <g>
      <path style="fill:#FF0000;fill-opacity:1" d="M1.171875,0.029296875L1.6845703125,0.322265625 1.787109375,1.025390625 1.8310546875,6.5478515625 2.0947265625,12.4951171875 2.7392578125,18.251953125 3.9111328125,23.1591796875 4.757080078125,25.074462890625 5.80078125,26.572265625 7.06054592132568,27.5390625 8.5546875,27.861328125 10.9130859375,27.12890625 12.2900390625,25.224609375 12.919921875,22.587890625 13.06640625,19.6875 13.0078125,17.373046875 12.94921875,15.498046875 13.125,14.3408203125 13.564453125,14.00390625 14.091796875,14.208984375 14.47265625,15.146484375 15.05859375,18.7353515625 15.263671875,22.734375 14.8974609375,26.2353515625 13.7255859375,29.0478515625 11.6015625,30.908203125 8.37890625,31.58203125 6.734619140625,31.3916015625 5.3173828125,30.8203125 3.076171875,28.7109375 1.552734375,25.546875 0.615234375,21.62109375 0.1318359375,17.2119140625 0,12.626953125 0.1611328125,6.328125 0.439453125,1.025390625 0.65185546875,0.2783203125 1.171875,0.029296875z M13.359375,0L15.003662109375,0.1904296875 16.4208984375,0.76171875 18.662109375,2.87109375 20.185546875,6.03515625 21.123046875,9.9609375 21.6064453125,14.3701171875 21.73828125,18.955078125 21.5771484375,25.25390625 21.298828125,30.556640625 21.0864238739014,31.3037109375 20.56640625,31.552734375 20.0537109375,31.259765625 19.951171875,30.556640625 19.921875,27.0703125 19.8046875,22.9248046875 19.5263671875,18.486328125 18.9990234375,14.091796875 18.1787109375,10.0634765625 16.9921875,6.767578125 15.3515625,4.541015625 14.3408203125,3.92578125 13.18359375,3.720703125 11.861572265625,3.9111328125 10.8251953125,4.482421875 9.4482421875,6.4306640625 8.818359375,9.0966796875 8.671875,12.01171875 8.73046875,14.267578125 8.7890625,16.083984375 8.61328125,17.2412109375 8.173828125,17.578125 7.646484375,17.373046875 7.265625,16.435546875 6.6796875,12.9052734375 6.474609375,8.96484375 6.8408203125,5.44921875 8.0126953125,2.607421875 10.13671875,0.703125 13.359375,0z" />
    </g>
  </g>
</svg>