<?xml version="1.0" encoding="utf-8"?>
<!DOCTYPE svg PUBLIC "-//W3C//DTD SVG 1.1//EN" "http://www.w3.org/Graphics/SVG/1.1/DTD/svg11.dtd">
<svg width="25.1953125" height="16.259765625" xmlns="http://www.w3.org/2000/svg" xmlns:xlink="http://www.w3.org/1999/xlink" xmlns:xml="http://www.w3.org/XML/1998/namespace" version="1.1">
  <g>
    <g>
      <path style="fill:#FF0000;fill-opacity:1" d="M9.521484375,5.33203125L11.044921875,6.9580078125 12.6123046875,8.701171875 13.974609375,10.224609375 14.8828125,11.162109375 15.76171875,11.9091796875 16.46484375,12.099609375 17.0654296875,11.6455078125 17.548828125,10.576171875 18.4423828125,8.26171875 19.541015625,5.33203125 9.521484375,5.33203125z M1.58203101158142,5.33203125L1.58203101158142,7.880859375 1.728515625,9.5361328125 2.25585913658142,10.8984375 3.251953125,11.8212890625 4.833984375,12.158203125 6.4013671875,11.8505859375 7.3388671875,10.986328125 7.8076171875,9.638671875 7.939453125,7.880859375 7.939453125,5.33203125 1.58203101158142,5.33203125z M0,0L25.1953125,0 25.1953125,5.33203125 21.796875,5.33203125 21.2255859375,6.5771484375 20.625,7.9833984375 20.0537109375,9.4482421875 19.541015625,10.869140625 19.16015625,11.8359375 18.7353515625,13.0517578125 18.3251953125,14.23828125 18.017578125,15.146484375 17.666015625,15.908203125 17.109375,16.259765625 16.2744140625,15.9521484375 15.29296875,15.05859375 12.802734375,12.216796875 9.521484375,8.14453125 9.22119140625,11.759033203125 8.3203125,14.2822265625 6.84814453125,15.765380859375 4.833984375,16.259765625 2.431640625,15.556640625 0.9521484375,13.681640625 0.205078125,11.0009765625 0,7.880859375 0,0z" />
    </g>
  </g>
</svg>