<?xml version="1.0" encoding="utf-8"?>
<!DOCTYPE svg PUBLIC "-//W3C//DTD SVG 1.1//EN" "http://www.w3.org/Graphics/SVG/1.1/DTD/svg11.dtd">
<svg width="17.87109375" height="24.755859375" xmlns="http://www.w3.org/2000/svg" xmlns:xlink="http://www.w3.org/1999/xlink" xmlns:xml="http://www.w3.org/XML/1998/namespace" version="1.1">
  <g>
    <g>
      <path style="fill:#FF0000;fill-opacity:1" d="M0,0L17.87109375,0 17.87109375,5.33203125 14.296875,5.33203125 14.296875,15.76171875 13.8720693588257,18.7646484375 12.890625,20.91796875 11.2133779525757,22.28759765625 8.701171875,22.939453125 6.0791015625,23.5400390625 4.62890625,24.755859375 3.9990234375,24.052734375 3.75,22.998046875 3.995361328125,21.8115234375 4.7314453125,20.771484375 6.04614210128784,19.92919921875 8.02734375,19.3359375 10.166015625,18.75 11.3525390625,17.98828125 11.8505859375,16.9921875 11.953125,15.673828125 5.888671875,15.673828125 3.5009765625,16.40625 2.25585961341858,18.369140625 1.65527367591858,18.1201171875 1.1865234375,17.5927734375 0.87890625,16.9189453125 0.76171875,16.201171875 1.0693359375,13.9306640625 2.02148413658142,12.0703125 3.6328125,10.810546875 5.888671875,10.341796875 11.953125,10.341796875 11.953125,5.33203125 0,5.33203125 0,0z" />
    </g>
  </g>
</svg>