<?xml version="1.0" encoding="utf-8"?>
<!DOCTYPE svg PUBLIC "-//W3C//DTD SVG 1.1//EN" "http://www.w3.org/Graphics/SVG/1.1/DTD/svg11.dtd">
<svg width="20.80078125" height="34.833984375" xmlns="http://www.w3.org/2000/svg" xmlns:xlink="http://www.w3.org/1999/xlink" xmlns:xml="http://www.w3.org/XML/1998/namespace" version="1.1">
  <g>
    <g>
      <path style="fill:#FF0000;fill-opacity:1" d="M1.99218785762787,17.373046875L2.2412109375,20.2587890625 3.0029296875,22.119140625 4.2919921875,23.115234375 6.123046875,23.408203125 7.540283203125,23.0419921875 8.5693359375,21.943359375 9.195556640625,20.068359375 9.404296875,17.373046875 1.99218785762787,17.373046875z M8.90625,0L10.697021484375,0.205078125 12.2607421875,0.8203125 14.7216796875,3.1787109375 16.3037109375,6.9580078125 17.021484375,12.041015625 20.80078125,12.041015625 20.80078125,17.373046875 17.138671875,17.373046875 16.142578125,21.767578125 14.6044921875,25.8251953125 12.568359375,29.0185546875 11.3818349838257,30.135498046875 10.107421875,30.8203125 11.5869140625,31.318359375 13.330078125,31.9921875 14.794921875,32.841796875 15.41015625,33.837890625 14.912109375,34.833984375 13.0224609375,34.130859375 11.162109375,33.5009765625 9.462890625,33.046875 8.056640625,32.87109375 6.826171875,32.8857421875 5.771484375,32.900390625 4.39453125,32.548828125 4.013671875,31.494140625 4.04296875,31.0693359375 4.072265625,30.8203125 4.658203125,30.8203125 6.778564453125,30.538330078125 8.7451171875,29.6923828125 10.5029296875,28.32275390625 11.9970703125,26.4697265625 13.2128896713257,24.1552734375 14.1357421875,21.4013671875 14.718017578125,18.240966796875 14.912109375,14.70703125 14.794921875,12.2131366729736 14.443359375,10.1220703125 13.0810546875,7.0166015625 10.927734375,5.244140625 8.0859375,4.6875 5.51147413253784,5.130615234375 3.6474609375,6.5185546875 2.479248046875,8.82934761047363 1.99218785762787,12.041015625 11.396484375,12.041015625 11.396484375,18.6328125 11.0705556869507,22.525634765625 10.0927734375,25.2978515625 8.426513671875,26.956787109375 6.03515577316284,27.509765625 3.55957007408142,26.876220703125 1.728515625,24.9755859375 0.5419921875,21.807861328125 0,17.373046875 0,12.041015625 0.87890613079071,6.8115234375 2.56347703933716,3.046875 3.75732421875,1.7138671875 5.2001953125,0.76171875 6.910400390625,0.1904296875 8.90625,0z" />
    </g>
  </g>
</svg>