<?xml version="1.0" encoding="utf-8"?>
<!DOCTYPE svg PUBLIC "-//W3C//DTD SVG 1.1//EN" "http://www.w3.org/Graphics/SVG/1.1/DTD/svg11.dtd">
<svg width="19.3359375" height="31.669921875" xmlns="http://www.w3.org/2000/svg" xmlns:xlink="http://www.w3.org/1999/xlink" xmlns:xml="http://www.w3.org/XML/1998/namespace" version="1.1">
  <g>
    <g>
      <path style="fill:#FF0000;fill-opacity:1" d="M9.90234375,0L12.0556640625,0.5126953125 13.3740234375,2.0654296875 14.0478515625,4.658203125 14.23828125,8.291015625 14.23828125,10.869140625 19.3359375,10.869140625 19.3359375,16.201171875 15.322265625,16.201171875 13.623046875,23.90625 12.568359375,24.19921875 11.8359375,21.1669921875 11.630859375,18.28125 11.689453125,16.728515625 11.8212890625,15.498046875 11.953125,14.12109375 12.01171875,12.158203125 12.01171875,8.61328125 11.8725576400757,6.06811618804932 11.455078125,4.1748046875 10.7299795150757,2.999267578125 9.66796875,2.607421875 7.4560546875,3.251953125 4.9658203125,5.2880859375 3.8671875,6.88842916488647 2.9443359375,8.90625 2.31811475753784,11.3671894073486 2.10937452316284,14.296875 2.31079053878784,17.34375 2.9150390625,20.15625 4.8779296875,24.814453125 6.07910108566284,26.56494140625 7.3681640625,27.890625 8.631591796875,28.7255859375 9.755859375,29.00390625 10.283203125,28.41796875 10.1953125,27.8466796875 10.13671875,27.216796875 10.2978515625,26.455078125 10.95703125,26.103515625 11.689453125,26.2939453125 12.5390625,26.8505859375 13.2421875,27.7587890625 13.53515625,29.033203125 13.30078125,30.29296875 12.685546875,31.0986328125 11.8359375,31.5380859375 10.8984375,31.669921875 8.712158203125,31.32568359375 6.6650390625,30.29296875 4.81201171875,28.65966796875 3.2080078125,26.513671875 1.88232409954071,23.895263671875 0.864257454872131,20.8447265625 0.216064319014549,17.457275390625 0,13.828125 0.241699084639549,10.7226581573486 0.966796517372131,7.96875 2.06176710128784,5.59204196929932 3.4130859375,3.6181640625 4.95483350753784,2.05810546875 6.62109375,0.9228515625 8.3056640625,0.230712890625 9.90234375,0z" />
    </g>
  </g>
</svg>