<?xml version="1.0" encoding="utf-8"?>
<!DOCTYPE svg PUBLIC "-//W3C//DTD SVG 1.1//EN" "http://www.w3.org/Graphics/SVG/1.1/DTD/svg11.dtd">
<svg width="17.5195312500004" height="31.962890625" xmlns="http://www.w3.org/2000/svg" xmlns:xlink="http://www.w3.org/1999/xlink" xmlns:xml="http://www.w3.org/XML/1998/namespace" version="1.1">
  <g>
    <g>
      <path style="fill:#FF0000;fill-opacity:1" d="M9.462890625,0L13.4912109375,0.5419921875 16.69921875,2.021484375 17.2998046875,2.607421875 17.51953125,3.22265625 17.16796875,3.9111328125 16.5234375,4.16015625 15.556640625,3.92578125 14.1064453125,3.3984375 12.12890625,2.87109375 9.580078125,2.63671875 7.4560546875,2.9736328125 5.6103515625,3.984375 4.306640625,5.6689453125 3.80859351158142,7.998046875 4.3505859375,10.6494140625 5.8740234375,12.83203125 8.2177734375,14.3115234375 11.220703125,14.853515625 13.125,14.912109375 14.0185546875,15.05859375 14.5166015625,15.3955078125 14.7216796875,15.8349609375 14.765625,16.2890625 14.4140625,17.2705078125 13.125,17.63671875 11.220703125,17.63671875 8.3935546875,18.046875 5.9033203125,19.248046875 4.130859375,21.2109375 3.45703101158142,23.935546875 3.86718726158142,26.103515625 4.9951171875,27.8173828125 6.6943359375,28.9306640625 8.7890625,29.326171875 11.572265625,28.88671875 13.681640625,27.919921875 15.263671875,26.953125 16.46484375,26.513671875 17.2705078125,26.8505859375 17.51953125,27.626953125 17.27783203125,28.35205078125 16.552734375,29.1796875 15.1171875,30.205078125 13.2568359375,31.0986328125 11.1181640625,31.728515625 8.90625,31.962890625 5.4052734375,31.494140625 2.57812476158142,30.0439453125 0.68847644329071,27.5390625 0,23.935546875 0.3076171875,21.4013671875 1.05468702316284,19.5556640625 2.03613257408142,18.251953125 3.01757788658142,17.3583984375 3.76464819908142,16.7431640625 4.072265625,16.2890625 3.76464819908142,15.703125 3.01757788658142,14.94140625 2.03613257408142,13.9013671875 1.05468702316284,12.4658203125 0.3076171875,10.5322265625 0,7.998046875 0.190429463982582,6.038818359375 0.761718392372131,4.3798828125 2.81249952316284,1.904296875 5.830078125,0.46875 9.462890625,0z" />
    </g>
  </g>
</svg>