<?xml version="1.0" encoding="utf-8"?>
<!DOCTYPE svg PUBLIC "-//W3C//DTD SVG 1.1//EN" "http://www.w3.org/Graphics/SVG/1.1/DTD/svg11.dtd">
<svg width="16.6992187500002" height="22.79296875" xmlns="http://www.w3.org/2000/svg" xmlns:xlink="http://www.w3.org/1999/xlink" xmlns:xml="http://www.w3.org/XML/1998/namespace" version="1.1">
  <g>
    <g>
      <path style="fill:#FF0000;fill-opacity:1" d="M0,0L16.69921875,0 16.69921875,5.33203125 6.796875,5.33203125 11.923828125,11.162109375 12.626953125,12.01171875 12.94921875,12.978515625 12.7734375,14.1357421875 12.3046875,15.615234375 10.60546875,20.830078125 9.990234375,22.2216796875 9.228515625,22.79296875 8.466796875,22.55859375 7.79296875,21.97265625 7.1923828125,21.181640625 6.650390625,20.33203125 4.27734375,16.494140625 3.7646484375,15.8203125 3.10546875,15.1318359375 2.373046875,14.5166015625 1.69921863079071,14.0625 1.11328136920929,13.7548828125 0.571288824081421,13.4033203125 0.1611328125,12.9931640625 0,12.48046875 0.29296875,11.6162109375 1.17187488079071,11.3671875 2.40234327316284,11.6015625 3.4716796875,12.1728515625 4.306640625,12.9052734375 4.86328125,13.623046875 7.060546875,16.93359375 7.763671875,18.017578125 8.466796875,18.544921875 8.84765625,18.10546875 9.19921875,17.255859375 10.078125,14.82421875 10.341796875,13.916015625 10.400390625,13.2421875 10.078125,12.5244140625 9.580078125,11.8359375 4.072265625,5.33203125 0,5.33203125 0,0z" />
    </g>
  </g>
</svg>