<?xml version="1.0" encoding="utf-8"?>
<!DOCTYPE svg PUBLIC "-//W3C//DTD SVG 1.1//EN" "http://www.w3.org/Graphics/SVG/1.1/DTD/svg11.dtd">
<svg width="23.4375" height="30.3515625" xmlns="http://www.w3.org/2000/svg" xmlns:xlink="http://www.w3.org/1999/xlink" xmlns:xml="http://www.w3.org/XML/1998/namespace" version="1.1">
  <g>
    <g>
      <path style="fill:#FF0000;fill-opacity:1" d="M4.423828125,0L6.064453125,0.41015625 7.470703125,1.5673828125 8.4521484375,3.369140625 8.818359375,5.712890625 8.7890625,8.5693359375 8.701171875,12.041015625 23.4375,12.041015625 23.4375,17.373046875 9.111328125,17.373046875 9.6240234375,20.8154296875 10.9423828125,23.642578125 12.7587890625,25.546875 14.736328125,26.25 16.11328125,25.927734375 16.9775390625,25.2099609375 17.5341796875,24.4775390625 18.017578125,24.140625 18.720703125,24.6240234375 18.92578125,25.986328125 18.603515625,27.685546875 17.7099609375,29.0771484375 16.376953125,30.0146484375 14.736328125,30.3515625 12.9528799057007,30.05126953125 11.4111328125,29.150390625 10.103759765625,27.71484375 9.0234375,25.810546875 8.1591796875,23.466796875 7.5,20.712890625 6.796875,14.23828125 6.03515625,9.052734375 4.4970703125,5.33203125 2.4169921875,3.046875 0,2.16796875 2.32177710533142,0.5419921875 4.423828125,0z" />
    </g>
  </g>
</svg>