<?xml version="1.0" encoding="utf-8"?>
<!DOCTYPE svg PUBLIC "-//W3C//DTD SVG 1.1//EN" "http://www.w3.org/Graphics/SVG/1.1/DTD/svg11.dtd">
<svg width="24.462890625" height="22.6171875" xmlns="http://www.w3.org/2000/svg" xmlns:xlink="http://www.w3.org/1999/xlink" xmlns:xml="http://www.w3.org/XML/1998/namespace" version="1.1">
  <g>
    <g>
      <path style="fill:#FF0000;fill-opacity:1" d="M18.603515625,15.849609375L16.58203125,16.58203125 15.849609375,18.3984375 16.5966796875,20.4345703125 18.603515625,21.181640625 20.654296875,20.4345703125 21.38671875,18.3984375 20.654296875,16.58203125 18.603515625,15.849609375z M18.603515625,14.443359375L20.438232421875,14.71435546875 21.7822265625,15.52734375 22.606201171875,16.7724609375 22.880859375,18.33984375 22.598876953125,20.137939453125 21.7529296875,21.4892578125 20.401611328125,22.335205078125 18.603515625,22.6171875 16.845703125,22.335205078125 15.498046875,21.4892578125 14.6411123275757,20.137939453125 14.35546875,18.33984375 14.6337881088257,16.7724609375 15.46875,15.52734375 16.80908203125,14.71435546875 18.603515625,14.443359375z M7.32421875,0L8.49609375,0.325927734375 9.375,1.3037109375 9.92431640625,2.80883860588074 10.107421875,4.716796875 10.107421875,7.55859375 24.462890625,7.55859375 24.462890625,12.890625 11.19140625,12.890625 10.7958984375,17.373046875 10.107421875,21.97265625 9.052734375,22.265625 8.056640625,19.482421875 7.353515625,16.494140625 6.9287109375,13.8134765625 6.796875,11.953125 6.796875,7.55859375 6.5185546875,5.6689453125 5.56640625,4.951171875 4.7314453125,5.0244140625 4.0283203125,5.244140625 3.33984375,5.595703125 2.548828125,6.09375 1.4208984375,6.9580078125 0.820312440395355,7.32421875 0.249023392796516,6.6650390625 0,6.03515625 0.732421696186066,5.21484375 1.55273449420929,4.248046875 3.36914038658142,2.30712962150574 4.892578125,0.99609375 6.18896436691284,0.2490234375 7.32421875,0z" />
    </g>
  </g>
</svg>