<?xml version="1.0" encoding="utf-8"?>
<!DOCTYPE svg PUBLIC "-//W3C//DTD SVG 1.1//EN" "http://www.w3.org/Graphics/SVG/1.1/DTD/svg11.dtd">
<svg width="34.16015625" height="38.994140625" xmlns="http://www.w3.org/2000/svg" xmlns:xlink="http://www.w3.org/1999/xlink" xmlns:xml="http://www.w3.org/XML/1998/namespace" version="1.1">
  <g>
    <g>
      <path style="fill:#FF0000;fill-opacity:1" d="M17.958984375,26.1328125L20.8044414520264,26.6546630859375 23.3642559051514,28.04443359375 25.6384258270264,30.3021240234375 27.626953125,33.427734375 28.4033203125,31.494140625 29.58984375,29.53125 31.11328125,27.83203125 32.9296875,26.572265625 33.57421875,26.8359375 34.16015625,27.36328125 31.8273906707764,29.9871826171875 30.1611309051514,32.70263671875 29.1613750457764,35.5096435546875 28.828125,38.408203125 28.828125,38.994140625 26.7333984375,35.33203125 24.43359375,31.9921875 21.708984375,29.560546875 20.11962890625,28.857421875 18.33984375,28.623046875 17.0068359375,28.798828125 15.8349609375,29.3701171875 15,30.3955078125 14.677734375,31.962890625 14.970703125,33.3984375 15.6884765625,34.27734375 16.58203125,34.716796875 17.40234375,34.833984375 17.958984375,34.6142578125 18.3984375,34.130859375 18.8232421875,33.6474609375 19.3359375,33.427734375 19.833984375,33.5888671875 20.15625,33.9697265625 20.33203125,34.423828125 20.390625,34.8046875 20.09765625,35.9326171875 19.3505859375,36.73828125 18.3544921875,37.2216796875 17.314453125,37.3828125 15.4541015625,36.9580078125 14.091796875,35.888671875 13.0810546875,34.482421875 12.3046875,33.076171875 11.1767578125,31.5380859375 9.6240234375,30.205078125 7.7197265625,29.267578125 5.537109375,28.916015625 3.12011742591858,29.6484375 2.406005859375,30.5712890625 2.16796922683716,31.875 2.90039086341858,34.0869140625 3.80126953125,34.691162109375 5.0390625,34.892578125 5.595703125,34.658203125 5.9033203125,34.16015625 6.2109375,33.662109375 6.767578125,33.427734375 7.55859375,33.80859375 7.79296875,34.6875 7.598876953125,35.811767578125 7.0166015625,36.6650390625 5.126953125,37.3828125 3.10546898841858,36.9873046875 1.4794921875,35.91796875 0.395508170127869,34.2041015625 0,31.875 0.424805164337158,29.4140625 1.56738305091858,27.6708984375 3.20800757408142,26.6455078125 5.15625,26.30859375 7.001953125,26.5869140625 9.0087890625,27.4365234375 10.95703125,28.8720703125 12.65625,30.908203125 13.1249990463257,28.985595703125 14.1796875,27.4951171875 15.79833984375,26.517333984375 17.958984375,26.1328125z M17.958984375,13.06640625L20.8044414520264,13.5882577896118 23.3642559051514,14.9780292510986 25.6384258270264,17.2357196807861 27.626953125,20.361328125 28.4033203125,18.427734375 29.58984375,16.46484375 31.11328125,14.765625 32.9296875,13.505859375 33.57421875,13.76953125 34.16015625,14.296875 31.8273906707764,16.9207763671875 30.1611309051514,19.63623046875 29.1613750457764,22.4432373046875 28.828125,25.341796875 28.828125,25.927734375 26.7333984375,22.265625 24.43359375,18.92578125 21.708984375,16.494140625 20.11962890625,15.7910175323486 18.33984375,15.556640625 17.0068359375,15.732421875 15.8349609375,16.3037109375 15,17.3291015625 14.677734375,18.896484375 14.970703125,20.33203125 15.6884765625,21.2109375 16.58203125,21.650390625 17.40234375,21.767578125 17.958984375,21.5478515625 18.3984375,21.064453125 18.8232421875,20.5810546875 19.3359375,20.361328125 19.833984375,20.5224609375 20.15625,20.9033203125 20.33203125,21.357421875 20.390625,21.73828125 20.09765625,22.8662109375 19.3505859375,23.671875 18.3544921875,24.1552734375 17.314453125,24.31640625 15.4541015625,23.8916015625 14.091796875,22.822265625 13.0810546875,21.416015625 12.3046875,20.009765625 11.1767578125,18.4716796875 9.6240234375,17.138671875 7.7197265625,16.201171875 5.537109375,15.849609375 3.12011742591858,16.58203125 2.406005859375,17.5048847198486 2.16796922683716,18.80859375 2.90039086341858,21.0205078125 3.80126953125,21.624755859375 5.0390625,21.826171875 5.595703125,21.591796875 5.9033203125,21.09375 6.2109375,20.595703125 6.767578125,20.361328125 7.55859375,20.7421875 7.79296875,21.62109375 7.598876953125,22.745361328125 7.0166015625,23.5986328125 5.126953125,24.31640625 3.10546898841858,23.9208984375 1.4794921875,22.8515625 0.395508170127869,21.1376953125 0,18.80859375 0.424805164337158,16.34765625 1.56738305091858,14.6044921875 3.20800757408142,13.5791015625 5.15625,13.2421875 7.001953125,13.5205078125 9.0087890625,14.3701171875 10.95703125,15.8056640625 12.65625,17.841796875 13.1249990463257,15.9191913604736 14.1796875,14.4287109375 15.79833984375,13.4509296417236 17.958984375,13.06640625z M17.958984375,0L20.8044414520264,0.5218505859375 23.3642559051514,1.91162109375 25.6384258270264,4.1693115234375 27.626953125,7.294921875 28.4033203125,5.361328125 29.58984375,3.3984375 31.11328125,1.69921875 32.9296875,0.439453125 33.57421875,0.703125 34.16015625,1.23046875 31.8273906707764,3.8543701171875 30.1611309051514,6.56982421875 29.1613750457764,9.3768310546875 28.828125,12.275390625 28.828125,12.861328125 26.7333984375,9.19921875 24.43359375,5.859375 21.708984375,3.427734375 20.11962890625,2.724609375 18.33984375,2.490234375 17.0068359375,2.666015625 15.8349609375,3.2373046875 15,4.2626953125 14.677734375,5.830078125 14.970703125,7.265625 15.6884765625,8.14453125 16.58203125,8.583984375 17.40234375,8.701171875 17.958984375,8.4814453125 18.3984375,7.998046875 18.8232421875,7.5146484375 19.3359375,7.294921875 19.833984375,7.4560546875 20.15625,7.8369140625 20.33203125,8.291015625 20.390625,8.671875 20.09765625,9.7998046875 19.3505859375,10.60546875 18.3544921875,11.0888671875 17.314453125,11.25 15.4541015625,10.8251953125 14.091796875,9.755859375 13.0810546875,8.349609375 12.3046875,6.943359375 11.1767578125,5.4052734375 9.6240234375,4.072265625 7.7197265625,3.134765625 5.537109375,2.783203125 3.12011742591858,3.515625 2.406005859375,4.4384765625 2.16796922683716,5.7421875 2.90039086341858,7.9541015625 3.80126953125,8.558349609375 5.0390625,8.759765625 5.595703125,8.525390625 5.9033203125,8.02734375 6.2109375,7.529296875 6.767578125,7.294921875 7.55859375,7.67578125 7.79296875,8.5546875 7.598876953125,9.67895603179932 7.0166015625,10.5322265625 5.126953125,11.25 3.10546898841858,10.8544921875 1.4794921875,9.78515625 0.395508170127869,8.0712890625 0,5.7421875 0.424805164337158,3.28125 1.56738305091858,1.5380859375 3.20800757408142,0.5126953125 5.15625,0.17578125 7.001953125,0.4541015625 9.0087890625,1.3037109375 10.95703125,2.7392578125 12.65625,4.775390625 13.1249990463257,2.852783203125 14.1796875,1.3623046875 15.79833984375,0.384521484375 17.958984375,0z" />
    </g>
  </g>
</svg>