<?xml version="1.0" encoding="utf-8"?>
<!DOCTYPE svg PUBLIC "-//W3C//DTD SVG 1.1//EN" "http://www.w3.org/Graphics/SVG/1.1/DTD/svg11.dtd">
<svg width="12.7211780899489" height="29.208984375" xmlns="http://www.w3.org/2000/svg" xmlns:xlink="http://www.w3.org/1999/xlink" xmlns:xml="http://www.w3.org/XML/1998/namespace" version="1.1">
  <g>
    <g>
      <path style="fill:#FF0000;fill-opacity:1" d="M6.97899055480957,0L8.53172492980957,0.27099609375 9.79149055480957,1.083984375 11.5493030548096,3.9111328125 12.4575061798096,7.822265625 12.7211780548096,12.1875 12.6186389923096,13.4619140625 12.1352405548096,13.857421875 11.6371936798096,13.4912109375 11.3442249298096,12.65625 10.7729358673096,10.0634765625 9.99656867980957,7.470703125 8.79539680480957,5.478515625 7.96776008605957,4.88525390625 6.94969367980957,4.6875 5.06004524230957,5.15625 3.58055305480957,6.4453125 2.52586555480957,8.3935546875 1.91063129901886,10.869140625 6.53953742980957,10.869140625 6.53953742980957,16.201171875 2.55516242980957,16.201171875 3.50731086730957,18.1640625 4.75242805480957,20.0390625 6.15867805480957,21.7529296875 7.56492805480957,23.232421875 6.94969367980957,29.208984375 6.36375617980957,29.208984375 6.04149055480957,28.447265625 5.66063117980957,27.5537109375 5.07469367980957,26.513671875 4.13719367980957,25.283203125 1.93992841243744,22.265625 0.70945942401886,19.3505859375 0.16746711730957,16.435546875 0.00633442401885986,13.41796875 0.431139349937439,8.4228515625 1.82274043560028,4.130859375 4.03465461730957,1.1279296875 5.42259359359741,0.281982421875 6.97899055480957,0z" />
    </g>
  </g>
</svg>