<?xml version="1.0" encoding="utf-8"?>
<!DOCTYPE svg PUBLIC "-//W3C//DTD SVG 1.1//EN" "http://www.w3.org/Graphics/SVG/1.1/DTD/svg11.dtd">
<svg width="31.0546875" height="31.201171875" xmlns="http://www.w3.org/2000/svg" xmlns:xlink="http://www.w3.org/1999/xlink" xmlns:xml="http://www.w3.org/XML/1998/namespace" version="1.1">
  <g>
    <g>
      <path style="fill:#FF0000;fill-opacity:1" d="M16.7578125,0L17.9736328125,0.17578125 18.7939453125,0.5859375 19.599609375,1.0546875 20.7421875,1.435546875 22.93212890625,2.1240234375 24.931640625,3.251953125 28.1982421875,6.533203125 30.3076171875,10.83984375 31.0546875,15.703125 30.8056640625,20.3466796875 30.1025390625,24.1845703125 28.9892578125,27.6708984375 27.509765625,31.201171875 24.9609375,26.337890625 26.9091796875,20.7861328125 27.5390625,15.703125 27.0263671875,12.099609375 25.546875,8.7158203125 23.1591796875,6.1083984375 21.632080078125,5.247802734375 19.892578125,4.8046875 18.9697265625,5.126953125 18.603515625,6.03515625 18.603515625,24.66796875 18.4423828125,25.7666015625 17.666015625,26.30859375 17.16796875,26.1328125 16.875,25.7080078125 16.7138671875,25.224609375 16.640625,24.873046875 14.765625,16.962890625 11.19140625,16.962890625 10.7958984375,21.4453125 10.107421875,26.044921875 9.052734375,26.337890625 8.056640625,23.5546875 7.353515625,20.56640625 6.9287109375,17.8857421875 6.796875,16.025390625 6.796875,11.630859375 6.5185546875,9.7412109375 5.56640625,9.0234375 4.7314453125,9.0966796875 4.0283203125,9.31640625 3.33984375,9.66796875 2.54882788658142,10.166015625 1.42089819908142,11.0302734375 0.820312261581421,11.396484375 0.249023139476776,10.7373046875 4.12114786740858E-13,10.107421875 0.732421636581421,9.287109375 1.55273389816284,8.3203125 3.36914014816284,6.37939548492432 4.892578125,5.068359375 6.18896436691284,4.3212890625 7.32421875,4.072265625 8.49609375,4.398193359375 9.375,5.3759765625 9.92431640625,6.88110446929932 10.107421875,8.7890625 10.107421875,11.630859375 15.263671875,11.630859375 15.234375,2.16796875 15.29296875,1.40625 15.52734375,0.7177734375 15.99609375,0.205078125 16.7578125,0z" />
    </g>
  </g>
</svg>