<?xml version="1.0" encoding="utf-8"?>
<!DOCTYPE svg PUBLIC "-//W3C//DTD SVG 1.1//EN" "http://www.w3.org/Graphics/SVG/1.1/DTD/svg11.dtd">
<svg width="21.09375" height="23.61328125" xmlns="http://www.w3.org/2000/svg" xmlns:xlink="http://www.w3.org/1999/xlink" xmlns:xml="http://www.w3.org/XML/1998/namespace" version="1.1">
  <g>
    <g>
      <path style="fill:#FF0000;fill-opacity:1" d="M0,0L21.09375,0 21.09375,5.33203125 2.109375,5.33203125 2.76489233970642,8.88427734375 3.5595703125,11.748046875 4.420166015625,14.00390625 5.2734375,15.732421875 6.4453125,17.493896484375 7.6171875,18.6767578125 8.82568359375,19.346923828125 10.107421875,19.5703125 10.7373046875,19.2626953125 10.8984375,18.427734375 10.4443359375,16.5673828125 9.4482421875,14.326171875 8.4521484375,12.041015625 7.998046875,10.048828125 8.349609375,8.994140625 9.404296875,8.642578125 12.1142578125,9.3603515625 14.53125,11.1474609375 16.376953125,13.4912109375 17.373046875,15.849609375 17.4609375,16.23046875 17.490234375,16.46484375 17.4462890625,16.669921875 17.2265625,16.787109375 16.962890625,16.640625 16.7578125,16.34765625 15.4833984375,14.6044921875 13.9892578125,13.0810546875 12.4072265625,12.01171875 10.869140625,11.6015625 10.4150390625,11.7626953125 10.1953125,12.333984375 10.6201171875,13.41796875 11.572265625,15.1171875 12.5244140625,17.40234375 12.94921875,20.244140625 12.7368154525757,21.74560546875 12.099609375,22.79296875 11.1767568588257,23.408203125 10.107421875,23.61328125 8.3203125,23.177490234375 6.474609375,21.8701171875 4.6875,19.786376953125 3.076171875,17.021484375 1.97753894329071,14.3994140625 1.06933605670929,11.455078125 0.395507574081421,8.3642578125 0,5.33203125 0,0z" />
    </g>
  </g>
</svg>