<?xml version="1.0" encoding="utf-8"?>
<!DOCTYPE svg PUBLIC "-//W3C//DTD SVG 1.1//EN" "http://www.w3.org/Graphics/SVG/1.1/DTD/svg11.dtd">
<svg width="16.93359375" height="21.03515625" xmlns="http://www.w3.org/2000/svg" xmlns:xlink="http://www.w3.org/1999/xlink" xmlns:xml="http://www.w3.org/XML/1998/namespace" version="1.1">
  <g>
    <g>
      <path style="fill:#FF0000;fill-opacity:1" d="M8.701171875,13.18359375L7.423095703125,13.385009765625 6.4599609375,13.9892578125 5.85571241378784,14.893798828125 5.654296875,15.99609375 5.85937452316284,17.281494140625 6.474609375,18.2666015625 7.44140625,18.892822265625 8.701171875,19.1015625 10.001220703125,18.892822265625 10.9716796875,18.2666015625 11.5759267807007,17.281494140625 11.77734375,15.99609375 11.5795888900757,14.893798828125 10.986328125,13.9892578125 10.01953125,13.385009765625 8.701171875,13.18359375z M0,0L16.93359375,0 16.93359375,5.33203125 1.9921875,5.33203125 4.541015625,13.037109375 6.240234375,11.748046875 8.701171875,11.279296875 10.8947744369507,11.605224609375 12.4951171875,12.5830078125 13.4728994369507,14.073486328125 13.798828125,15.9375 13.4655752182007,18.057861328125 12.4658203125,19.6728515625 10.8581533432007,20.694580078125 8.701171875,21.03515625 6.38671875,20.5224609375 4.8779296875,19.130859375 3.8671875,17.0947265625 3.046875,14.677734375 0,5.33203125 0,0z" />
    </g>
  </g>
</svg>