<?xml version="1.0" encoding="utf-8"?>
<!DOCTYPE svg PUBLIC "-//W3C//DTD SVG 1.1//EN" "http://www.w3.org/Graphics/SVG/1.1/DTD/svg11.dtd">
<svg width="14.7719593400995" height="29.208984375" xmlns="http://www.w3.org/2000/svg" xmlns:xlink="http://www.w3.org/1999/xlink" xmlns:xml="http://www.w3.org/XML/1998/namespace" version="1.1">
  <g>
    <g>
      <path style="fill:#FF0000;fill-opacity:1" d="M6.97899055480957,0L9.38133430480957,0.7470703125 11.0366077423096,2.7685546875 12.0766468048096,5.6982421875 12.6039905548096,9.140625 12.6918811798096,10.869140625 14.7719593048096,10.869140625 14.7719593048096,16.201171875 12.7211780548096,16.201171875 12.1645374298096,15.5712890625 11.7543811798096,14.501953125 11.4760608673096,13.359375 11.3149280548096,12.5390625 10.7436389923096,9.9609375 9.96727180480957,7.412109375 8.78074836730957,5.4638671875 7.96409797668457,4.881591796875 6.94969367980957,4.6875 5.06004524230957,5.15625 3.58055305480957,6.4453125 2.52586603164673,8.3935546875 1.91063129901886,10.869140625 6.53953742980957,10.869140625 6.53953742980957,16.201171875 2.55516242980957,16.201171875 3.50731086730957,18.1640625 4.75242805480957,20.0390625 6.15867805480957,21.7529296875 7.56492805480957,23.232421875 6.94969367980957,29.208984375 6.36375617980957,29.208984375 6.04149055480957,28.447265625 5.66063117980957,27.5537109375 5.07469367980957,26.513671875 4.13719367980957,25.283203125 1.93992841243744,22.265625 0.70945930480957,19.3505859375 0.167466998100281,16.435546875 0.00633442401885986,13.41796875 0.431139230728149,8.4228515625 1.82274043560028,4.130859375 4.03465461730957,1.1279296875 5.42259359359741,0.281982421875 6.97899055480957,0z" />
    </g>
  </g>
</svg>